<?xml version="1.0" encoding="UTF-8" standalone="no"?>
<!DOCTYPE svg PUBLIC "-//W3C//DTD SVG 1.1//EN" "http://www.w3.org/Graphics/SVG/1.1/DTD/svg11.dtd">
<svg xmlns="http://www.w3.org/2000/svg" xmlns:xlink="http://www.w3.org/1999/xlink" version="1.1" width="234.769pt" height="190.371pt" viewBox="0 0 234.769 190.371">
<clipPath id="cp0">
<path transform="matrix(1,0,0,-1,27.931,174.48601)" d="M 0 0 L 194.27216 0 L 194.27216 161.39575 L 0 161.39575 Z "/>
</clipPath>
<g clip-path="url(#cp0)">
<path transform="matrix(1,0,0,-1,27.931,174.48601)" d="M 0 124.71489 L 9.44376 124.71489 L 18.88751 124.71489 L 28.33128 124.71489 L 37.77504 124.71489 L 47.2188 124.71489 L 56.66257 124.71489 L 66.10632 124.71489 L 75.55008 124.71489 L 84.99385 124.71489 L 94.43762 124.71489 L 103.88138 124.71489 L 113.32515 124.71489 L 122.7689 124.71489 L 132.21266 124.71489 L 141.65644 124.71489 L 151.10019 124.71489 L 160.54395 124.71489 L 169.98772 124.71489 L 179.43149 124.71489 L 188.87525 124.71489 L 198.319 124.71489 L 207.76277 124.71489 L 217.20653 124.71489 L 226.65029 124.71489 L 226.65029 0 L 0 0 Z " fill="#cccce6"/>
<path transform="matrix(1,0,0,-1,27.931,174.48601)" d="M 0 14.67233 L 9.44376 14.67233 L 18.88751 14.67233 L 28.33128 14.67233 L 37.77504 14.67233 L 47.2188 14.67233 L 56.66257 14.67233 L 66.10632 14.67233 L 75.55008 14.67233 L 84.99385 14.67233 L 94.43762 14.67233 L 103.88138 14.67233 L 113.32515 14.67233 L 122.7689 14.67233 L 132.21266 14.67233 L 141.65644 14.67233 L 151.10019 14.67233 L 160.54395 14.67233 L 169.98772 14.67233 L 179.43149 14.67233 L 188.87525 14.67233 L 198.319 14.67233 L 207.76277 14.67233 L 217.20653 14.67233 L 226.65029 14.67233 L 226.65029 0 L 0 0 Z " fill="#ffffff"/>
<path transform="matrix(1,0,0,-1,27.931,174.48601)" stroke-width=".3985" stroke-linecap="butt" stroke-dasharray="2.98883,2.98883" stroke-miterlimit="10" stroke-linejoin="miter" fill="none" stroke="#000000" d="M 0 124.71489 L 194.27216 124.71489 "/>
<path transform="matrix(1,0,0,-1,27.931,174.48601)" stroke-width=".3985" stroke-linecap="butt" stroke-dasharray="2.98883,2.98883" stroke-miterlimit="10" stroke-linejoin="miter" fill="none" stroke="#000000" d="M 0 14.67233 L 194.27216 14.67233 "/>
<path transform="matrix(1,0,0,-1,27.931,174.48601)" stroke-width=".3985" stroke-linecap="butt" stroke-dasharray="2.98883,2.98883" stroke-miterlimit="10" stroke-linejoin="miter" fill="none" stroke="#000000" d="M 161.89347 0 L 161.89347 124.71489 "/>
<path transform="matrix(1,0,0,-1,27.931,174.48601)" stroke-width=".3985" stroke-linecap="butt" stroke-dasharray="2.98883,2.98883" stroke-miterlimit="10" stroke-linejoin="miter" fill="none" stroke="#000000" d="M 32.3787 0 L 32.3787 14.67233 "/>
<path transform="matrix(1,0,0,-1,27.931,174.48601)" stroke-width=".3985" stroke-linecap="butt" stroke-miterlimit="10" stroke-linejoin="miter" fill="none" stroke="#800000" d="M 0 73.3617 L 8.09467 73.3617 L 16.18935 73.3617 L 24.28401 73.3617 L 32.3787 73.3617 L 40.47336 73.3617 L 48.56804 73.3617 L 56.6627 73.3617 L 64.75739 73.3617 L 72.85205 73.3617 L 80.94673 73.3617 L 89.0414 73.3617 L 97.13608 73.3617 L 105.23074 73.3617 L 113.32542 73.3617 L 121.42009 73.3617 L 129.51477 73.3617 L 137.60944 73.3617 L 145.70412 73.3617 L 153.79878 73.3617 L 161.89347 73.3617 L 169.98813 73.3617 L 178.08281 73.3617 L 186.17748 73.3617 L 194.27216 73.3617 "/>
<path transform="matrix(1,0,0,-1,27.931,174.48601)" stroke-width="1.19553" stroke-linecap="butt" stroke-miterlimit="10" stroke-linejoin="miter" fill="none" stroke="#000080" d="M 32.3787 14.67233 L 161.89347 51.35318 "/>
</g>
<path transform="matrix(1,0,0,-1,27.931,174.48601)" stroke-width=".19925" stroke-linecap="butt" stroke-miterlimit="10" stroke-linejoin="miter" fill="none" stroke="#929292" d="M 32.3787 -2.12598 L 32.3787 2.12598 M 161.89347 -2.12598 L 161.89347 2.12598 "/>
<path transform="matrix(1,0,0,-1,27.931,174.48601)" stroke-width=".19925" stroke-linecap="butt" stroke-miterlimit="10" stroke-linejoin="miter" fill="none" stroke="#929292" d="M -2.12587 14.67233 L 2.12587 14.67233 M -2.12587 73.3617 L 2.12587 73.3617 M -2.12587 124.71489 L 2.12587 124.71489 "/>
<path transform="matrix(1,0,0,-1,27.931,174.48601)" stroke-width=".3985" stroke-linecap="butt" stroke-miterlimit="10" stroke-linejoin="miter" fill="none" stroke="#000000" d="M 0 0 L 192.27964 0 "/>
<path transform="matrix(1,0,0,-1,220.21063,174.48601)" d="M 1.99252 0 L -1.19551 1.59401 L 0 0 L -1.19551 -1.59401 "/>
<path transform="matrix(1,0,0,-1,27.931,174.48601)" stroke-width=".3985" stroke-linecap="butt" stroke-miterlimit="10" stroke-linejoin="miter" fill="none" stroke="#000000" d="M 0 0 L 0 159.40323 "/>
<path transform="matrix(0,-1,-1,-0,27.931,15.082779)" d="M 1.99252 0 L -1.19551 1.59401 L 0 0 L -1.19551 -1.59401 "/>
<symbol id="font_1_1">
<path d="M .33300004 .38900004 C .31500004 .42600004 .286 .45300005 .24100001 .45300005 C .124 .45300005 0 .30600003 0 .16000001 C 0 .06600001 .055000005 0 .133 0 C .153 0 .20300001 .0040000008 .263 .075 C .27100004 .033000005 .30600003 0 .35400004 0 C .38900004 0 .41200004 .023000002 .42800004 .055000005 C .44500003 .091000009 .45800004 .15200001 .45800004 .15400002 C .45800004 .16400002 .44900004 .16400002 .44600005 .16400002 C .43600003 .16400002 .43500004 .16000001 .43200005 .14600002 C .41500003 .081 .397 .022000002 .35600005 .022000002 C .32900004 .022000002 .32600004 .048 .32600004 .068 C .32600004 .09 .32800005 .098000008 .33900003 .14200002 C .35000003 .18400002 .35200004 .19400002 .36100004 .23200003 L .397 .37200005 C .40400005 .40000005 .40400005 .40200005 .40400005 .40600003 C .40400005 .42300005 .39200003 .43300004 .37500004 .43300004 C .35100005 .43300004 .33600004 .411 .33300004 .38900004 M .26800005 .13000001 C .263 .112 .263 .11000001 .24800001 .093 C .20400001 .038000004 .163 .022000002 .135 .022000002 C .08499999 .022000002 .07100001 .077 .07100001 .116000007 C .07100001 .16600001 .103 .28900004 .126 .335 C .157 .39400003 .202 .43100003 .242 .43100003 C .307 .43100003 .32100005 .34900005 .32100005 .34300003 C .32100005 .337 .31900005 .33100004 .31800003 .32600004 L .26800005 .13000001 Z "/>
</symbol>
<use xlink:href="#font_1_1" transform="matrix(9.9626,0,0,-9.9626,58.074506,184.5306)"/>
<symbol id="font_1_2">
<path d="M .192 .694 C .192 .695 .192 .705 .179 .705 C .156 .705 .083000008 .697 .057 .695 C .049 .694 .038 .693 .038 .675 C .038 .663 .047000003 .663 .062000004 .663 C .11 .663 .112 .656 .112 .646 C .112 .639 .103 .605 .098000008 .584 L .015999999 .25800003 C .0040000008 .20800002 0 .19200002 0 .15700002 C 0 .062000004 .053 0 .127 0 C .24500002 0 .36800004 .14900002 .36800004 .293 C .36800004 .38400004 .31500004 .45300005 .235 .45300005 C .18900001 .45300005 .148 .42400003 .118 .39300005 L .192 .694 M .098000008 .316 C .104 .33800004 .104 .34000004 .113000009 .351 C .162 .41600005 .207 .43100003 .233 .43100003 C .26900003 .43100003 .29600004 .40100003 .29600004 .337 C .29600004 .27800004 .263 .16300002 .24500002 .12500002 C .212 .058000003 .16600001 .022000002 .127 .022000002 C .092999998 .022000002 .060000007 .049000004 .060000007 .123 C .060000007 .14200002 .060000007 .16100002 .076000008 .22400002 L .098000008 .316 Z "/>
</symbol>
<use xlink:href="#font_1_2" transform="matrix(9.9626,0,0,-9.9626,188.15325,187.15959)"/>
<symbol id="font_1_4">
<path d="M .314 .605 L .4 .605 C .42000003 .605 .43 .605 .43 .625 C .43 .63600006 .42000003 .63600006 .40300004 .63600006 L .32000003 .63600006 L .34100003 .75 C .34500004 .771 .35900004 .842 .365 .8540001 C .374 .873 .39100004 .888 .41200004 .888 C .416 .888 .44200004 .888 .461 .87 C .41700004 .86600008 .407 .8310001 .407 .816 C .407 .793 .425 .781 .444 .781 C .47 .781 .49900005 .8030001 .49900005 .8410001 C .49900005 .8870001 .45300005 .9100001 .41200004 .9100001 C .37800003 .9100001 .31500004 .8920001 .28500004 .793 C .279 .7720001 .27600003 .7620001 .252 .63600006 L .18300002 .63600006 C .164 .63600006 .15300001 .63600006 .15300001 .61700007 C .15300001 .605 .162 .605 .18100001 .605 L .24700001 .605 L .172 .21000001 C .15400002 .113000009 .13700001 .022 .08500001 .022 C .081 .022 .056 .022 .037 .040000008 C .083000008 .043000014 .09200001 .07900001 .09200001 .094000007 C .09200001 .117000009 .074 .12900001 .055 .12900001 C .029 .12900001 0 .10700001 0 .069000009 C 0 .024000004 .044 0 .08500001 0 C .14 0 .18 .059 .19800002 .09700001 C .23000002 .16000001 .25300003 .28100003 .254 .28800003 L .314 .605 Z "/>
</symbol>
<use xlink:href="#font_1_4" transform="matrix(9.9626,0,0,-9.9626,3.849017,164.34734)"/>
<symbol id="font_2_1">
<path d="M .23200003 .00999999 C .23200003 .012999982 .23200003 .014999986 .215 .03199999 C .09 .15799999 .058 .347 .058 .5 C .058 .674 .096 .84800007 .21900001 .97300007 C .23200003 .985 .23200003 .98700007 .23200003 .99 C .23200003 .99700006 .22800002 1 .222 1 C .21200001 1 .12200001 .93200007 .06299999 .805 C .012000002 .69500008 0 .584 0 .5 C 0 .422 .011 .301 .066 .188 C .126 .065 .21200001 0 .222 0 C .22800002 0 .23200003 .0029999912 .23200003 .00999999 Z "/>
</symbol>
<use xlink:href="#font_2_1" transform="matrix(9.9626,0,0,-9.9626,10.257297,164.79566)"/>
<use xlink:href="#font_1_1" transform="matrix(9.9626,0,0,-9.9626,13.543504,162.4146)"/>
<symbol id="font_2_2">
<path d="M .232 .5 C .232 .578 .22100002 .699 .16600001 .81200006 C .106 .93500009 .020000004 1 .009999998 1 C .0040000008 1 0 .99600008 0 .99 C 0 .98700007 0 .985 .019000002 .967 C .117000009 .86800006 .174 .709 .174 .5 C .174 .329 .137 .153 .012999997 .026999996 C 0 .014999986 0 .012999982 0 .00999999 C 0 .003999993 .0040000008 0 .009999998 0 C .020000004 0 .11000001 .06799999 .169 .195 C .22 .305 .232 .416 .232 .5 Z "/>
</symbol>
<use xlink:href="#font_2_2" transform="matrix(9.9626,0,0,-9.9626,18.978867,164.79566)"/>
<symbol id="font_1_3">
<path d="M .47600005 .694 C .47600005 .695 .47600005 .705 .46300004 .705 C .44800005 .705 .35300002 .69600006 .33600004 .694 C .32800005 .693 .32200004 .688 .32200004 .675 C .32200004 .663 .33100004 .663 .34600003 .663 C .39400003 .663 .39600004 .656 .39600004 .646 L .39300005 .626 L .33300004 .38900004 C .31500004 .42600004 .286 .45300005 .24100001 .45300005 C .124 .45300005 0 .30600003 0 .16000001 C 0 .06600001 .055000005 0 .133 0 C .153 0 .20300001 .0040000008 .263 .075 C .27100004 .033000005 .30600003 0 .35400004 0 C .38900004 0 .41200004 .023000002 .42800004 .055000005 C .44500003 .091000009 .45800004 .15200001 .45800004 .15400002 C .45800004 .16400002 .44900004 .16400002 .44600005 .16400002 C .43600003 .16400002 .43500004 .16000001 .43200005 .14600002 C .41500003 .081 .397 .022000002 .35600005 .022000002 C .32900004 .022000002 .32600004 .048 .32600004 .068 C .32600004 .092 .32800005 .09900001 .33200003 .116000007 L .47600005 .694 M .26800005 .13000001 C .263 .112 .263 .11000001 .24800001 .093 C .20400001 .038000004 .163 .022000002 .135 .022000002 C .08499999 .022000002 .07100001 .077 .07100001 .116000007 C .07100001 .16600001 .103 .28900004 .126 .335 C .157 .39400003 .202 .43100003 .242 .43100003 C .307 .43100003 .32100005 .34900005 .32100005 .34300003 C .32100005 .337 .31900005 .33100004 .31800003 .32600004 L .26800005 .13000001 Z "/>
</symbol>
<use xlink:href="#font_1_3" transform="matrix(9.9626,0,0,-9.9626,17.498503,104.69459)"/>
<use xlink:href="#font_1_4" transform="matrix(9.9626,0,0,-9.9626,4.839017,54.30634)"/>
<use xlink:href="#font_2_1" transform="matrix(9.9626,0,0,-9.9626,11.247296,54.754659)"/>
<use xlink:href="#font_1_2" transform="matrix(9.9626,0,0,-9.9626,14.603242,52.373598)"/>
<use xlink:href="#font_2_2" transform="matrix(9.9626,0,0,-9.9626,18.978867,54.754659)"/>
<path transform="matrix(1,0,0,-1,27.931,174.48601)" d="M 34.37125 14.67233 C 34.37125 15.77281 33.47916 16.66489 32.3787 16.66489 C 31.27821 16.66489 30.38614 15.77281 30.38614 14.67233 C 30.38614 13.57187 31.27821 12.67978 32.3787 12.67978 C 33.47916 12.67978 34.37125 13.57187 34.37125 14.67233 Z M 32.3787 14.67233 " fill="#000080"/>
<path transform="matrix(1,0,0,-1,27.931,174.48601)" stroke-width=".3985" stroke-linecap="butt" stroke-miterlimit="10" stroke-linejoin="miter" fill="none" stroke="#000080" d="M 34.37125 14.67233 C 34.37125 15.77281 33.47916 16.66489 32.3787 16.66489 C 31.27821 16.66489 30.38614 15.77281 30.38614 14.67233 C 30.38614 13.57187 31.27821 12.67978 32.3787 12.67978 C 33.47916 12.67978 34.37125 13.57187 34.37125 14.67233 Z M 32.3787 14.67233 "/>
<path transform="matrix(1,0,0,-1,27.931,174.48601)" d="M 163.88602 51.35318 C 163.88602 52.45366 162.99393 53.34573 161.89347 53.34573 C 160.79299 53.34573 159.90091 52.45366 159.90091 51.35318 C 159.90091 50.25272 160.79299 49.36063 161.89347 49.36063 C 162.99393 49.36063 163.88602 50.25272 163.88602 51.35318 Z M 161.89347 51.35318 " fill="#cccce6"/>
<path transform="matrix(1,0,0,-1,27.931,174.48601)" stroke-width=".3985" stroke-linecap="butt" stroke-miterlimit="10" stroke-linejoin="miter" fill="none" stroke="#000080" d="M 163.88602 51.35318 C 163.88602 52.45366 162.99393 53.34573 161.89347 53.34573 C 160.79299 53.34573 159.90091 52.45366 159.90091 51.35318 C 159.90091 50.25272 160.79299 49.36063 161.89347 49.36063 C 162.99393 49.36063 163.88602 50.25272 163.88602 51.35318 Z M 161.89347 51.35318 "/>
<path transform="matrix(1,0,0,-1,27.931,174.48601)" d="M 163.88602 124.71489 C 163.88602 125.81537 162.99393 126.70744 161.89347 126.70744 C 160.79299 126.70744 159.90091 125.81537 159.90091 124.71489 C 159.90091 123.61443 160.79299 122.72234 161.89347 122.72234 C 162.99393 122.72234 163.88602 123.61443 163.88602 124.71489 Z M 161.89347 124.71489 " fill="#000080"/>
<path transform="matrix(1,0,0,-1,27.931,174.48601)" stroke-width=".3985" stroke-linecap="butt" stroke-miterlimit="10" stroke-linejoin="miter" fill="none" stroke="#000080" d="M 163.88602 124.71489 C 163.88602 125.81537 162.99393 126.70744 161.89347 126.70744 C 160.79299 126.70744 159.90091 125.81537 159.90091 124.71489 C 159.90091 123.61443 160.79299 122.72234 161.89347 122.72234 C 162.99393 122.72234 163.88602 123.61443 163.88602 124.71489 Z M 161.89347 124.71489 "/>
<symbol id="font_1_5">
<path d="M .305 .31300003 C .311 .33900003 .334 .43100003 .404 .43100003 C .409 .43100003 .433 .43100003 .454 .418 C .426 .41300003 .40600003 .388 .40600003 .36400003 C .40600003 .34800003 .417 .32900004 .444 .32900004 C .46600003 .32900004 .498 .34700004 .498 .38700003 C .498 .43900005 .439 .45300005 .405 .45300005 C .347 .45300005 .312 .40000005 .3 .37700004 C .275 .44300003 .221 .45300005 .19200002 .45300005 C .08800001 .45300005 .031000002 .32400004 .031000002 .29900003 C .031000002 .28900004 .041 .28900004 .043000007 .28900004 C .051000008 .28900004 .054000006 .291 .056 .3 C .09 .40600003 .156 .43100003 .19000001 .43100003 C .209 .43100003 .244 .42200003 .244 .36400003 C .244 .33300004 .22700002 .26600004 .19000001 .126 C .17400001 .064 .13900002 .022000002 .095000009 .022000002 C .08900001 .022000002 .06600001 .022000002 .045 .035 C .07000001 .040000004 .09200001 .061 .09200001 .089 C .09200001 .116000007 .07000001 .124000009 .055000009 .124000009 C .025 .124000009 0 .098000008 0 .06600001 C 0 .020000002 .050000006 0 .094000007 0 C .16000001 0 .19600001 .07000001 .19900002 .076000008 C .21100001 .039 .24700003 0 .307 0 C .41 0 .467 .12900001 .467 .15400002 C .467 .16400002 .458 .16400002 .455 .16400002 C .446 .16400002 .444 .16000001 .442 .15300001 C .409 .046 .341 .022000002 .30900003 .022000002 C .27 .022000002 .254 .054 .254 .08800001 C .254 .11000001 .26 .13200002 .271 .17600002 L .305 .31300003 Z "/>
</symbol>
<use xlink:href="#font_1_5" transform="matrix(9.9626,0,0,-9.9626,226.04392,176.7406)"/>
<symbol id="font_1_6">
<path d="M .45700003 .586 C .461 .6 .461 .602 .461 .609 C .461 .62700006 .447 .63600006 .432 .63600006 C .42200003 .63600006 .40600003 .63 .397 .615 C .395 .61 .387 .579 .38300003 .561 C .37600003 .535 .36900003 .508 .363 .48100005 L .318 .301 C .314 .286 .271 .21600002 .20500002 .21600002 C .15400002 .21600002 .143 .26000003 .143 .29700003 C .143 .34300003 .16000001 .40500004 .194 .49300004 C .21000001 .53400006 .21400002 .545 .21400002 .56500008 C .21400002 .61 .18200001 .6470001 .13200002 .6470001 C .037 .6470001 0 .50200006 0 .49300004 C 0 .48300005 .01 .48300005 .012 .48300005 C .022000002 .48300005 .023 .485 .028000003 .50100007 C .055000009 .595 .095000009 .625 .12900001 .625 C .13700001 .625 .15400002 .625 .15400002 .59300008 C .15400002 .568 .14400001 .54200008 .13700001 .523 C .097 .41700004 .079 .36 .079 .31300003 C .079 .224 .142 .194 .201 .194 C .24000003 .194 .274 .21100001 .30200003 .23900002 C .289 .187 .277 .13800001 .237 .08500001 C .21100001 .051 .17300001 .022 .127 .022 C .113000009 .022 .068 .025000006 .051000008 .06400001 C .067 .06400001 .080000009 .06400001 .094000007 .076000008 C .104 .08500001 .11400001 .098000008 .11400001 .117000009 C .11400001 .148 .087000008 .15200001 .07700001 .15200001 C .054000006 .15200001 .021 .136 .021 .087000008 C .021 .037 .065000008 0 .127 0 C .23 0 .333 .091000009 .361 .20400001 L .45700003 .586 Z "/>
</symbol>
<use xlink:href="#font_1_6" transform="matrix(9.9626,0,0,-9.9626,25.598916,9.652334)"/>
</svg>
