<?xml version="1.0" encoding="UTF-8" standalone="no"?>
<!DOCTYPE svg PUBLIC "-//W3C//DTD SVG 1.1//EN" "http://www.w3.org/Graphics/SVG/1.1/DTD/svg11.dtd">
<svg xmlns="http://www.w3.org/2000/svg" xmlns:xlink="http://www.w3.org/1999/xlink" version="1.1" width="252.283pt" height="190.371pt" viewBox="0 0 252.283 190.371">
<clipPath id="cp0">
<path transform="matrix(1,0,0,-1,45.445,174.48601)" d="M 0 0 L 194.27216 0 L 194.27216 161.39575 L 0 161.39575 Z "/>
</clipPath>
<g clip-path="url(#cp0)">
<path transform="matrix(1,0,0,-1,45.445,174.48601)" d="M 0 123.17429 L 9.44376 123.17429 L 18.88751 123.17429 L 28.33128 123.17429 L 37.77504 123.17429 L 47.2188 123.17429 L 56.66257 123.17429 L 66.10632 123.17429 L 75.55008 123.17429 L 84.99385 123.17429 L 94.43762 123.17429 L 103.88138 123.17429 L 113.32515 123.17429 L 122.7689 123.17429 L 132.21266 123.17429 L 141.65644 123.17429 L 151.10019 123.17429 L 160.54395 123.17429 L 169.98772 123.17429 L 179.43149 123.17429 L 188.87525 123.17429 L 198.319 123.17429 L 207.76277 123.17429 L 217.20653 123.17429 L 226.65029 123.17429 L 226.65029 0 L 0 0 Z " fill="#cccce6"/>
<path transform="matrix(1,0,0,-1,45.445,174.48601)" d="M 0 14.89241 L 9.44376 14.89241 L 18.88751 14.89241 L 28.33128 14.89241 L 37.77504 14.89241 L 47.2188 14.89241 L 56.66257 14.89241 L 66.10632 14.89241 L 75.55008 14.89241 L 84.99385 14.89241 L 94.43762 14.89241 L 103.88138 14.89241 L 113.32515 14.89241 L 122.7689 14.89241 L 132.21266 14.89241 L 141.65644 14.89241 L 151.10019 14.89241 L 160.54395 14.89241 L 169.98772 14.89241 L 179.43149 14.89241 L 188.87525 14.89241 L 198.319 14.89241 L 207.76277 14.89241 L 217.20653 14.89241 L 226.65029 14.89241 L 226.65029 0 L 0 0 Z " fill="#ffffff"/>
<path transform="matrix(1,0,0,-1,45.445,174.48601)" stroke-width=".3985" stroke-linecap="butt" stroke-dasharray="2.98883,2.98883" stroke-miterlimit="10" stroke-linejoin="miter" fill="none" stroke="#000000" d="M 0 123.17429 L 194.27216 123.17429 "/>
<path transform="matrix(1,0,0,-1,45.445,174.48601)" stroke-width=".3985" stroke-linecap="butt" stroke-dasharray="2.98883,2.98883" stroke-miterlimit="10" stroke-linejoin="miter" fill="none" stroke="#000000" d="M 0 14.89241 L 194.27216 14.89241 "/>
<path transform="matrix(1,0,0,-1,45.445,174.48601)" stroke-width=".3985" stroke-linecap="butt" stroke-dasharray="2.98883,2.98883" stroke-miterlimit="10" stroke-linejoin="miter" fill="none" stroke="#000000" d="M 161.89347 0 L 161.89347 123.17429 "/>
<path transform="matrix(1,0,0,-1,45.445,174.48601)" stroke-width=".3985" stroke-linecap="butt" stroke-dasharray="2.98883,2.98883" stroke-miterlimit="10" stroke-linejoin="miter" fill="none" stroke="#000000" d="M 32.3787 0 L 32.3787 14.89241 "/>
<path transform="matrix(1,0,0,-1,45.445,174.48601)" stroke-width=".3985" stroke-linecap="butt" stroke-dasharray="2.98883,2.98883" stroke-miterlimit="10" stroke-linejoin="miter" fill="none" stroke="#000000" d="M 116.14236 0 L 116.46616 73.3617 "/>
<path transform="matrix(1,0,0,-1,45.445,174.48601)" stroke-width=".3985" stroke-linecap="butt" stroke-miterlimit="10" stroke-linejoin="miter" fill="none" stroke="#800000" d="M 0 73.3617 L 8.09467 73.3617 L 16.18935 73.3617 L 24.28401 73.3617 L 32.3787 73.3617 L 40.47336 73.3617 L 48.56804 73.3617 L 56.6627 73.3617 L 64.75739 73.3617 L 72.85205 73.3617 L 80.94673 73.3617 L 89.0414 73.3617 L 97.13608 73.3617 L 105.23074 73.3617 L 113.32542 73.3617 L 121.42009 73.3617 L 129.51477 73.3617 L 137.60944 73.3617 L 145.70412 73.3617 L 153.79878 73.3617 L 161.89347 73.3617 L 169.98813 73.3617 L 178.08281 73.3617 L 186.17748 73.3617 L 194.27216 73.3617 "/>
<path transform="matrix(1,0,0,-1,45.445,174.48601)" stroke-width="1.19553" stroke-linecap="butt" stroke-miterlimit="10" stroke-linejoin="miter" fill="none" stroke="#000080" d="M 0 21.33063 C 0 21.33063 2.43683 20.2223 3.37274 19.83185 C 4.30867 19.4414 5.80959 18.85513 6.7455 18.5165 C 7.68143 18.17786 9.18234 17.67673 10.11826 17.39111 C 11.05418 17.1055 12.5551 16.69012 13.49101 16.45796 C 14.42694 16.2258 15.92786 15.89574 16.86377 15.71773 C 17.7997 15.53972 19.30063 15.29813 20.23654 15.17487 C 21.17247 15.0516 22.67339 14.89783 23.6093 14.82933 C 24.54523 14.76082 26.04613 14.69456 26.98206 14.68114 C 27.91798 14.66771 29.41888 14.69057 30.35481 14.73248 C 31.29074 14.77441 32.79164 14.88629 33.72757 14.98338 C 34.6635 15.08047 36.1644 15.2806 37.10033 15.43236 C 38.03625 15.58412 39.53716 15.8711 40.47308 16.07721 C 41.40901 16.28333 42.90991 16.65787 43.84584 16.91792 C 44.78177 17.17798 46.28267 17.6385 47.2186 17.9516 C 48.15453 18.2647 49.65543 18.80933 50.59135 19.17453 C 51.52728 19.53975 53.0282 20.1671 53.96413 20.58382 C 54.90005 21.00053 56.40096 21.71097 57.33688 22.17796 C 58.27281 22.64494 59.77371 23.434 60.70964 23.94966 C 61.64557 24.46532 63.14647 25.3312 64.0824 25.89449 C 65.01833 26.45776 66.51923 27.40019 67.45515 28.00949 C 68.39108 28.61877 69.89198 29.63254 70.82791 30.2859 C 71.76384 30.93927 73.26474 32.02267 74.20067 32.71858 C 75.1366 33.4145 76.6375 34.56502 77.57343 35.30165 C 78.50935 36.03827 80.94618 38.02777 80.94618 38.02777 "/>
<path transform="matrix(1,0,0,-1,45.445,174.48601)" stroke-width="1.19553" stroke-linecap="butt" stroke-miterlimit="10" stroke-linejoin="miter" fill="none" stroke="#000080" d="M 129.51477 88.03404 C 129.51477 88.03404 131.46424 90.24173 132.21297 91.0888 C 132.9617 91.93587 134.16245 93.29416 134.91118 94.13919 C 135.65993 94.98422 136.86066 96.33792 137.60939 97.17929 C 138.35814 98.02066 139.55887 99.36699 140.30762 100.20328 C 141.05635 101.03955 142.25708 102.37733 143.00583 103.2067 C 143.75457 104.03606 144.95529 105.35936 145.70404 106.18079 C 146.45278 107.0022 147.6535 108.31432 148.40225 109.12698 C 149.151 109.93965 150.35173 111.23671 151.10047 112.03798 C 151.84922 112.83925 153.04994 114.11317 153.79868 114.90202 C 154.54743 115.69086 155.74817 116.9482 156.4969 117.72351 C 157.24562 118.49883 158.44637 119.72964 159.1951 120.48999 C 159.94382 121.25034 161.14456 122.45915 161.89331 123.20361 C 162.64206 123.94809 163.84278 125.1292 164.59152 125.85565 C 165.34027 126.5821 166.541 127.73203 167.28974 128.43946 C 168.03849 129.14688 169.23921 130.26662 169.98795 130.95429 C 170.7367 131.64197 171.93743 132.72928 172.68618 133.39577 C 173.4349 134.06227 174.63564 135.11392 175.38439 135.75803 C 176.13312 136.40213 177.33385 137.41782 178.0826 138.0381 C 178.83135 138.65839 180.03208 139.63303 180.7808 140.22869 C 181.52956 140.82434 182.73029 141.76093 183.47902 142.33124 C 184.22777 142.90155 185.42852 143.79561 186.17723 144.33914 C 186.92597 144.88268 188.12671 145.73268 188.87545 146.24874 C 189.62416 146.7648 190.8249 147.57103 191.57366 148.05858 C 192.32239 148.54615 194.27187 149.76277 194.27187 149.76277 "/>
<path transform="matrix(1,0,0,-1,45.445,174.48601)" stroke-width="1.19553" stroke-linecap="butt" stroke-dasharray="2.98883,2.98883" stroke-miterlimit="10" stroke-linejoin="miter" fill="none" stroke="#8080bf" d="M 80.94673 38.02777 C 80.94673 38.02777 82.40884 39.25221 82.97038 39.73122 C 83.53194 40.21022 84.4325 40.98854 84.99405 41.48018 C 85.55562 41.9718 86.45616 42.77065 87.01773 43.2746 C 87.57928 43.77855 88.47986 44.59654 89.0414 45.1123 C 89.60295 45.62807 90.50351 46.46468 91.06506 46.99184 C 91.6266 47.519 92.52716 48.37366 93.08873 48.9117 C 93.65028 49.44975 94.55084 50.3213 95.1124 50.86974 C 95.67397 51.41817 96.57452 52.30624 97.13608 52.86444 C 97.69762 53.42265 98.59819 54.32555 99.15973 54.8929 C 99.72128 55.46025 100.62184 56.3774 101.1834 56.95361 C 101.74496 57.52983 102.64551 58.46144 103.20708 59.04588 C 103.76863 59.63034 104.6692 60.57416 105.23074 61.16605 C 105.7923 61.75793 106.69286 62.71317 107.25441 63.31189 C 107.81595 63.9106 108.71652 64.87598 109.27808 65.48119 C 109.83963 66.08641 110.74019 67.06284 111.30174 67.67397 C 111.86331 68.28511 112.76387 69.26971 113.32542 69.88583 C 113.88696 70.50195 114.78754 71.49374 115.34908 72.11455 C 115.91063 72.73535 116.81119 73.73518 117.37276 74.36015 C 117.93431 74.98512 118.83485 75.99062 119.39642 76.61896 C 119.95798 77.24728 120.85855 78.25769 121.42009 78.88878 C 121.98164 79.51985 122.8822 80.53416 123.44376 81.16739 C 124.0053 81.80061 124.90587 82.81766 125.46742 83.4526 C 126.02899 84.08754 126.92953 85.10803 127.49109 85.74368 C 128.05266 86.37933 129.51477 88.03404 129.51477 88.03404 "/>
</g>
<path transform="matrix(1,0,0,-1,45.445,174.48601)" stroke-width=".19925" stroke-linecap="butt" stroke-miterlimit="10" stroke-linejoin="miter" fill="none" stroke="#929292" d="M 32.3787 -2.12598 L 32.3787 2.12598 M 116.46616 -2.12598 L 116.46616 2.12598 M 161.89347 -2.12598 L 161.89347 2.12598 "/>
<path transform="matrix(1,0,0,-1,45.445,174.48601)" stroke-width=".19925" stroke-linecap="butt" stroke-miterlimit="10" stroke-linejoin="miter" fill="none" stroke="#929292" d="M -2.12587 14.89241 L 2.12587 14.89241 M -2.12587 73.3617 L 2.12587 73.3617 M -2.12587 123.17429 L 2.12587 123.17429 "/>
<path transform="matrix(1,0,0,-1,45.445,174.48601)" stroke-width=".3985" stroke-linecap="butt" stroke-miterlimit="10" stroke-linejoin="miter" fill="none" stroke="#000000" d="M 0 0 L 192.27964 0 "/>
<path transform="matrix(1,0,0,-1,237.72464,174.48601)" d="M 1.99252 0 L -1.19551 1.59401 L 0 0 L -1.19551 -1.59401 "/>
<path transform="matrix(1,0,0,-1,45.445,174.48601)" stroke-width=".3985" stroke-linecap="butt" stroke-miterlimit="10" stroke-linejoin="miter" fill="none" stroke="#000000" d="M 0 0 L 0 159.40323 "/>
<path transform="matrix(0,-1,-1,-0,45.445,15.082779)" d="M 1.99252 0 L -1.19551 1.59401 L 0 0 L -1.19551 -1.59401 "/>
<symbol id="font_1_1">
<path d="M .33300004 .38900004 C .31500004 .42600004 .286 .45300005 .24100001 .45300005 C .124 .45300005 0 .30600003 0 .16000001 C 0 .06600001 .055000005 0 .133 0 C .153 0 .20300001 .0040000008 .263 .075 C .27100004 .033000005 .30600003 0 .35400004 0 C .38900004 0 .41200004 .023000002 .42800004 .055000005 C .44500003 .091000009 .45800004 .15200001 .45800004 .15400002 C .45800004 .16400002 .44900004 .16400002 .44600005 .16400002 C .43600003 .16400002 .43500004 .16000001 .43200005 .14600002 C .41500003 .081 .397 .022000002 .35600005 .022000002 C .32900004 .022000002 .32600004 .048 .32600004 .068 C .32600004 .09 .32800005 .098000008 .33900003 .14200002 C .35000003 .18400002 .35200004 .19400002 .36100004 .23200003 L .397 .37200005 C .40400005 .40000005 .40400005 .40200005 .40400005 .40600003 C .40400005 .42300005 .39200003 .43300004 .37500004 .43300004 C .35100005 .43300004 .33600004 .411 .33300004 .38900004 M .26800005 .13000001 C .263 .112 .263 .11000001 .24800001 .093 C .20400001 .038000004 .163 .022000002 .135 .022000002 C .08499999 .022000002 .07100001 .077 .07100001 .116000007 C .07100001 .16600001 .103 .28900004 .126 .335 C .157 .39400003 .202 .43100003 .242 .43100003 C .307 .43100003 .32100005 .34900005 .32100005 .34300003 C .32100005 .337 .31900005 .33100004 .31800003 .32600004 L .26800005 .13000001 Z "/>
</symbol>
<use xlink:href="#font_1_1" transform="matrix(9.9626,0,0,-9.9626,75.58851,184.5306)"/>
<symbol id="font_1_3">
<path d="M .35500003 .39100004 C .33900003 .39100004 .32500003 .39100004 .31100003 .37700004 C .29500003 .36200003 .293 .34500004 .293 .33800004 C .293 .314 .31100003 .30300004 .33 .30300004 C .359 .30300004 .386 .32700003 .386 .367 C .386 .41600005 .33900003 .45300005 .268 .45300005 C .13300002 .45300005 0 .31000004 0 .16900002 C 0 .079 .058000007 0 .162 0 C .305 0 .389 .106000009 .389 .11800001 C .389 .124000009 .38300003 .13100001 .377 .13100001 C .372 .13100001 .37 .12900001 .36400003 .12100001 C .285 .022000002 .176 .022000002 .164 .022000002 C .101 .022000002 .074 .071 .074 .13100001 C .074 .17200002 .094000007 .26900003 .12800002 .33100004 C .15900001 .388 .21400002 .43100003 .269 .43100003 C .303 .43100003 .34100003 .418 .35500003 .39100004 Z "/>
</symbol>
<use xlink:href="#font_1_3" transform="matrix(9.9626,0,0,-9.9626,160.16246,184.5306)"/>
<symbol id="font_1_2">
<path d="M .192 .694 C .192 .695 .192 .705 .179 .705 C .156 .705 .083000008 .697 .057 .695 C .049 .694 .038 .693 .038 .675 C .038 .663 .047000003 .663 .062000004 .663 C .11 .663 .112 .656 .112 .646 C .112 .639 .103 .605 .098000008 .584 L .015999999 .25800003 C .0040000008 .20800002 0 .19200002 0 .15700002 C 0 .062000004 .053 0 .127 0 C .24500002 0 .36800004 .14900002 .36800004 .293 C .36800004 .38400004 .31500004 .45300005 .235 .45300005 C .18900001 .45300005 .148 .42400003 .118 .39300005 L .192 .694 M .098000008 .316 C .104 .33800004 .104 .34000004 .113000009 .351 C .162 .41600005 .207 .43100003 .233 .43100003 C .26900003 .43100003 .29600004 .40100003 .29600004 .337 C .29600004 .27800004 .263 .16300002 .24500002 .12500002 C .212 .058000003 .16600001 .022000002 .127 .022000002 C .092999998 .022000002 .060000007 .049000004 .060000007 .123 C .060000007 .14200002 .060000007 .16100002 .076000008 .22400002 L .098000008 .316 Z "/>
</symbol>
<use xlink:href="#font_1_2" transform="matrix(9.9626,0,0,-9.9626,205.66725,187.15959)"/>
<symbol id="font_1_5">
<path d="M .314 .605 L .4 .605 C .42000003 .605 .43 .605 .43 .625 C .43 .63600006 .42000003 .63600006 .40300004 .63600006 L .32000003 .63600006 L .34100003 .75 C .34500004 .771 .35900004 .842 .365 .8540001 C .374 .873 .39100004 .888 .41200004 .888 C .416 .888 .44200004 .888 .461 .87 C .41700004 .86600008 .407 .8310001 .407 .816 C .407 .793 .425 .781 .444 .781 C .47 .781 .49900005 .8030001 .49900005 .8410001 C .49900005 .8870001 .45300005 .9100001 .41200004 .9100001 C .37800003 .9100001 .31500004 .8920001 .28500004 .793 C .279 .7720001 .27600003 .7620001 .252 .63600006 L .18300002 .63600006 C .164 .63600006 .15300001 .63600006 .15300001 .61700007 C .15300001 .605 .162 .605 .18100001 .605 L .24700001 .605 L .172 .21000001 C .15400002 .113000009 .13700001 .022 .08500001 .022 C .081 .022 .056 .022 .037 .040000008 C .083000008 .043000014 .09200001 .07900001 .09200001 .094000007 C .09200001 .117000009 .074 .12900001 .055 .12900001 C .029 .12900001 0 .10700001 0 .069000009 C 0 .024000004 .044 0 .08500001 0 C .14 0 .18 .059 .19800002 .09700001 C .23000002 .16000001 .25300003 .28100003 .254 .28800003 L .314 .605 Z "/>
</symbol>
<use xlink:href="#font_1_5" transform="matrix(9.9626,0,0,-9.9626,21.363017,164.12734)"/>
<symbol id="font_2_1">
<path d="M .23200003 .00999999 C .23200003 .012999982 .23200003 .014999986 .215 .03199999 C .09 .15799999 .058 .347 .058 .5 C .058 .674 .096 .84800007 .21900001 .97300007 C .23200003 .985 .23200003 .98700007 .23200003 .99 C .23200003 .99700006 .22800002 1 .222 1 C .21200001 1 .12200001 .93200007 .06299999 .805 C .012000002 .69500008 0 .584 0 .5 C 0 .422 .011 .301 .066 .188 C .126 .065 .21200001 0 .222 0 C .22800002 0 .23200003 .0029999912 .23200003 .00999999 Z "/>
</symbol>
<use xlink:href="#font_2_1" transform="matrix(9.9626,0,0,-9.9626,27.771298,164.57566)"/>
<use xlink:href="#font_1_1" transform="matrix(9.9626,0,0,-9.9626,31.057505,162.1946)"/>
<symbol id="font_2_2">
<path d="M .232 .5 C .232 .578 .22100002 .699 .16600001 .81200006 C .106 .93500009 .020000004 1 .009999998 1 C .0040000008 1 0 .99600008 0 .99 C 0 .98700007 0 .985 .019000002 .967 C .117000009 .86800006 .174 .709 .174 .5 C .174 .329 .137 .153 .012999997 .026999996 C 0 .014999986 0 .012999982 0 .00999999 C 0 .003999993 .0040000008 0 .009999998 0 C .020000004 0 .11000001 .06799999 .169 .195 C .22 .305 .232 .416 .232 .5 Z "/>
</symbol>
<use xlink:href="#font_2_2" transform="matrix(9.9626,0,0,-9.9626,36.492868,164.57566)"/>
<use xlink:href="#font_1_5" transform="matrix(9.9626,0,0,-9.9626,3.849017,105.65834)"/>
<use xlink:href="#font_2_1" transform="matrix(9.9626,0,0,-9.9626,10.256297,106.10665)"/>
<use xlink:href="#font_1_3" transform="matrix(9.9626,0,0,-9.9626,13.553466,103.72559)"/>
<symbol id="font_2_3">
<path d="M .63100007 .19400002 C .646 .19400002 .665 .19400002 .665 .214 C .665 .23400001 .646 .23400001 .632 .23400001 L .033 .23400001 C .019000002 .23400001 0 .23400001 0 .214 C 0 .19400002 .019000002 .19400002 .034 .19400002 L .63100007 .19400002 M .632 0 C .646 0 .665 0 .665 .02000001 C .665 .040000008 .646 .040000008 .63100007 .040000008 L .034 .040000008 C .019000002 .040000008 0 .040000008 0 .02000001 C 0 0 .019000002 0 .033 0 L .632 0 Z "/>
</symbol>
<use xlink:href="#font_2_2" transform="matrix(9.9626,0,0,-9.9626,18.023869,106.10665)"/>
<use xlink:href="#font_2_3" transform="matrix(9.9626,0,0,-9.9626,24.65896,102.29098)"/>
<symbol id="font_1_4">
<path d="M .47600005 .694 C .47600005 .695 .47600005 .705 .46300004 .705 C .44800005 .705 .35300002 .69600006 .33600004 .694 C .32800005 .693 .32200004 .688 .32200004 .675 C .32200004 .663 .33100004 .663 .34600003 .663 C .39400003 .663 .39600004 .656 .39600004 .646 L .39300005 .626 L .33300004 .38900004 C .31500004 .42600004 .286 .45300005 .24100001 .45300005 C .124 .45300005 0 .30600003 0 .16000001 C 0 .06600001 .055000005 0 .133 0 C .153 0 .20300001 .0040000008 .263 .075 C .27100004 .033000005 .30600003 0 .35400004 0 C .38900004 0 .41200004 .023000002 .42800004 .055000005 C .44500003 .091000009 .45800004 .15200001 .45800004 .15400002 C .45800004 .16400002 .44900004 .16400002 .44600005 .16400002 C .43600003 .16400002 .43500004 .16000001 .43200005 .14600002 C .41500003 .081 .397 .022000002 .35600005 .022000002 C .32900004 .022000002 .32600004 .048 .32600004 .068 C .32600004 .092 .32800005 .09900001 .33200003 .116000007 L .47600005 .694 M .26800005 .13000001 C .263 .112 .263 .11000001 .24800001 .093 C .20400001 .038000004 .163 .022000002 .135 .022000002 C .08499999 .022000002 .07100001 .077 .07100001 .116000007 C .07100001 .16600001 .103 .28900004 .126 .335 C .157 .39400003 .202 .43100003 .242 .43100003 C .307 .43100003 .32100005 .34900005 .32100005 .34300003 C .32100005 .337 .31900005 .33100004 .31800003 .32600004 L .26800005 .13000001 Z "/>
</symbol>
<use xlink:href="#font_1_4" transform="matrix(9.9626,0,0,-9.9626,35.012506,103.72559)"/>
<use xlink:href="#font_1_5" transform="matrix(9.9626,0,0,-9.9626,22.353016,55.846334)"/>
<use xlink:href="#font_2_1" transform="matrix(9.9626,0,0,-9.9626,28.761298,56.29465)"/>
<use xlink:href="#font_1_2" transform="matrix(9.9626,0,0,-9.9626,32.11724,53.91359)"/>
<use xlink:href="#font_2_2" transform="matrix(9.9626,0,0,-9.9626,36.49287,56.29465)"/>
<path transform="matrix(1,0,0,-1,45.445,174.48601)" d="M 118.13492 73.3617 C 118.13492 74.46217 117.24283 75.35425 116.14236 75.35425 C 115.04189 75.35425 114.14981 74.46217 114.14981 73.3617 C 114.14981 72.26123 115.04189 71.36914 116.14236 71.36914 C 117.24283 71.36914 118.13492 72.26123 118.13492 73.3617 Z M 116.14236 73.3617 " fill="#8080bf"/>
<path transform="matrix(1,0,0,-1,45.445,174.48601)" stroke-width=".3985" stroke-linecap="butt" stroke-miterlimit="10" stroke-linejoin="miter" fill="none" stroke="#8080bf" d="M 118.13492 73.3617 C 118.13492 74.46217 117.24283 75.35425 116.14236 75.35425 C 115.04189 75.35425 114.14981 74.46217 114.14981 73.3617 C 114.14981 72.26123 115.04189 71.36914 116.14236 71.36914 C 117.24283 71.36914 118.13492 72.26123 118.13492 73.3617 Z M 116.14236 73.3617 "/>
<path transform="matrix(1,0,0,-1,45.445,174.48601)" d="M 34.37125 14.89241 C 34.37125 15.99289 33.47916 16.88496 32.3787 16.88496 C 31.27821 16.88496 30.38614 15.99289 30.38614 14.89241 C 30.38614 13.79195 31.27821 12.89986 32.3787 12.89986 C 33.47916 12.89986 34.37125 13.79195 34.37125 14.89241 Z M 32.3787 14.89241 " fill="#000080"/>
<path transform="matrix(1,0,0,-1,45.445,174.48601)" stroke-width=".3985" stroke-linecap="butt" stroke-miterlimit="10" stroke-linejoin="miter" fill="none" stroke="#000080" d="M 34.37125 14.89241 C 34.37125 15.99289 33.47916 16.88496 32.3787 16.88496 C 31.27821 16.88496 30.38614 15.99289 30.38614 14.89241 C 30.38614 13.79195 31.27821 12.89986 32.3787 12.89986 C 33.47916 12.89986 34.37125 13.79195 34.37125 14.89241 Z M 32.3787 14.89241 "/>
<path transform="matrix(1,0,0,-1,45.445,174.48601)" d="M 163.88602 123.17429 C 163.88602 124.27475 162.99393 125.16684 161.89347 125.16684 C 160.79299 125.16684 159.90091 124.27475 159.90091 123.17429 C 159.90091 122.0738 160.79299 121.18173 161.89347 121.18173 C 162.99393 121.18173 163.88602 122.0738 163.88602 123.17429 Z M 161.89347 123.17429 " fill="#000080"/>
<path transform="matrix(1,0,0,-1,45.445,174.48601)" stroke-width=".3985" stroke-linecap="butt" stroke-miterlimit="10" stroke-linejoin="miter" fill="none" stroke="#000080" d="M 163.88602 123.17429 C 163.88602 124.27475 162.99393 125.16684 161.89347 125.16684 C 160.79299 125.16684 159.90091 124.27475 159.90091 123.17429 C 159.90091 122.0738 160.79299 121.18173 161.89347 121.18173 C 162.99393 121.18173 163.88602 122.0738 163.88602 123.17429 Z M 161.89347 123.17429 "/>
<symbol id="font_1_6">
<path d="M .305 .31300003 C .311 .33900003 .334 .43100003 .404 .43100003 C .409 .43100003 .433 .43100003 .454 .418 C .426 .41300003 .40600003 .388 .40600003 .36400003 C .40600003 .34800003 .417 .32900004 .444 .32900004 C .46600003 .32900004 .498 .34700004 .498 .38700003 C .498 .43900005 .439 .45300005 .405 .45300005 C .347 .45300005 .312 .40000005 .3 .37700004 C .275 .44300003 .221 .45300005 .19200002 .45300005 C .08800001 .45300005 .031000002 .32400004 .031000002 .29900003 C .031000002 .28900004 .041 .28900004 .043000007 .28900004 C .051000008 .28900004 .054000006 .291 .056 .3 C .09 .40600003 .156 .43100003 .19000001 .43100003 C .209 .43100003 .244 .42200003 .244 .36400003 C .244 .33300004 .22700002 .26600004 .19000001 .126 C .17400001 .064 .13900002 .022000002 .095000009 .022000002 C .08900001 .022000002 .06600001 .022000002 .045 .035 C .07000001 .040000004 .09200001 .061 .09200001 .089 C .09200001 .116000007 .07000001 .124000009 .055000009 .124000009 C .025 .124000009 0 .098000008 0 .06600001 C 0 .020000002 .050000006 0 .094000007 0 C .16000001 0 .19600001 .07000001 .19900002 .076000008 C .21100001 .039 .24700003 0 .307 0 C .41 0 .467 .12900001 .467 .15400002 C .467 .16400002 .458 .16400002 .455 .16400002 C .446 .16400002 .444 .16000001 .442 .15300001 C .409 .046 .341 .022000002 .30900003 .022000002 C .27 .022000002 .254 .054 .254 .08800001 C .254 .11000001 .26 .13200002 .271 .17600002 L .305 .31300003 Z "/>
</symbol>
<use xlink:href="#font_1_6" transform="matrix(9.9626,0,0,-9.9626,243.55792,176.7406)"/>
<symbol id="font_1_7">
<path d="M .45700003 .586 C .461 .6 .461 .602 .461 .609 C .461 .62700006 .447 .63600006 .432 .63600006 C .42200003 .63600006 .40600003 .63 .397 .615 C .395 .61 .387 .579 .38300003 .561 C .37600003 .535 .36900003 .508 .363 .48100005 L .318 .301 C .314 .286 .271 .21600002 .20500002 .21600002 C .15400002 .21600002 .143 .26000003 .143 .29700003 C .143 .34300003 .16000001 .40500004 .194 .49300004 C .21000001 .53400006 .21400002 .545 .21400002 .56500008 C .21400002 .61 .18200001 .6470001 .13200002 .6470001 C .037 .6470001 0 .50200006 0 .49300004 C 0 .48300005 .01 .48300005 .012 .48300005 C .022000002 .48300005 .023 .485 .028000003 .50100007 C .055000009 .595 .095000009 .625 .12900001 .625 C .13700001 .625 .15400002 .625 .15400002 .59300008 C .15400002 .568 .14400001 .54200008 .13700001 .523 C .097 .41700004 .079 .36 .079 .31300003 C .079 .224 .142 .194 .201 .194 C .24000003 .194 .274 .21100001 .30200003 .23900002 C .289 .187 .277 .13800001 .237 .08500001 C .21100001 .051 .17300001 .022 .127 .022 C .113000009 .022 .068 .025000006 .051000008 .06400001 C .067 .06400001 .080000009 .06400001 .094000007 .076000008 C .104 .08500001 .11400001 .098000008 .11400001 .117000009 C .11400001 .148 .087000008 .15200001 .07700001 .15200001 C .054000006 .15200001 .021 .136 .021 .087000008 C .021 .037 .065000008 0 .127 0 C .23 0 .333 .091000009 .361 .20400001 L .45700003 .586 Z "/>
</symbol>
<use xlink:href="#font_1_7" transform="matrix(9.9626,0,0,-9.9626,43.112916,9.652334)"/>
</svg>
