<?xml version="1.0" encoding="UTF-8" standalone="no"?>
<!DOCTYPE svg PUBLIC "-//W3C//DTD SVG 1.1//EN" "http://www.w3.org/Graphics/SVG/1.1/DTD/svg11.dtd">
<svg xmlns="http://www.w3.org/2000/svg" xmlns:xlink="http://www.w3.org/1999/xlink" version="1.1" width="304.263pt" height="74.041pt" viewBox="0 0 304.263 74.041">
<symbol id="font_0_2">
<path d="M .71000006 .71700009 C .71000006 .72 .708 .72700008 .699 .72700008 C .69600006 .72700008 .69500008 .7260001 .684 .71500006 L .614 .6380001 C .605 .65200009 .559 .72700008 .448 .72700008 C .22500001 .72700008 0 .50600007 0 .27400003 C 0 .109000008 .118000019 0 .271 0 C .358 0 .43400003 .040000004 .487 .086 C .58000007 .16800002 .597 .25900004 .597 .26200003 C .597 .272 .587 .272 .58500006 .272 C .579 .272 .574 .27 .572 .26200003 C .563 .23300001 .54 .162 .47100003 .104 C .402 .048 .33900003 .031000004 .287 .031000004 C .19700001 .031000004 .091000009 .083000008 .091000009 .23900001 C .091000009 .29600004 .112 .45800004 .21200003 .57500007 C .273 .646 .367 .69600006 .45600004 .69600006 C .558 .69600006 .61700007 .619 .61700007 .503 C .61700007 .46300004 .614 .46200005 .614 .45200003 C .614 .44200004 .625 .44200004 .629 .44200004 C .642 .44200004 .642 .44400005 .647 .46200005 L .71000006 .71700009 Z "/>
</symbol>
<use xlink:href="#font_0_2" transform="matrix(9.9626,0,0,-9.9626,89.25012,19.055176)"/>
<symbol id="font_1_2">
<path d="M .501 .284 C .448 .34600003 .43199999 .363 .394 .39000003 C .333 .43400003 .269 .451 .214 .451 C .09 .451 0 .345 0 .22500001 C 0 .108 .085999999 0 .21100001 0 C .35000003 0 .44700004 .114 .48299999 .16700001 C .536 .105000007 .552 .088 .59000006 .061000006 C .651 .017 .71500006 0 .77000007 0 C .89400008 0 .9840001 .106 .9840001 .22600001 C .9840001 .343 .898 .451 .773 .451 C .634 .451 .537 .337 .501 .284 M .533 .24700003 C .573 .312 .66 .41300003 .782 .41300003 C .88500007 .41300003 .956 .322 .956 .22600001 C .956 .13000001 .878 .055000005 .786 .055000005 C .693 .055000005 .629 .13100001 .533 .24700003 M .45099999 .20400001 C .411 .13900002 .324 .038000004 .202 .038000004 C .09900001 .038000004 .027999998 .12900001 .027999998 .22500001 C .027999998 .321 .106000009 .396 .198 .396 C .291 .396 .35500003 .32 .45099999 .20400001 Z "/>
</symbol>
<use xlink:href="#font_1_2" transform="matrix(6.9738,0,0,-6.9738,97.12197,14.792738)"/>
<symbol id="font_2_1">
<path d="M .23200003 .00999999 C .23200003 .012999982 .23200003 .014999986 .215 .03199999 C .09 .15799999 .058 .347 .058 .5 C .058 .674 .096 .84800007 .21900001 .97300007 C .23200003 .985 .23200003 .98700007 .23200003 .99 C .23200003 .99700006 .22800002 1 .222 1 C .21200001 1 .12200001 .93200007 .06299999 .805 C .012000002 .69500008 0 .584 0 .5 C 0 .422 .011 .301 .066 .188 C .126 .065 .21200001 0 .222 0 C .22800002 0 .23200003 .0029999912 .23200003 .00999999 Z "/>
</symbol>
<use xlink:href="#font_2_1" transform="matrix(9.9626,0,0,-9.9626,106.01129,21.326649)"/>
<symbol id="font_3_1">
<path d="M .252 .314 L .28800003 .314 L .43800003 .082 C .448 .066 .47200004 .027 .483 .012 C .49000005 0 .493 0 .51600006 0 L .65400007 0 C .67200008 0 .68700006 0 .68700006 .018000002 C .68700006 .026 .68100008 .033 .67200008 .035 C .63500007 .043 .5860001 .109000008 .56200006 .141 C .55500009 .15100001 .50500008 .21700001 .43800003 .32500003 C .52700009 .34100003 .61300006 .379 .61300006 .49800004 C .61300006 .637 .46600003 .68500009 .34800003 .68500009 L .034 .68500009 C .016 .68500009 0 .68500009 0 .66700008 C 0 .65000006 .019 .65000006 .027 .65000006 C .084 .65000006 .089 .643 .089 .59300008 L .089 .09200001 C .089 .042000005 .084 .035 .027 .035 C .019 .035 0 .035 0 .018000002 C 0 0 .016 0 .034 0 L .308 0 C .326 0 .34100003 0 .34100003 .018000002 C .34100003 .035 .324 .035 .31300003 .035 C .256 .035 .252 .043 .252 .09200001 L .252 .314 M .44500003 .363 C .47300003 .4 .476 .453 .476 .497 C .476 .545 .47000004 .59800007 .43800003 .63900008 C .47900004 .63000008 .57800009 .59900006 .57800009 .49800004 C .57800009 .43300004 .54800006 .38200004 .44500003 .363 M .252 .596 C .252 .61700007 .252 .65000006 .314 .65000006 C .39900003 .65000006 .441 .615 .441 .497 C .441 .36800004 .41000004 .349 .252 .349 L .252 .596 M .116 .035 C .124 .053000004 .124 .081 .124 .09 L .124 .595 C .124 .605 .124 .632 .116 .65000006 L .23 .65000006 C .21700001 .634 .21700001 .614 .21700001 .59900006 L .21700001 .09 C .21700001 .080000009 .21700001 .053000004 .22500001 .035 L .116 .035 M .32900004 .314 C .33600004 .31500004 .34 .316 .34800003 .316 C .363 .316 .38500003 .31800003 .4 .32000003 C .41500003 .296 .52300009 .11800001 .60600009 .035 L .50900009 .035 L .32900004 .314 Z "/>
</symbol>
<use xlink:href="#font_3_1" transform="matrix(9.9626,0,0,-9.9626,109.059398,18.835999)"/>
<symbol id="font_0_1">
<path d="M .117000009 .194 C .117000009 .26 .092 .29900003 .05300001 .29900003 C .020000004 .29900003 0 .274 0 .246 C 0 .21900001 .020000004 .193 .05300001 .193 C .065000008 .193 .078 .197 .08800001 .206 C .091 .208 .092 .209 .093 .209 C .094000007 .209 .095000009 .208 .095000009 .194 C .095000009 .12 .06000001 .060000004 .027000003 .026999996 C .016000003 .016000003 .016000003 .013999999 .016000003 .0109999929 C .016000003 .003999993 .021000006 0 .026 0 C .037 0 .117000009 .077 .117000009 .194 Z "/>
</symbol>
<use xlink:href="#font_0_1" transform="matrix(9.9626,0,0,-9.9626,116.951778,20.75878)"/>
<use xlink:href="#font_3_1" transform="matrix(9.9626,0,0,-9.9626,120.682399,18.835999)"/>
<symbol id="font_4_1">
<path d="M .29700003 .62100008 C .29700003 .656 .29000003 .656 .24800003 .656 C .18600002 .606 .10400001 .592 .023999997 .592 L 0 .592 L 0 .536 L .023999997 .536 C .064 .536 .125 .54300007 .16700003 .55700007 L .16700003 .056 L .009000003 .056 L .009000003 0 C .058000007 .004 .178 .004 .23200003 .004 C .268 .004 .30400003 .003 .34000004 .003 C .37000004 .003 .42200006 .002 .45100004 0 L .45100004 .056 L .29700003 .056 L .29700003 .62100008 Z "/>
</symbol>
<use xlink:href="#font_4_1" transform="matrix(6.9738,0,0,-6.9738,128.42932,14.723)"/>
<symbol id="font_2_2">
<path d="M .232 .5 C .232 .578 .22100002 .699 .16600001 .81200006 C .106 .93500009 .020000004 1 .009999998 1 C .0040000008 1 0 .99600008 0 .99 C 0 .98700007 0 .985 .019000002 .967 C .117000009 .86800006 .174 .709 .174 .5 C .174 .329 .137 .153 .012999997 .026999996 C 0 .014999986 0 .012999982 0 .00999999 C 0 .003999993 .0040000008 0 .009999998 0 C .020000004 0 .11000001 .06799999 .169 .195 C .22 .305 .232 .416 .232 .5 Z "/>
</symbol>
<use xlink:href="#font_2_2" transform="matrix(9.9626,0,0,-9.9626,133.29785,21.326649)"/>
<use xlink:href="#font_0_2" transform="matrix(9.9626,0,0,-9.9626,168.15712,19.055176)"/>
<use xlink:href="#font_1_2" transform="matrix(6.9738,0,0,-6.9738,176.02899,14.792738)"/>
<use xlink:href="#font_2_1" transform="matrix(9.9626,0,0,-9.9626,184.9183,21.326649)"/>
<use xlink:href="#font_3_1" transform="matrix(9.9626,0,0,-9.9626,187.96642,18.835999)"/>
<use xlink:href="#font_0_1" transform="matrix(9.9626,0,0,-9.9626,195.8588,20.75878)"/>
<use xlink:href="#font_3_1" transform="matrix(9.9626,0,0,-9.9626,199.58942,18.835999)"/>
<use xlink:href="#font_4_1" transform="matrix(6.9738,0,0,-6.9738,207.33635,14.723)"/>
<use xlink:href="#font_2_2" transform="matrix(9.9626,0,0,-9.9626,212.20488,21.326649)"/>
<use xlink:href="#font_0_2" transform="matrix(9.9626,0,0,-9.9626,47.562147,41.929178)"/>
<use xlink:href="#font_1_2" transform="matrix(6.9738,0,0,-6.9738,55.434,37.666738)"/>
<use xlink:href="#font_2_1" transform="matrix(9.9626,0,0,-9.9626,64.32331,44.20065)"/>
<use xlink:href="#font_3_1" transform="matrix(9.9626,0,0,-9.9626,67.371417,41.71)"/>
<symbol id="font_5_1">
<path d="M .442 .18200001 L .40800003 .18200001 C .40500004 .16000001 .39500005 .101 .38200004 .091000009 C .374 .085 .29700003 .085 .28300003 .085 L .099 .085 C .20400003 .178 .23900002 .20600002 .29900003 .25300003 C .37300004 .312 .442 .374 .442 .469 C .442 .59000006 .33600004 .66400006 .20800004 .66400006 C .084 .66400006 0 .577 0 .485 C 0 .43400003 .043000007 .42900003 .053000004 .42900003 C .077 .42900003 .10600001 .446 .10600001 .48200003 C .10600001 .5 .099 .535 .047000007 .535 C .078 .606 .146 .628 .19300002 .628 C .293 .628 .34500004 .55 .34500004 .469 C .34500004 .38200004 .28300003 .31300003 .25100003 .277 L .010000005 .039 C 0 .030000002 0 .028 0 0 L .41200004 0 L .442 .18200001 Z "/>
</symbol>
<use xlink:href="#font_5_1" transform="matrix(6.9738,0,0,-6.9738,74.84636,37.597)"/>
<use xlink:href="#font_0_1" transform="matrix(9.9626,0,0,-9.9626,79.732799,43.632783)"/>
<use xlink:href="#font_3_1" transform="matrix(9.9626,0,0,-9.9626,83.46342,41.71)"/>
<use xlink:href="#font_4_1" transform="matrix(6.9738,0,0,-6.9738,91.21034,37.597)"/>
<use xlink:href="#font_2_2" transform="matrix(9.9626,0,0,-9.9626,96.07889,44.20065)"/>
<use xlink:href="#font_0_2" transform="matrix(9.9626,0,0,-9.9626,126.46914,41.929178)"/>
<use xlink:href="#font_1_2" transform="matrix(6.9738,0,0,-6.9738,134.341,37.666738)"/>
<use xlink:href="#font_2_1" transform="matrix(9.9626,0,0,-9.9626,143.23032,44.20065)"/>
<use xlink:href="#font_3_1" transform="matrix(9.9626,0,0,-9.9626,146.27843,41.71)"/>
<use xlink:href="#font_5_1" transform="matrix(6.9738,0,0,-6.9738,153.75337,37.597)"/>
<use xlink:href="#font_0_1" transform="matrix(9.9626,0,0,-9.9626,158.6398,43.632783)"/>
<use xlink:href="#font_3_1" transform="matrix(9.9626,0,0,-9.9626,162.3704,41.71)"/>
<symbol id="font_4_2">
<path d="M .51 .22800002 L .44700004 .22800002 C .445 .216 .436 .14500001 .41800005 .141 C .397 .13700001 .337 .13700001 .314 .13700001 L .177 .13700001 C .23200001 .178 .288 .21900001 .34600003 .256 C .42700006 .30800004 .51 .36100004 .51 .46100004 C .51 .58100005 .397 .656 .23800002 .656 C .102 .656 0 .60300007 0 .508 C 0 .45000003 .047 .42900003 .07700001 .42900003 C .113000009 .42900003 .155 .45400004 .155 .507 C .155 .555 .118 .57500007 .11500001 .57600006 C .15100001 .59900006 .19700001 .6 .209 .6 C .29400004 .6 .361 .546 .361 .46 C .361 .38300003 .30900003 .319 .251 .268 L .012999997 .057000005 C .001000002 .045 0 .044000005 0 .024 L 0 0 L .476 0 L .51 .22800002 Z "/>
</symbol>
<use xlink:href="#font_4_2" transform="matrix(6.9738,0,0,-6.9738,169.88022,37.597)"/>
<use xlink:href="#font_2_2" transform="matrix(9.9626,0,0,-9.9626,174.98587,44.20065)"/>
<use xlink:href="#font_0_2" transform="matrix(9.9626,0,0,-9.9626,205.37613,41.929178)"/>
<use xlink:href="#font_1_2" transform="matrix(6.9738,0,0,-6.9738,213.24799,37.666738)"/>
<use xlink:href="#font_2_1" transform="matrix(9.9626,0,0,-9.9626,222.1373,44.20065)"/>
<use xlink:href="#font_3_1" transform="matrix(9.9626,0,0,-9.9626,225.18541,41.71)"/>
<use xlink:href="#font_5_1" transform="matrix(6.9738,0,0,-6.9738,232.66036,37.597)"/>
<use xlink:href="#font_0_1" transform="matrix(9.9626,0,0,-9.9626,237.54679,43.632783)"/>
<use xlink:href="#font_3_1" transform="matrix(9.9626,0,0,-9.9626,241.2774,41.71)"/>
<use xlink:href="#font_4_1" transform="matrix(6.9738,0,0,-6.9738,249.02434,37.597)"/>
<use xlink:href="#font_2_2" transform="matrix(9.9626,0,0,-9.9626,253.89287,44.20065)"/>
<use xlink:href="#font_0_2" transform="matrix(9.9626,0,0,-9.9626,8.108142,64.80318)"/>
<use xlink:href="#font_1_2" transform="matrix(6.9738,0,0,-6.9738,15.979995,60.539739)"/>
<use xlink:href="#font_2_1" transform="matrix(9.9626,0,0,-9.9626,24.87031,67.074649)"/>
<use xlink:href="#font_3_1" transform="matrix(9.9626,0,0,-9.9626,27.917414,64.584)"/>
<symbol id="font_5_2">
<path d="M .219 .35400004 C .29700003 .35400004 .35300002 .3 .35300002 .193 C .35300002 .069000009 .28100003 .032 .223 .032 C .18300002 .032 .095 .043000007 .053000008 .102000009 C .10000001 .10400001 .111 .13700001 .111 .158 C .111 .19 .087 .213 .056000007 .213 C .028 .213 0 .19600001 0 .155 C 0 .061000006 .104 0 .22500001 0 C .36400003 0 .46 .09300001 .46 .193 C .46 .27100004 .39600004 .34900005 .286 .37200005 C .39100004 .41000004 .42900003 .48500005 .42900003 .546 C .42900003 .625 .33800004 .684 .22700002 .684 C .116 .684 .031 .63 .031 .55 C .031 .51600006 .053000008 .49700005 .083000008 .49700005 C .11400001 .49700005 .134 .52 .134 .548 C .134 .577 .11400001 .598 .083000008 .6 C .118 .644 .187 .65500006 .22400002 .65500006 C .26900003 .65500006 .33200003 .633 .33200003 .546 C .33200003 .504 .31800003 .45800004 .29200004 .42700003 C .25900004 .38900004 .23100002 .38700003 .18100001 .38400004 C .156 .38200004 .154 .38200004 .149 .38100005 C .147 .38100005 .139 .37900005 .139 .36800004 C .139 .35400004 .148 .35400004 .165 .35400004 L .219 .35400004 Z "/>
</symbol>
<use xlink:href="#font_5_2" transform="matrix(6.9738,0,0,-6.9738,35.3296,60.609479)"/>
<use xlink:href="#font_0_1" transform="matrix(9.9626,0,0,-9.9626,40.2798,66.50678)"/>
<use xlink:href="#font_3_1" transform="matrix(9.9626,0,0,-9.9626,44.010419,64.584)"/>
<use xlink:href="#font_4_1" transform="matrix(6.9738,0,0,-6.9738,51.757345,60.47)"/>
<use xlink:href="#font_2_2" transform="matrix(9.9626,0,0,-9.9626,56.625886,67.074649)"/>
<use xlink:href="#font_0_2" transform="matrix(9.9626,0,0,-9.9626,87.015148,64.80318)"/>
<use xlink:href="#font_1_2" transform="matrix(6.9738,0,0,-6.9738,94.88699,60.539739)"/>
<use xlink:href="#font_2_1" transform="matrix(9.9626,0,0,-9.9626,103.77731,67.074649)"/>
<use xlink:href="#font_3_1" transform="matrix(9.9626,0,0,-9.9626,106.82442,64.584)"/>
<use xlink:href="#font_5_2" transform="matrix(6.9738,0,0,-6.9738,114.2366,60.609479)"/>
<use xlink:href="#font_0_1" transform="matrix(9.9626,0,0,-9.9626,119.1868,66.50678)"/>
<use xlink:href="#font_3_1" transform="matrix(9.9626,0,0,-9.9626,122.91742,64.584)"/>
<symbol id="font_4_3">
<path d="M .245 .337 C .36400003 .337 .36900003 .24700001 .36900003 .194 C .36900003 .152 .36900003 .051 .24900002 .051 C .222 .051 .15900001 .056 .116000007 .083000008 C .137 .09200001 .16300002 .11500001 .16300002 .158 C .16300002 .204 .13 .23900001 .08200001 .23900001 C .031999999 .23900001 0 .204 0 .157 C 0 .055 .11100001 0 .253 0 C .46200005 0 .53200009 .109000008 .53200009 .193 C .53200009 .27 .471 .34 .35700003 .363 C .42900003 .39000003 .49600003 .442 .49600003 .526 C .49600003 .60400006 .416 .66800007 .256 .66800007 C .12 .66800007 .036 .6010001 .036 .51800009 C .036 .46800003 .072000008 .441 .11100001 .441 C .16100002 .441 .187 .47800002 .187 .51600006 C .187 .56700006 .14700002 .58500006 .137 .58800008 C .178 .61800006 .231 .62200006 .25100003 .62200006 C .349 .62200006 .349 .55700007 .349 .52900007 C .349 .483 .329 .391 .229 .386 C .204 .38500003 .17900002 .384 .17300001 .382 C .16 .37800003 .16 .366 .16 .36 C .16 .337 .17300001 .337 .192 .337 L .245 .337 Z "/>
</symbol>
<use xlink:href="#font_4_3" transform="matrix(6.9738,0,0,-6.9738,130.35053,60.553689)"/>
<use xlink:href="#font_2_2" transform="matrix(9.9626,0,0,-9.9626,135.53289,67.074649)"/>
<use xlink:href="#font_0_2" transform="matrix(9.9626,0,0,-9.9626,165.92214,64.80318)"/>
<use xlink:href="#font_1_2" transform="matrix(6.9738,0,0,-6.9738,173.79399,60.539739)"/>
<use xlink:href="#font_2_1" transform="matrix(9.9626,0,0,-9.9626,182.6843,67.074649)"/>
<use xlink:href="#font_3_1" transform="matrix(9.9626,0,0,-9.9626,185.7314,64.584)"/>
<use xlink:href="#font_5_2" transform="matrix(6.9738,0,0,-6.9738,193.14359,60.609479)"/>
<use xlink:href="#font_0_1" transform="matrix(9.9626,0,0,-9.9626,198.09378,66.50678)"/>
<use xlink:href="#font_3_1" transform="matrix(9.9626,0,0,-9.9626,201.8244,64.584)"/>
<use xlink:href="#font_4_3" transform="matrix(6.9738,0,0,-6.9738,209.2575,60.553689)"/>
<use xlink:href="#font_2_2" transform="matrix(9.9626,0,0,-9.9626,214.43987,67.074649)"/>
<use xlink:href="#font_0_2" transform="matrix(9.9626,0,0,-9.9626,244.82913,64.80318)"/>
<use xlink:href="#font_1_2" transform="matrix(6.9738,0,0,-6.9738,252.701,60.539739)"/>
<use xlink:href="#font_2_1" transform="matrix(9.9626,0,0,-9.9626,261.59135,67.074649)"/>
<use xlink:href="#font_3_1" transform="matrix(9.9626,0,0,-9.9626,264.6384,64.584)"/>
<use xlink:href="#font_5_2" transform="matrix(6.9738,0,0,-6.9738,272.0506,60.609479)"/>
<use xlink:href="#font_0_1" transform="matrix(9.9626,0,0,-9.9626,277.00083,66.50678)"/>
<use xlink:href="#font_3_1" transform="matrix(9.9626,0,0,-9.9626,280.7314,64.584)"/>
<use xlink:href="#font_4_1" transform="matrix(6.9738,0,0,-6.9738,288.47837,60.47)"/>
<use xlink:href="#font_2_2" transform="matrix(9.9626,0,0,-9.9626,293.34693,67.074649)"/>
<path transform="matrix(1,0,0,-1,152.131,38.652)" stroke-width="1" stroke-linecap="butt" stroke-miterlimit="10" stroke-linejoin="miter" fill="none" stroke="#000000" d="M -11.03867 22.30606 L 9.04622 22.30606 "/>
<path transform="matrix(1,0,0,-1,161.17722,16.34594)" d="M 1.99245 0 L -1.19547 1.59395 L 0 0 L -1.19547 -1.59395 "/>
<symbol id="font_6_1">
<path d="M .55700007 .667 C .561 .681 .561 .683 .561 .688 C .561 .705 .546 .705 .53000006 .704 L .407 .695 C .39000006 .694 .388 .693 .38300003 .689 C .379 .684 .37600006 .672 .37600006 .666 C .37600006 .649 .39200003 .649 .40600003 .649 C .407 .649 .425 .649 .44 .647 C .459 .645 .45999999 .642 .45999999 .634 C .45999999 .629 .45200003 .599 .448 .58100005 L .40100003 .39300005 C .38200004 .41900004 .34400005 .45300005 .28100003 .45300005 C .14 .45300005 0 .316 0 .17400001 C 0 .072000008 .075 0 .175 0 C .25700004 0 .32100005 .058000003 .333 .07000001 C .351 .021000002 .40600003 0 .45100004 0 C .491 0 .518 .023000002 .53900006 .056 C .565 .095000009 .579 .14800002 .579 .15500002 C .579 .16900002 .56200006 .16900002 .558 .16900002 C .54 .16900002 .53900006 .16300002 .53400006 .14700002 C .51600006 .07300001 .49 .034 .45499999 .034 C .427 .034 .41500003 .056 .41500003 .087000008 C .41500003 .098000008 .416 .109000008 .41900004 .119 L .55700007 .667 M .33900006 .14400001 C .33500005 .12900001 .33500005 .127 .31700004 .107 C .28000004 .065000008 .228 .034 .17800002 .034 C .143 .034 .09 .053000004 .09 .136 C .09 .18200001 .11400001 .28700004 .149 .33900003 C .18800001 .39400003 .23900001 .41900004 .28100003 .41900004 C .32600004 .41900004 .36900003 .39200003 .385 .33200003 L .33900006 .14400001 Z "/>
</symbol>
<use xlink:href="#font_6_1" transform="matrix(4.9813,0,0,-4.9813,150.81204,8.978798)"/>
<path transform="matrix(1,0,0,-1,148.317,9.858002)" stroke-width="1" stroke-linecap="butt" stroke-miterlimit="10" stroke-linejoin="miter" fill="none" stroke="#000000" d="M 0 0 L 7.628 0 "/>
<symbol id="font_6_2">
<path d="M .52800008 .40300004 C .48200006 .38900004 .48200006 .34500004 .48200006 .344 C .48200006 .32700003 .49400003 .30300004 .527 .30300004 C .555 .30300004 .58900007 .32700003 .58900007 .37100003 C .58900007 .43000005 .52300009 .45300005 .47000004 .45300005 C .40500004 .45300005 .36300005 .411 .34300003 .38500003 C .31000004 .44200004 .24600002 .45300005 .21000001 .45300005 C .085 .45300005 .014000006 .335 .014000006 .298 C .014000006 .284 .030000002 .284 .035000005 .284 C .044000009 .284 .05200001 .28500004 .056 .29600004 C .086 .39400003 .16800002 .41900004 .20600003 .41900004 C .23900002 .41900004 .277 .40500004 .277 .35200004 C .277 .32700003 .25900004 .25800003 .22500003 .12500002 C .21000001 .068 .164 .034 .121000017 .034 C .114000018 .034 .085 .034 .06100001 .05 C .10600001 .06600001 .10600001 .104 .10600001 .108 C .10600001 .13700001 .084 .15000002 .062 .15000002 C .037000009 .15000002 0 .13000001 0 .082 C 0 .021000002 .06800001 0 .11900001 0 C .17400003 0 .21900001 .032 .24300003 .068 C .28300003 .008000001 .34700004 0 .37800003 0 C .504 0 .57500007 .119 .57500007 .15500002 C .57500007 .16900002 .558 .16900002 .554 .16900002 C .53700008 .16900002 .535 .16300002 .532 .15400002 C .503 .064 .42600007 .034 .38200004 .034 C .35200004 .034 .31100003 .045 .31100003 .101 C .31100003 .113000009 .31100003 .120000008 .31900005 .15400002 C .33600004 .22400002 .36300005 .335 .37100003 .35300002 C .38400004 .37900005 .41700007 .41900004 .46800006 .41900004 C .47100003 .41900004 .50500008 .41900004 .52800008 .40300004 Z "/>
</symbol>
<use xlink:href="#font_6_1" transform="matrix(4.9813,0,0,-4.9813,148.84004,14.056793)"/>
<use xlink:href="#font_6_2" transform="matrix(4.9813,0,0,-4.9813,152.46642,14.056793)"/>
<path transform="matrix(1,0,0,-1,152.131,38.652)" stroke-width="1" stroke-linecap="butt" stroke-miterlimit="10" stroke-linejoin="miter" fill="none" stroke="#000000" d="M -48.25797 -.56787 L -32.64247 -.56787 "/>
<path transform="matrix(1,0,0,-1,119.488529,39.21987)" d="M 1.99245 0 L -1.19547 1.59395 L 0 0 L -1.19547 -1.59395 "/>
<symbol id="font_7_2">
<path d="M .927 .679 C .932 .688 .9340001 .69100007 .9340001 .695 C .9340001 .71000006 .92200008 .71000006 .90400007 .71000006 L .030000002 .71000006 C .0119999949 .71000006 0 .71000006 0 .695 C 0 .69100007 .0019999967 .688 .0069999995 .679 L .402 .030000002 C .42000003 0 .43300004 0 .467 0 C .501 0 .513 0 .53000006 .028 L .927 .679 M .238 .583 L .78400006 .583 L .51100006 .135 L .238 .583 Z "/>
</symbol>
<use xlink:href="#font_7_2" transform="matrix(6.9738,0,0,-6.9738,109.416088,37.04237)"/>
<path transform="matrix(1,0,0,-1,152.131,38.652)" stroke-width="1" stroke-linecap="butt" stroke-miterlimit="10" stroke-linejoin="miter" fill="none" stroke="#000000" d="M 30.65002 -.56787 L 46.26552 -.56787 "/>
<path transform="matrix(1,0,0,-1,198.39652,39.21987)" d="M 1.99245 0 L -1.19547 1.59395 L 0 0 L -1.19547 -1.59395 "/>
<symbol id="font_7_1">
<path d="M .31199999 .36300005 L .06900002 .605 C .056999998 .61700007 .051000015 .623 .037 .623 C .017000005 .623 0 .607 0 .586 C 0 .572 .008000001 .564 .017000005 .555 L .26 .31200005 L .018000007 .069000009 C .008000001 .058000007 0 .051000004 0 .037000006 C 0 .016000003 .017000005 0 .037 0 C .04900001 0 .058000015 .006000001 .06900002 .017 L .311 .26000003 C .362 .21000001 .558 .013000004 .563 .009000003 C .565 .007000003 .574 0 .587 0 C .605 0 .623 .014000002 .623 .037000006 C .623 .052000006 .61800006 .056000007 .593 .082 L .36300005 .311 L .605 .554 C .61700007 .566 .623 .572 .623 .586 C .623 .609 .605 .623 .587 .623 C .572 .623 .565 .616 .555 .606 L .31199999 .36300005 Z "/>
</symbol>
<use xlink:href="#font_7_2" transform="matrix(6.9738,0,0,-6.9738,184.8001,35.81437)"/>
<use xlink:href="#font_7_1" transform="matrix(6.9738,0,0,-6.9738,193.17563,36.072404)"/>
<path transform="matrix(1,0,0,-1,152.131,38.652)" stroke-width="1" stroke-linecap="butt" stroke-miterlimit="10" stroke-linejoin="miter" fill="none" stroke="#000000" d="M -87.71196 -23.44183 L -72.09647 -23.44183 "/>
<path transform="matrix(1,0,0,-1,80.03452,62.09383)" d="M 1.99245 0 L -1.19547 1.59395 L 0 0 L -1.19547 -1.59395 "/>
<use xlink:href="#font_7_2" transform="matrix(6.9738,0,0,-6.9738,69.96308,59.91637)"/>
<path transform="matrix(1,0,0,-1,152.131,38.652)" stroke-width="1" stroke-linecap="butt" stroke-miterlimit="10" stroke-linejoin="miter" fill="none" stroke="#000000" d="M -8.80396 -23.44183 L 6.81151 -23.44183 "/>
<path transform="matrix(1,0,0,-1,158.9425,62.09383)" d="M 1.99245 0 L -1.19547 1.59395 L 0 0 L -1.19547 -1.59395 "/>
<use xlink:href="#font_7_2" transform="matrix(6.9738,0,0,-6.9738,145.34709,58.68737)"/>
<use xlink:href="#font_7_1" transform="matrix(6.9738,0,0,-6.9738,153.72263,58.945405)"/>
<path transform="matrix(1,0,0,-1,152.131,38.652)" stroke-width="1" stroke-linecap="butt" stroke-miterlimit="10" stroke-linejoin="miter" fill="none" stroke="#000000" d="M 70.10402 -23.44183 L 85.71951 -23.44183 "/>
<path transform="matrix(1,0,0,-1,237.85051,62.09383)" d="M 1.99245 0 L -1.19547 1.59395 L 0 0 L -1.19547 -1.59395 "/>
<use xlink:href="#font_7_2" transform="matrix(6.9738,0,0,-6.9738,225.73609,59.91637)"/>
<symbol id="font_1_1">
<path d="M .43 .214 C .43 .335 .333 .42900003 .21500002 .42900003 C .095 .42900003 0 .33200003 0 .21500002 C 0 .09400001 .097 0 .21500002 0 C .33500005 0 .43 .097 .43 .214 Z "/>
</symbol>
<use xlink:href="#font_1_1" transform="matrix(6.9738,0,0,-6.9738,233.30498,59.497945)"/>
</svg>
