<?xml version="1.0" encoding="UTF-8" standalone="no"?>
<!DOCTYPE svg PUBLIC "-//W3C//DTD SVG 1.1//EN" "http://www.w3.org/Graphics/SVG/1.1/DTD/svg11.dtd">
<svg xmlns="http://www.w3.org/2000/svg" xmlns:xlink="http://www.w3.org/1999/xlink" version="1.1" width="226.598pt" height="38.656pt" viewBox="0 0 226.598 38.656">
<symbol id="font_0_2">
<path d="M .71000006 .71700009 C .71000006 .72 .708 .72700008 .699 .72700008 C .69600006 .72700008 .69500008 .7260001 .684 .71500006 L .614 .6380001 C .605 .65200009 .559 .72700008 .448 .72700008 C .22500001 .72700008 0 .50600007 0 .27400003 C 0 .109000008 .118000019 0 .271 0 C .358 0 .43400003 .040000004 .487 .086 C .58000007 .16800002 .597 .25900004 .597 .26200003 C .597 .272 .587 .272 .58500006 .272 C .579 .272 .574 .27 .572 .26200003 C .563 .23300001 .54 .162 .47100003 .104 C .402 .048 .33900003 .031000004 .287 .031000004 C .19700001 .031000004 .091000009 .083000008 .091000009 .23900001 C .091000009 .29600004 .112 .45800004 .21200003 .57500007 C .273 .646 .367 .69600006 .45600004 .69600006 C .558 .69600006 .61700007 .619 .61700007 .503 C .61700007 .46300004 .614 .46200005 .614 .45200003 C .614 .44200004 .625 .44200004 .629 .44200004 C .642 .44200004 .642 .44400005 .647 .46200005 L .71000006 .71700009 Z "/>
</symbol>
<use xlink:href="#font_0_2" transform="matrix(9.9626,0,0,-9.9626,8.108136,16.532176)"/>
<symbol id="font_1_1">
<path d="M .501 .284 C .448 .34600003 .43199999 .363 .394 .39000003 C .333 .43400003 .269 .451 .214 .451 C .09 .451 0 .345 0 .22500001 C 0 .108 .085999999 0 .21100001 0 C .35000003 0 .44700004 .114 .48299999 .16700001 C .536 .105000007 .552 .088 .59000006 .061000006 C .651 .017 .71500006 0 .77000007 0 C .89400008 0 .9840001 .106 .9840001 .22600001 C .9840001 .343 .898 .451 .773 .451 C .634 .451 .537 .337 .501 .284 M .533 .24700003 C .573 .312 .66 .41300003 .782 .41300003 C .88500007 .41300003 .956 .322 .956 .22600001 C .956 .13000001 .878 .055000005 .786 .055000005 C .693 .055000005 .629 .13100001 .533 .24700003 M .45099999 .20400001 C .411 .13900002 .324 .038000004 .202 .038000004 C .09900001 .038000004 .027999998 .12900001 .027999998 .22500001 C .027999998 .321 .106000009 .396 .198 .396 C .291 .396 .35500003 .32 .45099999 .20400001 Z "/>
</symbol>
<use xlink:href="#font_1_1" transform="matrix(6.9738,0,0,-6.9738,15.979989,12.269735)"/>
<symbol id="font_2_1">
<path d="M .23200003 .00999999 C .23200003 .012999982 .23200003 .014999986 .215 .03199999 C .09 .15799999 .058 .347 .058 .5 C .058 .674 .096 .84800007 .21900001 .97300007 C .23200003 .985 .23200003 .98700007 .23200003 .99 C .23200003 .99700006 .22800002 1 .222 1 C .21200001 1 .12200001 .93200007 .06299999 .805 C .012000002 .69500008 0 .584 0 .5 C 0 .422 .011 .301 .066 .188 C .126 .065 .21200001 0 .222 0 C .22800002 0 .23200003 .0029999912 .23200003 .00999999 Z "/>
</symbol>
<use xlink:href="#font_2_1" transform="matrix(9.9626,0,0,-9.9626,24.870305,18.803647)"/>
<symbol id="font_3_1">
<path d="M .252 .314 L .28800003 .314 L .43800003 .082 C .448 .066 .47200004 .027 .483 .012 C .49000005 0 .493 0 .51600006 0 L .65400007 0 C .67200008 0 .68700006 0 .68700006 .018000002 C .68700006 .026 .68100008 .033 .67200008 .035 C .63500007 .043 .5860001 .109000008 .56200006 .141 C .55500009 .15100001 .50500008 .21700001 .43800003 .32500003 C .52700009 .34100003 .61300006 .379 .61300006 .49800004 C .61300006 .637 .46600003 .68500009 .34800003 .68500009 L .034 .68500009 C .016 .68500009 0 .68500009 0 .66700008 C 0 .65000006 .019 .65000006 .027 .65000006 C .084 .65000006 .089 .643 .089 .59300008 L .089 .09200001 C .089 .042000005 .084 .035 .027 .035 C .019 .035 0 .035 0 .018000002 C 0 0 .016 0 .034 0 L .308 0 C .326 0 .34100003 0 .34100003 .018000002 C .34100003 .035 .324 .035 .31300003 .035 C .256 .035 .252 .043 .252 .09200001 L .252 .314 M .44500003 .363 C .47300003 .4 .476 .453 .476 .497 C .476 .545 .47000004 .59800007 .43800003 .63900008 C .47900004 .63000008 .57800009 .59900006 .57800009 .49800004 C .57800009 .43300004 .54800006 .38200004 .44500003 .363 M .252 .596 C .252 .61700007 .252 .65000006 .314 .65000006 C .39900003 .65000006 .441 .615 .441 .497 C .441 .36800004 .41000004 .349 .252 .349 L .252 .596 M .116 .035 C .124 .053000004 .124 .081 .124 .09 L .124 .595 C .124 .605 .124 .632 .116 .65000006 L .23 .65000006 C .21700001 .634 .21700001 .614 .21700001 .59900006 L .21700001 .09 C .21700001 .080000009 .21700001 .053000004 .22500001 .035 L .116 .035 M .32900004 .314 C .33600004 .31500004 .34 .316 .34800003 .316 C .363 .316 .38500003 .31800003 .4 .32000003 C .41500003 .296 .52300009 .11800001 .60600009 .035 L .50900009 .035 L .32900004 .314 Z "/>
</symbol>
<use xlink:href="#font_3_1" transform="matrix(9.9626,0,0,-9.9626,27.917408,16.312996)"/>
<symbol id="font_4_2">
<path d="M .442 .18200001 L .40800003 .18200001 C .40500004 .16000001 .39500005 .101 .38200004 .091000009 C .374 .085 .29700003 .085 .28300003 .085 L .099 .085 C .20400003 .178 .23900002 .20600002 .29900003 .25300003 C .37300004 .312 .442 .374 .442 .469 C .442 .59000006 .33600004 .66400006 .20800004 .66400006 C .084 .66400006 0 .577 0 .485 C 0 .43400003 .043000007 .42900003 .053000004 .42900003 C .077 .42900003 .10600001 .446 .10600001 .48200003 C .10600001 .5 .099 .535 .047000007 .535 C .078 .606 .146 .628 .19300002 .628 C .293 .628 .34500004 .55 .34500004 .469 C .34500004 .38200004 .28300003 .31300003 .25100003 .277 L .010000005 .039 C 0 .030000002 0 .028 0 0 L .41200004 0 L .442 .18200001 Z "/>
</symbol>
<use xlink:href="#font_4_2" transform="matrix(6.9738,0,0,-6.9738,35.39236,12.199997)"/>
<symbol id="font_0_1">
<path d="M .117000009 .194 C .117000009 .26 .092 .29900003 .05300001 .29900003 C .020000004 .29900003 0 .274 0 .246 C 0 .21900001 .020000004 .193 .05300001 .193 C .065000008 .193 .078 .197 .08800001 .206 C .091 .208 .092 .209 .093 .209 C .094000007 .209 .095000009 .208 .095000009 .194 C .095000009 .12 .06000001 .060000004 .027000003 .026999996 C .016000003 .016000003 .016000003 .013999999 .016000003 .0109999929 C .016000003 .003999993 .021000006 0 .026 0 C .037 0 .117000009 .077 .117000009 .194 Z "/>
</symbol>
<use xlink:href="#font_0_1" transform="matrix(9.9626,0,0,-9.9626,40.279798,18.235777)"/>
<use xlink:href="#font_3_1" transform="matrix(9.9626,0,0,-9.9626,44.009416,16.312996)"/>
<symbol id="font_2_2">
<path d="M .232 .5 C .232 .578 .22100002 .699 .16600001 .81200006 C .106 .93500009 .020000004 1 .009999998 1 C .0040000008 1 0 .99600008 0 .99 C 0 .98700007 0 .985 .019000002 .967 C .117000009 .86800006 .174 .709 .174 .5 C .174 .329 .137 .153 .012999997 .026999996 C 0 .014999986 0 .012999982 0 .00999999 C 0 .003999993 .0040000008 0 .009999998 0 C .020000004 0 .11000001 .06799999 .169 .195 C .22 .305 .232 .416 .232 .5 Z "/>
</symbol>
<use xlink:href="#font_2_2" transform="matrix(9.9626,0,0,-9.9626,51.61388,18.803647)"/>
<use xlink:href="#font_0_2" transform="matrix(9.9626,0,0,-9.9626,87.907138,16.532176)"/>
<use xlink:href="#font_1_1" transform="matrix(6.9738,0,0,-6.9738,95.778987,12.269735)"/>
<use xlink:href="#font_2_1" transform="matrix(9.9626,0,0,-9.9626,104.669307,18.803647)"/>
<use xlink:href="#font_3_1" transform="matrix(9.9626,0,0,-9.9626,107.71641,16.312996)"/>
<use xlink:href="#font_4_2" transform="matrix(6.9738,0,0,-6.9738,115.19235,12.199997)"/>
<use xlink:href="#font_0_1" transform="matrix(9.9626,0,0,-9.9626,120.07879,18.235777)"/>
<use xlink:href="#font_3_1" transform="matrix(9.9626,0,0,-9.9626,123.80941,16.312996)"/>
<use xlink:href="#font_4_2" transform="matrix(6.9738,0,0,-6.9738,131.28435,12.199997)"/>
<use xlink:href="#font_2_2" transform="matrix(9.9626,0,0,-9.9626,135.88187,18.803647)"/>
<use xlink:href="#font_0_2" transform="matrix(9.9626,0,0,-9.9626,172.17613,16.532176)"/>
<use xlink:href="#font_1_1" transform="matrix(6.9738,0,0,-6.9738,180.04799,12.269735)"/>
<use xlink:href="#font_2_1" transform="matrix(9.9626,0,0,-9.9626,188.9383,18.803647)"/>
<use xlink:href="#font_3_1" transform="matrix(9.9626,0,0,-9.9626,191.9854,16.312996)"/>
<use xlink:href="#font_4_2" transform="matrix(6.9738,0,0,-6.9738,199.46035,12.199997)"/>
<use xlink:href="#font_0_1" transform="matrix(9.9626,0,0,-9.9626,204.34778,18.235777)"/>
<use xlink:href="#font_3_1" transform="matrix(9.9626,0,0,-9.9626,208.0784,16.312996)"/>
<use xlink:href="#font_2_2" transform="matrix(9.9626,0,0,-9.9626,215.68187,18.803647)"/>
<path transform="matrix(1,0,0,-1,113.299,13.254999)" stroke-width="1" stroke-linecap="butt" stroke-miterlimit="10" stroke-linejoin="miter" fill="none" stroke="#000000" d="M -53.89095 -.56787 L -32.37128 -.56787 "/>
<path transform="matrix(1,0,0,-1,80.92772,13.822869)" d="M 1.99245 0 L -1.19547 1.59395 L 0 0 L -1.19547 -1.59395 "/>
<symbol id="font_5_2">
<path d="M .927 .679 C .932 .688 .9340001 .69100007 .9340001 .695 C .9340001 .71000006 .92200008 .71000006 .90400007 .71000006 L .030000002 .71000006 C .0119999949 .71000006 0 .71000006 0 .695 C 0 .69100007 .0019999967 .688 .0069999995 .679 L .402 .030000002 C .42000003 0 .43300004 0 .467 0 C .501 0 .513 0 .53000006 .028 L .927 .679 M .238 .583 L .78400006 .583 L .51100006 .135 L .238 .583 Z "/>
</symbol>
<use xlink:href="#font_5_2" transform="matrix(6.9738,0,0,-6.9738,67.90309,11.646369)"/>
<path transform="matrix(1,0,0,-1,113.299,13.254999)" stroke-width="1" stroke-linecap="butt" stroke-miterlimit="10" stroke-linejoin="miter" fill="none" stroke="#000000" d="M -24.25063 -9.39462 C -36.53922 -13.86734 -45.49585 -13.86734 -55.90977 -10.0769 "/>
<path transform="matrix(-.94089,-.34244,-.34244,.94089,57.389234,23.331919)" d="M 1.99245 0 L -1.19547 1.59395 L 0 0 L -1.19547 -1.59395 "/>
<symbol id="font_4_3">
<path d="M .596 .679 L 0 .679 L 0 .643 L .024000004 .643 C .101 .643 .10300001 .633 .10300001 .59800007 L .10300001 .081 C .10300001 .047000003 .101 .036000004 .024000004 .036000004 L 0 .036000004 L 0 0 C .001000002 0 .114 .004 .15200001 .004 C .19300002 .004 .31200005 .001 .32700003 0 L .32700003 .036000004 L .29200004 .036000004 C .19800002 .036000004 .19800002 .049000004 .19800002 .082 L .19800002 .32200004 L .29500003 .32200004 C .39500005 .32200004 .40900005 .29200004 .40900005 .20500002 L .44300003 .20500002 L .44300003 .47500003 L .40900005 .47500003 C .40900005 .38900004 .39500005 .358 .29500003 .358 L .19800002 .358 L .19800002 .60400006 C .19800002 .63500007 .19900003 .643 .24600002 .643 L .38600005 .643 C .54700008 .643 .57400009 .58900007 .592 .44900004 L .62600007 .44900004 L .596 .679 Z "/>
</symbol>
<symbol id="font_4_7">
<path d="M .6970001 .67600008 L .021000006 .67600008 L 0 .446 L .034 .446 C .048 .619 .077 .64000007 .231 .64000007 C .25100003 .64000007 .28 .64000007 .29000003 .63900008 C .312 .63500007 .312 .624 .312 .601 L .312 .082 C .312 .049000004 .312 .036000004 .208 .036000004 L .16600001 .036000004 L .16600001 0 C .215 .004 .308 .004 .36 .004 C .412 .004 .50400009 .004 .55300006 0 L .55300006 .036000004 L .51100006 .036000004 C .407 .036000004 .407 .049000004 .407 .082 L .407 .601 C .407 .624 .407 .63500007 .42900003 .63900008 C .439 .64000007 .46800003 .64000007 .488 .64000007 C .544 .64000007 .5870001 .64000007 .62200006 .62 C .66700008 .59300008 .6740001 .52900007 .6750001 .52400007 L .6840001 .446 L .71800008 .446 L .6970001 .67600008 Z "/>
</symbol>
<symbol id="font_4_6">
<path d="M .595 .263 L .56100007 .263 C .55 .165 .535 .036000004 .34600003 .036000004 L .24600002 .036000004 C .19900003 .036000004 .19800002 .044000005 .19800002 .075 L .19800002 .601 C .19800002 .634 .19800002 .647 .29200004 .647 L .32700003 .647 L .32700003 .683 C .30600003 .68200007 .178 .679 .15200001 .679 C .114 .679 .001000002 .683 0 .683 L 0 .647 L .024000004 .647 C .101 .647 .10300001 .637 .10300001 .60200008 L .10300001 .081 C .10300001 .047000003 .101 .036000004 .024000004 .036000004 L 0 .036000004 L 0 0 L .56500008 0 L .595 .263 Z "/>
</symbol>
<symbol id="font_4_5">
<path d="M .20300001 .601 C .20300001 .63500007 .20300001 .647 .28500004 .647 L .31100003 .647 L .31100003 .683 C .303 .683 .19500001 .679 .15600002 .679 C .11600001 .679 .006000001 .683 0 .683 L 0 .647 L .026000005 .647 C .10800001 .647 .10800001 .63500007 .10800001 .601 L .10800001 .082 C .10800001 .048 .10800001 .036000004 .026000005 .036000004 L 0 .036000004 L 0 0 C .008000001 0 .11600001 .004 .15500002 .004 C .19500001 .004 .305 0 .31100003 0 L .31100003 .036000004 L .28500004 .036000004 C .20300001 .036000004 .20300001 .048 .20300001 .082 L .20300001 .601 Z "/>
</symbol>
<use xlink:href="#font_4_3" transform="matrix(6.9738,0,0,-6.9738,63.356538,33.113)"/>
<use xlink:href="#font_4_7" transform="matrix(6.9738,0,0,-6.9738,68.44044,33.113)"/>
<use xlink:href="#font_4_6" transform="matrix(6.9738,0,0,-6.9738,74.186847,33.113)"/>
<use xlink:href="#font_4_5" transform="matrix(6.9738,0,0,-6.9738,79.075489,33.113)"/>
<path transform="matrix(1,0,0,-1,113.299,13.254999)" stroke-width="1" stroke-linecap="butt" stroke-miterlimit="10" stroke-linejoin="miter" fill="none" stroke="#000000" d="M 30.37883 -.56787 L 51.8985 -.56787 "/>
<path transform="matrix(1,0,0,-1,165.19751,13.822869)" d="M 1.99245 0 L -1.19547 1.59395 L 0 0 L -1.19547 -1.59395 "/>
<symbol id="font_5_1">
<path d="M .31199999 .36300005 L .06900002 .605 C .056999998 .61700007 .051000015 .623 .037 .623 C .017000005 .623 0 .607 0 .586 C 0 .572 .008000001 .564 .017000005 .555 L .26 .31200005 L .018000007 .069000009 C .008000001 .058000007 0 .051000004 0 .037000006 C 0 .016000003 .017000005 0 .037 0 C .04900001 0 .058000015 .006000001 .06900002 .017 L .311 .26000003 C .362 .21000001 .558 .013000004 .563 .009000003 C .565 .007000003 .574 0 .587 0 C .605 0 .623 .014000002 .623 .037000006 C .623 .052000006 .61800006 .056000007 .593 .082 L .36300005 .311 L .605 .554 C .61700007 .566 .623 .572 .623 .586 C .623 .609 .605 .623 .587 .623 C .572 .623 .565 .616 .555 .606 L .31199999 .36300005 Z "/>
</symbol>
<use xlink:href="#font_5_2" transform="matrix(6.9738,0,0,-6.9738,148.6491,10.417369)"/>
<use xlink:href="#font_5_1" transform="matrix(6.9738,0,0,-6.9738,157.02463,10.6754)"/>
<path transform="matrix(1,0,0,-1,113.299,13.254999)" stroke-width="1" stroke-linecap="butt" stroke-miterlimit="10" stroke-linejoin="miter" fill="none" stroke="#000000" d="M 57.78442 -9.39462 C 45.49585 -13.86734 36.53922 -13.86734 26.12529 -10.0769 "/>
<path transform="matrix(-.94089,-.34244,-.34244,.94089,139.42429,23.331919)" d="M 1.99245 0 L -1.19547 1.59395 L 0 0 L -1.19547 -1.59395 "/>
<symbol id="font_4_4">
<path d="M .6750001 .216 C .6750001 .26000003 .68500009 .26000003 .75200006 .26000003 L .75200006 .29600004 C .74500009 .29600004 .67200008 .29200004 .623 .29200004 C .57000008 .29200004 .49400003 .29200004 .44200004 .29600004 L .44200004 .26000003 L .48000003 .26000003 C .58000007 .26000003 .58000007 .24700001 .58000007 .214 L .58000007 .15 C .58000007 .128 .58000007 .08900001 .52300009 .061000006 C .47400005 .036000004 .41800005 .036000004 .40500004 .036000004 C .29200004 .036000004 .107 .101 .107 .36200003 C .107 .628 .29700003 .68700006 .39600004 .68700006 C .49300004 .68700006 .61300006 .62200006 .63900008 .44900004 C .64100006 .43700005 .65000006 .43700005 .65700009 .43700005 C .6750001 .43700005 .6750001 .44300003 .6750001 .46300004 L .6750001 .697 C .6750001 .714 .6750001 .723 .661 .723 C .65700009 .723 .65200009 .723 .64400008 .711 L .591 .635 C .54200008 .685 .47100003 .723 .38300003 .723 C .17500001 .723 0 .56200006 0 .36200003 C 0 .164 .17000002 0 .38600005 0 C .44100005 0 .55200007 .010000001 .59900006 .080000009 C .61600008 .054000006 .65300008 .020000002 .66300007 .020000002 C .6750001 .020000002 .6750001 .031000004 .6750001 .046000005 L .6750001 .216 Z "/>
</symbol>
<symbol id="font_4_d">
<path d="M .15 .22800002 C .15 .312 .18900001 .41300003 .284 .41300003 C .275 .40600003 .26700003 .393 .26700003 .377 C .26700003 .344 .293 .33100004 .31200005 .33100004 C .33600004 .33100004 .358 .347 .358 .377 C .358 .411 .32600004 .441 .279 .441 C .22900003 .441 .174 .41000004 .144 .33400003 L .143 .33400003 L .143 .441 L 0 .43 L 0 .39400003 C .067 .39400003 .075 .38700003 .075 .33800004 L .075 .079 C .075 .036000004 .065000008 .036000004 0 .036000004 L 0 0 C .004999999 0 .07300001 .004 .114 .004 C .157 .004 .201 .002 .24400002 0 L .24400002 .036000004 L .224 .036000004 C .15 .036000004 .15 .047000003 .15 .081 L .15 .22800002 Z "/>
</symbol>
<symbol id="font_4_8">
<path d="M .40100003 .23800002 C .42200003 .23800002 .42900003 .23800002 .42900003 .26 C .42900003 .34800003 .38000003 .456 .231 .456 C .10000001 .456 0 .352 0 .22900002 C 0 .102000009 .111 0 .24400002 0 C .379 0 .42900003 .108 .42900003 .13000001 C .42900003 .134 .42700003 .14400001 .41200004 .14400001 C .39900003 .14400001 .397 .13800001 .39400003 .128 C .363 .047000003 .287 .032 .25100003 .032 C .20400001 .032 .15900001 .053000004 .12900001 .091 C .09200001 .13800001 .091000009 .19900002 .091000009 .23800002 L .40100003 .23800002 M .09200001 .264 C .103 .405 .193 .428 .231 .428 C .354 .428 .358 .289 .35900004 .264 L .09200001 .264 Z "/>
</symbol>
<symbol id="font_4_b">
<path d="M .46100006 .303 C .46100006 .39000003 .41800005 .441 .31100003 .441 C .22900002 .441 .176 .39600004 .148 .344 L .147 .344 L .147 .441 L 0 .43 L 0 .39400003 C .067 .39400003 .075 .38700003 .075 .33800004 L .075 .079 C .075 .036000004 .065 .036000004 0 .036000004 L 0 0 C .0020000004 0 .072 .004 .11400001 .004 C .15100001 .004 .22000002 .001 .22900002 0 L .22900002 .036000004 C .164 .036000004 .154 .036000004 .154 .079 L .154 .259 C .154 .36400003 .237 .41300003 .30300004 .41300003 C .37300004 .41300003 .38200004 .358 .38200004 .307 L .38200004 .079 C .38200004 .036000004 .37200005 .036000004 .30700005 .036000004 L .30700005 0 C .30900003 0 .37900005 .004 .42100004 .004 C .45800004 .004 .527 .001 .536 0 L .536 .036000004 C .47100006 .036000004 .46100006 .036000004 .46100006 .079 L .46100006 .303 Z "/>
</symbol>
<symbol id="font_4_1">
<path d="M .10200001 .21300003 C .10200001 .18100003 .10200001 .09900001 .023000002 .029000014 C .016000003 .023000002 .014000006 .02000001 .014000006 .014999986 C .014000006 .009000003 .020999998 0 .027999998 0 C .040000008 0 .13000001 .07699999 .13000001 .20000002 C .13000001 .25900004 .106000009 .309 .05700001 .309 C .022 .309 0 .28200004 0 .25100003 C 0 .22700003 .016000003 .19400004 .058 .19400004 C .08600001 .19400004 .09500001 .20400003 .10200001 .21300003 Z "/>
</symbol>
<symbol id="font_4_e">
<path d="M .334 .43 C .334 .447 .334 .456 .32 .456 C .315 .456 .31300003 .456 .3 .444 C .29800005 .44300003 .288 .43400003 .282 .42900003 C .25200004 .45000003 .214 .456 .17700002 .456 C .034 .456 0 .381 0 .331 C 0 .299 .014000002 .273 .038000004 .25300003 C .076000008 .22000002 .11400001 .21300002 .17600002 .20300001 C .22600003 .19400002 .30700005 .18 .30700005 .113000009 C .30700005 .074 .28000004 .028 .18400002 .028 C .088 .028 .053000004 .091 .035000005 .15900001 C .032000007 .172 .031000004 .17600002 .017 .17600002 C 0 .17600002 0 .16900002 0 .14900002 L 0 .026 C 0 .009000001 0 0 .014000002 0 C .023000002 0 .042000005 .021000002 .062000008 .043 C .106000009 .0020000004 .16000001 0 .18400002 0 C .314 0 .362 .07 .362 .14100002 C .362 .17900002 .34500004 .20900002 .319 .23300001 C .28100003 .268 .235 .276 .2 .282 C .120000008 .296 .055 .308 .055 .361 C .055 .393 .082 .432 .17700002 .432 C .29300005 .432 .29800005 .351 .3 .322 C .301 .31100003 .31300003 .31100003 .31700004 .31100003 C .334 .31100003 .334 .31800003 .334 .337 L .334 .43 Z "/>
</symbol>
<symbol id="font_4_9">
<path d="M .46100006 .303 C .46100006 .39000003 .41800005 .441 .31100003 .441 C .22200002 .441 .17300001 .388 .15100001 .35000003 L .15 .35000003 L .15 .694 L 0 .683 L 0 .647 C .067 .647 .075 .64000007 .075 .591 L .075 .079 C .075 .036000004 .065 .036000004 0 .036000004 L 0 0 C .0020000004 0 .072 .004 .11400001 .004 C .15100001 .004 .22000002 .001 .22900002 0 L .22900002 .036000004 C .164 .036000004 .154 .036000004 .154 .079 L .154 .259 C .154 .36400003 .237 .41300003 .30300004 .41300003 C .37300004 .41300003 .38200004 .358 .38200004 .307 L .38200004 .079 C .38200004 .036000004 .37200005 .036000004 .30700005 .036000004 L .30700005 0 C .30900003 0 .37900005 .004 .42100004 .004 C .45800004 .004 .527 .001 .536 0 L .536 .036000004 C .47100006 .036000004 .46100006 .036000004 .46100006 .079 L .46100006 .303 Z "/>
</symbol>
<symbol id="font_4_c">
<path d="M .49000005 .22300002 C .49000005 .34800003 .38300003 .456 .245 .456 C .10700001 .456 0 .34800003 0 .22300002 C 0 .099 .11 0 .245 0 C .38000003 0 .49000005 .099 .49000005 .22300002 M .245 .032 C .208 .032 .154 .044000005 .12100001 .093 C .094 .134 .091000009 .18600002 .091000009 .23200003 C .091000009 .275 .09200001 .334 .127 .377 C .15200001 .40600003 .194 .428 .245 .428 C .30400003 .428 .34600003 .4 .368 .36900003 C .39600004 .33 .39900003 .28 .39900003 .23200003 C .39900003 .18400002 .39600004 .13100001 .367 .09 C .34 .052000006 .294 .032 .245 .032 Z "/>
</symbol>
<symbol id="font_4_a">
<path d="M .768 .303 C .768 .39000003 .725 .441 .61800006 .441 C .53900006 .441 .48500005 .39800004 .45800004 .34800003 C .43800003 .41900004 .38400004 .441 .31100003 .441 C .22900002 .441 .176 .39600004 .148 .344 L .147 .344 L .147 .441 L 0 .43 L 0 .39400003 C .067 .39400003 .075 .38700003 .075 .33800004 L .075 .079 C .075 .036000004 .065 .036000004 0 .036000004 L 0 0 C .0020000004 0 .072 .004 .11400001 .004 C .15100001 .004 .22000002 .001 .22900002 0 L .22900002 .036000004 C .164 .036000004 .154 .036000004 .154 .079 L .154 .259 C .154 .36400003 .237 .41300003 .30300004 .41300003 C .37300004 .41300003 .38200004 .358 .38200004 .307 L .38200004 .079 C .38200004 .036000004 .37200005 .036000004 .30700005 .036000004 L .30700005 0 C .30900003 0 .37900005 .004 .42100004 .004 C .45800004 .004 .527 .001 .536 0 L .536 .036000004 C .47100006 .036000004 .46100006 .036000004 .46100006 .079 L .46100006 .259 C .46100006 .36400003 .544 .41300003 .61 .41300003 C .68 .41300003 .689 .358 .689 .307 L .689 .079 C .689 .036000004 .679 .036000004 .614 .036000004 L .614 0 C .616 0 .686 .004 .72800007 .004 C .76500007 .004 .83400008 .001 .843 0 L .843 .036000004 C .778 .036000004 .768 .036000004 .768 .079 L .768 .303 Z "/>
</symbol>
<use xlink:href="#font_4_4" transform="matrix(6.9738,0,0,-6.9738,124.974178,33.33048)"/>
<use xlink:href="#font_4_d" transform="matrix(6.9738,0,0,-6.9738,130.99257,33.191)"/>
<use xlink:href="#font_4_8" transform="matrix(6.9738,0,0,-6.9738,134.03314,33.26074)"/>
<use xlink:href="#font_4_8" transform="matrix(6.9738,0,0,-6.9738,137.57584,33.26074)"/>
<use xlink:href="#font_4_b" transform="matrix(6.9738,0,0,-6.9738,141.22315,33.191)"/>
<use xlink:href="#font_4_1" transform="matrix(6.9738,0,0,-6.9738,145.97229,30.506089)"/>
<use xlink:href="#font_4_e" transform="matrix(6.9738,0,0,-6.9738,147.81337,33.26074)"/>
<use xlink:href="#font_4_7" transform="matrix(6.9738,0,0,-6.9738,153.67835,33.191)"/>
<use xlink:href="#font_4_9" transform="matrix(6.9738,0,0,-6.9738,159.4108,33.191)"/>
<use xlink:href="#font_4_8" transform="matrix(6.9738,0,0,-6.9738,163.70667,33.26074)"/>
<use xlink:href="#font_4_c" transform="matrix(6.9738,0,0,-6.9738,167.24936,33.26074)"/>
<use xlink:href="#font_4_d" transform="matrix(6.9738,0,0,-6.9738,171.29418,33.191)"/>
<use xlink:href="#font_4_8" transform="matrix(6.9738,0,0,-6.9738,174.33475,33.26074)"/>
<use xlink:href="#font_4_a" transform="matrix(6.9738,0,0,-6.9738,177.98206,33.191)"/>
</svg>
