<?xml version="1.0" encoding="UTF-8" standalone="no"?>
<!DOCTYPE svg PUBLIC "-//W3C//DTD SVG 1.1//EN" "http://www.w3.org/Graphics/SVG/1.1/DTD/svg11.dtd">
<svg xmlns="http://www.w3.org/2000/svg" xmlns:xlink="http://www.w3.org/1999/xlink" version="1.1" width="145.121pt" height="46.515pt" viewBox="0 0 145.121 46.515">
<path transform="matrix(1,0,0,-1,72.56,94.746)" stroke-width="1.59404" stroke-linecap="butt" stroke-miterlimit="10" stroke-linejoin="miter" fill="none" stroke="#808080" d="M -56.69362 56.69362 C -56.69362 56.69362 -5.8996 85.04042 0 85.04042 C 5.8996 85.04042 -22.03952 56.69362 -14.17339 56.69362 C -6.30727 56.69362 56.69362 85.04042 56.69362 85.04042 "/>
<path transform="matrix(1,0,0,-1,72.56,94.746)" stroke-width="1.59404" stroke-linecap="butt" stroke-miterlimit="10" stroke-linejoin="miter" fill="none" stroke="#808080" d="M 0 82.20555 C 0 82.20555 -9.92155 68.03217 -7.75049 71.1336 "/>
<path transform="matrix(-.57347,.81923,.81923,.57347,64.80951,23.612404)" d="M 3.78581 0 L -2.27148 3.02866 L 0 0 L -2.27148 -3.02866 " fill="#808080"/>
<path transform="matrix(1,0,0,-1,72.56,94.746)" d="M -54.54886 56.69362 C -54.54886 57.87813 -55.5091 58.83836 -56.69362 58.83836 C -57.87813 58.83836 -58.83836 57.87813 -58.83836 56.69362 C -58.83836 55.5091 -57.87813 54.54886 -56.69362 54.54886 C -55.5091 54.54886 -54.54886 55.5091 -54.54886 56.69362 Z M -56.69362 56.69362 "/>
<path transform="matrix(1,0,0,-1,72.56,94.746)" stroke-width="1" stroke-linecap="butt" stroke-miterlimit="10" stroke-linejoin="miter" fill="none" stroke="#000000" d="M -54.54886 56.69362 C -54.54886 57.87813 -55.5091 58.83836 -56.69362 58.83836 C -57.87813 58.83836 -58.83836 57.87813 -58.83836 56.69362 C -58.83836 55.5091 -57.87813 54.54886 -56.69362 54.54886 C -55.5091 54.54886 -54.54886 55.5091 -54.54886 56.69362 Z M -56.69362 56.69362 "/>
<path transform="matrix(1,0,0,-1,72.56,94.746)" d="M 58.83836 85.04042 C 58.83836 86.22495 57.87813 87.18518 56.69362 87.18518 C 55.5091 87.18518 54.54886 86.22495 54.54886 85.04042 C 54.54886 83.8559 55.5091 82.89566 56.69362 82.89566 C 57.87813 82.89566 58.83836 83.8559 58.83836 85.04042 Z M 56.69362 85.04042 "/>
<path transform="matrix(1,0,0,-1,72.56,94.746)" stroke-width="1" stroke-linecap="butt" stroke-miterlimit="10" stroke-linejoin="miter" fill="none" stroke="#000000" d="M 58.83836 85.04042 C 58.83836 86.22495 57.87813 87.18518 56.69362 87.18518 C 55.5091 87.18518 54.54886 86.22495 54.54886 85.04042 C 54.54886 83.8559 55.5091 82.89566 56.69362 82.89566 C 57.87813 82.89566 58.83836 83.8559 58.83836 85.04042 Z M 56.69362 85.04042 "/>
<symbol id="font_0_1">
<path d="M 1.098 0 C 1.12 0 1.1350001 0 1.1350001 .029 C 1.1350001 .039000006 1.1350001 .049999983 1.1220001 .05700001 C 1.067 .083000008 .95300009 .137 .86800006 .28800003 C .85600009 .307 .855 .308 .82900008 .308 C .81200006 .308 .79300007 .308 .79300007 .28599999 C .79300007 .272 .8510001 .15599999 .9560001 .072999987 L .051000008 .072999987 C .036 .072999987 0 .072999987 0 .037 C 0 0 .035000005 0 .051000008 0 L 1.098 0 Z "/>
</symbol>
<use xlink:href="#font_0_1" transform="matrix(6.9738,0,0,-6.9738,3.8719295,35.28161)"/>
<symbol id="font_1_1">
<path d="M .342 .083000008 C .342 .052000006 .342 .006 .446 .006 L .49400003 .006 C .514 .006 .526 .006 .526 .030000002 C .526 .053000004 .513 .053000004 .5 .053000004 C .439 .054 .439 .067 .439 .09 L .439 .30500005 C .439 .39400003 .368 .45900003 .21900001 .45900003 C .162 .45900003 .040000004 .45500005 .040000004 .36700005 C .040000004 .323 .075 .30400003 .102 .30400003 C .133 .30400003 .165 .32500003 .165 .36700005 C .165 .39700005 .146 .41400004 .143 .41600005 C .171 .42200003 .20300001 .42300005 .215 .42300005 C .29000003 .42300005 .32500003 .38100005 .32500003 .30500005 L .32500003 .27100004 C .254 .26800005 0 .25900004 0 .114 C 0 .018 .124 0 .193 0 C .273 0 .32000003 .041 .342 .083000008 M .32500003 .24000001 L .32500003 .14500001 C .32500003 .049000004 .23300001 .036000004 .208 .036000004 C .157 .036000004 .117 .071 .117 .115 C .117 .223 .275 .237 .32500003 .24000001 Z "/>
</symbol>
<use xlink:href="#font_1_1" transform="matrix(9.9626,0,0,-9.9626,5.3688027,43.25378)"/>
<use xlink:href="#font_0_1" transform="matrix(6.9738,0,0,-6.9738,133.32393,5.6896097)"/>
<symbol id="font_1_2">
<path d="M .17700002 .40700004 L .17700002 .7 L 0 .69200006 L 0 .64500007 C .062000008 .64500007 .069000009 .64500007 .069000009 .606 L .069000009 .006 L .11600001 .006 L .165 .062000004 C .17300001 .054 .222 0 .31100003 0 C .46 0 .563 .09 .563 .229 C .563 .36200003 .46900005 .45600004 .32400004 .45600004 C .25100003 .45600004 .201 .42700006 .17700002 .40700004 M .18300002 .105000007 L .18300002 .35600005 C .21000001 .39100004 .25800003 .42000006 .31300003 .42000006 C .43500004 .42000006 .43500004 .29900003 .43500004 .229 C .43500004 .18200001 .43500004 .127 .409 .088 C .38000003 .047000003 .33400003 .036000004 .30200003 .036000004 C .23200003 .036000004 .193 .09 .18300002 .105000007 Z "/>
</symbol>
<use xlink:href="#font_1_2" transform="matrix(9.9626,0,0,-9.9626,134.47261,16.152779)"/>
</svg>
