<?xml version="1.0" encoding="UTF-8" standalone="no"?>
<!DOCTYPE svg PUBLIC "-//W3C//DTD SVG 1.1//EN" "http://www.w3.org/Graphics/SVG/1.1/DTD/svg11.dtd">
<svg xmlns="http://www.w3.org/2000/svg" xmlns:xlink="http://www.w3.org/1999/xlink" version="1.1" width="115.07pt" height="78.51pt" viewBox="0 0 115.07 78.51">
<path transform="matrix(1,0,0,-1,57.49,49.367006)" stroke-width="1.59404" stroke-linecap="butt" stroke-miterlimit="10" stroke-linejoin="miter" fill="none" stroke="#000080" d="M 56.69362 -28.3468 L 56.69362 28.3468 "/>
<path transform="matrix(1,0,0,-1,57.49,49.367006)" stroke-width="1.59404" stroke-linecap="butt" stroke-miterlimit="10" stroke-linejoin="miter" fill="none" stroke="#000080" d="M -56.69362 -28.3468 L -56.69362 28.3468 "/>
<path transform="matrix(1,0,0,-1,57.49,49.367006)" stroke-width="1.59404" stroke-linecap="butt" stroke-miterlimit="10" stroke-linejoin="miter" fill="none" stroke="#000080" d="M -56.69362 28.3468 C -24.28572 .22491 14.74783 -19.286 56.6893 -28.33684 "/>
<path transform="matrix(1,0,0,-1,57.49,49.367006)" stroke-width="1.59404" stroke-linecap="butt" stroke-miterlimit="10" stroke-linejoin="miter" fill="none" stroke="#000080" d="M -56.69362 -28.3468 C -38.40895 -24.40337 -20.5758 -18.43951 -3.59135 -10.59935 "/>
<path transform="matrix(1,0,0,-1,57.49,49.367006)" stroke-width="1.59404" stroke-linecap="butt" stroke-miterlimit="10" stroke-linejoin="miter" fill="none" stroke="#000080" d="M 3.68521 -7.08669 C 22.79128 2.47023 40.64775 14.3901 56.78358 28.39265 "/>
<path transform="matrix(1,0,0,-1,57.49,49.367006)" stroke-width="1.59404" stroke-linecap="butt" stroke-miterlimit="10" stroke-linejoin="miter" fill="none" stroke="#000080" d="M 56.69362 28.3468 C 21.63556 48.57054 -21.56285 48.57054 -56.62091 28.3468 "/>
<path transform="matrix(1,0,0,-1,57.49,49.367006)" stroke-width="1.59404" stroke-linecap="butt" stroke-dasharray="2.98883,2.98883" stroke-miterlimit="10" stroke-linejoin="miter" fill="none" stroke="#000080" d="M 56.69362 -28.3468 C 46.52235 -14.47903 31.60548 -4.81406 14.79211 -1.19803 "/>
<path transform="matrix(1,0,0,-1,57.49,49.367006)" stroke-width="1.59404" stroke-linecap="butt" stroke-dasharray="2.98883,2.98883" stroke-miterlimit="10" stroke-linejoin="miter" fill="none" stroke="#000080" d="M -14.74045 -1.13367 C -31.55383 -4.7497 -46.47069 -14.41467 -56.64195 -28.28244 "/>
<path transform="matrix(1,0,0,-1,57.49,49.367006)" stroke-width="1.59404" stroke-linecap="butt" stroke-miterlimit="10" stroke-linejoin="miter" fill="none" stroke="#000080" d="M 14.74045 -1.13367 C 5.00041 .96127 -5.08502 .96127 -14.82507 -1.13367 "/>
</svg>
