<?xml version="1.0" encoding="UTF-8" standalone="no"?>
<!DOCTYPE svg PUBLIC "-//W3C//DTD SVG 1.1//EN" "http://www.w3.org/Graphics/SVG/1.1/DTD/svg11.dtd">
<svg xmlns="http://www.w3.org/2000/svg" xmlns:xlink="http://www.w3.org/1999/xlink" version="1.1" width="211.652pt" height="174.678pt" viewBox="0 0 211.652 174.678">
<clipPath id="cp0">
<path transform="matrix(1,0,0,-1,4.803,174.47899)" d="M 0 0 L 194.27353 0 L 194.27353 161.388 L 0 161.388 Z "/>
</clipPath>
<g clip-path="url(#cp0)">
<path transform="matrix(1,0,0,-1,4.803,174.47899)" d="M 84.46675 107.59134 L 85.84576 107.14993 L 87.22476 106.70392 L 88.60379 106.25311 L 89.9828 105.79741 L 91.36183 105.33658 L 92.74086 104.8705 L 94.11986 104.399 L 95.4989 103.92181 L 96.8779 103.43878 L 98.25693 102.94969 L 99.63594 102.45425 L 101.01495 101.95227 L 102.39398 101.44347 L 103.77298 100.92754 L 105.15202 100.40419 L 106.53105 99.87305 L 107.91005 99.33386 L 109.28908 98.78615 L 110.66809 98.22955 L 112.04712 97.66353 L 113.42613 97.08772 L 114.80515 96.50151 L 116.18417 95.90434 L 117.56317 95.2956 L 118.9422 94.67455 L 120.32123 94.0404 L 121.70024 93.39236 L 123.07927 92.72935 L 124.45827 92.0504 L 125.8373 91.35426 L 127.21634 90.63951 L 128.59534 89.90465 L 129.97435 89.14781 L 131.35338 88.36694 L 132.73239 87.55959 L 134.11142 86.72285 L 135.49042 85.8536 L 136.86946 84.94695 L 138.24846 83.99806 L 139.62749 83.00043 L 141.00652 81.94566 L 142.38553 80.82263 L 143.76456 79.61612 L 145.14356 78.30412 L 146.52257 76.85294 L 147.90161 75.20583 L 149.28061 73.25218 L 150.65964 70.70645 L 152.03864 64.75693 L 152.03864 64.35345 L 150.65964 58.40393 L 149.28061 55.85818 L 147.90161 53.90456 L 146.52257 52.25743 L 145.14356 50.80624 L 143.76456 49.49426 L 142.38553 48.28773 L 141.00652 47.1647 L 139.62749 46.10995 L 138.24846 45.1123 L 136.86946 44.16342 L 135.49042 43.25676 L 134.11142 42.38751 L 132.73239 41.55078 L 131.35338 40.74342 L 129.97435 39.96255 L 128.59534 39.20573 L 127.21634 38.47087 L 125.8373 37.75612 L 124.45827 37.05997 L 123.07927 36.38101 L 121.70024 35.71802 L 120.32123 35.06996 L 118.9422 34.43584 L 117.56317 33.81477 L 116.18417 33.20602 L 114.80515 32.60886 L 113.42613 32.02266 L 112.04712 31.44685 L 110.66809 30.88081 L 109.28908 30.32423 L 107.91005 29.7765 L 106.53105 29.23732 L 105.15202 28.70618 L 103.77298 28.18283 L 102.39398 27.66692 L 101.01495 27.1581 L 99.63594 26.65611 L 98.25693 26.16068 L 96.8779 25.67159 L 95.4989 25.18857 L 94.11986 24.71136 L 92.74086 24.23987 L 91.36183 23.77379 L 89.9828 23.31296 L 88.60379 22.85725 L 87.22476 22.40645 L 85.84576 21.96043 L 84.46675 21.51903 Z " fill="#cccce6"/>
</g>
<clipPath id="cp1">
<path transform="matrix(1,0,0,-1,4.803,174.47899)" d="M 0 0 L 194.27353 0 L 194.27353 161.388 L 0 161.388 Z "/>
</clipPath>
<g clip-path="url(#cp1)">
<path transform="matrix(1,0,0,-1,4.803,174.47899)" d="M 16.89334 64.55519 L 18.27583 70.71086 L 19.65831 73.26076 L 21.04079 75.21729 L 22.42328 76.86671 L 23.80576 78.3199 L 25.18825 79.63367 L 26.57072 80.84181 L 27.9532 81.96632 L 29.3357 83.02248 L 30.71817 84.02144 L 32.10066 84.97156 L 33.48314 85.8794 L 34.86563 86.74977 L 36.24812 87.58757 L 37.63058 88.396 L 39.01309 89.17786 L 40.39555 89.93567 L 41.77805 90.6715 L 43.16054 91.38713 L 44.543 92.0842 L 45.9255 92.76399 L 47.30798 93.42784 L 48.69046 94.07675 L 50.07295 94.71172 L 51.45541 95.33353 L 52.8379 95.94307 L 54.22038 96.54099 L 55.60287 97.12793 L 56.98537 97.7045 L 58.36786 98.27121 L 59.75032 98.82849 L 61.13281 99.37694 L 62.51529 99.91682 L 63.89777 100.44861 L 65.28027 100.97263 L 66.66273 101.48923 L 68.04523 101.99867 L 69.42772 102.5013 L 70.81018 102.99736 L 72.19269 103.48709 L 73.57515 103.9707 L 74.95763 104.44852 L 76.34012 104.92065 L 77.7226 105.38731 L 79.1051 105.84872 L 80.48758 106.30496 L 81.87006 106.75635 L 83.25255 107.20293 L 84.63501 107.64488 L 84.63501 21.46548 L 83.25255 21.90744 L 81.87006 22.35403 L 80.48758 22.8054 L 79.1051 23.26164 L 77.7226 23.72305 L 76.34012 24.18971 L 74.95763 24.66187 L 73.57515 25.13966 L 72.19269 25.62328 L 70.81018 26.113 L 69.42772 26.60909 L 68.04523 27.11171 L 66.66273 27.62115 L 65.28027 28.13774 L 63.89777 28.66176 L 62.51529 29.19356 L 61.13281 29.73343 L 59.75032 30.28188 L 58.36786 30.83917 L 56.98537 31.40588 L 55.60287 31.98245 L 54.22038 32.56938 L 52.8379 33.1673 L 51.45541 33.77684 L 50.07295 34.39865 L 48.69046 35.03362 L 47.30798 35.68253 L 45.9255 36.34637 L 44.543 37.02617 L 43.16054 37.72325 L 41.77805 38.43887 L 40.39555 39.1747 L 39.01309 39.93253 L 37.63058 40.71437 L 36.24812 41.5228 L 34.86563 42.3606 L 33.48314 43.23099 L 32.10066 44.13881 L 30.71817 45.08894 L 29.3357 46.08789 L 27.9532 47.14404 L 26.57072 48.26855 L 25.18825 49.4767 L 23.80576 50.79047 L 22.42328 52.24365 L 21.04079 53.89308 L 19.65831 55.84961 L 18.27583 58.39952 L 16.89334 64.55519 Z " fill="#cccce6"/>
</g>
<clipPath id="cp2">
<path transform="matrix(1,0,0,-1,4.803,174.47899)" d="M 0 0 L 194.27353 0 L 194.27353 161.388 L 0 161.388 Z "/>
</clipPath>
<g clip-path="url(#cp2)">
<path transform="matrix(1,0,0,-1,4.803,174.47899)" stroke-width="1.19553" stroke-linecap="butt" stroke-miterlimit="10" stroke-linejoin="miter" fill="none" stroke="#000080" d="M 0 0 C 0 0 17.83841 3.88678 24.28418 5.3796 C 30.72995 6.8724 40.59691 9.26637 46.45671 10.75919 C 52.31651 12.25201 61.24374 14.64598 66.51756 16.1388 C 71.79137 17.6316 79.77892 20.02557 84.46675 21.51839 C 89.15457 23.01122 96.2024 25.40517 100.30426 26.898 C 104.40611 28.39081 110.51424 30.78477 114.0301 32.27759 C 117.54597 33.77042 122.71439 36.16437 125.64429 37.6572 C 128.57418 39.15001 132.80289 41.54398 135.14679 43.03679 C 137.4907 44.52962 140.77971 46.92357 142.53763 48.4164 C 144.29557 49.90921 146.64485 52.30318 147.8168 53.79599 C 148.98876 55.28882 150.39833 57.68277 150.98432 59.1756 C 151.57028 60.66841 152.04015 63.06238 152.04015 64.55519 C 152.04015 66.04802 151.57028 68.44197 150.98432 69.9348 C 150.39833 71.42761 148.98876 73.82158 147.8168 75.31439 C 146.64485 76.80722 144.29557 79.20117 142.53763 80.694 C 140.77971 82.18681 137.4907 84.58078 135.14679 86.0736 C 132.80289 87.5664 128.57418 89.96037 125.64429 91.4532 C 122.71439 92.94601 117.54597 95.33998 114.0301 96.8328 C 110.51424 98.3256 104.40611 100.71957 100.30426 102.21239 C 96.2024 103.70522 89.15457 106.09918 84.46675 107.592 C 79.77892 109.08481 71.79137 111.47878 66.51756 112.97159 C 61.24374 114.46442 52.31651 116.85837 46.45671 118.3512 C 40.59691 119.84401 30.72995 122.23798 24.28418 123.73079 C 17.83841 125.22362 0 129.1104 0 129.1104 "/>
<path transform="matrix(1,0,0,-1,4.803,174.47899)" stroke-width="1.19553" stroke-linecap="butt" stroke-miterlimit="10" stroke-linejoin="miter" fill="none" stroke="#800000" d="M 168.9335 0 C 168.9335 0 151.09508 3.88678 144.64929 5.3796 C 138.20352 6.8724 128.33658 9.26637 122.47678 10.75919 C 116.61699 12.25201 107.68973 14.64598 102.41592 16.1388 C 97.1421 17.6316 89.15457 20.02557 84.46675 21.51839 C 79.77892 23.01122 72.73108 25.40517 68.62921 26.898 C 64.52736 28.39081 58.41925 30.78477 54.90338 32.27759 C 51.38751 33.77042 46.21909 36.16437 43.28918 37.6572 C 40.3593 39.15001 36.13062 41.54398 33.7867 43.03679 C 31.44278 44.52962 28.15376 46.92357 26.39584 48.4164 C 24.63791 49.90921 22.28864 52.30318 21.11668 53.79599 C 19.94473 55.28882 18.53514 57.68277 17.94917 59.1756 C 17.36319 60.66841 16.89334 63.06238 16.89334 64.55519 C 16.89334 66.04802 17.36319 68.44197 17.94917 69.9348 C 18.53514 71.42761 19.94473 73.82158 21.11668 75.31439 C 22.28864 76.80722 24.63791 79.20117 26.39584 80.694 C 28.15376 82.18681 31.44278 84.58078 33.7867 86.0736 C 36.13062 87.5664 40.3593 89.96037 43.28918 91.4532 C 46.21909 92.94601 51.38751 95.33998 54.90338 96.8328 C 58.41925 98.3256 64.52736 100.71957 68.62921 102.21239 C 72.73108 103.70522 79.77892 106.09918 84.46675 107.592 C 89.15457 109.08481 97.1421 111.47878 102.41592 112.97159 C 107.68973 114.46442 116.61699 116.85837 122.47678 118.3512 C 128.33658 119.84401 138.20352 122.23798 144.64929 123.73079 C 151.09508 125.22362 168.9335 129.1104 168.9335 129.1104 "/>
<symbol id="font_3_1">
<path d="M .305 .31300003 C .311 .33900003 .334 .43100003 .404 .43100003 C .409 .43100003 .433 .43100003 .454 .418 C .426 .41300003 .40600003 .388 .40600003 .36400003 C .40600003 .34800003 .417 .32900004 .444 .32900004 C .46600003 .32900004 .498 .34700004 .498 .38700003 C .498 .43900005 .439 .45300005 .405 .45300005 C .347 .45300005 .312 .40000005 .3 .37700004 C .275 .44300003 .221 .45300005 .19200002 .45300005 C .08800001 .45300005 .031000002 .32400004 .031000002 .29900003 C .031000002 .28900004 .041 .28900004 .043000007 .28900004 C .051000008 .28900004 .054000006 .291 .056 .3 C .09 .40600003 .156 .43100003 .19000001 .43100003 C .209 .43100003 .244 .42200003 .244 .36400003 C .244 .33300004 .22700002 .26600004 .19000001 .126 C .17400001 .064 .13900002 .022000002 .095000009 .022000002 C .08900001 .022000002 .06600001 .022000002 .045 .035 C .07000001 .040000004 .09200001 .061 .09200001 .089 C .09200001 .116000007 .07000001 .124000009 .055000009 .124000009 C .025 .124000009 0 .098000008 0 .06600001 C 0 .020000002 .050000006 0 .094000007 0 C .16000001 0 .19600001 .07000001 .19900002 .076000008 C .21100001 .039 .24700003 0 .307 0 C .41 0 .467 .12900001 .467 .15400002 C .467 .16400002 .458 .16400002 .455 .16400002 C .446 .16400002 .444 .16000001 .442 .15300001 C .409 .046 .341 .022000002 .30900003 .022000002 C .27 .022000002 .254 .054 .254 .08800001 C .254 .11000001 .26 .13200002 .271 .17600002 L .305 .31300003 Z "/>
</symbol>
<use xlink:href="#font_3_1" transform="matrix(9.9626,0,0,-9.9626,49.741918,172.54457)" fill="#000080"/>
<symbol id="font_4_7">
<path d="M .63100007 .19400002 C .646 .19400002 .665 .19400002 .665 .214 C .665 .23400001 .646 .23400001 .632 .23400001 L .033 .23400001 C .019000002 .23400001 0 .23400001 0 .214 C 0 .19400002 .019000002 .19400002 .034 .19400002 L .63100007 .19400002 M .632 0 C .646 0 .665 0 .665 .02000001 C .665 .040000008 .646 .040000008 .63100007 .040000008 L .034 .040000008 C .019000002 .040000008 0 .040000008 0 .02000001 C 0 0 .019000002 0 .033 0 L .632 0 Z "/>
</symbol>
<symbol id="font_4_6">
<path d="M .121 .47900004 C .075 .509 .071 .54300007 .071 .56000009 C .071 .62100008 .136 .66300007 .20700002 .66300007 C .28000004 .66300007 .344 .61100009 .344 .53900006 C .344 .48200003 .305 .43400005 .245 .39900003 L .121 .47900004 M .26700003 .38400004 C .33900003 .42100004 .388 .47300006 .388 .53900006 C .388 .63100007 .29900003 .688 .208 .688 C .108 .688 .027000003 .614 .027000003 .521 C .027000003 .503 .029 .45800004 .071 .41100005 C .082 .39900003 .11900001 .37400005 .144 .35700003 C .086 .32800005 0 .272 0 .17300001 C 0 .067 .102000009 0 .20700002 0 C .32000003 0 .41500003 .083000008 .41500003 .19000001 C .41500003 .22600001 .404 .27100004 .36600004 .31300003 C .34700004 .33400003 .33100004 .34400005 .26700003 .38400004 M .167 .34200005 L .29000003 .26400004 C .31800003 .245 .365 .215 .365 .154 C .365 .080000009 .29000003 .028 .208 .028 C .122 .028 .050000006 .09 .050000006 .17300001 C .050000006 .231 .082 .29500003 .167 .34200005 Z "/>
</symbol>
<use xlink:href="#font_4_7" transform="matrix(9.9626,0,0,-9.9626,58.471914,171.10996)" fill="#000080"/>
<use xlink:href="#font_4_6" transform="matrix(9.9626,0,0,-9.9626,68.852939,172.65416)" fill="#000080"/>
<symbol id="font_5_1">
<path d="M .57600006 0 C .59300008 0 .611 0 .611 .019999996 C .611 .040000008 .59300008 .040000008 .57600006 .040000008 L .035000005 .040000008 C .018 .040000008 0 .040000008 0 .019999996 C 0 0 .018 0 .035000005 0 L .57600006 0 Z "/>
</symbol>
<use xlink:href="#font_5_1" transform="matrix(9.9626,0,0,-9.9626,76.4519,170.14359)" fill="#000080"/>
<symbol id="font_3_2">
<path d="M .45700003 .586 C .461 .6 .461 .602 .461 .609 C .461 .62700006 .447 .63600006 .432 .63600006 C .42200003 .63600006 .40600003 .63 .397 .615 C .395 .61 .387 .579 .38300003 .561 C .37600003 .535 .36900003 .508 .363 .48100005 L .318 .301 C .314 .286 .271 .21600002 .20500002 .21600002 C .15400002 .21600002 .143 .26000003 .143 .29700003 C .143 .34300003 .16000001 .40500004 .194 .49300004 C .21000001 .53400006 .21400002 .545 .21400002 .56500008 C .21400002 .61 .18200001 .6470001 .13200002 .6470001 C .037 .6470001 0 .50200006 0 .49300004 C 0 .48300005 .01 .48300005 .012 .48300005 C .022000002 .48300005 .023 .485 .028000003 .50100007 C .055000009 .595 .095000009 .625 .12900001 .625 C .13700001 .625 .15400002 .625 .15400002 .59300008 C .15400002 .568 .14400001 .54200008 .13700001 .523 C .097 .41700004 .079 .36 .079 .31300003 C .079 .224 .142 .194 .201 .194 C .24000003 .194 .274 .21100001 .30200003 .23900002 C .289 .187 .277 .13800001 .237 .08500001 C .21100001 .051 .17300001 .022 .127 .022 C .113000009 .022 .068 .025000006 .051000008 .06400001 C .067 .06400001 .080000009 .06400001 .094000007 .076000008 C .104 .08500001 .11400001 .098000008 .11400001 .117000009 C .11400001 .148 .087000008 .15200001 .07700001 .15200001 C .054000006 .15200001 .021 .136 .021 .087000008 C .021 .037 .065000008 0 .127 0 C .23 0 .333 .091000009 .361 .20400001 L .45700003 .586 Z "/>
</symbol>
<use xlink:href="#font_3_2" transform="matrix(9.9626,0,0,-9.9626,85.876918,174.47731)" fill="#000080"/>
<symbol id="font_6_1">
<path d="M .442 .18200001 L .40800003 .18200001 C .40500004 .16000001 .39500005 .101 .38200004 .091000009 C .374 .085 .29700003 .085 .28300003 .085 L .099 .085 C .20400003 .178 .23900002 .20600002 .29900003 .25300003 C .37300004 .312 .442 .374 .442 .469 C .442 .59000006 .33600004 .66400006 .20800004 .66400006 C .084 .66400006 0 .577 0 .485 C 0 .43400003 .043000007 .42900003 .053000004 .42900003 C .077 .42900003 .10600001 .446 .10600001 .48200003 C .10600001 .5 .099 .535 .047000007 .535 C .078 .606 .146 .628 .19300002 .628 C .293 .628 .34500004 .55 .34500004 .469 C .34500004 .38200004 .28300003 .31300003 .25100003 .277 L .010000005 .039 C 0 .030000002 0 .028 0 0 L .41200004 0 L .442 .18200001 Z "/>
</symbol>
<use xlink:href="#font_6_1" transform="matrix(6.9738,0,0,-6.9738,91.26935,168.32099)" fill="#000080"/>
<use xlink:href="#font_3_1" transform="matrix(9.9626,0,0,-9.9626,125.89292,64.95357)" fill="#800000"/>
<use xlink:href="#font_4_7" transform="matrix(9.9626,0,0,-9.9626,134.62291,63.51895)" fill="#800000"/>
<use xlink:href="#font_3_2" transform="matrix(9.9626,0,0,-9.9626,144.86994,66.886318)" fill="#800000"/>
<use xlink:href="#font_6_1" transform="matrix(6.9738,0,0,-6.9738,150.26238,60.72998)" fill="#800000"/>
</g>
<symbol id="font_4_3">
<path d="M .07700001 .07700001 L .18300002 .18 C .33900003 .31800003 .39900003 .372 .39900003 .47200004 C .39900003 .586 .30900003 .666 .18700002 .666 C .074 .666 0 .574 0 .485 C 0 .42900003 .05 .42900003 .053000008 .42900003 C .07000001 .42900003 .105000007 .441 .105000007 .48200003 C .105000007 .508 .08700001 .53400006 .052000006 .53400006 C .044000005 .53400006 .042000008 .53400006 .039 .53300008 C .062000004 .59800007 .11600001 .63500007 .17400001 .63500007 C .26500003 .63500007 .308 .554 .308 .47200004 C .308 .39200003 .25800003 .31300003 .20300003 .25100003 L .011000004 .037 C 0 .026 0 .024 0 0 L .37100003 0 L .39900003 .17400001 L .374 .17400001 C .36900003 .14400001 .36200003 .1 .352 .085 C .345 .07700001 .279 .07700001 .257 .07700001 L .07700001 .07700001 Z "/>
</symbol>
<use xlink:href="#font_4_3" transform="matrix(9.9626,0,0,-9.9626,53.49013,121.98999)"/>
<symbol id="font_4_4">
<path d="M .266 .165 L .266 .078 C .266 .042000005 .26400004 .031000002 .19000001 .031000002 L .16900002 .031000002 L .16900002 0 C .21000001 .003 .26200003 .003 .30400003 .003 C .34600003 .003 .39900003 .003 .44000004 0 L .44000004 .031000002 L .41900004 .031000002 C .34500004 .031000002 .34300003 .042000005 .34300003 .078 L .34300003 .165 L .44300003 .165 L .44300003 .19600001 L .34300003 .19600001 L .34300003 .651 C .34300003 .671 .34300003 .67700007 .32700003 .67700007 C .31800003 .67700007 .31500004 .67700007 .307 .665 L 0 .19600001 L 0 .165 L .266 .165 M .272 .19600001 L .028 .19600001 L .272 .569 L .272 .19600001 Z "/>
</symbol>
<use xlink:href="#font_4_4" transform="matrix(9.9626,0,0,-9.9626,87.05695,121.98999)"/>
<symbol id="font_4_5">
<path d="M .089999999 .35000003 L .089999999 .37400005 C .089999999 .62700006 .21400002 .66300007 .26500003 .66300007 C .28900004 .66300007 .33100004 .65700009 .35300002 .623 C .33800004 .623 .298 .623 .298 .57800009 C .298 .54700008 .32200004 .53200009 .344 .53200009 C .36 .53200009 .39000003 .54100009 .39000003 .58000007 C .39000003 .64000007 .34600003 .688 .263 .688 C .13499999 .688 0 .559 0 .33800004 C 0 .071 .116000007 0 .20900002 0 C .32000003 0 .41500003 .094000007 .41500003 .22600001 C .41500003 .35300005 .32600004 .44900004 .215 .44900004 C .14700002 .44900004 .11000001 .39800004 .089999999 .35000003 M .20900002 .028 C .146 .028 .116000007 .088 .11000001 .103 C .092 .15 .092 .23 .092 .24800001 C .092 .32600004 .124000009 .42600004 .21400002 .42600004 C .23000002 .42600004 .27600003 .42600004 .307 .36400003 C .32500003 .32700003 .32500003 .27600003 .32500003 .22700002 C .32500003 .179 .32500003 .12900001 .30800004 .093 C .27800004 .033000005 .23200003 .028 .20900002 .028 Z "/>
</symbol>
<use xlink:href="#font_4_5" transform="matrix(9.9626,0,0,-9.9626,120.98343,122.20917)"/>
<use xlink:href="#font_4_6" transform="matrix(9.9626,0,0,-9.9626,154.76943,122.20917)"/>
<symbol id="font_4_2">
<path d="M .205 .64000007 C .205 .66400006 .205 .666 .18200003 .666 C .120000008 .60200008 .032000007 .60200008 0 .60200008 L 0 .57100006 C .020000004 .57100006 .07900001 .57100006 .13100001 .597 L .13100001 .079 C .13100001 .043 .128 .031000002 .038000004 .031000002 L .0060000049 .031000002 L .0060000049 0 C .04100001 .003 .128 .003 .168 .003 C .20800002 .003 .29500003 .003 .33000005 0 L .33000005 .031000002 L .29800005 .031000002 C .20800002 .031000002 .205 .042000005 .205 .079 L .205 .64000007 Z "/>
</symbol>
<symbol id="font_4_1">
<path d="M .421 .34200005 C .421 .42200003 .416 .50200006 .381 .57600006 C .335 .67200008 .25300003 .688 .211 .688 C .15100001 .688 .07800001 .66200008 .037000006 .56900009 C .0050000029 .5 0 .42200003 0 .34200005 C 0 .26700003 .0040000008 .177 .045000007 .101 C .088 .020000002 .161 0 .21000001 0 C .264 0 .34 .021000002 .384 .116000007 C .416 .185 .421 .263 .421 .34200005 M .21000001 .022000002 C .171 .022000002 .112 .047000003 .094 .143 C .083000008 .20300001 .083000008 .29500003 .083000008 .35400004 C .083000008 .41800005 .083000008 .48400004 .091000009 .53800007 C .11 .65700009 .185 .66600009 .21000001 .66600009 C .243 .66600009 .30900003 .64800009 .328 .549 C .338 .49300004 .338 .41700004 .338 .35400004 C .338 .279 .338 .21100001 .32700003 .147 C .312 .052 .255 .022000002 .21000001 .022000002 Z "/>
</symbol>
<use xlink:href="#font_4_2" transform="matrix(9.9626,0,0,-9.9626,186.53366,121.98999)"/>
<use xlink:href="#font_4_1" transform="matrix(9.9626,0,0,-9.9626,191.01682,122.20917)"/>
<use xlink:href="#font_5_1" transform="matrix(9.9626,0,0,-9.9626,4.147896,153.46459)"/>
<use xlink:href="#font_4_3" transform="matrix(9.9626,0,0,-9.9626,11.56713,155.75598)"/>
<use xlink:href="#font_4_3" transform="matrix(9.9626,0,0,-9.9626,11.56713,70.09799)"/>
<use xlink:href="#font_4_4" transform="matrix(9.9626,0,0,-9.9626,11.347953,27.061982)"/>
<use xlink:href="#font_3_1" transform="matrix(9.9626,0,0,-9.9626,202.92691,112.16458)"/>
<use xlink:href="#font_3_2" transform="matrix(9.9626,0,0,-9.9626,19.366915,9.652319)"/>
<path transform="matrix(1,0,0,-1,4.803,174.47899)" stroke-width="1" stroke-linecap="butt" stroke-miterlimit="10" stroke-linejoin="miter" fill="none" stroke="#808080" d="M 50.68004 62.42924 L 50.68004 66.68112 M 84.46675 62.42924 L 84.46675 66.68112 M 118.25345 62.42924 L 118.25345 66.68112 M 152.04015 62.42924 L 152.04015 66.68112 M 185.82685 62.42924 L 185.82685 66.68112 "/>
<path transform="matrix(1,0,0,-1,4.803,174.47899)" stroke-width="1" stroke-linecap="butt" stroke-miterlimit="10" stroke-linejoin="miter" fill="none" stroke="#808080" d="M 14.76714 21.51839 L 19.01953 21.51839 M 14.76714 107.592 L 19.01953 107.592 M 14.76714 150.6288 L 19.01953 150.6288 "/>
<path transform="matrix(1,0,0,-1,4.803,174.47899)" stroke-width="1" stroke-linecap="butt" stroke-miterlimit="10" stroke-linejoin="miter" fill="none" stroke="#000000" d="M 0 64.55519 L 192.281 64.55519 "/>
<path transform="matrix(1,0,0,-1,197.084,109.9238)" d="M 1.99252 0 L -1.19551 1.59401 L 0 0 L -1.19551 -1.59401 "/>
<path transform="matrix(1,0,0,-1,4.803,174.47899)" stroke-width="1" stroke-linecap="butt" stroke-miterlimit="10" stroke-linejoin="miter" fill="none" stroke="#000000" d="M 16.89334 0 L 16.89334 159.39548 "/>
<path transform="matrix(0,-1,-1,-0,21.696339,15.083511)" d="M 1.99252 0 L -1.19551 1.59401 L 0 0 L -1.19551 -1.59401 "/>
</svg>
