<?xml version="1.0" encoding="UTF-8" standalone="no"?>
<!DOCTYPE svg PUBLIC "-//W3C//DTD SVG 1.1//EN" "http://www.w3.org/Graphics/SVG/1.1/DTD/svg11.dtd">
<svg xmlns="http://www.w3.org/2000/svg" xmlns:xlink="http://www.w3.org/1999/xlink" version="1.1" width="207.058pt" height="174.791pt" viewBox="0 0 207.058 174.791">
<clipPath id="cp0">
<path transform="matrix(1,0,0,-1,.199,174.592)" d="M 0 0 L 194.27289 0 L 194.27289 161.39575 L 0 161.39575 Z "/>
</clipPath>
<g clip-path="url(#cp0)">
<path transform="matrix(1,0,0,-1,.199,174.592)" d="M 19.8688 15.48746 L 25.38792 19.56311 L 30.90704 23.63876 L 36.42615 27.71442 L 41.94528 31.79007 L 47.46439 35.86572 L 52.9835 39.94136 L 58.50262 44.01701 L 64.02174 48.09267 L 69.54085 52.16832 L 75.05997 56.24397 L 80.57909 60.31963 L 86.0982 64.39526 L 91.61731 68.47092 L 97.13644 72.54657 L 102.65555 76.62222 L 108.17467 80.69788 L 113.69379 84.77351 L 119.2129 88.84917 L 124.73201 92.92482 L 130.25113 97.00047 L 135.77025 101.07613 L 141.28937 105.15178 L 146.80847 109.22742 L 152.3276 113.30307 L 146.80847 120.94492 L 141.28937 127.56786 L 135.77025 133.17186 L 130.25113 137.75698 L 124.73201 141.32317 L 119.2129 143.87046 L 113.69379 145.39882 L 108.17467 145.90828 L 102.65555 145.39882 L 97.13644 143.87046 L 91.61731 141.32317 L 86.0982 137.75698 L 80.57909 133.17186 L 75.05997 127.56786 L 69.54085 120.94492 L 64.02174 113.30307 L 58.50262 104.6423 L 52.9835 94.96265 L 47.46439 84.26405 L 41.94528 72.54657 L 36.42615 59.81015 L 30.90704 46.05484 L 25.38792 31.28061 L 19.8688 15.48746 Z " fill="#cccce6"/>
</g>
<clipPath id="cp1">
<path transform="matrix(1,0,0,-1,.199,174.592)" d="M 0 0 L 194.27289 0 L 194.27289 161.39575 L 0 161.39575 Z "/>
</clipPath>
<g clip-path="url(#cp1)">
<path transform="matrix(1,0,0,-1,.199,174.592)" stroke-width="1.19553" stroke-linecap="butt" stroke-miterlimit="10" stroke-linejoin="miter" fill="none" stroke="#000080" d="M -112.58997 -82.32813 C -112.58997 -82.32813 -99.29808 -72.5126 -94.19301 -68.7427 C -89.08792 -64.9728 -80.9011 -58.92714 -75.79599 -55.15723 C -70.69089 -51.38731 -62.50409 -45.34167 -57.39899 -41.57176 C -52.29388 -37.80185 -44.1071 -31.75623 -39.002 -27.98631 C -33.89691 -24.21642 -25.7101 -18.17075 -20.605 -14.40085 C -15.4999 -10.63094 -7.31308 -4.5853 -2.208 -.81538 C 2.8971 2.95451 11.08391 9.00017 16.18901 12.77008 C 21.2941 16.54 29.48091 22.58563 34.58601 26.35555 C 39.69112 30.12544 47.87793 36.17111 52.98302 39.94101 C 58.08812 43.71092 66.2749 49.75655 71.38 53.52644 C 76.48509 57.29636 84.6719 63.34201 89.77701 67.11192 C 94.88211 70.88184 103.06892 76.92747 108.17401 80.69739 C 113.27911 84.46729 121.46593 90.51294 126.57103 94.28285 C 131.67612 98.05275 139.86293 104.09842 144.96804 107.86832 C 150.07314 111.63823 158.25992 117.68385 163.365 121.45377 C 168.47011 125.22368 176.65692 131.26934 181.76203 135.03925 C 186.86713 138.80915 195.05393 144.8548 200.15903 148.62471 C 205.26413 152.3946 213.45095 158.44028 218.55605 162.21018 C 223.66114 165.98009 231.84792 172.02571 236.95302 175.79563 C 242.05812 179.56554 250.24494 185.61118 255.35002 189.38109 C 260.4551 193.151 268.64195 199.19666 273.74705 202.96657 C 278.85215 206.73647 287.03895 212.78212 292.14405 216.55202 C 297.24916 220.32193 305.43598 226.36757 310.54106 230.13748 C 315.64616 233.9074 328.93809 243.72296 328.93809 243.72296 "/>
<path transform="matrix(1,0,0,-1,.199,174.592)" stroke-width="1.19553" stroke-linecap="butt" stroke-miterlimit="10" stroke-linejoin="miter" fill="none" stroke="#800000" d="M -112.58997 -669.2218 C -112.58997 -669.2218 -99.29808 -573.5855 -94.19301 -539.02798 C -89.08792 -504.47044 -80.9011 -451.571 -75.79599 -420.155 C -70.69089 -388.739 -62.50409 -340.87767 -57.39899 -312.60328 C -52.29388 -284.3289 -44.1071 -241.50577 -39.002 -216.37299 C -33.89691 -191.24022 -25.7101 -153.45491 -20.605 -131.46367 C -15.4999 -109.47244 -7.31308 -76.72513 -2.208 -57.87547 C 2.8971 -39.02583 11.08391 -11.31656 16.18901 4.39148 C 21.2941 20.09953 29.48091 42.77077 34.58601 55.33723 C 39.69112 67.90369 47.87793 85.5369 52.98302 94.96176 C 58.08812 104.38663 66.2749 116.9818 71.38 123.26508 C 76.48509 129.54837 84.6719 137.10559 89.77701 140.24729 C 94.88211 143.38899 103.06892 145.90818 108.17401 145.90828 C 113.27911 145.90839 121.46593 143.38954 126.57103 140.24806 C 131.67612 137.10659 139.86293 129.54972 144.96804 123.26666 C 150.07314 116.98361 158.25992 104.38878 163.365 94.96414 C 168.47011 85.53949 176.65692 67.90659 181.76203 55.34035 C 186.86713 42.77411 195.05393 20.10316 200.15903 4.39534 C 205.26413 -11.31247 213.45095 -39.02136 218.55605 -57.87074 C 223.66114 -76.72014 231.84792 -109.46698 236.95302 -131.45796 C 242.05812 -153.44895 250.24494 -191.2339 255.35002 -216.36652 C 260.4551 -241.49913 268.64195 -284.3221 273.74705 -312.5963 C 278.85215 -340.87049 287.03895 -388.7314 292.14405 -420.14717 C 297.24916 -451.56294 305.43598 -504.4619 310.54106 -539.0193 C 315.64616 -573.57669 328.93809 -669.2126 328.93809 -669.2126 "/>
<symbol id="font_2_2">
<path d="M .45700003 .586 C .461 .6 .461 .602 .461 .609 C .461 .62700006 .447 .63600006 .432 .63600006 C .42200003 .63600006 .40600003 .63 .397 .615 C .395 .61 .387 .579 .38300003 .561 C .37600003 .535 .36900003 .508 .363 .48100005 L .318 .301 C .314 .286 .271 .21600002 .20500002 .21600002 C .15400002 .21600002 .143 .26000003 .143 .29700003 C .143 .34300003 .16000001 .40500004 .194 .49300004 C .21000001 .53400006 .21400002 .545 .21400002 .56500008 C .21400002 .61 .18200001 .6470001 .13200002 .6470001 C .037 .6470001 0 .50200006 0 .49300004 C 0 .48300005 .01 .48300005 .012 .48300005 C .022000002 .48300005 .023 .485 .028000003 .50100007 C .055000009 .595 .095000009 .625 .12900001 .625 C .13700001 .625 .15400002 .625 .15400002 .59300008 C .15400002 .568 .14400001 .54200008 .13700001 .523 C .097 .41700004 .079 .36 .079 .31300003 C .079 .224 .142 .194 .201 .194 C .24000003 .194 .274 .21100001 .30200003 .23900002 C .289 .187 .277 .13800001 .237 .08500001 C .21100001 .051 .17300001 .022 .127 .022 C .113000009 .022 .068 .025000006 .051000008 .06400001 C .067 .06400001 .080000009 .06400001 .094000007 .076000008 C .104 .08500001 .11400001 .098000008 .11400001 .117000009 C .11400001 .148 .087000008 .15200001 .07700001 .15200001 C .054000006 .15200001 .021 .136 .021 .087000008 C .021 .037 .065000008 0 .127 0 C .23 0 .333 .091000009 .361 .20400001 L .45700003 .586 Z "/>
</symbol>
<use xlink:href="#font_2_2" transform="matrix(9.9626,0,0,-9.9626,125.474918,29.987326)" fill="#800000"/>
<symbol id="font_3_5">
<path d="M .63100007 .19400002 C .646 .19400002 .665 .19400002 .665 .214 C .665 .23400001 .646 .23400001 .632 .23400001 L .033 .23400001 C .019000002 .23400001 0 .23400001 0 .214 C 0 .19400002 .019000002 .19400002 .034 .19400002 L .63100007 .19400002 M .632 0 C .646 0 .665 0 .665 .02000001 C .665 .040000008 .646 .040000008 .63100007 .040000008 L .034 .040000008 C .019000002 .040000008 0 .040000008 0 .02000001 C 0 0 .019000002 0 .033 0 L .632 0 Z "/>
</symbol>
<symbol id="font_3_4">
<path d="M .121 .47900004 C .075 .509 .071 .54300007 .071 .56000009 C .071 .62100008 .136 .66300007 .20700002 .66300007 C .28000004 .66300007 .344 .61100009 .344 .53900006 C .344 .48200003 .305 .43400005 .245 .39900003 L .121 .47900004 M .26700003 .38400004 C .33900003 .42100004 .388 .47300006 .388 .53900006 C .388 .63100007 .29900003 .688 .208 .688 C .108 .688 .027000003 .614 .027000003 .521 C .027000003 .503 .029 .45800004 .071 .41100005 C .082 .39900003 .11900001 .37400005 .144 .35700003 C .086 .32800005 0 .272 0 .17300001 C 0 .067 .102000009 0 .20700002 0 C .32000003 0 .41500003 .083000008 .41500003 .19000001 C .41500003 .22600001 .404 .27100004 .36600004 .31300003 C .34700004 .33400003 .33100004 .34400005 .26700003 .38400004 M .167 .34200005 L .29000003 .26400004 C .31800003 .245 .365 .215 .365 .154 C .365 .080000009 .29000003 .028 .208 .028 C .122 .028 .050000006 .09 .050000006 .17300001 C .050000006 .231 .082 .29500003 .167 .34200005 Z "/>
</symbol>
<use xlink:href="#font_3_5" transform="matrix(9.9626,0,0,-9.9626,133.7539,26.619967)" fill="#800000"/>
<use xlink:href="#font_3_4" transform="matrix(9.9626,0,0,-9.9626,144.13494,28.16417)" fill="#800000"/>
<symbol id="font_4_1">
<path d="M .57600006 0 C .59300008 0 .611 0 .611 .019999996 C .611 .040000008 .59300008 .040000008 .57600006 .040000008 L .035000005 .040000008 C .018 .040000008 0 .040000008 0 .019999996 C 0 0 .018 0 .035000005 0 L .57600006 0 Z "/>
</symbol>
<use xlink:href="#font_4_1" transform="matrix(9.9626,0,0,-9.9626,151.73389,25.653595)" fill="#800000"/>
<symbol id="font_2_1">
<path d="M .305 .31300003 C .311 .33900003 .334 .43100003 .404 .43100003 C .409 .43100003 .433 .43100003 .454 .418 C .426 .41300003 .40600003 .388 .40600003 .36400003 C .40600003 .34800003 .417 .32900004 .444 .32900004 C .46600003 .32900004 .498 .34700004 .498 .38700003 C .498 .43900005 .439 .45300005 .405 .45300005 C .347 .45300005 .312 .40000005 .3 .37700004 C .275 .44300003 .221 .45300005 .19200002 .45300005 C .08800001 .45300005 .031000002 .32400004 .031000002 .29900003 C .031000002 .28900004 .041 .28900004 .043000007 .28900004 C .051000008 .28900004 .054000006 .291 .056 .3 C .09 .40600003 .156 .43100003 .19000001 .43100003 C .209 .43100003 .244 .42200003 .244 .36400003 C .244 .33300004 .22700002 .26600004 .19000001 .126 C .17400001 .064 .13900002 .022000002 .095000009 .022000002 C .08900001 .022000002 .06600001 .022000002 .045 .035 C .07000001 .040000004 .09200001 .061 .09200001 .089 C .09200001 .116000007 .07000001 .124000009 .055000009 .124000009 C .025 .124000009 0 .098000008 0 .06600001 C 0 .020000002 .050000006 0 .094000007 0 C .16000001 0 .19600001 .07000001 .19900002 .076000008 C .21100001 .039 .24700003 0 .307 0 C .41 0 .467 .12900001 .467 .15400002 C .467 .16400002 .458 .16400002 .455 .16400002 C .446 .16400002 .444 .16000001 .442 .15300001 C .409 .046 .341 .022000002 .30900003 .022000002 C .27 .022000002 .254 .054 .254 .08800001 C .254 .11000001 .26 .13200002 .271 .17600002 L .305 .31300003 Z "/>
</symbol>
<use xlink:href="#font_2_1" transform="matrix(9.9626,0,0,-9.9626,161.1589,28.05458)" fill="#800000"/>
<symbol id="font_5_1">
<path d="M .442 .18200001 L .40800003 .18200001 C .40500004 .16000001 .39500005 .101 .38200004 .091000009 C .374 .085 .29700003 .085 .28300003 .085 L .099 .085 C .20400003 .178 .23900002 .20600002 .29900003 .25300003 C .37300004 .312 .442 .374 .442 .469 C .442 .59000006 .33600004 .66400006 .20800004 .66400006 C .084 .66400006 0 .577 0 .485 C 0 .43400003 .043000007 .42900003 .053000004 .42900003 C .077 .42900003 .10600001 .446 .10600001 .48200003 C .10600001 .5 .099 .535 .047000007 .535 C .078 .606 .146 .628 .19300002 .628 C .293 .628 .34500004 .55 .34500004 .469 C .34500004 .38200004 .28300003 .31300003 .25100003 .277 L .010000005 .039 C 0 .030000002 0 .028 0 0 L .41200004 0 L .442 .18200001 Z "/>
</symbol>
<use xlink:href="#font_5_1" transform="matrix(6.9738,0,0,-6.9738,167.00334,23.831986)" fill="#800000"/>
<use xlink:href="#font_2_2" transform="matrix(9.9626,0,0,-9.9626,78.60792,127.52334)" fill="#000080"/>
<symbol id="font_3_1">
<path d="M .07700001 .07700001 L .18300002 .18 C .33900003 .31800003 .39900003 .372 .39900003 .47200004 C .39900003 .586 .30900003 .666 .18700002 .666 C .074 .666 0 .574 0 .485 C 0 .42900003 .05 .42900003 .053000008 .42900003 C .07000001 .42900003 .105000007 .441 .105000007 .48200003 C .105000007 .508 .08700001 .53400006 .052000006 .53400006 C .044000005 .53400006 .042000008 .53400006 .039 .53300008 C .062000004 .59800007 .11600001 .63500007 .17400001 .63500007 C .26500003 .63500007 .308 .554 .308 .47200004 C .308 .39200003 .25800003 .31300003 .20300003 .25100003 L .011000004 .037 C 0 .026 0 .024 0 0 L .37100003 0 L .39900003 .17400001 L .374 .17400001 C .36900003 .14400001 .36200003 .1 .352 .085 C .345 .07700001 .279 .07700001 .257 .07700001 L .07700001 .07700001 Z "/>
</symbol>
<use xlink:href="#font_3_5" transform="matrix(9.9626,0,0,-9.9626,86.88591,124.155979)" fill="#000080"/>
<use xlink:href="#font_3_1" transform="matrix(9.9626,0,0,-9.9626,97.346637,125.481)" fill="#000080"/>
<use xlink:href="#font_2_1" transform="matrix(9.9626,0,0,-9.9626,102.11492,125.59059)" fill="#000080"/>
</g>
<use xlink:href="#font_4_1" transform="matrix(9.9626,0,0,-9.9626,14.529896,103.6696)"/>
<symbol id="font_3_2">
<path d="M .266 .165 L .266 .078 C .266 .042000005 .26400004 .031000002 .19000001 .031000002 L .16900002 .031000002 L .16900002 0 C .21000001 .003 .26200003 .003 .30400003 .003 C .34600003 .003 .39900003 .003 .44000004 0 L .44000004 .031000002 L .41900004 .031000002 C .34500004 .031000002 .34300003 .042000005 .34300003 .078 L .34300003 .165 L .44300003 .165 L .44300003 .19600001 L .34300003 .19600001 L .34300003 .651 C .34300003 .671 .34300003 .67700007 .32700003 .67700007 C .31800003 .67700007 .31500004 .67700007 .307 .665 L 0 .19600001 L 0 .165 L .266 .165 M .272 .19600001 L .028 .19600001 L .272 .569 L .272 .19600001 Z "/>
</symbol>
<use xlink:href="#font_3_2" transform="matrix(9.9626,0,0,-9.9626,21.730954,105.961)"/>
<use xlink:href="#font_4_1" transform="matrix(9.9626,0,0,-9.9626,58.681898,103.6696)"/>
<use xlink:href="#font_3_1" transform="matrix(9.9626,0,0,-9.9626,66.10213,105.961)"/>
<use xlink:href="#font_3_1" transform="matrix(9.9626,0,0,-9.9626,150.53214,105.961)"/>
<use xlink:href="#font_4_1" transform="matrix(9.9626,0,0,-9.9626,90.82389,135.1546)"/>
<symbol id="font_3_3">
<path d="M .39900003 .223 C .39900003 .34200005 .317 .44200004 .209 .44200004 C .16100002 .44200004 .118000019 .42600004 .082 .39100004 L .082 .586 C .10200001 .58000007 .135 .573 .16700001 .573 C .29 .573 .36 .66400006 .36 .67700007 C .36 .683 .357 .688 .35 .688 C .349 .688 .347 .688 .342 .68500009 C .322 .67600008 .273 .656 .20600002 .656 C .16600001 .656 .120000008 .66300007 .073 .6840001 C .065 .68700006 .06300001 .68700006 .061000009 .68700006 C .051000004 .68700006 .051000004 .679 .051000004 .66300007 L .051000004 .36700005 C .051000004 .34900005 .051000004 .34100003 .065 .34100003 C .07200001 .34100003 .074 .34400005 .07800001 .35000003 C .08900002 .36600004 .12600002 .42000006 .207 .42000006 C .259 .42000006 .284 .37400005 .292 .35600005 C .308 .31900005 .31 .28000004 .31 .23 C .31 .19500001 .31 .135 .286 .093 C .262 .054000006 .22500001 .028 .17900002 .028 C .106000009 .028 .049000008 .08100001 .032 .14000002 C .035 .13900002 .038000008 .13800001 .049000008 .13800001 C .082 .13800001 .09900001 .163 .09900001 .187 C .09900001 .21100001 .082 .23600002 .049000008 .23600002 C .035 .23600002 0 .22900002 0 .18300002 C 0 .097 .069000009 0 .18100001 0 C .297 0 .39900003 .096 .39900003 .223 Z "/>
</symbol>
<use xlink:href="#font_3_3" transform="matrix(9.9626,0,0,-9.9626,98.243129,137.66518)"/>
<use xlink:href="#font_3_3" transform="matrix(9.9626,0,0,-9.9626,98.243129,56.568178)"/>
<use xlink:href="#font_2_1" transform="matrix(9.9626,0,0,-9.9626,198.33292,96.01958)"/>
<use xlink:href="#font_2_2" transform="matrix(9.9626,0,0,-9.9626,106.08292,9.652334)"/>
<path transform="matrix(1,0,0,-1,.199,174.592)" stroke-width="1" stroke-linecap="butt" stroke-miterlimit="10" stroke-linejoin="miter" fill="none" stroke="#808080" d="M 19.8688 78.57193 L 19.8688 82.82379 M 64.02174 78.57193 L 64.02174 82.82379 M 152.3276 78.57193 L 152.3276 82.82379 "/>
<path transform="matrix(1,0,0,-1,.199,174.592)" stroke-width="1" stroke-linecap="butt" stroke-miterlimit="10" stroke-linejoin="miter" fill="none" stroke="#808080" d="M 106.04865 39.94136 L 110.30069 39.94136 M 106.04865 121.45438 L 110.30069 121.45438 "/>
<path transform="matrix(1,0,0,-1,.199,174.592)" stroke-width="1" stroke-linecap="butt" stroke-miterlimit="10" stroke-linejoin="miter" fill="none" stroke="#000000" d="M 0 80.69788 L 192.28037 80.69788 "/>
<path transform="matrix(1,0,0,-1,192.47937,93.89411)" d="M 1.99252 0 L -1.19551 1.59401 L 0 0 L -1.19551 -1.59401 "/>
<path transform="matrix(1,0,0,-1,.199,174.592)" stroke-width="1" stroke-linecap="butt" stroke-miterlimit="10" stroke-linejoin="miter" fill="none" stroke="#000000" d="M 108.17467 0 L 108.17467 159.40323 "/>
<path transform="matrix(0,-1,-1,-0,108.373668,15.1887669)" d="M 1.99252 0 L -1.19551 1.59401 L 0 0 L -1.19551 -1.59401 "/>
</svg>
