<?xml version="1.0" encoding="UTF-8" standalone="no"?>
<!DOCTYPE svg PUBLIC "-//W3C//DTD SVG 1.1//EN" "http://www.w3.org/Graphics/SVG/1.1/DTD/svg11.dtd">
<svg xmlns="http://www.w3.org/2000/svg" xmlns:xlink="http://www.w3.org/1999/xlink" version="1.1" width="207.035pt" height="174.671pt" viewBox="0 0 207.035 174.671">
<clipPath id="cp0">
<path transform="matrix(1,0,0,-1,.199,174.472)" d="M 0 0 L 194.26912 0 L 194.26912 161.3842 L 0 161.3842 Z "/>
</clipPath>
<g clip-path="url(#cp0)">
<path transform="matrix(1,0,0,-1,.199,174.472)" d="M 41.62909 80.6921 L 46.25452 70.38148 L 50.87994 60.96747 L 55.5054 52.44992 L 60.13083 44.82904 L 64.75626 38.10472 L 69.3817 32.27696 L 74.00713 27.34578 L 78.63255 23.31116 L 83.25801 20.17311 L 87.88344 17.93164 L 92.50888 16.58673 L 97.13431 16.13841 L 101.75975 16.58664 L 106.3852 17.93146 L 111.01064 20.17285 L 115.63606 23.31079 L 120.2615 27.34532 L 124.88693 32.27644 L 129.51238 38.1041 L 134.13782 44.82831 L 138.76325 52.44919 L 143.38869 60.96655 L 148.01412 70.3805 L 152.63954 80.691 L 152.63954 80.69318 L 148.01412 91.00368 L 143.38869 100.41762 L 138.76325 108.93498 L 134.13782 116.55588 L 129.51238 123.28008 L 124.88693 129.10773 L 120.2615 134.03885 L 115.63606 138.07338 L 111.01064 141.21132 L 106.3852 143.45272 L 101.75975 144.79753 L 97.13431 145.24578 L 92.50888 144.79744 L 87.88344 143.45253 L 83.25801 141.21106 L 78.63255 138.07302 L 74.00713 134.03839 L 69.3817 129.10721 L 64.75626 123.27945 L 60.13083 116.55513 L 55.5054 108.93425 L 50.87994 100.4167 L 46.25452 91.00269 L 41.62909 80.6921 Z " fill="#cccce6"/>
</g>
<clipPath id="cp1">
<path transform="matrix(1,0,0,-1,.199,174.472)" d="M 0 0 L 194.26912 0 L 194.26912 161.3842 L 0 161.3842 Z "/>
</clipPath>
<g clip-path="url(#cp1)">
<path transform="matrix(1,0,0,-1,.199,174.472)" stroke-width="1.19553" stroke-linecap="butt" stroke-miterlimit="10" stroke-linejoin="miter" fill="none" stroke="#000080" d="M 13.87636 161.3842 C 13.87636 161.3842 18.88922 144.34294 20.81454 138.18521 C 22.73985 132.02748 25.82741 122.60147 27.75273 117.00354 C 29.67804 111.40561 32.7656 102.8773 34.6909 97.83917 C 36.61623 92.80103 39.70378 85.17044 41.62909 80.6921 C 43.55441 76.21375 46.64195 69.48088 48.56728 65.56233 C 50.49258 61.64377 53.58014 55.80861 55.50546 52.44986 C 57.43077 49.09111 60.51833 44.15366 62.44363 41.35469 C 64.36896 38.55574 67.45651 34.516 69.38182 32.27684 C 71.30714 30.03766 74.39468 26.89565 76.32 25.21628 C 78.24532 23.5369 81.33287 21.2926 83.2582 20.17302 C 85.1835 19.05344 88.27106 17.70685 90.19637 17.14706 C 92.12169 16.58728 95.20924 16.13841 97.13455 16.13841 C 99.05988 16.13841 102.14742 16.58728 104.07274 17.14706 C 105.99805 17.70685 109.0856 19.05344 111.01093 20.17302 C 112.93623 21.2926 116.02379 23.5369 117.9491 25.21628 C 119.87442 26.89565 122.96198 30.03766 124.88728 32.27684 C 126.8126 34.516 129.90015 38.55574 131.82547 41.35469 C 133.75078 44.15366 136.83834 49.09111 138.76366 52.44986 C 140.68897 55.80861 143.77652 61.64377 145.70183 65.56233 C 147.62715 69.48088 150.7147 76.21375 152.64002 80.6921 C 154.56534 85.17044 157.65288 92.80103 159.5782 97.83917 C 161.50351 102.8773 164.59107 111.40561 166.51639 117.00354 C 168.4417 122.60147 171.52925 132.02748 173.45456 138.18521 C 175.37989 144.34294 180.39275 161.3842 180.39275 161.3842 "/>
<path transform="matrix(1,0,0,-1,.199,174.472)" stroke-width="1.19553" stroke-linecap="butt" stroke-miterlimit="10" stroke-linejoin="miter" fill="none" stroke="#800000" d="M 13.87636 0 C 13.87636 0 18.88922 17.04124 20.81454 23.19897 C 22.73985 29.3567 25.82741 38.78271 27.75273 44.38065 C 29.67804 49.97858 32.7656 58.50688 34.6909 63.54503 C 36.61623 68.58316 39.70378 76.21375 41.62909 80.6921 C 43.55441 85.17044 46.64195 91.9033 48.56728 95.82187 C 50.49258 99.74042 53.58014 105.57558 55.50546 108.93433 C 57.43077 112.29309 60.51833 117.23053 62.44363 120.0295 C 64.36896 122.82845 67.45651 126.86818 69.38182 129.10736 C 71.30714 131.34653 74.39468 134.48854 76.32 136.16791 C 78.24532 137.84729 81.33287 140.09159 83.2582 141.21117 C 85.1835 142.33075 88.27106 143.67734 90.19637 144.23712 C 92.12169 144.7969 95.20924 145.24578 97.13455 145.24578 C 99.05988 145.24578 102.14742 144.7969 104.07274 144.23712 C 105.99805 143.67734 109.0856 142.33075 111.01093 141.21117 C 112.93623 140.09159 116.02379 137.84729 117.9491 136.16791 C 119.87442 134.48854 122.96198 131.34653 124.88728 129.10736 C 126.8126 126.86818 129.90015 122.82845 131.82547 120.0295 C 133.75078 117.23053 136.83834 112.29309 138.76366 108.93433 C 140.68897 105.57558 143.77652 99.74042 145.70183 95.82187 C 147.62715 91.9033 150.7147 85.17044 152.64002 80.6921 C 154.56534 76.21375 157.65288 68.58316 159.5782 63.54503 C 161.50351 58.50688 164.59107 49.97858 166.51639 44.38065 C 168.4417 38.78271 171.52925 29.3567 173.45456 23.19897 C 175.37989 17.04124 180.39275 0 180.39275 0 "/>
<symbol id="font_2_3">
<path d="M .45700003 .586 C .461 .6 .461 .602 .461 .609 C .461 .62700006 .447 .63600006 .432 .63600006 C .42200003 .63600006 .40600003 .63 .397 .615 C .395 .61 .387 .579 .38300003 .561 C .37600003 .535 .36900003 .508 .363 .48100005 L .318 .301 C .314 .286 .271 .21600002 .20500002 .21600002 C .15400002 .21600002 .143 .26000003 .143 .29700003 C .143 .34300003 .16000001 .40500004 .194 .49300004 C .21000001 .53400006 .21400002 .545 .21400002 .56500008 C .21400002 .61 .18200001 .6470001 .13200002 .6470001 C .037 .6470001 0 .50200006 0 .49300004 C 0 .48300005 .01 .48300005 .012 .48300005 C .022000002 .48300005 .023 .485 .028000003 .50100007 C .055000009 .595 .095000009 .625 .12900001 .625 C .13700001 .625 .15400002 .625 .15400002 .59300008 C .15400002 .568 .14400001 .54200008 .13700001 .523 C .097 .41700004 .079 .36 .079 .31300003 C .079 .224 .142 .194 .201 .194 C .24000003 .194 .274 .21100001 .30200003 .23900002 C .289 .187 .277 .13800001 .237 .08500001 C .21100001 .051 .17300001 .022 .127 .022 C .113000009 .022 .068 .025000006 .051000008 .06400001 C .067 .06400001 .080000009 .06400001 .094000007 .076000008 C .104 .08500001 .11400001 .098000008 .11400001 .117000009 C .11400001 .148 .087000008 .15200001 .07700001 .15200001 C .054000006 .15200001 .021 .136 .021 .087000008 C .021 .037 .065000008 0 .127 0 C .23 0 .333 .091000009 .361 .20400001 L .45700003 .586 Z "/>
</symbol>
<use xlink:href="#font_2_3" transform="matrix(9.9626,0,0,-9.9626,34.710916,147.57334)" fill="#000080"/>
<symbol id="font_3_7">
<path d="M .63100007 .19400002 C .646 .19400002 .665 .19400002 .665 .214 C .665 .23400001 .646 .23400001 .632 .23400001 L .033 .23400001 C .019000002 .23400001 0 .23400001 0 .214 C 0 .19400002 .019000002 .19400002 .034 .19400002 L .63100007 .19400002 M .632 0 C .646 0 .665 0 .665 .02000001 C .665 .040000008 .646 .040000008 .63100007 .040000008 L .034 .040000008 C .019000002 .040000008 0 .040000008 0 .02000001 C 0 0 .019000002 0 .033 0 L .632 0 Z "/>
</symbol>
<use xlink:href="#font_3_7" transform="matrix(9.9626,0,0,-9.9626,42.988908,144.20598)" fill="#000080"/>
<symbol id="font_2_2">
<path d="M .305 .31300003 C .311 .33900003 .334 .43100003 .404 .43100003 C .409 .43100003 .433 .43100003 .454 .418 C .426 .41300003 .40600003 .388 .40600003 .36400003 C .40600003 .34800003 .417 .32900004 .444 .32900004 C .46600003 .32900004 .498 .34700004 .498 .38700003 C .498 .43900005 .439 .45300005 .405 .45300005 C .347 .45300005 .312 .40000005 .3 .37700004 C .275 .44300003 .221 .45300005 .19200002 .45300005 C .08800001 .45300005 .031000002 .32400004 .031000002 .29900003 C .031000002 .28900004 .041 .28900004 .043000007 .28900004 C .051000008 .28900004 .054000006 .291 .056 .3 C .09 .40600003 .156 .43100003 .19000001 .43100003 C .209 .43100003 .244 .42200003 .244 .36400003 C .244 .33300004 .22700002 .26600004 .19000001 .126 C .17400001 .064 .13900002 .022000002 .095000009 .022000002 C .08900001 .022000002 .06600001 .022000002 .045 .035 C .07000001 .040000004 .09200001 .061 .09200001 .089 C .09200001 .116000007 .07000001 .124000009 .055000009 .124000009 C .025 .124000009 0 .098000008 0 .06600001 C 0 .020000002 .050000006 0 .094000007 0 C .16000001 0 .19600001 .07000001 .19900002 .076000008 C .21100001 .039 .24700003 0 .307 0 C .41 0 .467 .12900001 .467 .15400002 C .467 .16400002 .458 .16400002 .455 .16400002 C .446 .16400002 .444 .16000001 .442 .15300001 C .409 .046 .341 .022000002 .30900003 .022000002 C .27 .022000002 .254 .054 .254 .08800001 C .254 .11000001 .26 .13200002 .271 .17600002 L .305 .31300003 Z "/>
</symbol>
<use xlink:href="#font_2_2" transform="matrix(9.9626,0,0,-9.9626,53.235914,145.6406)" fill="#000080"/>
<symbol id="font_4_1">
<path d="M .442 .18200001 L .40800003 .18200001 C .40500004 .16000001 .39500005 .101 .38200004 .091000009 C .374 .085 .29700003 .085 .28300003 .085 L .099 .085 C .20400003 .178 .23900002 .20600002 .29900003 .25300003 C .37300004 .312 .442 .374 .442 .469 C .442 .59000006 .33600004 .66400006 .20800004 .66400006 C .084 .66400006 0 .577 0 .485 C 0 .43400003 .043000007 .42900003 .053000004 .42900003 C .077 .42900003 .10600001 .446 .10600001 .48200003 C .10600001 .5 .099 .535 .047000007 .535 C .078 .606 .146 .628 .19300002 .628 C .293 .628 .34500004 .55 .34500004 .469 C .34500004 .38200004 .28300003 .31300003 .25100003 .277 L .010000005 .039 C 0 .030000002 0 .028 0 0 L .41200004 0 L .442 .18200001 Z "/>
</symbol>
<use xlink:href="#font_4_1" transform="matrix(6.9738,0,0,-6.9738,59.08035,141.417)" fill="#000080"/>
<use xlink:href="#font_2_3" transform="matrix(9.9626,0,0,-9.9626,123.264919,34.605337)" fill="#800000"/>
<symbol id="font_3_6">
<path d="M .121 .47900004 C .075 .509 .071 .54300007 .071 .56000009 C .071 .62100008 .136 .66300007 .20700002 .66300007 C .28000004 .66300007 .344 .61100009 .344 .53900006 C .344 .48200003 .305 .43400005 .245 .39900003 L .121 .47900004 M .26700003 .38400004 C .33900003 .42100004 .388 .47300006 .388 .53900006 C .388 .63100007 .29900003 .688 .208 .688 C .108 .688 .027000003 .614 .027000003 .521 C .027000003 .503 .029 .45800004 .071 .41100005 C .082 .39900003 .11900001 .37400005 .144 .35700003 C .086 .32800005 0 .272 0 .17300001 C 0 .067 .102000009 0 .20700002 0 C .32000003 0 .41500003 .083000008 .41500003 .19000001 C .41500003 .22600001 .404 .27100004 .36600004 .31300003 C .34700004 .33400003 .33100004 .34400005 .26700003 .38400004 M .167 .34200005 L .29000003 .26400004 C .31800003 .245 .365 .215 .365 .154 C .365 .080000009 .29000003 .028 .208 .028 C .122 .028 .050000006 .09 .050000006 .17300001 C .050000006 .231 .082 .29500003 .167 .34200005 Z "/>
</symbol>
<use xlink:href="#font_3_7" transform="matrix(9.9626,0,0,-9.9626,131.54291,31.237978)" fill="#800000"/>
<use xlink:href="#font_3_6" transform="matrix(9.9626,0,0,-9.9626,141.92394,32.78218)" fill="#800000"/>
<symbol id="font_5_1">
<path d="M .57600006 0 C .59300008 0 .611 0 .611 .019999996 C .611 .040000008 .59300008 .040000008 .57600006 .040000008 L .035000005 .040000008 C .018 .040000008 0 .040000008 0 .019999996 C 0 0 .018 0 .035000005 0 L .57600006 0 Z "/>
</symbol>
<use xlink:href="#font_5_1" transform="matrix(9.9626,0,0,-9.9626,149.5239,30.271607)" fill="#800000"/>
<use xlink:href="#font_2_2" transform="matrix(9.9626,0,0,-9.9626,158.94792,32.672594)" fill="#800000"/>
<use xlink:href="#font_4_1" transform="matrix(6.9738,0,0,-6.9738,164.79236,28.449997)" fill="#800000"/>
<path transform="matrix(1,0,0,-1,.199,174.472)" d="M 122.11201 36.31143 L 127.66255 36.31143 L 127.66255 124.26582 L 122.11201 124.26582 L 122.11201 36.31143 " fill="#bfbfbf"/>
<path transform="matrix(1,0,0,-1,.199,174.472)" stroke-width="1" stroke-linecap="butt" stroke-miterlimit="10" stroke-linejoin="miter" fill="none" stroke="#000080" d="M 122.11201 36.31143 L 127.66255 36.31143 L 127.66255 124.26582 L 122.11201 124.26582 L 122.11201 36.31143 "/>
<path transform="matrix(1,0,0,-1,.199,174.472)" stroke-width="1" stroke-linecap="butt" stroke-miterlimit="10" stroke-linejoin="miter" fill="none" stroke="#000000" d="M 119.21802 36.31143 C 118.47081 36.68503 117.97267 37.55678 117.97267 38.80212 L 117.97267 77.79794 C 117.97267 79.04329 117.47455 79.91504 116.72733 80.28864 C 117.47455 80.66222 117.97267 81.53398 117.97267 82.77933 L 117.97267 121.77513 C 117.97267 123.02048 118.47081 123.89224 119.21802 124.26582 "/>
<symbol id="font_2_1">
<path d="M .33900006 .38500003 C .311 .38400004 .291 .36200003 .291 .34000004 C .291 .32600004 .3 .31100003 .32200004 .31100003 C .34400005 .31100003 .36800004 .328 .36800004 .367 C .36800004 .41200004 .325 .45300005 .24900003 .45300005 C .11700001 .45300005 .08 .351 .08 .307 C .08 .22900002 .15400002 .21400002 .18300002 .20800002 C .235 .19800002 .287 .18700002 .287 .13200002 C .287 .106000009 .264 .022000002 .14400001 .022000002 C .13000001 .022000002 .053000004 .022000002 .030000002 .075 C .068 .07000001 .09300001 .1 .09300001 .128 C .09300001 .15100001 .07700001 .16300002 .056 .16300002 C .030000002 .16300002 0 .14200002 0 .097 C 0 .040000004 .057000005 0 .143 0 C .305 0 .34400005 .12100001 .34400005 .16600001 C .34400005 .20200002 .325 .22700002 .31300003 .23900002 C .286 .26700003 .25700004 .272 .21300002 .28100003 C .17700002 .28900004 .13700001 .29600004 .13700001 .34100003 C .13700001 .37000004 .16100002 .43100003 .24900003 .43100003 C .274 .43100003 .324 .42400003 .33900006 .38500003 Z "/>
</symbol>
<use xlink:href="#font_2_1" transform="matrix(9.9626,0,0,-9.9626,109.08706,96.03459)"/>
</g>
<use xlink:href="#font_5_1" transform="matrix(9.9626,0,0,-9.9626,8.536896,168.1086)"/>
<symbol id="font_3_3">
<path d="M .24800003 .37400005 C .33 .40100003 .388 .47100006 .388 .55 C .388 .632 .3 .688 .204 .688 C .10300001 .688 .027000003 .628 .027000003 .55200007 C .027000003 .519 .049000004 .5 .078 .5 C .109000008 .5 .12900001 .522 .12900001 .55100008 C .12900001 .6010001 .082 .6010001 .067 .6010001 C .098 .65000006 .164 .66300007 .20000002 .66300007 C .24100003 .66300007 .29600004 .64100006 .29600004 .55100008 C .29600004 .53900006 .29400004 .48100005 .268 .43700005 C .238 .38900004 .204 .38600005 .17900002 .38500003 C .171 .38400004 .14700002 .38200004 .14000002 .38200004 C .132 .38100005 .125 .38000003 .125 .37000004 C .125 .35900004 .132 .35900004 .14900002 .35900004 L .19300002 .35900004 C .275 .35900004 .312 .29100005 .312 .193 C .312 .057000005 .24300003 .028 .199 .028 C .15600002 .028 .081 .045 .046000005 .104 C .081 .09900001 .11200001 .12100001 .11200001 .15900001 C .11200001 .19500001 .085 .215 .056 .215 C .031999999 .215 0 .201 0 .157 C 0 .06600001 .093 0 .20200002 0 C .32400004 0 .41500003 .091000009 .41500003 .193 C .41500003 .27500005 .35200004 .35300005 .24800003 .37400005 Z "/>
</symbol>
<use xlink:href="#font_3_3" transform="matrix(9.9626,0,0,-9.9626,15.877429,170.61917)"/>
<use xlink:href="#font_5_1" transform="matrix(9.9626,0,0,-9.9626,36.289899,168.1086)"/>
<symbol id="font_3_2">
<path d="M .07700001 .07700001 L .18300002 .18 C .33900003 .31800003 .39900003 .372 .39900003 .47200004 C .39900003 .586 .30900003 .666 .18700002 .666 C .074 .666 0 .574 0 .485 C 0 .42900003 .05 .42900003 .053000008 .42900003 C .07000001 .42900003 .105000007 .441 .105000007 .48200003 C .105000007 .508 .08700001 .53400006 .052000006 .53400006 C .044000005 .53400006 .042000008 .53400006 .039 .53300008 C .062000004 .59800007 .11600001 .63500007 .17400001 .63500007 C .26500003 .63500007 .308 .554 .308 .47200004 C .308 .39200003 .25800003 .31300003 .20300003 .25100003 L .011000004 .037 C 0 .026 0 .024 0 0 L .37100003 0 L .39900003 .17400001 L .374 .17400001 C .36900003 .14400001 .36200003 .1 .352 .085 C .345 .07700001 .279 .07700001 .257 .07700001 L .07700001 .07700001 Z "/>
</symbol>
<use xlink:href="#font_3_2" transform="matrix(9.9626,0,0,-9.9626,43.710134,170.4)"/>
<use xlink:href="#font_5_1" transform="matrix(9.9626,0,0,-9.9626,64.04189,168.1086)"/>
<symbol id="font_3_1">
<path d="M .205 .64000007 C .205 .66400006 .205 .666 .18200003 .666 C .120000008 .60200008 .032000007 .60200008 0 .60200008 L 0 .57100006 C .020000004 .57100006 .07900001 .57100006 .13100001 .597 L .13100001 .079 C .13100001 .043 .128 .031000002 .038000004 .031000002 L .0060000049 .031000002 L .0060000049 0 C .04100001 .003 .128 .003 .168 .003 C .20800002 .003 .29500003 .003 .33000005 0 L .33000005 .031000002 L .29800005 .031000002 C .20800002 .031000002 .205 .042000005 .205 .079 L .205 .64000007 Z "/>
</symbol>
<use xlink:href="#font_3_1" transform="matrix(9.9626,0,0,-9.9626,71.85067,170.4)"/>
<use xlink:href="#font_3_1" transform="matrix(9.9626,0,0,-9.9626,123.48067,170.4)"/>
<use xlink:href="#font_3_2" transform="matrix(9.9626,0,0,-9.9626,150.84513,170.4)"/>
<use xlink:href="#font_3_3" transform="matrix(9.9626,0,0,-9.9626,178.51743,170.61917)"/>
<use xlink:href="#font_3_2" transform="matrix(9.9626,0,0,-9.9626,87.203128,129.267)"/>
<symbol id="font_3_4">
<path d="M .266 .165 L .266 .078 C .266 .042000005 .26400004 .031000002 .19000001 .031000002 L .16900002 .031000002 L .16900002 0 C .21000001 .003 .26200003 .003 .30400003 .003 C .34600003 .003 .39900003 .003 .44000004 0 L .44000004 .031000002 L .41900004 .031000002 C .34500004 .031000002 .34300003 .042000005 .34300003 .078 L .34300003 .165 L .44300003 .165 L .44300003 .19600001 L .34300003 .19600001 L .34300003 .651 C .34300003 .671 .34300003 .67700007 .32700003 .67700007 C .31800003 .67700007 .31500004 .67700007 .307 .665 L 0 .19600001 L 0 .165 L .266 .165 M .272 .19600001 L .028 .19600001 L .272 .569 L .272 .19600001 Z "/>
</symbol>
<use xlink:href="#font_3_4" transform="matrix(9.9626,0,0,-9.9626,86.98395,96.99099)"/>
<symbol id="font_3_5">
<path d="M .089999999 .35000003 L .089999999 .37400005 C .089999999 .62700006 .21400002 .66300007 .26500003 .66300007 C .28900004 .66300007 .33100004 .65700009 .35300002 .623 C .33800004 .623 .298 .623 .298 .57800009 C .298 .54700008 .32200004 .53200009 .344 .53200009 C .36 .53200009 .39000003 .54100009 .39000003 .58000007 C .39000003 .64000007 .34600003 .688 .263 .688 C .13499999 .688 0 .559 0 .33800004 C 0 .071 .116000007 0 .20900002 0 C .32000003 0 .41500003 .094000007 .41500003 .22600001 C .41500003 .35300005 .32600004 .44900004 .215 .44900004 C .14700002 .44900004 .11000001 .39800004 .089999999 .35000003 M .20900002 .028 C .146 .028 .116000007 .088 .11000001 .103 C .092 .15 .092 .23 .092 .24800001 C .092 .32600004 .124000009 .42600004 .21400002 .42600004 C .23000002 .42600004 .27600003 .42600004 .307 .36400003 C .32500003 .32700003 .32500003 .27600003 .32500003 .22700002 C .32500003 .179 .32500003 .12900001 .30800004 .093 C .27800004 .033000005 .23200003 .028 .20900002 .028 Z "/>
</symbol>
<use xlink:href="#font_3_5" transform="matrix(9.9626,0,0,-9.9626,87.12342,64.934169)"/>
<use xlink:href="#font_3_6" transform="matrix(9.9626,0,0,-9.9626,87.12342,32.65718)"/>
<use xlink:href="#font_2_2" transform="matrix(9.9626,0,0,-9.9626,198.30892,160.58557)"/>
<use xlink:href="#font_2_3" transform="matrix(9.9626,0,0,-9.9626,95.02191,9.652334)"/>
<path transform="matrix(1,0,0,-1,.199,174.472)" stroke-width="1" stroke-linecap="butt" stroke-miterlimit="10" stroke-linejoin="miter" fill="none" stroke="#808080" d="M 13.87636 14.01253 L 13.87636 18.26428 M 41.62909 14.01253 L 41.62909 18.26428 M 69.38182 14.01253 L 69.38182 18.26428 M 124.88728 14.01253 L 124.88728 18.26428 M 152.64002 14.01253 L 152.64002 18.26428 M 180.39275 14.01253 L 180.39275 18.26428 "/>
<path transform="matrix(1,0,0,-1,.199,174.472)" stroke-width="1" stroke-linecap="butt" stroke-miterlimit="10" stroke-linejoin="miter" fill="none" stroke="#808080" d="M 95.00858 48.41525 L 99.26051 48.41525 M 95.00858 80.6921 L 99.26051 80.6921 M 95.00858 112.96893 L 99.26051 112.96893 M 95.00858 145.24578 L 99.26051 145.24578 "/>
<path transform="matrix(1,0,0,-1,.199,174.472)" stroke-width="1" stroke-linecap="butt" stroke-miterlimit="10" stroke-linejoin="miter" fill="none" stroke="#000000" d="M 0 16.13841 L 192.2766 16.13841 "/>
<path transform="matrix(1,0,0,-1,192.4756,158.33359)" d="M 1.99252 0 L -1.19551 1.59401 L 0 0 L -1.19551 -1.59401 "/>
<path transform="matrix(1,0,0,-1,.199,174.472)" stroke-width="1" stroke-linecap="butt" stroke-miterlimit="10" stroke-linejoin="miter" fill="none" stroke="#000000" d="M 97.13455 0 L 97.13455 159.39168 "/>
<path transform="matrix(0,-1,-1,-0,97.33355,15.080322)" d="M 1.99252 0 L -1.19551 1.59401 L 0 0 L -1.19551 -1.59401 "/>
</svg>
