<?xml version="1.0" encoding="UTF-8" standalone="no"?>
<!DOCTYPE svg PUBLIC "-//W3C//DTD SVG 1.1//EN" "http://www.w3.org/Graphics/SVG/1.1/DTD/svg11.dtd">
<svg xmlns="http://www.w3.org/2000/svg" xmlns:xlink="http://www.w3.org/1999/xlink" version="1.1" width="207.18pt" height="174.827pt" viewBox="0 0 207.18 174.827">
<clipPath id="cp0">
<path transform="matrix(1,0,0,-1,.199,174.62799)" d="M 0 0 L 194.27338 0 L 194.27338 161.39028 L 0 161.39028 Z "/>
</clipPath>
<g clip-path="url(#cp0)">
<path transform="matrix(1,0,0,-1,.199,174.62799)" stroke-width="1" stroke-linecap="butt" stroke-miterlimit="10" stroke-linejoin="miter" fill="none" stroke="#000080" d="M 138.7667 76.21207 L 138.7667 85.17819 "/>
<path transform="matrix(1,0,0,-1,.199,174.62799)" stroke-width="1" stroke-linecap="butt" stroke-miterlimit="10" stroke-linejoin="miter" fill="none" stroke="#000080" d="M 122.11469 76.21207 L 122.11469 85.17819 "/>
<path transform="matrix(1,0,0,-1,.199,174.62799)" stroke-width="1" stroke-linecap="butt" stroke-miterlimit="10" stroke-linejoin="miter" fill="none" stroke="#000080" d="M 97.13669 76.21207 L 97.13669 85.17819 "/>
<path transform="matrix(1,0,0,-1,.199,174.62799)" stroke-width="1" stroke-linecap="butt" stroke-miterlimit="10" stroke-linejoin="miter" fill="none" stroke="#000080" d="M 69.38335 76.21207 L 69.38335 85.17819 "/>
<path transform="matrix(1,0,0,-1,.199,174.62799)" stroke-width="1" stroke-linecap="butt" stroke-miterlimit="10" stroke-linejoin="miter" fill="none" stroke="#000080" d="M 48.56834 76.21207 L 48.56834 85.17819 "/>
<path transform="matrix(1,0,0,-1,.199,174.62799)" stroke-width="1" stroke-linecap="butt" stroke-miterlimit="10" stroke-linejoin="miter" fill="none" stroke="#000080" d="M 166.52004 76.21207 L 166.52004 85.17819 "/>
<path transform="matrix(1,0,0,-1,.199,174.62799)" stroke-width="1.59404" stroke-linecap="butt" stroke-miterlimit="10" stroke-linejoin="miter" fill="none" stroke="#000080" d="M 48.56834 80.69513 C 48.56834 80.69513 52.11919 80.69513 53.48297 80.69513 C 54.84676 80.69513 57.03381 80.69513 58.3976 80.69513 C 59.76138 80.69513 61.94849 80.69513 63.31227 80.69513 C 64.67606 80.69513 66.86313 80.69513 68.22691 80.69513 C 69.5907 80.69513 71.77776 80.69513 73.14154 80.69513 C 74.50533 80.69513 76.69241 80.69513 78.0562 80.69513 C 79.41998 80.69513 81.60704 80.69513 82.97083 80.69513 C 84.33461 80.69513 86.5217 80.69513 87.88548 80.69513 C 89.24927 80.69513 91.43636 80.69513 92.80014 80.69513 C 94.16393 80.69513 96.35098 80.69513 97.71477 80.69513 C 99.07855 80.69513 101.26563 80.69513 102.62941 80.69513 C 103.9932 80.69513 106.18027 80.69513 107.54405 80.69513 C 108.90784 80.69513 111.09492 80.69513 112.45871 80.69513 C 113.8225 80.69513 116.00957 80.69513 117.37335 80.69513 C 118.73714 80.69513 120.92421 80.69513 122.288 80.69513 C 123.65178 80.69513 125.83884 80.69513 127.20262 80.69513 C 128.5664 80.69513 130.75348 80.69513 132.11727 80.69513 C 133.48105 80.69513 135.66815 80.69513 137.03194 80.69513 C 138.39572 80.69513 140.58278 80.69513 141.94657 80.69513 C 143.31035 80.69513 145.49742 80.69513 146.8612 80.69513 C 148.22499 80.69513 150.41207 80.69513 151.77585 80.69513 C 153.13964 80.69513 155.3267 80.69513 156.69049 80.69513 C 158.05428 80.69513 160.24137 80.69513 161.60515 80.69513 C 162.96894 80.69513 166.51979 80.69513 166.51979 80.69513 "/>
<path transform="matrix(1,0,0,-1,.199,174.62799)" stroke-width="1" stroke-linecap="butt" stroke-miterlimit="10" stroke-linejoin="miter" fill="none" stroke="#000000" d="M 122.71245 67.24594 L 138.16893 67.24594 "/>
<path transform="matrix(-1,0,0,1,122.7122,107.38205)" stroke-width="1" stroke-linecap="butt" stroke-miterlimit="10" stroke-linejoin="miter" fill="none" stroke="#000000" d="M 0 3.08846 L 0 -3.08846 "/>
<path transform="matrix(1,0,0,-1,138.56719,107.38205)" stroke-width="1" stroke-linecap="butt" stroke-miterlimit="10" stroke-linejoin="miter" fill="none" stroke="#000000" d="M 0 3.08846 L 0 -3.08846 "/>
<symbol id="font_1_1">
<path d="M .39500005 .698 C .38800005 .711 .38600005 .716 .36900003 .716 C .35200004 .716 .35000003 .711 .34300003 .698 L .004999999 .020000002 C 0 .011000001 0 .009000001 0 .008 C 0 0 .006000001 0 .022000004 0 L .716 0 C .73200008 0 .73800006 0 .73800006 .008 C .73800006 .009000001 .73800006 .011000001 .73300006 .020000002 L .39500005 .698 M .337 .61600008 L .60600009 .076000008 L .067 .076000008 L .337 .61600008 Z "/>
</symbol>
<use xlink:href="#font_1_1" transform="matrix(9.9626,0,0,-9.9626,124.10824,119.75299)"/>
<symbol id="font_2_3">
<path d="M .305 .31300003 C .311 .33900003 .334 .43100003 .404 .43100003 C .409 .43100003 .433 .43100003 .454 .418 C .426 .41300003 .40600003 .388 .40600003 .36400003 C .40600003 .34800003 .417 .32900004 .444 .32900004 C .46600003 .32900004 .498 .34700004 .498 .38700003 C .498 .43900005 .439 .45300005 .405 .45300005 C .347 .45300005 .312 .40000005 .3 .37700004 C .275 .44300003 .221 .45300005 .19200002 .45300005 C .08800001 .45300005 .031000002 .32400004 .031000002 .29900003 C .031000002 .28900004 .041 .28900004 .043000007 .28900004 C .051000008 .28900004 .054000006 .291 .056 .3 C .09 .40600003 .156 .43100003 .19000001 .43100003 C .209 .43100003 .244 .42200003 .244 .36400003 C .244 .33300004 .22700002 .26600004 .19000001 .126 C .17400001 .064 .13900002 .022000002 .095000009 .022000002 C .08900001 .022000002 .06600001 .022000002 .045 .035 C .07000001 .040000004 .09200001 .061 .09200001 .089 C .09200001 .116000007 .07000001 .124000009 .055000009 .124000009 C .025 .124000009 0 .098000008 0 .06600001 C 0 .020000002 .050000006 0 .094000007 0 C .16000001 0 .19600001 .07000001 .19900002 .076000008 C .21100001 .039 .24700003 0 .307 0 C .41 0 .467 .12900001 .467 .15400002 C .467 .16400002 .458 .16400002 .455 .16400002 C .446 .16400002 .444 .16000001 .442 .15300001 C .409 .046 .341 .022000002 .30900003 .022000002 C .27 .022000002 .254 .054 .254 .08800001 C .254 .11000001 .26 .13200002 .271 .17600002 L .305 .31300003 Z "/>
</symbol>
<use xlink:href="#font_2_3" transform="matrix(9.9626,0,0,-9.9626,132.23091,119.86258)"/>
<symbol id="font_2_1">
<path d="M .33300004 .38900004 C .31500004 .42600004 .286 .45300005 .24100001 .45300005 C .124 .45300005 0 .30600003 0 .16000001 C 0 .06600001 .055000005 0 .133 0 C .153 0 .20300001 .0040000008 .263 .075 C .27100004 .033000005 .30600003 0 .35400004 0 C .38900004 0 .41200004 .023000002 .42800004 .055000005 C .44500003 .091000009 .45800004 .15200001 .45800004 .15400002 C .45800004 .16400002 .44900004 .16400002 .44600005 .16400002 C .43600003 .16400002 .43500004 .16000001 .43200005 .14600002 C .41500003 .081 .397 .022000002 .35600005 .022000002 C .32900004 .022000002 .32600004 .048 .32600004 .068 C .32600004 .09 .32800005 .098000008 .33900003 .14200002 C .35000003 .18400002 .35200004 .19400002 .36100004 .23200003 L .397 .37200005 C .40400005 .40000005 .40400005 .40200005 .40400005 .40600003 C .40400005 .42300005 .39200003 .43300004 .37500004 .43300004 C .35100005 .43300004 .33600004 .411 .33300004 .38900004 M .26800005 .13000001 C .263 .112 .263 .11000001 .24800001 .093 C .20400001 .038000004 .163 .022000002 .135 .022000002 C .08499999 .022000002 .07100001 .077 .07100001 .116000007 C .07100001 .16600001 .103 .28900004 .126 .335 C .157 .39400003 .202 .43100003 .242 .43100003 C .307 .43100003 .32100005 .34900005 .32100005 .34300003 C .32100005 .337 .31900005 .33100004 .31800003 .32600004 L .26800005 .13000001 Z "/>
</symbol>
<use xlink:href="#font_2_1" transform="matrix(9.9626,0,0,-9.9626,46.532506,105.15359)"/>
<symbol id="font_2_2">
<path d="M .192 .694 C .192 .695 .192 .705 .179 .705 C .156 .705 .083000008 .697 .057 .695 C .049 .694 .038 .693 .038 .675 C .038 .663 .047000003 .663 .062000004 .663 C .11 .663 .112 .656 .112 .646 C .112 .639 .103 .605 .098000008 .584 L .015999999 .25800003 C .0040000008 .20800002 0 .19200002 0 .15700002 C 0 .062000004 .053 0 .127 0 C .24500002 0 .36800004 .14900002 .36800004 .293 C .36800004 .38400004 .31500004 .45300005 .235 .45300005 C .18900001 .45300005 .148 .42400003 .118 .39300005 L .192 .694 M .098000008 .316 C .104 .33800004 .104 .34000004 .113000009 .351 C .162 .41600005 .207 .43100003 .233 .43100003 C .26900003 .43100003 .29600004 .40100003 .29600004 .337 C .29600004 .27800004 .263 .16300002 .24500002 .12500002 C .212 .058000003 .16600001 .022000002 .127 .022000002 C .092999998 .022000002 .060000007 .049000004 .060000007 .123 C .060000007 .14200002 .060000007 .16100002 .076000008 .22400002 L .098000008 .316 Z "/>
</symbol>
<use xlink:href="#font_2_2" transform="matrix(9.9626,0,0,-9.9626,165.04726,106.46858)"/>
</g>
<path transform="matrix(1,0,0,-1,.199,174.62799)" stroke-width="1" stroke-linecap="butt" stroke-miterlimit="10" stroke-linejoin="miter" fill="none" stroke="#000000" d="M 0 80.69513 L 192.28086 80.69513 "/>
<path transform="matrix(1,0,0,-1,192.47986,93.93286)" d="M 1.99252 0 L -1.19551 1.59401 L 0 0 L -1.19551 -1.59401 "/>
<path transform="matrix(1,0,0,-1,.199,174.62799)" stroke-width="1" stroke-linecap="butt" stroke-miterlimit="10" stroke-linejoin="miter" fill="none" stroke="#000000" d="M 27.75333 0 L 27.75333 159.39775 "/>
<path transform="matrix(0,-1,-1,-0,27.95233,15.23024)" d="M 1.99252 0 L -1.19551 1.59401 L 0 0 L -1.19551 -1.59401 "/>
<use xlink:href="#font_2_3" transform="matrix(9.9626,0,0,-9.9626,198.38092,96.17658)"/>
<symbol id="font_2_4">
<path d="M .45700003 .586 C .461 .6 .461 .602 .461 .609 C .461 .62700006 .447 .63600006 .432 .63600006 C .42200003 .63600006 .40600003 .63 .397 .615 C .395 .61 .387 .579 .38300003 .561 C .37600003 .535 .36900003 .508 .363 .48100005 L .318 .301 C .314 .286 .271 .21600002 .20500002 .21600002 C .15400002 .21600002 .143 .26000003 .143 .29700003 C .143 .34300003 .16000001 .40500004 .194 .49300004 C .21000001 .53400006 .21400002 .545 .21400002 .56500008 C .21400002 .61 .18200001 .6470001 .13200002 .6470001 C .037 .6470001 0 .50200006 0 .49300004 C 0 .48300005 .01 .48300005 .012 .48300005 C .022000002 .48300005 .023 .485 .028000003 .50100007 C .055000009 .595 .095000009 .625 .12900001 .625 C .13700001 .625 .15400002 .625 .15400002 .59300008 C .15400002 .568 .14400001 .54200008 .13700001 .523 C .097 .41700004 .079 .36 .079 .31300003 C .079 .224 .142 .194 .201 .194 C .24000003 .194 .274 .21100001 .30200003 .23900002 C .289 .187 .277 .13800001 .237 .08500001 C .21100001 .051 .17300001 .022 .127 .022 C .113000009 .022 .068 .025000006 .051000008 .06400001 C .067 .06400001 .080000009 .06400001 .094000007 .076000008 C .104 .08500001 .11400001 .098000008 .11400001 .117000009 C .11400001 .148 .087000008 .15200001 .07700001 .15200001 C .054000006 .15200001 .021 .136 .021 .087000008 C .021 .037 .065000008 0 .127 0 C .23 0 .333 .091000009 .361 .20400001 L .45700003 .586 Z "/>
</symbol>
<use xlink:href="#font_2_4" transform="matrix(9.9626,0,0,-9.9626,25.624915,9.725317)"/>
</svg>
