<?xml version="1.0" encoding="UTF-8" standalone="no"?>
<!DOCTYPE svg PUBLIC "-//W3C//DTD SVG 1.1//EN" "http://www.w3.org/Graphics/SVG/1.1/DTD/svg11.dtd">
<svg xmlns="http://www.w3.org/2000/svg" xmlns:xlink="http://www.w3.org/1999/xlink" version="1.1" width="94.941pt" height="61.022pt" viewBox="0 0 94.941 61.022">
<path transform="matrix(1,0,0,-1,38.37,16.807999)" d="M 11.33855 0 C 11.33855 1.56564 6.26218 2.83484 0 2.83484 C -6.26218 2.83484 -11.33855 1.56564 -11.33855 0 C -11.33855 -1.56564 -6.26218 -2.83484 0 -2.83484 C 6.26218 -2.83484 11.33855 -1.56564 11.33855 0 Z M 0 0 " fill="#cccce6"/>
<path transform="matrix(1,0,0,-1,38.37,16.807999)" d="M -11.33855 0 L -11.33855 -28.3468 C -11.33855 -29.91246 -6.26218 -31.18166 0 -31.18166 C 6.26218 -31.18166 11.33855 -29.91246 11.33855 -28.3468 L 11.33855 0 C 11.33855 1.56564 6.26218 2.83484 0 2.83484 C -6.26218 2.83484 -11.33855 1.56564 -11.33855 0 " fill="#cccce6"/>
<path transform="matrix(1,0,0,-1,38.37,16.807999)" stroke-width="1" stroke-linecap="butt" stroke-miterlimit="10" stroke-linejoin="miter" fill="none" stroke="#000000" d="M 11.33855 0 C 11.33855 1.56564 6.26218 2.83484 0 2.83484 C -6.26218 2.83484 -11.33855 1.56564 -11.33855 0 C -11.33855 -1.56564 -6.26218 -2.83484 0 -2.83484 C 6.26218 -2.83484 11.33855 -1.56564 11.33855 0 Z M 0 0 "/>
<path transform="matrix(1,0,0,-1,38.37,16.807999)" stroke-width="1" stroke-linecap="butt" stroke-miterlimit="10" stroke-linejoin="miter" fill="none" stroke="#000000" d="M -11.33855 0 L -11.33855 -28.3468 "/>
<path transform="matrix(1,0,0,-1,38.37,16.807999)" stroke-width="1" stroke-linecap="butt" stroke-miterlimit="10" stroke-linejoin="miter" fill="none" stroke="#000000" d="M -11.33855 -28.3468 C -11.33855 -29.91246 -6.26218 -31.18166 0 -31.18166 C 6.26218 -31.18166 11.33855 -29.91246 11.33855 -28.3468 "/>
<path transform="matrix(1,0,0,-1,38.37,16.807999)" stroke-width="1" stroke-linecap="butt" stroke-dasharray="2.98883,2.98883" stroke-miterlimit="10" stroke-linejoin="miter" fill="none" stroke="#000000" stroke-opacity=".75" d="M -11.33855 -28.3468 C -11.33855 -26.78114 -6.26218 -25.51195 0 -25.51195 C 6.26218 -25.51195 11.33855 -26.78114 11.33855 -28.3468 "/>
<path transform="matrix(1,0,0,-1,38.37,16.807999)" stroke-width="1" stroke-linecap="butt" stroke-miterlimit="10" stroke-linejoin="miter" fill="none" stroke="#000000" d="M 11.33855 -28.3468 L 11.33855 0 "/>
<path transform="matrix(1,0,0,-1,38.37,16.807999)" stroke-width="1" stroke-linecap="butt" stroke-miterlimit="10" stroke-linejoin="miter" fill="none" stroke="#000000" d="M -19.84267 -28.3468 C -20.58987 -27.97322 -21.08801 -27.10146 -21.08801 -25.85611 L -21.08801 -16.6641 C -21.08801 -15.41875 -21.58614 -14.547 -22.33336 -14.1734 C -21.58614 -13.79982 -21.08801 -12.92805 -21.08801 -11.68271 L -21.08801 -2.49069 C -21.08801 -1.24535 -20.58987 -.37358 -19.84267 0 "/>
<symbol id="font_0_4">
<path d="M .25 .35300005 C .342 .35300005 .403 .29600004 .403 .19700001 C .403 .095000009 .34 .041 .25100003 .041 C .24000001 .041 .121 .041 .07 .093 C .11100001 .09900001 .123 .13000001 .123 .154 C .123 .19100002 .095000009 .215 .062 .215 C .030000002 .215 0 .194 0 .15200001 C 0 .048 .11800001 0 .254 0 C .418 0 .52000007 .09900001 .52000007 .19600001 C .52000007 .27800004 .447 .34800003 .333 .37400005 C .45300005 .41300006 .48499999 .48900003 .48499999 .545 C .48499999 .62700006 .38300003 .688 .257 .688 C .134 .688 .034999998 .63600006 .034999998 .54600009 C .034999998 .49900005 .07300001 .48700006 .092 .48700006 C .121 .48700006 .14900002 .508 .14900002 .544 C .14900002 .56700006 .137 .595 .101 .6010001 C .144 .647 .23300001 .65000006 .254 .65000006 C .327 .65000006 .379 .61300006 .379 .545 C .379 .48700006 .34100003 .39600004 .236 .39000006 C .208 .38900004 .204 .38800005 .178 .38700003 C .167 .38600005 .15600002 .38500003 .15600002 .37000004 C .15600002 .35300005 .16600001 .35300005 .18399999 .35300005 L .25 .35300005 Z "/>
</symbol>
<symbol id="font_0_2">
<path d="M .522 .34200005 C .522 .41400004 .522 .688 .261 .688 C 0 .688 0 .41400004 0 .34200005 C 0 .26900003 0 0 .261 0 C .522 0 .522 .26900003 .522 .34200005 M .261 .033000005 C .224 .033000005 .14000002 .046000005 .115 .147 C .101 .201 .1 .272 .1 .35400004 C .1 .42800004 .1 .49700005 .116000007 .554 C .141 .6380001 .21800003 .65500006 .261 .65500006 C .33500005 .65500006 .388 .61700007 .40800003 .54700008 C .42200006 .49600006 .42200006 .41300006 .42200006 .35400004 C .42200006 .286 .42200006 .20500002 .40700004 .14500001 C .381 .048 .30100004 .033000005 .261 .033000005 Z "/>
</symbol>
<use xlink:href="#font_0_4" transform="matrix(4.9813,0,0,-4.9813,3.7925013,32.696588)"/>
<use xlink:href="#font_0_2" transform="matrix(4.9813,0,0,-4.9813,7.1797854,32.696588)"/>
<symbol id="font_1_1">
<path d="M .37500004 .098000008 C .36900003 .076 .35900004 .036000004 .35900004 .030000002 C .35900004 .008 .37500004 0 .39000003 0 C .42400003 0 .43100006 .030000002 .435 .045 C .439 .062000004 .45200003 .112 .458 .134 C .46100004 .14900002 .47100003 .187 .47400005 .202 C .477 .21200001 .49 .262 .49100007 .269 C .49300004 .275 .523 .34100003 .564 .379 C .59400007 .40600003 .629 .423 .669 .423 C .71500006 .423 .726 .388 .726 .35500003 C .726 .296 .679 .17500001 .66200008 .12900001 C .652 .104 .652 .097 .652 .084 C .652 .030000002 .69500008 0 .74100008 0 C .841 0 .88600006 .13700001 .88600006 .15300001 C .88600006 .16600001 .873 .16600001 .86500009 .16600001 C .84700009 .16600001 .846 .16300002 .841 .14500001 C .82400009 .083000008 .78800007 .028 .744 .028 C .73 .028 .71900007 .035 .71900007 .062000004 C .71900007 .084 .72800007 .106 .73600009 .12900001 C .75400009 .17600002 .79600009 .285 .79600009 .34 C .79600009 .418 .74200007 .451 .67300006 .451 C .596 .451 .54300007 .40800003 .50200006 .35500003 C .49300004 .43800003 .425 .451 .379 .451 C .29000003 .451 .23900002 .391 .21600002 .365 C .21000001 .428 .15600002 .451 .117000009 .451 C .07399999 .451 .051999995 .423 .036999994 .398 C .015999996 .365 0 .304 0 .298 C 0 .285 .012999997 .285 .020999998 .285 C .038999998 .285 .04 .286 .047 .314 C .064 .38300003 .083 .423 .114 .423 C .14500001 .423 .14500001 .387 .14500001 .375 C .14500001 .356 .132 .305 .124000009 .27 L .09600001 .16200002 C .093 .14700002 .083 .109000008 .079 .094000007 C .07399999 .072000008 .065000008 .037 .065000008 .030000002 C .065000008 .008 .08100001 0 .09600001 0 C .13 0 .137 .030000002 .141 .045 C .14500001 .062000004 .15799999 .112 .164 .134 C .17900002 .19600001 .194 .25800003 .19700003 .269 C .19700003 .27 .23000002 .34600003 .275 .384 C .289 .395 .323 .423 .37600003 .423 C .42300005 .423 .43300004 .386 .43300004 .354 C .43300004 .331 .426 .304 .42000003 .278 C .41400004 .257 .40100003 .20400001 .39600004 .18200001 L .37500004 .098000008 Z "/>
</symbol>
<use xlink:href="#font_1_1" transform="matrix(4.9813,0,0,-4.9813,10.612351,32.63681)"/>
<path transform="matrix(1,0,0,-1,38.37,16.807999)" stroke-width="1" stroke-linecap="butt" stroke-miterlimit="10" stroke-linejoin="miter" fill="none" stroke="#000000" d="M -12.75595 -28.3468 C -13.50316 -27.97322 -14.0013 -27.10146 -14.0013 -25.85611 L -14.0013 -24.4595 C -14.0013 -23.21416 -14.49942 -22.3424 -15.24664 -21.96881 C -14.49942 -21.59523 -14.0013 -20.72346 -14.0013 -19.47812 L -14.0013 -18.08151 C -14.0013 -16.83617 -13.50316 -15.96442 -12.75595 -15.59082 "/>
<symbol id="font_2_2">
<path d="M .57100006 .57800009 C .575 .59300008 .575 .6 .575 .6010001 C .575 .623 .557 .63600006 .538 .63600006 C .49800004 .63600006 .49 .6010001 .48299999 .574 L .462 .49100004 L .431 .36600004 C .427 .35300002 .422 .33200003 .421 .32600004 C .42000003 .32200004 .366 .22800002 .28100003 .22800002 C .235 .22800002 .19900002 .25 .19900002 .314 C .19900002 .36900003 .22900002 .44200004 .25800003 .51400008 C .263 .526 .27000005 .54200008 .27000005 .559 C .27000005 .60800006 .223 .6470001 .161 .6470001 C .055999996 .6470001 0 .51900008 0 .492 C 0 .47800002 .016000003 .47800002 .020999998 .47800002 C .038000004 .47800002 .039000006 .48300005 .044 .49800004 C .065 .56700006 .112 .61300006 .157 .61300006 C .17600002 .61300006 .18700002 .602 .18700002 .57500007 C .18700002 .55500009 .18100001 .541 .17400001 .523 C .125 .40400005 .11600001 .36800004 .11600001 .328 C .11600001 .21700001 .209 .194 .27600003 .194 C .333 .194 .375 .22200002 .40000005 .24300002 C .38600005 .187 .375 .143 .328 .095000009 C .305 .07200001 .25800003 .03400001 .196 .03400001 C .17800002 .03400001 .141 .037 .118 .058000015 C .163 .069000009 .168 .10800001 .168 .11800001 C .168 .14700002 .14500001 .15900001 .124 .15900001 C .095 .15900001 .061000006 .13500002 .061000006 .08900001 C .061000006 .039000006 .112 0 .196 0 C .31 0 .445 .076000008 .477 .20400001 L .57100006 .57800009 Z "/>
</symbol>
<use xlink:href="#font_2_2" transform="matrix(4.9813,0,0,-4.9813,19.507298,40.244169)"/>
<path transform="matrix(1,0,0,-1,38.37,16.807999)" stroke-width="1" stroke-linecap="butt" stroke-miterlimit="10" stroke-linejoin="miter" fill="none" stroke="#000000" d="M 11.33855 -34.0165 C 10.96495 -34.7637 10.0932 -35.26184 8.84785 -35.26184 L 8.15996 -35.26184 C 6.91461 -35.26184 6.04286 -35.75996 5.66927 -36.50719 C 5.29568 -35.75996 4.42392 -35.26184 3.17857 -35.26184 L 2.49069 -35.26184 C 1.24535 -35.26184 .37358 -34.7637 0 -34.0165 "/>
<path transform="matrix(1,0,0,-1,38.37,16.807999)" stroke-width="1" stroke-linecap="butt" stroke-miterlimit="10" stroke-linejoin="miter" fill="none" stroke="#000000" d="M 11.33855 -28.3468 L 0 -28.3468 "/>
<symbol id="font_0_3">
<path d="M .25500003 .63600006 C .25500003 .666 .252 .666 .21900001 .666 C .148 .60200008 .037 .60200008 .017000005 .60200008 L 0 .60200008 L 0 .558 L .017000005 .558 C .040000008 .558 .105000007 .56100007 .16300002 .586 L .16300002 .086 C .16300002 .055000005 .16300002 .044000005 .056999998 .044000005 L .0069999995 .044000005 L .0069999995 0 C .062000008 .004 .151 .004 .20900002 .004 C .26700003 .004 .356 .004 .411 0 L .411 .044000005 L .361 .044000005 C .25500003 .044000005 .25500003 .055000005 .25500003 .086 L .25500003 .63600006 Z "/>
</symbol>
<use xlink:href="#font_0_3" transform="matrix(4.9813,0,0,-4.9813,38.982328,57.628)"/>
<use xlink:href="#font_0_2" transform="matrix(4.9813,0,0,-4.9813,42.05579,57.737588)"/>
<use xlink:href="#font_1_1" transform="matrix(4.9813,0,0,-4.9813,45.488355,57.67781)"/>
<symbol id="font_0_1">
<path d="M .499 .693 C .48800005 .711 .48100008 .716 .45900006 .716 C .43800003 .716 .43000008 .711 .41900004 .693 L .0069999995 .026 C 0 .015000001 0 .014 0 .011000001 C 0 0 .009000003 0 .025000006 0 L .89300009 0 C .90900006 0 .9180001 0 .9180001 .011000001 C .9180001 .014 .9180001 .015000001 .911 .026 L .499 .693 M .42300005 .615 L .74600008 .091000009 L .09900001 .091000009 L .42300005 .615 Z "/>
</symbol>
<use xlink:href="#font_0_1" transform="matrix(4.9813,0,0,-4.9813,51.180337,33.709)"/>
<use xlink:href="#font_2_2" transform="matrix(4.9813,0,0,-4.9813,56.655298,34.730169)"/>
<path transform="matrix(1,0,0,-1,38.37,16.807999)" stroke-width="1" stroke-linecap="butt" stroke-dasharray="2.98883,2.98883" stroke-miterlimit="10" stroke-linejoin="miter" fill="none" stroke="#000000" d="M -22.67752 11.33855 L 22.67752 11.33855 "/>
<symbol id="font_2_1">
<path d="M .24400002 .667 C .248 .681 .248 .683 .248 .688 C .248 .705 .23300001 .705 .21700001 .704 L .094000007 .695 C .077 .694 .07500001 .693 .07 .689 C .06600001 .684 .063 .672 .063 .666 C .063 .649 .079 .649 .093 .649 C .094000007 .649 .11200001 .649 .127 .647 C .146 .645 .14700002 .642 .14700002 .634 C .14700002 .631 .14700002 .629 .14199999 .611 L .0040000008 .059 C 0 .044 0 .042000005 0 .036000004 C 0 .013000001 .018 0 .037999996 0 C .058000007 0 .080000009 .015000001 .086 .039 C .08900001 .049000004 .093 .063 .108 .127 L .12599999 .19600001 C .141 .256 .141 .25800003 .169 .30100004 C .21000001 .36300005 .269 .41900004 .34800003 .41900004 C .399 .41900004 .41800005 .39000003 .41800005 .34700004 C .41800005 .291 .375 .18400002 .361 .14900002 C .34600003 .113000009 .343 .105000007 .343 .08800001 C .343 .036000004 .393 0 .45200003 0 C .558 0 .61300006 .13000001 .61300006 .15500002 C .61300006 .16900002 .596 .16900002 .592 .16900002 C .57500007 .16900002 .574 .16500002 .568 .14600002 C .551 .091000009 .50600007 .034 .45600004 .034 C .43300004 .034 .426 .05 .426 .072000008 C .426 .092 .43800003 .12100001 .44700004 .14500001 C .458 .17200002 .50200006 .28100003 .50200006 .33400003 C .50200006 .40300004 .45500005 .45300005 .35300002 .45300005 C .254 .45300005 .19600001 .39000003 .16600001 .35700003 L .24400002 .667 Z "/>
</symbol>
<use xlink:href="#font_2_1" transform="matrix(4.9813,0,0,-4.9813,65.18168,6.907791)"/>
<symbol id="font_0_6">
<path d="M .794 .238 C .808 .238 .83300009 .238 .83300009 .266 C .83300009 .294 .804 .294 .78900006 .294 L .044 .294 C .029 .294 0 .294 0 .266 C 0 .238 .026 .238 .039000006 .238 L .794 .238 M .78900006 0 C .804 0 .83300009 0 .83300009 .028000005 C .83300009 .056 .808 .056 .794 .056 L .039000006 .056 C .025000006 .056 0 .056 0 .028000005 C 0 0 .029 0 .044 0 L .78900006 0 Z "/>
</symbol>
<symbol id="font_0_5">
<path d="M .105000007 .573 C .158 .56000009 .203 .56000009 .214 .56000009 C .282 .56000009 .33200003 .58000007 .35800005 .59400007 C .38200004 .60600009 .45 .64900007 .45 .67100009 C .45 .68600007 .439 .688 .436 .688 C .43400003 .688 .43199999 .688 .421 .683 C .38300003 .67 .32100005 .656 .255 .656 C .198 .656 .143 .66600009 .09 .6840001 C .078999999 .688 .07700001 .688 .075 .688 C .061000006 .688 .061000006 .67600008 .061000006 .66 L .061000006 .36000005 C .061000006 .34300003 .061000006 .33000005 .08 .33000005 C .091000009 .33000005 .09200001 .33200003 .100999999 .34300003 C .139 .38700003 .19200002 .40900005 .26 .40900005 C .31800003 .40900005 .35000003 .37500004 .36400003 .35400004 C .38700003 .32000003 .39200003 .27500005 .39200003 .22700002 C .39200003 .185 .388 .12900001 .34900005 .09 C .30400003 .044000005 .24700003 .041 .22500001 .041 C .16000001 .041 .087 .069000009 .055999996 .128 C .098000008 .13100001 .112 .16100002 .112 .184 C .112 .216 .088 .24000001 .055999996 .24000001 C .033999996 .24000001 0 .22700002 0 .18100001 C 0 .083000008 .096 0 .22700002 0 C .376 0 .49800004 .1 .49800004 .224 C .49800004 .33700005 .40100003 .44200004 .26200003 .44200004 C .19900002 .44200004 .148 .42600004 .105000007 .39300005 L .105000007 .573 Z "/>
</symbol>
<use xlink:href="#font_0_6" transform="matrix(4.9813,0,0,-4.9813,71.20618,6.339923)"/>
<use xlink:href="#font_0_4" transform="matrix(4.9813,0,0,-4.9813,78.279628,6.9625856)"/>
<use xlink:href="#font_0_5" transform="matrix(4.9813,0,0,-4.9813,81.726688,6.9625856)"/>
<use xlink:href="#font_1_1" transform="matrix(4.9813,0,0,-4.9813,87.22535,6.9028098)"/>
<path transform="matrix(1,0,0,-1,38.37,16.807999)" stroke-width="1" stroke-linecap="butt" stroke-miterlimit="10" stroke-linejoin="miter" fill="none" stroke="#000000" d="M 11.33855 -34.0165 C 10.96495 -34.7637 10.0932 -35.26184 8.84785 -35.26184 L 8.15996 -35.26184 C 6.91461 -35.26184 6.04286 -35.75996 5.66927 -36.50719 C 5.29568 -35.75996 4.42392 -35.26184 3.17857 -35.26184 L 2.49069 -35.26184 C 1.24535 -35.26184 .37358 -34.7637 0 -34.0165 "/>
<path transform="matrix(1,0,0,-1,38.37,16.807999)" stroke-width="1" stroke-linecap="butt" stroke-miterlimit="10" stroke-linejoin="miter" fill="none" stroke="#000000" d="M 11.33855 -14.17339 C 11.33855 -12.60774 6.26218 -11.33855 0 -11.33855 C -6.26218 -11.33855 -11.33855 -12.60774 -11.33855 -14.17339 C -11.33855 -15.73904 -6.26218 -17.00824 0 -17.00824 C 6.26218 -17.00824 11.33855 -15.73904 11.33855 -14.17339 Z M 0 -14.17339 "/>
<path transform="matrix(1,0,0,-1,38.37,16.807999)" d="M 11.33855 -14.17339 C 11.33855 -12.60774 6.26218 -11.33855 0 -11.33855 C -6.26218 -11.33855 -11.33855 -12.60774 -11.33855 -14.17339 C -11.33855 -15.73904 -6.26218 -17.00824 0 -17.00824 C 6.26218 -17.00824 11.33855 -15.73904 11.33855 -14.17339 Z M 0 -14.17339 " fill="#000080" fill-opacity=".5"/>
<path transform="matrix(1,0,0,-1,38.37,16.807999)" stroke-width="1" stroke-linecap="butt" stroke-miterlimit="10" stroke-linejoin="miter" fill="none" stroke="#000000" d="M -11.33855 -17.00824 C -11.33855 -18.5739 -6.26218 -19.8431 0 -19.8431 C 6.26218 -19.8431 11.33855 -18.5739 11.33855 -17.00824 L 11.33855 0 C 11.33855 1.56564 6.26218 2.83484 0 2.83484 C -6.26218 2.83484 -11.33855 1.56564 -11.33855 0 "/>
</svg>
