<?xml version="1.0" encoding="UTF-8" standalone="no"?>
<!DOCTYPE svg PUBLIC "-//W3C//DTD SVG 1.1//EN" "http://www.w3.org/Graphics/SVG/1.1/DTD/svg11.dtd">
<svg xmlns="http://www.w3.org/2000/svg" xmlns:xlink="http://www.w3.org/1999/xlink" version="1.1" width="212.818pt" height="175.853pt" viewBox="0 0 212.818 175.853">
<clipPath id="cp0">
<path transform="matrix(1,0,0,-1,5.897,175.65399)" d="M 0 0 L 194.2739 0 L 194.2739 161.39685 L 0 161.39685 Z "/>
</clipPath>
<g clip-path="url(#cp0)">
<path transform="matrix(1,0,0,-1,5.897,175.65399)" d="M 23.54834 49.66064 L 28.45422 59.57591 L 33.36009 68.62828 L 38.26598 76.81871 L 43.17184 84.14717 L 48.07782 90.61275 L 52.98369 96.21733 L 57.88957 100.95898 L 62.79544 104.83871 L 67.70132 107.85649 L 72.6072 110.01135 L 77.51308 111.30525 L 82.41895 111.73622 L 87.32483 111.30525 L 92.2307 110.01231 L 97.13667 107.85649 L 102.04254 104.83871 L 106.94843 100.95898 L 111.8543 96.21733 L 116.76018 90.6137 L 121.66605 84.14813 L 126.57193 76.81964 L 131.4778 68.62923 L 136.38368 59.57684 L 141.28955 49.66159 L 141.28955 49.66064 L 136.38368 49.66064 L 131.4778 49.66064 L 126.57193 49.66064 L 121.66605 49.66064 L 116.76018 49.66064 L 111.8543 49.66064 L 106.94843 49.66064 L 102.04254 49.66064 L 97.13667 49.66064 L 92.2307 49.66064 L 87.32483 49.66064 L 82.41895 49.66064 L 77.51308 49.66064 L 72.6072 49.66064 L 67.70132 49.66064 L 62.79544 49.66064 L 57.88957 49.66064 L 52.98369 49.66064 L 48.07782 49.66064 L 43.17184 49.66064 L 38.26598 49.66064 L 33.36009 49.66064 L 28.45422 49.66064 L 23.54834 49.66064 Z " fill="#cccce6"/>
</g>
<clipPath id="cp1">
<path transform="matrix(1,0,0,-1,5.897,175.65399)" d="M 0 0 L 194.2739 0 L 194.2739 161.39685 L 0 161.39685 Z "/>
</clipPath>
<g clip-path="url(#cp1)">
<path transform="matrix(1,0,0,-1,5.897,175.65399)" stroke-width="1.19553" stroke-linecap="butt" stroke-miterlimit="10" stroke-linejoin="miter" fill="none" stroke="#000080" d="M -565.1604 -7399.4089 C -565.1604 -7399.4089 -556.56808 -7201.2136 -553.26797 -7126.064 C -549.96786 -7050.915 -544.6755 -6931.529 -541.37539 -6857.7858 C -538.07528 -6784.042 -532.78298 -6666.91 -529.4828 -6594.5725 C -526.1827 -6522.235 -520.8904 -6407.358 -517.5902 -6336.426 C -514.2901 -6265.494 -508.9978 -6152.8708 -505.69767 -6083.3449 C -502.39753 -6013.819 -497.10523 -5903.451 -493.80509 -5835.3317 C -490.50495 -5767.2116 -485.21266 -5659.0988 -481.9125 -5592.385 C -478.61238 -5525.6706 -473.32008 -5419.8117 -470.01994 -5354.5036 C -466.7198 -5289.1955 -461.4275 -5185.591 -458.12739 -5121.689 C -454.82728 -5057.7868 -449.53504 -4956.4387 -446.2349 -4893.9426 C -442.93479 -4831.4465 -437.64247 -4732.3518 -434.34233 -4671.2609 C -431.04219 -4610.1706 -425.74989 -4513.3298 -422.44975 -4453.645 C -419.1496 -4393.9606 -413.85734 -4299.375 -410.55717 -4241.0969 C -407.25703 -4182.818 -401.96476 -4090.4866 -398.6646 -4033.6138 C -395.36448 -3976.7413 -390.07218 -3886.6644 -386.77204 -3831.1976 C -383.47193 -3775.731 -378.1796 -3687.9097 -374.87947 -3633.8489 C -371.5793 -3579.788 -366.28703 -3494.2198 -362.9869 -3441.565 C -359.68675 -3388.91 -354.39445 -3305.597 -351.0943 -3254.3482 C -347.7942 -3203.0997 -342.50199 -3122.043 -339.20185 -3072.2003 C -335.90174 -3022.3575 -330.6094 -2943.554 -327.30928 -2895.1168 C -324.00914 -2846.6798 -318.71684 -2770.1304 -315.4167 -2723.0989 C -312.11656 -2676.0677 -306.82426 -2601.773 -303.5241 -2556.1478 C -300.22398 -2510.5223 -294.9317 -2438.4825 -291.63157 -2394.263 C -288.33143 -2350.0438 -283.03913 -2280.2584 -279.73899 -2237.4449 C -276.43885 -2194.6314 -271.14656 -2127.101 -267.8464 -2085.6934 C -264.5463 -2044.2857 -259.25398 -1979.009 -255.95384 -1939.0075 C -252.65372 -1899.0057 -247.3614 -1835.9846 -244.06127 -1797.3889 C -240.76113 -1758.7932 -235.46881 -1698.0259 -232.1687 -1660.836 C -228.86858 -1623.6464 -223.57634 -1565.1347 -220.27622 -1529.3508 C -216.97609 -1493.567 -211.68379 -1437.3093 -208.38365 -1402.9312 C -205.08351 -1368.553 -199.79122 -1314.5493 -196.49109 -1281.577 C -193.19095 -1248.6049 -187.89864 -1196.8566 -184.5985 -1165.2905 C -181.29836 -1133.7244 -176.00608 -1084.2307 -172.70594 -1054.0704 C -169.40579 -1023.9102 -164.1135 -976.67056 -160.81336 -947.9161 C -157.51323 -919.1616 -152.22093 -874.17678 -148.92079 -846.82827 C -145.62065 -819.47976 -140.32836 -776.7496 -137.02823 -750.807 C -133.72809 -724.86447 -128.43579 -684.38906 -125.13565 -659.8523 C -121.83553 -635.31558 -116.54321 -597.094 -113.24307 -573.96328 C -109.94293 -550.83248 -104.65062 -514.86636 -101.35051 -493.14167 C -98.05038 -471.41697 -92.75815 -437.7055 -89.45802 -417.38664 C -86.1579 -397.06776 -80.8656 -365.6103 -77.56546 -346.69725 C -74.26532 -327.78416 -68.97302 -298.5815 -65.67288 -281.0744 C -62.37276 -263.5673 -57.08044 -236.61931 -53.7803 -220.51815 C -50.48016 -204.41698 -45.18787 -179.72364 -41.88774 -165.02843 C -38.5876 -150.33322 -33.2953 -127.89468 -29.99516 -114.60529 C -26.69504 -101.3159 -21.40274 -81.1312 -18.1026 -69.24776 C -14.80246 -57.36432 -9.51016 -39.43521 -6.21004 -28.95773 C -2.9099 -18.48026 2.3824 -2.80501 5.68254 6.26665 C 8.98268 15.3383 14.27496 28.75879 17.5751 36.4245 C 20.87524 44.0902 26.16756 55.25589 29.46768 61.51578 C 32.76779 67.77565 38.06003 76.6875 41.36015 81.54143 C 44.66028 86.39536 49.95259 93.0516 53.25272 96.49959 C 56.55286 99.94756 61.84515 104.3501 65.1453 106.39212 C 68.44542 108.43414 73.73773 110.58107 77.03787 111.21715 C 80.33801 111.85323 85.63031 111.7463 88.93044 110.97656 C 92.23058 110.20683 97.52287 107.84497 100.82301 105.66942 C 104.12315 103.49387 109.41544 98.87816 112.71558 95.29665 C 116.01572 91.71513 121.30801 84.84383 124.60814 79.85637 C 127.90828 74.8689 133.20059 65.74388 136.50074 59.35048 C 139.80088 52.95708 145.09316 41.57643 148.3933 33.77707 C 151.69344 25.9777 156.98575 12.34323 160.28588 3.13806 C 163.58599 -6.06711 168.87822 -21.95638 172.17835 -32.5675 C 175.47847 -43.17865 180.77079 -61.32271 184.0709 -73.33966 C 187.37105 -85.35661 192.66336 -105.7545 195.9635 -119.17741 C 199.26363 -132.60031 204.55593 -155.25382 207.85607 -170.08267 C 211.1562 -184.91153 216.4485 -209.81888 219.74863 -226.05356 C 223.04877 -242.28824 228.34107 -269.45039 231.6412 -287.09104 C 234.94135 -304.73164 240.23363 -334.14845 243.53377 -353.195 C 246.83391 -372.2416 252.1262 -403.91304 255.42635 -424.3656 C 258.72648 -444.8181 264.01878 -478.74424 267.3189 -500.60276 C 270.61906 -522.46127 275.91136 -558.6421 279.2115 -581.90646 C 282.51164 -605.1708 287.80397 -643.60549 291.10408 -668.27578 C 294.40419 -692.946 299.6964 -733.63638 302.99656 -759.7126 C 306.29667 -785.7888 311.58897 -828.733 314.8891 -856.215 C 318.18925 -883.697 323.48155 -928.896 326.7817 -957.784 C 330.08183 -986.672 335.3741 -1034.1257 338.67427 -1064.4196 C 341.9744 -1094.7134 347.2667 -1144.421 350.56684 -1176.1207 C 353.86698 -1207.8206 359.15928 -1259.7837 362.4594 -1292.8894 C 365.75956 -1325.9953 371.05183 -1380.212 374.35197 -1414.7238 C 377.6521 -1449.2355 382.9444 -1505.708 386.24455 -1541.6256 C 389.54466 -1577.5432 394.83699 -1636.2698 398.13713 -1673.593 C 401.43724 -1710.9161 406.7295 -1771.896 410.0296 -1810.6251 C 413.3297 -1849.3543 418.622 -1912.5903 421.92216 -1952.7257 C 425.2223 -1992.861 430.5146 -2058.3516 433.81474 -2099.8929 C 437.11488 -2141.4339 442.40718 -2209.1785 445.7073 -2252.1256 C 449.00743 -2295.0726 454.29975 -2365.0718 457.59989 -2409.4249 C 460.90003 -2453.7779 466.1923 -2526.0325 469.49247 -2571.7916 C 472.7926 -2617.5506 478.08488 -2692.059 481.38505 -2739.224 C 484.68516 -2786.389 489.97746 -2863.1524 493.2776 -2911.723 C 496.57774 -2960.2938 501.87004 -3039.311 505.17015 -3089.2877 C 508.47029 -3139.2642 513.7626 -3220.537 517.06277 -3271.9197 C 520.36288 -3323.3023 525.65518 -3406.829 528.9553 -3459.6175 C 532.25546 -3512.4058 537.54769 -3598.1866 540.8478 -3652.3809 C 544.1479 -3706.575 549.44027 -3794.6114 552.74038 -3850.2117 C 556.0405 -3905.812 561.33279 -3996.1029 564.63296 -4053.1092 C 567.93307 -4110.115 573.22537 -4202.661 576.5255 -4261.073 C 579.8256 -4319.4855 585.1179 -4414.2849 588.4181 -4474.1027 C 591.7182 -4533.921 597.0105 -4630.9758 600.31069 -4692.1999 C 603.6108 -4753.424 612.20327 -4915.3625 612.20327 -4915.3625 "/>
<path transform="matrix(1,0,0,-1,5.897,175.65399)" stroke-width="1.19553" stroke-linecap="butt" stroke-miterlimit="10" stroke-linejoin="miter" fill="none" stroke="#800000" d="M -565.1604 49.66064 C -565.1604 49.66064 -529.7152 49.66064 -516.10159 49.66064 C -502.4879 49.66064 -480.6563 49.66064 -467.04264 49.66064 C -453.42897 49.66064 -431.59736 49.66064 -417.98368 49.66064 C -404.37 49.66064 -382.53849 49.66064 -368.92485 49.66064 C -355.31117 49.66064 -333.47956 49.66064 -319.86589 49.66064 C -306.2522 49.66064 -284.42063 49.66064 -270.80696 49.66064 C -257.19328 49.66064 -235.36167 49.66064 -221.74799 49.66064 C -208.13431 49.66064 -186.30272 49.66064 -172.68904 49.66064 C -159.07537 49.66064 -137.24376 49.66064 -123.6301 49.66064 C -110.01643 49.66064 -88.1849 49.66064 -74.57124 49.66064 C -60.95758 49.66064 -39.12598 49.66064 -25.5123 49.66064 C -11.89862 49.66064 9.93295 49.66064 23.54663 49.66064 C 37.16031 49.66064 58.9919 49.66064 72.60558 49.66064 C 86.21924 49.66064 108.05086 49.66064 121.6645 49.66064 C 135.27817 49.66064 157.10971 49.66064 170.72338 49.66064 C 184.33704 49.66064 206.16864 49.66064 219.78232 49.66064 C 233.396 49.66064 255.22759 49.66064 268.84126 49.66064 C 282.45494 49.66064 304.28654 49.66064 317.9002 49.66064 C 331.51387 49.66064 353.3454 49.66064 366.95906 49.66064 C 380.57273 49.66064 402.40434 49.66064 416.018 49.66064 C 429.63169 49.66064 451.4633 49.66064 465.07698 49.66064 C 478.69065 49.66064 500.52223 49.66064 514.1359 49.66064 C 527.7496 49.66064 549.5812 49.66064 563.1948 49.66064 C 576.80856 49.66064 612.2538 49.66064 612.2538 49.66064 "/>
<symbol id="font_2_3">
<path d="M .45700003 .586 C .461 .6 .461 .602 .461 .609 C .461 .62700006 .447 .63600006 .432 .63600006 C .42200003 .63600006 .40600003 .63 .397 .615 C .395 .61 .387 .579 .38300003 .561 C .37600003 .535 .36900003 .508 .363 .48100005 L .318 .301 C .314 .286 .271 .21600002 .20500002 .21600002 C .15400002 .21600002 .143 .26000003 .143 .29700003 C .143 .34300003 .16000001 .40500004 .194 .49300004 C .21000001 .53400006 .21400002 .545 .21400002 .56500008 C .21400002 .61 .18200001 .6470001 .13200002 .6470001 C .037 .6470001 0 .50200006 0 .49300004 C 0 .48300005 .01 .48300005 .012 .48300005 C .022000002 .48300005 .023 .485 .028000003 .50100007 C .055000009 .595 .095000009 .625 .12900001 .625 C .13700001 .625 .15400002 .625 .15400002 .59300008 C .15400002 .568 .14400001 .54200008 .13700001 .523 C .097 .41700004 .079 .36 .079 .31300003 C .079 .224 .142 .194 .201 .194 C .24000003 .194 .274 .21100001 .30200003 .23900002 C .289 .187 .277 .13800001 .237 .08500001 C .21100001 .051 .17300001 .022 .127 .022 C .113000009 .022 .068 .025000006 .051000008 .06400001 C .067 .06400001 .080000009 .06400001 .094000007 .076000008 C .104 .08500001 .11400001 .098000008 .11400001 .117000009 C .11400001 .148 .087000008 .15200001 .07700001 .15200001 C .054000006 .15200001 .021 .136 .021 .087000008 C .021 .037 .065000008 0 .127 0 C .23 0 .333 .091000009 .361 .20400001 L .45700003 .586 Z "/>
</symbol>
<use xlink:href="#font_2_3" transform="matrix(9.9626,0,0,-9.9626,106.05592,63.08833)" fill="#000080"/>
<symbol id="font_3_6">
<path d="M .63100007 .19400002 C .646 .19400002 .665 .19400002 .665 .214 C .665 .23400001 .646 .23400001 .632 .23400001 L .033 .23400001 C .019000002 .23400001 0 .23400001 0 .214 C 0 .19400002 .019000002 .19400002 .034 .19400002 L .63100007 .19400002 M .632 0 C .646 0 .665 0 .665 .02000001 C .665 .040000008 .646 .040000008 .63100007 .040000008 L .034 .040000008 C .019000002 .040000008 0 .040000008 0 .02000001 C 0 0 .019000002 0 .033 0 L .632 0 Z "/>
</symbol>
<use xlink:href="#font_3_6" transform="matrix(9.9626,0,0,-9.9626,114.333919,59.72097)" fill="#000080"/>
<symbol id="font_4_1">
<path d="M .57600006 0 C .59300008 0 .611 0 .611 .019999996 C .611 .040000008 .59300008 .040000008 .57600006 .040000008 L .035000005 .040000008 C .018 .040000008 0 .040000008 0 .019999996 C 0 0 .018 0 .035000005 0 L .57600006 0 Z "/>
</symbol>
<use xlink:href="#font_4_1" transform="matrix(9.9626,0,0,-9.9626,125.118907,58.7546)" fill="#000080"/>
<symbol id="font_2_2">
<path d="M .305 .31300003 C .311 .33900003 .334 .43100003 .404 .43100003 C .409 .43100003 .433 .43100003 .454 .418 C .426 .41300003 .40600003 .388 .40600003 .36400003 C .40600003 .34800003 .417 .32900004 .444 .32900004 C .46600003 .32900004 .498 .34700004 .498 .38700003 C .498 .43900005 .439 .45300005 .405 .45300005 C .347 .45300005 .312 .40000005 .3 .37700004 C .275 .44300003 .221 .45300005 .19200002 .45300005 C .08800001 .45300005 .031000002 .32400004 .031000002 .29900003 C .031000002 .28900004 .041 .28900004 .043000007 .28900004 C .051000008 .28900004 .054000006 .291 .056 .3 C .09 .40600003 .156 .43100003 .19000001 .43100003 C .209 .43100003 .244 .42200003 .244 .36400003 C .244 .33300004 .22700002 .26600004 .19000001 .126 C .17400001 .064 .13900002 .022000002 .095000009 .022000002 C .08900001 .022000002 .06600001 .022000002 .045 .035 C .07000001 .040000004 .09200001 .061 .09200001 .089 C .09200001 .116000007 .07000001 .124000009 .055000009 .124000009 C .025 .124000009 0 .098000008 0 .06600001 C 0 .020000002 .050000006 0 .094000007 0 C .16000001 0 .19600001 .07000001 .19900002 .076000008 C .21100001 .039 .24700003 0 .307 0 C .41 0 .467 .12900001 .467 .15400002 C .467 .16400002 .458 .16400002 .455 .16400002 C .446 .16400002 .444 .16000001 .442 .15300001 C .409 .046 .341 .022000002 .30900003 .022000002 C .27 .022000002 .254 .054 .254 .08800001 C .254 .11000001 .26 .13200002 .271 .17600002 L .305 .31300003 Z "/>
</symbol>
<use xlink:href="#font_2_2" transform="matrix(9.9626,0,0,-9.9626,132.32993,61.155588)" fill="#000080"/>
<symbol id="font_5_1">
<path d="M .442 .18200001 L .40800003 .18200001 C .40500004 .16000001 .39500005 .101 .38200004 .091000009 C .374 .085 .29700003 .085 .28300003 .085 L .099 .085 C .20400003 .178 .23900002 .20600002 .29900003 .25300003 C .37300004 .312 .442 .374 .442 .469 C .442 .59000006 .33600004 .66400006 .20800004 .66400006 C .084 .66400006 0 .577 0 .485 C 0 .43400003 .043000007 .42900003 .053000004 .42900003 C .077 .42900003 .10600001 .446 .10600001 .48200003 C .10600001 .5 .099 .535 .047000007 .535 C .078 .606 .146 .628 .19300002 .628 C .293 .628 .34500004 .55 .34500004 .469 C .34500004 .38200004 .28300003 .31300003 .25100003 .277 L .010000005 .039 C 0 .030000002 0 .028 0 0 L .41200004 0 L .442 .18200001 Z "/>
</symbol>
<use xlink:href="#font_5_1" transform="matrix(6.9738,0,0,-6.9738,138.17436,56.933)" fill="#000080"/>
<symbol id="font_3_1">
<path d="M .35300002 .31300003 L .632 .31300003 C .646 .31300003 .665 .31300003 .665 .333 C .665 .35300002 .646 .35300002 .632 .35300002 L .35300002 .35300002 L .35300002 .633 C .35300002 .647 .35300002 .666 .33300004 .666 C .31300003 .666 .31300003 .647 .31300003 .633 L .31300003 .35300002 L .033 .35300002 C .019000002 .35300002 0 .35300002 0 .333 C 0 .31300003 .019000002 .31300003 .033 .31300003 L .31300003 .31300003 L .31300003 .033000005 C .31300003 .019000002 .31300003 0 .33300004 0 C .35300002 0 .35300002 .019000002 .35300002 .033000005 L .35300002 .31300003 Z "/>
</symbol>
<symbol id="font_3_4">
<path d="M .07700001 .07700001 L .18300002 .18 C .33900003 .31800003 .39900003 .372 .39900003 .47200004 C .39900003 .586 .30900003 .666 .18700002 .666 C .074 .666 0 .574 0 .485 C 0 .42900003 .05 .42900003 .053000008 .42900003 C .07000001 .42900003 .105000007 .441 .105000007 .48200003 C .105000007 .508 .08700001 .53400006 .052000006 .53400006 C .044000005 .53400006 .042000008 .53400006 .039 .53300008 C .062000004 .59800007 .11600001 .63500007 .17400001 .63500007 C .26500003 .63500007 .308 .554 .308 .47200004 C .308 .39200003 .25800003 .31300003 .20300003 .25100003 L .011000004 .037 C 0 .026 0 .024 0 0 L .37100003 0 L .39900003 .17400001 L .374 .17400001 C .36900003 .14400001 .36200003 .1 .352 .085 C .345 .07700001 .279 .07700001 .257 .07700001 L .07700001 .07700001 Z "/>
</symbol>
<use xlink:href="#font_3_1" transform="matrix(9.9626,0,0,-9.9626,144.9759,61.872896)" fill="#000080"/>
<use xlink:href="#font_3_4" transform="matrix(9.9626,0,0,-9.9626,154.87874,61.045999)" fill="#000080"/>
<use xlink:href="#font_2_2" transform="matrix(9.9626,0,0,-9.9626,159.65091,61.155588)" fill="#000080"/>
</g>
<symbol id="font_3_2">
<path d="M .421 .34200005 C .421 .42200003 .416 .50200006 .381 .57600006 C .335 .67200008 .25300003 .688 .211 .688 C .15100001 .688 .07800001 .66200008 .037000006 .56900009 C .0050000029 .5 0 .42200003 0 .34200005 C 0 .26700003 .0040000008 .177 .045000007 .101 C .088 .020000002 .161 0 .21000001 0 C .264 0 .34 .021000002 .384 .116000007 C .416 .185 .421 .263 .421 .34200005 M .21000001 .022000002 C .171 .022000002 .112 .047000003 .094 .143 C .083000008 .20300001 .083000008 .29500003 .083000008 .35400004 C .083000008 .41800005 .083000008 .48400004 .091000009 .53800007 C .11 .65700009 .185 .66600009 .21000001 .66600009 C .243 .66600009 .30900003 .64800009 .328 .549 C .338 .49300004 .338 .41700004 .338 .35400004 C .338 .279 .338 .21100001 .32700003 .147 C .312 .052 .255 .022000002 .21000001 .022000002 Z "/>
</symbol>
<use xlink:href="#font_3_2" transform="matrix(9.9626,0,0,-9.9626,52.90354,138.27117)"/>
<symbol id="font_2_1">
<path d="M .106 .053000004 C .106 .082 .08200001 .106000009 .05300001 .106000009 C .024000004 .106000009 0 .082 0 .053000004 C 0 .024 .024000004 0 .05300001 0 C .08200001 0 .106 .024 .106 .053000004 Z "/>
</symbol>
<use xlink:href="#font_2_1" transform="matrix(9.9626,0,0,-9.9626,58.352785,138.05199)"/>
<symbol id="font_3_5">
<path d="M .39900003 .223 C .39900003 .34200005 .317 .44200004 .209 .44200004 C .16100002 .44200004 .118000019 .42600004 .082 .39100004 L .082 .586 C .10200001 .58000007 .135 .573 .16700001 .573 C .29 .573 .36 .66400006 .36 .67700007 C .36 .683 .357 .688 .35 .688 C .349 .688 .347 .688 .342 .68500009 C .322 .67600008 .273 .656 .20600002 .656 C .16600001 .656 .120000008 .66300007 .073 .6840001 C .065 .68700006 .06300001 .68700006 .061000009 .68700006 C .051000004 .68700006 .051000004 .679 .051000004 .66300007 L .051000004 .36700005 C .051000004 .34900005 .051000004 .34100003 .065 .34100003 C .07200001 .34100003 .074 .34400005 .07800001 .35000003 C .08900002 .36600004 .12600002 .42000006 .207 .42000006 C .259 .42000006 .284 .37400005 .292 .35600005 C .308 .31900005 .31 .28000004 .31 .23 C .31 .19500001 .31 .135 .286 .093 C .262 .054000006 .22500001 .028 .17900002 .028 C .106000009 .028 .049000008 .08100001 .032 .14000002 C .035 .13900002 .038000008 .13800001 .049000008 .13800001 C .082 .13800001 .09900001 .163 .09900001 .187 C .09900001 .21100001 .082 .23600002 .049000008 .23600002 C .035 .23600002 0 .22900002 0 .18300002 C 0 .097 .069000009 0 .18100001 0 C .297 0 .39900003 .096 .39900003 .223 Z "/>
</symbol>
<use xlink:href="#font_3_5" transform="matrix(9.9626,0,0,-9.9626,60.76213,138.27117)"/>
<symbol id="font_3_3">
<path d="M .205 .64000007 C .205 .66400006 .205 .666 .18200003 .666 C .120000008 .60200008 .032000007 .60200008 0 .60200008 L 0 .57100006 C .020000004 .57100006 .07900001 .57100006 .13100001 .597 L .13100001 .079 C .13100001 .043 .128 .031000002 .038000004 .031000002 L .0060000049 .031000002 L .0060000049 0 C .04100001 .003 .128 .003 .168 .003 C .20800002 .003 .29500003 .003 .33000005 0 L .33000005 .031000002 L .29800005 .031000002 C .20800002 .031000002 .205 .042000005 .205 .079 L .205 .64000007 Z "/>
</symbol>
<use xlink:href="#font_3_3" transform="matrix(9.9626,0,0,-9.9626,86.71068,138.05199)"/>
<use xlink:href="#font_3_3" transform="matrix(9.9626,0,0,-9.9626,112.271678,138.05199)"/>
<use xlink:href="#font_2_1" transform="matrix(9.9626,0,0,-9.9626,117.222789,138.05199)"/>
<use xlink:href="#font_3_5" transform="matrix(9.9626,0,0,-9.9626,119.63213,138.27117)"/>
<use xlink:href="#font_3_4" transform="matrix(9.9626,0,0,-9.9626,145.19313,138.05199)"/>
<use xlink:href="#font_3_4" transform="matrix(9.9626,0,0,-9.9626,170.75313,138.05199)"/>
<use xlink:href="#font_2_1" transform="matrix(9.9626,0,0,-9.9626,176.09378,138.05199)"/>
<use xlink:href="#font_3_5" transform="matrix(9.9626,0,0,-9.9626,178.50212,138.27117)"/>
<use xlink:href="#font_4_1" transform="matrix(9.9626,0,0,-9.9626,4.147896,157.53459)"/>
<use xlink:href="#font_3_2" transform="matrix(9.9626,0,0,-9.9626,11.457541,160.04517)"/>
<use xlink:href="#font_2_1" transform="matrix(9.9626,0,0,-9.9626,16.907784,159.82599)"/>
<use xlink:href="#font_3_5" transform="matrix(9.9626,0,0,-9.9626,19.316132,160.04517)"/>
<use xlink:href="#font_3_2" transform="matrix(9.9626,0,0,-9.9626,11.457541,98.38618)"/>
<use xlink:href="#font_2_1" transform="matrix(9.9626,0,0,-9.9626,16.907784,98.167)"/>
<use xlink:href="#font_3_5" transform="matrix(9.9626,0,0,-9.9626,19.316132,98.38618)"/>
<use xlink:href="#font_3_3" transform="matrix(9.9626,0,0,-9.9626,19.70467,67.129)"/>
<use xlink:href="#font_3_3" transform="matrix(9.9626,0,0,-9.9626,11.955671,36.091997)"/>
<use xlink:href="#font_2_1" transform="matrix(9.9626,0,0,-9.9626,16.907784,36.091997)"/>
<use xlink:href="#font_3_5" transform="matrix(9.9626,0,0,-9.9626,19.316132,36.311174)"/>
<use xlink:href="#font_2_2" transform="matrix(9.9626,0,0,-9.9626,204.09291,127.074588)"/>
<use xlink:href="#font_2_3" transform="matrix(9.9626,0,0,-9.9626,27.112915,9.653326)"/>
<path transform="matrix(1,0,0,-1,5.897,175.65399)" stroke-width="1" stroke-linecap="butt" stroke-miterlimit="10" stroke-linejoin="miter" fill="none" stroke="#808080" d="M 52.98378 47.54271 L 52.98378 51.77856 M 82.41922 47.54271 L 82.41922 51.77856 M 111.85466 47.54271 L 111.85466 51.77856 M 141.2901 47.54271 L 141.2901 51.77856 M 170.72554 47.54271 L 170.72554 51.77856 "/>
<path transform="matrix(1,0,0,-1,5.897,175.65399)" stroke-width="1" stroke-linecap="butt" stroke-miterlimit="10" stroke-linejoin="miter" fill="none" stroke="#808080" d="M 21.42242 18.62286 L 25.67426 18.62286 M 21.42242 80.69843 L 25.67426 80.69843 M 21.42242 111.73622 L 25.67426 111.73622 M 21.42242 142.774 L 25.67426 142.774 "/>
<path transform="matrix(1,0,0,-1,5.897,175.65399)" stroke-width="1" stroke-linecap="butt" stroke-miterlimit="10" stroke-linejoin="miter" fill="none" stroke="#000000" d="M 0 49.66064 L 192.28137 49.66064 "/>
<path transform="matrix(1,0,0,-1,198.17838,125.99335)" d="M 1.99252 0 L -1.19551 1.59401 L 0 0 L -1.19551 -1.59401 "/>
<path transform="matrix(1,0,0,-1,5.897,175.65399)" stroke-width="1" stroke-linecap="butt" stroke-miterlimit="10" stroke-linejoin="miter" fill="none" stroke="#000000" d="M 23.54834 0 L 23.54834 159.40433 "/>
<path transform="matrix(0,-1,-1,-0,29.44534,16.249665)" d="M 1.99252 0 L -1.19551 1.59401 L 0 0 L -1.19551 -1.59401 "/>
</svg>
