<?xml version="1.0" encoding="UTF-8" standalone="no"?>
<!DOCTYPE svg PUBLIC "-//W3C//DTD SVG 1.1//EN" "http://www.w3.org/Graphics/SVG/1.1/DTD/svg11.dtd">
<svg xmlns="http://www.w3.org/2000/svg" xmlns:xlink="http://www.w3.org/1999/xlink" version="1.1" width="207.099pt" height="174.685pt" viewBox="0 0 207.099 174.685">
<clipPath id="cp0">
<path transform="matrix(1,0,0,-1,.199,174.486)" d="M 0 0 L 194.2736 0 L 194.2736 161.39575 L 0 161.39575 Z "/>
</clipPath>
<g clip-path="url(#cp0)">
<path transform="matrix(1,0,0,-1,.199,174.486)" d="M 21.02937 39.94025 L 22.53296 38.6681 L 24.03656 37.43861 L 25.54013 36.25237 L 27.04373 35.10933 L 28.54726 34.01299 L 30.05084 32.9645 L 31.55443 31.96384 L 33.05803 31.01276 L 34.56155 30.11067 L 36.06514 29.25873 L 37.56873 28.45866 L 39.07231 27.71394 L 40.57591 27.01994 L 42.07951 26.38013 L 43.58302 25.79622 L 45.08661 25.26591 L 46.59021 24.79152 L 48.0938 24.3765 L 49.59732 24.01625 L 51.1009 23.71364 L 52.60449 23.46577 L 54.1081 23.2773 L 55.6117 23.14816 L 57.11519 23.07613 L 58.61879 23.06114 L 60.12239 23.10495 L 61.62598 23.20523 L 63.12956 23.36432 L 64.63315 23.58221 L 66.13667 23.85716 L 67.64027 24.1886 L 69.14386 24.5771 L 70.64745 25.02037 L 72.15097 25.52356 L 73.65457 26.08038 L 75.15814 26.69254 L 76.66174 27.35829 L 78.16533 28.07765 L 79.66893 28.85063 L 81.17244 29.67662 L 82.67604 30.55278 L 84.17963 31.47966 L 85.68323 32.45552 L 87.1868 33.4798 L 88.69032 34.55309 L 90.19392 35.67365 L 91.69751 36.83684 L 93.2011 38.04672 L 94.7047 39.29639 L 96.20822 40.58987 L 97.7118 41.92369 L 99.2154 43.2967 L 100.71898 44.70718 L 102.22258 46.15341 L 103.7261 47.63364 L 105.22969 49.14902 L 106.73328 50.69556 L 108.23688 52.27203 L 109.74046 53.87735 L 111.24399 55.5086 L 112.74757 57.16579 L 114.25116 58.84833 L 115.75476 60.55107 L 117.25836 62.27512 L 118.76193 64.01761 L 120.26546 65.77567 L 121.76906 67.54988 L 123.27264 69.33675 L 124.77623 71.13518 L 126.27983 72.9428 L 127.78334 74.76024 L 129.28694 76.58054 L 130.79053 78.40778 L 132.29412 80.235 L 133.79772 82.0628 L 135.30124 83.89063 L 136.80481 85.71497 L 138.30841 87.53354 L 139.81201 89.34637 L 141.3156 91.15054 L 142.81919 92.94376 L 144.32271 94.72374 L 145.8263 96.49101 L 147.3299 98.241 L 148.83347 99.97484 L 150.33707 101.68796 L 151.84059 103.38087 L 153.34418 105.05133 L 154.84777 106.69583 L 156.35137 108.3144 L 157.85495 109.9053 L 159.35848 111.46739 L 160.86206 112.99892 L 162.36565 114.4976 L 163.86925 115.9611 L 165.37285 117.38945 L 166.87636 118.78151 L 168.37995 120.13608 L 169.88355 121.44972 L 169.88355 121.46066 L 168.37995 122.73282 L 166.87636 123.96231 L 165.37285 125.14798 L 163.86925 126.29042 L 162.36565 127.38736 L 160.86206 128.43643 L 159.35848 129.4365 L 157.85495 130.38759 L 156.35137 131.28968 L 154.84777 132.14104 L 153.34418 132.94168 L 151.84059 133.68582 L 150.33707 134.37752 L 148.83347 135.01734 L 147.3299 135.60182 L 145.8263 136.13097 L 144.32271 136.60477 L 142.81919 137.02094 L 141.3156 137.3812 L 139.81201 137.68383 L 138.30841 137.92995 L 136.80481 138.11959 L 135.30124 138.24756 L 133.79772 138.3196 L 132.29412 138.3346 L 130.79053 138.29077 L 129.28694 138.18933 L 127.78334 138.03025 L 126.27983 137.81237 L 124.77623 137.538 L 123.27264 137.20482 L 121.76906 136.81688 L 120.26546 136.37363 L 118.76193 135.86928 L 117.25836 135.31362 L 115.75476 134.7003 L 114.25116 134.03398 L 112.74757 133.3146 L 111.24399 132.5422 L 109.74046 131.71622 L 108.23688 130.83835 L 106.73328 129.91147 L 105.22969 128.93618 L 103.7261 127.91132 L 102.22258 126.83861 L 100.71898 125.71806 L 99.2154 124.55312 L 97.7118 123.34381 L 96.20822 122.09415 L 94.7047 120.8001 L 93.2011 119.46628 L 91.69751 118.09326 L 90.19392 116.68335 L 88.69032 115.23714 L 87.1868 113.75632 L 85.68323 112.24094 L 84.17963 110.69441 L 82.67604 109.11734 L 81.17244 107.51147 L 79.66893 105.87962 L 78.16533 104.22302 L 76.66174 102.54105 L 75.15814 100.83775 L 73.65457 99.1137 L 72.15097 97.37234 L 70.64745 95.61372 L 69.14386 93.83893 L 67.64027 92.05205 L 66.13667 90.25305 L 64.63315 88.44543 L 63.12956 86.62859 L 61.62598 84.80711 L 60.12239 82.98103 L 58.61879 81.15265 L 57.11519 79.32484 L 55.6117 77.49706 L 54.1081 75.67326 L 52.60449 73.85411 L 51.1009 72.04243 L 49.59732 70.23827 L 48.0938 68.44504 L 46.59021 66.66507 L 45.08661 64.8978 L 43.58302 63.14665 L 42.07951 61.41394 L 40.57591 59.70085 L 39.07231 58.0085 L 37.56873 56.33864 L 36.06514 54.69354 L 34.56155 53.07498 L 33.05803 51.48293 L 31.55443 49.922 L 30.05084 48.39047 L 28.54726 46.89178 L 27.04373 45.42828 L 25.54013 44.00108 L 24.03656 42.60846 L 22.53296 41.25389 L 21.02937 39.94025 Z " fill="#cccce6"/>
</g>
<clipPath id="cp1">
<path transform="matrix(1,0,0,-1,.199,174.486)" d="M 0 0 L 194.2736 0 L 194.2736 161.39575 L 0 161.39575 Z "/>
</clipPath>
<g clip-path="url(#cp1)">
<path transform="matrix(1,0,0,-1,.199,174.486)" stroke-width="1.19553" stroke-linecap="butt" stroke-miterlimit="10" stroke-linejoin="miter" fill="none" stroke="#000080" d="M -341.1634 112.05475 C -341.1634 112.05475 -334.24763 104.70103 -331.59144 101.71274 C -328.93525 98.72444 -324.67558 93.67908 -322.01936 90.51707 C -319.36317 87.35506 -315.10353 82.13054 -312.4473 78.92308 C -309.7911 75.71564 -305.53147 70.5226 -302.87528 67.4 C -300.21907 64.2774 -295.9594 59.3281 -293.3032 56.4176 C -290.64704 53.50711 -286.38734 49.00328 -283.73115 46.42317 C -281.07496 43.84306 -276.81529 39.9668 -274.1591 37.82191 C -271.5029 35.67705 -267.24324 32.58665 -264.58705 30.96434 C -261.93086 29.34203 -257.6712 27.163 -255.01499 26.12938 C -252.3588 25.09576 -248.0992 23.91743 -245.44301 23.51476 C -242.7868 23.11209 -238.52713 22.98323 -235.87094 23.22714 C -233.21474 23.47105 -228.9551 24.39198 -226.29889 25.27283 C -223.6427 26.15367 -219.38303 28.0934 -216.72684 29.57576 C -214.07064 31.05812 -209.81098 33.93335 -207.15479 35.95665 C -204.49858 37.97997 -200.23892 41.67654 -197.58272 44.15845 C -194.92653 46.64034 -190.66687 51.00502 -188.01067 53.84448 C -185.35448 56.68396 -181.0948 61.54138 -178.43862 64.62341 C -175.78241 67.70546 -171.52277 72.85909 -168.86656 76.05774 C -166.21038 79.2564 -161.95078 84.49194 -159.29457 87.67708 C -156.63838 90.86221 -152.37871 95.97104 -149.72252 99.01398 C -147.06632 102.05692 -142.80666 106.83202 -140.15047 109.60846 C -137.49428 112.3849 -133.2346 116.62794 -130.5784 119.02475 C -127.92221 121.42155 -123.66255 124.96294 -121.00636 126.88298 C -118.35016 128.80304 -114.09048 131.49832 -111.4343 132.86328 C -108.77809 134.22823 -104.51845 135.96616 -101.86224 136.72064 C -99.20605 137.47513 -94.94638 138.18778 -92.29019 138.30117 C -89.63399 138.41455 -85.37433 138.07054 -82.71814 137.538 C -80.06194 137.00543 -75.80228 135.61943 -73.14607 134.46282 C -70.48988 133.3062 -66.23029 130.93546 -63.57408 129.20189 C -60.9179 127.46834 -56.65823 124.20877 -54.00204 121.96849 C -51.34584 119.72821 -47.08618 115.71124 -44.42998 113.0554 C -41.77379 110.39955 -37.51413 105.79005 -34.85793 102.82695 C -32.20174 99.86385 -27.94206 94.8493 -25.28587 91.69928 C -22.62967 88.54927 -18.37001 83.3328 -15.71382 80.12375 C -13.05763 76.9147 -8.79796 71.70801 -6.14175 68.57071 C -3.48557 65.4334 .77408 60.45013 3.43027 57.5122 C 6.08647 54.5743 10.34615 50.01546 13.00233 47.39616 C 15.65854 44.77686 19.91818 40.82806 22.57439 38.6341 C 25.23058 36.44011 29.49025 33.26306 32.14644 31.5834 C 34.80264 29.90376 39.06224 27.62495 41.71843 26.52824 C 44.37463 25.43155 48.63428 24.14818 51.29048 23.67905 C 53.94667 23.20992 58.20634 22.96979 60.86255 23.14702 C 63.51874 23.32423 67.7784 24.13983 70.43459 24.95638 C 73.09079 25.77292 77.35045 27.60968 80.00665 29.0322 C 82.66284 30.45473 86.9225 33.23819 89.5787 35.20903 C 92.2349 37.17989 96.49457 40.79788 99.15076 43.23674 C 101.80696 45.67561 106.06662 49.9789 108.72281 52.78677 C 111.379 55.59467 115.63867 60.41138 118.29488 63.47406 C 120.95107 66.53674 125.21072 71.66812 127.86691 74.86052 C 130.52312 78.05292 134.78279 83.29001 137.43898 86.48274 C 140.09519 89.67548 144.35477 94.80804 147.01097 97.87154 C 149.66716 100.93501 153.92682 105.75302 156.58301 108.56226 C 159.23921 111.37149 163.49889 115.67784 166.15508 118.11862 C 168.81128 120.5594 173.07093 124.18065 175.72713 126.15382 C 178.38332 128.127 182.64299 130.91464 185.2992 132.33989 C 187.95539 133.76514 192.21504 135.60666 194.87123 136.42609 C 197.52744 137.24552 201.7871 138.06574 204.4433 138.24582 C 207.09949 138.42592 211.35915 138.19026 214.01535 137.72417 C 216.67154 137.25807 220.93122 135.98038 223.5874 134.88648 C 226.2436 133.79257 230.50327 131.51709 233.15946 129.84 C 235.81565 128.1629 240.07532 124.99092 242.73152 122.7991 C 245.38771 120.60727 249.64731 116.66058 252.3035 114.0428 C 254.9597 111.42502 259.21937 106.86882 261.87556 103.93193 C 264.53175 100.99506 268.7914 96.01242 271.44764 92.87575 C 274.1038 89.73907 278.36347 84.53387 281.01966 81.325 C 283.67588 78.11612 287.93553 72.8989 290.5917 69.7483 C 293.24794 66.59773 297.50758 61.58208 300.16377 58.61777 C 302.81996 55.65346 307.07966 51.04091 309.73585 48.38354 C 312.39204 45.72618 316.6517 41.70749 319.3079 39.46529 C 321.96409 37.22308 326.22377 33.9595 328.87995 32.22324 C 331.53614 30.48695 335.79579 28.11084 338.452 26.95135 C 341.1082 25.79187 345.36787 24.4019 348.02406 23.86638 C 350.68025 23.33086 354.93986 22.98125 357.59605 23.09169 C 360.25224 23.20213 364.5119 23.9107 367.1681 24.6624 C 369.82429 25.4141 374.08396 27.1471 376.74015 28.5094 C 379.39637 29.87172 383.656 32.56314 386.3122 34.48105 C 388.9684 36.39894 393.22807 39.93732 395.88426 42.33237 C 398.54045 44.7274 402.8001 48.9682 405.4563 51.74289 C 408.1125 54.51758 412.3722 59.28871 415.02839 62.33044 C 417.68458 65.37218 421.9442 70.48058 424.60044 73.66562 C 427.2566 76.85066 431.51628 82.08722 434.1725 85.28612 C 436.82868 88.485 441.08827 93.6384 443.74446 96.721 C 446.40068 99.80359 450.6603 104.6624 453.3165 107.5034 C 455.9727 110.34439 460.2324 114.71304 462.88859 117.19695 C 465.54478 119.68083 469.80445 123.38017 472.46064 125.40564 C 475.11683 127.4311 479.3765 130.3102 482.03269 131.79518 C 484.68888 133.28018 488.94853 135.22467 491.60475 136.10849 C 494.26094 136.9923 498.5206 137.91832 501.1768 138.16512 C 503.833 138.41193 508.09266 138.28717 510.74885 137.8873 C 513.405 137.48743 517.6647 136.31403 520.3209 135.28305 C 522.9771 134.25209 527.23678 132.07649 529.89297 130.45674 C 532.54916 128.83699 536.80886 125.75136 539.465 123.60896 C 542.1212 121.46657 546.3808 117.59406 549.037 115.0158 C 551.6932 112.43752 555.9528 107.93599 558.6091 105.02654 C 561.26528 102.1171 565.5249 97.1684 568.1811 94.04645 C 570.8373 90.92451 575.0969 85.7328 577.7532 82.52568 C 580.40939 79.31856 584.669 74.09435 587.32528 70.93169 C 589.9814 67.76904 594.2411 62.72092 596.8973 59.73141 C 599.55349 56.7419 606.46939 49.38535 606.46939 49.38535 "/>
<path transform="matrix(1,0,0,-1,.199,174.486)" stroke-width="1.19553" stroke-linecap="butt" stroke-miterlimit="10" stroke-linejoin="miter" fill="none" stroke="#800000" d="M -341.1634 32.33391 C -341.1634 32.33391 -334.24763 28.19682 -331.59144 27.02686 C -328.93525 25.8569 -324.67558 24.44826 -322.01936 23.90155 C -319.36317 23.35484 -315.10353 22.9875 -312.4473 23.08649 C -309.7911 23.18549 -305.53147 23.87488 -302.87528 24.61514 C -300.21907 25.35541 -295.9594 27.07004 -293.3032 28.42178 C -290.64704 29.77353 -286.38734 32.4492 -283.73115 34.35768 C -281.07496 36.26614 -276.81529 39.78954 -274.1591 42.17674 C -271.5029 44.56395 -267.24324 48.79411 -264.58705 51.56305 C -261.93086 54.33199 -257.6712 59.09502 -255.01499 62.13332 C -252.3588 65.17162 -248.0992 70.27739 -245.44301 73.461 C -242.7868 76.6446 -238.52713 81.879 -235.87094 85.07861 C -233.21474 88.27821 -228.9551 93.43568 -226.29889 96.52156 C -223.6427 99.60744 -219.38303 104.47318 -216.72684 107.31952 C -214.07064 110.16586 -209.81098 114.54503 -207.15479 117.03612 C -204.49858 119.5272 -200.23892 123.23914 -197.58272 125.27364 C -194.92653 127.30815 -190.66687 130.2042 -188.01067 131.69951 C -185.35448 133.19483 -181.0948 135.15599 -178.43862 136.05084 C -175.78241 136.9457 -171.52277 137.89058 -168.86656 138.14899 C -166.21038 138.4074 -161.95078 138.30176 -159.29457 137.91324 C -156.63838 137.52472 -152.37871 136.36853 -149.72252 135.34877 C -147.06632 134.32901 -142.80666 132.17314 -140.15047 130.56339 C -137.49428 128.95363 -133.2346 125.88089 -130.5784 123.74672 C -127.92221 121.61256 -123.66255 117.75319 -121.00636 115.1818 C -118.35016 112.6104 -114.09048 108.11836 -111.4343 105.21387 C -108.77809 102.30939 -104.51845 97.36742 -101.86224 94.24818 C -99.20605 91.12895 -94.94638 85.93948 -92.29019 82.73259 C -89.63399 79.52571 -85.37433 74.29967 -82.71814 71.13518 C -80.06194 67.97069 -75.80228 62.9186 -73.14607 59.92508 C -70.48988 56.93156 -66.23029 52.26048 -63.57408 49.56001 C -60.9179 46.85953 -56.65823 42.75969 -54.00204 40.4619 C -51.34584 38.16411 -47.08618 34.80069 -44.42998 32.99908 C -41.77379 31.19746 -37.51413 28.70946 -34.85793 27.47704 C -32.20174 26.24461 -27.94206 24.72916 -25.28587 24.11655 C -22.62967 23.50394 -18.37001 23.02948 -15.71382 23.0617 C -13.05763 23.09395 -8.79796 23.67363 -6.14175 24.34885 C -3.48557 25.02408 .77408 26.6374 3.43027 27.92838 C 6.08647 29.21933 10.34615 31.79922 13.00233 33.6533 C 15.65854 35.50739 19.91818 38.94934 22.57439 41.29137 C 25.23058 43.63338 29.49025 47.79837 32.14644 50.53299 C 34.80264 53.26762 39.06224 57.98468 41.71843 61.00067 C 44.37463 64.01665 48.63428 69.0957 51.29048 72.27013 C 53.94667 75.44453 58.20634 80.67567 60.86255 83.87967 C 63.51874 87.08368 67.7784 92.25876 70.43459 95.3624 C 73.09079 98.46603 77.35045 103.37189 80.00665 106.24854 C 82.66284 109.12518 86.9225 113.56274 89.5787 116.09541 C 92.2349 118.6281 96.49457 122.41646 99.15076 124.5024 C 101.80696 126.58835 106.06662 129.5755 108.72281 131.12943 C 111.379 132.68337 115.63867 134.74327 118.29488 135.7021 C 120.95107 136.66095 125.21072 137.71495 127.86691 138.04006 C 130.52312 138.36515 134.78279 138.36739 137.43898 138.04524 C 140.09519 137.72309 144.35477 136.6742 147.01097 135.71825 C 149.66716 134.76232 153.92682 132.70682 156.58301 131.15537 C 159.23921 129.60391 163.49889 126.62003 166.15508 124.5364 C 168.81128 122.45279 173.07093 118.6689 175.72713 116.13806 C 178.38332 113.60722 182.64299 109.17117 185.2992 106.29579 C 187.95539 103.42043 192.21504 98.5171 194.87123 95.41428 C 197.52744 92.31145 201.7871 87.1367 204.4433 83.9327 C 207.09949 80.7287 211.35915 75.49696 214.01535 72.32199 C 216.67154 69.14702 220.93122 64.0666 223.5874 61.04967 C 226.2436 58.03273 230.50327 53.31418 233.15946 50.57796 C 235.81565 47.84174 240.07532 43.67285 242.73152 41.32883 C 245.38771 38.9848 249.64731 35.54025 252.3035 33.68385 C 254.9597 31.82745 259.21937 29.24281 261.87556 27.94911 C 264.53175 26.65543 268.7914 25.03783 271.44764 24.35979 C 274.1038 23.68176 278.36347 23.09738 281.01966 23.06227 C 283.67588 23.02718 287.93553 23.49702 290.5917 24.10675 C 293.24794 24.71649 297.50758 26.22723 300.16377 27.45686 C 302.81996 28.6865 307.07966 31.16997 309.73585 32.9691 C 312.39204 34.76823 316.6517 38.12807 319.3079 40.42386 C 321.96409 42.71965 326.22377 46.81677 328.87995 49.51564 C 331.53614 52.21451 335.79579 56.88304 338.452 59.8755 C 341.1082 62.86797 345.36787 67.91927 348.02406 71.08328 C 350.68025 74.2473 354.93986 79.47261 357.59605 82.67957 C 360.25224 85.88654 364.5119 91.07687 367.1681 94.1969 C 369.82429 97.31691 374.08396 102.26085 376.74015 105.16661 C 379.39637 108.07237 383.656 112.5665 386.3122 115.13971 C 388.9684 117.71294 393.22807 121.57655 395.88426 123.71272 C 398.54045 125.84889 402.8001 128.92357 405.4563 130.53572 C 408.1125 132.14788 412.3722 134.30918 415.02839 135.33206 C 417.68458 136.35497 421.9442 137.51667 424.60044 137.90805 C 427.2566 138.29944 431.51628 138.40879 434.1725 138.15302 C 436.82868 137.89727 441.08827 136.95664 443.74446 136.06468 C 446.40068 135.17272 450.6603 133.21688 453.3165 131.72429 C 455.9727 130.23169 460.2324 127.33936 462.88859 125.30707 C 465.54478 123.2748 469.80445 119.56613 472.46064 117.07704 C 475.11683 114.58795 479.3765 110.21234 482.03269 107.36736 C 484.68888 104.52237 488.94853 99.65735 491.60475 96.57228 C 494.26094 93.4872 498.5206 88.33165 501.1768 85.13222 C 503.833 81.93277 508.09266 76.69681 510.74885 73.51286 C 513.405 70.32893 517.6647 65.2237 520.3209 62.18462 C 522.9771 59.14552 527.23678 54.37985 529.89297 51.60916 C 532.54916 48.83846 536.80886 44.60455 539.465 42.21535 C 542.1212 39.82616 546.3808 36.3 549.037 34.38937 C 551.6932 32.47874 555.9528 29.7993 558.6091 28.44484 C 561.26528 27.09038 565.5249 25.37064 568.1811 24.62726 C 570.8373 23.88388 575.0969 23.18903 577.7532 23.08707 C 580.40939 22.9851 584.669 23.34824 587.32528 23.89232 C 589.9814 24.4364 594.2411 25.84117 596.8973 27.00842 C 599.55349 28.17567 606.46939 32.30508 606.46939 32.30508 "/>
<path transform="matrix(1,0,0,-1,.199,174.486)" stroke-width="1.19553" stroke-linecap="butt" stroke-dasharray="2.98883,2.98883" stroke-miterlimit="10" stroke-linejoin="miter" fill="none" stroke="#cc6600" d="M -341.1634 22.48012 L 606.5127 22.48012 "/>
<symbol id="font_2_3">
<path d="M .45700003 .586 C .461 .6 .461 .602 .461 .609 C .461 .62700006 .447 .63600006 .432 .63600006 C .42200003 .63600006 .40600003 .63 .397 .615 C .395 .61 .387 .579 .38300003 .561 C .37600003 .535 .36900003 .508 .363 .48100005 L .318 .301 C .314 .286 .271 .21600002 .20500002 .21600002 C .15400002 .21600002 .143 .26000003 .143 .29700003 C .143 .34300003 .16000001 .40500004 .194 .49300004 C .21000001 .53400006 .21400002 .545 .21400002 .56500008 C .21400002 .61 .18200001 .6470001 .13200002 .6470001 C .037 .6470001 0 .50200006 0 .49300004 C 0 .48300005 .01 .48300005 .012 .48300005 C .022000002 .48300005 .023 .485 .028000003 .50100007 C .055000009 .595 .095000009 .625 .12900001 .625 C .13700001 .625 .15400002 .625 .15400002 .59300008 C .15400002 .568 .14400001 .54200008 .13700001 .523 C .097 .41700004 .079 .36 .079 .31300003 C .079 .224 .142 .194 .201 .194 C .24000003 .194 .274 .21100001 .30200003 .23900002 C .289 .187 .277 .13800001 .237 .08500001 C .21100001 .051 .17300001 .022 .127 .022 C .113000009 .022 .068 .025000006 .051000008 .06400001 C .067 .06400001 .080000009 .06400001 .094000007 .076000008 C .104 .08500001 .11400001 .098000008 .11400001 .117000009 C .11400001 .148 .087000008 .15200001 .07700001 .15200001 C .054000006 .15200001 .021 .136 .021 .087000008 C .021 .037 .065000008 0 .127 0 C .23 0 .333 .091000009 .361 .20400001 L .45700003 .586 Z "/>
</symbol>
<use xlink:href="#font_2_3" transform="matrix(9.9626,0,0,-9.9626,145.96292,167.24134)" fill="#cc6600"/>
<symbol id="font_3_7">
<path d="M .63100007 .19400002 C .646 .19400002 .665 .19400002 .665 .214 C .665 .23400001 .646 .23400001 .632 .23400001 L .033 .23400001 C .019000002 .23400001 0 .23400001 0 .214 C 0 .19400002 .019000002 .19400002 .034 .19400002 L .63100007 .19400002 M .632 0 C .646 0 .665 0 .665 .02000001 C .665 .040000008 .646 .040000008 .63100007 .040000008 L .034 .040000008 C .019000002 .040000008 0 .040000008 0 .02000001 C 0 0 .019000002 0 .033 0 L .632 0 Z "/>
</symbol>
<use xlink:href="#font_3_7" transform="matrix(9.9626,0,0,-9.9626,154.24192,163.87398)" fill="#cc6600"/>
<symbol id="font_4_1">
<path d="M .57600006 0 C .59300008 0 .611 0 .611 .019999996 C .611 .040000008 .59300008 .040000008 .57600006 .040000008 L .035000005 .040000008 C .018 .040000008 0 .040000008 0 .019999996 C 0 0 .018 0 .035000005 0 L .57600006 0 Z "/>
</symbol>
<use xlink:href="#font_4_1" transform="matrix(9.9626,0,0,-9.9626,165.0269,162.90761)" fill="#cc6600"/>
<symbol id="font_3_2">
<path d="M .205 .64000007 C .205 .66400006 .205 .666 .18200003 .666 C .120000008 .60200008 .032000007 .60200008 0 .60200008 L 0 .57100006 C .020000004 .57100006 .07900001 .57100006 .13100001 .597 L .13100001 .079 C .13100001 .043 .128 .031000002 .038000004 .031000002 L .0060000049 .031000002 L .0060000049 0 C .04100001 .003 .128 .003 .168 .003 C .20800002 .003 .29500003 .003 .33000005 0 L .33000005 .031000002 L .29800005 .031000002 C .20800002 .031000002 .205 .042000005 .205 .079 L .205 .64000007 Z "/>
</symbol>
<use xlink:href="#font_3_2" transform="matrix(9.9626,0,0,-9.9626,172.83469,165.199)" fill="#cc6600"/>
</g>
<use xlink:href="#font_4_1" transform="matrix(9.9626,0,0,-9.9626,32.567895,103.5636)"/>
<symbol id="font_3_3">
<path d="M .07700001 .07700001 L .18300002 .18 C .33900003 .31800003 .39900003 .372 .39900003 .47200004 C .39900003 .586 .30900003 .666 .18700002 .666 C .074 .666 0 .574 0 .485 C 0 .42900003 .05 .42900003 .053000008 .42900003 C .07000001 .42900003 .105000007 .441 .105000007 .48200003 C .105000007 .508 .08700001 .53400006 .052000006 .53400006 C .044000005 .53400006 .042000008 .53400006 .039 .53300008 C .062000004 .59800007 .11600001 .63500007 .17400001 .63500007 C .26500003 .63500007 .308 .554 .308 .47200004 C .308 .39200003 .25800003 .31300003 .20300003 .25100003 L .011000004 .037 C 0 .026 0 .024 0 0 L .37100003 0 L .39900003 .17400001 L .374 .17400001 C .36900003 .14400001 .36200003 .1 .352 .085 C .345 .07700001 .279 .07700001 .257 .07700001 L .07700001 .07700001 Z "/>
</symbol>
<use xlink:href="#font_3_3" transform="matrix(9.9626,0,0,-9.9626,39.98713,105.854999)"/>
<use xlink:href="#font_4_1" transform="matrix(9.9626,0,0,-9.9626,79.9509,103.5636)"/>
<use xlink:href="#font_3_2" transform="matrix(9.9626,0,0,-9.9626,87.759677,105.854999)"/>
<use xlink:href="#font_3_2" transform="matrix(9.9626,0,0,-9.9626,178.65167,105.854999)"/>
<use xlink:href="#font_4_1" transform="matrix(9.9626,0,0,-9.9626,115.32389,151.93361)"/>
<use xlink:href="#font_3_2" transform="matrix(9.9626,0,0,-9.9626,123.13167,154.225)"/>
<use xlink:href="#font_4_1" transform="matrix(9.9626,0,0,-9.9626,107.5749,123.1126)"/>
<symbol id="font_3_1">
<path d="M .421 .34200005 C .421 .42200003 .416 .50200006 .381 .57600006 C .335 .67200008 .25300003 .688 .211 .688 C .15100001 .688 .07800001 .66200008 .037000006 .56900009 C .0050000029 .5 0 .42200003 0 .34200005 C 0 .26700003 .0040000008 .177 .045000007 .101 C .088 .020000002 .161 0 .21000001 0 C .264 0 .34 .021000002 .384 .116000007 C .416 .185 .421 .263 .421 .34200005 M .21000001 .022000002 C .171 .022000002 .112 .047000003 .094 .143 C .083000008 .20300001 .083000008 .29500003 .083000008 .35400004 C .083000008 .41800005 .083000008 .48400004 .091000009 .53800007 C .11 .65700009 .185 .66600009 .21000001 .66600009 C .243 .66600009 .30900003 .64800009 .328 .549 C .338 .49300004 .338 .41700004 .338 .35400004 C .338 .279 .338 .21100001 .32700003 .147 C .312 .052 .255 .022000002 .21000001 .022000002 Z "/>
</symbol>
<use xlink:href="#font_3_1" transform="matrix(9.9626,0,0,-9.9626,114.885547,125.62318)"/>
<symbol id="font_2_1">
<path d="M .106 .053000004 C .106 .082 .08200001 .106000009 .05300001 .106000009 C .024000004 .106000009 0 .082 0 .053000004 C 0 .024 .024000004 0 .05300001 0 C .08200001 0 .106 .024 .106 .053000004 Z "/>
</symbol>
<use xlink:href="#font_2_1" transform="matrix(9.9626,0,0,-9.9626,120.334789,125.404)"/>
<symbol id="font_3_5">
<path d="M .39900003 .223 C .39900003 .34200005 .317 .44200004 .209 .44200004 C .16100002 .44200004 .118000019 .42600004 .082 .39100004 L .082 .586 C .10200001 .58000007 .135 .573 .16700001 .573 C .29 .573 .36 .66400006 .36 .67700007 C .36 .683 .357 .688 .35 .688 C .349 .688 .347 .688 .342 .68500009 C .322 .67600008 .273 .656 .20600002 .656 C .16600001 .656 .120000008 .66300007 .073 .6840001 C .065 .68700006 .06300001 .68700006 .061000009 .68700006 C .051000004 .68700006 .051000004 .679 .051000004 .66300007 L .051000004 .36700005 C .051000004 .34900005 .051000004 .34100003 .065 .34100003 C .07200001 .34100003 .074 .34400005 .07800001 .35000003 C .08900002 .36600004 .12600002 .42000006 .207 .42000006 C .259 .42000006 .284 .37400005 .292 .35600005 C .308 .31900005 .31 .28000004 .31 .23 C .31 .19500001 .31 .135 .286 .093 C .262 .054000006 .22500001 .028 .17900002 .028 C .106000009 .028 .049000008 .08100001 .032 .14000002 C .035 .13900002 .038000008 .13800001 .049000008 .13800001 C .082 .13800001 .09900001 .163 .09900001 .187 C .09900001 .21100001 .082 .23600002 .049000008 .23600002 C .035 .23600002 0 .22900002 0 .18300002 C 0 .097 .069000009 0 .18100001 0 C .297 0 .39900003 .096 .39900003 .223 Z "/>
</symbol>
<use xlink:href="#font_3_5" transform="matrix(9.9626,0,0,-9.9626,122.74313,125.62318)"/>
<use xlink:href="#font_3_1" transform="matrix(9.9626,0,0,-9.9626,114.88554,68.39818)"/>
<use xlink:href="#font_2_1" transform="matrix(9.9626,0,0,-9.9626,120.33478,68.179)"/>
<use xlink:href="#font_3_5" transform="matrix(9.9626,0,0,-9.9626,122.743129,68.39818)"/>
<use xlink:href="#font_3_2" transform="matrix(9.9626,0,0,-9.9626,123.13167,39.358995)"/>
<symbol id="font_2_2">
<path d="M .305 .31300003 C .311 .33900003 .334 .43100003 .404 .43100003 C .409 .43100003 .433 .43100003 .454 .418 C .426 .41300003 .40600003 .388 .40600003 .36400003 C .40600003 .34800003 .417 .32900004 .444 .32900004 C .46600003 .32900004 .498 .34700004 .498 .38700003 C .498 .43900005 .439 .45300005 .405 .45300005 C .347 .45300005 .312 .40000005 .3 .37700004 C .275 .44300003 .221 .45300005 .19200002 .45300005 C .08800001 .45300005 .031000002 .32400004 .031000002 .29900003 C .031000002 .28900004 .041 .28900004 .043000007 .28900004 C .051000008 .28900004 .054000006 .291 .056 .3 C .09 .40600003 .156 .43100003 .19000001 .43100003 C .209 .43100003 .244 .42200003 .244 .36400003 C .244 .33300004 .22700002 .26600004 .19000001 .126 C .17400001 .064 .13900002 .022000002 .095000009 .022000002 C .08900001 .022000002 .06600001 .022000002 .045 .035 C .07000001 .040000004 .09200001 .061 .09200001 .089 C .09200001 .116000007 .07000001 .124000009 .055000009 .124000009 C .025 .124000009 0 .098000008 0 .06600001 C 0 .020000002 .050000006 0 .094000007 0 C .16000001 0 .19600001 .07000001 .19900002 .076000008 C .21100001 .039 .24700003 0 .307 0 C .41 0 .467 .12900001 .467 .15400002 C .467 .16400002 .458 .16400002 .455 .16400002 C .446 .16400002 .444 .16000001 .442 .15300001 C .409 .046 .341 .022000002 .30900003 .022000002 C .27 .022000002 .254 .054 .254 .08800001 C .254 .11000001 .26 .13200002 .271 .17600002 L .305 .31300003 Z "/>
</symbol>
<use xlink:href="#font_2_2" transform="matrix(9.9626,0,0,-9.9626,198.37392,96.02959)"/>
<use xlink:href="#font_2_3" transform="matrix(9.9626,0,0,-9.9626,130.63092,9.652319)"/>
<path transform="matrix(1,0,0,-1,.199,174.486)" stroke-width="1" stroke-linecap="butt" stroke-miterlimit="10" stroke-linejoin="miter" fill="none" stroke="#808080" d="M 37.90704 78.57187 L 37.90704 82.82385 M 85.29085 78.57187 L 85.29085 82.82385 M 180.05846 78.57187 L 180.05846 82.82385 "/>
<path transform="matrix(1,0,0,-1,.199,174.486)" stroke-width="1" stroke-linecap="butt" stroke-miterlimit="10" stroke-linejoin="miter" fill="none" stroke="#808080" d="M 130.54898 23.05653 L 134.80031 23.05653 M 130.54898 51.8772 L 134.80031 51.8772 M 130.54898 109.51854 L 134.80031 109.51854 M 130.54898 138.33922 L 134.80031 138.33922 "/>
<path transform="matrix(1,0,0,-1,.199,174.486)" stroke-width="1" stroke-linecap="butt" stroke-miterlimit="10" stroke-linejoin="miter" fill="none" stroke="#000000" d="M 0 80.69788 L 192.28108 80.69788 "/>
<path transform="matrix(1,0,0,-1,192.48009,93.78811)" d="M 1.99252 0 L -1.19551 1.59401 L 0 0 L -1.19551 -1.59401 "/>
<path transform="matrix(1,0,0,-1,.199,174.486)" stroke-width="1" stroke-linecap="butt" stroke-miterlimit="10" stroke-linejoin="miter" fill="none" stroke="#000000" d="M 132.67465 0 L 132.67465 159.40323 "/>
<path transform="matrix(0,-1,-1,-0,132.87366,15.082764)" d="M 1.99252 0 L -1.19551 1.59401 L 0 0 L -1.19551 -1.59401 "/>
</svg>
