<?xml version="1.0" encoding="UTF-8" standalone="no"?>
<!DOCTYPE svg PUBLIC "-//W3C//DTD SVG 1.1//EN" "http://www.w3.org/Graphics/SVG/1.1/DTD/svg11.dtd">
<svg xmlns="http://www.w3.org/2000/svg" xmlns:xlink="http://www.w3.org/1999/xlink" version="1.1" width="207.028pt" height="174.721pt" viewBox="0 0 207.028 174.721">
<clipPath id="cp0">
<path transform="matrix(1,0,0,-1,.199,174.52199)" d="M 0 0 L 194.25801 0 L 194.25801 161.39667 L 0 161.39667 Z "/>
</clipPath>
<g clip-path="url(#cp0)">
<path transform="matrix(1,0,0,-1,.199,174.52199)" d="M 69.49066 134.49723 L 73.70221 134.49723 L 77.91374 134.49723 L 82.12529 134.49723 L 86.33685 134.49723 L 90.54839 134.49723 L 94.75993 134.49723 L 98.97147 134.49723 L 103.18303 134.49723 L 107.39456 134.49723 L 111.60611 134.49723 L 115.81764 134.49723 L 120.0292 134.49723 L 124.24074 134.49723 L 128.45229 134.49723 L 132.66384 134.49723 L 136.87538 134.49723 L 141.08693 134.49723 L 145.29846 134.49723 L 149.51001 134.49723 L 153.72156 134.49723 L 157.9331 134.49723 L 162.14464 134.49723 L 166.35619 134.49723 L 170.56774 134.49723 L 170.56774 134.57364 L 166.35619 132.59706 L 162.14464 130.54619 L 157.9331 128.41684 L 153.72156 126.19711 L 149.51001 123.8838 L 145.29846 121.46927 L 141.08693 118.9375 L 136.87538 116.27983 L 132.66384 113.4844 L 128.45229 110.5352 L 124.24074 107.41486 L 120.0292 104.10243 L 115.81764 100.57162 L 111.60611 96.79546 L 107.39456 92.73206 L 103.18303 88.33832 L 98.97147 83.55663 L 94.75993 78.30374 L 90.54839 72.48105 L 86.33685 65.95206 L 82.12529 58.51917 L 77.91374 49.89038 L 73.70221 39.61583 L 69.49066 26.89944 Z " fill="#cccce6"/>
</g>
<clipPath id="cp1">
<path transform="matrix(1,0,0,-1,.199,174.52199)" d="M 0 0 L 194.25801 0 L 194.25801 161.39667 L 0 161.39667 Z "/>
</clipPath>
<g clip-path="url(#cp1)">
<path transform="matrix(1,0,0,-1,.199,174.52199)" stroke-width="1.19553" stroke-linecap="butt" stroke-miterlimit="10" stroke-linejoin="miter" fill="none" stroke="#000080" d="M -9.476 134.49723 C -9.476 134.49723 -3.29524 134.49723 -.92139 134.49723 C 1.45247 134.49723 5.25935 134.49723 7.63322 134.49723 C 10.0071 134.49723 13.81396 134.49723 16.18784 134.49723 C 18.5617 134.49723 22.36859 134.49723 24.74246 134.49723 C 27.11632 134.49723 30.9232 134.49723 33.29707 134.49723 C 35.67093 134.49723 39.47783 134.49723 41.8517 134.49723 C 44.22556 134.49723 48.03246 134.49723 50.40631 134.49723 C 52.78018 134.49723 56.58707 134.49723 58.96092 134.49723 C 61.3348 134.49723 65.1417 134.49723 67.51555 134.49723 C 69.88942 134.49723 73.69629 134.49723 76.07016 134.49723 C 78.44403 134.49723 82.25092 134.49723 84.62479 134.49723 C 86.99864 134.49723 90.80553 134.49723 93.1794 134.49723 C 95.55325 134.49723 99.36015 134.49723 101.73402 134.49723 C 104.10788 134.49723 107.91478 134.49723 110.28865 134.49723 C 112.6625 134.49723 116.46939 134.49723 118.84325 134.49723 C 121.21712 134.49723 125.02402 134.49723 127.39787 134.49723 C 129.77175 134.49723 133.57863 134.49723 135.95249 134.49723 C 138.32636 134.49723 142.13324 134.49723 144.50711 134.49723 C 146.88098 134.49723 150.68785 134.49723 153.06172 134.49723 C 155.43558 134.49723 159.24248 134.49723 161.61635 134.49723 C 163.9902 134.49723 167.7971 134.49723 170.17098 134.49723 C 172.54483 134.49723 176.35172 134.49723 178.72557 134.49723 C 181.09944 134.49723 184.90634 134.49723 187.2802 134.49723 C 189.65407 134.49723 195.83481 134.49723 195.83481 134.49723 "/>
<path transform="matrix(1,0,0,-1,.199,174.52199)" stroke-width="1.19553" stroke-linecap="butt" stroke-miterlimit="10" stroke-linejoin="miter" fill="none" stroke="#800000" d="M 58.96092 -32.21967 C 58.96092 -32.21967 65.1417 8.90782 67.51555 19.70976 C 69.88942 30.51172 73.69629 39.62016 76.07016 45.63324 C 78.44403 51.64633 82.25092 58.80795 84.62479 63.04793 C 86.99864 67.28792 90.80553 72.9049 93.1794 76.19212 C 95.55325 79.47934 99.36015 84.05319 101.73402 86.73994 C 104.10788 89.4267 107.91478 93.28204 110.28865 95.55647 C 112.6625 97.8309 116.46939 101.16025 118.84325 103.13245 C 121.21712 105.10464 125.02402 108.02998 127.39787 109.77069 C 129.77175 111.51141 133.57863 114.12044 135.95249 115.67834 C 138.32636 117.23627 142.13324 119.58858 144.50711 120.99905 C 146.88098 122.40955 150.68785 124.55614 153.06172 125.84421 C 155.43558 127.13226 159.24248 129.09754 161.61635 130.2826 C 163.9902 131.46765 167.7971 133.28662 170.17098 134.38532 C 172.54483 135.48401 176.35172 137.17733 178.72557 138.2013 C 181.09944 139.22528 184.90634 140.8076 187.2802 141.76543 C 189.65407 142.72327 195.83481 145.10472 195.83481 145.10472 "/>
<path transform="matrix(1,0,0,-1,.199,174.52199)" stroke-width="1.19553" stroke-linecap="butt" stroke-miterlimit="10" stroke-linejoin="miter" fill="none" stroke="#800080" d="M -9.476 26.89944 C -9.476 26.89944 -3.29524 26.89944 -.92139 26.89944 C 1.45247 26.89944 5.25935 26.89944 7.63322 26.89944 C 10.0071 26.89944 13.81396 26.89944 16.18784 26.89944 C 18.5617 26.89944 22.36859 26.89944 24.74246 26.89944 C 27.11632 26.89944 30.9232 26.89944 33.29707 26.89944 C 35.67093 26.89944 39.47783 26.89944 41.8517 26.89944 C 44.22556 26.89944 48.03246 26.89944 50.40631 26.89944 C 52.78018 26.89944 56.58707 26.89944 58.96092 26.89944 C 61.3348 26.89944 65.1417 26.89944 67.51555 26.89944 C 69.88942 26.89944 73.69629 26.89944 76.07016 26.89944 C 78.44403 26.89944 82.25092 26.89944 84.62479 26.89944 C 86.99864 26.89944 90.80553 26.89944 93.1794 26.89944 C 95.55325 26.89944 99.36015 26.89944 101.73402 26.89944 C 104.10788 26.89944 107.91478 26.89944 110.28865 26.89944 C 112.6625 26.89944 116.46939 26.89944 118.84325 26.89944 C 121.21712 26.89944 125.02402 26.89944 127.39787 26.89944 C 129.77175 26.89944 133.57863 26.89944 135.95249 26.89944 C 138.32636 26.89944 142.13324 26.89944 144.50711 26.89944 C 146.88098 26.89944 150.68785 26.89944 153.06172 26.89944 C 155.43558 26.89944 159.24248 26.89944 161.61635 26.89944 C 163.9902 26.89944 167.7971 26.89944 170.17098 26.89944 C 172.54483 26.89944 176.35172 26.89944 178.72557 26.89944 C 181.09944 26.89944 184.90634 26.89944 187.2802 26.89944 C 189.65407 26.89944 195.83481 26.89944 195.83481 26.89944 "/>
<path transform="matrix(1,0,0,-1,.199,174.52199)" stroke-width="1.19553" stroke-linecap="butt" stroke-miterlimit="10" stroke-linejoin="miter" fill="none" stroke="#008000" d="M 69.49066 -188.29611 L 69.49066 672.4861 "/>
<path transform="matrix(1,0,0,-1,.199,174.52199)" stroke-width="1.19553" stroke-linecap="butt" stroke-dasharray="1.19553,1.99255" stroke-miterlimit="10" stroke-linejoin="miter" fill="none" stroke="#cc6600" d="M 37.90399 0 L 37.90399 161.39667 "/>
<symbol id="font_2_1">
<path d="M .305 .31300003 C .311 .33900003 .334 .43100003 .404 .43100003 C .409 .43100003 .433 .43100003 .454 .418 C .426 .41300003 .40600003 .388 .40600003 .36400003 C .40600003 .34800003 .417 .32900004 .444 .32900004 C .46600003 .32900004 .498 .34700004 .498 .38700003 C .498 .43900005 .439 .45300005 .405 .45300005 C .347 .45300005 .312 .40000005 .3 .37700004 C .275 .44300003 .221 .45300005 .19200002 .45300005 C .08800001 .45300005 .031000002 .32400004 .031000002 .29900003 C .031000002 .28900004 .041 .28900004 .043000007 .28900004 C .051000008 .28900004 .054000006 .291 .056 .3 C .09 .40600003 .156 .43100003 .19000001 .43100003 C .209 .43100003 .244 .42200003 .244 .36400003 C .244 .33300004 .22700002 .26600004 .19000001 .126 C .17400001 .064 .13900002 .022000002 .095000009 .022000002 C .08900001 .022000002 .06600001 .022000002 .045 .035 C .07000001 .040000004 .09200001 .061 .09200001 .089 C .09200001 .116000007 .07000001 .124000009 .055000009 .124000009 C .025 .124000009 0 .098000008 0 .06600001 C 0 .020000002 .050000006 0 .094000007 0 C .16000001 0 .19600001 .07000001 .19900002 .076000008 C .21100001 .039 .24700003 0 .307 0 C .41 0 .467 .12900001 .467 .15400002 C .467 .16400002 .458 .16400002 .455 .16400002 C .446 .16400002 .444 .16000001 .442 .15300001 C .409 .046 .341 .022000002 .30900003 .022000002 C .27 .022000002 .254 .054 .254 .08800001 C .254 .11000001 .26 .13200002 .271 .17600002 L .305 .31300003 Z "/>
</symbol>
<use xlink:href="#font_2_1" transform="matrix(9.9626,0,0,-9.9626,73.791919,21.826584)" fill="#008000"/>
<symbol id="font_3_8">
<path d="M .63100007 .19400002 C .646 .19400002 .665 .19400002 .665 .214 C .665 .23400001 .646 .23400001 .632 .23400001 L .033 .23400001 C .019000002 .23400001 0 .23400001 0 .214 C 0 .19400002 .019000002 .19400002 .034 .19400002 L .63100007 .19400002 M .632 0 C .646 0 .665 0 .665 .02000001 C .665 .040000008 .646 .040000008 .63100007 .040000008 L .034 .040000008 C .019000002 .040000008 0 .040000008 0 .02000001 C 0 0 .019000002 0 .033 0 L .632 0 Z "/>
</symbol>
<symbol id="font_3_3">
<path d="M .205 .64000007 C .205 .66400006 .205 .666 .18200003 .666 C .120000008 .60200008 .032000007 .60200008 0 .60200008 L 0 .57100006 C .020000004 .57100006 .07900001 .57100006 .13100001 .597 L .13100001 .079 C .13100001 .043 .128 .031000002 .038000004 .031000002 L .0060000049 .031000002 L .0060000049 0 C .04100001 .003 .128 .003 .168 .003 C .20800002 .003 .29500003 .003 .33000005 0 L .33000005 .031000002 L .29800005 .031000002 C .20800002 .031000002 .205 .042000005 .205 .079 L .205 .64000007 Z "/>
</symbol>
<use xlink:href="#font_3_8" transform="matrix(9.9626,0,0,-9.9626,82.521907,20.39197)" fill="#008000"/>
<use xlink:href="#font_3_3" transform="matrix(9.9626,0,0,-9.9626,93.37117,21.716996)" fill="#008000"/>
<use xlink:href="#font_2_1" transform="matrix(9.9626,0,0,-9.9626,2.0069156,96.72957)" fill="#cc6600"/>
<use xlink:href="#font_3_8" transform="matrix(9.9626,0,0,-9.9626,10.736906,95.29495)" fill="#cc6600"/>
<symbol id="font_4_1">
<path d="M .57600006 0 C .59300008 0 .611 0 .611 .019999996 C .611 .040000008 .59300008 .040000008 .57600006 .040000008 L .035000005 .040000008 C .018 .040000008 0 .040000008 0 .019999996 C 0 0 .018 0 .035000005 0 L .57600006 0 Z "/>
</symbol>
<use xlink:href="#font_4_1" transform="matrix(9.9626,0,0,-9.9626,21.521897,94.32858)" fill="#cc6600"/>
<use xlink:href="#font_3_3" transform="matrix(9.9626,0,0,-9.9626,29.330672,96.61998)" fill="#cc6600"/>
<symbol id="font_2_2">
<path d="M .45700003 .586 C .461 .6 .461 .602 .461 .609 C .461 .62700006 .447 .63600006 .432 .63600006 C .42200003 .63600006 .40600003 .63 .397 .615 C .395 .61 .387 .579 .38300003 .561 C .37600003 .535 .36900003 .508 .363 .48100005 L .318 .301 C .314 .286 .271 .21600002 .20500002 .21600002 C .15400002 .21600002 .143 .26000003 .143 .29700003 C .143 .34300003 .16000001 .40500004 .194 .49300004 C .21000001 .53400006 .21400002 .545 .21400002 .56500008 C .21400002 .61 .18200001 .6470001 .13200002 .6470001 C .037 .6470001 0 .50200006 0 .49300004 C 0 .48300005 .01 .48300005 .012 .48300005 C .022000002 .48300005 .023 .485 .028000003 .50100007 C .055000009 .595 .095000009 .625 .12900001 .625 C .13700001 .625 .15400002 .625 .15400002 .59300008 C .15400002 .568 .14400001 .54200008 .13700001 .523 C .097 .41700004 .079 .36 .079 .31300003 C .079 .224 .142 .194 .201 .194 C .24000003 .194 .274 .21100001 .30200003 .23900002 C .289 .187 .277 .13800001 .237 .08500001 C .21100001 .051 .17300001 .022 .127 .022 C .113000009 .022 .068 .025000006 .051000008 .06400001 C .067 .06400001 .080000009 .06400001 .094000007 .076000008 C .104 .08500001 .11400001 .098000008 .11400001 .117000009 C .11400001 .148 .087000008 .15200001 .07700001 .15200001 C .054000006 .15200001 .021 .136 .021 .087000008 C .021 .037 .065000008 0 .127 0 C .23 0 .333 .091000009 .361 .20400001 L .45700003 .586 Z "/>
</symbol>
<use xlink:href="#font_2_2" transform="matrix(9.9626,0,0,-9.9626,113.500919,36.240316)" fill="#000080"/>
<symbol id="font_3_4">
<path d="M .07700001 .07700001 L .18300002 .18 C .33900003 .31800003 .39900003 .372 .39900003 .47200004 C .39900003 .586 .30900003 .666 .18700002 .666 C .074 .666 0 .574 0 .485 C 0 .42900003 .05 .42900003 .053000008 .42900003 C .07000001 .42900003 .105000007 .441 .105000007 .48200003 C .105000007 .508 .08700001 .53400006 .052000006 .53400006 C .044000005 .53400006 .042000008 .53400006 .039 .53300008 C .062000004 .59800007 .11600001 .63500007 .17400001 .63500007 C .26500003 .63500007 .308 .554 .308 .47200004 C .308 .39200003 .25800003 .31300003 .20300003 .25100003 L .011000004 .037 C 0 .026 0 .024 0 0 L .37100003 0 L .39900003 .17400001 L .374 .17400001 C .36900003 .14400001 .36200003 .1 .352 .085 C .345 .07700001 .279 .07700001 .257 .07700001 L .07700001 .07700001 Z "/>
</symbol>
<use xlink:href="#font_3_8" transform="matrix(9.9626,0,0,-9.9626,121.77891,32.872957)" fill="#000080"/>
<use xlink:href="#font_3_4" transform="matrix(9.9626,0,0,-9.9626,132.23964,34.197984)" fill="#000080"/>
<use xlink:href="#font_2_2" transform="matrix(9.9626,0,0,-9.9626,120.91192,82.218318)" fill="#800000"/>
<symbol id="font_3_9">
<path d="M .144 .694 L 0 .683 L 0 .652 C .07000001 .652 .07800001 .64500007 .07800001 .596 L .07800001 .076000008 C .07800001 .031000002 .067 .031000002 0 .031000002 L 0 0 C .033 .001 .086 .003 .11100001 .003 C .136 .003 .185 .001 .22200004 0 L .22200004 .031000002 C .155 .031000002 .144 .031000002 .144 .076000008 L .144 .694 Z "/>
</symbol>
<symbol id="font_3_a">
<path d="M .07800001 .344 L .07800001 .076000008 C .07800001 .031000002 .067 .031000002 0 .031000002 L 0 0 C .035 .001 .08600001 .003 .113000009 .003 C .139 .003 .191 .001 .225 0 L .225 .031000002 C .158 .031000002 .147 .031000002 .147 .076000008 L .147 .26000003 C .147 .36400003 .218 .42000003 .282 .42000003 C .345 .42000003 .356 .36600004 .356 .30900003 L .356 .076000008 C .356 .031000002 .345 .031000002 .278 .031000002 L .278 0 C .31300003 .001 .36400003 .003 .391 .003 C .41700004 .003 .46900005 .001 .503 0 L .503 .031000002 C .451 .031000002 .42600004 .031000002 .425 .061000006 L .425 .252 C .425 .33800004 .425 .36900003 .39400003 .40500004 C .38000003 .42200003 .347 .44200004 .289 .44200004 C .216 .44200004 .169 .39900003 .141 .337 L .141 .44200004 L 0 .43100003 L 0 .4 C .07000001 .4 .07800001 .393 .07800001 .344 Z "/>
</symbol>
<symbol id="font_3_1">
<path d="M .23200003 .00999999 C .23200003 .012999982 .23200003 .014999986 .215 .03199999 C .09 .15799999 .058 .347 .058 .5 C .058 .674 .096 .84800007 .21900001 .97300007 C .23200003 .985 .23200003 .98700007 .23200003 .99 C .23200003 .99700006 .22800002 1 .222 1 C .21200001 1 .12200001 .93200007 .06299999 .805 C .012000002 .69500008 0 .584 0 .5 C 0 .422 .011 .301 .066 .188 C .126 .065 .21200001 0 .222 0 C .22800002 0 .23200003 .0029999912 .23200003 .00999999 Z "/>
</symbol>
<use xlink:href="#font_3_8" transform="matrix(9.9626,0,0,-9.9626,129.18991,78.85095)" fill="#800000"/>
<use xlink:href="#font_3_9" transform="matrix(9.9626,0,0,-9.9626,139.48128,80.17598)" fill="#800000"/>
<use xlink:href="#font_3_a" transform="matrix(9.9626,0,0,-9.9626,142.24092,80.17598)" fill="#800000"/>
<use xlink:href="#font_3_1" transform="matrix(9.9626,0,0,-9.9626,148.44762,82.666629)" fill="#800000"/>
<use xlink:href="#font_2_1" transform="matrix(9.9626,0,0,-9.9626,151.61392,80.28557)" fill="#800000"/>
<symbol id="font_3_2">
<path d="M .232 .5 C .232 .578 .22100002 .699 .16600001 .81200006 C .106 .93500009 .020000004 1 .009999998 1 C .0040000008 1 0 .99600008 0 .99 C 0 .98700007 0 .985 .019000002 .967 C .117000009 .86800006 .174 .709 .174 .5 C .174 .329 .137 .153 .012999997 .026999996 C 0 .014999986 0 .012999982 0 .00999999 C 0 .003999993 .0040000008 0 .009999998 0 C .020000004 0 .11000001 .06799999 .169 .195 C .22 .305 .232 .416 .232 .5 Z "/>
</symbol>
<use xlink:href="#font_3_2" transform="matrix(9.9626,0,0,-9.9626,157.58689,82.666629)" fill="#800000"/>
</g>
<use xlink:href="#font_4_1" transform="matrix(9.9626,0,0,-9.9626,16.771897,157.39659)"/>
<use xlink:href="#font_3_4" transform="matrix(9.9626,0,0,-9.9626,24.191132,159.68799)"/>
<use xlink:href="#font_3_4" transform="matrix(9.9626,0,0,-9.9626,83.49013,159.68799)"/>
<symbol id="font_3_5">
<path d="M .266 .165 L .266 .078 C .266 .042000005 .26400004 .031000002 .19000001 .031000002 L .16900002 .031000002 L .16900002 0 C .21000001 .003 .26200003 .003 .30400003 .003 C .34600003 .003 .39900003 .003 .44000004 0 L .44000004 .031000002 L .41900004 .031000002 C .34500004 .031000002 .34300003 .042000005 .34300003 .078 L .34300003 .165 L .44300003 .165 L .44300003 .19600001 L .34300003 .19600001 L .34300003 .651 C .34300003 .671 .34300003 .67700007 .32700003 .67700007 C .31800003 .67700007 .31500004 .67700007 .307 .665 L 0 .19600001 L 0 .165 L .266 .165 M .272 .19600001 L .028 .19600001 L .272 .569 L .272 .19600001 Z "/>
</symbol>
<use xlink:href="#font_3_5" transform="matrix(9.9626,0,0,-9.9626,114.85695,159.68799)"/>
<symbol id="font_3_6">
<path d="M .089999999 .35000003 L .089999999 .37400005 C .089999999 .62700006 .21400002 .66300007 .26500003 .66300007 C .28900004 .66300007 .33100004 .65700009 .35300002 .623 C .33800004 .623 .298 .623 .298 .57800009 C .298 .54700008 .32200004 .53200009 .344 .53200009 C .36 .53200009 .39000003 .54100009 .39000003 .58000007 C .39000003 .64000007 .34600003 .688 .263 .688 C .13499999 .688 0 .559 0 .33800004 C 0 .071 .116000007 0 .20900002 0 C .32000003 0 .41500003 .094000007 .41500003 .22600001 C .41500003 .35300005 .32600004 .44900004 .215 .44900004 C .14700002 .44900004 .11000001 .39800004 .089999999 .35000003 M .20900002 .028 C .146 .028 .116000007 .088 .11000001 .103 C .092 .15 .092 .23 .092 .24800001 C .092 .32600004 .124000009 .42600004 .21400002 .42600004 C .23000002 .42600004 .27600003 .42600004 .307 .36400003 C .32500003 .32700003 .32500003 .27600003 .32500003 .22700002 C .32500003 .179 .32500003 .12900001 .30800004 .093 C .27800004 .033000005 .23200003 .028 .20900002 .028 Z "/>
</symbol>
<use xlink:href="#font_3_6" transform="matrix(9.9626,0,0,-9.9626,146.58243,159.90717)"/>
<symbol id="font_3_7">
<path d="M .121 .47900004 C .075 .509 .071 .54300007 .071 .56000009 C .071 .62100008 .136 .66300007 .20700002 .66300007 C .28000004 .66300007 .344 .61100009 .344 .53900006 C .344 .48200003 .305 .43400005 .245 .39900003 L .121 .47900004 M .26700003 .38400004 C .33900003 .42100004 .388 .47300006 .388 .53900006 C .388 .63100007 .29900003 .688 .208 .688 C .108 .688 .027000003 .614 .027000003 .521 C .027000003 .503 .029 .45800004 .071 .41100005 C .082 .39900003 .11900001 .37400005 .144 .35700003 C .086 .32800005 0 .272 0 .17300001 C 0 .067 .102000009 0 .20700002 0 C .32000003 0 .41500003 .083000008 .41500003 .19000001 C .41500003 .22600001 .404 .27100004 .36600004 .31300003 C .34700004 .33400003 .33100004 .34400005 .26700003 .38400004 M .167 .34200005 L .29000003 .26400004 C .31800003 .245 .365 .215 .365 .154 C .365 .080000009 .29000003 .028 .208 .028 C .122 .028 .050000006 .09 .050000006 .17300001 C .050000006 .231 .082 .29500003 .167 .34200005 Z "/>
</symbol>
<use xlink:href="#font_3_7" transform="matrix(9.9626,0,0,-9.9626,178.16843,159.90717)"/>
<use xlink:href="#font_3_3" transform="matrix(9.9626,0,0,-9.9626,44.155675,97.03498)"/>
<use xlink:href="#font_3_4" transform="matrix(9.9626,0,0,-9.9626,43.76713,43.235994)"/>
<use xlink:href="#font_2_1" transform="matrix(9.9626,0,0,-9.9626,198.30292,149.83658)"/>
<use xlink:href="#font_2_2" transform="matrix(9.9626,0,0,-9.9626,51.575918,9.652319)"/>
<path transform="matrix(1,0,0,-1,.199,174.52199)" stroke-width="1" stroke-linecap="butt" stroke-miterlimit="10" stroke-linejoin="miter" fill="none" stroke="#808080" d="M 22.11066 24.77411 L 22.11066 29.02475 M 85.284 24.77411 L 85.284 29.02475 M 116.87067 24.77411 L 116.87067 29.02475 M 148.45735 24.77411 L 148.45735 29.02475 M 180.04402 24.77411 L 180.04402 29.02475 "/>
<path transform="matrix(1,0,0,-1,.199,174.52199)" stroke-width="1" stroke-linecap="butt" stroke-miterlimit="10" stroke-linejoin="miter" fill="none" stroke="#808080" d="M 51.57135 80.69833 L 55.8233 80.69833 M 51.57135 134.49723 L 55.8233 134.49723 "/>
<path transform="matrix(1,0,0,-1,.199,174.52199)" stroke-width="1" stroke-linecap="butt" stroke-miterlimit="10" stroke-linejoin="miter" fill="none" stroke="#000000" d="M 0 26.89944 L 192.26549 26.89944 "/>
<path transform="matrix(1,0,0,-1,192.4645,147.62255)" d="M 1.99252 0 L -1.19551 1.59401 L 0 0 L -1.19551 -1.59401 "/>
<path transform="matrix(1,0,0,-1,.199,174.52199)" stroke-width="1" stroke-linecap="butt" stroke-miterlimit="10" stroke-linejoin="miter" fill="none" stroke="#000000" d="M 53.69733 0 L 53.69733 159.40415 "/>
<path transform="matrix(0,-1,-1,-0,53.89633,15.117844)" d="M 1.99252 0 L -1.19551 1.59401 L 0 0 L -1.19551 -1.59401 "/>
</svg>
