<?xml version="1.0" encoding="UTF-8" standalone="no"?>
<!DOCTYPE svg PUBLIC "-//W3C//DTD SVG 1.1//EN" "http://www.w3.org/Graphics/SVG/1.1/DTD/svg11.dtd">
<svg xmlns="http://www.w3.org/2000/svg" xmlns:xlink="http://www.w3.org/1999/xlink" version="1.1" width="228.524pt" height="174.709pt" viewBox="0 0 228.524 174.709">
<clipPath id="cp0">
<path transform="matrix(1,0,0,-1,21.696,174.51)" d="M 0 0 L 194.2676 0 L 194.2676 161.39575 L 0 161.39575 Z "/>
</clipPath>
<g clip-path="url(#cp0)">
<path transform="matrix(1,0,0,-1,21.696,174.51)" d="M 43.17058 134.49646 L 46.76808 128.28899 L 50.36562 122.96814 L 53.96315 118.35687 L 57.56068 114.32216 L 61.15822 110.76178 L 64.75575 107.59717 L 68.35329 104.76555 L 71.95082 102.21739 L 75.54836 99.91158 L 79.14589 97.81567 L 82.74342 95.90189 L 86.34096 94.14752 L 89.93848 92.53355 L 93.53601 91.04378 L 97.13354 89.6643 L 100.73108 88.38344 L 104.32861 87.1909 L 107.92615 86.07773 L 111.52368 85.03662 L 115.12122 84.06046 L 118.71875 83.14337 L 122.31628 82.28017 L 125.91382 81.46645 L 129.51136 80.69804 L 129.51136 80.69771 L 125.91382 79.20331 L 122.31628 77.70891 L 118.71875 76.21452 L 115.12122 74.72012 L 111.52368 73.22572 L 107.92615 71.73132 L 104.32861 70.23694 L 100.73108 68.74254 L 97.13354 67.24814 L 93.53601 65.75372 L 89.93848 64.25932 L 86.34096 62.76492 L 82.74342 61.27052 L 79.14589 59.77614 L 75.54836 58.28174 L 71.95082 56.78734 L 68.35329 55.29294 L 64.75575 53.79855 L 61.15822 52.30415 L 57.56068 50.80972 L 53.96315 49.31534 L 50.36562 47.82094 L 46.76808 46.32654 L 43.17058 44.83215 Z " fill="#cccce6"/>
</g>
<clipPath id="cp1">
<path transform="matrix(1,0,0,-1,21.696,174.51)" d="M 0 0 L 194.2676 0 L 194.2676 161.39575 L 0 161.39575 Z "/>
</clipPath>
<g clip-path="url(#cp1)">
<path transform="matrix(1,0,0,-1,21.696,174.51)" d="M 21.58528 35.86572 L 22.5746 36.27667 L 23.5639 36.68762 L 24.55324 37.0986 L 25.54257 37.50955 L 26.53189 37.9205 L 27.52121 38.33147 L 28.51053 38.74243 L 29.49986 39.15338 L 30.48918 39.56435 L 31.4785 39.9753 L 32.46782 40.38626 L 33.45714 40.79724 L 34.44647 41.20819 L 35.43579 41.61914 L 36.42513 42.03012 L 37.41443 42.44107 L 38.40376 42.85204 L 39.3931 43.26299 L 40.3824 43.67395 L 41.37172 44.08492 L 42.36105 44.49586 L 43.35036 44.90683 L 44.33969 45.3178 L 45.32901 45.72876 L 45.32901 144.35923 L 44.33969 139.83855 L 43.35036 135.31816 L 42.36105 130.7975 L 41.37172 126.27695 L 40.3824 121.7564 L 39.3931 117.23582 L 38.40376 112.71524 L 37.41443 108.19469 L 36.42513 103.67413 L 35.43579 99.15358 L 34.44647 94.63303 L 33.45714 90.11244 L 32.46782 85.59189 L 31.4785 81.07132 L 30.48918 76.55077 L 29.49986 72.03021 L 28.51053 67.50964 L 27.52121 62.98907 L 26.53189 58.46852 L 25.54257 53.94797 L 24.55324 49.4274 L 23.5639 44.90681 L 22.5746 40.38626 L 21.58528 35.86572 Z " fill="#cccce6"/>
</g>
<clipPath id="cp2">
<path transform="matrix(1,0,0,-1,21.696,174.51)" d="M 0 0 L 194.2676 0 L 194.2676 161.39575 L 0 161.39575 Z "/>
</clipPath>
<g clip-path="url(#cp2)">
<path transform="matrix(1,0,0,-1,21.696,174.51)" stroke-width="1.19553" stroke-linecap="butt" stroke-miterlimit="10" stroke-linejoin="miter" fill="none" stroke="#000080" d="M 0 26.89929 C 0 26.89929 5.19844 29.0587 7.19504 29.88808 C 9.19164 30.71744 12.39352 32.0475 14.39012 32.87688 C 16.38672 33.70624 19.5886 35.0363 21.58519 35.86568 C 23.58179 36.69504 26.78366 38.0251 28.78026 38.85448 C 30.77686 39.68384 33.97873 41.0139 35.97533 41.84328 C 37.97192 42.67264 41.1738 44.0027 43.1704 44.83208 C 45.16699 45.66144 48.36885 46.9915 50.36545 47.82088 C 52.36205 48.65024 55.56392 49.9803 57.56052 50.80968 C 59.55711 51.63904 62.75899 52.96909 64.75558 53.79846 C 66.75218 54.62782 69.95406 55.95789 71.95065 56.78726 C 73.94725 57.61664 77.14912 58.94667 79.14572 59.77605 C 81.14232 60.60542 84.3442 61.9355 86.34079 62.76488 C 88.33739 63.59425 91.53925 64.92429 93.53584 65.75366 C 95.53244 66.58304 98.73431 67.91307 100.73091 68.74245 C 102.72751 69.57182 105.92938 70.90187 107.92598 71.73125 C 109.92258 72.56062 113.12445 73.89066 115.12105 74.72003 C 117.11765 75.54941 120.31952 76.87949 122.31612 77.70886 C 124.31271 78.53824 127.51459 79.86827 129.51119 80.69765 C 131.50778 81.52702 134.70966 82.85707 136.70626 83.68645 C 138.70285 84.51582 141.90471 85.84586 143.9013 86.67523 C 145.8979 87.50461 149.09978 88.83466 151.09638 89.66403 C 153.09297 90.49341 156.29485 91.82347 158.29145 92.65285 C 160.28804 93.48222 163.48992 94.81226 165.48651 95.64163 C 167.48311 96.47101 172.68158 98.63043 172.68158 98.63043 "/>
<path transform="matrix(1,0,0,-1,21.696,174.51)" stroke-width="1.19553" stroke-linecap="butt" stroke-miterlimit="10" stroke-linejoin="miter" fill="none" stroke="#800000" d="M 7.19504 537.9876 C 7.19504 537.9876 12.39352 340.68009 14.39012 295.8931 C 16.38672 251.10614 19.5886 231.98949 21.58519 215.19434 C 23.58179 198.39919 26.78366 183.80274 28.78026 174.8454 C 30.77686 165.88806 33.97873 156.23424 35.97533 150.63603 C 37.97192 145.03783 41.1738 138.33617 43.1704 134.49736 C 45.16699 130.65854 48.36885 125.76767 50.36545 122.9684 C 52.36205 120.16914 55.56392 116.45485 57.56052 114.32216 C 59.55711 112.18945 62.75899 109.27682 64.75558 107.59734 C 66.75218 105.91783 69.95406 103.57465 71.95065 102.21747 C 73.94725 100.8603 77.14912 98.93533 79.14572 97.81567 C 81.14232 96.69601 84.3442 95.08727 86.34079 94.14769 C 88.33739 93.2081 91.53925 91.84354 93.53584 91.04378 C 95.53244 90.24402 98.73431 89.07253 100.73091 88.38351 C 102.72751 87.69452 105.92938 86.6777 107.92598 86.0779 C 109.92258 85.47809 113.12445 84.58736 115.12105 84.06046 C 117.11765 83.53355 120.31952 82.74678 122.31612 82.28026 C 124.31271 81.81374 127.51459 81.114 129.51119 80.69804 C 131.50778 80.28207 134.70966 79.65547 136.70626 79.28224 C 138.70285 78.90903 141.90471 78.34477 143.9013 78.00803 C 145.8979 77.6713 149.09978 77.16055 151.09638 76.85521 C 153.09297 76.54987 156.29485 76.08537 158.29145 75.8072 C 160.28804 75.52905 163.48992 75.10475 165.48651 74.85031 C 167.48311 74.59586 172.68158 73.97322 172.68158 73.97322 "/>
<path transform="matrix(1,0,0,-1,21.696,174.51)" stroke-width="1.19553" stroke-linecap="butt" stroke-miterlimit="10" stroke-linejoin="miter" fill="none" stroke="#cc6600" d="M 0 -62.76501 C 0 -62.76501 5.19844 -39.01143 7.19504 -29.88826 C 9.19164 -20.76508 12.39352 -6.13461 14.39012 2.98856 C 16.38672 12.11172 19.5886 26.74213 21.58519 35.86531 C 23.58179 44.98848 26.78366 59.61891 28.78026 68.7421 C 30.77686 77.86526 33.97873 92.49568 35.97533 101.61887 C 37.97192 110.74203 41.1738 125.37247 43.1704 134.49567 C 45.16699 143.61887 48.36885 158.24938 50.36545 167.37256 C 52.36205 176.49575 55.56392 191.1261 57.56052 200.24927 C 59.55711 209.37244 62.75899 224.00283 64.75558 233.12598 C 66.75218 242.24915 69.95406 256.87953 71.95065 266.0027 C 73.94725 275.12586 77.14912 289.7562 79.14572 298.87944 C 81.14232 308.00263 84.3442 322.6332 86.34079 331.7564 C 88.33739 340.87965 91.53925 355.50999 93.53584 364.63316 C 95.53244 373.7563 98.73431 388.3867 100.73091 397.50987 C 102.72751 406.633 105.92938 421.2634 107.92598 430.38658 C 109.92258 439.50975 113.12445 454.14006 115.12105 463.26329 C 117.11765 472.38648 120.31952 487.01707 122.31612 496.1403 C 124.31271 505.2635 127.51459 519.89389 129.51119 529.017 C 131.50778 538.1402 134.70966 552.77059 136.70626 561.8937 C 138.70285 571.0169 141.90471 585.6473 143.9013 594.77047 C 145.8979 603.8936 149.09978 618.5239 151.09638 627.64718 C 153.09297 636.7704 156.29485 651.40097 158.29145 660.5242 C 160.28804 669.64736 163.48992 684.2777 165.48651 693.4009 C 167.48311 702.52407 172.68158 726.2776 172.68158 726.2776 "/>
<path transform="matrix(1,0,0,-1,21.696,174.51)" stroke-width="1.19553" stroke-linecap="butt" stroke-dasharray="1.19553,1.99255" stroke-miterlimit="10" stroke-linejoin="miter" fill="none" stroke="#008000" d="M 0 8.96643 L 7.19504 8.96643 L 14.39012 8.96643 L 21.58519 8.96643 L 28.78026 8.96643 L 35.97533 8.96643 L 43.1704 8.96643 L 50.36545 8.96643 L 57.56052 8.96643 L 64.75558 8.96643 L 71.95065 8.96643 L 79.14572 8.96643 L 86.34079 8.96643 L 93.53584 8.96643 L 100.73091 8.96643 L 107.92598 8.96643 L 115.12105 8.96643 L 122.31612 8.96643 L 129.51119 8.96643 L 136.70626 8.96643 L 143.9013 8.96643 L 151.09638 8.96643 L 158.29145 8.96643 L 165.48651 8.96643 L 172.68158 8.96643 "/>
<symbol id="font_3_2">
<path d="M .45700003 .586 C .461 .6 .461 .602 .461 .609 C .461 .62700006 .447 .63600006 .432 .63600006 C .42200003 .63600006 .40600003 .63 .397 .615 C .395 .61 .387 .579 .38300003 .561 C .37600003 .535 .36900003 .508 .363 .48100005 L .318 .301 C .314 .286 .271 .21600002 .20500002 .21600002 C .15400002 .21600002 .143 .26000003 .143 .29700003 C .143 .34300003 .16000001 .40500004 .194 .49300004 C .21000001 .53400006 .21400002 .545 .21400002 .56500008 C .21400002 .61 .18200001 .6470001 .13200002 .6470001 C .037 .6470001 0 .50200006 0 .49300004 C 0 .48300005 .01 .48300005 .012 .48300005 C .022000002 .48300005 .023 .485 .028000003 .50100007 C .055000009 .595 .095000009 .625 .12900001 .625 C .13700001 .625 .15400002 .625 .15400002 .59300008 C .15400002 .568 .14400001 .54200008 .13700001 .523 C .097 .41700004 .079 .36 .079 .31300003 C .079 .224 .142 .194 .201 .194 C .24000003 .194 .274 .21100001 .30200003 .23900002 C .289 .187 .277 .13800001 .237 .08500001 C .21100001 .051 .17300001 .022 .127 .022 C .113000009 .022 .068 .025000006 .051000008 .06400001 C .067 .06400001 .080000009 .06400001 .094000007 .076000008 C .104 .08500001 .11400001 .098000008 .11400001 .117000009 C .11400001 .148 .087000008 .15200001 .07700001 .15200001 C .054000006 .15200001 .021 .136 .021 .087000008 C .021 .037 .065000008 0 .127 0 C .23 0 .333 .091000009 .361 .20400001 L .45700003 .586 Z "/>
</symbol>
<use xlink:href="#font_3_2" transform="matrix(9.9626,0,0,-9.9626,85.14591,142.92832)" fill="#000080"/>
<symbol id="font_4_8">
<path d="M .63100007 .19400002 C .646 .19400002 .665 .19400002 .665 .214 C .665 .23400001 .646 .23400001 .632 .23400001 L .033 .23400001 C .019000002 .23400001 0 .23400001 0 .214 C 0 .19400002 .019000002 .19400002 .034 .19400002 L .63100007 .19400002 M .632 0 C .646 0 .665 0 .665 .02000001 C .665 .040000008 .646 .040000008 .63100007 .040000008 L .034 .040000008 C .019000002 .040000008 0 .040000008 0 .02000001 C 0 0 .019000002 0 .033 0 L .632 0 Z "/>
</symbol>
<symbol id="font_4_3">
<path d="M .07700001 .07700001 L .18300002 .18 C .33900003 .31800003 .39900003 .372 .39900003 .47200004 C .39900003 .586 .30900003 .666 .18700002 .666 C .074 .666 0 .574 0 .485 C 0 .42900003 .05 .42900003 .053000008 .42900003 C .07000001 .42900003 .105000007 .441 .105000007 .48200003 C .105000007 .508 .08700001 .53400006 .052000006 .53400006 C .044000005 .53400006 .042000008 .53400006 .039 .53300008 C .062000004 .59800007 .11600001 .63500007 .17400001 .63500007 C .26500003 .63500007 .308 .554 .308 .47200004 C .308 .39200003 .25800003 .31300003 .20300003 .25100003 L .011000004 .037 C 0 .026 0 .024 0 0 L .37100003 0 L .39900003 .17400001 L .374 .17400001 C .36900003 .14400001 .36200003 .1 .352 .085 C .345 .07700001 .279 .07700001 .257 .07700001 L .07700001 .07700001 Z "/>
</symbol>
<use xlink:href="#font_4_8" transform="matrix(9.9626,0,0,-9.9626,93.423908,139.56096)" fill="#000080"/>
<use xlink:href="#font_4_3" transform="matrix(9.9626,0,0,-9.9626,103.88463,140.88599)" fill="#000080"/>
<symbol id="font_3_1">
<path d="M .305 .31300003 C .311 .33900003 .334 .43100003 .404 .43100003 C .409 .43100003 .433 .43100003 .454 .418 C .426 .41300003 .40600003 .388 .40600003 .36400003 C .40600003 .34800003 .417 .32900004 .444 .32900004 C .46600003 .32900004 .498 .34700004 .498 .38700003 C .498 .43900005 .439 .45300005 .405 .45300005 C .347 .45300005 .312 .40000005 .3 .37700004 C .275 .44300003 .221 .45300005 .19200002 .45300005 C .08800001 .45300005 .031000002 .32400004 .031000002 .29900003 C .031000002 .28900004 .041 .28900004 .043000007 .28900004 C .051000008 .28900004 .054000006 .291 .056 .3 C .09 .40600003 .156 .43100003 .19000001 .43100003 C .209 .43100003 .244 .42200003 .244 .36400003 C .244 .33300004 .22700002 .26600004 .19000001 .126 C .17400001 .064 .13900002 .022000002 .095000009 .022000002 C .08900001 .022000002 .06600001 .022000002 .045 .035 C .07000001 .040000004 .09200001 .061 .09200001 .089 C .09200001 .116000007 .07000001 .124000009 .055000009 .124000009 C .025 .124000009 0 .098000008 0 .06600001 C 0 .020000002 .050000006 0 .094000007 0 C .16000001 0 .19600001 .07000001 .19900002 .076000008 C .21100001 .039 .24700003 0 .307 0 C .41 0 .467 .12900001 .467 .15400002 C .467 .16400002 .458 .16400002 .455 .16400002 C .446 .16400002 .444 .16000001 .442 .15300001 C .409 .046 .341 .022000002 .30900003 .022000002 C .27 .022000002 .254 .054 .254 .08800001 C .254 .11000001 .26 .13200002 .271 .17600002 L .305 .31300003 Z "/>
</symbol>
<use xlink:href="#font_3_1" transform="matrix(9.9626,0,0,-9.9626,108.652919,140.99558)" fill="#000080"/>
<symbol id="font_5_1">
<path d="M .57600006 0 C .59300008 0 .611 0 .611 .019999996 C .611 .040000008 .59300008 .040000008 .57600006 .040000008 L .035000005 .040000008 C .018 .040000008 0 .040000008 0 .019999996 C 0 0 .018 0 .035000005 0 L .57600006 0 Z "/>
</symbol>
<use xlink:href="#font_5_1" transform="matrix(9.9626,0,0,-9.9626,117.09889,138.59459)" fill="#000080"/>
<symbol id="font_4_4">
<path d="M .24800003 .37400005 C .33 .40100003 .388 .47100006 .388 .55 C .388 .632 .3 .688 .204 .688 C .10300001 .688 .027000003 .628 .027000003 .55200007 C .027000003 .519 .049000004 .5 .078 .5 C .109000008 .5 .12900001 .522 .12900001 .55100008 C .12900001 .6010001 .082 .6010001 .067 .6010001 C .098 .65000006 .164 .66300007 .20000002 .66300007 C .24100003 .66300007 .29600004 .64100006 .29600004 .55100008 C .29600004 .53900006 .29400004 .48100005 .268 .43700005 C .238 .38900004 .204 .38600005 .17900002 .38500003 C .171 .38400004 .14700002 .38200004 .14000002 .38200004 C .132 .38100005 .125 .38000003 .125 .37000004 C .125 .35900004 .132 .35900004 .14900002 .35900004 L .19300002 .35900004 C .275 .35900004 .312 .29100005 .312 .193 C .312 .057000005 .24300003 .028 .199 .028 C .15600002 .028 .081 .045 .046000005 .104 C .081 .09900001 .11200001 .12100001 .11200001 .15900001 C .11200001 .19500001 .085 .215 .056 .215 C .031999999 .215 0 .201 0 .157 C 0 .06600001 .093 0 .20200002 0 C .32400004 0 .41500003 .091000009 .41500003 .193 C .41500003 .27500005 .35200004 .35300005 .24800003 .37400005 Z "/>
</symbol>
<use xlink:href="#font_4_4" transform="matrix(9.9626,0,0,-9.9626,126.65242,141.10517)" fill="#000080"/>
<use xlink:href="#font_3_2" transform="matrix(9.9626,0,0,-9.9626,95.01992,63.153318)" fill="#800000"/>
<symbol id="font_4_7">
<path d="M .32500003 .34000004 L .32500003 .30800004 C .32500003 .074 .22100002 .028 .16300002 .028 C .146 .028 .092 .030000002 .065000008 .064 C .109000008 .064 .117000009 .093 .117000009 .11000001 C .117000009 .141 .093 .156 .071 .156 C .055 .156 .024999999 .147 .024999999 .108 C .024999999 .041 .079 0 .164 0 C .293 0 .41500003 .136 .41500003 .35100005 C .41500003 .62000009 .3 .688 .21100003 .688 C .15600002 .688 .107 .67 .064 .62500008 C .023000002 .58000007 0 .53800007 0 .46300004 C 0 .33800004 .08800001 .24000001 .20000002 .24000001 C .261 .24000001 .30200003 .28200004 .32500003 .34000004 M .201 .263 C .185 .263 .139 .263 .108 .32600004 C .089999999 .36300005 .089999999 .41300006 .089999999 .46200005 C .089999999 .51600006 .089999999 .563 .11100001 .6 C .13800001 .65000006 .176 .66300007 .21100003 .66300007 C .25700004 .66300007 .29000003 .62900009 .307 .58400008 C .31900005 .55200007 .323 .48900003 .323 .44300006 C .323 .36000005 .28900004 .263 .201 .263 Z "/>
</symbol>
<use xlink:href="#font_4_8" transform="matrix(9.9626,0,0,-9.9626,103.29791,59.785959)" fill="#800000"/>
<use xlink:href="#font_4_7" transform="matrix(9.9626,0,0,-9.9626,115.22643,54.590166)" fill="#800000"/>
<path transform="matrix(1,0,0,-1,114.452,58.619989)" stroke-width="1" stroke-linecap="butt" stroke-miterlimit="10" stroke-linejoin="miter" fill="none" stroke="#800000" d="M 0 0 L 5.694 0 "/>
<use xlink:href="#font_3_1" transform="matrix(9.9626,0,0,-9.9626,114.74092,68.05457)" fill="#800000"/>
<use xlink:href="#font_3_2" transform="matrix(9.9626,0,0,-9.9626,71.53092,30.849326)" fill="#cc6600"/>
<use xlink:href="#font_4_8" transform="matrix(9.9626,0,0,-9.9626,79.808917,27.481966)" fill="#cc6600"/>
<use xlink:href="#font_4_3" transform="matrix(9.9626,0,0,-9.9626,90.26964,28.806992)" fill="#cc6600"/>
<use xlink:href="#font_4_3" transform="matrix(9.9626,0,0,-9.9626,95.25094,28.806992)" fill="#cc6600"/>
<use xlink:href="#font_3_1" transform="matrix(9.9626,0,0,-9.9626,100.01892,28.91658)" fill="#cc6600"/>
<use xlink:href="#font_5_1" transform="matrix(9.9626,0,0,-9.9626,108.4649,26.515595)" fill="#cc6600"/>
<symbol id="font_4_2">
<path d="M .205 .64000007 C .205 .66400006 .205 .666 .18200003 .666 C .120000008 .60200008 .032000007 .60200008 0 .60200008 L 0 .57100006 C .020000004 .57100006 .07900001 .57100006 .13100001 .597 L .13100001 .079 C .13100001 .043 .128 .031000002 .038000004 .031000002 L .0060000049 .031000002 L .0060000049 0 C .04100001 .003 .128 .003 .168 .003 C .20800002 .003 .29500003 .003 .33000005 0 L .33000005 .031000002 L .29800005 .031000002 C .20800002 .031000002 .205 .042000005 .205 .079 L .205 .64000007 Z "/>
</symbol>
<use xlink:href="#font_4_2" transform="matrix(9.9626,0,0,-9.9626,118.48667,28.806992)" fill="#cc6600"/>
<use xlink:href="#font_4_4" transform="matrix(9.9626,0,0,-9.9626,122.999729,29.026169)" fill="#cc6600"/>
</g>
<use xlink:href="#font_4_2" transform="matrix(9.9626,0,0,-9.9626,63.262674,132.778)"/>
<use xlink:href="#font_4_3" transform="matrix(9.9626,0,0,-9.9626,106.04413,132.778)"/>
<use xlink:href="#font_4_4" transform="matrix(9.9626,0,0,-9.9626,149.13443,132.99718)"/>
<symbol id="font_4_5">
<path d="M .266 .165 L .266 .078 C .266 .042000005 .26400004 .031000002 .19000001 .031000002 L .16900002 .031000002 L .16900002 0 C .21000001 .003 .26200003 .003 .30400003 .003 C .34600003 .003 .39900003 .003 .44000004 0 L .44000004 .031000002 L .41900004 .031000002 C .34500004 .031000002 .34300003 .042000005 .34300003 .078 L .34300003 .165 L .44300003 .165 L .44300003 .19600001 L .34300003 .19600001 L .34300003 .651 C .34300003 .671 .34300003 .67700007 .32700003 .67700007 C .31800003 .67700007 .31500004 .67700007 .307 .665 L 0 .19600001 L 0 .165 L .266 .165 M .272 .19600001 L .028 .19600001 L .272 .569 L .272 .19600001 Z "/>
</symbol>
<use xlink:href="#font_4_5" transform="matrix(9.9626,0,0,-9.9626,192.16495,132.778)"/>
<use xlink:href="#font_5_1" transform="matrix(9.9626,0,0,-9.9626,4.147895,166.04759)"/>
<symbol id="font_4_6">
<path d="M .39900003 .223 C .39900003 .34200005 .317 .44200004 .209 .44200004 C .16100002 .44200004 .118000019 .42600004 .082 .39100004 L .082 .586 C .10200001 .58000007 .135 .573 .16700001 .573 C .29 .573 .36 .66400006 .36 .67700007 C .36 .683 .357 .688 .35 .688 C .349 .688 .347 .688 .342 .68500009 C .322 .67600008 .273 .656 .20600002 .656 C .16600001 .656 .120000008 .66300007 .073 .6840001 C .065 .68700006 .06300001 .68700006 .061000009 .68700006 C .051000004 .68700006 .051000004 .679 .051000004 .66300007 L .051000004 .36700005 C .051000004 .34900005 .051000004 .34100003 .065 .34100003 C .07200001 .34100003 .074 .34400005 .07800001 .35000003 C .08900002 .36600004 .12600002 .42000006 .207 .42000006 C .259 .42000006 .284 .37400005 .292 .35600005 C .308 .31900005 .31 .28000004 .31 .23 C .31 .19500001 .31 .135 .286 .093 C .262 .054000006 .22500001 .028 .17900002 .028 C .106000009 .028 .049000008 .08100001 .032 .14000002 C .035 .13900002 .038000008 .13800001 .049000008 .13800001 C .082 .13800001 .09900001 .163 .09900001 .187 C .09900001 .21100001 .082 .23600002 .049000008 .23600002 C .035 .23600002 0 .22900002 0 .18300002 C 0 .097 .069000009 0 .18100001 0 C .297 0 .39900003 .096 .39900003 .223 Z "/>
</symbol>
<use xlink:href="#font_4_6" transform="matrix(9.9626,0,0,-9.9626,11.567129,168.55817)"/>
<use xlink:href="#font_4_6" transform="matrix(9.9626,0,0,-9.9626,11.567129,79.310169)"/>
<symbol id="font_4_1">
<path d="M .421 .34200005 C .421 .42200003 .416 .50200006 .381 .57600006 C .335 .67200008 .25300003 .688 .211 .688 C .15100001 .688 .07800001 .66200008 .037000006 .56900009 C .0050000029 .5 0 .42200003 0 .34200005 C 0 .26700003 .0040000008 .177 .045000007 .101 C .088 .020000002 .161 0 .21000001 0 C .264 0 .34 .021000002 .384 .116000007 C .416 .185 .421 .263 .421 .34200005 M .21000001 .022000002 C .171 .022000002 .112 .047000003 .094 .143 C .083000008 .20300001 .083000008 .29500003 .083000008 .35400004 C .083000008 .41800005 .083000008 .48400004 .091000009 .53800007 C .11 .65700009 .185 .66600009 .21000001 .66600009 C .243 .66600009 .30900003 .64800009 .328 .549 C .338 .49300004 .338 .41700004 .338 .35400004 C .338 .279 .338 .21100001 .32700003 .147 C .312 .052 .255 .022000002 .21000001 .022000002 Z "/>
</symbol>
<use xlink:href="#font_4_2" transform="matrix(9.9626,0,0,-9.9626,6.974671,34.258989)"/>
<use xlink:href="#font_4_1" transform="matrix(9.9626,0,0,-9.9626,11.457841,34.478166)"/>
<use xlink:href="#font_3_1" transform="matrix(9.9626,0,0,-9.9626,219.79792,122.949588)"/>
<use xlink:href="#font_3_2" transform="matrix(9.9626,0,0,-9.9626,19.363915,9.652334)"/>
<path transform="matrix(1,0,0,-1,21.696,174.51)" stroke-width="1" stroke-linecap="butt" stroke-miterlimit="10" stroke-linejoin="miter" fill="none" stroke="#808080" d="M 43.17058 51.67267 L 43.17058 55.92447 M 86.34116 51.67267 L 86.34116 55.92447 M 129.51174 51.67267 L 129.51174 55.92447 M 172.68231 51.67267 L 172.68231 55.92447 "/>
<path transform="matrix(1,0,0,-1,21.696,174.51)" stroke-width="1" stroke-linecap="butt" stroke-miterlimit="10" stroke-linejoin="miter" fill="none" stroke="#808080" d="M -2.12592 8.96643 L 2.12592 8.96643 M -2.12592 98.63074 L 2.12592 98.63074 M -2.12592 143.46289 L 2.12592 143.46289 "/>
<path transform="matrix(1,0,0,-1,21.696,174.51)" stroke-width="1" stroke-linecap="butt" stroke-miterlimit="10" stroke-linejoin="miter" fill="none" stroke="#000000" d="M 0 53.79858 L 192.27507 53.79858 "/>
<path transform="matrix(1,0,0,-1,213.97107,120.71141)" d="M 1.99252 0 L -1.19551 1.59401 L 0 0 L -1.19551 -1.59401 "/>
<path transform="matrix(1,0,0,-1,21.696,174.51)" stroke-width="1" stroke-linecap="butt" stroke-miterlimit="10" stroke-linejoin="miter" fill="none" stroke="#000000" d="M 0 0 L 0 159.40323 "/>
<path transform="matrix(0,-1,-1,-0,21.696,15.106766)" d="M 1.99252 0 L -1.19551 1.59401 L 0 0 L -1.19551 -1.59401 "/>
</svg>
