<?xml version="1.0" encoding="UTF-8" standalone="no"?>
<!DOCTYPE svg PUBLIC "-//W3C//DTD SVG 1.1//EN" "http://www.w3.org/Graphics/SVG/1.1/DTD/svg11.dtd">
<svg xmlns="http://www.w3.org/2000/svg" xmlns:xlink="http://www.w3.org/1999/xlink" version="1.1" width="207.157pt" height="174.724pt" viewBox="0 0 207.157 174.724">
<clipPath id="cp0">
<path transform="matrix(1,0,0,-1,.199,174.525)" d="M 0 0 L 194.2738 0 L 194.2738 161.39636 L 0 161.39636 Z "/>
</clipPath>
<g clip-path="url(#cp0)">
<path transform="matrix(1,0,0,-1,.199,174.525)" d="M 27.75339 80.69818 L 28.45065 87.66562 L 29.14803 89.47685 L 29.84529 90.74539 L 30.54265 91.75638 L 31.23991 92.61179 L 31.9373 93.35745 L 32.63457 94.02597 L 33.33192 94.63313 L 34.02919 95.19157 L 34.72658 95.70834 L 35.42383 96.19252 L 36.1212 96.64767 L 36.81847 97.08052 L 37.51584 97.49048 L 38.2131 97.88106 L 38.91048 98.25583 L 39.60774 98.61382 L 40.30511 98.95628 L 41.00238 99.28876 L 41.69975 99.6119 L 42.39702 99.91855 L 43.09438 100.22197 L 43.79164 100.51282 L 44.48903 100.79686 L 45.1863 101.07121 L 45.88365 101.33914 L 46.58092 101.60059 L 47.27829 101.85593 L 47.97557 102.10417 L 48.67293 102.34625 L 49.3702 102.58513 L 50.06757 102.81786 L 50.76483 103.0474 L 51.4622 103.26978 L 52.15947 103.4896 L 52.85684 103.70233 L 53.5541 103.91568 L 54.25148 104.12196 L 54.94875 104.32529 L 55.6461 104.52576 L 56.34337 104.72298 L 57.04076 104.91634 L 57.73802 105.1071 L 58.43538 105.29433 L 59.13264 105.48154 L 59.83002 105.66231 L 60.5273 105.84305 L 61.22466 106.02063 L 61.92192 106.19522 L 62.6193 106.36598 L 63.31656 106.5374 L 64.01393 106.70201 L 64.7112 106.86986 L 65.40857 107.03162 L 66.10582 107.19588 L 66.8032 107.35408 L 67.50047 107.51222 L 68.19785 107.66748 L 68.8951 107.82245 L 69.59238 107.97414 L 70.28975 108.12584 L 70.987 108.27435 L 71.68437 108.42284 L 72.38164 108.5681 L 73.07903 108.7101 L 73.77628 108.85541 L 74.47365 108.99776 L 75.17091 109.13655 L 75.86829 109.27534 L 76.56555 109.41089 L 77.26292 109.54968 L 77.96019 109.68173 L 78.65755 109.81763 L 79.35483 109.94672 L 80.0522 110.07942 L 80.74947 110.20851 L 81.44682 110.33733 L 82.14409 110.46356 L 82.84148 110.59265 L 83.53874 110.71854 L 84.2361 110.84409 L 84.93336 110.96678 L 85.63075 111.09006 L 86.328 111.2127 L 87.02538 111.33185 L 87.72264 111.4516 L 88.42001 111.5707 L 89.11728 111.68694 L 89.81465 111.80667 L 90.51192 111.92285 L 91.20927 112.03586 L 91.90654 112.15204 L 92.60393 112.26537 L 93.3012 112.37802 L 93.99855 112.4913 L 94.69582 112.60074 L 95.3932 112.71048 L 96.09047 112.8202 L 96.78783 112.93031 L 97.48509 113.03104 L 98.18236 113.1385 L 98.87973 113.24503 L 99.577 113.35123 L 100.27437 113.45679 L 100.97163 113.56105 L 101.6689 113.665 L 102.36627 113.76826 L 103.06354 113.87091 L 103.76091 113.97327 L 104.45816 114.07428 L 105.15544 114.17531 L 105.85281 114.27504 L 106.55006 114.37483 L 107.24744 114.47388 L 107.94472 114.57268 L 108.64198 114.67015 L 109.33934 114.76797 L 110.0366 114.86383 L 110.73398 114.961 L 111.43126 115.05621 L 112.12862 115.15143 L 112.82588 115.24667 L 113.52315 115.34026 L 114.22052 115.43419 L 114.91779 115.52748 L 115.61505 115.61983 L 116.31242 115.71149 L 117.00967 115.8035 L 117.70706 115.89551 L 118.40433 115.98553 L 119.1017 116.07626 L 119.79895 116.16566 L 120.49623 116.25443 L 121.1936 116.34416 L 121.89087 116.43164 L 122.58812 116.52039 L 123.28549 116.60788 L 123.98277 116.69504 L 124.68013 116.78123 L 125.3774 116.86809 L 126.07477 116.95358 L 126.77205 117.03949 L 127.4693 117.12405 L 128.16667 117.20892 L 128.86394 117.2932 L 129.5612 117.37679 L 130.25858 117.46071 L 130.95584 117.54337 L 131.65322 117.62596 L 132.35047 117.70895 L 133.04785 117.79062 L 133.74512 117.87193 L 134.44239 117.95393 L 135.13974 118.03496 L 135.837 118.115 L 136.53429 118.19638 L 137.23166 118.27513 L 137.92891 118.35516 L 138.62628 118.4349 L 139.32357 118.51396 L 140.02082 118.59145 L 140.71819 118.67119 L 141.41545 118.74803 L 142.11283 118.8255 L 142.81009 118.90454 L 143.50746 118.98041 L 144.20473 119.05788 L 144.902 119.13278 L 145.59935 119.20958 L 146.29663 119.28543 L 146.9939 119.36066 L 147.69126 119.4362 L 148.38852 119.51106 L 149.0859 119.585 L 149.78318 119.65991 L 150.48053 119.73315 L 151.1778 119.80708 L 151.87506 119.88101 L 152.57245 119.95494 L 153.2697 120.02725 L 153.96697 120.10114 L 154.66434 120.17151 L 155.3616 120.24446 L 156.05898 120.31676 L 156.75624 120.38878 L 157.45362 120.45882 L 158.15087 120.53142 L 158.84815 120.6018 L 159.54552 120.67056 L 160.24279 120.74222 L 160.94004 120.81161 L 161.63742 120.88167 L 162.33469 120.94978 L 163.03205 121.02145 L 163.72931 121.08957 L 164.42668 121.15797 L 165.12397 121.22737 L 165.82122 121.29645 L 166.51859 121.36293 L 166.51976 80.69818 L 160.73784 80.69818 L 154.9559 80.69818 L 149.17398 80.69818 L 143.39206 80.69818 L 137.61014 80.69818 L 131.82822 80.69818 L 126.04628 80.69818 L 120.26436 80.69818 L 114.48244 80.69818 L 108.70041 80.69818 L 102.9185 80.69818 L 97.13658 80.69818 L 91.35464 80.69818 L 85.57272 80.69818 L 79.7908 80.69818 L 74.00888 80.69818 L 68.22696 80.69818 L 62.44504 80.69818 L 56.6631 80.69818 L 50.88107 80.69818 L 45.09915 80.69818 L 39.31723 80.69818 L 33.53531 80.69818 L 27.75339 80.69818 Z " fill="#cccce6"/>
</g>
<clipPath id="cp1">
<path transform="matrix(1,0,0,-1,.199,174.525)" d="M 0 0 L 194.2738 0 L 194.2738 161.39636 L 0 161.39636 Z "/>
</clipPath>
<g clip-path="url(#cp1)">
<path transform="matrix(1,0,0,-1,.199,174.525)" stroke-width="1.19553" stroke-linecap="butt" stroke-miterlimit="10" stroke-linejoin="miter" fill="none" stroke="#800000" d="M 27.75339 80.69818 C 27.75339 80.69818 27.80403 83.36989 27.82347 83.9361 C 27.84291 84.50229 27.87411 84.58 27.89355 84.77893 C 27.913 84.97786 27.94421 85.22299 27.96365 85.36993 C 27.9831 85.51688 28.01428 85.71793 28.03374 85.838 C 28.05318 85.95805 28.08438 86.13184 28.10382 86.23532 C 28.12325 86.33882 28.15437 86.49258 28.1738 86.58395 C 28.19324 86.67532 28.22444 86.8119 28.24388 86.89386 C 28.26332 86.97581 28.29453 87.09943 28.31396 87.17465 C 28.3334 87.2499 28.36462 87.36673 28.38406 87.43614 C 28.4035 87.50555 28.43471 87.61055 28.45415 87.67503 C 28.47359 87.73952 28.50478 87.84001 28.52423 87.90097 C 28.54367 87.96191 28.57487 88.05698 28.59431 88.11433 C 28.61377 88.17169 28.64496 88.26028 28.6644 88.31445 C 28.68384 88.36864 28.71504 88.45341 28.73448 88.50493 C 28.75392 88.55643 28.78514 88.63641 28.80458 88.68567 C 28.82402 88.73492 28.85522 88.81297 28.87466 88.86 C 28.8941 88.90701 28.92532 88.97937 28.94476 89.0246 C 28.96419 89.06982 28.9953 89.14207 29.01472 89.186 C 29.03416 89.22993 29.06537 89.29916 29.08481 89.34126 C 29.10426 89.38335 29.13547 89.44865 29.1549 89.48941 C 29.17435 89.53017 29.20555 89.59555 29.22499 89.63501 C 29.24443 89.67445 29.27563 89.73578 29.29507 89.7738 C 29.31451 89.81183 29.34572 89.87189 29.36517 89.90906 C 29.38461 89.94623 29.4158 90.00584 29.43524 90.04175 C 29.4547 90.07765 29.48589 90.13303 29.50533 90.16794 C 29.52478 90.20287 29.55598 90.259 29.57542 90.29349 C 29.59486 90.32796 29.62607 90.3833 29.64551 90.41647 C 29.66495 90.44966 29.69617 90.50047 29.71559 90.53271 C 29.73502 90.56496 29.76614 90.61711 29.78558 90.64891 C 29.80501 90.6807 29.83621 90.731 29.85565 90.7619 C 29.8751 90.79279 29.90631 90.84117 29.92575 90.87163 C 29.9452 90.90208 29.9764 90.95137 29.99583 90.98137 C 30.01527 91.01137 30.04648 91.05879 30.06592 91.0879 C 30.08536 91.11702 30.11658 91.1625 30.13602 91.19121 C 30.15546 91.21991 30.18665 91.26657 30.2061 91.29482 C 30.22554 91.32306 30.25673 91.36758 30.27618 91.39487 C 30.29562 91.42213 30.32683 91.46458 30.34627 91.4914 C 30.36572 91.51822 30.39691 91.56183 30.41635 91.58823 C 30.43579 91.61464 30.467 91.65585 30.48643 91.68182 C 30.50587 91.70778 30.53711 91.74988 30.55653 91.77545 C 30.57596 91.80101 30.60707 91.84106 30.62651 91.86612 C 30.64594 91.89119 30.67714 91.93114 30.6966 91.9562 C 30.71603 91.98128 30.74724 92.02222 30.76668 92.04689 C 30.78613 92.07156 30.81732 92.1104 30.83676 92.13408 C 30.8562 92.15776 30.88742 92.19397 30.90686 92.21765 C 30.9263 92.24135 30.9575 92.28151 30.97694 92.30484 C 30.99638 92.32817 31.02757 92.36295 31.04703 92.38586 C 31.06647 92.40878 31.09767 92.4472 31.11713 92.47008 C 31.13657 92.49297 31.16776 92.5285 31.1872 92.55081 C 31.20665 92.5731 31.23784 92.6089 31.25728 92.63084 C 31.27672 92.65279 31.30795 92.68694 31.32738 92.70897 C 31.3468 92.731 31.37793 92.76819 31.39735 92.78964 C 31.41678 92.8111 31.448 92.84253 31.46744 92.86357 C 31.48688 92.88461 31.51808 92.92026 31.53754 92.94135 C 31.55698 92.96243 31.58817 92.99507 31.6076 93.01563 C 31.62706 93.03618 31.65825 93.069 31.67769 93.08955 C 31.69713 93.1101 31.72835 93.14365 31.74779 93.16379 C 31.76723 93.18393 31.79843 93.21461 31.81787 93.2348 C 31.83731 93.25499 31.86852 93.28923 31.88795 93.30937 C 31.9074 93.32951 31.9386 93.36081 31.95805 93.38007 C 31.9775 93.3993 32.00868 93.4289 32.02812 93.44818 C 32.04758 93.46747 32.07878 93.4999 32.09822 93.51915 C 32.11768 93.53839 32.14888 93.56813 32.1683 93.58698 C 32.18773 93.60582 32.21886 93.63629 32.23828 93.65509 C 32.2577 93.6739 32.28894 93.70421 32.30838 93.72252 C 32.32782 93.74081 32.35901 93.76868 32.37846 93.7871 C 32.3979 93.8055 32.4291 93.83687 32.44853 93.85521 C 32.46799 93.87357 32.49919 93.90158 32.51863 93.91945 C 32.53809 93.9373 32.56927 93.9665 32.58871 93.98401 C 32.60815 94.0015 32.63936 94.02814 32.6588 94.04564 C 32.67824 94.06313 32.70946 94.09229 32.7289 94.1102 C 32.74834 94.1281 32.77953 94.15736 32.79898 94.17477 C 32.81842 94.19218 32.84961 94.21873 32.86905 94.23575 C 32.8885 94.25276 32.91972 94.28041 32.93915 94.29742 C 32.95859 94.31444 32.9897 94.34193 33.00912 94.35844 C 33.02855 94.37495 33.05978 94.39992 33.07922 94.41652 C 33.09866 94.43312 33.12987 94.46156 33.1493 94.47818 C 33.16875 94.4948 33.19994 94.51971 33.21939 94.53629 C 33.23883 94.55286 33.27003 94.58104 33.28949 94.59761 C 33.30893 94.61418 33.34012 94.63962 33.35956 94.65573 C 33.37901 94.67184 33.4102 94.6977 33.42964 94.7138 C 33.44908 94.72992 33.4803 94.75627 33.49974 94.77194 C 33.51918 94.78761 33.55038 94.81113 33.56982 94.8268 C 33.58926 94.84247 33.62045 94.86925 33.63991 94.88492 C 33.65935 94.90059 33.69055 94.92456 33.71 94.93979 C 33.72945 94.955 33.76065 94.97945 33.78008 94.99466 C 33.79951 95.00987 33.83063 95.0343 33.85005 95.04953 C 33.86948 95.06474 33.90071 95.08919 33.92015 95.1044 C 33.93959 95.11963 33.9708 95.14406 33.99023 95.15927 C 34.00967 95.17448 34.04088 95.1989 34.06033 95.21413 C 34.07977 95.22937 34.11096 95.25429 34.13042 95.26906 C 34.14986 95.28383 34.18105 95.30635 34.20049 95.32066 C 34.21994 95.33499 34.25114 95.35756 34.27058 95.37234 C 34.29002 95.38712 34.32123 95.41245 34.34067 95.4272 C 34.3601 95.44197 34.39131 95.46451 34.41075 95.47884 C 34.43019 95.49315 34.4614 95.51617 34.48085 95.5305 C 34.50029 95.54482 34.5315 95.56824 34.55093 95.5821 C 34.57036 95.596 34.60147 95.6167 34.6209 95.63057 C 34.64034 95.64445 34.691 95.6822 34.691 95.6822 "/>
<path transform="matrix(1,0,0,-1,.199,174.525)" stroke-width="1.19553" stroke-linecap="butt" stroke-miterlimit="10" stroke-linejoin="miter" fill="none" stroke="#800000" d="M 34.69174 95.6822 C 34.69174 95.6822 39.49583 98.55223 41.34096 99.44371 C 43.18608 100.33517 46.14505 101.44261 47.99017 102.10742 C 49.8353 102.77223 52.79427 103.6905 54.63939 104.23524 C 56.48451 104.77998 59.44347 105.56537 61.2886 106.03352 C 63.13374 106.50166 66.09279 107.195 67.93793 107.60942 C 69.78307 108.02382 72.74202 108.64725 74.58714 109.0203 C 76.43227 109.39336 79.39124 109.9569 81.23636 110.29825 C 83.08148 110.63962 86.04045 111.16476 87.88557 111.48065 C 89.7307 111.79652 92.68967 112.28189 94.53479 112.57494 C 96.37991 112.86797 99.33888 113.31773 101.184 113.59267 C 103.02913 113.86761 105.98811 114.29614 107.83324 114.55653 C 109.67836 114.81693 112.63731 115.2226 114.48244 115.46942 C 116.32756 115.71623 119.28654 116.10059 121.13167 116.33545 C 122.97679 116.5703 125.93573 116.93774 127.78087 117.16212 C 129.62602 117.3865 132.58507 117.73796 134.4302 117.95265 C 136.27535 118.16736 139.23429 118.50328 141.0794 118.7096 C 142.92455 118.91592 145.88352 119.24107 147.72864 119.43974 C 149.57376 119.63843 152.53272 119.94997 154.37786 120.14151 C 156.22298 120.33307 159.18195 120.63481 161.02707 120.82034 C 162.8722 121.00589 165.83116 121.29924 167.6763 121.47882 C 169.52143 121.6584 172.48038 121.94098 174.3255 122.11475 C 176.17063 122.28853 179.12961 122.56247 180.97473 122.73126 C 182.81986 122.90005 185.77881 123.16728 187.62393 123.33133 C 189.46906 123.49538 194.27317 123.91367 194.27317 123.91367 "/>
<path transform="matrix(1,0,0,-1,.199,174.525)" stroke-width="1.19553" stroke-linecap="butt" stroke-miterlimit="10" stroke-linejoin="miter" fill="none" stroke="#800080" d="M -34.69174 80.69818 C -34.69174 80.69818 -27.59006 80.69818 -24.86249 80.69818 C -22.13492 80.69818 -17.76082 80.69818 -15.03323 80.69818 C -12.30565 80.69818 -7.93146 80.69818 -5.20387 80.69818 C -2.47629 80.69818 1.8978 80.69818 4.62538 80.69818 C 7.35297 80.69818 11.72707 80.69818 14.45464 80.69818 C 17.1822 80.69818 21.5563 80.69818 24.28389 80.69818 C 27.01147 80.69818 31.38568 80.69818 34.11327 80.69818 C 36.84085 80.69818 41.21494 80.69818 43.9425 80.69818 C 46.67007 80.69818 51.04419 80.69818 53.77177 80.69818 C 56.49936 80.69818 60.87346 80.69818 63.60104 80.69818 C 66.32863 80.69818 70.70282 80.69818 73.4304 80.69818 C 76.15799 80.69818 80.53209 80.69818 83.25966 80.69818 C 85.98723 80.69818 90.36134 80.69818 93.08891 80.69818 C 95.81648 80.69818 100.1906 80.69818 102.91818 80.69818 C 105.64577 80.69818 110.01985 80.69818 112.74744 80.69818 C 115.47502 80.69818 119.84921 80.69818 122.5768 80.69818 C 125.30438 80.69818 129.6785 80.69818 132.40607 80.69818 C 135.13364 80.69818 139.50774 80.69818 142.2353 80.69818 C 144.96288 80.69818 149.33699 80.69818 152.06458 80.69818 C 154.79216 80.69818 159.16626 80.69818 161.89385 80.69818 C 164.62143 80.69818 168.9956 80.69818 171.72319 80.69818 C 174.45078 80.69818 178.82489 80.69818 181.55246 80.69818 C 184.28003 80.69818 188.65415 80.69818 191.38172 80.69818 C 194.10929 80.69818 201.21099 80.69818 201.21099 80.69818 "/>
<path transform="matrix(1,0,0,-1,.199,174.525)" stroke-width="1.19553" stroke-linecap="butt" stroke-miterlimit="10" stroke-linejoin="miter" fill="none" stroke="#000080" d="M 166.5204 -242.09455 L 166.5204 403.4909 "/>
<path transform="matrix(1,0,0,-1,.199,174.525)" stroke-width="1.19553" stroke-linecap="butt" stroke-dasharray="2.98883,2.98883" stroke-miterlimit="10" stroke-linejoin="miter" fill="none" stroke="#cc6600" d="M -666.0816 16.13963 L 721.58847 16.13963 "/>
<symbol id="font_2_5">
<path d="M .45700003 .586 C .461 .6 .461 .602 .461 .609 C .461 .62700006 .447 .63600006 .432 .63600006 C .42200003 .63600006 .40600003 .63 .397 .615 C .395 .61 .387 .579 .38300003 .561 C .37600003 .535 .36900003 .508 .363 .48100005 L .318 .301 C .314 .286 .271 .21600002 .20500002 .21600002 C .15400002 .21600002 .143 .26000003 .143 .29700003 C .143 .34300003 .16000001 .40500004 .194 .49300004 C .21000001 .53400006 .21400002 .545 .21400002 .56500008 C .21400002 .61 .18200001 .6470001 .13200002 .6470001 C .037 .6470001 0 .50200006 0 .49300004 C 0 .48300005 .01 .48300005 .012 .48300005 C .022000002 .48300005 .023 .485 .028000003 .50100007 C .055000009 .595 .095000009 .625 .12900001 .625 C .13700001 .625 .15400002 .625 .15400002 .59300008 C .15400002 .568 .14400001 .54200008 .13700001 .523 C .097 .41700004 .079 .36 .079 .31300003 C .079 .224 .142 .194 .201 .194 C .24000003 .194 .274 .21100001 .30200003 .23900002 C .289 .187 .277 .13800001 .237 .08500001 C .21100001 .051 .17300001 .022 .127 .022 C .113000009 .022 .068 .025000006 .051000008 .06400001 C .067 .06400001 .080000009 .06400001 .094000007 .076000008 C .104 .08500001 .11400001 .098000008 .11400001 .117000009 C .11400001 .148 .087000008 .15200001 .07700001 .15200001 C .054000006 .15200001 .021 .136 .021 .087000008 C .021 .037 .065000008 0 .127 0 C .23 0 .333 .091000009 .361 .20400001 L .45700003 .586 Z "/>
</symbol>
<use xlink:href="#font_2_5" transform="matrix(9.9626,0,0,-9.9626,98.39691,53.940336)" fill="#800000"/>
<symbol id="font_3_5">
<path d="M .63100007 .19400002 C .646 .19400002 .665 .19400002 .665 .214 C .665 .23400001 .646 .23400001 .632 .23400001 L .033 .23400001 C .019000002 .23400001 0 .23400001 0 .214 C 0 .19400002 .019000002 .19400002 .034 .19400002 L .63100007 .19400002 M .632 0 C .646 0 .665 0 .665 .02000001 C .665 .040000008 .646 .040000008 .63100007 .040000008 L .034 .040000008 C .019000002 .040000008 0 .040000008 0 .02000001 C 0 0 .019000002 0 .033 0 L .632 0 Z "/>
</symbol>
<use xlink:href="#font_3_5" transform="matrix(9.9626,0,0,-9.9626,106.6759,50.572977)" fill="#800000"/>
<symbol id="font_4_1">
<path d="M .25 .35300005 C .342 .35300005 .403 .29600004 .403 .19700001 C .403 .095000009 .34 .041 .25100003 .041 C .24000001 .041 .121 .041 .07 .093 C .11100001 .09900001 .123 .13000001 .123 .154 C .123 .19100002 .095000009 .215 .062 .215 C .030000002 .215 0 .194 0 .15200001 C 0 .048 .11800001 0 .254 0 C .418 0 .52000007 .09900001 .52000007 .19600001 C .52000007 .27800004 .447 .34800003 .333 .37400005 C .45300005 .41300006 .48499999 .48900003 .48499999 .545 C .48499999 .62700006 .38300003 .688 .257 .688 C .134 .688 .034999998 .63600006 .034999998 .54600009 C .034999998 .49900005 .07300001 .48700006 .092 .48700006 C .121 .48700006 .14900002 .508 .14900002 .544 C .14900002 .56700006 .137 .595 .101 .6010001 C .144 .647 .23300001 .65000006 .254 .65000006 C .327 .65000006 .379 .61300006 .379 .545 C .379 .48700006 .34100003 .39600004 .236 .39000006 C .208 .38900004 .204 .38800005 .178 .38700003 C .167 .38600005 .15600002 .38500003 .15600002 .37000004 C .15600002 .35300005 .16600001 .35300005 .18399999 .35300005 L .25 .35300005 Z "/>
</symbol>
<use xlink:href="#font_4_1" transform="matrix(4.9813,0,0,-4.9813,119.7995,48.073595)" fill="#800000"/>
<symbol id="font_5_2">
<path d="M .316 .10500002 L .14000002 .49400003 C .13300002 .51 .12799999 .51 .125 .51 C .124000009 .51 .118999999 .51 .108 .502 L .012999997 .43 C 0 .42000003 0 .417 0 .41400004 C 0 .40900005 .0029999987 .403 .009999998 .403 C .015999996 .403 .033 .417 .044 .425 C .049999998 .43 .065000008 .44099999 .076 .449 L .273 .015999973 C .28 0 .285 0 .294 0 C .30900003 0 .312 .0059999825 .319 .01999998 L .773 .96000006 C .78000006 .97400006 .78000006 .97800007 .78000006 .98 C .78000006 .99 .772 1 .76000007 1 C .75200006 1 .745 .99500009 .73700007 .97900006 L .316 .10500002 Z "/>
</symbol>
<use xlink:href="#font_5_2" transform="matrix(9.9626,0,0,-9.9626,117.98427,53.800104)" fill="#800000"/>
<path transform="matrix(1,0,0,-1,125.55899,44.037004)" stroke-width="1" stroke-linecap="butt" stroke-miterlimit="10" stroke-linejoin="miter" fill="none" stroke="#800000" d="M 0 0 L 5.694 0 "/>
<symbol id="font_2_4">
<path d="M .305 .31300003 C .311 .33900003 .334 .43100003 .404 .43100003 C .409 .43100003 .433 .43100003 .454 .418 C .426 .41300003 .40600003 .388 .40600003 .36400003 C .40600003 .34800003 .417 .32900004 .444 .32900004 C .46600003 .32900004 .498 .34700004 .498 .38700003 C .498 .43900005 .439 .45300005 .405 .45300005 C .347 .45300005 .312 .40000005 .3 .37700004 C .275 .44300003 .221 .45300005 .19200002 .45300005 C .08800001 .45300005 .031000002 .32400004 .031000002 .29900003 C .031000002 .28900004 .041 .28900004 .043000007 .28900004 C .051000008 .28900004 .054000006 .291 .056 .3 C .09 .40600003 .156 .43100003 .19000001 .43100003 C .209 .43100003 .244 .42200003 .244 .36400003 C .244 .33300004 .22700002 .26600004 .19000001 .126 C .17400001 .064 .13900002 .022000002 .095000009 .022000002 C .08900001 .022000002 .06600001 .022000002 .045 .035 C .07000001 .040000004 .09200001 .061 .09200001 .089 C .09200001 .116000007 .07000001 .124000009 .055000009 .124000009 C .025 .124000009 0 .098000008 0 .06600001 C 0 .020000002 .050000006 0 .094000007 0 C .16000001 0 .19600001 .07000001 .19900002 .076000008 C .21100001 .039 .24700003 0 .307 0 C .41 0 .467 .12900001 .467 .15400002 C .467 .16400002 .458 .16400002 .455 .16400002 C .446 .16400002 .444 .16000001 .442 .15300001 C .409 .046 .341 .022000002 .30900003 .022000002 C .27 .022000002 .254 .054 .254 .08800001 C .254 .11000001 .26 .13200002 .271 .17600002 L .305 .31300003 Z "/>
</symbol>
<use xlink:href="#font_2_4" transform="matrix(9.9626,0,0,-9.9626,125.84791,52.00759)" fill="#800000"/>
<use xlink:href="#font_2_4" transform="matrix(9.9626,0,0,-9.9626,137.68091,24.519577)" fill="#000080"/>
<symbol id="font_3_3">
<path d="M .07700001 .07700001 L .18300002 .18 C .33900003 .31800003 .39900003 .372 .39900003 .47200004 C .39900003 .586 .30900003 .666 .18700002 .666 C .074 .666 0 .574 0 .485 C 0 .42900003 .05 .42900003 .053000008 .42900003 C .07000001 .42900003 .105000007 .441 .105000007 .48200003 C .105000007 .508 .08700001 .53400006 .052000006 .53400006 C .044000005 .53400006 .042000008 .53400006 .039 .53300008 C .062000004 .59800007 .11600001 .63500007 .17400001 .63500007 C .26500003 .63500007 .308 .554 .308 .47200004 C .308 .39200003 .25800003 .31300003 .20300003 .25100003 L .011000004 .037 C 0 .026 0 .024 0 0 L .37100003 0 L .39900003 .17400001 L .374 .17400001 C .36900003 .14400001 .36200003 .1 .352 .085 C .345 .07700001 .279 .07700001 .257 .07700001 L .07700001 .07700001 Z "/>
</symbol>
<use xlink:href="#font_3_5" transform="matrix(9.9626,0,0,-9.9626,146.41191,23.084963)" fill="#000080"/>
<use xlink:href="#font_3_3" transform="matrix(9.9626,0,0,-9.9626,156.87264,24.409989)" fill="#000080"/>
<path transform="matrix(1,0,0,-1,.199,174.525)" d="M 79.09714 81.02098 L 83.95406 81.02098 L 83.95406 109.10394 L 79.09714 109.10394 L 79.09714 81.02098 " fill="#bfbfbf"/>
<path transform="matrix(1,0,0,-1,.199,174.525)" stroke-width="1" stroke-linecap="butt" stroke-miterlimit="10" stroke-linejoin="miter" fill="none" stroke="#000080" d="M 79.09714 81.02098 L 83.95406 81.02098 L 83.95406 109.10394 L 79.09714 109.10394 L 79.09714 81.02098 "/>
<path transform="matrix(1,0,0,-1,.199,174.525)" stroke-width="1.19553" stroke-linecap="butt" stroke-miterlimit="10" stroke-linejoin="miter" fill="none" stroke="#ff0000" d="M 72.85266 16.13963 L 72.85266 108.61972 "/>
<symbol id="font_2_2">
<path d="M .33400003 .63600006 C .34 .66 .343 .67 .36200003 .67300006 C .37100003 .674 .40300004 .674 .423 .674 C .49400003 .674 .605 .674 .605 .57500007 C .605 .54100009 .58900007 .47200004 .55 .43300004 C .524 .40700004 .47100003 .37500004 .381 .37500004 L .269 .37500004 L .33400003 .63600006 M .47800005 .36200003 C .579 .38400004 .698 .45400004 .698 .55500009 C .698 .64100006 .60800006 .70500007 .477 .70500007 L .192 .70500007 C .17200002 .70500007 .16300002 .70500007 .16300002 .68500009 C .16300002 .674 .17200002 .674 .19100002 .674 C .19300002 .674 .21200001 .674 .229 .67200008 C .24700001 .67 .256 .669 .256 .656 C .256 .65200009 .255 .64900007 .252 .637 L .11800001 .1 C .108 .061000006 .106 .053000004 .027000003 .053000004 C .009 .053000004 0 .053000004 0 .033000005 C 0 .022000002 .012000002 .022000002 .014000002 .022000002 C .042000005 .022000002 .11200001 .025000003 .14000002 .025000003 C .16800002 .025000003 .239 .022000002 .26700003 .022000002 C .275 .022000002 .287 .022000002 .287 .042000005 C .287 .053000004 .278 .053000004 .259 .053000004 C .222 .053000004 .194 .053000004 .194 .071 C .194 .07700001 .19600001 .082 .197 .088 L .263 .35300005 L .382 .35300005 C .473 .35300005 .491 .29700003 .491 .26200003 C .491 .24700001 .48300005 .216 .477 .193 C .47000004 .165 .46100004 .128 .46100004 .108 C .46100004 0 .58100005 0 .59400007 0 C .679 0 .71400007 .101 .71400007 .115 C .71400007 .127 .703 .127 .702 .127 C .693 .127 .69100007 .120000008 .689 .113000009 C .66400006 .039000006 .62100008 .022000002 .59800007 .022000002 C .565 .022000002 .558 .044000005 .558 .083000008 C .558 .11400001 .564 .165 .568 .19700001 C .57 .21100001 .572 .23 .572 .24400002 C .572 .32100005 .505 .35200004 .47800005 .36200003 Z "/>
</symbol>
<use xlink:href="#font_2_2" transform="matrix(9.9626,0,0,-9.9626,76.57647,123.27418)" fill="#ff0000"/>
<path transform="matrix(1,0,0,-1,.199,174.525)" stroke-width="1.19553" stroke-linecap="butt" stroke-miterlimit="10" stroke-linejoin="miter" fill="none" stroke="#0000ff" d="M 90.19855 16.13963 L 90.19855 80.69818 "/>
<symbol id="font_2_3">
<path d="M .059000009 .07000001 C .056 .055000005 .050000006 .032 .050000006 .027000003 C .050000006 .009000001 .064 0 .079 0 C .091000009 0 .10900001 .008000001 .11600001 .028 C .118 .032 .15200001 .16800002 .156 .18600002 C .164 .21900001 .18200001 .28900004 .18800001 .316 C .19200002 .32900004 .22000002 .37600003 .244 .39800004 C .252 .40500004 .281 .43100003 .324 .43100003 C .35 .43100003 .365 .41900004 .366 .41900004 C .336 .41400004 .314 .39000003 .314 .36400003 C .314 .34800003 .325 .32900004 .352 .32900004 C .379 .32900004 .407 .35200004 .407 .388 C .407 .42300005 .375 .45300005 .324 .45300005 C .259 .45300005 .21500002 .404 .19600001 .37600003 C .18800001 .42100004 .15200001 .45300005 .105000007 .45300005 C .059000009 .45300005 .040000008 .41400004 .031000002 .39600004 C .013000002 .36200003 0 .30200003 0 .29900003 C 0 .28900004 .01 .28900004 .012 .28900004 C .022000002 .28900004 .023 .29000003 .029000001 .31200005 C .046000005 .38300003 .06600001 .43100003 .10200001 .43100003 C .119 .43100003 .133 .42300005 .133 .38500003 C .133 .36400003 .13000001 .35300002 .11700001 .30100004 L .059000009 .07000001 Z "/>
</symbol>
<use xlink:href="#font_2_3" transform="matrix(9.9626,0,0,-9.9626,95.237918,128.3606)" fill="#0000ff"/>
</g>
<symbol id="font_3_1">
<path d="M .421 .34200005 C .421 .42200003 .416 .50200006 .381 .57600006 C .335 .67200008 .25300003 .688 .211 .688 C .15100001 .688 .07800001 .66200008 .037000006 .56900009 C .0050000029 .5 0 .42200003 0 .34200005 C 0 .26700003 .0040000008 .177 .045000007 .101 C .088 .020000002 .161 0 .21000001 0 C .264 0 .34 .021000002 .384 .116000007 C .416 .185 .421 .263 .421 .34200005 M .21000001 .022000002 C .171 .022000002 .112 .047000003 .094 .143 C .083000008 .20300001 .083000008 .29500003 .083000008 .35400004 C .083000008 .41800005 .083000008 .48400004 .091000009 .53800007 C .11 .65700009 .185 .66600009 .21000001 .66600009 C .243 .66600009 .30900003 .64800009 .328 .549 C .338 .49300004 .338 .41700004 .338 .35400004 C .338 .279 .338 .21100001 .32700003 .147 C .312 .052 .255 .022000002 .21000001 .022000002 Z "/>
</symbol>
<use xlink:href="#font_3_1" transform="matrix(9.9626,0,0,-9.9626,56.666543,106.113178)"/>
<symbol id="font_2_1">
<path d="M .106 .053000004 C .106 .082 .08200001 .106000009 .05300001 .106000009 C .024000004 .106000009 0 .082 0 .053000004 C 0 .024 .024000004 0 .05300001 0 C .08200001 0 .106 .024 .106 .053000004 Z "/>
</symbol>
<use xlink:href="#font_2_1" transform="matrix(9.9626,0,0,-9.9626,62.116785,105.894)"/>
<symbol id="font_3_4">
<path d="M .39900003 .223 C .39900003 .34200005 .317 .44200004 .209 .44200004 C .16100002 .44200004 .118000019 .42600004 .082 .39100004 L .082 .586 C .10200001 .58000007 .135 .573 .16700001 .573 C .29 .573 .36 .66400006 .36 .67700007 C .36 .683 .357 .688 .35 .688 C .349 .688 .347 .688 .342 .68500009 C .322 .67600008 .273 .656 .20600002 .656 C .16600001 .656 .120000008 .66300007 .073 .6840001 C .065 .68700006 .06300001 .68700006 .061000009 .68700006 C .051000004 .68700006 .051000004 .679 .051000004 .66300007 L .051000004 .36700005 C .051000004 .34900005 .051000004 .34100003 .065 .34100003 C .07200001 .34100003 .074 .34400005 .07800001 .35000003 C .08900002 .36600004 .12600002 .42000006 .207 .42000006 C .259 .42000006 .284 .37400005 .292 .35600005 C .308 .31900005 .31 .28000004 .31 .23 C .31 .19500001 .31 .135 .286 .093 C .262 .054000006 .22500001 .028 .17900002 .028 C .106000009 .028 .049000008 .08100001 .032 .14000002 C .035 .13900002 .038000008 .13800001 .049000008 .13800001 C .082 .13800001 .09900001 .163 .09900001 .187 C .09900001 .21100001 .082 .23600002 .049000008 .23600002 C .035 .23600002 0 .22900002 0 .18300002 C 0 .097 .069000009 0 .18100001 0 C .297 0 .39900003 .096 .39900003 .223 Z "/>
</symbol>
<use xlink:href="#font_3_4" transform="matrix(9.9626,0,0,-9.9626,64.52513,106.113178)"/>
<symbol id="font_3_2">
<path d="M .205 .64000007 C .205 .66400006 .205 .666 .18200003 .666 C .120000008 .60200008 .032000007 .60200008 0 .60200008 L 0 .57100006 C .020000004 .57100006 .07900001 .57100006 .13100001 .597 L .13100001 .079 C .13100001 .043 .128 .031000002 .038000004 .031000002 L .0060000049 .031000002 L .0060000049 0 C .04100001 .003 .128 .003 .168 .003 C .20800002 .003 .29500003 .003 .33000005 0 L .33000005 .031000002 L .29800005 .031000002 C .20800002 .031000002 .205 .042000005 .205 .079 L .205 .64000007 Z "/>
</symbol>
<use xlink:href="#font_3_2" transform="matrix(9.9626,0,0,-9.9626,95.73067,105.894)"/>
<use xlink:href="#font_3_2" transform="matrix(9.9626,0,0,-9.9626,126.54767,105.894)"/>
<use xlink:href="#font_2_1" transform="matrix(9.9626,0,0,-9.9626,131.49878,105.894)"/>
<use xlink:href="#font_3_4" transform="matrix(9.9626,0,0,-9.9626,133.90813,106.113178)"/>
<use xlink:href="#font_3_3" transform="matrix(9.9626,0,0,-9.9626,164.72513,105.894)"/>
<symbol id="font_5_1">
<path d="M .57600006 0 C .59300008 0 .611 0 .611 .019999996 C .611 .040000008 .59300008 .040000008 .57600006 .040000008 L .035000005 .040000008 C .018 .040000008 0 .040000008 0 .019999996 C 0 0 .018 0 .035000005 0 L .57600006 0 Z "/>
</symbol>
<use xlink:href="#font_5_1" transform="matrix(9.9626,0,0,-9.9626,10.403896,158.8886)"/>
<use xlink:href="#font_3_3" transform="matrix(9.9626,0,0,-9.9626,17.824131,161.18)"/>
<use xlink:href="#font_5_1" transform="matrix(9.9626,0,0,-9.9626,10.403896,126.61061)"/>
<use xlink:href="#font_3_2" transform="matrix(9.9626,0,0,-9.9626,18.212672,128.90201)"/>
<use xlink:href="#font_3_2" transform="matrix(9.9626,0,0,-9.9626,18.212672,64.759)"/>
<use xlink:href="#font_3_3" transform="matrix(9.9626,0,0,-9.9626,17.824131,32.479997)"/>
<use xlink:href="#font_2_4" transform="matrix(9.9626,0,0,-9.9626,198.43091,96.02659)"/>
<use xlink:href="#font_2_5" transform="matrix(9.9626,0,0,-9.9626,25.752915,9.652334)"/>
<path transform="matrix(1,0,0,-1,.199,174.525)" stroke-width="1" stroke-linecap="butt" stroke-miterlimit="10" stroke-linejoin="miter" fill="none" stroke="#808080" d="M 62.44514 78.5721 L 62.44514 82.82423 M 97.1369 78.5721 L 97.1369 82.82423 M 131.82865 78.5721 L 131.82865 82.82423 M 166.5204 78.5721 L 166.5204 82.82423 "/>
<path transform="matrix(1,0,0,-1,.199,174.525)" stroke-width="1" stroke-linecap="butt" stroke-miterlimit="10" stroke-linejoin="miter" fill="none" stroke="#808080" d="M 25.62845 16.13963 L 29.87833 16.13963 M 25.62845 48.4189 L 29.87833 48.4189 M 25.62845 112.97745 L 29.87833 112.97745 M 25.62845 145.25672 L 29.87833 145.25672 "/>
<path transform="matrix(1,0,0,-1,.199,174.525)" stroke-width="1" stroke-linecap="butt" stroke-miterlimit="10" stroke-linejoin="miter" fill="none" stroke="#000000" d="M 0 80.69818 L 192.28128 80.69818 "/>
<path transform="matrix(1,0,0,-1,192.48029,93.82681)" d="M 1.99252 0 L -1.19551 1.59401 L 0 0 L -1.19551 -1.59401 "/>
<path transform="matrix(1,0,0,-1,.199,174.525)" stroke-width="1" stroke-linecap="butt" stroke-miterlimit="10" stroke-linejoin="miter" fill="none" stroke="#000000" d="M 27.75339 0 L 27.75339 159.40384 "/>
<path transform="matrix(0,-1,-1,-0,27.952389,15.121155)" d="M 1.99252 0 L -1.19551 1.59401 L 0 0 L -1.19551 -1.59401 "/>
</svg>
