<?xml version="1.0" encoding="UTF-8" standalone="no"?>
<!DOCTYPE svg PUBLIC "-//W3C//DTD SVG 1.1//EN" "http://www.w3.org/Graphics/SVG/1.1/DTD/svg11.dtd">
<svg xmlns="http://www.w3.org/2000/svg" xmlns:xlink="http://www.w3.org/1999/xlink" version="1.1" width="257.856pt" height="230.431pt" viewBox="0 0 257.856 230.431">
<path transform="matrix(1,0,0,-1,14.095,214.897)" stroke-width=".19925" stroke-linecap="butt" stroke-miterlimit="10" stroke-linejoin="miter" fill="none" stroke="#929292" d="M 81.05542 -2.12607 L 81.05542 2.12607 M 162.11086 -2.12607 L 162.11086 2.12607 "/>
<path transform="matrix(1,0,0,-1,14.095,214.897)" stroke-width=".19925" stroke-linecap="butt" stroke-miterlimit="10" stroke-linejoin="miter" fill="none" stroke="#929292" d="M -2.12595 50.89317 L 2.12595 50.89317 M -2.12595 101.78636 L 2.12595 101.78636 M -2.12595 152.67954 L 2.12595 152.67954 "/>
<path transform="matrix(1,0,0,-1,14.095,214.897)" stroke-width=".3985" stroke-linecap="butt" stroke-miterlimit="10" stroke-linejoin="miter" fill="none" stroke="#800000" d="M 0 0 L 241.17375 0 "/>
<path transform="matrix(1,0,0,-1,255.26876,214.897)" d="M 1.99252 0 L -1.19551 1.59401 L 0 0 L -1.19551 -1.59401 " fill="#800000"/>
<path transform="matrix(1,0,0,-1,14.095,214.897)" stroke-width=".3985" stroke-linecap="butt" stroke-miterlimit="10" stroke-linejoin="miter" fill="none" stroke="#800000" d="M 0 0 L 0 201.5802 "/>
<path transform="matrix(0,-1,-1,-0,14.095,13.316803)" d="M 1.99252 0 L -1.19551 1.59401 L 0 0 L -1.19551 -1.59401 " fill="#800000"/>
<symbol id="font_0_6">
<path d="M .24800003 .37400005 C .33 .40100003 .388 .47100006 .388 .55 C .388 .632 .3 .688 .204 .688 C .10300001 .688 .027000003 .628 .027000003 .55200007 C .027000003 .519 .049000004 .5 .078 .5 C .109000008 .5 .12900001 .522 .12900001 .55100008 C .12900001 .6010001 .082 .6010001 .067 .6010001 C .098 .65000006 .164 .66300007 .20000002 .66300007 C .24100003 .66300007 .29600004 .64100006 .29600004 .55100008 C .29600004 .53900006 .29400004 .48100005 .268 .43700005 C .238 .38900004 .204 .38600005 .17900002 .38500003 C .171 .38400004 .14700002 .38200004 .14000002 .38200004 C .132 .38100005 .125 .38000003 .125 .37000004 C .125 .35900004 .132 .35900004 .14900002 .35900004 L .19300002 .35900004 C .275 .35900004 .312 .29100005 .312 .193 C .312 .057000005 .24300003 .028 .199 .028 C .15600002 .028 .081 .045 .046000005 .104 C .081 .09900001 .11200001 .12100001 .11200001 .15900001 C .11200001 .19500001 .085 .215 .056 .215 C .031999999 .215 0 .201 0 .157 C 0 .06600001 .093 0 .20200002 0 C .32400004 0 .41500003 .091000009 .41500003 .193 C .41500003 .27500005 .35200004 .35300005 .24800003 .37400005 Z "/>
</symbol>
<use xlink:href="#font_0_6" transform="matrix(9.9626,0,0,-9.9626,93.07743,227.25618)" fill="#800000"/>
<symbol id="font_0_7">
<path d="M .089999999 .35000003 L .089999999 .37400005 C .089999999 .62700006 .21400002 .66300007 .26500003 .66300007 C .28900004 .66300007 .33100004 .65700009 .35300002 .623 C .33800004 .623 .298 .623 .298 .57800009 C .298 .54700008 .32200004 .53200009 .344 .53200009 C .36 .53200009 .39000003 .54100009 .39000003 .58000007 C .39000003 .64000007 .34600003 .688 .263 .688 C .13499999 .688 0 .559 0 .33800004 C 0 .071 .116000007 0 .20900002 0 C .32000003 0 .41500003 .094000007 .41500003 .22600001 C .41500003 .35300005 .32600004 .44900004 .215 .44900004 C .14700002 .44900004 .11000001 .39800004 .089999999 .35000003 M .20900002 .028 C .146 .028 .116000007 .088 .11000001 .103 C .092 .15 .092 .23 .092 .24800001 C .092 .32600004 .124000009 .42600004 .21400002 .42600004 C .23000002 .42600004 .27600003 .42600004 .307 .36400003 C .32500003 .32700003 .32500003 .27600003 .32500003 .22700002 C .32500003 .179 .32500003 .12900001 .30800004 .093 C .27800004 .033000005 .23200003 .028 .20900002 .028 Z "/>
</symbol>
<use xlink:href="#font_0_7" transform="matrix(9.9626,0,0,-9.9626,174.13143,227.25618)" fill="#800000"/>
<symbol id="font_0_4">
<path d="M .205 .64000007 C .205 .66400006 .205 .666 .18200003 .666 C .120000008 .60200008 .032000007 .60200008 0 .60200008 L 0 .57100006 C .020000004 .57100006 .07900001 .57100006 .13100001 .597 L .13100001 .079 C .13100001 .043 .128 .031000002 .038000004 .031000002 L .0060000049 .031000002 L .0060000049 0 C .04100001 .003 .128 .003 .168 .003 C .20800002 .003 .29500003 .003 .33000005 0 L .33000005 .031000002 L .29800005 .031000002 C .20800002 .031000002 .205 .042000005 .205 .079 L .205 .64000007 Z "/>
</symbol>
<use xlink:href="#font_0_4" transform="matrix(9.9626,0,0,-9.9626,4.2806718,167.214)" fill="#800000"/>
<symbol id="font_0_5">
<path d="M .07700001 .07700001 L .18300002 .18 C .33900003 .31800003 .39900003 .372 .39900003 .47200004 C .39900003 .586 .30900003 .666 .18700002 .666 C .074 .666 0 .574 0 .485 C 0 .42900003 .05 .42900003 .053000008 .42900003 C .07000001 .42900003 .105000007 .441 .105000007 .48200003 C .105000007 .508 .08700001 .53400006 .052000006 .53400006 C .044000005 .53400006 .042000008 .53400006 .039 .53300008 C .062000004 .59800007 .11600001 .63500007 .17400001 .63500007 C .26500003 .63500007 .308 .554 .308 .47200004 C .308 .39200003 .25800003 .31300003 .20300003 .25100003 L .011000004 .037 C 0 .026 0 .024 0 0 L .37100003 0 L .39900003 .17400001 L .374 .17400001 C .36900003 .14400001 .36200003 .1 .352 .085 C .345 .07700001 .279 .07700001 .257 .07700001 L .07700001 .07700001 Z "/>
</symbol>
<use xlink:href="#font_0_5" transform="matrix(9.9626,0,0,-9.9626,3.8921302,116.322)" fill="#800000"/>
<use xlink:href="#font_0_6" transform="matrix(9.9626,0,0,-9.9626,3.8124293,65.64818)" fill="#800000"/>
<path transform="matrix(1,0,0,-1,14.095,214.897)" stroke-width="1.19553" stroke-linecap="butt" stroke-miterlimit="10" stroke-linejoin="miter" fill="none" stroke="#000080" d="M 0 88.14494 C 0 88.14494 7.32036 92.048 10.13191 93.49077 C 12.94347 94.93352 17.45229 97.17418 20.26385 98.54344 C 23.07541 99.9127 27.58421 102.05354 30.39577 103.35947 C 33.20734 104.66537 37.71614 106.70648 40.52771 107.95563 C 43.33926 109.20477 47.84807 111.16199 50.65962 112.36247 C 53.47119 113.56296 57.98001 115.4514 60.79156 116.60797 C 63.60312 117.76454 68.11192 119.58186 70.92348 120.69826 C 73.73505 121.81465 78.24387 123.57309 81.05542 124.65417 C 83.86697 125.73526 88.37578 127.44092 91.18735 128.49 C 93.9989 129.5391 98.50772 131.19588 101.31927 132.21538 C 104.13084 133.2349 108.63963 134.84693 111.4512 135.83797 C 114.26276 136.82901 118.77158 138.39325 121.58313 139.35825 C 124.3947 140.32324 128.9035 141.84787 131.71506 142.79303 C 134.52661 143.73818 139.03543 145.2454 141.84699 146.1703 C 144.65856 147.09519 149.16736 148.55695 151.97891 149.45902 C 154.79047 150.36109 159.29929 151.78972 162.11086 152.67189 C 164.92241 153.55406 169.43122 154.95223 172.24277 155.8171 C 175.05434 156.68196 179.56314 158.05661 182.37471 158.9053 C 185.18627 159.754 189.69507 161.10172 192.50662 161.93396 C 195.31819 162.7662 199.827 164.08672 202.63857 164.90357 C 205.45012 165.72042 209.95893 167.01792 212.77048 167.82128 C 215.58205 168.62464 220.09087 169.90418 222.90242 170.6937 C 225.71398 171.4832 230.22278 172.73526 233.03435 173.51163 C 235.8459 174.28801 243.16628 176.2894 243.16628 176.2894 "/>
<path transform="matrix(1,0,0,-1,14.095,214.897)" stroke-width="1.19553" stroke-linecap="butt" stroke-miterlimit="10" stroke-linejoin="miter" fill="none" stroke="#800080" d="M 0 101.78636 L 243.16628 178.12613 "/>
<symbol id="font_1_2">
<path d="M .33900006 .38500003 C .311 .38400004 .291 .36200003 .291 .34000004 C .291 .32600004 .3 .31100003 .32200004 .31100003 C .34400005 .31100003 .36800004 .328 .36800004 .367 C .36800004 .41200004 .325 .45300005 .24900003 .45300005 C .11700001 .45300005 .08 .351 .08 .307 C .08 .22900002 .15400002 .21400002 .18300002 .20800002 C .235 .19800002 .287 .18700002 .287 .13200002 C .287 .106000009 .264 .022000002 .14400001 .022000002 C .13000001 .022000002 .053000004 .022000002 .030000002 .075 C .068 .07000001 .09300001 .1 .09300001 .128 C .09300001 .15100001 .07700001 .16300002 .056 .16300002 C .030000002 .16300002 0 .14200002 0 .097 C 0 .040000004 .057000005 0 .143 0 C .305 0 .34400005 .12100001 .34400005 .16600001 C .34400005 .20200002 .325 .22700002 .31300003 .23900002 C .286 .26700003 .25700004 .272 .21300002 .28100003 C .17700002 .28900004 .13700001 .29600004 .13700001 .34100003 C .13700001 .37000004 .16100002 .43100003 .24900003 .43100003 C .274 .43100003 .324 .42400003 .33900006 .38500003 Z "/>
</symbol>
<use xlink:href="#font_1_2" transform="matrix(9.9626,0,0,-9.9626,42.172056,126.70959)" fill="#000080"/>
<symbol id="font_0_1">
<path d="M .23200003 .00999999 C .23200003 .012999982 .23200003 .014999986 .215 .03199999 C .09 .15799999 .058 .347 .058 .5 C .058 .674 .096 .84800007 .21900001 .97300007 C .23200003 .985 .23200003 .98700007 .23200003 .99 C .23200003 .99700006 .22800002 1 .222 1 C .21200001 1 .12200001 .93200007 .06299999 .805 C .012000002 .69500008 0 .584 0 .5 C 0 .422 .011 .301 .066 .188 C .126 .065 .21200001 0 .222 0 C .22800002 0 .23200003 .0029999912 .23200003 .00999999 Z "/>
</symbol>
<use xlink:href="#font_0_1" transform="matrix(9.9626,0,0,-9.9626,47.310297,129.09066)" fill="#000080"/>
<symbol id="font_1_3">
<path d="M .18300002 .411 L .277 .411 C .29700003 .411 .307 .411 .307 .43100003 C .307 .44200004 .29700003 .44200004 .279 .44200004 L .19100002 .44200004 C .227 .584 .23200003 .60400006 .23200003 .61 C .23200003 .62700006 .22000002 .637 .20300001 .637 C .2 .637 .172 .636 .163 .601 L .124 .44200004 L .030000002 .44200004 C .009999998 .44200004 0 .44200004 0 .42300005 C 0 .411 .007999999 .411 .028 .411 L .11600001 .411 C .044 .127 .04 .11000001 .04 .092 C .04 .038000004 .078 0 .132 0 C .234 0 .291 .14600002 .291 .15400002 C .291 .16400002 .28300003 .16400002 .279 .16400002 C .27 .16400002 .26900003 .16100002 .264 .15000002 C .22100002 .046 .16800002 .022000002 .134 .022000002 C .113000009 .022000002 .103 .035 .103 .068 C .103 .092 .105000007 .09900001 .109 .116000007 L .18300002 .411 Z "/>
</symbol>
<use xlink:href="#font_1_3" transform="matrix(9.9626,0,0,-9.9626,50.42814,126.70959)" fill="#000080"/>
<symbol id="font_0_2">
<path d="M .232 .5 C .232 .578 .22100002 .699 .16600001 .81200006 C .106 .93500009 .020000004 1 .009999998 1 C .0040000008 1 0 .99600008 0 .99 C 0 .98700007 0 .985 .019000002 .967 C .117000009 .86800006 .174 .709 .174 .5 C .174 .329 .137 .153 .012999997 .026999996 C 0 .014999986 0 .012999982 0 .00999999 C 0 .003999993 .0040000008 0 .009999998 0 C .020000004 0 .11000001 .06799999 .169 .195 C .22 .305 .232 .416 .232 .5 Z "/>
</symbol>
<symbol id="font_0_8">
<path d="M .63100007 .19400002 C .646 .19400002 .665 .19400002 .665 .214 C .665 .23400001 .646 .23400001 .632 .23400001 L .033 .23400001 C .019000002 .23400001 0 .23400001 0 .214 C 0 .19400002 .019000002 .19400002 .034 .19400002 L .63100007 .19400002 M .632 0 C .646 0 .665 0 .665 .02000001 C .665 .040000008 .646 .040000008 .63100007 .040000008 L .034 .040000008 C .019000002 .040000008 0 .040000008 0 .02000001 C 0 0 .019000002 0 .033 0 L .632 0 Z "/>
</symbol>
<use xlink:href="#font_0_2" transform="matrix(9.9626,0,0,-9.9626,54.363866,129.09066)" fill="#000080"/>
<use xlink:href="#font_0_8" transform="matrix(9.9626,0,0,-9.9626,60.99896,125.27497)" fill="#000080"/>
<symbol id="font_2_1">
<path d="M .316 .10500002 L .14000002 .49400003 C .13300002 .51 .12799999 .51 .125 .51 C .124000009 .51 .118999999 .51 .108 .502 L .012999997 .43 C 0 .42000003 0 .417 0 .41400004 C 0 .40900005 .0029999987 .403 .009999998 .403 C .015999996 .403 .033 .417 .044 .425 C .049999998 .43 .065000008 .44099999 .076 .449 L .273 .015999973 C .28 0 .285 0 .294 0 C .30900003 0 .312 .0059999825 .319 .01999998 L .773 .96000006 C .78000006 .97400006 .78000006 .97800007 .78000006 .98 C .78000006 .99 .772 1 .76000007 1 C .75200006 1 .745 .99500009 .73700007 .97900006 L .316 .10500002 Z "/>
</symbol>
<use xlink:href="#font_2_1" transform="matrix(9.9626,0,0,-9.9626,71.68127,127.8511)" fill="#000080"/>
<path transform="matrix(1,0,0,-1,79.256,118.088)" stroke-width=".398" stroke-linecap="butt" stroke-miterlimit="10" stroke-linejoin="miter" fill="none" stroke="#000080" d="M 0 0 L 20.755 0 "/>
<use xlink:href="#font_1_3" transform="matrix(9.9626,0,0,-9.9626,79.48514,126.70959)" fill="#000080"/>
<symbol id="font_0_3">
<path d="M .35300002 .31300003 L .632 .31300003 C .646 .31300003 .665 .31300003 .665 .333 C .665 .35300002 .646 .35300002 .632 .35300002 L .35300002 .35300002 L .35300002 .633 C .35300002 .647 .35300002 .666 .33300004 .666 C .31300003 .666 .31300003 .647 .31300003 .633 L .31300003 .35300002 L .033 .35300002 C .019000002 .35300002 0 .35300002 0 .333 C 0 .31300003 .019000002 .31300003 .033 .31300003 L .31300003 .31300003 L .31300003 .033000005 C .31300003 .019000002 .31300003 0 .33300004 0 C .35300002 0 .35300002 .019000002 .35300002 .033000005 L .35300002 .31300003 Z "/>
</symbol>
<use xlink:href="#font_0_3" transform="matrix(9.9626,0,0,-9.9626,85.6259,127.426898)" fill="#000080"/>
<use xlink:href="#font_0_6" transform="matrix(9.9626,0,0,-9.9626,95.44902,126.819179)" fill="#000080"/>
<symbol id="font_1_4">
<path d="M .439 .38300003 C .439 .43700005 .41300003 .45300005 .395 .45300005 C .37 .45300005 .34600003 .42700003 .34600003 .40500004 C .34600003 .39200003 .351 .38600005 .36200003 .37500004 C .38300003 .35500003 .396 .32900004 .396 .293 C .396 .25100003 .335 .022000002 .21800001 .022000002 C .16700001 .022000002 .14400001 .057000005 .14400001 .109000008 C .14400001 .16500002 .171 .23800002 .202 .321 C .209 .33800004 .21400002 .35200004 .21400002 .37100003 C .21400002 .41600005 .18200001 .45300005 .13200002 .45300005 C .038000004 .45300005 0 .30800004 0 .29900003 C 0 .28900004 .01 .28900004 .012 .28900004 C .022000002 .28900004 .023 .291 .028000003 .307 C .057000005 .40800003 .10000001 .43100003 .12900001 .43100003 C .13700001 .43100003 .15400002 .43100003 .15400002 .39900003 C .15400002 .374 .14400001 .34700004 .13700001 .32900004 C .09300001 .21300002 .080000009 .16700001 .080000009 .124000009 C .080000009 .016 .16800002 0 .21400002 0 C .382 0 .439 .33100004 .439 .38300003 Z "/>
</symbol>
<use xlink:href="#font_1_4" transform="matrix(9.9626,0,0,-9.9626,40.057916,34.95659)" fill="#800080"/>
<use xlink:href="#font_0_1" transform="matrix(9.9626,0,0,-9.9626,45.9423,37.33765)" fill="#800080"/>
<use xlink:href="#font_0_7" transform="matrix(9.9626,0,0,-9.9626,49.24988,35.066179)" fill="#800080"/>
<use xlink:href="#font_0_2" transform="matrix(9.9626,0,0,-9.9626,54.38062,37.33765)" fill="#800080"/>
<use xlink:href="#font_0_8" transform="matrix(9.9626,0,0,-9.9626,61.015714,33.521974)" fill="#800080"/>
<use xlink:href="#font_1_2" transform="matrix(9.9626,0,0,-9.9626,71.48706,34.95659)" fill="#800080"/>
<symbol id="font_3_1">
<path d="M .24200002 .43100003 C .25 .448 .25100003 .456 .25100003 .463 C .25100003 .49400003 .22300002 .518 .192 .518 C .15400002 .518 .14200002 .487 .137 .47100003 L .0050000029 .038000004 C .0040000008 .036000007 0 .023000002 0 .022 C 0 .010000002 .031000004 0 .039000006 0 C .046000005 0 .047000007 .0020000004 .054000006 .017 L .24200002 .43100003 Z "/>
</symbol>
<use xlink:href="#font_3_1" transform="matrix(6.9738,0,0,-6.9738,75.97374,30.447077)" fill="#800080"/>
<use xlink:href="#font_0_1" transform="matrix(9.9626,0,0,-9.9626,79.420299,37.33765)" fill="#800080"/>
<use xlink:href="#font_0_7" transform="matrix(9.9626,0,0,-9.9626,82.727878,35.066179)" fill="#800080"/>
<use xlink:href="#font_0_2" transform="matrix(9.9626,0,0,-9.9626,87.85862,37.33765)" fill="#800080"/>
<use xlink:href="#font_0_8" transform="matrix(9.9626,0,0,-9.9626,94.493709,33.521974)" fill="#800080"/>
<use xlink:href="#font_0_4" transform="matrix(9.9626,0,0,-9.9626,106.52967,28.106995)" fill="#800080"/>
<path transform="matrix(1,0,0,-1,105.643,32.356004)" stroke-width=".398" stroke-linecap="butt" stroke-miterlimit="10" stroke-linejoin="miter" fill="none" stroke="#800080" d="M 0 0 L 4.981 0 "/>
<use xlink:href="#font_0_7" transform="matrix(9.9626,0,0,-9.9626,106.061428,41.900178)" fill="#800080"/>
<symbol id="font_4_9">
<path d="M .147 .18600002 C .15200001 .20800002 .158 .22900002 .163 .25100003 C .176 .3 .176 .30200003 .18800003 .323 C .21700001 .37300004 .26000003 .43100003 .32900004 .43100003 C .37500004 .43100003 .37500004 .38000003 .37500004 .365 C .37500004 .33800004 .36800004 .30900003 .36600004 .3 L .301 .040000004 C .29900003 .034 .298 .029000003 .298 .026 C .298 .015000001 .30600003 0 .326 0 C .33800004 0 .35500003 .0070000009 .36200003 .026 L .402 .18600002 C .407 .20800002 .41300003 .22900002 .41800005 .25100003 C .431 .3 .431 .30200003 .44300003 .323 C .472 .37300004 .51500007 .43100003 .58400008 .43100003 C .63000008 .43100003 .63000008 .38000003 .63000008 .365 C .63000008 .30300004 .586 .18400002 .572 .14400001 C .559 .11000001 .55600008 .101 .55600008 .080000009 C .55600008 .036000004 .58400008 0 .632 0 C .725 0 .75900009 .14900002 .75900009 .15400002 C .75900009 .16400002 .75100007 .16400002 .744 .16400002 C .731 .16400002 .731 .16200002 .72700008 .14700002 C .71900007 .120000008 .69200006 .022000002 .634 .022000002 C .61300006 .022000002 .61200007 .037 .61200007 .051000004 C .61200007 .076000008 .62200006 .102000009 .63000008 .126 C .65000006 .17900002 .69100007 .291 .69100007 .34900005 C .69100007 .43300004 .633 .45300005 .586 .45300005 C .51600006 .45300005 .46600003 .40900005 .43600006 .365 C .42800004 .43400003 .37600003 .45300005 .33100004 .45300005 C .271 .45300005 .222 .42000003 .18800003 .374 C .181 .42300005 .147 .45300005 .104 .45300005 C .068 .45300005 .048000009 .43000005 .031999999 .40000005 C .012999997 .36 0 .30100004 0 .29900003 C 0 .28900004 .009999998 .28900004 .015000001 .28900004 C .028000005 .28900004 .029 .29000003 .034 .31200005 C .052 .38200004 .07100001 .43100003 .102 .43100003 C .128 .43100003 .128 .40200005 .128 .39100004 C .128 .37500004 .125 .35600005 .12100001 .34000004 L .046000005 .040000004 C .044 .034 .042999999 .029000003 .042999999 .026 C .042999999 .015000001 .051 0 .07100001 0 C .083000008 0 .10000001 .0070000009 .10700001 .026 L .147 .18600002 Z "/>
</symbol>
<symbol id="font_4_1">
<path d="M .58900007 .961 C .5960001 .97400006 .5960001 .97800007 .5960001 .98 C .5960001 .99100008 .5870001 1 .577 1 C .56900009 1 .563 .99700006 .554 .98200008 L .0069999995 .03899999 C 0 .025999994 0 .021999985 0 .019999996 C 0 .008999988 .009 0 .019 0 C .027 0 .033 .0029999912 .042000005 .017999992 L .58900007 .961 Z "/>
</symbol>
<symbol id="font_4_d">
<path d="M .171 .20800002 C .215 .19800002 .26000003 .18800001 .26000003 .134 C .26000003 .102000009 .23300001 .022000002 .13000001 .022000002 C .10800001 .022000002 .049999998 .027000003 .034 .078 C .08500001 .083000008 .08500001 .12500002 .08500001 .127 C .08500001 .14600002 .072 .15900001 .051 .15900001 C .027999998 .15900001 0 .14200002 0 .097 C 0 .036000004 .058 0 .12900001 0 C .279 0 .317 .12200001 .317 .16800002 C .317 .25500003 .23900002 .27300004 .19800002 .28200004 C .17 .28800003 .134 .29600004 .134 .33900003 C .134 .36300005 .155 .43100003 .23500002 .43100003 C .26200003 .43100003 .29900003 .42100004 .31 .38200004 C .278 .37800003 .27 .351 .27 .34100003 C .27 .33 .27600003 .31300003 .3 .31300003 C .317 .31300003 .34300003 .32500003 .34300003 .36800004 C .34300003 .41400004 .30200003 .45300005 .236 .45300005 C .119 .45300005 .07800001 .35700003 .07800001 .305 C .07800001 .22800002 .143 .21400002 .171 .20800002 Z "/>
</symbol>
<use xlink:href="#font_4_9" transform="matrix(9.9626,0,0,-9.9626,116.21189,34.95659)" fill="#800080"/>
<use xlink:href="#font_4_1" transform="matrix(9.9626,0,0,-9.9626,123.73365,37.33765)" fill="#800080"/>
<use xlink:href="#font_4_d" transform="matrix(9.9626,0,0,-9.9626,129.38245,34.95659)" fill="#800080"/>
<symbol id="font_4_8">
<path d="M .20899999 .68 C .21000001 .683 .21200001 .691 .21200001 .693 C .21200001 .702 .206 .705 .19800002 .705 C .195 .705 .185 .704 .18200001 .703 L .083 .695 C .071 .694 .06000001 .693 .06000001 .674 C .06000001 .663 .07 .663 .084 .663 C .132 .663 .134 .656 .134 .646 C .134 .643 .13100001 .63 .13100001 .629 L .0059999974 .12900001 C .0050000029 .12500002 0 .105000007 0 .09 C 0 .037 .036000007 0 .084 0 C .122 0 .14200002 .027000003 .155 .052 C .17199999 .087000008 .18599999 .15100001 .18599999 .15400002 C .18599999 .16400002 .178 .16400002 .171 .16400002 C .16600001 .16400002 .16 .16400002 .157 .15900001 L .15 .134 C .13300002 .064 .114 .022000002 .086 .022000002 C .06000001 .022000002 .06000001 .049000004 .06000001 .063 C .06000001 .07000001 .06000001 .085 .06600001 .109000008 L .20899999 .68 Z "/>
</symbol>
<symbol id="font_4_b">
<path d="M .399 .28900004 C .399 .38400004 .34 .45300005 .253 .45300005 C .12900001 .45300005 0 .31100003 0 .16500002 C 0 .062000004 .063 0 .146 0 C .27 0 .399 .14200002 .399 .28900004 M .146 .022000002 C .107 .022000002 .07 .053000004 .07 .12500002 C .07 .17500001 .09600001 .286 .12799999 .34000004 C .16499999 .40100003 .213 .43100003 .252 .43100003 C .301 .43100003 .329 .38700003 .329 .328 C .329 .28500004 .307 .18200001 .275 .12200001 C .24599999 .067 .195 .022000002 .146 .022000002 Z "/>
</symbol>
<symbol id="font_4_c">
<path d="M .076000008 .066 C .068 .034999998 .060000004 .032000007 .021 .031000004 C .012 .031000004 0 .031000004 0 .0119999949 C 0 .004999995 .005000001 0 .012 0 C .039000006 0 .068 .0029999912 .09600001 .0029999912 C .128 .0029999912 .16200002 0 .19300002 0 C .19900002 0 .21200001 0 .21200001 .018999994 C .21200001 .031000004 .202 .031000004 .18800001 .031000004 C .13700001 .031000004 .13700001 .037 .13700001 .047000007 C .13700001 .053000004 .14400001 .079 .148 .095 L .18400002 .24100001 C .19100002 .224 .216 .183 .268 .183 C .37700004 .183 .49600006 .33100004 .49600006 .48000003 C .49600006 .587 .43600003 .63600006 .37600003 .63600006 C .32700003 .63600006 .284 .6 .25500003 .566 C .243 .624 .19800002 .63600006 .17300001 .63600006 C .13700001 .63600006 .11700001 .61300006 .101 .58300009 C .082 .543 .069000009 .48400004 .069000009 .48200003 C .069000009 .47200004 .079 .47200004 .08400001 .47200004 C .09700001 .47200004 .098000008 .47300003 .10300001 .49500004 C .12100001 .56500008 .14000002 .614 .171 .614 C .19700001 .614 .19700001 .58500006 .19700001 .574 C .19700001 .568 .19700001 .55200007 .19000001 .52400007 L .076000008 .066 M .24900002 .50100007 C .25700004 .535 .319 .614 .374 .614 C .41900004 .614 .42900003 .55700007 .42900003 .52500006 C .42900003 .483 .402 .36400003 .37300004 .3 C .36100004 .275 .31800003 .20500002 .26700003 .20500002 C .209 .20500002 .19900002 .29000003 .19900002 .298 C .19900002 .301 .20000002 .30400003 .202 .312 L .24900002 .50100007 Z "/>
</symbol>
<symbol id="font_4_3">
<path d="M .125 .24200002 C .15500002 .24200002 .22200002 .24500002 .26999999 .26400004 C .34900005 .29600004 .34900005 .36100004 .34900005 .36800004 C .34900005 .41400004 .31200005 .45300005 .24800001 .45300005 C .14299999 .45300005 0 .35200004 0 .17500001 C 0 .085 .047999994 0 .14299999 0 C .27100004 0 .35400004 .1 .35400004 .115 C .35400004 .120000008 .34600003 .13100001 .338 .13100001 C .334 .13100001 .333 .13000001 .325 .120000008 C .251 .026 .16200002 .022000002 .145 .022000002 C .08 .022000002 .069000009 .093 .069000009 .13200002 C .069000009 .17000002 .078999999 .21500002 .085999999 .24200002 L .125 .24200002 M .09200001 .26400004 C .135 .42800004 .23800002 .43100003 .24800001 .43100003 C .288 .43100003 .311 .404 .311 .37000004 C .311 .26400004 .14600002 .26400004 .113000009 .26400004 L .09200001 .26400004 Z "/>
</symbol>
<symbol id="font_4_4">
<path d="M .30200003 .605 L .38400004 .605 C .40100003 .605 .411 .605 .411 .623 C .411 .63600006 .40300004 .63600006 .38600005 .63600006 L .30800004 .63600006 C .32200004 .71000006 .32500003 .72800007 .34000004 .7980001 C .34800003 .83500006 .35900004 .888 .395 .888 C .40300004 .888 .42400003 .88600006 .43700005 .87 C .40700004 .865 .39300005 .8410001 .39300005 .8210001 C .39300005 .799 .411 .78900006 .42700003 .78900006 C .45200003 .78900006 .47700004 .809 .47700004 .8440001 C .47700004 .8870001 .43600003 .9100001 .395 .9100001 C .29700003 .9100001 .272 .7800001 .26500003 .74600008 L .24400002 .63600006 L .17800002 .63600006 C .16200002 .63600006 .15100001 .63600006 .15100001 .61600008 C .15100001 .605 .16100002 .605 .17600002 .605 L .23800002 .605 L .165 .23200001 C .15300001 .17000002 .143 .12900001 .13700001 .10800001 C .12900001 .074 .116000007 .022 .080000009 .022 C .07 .022 .051 .025000006 .04 .040000008 C .07 .045 .08400001 .069000009 .08400001 .08900001 C .08400001 .11100001 .066 .12100001 .05 .12100001 C .025 .12100001 0 .10100001 0 .066 C 0 .020999998 .043 0 .080000009 0 C .18400002 0 .22500001 .21000001 .23200003 .24600002 L .30200003 .605 Z "/>
</symbol>
<symbol id="font_4_e">
<path d="M .16900002 .411 L .254 .411 C .27100004 .411 .282 .411 .282 .43000005 C .282 .44200004 .273 .44200004 .25700004 .44200004 L .177 .44200004 L .214 .59000006 C .21800001 .60400006 .21800001 .606 .21800001 .611 C .21800001 .632 .20100002 .637 .191 .637 C .166 .637 .156 .616 .15200001 .601 L .113000009 .44200004 L .027999998 .44200004 C .011 .44200004 0 .44200004 0 .42300005 C 0 .411 .008999996 .411 .024999999 .411 L .105000007 .411 L .033 .124000009 C .031999999 .120000008 .027999998 .104 .027999998 .09 C .027999998 .040000004 .061000006 0 .113000009 0 C .214 0 .265 .14900002 .265 .15400002 C .265 .16400002 .25700004 .16400002 .25 .16400002 C .23800002 .16400002 .23800002 .16300002 .23 .14500001 C .212 .097 .172 .022000002 .11500001 .022000002 C .088 .022000002 .088 .047000003 .088 .063 C .088 .07000001 .088 .086 .095 .11400001 L .16900002 .411 Z "/>
</symbol>
<symbol id="font_4_6">
<path d="M .228 .68 C .22900002 .683 .23100002 .691 .23100002 .693 C .23100002 .702 .22500001 .705 .21700002 .705 C .214 .705 .20400001 .704 .20100002 .703 L .102 .695 C .09 .694 .07900001 .693 .07900001 .674 C .07900001 .663 .089 .663 .103 .663 C .15100001 .663 .15300001 .656 .15300001 .646 C .15300001 .643 .15 .63 .15 .629 L .002000004 .039 C .001000002 .037 0 .028 0 .026 C 0 .015000001 .009000003 0 .028000005 0 C .049000004 0 .062000008 .017 .065 .028 C .069000009 .043 .10100001 .17300001 .10800001 .20100002 C .113000009 .22300002 .119 .24400002 .12400001 .26600004 C .133 .30200003 .134 .30400003 .15200001 .33600004 C .172 .36800004 .21500002 .43100003 .28500004 .43100003 C .329 .43100003 .33100004 .38600005 .33100004 .365 C .33100004 .30300004 .287 .18400002 .273 .14400001 C .26 .11000001 .25700004 .101 .25700004 .080000009 C .25700004 .036000004 .28500004 0 .333 0 C .42600007 0 .46000005 .14900002 .46000005 .15400002 C .46000005 .16400002 .45200003 .16400002 .44500006 .16400002 C .43200005 .16400002 .43200005 .16200002 .42800004 .14700002 C .42000003 .120000008 .393 .022000002 .33500005 .022000002 C .314 .022000002 .31300003 .037 .31300003 .051000004 C .31300003 .076000008 .323 .102000009 .33100004 .126 C .351 .17900002 .39200003 .291 .39200003 .34900005 C .39200003 .43100003 .337 .45300005 .288 .45300005 C .221 .45300005 .186 .418 .155 .388 L .228 .68 Z "/>
</symbol>
<symbol id="font_4_2">
<path d="M .241 .07000001 C .252 .021000002 .289 0 .324 0 C .361 0 .382 .025000003 .39699999 .056 C .415 .094000007 .42700003 .15200001 .42700003 .15400002 C .42700003 .16400002 .419 .16400002 .41200004 .16400002 C .4 .16400002 .39900003 .16300002 .39300005 .14100002 C .379 .085 .36 .022000002 .326 .022000002 C .3 .022000002 .3 .049000004 .3 .063 C .3 .07000001 .3 .086 .307 .11400001 L .375 .38600005 C .379 .40000005 .379 .40200005 .379 .40700004 C .379 .42800004 .36200003 .43300004 .352 .43300004 C .32000003 .43300004 .31300003 .39900003 .312 .39400003 C .293 .43700005 .261 .45300005 .229 .45300005 C .11800001 .45300005 0 .30100004 0 .15500002 C 0 .07000001 .04600001 0 .121000017 0 C .157 0 .201 .021000002 .241 .07000001 M .29500003 .32400004 L .248 .135 C .24000001 .10300001 .178 .022000002 .123 .022000002 C .07600001 .022000002 .06800001 .081 .06800001 .111 C .06800001 .16100002 .099000018 .27800004 .117000009 .32000003 C .14199999 .381 .188 .43100003 .229 .43100003 C .273 .43100003 .298 .37900005 .298 .337 C .298 .335 .29700003 .33 .29500003 .32400004 Z "/>
</symbol>
<symbol id="font_4_a">
<path d="M .147 .18600002 C .15200001 .20800002 .158 .22900002 .163 .25100003 C .176 .30200003 .176 .30300004 .19300002 .33200003 C .20700002 .35600005 .252 .43100003 .328 .43100003 C .372 .43100003 .374 .38600005 .374 .365 C .374 .30300004 .33 .18400002 .316 .14400001 C .303 .11000001 .3 .101 .3 .080000009 C .3 .036000004 .328 0 .37600003 0 C .46900005 0 .503 .14900002 .503 .15400002 C .503 .16400002 .495 .16400002 .48800005 .16400002 C .47500003 .16400002 .47500003 .16200002 .47100003 .14700002 C .463 .120000008 .43600006 .022000002 .37800003 .022000002 C .35700003 .022000002 .356 .037 .356 .051000004 C .356 .076000008 .36600004 .102000009 .374 .126 C .39400003 .17900002 .435 .291 .435 .34900005 C .435 .43100003 .38000003 .45300005 .33100004 .45300005 C .24900002 .45300005 .201 .39300005 .18800003 .374 C .181 .42300005 .147 .45300005 .104 .45300005 C .068 .45300005 .048000009 .43000005 .031999999 .40000005 C .012999997 .36 0 .30100004 0 .29900003 C 0 .28900004 .009999998 .28900004 .015000001 .28900004 C .028000005 .28900004 .029 .29000003 .034 .31200005 C .052 .38200004 .07100001 .43100003 .102 .43100003 C .128 .43100003 .128 .40200005 .128 .39100004 C .128 .37500004 .125 .35600005 .12100001 .34000004 L .046000005 .040000004 C .044 .034 .042999999 .029000003 .042999999 .026 C .042999999 .015000001 .051 0 .07100001 0 C .083000008 0 .10000001 .0070000009 .10700001 .026 L .147 .18600002 Z "/>
</symbol>
<symbol id="font_4_5">
<path d="M .28500004 .25800003 L .264 .17400001 C .252 .12400001 .24600002 .10300001 .21800003 .069000009 C .178 .022 .13800001 .022 .12300001 .022 C .11 .022 .078999999 .022 .052 .033000009 C .072 .04100001 .08400001 .062000008 .08400001 .07900001 C .08400001 .09200001 .075 .11100001 .049000004 .11100001 C .031000004 .11100001 0 .09700001 0 .058000015 C 0 .018000007 .037 0 .12100001 0 C .22600001 0 .30200003 .066 .321 .14200002 L .43 .58000007 C .43400003 .595 .43400003 .597 .43400003 .6010001 C .43400003 .62200006 .41700004 .62700006 .407 .62700006 C .395 .62700006 .372 .6190001 .36800004 .59000006 C .354 .6190001 .32700003 .6470001 .284 .6470001 C .172 .6470001 .057000005 .499 .057000005 .35800005 C .057000005 .273 .104 .20500002 .179 .20500002 C .23000002 .20500002 .273 .24600002 .28500004 .25800003 M .35000003 .51900008 L .305 .337 C .29700003 .305 .236 .22700002 .18100001 .22700002 C .127 .22700002 .125 .30300004 .125 .314 C .125 .36200003 .155 .47900004 .17600002 .526 C .201 .58000007 .245 .625 .284 .625 C .344 .625 .35300002 .541 .35300002 .533 L .35000003 .51900008 Z "/>
</symbol>
<symbol id="font_4_7">
<path d="M .24800003 .15400002 C .24800003 .16400002 .24000001 .16400002 .23300001 .16400002 C .22 .16400002 .22 .16200002 .21600002 .14700002 C .208 .11800001 .181 .022000002 .12300001 .022000002 C .11500001 .022000002 .10100001 .023000002 .10100001 .05 C .10100001 .076000008 .11400001 .109000008 .127 .14600002 L .19100002 .31700004 C .201 .34600003 .20300001 .35400004 .20300001 .37300004 C .20300001 .42800004 .165 .45300005 .128 .45300005 C .034 .45300005 0 .30400003 0 .29900003 C 0 .28900004 .009999998 .28900004 .015000001 .28900004 C .028000005 .28900004 .029 .291 .033 .305 C .041999997 .33800004 .068 .43100003 .126 .43100003 C .13700001 .43100003 .148 .42600004 .148 .40300004 C .148 .37900005 .13700001 .35000003 .13000001 .33100004 L .10000001 .24800003 C .087 .21500002 .075 .18200001 .06300001 .14900002 C .048999996 .111 .045 .1 .045 .080000009 C .045 .041 .069000009 0 .12100001 0 C .215 0 .24800003 .15000002 .24800003 .15400002 M .243 .634 C .243 .659 .22300002 .667 .20900002 .667 C .18800003 .667 .16100002 .647 .16100002 .619 C .16100002 .594 .181 .586 .19500003 .586 C .215 .586 .243 .605 .243 .634 Z "/>
</symbol>
<use xlink:href="#font_4_d" transform="matrix(9.9626,0,0,-9.9626,41.220159,55.3136)" fill="#800080"/>
<use xlink:href="#font_4_8" transform="matrix(9.9626,0,0,-9.9626,45.47419,55.3136)" fill="#800080"/>
<use xlink:href="#font_4_b" transform="matrix(9.9626,0,0,-9.9626,48.184019,55.3136)" fill="#800080"/>
<use xlink:href="#font_4_c" transform="matrix(9.9626,0,0,-9.9626,52.318498,57.136754)" fill="#800080"/>
<use xlink:href="#font_4_3" transform="matrix(9.9626,0,0,-9.9626,57.897554,55.3136)" fill="#800080"/>
<use xlink:href="#font_4_b" transform="matrix(9.9626,0,0,-9.9626,66.00711,55.3136)" fill="#800080"/>
<use xlink:href="#font_4_4" transform="matrix(9.9626,0,0,-9.9626,69.75305,57.24634)" fill="#800080"/>
<use xlink:href="#font_4_e" transform="matrix(9.9626,0,0,-9.9626,77.52387,55.3136)" fill="#800080"/>
<use xlink:href="#font_4_6" transform="matrix(9.9626,0,0,-9.9626,80.67206,55.3136)" fill="#800080"/>
<use xlink:href="#font_4_3" transform="matrix(9.9626,0,0,-9.9626,86.15149,55.3136)" fill="#800080"/>
<use xlink:href="#font_4_e" transform="matrix(9.9626,0,0,-9.9626,94.071758,55.3136)" fill="#800080"/>
<use xlink:href="#font_4_2" transform="matrix(9.9626,0,0,-9.9626,97.548709,55.3136)" fill="#800080"/>
<use xlink:href="#font_4_a" transform="matrix(9.9626,0,0,-9.9626,102.39053,55.3136)" fill="#800080"/>
<use xlink:href="#font_4_5" transform="matrix(9.9626,0,0,-9.9626,107.690639,57.24634)" fill="#800080"/>
<use xlink:href="#font_4_3" transform="matrix(9.9626,0,0,-9.9626,112.88115,55.3136)" fill="#800080"/>
<use xlink:href="#font_4_a" transform="matrix(9.9626,0,0,-9.9626,117.155109,55.3136)" fill="#800080"/>
<use xlink:href="#font_4_e" transform="matrix(9.9626,0,0,-9.9626,122.833789,55.3136)" fill="#800080"/>
<use xlink:href="#font_4_8" transform="matrix(9.9626,0,0,-9.9626,129.73787,55.3136)" fill="#800080"/>
<use xlink:href="#font_4_7" transform="matrix(9.9626,0,0,-9.9626,132.17871,55.3136)" fill="#800080"/>
<use xlink:href="#font_4_a" transform="matrix(9.9626,0,0,-9.9626,135.23723,55.3136)" fill="#800080"/>
<use xlink:href="#font_4_3" transform="matrix(9.9626,0,0,-9.9626,141.14507,55.3136)" fill="#800080"/>
<use xlink:href="#font_0_8" transform="matrix(9.9626,0,0,-9.9626,148.71591,53.878984)" fill="#800080"/>
<use xlink:href="#font_0_4" transform="matrix(9.9626,0,0,-9.9626,160.75669,48.464006)" fill="#800080"/>
<path transform="matrix(1,0,0,-1,159.87,52.713014)" stroke-width=".398" stroke-linecap="butt" stroke-miterlimit="10" stroke-linejoin="miter" fill="none" stroke="#800080" d="M 0 0 L 4.981 0 "/>
<use xlink:href="#font_0_7" transform="matrix(9.9626,0,0,-9.9626,160.28842,62.257188)" fill="#800080"/>
<use xlink:href="#font_0_1" transform="matrix(9.9626,0,0,-9.9626,174.2263,77.37865)" fill="#000080"/>
<use xlink:href="#font_0_7" transform="matrix(9.9626,0,0,-9.9626,177.53389,75.10718)" fill="#000080"/>
<symbol id="font_1_1">
<path d="M .117000009 .194 C .117000009 .26 .092 .29900003 .05300001 .29900003 C .020000004 .29900003 0 .274 0 .246 C 0 .21900001 .020000004 .193 .05300001 .193 C .065000008 .193 .078 .197 .08800001 .206 C .091 .208 .092 .209 .093 .209 C .094000007 .209 .095000009 .208 .095000009 .194 C .095000009 .12 .06000001 .060000004 .027000003 .026999996 C .016000003 .016000003 .016000003 .013999999 .016000003 .0109999929 C .016000003 .003999993 .021000006 0 .026 0 C .037 0 .117000009 .077 .117000009 .194 Z "/>
</symbol>
<use xlink:href="#font_1_1" transform="matrix(9.9626,0,0,-9.9626,182.95178,76.81078)" fill="#000080"/>
<use xlink:href="#font_0_6" transform="matrix(9.9626,0,0,-9.9626,186.94142,75.10718)" fill="#000080"/>
<use xlink:href="#font_0_2" transform="matrix(9.9626,0,0,-9.9626,192.07216,77.37865)" fill="#000080"/>
<path transform="matrix(1,0,0,-1,14.095,214.897)" d="M 164.10341 152.67954 C 164.10341 153.78002 163.21132 154.67209 162.11086 154.67209 C 161.01038 154.67209 160.1183 153.78002 160.1183 152.67954 C 160.1183 151.57907 161.01038 150.68698 162.11086 150.68698 C 163.21132 150.68698 164.10341 151.57907 164.10341 152.67954 Z M 162.11086 152.67954 " fill="#000080"/>
<path transform="matrix(1,0,0,-1,14.095,214.897)" stroke-width="1.19553" stroke-linecap="butt" stroke-miterlimit="10" stroke-linejoin="miter" fill="none" stroke="#000080" d="M 164.10341 152.67954 C 164.10341 153.78002 163.21132 154.67209 162.11086 154.67209 C 161.01038 154.67209 160.1183 153.78002 160.1183 152.67954 C 160.1183 151.57907 161.01038 150.68698 162.11086 150.68698 C 163.21132 150.68698 164.10341 151.57907 164.10341 152.67954 Z M 162.11086 152.67954 "/>
<use xlink:href="#font_1_3" transform="matrix(9.9626,0,0,-9.9626,250.33315,211.4126)" fill="#800000"/>
<use xlink:href="#font_1_2" transform="matrix(9.9626,0,0,-9.9626,12.278055,7.7925875)" fill="#800000"/>
</svg>
