<?xml version="1.0" encoding="UTF-8" standalone="no"?>
<!DOCTYPE svg PUBLIC "-//W3C//DTD SVG 1.1//EN" "http://www.w3.org/Graphics/SVG/1.1/DTD/svg11.dtd">
<svg xmlns="http://www.w3.org/2000/svg" xmlns:xlink="http://www.w3.org/1999/xlink" version="1.1" width="157.407pt" height="130.468pt" viewBox="0 0 157.407 130.468">
<path transform="matrix(1,0,0,-1,9.686,275.341)" stroke-width=".19925" stroke-linecap="butt" stroke-miterlimit="10" stroke-linejoin="miter" fill="none" stroke="#929292" d="M 0 204.9022 L 0 209.15406 M 33.79095 204.9022 L 33.79095 209.15406 M 101.37286 204.9022 L 101.37286 209.15406 M 135.16382 204.9022 L 135.16382 209.15406 "/>
<path transform="matrix(1,0,0,-1,9.686,275.341)" stroke-width=".19925" stroke-linecap="butt" stroke-miterlimit="10" stroke-linejoin="miter" fill="none" stroke="#929292" d="M 65.45587 151.82064 L 69.70793 151.82064 M 65.45587 179.42438 L 69.70793 179.42438 M 65.45587 234.63188 L 69.70793 234.63188 M 65.45587 262.23564 L 69.70793 262.23564 "/>
<path transform="matrix(1,0,0,-1,9.686,275.341)" stroke-width=".3985" stroke-linecap="butt" stroke-miterlimit="10" stroke-linejoin="miter" fill="none" stroke="#000000" d="M 0 207.02814 L 133.1713 207.02814 "/>
<path transform="matrix(1,0,0,-1,142.8573,68.31287)" d="M 1.99252 0 L -1.19551 1.59401 L 0 0 L -1.19551 -1.59401 "/>
<path transform="matrix(1,0,0,-1,9.686,275.341)" stroke-width=".3985" stroke-linecap="butt" stroke-miterlimit="10" stroke-linejoin="miter" fill="none" stroke="#000000" d="M 67.58191 151.82064 L 67.58191 260.24314 "/>
<path transform="matrix(0,-1,-1,-0,77.26791,15.09787)" d="M 1.99252 0 L -1.19551 1.59401 L 0 0 L -1.19551 -1.59401 "/>
<symbol id="font_0_1">
<path d="M .57600006 0 C .59300008 0 .611 0 .611 .019999996 C .611 .040000008 .59300008 .040000008 .57600006 .040000008 L .035000005 .040000008 C .018 .040000008 0 .040000008 0 .019999996 C 0 0 .018 0 .035000005 0 L .57600006 0 Z "/>
</symbol>
<use xlink:href="#font_0_1" transform="matrix(9.9626,0,0,-9.9626,4.147896,78.0896)"/>
<symbol id="font_1_2">
<path d="M .07700001 .07700001 L .18300002 .18 C .33900003 .31800003 .39900003 .372 .39900003 .47200004 C .39900003 .586 .30900003 .666 .18700002 .666 C .074 .666 0 .574 0 .485 C 0 .42900003 .05 .42900003 .053000008 .42900003 C .07000001 .42900003 .105000007 .441 .105000007 .48200003 C .105000007 .508 .08700001 .53400006 .052000006 .53400006 C .044000005 .53400006 .042000008 .53400006 .039 .53300008 C .062000004 .59800007 .11600001 .63500007 .17400001 .63500007 C .26500003 .63500007 .308 .554 .308 .47200004 C .308 .39200003 .25800003 .31300003 .20300003 .25100003 L .011000004 .037 C 0 .026 0 .024 0 0 L .37100003 0 L .39900003 .17400001 L .374 .17400001 C .36900003 .14400001 .36200003 .1 .352 .085 C .345 .07700001 .279 .07700001 .257 .07700001 L .07700001 .07700001 Z "/>
</symbol>
<use xlink:href="#font_1_2" transform="matrix(9.9626,0,0,-9.9626,11.56713,80.381)"/>
<use xlink:href="#font_0_1" transform="matrix(9.9626,0,0,-9.9626,37.937898,78.0896)"/>
<symbol id="font_1_1">
<path d="M .205 .64000007 C .205 .66400006 .205 .666 .18200003 .666 C .120000008 .60200008 .032000007 .60200008 0 .60200008 L 0 .57100006 C .020000004 .57100006 .07900001 .57100006 .13100001 .597 L .13100001 .079 C .13100001 .043 .128 .031000002 .038000004 .031000002 L .0060000049 .031000002 L .0060000049 0 C .04100001 .003 .128 .003 .168 .003 C .20800002 .003 .29500003 .003 .33000005 0 L .33000005 .031000002 L .29800005 .031000002 C .20800002 .031000002 .205 .042000005 .205 .079 L .205 .64000007 Z "/>
</symbol>
<use xlink:href="#font_1_1" transform="matrix(9.9626,0,0,-9.9626,45.746675,80.381)"/>
<use xlink:href="#font_1_1" transform="matrix(9.9626,0,0,-9.9626,109.45267,80.381)"/>
<use xlink:href="#font_1_2" transform="matrix(9.9626,0,0,-9.9626,142.85514,80.381)"/>
<use xlink:href="#font_0_1" transform="matrix(9.9626,0,0,-9.9626,59.7179,124.025608)"/>
<use xlink:href="#font_1_2" transform="matrix(9.9626,0,0,-9.9626,67.13813,126.317)"/>
<use xlink:href="#font_0_1" transform="matrix(9.9626,0,0,-9.9626,59.7179,96.42261)"/>
<use xlink:href="#font_1_1" transform="matrix(9.9626,0,0,-9.9626,67.52667,98.714008)"/>
<use xlink:href="#font_1_1" transform="matrix(9.9626,0,0,-9.9626,67.52667,43.92199)"/>
<use xlink:href="#font_1_2" transform="matrix(9.9626,0,0,-9.9626,67.13813,16.319)"/>
<clipPath id="cp2">
<path transform="matrix(1,0,0,-1,9.686,275.341)" d="M 0 151.82064 L 135.16382 151.82064 L 135.16382 262.23564 L 0 262.23564 Z "/>
</clipPath>
<g clip-path="url(#cp2)">
<path transform="matrix(1,0,0,-1,9.686,275.341)" stroke-width="1.19553" stroke-linecap="butt" stroke-miterlimit="10" stroke-linejoin="miter" fill="none" stroke="#000080" d="M 0 0 C 0 0 2.03448 19.43011 2.81589 26.4694 C 3.59727 33.5087 4.8504 44.2935 5.63179 50.73439 C 6.4132 57.17528 7.66629 67.02174 8.4477 72.8908 C 9.22908 78.75983 10.4822 87.71053 11.2636 93.03438 C 12.045 98.35823 13.2981 106.45624 14.07948 111.26144 C 14.86089 116.06665 16.114 123.35394 16.8954 127.66705 C 17.67679 131.98018 18.92989 138.49977 19.71129 142.34746 C 20.49269 146.19515 21.7458 151.98967 22.52719 155.39852 C 23.3086 158.80735 24.56169 163.91945 25.3431 166.91603 C 26.12448 169.91262 27.3776 174.38495 28.159 176.99588 C 28.9404 179.60683 30.1935 183.48203 30.97488 185.73389 C 31.75629 187.98577 33.0094 191.30646 33.7908 193.22588 C 34.57219 195.1453 35.8253 197.95421 36.6067 199.56777 C 37.3881 201.18132 38.6412 203.52103 39.42259 204.85532 C 40.204 206.1896 41.4571 208.10282 42.23851 209.18444 C 43.0199 210.26605 44.27301 211.79537 45.0544 212.65091 C 45.8358 213.50644 47.08891 214.69455 47.8703 215.35062 C 48.6517 216.00667 49.90482 216.89623 50.68622 217.37941 C 51.4676 217.86258 52.72072 218.49622 53.5021 218.83312 C 54.28351 219.17 55.53662 219.59037 56.31802 219.80757 C 57.09941 220.02478 58.35251 220.27454 59.13391 220.39865 C 59.91531 220.52278 61.16843 220.64456 61.94981 220.7022 C 62.73122 220.75983 63.98431 220.7963 64.76572 220.81403 C 65.5471 220.83174 67.58162 220.83002 67.58162 220.83002 "/>
<path transform="matrix(1,0,0,-1,9.686,275.341)" stroke-width="1.19553" stroke-linecap="butt" stroke-miterlimit="10" stroke-linejoin="miter" fill="none" stroke="#000080" d="M 67.58191 220.83002 C 67.58191 220.83002 69.61641 220.82967 70.3978 220.8332 C 71.1792 220.83675 72.43231 220.84404 73.21371 220.85556 C 73.9951 220.8671 75.2482 220.89147 76.0296 220.91626 C 76.811 220.94107 78.06412 220.99105 78.8455 221.03449 C 79.6269 221.07791 80.88002 221.16199 81.66142 221.22937 C 82.44281 221.29674 83.6959 221.42346 84.47731 221.5201 C 85.25871 221.61672 86.51183 221.79462 87.29321 221.92583 C 88.07462 222.05704 89.32771 222.29467 90.10912 222.46576 C 90.8905 222.63686 92.14362 222.94274 92.92502 223.15904 C 93.70642 223.37535 94.95952 223.75801 95.7409 224.02484 C 96.52231 224.29169 97.77542 224.75965 98.55682 225.08234 C 99.33821 225.40503 100.59131 225.96683 101.37271 226.3507 C 102.15411 226.73456 103.40723 227.3987 104.18861 227.84906 C 104.97002 228.29941 106.22311 229.07445 107.00452 229.59664 C 107.7859 230.1188 109.03903 231.0133 109.82042 231.61261 C 110.60182 232.21192 111.85493 233.23433 112.63634 233.91608 C 113.41772 234.59783 114.67082 235.75675 115.45222 236.52626 C 116.23363 237.29579 117.48674 238.59972 118.26813 239.46231 C 119.04953 240.32492 120.30263 241.78238 121.08403 242.7434 C 121.86542 243.70439 123.11853 245.32396 123.89993 246.3887 C 124.68134 247.45345 125.93443 249.2436 126.71582 250.41739 C 127.49722 251.59119 128.75034 253.56047 129.53174 254.84862 C 130.31313 256.13679 131.56623 258.29374 132.34763 259.70158 C 133.12903 261.1094 135.16353 264.9954 135.16353 264.9954 "/>
<path transform="matrix(1,0,0,-1,9.686,275.341)" stroke-width=".79701" stroke-linecap="butt" stroke-miterlimit="10" stroke-linejoin="miter" fill="none" stroke="#800000" d="M 0 276.0375 L 5.63179 273.27717 L 11.2636 270.5168 L 16.8954 267.7564 L 22.52719 264.99607 L 28.159 262.2357 L 33.7908 259.47535 L 39.42259 256.71498 L 45.0544 253.9546 L 50.68622 251.19423 L 56.31802 248.43387 L 61.94981 245.67351 L 67.58162 242.91313 L 73.21342 240.15277 L 78.84521 237.39241 L 84.47704 234.63205 L 90.10884 231.87168 L 95.74063 229.11132 L 101.37244 226.35095 L 107.00424 223.5906 L 112.63606 220.83025 L 118.26785 218.06986 L 123.89966 215.30951 L 129.53147 212.54915 L 135.16326 209.78879 "/>
<symbol id="font_3_1">
<path d="M .697 .7160001 C .697 .7250001 .69 .7250001 .688 .7250001 C .68600007 .7250001 .68200007 .7250001 .674 .71500006 L .605 .63100007 C .57 .69100007 .515 .7250001 .44 .7250001 C .22400002 .7250001 0 .50600007 0 .271 C 0 .104 .11700001 0 .263 0 C .343 0 .41300003 .034 .47100003 .083000008 C .558 .156 .584 .25300003 .584 .261 C .584 .27 .57600006 .27 .573 .27 C .564 .27 .563 .26400004 .561 .26000003 C .515 .104 .38 .029000003 .28 .029000003 C .17400001 .029000003 .082 .097 .082 .23900001 C .082 .271 .09200001 .44500003 .20500003 .57600006 C .26 .64000007 .354 .69600006 .449 .69600006 C .559 .69600006 .60800006 .6050001 .60800006 .503 C .60800006 .47700004 .605 .455 .605 .451 C .605 .44200004 .615 .44200004 .61800006 .44200004 C .629 .44200004 .63 .44300003 .634 .46100004 L .697 .7160001 Z "/>
</symbol>
<use xlink:href="#font_3_1" transform="matrix(11.9552,0,0,-11.9552,20.56176,34.006067)" fill="#000080"/>
<symbol id="font_3_4">
<path d="M .23600002 .09200001 C .20900002 .054000006 .17000002 .019999996 .121 .019999996 C .109000008 .019999996 .061000006 .022 .046000005 .068 C .049000004 .067 .053999999 .067 .056 .067 C .086 .067 .106 .093 .106 .116000007 C .106 .139 .087000008 .14700002 .072000008 .14700002 C .056 .14700002 .021 .135 .021 .086 C .021 .034999998 .064 0 .121 0 C .22100002 0 .322 .09200001 .35 .20300001 L .448 .59300008 C .449 .59800007 .451 .60400006 .451 .61 C .451 .62500008 .439 .63500007 .42400003 .63500007 C .41500003 .63500007 .39400003 .63100007 .386 .601 L .312 .307 C .307 .289 .307 .287 .299 .27600003 C .279 .24800001 .246 .21400002 .19800002 .21400002 C .14200002 .21400002 .13700001 .26900003 .13700001 .296 C .13700001 .35300002 .16400002 .43 .19100002 .50200006 C .20200002 .531 .20800002 .545 .20800002 .56500008 C .20800002 .60700008 .17800002 .64500007 .12900001 .64500007 C .037 .64500007 0 .5 0 .49200005 C 0 .48800005 .0040000008 .48300005 .011000002 .48300005 C .020000002 .48300005 .021 .48700006 .025 .50100007 C .049000004 .58500006 .087000008 .62500008 .12600002 .62500008 C .135 .62500008 .15200001 .62500008 .15200001 .592 C .15200001 .56600007 .14100002 .537 .12600002 .499 C .077 .36800004 .077 .33500005 .077 .31100003 C .077 .216 .14500001 .194 .19500003 .194 C .22400002 .194 .26 .20300001 .29500003 .24000001 L .296 .23900001 C .28100003 .18 .271 .141 .23600002 .09200001 Z "/>
</symbol>
<use xlink:href="#font_3_4" transform="matrix(11.9552,0,0,-11.9552,81.10879,24.05685)" fill="#000080"/>
<symbol id="font_4_3">
<path d="M .621 .18599999 C .635 .18599999 .653 .18599999 .653 .204 C .653 .22300002 .63600006 .22300002 .621 .22300002 L .032 .22300002 C .018000003 .22300002 0 .22300002 0 .20500002 C 0 .18599999 .017 .18599999 .032 .18599999 L .621 .18599999 M .621 0 C .635 0 .653 0 .653 .017999992 C .653 .037 .63600006 .037 .621 .037 L .032 .037 C .018000003 .037 0 .037 0 .018999994 C 0 0 .017 0 .032 0 L .621 0 Z "/>
</symbol>
<use xlink:href="#font_4_3" transform="matrix(11.9552,0,0,-11.9552,90.88958,19.96817)" fill="#000080"/>
<symbol id="font_3_2">
<path d="M .395 .606 C .41500003 .606 .42300005 .606 .42300005 .62500008 C .42300005 .63500007 .41500003 .63500007 .397 .63500007 L .316 .63500007 C .335 .73800006 .349 .809 .35700003 .841 C .36300005 .865 .38400004 .888 .41000004 .888 C .43100003 .888 .45200003 .879 .462 .87 C .42300005 .86600008 .411 .837 .411 .82000008 C .411 .8 .42600004 .78800007 .44500003 .78800007 C .46500004 .78800007 .495 .805 .495 .84300008 C .495 .88500007 .453 .90800008 .409 .90800008 C .36600004 .90800008 .32400004 .87600007 .30400003 .837 C .286 .80200007 .27600003 .76600006 .25300003 .63500007 L .18600002 .63500007 C .16700001 .63500007 .157 .63500007 .157 .61700007 C .157 .606 .16300002 .606 .18300002 .606 L .24700001 .606 C .229 .513 .18800001 .287 .165 .18 C .14800002 .093 .13300002 .019999996 .083000008 .019999996 C .08000001 .019999996 .051000004 .019999996 .033000005 .039000006 C .08400001 .042999999 .08400001 .087000008 .08400001 .08800001 C .08400001 .10800001 .069000009 .120000008 .05 .120000008 C .029999998 .120000008 0 .10300001 0 .065 C 0 .022 .044000005 0 .083000008 0 C .18500002 0 .22700003 .18300002 .238 .23300001 C .256 .31 .305 .57600006 .31000004 .606 L .395 .606 Z "/>
</symbol>
<use xlink:href="#font_3_2" transform="matrix(11.9552,0,0,-11.9552,103.27872,24.05685)" fill="#000080"/>
<symbol id="font_4_1">
<path d="M .22700002 .008000001 C .22700002 .011000007 .22700002 .013000011 .21000003 .030000002 C .11 .13100001 .054000006 .296 .054000006 .5 C .054000006 .694 .10100001 .86100009 .21700002 .9790001 C .22700002 .98800006 .22700002 .99 .22700002 .99300006 C .22700002 .9990001 .22200002 1.001 .21800001 1.001 C .205 1.001 .12300001 .929 .074 .8310001 C .023000002 .73 0 .623 0 .5 C 0 .411 .013999999 .29200004 .066 .18500002 C .125 .06500001 .207 0 .21800001 0 C .22200002 0 .22700002 .002000004 .22700002 .008000001 Z "/>
</symbol>
<use xlink:href="#font_4_1" transform="matrix(11.9552,0,0,-11.9552,110.8876,24.618744)" fill="#000080"/>
<symbol id="font_3_3">
<path d="M .44600005 .418 C .41400004 .412 .402 .388 .402 .36900003 C .402 .345 .42100004 .337 .43500004 .337 C .46500004 .337 .486 .363 .486 .39000003 C .486 .432 .43800003 .451 .39600004 .451 C .335 .451 .30100004 .391 .29200004 .372 C .26900003 .447 .20700002 .451 .18900001 .451 C .087 .451 .033000005 .32 .033000005 .298 C .033000005 .294 .037000006 .289 .044000005 .289 C .052000006 .289 .054 .29500003 .056000007 .299 C .09 .41 .157 .43100003 .18600002 .43100003 C .231 .43100003 .24000001 .389 .24000001 .365 C .24000001 .343 .23400003 .32 .222 .272 L .18800001 .135 C .17300001 .075 .14400001 .020000002 .091000009 .020000002 C .08600001 .020000002 .061 .020000002 .040000004 .033000005 C .076000008 .040000004 .08400001 .07 .08400001 .082 C .08400001 .102000009 .069000009 .114 .05 .114 C .026 .114 0 .093 0 .061000006 C 0 .019000002 .047000003 0 .09 0 C .13800001 0 .172 .038000004 .19300002 .079 C .20900002 .020000002 .259 0 .296 0 C .39800004 0 .45200003 .13100001 .45200003 .15300001 C .45200003 .158 .448 .16200002 .44200004 .16200002 C .43300004 .16200002 .432 .157 .42900003 .14900002 C .402 .061000006 .344 .020000002 .29900003 .020000002 C .26400004 .020000002 .245 .046000005 .245 .087000008 C .245 .109000008 .24900002 .125 .26500003 .19100002 L .3 .327 C .31500004 .387 .349 .43100003 .395 .43100003 C .397 .43100003 .425 .43100003 .44600005 .418 Z "/>
</symbol>
<use xlink:href="#font_3_3" transform="matrix(11.9552,0,0,-11.9552,114.602748,21.737542)" fill="#000080"/>
<symbol id="font_4_2">
<path d="M .227 .5 C .227 .57600006 .21700001 .70000007 .161 .816 C .102 .9360001 .02 1.001 .009 1.001 C .004999999 1.001 0 .9990001 0 .99300006 C 0 .99 0 .98800006 .017 .9710001 C .117 .87 .17300001 .70500007 .17300001 .50100007 C .17300001 .307 .126 .14000002 .010000002 .022 C 0 .013000011 0 .011000007 0 .008000001 C 0 .002000004 .004999999 0 .009 0 C .022000004 0 .104 .07200001 .153 .17000002 C .204 .272 .227 .38000003 .227 .5 Z "/>
</symbol>
<use xlink:href="#font_4_2" transform="matrix(11.9552,0,0,-11.9552,121.57754,24.618744)" fill="#000080"/>
</g>
<path transform="matrix(1,0,0,-1,9.686,275.341)" d="M 103.36542 226.35077 C 103.36542 227.45124 102.47334 228.34333 101.37286 228.34333 C 100.2724 228.34333 99.38031 227.45124 99.38031 226.35077 C 99.38031 225.25029 100.2724 224.35822 101.37286 224.35822 C 102.47334 224.35822 103.36542 225.25029 103.36542 226.35077 Z M 101.37286 226.35077 " fill="#000080"/>
<path transform="matrix(1,0,0,-1,9.686,275.341)" stroke-width=".3985" stroke-linecap="butt" stroke-miterlimit="10" stroke-linejoin="miter" fill="none" stroke="#000080" d="M 103.36542 226.35077 C 103.36542 227.45124 102.47334 228.34333 101.37286 228.34333 C 100.2724 228.34333 99.38031 227.45124 99.38031 226.35077 C 99.38031 225.25029 100.2724 224.35822 101.37286 224.35822 C 102.47334 224.35822 103.36542 225.25029 103.36542 226.35077 Z M 101.37286 226.35077 "/>
<symbol id="font_5_1">
<path d="M .305 .31300003 C .311 .33900003 .334 .43100003 .404 .43100003 C .409 .43100003 .433 .43100003 .454 .418 C .426 .41300003 .40600003 .388 .40600003 .36400003 C .40600003 .34800003 .417 .32900004 .444 .32900004 C .46600003 .32900004 .498 .34700004 .498 .38700003 C .498 .43900005 .439 .45300005 .405 .45300005 C .347 .45300005 .312 .40000005 .3 .37700004 C .275 .44300003 .221 .45300005 .19200002 .45300005 C .08800001 .45300005 .031000002 .32400004 .031000002 .29900003 C .031000002 .28900004 .041 .28900004 .043000007 .28900004 C .051000008 .28900004 .054000006 .291 .056 .3 C .09 .40600003 .156 .43100003 .19000001 .43100003 C .209 .43100003 .244 .42200003 .244 .36400003 C .244 .33300004 .22700002 .26600004 .19000001 .126 C .17400001 .064 .13900002 .022000002 .095000009 .022000002 C .08900001 .022000002 .06600001 .022000002 .045 .035 C .07000001 .040000004 .09200001 .061 .09200001 .089 C .09200001 .116000007 .07000001 .124000009 .055000009 .124000009 C .025 .124000009 0 .098000008 0 .06600001 C 0 .020000002 .050000006 0 .094000007 0 C .16000001 0 .19600001 .07000001 .19900002 .076000008 C .21100001 .039 .24700003 0 .307 0 C .41 0 .467 .12900001 .467 .15400002 C .467 .16400002 .458 .16400002 .455 .16400002 C .446 .16400002 .444 .16000001 .442 .15300001 C .409 .046 .341 .022000002 .30900003 .022000002 C .27 .022000002 .254 .054 .254 .08800001 C .254 .11000001 .26 .13200002 .271 .17600002 L .305 .31300003 Z "/>
</symbol>
<use xlink:href="#font_5_1" transform="matrix(9.9626,0,0,-9.9626,148.68192,70.530597)"/>
<symbol id="font_5_2">
<path d="M .45700003 .586 C .461 .6 .461 .602 .461 .609 C .461 .62700006 .447 .63600006 .432 .63600006 C .42200003 .63600006 .40600003 .63 .397 .615 C .395 .61 .387 .579 .38300003 .561 C .37600003 .535 .36900003 .508 .363 .48100005 L .318 .301 C .314 .286 .271 .21600002 .20500002 .21600002 C .15400002 .21600002 .143 .26000003 .143 .29700003 C .143 .34300003 .16000001 .40500004 .194 .49300004 C .21000001 .53400006 .21400002 .545 .21400002 .56500008 C .21400002 .61 .18200001 .6470001 .13200002 .6470001 C .037 .6470001 0 .50200006 0 .49300004 C 0 .48300005 .01 .48300005 .012 .48300005 C .022000002 .48300005 .023 .485 .028000003 .50100007 C .055000009 .595 .095000009 .625 .12900001 .625 C .13700001 .625 .15400002 .625 .15400002 .59300008 C .15400002 .568 .14400001 .54200008 .13700001 .523 C .097 .41700004 .079 .36 .079 .31300003 C .079 .224 .142 .194 .201 .194 C .24000003 .194 .274 .21100001 .30200003 .23900002 C .289 .187 .277 .13800001 .237 .08500001 C .21100001 .051 .17300001 .022 .127 .022 C .113000009 .022 .068 .025000006 .051000008 .06400001 C .067 .06400001 .080000009 .06400001 .094000007 .076000008 C .104 .08500001 .11400001 .098000008 .11400001 .117000009 C .11400001 .148 .087000008 .15200001 .07700001 .15200001 C .054000006 .15200001 .021 .136 .021 .087000008 C .021 .037 .065000008 0 .127 0 C .23 0 .333 .091000009 .361 .20400001 L .45700003 .586 Z "/>
</symbol>
<use xlink:href="#font_5_2" transform="matrix(9.9626,0,0,-9.9626,74.94891,9.652349)"/>
</svg>
