<?xml version="1.0" encoding="UTF-8" standalone="no"?>
<!DOCTYPE svg PUBLIC "-//W3C//DTD SVG 1.1//EN" "http://www.w3.org/Graphics/SVG/1.1/DTD/svg11.dtd">
<svg xmlns="http://www.w3.org/2000/svg" xmlns:xlink="http://www.w3.org/1999/xlink" version="1.1" width="291.547pt" height="179.93pt" viewBox="0 0 291.547 179.93">
<path transform="matrix(1,0,0,-1,.398,220.28299)" stroke-width=".3985" stroke-linecap="butt" stroke-miterlimit="10" stroke-linejoin="miter" fill="none" stroke="#000000" d="M 170.08086 56.69362 L 163.84453 56.69362 L 163.84453 62.92993 L 170.08086 62.92993 Z "/>
<path transform="matrix(1,0,0,-1,.398,220.28299)" stroke-width=".3985" stroke-linecap="butt" stroke-miterlimit="10" stroke-linejoin="miter" fill="none" stroke="#000000" d="M 70.867 56.69362 L 64.63069 56.69362 L 64.63069 62.92993 L 70.867 62.92993 Z "/>
<path transform="matrix(1,0,0,-1,.398,220.28299)" stroke-width=".3985" stroke-linecap="butt" stroke-miterlimit="10" stroke-linejoin="miter" fill="none" stroke="#000000" d="M 70.867 53.85876 C 71.2406 53.11156 72.11235 52.61342 73.3577 52.61342 L 117.98323 52.61342 C 119.22858 52.61342 120.10034 52.1153 120.47392 51.36807 C 120.84752 52.1153 121.71927 52.61342 122.96461 52.61342 L 167.59017 52.61342 C 168.83551 52.61342 169.70726 53.11156 170.08086 53.85876 "/>
<path transform="matrix(1,0,0,-1,.398,220.28299)" stroke-width=".3985" stroke-linecap="butt" stroke-miterlimit="10" stroke-linejoin="miter" fill="none" stroke="#000000" d="M 172.9157 56.69362 C 173.6629 57.0672 174.16104 57.93896 174.16104 59.18431 L 174.16104 96.72313 C 174.16104 97.96848 174.65917 98.84023 175.40639 99.21382 C 174.65917 99.5874 174.16104 100.45917 174.16104 101.70451 L 174.16104 139.24335 C 174.16104 140.4887 173.6629 141.36046 172.9157 141.73404 "/>
<path transform="matrix(1,0,0,-1,.398,220.28299)" stroke-width=".3985" stroke-linecap="butt" stroke-miterlimit="10" stroke-linejoin="miter" fill="none" stroke="#000000" d="M 73.70186 56.69362 C 74.44907 57.0672 74.9472 57.93896 74.9472 59.18431 L 74.9472 71.63614 C 74.9472 72.88148 75.44533 73.75323 76.19255 74.12683 C 75.44533 74.50041 74.9472 75.37218 74.9472 76.61752 L 74.9472 89.06937 C 74.9472 90.31471 74.44907 91.18648 73.70186 91.56006 "/>
<path transform="matrix(1,0,0,-1,.398,220.28299)" stroke-width=".3985" stroke-linecap="butt" stroke-miterlimit="10" stroke-linejoin="miter" fill="none" stroke="#ff0000" d="M 170.08086 56.69362 L 170.08086 141.73404 L 0 56.69362 Z "/>
<path transform="matrix(1,0,0,-1,.398,220.28299)" stroke-width=".79701" stroke-linecap="butt" stroke-miterlimit="10" stroke-linejoin="miter" fill="none" stroke="#000000" d="M 70.867 56.69362 L 70.867 91.56006 L 0 56.69362 Z "/>
<path transform="matrix(1,0,0,-1,.398,220.28299)" stroke-width=".79701" stroke-linecap="butt" stroke-miterlimit="10" stroke-linejoin="miter" fill="none" stroke="#000000" d="M 70.867 56.69362 L 70.867 91.56006 L 0 56.69362 Z "/>
<path transform="matrix(1,0,0,-1,.398,220.28299)" stroke-width="1.19553" stroke-linecap="butt" stroke-miterlimit="10" stroke-linejoin="miter" fill="none" stroke="#cc6600" d="M 290.55479 212.60106 C 290.55479 216.51497 287.382 219.68775 283.4681 219.68775 C 279.55418 219.68775 276.3814 216.51497 276.3814 212.60106 C 276.3814 208.68715 279.55418 205.51438 283.4681 205.51438 C 287.382 205.51438 290.55479 208.68715 290.55479 212.60106 Z M 283.4681 212.60106 "/>
<path transform="matrix(1,0,0,-1,.398,220.28299)" stroke-width=".3985" stroke-linecap="butt" stroke-miterlimit="10" stroke-linejoin="miter" fill="none" stroke="#000000" d="M 31.18166 56.69362 C 31.18166 61.28975 30.0611 65.82149 27.9216 69.88904 "/>
<symbol id="font_0_3">
<path d="M .462 .41500003 C .425 .40800003 .41400004 .37600003 .41400004 .36100004 C .41400004 .34200005 .42800004 .32500003 .453 .32500003 C .48100005 .32500003 .508 .34900005 .508 .38400004 C .508 .43000005 .45800004 .45300005 .411 .45300005 C .351 .45300005 .316 .40000005 .30400003 .37900005 C .28500004 .42800004 .24100003 .45300005 .193 .45300005 C .086 .45300005 .028 .32500003 .028 .29900003 C .028 .29000003 .035000005 .28700004 .042000005 .28700004 C .051 .28700004 .054000006 .29200004 .056 .298 C .087000008 .397 .15300001 .42800004 .19100002 .42800004 C .22 .42800004 .24600002 .40900005 .24600002 .36200003 C .24600002 .32600004 .20300001 .16600001 .19000001 .11800001 C .18200001 .087000008 .15200001 .025000003 .097 .025000003 C .07700001 .025000003 .056 .032 .046000005 .038000004 C .07300001 .043 .093 .06600001 .093 .092 C .093 .117000009 .074 .128 .055 .128 C .026 .128 0 .10300001 0 .069000009 C 0 .020000002 .054000006 0 .096 0 C .15400002 0 .18800001 .048 .20300001 .075 C .22800002 .009000001 .287 0 .314 0 C .42200003 0 .479 .13000001 .479 .15400002 C .479 .15900001 .47600005 .16600001 .46600003 .16600001 C .455 .16600001 .45400004 .16200002 .44900004 .14700002 C .42700003 .075 .36900003 .025000003 .317 .025000003 C .28800003 .025000003 .261 .043 .261 .091000009 C .261 .113000009 .275 .16800002 .284 .20600002 C .28800003 .22400002 .31500004 .33200003 .317 .33900003 C .32900004 .37500004 .35900004 .42800004 .41000004 .42800004 C .42800004 .42800004 .44700004 .42500005 .462 .41500003 Z "/>
</symbol>
<use xlink:href="#font_0_3" transform="matrix(8.9664,0,0,-8.9664,119.09499,176.95763)"/>
<symbol id="font_1_1">
<path d="M .411 .177 L .38300003 .177 C .381 .164 .37300004 .105000007 .36 .089 C .35400004 .080000009 .28500004 .080000009 .26500003 .080000009 L .08700001 .080000009 L .18600002 .17400001 C .35000003 .316 .411 .36900003 .411 .47100003 C .411 .586 .316 .666 .19300002 .666 C .07800001 .666 0 .57500007 0 .48400004 C 0 .43400003 .043 .42900003 .052000006 .42900003 C .074 .42900003 .104 .44500003 .104 .48100005 C .104 .51100006 .083000008 .53300008 .052000006 .53300008 C .047000003 .53300008 .044000005 .53300008 .040000004 .532 C .063999999 .60300007 .128 .63500007 .18200001 .63500007 C .284 .63500007 .319 .54 .319 .47100003 C .319 .36900003 .24200002 .286 .194 .23400001 L .011 .036000004 C 0 .025 0 .023000002 0 0 L .38300003 0 L .411 .177 Z "/>
</symbol>
<use xlink:href="#font_1_1" transform="matrix(8.9664,0,0,-8.9664,18.184288,161.499)"/>
<use xlink:href="#font_1_1" transform="matrix(8.9664,0,0,-8.9664,22.793019,161.499)"/>
<symbol id="font_2_1">
<path d="M .45200003 .227 C .45200003 .354 .35000003 .45400004 .22600001 .45400004 C .102000009 .45400004 0 .35300002 0 .227 C 0 .1 .102000009 0 .22600001 0 C .35000003 0 .45200003 .101 .45200003 .227 M .22600001 .052 C .13 .052 .05200001 .12900001 .05200001 .227 C .05200001 .32500003 .13 .402 .22600001 .402 C .32200004 .402 .40000005 .32500003 .40000005 .227 C .40000005 .12900001 .32200004 .052 .22600001 .052 Z "/>
</symbol>
<use xlink:href="#font_2_1" transform="matrix(5.9776,0,0,-5.9776,27.49792,157.0545)"/>
<symbol id="font_1_2">
<path d="M .091000009 .35300005 C .091000009 .45500005 .10200001 .512 .12900001 .56400009 C .149 .605 .19800002 .66300007 .272 .66300007 C .292 .66300007 .338 .65900006 .361 .623 C .324 .623 .308 .60400006 .308 .577 C .308 .55100008 .326 .531 .354 .531 C .382 .531 .40100003 .549 .40100003 .57900008 C .40100003 .63500007 .361 .688 .27 .688 C .14100002 .688 0 .56100007 0 .33800004 C 0 .067 .12200001 0 .216 0 C .327 0 .42700003 .093 .42700003 .22500001 C .42700003 .35200004 .335 .44800005 .22200002 .44800005 C .16200002 .44800005 .119 .41300006 .091000009 .35300005 M .21500002 .028 C .158 .028 .12500002 .075 .113000009 .104 C .09400001 .149 .09300001 .23200001 .09300001 .24800001 C .09300001 .31500004 .12400001 .42300005 .22000002 .42300005 C .23600002 .42300005 .285 .42300005 .317 .36100004 C .336 .32300005 .336 .27400003 .336 .22600001 C .336 .178 .336 .12900001 .317 .092 C .286 .035000005 .24200003 .028 .21500002 .028 Z "/>
</symbol>
<use xlink:href="#font_1_2" transform="matrix(8.9664,0,0,-8.9664,79.13155,149.02027)"/>
<symbol id="font_0_1">
<path d="M .32000003 .605 L .41000004 .605 C .43000005 .605 .44000004 .605 .44000004 .623 C .44000004 .63600006 .43000005 .63600006 .41100005 .63600006 L .32600004 .63600006 C .33700005 .69600006 .35100005 .778 .36400003 .832 C .37300004 .87100008 .39700005 .885 .41700004 .885 C .42300005 .885 .446 .883 .46300004 .87100008 C .44300003 .8670001 .41400004 .8490001 .41400004 .816 C .41400004 .791 .43300004 .7800001 .45200006 .7800001 C .47900007 .7800001 .507 .80200007 .507 .84000006 C .507 .885 .46300004 .9100001 .41600005 .9100001 C .37100003 .9100001 .32600004 .878 .30500005 .837 C .28300003 .794 .27600003 .755 .25500003 .63600006 L .18300002 .63600006 C .164 .63600006 .15200001 .63600006 .15200001 .61800006 C .15200001 .605 .163 .605 .18100001 .605 L .249 .605 C .221 .46000005 .186 .26000003 .164 .15600002 C .15200001 .10100001 .136 .025000006 .088 .025000006 C .073 .025000006 .053000008 .031000004 .043 .039000006 C .068 .043000014 .092999998 .06400001 .092999998 .094000007 C .092999998 .11900001 .074 .13000001 .055000005 .13000001 C .028 .13000001 0 .10800001 0 .07000001 C 0 .024000004 .046 0 .088 0 C .19000001 0 .237 .16600001 .25300003 .252 L .32000003 .605 Z "/>
</symbol>
<symbol id="font_0_2">
<path d="M .18900001 .411 L .28400005 .411 C .30200003 .411 .31400005 .411 .31400005 .42900003 C .31400005 .44200004 .30400003 .44200004 .286 .44200004 L .19700001 .44200004 L .23800002 .608 C .23800002 .624 .22500001 .637 .207 .637 C .17500001 .637 .16700001 .608 .165 .598 L .125 .44200004 L .031000004 .44200004 C .012000002 .44200004 0 .44200004 0 .42400003 C 0 .411 .011 .411 .029000003 .411 L .118 .411 L .05 .13900002 C .042 .109000008 .042 .107 .042 .093 C .042 .034 .08700001 0 .139 0 C .24300002 0 .30200003 .14400001 .30200003 .15400002 C .30200003 .15900001 .29900003 .16600001 .28900004 .16600001 C .279 .16600001 .27800004 .16300002 .27100004 .14600002 C .24 .074 .19000001 .025000003 .141 .025000003 C .12100001 .025000003 .109 .038000004 .109 .071 C .109 .093 .112 .105000007 .116 .120000008 L .18900001 .411 Z "/>
</symbol>
<use xlink:href="#font_0_1" transform="matrix(8.9664,0,0,-8.9664,83.83819,150.66112)"/>
<use xlink:href="#font_0_2" transform="matrix(8.9664,0,0,-8.9664,89.020778,148.92163)"/>
<symbol id="font_1_3">
<path d="M .433 .632 C .442 .64300009 .442 .64500007 .442 .66600009 L .19299999 .66600009 C .067 .66600009 .064 .679 .061000006 .6980001 L .033 .6980001 L 0 .48900003 L .027999998 .48900003 C .031999999 .512 .04 .568 .053000004 .58000007 C .060000004 .586 .139 .586 .153 .586 L .363 .586 L .267 .45500005 C .137 .27600003 .125 .113000009 .125 .056 C .125 .045 .125 0 .171 0 C .218 0 .218 .044000005 .218 .057000005 L .218 .106000009 C .218 .25300003 .24000001 .36900003 .293 .44100005 L .433 .632 Z "/>
</symbol>
<use xlink:href="#font_1_3" transform="matrix(8.9664,0,0,-8.9664,179.00008,123.509258)"/>
<use xlink:href="#font_1_2" transform="matrix(8.9664,0,0,-8.9664,183.48329,123.509258)"/>
<use xlink:href="#font_0_1" transform="matrix(8.9664,0,0,-8.9664,188.1892,125.15011)"/>
<use xlink:href="#font_0_2" transform="matrix(8.9664,0,0,-8.9664,193.37177,123.41063)"/>
</svg>
