<?xml version="1.0" encoding="UTF-8" standalone="no"?>
<!DOCTYPE svg PUBLIC "-//W3C//DTD SVG 1.1//EN" "http://www.w3.org/Graphics/SVG/1.1/DTD/svg11.dtd">
<svg xmlns="http://www.w3.org/2000/svg" xmlns:xlink="http://www.w3.org/1999/xlink" version="1.1" width="251.405pt" height="251.945pt" viewBox="0 0 251.405 251.945">
<path transform="matrix(1,0,0,-1,.199,251.746)" stroke-width="1" stroke-linecap="butt" stroke-miterlimit="10" stroke-linejoin="miter" fill="none" stroke="#bfbfbf" d="M 10.84691 0 L 10.84691 238.63214 M 37.9642 0 L 37.9642 238.63214 M 65.08148 0 L 65.08148 238.63214 M 92.19878 0 L 92.19878 238.63214 M 146.43335 0 L 146.43335 238.63214 M 173.55065 0 L 173.55065 238.63214 M 200.66794 0 L 200.66794 238.63214 M 227.78522 0 L 227.78522 238.63214 "/>
<path transform="matrix(1,0,0,-1,.199,251.746)" stroke-width="1" stroke-linecap="butt" stroke-miterlimit="10" stroke-linejoin="miter" fill="none" stroke="#bfbfbf" d="M 0 10.84691 L 238.63214 10.84691 M 0 37.9642 L 238.63214 37.9642 M 0 65.08148 L 238.63214 65.08148 M 0 92.19878 L 238.63214 92.19878 M 0 146.43335 L 238.63214 146.43335 M 0 173.55065 L 238.63214 173.55065 M 0 200.66794 L 238.63214 200.66794 M 0 227.78522 L 238.63214 227.78522 "/>
<path transform="matrix(1,0,0,-1,.199,251.746)" stroke-width="1" stroke-linecap="butt" stroke-miterlimit="10" stroke-linejoin="miter" fill="none" stroke="#808080" d="M 10.84691 117.19 L 10.84691 121.44211 M 37.9642 117.19 L 37.9642 121.44211 M 65.08148 117.19 L 65.08148 121.44211 M 92.19878 117.19 L 92.19878 121.44211 M 146.43335 117.19 L 146.43335 121.44211 M 173.55065 117.19 L 173.55065 121.44211 M 200.66794 117.19 L 200.66794 121.44211 M 227.78522 117.19 L 227.78522 121.44211 "/>
<path transform="matrix(1,0,0,-1,.199,251.746)" stroke-width="1" stroke-linecap="butt" stroke-miterlimit="10" stroke-linejoin="miter" fill="none" stroke="#808080" d="M 117.19 10.84691 L 121.44211 10.84691 M 117.19 37.9642 L 121.44211 37.9642 M 117.19 65.08148 L 121.44211 65.08148 M 117.19 92.19878 L 121.44211 92.19878 M 117.19 146.43335 L 121.44211 146.43335 M 117.19 173.55065 L 121.44211 173.55065 M 117.19 200.66794 L 121.44211 200.66794 M 117.19 227.78522 L 121.44211 227.78522 "/>
<path transform="matrix(1,0,0,-1,.199,251.746)" stroke-width="1" stroke-linecap="butt" stroke-miterlimit="10" stroke-linejoin="miter" fill="none" stroke="#000000" d="M 0 119.31607 L 236.63962 119.31607 "/>
<path transform="matrix(1,0,0,-1,236.83863,132.42993)" d="M 1.99252 0 L -1.19551 1.59401 L 0 0 L -1.19551 -1.59401 "/>
<path transform="matrix(1,0,0,-1,.199,251.746)" stroke-width="1" stroke-linecap="butt" stroke-miterlimit="10" stroke-linejoin="miter" fill="none" stroke="#000000" d="M 119.31607 0 L 119.31607 236.63962 "/>
<path transform="matrix(0,-1,-1,-0,119.51507,15.106384)" d="M 1.99252 0 L -1.19551 1.59401 L 0 0 L -1.19551 -1.59401 "/>
<symbol id="font_0_1">
<path d="M .57600006 0 C .59300008 0 .611 0 .611 .019999996 C .611 .040000008 .59300008 .040000008 .57600006 .040000008 L .035000005 .040000008 C .018 .040000008 0 .040000008 0 .019999996 C 0 0 .018 0 .035000005 0 L .57600006 0 Z "/>
</symbol>
<use xlink:href="#font_0_1" transform="matrix(9.9626,0,0,-9.9626,5.5078957,142.20561)"/>
<symbol id="font_1_3">
<path d="M .07700001 .07700001 L .18300002 .18 C .33900003 .31800003 .39900003 .372 .39900003 .47200004 C .39900003 .586 .30900003 .666 .18700002 .666 C .074 .666 0 .574 0 .485 C 0 .42900003 .05 .42900003 .053000008 .42900003 C .07000001 .42900003 .105000007 .441 .105000007 .48200003 C .105000007 .508 .08700001 .53400006 .052000006 .53400006 C .044000005 .53400006 .042000008 .53400006 .039 .53300008 C .062000004 .59800007 .11600001 .63500007 .17400001 .63500007 C .26500003 .63500007 .308 .554 .308 .47200004 C .308 .39200003 .25800003 .31300003 .20300003 .25100003 L .011000004 .037 C 0 .026 0 .024 0 0 L .37100003 0 L .39900003 .17400001 L .374 .17400001 C .36900003 .14400001 .36200003 .1 .352 .085 C .345 .07700001 .279 .07700001 .257 .07700001 L .07700001 .07700001 Z "/>
</symbol>
<use xlink:href="#font_1_3" transform="matrix(9.9626,0,0,-9.9626,12.92813,144.49701)"/>
<use xlink:href="#font_0_1" transform="matrix(9.9626,0,0,-9.9626,28.750897,142.20561)"/>
<symbol id="font_1_2">
<path d="M .205 .64000007 C .205 .66400006 .205 .666 .18200003 .666 C .120000008 .60200008 .032000007 .60200008 0 .60200008 L 0 .57100006 C .020000004 .57100006 .07900001 .57100006 .13100001 .597 L .13100001 .079 C .13100001 .043 .128 .031000002 .038000004 .031000002 L .0060000049 .031000002 L .0060000049 0 C .04100001 .003 .128 .003 .168 .003 C .20800002 .003 .29500003 .003 .33000005 0 L .33000005 .031000002 L .29800005 .031000002 C .20800002 .031000002 .205 .042000005 .205 .079 L .205 .64000007 Z "/>
</symbol>
<use xlink:href="#font_1_2" transform="matrix(9.9626,0,0,-9.9626,36.558675,144.49701)"/>
<symbol id="font_2_1">
<path d="M .106 .053000004 C .106 .082 .08200001 .106000009 .05300001 .106000009 C .024000004 .106000009 0 .082 0 .053000004 C 0 .024 .024000004 0 .05300001 0 C .08200001 0 .106 .024 .106 .053000004 Z "/>
</symbol>
<use xlink:href="#font_2_1" transform="matrix(9.9626,0,0,-9.9626,41.510786,144.49701)"/>
<symbol id="font_1_4">
<path d="M .39900003 .223 C .39900003 .34200005 .317 .44200004 .209 .44200004 C .16100002 .44200004 .118000019 .42600004 .082 .39100004 L .082 .586 C .10200001 .58000007 .135 .573 .16700001 .573 C .29 .573 .36 .66400006 .36 .67700007 C .36 .683 .357 .688 .35 .688 C .349 .688 .347 .688 .342 .68500009 C .322 .67600008 .273 .656 .20600002 .656 C .16600001 .656 .120000008 .66300007 .073 .6840001 C .065 .68700006 .06300001 .68700006 .061000009 .68700006 C .051000004 .68700006 .051000004 .679 .051000004 .66300007 L .051000004 .36700005 C .051000004 .34900005 .051000004 .34100003 .065 .34100003 C .07200001 .34100003 .074 .34400005 .07800001 .35000003 C .08900002 .36600004 .12600002 .42000006 .207 .42000006 C .259 .42000006 .284 .37400005 .292 .35600005 C .308 .31900005 .31 .28000004 .31 .23 C .31 .19500001 .31 .135 .286 .093 C .262 .054000006 .22500001 .028 .17900002 .028 C .106000009 .028 .049000008 .08100001 .032 .14000002 C .035 .13900002 .038000008 .13800001 .049000008 .13800001 C .082 .13800001 .09900001 .163 .09900001 .187 C .09900001 .21100001 .082 .23600002 .049000008 .23600002 C .035 .23600002 0 .22900002 0 .18300002 C 0 .097 .069000009 0 .18100001 0 C .297 0 .39900003 .096 .39900003 .223 Z "/>
</symbol>
<use xlink:href="#font_1_4" transform="matrix(9.9626,0,0,-9.9626,43.91913,144.71619)"/>
<use xlink:href="#font_0_1" transform="matrix(9.9626,0,0,-9.9626,59.741899,142.20561)"/>
<use xlink:href="#font_1_2" transform="matrix(9.9626,0,0,-9.9626,67.550678,144.49701)"/>
<use xlink:href="#font_0_1" transform="matrix(9.9626,0,0,-9.9626,82.983898,142.20561)"/>
<symbol id="font_1_1">
<path d="M .421 .34200005 C .421 .42200003 .416 .50200006 .381 .57600006 C .335 .67200008 .25300003 .688 .211 .688 C .15100001 .688 .07800001 .66200008 .037000006 .56900009 C .0050000029 .5 0 .42200003 0 .34200005 C 0 .26700003 .0040000008 .177 .045000007 .101 C .088 .020000002 .161 0 .21000001 0 C .264 0 .34 .021000002 .384 .116000007 C .416 .185 .421 .263 .421 .34200005 M .21000001 .022000002 C .171 .022000002 .112 .047000003 .094 .143 C .083000008 .20300001 .083000008 .29500003 .083000008 .35400004 C .083000008 .41800005 .083000008 .48400004 .091000009 .53800007 C .11 .65700009 .185 .66600009 .21000001 .66600009 C .243 .66600009 .30900003 .64800009 .328 .549 C .338 .49300004 .338 .41700004 .338 .35400004 C .338 .279 .338 .21100001 .32700003 .147 C .312 .052 .255 .022000002 .21000001 .022000002 Z "/>
</symbol>
<use xlink:href="#font_1_1" transform="matrix(9.9626,0,0,-9.9626,90.29454,144.71619)"/>
<use xlink:href="#font_2_1" transform="matrix(9.9626,0,0,-9.9626,95.74478,144.49701)"/>
<use xlink:href="#font_1_4" transform="matrix(9.9626,0,0,-9.9626,98.15313,144.71619)"/>
<use xlink:href="#font_1_1" transform="matrix(9.9626,0,0,-9.9626,140.65454,144.71619)"/>
<use xlink:href="#font_2_1" transform="matrix(9.9626,0,0,-9.9626,146.10379,144.49701)"/>
<use xlink:href="#font_1_4" transform="matrix(9.9626,0,0,-9.9626,148.51213,144.71619)"/>
<use xlink:href="#font_1_2" transform="matrix(9.9626,0,0,-9.9626,172.14368,144.49701)"/>
<use xlink:href="#font_1_2" transform="matrix(9.9626,0,0,-9.9626,195.38668,144.49701)"/>
<use xlink:href="#font_2_1" transform="matrix(9.9626,0,0,-9.9626,200.33779,144.49701)"/>
<use xlink:href="#font_1_4" transform="matrix(9.9626,0,0,-9.9626,202.74613,144.71619)"/>
<use xlink:href="#font_1_3" transform="matrix(9.9626,0,0,-9.9626,225.98914,144.49701)"/>
<use xlink:href="#font_0_1" transform="matrix(9.9626,0,0,-9.9626,101.9649,241.4026)"/>
<use xlink:href="#font_1_3" transform="matrix(9.9626,0,0,-9.9626,109.38513,243.694)"/>
<use xlink:href="#font_0_1" transform="matrix(9.9626,0,0,-9.9626,94.2159,214.2856)"/>
<use xlink:href="#font_1_2" transform="matrix(9.9626,0,0,-9.9626,102.02467,216.577)"/>
<use xlink:href="#font_2_1" transform="matrix(9.9626,0,0,-9.9626,106.975788,216.577)"/>
<use xlink:href="#font_1_4" transform="matrix(9.9626,0,0,-9.9626,109.38513,216.79618)"/>
<use xlink:href="#font_0_1" transform="matrix(9.9626,0,0,-9.9626,101.9649,187.16861)"/>
<use xlink:href="#font_1_2" transform="matrix(9.9626,0,0,-9.9626,109.773677,189.46)"/>
<use xlink:href="#font_0_1" transform="matrix(9.9626,0,0,-9.9626,94.2159,160.05162)"/>
<use xlink:href="#font_1_1" transform="matrix(9.9626,0,0,-9.9626,101.52654,162.5622)"/>
<use xlink:href="#font_2_1" transform="matrix(9.9626,0,0,-9.9626,106.975788,162.34302)"/>
<use xlink:href="#font_1_4" transform="matrix(9.9626,0,0,-9.9626,109.38513,162.5622)"/>
<use xlink:href="#font_1_1" transform="matrix(9.9626,0,0,-9.9626,101.52654,108.74318)"/>
<use xlink:href="#font_2_1" transform="matrix(9.9626,0,0,-9.9626,106.975788,108.524)"/>
<use xlink:href="#font_1_4" transform="matrix(9.9626,0,0,-9.9626,109.38513,108.74318)"/>
<use xlink:href="#font_1_2" transform="matrix(9.9626,0,0,-9.9626,109.773677,81.408008)"/>
<use xlink:href="#font_1_2" transform="matrix(9.9626,0,0,-9.9626,102.02467,54.291)"/>
<use xlink:href="#font_2_1" transform="matrix(9.9626,0,0,-9.9626,106.975788,54.291)"/>
<use xlink:href="#font_1_4" transform="matrix(9.9626,0,0,-9.9626,109.38513,54.510179)"/>
<use xlink:href="#font_1_3" transform="matrix(9.9626,0,0,-9.9626,109.38513,27.173996)"/>
<symbol id="font_2_2">
<path d="M .305 .31300003 C .311 .33900003 .334 .43100003 .404 .43100003 C .409 .43100003 .433 .43100003 .454 .418 C .426 .41300003 .40600003 .388 .40600003 .36400003 C .40600003 .34800003 .417 .32900004 .444 .32900004 C .46600003 .32900004 .498 .34700004 .498 .38700003 C .498 .43900005 .439 .45300005 .405 .45300005 C .347 .45300005 .312 .40000005 .3 .37700004 C .275 .44300003 .221 .45300005 .19200002 .45300005 C .08800001 .45300005 .031000002 .32400004 .031000002 .29900003 C .031000002 .28900004 .041 .28900004 .043000007 .28900004 C .051000008 .28900004 .054000006 .291 .056 .3 C .09 .40600003 .156 .43100003 .19000001 .43100003 C .209 .43100003 .244 .42200003 .244 .36400003 C .244 .33300004 .22700002 .26600004 .19000001 .126 C .17400001 .064 .13900002 .022000002 .095000009 .022000002 C .08900001 .022000002 .06600001 .022000002 .045 .035 C .07000001 .040000004 .09200001 .061 .09200001 .089 C .09200001 .116000007 .07000001 .124000009 .055000009 .124000009 C .025 .124000009 0 .098000008 0 .06600001 C 0 .020000002 .050000006 0 .094000007 0 C .16000001 0 .19600001 .07000001 .19900002 .076000008 C .21100001 .039 .24700003 0 .307 0 C .41 0 .467 .12900001 .467 .15400002 C .467 .16400002 .458 .16400002 .455 .16400002 C .446 .16400002 .444 .16000001 .442 .15300001 C .409 .046 .341 .022000002 .30900003 .022000002 C .27 .022000002 .254 .054 .254 .08800001 C .254 .11000001 .26 .13200002 .271 .17600002 L .305 .31300003 Z "/>
</symbol>
<use xlink:href="#font_2_2" transform="matrix(9.9626,0,0,-9.9626,242.67992,134.66458)"/>
<symbol id="font_2_3">
<path d="M .45700003 .586 C .461 .6 .461 .602 .461 .609 C .461 .62700006 .447 .63600006 .432 .63600006 C .42200003 .63600006 .40600003 .63 .397 .615 C .395 .61 .387 .579 .38300003 .561 C .37600003 .535 .36900003 .508 .363 .48100005 L .318 .301 C .314 .286 .271 .21600002 .20500002 .21600002 C .15400002 .21600002 .143 .26000003 .143 .29700003 C .143 .34300003 .16000001 .40500004 .194 .49300004 C .21000001 .53400006 .21400002 .545 .21400002 .56500008 C .21400002 .61 .18200001 .6470001 .13200002 .6470001 C .037 .6470001 0 .50200006 0 .49300004 C 0 .48300005 .01 .48300005 .012 .48300005 C .022000002 .48300005 .023 .485 .028000003 .50100007 C .055000009 .595 .095000009 .625 .12900001 .625 C .13700001 .625 .15400002 .625 .15400002 .59300008 C .15400002 .568 .14400001 .54200008 .13700001 .523 C .097 .41700004 .079 .36 .079 .31300003 C .079 .224 .142 .194 .201 .194 C .24000003 .194 .274 .21100001 .30200003 .23900002 C .289 .187 .277 .13800001 .237 .08500001 C .21100001 .051 .17300001 .022 .127 .022 C .113000009 .022 .068 .025000006 .051000008 .06400001 C .067 .06400001 .080000009 .06400001 .094000007 .076000008 C .104 .08500001 .11400001 .098000008 .11400001 .117000009 C .11400001 .148 .087000008 .15200001 .07700001 .15200001 C .054000006 .15200001 .021 .136 .021 .087000008 C .021 .037 .065000008 0 .127 0 C .23 0 .333 .091000009 .361 .20400001 L .45700003 .586 Z "/>
</symbol>
<use xlink:href="#font_2_3" transform="matrix(9.9626,0,0,-9.9626,117.20692,9.652334)"/>
</svg>
