<?xml version="1.0" encoding="UTF-8" standalone="no"?>
<!DOCTYPE svg PUBLIC "-//W3C//DTD SVG 1.1//EN" "http://www.w3.org/Graphics/SVG/1.1/DTD/svg11.dtd">
<svg xmlns="http://www.w3.org/2000/svg" xmlns:xlink="http://www.w3.org/1999/xlink" version="1.1" width="256.712pt" height="80.964pt" viewBox="0 0 256.712 80.964">
<path transform="matrix(1,0,0,-1,.797,80.167)" d="M 28.3468 39.68536 L 141.73404 39.68536 L 141.73404 79.37074 L 85.04042 79.37074 L 85.04042 59.52805 L 28.3468 59.52805 Z " fill="#cccccc"/>
<path transform="matrix(1,0,0,-1,.797,80.167)" stroke-width="1" stroke-linecap="butt" stroke-miterlimit="10" stroke-linejoin="miter" fill="none" stroke="#000000" d="M 28.3468 39.68536 L 141.73404 39.68536 L 141.73404 79.37074 L 85.04042 79.37074 L 85.04042 59.52805 L 28.3468 59.52805 Z "/>
<path transform="matrix(1,0,0,-1,.797,80.167)" stroke-width="1" stroke-linecap="butt" stroke-miterlimit="10" stroke-linejoin="miter" fill="none" stroke="#000000" d="M 0 0 L 28.3468 0 M 0 19.84268 L 28.3468 19.84268 M 0 39.68536 L 28.3468 39.68536 M 0 59.52805 L 28.3468 59.52805 M 0 79.36078 L 28.3468 79.36078 M 0 0 L 0 79.37074 M 28.33684 0 L 28.33684 79.37074 "/>
<path transform="matrix(1,0,0,-1,.797,80.167)" stroke-width="1" stroke-linecap="butt" stroke-miterlimit="10" stroke-linejoin="miter" fill="none" stroke="#000000" d="M 85.04042 79.37074 L 85.04042 0 "/>
<path transform="matrix(1,0,0,-1,.797,80.167)" stroke-width="1" stroke-linecap="butt" stroke-miterlimit="10" stroke-linejoin="miter" fill="none" stroke="#000000" d="M 141.73404 79.37074 L 141.73404 0 "/>
<path transform="matrix(1,0,0,-1,.797,80.167)" stroke-width="1" stroke-linecap="butt" stroke-miterlimit="10" stroke-linejoin="miter" fill="none" stroke="#000000" d="M 198.42766 79.37074 L 198.42766 0 "/>
<path transform="matrix(1,0,0,-1,.797,80.167)" stroke-width="1" stroke-linecap="butt" stroke-miterlimit="10" stroke-linejoin="miter" fill="none" stroke="#000000" d="M 255.12128 79.37074 L 255.12128 0 "/>
<path transform="matrix(1,0,0,-1,.797,80.167)" stroke-width="1" stroke-linecap="butt" stroke-miterlimit="10" stroke-linejoin="miter" fill="none" stroke="#000000" d="M 0 0 L 255.12128 0 "/>
<path transform="matrix(1,0,0,-1,.797,80.167)" stroke-width="1" stroke-linecap="butt" stroke-miterlimit="10" stroke-linejoin="miter" fill="none" stroke="#000000" d="M 0 19.84268 L 255.12128 19.84268 "/>
<path transform="matrix(1,0,0,-1,.797,80.167)" stroke-width="1" stroke-linecap="butt" stroke-miterlimit="10" stroke-linejoin="miter" fill="none" stroke="#000000" d="M 0 39.68536 L 255.12128 39.68536 "/>
<path transform="matrix(1,0,0,-1,.797,80.167)" stroke-width="1" stroke-linecap="butt" stroke-miterlimit="10" stroke-linejoin="miter" fill="none" stroke="#000000" d="M 0 59.52805 L 255.12128 59.52805 "/>
<path transform="matrix(1,0,0,-1,.797,80.167)" stroke-width="1" stroke-linecap="butt" stroke-miterlimit="10" stroke-linejoin="miter" fill="none" stroke="#000000" d="M 0 79.37074 L 255.12128 79.37074 "/>
<path transform="matrix(1,0,0,-1,.797,80.167)" stroke-width="1.59404" stroke-linecap="butt" stroke-miterlimit="10" stroke-linejoin="miter" fill="none" stroke="#000000" d="M 0 19.84268 L 255.12128 19.84268 "/>
<path transform="matrix(1,0,0,-1,.797,80.167)" stroke-width="1.59404" stroke-linecap="butt" stroke-miterlimit="10" stroke-linejoin="miter" fill="none" stroke="#000000" d="M 28.3468 79.37074 L 28.3468 0 "/>
<path transform="matrix(1,0,0,-1,.797,80.167)" stroke-width="1" stroke-linecap="butt" stroke-miterlimit="10" stroke-linejoin="miter" fill="none" stroke="#000000" d="M 0 0 L 28.3468 19.84268 "/>
<symbol id="font_0_2">
<path d="M .47300003 .59000006 C .474 .595 .47599999 .6010001 .47599999 .607 C .47599999 .62 .467 .63600006 .44500003 .63600006 C .432 .63600006 .414 .628 .40600003 .609 C .405 .605 .395 .564 .389 .54200008 L .33900003 .342 C .331 .31300003 .331 .31100003 .329 .30200003 C .328 .298 .286 .21900001 .21400002 .21900001 C .15200001 .21900001 .15200001 .282 .15200001 .301 C .15200001 .34600003 .165 .39500005 .20800002 .507 C .216 .53000006 .22200002 .544 .22200002 .563 C .22200002 .612 .18500002 .6470001 .136 .6470001 C .040000008 .6470001 0 .505 0 .49300004 C 0 .48400004 .007000001 .48100005 .014 .48100005 C .025 .48100005 .026000003 .48700003 .030000003 .5 C .051000008 .574 .091000009 .62200006 .133 .62200006 C .157 .62200006 .157 .60300007 .157 .589 C .157 .572 .15300001 .554 .14400001 .53000006 C .097 .40600003 .08400001 .36400003 .08400001 .316 C .08400001 .20500002 .17400001 .194 .21100001 .194 C .26 .194 .295 .22000002 .313 .238 C .3 .187 .289 .14200002 .25 .09200001 C .22000002 .052 .18 .025000006 .136 .025000006 C .10800001 .025000006 .075 .03500001 .061000006 .06300001 C .11400001 .06300001 .12100001 .10700001 .12100001 .117000009 C .12100001 .13900002 .105000007 .15300001 .083000008 .15300001 C .059000009 .15300001 .027 .134 .027 .08800001 C .027 .036 .07300001 0 .136 0 C .23800002 0 .347 .087000008 .37600003 .20400001 L .47300003 .59000006 Z "/>
</symbol>
<use xlink:href="#font_0_2" transform="matrix(8.9664,0,0,-8.9664,5.0870258,69.20311)"/>
<symbol id="font_0_1">
<path d="M .462 .41500003 C .425 .40800003 .41400004 .37600003 .41400004 .36100004 C .41400004 .34200005 .42800004 .32500003 .453 .32500003 C .48100005 .32500003 .508 .34900005 .508 .38400004 C .508 .43000005 .45800004 .45300005 .411 .45300005 C .351 .45300005 .316 .40000005 .30400003 .37900005 C .28500004 .42800004 .24100003 .45300005 .193 .45300005 C .086 .45300005 .028 .32500003 .028 .29900003 C .028 .29000003 .035000005 .28700004 .042000005 .28700004 C .051 .28700004 .054000006 .29200004 .056 .298 C .087000008 .397 .15300001 .42800004 .19100002 .42800004 C .22 .42800004 .24600002 .40900005 .24600002 .36200003 C .24600002 .32600004 .20300001 .16600001 .19000001 .11800001 C .18200001 .087000008 .15200001 .025000003 .097 .025000003 C .07700001 .025000003 .056 .032 .046000005 .038000004 C .07300001 .043 .093 .06600001 .093 .092 C .093 .117000009 .074 .128 .055 .128 C .026 .128 0 .10300001 0 .069000009 C 0 .020000002 .054000006 0 .096 0 C .15400002 0 .18800001 .048 .20300001 .075 C .22800002 .009000001 .287 0 .314 0 C .42200003 0 .479 .13000001 .479 .15400002 C .479 .15900001 .47600005 .16600001 .46600003 .16600001 C .455 .16600001 .45400004 .16200002 .44900004 .14700002 C .42700003 .075 .36900003 .025000003 .317 .025000003 C .28800003 .025000003 .261 .043 .261 .091000009 C .261 .113000009 .275 .16800002 .284 .20600002 C .28800003 .22400002 .31500004 .33200003 .317 .33900003 C .32900004 .37500004 .35900004 .42800004 .41000004 .42800004 C .42800004 .42800004 .44700004 .42500005 .462 .41500003 Z "/>
</symbol>
<use xlink:href="#font_0_1" transform="matrix(8.9664,0,0,-8.9664,20.158993,77.08563)"/>
<symbol id="font_1_4">
<path d="M .07700001 .07700001 L .18300002 .18 C .33900003 .31800003 .39900003 .372 .39900003 .47200004 C .39900003 .586 .30900003 .666 .18700002 .666 C .074 .666 0 .574 0 .485 C 0 .42900003 .05 .42900003 .053000008 .42900003 C .07000001 .42900003 .105000007 .441 .105000007 .48200003 C .105000007 .508 .08700001 .53400006 .052000006 .53400006 C .044000005 .53400006 .042000008 .53400006 .039 .53300008 C .062000004 .59800007 .11600001 .63500007 .17400001 .63500007 C .26500003 .63500007 .308 .554 .308 .47200004 C .308 .39200003 .25800003 .31300003 .20300003 .25100003 L .011000004 .037 C 0 .026 0 .024 0 0 L .37100003 0 L .39900003 .17400001 L .374 .17400001 C .36900003 .14400001 .36200003 .1 .352 .085 C .345 .07700001 .279 .07700001 .257 .07700001 L .07700001 .07700001 Z "/>
</symbol>
<use xlink:href="#font_1_4" transform="matrix(9.9626,0,0,-9.9626,51.62313,73.456)"/>
<symbol id="font_2_1">
<path d="M .106 .053000004 C .106 .082 .08200001 .106000009 .05300001 .106000009 C .024000004 .106000009 0 .082 0 .053000004 C 0 .024 .024000004 0 .05300001 0 C .08200001 0 .106 .024 .106 .053000004 Z "/>
</symbol>
<use xlink:href="#font_2_1" transform="matrix(9.9626,0,0,-9.9626,56.962785,73.456)"/>
<symbol id="font_1_9">
<path d="M .121 .47900004 C .075 .509 .071 .54300007 .071 .56000009 C .071 .62100008 .136 .66300007 .20700002 .66300007 C .28000004 .66300007 .344 .61100009 .344 .53900006 C .344 .48200003 .305 .43400005 .245 .39900003 L .121 .47900004 M .26700003 .38400004 C .33900003 .42100004 .388 .47300006 .388 .53900006 C .388 .63100007 .29900003 .688 .208 .688 C .108 .688 .027000003 .614 .027000003 .521 C .027000003 .503 .029 .45800004 .071 .41100005 C .082 .39900003 .11900001 .37400005 .144 .35700003 C .086 .32800005 0 .272 0 .17300001 C 0 .067 .102000009 0 .20700002 0 C .32000003 0 .41500003 .083000008 .41500003 .19000001 C .41500003 .22600001 .404 .27100004 .36600004 .31300003 C .34700004 .33400003 .33100004 .34400005 .26700003 .38400004 M .167 .34200005 L .29000003 .26400004 C .31800003 .245 .365 .215 .365 .154 C .365 .080000009 .29000003 .028 .208 .028 C .122 .028 .050000006 .09 .050000006 .17300001 C .050000006 .231 .082 .29500003 .167 .34200005 Z "/>
</symbol>
<use xlink:href="#font_1_9" transform="matrix(9.9626,0,0,-9.9626,59.29243,73.67518)"/>
<symbol id="font_1_5">
<path d="M .24800003 .37400005 C .33 .40100003 .388 .47100006 .388 .55 C .388 .632 .3 .688 .204 .688 C .10300001 .688 .027000003 .628 .027000003 .55200007 C .027000003 .519 .049000004 .5 .078 .5 C .109000008 .5 .12900001 .522 .12900001 .55100008 C .12900001 .6010001 .082 .6010001 .067 .6010001 C .098 .65000006 .164 .66300007 .20000002 .66300007 C .24100003 .66300007 .29600004 .64100006 .29600004 .55100008 C .29600004 .53900006 .29400004 .48100005 .268 .43700005 C .238 .38900004 .204 .38600005 .17900002 .38500003 C .171 .38400004 .14700002 .38200004 .14000002 .38200004 C .132 .38100005 .125 .38000003 .125 .37000004 C .125 .35900004 .132 .35900004 .14900002 .35900004 L .19300002 .35900004 C .275 .35900004 .312 .29100005 .312 .193 C .312 .057000005 .24300003 .028 .199 .028 C .15600002 .028 .081 .045 .046000005 .104 C .081 .09900001 .11200001 .12100001 .11200001 .15900001 C .11200001 .19500001 .085 .215 .056 .215 C .031999999 .215 0 .201 0 .157 C 0 .06600001 .093 0 .20200002 0 C .32400004 0 .41500003 .091000009 .41500003 .193 C .41500003 .27500005 .35200004 .35300005 .24800003 .37400005 Z "/>
</symbol>
<use xlink:href="#font_1_5" transform="matrix(9.9626,0,0,-9.9626,108.23643,73.67518)"/>
<use xlink:href="#font_2_1" transform="matrix(9.9626,0,0,-9.9626,113.655788,73.456)"/>
<symbol id="font_1_2">
<path d="M .421 .34200005 C .421 .42200003 .416 .50200006 .381 .57600006 C .335 .67200008 .25300003 .688 .211 .688 C .15100001 .688 .07800001 .66200008 .037000006 .56900009 C .0050000029 .5 0 .42200003 0 .34200005 C 0 .26700003 .0040000008 .177 .045000007 .101 C .088 .020000002 .161 0 .21000001 0 C .264 0 .34 .021000002 .384 .116000007 C .416 .185 .421 .263 .421 .34200005 M .21000001 .022000002 C .171 .022000002 .112 .047000003 .094 .143 C .083000008 .20300001 .083000008 .29500003 .083000008 .35400004 C .083000008 .41800005 .083000008 .48400004 .091000009 .53800007 C .11 .65700009 .185 .66600009 .21000001 .66600009 C .243 .66600009 .30900003 .64800009 .328 .549 C .338 .49300004 .338 .41700004 .338 .35400004 C .338 .279 .338 .21100001 .32700003 .147 C .312 .052 .255 .022000002 .21000001 .022000002 Z "/>
</symbol>
<use xlink:href="#font_1_2" transform="matrix(9.9626,0,0,-9.9626,115.95554,73.67518)"/>
<use xlink:href="#font_1_5" transform="matrix(9.9626,0,0,-9.9626,164.92943,73.67518)"/>
<use xlink:href="#font_2_1" transform="matrix(9.9626,0,0,-9.9626,170.34879,73.456)"/>
<use xlink:href="#font_1_4" transform="matrix(9.9626,0,0,-9.9626,172.75713,73.456)"/>
<use xlink:href="#font_1_5" transform="matrix(9.9626,0,0,-9.9626,221.62242,73.67518)"/>
<use xlink:href="#font_2_1" transform="matrix(9.9626,0,0,-9.9626,227.04178,73.456)"/>
<symbol id="font_1_6">
<path d="M .266 .165 L .266 .078 C .266 .042000005 .26400004 .031000002 .19000001 .031000002 L .16900002 .031000002 L .16900002 0 C .21000001 .003 .26200003 .003 .30400003 .003 C .34600003 .003 .39900003 .003 .44000004 0 L .44000004 .031000002 L .41900004 .031000002 C .34500004 .031000002 .34300003 .042000005 .34300003 .078 L .34300003 .165 L .44300003 .165 L .44300003 .19600001 L .34300003 .19600001 L .34300003 .651 C .34300003 .671 .34300003 .67700007 .32700003 .67700007 C .31800003 .67700007 .31500004 .67700007 .307 .665 L 0 .19600001 L 0 .165 L .266 .165 M .272 .19600001 L .028 .19600001 L .272 .569 L .272 .19600001 Z "/>
</symbol>
<use xlink:href="#font_1_6" transform="matrix(9.9626,0,0,-9.9626,229.23094,73.456)"/>
<use xlink:href="#font_1_4" transform="matrix(9.9626,0,0,-9.9626,9.10313,53.614)"/>
<use xlink:href="#font_2_1" transform="matrix(9.9626,0,0,-9.9626,14.443785,53.614)"/>
<symbol id="font_1_a">
<path d="M .32500003 .34000004 L .32500003 .30800004 C .32500003 .074 .22100002 .028 .16300002 .028 C .146 .028 .092 .030000002 .065000008 .064 C .109000008 .064 .117000009 .093 .117000009 .11000001 C .117000009 .141 .093 .156 .071 .156 C .055 .156 .024999999 .147 .024999999 .108 C .024999999 .041 .079 0 .164 0 C .293 0 .41500003 .136 .41500003 .35100005 C .41500003 .62000009 .3 .688 .21100003 .688 C .15600002 .688 .107 .67 .064 .62500008 C .023000002 .58000007 0 .53800007 0 .46300004 C 0 .33800004 .08800001 .24000001 .20000002 .24000001 C .261 .24000001 .30200003 .28200004 .32500003 .34000004 M .201 .263 C .185 .263 .139 .263 .108 .32600004 C .089999999 .36300005 .089999999 .41300006 .089999999 .46200005 C .089999999 .51600006 .089999999 .563 .11100001 .6 C .13800001 .65000006 .176 .66300007 .21100003 .66300007 C .25700004 .66300007 .29000003 .62900009 .307 .58400008 C .31900005 .55200007 .323 .48900003 .323 .44300006 C .323 .36000005 .28900004 .263 .201 .263 Z "/>
</symbol>
<use xlink:href="#font_1_a" transform="matrix(9.9626,0,0,-9.9626,16.772429,53.833177)"/>
<use xlink:href="#font_1_5" transform="matrix(9.9626,0,0,-9.9626,9.02343,33.99018)"/>
<use xlink:href="#font_2_1" transform="matrix(9.9626,0,0,-9.9626,14.443785,33.771005)"/>
<use xlink:href="#font_1_2" transform="matrix(9.9626,0,0,-9.9626,16.742543,33.99018)"/>
<use xlink:href="#font_1_5" transform="matrix(9.9626,0,0,-9.9626,9.02343,14.148178)"/>
<use xlink:href="#font_2_1" transform="matrix(9.9626,0,0,-9.9626,14.443785,13.929001)"/>
<symbol id="font_1_3">
<path d="M .205 .64000007 C .205 .66400006 .205 .666 .18200003 .666 C .120000008 .60200008 .032000007 .60200008 0 .60200008 L 0 .57100006 C .020000004 .57100006 .07900001 .57100006 .13100001 .597 L .13100001 .079 C .13100001 .043 .128 .031000002 .038000004 .031000002 L .0060000049 .031000002 L .0060000049 0 C .04100001 .003 .128 .003 .168 .003 C .20800002 .003 .29500003 .003 .33000005 0 L .33000005 .031000002 L .29800005 .031000002 C .20800002 .031000002 .205 .042000005 .205 .079 L .205 .64000007 Z "/>
</symbol>
<use xlink:href="#font_1_3" transform="matrix(9.9626,0,0,-9.9626,17.240672,13.929001)"/>
<symbol id="font_3_1">
<path d="M .57600006 0 C .59300008 0 .611 0 .611 .019999996 C .611 .040000008 .59300008 .040000008 .57600006 .040000008 L .035000005 .040000008 C .018 .040000008 0 .040000008 0 .019999996 C 0 0 .018 0 .035000005 0 L .57600006 0 Z "/>
</symbol>
<use xlink:href="#font_3_1" transform="matrix(9.9626,0,0,-9.9626,39.2259,10.917602)"/>
<use xlink:href="#font_1_5" transform="matrix(9.9626,0,0,-9.9626,46.566434,13.428177)"/>
<symbol id="font_4_1">
<path d="M .15699999 .16499996 L 0 .038999976 L .027999998 0 L .15699999 .083000008 L .286 .0009999871 L .314 .037999989 L .15699999 .16499996 Z "/>
</symbol>
<use xlink:href="#font_4_1" transform="matrix(9.9626,0,0,-9.9626,51.83914,7.938784)"/>
<symbol id="font_5_1">
<path d="M .32700003 .156 C .32700003 .17 .312 .17 .303 .17 C .291 .17 .284 .17 .28 .157 C .24900002 .052000006 .198 .036000004 .177 .036000004 C .16700001 .036000004 .161 .039 .161 .058000003 C .161 .08100001 .17 .10300001 .194 .163 L .261 .336 C .266 .349 .26900003 .361 .26900003 .37 C .26900003 .423 .21700001 .46 .155 .46 C .051000004 .46 0 .326 0 .304 C 0 .29 .015000001 .29 .024 .29 C .036000004 .29 .043 .29 .047000003 .303 C .07800001 .408 .12900001 .424 .15 .424 C .16 .424 .16600001 .421 .16600001 .402 C .16600001 .379 .157 .357 .133 .297 L .066 .124000009 C .061 .11100001 .058000003 .09900001 .058000003 .09 C .058000003 .037 .11 0 .172 0 C .27600003 0 .32700003 .134 .32700003 .156 Z "/>
</symbol>
<use xlink:href="#font_5_1" transform="matrix(9.9626,0,0,-9.9626,51.448804,13.2887)"/>
<symbol id="font_1_1">
<path d="M .35300002 .31300003 L .632 .31300003 C .646 .31300003 .665 .31300003 .665 .333 C .665 .35300002 .646 .35300002 .632 .35300002 L .35300002 .35300002 L .35300002 .633 C .35300002 .647 .35300002 .666 .33300004 .666 C .31300003 .666 .31300003 .647 .31300003 .633 L .31300003 .35300002 L .033 .35300002 C .019000002 .35300002 0 .35300002 0 .333 C 0 .31300003 .019000002 .31300003 .033 .31300003 L .31300003 .31300003 L .31300003 .033000005 C .31300003 .019000002 .31300003 0 .33300004 0 C .35300002 0 .35300002 .019000002 .35300002 .033000005 L .35300002 .31300003 Z "/>
</symbol>
<use xlink:href="#font_1_1" transform="matrix(9.9626,0,0,-9.9626,57.821908,14.035895)"/>
<use xlink:href="#font_1_4" transform="matrix(9.9626,0,0,-9.9626,67.72474,13.209)"/>
<use xlink:href="#font_4_1" transform="matrix(9.9626,0,0,-9.9626,73.780139,7.938784)"/>
<symbol id="font_5_2">
<path d="M .42200003 .522 C .425 .53300008 .42700003 .542 .42700003 .556 C .42700003 .62100008 .363 .65400007 .301 .65400007 C .18200001 .65400007 .114 .51500007 .114 .49800004 C .114 .48400004 .12900001 .48400004 .13800001 .48400004 C .155 .48400004 .156 .485 .163 .5 C .201 .586 .25700004 .61800006 .296 .61800006 C .305 .61800006 .32000003 .61800006 .32000003 .58100005 C .32000003 .56200006 .317 .551 .314 .53800007 L .21800001 .157 C .201 .089 .162 .036 .111 .036 C .102000009 .036 .1 .036 .087000008 .038000004 C .119 .060000004 .12100001 .093 .12100001 .098000008 C .12100001 .120000008 .104 .14400001 .071 .14400001 C .034 .14400001 0 .111 0 .072 C 0 .025000006 .048 0 .112 0 C .176 0 .3 .034999998 .33 .156 L .42200003 .522 Z "/>
</symbol>
<use xlink:href="#font_5_2" transform="matrix(9.9626,0,0,-9.9626,72.06852,15.221445)"/>
<use xlink:href="#font_1_5" transform="matrix(9.9626,0,0,-9.9626,99.38542,13.428177)"/>
<use xlink:href="#font_4_1" transform="matrix(9.9626,0,0,-9.9626,104.65713,7.938784)"/>
<use xlink:href="#font_5_1" transform="matrix(9.9626,0,0,-9.9626,104.26679,13.2887)"/>
<use xlink:href="#font_1_1" transform="matrix(9.9626,0,0,-9.9626,110.6399,14.035895)"/>
<use xlink:href="#font_1_4" transform="matrix(9.9626,0,0,-9.9626,120.542728,13.209)"/>
<use xlink:href="#font_4_1" transform="matrix(9.9626,0,0,-9.9626,126.59813,7.938784)"/>
<use xlink:href="#font_5_2" transform="matrix(9.9626,0,0,-9.9626,124.88652,15.221445)"/>
<use xlink:href="#font_1_6" transform="matrix(9.9626,0,0,-9.9626,155.93895,13.209)"/>
<use xlink:href="#font_4_1" transform="matrix(9.9626,0,0,-9.9626,161.35015,7.938784)"/>
<use xlink:href="#font_5_1" transform="matrix(9.9626,0,0,-9.9626,160.95981,13.2887)"/>
<use xlink:href="#font_1_1" transform="matrix(9.9626,0,0,-9.9626,167.33292,14.035895)"/>
<use xlink:href="#font_1_5" transform="matrix(9.9626,0,0,-9.9626,177.15604,13.428177)"/>
<use xlink:href="#font_4_1" transform="matrix(9.9626,0,0,-9.9626,183.29114,7.938784)"/>
<use xlink:href="#font_5_2" transform="matrix(9.9626,0,0,-9.9626,181.57953,15.221445)"/>
<symbol id="font_1_8">
<path d="M .42000003 .63100007 C .42900003 .64300009 .42900003 .64500007 .42900003 .66600009 L .18600002 .66600009 C .064 .66600009 .062000008 .679 .058000007 .6980001 L .033 .6980001 L 0 .49200005 L .024999999 .49200005 C .028000005 .508 .037 .57100006 .050000006 .58300009 C .057000005 .58900007 .13500002 .58900007 .148 .58900007 L .35500003 .58900007 C .344 .573 .26500003 .46400006 .24300003 .43100003 C .153 .29600004 .12000001 .157 .12000001 .055 C .12000001 .045 .12000001 0 .16600001 0 C .21200001 0 .21200001 .045 .21200001 .055 L .21200001 .106000009 C .21200001 .16100002 .21500004 .216 .22300002 .27 C .22700003 .29300005 .24100003 .37900005 .28500004 .44100005 L .42000003 .63100007 Z "/>
</symbol>
<use xlink:href="#font_1_8" transform="matrix(9.9626,0,0,-9.9626,212.9109,13.428177)"/>
<use xlink:href="#font_4_1" transform="matrix(9.9626,0,0,-9.9626,218.04314,7.938784)"/>
<use xlink:href="#font_5_1" transform="matrix(9.9626,0,0,-9.9626,217.6528,13.2887)"/>
<symbol id="font_1_7">
<path d="M .39900003 .223 C .39900003 .34200005 .317 .44200004 .209 .44200004 C .16100002 .44200004 .118000019 .42600004 .082 .39100004 L .082 .586 C .10200001 .58000007 .135 .573 .16700001 .573 C .29 .573 .36 .66400006 .36 .67700007 C .36 .683 .357 .688 .35 .688 C .349 .688 .347 .688 .342 .68500009 C .322 .67600008 .273 .656 .20600002 .656 C .16600001 .656 .120000008 .66300007 .073 .6840001 C .065 .68700006 .06300001 .68700006 .061000009 .68700006 C .051000004 .68700006 .051000004 .679 .051000004 .66300007 L .051000004 .36700005 C .051000004 .34900005 .051000004 .34100003 .065 .34100003 C .07200001 .34100003 .074 .34400005 .07800001 .35000003 C .08900002 .36600004 .12600002 .42000006 .207 .42000006 C .259 .42000006 .284 .37400005 .292 .35600005 C .308 .31900005 .31 .28000004 .31 .23 C .31 .19500001 .31 .135 .286 .093 C .262 .054000006 .22500001 .028 .17900002 .028 C .106000009 .028 .049000008 .08100001 .032 .14000002 C .035 .13900002 .038000008 .13800001 .049000008 .13800001 C .082 .13800001 .09900001 .163 .09900001 .187 C .09900001 .21100001 .082 .23600002 .049000008 .23600002 C .035 .23600002 0 .22900002 0 .18300002 C 0 .097 .069000009 0 .18100001 0 C .297 0 .39900003 .096 .39900003 .223 Z "/>
</symbol>
<use xlink:href="#font_1_1" transform="matrix(9.9626,0,0,-9.9626,224.02591,14.035895)"/>
<use xlink:href="#font_1_7" transform="matrix(9.9626,0,0,-9.9626,233.92873,13.428177)"/>
<use xlink:href="#font_4_1" transform="matrix(9.9626,0,0,-9.9626,239.98413,7.938784)"/>
<use xlink:href="#font_5_2" transform="matrix(9.9626,0,0,-9.9626,238.27252,15.221445)"/>
<use xlink:href="#font_3_1" transform="matrix(9.9626,0,0,-9.9626,44.207899,30.760601)"/>
<use xlink:href="#font_4_1" transform="matrix(9.9626,0,0,-9.9626,51.839139,27.781783)"/>
<use xlink:href="#font_5_1" transform="matrix(9.9626,0,0,-9.9626,51.4488,33.1317)"/>
<use xlink:href="#font_1_1" transform="matrix(9.9626,0,0,-9.9626,57.821905,33.878896)"/>
<use xlink:href="#font_4_1" transform="matrix(9.9626,0,0,-9.9626,68.798137,27.781783)"/>
<use xlink:href="#font_5_2" transform="matrix(9.9626,0,0,-9.9626,67.087528,35.06444)"/>
<use xlink:href="#font_4_1" transform="matrix(9.9626,0,0,-9.9626,104.657138,27.781783)"/>
<use xlink:href="#font_5_1" transform="matrix(9.9626,0,0,-9.9626,104.2668,33.1317)"/>
<use xlink:href="#font_1_1" transform="matrix(9.9626,0,0,-9.9626,110.63991,33.878896)"/>
<use xlink:href="#font_4_1" transform="matrix(9.9626,0,0,-9.9626,121.617137,27.781783)"/>
<use xlink:href="#font_5_2" transform="matrix(9.9626,0,0,-9.9626,119.905529,35.06444)"/>
<use xlink:href="#font_1_5" transform="matrix(9.9626,0,0,-9.9626,156.07843,33.271177)"/>
<use xlink:href="#font_4_1" transform="matrix(9.9626,0,0,-9.9626,161.35015,27.781783)"/>
<use xlink:href="#font_5_1" transform="matrix(9.9626,0,0,-9.9626,160.95981,33.1317)"/>
<use xlink:href="#font_1_1" transform="matrix(9.9626,0,0,-9.9626,167.33292,33.878896)"/>
<use xlink:href="#font_1_4" transform="matrix(9.9626,0,0,-9.9626,177.23574,33.052)"/>
<use xlink:href="#font_4_1" transform="matrix(9.9626,0,0,-9.9626,183.29114,27.781783)"/>
<use xlink:href="#font_5_2" transform="matrix(9.9626,0,0,-9.9626,181.57953,35.06444)"/>
<use xlink:href="#font_1_7" transform="matrix(9.9626,0,0,-9.9626,212.85112,33.271177)"/>
<use xlink:href="#font_4_1" transform="matrix(9.9626,0,0,-9.9626,218.04314,27.781783)"/>
<use xlink:href="#font_5_1" transform="matrix(9.9626,0,0,-9.9626,217.6528,33.1317)"/>
<use xlink:href="#font_1_1" transform="matrix(9.9626,0,0,-9.9626,224.02591,33.878896)"/>
<use xlink:href="#font_1_5" transform="matrix(9.9626,0,0,-9.9626,233.84903,33.271177)"/>
<use xlink:href="#font_4_1" transform="matrix(9.9626,0,0,-9.9626,239.98413,27.781783)"/>
<use xlink:href="#font_5_2" transform="matrix(9.9626,0,0,-9.9626,238.27252,35.06444)"/>
<use xlink:href="#font_3_1" transform="matrix(9.9626,0,0,-9.9626,44.207899,50.6026)"/>
<use xlink:href="#font_4_1" transform="matrix(9.9626,0,0,-9.9626,51.839139,47.623785)"/>
<use xlink:href="#font_5_1" transform="matrix(9.9626,0,0,-9.9626,51.4488,52.973699)"/>
<use xlink:href="#font_3_1" transform="matrix(9.9626,0,0,-9.9626,58.090894,50.6026)"/>
<use xlink:href="#font_4_1" transform="matrix(9.9626,0,0,-9.9626,68.798137,47.623785)"/>
<use xlink:href="#font_5_2" transform="matrix(9.9626,0,0,-9.9626,67.087528,54.90644)"/>
<use xlink:href="#font_4_1" transform="matrix(9.9626,0,0,-9.9626,104.657138,47.623785)"/>
<use xlink:href="#font_5_1" transform="matrix(9.9626,0,0,-9.9626,104.2668,52.973699)"/>
<use xlink:href="#font_3_1" transform="matrix(9.9626,0,0,-9.9626,110.9089,50.6026)"/>
<use xlink:href="#font_4_1" transform="matrix(9.9626,0,0,-9.9626,121.617137,47.623785)"/>
<use xlink:href="#font_5_2" transform="matrix(9.9626,0,0,-9.9626,119.905529,54.90644)"/>
<use xlink:href="#font_1_5" transform="matrix(9.9626,0,0,-9.9626,156.07843,53.113176)"/>
<use xlink:href="#font_4_1" transform="matrix(9.9626,0,0,-9.9626,161.35015,47.623785)"/>
<use xlink:href="#font_5_1" transform="matrix(9.9626,0,0,-9.9626,160.95981,52.973699)"/>
<use xlink:href="#font_3_1" transform="matrix(9.9626,0,0,-9.9626,167.6019,50.6026)"/>
<use xlink:href="#font_1_4" transform="matrix(9.9626,0,0,-9.9626,177.23613,52.893999)"/>
<use xlink:href="#font_4_1" transform="matrix(9.9626,0,0,-9.9626,183.29114,47.623785)"/>
<use xlink:href="#font_5_2" transform="matrix(9.9626,0,0,-9.9626,181.57953,54.90644)"/>
<use xlink:href="#font_1_7" transform="matrix(9.9626,0,0,-9.9626,212.85112,53.113176)"/>
<use xlink:href="#font_4_1" transform="matrix(9.9626,0,0,-9.9626,218.04314,47.623785)"/>
<use xlink:href="#font_5_1" transform="matrix(9.9626,0,0,-9.9626,217.6528,52.973699)"/>
<use xlink:href="#font_3_1" transform="matrix(9.9626,0,0,-9.9626,224.29489,50.6026)"/>
<use xlink:href="#font_1_5" transform="matrix(9.9626,0,0,-9.9626,233.84943,53.113176)"/>
<use xlink:href="#font_4_1" transform="matrix(9.9626,0,0,-9.9626,239.98413,47.623785)"/>
<use xlink:href="#font_5_2" transform="matrix(9.9626,0,0,-9.9626,238.27252,54.90644)"/>
</svg>
