<?xml version="1.0" encoding="UTF-8" standalone="no"?>
<!DOCTYPE svg PUBLIC "-//W3C//DTD SVG 1.1//EN" "http://www.w3.org/Graphics/SVG/1.1/DTD/svg11.dtd">
<svg xmlns="http://www.w3.org/2000/svg" xmlns:xlink="http://www.w3.org/1999/xlink" version="1.1" width="218.968pt" height="245.808pt" viewBox="0 0 218.968 245.808">
<path transform="matrix(1,0,0,-1,110.012,121.839)" stroke-width="1" stroke-linecap="butt" stroke-miterlimit="10" stroke-linejoin="miter" fill="none" stroke="#bfbfbf" d="M 0 0 L 97.1363 0 M 0 0 L 68.6858 68.6858 M 0 0 L 0 97.1363 M 0 0 L -68.6858 68.6858 M 0 0 L -97.1363 0 M 0 0 L -68.6858 -68.6858 M 0 0 L 0 -97.1363 M 0 0 L 68.6858 -68.6858 "/>
<path transform="matrix(1,0,0,-1,110.012,121.839)" stroke-width="1" stroke-linecap="butt" stroke-miterlimit="10" stroke-linejoin="miter" fill="none" stroke="#bfbfbf" d="M 44.15262 0 C 44.15262 24.38512 24.38512 44.15262 0 44.15262 C -24.38512 44.15262 -44.15262 24.38512 -44.15262 0 C -44.15262 -24.38512 -24.38512 -44.15262 0 -44.15262 C 24.38512 -44.15262 44.15262 -24.38512 44.15262 0 M 88.30524 0 C 88.30524 48.77026 48.77026 88.30524 0 88.30524 C -48.77026 88.30524 -88.30524 48.77026 -88.30524 0 C -88.30524 -48.77026 -48.77026 -88.30524 0 -88.30524 C 48.77026 -88.30524 88.30524 -48.77026 88.30524 0 "/>
<path transform="matrix(1,0,0,-1,110.012,121.839)" stroke-width="1" stroke-linecap="butt" stroke-miterlimit="10" stroke-linejoin="miter" fill="none" stroke="#808080" d="M 97.1363 0 L 101.38814 0 M 68.6858 68.6858 L 71.69229 71.69229 M 0 97.1363 L 0 101.38814 M -68.6858 68.6858 L -71.69229 71.69229 M -97.1363 0 L -101.38814 0 M -68.6858 -68.6858 L -71.69229 -71.69229 M 0 -97.1363 L 0 -101.38814 M 68.6858 -68.6858 L 71.69229 -71.69229 "/>
<path transform="matrix(1,0,0,-1,110.012,121.839)" stroke-width="1" stroke-linecap="butt" stroke-miterlimit="10" stroke-linejoin="miter" fill="none" stroke="#808080" d="M 44.15262 0 L 44.15262 4.25183 M 88.30524 0 L 88.30524 4.25183 "/>
<path transform="matrix(1,0,0,-1,110.012,121.839)" stroke-width="1" stroke-linecap="butt" stroke-miterlimit="10" stroke-linejoin="miter" fill="none" stroke="#000000" d="M 0 0 L 0 0 "/>
<path transform="matrix(1,0,0,-1,110.012,121.839)" stroke-width="1" stroke-linecap="butt" stroke-miterlimit="10" stroke-linejoin="miter" fill="none" stroke="#000000" d="M 97.1363 0 C 97.1363 53.64758 53.64758 97.1363 0 97.1363 C -53.64758 97.1363 -97.1363 53.64758 -97.1363 0 C -97.1363 -53.64758 -53.64758 -97.1363 0 -97.1363 C 53.64758 -97.1363 97.1363 -53.64758 97.1363 0 "/>
<path transform="matrix(1,0,0,-1,110.012,121.839)" stroke-width="1" stroke-linecap="butt" stroke-miterlimit="10" stroke-linejoin="miter" fill="none" stroke="#000000" d="M 0 0 L 97.1363 0 "/>
<path transform="matrix(1,0,0,-1,110.012,121.839)" stroke-width="1" stroke-linecap="butt" stroke-miterlimit="10" stroke-linejoin="miter" fill="none" stroke="#000000" d="M 0 0 L 97.1363 0 "/>
<symbol id="font_0_1">
<path d="M .421 .34200005 C .421 .42200003 .416 .50200006 .381 .57600006 C .335 .67200008 .25300003 .688 .211 .688 C .15100001 .688 .07800001 .66200008 .037000006 .56900009 C .0050000029 .5 0 .42200003 0 .34200005 C 0 .26700003 .0040000008 .177 .045000007 .101 C .088 .020000002 .161 0 .21000001 0 C .264 0 .34 .021000002 .384 .116000007 C .416 .185 .421 .263 .421 .34200005 M .21000001 .022000002 C .171 .022000002 .112 .047000003 .094 .143 C .083000008 .20300001 .083000008 .29500003 .083000008 .35400004 C .083000008 .41800005 .083000008 .48400004 .091000009 .53800007 C .11 .65700009 .185 .66600009 .21000001 .66600009 C .243 .66600009 .30900003 .64800009 .328 .549 C .338 .49300004 .338 .41700004 .338 .35400004 C .338 .279 .338 .21100001 .32700003 .147 C .312 .052 .255 .022000002 .21000001 .022000002 Z "/>
</symbol>
<use xlink:href="#font_0_1" transform="matrix(9.9626,0,0,-9.9626,211.05553,125.26817)"/>
<symbol id="font_1_1">
<path d="M .23800002 .38400004 L .351 .38400004 C .31800003 .23600002 .30900003 .19300002 .30900003 .126 C .30900003 .111 .30900003 .08400001 .317 .05 C .327 .0060000007 .338 0 .35300002 0 C .373 0 .39400003 .018000002 .39400003 .038000004 C .39400003 .044 .39400003 .046 .388 .060000004 C .359 .13200002 .359 .19700001 .359 .22500003 C .359 .27800004 .366 .33200003 .377 .38400004 L .491 .38400004 C .504 .38400004 .54 .38400004 .54 .418 C .54 .44200004 .519 .44200004 .5 .44200004 L .165 .44200004 C .143 .44200004 .105 .44200004 .061000006 .395 C .026000003 .35600005 0 .31000004 0 .305 C 0 .30400003 0 .29500003 .012 .29500003 C .020000002 .29500003 .022000002 .29900003 .028000003 .307 C .077 .38400004 .135 .38400004 .15500002 .38400004 L .21200001 .38400004 C .18000002 .263 .12600002 .14200002 .08400001 .051000004 C .076000008 .036000004 .076000008 .034 .076000008 .027000003 C .076000008 .008000001 .092 0 .105 0 C .135 0 .143 .028 .15500002 .065000008 C .16900002 .111 .16900002 .113000009 .18200001 .16300002 L .23800002 .38400004 Z "/>
</symbol>
<use xlink:href="#font_1_1" transform="matrix(9.9626,0,0,-9.9626,186.04,38.52858)"/>
<path transform="matrix(1,0,0,-1,185.771,42.668)" stroke-width="1" stroke-linecap="butt" stroke-miterlimit="10" stroke-linejoin="miter" fill="none" stroke="#000000" d="M 0 0 L 6.036 0 "/>
<symbol id="font_0_5">
<path d="M .266 .165 L .266 .078 C .266 .042000005 .26400004 .031000002 .19000001 .031000002 L .16900002 .031000002 L .16900002 0 C .21000001 .003 .26200003 .003 .30400003 .003 C .34600003 .003 .39900003 .003 .44000004 0 L .44000004 .031000002 L .41900004 .031000002 C .34500004 .031000002 .34300003 .042000005 .34300003 .078 L .34300003 .165 L .44300003 .165 L .44300003 .19600001 L .34300003 .19600001 L .34300003 .651 C .34300003 .671 .34300003 .67700007 .32700003 .67700007 C .31800003 .67700007 .31500004 .67700007 .307 .665 L 0 .19600001 L 0 .165 L .266 .165 M .272 .19600001 L .028 .19600001 L .272 .569 L .272 .19600001 Z "/>
</symbol>
<use xlink:href="#font_0_5" transform="matrix(9.9626,0,0,-9.9626,186.57794,51.992006)"/>
<use xlink:href="#font_1_1" transform="matrix(9.9626,0,0,-9.9626,107.263,7.719574)"/>
<path transform="matrix(1,0,0,-1,106.99401,11.858978)" stroke-width="1" stroke-linecap="butt" stroke-miterlimit="10" stroke-linejoin="miter" fill="none" stroke="#000000" d="M 0 0 L 6.036 0 "/>
<symbol id="font_0_3">
<path d="M .07700001 .07700001 L .18300002 .18 C .33900003 .31800003 .39900003 .372 .39900003 .47200004 C .39900003 .586 .30900003 .666 .18700002 .666 C .074 .666 0 .574 0 .485 C 0 .42900003 .05 .42900003 .053000008 .42900003 C .07000001 .42900003 .105000007 .441 .105000007 .48200003 C .105000007 .508 .08700001 .53400006 .052000006 .53400006 C .044000005 .53400006 .042000008 .53400006 .039 .53300008 C .062000004 .59800007 .11600001 .63500007 .17400001 .63500007 C .26500003 .63500007 .308 .554 .308 .47200004 C .308 .39200003 .25800003 .31300003 .20300003 .25100003 L .011000004 .037 C 0 .026 0 .024 0 0 L .37100003 0 L .39900003 .17400001 L .374 .17400001 C .36900003 .14400001 .36200003 .1 .352 .085 C .345 .07700001 .279 .07700001 .257 .07700001 L .07700001 .07700001 Z "/>
</symbol>
<use xlink:href="#font_0_3" transform="matrix(9.9626,0,0,-9.9626,108.01914,21.18399)"/>
<symbol id="font_0_4">
<path d="M .24800003 .37400005 C .33 .40100003 .388 .47100006 .388 .55 C .388 .632 .3 .688 .204 .688 C .10300001 .688 .027000003 .628 .027000003 .55200007 C .027000003 .519 .049000004 .5 .078 .5 C .109000008 .5 .12900001 .522 .12900001 .55100008 C .12900001 .6010001 .082 .6010001 .067 .6010001 C .098 .65000006 .164 .66300007 .20000002 .66300007 C .24100003 .66300007 .29600004 .64100006 .29600004 .55100008 C .29600004 .53900006 .29400004 .48100005 .268 .43700005 C .238 .38900004 .204 .38600005 .17900002 .38500003 C .171 .38400004 .14700002 .38200004 .14000002 .38200004 C .132 .38100005 .125 .38000003 .125 .37000004 C .125 .35900004 .132 .35900004 .14900002 .35900004 L .19300002 .35900004 C .275 .35900004 .312 .29100005 .312 .193 C .312 .057000005 .24300003 .028 .199 .028 C .15600002 .028 .081 .045 .046000005 .104 C .081 .09900001 .11200001 .12100001 .11200001 .15900001 C .11200001 .19500001 .085 .215 .056 .215 C .031999999 .215 0 .201 0 .157 C 0 .06600001 .093 0 .20200002 0 C .32400004 0 .41500003 .091000009 .41500003 .193 C .41500003 .27500005 .35200004 .35300005 .24800003 .37400005 Z "/>
</symbol>
<use xlink:href="#font_0_4" transform="matrix(9.9626,0,0,-9.9626,24.365427,37.92517)"/>
<use xlink:href="#font_1_1" transform="matrix(9.9626,0,0,-9.9626,29.19699,37.815584)"/>
<path transform="matrix(1,0,0,-1,23.946999,41.955)" stroke-width="1" stroke-linecap="butt" stroke-miterlimit="10" stroke-linejoin="miter" fill="none" stroke="#000000" d="M 0 0 L 11.018 0 "/>
<use xlink:href="#font_0_5" transform="matrix(9.9626,0,0,-9.9626,27.243952,51.28)"/>
<use xlink:href="#font_1_1" transform="matrix(9.9626,0,0,-9.9626,3.5899895,124.092578)"/>
<symbol id="font_0_6">
<path d="M .39900003 .223 C .39900003 .34200005 .317 .44200004 .209 .44200004 C .16100002 .44200004 .118000019 .42600004 .082 .39100004 L .082 .586 C .10200001 .58000007 .135 .573 .16700001 .573 C .29 .573 .36 .66400006 .36 .67700007 C .36 .683 .357 .688 .35 .688 C .349 .688 .347 .688 .342 .68500009 C .322 .67600008 .273 .656 .20600002 .656 C .16600001 .656 .120000008 .66300007 .073 .6840001 C .065 .68700006 .06300001 .68700006 .061000009 .68700006 C .051000004 .68700006 .051000004 .679 .051000004 .66300007 L .051000004 .36700005 C .051000004 .34900005 .051000004 .34100003 .065 .34100003 C .07200001 .34100003 .074 .34400005 .07800001 .35000003 C .08900002 .36600004 .12600002 .42000006 .207 .42000006 C .259 .42000006 .284 .37400005 .292 .35600005 C .308 .31900005 .31 .28000004 .31 .23 C .31 .19500001 .31 .135 .286 .093 C .262 .054000006 .22500001 .028 .17900002 .028 C .106000009 .028 .049000008 .08100001 .032 .14000002 C .035 .13900002 .038000008 .13800001 .049000008 .13800001 C .082 .13800001 .09900001 .163 .09900001 .187 C .09900001 .21100001 .082 .23600002 .049000008 .23600002 C .035 .23600002 0 .22900002 0 .18300002 C 0 .097 .069000009 0 .18100001 0 C .297 0 .39900003 .096 .39900003 .223 Z "/>
</symbol>
<use xlink:href="#font_0_6" transform="matrix(9.9626,0,0,-9.9626,24.44513,199.03717)"/>
<use xlink:href="#font_1_1" transform="matrix(9.9626,0,0,-9.9626,29.19699,198.92758)"/>
<path transform="matrix(1,0,0,-1,23.946999,203.067)" stroke-width="1" stroke-linecap="butt" stroke-miterlimit="10" stroke-linejoin="miter" fill="none" stroke="#000000" d="M 0 0 L 11.018 0 "/>
<use xlink:href="#font_0_5" transform="matrix(9.9626,0,0,-9.9626,27.243952,212.392)"/>
<use xlink:href="#font_0_4" transform="matrix(9.9626,0,0,-9.9626,104.921428,229.13318)"/>
<use xlink:href="#font_1_1" transform="matrix(9.9626,0,0,-9.9626,109.75299,229.02359)"/>
<path transform="matrix(1,0,0,-1,104.503,233.163)" stroke-width="1" stroke-linecap="butt" stroke-miterlimit="10" stroke-linejoin="miter" fill="none" stroke="#000000" d="M 0 0 L 11.018 0 "/>
<use xlink:href="#font_0_3" transform="matrix(9.9626,0,0,-9.9626,108.019138,242.48799)"/>
<symbol id="font_0_7">
<path d="M .42000003 .63100007 C .42900003 .64300009 .42900003 .64500007 .42900003 .66600009 L .18600002 .66600009 C .064 .66600009 .062000008 .679 .058000007 .6980001 L .033 .6980001 L 0 .49200005 L .024999999 .49200005 C .028000005 .508 .037 .57100006 .050000006 .58300009 C .057000005 .58900007 .13500002 .58900007 .148 .58900007 L .35500003 .58900007 C .344 .573 .26500003 .46400006 .24300003 .43100003 C .153 .29600004 .12000001 .157 .12000001 .055 C .12000001 .045 .12000001 0 .16600001 0 C .21200001 0 .21200001 .045 .21200001 .055 L .21200001 .106000009 C .21200001 .16100002 .21500004 .216 .22300002 .27 C .22700003 .29300005 .24100003 .37900005 .28500004 .44100005 L .42000003 .63100007 Z "/>
</symbol>
<use xlink:href="#font_0_7" transform="matrix(9.9626,0,0,-9.9626,185.61692,199.03717)"/>
<use xlink:href="#font_1_1" transform="matrix(9.9626,0,0,-9.9626,190.309,198.92758)"/>
<path transform="matrix(1,0,0,-1,185.059,203.067)" stroke-width="1" stroke-linecap="butt" stroke-miterlimit="10" stroke-linejoin="miter" fill="none" stroke="#000000" d="M 0 0 L 11.018 0 "/>
<use xlink:href="#font_0_5" transform="matrix(9.9626,0,0,-9.9626,188.35594,212.392)"/>
<use xlink:href="#font_0_1" transform="matrix(9.9626,0,0,-9.9626,148.18753,118.53818)"/>
<symbol id="font_1_2">
<path d="M .106 .053000004 C .106 .082 .08200001 .106000009 .05300001 .106000009 C .024000004 .106000009 0 .082 0 .053000004 C 0 .024 .024000004 0 .05300001 0 C .08200001 0 .106 .024 .106 .053000004 Z "/>
</symbol>
<use xlink:href="#font_1_2" transform="matrix(9.9626,0,0,-9.9626,153.63678,118.319)"/>
<use xlink:href="#font_0_6" transform="matrix(9.9626,0,0,-9.9626,156.04613,118.53818)"/>
<symbol id="font_0_2">
<path d="M .205 .64000007 C .205 .66400006 .205 .666 .18200003 .666 C .120000008 .60200008 .032000007 .60200008 0 .60200008 L 0 .57100006 C .020000004 .57100006 .07900001 .57100006 .13100001 .597 L .13100001 .079 C .13100001 .043 .128 .031000002 .038000004 .031000002 L .0060000049 .031000002 L .0060000049 0 C .04100001 .003 .128 .003 .168 .003 C .20800002 .003 .29500003 .003 .33000005 0 L .33000005 .031000002 L .29800005 .031000002 C .20800002 .031000002 .205 .042000005 .205 .079 L .205 .64000007 Z "/>
</symbol>
<use xlink:href="#font_0_2" transform="matrix(9.9626,0,0,-9.9626,196.71169,118.319)"/>
<clipPath id="cp2">
<path transform="matrix(1,0,0,-1,110.012,121.839)" d="M 97.1363 0 C 97.1363 53.64758 53.64758 97.1363 0 97.1363 C -53.64758 97.1363 -97.1363 53.64758 -97.1363 0 C -97.1363 -53.64758 -53.64758 -97.1363 0 -97.1363 C 53.64758 -97.1363 97.1363 -53.64758 97.1363 0 "/>
</clipPath>
<g clip-path="url(#cp2)">
<path transform="matrix(1,0,0,-1,110.012,121.839)" stroke-width="1.19553" stroke-linecap="butt" stroke-miterlimit="10" stroke-linejoin="miter" fill="none" stroke="#000080" d="M 88.30524 0 C 88.30524 0 88.26172 2.02327 88.2113 2.79845 C 88.16087 3.57362 88.04112 4.81633 87.9418 5.58702 C 87.84247 6.35771 87.64229 7.59015 87.49532 8.35318 C 87.34834 9.11621 87.07664 10.33434 86.88248 11.0865 C 86.68831 11.83867 86.33746 13.03587 86.09584 13.7743 C 85.8542 14.51274 85.42995 15.68741 85.14084 16.40869 C 84.85172 17.12996 84.34677 18.27171 84.01212 18.97281 C 83.67746 19.6739 83.10684 20.78287 82.72879 21.46176 C 82.35075 22.14067 81.70724 23.21213 81.28735 23.86598 C 80.86746 24.51985 80.16219 25.54839 79.7024 26.17445 C 79.24261 26.80052 78.47295 27.78297 77.97356 28.37828 C 77.47417 28.9736 76.6402 29.90312 76.10316 30.46503 C 75.56612 31.02695 74.67416 31.90123 74.10286 32.42822 C 73.53156 32.95523 72.58817 33.77315 71.98555 34.26343 C 71.38295 34.75371 70.39172 35.5106 69.7596 35.96182 C 69.12746 36.41306 68.0896 37.1058 67.42958 37.51555 C 66.76958 37.92531 65.68788 38.54855 65.00267 38.91512 C 64.31744 39.28168 63.19827 39.83517 62.49095 40.1576 C 61.78362 40.48001 60.63048 40.96167 59.90466 41.23897 C 59.17885 41.51627 58.0012 41.92528 57.25969 42.15622 C 56.51817 42.38715 55.31516 42.71977 54.56026 42.90341 C 53.80536 43.08705 52.58408 43.34482 51.81882 43.4798 C 51.05357 43.61478 49.81718 43.79059 49.0448 43.87633 C 48.27242 43.96207 47.02817 44.06093 46.25195 44.09781 C 45.47574 44.13469 44.22708 44.1544 43.45035 44.14221 C 42.67361 44.13002 41.42783 44.07112 40.65373 44.00993 C 39.87964 43.94875 38.64 43.81143 37.87106 43.70113 C 37.10214 43.59082 35.87274 43.37418 35.11176 43.21487 C 34.35078 43.05557 33.13554 42.76018 32.38637 42.55296 C 31.63718 42.34575 30.44637 41.97546 29.71216 41.7213 C 28.97794 41.46715 27.81131 41.02115 27.09468 40.72113 C 26.37804 40.42113 25.24303 39.90356 24.54712 39.55899 C 23.8512 39.21442 22.75188 38.62604 22.07896 38.23766 C 21.40605 37.84927 20.34438 37.1904 19.69716 36.75975 C 19.04996 36.32909 18.03262 35.60435 17.41428 35.13371 C 16.79591 34.66307 15.82764 33.87645 15.24046 33.3677 C 14.65329 32.85898 13.73602 32.0118 13.18227 31.46703 C 12.62851 30.92224 11.76726 30.0199 11.2493 29.44125 C 10.73135 28.86261 9.92967 27.90749 9.44923 27.29652 C 8.96881 26.68558 8.22751 25.67816 7.7867 25.03786 C 7.34589 24.39757 6.67125 23.34822 6.27208 22.68169 C 5.87292 22.01517 5.26587 20.92442 4.90977 20.23393 C 4.55368 19.54344 4.0171 18.41667 3.70557 17.70508 C 3.39403 16.9935 2.93022 15.8354 2.6644 15.10526 C 2.39857 14.3751 2.0087 13.18823 1.78966 12.44258 C 1.57063 11.69695 1.25705 10.4891 1.08578 9.73119 C .91452 8.97328 .67812 7.7472 .5553 6.98003 C .43246 6.21286 .2743 4.97522 .20038 4.2019 C .12646 3.4286 .04713 2.18303 .0224 1.40648 C -.00232 .62993 -.00249 -.61856 .02202 -1.39499 C .04654 -2.17142 .1255 -3.41628 .19922 -4.18948 C .27293 -4.9627 .43077 -6.20085 .55334 -6.96782 C .67592 -7.73479 .91171 -8.95947 1.08272 -9.7173 C 1.25372 -10.47511 1.56706 -11.68387 1.78586 -12.42967 C 2.00467 -13.17549 2.39409 -14.36237 2.65974 -15.09267 C 2.9254 -15.82297 3.38927 -16.98169 3.70055 -17.69325 C 4.01183 -18.40482 4.54738 -19.53056 4.90326 -20.22115 C 5.25912 -20.91173 5.8665 -22.00368 6.26555 -22.6705 C 6.6646 -23.33734 7.33882 -24.3868 7.77943 -25.02727 C 8.22005 -25.66774 8.96101 -26.67566 9.44122 -27.28662 C 9.92145 -27.89757 10.72263 -28.8517 11.24055 -29.43066 C 11.75847 -30.00961 12.62045 -30.91432 13.17401 -31.45934 C 13.72757 -32.00433 14.64333 -32.85007 15.23027 -33.3587 C 15.81723 -33.86732 16.78621 -34.65459 17.40437 -35.12523 C 18.02254 -35.59587 19.0385 -36.3197 19.6856 -36.75075 C 20.3327 -37.18178 21.39517 -37.84286 22.06828 -38.23184 C 22.7414 -38.62082 23.84126 -39.20963 24.53702 -39.55429 C 25.23277 -39.89897 26.36652 -40.41603 27.08284 -40.71605 C 27.79915 -41.01605 28.96545 -41.46213 29.69977 -41.71658 C 30.43408 -41.97102 31.6263 -42.34258 32.37532 -42.55002 C 33.12436 -42.75748 34.33778 -43.05235 35.09828 -43.21172 C 35.85876 -43.37108 37.08748 -43.58812 37.85649 -43.69864 C 38.6255 -43.80916 39.86649 -43.94678 40.64075 -44.00827 C 41.41501 -44.06976 42.66022 -44.12952 43.4369 -44.1419 C 44.21361 -44.1543 45.46231 -44.1342 46.23874 -44.09758 C 47.01517 -44.06097 48.26035 -43.9636 49.03287 -43.87804 C 49.80539 -43.79248 51.04138 -43.6156 51.80653 -43.48088 C 52.5717 -43.34616 53.7925 -43.09007 54.54765 -42.90698 C 55.30281 -42.72389 56.5076 -42.39214 57.24928 -42.16124 C 57.99098 -41.93033 59.16756 -41.51993 59.89331 -41.24274 C 60.61906 -40.96555 61.77272 -40.48543 62.48007 -40.16333 C 63.18744 -39.84123 64.30653 -39.28789 64.99158 -38.92119 C 65.67664 -38.55449 66.7573 -37.92995 67.41751 -37.52034 C 68.07773 -37.11075 69.11763 -36.41982 69.75009 -35.96896 C 70.38255 -35.51813 71.37292 -34.76079 71.9759 -34.27087 C 72.57887 -33.78096 73.52464 -32.96487 74.09592 -32.43794 C 74.66718 -31.91101 75.55623 -31.03491 76.09325 -30.47305 C 76.63028 -29.91121 77.46667 -28.98344 77.96645 -28.38847 C 78.4662 -27.7935 79.23547 -26.81088 79.69522 -26.18489 C 80.15498 -25.55888 80.86034 -24.53027 81.28009 -23.87662 C 81.69984 -23.22296 82.34227 -22.15253 82.7206 -21.4737 C 83.09894 -20.79488 83.67183 -19.6854 84.0069 -18.98404 C 84.34196 -18.28268 84.8465 -17.13982 85.13559 -16.41876 C 85.42468 -15.69772 85.8485 -14.52536 86.09056 -13.78719 C 86.33263 -13.04901 86.68568 -11.8507 86.88026 -11.0984 C 87.07486 -10.34613 87.34656 -9.128 87.49309 -8.36516 C 87.63963 -7.60231 87.83725 -6.37099 87.93646 -5.6003 C 88.03568 -4.8296 88.15746 -3.58586 88.20818 -2.81052 C 88.25891 -2.03517 88.30212 -.0121 88.30212 -.0121 "/>
</g>
</svg>
