<?xml version="1.0" encoding="UTF-8" standalone="no"?>
<!DOCTYPE svg PUBLIC "-//W3C//DTD SVG 1.1//EN" "http://www.w3.org/Graphics/SVG/1.1/DTD/svg11.dtd">
<svg xmlns="http://www.w3.org/2000/svg" xmlns:xlink="http://www.w3.org/1999/xlink" version="1.1" width="194.881pt" height="161.603pt" viewBox="0 0 194.881 161.603">
<clipPath id="cp0">
<path transform="matrix(1,0,0,-1,132.807,99.621997)" d="M -132.80904 -19.6744 L -132.80904 79.9485 L 0 99.62291 L 62.07454 57.31534 L 62.07454 -42.30756 L -70.7345 -61.98195 Z "/>
</clipPath>
<g clip-path="url(#cp0)">
<path transform="matrix(1,0,0,-1,132.807,99.621997)" stroke-width="1" stroke-linecap="butt" stroke-miterlimit="10" stroke-linejoin="miter" fill="none" stroke="#bb22ff" d="M -12.3703 95.19275 L -18.6945 81.11363 L -15.70538 65.93411 L -9.38118 80.01323 Z "/>
<path transform="matrix(1,0,0,-1,132.807,99.621997)" stroke-width="1" stroke-linecap="butt" stroke-miterlimit="10" stroke-linejoin="miter" fill="none" stroke="#7d41ff" d="M -18.6945 81.11363 L -25.01872 69.05643 L -22.0296 53.8769 L -15.70538 65.93411 Z "/>
<path transform="matrix(1,0,0,-1,132.807,99.621997)" stroke-width="1" stroke-linecap="butt" stroke-miterlimit="10" stroke-linejoin="miter" fill="none" stroke="#495cff" d="M -25.01872 69.05643 L -31.34294 59.02106 L -28.35382 43.84154 L -22.0296 53.8769 Z "/>
<path transform="matrix(1,0,0,-1,132.807,99.621997)" stroke-width="1" stroke-linecap="butt" stroke-miterlimit="10" stroke-linejoin="miter" fill="none" stroke="#7d41ff" d="M -9.38118 80.01323 L -15.70538 65.93411 L -12.71625 52.7765 L -6.39204 66.85562 Z "/>
<path transform="matrix(1,0,0,-1,132.807,99.621997)" stroke-width="1" stroke-linecap="butt" stroke-miterlimit="10" stroke-linejoin="miter" fill="none" stroke="#1f70ff" d="M -31.34294 59.02106 L -37.66716 51.00758 L -34.67804 35.82808 L -28.35382 43.84154 Z "/>
<path transform="matrix(1,0,0,-1,132.807,99.621997)" stroke-width="1" stroke-linecap="butt" stroke-miterlimit="10" stroke-linejoin="miter" fill="none" stroke="#3e61ff" d="M -15.70538 65.93411 L -22.0296 53.8769 L -19.04047 40.7193 L -12.71625 52.7765 Z "/>
<path transform="matrix(1,0,0,-1,132.807,99.621997)" stroke-width="1" stroke-linecap="butt" stroke-miterlimit="10" stroke-linejoin="miter" fill="none" stroke="#0080ff" d="M -37.66716 51.00758 L -43.99138 45.01598 L -41.00227 29.83646 L -34.67804 35.82808 Z "/>
<path transform="matrix(1,0,0,-1,132.807,99.621997)" stroke-width="1" stroke-linecap="butt" stroke-miterlimit="10" stroke-linejoin="miter" fill="none" stroke="#0a7bff" d="M -22.0296 53.8769 L -28.35382 43.84154 L -25.36469 30.68393 L -19.04047 40.7193 Z "/>
<path transform="matrix(1,0,0,-1,132.807,99.621997)" stroke-width="1" stroke-linecap="butt" stroke-miterlimit="10" stroke-linejoin="miter" fill="none" stroke="#495cff" d="M -6.39204 66.85562 L -12.71625 52.7765 L -9.72711 41.64073 L -3.40291 55.71985 Z "/>
<path transform="matrix(1,0,0,-1,132.807,99.621997)" stroke-width="1" stroke-linecap="butt" stroke-miterlimit="10" stroke-linejoin="miter" fill="none" stroke="#158aff" d="M -43.99138 45.01598 L -50.31561 41.04623 L -47.32649 25.86671 L -41.00227 29.83646 Z "/>
<path transform="matrix(1,0,0,-1,132.807,99.621997)" stroke-width="1" stroke-linecap="butt" stroke-miterlimit="10" stroke-linejoin="miter" fill="none" stroke="#1f90ff" d="M -28.35382 43.84154 L -34.67804 35.82808 L -31.68892 22.67046 L -25.36469 30.68393 Z "/>
<path transform="matrix(1,0,0,-1,132.807,99.621997)" stroke-width="1" stroke-linecap="butt" stroke-miterlimit="10" stroke-linejoin="miter" fill="none" stroke="#0a7bff" d="M -12.71625 52.7765 L -19.04047 40.7193 L -16.05133 29.58353 L -9.72711 41.64073 Z "/>
<path transform="matrix(1,0,0,-1,132.807,99.621997)" stroke-width="1" stroke-linecap="butt" stroke-miterlimit="10" stroke-linejoin="miter" fill="none" stroke="#1f90ff" d="M -50.31561 41.04623 L -56.63983 39.09839 L -53.65071 23.91887 L -47.32649 25.86671 Z "/>
<path transform="matrix(1,0,0,-1,132.807,99.621997)" stroke-width="1" stroke-linecap="butt" stroke-miterlimit="10" stroke-linejoin="miter" fill="none" stroke="#3f9fff" d="M -34.67804 35.82808 L -41.00227 29.83646 L -38.01314 16.67886 L -31.68892 22.67046 Z "/>
<path transform="matrix(1,0,0,-1,132.807,99.621997)" stroke-width="1" stroke-linecap="butt" stroke-miterlimit="10" stroke-linejoin="miter" fill="none" stroke="#2a95ff" d="M -19.04047 40.7193 L -25.36469 30.68393 L -22.37555 19.54816 L -16.05133 29.58353 Z "/>
<path transform="matrix(1,0,0,-1,132.807,99.621997)" stroke-width="1" stroke-linecap="butt" stroke-miterlimit="10" stroke-linejoin="miter" fill="none" stroke="#1f70ff" d="M -3.40291 55.71985 L -9.72711 41.64073 L -6.73798 32.52686 L -.41377 46.60597 Z "/>
<path transform="matrix(1,0,0,-1,132.807,99.621997)" stroke-width="1" stroke-linecap="butt" stroke-miterlimit="10" stroke-linejoin="miter" fill="none" stroke="#1f90ff" d="M -56.63983 39.09839 L -62.96404 39.17241 L -59.97491 23.99289 L -53.65071 23.91887 Z "/>
<path transform="matrix(1,0,0,-1,132.807,99.621997)" stroke-width="1" stroke-linecap="butt" stroke-miterlimit="10" stroke-linejoin="miter" fill="none" stroke="#53aaff" d="M -41.00227 29.83646 L -47.32649 25.86671 L -44.33736 12.7091 L -38.01314 16.67886 Z "/>
<path transform="matrix(1,0,0,-1,132.807,99.621997)" stroke-width="1" stroke-linecap="butt" stroke-miterlimit="10" stroke-linejoin="miter" fill="none" stroke="#53aaff" d="M -25.36469 30.68393 L -31.68892 22.67046 L -28.69978 11.5347 L -22.37555 19.54816 Z "/>
<path transform="matrix(1,0,0,-1,132.807,99.621997)" stroke-width="1" stroke-linecap="butt" stroke-miterlimit="10" stroke-linejoin="miter" fill="none" stroke="#1f90ff" d="M -9.72711 41.64073 L -16.05133 29.58353 L -13.0622 20.46965 L -6.73798 32.52686 Z "/>
<path transform="matrix(1,0,0,-1,132.807,99.621997)" stroke-width="1" stroke-linecap="butt" stroke-miterlimit="10" stroke-linejoin="miter" fill="none" stroke="#5eafff" d="M -47.32649 25.86671 L -53.65071 23.91887 L -50.66158 10.76126 L -44.33736 12.7091 Z "/>
<path transform="matrix(1,0,0,-1,132.807,99.621997)" stroke-width="1" stroke-linecap="butt" stroke-miterlimit="10" stroke-linejoin="miter" fill="none" stroke="#158aff" d="M -62.96404 39.17241 L -69.28825 41.26826 L -66.29913 26.08878 L -59.97491 23.99289 Z "/>
<path transform="matrix(1,0,0,-1,132.807,99.621997)" stroke-width="1" stroke-linecap="butt" stroke-miterlimit="10" stroke-linejoin="miter" fill="none" stroke="#73b9ff" d="M -31.68892 22.67046 L -38.01314 16.67886 L -35.024 5.54308 L -28.69978 11.5347 Z "/>
<path transform="matrix(1,0,0,-1,132.807,99.621997)" stroke-width="1" stroke-linecap="butt" stroke-miterlimit="10" stroke-linejoin="miter" fill="none" stroke="#53aaff" d="M -16.05133 29.58353 L -22.37555 19.54816 L -19.38643 10.43428 L -13.0622 20.46965 Z "/>
<path transform="matrix(1,0,0,-1,132.807,99.621997)" stroke-width="1" stroke-linecap="butt" stroke-miterlimit="10" stroke-linejoin="miter" fill="none" stroke="#0080ff" d="M -.41377 46.60597 L -6.73798 32.52686 L -3.74884 25.43483 L 2.57535 39.51395 Z "/>
<path transform="matrix(1,0,0,-1,132.807,99.621997)" stroke-width="1" stroke-linecap="butt" stroke-miterlimit="10" stroke-linejoin="miter" fill="none" stroke="#5eafff" d="M -53.65071 23.91887 L -59.97491 23.99289 L -56.98578 10.83528 L -50.66158 10.76126 Z "/>
<path transform="matrix(1,0,0,-1,132.807,99.621997)" stroke-width="1" stroke-linecap="butt" stroke-miterlimit="10" stroke-linejoin="miter" fill="none" stroke="#87c3ff" d="M -38.01314 16.67886 L -44.33736 12.7091 L -41.34822 1.57333 L -35.024 5.54308 Z "/>
<path transform="matrix(1,0,0,-1,132.807,99.621997)" stroke-width="1" stroke-linecap="butt" stroke-miterlimit="10" stroke-linejoin="miter" fill="none" stroke="#0080ff" d="M -69.28825 41.26826 L -75.61247 45.38605 L -72.62335 30.20654 L -66.29913 26.08878 Z "/>
<path transform="matrix(1,0,0,-1,132.807,99.621997)" stroke-width="1" stroke-linecap="butt" stroke-miterlimit="10" stroke-linejoin="miter" fill="none" stroke="#7dbeff" d="M -22.37555 19.54816 L -28.69978 11.5347 L -25.71065 2.42082 L -19.38643 10.43428 Z "/>
<path transform="matrix(1,0,0,-1,132.807,99.621997)" stroke-width="1" stroke-linecap="butt" stroke-miterlimit="10" stroke-linejoin="miter" fill="none" stroke="#3f9fff" d="M -6.73798 32.52686 L -13.0622 20.46965 L -10.07306 13.37764 L -3.74884 25.43483 Z "/>
<path transform="matrix(1,0,0,-1,132.807,99.621997)" stroke-width="1" stroke-linecap="butt" stroke-miterlimit="10" stroke-linejoin="miter" fill="none" stroke="#53aaff" d="M -59.97491 23.99289 L -66.29913 26.08878 L -63.31 12.93117 L -56.98578 10.83528 Z "/>
<path transform="matrix(1,0,0,-1,132.807,99.621997)" stroke-width="1" stroke-linecap="butt" stroke-miterlimit="10" stroke-linejoin="miter" fill="none" stroke="#92c9ff" d="M -44.33736 12.7091 L -50.66158 10.76126 L -47.67244 -.3745 L -41.34822 1.57333 Z "/>
<path transform="matrix(1,0,0,-1,132.807,99.621997)" stroke-width="1" stroke-linecap="butt" stroke-miterlimit="10" stroke-linejoin="miter" fill="none" stroke="#1f70ff" d="M -75.61247 45.38605 L -81.93669 51.5257 L -78.94757 36.34619 L -72.62335 30.20654 Z "/>
<path transform="matrix(1,0,0,-1,132.807,99.621997)" stroke-width="1" stroke-linecap="butt" stroke-miterlimit="10" stroke-linejoin="miter" fill="none" stroke="#9cceff" d="M -28.69978 11.5347 L -35.024 5.54308 L -32.03487 -3.57077 L -25.71065 2.42082 Z "/>
<path transform="matrix(1,0,0,-1,132.807,99.621997)" stroke-width="1" stroke-linecap="butt" stroke-miterlimit="10" stroke-linejoin="miter" fill="none" stroke="#73b9ff" d="M -13.0622 20.46965 L -19.38643 10.43428 L -16.3973 3.34225 L -10.07306 13.37764 Z "/>
<path transform="matrix(1,0,0,-1,132.807,99.621997)" stroke-width="1" stroke-linecap="butt" stroke-miterlimit="10" stroke-linejoin="miter" fill="none" stroke="#158aff" d="M 2.57535 39.51395 L -3.74884 25.43483 L -.7597 20.36472 L 5.56448 34.44383 Z "/>
<path transform="matrix(1,0,0,-1,132.807,99.621997)" stroke-width="1" stroke-linecap="butt" stroke-miterlimit="10" stroke-linejoin="miter" fill="none" stroke="#92c9ff" d="M -50.66158 10.76126 L -56.98578 10.83528 L -53.99664 -.30048 L -47.67244 -.3745 Z "/>
<path transform="matrix(1,0,0,-1,132.807,99.621997)" stroke-width="1" stroke-linecap="butt" stroke-miterlimit="10" stroke-linejoin="miter" fill="none" stroke="#3f9fff" d="M -66.29913 26.08878 L -72.62335 30.20654 L -69.63422 17.04892 L -63.31 12.93117 Z "/>
<path transform="matrix(1,0,0,-1,132.807,99.621997)" stroke-width="1" stroke-linecap="butt" stroke-miterlimit="10" stroke-linejoin="miter" fill="none" stroke="#b1d8ff" d="M -35.024 5.54308 L -41.34822 1.57333 L -38.35909 -7.54053 L -32.03487 -3.57077 Z "/>
<path transform="matrix(1,0,0,-1,132.807,99.621997)" stroke-width="1" stroke-linecap="butt" stroke-miterlimit="10" stroke-linejoin="miter" fill="none" stroke="#495cff" d="M -81.93669 51.5257 L -88.26091 59.68718 L -85.27179 44.50768 L -78.94757 36.34619 Z "/>
<path transform="matrix(1,0,0,-1,132.807,99.621997)" stroke-width="1" stroke-linecap="butt" stroke-miterlimit="10" stroke-linejoin="miter" fill="none" stroke="#9cceff" d="M -19.38643 10.43428 L -25.71065 2.42082 L -22.72151 -4.67117 L -16.3973 3.34225 Z "/>
<path transform="matrix(1,0,0,-1,132.807,99.621997)" stroke-width="1" stroke-linecap="butt" stroke-miterlimit="10" stroke-linejoin="miter" fill="none" stroke="#53aaff" d="M -3.74884 25.43483 L -10.07306 13.37764 L -7.08394 8.30751 L -.7597 20.36472 Z "/>
<path transform="matrix(1,0,0,-1,132.807,99.621997)" stroke-width="1" stroke-linecap="butt" stroke-miterlimit="10" stroke-linejoin="miter" fill="none" stroke="#87c3ff" d="M -56.98578 10.83528 L -63.31 12.93117 L -60.32086 1.7954 L -53.99664 -.30048 Z "/>
<path transform="matrix(1,0,0,-1,132.807,99.621997)" stroke-width="1" stroke-linecap="butt" stroke-miterlimit="10" stroke-linejoin="miter" fill="none" stroke="#bbddff" d="M -41.34822 1.57333 L -47.67244 -.3745 L -44.6833 -9.48837 L -38.35909 -7.54053 Z "/>
<path transform="matrix(1,0,0,-1,132.807,99.621997)" stroke-width="1" stroke-linecap="butt" stroke-miterlimit="10" stroke-linejoin="miter" fill="none" stroke="#1f90ff" d="M -72.62335 30.20654 L -78.94757 36.34619 L -75.95844 23.18858 L -69.63422 17.04892 Z "/>
<path transform="matrix(1,0,0,-1,132.807,99.621997)" stroke-width="1" stroke-linecap="butt" stroke-miterlimit="10" stroke-linejoin="miter" fill="none" stroke="#bbddff" d="M -25.71065 2.42082 L -32.03487 -3.57077 L -29.04573 -10.6628 L -22.72151 -4.67117 Z "/>
<path transform="matrix(1,0,0,-1,132.807,99.621997)" stroke-width="1" stroke-linecap="butt" stroke-miterlimit="10" stroke-linejoin="miter" fill="none" stroke="#7d41ff" d="M -88.26091 59.68718 L -94.58513 69.87059 L -91.59602 54.69109 L -85.27179 44.50768 Z "/>
<path transform="matrix(1,0,0,-1,132.807,99.621997)" stroke-width="1" stroke-linecap="butt" stroke-miterlimit="10" stroke-linejoin="miter" fill="none" stroke="#87c3ff" d="M -10.07306 13.37764 L -16.3973 3.34225 L -13.40816 -1.72784 L -7.08394 8.30751 Z "/>
<path transform="matrix(1,0,0,-1,132.807,99.621997)" stroke-width="1" stroke-linecap="butt" stroke-miterlimit="10" stroke-linejoin="miter" fill="none" stroke="#1f90ff" d="M 5.56448 34.44383 L -.7597 20.36472 L 2.2294 17.31645 L 8.55362 31.39557 Z "/>
<path transform="matrix(1,0,0,-1,132.807,99.621997)" stroke-width="1" stroke-linecap="butt" stroke-miterlimit="10" stroke-linejoin="miter" fill="none" stroke="#bbddff" d="M -47.67244 -.3745 L -53.99664 -.30048 L -51.0075 -9.41435 L -44.6833 -9.48837 Z "/>
<path transform="matrix(1,0,0,-1,132.807,99.621997)" stroke-width="1" stroke-linecap="butt" stroke-miterlimit="10" stroke-linejoin="miter" fill="none" stroke="#73b9ff" d="M -63.31 12.93117 L -69.63422 17.04892 L -66.64508 5.91315 L -60.32086 1.7954 Z "/>
<path transform="matrix(1,0,0,-1,132.807,99.621997)" stroke-width="1" stroke-linecap="butt" stroke-miterlimit="10" stroke-linejoin="miter" fill="none" stroke="#d0e8ff" d="M -32.03487 -3.57077 L -38.35909 -7.54053 L -35.36995 -14.63254 L -29.04573 -10.6628 Z "/>
<path transform="matrix(1,0,0,-1,132.807,99.621997)" stroke-width="1" stroke-linecap="butt" stroke-miterlimit="10" stroke-linejoin="miter" fill="none" stroke="#0a7bff" d="M -78.94757 36.34619 L -85.27179 44.50768 L -82.28265 31.35005 L -75.95844 23.18858 Z "/>
<path transform="matrix(1,0,0,-1,132.807,99.621997)" stroke-width="1" stroke-linecap="butt" stroke-miterlimit="10" stroke-linejoin="miter" fill="none" stroke="#b1d8ff" d="M -16.3973 3.34225 L -22.72151 -4.67117 L -19.73238 -9.74132 L -13.40816 -1.72784 Z "/>
<path transform="matrix(1,0,0,-1,132.807,99.621997)" stroke-width="1" stroke-linecap="butt" stroke-miterlimit="10" stroke-linejoin="miter" fill="none" stroke="#bb22ff" d="M -94.58513 69.87059 L -100.90936 82.07585 L -97.92024 66.89636 L -91.59602 54.69109 Z "/>
<path transform="matrix(1,0,0,-1,132.807,99.621997)" stroke-width="1" stroke-linecap="butt" stroke-miterlimit="10" stroke-linejoin="miter" fill="none" stroke="#5eafff" d="M -.7597 20.36472 L -7.08394 8.30751 L -4.0948 5.25925 L 2.2294 17.31645 Z "/>
<path transform="matrix(1,0,0,-1,132.807,99.621997)" stroke-width="1" stroke-linecap="butt" stroke-miterlimit="10" stroke-linejoin="miter" fill="none" stroke="#b1d8ff" d="M -53.99664 -.30048 L -60.32086 1.7954 L -57.33173 -7.31847 L -51.0075 -9.41435 Z "/>
<path transform="matrix(1,0,0,-1,132.807,99.621997)" stroke-width="1" stroke-linecap="butt" stroke-miterlimit="10" stroke-linejoin="miter" fill="none" stroke="#dbedff" d="M -38.35909 -7.54053 L -44.6833 -9.48837 L -41.69417 -16.5804 L -35.36995 -14.63254 Z "/>
<path transform="matrix(1,0,0,-1,132.807,99.621997)" stroke-width="1" stroke-linecap="butt" stroke-miterlimit="10" stroke-linejoin="miter" fill="none" stroke="#53aaff" d="M -69.63422 17.04892 L -75.95844 23.18858 L -72.9693 12.05281 L -66.64508 5.91315 Z "/>
<path transform="matrix(1,0,0,-1,132.807,99.621997)" stroke-width="1" stroke-linecap="butt" stroke-miterlimit="10" stroke-linejoin="miter" fill="none" stroke="#d0e8ff" d="M -22.72151 -4.67117 L -29.04573 -10.6628 L -26.0566 -15.73291 L -19.73238 -9.74132 Z "/>
<path transform="matrix(1,0,0,-1,132.807,99.621997)" stroke-width="1" stroke-linecap="butt" stroke-miterlimit="10" stroke-linejoin="miter" fill="none" stroke="#3e61ff" d="M -85.27179 44.50768 L -91.59602 54.69109 L -88.60689 41.53346 L -82.28265 31.35005 Z "/>
<path transform="matrix(1,0,0,-1,132.807,99.621997)" stroke-width="1" stroke-linecap="butt" stroke-miterlimit="10" stroke-linejoin="miter" fill="none" stroke="#92c9ff" d="M -7.08394 8.30751 L -13.40816 -1.72784 L -10.41902 -4.77611 L -4.0948 5.25925 Z "/>
<path transform="matrix(1,0,0,-1,132.807,99.621997)" stroke-width="1" stroke-linecap="butt" stroke-miterlimit="10" stroke-linejoin="miter" fill="none" stroke="#1f90ff" d="M 8.55362 31.39557 L 2.2294 17.31645 L 5.21854 16.29007 L 11.54276 30.36919 Z "/>
<path transform="matrix(1,0,0,-1,132.807,99.621997)" stroke-width="1" stroke-linecap="butt" stroke-miterlimit="10" stroke-linejoin="miter" fill="none" stroke="#9cceff" d="M -60.32086 1.7954 L -66.64508 5.91315 L -63.65594 -3.20071 L -57.33173 -7.31847 Z "/>
<path transform="matrix(1,0,0,-1,132.807,99.621997)" stroke-width="1" stroke-linecap="butt" stroke-miterlimit="10" stroke-linejoin="miter" fill="none" stroke="#dbedff" d="M -44.6833 -9.48837 L -51.0075 -9.41435 L -48.01837 -16.50636 L -41.69417 -16.5804 Z "/>
<path transform="matrix(1,0,0,-1,132.807,99.621997)" stroke-width="1" stroke-linecap="butt" stroke-miterlimit="10" stroke-linejoin="miter" fill="none" stroke="#2a95ff" d="M -75.95844 23.18858 L -82.28265 31.35005 L -79.29353 20.2143 L -72.9693 12.05281 Z "/>
<path transform="matrix(1,0,0,-1,132.807,99.621997)" stroke-width="1" stroke-linecap="butt" stroke-miterlimit="10" stroke-linejoin="miter" fill="none" stroke="#e5f2ff" d="M -29.04573 -10.6628 L -35.36995 -14.63254 L -32.38081 -19.70267 L -26.0566 -15.73291 Z "/>
<path transform="matrix(1,0,0,-1,132.807,99.621997)" stroke-width="1" stroke-linecap="butt" stroke-miterlimit="10" stroke-linejoin="miter" fill="none" stroke="#7d41ff" d="M -91.59602 54.69109 L -97.92024 66.89636 L -94.9311 53.73874 L -88.60689 41.53346 Z "/>
<path transform="matrix(1,0,0,-1,132.807,99.621997)" stroke-width="1" stroke-linecap="butt" stroke-miterlimit="10" stroke-linejoin="miter" fill="none" stroke="#bbddff" d="M -13.40816 -1.72784 L -19.73238 -9.74132 L -16.74324 -12.78957 L -10.41902 -4.77611 Z "/>
<path transform="matrix(1,0,0,-1,132.807,99.621997)" stroke-width="1" stroke-linecap="butt" stroke-miterlimit="10" stroke-linejoin="miter" fill="none" stroke="#5eafff" d="M 2.2294 17.31645 L -4.0948 5.25925 L -1.10567 4.23286 L 5.21854 16.29007 Z "/>
<path transform="matrix(1,0,0,-1,132.807,99.621997)" stroke-width="1" stroke-linecap="butt" stroke-miterlimit="10" stroke-linejoin="miter" fill="none" stroke="#d0e8ff" d="M -51.0075 -9.41435 L -57.33173 -7.31847 L -54.34259 -14.41048 L -48.01837 -16.50636 Z "/>
<path transform="matrix(1,0,0,-1,132.807,99.621997)" stroke-width="1" stroke-linecap="butt" stroke-miterlimit="10" stroke-linejoin="miter" fill="none" stroke="#7dbeff" d="M -66.64508 5.91315 L -72.9693 12.05281 L -69.98018 2.93895 L -63.65594 -3.20071 Z "/>
<path transform="matrix(1,0,0,-1,132.807,99.621997)" stroke-width="1" stroke-linecap="butt" stroke-miterlimit="10" stroke-linejoin="miter" fill="none" stroke="#eff7ff" d="M -35.36995 -14.63254 L -41.69417 -16.5804 L -38.70503 -21.65051 L -32.38081 -19.70267 Z "/>
<path transform="matrix(1,0,0,-1,132.807,99.621997)" stroke-width="1" stroke-linecap="butt" stroke-miterlimit="10" stroke-linejoin="miter" fill="none" stroke="#0a7bff" d="M -82.28265 31.35005 L -88.60689 41.53346 L -85.61775 30.3977 L -79.29353 20.2143 Z "/>
<path transform="matrix(1,0,0,-1,132.807,99.621997)" stroke-width="1" stroke-linecap="butt" stroke-miterlimit="10" stroke-linejoin="miter" fill="none" stroke="#dbedff" d="M -19.73238 -9.74132 L -26.0566 -15.73291 L -23.06746 -18.78119 L -16.74324 -12.78957 Z "/>
<path transform="matrix(1,0,0,-1,132.807,99.621997)" stroke-width="1" stroke-linecap="butt" stroke-miterlimit="10" stroke-linejoin="miter" fill="none" stroke="#92c9ff" d="M -4.0948 5.25925 L -10.41902 -4.77611 L -7.42989 -5.80249 L -1.10567 4.23286 Z "/>
<path transform="matrix(1,0,0,-1,132.807,99.621997)" stroke-width="1" stroke-linecap="butt" stroke-miterlimit="10" stroke-linejoin="miter" fill="none" stroke="#158aff" d="M 11.54276 30.36919 L 5.21854 16.29007 L 8.20767 17.28555 L 14.53188 31.36465 Z "/>
<path transform="matrix(1,0,0,-1,132.807,99.621997)" stroke-width="1" stroke-linecap="butt" stroke-miterlimit="10" stroke-linejoin="miter" fill="none" stroke="#bbddff" d="M -57.33173 -7.31847 L -63.65594 -3.20071 L -60.66681 -10.29272 L -54.34259 -14.41048 Z "/>
<path transform="matrix(1,0,0,-1,132.807,99.621997)" stroke-width="1" stroke-linecap="butt" stroke-miterlimit="10" stroke-linejoin="miter" fill="none" stroke="#eff7ff" d="M -41.69417 -16.5804 L -48.01837 -16.50636 L -45.02924 -21.57649 L -38.70503 -21.65051 Z "/>
<path transform="matrix(1,0,0,-1,132.807,99.621997)" stroke-width="1" stroke-linecap="butt" stroke-miterlimit="10" stroke-linejoin="miter" fill="none" stroke="#53aaff" d="M -72.9693 12.05281 L -79.29353 20.2143 L -76.3044 11.10042 L -69.98018 2.93895 Z "/>
<path transform="matrix(1,0,0,-1,132.807,99.621997)" stroke-width="1" stroke-linecap="butt" stroke-miterlimit="10" stroke-linejoin="miter" fill="none" stroke="#eff7ff" d="M -26.0566 -15.73291 L -32.38081 -19.70267 L -29.39168 -22.75093 L -23.06746 -18.78119 Z "/>
<path transform="matrix(1,0,0,-1,132.807,99.621997)" stroke-width="1" stroke-linecap="butt" stroke-miterlimit="10" stroke-linejoin="miter" fill="none" stroke="#495cff" d="M -88.60689 41.53346 L -94.9311 53.73874 L -91.94197 42.60297 L -85.61775 30.3977 Z "/>
<path transform="matrix(1,0,0,-1,132.807,99.621997)" stroke-width="1" stroke-linecap="butt" stroke-miterlimit="10" stroke-linejoin="miter" fill="none" stroke="#bbddff" d="M -10.41902 -4.77611 L -16.74324 -12.78957 L -13.7541 -13.81596 L -7.42989 -5.80249 Z "/>
<path transform="matrix(1,0,0,-1,132.807,99.621997)" stroke-width="1" stroke-linecap="butt" stroke-miterlimit="10" stroke-linejoin="miter" fill="none" stroke="#53aaff" d="M 5.21854 16.29007 L -1.10567 4.23286 L 1.88345 5.22835 L 8.20767 17.28555 Z "/>
<path transform="matrix(1,0,0,-1,132.807,99.621997)" stroke-width="1" stroke-linecap="butt" stroke-miterlimit="10" stroke-linejoin="miter" fill="none" stroke="#e5f2ff" d="M -48.01837 -16.50636 L -54.34259 -14.41048 L -51.35345 -19.4806 L -45.02924 -21.57649 Z "/>
<path transform="matrix(1,0,0,-1,132.807,99.621997)" stroke-width="1" stroke-linecap="butt" stroke-miterlimit="10" stroke-linejoin="miter" fill="none" stroke="#9cceff" d="M -63.65594 -3.20071 L -69.98018 2.93895 L -66.99104 -4.15306 L -60.66681 -10.29272 Z "/>
<path transform="matrix(1,0,0,-1,132.807,99.621997)" stroke-width="1" stroke-linecap="butt" stroke-miterlimit="10" stroke-linejoin="miter" fill="none" stroke="#fafcff" d="M -32.38081 -19.70267 L -38.70503 -21.65051 L -35.7159 -24.69876 L -29.39168 -22.75093 Z "/>
<path transform="matrix(1,0,0,-1,132.807,99.621997)" stroke-width="1" stroke-linecap="butt" stroke-miterlimit="10" stroke-linejoin="miter" fill="none" stroke="#1f90ff" d="M -79.29353 20.2143 L -85.61775 30.3977 L -82.62862 21.28383 L -76.3044 11.10042 Z "/>
<path transform="matrix(1,0,0,-1,132.807,99.621997)" stroke-width="1" stroke-linecap="butt" stroke-miterlimit="10" stroke-linejoin="miter" fill="none" stroke="#dbedff" d="M -16.74324 -12.78957 L -23.06746 -18.78119 L -20.07832 -19.80756 L -13.7541 -13.81596 Z "/>
<path transform="matrix(1,0,0,-1,132.807,99.621997)" stroke-width="1" stroke-linecap="butt" stroke-miterlimit="10" stroke-linejoin="miter" fill="none" stroke="#87c3ff" d="M -1.10567 4.23286 L -7.42989 -5.80249 L -4.44075 -4.807 L 1.88345 5.22835 Z "/>
<path transform="matrix(1,0,0,-1,132.807,99.621997)" stroke-width="1" stroke-linecap="butt" stroke-miterlimit="10" stroke-linejoin="miter" fill="none" stroke="#0080ff" d="M 14.53188 31.36465 L 8.20767 17.28555 L 11.19681 20.3029 L 17.52101 34.38202 Z "/>
<path transform="matrix(1,0,0,-1,132.807,99.621997)" stroke-width="1" stroke-linecap="butt" stroke-miterlimit="10" stroke-linejoin="miter" fill="none" stroke="#d0e8ff" d="M -54.34259 -14.41048 L -60.66681 -10.29272 L -57.67769 -15.36285 L -51.35345 -19.4806 Z "/>
<path transform="matrix(1,0,0,-1,132.807,99.621997)" stroke-width="1" stroke-linecap="butt" stroke-miterlimit="10" stroke-linejoin="miter" fill="none" stroke="#fafcff" d="M -38.70503 -21.65051 L -45.02924 -21.57649 L -42.0401 -24.62476 L -35.7159 -24.69876 Z "/>
<path transform="matrix(1,0,0,-1,132.807,99.621997)" stroke-width="1" stroke-linecap="butt" stroke-miterlimit="10" stroke-linejoin="miter" fill="none" stroke="#73b9ff" d="M -69.98018 2.93895 L -76.3044 11.10042 L -73.31526 4.00839 L -66.99104 -4.15306 Z "/>
<path transform="matrix(1,0,0,-1,132.807,99.621997)" stroke-width="1" stroke-linecap="butt" stroke-miterlimit="10" stroke-linejoin="miter" fill="none" stroke="#eff7ff" d="M -23.06746 -18.78119 L -29.39168 -22.75093 L -26.40254 -23.77731 L -20.07832 -19.80756 Z "/>
<path transform="matrix(1,0,0,-1,132.807,99.621997)" stroke-width="1" stroke-linecap="butt" stroke-miterlimit="10" stroke-linejoin="miter" fill="none" stroke="#1f70ff" d="M -85.61775 30.3977 L -91.94197 42.60297 L -88.95284 33.4891 L -82.62862 21.28383 Z "/>
<path transform="matrix(1,0,0,-1,132.807,99.621997)" stroke-width="1" stroke-linecap="butt" stroke-miterlimit="10" stroke-linejoin="miter" fill="none" stroke="#b1d8ff" d="M -7.42989 -5.80249 L -13.7541 -13.81596 L -10.76497 -12.82048 L -4.44075 -4.807 Z "/>
<path transform="matrix(1,0,0,-1,132.807,99.621997)" stroke-width="1" stroke-linecap="butt" stroke-miterlimit="10" stroke-linejoin="miter" fill="none" stroke="#3f9fff" d="M 8.20767 17.28555 L 1.88345 5.22835 L 4.87259 8.2457 L 11.19681 20.3029 Z "/>
<path transform="matrix(1,0,0,-1,132.807,99.621997)" stroke-width="1" stroke-linecap="butt" stroke-miterlimit="10" stroke-linejoin="miter" fill="none" stroke="#b1d8ff" d="M -60.66681 -10.29272 L -66.99104 -4.15306 L -64.0019 -9.22319 L -57.67769 -15.36285 Z "/>
<path transform="matrix(1,0,0,-1,132.807,99.621997)" stroke-width="1" stroke-linecap="butt" stroke-miterlimit="10" stroke-linejoin="miter" fill="none" stroke="#eff7ff" d="M -45.02924 -21.57649 L -51.35345 -19.4806 L -48.36433 -22.52888 L -42.0401 -24.62476 Z "/>
<path transform="matrix(1,0,0,-1,132.807,99.621997)" stroke-width="1" stroke-linecap="butt" stroke-miterlimit="10" stroke-linejoin="miter" fill="none" stroke="#3f9fff" d="M -76.3044 11.10042 L -82.62862 21.28383 L -79.63948 14.1918 L -73.31526 4.00839 Z "/>
<path transform="matrix(1,0,0,-1,132.807,99.621997)" stroke-width="1" stroke-linecap="butt" stroke-miterlimit="10" stroke-linejoin="miter" fill="none" stroke="#fafcff" d="M -29.39168 -22.75093 L -35.7159 -24.69876 L -32.72676 -25.72516 L -26.40254 -23.77731 Z "/>
<path transform="matrix(1,0,0,-1,132.807,99.621997)" stroke-width="1" stroke-linecap="butt" stroke-miterlimit="10" stroke-linejoin="miter" fill="none" stroke="#d0e8ff" d="M -13.7541 -13.81596 L -20.07832 -19.80756 L -17.08919 -18.81207 L -10.76497 -12.82048 Z "/>
<path transform="matrix(1,0,0,-1,132.807,99.621997)" stroke-width="1" stroke-linecap="butt" stroke-miterlimit="10" stroke-linejoin="miter" fill="none" stroke="#73b9ff" d="M 1.88345 5.22835 L -4.44075 -4.807 L -1.45161 -1.78966 L 4.87259 8.2457 Z "/>
<path transform="matrix(1,0,0,-1,132.807,99.621997)" stroke-width="1" stroke-linecap="butt" stroke-miterlimit="10" stroke-linejoin="miter" fill="none" stroke="#1f70ff" d="M 17.52101 34.38202 L 11.19681 20.3029 L 14.18593 25.34215 L 20.51013 39.42126 Z "/>
<path transform="matrix(1,0,0,-1,132.807,99.621997)" stroke-width="1" stroke-linecap="butt" stroke-miterlimit="10" stroke-linejoin="miter" fill="none" stroke="#dbedff" d="M -51.35345 -19.4806 L -57.67769 -15.36285 L -54.68855 -18.4111 L -48.36433 -22.52888 Z "/>
<path transform="matrix(1,0,0,-1,132.807,99.621997)" stroke-width="1" stroke-linecap="butt" stroke-miterlimit="10" stroke-linejoin="miter" fill="none" stroke="#87c3ff" d="M -66.99104 -4.15306 L -73.31526 4.00839 L -70.32613 -1.0617 L -64.0019 -9.22319 Z "/>
<path transform="matrix(1,0,0,-1,132.807,99.621997)" stroke-width="1" stroke-linecap="butt" stroke-miterlimit="10" stroke-linejoin="miter" fill="none" stroke="#fafcff" d="M -35.7159 -24.69876 L -42.0401 -24.62476 L -39.05096 -25.65114 L -32.72676 -25.72516 Z "/>
<path transform="matrix(1,0,0,-1,132.807,99.621997)" stroke-width="1" stroke-linecap="butt" stroke-miterlimit="10" stroke-linejoin="miter" fill="none" stroke="#0080ff" d="M -82.62862 21.28383 L -88.95284 33.4891 L -85.9637 26.39708 L -79.63948 14.1918 Z "/>
<path transform="matrix(1,0,0,-1,132.807,99.621997)" stroke-width="1" stroke-linecap="butt" stroke-miterlimit="10" stroke-linejoin="miter" fill="none" stroke="#e5f2ff" d="M -20.07832 -19.80756 L -26.40254 -23.77731 L -23.4134 -22.78183 L -17.08919 -18.81207 Z "/>
<path transform="matrix(1,0,0,-1,132.807,99.621997)" stroke-width="1" stroke-linecap="butt" stroke-miterlimit="10" stroke-linejoin="miter" fill="none" stroke="#9cceff" d="M -4.44075 -4.807 L -10.76497 -12.82048 L -7.77583 -9.80313 L -1.45161 -1.78966 Z "/>
<path transform="matrix(1,0,0,-1,132.807,99.621997)" stroke-width="1" stroke-linecap="butt" stroke-miterlimit="10" stroke-linejoin="miter" fill="none" stroke="#1f90ff" d="M 11.19681 20.3029 L 4.87259 8.2457 L 7.86171 13.28496 L 14.18593 25.34215 Z "/>
<path transform="matrix(1,0,0,-1,132.807,99.621997)" stroke-width="1" stroke-linecap="butt" stroke-miterlimit="10" stroke-linejoin="miter" fill="none" stroke="#bbddff" d="M -57.67769 -15.36285 L -64.0019 -9.22319 L -61.01277 -12.27145 L -54.68855 -18.4111 Z "/>
<path transform="matrix(1,0,0,-1,132.807,99.621997)" stroke-width="1" stroke-linecap="butt" stroke-miterlimit="10" stroke-linejoin="miter" fill="none" stroke="#eff7ff" d="M -42.0401 -24.62476 L -48.36433 -22.52888 L -45.3752 -23.55527 L -39.05096 -25.65114 Z "/>
<path transform="matrix(1,0,0,-1,132.807,99.621997)" stroke-width="1" stroke-linecap="butt" stroke-miterlimit="10" stroke-linejoin="miter" fill="none" stroke="#53aaff" d="M -73.31526 4.00839 L -79.63948 14.1918 L -76.65034 9.12167 L -70.32613 -1.0617 Z "/>
<path transform="matrix(1,0,0,-1,132.807,99.621997)" stroke-width="1" stroke-linecap="butt" stroke-miterlimit="10" stroke-linejoin="miter" fill="none" stroke="#eff7ff" d="M -26.40254 -23.77731 L -32.72676 -25.72516 L -29.73763 -24.72969 L -23.4134 -22.78183 Z "/>
<path transform="matrix(1,0,0,-1,132.807,99.621997)" stroke-width="1" stroke-linecap="butt" stroke-miterlimit="10" stroke-linejoin="miter" fill="none" stroke="#bbddff" d="M -10.76497 -12.82048 L -17.08919 -18.81207 L -14.10005 -15.79472 L -7.77583 -9.80313 Z "/>
<path transform="matrix(1,0,0,-1,132.807,99.621997)" stroke-width="1" stroke-linecap="butt" stroke-miterlimit="10" stroke-linejoin="miter" fill="none" stroke="#53aaff" d="M 4.87259 8.2457 L -1.45161 -1.78966 L 1.53749 3.24957 L 7.86171 13.28496 Z "/>
<path transform="matrix(1,0,0,-1,132.807,99.621997)" stroke-width="1" stroke-linecap="butt" stroke-miterlimit="10" stroke-linejoin="miter" fill="none" stroke="#495cff" d="M 20.51013 39.42126 L 14.18593 25.34215 L 17.17506 32.40326 L 23.49927 46.48236 Z "/>
<path transform="matrix(1,0,0,-1,132.807,99.621997)" stroke-width="1" stroke-linecap="butt" stroke-miterlimit="10" stroke-linejoin="miter" fill="none" stroke="#dbedff" d="M -48.36433 -22.52888 L -54.68855 -18.4111 L -51.69942 -19.4375 L -45.3752 -23.55527 Z "/>
<path transform="matrix(1,0,0,-1,132.807,99.621997)" stroke-width="1" stroke-linecap="butt" stroke-miterlimit="10" stroke-linejoin="miter" fill="none" stroke="#92c9ff" d="M -64.0019 -9.22319 L -70.32613 -1.0617 L -67.33699 -4.10997 L -61.01277 -12.27145 Z "/>
<path transform="matrix(1,0,0,-1,132.807,99.621997)" stroke-width="1" stroke-linecap="butt" stroke-miterlimit="10" stroke-linejoin="miter" fill="none" stroke="#eff7ff" d="M -32.72676 -25.72516 L -39.05096 -25.65114 L -36.06184 -24.65565 L -29.73763 -24.72969 Z "/>
<path transform="matrix(1,0,0,-1,132.807,99.621997)" stroke-width="1" stroke-linecap="butt" stroke-miterlimit="10" stroke-linejoin="miter" fill="none" stroke="#158aff" d="M -79.63948 14.1918 L -85.9637 26.39708 L -82.97456 21.32695 L -76.65034 9.12167 Z "/>
<path transform="matrix(1,0,0,-1,132.807,99.621997)" stroke-width="1" stroke-linecap="butt" stroke-miterlimit="10" stroke-linejoin="miter" fill="none" stroke="#d0e8ff" d="M -17.08919 -18.81207 L -23.4134 -22.78183 L -20.42427 -19.76448 L -14.10005 -15.79472 Z "/>
<path transform="matrix(1,0,0,-1,132.807,99.621997)" stroke-width="1" stroke-linecap="butt" stroke-miterlimit="10" stroke-linejoin="miter" fill="none" stroke="#7dbeff" d="M -1.45161 -1.78966 L -7.77583 -9.80313 L -4.78671 -4.76387 L 1.53749 3.24957 Z "/>
<path transform="matrix(1,0,0,-1,132.807,99.621997)" stroke-width="1" stroke-linecap="butt" stroke-miterlimit="10" stroke-linejoin="miter" fill="none" stroke="#0a7bff" d="M 14.18593 25.34215 L 7.86171 13.28496 L 10.85085 20.34605 L 17.17506 32.40326 Z "/>
<path transform="matrix(1,0,0,-1,132.807,99.621997)" stroke-width="1" stroke-linecap="butt" stroke-miterlimit="10" stroke-linejoin="miter" fill="none" stroke="#bbddff" d="M -54.68855 -18.4111 L -61.01277 -12.27145 L -58.02364 -13.29784 L -51.69942 -19.4375 Z "/>
<path transform="matrix(1,0,0,-1,132.807,99.621997)" stroke-width="1" stroke-linecap="butt" stroke-miterlimit="10" stroke-linejoin="miter" fill="none" stroke="#e5f2ff" d="M -39.05096 -25.65114 L -45.3752 -23.55527 L -42.38606 -22.55977 L -36.06184 -24.65565 Z "/>
<path transform="matrix(1,0,0,-1,132.807,99.621997)" stroke-width="1" stroke-linecap="butt" stroke-miterlimit="10" stroke-linejoin="miter" fill="none" stroke="#5eafff" d="M -70.32613 -1.0617 L -76.65034 9.12167 L -73.66121 6.07343 L -67.33699 -4.10997 Z "/>
<path transform="matrix(1,0,0,-1,132.807,99.621997)" stroke-width="1" stroke-linecap="butt" stroke-miterlimit="10" stroke-linejoin="miter" fill="none" stroke="#dbedff" d="M -23.4134 -22.78183 L -29.73763 -24.72969 L -26.74849 -21.71233 L -20.42427 -19.76448 Z "/>
<path transform="matrix(1,0,0,-1,132.807,99.621997)" stroke-width="1" stroke-linecap="butt" stroke-miterlimit="10" stroke-linejoin="miter" fill="none" stroke="#9cceff" d="M -7.77583 -9.80313 L -14.10005 -15.79472 L -11.11093 -10.75548 L -4.78671 -4.76387 Z "/>
<path transform="matrix(1,0,0,-1,132.807,99.621997)" stroke-width="1" stroke-linecap="butt" stroke-miterlimit="10" stroke-linejoin="miter" fill="none" stroke="#2a95ff" d="M 7.86171 13.28496 L 1.53749 3.24957 L 4.52663 10.31067 L 10.85085 20.34605 Z "/>
<path transform="matrix(1,0,0,-1,132.807,99.621997)" stroke-width="1" stroke-linecap="butt" stroke-miterlimit="10" stroke-linejoin="miter" fill="none" stroke="#92c9ff" d="M -61.01277 -12.27145 L -67.33699 -4.10997 L -64.34785 -5.13637 L -58.02364 -13.29784 Z "/>
<path transform="matrix(1,0,0,-1,132.807,99.621997)" stroke-width="1" stroke-linecap="butt" stroke-miterlimit="10" stroke-linejoin="miter" fill="none" stroke="#d0e8ff" d="M -45.3752 -23.55527 L -51.69942 -19.4375 L -48.71028 -18.44202 L -42.38606 -22.55977 Z "/>
<path transform="matrix(1,0,0,-1,132.807,99.621997)" stroke-width="1" stroke-linecap="butt" stroke-miterlimit="10" stroke-linejoin="miter" fill="none" stroke="#7d41ff" d="M 23.49927 46.48236 L 17.17506 32.40326 L 20.1642 41.48625 L 26.4884 55.56537 Z "/>
<path transform="matrix(1,0,0,-1,132.807,99.621997)" stroke-width="1" stroke-linecap="butt" stroke-miterlimit="10" stroke-linejoin="miter" fill="none" stroke="#1f90ff" d="M -76.65034 9.12167 L -82.97456 21.32695 L -79.98543 18.27869 L -73.66121 6.07343 Z "/>
<path transform="matrix(1,0,0,-1,132.807,99.621997)" stroke-width="1" stroke-linecap="butt" stroke-miterlimit="10" stroke-linejoin="miter" fill="none" stroke="#dbedff" d="M -29.73763 -24.72969 L -36.06184 -24.65565 L -33.07271 -21.6383 L -26.74849 -21.71233 Z "/>
<path transform="matrix(1,0,0,-1,132.807,99.621997)" stroke-width="1" stroke-linecap="butt" stroke-miterlimit="10" stroke-linejoin="miter" fill="none" stroke="#b1d8ff" d="M -14.10005 -15.79472 L -20.42427 -19.76448 L -17.43515 -14.72522 L -11.11093 -10.75548 Z "/>
<path transform="matrix(1,0,0,-1,132.807,99.621997)" stroke-width="1" stroke-linecap="butt" stroke-miterlimit="10" stroke-linejoin="miter" fill="none" stroke="#53aaff" d="M 1.53749 3.24957 L -4.78671 -4.76387 L -1.79758 2.29721 L 4.52663 10.31067 Z "/>
<path transform="matrix(1,0,0,-1,132.807,99.621997)" stroke-width="1" stroke-linecap="butt" stroke-miterlimit="10" stroke-linejoin="miter" fill="none" stroke="#3e61ff" d="M 17.17506 32.40326 L 10.85085 20.34605 L 13.83998 29.42905 L 20.1642 41.48625 Z "/>
<path transform="matrix(1,0,0,-1,132.807,99.621997)" stroke-width="1" stroke-linecap="butt" stroke-miterlimit="10" stroke-linejoin="miter" fill="none" stroke="#b1d8ff" d="M -51.69942 -19.4375 L -58.02364 -13.29784 L -55.0345 -12.30237 L -48.71028 -18.44202 Z "/>
<path transform="matrix(1,0,0,-1,132.807,99.621997)" stroke-width="1" stroke-linecap="butt" stroke-miterlimit="10" stroke-linejoin="miter" fill="none" stroke="#5eafff" d="M -67.33699 -4.10997 L -73.66121 6.07343 L -70.67207 5.04703 L -64.34785 -5.13637 Z "/>
<path transform="matrix(1,0,0,-1,132.807,99.621997)" stroke-width="1" stroke-linecap="butt" stroke-miterlimit="10" stroke-linejoin="miter" fill="none" stroke="#d0e8ff" d="M -36.06184 -24.65565 L -42.38606 -22.55977 L -39.39693 -19.54242 L -33.07271 -21.6383 Z "/>
<path transform="matrix(1,0,0,-1,132.807,99.621997)" stroke-width="1" stroke-linecap="butt" stroke-miterlimit="10" stroke-linejoin="miter" fill="none" stroke="#bbddff" d="M -20.42427 -19.76448 L -26.74849 -21.71233 L -23.75938 -16.67308 L -17.43515 -14.72522 Z "/>
<path transform="matrix(1,0,0,-1,132.807,99.621997)" stroke-width="1" stroke-linecap="butt" stroke-miterlimit="10" stroke-linejoin="miter" fill="none" stroke="#73b9ff" d="M -4.78671 -4.76387 L -11.11093 -10.75548 L -8.1218 -3.6944 L -1.79758 2.29721 Z "/>
<path transform="matrix(1,0,0,-1,132.807,99.621997)" stroke-width="1" stroke-linecap="butt" stroke-miterlimit="10" stroke-linejoin="miter" fill="none" stroke="#0a7bff" d="M 10.85085 20.34605 L 4.52663 10.31067 L 7.51576 19.39368 L 13.83998 29.42905 Z "/>
<path transform="matrix(1,0,0,-1,132.807,99.621997)" stroke-width="1" stroke-linecap="butt" stroke-miterlimit="10" stroke-linejoin="miter" fill="none" stroke="#87c3ff" d="M -58.02364 -13.29784 L -64.34785 -5.13637 L -61.35872 -4.14087 L -55.0345 -12.30237 Z "/>
<path transform="matrix(1,0,0,-1,132.807,99.621997)" stroke-width="1" stroke-linecap="butt" stroke-miterlimit="10" stroke-linejoin="miter" fill="none" stroke="#bbddff" d="M -42.38606 -22.55977 L -48.71028 -18.44202 L -45.72115 -15.42467 L -39.39693 -19.54242 Z "/>
<path transform="matrix(1,0,0,-1,132.807,99.621997)" stroke-width="1" stroke-linecap="butt" stroke-miterlimit="10" stroke-linejoin="miter" fill="none" stroke="#1f90ff" d="M -73.66121 6.07343 L -79.98543 18.27869 L -76.99629 17.2523 L -70.67207 5.04703 Z "/>
<path transform="matrix(1,0,0,-1,132.807,99.621997)" stroke-width="1" stroke-linecap="butt" stroke-miterlimit="10" stroke-linejoin="miter" fill="none" stroke="#bbddff" d="M -26.74849 -21.71233 L -33.07271 -21.6383 L -30.08359 -16.59904 L -23.75938 -16.67308 Z "/>
<path transform="matrix(1,0,0,-1,132.807,99.621997)" stroke-width="1" stroke-linecap="butt" stroke-miterlimit="10" stroke-linejoin="miter" fill="none" stroke="#bb22ff" d="M 26.4884 55.56537 L 20.1642 41.48625 L 23.15334 52.59113 L 29.47754 66.67023 Z "/>
<path transform="matrix(1,0,0,-1,132.807,99.621997)" stroke-width="1" stroke-linecap="butt" stroke-miterlimit="10" stroke-linejoin="miter" fill="none" stroke="#87c3ff" d="M -11.11093 -10.75548 L -17.43515 -14.72522 L -14.44601 -7.66412 L -8.1218 -3.6944 Z "/>
<path transform="matrix(1,0,0,-1,132.807,99.621997)" stroke-width="1" stroke-linecap="butt" stroke-miterlimit="10" stroke-linejoin="miter" fill="none" stroke="#1f90ff" d="M 4.52663 10.31067 L -1.79758 2.29721 L 1.19154 11.3802 L 7.51576 19.39368 Z "/>
<path transform="matrix(1,0,0,-1,132.807,99.621997)" stroke-width="1" stroke-linecap="butt" stroke-miterlimit="10" stroke-linejoin="miter" fill="none" stroke="#7d41ff" d="M 20.1642 41.48625 L 13.83998 29.42905 L 16.82912 40.53392 L 23.15334 52.59113 Z "/>
<path transform="matrix(1,0,0,-1,132.807,99.621997)" stroke-width="1" stroke-linecap="butt" stroke-miterlimit="10" stroke-linejoin="miter" fill="none" stroke="#9cceff" d="M -48.71028 -18.44202 L -55.0345 -12.30237 L -52.04536 -9.28499 L -45.72115 -15.42467 Z "/>
<path transform="matrix(1,0,0,-1,132.807,99.621997)" stroke-width="1" stroke-linecap="butt" stroke-miterlimit="10" stroke-linejoin="miter" fill="none" stroke="#53aaff" d="M -64.34785 -5.13637 L -70.67207 5.04703 L -67.68294 6.04253 L -61.35872 -4.14087 Z "/>
<path transform="matrix(1,0,0,-1,132.807,99.621997)" stroke-width="1" stroke-linecap="butt" stroke-miterlimit="10" stroke-linejoin="miter" fill="none" stroke="#b1d8ff" d="M -33.07271 -21.6383 L -39.39693 -19.54242 L -36.4078 -14.50317 L -30.08359 -16.59904 Z "/>
<path transform="matrix(1,0,0,-1,132.807,99.621997)" stroke-width="1" stroke-linecap="butt" stroke-miterlimit="10" stroke-linejoin="miter" fill="none" stroke="#92c9ff" d="M -17.43515 -14.72522 L -23.75938 -16.67308 L -20.77025 -9.61197 L -14.44601 -7.66412 Z "/>
<path transform="matrix(1,0,0,-1,132.807,99.621997)" stroke-width="1" stroke-linecap="butt" stroke-miterlimit="10" stroke-linejoin="miter" fill="none" stroke="#3f9fff" d="M -1.79758 2.29721 L -8.1218 -3.6944 L -5.13266 5.3886 L 1.19154 11.3802 Z "/>
<path transform="matrix(1,0,0,-1,132.807,99.621997)" stroke-width="1" stroke-linecap="butt" stroke-miterlimit="10" stroke-linejoin="miter" fill="none" stroke="#495cff" d="M 13.83998 29.42905 L 7.51576 19.39368 L 10.5049 30.49854 L 16.82912 40.53392 Z "/>
<path transform="matrix(1,0,0,-1,132.807,99.621997)" stroke-width="1" stroke-linecap="butt" stroke-miterlimit="10" stroke-linejoin="miter" fill="none" stroke="#73b9ff" d="M -55.0345 -12.30237 L -61.35872 -4.14087 L -58.36958 -1.12352 L -52.04536 -9.28499 Z "/>
<path transform="matrix(1,0,0,-1,132.807,99.621997)" stroke-width="1" stroke-linecap="butt" stroke-miterlimit="10" stroke-linejoin="miter" fill="none" stroke="#9cceff" d="M -39.39693 -19.54242 L -45.72115 -15.42467 L -42.73203 -10.3854 L -36.4078 -14.50317 Z "/>
<path transform="matrix(1,0,0,-1,132.807,99.621997)" stroke-width="1" stroke-linecap="butt" stroke-miterlimit="10" stroke-linejoin="miter" fill="none" stroke="#158aff" d="M -70.67207 5.04703 L -76.99629 17.2523 L -74.00716 18.24777 L -67.68294 6.04253 Z "/>
<path transform="matrix(1,0,0,-1,132.807,99.621997)" stroke-width="1" stroke-linecap="butt" stroke-miterlimit="10" stroke-linejoin="miter" fill="none" stroke="#92c9ff" d="M -23.75938 -16.67308 L -30.08359 -16.59904 L -27.09445 -9.53796 L -20.77025 -9.61197 Z "/>
<path transform="matrix(1,0,0,-1,132.807,99.621997)" stroke-width="1" stroke-linecap="butt" stroke-miterlimit="10" stroke-linejoin="miter" fill="none" stroke="#53aaff" d="M -8.1218 -3.6944 L -14.44601 -7.66412 L -11.4569 1.41885 L -5.13266 5.3886 Z "/>
<path transform="matrix(1,0,0,-1,132.807,99.621997)" stroke-width="1" stroke-linecap="butt" stroke-miterlimit="10" stroke-linejoin="miter" fill="none" stroke="#1f70ff" d="M 7.51576 19.39368 L 1.19154 11.3802 L 4.18068 22.48509 L 10.5049 30.49854 Z "/>
<path transform="matrix(1,0,0,-1,132.807,99.621997)" stroke-width="1" stroke-linecap="butt" stroke-miterlimit="10" stroke-linejoin="miter" fill="none" stroke="#3f9fff" d="M -61.35872 -4.14087 L -67.68294 6.04253 L -64.6938 9.05988 L -58.36958 -1.12352 Z "/>
<path transform="matrix(1,0,0,-1,132.807,99.621997)" stroke-width="1" stroke-linecap="butt" stroke-miterlimit="10" stroke-linejoin="miter" fill="none" stroke="#7dbeff" d="M -45.72115 -15.42467 L -52.04536 -9.28499 L -49.05624 -4.24576 L -42.73203 -10.3854 Z "/>
<path transform="matrix(1,0,0,-1,132.807,99.621997)" stroke-width="1" stroke-linecap="butt" stroke-miterlimit="10" stroke-linejoin="miter" fill="none" stroke="#87c3ff" d="M -30.08359 -16.59904 L -36.4078 -14.50317 L -33.41867 -7.44208 L -27.09445 -9.53796 Z "/>
<path transform="matrix(1,0,0,-1,132.807,99.621997)" stroke-width="1" stroke-linecap="butt" stroke-miterlimit="10" stroke-linejoin="miter" fill="none" stroke="#5eafff" d="M -14.44601 -7.66412 L -20.77025 -9.61197 L -17.78111 -.52898 L -11.4569 1.41885 Z "/>
<path transform="matrix(1,0,0,-1,132.807,99.621997)" stroke-width="1" stroke-linecap="butt" stroke-miterlimit="10" stroke-linejoin="miter" fill="none" stroke="#0080ff" d="M 1.19154 11.3802 L -5.13266 5.3886 L -2.14354 16.49347 L 4.18068 22.48509 Z "/>
<path transform="matrix(1,0,0,-1,132.807,99.621997)" stroke-width="1" stroke-linecap="butt" stroke-miterlimit="10" stroke-linejoin="miter" fill="none" stroke="#53aaff" d="M -52.04536 -9.28499 L -58.36958 -1.12352 L -55.38046 3.9157 L -49.05624 -4.24576 Z "/>
<path transform="matrix(1,0,0,-1,132.807,99.621997)" stroke-width="1" stroke-linecap="butt" stroke-miterlimit="10" stroke-linejoin="miter" fill="none" stroke="#0080ff" d="M -67.68294 6.04253 L -74.00716 18.24777 L -71.01802 21.26514 L -64.6938 9.05988 Z "/>
<path transform="matrix(1,0,0,-1,132.807,99.621997)" stroke-width="1" stroke-linecap="butt" stroke-miterlimit="10" stroke-linejoin="miter" fill="none" stroke="#73b9ff" d="M -36.4078 -14.50317 L -42.73203 -10.3854 L -39.74289 -3.32431 L -33.41867 -7.44208 Z "/>
<path transform="matrix(1,0,0,-1,132.807,99.621997)" stroke-width="1" stroke-linecap="butt" stroke-miterlimit="10" stroke-linejoin="miter" fill="none" stroke="#5eafff" d="M -20.77025 -9.61197 L -27.09445 -9.53796 L -24.10532 -.45496 L -17.78111 -.52898 Z "/>
<path transform="matrix(1,0,0,-1,132.807,99.621997)" stroke-width="1" stroke-linecap="butt" stroke-miterlimit="10" stroke-linejoin="miter" fill="none" stroke="#158aff" d="M -5.13266 5.3886 L -11.4569 1.41885 L -8.46776 12.52373 L -2.14354 16.49347 Z "/>
<path transform="matrix(1,0,0,-1,132.807,99.621997)" stroke-width="1" stroke-linecap="butt" stroke-miterlimit="10" stroke-linejoin="miter" fill="none" stroke="#1f90ff" d="M -58.36958 -1.12352 L -64.6938 9.05988 L -61.70468 14.0991 L -55.38046 3.9157 Z "/>
<path transform="matrix(1,0,0,-1,132.807,99.621997)" stroke-width="1" stroke-linecap="butt" stroke-miterlimit="10" stroke-linejoin="miter" fill="none" stroke="#53aaff" d="M -42.73203 -10.3854 L -49.05624 -4.24576 L -46.06711 2.81532 L -39.74289 -3.32431 Z "/>
<path transform="matrix(1,0,0,-1,132.807,99.621997)" stroke-width="1" stroke-linecap="butt" stroke-miterlimit="10" stroke-linejoin="miter" fill="none" stroke="#53aaff" d="M -27.09445 -9.53796 L -33.41867 -7.44208 L -30.42953 1.64091 L -24.10532 -.45496 Z "/>
<path transform="matrix(1,0,0,-1,132.807,99.621997)" stroke-width="1" stroke-linecap="butt" stroke-miterlimit="10" stroke-linejoin="miter" fill="none" stroke="#1f90ff" d="M -11.4569 1.41885 L -17.78111 -.52898 L -14.79198 10.57587 L -8.46776 12.52373 Z "/>
<path transform="matrix(1,0,0,-1,132.807,99.621997)" stroke-width="1" stroke-linecap="butt" stroke-miterlimit="10" stroke-linejoin="miter" fill="none" stroke="#2a95ff" d="M -49.05624 -4.24576 L -55.38046 3.9157 L -52.39133 10.9768 L -46.06711 2.81532 Z "/>
<path transform="matrix(1,0,0,-1,132.807,99.621997)" stroke-width="1" stroke-linecap="butt" stroke-miterlimit="10" stroke-linejoin="miter" fill="none" stroke="#1f70ff" d="M -64.6938 9.05988 L -71.01802 21.26514 L -68.0289 26.30438 L -61.70468 14.0991 Z "/>
<path transform="matrix(1,0,0,-1,132.807,99.621997)" stroke-width="1" stroke-linecap="butt" stroke-miterlimit="10" stroke-linejoin="miter" fill="none" stroke="#3f9fff" d="M -33.41867 -7.44208 L -39.74289 -3.32431 L -36.75375 5.75867 L -30.42953 1.64091 Z "/>
<path transform="matrix(1,0,0,-1,132.807,99.621997)" stroke-width="1" stroke-linecap="butt" stroke-miterlimit="10" stroke-linejoin="miter" fill="none" stroke="#1f90ff" d="M -17.78111 -.52898 L -24.10532 -.45496 L -21.11618 10.6499 L -14.79198 10.57587 Z "/>
<path transform="matrix(1,0,0,-1,132.807,99.621997)" stroke-width="1" stroke-linecap="butt" stroke-miterlimit="10" stroke-linejoin="miter" fill="none" stroke="#0a7bff" d="M -55.38046 3.9157 L -61.70468 14.0991 L -58.71555 21.16022 L -52.39133 10.9768 Z "/>
<path transform="matrix(1,0,0,-1,132.807,99.621997)" stroke-width="1" stroke-linecap="butt" stroke-miterlimit="10" stroke-linejoin="miter" fill="none" stroke="#1f90ff" d="M -39.74289 -3.32431 L -46.06711 2.81532 L -43.07797 11.89832 L -36.75375 5.75867 Z "/>
<path transform="matrix(1,0,0,-1,132.807,99.621997)" stroke-width="1" stroke-linecap="butt" stroke-miterlimit="10" stroke-linejoin="miter" fill="none" stroke="#158aff" d="M -24.10532 -.45496 L -30.42953 1.64091 L -27.4404 12.74577 L -21.11618 10.6499 Z "/>
<path transform="matrix(1,0,0,-1,132.807,99.621997)" stroke-width="1" stroke-linecap="butt" stroke-miterlimit="10" stroke-linejoin="miter" fill="none" stroke="#495cff" d="M -61.70468 14.0991 L -68.0289 26.30438 L -65.03976 33.3655 L -58.71555 21.16022 Z "/>
<path transform="matrix(1,0,0,-1,132.807,99.621997)" stroke-width="1" stroke-linecap="butt" stroke-miterlimit="10" stroke-linejoin="miter" fill="none" stroke="#0a7bff" d="M -46.06711 2.81532 L -52.39133 10.9768 L -49.40219 20.05981 L -43.07797 11.89832 Z "/>
<path transform="matrix(1,0,0,-1,132.807,99.621997)" stroke-width="1" stroke-linecap="butt" stroke-miterlimit="10" stroke-linejoin="miter" fill="none" stroke="#0080ff" d="M -30.42953 1.64091 L -36.75375 5.75867 L -33.76462 16.86354 L -27.4404 12.74577 Z "/>
<path transform="matrix(1,0,0,-1,132.807,99.621997)" stroke-width="1" stroke-linecap="butt" stroke-miterlimit="10" stroke-linejoin="miter" fill="none" stroke="#3e61ff" d="M -52.39133 10.9768 L -58.71555 21.16022 L -55.72641 30.24323 L -49.40219 20.05981 Z "/>
<path transform="matrix(1,0,0,-1,132.807,99.621997)" stroke-width="1" stroke-linecap="butt" stroke-miterlimit="10" stroke-linejoin="miter" fill="none" stroke="#1f70ff" d="M -36.75375 5.75867 L -43.07797 11.89832 L -40.08884 23.0032 L -33.76462 16.86354 Z "/>
<path transform="matrix(1,0,0,-1,132.807,99.621997)" stroke-width="1" stroke-linecap="butt" stroke-miterlimit="10" stroke-linejoin="miter" fill="none" stroke="#7d41ff" d="M -58.71555 21.16022 L -65.03976 33.3655 L -62.05064 42.44849 L -55.72641 30.24323 Z "/>
<path transform="matrix(1,0,0,-1,132.807,99.621997)" stroke-width="1" stroke-linecap="butt" stroke-miterlimit="10" stroke-linejoin="miter" fill="none" stroke="#495cff" d="M -43.07797 11.89832 L -49.40219 20.05981 L -46.41306 31.16469 L -40.08884 23.0032 Z "/>
<path transform="matrix(1,0,0,-1,132.807,99.621997)" stroke-width="1" stroke-linecap="butt" stroke-miterlimit="10" stroke-linejoin="miter" fill="none" stroke="#7d41ff" d="M -49.40219 20.05981 L -55.72641 30.24323 L -52.73729 41.3481 L -46.41306 31.16469 Z "/>
<path transform="matrix(1,0,0,-1,132.807,99.621997)" stroke-width="1" stroke-linecap="butt" stroke-miterlimit="10" stroke-linejoin="miter" fill="none" stroke="#bb22ff" d="M -55.72641 30.24323 L -62.05064 42.44849 L -59.06151 53.55336 L -52.73729 41.3481 Z "/>
<path transform="matrix(1,0,0,-1,132.807,99.621997)" stroke-width="1.59404" stroke-linecap="butt" stroke-miterlimit="10" stroke-linejoin="miter" fill="none" stroke="#000080" d="M 7.74646 14.19812 L 27.71736 52.30394 "/>
<path transform="matrix(.46498,-.8872,-.8872,-.46498,160.52436,47.318056)" d="M 3.78581 0 L -2.27148 3.02866 L 0 0 L -2.27148 -3.02866 " fill="#000080"/>
<path transform="matrix(1,0,0,-1,132.807,99.621997)" d="M 10.23715 14.19812 C 10.23715 15.5737 9.12204 16.68881 7.74646 16.68881 C 6.37088 16.68881 5.25577 15.5737 5.25577 14.19812 C 5.25577 12.82254 6.37088 11.70743 7.74646 11.70743 C 9.12204 11.70743 10.23715 12.82254 10.23715 14.19812 Z M 7.74646 14.19812 "/>
<path transform="matrix(1,0,0,-1,132.807,99.621997)" stroke-width="1" stroke-linecap="butt" stroke-miterlimit="10" stroke-linejoin="miter" fill="none" stroke="#000000" d="M 10.23715 14.19812 C 10.23715 15.5737 9.12204 16.68881 7.74646 16.68881 C 6.37088 16.68881 5.25577 15.5737 5.25577 14.19812 C 5.25577 12.82254 6.37088 11.70743 7.74646 11.70743 C 9.12204 11.70743 10.23715 12.82254 10.23715 14.19812 Z M 7.74646 14.19812 "/>
</g>
<path transform="matrix(1,0,0,-1,132.807,99.621997)" stroke-width="1" stroke-linecap="butt" stroke-miterlimit="10" stroke-linejoin="miter" fill="none" stroke="#808080" d="M 21.5535 -14.75734 L 25.06699 -17.15201 M -7.95961 -19.12943 L -4.44612 -21.5241 M -66.98586 -27.87361 L -63.47235 -30.26826 M -96.49898 -32.2457 L -92.98547 -34.64037 "/>
<path transform="matrix(1,0,0,-1,132.807,99.621997)" stroke-width="1" stroke-linecap="butt" stroke-miterlimit="10" stroke-linejoin="miter" fill="none" stroke="#808080" d="M -61.51144 -5.37265 L -65.71783 -5.99579 M -47.5621 -14.87996 L -51.76851 -15.50311 M -19.66344 -33.89459 L -23.86983 -34.51775 M -5.7141 -43.40192 L -9.9205 -44.02505 "/>
<path transform="matrix(1,0,0,-1,132.807,99.621997)" stroke-width="1" stroke-linecap="butt" stroke-miterlimit="10" stroke-linejoin="miter" fill="none" stroke="#000000" d="M 30.68854 -14.86166 L -100.14722 -34.24377 "/>
<path transform="matrix(-.99034,.1467,.1467,.99034,32.65979,133.86576)" d="M 1.99252 0 L -1.19551 1.59401 L 0 0 L -1.19551 -1.59401 "/>
<path transform="matrix(1,0,0,-1,132.807,99.621997)" stroke-width="1" stroke-linecap="butt" stroke-miterlimit="10" stroke-linejoin="miter" fill="none" stroke="#000000" d="M -66.40451 -3.78276 L -5.97763 -44.96735 "/>
<path transform="matrix(.82692,.5636,.5636,-.82692,126.82938,144.58933)" d="M 1.99252 0 L -1.19551 1.59401 L 0 0 L -1.19551 -1.59401 "/>
<symbol id="font_1_1">
<path d="M .63600006 0 C .65200009 0 .67600008 0 .67600008 .023999989 C .67600008 .048999996 .65300008 .048999996 .63600006 .048999996 L .04 .048999996 C .023999997 .048999996 0 .048999996 0 .025000006 C 0 0 .02300001 0 .04 0 L .63600006 0 Z "/>
</symbol>
<use xlink:href="#font_1_1" transform="matrix(6.9738,0,0,-6.9738,153.67118,121.55192)"/>
<symbol id="font_2_4">
<path d="M .49000005 .164 L .49000005 .2 L .379 .2 L .379 .646 C .379 .66700008 .379 .674 .35700003 .674 C .345 .674 .34100003 .674 .331 .66 L 0 .2 L 0 .164 L .294 .164 L .294 .082 C .294 .048 .294 .036000004 .213 .036000004 L .186 .036000004 L .186 0 C .236 .002 .3 .004 .33600004 .004 C .37300004 .004 .437 .002 .48700003 0 L .48700003 .036000004 L .46 .036000004 C .379 .036000004 .379 .048 .379 .082 L .379 .164 L .49000005 .164 M .301 .56600007 L .301 .2 L .037000006 .2 L .301 .56600007 Z "/>
</symbol>
<use xlink:href="#font_2_4" transform="matrix(6.9738,0,0,-6.9738,159.41597,123.128)"/>
<use xlink:href="#font_1_1" transform="matrix(6.9738,0,0,-6.9738,124.15818,125.92392)"/>
<symbol id="font_2_3">
<path d="M .442 .18200001 L .40800003 .18200001 C .40500004 .16000001 .39500005 .101 .38200004 .091000009 C .374 .085 .29700003 .085 .28300003 .085 L .099 .085 C .20400003 .178 .23900002 .20600002 .29900003 .25300003 C .37300004 .312 .442 .374 .442 .469 C .442 .59000006 .33600004 .66400006 .20800004 .66400006 C .084 .66400006 0 .577 0 .485 C 0 .43400003 .043000007 .42900003 .053000004 .42900003 C .077 .42900003 .10600001 .446 .10600001 .48200003 C .10600001 .5 .099 .535 .047000007 .535 C .078 .606 .146 .628 .19300002 .628 C .293 .628 .34500004 .55 .34500004 .469 C .34500004 .38200004 .28300003 .31300003 .25100003 .277 L .010000005 .039 C 0 .030000002 0 .028 0 0 L .41200004 0 L .442 .18200001 Z "/>
</symbol>
<use xlink:href="#font_2_3" transform="matrix(6.9738,0,0,-6.9738,130.07137,127.5)"/>
<use xlink:href="#font_2_3" transform="matrix(6.9738,0,0,-6.9738,67.50235,135.84699)"/>
<use xlink:href="#font_2_4" transform="matrix(6.9738,0,0,-6.9738,37.822988,140.219)"/>
<use xlink:href="#font_1_1" transform="matrix(6.9738,0,0,-6.9738,60.400175,112.84192)"/>
<use xlink:href="#font_2_4" transform="matrix(6.9738,0,0,-6.9738,66.14599,114.418)"/>
<use xlink:href="#font_1_1" transform="matrix(6.9738,0,0,-6.9738,74.34918,122.348918)"/>
<use xlink:href="#font_2_3" transform="matrix(6.9738,0,0,-6.9738,80.26235,123.924999)"/>
<use xlink:href="#font_2_3" transform="matrix(6.9738,0,0,-6.9738,106.425357,141.75699)"/>
<use xlink:href="#font_2_4" transform="matrix(6.9738,0,0,-6.9738,120.206989,151.26399)"/>
<path transform="matrix(1,0,0,-1,132.807,99.621997)" stroke-width="1" stroke-linecap="butt" stroke-miterlimit="10" stroke-linejoin="miter" fill="none" stroke="#808080" d="M -63.61465 -7.81027 L -63.61465 -3.5582 M -49.66531 -17.31758 L -49.66531 -13.06552 M -21.76665 -36.33221 L -21.76665 -32.08015 M -7.8173 -45.83954 L -7.8173 -41.58746 "/>
<path transform="matrix(1,0,0,-1,132.807,99.621997)" stroke-width="1" stroke-linecap="butt" stroke-miterlimit="10" stroke-linejoin="miter" fill="none" stroke="#808080" d="M -37.47273 31.53874 L -33.95923 29.14409 "/>
<path transform="matrix(1,0,0,-1,132.807,99.621997)" stroke-width="1" stroke-linecap="butt" stroke-miterlimit="10" stroke-linejoin="miter" fill="none" stroke="#000000" d="M -35.71597 -30.7533 L -35.71597 66.87709 "/>
<path transform="matrix(0,-1,-1,-0,97.091037,32.744905)" d="M 1.99252 0 L -1.19551 1.59401 L 0 0 L -1.19551 -1.59401 "/>
<symbol id="font_2_2">
<path d="M .22600001 .63600006 C .22600001 .66300007 .224 .66400006 .19600001 .66400006 C .132 .601 .041 .6 0 .6 L 0 .564 C .023999997 .564 .09000001 .564 .14500001 .592 L .14500001 .082 C .14500001 .049000004 .14500001 .036000004 .04500001 .036000004 L .0069999995 .036000004 L .0069999995 0 C .024999999 .001 .148 .004 .185 .004 C .21600002 .004 .34200005 .001 .36400003 0 L .36400003 .036000004 L .32600004 .036000004 C .22600001 .036000004 .22600001 .049000004 .22600001 .082 L .22600001 .63600006 Z "/>
</symbol>
<symbol id="font_2_1">
<path d="M .46400006 .33900003 C .46400006 .44900004 .45100004 .528 .40500004 .598 C .374 .644 .31200005 .684 .23200001 .684 C 0 .684 0 .41100005 0 .33900003 C 0 .26700003 0 0 .23200001 0 C .46400006 0 .46400006 .26700003 .46400006 .33900003 M .23200001 .028 C .186 .028 .125 .055 .105000007 .13700001 C .091000009 .19600001 .091000009 .27800004 .091000009 .35200004 C .091000009 .42500005 .091000009 .50100007 .106000009 .556 C .127 .635 .19100002 .656 .23200001 .656 C .286 .656 .338 .623 .356 .565 C .37200005 .51100006 .37300004 .43900005 .37300004 .35200004 C .37300004 .27800004 .37300004 .20400001 .36 .141 C .34000004 .050000006 .272 .028 .23200001 .028 Z "/>
</symbol>
<use xlink:href="#font_2_2" transform="matrix(6.9738,0,0,-6.9738,84.633159,68.612)"/>
<use xlink:href="#font_2_1" transform="matrix(6.9738,0,0,-6.9738,88.21072,68.75147)"/>
<path transform="matrix(1,0,0,-1,132.807,99.621997)" stroke-width="1" stroke-linecap="butt" stroke-miterlimit="10" stroke-linejoin="miter" fill="none" stroke="#808080" d="M 23.31026 -18.08072 L 23.31026 -13.82866 M -6.20285 -22.45282 L -6.20285 -18.20074 M -65.2291 -31.19699 L -65.2291 -26.94492 M -94.74222 -35.56908 L -94.74222 -31.31702 "/>
<path transform="matrix(1,0,0,-1,132.807,99.621997)" stroke-width="1" stroke-linecap="butt" stroke-miterlimit="10" stroke-linejoin="miter" fill="none" stroke="#808080" d="M -33.61276 30.65298 L -37.81917 30.02985 "/>
<symbol id="font_3_1">
<path d="M .201 .116000007 C .19100002 .082 .15800002 .028 .107 .028 C .10400001 .028 .07400001 .028 .053000004 .042000005 C .094000007 .055000005 .09700001 .091 .09700001 .097 C .09700001 .119 .080000009 .134 .057000005 .134 C .029000007 .134 0 .11 0 .073 C 0 .023000002 .056 0 .10500001 0 C .15100003 0 .192 .029000003 .21700001 .071 C .241 .018000002 .296 0 .336 0 C .451 0 .512 .125 .512 .15300001 C .512 .16600001 .49900005 .16600001 .49600003 .16600001 C .48200003 .16600001 .48100005 .16100002 .47700004 .14900002 C .456 .08 .39600004 .028 .34 .028 C .3 .028 .279 .055000005 .279 .093 C .279 .119 .303 .21000001 .331 .321 C .351 .398 .39600004 .423 .42900003 .423 C .43100003 .423 .46200005 .423 .483 .409 C .451 .4 .439 .372 .439 .354 C .439 .33200003 .456 .317 .479 .317 C .50200006 .317 .535 .336 .535 .37800003 C .535 .43400003 .47100006 .451 .43100003 .451 C .381 .451 .34100003 .418 .319 .38 C .301 .421 .255 .451 .199 .451 C .087000008 .451 .023000002 .328 .023000002 .298 C .023000002 .285 .037 .285 .040000008 .285 C .053000004 .285 .054000006 .289 .059000009 .30200003 C .084 .38 .14700002 .423 .19600001 .423 C .229 .423 .256 .405 .256 .357 C .256 .337 .24400002 .287 .23500002 .25300003 L .201 .116000007 Z "/>
</symbol>
<use xlink:href="#font_3_1" transform="matrix(6.9738,0,0,-6.9738,23.782748,136.72473)"/>
<symbol id="font_3_2">
<path d="M .50900009 .58100005 C .513 .595 .513 .597 .513 .60300007 C .513 .623 .49700005 .63500007 .48000003 .63500007 C .46900005 .63500007 .45000003 .63000008 .43900005 .611 C .43600003 .605 .42800004 .573 .42300005 .55300006 L .40200005 .47000004 C .39600004 .44600005 .36500005 .32000003 .36200003 .30900003 C .36100004 .30900003 .31700004 .22200002 .23900001 .22200002 C .171 .22200002 .171 .287 .171 .305 C .171 .35900004 .194 .42200003 .22400002 .499 C .23600002 .531 .24100001 .54300007 .24100001 .56 C .24100001 .60800006 .2 .64500007 .146 .64500007 C .045000007 .64500007 0 .509 0 .49200005 C 0 .47900004 .014000002 .47900004 .017 .47900004 C .031 .47900004 .032 .48400004 .035 .495 C .060000007 .578 .103 .61700007 .143 .61700007 C .16000001 .61700007 .168 .606 .168 .582 C .168 .559 .15900001 .537 .154 .52400007 C .106000009 .402 .096 .365 .096 .321 C .096 .30400003 .096 .25700004 .135 .22500001 C .16600001 .19900002 .20800002 .194 .235 .194 C .27500005 .194 .31100003 .209 .34400005 .23900001 C .33100004 .18400002 .32000003 .142 .27800004 .09200001 C .25100003 .061000006 .21100001 .027999998 .158 .027999998 C .15100001 .027999998 .104 .027999998 .083000008 .061000006 C .13700001 .067 .13700001 .11500001 .13700001 .116000007 C .13700001 .148 .107999999 .15400002 .098000008 .15400002 C .073 .15400002 .040000004 .134 .040000004 .08800001 C .040000004 .037 .088 0 .15900001 0 C .26000003 0 .38300003 .07800001 .41400004 .20300001 L .50900009 .58100005 Z "/>
</symbol>
<use xlink:href="#font_3_2" transform="matrix(6.9738,0,0,-6.9738,130.64478,151.94264)"/>
<symbol id="font_3_3">
<path d="M .10700001 .098000008 C .133 .124000009 .15100001 .143 .23600002 .21100001 C .25700004 .22800002 .33200003 .28800003 .361 .316 C .422 .37600003 .46000005 .42700003 .46000005 .439 C .46000005 .451 .44700004 .451 .44300003 .451 C .43400003 .451 .431 .449 .426 .441 C .39500005 .395 .374 .38 .35000003 .38 C .338 .38 .323 .381 .29299999 .41 C .259 .444 .237 .451 .214 .451 C .134 .451 .08 .364 .08 .334 C .08 .32500003 .09 .322 .097 .322 C .109 .322 .111 .32500003 .11500001 .336 C .13000001 .37100003 .186 .373 .202 .373 C .22500001 .373 .251 .367 .265 .364 C .32 .352 .32700003 .352 .352 .352 C .32600004 .32500003 .30800004 .307 .21300002 .23100002 C .135 .16900002 .10800001 .14400001 .089 .124000009 C .029 .065000008 0 .021000002 0 .012000001 C 0 0 .012999997 0 .016999998 0 C .027000003 0 .029 .0020000004 .034 .010000001 C .061000006 .048000006 .09200001 .071 .126 .071 C .13800001 .071 .15300001 .07 .18 .045 C .21100001 .015000001 .23100002 0 .263 0 C .37 0 .43700005 .12100001 .43700005 .15500002 C .43700005 .16700001 .426 .16800002 .42000003 .16800002 C .408 .16800002 .40600003 .16300002 .402 .15200001 C .38300003 .102000009 .324 .078 .27500005 .078 C .25200004 .078 .22700002 .083000008 .202 .089 C .156 .099 .148 .099 .13000001 .099 C .128 .099 .113000009 .099 .10700001 .098000008 Z "/>
</symbol>
<use xlink:href="#font_3_3" transform="matrix(6.9738,0,0,-6.9738,95.471408,28.338736)"/>
</svg>
