<?xml version="1.0" encoding="UTF-8" standalone="no"?>
<!DOCTYPE svg PUBLIC "-//W3C//DTD SVG 1.1//EN" "http://www.w3.org/Graphics/SVG/1.1/DTD/svg11.dtd">
<svg xmlns="http://www.w3.org/2000/svg" xmlns:xlink="http://www.w3.org/1999/xlink" version="1.1" width="200.902pt" height="137.915pt" viewBox="0 0 200.902 137.915">
<path transform="matrix(1,0,0,-1,64.042,77.59)" stroke-width="1.59404" stroke-linecap="butt" stroke-miterlimit="10" stroke-linejoin="miter" fill="none" stroke="#000080" d="M 31.18167 0 C 31.18167 12.5246 17.22137 22.67754 0 22.67754 C -17.22137 22.67754 -31.18167 12.5246 -31.18167 0 C -31.18167 -12.5246 -17.22137 -22.67754 0 -22.67754 C 17.22137 -22.67754 31.18167 -12.5246 31.18167 0 Z M 0 0 "/>
<path transform="matrix(1,0,0,-1,64.042,77.59)" stroke-width="1.59404" stroke-linecap="butt" stroke-miterlimit="10" stroke-linejoin="miter" fill="none" stroke="#000080" d="M 51.02434 0 C 51.02434 15.6557 31.98767 28.3468 8.50412 28.3468 C -14.97943 28.3468 -34.0161 15.6557 -34.0161 0 C -34.0161 -15.6557 -14.97943 -28.3468 8.50412 -28.3468 C 31.98767 -28.3468 51.02434 -15.6557 51.02434 0 Z M 8.50412 0 "/>
<path transform="matrix(1,0,0,-1,64.042,77.59)" stroke-width="1.59404" stroke-linecap="butt" stroke-miterlimit="10" stroke-linejoin="miter" fill="none" stroke="#000080" d="M 76.5363 0 C 76.5363 18.78679 51.15408 34.0161 19.84267 34.0161 C -11.46875 34.0161 -36.85095 18.78679 -36.85095 0 C -36.85095 -18.78679 -11.46875 -34.0161 19.84267 -34.0161 C 51.15408 -34.0161 76.5363 -18.78679 76.5363 0 Z M 19.84267 0 "/>
<path transform="matrix(1,0,0,-1,64.042,77.59)" stroke-width="1.59404" stroke-linecap="butt" stroke-miterlimit="10" stroke-linejoin="miter" fill="none" stroke="#000080" d="M 96.379 0 C 96.379 23.48355 65.92043 42.52022 28.3468 42.52022 C -9.2268 42.52022 -39.68538 23.48355 -39.68538 0 C -39.68538 -23.48355 -9.2268 -42.52022 28.3468 -42.52022 C 65.92043 -42.52022 96.379 -23.48355 96.379 0 Z M 28.3468 0 "/>
<path transform="matrix(1,0,0,-1,64.042,77.59)" stroke-width="1.59404" stroke-linecap="butt" stroke-miterlimit="10" stroke-linejoin="miter" fill="none" stroke="#000080" d="M 116.2221 0 C 116.2221 28.18033 80.68698 51.02435 36.85092 51.02435 C -6.98512 51.02435 -42.52025 28.18033 -42.52025 0 C -42.52025 -28.18033 -6.98512 -51.02435 36.85092 -51.02435 C 80.68698 -51.02435 116.2221 -28.18033 116.2221 0 Z M 36.85092 0 "/>
<path transform="matrix(1,0,0,-1,64.042,77.59)" stroke-width="1.59404" stroke-linecap="butt" stroke-miterlimit="10" stroke-linejoin="miter" fill="none" stroke="#000080" d="M 136.06479 0 C 136.06479 32.87709 95.4533 59.52847 45.35506 59.52847 C -4.74318 59.52847 -45.35468 32.87709 -45.35468 0 C -45.35468 -32.87709 -4.74318 -59.52847 45.35506 -59.52847 C 95.4533 -59.52847 136.06479 -32.87709 136.06479 0 Z M 45.35506 0 "/>
<path transform="matrix(1,0,0,-1,64.042,77.59)" d="M 11.38379 -23.218 L 22.632679 -23.218 L 22.632679 -10.7984709 L 11.38379 -10.7984709 Z " fill="#ffffff"/>
<symbol id="font_0_6">
<path d="M .433 .632 C .442 .64300009 .442 .64500007 .442 .66600009 L .19299999 .66600009 C .067 .66600009 .064 .679 .061000006 .6980001 L .033 .6980001 L 0 .48900003 L .027999998 .48900003 C .031999999 .512 .04 .568 .053000004 .58000007 C .060000004 .586 .139 .586 .153 .586 L .363 .586 L .267 .45500005 C .137 .27600003 .125 .113000009 .125 .056 C .125 .045 .125 0 .171 0 C .218 0 .218 .044000005 .218 .057000005 L .218 .106000009 C .218 .25300003 .24000001 .36900003 .293 .44100005 L .433 .632 Z "/>
</symbol>
<use xlink:href="#font_0_6" transform="matrix(8.9664,0,0,-8.9664,79.25709,97.684268)" fill="#000080"/>
<path transform="matrix(1,0,0,-1,64.042,77.59)" d="M 28.39163 -28.88728 L 39.64052 -28.88728 L 39.64052 -16.46775 L 28.39163 -16.46775 Z " fill="#ffffff"/>
<symbol id="font_0_5">
<path d="M .091000009 .35300005 C .091000009 .45500005 .10200001 .512 .12900001 .56400009 C .149 .605 .19800002 .66300007 .272 .66300007 C .292 .66300007 .338 .65900006 .361 .623 C .324 .623 .308 .60400006 .308 .577 C .308 .55100008 .326 .531 .354 .531 C .382 .531 .40100003 .549 .40100003 .57900008 C .40100003 .63500007 .361 .688 .27 .688 C .14100002 .688 0 .56100007 0 .33800004 C 0 .067 .12200001 0 .216 0 C .327 0 .42700003 .093 .42700003 .22500001 C .42700003 .35200004 .335 .44800005 .22200002 .44800005 C .16200002 .44800005 .119 .41300006 .091000009 .35300005 M .21500002 .028 C .158 .028 .12500002 .075 .113000009 .104 C .09400001 .149 .09300001 .23200001 .09300001 .24800001 C .09300001 .31500004 .12400001 .42300005 .22000002 .42300005 C .23600002 .42300005 .285 .42300005 .317 .36100004 C .336 .32300005 .336 .27400003 .336 .22600001 C .336 .178 .336 .12900001 .317 .092 C .286 .035000005 .24200003 .028 .21500002 .028 Z "/>
</symbol>
<use xlink:href="#font_0_5" transform="matrix(8.9664,0,0,-8.9664,96.13955,103.354259)" fill="#000080"/>
<path transform="matrix(1,0,0,-1,64.042,77.59)" d="M 45.39989 -34.55656 L 56.64878 -34.55656 L 56.64878 -22.137032 L 45.39989 -22.137032 Z " fill="#ffffff"/>
<symbol id="font_0_4">
<path d="M .053 .36700005 C .053 .34900005 .053 .33800004 .067 .33800004 C .075 .33800004 .07800001 .34200005 .08400001 .35100005 C .11400001 .39300005 .16200002 .41700004 .21400002 .41700004 C .321 .41700004 .321 .263 .321 .22700002 C .321 .19600001 .321 .134 .293 .089 C .266 .047000003 .224 .028 .18500002 .028 C .126 .028 .059000005 .065000008 .035 .13900002 C .036000004 .13900002 .042 .13700001 .049 .13700001 C .069000009 .13700001 .098000008 .15 .098000008 .186 C .098000008 .21700001 .076000008 .23500002 .049 .23500002 C .028 .23500002 0 .223 0 .18300002 C 0 .092 .076000008 0 .187 0 C .30800004 0 .411 .098000008 .411 .222 C .411 .34300003 .32500003 .44200004 .21600002 .44200004 C .16800002 .44200004 .119 .42600004 .08400001 .39000006 L .08400001 .587 C .11400001 .57800009 .14500001 .573 .17600002 .573 C .29900003 .573 .37100003 .66200008 .37100003 .6750001 C .37100003 .6840001 .365 .688 .36 .688 C .358 .688 .356 .688 .34700004 .683 C .3 .66400006 .254 .656 .21200001 .656 C .16900002 .656 .12400001 .66400006 .07800001 .683 C .068 .688 .066 .688 .065 .688 C .053 .688 .053 .67800006 .053 .6610001 L .053 .36700005 Z "/>
</symbol>
<use xlink:href="#font_0_4" transform="matrix(8.9664,0,0,-8.9664,113.219287,109.02325)" fill="#000080"/>
<path transform="matrix(1,0,0,-1,64.042,77.59)" d="M 62.40771 -40.22585 L 73.6566 -40.22585 L 73.6566 -27.80632 L 62.40771 -27.80632 Z " fill="#ffffff"/>
<symbol id="font_0_3">
<path d="M 0 .19600001 L 0 .165 L .273 .165 L .273 .079 C .273 .042000005 .27 .031000002 .19500001 .031000002 L .17300001 .031000002 L .17300001 0 C .23600002 .003 .306 .003 .313 .003 C .318 .003 .39000003 .003 .453 0 L .453 .031000002 L .431 .031000002 C .356 .031000002 .35300002 .042000005 .35300002 .079 L .35300002 .165 L .455 .165 L .455 .19600001 L .35300002 .19600001 L .35300002 .65000006 C .35300002 .67 .35300002 .67700007 .334 .67700007 C .322 .67700007 .321 .67600008 .312 .66200008 L 0 .19600001 M .032000007 .19600001 L .279 .56600007 L .279 .19600001 L .032000007 .19600001 Z "/>
</symbol>
<use xlink:href="#font_0_3" transform="matrix(8.9664,0,0,-8.9664,130.02902,114.494998)" fill="#000080"/>
<path transform="matrix(1,0,0,-1,64.042,77.59)" d="M 79.41599 -45.89511 L 90.66489 -45.89511 L 90.66489 -33.475584 L 79.41599 -33.475584 Z " fill="#ffffff"/>
<symbol id="font_0_2">
<path d="M .262 .37400005 C .35500003 .40900005 .39900003 .48200003 .39900003 .55100008 C .39900003 .628 .314 .688 .21000003 .688 C .106000009 .688 .028 .62900009 .028 .55300006 C .028 .52000007 .05 .50100007 .07900001 .50100007 C .10800001 .50100007 .12900001 .522 .12900001 .55100008 C .12900001 .586 .105000007 .6010001 .07100001 .6010001 C .097 .64300009 .158 .66300007 .207 .66300007 C .29 .66300007 .306 .59700009 .306 .55 C .306 .52000007 .3 .47200004 .275 .43400005 C .244 .38900004 .209 .38700003 .18 .38500003 C .15500002 .38300006 .15300001 .38300006 .14500001 .38300006 C .136 .38200004 .128 .38100005 .128 .37000004 C .128 .35700003 .136 .35700003 .15300001 .35700003 L .20000002 .35700003 C .287 .35700003 .32500003 .28700004 .32500003 .192 C .32500003 .064 .257 .028 .20600002 .028 C .187 .028 .09 .033000005 .045000007 .107 C .081 .102000009 .10900001 .127 .10900001 .16100002 C .10900001 .194 .08400001 .215 .055000005 .215 C .030000005 .215 0 .2 0 .158 C 0 .069000009 .09300001 0 .209 0 C .334 0 .42700003 .09 .42700003 .192 C .42700003 .279 .358 .35300005 .262 .37400005 Z "/>
</symbol>
<use xlink:href="#font_0_2" transform="matrix(8.9664,0,0,-8.9664,147.16257,120.36127)" fill="#000080"/>
<path transform="matrix(1,0,0,-1,64.042,77.59)" d="M 96.42422 -51.56482 L 107.67311 -51.56482 L 107.67311 -39.14529 L 96.42422 -39.14529 Z " fill="#ffffff"/>
<symbol id="font_0_1">
<path d="M .411 .177 L .38300003 .177 C .381 .164 .37300004 .105000007 .36 .089 C .35400004 .080000009 .28500004 .080000009 .26500003 .080000009 L .08700001 .080000009 L .18600002 .17400001 C .35000003 .316 .411 .36900003 .411 .47100003 C .411 .586 .316 .666 .19300002 .666 C .07800001 .666 0 .57500007 0 .48400004 C 0 .43400003 .043 .42900003 .052000006 .42900003 C .074 .42900003 .104 .44500003 .104 .48100005 C .104 .51100006 .083000008 .53300008 .052000006 .53300008 C .047000003 .53300008 .044000005 .53300008 .040000004 .532 C .063999999 .60300007 .128 .63500007 .18200001 .63500007 C .284 .63500007 .319 .54 .319 .47100003 C .319 .36900003 .24200002 .286 .194 .23400001 L .011 .036000004 C 0 .025 0 .023000002 0 0 L .38300003 0 L .411 .177 Z "/>
</symbol>
<use xlink:href="#font_0_1" transform="matrix(8.9664,0,0,-8.9664,164.2423,125.83399)" fill="#000080"/>
<path transform="matrix(1,0,0,-1,64.042,77.59)" d="M 107.71794 0 C 107.71794 1.56564 106.44875 2.83484 104.88309 2.83484 C 103.31744 2.83484 102.04825 1.56564 102.04825 0 C 102.04825 -1.56564 103.31744 -2.83484 104.88309 -2.83484 C 106.44875 -2.83484 107.71794 -1.56564 107.71794 0 Z M 104.88309 0 "/>
<path transform="matrix(1,0,0,-1,64.042,77.59)" stroke-width="1" stroke-linecap="butt" stroke-miterlimit="10" stroke-linejoin="miter" fill="none" stroke="#000000" d="M 107.71794 0 C 107.71794 1.56564 106.44875 2.83484 104.88309 2.83484 C 103.31744 2.83484 102.04825 1.56564 102.04825 0 C 102.04825 -1.56564 103.31744 -2.83484 104.88309 -2.83484 C 106.44875 -2.83484 107.71794 -1.56564 107.71794 0 Z M 104.88309 0 "/>
<path transform="matrix(1,0,0,-1,64.042,77.59)" d="M 39.68578 46.77203 C 39.68578 48.33769 38.41658 49.60689 36.85092 49.60689 C 35.28528 49.60689 34.01608 48.33769 34.01608 46.77203 C 34.01608 45.20639 35.28528 43.9372 36.85092 43.9372 C 38.41658 43.9372 39.68578 45.20639 39.68578 46.77203 Z M 36.85092 46.77203 "/>
<path transform="matrix(1,0,0,-1,64.042,77.59)" stroke-width="1" stroke-linecap="butt" stroke-miterlimit="10" stroke-linejoin="miter" fill="none" stroke="#000000" d="M 39.68578 46.77203 C 39.68578 48.33769 38.41658 49.60689 36.85092 49.60689 C 35.28528 49.60689 34.01608 48.33769 34.01608 46.77203 C 34.01608 45.20639 35.28528 43.9372 36.85092 43.9372 C 38.41658 43.9372 39.68578 45.20639 39.68578 46.77203 Z M 36.85092 46.77203 "/>
<path transform="matrix(1,0,0,-1,64.042,77.59)" d="M -34.01608 0 C -34.01608 1.56564 -35.28528 2.83484 -36.85092 2.83484 C -38.41658 2.83484 -39.68578 1.56564 -39.68578 0 C -39.68578 -1.56564 -38.41658 -2.83484 -36.85092 -2.83484 C -35.28528 -2.83484 -34.01608 -1.56564 -34.01608 0 Z M -36.85092 0 "/>
<path transform="matrix(1,0,0,-1,64.042,77.59)" stroke-width="1" stroke-linecap="butt" stroke-miterlimit="10" stroke-linejoin="miter" fill="none" stroke="#000000" d="M -34.01608 0 C -34.01608 1.56564 -35.28528 2.83484 -36.85092 2.83484 C -38.41658 2.83484 -39.68578 1.56564 -39.68578 0 C -39.68578 -1.56564 -38.41658 -2.83484 -36.85092 -2.83484 C -35.28528 -2.83484 -34.01608 -1.56564 -34.01608 0 Z M -36.85092 0 "/>
<symbol id="font_1_2">
<path d="M .11800001 .078 C .108 .039 .106 .031000002 .027000003 .031000002 C .009999998 .031000002 0 .031000002 0 .011000001 C 0 0 .009 0 .027000003 0 L .38400004 0 C .54200008 0 .66 .11800001 .66 .216 C .66 .28800003 .60200008 .34600003 .50500008 .35700003 C .609 .37600003 .71400007 .45000003 .71400007 .545 C .71400007 .619 .64800009 .683 .52800008 .683 L .192 .683 C .17300001 .683 .16300002 .683 .16300002 .66300007 C .16300002 .652 .17200002 .652 .19100002 .652 C .19300002 .652 .21200001 .652 .22900003 .65000006 C .24700001 .648 .256 .647 .256 .634 C .256 .63000008 .25500003 .62700006 .252 .615 L .11800001 .078 M .26900003 .36600004 L .33100004 .614 C .34000004 .64900007 .342 .652 .38500003 .652 L .51400008 .652 C .60200008 .652 .623 .59300008 .623 .549 C .623 .46100004 .53700008 .36600004 .41500003 .36600004 L .26900003 .36600004 M .224 .031000002 C .21000001 .031000002 .208 .031000002 .20200002 .032 C .192 .033 .18900001 .034 .18900001 .042000005 C .18900001 .045 .18900001 .047000003 .194 .065000008 L .263 .344 L .45200003 .344 C .54800006 .344 .56700006 .27 .56700006 .22700002 C .56700006 .128 .47800005 .031000002 .36 .031000002 L .224 .031000002 Z "/>
</symbol>
<use xlink:href="#font_1_2" transform="matrix(9.9626,0,0,-9.9626,3.7394284,80.99399)"/>
<symbol id="font_1_1">
<path d="M .14400001 .115 C .10400002 .048 .065 .034 .021000002 .031000002 C .009000003 .030000002 0 .030000002 0 .011000001 C 0 .0050000005 .0050000029 0 .013 0 C .040000004 0 .07100001 .003 .09900001 .003 C .13200002 .003 .16700001 0 .19900002 0 C .20500002 0 .21800003 0 .21800003 .019000002 C .21800003 .030000002 .20900002 .031000002 .20200002 .031000002 C .17900002 .033 .15500002 .041 .15500002 .066 C .15500002 .078 .16100002 .089 .16900002 .10300001 L .245 .231 L .49600003 .231 C .49800007 .21000001 .512 .074 .512 .064 C .512 .034 .46000005 .031000002 .44000004 .031000002 C .42600004 .031000002 .41600005 .031000002 .41600005 .011000001 C .41600005 0 .42800004 0 .43000005 0 C .47100006 0 .514 .003 .555 .003 C .58 .003 .643 0 .668 0 C .674 0 .686 0 .686 .020000002 C .686 .031000002 .676 .031000002 .663 .031000002 C .601 .031000002 .601 .038000004 .598 .067 L .537 .69200006 C .535 .712 .535 .716 .518 .716 C .502 .716 .49800007 .70900008 .492 .69900009 L .14400001 .115 M .26400004 .26200003 L .46100004 .592 L .493 .26200003 L .26400004 .26200003 Z "/>
</symbol>
<use xlink:href="#font_1_1" transform="matrix(9.9626,0,0,-9.9626,83.331699,10.128006)"/>
<symbol id="font_1_3">
<path d="M .71000006 .71700009 C .71000006 .72 .708 .72700008 .699 .72700008 C .69600006 .72700008 .69500008 .7260001 .684 .71500006 L .614 .6380001 C .605 .65200009 .559 .72700008 .448 .72700008 C .22500001 .72700008 0 .50600007 0 .27400003 C 0 .109000008 .118000019 0 .271 0 C .358 0 .43400003 .040000004 .487 .086 C .58000007 .16800002 .597 .25900004 .597 .26200003 C .597 .272 .587 .272 .58500006 .272 C .579 .272 .574 .27 .572 .26200003 C .563 .23300001 .54 .162 .47100003 .104 C .402 .048 .33900003 .031000004 .287 .031000004 C .19700001 .031000004 .091000009 .083000008 .091000009 .23900001 C .091000009 .29600004 .112 .45800004 .21200003 .57500007 C .273 .646 .367 .69600006 .45600004 .69600006 C .558 .69600006 .61700007 .619 .61700007 .503 C .61700007 .46300004 .614 .46200005 .614 .45200003 C .614 .44200004 .625 .44200004 .629 .44200004 C .642 .44200004 .642 .44400005 .647 .46200005 L .71000006 .71700009 Z "/>
</symbol>
<use xlink:href="#font_1_3" transform="matrix(9.9626,0,0,-9.9626,165.50511,74.289188)"/>
<path transform="matrix(1,0,0,-1,64.042,77.59)" stroke-width="1" stroke-linecap="butt" stroke-miterlimit="10" stroke-linejoin="miter" fill="none" stroke="#000000" d="M -51.02432 0 L -45.11046 0 "/>
<path transform="matrix(1,0,0,-1,18.931542,77.59)" d="M 2.59026 0 L -1.55415 2.0722 L 0 0 L -1.55415 -2.0722 "/>
<path transform="matrix(1,0,0,-1,64.042,77.59)" stroke-width="1" stroke-linecap="butt" stroke-miterlimit="10" stroke-linejoin="miter" fill="none" stroke="#000000" d="M 25.51193 65.19774 L 32.85767 50.50626 "/>
<path transform="matrix(.44722,.89442,.89442,-.44722,96.89967,27.083725)" d="M 2.59026 0 L -1.55415 2.0722 L 0 0 L -1.55415 -2.0722 "/>
</svg>
