<?xml version="1.0" encoding="UTF-8" standalone="no"?>
<!DOCTYPE svg PUBLIC "-//W3C//DTD SVG 1.1//EN" "http://www.w3.org/Graphics/SVG/1.1/DTD/svg11.dtd">
<svg xmlns="http://www.w3.org/2000/svg" xmlns:xlink="http://www.w3.org/1999/xlink" version="1.1" width="195.713pt" height="161.643pt" viewBox="0 0 195.713 161.643">
<clipPath id="cp0">
<path transform="matrix(1,0,0,-1,133.827,221.26201)" d="M -132.71555 101.803 L -132.71555 201.60102 L 0 221.26477 L 61.88649 179.08156 L 61.88649 79.28354 L -70.82906 59.61978 Z "/>
</clipPath>
<g clip-path="url(#cp0)">
<path transform="matrix(1,0,0,-1,133.827,221.26201)" stroke-width="1" stroke-linecap="butt" stroke-miterlimit="10" stroke-linejoin="miter" fill="none" stroke="#de10ff" d="M 0 203.20178 L -7.29205 204.77092 L -4.5718 207.34029 L 2.72025 205.77118 Z "/>
<path transform="matrix(1,0,0,-1,133.827,221.26201)" stroke-width="1" stroke-linecap="butt" stroke-miterlimit="10" stroke-linejoin="miter" fill="none" stroke="#e50dff" d="M -7.29205 204.77092 L -14.58412 205.18807 L -11.86386 207.75745 L -4.5718 207.34029 Z "/>
<path transform="matrix(1,0,0,-1,133.827,221.26201)" stroke-width="1" stroke-linecap="butt" stroke-miterlimit="10" stroke-linejoin="miter" fill="none" stroke="#ea0aff" d="M 2.72025 205.77118 L -4.5718 207.34029 L -1.8515 208.43515 L 5.44054 206.86603 Z "/>
<path transform="matrix(1,0,0,-1,133.827,221.26201)" stroke-width="1" stroke-linecap="butt" stroke-miterlimit="10" stroke-linejoin="miter" fill="none" stroke="#e80bff" d="M -14.58412 205.18807 L -21.87619 204.45322 L -19.15593 207.0226 L -11.86386 207.75745 Z "/>
<path transform="matrix(1,0,0,-1,133.827,221.26201)" stroke-width="1" stroke-linecap="butt" stroke-miterlimit="10" stroke-linejoin="miter" fill="none" stroke="#f107ff" d="M -4.5718 207.34029 L -11.86386 207.75745 L -9.14357 208.85231 L -1.8515 208.43515 Z "/>
<path transform="matrix(1,0,0,-1,133.827,221.26201)" stroke-width="1" stroke-linecap="butt" stroke-miterlimit="10" stroke-linejoin="miter" fill="none" stroke="#e70cff" d="M -21.87619 204.45322 L -29.16826 202.56642 L -26.448 205.1358 L -19.15593 207.0226 Z "/>
<path transform="matrix(1,0,0,-1,133.827,221.26201)" stroke-width="1" stroke-linecap="butt" stroke-miterlimit="10" stroke-linejoin="miter" fill="none" stroke="#f207ff" d="M 5.44054 206.86603 L -1.8515 208.43515 L .86876 208.0555 L 8.16081 206.48638 Z "/>
<path transform="matrix(1,0,0,-1,133.827,221.26201)" stroke-width="1" stroke-linecap="butt" stroke-miterlimit="10" stroke-linejoin="miter" fill="none" stroke="#f405ff" d="M -11.86386 207.75745 L -19.15593 207.0226 L -16.43564 208.11746 L -9.14357 208.85231 Z "/>
<path transform="matrix(1,0,0,-1,133.827,221.26201)" stroke-width="1" stroke-linecap="butt" stroke-miterlimit="10" stroke-linejoin="miter" fill="none" stroke="#e30eff" d="M -29.16826 202.56642 L -36.46033 199.52762 L -33.74007 202.09702 L -26.448 205.1358 Z "/>
<path transform="matrix(1,0,0,-1,133.827,221.26201)" stroke-width="1" stroke-linecap="butt" stroke-miterlimit="10" stroke-linejoin="miter" fill="none" stroke="#f903ff" d="M -1.8515 208.43515 L -9.14357 208.85231 L -6.4233 208.47266 L .86876 208.0555 Z "/>
<path transform="matrix(1,0,0,-1,133.827,221.26201)" stroke-width="1" stroke-linecap="butt" stroke-miterlimit="10" stroke-linejoin="miter" fill="none" stroke="#f406ff" d="M -19.15593 207.0226 L -26.448 205.1358 L -23.7277 206.23065 L -16.43564 208.11746 Z "/>
<path transform="matrix(1,0,0,-1,133.827,221.26201)" stroke-width="1" stroke-linecap="butt" stroke-miterlimit="10" stroke-linejoin="miter" fill="none" stroke="#da12ff" d="M -36.46033 199.52762 L -43.7524 195.33684 L -41.03214 197.90624 L -33.74007 202.09702 Z "/>
<path transform="matrix(1,0,0,-1,133.827,221.26201)" stroke-width="1" stroke-linecap="butt" stroke-miterlimit="10" stroke-linejoin="miter" fill="none" stroke="#f405ff" d="M 8.16081 206.48638 L .86876 208.0555 L 3.58904 206.20131 L 10.88109 204.6322 Z "/>
<path transform="matrix(1,0,0,-1,133.827,221.26201)" stroke-width="1" stroke-linecap="butt" stroke-miterlimit="10" stroke-linejoin="miter" fill="none" stroke="#fc02ff" d="M -9.14357 208.85231 L -16.43564 208.11746 L -13.71536 207.73781 L -6.4233 208.47266 Z "/>
<path transform="matrix(1,0,0,-1,133.827,221.26201)" stroke-width="1" stroke-linecap="butt" stroke-miterlimit="10" stroke-linejoin="miter" fill="none" stroke="#ef08ff" d="M -26.448 205.1358 L -33.74007 202.09702 L -31.01978 203.19185 L -23.7277 206.23065 Z "/>
<path transform="matrix(1,0,0,-1,133.827,221.26201)" stroke-width="1" stroke-linecap="butt" stroke-miterlimit="10" stroke-linejoin="miter" fill="none" stroke="#ce19ff" d="M -43.7524 195.33684 L -51.04446 189.9941 L -48.3242 192.56348 L -41.03214 197.90624 Z "/>
<path transform="matrix(1,0,0,-1,133.827,221.26201)" stroke-width="1" stroke-linecap="butt" stroke-miterlimit="10" stroke-linejoin="miter" fill="none" stroke="#fb02ff" d="M .86876 208.0555 L -6.4233 208.47266 L -3.70303 206.61847 L 3.58904 206.20131 Z "/>
<path transform="matrix(1,0,0,-1,133.827,221.26201)" stroke-width="1" stroke-linecap="butt" stroke-miterlimit="10" stroke-linejoin="miter" fill="none" stroke="#fb02ff" d="M -16.43564 208.11746 L -23.7277 206.23065 L -21.00745 205.851 L -13.71536 207.73781 Z "/>
<path transform="matrix(1,0,0,-1,133.827,221.26201)" stroke-width="1" stroke-linecap="butt" stroke-miterlimit="10" stroke-linejoin="miter" fill="none" stroke="#e70cff" d="M -33.74007 202.09702 L -41.03214 197.90624 L -38.31184 199.0011 L -31.01978 203.19185 Z "/>
<path transform="matrix(1,0,0,-1,133.827,221.26201)" stroke-width="1" stroke-linecap="butt" stroke-miterlimit="10" stroke-linejoin="miter" fill="none" stroke="#be21ff" d="M -51.04446 189.9941 L -58.33653 183.49938 L -55.61627 186.06877 L -48.3242 192.56348 Z "/>
<path transform="matrix(1,0,0,-1,133.827,221.26201)" stroke-width="1" stroke-linecap="butt" stroke-miterlimit="10" stroke-linejoin="miter" fill="none" stroke="#f207ff" d="M 10.88109 204.6322 L 3.58904 206.20131 L 6.3093 202.87264 L 13.60135 201.3035 Z "/>
<path transform="matrix(1,0,0,-1,133.827,221.26201)" stroke-width="1" stroke-linecap="butt" stroke-miterlimit="10" stroke-linejoin="miter" fill="none" stroke="#fe00ff" d="M -6.4233 208.47266 L -13.71536 207.73781 L -10.9951 205.88362 L -3.70303 206.61847 Z "/>
<path transform="matrix(1,0,0,-1,133.827,221.26201)" stroke-width="1" stroke-linecap="butt" stroke-miterlimit="10" stroke-linejoin="miter" fill="none" stroke="#f604ff" d="M -23.7277 206.23065 L -31.01978 203.19185 L -28.29951 202.8122 L -21.00745 205.851 Z "/>
<path transform="matrix(1,0,0,-1,133.827,221.26201)" stroke-width="1" stroke-linecap="butt" stroke-miterlimit="10" stroke-linejoin="miter" fill="none" stroke="#aa2bff" d="M -58.33653 183.49938 L -65.6286 175.85265 L -62.90834 178.42205 L -55.61627 186.06877 Z "/>
<path transform="matrix(1,0,0,-1,133.827,221.26201)" stroke-width="1" stroke-linecap="butt" stroke-miterlimit="10" stroke-linejoin="miter" fill="none" stroke="#da12ff" d="M -41.03214 197.90624 L -48.3242 192.56348 L -45.60393 193.65834 L -38.31184 199.0011 Z "/>
<path transform="matrix(1,0,0,-1,133.827,221.26201)" stroke-width="1" stroke-linecap="butt" stroke-miterlimit="10" stroke-linejoin="miter" fill="none" stroke="#f903ff" d="M 3.58904 206.20131 L -3.70303 206.61847 L -.98276 203.28977 L 6.3093 202.87264 Z "/>
<path transform="matrix(1,0,0,-1,133.827,221.26201)" stroke-width="1" stroke-linecap="butt" stroke-miterlimit="10" stroke-linejoin="miter" fill="none" stroke="#fd01ff" d="M -13.71536 207.73781 L -21.00745 205.851 L -18.28717 203.99681 L -10.9951 205.88362 Z "/>
<path transform="matrix(1,0,0,-1,133.827,221.26201)" stroke-width="1" stroke-linecap="butt" stroke-miterlimit="10" stroke-linejoin="miter" fill="none" stroke="#9237ff" d="M -65.6286 175.85265 L -72.92065 167.05399 L -70.20041 169.62339 L -62.90834 178.42205 Z "/>
<path transform="matrix(1,0,0,-1,133.827,221.26201)" stroke-width="1" stroke-linecap="butt" stroke-miterlimit="10" stroke-linejoin="miter" fill="none" stroke="#ee09ff" d="M -31.01978 203.19185 L -38.31184 199.0011 L -35.59158 198.62143 L -28.29951 202.8122 Z "/>
<path transform="matrix(1,0,0,-1,133.827,221.26201)" stroke-width="1" stroke-linecap="butt" stroke-miterlimit="10" stroke-linejoin="miter" fill="none" stroke="#ca1aff" d="M -48.3242 192.56348 L -55.61627 186.06877 L -52.896 187.16364 L -45.60393 193.65834 Z "/>
<path transform="matrix(1,0,0,-1,133.827,221.26201)" stroke-width="1" stroke-linecap="butt" stroke-miterlimit="10" stroke-linejoin="miter" fill="none" stroke="#ea0aff" d="M 13.60135 201.3035 L 6.3093 202.87264 L 9.02957 198.06941 L 16.32162 196.50028 Z "/>
<path transform="matrix(1,0,0,-1,133.827,221.26201)" stroke-width="1" stroke-linecap="butt" stroke-miterlimit="10" stroke-linejoin="miter" fill="none" stroke="#fc02ff" d="M -3.70303 206.61847 L -10.9951 205.88362 L -8.27483 202.55493 L -.98276 203.28977 Z "/>
<path transform="matrix(1,0,0,-1,133.827,221.26201)" stroke-width="1" stroke-linecap="butt" stroke-miterlimit="10" stroke-linejoin="miter" fill="none" stroke="#7744ff" d="M -72.92065 167.05399 L -80.21272 157.10334 L -77.49248 159.67273 L -70.20041 169.62339 Z "/>
<path transform="matrix(1,0,0,-1,133.827,221.26201)" stroke-width="1" stroke-linecap="butt" stroke-miterlimit="10" stroke-linejoin="miter" fill="none" stroke="#f903ff" d="M -21.00745 205.851 L -28.29951 202.8122 L -25.57924 200.95803 L -18.28717 203.99681 Z "/>
<path transform="matrix(1,0,0,-1,133.827,221.26201)" stroke-width="1" stroke-linecap="butt" stroke-miterlimit="10" stroke-linejoin="miter" fill="none" stroke="#b624ff" d="M -55.61627 186.06877 L -62.90834 178.42205 L -60.18806 179.5169 L -52.896 187.16364 Z "/>
<path transform="matrix(1,0,0,-1,133.827,221.26201)" stroke-width="1" stroke-linecap="butt" stroke-miterlimit="10" stroke-linejoin="miter" fill="none" stroke="#e20fff" d="M -38.31184 199.0011 L -45.60393 193.65834 L -42.88365 193.27867 L -35.59158 198.62143 Z "/>
<path transform="matrix(1,0,0,-1,133.827,221.26201)" stroke-width="1" stroke-linecap="butt" stroke-miterlimit="10" stroke-linejoin="miter" fill="none" stroke="#f107ff" d="M 6.3093 202.87264 L -.98276 203.28977 L 1.7375 198.48657 L 9.02957 198.06941 Z "/>
<path transform="matrix(1,0,0,-1,133.827,221.26201)" stroke-width="1" stroke-linecap="butt" stroke-miterlimit="10" stroke-linejoin="miter" fill="none" stroke="#5754ff" d="M -80.21272 157.10334 L -87.5048 146.00066 L -84.78455 148.57004 L -77.49248 159.67273 Z "/>
<path transform="matrix(1,0,0,-1,133.827,221.26201)" stroke-width="1" stroke-linecap="butt" stroke-miterlimit="10" stroke-linejoin="miter" fill="none" stroke="#fb02ff" d="M -10.9951 205.88362 L -18.28717 203.99681 L -15.5669 200.66812 L -8.27483 202.55493 Z "/>
<path transform="matrix(1,0,0,-1,133.827,221.26201)" stroke-width="1" stroke-linecap="butt" stroke-miterlimit="10" stroke-linejoin="miter" fill="none" stroke="#9f30ff" d="M -62.90834 178.42205 L -70.20041 169.62339 L -67.48012 170.71823 L -60.18806 179.5169 Z "/>
<path transform="matrix(1,0,0,-1,133.827,221.26201)" stroke-width="1" stroke-linecap="butt" stroke-miterlimit="10" stroke-linejoin="miter" fill="none" stroke="#f007ff" d="M -28.29951 202.8122 L -35.59158 198.62143 L -32.8713 196.76726 L -25.57924 200.95803 Z "/>
<path transform="matrix(1,0,0,-1,133.827,221.26201)" stroke-width="1" stroke-linecap="butt" stroke-miterlimit="10" stroke-linejoin="miter" fill="none" stroke="#de10ff" d="M 16.32162 196.50028 L 9.02957 198.06941 L 11.74985 191.79169 L 19.0419 190.22257 Z "/>
<path transform="matrix(1,0,0,-1,133.827,221.26201)" stroke-width="1" stroke-linecap="butt" stroke-miterlimit="10" stroke-linejoin="miter" fill="none" stroke="#d217ff" d="M -45.60393 193.65834 L -52.896 187.16364 L -50.17572 186.78398 L -42.88365 193.27867 Z "/>
<path transform="matrix(1,0,0,-1,133.827,221.26201)" stroke-width="1" stroke-linecap="butt" stroke-miterlimit="10" stroke-linejoin="miter" fill="none" stroke="#f405ff" d="M -.98276 203.28977 L -8.27483 202.55493 L -5.55455 197.75173 L 1.7375 198.48657 Z "/>
<path transform="matrix(1,0,0,-1,133.827,221.26201)" stroke-width="1" stroke-linecap="butt" stroke-miterlimit="10" stroke-linejoin="miter" fill="none" stroke="#3466ff" d="M -87.5048 146.00066 L -94.79688 133.74607 L -92.07661 136.31545 L -84.78455 148.57004 Z "/>
<path transform="matrix(1,0,0,-1,133.827,221.26201)" stroke-width="1" stroke-linecap="butt" stroke-miterlimit="10" stroke-linejoin="miter" fill="none" stroke="#f604ff" d="M -18.28717 203.99681 L -25.57924 200.95803 L -22.85896 197.62934 L -15.5669 200.66812 Z "/>
<path transform="matrix(1,0,0,-1,133.827,221.26201)" stroke-width="1" stroke-linecap="butt" stroke-miterlimit="10" stroke-linejoin="miter" fill="none" stroke="#833eff" d="M -70.20041 169.62339 L -77.49248 159.67273 L -74.77219 160.76758 L -67.48012 170.71823 Z "/>
<path transform="matrix(1,0,0,-1,133.827,221.26201)" stroke-width="1" stroke-linecap="butt" stroke-miterlimit="10" stroke-linejoin="miter" fill="none" stroke="#e40dff" d="M -35.59158 198.62143 L -42.88365 193.27867 L -40.16338 191.4245 L -32.8713 196.76726 Z "/>
<path transform="matrix(1,0,0,-1,133.827,221.26201)" stroke-width="1" stroke-linecap="butt" stroke-miterlimit="10" stroke-linejoin="miter" fill="none" stroke="#be21ff" d="M -52.896 187.16364 L -60.18806 179.5169 L -57.46779 179.13724 L -50.17572 186.78398 Z "/>
<path transform="matrix(1,0,0,-1,133.827,221.26201)" stroke-width="1" stroke-linecap="butt" stroke-miterlimit="10" stroke-linejoin="miter" fill="none" stroke="#e50dff" d="M 9.02957 198.06941 L 1.7375 198.48657 L 4.45778 192.20883 L 11.74985 191.79169 Z "/>
<path transform="matrix(1,0,0,-1,133.827,221.26201)" stroke-width="1" stroke-linecap="butt" stroke-miterlimit="10" stroke-linejoin="miter" fill="none" stroke="#0d79ff" d="M -94.79688 133.74607 L -102.08894 120.33946 L -99.36868 122.90886 L -92.07661 136.31545 Z "/>
<path transform="matrix(1,0,0,-1,133.827,221.26201)" stroke-width="1" stroke-linecap="butt" stroke-miterlimit="10" stroke-linejoin="miter" fill="none" stroke="#f406ff" d="M -8.27483 202.55493 L -15.5669 200.66812 L -12.84662 195.86492 L -5.55455 197.75173 Z "/>
<path transform="matrix(1,0,0,-1,133.827,221.26201)" stroke-width="1" stroke-linecap="butt" stroke-miterlimit="10" stroke-linejoin="miter" fill="none" stroke="#644eff" d="M -77.49248 159.67273 L -84.78455 148.57004 L -82.06425 149.6649 L -74.77219 160.76758 Z "/>
<path transform="matrix(1,0,0,-1,133.827,221.26201)" stroke-width="1" stroke-linecap="butt" stroke-miterlimit="10" stroke-linejoin="miter" fill="none" stroke="#cd19ff" d="M 19.0419 190.22257 L 11.74985 191.79169 L 14.47012 184.03946 L 21.76218 182.47032 Z "/>
<path transform="matrix(1,0,0,-1,133.827,221.26201)" stroke-width="1" stroke-linecap="butt" stroke-miterlimit="10" stroke-linejoin="miter" fill="none" stroke="#ee09ff" d="M -25.57924 200.95803 L -32.8713 196.76726 L -30.15103 193.43856 L -22.85896 197.62934 Z "/>
<path transform="matrix(1,0,0,-1,133.827,221.26201)" stroke-width="1" stroke-linecap="butt" stroke-miterlimit="10" stroke-linejoin="miter" fill="none" stroke="#a62dff" d="M -60.18806 179.5169 L -67.48012 170.71823 L -64.75984 170.33858 L -57.46779 179.13724 Z "/>
<path transform="matrix(1,0,0,-1,133.827,221.26201)" stroke-width="1" stroke-linecap="butt" stroke-miterlimit="10" stroke-linejoin="miter" fill="none" stroke="#d416ff" d="M -42.88365 193.27867 L -50.17572 186.78398 L -47.45544 184.9298 L -40.16338 191.4245 Z "/>
<path transform="matrix(1,0,0,-1,133.827,221.26201)" stroke-width="1" stroke-linecap="butt" stroke-miterlimit="10" stroke-linejoin="miter" fill="none" stroke="#e80bff" d="M 1.7375 198.48657 L -5.55455 197.75173 L -2.83427 191.474 L 4.45778 192.20883 Z "/>
<path transform="matrix(1,0,0,-1,133.827,221.26201)" stroke-width="1" stroke-linecap="butt" stroke-miterlimit="10" stroke-linejoin="miter" fill="none" stroke="#4060ff" d="M -84.78455 148.57004 L -92.07661 136.31545 L -89.35632 137.4103 L -82.06425 149.6649 Z "/>
<path transform="matrix(1,0,0,-1,133.827,221.26201)" stroke-width="1" stroke-linecap="butt" stroke-miterlimit="10" stroke-linejoin="miter" fill="none" stroke="#ef08ff" d="M -15.5669 200.66812 L -22.85896 197.62934 L -20.13869 192.82611 L -12.84662 195.86492 Z "/>
<path transform="matrix(1,0,0,-1,133.827,221.26201)" stroke-width="1" stroke-linecap="butt" stroke-miterlimit="10" stroke-linejoin="miter" fill="none" stroke="#8a3bff" d="M -67.48012 170.71823 L -74.77219 160.76758 L -72.05191 160.38793 L -64.75984 170.33858 Z "/>
<path transform="matrix(1,0,0,-1,133.827,221.26201)" stroke-width="1" stroke-linecap="butt" stroke-miterlimit="10" stroke-linejoin="miter" fill="none" stroke="#e20fff" d="M -32.8713 196.76726 L -40.16338 191.4245 L -37.4431 188.09581 L -30.15103 193.43856 Z "/>
<path transform="matrix(1,0,0,-1,133.827,221.26201)" stroke-width="1" stroke-linecap="butt" stroke-miterlimit="10" stroke-linejoin="miter" fill="none" stroke="#c020ff" d="M -50.17572 186.78398 L -57.46779 179.13724 L -54.74751 177.28307 L -47.45544 184.9298 Z "/>
<path transform="matrix(1,0,0,-1,133.827,221.26201)" stroke-width="1" stroke-linecap="butt" stroke-miterlimit="10" stroke-linejoin="miter" fill="none" stroke="#d416ff" d="M 11.74985 191.79169 L 4.45778 192.20883 L 7.17805 184.4566 L 14.47012 184.03946 Z "/>
<path transform="matrix(1,0,0,-1,133.827,221.26201)" stroke-width="1" stroke-linecap="butt" stroke-miterlimit="10" stroke-linejoin="miter" fill="none" stroke="#1973ff" d="M -92.07661 136.31545 L -99.36868 122.90886 L -96.64839 124.00371 L -89.35632 137.4103 Z "/>
<path transform="matrix(1,0,0,-1,133.827,221.26201)" stroke-width="1" stroke-linecap="butt" stroke-miterlimit="10" stroke-linejoin="miter" fill="none" stroke="#e70cff" d="M -5.55455 197.75173 L -12.84662 195.86492 L -10.12634 189.58719 L -2.83427 191.474 Z "/>
<path transform="matrix(1,0,0,-1,133.827,221.26201)" stroke-width="1" stroke-linecap="butt" stroke-miterlimit="10" stroke-linejoin="miter" fill="none" stroke="#b724ff" d="M 21.76218 182.47032 L 14.47012 184.03946 L 17.19038 174.81269 L 24.48244 173.24356 Z "/>
<path transform="matrix(1,0,0,-1,133.827,221.26201)" stroke-width="1" stroke-linecap="butt" stroke-miterlimit="10" stroke-linejoin="miter" fill="none" stroke="#6b4aff" d="M -74.77219 160.76758 L -82.06425 149.6649 L -79.34398 149.28525 L -72.05191 160.38793 Z "/>
<path transform="matrix(1,0,0,-1,133.827,221.26201)" stroke-width="1" stroke-linecap="butt" stroke-miterlimit="10" stroke-linejoin="miter" fill="none" stroke="#e70cff" d="M -22.85896 197.62934 L -30.15103 193.43856 L -27.43076 188.63535 L -20.13869 192.82611 Z "/>
<path transform="matrix(1,0,0,-1,133.827,221.26201)" stroke-width="1" stroke-linecap="butt" stroke-miterlimit="10" stroke-linejoin="miter" fill="none" stroke="#a82bff" d="M -57.46779 179.13724 L -64.75984 170.33858 L -62.03957 168.48439 L -54.74751 177.28307 Z "/>
<path transform="matrix(1,0,0,-1,133.827,221.26201)" stroke-width="1" stroke-linecap="butt" stroke-miterlimit="10" stroke-linejoin="miter" fill="none" stroke="#d217ff" d="M -40.16338 191.4245 L -47.45544 184.9298 L -44.73517 181.60109 L -37.4431 188.09581 Z "/>
<path transform="matrix(1,0,0,-1,133.827,221.26201)" stroke-width="1" stroke-linecap="butt" stroke-miterlimit="10" stroke-linejoin="miter" fill="none" stroke="#d714ff" d="M 4.45778 192.20883 L -2.83427 191.474 L -.11401 183.72177 L 7.17805 184.4566 Z "/>
<path transform="matrix(1,0,0,-1,133.827,221.26201)" stroke-width="1" stroke-linecap="butt" stroke-miterlimit="10" stroke-linejoin="miter" fill="none" stroke="#e30eff" d="M -12.84662 195.86492 L -20.13869 192.82611 L -17.41843 186.5484 L -10.12634 189.58719 Z "/>
<path transform="matrix(1,0,0,-1,133.827,221.26201)" stroke-width="1" stroke-linecap="butt" stroke-miterlimit="10" stroke-linejoin="miter" fill="none" stroke="#485cff" d="M -82.06425 149.6649 L -89.35632 137.4103 L -86.63605 137.03064 L -79.34398 149.28525 Z "/>
<path transform="matrix(1,0,0,-1,133.827,221.26201)" stroke-width="1" stroke-linecap="butt" stroke-miterlimit="10" stroke-linejoin="miter" fill="none" stroke="#be21ff" d="M 14.47012 184.03946 L 7.17805 184.4566 L 9.89832 175.22985 L 17.19038 174.81269 Z "/>
<path transform="matrix(1,0,0,-1,133.827,221.26201)" stroke-width="1" stroke-linecap="butt" stroke-miterlimit="10" stroke-linejoin="miter" fill="none" stroke="#da12ff" d="M -30.15103 193.43856 L -37.4431 188.09581 L -34.72282 183.2926 L -27.43076 188.63535 Z "/>
<path transform="matrix(1,0,0,-1,133.827,221.26201)" stroke-width="1" stroke-linecap="butt" stroke-miterlimit="10" stroke-linejoin="miter" fill="none" stroke="#8d39ff" d="M -64.75984 170.33858 L -72.05191 160.38793 L -69.33163 158.53376 L -62.03957 168.48439 Z "/>
<path transform="matrix(1,0,0,-1,133.827,221.26201)" stroke-width="1" stroke-linecap="butt" stroke-miterlimit="10" stroke-linejoin="miter" fill="none" stroke="#be21ff" d="M -47.45544 184.9298 L -54.74751 177.28307 L -52.02724 173.95436 L -44.73517 181.60109 Z "/>
<path transform="matrix(1,0,0,-1,133.827,221.26201)" stroke-width="1" stroke-linecap="butt" stroke-miterlimit="10" stroke-linejoin="miter" fill="none" stroke="#d614ff" d="M -2.83427 191.474 L -10.12634 189.58719 L -7.40608 181.83496 L -.11401 183.72177 Z "/>
<path transform="matrix(1,0,0,-1,133.827,221.26201)" stroke-width="1" stroke-linecap="butt" stroke-miterlimit="10" stroke-linejoin="miter" fill="none" stroke="#9c32ff" d="M 24.48244 173.24356 L 17.19038 174.81269 L 19.91066 164.1114 L 27.20271 162.54228 Z "/>
<path transform="matrix(1,0,0,-1,133.827,221.26201)" stroke-width="1" stroke-linecap="butt" stroke-miterlimit="10" stroke-linejoin="miter" fill="none" stroke="#2170ff" d="M -89.35632 137.4103 L -96.64839 124.00371 L -93.92812 123.62405 L -86.63605 137.03064 Z "/>
<path transform="matrix(1,0,0,-1,133.827,221.26201)" stroke-width="1" stroke-linecap="butt" stroke-miterlimit="10" stroke-linejoin="miter" fill="none" stroke="#da12ff" d="M -20.13869 192.82611 L -27.43076 188.63535 L -24.7105 182.35762 L -17.41843 186.5484 Z "/>
<path transform="matrix(1,0,0,-1,133.827,221.26201)" stroke-width="1" stroke-linecap="butt" stroke-miterlimit="10" stroke-linejoin="miter" fill="none" stroke="#6d49ff" d="M -72.05191 160.38793 L -79.34398 149.28525 L -76.6237 147.43106 L -69.33163 158.53376 Z "/>
<path transform="matrix(1,0,0,-1,133.827,221.26201)" stroke-width="1" stroke-linecap="butt" stroke-miterlimit="10" stroke-linejoin="miter" fill="none" stroke="#ca1aff" d="M -37.4431 188.09581 L -44.73517 181.60109 L -42.01491 176.7979 L -34.72282 183.2926 Z "/>
<path transform="matrix(1,0,0,-1,133.827,221.26201)" stroke-width="1" stroke-linecap="butt" stroke-miterlimit="10" stroke-linejoin="miter" fill="none" stroke="#a62dff" d="M -54.74751 177.28307 L -62.03957 168.48439 L -59.31929 165.1557 L -52.02724 173.95436 Z "/>
<path transform="matrix(1,0,0,-1,133.827,221.26201)" stroke-width="1" stroke-linecap="butt" stroke-miterlimit="10" stroke-linejoin="miter" fill="none" stroke="#c11fff" d="M 7.17805 184.4566 L -.11401 183.72177 L 2.60625 174.495 L 9.89832 175.22985 Z "/>
<path transform="matrix(1,0,0,-1,133.827,221.26201)" stroke-width="1" stroke-linecap="butt" stroke-miterlimit="10" stroke-linejoin="miter" fill="none" stroke="#d217ff" d="M -10.12634 189.58719 L -17.41843 186.5484 L -14.69815 178.79616 L -7.40608 181.83496 Z "/>
<path transform="matrix(1,0,0,-1,133.827,221.26201)" stroke-width="1" stroke-linecap="butt" stroke-miterlimit="10" stroke-linejoin="miter" fill="none" stroke="#a32eff" d="M 17.19038 174.81269 L 9.89832 175.22985 L 12.61859 164.52857 L 19.91066 164.1114 Z "/>
<path transform="matrix(1,0,0,-1,133.827,221.26201)" stroke-width="1" stroke-linecap="butt" stroke-miterlimit="10" stroke-linejoin="miter" fill="none" stroke="#4a5bff" d="M -79.34398 149.28525 L -86.63605 137.03064 L -83.91579 135.17646 L -76.6237 147.43106 Z "/>
<path transform="matrix(1,0,0,-1,133.827,221.26201)" stroke-width="1" stroke-linecap="butt" stroke-miterlimit="10" stroke-linejoin="miter" fill="none" stroke="#ce19ff" d="M -27.43076 188.63535 L -34.72282 183.2926 L -32.00256 177.01486 L -24.7105 182.35762 Z "/>
<path transform="matrix(1,0,0,-1,133.827,221.26201)" stroke-width="1" stroke-linecap="butt" stroke-miterlimit="10" stroke-linejoin="miter" fill="none" stroke="#8a3bff" d="M -62.03957 168.48439 L -69.33163 158.53376 L -66.61137 155.20505 L -59.31929 165.1557 Z "/>
<path transform="matrix(1,0,0,-1,133.827,221.26201)" stroke-width="1" stroke-linecap="butt" stroke-miterlimit="10" stroke-linejoin="miter" fill="none" stroke="#b624ff" d="M -44.73517 181.60109 L -52.02724 173.95436 L -49.30698 169.15116 L -42.01491 176.7979 Z "/>
<path transform="matrix(1,0,0,-1,133.827,221.26201)" stroke-width="1" stroke-linecap="butt" stroke-miterlimit="10" stroke-linejoin="miter" fill="none" stroke="#7c42ff" d="M 27.20271 162.54228 L 19.91066 164.1114 L 22.63094 151.93567 L 29.92299 150.36653 Z "/>
<path transform="matrix(1,0,0,-1,133.827,221.26201)" stroke-width="1" stroke-linecap="butt" stroke-miterlimit="10" stroke-linejoin="miter" fill="none" stroke="#c020ff" d="M -.11401 183.72177 L -7.40608 181.83496 L -4.6858 172.60819 L 2.60625 174.495 Z "/>
<path transform="matrix(1,0,0,-1,133.827,221.26201)" stroke-width="1" stroke-linecap="butt" stroke-miterlimit="10" stroke-linejoin="miter" fill="none" stroke="#236eff" d="M -86.63605 137.03064 L -93.92812 123.62405 L -91.20786 121.76987 L -83.91579 135.17646 Z "/>
<path transform="matrix(1,0,0,-1,133.827,221.26201)" stroke-width="1" stroke-linecap="butt" stroke-miterlimit="10" stroke-linejoin="miter" fill="none" stroke="#c91bff" d="M -17.41843 186.5484 L -24.7105 182.35762 L -21.99022 174.6054 L -14.69815 178.79616 Z "/>
<path transform="matrix(1,0,0,-1,133.827,221.26201)" stroke-width="1" stroke-linecap="butt" stroke-miterlimit="10" stroke-linejoin="miter" fill="none" stroke="#a62dff" d="M 9.89832 175.22985 L 2.60625 174.495 L 5.32652 163.7937 L 12.61859 164.52857 Z "/>
<path transform="matrix(1,0,0,-1,133.827,221.26201)" stroke-width="1" stroke-linecap="butt" stroke-miterlimit="10" stroke-linejoin="miter" fill="none" stroke="#6b4aff" d="M -69.33163 158.53376 L -76.6237 147.43106 L -73.90344 144.10237 L -66.61137 155.20505 Z "/>
<path transform="matrix(1,0,0,-1,133.827,221.26201)" stroke-width="1" stroke-linecap="butt" stroke-miterlimit="10" stroke-linejoin="miter" fill="none" stroke="#be21ff" d="M -34.72282 183.2926 L -42.01491 176.7979 L -39.29463 170.52016 L -32.00256 177.01486 Z "/>
<path transform="matrix(1,0,0,-1,133.827,221.26201)" stroke-width="1" stroke-linecap="butt" stroke-miterlimit="10" stroke-linejoin="miter" fill="none" stroke="#9f30ff" d="M -52.02724 173.95436 L -59.31929 165.1557 L -56.59903 160.35248 L -49.30698 169.15116 Z "/>
<path transform="matrix(1,0,0,-1,133.827,221.26201)" stroke-width="1" stroke-linecap="butt" stroke-miterlimit="10" stroke-linejoin="miter" fill="none" stroke="#bc22ff" d="M -7.40608 181.83496 L -14.69815 178.79616 L -11.97787 169.56938 L -4.6858 172.60819 Z "/>
<path transform="matrix(1,0,0,-1,133.827,221.26201)" stroke-width="1" stroke-linecap="butt" stroke-miterlimit="10" stroke-linejoin="miter" fill="none" stroke="#833eff" d="M 19.91066 164.1114 L 12.61859 164.52857 L 15.33887 152.3528 L 22.63094 151.93567 Z "/>
<path transform="matrix(1,0,0,-1,133.827,221.26201)" stroke-width="1" stroke-linecap="butt" stroke-miterlimit="10" stroke-linejoin="miter" fill="none" stroke="#bd21ff" d="M -24.7105 182.35762 L -32.00256 177.01486 L -29.28229 169.26264 L -21.99022 174.6054 Z "/>
<path transform="matrix(1,0,0,-1,133.827,221.26201)" stroke-width="1" stroke-linecap="butt" stroke-miterlimit="10" stroke-linejoin="miter" fill="none" stroke="#485cff" d="M -76.6237 147.43106 L -83.91579 135.17646 L -81.19551 131.84777 L -73.90344 144.10237 Z "/>
<path transform="matrix(1,0,0,-1,133.827,221.26201)" stroke-width="1" stroke-linecap="butt" stroke-miterlimit="10" stroke-linejoin="miter" fill="none" stroke="#5754ff" d="M 29.92299 150.36653 L 22.63094 151.93567 L 25.35121 138.28536 L 32.64326 136.71622 Z "/>
<path transform="matrix(1,0,0,-1,133.827,221.26201)" stroke-width="1" stroke-linecap="butt" stroke-miterlimit="10" stroke-linejoin="miter" fill="none" stroke="#aa2bff" d="M -42.01491 176.7979 L -49.30698 169.15116 L -46.5867 162.87343 L -39.29463 170.52016 Z "/>
<path transform="matrix(1,0,0,-1,133.827,221.26201)" stroke-width="1" stroke-linecap="butt" stroke-miterlimit="10" stroke-linejoin="miter" fill="none" stroke="#833eff" d="M -59.31929 165.1557 L -66.61137 155.20505 L -63.8911 150.40183 L -56.59903 160.35248 Z "/>
<path transform="matrix(1,0,0,-1,133.827,221.26201)" stroke-width="1" stroke-linecap="butt" stroke-miterlimit="10" stroke-linejoin="miter" fill="none" stroke="#a52dff" d="M 2.60625 174.495 L -4.6858 172.60819 L -1.96553 161.90692 L 5.32652 163.7937 Z "/>
<path transform="matrix(1,0,0,-1,133.827,221.26201)" stroke-width="1" stroke-linecap="butt" stroke-miterlimit="10" stroke-linejoin="miter" fill="none" stroke="#b326ff" d="M -14.69815 178.79616 L -21.99022 174.6054 L -19.26994 165.37862 L -11.97787 169.56938 Z "/>
<path transform="matrix(1,0,0,-1,133.827,221.26201)" stroke-width="1" stroke-linecap="butt" stroke-miterlimit="10" stroke-linejoin="miter" fill="none" stroke="#2170ff" d="M -83.91579 135.17646 L -91.20786 121.76987 L -88.48758 118.44118 L -81.19551 131.84777 Z "/>
<path transform="matrix(1,0,0,-1,133.827,221.26201)" stroke-width="1" stroke-linecap="butt" stroke-miterlimit="10" stroke-linejoin="miter" fill="none" stroke="#863dff" d="M 12.61859 164.52857 L 5.32652 163.7937 L 8.0468 151.61797 L 15.33887 152.3528 Z "/>
<path transform="matrix(1,0,0,-1,133.827,221.26201)" stroke-width="1" stroke-linecap="butt" stroke-miterlimit="10" stroke-linejoin="miter" fill="none" stroke="#ad29ff" d="M -32.00256 177.01486 L -39.29463 170.52016 L -36.57436 162.76793 L -29.28229 169.26264 Z "/>
<path transform="matrix(1,0,0,-1,133.827,221.26201)" stroke-width="1" stroke-linecap="butt" stroke-miterlimit="10" stroke-linejoin="miter" fill="none" stroke="#644eff" d="M -66.61137 155.20505 L -73.90344 144.10237 L -71.18317 139.29915 L -63.8911 150.40183 Z "/>
<path transform="matrix(1,0,0,-1,133.827,221.26201)" stroke-width="1" stroke-linecap="butt" stroke-miterlimit="10" stroke-linejoin="miter" fill="none" stroke="#9237ff" d="M -49.30698 169.15116 L -56.59903 160.35248 L -53.87875 154.07477 L -46.5867 162.87343 Z "/>
<path transform="matrix(1,0,0,-1,133.827,221.26201)" stroke-width="1" stroke-linecap="butt" stroke-miterlimit="10" stroke-linejoin="miter" fill="none" stroke="#5e51ff" d="M 22.63094 151.93567 L 15.33887 152.3528 L 18.05914 138.7025 L 25.35121 138.28536 Z "/>
<path transform="matrix(1,0,0,-1,133.827,221.26201)" stroke-width="1" stroke-linecap="butt" stroke-miterlimit="10" stroke-linejoin="miter" fill="none" stroke="#a12fff" d="M -4.6858 172.60819 L -11.97787 169.56938 L -9.2576 158.8681 L -1.96553 161.90692 Z "/>
<path transform="matrix(1,0,0,-1,133.827,221.26201)" stroke-width="1" stroke-linecap="butt" stroke-miterlimit="10" stroke-linejoin="miter" fill="none" stroke="#a72cff" d="M -21.99022 174.6054 L -29.28229 169.26264 L -26.56201 160.03588 L -19.26994 165.37862 Z "/>
<path transform="matrix(1,0,0,-1,133.827,221.26201)" stroke-width="1" stroke-linecap="butt" stroke-miterlimit="10" stroke-linejoin="miter" fill="none" stroke="#2e69ff" d="M 32.64326 136.71622 L 25.35121 138.28536 L 28.07147 123.16052 L 35.36354 121.59138 Z "/>
<path transform="matrix(1,0,0,-1,133.827,221.26201)" stroke-width="1" stroke-linecap="butt" stroke-miterlimit="10" stroke-linejoin="miter" fill="none" stroke="#4060ff" d="M -73.90344 144.10237 L -81.19551 131.84777 L -78.47523 127.04457 L -71.18317 139.29915 Z "/>
<path transform="matrix(1,0,0,-1,133.827,221.26201)" stroke-width="1" stroke-linecap="butt" stroke-miterlimit="10" stroke-linejoin="miter" fill="none" stroke="#9933ff" d="M -39.29463 170.52016 L -46.5867 162.87343 L -43.86642 155.12119 L -36.57436 162.76793 Z "/>
<path transform="matrix(1,0,0,-1,133.827,221.26201)" stroke-width="1" stroke-linecap="butt" stroke-miterlimit="10" stroke-linejoin="miter" fill="none" stroke="#853dff" d="M 5.32652 163.7937 L -1.96553 161.90692 L .75473 149.73117 L 8.0468 151.61797 Z "/>
<path transform="matrix(1,0,0,-1,133.827,221.26201)" stroke-width="1" stroke-linecap="butt" stroke-miterlimit="10" stroke-linejoin="miter" fill="none" stroke="#7744ff" d="M -56.59903 160.35248 L -63.8911 150.40183 L -61.17082 144.12412 L -53.87875 154.07477 Z "/>
<path transform="matrix(1,0,0,-1,133.827,221.26201)" stroke-width="1" stroke-linecap="butt" stroke-miterlimit="10" stroke-linejoin="miter" fill="none" stroke="#9834ff" d="M -11.97787 169.56938 L -19.26994 165.37862 L -16.54967 154.67734 L -9.2576 158.8681 Z "/>
<path transform="matrix(1,0,0,-1,133.827,221.26201)" stroke-width="1" stroke-linecap="butt" stroke-miterlimit="10" stroke-linejoin="miter" fill="none" stroke="#614fff" d="M 15.33887 152.3528 L 8.0468 151.61797 L 10.76707 137.96767 L 18.05914 138.7025 Z "/>
<path transform="matrix(1,0,0,-1,133.827,221.26201)" stroke-width="1" stroke-linecap="butt" stroke-miterlimit="10" stroke-linejoin="miter" fill="none" stroke="#1973ff" d="M -81.19551 131.84777 L -88.48758 118.44118 L -85.7673 113.63795 L -78.47523 127.04457 Z "/>
<path transform="matrix(1,0,0,-1,133.827,221.26201)" stroke-width="1" stroke-linecap="butt" stroke-miterlimit="10" stroke-linejoin="miter" fill="none" stroke="#9734ff" d="M -29.28229 169.26264 L -36.57436 162.76793 L -33.85408 153.54116 L -26.56201 160.03588 Z "/>
<path transform="matrix(1,0,0,-1,133.827,221.26201)" stroke-width="1" stroke-linecap="butt" stroke-miterlimit="10" stroke-linejoin="miter" fill="none" stroke="#5754ff" d="M -63.8911 150.40183 L -71.18317 139.29915 L -68.46289 133.02144 L -61.17082 144.12412 Z "/>
<path transform="matrix(1,0,0,-1,133.827,221.26201)" stroke-width="1" stroke-linecap="butt" stroke-miterlimit="10" stroke-linejoin="miter" fill="none" stroke="#813fff" d="M -46.5867 162.87343 L -53.87875 154.07477 L -51.15848 146.32253 L -43.86642 155.12119 Z "/>
<path transform="matrix(1,0,0,-1,133.827,221.26201)" stroke-width="1" stroke-linecap="butt" stroke-miterlimit="10" stroke-linejoin="miter" fill="none" stroke="#3566ff" d="M 25.35121 138.28536 L 18.05914 138.7025 L 20.7794 123.57767 L 28.07147 123.16052 Z "/>
<path transform="matrix(1,0,0,-1,133.827,221.26201)" stroke-width="1" stroke-linecap="butt" stroke-miterlimit="10" stroke-linejoin="miter" fill="none" stroke="#813fff" d="M -1.96553 161.90692 L -9.2576 158.8681 L -6.53732 146.69237 L .75473 149.73117 Z "/>
<path transform="matrix(1,0,0,-1,133.827,221.26201)" stroke-width="1" stroke-linecap="butt" stroke-miterlimit="10" stroke-linejoin="miter" fill="none" stroke="#0180ff" d="M 35.36354 121.59138 L 28.07147 123.16052 L 30.79175 106.56117 L 38.0838 104.99205 Z "/>
<path transform="matrix(1,0,0,-1,133.827,221.26201)" stroke-width="1" stroke-linecap="butt" stroke-miterlimit="10" stroke-linejoin="miter" fill="none" stroke="#8c3aff" d="M -19.26994 165.37862 L -26.56201 160.03588 L -23.84174 149.3346 L -16.54967 154.67734 Z "/>
<path transform="matrix(1,0,0,-1,133.827,221.26201)" stroke-width="1" stroke-linecap="butt" stroke-miterlimit="10" stroke-linejoin="miter" fill="none" stroke="#6150ff" d="M 8.0468 151.61797 L .75473 149.73117 L 3.47499 136.08086 L 10.76707 137.96767 Z "/>
<path transform="matrix(1,0,0,-1,133.827,221.26201)" stroke-width="1" stroke-linecap="butt" stroke-miterlimit="10" stroke-linejoin="miter" fill="none" stroke="#833eff" d="M -36.57436 162.76793 L -43.86642 155.12119 L -41.14615 145.89443 L -33.85408 153.54116 Z "/>
<path transform="matrix(1,0,0,-1,133.827,221.26201)" stroke-width="1" stroke-linecap="butt" stroke-miterlimit="10" stroke-linejoin="miter" fill="none" stroke="#3466ff" d="M -71.18317 139.29915 L -78.47523 127.04457 L -75.75496 120.76683 L -68.46289 133.02144 Z "/>
<path transform="matrix(1,0,0,-1,133.827,221.26201)" stroke-width="1" stroke-linecap="butt" stroke-miterlimit="10" stroke-linejoin="miter" fill="none" stroke="#664dff" d="M -53.87875 154.07477 L -61.17082 144.12412 L -58.45055 136.37187 L -51.15848 146.32253 Z "/>
<path transform="matrix(1,0,0,-1,133.827,221.26201)" stroke-width="1" stroke-linecap="butt" stroke-miterlimit="10" stroke-linejoin="miter" fill="none" stroke="#3864ff" d="M 18.05914 138.7025 L 10.76707 137.96767 L 13.48734 122.84283 L 20.7794 123.57767 Z "/>
<path transform="matrix(1,0,0,-1,133.827,221.26201)" stroke-width="1" stroke-linecap="butt" stroke-miterlimit="10" stroke-linejoin="miter" fill="none" stroke="#7844ff" d="M -9.2576 158.8681 L -16.54967 154.67734 L -13.8294 142.50159 L -6.53732 146.69237 Z "/>
<path transform="matrix(1,0,0,-1,133.827,221.26201)" stroke-width="1" stroke-linecap="butt" stroke-miterlimit="10" stroke-linejoin="miter" fill="none" stroke="#7c42ff" d="M -26.56201 160.03588 L -33.85408 153.54116 L -31.1338 142.83988 L -23.84174 149.3346 Z "/>
<path transform="matrix(1,0,0,-1,133.827,221.26201)" stroke-width="1" stroke-linecap="butt" stroke-miterlimit="10" stroke-linejoin="miter" fill="none" stroke="#067dff" d="M 28.07147 123.16052 L 20.7794 123.57767 L 23.49968 106.97833 L 30.79175 106.56117 Z "/>
<path transform="matrix(1,0,0,-1,133.827,221.26201)" stroke-width="1" stroke-linecap="butt" stroke-miterlimit="10" stroke-linejoin="miter" fill="none" stroke="#0d79ff" d="M -78.47523 127.04457 L -85.7673 113.63795 L -83.04703 107.36024 L -75.75496 120.76683 Z "/>
<path transform="matrix(1,0,0,-1,133.827,221.26201)" stroke-width="1" stroke-linecap="butt" stroke-miterlimit="10" stroke-linejoin="miter" fill="none" stroke="#6b4aff" d="M -43.86642 155.12119 L -51.15848 146.32253 L -48.4382 137.09575 L -41.14615 145.89443 Z "/>
<path transform="matrix(1,0,0,-1,133.827,221.26201)" stroke-width="1" stroke-linecap="butt" stroke-miterlimit="10" stroke-linejoin="miter" fill="none" stroke="#465dff" d="M -61.17082 144.12412 L -68.46289 133.02144 L -65.74261 125.26921 L -58.45055 136.37187 Z "/>
<path transform="matrix(1,0,0,-1,133.827,221.26201)" stroke-width="1" stroke-linecap="butt" stroke-miterlimit="10" stroke-linejoin="miter" fill="none" stroke="#5c52ff" d="M .75473 149.73117 L -6.53732 146.69237 L -3.81706 133.04206 L 3.47499 136.08086 Z "/>
<path transform="matrix(1,0,0,-1,133.827,221.26201)" stroke-width="1" stroke-linecap="butt" stroke-miterlimit="10" stroke-linejoin="miter" fill="none" stroke="#6c4aff" d="M -16.54967 154.67734 L -23.84174 149.3346 L -21.12148 137.15885 L -13.8294 142.50159 Z "/>
<path transform="matrix(1,0,0,-1,133.827,221.26201)" stroke-width="1" stroke-linecap="butt" stroke-miterlimit="10" stroke-linejoin="miter" fill="none" stroke="#3764ff" d="M 10.76707 137.96767 L 3.47499 136.08086 L 6.19527 120.95602 L 13.48734 122.84283 Z "/>
<path transform="matrix(1,0,0,-1,133.827,221.26201)" stroke-width="1" stroke-linecap="butt" stroke-miterlimit="10" stroke-linejoin="miter" fill="none" stroke="#684cff" d="M -33.85408 153.54116 L -41.14615 145.89443 L -38.42589 135.19315 L -31.1338 142.83988 Z "/>
<path transform="matrix(1,0,0,-1,133.827,221.26201)" stroke-width="1" stroke-linecap="butt" stroke-miterlimit="10" stroke-linejoin="miter" fill="none" stroke="#236eff" d="M -68.46289 133.02144 L -75.75496 120.76683 L -73.03468 113.0146 L -65.74261 125.26921 Z "/>
<path transform="matrix(1,0,0,-1,133.827,221.26201)" stroke-width="1" stroke-linecap="butt" stroke-miterlimit="10" stroke-linejoin="miter" fill="none" stroke="#5058ff" d="M -51.15848 146.32253 L -58.45055 136.37187 L -55.73027 127.14511 L -48.4382 137.09575 Z "/>
<path transform="matrix(1,0,0,-1,133.827,221.26201)" stroke-width="1" stroke-linecap="butt" stroke-miterlimit="10" stroke-linejoin="miter" fill="none" stroke="#097bff" d="M 20.7794 123.57767 L 13.48734 122.84283 L 16.20761 106.24348 L 23.49968 106.97833 Z "/>
<path transform="matrix(1,0,0,-1,133.827,221.26201)" stroke-width="1" stroke-linecap="butt" stroke-miterlimit="10" stroke-linejoin="miter" fill="none" stroke="#5456ff" d="M -6.53732 146.69237 L -13.8294 142.50159 L -11.10913 128.85128 L -3.81706 133.04206 Z "/>
<path transform="matrix(1,0,0,-1,133.827,221.26201)" stroke-width="1" stroke-linecap="butt" stroke-miterlimit="10" stroke-linejoin="miter" fill="none" stroke="#5c52ff" d="M -23.84174 149.3346 L -31.1338 142.83988 L -28.41354 130.66413 L -21.12148 137.15885 Z "/>
<path transform="matrix(1,0,0,-1,133.827,221.26201)" stroke-width="1" stroke-linecap="butt" stroke-miterlimit="10" stroke-linejoin="miter" fill="none" stroke="#3267ff" d="M 3.47499 136.08086 L -3.81706 133.04206 L -1.09679 117.91722 L 6.19527 120.95602 Z "/>
<path transform="matrix(1,0,0,-1,133.827,221.26201)" stroke-width="1" stroke-linecap="butt" stroke-miterlimit="10" stroke-linejoin="miter" fill="none" stroke="#0482ff" d="M -75.75496 120.76683 L -83.04703 107.36024 L -80.32677 99.608 L -73.03468 113.0146 Z "/>
<path transform="matrix(1,0,0,-1,133.827,221.26201)" stroke-width="1" stroke-linecap="butt" stroke-miterlimit="10" stroke-linejoin="miter" fill="none" stroke="#5058ff" d="M -41.14615 145.89443 L -48.4382 137.09575 L -45.71794 126.39449 L -38.42589 135.19315 Z "/>
<path transform="matrix(1,0,0,-1,133.827,221.26201)" stroke-width="1" stroke-linecap="butt" stroke-miterlimit="10" stroke-linejoin="miter" fill="none" stroke="#3068ff" d="M -58.45055 136.37187 L -65.74261 125.26921 L -63.02235 116.04242 L -55.73027 127.14511 Z "/>
<path transform="matrix(1,0,0,-1,133.827,221.26201)" stroke-width="1" stroke-linecap="butt" stroke-miterlimit="10" stroke-linejoin="miter" fill="none" stroke="#087cff" d="M 13.48734 122.84283 L 6.19527 120.95602 L 8.91554 104.35667 L 16.20761 106.24348 Z "/>
<path transform="matrix(1,0,0,-1,133.827,221.26201)" stroke-width="1" stroke-linecap="butt" stroke-miterlimit="10" stroke-linejoin="miter" fill="none" stroke="#475cff" d="M -13.8294 142.50159 L -21.12148 137.15885 L -18.4012 123.50853 L -11.10913 128.85128 Z "/>
<path transform="matrix(1,0,0,-1,133.827,221.26201)" stroke-width="1" stroke-linecap="butt" stroke-miterlimit="10" stroke-linejoin="miter" fill="none" stroke="#485cff" d="M -31.1338 142.83988 L -38.42589 135.19315 L -35.70561 123.0174 L -28.41354 130.66413 Z "/>
<path transform="matrix(1,0,0,-1,133.827,221.26201)" stroke-width="1" stroke-linecap="butt" stroke-miterlimit="10" stroke-linejoin="miter" fill="none" stroke="#3566ff" d="M -48.4382 137.09575 L -55.73027 127.14511 L -53.01001 116.44383 L -45.71794 126.39449 Z "/>
<path transform="matrix(1,0,0,-1,133.827,221.26201)" stroke-width="1" stroke-linecap="butt" stroke-miterlimit="10" stroke-linejoin="miter" fill="none" stroke="#0d7aff" d="M -65.74261 125.26921 L -73.03468 113.0146 L -70.31442 103.78784 L -63.02235 116.04242 Z "/>
<path transform="matrix(1,0,0,-1,133.827,221.26201)" stroke-width="1" stroke-linecap="butt" stroke-miterlimit="10" stroke-linejoin="miter" fill="none" stroke="#2a6bff" d="M -3.81706 133.04206 L -11.10913 128.85128 L -8.38885 113.72646 L -1.09679 117.91722 Z "/>
<path transform="matrix(1,0,0,-1,133.827,221.26201)" stroke-width="1" stroke-linecap="butt" stroke-miterlimit="10" stroke-linejoin="miter" fill="none" stroke="#3764ff" d="M -21.12148 137.15885 L -28.41354 130.66413 L -25.69327 117.01381 L -18.4012 123.50853 Z "/>
<path transform="matrix(1,0,0,-1,133.827,221.26201)" stroke-width="1" stroke-linecap="butt" stroke-miterlimit="10" stroke-linejoin="miter" fill="none" stroke="#047eff" d="M 6.19527 120.95602 L -1.09679 117.91722 L 1.62347 101.31789 L 8.91554 104.35667 Z "/>
<path transform="matrix(1,0,0,-1,133.827,221.26201)" stroke-width="1" stroke-linecap="butt" stroke-miterlimit="10" stroke-linejoin="miter" fill="none" stroke="#3068ff" d="M -38.42589 135.19315 L -45.71794 126.39449 L -42.99767 114.21873 L -35.70561 123.0174 Z "/>
<path transform="matrix(1,0,0,-1,133.827,221.26201)" stroke-width="1" stroke-linecap="butt" stroke-miterlimit="10" stroke-linejoin="miter" fill="none" stroke="#1a8dff" d="M -73.03468 113.0146 L -80.32677 99.608 L -77.60649 90.38123 L -70.31442 103.78784 Z "/>
<path transform="matrix(1,0,0,-1,133.827,221.26201)" stroke-width="1" stroke-linecap="butt" stroke-miterlimit="10" stroke-linejoin="miter" fill="none" stroke="#1575ff" d="M -55.73027 127.14511 L -63.02235 116.04242 L -60.30208 105.34114 L -53.01001 116.44383 Z "/>
<path transform="matrix(1,0,0,-1,133.827,221.26201)" stroke-width="1" stroke-linecap="butt" stroke-miterlimit="10" stroke-linejoin="miter" fill="none" stroke="#1e71ff" d="M -11.10913 128.85128 L -18.4012 123.50853 L -15.68092 108.3837 L -8.38885 113.72646 Z "/>
<path transform="matrix(1,0,0,-1,133.827,221.26201)" stroke-width="1" stroke-linecap="butt" stroke-miterlimit="10" stroke-linejoin="miter" fill="none" stroke="#236eff" d="M -28.41354 130.66413 L -35.70561 123.0174 L -32.98534 109.36708 L -25.69327 117.01381 Z "/>
<path transform="matrix(1,0,0,-1,133.827,221.26201)" stroke-width="1" stroke-linecap="butt" stroke-miterlimit="10" stroke-linejoin="miter" fill="none" stroke="#0582ff" d="M -1.09679 117.91722 L -8.38885 113.72646 L -5.66858 97.1271 L 1.62347 101.31789 Z "/>
<path transform="matrix(1,0,0,-1,133.827,221.26201)" stroke-width="1" stroke-linecap="butt" stroke-miterlimit="10" stroke-linejoin="miter" fill="none" stroke="#1576ff" d="M -45.71794 126.39449 L -53.01001 116.44383 L -50.28973 104.26808 L -42.99767 114.21873 Z "/>
<path transform="matrix(1,0,0,-1,133.827,221.26201)" stroke-width="1" stroke-linecap="butt" stroke-miterlimit="10" stroke-linejoin="miter" fill="none" stroke="#0e87ff" d="M -63.02235 116.04242 L -70.31442 103.78784 L -67.59415 93.08655 L -60.30208 105.34114 Z "/>
<path transform="matrix(1,0,0,-1,133.827,221.26201)" stroke-width="1" stroke-linecap="butt" stroke-miterlimit="10" stroke-linejoin="miter" fill="none" stroke="#0e79ff" d="M -18.4012 123.50853 L -25.69327 117.01381 L -22.97299 101.88899 L -15.68092 108.3837 Z "/>
<path transform="matrix(1,0,0,-1,133.827,221.26201)" stroke-width="1" stroke-linecap="butt" stroke-miterlimit="10" stroke-linejoin="miter" fill="none" stroke="#0c7aff" d="M -35.70561 123.0174 L -42.99767 114.21873 L -40.27739 100.56842 L -32.98534 109.36708 Z "/>
<path transform="matrix(1,0,0,-1,133.827,221.26201)" stroke-width="1" stroke-linecap="butt" stroke-miterlimit="10" stroke-linejoin="miter" fill="none" stroke="#359aff" d="M -70.31442 103.78784 L -77.60649 90.38123 L -74.88622 79.67996 L -67.59415 93.08655 Z "/>
<path transform="matrix(1,0,0,-1,133.827,221.26201)" stroke-width="1" stroke-linecap="butt" stroke-miterlimit="10" stroke-linejoin="miter" fill="none" stroke="#0b85ff" d="M -53.01001 116.44383 L -60.30208 105.34114 L -57.5818 93.1654 L -50.28973 104.26808 Z "/>
<path transform="matrix(1,0,0,-1,133.827,221.26201)" stroke-width="1" stroke-linecap="butt" stroke-miterlimit="10" stroke-linejoin="miter" fill="none" stroke="#1188ff" d="M -8.38885 113.72646 L -15.68092 108.3837 L -12.96065 91.78435 L -5.66858 97.1271 Z "/>
<path transform="matrix(1,0,0,-1,133.827,221.26201)" stroke-width="1" stroke-linecap="butt" stroke-miterlimit="10" stroke-linejoin="miter" fill="none" stroke="#0683ff" d="M -25.69327 117.01381 L -32.98534 109.36708 L -30.26506 94.24225 L -22.97299 101.88899 Z "/>
<path transform="matrix(1,0,0,-1,133.827,221.26201)" stroke-width="1" stroke-linecap="butt" stroke-miterlimit="10" stroke-linejoin="miter" fill="none" stroke="#1088ff" d="M -42.99767 114.21873 L -50.28973 104.26808 L -47.56946 90.61777 L -40.27739 100.56842 Z "/>
<path transform="matrix(1,0,0,-1,133.827,221.26201)" stroke-width="1" stroke-linecap="butt" stroke-miterlimit="10" stroke-linejoin="miter" fill="none" stroke="#2e97ff" d="M -60.30208 105.34114 L -67.59415 93.08655 L -64.87387 80.9108 L -57.5818 93.1654 Z "/>
<path transform="matrix(1,0,0,-1,133.827,221.26201)" stroke-width="1" stroke-linecap="butt" stroke-miterlimit="10" stroke-linejoin="miter" fill="none" stroke="#2190ff" d="M -15.68092 108.3837 L -22.97299 101.88899 L -20.25272 85.28966 L -12.96065 91.78435 Z "/>
<path transform="matrix(1,0,0,-1,133.827,221.26201)" stroke-width="1" stroke-linecap="butt" stroke-miterlimit="10" stroke-linejoin="miter" fill="none" stroke="#1e8fff" d="M -32.98534 109.36708 L -40.27739 100.56842 L -37.55711 85.44359 L -30.26506 94.24225 Z "/>
<path transform="matrix(1,0,0,-1,133.827,221.26201)" stroke-width="1" stroke-linecap="butt" stroke-miterlimit="10" stroke-linejoin="miter" fill="none" stroke="#2f98ff" d="M -50.28973 104.26808 L -57.5818 93.1654 L -54.86153 79.51509 L -47.56946 90.61777 Z "/>
<path transform="matrix(1,0,0,-1,133.827,221.26201)" stroke-width="1" stroke-linecap="butt" stroke-miterlimit="10" stroke-linejoin="miter" fill="none" stroke="#55aaff" d="M -67.59415 93.08655 L -74.88622 79.67996 L -72.16594 67.50421 L -64.87387 80.9108 Z "/>
<path transform="matrix(1,0,0,-1,133.827,221.26201)" stroke-width="1" stroke-linecap="butt" stroke-miterlimit="10" stroke-linejoin="miter" fill="none" stroke="#359aff" d="M -22.97299 101.88899 L -30.26506 94.24225 L -27.54478 77.64291 L -20.25272 85.28966 Z "/>
<path transform="matrix(1,0,0,-1,133.827,221.26201)" stroke-width="1" stroke-linecap="butt" stroke-miterlimit="10" stroke-linejoin="miter" fill="none" stroke="#3a9dff" d="M -40.27739 100.56842 L -47.56946 90.61777 L -44.84918 75.49294 L -37.55711 85.44359 Z "/>
<path transform="matrix(1,0,0,-1,133.827,221.26201)" stroke-width="1" stroke-linecap="butt" stroke-miterlimit="10" stroke-linejoin="miter" fill="none" stroke="#53a9ff" d="M -57.5818 93.1654 L -64.87387 80.9108 L -62.1536 67.2605 L -54.86153 79.51509 Z "/>
<path transform="matrix(1,0,0,-1,133.827,221.26201)" stroke-width="1" stroke-linecap="butt" stroke-miterlimit="10" stroke-linejoin="miter" fill="none" stroke="#4da6ff" d="M -30.26506 94.24225 L -37.55711 85.44359 L -34.83685 68.84425 L -27.54478 77.64291 Z "/>
<path transform="matrix(1,0,0,-1,133.827,221.26201)" stroke-width="1" stroke-linecap="butt" stroke-miterlimit="10" stroke-linejoin="miter" fill="none" stroke="#59acff" d="M -47.56946 90.61777 L -54.86153 79.51509 L -52.14125 64.39027 L -44.84918 75.49294 Z "/>
<path transform="matrix(1,0,0,-1,133.827,221.26201)" stroke-width="1" stroke-linecap="butt" stroke-miterlimit="10" stroke-linejoin="miter" fill="none" stroke="#7abdff" d="M -64.87387 80.9108 L -72.16594 67.50421 L -69.44566 53.8539 L -62.1536 67.2605 Z "/>
<path transform="matrix(1,0,0,-1,133.827,221.26201)" stroke-width="1" stroke-linecap="butt" stroke-miterlimit="10" stroke-linejoin="miter" fill="none" stroke="#68b4ff" d="M -37.55711 85.44359 L -44.84918 75.49294 L -42.12892 58.8936 L -34.83685 68.84425 Z "/>
<path transform="matrix(1,0,0,-1,133.827,221.26201)" stroke-width="1" stroke-linecap="butt" stroke-miterlimit="10" stroke-linejoin="miter" fill="none" stroke="#7cbeff" d="M -54.86153 79.51509 L -62.1536 67.2605 L -59.43333 52.13567 L -52.14125 64.39027 Z "/>
<path transform="matrix(1,0,0,-1,133.827,221.26201)" stroke-width="1" stroke-linecap="butt" stroke-miterlimit="10" stroke-linejoin="miter" fill="none" stroke="#88c4ff" d="M -44.84918 75.49294 L -52.14125 64.39027 L -49.42099 47.79092 L -42.12892 58.8936 Z "/>
<path transform="matrix(1,0,0,-1,133.827,221.26201)" stroke-width="1" stroke-linecap="butt" stroke-miterlimit="10" stroke-linejoin="miter" fill="none" stroke="#a3d1ff" d="M -62.1536 67.2605 L -69.44566 53.8539 L -66.7254 38.72906 L -59.43333 52.13567 Z "/>
<path transform="matrix(1,0,0,-1,133.827,221.26201)" stroke-width="1" stroke-linecap="butt" stroke-miterlimit="10" stroke-linejoin="miter" fill="none" stroke="#abd5ff" d="M -52.14125 64.39027 L -59.43333 52.13567 L -56.71306 35.53632 L -49.42099 47.79092 Z "/>
<path transform="matrix(1,0,0,-1,133.827,221.26201)" stroke-width="1" stroke-linecap="butt" stroke-miterlimit="10" stroke-linejoin="miter" fill="none" stroke="#000080" d="M -28.9343 197.50627 C -28.9343 197.50627 -30.69414 195.39891 -31.34721 194.48712 C -32.00029 193.57535 -33.02115 192.00363 -33.6413 190.93474 C -34.26144 189.86586 -35.22964 188.02878 -35.81688 186.78333 C -36.4041 185.53787 -37.31935 183.40219 -37.87361 181.95836 C -38.42787 180.51451 -39.29034 178.04344 -39.81169 176.37709 C -40.33304 174.71074 -41.14276 171.86373 -41.63118 169.94837 C -42.11958 168.033 -42.87636 164.76563 -43.33183 162.57247 C -43.78731 160.37929 -44.49149 156.64362 -44.91405 154.14147 C -45.3366 151.63933 -45.98772 147.38336 -46.37732 144.53876 C -46.76694 141.69417 -47.36548 136.86243 -47.72217 133.63954 C -48.07884 130.41664 -48.62437 124.94965 -48.94812 121.3103 C -49.27185 117.67096 -49.7647 111.50597 -50.0555 107.4097 C -50.34631 103.31342 -50.78625 96.38318 -51.04416 91.78714 C -51.30206 87.19109 -51.68935 79.4255 -51.9143 74.28452 C -52.13927 69.14352 -52.47333 60.46776 -52.66553 54.7344 C -52.85773 49.00107 -53.14046 39.33823 -53.29964 32.96252 C -53.45882 26.5868 -53.6868 15.85309 -53.81282 8.7827 C -53.93884 1.7123 -54.11469 -10.17671 -54.20795 -17.99597 C -54.30121 -25.81523 -54.48502 -47.57315 -54.48502 -47.57315 "/>
<path transform="matrix(1,0,0,-1,133.827,221.26201)" d="M -27.93802 197.50627 C -27.93802 198.0565 -28.38406 198.50255 -28.9343 198.50255 C -29.48453 198.50255 -29.93057 198.0565 -29.93057 197.50627 C -29.93057 196.95604 -29.48453 196.51 -28.9343 196.51 C -28.38406 196.51 -27.93802 196.95604 -27.93802 197.50627 Z M -28.9343 197.50627 "/>
<path transform="matrix(1,0,0,-1,133.827,221.26201)" stroke-width="1" stroke-linecap="butt" stroke-miterlimit="10" stroke-linejoin="miter" fill="none" stroke="#000000" d="M -27.93802 197.50627 C -27.93802 198.0565 -28.38406 198.50255 -28.9343 198.50255 C -29.48453 198.50255 -29.93057 198.0565 -29.93057 197.50627 C -29.93057 196.95604 -29.48453 196.51 -28.9343 196.51 C -28.38406 196.51 -27.93802 196.95604 -27.93802 197.50627 Z M -28.9343 197.50627 "/>
</g>
<path transform="matrix(1,0,0,-1,133.827,221.26201)" stroke-width="1" stroke-linecap="butt" stroke-miterlimit="10" stroke-linejoin="miter" fill="none" stroke="#808080" d="M -53.48906 112.06621 L -49.9756 109.67134 M -94.32462 106.01582 L -90.81116 103.62096 "/>
<path transform="matrix(1,0,0,-1,133.827,221.26201)" stroke-width="1" stroke-linecap="butt" stroke-miterlimit="10" stroke-linejoin="miter" fill="none" stroke="#808080" d="M 10.24834 104.25131 L 6.04211 103.62811 M 29.29033 91.27187 L 25.0841 90.64867 "/>
<path transform="matrix(1,0,0,-1,133.827,221.26201)" stroke-width="1" stroke-linecap="butt" stroke-miterlimit="10" stroke-linejoin="miter" fill="none" stroke="#000000" d="M 9.521 119.94435 L -121.22127 100.5729 "/>
<path transform="matrix(-.99034,.14671,.14671,.99034,12.605728,120.68909)" d="M 1.99252 0 L -1.19551 1.59401 L 0 0 L -1.19551 -1.59401 "/>
<path transform="matrix(1,0,0,-1,133.827,221.26201)" stroke-width="1" stroke-linecap="butt" stroke-miterlimit="10" stroke-linejoin="miter" fill="none" stroke="#000000" d="M -20.41777 123.40887 L 39.82106 82.34875 "/>
<path transform="matrix(.82692,.56366,.56366,-.82692,173.64806,138.91324)" d="M 1.99252 0 L -1.19551 1.59401 L 0 0 L -1.19551 -1.59401 "/>
<symbol id="font_1_3">
<path d="M .442 .18200001 L .40800003 .18200001 C .40500004 .16000001 .39500005 .101 .38200004 .091000009 C .374 .085 .29700003 .085 .28300003 .085 L .099 .085 C .20400003 .178 .23900002 .20600002 .29900003 .25300003 C .37300004 .312 .442 .374 .442 .469 C .442 .59000006 .33600004 .66400006 .20800004 .66400006 C .084 .66400006 0 .577 0 .485 C 0 .43400003 .043000007 .42900003 .053000004 .42900003 C .077 .42900003 .10600001 .446 .10600001 .48200003 C .10600001 .5 .099 .535 .047000007 .535 C .078 .606 .146 .628 .19300002 .628 C .293 .628 .34500004 .55 .34500004 .469 C .34500004 .38200004 .28300003 .31300003 .25100003 .277 L .010000005 .039 C 0 .030000002 0 .028 0 0 L .41200004 0 L .442 .18200001 Z "/>
</symbol>
<use xlink:href="#font_1_3" transform="matrix(6.9738,0,0,-6.9738,82.06134,117.62701)"/>
<symbol id="font_1_4">
<path d="M .49000005 .164 L .49000005 .2 L .379 .2 L .379 .646 C .379 .66700008 .379 .674 .35700003 .674 C .345 .674 .34100003 .674 .331 .66 L 0 .2 L 0 .164 L .294 .164 L .294 .082 C .294 .048 .294 .036000004 .213 .036000004 L .186 .036000004 L .186 0 C .236 .002 .3 .004 .33600004 .004 C .37300004 .004 .437 .002 .48700003 0 L .48700003 .036000004 L .46 .036000004 C .379 .036000004 .379 .048 .379 .082 L .379 .164 L .49000005 .164 M .301 .56600007 L .301 .2 L .037000006 .2 L .301 .56600007 Z "/>
</symbol>
<use xlink:href="#font_1_4" transform="matrix(6.9738,0,0,-6.9738,41.05897,123.67801)"/>
<use xlink:href="#font_1_3" transform="matrix(6.9738,0,0,-6.9738,137.29035,125.33101)"/>
<use xlink:href="#font_1_4" transform="matrix(6.9738,0,0,-6.9738,156.16397,138.311)"/>
<path transform="matrix(1,0,0,-1,133.827,221.26201)" stroke-width="1" stroke-linecap="butt" stroke-miterlimit="10" stroke-linejoin="miter" fill="none" stroke="#808080" d="M 8.14522 101.81377 L 8.14522 106.06563 M 27.18721 88.83432 L 27.18721 93.08618 "/>
<path transform="matrix(1,0,0,-1,133.827,221.26201)" stroke-width="1" stroke-linecap="butt" stroke-miterlimit="10" stroke-linejoin="miter" fill="none" stroke="#808080" d="M -12.65352 163.27408 L -9.14005 160.8792 M -12.65352 208.43155 L -9.14005 206.03668 "/>
<path transform="matrix(1,0,0,-1,133.827,221.26201)" stroke-width="1" stroke-linecap="butt" stroke-miterlimit="10" stroke-linejoin="miter" fill="none" stroke="#000000" d="M -10.89677 111.95183 L -10.89677 209.75733 "/>
<path transform="matrix(0,-1,-1,-0,122.93023,11.504684)" d="M 1.99252 0 L -1.19551 1.59401 L 0 0 L -1.19551 -1.59401 "/>
<symbol id="font_1_2">
<path d="M .22600001 .63600006 C .22600001 .66300007 .224 .66400006 .19600001 .66400006 C .132 .601 .041 .6 0 .6 L 0 .564 C .023999997 .564 .09000001 .564 .14500001 .592 L .14500001 .082 C .14500001 .049000004 .14500001 .036000004 .04500001 .036000004 L .0069999995 .036000004 L .0069999995 0 C .024999999 .001 .148 .004 .185 .004 C .21600002 .004 .34200005 .001 .36400003 0 L .36400003 .036000004 L .32600004 .036000004 C .22600001 .036000004 .22600001 .049000004 .22600001 .082 L .22600001 .63600006 Z "/>
</symbol>
<symbol id="font_1_1">
<path d="M .46400006 .33900003 C .46400006 .44900004 .45100004 .528 .40500004 .598 C .374 .644 .31200005 .684 .23200001 .684 C 0 .684 0 .41100005 0 .33900003 C 0 .26700003 0 0 .23200001 0 C .46400006 0 .46400006 .26700003 .46400006 .33900003 M .23200001 .028 C .186 .028 .125 .055 .105000007 .13700001 C .091000009 .19600001 .091000009 .27800004 .091000009 .35200004 C .091000009 .42500005 .091000009 .50100007 .106000009 .556 C .127 .635 .19100002 .656 .23200001 .656 C .286 .656 .338 .623 .356 .565 C .37200005 .51100006 .37300004 .43900005 .37300004 .35200004 C .37300004 .27800004 .37300004 .20400001 .36 .141 C .34000004 .050000006 .272 .028 .23200001 .028 Z "/>
</symbol>
<use xlink:href="#font_1_2" transform="matrix(6.9738,0,0,-6.9738,110.39815,58.501008)"/>
<use xlink:href="#font_1_1" transform="matrix(6.9738,0,0,-6.9738,113.97571,58.640485)"/>
<use xlink:href="#font_1_3" transform="matrix(6.9738,0,0,-6.9738,110.07735,13.344009)"/>
<use xlink:href="#font_1_1" transform="matrix(6.9738,0,0,-6.9738,113.97571,13.483485)"/>
<path transform="matrix(1,0,0,-1,133.827,221.26201)" stroke-width="1" stroke-linecap="butt" stroke-miterlimit="10" stroke-linejoin="miter" fill="none" stroke="#808080" d="M -51.73233 108.74283 L -51.73233 112.99469 M -92.56789 102.69244 L -92.56789 106.9443 "/>
<path transform="matrix(1,0,0,-1,133.827,221.26201)" stroke-width="1" stroke-linecap="butt" stroke-miterlimit="10" stroke-linejoin="miter" fill="none" stroke="#808080" d="M -8.79366 162.38825 L -12.99988 161.76503 M -8.79366 207.54572 L -12.99988 206.92252 "/>
<symbol id="font_2_1">
<path d="M .201 .116000007 C .19100002 .082 .15800002 .028 .107 .028 C .10400001 .028 .07400001 .028 .053000004 .042000005 C .094000007 .055000005 .09700001 .091 .09700001 .097 C .09700001 .119 .080000009 .134 .057000005 .134 C .029000007 .134 0 .11 0 .073 C 0 .023000002 .056 0 .10500001 0 C .15100003 0 .192 .029000003 .21700001 .071 C .241 .018000002 .296 0 .336 0 C .451 0 .512 .125 .512 .15300001 C .512 .16600001 .49900005 .16600001 .49600003 .16600001 C .48200003 .16600001 .48100005 .16100002 .47700004 .14900002 C .456 .08 .39600004 .028 .34 .028 C .3 .028 .279 .055000005 .279 .093 C .279 .119 .303 .21000001 .331 .321 C .351 .398 .39600004 .423 .42900003 .423 C .43100003 .423 .46200005 .423 .483 .409 C .451 .4 .439 .372 .439 .354 C .439 .33200003 .456 .317 .479 .317 C .50200006 .317 .535 .336 .535 .37800003 C .535 .43400003 .47100006 .451 .43100003 .451 C .381 .451 .34100003 .418 .319 .38 C .301 .421 .255 .451 .199 .451 C .087000008 .451 .023000002 .328 .023000002 .298 C .023000002 .285 .037 .285 .040000008 .285 C .053000004 .285 .054000006 .289 .059000009 .30200003 C .084 .38 .14700002 .423 .19600001 .423 C .229 .423 .256 .405 .256 .357 C .256 .337 .24400002 .287 .23500002 .25300003 L .201 .116000007 Z "/>
</symbol>
<use xlink:href="#font_2_1" transform="matrix(6.9738,0,0,-6.9738,3.7287396,123.54975)"/>
<symbol id="font_2_2">
<path d="M .50900009 .58100005 C .513 .595 .513 .597 .513 .60300007 C .513 .623 .49700005 .63500007 .48000003 .63500007 C .46900005 .63500007 .45000003 .63000008 .43900005 .611 C .43600003 .605 .42800004 .573 .42300005 .55300006 L .40200005 .47000004 C .39600004 .44600005 .36500005 .32000003 .36200003 .30900003 C .36100004 .30900003 .31700004 .22200002 .23900001 .22200002 C .171 .22200002 .171 .287 .171 .305 C .171 .35900004 .194 .42200003 .22400002 .499 C .23600002 .531 .24100001 .54300007 .24100001 .56 C .24100001 .60800006 .2 .64500007 .146 .64500007 C .045000007 .64500007 0 .509 0 .49200005 C 0 .47900004 .014000002 .47900004 .017 .47900004 C .031 .47900004 .032 .48400004 .035 .495 C .060000007 .578 .103 .61700007 .143 .61700007 C .16000001 .61700007 .168 .606 .168 .582 C .168 .559 .15900001 .537 .154 .52400007 C .106000009 .402 .096 .365 .096 .321 C .096 .30400003 .096 .25700004 .135 .22500001 C .16600001 .19900002 .20800002 .194 .235 .194 C .27500005 .194 .31100003 .209 .34400005 .23900001 C .33100004 .18400002 .32000003 .142 .27800004 .09200001 C .25100003 .061000006 .21100001 .027999998 .158 .027999998 C .15100001 .027999998 .104 .027999998 .083000008 .061000006 C .13700001 .067 .13700001 .11500001 .13700001 .116000007 C .13700001 .148 .107999999 .15400002 .098000008 .15400002 C .073 .15400002 .040000004 .134 .040000004 .08800001 C .040000004 .037 .088 0 .15900001 0 C .26000003 0 .38300003 .07800001 .41400004 .20300001 L .50900009 .58100005 Z "/>
</symbol>
<use xlink:href="#font_2_2" transform="matrix(6.9738,0,0,-6.9738,177.46277,146.26866)"/>
<symbol id="font_2_3">
<path d="M .10700001 .098000008 C .133 .124000009 .15100001 .143 .23600002 .21100001 C .25700004 .22800002 .33200003 .28800003 .361 .316 C .422 .37600003 .46000005 .42700003 .46000005 .439 C .46000005 .451 .44700004 .451 .44300003 .451 C .43400003 .451 .431 .449 .426 .441 C .39500005 .395 .374 .38 .35000003 .38 C .338 .38 .323 .381 .29299999 .41 C .259 .444 .237 .451 .214 .451 C .134 .451 .08 .364 .08 .334 C .08 .32500003 .09 .322 .097 .322 C .109 .322 .111 .32500003 .11500001 .336 C .13000001 .37100003 .186 .373 .202 .373 C .22500001 .373 .251 .367 .265 .364 C .32 .352 .32700003 .352 .352 .352 C .32600004 .32500003 .30800004 .307 .21300002 .23100002 C .135 .16900002 .10800001 .14400001 .089 .124000009 C .029 .065000008 0 .021000002 0 .012000001 C 0 0 .012999997 0 .016999998 0 C .027000003 0 .029 .0020000004 .034 .010000001 C .061000006 .048000006 .09200001 .071 .126 .071 C .13800001 .071 .15300001 .07 .18 .045 C .21100001 .015000001 .23100002 0 .263 0 C .37 0 .43700005 .12100001 .43700005 .15500002 C .43700005 .16700001 .426 .16800002 .42000003 .16800002 C .408 .16800002 .40600003 .16300002 .402 .15200001 C .38300003 .102000009 .324 .078 .27500005 .078 C .25200004 .078 .22700002 .083000008 .202 .089 C .156 .099 .148 .099 .13000001 .099 C .128 .099 .113000009 .099 .10700001 .098000008 Z "/>
</symbol>
<use xlink:href="#font_2_3" transform="matrix(6.9738,0,0,-6.9738,121.310398,7.100744)"/>
</svg>
