<?xml version="1.0" encoding="UTF-8" standalone="no"?>
<!DOCTYPE svg PUBLIC "-//W3C//DTD SVG 1.1//EN" "http://www.w3.org/Graphics/SVG/1.1/DTD/svg11.dtd">
<svg xmlns="http://www.w3.org/2000/svg" xmlns:xlink="http://www.w3.org/1999/xlink" version="1.1" width="259.765pt" height="223.626pt" viewBox="0 0 259.765 223.626">
<path transform="matrix(1,0,0,-1,9.686,216.68001)" stroke-width="1" stroke-linecap="butt" stroke-dasharray="2.98883,2.98883" stroke-miterlimit="10" stroke-linejoin="miter" fill="none" stroke="#bfbfbf" d="M 0 0 L 0 203.56665 M 16.96388 0 L 16.96388 203.56665 M 33.92776 0 L 33.92776 203.56665 M 50.89166 0 L 50.89166 203.56665 M 67.85555 0 L 67.85555 203.56665 M 84.81943 0 L 84.81943 203.56665 M 101.78333 0 L 101.78333 203.56665 M 135.71109 0 L 135.71109 203.56665 M 152.67499 0 L 152.67499 203.56665 M 169.63887 0 L 169.63887 203.56665 M 186.60276 0 L 186.60276 203.56665 M 203.56665 0 L 203.56665 203.56665 M 220.53054 0 L 220.53054 203.56665 M 237.49442 0 L 237.49442 203.56665 "/>
<path transform="matrix(1,0,0,-1,9.686,216.68001)" stroke-width="1" stroke-linecap="butt" stroke-dasharray="2.98883,2.98883" stroke-miterlimit="10" stroke-linejoin="miter" fill="none" stroke="#bfbfbf" d="M 0 0 L 237.49442 0 M 0 16.96388 L 237.49442 16.96388 M 0 33.92776 L 237.49442 33.92776 M 0 50.89166 L 237.49442 50.89166 M 0 67.85555 L 237.49442 67.85555 M 0 84.81943 L 237.49442 84.81943 M 0 118.74721 L 237.49442 118.74721 M 0 135.71109 L 237.49442 135.71109 M 0 152.67499 L 237.49442 152.67499 M 0 169.63887 L 237.49442 169.63887 M 0 186.60276 L 237.49442 186.60276 M 0 203.56665 L 237.49442 203.56665 "/>
<path transform="matrix(1,0,0,-1,9.686,216.68001)" stroke-width="1" stroke-linecap="butt" stroke-miterlimit="10" stroke-linejoin="miter" fill="none" stroke="#808080" d="M 0 99.65729 L 0 103.90933 M 16.96388 99.65729 L 16.96388 103.90933 M 33.92776 99.65729 L 33.92776 103.90933 M 50.89166 99.65729 L 50.89166 103.90933 M 67.85555 99.65729 L 67.85555 103.90933 M 84.81943 99.65729 L 84.81943 103.90933 M 101.78333 99.65729 L 101.78333 103.90933 M 135.71109 99.65729 L 135.71109 103.90933 M 152.67499 99.65729 L 152.67499 103.90933 M 169.63887 99.65729 L 169.63887 103.90933 M 186.60276 99.65729 L 186.60276 103.90933 M 203.56665 99.65729 L 203.56665 103.90933 M 220.53054 99.65729 L 220.53054 103.90933 M 237.49442 99.65729 L 237.49442 103.90933 "/>
<path transform="matrix(1,0,0,-1,9.686,216.68001)" stroke-width="1" stroke-linecap="butt" stroke-miterlimit="10" stroke-linejoin="miter" fill="none" stroke="#808080" d="M 116.62119 0 L 120.87321 0 M 116.62119 16.96388 L 120.87321 16.96388 M 116.62119 33.92776 L 120.87321 33.92776 M 116.62119 50.89166 L 120.87321 50.89166 M 116.62119 67.85555 L 120.87321 67.85555 M 116.62119 84.81943 L 120.87321 84.81943 M 116.62119 118.74721 L 120.87321 118.74721 M 116.62119 135.71109 L 120.87321 135.71109 M 116.62119 152.67499 L 120.87321 152.67499 M 116.62119 169.63887 L 120.87321 169.63887 M 116.62119 186.60276 L 120.87321 186.60276 M 116.62119 203.56665 L 120.87321 203.56665 "/>
<path transform="matrix(1,0,0,-1,9.686,216.68001)" stroke-width="1" stroke-linecap="butt" stroke-miterlimit="10" stroke-linejoin="miter" fill="none" stroke="#000000" d="M 0 101.78333 L 235.50189 101.78333 "/>
<path transform="matrix(1,0,0,-1,245.1879,114.896678)" d="M 1.99252 0 L -1.19551 1.59401 L 0 0 L -1.19551 -1.59401 "/>
<path transform="matrix(1,0,0,-1,9.686,216.68001)" stroke-width="1" stroke-linecap="butt" stroke-miterlimit="10" stroke-linejoin="miter" fill="none" stroke="#000000" d="M 118.74721 0 L 118.74721 201.57413 "/>
<path transform="matrix(0,-1,-1,-0,128.43321,15.105881)" d="M 1.99252 0 L -1.19551 1.59401 L 0 0 L -1.19551 -1.59401 "/>
<symbol id="font_0_1">
<path d="M .57600006 0 C .59300008 0 .611 0 .611 .019999996 C .611 .040000008 .59300008 .040000008 .57600006 .040000008 L .035000005 .040000008 C .018 .040000008 0 .040000008 0 .019999996 C 0 0 .018 0 .035000005 0 L .57600006 0 Z "/>
</symbol>
<use xlink:href="#font_0_1" transform="matrix(9.9626,0,0,-9.9626,4.147896,124.67261)"/>
<symbol id="font_1_7">
<path d="M .42000003 .63100007 C .42900003 .64300009 .42900003 .64500007 .42900003 .66600009 L .18600002 .66600009 C .064 .66600009 .062000008 .679 .058000007 .6980001 L .033 .6980001 L 0 .49200005 L .024999999 .49200005 C .028000005 .508 .037 .57100006 .050000006 .58300009 C .057000005 .58900007 .13500002 .58900007 .148 .58900007 L .35500003 .58900007 C .344 .573 .26500003 .46400006 .24300003 .43100003 C .153 .29600004 .12000001 .157 .12000001 .055 C .12000001 .045 .12000001 0 .16600001 0 C .21200001 0 .21200001 .045 .21200001 .055 L .21200001 .106000009 C .21200001 .16100002 .21500004 .216 .22300002 .27 C .22700003 .29300005 .24100003 .37900005 .28500004 .44100005 L .42000003 .63100007 Z "/>
</symbol>
<use xlink:href="#font_1_7" transform="matrix(9.9626,0,0,-9.9626,11.626905,127.18318)"/>
<use xlink:href="#font_0_1" transform="matrix(9.9626,0,0,-9.9626,21.110898,124.67261)"/>
<symbol id="font_1_6">
<path d="M .089999999 .35000003 L .089999999 .37400005 C .089999999 .62700006 .21400002 .66300007 .26500003 .66300007 C .28900004 .66300007 .33100004 .65700009 .35300002 .623 C .33800004 .623 .298 .623 .298 .57800009 C .298 .54700008 .32200004 .53200009 .344 .53200009 C .36 .53200009 .39000003 .54100009 .39000003 .58000007 C .39000003 .64000007 .34600003 .688 .263 .688 C .13499999 .688 0 .559 0 .33800004 C 0 .071 .116000007 0 .20900002 0 C .32000003 0 .41500003 .094000007 .41500003 .22600001 C .41500003 .35300005 .32600004 .44900004 .215 .44900004 C .14700002 .44900004 .11000001 .39800004 .089999999 .35000003 M .20900002 .028 C .146 .028 .116000007 .088 .11000001 .103 C .092 .15 .092 .23 .092 .24800001 C .092 .32600004 .124000009 .42600004 .21400002 .42600004 C .23000002 .42600004 .27600003 .42600004 .307 .36400003 C .32500003 .32700003 .32500003 .27600003 .32500003 .22700002 C .32500003 .179 .32500003 .12900001 .30800004 .093 C .27800004 .033000005 .23200003 .028 .20900002 .028 Z "/>
</symbol>
<use xlink:href="#font_1_6" transform="matrix(9.9626,0,0,-9.9626,28.45143,127.18318)"/>
<use xlink:href="#font_0_1" transform="matrix(9.9626,0,0,-9.9626,38.074899,124.67261)"/>
<symbol id="font_1_5">
<path d="M .39900003 .223 C .39900003 .34200005 .317 .44200004 .209 .44200004 C .16100002 .44200004 .118000019 .42600004 .082 .39100004 L .082 .586 C .10200001 .58000007 .135 .573 .16700001 .573 C .29 .573 .36 .66400006 .36 .67700007 C .36 .683 .357 .688 .35 .688 C .349 .688 .347 .688 .342 .68500009 C .322 .67600008 .273 .656 .20600002 .656 C .16600001 .656 .120000008 .66300007 .073 .6840001 C .065 .68700006 .06300001 .68700006 .061000009 .68700006 C .051000004 .68700006 .051000004 .679 .051000004 .66300007 L .051000004 .36700005 C .051000004 .34900005 .051000004 .34100003 .065 .34100003 C .07200001 .34100003 .074 .34400005 .07800001 .35000003 C .08900002 .36600004 .12600002 .42000006 .207 .42000006 C .259 .42000006 .284 .37400005 .292 .35600005 C .308 .31900005 .31 .28000004 .31 .23 C .31 .19500001 .31 .135 .286 .093 C .262 .054000006 .22500001 .028 .17900002 .028 C .106000009 .028 .049000008 .08100001 .032 .14000002 C .035 .13900002 .038000008 .13800001 .049000008 .13800001 C .082 .13800001 .09900001 .163 .09900001 .187 C .09900001 .21100001 .082 .23600002 .049000008 .23600002 C .035 .23600002 0 .22900002 0 .18300002 C 0 .097 .069000009 0 .18100001 0 C .297 0 .39900003 .096 .39900003 .223 Z "/>
</symbol>
<use xlink:href="#font_1_5" transform="matrix(9.9626,0,0,-9.9626,45.495134,127.18318)"/>
<use xlink:href="#font_0_1" transform="matrix(9.9626,0,0,-9.9626,55.0389,124.67261)"/>
<symbol id="font_1_4">
<path d="M .266 .165 L .266 .078 C .266 .042000005 .26400004 .031000002 .19000001 .031000002 L .16900002 .031000002 L .16900002 0 C .21000001 .003 .26200003 .003 .30400003 .003 C .34600003 .003 .39900003 .003 .44000004 0 L .44000004 .031000002 L .41900004 .031000002 C .34500004 .031000002 .34300003 .042000005 .34300003 .078 L .34300003 .165 L .44300003 .165 L .44300003 .19600001 L .34300003 .19600001 L .34300003 .651 C .34300003 .671 .34300003 .67700007 .32700003 .67700007 C .31800003 .67700007 .31500004 .67700007 .307 .665 L 0 .19600001 L 0 .165 L .266 .165 M .272 .19600001 L .028 .19600001 L .272 .569 L .272 .19600001 Z "/>
</symbol>
<use xlink:href="#font_1_4" transform="matrix(9.9626,0,0,-9.9626,62.238958,126.964008)"/>
<use xlink:href="#font_0_1" transform="matrix(9.9626,0,0,-9.9626,72.00189,124.67261)"/>
<symbol id="font_1_3">
<path d="M .24800003 .37400005 C .33 .40100003 .388 .47100006 .388 .55 C .388 .632 .3 .688 .204 .688 C .10300001 .688 .027000003 .628 .027000003 .55200007 C .027000003 .519 .049000004 .5 .078 .5 C .109000008 .5 .12900001 .522 .12900001 .55100008 C .12900001 .6010001 .082 .6010001 .067 .6010001 C .098 .65000006 .164 .66300007 .20000002 .66300007 C .24100003 .66300007 .29600004 .64100006 .29600004 .55100008 C .29600004 .53900006 .29400004 .48100005 .268 .43700005 C .238 .38900004 .204 .38600005 .17900002 .38500003 C .171 .38400004 .14700002 .38200004 .14000002 .38200004 C .132 .38100005 .125 .38000003 .125 .37000004 C .125 .35900004 .132 .35900004 .14900002 .35900004 L .19300002 .35900004 C .275 .35900004 .312 .29100005 .312 .193 C .312 .057000005 .24300003 .028 .199 .028 C .15600002 .028 .081 .045 .046000005 .104 C .081 .09900001 .11200001 .12100001 .11200001 .15900001 C .11200001 .19500001 .085 .215 .056 .215 C .031999999 .215 0 .201 0 .157 C 0 .06600001 .093 0 .20200002 0 C .32400004 0 .41500003 .091000009 .41500003 .193 C .41500003 .27500005 .35200004 .35300005 .24800003 .37400005 Z "/>
</symbol>
<use xlink:href="#font_1_3" transform="matrix(9.9626,0,0,-9.9626,79.34242,127.18318)"/>
<use xlink:href="#font_0_1" transform="matrix(9.9626,0,0,-9.9626,88.9659,124.67261)"/>
<symbol id="font_1_2">
<path d="M .07700001 .07700001 L .18300002 .18 C .33900003 .31800003 .39900003 .372 .39900003 .47200004 C .39900003 .586 .30900003 .666 .18700002 .666 C .074 .666 0 .574 0 .485 C 0 .42900003 .05 .42900003 .053000008 .42900003 C .07000001 .42900003 .105000007 .441 .105000007 .48200003 C .105000007 .508 .08700001 .53400006 .052000006 .53400006 C .044000005 .53400006 .042000008 .53400006 .039 .53300008 C .062000004 .59800007 .11600001 .63500007 .17400001 .63500007 C .26500003 .63500007 .308 .554 .308 .47200004 C .308 .39200003 .25800003 .31300003 .20300003 .25100003 L .011000004 .037 C 0 .026 0 .024 0 0 L .37100003 0 L .39900003 .17400001 L .374 .17400001 C .36900003 .14400001 .36200003 .1 .352 .085 C .345 .07700001 .279 .07700001 .257 .07700001 L .07700001 .07700001 Z "/>
</symbol>
<use xlink:href="#font_1_2" transform="matrix(9.9626,0,0,-9.9626,96.38613,126.964008)"/>
<use xlink:href="#font_0_1" transform="matrix(9.9626,0,0,-9.9626,105.92989,124.67261)"/>
<symbol id="font_1_1">
<path d="M .205 .64000007 C .205 .66400006 .205 .666 .18200003 .666 C .120000008 .60200008 .032000007 .60200008 0 .60200008 L 0 .57100006 C .020000004 .57100006 .07900001 .57100006 .13100001 .597 L .13100001 .079 C .13100001 .043 .128 .031000002 .038000004 .031000002 L .0060000049 .031000002 L .0060000049 0 C .04100001 .003 .128 .003 .168 .003 C .20800002 .003 .29500003 .003 .33000005 0 L .33000005 .031000002 L .29800005 .031000002 C .20800002 .031000002 .205 .042000005 .205 .079 L .205 .64000007 Z "/>
</symbol>
<use xlink:href="#font_1_1" transform="matrix(9.9626,0,0,-9.9626,113.73767,126.964008)"/>
<use xlink:href="#font_1_1" transform="matrix(9.9626,0,0,-9.9626,143.79068,126.964008)"/>
<use xlink:href="#font_1_2" transform="matrix(9.9626,0,0,-9.9626,160.36614,126.964008)"/>
<use xlink:href="#font_1_3" transform="matrix(9.9626,0,0,-9.9626,177.25043,127.18318)"/>
<use xlink:href="#font_1_4" transform="matrix(9.9626,0,0,-9.9626,194.07395,126.964008)"/>
<use xlink:href="#font_1_5" transform="matrix(9.9626,0,0,-9.9626,211.25713,127.18318)"/>
<use xlink:href="#font_1_6" transform="matrix(9.9626,0,0,-9.9626,228.14144,127.18318)"/>
<use xlink:href="#font_1_7" transform="matrix(9.9626,0,0,-9.9626,245.24391,127.18318)"/>
<use xlink:href="#font_0_1" transform="matrix(9.9626,0,0,-9.9626,110.8819,217.18361)"/>
<use xlink:href="#font_1_6" transform="matrix(9.9626,0,0,-9.9626,118.22243,219.69419)"/>
<use xlink:href="#font_0_1" transform="matrix(9.9626,0,0,-9.9626,110.8819,200.2196)"/>
<use xlink:href="#font_1_5" transform="matrix(9.9626,0,0,-9.9626,118.30213,202.73018)"/>
<use xlink:href="#font_0_1" transform="matrix(9.9626,0,0,-9.9626,110.8819,183.2566)"/>
<use xlink:href="#font_1_4" transform="matrix(9.9626,0,0,-9.9626,118.082958,185.548)"/>
<use xlink:href="#font_0_1" transform="matrix(9.9626,0,0,-9.9626,110.8819,166.29262)"/>
<use xlink:href="#font_1_3" transform="matrix(9.9626,0,0,-9.9626,118.22243,168.80319)"/>
<use xlink:href="#font_0_1" transform="matrix(9.9626,0,0,-9.9626,110.8819,149.32862)"/>
<use xlink:href="#font_1_2" transform="matrix(9.9626,0,0,-9.9626,118.30213,151.62001)"/>
<use xlink:href="#font_0_1" transform="matrix(9.9626,0,0,-9.9626,110.8819,132.36562)"/>
<use xlink:href="#font_1_1" transform="matrix(9.9626,0,0,-9.9626,118.690677,134.65702)"/>
<use xlink:href="#font_1_1" transform="matrix(9.9626,0,0,-9.9626,118.69067,101.145008)"/>
<use xlink:href="#font_1_2" transform="matrix(9.9626,0,0,-9.9626,118.302127,84.181018)"/>
<use xlink:href="#font_1_3" transform="matrix(9.9626,0,0,-9.9626,118.22242,67.43619)"/>
<use xlink:href="#font_1_4" transform="matrix(9.9626,0,0,-9.9626,118.08295,50.254014)"/>
<use xlink:href="#font_1_5" transform="matrix(9.9626,0,0,-9.9626,118.302127,33.509187)"/>
<use xlink:href="#font_1_6" transform="matrix(9.9626,0,0,-9.9626,118.22242,16.545182)"/>
<clipPath id="cp2">
<path transform="matrix(1,0,0,-1,9.686,216.68001)" d="M 0 0 L 237.49442 0 L 237.49442 203.56665 L 0 203.56665 Z "/>
</clipPath>
<g clip-path="url(#cp2)">
<path transform="matrix(1,0,0,-1,9.686,216.68001)" stroke-width="1.19553" stroke-linecap="butt" stroke-miterlimit="10" stroke-linejoin="miter" fill="none" stroke="#000080" d="M 118.74721 135.71109 C 118.74721 135.71109 120.27927 135.68489 120.86769 135.6522 C 121.4561 135.61952 122.39975 135.54088 122.98817 135.47551 C 123.5766 135.41014 124.52023 135.27912 125.10866 135.18106 C 125.69708 135.08301 126.64073 134.89954 127.22916 134.7688 C 127.81757 134.63806 128.7612 134.40216 129.34963 134.23876 C 129.93805 134.07535 130.8817 133.7871 131.47013 133.59099 C 132.05855 133.3949 133.00218 133.05406 133.5906 132.82527 C 134.17902 132.59648 135.12267 132.2035 135.71109 131.94203 C 136.29952 131.68056 137.24315 131.23487 137.83158 130.94072 C 138.42 130.64658 139.36365 130.1488 139.95207 129.82196 C 140.54048 129.49512 141.48412 128.94458 142.07254 128.58504 C 142.66097 128.22548 143.60462 127.62274 144.19304 127.2305 C 144.78147 126.83826 145.7251 126.18285 146.31352 125.75795 C 146.90193 125.33305 147.84558 124.62563 148.434 124.16812 C 149.02243 123.71062 149.96607 122.9508 150.55449 122.46054 C 151.14292 121.97029 152.08657 121.1576 152.67499 120.63461 C 153.2634 120.11163 154.20703 119.24687 154.79546 118.6912 C 155.38388 118.13551 156.32753 117.2179 156.91596 116.6296 C 157.50438 116.04128 158.44802 115.07196 159.03644 114.45096 C 159.62485 113.82996 160.5685 112.80757 161.15692 112.15382 C 161.74535 111.50008 162.68898 110.42558 163.2774 109.7392 C 163.86583 109.05281 164.80948 107.92589 165.3979 107.20683 C 165.98632 106.48778 166.92995 105.30847 167.51837 104.55666 C 168.1068 103.80484 169.63887 101.78827 169.63887 101.78827 "/>
<path transform="matrix(1,0,0,-1,9.686,216.68001)" stroke-width="1.19553" stroke-linecap="butt" stroke-miterlimit="10" stroke-linejoin="miter" fill="none" stroke="#000080" d="M 169.63887 67.85555 C 169.63887 67.85555 171.17093 64.8306 171.75936 63.70277 C 172.34777 62.57495 173.29141 60.8057 173.87984 59.72696 C 174.46826 58.64821 175.4119 56.95763 176.00032 55.92789 C 176.58875 54.89815 177.5324 53.28598 178.12082 52.30524 C 178.70923 51.32451 179.65287 49.79103 180.24129 48.85938 C 180.82971 47.92772 181.77336 46.47307 182.36179 45.59044 C 182.95021 44.70781 183.89385 43.33151 184.48227 42.49791 C 185.07068 41.6643 186.01433 40.36685 186.60276 39.58232 C 187.19118 38.79779 188.13481 37.57903 188.72324 36.8435 C 189.31166 36.10799 190.25531 34.96765 190.84374 34.28113 C 191.43215 33.5946 192.37578 32.53294 192.9642 31.8955 C 193.55263 31.25804 194.49628 30.27522 195.0847 29.6868 C 195.67313 29.09837 196.61676 28.19391 197.20519 27.65453 C 197.79361 27.11513 198.73725 26.2895 199.32567 25.79918 C 199.9141 25.30885 200.85773 24.5619 201.44615 24.12059 C 202.03458 23.67928 202.97823 23.01073 203.56665 22.61844 C 204.15508 22.22615 205.0987 21.63641 205.68712 21.2932 C 206.27555 20.94997 207.2192 20.43881 207.80762 20.1446 C 208.39604 19.8504 209.33968 19.4179 209.9281 19.17271 C 210.51653 18.92754 211.46016 18.57367 212.04859 18.37753 C 212.63701 18.1814 213.58065 17.90614 214.16907 17.75905 C 214.75749 17.61195 215.70114 17.41534 216.28957 17.31728 C 216.87799 17.21921 217.82161 17.10124 218.41004 17.05222 C 218.99846 17.00319 220.53054 16.96388 220.53054 16.96388 "/>
<path transform="matrix(1,0,0,-1,9.686,216.68001)" stroke-width="1.19553" stroke-linecap="butt" stroke-miterlimit="10" stroke-linejoin="miter" fill="none" stroke="#000080" d="M 67.85555 101.77835 C 67.85555 101.77835 69.3876 99.76178 69.97603 99.00996 C 70.56444 98.25815 71.50809 97.07884 72.09651 96.35979 C 72.68494 95.64073 73.62857 94.51381 74.217 93.82742 C 74.80542 93.14104 75.74907 92.06654 76.3375 91.4128 C 76.9259 90.75906 77.86954 89.73666 78.45796 89.11566 C 79.04639 88.49466 79.99004 87.52536 80.57846 86.93704 C 81.16689 86.34872 82.11052 85.4311 82.69894 84.87543 C 83.28735 84.31976 84.231 83.45499 84.81943 82.932 C 85.40785 82.40904 86.35149 81.59634 86.93991 81.10608 C 87.52834 80.61581 88.47198 79.856 89.06041 79.3985 C 89.64882 78.941 90.59245 78.23357 91.18088 77.80867 C 91.7693 77.38377 92.71295 76.72836 93.30138 76.33612 C 93.8898 75.94388 94.83344 75.34116 95.42186 74.9816 C 96.01027 74.62204 96.95392 74.07152 97.54234 73.74467 C 98.13077 73.41783 99.0744 72.92006 99.66283 72.62592 C 100.25125 72.33177 101.1949 71.88606 101.78333 71.62459 C 102.37173 71.36311 103.31537 70.97014 103.9038 70.74135 C 104.49222 70.51256 105.43587 70.17174 106.02429 69.97563 C 106.61272 69.77953 107.55635 69.49127 108.14478 69.32787 C 108.73318 69.16446 109.67683 68.92856 110.26526 68.79782 C 110.85368 68.66708 111.79732 68.48361 112.38574 68.38556 C 112.97417 68.2875 113.91782 68.15648 114.50624 68.09111 C 115.09465 68.02574 116.03828 67.9471 116.62671 67.91441 C 117.21513 67.88173 118.74721 67.85555 118.74721 67.85555 "/>
<path transform="matrix(1,0,0,-1,9.686,216.68001)" stroke-width="1.19553" stroke-linecap="butt" stroke-miterlimit="10" stroke-linejoin="miter" fill="none" stroke="#000080" d="M 16.96388 186.60276 C 16.96388 186.60276 18.49594 186.56343 19.08437 186.5144 C 19.67278 186.46538 20.61642 186.34741 21.20485 186.24935 C 21.79327 186.15128 22.73691 185.95467 23.32533 185.80757 C 23.91376 185.66048 24.8574 185.38523 25.44583 185.18909 C 26.03424 184.99297 26.97787 184.63909 27.5663 184.3939 C 28.15472 184.14873 29.09837 183.71622 29.6868 183.42201 C 30.27522 183.1278 31.21886 182.61667 31.80728 182.27344 C 32.39569 181.9302 33.33934 181.34047 33.92776 180.94818 C 34.51619 180.5559 35.45982 179.88735 36.04825 179.44603 C 36.63667 179.00472 37.58032 178.25777 38.16875 177.76744 C 38.75716 177.27712 39.70079 176.45149 40.28922 175.91211 C 40.87764 175.37271 41.82129 174.46826 42.40971 173.87984 C 42.99814 173.29141 43.94177 172.30858 44.5302 171.67113 C 45.1186 171.03368 46.06226 169.97202 46.65068 169.28549 C 47.2391 168.59899 48.18274 167.45864 48.77116 166.72312 C 49.35959 165.9876 50.30324 164.76883 50.89166 163.9843 C 51.48007 163.19977 52.4237 161.90232 53.01213 161.06871 C 53.60056 160.2351 54.5442 158.85881 55.13263 157.97618 C 55.72105 157.09355 56.66469 155.6389 57.25311 154.70725 C 57.84152 153.77559 58.78517 152.24213 59.3736 151.26139 C 59.96202 150.28064 60.90565 148.66847 61.49408 147.63874 C 62.0825 146.609 63.02615 144.91841 63.61458 143.83966 C 64.20299 142.76093 65.14662 140.99167 65.73505 139.86385 C 66.32347 138.73603 67.85555 135.71109 67.85555 135.71109 "/>
</g>
<path transform="matrix(1,0,0,-1,9.686,216.68001)" d="M 171.63143 101.78333 C 171.63143 102.88379 170.73934 103.77588 169.63887 103.77588 C 168.53839 103.77588 167.64632 102.88379 167.64632 101.78333 C 167.64632 100.68285 168.53839 99.79077 169.63887 99.79077 C 170.73934 99.79077 171.63143 100.68285 171.63143 101.78333 Z M 169.63887 101.78333 " fill="#ffffff"/>
<path transform="matrix(1,0,0,-1,9.686,216.68001)" stroke-width="1" stroke-linecap="butt" stroke-miterlimit="10" stroke-linejoin="miter" fill="none" stroke="#000080" d="M 171.63143 101.78333 C 171.63143 102.88379 170.73934 103.77588 169.63887 103.77588 C 168.53839 103.77588 167.64632 102.88379 167.64632 101.78333 C 167.64632 100.68285 168.53839 99.79077 169.63887 99.79077 C 170.73934 99.79077 171.63143 100.68285 171.63143 101.78333 Z M 169.63887 101.78333 "/>
<path transform="matrix(1,0,0,-1,9.686,216.68001)" d="M 171.63143 67.85555 C 171.63143 68.95601 170.73934 69.8481 169.63887 69.8481 C 168.53839 69.8481 167.64632 68.95601 167.64632 67.85555 C 167.64632 66.75507 168.53839 65.86299 169.63887 65.86299 C 170.73934 65.86299 171.63143 66.75507 171.63143 67.85555 Z M 169.63887 67.85555 " fill="#000080"/>
<path transform="matrix(1,0,0,-1,9.686,216.68001)" stroke-width="1" stroke-linecap="butt" stroke-miterlimit="10" stroke-linejoin="miter" fill="none" stroke="#000080" d="M 171.63143 67.85555 C 171.63143 68.95601 170.73934 69.8481 169.63887 69.8481 C 168.53839 69.8481 167.64632 68.95601 167.64632 67.85555 C 167.64632 66.75507 168.53839 65.86299 169.63887 65.86299 C 170.73934 65.86299 171.63143 66.75507 171.63143 67.85555 Z M 169.63887 67.85555 "/>
<path transform="matrix(1,0,0,-1,9.686,216.68001)" d="M 222.52309 16.96388 C 222.52309 18.06435 221.631 18.95644 220.53054 18.95644 C 219.43006 18.95644 218.53798 18.06435 218.53798 16.96388 C 218.53798 15.8634 219.43006 14.97133 220.53054 14.97133 C 221.631 14.97133 222.52309 15.8634 222.52309 16.96388 Z M 220.53054 16.96388 " fill="#000080"/>
<path transform="matrix(1,0,0,-1,9.686,216.68001)" stroke-width="1" stroke-linecap="butt" stroke-miterlimit="10" stroke-linejoin="miter" fill="none" stroke="#000080" d="M 222.52309 16.96388 C 222.52309 18.06435 221.631 18.95644 220.53054 18.95644 C 219.43006 18.95644 218.53798 18.06435 218.53798 16.96388 C 218.53798 15.8634 219.43006 14.97133 220.53054 14.97133 C 221.631 14.97133 222.52309 15.8634 222.52309 16.96388 Z M 220.53054 16.96388 "/>
<path transform="matrix(1,0,0,-1,9.686,216.68001)" d="M 120.73976 135.71109 C 120.73976 136.81157 119.84767 137.70365 118.74721 137.70365 C 117.64673 137.70365 116.75465 136.81157 116.75465 135.71109 C 116.75465 134.61063 117.64673 133.71854 118.74721 133.71854 C 119.84767 133.71854 120.73976 134.61063 120.73976 135.71109 Z M 118.74721 135.71109 " fill="#000080"/>
<path transform="matrix(1,0,0,-1,9.686,216.68001)" stroke-width="1" stroke-linecap="butt" stroke-miterlimit="10" stroke-linejoin="miter" fill="none" stroke="#000080" d="M 120.73976 135.71109 C 120.73976 136.81157 119.84767 137.70365 118.74721 137.70365 C 117.64673 137.70365 116.75465 136.81157 116.75465 135.71109 C 116.75465 134.61063 117.64673 133.71854 118.74721 133.71854 C 119.84767 133.71854 120.73976 134.61063 120.73976 135.71109 Z M 118.74721 135.71109 "/>
<path transform="matrix(1,0,0,-1,9.686,216.68001)" d="M 120.73976 67.85555 C 120.73976 68.95601 119.84767 69.8481 118.74721 69.8481 C 117.64673 69.8481 116.75465 68.95601 116.75465 67.85555 C 116.75465 66.75507 117.64673 65.86299 118.74721 65.86299 C 119.84767 65.86299 120.73976 66.75507 120.73976 67.85555 Z M 118.74721 67.85555 " fill="#ffffff"/>
<path transform="matrix(1,0,0,-1,9.686,216.68001)" stroke-width="1" stroke-linecap="butt" stroke-miterlimit="10" stroke-linejoin="miter" fill="none" stroke="#000080" d="M 120.73976 67.85555 C 120.73976 68.95601 119.84767 69.8481 118.74721 69.8481 C 117.64673 69.8481 116.75465 68.95601 116.75465 67.85555 C 116.75465 66.75507 117.64673 65.86299 118.74721 65.86299 C 119.84767 65.86299 120.73976 66.75507 120.73976 67.85555 Z M 118.74721 67.85555 "/>
<path transform="matrix(1,0,0,-1,9.686,216.68001)" d="M 69.8481 101.78333 C 69.8481 102.88379 68.95601 103.77588 67.85555 103.77588 C 66.75507 103.77588 65.86299 102.88379 65.86299 101.78333 C 65.86299 100.68285 66.75507 99.79077 67.85555 99.79077 C 68.95601 99.79077 69.8481 100.68285 69.8481 101.78333 Z M 67.85555 101.78333 " fill="#ffffff"/>
<path transform="matrix(1,0,0,-1,9.686,216.68001)" stroke-width="1" stroke-linecap="butt" stroke-miterlimit="10" stroke-linejoin="miter" fill="none" stroke="#000080" d="M 69.8481 101.78333 C 69.8481 102.88379 68.95601 103.77588 67.85555 103.77588 C 66.75507 103.77588 65.86299 102.88379 65.86299 101.78333 C 65.86299 100.68285 66.75507 99.79077 67.85555 99.79077 C 68.95601 99.79077 69.8481 100.68285 69.8481 101.78333 Z M 67.85555 101.78333 "/>
<path transform="matrix(1,0,0,-1,9.686,216.68001)" d="M 69.8481 135.71109 C 69.8481 136.81157 68.95601 137.70365 67.85555 137.70365 C 66.75507 137.70365 65.86299 136.81157 65.86299 135.71109 C 65.86299 134.61063 66.75507 133.71854 67.85555 133.71854 C 68.95601 133.71854 69.8481 134.61063 69.8481 135.71109 Z M 67.85555 135.71109 " fill="#000080"/>
<path transform="matrix(1,0,0,-1,9.686,216.68001)" stroke-width="1" stroke-linecap="butt" stroke-miterlimit="10" stroke-linejoin="miter" fill="none" stroke="#000080" d="M 69.8481 135.71109 C 69.8481 136.81157 68.95601 137.70365 67.85555 137.70365 C 66.75507 137.70365 65.86299 136.81157 65.86299 135.71109 C 65.86299 134.61063 66.75507 133.71854 67.85555 133.71854 C 68.95601 133.71854 69.8481 134.61063 69.8481 135.71109 Z M 67.85555 135.71109 "/>
<path transform="matrix(1,0,0,-1,9.686,216.68001)" d="M 18.95644 186.60276 C 18.95644 187.70323 18.06435 188.5953 16.96388 188.5953 C 15.8634 188.5953 14.97133 187.70323 14.97133 186.60276 C 14.97133 185.50229 15.8634 184.6102 16.96388 184.6102 C 18.06435 184.6102 18.95644 185.50229 18.95644 186.60276 Z M 16.96388 186.60276 " fill="#000080"/>
<path transform="matrix(1,0,0,-1,9.686,216.68001)" stroke-width="1" stroke-linecap="butt" stroke-miterlimit="10" stroke-linejoin="miter" fill="none" stroke="#000080" d="M 18.95644 186.60276 C 18.95644 187.70323 18.06435 188.5953 16.96388 188.5953 C 15.8634 188.5953 14.97133 187.70323 14.97133 186.60276 C 14.97133 185.50229 15.8634 184.6102 16.96388 184.6102 C 18.06435 184.6102 18.95644 185.50229 18.95644 186.60276 Z M 16.96388 186.60276 "/>
<symbol id="font_3_1">
<path d="M .305 .31300003 C .311 .33900003 .334 .43100003 .404 .43100003 C .409 .43100003 .433 .43100003 .454 .418 C .426 .41300003 .40600003 .388 .40600003 .36400003 C .40600003 .34800003 .417 .32900004 .444 .32900004 C .46600003 .32900004 .498 .34700004 .498 .38700003 C .498 .43900005 .439 .45300005 .405 .45300005 C .347 .45300005 .312 .40000005 .3 .37700004 C .275 .44300003 .221 .45300005 .19200002 .45300005 C .08800001 .45300005 .031000002 .32400004 .031000002 .29900003 C .031000002 .28900004 .041 .28900004 .043000007 .28900004 C .051000008 .28900004 .054000006 .291 .056 .3 C .09 .40600003 .156 .43100003 .19000001 .43100003 C .209 .43100003 .244 .42200003 .244 .36400003 C .244 .33300004 .22700002 .26600004 .19000001 .126 C .17400001 .064 .13900002 .022000002 .095000009 .022000002 C .08900001 .022000002 .06600001 .022000002 .045 .035 C .07000001 .040000004 .09200001 .061 .09200001 .089 C .09200001 .116000007 .07000001 .124000009 .055000009 .124000009 C .025 .124000009 0 .098000008 0 .06600001 C 0 .020000002 .050000006 0 .094000007 0 C .16000001 0 .19600001 .07000001 .19900002 .076000008 C .21100001 .039 .24700003 0 .307 0 C .41 0 .467 .12900001 .467 .15400002 C .467 .16400002 .458 .16400002 .455 .16400002 C .446 .16400002 .444 .16000001 .442 .15300001 C .409 .046 .341 .022000002 .30900003 .022000002 C .27 .022000002 .254 .054 .254 .08800001 C .254 .11000001 .26 .13200002 .271 .17600002 L .305 .31300003 Z "/>
</symbol>
<use xlink:href="#font_3_1" transform="matrix(9.9626,0,0,-9.9626,251.03992,117.12959)"/>
<symbol id="font_3_2">
<path d="M .45700003 .586 C .461 .6 .461 .602 .461 .609 C .461 .62700006 .447 .63600006 .432 .63600006 C .42200003 .63600006 .40600003 .63 .397 .615 C .395 .61 .387 .579 .38300003 .561 C .37600003 .535 .36900003 .508 .363 .48100005 L .318 .301 C .314 .286 .271 .21600002 .20500002 .21600002 C .15400002 .21600002 .143 .26000003 .143 .29700003 C .143 .34300003 .16000001 .40500004 .194 .49300004 C .21000001 .53400006 .21400002 .545 .21400002 .56500008 C .21400002 .61 .18200001 .6470001 .13200002 .6470001 C .037 .6470001 0 .50200006 0 .49300004 C 0 .48300005 .01 .48300005 .012 .48300005 C .022000002 .48300005 .023 .485 .028000003 .50100007 C .055000009 .595 .095000009 .625 .12900001 .625 C .13700001 .625 .15400002 .625 .15400002 .59300008 C .15400002 .568 .14400001 .54200008 .13700001 .523 C .097 .41700004 .079 .36 .079 .31300003 C .079 .224 .142 .194 .201 .194 C .24000003 .194 .274 .21100001 .30200003 .23900002 C .289 .187 .277 .13800001 .237 .08500001 C .21100001 .051 .17300001 .022 .127 .022 C .113000009 .022 .068 .025000006 .051000008 .06400001 C .067 .06400001 .080000009 .06400001 .094000007 .076000008 C .104 .08500001 .11400001 .098000008 .11400001 .117000009 C .11400001 .148 .087000008 .15200001 .07700001 .15200001 C .054000006 .15200001 .021 .136 .021 .087000008 C .021 .037 .065000008 0 .127 0 C .23 0 .333 .091000009 .361 .20400001 L .45700003 .586 Z "/>
</symbol>
<use xlink:href="#font_3_2" transform="matrix(9.9626,0,0,-9.9626,126.127918,9.652334)"/>
</svg>
