<?xml version="1.0" encoding="UTF-8" standalone="no"?>
<!DOCTYPE svg PUBLIC "-//W3C//DTD SVG 1.1//EN" "http://www.w3.org/Graphics/SVG/1.1/DTD/svg11.dtd">
<svg xmlns="http://www.w3.org/2000/svg" xmlns:xlink="http://www.w3.org/1999/xlink" version="1.1" width="265.428pt" height="141.615pt" viewBox="0 0 265.428 141.615">
<path transform="matrix(1,0,0,-1,9.686,134.669)" stroke-width="1" stroke-linecap="butt" stroke-dasharray="2.98883,2.98883" stroke-miterlimit="10" stroke-linejoin="miter" fill="none" stroke="#bfbfbf" d="M 0 0 L 0 121.58542 M 20.26424 0 L 20.26424 121.58542 M 40.52847 0 L 40.52847 121.58542 M 60.79271 0 L 60.79271 121.58542 M 81.05695 0 L 81.05695 121.58542 M 101.32118 0 L 101.32118 121.58542 M 141.84966 0 L 141.84966 121.58542 M 162.11389 0 L 162.11389 121.58542 M 182.37813 0 L 182.37813 121.58542 M 202.64237 0 L 202.64237 121.58542 M 222.9066 0 L 222.9066 121.58542 M 243.17084 0 L 243.17084 121.58542 "/>
<path transform="matrix(1,0,0,-1,9.686,134.669)" stroke-width="1" stroke-linecap="butt" stroke-dasharray="2.98883,2.98883" stroke-miterlimit="10" stroke-linejoin="miter" fill="none" stroke="#bfbfbf" d="M 0 0 L 243.17084 0 M 0 20.26424 L 243.17084 20.26424 M 0 40.52847 L 243.17084 40.52847 M 0 81.05695 L 243.17084 81.05695 M 0 101.32118 L 243.17084 101.32118 M 0 121.58542 L 243.17084 121.58542 "/>
<path transform="matrix(1,0,0,-1,9.686,134.669)" stroke-width="1" stroke-linecap="butt" stroke-miterlimit="10" stroke-linejoin="miter" fill="none" stroke="#808080" d="M 0 58.66669 L 0 62.9187 M 20.26424 58.66669 L 20.26424 62.9187 M 40.52847 58.66669 L 40.52847 62.9187 M 60.79271 58.66669 L 60.79271 62.9187 M 81.05695 58.66669 L 81.05695 62.9187 M 101.32118 58.66669 L 101.32118 62.9187 M 141.84966 58.66669 L 141.84966 62.9187 M 162.11389 58.66669 L 162.11389 62.9187 M 182.37813 58.66669 L 182.37813 62.9187 M 202.64237 58.66669 L 202.64237 62.9187 M 222.9066 58.66669 L 222.9066 62.9187 M 243.17084 58.66669 L 243.17084 62.9187 "/>
<path transform="matrix(1,0,0,-1,9.686,134.669)" stroke-width="1" stroke-linecap="butt" stroke-miterlimit="10" stroke-linejoin="miter" fill="none" stroke="#808080" d="M 119.4594 0 L 123.71141 0 M 119.4594 20.26424 L 123.71141 20.26424 M 119.4594 40.52847 L 123.71141 40.52847 M 119.4594 81.05695 L 123.71141 81.05695 M 119.4594 101.32118 L 123.71141 101.32118 M 119.4594 121.58542 L 123.71141 121.58542 "/>
<path transform="matrix(1,0,0,-1,9.686,134.669)" stroke-width="1" stroke-linecap="butt" stroke-miterlimit="10" stroke-linejoin="miter" fill="none" stroke="#000000" d="M 0 60.79271 L 241.17832 60.79271 "/>
<path transform="matrix(1,0,0,-1,250.86432,73.8763)" d="M 1.99252 0 L -1.19551 1.59401 L 0 0 L -1.19551 -1.59401 "/>
<path transform="matrix(1,0,0,-1,9.686,134.669)" stroke-width="1" stroke-linecap="butt" stroke-miterlimit="10" stroke-linejoin="miter" fill="none" stroke="#000000" d="M 121.58542 0 L 121.58542 119.5929 "/>
<path transform="matrix(0,-1,-1,-0,131.27143,15.076103)" d="M 1.99252 0 L -1.19551 1.59401 L 0 0 L -1.19551 -1.59401 "/>
<symbol id="font_0_1">
<path d="M .57600006 0 C .59300008 0 .611 0 .611 .019999996 C .611 .040000008 .59300008 .040000008 .57600006 .040000008 L .035000005 .040000008 C .018 .040000008 0 .040000008 0 .019999996 C 0 0 .018 0 .035000005 0 L .57600006 0 Z "/>
</symbol>
<use xlink:href="#font_0_1" transform="matrix(9.9626,0,0,-9.9626,4.147896,83.65161)"/>
<symbol id="font_1_6">
<path d="M .089999999 .35000003 L .089999999 .37400005 C .089999999 .62700006 .21400002 .66300007 .26500003 .66300007 C .28900004 .66300007 .33100004 .65700009 .35300002 .623 C .33800004 .623 .298 .623 .298 .57800009 C .298 .54700008 .32200004 .53200009 .344 .53200009 C .36 .53200009 .39000003 .54100009 .39000003 .58000007 C .39000003 .64000007 .34600003 .688 .263 .688 C .13499999 .688 0 .559 0 .33800004 C 0 .071 .116000007 0 .20900002 0 C .32000003 0 .41500003 .094000007 .41500003 .22600001 C .41500003 .35300005 .32600004 .44900004 .215 .44900004 C .14700002 .44900004 .11000001 .39800004 .089999999 .35000003 M .20900002 .028 C .146 .028 .116000007 .088 .11000001 .103 C .092 .15 .092 .23 .092 .24800001 C .092 .32600004 .124000009 .42600004 .21400002 .42600004 C .23000002 .42600004 .27600003 .42600004 .307 .36400003 C .32500003 .32700003 .32500003 .27600003 .32500003 .22700002 C .32500003 .179 .32500003 .12900001 .30800004 .093 C .27800004 .033000005 .23200003 .028 .20900002 .028 Z "/>
</symbol>
<use xlink:href="#font_1_6" transform="matrix(9.9626,0,0,-9.9626,11.48743,86.162189)"/>
<use xlink:href="#font_0_1" transform="matrix(9.9626,0,0,-9.9626,24.411896,83.65161)"/>
<symbol id="font_1_5">
<path d="M .39900003 .223 C .39900003 .34200005 .317 .44200004 .209 .44200004 C .16100002 .44200004 .118000019 .42600004 .082 .39100004 L .082 .586 C .10200001 .58000007 .135 .573 .16700001 .573 C .29 .573 .36 .66400006 .36 .67700007 C .36 .683 .357 .688 .35 .688 C .349 .688 .347 .688 .342 .68500009 C .322 .67600008 .273 .656 .20600002 .656 C .16600001 .656 .120000008 .66300007 .073 .6840001 C .065 .68700006 .06300001 .68700006 .061000009 .68700006 C .051000004 .68700006 .051000004 .679 .051000004 .66300007 L .051000004 .36700005 C .051000004 .34900005 .051000004 .34100003 .065 .34100003 C .07200001 .34100003 .074 .34400005 .07800001 .35000003 C .08900002 .36600004 .12600002 .42000006 .207 .42000006 C .259 .42000006 .284 .37400005 .292 .35600005 C .308 .31900005 .31 .28000004 .31 .23 C .31 .19500001 .31 .135 .286 .093 C .262 .054000006 .22500001 .028 .17900002 .028 C .106000009 .028 .049000008 .08100001 .032 .14000002 C .035 .13900002 .038000008 .13800001 .049000008 .13800001 C .082 .13800001 .09900001 .163 .09900001 .187 C .09900001 .21100001 .082 .23600002 .049000008 .23600002 C .035 .23600002 0 .22900002 0 .18300002 C 0 .097 .069000009 0 .18100001 0 C .297 0 .39900003 .096 .39900003 .223 Z "/>
</symbol>
<use xlink:href="#font_1_5" transform="matrix(9.9626,0,0,-9.9626,31.831131,86.162189)"/>
<use xlink:href="#font_0_1" transform="matrix(9.9626,0,0,-9.9626,44.675897,83.65161)"/>
<symbol id="font_1_4">
<path d="M .266 .165 L .266 .078 C .266 .042000005 .26400004 .031000002 .19000001 .031000002 L .16900002 .031000002 L .16900002 0 C .21000001 .003 .26200003 .003 .30400003 .003 C .34600003 .003 .39900003 .003 .44000004 0 L .44000004 .031000002 L .41900004 .031000002 C .34500004 .031000002 .34300003 .042000005 .34300003 .078 L .34300003 .165 L .44300003 .165 L .44300003 .19600001 L .34300003 .19600001 L .34300003 .651 C .34300003 .671 .34300003 .67700007 .32700003 .67700007 C .31800003 .67700007 .31500004 .67700007 .307 .665 L 0 .19600001 L 0 .165 L .266 .165 M .272 .19600001 L .028 .19600001 L .272 .569 L .272 .19600001 Z "/>
</symbol>
<use xlink:href="#font_1_4" transform="matrix(9.9626,0,0,-9.9626,51.875955,85.94301)"/>
<use xlink:href="#font_0_1" transform="matrix(9.9626,0,0,-9.9626,64.938899,83.65161)"/>
<symbol id="font_1_3">
<path d="M .24800003 .37400005 C .33 .40100003 .388 .47100006 .388 .55 C .388 .632 .3 .688 .204 .688 C .10300001 .688 .027000003 .628 .027000003 .55200007 C .027000003 .519 .049000004 .5 .078 .5 C .109000008 .5 .12900001 .522 .12900001 .55100008 C .12900001 .6010001 .082 .6010001 .067 .6010001 C .098 .65000006 .164 .66300007 .20000002 .66300007 C .24100003 .66300007 .29600004 .64100006 .29600004 .55100008 C .29600004 .53900006 .29400004 .48100005 .268 .43700005 C .238 .38900004 .204 .38600005 .17900002 .38500003 C .171 .38400004 .14700002 .38200004 .14000002 .38200004 C .132 .38100005 .125 .38000003 .125 .37000004 C .125 .35900004 .132 .35900004 .14900002 .35900004 L .19300002 .35900004 C .275 .35900004 .312 .29100005 .312 .193 C .312 .057000005 .24300003 .028 .199 .028 C .15600002 .028 .081 .045 .046000005 .104 C .081 .09900001 .11200001 .12100001 .11200001 .15900001 C .11200001 .19500001 .085 .215 .056 .215 C .031999999 .215 0 .201 0 .157 C 0 .06600001 .093 0 .20200002 0 C .32400004 0 .41500003 .091000009 .41500003 .193 C .41500003 .27500005 .35200004 .35300005 .24800003 .37400005 Z "/>
</symbol>
<use xlink:href="#font_1_3" transform="matrix(9.9626,0,0,-9.9626,72.27943,86.162189)"/>
<use xlink:href="#font_0_1" transform="matrix(9.9626,0,0,-9.9626,85.202899,83.65161)"/>
<symbol id="font_1_2">
<path d="M .07700001 .07700001 L .18300002 .18 C .33900003 .31800003 .39900003 .372 .39900003 .47200004 C .39900003 .586 .30900003 .666 .18700002 .666 C .074 .666 0 .574 0 .485 C 0 .42900003 .05 .42900003 .053000008 .42900003 C .07000001 .42900003 .105000007 .441 .105000007 .48200003 C .105000007 .508 .08700001 .53400006 .052000006 .53400006 C .044000005 .53400006 .042000008 .53400006 .039 .53300008 C .062000004 .59800007 .11600001 .63500007 .17400001 .63500007 C .26500003 .63500007 .308 .554 .308 .47200004 C .308 .39200003 .25800003 .31300003 .20300003 .25100003 L .011000004 .037 C 0 .026 0 .024 0 0 L .37100003 0 L .39900003 .17400001 L .374 .17400001 C .36900003 .14400001 .36200003 .1 .352 .085 C .345 .07700001 .279 .07700001 .257 .07700001 L .07700001 .07700001 Z "/>
</symbol>
<use xlink:href="#font_1_2" transform="matrix(9.9626,0,0,-9.9626,92.62313,85.94301)"/>
<use xlink:href="#font_0_1" transform="matrix(9.9626,0,0,-9.9626,105.466899,83.65161)"/>
<symbol id="font_1_1">
<path d="M .205 .64000007 C .205 .66400006 .205 .666 .18200003 .666 C .120000008 .60200008 .032000007 .60200008 0 .60200008 L 0 .57100006 C .020000004 .57100006 .07900001 .57100006 .13100001 .597 L .13100001 .079 C .13100001 .043 .128 .031000002 .038000004 .031000002 L .0060000049 .031000002 L .0060000049 0 C .04100001 .003 .128 .003 .168 .003 C .20800002 .003 .29500003 .003 .33000005 0 L .33000005 .031000002 L .29800005 .031000002 C .20800002 .031000002 .205 .042000005 .205 .079 L .205 .64000007 Z "/>
</symbol>
<use xlink:href="#font_1_1" transform="matrix(9.9626,0,0,-9.9626,113.27567,85.94301)"/>
<use xlink:href="#font_1_1" transform="matrix(9.9626,0,0,-9.9626,149.92967,85.94301)"/>
<use xlink:href="#font_1_2" transform="matrix(9.9626,0,0,-9.9626,169.80513,85.94301)"/>
<use xlink:href="#font_1_3" transform="matrix(9.9626,0,0,-9.9626,189.98943,86.162189)"/>
<use xlink:href="#font_1_4" transform="matrix(9.9626,0,0,-9.9626,210.11396,85.94301)"/>
<use xlink:href="#font_1_5" transform="matrix(9.9626,0,0,-9.9626,230.59712,86.162189)"/>
<use xlink:href="#font_1_6" transform="matrix(9.9626,0,0,-9.9626,250.78144,86.162189)"/>
<use xlink:href="#font_0_1" transform="matrix(9.9626,0,0,-9.9626,113.720897,135.1726)"/>
<use xlink:href="#font_1_3" transform="matrix(9.9626,0,0,-9.9626,121.060428,137.68318)"/>
<use xlink:href="#font_0_1" transform="matrix(9.9626,0,0,-9.9626,113.720897,114.90861)"/>
<use xlink:href="#font_1_2" transform="matrix(9.9626,0,0,-9.9626,121.14013,117.200008)"/>
<use xlink:href="#font_0_1" transform="matrix(9.9626,0,0,-9.9626,113.720897,94.64461)"/>
<use xlink:href="#font_1_1" transform="matrix(9.9626,0,0,-9.9626,121.52867,96.936008)"/>
<use xlink:href="#font_1_1" transform="matrix(9.9626,0,0,-9.9626,121.52867,56.823007)"/>
<use xlink:href="#font_1_2" transform="matrix(9.9626,0,0,-9.9626,121.14013,36.559007)"/>
<use xlink:href="#font_1_3" transform="matrix(9.9626,0,0,-9.9626,121.060428,16.514183)"/>
<clipPath id="cp2">
<path transform="matrix(1,0,0,-1,9.686,134.669)" d="M 0 0 L 243.17084 0 L 243.17084 121.58542 L 0 121.58542 Z "/>
</clipPath>
<g clip-path="url(#cp2)">
<path transform="matrix(1,0,0,-1,9.686,134.669)" stroke-width="1.19553" stroke-linecap="butt" stroke-miterlimit="10" stroke-linejoin="miter" fill="none" stroke="#000080" d="M 65.85876 14.31282 C 65.85876 14.31282 69.51901 26.98209 70.92482 30.24295 C 72.33063 33.5038 74.58508 36.09097 75.99088 37.81487 C 77.39668 39.53876 79.65114 41.49873 81.05695 42.66756 C 82.46274 43.83636 84.7172 45.34741 86.123 46.23892 C 87.52881 47.13043 89.78326 48.36238 91.18906 49.09294 C 92.59486 49.8235 94.84932 50.87515 96.25511 51.50438 C 97.66092 52.13362 99.91537 53.0653 101.32118 53.62807 C 102.72697 54.19084 104.98143 55.0416 106.38724 55.56041 C 107.79305 56.07922 110.0475 56.87651 111.4533 57.36736 C 112.8591 57.85818 115.11356 58.62282 116.51936 59.09808 C 117.92516 59.57333 120.17961 60.32246 121.58542 60.79271 C 122.99121 61.26294 125.24567 62.01205 126.65147 62.48732 C 128.05728 62.96257 130.31174 63.7272 131.71753 64.21805 C 133.12334 64.7089 135.37779 65.50616 136.7836 66.02498 C 138.18939 66.5438 140.44385 67.39456 141.84966 67.95732 C 143.25547 68.52008 145.5099 69.45177 146.91571 70.08101 C 148.32152 70.71025 150.57598 71.76189 151.98177 72.49245 C 153.38758 73.223 155.64203 74.45497 157.04784 75.34647 C 158.45363 76.23798 160.70809 77.74902 162.11389 78.91785 C 163.5197 80.08665 165.77414 82.04663 167.17995 83.77052 C 168.58576 85.49442 170.84021 88.08159 172.246 91.34245 C 173.65181 94.6033 177.31208 107.27257 177.31208 107.27257 "/>
</g>
<symbol id="font_3_1">
<path d="M .305 .31300003 C .311 .33900003 .334 .43100003 .404 .43100003 C .409 .43100003 .433 .43100003 .454 .418 C .426 .41300003 .40600003 .388 .40600003 .36400003 C .40600003 .34800003 .417 .32900004 .444 .32900004 C .46600003 .32900004 .498 .34700004 .498 .38700003 C .498 .43900005 .439 .45300005 .405 .45300005 C .347 .45300005 .312 .40000005 .3 .37700004 C .275 .44300003 .221 .45300005 .19200002 .45300005 C .08800001 .45300005 .031000002 .32400004 .031000002 .29900003 C .031000002 .28900004 .041 .28900004 .043000007 .28900004 C .051000008 .28900004 .054000006 .291 .056 .3 C .09 .40600003 .156 .43100003 .19000001 .43100003 C .209 .43100003 .244 .42200003 .244 .36400003 C .244 .33300004 .22700002 .26600004 .19000001 .126 C .17400001 .064 .13900002 .022000002 .095000009 .022000002 C .08900001 .022000002 .06600001 .022000002 .045 .035 C .07000001 .040000004 .09200001 .061 .09200001 .089 C .09200001 .116000007 .07000001 .124000009 .055000009 .124000009 C .025 .124000009 0 .098000008 0 .06600001 C 0 .020000002 .050000006 0 .094000007 0 C .16000001 0 .19600001 .07000001 .19900002 .076000008 C .21100001 .039 .24700003 0 .307 0 C .41 0 .467 .12900001 .467 .15400002 C .467 .16400002 .458 .16400002 .455 .16400002 C .446 .16400002 .444 .16000001 .442 .15300001 C .409 .046 .341 .022000002 .30900003 .022000002 C .27 .022000002 .254 .054 .254 .08800001 C .254 .11000001 .26 .13200002 .271 .17600002 L .305 .31300003 Z "/>
</symbol>
<use xlink:href="#font_3_1" transform="matrix(9.9626,0,0,-9.9626,256.7029,76.1216)"/>
<symbol id="font_3_2">
<path d="M .45700003 .586 C .461 .6 .461 .602 .461 .609 C .461 .62700006 .447 .63600006 .432 .63600006 C .42200003 .63600006 .40600003 .63 .397 .615 C .395 .61 .387 .579 .38300003 .561 C .37600003 .535 .36900003 .508 .363 .48100005 L .318 .301 C .314 .286 .271 .21600002 .20500002 .21600002 C .15400002 .21600002 .143 .26000003 .143 .29700003 C .143 .34300003 .16000001 .40500004 .194 .49300004 C .21000001 .53400006 .21400002 .545 .21400002 .56500008 C .21400002 .61 .18200001 .6470001 .13200002 .6470001 C .037 .6470001 0 .50200006 0 .49300004 C 0 .48300005 .01 .48300005 .012 .48300005 C .022000002 .48300005 .023 .485 .028000003 .50100007 C .055000009 .595 .095000009 .625 .12900001 .625 C .13700001 .625 .15400002 .625 .15400002 .59300008 C .15400002 .568 .14400001 .54200008 .13700001 .523 C .097 .41700004 .079 .36 .079 .31300003 C .079 .224 .142 .194 .201 .194 C .24000003 .194 .274 .21100001 .30200003 .23900002 C .289 .187 .277 .13800001 .237 .08500001 C .21100001 .051 .17300001 .022 .127 .022 C .113000009 .022 .068 .025000006 .051000008 .06400001 C .067 .06400001 .080000009 .06400001 .094000007 .076000008 C .104 .08500001 .11400001 .098000008 .11400001 .117000009 C .11400001 .148 .087000008 .15200001 .07700001 .15200001 C .054000006 .15200001 .021 .136 .021 .087000008 C .021 .037 .065000008 0 .127 0 C .23 0 .333 .091000009 .361 .20400001 L .45700003 .586 Z "/>
</symbol>
<use xlink:href="#font_3_2" transform="matrix(9.9626,0,0,-9.9626,128.95592,9.652349)"/>
</svg>
