<?xml version="1.0" encoding="UTF-8" standalone="no"?>
<!DOCTYPE svg PUBLIC "-//W3C//DTD SVG 1.1//EN" "http://www.w3.org/Graphics/SVG/1.1/DTD/svg11.dtd">
<svg xmlns="http://www.w3.org/2000/svg" xmlns:xlink="http://www.w3.org/1999/xlink" version="1.1" width="148.474pt" height="223.659pt" viewBox="0 0 148.474 223.659">
<path transform="matrix(1,0,0,-1,.199,352.412)" stroke-width="1" stroke-linecap="butt" stroke-dasharray="2.98883,2.98883" stroke-miterlimit="10" stroke-linejoin="miter" fill="none" stroke="#bfbfbf" d="M 135.71109 135.70053 L 135.71109 339.26719 "/>
<path transform="matrix(1,0,0,-1,.199,352.412)" stroke-width="1" stroke-linecap="butt" stroke-dasharray="2.98883,2.98883" stroke-miterlimit="10" stroke-linejoin="miter" fill="none" stroke="#bfbfbf" d="M 0 135.70053 L 135.71109 135.70053 M 0 203.55608 L 135.71109 203.55608 M 0 271.41166 L 135.71109 271.41166 M 0 339.26719 L 135.71109 339.26719 "/>
<path transform="matrix(1,0,0,-1,.199,352.412)" stroke-width="1" stroke-linecap="butt" stroke-miterlimit="10" stroke-linejoin="miter" fill="none" stroke="#808080" d="M 135.71109 167.50228 L 135.71109 171.75434 "/>
<path transform="matrix(1,0,0,-1,.199,352.412)" stroke-width="1" stroke-linecap="butt" stroke-miterlimit="10" stroke-linejoin="miter" fill="none" stroke="#808080" d="M 31.80174 135.70053 L 36.05379 135.70053 M 31.80174 203.55608 L 36.05379 203.55608 M 31.80174 271.41166 L 36.05379 271.41166 M 31.80174 339.26719 L 36.05379 339.26719 "/>
<path transform="matrix(1,0,0,-1,.199,352.412)" stroke-width="1" stroke-linecap="butt" stroke-miterlimit="10" stroke-linejoin="miter" fill="none" stroke="#000000" d="M 0 169.62831 L 133.71857 169.62831 "/>
<path transform="matrix(1,0,0,-1,133.91757,182.78368)" d="M 1.99252 0 L -1.19551 1.59401 L 0 0 L -1.19551 -1.59401 "/>
<path transform="matrix(1,0,0,-1,.199,352.412)" stroke-width="1" stroke-linecap="butt" stroke-miterlimit="10" stroke-linejoin="miter" fill="none" stroke="#000000" d="M 33.92776 135.70053 L 33.92776 337.27467 "/>
<path transform="matrix(0,-1,-1,-0,34.126764,15.137329)" d="M 1.99252 0 L -1.19551 1.59401 L 0 0 L -1.19551 -1.59401 "/>
<symbol id="font_0_2">
<path d="M .24800003 .37400005 C .33 .40100003 .388 .47100006 .388 .55 C .388 .632 .3 .688 .204 .688 C .10300001 .688 .027000003 .628 .027000003 .55200007 C .027000003 .519 .049000004 .5 .078 .5 C .109000008 .5 .12900001 .522 .12900001 .55100008 C .12900001 .6010001 .082 .6010001 .067 .6010001 C .098 .65000006 .164 .66300007 .20000002 .66300007 C .24100003 .66300007 .29600004 .64100006 .29600004 .55100008 C .29600004 .53900006 .29400004 .48100005 .268 .43700005 C .238 .38900004 .204 .38600005 .17900002 .38500003 C .171 .38400004 .14700002 .38200004 .14000002 .38200004 C .132 .38100005 .125 .38000003 .125 .37000004 C .125 .35900004 .132 .35900004 .14900002 .35900004 L .19300002 .35900004 C .275 .35900004 .312 .29100005 .312 .193 C .312 .057000005 .24300003 .028 .199 .028 C .15600002 .028 .081 .045 .046000005 .104 C .081 .09900001 .11200001 .12100001 .11200001 .15900001 C .11200001 .19500001 .085 .215 .056 .215 C .031999999 .215 0 .201 0 .157 C 0 .06600001 .093 0 .20200002 0 C .32400004 0 .41500003 .091000009 .41500003 .193 C .41500003 .27500005 .35200004 .35300005 .24800003 .37400005 Z "/>
</symbol>
<use xlink:href="#font_0_2" transform="matrix(9.9626,0,0,-9.9626,133.83643,195.07117)"/>
<symbol id="font_1_1">
<path d="M .57600006 0 C .59300008 0 .611 0 .611 .019999996 C .611 .040000008 .59300008 .040000008 .57600006 .040000008 L .035000005 .040000008 C .018 .040000008 0 .040000008 0 .019999996 C 0 0 .018 0 .035000005 0 L .57600006 0 Z "/>
</symbol>
<use xlink:href="#font_1_1" transform="matrix(9.9626,0,0,-9.9626,16.577897,217.21659)"/>
<symbol id="font_0_1">
<path d="M .205 .64000007 C .205 .66400006 .205 .666 .18200003 .666 C .120000008 .60200008 .032000007 .60200008 0 .60200008 L 0 .57100006 C .020000004 .57100006 .07900001 .57100006 .13100001 .597 L .13100001 .079 C .13100001 .043 .128 .031000002 .038000004 .031000002 L .0060000049 .031000002 L .0060000049 0 C .04100001 .003 .128 .003 .168 .003 C .20800002 .003 .29500003 .003 .33000005 0 L .33000005 .031000002 L .29800005 .031000002 C .20800002 .031000002 .205 .042000005 .205 .079 L .205 .64000007 Z "/>
</symbol>
<use xlink:href="#font_0_1" transform="matrix(9.9626,0,0,-9.9626,24.386672,219.50798)"/>
<use xlink:href="#font_0_1" transform="matrix(9.9626,0,0,-9.9626,24.386672,152.06899)"/>
<use xlink:href="#font_0_2" transform="matrix(9.9626,0,0,-9.9626,23.918429,84.43317)"/>
<symbol id="font_0_4">
<path d="M .39900003 .223 C .39900003 .34200005 .317 .44200004 .209 .44200004 C .16100002 .44200004 .118000019 .42600004 .082 .39100004 L .082 .586 C .10200001 .58000007 .135 .573 .16700001 .573 C .29 .573 .36 .66400006 .36 .67700007 C .36 .683 .357 .688 .35 .688 C .349 .688 .347 .688 .342 .68500009 C .322 .67600008 .273 .656 .20600002 .656 C .16600001 .656 .120000008 .66300007 .073 .6840001 C .065 .68700006 .06300001 .68700006 .061000009 .68700006 C .051000004 .68700006 .051000004 .679 .051000004 .66300007 L .051000004 .36700005 C .051000004 .34900005 .051000004 .34100003 .065 .34100003 C .07200001 .34100003 .074 .34400005 .07800001 .35000003 C .08900002 .36600004 .12600002 .42000006 .207 .42000006 C .259 .42000006 .284 .37400005 .292 .35600005 C .308 .31900005 .31 .28000004 .31 .23 C .31 .19500001 .31 .135 .286 .093 C .262 .054000006 .22500001 .028 .17900002 .028 C .106000009 .028 .049000008 .08100001 .032 .14000002 C .035 .13900002 .038000008 .13800001 .049000008 .13800001 C .082 .13800001 .09900001 .163 .09900001 .187 C .09900001 .21100001 .082 .23600002 .049000008 .23600002 C .035 .23600002 0 .22900002 0 .18300002 C 0 .097 .069000009 0 .18100001 0 C .297 0 .39900003 .096 .39900003 .223 Z "/>
</symbol>
<use xlink:href="#font_0_4" transform="matrix(9.9626,0,0,-9.9626,23.99813,16.578156)"/>
<clipPath id="cp2">
<path transform="matrix(1,0,0,-1,.199,352.412)" d="M 0 135.70053 L 135.71109 135.70053 L 135.71109 339.26719 L 0 339.26719 Z "/>
</clipPath>
<g clip-path="url(#cp2)">
<path transform="matrix(1,0,0,-1,.199,352.412)" stroke-width="1.19553" stroke-linecap="butt" stroke-miterlimit="10" stroke-linejoin="miter" fill="none" stroke="#000080" d="M 33.92776 305.3394 C 33.92776 305.3394 34.2973 305.33598 34.43922 305.3317 C 34.58115 305.32743 34.80876 305.3171 34.9507 305.30857 C 35.09262 305.3 35.32024 305.28285 35.46216 305.27 C 35.6041 305.25718 35.83171 305.23316 35.97363 305.21604 C 36.11555 305.19895 36.34319 305.16804 36.4851 305.14665 C 36.62703 305.12528 36.85463 305.0875 36.99657 305.06184 C 37.13849 305.0362 37.3661 304.99153 37.50803 304.9616 C 37.64996 304.93165 37.87758 304.88017 38.0195 304.84593 C 38.16142 304.8117 38.38905 304.75337 38.53098 304.71488 C 38.6729 304.67637 38.90051 304.61116 39.04245 304.56837 C 39.18437 304.52558 39.41199 304.4535 39.55391 304.40644 C 39.69585 304.35939 39.92345 304.28044 40.06537 304.2291 C 40.20729 304.17778 40.43492 304.09196 40.57684 304.03633 C 40.71877 303.9807 40.94638 303.88807 41.0883 303.82814 C 41.23024 303.76826 41.45786 303.66874 41.59978 303.60456 C 41.7417 303.54039 41.96933 303.434 42.11125 303.3655 C 42.25317 303.29704 42.48079 303.1838 42.62273 303.11109 C 42.76465 303.03834 42.99225 302.9182 43.13417 302.8412 C 43.27611 302.7642 43.50372 302.6372 43.64565 302.5559 C 43.78757 302.4746 44.0152 302.3408 44.15712 302.25523 C 44.29904 302.16966 44.52666 302.02897 44.6686 301.9391 C 44.81052 301.84925 45.03813 301.70167 45.18005 301.60755 C 45.32199 301.5134 45.5496 301.35899 45.69153 301.26057 C 45.83345 301.16215 46.06107 301.00086 46.20299 300.89817 C 46.34491 300.79548 46.57253 300.62733 46.71446 300.52037 C 46.85638 300.4134 47.084 300.23838 47.22592 300.1271 C 47.36786 300.01588 47.59547 299.834 47.7374 299.71846 C 47.87932 299.6029 48.10695 299.41419 48.24887 299.2944 C 48.3908 299.1746 48.6184 298.979 48.76033 298.8549 C 48.90225 298.7308 49.12987 298.52836 49.27179 298.4 C 49.41371 298.2716 49.64134 298.0623 49.78326 297.92964 C 49.92519 297.79698 50.1528 297.58079 50.29474 297.44386 C 50.43666 297.30696 50.66428 297.0839 50.8062 296.9427 C 50.94814 296.80149 51.17574 296.5716 51.31766 296.4261 C 51.45958 296.2806 51.68721 296.04386 51.82913 295.89408 C 51.97105 295.7443 52.19867 295.50068 52.3406 295.34663 C 52.48253 295.19258 52.71014 294.9421 52.85207 294.78376 C 52.994 294.62544 53.22162 294.36808 53.36354 294.20549 C 53.50546 294.04286 53.73308 293.77867 53.875 293.61177 C 54.01692 293.4449 54.24454 293.1738 54.38647 293.00267 C 54.5284 292.83149 54.75601 292.55354 54.89793 292.3781 C 55.03987 292.20265 55.26749 291.91783 55.40941 291.7381 C 55.55133 291.5584 55.77896 291.26676 55.92088 291.08274 C 56.0628 290.89875 56.29042 290.6002 56.43236 290.4119 C 56.57428 290.22364 56.80188 289.91825 56.9438 289.72569 C 57.08574 289.5331 57.31335 289.22087 57.45528 289.02403 C 57.5972 288.8272 57.82483 288.50807 57.96675 288.30696 C 58.10867 288.10585 58.33629 287.77986 58.47821 287.57447 C 58.62015 287.36906 58.84776 287.03623 58.98969 286.82655 C 59.1316 286.61689 59.35924 286.27717 59.50116 286.0632 C 59.64308 285.84928 59.87068 285.5027 60.01262 285.28446 C 60.15454 285.06623 60.38216 284.71278 60.52408 284.49028 C 60.66602 284.26777 60.89363 283.90748 61.03555 283.68067 C 61.17747 283.45387 61.4051 283.08674 61.54703 282.85566 C 61.68895 282.62458 61.91656 282.25056 62.0585 282.0152 C 62.20042 281.77986 62.42804 281.399 62.56996 281.15937 C 62.7119 280.9197 62.9395 280.53199 63.08142 280.28807 C 63.22334 280.04414 63.45097 279.64955 63.5929 279.40135 C 63.73482 279.15318 63.96243 278.7517 64.10437 278.49925 C 64.24629 278.24678 64.4739 277.83845 64.61583 277.58168 C 64.75777 277.32496 64.98538 276.90974 65.1273 276.6487 C 65.26923 276.38768 65.49686 275.9656 65.63878 275.70033 C 65.7807 275.435 66.0083 275.0061 66.15024 274.7365 C 66.29216 274.46693 66.51978 274.03117 66.6617 273.7573 C 66.80362 273.48344 67.03125 273.0408 67.17317 272.76264 C 67.3151 272.48448 67.54271 272.035 67.68465 271.75257 C 67.82657 271.47016 68.05418 271.01374 68.1961 270.72703 C 68.33804 270.4403 68.56564 269.97718 68.70757 269.6862 C 68.84949 269.3952 69.07712 268.9251 69.21904 268.62986 C 69.36096 268.3346 69.58856 267.8577 69.7305 267.55815 C 69.87242 267.2586 70.10004 266.77479 70.24196 266.47096 C 70.3839 266.1671 70.6115 265.6764 70.75342 265.3683 C 70.89534 265.0602 71.12297 264.5627 71.2649 264.2503 C 71.40681 263.93797 71.63441 263.43354 71.77635 263.11689 C 71.91827 262.80027 72.14589 262.28907 72.28781 261.9681 C 72.42975 261.6472 72.65736 261.129 72.79929 260.80378 C 72.94121 260.47853 73.16882 259.95353 73.31075 259.62403 C 73.45267 259.29454 73.68028 258.76277 73.82222 258.429 C 73.96414 258.0952 74.19174 257.55644 74.33366 257.2184 C 74.4756 256.88035 74.70322 256.33488 74.84514 255.99256 C 74.98706 255.65024 75.21468 255.09775 75.3566 254.75112 C 75.49852 254.40448 75.72614 253.84514 75.86807 253.49425 C 76.01 253.14336 76.2376 252.57727 76.37952 252.2221 C 76.52144 251.86695 76.74907 251.29389 76.89099 250.93445 C 77.03291 250.57501 77.26053 249.99518 77.40247 249.63146 C 77.54439 249.26773 77.77199 248.68096 77.91391 248.31293 C 78.05585 247.9449 78.28346 247.35126 78.42538 246.97898 C 78.5673 246.6067 78.79492 246.00629 78.93684 245.62972 C 79.07877 245.25315 79.30638 244.64575 79.44832 244.26491 C 79.59024 243.88407 79.81784 243.26995 79.95976 242.88483 C 80.1017 242.49971 80.32932 241.87865 80.47124 241.48923 C 80.61316 241.09981 80.84077 240.4718 80.9827 240.07814 C 81.12462 239.68447 81.35223 239.04978 81.49417 238.65183 C 81.6361 238.25386 81.8637 237.6121 82.00562 237.20989 C 82.14755 236.80765 82.37517 236.15924 82.51709 235.75273 C 82.65901 235.3462 82.88664 234.6908 83.02856 234.27999 C 83.17049 233.86916 83.39809 233.20688 83.54002 232.79181 C 83.68195 232.37674 83.90956 231.70772 84.05148 231.28836 C 84.19342 230.86902 84.42102 230.19303 84.56294 229.7694 C 84.70486 229.34577 84.9325 228.663 85.07442 228.23509 C 85.21634 227.80719 85.44394 227.11748 85.58588 226.68527 C 85.7278 226.25305 85.95541 225.55643 86.09734 225.11997 C 86.23926 224.6835 86.46687 223.98018 86.6088 223.53943 C 86.75072 223.09868 86.97833 222.38834 87.12027 221.94332 C 87.26219 221.49829 87.48979 220.78125 87.63171 220.33194 C 87.77365 219.88263 88.00127 219.15857 88.14319 218.70497 C 88.28511 218.25138 88.51274 217.5205 88.65466 217.06262 C 88.79659 216.60475 89.02419 215.8671 89.16612 215.40496 C 89.30804 214.94281 89.53566 214.19818 89.67758 213.73177 C 89.81952 213.26535 90.04712 212.51399 90.18904 212.0433 C 90.33096 211.5726 90.5586 210.81421 90.70052 210.3392 C 90.84244 209.8642 91.07004 209.09899 91.21198 208.61972 C 91.3539 208.14046 91.58151 207.36849 91.72343 206.88497 C 91.86537 206.40143 92.09297 205.6225 92.2349 205.13469 C 92.37682 204.64687 92.60445 203.86116 92.74637 203.36908 C 92.88829 202.877 93.1159 202.08435 93.25784 201.58795 C 93.39977 201.09157 93.62737 200.292 93.76929 199.79134 C 93.91122 199.29068 94.13884 198.48442 94.28076 197.97949 C 94.42268 197.47457 94.6503 196.66129 94.79222 196.15209 C 94.93414 195.64287 95.16176 194.82288 95.30368 194.30939 C 95.44562 193.7959 95.67322 192.96892 95.81514 192.45113 C 95.95706 191.93334 96.1847 191.09947 96.32661 190.57743 C 96.46854 190.05538 96.69614 189.21483 96.83807 188.68849 C 96.98 188.16217 97.20761 187.31456 97.34953 186.78395 C 97.49147 186.25334 97.71907 185.39905 97.861 184.86417 C 98.00291 184.32929 98.23055 183.468 98.37247 182.9288 C 98.51439 182.3896 98.742 181.52143 98.88394 180.97798 C 99.02586 180.43454 99.25346 179.5597 99.39539 179.01197 C 99.53732 178.46424 99.76494 177.58229 99.90686 177.03029 C 100.04878 176.47827 100.2764 175.5897 100.41832 175.03342 C 100.56024 174.47713 100.78786 173.58152 100.9298 173.02094 C 101.07172 172.46035 101.29932 171.55785 101.44124 170.993 C 101.58318 170.42816 101.81079 169.51903 101.95271 168.94992 C 102.09464 168.3808 102.32225 167.46453 102.46417 166.89113 C 102.6061 166.31772 102.83371 165.39485 102.97565 164.81719 C 103.11757 164.2395 103.34517 163.30956 103.48709 162.72757 C 103.62903 162.14557 103.85664 161.20879 103.99857 160.62255 C 104.14049 160.03632 104.36812 159.09285 104.51004 158.50232 C 104.65196 157.9118 104.87956 156.96126 105.02148 156.36646 C 105.16342 155.77167 105.39104 154.81446 105.53296 154.21538 C 105.67488 153.61632 105.9025 152.6521 106.04442 152.04872 C 106.18634 151.44535 106.41396 150.47422 106.5559 149.86656 C 106.69781 149.25893 106.92542 148.28118 107.06734 147.66927 C 107.20927 147.05735 107.43689 146.07247 107.57881 145.45627 C 107.72073 144.84006 107.94835 143.84856 108.09027 143.22809 C 108.2322 142.60762 108.45981 141.60909 108.60175 140.9843 C 108.74367 140.35951 108.97128 139.3541 109.1132 138.72507 C 109.25514 138.09604 109.48274 137.08391 109.62466 136.4506 C 109.76659 135.8173 109.99422 134.79817 110.13614 134.16059 C 110.27806 133.523 110.50566 132.49715 110.6476 131.85529 C 110.78952 131.21341 111.01714 130.18058 111.15906 129.5344 C 111.301 128.88822 111.5286 127.84846 111.67052 127.19803 C 111.81244 126.54759 112.04007 125.5012 112.18199 124.8465 C 112.32391 124.19179 112.55151 123.13829 112.69345 122.47932 C 112.83537 121.82034 113.06299 120.76025 113.20491 120.09698 C 113.34685 119.43373 113.57445 118.36655 113.71637 117.69897 C 113.85829 117.03139 114.08592 115.95734 114.22784 115.28552 C 114.36977 114.6137 114.59738 113.533 114.7393 112.8569 C 114.88124 112.18079 115.10884 111.09297 115.25076 110.41258 C 115.39268 109.73221 115.62032 108.63777 115.76224 107.95313 C 115.90416 107.26846 116.13176 106.16698 116.2737 105.47801 C 116.41562 104.78903 116.64323 103.68063 116.78516 102.98743 C 116.9271 102.2942 117.1547 101.17923 117.29662 100.48172 C 117.43854 99.78423 117.66617 98.6621 117.80809 97.96033 C 117.95001 97.25856 118.17761 96.12982 118.31955 95.42377 C 118.46147 94.71771 118.68909 93.5819 118.83101 92.87152 C 118.97295 92.16115 119.20055 91.01846 119.34247 90.30385 C 119.48439 89.58923 119.71202 88.43996 119.85394 87.72107 C 119.99586 87.00218 120.22348 85.8457 120.36542 85.12253 C 120.50734 84.39935 120.73494 83.23634 120.87686 82.5089 C 121.0188 81.78145 121.24641 80.61134 121.38834 79.87956 C 121.53026 79.14778 121.75787 77.97076 121.8998 77.23476 C 122.04172 76.49875 122.26933 75.31516 122.41127 74.57487 C 122.55319 73.83461 122.78079 72.64383 122.92271 71.89928 C 123.06465 71.15471 123.29227 69.95734 123.43419 69.2085 C 123.57611 68.45964 123.80373 67.25519 123.94565 66.50201 C 124.08757 65.74886 124.31519 64.53757 124.4571 63.78018 C 124.59904 63.02278 124.82666 61.80486 124.96858 61.04315 C 125.1105 60.28146 125.33812 59.05638 125.48004 58.2904 C 125.62196 57.52444 125.84958 56.29279 125.99152 55.52254 C 126.13344 54.7523 126.36104 53.51355 126.50296 52.739 C 126.6449 51.96445 126.87251 50.71881 127.01443 49.94002 C 127.15636 49.16121 127.38397 47.909 127.5259 47.12593 C 127.66782 46.34286 127.89543 45.08345 128.03737 44.2961 C 128.17929 43.50874 128.40689 42.24277 128.54882 41.45114 C 128.69075 40.65952 128.91837 39.38646 129.06029 38.5905 C 129.20221 37.79454 129.42983 36.51459 129.57175 35.71439 C 129.71367 34.91418 129.94129 33.62762 130.08322 32.82315 C 130.22515 32.01868 130.45276 30.72498 130.59468 29.91623 C 130.73662 29.10748 130.96422 27.80722 131.10614 26.99419 C 131.24806 26.18115 131.4757 24.87378 131.61762 24.05643 C 131.75954 23.23907 131.98714 21.92482 132.12908 21.10323 C 132.271 20.28163 132.49861 18.96078 132.64054 18.1349 C 132.78247 17.30902 133.01007 15.981 133.152 15.15085 C 133.29392 14.3207 133.52153 12.98615 133.66347 12.15172 C 133.80539 11.3173 134.03299 9.97557 134.17491 9.13683 C 134.31685 8.29807 134.54447 6.94951 134.68639 6.10654 C 134.82831 5.26355 135.05593 3.90839 135.19785 3.06113 C 135.33977 2.21385 135.70932 0 135.70932 0 "/>
<symbol id="font_3_2">
<path d="M .45700003 .586 C .461 .6 .461 .602 .461 .609 C .461 .62700006 .447 .63600006 .432 .63600006 C .42200003 .63600006 .40600003 .63 .397 .615 C .395 .61 .387 .579 .38300003 .561 C .37600003 .535 .36900003 .508 .363 .48100005 L .318 .301 C .314 .286 .271 .21600002 .20500002 .21600002 C .15400002 .21600002 .143 .26000003 .143 .29700003 C .143 .34300003 .16000001 .40500004 .194 .49300004 C .21000001 .53400006 .21400002 .545 .21400002 .56500008 C .21400002 .61 .18200001 .6470001 .13200002 .6470001 C .037 .6470001 0 .50200006 0 .49300004 C 0 .48300005 .01 .48300005 .012 .48300005 C .022000002 .48300005 .023 .485 .028000003 .50100007 C .055000009 .595 .095000009 .625 .12900001 .625 C .13700001 .625 .15400002 .625 .15400002 .59300008 C .15400002 .568 .14400001 .54200008 .13700001 .523 C .097 .41700004 .079 .36 .079 .31300003 C .079 .224 .142 .194 .201 .194 C .24000003 .194 .274 .21100001 .30200003 .23900002 C .289 .187 .277 .13800001 .237 .08500001 C .21100001 .051 .17300001 .022 .127 .022 C .113000009 .022 .068 .025000006 .051000008 .06400001 C .067 .06400001 .080000009 .06400001 .094000007 .076000008 C .104 .08500001 .11400001 .098000008 .11400001 .117000009 C .11400001 .148 .087000008 .15200001 .07700001 .15200001 C .054000006 .15200001 .021 .136 .021 .087000008 C .021 .037 .065000008 0 .127 0 C .23 0 .333 .091000009 .361 .20400001 L .45700003 .586 Z "/>
</symbol>
<use xlink:href="#font_3_2" transform="matrix(9.9626,0,0,-9.9626,72.003917,76.67832)" fill="#000080"/>
<symbol id="font_0_5">
<path d="M .63100007 .19400002 C .646 .19400002 .665 .19400002 .665 .214 C .665 .23400001 .646 .23400001 .632 .23400001 L .033 .23400001 C .019000002 .23400001 0 .23400001 0 .214 C 0 .19400002 .019000002 .19400002 .034 .19400002 L .63100007 .19400002 M .632 0 C .646 0 .665 0 .665 .02000001 C .665 .040000008 .646 .040000008 .63100007 .040000008 L .034 .040000008 C .019000002 .040000008 0 .040000008 0 .02000001 C 0 0 .019000002 0 .033 0 L .632 0 Z "/>
</symbol>
<symbol id="font_0_3">
<path d="M .266 .165 L .266 .078 C .266 .042000005 .26400004 .031000002 .19000001 .031000002 L .16900002 .031000002 L .16900002 0 C .21000001 .003 .26200003 .003 .30400003 .003 C .34600003 .003 .39900003 .003 .44000004 0 L .44000004 .031000002 L .41900004 .031000002 C .34500004 .031000002 .34300003 .042000005 .34300003 .078 L .34300003 .165 L .44300003 .165 L .44300003 .19600001 L .34300003 .19600001 L .34300003 .651 C .34300003 .671 .34300003 .67700007 .32700003 .67700007 C .31800003 .67700007 .31500004 .67700007 .307 .665 L 0 .19600001 L 0 .165 L .266 .165 M .272 .19600001 L .028 .19600001 L .272 .569 L .272 .19600001 Z "/>
</symbol>
<use xlink:href="#font_0_5" transform="matrix(9.9626,0,0,-9.9626,80.281909,73.31096)" fill="#000080"/>
<use xlink:href="#font_0_3" transform="matrix(9.9626,0,0,-9.9626,90.52345,74.63599)" fill="#000080"/>
<use xlink:href="#font_1_1" transform="matrix(9.9626,0,0,-9.9626,98.261898,72.34459)" fill="#000080"/>
<symbol id="font_3_1">
<path d="M .305 .31300003 C .311 .33900003 .334 .43100003 .404 .43100003 C .409 .43100003 .433 .43100003 .454 .418 C .426 .41300003 .40600003 .388 .40600003 .36400003 C .40600003 .34800003 .417 .32900004 .444 .32900004 C .46600003 .32900004 .498 .34700004 .498 .38700003 C .498 .43900005 .439 .45300005 .405 .45300005 C .347 .45300005 .312 .40000005 .3 .37700004 C .275 .44300003 .221 .45300005 .19200002 .45300005 C .08800001 .45300005 .031000002 .32400004 .031000002 .29900003 C .031000002 .28900004 .041 .28900004 .043000007 .28900004 C .051000008 .28900004 .054000006 .291 .056 .3 C .09 .40600003 .156 .43100003 .19000001 .43100003 C .209 .43100003 .244 .42200003 .244 .36400003 C .244 .33300004 .22700002 .26600004 .19000001 .126 C .17400001 .064 .13900002 .022000002 .095000009 .022000002 C .08900001 .022000002 .06600001 .022000002 .045 .035 C .07000001 .040000004 .09200001 .061 .09200001 .089 C .09200001 .116000007 .07000001 .124000009 .055000009 .124000009 C .025 .124000009 0 .098000008 0 .06600001 C 0 .020000002 .050000006 0 .094000007 0 C .16000001 0 .19600001 .07000001 .19900002 .076000008 C .21100001 .039 .24700003 0 .307 0 C .41 0 .467 .12900001 .467 .15400002 C .467 .16400002 .458 .16400002 .455 .16400002 C .446 .16400002 .444 .16000001 .442 .15300001 C .409 .046 .341 .022000002 .30900003 .022000002 C .27 .022000002 .254 .054 .254 .08800001 C .254 .11000001 .26 .13200002 .271 .17600002 L .305 .31300003 Z "/>
</symbol>
<use xlink:href="#font_3_1" transform="matrix(9.9626,0,0,-9.9626,107.68691,74.745578)" fill="#000080"/>
<symbol id="font_4_1">
<path d="M .442 .18200001 L .40800003 .18200001 C .40500004 .16000001 .39500005 .101 .38200004 .091000009 C .374 .085 .29700003 .085 .28300003 .085 L .099 .085 C .20400003 .178 .23900002 .20600002 .29900003 .25300003 C .37300004 .312 .442 .374 .442 .469 C .442 .59000006 .33600004 .66400006 .20800004 .66400006 C .084 .66400006 0 .577 0 .485 C 0 .43400003 .043000007 .42900003 .053000004 .42900003 C .077 .42900003 .10600001 .446 .10600001 .48200003 C .10600001 .5 .099 .535 .047000007 .535 C .078 .606 .146 .628 .19300002 .628 C .293 .628 .34500004 .55 .34500004 .469 C .34500004 .38200004 .28300003 .31300003 .25100003 .277 L .010000005 .039 C 0 .030000002 0 .028 0 0 L .41200004 0 L .442 .18200001 Z "/>
</symbol>
<use xlink:href="#font_4_1" transform="matrix(6.9738,0,0,-6.9738,113.53134,70.52298)" fill="#000080"/>
<path transform="matrix(1,0,0,-1,.199,352.412)" stroke-width="1.19553" stroke-linecap="butt" stroke-miterlimit="10" stroke-linejoin="miter" fill="none" stroke="#ff0000" d="M 84.81943 169.62831 L 84.81943 229.0019 "/>
<symbol id="font_5_1">
<path d="M .162 .00999999 C .162 .0119999949 .162 .013999984 .15200001 .024999991 C .12799999 .054999994 .055000009 .145 .055000009 .338 C .055000009 .393 .063999999 .762 .312 .97400006 C .324 .985 .32500003 .98600009 .32500003 .99 C .32500003 .99700006 .321 1 .31500004 1 C .305 1 .257 .96300008 .20200002 .907 C .09900001 .801 0 .592 0 .36900003 C 0 .303 .010000005 .21700001 .046000005 .137 C .078999999 .06299999 .13800001 0 .15200001 0 C .15799999 0 .162 .003999993 .162 .00999999 Z "/>
</symbol>
<symbol id="font_5_4">
<path d="M .25700004 .21000001 C .252 .20400001 .158 .106000009 .14900002 .098000008 C .123 .071 .082 .032 .005000001 .031000002 C .0040000008 .023000002 .0010000002 .009000001 0 0 C .028000003 .002 .055 .003 .083000008 .003 C .11900001 .003 .16600001 .001 .17800002 0 L .18300002 .030000002 C .17600002 .031000002 .15900001 .032 .15900001 .056 C .15900001 .072000008 .17100002 .08800001 .17900002 .096 L .26900003 .18900001 L .328 .091000009 C .335 .081 .34500004 .063 .34500004 .059000005 C .34500004 .049000004 .33600004 .032 .305 .031000002 L .3 0 C .33 .001 .38600005 .003 .40900005 .003 C .43500004 .003 .47600005 .002 .503 0 L .509 .031000002 C .46200005 .031000002 .441 .031000002 .42200003 .057000005 C .41900004 .063 .39200003 .10700001 .36900003 .14500001 L .31500004 .23600002 L .42100004 .34600003 C .47400005 .395 .525 .4 .553 .4 C .555 .41000004 .556 .42100004 .558 .43100003 C .53000006 .42900003 .503 .42800004 .47500003 .42800004 C .43900005 .42800004 .39200003 .43 .38000003 .43100003 L .37500004 .40100003 C .38200004 .4 .39900003 .39900003 .39900003 .37500004 C .39900003 .354 .38300003 .33800004 .35500003 .31100003 C .35200004 .307 .31000004 .264 .30300004 .256 L .24400002 .354 C .23500002 .367 .23500002 .36900003 .23500002 .372 C .23500002 .38300003 .24600002 .39800004 .275 .4 C .27600003 .40800003 .279 .42200003 .28000004 .43100003 C .254 .43 .18800001 .42800004 .17200002 .42800004 C .14000002 .42800004 .101 .43 .077 .43100003 L .072000008 .4 C .12900001 .4 .14400001 .39800004 .16600001 .36200003 L .25700004 .21000001 Z "/>
</symbol>
<symbol id="font_5_3">
<path d="M .11200001 .21000001 C .102000009 .121 .053000004 .061000006 .0060000049 .019999996 C .0029999987 .017999992 0 .015000001 0 .0109999929 C 0 .004999995 .0050000029 0 .011 0 C .024999999 0 .13500002 .103 .13500002 .22600001 C .13500002 .238 .13500002 .29900003 .084 .29900003 C .046000005 .29900003 .023000002 .26700003 .023000002 .238 C .023000002 .21900001 .035000005 .193 .07 .193 C .08900001 .193 .10500001 .202 .11200001 .21000001 Z "/>
</symbol>
<symbol id="font_5_5">
<path d="M .47500003 .541 C .499 .582 .52800008 .60300007 .577 .605 L .5820001 .63600006 C .55100008 .633 .53700008 .633 .508 .633 C .48200003 .633 .43600003 .635 .42200003 .63600006 L .416 .60600009 C .423 .60600009 .45700003 .602 .45700003 .57000008 C .45700003 .55700007 .449 .544 .444 .535 L .303 .29200004 L .23700002 .56000009 C .23600002 .564 .23400001 .57100006 .23400001 .57500007 C .23400001 .605 .276 .605 .29500003 .605 C .296 .61300006 .299 .62700006 .3 .63600006 C .27 .635 .21400002 .633 .19100002 .633 C .16100002 .633 .12100001 .63400009 .095000009 .63600006 L .089 .605 C .15 .605 .15500002 .6 .16300002 .569 L .24900002 .22100002 C .25100003 .21200001 .252 .20800002 .252 .20600002 C .252 .20300001 .20000002 .11100001 .18200001 .087000008 C .15900001 .055000009 .12500002 .022 .084 .022 C .072000008 .022 .053 .025000006 .039 .040000008 C .074 .044 .086 .07100001 .086 .09000001 C .086 .11600001 .066 .12400001 .05 .12400001 C .028 .12400001 0 .10700001 0 .07000001 C 0 .029 .035 0 .080000009 0 C .16100002 0 .21900001 .10000001 .22500003 .11000001 L .47500003 .541 Z "/>
</symbol>
<symbol id="font_5_2">
<path d="M .32500003 .63 C .32500003 .675 .32100005 .753 .29100005 .83500006 C .25300003 .93700006 .185 1 .17400001 1 C .168 1 .163 .99700006 .163 .99 C .163 .98700007 .164 .985 .171 .97700008 C .24300002 .893 .27 .78300008 .27 .661 C .27 .523 .228 .205 .014 .026999996 C .0010000002 .013999984 0 .012999982 0 .00999999 C 0 .0029999912 .0040000008 0 .01 0 C .024 0 .089 .058 .111 .08 C .29000003 .268 .32500003 .508 .32500003 .63 Z "/>
</symbol>
<use xlink:href="#font_5_1" transform="matrix(9.9626,0,0,-9.9626,90.221179,119.49463)" fill="#ff0000"/>
<use xlink:href="#font_5_4" transform="matrix(9.9626,0,0,-9.9626,92.931,117.00398)" fill="#ff0000"/>
<use xlink:href="#font_5_3" transform="matrix(9.9626,0,0,-9.9626,98.779048,118.926769)" fill="#ff0000"/>
<use xlink:href="#font_5_5" transform="matrix(9.9626,0,0,-9.9626,100.81142,119.04632)" fill="#ff0000"/>
<use xlink:href="#font_5_2" transform="matrix(9.9626,0,0,-9.9626,106.27092,119.49463)" fill="#ff0000"/>
<path transform="matrix(1,0,0,-1,.199,352.412)" stroke-width="1.19553" stroke-linecap="butt" stroke-miterlimit="10" stroke-linejoin="miter" fill="none" stroke="#ff0000" d="M 33.92776 169.62831 L 84.81943 169.62831 "/>
<path transform="matrix(1,0,0,-1,.199,352.412)" stroke-width="1.19553" stroke-linecap="butt" stroke-miterlimit="10" stroke-linejoin="miter" fill="none" stroke="#ff0000" d="M 33.92776 169.62831 L 84.81943 229.0019 "/>
</g>
<use xlink:href="#font_3_1" transform="matrix(9.9626,0,0,-9.9626,139.74791,185.00157)"/>
<use xlink:href="#font_3_2" transform="matrix(9.9626,0,0,-9.9626,31.802916,9.652319)"/>
</svg>
