<?xml version="1.0" encoding="UTF-8" standalone="no"?>
<!DOCTYPE svg PUBLIC "-//W3C//DTD SVG 1.1//EN" "http://www.w3.org/Graphics/SVG/1.1/DTD/svg11.dtd">
<svg xmlns="http://www.w3.org/2000/svg" xmlns:xlink="http://www.w3.org/1999/xlink" version="1.1" width="219.026pt" height="136.593pt" viewBox="0 0 219.026 136.593">
<path transform="matrix(1,0,0,-1,12.176,129.647)" stroke-width="1" stroke-linecap="butt" stroke-miterlimit="10" stroke-linejoin="miter" fill="none" stroke="#808080" d="M 0 56.1558 L 0 60.40746 M 19.42722 56.1558 L 19.42722 60.40746 M 38.85443 56.1558 L 38.85443 60.40746 M 58.28165 56.1558 L 58.28165 60.40746 M 77.70886 56.1558 L 77.70886 60.40746 M 116.5633 56.1558 L 116.5633 60.40746 M 135.99051 56.1558 L 135.99051 60.40746 M 155.41773 56.1558 L 155.41773 60.40746 M 174.84494 56.1558 L 174.84494 60.40746 M 194.27216 56.1558 L 194.27216 60.40746 "/>
<path transform="matrix(1,0,0,-1,12.176,129.647)" stroke-width="1" stroke-linecap="butt" stroke-miterlimit="10" stroke-linejoin="miter" fill="none" stroke="#808080" d="M 95.01024 0 L 99.26189 0 M 95.01024 19.42722 L 99.26189 19.42722 M 95.01024 38.85443 L 99.26189 38.85443 M 95.01024 77.70886 L 99.26189 77.70886 M 95.01024 97.13608 L 99.26189 97.13608 M 95.01024 116.5633 L 99.26189 116.5633 "/>
<path transform="matrix(1,0,0,-1,12.176,129.647)" stroke-width="1" stroke-linecap="butt" stroke-miterlimit="10" stroke-linejoin="miter" fill="none" stroke="#000000" d="M 0 58.28165 L 192.27964 58.28165 "/>
<path transform="matrix(1,0,0,-1,204.45563,71.36536)" d="M 1.99252 0 L -1.19551 1.59401 L 0 0 L -1.19551 -1.59401 "/>
<path transform="matrix(1,0,0,-1,12.176,129.647)" stroke-width="1" stroke-linecap="butt" stroke-miterlimit="10" stroke-linejoin="miter" fill="none" stroke="#000000" d="M 97.13608 0 L 97.13608 114.57077 "/>
<path transform="matrix(0,-1,-1,-0,109.31208,15.076233)" d="M 1.99252 0 L -1.19551 1.59401 L 0 0 L -1.19551 -1.59401 "/>
<symbol id="font_0_1">
<path d="M .57600006 0 C .59300008 0 .611 0 .611 .019999996 C .611 .040000008 .59300008 .040000008 .57600006 .040000008 L .035000005 .040000008 C .018 .040000008 0 .040000008 0 .019999996 C 0 0 .018 0 .035000005 0 L .57600006 0 Z "/>
</symbol>
<use xlink:href="#font_0_1" transform="matrix(9.9626,0,0,-9.9626,4.147896,81.14061)"/>
<symbol id="font_1_2">
<path d="M .205 .64000007 C .205 .66400006 .205 .666 .18200003 .666 C .120000008 .60200008 .032000007 .60200008 0 .60200008 L 0 .57100006 C .020000004 .57100006 .07900001 .57100006 .13100001 .597 L .13100001 .079 C .13100001 .043 .128 .031000002 .038000004 .031000002 L .0060000049 .031000002 L .0060000049 0 C .04100001 .003 .128 .003 .168 .003 C .20800002 .003 .29500003 .003 .33000005 0 L .33000005 .031000002 L .29800005 .031000002 C .20800002 .031000002 .205 .042000005 .205 .079 L .205 .64000007 Z "/>
</symbol>
<symbol id="font_1_1">
<path d="M .421 .34200005 C .421 .42200003 .416 .50200006 .381 .57600006 C .335 .67200008 .25300003 .688 .211 .688 C .15100001 .688 .07800001 .66200008 .037000006 .56900009 C .0050000029 .5 0 .42200003 0 .34200005 C 0 .26700003 .0040000008 .177 .045000007 .101 C .088 .020000002 .161 0 .21000001 0 C .264 0 .34 .021000002 .384 .116000007 C .416 .185 .421 .263 .421 .34200005 M .21000001 .022000002 C .171 .022000002 .112 .047000003 .094 .143 C .083000008 .20300001 .083000008 .29500003 .083000008 .35400004 C .083000008 .41800005 .083000008 .48400004 .091000009 .53800007 C .11 .65700009 .185 .66600009 .21000001 .66600009 C .243 .66600009 .30900003 .64800009 .328 .549 C .338 .49300004 .338 .41700004 .338 .35400004 C .338 .279 .338 .21100001 .32700003 .147 C .312 .052 .255 .022000002 .21000001 .022000002 Z "/>
</symbol>
<use xlink:href="#font_1_2" transform="matrix(9.9626,0,0,-9.9626,11.955671,83.43201)"/>
<use xlink:href="#font_1_1" transform="matrix(9.9626,0,0,-9.9626,16.438843,83.651187)"/>
<use xlink:href="#font_0_1" transform="matrix(9.9626,0,0,-9.9626,26.064896,81.14061)"/>
<symbol id="font_1_6">
<path d="M .121 .47900004 C .075 .509 .071 .54300007 .071 .56000009 C .071 .62100008 .136 .66300007 .20700002 .66300007 C .28000004 .66300007 .344 .61100009 .344 .53900006 C .344 .48200003 .305 .43400005 .245 .39900003 L .121 .47900004 M .26700003 .38400004 C .33900003 .42100004 .388 .47300006 .388 .53900006 C .388 .63100007 .29900003 .688 .208 .688 C .108 .688 .027000003 .614 .027000003 .521 C .027000003 .503 .029 .45800004 .071 .41100005 C .082 .39900003 .11900001 .37400005 .144 .35700003 C .086 .32800005 0 .272 0 .17300001 C 0 .067 .102000009 0 .20700002 0 C .32000003 0 .41500003 .083000008 .41500003 .19000001 C .41500003 .22600001 .404 .27100004 .36600004 .31300003 C .34700004 .33400003 .33100004 .34400005 .26700003 .38400004 M .167 .34200005 L .29000003 .26400004 C .31800003 .245 .365 .215 .365 .154 C .365 .080000009 .29000003 .028 .208 .028 C .122 .028 .050000006 .09 .050000006 .17300001 C .050000006 .231 .082 .29500003 .167 .34200005 Z "/>
</symbol>
<use xlink:href="#font_1_6" transform="matrix(9.9626,0,0,-9.9626,33.40543,83.651187)"/>
<use xlink:href="#font_0_1" transform="matrix(9.9626,0,0,-9.9626,45.491895,81.14061)"/>
<symbol id="font_1_5">
<path d="M .089999999 .35000003 L .089999999 .37400005 C .089999999 .62700006 .21400002 .66300007 .26500003 .66300007 C .28900004 .66300007 .33100004 .65700009 .35300002 .623 C .33800004 .623 .298 .623 .298 .57800009 C .298 .54700008 .32200004 .53200009 .344 .53200009 C .36 .53200009 .39000003 .54100009 .39000003 .58000007 C .39000003 .64000007 .34600003 .688 .263 .688 C .13499999 .688 0 .559 0 .33800004 C 0 .071 .116000007 0 .20900002 0 C .32000003 0 .41500003 .094000007 .41500003 .22600001 C .41500003 .35300005 .32600004 .44900004 .215 .44900004 C .14700002 .44900004 .11000001 .39800004 .089999999 .35000003 M .20900002 .028 C .146 .028 .116000007 .088 .11000001 .103 C .092 .15 .092 .23 .092 .24800001 C .092 .32600004 .124000009 .42600004 .21400002 .42600004 C .23000002 .42600004 .27600003 .42600004 .307 .36400003 C .32500003 .32700003 .32500003 .27600003 .32500003 .22700002 C .32500003 .179 .32500003 .12900001 .30800004 .093 C .27800004 .033000005 .23200003 .028 .20900002 .028 Z "/>
</symbol>
<use xlink:href="#font_1_5" transform="matrix(9.9626,0,0,-9.9626,52.832429,83.651187)"/>
<use xlink:href="#font_0_1" transform="matrix(9.9626,0,0,-9.9626,64.9189,81.14061)"/>
<symbol id="font_1_4">
<path d="M .266 .165 L .266 .078 C .266 .042000005 .26400004 .031000002 .19000001 .031000002 L .16900002 .031000002 L .16900002 0 C .21000001 .003 .26200003 .003 .30400003 .003 C .34600003 .003 .39900003 .003 .44000004 0 L .44000004 .031000002 L .41900004 .031000002 C .34500004 .031000002 .34300003 .042000005 .34300003 .078 L .34300003 .165 L .44300003 .165 L .44300003 .19600001 L .34300003 .19600001 L .34300003 .651 C .34300003 .671 .34300003 .67700007 .32700003 .67700007 C .31800003 .67700007 .31500004 .67700007 .307 .665 L 0 .19600001 L 0 .165 L .266 .165 M .272 .19600001 L .028 .19600001 L .272 .569 L .272 .19600001 Z "/>
</symbol>
<use xlink:href="#font_1_4" transform="matrix(9.9626,0,0,-9.9626,72.11996,83.43201)"/>
<use xlink:href="#font_0_1" transform="matrix(9.9626,0,0,-9.9626,84.3459,81.14061)"/>
<symbol id="font_1_3">
<path d="M .07700001 .07700001 L .18300002 .18 C .33900003 .31800003 .39900003 .372 .39900003 .47200004 C .39900003 .586 .30900003 .666 .18700002 .666 C .074 .666 0 .574 0 .485 C 0 .42900003 .05 .42900003 .053000008 .42900003 C .07000001 .42900003 .105000007 .441 .105000007 .48200003 C .105000007 .508 .08700001 .53400006 .052000006 .53400006 C .044000005 .53400006 .042000008 .53400006 .039 .53300008 C .062000004 .59800007 .11600001 .63500007 .17400001 .63500007 C .26500003 .63500007 .308 .554 .308 .47200004 C .308 .39200003 .25800003 .31300003 .20300003 .25100003 L .011000004 .037 C 0 .026 0 .024 0 0 L .37100003 0 L .39900003 .17400001 L .374 .17400001 C .36900003 .14400001 .36200003 .1 .352 .085 C .345 .07700001 .279 .07700001 .257 .07700001 L .07700001 .07700001 Z "/>
</symbol>
<use xlink:href="#font_1_3" transform="matrix(9.9626,0,0,-9.9626,91.766139,83.43201)"/>
<use xlink:href="#font_1_3" transform="matrix(9.9626,0,0,-9.9626,126.74513,83.43201)"/>
<use xlink:href="#font_1_4" transform="matrix(9.9626,0,0,-9.9626,145.95294,83.43201)"/>
<use xlink:href="#font_1_5" transform="matrix(9.9626,0,0,-9.9626,165.51943,83.651187)"/>
<use xlink:href="#font_1_6" transform="matrix(9.9626,0,0,-9.9626,184.94643,83.651187)"/>
<use xlink:href="#font_1_2" transform="matrix(9.9626,0,0,-9.9626,202.35066,83.43201)"/>
<use xlink:href="#font_1_1" transform="matrix(9.9626,0,0,-9.9626,206.83382,83.651187)"/>
<use xlink:href="#font_0_1" transform="matrix(9.9626,0,0,-9.9626,91.7619,130.1506)"/>
<use xlink:href="#font_1_5" transform="matrix(9.9626,0,0,-9.9626,99.10243,132.66118)"/>
<use xlink:href="#font_0_1" transform="matrix(9.9626,0,0,-9.9626,91.7619,110.7236)"/>
<use xlink:href="#font_1_4" transform="matrix(9.9626,0,0,-9.9626,98.96296,113.015)"/>
<use xlink:href="#font_0_1" transform="matrix(9.9626,0,0,-9.9626,91.7619,91.2966)"/>
<use xlink:href="#font_1_3" transform="matrix(9.9626,0,0,-9.9626,99.18214,93.588)"/>
<use xlink:href="#font_1_3" transform="matrix(9.9626,0,0,-9.9626,99.18214,55.149003)"/>
<use xlink:href="#font_1_4" transform="matrix(9.9626,0,0,-9.9626,98.96296,35.722)"/>
<use xlink:href="#font_1_5" transform="matrix(9.9626,0,0,-9.9626,99.10243,16.514183)"/>
<clipPath id="cp2">
<path transform="matrix(1,0,0,-1,12.176,129.647)" d="M 0 0 L 194.27216 0 L 194.27216 116.5633 L 0 116.5633 Z "/>
</clipPath>
<g clip-path="url(#cp2)">
<path transform="matrix(1,0,0,-1,12.176,129.647)" stroke-width="1.19553" stroke-linecap="butt" stroke-miterlimit="10" stroke-linejoin="miter" fill="none" stroke="#000080" d="M 19.42722 58.28165 L 97.13608 19.42722 "/>
<path transform="matrix(1,0,0,-1,12.176,129.647)" stroke-width="1.19553" stroke-linecap="butt" stroke-miterlimit="10" stroke-linejoin="miter" fill="none" stroke="#000080" d="M 126.2769 77.70886 L 174.84494 58.28165 "/>
<path transform="matrix(1,0,0,-1,12.176,129.647)" stroke-width="1.19553" stroke-linecap="butt" stroke-miterlimit="10" stroke-linejoin="miter" fill="none" stroke="#000080" d="M 97.13608 116.5633 C 97.13608 116.5633 98.01335 116.53325 98.35027 116.49582 C 98.6872 116.45839 99.22754 116.36835 99.56447 116.29347 C 99.90138 116.2186 100.44173 116.06848 100.77867 115.95618 C 101.1156 115.84389 101.65594 115.63376 101.99287 115.48402 C 102.32982 115.33429 102.87015 115.06413 103.20708 114.87695 C 103.54399 114.68977 104.08435 114.35951 104.42126 114.13489 C 104.7582 113.91026 105.29854 113.52003 105.63547 113.258 C 105.97241 112.99596 106.51274 112.54572 106.84969 112.24622 C 107.18661 111.94672 107.72696 111.43631 108.06387 111.09938 C 108.4008 110.76244 108.94116 110.19212 109.27808 109.81778 C 109.61499 109.44344 110.15533 108.81308 110.49228 108.40128 C 110.82921 107.98947 111.36955 107.29893 111.70648 106.84969 C 112.04343 106.40044 112.58376 105.65002 112.92068 105.16336 C 113.2576 104.6767 113.79796 103.86626 114.13489 103.34215 C 114.4718 102.81802 115.01215 101.94733 115.34908 101.38577 C 115.68602 100.8242 116.22635 99.89369 116.5633 99.29474 C 116.90022 98.69579 117.44057 97.70525 117.77748 97.0688 C 118.11441 96.43236 118.65477 95.38153 118.99168 94.70766 C 119.32861 94.0338 119.86894 92.92319 120.20589 92.21191 C 120.54282 91.50064 121.08316 90.33003 121.42009 89.58127 C 121.75703 88.8325 122.29736 87.60155 122.6343 86.81535 C 122.9712 86.02917 123.51157 84.73848 123.8485 83.9149 C 124.18541 83.09131 124.72575 81.7406 125.06268 80.87953 C 125.39963 80.01846 126.2769 77.70886 126.2769 77.70886 "/>
</g>
<path transform="matrix(1,0,0,-1,12.176,129.647)" d="M 21.41977 58.28165 C 21.41977 59.38211 20.52768 60.2742 19.42722 60.2742 C 18.32674 60.2742 17.43466 59.38211 17.43466 58.28165 C 17.43466 57.18117 18.32674 56.2891 19.42722 56.2891 C 20.52768 56.2891 21.41977 57.18117 21.41977 58.28165 Z M 19.42722 58.28165 " fill="#ffffff"/>
<path transform="matrix(1,0,0,-1,12.176,129.647)" stroke-width="1" stroke-linecap="butt" stroke-miterlimit="10" stroke-linejoin="miter" fill="none" stroke="#000080" d="M 21.41977 58.28165 C 21.41977 59.38211 20.52768 60.2742 19.42722 60.2742 C 18.32674 60.2742 17.43466 59.38211 17.43466 58.28165 C 17.43466 57.18117 18.32674 56.2891 19.42722 56.2891 C 20.52768 56.2891 21.41977 57.18117 21.41977 58.28165 Z M 19.42722 58.28165 "/>
<path transform="matrix(1,0,0,-1,12.176,129.647)" d="M 99.12863 19.42722 C 99.12863 20.52768 98.23654 21.41977 97.13608 21.41977 C 96.0356 21.41977 95.14352 20.52768 95.14352 19.42722 C 95.14352 18.32674 96.0356 17.43466 97.13608 17.43466 C 98.23654 17.43466 99.12863 18.32674 99.12863 19.42722 Z M 97.13608 19.42722 " fill="#ffffff"/>
<path transform="matrix(1,0,0,-1,12.176,129.647)" stroke-width="1" stroke-linecap="butt" stroke-miterlimit="10" stroke-linejoin="miter" fill="none" stroke="#000080" d="M 99.12863 19.42722 C 99.12863 20.52768 98.23654 21.41977 97.13608 21.41977 C 96.0356 21.41977 95.14352 20.52768 95.14352 19.42722 C 95.14352 18.32674 96.0356 17.43466 97.13608 17.43466 C 98.23654 17.43466 99.12863 18.32674 99.12863 19.42722 Z M 97.13608 19.42722 "/>
<path transform="matrix(1,0,0,-1,12.176,129.647)" d="M 99.12863 116.5633 C 99.12863 117.66376 98.23654 118.55585 97.13608 118.55585 C 96.0356 118.55585 95.14352 117.66376 95.14352 116.5633 C 95.14352 115.46281 96.0356 114.57074 97.13608 114.57074 C 98.23654 114.57074 99.12863 115.46281 99.12863 116.5633 Z M 97.13608 116.5633 " fill="#ffffff"/>
<path transform="matrix(1,0,0,-1,12.176,129.647)" stroke-width="1" stroke-linecap="butt" stroke-miterlimit="10" stroke-linejoin="miter" fill="none" stroke="#000080" d="M 99.12863 116.5633 C 99.12863 117.66376 98.23654 118.55585 97.13608 118.55585 C 96.0356 118.55585 95.14352 117.66376 95.14352 116.5633 C 95.14352 115.46281 96.0356 114.57074 97.13608 114.57074 C 98.23654 114.57074 99.12863 115.46281 99.12863 116.5633 Z M 97.13608 116.5633 "/>
<path transform="matrix(1,0,0,-1,12.176,129.647)" d="M 128.26946 77.70886 C 128.26946 78.80933 127.37737 79.70142 126.2769 79.70142 C 125.17642 79.70142 124.28435 78.80933 124.28435 77.70886 C 124.28435 76.60838 125.17642 75.71631 126.2769 75.71631 C 127.37737 75.71631 128.26946 76.60838 128.26946 77.70886 Z M 126.2769 77.70886 " fill="#ffffff"/>
<path transform="matrix(1,0,0,-1,12.176,129.647)" stroke-width="1" stroke-linecap="butt" stroke-miterlimit="10" stroke-linejoin="miter" fill="none" stroke="#000080" d="M 128.26946 77.70886 C 128.26946 78.80933 127.37737 79.70142 126.2769 79.70142 C 125.17642 79.70142 124.28435 78.80933 124.28435 77.70886 C 124.28435 76.60838 125.17642 75.71631 126.2769 75.71631 C 127.37737 75.71631 128.26946 76.60838 128.26946 77.70886 Z M 126.2769 77.70886 "/>
<path transform="matrix(1,0,0,-1,12.176,129.647)" d="M 128.26946 58.28165 C 128.26946 59.38211 127.37737 60.2742 126.2769 60.2742 C 125.17642 60.2742 124.28435 59.38211 124.28435 58.28165 C 124.28435 57.18117 125.17642 56.2891 126.2769 56.2891 C 127.37737 56.2891 128.26946 57.18117 128.26946 58.28165 Z M 126.2769 58.28165 " fill="#000080"/>
<path transform="matrix(1,0,0,-1,12.176,129.647)" stroke-width="1" stroke-linecap="butt" stroke-miterlimit="10" stroke-linejoin="miter" fill="none" stroke="#000080" d="M 128.26946 58.28165 C 128.26946 59.38211 127.37737 60.2742 126.2769 60.2742 C 125.17642 60.2742 124.28435 59.38211 124.28435 58.28165 C 124.28435 57.18117 125.17642 56.2891 126.2769 56.2891 C 127.37737 56.2891 128.26946 57.18117 128.26946 58.28165 Z M 126.2769 58.28165 "/>
<path transform="matrix(1,0,0,-1,12.176,129.647)" d="M 176.8375 58.28165 C 176.8375 59.38211 175.9454 60.2742 174.84494 60.2742 C 173.74446 60.2742 172.85239 59.38211 172.85239 58.28165 C 172.85239 57.18117 173.74446 56.2891 174.84494 56.2891 C 175.9454 56.2891 176.8375 57.18117 176.8375 58.28165 Z M 174.84494 58.28165 " fill="#ffffff"/>
<path transform="matrix(1,0,0,-1,12.176,129.647)" stroke-width="1" stroke-linecap="butt" stroke-miterlimit="10" stroke-linejoin="miter" fill="none" stroke="#000080" d="M 176.8375 58.28165 C 176.8375 59.38211 175.9454 60.2742 174.84494 60.2742 C 173.74446 60.2742 172.85239 59.38211 172.85239 58.28165 C 172.85239 57.18117 173.74446 56.2891 174.84494 56.2891 C 175.9454 56.2891 176.8375 57.18117 176.8375 58.28165 Z M 174.84494 58.28165 "/>
<symbol id="font_3_1">
<path d="M .305 .31300003 C .311 .33900003 .334 .43100003 .404 .43100003 C .409 .43100003 .433 .43100003 .454 .418 C .426 .41300003 .40600003 .388 .40600003 .36400003 C .40600003 .34800003 .417 .32900004 .444 .32900004 C .46600003 .32900004 .498 .34700004 .498 .38700003 C .498 .43900005 .439 .45300005 .405 .45300005 C .347 .45300005 .312 .40000005 .3 .37700004 C .275 .44300003 .221 .45300005 .19200002 .45300005 C .08800001 .45300005 .031000002 .32400004 .031000002 .29900003 C .031000002 .28900004 .041 .28900004 .043000007 .28900004 C .051000008 .28900004 .054000006 .291 .056 .3 C .09 .40600003 .156 .43100003 .19000001 .43100003 C .209 .43100003 .244 .42200003 .244 .36400003 C .244 .33300004 .22700002 .26600004 .19000001 .126 C .17400001 .064 .13900002 .022000002 .095000009 .022000002 C .08900001 .022000002 .06600001 .022000002 .045 .035 C .07000001 .040000004 .09200001 .061 .09200001 .089 C .09200001 .116000007 .07000001 .124000009 .055000009 .124000009 C .025 .124000009 0 .098000008 0 .06600001 C 0 .020000002 .050000006 0 .094000007 0 C .16000001 0 .19600001 .07000001 .19900002 .076000008 C .21100001 .039 .24700003 0 .307 0 C .41 0 .467 .12900001 .467 .15400002 C .467 .16400002 .458 .16400002 .455 .16400002 C .446 .16400002 .444 .16000001 .442 .15300001 C .409 .046 .341 .022000002 .30900003 .022000002 C .27 .022000002 .254 .054 .254 .08800001 C .254 .11000001 .26 .13200002 .271 .17600002 L .305 .31300003 Z "/>
</symbol>
<use xlink:href="#font_3_1" transform="matrix(9.9626,0,0,-9.9626,210.29991,73.60659)"/>
<symbol id="font_3_2">
<path d="M .45700003 .586 C .461 .6 .461 .602 .461 .609 C .461 .62700006 .447 .63600006 .432 .63600006 C .42200003 .63600006 .40600003 .63 .397 .615 C .395 .61 .387 .579 .38300003 .561 C .37600003 .535 .36900003 .508 .363 .48100005 L .318 .301 C .314 .286 .271 .21600002 .20500002 .21600002 C .15400002 .21600002 .143 .26000003 .143 .29700003 C .143 .34300003 .16000001 .40500004 .194 .49300004 C .21000001 .53400006 .21400002 .545 .21400002 .56500008 C .21400002 .61 .18200001 .6470001 .13200002 .6470001 C .037 .6470001 0 .50200006 0 .49300004 C 0 .48300005 .01 .48300005 .012 .48300005 C .022000002 .48300005 .023 .485 .028000003 .50100007 C .055000009 .595 .095000009 .625 .12900001 .625 C .13700001 .625 .15400002 .625 .15400002 .59300008 C .15400002 .568 .14400001 .54200008 .13700001 .523 C .097 .41700004 .079 .36 .079 .31300003 C .079 .224 .142 .194 .201 .194 C .24000003 .194 .274 .21100001 .30200003 .23900002 C .289 .187 .277 .13800001 .237 .08500001 C .21100001 .051 .17300001 .022 .127 .022 C .113000009 .022 .068 .025000006 .051000008 .06400001 C .067 .06400001 .080000009 .06400001 .094000007 .076000008 C .104 .08500001 .11400001 .098000008 .11400001 .117000009 C .11400001 .148 .087000008 .15200001 .07700001 .15200001 C .054000006 .15200001 .021 .136 .021 .087000008 C .021 .037 .065000008 0 .127 0 C .23 0 .333 .091000009 .361 .20400001 L .45700003 .586 Z "/>
</symbol>
<use xlink:href="#font_3_2" transform="matrix(9.9626,0,0,-9.9626,106.99592,9.652334)"/>
</svg>
