<?xml version="1.0" encoding="UTF-8" standalone="no"?>
<!DOCTYPE svg PUBLIC "-//W3C//DTD SVG 1.1//EN" "http://www.w3.org/Graphics/SVG/1.1/DTD/svg11.dtd">
<svg xmlns="http://www.w3.org/2000/svg" xmlns:xlink="http://www.w3.org/1999/xlink" version="1.1" width="216.526pt" height="61.84pt" viewBox="0 0 216.526 61.84">
<path transform="matrix(1,0,0,-1,9.686,61.641)" stroke-width="1" stroke-linecap="butt" stroke-miterlimit="10" stroke-linejoin="miter" fill="none" stroke="#808080" d="M 0 22.15768 L 0 26.40956 M 24.28363 22.15768 L 24.28363 26.40956 M 48.56728 22.15768 L 48.56728 26.40956 M 72.8509 22.15768 L 72.8509 26.40956 M 121.4182 22.15768 L 121.4182 26.40956 M 145.70183 22.15768 L 145.70183 26.40956 M 169.98548 22.15768 L 169.98548 26.40956 M 194.26912 22.15768 L 194.26912 26.40956 "/>
<path transform="matrix(1,0,0,-1,9.686,61.641)" stroke-width="1" stroke-linecap="butt" stroke-miterlimit="10" stroke-linejoin="miter" fill="none" stroke="#808080" d="M 95.0086 12.14182 L 99.26048 12.14182 M 95.0086 36.42545 L 99.26048 36.42545 "/>
<path transform="matrix(1,0,0,-1,9.686,61.641)" stroke-width="1" stroke-linecap="butt" stroke-miterlimit="10" stroke-linejoin="miter" fill="none" stroke="#000000" d="M 0 24.28363 L 192.2766 24.28363 "/>
<path transform="matrix(1,0,0,-1,201.9626,37.35737)" d="M 1.99252 0 L -1.19551 1.59401 L 0 0 L -1.19551 -1.59401 "/>
<path transform="matrix(1,0,0,-1,9.686,61.641)" stroke-width="1" stroke-linecap="butt" stroke-miterlimit="10" stroke-linejoin="miter" fill="none" stroke="#000000" d="M 97.13455 0 L 97.13455 46.57475 "/>
<path transform="matrix(0,-1,-1,-0,106.82055,15.06625)" d="M 1.99252 0 L -1.19551 1.59401 L 0 0 L -1.19551 -1.59401 "/>
<symbol id="font_0_1">
<path d="M .57600006 0 C .59300008 0 .611 0 .611 .019999996 C .611 .040000008 .59300008 .040000008 .57600006 .040000008 L .035000005 .040000008 C .018 .040000008 0 .040000008 0 .019999996 C 0 0 .018 0 .035000005 0 L .57600006 0 Z "/>
</symbol>
<use xlink:href="#font_0_1" transform="matrix(9.9626,0,0,-9.9626,4.147896,47.1316)"/>
<symbol id="font_1_5">
<path d="M .121 .47900004 C .075 .509 .071 .54300007 .071 .56000009 C .071 .62100008 .136 .66300007 .20700002 .66300007 C .28000004 .66300007 .344 .61100009 .344 .53900006 C .344 .48200003 .305 .43400005 .245 .39900003 L .121 .47900004 M .26700003 .38400004 C .33900003 .42100004 .388 .47300006 .388 .53900006 C .388 .63100007 .29900003 .688 .208 .688 C .108 .688 .027000003 .614 .027000003 .521 C .027000003 .503 .029 .45800004 .071 .41100005 C .082 .39900003 .11900001 .37400005 .144 .35700003 C .086 .32800005 0 .272 0 .17300001 C 0 .067 .102000009 0 .20700002 0 C .32000003 0 .41500003 .083000008 .41500003 .19000001 C .41500003 .22600001 .404 .27100004 .36600004 .31300003 C .34700004 .33400003 .33100004 .34400005 .26700003 .38400004 M .167 .34200005 L .29000003 .26400004 C .31800003 .245 .365 .215 .365 .154 C .365 .080000009 .29000003 .028 .208 .028 C .122 .028 .050000006 .09 .050000006 .17300001 C .050000006 .231 .082 .29500003 .167 .34200005 Z "/>
</symbol>
<use xlink:href="#font_1_5" transform="matrix(9.9626,0,0,-9.9626,11.48743,49.642175)"/>
<use xlink:href="#font_0_1" transform="matrix(9.9626,0,0,-9.9626,28.430897,47.1316)"/>
<symbol id="font_1_4">
<path d="M .089999999 .35000003 L .089999999 .37400005 C .089999999 .62700006 .21400002 .66300007 .26500003 .66300007 C .28900004 .66300007 .33100004 .65700009 .35300002 .623 C .33800004 .623 .298 .623 .298 .57800009 C .298 .54700008 .32200004 .53200009 .344 .53200009 C .36 .53200009 .39000003 .54100009 .39000003 .58000007 C .39000003 .64000007 .34600003 .688 .263 .688 C .13499999 .688 0 .559 0 .33800004 C 0 .071 .116000007 0 .20900002 0 C .32000003 0 .41500003 .094000007 .41500003 .22600001 C .41500003 .35300005 .32600004 .44900004 .215 .44900004 C .14700002 .44900004 .11000001 .39800004 .089999999 .35000003 M .20900002 .028 C .146 .028 .116000007 .088 .11000001 .103 C .092 .15 .092 .23 .092 .24800001 C .092 .32600004 .124000009 .42600004 .21400002 .42600004 C .23000002 .42600004 .27600003 .42600004 .307 .36400003 C .32500003 .32700003 .32500003 .27600003 .32500003 .22700002 C .32500003 .179 .32500003 .12900001 .30800004 .093 C .27800004 .033000005 .23200003 .028 .20900002 .028 Z "/>
</symbol>
<use xlink:href="#font_1_4" transform="matrix(9.9626,0,0,-9.9626,35.77143,49.642175)"/>
<use xlink:href="#font_0_1" transform="matrix(9.9626,0,0,-9.9626,52.713899,47.1316)"/>
<symbol id="font_1_3">
<path d="M .266 .165 L .266 .078 C .266 .042000005 .26400004 .031000002 .19000001 .031000002 L .16900002 .031000002 L .16900002 0 C .21000001 .003 .26200003 .003 .30400003 .003 C .34600003 .003 .39900003 .003 .44000004 0 L .44000004 .031000002 L .41900004 .031000002 C .34500004 .031000002 .34300003 .042000005 .34300003 .078 L .34300003 .165 L .44300003 .165 L .44300003 .19600001 L .34300003 .19600001 L .34300003 .651 C .34300003 .671 .34300003 .67700007 .32700003 .67700007 C .31800003 .67700007 .31500004 .67700007 .307 .665 L 0 .19600001 L 0 .165 L .266 .165 M .272 .19600001 L .028 .19600001 L .272 .569 L .272 .19600001 Z "/>
</symbol>
<use xlink:href="#font_1_3" transform="matrix(9.9626,0,0,-9.9626,59.914957,49.422998)"/>
<use xlink:href="#font_0_1" transform="matrix(9.9626,0,0,-9.9626,76.997898,47.1316)"/>
<symbol id="font_1_2">
<path d="M .07700001 .07700001 L .18300002 .18 C .33900003 .31800003 .39900003 .372 .39900003 .47200004 C .39900003 .586 .30900003 .666 .18700002 .666 C .074 .666 0 .574 0 .485 C 0 .42900003 .05 .42900003 .053000008 .42900003 C .07000001 .42900003 .105000007 .441 .105000007 .48200003 C .105000007 .508 .08700001 .53400006 .052000006 .53400006 C .044000005 .53400006 .042000008 .53400006 .039 .53300008 C .062000004 .59800007 .11600001 .63500007 .17400001 .63500007 C .26500003 .63500007 .308 .554 .308 .47200004 C .308 .39200003 .25800003 .31300003 .20300003 .25100003 L .011000004 .037 C 0 .026 0 .024 0 0 L .37100003 0 L .39900003 .17400001 L .374 .17400001 C .36900003 .14400001 .36200003 .1 .352 .085 C .345 .07700001 .279 .07700001 .257 .07700001 L .07700001 .07700001 Z "/>
</symbol>
<use xlink:href="#font_1_2" transform="matrix(9.9626,0,0,-9.9626,84.41713,49.422998)"/>
<use xlink:href="#font_1_2" transform="matrix(9.9626,0,0,-9.9626,129.11013,49.422998)"/>
<use xlink:href="#font_1_3" transform="matrix(9.9626,0,0,-9.9626,153.17395,49.422998)"/>
<use xlink:href="#font_1_4" transform="matrix(9.9626,0,0,-9.9626,177.59644,49.642175)"/>
<use xlink:href="#font_1_5" transform="matrix(9.9626,0,0,-9.9626,201.88043,49.642175)"/>
<use xlink:href="#font_0_1" transform="matrix(9.9626,0,0,-9.9626,89.2699,50.0026)"/>
<symbol id="font_1_1">
<path d="M .205 .64000007 C .205 .66400006 .205 .666 .18200003 .666 C .120000008 .60200008 .032000007 .60200008 0 .60200008 L 0 .57100006 C .020000004 .57100006 .07900001 .57100006 .13100001 .597 L .13100001 .079 C .13100001 .043 .128 .031000002 .038000004 .031000002 L .0060000049 .031000002 L .0060000049 0 C .04100001 .003 .128 .003 .168 .003 C .20800002 .003 .29500003 .003 .33000005 0 L .33000005 .031000002 L .29800005 .031000002 C .20800002 .031000002 .205 .042000005 .205 .079 L .205 .64000007 Z "/>
</symbol>
<use xlink:href="#font_1_1" transform="matrix(9.9626,0,0,-9.9626,97.078678,52.294)"/>
<use xlink:href="#font_1_1" transform="matrix(9.9626,0,0,-9.9626,97.07867,28.425999)"/>
<clipPath id="cp2">
<path transform="matrix(1,0,0,-1,9.686,61.641)" d="M 0 0 L 194.26912 0 L 194.26912 48.56728 L 0 48.56728 Z "/>
</clipPath>
<g clip-path="url(#cp2)">
<path transform="matrix(1,0,0,-1,9.686,61.641)" stroke-width="1.19553" stroke-linecap="butt" stroke-miterlimit="10" stroke-linejoin="miter" fill="none" stroke="#000080" d="M 0 30.35454 L 97.13455 30.35454 "/>
<path transform="matrix(1,0,0,-1,9.686,61.641)" stroke-width="1.19553" stroke-linecap="butt" stroke-miterlimit="10" stroke-linejoin="miter" fill="none" stroke="#000080" d="M 133.56002 29.14037 L 194.26912 29.14037 "/>
<path transform="matrix(1,0,0,-1,9.686,61.641)" stroke-width="1.19553" stroke-linecap="butt" stroke-miterlimit="10" stroke-linejoin="miter" fill="none" stroke="#000080" d="M 97.13455 24.28363 C 97.13455 24.28363 98.23112 24.5273 98.65227 24.6209 C 99.07343 24.71448 99.74886 24.86458 100.17001 24.95816 C 100.59117 25.05174 101.26657 25.20187 101.68773 25.29544 C 102.10889 25.389 102.7843 25.539 103.20546 25.63258 C 103.62662 25.72617 104.30203 25.8764 104.72319 25.97 C 105.14433 26.0636 105.81976 26.21361 106.24092 26.30719 C 106.66208 26.40076 107.33748 26.55092 107.75864 26.64449 C 108.1798 26.73805 108.85522 26.88806 109.27637 26.98166 C 109.69753 27.07526 110.37294 27.22551 110.7941 27.31909 C 111.21526 27.41267 111.89067 27.5627 112.31183 27.65625 C 112.73299 27.7498 113.40839 27.89983 113.82954 27.99344 C 114.2507 28.08704 114.92613 28.23726 115.34729 28.33086 C 115.76843 28.42445 116.44385 28.57443 116.865 28.66803 C 117.28616 28.76163 117.96158 28.91187 118.38274 29.00546 C 118.8039 29.09906 119.47931 29.24907 119.90045 29.34264 C 120.32161 29.4362 120.99704 29.58636 121.4182 29.67995 C 121.83936 29.77351 122.51476 29.92352 122.93591 30.01712 C 123.35707 30.11072 124.03249 30.26096 124.45364 30.35454 C 124.8748 30.44812 125.55022 30.59816 125.97137 30.69171 C 126.39252 30.78526 127.06795 30.93529 127.4891 31.02888 C 127.91026 31.12248 128.58567 31.2727 129.00682 31.36632 C 129.42798 31.45992 130.10341 31.6099 130.52455 31.70349 C 130.94571 31.79709 131.62113 31.94731 132.04228 32.04091 C 132.46344 32.1345 133.56002 32.3781 133.56002 32.3781 "/>
</g>
<path transform="matrix(1,0,0,-1,9.686,61.641)" d="M 1.99255 30.35454 C 1.99255 31.45502 1.10046 32.34709 0 32.34709 C -1.10046 32.34709 -1.99255 31.45502 -1.99255 30.35454 C -1.99255 29.25407 -1.10046 28.36198 0 28.36198 C 1.10046 28.36198 1.99255 29.25407 1.99255 30.35454 Z M 0 30.35454 " fill="#ffffff"/>
<path transform="matrix(1,0,0,-1,9.686,61.641)" stroke-width="1" stroke-linecap="butt" stroke-miterlimit="10" stroke-linejoin="miter" fill="none" stroke="#000080" d="M 1.99255 30.35454 C 1.99255 31.45502 1.10046 32.34709 0 32.34709 C -1.10046 32.34709 -1.99255 31.45502 -1.99255 30.35454 C -1.99255 29.25407 -1.10046 28.36198 0 28.36198 C 1.10046 28.36198 1.99255 29.25407 1.99255 30.35454 Z M 0 30.35454 "/>
<path transform="matrix(1,0,0,-1,9.686,61.641)" d="M 99.1271 30.35454 C 99.1271 31.45502 98.23503 32.34709 97.13455 32.34709 C 96.03409 32.34709 95.142 31.45502 95.142 30.35454 C 95.142 29.25407 96.03409 28.36198 97.13455 28.36198 C 98.23503 28.36198 99.1271 29.25407 99.1271 30.35454 Z M 97.13455 30.35454 " fill="#ffffff"/>
<path transform="matrix(1,0,0,-1,9.686,61.641)" stroke-width="1" stroke-linecap="butt" stroke-miterlimit="10" stroke-linejoin="miter" fill="none" stroke="#000080" d="M 99.1271 30.35454 C 99.1271 31.45502 98.23503 32.34709 97.13455 32.34709 C 96.03409 32.34709 95.142 31.45502 95.142 30.35454 C 95.142 29.25407 96.03409 28.36198 97.13455 28.36198 C 98.23503 28.36198 99.1271 29.25407 99.1271 30.35454 Z M 97.13455 30.35454 "/>
<path transform="matrix(1,0,0,-1,9.686,61.641)" d="M 99.1271 24.28363 C 99.1271 25.38411 98.23503 26.27618 97.13455 26.27618 C 96.03409 26.27618 95.142 25.38411 95.142 24.28363 C 95.142 23.18317 96.03409 22.29108 97.13455 22.29108 C 98.23503 22.29108 99.1271 23.18317 99.1271 24.28363 Z M 97.13455 24.28363 " fill="#ffffff"/>
<path transform="matrix(1,0,0,-1,9.686,61.641)" stroke-width="1" stroke-linecap="butt" stroke-miterlimit="10" stroke-linejoin="miter" fill="none" stroke="#000080" d="M 99.1271 24.28363 C 99.1271 25.38411 98.23503 26.27618 97.13455 26.27618 C 96.03409 26.27618 95.142 25.38411 95.142 24.28363 C 95.142 23.18317 96.03409 22.29108 97.13455 22.29108 C 98.23503 22.29108 99.1271 23.18317 99.1271 24.28363 Z M 97.13455 24.28363 "/>
<path transform="matrix(1,0,0,-1,9.686,61.641)" d="M 135.55257 32.3781 C 135.55257 33.47856 134.66049 34.37065 133.56002 34.37065 C 132.45955 34.37065 131.56746 33.47856 131.56746 32.3781 C 131.56746 31.27762 132.45955 30.38554 133.56002 30.38554 C 134.66049 30.38554 135.55257 31.27762 135.55257 32.3781 Z M 133.56002 32.3781 " fill="#ffffff"/>
<path transform="matrix(1,0,0,-1,9.686,61.641)" stroke-width="1" stroke-linecap="butt" stroke-miterlimit="10" stroke-linejoin="miter" fill="none" stroke="#000080" d="M 135.55257 32.3781 C 135.55257 33.47856 134.66049 34.37065 133.56002 34.37065 C 132.45955 34.37065 131.56746 33.47856 131.56746 32.3781 C 131.56746 31.27762 132.45955 30.38554 133.56002 30.38554 C 134.66049 30.38554 135.55257 31.27762 135.55257 32.3781 Z M 133.56002 32.3781 "/>
<path transform="matrix(1,0,0,-1,9.686,61.641)" d="M 135.55257 29.14037 C 135.55257 30.24083 134.66049 31.13292 133.56002 31.13292 C 132.45955 31.13292 131.56746 30.24083 131.56746 29.14037 C 131.56746 28.03989 132.45955 27.14781 133.56002 27.14781 C 134.66049 27.14781 135.55257 28.03989 135.55257 29.14037 Z M 133.56002 29.14037 " fill="#ffffff"/>
<path transform="matrix(1,0,0,-1,9.686,61.641)" stroke-width="1" stroke-linecap="butt" stroke-miterlimit="10" stroke-linejoin="miter" fill="none" stroke="#000080" d="M 135.55257 29.14037 C 135.55257 30.24083 134.66049 31.13292 133.56002 31.13292 C 132.45955 31.13292 131.56746 30.24083 131.56746 29.14037 C 131.56746 28.03989 132.45955 27.14781 133.56002 27.14781 C 134.66049 27.14781 135.55257 28.03989 135.55257 29.14037 Z M 133.56002 29.14037 "/>
<path transform="matrix(1,0,0,-1,9.686,61.641)" d="M 196.26168 29.14037 C 196.26168 30.24083 195.36959 31.13292 194.26912 31.13292 C 193.16864 31.13292 192.27657 30.24083 192.27657 29.14037 C 192.27657 28.03989 193.16864 27.14781 194.26912 27.14781 C 195.36959 27.14781 196.26168 28.03989 196.26168 29.14037 Z M 194.26912 29.14037 " fill="#ffffff"/>
<path transform="matrix(1,0,0,-1,9.686,61.641)" stroke-width="1" stroke-linecap="butt" stroke-miterlimit="10" stroke-linejoin="miter" fill="none" stroke="#000080" d="M 196.26168 29.14037 C 196.26168 30.24083 195.36959 31.13292 194.26912 31.13292 C 193.16864 31.13292 192.27657 30.24083 192.27657 29.14037 C 192.27657 28.03989 193.16864 27.14781 194.26912 27.14781 C 195.36959 27.14781 196.26168 28.03989 196.26168 29.14037 Z M 194.26912 29.14037 "/>
<symbol id="font_3_1">
<path d="M .305 .31300003 C .311 .33900003 .334 .43100003 .404 .43100003 C .409 .43100003 .433 .43100003 .454 .418 C .426 .41300003 .40600003 .388 .40600003 .36400003 C .40600003 .34800003 .417 .32900004 .444 .32900004 C .46600003 .32900004 .498 .34700004 .498 .38700003 C .498 .43900005 .439 .45300005 .405 .45300005 C .347 .45300005 .312 .40000005 .3 .37700004 C .275 .44300003 .221 .45300005 .19200002 .45300005 C .08800001 .45300005 .031000002 .32400004 .031000002 .29900003 C .031000002 .28900004 .041 .28900004 .043000007 .28900004 C .051000008 .28900004 .054000006 .291 .056 .3 C .09 .40600003 .156 .43100003 .19000001 .43100003 C .209 .43100003 .244 .42200003 .244 .36400003 C .244 .33300004 .22700002 .26600004 .19000001 .126 C .17400001 .064 .13900002 .022000002 .095000009 .022000002 C .08900001 .022000002 .06600001 .022000002 .045 .035 C .07000001 .040000004 .09200001 .061 .09200001 .089 C .09200001 .116000007 .07000001 .124000009 .055000009 .124000009 C .025 .124000009 0 .098000008 0 .06600001 C 0 .020000002 .050000006 0 .094000007 0 C .16000001 0 .19600001 .07000001 .19900002 .076000008 C .21100001 .039 .24700003 0 .307 0 C .41 0 .467 .12900001 .467 .15400002 C .467 .16400002 .458 .16400002 .455 .16400002 C .446 .16400002 .444 .16000001 .442 .15300001 C .409 .046 .341 .022000002 .30900003 .022000002 C .27 .022000002 .254 .054 .254 .08800001 C .254 .11000001 .26 .13200002 .271 .17600002 L .305 .31300003 Z "/>
</symbol>
<use xlink:href="#font_3_1" transform="matrix(9.9626,0,0,-9.9626,207.80092,39.60659)"/>
<symbol id="font_3_2">
<path d="M .45700003 .586 C .461 .6 .461 .602 .461 .609 C .461 .62700006 .447 .63600006 .432 .63600006 C .42200003 .63600006 .40600003 .63 .397 .615 C .395 .61 .387 .579 .38300003 .561 C .37600003 .535 .36900003 .508 .363 .48100005 L .318 .301 C .314 .286 .271 .21600002 .20500002 .21600002 C .15400002 .21600002 .143 .26000003 .143 .29700003 C .143 .34300003 .16000001 .40500004 .194 .49300004 C .21000001 .53400006 .21400002 .545 .21400002 .56500008 C .21400002 .61 .18200001 .6470001 .13200002 .6470001 C .037 .6470001 0 .50200006 0 .49300004 C 0 .48300005 .01 .48300005 .012 .48300005 C .022000002 .48300005 .023 .485 .028000003 .50100007 C .055000009 .595 .095000009 .625 .12900001 .625 C .13700001 .625 .15400002 .625 .15400002 .59300008 C .15400002 .568 .14400001 .54200008 .13700001 .523 C .097 .41700004 .079 .36 .079 .31300003 C .079 .224 .142 .194 .201 .194 C .24000003 .194 .274 .21100001 .30200003 .23900002 C .289 .187 .277 .13800001 .237 .08500001 C .21100001 .051 .17300001 .022 .127 .022 C .113000009 .022 .068 .025000006 .051000008 .06400001 C .067 .06400001 .080000009 .06400001 .094000007 .076000008 C .104 .08500001 .11400001 .098000008 .11400001 .117000009 C .11400001 .148 .087000008 .15200001 .07700001 .15200001 C .054000006 .15200001 .021 .136 .021 .087000008 C .021 .037 .065000008 0 .127 0 C .23 0 .333 .091000009 .361 .20400001 L .45700003 .586 Z "/>
</symbol>
<use xlink:href="#font_3_2" transform="matrix(9.9626,0,0,-9.9626,104.50491,9.652334)"/>
</svg>
