<?xml version="1.0" encoding="UTF-8" standalone="no"?>
<!DOCTYPE svg PUBLIC "-//W3C//DTD SVG 1.1//EN" "http://www.w3.org/Graphics/SVG/1.1/DTD/svg11.dtd">
<svg xmlns="http://www.w3.org/2000/svg" xmlns:xlink="http://www.w3.org/1999/xlink" version="1.1" width="216.51pt" height="124.639pt" viewBox="0 0 216.51 124.639">
<path transform="matrix(1,0,0,-1,9.686,117.693)" stroke-width="1" stroke-linecap="butt" stroke-miterlimit="10" stroke-linejoin="miter" fill="none" stroke="#808080" d="M 0 57.64832 L 0 61.90001 M 14.94354 57.64832 L 14.94354 61.90001 M 29.88708 57.64832 L 29.88708 61.90001 M 44.83063 57.64832 L 44.83063 61.90001 M 59.77417 57.64832 L 59.77417 61.90001 M 74.71771 57.64832 L 74.71771 61.90001 M 104.60481 57.64832 L 104.60481 61.90001 M 119.54836 57.64832 L 119.54836 61.90001 M 134.4919 57.64832 L 134.4919 61.90001 M 149.43544 57.64832 L 149.43544 61.90001 M 164.37899 57.64832 L 164.37899 61.90001 M 179.32253 57.64832 L 179.32253 61.90001 M 194.26607 57.64832 L 194.26607 61.90001 "/>
<path transform="matrix(1,0,0,-1,9.686,117.693)" stroke-width="1" stroke-linecap="butt" stroke-miterlimit="10" stroke-linejoin="miter" fill="none" stroke="#808080" d="M 87.5354 0 L 91.78711 0 M 87.5354 14.94354 L 91.78711 14.94354 M 87.5354 29.88708 L 91.78711 29.88708 M 87.5354 44.83063 L 91.78711 44.83063 M 87.5354 74.71771 L 91.78711 74.71771 M 87.5354 89.66125 L 91.78711 89.66125 M 87.5354 104.60481 L 91.78711 104.60481 "/>
<path transform="matrix(1,0,0,-1,9.686,117.693)" stroke-width="1" stroke-linecap="butt" stroke-miterlimit="10" stroke-linejoin="miter" fill="none" stroke="#000000" d="M 0 59.77417 L 192.27355 59.77417 "/>
<path transform="matrix(1,0,0,-1,201.95955,57.91883)" d="M 1.99252 0 L -1.19551 1.59401 L 0 0 L -1.19551 -1.59401 "/>
<path transform="matrix(1,0,0,-1,9.686,117.693)" stroke-width="1" stroke-linecap="butt" stroke-miterlimit="10" stroke-linejoin="miter" fill="none" stroke="#000000" d="M 89.66125 0 L 89.66125 102.61229 "/>
<path transform="matrix(0,-1,-1,-0,99.347248,15.080711)" d="M 1.99252 0 L -1.19551 1.59401 L 0 0 L -1.19551 -1.59401 "/>
<symbol id="font_0_1">
<path d="M .57600006 0 C .59300008 0 .611 0 .611 .019999996 C .611 .040000008 .59300008 .040000008 .57600006 .040000008 L .035000005 .040000008 C .018 .040000008 0 .040000008 0 .019999996 C 0 0 .018 0 .035000005 0 L .57600006 0 Z "/>
</symbol>
<use xlink:href="#font_0_1" transform="matrix(9.9626,0,0,-9.9626,4.147896,67.6946)"/>
<symbol id="font_1_6">
<path d="M .089999999 .35000003 L .089999999 .37400005 C .089999999 .62700006 .21400002 .66300007 .26500003 .66300007 C .28900004 .66300007 .33100004 .65700009 .35300002 .623 C .33800004 .623 .298 .623 .298 .57800009 C .298 .54700008 .32200004 .53200009 .344 .53200009 C .36 .53200009 .39000003 .54100009 .39000003 .58000007 C .39000003 .64000007 .34600003 .688 .263 .688 C .13499999 .688 0 .559 0 .33800004 C 0 .071 .116000007 0 .20900002 0 C .32000003 0 .41500003 .094000007 .41500003 .22600001 C .41500003 .35300005 .32600004 .44900004 .215 .44900004 C .14700002 .44900004 .11000001 .39800004 .089999999 .35000003 M .20900002 .028 C .146 .028 .116000007 .088 .11000001 .103 C .092 .15 .092 .23 .092 .24800001 C .092 .32600004 .124000009 .42600004 .21400002 .42600004 C .23000002 .42600004 .27600003 .42600004 .307 .36400003 C .32500003 .32700003 .32500003 .27600003 .32500003 .22700002 C .32500003 .179 .32500003 .12900001 .30800004 .093 C .27800004 .033000005 .23200003 .028 .20900002 .028 Z "/>
</symbol>
<use xlink:href="#font_1_6" transform="matrix(9.9626,0,0,-9.9626,11.48743,70.20518)"/>
<use xlink:href="#font_0_1" transform="matrix(9.9626,0,0,-9.9626,19.090897,67.6946)"/>
<symbol id="font_1_5">
<path d="M .39900003 .223 C .39900003 .34200005 .317 .44200004 .209 .44200004 C .16100002 .44200004 .118000019 .42600004 .082 .39100004 L .082 .586 C .10200001 .58000007 .135 .573 .16700001 .573 C .29 .573 .36 .66400006 .36 .67700007 C .36 .683 .357 .688 .35 .688 C .349 .688 .347 .688 .342 .68500009 C .322 .67600008 .273 .656 .20600002 .656 C .16600001 .656 .120000008 .66300007 .073 .6840001 C .065 .68700006 .06300001 .68700006 .061000009 .68700006 C .051000004 .68700006 .051000004 .679 .051000004 .66300007 L .051000004 .36700005 C .051000004 .34900005 .051000004 .34100003 .065 .34100003 C .07200001 .34100003 .074 .34400005 .07800001 .35000003 C .08900002 .36600004 .12600002 .42000006 .207 .42000006 C .259 .42000006 .284 .37400005 .292 .35600005 C .308 .31900005 .31 .28000004 .31 .23 C .31 .19500001 .31 .135 .286 .093 C .262 .054000006 .22500001 .028 .17900002 .028 C .106000009 .028 .049000008 .08100001 .032 .14000002 C .035 .13900002 .038000008 .13800001 .049000008 .13800001 C .082 .13800001 .09900001 .163 .09900001 .187 C .09900001 .21100001 .082 .23600002 .049000008 .23600002 C .035 .23600002 0 .22900002 0 .18300002 C 0 .097 .069000009 0 .18100001 0 C .297 0 .39900003 .096 .39900003 .223 Z "/>
</symbol>
<use xlink:href="#font_1_5" transform="matrix(9.9626,0,0,-9.9626,26.511132,70.20518)"/>
<use xlink:href="#font_0_1" transform="matrix(9.9626,0,0,-9.9626,34.033899,67.6946)"/>
<symbol id="font_1_4">
<path d="M .266 .165 L .266 .078 C .266 .042000005 .26400004 .031000002 .19000001 .031000002 L .16900002 .031000002 L .16900002 0 C .21000001 .003 .26200003 .003 .30400003 .003 C .34600003 .003 .39900003 .003 .44000004 0 L .44000004 .031000002 L .41900004 .031000002 C .34500004 .031000002 .34300003 .042000005 .34300003 .078 L .34300003 .165 L .44300003 .165 L .44300003 .19600001 L .34300003 .19600001 L .34300003 .651 C .34300003 .671 .34300003 .67700007 .32700003 .67700007 C .31800003 .67700007 .31500004 .67700007 .307 .665 L 0 .19600001 L 0 .165 L .266 .165 M .272 .19600001 L .028 .19600001 L .272 .569 L .272 .19600001 Z "/>
</symbol>
<use xlink:href="#font_1_4" transform="matrix(9.9626,0,0,-9.9626,41.234956,69.986)"/>
<use xlink:href="#font_0_1" transform="matrix(9.9626,0,0,-9.9626,48.977899,67.6946)"/>
<symbol id="font_1_3">
<path d="M .24800003 .37400005 C .33 .40100003 .388 .47100006 .388 .55 C .388 .632 .3 .688 .204 .688 C .10300001 .688 .027000003 .628 .027000003 .55200007 C .027000003 .519 .049000004 .5 .078 .5 C .109000008 .5 .12900001 .522 .12900001 .55100008 C .12900001 .6010001 .082 .6010001 .067 .6010001 C .098 .65000006 .164 .66300007 .20000002 .66300007 C .24100003 .66300007 .29600004 .64100006 .29600004 .55100008 C .29600004 .53900006 .29400004 .48100005 .268 .43700005 C .238 .38900004 .204 .38600005 .17900002 .38500003 C .171 .38400004 .14700002 .38200004 .14000002 .38200004 C .132 .38100005 .125 .38000003 .125 .37000004 C .125 .35900004 .132 .35900004 .14900002 .35900004 L .19300002 .35900004 C .275 .35900004 .312 .29100005 .312 .193 C .312 .057000005 .24300003 .028 .199 .028 C .15600002 .028 .081 .045 .046000005 .104 C .081 .09900001 .11200001 .12100001 .11200001 .15900001 C .11200001 .19500001 .085 .215 .056 .215 C .031999999 .215 0 .201 0 .157 C 0 .06600001 .093 0 .20200002 0 C .32400004 0 .41500003 .091000009 .41500003 .193 C .41500003 .27500005 .35200004 .35300005 .24800003 .37400005 Z "/>
</symbol>
<use xlink:href="#font_1_3" transform="matrix(9.9626,0,0,-9.9626,56.317434,70.20518)"/>
<use xlink:href="#font_0_1" transform="matrix(9.9626,0,0,-9.9626,63.9209,67.6946)"/>
<symbol id="font_1_2">
<path d="M .07700001 .07700001 L .18300002 .18 C .33900003 .31800003 .39900003 .372 .39900003 .47200004 C .39900003 .586 .30900003 .666 .18700002 .666 C .074 .666 0 .574 0 .485 C 0 .42900003 .05 .42900003 .053000008 .42900003 C .07000001 .42900003 .105000007 .441 .105000007 .48200003 C .105000007 .508 .08700001 .53400006 .052000006 .53400006 C .044000005 .53400006 .042000008 .53400006 .039 .53300008 C .062000004 .59800007 .11600001 .63500007 .17400001 .63500007 C .26500003 .63500007 .308 .554 .308 .47200004 C .308 .39200003 .25800003 .31300003 .20300003 .25100003 L .011000004 .037 C 0 .026 0 .024 0 0 L .37100003 0 L .39900003 .17400001 L .374 .17400001 C .36900003 .14400001 .36200003 .1 .352 .085 C .345 .07700001 .279 .07700001 .257 .07700001 L .07700001 .07700001 Z "/>
</symbol>
<use xlink:href="#font_1_2" transform="matrix(9.9626,0,0,-9.9626,71.34113,69.986)"/>
<use xlink:href="#font_0_1" transform="matrix(9.9626,0,0,-9.9626,78.86389,67.6946)"/>
<symbol id="font_1_1">
<path d="M .205 .64000007 C .205 .66400006 .205 .666 .18200003 .666 C .120000008 .60200008 .032000007 .60200008 0 .60200008 L 0 .57100006 C .020000004 .57100006 .07900001 .57100006 .13100001 .597 L .13100001 .079 C .13100001 .043 .128 .031000002 .038000004 .031000002 L .0060000049 .031000002 L .0060000049 0 C .04100001 .003 .128 .003 .168 .003 C .20800002 .003 .29500003 .003 .33000005 0 L .33000005 .031000002 L .29800005 .031000002 C .20800002 .031000002 .205 .042000005 .205 .079 L .205 .64000007 Z "/>
</symbol>
<use xlink:href="#font_1_1" transform="matrix(9.9626,0,0,-9.9626,86.67267,69.986)"/>
<use xlink:href="#font_1_1" transform="matrix(9.9626,0,0,-9.9626,112.68467,69.986)"/>
<use xlink:href="#font_1_2" transform="matrix(9.9626,0,0,-9.9626,127.24013,69.986)"/>
<use xlink:href="#font_1_3" transform="matrix(9.9626,0,0,-9.9626,142.10343,70.20518)"/>
<use xlink:href="#font_1_4" transform="matrix(9.9626,0,0,-9.9626,156.90695,69.986)"/>
<use xlink:href="#font_1_5" transform="matrix(9.9626,0,0,-9.9626,172.07013,70.20518)"/>
<use xlink:href="#font_1_6" transform="matrix(9.9626,0,0,-9.9626,186.93343,70.20518)"/>
<symbol id="font_1_7">
<path d="M .42000003 .63100007 C .42900003 .64300009 .42900003 .64500007 .42900003 .66600009 L .18600002 .66600009 C .064 .66600009 .062000008 .679 .058000007 .6980001 L .033 .6980001 L 0 .49200005 L .024999999 .49200005 C .028000005 .508 .037 .57100006 .050000006 .58300009 C .057000005 .58900007 .13500002 .58900007 .148 .58900007 L .35500003 .58900007 C .344 .573 .26500003 .46400006 .24300003 .43100003 C .153 .29600004 .12000001 .157 .12000001 .055 C .12000001 .045 .12000001 0 .16600001 0 C .21200001 0 .21200001 .045 .21200001 .055 L .21200001 .106000009 C .21200001 .16100002 .21500004 .216 .22300002 .27 C .22700003 .29300005 .24100003 .37900005 .28500004 .44100005 L .42000003 .63100007 Z "/>
</symbol>
<use xlink:href="#font_1_7" transform="matrix(9.9626,0,0,-9.9626,202.01592,70.20518)"/>
<use xlink:href="#font_0_1" transform="matrix(9.9626,0,0,-9.9626,81.79689,118.1966)"/>
<use xlink:href="#font_1_4" transform="matrix(9.9626,0,0,-9.9626,88.99795,120.488)"/>
<use xlink:href="#font_0_1" transform="matrix(9.9626,0,0,-9.9626,81.79689,103.2536)"/>
<use xlink:href="#font_1_3" transform="matrix(9.9626,0,0,-9.9626,89.13742,105.764179)"/>
<use xlink:href="#font_0_1" transform="matrix(9.9626,0,0,-9.9626,81.79689,88.31061)"/>
<use xlink:href="#font_1_2" transform="matrix(9.9626,0,0,-9.9626,89.217128,90.602008)"/>
<use xlink:href="#font_0_1" transform="matrix(9.9626,0,0,-9.9626,81.79689,73.36661)"/>
<use xlink:href="#font_1_1" transform="matrix(9.9626,0,0,-9.9626,89.60567,75.658008)"/>
<use xlink:href="#font_1_1" transform="matrix(9.9626,0,0,-9.9626,89.60567,46.187005)"/>
<use xlink:href="#font_1_2" transform="matrix(9.9626,0,0,-9.9626,89.217128,31.243004)"/>
<use xlink:href="#font_1_3" transform="matrix(9.9626,0,0,-9.9626,89.13742,16.51918)"/>
<clipPath id="cp2">
<path transform="matrix(1,0,0,-1,9.686,117.693)" d="M 0 0 L 194.26607 0 L 194.26607 104.60481 L 0 104.60481 Z "/>
</clipPath>
<g clip-path="url(#cp2)">
<path transform="matrix(1,0,0,-1,9.686,117.693)" stroke-width="1.19553" stroke-linecap="butt" stroke-miterlimit="10" stroke-linejoin="miter" fill="none" stroke="#000080" d="M 0 0 C 0 0 2.69919 2.69919 3.73589 3.73589 C 4.77257 4.77257 6.43507 6.43507 7.47177 7.47177 C 8.50845 8.50845 10.17097 10.17097 11.20766 11.20766 C 12.24434 12.24434 13.90686 13.90686 14.94354 14.94354 C 15.98022 15.98022 17.64275 17.64275 18.67943 18.67943 C 19.71611 19.71611 21.37863 21.37863 22.41531 22.41531 C 23.452 23.452 25.11452 25.11452 26.1512 26.1512 C 27.18788 27.18788 28.8504 28.8504 29.88708 29.88708 C 30.92377 30.92377 32.58629 32.58629 33.62297 33.62297 C 34.65965 34.65965 36.32217 36.32217 37.35886 37.35886 C 38.39554 38.39554 40.05806 40.05806 41.09474 41.09474 C 42.13142 42.13142 43.79395 43.79395 44.83063 44.83063 C 45.86731 45.86731 47.52983 47.52983 48.56651 48.56651 C 49.6032 49.6032 51.26572 51.26572 52.3024 52.3024 C 53.33908 53.33908 55.0016 55.0016 56.03828 56.03828 C 57.07497 57.07497 58.73749 58.73749 59.77417 59.77417 C 60.81085 60.81085 62.47337 62.47337 63.51006 63.51006 C 64.54674 64.54674 66.20926 66.20926 67.24594 67.24594 C 68.28262 68.28262 69.94514 69.94514 70.98183 70.98183 C 72.01851 72.01851 73.68103 73.68103 74.71771 74.71771 C 75.7544 75.7544 77.41692 77.41692 78.4536 78.4536 C 79.49028 79.49028 81.1528 81.1528 82.18948 82.18948 C 83.22617 83.22617 84.88869 84.88869 85.92537 85.92537 C 86.96205 86.96205 89.66125 89.66125 89.66125 89.66125 "/>
<path transform="matrix(1,0,0,-1,9.686,117.693)" stroke-width="1.19553" stroke-linecap="butt" stroke-miterlimit="10" stroke-linejoin="miter" fill="none" stroke="#000080" d="M 89.66125 89.66125 C 89.66125 89.66125 91.46072 89.63817 92.15182 89.60938 C 92.84294 89.58058 93.9513 89.51129 94.64241 89.4537 C 95.33354 89.39612 96.4419 89.28069 97.133 89.1943 C 97.82411 89.10793 98.93246 88.94627 99.62358 88.83109 C 100.31468 88.7159 101.42303 88.50807 102.11417 88.36409 C 102.80528 88.22011 103.91364 87.96614 104.60475 87.79335 C 105.29585 87.62056 106.4042 87.32031 107.09532 87.11876 C 107.78642 86.9172 108.89478 86.57097 109.5859 86.34065 C 110.27702 86.11032 111.38538 85.71785 112.07649 85.4587 C 112.7676 85.19952 113.87595 84.76068 114.56706 84.4727 C 115.25816 84.18474 116.36653 83.69992 117.05765 83.38318 C 117.74875 83.06644 118.8571 82.53535 119.54822 82.18977 C 120.23932 81.84421 121.34767 81.26689 122.0388 80.89253 C 122.72992 80.51817 123.83827 79.89471 124.52939 79.49158 C 125.2205 79.08844 126.32884 78.41887 127.01996 77.98692 C 127.71107 77.55496 128.81941 76.83914 129.51055 76.37839 C 130.20168 75.91762 131.31002 75.15553 132.00113 74.666 C 132.69225 74.17647 133.80059 73.36829 134.4917 72.85007 C 135.18282 72.33185 136.29117 71.47821 136.98229 70.93102 C 137.6734 70.38382 138.78174 69.48213 139.47286 68.90617 C 140.16397 68.3302 141.27231 67.3843 141.96344 66.7797 C 142.65457 66.1751 143.76291 65.18205 144.45403 64.54863 C 145.14514 63.9152 146.25348 62.87688 146.9446 62.21443 C 147.63571 61.552 149.43518 59.77417 149.43518 59.77417 "/>
<path transform="matrix(1,0,0,-1,9.686,117.693)" stroke-width="1.19553" stroke-linecap="butt" stroke-miterlimit="10" stroke-linejoin="miter" fill="none" stroke="#000080" d="M 149.43544 59.77417 C 149.43544 59.77417 150.78504 62.36945 151.30339 63.27655 C 151.82173 64.18365 152.65299 65.53444 153.17133 66.31197 C 153.68967 67.08948 154.52092 68.23247 155.03928 68.88039 C 155.55762 69.5283 156.38887 70.46349 156.90721 70.98183 C 157.42555 71.50017 158.25682 72.22752 158.77516 72.61627 C 159.2935 73.00502 160.12476 73.52457 160.6431 73.78374 C 161.16144 74.04291 161.9927 74.35463 162.51105 74.4842 C 163.02939 74.6138 163.86064 74.71771 164.37899 74.71771 C 164.89733 74.71771 165.72859 74.6138 166.24694 74.4842 C 166.76528 74.35463 167.59653 74.04291 168.11487 73.78374 C 168.63321 73.52457 169.46448 73.00502 169.98282 72.61627 C 170.50116 72.22752 171.33242 71.50017 171.85076 70.98183 C 172.3691 70.46349 173.20037 69.5283 173.7187 68.88039 C 174.23705 68.23247 175.0683 67.08948 175.58664 66.31197 C 176.10498 65.53444 176.93625 64.18365 177.45459 63.27655 C 177.97293 62.36945 178.80419 60.81085 179.32253 59.77417 C 179.84087 58.73749 180.67214 56.97107 181.19048 55.80478 C 181.70882 54.6385 182.54007 52.66428 183.05841 51.36842 C 183.57675 50.07256 184.40802 47.89052 184.92636 46.46507 C 185.4447 45.03963 186.27596 42.64978 186.7943 41.09474 C 187.31264 39.5397 188.1439 36.94203 188.66225 35.25742 C 189.18059 33.57278 190.01184 30.7673 190.53018 28.95311 C 191.04853 27.1389 191.87979 24.12561 192.39813 22.18181 C 192.91648 20.238 194.26607 14.94354 194.26607 14.94354 "/>
</g>
<symbol id="font_3_1">
<path d="M .305 .31300003 C .311 .33900003 .334 .43100003 .404 .43100003 C .409 .43100003 .433 .43100003 .454 .418 C .426 .41300003 .40600003 .388 .40600003 .36400003 C .40600003 .34800003 .417 .32900004 .444 .32900004 C .46600003 .32900004 .498 .34700004 .498 .38700003 C .498 .43900005 .439 .45300005 .405 .45300005 C .347 .45300005 .312 .40000005 .3 .37700004 C .275 .44300003 .221 .45300005 .19200002 .45300005 C .08800001 .45300005 .031000002 .32400004 .031000002 .29900003 C .031000002 .28900004 .041 .28900004 .043000007 .28900004 C .051000008 .28900004 .054000006 .291 .056 .3 C .09 .40600003 .156 .43100003 .19000001 .43100003 C .209 .43100003 .244 .42200003 .244 .36400003 C .244 .33300004 .22700002 .26600004 .19000001 .126 C .17400001 .064 .13900002 .022000002 .095000009 .022000002 C .08900001 .022000002 .06600001 .022000002 .045 .035 C .07000001 .040000004 .09200001 .061 .09200001 .089 C .09200001 .116000007 .07000001 .124000009 .055000009 .124000009 C .025 .124000009 0 .098000008 0 .06600001 C 0 .020000002 .050000006 0 .094000007 0 C .16000001 0 .19600001 .07000001 .19900002 .076000008 C .21100001 .039 .24700003 0 .307 0 C .41 0 .467 .12900001 .467 .15400002 C .467 .16400002 .458 .16400002 .455 .16400002 C .446 .16400002 .444 .16000001 .442 .15300001 C .409 .046 .341 .022000002 .30900003 .022000002 C .27 .022000002 .254 .054 .254 .08800001 C .254 .11000001 .26 .13200002 .271 .17600002 L .305 .31300003 Z "/>
</symbol>
<use xlink:href="#font_3_1" transform="matrix(9.9626,0,0,-9.9626,207.78491,60.166589)"/>
<symbol id="font_3_2">
<path d="M .45700003 .586 C .461 .6 .461 .602 .461 .609 C .461 .62700006 .447 .63600006 .432 .63600006 C .42200003 .63600006 .40600003 .63 .397 .615 C .395 .61 .387 .579 .38300003 .561 C .37600003 .535 .36900003 .508 .363 .48100005 L .318 .301 C .314 .286 .271 .21600002 .20500002 .21600002 C .15400002 .21600002 .143 .26000003 .143 .29700003 C .143 .34300003 .16000001 .40500004 .194 .49300004 C .21000001 .53400006 .21400002 .545 .21400002 .56500008 C .21400002 .61 .18200001 .6470001 .13200002 .6470001 C .037 .6470001 0 .50200006 0 .49300004 C 0 .48300005 .01 .48300005 .012 .48300005 C .022000002 .48300005 .023 .485 .028000003 .50100007 C .055000009 .595 .095000009 .625 .12900001 .625 C .13700001 .625 .15400002 .625 .15400002 .59300008 C .15400002 .568 .14400001 .54200008 .13700001 .523 C .097 .41700004 .079 .36 .079 .31300003 C .079 .224 .142 .194 .201 .194 C .24000003 .194 .274 .21100001 .30200003 .23900002 C .289 .187 .277 .13800001 .237 .08500001 C .21100001 .051 .17300001 .022 .127 .022 C .113000009 .022 .068 .025000006 .051000008 .06400001 C .067 .06400001 .080000009 .06400001 .094000007 .076000008 C .104 .08500001 .11400001 .098000008 .11400001 .117000009 C .11400001 .148 .087000008 .15200001 .07700001 .15200001 C .054000006 .15200001 .021 .136 .021 .087000008 C .021 .037 .065000008 0 .127 0 C .23 0 .333 .091000009 .361 .20400001 L .45700003 .586 Z "/>
</symbol>
<use xlink:href="#font_3_2" transform="matrix(9.9626,0,0,-9.9626,97.03291,9.652334)"/>
</svg>
