<?xml version="1.0" encoding="UTF-8" standalone="no"?>
<!DOCTYPE svg PUBLIC "-//W3C//DTD SVG 1.1//EN" "http://www.w3.org/Graphics/SVG/1.1/DTD/svg11.dtd">
<svg xmlns="http://www.w3.org/2000/svg" xmlns:xlink="http://www.w3.org/1999/xlink" version="1.1" width="267.924pt" height="165.936pt" viewBox="0 0 267.924 165.936">
<path transform="matrix(1,0,0,-1,12.176,158.99)" stroke-width="1" stroke-linecap="butt" stroke-dasharray="2.98883,2.98883" stroke-miterlimit="10" stroke-linejoin="miter" fill="none" stroke="#bfbfbf" d="M 0 0 L 0 145.9025 M 12.15854 0 L 12.15854 145.9025 M 24.31708 0 L 24.31708 145.9025 M 36.47562 0 L 36.47562 145.9025 M 48.63416 0 L 48.63416 145.9025 M 60.79271 0 L 60.79271 145.9025 M 72.95125 0 L 72.95125 145.9025 M 85.10979 0 L 85.10979 145.9025 M 97.26833 0 L 97.26833 145.9025 M 109.42688 0 L 109.42688 145.9025 M 133.74396 0 L 133.74396 145.9025 M 145.9025 0 L 145.9025 145.9025 M 158.06104 0 L 158.06104 145.9025 M 170.21959 0 L 170.21959 145.9025 M 182.37813 0 L 182.37813 145.9025 M 194.53667 0 L 194.53667 145.9025 M 206.6952 0 L 206.6952 145.9025 M 218.85376 0 L 218.85376 145.9025 M 231.0123 0 L 231.0123 145.9025 M 243.17084 0 L 243.17084 145.9025 "/>
<path transform="matrix(1,0,0,-1,12.176,158.99)" stroke-width="1" stroke-linecap="butt" stroke-dasharray="2.98883,2.98883" stroke-miterlimit="10" stroke-linejoin="miter" fill="none" stroke="#bfbfbf" d="M 0 0 L 243.17084 0 M 0 12.15854 L 243.17084 12.15854 M 0 24.31708 L 243.17084 24.31708 M 0 36.47562 L 243.17084 36.47562 M 0 48.63416 L 243.17084 48.63416 M 0 60.79271 L 243.17084 60.79271 M 0 85.10979 L 243.17084 85.10979 M 0 97.26833 L 243.17084 97.26833 M 0 109.42688 L 243.17084 109.42688 M 0 121.58542 L 243.17084 121.58542 M 0 133.74396 L 243.17084 133.74396 M 0 145.9025 L 243.17084 145.9025 "/>
<path transform="matrix(1,0,0,-1,12.176,158.99)" stroke-width="1" stroke-linecap="butt" stroke-miterlimit="10" stroke-linejoin="miter" fill="none" stroke="#808080" d="M 0 70.82483 L 0 75.07765 M 12.15854 70.82483 L 12.15854 75.07765 M 24.31708 70.82483 L 24.31708 75.07765 M 36.47562 70.82483 L 36.47562 75.07765 M 48.63416 70.82483 L 48.63416 75.07765 M 60.79271 70.82483 L 60.79271 75.07765 M 72.95125 70.82483 L 72.95125 75.07765 M 85.10979 70.82483 L 85.10979 75.07765 M 97.26833 70.82483 L 97.26833 75.07765 M 109.42688 70.82483 L 109.42688 75.07765 M 133.74396 70.82483 L 133.74396 75.07765 M 145.9025 70.82483 L 145.9025 75.07765 M 158.06104 70.82483 L 158.06104 75.07765 M 170.21959 70.82483 L 170.21959 75.07765 M 182.37813 70.82483 L 182.37813 75.07765 M 194.53667 70.82483 L 194.53667 75.07765 M 206.6952 70.82483 L 206.6952 75.07765 M 218.85376 70.82483 L 218.85376 75.07765 M 231.0123 70.82483 L 231.0123 75.07765 M 243.17084 70.82483 L 243.17084 75.07765 "/>
<path transform="matrix(1,0,0,-1,12.176,158.99)" stroke-width="1" stroke-linecap="butt" stroke-miterlimit="10" stroke-linejoin="miter" fill="none" stroke="#808080" d="M 119.459 0 L 123.71182 0 M 119.459 12.15854 L 123.71182 12.15854 M 119.459 24.31708 L 123.71182 24.31708 M 119.459 36.47562 L 123.71182 36.47562 M 119.459 48.63416 L 123.71182 48.63416 M 119.459 60.79271 L 123.71182 60.79271 M 119.459 85.10979 L 123.71182 85.10979 M 119.459 97.26833 L 123.71182 97.26833 M 119.459 109.42688 L 123.71182 109.42688 M 119.459 121.58542 L 123.71182 121.58542 M 119.459 133.74396 L 123.71182 133.74396 M 119.459 145.9025 L 123.71182 145.9025 "/>
<path transform="matrix(1,0,0,-1,12.176,158.99)" stroke-width="1" stroke-linecap="butt" stroke-miterlimit="10" stroke-linejoin="miter" fill="none" stroke="#000000" d="M 0 72.95125 L 241.17832 72.95125 "/>
<path transform="matrix(1,0,0,-1,253.35431,86.03876)" d="M 1.99252 0 L -1.19551 1.59401 L 0 0 L -1.19551 -1.59401 "/>
<path transform="matrix(1,0,0,-1,12.176,158.99)" stroke-width="1" stroke-linecap="butt" stroke-miterlimit="10" stroke-linejoin="miter" fill="none" stroke="#000000" d="M 121.58542 0 L 121.58542 143.90998 "/>
<path transform="matrix(0,-1,-1,-0,133.76142,15.080032)" d="M 1.99252 0 L -1.19551 1.59401 L 0 0 L -1.19551 -1.59401 "/>
<symbol id="font_0_1">
<path d="M .57600006 0 C .59300008 0 .611 0 .611 .019999996 C .611 .040000008 .59300008 .040000008 .57600006 .040000008 L .035000005 .040000008 C .018 .040000008 0 .040000008 0 .019999996 C 0 0 .018 0 .035000005 0 L .57600006 0 Z "/>
</symbol>
<use xlink:href="#font_0_1" transform="matrix(9.9626,0,0,-9.9626,4.147896,95.814609)"/>
<symbol id="font_1_2">
<path d="M .205 .64000007 C .205 .66400006 .205 .666 .18200003 .666 C .120000008 .60200008 .032000007 .60200008 0 .60200008 L 0 .57100006 C .020000004 .57100006 .07900001 .57100006 .13100001 .597 L .13100001 .079 C .13100001 .043 .128 .031000002 .038000004 .031000002 L .0060000049 .031000002 L .0060000049 0 C .04100001 .003 .128 .003 .168 .003 C .20800002 .003 .29500003 .003 .33000005 0 L .33000005 .031000002 L .29800005 .031000002 C .20800002 .031000002 .205 .042000005 .205 .079 L .205 .64000007 Z "/>
</symbol>
<symbol id="font_1_1">
<path d="M .421 .34200005 C .421 .42200003 .416 .50200006 .381 .57600006 C .335 .67200008 .25300003 .688 .211 .688 C .15100001 .688 .07800001 .66200008 .037000006 .56900009 C .0050000029 .5 0 .42200003 0 .34200005 C 0 .26700003 .0040000008 .177 .045000007 .101 C .088 .020000002 .161 0 .21000001 0 C .264 0 .34 .021000002 .384 .116000007 C .416 .185 .421 .263 .421 .34200005 M .21000001 .022000002 C .171 .022000002 .112 .047000003 .094 .143 C .083000008 .20300001 .083000008 .29500003 .083000008 .35400004 C .083000008 .41800005 .083000008 .48400004 .091000009 .53800007 C .11 .65700009 .185 .66600009 .21000001 .66600009 C .243 .66600009 .30900003 .64800009 .328 .549 C .338 .49300004 .338 .41700004 .338 .35400004 C .338 .279 .338 .21100001 .32700003 .147 C .312 .052 .255 .022000002 .21000001 .022000002 Z "/>
</symbol>
<use xlink:href="#font_1_2" transform="matrix(9.9626,0,0,-9.9626,11.955671,98.106)"/>
<use xlink:href="#font_1_1" transform="matrix(9.9626,0,0,-9.9626,16.438843,98.32518)"/>
<use xlink:href="#font_0_1" transform="matrix(9.9626,0,0,-9.9626,18.796896,95.814609)"/>
<symbol id="font_1_a">
<path d="M .32500003 .34000004 L .32500003 .30800004 C .32500003 .074 .22100002 .028 .16300002 .028 C .146 .028 .092 .030000002 .065000008 .064 C .109000008 .064 .117000009 .093 .117000009 .11000001 C .117000009 .141 .093 .156 .071 .156 C .055 .156 .024999999 .147 .024999999 .108 C .024999999 .041 .079 0 .164 0 C .293 0 .41500003 .136 .41500003 .35100005 C .41500003 .62000009 .3 .688 .21100003 .688 C .15600002 .688 .107 .67 .064 .62500008 C .023000002 .58000007 0 .53800007 0 .46300004 C 0 .33800004 .08800001 .24000001 .20000002 .24000001 C .261 .24000001 .30200003 .28200004 .32500003 .34000004 M .201 .263 C .185 .263 .139 .263 .108 .32600004 C .089999999 .36300005 .089999999 .41300006 .089999999 .46200005 C .089999999 .51600006 .089999999 .563 .11100001 .6 C .13800001 .65000006 .176 .66300007 .21100003 .66300007 C .25700004 .66300007 .29000003 .62900009 .307 .58400008 C .31900005 .55200007 .323 .48900003 .323 .44300006 C .323 .36000005 .28900004 .263 .201 .263 Z "/>
</symbol>
<use xlink:href="#font_1_a" transform="matrix(9.9626,0,0,-9.9626,26.136427,98.32518)"/>
<use xlink:href="#font_0_1" transform="matrix(9.9626,0,0,-9.9626,30.954895,95.814609)"/>
<symbol id="font_1_9">
<path d="M .121 .47900004 C .075 .509 .071 .54300007 .071 .56000009 C .071 .62100008 .136 .66300007 .20700002 .66300007 C .28000004 .66300007 .344 .61100009 .344 .53900006 C .344 .48200003 .305 .43400005 .245 .39900003 L .121 .47900004 M .26700003 .38400004 C .33900003 .42100004 .388 .47300006 .388 .53900006 C .388 .63100007 .29900003 .688 .208 .688 C .108 .688 .027000003 .614 .027000003 .521 C .027000003 .503 .029 .45800004 .071 .41100005 C .082 .39900003 .11900001 .37400005 .144 .35700003 C .086 .32800005 0 .272 0 .17300001 C 0 .067 .102000009 0 .20700002 0 C .32000003 0 .41500003 .083000008 .41500003 .19000001 C .41500003 .22600001 .404 .27100004 .36600004 .31300003 C .34700004 .33400003 .33100004 .34400005 .26700003 .38400004 M .167 .34200005 L .29000003 .26400004 C .31800003 .245 .365 .215 .365 .154 C .365 .080000009 .29000003 .028 .208 .028 C .122 .028 .050000006 .09 .050000006 .17300001 C .050000006 .231 .082 .29500003 .167 .34200005 Z "/>
</symbol>
<use xlink:href="#font_1_9" transform="matrix(9.9626,0,0,-9.9626,38.29543,98.32518)"/>
<use xlink:href="#font_0_1" transform="matrix(9.9626,0,0,-9.9626,43.112897,95.814609)"/>
<symbol id="font_1_8">
<path d="M .42000003 .63100007 C .42900003 .64300009 .42900003 .64500007 .42900003 .66600009 L .18600002 .66600009 C .064 .66600009 .062000008 .679 .058000007 .6980001 L .033 .6980001 L 0 .49200005 L .024999999 .49200005 C .028000005 .508 .037 .57100006 .050000006 .58300009 C .057000005 .58900007 .13500002 .58900007 .148 .58900007 L .35500003 .58900007 C .344 .573 .26500003 .46400006 .24300003 .43100003 C .153 .29600004 .12000001 .157 .12000001 .055 C .12000001 .045 .12000001 0 .16600001 0 C .21200001 0 .21200001 .045 .21200001 .055 L .21200001 .106000009 C .21200001 .16100002 .21500004 .216 .22300002 .27 C .22700003 .29300005 .24100003 .37900005 .28500004 .44100005 L .42000003 .63100007 Z "/>
</symbol>
<use xlink:href="#font_1_8" transform="matrix(9.9626,0,0,-9.9626,50.592908,98.32518)"/>
<use xlink:href="#font_0_1" transform="matrix(9.9626,0,0,-9.9626,55.271898,95.814609)"/>
<symbol id="font_1_7">
<path d="M .089999999 .35000003 L .089999999 .37400005 C .089999999 .62700006 .21400002 .66300007 .26500003 .66300007 C .28900004 .66300007 .33100004 .65700009 .35300002 .623 C .33800004 .623 .298 .623 .298 .57800009 C .298 .54700008 .32200004 .53200009 .344 .53200009 C .36 .53200009 .39000003 .54100009 .39000003 .58000007 C .39000003 .64000007 .34600003 .688 .263 .688 C .13499999 .688 0 .559 0 .33800004 C 0 .071 .116000007 0 .20900002 0 C .32000003 0 .41500003 .094000007 .41500003 .22600001 C .41500003 .35300005 .32600004 .44900004 .215 .44900004 C .14700002 .44900004 .11000001 .39800004 .089999999 .35000003 M .20900002 .028 C .146 .028 .116000007 .088 .11000001 .103 C .092 .15 .092 .23 .092 .24800001 C .092 .32600004 .124000009 .42600004 .21400002 .42600004 C .23000002 .42600004 .27600003 .42600004 .307 .36400003 C .32500003 .32700003 .32500003 .27600003 .32500003 .22700002 C .32500003 .179 .32500003 .12900001 .30800004 .093 C .27800004 .033000005 .23200003 .028 .20900002 .028 Z "/>
</symbol>
<use xlink:href="#font_1_7" transform="matrix(9.9626,0,0,-9.9626,62.61143,98.32518)"/>
<use xlink:href="#font_0_1" transform="matrix(9.9626,0,0,-9.9626,67.42989,95.814609)"/>
<symbol id="font_1_6">
<path d="M .39900003 .223 C .39900003 .34200005 .317 .44200004 .209 .44200004 C .16100002 .44200004 .118000019 .42600004 .082 .39100004 L .082 .586 C .10200001 .58000007 .135 .573 .16700001 .573 C .29 .573 .36 .66400006 .36 .67700007 C .36 .683 .357 .688 .35 .688 C .349 .688 .347 .688 .342 .68500009 C .322 .67600008 .273 .656 .20600002 .656 C .16600001 .656 .120000008 .66300007 .073 .6840001 C .065 .68700006 .06300001 .68700006 .061000009 .68700006 C .051000004 .68700006 .051000004 .679 .051000004 .66300007 L .051000004 .36700005 C .051000004 .34900005 .051000004 .34100003 .065 .34100003 C .07200001 .34100003 .074 .34400005 .07800001 .35000003 C .08900002 .36600004 .12600002 .42000006 .207 .42000006 C .259 .42000006 .284 .37400005 .292 .35600005 C .308 .31900005 .31 .28000004 .31 .23 C .31 .19500001 .31 .135 .286 .093 C .262 .054000006 .22500001 .028 .17900002 .028 C .106000009 .028 .049000008 .08100001 .032 .14000002 C .035 .13900002 .038000008 .13800001 .049000008 .13800001 C .082 .13800001 .09900001 .163 .09900001 .187 C .09900001 .21100001 .082 .23600002 .049000008 .23600002 C .035 .23600002 0 .22900002 0 .18300002 C 0 .097 .069000009 0 .18100001 0 C .297 0 .39900003 .096 .39900003 .223 Z "/>
</symbol>
<use xlink:href="#font_1_6" transform="matrix(9.9626,0,0,-9.9626,74.85013,98.32518)"/>
<use xlink:href="#font_0_1" transform="matrix(9.9626,0,0,-9.9626,79.5879,95.814609)"/>
<symbol id="font_1_5">
<path d="M .266 .165 L .266 .078 C .266 .042000005 .26400004 .031000002 .19000001 .031000002 L .16900002 .031000002 L .16900002 0 C .21000001 .003 .26200003 .003 .30400003 .003 C .34600003 .003 .39900003 .003 .44000004 0 L .44000004 .031000002 L .41900004 .031000002 C .34500004 .031000002 .34300003 .042000005 .34300003 .078 L .34300003 .165 L .44300003 .165 L .44300003 .19600001 L .34300003 .19600001 L .34300003 .651 C .34300003 .671 .34300003 .67700007 .32700003 .67700007 C .31800003 .67700007 .31500004 .67700007 .307 .665 L 0 .19600001 L 0 .165 L .266 .165 M .272 .19600001 L .028 .19600001 L .272 .569 L .272 .19600001 Z "/>
</symbol>
<use xlink:href="#font_1_5" transform="matrix(9.9626,0,0,-9.9626,86.788959,98.106)"/>
<use xlink:href="#font_0_1" transform="matrix(9.9626,0,0,-9.9626,91.7469,95.814609)"/>
<symbol id="font_1_4">
<path d="M .24800003 .37400005 C .33 .40100003 .388 .47100006 .388 .55 C .388 .632 .3 .688 .204 .688 C .10300001 .688 .027000003 .628 .027000003 .55200007 C .027000003 .519 .049000004 .5 .078 .5 C .109000008 .5 .12900001 .522 .12900001 .55100008 C .12900001 .6010001 .082 .6010001 .067 .6010001 C .098 .65000006 .164 .66300007 .20000002 .66300007 C .24100003 .66300007 .29600004 .64100006 .29600004 .55100008 C .29600004 .53900006 .29400004 .48100005 .268 .43700005 C .238 .38900004 .204 .38600005 .17900002 .38500003 C .171 .38400004 .14700002 .38200004 .14000002 .38200004 C .132 .38100005 .125 .38000003 .125 .37000004 C .125 .35900004 .132 .35900004 .14900002 .35900004 L .19300002 .35900004 C .275 .35900004 .312 .29100005 .312 .193 C .312 .057000005 .24300003 .028 .199 .028 C .15600002 .028 .081 .045 .046000005 .104 C .081 .09900001 .11200001 .12100001 .11200001 .15900001 C .11200001 .19500001 .085 .215 .056 .215 C .031999999 .215 0 .201 0 .157 C 0 .06600001 .093 0 .20200002 0 C .32400004 0 .41500003 .091000009 .41500003 .193 C .41500003 .27500005 .35200004 .35300005 .24800003 .37400005 Z "/>
</symbol>
<use xlink:href="#font_1_4" transform="matrix(9.9626,0,0,-9.9626,99.08743,98.32518)"/>
<use xlink:href="#font_0_1" transform="matrix(9.9626,0,0,-9.9626,103.9049,95.814609)"/>
<symbol id="font_1_3">
<path d="M .07700001 .07700001 L .18300002 .18 C .33900003 .31800003 .39900003 .372 .39900003 .47200004 C .39900003 .586 .30900003 .666 .18700002 .666 C .074 .666 0 .574 0 .485 C 0 .42900003 .05 .42900003 .053000008 .42900003 C .07000001 .42900003 .105000007 .441 .105000007 .48200003 C .105000007 .508 .08700001 .53400006 .052000006 .53400006 C .044000005 .53400006 .042000008 .53400006 .039 .53300008 C .062000004 .59800007 .11600001 .63500007 .17400001 .63500007 C .26500003 .63500007 .308 .554 .308 .47200004 C .308 .39200003 .25800003 .31300003 .20300003 .25100003 L .011000004 .037 C 0 .026 0 .024 0 0 L .37100003 0 L .39900003 .17400001 L .374 .17400001 C .36900003 .14400001 .36200003 .1 .352 .085 C .345 .07700001 .279 .07700001 .257 .07700001 L .07700001 .07700001 Z "/>
</symbol>
<use xlink:href="#font_1_3" transform="matrix(9.9626,0,0,-9.9626,111.325138,98.106)"/>
<use xlink:href="#font_0_1" transform="matrix(9.9626,0,0,-9.9626,116.063899,95.814609)"/>
<use xlink:href="#font_1_2" transform="matrix(9.9626,0,0,-9.9626,123.87167,98.106)"/>
<use xlink:href="#font_1_2" transform="matrix(9.9626,0,0,-9.9626,144.31467,98.106)"/>
<use xlink:href="#font_1_3" transform="matrix(9.9626,0,0,-9.9626,156.08412,98.106)"/>
<use xlink:href="#font_1_4" transform="matrix(9.9626,0,0,-9.9626,168.16342,98.32518)"/>
<use xlink:href="#font_1_5" transform="matrix(9.9626,0,0,-9.9626,180.18195,98.106)"/>
<use xlink:href="#font_1_6" transform="matrix(9.9626,0,0,-9.9626,192.55912,98.32518)"/>
<use xlink:href="#font_1_7" transform="matrix(9.9626,0,0,-9.9626,204.63843,98.32518)"/>
<use xlink:href="#font_1_8" transform="matrix(9.9626,0,0,-9.9626,216.9359,98.32518)"/>
<use xlink:href="#font_1_9" transform="matrix(9.9626,0,0,-9.9626,228.95442,98.32518)"/>
<use xlink:href="#font_1_a" transform="matrix(9.9626,0,0,-9.9626,241.11342,98.32518)"/>
<use xlink:href="#font_1_2" transform="matrix(9.9626,0,0,-9.9626,251.24967,98.106)"/>
<use xlink:href="#font_1_1" transform="matrix(9.9626,0,0,-9.9626,255.73282,98.32518)"/>
<use xlink:href="#font_0_1" transform="matrix(9.9626,0,0,-9.9626,116.2109,159.4936)"/>
<use xlink:href="#font_1_7" transform="matrix(9.9626,0,0,-9.9626,123.55143,162.00418)"/>
<use xlink:href="#font_0_1" transform="matrix(9.9626,0,0,-9.9626,116.2109,147.3356)"/>
<use xlink:href="#font_1_6" transform="matrix(9.9626,0,0,-9.9626,123.631137,149.84618)"/>
<use xlink:href="#font_0_1" transform="matrix(9.9626,0,0,-9.9626,116.2109,135.1766)"/>
<use xlink:href="#font_1_5" transform="matrix(9.9626,0,0,-9.9626,123.41196,137.468)"/>
<use xlink:href="#font_0_1" transform="matrix(9.9626,0,0,-9.9626,116.2109,123.01861)"/>
<use xlink:href="#font_1_4" transform="matrix(9.9626,0,0,-9.9626,123.55143,125.52918)"/>
<use xlink:href="#font_0_1" transform="matrix(9.9626,0,0,-9.9626,116.2109,110.86061)"/>
<use xlink:href="#font_1_3" transform="matrix(9.9626,0,0,-9.9626,123.631137,113.15201)"/>
<use xlink:href="#font_0_1" transform="matrix(9.9626,0,0,-9.9626,116.2109,98.70161)"/>
<use xlink:href="#font_1_2" transform="matrix(9.9626,0,0,-9.9626,124.01968,100.993007)"/>
<use xlink:href="#font_1_2" transform="matrix(9.9626,0,0,-9.9626,124.01968,77.091)"/>
<use xlink:href="#font_1_3" transform="matrix(9.9626,0,0,-9.9626,123.631137,64.93301)"/>
<use xlink:href="#font_1_4" transform="matrix(9.9626,0,0,-9.9626,123.55143,52.99418)"/>
<use xlink:href="#font_1_5" transform="matrix(9.9626,0,0,-9.9626,123.41196,40.616006)"/>
<use xlink:href="#font_1_6" transform="matrix(9.9626,0,0,-9.9626,123.631137,28.677186)"/>
<use xlink:href="#font_1_7" transform="matrix(9.9626,0,0,-9.9626,123.55143,16.51918)"/>
<clipPath id="cp2">
<path transform="matrix(1,0,0,-1,12.176,158.99)" d="M 0 0 L 243.17084 0 L 243.17084 145.9025 L 0 145.9025 Z "/>
</clipPath>
<g clip-path="url(#cp2)">
<path transform="matrix(1,0,0,-1,12.176,158.99)" stroke-width="1.19553" stroke-linecap="butt" stroke-miterlimit="10" stroke-linejoin="miter" fill="none" stroke="#000080" d="M 24.31708 72.95125 L 121.58542 24.31708 "/>
<path transform="matrix(1,0,0,-1,12.176,158.99)" stroke-width="1.19553" stroke-linecap="butt" stroke-miterlimit="10" stroke-linejoin="miter" fill="none" stroke="#000080" d="M 158.06104 97.26833 L 218.85376 72.95125 "/>
<path transform="matrix(1,0,0,-1,12.176,158.99)" stroke-width="1.19553" stroke-linecap="butt" stroke-miterlimit="10" stroke-linejoin="miter" fill="none" stroke="#000080" d="M 121.58542 145.9025 C 121.58542 145.9025 122.6835 145.8649 123.10524 145.81806 C 123.52696 145.7712 124.20332 145.65847 124.62505 145.56476 C 125.04678 145.47106 125.72313 145.28316 126.14487 145.14258 C 126.5666 145.00202 127.24295 144.739 127.66469 144.55158 C 128.08643 144.36415 128.76277 144.026 129.18451 143.7917 C 129.60623 143.55742 130.2826 143.14403 130.70432 142.86287 C 131.12606 142.58171 131.80242 142.09325 132.22414 141.76526 C 132.64588 141.43726 133.32222 140.87369 133.74396 140.49881 C 134.1657 140.12392 134.84204 139.48505 135.26378 139.06331 C 135.68552 138.64159 136.36186 137.9277 136.7836 137.45914 C 137.20532 136.99057 137.88169 136.20157 138.3034 135.6861 C 138.72515 135.17064 139.40149 134.30628 139.82323 133.74396 C 140.24497 133.18164 140.92131 132.24234 141.34305 131.63318 C 141.76479 131.02402 142.44113 130.00963 142.86287 129.35356 C 143.28459 128.69751 143.96096 127.60768 144.38268 126.90477 C 144.80442 126.20186 145.48078 125.03716 145.9025 124.28743 C 146.32424 123.5377 147.00058 122.29784 147.42232 121.5012 C 147.84406 120.70459 148.5204 119.38928 148.94214 118.54578 C 149.36388 117.70229 150.04022 116.31213 150.46196 115.42183 C 150.88368 114.53152 151.56005 113.06627 151.98177 112.12906 C 152.4035 111.19183 153.07985 109.65105 153.50159 108.66696 C 153.92333 107.68288 154.59967 106.06732 155.02141 105.03645 C 155.44315 104.00557 156.11949 102.31487 156.54123 101.23706 C 156.96295 100.15926 158.06104 97.26833 158.06104 97.26833 "/>
</g>
<path transform="matrix(1,0,0,-1,12.176,158.99)" d="M 26.30963 97.26833 C 26.30963 98.3688 25.41754 99.26088 24.31708 99.26088 C 23.2166 99.26088 22.32452 98.3688 22.32452 97.26833 C 22.32452 96.16786 23.2166 95.27577 24.31708 95.27577 C 25.41754 95.27577 26.30963 96.16786 26.30963 97.26833 Z M 24.31708 97.26833 " fill="#000080"/>
<path transform="matrix(1,0,0,-1,12.176,158.99)" stroke-width="1" stroke-linecap="butt" stroke-miterlimit="10" stroke-linejoin="miter" fill="none" stroke="#000080" d="M 26.30963 97.26833 C 26.30963 98.3688 25.41754 99.26088 24.31708 99.26088 C 23.2166 99.26088 22.32452 98.3688 22.32452 97.26833 C 22.32452 96.16786 23.2166 95.27577 24.31708 95.27577 C 25.41754 95.27577 26.30963 96.16786 26.30963 97.26833 Z M 24.31708 97.26833 "/>
<path transform="matrix(1,0,0,-1,12.176,158.99)" d="M 26.30963 72.95125 C 26.30963 74.05171 25.41754 74.9438 24.31708 74.9438 C 23.2166 74.9438 22.32452 74.05171 22.32452 72.95125 C 22.32452 71.85077 23.2166 70.9587 24.31708 70.9587 C 25.41754 70.9587 26.30963 71.85077 26.30963 72.95125 Z M 24.31708 72.95125 " fill="#ffffff"/>
<path transform="matrix(1,0,0,-1,12.176,158.99)" stroke-width="1" stroke-linecap="butt" stroke-miterlimit="10" stroke-linejoin="miter" fill="none" stroke="#000080" d="M 26.30963 72.95125 C 26.30963 74.05171 25.41754 74.9438 24.31708 74.9438 C 23.2166 74.9438 22.32452 74.05171 22.32452 72.95125 C 22.32452 71.85077 23.2166 70.9587 24.31708 70.9587 C 25.41754 70.9587 26.30963 71.85077 26.30963 72.95125 Z M 24.31708 72.95125 "/>
<path transform="matrix(1,0,0,-1,12.176,158.99)" d="M 123.57797 24.31708 C 123.57797 25.41754 122.68588 26.30963 121.58542 26.30963 C 120.48494 26.30963 119.59286 25.41754 119.59286 24.31708 C 119.59286 23.2166 120.48494 22.32452 121.58542 22.32452 C 122.68588 22.32452 123.57797 23.2166 123.57797 24.31708 Z M 121.58542 24.31708 " fill="#ffffff"/>
<path transform="matrix(1,0,0,-1,12.176,158.99)" stroke-width="1" stroke-linecap="butt" stroke-miterlimit="10" stroke-linejoin="miter" fill="none" stroke="#000080" d="M 123.57797 24.31708 C 123.57797 25.41754 122.68588 26.30963 121.58542 26.30963 C 120.48494 26.30963 119.59286 25.41754 119.59286 24.31708 C 119.59286 23.2166 120.48494 22.32452 121.58542 22.32452 C 122.68588 22.32452 123.57797 23.2166 123.57797 24.31708 Z M 121.58542 24.31708 "/>
<path transform="matrix(1,0,0,-1,12.176,158.99)" d="M 123.57797 145.9025 C 123.57797 147.00298 122.68588 147.89505 121.58542 147.89505 C 120.48494 147.89505 119.59286 147.00298 119.59286 145.9025 C 119.59286 144.80204 120.48494 143.90995 121.58542 143.90995 C 122.68588 143.90995 123.57797 144.80204 123.57797 145.9025 Z M 121.58542 145.9025 " fill="#ffffff"/>
<path transform="matrix(1,0,0,-1,12.176,158.99)" stroke-width="1" stroke-linecap="butt" stroke-miterlimit="10" stroke-linejoin="miter" fill="none" stroke="#000080" d="M 123.57797 145.9025 C 123.57797 147.00298 122.68588 147.89505 121.58542 147.89505 C 120.48494 147.89505 119.59286 147.00298 119.59286 145.9025 C 119.59286 144.80204 120.48494 143.90995 121.58542 143.90995 C 122.68588 143.90995 123.57797 144.80204 123.57797 145.9025 Z M 121.58542 145.9025 "/>
<path transform="matrix(1,0,0,-1,12.176,158.99)" d="M 160.05359 97.26833 C 160.05359 98.3688 159.16152 99.26088 158.06104 99.26088 C 156.96057 99.26088 156.06848 98.3688 156.06848 97.26833 C 156.06848 96.16786 156.96057 95.27577 158.06104 95.27577 C 159.16152 95.27577 160.05359 96.16786 160.05359 97.26833 Z M 158.06104 97.26833 " fill="#ffffff"/>
<path transform="matrix(1,0,0,-1,12.176,158.99)" stroke-width="1" stroke-linecap="butt" stroke-miterlimit="10" stroke-linejoin="miter" fill="none" stroke="#000080" d="M 160.05359 97.26833 C 160.05359 98.3688 159.16152 99.26088 158.06104 99.26088 C 156.96057 99.26088 156.06848 98.3688 156.06848 97.26833 C 156.06848 96.16786 156.96057 95.27577 158.06104 95.27577 C 159.16152 95.27577 160.05359 96.16786 160.05359 97.26833 Z M 158.06104 97.26833 "/>
<path transform="matrix(1,0,0,-1,12.176,158.99)" d="M 160.05359 72.95125 C 160.05359 74.05171 159.16152 74.9438 158.06104 74.9438 C 156.96057 74.9438 156.06848 74.05171 156.06848 72.95125 C 156.06848 71.85077 156.96057 70.9587 158.06104 70.9587 C 159.16152 70.9587 160.05359 71.85077 160.05359 72.95125 Z M 158.06104 72.95125 " fill="#000080"/>
<path transform="matrix(1,0,0,-1,12.176,158.99)" stroke-width="1" stroke-linecap="butt" stroke-miterlimit="10" stroke-linejoin="miter" fill="none" stroke="#000080" d="M 160.05359 72.95125 C 160.05359 74.05171 159.16152 74.9438 158.06104 74.9438 C 156.96057 74.9438 156.06848 74.05171 156.06848 72.95125 C 156.06848 71.85077 156.96057 70.9587 158.06104 70.9587 C 159.16152 70.9587 160.05359 71.85077 160.05359 72.95125 Z M 158.06104 72.95125 "/>
<path transform="matrix(1,0,0,-1,12.176,158.99)" d="M 220.84632 72.95125 C 220.84632 74.05171 219.95423 74.9438 218.85376 74.9438 C 217.75328 74.9438 216.8612 74.05171 216.8612 72.95125 C 216.8612 71.85077 217.75328 70.9587 218.85376 70.9587 C 219.95423 70.9587 220.84632 71.85077 220.84632 72.95125 Z M 218.85376 72.95125 " fill="#ffffff"/>
<path transform="matrix(1,0,0,-1,12.176,158.99)" stroke-width="1" stroke-linecap="butt" stroke-miterlimit="10" stroke-linejoin="miter" fill="none" stroke="#000080" d="M 220.84632 72.95125 C 220.84632 74.05171 219.95423 74.9438 218.85376 74.9438 C 217.75328 74.9438 216.8612 74.05171 216.8612 72.95125 C 216.8612 71.85077 217.75328 70.9587 218.85376 70.9587 C 219.95423 70.9587 220.84632 71.85077 220.84632 72.95125 Z M 218.85376 72.95125 "/>
<symbol id="font_3_1">
<path d="M .305 .31300003 C .311 .33900003 .334 .43100003 .404 .43100003 C .409 .43100003 .433 .43100003 .454 .418 C .426 .41300003 .40600003 .388 .40600003 .36400003 C .40600003 .34800003 .417 .32900004 .444 .32900004 C .46600003 .32900004 .498 .34700004 .498 .38700003 C .498 .43900005 .439 .45300005 .405 .45300005 C .347 .45300005 .312 .40000005 .3 .37700004 C .275 .44300003 .221 .45300005 .19200002 .45300005 C .08800001 .45300005 .031000002 .32400004 .031000002 .29900003 C .031000002 .28900004 .041 .28900004 .043000007 .28900004 C .051000008 .28900004 .054000006 .291 .056 .3 C .09 .40600003 .156 .43100003 .19000001 .43100003 C .209 .43100003 .244 .42200003 .244 .36400003 C .244 .33300004 .22700002 .26600004 .19000001 .126 C .17400001 .064 .13900002 .022000002 .095000009 .022000002 C .08900001 .022000002 .06600001 .022000002 .045 .035 C .07000001 .040000004 .09200001 .061 .09200001 .089 C .09200001 .116000007 .07000001 .124000009 .055000009 .124000009 C .025 .124000009 0 .098000008 0 .06600001 C 0 .020000002 .050000006 0 .094000007 0 C .16000001 0 .19600001 .07000001 .19900002 .076000008 C .21100001 .039 .24700003 0 .307 0 C .41 0 .467 .12900001 .467 .15400002 C .467 .16400002 .458 .16400002 .455 .16400002 C .446 .16400002 .444 .16000001 .442 .15300001 C .409 .046 .341 .022000002 .30900003 .022000002 C .27 .022000002 .254 .054 .254 .08800001 C .254 .11000001 .26 .13200002 .271 .17600002 L .305 .31300003 Z "/>
</symbol>
<use xlink:href="#font_3_1" transform="matrix(9.9626,0,0,-9.9626,259.1989,88.279598)"/>
<symbol id="font_3_2">
<path d="M .45700003 .586 C .461 .6 .461 .602 .461 .609 C .461 .62700006 .447 .63600006 .432 .63600006 C .42200003 .63600006 .40600003 .63 .397 .615 C .395 .61 .387 .579 .38300003 .561 C .37600003 .535 .36900003 .508 .363 .48100005 L .318 .301 C .314 .286 .271 .21600002 .20500002 .21600002 C .15400002 .21600002 .143 .26000003 .143 .29700003 C .143 .34300003 .16000001 .40500004 .194 .49300004 C .21000001 .53400006 .21400002 .545 .21400002 .56500008 C .21400002 .61 .18200001 .6470001 .13200002 .6470001 C .037 .6470001 0 .50200006 0 .49300004 C 0 .48300005 .01 .48300005 .012 .48300005 C .022000002 .48300005 .023 .485 .028000003 .50100007 C .055000009 .595 .095000009 .625 .12900001 .625 C .13700001 .625 .15400002 .625 .15400002 .59300008 C .15400002 .568 .14400001 .54200008 .13700001 .523 C .097 .41700004 .079 .36 .079 .31300003 C .079 .224 .142 .194 .201 .194 C .24000003 .194 .274 .21100001 .30200003 .23900002 C .289 .187 .277 .13800001 .237 .08500001 C .21100001 .051 .17300001 .022 .127 .022 C .113000009 .022 .068 .025000006 .051000008 .06400001 C .067 .06400001 .080000009 .06400001 .094000007 .076000008 C .104 .08500001 .11400001 .098000008 .11400001 .117000009 C .11400001 .148 .087000008 .15200001 .07700001 .15200001 C .054000006 .15200001 .021 .136 .021 .087000008 C .021 .037 .065000008 0 .127 0 C .23 0 .333 .091000009 .361 .20400001 L .45700003 .586 Z "/>
</symbol>
<use xlink:href="#font_3_2" transform="matrix(9.9626,0,0,-9.9626,131.44892,9.652334)"/>
</svg>
