<?xml version="1.0" encoding="UTF-8" standalone="no"?>
<!DOCTYPE svg PUBLIC "-//W3C//DTD SVG 1.1//EN" "http://www.w3.org/Graphics/SVG/1.1/DTD/svg11.dtd">
<svg xmlns="http://www.w3.org/2000/svg" xmlns:xlink="http://www.w3.org/1999/xlink" version="1.1" width="228.537pt" height="117.16pt" viewBox="0 0 228.537 117.16">
<path transform="matrix(1,0,0,-1,21.696,110.214008)" stroke-width="1" stroke-linecap="butt" stroke-miterlimit="10" stroke-linejoin="miter" fill="none" stroke="#808080" d="M 48.56728 46.44138 L 48.56728 50.69315 M 97.13455 46.44138 L 97.13455 50.69315 M 145.70183 46.44138 L 145.70183 50.69315 M 194.26912 46.44138 L 194.26912 50.69315 "/>
<path transform="matrix(1,0,0,-1,21.696,110.214008)" stroke-width="1" stroke-linecap="butt" stroke-miterlimit="10" stroke-linejoin="miter" fill="none" stroke="#808080" d="M -2.12587 0 L 2.12587 0 M -2.12587 97.13455 L 2.12587 97.13455 "/>
<path transform="matrix(1,0,0,-1,21.696,110.214008)" stroke-width="1" stroke-linecap="butt" stroke-miterlimit="10" stroke-linejoin="miter" fill="none" stroke="#000000" d="M 0 48.56728 L 192.2766 48.56728 "/>
<path transform="matrix(1,0,0,-1,213.9726,61.646726)" d="M 1.99252 0 L -1.19551 1.59401 L 0 0 L -1.19551 -1.59401 "/>
<path transform="matrix(1,0,0,-1,21.696,110.214008)" stroke-width="1" stroke-linecap="butt" stroke-miterlimit="10" stroke-linejoin="miter" fill="none" stroke="#000000" d="M 0 0 L 0 95.14203 "/>
<path transform="matrix(0,-1,-1,-0,21.696,15.071976)" d="M 1.99252 0 L -1.19551 1.59401 L 0 0 L -1.19551 -1.59401 "/>
<symbol id="font_0_1">
<path d="M .205 .64000007 C .205 .66400006 .205 .666 .18200003 .666 C .120000008 .60200008 .032000007 .60200008 0 .60200008 L 0 .57100006 C .020000004 .57100006 .07900001 .57100006 .13100001 .597 L .13100001 .079 C .13100001 .043 .128 .031000002 .038000004 .031000002 L .0060000049 .031000002 L .0060000049 0 C .04100001 .003 .128 .003 .168 .003 C .20800002 .003 .29500003 .003 .33000005 0 L .33000005 .031000002 L .29800005 .031000002 C .20800002 .031000002 .205 .042000005 .205 .079 L .205 .64000007 Z "/>
</symbol>
<use xlink:href="#font_0_1" transform="matrix(9.9626,0,0,-9.9626,68.658679,73.714008)"/>
<symbol id="font_0_2">
<path d="M .07700001 .07700001 L .18300002 .18 C .33900003 .31800003 .39900003 .372 .39900003 .47200004 C .39900003 .586 .30900003 .666 .18700002 .666 C .074 .666 0 .574 0 .485 C 0 .42900003 .05 .42900003 .053000008 .42900003 C .07000001 .42900003 .105000007 .441 .105000007 .48200003 C .105000007 .508 .08700001 .53400006 .052000006 .53400006 C .044000005 .53400006 .042000008 .53400006 .039 .53300008 C .062000004 .59800007 .11600001 .63500007 .17400001 .63500007 C .26500003 .63500007 .308 .554 .308 .47200004 C .308 .39200003 .25800003 .31300003 .20300003 .25100003 L .011000004 .037 C 0 .026 0 .024 0 0 L .37100003 0 L .39900003 .17400001 L .374 .17400001 C .36900003 .14400001 .36200003 .1 .352 .085 C .345 .07700001 .279 .07700001 .257 .07700001 L .07700001 .07700001 Z "/>
</symbol>
<use xlink:href="#font_0_2" transform="matrix(9.9626,0,0,-9.9626,116.83713,73.714008)"/>
<symbol id="font_0_3">
<path d="M .24800003 .37400005 C .33 .40100003 .388 .47100006 .388 .55 C .388 .632 .3 .688 .204 .688 C .10300001 .688 .027000003 .628 .027000003 .55200007 C .027000003 .519 .049000004 .5 .078 .5 C .109000008 .5 .12900001 .522 .12900001 .55100008 C .12900001 .6010001 .082 .6010001 .067 .6010001 C .098 .65000006 .164 .66300007 .20000002 .66300007 C .24100003 .66300007 .29600004 .64100006 .29600004 .55100008 C .29600004 .53900006 .29400004 .48100005 .268 .43700005 C .238 .38900004 .204 .38600005 .17900002 .38500003 C .171 .38400004 .14700002 .38200004 .14000002 .38200004 C .132 .38100005 .125 .38000003 .125 .37000004 C .125 .35900004 .132 .35900004 .14900002 .35900004 L .19300002 .35900004 C .275 .35900004 .312 .29100005 .312 .193 C .312 .057000005 .24300003 .028 .199 .028 C .15600002 .028 .081 .045 .046000005 .104 C .081 .09900001 .11200001 .12100001 .11200001 .15900001 C .11200001 .19500001 .085 .215 .056 .215 C .031999999 .215 0 .201 0 .157 C 0 .06600001 .093 0 .20200002 0 C .32400004 0 .41500003 .091000009 .41500003 .193 C .41500003 .27500005 .35200004 .35300005 .24800003 .37400005 Z "/>
</symbol>
<use xlink:href="#font_0_3" transform="matrix(9.9626,0,0,-9.9626,165.32444,73.93318)"/>
<symbol id="font_0_4">
<path d="M .266 .165 L .266 .078 C .266 .042000005 .26400004 .031000002 .19000001 .031000002 L .16900002 .031000002 L .16900002 0 C .21000001 .003 .26200003 .003 .30400003 .003 C .34600003 .003 .39900003 .003 .44000004 0 L .44000004 .031000002 L .41900004 .031000002 C .34500004 .031000002 .34300003 .042000005 .34300003 .078 L .34300003 .165 L .44300003 .165 L .44300003 .19600001 L .34300003 .19600001 L .34300003 .651 C .34300003 .671 .34300003 .67700007 .32700003 .67700007 C .31800003 .67700007 .31500004 .67700007 .307 .665 L 0 .19600001 L 0 .165 L .266 .165 M .272 .19600001 L .028 .19600001 L .272 .569 L .272 .19600001 Z "/>
</symbol>
<use xlink:href="#font_0_4" transform="matrix(9.9626,0,0,-9.9626,213.75095,73.714008)"/>
<symbol id="font_1_1">
<path d="M .57600006 0 C .59300008 0 .611 0 .611 .019999996 C .611 .040000008 .59300008 .040000008 .57600006 .040000008 L .035000005 .040000008 C .018 .040000008 0 .040000008 0 .019999996 C 0 0 .018 0 .035000005 0 L .57600006 0 Z "/>
</symbol>
<use xlink:href="#font_1_1" transform="matrix(9.9626,0,0,-9.9626,4.147895,110.717609)"/>
<use xlink:href="#font_0_1" transform="matrix(9.9626,0,0,-9.9626,11.95567,113.009)"/>
<use xlink:href="#font_0_1" transform="matrix(9.9626,0,0,-9.9626,11.95567,16.291008)"/>
<clipPath id="cp2">
<path transform="matrix(1,0,0,-1,21.696,110.214008)" d="M 0 0 L 194.26912 0 L 194.26912 97.13455 L 0 97.13455 Z "/>
</clipPath>
<g clip-path="url(#cp2)">
<path transform="matrix(1,0,0,-1,21.696,110.214008)" stroke-width="1.59404" stroke-linecap="butt" stroke-miterlimit="10" stroke-linejoin="miter" fill="none" stroke="#000080" d="M 0 48.56728 C 0 48.56728 2.92415 51.26392 4.04724 52.13614 C 5.17033 53.00835 6.9714 54.1972 8.0945 54.85364 C 9.21759 55.51007 11.01866 56.38765 12.14175 56.86731 C 13.26485 57.34697 15.06593 57.9727 16.18903 58.31068 C 17.31212 58.64865 19.11317 59.07571 20.23627 59.30318 C 21.35936 59.53065 23.16043 59.80592 24.28352 59.95021 C 25.40662 60.0945 27.20769 60.2586 28.33078 60.34311 C 29.45387 60.4276 31.25496 60.515 32.37805 60.55919 C 33.50114 60.60338 35.30222 60.64218 36.42531 60.66167 C 37.54839 60.68115 39.34946 60.69322 40.47255 60.6997 C 41.59564 60.7062 43.39671 60.70721 44.5198 60.7085 C 45.6429 60.7098 47.44397 60.70909 48.56706 60.70909 C 49.69016 60.70909 51.49124 60.7098 52.61433 60.7085 C 53.73743 60.70721 55.53848 60.7062 56.66158 60.6997 C 57.78467 60.69322 59.58574 60.68115 60.70883 60.66167 C 61.83192 60.64218 63.633 60.6034 64.75609 60.5592 C 65.87918 60.51501 67.68025 60.42761 68.80334 60.34314 C 69.92644 60.25865 71.72752 60.09453 72.85062 59.95026 C 73.9737 59.80598 75.77477 59.53073 76.89786 59.30325 C 78.02095 59.07579 79.82202 58.64876 80.94511 58.31079 C 82.0682 57.97284 83.86928 57.34714 84.99237 56.8675 C 86.11546 56.38785 87.91653 55.51028 89.03963 54.85387 C 90.16272 54.19745 91.96378 53.00865 93.08687 52.13646 C 94.20996 51.26425 97.13414 48.56767 97.13414 48.56767 "/>
<path transform="matrix(1,0,0,-1,21.696,110.214008)" stroke-width="1.59404" stroke-linecap="butt" stroke-miterlimit="10" stroke-linejoin="miter" fill="none" stroke="#000080" d="M 97.13455 48.56728 C 97.13455 48.56728 100.05872 51.3353 101.18181 52.28995 C 102.3049 53.2446 104.10597 54.63896 105.22906 55.4478 C 106.35216 56.25664 108.15321 57.43504 109.2763 58.11948 C 110.3994 58.80392 112.20047 59.80144 113.32356 60.38077 C 114.44666 60.96008 116.24773 61.80444 117.37082 62.29482 C 118.49391 62.78519 120.295 63.49979 121.41809 63.91501 C 122.54118 64.33023 124.34225 64.93604 125.46535 65.28752 C 126.58842 65.639 128.3895 66.1507 129.51259 66.44829 C 130.63568 66.74586 132.43675 67.18048 133.55985 67.43227 C 134.68294 67.68404 136.48401 68.05003 137.6071 68.263 C 138.7302 68.47597 140.53128 68.78665 141.65438 68.96724 C 142.77747 69.14781 144.57854 69.41162 145.70162 69.5646 C 146.8247 69.7176 148.62578 69.94073 149.74887 70.06995 C 150.87197 70.19914 152.67304 70.3866 153.79613 70.49583 C 154.91922 70.60507 156.72029 70.76474 157.84339 70.85736 C 158.96648 70.94997 160.76757 71.085 161.89066 71.1634 C 163.01375 71.2418 164.8148 71.3561 165.9379 71.42244 C 167.06099 71.4888 168.86206 71.58556 169.98516 71.64174 C 171.10825 71.6979 172.90932 71.77982 174.03241 71.82736 C 175.1555 71.87491 176.95658 71.94423 178.07967 71.98448 C 179.20276 72.02473 181.00385 72.08342 182.12693 72.1175 C 183.25002 72.15157 185.05109 72.20125 186.17418 72.23007 C 187.29727 72.25891 189.09835 72.30096 190.22144 72.32538 C 191.34453 72.3498 194.26869 72.40605 194.26869 72.40605 "/>
</g>
<symbol id="font_3_1">
<path d="M .305 .31300003 C .311 .33900003 .334 .43100003 .404 .43100003 C .409 .43100003 .433 .43100003 .454 .418 C .426 .41300003 .40600003 .388 .40600003 .36400003 C .40600003 .34800003 .417 .32900004 .444 .32900004 C .46600003 .32900004 .498 .34700004 .498 .38700003 C .498 .43900005 .439 .45300005 .405 .45300005 C .347 .45300005 .312 .40000005 .3 .37700004 C .275 .44300003 .221 .45300005 .19200002 .45300005 C .08800001 .45300005 .031000002 .32400004 .031000002 .29900003 C .031000002 .28900004 .041 .28900004 .043000007 .28900004 C .051000008 .28900004 .054000006 .291 .056 .3 C .09 .40600003 .156 .43100003 .19000001 .43100003 C .209 .43100003 .244 .42200003 .244 .36400003 C .244 .33300004 .22700002 .26600004 .19000001 .126 C .17400001 .064 .13900002 .022000002 .095000009 .022000002 C .08900001 .022000002 .06600001 .022000002 .045 .035 C .07000001 .040000004 .09200001 .061 .09200001 .089 C .09200001 .116000007 .07000001 .124000009 .055000009 .124000009 C .025 .124000009 0 .098000008 0 .06600001 C 0 .020000002 .050000006 0 .094000007 0 C .16000001 0 .19600001 .07000001 .19900002 .076000008 C .21100001 .039 .24700003 0 .307 0 C .41 0 .467 .12900001 .467 .15400002 C .467 .16400002 .458 .16400002 .455 .16400002 C .446 .16400002 .444 .16000001 .442 .15300001 C .409 .046 .341 .022000002 .30900003 .022000002 C .27 .022000002 .254 .054 .254 .08800001 C .254 .11000001 .26 .13200002 .271 .17600002 L .305 .31300003 Z "/>
</symbol>
<use xlink:href="#font_3_1" transform="matrix(9.9626,0,0,-9.9626,219.81092,63.891595)"/>
<symbol id="font_3_2">
<path d="M .45700003 .586 C .461 .6 .461 .602 .461 .609 C .461 .62700006 .447 .63600006 .432 .63600006 C .42200003 .63600006 .40600003 .63 .397 .615 C .395 .61 .387 .579 .38300003 .561 C .37600003 .535 .36900003 .508 .363 .48100005 L .318 .301 C .314 .286 .271 .21600002 .20500002 .21600002 C .15400002 .21600002 .143 .26000003 .143 .29700003 C .143 .34300003 .16000001 .40500004 .194 .49300004 C .21000001 .53400006 .21400002 .545 .21400002 .56500008 C .21400002 .61 .18200001 .6470001 .13200002 .6470001 C .037 .6470001 0 .50200006 0 .49300004 C 0 .48300005 .01 .48300005 .012 .48300005 C .022000002 .48300005 .023 .485 .028000003 .50100007 C .055000009 .595 .095000009 .625 .12900001 .625 C .13700001 .625 .15400002 .625 .15400002 .59300008 C .15400002 .568 .14400001 .54200008 .13700001 .523 C .097 .41700004 .079 .36 .079 .31300003 C .079 .224 .142 .194 .201 .194 C .24000003 .194 .274 .21100001 .30200003 .23900002 C .289 .187 .277 .13800001 .237 .08500001 C .21100001 .051 .17300001 .022 .127 .022 C .113000009 .022 .068 .025000006 .051000008 .06400001 C .067 .06400001 .080000009 .06400001 .094000007 .076000008 C .104 .08500001 .11400001 .098000008 .11400001 .117000009 C .11400001 .148 .087000008 .15200001 .07700001 .15200001 C .054000006 .15200001 .021 .136 .021 .087000008 C .021 .037 .065000008 0 .127 0 C .23 0 .333 .091000009 .361 .20400001 L .45700003 .586 Z "/>
</symbol>
<use xlink:href="#font_3_2" transform="matrix(9.9626,0,0,-9.9626,19.363915,9.652342)"/>
</svg>
