<?xml version="1.0" encoding="UTF-8" standalone="no"?>
<!DOCTYPE svg PUBLIC "-//W3C//DTD SVG 1.1//EN" "http://www.w3.org/Graphics/SVG/1.1/DTD/svg11.dtd">
<svg xmlns="http://www.w3.org/2000/svg" xmlns:xlink="http://www.w3.org/1999/xlink" version="1.1" width="269.682pt" height="216.861pt" viewBox="0 0 269.682 216.861">
<path transform="matrix(1,0,0,-1,13.948,216.66199)" stroke-width="1" stroke-linecap="butt" stroke-dasharray="2.98883,2.98883" stroke-miterlimit="10" stroke-linejoin="miter" fill="none" stroke="#bfbfbf" d="M 40.52847 0 L 40.52847 203.56665 M 81.05695 0 L 81.05695 203.56665 M 121.58542 0 L 121.58542 203.56665 M 162.11389 0 L 162.11389 203.56665 M 202.64237 0 L 202.64237 203.56665 M 243.17084 0 L 243.17084 203.56665 "/>
<path transform="matrix(1,0,0,-1,13.948,216.66199)" stroke-width="1" stroke-linecap="butt" stroke-dasharray="2.98883,2.98883" stroke-miterlimit="10" stroke-linejoin="miter" fill="none" stroke="#bfbfbf" d="M 0 67.85555 L 243.17084 67.85555 M 0 101.78333 L 243.17084 101.78333 M 0 135.71109 L 243.17084 135.71109 M 0 169.63887 L 243.17084 169.63887 "/>
<path transform="matrix(1,0,0,-1,13.948,216.66199)" stroke-width="1" stroke-linecap="butt" stroke-miterlimit="10" stroke-linejoin="miter" fill="none" stroke="#808080" d="M 40.52847 31.80174 L 40.52847 36.05379 M 81.05695 31.80174 L 81.05695 36.05379 M 121.58542 31.80174 L 121.58542 36.05379 M 162.11389 31.80174 L 162.11389 36.05379 M 202.64237 31.80174 L 202.64237 36.05379 M 243.17084 31.80174 L 243.17084 36.05379 "/>
<path transform="matrix(1,0,0,-1,13.948,216.66199)" stroke-width="1" stroke-linecap="butt" stroke-miterlimit="10" stroke-linejoin="miter" fill="none" stroke="#808080" d="M -2.12598 67.85555 L 2.12598 67.85555 M -2.12598 101.78333 L 2.12598 101.78333 M -2.12598 135.71109 L 2.12598 135.71109 M -2.12598 169.63887 L 2.12598 169.63887 "/>
<path transform="matrix(1,0,0,-1,13.948,216.66199)" stroke-width="1" stroke-linecap="butt" stroke-miterlimit="10" stroke-linejoin="miter" fill="none" stroke="#000000" d="M 0 33.92776 L 241.17832 33.92776 "/>
<path transform="matrix(1,0,0,-1,255.12631,182.73423)" d="M 1.99252 0 L -1.19551 1.59401 L 0 0 L -1.19551 -1.59401 "/>
<path transform="matrix(1,0,0,-1,13.948,216.66199)" stroke-width="1" stroke-linecap="butt" stroke-miterlimit="10" stroke-linejoin="miter" fill="none" stroke="#000000" d="M 0 0 L 0 201.57413 "/>
<path transform="matrix(0,-1,-1,-0,13.948,15.08786)" d="M 1.99252 0 L -1.19551 1.59401 L 0 0 L -1.19551 -1.59401 "/>
<symbol id="font_0_1">
<path d="M .205 .64000007 C .205 .66400006 .205 .666 .18200003 .666 C .120000008 .60200008 .032000007 .60200008 0 .60200008 L 0 .57100006 C .020000004 .57100006 .07900001 .57100006 .13100001 .597 L .13100001 .079 C .13100001 .043 .128 .031000002 .038000004 .031000002 L .0060000049 .031000002 L .0060000049 0 C .04100001 .003 .128 .003 .168 .003 C .20800002 .003 .29500003 .003 .33000005 0 L .33000005 .031000002 L .29800005 .031000002 C .20800002 .031000002 .205 .042000005 .205 .079 L .205 .64000007 Z "/>
</symbol>
<use xlink:href="#font_0_1" transform="matrix(9.9626,0,0,-9.9626,52.871675,194.801)"/>
<symbol id="font_0_2">
<path d="M .07700001 .07700001 L .18300002 .18 C .33900003 .31800003 .39900003 .372 .39900003 .47200004 C .39900003 .586 .30900003 .666 .18700002 .666 C .074 .666 0 .574 0 .485 C 0 .42900003 .05 .42900003 .053000008 .42900003 C .07000001 .42900003 .105000007 .441 .105000007 .48200003 C .105000007 .508 .08700001 .53400006 .052000006 .53400006 C .044000005 .53400006 .042000008 .53400006 .039 .53300008 C .062000004 .59800007 .11600001 .63500007 .17400001 .63500007 C .26500003 .63500007 .308 .554 .308 .47200004 C .308 .39200003 .25800003 .31300003 .20300003 .25100003 L .011000004 .037 C 0 .026 0 .024 0 0 L .37100003 0 L .39900003 .17400001 L .374 .17400001 C .36900003 .14400001 .36200003 .1 .352 .085 C .345 .07700001 .279 .07700001 .257 .07700001 L .07700001 .07700001 Z "/>
</symbol>
<use xlink:href="#font_0_2" transform="matrix(9.9626,0,0,-9.9626,93.01113,194.801)"/>
<symbol id="font_0_3">
<path d="M .24800003 .37400005 C .33 .40100003 .388 .47100006 .388 .55 C .388 .632 .3 .688 .204 .688 C .10300001 .688 .027000003 .628 .027000003 .55200007 C .027000003 .519 .049000004 .5 .078 .5 C .109000008 .5 .12900001 .522 .12900001 .55100008 C .12900001 .6010001 .082 .6010001 .067 .6010001 C .098 .65000006 .164 .66300007 .20000002 .66300007 C .24100003 .66300007 .29600004 .64100006 .29600004 .55100008 C .29600004 .53900006 .29400004 .48100005 .268 .43700005 C .238 .38900004 .204 .38600005 .17900002 .38500003 C .171 .38400004 .14700002 .38200004 .14000002 .38200004 C .132 .38100005 .125 .38000003 .125 .37000004 C .125 .35900004 .132 .35900004 .14900002 .35900004 L .19300002 .35900004 C .275 .35900004 .312 .29100005 .312 .193 C .312 .057000005 .24300003 .028 .199 .028 C .15600002 .028 .081 .045 .046000005 .104 C .081 .09900001 .11200001 .12100001 .11200001 .15900001 C .11200001 .19500001 .085 .215 .056 .215 C .031999999 .215 0 .201 0 .157 C 0 .06600001 .093 0 .20200002 0 C .32400004 0 .41500003 .091000009 .41500003 .193 C .41500003 .27500005 .35200004 .35300005 .24800003 .37400005 Z "/>
</symbol>
<use xlink:href="#font_0_3" transform="matrix(9.9626,0,0,-9.9626,133.45943,195.02017)"/>
<symbol id="font_0_4">
<path d="M .266 .165 L .266 .078 C .266 .042000005 .26400004 .031000002 .19000001 .031000002 L .16900002 .031000002 L .16900002 0 C .21000001 .003 .26200003 .003 .30400003 .003 C .34600003 .003 .39900003 .003 .44000004 0 L .44000004 .031000002 L .41900004 .031000002 C .34500004 .031000002 .34300003 .042000005 .34300003 .078 L .34300003 .165 L .44300003 .165 L .44300003 .19600001 L .34300003 .19600001 L .34300003 .651 C .34300003 .671 .34300003 .67700007 .32700003 .67700007 C .31800003 .67700007 .31500004 .67700007 .307 .665 L 0 .19600001 L 0 .165 L .266 .165 M .272 .19600001 L .028 .19600001 L .272 .569 L .272 .19600001 Z "/>
</symbol>
<use xlink:href="#font_0_4" transform="matrix(9.9626,0,0,-9.9626,173.84795,194.801)"/>
<symbol id="font_0_5">
<path d="M .39900003 .223 C .39900003 .34200005 .317 .44200004 .209 .44200004 C .16100002 .44200004 .118000019 .42600004 .082 .39100004 L .082 .586 C .10200001 .58000007 .135 .573 .16700001 .573 C .29 .573 .36 .66400006 .36 .67700007 C .36 .683 .357 .688 .35 .688 C .349 .688 .347 .688 .342 .68500009 C .322 .67600008 .273 .656 .20600002 .656 C .16600001 .656 .120000008 .66300007 .073 .6840001 C .065 .68700006 .06300001 .68700006 .061000009 .68700006 C .051000004 .68700006 .051000004 .679 .051000004 .66300007 L .051000004 .36700005 C .051000004 .34900005 .051000004 .34100003 .065 .34100003 C .07200001 .34100003 .074 .34400005 .07800001 .35000003 C .08900002 .36600004 .12600002 .42000006 .207 .42000006 C .259 .42000006 .284 .37400005 .292 .35600005 C .308 .31900005 .31 .28000004 .31 .23 C .31 .19500001 .31 .135 .286 .093 C .262 .054000006 .22500001 .028 .17900002 .028 C .106000009 .028 .049000008 .08100001 .032 .14000002 C .035 .13900002 .038000008 .13800001 .049000008 .13800001 C .082 .13800001 .09900001 .163 .09900001 .187 C .09900001 .21100001 .082 .23600002 .049000008 .23600002 C .035 .23600002 0 .22900002 0 .18300002 C 0 .097 .069000009 0 .18100001 0 C .297 0 .39900003 .096 .39900003 .223 Z "/>
</symbol>
<use xlink:href="#font_0_5" transform="matrix(9.9626,0,0,-9.9626,214.59513,195.02017)"/>
<symbol id="font_0_6">
<path d="M .089999999 .35000003 L .089999999 .37400005 C .089999999 .62700006 .21400002 .66300007 .26500003 .66300007 C .28900004 .66300007 .33100004 .65700009 .35300002 .623 C .33800004 .623 .298 .623 .298 .57800009 C .298 .54700008 .32200004 .53200009 .344 .53200009 C .36 .53200009 .39000003 .54100009 .39000003 .58000007 C .39000003 .64000007 .34600003 .688 .263 .688 C .13499999 .688 0 .559 0 .33800004 C 0 .071 .116000007 0 .20900002 0 C .32000003 0 .41500003 .094000007 .41500003 .22600001 C .41500003 .35300005 .32600004 .44900004 .215 .44900004 C .14700002 .44900004 .11000001 .39800004 .089999999 .35000003 M .20900002 .028 C .146 .028 .116000007 .088 .11000001 .103 C .092 .15 .092 .23 .092 .24800001 C .092 .32600004 .124000009 .42600004 .21400002 .42600004 C .23000002 .42600004 .27600003 .42600004 .307 .36400003 C .32500003 .32700003 .32500003 .27600003 .32500003 .22700002 C .32500003 .179 .32500003 .12900001 .30800004 .093 C .27800004 .033000005 .23200003 .028 .20900002 .028 Z "/>
</symbol>
<use xlink:href="#font_0_6" transform="matrix(9.9626,0,0,-9.9626,255.04343,195.02017)"/>
<use xlink:href="#font_0_1" transform="matrix(9.9626,0,0,-9.9626,4.2076718,152.017)"/>
<use xlink:href="#font_0_2" transform="matrix(9.9626,0,0,-9.9626,3.8191303,118.08999)"/>
<use xlink:href="#font_0_3" transform="matrix(9.9626,0,0,-9.9626,3.7394293,84.38217)"/>
<use xlink:href="#font_0_4" transform="matrix(9.9626,0,0,-9.9626,3.599953,50.234987)"/>
<clipPath id="cp1">
<path transform="matrix(1,0,0,-1,13.948,216.66199)" d="M 0 0 L 243.17084 0 L 243.17084 203.56665 L 0 203.56665 Z "/>
</clipPath>
<g clip-path="url(#cp1)">
<path transform="matrix(1,0,0,-1,13.948,216.66199)" stroke-width="1.19553" stroke-linecap="butt" stroke-miterlimit="10" stroke-linejoin="miter" fill="none" stroke="#000080" d="M 0 33.92776 C 0 33.92776 .29573 34.6705 .40932 34.95576 C .5229 35.24104 .70508 35.69853 .81866 35.9838 C .93225 36.26906 1.11441 36.72653 1.228 37.0118 C 1.34158 37.29706 1.52374 37.75455 1.63733 38.03981 C 1.75093 38.32507 1.93309 38.78255 2.04668 39.06781 C 2.16026 39.35307 2.34242 39.81056 2.45601 40.09584 C 2.5696 40.3811 2.75177 40.83858 2.86536 41.12384 C 2.97894 41.4091 3.16109 41.8666 3.27467 42.15186 C 3.38828 42.43712 3.57043 42.89459 3.68402 43.17986 C 3.7976 43.46512 3.97978 43.9226 4.09337 44.20787 C 4.20695 44.49315 4.38911 44.95062 4.5027 45.23589 C 4.61629 45.52115 4.79845 45.97864 4.91203 46.2639 C 5.02563 46.54916 5.20778 47.00664 5.32137 47.2919 C 5.43495 47.57716 5.61713 48.03465 5.73071 48.31992 C 5.8443 48.6052 6.02646 49.06265 6.14005 49.34793 C 6.25363 49.6332 6.43579 50.09067 6.54938 50.37593 C 6.66298 50.6612 6.84514 51.1187 6.95872 51.40396 C 7.07231 51.68922 7.25447 52.1467 7.36806 52.43196 C 7.48164 52.71722 7.66382 53.1747 7.7774 53.45998 C 7.89099 53.74524 8.07314 54.20273 8.18672 54.48799 C 8.30032 54.77325 8.48248 55.23073 8.59607 55.51599 C 8.70966 55.80125 8.89182 56.25873 9.0054 56.54399 C 9.11899 56.82925 9.30116 57.28674 9.41475 57.572 C 9.52834 57.85728 9.7105 58.31477 9.82408 58.60004 C 9.93768 58.8853 10.11983 59.34277 10.23341 59.62804 C 10.347 59.9133 10.52917 60.37077 10.64276 60.65604 C 10.75635 60.9413 10.9385 61.39879 11.0521 61.68405 C 11.16568 61.96931 11.34784 62.4268 11.46143 62.71208 C 11.57503 62.99734 11.75717 63.45482 11.87076 63.74008 C 11.98434 64.02534 12.16652 64.48283 12.2801 64.7681 C 12.39369 65.05336 12.57587 65.51083 12.68945 65.7961 C 12.80304 66.08136 12.98518 66.53883 13.09877 66.8241 C 13.21237 67.10938 13.39453 67.56686 13.50812 67.85213 C 13.6217 68.13739 13.80386 68.59488 13.91745 68.88014 C 14.03104 69.1654 14.21321 69.62288 14.3268 69.90814 C 14.44038 70.1934 14.62253 70.65088 14.73611 70.93614 C 14.84972 71.22142 15.03188 71.6789 15.14546 71.96417 C 15.25905 72.24944 15.44122 72.70691 15.55481 72.99217 C 15.6684 73.27744 15.85056 73.73491 15.96414 74.02017 C 16.07773 74.30544 16.25989 74.76294 16.37347 75.0482 C 16.48708 75.33347 16.66922 75.79094 16.7828 76.07622 C 16.8964 76.36148 17.07857 76.81895 17.19215 77.10422 C 17.30574 77.38948 17.48792 77.84697 17.6015 78.13223 C 17.71509 78.4175 17.89723 78.87497 18.01082 79.16023 C 18.12442 79.4455 18.30658 79.90298 18.42017 80.18825 C 18.53375 80.47353 18.71591 80.931 18.8295 81.21626 C 18.94308 81.50153 19.12524 81.95901 19.23885 82.24428 C 19.35243 82.52954 19.53458 82.98701 19.64816 83.27228 C 19.76176 83.55754 19.94392 84.01501 20.05751 84.30028 C 20.1711 84.58554 20.35327 85.04303 20.46686 85.32831 C 20.58044 85.61357 20.76259 86.07106 20.87619 86.35632 C 20.98978 86.64159 21.17194 87.09906 21.28552 87.38432 C 21.39912 87.66959 21.58127 88.12706 21.69485 88.41232 C 21.80844 88.69759 21.99062 89.15508 22.1042 89.44034 C 22.21779 89.72562 22.39993 90.18309 22.51353 90.46835 C 22.62712 90.75362 22.80928 91.2111 22.92287 91.49637 C 23.03647 91.78163 23.21863 92.23912 23.33221 92.52438 C 23.4458 92.80965 23.62796 93.26712 23.74155 93.55238 C 23.85513 93.83766 24.0373 94.29514 24.1509 94.5804 C 24.26448 94.86566 24.44662 95.32315 24.56021 95.60841 C 24.67381 95.89368 24.85597 96.35115 24.96956 96.63641 C 25.08315 96.92168 25.2653 97.37917 25.37889 97.66443 C 25.49248 97.94969 25.67464 98.40717 25.78824 98.69244 C 25.90182 98.9777 26.08398 99.4352 26.19757 99.72046 C 26.31117 100.00572 26.49332 100.4632 26.6069 100.74846 C 26.72049 101.03372 26.90266 101.4912 27.01625 101.77646 C 27.12984 102.06172 27.31198 102.51921 27.42558 102.80447 C 27.53917 103.08975 27.72133 103.54724 27.83492 103.8325 C 27.94852 104.11777 28.13066 104.57524 28.24425 104.8605 C 28.35783 105.14577 28.54001 105.60326 28.6536 105.88852 C 28.76718 106.17378 28.94934 106.63126 29.06294 106.91652 C 29.17653 107.2018 29.35867 107.65926 29.47226 107.94453 C 29.58586 108.2298 29.76802 108.68729 29.8816 108.97255 C 29.9952 109.25781 30.17735 109.7153 30.29094 110.00056 C 30.40453 110.28583 30.58669 110.7433 30.70029 111.02856 C 30.81387 111.31383 30.99602 111.7713 31.1096 112.05658 C 31.2232 112.34184 31.40536 112.79933 31.51895 113.0846 C 31.63254 113.36986 31.81471 113.82733 31.9283 114.1126 C 32.04189 114.39786 32.22403 114.85535 32.33763 115.14061 C 32.45122 115.42587 32.63338 115.88336 32.74696 116.16862 C 32.86057 116.4539 33.04271 116.91138 33.1563 117.19664 C 33.26988 117.4819 33.45206 117.93938 33.56564 118.22464 C 33.67923 118.5099 33.86137 118.96738 33.97498 119.25264 C 34.08856 119.5379 34.27072 119.9954 34.38431 120.28067 C 34.49791 120.56593 34.68007 121.0234 34.79366 121.30869 C 34.90724 121.59395 35.0894 122.05142 35.20299 122.33669 C 35.31657 122.62195 35.49873 123.07944 35.61234 123.3647 C 35.72592 123.64996 35.90807 124.10744 36.02165 124.3927 C 36.13525 124.67796 36.31741 125.13544 36.431 125.4207 C 36.54459 125.70598 36.72676 126.16348 36.84035 126.44875 C 36.95393 126.73401 37.13608 127.19148 37.24968 127.47675 C 37.36327 127.76201 37.54543 128.21949 37.65901 128.50475 C 37.77261 128.79001 37.95476 129.24748 38.06834 129.53275 C 38.18193 129.81803 38.3641 130.2755 38.47769 130.56078 C 38.59128 130.84604 38.77342 131.30352 38.88702 131.58878 C 39.00061 131.87404 39.18277 132.33153 39.29636 132.61679 C 39.40996 132.90206 39.59212 133.35955 39.7057 133.6448 C 39.81929 133.93007 40.00145 134.38755 40.11504 134.67282 C 40.22862 134.95809 40.52438 135.70082 40.52438 135.70082 "/>
<path transform="matrix(1,0,0,-1,13.948,216.66199)" stroke-width="1.19553" stroke-linecap="butt" stroke-miterlimit="10" stroke-linejoin="miter" fill="none" stroke="#000080" d="M 40.52847 135.71109 C 40.52847 135.71109 41.41577 134.96829 41.75656 134.68302 C 42.09734 134.39774 42.64388 133.94022 42.98465 133.65494 C 43.32544 133.36966 43.87196 132.91214 44.21274 132.62686 C 44.55353 132.34157 45.10005 131.88407 45.44083 131.59877 C 45.78162 131.31349 46.32814 130.85597 46.66893 130.5707 C 47.0097 130.28542 47.55623 129.8279 47.89702 129.54262 C 48.2378 129.25734 48.78433 128.79982 49.1251 128.51454 C 49.4659 128.22927 50.01242 127.77174 50.3532 127.48647 C 50.69398 127.20117 51.24051 126.74365 51.5813 126.45837 C 51.92207 126.1731 52.4686 125.71558 52.80939 125.4303 C 53.15016 125.14502 53.6967 124.6875 54.03748 124.40222 C 54.37827 124.11694 54.92479 123.65942 55.26556 123.37415 C 55.60635 123.08887 56.15288 122.63135 56.49367 122.34605 C 56.83444 122.06078 57.38097 121.60326 57.72176 121.31798 C 58.06253 121.0327 58.60905 120.57518 58.94984 120.2899 C 59.29063 120.00462 59.83716 119.5471 60.17793 119.26183 C 60.51872 118.97655 61.06525 118.51904 61.40602 118.23376 C 61.74681 117.94849 62.29335 117.49097 62.63414 117.20567 C 62.97491 116.9204 63.52144 116.46288 63.86223 116.1776 C 64.203 115.89232 64.74954 115.4348 65.09032 115.14952 C 65.4311 114.86424 65.97763 114.40672 66.3184 114.12144 C 66.6592 113.83617 67.20572 113.37865 67.54651 113.09337 C 67.88728 112.80807 68.4338 112.35057 68.7746 112.06528 C 69.11537 111.78 69.6619 111.32248 70.00269 111.0372 C 70.34348 110.75192 70.89 110.2944 71.23077 110.00912 C 71.57156 109.72385 72.11809 109.26633 72.45886 108.98105 C 72.79965 108.69577 73.34618 108.23825 73.68697 107.95297 C 74.02774 107.66768 74.57426 107.21016 74.91505 106.92488 C 75.25583 106.6396 75.80237 106.18208 76.14314 105.8968 C 76.48393 105.61153 77.03046 105.154 77.37123 104.86873 C 77.71202 104.58345 78.25854 104.12593 78.59933 103.84065 C 78.94011 103.55537 79.48663 103.09785 79.82742 102.81256 C 80.1682 102.52728 80.71474 102.06976 81.05551 101.78448 C 81.3963 101.4992 81.94283 101.0417 82.2836 100.75642 C 82.62439 100.47115 83.17091 100.01363 83.51169 99.72835 C 83.85248 99.44307 84.39902 98.98555 84.7398 98.70027 C 85.08058 98.415 85.6271 97.95747 85.9679 97.67218 C 86.30867 97.3869 86.85521 96.92938 87.19598 96.6441 C 87.53677 96.35883 88.0833 95.9013 88.42407 95.61603 C 88.76486 95.33075 89.31139 94.87323 89.65218 94.58795 C 89.99295 94.30267 90.53947 93.84515 90.88026 93.55988 C 91.22104 93.27458 91.76758 92.81706 92.10835 92.53178 C 92.44914 92.2465 92.99567 91.78899 93.33644 91.50371 C 93.67723 91.21843 94.22375 90.76091 94.56454 90.47563 C 94.90532 90.19035 95.45184 89.73283 95.79263 89.44756 C 96.1334 89.16228 96.67993 88.70476 97.02072 88.41948 C 97.36151 88.13419 97.90804 87.67667 98.24881 87.39139 C 98.5896 87.10611 99.13612 86.64859 99.4769 86.36331 C 99.81769 86.07803 100.36421 85.62051 100.705 85.33524 C 101.04578 85.04996 101.5923 84.59245 101.93309 84.30717 C 102.27386 84.0219 102.8204 83.56438 103.16118 83.27908 C 103.50197 82.9938 104.0485 82.53629 104.38927 82.251 C 104.73006 81.96573 105.27658 81.50821 105.61737 81.22293 C 105.95815 80.93765 106.50468 80.48013 106.84547 80.19485 C 107.18625 79.90958 107.73277 79.45206 108.07356 79.16678 C 108.41435 78.88148 108.96088 78.42398 109.30165 78.13869 C 109.64244 77.85341 110.18896 77.39589 110.52974 77.11061 C 110.87053 76.82533 111.41705 76.36781 111.75784 76.08253 C 112.09862 75.79726 112.64514 75.33974 112.98593 75.05446 C 113.3267 74.76918 113.87325 74.31166 114.21402 74.02638 C 114.55481 73.74109 115.10133 73.28357 115.44211 72.99829 C 115.7829 72.71301 116.32942 72.2555 116.67021 71.97021 C 117.01099 71.68494 117.55751 71.22742 117.8983 70.94214 C 118.23907 70.65686 118.7856 70.19934 119.12639 69.91406 C 119.46718 69.62878 120.0137 69.17126 120.35448 68.88599 C 120.69527 68.6007 121.24179 68.14317 121.58257 67.8579 C 121.92336 67.57262 122.46988 67.11511 122.81067 66.82983 C 123.15144 66.54456 123.69797 66.08704 124.03876 65.80176 C 124.37953 65.51648 124.92607 65.05896 125.26685 64.77368 C 125.60764 64.4884 126.15416 64.03088 126.49493 63.74559 C 126.83572 63.46031 127.38225 63.00279 127.72304 62.71751 C 128.06381 62.43224 128.61035 61.97472 128.95114 61.68944 C 129.29192 61.40416 129.83846 60.94664 130.17923 60.66136 C 130.52002 60.37608 131.06655 59.91856 131.40732 59.63329 C 131.74811 59.34799 132.29463 58.89049 132.63542 58.6052 C 132.9762 58.31992 133.52272 57.8624 133.86351 57.57712 C 134.20429 57.29184 134.75081 56.83432 135.0916 56.54904 C 135.43239 56.26376 135.97891 55.80624 136.31969 55.52097 C 136.66048 55.23569 137.207 54.77817 137.54778 54.49289 C 137.88857 54.2076 138.43509 53.75008 138.77588 53.4648 C 139.11666 53.17952 139.66318 52.722 140.00397 52.43672 C 140.34474 52.15144 140.89128 51.69392 141.23206 51.40865 C 141.57285 51.12337 142.11937 50.66585 142.46015 50.38057 C 142.80094 50.09529 143.34746 49.63779 143.68825 49.3525 C 144.02902 49.06721 144.57555 48.6097 144.91634 48.32442 C 145.25711 48.03914 145.80364 47.58162 146.14443 47.29634 C 146.48522 47.01106 147.03174 46.55354 147.37252 46.26826 C 147.7133 45.98299 148.25983 45.52547 148.6006 45.24019 C 148.94139 44.95491 149.48792 44.49739 149.8287 44.2121 C 150.16948 43.92682 150.71602 43.4693 151.05681 43.18402 C 151.39759 42.89874 151.94412 42.44122 152.2849 42.15594 C 152.62569 41.87067 153.17221 41.41315 153.51299 41.12787 C 153.85378 40.84259 154.4003 40.38507 154.74109 40.0998 C 155.08187 39.8145 155.62839 39.357 155.96918 39.0717 C 156.30995 38.78642 156.85648 38.3289 157.19727 38.04362 C 157.53806 37.75835 158.08458 37.30083 158.42536 37.01555 C 158.76615 36.73027 159.31267 36.27275 159.65345 35.98747 C 159.99423 35.7022 160.54076 35.24467 160.88155 34.9594 C 161.22232 34.6741 162.10964 33.9313 162.10964 33.9313 "/>
<path transform="matrix(1,0,0,-1,13.948,216.66199)" stroke-width="1.19553" stroke-linecap="butt" stroke-miterlimit="10" stroke-linejoin="miter" fill="none" stroke="#000080" d="M 162.11389 33.92776 C 162.11389 33.92776 162.70542 33.93393 162.93259 33.9416 C 163.15978 33.94928 163.52414 33.96779 163.75131 33.98315 C 163.97849 33.9985 164.34285 34.02931 164.57003 34.05237 C 164.79721 34.07541 165.16156 34.11855 165.38875 34.14928 C 165.61592 34.18 165.98027 34.23547 166.20745 34.27388 C 166.43463 34.3123 166.79898 34.3801 167.02617 34.4262 C 167.25334 34.47229 167.6177 34.55238 167.84488 34.60617 C 168.07207 34.65996 168.43642 34.7524 168.6636 34.81386 C 168.89078 34.87532 169.25513 34.98006 169.4823 35.04922 C 169.70949 35.11838 170.07384 35.23546 170.30103 35.31229 C 170.5282 35.38911 170.89257 35.51852 171.11974 35.60303 C 171.34693 35.68753 171.71128 35.82925 171.93846 35.92146 C 172.16564 36.01366 172.52999 36.16772 172.75716 36.2676 C 172.98435 36.36748 173.3487 36.53384 173.57588 36.64142 C 173.80306 36.74898 174.16742 36.92767 174.39459 37.04292 C 174.62178 37.15817 174.98613 37.34918 175.21332 37.47212 C 175.44049 37.59506 175.80484 37.7984 176.03202 37.92902 C 176.2592 38.05963 176.62355 38.2753 176.85074 38.41362 C 177.07791 38.55193 177.44228 38.77989 177.66945 38.92587 C 177.89664 39.07185 178.26099 39.31216 178.48818 39.46585 C 178.71535 39.61952 179.0797 39.87213 179.30687 40.0335 C 179.53404 40.19484 179.8984 40.45978 180.1256 40.62883 C 180.35277 40.79788 180.71714 41.07515 180.9443 41.25186 C 181.17148 41.42859 181.53585 41.71819 181.76303 41.9026 C 181.9902 42.08702 182.35456 42.38892 182.58173 42.58101 C 182.8089 42.7731 183.17327 43.08736 183.40045 43.28712 C 183.62763 43.4869 183.99199 43.81345 184.21916 44.0209 C 184.44634 44.22836 184.8107 44.56726 185.03789 44.78241 C 185.26506 44.99754 185.62941 45.34874 185.85659 45.57156 C 186.08376 45.7944 186.44812 46.15794 186.67531 46.38844 C 186.90248 46.61896 187.26685 46.9948 187.49402 47.233 C 187.72119 47.47119 188.08556 47.85938 188.31273 48.10526 C 188.53992 48.35114 188.90427 48.75162 189.13144 49.00519 C 189.35861 49.25874 189.72298 49.67157 189.95015 49.93282 C 190.17734 50.19406 190.5417 50.61919 190.76888 50.88812 C 190.99605 51.15707 191.36042 51.59453 191.58759 51.87115 C 191.81478 52.14777 192.17913 52.59755 192.4063 52.88184 C 192.63347 53.16612 192.99784 53.62823 193.225 53.92023 C 193.4522 54.2122 193.81656 54.68665 194.04373 54.98631 C 194.2709 55.28596 194.63527 55.77272 194.86244 56.08008 C 195.08963 56.38744 195.45398 56.88652 195.68115 57.20155 C 195.90833 57.51659 196.27269 58.02798 196.49987 58.35071 C 196.72705 58.67343 197.0914 59.19713 197.31859 59.52754 C 197.54576 59.85794 197.91013 60.39398 198.1373 60.73207 C 198.36449 61.07018 198.72882 61.61852 198.95601 61.9643 C 199.18318 62.31006 199.54755 62.87076 199.77472 63.22421 C 200.0019 63.57768 200.36626 64.15068 200.59345 64.51183 C 200.82062 64.87296 201.18498 65.45828 201.41216 65.82712 C 201.63935 66.19594 202.00368 66.7936 202.23087 67.1701 C 202.45804 67.54662 202.8224 68.15656 203.04958 68.54076 C 203.27677 68.92496 203.64112 69.54729 203.8683 69.93916 C 204.09548 70.33104 204.45984 70.96565 204.68701 71.3652 C 204.9142 71.76476 205.27854 72.41171 205.50572 72.81895 C 205.7329 73.22621 206.09726 73.88548 206.32444 74.30038 C 206.55162 74.7153 206.91597 75.38683 207.14316 75.80943 C 207.37033 76.23203 207.7347 76.91595 207.96187 77.34625 C 208.18906 77.77657 208.5534 78.47282 208.7806 78.9108 C 209.00777 79.34879 209.37212 80.05731 209.59929 80.50296 C 209.82648 80.94862 210.19083 81.66954 210.41802 82.1229 C 210.64519 82.57625 211.00955 83.30943 211.23673 83.77046 C 211.4639 84.23149 211.82826 84.97707 212.05545 85.44579 C 212.28263 85.9145 212.64698 86.67235 212.87415 87.14876 C 213.10132 87.62515 213.46569 88.39531 213.69287 88.87941 C 213.92005 89.3635 214.28441 90.146 214.51158 90.63776 C 214.73876 91.12953 215.10312 91.92438 215.3303 92.42383 C 215.55748 92.92326 215.92183 93.73032 216.149 94.23743 C 216.37618 94.74452 216.74054 95.564 216.96773 96.07881 C 217.1949 96.59363 217.55927 97.42545 217.78644 97.94795 C 218.01361 98.47046 218.37798 99.31456 218.60517 99.84474 C 218.83234 100.37492 219.19669 101.23135 219.42386 101.76923 C 219.65103 102.3071 220.0154 103.1759 220.24257 103.72147 C 220.46976 104.26701 220.83412 105.14806 221.0613 105.7013 C 221.28847 106.25453 221.65283 107.14795 221.88 107.70886 C 222.1072 108.26979 222.47154 109.17552 222.69872 109.74414 C 222.92589 110.31276 223.29026 111.23083 223.51743 111.80711 C 223.74462 112.38338 224.10898 113.31363 224.33615 113.89758 C 224.56333 114.48154 224.92769 115.42427 225.15486 116.01593 C 225.38205 116.60759 225.7464 117.5626 225.97357 118.16194 C 226.20075 118.76128 226.56511 119.72862 226.79228 120.33565 C 227.01947 120.94267 227.38384 121.92232 227.61101 122.53705 C 227.83818 123.15176 228.20255 124.14374 228.42972 124.76614 C 228.6569 125.38853 229.02124 126.39287 229.24843 127.02295 C 229.4756 127.65303 229.83997 128.66962 230.06714 129.30739 C 230.29433 129.94515 230.65868 130.9741 230.88587 131.61957 C 231.11304 132.26503 231.4774 133.30635 231.70458 133.95946 C 231.93177 134.61257 232.2961 135.66599 232.52329 136.32678 C 232.75046 136.9876 233.11483 138.05356 233.342 138.72206 C 233.56919 139.39057 233.93354 140.4688 234.16072 141.14498 C 234.3879 141.82117 234.75226 142.91175 234.97943 143.59561 C 235.20662 144.2795 235.57096 145.38239 235.79814 146.07393 C 236.02532 146.76549 236.38968 147.88066 236.61685 148.5799 C 236.84404 149.27912 237.20839 150.40668 237.43558 151.1136 C 237.66275 151.82053 238.02712 152.96035 238.25429 153.67496 C 238.48148 154.38957 238.84581 155.5418 239.073 156.26407 C 239.30017 156.98633 239.66454 158.15068 239.89171 158.88062 C 240.1189 159.61055 240.48325 160.7874 240.71044 161.52506 C 240.9376 162.26271 241.30197 163.45186 241.52915 164.1972 C 241.75634 164.94254 242.12067 166.14402 242.34786 166.89704 C 242.57503 167.65007 243.16657 169.62458 243.16657 169.62458 "/>
</g>
<symbol id="font_2_1">
<path d="M .305 .31300003 C .311 .33900003 .334 .43100003 .404 .43100003 C .409 .43100003 .433 .43100003 .454 .418 C .426 .41300003 .40600003 .388 .40600003 .36400003 C .40600003 .34800003 .417 .32900004 .444 .32900004 C .46600003 .32900004 .498 .34700004 .498 .38700003 C .498 .43900005 .439 .45300005 .405 .45300005 C .347 .45300005 .312 .40000005 .3 .37700004 C .275 .44300003 .221 .45300005 .19200002 .45300005 C .08800001 .45300005 .031000002 .32400004 .031000002 .29900003 C .031000002 .28900004 .041 .28900004 .043000007 .28900004 C .051000008 .28900004 .054000006 .291 .056 .3 C .09 .40600003 .156 .43100003 .19000001 .43100003 C .209 .43100003 .244 .42200003 .244 .36400003 C .244 .33300004 .22700002 .26600004 .19000001 .126 C .17400001 .064 .13900002 .022000002 .095000009 .022000002 C .08900001 .022000002 .06600001 .022000002 .045 .035 C .07000001 .040000004 .09200001 .061 .09200001 .089 C .09200001 .116000007 .07000001 .124000009 .055000009 .124000009 C .025 .124000009 0 .098000008 0 .06600001 C 0 .020000002 .050000006 0 .094000007 0 C .16000001 0 .19600001 .07000001 .19900002 .076000008 C .21100001 .039 .24700003 0 .307 0 C .41 0 .467 .12900001 .467 .15400002 C .467 .16400002 .458 .16400002 .455 .16400002 C .446 .16400002 .444 .16000001 .442 .15300001 C .409 .046 .341 .022000002 .30900003 .022000002 C .27 .022000002 .254 .054 .254 .08800001 C .254 .11000001 .26 .13200002 .271 .17600002 L .305 .31300003 Z "/>
</symbol>
<use xlink:href="#font_2_1" transform="matrix(9.9626,0,0,-9.9626,260.9569,184.98459)"/>
<symbol id="font_2_2">
<path d="M .45700003 .586 C .461 .6 .461 .602 .461 .609 C .461 .62700006 .447 .63600006 .432 .63600006 C .42200003 .63600006 .40600003 .63 .397 .615 C .395 .61 .387 .579 .38300003 .561 C .37600003 .535 .36900003 .508 .363 .48100005 L .318 .301 C .314 .286 .271 .21600002 .20500002 .21600002 C .15400002 .21600002 .143 .26000003 .143 .29700003 C .143 .34300003 .16000001 .40500004 .194 .49300004 C .21000001 .53400006 .21400002 .545 .21400002 .56500008 C .21400002 .61 .18200001 .6470001 .13200002 .6470001 C .037 .6470001 0 .50200006 0 .49300004 C 0 .48300005 .01 .48300005 .012 .48300005 C .022000002 .48300005 .023 .485 .028000003 .50100007 C .055000009 .595 .095000009 .625 .12900001 .625 C .13700001 .625 .15400002 .625 .15400002 .59300008 C .15400002 .568 .14400001 .54200008 .13700001 .523 C .097 .41700004 .079 .36 .079 .31300003 C .079 .224 .142 .194 .201 .194 C .24000003 .194 .274 .21100001 .30200003 .23900002 C .289 .187 .277 .13800001 .237 .08500001 C .21100001 .051 .17300001 .022 .127 .022 C .113000009 .022 .068 .025000006 .051000008 .06400001 C .067 .06400001 .080000009 .06400001 .094000007 .076000008 C .104 .08500001 .11400001 .098000008 .11400001 .117000009 C .11400001 .148 .087000008 .15200001 .07700001 .15200001 C .054000006 .15200001 .021 .136 .021 .087000008 C .021 .037 .065000008 0 .127 0 C .23 0 .333 .091000009 .361 .20400001 L .45700003 .586 Z "/>
</symbol>
<use xlink:href="#font_2_2" transform="matrix(9.9626,0,0,-9.9626,11.615915,9.652319)"/>
</svg>
