<?xml version="1.0" encoding="UTF-8" standalone="no"?>
<!DOCTYPE svg PUBLIC "-//W3C//DTD SVG 1.1//EN" "http://www.w3.org/Graphics/SVG/1.1/DTD/svg11.dtd">
<svg xmlns="http://www.w3.org/2000/svg" xmlns:xlink="http://www.w3.org/1999/xlink" version="1.1" width="216.53pt" height="97.463pt" viewBox="0 0 216.53 97.463">
<path transform="matrix(1,0,0,-1,9.686,97.264)" stroke-width="1" stroke-linecap="butt" stroke-miterlimit="10" stroke-linejoin="miter" fill="none" stroke="#808080" d="M 0 39.9664 L 0 44.21817 M 32.3787 39.9664 L 32.3787 44.21817 M 64.75739 39.9664 L 64.75739 44.21817 M 129.51477 39.9664 L 129.51477 44.21817 M 161.89347 39.9664 L 161.89347 44.21817 M 194.27216 39.9664 L 194.27216 44.21817 "/>
<path transform="matrix(1,0,0,-1,9.686,97.264)" stroke-width="1" stroke-linecap="butt" stroke-miterlimit="10" stroke-linejoin="miter" fill="none" stroke="#808080" d="M 95.01018 9.71361 L 99.26195 9.71361 M 95.01018 74.471 L 99.26195 74.471 "/>
<path transform="matrix(1,0,0,-1,9.686,97.264)" stroke-width="1" stroke-linecap="butt" stroke-miterlimit="10" stroke-linejoin="miter" fill="none" stroke="#000000" d="M 0 42.0923 L 192.27964 42.0923 "/>
<path transform="matrix(1,0,0,-1,201.96564,55.1717)" d="M 1.99252 0 L -1.19551 1.59401 L 0 0 L -1.19551 -1.59401 "/>
<path transform="matrix(1,0,0,-1,9.686,97.264)" stroke-width="1" stroke-linecap="butt" stroke-miterlimit="10" stroke-linejoin="miter" fill="none" stroke="#000000" d="M 97.13608 0 L 97.13608 82.19208 "/>
<path transform="matrix(0,-1,-1,-0,106.822078,15.071922)" d="M 1.99252 0 L -1.19551 1.59401 L 0 0 L -1.19551 -1.59401 "/>
<symbol id="font_0_1">
<path d="M .57600006 0 C .59300008 0 .611 0 .611 .019999996 C .611 .040000008 .59300008 .040000008 .57600006 .040000008 L .035000005 .040000008 C .018 .040000008 0 .040000008 0 .019999996 C 0 0 .018 0 .035000005 0 L .57600006 0 Z "/>
</symbol>
<use xlink:href="#font_0_1" transform="matrix(9.9626,0,0,-9.9626,4.147896,64.9466)"/>
<symbol id="font_1_3">
<path d="M .24800003 .37400005 C .33 .40100003 .388 .47100006 .388 .55 C .388 .632 .3 .688 .204 .688 C .10300001 .688 .027000003 .628 .027000003 .55200007 C .027000003 .519 .049000004 .5 .078 .5 C .109000008 .5 .12900001 .522 .12900001 .55100008 C .12900001 .6010001 .082 .6010001 .067 .6010001 C .098 .65000006 .164 .66300007 .20000002 .66300007 C .24100003 .66300007 .29600004 .64100006 .29600004 .55100008 C .29600004 .53900006 .29400004 .48100005 .268 .43700005 C .238 .38900004 .204 .38600005 .17900002 .38500003 C .171 .38400004 .14700002 .38200004 .14000002 .38200004 C .132 .38100005 .125 .38000003 .125 .37000004 C .125 .35900004 .132 .35900004 .14900002 .35900004 L .19300002 .35900004 C .275 .35900004 .312 .29100005 .312 .193 C .312 .057000005 .24300003 .028 .199 .028 C .15600002 .028 .081 .045 .046000005 .104 C .081 .09900001 .11200001 .12100001 .11200001 .15900001 C .11200001 .19500001 .085 .215 .056 .215 C .031999999 .215 0 .201 0 .157 C 0 .06600001 .093 0 .20200002 0 C .32400004 0 .41500003 .091000009 .41500003 .193 C .41500003 .27500005 .35200004 .35300005 .24800003 .37400005 Z "/>
</symbol>
<use xlink:href="#font_1_3" transform="matrix(9.9626,0,0,-9.9626,11.48743,67.45718)"/>
<use xlink:href="#font_0_1" transform="matrix(9.9626,0,0,-9.9626,36.525899,64.9466)"/>
<symbol id="font_1_2">
<path d="M .07700001 .07700001 L .18300002 .18 C .33900003 .31800003 .39900003 .372 .39900003 .47200004 C .39900003 .586 .30900003 .666 .18700002 .666 C .074 .666 0 .574 0 .485 C 0 .42900003 .05 .42900003 .053000008 .42900003 C .07000001 .42900003 .105000007 .441 .105000007 .48200003 C .105000007 .508 .08700001 .53400006 .052000006 .53400006 C .044000005 .53400006 .042000008 .53400006 .039 .53300008 C .062000004 .59800007 .11600001 .63500007 .17400001 .63500007 C .26500003 .63500007 .308 .554 .308 .47200004 C .308 .39200003 .25800003 .31300003 .20300003 .25100003 L .011000004 .037 C 0 .026 0 .024 0 0 L .37100003 0 L .39900003 .17400001 L .374 .17400001 C .36900003 .14400001 .36200003 .1 .352 .085 C .345 .07700001 .279 .07700001 .257 .07700001 L .07700001 .07700001 Z "/>
</symbol>
<use xlink:href="#font_1_2" transform="matrix(9.9626,0,0,-9.9626,43.946134,67.238)"/>
<use xlink:href="#font_0_1" transform="matrix(9.9626,0,0,-9.9626,68.90389,64.9466)"/>
<symbol id="font_1_1">
<path d="M .205 .64000007 C .205 .66400006 .205 .666 .18200003 .666 C .120000008 .60200008 .032000007 .60200008 0 .60200008 L 0 .57100006 C .020000004 .57100006 .07900001 .57100006 .13100001 .597 L .13100001 .079 C .13100001 .043 .128 .031000002 .038000004 .031000002 L .0060000049 .031000002 L .0060000049 0 C .04100001 .003 .128 .003 .168 .003 C .20800002 .003 .29500003 .003 .33000005 0 L .33000005 .031000002 L .29800005 .031000002 C .20800002 .031000002 .205 .042000005 .205 .079 L .205 .64000007 Z "/>
</symbol>
<use xlink:href="#font_1_1" transform="matrix(9.9626,0,0,-9.9626,76.71267,67.238)"/>
<use xlink:href="#font_1_1" transform="matrix(9.9626,0,0,-9.9626,137.59468,67.238)"/>
<use xlink:href="#font_1_2" transform="matrix(9.9626,0,0,-9.9626,169.58412,67.238)"/>
<use xlink:href="#font_1_3" transform="matrix(9.9626,0,0,-9.9626,201.88344,67.45718)"/>
<use xlink:href="#font_0_1" transform="matrix(9.9626,0,0,-9.9626,89.2719,88.053607)"/>
<use xlink:href="#font_1_1" transform="matrix(9.9626,0,0,-9.9626,97.07967,90.345)"/>
<use xlink:href="#font_1_1" transform="matrix(9.9626,0,0,-9.9626,97.07967,26.003998)"/>
<clipPath id="cp2">
<path transform="matrix(1,0,0,-1,9.686,97.264)" d="M 0 0 L 194.27216 0 L 194.27216 84.1846 L 0 84.1846 Z "/>
</clipPath>
<g clip-path="url(#cp2)">
<path transform="matrix(1,0,0,-1,9.686,97.264)" stroke-width="1.59404" stroke-linecap="butt" stroke-miterlimit="10" stroke-linejoin="miter" fill="none" stroke="#000080" d="M 0 42.11626 C 0 42.11626 5.84843 42.1448 8.09467 42.18484 C 10.3409 42.22488 13.94312 42.28975 16.18935 42.40489 C 18.43556 42.52003 22.03778 42.72905 24.28401 43.01477 C 26.53024 43.30049 30.13246 43.85667 32.3787 44.46419 C 34.62491 45.07169 38.22713 46.30156 40.47336 47.39323 C 42.71959 48.48492 46.32181 50.71336 48.56804 52.33238 C 50.81425 53.95139 54.41647 57.17746 56.6627 59.06197 C 58.90894 60.94646 62.51115 64.4285 64.75739 65.91458 C 67.00362 67.40067 70.60582 69.57841 72.85205 69.77266 C 75.09828 69.96692 78.7005 69.04463 80.94673 67.31464 C 83.19296 65.58466 86.79517 60.80367 89.0414 57.30412 C 91.28763 53.80458 94.88985 46.31352 97.13608 42.0923 C 99.38231 37.87106 102.98451 30.38 105.23074 26.88045 C 107.47697 23.38089 111.0792 18.59991 113.32542 16.86993 C 115.57166 15.13995 119.17386 14.21765 121.42009 14.41191 C 123.66632 14.60616 127.26854 16.7839 129.51477 18.26999 C 131.761 19.75607 135.3632 23.23811 137.60944 25.12262 C 139.85567 27.00711 143.45789 30.23318 145.70412 31.8522 C 147.95035 33.4712 151.55255 35.69965 153.79878 36.79134 C 156.04502 37.88301 159.64723 39.11288 161.89347 39.7204 C 164.1397 40.3279 167.74192 40.8841 169.98813 41.16982 C 172.23436 41.45554 175.83658 41.66454 178.08281 41.77968 C 180.32904 41.89482 183.93126 41.95969 186.17748 41.99973 C 188.4237 42.03976 194.27216 42.06831 194.27216 42.06831 "/>
<symbol id="font_3_1">
<path d="M .482 .693 C .47900004 .712 .47800005 .716 .462 .716 C .44700004 .716 .44300003 .712 .435 .69600006 L .12900001 .09900001 C .10700001 .057000005 .072 .031000002 .004999999 .031000002 C .0029999987 .021000002 .0020000004 .010000001 0 0 C .021000002 .001 .062000004 .003 .102 .003 C .12200001 .003 .18800001 .001 .216 0 L .222 .030000002 C .213 .030000002 .155 .034 .155 .076000008 C .155 .08400001 .155 .086 .168 .112 C .18800001 .15100001 .21200001 .2 .22800002 .22800002 L .47500003 .22800002 L .50200006 .079 C .503 .076000008 .504 .067 .504 .064 C .504 .031000002 .44000004 .031000002 .41500003 .031000002 C .414 .023000002 .411 .009000001 .41000004 0 C .44500003 .003 .51600006 .003 .554 .003 C .597 .003 .643 .002 .685 0 C .68600007 .009000001 .689 .023000002 .69000008 .031000002 L .674 .031000002 C .602 .031000002 .6 .041 .59400007 .075 L .482 .693 M .411 .58400008 L .46900005 .259 L .24400002 .259 L .411 .58400008 Z "/>
</symbol>
<use xlink:href="#font_3_1" transform="matrix(9.9626,0,0,-9.9626,152.8878,82.104007)" fill="#000080"/>
<path transform="matrix(1,0,0,-1,9.686,97.264)" stroke-width="1" stroke-linecap="butt" stroke-miterlimit="10" stroke-linejoin="miter" fill="none" stroke="#000080" d="M 0 37.52333 C 0 37.52333 5.84843 31.79051 8.09467 29.73593 C 10.3409 27.68135 13.94312 24.49625 16.18935 22.71526 C 18.43556 20.93427 22.03778 18.29604 24.28401 16.89973 C 26.53024 15.50343 30.13246 13.57658 32.3787 12.65164 C 34.62491 11.72668 38.22713 10.62953 40.47336 10.23326 C 42.71959 9.83699 46.32181 9.63823 48.56804 9.7955 C 50.81425 9.95279 54.41647 10.66585 56.6627 11.36685 C 58.90894 12.06784 62.51115 13.647 64.75739 14.84789 C 67.00362 16.04877 70.60582 18.39555 72.85205 20.022 C 75.09828 21.64845 78.7005 24.61932 80.94673 26.57027 C 83.19296 28.52121 86.79517 31.92946 89.0414 34.0831 C 91.28763 36.23676 94.88985 39.86978 97.13608 42.0923 C 99.38231 44.3148 102.98451 47.94783 105.23074 50.10147 C 107.47697 52.25513 111.0792 55.66336 113.32542 57.6143 C 115.57166 59.56525 119.17386 62.53613 121.42009 64.16257 C 123.66632 65.78902 127.26854 68.1358 129.51477 69.33669 C 131.761 70.53757 135.3632 72.11673 137.60944 72.81773 C 139.85567 73.51872 143.45789 74.23178 145.70412 74.38907 C 147.95035 74.54634 151.55255 74.34758 153.79878 73.95131 C 156.04502 73.55504 159.64723 72.45789 161.89347 71.53293 C 164.1397 70.60799 167.74192 68.68115 169.98813 67.28485 C 172.23436 65.88855 175.83658 63.2503 178.08281 61.46931 C 180.32904 59.68832 183.93126 56.50322 186.17748 54.44864 C 188.4237 52.39407 194.27216 46.66125 194.27216 46.66125 "/>
<symbol id="font_3_2">
<path d="M .11400001 .683 L .10900001 .652 C .12300001 .652 .15200001 .652 .16800002 .651 C .19000001 .648 .20600002 .646 .20600002 .624 C .20600002 .61700007 .20400001 .60800006 .20300001 .6 L .11500001 .075 C .111 .051000004 .10800001 .039 .07800001 .034 C .059000005 .031000002 .025000003 .031000002 .004999999 .031000002 L 0 0 L .391 0 C .538 0 .647 .106000009 .647 .20500002 C .647 .294 .568 .34800003 .481 .35700003 C .582 .37600003 .675 .44500003 .675 .53400006 C .675 .61600008 .59900006 .683 .477 .683 L .11400001 .683 M .24700003 .36600004 L .289 .615 C .294 .64400008 .29500003 .652 .345 .652 L .46500004 .652 C .56200006 .652 .578 .57500007 .578 .53900006 C .578 .45700003 .507 .36600004 .39000003 .36600004 L .24700003 .36600004 M .24200003 .031000002 C .214 .031000002 .19500001 .031000002 .19500001 .052 C .19500001 .055000005 .19500001 .057000005 .19800002 .072000008 L .244 .344 L .42900003 .344 C .531 .344 .54800006 .25500003 .54800006 .215 C .54800006 .123 .47500003 .031000002 .363 .031000002 L .24200003 .031000002 Z "/>
</symbol>
<use xlink:href="#font_3_2" transform="matrix(9.9626,0,0,-9.9626,190.64467,31.214997)" fill="#000080"/>
<path transform="matrix(1,0,0,-1,9.686,97.264)" stroke-width="1.19553" stroke-linecap="butt" stroke-miterlimit="10" stroke-linejoin="miter" fill="none" stroke="#000080" d="M 0 42.09628 C 0 42.09628 5.84843 42.10098 8.09467 42.1091 C 10.3409 42.11722 13.94312 42.12871 16.18935 42.1548 C 18.43556 42.18091 22.03778 42.22368 24.28401 42.29727 C 26.53024 42.37086 30.13246 42.50357 32.3787 42.68526 C 34.62491 42.86696 38.22713 43.21555 40.47336 43.60686 C 42.71959 43.99817 46.32181 44.774 48.56804 45.50566 C 50.81425 46.2373 54.41647 47.70111 56.6627 48.88016 C 58.90894 50.0592 62.51115 52.38486 64.75739 54.00343 C 67.00362 55.62202 70.60582 58.69896 72.85205 60.54587 C 75.09828 62.39278 78.7005 65.65382 80.94673 67.31464 C 83.19296 68.97546 86.79517 71.52304 89.0414 72.51595 C 91.28763 73.50887 94.88985 74.471 97.13608 74.471 C 99.38231 74.471 102.98451 73.50887 105.23074 72.51595 C 107.47697 71.52304 111.0792 68.97546 113.32542 67.31464 C 115.57166 65.65382 119.17386 62.39278 121.42009 60.54587 C 123.66632 58.69896 127.26854 55.62202 129.51477 54.00343 C 131.761 52.38486 135.3632 50.0592 137.60944 48.88016 C 139.85567 47.70111 143.45789 46.2373 145.70412 45.50566 C 147.95035 44.774 151.55255 43.99817 153.79878 43.60686 C 156.04502 43.21555 159.64723 42.86696 161.89347 42.68526 C 164.1397 42.50357 167.74192 42.37086 169.98813 42.29727 C 172.23436 42.22368 175.83658 42.18091 178.08281 42.1548 C 180.32904 42.12871 183.93126 42.11722 186.17748 42.1091 C 188.4237 42.10098 194.27216 42.09628 194.27216 42.09628 "/>
<symbol id="font_3_3">
<path d="M .67300006 .716 C .67300006 .72400006 .66700008 .72700008 .6610001 .72700008 C .65700009 .72700008 .65400007 .725 .65200009 .72200009 C .65000006 .7210001 .6470001 .716 .64500007 .71400007 L .5910001 .65200009 C .58300009 .64400008 .58300009 .64300009 .5820001 .64300009 C .58100005 .64300009 .58000007 .64400008 .5730001 .651 C .52800008 .7070001 .47100006 .72700008 .41100005 .72700008 C .20500002 .72700008 0 .53200009 0 .30300004 C 0 .120000008 .13300002 0 .294 0 C .37 0 .44000004 .031000004 .49500004 .080000009 C .58500006 .16100002 .59700009 .26000003 .59700009 .261 C .59700009 .27100004 .59000006 .272 .58500006 .272 C .5820001 .272 .57400009 .272 .572 .263 C .56500008 .23300001 .549 .15900001 .47800002 .09900001 C .418 .048 .361 .031000004 .30900003 .031000004 C .21900001 .031000004 .099000018 .087000008 .099000018 .268 C .099000018 .28200004 .099000018 .44900004 .19 .573 C .238 .6380001 .326 .69600006 .42100004 .69600006 C .54100009 .69600006 .59900006 .58800008 .59900006 .47700004 C .59900006 .46900005 .59800007 .46100004 .59800007 .45200003 C .59900006 .44200004 .60700008 .44200004 .61300006 .44200004 C .61500009 .44200004 .623 .44200004 .62700006 .44500003 L .67300006 .716 Z "/>
</symbol>
<use xlink:href="#font_3_3" transform="matrix(9.9626,0,0,-9.9626,121.829959,22.28418)" fill="#000080"/>
</g>
<symbol id="font_4_1">
<path d="M .305 .31300003 C .311 .33900003 .334 .43100003 .404 .43100003 C .409 .43100003 .433 .43100003 .454 .418 C .426 .41300003 .40600003 .388 .40600003 .36400003 C .40600003 .34800003 .417 .32900004 .444 .32900004 C .46600003 .32900004 .498 .34700004 .498 .38700003 C .498 .43900005 .439 .45300005 .405 .45300005 C .347 .45300005 .312 .40000005 .3 .37700004 C .275 .44300003 .221 .45300005 .19200002 .45300005 C .08800001 .45300005 .031000002 .32400004 .031000002 .29900003 C .031000002 .28900004 .041 .28900004 .043000007 .28900004 C .051000008 .28900004 .054000006 .291 .056 .3 C .09 .40600003 .156 .43100003 .19000001 .43100003 C .209 .43100003 .244 .42200003 .244 .36400003 C .244 .33300004 .22700002 .26600004 .19000001 .126 C .17400001 .064 .13900002 .022000002 .095000009 .022000002 C .08900001 .022000002 .06600001 .022000002 .045 .035 C .07000001 .040000004 .09200001 .061 .09200001 .089 C .09200001 .116000007 .07000001 .124000009 .055000009 .124000009 C .025 .124000009 0 .098000008 0 .06600001 C 0 .020000002 .050000006 0 .094000007 0 C .16000001 0 .19600001 .07000001 .19900002 .076000008 C .21100001 .039 .24700003 0 .307 0 C .41 0 .467 .12900001 .467 .15400002 C .467 .16400002 .458 .16400002 .455 .16400002 C .446 .16400002 .444 .16000001 .442 .15300001 C .409 .046 .341 .022000002 .30900003 .022000002 C .27 .022000002 .254 .054 .254 .08800001 C .254 .11000001 .26 .13200002 .271 .17600002 L .305 .31300003 Z "/>
</symbol>
<use xlink:href="#font_4_1" transform="matrix(9.9626,0,0,-9.9626,207.80492,57.417589)"/>
<symbol id="font_4_2">
<path d="M .45700003 .586 C .461 .6 .461 .602 .461 .609 C .461 .62700006 .447 .63600006 .432 .63600006 C .42200003 .63600006 .40600003 .63 .397 .615 C .395 .61 .387 .579 .38300003 .561 C .37600003 .535 .36900003 .508 .363 .48100005 L .318 .301 C .314 .286 .271 .21600002 .20500002 .21600002 C .15400002 .21600002 .143 .26000003 .143 .29700003 C .143 .34300003 .16000001 .40500004 .194 .49300004 C .21000001 .53400006 .21400002 .545 .21400002 .56500008 C .21400002 .61 .18200001 .6470001 .13200002 .6470001 C .037 .6470001 0 .50200006 0 .49300004 C 0 .48300005 .01 .48300005 .012 .48300005 C .022000002 .48300005 .023 .485 .028000003 .50100007 C .055000009 .595 .095000009 .625 .12900001 .625 C .13700001 .625 .15400002 .625 .15400002 .59300008 C .15400002 .568 .14400001 .54200008 .13700001 .523 C .097 .41700004 .079 .36 .079 .31300003 C .079 .224 .142 .194 .201 .194 C .24000003 .194 .274 .21100001 .30200003 .23900002 C .289 .187 .277 .13800001 .237 .08500001 C .21100001 .051 .17300001 .022 .127 .022 C .113000009 .022 .068 .025000006 .051000008 .06400001 C .067 .06400001 .080000009 .06400001 .094000007 .076000008 C .104 .08500001 .11400001 .098000008 .11400001 .117000009 C .11400001 .148 .087000008 .15200001 .07700001 .15200001 C .054000006 .15200001 .021 .136 .021 .087000008 C .021 .037 .065000008 0 .127 0 C .23 0 .333 .091000009 .361 .20400001 L .45700003 .586 Z "/>
</symbol>
<use xlink:href="#font_4_2" transform="matrix(9.9626,0,0,-9.9626,104.500919,9.652334)"/>
</svg>
