<?xml version="1.0" encoding="UTF-8" standalone="no"?>
<!DOCTYPE svg PUBLIC "-//W3C//DTD SVG 1.1//EN" "http://www.w3.org/Graphics/SVG/1.1/DTD/svg11.dtd">
<svg xmlns="http://www.w3.org/2000/svg" xmlns:xlink="http://www.w3.org/1999/xlink" version="1.1" width="205.053pt" height="168.65pt" viewBox="0 0 205.053 168.65">
<path transform="matrix(1,0,0,-1,11.137,133.94899)" stroke-width="1" stroke-linecap="butt" stroke-miterlimit="10" stroke-linejoin="miter" fill="none" stroke="#808080" d="M 25.52097 -5.20403 L 28.24933 -4.43379 "/>
<path transform="matrix(1,0,0,-1,11.137,133.94899)" stroke-width="1" stroke-linecap="butt" stroke-miterlimit="10" stroke-linejoin="miter" fill="none" stroke="#808080" d="M 24.83908 -5.39653 L 28.9312 -4.24129 M 45.8847 -11.33746 L 49.97682 -10.18222 M 66.93031 -17.2784 L 71.02243 -16.12315 M 87.97594 -23.21933 L 92.06805 -22.06409 "/>
<path transform="matrix(1,0,0,-1,11.137,133.94899)" stroke-width="1" stroke-linecap="butt" stroke-miterlimit="10" stroke-linejoin="miter" fill="none" stroke="#808080" d="M 41.82501 12.05122 L 44.55353 11.281 "/>
<path transform="matrix(1,0,0,-1,11.137,133.94899)" stroke-width="1" stroke-linecap="butt" stroke-miterlimit="10" stroke-linejoin="miter" fill="none" stroke="#808080" d="M 41.14308 12.24373 L 45.23544 11.08852 M 78.49283 22.78781 L 82.58517 21.6326 "/>
<path transform="matrix(1,0,0,-1,11.137,133.94899)" stroke-width="1" stroke-linecap="butt" stroke-miterlimit="10" stroke-linejoin="miter" fill="none" stroke="#000000" d="M 3.73497 1.71611 L 98.62608 -25.07056 "/>
<path transform="matrix(.96297,.27182,.27182,-.96297,109.763088,159.01955)" d="M 1.99252 0 L -1.19551 1.59401 L 0 0 L -1.19551 -1.59401 "/>
<path transform="matrix(1,0,0,-1,11.137,133.94899)" stroke-width="1" stroke-linecap="butt" stroke-miterlimit="10" stroke-linejoin="miter" fill="none" stroke="#000000" d="M 2.10455 .06761 L 97.29515 26.94058 "/>
<path transform="matrix(.96297,-.27185,-.27185,-.96297,108.43215,107.00842)" d="M 1.99252 0 L -1.19551 1.59401 L 0 0 L -1.19551 -1.59401 "/>
<symbol id="font_0_2">
<path d="M .22600001 .63600006 C .22600001 .66300007 .224 .66400006 .19600001 .66400006 C .132 .601 .041 .6 0 .6 L 0 .564 C .023999997 .564 .09000001 .564 .14500001 .592 L .14500001 .082 C .14500001 .049000004 .14500001 .036000004 .04500001 .036000004 L .0069999995 .036000004 L .0069999995 0 C .024999999 .001 .148 .004 .185 .004 C .21600002 .004 .34200005 .001 .36400003 0 L .36400003 .036000004 L .32600004 .036000004 C .22600001 .036000004 .22600001 .049000004 .22600001 .082 L .22600001 .63600006 Z "/>
</symbol>
<use xlink:href="#font_0_2" transform="matrix(6.9738,0,0,-6.9738,40.329145,147.43299)"/>
<symbol id="font_0_3">
<path d="M .442 .18200001 L .40800003 .18200001 C .40500004 .16000001 .39500005 .101 .38200004 .091000009 C .374 .085 .29700003 .085 .28300003 .085 L .099 .085 C .20400003 .178 .23900002 .20600002 .29900003 .25300003 C .37300004 .312 .442 .374 .442 .469 C .442 .59000006 .33600004 .66400006 .20800004 .66400006 C .084 .66400006 0 .577 0 .485 C 0 .43400003 .043000007 .42900003 .053000004 .42900003 C .077 .42900003 .10600001 .446 .10600001 .48200003 C .10600001 .5 .099 .535 .047000007 .535 C .078 .606 .146 .628 .19300002 .628 C .293 .628 .34500004 .55 .34500004 .469 C .34500004 .38200004 .28300003 .31300003 .25100003 .277 L .010000005 .039 C 0 .030000002 0 .028 0 0 L .41200004 0 L .442 .18200001 Z "/>
</symbol>
<use xlink:href="#font_0_3" transform="matrix(6.9738,0,0,-6.9738,61.053354,153.374)"/>
<symbol id="font_0_4">
<path d="M .219 .35400004 C .29700003 .35400004 .35300002 .3 .35300002 .193 C .35300002 .069000009 .28100003 .032 .223 .032 C .18300002 .032 .095 .043000007 .053000008 .102000009 C .10000001 .10400001 .111 .13700001 .111 .158 C .111 .19 .087 .213 .056000007 .213 C .028 .213 0 .19600001 0 .155 C 0 .061000006 .104 0 .22500001 0 C .36400003 0 .46 .09300001 .46 .193 C .46 .27100004 .39600004 .34900005 .286 .37200005 C .39100004 .41000004 .42900003 .48500005 .42900003 .546 C .42900003 .625 .33800004 .684 .22700002 .684 C .116 .684 .031 .63 .031 .55 C .031 .51600006 .053000008 .49700005 .083000008 .49700005 C .11400001 .49700005 .134 .52 .134 .548 C .134 .577 .11400001 .598 .083000008 .6 C .118 .644 .187 .65500006 .22400002 .65500006 C .26900003 .65500006 .33200003 .633 .33200003 .546 C .33200003 .504 .31800003 .45800004 .29200004 .42700003 C .25900004 .38900004 .23100002 .38700003 .18100001 .38400004 C .156 .38200004 .154 .38200004 .149 .38100005 C .147 .38100005 .139 .37900005 .139 .36800004 C .139 .35400004 .148 .35400004 .165 .35400004 L .219 .35400004 Z "/>
</symbol>
<use xlink:href="#font_0_4" transform="matrix(6.9738,0,0,-6.9738,82.03659,159.45447)"/>
<symbol id="font_0_5">
<path d="M .49000005 .164 L .49000005 .2 L .379 .2 L .379 .646 C .379 .66700008 .379 .674 .35700003 .674 C .345 .674 .34100003 .674 .331 .66 L 0 .2 L 0 .164 L .294 .164 L .294 .082 C .294 .048 .294 .036000004 .213 .036000004 L .186 .036000004 L .186 0 C .236 .002 .3 .004 .33600004 .004 C .37300004 .004 .437 .002 .48700003 0 L .48700003 .036000004 L .46 .036000004 C .379 .036000004 .379 .048 .379 .082 L .379 .164 L .49000005 .164 M .301 .56600007 L .301 .2 L .037000006 .2 L .301 .56600007 Z "/>
</symbol>
<use xlink:href="#font_0_5" transform="matrix(6.9738,0,0,-6.9738,102.97698,165.25598)"/>
<use xlink:href="#font_0_2" transform="matrix(6.9738,0,0,-6.9738,48.792146,128.85599)"/>
<use xlink:href="#font_0_3" transform="matrix(6.9738,0,0,-6.9738,85.82135,118.312)"/>
<path transform="matrix(1,0,0,-1,11.137,133.94899)" stroke-width="1" stroke-linecap="butt" stroke-miterlimit="10" stroke-linejoin="miter" fill="none" stroke="#808080" d="M 43.18927 10.24858 L 43.18927 13.08363 "/>
<path transform="matrix(1,0,0,-1,11.137,133.94899)" stroke-width="1" stroke-linecap="butt" stroke-miterlimit="10" stroke-linejoin="miter" fill="none" stroke="#808080" d="M 43.18927 9.54004 L 43.18927 13.79219 M 80.53902 20.08414 L 80.53902 24.33627 "/>
<path transform="matrix(1,0,0,-1,11.137,133.94899)" stroke-width="1" stroke-linecap="butt" stroke-miterlimit="10" stroke-linejoin="miter" fill="none" stroke="#808080" d="M 3.79346 33.62997 L 7.88557 34.78522 M 3.79346 66.71556 L 7.88557 67.8708 M 3.79346 99.80115 L 7.88557 100.95639 "/>
<path transform="matrix(1,0,0,-1,11.137,133.94899)" stroke-width="1" stroke-linecap="butt" stroke-miterlimit="10" stroke-linejoin="miter" fill="none" stroke="#000000" d="M 5.83952 .46031 L 5.83952 105.00337 "/>
<path transform="matrix(0,-1,-1,-0,16.97652,28.945618)" d="M 1.99252 0 L -1.19551 1.59401 L 0 0 L -1.19551 -1.59401 "/>
<symbol id="font_0_6">
<path d="M .092 .578 C .143 .565 .17300001 .565 .18900001 .565 C .321 .565 .39900003 .65500006 .39900003 .67 C .39900003 .681 .39200003 .684 .38700003 .684 C .38500003 .684 .38300003 .684 .37900005 .681 C .35500003 .672 .30200003 .652 .22800002 .652 C .20000002 .652 .14700002 .654 .08200001 .679 C .072000008 .684 .07 .684 .069 .684 C .056 .684 .056 .67300006 .056 .657 L .056 .36200003 C .056 .34500004 .056 .33300004 .072000008 .33300004 C .08100001 .33300004 .08200001 .33500005 .092 .34700004 C .13500002 .40200005 .19600001 .41000004 .231 .41000004 C .291 .41000004 .31800003 .36200003 .323 .35400004 C .34100003 .32100005 .34700004 .28300003 .34700004 .22500001 C .34700004 .19500001 .34700004 .136 .31700004 .09200001 C .29200004 .056 .24900002 .032 .20000002 .032 C .13500002 .032 .06800001 .068 .043000007 .134 C .08100001 .13100001 .1 .156 .1 .183 C .1 .22600001 .063 .23400001 .050000006 .23400001 C .048000009 .23400001 0 .23400001 0 .18 C 0 .09 .08200001 0 .20200002 0 C .33 0 .442 .095000009 .442 .221 C .442 .33400003 .35600005 .43800003 .23200003 .43800003 C .18800003 .43800003 .136 .42700003 .092 .38900004 L .092 .578 Z "/>
</symbol>
<use xlink:href="#font_0_6" transform="matrix(6.9738,0,0,-6.9738,7.8053495,104.41347)"/>
<symbol id="font_0_1">
<path d="M .46400006 .33900003 C .46400006 .44900004 .45100004 .528 .40500004 .598 C .374 .644 .31200005 .684 .23200001 .684 C 0 .684 0 .41100005 0 .33900003 C 0 .26700003 0 0 .23200001 0 C .46400006 0 .46400006 .26700003 .46400006 .33900003 M .23200001 .028 C .186 .028 .125 .055 .105000007 .13700001 C .091000009 .19600001 .091000009 .27800004 .091000009 .35200004 C .091000009 .42500005 .091000009 .50100007 .106000009 .556 C .127 .635 .19100002 .656 .23200001 .656 C .286 .656 .338 .623 .356 .565 C .37200005 .51100006 .37300004 .43900005 .37300004 .35200004 C .37300004 .27800004 .37300004 .20400001 .36 .141 C .34000004 .050000006 .272 .028 .23200001 .028 Z "/>
</symbol>
<use xlink:href="#font_0_2" transform="matrix(6.9738,0,0,-6.9738,4.1541445,71.797)"/>
<use xlink:href="#font_0_1" transform="matrix(6.9738,0,0,-6.9738,7.7317039,71.93647)"/>
<use xlink:href="#font_0_2" transform="matrix(6.9738,0,0,-6.9738,4.1541445,38.711)"/>
<use xlink:href="#font_0_6" transform="matrix(6.9738,0,0,-6.9738,7.8084156,38.850477)"/>
<path transform="matrix(1,0,0,-1,11.137,133.94899)" stroke-width="1" stroke-linecap="butt" stroke-miterlimit="10" stroke-linejoin="miter" fill="none" stroke="#808080" d="M 26.88515 -6.23642 L 26.88515 -3.40137 "/>
<path transform="matrix(1,0,0,-1,11.137,133.94899)" stroke-width="1" stroke-linecap="butt" stroke-miterlimit="10" stroke-linejoin="miter" fill="none" stroke="#808080" d="M 26.88515 -6.94498 L 26.88515 -2.69283 M 47.93077 -12.88591 L 47.93077 -8.63376 M 68.97638 -18.82684 L 68.97638 -14.57469 M 90.022 -24.76778 L 90.022 -20.51563 "/>
<path transform="matrix(1,0,0,-1,11.137,133.94899)" stroke-width="1" stroke-linecap="butt" stroke-miterlimit="10" stroke-linejoin="miter" fill="none" stroke="#808080" d="M 3.79333 34.78522 L 7.8857 33.63 M 3.79333 67.8708 L 7.8857 66.71559 M 3.79333 100.95639 L 7.8857 99.80118 "/>
<clipPath id="cp1">
<path transform="matrix(1,0,0,-1,11.137,133.94899)" d="M 193.91916 .08633 L 193.91916 106.62193 L 97.10931 133.95023 L 0 106.53558 L 0 0 L 96.80984 -27.32828 Z "/>
</clipPath>
<g clip-path="url(#cp1)">
<path transform="matrix(1,0,0,-1,11.137,133.94899)" stroke-width="1" stroke-linecap="butt" stroke-miterlimit="10" stroke-linejoin="miter" fill="none" stroke="#000080" d="M 106.32613 -6.15668 L 143.67588 4.3874 L 164.72148 -1.55351 L 127.37175 -12.09761 Z "/>
<symbol id="font_2_1">
<path d="M .342 .633 C .349 .661 .351 .66400006 .37300004 .667 L .437 .667 C .53000006 .667 .64500007 .667 .64500007 .564 C .64500007 .523 .62600007 .46000005 .57900008 .42400003 C .53800007 .39200003 .47600005 .37600003 .407 .37600003 L .278 .37600003 L .342 .633 M .52300009 .36 C .6420001 .38800005 .7480001 .46000005 .7480001 .549 C .7480001 .635 .646 .703 .50100007 .703 L .194 .703 C .17500001 .703 .162 .703 .162 .681 C .162 .667 .174 .667 .194 .667 C .195 .667 .21400002 .667 .232 .665 C .253 .663 .255 .661 .255 .651 C .255 .649 .255 .644 .25100003 .629 L .11800001 .098000008 C .11000001 .064 .108 .056 .030000002 .056 C .013000004 .056 0 .056 0 .035000005 C 0 .025000003 .0069999995 .020000002 .016000003 .020000002 C .035000005 .020000002 .058000007 .023000002 .078 .023000002 C .09700001 .023000002 .12600002 .024000003 .144 .024000003 C .164 .024000003 .187 .023000002 .208 .023000002 C .229 .023000002 .254 .020000002 .275 .020000002 C .28 .020000002 .296 .020000002 .296 .041 C .296 .056 .286 .056 .263 .056 C .24700001 .056 .243 .056 .225 .058000007 C .20300001 .061000006 .20300001 .063 .20300001 .07300001 C .20300001 .074 .20300001 .080000009 .20700002 .095000009 L .27 .34800003 L .40600003 .34800003 C .492 .34800003 .52900007 .30500005 .52900007 .25800003 C .52900007 .245 .52000007 .21100001 .51500007 .18800001 C .503 .142 .49900005 .127 .49900005 .11000001 C .49900005 .031000004 .572 0 .646 0 C .73800006 0 .77800008 .098000008 .77800008 .116000007 C .77800008 .11900001 .7760001 .13000001 .76100006 .13000001 C .7480001 .13000001 .74600008 .12300001 .74300006 .113000009 C .72900006 .069000009 .69200006 .028 .65000006 .028 C .6240001 .028 .6050001 .039000006 .6050001 .09300001 C .6050001 .11800001 .61100009 .17 .61500009 .197 C .6190001 .224 .6190001 .23400001 .6190001 .244 C .6190001 .256 .6190001 .28800003 .5910001 .31800003 C .572 .33900003 .5450001 .35200004 .52300009 .36 Z "/>
</symbol>
<use xlink:href="#font_2_1" transform="matrix(6.9738,0,0,-6.9738,147.18813,139.22948)"/>
<path transform="matrix(1,0,0,-1,11.137,133.94899)" stroke-width="1" stroke-linecap="butt" stroke-miterlimit="10" stroke-linejoin="miter" fill="none" stroke="#2190ff" d="M 79.65991 69.7163 L 87.20125 72.27393 L 91.81502 80.1489 L 84.27368 77.29837 Z "/>
<path transform="matrix(1,0,0,-1,11.137,133.94899)" stroke-width="1" stroke-linecap="butt" stroke-miterlimit="10" stroke-linejoin="miter" fill="none" stroke="#3e9fff" d="M 75.04614 62.8648 L 82.58748 65.12955 L 87.20125 72.27393 L 79.65991 69.7163 Z "/>
<path transform="matrix(1,0,0,-1,11.137,133.94899)" stroke-width="1" stroke-linecap="butt" stroke-miterlimit="10" stroke-linejoin="miter" fill="none" stroke="#57abff" d="M 70.43237 56.65804 L 77.97371 58.62985 L 82.58748 65.12955 L 75.04614 62.8648 Z "/>
<path transform="matrix(1,0,0,-1,11.137,133.94899)" stroke-width="1" stroke-linecap="butt" stroke-miterlimit="10" stroke-linejoin="miter" fill="none" stroke="#6eb7ff" d="M 65.8186 51.02101 L 73.35994 52.69992 L 77.97371 58.62985 L 70.43237 56.65804 Z "/>
<path transform="matrix(1,0,0,-1,11.137,133.94899)" stroke-width="1" stroke-linecap="butt" stroke-miterlimit="10" stroke-linejoin="miter" fill="none" stroke="#82c1ff" d="M 61.20483 45.88771 L 68.74617 47.27374 L 73.35994 52.69992 L 65.8186 51.02101 Z "/>
<path transform="matrix(1,0,0,-1,11.137,133.94899)" stroke-width="1" stroke-linecap="butt" stroke-miterlimit="10" stroke-linejoin="miter" fill="none" stroke="#94caff" d="M 56.59105 41.19955 L 64.13239 42.29268 L 68.74617 47.27374 L 61.20483 45.88771 Z "/>
<path transform="matrix(1,0,0,-1,11.137,133.94899)" stroke-width="1" stroke-linecap="butt" stroke-miterlimit="10" stroke-linejoin="miter" fill="none" stroke="#a4d2ff" d="M 51.97728 36.90508 L 59.51862 37.70529 L 64.13239 42.29268 L 56.59105 41.19955 Z "/>
<path transform="matrix(1,0,0,-1,11.137,133.94899)" stroke-width="1" stroke-linecap="butt" stroke-miterlimit="10" stroke-linejoin="miter" fill="none" stroke="#0a85ff" d="M 87.20125 72.27393 L 94.74258 74.83153 L 99.35635 82.99942 L 91.81502 80.1489 Z "/>
<path transform="matrix(1,0,0,-1,11.137,133.94899)" stroke-width="1" stroke-linecap="butt" stroke-miterlimit="10" stroke-linejoin="miter" fill="none" stroke="#b2d9ff" d="M 47.36351 32.9579 L 54.90485 33.46521 L 59.51862 37.70529 L 51.97728 36.90508 Z "/>
<path transform="matrix(1,0,0,-1,11.137,133.94899)" stroke-width="1" stroke-linecap="butt" stroke-miterlimit="10" stroke-linejoin="miter" fill="none" stroke="#2894ff" d="M 82.58748 65.12955 L 90.12881 67.39426 L 94.74258 74.83153 L 87.20125 72.27393 Z "/>
<path transform="matrix(1,0,0,-1,11.137,133.94899)" stroke-width="1" stroke-linecap="butt" stroke-miterlimit="10" stroke-linejoin="miter" fill="none" stroke="#bedfff" d="M 42.74974 29.31818 L 50.29108 29.53258 L 54.90485 33.46521 L 47.36351 32.9579 Z "/>
<path transform="matrix(1,0,0,-1,11.137,133.94899)" stroke-width="1" stroke-linecap="butt" stroke-miterlimit="10" stroke-linejoin="miter" fill="none" stroke="#43a1ff" d="M 77.97371 58.62985 L 85.51505 60.60165 L 90.12881 67.39426 L 82.58748 65.12955 Z "/>
<path transform="matrix(1,0,0,-1,11.137,133.94899)" stroke-width="1" stroke-linecap="butt" stroke-miterlimit="10" stroke-linejoin="miter" fill="none" stroke="#cae4ff" d="M 38.13596 25.94987 L 45.67729 25.87137 L 50.29108 29.53258 L 42.74974 29.31818 Z "/>
<path transform="matrix(1,0,0,-1,11.137,133.94899)" stroke-width="1" stroke-linecap="butt" stroke-miterlimit="10" stroke-linejoin="miter" fill="none" stroke="#5badff" d="M 73.35994 52.69992 L 80.90128 54.37881 L 85.51505 60.60165 L 77.97371 58.62985 Z "/>
<path transform="matrix(1,0,0,-1,11.137,133.94899)" stroke-width="1" stroke-linecap="butt" stroke-miterlimit="10" stroke-linejoin="miter" fill="none" stroke="#71b8ff" d="M 68.74617 47.27374 L 76.2875 48.65973 L 80.90128 54.37881 L 73.35994 52.69992 Z "/>
<path transform="matrix(1,0,0,-1,11.137,133.94899)" stroke-width="1" stroke-linecap="butt" stroke-miterlimit="10" stroke-linejoin="miter" fill="none" stroke="#d4e9ff" d="M 33.52219 22.82198 L 41.06352 22.45058 L 45.67729 25.87137 L 38.13596 25.94987 Z "/>
<path transform="matrix(1,0,0,-1,11.137,133.94899)" stroke-width="1" stroke-linecap="butt" stroke-miterlimit="10" stroke-linejoin="miter" fill="none" stroke="#84c2ff" d="M 64.13239 42.29268 L 71.67372 43.38577 L 76.2875 48.65973 L 68.74617 47.27374 Z "/>
<path transform="matrix(1,0,0,-1,11.137,133.94899)" stroke-width="1" stroke-linecap="butt" stroke-miterlimit="10" stroke-linejoin="miter" fill="none" stroke="#dceeff" d="M 28.90839 19.90588 L 36.44974 19.24158 L 41.06352 22.45058 L 33.52219 22.82198 Z "/>
<path transform="matrix(1,0,0,-1,11.137,133.94899)" stroke-width="1" stroke-linecap="butt" stroke-miterlimit="10" stroke-linejoin="miter" fill="none" stroke="#95caff" d="M 59.51862 37.70529 L 67.05995 38.50548 L 71.67372 43.38577 L 64.13239 42.29268 Z "/>
<path transform="matrix(1,0,0,-1,11.137,133.94899)" stroke-width="1" stroke-linecap="butt" stroke-miterlimit="10" stroke-linejoin="miter" fill="none" stroke="#e4f2ff" d="M 24.29462 17.17734 L 31.83595 16.22012 L 36.44974 19.24158 L 28.90839 19.90588 Z "/>
<path transform="matrix(1,0,0,-1,11.137,133.94899)" stroke-width="1" stroke-linecap="butt" stroke-miterlimit="10" stroke-linejoin="miter" fill="none" stroke="#0d79ff" d="M 94.74258 74.83153 L 102.28392 77.38916 L 106.89769 85.84996 L 99.35635 82.99942 Z "/>
<path transform="matrix(1,0,0,-1,11.137,133.94899)" stroke-width="1" stroke-linecap="butt" stroke-miterlimit="10" stroke-linejoin="miter" fill="none" stroke="#a5d2ff" d="M 54.90485 33.46521 L 62.44618 33.9725 L 67.05995 38.50548 L 59.51862 37.70529 Z "/>
<path transform="matrix(1,0,0,-1,11.137,133.94899)" stroke-width="1" stroke-linecap="butt" stroke-miterlimit="10" stroke-linejoin="miter" fill="none" stroke="#ebf5ff" d="M 19.68085 14.61475 L 27.22218 13.36462 L 31.83595 16.22012 L 24.29462 17.17734 Z "/>
<path transform="matrix(1,0,0,-1,11.137,133.94899)" stroke-width="1" stroke-linecap="butt" stroke-miterlimit="10" stroke-linejoin="miter" fill="none" stroke="#1389ff" d="M 90.12881 67.39426 L 97.67015 69.65897 L 102.28392 77.38916 L 94.74258 74.83153 Z "/>
<path transform="matrix(1,0,0,-1,11.137,133.94899)" stroke-width="1" stroke-linecap="butt" stroke-miterlimit="10" stroke-linejoin="miter" fill="none" stroke="#b3d9ff" d="M 50.29108 29.53258 L 57.83241 29.74696 L 62.44618 33.9725 L 54.90485 33.46521 Z "/>
<path transform="matrix(1,0,0,-1,11.137,133.94899)" stroke-width="1" stroke-linecap="butt" stroke-miterlimit="10" stroke-linejoin="miter" fill="none" stroke="#2f97ff" d="M 85.51505 60.60165 L 93.05638 62.57349 L 97.67015 69.65897 L 90.12881 67.39426 Z "/>
<path transform="matrix(1,0,0,-1,11.137,133.94899)" stroke-width="1" stroke-linecap="butt" stroke-miterlimit="10" stroke-linejoin="miter" fill="none" stroke="#f2f8ff" d="M 15.06706 12.1983 L 22.6084 10.65529 L 27.22218 13.36462 L 19.68085 14.61475 Z "/>
<path transform="matrix(1,0,0,-1,11.137,133.94899)" stroke-width="1" stroke-linecap="butt" stroke-miterlimit="10" stroke-linejoin="miter" fill="none" stroke="#bfdfff" d="M 45.67729 25.87137 L 53.21863 25.79286 L 57.83241 29.74696 L 50.29108 29.53258 Z "/>
<path transform="matrix(1,0,0,-1,11.137,133.94899)" stroke-width="1" stroke-linecap="butt" stroke-miterlimit="10" stroke-linejoin="miter" fill="none" stroke="#48a4ff" d="M 80.90128 54.37881 L 88.44261 56.05774 L 93.05638 62.57349 L 85.51505 60.60165 Z "/>
<path transform="matrix(1,0,0,-1,11.137,133.94899)" stroke-width="1" stroke-linecap="butt" stroke-miterlimit="10" stroke-linejoin="miter" fill="none" stroke="#f7fbff" d="M 10.4533 9.91158 L 17.99463 8.07565 L 22.6084 10.65529 L 15.06706 12.1983 Z "/>
<path transform="matrix(1,0,0,-1,11.137,133.94899)" stroke-width="1" stroke-linecap="butt" stroke-miterlimit="10" stroke-linejoin="miter" fill="none" stroke="#cbe5ff" d="M 41.06352 22.45058 L 48.60486 22.07915 L 53.21863 25.79286 L 45.67729 25.87137 Z "/>
<path transform="matrix(1,0,0,-1,11.137,133.94899)" stroke-width="1" stroke-linecap="butt" stroke-miterlimit="10" stroke-linejoin="miter" fill="none" stroke="#5fafff" d="M 76.2875 48.65973 L 83.82884 50.04575 L 88.44261 56.05774 L 80.90128 54.37881 Z "/>
<path transform="matrix(1,0,0,-1,11.137,133.94899)" stroke-width="1" stroke-linecap="butt" stroke-miterlimit="10" stroke-linejoin="miter" fill="none" stroke="#fdfeff" d="M 5.83952 7.73914 L 13.38086 5.6103 L 17.99463 8.07565 L 10.4533 9.91158 Z "/>
<path transform="matrix(1,0,0,-1,11.137,133.94899)" stroke-width="1" stroke-linecap="butt" stroke-miterlimit="10" stroke-linejoin="miter" fill="none" stroke="#74baff" d="M 71.67372 43.38577 L 79.21506 44.47888 L 83.82884 50.04575 L 76.2875 48.65973 Z "/>
<path transform="matrix(1,0,0,-1,11.137,133.94899)" stroke-width="1" stroke-linecap="butt" stroke-miterlimit="10" stroke-linejoin="miter" fill="none" stroke="#d5eaff" d="M 36.44974 19.24158 L 43.99107 18.57727 L 48.60486 22.07915 L 41.06352 22.45058 Z "/>
<path transform="matrix(1,0,0,-1,11.137,133.94899)" stroke-width="1" stroke-linecap="butt" stroke-miterlimit="10" stroke-linejoin="miter" fill="none" stroke="#87c3ff" d="M 67.05995 38.50548 L 74.60129 39.3057 L 79.21506 44.47888 L 71.67372 43.38577 Z "/>
<path transform="matrix(1,0,0,-1,11.137,133.94899)" stroke-width="1" stroke-linecap="butt" stroke-miterlimit="10" stroke-linejoin="miter" fill="none" stroke="#deefff" d="M 31.83595 16.22012 L 39.3773 15.26288 L 43.99107 18.57727 L 36.44974 19.24158 Z "/>
<path transform="matrix(1,0,0,-1,11.137,133.94899)" stroke-width="1" stroke-linecap="butt" stroke-miterlimit="10" stroke-linejoin="miter" fill="none" stroke="#246eff" d="M 102.28392 77.38916 L 109.82526 79.94678 L 114.43903 88.70047 L 106.89769 85.84996 Z "/>
<path transform="matrix(1,0,0,-1,11.137,133.94899)" stroke-width="1" stroke-linecap="butt" stroke-miterlimit="10" stroke-linejoin="miter" fill="none" stroke="#97cbff" d="M 62.44618 33.9725 L 69.98752 34.47981 L 74.60129 39.3057 L 67.05995 38.50548 Z "/>
<path transform="matrix(1,0,0,-1,11.137,133.94899)" stroke-width="1" stroke-linecap="butt" stroke-miterlimit="10" stroke-linejoin="miter" fill="none" stroke="#e7f3ff" d="M 27.22218 13.36462 L 34.76352 12.1145 L 39.3773 15.26288 L 31.83595 16.22012 Z "/>
<path transform="matrix(1,0,0,-1,11.137,133.94899)" stroke-width="1" stroke-linecap="butt" stroke-miterlimit="10" stroke-linejoin="miter" fill="none" stroke="#037eff" d="M 97.67015 69.65897 L 105.21149 71.92369 L 109.82526 79.94678 L 102.28392 77.38916 Z "/>
<path transform="matrix(1,0,0,-1,11.137,133.94899)" stroke-width="1" stroke-linecap="butt" stroke-miterlimit="10" stroke-linejoin="miter" fill="none" stroke="#a7d3ff" d="M 57.83241 29.74696 L 65.37375 29.96136 L 69.98752 34.47981 L 62.44618 33.9725 Z "/>
<path transform="matrix(1,0,0,-1,11.137,133.94899)" stroke-width="1" stroke-linecap="butt" stroke-miterlimit="10" stroke-linejoin="miter" fill="none" stroke="#eef7ff" d="M 22.6084 10.65529 L 30.14973 9.11226 L 34.76352 12.1145 L 27.22218 13.36462 Z "/>
<path transform="matrix(1,0,0,-1,11.137,133.94899)" stroke-width="1" stroke-linecap="butt" stroke-miterlimit="10" stroke-linejoin="miter" fill="none" stroke="#1b8dff" d="M 93.05638 62.57349 L 100.59772 64.54529 L 105.21149 71.92369 L 97.67015 69.65897 Z "/>
<path transform="matrix(1,0,0,-1,11.137,133.94899)" stroke-width="1" stroke-linecap="butt" stroke-miterlimit="10" stroke-linejoin="miter" fill="none" stroke="#b5daff" d="M 53.21863 25.79286 L 60.75996 25.71436 L 65.37375 29.96136 L 57.83241 29.74696 Z "/>
<path transform="matrix(1,0,0,-1,11.137,133.94899)" stroke-width="1" stroke-linecap="butt" stroke-miterlimit="10" stroke-linejoin="miter" fill="none" stroke="#369bff" d="M 88.44261 56.05774 L 95.98395 57.73663 L 100.59772 64.54529 L 93.05638 62.57349 Z "/>
<path transform="matrix(1,0,0,-1,11.137,133.94899)" stroke-width="1" stroke-linecap="butt" stroke-miterlimit="10" stroke-linejoin="miter" fill="none" stroke="#f5faff" d="M 17.99463 8.07565 L 25.53596 6.23972 L 30.14973 9.11226 L 22.6084 10.65529 Z "/>
<path transform="matrix(1,0,0,-1,11.137,133.94899)" stroke-width="1" stroke-linecap="butt" stroke-miterlimit="10" stroke-linejoin="miter" fill="none" stroke="#c1e0ff" d="M 48.60486 22.07915 L 56.1462 21.70775 L 60.75996 25.71436 L 53.21863 25.79286 Z "/>
<path transform="matrix(1,0,0,-1,11.137,133.94899)" stroke-width="1" stroke-linecap="butt" stroke-miterlimit="10" stroke-linejoin="miter" fill="none" stroke="#4ea7ff" d="M 83.82884 50.04575 L 91.37018 51.43173 L 95.98395 57.73663 L 88.44261 56.05774 Z "/>
<path transform="matrix(1,0,0,-1,11.137,133.94899)" stroke-width="1" stroke-linecap="butt" stroke-miterlimit="10" stroke-linejoin="miter" fill="none" stroke="#fcfdff" d="M 13.38086 5.6103 L 20.9222 3.48148 L 25.53596 6.23972 L 17.99463 8.07565 Z "/>
<path transform="matrix(1,0,0,-1,11.137,133.94899)" stroke-width="1" stroke-linecap="butt" stroke-miterlimit="10" stroke-linejoin="miter" fill="none" stroke="#cde6ff" d="M 43.99107 18.57727 L 51.53241 17.91293 L 56.1462 21.70775 L 48.60486 22.07915 Z "/>
<path transform="matrix(1,0,0,-1,11.137,133.94899)" stroke-width="1" stroke-linecap="butt" stroke-miterlimit="10" stroke-linejoin="miter" fill="none" stroke="#64b2ff" d="M 79.21506 44.47888 L 86.7564 45.57198 L 91.37018 51.43173 L 83.82884 50.04575 Z "/>
<path transform="matrix(1,0,0,-1,11.137,133.94899)" stroke-width="1" stroke-linecap="butt" stroke-miterlimit="10" stroke-linejoin="miter" fill="none" stroke="#78bcff" d="M 74.60129 39.3057 L 82.14262 40.10588 L 86.7564 45.57198 L 79.21506 44.47888 Z "/>
<path transform="matrix(1,0,0,-1,11.137,133.94899)" stroke-width="1" stroke-linecap="butt" stroke-miterlimit="10" stroke-linejoin="miter" fill="none" stroke="#d8ebff" d="M 39.3773 15.26288 L 46.91864 14.30568 L 51.53241 17.91293 L 43.99107 18.57727 Z "/>
<path transform="matrix(1,0,0,-1,11.137,133.94899)" stroke-width="1" stroke-linecap="butt" stroke-miterlimit="10" stroke-linejoin="miter" fill="none" stroke="#3b62ff" d="M 109.82526 79.94678 L 117.3666 82.50441 L 121.98036 91.55103 L 114.43903 88.70047 Z "/>
<path transform="matrix(1,0,0,-1,11.137,133.94899)" stroke-width="1" stroke-linecap="butt" stroke-miterlimit="10" stroke-linejoin="miter" fill="none" stroke="#8ac5ff" d="M 69.98752 34.47981 L 77.52885 34.9871 L 82.14262 40.10588 L 74.60129 39.3057 Z "/>
<path transform="matrix(1,0,0,-1,11.137,133.94899)" stroke-width="1" stroke-linecap="butt" stroke-miterlimit="10" stroke-linejoin="miter" fill="none" stroke="#e2f0ff" d="M 34.76352 12.1145 L 42.30487 10.86438 L 46.91864 14.30568 L 39.3773 15.26288 Z "/>
<path transform="matrix(1,0,0,-1,11.137,133.94899)" stroke-width="1" stroke-linecap="butt" stroke-miterlimit="10" stroke-linejoin="miter" fill="none" stroke="#1974ff" d="M 105.21149 71.92369 L 112.75282 74.18843 L 117.3666 82.50441 L 109.82526 79.94678 Z "/>
<path transform="matrix(1,0,0,-1,11.137,133.94899)" stroke-width="1" stroke-linecap="butt" stroke-miterlimit="10" stroke-linejoin="miter" fill="none" stroke="#9bcdff" d="M 65.37375 29.96136 L 72.91508 30.17575 L 77.52885 34.9871 L 69.98752 34.47981 Z "/>
<path transform="matrix(1,0,0,-1,11.137,133.94899)" stroke-width="1" stroke-linecap="butt" stroke-miterlimit="10" stroke-linejoin="miter" fill="none" stroke="#ebf5ff" d="M 30.14973 9.11226 L 37.69109 7.56924 L 42.30487 10.86438 L 34.76352 12.1145 Z "/>
<path transform="matrix(1,0,0,-1,11.137,133.94899)" stroke-width="1" stroke-linecap="butt" stroke-miterlimit="10" stroke-linejoin="miter" fill="none" stroke="#0683ff" d="M 100.59772 64.54529 L 108.13905 66.51712 L 112.75282 74.18843 L 105.21149 71.92369 Z "/>
<path transform="matrix(1,0,0,-1,11.137,133.94899)" stroke-width="1" stroke-linecap="butt" stroke-miterlimit="10" stroke-linejoin="miter" fill="none" stroke="#aad5ff" d="M 60.75996 25.71436 L 68.3013 25.63585 L 72.91508 30.17575 L 65.37375 29.96136 Z "/>
<path transform="matrix(1,0,0,-1,11.137,133.94899)" stroke-width="1" stroke-linecap="butt" stroke-miterlimit="10" stroke-linejoin="miter" fill="none" stroke="#f3f9ff" d="M 25.53596 6.23972 L 33.0773 4.4038 L 37.69109 7.56924 L 30.14973 9.11226 Z "/>
<path transform="matrix(1,0,0,-1,11.137,133.94899)" stroke-width="1" stroke-linecap="butt" stroke-miterlimit="10" stroke-linejoin="miter" fill="none" stroke="#2391ff" d="M 95.98395 57.73663 L 103.52528 59.41557 L 108.13905 66.51712 L 100.59772 64.54529 Z "/>
<path transform="matrix(1,0,0,-1,11.137,133.94899)" stroke-width="1" stroke-linecap="butt" stroke-miterlimit="10" stroke-linejoin="miter" fill="none" stroke="#b8dcff" d="M 56.1462 21.70775 L 63.68753 21.33632 L 68.3013 25.63585 L 60.75996 25.71436 Z "/>
<path transform="matrix(1,0,0,-1,11.137,133.94899)" stroke-width="1" stroke-linecap="butt" stroke-miterlimit="10" stroke-linejoin="miter" fill="none" stroke="#3c9eff" d="M 91.37018 51.43173 L 98.91151 52.81778 L 103.52528 59.41557 L 95.98395 57.73663 Z "/>
<path transform="matrix(1,0,0,-1,11.137,133.94899)" stroke-width="1" stroke-linecap="butt" stroke-miterlimit="10" stroke-linejoin="miter" fill="none" stroke="#fbfdff" d="M 20.9222 3.48148 L 28.46353 1.35265 L 33.0773 4.4038 L 25.53596 6.23972 Z "/>
<path transform="matrix(1,0,0,-1,11.137,133.94899)" stroke-width="1" stroke-linecap="butt" stroke-miterlimit="10" stroke-linejoin="miter" fill="none" stroke="#c5e2ff" d="M 51.53241 17.91293 L 59.07375 17.24863 L 63.68753 21.33632 L 56.1462 21.70775 Z "/>
<path transform="matrix(1,0,0,-1,11.137,133.94899)" stroke-width="1" stroke-linecap="butt" stroke-miterlimit="10" stroke-linejoin="miter" fill="none" stroke="#54aaff" d="M 86.7564 45.57198 L 94.29773 46.6651 L 98.91151 52.81778 L 91.37018 51.43173 Z "/>
<path transform="matrix(1,0,0,-1,11.137,133.94899)" stroke-width="1" stroke-linecap="butt" stroke-miterlimit="10" stroke-linejoin="miter" fill="none" stroke="#d2e8ff" d="M 46.91864 14.30568 L 54.45998 13.34845 L 59.07375 17.24863 L 51.53241 17.91293 Z "/>
<path transform="matrix(1,0,0,-1,11.137,133.94899)" stroke-width="1" stroke-linecap="butt" stroke-miterlimit="10" stroke-linejoin="miter" fill="none" stroke="#69b4ff" d="M 82.14262 40.10588 L 89.68396 40.90611 L 94.29773 46.6651 L 86.7564 45.57198 Z "/>
<path transform="matrix(1,0,0,-1,11.137,133.94899)" stroke-width="1" stroke-linecap="butt" stroke-miterlimit="10" stroke-linejoin="miter" fill="none" stroke="#5257ff" d="M 117.3666 82.50441 L 124.90794 85.06203 L 129.52172 94.40154 L 121.98036 91.55103 Z "/>
<path transform="matrix(1,0,0,-1,11.137,133.94899)" stroke-width="1" stroke-linecap="butt" stroke-miterlimit="10" stroke-linejoin="miter" fill="none" stroke="#7dbeff" d="M 77.52885 34.9871 L 85.07019 35.49442 L 89.68396 40.90611 L 82.14262 40.10588 Z "/>
<path transform="matrix(1,0,0,-1,11.137,133.94899)" stroke-width="1" stroke-linecap="butt" stroke-miterlimit="10" stroke-linejoin="miter" fill="none" stroke="#ddeeff" d="M 42.30487 10.86438 L 49.8462 9.61426 L 54.45998 13.34845 L 46.91864 14.30568 Z "/>
<path transform="matrix(1,0,0,-1,11.137,133.94899)" stroke-width="1" stroke-linecap="butt" stroke-miterlimit="10" stroke-linejoin="miter" fill="none" stroke="#2e69ff" d="M 112.75282 74.18843 L 120.29417 76.45313 L 124.90794 85.06203 L 117.3666 82.50441 Z "/>
<path transform="matrix(1,0,0,-1,11.137,133.94899)" stroke-width="1" stroke-linecap="butt" stroke-miterlimit="10" stroke-linejoin="miter" fill="none" stroke="#8fc7ff" d="M 72.91508 30.17575 L 80.45642 30.39017 L 85.07019 35.49442 L 77.52885 34.9871 Z "/>
<path transform="matrix(1,0,0,-1,11.137,133.94899)" stroke-width="1" stroke-linecap="butt" stroke-miterlimit="10" stroke-linejoin="miter" fill="none" stroke="#e7f3ff" d="M 37.69109 7.56924 L 45.23242 6.02621 L 49.8462 9.61426 L 42.30487 10.86438 Z "/>
<path transform="matrix(1,0,0,-1,11.137,133.94899)" stroke-width="1" stroke-linecap="butt" stroke-miterlimit="10" stroke-linejoin="miter" fill="none" stroke="#0e79ff" d="M 108.13905 66.51712 L 115.6804 68.48894 L 120.29417 76.45313 L 112.75282 74.18843 Z "/>
<path transform="matrix(1,0,0,-1,11.137,133.94899)" stroke-width="1" stroke-linecap="butt" stroke-miterlimit="10" stroke-linejoin="miter" fill="none" stroke="#a0d0ff" d="M 68.3013 25.63585 L 75.84264 25.55736 L 80.45642 30.39017 L 72.91508 30.17575 Z "/>
<path transform="matrix(1,0,0,-1,11.137,133.94899)" stroke-width="1" stroke-linecap="butt" stroke-miterlimit="10" stroke-linejoin="miter" fill="none" stroke="#f1f8ff" d="M 33.0773 4.4038 L 40.61865 2.56787 L 45.23242 6.02621 L 37.69109 7.56924 Z "/>
<path transform="matrix(1,0,0,-1,11.137,133.94899)" stroke-width="1" stroke-linecap="butt" stroke-miterlimit="10" stroke-linejoin="miter" fill="none" stroke="#1088ff" d="M 103.52528 59.41557 L 111.06664 61.09448 L 115.6804 68.48894 L 108.13905 66.51712 Z "/>
<path transform="matrix(1,0,0,-1,11.137,133.94899)" stroke-width="1" stroke-linecap="butt" stroke-miterlimit="10" stroke-linejoin="miter" fill="none" stroke="#afd7ff" d="M 63.68753 21.33632 L 71.22887 20.96494 L 75.84264 25.55736 L 68.3013 25.63585 Z "/>
<path transform="matrix(1,0,0,-1,11.137,133.94899)" stroke-width="1" stroke-linecap="butt" stroke-miterlimit="10" stroke-linejoin="miter" fill="none" stroke="#2b95ff" d="M 98.91151 52.81778 L 106.45287 54.20377 L 111.06664 61.09448 L 103.52528 59.41557 Z "/>
<path transform="matrix(1,0,0,-1,11.137,133.94899)" stroke-width="1" stroke-linecap="butt" stroke-miterlimit="10" stroke-linejoin="miter" fill="none" stroke="#fafdff" d="M 28.46353 1.35265 L 36.00487 -.77617 L 40.61865 2.56787 L 33.0773 4.4038 Z "/>
<path transform="matrix(1,0,0,-1,11.137,133.94899)" stroke-width="1" stroke-linecap="butt" stroke-miterlimit="10" stroke-linejoin="miter" fill="none" stroke="#bedfff" d="M 59.07375 17.24863 L 66.61508 16.58434 L 71.22887 20.96494 L 63.68753 21.33632 Z "/>
<path transform="matrix(1,0,0,-1,11.137,133.94899)" stroke-width="1" stroke-linecap="butt" stroke-miterlimit="10" stroke-linejoin="miter" fill="none" stroke="#44a2ff" d="M 94.29773 46.6651 L 101.83908 47.7582 L 106.45287 54.20377 L 98.91151 52.81778 Z "/>
<path transform="matrix(1,0,0,-1,11.137,133.94899)" stroke-width="1" stroke-linecap="butt" stroke-miterlimit="10" stroke-linejoin="miter" fill="none" stroke="#cbe5ff" d="M 54.45998 13.34845 L 62.00131 12.39125 L 66.61508 16.58434 L 59.07375 17.24863 Z "/>
<path transform="matrix(1,0,0,-1,11.137,133.94899)" stroke-width="1" stroke-linecap="butt" stroke-miterlimit="10" stroke-linejoin="miter" fill="none" stroke="#5badff" d="M 89.68396 40.90611 L 97.22531 41.7063 L 101.83908 47.7582 L 94.29773 46.6651 Z "/>
<path transform="matrix(1,0,0,-1,11.137,133.94899)" stroke-width="1" stroke-linecap="butt" stroke-miterlimit="10" stroke-linejoin="miter" fill="none" stroke="#694bff" d="M 124.90794 85.06203 L 132.44928 87.61964 L 137.06305 97.25206 L 129.52172 94.40154 Z "/>
<path transform="matrix(1,0,0,-1,11.137,133.94899)" stroke-width="1" stroke-linecap="butt" stroke-miterlimit="10" stroke-linejoin="miter" fill="none" stroke="#d8ecff" d="M 49.8462 9.61426 L 57.38754 8.36414 L 62.00131 12.39125 L 54.45998 13.34845 Z "/>
<path transform="matrix(1,0,0,-1,11.137,133.94899)" stroke-width="1" stroke-linecap="butt" stroke-miterlimit="10" stroke-linejoin="miter" fill="none" stroke="#70b8ff" d="M 85.07019 35.49442 L 92.61154 36.00171 L 97.22531 41.7063 L 89.68396 40.90611 Z "/>
<path transform="matrix(1,0,0,-1,11.137,133.94899)" stroke-width="1" stroke-linecap="butt" stroke-miterlimit="10" stroke-linejoin="miter" fill="none" stroke="#445eff" d="M 120.29417 76.45313 L 127.83551 78.71786 L 132.44928 87.61964 L 124.90794 85.06203 Z "/>
<path transform="matrix(1,0,0,-1,11.137,133.94899)" stroke-width="1" stroke-linecap="butt" stroke-miterlimit="10" stroke-linejoin="miter" fill="none" stroke="#83c1ff" d="M 80.45642 30.39017 L 87.99777 30.60454 L 92.61154 36.00171 L 85.07019 35.49442 Z "/>
<path transform="matrix(1,0,0,-1,11.137,133.94899)" stroke-width="1" stroke-linecap="butt" stroke-miterlimit="10" stroke-linejoin="miter" fill="none" stroke="#e4f1ff" d="M 45.23242 6.02621 L 52.77376 4.4832 L 57.38754 8.36414 L 49.8462 9.61426 Z "/>
<path transform="matrix(1,0,0,-1,11.137,133.94899)" stroke-width="1" stroke-linecap="butt" stroke-miterlimit="10" stroke-linejoin="miter" fill="none" stroke="#226fff" d="M 115.6804 68.48894 L 123.22174 70.46075 L 127.83551 78.71786 L 120.29417 76.45313 Z "/>
<path transform="matrix(1,0,0,-1,11.137,133.94899)" stroke-width="1" stroke-linecap="butt" stroke-miterlimit="10" stroke-linejoin="miter" fill="none" stroke="#95caff" d="M 75.84264 25.55736 L 83.38399 25.47884 L 87.99777 30.60454 L 80.45642 30.39017 Z "/>
<path transform="matrix(1,0,0,-1,11.137,133.94899)" stroke-width="1" stroke-linecap="butt" stroke-miterlimit="10" stroke-linejoin="miter" fill="none" stroke="#eff7ff" d="M 40.61865 2.56787 L 48.15999 .73193 L 52.77376 4.4832 L 45.23242 6.02621 Z "/>
<path transform="matrix(1,0,0,-1,11.137,133.94899)" stroke-width="1" stroke-linecap="butt" stroke-miterlimit="10" stroke-linejoin="miter" fill="none" stroke="#037fff" d="M 111.06664 61.09448 L 118.60797 62.77339 L 123.22174 70.46075 L 115.6804 68.48894 Z "/>
<path transform="matrix(1,0,0,-1,11.137,133.94899)" stroke-width="1" stroke-linecap="butt" stroke-miterlimit="10" stroke-linejoin="miter" fill="none" stroke="#a6d3ff" d="M 71.22887 20.96494 L 78.77022 20.5935 L 83.38399 25.47884 L 75.84264 25.55736 Z "/>
<path transform="matrix(1,0,0,-1,11.137,133.94899)" stroke-width="1" stroke-linecap="butt" stroke-miterlimit="10" stroke-linejoin="miter" fill="none" stroke="#fafcff" d="M 36.00487 -.77617 L 43.54622 -2.905 L 48.15999 .73193 L 40.61865 2.56787 Z "/>
<path transform="matrix(1,0,0,-1,11.137,133.94899)" stroke-width="1" stroke-linecap="butt" stroke-miterlimit="10" stroke-linejoin="miter" fill="none" stroke="#1a8dff" d="M 106.45287 54.20377 L 113.9942 55.58978 L 118.60797 62.77339 L 111.06664 61.09448 Z "/>
<path transform="matrix(1,0,0,-1,11.137,133.94899)" stroke-width="1" stroke-linecap="butt" stroke-miterlimit="10" stroke-linejoin="miter" fill="none" stroke="#b6dbff" d="M 66.61508 16.58434 L 74.15643 15.92001 L 78.77022 20.5935 L 71.22887 20.96494 Z "/>
<path transform="matrix(1,0,0,-1,11.137,133.94899)" stroke-width="1" stroke-linecap="butt" stroke-miterlimit="10" stroke-linejoin="miter" fill="none" stroke="#349aff" d="M 101.83908 47.7582 L 109.38042 48.85129 L 113.9942 55.58978 L 106.45287 54.20377 Z "/>
<path transform="matrix(1,0,0,-1,11.137,133.94899)" stroke-width="1" stroke-linecap="butt" stroke-miterlimit="10" stroke-linejoin="miter" fill="none" stroke="#c5e2ff" d="M 62.00131 12.39125 L 69.54266 11.43402 L 74.15643 15.92001 L 66.61508 16.58434 Z "/>
<path transform="matrix(1,0,0,-1,11.137,133.94899)" stroke-width="1" stroke-linecap="butt" stroke-miterlimit="10" stroke-linejoin="miter" fill="none" stroke="#4ca6ff" d="M 97.22531 41.7063 L 104.76665 42.50652 L 109.38042 48.85129 L 101.83908 47.7582 Z "/>
<path transform="matrix(1,0,0,-1,11.137,133.94899)" stroke-width="1" stroke-linecap="butt" stroke-miterlimit="10" stroke-linejoin="miter" fill="none" stroke="#d3e9ff" d="M 57.38754 8.36414 L 64.9289 7.114 L 69.54266 11.43402 L 62.00131 12.39125 Z "/>
<path transform="matrix(1,0,0,-1,11.137,133.94899)" stroke-width="1" stroke-linecap="butt" stroke-miterlimit="10" stroke-linejoin="miter" fill="none" stroke="#62b1ff" d="M 92.61154 36.00171 L 100.15288 36.50902 L 104.76665 42.50652 L 97.22531 41.7063 Z "/>
<path transform="matrix(1,0,0,-1,11.137,133.94899)" stroke-width="1" stroke-linecap="butt" stroke-miterlimit="10" stroke-linejoin="miter" fill="none" stroke="#8040ff" d="M 132.44928 87.61964 L 139.99062 90.17728 L 144.60439 100.10257 L 137.06305 97.25206 Z "/>
<path transform="matrix(1,0,0,-1,11.137,133.94899)" stroke-width="1" stroke-linecap="butt" stroke-miterlimit="10" stroke-linejoin="miter" fill="none" stroke="#5953ff" d="M 127.83551 78.71786 L 135.37685 80.98257 L 139.99062 90.17728 L 132.44928 87.61964 Z "/>
<path transform="matrix(1,0,0,-1,11.137,133.94899)" stroke-width="1" stroke-linecap="butt" stroke-miterlimit="10" stroke-linejoin="miter" fill="none" stroke="#e0f0ff" d="M 52.77376 4.4832 L 60.31511 2.94016 L 64.9289 7.114 L 57.38754 8.36414 Z "/>
<path transform="matrix(1,0,0,-1,11.137,133.94899)" stroke-width="1" stroke-linecap="butt" stroke-miterlimit="10" stroke-linejoin="miter" fill="none" stroke="#77bbff" d="M 87.99777 30.60454 L 95.53911 30.81895 L 100.15288 36.50902 L 92.61154 36.00171 Z "/>
<path transform="matrix(1,0,0,-1,11.137,133.94899)" stroke-width="1" stroke-linecap="butt" stroke-miterlimit="10" stroke-linejoin="miter" fill="none" stroke="#3665ff" d="M 123.22174 70.46075 L 130.76308 72.43256 L 135.37685 80.98257 L 127.83551 78.71786 Z "/>
<path transform="matrix(1,0,0,-1,11.137,133.94899)" stroke-width="1" stroke-linecap="butt" stroke-miterlimit="10" stroke-linejoin="miter" fill="none" stroke="#8bc5ff" d="M 83.38399 25.47884 L 90.92532 25.40034 L 95.53911 30.81895 L 87.99777 30.60454 Z "/>
<path transform="matrix(1,0,0,-1,11.137,133.94899)" stroke-width="1" stroke-linecap="butt" stroke-miterlimit="10" stroke-linejoin="miter" fill="none" stroke="#edf6ff" d="M 48.15999 .73193 L 55.70134 -1.10399 L 60.31511 2.94016 L 52.77376 4.4832 Z "/>
<path transform="matrix(1,0,0,-1,11.137,133.94899)" stroke-width="1" stroke-linecap="butt" stroke-miterlimit="10" stroke-linejoin="miter" fill="none" stroke="#1675ff" d="M 118.60797 62.77339 L 126.1493 64.45229 L 130.76308 72.43256 L 123.22174 70.46075 Z "/>
<path transform="matrix(1,0,0,-1,11.137,133.94899)" stroke-width="1" stroke-linecap="butt" stroke-miterlimit="10" stroke-linejoin="miter" fill="none" stroke="#9dceff" d="M 78.77022 20.5935 L 86.31155 20.2221 L 90.92532 25.40034 L 83.38399 25.47884 Z "/>
<path transform="matrix(1,0,0,-1,11.137,133.94899)" stroke-width="1" stroke-linecap="butt" stroke-miterlimit="10" stroke-linejoin="miter" fill="none" stroke="#f9fcff" d="M 43.54622 -2.905 L 51.08757 -5.03384 L 55.70134 -1.10399 L 48.15999 .73193 Z "/>
<path transform="matrix(1,0,0,-1,11.137,133.94899)" stroke-width="1" stroke-linecap="butt" stroke-miterlimit="10" stroke-linejoin="miter" fill="none" stroke="#0884ff" d="M 113.9942 55.58978 L 121.53554 56.97577 L 126.1493 64.45229 L 118.60797 62.77339 Z "/>
<path transform="matrix(1,0,0,-1,11.137,133.94899)" stroke-width="1" stroke-linecap="butt" stroke-miterlimit="10" stroke-linejoin="miter" fill="none" stroke="#aed7ff" d="M 74.15643 15.92001 L 81.69777 15.25569 L 86.31155 20.2221 L 78.77022 20.5935 Z "/>
<path transform="matrix(1,0,0,-1,11.137,133.94899)" stroke-width="1" stroke-linecap="butt" stroke-miterlimit="10" stroke-linejoin="miter" fill="none" stroke="#2492ff" d="M 109.38042 48.85129 L 116.92175 49.9444 L 121.53554 56.97577 L 113.9942 55.58978 Z "/>
<path transform="matrix(1,0,0,-1,11.137,133.94899)" stroke-width="1" stroke-linecap="butt" stroke-miterlimit="10" stroke-linejoin="miter" fill="none" stroke="#bfdfff" d="M 69.54266 11.43402 L 77.084 10.47682 L 81.69777 15.25569 L 74.15643 15.92001 Z "/>
<path transform="matrix(1,0,0,-1,11.137,133.94899)" stroke-width="1" stroke-linecap="butt" stroke-miterlimit="10" stroke-linejoin="miter" fill="none" stroke="#3d9fff" d="M 104.76665 42.50652 L 112.30798 43.30672 L 116.92175 49.9444 L 109.38042 48.85129 Z "/>
<path transform="matrix(1,0,0,-1,11.137,133.94899)" stroke-width="1" stroke-linecap="butt" stroke-miterlimit="10" stroke-linejoin="miter" fill="none" stroke="#cee7ff" d="M 64.9289 7.114 L 72.47023 5.86389 L 77.084 10.47682 L 69.54266 11.43402 Z "/>
<path transform="matrix(1,0,0,-1,11.137,133.94899)" stroke-width="1" stroke-linecap="butt" stroke-miterlimit="10" stroke-linejoin="miter" fill="none" stroke="#55aaff" d="M 100.15288 36.50902 L 107.69421 37.01631 L 112.30798 43.30672 L 104.76665 42.50652 Z "/>
<path transform="matrix(1,0,0,-1,11.137,133.94899)" stroke-width="1" stroke-linecap="butt" stroke-miterlimit="10" stroke-linejoin="miter" fill="none" stroke="#9734ff" d="M 139.99062 90.17728 L 147.53195 92.7349 L 152.14572 102.95311 L 144.60439 100.10257 Z "/>
<path transform="matrix(1,0,0,-1,11.137,133.94899)" stroke-width="1" stroke-linecap="butt" stroke-miterlimit="10" stroke-linejoin="miter" fill="none" stroke="#ddeeff" d="M 60.31511 2.94016 L 67.85645 1.39714 L 72.47023 5.86389 L 64.9289 7.114 Z "/>
<path transform="matrix(1,0,0,-1,11.137,133.94899)" stroke-width="1" stroke-linecap="butt" stroke-miterlimit="10" stroke-linejoin="miter" fill="none" stroke="#6f48ff" d="M 135.37685 80.98257 L 142.91819 83.24728 L 147.53195 92.7349 L 139.99062 90.17728 Z "/>
<path transform="matrix(1,0,0,-1,11.137,133.94899)" stroke-width="1" stroke-linecap="butt" stroke-miterlimit="10" stroke-linejoin="miter" fill="none" stroke="#6cb6ff" d="M 95.53911 30.81895 L 103.08044 31.03334 L 107.69421 37.01631 L 100.15288 36.50902 Z "/>
<path transform="matrix(1,0,0,-1,11.137,133.94899)" stroke-width="1" stroke-linecap="butt" stroke-miterlimit="10" stroke-linejoin="miter" fill="none" stroke="#4a5bff" d="M 130.76308 72.43256 L 138.30442 74.40437 L 142.91819 83.24728 L 135.37685 80.98257 Z "/>
<path transform="matrix(1,0,0,-1,11.137,133.94899)" stroke-width="1" stroke-linecap="butt" stroke-miterlimit="10" stroke-linejoin="miter" fill="none" stroke="#ebf5ff" d="M 55.70134 -1.10399 L 63.24268 -2.9399 L 67.85645 1.39714 L 60.31511 2.94016 Z "/>
<path transform="matrix(1,0,0,-1,11.137,133.94899)" stroke-width="1" stroke-linecap="butt" stroke-miterlimit="10" stroke-linejoin="miter" fill="none" stroke="#80c0ff" d="M 90.92532 25.40034 L 98.46666 25.32182 L 103.08044 31.03334 L 95.53911 30.81895 Z "/>
<path transform="matrix(1,0,0,-1,11.137,133.94899)" stroke-width="1" stroke-linecap="butt" stroke-miterlimit="10" stroke-linejoin="miter" fill="none" stroke="#286cff" d="M 126.1493 64.45229 L 133.69065 66.13121 L 138.30442 74.40437 L 130.76308 72.43256 Z "/>
<path transform="matrix(1,0,0,-1,11.137,133.94899)" stroke-width="1" stroke-linecap="butt" stroke-miterlimit="10" stroke-linejoin="miter" fill="none" stroke="#94caff" d="M 86.31155 20.2221 L 93.85289 19.8507 L 98.46666 25.32182 L 90.92532 25.40034 Z "/>
<path transform="matrix(1,0,0,-1,11.137,133.94899)" stroke-width="1" stroke-linecap="butt" stroke-miterlimit="10" stroke-linejoin="miter" fill="none" stroke="#f8fcff" d="M 51.08757 -5.03384 L 58.6289 -7.16266 L 63.24268 -2.9399 L 55.70134 -1.10399 Z "/>
<path transform="matrix(1,0,0,-1,11.137,133.94899)" stroke-width="1" stroke-linecap="butt" stroke-miterlimit="10" stroke-linejoin="miter" fill="none" stroke="#097bff" d="M 121.53554 56.97577 L 129.07688 58.3618 L 133.69065 66.13121 L 126.1493 64.45229 Z "/>
<path transform="matrix(1,0,0,-1,11.137,133.94899)" stroke-width="1" stroke-linecap="butt" stroke-miterlimit="10" stroke-linejoin="miter" fill="none" stroke="#a7d3ff" d="M 81.69777 15.25569 L 89.2391 14.59137 L 93.85289 19.8507 L 86.31155 20.2221 Z "/>
<path transform="matrix(1,0,0,-1,11.137,133.94899)" stroke-width="1" stroke-linecap="butt" stroke-miterlimit="10" stroke-linejoin="miter" fill="none" stroke="#148aff" d="M 116.92175 49.9444 L 124.46309 51.0375 L 129.07688 58.3618 L 121.53554 56.97577 Z "/>
<path transform="matrix(1,0,0,-1,11.137,133.94899)" stroke-width="1" stroke-linecap="butt" stroke-miterlimit="10" stroke-linejoin="miter" fill="none" stroke="#b8dcff" d="M 77.084 10.47682 L 84.62534 9.51958 L 89.2391 14.59137 L 81.69777 15.25569 Z "/>
<path transform="matrix(1,0,0,-1,11.137,133.94899)" stroke-width="1" stroke-linecap="butt" stroke-miterlimit="10" stroke-linejoin="miter" fill="none" stroke="#2f97ff" d="M 112.30798 43.30672 L 119.84932 44.10692 L 124.46309 51.0375 L 116.92175 49.9444 Z "/>
<path transform="matrix(1,0,0,-1,11.137,133.94899)" stroke-width="1" stroke-linecap="butt" stroke-miterlimit="10" stroke-linejoin="miter" fill="none" stroke="#c9e4ff" d="M 72.47023 5.86389 L 80.01157 4.61377 L 84.62534 9.51958 L 77.084 10.47682 Z "/>
<path transform="matrix(1,0,0,-1,11.137,133.94899)" stroke-width="1" stroke-linecap="butt" stroke-miterlimit="10" stroke-linejoin="miter" fill="none" stroke="#48a4ff" d="M 107.69421 37.01631 L 115.23555 37.52362 L 119.84932 44.10692 L 112.30798 43.30672 Z "/>
<path transform="matrix(1,0,0,-1,11.137,133.94899)" stroke-width="1" stroke-linecap="butt" stroke-miterlimit="10" stroke-linejoin="miter" fill="none" stroke="#ae29ff" d="M 147.53195 92.7349 L 155.07329 95.29251 L 159.68706 105.80363 L 152.14572 102.95311 Z "/>
<path transform="matrix(1,0,0,-1,11.137,133.94899)" stroke-width="1" stroke-linecap="butt" stroke-miterlimit="10" stroke-linejoin="miter" fill="none" stroke="#d9ecff" d="M 67.85645 1.39714 L 75.39778 -.14589 L 80.01157 4.61377 L 72.47023 5.86389 Z "/>
<path transform="matrix(1,0,0,-1,11.137,133.94899)" stroke-width="1" stroke-linecap="butt" stroke-miterlimit="10" stroke-linejoin="miter" fill="none" stroke="#60b0ff" d="M 103.08044 31.03334 L 110.62178 31.24776 L 115.23555 37.52362 L 107.69421 37.01631 Z "/>
<path transform="matrix(1,0,0,-1,11.137,133.94899)" stroke-width="1" stroke-linecap="butt" stroke-miterlimit="10" stroke-linejoin="miter" fill="none" stroke="#853dff" d="M 142.91819 83.24728 L 150.45952 85.51201 L 155.07329 95.29251 L 147.53195 92.7349 Z "/>
<path transform="matrix(1,0,0,-1,11.137,133.94899)" stroke-width="1" stroke-linecap="butt" stroke-miterlimit="10" stroke-linejoin="miter" fill="none" stroke="#5f51ff" d="M 138.30442 74.40437 L 145.84575 76.37617 L 150.45952 85.51201 L 142.91819 83.24728 Z "/>
<path transform="matrix(1,0,0,-1,11.137,133.94899)" stroke-width="1" stroke-linecap="butt" stroke-miterlimit="10" stroke-linejoin="miter" fill="none" stroke="#e9f4ff" d="M 63.24268 -2.9399 L 70.78401 -4.77583 L 75.39778 -.14589 L 67.85645 1.39714 Z "/>
<path transform="matrix(1,0,0,-1,11.137,133.94899)" stroke-width="1" stroke-linecap="butt" stroke-miterlimit="10" stroke-linejoin="miter" fill="none" stroke="#76bbff" d="M 98.46666 25.32182 L 106.008 25.24332 L 110.62178 31.24776 L 103.08044 31.03334 Z "/>
<path transform="matrix(1,0,0,-1,11.137,133.94899)" stroke-width="1" stroke-linecap="butt" stroke-miterlimit="10" stroke-linejoin="miter" fill="none" stroke="#3b62ff" d="M 133.69065 66.13121 L 141.23198 67.8101 L 145.84575 76.37617 L 138.30442 74.40437 Z "/>
<path transform="matrix(1,0,0,-1,11.137,133.94899)" stroke-width="1" stroke-linecap="butt" stroke-miterlimit="10" stroke-linejoin="miter" fill="none" stroke="#f8fbff" d="M 58.6289 -7.16266 L 66.17024 -9.2915 L 70.78401 -4.77583 L 63.24268 -2.9399 Z "/>
<path transform="matrix(1,0,0,-1,11.137,133.94899)" stroke-width="1" stroke-linecap="butt" stroke-miterlimit="10" stroke-linejoin="miter" fill="none" stroke="#8bc5ff" d="M 93.85289 19.8507 L 101.39423 19.4793 L 106.008 25.24332 L 98.46666 25.32182 Z "/>
<path transform="matrix(1,0,0,-1,11.137,133.94899)" stroke-width="1" stroke-linecap="butt" stroke-miterlimit="10" stroke-linejoin="miter" fill="none" stroke="#1b73ff" d="M 129.07688 58.3618 L 136.61821 59.74779 L 141.23198 67.8101 L 133.69065 66.13121 Z "/>
<path transform="matrix(1,0,0,-1,11.137,133.94899)" stroke-width="1" stroke-linecap="butt" stroke-miterlimit="10" stroke-linejoin="miter" fill="none" stroke="#9fcfff" d="M 89.2391 14.59137 L 96.78044 13.92706 L 101.39423 19.4793 L 93.85289 19.8507 Z "/>
<path transform="matrix(1,0,0,-1,11.137,133.94899)" stroke-width="1" stroke-linecap="butt" stroke-miterlimit="10" stroke-linejoin="miter" fill="none" stroke="#0482ff" d="M 124.46309 51.0375 L 132.00443 52.1306 L 136.61821 59.74779 L 129.07688 58.3618 Z "/>
<path transform="matrix(1,0,0,-1,11.137,133.94899)" stroke-width="1" stroke-linecap="butt" stroke-miterlimit="10" stroke-linejoin="miter" fill="none" stroke="#b2d9ff" d="M 84.62534 9.51958 L 92.16667 8.56236 L 96.78044 13.92706 L 89.2391 14.59137 Z "/>
<path transform="matrix(1,0,0,-1,11.137,133.94899)" stroke-width="1" stroke-linecap="butt" stroke-miterlimit="10" stroke-linejoin="miter" fill="none" stroke="#2090ff" d="M 119.84932 44.10692 L 127.39066 44.9071 L 132.00443 52.1306 L 124.46309 51.0375 Z "/>
<path transform="matrix(1,0,0,-1,11.137,133.94899)" stroke-width="1" stroke-linecap="butt" stroke-miterlimit="10" stroke-linejoin="miter" fill="none" stroke="#c4e2ff" d="M 80.01157 4.61377 L 87.5529 3.36366 L 92.16667 8.56236 L 84.62534 9.51958 Z "/>
<path transform="matrix(1,0,0,-1,11.137,133.94899)" stroke-width="1" stroke-linecap="butt" stroke-miterlimit="10" stroke-linejoin="miter" fill="none" stroke="#3b9dff" d="M 115.23555 37.52362 L 122.77689 38.03091 L 127.39066 44.9071 L 119.84932 44.10692 Z "/>
<path transform="matrix(1,0,0,-1,11.137,133.94899)" stroke-width="1" stroke-linecap="butt" stroke-miterlimit="10" stroke-linejoin="miter" fill="none" stroke="#c51dff" d="M 155.07329 95.29251 L 162.61463 97.85014 L 167.2284 108.65416 L 159.68706 105.80363 Z "/>
<path transform="matrix(1,0,0,-1,11.137,133.94899)" stroke-width="1" stroke-linecap="butt" stroke-miterlimit="10" stroke-linejoin="miter" fill="none" stroke="#d6ebff" d="M 75.39778 -.14589 L 82.93912 -1.68889 L 87.5529 3.36366 L 80.01157 4.61377 Z "/>
<path transform="matrix(1,0,0,-1,11.137,133.94899)" stroke-width="1" stroke-linecap="butt" stroke-miterlimit="10" stroke-linejoin="miter" fill="none" stroke="#54aaff" d="M 110.62178 31.24776 L 118.16312 31.46213 L 122.77689 38.03091 L 115.23555 37.52362 Z "/>
<path transform="matrix(1,0,0,-1,11.137,133.94899)" stroke-width="1" stroke-linecap="butt" stroke-miterlimit="10" stroke-linejoin="miter" fill="none" stroke="#9a33ff" d="M 150.45952 85.51201 L 158.00086 87.77673 L 162.61463 97.85014 L 155.07329 95.29251 Z "/>
<path transform="matrix(1,0,0,-1,11.137,133.94899)" stroke-width="1" stroke-linecap="butt" stroke-miterlimit="10" stroke-linejoin="miter" fill="none" stroke="#e7f3ff" d="M 70.78401 -4.77583 L 78.32535 -6.61176 L 82.93912 -1.68889 L 75.39778 -.14589 Z "/>
<path transform="matrix(1,0,0,-1,11.137,133.94899)" stroke-width="1" stroke-linecap="butt" stroke-miterlimit="10" stroke-linejoin="miter" fill="none" stroke="#7346ff" d="M 145.84575 76.37617 L 153.38709 78.34799 L 158.00086 87.77673 L 150.45952 85.51201 Z "/>
<path transform="matrix(1,0,0,-1,11.137,133.94899)" stroke-width="1" stroke-linecap="butt" stroke-miterlimit="10" stroke-linejoin="miter" fill="none" stroke="#6cb6ff" d="M 106.008 25.24332 L 113.54933 25.1648 L 118.16312 31.46213 L 110.62178 31.24776 Z "/>
<path transform="matrix(1,0,0,-1,11.137,133.94899)" stroke-width="1" stroke-linecap="butt" stroke-miterlimit="10" stroke-linejoin="miter" fill="none" stroke="#4e59ff" d="M 141.23198 67.8101 L 148.77332 69.48904 L 153.38709 78.34799 L 145.84575 76.37617 Z "/>
<path transform="matrix(1,0,0,-1,11.137,133.94899)" stroke-width="1" stroke-linecap="butt" stroke-miterlimit="10" stroke-linejoin="miter" fill="none" stroke="#f7fbff" d="M 66.17024 -9.2915 L 73.71158 -11.42033 L 78.32535 -6.61176 L 70.78401 -4.77583 Z "/>
<path transform="matrix(1,0,0,-1,11.137,133.94899)" stroke-width="1" stroke-linecap="butt" stroke-miterlimit="10" stroke-linejoin="miter" fill="none" stroke="#82c1ff" d="M 101.39423 19.4793 L 108.93556 19.10788 L 113.54933 25.1648 L 106.008 25.24332 Z "/>
<path transform="matrix(1,0,0,-1,11.137,133.94899)" stroke-width="1" stroke-linecap="butt" stroke-miterlimit="10" stroke-linejoin="miter" fill="none" stroke="#2c6aff" d="M 136.61821 59.74779 L 144.15955 61.1338 L 148.77332 69.48904 L 141.23198 67.8101 Z "/>
<path transform="matrix(1,0,0,-1,11.137,133.94899)" stroke-width="1" stroke-linecap="butt" stroke-miterlimit="10" stroke-linejoin="miter" fill="none" stroke="#97cbff" d="M 96.78044 13.92706 L 104.32178 13.26274 L 108.93556 19.10788 L 101.39423 19.4793 Z "/>
<path transform="matrix(1,0,0,-1,11.137,133.94899)" stroke-width="1" stroke-linecap="butt" stroke-miterlimit="10" stroke-linejoin="miter" fill="none" stroke="#0c7aff" d="M 132.00443 52.1306 L 139.54576 53.22371 L 144.15955 61.1338 L 136.61821 59.74779 Z "/>
<path transform="matrix(1,0,0,-1,11.137,133.94899)" stroke-width="1" stroke-linecap="butt" stroke-miterlimit="10" stroke-linejoin="miter" fill="none" stroke="#acd6ff" d="M 92.16667 8.56236 L 99.70801 7.60515 L 104.32178 13.26274 L 96.78044 13.92706 Z "/>
<path transform="matrix(1,0,0,-1,11.137,133.94899)" stroke-width="1" stroke-linecap="butt" stroke-miterlimit="10" stroke-linejoin="miter" fill="none" stroke="#1289ff" d="M 127.39066 44.9071 L 134.93199 45.70732 L 139.54576 53.22371 L 132.00443 52.1306 Z "/>
<path transform="matrix(1,0,0,-1,11.137,133.94899)" stroke-width="1" stroke-linecap="butt" stroke-miterlimit="10" stroke-linejoin="miter" fill="none" stroke="#c0dfff" d="M 87.5529 3.36366 L 95.09424 2.11353 L 99.70801 7.60515 L 92.16667 8.56236 Z "/>
<path transform="matrix(1,0,0,-1,11.137,133.94899)" stroke-width="1" stroke-linecap="butt" stroke-miterlimit="10" stroke-linejoin="miter" fill="none" stroke="#2e97ff" d="M 122.77689 38.03091 L 130.31822 38.53821 L 134.93199 45.70732 L 127.39066 44.9071 Z "/>
<path transform="matrix(1,0,0,-1,11.137,133.94899)" stroke-width="1" stroke-linecap="butt" stroke-miterlimit="10" stroke-linejoin="miter" fill="none" stroke="#dc12ff" d="M 162.61463 97.85014 L 170.15598 100.40775 L 174.76975 111.50468 L 167.2284 108.65416 Z "/>
<path transform="matrix(1,0,0,-1,11.137,133.94899)" stroke-width="1" stroke-linecap="butt" stroke-miterlimit="10" stroke-linejoin="miter" fill="none" stroke="#d2e9ff" d="M 82.93912 -1.68889 L 90.48045 -3.23193 L 95.09424 2.11353 L 87.5529 3.36366 Z "/>
<path transform="matrix(1,0,0,-1,11.137,133.94899)" stroke-width="1" stroke-linecap="butt" stroke-miterlimit="10" stroke-linejoin="miter" fill="none" stroke="#48a4ff" d="M 118.16312 31.46213 L 125.70445 31.67654 L 130.31822 38.53821 L 122.77689 38.03091 Z "/>
<path transform="matrix(1,0,0,-1,11.137,133.94899)" stroke-width="1" stroke-linecap="butt" stroke-miterlimit="10" stroke-linejoin="miter" fill="none" stroke="#b028ff" d="M 158.00086 87.77673 L 165.5422 90.04143 L 170.15598 100.40775 L 162.61463 97.85014 Z "/>
<path transform="matrix(1,0,0,-1,11.137,133.94899)" stroke-width="1" stroke-linecap="butt" stroke-miterlimit="10" stroke-linejoin="miter" fill="none" stroke="#e5f2ff" d="M 78.32535 -6.61176 L 85.86668 -8.44771 L 90.48045 -3.23193 L 82.93912 -1.68889 Z "/>
<path transform="matrix(1,0,0,-1,11.137,133.94899)" stroke-width="1" stroke-linecap="butt" stroke-miterlimit="10" stroke-linejoin="miter" fill="none" stroke="#61b0ff" d="M 113.54933 25.1648 L 121.09067 25.08632 L 125.70445 31.67654 L 118.16312 31.46213 Z "/>
<path transform="matrix(1,0,0,-1,11.137,133.94899)" stroke-width="1" stroke-linecap="butt" stroke-miterlimit="10" stroke-linejoin="miter" fill="none" stroke="#873cff" d="M 153.38709 78.34799 L 160.92844 80.31981 L 165.5422 90.04143 L 158.00086 87.77673 Z "/>
<path transform="matrix(1,0,0,-1,11.137,133.94899)" stroke-width="1" stroke-linecap="butt" stroke-miterlimit="10" stroke-linejoin="miter" fill="none" stroke="#f6fbff" d="M 73.71158 -11.42033 L 81.25291 -13.54916 L 85.86668 -8.44771 L 78.32535 -6.61176 Z "/>
<path transform="matrix(1,0,0,-1,11.137,133.94899)" stroke-width="1" stroke-linecap="butt" stroke-miterlimit="10" stroke-linejoin="miter" fill="none" stroke="#614fff" d="M 148.77332 69.48904 L 156.31467 71.16794 L 160.92844 80.31981 L 153.38709 78.34799 Z "/>
<path transform="matrix(1,0,0,-1,11.137,133.94899)" stroke-width="1" stroke-linecap="butt" stroke-miterlimit="10" stroke-linejoin="miter" fill="none" stroke="#79bcff" d="M 108.93556 19.10788 L 116.4769 18.73647 L 121.09067 25.08632 L 113.54933 25.1648 Z "/>
<path transform="matrix(1,0,0,-1,11.137,133.94899)" stroke-width="1" stroke-linecap="butt" stroke-miterlimit="10" stroke-linejoin="miter" fill="none" stroke="#3d61ff" d="M 144.15955 61.1338 L 151.7009 62.5198 L 156.31467 71.16794 L 148.77332 69.48904 Z "/>
<path transform="matrix(1,0,0,-1,11.137,133.94899)" stroke-width="1" stroke-linecap="butt" stroke-miterlimit="10" stroke-linejoin="miter" fill="none" stroke="#90c8ff" d="M 104.32178 13.26274 L 111.86311 12.59843 L 116.4769 18.73647 L 108.93556 19.10788 Z "/>
<path transform="matrix(1,0,0,-1,11.137,133.94899)" stroke-width="1" stroke-linecap="butt" stroke-miterlimit="10" stroke-linejoin="miter" fill="none" stroke="#1c72ff" d="M 139.54576 53.22371 L 147.08712 54.31682 L 151.7009 62.5198 L 144.15955 61.1338 Z "/>
<path transform="matrix(1,0,0,-1,11.137,133.94899)" stroke-width="1" stroke-linecap="butt" stroke-miterlimit="10" stroke-linejoin="miter" fill="none" stroke="#a6d3ff" d="M 99.70801 7.60515 L 107.24934 6.64793 L 111.86311 12.59843 L 104.32178 13.26274 Z "/>
<path transform="matrix(1,0,0,-1,11.137,133.94899)" stroke-width="1" stroke-linecap="butt" stroke-miterlimit="10" stroke-linejoin="miter" fill="none" stroke="#0381ff" d="M 134.93199 45.70732 L 142.47335 46.50752 L 147.08712 54.31682 L 139.54576 53.22371 Z "/>
<path transform="matrix(1,0,0,-1,11.137,133.94899)" stroke-width="1" stroke-linecap="butt" stroke-miterlimit="10" stroke-linejoin="miter" fill="none" stroke="#bbddff" d="M 95.09424 2.11353 L 102.63557 .8634 L 107.24934 6.64793 L 99.70801 7.60515 Z "/>
<path transform="matrix(1,0,0,-1,11.137,133.94899)" stroke-width="1" stroke-linecap="butt" stroke-miterlimit="10" stroke-linejoin="miter" fill="none" stroke="#2090ff" d="M 130.31822 38.53821 L 137.85958 39.04552 L 142.47335 46.50752 L 134.93199 45.70732 Z "/>
<path transform="matrix(1,0,0,-1,11.137,133.94899)" stroke-width="1" stroke-linecap="butt" stroke-miterlimit="10" stroke-linejoin="miter" fill="none" stroke="#cfe7ff" d="M 90.48045 -3.23193 L 98.02179 -4.77495 L 102.63557 .8634 L 95.09424 2.11353 Z "/>
<path transform="matrix(1,0,0,-1,11.137,133.94899)" stroke-width="1" stroke-linecap="butt" stroke-miterlimit="10" stroke-linejoin="miter" fill="none" stroke="#3c9eff" d="M 125.70445 31.67654 L 133.2458 31.89091 L 137.85958 39.04552 L 130.31822 38.53821 Z "/>
<path transform="matrix(1,0,0,-1,11.137,133.94899)" stroke-width="1" stroke-linecap="butt" stroke-miterlimit="10" stroke-linejoin="miter" fill="none" stroke="#e3f1ff" d="M 85.86668 -8.44771 L 93.40802 -10.28362 L 98.02179 -4.77495 L 90.48045 -3.23193 Z "/>
<path transform="matrix(1,0,0,-1,11.137,133.94899)" stroke-width="1" stroke-linecap="butt" stroke-miterlimit="10" stroke-linejoin="miter" fill="none" stroke="#57abff" d="M 121.09067 25.08632 L 128.63202 25.0078 L 133.2458 31.89091 L 125.70445 31.67654 Z "/>
<path transform="matrix(1,0,0,-1,11.137,133.94899)" stroke-width="1" stroke-linecap="butt" stroke-miterlimit="10" stroke-linejoin="miter" fill="none" stroke="#f6faff" d="M 81.25291 -13.54916 L 88.79425 -15.678 L 93.40802 -10.28362 L 85.86668 -8.44771 Z "/>
<path transform="matrix(1,0,0,-1,11.137,133.94899)" stroke-width="1" stroke-linecap="butt" stroke-miterlimit="10" stroke-linejoin="miter" fill="none" stroke="#70b8ff" d="M 116.4769 18.73647 L 124.01825 18.36505 L 128.63202 25.0078 L 121.09067 25.08632 Z "/>
<path transform="matrix(1,0,0,-1,11.137,133.94899)" stroke-width="1" stroke-linecap="butt" stroke-miterlimit="10" stroke-linejoin="miter" fill="none" stroke="#88c4ff" d="M 111.86311 12.59843 L 119.40446 11.93411 L 124.01825 18.36505 L 116.4769 18.73647 Z "/>
<path transform="matrix(1,0,0,-1,11.137,133.94899)" stroke-width="1" stroke-linecap="butt" stroke-miterlimit="10" stroke-linejoin="miter" fill="none" stroke="#9fcfff" d="M 107.24934 6.64793 L 114.7907 5.69072 L 119.40446 11.93411 L 111.86311 12.59843 Z "/>
<path transform="matrix(1,0,0,-1,11.137,133.94899)" stroke-width="1" stroke-linecap="butt" stroke-miterlimit="10" stroke-linejoin="miter" fill="none" stroke="#b6dbff" d="M 102.63557 .8634 L 110.17693 -.3867 L 114.7907 5.69072 L 107.24934 6.64793 Z "/>
<path transform="matrix(1,0,0,-1,11.137,133.94899)" stroke-width="1" stroke-linecap="butt" stroke-miterlimit="10" stroke-linejoin="miter" fill="none" stroke="#cbe5ff" d="M 98.02179 -4.77495 L 105.56314 -6.31798 L 110.17693 -.3867 L 102.63557 .8634 Z "/>
<path transform="matrix(1,0,0,-1,11.137,133.94899)" stroke-width="1" stroke-linecap="butt" stroke-miterlimit="10" stroke-linejoin="miter" fill="none" stroke="#e0f0ff" d="M 93.40802 -10.28362 L 100.94937 -12.11954 L 105.56314 -6.31798 L 98.02179 -4.77495 Z "/>
<path transform="matrix(1,0,0,-1,11.137,133.94899)" stroke-width="1" stroke-linecap="butt" stroke-miterlimit="10" stroke-linejoin="miter" fill="none" stroke="#f5faff" d="M 88.79425 -15.678 L 96.3356 -17.80682 L 100.94937 -12.11954 L 93.40802 -10.28362 Z "/>
<path transform="matrix(1,0,0,-1,11.137,133.94899)" stroke-width="1.19553" stroke-linecap="butt" stroke-miterlimit="10" stroke-linejoin="miter" fill="none" stroke="#000080" d="M 106.32613 31.68163 L 108.29184 34.25276 L 110.25754 36.8769 L 112.22325 39.55629 L 114.18896 42.29451 L 116.15468 45.0941 L 118.12038 47.95827 L 120.08609 50.89108 L 122.05182 53.89505 L 124.01752 56.97574 L 125.98323 60.13628 L 127.94894 63.38156 L 129.91466 66.71553 L 131.88036 70.1427 L 133.84607 73.66928 L 135.8118 77.29941 L 137.7775 81.03983 L 139.74321 84.8961 L 141.70893 88.87352 L 143.67464 92.97963 "/>
<path transform="matrix(1,0,0,-1,11.137,133.94899)" stroke-width="1.19553" stroke-linecap="butt" stroke-miterlimit="10" stroke-linejoin="miter" fill="none" stroke="#000080" d="M 127.37175 32.35782 L 129.33745 35.2772 L 131.30316 38.2496 L 133.26886 41.27722 L 135.23459 44.36372 L 137.2003 47.51158 L 139.166 50.724 L 141.13172 54.00507 L 143.09743 57.3573 L 145.06314 60.78625 L 147.02884 64.29506 L 148.99457 67.88858 L 150.96028 71.5708 L 152.92598 75.34624 L 154.8917 79.22108 L 156.8574 83.19946 L 158.82312 87.28813 L 160.78882 91.49269 L 162.75455 95.81834 L 164.72026 100.27272 "/>
<path transform="matrix(1,0,0,-1,11.137,133.94899)" stroke-width="1.19553" stroke-linecap="butt" stroke-miterlimit="10" stroke-linejoin="miter" fill="none" stroke="#000080" d="M 106.32613 31.68163 L 107.43375 31.71724 L 108.54137 31.75282 L 109.649 31.7884 L 110.75664 31.82399 L 111.86426 31.85959 L 112.97188 31.89516 L 114.07951 31.93076 L 115.18715 31.96635 L 116.29477 32.00194 L 117.40239 32.0375 L 118.51003 32.07309 L 119.61766 32.1087 L 120.72527 32.14429 L 121.8329 32.17986 L 122.94054 32.21545 L 124.04817 32.25105 L 125.15579 32.28664 L 126.26341 32.3222 L 127.37105 32.3578 "/>
<path transform="matrix(1,0,0,-1,11.137,133.94899)" stroke-width="1.19553" stroke-linecap="butt" stroke-miterlimit="10" stroke-linejoin="miter" fill="none" stroke="#000080" d="M 143.67588 92.98364 L 144.78348 93.36752 L 145.89112 93.75134 L 146.99875 94.1352 L 148.10637 94.51904 L 149.21399 94.9029 L 150.32163 95.28673 L 151.42926 95.67058 L 152.53688 96.05443 L 153.6445 96.43828 L 154.75214 96.82211 L 155.85977 97.20596 L 156.96739 97.58981 L 158.07501 97.97366 L 159.18265 98.3575 L 160.29029 98.74135 L 161.3979 99.1252 L 162.50554 99.50905 L 163.61316 99.89287 L 164.72078 100.27673 "/>
<path transform="matrix(1,0,0,-1,11.137,133.94899)" stroke-width="1" stroke-linecap="butt" stroke-dasharray="2.98883,2.98883" stroke-miterlimit="10" stroke-linejoin="miter" fill="none" stroke="#000080" d="M 106.32613 -6.15668 L 106.32613 31.56088 M 143.67588 4.3874 L 143.67588 93.05678 M 164.72148 -1.55351 L 164.72148 100.35008 M 127.37175 -12.09761 L 127.37175 32.23706 "/>
</g>
<symbol id="font_2_2">
<path d="M .201 .116000007 C .19100002 .082 .15800002 .028 .107 .028 C .10400001 .028 .07400001 .028 .053000004 .042000005 C .094000007 .055000005 .09700001 .091 .09700001 .097 C .09700001 .119 .080000009 .134 .057000005 .134 C .029000007 .134 0 .11 0 .073 C 0 .023000002 .056 0 .10500001 0 C .15100003 0 .192 .029000003 .21700001 .071 C .241 .018000002 .296 0 .336 0 C .451 0 .512 .125 .512 .15300001 C .512 .16600001 .49900005 .16600001 .49600003 .16600001 C .48200003 .16600001 .48100005 .16100002 .47700004 .14900002 C .456 .08 .39600004 .028 .34 .028 C .3 .028 .279 .055000005 .279 .093 C .279 .119 .303 .21000001 .331 .321 C .351 .398 .39600004 .423 .42900003 .423 C .43100003 .423 .46200005 .423 .483 .409 C .451 .4 .439 .372 .439 .354 C .439 .33200003 .456 .317 .479 .317 C .50200006 .317 .535 .336 .535 .37800003 C .535 .43400003 .47100006 .451 .43100003 .451 C .381 .451 .34100003 .418 .319 .38 C .301 .421 .255 .451 .199 .451 C .087000008 .451 .023000002 .328 .023000002 .298 C .023000002 .285 .037 .285 .040000008 .285 C .053000004 .285 .054000006 .289 .059000009 .30200003 C .084 .38 .14700002 .423 .19600001 .423 C .229 .423 .256 .405 .256 .357 C .256 .337 .24400002 .287 .23500002 .25300003 L .201 .116000007 Z "/>
</symbol>
<use xlink:href="#font_2_2" transform="matrix(6.9738,0,0,-6.9738,108.75974,165.11673)"/>
<symbol id="font_2_3">
<path d="M .50900009 .58100005 C .513 .595 .513 .597 .513 .60300007 C .513 .623 .49700005 .63500007 .48000003 .63500007 C .46900005 .63500007 .45000003 .63000008 .43900005 .611 C .43600003 .605 .42800004 .573 .42300005 .55300006 L .40200005 .47000004 C .39600004 .44600005 .36500005 .32000003 .36200003 .30900003 C .36100004 .30900003 .31700004 .22200002 .23900001 .22200002 C .171 .22200002 .171 .287 .171 .305 C .171 .35900004 .194 .42200003 .22400002 .499 C .23600002 .531 .24100001 .54300007 .24100001 .56 C .24100001 .60800006 .2 .64500007 .146 .64500007 C .045000007 .64500007 0 .509 0 .49200005 C 0 .47900004 .014000002 .47900004 .017 .47900004 C .031 .47900004 .032 .48400004 .035 .495 C .060000007 .578 .103 .61700007 .143 .61700007 C .16000001 .61700007 .168 .606 .168 .582 C .168 .559 .15900001 .537 .154 .52400007 C .106000009 .402 .096 .365 .096 .321 C .096 .30400003 .096 .25700004 .135 .22500001 C .16600001 .19900002 .20800002 .194 .235 .194 C .27500005 .194 .31100003 .209 .34400005 .23900001 C .33100004 .18400002 .32000003 .142 .27800004 .09200001 C .25100003 .061000006 .21100001 .027999998 .158 .027999998 C .15100001 .027999998 .104 .027999998 .083000008 .061000006 C .13700001 .067 .13700001 .11500001 .13700001 .116000007 C .13700001 .148 .107999999 .15400002 .098000008 .15400002 C .073 .15400002 .040000004 .134 .040000004 .08800001 C .040000004 .037 .088 0 .15900001 0 C .26000003 0 .38300003 .07800001 .41400004 .20300001 L .50900009 .58100005 Z "/>
</symbol>
<use xlink:href="#font_2_3" transform="matrix(6.9738,0,0,-6.9738,113.512767,111.701648)"/>
<symbol id="font_2_4">
<path d="M .10700001 .098000008 C .133 .124000009 .15100001 .143 .23600002 .21100001 C .25700004 .22800002 .33200003 .28800003 .361 .316 C .422 .37600003 .46000005 .42700003 .46000005 .439 C .46000005 .451 .44700004 .451 .44300003 .451 C .43400003 .451 .431 .449 .426 .441 C .39500005 .395 .374 .38 .35000003 .38 C .338 .38 .323 .381 .29299999 .41 C .259 .444 .237 .451 .214 .451 C .134 .451 .08 .364 .08 .334 C .08 .32500003 .09 .322 .097 .322 C .109 .322 .111 .32500003 .11500001 .336 C .13000001 .37100003 .186 .373 .202 .373 C .22500001 .373 .251 .367 .265 .364 C .32 .352 .32700003 .352 .352 .352 C .32600004 .32500003 .30800004 .307 .21300002 .23100002 C .135 .16900002 .10800001 .14400001 .089 .124000009 C .029 .065000008 0 .021000002 0 .012000001 C 0 0 .012999997 0 .016999998 0 C .027000003 0 .029 .0020000004 .034 .010000001 C .061000006 .048000006 .09200001 .071 .126 .071 C .13800001 .071 .15300001 .07 .18 .045 C .21100001 .015000001 .23100002 0 .263 0 C .37 0 .43700005 .12100001 .43700005 .15500002 C .43700005 .16700001 .426 .16800002 .42000003 .16800002 C .408 .16800002 .40600003 .16300002 .402 .15200001 C .38300003 .102000009 .324 .078 .27500005 .078 C .25200004 .078 .22700002 .083000008 .202 .089 C .156 .099 .148 .099 .13000001 .099 C .128 .099 .113000009 .099 .10700001 .098000008 Z "/>
</symbol>
<use xlink:href="#font_2_4" transform="matrix(6.9738,0,0,-6.9738,15.355402,24.540732)"/>
</svg>
