<?xml version="1.0" encoding="UTF-8" standalone="no"?>
<!DOCTYPE svg PUBLIC "-//W3C//DTD SVG 1.1//EN" "http://www.w3.org/Graphics/SVG/1.1/DTD/svg11.dtd">
<svg xmlns="http://www.w3.org/2000/svg" xmlns:xlink="http://www.w3.org/1999/xlink" version="1.1" width="198.819pt" height="165.579pt" viewBox="0 0 198.819 165.579">
<path transform="matrix(1,0,0,-1,71.09,111.99799)" stroke-width="1" stroke-linecap="butt" stroke-miterlimit="10" stroke-linejoin="miter" fill="none" stroke="#808080" d="M -27.38397 -14.81477 L -23.18419 -15.48364 M -57.00502 -28.96935 L -52.80525 -29.63821 "/>
<path transform="matrix(1,0,0,-1,71.09,111.99799)" stroke-width="1" stroke-linecap="butt" stroke-miterlimit="10" stroke-linejoin="miter" fill="none" stroke="#808080" d="M 57.56111 -8.24907 L 53.72467 -10.08235 M 108.86703 -16.42014 L 105.03058 -18.25342 "/>
<path transform="matrix(1,0,0,-1,71.09,111.99799)" stroke-width="1" stroke-linecap="butt" stroke-miterlimit="10" stroke-linejoin="miter" fill="none" stroke="#000000" d="M 10.26117 1.83624 L -59.02605 -31.27306 "/>
<path transform="matrix(-.90503,.43243,.43243,.90503,12.063946,143.27106)" d="M 1.99252 0 L -1.19551 1.59401 L 0 0 L -1.19551 -1.59401 "/>
<path transform="matrix(1,0,0,-1,71.09,111.99799)" stroke-width="1" stroke-linecap="butt" stroke-miterlimit="10" stroke-linejoin="miter" fill="none" stroke="#000000" d="M -5.92421 .63954 L 115.2395 -18.65721 "/>
<path transform="matrix(.98894,.15749,.15749,-.98894,186.3295,130.6552)" d="M 1.99252 0 L -1.19551 1.59401 L 0 0 L -1.19551 -1.59401 "/>
<symbol id="font_0_1">
<path d="M .46400006 .33900003 C .46400006 .44900004 .45100004 .528 .40500004 .598 C .374 .644 .31200005 .684 .23200001 .684 C 0 .684 0 .41100005 0 .33900003 C 0 .26700003 0 0 .23200001 0 C .46400006 0 .46400006 .26700003 .46400006 .33900003 M .23200001 .028 C .186 .028 .125 .055 .105000007 .13700001 C .091000009 .19600001 .091000009 .27800004 .091000009 .35200004 C .091000009 .42500005 .091000009 .50100007 .106000009 .556 C .127 .635 .19100002 .656 .23200001 .656 C .286 .656 .338 .623 .356 .565 C .37200005 .51100006 .37300004 .43900005 .37300004 .35200004 C .37300004 .27800004 .37300004 .20400001 .36 .141 C .34000004 .050000006 .272 .028 .23200001 .028 Z "/>
</symbol>
<use xlink:href="#font_0_1" transform="matrix(6.9738,0,0,-6.9738,45.188634,136.22148)"/>
<symbol id="font_1_1">
<path d="M .11500001 .057000005 C .11500001 .093 .08500001 .115 .058 .115 C .025000006 .115 0 .08800001 0 .058000003 C 0 .022000002 .030000002 0 .05700001 0 C .09 0 .11500001 .027 .11500001 .057000005 Z "/>
</symbol>
<use xlink:href="#font_1_1" transform="matrix(6.9738,0,0,-6.9738,49.578065,136.082)"/>
<symbol id="font_0_5">
<path d="M .092 .578 C .143 .565 .17300001 .565 .18900001 .565 C .321 .565 .39900003 .65500006 .39900003 .67 C .39900003 .681 .39200003 .684 .38700003 .684 C .38500003 .684 .38300003 .684 .37900005 .681 C .35500003 .672 .30200003 .652 .22800002 .652 C .20000002 .652 .14700002 .654 .08200001 .679 C .072000008 .684 .07 .684 .069 .684 C .056 .684 .056 .67300006 .056 .657 L .056 .36200003 C .056 .34500004 .056 .33300004 .072000008 .33300004 C .08100001 .33300004 .08200001 .33500005 .092 .34700004 C .13500002 .40200005 .19600001 .41000004 .231 .41000004 C .291 .41000004 .31800003 .36200003 .323 .35400004 C .34100003 .32100005 .34700004 .28300003 .34700004 .22500001 C .34700004 .19500001 .34700004 .136 .31700004 .09200001 C .29200004 .056 .24900002 .032 .20000002 .032 C .13500002 .032 .06800001 .068 .043000007 .134 C .08100001 .13100001 .1 .156 .1 .183 C .1 .22600001 .063 .23400001 .050000006 .23400001 C .048000009 .23400001 0 .23400001 0 .18 C 0 .09 .08200001 0 .20200002 0 C .33 0 .442 .095000009 .442 .221 C .442 .33400003 .35600005 .43800003 .23200003 .43800003 C .18800003 .43800003 .136 .42700003 .092 .38900004 L .092 .578 Z "/>
</symbol>
<use xlink:href="#font_0_5" transform="matrix(6.9738,0,0,-6.9738,51.60235,136.22148)"/>
<symbol id="font_0_2">
<path d="M .22600001 .63600006 C .22600001 .66300007 .224 .66400006 .19600001 .66400006 C .132 .601 .041 .6 0 .6 L 0 .564 C .023999997 .564 .09000001 .564 .14500001 .592 L .14500001 .082 C .14500001 .049000004 .14500001 .036000004 .04500001 .036000004 L .0069999995 .036000004 L .0069999995 0 C .024999999 .001 .148 .004 .185 .004 C .21600002 .004 .34200005 .001 .36400003 0 L .36400003 .036000004 L .32600004 .036000004 C .22600001 .036000004 .22600001 .049000004 .22600001 .082 L .22600001 .63600006 Z "/>
</symbol>
<use xlink:href="#font_0_2" transform="matrix(6.9738,0,0,-6.9738,18.186139,149.176)"/>
<use xlink:href="#font_0_1" transform="matrix(6.9738,0,0,-6.9738,120.75064,129.37248)"/>
<use xlink:href="#font_1_1" transform="matrix(6.9738,0,0,-6.9738,125.14107,129.233)"/>
<use xlink:href="#font_0_5" transform="matrix(6.9738,0,0,-6.9738,127.165348,129.37248)"/>
<use xlink:href="#font_0_2" transform="matrix(6.9738,0,0,-6.9738,175.83914,136.93399)"/>
<path transform="matrix(1,0,0,-1,71.09,111.99799)" stroke-width="1" stroke-linecap="butt" stroke-miterlimit="10" stroke-linejoin="miter" fill="none" stroke="#808080" d="M 55.64288 -11.29178 L 55.64288 -7.03967 M 106.94879 -19.46284 L 106.94879 -15.21074 "/>
<path transform="matrix(1,0,0,-1,71.09,111.99799)" stroke-width="1" stroke-linecap="butt" stroke-miterlimit="10" stroke-linejoin="miter" fill="none" stroke="#808080" d="M 2.23708 34.04437 L 6.43684 33.37549 M 2.23708 68.74896 L 6.43684 68.0801 M 2.23708 103.45355 L 6.43684 102.78468 "/>
<path transform="matrix(1,0,0,-1,71.09,111.99799)" stroke-width="1" stroke-linecap="butt" stroke-miterlimit="10" stroke-linejoin="miter" fill="none" stroke="#000000" d="M 4.33696 -4.46512 L 4.33696 101.12659 "/>
<path transform="matrix(0,-1,-1,-0,75.426959,10.871407)" d="M 1.99252 0 L -1.19551 1.59401 L 0 0 L -1.19551 -1.59401 "/>
<use xlink:href="#font_0_2" transform="matrix(6.9738,0,0,-6.9738,66.52214,81.909)"/>
<symbol id="font_0_3">
<path d="M .442 .18200001 L .40800003 .18200001 C .40500004 .16000001 .39500005 .101 .38200004 .091000009 C .374 .085 .29700003 .085 .28300003 .085 L .099 .085 C .20400003 .178 .23900002 .20600002 .29900003 .25300003 C .37300004 .312 .442 .374 .442 .469 C .442 .59000006 .33600004 .66400006 .20800004 .66400006 C .084 .66400006 0 .577 0 .485 C 0 .43400003 .043000007 .42900003 .053000004 .42900003 C .077 .42900003 .10600001 .446 .10600001 .48200003 C .10600001 .5 .099 .535 .047000007 .535 C .078 .606 .146 .628 .19300002 .628 C .293 .628 .34500004 .55 .34500004 .469 C .34500004 .38200004 .28300003 .31300003 .25100003 .277 L .010000005 .039 C 0 .030000002 0 .028 0 0 L .41200004 0 L .442 .18200001 Z "/>
</symbol>
<use xlink:href="#font_0_3" transform="matrix(6.9738,0,0,-6.9738,66.20134,47.204996)"/>
<symbol id="font_0_4">
<path d="M .219 .35400004 C .29700003 .35400004 .35300002 .3 .35300002 .193 C .35300002 .069000009 .28100003 .032 .223 .032 C .18300002 .032 .095 .043000007 .053000008 .102000009 C .10000001 .10400001 .111 .13700001 .111 .158 C .111 .19 .087 .213 .056000007 .213 C .028 .213 0 .19600001 0 .155 C 0 .061000006 .104 0 .22500001 0 C .36400003 0 .46 .09300001 .46 .193 C .46 .27100004 .39600004 .34900005 .286 .37200005 C .39100004 .41000004 .42900003 .48500005 .42900003 .546 C .42900003 .625 .33800004 .684 .22700002 .684 C .116 .684 .031 .63 .031 .55 C .031 .51600006 .053000008 .49700005 .083000008 .49700005 C .11400001 .49700005 .134 .52 .134 .548 C .134 .577 .11400001 .598 .083000008 .6 C .118 .644 .187 .65500006 .22400002 .65500006 C .26900003 .65500006 .33200003 .633 .33200003 .546 C .33200003 .504 .31800003 .45800004 .29200004 .42700003 C .25900004 .38900004 .23100002 .38700003 .18100001 .38400004 C .156 .38200004 .154 .38200004 .149 .38100005 C .147 .38100005 .139 .37900005 .139 .36800004 C .139 .35400004 .148 .35400004 .165 .35400004 L .219 .35400004 Z "/>
</symbol>
<use xlink:href="#font_0_4" transform="matrix(6.9738,0,0,-6.9738,66.13858,12.640468)"/>
<path transform="matrix(1,0,0,-1,71.09,111.99799)" stroke-width="1" stroke-linecap="butt" stroke-miterlimit="10" stroke-linejoin="miter" fill="none" stroke="#808080" d="M -25.28407 -17.27528 L -25.28407 -13.02318 M -54.90514 -31.42984 L -54.90514 -27.17773 "/>
<path transform="matrix(1,0,0,-1,71.09,111.99799)" stroke-width="1" stroke-linecap="butt" stroke-miterlimit="10" stroke-linejoin="miter" fill="none" stroke="#808080" d="M 6.2552 34.62657 L 2.41875 32.79329 M 6.2552 69.33116 L 2.41875 67.49788 M 6.2552 104.03577 L 2.41875 102.20248 "/>
<clipPath id="cp2">
<path transform="matrix(1,0,0,-1,71.09,111.99799)" d="M -71.09053 -33.97095 L -71.09053 73.6133 L 0 107.58424 L 123.13419 87.9737 L 123.13419 -19.61055 L 52.04366 -53.5815 Z "/>
</clipPath>
<g clip-path="url(#cp2)">
<path transform="matrix(1,0,0,-1,71.09,111.99799)" stroke-width="1.59404" stroke-linecap="butt" stroke-miterlimit="10" stroke-linejoin="miter" fill="none" stroke="#000080" d="M 4.33696 -.99466 L -54.90514 -29.30379 L 47.7067 -45.6459 L 106.94879 -17.33679 Z "/>
<symbol id="font_1_2">
<path d="M .342 .633 C .349 .661 .351 .66400006 .37300004 .667 L .437 .667 C .53000006 .667 .64500007 .667 .64500007 .564 C .64500007 .523 .62600007 .46000005 .57900008 .42400003 C .53800007 .39200003 .47600005 .37600003 .407 .37600003 L .278 .37600003 L .342 .633 M .52300009 .36 C .6420001 .38800005 .7480001 .46000005 .7480001 .549 C .7480001 .635 .646 .703 .50100007 .703 L .194 .703 C .17500001 .703 .162 .703 .162 .681 C .162 .667 .174 .667 .194 .667 C .195 .667 .21400002 .667 .232 .665 C .253 .663 .255 .661 .255 .651 C .255 .649 .255 .644 .25100003 .629 L .11800001 .098000008 C .11000001 .064 .108 .056 .030000002 .056 C .013000004 .056 0 .056 0 .035000005 C 0 .025000003 .0069999995 .020000002 .016000003 .020000002 C .035000005 .020000002 .058000007 .023000002 .078 .023000002 C .09700001 .023000002 .12600002 .024000003 .144 .024000003 C .164 .024000003 .187 .023000002 .208 .023000002 C .229 .023000002 .254 .020000002 .275 .020000002 C .28 .020000002 .296 .020000002 .296 .041 C .296 .056 .286 .056 .263 .056 C .24700001 .056 .243 .056 .225 .058000007 C .20300001 .061000006 .20300001 .063 .20300001 .07300001 C .20300001 .074 .20300001 .080000009 .20700002 .095000009 L .27 .34800003 L .40600003 .34800003 C .492 .34800003 .52900007 .30500005 .52900007 .25800003 C .52900007 .245 .52000007 .21100001 .51500007 .18800001 C .503 .142 .49900005 .127 .49900005 .11000001 C .49900005 .031000004 .572 0 .646 0 C .73800006 0 .77800008 .098000008 .77800008 .116000007 C .77800008 .11900001 .7760001 .13000001 .76100006 .13000001 C .7480001 .13000001 .74600008 .12300001 .74300006 .113000009 C .72900006 .069000009 .69200006 .028 .65000006 .028 C .6240001 .028 .6050001 .039000006 .6050001 .09300001 C .6050001 .11800001 .61100009 .17 .61500009 .197 C .6190001 .224 .6190001 .23400001 .6190001 .244 C .6190001 .256 .6190001 .28800003 .5910001 .31800003 C .572 .33900003 .5450001 .35200004 .52300009 .36 Z "/>
</symbol>
<use xlink:href="#font_1_2" transform="matrix(6.9738,0,0,-6.9738,94.587139,137.84047)"/>
<path transform="matrix(1,0,0,-1,71.09,111.99799)" stroke-width="1" stroke-linecap="butt" stroke-miterlimit="10" stroke-linejoin="miter" fill="none" stroke="#f7fbff" d="M 4.33696 -.99466 L -.59984 -.4617 L 5.43607 -1.4088 L 10.37288 -1.95593 Z "/>
<path transform="matrix(1,0,0,-1,71.09,111.99799)" stroke-width="1" stroke-linecap="butt" stroke-miterlimit="10" stroke-linejoin="miter" fill="none" stroke="#f7fbff" d="M 10.37288 -1.95593 L 5.43607 -1.4088 L 11.47202 -2.35577 L 16.40883 -2.91724 Z "/>
<path transform="matrix(1,0,0,-1,71.09,111.99799)" stroke-width="1" stroke-linecap="butt" stroke-miterlimit="10" stroke-linejoin="miter" fill="none" stroke="#f7fbff" d="M 16.40883 -2.91724 L 11.47202 -2.35577 L 17.50795 -3.30273 L 22.44476 -3.87854 Z "/>
<path transform="matrix(1,0,0,-1,71.09,111.99799)" stroke-width="1" stroke-linecap="butt" stroke-miterlimit="10" stroke-linejoin="miter" fill="none" stroke="#f7fbff" d="M 22.44476 -3.87854 L 17.50795 -3.30273 L 23.54388 -4.24963 L 28.4807 -4.83981 Z "/>
<path transform="matrix(1,0,0,-1,71.09,111.99799)" stroke-width="1" stroke-linecap="butt" stroke-miterlimit="10" stroke-linejoin="miter" fill="none" stroke="#f7fbff" d="M 28.4807 -4.83981 L 23.54388 -4.24963 L 29.57982 -5.19644 L 34.51663 -5.80112 Z "/>
<path transform="matrix(1,0,0,-1,71.09,111.99799)" stroke-width="1" stroke-linecap="butt" stroke-miterlimit="10" stroke-linejoin="miter" fill="none" stroke="#f7fbff" d="M 34.51663 -5.80112 L 29.57982 -5.19644 L 35.61575 -6.14313 L 40.55257 -6.7624 Z "/>
<path transform="matrix(1,0,0,-1,71.09,111.99799)" stroke-width="1" stroke-linecap="butt" stroke-miterlimit="10" stroke-linejoin="miter" fill="none" stroke="#e7f3ff" d="M -.59984 -.4617 L -5.53667 .07123 L .49924 -.833 L 5.43607 -1.4088 Z "/>
<path transform="matrix(1,0,0,-1,71.09,111.99799)" stroke-width="1" stroke-linecap="butt" stroke-miterlimit="10" stroke-linejoin="miter" fill="none" stroke="#f7fbff" d="M 40.55257 -6.7624 L 35.61575 -6.14313 L 41.6517 -7.08981 L 46.5885 -7.72371 Z "/>
<path transform="matrix(1,0,0,-1,71.09,111.99799)" stroke-width="1" stroke-linecap="butt" stroke-miterlimit="10" stroke-linejoin="miter" fill="none" stroke="#e7f3ff" d="M 5.43607 -1.4088 L .49924 -.833 L 6.53519 -1.73686 L 11.47202 -2.35577 Z "/>
<path transform="matrix(1,0,0,-1,71.09,111.99799)" stroke-width="1" stroke-linecap="butt" stroke-miterlimit="10" stroke-linejoin="miter" fill="none" stroke="#f7fbff" d="M 46.5885 -7.72371 L 41.6517 -7.08981 L 47.68762 -8.0364 L 52.62444 -8.68498 Z "/>
<path transform="matrix(1,0,0,-1,71.09,111.99799)" stroke-width="1" stroke-linecap="butt" stroke-miterlimit="10" stroke-linejoin="miter" fill="none" stroke="#e7f3ff" d="M 11.47202 -2.35577 L 6.53519 -1.73686 L 12.57112 -2.63998 L 17.50795 -3.30273 Z "/>
<path transform="matrix(1,0,0,-1,71.09,111.99799)" stroke-width="1" stroke-linecap="butt" stroke-miterlimit="10" stroke-linejoin="miter" fill="none" stroke="#f7fbff" d="M 52.62444 -8.68498 L 47.68762 -8.0364 L 53.72357 -8.98299 L 58.66039 -9.64629 Z "/>
<path transform="matrix(1,0,0,-1,71.09,111.99799)" stroke-width="1" stroke-linecap="butt" stroke-miterlimit="10" stroke-linejoin="miter" fill="none" stroke="#e7f3ff" d="M 17.50795 -3.30273 L 12.57112 -2.63998 L 18.60706 -3.54266 L 23.54388 -4.24963 Z "/>
<path transform="matrix(1,0,0,-1,71.09,111.99799)" stroke-width="1" stroke-linecap="butt" stroke-miterlimit="10" stroke-linejoin="miter" fill="none" stroke="#f7fbff" d="M 58.66039 -9.64629 L 53.72357 -8.98299 L 59.7595 -9.92937 L 64.69632 -10.60759 Z "/>
<path transform="matrix(1,0,0,-1,71.09,111.99799)" stroke-width="1" stroke-linecap="butt" stroke-miterlimit="10" stroke-linejoin="miter" fill="none" stroke="#e7f3ff" d="M 23.54388 -4.24963 L 18.60706 -3.54266 L 24.64299 -4.44467 L 29.57982 -5.19644 Z "/>
<path transform="matrix(1,0,0,-1,71.09,111.99799)" stroke-width="1" stroke-linecap="butt" stroke-miterlimit="10" stroke-linejoin="miter" fill="none" stroke="#f7fbff" d="M 64.69632 -10.60759 L 59.7595 -9.92937 L 65.79543 -10.87572 L 70.73224 -11.56886 Z "/>
<path transform="matrix(1,0,0,-1,71.09,111.99799)" stroke-width="1" stroke-linecap="butt" stroke-miterlimit="10" stroke-linejoin="miter" fill="none" stroke="#d8ebff" d="M -5.53667 .07123 L -10.47346 .60419 L -4.43756 -.22852 L .49924 -.833 Z "/>
<path transform="matrix(1,0,0,-1,71.09,111.99799)" stroke-width="1" stroke-linecap="butt" stroke-miterlimit="10" stroke-linejoin="miter" fill="none" stroke="#e6f3ff" d="M 29.57982 -5.19644 L 24.64299 -4.44467 L 30.67892 -5.3461 L 35.61575 -6.14313 Z "/>
<path transform="matrix(1,0,0,-1,71.09,111.99799)" stroke-width="1" stroke-linecap="butt" stroke-miterlimit="10" stroke-linejoin="miter" fill="none" stroke="#f7fbff" d="M 70.73224 -11.56886 L 65.79543 -10.87572 L 71.83138 -11.822 L 76.76819 -12.53017 Z "/>
<path transform="matrix(1,0,0,-1,71.09,111.99799)" stroke-width="1" stroke-linecap="butt" stroke-miterlimit="10" stroke-linejoin="miter" fill="none" stroke="#e6f3ff" d="M 35.61575 -6.14313 L 30.67892 -5.3461 L 36.71487 -6.24696 L 41.6517 -7.08981 Z "/>
<path transform="matrix(1,0,0,-1,71.09,111.99799)" stroke-width="1" stroke-linecap="butt" stroke-miterlimit="10" stroke-linejoin="miter" fill="none" stroke="#d7ebff" d="M .49924 -.833 L -4.43756 -.22852 L 1.59837 -1.0594 L 6.53519 -1.73686 Z "/>
<path transform="matrix(1,0,0,-1,71.09,111.99799)" stroke-width="1" stroke-linecap="butt" stroke-miterlimit="10" stroke-linejoin="miter" fill="none" stroke="#f7fbff" d="M 76.76819 -12.53017 L 71.83138 -11.822 L 77.86731 -12.76825 L 82.80412 -13.49146 Z "/>
<path transform="matrix(1,0,0,-1,71.09,111.99799)" stroke-width="1" stroke-linecap="butt" stroke-miterlimit="10" stroke-linejoin="miter" fill="none" stroke="#e6f3ff" d="M 41.6517 -7.08981 L 36.71487 -6.24696 L 42.7508 -7.14728 L 47.68762 -8.0364 Z "/>
<path transform="matrix(1,0,0,-1,71.09,111.99799)" stroke-width="1" stroke-linecap="butt" stroke-miterlimit="10" stroke-linejoin="miter" fill="none" stroke="#d7ebff" d="M 6.53519 -1.73686 L 1.59837 -1.0594 L 7.63431 -1.88866 L 12.57112 -2.63998 Z "/>
<path transform="matrix(1,0,0,-1,71.09,111.99799)" stroke-width="1" stroke-linecap="butt" stroke-miterlimit="10" stroke-linejoin="miter" fill="none" stroke="#f7fbff" d="M 82.80412 -13.49146 L 77.86731 -12.76825 L 83.90326 -13.71439 L 88.84007 -14.45276 Z "/>
<path transform="matrix(1,0,0,-1,71.09,111.99799)" stroke-width="1" stroke-linecap="butt" stroke-miterlimit="10" stroke-linejoin="miter" fill="none" stroke="#e6f2ff" d="M 47.68762 -8.0364 L 42.7508 -7.14728 L 48.78674 -8.04686 L 53.72357 -8.98299 Z "/>
<path transform="matrix(1,0,0,-1,71.09,111.99799)" stroke-width="1" stroke-linecap="butt" stroke-miterlimit="10" stroke-linejoin="miter" fill="none" stroke="#d6ebff" d="M 12.57112 -2.63998 L 7.63431 -1.88866 L 13.67024 -2.71535 L 18.60706 -3.54266 Z "/>
<path transform="matrix(1,0,0,-1,71.09,111.99799)" stroke-width="1" stroke-linecap="butt" stroke-miterlimit="10" stroke-linejoin="miter" fill="none" stroke="#f7fbff" d="M 88.84007 -14.45276 L 83.90326 -13.71439 L 89.93918 -14.66042 L 94.87599 -15.41403 Z "/>
<path transform="matrix(1,0,0,-1,71.09,111.99799)" stroke-width="1" stroke-linecap="butt" stroke-miterlimit="10" stroke-linejoin="miter" fill="none" stroke="#e6f2ff" d="M 53.72357 -8.98299 L 48.78674 -8.04686 L 54.82268 -8.94604 L 59.7595 -9.92937 Z "/>
<path transform="matrix(1,0,0,-1,71.09,111.99799)" stroke-width="1" stroke-linecap="butt" stroke-miterlimit="10" stroke-linejoin="miter" fill="none" stroke="#d6eaff" d="M 18.60706 -3.54266 L 13.67024 -2.71535 L 19.70618 -3.54027 L 24.64299 -4.44467 Z "/>
<path transform="matrix(1,0,0,-1,71.09,111.99799)" stroke-width="1" stroke-linecap="butt" stroke-miterlimit="10" stroke-linejoin="miter" fill="none" stroke="#f7fbff" d="M 94.87599 -15.41403 L 89.93918 -14.66042 L 95.97511 -15.60648 L 100.91193 -16.37534 Z "/>
<path transform="matrix(1,0,0,-1,71.09,111.99799)" stroke-width="1" stroke-linecap="butt" stroke-miterlimit="10" stroke-linejoin="miter" fill="none" stroke="#c8e4ff" d="M -10.47346 .60419 L -15.41031 1.13715 L -9.3744 .4048 L -4.43756 -.22852 Z "/>
<path transform="matrix(1,0,0,-1,71.09,111.99799)" stroke-width="1" stroke-linecap="butt" stroke-miterlimit="10" stroke-linejoin="miter" fill="none" stroke="#e5f2ff" d="M 59.7595 -9.92937 L 54.82268 -8.94604 L 60.85861 -9.84438 L 65.79543 -10.87572 Z "/>
<path transform="matrix(1,0,0,-1,71.09,111.99799)" stroke-width="1" stroke-linecap="butt" stroke-miterlimit="10" stroke-linejoin="miter" fill="none" stroke="#d5eaff" d="M 24.64299 -4.44467 L 19.70618 -3.54027 L 25.74211 -4.36328 L 30.67892 -5.3461 Z "/>
<path transform="matrix(1,0,0,-1,71.09,111.99799)" stroke-width="1" stroke-linecap="butt" stroke-miterlimit="10" stroke-linejoin="miter" fill="none" stroke="#f7fbff" d="M 100.91193 -16.37534 L 95.97511 -15.60648 L 102.01106 -16.55241 L 106.94788 -17.33664 Z "/>
<path transform="matrix(1,0,0,-1,71.09,111.99799)" stroke-width="1" stroke-linecap="butt" stroke-miterlimit="10" stroke-linejoin="miter" fill="none" stroke="#e5f2ff" d="M 65.79543 -10.87572 L 60.85861 -9.84438 L 66.89455 -10.7423 L 71.83138 -11.822 Z "/>
<path transform="matrix(1,0,0,-1,71.09,111.99799)" stroke-width="1" stroke-linecap="butt" stroke-miterlimit="10" stroke-linejoin="miter" fill="none" stroke="#c7e3ff" d="M -4.43756 -.22852 L -9.3744 .4048 L -3.33846 -.32292 L 1.59837 -1.0594 Z "/>
<path transform="matrix(1,0,0,-1,71.09,111.99799)" stroke-width="1" stroke-linecap="butt" stroke-miterlimit="10" stroke-linejoin="miter" fill="none" stroke="#d5eaff" d="M 30.67892 -5.3461 L 25.74211 -4.36328 L 31.77806 -5.18437 L 36.71487 -6.24696 Z "/>
<path transform="matrix(1,0,0,-1,71.09,111.99799)" stroke-width="1" stroke-linecap="butt" stroke-miterlimit="10" stroke-linejoin="miter" fill="none" stroke="#e5f2ff" d="M 71.83138 -11.822 L 66.89455 -10.7423 L 72.93048 -11.63945 L 77.86731 -12.76825 Z "/>
<path transform="matrix(1,0,0,-1,71.09,111.99799)" stroke-width="1" stroke-linecap="butt" stroke-miterlimit="10" stroke-linejoin="miter" fill="none" stroke="#c6e3ff" d="M 1.59837 -1.0594 L -3.33846 -.32292 L 2.69746 -1.0459 L 7.63431 -1.88866 Z "/>
<path transform="matrix(1,0,0,-1,71.09,111.99799)" stroke-width="1" stroke-linecap="butt" stroke-miterlimit="10" stroke-linejoin="miter" fill="none" stroke="#d4eaff" d="M 36.71487 -6.24696 L 31.77806 -5.18437 L 37.81398 -6.00317 L 42.7508 -7.14728 Z "/>
<path transform="matrix(1,0,0,-1,71.09,111.99799)" stroke-width="1" stroke-linecap="butt" stroke-miterlimit="10" stroke-linejoin="miter" fill="none" stroke="#e5f2ff" d="M 77.86731 -12.76825 L 72.93048 -11.63945 L 78.96643 -12.53601 L 83.90326 -13.71439 Z "/>
<path transform="matrix(1,0,0,-1,71.09,111.99799)" stroke-width="1" stroke-linecap="butt" stroke-miterlimit="10" stroke-linejoin="miter" fill="none" stroke="#c5e2ff" d="M 7.63431 -1.88866 L 2.69746 -1.0459 L 8.73341 -1.76436 L 13.67024 -2.71535 Z "/>
<path transform="matrix(1,0,0,-1,71.09,111.99799)" stroke-width="1" stroke-linecap="butt" stroke-miterlimit="10" stroke-linejoin="miter" fill="none" stroke="#d3e9ff" d="M 42.7508 -7.14728 L 37.81398 -6.00317 L 43.84993 -6.81976 L 48.78674 -8.04686 Z "/>
<path transform="matrix(1,0,0,-1,71.09,111.99799)" stroke-width="1" stroke-linecap="butt" stroke-miterlimit="10" stroke-linejoin="miter" fill="none" stroke="#e5f2ff" d="M 83.90326 -13.71439 L 78.96643 -12.53601 L 85.00235 -13.43195 L 89.93918 -14.66042 Z "/>
<path transform="matrix(1,0,0,-1,71.09,111.99799)" stroke-width="1" stroke-linecap="butt" stroke-miterlimit="10" stroke-linejoin="miter" fill="none" stroke="#d3e9ff" d="M 48.78674 -8.04686 L 43.84993 -6.81976 L 49.88586 -7.63445 L 54.82268 -8.94604 Z "/>
<path transform="matrix(1,0,0,-1,71.09,111.99799)" stroke-width="1" stroke-linecap="butt" stroke-miterlimit="10" stroke-linejoin="miter" fill="none" stroke="#c4e2ff" d="M 13.67024 -2.71535 L 8.73341 -1.76436 L 14.76933 -2.47801 L 19.70618 -3.54027 Z "/>
<path transform="matrix(1,0,0,-1,71.09,111.99799)" stroke-width="1" stroke-linecap="butt" stroke-miterlimit="10" stroke-linejoin="miter" fill="none" stroke="#b8dcff" d="M -15.41031 1.13715 L -20.34712 1.67009 L -14.31122 1.06743 L -9.3744 .4048 Z "/>
<path transform="matrix(1,0,0,-1,71.09,111.99799)" stroke-width="1" stroke-linecap="butt" stroke-miterlimit="10" stroke-linejoin="miter" fill="none" stroke="#e4f2ff" d="M 89.93918 -14.66042 L 85.00235 -13.43195 L 91.03828 -14.3272 L 95.97511 -15.60648 Z "/>
<path transform="matrix(1,0,0,-1,71.09,111.99799)" stroke-width="1" stroke-linecap="butt" stroke-miterlimit="10" stroke-linejoin="miter" fill="none" stroke="#d2e9ff" d="M 54.82268 -8.94604 L 49.88586 -7.63445 L 55.9218 -8.44693 L 60.85861 -9.84438 Z "/>
<path transform="matrix(1,0,0,-1,71.09,111.99799)" stroke-width="1" stroke-linecap="butt" stroke-miterlimit="10" stroke-linejoin="miter" fill="none" stroke="#c3e1ff" d="M 19.70618 -3.54027 L 14.76933 -2.47801 L 20.80527 -3.18665 L 25.74211 -4.36328 Z "/>
<path transform="matrix(1,0,0,-1,71.09,111.99799)" stroke-width="1" stroke-linecap="butt" stroke-miterlimit="10" stroke-linejoin="miter" fill="none" stroke="#e4f2ff" d="M 95.97511 -15.60648 L 91.03828 -14.3272 L 97.07423 -15.22179 L 102.01106 -16.55241 Z "/>
<path transform="matrix(1,0,0,-1,71.09,111.99799)" stroke-width="1" stroke-linecap="butt" stroke-miterlimit="10" stroke-linejoin="miter" fill="none" stroke="#b6dbff" d="M -9.3744 .4048 L -14.31122 1.06743 L -8.27527 .47386 L -3.33846 -.32292 Z "/>
<path transform="matrix(1,0,0,-1,71.09,111.99799)" stroke-width="1" stroke-linecap="butt" stroke-miterlimit="10" stroke-linejoin="miter" fill="none" stroke="#d2e8ff" d="M 60.85861 -9.84438 L 55.9218 -8.44693 L 61.95773 -9.25716 L 66.89455 -10.7423 Z "/>
<path transform="matrix(1,0,0,-1,71.09,111.99799)" stroke-width="1" stroke-linecap="butt" stroke-miterlimit="10" stroke-linejoin="miter" fill="none" stroke="#c2e0ff" d="M 25.74211 -4.36328 L 20.80527 -3.18665 L 26.84122 -3.89023 L 31.77806 -5.18437 Z "/>
<path transform="matrix(1,0,0,-1,71.09,111.99799)" stroke-width="1" stroke-linecap="butt" stroke-miterlimit="10" stroke-linejoin="miter" fill="none" stroke="#b5daff" d="M -3.33846 -.32292 L -8.27527 .47386 L -2.23933 -.11044 L 2.69746 -1.0459 Z "/>
<path transform="matrix(1,0,0,-1,71.09,111.99799)" stroke-width="1" stroke-linecap="butt" stroke-miterlimit="10" stroke-linejoin="miter" fill="none" stroke="#d1e8ff" d="M 66.89455 -10.7423 L 61.95773 -9.25716 L 67.99367 -10.06497 L 72.93048 -11.63945 Z "/>
<path transform="matrix(1,0,0,-1,71.09,111.99799)" stroke-width="1" stroke-linecap="butt" stroke-miterlimit="10" stroke-linejoin="miter" fill="none" stroke="#c1e0ff" d="M 31.77806 -5.18437 L 26.84122 -3.89023 L 32.87714 -4.58867 L 37.81398 -6.00317 Z "/>
<path transform="matrix(1,0,0,-1,71.09,111.99799)" stroke-width="1" stroke-linecap="butt" stroke-miterlimit="10" stroke-linejoin="miter" fill="none" stroke="#b3d9ff" d="M 2.69746 -1.0459 L -2.23933 -.11044 L 3.7966 -.68594 L 8.73341 -1.76436 Z "/>
<path transform="matrix(1,0,0,-1,71.09,111.99799)" stroke-width="1" stroke-linecap="butt" stroke-miterlimit="10" stroke-linejoin="miter" fill="none" stroke="#d1e8ff" d="M 72.93048 -11.63945 L 67.99367 -10.06497 L 74.02962 -10.87071 L 78.96643 -12.53601 Z "/>
<path transform="matrix(1,0,0,-1,71.09,111.99799)" stroke-width="1" stroke-linecap="butt" stroke-miterlimit="10" stroke-linejoin="miter" fill="none" stroke="#c0dfff" d="M 37.81398 -6.00317 L 32.87714 -4.58867 L 38.91309 -5.28227 L 43.84993 -6.81976 Z "/>
<path transform="matrix(1,0,0,-1,71.09,111.99799)" stroke-width="1" stroke-linecap="butt" stroke-miterlimit="10" stroke-linejoin="miter" fill="none" stroke="#d0e8ff" d="M 78.96643 -12.53601 L 74.02962 -10.87071 L 80.06554 -11.67409 L 85.00235 -13.43195 Z "/>
<path transform="matrix(1,0,0,-1,71.09,111.99799)" stroke-width="1" stroke-linecap="butt" stroke-miterlimit="10" stroke-linejoin="miter" fill="none" stroke="#b1d8ff" d="M 8.73341 -1.76436 L 3.7966 -.68594 L 9.83252 -1.25131 L 14.76933 -2.47801 Z "/>
<path transform="matrix(1,0,0,-1,71.09,111.99799)" stroke-width="1" stroke-linecap="butt" stroke-miterlimit="10" stroke-linejoin="miter" fill="none" stroke="#a8d4ff" d="M -20.34712 1.67009 L -25.28395 2.20305 L -19.24803 1.75972 L -14.31122 1.06743 Z "/>
<path transform="matrix(1,0,0,-1,71.09,111.99799)" stroke-width="1" stroke-linecap="butt" stroke-miterlimit="10" stroke-linejoin="miter" fill="none" stroke="#bedfff" d="M 43.84993 -6.81976 L 38.91309 -5.28227 L 44.94902 -5.97032 L 49.88586 -7.63445 Z "/>
<path transform="matrix(1,0,0,-1,71.09,111.99799)" stroke-width="1" stroke-linecap="butt" stroke-miterlimit="10" stroke-linejoin="miter" fill="none" stroke="#cfe7ff" d="M 85.00235 -13.43195 L 80.06554 -11.67409 L 86.10147 -12.47505 L 91.03828 -14.3272 Z "/>
<path transform="matrix(1,0,0,-1,71.09,111.99799)" stroke-width="1" stroke-linecap="butt" stroke-miterlimit="10" stroke-linejoin="miter" fill="none" stroke="#afd7ff" d="M 14.76933 -2.47801 L 9.83252 -1.25131 L 15.86845 -1.80714 L 20.80527 -3.18665 Z "/>
<path transform="matrix(1,0,0,-1,71.09,111.99799)" stroke-width="1" stroke-linecap="butt" stroke-miterlimit="10" stroke-linejoin="miter" fill="none" stroke="#a5d2ff" d="M -14.31122 1.06743 L -19.24803 1.75972 L -13.2121 1.33167 L -8.27527 .47386 Z "/>
<path transform="matrix(1,0,0,-1,71.09,111.99799)" stroke-width="1" stroke-linecap="butt" stroke-miterlimit="10" stroke-linejoin="miter" fill="none" stroke="#bddeff" d="M 49.88586 -7.63445 L 44.94902 -5.97032 L 50.98495 -6.65282 L 55.9218 -8.44693 Z "/>
<path transform="matrix(1,0,0,-1,71.09,111.99799)" stroke-width="1" stroke-linecap="butt" stroke-miterlimit="10" stroke-linejoin="miter" fill="none" stroke="#cfe7ff" d="M 91.03828 -14.3272 L 86.10147 -12.47505 L 92.13742 -13.27377 L 97.07423 -15.22179 Z "/>
<path transform="matrix(1,0,0,-1,71.09,111.99799)" stroke-width="1" stroke-linecap="butt" stroke-miterlimit="10" stroke-linejoin="miter" fill="none" stroke="#aed6ff" d="M 20.80527 -3.18665 L 15.86845 -1.80714 L 21.9044 -2.35269 L 26.84122 -3.89023 Z "/>
<path transform="matrix(1,0,0,-1,71.09,111.99799)" stroke-width="1" stroke-linecap="butt" stroke-miterlimit="10" stroke-linejoin="miter" fill="none" stroke="#bcdeff" d="M 55.9218 -8.44693 L 50.98495 -6.65282 L 57.02089 -7.32976 L 61.95773 -9.25716 Z "/>
<path transform="matrix(1,0,0,-1,71.09,111.99799)" stroke-width="1" stroke-linecap="butt" stroke-miterlimit="10" stroke-linejoin="miter" fill="none" stroke="#a3d1ff" d="M -8.27527 .47386 L -13.2121 1.33167 L -7.17616 .91972 L -2.23933 -.11044 Z "/>
<path transform="matrix(1,0,0,-1,71.09,111.99799)" stroke-width="1" stroke-linecap="butt" stroke-miterlimit="10" stroke-linejoin="miter" fill="none" stroke="#bbddff" d="M 61.95773 -9.25716 L 57.02089 -7.32976 L 63.05682 -8.00163 L 67.99367 -10.06497 Z "/>
<path transform="matrix(1,0,0,-1,71.09,111.99799)" stroke-width="1" stroke-linecap="butt" stroke-miterlimit="10" stroke-linejoin="miter" fill="none" stroke="#acd6ff" d="M 26.84122 -3.89023 L 21.9044 -2.35269 L 27.94034 -2.88843 L 32.87714 -4.58867 Z "/>
<path transform="matrix(1,0,0,-1,71.09,111.99799)" stroke-width="1" stroke-linecap="butt" stroke-miterlimit="10" stroke-linejoin="miter" fill="none" stroke="#a0d0ff" d="M -2.23933 -.11044 L -7.17616 .91972 L -1.14021 .52379 L 3.7966 -.68594 Z "/>
<path transform="matrix(1,0,0,-1,71.09,111.99799)" stroke-width="1" stroke-linecap="butt" stroke-miterlimit="10" stroke-linejoin="miter" fill="none" stroke="#badcff" d="M 67.99367 -10.06497 L 63.05682 -8.00163 L 69.09277 -8.66725 L 74.02962 -10.87071 Z "/>
<path transform="matrix(1,0,0,-1,71.09,111.99799)" stroke-width="1" stroke-linecap="butt" stroke-miterlimit="10" stroke-linejoin="miter" fill="none" stroke="#aad5ff" d="M 32.87714 -4.58867 L 27.94034 -2.88843 L 33.97627 -3.41302 L 38.91309 -5.28227 Z "/>
<path transform="matrix(1,0,0,-1,71.09,111.99799)" stroke-width="1" stroke-linecap="butt" stroke-miterlimit="10" stroke-linejoin="miter" fill="none" stroke="#98ccff" d="M -25.28395 2.20305 L -30.22076 2.73601 L -24.18484 2.48125 L -19.24803 1.75972 Z "/>
<path transform="matrix(1,0,0,-1,71.09,111.99799)" stroke-width="1" stroke-linecap="butt" stroke-miterlimit="10" stroke-linejoin="miter" fill="none" stroke="#9ecfff" d="M 3.7966 -.68594 L -1.14021 .52379 L 4.89569 .14519 L 9.83252 -1.25131 Z "/>
<path transform="matrix(1,0,0,-1,71.09,111.99799)" stroke-width="1" stroke-linecap="butt" stroke-miterlimit="10" stroke-linejoin="miter" fill="none" stroke="#b8dcff" d="M 74.02962 -10.87071 L 69.09277 -8.66725 L 75.12871 -9.32706 L 80.06554 -11.67409 Z "/>
<path transform="matrix(1,0,0,-1,71.09,111.99799)" stroke-width="1" stroke-linecap="butt" stroke-miterlimit="10" stroke-linejoin="miter" fill="none" stroke="#a8d4ff" d="M 38.91309 -5.28227 L 33.97627 -3.41302 L 40.0122 -3.92708 L 44.94902 -5.97032 Z "/>
<path transform="matrix(1,0,0,-1,71.09,111.99799)" stroke-width="1" stroke-linecap="butt" stroke-miterlimit="10" stroke-linejoin="miter" fill="none" stroke="#94caff" d="M -19.24803 1.75972 L -24.18484 2.48125 L -18.14891 2.25137 L -13.2121 1.33167 Z "/>
<path transform="matrix(1,0,0,-1,71.09,111.99799)" stroke-width="1" stroke-linecap="butt" stroke-miterlimit="10" stroke-linejoin="miter" fill="none" stroke="#9bcdff" d="M 9.83252 -1.25131 L 4.89569 .14519 L 10.93163 -.2164 L 15.86845 -1.80714 Z "/>
<path transform="matrix(1,0,0,-1,71.09,111.99799)" stroke-width="1" stroke-linecap="butt" stroke-miterlimit="10" stroke-linejoin="miter" fill="none" stroke="#b7dbff" d="M 80.06554 -11.67409 L 75.12871 -9.32706 L 81.16463 -9.98088 L 86.10147 -12.47505 Z "/>
<path transform="matrix(1,0,0,-1,71.09,111.99799)" stroke-width="1" stroke-linecap="butt" stroke-miterlimit="10" stroke-linejoin="miter" fill="none" stroke="#a6d3ff" d="M 44.94902 -5.97032 L 40.0122 -3.92708 L 46.04814 -4.43013 L 50.98495 -6.65282 Z "/>
<path transform="matrix(1,0,0,-1,71.09,111.99799)" stroke-width="1" stroke-linecap="butt" stroke-miterlimit="10" stroke-linejoin="miter" fill="none" stroke="#91c8ff" d="M -13.2121 1.33167 L -18.14891 2.25137 L -12.11298 2.04662 L -7.17616 .91972 Z "/>
<path transform="matrix(1,0,0,-1,71.09,111.99799)" stroke-width="1" stroke-linecap="butt" stroke-miterlimit="10" stroke-linejoin="miter" fill="none" stroke="#98ccff" d="M 15.86845 -1.80714 L 10.93163 -.2164 L 16.96758 -.55962 L 21.9044 -2.35269 Z "/>
<path transform="matrix(1,0,0,-1,71.09,111.99799)" stroke-width="1" stroke-linecap="butt" stroke-miterlimit="10" stroke-linejoin="miter" fill="none" stroke="#b6dbff" d="M 86.10147 -12.47505 L 81.16463 -9.98088 L 87.20058 -10.62901 L 92.13742 -13.27377 Z "/>
<path transform="matrix(1,0,0,-1,71.09,111.99799)" stroke-width="1" stroke-linecap="butt" stroke-miterlimit="10" stroke-linejoin="miter" fill="none" stroke="#a4d2ff" d="M 50.98495 -6.65282 L 46.04814 -4.43013 L 52.08408 -4.92143 L 57.02089 -7.32976 Z "/>
<path transform="matrix(1,0,0,-1,71.09,111.99799)" stroke-width="1" stroke-linecap="butt" stroke-miterlimit="10" stroke-linejoin="miter" fill="none" stroke="#8dc6ff" d="M -7.17616 .91972 L -12.11298 2.04662 L -6.07703 1.86877 L -1.14021 .52379 Z "/>
<path transform="matrix(1,0,0,-1,71.09,111.99799)" stroke-width="1" stroke-linecap="butt" stroke-miterlimit="10" stroke-linejoin="miter" fill="none" stroke="#96caff" d="M 21.9044 -2.35269 L 16.96758 -.55962 L 23.00351 -.88441 L 27.94034 -2.88843 Z "/>
<path transform="matrix(1,0,0,-1,71.09,111.99799)" stroke-width="1" stroke-linecap="butt" stroke-miterlimit="10" stroke-linejoin="miter" fill="none" stroke="#88c4ff" d="M -30.22076 2.73601 L -35.1576 3.26897 L -29.12167 3.23267 L -24.18484 2.48125 Z "/>
<path transform="matrix(1,0,0,-1,71.09,111.99799)" stroke-width="1" stroke-linecap="butt" stroke-miterlimit="10" stroke-linejoin="miter" fill="none" stroke="#a2d1ff" d="M 57.02089 -7.32976 L 52.08408 -4.92143 L 58.12001 -5.40123 L 63.05682 -8.00163 Z "/>
<path transform="matrix(1,0,0,-1,71.09,111.99799)" stroke-width="1" stroke-linecap="butt" stroke-miterlimit="10" stroke-linejoin="miter" fill="none" stroke="#8ac5ff" d="M -1.14021 .52379 L -6.07703 1.86877 L -.04109 1.71829 L 4.89569 .14519 Z "/>
<path transform="matrix(1,0,0,-1,71.09,111.99799)" stroke-width="1" stroke-linecap="butt" stroke-miterlimit="10" stroke-linejoin="miter" fill="none" stroke="#93c9ff" d="M 27.94034 -2.88843 L 23.00351 -.88441 L 29.03944 -1.1905 L 33.97627 -3.41302 Z "/>
<path transform="matrix(1,0,0,-1,71.09,111.99799)" stroke-width="1" stroke-linecap="butt" stroke-miterlimit="10" stroke-linejoin="miter" fill="none" stroke="#a0d0ff" d="M 63.05682 -8.00163 L 58.12001 -5.40123 L 64.15596 -5.86899 L 69.09277 -8.66725 Z "/>
<path transform="matrix(1,0,0,-1,71.09,111.99799)" stroke-width="1" stroke-linecap="butt" stroke-miterlimit="10" stroke-linejoin="miter" fill="none" stroke="#83c1ff" d="M -24.18484 2.48125 L -29.12167 3.23267 L -23.08574 3.23363 L -18.14891 2.25137 Z "/>
<path transform="matrix(1,0,0,-1,71.09,111.99799)" stroke-width="1" stroke-linecap="butt" stroke-miterlimit="10" stroke-linejoin="miter" fill="none" stroke="#90c8ff" d="M 33.97627 -3.41302 L 29.03944 -1.1905 L 35.07538 -1.47713 L 40.0122 -3.92708 Z "/>
<path transform="matrix(1,0,0,-1,71.09,111.99799)" stroke-width="1" stroke-linecap="butt" stroke-miterlimit="10" stroke-linejoin="miter" fill="none" stroke="#86c3ff" d="M 4.89569 .14519 L -.04109 1.71829 L 5.99481 1.59569 L 10.93163 -.2164 Z "/>
<path transform="matrix(1,0,0,-1,71.09,111.99799)" stroke-width="1" stroke-linecap="butt" stroke-miterlimit="10" stroke-linejoin="miter" fill="none" stroke="#9ecfff" d="M 69.09277 -8.66725 L 64.15596 -5.86899 L 70.1919 -6.32474 L 75.12871 -9.32706 Z "/>
<path transform="matrix(1,0,0,-1,71.09,111.99799)" stroke-width="1" stroke-linecap="butt" stroke-miterlimit="10" stroke-linejoin="miter" fill="none" stroke="#7ebfff" d="M -18.14891 2.25137 L -23.08574 3.23363 L -17.0498 3.27295 L -12.11298 2.04662 Z "/>
<path transform="matrix(1,0,0,-1,71.09,111.99799)" stroke-width="1" stroke-linecap="butt" stroke-miterlimit="10" stroke-linejoin="miter" fill="none" stroke="#8dc6ff" d="M 40.0122 -3.92708 L 35.07538 -1.47713 L 41.11131 -1.74364 L 46.04814 -4.43013 Z "/>
<path transform="matrix(1,0,0,-1,71.09,111.99799)" stroke-width="1" stroke-linecap="butt" stroke-miterlimit="10" stroke-linejoin="miter" fill="none" stroke="#9ccdff" d="M 75.12871 -9.32706 L 70.1919 -6.32474 L 76.22781 -6.76794 L 81.16463 -9.98088 Z "/>
<path transform="matrix(1,0,0,-1,71.09,111.99799)" stroke-width="1" stroke-linecap="butt" stroke-miterlimit="10" stroke-linejoin="miter" fill="none" stroke="#82c1ff" d="M 10.93163 -.2164 L 5.99481 1.59569 L 12.03076 1.50226 L 16.96758 -.55962 Z "/>
<path transform="matrix(1,0,0,-1,71.09,111.99799)" stroke-width="1" stroke-linecap="butt" stroke-miterlimit="10" stroke-linejoin="miter" fill="none" stroke="#77bbff" d="M -35.1576 3.26897 L -40.09442 3.80191 L -34.0585 4.01372 L -29.12167 3.23267 Z "/>
<path transform="matrix(1,0,0,-1,71.09,111.99799)" stroke-width="1" stroke-linecap="butt" stroke-miterlimit="10" stroke-linejoin="miter" fill="none" stroke="#7abdff" d="M -12.11298 2.04662 L -17.0498 3.27295 L -11.01385 3.3528 L -6.07703 1.86877 Z "/>
<path transform="matrix(1,0,0,-1,71.09,111.99799)" stroke-width="1" stroke-linecap="butt" stroke-miterlimit="10" stroke-linejoin="miter" fill="none" stroke="#99ccff" d="M 81.16463 -9.98088 L 76.22781 -6.76794 L 82.26376 -7.1984 L 87.20058 -10.62901 Z "/>
<path transform="matrix(1,0,0,-1,71.09,111.99799)" stroke-width="1" stroke-linecap="butt" stroke-miterlimit="10" stroke-linejoin="miter" fill="none" stroke="#89c4ff" d="M 46.04814 -4.43013 L 41.11131 -1.74364 L 47.14726 -1.98949 L 52.08408 -4.92143 Z "/>
<path transform="matrix(1,0,0,-1,71.09,111.99799)" stroke-width="1" stroke-linecap="butt" stroke-miterlimit="10" stroke-linejoin="miter" fill="none" stroke="#7ebfff" d="M 16.96758 -.55962 L 12.03076 1.50226 L 18.0667 1.43964 L 23.00351 -.88441 Z "/>
<path transform="matrix(1,0,0,-1,71.09,111.99799)" stroke-width="1" stroke-linecap="butt" stroke-miterlimit="10" stroke-linejoin="miter" fill="none" stroke="#72b9ff" d="M -29.12167 3.23267 L -34.0585 4.01372 L -28.02255 4.28017 L -23.08574 3.23363 Z "/>
<path transform="matrix(1,0,0,-1,71.09,111.99799)" stroke-width="1" stroke-linecap="butt" stroke-miterlimit="10" stroke-linejoin="miter" fill="none" stroke="#75baff" d="M -6.07703 1.86877 L -11.01385 3.3528 L -4.97792 3.47337 L -.04109 1.71829 Z "/>
<path transform="matrix(1,0,0,-1,71.09,111.99799)" stroke-width="1" stroke-linecap="butt" stroke-miterlimit="10" stroke-linejoin="miter" fill="none" stroke="#86c3ff" d="M 52.08408 -4.92143 L 47.14726 -1.98949 L 53.18318 -2.21281 L 58.12001 -5.40123 Z "/>
<path transform="matrix(1,0,0,-1,71.09,111.99799)" stroke-width="1" stroke-linecap="butt" stroke-miterlimit="10" stroke-linejoin="miter" fill="none" stroke="#7abdff" d="M 23.00351 -.88441 L 18.0667 1.43964 L 24.10263 1.40817 L 29.03944 -1.1905 Z "/>
<path transform="matrix(1,0,0,-1,71.09,111.99799)" stroke-width="1" stroke-linecap="butt" stroke-miterlimit="10" stroke-linejoin="miter" fill="none" stroke="#83c1ff" d="M 58.12001 -5.40123 L 53.18318 -2.21281 L 59.21913 -2.4153 L 64.15596 -5.86899 Z "/>
<path transform="matrix(1,0,0,-1,71.09,111.99799)" stroke-width="1" stroke-linecap="butt" stroke-miterlimit="10" stroke-linejoin="miter" fill="none" stroke="#6fb7ff" d="M -.04109 1.71829 L -4.97792 3.47337 L 1.05798 3.63834 L 5.99481 1.59569 Z "/>
<path transform="matrix(1,0,0,-1,71.09,111.99799)" stroke-width="1" stroke-linecap="butt" stroke-miterlimit="10" stroke-linejoin="miter" fill="none" stroke="#6cb6ff" d="M -23.08574 3.23363 L -28.02255 4.28017 L -21.98663 4.60103 L -17.0498 3.27295 Z "/>
<path transform="matrix(1,0,0,-1,71.09,111.99799)" stroke-width="1" stroke-linecap="butt" stroke-miterlimit="10" stroke-linejoin="miter" fill="none" stroke="#75baff" d="M 29.03944 -1.1905 L 24.10263 1.40817 L 30.13857 1.40968 L 35.07538 -1.47713 Z "/>
<path transform="matrix(1,0,0,-1,71.09,111.99799)" stroke-width="1" stroke-linecap="butt" stroke-miterlimit="10" stroke-linejoin="miter" fill="none" stroke="#67b3ff" d="M -40.09442 3.80191 L -45.03123 4.33487 L -38.99532 4.82626 L -34.0585 4.01372 Z "/>
<path transform="matrix(1,0,0,-1,71.09,111.99799)" stroke-width="1" stroke-linecap="butt" stroke-miterlimit="10" stroke-linejoin="miter" fill="none" stroke="#7fbfff" d="M 64.15596 -5.86899 L 59.21913 -2.4153 L 65.25507 -2.59503 L 70.1919 -6.32474 Z "/>
<path transform="matrix(1,0,0,-1,71.09,111.99799)" stroke-width="1" stroke-linecap="butt" stroke-miterlimit="10" stroke-linejoin="miter" fill="none" stroke="#6ab5ff" d="M 5.99481 1.59569 L 1.05798 3.63834 L 7.09393 3.84727 L 12.03076 1.50226 Z "/>
<path transform="matrix(1,0,0,-1,71.09,111.99799)" stroke-width="1" stroke-linecap="butt" stroke-miterlimit="10" stroke-linejoin="miter" fill="none" stroke="#65b2ff" d="M -17.0498 3.27295 L -21.98663 4.60103 L -15.95068 4.97917 L -11.01385 3.3528 Z "/>
<path transform="matrix(1,0,0,-1,71.09,111.99799)" stroke-width="1" stroke-linecap="butt" stroke-miterlimit="10" stroke-linejoin="miter" fill="none" stroke="#71b8ff" d="M 35.07538 -1.47713 L 30.13857 1.40968 L 36.1745 1.4444 L 41.11131 -1.74364 Z "/>
<path transform="matrix(1,0,0,-1,71.09,111.99799)" stroke-width="1" stroke-linecap="butt" stroke-miterlimit="10" stroke-linejoin="miter" fill="none" stroke="#7cbeff" d="M 70.1919 -6.32474 L 65.25507 -2.59503 L 71.29099 -2.75134 L 76.22781 -6.76794 Z "/>
<path transform="matrix(1,0,0,-1,71.09,111.99799)" stroke-width="1" stroke-linecap="butt" stroke-miterlimit="10" stroke-linejoin="miter" fill="none" stroke="#60b0ff" d="M -34.0585 4.01372 L -38.99532 4.82626 L -32.95937 5.39052 L -28.02255 4.28017 Z "/>
<path transform="matrix(1,0,0,-1,71.09,111.99799)" stroke-width="1" stroke-linecap="butt" stroke-miterlimit="10" stroke-linejoin="miter" fill="none" stroke="#64b2ff" d="M 12.03076 1.50226 L 7.09393 3.84727 L 13.12987 4.10388 L 18.0667 1.43964 Z "/>
<path transform="matrix(1,0,0,-1,71.09,111.99799)" stroke-width="1" stroke-linecap="butt" stroke-miterlimit="10" stroke-linejoin="miter" fill="none" stroke="#6cb6ff" d="M 41.11131 -1.74364 L 36.1745 1.4444 L 42.21045 1.51355 L 47.14726 -1.98949 Z "/>
<path transform="matrix(1,0,0,-1,71.09,111.99799)" stroke-width="1" stroke-linecap="butt" stroke-miterlimit="10" stroke-linejoin="miter" fill="none" stroke="#5fafff" d="M -11.01385 3.3528 L -15.95068 4.97917 L -9.91475 5.41873 L -4.97792 3.47337 Z "/>
<path transform="matrix(1,0,0,-1,71.09,111.99799)" stroke-width="1" stroke-linecap="butt" stroke-miterlimit="10" stroke-linejoin="miter" fill="none" stroke="#78bcff" d="M 76.22781 -6.76794 L 71.29099 -2.75134 L 77.32693 -2.88252 L 82.26376 -7.1984 Z "/>
<path transform="matrix(1,0,0,-1,71.09,111.99799)" stroke-width="1" stroke-linecap="butt" stroke-miterlimit="10" stroke-linejoin="miter" fill="none" stroke="#5fafff" d="M 18.0667 1.43964 L 13.12987 4.10388 L 19.16582 4.40793 L 24.10263 1.40817 Z "/>
<path transform="matrix(1,0,0,-1,71.09,111.99799)" stroke-width="1" stroke-linecap="butt" stroke-miterlimit="10" stroke-linejoin="miter" fill="none" stroke="#58acff" d="M -28.02255 4.28017 L -32.95937 5.39052 L -26.92345 6.03198 L -21.98663 4.60103 Z "/>
<path transform="matrix(1,0,0,-1,71.09,111.99799)" stroke-width="1" stroke-linecap="butt" stroke-miterlimit="10" stroke-linejoin="miter" fill="none" stroke="#67b3ff" d="M 47.14726 -1.98949 L 42.21045 1.51355 L 48.24637 1.61891 L 53.18318 -2.21281 Z "/>
<path transform="matrix(1,0,0,-1,71.09,111.99799)" stroke-width="1" stroke-linecap="butt" stroke-miterlimit="10" stroke-linejoin="miter" fill="none" stroke="#58acff" d="M -4.97792 3.47337 L -9.91475 5.41873 L -3.87883 5.92125 L 1.05798 3.63834 Z "/>
<path transform="matrix(1,0,0,-1,71.09,111.99799)" stroke-width="1" stroke-linecap="butt" stroke-miterlimit="10" stroke-linejoin="miter" fill="none" stroke="#57abff" d="M -45.03123 4.33487 L -49.96806 4.86781 L -43.93214 5.66861 L -38.99532 4.82626 Z "/>
<path transform="matrix(1,0,0,-1,71.09,111.99799)" stroke-width="1" stroke-linecap="butt" stroke-miterlimit="10" stroke-linejoin="miter" fill="none" stroke="#62b1ff" d="M 53.18318 -2.21281 L 48.24637 1.61891 L 54.28232 1.76132 L 59.21913 -2.4153 Z "/>
<path transform="matrix(1,0,0,-1,71.09,111.99799)" stroke-width="1" stroke-linecap="butt" stroke-miterlimit="10" stroke-linejoin="miter" fill="none" stroke="#58acff" d="M 24.10263 1.40817 L 19.16582 4.40793 L 25.20174 4.76422 L 30.13857 1.40968 Z "/>
<path transform="matrix(1,0,0,-1,71.09,111.99799)" stroke-width="1" stroke-linecap="butt" stroke-miterlimit="10" stroke-linejoin="miter" fill="none" stroke="#50a8ff" d="M -21.98663 4.60103 L -26.92345 6.03198 L -20.8875 6.75331 L -15.95068 4.97917 Z "/>
<path transform="matrix(1,0,0,-1,71.09,111.99799)" stroke-width="1" stroke-linecap="butt" stroke-miterlimit="10" stroke-linejoin="miter" fill="none" stroke="#51a8ff" d="M 1.05798 3.63834 L -3.87883 5.92125 L 2.1571 6.48915 L 7.09393 3.84727 Z "/>
<path transform="matrix(1,0,0,-1,71.09,111.99799)" stroke-width="1" stroke-linecap="butt" stroke-miterlimit="10" stroke-linejoin="miter" fill="none" stroke="#4ea7ff" d="M -38.99532 4.82626 L -43.93214 5.66861 L -37.8962 6.5674 L -32.95937 5.39052 Z "/>
<path transform="matrix(1,0,0,-1,71.09,111.99799)" stroke-width="1" stroke-linecap="butt" stroke-miterlimit="10" stroke-linejoin="miter" fill="none" stroke="#5daeff" d="M 59.21913 -2.4153 L 54.28232 1.76132 L 60.31825 1.94266 L 65.25507 -2.59503 Z "/>
<path transform="matrix(1,0,0,-1,71.09,111.99799)" stroke-width="1" stroke-linecap="butt" stroke-miterlimit="10" stroke-linejoin="miter" fill="none" stroke="#52a9ff" d="M 30.13857 1.40968 L 25.20174 4.76422 L 31.23767 5.17218 L 36.1745 1.4444 Z "/>
<path transform="matrix(1,0,0,-1,71.09,111.99799)" stroke-width="1" stroke-linecap="butt" stroke-miterlimit="10" stroke-linejoin="miter" fill="none" stroke="#48a4ff" d="M -15.95068 4.97917 L -20.8875 6.75331 L -14.85156 7.55989 L -9.91475 5.41873 Z "/>
<path transform="matrix(1,0,0,-1,71.09,111.99799)" stroke-width="1" stroke-linecap="butt" stroke-miterlimit="10" stroke-linejoin="miter" fill="none" stroke="#49a4ff" d="M 7.09393 3.84727 L 2.1571 6.48915 L 8.19304 7.12599 L 13.12987 4.10388 Z "/>
<path transform="matrix(1,0,0,-1,71.09,111.99799)" stroke-width="1" stroke-linecap="butt" stroke-miterlimit="10" stroke-linejoin="miter" fill="none" stroke="#58acff" d="M 65.25507 -2.59503 L 60.31825 1.94266 L 66.35419 2.16362 L 71.29099 -2.75134 Z "/>
<path transform="matrix(1,0,0,-1,71.09,111.99799)" stroke-width="1" stroke-linecap="butt" stroke-miterlimit="10" stroke-linejoin="miter" fill="none" stroke="#44a2ff" d="M -32.95937 5.39052 L -37.8962 6.5674 L -31.86028 7.56859 L -26.92345 6.03198 Z "/>
<path transform="matrix(1,0,0,-1,71.09,111.99799)" stroke-width="1" stroke-linecap="butt" stroke-miterlimit="10" stroke-linejoin="miter" fill="none" stroke="#46a3ff" d="M -49.96806 4.86781 L -54.90488 5.40077 L -48.86896 6.54189 L -43.93214 5.66861 Z "/>
<path transform="matrix(1,0,0,-1,71.09,111.99799)" stroke-width="1" stroke-linecap="butt" stroke-miterlimit="10" stroke-linejoin="miter" fill="none" stroke="#4ca6ff" d="M 36.1745 1.4444 L 31.23767 5.17218 L 37.27362 5.63515 L 42.21045 1.51355 Z "/>
<path transform="matrix(1,0,0,-1,71.09,111.99799)" stroke-width="1" stroke-linecap="butt" stroke-miterlimit="10" stroke-linejoin="miter" fill="none" stroke="#3f9fff" d="M -9.91475 5.41873 L -14.85156 7.55989 L -8.81563 8.45502 L -3.87883 5.92125 Z "/>
<path transform="matrix(1,0,0,-1,71.09,111.99799)" stroke-width="1" stroke-linecap="butt" stroke-miterlimit="10" stroke-linejoin="miter" fill="none" stroke="#41a1ff" d="M 13.12987 4.10388 L 8.19304 7.12599 L 14.22899 7.83595 L 19.16582 4.40793 Z "/>
<path transform="matrix(1,0,0,-1,71.09,111.99799)" stroke-width="1" stroke-linecap="butt" stroke-miterlimit="10" stroke-linejoin="miter" fill="none" stroke="#52a9ff" d="M 71.29099 -2.75134 L 66.35419 2.16362 L 72.39012 2.42587 L 77.32693 -2.88252 Z "/>
<path transform="matrix(1,0,0,-1,71.09,111.99799)" stroke-width="1" stroke-linecap="butt" stroke-miterlimit="10" stroke-linejoin="miter" fill="none" stroke="#45a2ff" d="M 42.21045 1.51355 L 37.27362 5.63515 L 43.30954 6.15549 L 48.24637 1.61891 Z "/>
<path transform="matrix(1,0,0,-1,71.09,111.99799)" stroke-width="1" stroke-linecap="butt" stroke-miterlimit="10" stroke-linejoin="miter" fill="none" stroke="#3a9dff" d="M -26.92345 6.03198 L -31.86028 7.56859 L -25.82433 8.67928 L -20.8875 6.75331 Z "/>
<path transform="matrix(1,0,0,-1,71.09,111.99799)" stroke-width="1" stroke-linecap="butt" stroke-miterlimit="10" stroke-linejoin="miter" fill="none" stroke="#3b9eff" d="M -43.93214 5.66861 L -48.86896 6.54189 L -42.83301 7.81001 L -37.8962 6.5674 Z "/>
<path transform="matrix(1,0,0,-1,71.09,111.99799)" stroke-width="1" stroke-linecap="butt" stroke-miterlimit="10" stroke-linejoin="miter" fill="none" stroke="#399dff" d="M 19.16582 4.40793 L 14.22899 7.83595 L 20.26491 8.6209 L 25.20174 4.76422 Z "/>
<path transform="matrix(1,0,0,-1,71.09,111.99799)" stroke-width="1" stroke-linecap="butt" stroke-miterlimit="10" stroke-linejoin="miter" fill="none" stroke="#369bff" d="M -3.87883 5.92125 L -8.81563 8.45502 L -2.7797 9.44383 L 2.1571 6.48915 Z "/>
<path transform="matrix(1,0,0,-1,71.09,111.99799)" stroke-width="1" stroke-linecap="butt" stroke-miterlimit="10" stroke-linejoin="miter" fill="none" stroke="#3e9fff" d="M 48.24637 1.61891 L 43.30954 6.15549 L 49.34549 6.73462 L 54.28232 1.76132 Z "/>
<path transform="matrix(1,0,0,-1,71.09,111.99799)" stroke-width="1" stroke-linecap="butt" stroke-miterlimit="10" stroke-linejoin="miter" fill="none" stroke="#3098ff" d="M -20.8875 6.75331 L -25.82433 8.67928 L -19.78839 9.90411 L -14.85156 7.55989 Z "/>
<path transform="matrix(1,0,0,-1,71.09,111.99799)" stroke-width="1" stroke-linecap="butt" stroke-miterlimit="10" stroke-linejoin="miter" fill="none" stroke="#3098ff" d="M -37.8962 6.5674 L -42.83301 7.81001 L -36.79707 9.21346 L -31.86028 7.56859 Z "/>
<path transform="matrix(1,0,0,-1,71.09,111.99799)" stroke-width="1" stroke-linecap="butt" stroke-miterlimit="10" stroke-linejoin="miter" fill="none" stroke="#3198ff" d="M 25.20174 4.76422 L 20.26491 8.6209 L 26.30084 9.48502 L 31.23767 5.17218 Z "/>
<path transform="matrix(1,0,0,-1,71.09,111.99799)" stroke-width="1" stroke-linecap="butt" stroke-miterlimit="10" stroke-linejoin="miter" fill="none" stroke="#2c96ff" d="M 2.1571 6.48915 L -2.7797 9.44383 L 3.25623 10.52979 L 8.19304 7.12599 Z "/>
<path transform="matrix(1,0,0,-1,71.09,111.99799)" stroke-width="1" stroke-linecap="butt" stroke-miterlimit="10" stroke-linejoin="miter" fill="none" stroke="#379bff" d="M 54.28232 1.76132 L 49.34549 6.73462 L 55.38142 7.37575 L 60.31825 1.94266 Z "/>
<path transform="matrix(1,0,0,-1,71.09,111.99799)" stroke-width="1" stroke-linecap="butt" stroke-miterlimit="10" stroke-linejoin="miter" fill="none" stroke="#2592ff" d="M -14.85156 7.55989 L -19.78839 9.90411 L -13.75246 11.25049 L -8.81563 8.45502 Z "/>
<path transform="matrix(1,0,0,-1,71.09,111.99799)" stroke-width="1" stroke-linecap="butt" stroke-miterlimit="10" stroke-linejoin="miter" fill="none" stroke="#2894ff" d="M 31.23767 5.17218 L 26.30084 9.48502 L 32.33679 10.43056 L 37.27362 5.63515 Z "/>
<path transform="matrix(1,0,0,-1,71.09,111.99799)" stroke-width="1" stroke-linecap="butt" stroke-miterlimit="10" stroke-linejoin="miter" fill="none" stroke="#2492ff" d="M -31.86028 7.56859 L -36.79707 9.21346 L -30.76114 10.76132 L -25.82433 8.67928 Z "/>
<path transform="matrix(1,0,0,-1,71.09,111.99799)" stroke-width="1" stroke-linecap="butt" stroke-miterlimit="10" stroke-linejoin="miter" fill="none" stroke="#2f97ff" d="M 60.31825 1.94266 L 55.38142 7.37575 L 61.41736 8.08028 L 66.35419 2.16362 Z "/>
<path transform="matrix(1,0,0,-1,71.09,111.99799)" stroke-width="1" stroke-linecap="butt" stroke-miterlimit="10" stroke-linejoin="miter" fill="none" stroke="#2291ff" d="M 8.19304 7.12599 L 3.25623 10.52979 L 9.29218 11.7187 L 14.22899 7.83595 Z "/>
<path transform="matrix(1,0,0,-1,71.09,111.99799)" stroke-width="1" stroke-linecap="butt" stroke-miterlimit="10" stroke-linejoin="miter" fill="none" stroke="#198dff" d="M -8.81563 8.45502 L -13.75246 11.25049 L -7.71652 12.72571 L -2.7797 9.44383 Z "/>
<path transform="matrix(1,0,0,-1,71.09,111.99799)" stroke-width="1" stroke-linecap="butt" stroke-miterlimit="10" stroke-linejoin="miter" fill="none" stroke="#1f8fff" d="M 37.27362 5.63515 L 32.33679 10.43056 L 38.37273 11.4625 L 43.30954 6.15549 Z "/>
<path transform="matrix(1,0,0,-1,71.09,111.99799)" stroke-width="1" stroke-linecap="butt" stroke-miterlimit="10" stroke-linejoin="miter" fill="none" stroke="#2794ff" d="M 66.35419 2.16362 L 61.41736 8.08028 L 67.4533 8.85165 L 72.39012 2.42587 Z "/>
<path transform="matrix(1,0,0,-1,71.09,111.99799)" stroke-width="1" stroke-linecap="butt" stroke-miterlimit="10" stroke-linejoin="miter" fill="none" stroke="#178cff" d="M -25.82433 8.67928 L -30.76114 10.76132 L -24.7252 12.4598 L -19.78839 9.90411 Z "/>
<path transform="matrix(1,0,0,-1,71.09,111.99799)" stroke-width="1" stroke-linecap="butt" stroke-miterlimit="10" stroke-linejoin="miter" fill="none" stroke="#188cff" d="M 14.22899 7.83595 L 9.29218 11.7187 L 15.3281 13.01611 L 20.26491 8.6209 Z "/>
<path transform="matrix(1,0,0,-1,71.09,111.99799)" stroke-width="1" stroke-linecap="butt" stroke-miterlimit="10" stroke-linejoin="miter" fill="none" stroke="#158bff" d="M 43.30954 6.15549 L 38.37273 11.4625 L 44.40866 12.58478 L 49.34549 6.73462 Z "/>
<path transform="matrix(1,0,0,-1,71.09,111.99799)" stroke-width="1" stroke-linecap="butt" stroke-miterlimit="10" stroke-linejoin="miter" fill="none" stroke="#0d87ff" d="M -2.7797 9.44383 L -7.71652 12.72571 L -1.68059 14.33394 L 3.25623 10.52979 Z "/>
<path transform="matrix(1,0,0,-1,71.09,111.99799)" stroke-width="1" stroke-linecap="butt" stroke-miterlimit="10" stroke-linejoin="miter" fill="none" stroke="#0c86ff" d="M 20.26491 8.6209 L 15.3281 13.01611 L 21.36403 14.42746 L 26.30084 9.48502 Z "/>
<path transform="matrix(1,0,0,-1,71.09,111.99799)" stroke-width="1" stroke-linecap="butt" stroke-miterlimit="10" stroke-linejoin="miter" fill="none" stroke="#0a85ff" d="M -19.78839 9.90411 L -24.7252 12.4598 L -18.68927 14.31892 L -13.75246 11.25049 Z "/>
<path transform="matrix(1,0,0,-1,71.09,111.99799)" stroke-width="1" stroke-linecap="butt" stroke-miterlimit="10" stroke-linejoin="miter" fill="none" stroke="#0b86ff" d="M 49.34549 6.73462 L 44.40866 12.58478 L 50.4446 13.8005 L 55.38142 7.37575 Z "/>
<path transform="matrix(1,0,0,-1,71.09,111.99799)" stroke-width="1" stroke-linecap="butt" stroke-miterlimit="10" stroke-linejoin="miter" fill="none" stroke="#0080ff" d="M 3.25623 10.52979 L -1.68059 14.33394 L 4.35535 16.08624 L 9.29218 11.7187 Z "/>
<path transform="matrix(1,0,0,-1,71.09,111.99799)" stroke-width="1" stroke-linecap="butt" stroke-miterlimit="10" stroke-linejoin="miter" fill="none" stroke="#0180ff" d="M 26.30084 9.48502 L 21.36403 14.42746 L 27.39998 15.95706 L 32.33679 10.43056 Z "/>
<path transform="matrix(1,0,0,-1,71.09,111.99799)" stroke-width="1" stroke-linecap="butt" stroke-miterlimit="10" stroke-linejoin="miter" fill="none" stroke="#057eff" d="M -13.75246 11.25049 L -18.68927 14.31892 L -12.65334 16.35121 L -7.71652 12.72571 Z "/>
<path transform="matrix(1,0,0,-1,71.09,111.99799)" stroke-width="1" stroke-linecap="butt" stroke-miterlimit="10" stroke-linejoin="miter" fill="none" stroke="#0180ff" d="M 55.38142 7.37575 L 50.4446 13.8005 L 56.48053 15.11406 L 61.41736 8.08028 Z "/>
<path transform="matrix(1,0,0,-1,71.09,111.99799)" stroke-width="1" stroke-linecap="butt" stroke-miterlimit="10" stroke-linejoin="miter" fill="none" stroke="#0d79ff" d="M 9.29218 11.7187 L 4.35535 16.08624 L 10.39128 17.98837 L 15.3281 13.01611 Z "/>
<path transform="matrix(1,0,0,-1,71.09,111.99799)" stroke-width="1" stroke-linecap="butt" stroke-miterlimit="10" stroke-linejoin="miter" fill="none" stroke="#0b7aff" d="M 32.33679 10.43056 L 27.39998 15.95706 L 33.43591 17.6116 L 38.37273 11.4625 Z "/>
<path transform="matrix(1,0,0,-1,71.09,111.99799)" stroke-width="1" stroke-linecap="butt" stroke-miterlimit="10" stroke-linejoin="miter" fill="none" stroke="#1476ff" d="M -7.71652 12.72571 L -12.65334 16.35121 L -6.6174 18.56297 L -1.68059 14.33394 Z "/>
<path transform="matrix(1,0,0,-1,71.09,111.99799)" stroke-width="1" stroke-linecap="butt" stroke-miterlimit="10" stroke-linejoin="miter" fill="none" stroke="#0a7bff" d="M 61.41736 8.08028 L 56.48053 15.11406 L 62.51646 16.53021 L 67.4533 8.85165 Z "/>
<path transform="matrix(1,0,0,-1,71.09,111.99799)" stroke-width="1" stroke-linecap="butt" stroke-miterlimit="10" stroke-linejoin="miter" fill="none" stroke="#1b72ff" d="M 15.3281 13.01611 L 10.39128 17.98837 L 16.4272 20.04767 L 21.36403 14.42746 Z "/>
<path transform="matrix(1,0,0,-1,71.09,111.99799)" stroke-width="1" stroke-linecap="butt" stroke-miterlimit="10" stroke-linejoin="miter" fill="none" stroke="#1874ff" d="M 38.37273 11.4625 L 33.43591 17.6116 L 39.47185 19.39864 L 44.40866 12.58478 Z "/>
<path transform="matrix(1,0,0,-1,71.09,111.99799)" stroke-width="1" stroke-linecap="butt" stroke-miterlimit="10" stroke-linejoin="miter" fill="none" stroke="#246eff" d="M -1.68059 14.33394 L -6.6174 18.56297 L -.58145 20.96802 L 4.35535 16.08624 Z "/>
<path transform="matrix(1,0,0,-1,71.09,111.99799)" stroke-width="1" stroke-linecap="butt" stroke-miterlimit="10" stroke-linejoin="miter" fill="none" stroke="#256dff" d="M 44.40866 12.58478 L 39.47185 19.39864 L 45.50778 21.32245 L 50.4446 13.8005 Z "/>
<path transform="matrix(1,0,0,-1,71.09,111.99799)" stroke-width="1" stroke-linecap="butt" stroke-miterlimit="10" stroke-linejoin="miter" fill="none" stroke="#2a6bff" d="M 21.36403 14.42746 L 16.4272 20.04767 L 22.46315 22.27591 L 27.39998 15.95706 Z "/>
<path transform="matrix(1,0,0,-1,71.09,111.99799)" stroke-width="1" stroke-linecap="butt" stroke-miterlimit="10" stroke-linejoin="miter" fill="none" stroke="#3566ff" d="M 4.35535 16.08624 L -.58145 20.96802 L 5.45447 23.57709 L 10.39128 17.98837 Z "/>
<path transform="matrix(1,0,0,-1,71.09,111.99799)" stroke-width="1" stroke-linecap="butt" stroke-miterlimit="10" stroke-linejoin="miter" fill="none" stroke="#3366ff" d="M 50.4446 13.8005 L 45.50778 21.32245 L 51.54372 23.39172 L 56.48053 15.11406 Z "/>
<path transform="matrix(1,0,0,-1,71.09,111.99799)" stroke-width="1" stroke-linecap="butt" stroke-miterlimit="10" stroke-linejoin="miter" fill="none" stroke="#3a63ff" d="M 27.39998 15.95706 L 22.46315 22.27591 L 28.49908 24.68002 L 33.43591 17.6116 Z "/>
<path transform="matrix(1,0,0,-1,71.09,111.99799)" stroke-width="1" stroke-linecap="butt" stroke-miterlimit="10" stroke-linejoin="miter" fill="none" stroke="#465dff" d="M 10.39128 17.98837 L 5.45447 23.57709 L 11.49039 26.40138 L 16.4272 20.04767 Z "/>
<path transform="matrix(1,0,0,-1,71.09,111.99799)" stroke-width="1" stroke-linecap="butt" stroke-miterlimit="10" stroke-linejoin="miter" fill="none" stroke="#425fff" d="M 56.48053 15.11406 L 51.54372 23.39172 L 57.57967 25.6137 L 62.51646 16.53021 Z "/>
<path transform="matrix(1,0,0,-1,71.09,111.99799)" stroke-width="1" stroke-linecap="butt" stroke-miterlimit="10" stroke-linejoin="miter" fill="none" stroke="#4b5bff" d="M 33.43591 17.6116 L 28.49908 24.68002 L 34.53502 27.27248 L 39.47185 19.39864 Z "/>
<path transform="matrix(1,0,0,-1,71.09,111.99799)" stroke-width="1" stroke-linecap="butt" stroke-miterlimit="10" stroke-linejoin="miter" fill="none" stroke="#5953ff" d="M 16.4272 20.04767 L 11.49039 26.40138 L 17.52634 29.4557 L 22.46315 22.27591 Z "/>
<path transform="matrix(1,0,0,-1,71.09,111.99799)" stroke-width="1" stroke-linecap="butt" stroke-miterlimit="10" stroke-linejoin="miter" fill="none" stroke="#5c52ff" d="M 39.47185 19.39864 L 34.53502 27.27248 L 40.57095 30.05902 L 45.50778 21.32245 Z "/>
<path transform="matrix(1,0,0,-1,71.09,111.99799)" stroke-width="1" stroke-linecap="butt" stroke-miterlimit="10" stroke-linejoin="miter" fill="none" stroke="#6d49ff" d="M 22.46315 22.27591 L 17.52634 29.4557 L 23.56227 32.75229 L 28.49908 24.68002 Z "/>
<path transform="matrix(1,0,0,-1,71.09,111.99799)" stroke-width="1" stroke-linecap="butt" stroke-miterlimit="10" stroke-linejoin="miter" fill="none" stroke="#6e49ff" d="M 45.50778 21.32245 L 40.57095 30.05902 L 46.60689 33.05583 L 51.54372 23.39172 Z "/>
<path transform="matrix(1,0,0,-1,71.09,111.99799)" stroke-width="1" stroke-linecap="butt" stroke-miterlimit="10" stroke-linejoin="miter" fill="none" stroke="#833eff" d="M 28.49908 24.68002 L 23.56227 32.75229 L 29.59822 36.30882 L 34.53502 27.27248 Z "/>
<path transform="matrix(1,0,0,-1,71.09,111.99799)" stroke-width="1" stroke-linecap="butt" stroke-miterlimit="10" stroke-linejoin="miter" fill="none" stroke="#823fff" d="M 51.54372 23.39172 L 46.60689 33.05583 L 52.64284 36.27023 L 57.57967 25.6137 Z "/>
<path transform="matrix(1,0,0,-1,71.09,111.99799)" stroke-width="1" stroke-linecap="butt" stroke-miterlimit="10" stroke-linejoin="miter" fill="none" stroke="#9933ff" d="M 34.53502 27.27248 L 29.59822 36.30882 L 35.63414 40.13885 L 40.57095 30.05902 Z "/>
<path transform="matrix(1,0,0,-1,71.09,111.99799)" stroke-width="1" stroke-linecap="butt" stroke-miterlimit="10" stroke-linejoin="miter" fill="none" stroke="#b127ff" d="M 40.57095 30.05902 L 35.63414 40.13885 L 41.67007 44.25899 L 46.60689 33.05583 Z "/>
<path transform="matrix(1,0,0,-1,71.09,111.99799)" stroke-width="1" stroke-linecap="butt" stroke-miterlimit="10" stroke-linejoin="miter" fill="none" stroke="#ca1bff" d="M 46.60689 33.05583 L 41.67007 44.25899 L 47.70602 48.68314 L 52.64284 36.27023 Z "/>
<path transform="matrix(1,0,0,-1,71.09,111.99799)" stroke-width="1.19553" stroke-linecap="butt" stroke-miterlimit="10" stroke-linejoin="miter" fill="none" stroke="#000080" d="M -54.90514 5.4008 L -49.50467 6.41545 L -44.10422 7.53215 L -38.70375 8.75468 L -33.30328 10.09174 L -27.90283 11.54576 L -22.50238 13.12541 L -17.10193 14.83728 L -11.70146 16.68797 L -6.301 18.68407 L -.90054 20.83669 L 4.4999 23.15034 L 9.90038 25.63647 L 15.30083 28.30167 L 20.7013 31.15845 L 26.10176 34.21791 L 31.50221 37.48732 L 36.90266 40.98126 L 42.30312 44.70808 L 47.70358 48.6834 "/>
<path transform="matrix(1,0,0,-1,71.09,111.99799)" stroke-width="1.19553" stroke-linecap="butt" stroke-miterlimit="10" stroke-linejoin="miter" fill="none" stroke="#000080" d="M 4.33696 -.99466 L 9.73743 -1.85474 L 15.13788 -2.71483 L 20.53833 -3.5749 L 25.93881 -4.435 L 31.33926 -5.29509 L 36.73972 -6.15517 L 42.14017 -7.01524 L 47.54063 -7.87534 L 52.9411 -8.73543 L 58.34155 -9.5955 L 63.742 -10.4556 L 69.14249 -11.31567 L 74.54294 -12.17578 L 79.94339 -13.03586 L 85.34387 -13.89594 L 90.74432 -14.75603 L 96.14478 -15.61612 L 101.54523 -16.4762 L 106.9457 -17.33629 "/>
<path transform="matrix(1,0,0,-1,71.09,111.99799)" stroke-width="1.19553" stroke-linecap="butt" stroke-miterlimit="10" stroke-linejoin="miter" fill="none" stroke="#000080" d="M 4.33696 -.99466 L 1.21906 -.65805 L -1.89883 -.32147 L -5.01675 .01512 L -8.13466 .3517 L -11.25258 .68831 L -14.37048 1.02487 L -17.48839 1.36148 L -20.60631 1.69807 L -23.72421 2.03465 L -26.84213 2.37128 L -29.96004 2.70786 L -33.07794 3.04446 L -36.19588 3.38104 L -39.31378 3.71764 L -42.43169 4.05424 L -45.5496 4.39082 L -48.66751 4.72742 L -51.78543 5.064 L -54.90334 5.40062 "/>
<path transform="matrix(1,0,0,-1,71.09,111.99799)" stroke-width="1.19553" stroke-linecap="butt" stroke-miterlimit="10" stroke-linejoin="miter" fill="none" stroke="#000080" d="M 106.94879 -17.33679 L 103.83089 -16.90152 L 100.71298 -16.2582 L 97.59506 -15.39005 L 94.47716 -14.2786 L 91.35925 -12.9051 L 88.24133 -11.24837 L 85.12343 -9.28607 L 82.00551 -6.99463 L 78.8876 -4.34898 L 75.7697 -1.3203 L 72.65178 2.11871 L 69.53387 6.0007 L 66.41594 10.35748 L 63.29803 15.22646 L 60.18013 20.64668 L 57.06221 26.65631 L 53.9443 33.30145 L 50.8264 40.62553 L 47.70848 48.68091 "/>
</g>
<symbol id="font_1_3">
<path d="M .201 .116000007 C .19100002 .082 .15800002 .028 .107 .028 C .10400001 .028 .07400001 .028 .053000004 .042000005 C .094000007 .055000005 .09700001 .091 .09700001 .097 C .09700001 .119 .080000009 .134 .057000005 .134 C .029000007 .134 0 .11 0 .073 C 0 .023000002 .056 0 .10500001 0 C .15100003 0 .192 .029000003 .21700001 .071 C .241 .018000002 .296 0 .336 0 C .451 0 .512 .125 .512 .15300001 C .512 .16600001 .49900005 .16600001 .49600003 .16600001 C .48200003 .16600001 .48100005 .16100002 .47700004 .14900002 C .456 .08 .39600004 .028 .34 .028 C .3 .028 .279 .055000005 .279 .093 C .279 .119 .303 .21000001 .331 .321 C .351 .398 .39600004 .423 .42900003 .423 C .43100003 .423 .46200005 .423 .483 .409 C .451 .4 .439 .372 .439 .354 C .439 .33200003 .456 .317 .479 .317 C .50200006 .317 .535 .336 .535 .37800003 C .535 .43400003 .47100006 .451 .43100003 .451 C .381 .451 .34100003 .418 .319 .38 C .301 .421 .255 .451 .199 .451 C .087000008 .451 .023000002 .328 .023000002 .298 C .023000002 .285 .037 .285 .040000008 .285 C .053000004 .285 .054000006 .289 .059000009 .30200003 C .084 .38 .14700002 .423 .19600001 .423 C .229 .423 .256 .405 .256 .357 C .256 .337 .24400002 .287 .23500002 .25300003 L .201 .116000007 Z "/>
</symbol>
<use xlink:href="#font_1_3" transform="matrix(6.9738,0,0,-6.9738,7.3407394,149.68872)"/>
<symbol id="font_1_4">
<path d="M .50900009 .58100005 C .513 .595 .513 .597 .513 .60300007 C .513 .623 .49700005 .63500007 .48000003 .63500007 C .46900005 .63500007 .45000003 .63000008 .43900005 .611 C .43600003 .605 .42800004 .573 .42300005 .55300006 L .40200005 .47000004 C .39600004 .44600005 .36500005 .32000003 .36200003 .30900003 C .36100004 .30900003 .31700004 .22200002 .23900001 .22200002 C .171 .22200002 .171 .287 .171 .305 C .171 .35900004 .194 .42200003 .22400002 .499 C .23600002 .531 .24100001 .54300007 .24100001 .56 C .24100001 .60800006 .2 .64500007 .146 .64500007 C .045000007 .64500007 0 .509 0 .49200005 C 0 .47900004 .014000002 .47900004 .017 .47900004 C .031 .47900004 .032 .48400004 .035 .495 C .060000007 .578 .103 .61700007 .143 .61700007 C .16000001 .61700007 .168 .606 .168 .582 C .168 .559 .15900001 .537 .154 .52400007 C .106000009 .402 .096 .365 .096 .321 C .096 .30400003 .096 .25700004 .135 .22500001 C .16600001 .19900002 .20800002 .194 .235 .194 C .27500005 .194 .31100003 .209 .34400005 .23900001 C .33100004 .18400002 .32000003 .142 .27800004 .09200001 C .25100003 .061000006 .21100001 .027999998 .158 .027999998 C .15100001 .027999998 .104 .027999998 .083000008 .061000006 C .13700001 .067 .13700001 .11500001 .13700001 .116000007 C .13700001 .148 .107999999 .15400002 .098000008 .15400002 C .073 .15400002 .040000004 .134 .040000004 .08800001 C .040000004 .037 .088 0 .15900001 0 C .26000003 0 .38300003 .07800001 .41400004 .20300001 L .50900009 .58100005 Z "/>
</symbol>
<use xlink:href="#font_1_4" transform="matrix(6.9738,0,0,-6.9738,191.46178,136.20365)"/>
<symbol id="font_1_5">
<path d="M .10700001 .098000008 C .133 .124000009 .15100001 .143 .23600002 .21100001 C .25700004 .22800002 .33200003 .28800003 .361 .316 C .422 .37600003 .46000005 .42700003 .46000005 .439 C .46000005 .451 .44700004 .451 .44300003 .451 C .43400003 .451 .431 .449 .426 .441 C .39500005 .395 .374 .38 .35000003 .38 C .338 .38 .323 .381 .29299999 .41 C .259 .444 .237 .451 .214 .451 C .134 .451 .08 .364 .08 .334 C .08 .32500003 .09 .322 .097 .322 C .109 .322 .111 .32500003 .11500001 .336 C .13000001 .37100003 .186 .373 .202 .373 C .22500001 .373 .251 .367 .265 .364 C .32 .352 .32700003 .352 .352 .352 C .32600004 .32500003 .30800004 .307 .21300002 .23100002 C .135 .16900002 .10800001 .14400001 .089 .124000009 C .029 .065000008 0 .021000002 0 .012000001 C 0 0 .012999997 0 .016999998 0 C .027000003 0 .029 .0020000004 .034 .010000001 C .061000006 .048000006 .09200001 .071 .126 .071 C .13800001 .071 .15300001 .07 .18 .045 C .21100001 .015000001 .23100002 0 .263 0 C .37 0 .43700005 .12100001 .43700005 .15500002 C .43700005 .16700001 .426 .16800002 .42000003 .16800002 C .408 .16800002 .40600003 .16300002 .402 .15200001 C .38300003 .102000009 .324 .078 .27500005 .078 C .25200004 .078 .22700002 .083000008 .202 .089 C .156 .099 .148 .099 .13000001 .099 C .128 .099 .113000009 .099 .10700001 .098000008 Z "/>
</symbol>
<use xlink:href="#font_1_5" transform="matrix(6.9738,0,0,-6.9738,73.8054,6.466741)"/>
</svg>
