<?xml version="1.0" encoding="UTF-8" standalone="no"?>
<!DOCTYPE svg PUBLIC "-//W3C//DTD SVG 1.1//EN" "http://www.w3.org/Graphics/SVG/1.1/DTD/svg11.dtd">
<svg xmlns="http://www.w3.org/2000/svg" xmlns:xlink="http://www.w3.org/1999/xlink" version="1.1" width="114.98pt" height="114.98pt" viewBox="0 0 114.98 114.98">
<path transform="matrix(1,0,0,-1,57.49,57.49)" d="M 56.69363 0 C 56.69363 31.31142 31.31142 56.69363 0 56.69363 C -31.31142 56.69363 -56.69363 31.31142 -56.69363 0 C -56.69363 -31.31142 -31.31142 -56.69363 0 -56.69363 C 31.31142 -56.69363 56.69363 -31.31142 56.69363 0 Z M 0 0 " fill="#cccce6"/>
<path transform="matrix(1,0,0,-1,57.49,57.49)" stroke-width="1.59404" stroke-linecap="butt" stroke-dasharray="2.98883,2.98883" stroke-miterlimit="10" stroke-linejoin="miter" fill="none" stroke="#000080" d="M 56.69363 0 C 56.69363 31.31142 31.31142 56.69363 0 56.69363 C -31.31142 56.69363 -56.69363 31.31142 -56.69363 0 C -56.69363 -31.31142 -31.31142 -56.69363 0 -56.69363 C 31.31142 -56.69363 56.69363 -31.31142 56.69363 0 Z M 0 0 "/>
<path transform="matrix(1,0,0,-1,57.49,57.49)" d="M 2.83484 0 C 2.83484 1.56564 1.56564 2.83484 0 2.83484 C -1.56564 2.83484 -2.83484 1.56564 -2.83484 0 C -2.83484 -1.56564 -1.56564 -2.83484 0 -2.83484 C 1.56564 -2.83484 2.83484 -1.56564 2.83484 0 Z M 0 0 "/>
<path transform="matrix(1,0,0,-1,57.49,57.49)" stroke-width="1" stroke-linecap="butt" stroke-dasharray="2.98883,2.98883" stroke-miterlimit="10" stroke-linejoin="miter" fill="none" stroke="#000000" d="M 0 0 L 56.69362 0 "/>
<symbol id="font_0_1">
<path d="M .17500001 .29900003 C .176 .30200003 .22100002 .43100003 .307 .43100003 C .312 .43100003 .34 .43100003 .36 .41700004 C .32500003 .40600003 .32200004 .374 .32200004 .36900003 C .32200004 .35600005 .33100004 .337 .35700003 .337 C .37500004 .337 .40600003 .351 .40600003 .39000003 C .40600003 .44200004 .34100003 .45300005 .30800004 .45300005 C .23900002 .45300005 .20300001 .40300004 .187 .381 C .176 .43400003 .13700001 .45300005 .104 .45300005 C .068 .45300005 .048000009 .43000005 .031999999 .40000005 C .012999997 .36 0 .30100004 0 .29900003 C 0 .28900004 .009999998 .28900004 .015000001 .28900004 C .028000005 .28900004 .029 .29000003 .034 .31200005 C .052 .38200004 .07100001 .43100003 .102 .43100003 C .128 .43100003 .128 .40200005 .128 .39100004 C .128 .37500004 .125 .35600005 .12100001 .34000004 L .046000005 .040000004 C .044 .034 .042999999 .029000003 .042999999 .026 C .042999999 .015000001 .051 0 .07100001 0 C .10100001 0 .10800001 .029000003 .11 .037 L .17500001 .29900003 Z "/>
</symbol>
<use xlink:href="#font_0_1" transform="matrix(9.9626,0,0,-9.9626,84.5629,54.00659)"/>
<symbol id="font_1_1">
<path d="M .342 .083000008 C .342 .052000006 .342 .006 .446 .006 L .49400003 .006 C .514 .006 .526 .006 .526 .030000002 C .526 .053000004 .513 .053000004 .5 .053000004 C .439 .054 .439 .067 .439 .09 L .439 .30500005 C .439 .39400003 .368 .45900003 .21900001 .45900003 C .162 .45900003 .040000004 .45500005 .040000004 .36700005 C .040000004 .323 .075 .30400003 .102 .30400003 C .133 .30400003 .165 .32500003 .165 .36700005 C .165 .39700005 .146 .41400004 .143 .41600005 C .171 .42200003 .20300001 .42300005 .215 .42300005 C .29000003 .42300005 .32500003 .38100005 .32500003 .30500005 L .32500003 .27100004 C .254 .26800005 0 .25900004 0 .114 C 0 .018 .124 0 .193 0 C .273 0 .32000003 .041 .342 .083000008 M .32500003 .24000001 L .32500003 .14500001 C .32500003 .049000004 .23300001 .036000004 .208 .036000004 C .157 .036000004 .117 .071 .117 .115 C .117 .223 .275 .237 .32500003 .24000001 Z "/>
</symbol>
<use xlink:href="#font_1_1" transform="matrix(9.9626,0,0,-9.9626,48.645807,65.57078)"/>
</svg>
