<?xml version="1.0" encoding="UTF-8" standalone="no"?>
<!DOCTYPE svg PUBLIC "-//W3C//DTD SVG 1.1//EN" "http://www.w3.org/Graphics/SVG/1.1/DTD/svg11.dtd">
<svg xmlns="http://www.w3.org/2000/svg" xmlns:xlink="http://www.w3.org/1999/xlink" version="1.1" width="207.185pt" height="174.841pt" viewBox="0 0 207.185 174.841">
<clipPath id="cp0">
<path transform="matrix(1,0,0,-1,.199,174.642)" d="M 0 0 L 194.26303 0 L 194.26303 161.39636 L 0 161.39636 Z "/>
</clipPath>
<g clip-path="url(#cp0)">
<path transform="matrix(1,0,0,-1,.199,174.642)" stroke-width="1.59404" stroke-linecap="butt" stroke-miterlimit="10" stroke-linejoin="miter" fill="none" stroke="#000080" d="M 38.00798 93.2949 C 38.00798 93.2949 41.56772 97.55061 42.93492 98.86263 C 44.30212 100.17464 46.49467 101.7948 47.8619 102.75102 C 49.2291 103.70723 51.42163 105.0033 52.78883 105.75443 C 54.15604 106.50555 56.34859 107.55789 57.71579 108.1647 C 59.083 108.7715 61.27553 109.63338 62.64275 110.12793 C 64.00995 110.62248 66.2025 111.32756 67.5697 111.72911 C 68.9369 112.13065 71.12944 112.70107 72.49664 113.02205 C 73.86385 113.34303 76.0564 113.79382 77.42361 114.04263 C 78.79082 114.29144 80.98335 114.63303 82.35056 114.81534 C 83.71776 114.99765 85.91031 115.23709 87.27751 115.3567 C 88.64471 115.47633 90.83725 115.61827 92.20447 115.67754 C 93.57167 115.73679 95.76422 115.78381 97.13142 115.78381 C 98.49863 115.78381 100.69116 115.73677 102.05836 115.67754 C 103.42557 115.61829 105.61812 115.47636 106.98534 115.35674 C 108.35254 115.23712 110.54507 114.99767 111.91228 114.81535 C 113.27948 114.63304 115.47203 114.29146 116.83923 114.04265 C 118.20644 113.79384 120.39897 113.34306 121.76619 113.02208 C 123.13339 112.7011 125.32594 112.1307 126.69315 111.72917 C 128.06035 111.32762 130.25289 110.62254 131.62009 110.12799 C 132.98729 109.63344 135.17984 108.77158 136.54706 108.16478 C 137.91426 107.55797 140.1068 106.50566 141.474 105.75453 C 142.8412 105.0034 145.03376 103.70735 146.40096 102.75116 C 147.76816 101.79495 149.9607 100.1748 151.32791 98.86281 C 152.69512 97.55081 156.25487 93.29518 156.25487 93.29518 "/>
<path transform="matrix(1,0,0,-1,.199,174.642)" stroke-width="1.59404" stroke-linecap="butt" stroke-miterlimit="10" stroke-linejoin="miter" fill="none" stroke="#000080" d="M 33.78487 80.80911 C 33.78487 80.80911 33.80019 81.44983 33.80608 81.61324 C 33.81197 81.77664 33.82141 81.89514 33.8273 81.98692 C 33.83318 82.07869 33.84264 82.20116 33.84853 82.27472 C 33.8544 82.34828 33.86386 82.45383 33.86974 82.51712 C 33.87563 82.58043 33.88509 82.67448 33.89096 82.73099 C 33.89685 82.78749 33.9063 82.87292 33.91219 82.9244 C 33.91808 82.97588 33.92752 83.05438 33.93341 83.10199 C 33.93929 83.14958 33.94873 83.22302 33.95462 83.26752 C 33.9605 83.31201 33.96996 83.38077 33.97583 83.42268 C 33.98172 83.46461 33.99118 83.52992 33.99706 83.5697 C 34.00294 83.6095 34.01239 83.6716 34.01828 83.70949 C 34.02417 83.74738 34.03362 83.80655 34.0395 83.8428 C 34.04538 83.87907 34.05484 83.93604 34.06073 83.97086 C 34.0666 84.00569 34.07607 84.0603 34.08194 84.09386 C 34.08783 84.12741 34.09729 84.18028 34.10316 84.2127 C 34.10905 84.24513 34.11848 84.29626 34.12437 84.32764 C 34.13026 84.359 34.13971 84.40839 34.1456 84.4388 C 34.15147 84.46922 34.16093 84.51735 34.16682 84.5469 C 34.1727 84.57646 34.18216 84.62308 34.18803 84.65182 C 34.19392 84.68057 34.20338 84.72614 34.20926 84.75418 C 34.21515 84.78223 34.2246 84.82664 34.23048 84.854 C 34.23637 84.88135 34.24582 84.92459 34.25171 84.9513 C 34.25758 84.97798 34.26703 85.0204 34.27292 85.04651 C 34.2788 85.0726 34.28825 85.11395 34.29413 85.13951 C 34.30002 85.16507 34.30948 85.20564 34.31535 85.23068 C 34.32124 85.25574 34.3307 85.29556 34.33658 85.3201 C 34.34247 85.34464 34.35191 85.38354 34.3578 85.40761 C 34.36368 85.43167 34.37314 85.46999 34.37903 85.4936 C 34.3849 85.51723 34.39436 85.55475 34.40024 85.57796 C 34.40613 85.60118 34.41559 85.63814 34.42146 85.66096 C 34.42735 85.6838 34.4368 85.72017 34.44267 85.7426 C 34.44856 85.76505 34.45801 85.80069 34.4639 85.82275 C 34.46977 85.84483 34.47923 85.88005 34.48512 85.9018 C 34.491 85.92354 34.50046 85.9581 34.50633 85.9795 C 34.51222 86.00092 34.52168 86.03505 34.52756 86.05617 C 34.53345 86.07729 34.54291 86.11093 34.54878 86.13173 C 34.55467 86.15253 34.56412 86.1856 34.57 86.20612 C 34.57588 86.22664 34.58533 86.25943 34.59122 86.27968 C 34.59709 86.29993 34.60655 86.3321 34.61244 86.35207 C 34.61832 86.37202 34.62778 86.40392 34.63365 86.42363 C 34.63954 86.44334 34.649 86.47482 34.65488 86.49428 C 34.66077 86.51373 34.67021 86.54474 34.6761 86.56396 C 34.68198 86.58319 34.69144 86.6139 34.69733 86.63289 C 34.7032 86.65187 34.71266 86.68214 34.71855 86.70091 C 34.72443 86.7197 34.73389 86.74968 34.73976 86.76826 C 34.74565 86.78683 34.7551 86.81648 34.76097 86.83484 C 34.76686 86.85318 34.7763 86.88242 34.7822 86.90057 C 34.78807 86.91872 34.79753 86.94774 34.80342 86.9657 C 34.8093 86.98364 34.81876 87.01225 34.82465 87.03003 C 34.83052 87.04779 34.83998 87.07619 34.84586 87.09378 C 34.85175 87.11139 34.8612 87.13951 34.86708 87.15692 C 34.87297 87.17432 34.88242 87.20207 34.8883 87.21928 C 34.89418 87.23651 34.90363 87.26408 34.90952 87.28116 C 34.91539 87.29823 34.92485 87.32542 34.93074 87.34233 C 34.93661 87.35924 34.94608 87.38629 34.95195 87.40303 C 34.95784 87.41978 34.9673 87.44658 34.97318 87.46317 C 34.97906 87.47975 34.98851 87.50621 34.9944 87.52264 C 35.00029 87.53908 35.00974 87.56538 35.01563 87.58168 C 35.0215 87.59798 35.03096 87.62396 35.03685 87.6401 C 35.04272 87.65625 35.05219 87.6821 35.05806 87.69812 C 35.06395 87.71414 35.0734 87.73978 35.07927 87.75565 C 35.08516 87.77151 35.0946 87.79686 35.1005 87.81259 C 35.10638 87.82832 35.11583 87.85353 35.12172 87.86914 C 35.1276 87.88475 35.13705 87.90967 35.14294 87.92517 C 35.14882 87.94066 35.15828 87.96545 35.16415 87.98082 C 35.17004 87.99619 35.1795 88.02077 35.18538 88.03601 C 35.19127 88.05127 35.20071 88.07559 35.2066 88.09071 C 35.2125 88.10583 35.22192 88.13005 35.22781 88.14507 C 35.23369 88.16006 35.24315 88.18402 35.24904 88.19893 C 35.25491 88.21382 35.26437 88.23767 35.27025 88.25246 C 35.27614 88.26726 35.2856 88.29094 35.29147 88.3056 C 35.29736 88.32028 35.30681 88.34372 35.3127 88.35829 C 35.31859 88.37285 35.32803 88.39618 35.33392 88.41066 C 35.3398 88.42513 35.34926 88.44823 35.35515 88.4626 C 35.36102 88.47696 35.37048 88.49995 35.37636 88.51422 C 35.38225 88.5285 35.3917 88.55135 35.39757 88.56552 C 35.40346 88.57968 35.4129 88.60231 35.4188 88.61638 C 35.42468 88.63046 35.43413 88.653 35.44002 88.66698 C 35.44589 88.68094 35.45535 88.7033 35.46124 88.71718 C 35.46712 88.73105 35.47658 88.7533 35.48245 88.76709 C 35.48834 88.7809 35.4978 88.803 35.50368 88.81668 C 35.50957 88.83038 35.51901 88.8523 35.5249 88.8659 C 35.53079 88.87953 35.54022 88.90137 35.54611 88.91489 C 35.55199 88.92842 35.56145 88.95004 35.56734 88.96347 C 35.57321 88.97691 35.58267 88.99847 35.58855 89.01184 C 35.59444 89.02522 35.6039 89.04663 35.60977 89.05992 C 35.61566 89.0732 35.6251 89.09444 35.631 89.10764 C 35.63689 89.12083 35.64633 89.14201 35.65222 89.15512 C 35.6581 89.16824 35.66756 89.18922 35.67345 89.20227 C 35.67932 89.21532 35.68878 89.2362 35.69466 89.24919 C 35.70055 89.26218 35.70999 89.28297 35.71587 89.29587 C 35.72176 89.30876 35.73122 89.32938 35.73709 89.3422 C 35.74298 89.355 35.75243 89.37556 35.75832 89.38832 C 35.76419 89.40108 35.77365 89.42145 35.77954 89.43413 C 35.78542 89.44681 35.79488 89.46713 35.80075 89.47975 C 35.80664 89.49237 35.8161 89.51257 35.82198 89.52512 C 35.82787 89.53766 35.83733 89.55771 35.8432 89.57018 C 35.84909 89.58264 35.85852 89.60265 35.86441 89.61505 C 35.87029 89.62746 35.87975 89.64728 35.88564 89.6596 C 35.89151 89.67194 35.90097 89.69173 35.90685 89.70401 C 35.91273 89.7163 35.9222 89.73596 35.92807 89.74817 C 35.93396 89.76038 35.94342 89.77989 35.9493 89.79204 C 35.95518 89.80418 35.96463 89.82367 35.97052 89.83575 C 35.9764 89.84784 35.98586 89.86716 35.99174 89.87918 C 35.99762 89.8912 36.00708 89.91048 36.01295 89.92244 C 36.01884 89.9344 36.02829 89.95358 36.03416 89.96548 C 36.04005 89.97739 36.04951 89.99643 36.05539 90.00827 C 36.06128 90.02013 36.07072 90.03911 36.07661 90.05089 C 36.08249 90.06267 36.09195 90.08153 36.09784 90.09326 C 36.10371 90.10498 36.11317 90.12378 36.11906 90.13545 C 36.12494 90.14713 36.1344 90.16585 36.14027 90.17746 C 36.14616 90.18907 36.15562 90.20767 36.1615 90.21922 C 36.16739 90.23077 36.17682 90.24931 36.18271 90.26083 C 36.18858 90.27234 36.19804 90.29074 36.20393 90.30219 C 36.20981 90.31364 36.21927 90.33202 36.22516 90.34341 C 36.23103 90.35483 36.2405 90.37311 36.24637 90.38445 C 36.25226 90.39578 36.26172 90.41394 36.2676 90.42523 C 36.27348 90.43654 36.28293 90.45465 36.28882 90.4659 C 36.2947 90.47716 36.30415 90.49513 36.31004 90.50632 C 36.31592 90.51752 36.32538 90.53546 36.33127 90.54663 C 36.33714 90.55779 36.34659 90.57565 36.35246 90.58676 C 36.35835 90.59785 36.36781 90.61559 36.37369 90.62663 C 36.37958 90.63768 36.38902 90.65543 36.39491 90.66641 C 36.4008 90.67741 36.41025 90.695 36.41614 90.70596 C 36.42201 90.7169 36.43147 90.73448 36.43736 90.74539 C 36.44324 90.7563 36.4527 90.7738 36.45857 90.78465 C 36.46446 90.79552 36.47392 90.81288 36.4798 90.8237 C 36.48569 90.8345 36.49512 90.85187 36.501 90.86263 C 36.5069 90.8734 36.51634 90.89063 36.52223 90.90135 C 36.5281 90.91206 36.53757 90.92928 36.54346 90.93996 C 36.54933 90.95065 36.55879 90.96779 36.56467 90.97842 C 36.57056 90.98904 36.58002 91.00606 36.58589 91.01665 C 36.59178 91.02725 36.60123 91.04425 36.60712 91.0548 C 36.613 91.06535 36.62245 91.08221 36.62834 91.09273 C 36.63422 91.10323 36.64368 91.12009 36.64957 91.13057 C 36.65544 91.14104 36.66489 91.15782 36.67076 91.16824 C 36.67665 91.17868 36.68611 91.19536 36.69199 91.20573 C 36.69788 91.21613 36.70732 91.2328 36.71321 91.24313 C 36.7191 91.25346 36.72855 91.27 36.73444 91.28032 C 36.74031 91.29062 36.74977 91.30714 36.75566 91.31743 C 36.76154 91.3277 36.771 91.34418 36.77687 91.3544 C 36.78276 91.36461 36.79222 91.38097 36.7981 91.39116 C 36.80399 91.40134 36.81342 91.4177 36.8193 91.42784 C 36.8252 91.43797 36.83464 91.45421 36.84053 91.46432 C 36.8464 91.47443 36.85587 91.49066 36.86176 91.50075 C 36.86763 91.51082 36.87709 91.52698 36.88297 91.53702 C 36.88885 91.54706 36.89832 91.56311 36.90419 91.57309 C 36.91008 91.58308 36.91953 91.59915 36.92542 91.6091 C 36.9313 91.61906 36.94075 91.635 36.94664 91.64493 C 36.95251 91.65485 36.96198 91.67078 36.96786 91.68068 C 36.97374 91.69057 36.98318 91.70645 36.98906 91.7163 C 36.99495 91.72615 37.00441 91.74191 37.01028 91.75172 C 37.01617 91.76155 37.02562 91.77733 37.03151 91.78711 C 37.0374 91.79688 37.04684 91.81255 37.05273 91.82228 C 37.05861 91.83203 37.06807 91.84769 37.07396 91.8574 C 37.07983 91.86711 37.0893 91.8827 37.09517 91.8924 C 37.10106 91.90208 37.11052 91.91757 37.1164 91.92722 C 37.12228 91.93687 37.13171 91.95236 37.1376 91.96198 C 37.1435 91.97159 37.15294 91.98698 37.15883 91.99655 C 37.1647 92.00613 37.17416 92.02153 37.18005 92.03108 C 37.18593 92.04063 37.19539 92.05595 37.20126 92.06548 C 37.20715 92.07498 37.21661 92.09021 37.22249 92.09969 C 37.22838 92.10918 37.23784 92.1244 37.24371 92.13387 C 37.2496 92.14333 37.25905 92.15845 37.26494 92.16786 C 37.27081 92.17729 37.28027 92.19241 37.28616 92.20181 C 37.29204 92.21121 37.30148 92.22629 37.30736 92.23566 C 37.31325 92.24503 37.32271 92.26 37.32858 92.26932 C 37.33447 92.27863 37.34393 92.29362 37.34981 92.30292 C 37.3557 92.31223 37.36514 92.3271 37.37103 92.33638 C 37.3769 92.34566 37.38637 92.36052 37.39226 92.36977 C 37.39813 92.37901 37.4076 92.39384 37.41347 92.40306 C 37.41936 92.41228 37.42882 92.427 37.4347 92.43619 C 37.44058 92.44537 37.45003 92.4601 37.4559 92.46925 C 37.46179 92.4784 37.47124 92.49306 37.47713 92.50218 C 37.483 92.51129 37.49246 92.52596 37.49835 92.53505 C 37.50423 92.54413 37.51369 92.55875 37.51958 92.56781 C 37.52545 92.57686 37.53491 92.5914 37.54079 92.60043 C 37.54668 92.60945 37.55614 92.62398 37.56201 92.633 C 37.5679 92.642 37.57735 92.65642 37.58324 92.6654 C 37.58911 92.67438 37.59857 92.68881 37.60446 92.69777 C 37.61034 92.70673 37.61978 92.7211 37.62567 92.73003 C 37.63155 92.73895 37.641 92.75325 37.64688 92.76215 C 37.65277 92.77104 37.66223 92.78534 37.6681 92.7942 C 37.674 92.80307 37.68344 92.81728 37.68933 92.82613 C 37.6952 92.83498 37.70467 92.84918 37.71056 92.858 C 37.71643 92.86684 37.72589 92.88101 37.73178 92.8898 C 37.73766 92.89859 37.74712 92.91266 37.75299 92.92143 C 37.75888 92.9302 37.76833 92.94427 37.7742 92.95302 C 37.78009 92.96176 37.78954 92.97578 37.79543 92.98448 C 37.80132 92.9932 37.81076 93.0072 37.81665 93.0159 C 37.82253 93.0246 37.83199 93.03856 37.83788 93.04723 C 37.84375 93.0559 37.85321 93.06976 37.85909 93.07838 C 37.86497 93.08702 37.87444 93.10092 37.88031 93.10954 C 37.8862 93.11816 37.89565 93.13196 37.90154 93.14055 C 37.90742 93.14914 37.91687 93.16293 37.92276 93.17151 C 37.92863 93.18008 37.93808 93.19383 37.94397 93.20238 C 37.94984 93.21092 37.9593 93.22462 37.96518 93.23314 C 37.97107 93.24165 37.98053 93.25534 37.9864 93.26384 C 37.9923 93.27234 38.00763 93.2944 38.00763 93.2944 "/>
<path transform="matrix(1,0,0,-1,.199,174.642)" stroke-width="1.59404" stroke-linecap="butt" stroke-miterlimit="10" stroke-linejoin="miter" fill="none" stroke="#000080" d="M 156.25505 93.2949 C 156.25505 93.2949 156.27037 93.2728 156.27626 93.2643 C 156.28214 93.2558 156.2916 93.24216 156.29747 93.23364 C 156.30336 93.22514 156.31282 93.2114 156.3187 93.20285 C 156.32459 93.1943 156.33403 93.1806 156.33992 93.17204 C 156.34581 93.16347 156.35526 93.14966 156.36115 93.14105 C 156.36702 93.13245 156.37648 93.11864 156.38237 93.11002 C 156.38825 93.1014 156.3977 93.08755 156.40358 93.07892 C 156.40947 93.07028 156.41892 93.05637 156.42479 93.0477 C 156.43068 93.03903 156.44013 93.02513 156.44602 93.01643 C 156.4519 93.00774 156.46135 92.99373 156.46724 92.985 C 156.47312 92.97629 156.48258 92.96225 156.48847 92.9535 C 156.49434 92.94476 156.5038 92.93074 156.50968 92.92197 C 156.51557 92.9132 156.52503 92.89906 156.5309 92.89029 C 156.53679 92.8815 156.54624 92.86736 156.55213 92.85854 C 156.55802 92.84973 156.56746 92.83551 156.57335 92.82666 C 156.57923 92.81781 156.58867 92.80356 156.59456 92.7947 C 156.60044 92.78583 156.6099 92.77158 156.61577 92.76268 C 156.62166 92.75378 156.63112 92.73944 156.637 92.73051 C 156.64289 92.72159 156.65233 92.70724 156.65822 92.6983 C 156.66411 92.68935 156.67356 92.67493 156.67945 92.66595 C 156.68532 92.65697 156.69478 92.64249 156.70067 92.63347 C 156.70655 92.62447 156.716 92.61 156.72188 92.60097 C 156.72777 92.59195 156.73722 92.57736 156.74309 92.5683 C 156.74898 92.55925 156.75844 92.54468 156.76432 92.53558 C 156.7702 92.5265 156.77965 92.51184 156.78554 92.50272 C 156.79141 92.4936 156.80088 92.47891 156.80677 92.46977 C 156.81264 92.46062 156.8221 92.4459 156.82798 92.43674 C 156.83386 92.42755 156.84333 92.41278 156.8492 92.40356 C 156.85509 92.39435 156.86455 92.37958 156.87042 92.37033 C 156.87631 92.36108 156.88576 92.3462 156.89165 92.33693 C 156.89752 92.32765 156.90697 92.31273 156.91286 92.30342 C 156.91873 92.29413 156.92819 92.27919 156.93407 92.26988 C 156.93996 92.26056 156.94942 92.24551 156.95529 92.23616 C 156.96118 92.22679 156.97064 92.21178 156.97652 92.20238 C 156.9824 92.19298 156.99185 92.17786 156.99774 92.16843 C 157.00362 92.15901 157.01308 92.14384 157.01897 92.1344 C 157.02484 92.12494 157.0343 92.10977 157.04018 92.10028 C 157.04607 92.09079 157.05551 92.07552 157.06139 92.066 C 157.06728 92.05649 157.07674 92.0412 157.08261 92.03165 C 157.0885 92.0221 157.09795 92.00673 157.10384 91.99713 C 157.10971 91.98755 157.11917 91.97209 157.12506 91.9625 C 157.13094 91.95288 157.1404 91.93744 157.14629 91.9278 C 157.15216 91.91817 157.16162 91.9026 157.1675 91.89293 C 157.17339 91.88324 157.18285 91.86769 157.18872 91.85797 C 157.19461 91.84827 157.20406 91.83264 157.20995 91.82288 C 157.21582 91.81311 157.22527 91.7974 157.23116 91.78763 C 157.23703 91.77785 157.24649 91.76215 157.25238 91.75232 C 157.25826 91.74251 157.26772 91.7267 157.27359 91.71684 C 157.27948 91.70699 157.28894 91.69115 157.29482 91.68127 C 157.3007 91.67139 157.31015 91.65546 157.31604 91.64552 C 157.32192 91.6356 157.33138 91.61961 157.33727 91.60965 C 157.34314 91.5997 157.3526 91.5837 157.35849 91.5737 C 157.36437 91.5637 157.37381 91.54759 157.37969 91.53757 C 157.38558 91.52753 157.39504 91.5114 157.40091 91.50134 C 157.4068 91.49127 157.41625 91.47505 157.42214 91.46495 C 157.42803 91.45483 157.43747 91.43854 157.44336 91.4284 C 157.44924 91.41826 157.4587 91.40195 157.46459 91.39177 C 157.47046 91.38158 157.47992 91.36516 157.4858 91.35495 C 157.49169 91.34473 157.50115 91.32831 157.50702 91.31805 C 157.51291 91.30779 157.52236 91.29124 157.52825 91.28094 C 157.53414 91.27063 157.54357 91.25403 157.54946 91.2437 C 157.55533 91.23335 157.56479 91.21674 157.57068 91.20636 C 157.57656 91.19598 157.58602 91.17924 157.59189 91.16882 C 157.59778 91.15842 157.60724 91.14166 157.61312 91.1312 C 157.619 91.12074 157.62845 91.10388 157.63434 91.09337 C 157.64023 91.08284 157.64968 91.06592 157.65557 91.05537 C 157.66144 91.04483 157.6709 91.0279 157.67679 91.01729 C 157.68267 91.0067 157.69211 90.98961 157.69799 90.97899 C 157.70388 90.96835 157.71334 90.95126 157.71921 90.9406 C 157.7251 90.92993 157.73455 90.91272 157.74044 90.902 C 157.74633 90.89125 157.75577 90.87398 157.76166 90.86322 C 157.76753 90.85246 157.777 90.83516 157.78289 90.82436 C 157.78876 90.81354 157.79822 90.7961 157.8041 90.78525 C 157.80998 90.7744 157.81945 90.75694 157.82532 90.74605 C 157.8312 90.73514 157.84066 90.71758 157.84654 90.7066 C 157.85243 90.69565 157.86186 90.678 157.86775 90.667 C 157.87363 90.65602 157.88309 90.63835 157.88898 90.6273 C 157.89485 90.61626 157.90431 90.59845 157.91019 90.58736 C 157.91608 90.57625 157.92554 90.55844 157.93141 90.54729 C 157.9373 90.53615 157.94675 90.51822 157.95264 90.507 C 157.95853 90.4958 157.96797 90.47777 157.97386 90.46652 C 157.97974 90.45528 157.9892 90.43721 157.99509 90.42592 C 158.00096 90.41463 158.0104 90.39641 158.01628 90.38507 C 158.02217 90.37373 158.03163 90.35548 158.0375 90.34409 C 158.0434 90.33269 158.05284 90.31433 158.05873 90.30287 C 158.06462 90.29141 158.07407 90.27298 158.07996 90.26146 C 158.08583 90.24995 158.09529 90.23146 158.10118 90.21991 C 158.10706 90.20834 158.11652 90.18971 158.12239 90.1781 C 158.12828 90.16649 158.13774 90.14781 158.14362 90.13615 C 158.1495 90.1245 158.15895 90.1057 158.16484 90.09395 C 158.17073 90.08221 158.18016 90.06332 158.18605 90.05154 C 158.19193 90.03976 158.20139 90.02081 158.20728 90.00897 C 158.21315 89.99713 158.22261 89.97804 158.22849 89.96614 C 158.23438 89.95424 158.24384 89.93512 158.24971 89.92316 C 158.2556 89.9112 158.26506 89.89192 158.27094 89.8799 C 158.27683 89.86787 158.28627 89.8485 158.29216 89.8364 C 158.29804 89.82431 158.3075 89.80492 158.31339 89.79277 C 158.31926 89.78062 158.3287 89.76105 158.33458 89.74884 C 158.34047 89.73663 158.34993 89.71701 158.3558 89.70474 C 158.3617 89.69247 158.37116 89.6727 158.37703 89.66035 C 158.38292 89.64801 158.39237 89.62813 158.39826 89.61572 C 158.40413 89.60332 158.41359 89.58336 158.41948 89.5709 C 158.42536 89.55844 158.43482 89.53833 158.44069 89.5258 C 158.44658 89.51328 158.45604 89.49312 158.46192 89.48051 C 158.4678 89.46791 158.47727 89.44757 158.48314 89.43489 C 158.48903 89.42221 158.49846 89.40178 158.50435 89.38902 C 158.51023 89.37627 158.51969 89.35577 158.52558 89.34296 C 158.53145 89.33014 158.54091 89.30946 158.5468 89.29657 C 158.55268 89.28368 158.56214 89.26295 158.56801 89.24998 C 158.5739 89.23701 158.58336 89.21611 158.58924 89.20306 C 158.59513 89.19 158.60457 89.16896 158.61046 89.15584 C 158.61634 89.14272 158.6258 89.12163 158.63169 89.10843 C 158.63756 89.09523 158.647 89.07393 158.6529 89.06064 C 158.65877 89.04736 158.66823 89.02602 158.6741 89.01265 C 158.68 88.9993 158.68946 88.97775 158.69533 88.9643 C 158.70122 88.95084 158.71067 88.92917 158.71656 88.91563 C 158.72243 88.9021 158.73189 88.88036 158.73778 88.86673 C 158.74365 88.8531 158.75312 88.83115 158.759 88.81744 C 158.76488 88.80374 158.77434 88.78171 158.78022 88.76791 C 158.7861 88.75414 158.79557 88.7319 158.80144 88.718 C 158.80733 88.70412 158.81676 88.68172 158.82265 88.66776 C 158.82854 88.65378 158.83798 88.6313 158.84387 88.61723 C 158.84975 88.60318 158.8592 88.58047 158.8651 88.56631 C 158.87097 88.55214 158.88043 88.52936 158.8863 88.51509 C 158.8922 88.50084 158.90166 88.47781 158.90753 88.46346 C 158.91342 88.44908 158.92287 88.4259 158.92876 88.41144 C 158.93465 88.39699 158.94409 88.37372 158.94998 88.35915 C 158.95586 88.34459 158.9653 88.32109 158.97119 88.30641 C 158.97707 88.29175 158.98653 88.26813 158.9924 88.25334 C 158.99829 88.23857 159.00775 88.21474 159.01363 88.19983 C 159.01952 88.18494 159.02896 88.16089 159.03485 88.14589 C 159.04074 88.13087 159.05019 88.10674 159.05608 88.09161 C 159.06195 88.07649 159.07141 88.05208 159.0773 88.03685 C 159.08318 88.02162 159.09264 87.99709 159.09851 87.98174 C 159.1044 87.96637 159.11386 87.9416 159.11974 87.9261 C 159.12563 87.91061 159.13506 87.88562 159.14095 87.87001 C 159.14684 87.8544 159.15628 87.82928 159.16217 87.81355 C 159.16805 87.79782 159.1775 87.77238 159.1834 87.75652 C 159.18927 87.74065 159.19873 87.7151 159.2046 87.6991 C 159.2105 87.68309 159.21996 87.65726 159.22583 87.6411 C 159.23172 87.62494 159.24117 87.59886 159.24706 87.58257 C 159.25295 87.56627 159.26239 87.54007 159.26828 87.52364 C 159.27416 87.5072 159.2836 87.48065 159.28949 87.46408 C 159.29537 87.4475 159.30483 87.42078 159.3107 87.40404 C 159.31659 87.3873 159.32605 87.36026 159.33193 87.34335 C 159.33782 87.32645 159.34726 87.29916 159.35315 87.2821 C 159.35904 87.26505 159.36849 87.23755 159.37438 87.22032 C 159.38025 87.2031 159.38971 87.17526 159.3956 87.15787 C 159.40148 87.14046 159.41094 87.11243 159.41681 87.09485 C 159.4227 87.07727 159.43216 87.04887 159.43804 87.03111 C 159.44393 87.01334 159.45336 86.98463 159.45925 86.96667 C 159.46514 86.94873 159.47458 86.91982 159.48047 86.90166 C 159.48635 86.88351 159.4958 86.85419 159.5017 86.83583 C 159.50757 86.81749 159.51703 86.78792 159.5229 86.76938 C 159.5288 86.75082 159.53826 86.72086 159.54413 86.70206 C 159.55002 86.68327 159.55947 86.65292 159.56536 86.63394 C 159.57125 86.61494 159.58069 86.58435 159.58658 86.56514 C 159.59246 86.54591 159.6019 86.51482 159.60779 86.49536 C 159.61367 86.4759 159.62313 86.44452 159.629 86.42482 C 159.63489 86.40512 159.64435 86.37326 159.65023 86.35329 C 159.65612 86.3333 159.66558 86.30103 159.67145 86.28079 C 159.67734 86.26056 159.68679 86.22786 159.69268 86.20734 C 159.69855 86.18681 159.70801 86.15364 159.7139 86.13286 C 159.71977 86.11206 159.72924 86.07854 159.7351 86.05745 C 159.741 86.03636 159.75046 86.00221 159.75634 85.98079 C 159.76222 85.95937 159.77167 85.92473 159.77754 85.903 C 159.78343 85.88127 159.79288 85.84619 159.79877 85.82411 C 159.80464 85.80205 159.8141 85.76625 159.81999 85.74382 C 159.82587 85.72137 159.83533 85.68515 159.8412 85.66235 C 159.84709 85.63954 159.85655 85.60258 159.86243 85.57936 C 159.86832 85.55614 159.87778 85.51854 159.88365 85.49492 C 159.88954 85.4713 159.89899 85.43312 159.90488 85.40906 C 159.91075 85.385 159.9202 85.34595 159.92609 85.32141 C 159.93196 85.29688 159.94142 85.25723 159.94731 85.23221 C 159.95319 85.20718 159.96265 85.16661 159.96852 85.14104 C 159.97441 85.11548 159.98387 85.07402 159.98975 85.04791 C 159.99564 85.02182 160.00508 84.97957 160.01097 84.95288 C 160.01685 84.92618 160.0263 84.88283 160.0322 84.8555 C 160.03807 84.82819 160.04753 84.78389 160.05342 84.75589 C 160.0593 84.72789 160.06876 84.68234 160.07463 84.65358 C 160.08052 84.62482 160.08997 84.57803 160.09584 84.54851 C 160.10173 84.51897 160.11118 84.47102 160.11707 84.44061 C 160.12294 84.4102 160.1324 84.36069 160.13829 84.32933 C 160.14417 84.29799 160.15363 84.24704 160.15952 84.21466 C 160.16539 84.18228 160.17485 84.12943 160.18073 84.09587 C 160.18662 84.06233 160.19608 84.00758 160.20195 83.97278 C 160.20784 83.93796 160.21729 83.88121 160.22318 83.84497 C 160.22907 83.80873 160.2385 83.7494 160.24439 83.71156 C 160.25026 83.6737 160.25972 83.61182 160.26561 83.5721 C 160.27149 83.53236 160.28095 83.46713 160.28682 83.42522 C 160.29271 83.38329 160.30217 83.31435 160.30805 83.26991 C 160.31394 83.22548 160.32338 83.15239 160.32927 83.10486 C 160.33516 83.05733 160.3446 82.9786 160.3505 82.92722 C 160.35637 82.87581 160.36583 82.79073 160.37172 82.73436 C 160.3776 82.678 160.38706 82.58406 160.39293 82.52084 C 160.39882 82.45764 160.40827 82.35204 160.41414 82.27869 C 160.42003 82.20535 160.42948 82.08365 160.43537 81.99228 C 160.44126 81.9009 160.4507 81.77718 160.45659 81.62004 C 160.46247 81.46289 160.47782 80.85962 160.47782 80.85962 "/>
<path transform="matrix(1,0,0,-1,.199,174.642)" stroke-width="1.59404" stroke-linecap="butt" stroke-miterlimit="10" stroke-linejoin="miter" fill="none" stroke="#000080" d="M 38.00798 68.10143 C 38.00798 68.10143 41.56772 63.84572 42.93492 62.5337 C 44.30212 61.22171 46.49467 59.60153 47.8619 58.64532 C 49.2291 57.6891 51.42163 56.39304 52.78883 55.6419 C 54.15604 54.89078 56.34859 53.83844 57.71579 53.23163 C 59.083 52.62483 61.27553 51.76295 62.64275 51.2684 C 64.00995 50.77385 66.2025 50.06877 67.5697 49.66722 C 68.9369 49.26569 71.12944 48.69527 72.49664 48.37428 C 73.86385 48.0533 76.0564 47.60251 77.42361 47.3537 C 78.79082 47.10489 80.98335 46.76332 82.35056 46.581 C 83.71776 46.39868 85.91031 46.15926 87.27751 46.03963 C 88.64471 45.92 90.83725 45.77806 92.20447 45.7188 C 93.57167 45.65955 95.76422 45.61252 97.13142 45.61252 C 98.49863 45.61252 100.69116 45.65956 102.05836 45.7188 C 103.42557 45.77805 105.61812 45.91997 106.98534 46.0396 C 108.35254 46.15923 110.54507 46.39867 111.91228 46.58098 C 113.27948 46.7633 115.47203 47.10487 116.83923 47.35368 C 118.20644 47.6025 120.39897 48.05327 121.76619 48.37425 C 123.13339 48.69524 125.32594 49.26563 126.69315 49.66716 C 128.06035 50.06871 130.25289 50.77379 131.62009 51.26834 C 132.98729 51.7629 135.17984 52.62476 136.54706 53.23155 C 137.91426 53.83836 140.1068 54.89067 141.474 55.6418 C 142.8412 56.39293 145.03376 57.68898 146.40096 58.64519 C 147.76816 59.60138 149.9607 61.22154 151.32791 62.53352 C 152.69512 63.84552 156.25487 68.10115 156.25487 68.10115 "/>
<path transform="matrix(1,0,0,-1,.199,174.642)" stroke-width="1.59404" stroke-linecap="butt" stroke-miterlimit="10" stroke-linejoin="miter" fill="none" stroke="#000080" d="M 33.78487 80.58722 C 33.78487 80.58722 33.80019 79.9465 33.80608 79.7831 C 33.81197 79.61969 33.82141 79.50119 33.8273 79.40941 C 33.83318 79.31764 33.84264 79.19518 33.84853 79.12161 C 33.8544 79.04805 33.86386 78.94252 33.86974 78.87921 C 33.87563 78.81592 33.88509 78.72186 33.89096 78.66534 C 33.89685 78.60884 33.9063 78.5234 33.91219 78.47194 C 33.91808 78.42046 33.92752 78.34195 33.93341 78.29434 C 33.93929 78.24675 33.94873 78.17331 33.95462 78.12881 C 33.9605 78.08432 33.96996 78.01558 33.97583 77.97365 C 33.98172 77.93172 33.99118 77.86641 33.99706 77.82663 C 34.00294 77.78685 34.01239 77.72473 34.01828 77.68684 C 34.02417 77.64896 34.03362 77.58978 34.0395 77.55353 C 34.04538 77.51727 34.05484 77.46031 34.06073 77.42548 C 34.0666 77.39066 34.07607 77.33603 34.08194 77.30247 C 34.08783 77.26892 34.09729 77.21605 34.10316 77.18362 C 34.10905 77.1512 34.11848 77.10007 34.12437 77.0687 C 34.13026 77.03734 34.13971 76.98795 34.1456 76.95753 C 34.15147 76.92711 34.16093 76.87898 34.16682 76.84943 C 34.1727 76.81987 34.18216 76.77325 34.18803 76.7445 C 34.19392 76.71576 34.20338 76.6702 34.20926 76.64215 C 34.21515 76.6141 34.2246 76.56969 34.23048 76.54233 C 34.23637 76.51498 34.24582 76.47174 34.25171 76.44504 C 34.25758 76.41835 34.26703 76.37593 34.27292 76.34984 C 34.2788 76.32373 34.28825 76.28238 34.29413 76.25682 C 34.30002 76.23128 34.30948 76.19069 34.31535 76.16565 C 34.32124 76.1406 34.3307 76.10078 34.33658 76.07625 C 34.34247 76.05171 34.35191 76.01279 34.3578 75.98872 C 34.36368 75.96466 34.37314 75.92635 34.37903 75.90273 C 34.3849 75.8791 34.39436 75.84158 34.40024 75.81837 C 34.40613 75.79515 34.41559 75.7582 34.42146 75.73537 C 34.42735 75.71254 34.4368 75.67618 34.44267 75.65373 C 34.44856 75.63129 34.45801 75.59564 34.4639 75.57358 C 34.46977 75.5515 34.47923 75.51628 34.48512 75.49454 C 34.491 75.4728 34.50046 75.43823 34.50633 75.41682 C 34.51222 75.39542 34.52168 75.36128 34.52756 75.34016 C 34.53345 75.31905 34.54291 75.2854 34.54878 75.2646 C 34.55467 75.2438 34.56412 75.21074 34.57 75.19023 C 34.57588 75.16971 34.58533 75.13692 34.59122 75.11667 C 34.59709 75.0964 34.60655 75.06422 34.61244 75.04427 C 34.61832 75.0243 34.62778 74.99242 34.63365 74.9727 C 34.63954 74.95299 34.649 74.92151 34.65488 74.90205 C 34.66077 74.8826 34.67021 74.8516 34.6761 74.83237 C 34.68198 74.81314 34.69144 74.78242 34.69733 74.76344 C 34.7032 74.74446 34.71266 74.71419 34.71855 74.69542 C 34.72443 74.67664 34.73389 74.64665 34.73976 74.62807 C 34.74565 74.6095 34.7551 74.57985 34.76097 74.56151 C 34.76686 74.54315 34.7763 74.51392 34.7822 74.49577 C 34.78807 74.47762 34.79753 74.4486 34.80342 74.43065 C 34.8093 74.41269 34.81876 74.38408 34.82465 74.3663 C 34.83052 74.34854 34.83998 74.32016 34.84586 74.30255 C 34.85175 74.28494 34.8612 74.25682 34.86708 74.23941 C 34.87297 74.22202 34.88242 74.19426 34.8883 74.17705 C 34.89418 74.15982 34.90363 74.13225 34.90952 74.11517 C 34.91539 74.0981 34.92485 74.0709 34.93074 74.054 C 34.93661 74.0371 34.94608 74.01006 34.95195 73.9933 C 34.95784 73.97655 34.9673 73.94975 34.97318 73.93317 C 34.97906 73.91658 34.98851 73.89012 34.9944 73.87369 C 35.00029 73.85725 35.00974 73.83095 35.01563 73.81465 C 35.0215 73.79836 35.03096 73.77237 35.03685 73.75623 C 35.04272 73.74008 35.05219 73.71423 35.05806 73.69821 C 35.06395 73.68219 35.0734 73.65656 35.07927 73.64069 C 35.08516 73.62482 35.0946 73.59947 35.1005 73.58374 C 35.10638 73.56801 35.11583 73.5428 35.12172 73.52719 C 35.1276 73.51158 35.13705 73.48666 35.14294 73.47118 C 35.14882 73.45567 35.15828 73.43088 35.16415 73.41551 C 35.17004 73.40015 35.1795 73.37556 35.18538 73.36032 C 35.19127 73.34506 35.20071 73.32074 35.2066 73.30562 C 35.2125 73.2905 35.22192 73.26628 35.22781 73.25127 C 35.23369 73.23627 35.24315 73.21231 35.24904 73.19742 C 35.25491 73.18251 35.26437 73.15866 35.27025 73.14388 C 35.27614 73.12907 35.2856 73.1054 35.29147 73.09073 C 35.29736 73.07605 35.30681 73.05261 35.3127 73.03806 C 35.31859 73.02348 35.32803 73.00015 35.33392 72.98567 C 35.3398 72.9712 35.34926 72.9481 35.35515 72.93373 C 35.36102 72.91937 35.37048 72.89638 35.37636 72.88211 C 35.38225 72.86783 35.3917 72.84499 35.39757 72.83081 C 35.40346 72.81665 35.4129 72.79402 35.4188 72.77995 C 35.42468 72.76587 35.43413 72.74333 35.44002 72.72935 C 35.44589 72.7154 35.45535 72.69304 35.46124 72.67917 C 35.46712 72.66528 35.47658 72.64304 35.48245 72.62924 C 35.48834 72.61543 35.4978 72.59335 35.50368 72.57965 C 35.50957 72.56595 35.51901 72.54405 35.5249 72.53043 C 35.53079 72.5168 35.54022 72.49498 35.54611 72.48145 C 35.55199 72.46791 35.56145 72.4463 35.56734 72.43286 C 35.57321 72.41942 35.58267 72.39786 35.58855 72.38449 C 35.59444 72.37111 35.6039 72.3497 35.60977 72.33641 C 35.61566 72.32314 35.6251 72.3019 35.631 72.2887 C 35.63689 72.2755 35.64633 72.25433 35.65222 72.24121 C 35.6581 72.22809 35.66756 72.2071 35.67345 72.19406 C 35.67932 72.18103 35.68878 72.16013 35.69466 72.14714 C 35.70055 72.13416 35.70999 72.11336 35.71587 72.10046 C 35.72176 72.08757 35.73122 72.06696 35.73709 72.05415 C 35.74298 72.04134 35.75243 72.02077 35.75832 72.00801 C 35.76419 71.99525 35.77365 71.97488 35.77954 71.9622 C 35.78542 71.94952 35.79488 71.9292 35.80075 71.91658 C 35.80664 71.90396 35.8161 71.88376 35.82198 71.87122 C 35.82787 71.85867 35.83733 71.83862 35.8432 71.82616 C 35.84909 71.81369 35.85852 71.79369 35.86441 71.78128 C 35.87029 71.76888 35.87975 71.74905 35.88564 71.73672 C 35.89151 71.7244 35.90097 71.7046 35.90685 71.69232 C 35.91273 71.68004 35.9222 71.66037 35.92807 71.64816 C 35.93396 71.63596 35.94342 71.61644 35.9493 71.6043 C 35.95518 71.59215 35.96463 71.57268 35.97052 71.56058 C 35.9764 71.5485 35.98586 71.52917 35.99174 71.51715 C 35.99762 71.50513 36.00708 71.48586 36.01295 71.47389 C 36.01884 71.46193 36.02829 71.44275 36.03416 71.43085 C 36.04005 71.41895 36.04951 71.3999 36.05539 71.38806 C 36.06128 71.37622 36.07072 71.35722 36.07661 71.34544 C 36.08249 71.33366 36.09195 71.3148 36.09784 71.30309 C 36.10371 71.29135 36.11317 71.27255 36.11906 71.26088 C 36.12494 71.2492 36.1344 71.23048 36.14027 71.21887 C 36.14616 71.20726 36.15562 71.18867 36.1615 71.17711 C 36.16739 71.16556 36.17682 71.14702 36.18271 71.13551 C 36.18858 71.124 36.19804 71.10559 36.20393 71.09415 C 36.20981 71.0827 36.21927 71.06432 36.22516 71.05292 C 36.23103 71.04152 36.2405 71.02322 36.24637 71.01189 C 36.25226 71.00055 36.26172 70.98239 36.2676 70.9711 C 36.27348 70.95981 36.28293 70.94168 36.28882 70.93044 C 36.2947 70.91919 36.30415 70.9012 36.31004 70.89001 C 36.31592 70.87881 36.32538 70.86087 36.33127 70.84972 C 36.33714 70.83855 36.34659 70.82068 36.35246 70.80957 C 36.35835 70.79848 36.36781 70.78075 36.37369 70.7697 C 36.37958 70.75865 36.38902 70.7409 36.39491 70.72992 C 36.4008 70.71893 36.41025 70.70132 36.41614 70.69038 C 36.42201 70.67943 36.43147 70.66187 36.43736 70.65094 C 36.44324 70.64003 36.4527 70.62253 36.45857 70.61168 C 36.46446 70.60083 36.47392 70.58345 36.4798 70.57263 C 36.48569 70.56183 36.49512 70.54446 36.501 70.5337 C 36.5069 70.52295 36.51634 70.5057 36.52223 70.49498 C 36.5281 70.48427 36.53757 70.46706 36.54346 70.45638 C 36.54933 70.4457 36.55879 70.42854 36.56467 70.41791 C 36.57056 70.40729 36.58002 70.39027 36.58589 70.37968 C 36.59178 70.36908 36.60123 70.35208 36.60712 70.34154 C 36.613 70.331 36.62245 70.31412 36.62834 70.3036 C 36.63422 70.2931 36.64368 70.27625 36.64957 70.26578 C 36.65544 70.2553 36.66489 70.23851 36.67076 70.22809 C 36.67665 70.21765 36.68611 70.20097 36.69199 70.1906 C 36.69788 70.18022 36.70732 70.16354 36.71321 70.1532 C 36.7191 70.14287 36.72855 70.12633 36.73444 70.11601 C 36.74031 70.10571 36.74977 70.08919 36.75566 70.0789 C 36.76154 70.06863 36.771 70.05215 36.77687 70.04193 C 36.78276 70.03172 36.79222 70.01537 36.7981 70.00517 C 36.80399 69.995 36.81342 69.97864 36.8193 69.96849 C 36.8252 69.95836 36.83464 69.94212 36.84053 69.932 C 36.8464 69.9219 36.85587 69.90567 36.86176 69.89558 C 36.86763 69.88551 36.87709 69.86935 36.88297 69.85931 C 36.88885 69.84929 36.89832 69.83324 36.90419 69.82324 C 36.91008 69.81325 36.91953 69.79718 36.92542 69.78723 C 36.9313 69.77727 36.94075 69.76134 36.94664 69.75142 C 36.95251 69.74149 36.96198 69.72556 36.96786 69.71565 C 36.97374 69.70576 36.98318 69.6899 36.98906 69.68004 C 36.99495 69.67018 37.00441 69.65442 37.01028 69.6446 C 37.01617 69.63478 37.02562 69.619 37.03151 69.60922 C 37.0374 69.59946 37.04684 69.5838 37.05273 69.57405 C 37.05861 69.5643 37.06807 69.54865 37.07396 69.53894 C 37.07983 69.52922 37.0893 69.51363 37.09517 69.50394 C 37.10106 69.49426 37.11052 69.47876 37.1164 69.46912 C 37.12228 69.45946 37.13171 69.44397 37.1376 69.43436 C 37.1435 69.42476 37.15294 69.40935 37.15883 69.39978 C 37.1647 69.3902 37.17416 69.3748 37.18005 69.36525 C 37.18593 69.3557 37.19539 69.34038 37.20126 69.33087 C 37.20715 69.32135 37.21661 69.30614 37.22249 69.29665 C 37.22838 69.28716 37.23784 69.27193 37.24371 69.26247 C 37.2496 69.25302 37.25905 69.23788 37.26494 69.22847 C 37.27081 69.21904 37.28027 69.20392 37.28616 69.19452 C 37.29204 69.18512 37.30148 69.17004 37.30736 69.16068 C 37.31325 69.15132 37.32271 69.13634 37.32858 69.12701 C 37.33447 69.1177 37.34393 69.1027 37.34981 69.09341 C 37.3557 69.0841 37.36514 69.06923 37.37103 69.05995 C 37.3769 69.05067 37.38637 69.03581 37.39226 69.02657 C 37.39813 69.01732 37.4076 69.00249 37.41347 68.99327 C 37.41936 68.98405 37.42882 68.96933 37.4347 68.96014 C 37.44058 68.95097 37.45003 68.93623 37.4559 68.92708 C 37.46179 68.91794 37.47124 68.90327 37.47713 68.89417 C 37.483 68.88504 37.49246 68.87038 37.49835 68.8613 C 37.50423 68.8522 37.51369 68.83759 37.51958 68.82854 C 37.52545 68.81947 37.53491 68.80493 37.54079 68.79591 C 37.54668 68.78688 37.55614 68.77235 37.56201 68.76335 C 37.5679 68.75433 37.57735 68.73991 37.58324 68.73093 C 37.58911 68.72195 37.59857 68.70752 37.60446 68.69856 C 37.61034 68.68962 37.61978 68.67523 37.62567 68.6663 C 37.63155 68.65738 37.641 68.64308 37.64688 68.63419 C 37.65277 68.62529 37.66223 68.611 37.6681 68.60213 C 37.674 68.59326 37.68344 68.57906 37.68933 68.5702 C 37.6952 68.56136 37.70467 68.54715 37.71056 68.53833 C 37.71643 68.5295 37.72589 68.51532 37.73178 68.50653 C 37.73766 68.49776 37.74712 68.48367 37.75299 68.4749 C 37.75888 68.46613 37.76833 68.45206 37.7742 68.44331 C 37.78009 68.43457 37.78954 68.42055 37.79543 68.41185 C 37.80132 68.40314 37.81076 68.38913 37.81665 68.38043 C 37.82253 68.37173 37.83199 68.35777 37.83788 68.3491 C 37.84375 68.34044 37.85321 68.32658 37.85909 68.31795 C 37.86497 68.30931 37.87444 68.29541 37.88031 68.28679 C 37.8862 68.27817 37.89565 68.26437 37.90154 68.25578 C 37.90742 68.2472 37.91687 68.2334 37.92276 68.22482 C 37.92863 68.21626 37.93808 68.2025 37.94397 68.19395 C 37.94984 68.18541 37.9593 68.1717 37.96518 68.16321 C 37.97107 68.1547 37.98053 68.14099 37.9864 68.13249 C 37.9923 68.124 38.00763 68.10194 38.00763 68.10194 "/>
<path transform="matrix(1,0,0,-1,.199,174.642)" stroke-width="1.59404" stroke-linecap="butt" stroke-miterlimit="10" stroke-linejoin="miter" fill="none" stroke="#000080" d="M 156.25505 68.10143 C 156.25505 68.10143 156.27037 68.12354 156.27626 68.13203 C 156.28214 68.14053 156.2916 68.15417 156.29747 68.16269 C 156.30336 68.1712 156.31282 68.18494 156.3187 68.19348 C 156.32459 68.20203 156.33403 68.21573 156.33992 68.2243 C 156.34581 68.23286 156.35526 68.24667 156.36115 68.25528 C 156.36702 68.26389 156.37648 68.2777 156.38237 68.28632 C 156.38825 68.29494 156.3977 68.30878 156.40358 68.31741 C 156.40947 68.32605 156.41892 68.33997 156.42479 68.34863 C 156.43068 68.3573 156.44013 68.37122 156.44602 68.3799 C 156.4519 68.3886 156.46135 68.4026 156.46724 68.41133 C 156.47312 68.42006 156.48258 68.43408 156.48847 68.44283 C 156.49434 68.45157 156.5038 68.46559 156.50968 68.47437 C 156.51557 68.48314 156.52503 68.49727 156.5309 68.50606 C 156.53679 68.51483 156.54624 68.52898 156.55213 68.5378 C 156.55802 68.54662 156.56746 68.56082 156.57335 68.56967 C 156.57923 68.57852 156.58867 68.59277 156.59456 68.60164 C 156.60044 68.6105 156.6099 68.62476 156.61577 68.63365 C 156.62166 68.64255 156.63112 68.6569 156.637 68.66582 C 156.64289 68.67474 156.65233 68.68909 156.65822 68.69804 C 156.66411 68.70699 156.67356 68.7214 156.67945 68.7304 C 156.68532 68.73936 156.69478 68.75385 156.70067 68.76286 C 156.70655 68.77187 156.716 68.78633 156.72188 68.79536 C 156.72777 68.80438 156.73722 68.81897 156.74309 68.82803 C 156.74898 68.83708 156.75844 68.85165 156.76432 68.86075 C 156.7702 68.86983 156.77965 68.88449 156.78554 68.89362 C 156.79141 68.90273 156.80088 68.91742 156.80677 68.92657 C 156.81264 68.93571 156.8221 68.95042 156.82798 68.9596 C 156.83386 68.96878 156.84333 68.98357 156.8492 68.99277 C 156.85509 69.00198 156.86455 69.01675 156.87042 69.026 C 156.87631 69.03525 156.88576 69.05013 156.89165 69.0594 C 156.89752 69.06868 156.90697 69.0836 156.91286 69.09291 C 156.91873 69.10222 156.92819 69.11714 156.93407 69.12646 C 156.93996 69.13577 156.94942 69.15082 156.95529 69.16017 C 156.96118 69.16954 156.97064 69.18456 156.97652 69.19395 C 156.9824 69.20335 156.99185 69.21848 156.99774 69.2279 C 157.00362 69.23732 157.01308 69.25249 157.01897 69.26193 C 157.02484 69.2714 157.0343 69.28656 157.04018 69.29605 C 157.04607 69.30554 157.05551 69.32082 157.06139 69.33034 C 157.06728 69.33984 157.07674 69.35515 157.08261 69.36469 C 157.0885 69.37424 157.09795 69.3896 157.10384 69.3992 C 157.10971 69.40878 157.11917 69.42424 157.12506 69.43384 C 157.13094 69.44345 157.1404 69.4589 157.14629 69.46854 C 157.15216 69.47816 157.16162 69.49373 157.1675 69.5034 C 157.17339 69.51309 157.18285 69.52864 157.18872 69.53836 C 157.19461 69.54807 157.20406 69.5637 157.20995 69.57346 C 157.21582 69.58322 157.22527 69.59894 157.23116 69.60872 C 157.23703 69.61848 157.24649 69.63419 157.25238 69.64401 C 157.25826 69.65382 157.26772 69.66965 157.27359 69.67949 C 157.27948 69.68935 157.28894 69.70518 157.29482 69.71506 C 157.3007 69.72495 157.31015 69.74088 157.31604 69.75081 C 157.32192 69.76073 157.33138 69.77672 157.33727 69.78668 C 157.34314 69.79663 157.3526 69.81265 157.35849 69.82263 C 157.36437 69.83263 157.37381 69.84874 157.37969 69.85876 C 157.38558 69.8688 157.39504 69.88493 157.40091 69.89499 C 157.4068 69.90506 157.41625 69.92128 157.42214 69.93138 C 157.42803 69.9415 157.43747 69.9578 157.44336 69.96794 C 157.44924 69.97807 157.4587 69.99438 157.46459 70.00458 C 157.47046 70.01476 157.47992 70.03117 157.4858 70.0414 C 157.49169 70.0516 157.50115 70.06802 157.50702 70.07828 C 157.51291 70.08855 157.52236 70.10509 157.52825 70.11539 C 157.53414 70.1257 157.54357 70.1423 157.54946 70.15263 C 157.55533 70.16298 157.56479 70.1796 157.57068 70.18997 C 157.57656 70.20036 157.58602 70.2171 157.59189 70.22751 C 157.59778 70.23792 157.60724 70.25467 157.61312 70.26514 C 157.619 70.27559 157.62845 70.29245 157.63434 70.30296 C 157.64023 70.31349 157.64968 70.33041 157.65557 70.34096 C 157.66144 70.35152 157.6709 70.36844 157.67679 70.37904 C 157.68267 70.38963 157.69211 70.40672 157.69799 70.41734 C 157.70388 70.42798 157.71334 70.44507 157.71921 70.45573 C 157.7251 70.4664 157.73455 70.48361 157.74044 70.49435 C 157.74633 70.50508 157.75577 70.52235 157.76166 70.53311 C 157.76753 70.54387 157.777 70.56117 157.78289 70.57199 C 157.78876 70.5828 157.79822 70.60023 157.8041 70.61108 C 157.80998 70.62193 157.81945 70.63939 157.82532 70.65028 C 157.8312 70.6612 157.84066 70.67876 157.84654 70.68973 C 157.85243 70.70068 157.86186 70.71834 157.86775 70.72932 C 157.87363 70.74031 157.88309 70.75798 157.88898 70.76903 C 157.89485 70.78009 157.90431 70.79788 157.91019 70.80899 C 157.91608 70.82008 157.92554 70.83789 157.93141 70.84904 C 157.9373 70.86018 157.94675 70.87813 157.95264 70.88933 C 157.95853 70.90053 157.96797 70.91856 157.97386 70.92981 C 157.97974 70.94106 157.9892 70.95912 157.99509 70.97041 C 158.00096 70.9817 158.0104 70.99992 158.01628 71.01126 C 158.02217 71.0226 158.03163 71.04085 158.0375 71.05225 C 158.0434 71.06364 158.05284 71.082 158.05873 71.09346 C 158.06462 71.10492 158.07407 71.12337 158.07996 71.13487 C 158.08583 71.14638 158.09529 71.16487 158.10118 71.17644 C 158.10706 71.18799 158.11652 71.20662 158.12239 71.21823 C 158.12828 71.22984 158.13774 71.24852 158.14362 71.26018 C 158.1495 71.27184 158.15895 71.29065 158.16484 71.30238 C 158.17073 71.31412 158.18016 71.33301 158.18605 71.34479 C 158.19193 71.35657 158.20139 71.37552 158.20728 71.38736 C 158.21315 71.3992 158.22261 71.41829 158.22849 71.43019 C 158.23438 71.4421 158.24384 71.46121 158.24971 71.47318 C 158.2556 71.48514 158.26506 71.50441 158.27094 71.51643 C 158.27683 71.52846 158.28627 71.54785 158.29216 71.55994 C 158.29804 71.57202 158.3075 71.59142 158.31339 71.60356 C 158.31926 71.6157 158.3287 71.63528 158.33458 71.64749 C 158.34047 71.6597 158.34993 71.67932 158.3558 71.69159 C 158.3617 71.70386 158.37116 71.72365 158.37703 71.736 C 158.38292 71.74832 158.39237 71.76822 158.39826 71.78062 C 158.40413 71.79303 158.41359 71.81297 158.41948 71.82544 C 158.42536 71.8379 158.43482 71.85802 158.44069 71.87054 C 158.44658 71.88306 158.45604 71.90323 158.46192 71.91582 C 158.4678 71.92842 158.47727 71.94876 158.48314 71.96144 C 158.48903 71.97412 158.49846 71.99455 158.50435 72.00731 C 158.51023 72.02007 158.51969 72.04056 158.52558 72.05338 C 158.53145 72.0662 158.54091 72.08688 158.5468 72.09976 C 158.55268 72.11266 158.56214 72.13338 158.56801 72.14635 C 158.5739 72.15932 158.58336 72.18022 158.58924 72.19328 C 158.59513 72.20633 158.60457 72.22737 158.61046 72.2405 C 158.61634 72.25362 158.6258 72.27472 158.63169 72.2879 C 158.63756 72.3011 158.647 72.3224 158.6529 72.3357 C 158.65877 72.34897 158.66823 72.37032 158.6741 72.38368 C 158.68 72.39705 158.68946 72.41858 158.69533 72.43204 C 158.70122 72.4455 158.71067 72.46716 158.71656 72.4807 C 158.72243 72.49423 158.73189 72.51598 158.73778 72.5296 C 158.74365 72.54323 158.75312 72.56519 158.759 72.57889 C 158.76488 72.59259 158.77434 72.61462 158.78022 72.62842 C 158.7861 72.64221 158.79557 72.66443 158.80144 72.67833 C 158.80733 72.69221 158.81676 72.71461 158.82265 72.72858 C 158.82854 72.74255 158.83798 72.76503 158.84387 72.7791 C 158.84975 72.79317 158.8592 72.81586 158.8651 72.83003 C 158.87097 72.8442 158.88043 72.86699 158.8863 72.88124 C 158.8922 72.89551 158.90166 72.91852 158.90753 72.93288 C 158.91342 72.94725 158.92287 72.97043 158.92876 72.9849 C 158.93465 72.99934 158.94409 73.02261 158.94998 73.03719 C 158.95586 73.05174 158.9653 73.07526 158.97119 73.08992 C 158.97707 73.10458 158.98653 73.12822 158.9924 73.14299 C 158.99829 73.15776 159.00775 73.1816 159.01363 73.1965 C 159.01952 73.2114 159.02896 73.23544 159.03485 73.25046 C 159.04074 73.26546 159.05019 73.2896 159.05608 73.30472 C 159.06195 73.31985 159.07141 73.34425 159.0773 73.35948 C 159.08318 73.37471 159.09264 73.39925 159.09851 73.4146 C 159.1044 73.42996 159.11386 73.45474 159.11974 73.47023 C 159.12563 73.48572 159.13506 73.51071 159.14095 73.52632 C 159.14684 73.54193 159.15628 73.56705 159.16217 73.58278 C 159.16805 73.59851 159.1775 73.62395 159.1834 73.63982 C 159.18927 73.65569 159.19873 73.68123 159.2046 73.69724 C 159.2105 73.71324 159.21996 73.73907 159.22583 73.75523 C 159.23172 73.7714 159.24117 73.79747 159.24706 73.81377 C 159.25295 73.83006 159.26239 73.85626 159.26828 73.8727 C 159.27416 73.88913 159.2836 73.91568 159.28949 73.93227 C 159.29537 73.94885 159.30483 73.97556 159.3107 73.9923 C 159.31659 74.00903 159.32605 74.03607 159.33193 74.05298 C 159.33782 74.06989 159.34726 74.09717 159.35315 74.11423 C 159.35904 74.13129 159.36849 74.15878 159.37438 74.17601 C 159.38025 74.19324 159.38971 74.22107 159.3956 74.23848 C 159.40148 74.25587 159.41094 74.2839 159.41681 74.30148 C 159.4227 74.31906 159.43216 74.34746 159.43804 74.36523 C 159.44393 74.383 159.45336 74.4117 159.45925 74.42966 C 159.46514 74.4476 159.47458 74.47652 159.48047 74.49467 C 159.48635 74.51282 159.4958 74.54214 159.5017 74.5605 C 159.50757 74.57884 159.51703 74.60841 159.5229 74.62695 C 159.5288 74.64551 159.53826 74.67549 159.54413 74.69427 C 159.55002 74.71306 159.55947 74.74341 159.56536 74.76239 C 159.57125 74.78139 159.58069 74.81198 159.58658 74.83119 C 159.59246 74.85042 159.6019 74.88152 159.60779 74.90097 C 159.61367 74.92044 159.62313 74.95181 159.629 74.97151 C 159.63489 74.99121 159.64435 75.02307 159.65023 75.04306 C 159.65612 75.06303 159.66558 75.0953 159.67145 75.11554 C 159.67734 75.13577 159.68679 75.16847 159.69268 75.189 C 159.69855 75.20952 159.70801 75.24269 159.7139 75.26349 C 159.71977 75.28427 159.72924 75.3178 159.7351 75.33888 C 159.741 75.35997 159.75046 75.39413 159.75634 75.41554 C 159.76222 75.43697 159.77167 75.47162 159.77754 75.49333 C 159.78343 75.51506 159.79288 75.55014 159.79877 75.57222 C 159.80464 75.5943 159.8141 75.63008 159.81999 75.65251 C 159.82587 75.67496 159.83533 75.71118 159.8412 75.73398 C 159.84709 75.75679 159.85655 75.79375 159.86243 75.81697 C 159.86832 75.8402 159.87778 75.87779 159.88365 75.90141 C 159.88954 75.92505 159.89899 75.96321 159.90488 75.98727 C 159.91075 76.01134 159.9202 76.05038 159.92609 76.07492 C 159.93196 76.09946 159.94142 76.1391 159.94731 76.16412 C 159.95319 76.18915 159.96265 76.22972 159.96852 76.2553 C 159.97441 76.28085 159.98387 76.32231 159.98975 76.34842 C 159.99564 76.37451 160.00508 76.41676 160.01097 76.44347 C 160.01685 76.47015 160.0263 76.5135 160.0322 76.54083 C 160.03807 76.56815 160.04753 76.61244 160.05342 76.64044 C 160.0593 76.66844 160.06876 76.71399 160.07463 76.74275 C 160.08052 76.77151 160.08997 76.8183 160.09584 76.84784 C 160.10173 76.87737 160.11118 76.92532 160.11707 76.95572 C 160.12294 76.98613 160.1324 77.03566 160.13829 77.067 C 160.14417 77.09834 160.15363 77.14929 160.15952 77.18167 C 160.16539 77.21405 160.17485 77.2669 160.18073 77.30046 C 160.18662 77.334 160.19608 77.38875 160.20195 77.42357 C 160.20784 77.45837 160.21729 77.51512 160.22318 77.55136 C 160.22907 77.5876 160.2385 77.64693 160.24439 77.68478 C 160.25026 77.72263 160.25972 77.78452 160.26561 77.82423 C 160.27149 77.86397 160.28095 77.9292 160.28682 77.97112 C 160.29271 78.01305 160.30217 78.08199 160.30805 78.12642 C 160.31394 78.17087 160.32338 78.24394 160.32927 78.29147 C 160.33516 78.339 160.3446 78.41772 160.3505 78.46912 C 160.35637 78.52052 160.36583 78.6056 160.37172 78.66197 C 160.3776 78.71834 160.38706 78.81227 160.39293 78.87549 C 160.39882 78.93869 160.40827 79.04431 160.41414 79.11765 C 160.42003 79.19098 160.42948 79.31268 160.43537 79.40407 C 160.44126 79.49544 160.4507 79.61916 160.45659 79.77629 C 160.46247 79.93344 160.47782 80.53671 160.47782 80.53671 "/>
<path transform="matrix(1,0,0,-1,.199,174.642)" d="M 33.89095 82.73099 C 33.89095 82.73099 34.50426 85.89696 34.7398 86.76846 C 34.97537 87.63995 35.35312 88.46033 35.58867 89.01215 C 35.82423 89.56398 36.20198 90.30313 36.43755 90.74574 C 36.6731 91.18834 37.05084 91.82332 37.2864 92.20222 C 37.52196 92.58113 37.8997 93.14136 38.13527 93.4767 C 38.37082 93.81204 38.7486 94.3163 38.98415 94.61923 C 39.2197 94.92216 39.59746 95.38261 39.83301 95.6601 C 40.06856 95.93758 40.44632 96.36249 40.68187 96.61923 C 40.91742 96.87598 41.29518 97.27132 41.53073 97.51065 C 41.76628 97.74998 42.14404 98.11984 42.3796 98.34433 C 42.61516 98.56882 42.9929 98.91705 43.22845 99.12863 C 43.46402 99.34021 43.84177 99.66916 44.07732 99.86932 C 44.31288 100.06949 44.69063 100.38138 44.9262 100.57135 C 45.16174 100.76134 45.5395 101.05785 45.77507 101.23865 C 46.01062 101.41945 46.38837 101.70204 46.62393 101.8745 C 46.85948 102.04695 47.23724 102.31683 47.4728 102.48166 C 47.70834 102.64647 48.0861 102.90468 48.32166 103.06245 C 48.5572 103.22025 48.93497 103.46765 49.17052 103.61893 C 49.40607 103.7702 49.78383 104.00757 50.01938 104.15277 C 50.25493 104.29799 50.63269 104.52597 50.86824 104.66551 C 51.1038 104.80505 51.48157 105.0243 51.71712 105.15851 C 51.95268 105.29271 52.33043 105.50366 52.56598 105.63286 C 52.80154 105.76204 53.17929 105.96521 53.41486 106.08966 C 53.6504 106.2141 54.02815 106.40987 54.26372 106.52982 C 54.49927 106.64977 54.87701 106.83852 55.11258 106.9542 C 55.34813 107.06987 55.72589 107.2519 55.96144 107.36351 C 56.19699 107.47511 56.57475 107.65083 56.8103 107.75851 C 57.04585 107.86621 57.42361 108.0358 57.65916 108.13976 C 57.89471 108.2437 58.27249 108.40742 58.50804 108.50781 C 58.74359 108.60818 59.12135 108.7663 59.3569 108.86324 C 59.59247 108.96016 59.97021 109.11287 60.20576 109.2065 C 60.44133 109.30011 60.81908 109.44754 61.05463 109.53793 C 61.29019 109.62834 61.66794 109.7708 61.9035 109.85811 C 62.13905 109.94542 62.5168 110.08296 62.75237 110.16727 C 62.98792 110.25159 63.36566 110.38438 63.60123 110.46577 C 63.83678 110.54716 64.21454 110.67542 64.45009 110.754 C 64.68564 110.83257 65.06342 110.95633 65.29897 111.03217 C 65.53452 111.10802 65.91228 111.22746 66.14783 111.30063 C 66.38338 111.3738 66.76114 111.489 66.99669 111.55956 C 67.23225 111.63013 67.61 111.74123 67.84555 111.80925 C 68.08112 111.87727 68.45886 111.98436 68.69441 112.0499 C 68.92998 112.11543 69.30772 112.21857 69.54329 112.28168 C 69.77884 112.3448 70.15659 112.44414 70.39215 112.50488 C 70.6277 112.56563 71.00546 112.66116 71.24103 112.71959 C 71.47658 112.77802 71.85434 112.86986 72.08989 112.92601 C 72.32544 112.98215 72.7032 113.07039 72.93875 113.12431 C 73.1743 113.17824 73.55206 113.26292 73.78761 113.31464 C 74.02316 113.36636 74.40092 113.44756 74.63647 113.49712 C 74.87202 113.54668 75.24979 113.62444 75.48534 113.67186 C 75.7209 113.71928 76.09865 113.79369 76.3342 113.83904 C 76.56976 113.88438 76.94751 113.95544 77.18306 113.99873 C 77.41862 114.042 77.79639 114.10979 78.03195 114.15105 C 78.2675 114.19229 78.64525 114.25685 78.88081 114.2961 C 79.11636 114.33534 79.49411 114.39671 79.72968 114.43399 C 79.96523 114.47127 80.34299 114.52946 80.57854 114.56477 C 80.81409 114.6001 81.19185 114.65521 81.4274 114.6886 C 81.66295 114.72198 82.04073 114.77396 82.27628 114.80542 C 82.51183 114.8369 82.88959 114.88585 83.12514 114.91542 C 83.36069 114.945 83.73845 114.99095 83.974 115.01865 C 84.20956 115.04634 84.58731 115.08928 84.82286 115.11511 C 85.05843 115.14096 85.43617 115.18092 85.67172 115.20491 C 85.90729 115.22891 86.28505 115.26593 86.52061 115.28809 C 86.75616 115.31026 87.13391 115.34435 87.36948 115.36469 C 87.60503 115.38503 87.98277 115.41624 88.21834 115.43477 C 88.45389 115.45331 88.83165 115.48161 89.0672 115.49835 C 89.30275 115.51508 89.68051 115.5405 89.91606 115.55547 C 90.15161 115.57042 90.52937 115.59299 90.76492 115.60617 C 91.00047 115.61935 91.37825 115.63905 91.6138 115.65045 C 91.84937 115.66187 92.22711 115.67874 92.46266 115.68839 C 92.69823 115.69803 93.07597 115.71207 93.31152 115.71994 C 93.54709 115.72781 93.92484 115.73907 94.1604 115.7452 C 94.39595 115.75133 94.7737 115.75977 95.00926 115.76411 C 95.24481 115.76848 95.62256 115.77408 95.85812 115.77669 C 96.09367 115.77931 96.47144 115.78215 96.707 115.78302 C 96.94255 115.78389 97.32031 115.78389 97.55586 115.78302 C 97.79141 115.78215 98.16917 115.77931 98.40472 115.77669 C 98.64027 115.77408 99.01804 115.76848 99.25359 115.76411 C 99.48914 115.75977 99.8669 115.75133 100.10245 115.7452 C 100.33801 115.73907 100.71576 115.72781 100.95131 115.71994 C 101.18687 115.71207 101.56464 115.69803 101.80019 115.68839 C 102.03575 115.67874 102.4135 115.66187 102.64906 115.65045 C 102.88461 115.63905 103.26236 115.61935 103.49792 115.60617 C 103.73347 115.59299 104.11122 115.57042 104.34679 115.55547 C 104.58234 115.5405 104.9601 115.51508 105.19565 115.49835 C 105.4312 115.48161 105.80896 115.45332 106.04451 115.43478 C 106.28006 115.41626 106.65784 115.38504 106.89339 115.3647 C 107.12894 115.34436 107.5067 115.31026 107.74225 115.28809 C 107.9778 115.26593 108.35556 115.22891 108.59111 115.20491 C 108.82668 115.18092 109.20442 115.14096 109.43997 115.11511 C 109.67554 115.08928 110.05328 115.04634 110.28883 115.01865 C 110.5244 114.99095 110.90216 114.945 111.13773 114.91544 C 111.37328 114.88588 111.75102 114.83694 111.98659 114.80547 C 112.22214 114.774 112.59988 114.72198 112.83545 114.6886 C 113.071 114.65521 113.44876 114.60013 113.68431 114.5648 C 113.91986 114.5295 114.29762 114.4713 114.53317 114.43402 C 114.76872 114.39674 115.14648 114.33539 115.38203 114.29614 C 115.61758 114.2569 115.99536 114.19232 116.23091 114.15108 C 116.46646 114.10982 116.84422 114.04204 117.07977 113.99876 C 117.31534 113.95547 117.69308 113.8844 117.92863 113.83905 C 118.1642 113.7937 118.54195 113.71931 118.7775 113.67189 C 119.01306 113.62447 119.39081 113.5467 119.62637 113.49715 C 119.86192 113.44759 120.23967 113.36638 120.47523 113.31465 C 120.71078 113.26294 121.08853 113.17824 121.3241 113.12433 C 121.55965 113.07042 121.93742 112.98221 122.17297 112.92607 C 122.40852 112.86992 122.78629 112.77805 123.02184 112.71962 C 123.25739 112.6612 123.63515 112.56567 123.8707 112.50493 C 124.10625 112.44418 124.48401 112.34485 124.71956 112.28172 C 124.95512 112.21861 125.33287 112.11545 125.56842 112.04991 C 125.80399 111.98438 126.18173 111.87732 126.41728 111.8093 C 126.65285 111.74127 127.0306 111.63017 127.26616 111.5596 C 127.50171 111.48904 127.87946 111.37384 128.11502 111.30067 C 128.35057 111.22751 128.72834 111.10806 128.9639 111.03223 C 129.19945 110.9564 129.57721 110.83263 129.81276 110.75406 C 130.04831 110.67548 130.42607 110.54724 130.66162 110.46584 C 130.89717 110.38443 131.27494 110.25163 131.51049 110.16731 C 131.74604 110.08301 132.1238 109.94547 132.35935 109.85815 C 132.5949 109.77084 132.97266 109.62843 133.2082 109.53802 C 133.44377 109.44762 133.82152 109.30016 134.05707 109.20654 C 134.29264 109.11292 134.67038 108.96024 134.90593 108.86331 C 135.1415 108.76637 135.51926 108.60825 135.75482 108.50787 C 135.99037 108.40749 136.36812 108.24376 136.60369 108.13982 C 136.83924 108.03586 137.21698 107.86626 137.45255 107.75856 C 137.6881 107.65088 138.06586 107.47519 138.3014 107.3636 C 138.53696 107.25201 138.91472 107.06993 139.15027 106.95427 C 139.38582 106.83861 139.76358 106.64987 139.99913 106.52992 C 140.23468 106.40997 140.61244 106.21416 140.84799 106.08972 C 141.08354 105.96527 141.46132 105.76215 141.69687 105.63297 C 141.93244 105.50377 142.31018 105.29277 142.54573 105.15857 C 142.7813 105.02437 143.15904 104.80515 143.39459 104.66563 C 143.63016 104.52611 144.0079 104.2981 144.24347 104.15288 C 144.47902 104.00768 144.85677 103.77032 145.09233 103.61905 C 145.32788 103.46777 145.70563 103.22038 145.9412 103.06258 C 146.17675 102.90479 146.5545 102.64658 146.79006 102.48177 C 147.0256 102.31694 147.40337 102.04704 147.63892 101.87459 C 147.87447 101.70213 148.25225 101.41957 148.4878 101.23877 C 148.72335 101.05797 149.1011 100.76147 149.33666 100.57149 C 149.5722 100.38152 149.94997 100.06964 150.18552 99.86948 C 150.42108 99.66931 150.79883 99.34033 151.03438 99.12875 C 151.26995 98.91718 151.64769 98.569 151.88324 98.34453 C 152.1188 98.12006 152.49655 97.7502 152.73212 97.51085 C 152.96767 97.2715 153.34542 96.87616 153.58098 96.61942 C 153.81653 96.36267 154.19428 95.93777 154.42984 95.6603 C 154.66539 95.38281 155.04317 94.92238 155.27872 94.61945 C 155.51427 94.31651 155.89203 93.81227 156.12758 93.47693 C 156.36313 93.14159 156.74089 92.58138 156.97644 92.20248 C 157.21199 91.8236 157.58975 91.18863 157.8253 90.74605 C 158.06087 90.30345 158.43862 89.56432 158.67417 89.01251 C 158.90973 88.46071 159.28748 87.64029 159.52303 86.76897 C 159.75859 85.89763 160.3719 82.73251 160.3719 82.73251 L 160.3719 80.69818 L 33.89095 80.69818 Z " fill="#cccce6"/>
<path transform="matrix(1,0,0,-1,.199,174.642)" d="M 33.89095 78.66534 C 33.89095 78.66534 34.50426 75.49937 34.7398 74.62787 C 34.97537 73.75638 35.35312 72.93602 35.58867 72.38419 C 35.82423 71.83235 36.20198 71.0932 36.43755 70.65059 C 36.6731 70.208 37.05084 69.57301 37.2864 69.1941 C 37.52196 68.8152 37.8997 68.25497 38.13527 67.91963 C 38.37082 67.58429 38.7486 67.08003 38.98415 66.7771 C 39.2197 66.47417 39.59746 66.01372 39.83301 65.73624 C 40.06856 65.45876 40.44632 65.03384 40.68187 64.7771 C 40.91742 64.52036 41.29518 64.12503 41.53073 63.88568 C 41.76628 63.64635 42.14404 63.27649 42.3796 63.052 C 42.61516 62.82751 42.9929 62.4793 43.22845 62.2677 C 43.46402 62.05612 43.84177 61.72717 44.07732 61.52701 C 44.31288 61.32684 44.69063 61.01495 44.9262 60.82498 C 45.16174 60.635 45.5395 60.33849 45.77507 60.15768 C 46.01062 59.97688 46.38837 59.69429 46.62393 59.52184 C 46.85948 59.34938 47.23724 59.0795 47.4728 58.91469 C 47.70834 58.74986 48.0861 58.49165 48.32166 58.33388 C 48.5572 58.17609 48.93497 57.92868 49.17052 57.7774 C 49.40607 57.62613 49.78383 57.38876 50.01938 57.24356 C 50.25493 57.09834 50.63269 56.87036 50.86824 56.73082 C 51.1038 56.5913 51.48157 56.37202 51.71712 56.23782 C 51.95268 56.10362 52.33043 55.89267 52.56598 55.76347 C 52.80154 55.6343 53.17929 55.43112 53.41486 55.30667 C 53.6504 55.18224 54.02815 54.98647 54.26372 54.86652 C 54.49927 54.74657 54.87701 54.55782 55.11258 54.44214 C 55.34813 54.32646 55.72589 54.14442 55.96144 54.03282 C 56.19699 53.92123 56.57475 53.74551 56.8103 53.63782 C 57.04585 53.53012 57.42361 53.36053 57.65916 53.25658 C 57.89471 53.15263 58.27249 52.9889 58.50804 52.88852 C 58.74359 52.78815 59.12135 52.63004 59.3569 52.53311 C 59.59247 52.43617 59.97021 52.28346 60.20576 52.18985 C 60.44133 52.09624 60.81908 51.9488 61.05463 51.8584 C 61.29019 51.76799 61.66794 51.62553 61.9035 51.53822 C 62.13905 51.45093 62.5168 51.31337 62.75237 51.22906 C 62.98792 51.14476 63.36566 51.01195 63.60123 50.93056 C 63.83678 50.84917 64.21454 50.72092 64.45009 50.64235 C 64.68564 50.56377 65.06342 50.44 65.29897 50.36417 C 65.53452 50.28831 65.91228 50.16888 66.14783 50.0957 C 66.38338 50.02254 66.76114 49.90735 66.99669 49.83678 C 67.23225 49.7662 67.61 49.6551 67.84555 49.58708 C 68.08112 49.51906 68.45886 49.41197 68.69441 49.34644 C 68.92998 49.2809 69.30772 49.17776 69.54329 49.11465 C 69.77884 49.05153 70.15659 48.95221 70.39215 48.89145 C 70.6277 48.8307 71.00546 48.73517 71.24103 48.67674 C 71.47658 48.61832 71.85434 48.52647 72.08989 48.47034 C 72.32544 48.41418 72.7032 48.32594 72.93875 48.27202 C 73.1743 48.2181 73.55206 48.1334 73.78761 48.0817 C 74.02316 48.02997 74.40092 47.94878 74.63647 47.89922 C 74.87202 47.84967 75.24979 47.77191 75.48534 47.72447 C 75.7209 47.67705 76.09865 47.60265 76.3342 47.5573 C 76.56976 47.51195 76.94751 47.44089 77.18306 47.3976 C 77.41862 47.35432 77.79639 47.28654 78.03195 47.2453 C 78.2675 47.20404 78.64525 47.13948 78.88081 47.10023 C 79.11636 47.06099 79.49411 46.99962 79.72968 46.96234 C 79.96523 46.92506 80.34299 46.86687 80.57854 46.83156 C 80.81409 46.79625 81.19185 46.74112 81.4274 46.70773 C 81.66295 46.67435 82.04073 46.62238 82.27628 46.59091 C 82.51183 46.55945 82.88959 46.5105 83.12514 46.48091 C 83.36069 46.45132 83.73845 46.40538 83.974 46.37769 C 84.20956 46.34999 84.58731 46.30705 84.82286 46.28122 C 85.05843 46.25537 85.43617 46.21541 85.67172 46.19142 C 85.90729 46.16743 86.28505 46.13042 86.52061 46.10825 C 86.75616 46.08607 87.13391 46.05199 87.36948 46.03165 C 87.60503 46.0113 87.98277 45.98009 88.21834 45.96156 C 88.45389 45.94304 88.83165 45.91472 89.0672 45.898 C 89.30275 45.88126 89.68051 45.85583 89.91606 45.84088 C 90.15161 45.82591 90.52937 45.80334 90.76492 45.79016 C 91.00047 45.77698 91.37825 45.75728 91.6138 45.74588 C 91.84937 45.73448 92.22711 45.71759 92.46266 45.70795 C 92.69823 45.6983 93.07597 45.68427 93.31152 45.67639 C 93.54709 45.66852 93.92484 45.65726 94.1604 45.65114 C 94.39595 45.645 94.7737 45.63658 95.00926 45.63222 C 95.24481 45.62785 95.62256 45.62225 95.85812 45.61964 C 96.09367 45.61702 96.47144 45.61418 96.707 45.61331 C 96.94255 45.61244 97.32031 45.61244 97.55586 45.61331 C 97.79141 45.61418 98.16917 45.61702 98.40472 45.61964 C 98.64027 45.62225 99.01804 45.62785 99.25359 45.63222 C 99.48914 45.63658 99.8669 45.645 100.10245 45.65114 C 100.33801 45.65726 100.71576 45.66852 100.95131 45.67639 C 101.18687 45.68427 101.56464 45.6983 101.80019 45.70795 C 102.03575 45.71759 102.4135 45.73448 102.64906 45.74588 C 102.88461 45.75728 103.26236 45.77698 103.49792 45.79016 C 103.73347 45.80334 104.11122 45.82591 104.34679 45.84088 C 104.58234 45.85583 104.9601 45.88126 105.19565 45.898 C 105.4312 45.91472 105.80896 45.94302 106.04451 45.96155 C 106.28006 45.98007 106.65784 46.01129 106.89339 46.03163 C 107.12894 46.05197 107.5067 46.08607 107.74225 46.10825 C 107.9778 46.13042 108.35556 46.16743 108.59111 46.19142 C 108.82668 46.21541 109.20442 46.25537 109.43997 46.28122 C 109.67554 46.30705 110.05328 46.34999 110.28883 46.37769 C 110.5244 46.40538 110.90216 46.45132 111.13773 46.4809 C 111.37328 46.51047 111.75102 46.5594 111.98659 46.59087 C 112.22214 46.62233 112.59988 46.67435 112.83545 46.70773 C 113.071 46.74112 113.44876 46.79622 113.68431 46.83153 C 113.91986 46.86684 114.29762 46.92503 114.53317 46.96231 C 114.76872 46.99959 115.14648 47.06094 115.38203 47.10019 C 115.61758 47.13943 115.99536 47.20401 116.23091 47.24527 C 116.46646 47.28651 116.84422 47.3543 117.07977 47.39757 C 117.31534 47.44086 117.69308 47.51193 117.92863 47.55728 C 118.1642 47.60263 118.54195 47.67702 118.7775 47.72444 C 119.01306 47.77188 119.39081 47.84964 119.62637 47.89919 C 119.86192 47.94875 120.23967 48.02995 120.47523 48.08168 C 120.71078 48.13339 121.08853 48.2181 121.3241 48.272 C 121.55965 48.32591 121.93742 48.41412 122.17297 48.47028 C 122.40852 48.52641 122.78629 48.61829 123.02184 48.67671 C 123.25739 48.73514 123.63515 48.83066 123.8707 48.8914 C 124.10625 48.95216 124.48401 49.05148 124.71956 49.11461 C 124.95512 49.17772 125.33287 49.28088 125.56842 49.34642 C 125.80399 49.41196 126.18173 49.51901 126.41728 49.58704 C 126.65285 49.65506 127.0306 49.76616 127.26616 49.83673 C 127.50171 49.9073 127.87946 50.02249 128.11502 50.09566 C 128.35057 50.16884 128.72834 50.28827 128.9639 50.3641 C 129.19945 50.43993 129.57721 50.5637 129.81276 50.64229 C 130.04831 50.72086 130.42607 50.84909 130.66162 50.9305 C 130.89717 51.0119 131.27494 51.14471 131.51049 51.22902 C 131.74604 51.31332 132.1238 51.45088 132.35935 51.53818 C 132.5949 51.62549 132.97266 51.7679 133.2082 51.8583 C 133.44377 51.94872 133.82152 52.09619 134.05707 52.1898 C 134.29264 52.28342 134.67038 52.4361 134.90593 52.53304 C 135.1415 52.62996 135.51926 52.78809 135.75482 52.88846 C 135.99037 52.98885 136.36812 53.15257 136.60369 53.25652 C 136.83924 53.36047 137.21698 53.53008 137.45255 53.63777 C 137.6881 53.74547 138.06586 53.92116 138.3014 54.03273 C 138.53696 54.14432 138.91472 54.3264 139.15027 54.44206 C 139.38582 54.55772 139.76358 54.74646 139.99913 54.86641 C 140.23468 54.98636 140.61244 55.18217 140.84799 55.30661 C 141.08354 55.43106 141.46132 55.63419 141.69687 55.76337 C 141.93244 55.89256 142.31018 56.10356 142.54573 56.23776 C 142.7813 56.37196 143.15904 56.59119 143.39459 56.7307 C 143.63016 56.87022 144.0079 57.09824 144.24347 57.24345 C 144.47902 57.38866 144.85677 57.626 145.09233 57.77728 C 145.32788 57.92856 145.70563 58.17596 145.9412 58.33376 C 146.17675 58.49155 146.5545 58.74976 146.79006 58.91458 C 147.0256 59.07939 147.40337 59.34929 147.63892 59.52174 C 147.87447 59.6942 148.25225 59.97676 148.4878 60.15756 C 148.72335 60.33836 149.1011 60.63486 149.33666 60.82484 C 149.5722 61.01482 149.94997 61.32669 150.18552 61.52686 C 150.42108 61.72702 150.79883 62.056 151.03438 62.26758 C 151.26995 62.47917 151.64769 62.82733 151.88324 63.0518 C 152.1188 63.27628 152.49655 63.64613 152.73212 63.88548 C 152.96767 64.12485 153.34542 64.52017 153.58098 64.77692 C 153.81653 65.03366 154.19428 65.45856 154.42984 65.73604 C 154.66539 66.01352 155.04317 66.47395 155.27872 66.77689 C 155.51427 67.07982 155.89203 67.58406 156.12758 67.9194 C 156.36313 68.25475 156.74089 68.81496 156.97644 69.19385 C 157.21199 69.57274 157.58975 70.2077 157.8253 70.65028 C 158.06087 71.09288 158.43862 71.83202 158.67417 72.38382 C 158.90973 72.93562 159.28748 73.75604 159.52303 74.62737 C 159.75859 75.4987 160.3719 78.66382 160.3719 78.66382 L 160.3719 80.69818 L 33.89095 80.69818 Z " fill="#cccce6"/>
<symbol id="font_1_1">
<path d="M .19 .683 C .172 .683 .163 .683 .163 .66400006 C .163 .65400007 .17000002 .65400007 .18900001 .65400007 C .21400002 .65400007 .24200002 .65400007 .24200002 .638 C .24200002 .632 .24200002 .629 .24000001 .623 L .103 .072000008 C .09400001 .037 .088 .029000001 .027000003 .029000001 C .009000003 .029000001 0 .029000001 0 .010000001 C 0 0 .008000001 0 .024000004 0 L .31800003 0 C .503 0 .69200006 .21200001 .69200006 .44000004 C .69200006 .588 .61 .683 .488 .683 L .19 .683 M .31100003 .61600008 C .32000003 .65400007 .326 .65400007 .36 .65400007 L .45800004 .65400007 C .56700006 .65400007 .617 .574 .617 .47700004 C .617 .41900004 .589 .25800003 .526 .162 C .47500006 .085 .395 .029000001 .30200003 .029000001 L .199 .029000001 C .17000002 .029000001 .16900002 .030000002 .16900002 .041 C .16900002 .049000004 .171 .057000005 .17300001 .064 L .31100003 .61600008 Z "/>
</symbol>
<use xlink:href="#font_1_1" transform="matrix(11.9552,0,0,-11.9552,114.83199,80.486)" fill="#000080"/>
<symbol id="font_2_2">
<path d="M .462 .41500003 C .425 .40800003 .41400004 .37600003 .41400004 .36100004 C .41400004 .34200005 .42800004 .32500003 .453 .32500003 C .48100005 .32500003 .508 .34900005 .508 .38400004 C .508 .43000005 .45800004 .45300005 .411 .45300005 C .351 .45300005 .316 .40000005 .30400003 .37900005 C .28500004 .42800004 .24100003 .45300005 .193 .45300005 C .086 .45300005 .028 .32500003 .028 .29900003 C .028 .29000003 .035000005 .28700004 .042000005 .28700004 C .051 .28700004 .054000006 .29200004 .056 .298 C .087000008 .397 .15300001 .42800004 .19100002 .42800004 C .22 .42800004 .24600002 .40900005 .24600002 .36200003 C .24600002 .32600004 .20300001 .16600001 .19000001 .11800001 C .18200001 .087000008 .15200001 .025000003 .097 .025000003 C .07700001 .025000003 .056 .032 .046000005 .038000004 C .07300001 .043 .093 .06600001 .093 .092 C .093 .117000009 .074 .128 .055 .128 C .026 .128 0 .10300001 0 .069000009 C 0 .020000002 .054000006 0 .096 0 C .15400002 0 .18800001 .048 .20300001 .075 C .22800002 .009000001 .287 0 .314 0 C .42200003 0 .479 .13000001 .479 .15400002 C .479 .15900001 .47600005 .16600001 .46600003 .16600001 C .455 .16600001 .45400004 .16200002 .44900004 .14700002 C .42700003 .075 .36900003 .025000003 .317 .025000003 C .28800003 .025000003 .261 .043 .261 .091000009 C .261 .113000009 .275 .16800002 .284 .20600002 C .28800003 .22400002 .31500004 .33200003 .317 .33900003 C .32900004 .37500004 .35900004 .42800004 .41000004 .42800004 C .42800004 .42800004 .44700004 .42500005 .462 .41500003 Z "/>
</symbol>
<use xlink:href="#font_2_2" transform="matrix(8.9664,0,0,-8.9664,47.792997,81.40764)" fill="#000080"/>
<symbol id="font_3_1">
<path d="M .46600006 .187 L .42900006 .187 C .42700003 .17300001 .41700004 .10700001 .40200005 .096 C .395 .09 .314 .09 .3 .09 L .113 .09 L .24100003 .194 C .275 .22100002 .36400003 .28500004 .395 .31500004 C .425 .34500004 .46600006 .39600004 .46600006 .467 C .46600006 .592 .35300002 .665 .21900001 .665 C .089999999 .665 0 .58000007 0 .48600004 C 0 .43500004 .042999999 .42900003 .053999999 .42900003 C .079 .42900003 .108 .44700004 .108 .483 C .108 .505 .095000009 .537 .051 .537 C .07400001 .588 .13500002 .62600007 .20400003 .62600007 C .30900003 .62600007 .365 .54800006 .365 .467 C .365 .39600004 .31800003 .323 .24800003 .259 L .011 .042000005 C .001000002 .032 0 .031000002 0 0 L .43500004 0 L .46600006 .187 Z "/>
</symbol>
<use xlink:href="#font_3_1" transform="matrix(5.9776,0,0,-5.9776,53.177389,77.50001)" fill="#000080"/>
<path transform="matrix(1,0,0,-1,47.524003,84.867008)" stroke-width="1" stroke-linecap="butt" stroke-miterlimit="10" stroke-linejoin="miter" fill="none" stroke="#000080" d="M 0 0 L 9.374 0 "/>
<symbol id="font_4_4">
<path d="M .336 .33700005 L .336 .31500004 C .336 .071 .22500001 .028 .16800002 .028 C .14500001 .028 .09400001 .032 .068 .065000008 L .072 .065000008 C .08 .063 .119 .071 .119 .111 C .119 .13700001 .10100001 .157 .073 .157 C .045000007 .157 .026000005 .13900002 .026000005 .109000008 C .026000005 .043000007 .07900001 0 .16900002 0 C .298 0 .42700003 .13200002 .42700003 .35100005 C .42700003 .62200006 .307 .688 .21700002 .688 C .10200001 .688 0 .595 0 .46400006 C 0 .33700005 .09200001 .24100001 .20500002 .24100001 C .278 .24100001 .31800003 .29400004 .336 .33700005 M .207 .26600004 C .19100002 .26600004 .142 .26600004 .110000018 .32800005 C .091000009 .36600004 .091000009 .41500003 .091000009 .46300004 C .091000009 .51100006 .091000009 .56100007 .112 .59900006 C .142 .65000006 .18100001 .66300007 .21700002 .66300007 C .285 .66300007 .312 .59400007 .316 .58400008 C .33 .54700008 .334 .48600004 .334 .44300006 C .334 .37000004 .301 .26600004 .207 .26600004 Z "/>
</symbol>
<symbol id="font_4_1">
<path d="M .64900007 .32100005 C .66300007 .32100005 .6840001 .32100005 .6840001 .342 C .6840001 .36400003 .6650001 .36400003 .64900007 .36400003 L .36400003 .36400003 L .36400003 .65000006 C .36400003 .666 .36400003 .68500009 .342 .68500009 C .321 .68500009 .321 .66400006 .321 .65000006 L .321 .36400003 L .035000005 .36400003 C .020999998 .36400003 0 .36400003 0 .34300003 C 0 .32100005 .019000002 .32100005 .035000005 .32100005 L .321 .32100005 L .321 .035000005 C .321 .019000002 .321 0 .343 0 C .36400003 0 .36400003 .021000006 .36400003 .035000005 L .36400003 .32100005 L .64900007 .32100005 Z "/>
</symbol>
<use xlink:href="#font_4_4" transform="matrix(8.9664,0,0,-8.9664,50.29256,93.38726)" fill="#000080"/>
<use xlink:href="#font_4_1" transform="matrix(8.9664,0,0,-8.9664,60.65309,87.93291)" fill="#000080"/>
<symbol id="font_2_3">
<path d="M .47300003 .59000006 C .474 .595 .47599999 .6010001 .47599999 .607 C .47599999 .62 .467 .63600006 .44500003 .63600006 C .432 .63600006 .414 .628 .40600003 .609 C .405 .605 .395 .564 .389 .54200008 L .33900003 .342 C .331 .31300003 .331 .31100003 .329 .30200003 C .328 .298 .286 .21900001 .21400002 .21900001 C .15200001 .21900001 .15200001 .282 .15200001 .301 C .15200001 .34600003 .165 .39500005 .20800002 .507 C .216 .53000006 .22200002 .544 .22200002 .563 C .22200002 .612 .18500002 .6470001 .136 .6470001 C .040000008 .6470001 0 .505 0 .49300004 C 0 .48400004 .007000001 .48100005 .014 .48100005 C .025 .48100005 .026000003 .48700003 .030000003 .5 C .051000008 .574 .091000009 .62200006 .133 .62200006 C .157 .62200006 .157 .60300007 .157 .589 C .157 .572 .15300001 .554 .14400001 .53000006 C .097 .40600003 .08400001 .36400003 .08400001 .316 C .08400001 .20500002 .17400001 .194 .21100001 .194 C .26 .194 .295 .22000002 .313 .238 C .3 .187 .289 .14200002 .25 .09200001 C .22000002 .052 .18 .025000006 .136 .025000006 C .10800001 .025000006 .075 .03500001 .061000006 .06300001 C .11400001 .06300001 .12100001 .10700001 .12100001 .117000009 C .12100001 .13900002 .105000007 .15300001 .083000008 .15300001 C .059000009 .15300001 .027 .134 .027 .08800001 C .027 .036 .07300001 0 .136 0 C .23800002 0 .347 .087000008 .37600003 .20400001 L .47300003 .59000006 Z "/>
</symbol>
<use xlink:href="#font_2_3" transform="matrix(8.9664,0,0,-8.9664,70.813037,83.14712)" fill="#000080"/>
<use xlink:href="#font_3_1" transform="matrix(5.9776,0,0,-5.9776,75.8434,77.50001)" fill="#000080"/>
<path transform="matrix(1,0,0,-1,70.55301,84.867008)" stroke-width="1" stroke-linecap="butt" stroke-miterlimit="10" stroke-linejoin="miter" fill="none" stroke="#000080" d="M 0 0 L 9.011 0 "/>
<symbol id="font_4_3">
<path d="M 0 .19600001 L 0 .165 L .273 .165 L .273 .079 C .273 .042000005 .27 .031000002 .19500001 .031000002 L .17300001 .031000002 L .17300001 0 C .23600002 .003 .306 .003 .313 .003 C .318 .003 .39000003 .003 .453 0 L .453 .031000002 L .431 .031000002 C .356 .031000002 .35300002 .042000005 .35300002 .079 L .35300002 .165 L .455 .165 L .455 .19600001 L .35300002 .19600001 L .35300002 .65000006 C .35300002 .67 .35300002 .67700007 .334 .67700007 C .322 .67700007 .321 .67600008 .312 .66200008 L 0 .19600001 M .032000007 .19600001 L .279 .56600007 L .279 .19600001 L .032000007 .19600001 Z "/>
</symbol>
<use xlink:href="#font_4_3" transform="matrix(8.9664,0,0,-8.9664,73.01402,93.19)" fill="#000080"/>
<symbol id="font_5_1">
<path d="M .606 .76100006 C .615 .765 .626 .771 .626 .78400006 C .626 .79700008 .616 .806 .605 .806 C .603 .806 .598 .806 .586 .8000001 L .020000004 .528 C .0060000049 .521 0 .51600006 0 .50400009 C 0 .49100004 .011 .48500005 .020000004 .48100005 L .584 .21000001 C .598 .20300001 .602 .20300001 .60400006 .20300001 C .62 .20300001 .626 .21700001 .626 .224 C .626 .23700002 .61800006 .24100003 .608 .24600002 L .071 .505 L .606 .76100006 M .589 0 C .606 0 .626 0 .626 .021000013 C .626 .043000007 .60400006 .043000007 .589 .043000007 L .037 .043000007 C .022 .043000007 0 .043000007 0 .021000013 C 0 0 .020000004 0 .037 0 L .589 0 Z "/>
</symbol>
<use xlink:href="#font_5_1" transform="matrix(8.9664,0,0,-8.9664,84.09011,88.48883)" fill="#000080"/>
<symbol id="font_4_2">
<path d="M .21100003 .63900008 C .21100003 .66400006 .21000001 .666 .18500003 .666 C .123 .60200008 .031000004 .60200008 0 .60200008 L 0 .57100006 C .019000002 .57100006 .080000009 .57100006 .134 .597 L .134 .080000009 C .134 .043 .13100001 .031000002 .03800001 .031000002 L .0060000049 .031000002 L .0060000049 0 C .042000005 .003 .13100001 .003 .17200002 .003 C .21300003 .003 .30300004 .003 .33900003 0 L .33900003 .031000002 L .307 .031000002 C .21400002 .031000002 .21100003 .043 .21100003 .080000009 L .21100003 .63900008 Z "/>
</symbol>
<use xlink:href="#font_4_2" transform="matrix(8.9664,0,0,-8.9664,93.87988,87.108)" fill="#000080"/>
<use xlink:href="#font_2_2" transform="matrix(8.9664,0,0,-8.9664,128.03099,46.322629)" fill="#800000"/>
<use xlink:href="#font_3_1" transform="matrix(5.9776,0,0,-5.9776,133.41538,42.414995)" fill="#800000"/>
<path transform="matrix(1,0,0,-1,127.76199,49.781007)" stroke-width="1" stroke-linecap="butt" stroke-miterlimit="10" stroke-linejoin="miter" fill="none" stroke="#800000" d="M 0 0 L 9.374 0 "/>
<use xlink:href="#font_4_4" transform="matrix(8.9664,0,0,-8.9664,130.53055,58.301267)" fill="#800000"/>
<use xlink:href="#font_4_1" transform="matrix(8.9664,0,0,-8.9664,140.89109,52.84791)" fill="#800000"/>
<use xlink:href="#font_2_3" transform="matrix(8.9664,0,0,-8.9664,151.05101,48.06211)" fill="#800000"/>
<use xlink:href="#font_3_1" transform="matrix(5.9776,0,0,-5.9776,156.08139,42.414995)" fill="#800000"/>
<path transform="matrix(1,0,0,-1,150.79099,49.781007)" stroke-width="1" stroke-linecap="butt" stroke-miterlimit="10" stroke-linejoin="miter" fill="none" stroke="#800000" d="M 0 0 L 9.011 0 "/>
<use xlink:href="#font_4_3" transform="matrix(8.9664,0,0,-8.9664,153.25203,58.104005)" fill="#800000"/>
<symbol id="font_2_1">
<path d="M .606 .27800004 C .617 .28300003 .626 .28800003 .626 .30200003 C .626 .315 .615 .321 .606 .32500003 L .042000005 .596 C .028000005 .60300007 .023000002 .60300007 .021000006 .60300007 C .008000001 .60300007 0 .592 0 .582 C 0 .57000008 .0060000049 .565 .020000004 .558 L .555 .30200003 L .020000004 .045 C .0060000049 .038000004 0 .033 0 .021000002 C 0 .014000002 .0060000049 0 .022 0 C .023000002 0 .028000005 0 .04 .006000001 L .606 .27800004 Z "/>
</symbol>
<use xlink:href="#font_2_1" transform="matrix(8.9664,0,0,-8.9664,164.32811,52.48029)" fill="#800000"/>
<use xlink:href="#font_4_2" transform="matrix(8.9664,0,0,-8.9664,174.11788,52.023004)" fill="#800000"/>
</g>
<path transform="matrix(1,0,0,-1,.199,174.642)" stroke-width="1" stroke-linecap="butt" stroke-miterlimit="10" stroke-linejoin="miter" fill="none" stroke="#808080" d="M 12.66933 78.57224 L 12.66933 82.8241 M 33.78487 78.57224 L 33.78487 82.8241 M 160.47815 78.57224 L 160.47815 82.8241 M 181.5937 78.57224 L 181.5937 82.8241 "/>
<path transform="matrix(1,0,0,-1,.199,174.642)" stroke-width="1" stroke-linecap="butt" stroke-miterlimit="10" stroke-linejoin="miter" fill="none" stroke="#808080" d="M 95.00548 10.52585 L 99.25754 10.52585 M 95.00548 45.61201 L 99.25754 45.61201 M 95.00548 115.78435 L 99.25754 115.78435 M 95.00548 150.87052 L 99.25754 150.87052 "/>
<path transform="matrix(1,0,0,-1,.199,174.642)" stroke-width="1" stroke-linecap="butt" stroke-miterlimit="10" stroke-linejoin="miter" fill="none" stroke="#000000" d="M 0 80.69818 L 192.27051 80.69818 "/>
<path transform="matrix(1,0,0,-1,192.46952,93.94382)" d="M 1.99252 0 L -1.19551 1.59401 L 0 0 L -1.19551 -1.59401 "/>
<path transform="matrix(1,0,0,-1,.199,174.642)" stroke-width="1" stroke-linecap="butt" stroke-miterlimit="10" stroke-linejoin="miter" fill="none" stroke="#000000" d="M 97.13152 0 L 97.13152 159.40384 "/>
<path transform="matrix(0,-1,-1,-0,97.33052,15.238159)" d="M 1.99252 0 L -1.19551 1.59401 L 0 0 L -1.19551 -1.59401 "/>
<symbol id="font_6_1">
<path d="M .57600006 0 C .59300008 0 .611 0 .611 .019999996 C .611 .040000008 .59300008 .040000008 .57600006 .040000008 L .035000005 .040000008 C .018 .040000008 0 .040000008 0 .019999996 C 0 0 .018 0 .035000005 0 L .57600006 0 Z "/>
</symbol>
<use xlink:href="#font_6_1" transform="matrix(9.9626,0,0,-9.9626,7.3298957,103.7926)"/>
<symbol id="font_7_3">
<path d="M .266 .165 L .266 .078 C .266 .042000005 .26400004 .031000002 .19000001 .031000002 L .16900002 .031000002 L .16900002 0 C .21000001 .003 .26200003 .003 .30400003 .003 C .34600003 .003 .39900003 .003 .44000004 0 L .44000004 .031000002 L .41900004 .031000002 C .34500004 .031000002 .34300003 .042000005 .34300003 .078 L .34300003 .165 L .44300003 .165 L .44300003 .19600001 L .34300003 .19600001 L .34300003 .651 C .34300003 .671 .34300003 .67700007 .32700003 .67700007 C .31800003 .67700007 .31500004 .67700007 .307 .665 L 0 .19600001 L 0 .165 L .266 .165 M .272 .19600001 L .028 .19600001 L .272 .569 L .272 .19600001 Z "/>
</symbol>
<use xlink:href="#font_7_3" transform="matrix(9.9626,0,0,-9.9626,14.530952,106.084)"/>
<use xlink:href="#font_6_1" transform="matrix(9.9626,0,0,-9.9626,28.445897,103.7926)"/>
<symbol id="font_7_2">
<path d="M .24800003 .37400005 C .33 .40100003 .388 .47100006 .388 .55 C .388 .632 .3 .688 .204 .688 C .10300001 .688 .027000003 .628 .027000003 .55200007 C .027000003 .519 .049000004 .5 .078 .5 C .109000008 .5 .12900001 .522 .12900001 .55100008 C .12900001 .6010001 .082 .6010001 .067 .6010001 C .098 .65000006 .164 .66300007 .20000002 .66300007 C .24100003 .66300007 .29600004 .64100006 .29600004 .55100008 C .29600004 .53900006 .29400004 .48100005 .268 .43700005 C .238 .38900004 .204 .38600005 .17900002 .38500003 C .171 .38400004 .14700002 .38200004 .14000002 .38200004 C .132 .38100005 .125 .38000003 .125 .37000004 C .125 .35900004 .132 .35900004 .14900002 .35900004 L .19300002 .35900004 C .275 .35900004 .312 .29100005 .312 .193 C .312 .057000005 .24300003 .028 .199 .028 C .15600002 .028 .081 .045 .046000005 .104 C .081 .09900001 .11200001 .12100001 .11200001 .15900001 C .11200001 .19500001 .085 .215 .056 .215 C .031999999 .215 0 .201 0 .157 C 0 .06600001 .093 0 .20200002 0 C .32400004 0 .41500003 .091000009 .41500003 .193 C .41500003 .27500005 .35200004 .35300005 .24800003 .37400005 Z "/>
</symbol>
<use xlink:href="#font_7_2" transform="matrix(9.9626,0,0,-9.9626,35.78543,106.30318)"/>
<use xlink:href="#font_7_2" transform="matrix(9.9626,0,0,-9.9626,158.60343,106.30318)"/>
<use xlink:href="#font_7_3" transform="matrix(9.9626,0,0,-9.9626,179.57895,106.084)"/>
<use xlink:href="#font_6_1" transform="matrix(9.9626,0,0,-9.9626,79.706897,164.6196)"/>
<use xlink:href="#font_7_3" transform="matrix(9.9626,0,0,-9.9626,86.90795,166.911)"/>
<use xlink:href="#font_6_1" transform="matrix(9.9626,0,0,-9.9626,79.706897,129.53362)"/>
<symbol id="font_7_1">
<path d="M .07700001 .07700001 L .18300002 .18 C .33900003 .31800003 .39900003 .372 .39900003 .47200004 C .39900003 .586 .30900003 .666 .18700002 .666 C .074 .666 0 .574 0 .485 C 0 .42900003 .05 .42900003 .053000008 .42900003 C .07000001 .42900003 .105000007 .441 .105000007 .48200003 C .105000007 .508 .08700001 .53400006 .052000006 .53400006 C .044000005 .53400006 .042000008 .53400006 .039 .53300008 C .062000004 .59800007 .11600001 .63500007 .17400001 .63500007 C .26500003 .63500007 .308 .554 .308 .47200004 C .308 .39200003 .25800003 .31300003 .20300003 .25100003 L .011000004 .037 C 0 .026 0 .024 0 0 L .37100003 0 L .39900003 .17400001 L .374 .17400001 C .36900003 .14400001 .36200003 .1 .352 .085 C .345 .07700001 .279 .07700001 .257 .07700001 L .07700001 .07700001 Z "/>
</symbol>
<use xlink:href="#font_7_1" transform="matrix(9.9626,0,0,-9.9626,87.12713,131.82501)"/>
<use xlink:href="#font_7_1" transform="matrix(9.9626,0,0,-9.9626,87.12713,62.069)"/>
<use xlink:href="#font_7_3" transform="matrix(9.9626,0,0,-9.9626,86.90795,26.983002)"/>
<symbol id="font_8_1">
<path d="M .305 .31300003 C .311 .33900003 .334 .43100003 .404 .43100003 C .409 .43100003 .433 .43100003 .454 .418 C .426 .41300003 .40600003 .388 .40600003 .36400003 C .40600003 .34800003 .417 .32900004 .444 .32900004 C .46600003 .32900004 .498 .34700004 .498 .38700003 C .498 .43900005 .439 .45300005 .405 .45300005 C .347 .45300005 .312 .40000005 .3 .37700004 C .275 .44300003 .221 .45300005 .19200002 .45300005 C .08800001 .45300005 .031000002 .32400004 .031000002 .29900003 C .031000002 .28900004 .041 .28900004 .043000007 .28900004 C .051000008 .28900004 .054000006 .291 .056 .3 C .09 .40600003 .156 .43100003 .19000001 .43100003 C .209 .43100003 .244 .42200003 .244 .36400003 C .244 .33300004 .22700002 .26600004 .19000001 .126 C .17400001 .064 .13900002 .022000002 .095000009 .022000002 C .08900001 .022000002 .06600001 .022000002 .045 .035 C .07000001 .040000004 .09200001 .061 .09200001 .089 C .09200001 .116000007 .07000001 .124000009 .055000009 .124000009 C .025 .124000009 0 .098000008 0 .06600001 C 0 .020000002 .050000006 0 .094000007 0 C .16000001 0 .19600001 .07000001 .19900002 .076000008 C .21100001 .039 .24700003 0 .307 0 C .41 0 .467 .12900001 .467 .15400002 C .467 .16400002 .458 .16400002 .455 .16400002 C .446 .16400002 .444 .16000001 .442 .15300001 C .409 .046 .341 .022000002 .30900003 .022000002 C .27 .022000002 .254 .054 .254 .08800001 C .254 .11000001 .26 .13200002 .271 .17600002 L .305 .31300003 Z "/>
</symbol>
<use xlink:href="#font_8_1" transform="matrix(9.9626,0,0,-9.9626,198.38591,96.181598)"/>
<symbol id="font_8_2">
<path d="M .45700003 .586 C .461 .6 .461 .602 .461 .609 C .461 .62700006 .447 .63600006 .432 .63600006 C .42200003 .63600006 .40600003 .63 .397 .615 C .395 .61 .387 .579 .38300003 .561 C .37600003 .535 .36900003 .508 .363 .48100005 L .318 .301 C .314 .286 .271 .21600002 .20500002 .21600002 C .15400002 .21600002 .143 .26000003 .143 .29700003 C .143 .34300003 .16000001 .40500004 .194 .49300004 C .21000001 .53400006 .21400002 .545 .21400002 .56500008 C .21400002 .61 .18200001 .6470001 .13200002 .6470001 C .037 .6470001 0 .50200006 0 .49300004 C 0 .48300005 .01 .48300005 .012 .48300005 C .022000002 .48300005 .023 .485 .028000003 .50100007 C .055000009 .595 .095000009 .625 .12900001 .625 C .13700001 .625 .15400002 .625 .15400002 .59300008 C .15400002 .568 .14400001 .54200008 .13700001 .523 C .097 .41700004 .079 .36 .079 .31300003 C .079 .224 .142 .194 .201 .194 C .24000003 .194 .274 .21100001 .30200003 .23900002 C .289 .187 .277 .13800001 .237 .08500001 C .21100001 .051 .17300001 .022 .127 .022 C .113000009 .022 .068 .025000006 .051000008 .06400001 C .067 .06400001 .080000009 .06400001 .094000007 .076000008 C .104 .08500001 .11400001 .098000008 .11400001 .117000009 C .11400001 .148 .087000008 .15200001 .07700001 .15200001 C .054000006 .15200001 .021 .136 .021 .087000008 C .021 .037 .065000008 0 .127 0 C .23 0 .333 .091000009 .361 .20400001 L .45700003 .586 Z "/>
</symbol>
<use xlink:href="#font_8_2" transform="matrix(9.9626,0,0,-9.9626,95.015918,9.726339)"/>
</svg>
