<?xml version="1.0" encoding="UTF-8" standalone="no"?>
<!DOCTYPE svg PUBLIC "-//W3C//DTD SVG 1.1//EN" "http://www.w3.org/Graphics/SVG/1.1/DTD/svg11.dtd">
<svg xmlns="http://www.w3.org/2000/svg" xmlns:xlink="http://www.w3.org/1999/xlink" version="1.1" width="215.407pt" height="174.739pt" viewBox="0 0 215.407 174.739">
<clipPath id="cp0">
<path transform="matrix(1,0,0,-1,-57.06,372.108)" d="M 65.63074 197.5711 L 259.8977 197.5711 L 259.8977 358.96723 L 65.63074 358.96723 Z "/>
</clipPath>
<g clip-path="url(#cp0)">
<path transform="matrix(1,0,0,-1,-57.06,372.108)" d="M 178.51561 311.66148 L 178.51561 311.66148 M 195.52387 311.66148 C 195.52387 321.055 187.90912 328.6697 178.51561 328.6697 C 169.12209 328.6697 161.50734 321.055 161.50734 311.66148 C 161.50734 302.26795 169.12209 294.6532 178.51561 294.6532 C 187.90912 294.6532 195.52387 302.26795 195.52387 311.66148 Z M 178.51561 311.66148 " fill="#cccce6"/>
<symbol id="font_1_1">
<path d="M .23200003 .00999999 C .23200003 .012999982 .23200003 .014999986 .215 .03199999 C .09 .15799999 .058 .347 .058 .5 C .058 .674 .096 .84800007 .21900001 .97300007 C .23200003 .985 .23200003 .98700007 .23200003 .99 C .23200003 .99700006 .22800002 1 .222 1 C .21200001 1 .12200001 .93200007 .06299999 .805 C .012000002 .69500008 0 .584 0 .5 C 0 .422 .011 .301 .066 .188 C .126 .065 .21200001 0 .222 0 C .22800002 0 .23200003 .0029999912 .23200003 .00999999 Z "/>
</symbol>
<use xlink:href="#font_1_1" transform="matrix(9.9626,0,0,-9.9626,124.707309,73.77965)" fill="#000080"/>
<symbol id="font_2_2">
<path d="M .33300004 .38900004 C .31500004 .42600004 .286 .45300005 .24100001 .45300005 C .124 .45300005 0 .30600003 0 .16000001 C 0 .06600001 .055000005 0 .133 0 C .153 0 .20300001 .0040000008 .263 .075 C .27100004 .033000005 .30600003 0 .35400004 0 C .38900004 0 .41200004 .023000002 .42800004 .055000005 C .44500003 .091000009 .45800004 .15200001 .45800004 .15400002 C .45800004 .16400002 .44900004 .16400002 .44600005 .16400002 C .43600003 .16400002 .43500004 .16000001 .43200005 .14600002 C .41500003 .081 .397 .022000002 .35600005 .022000002 C .32900004 .022000002 .32600004 .048 .32600004 .068 C .32600004 .09 .32800005 .098000008 .33900003 .14200002 C .35000003 .18400002 .35200004 .19400002 .36100004 .23200003 L .397 .37200005 C .40400005 .40000005 .40400005 .40200005 .40400005 .40600003 C .40400005 .42300005 .39200003 .43300004 .37500004 .43300004 C .35100005 .43300004 .33600004 .411 .33300004 .38900004 M .26800005 .13000001 C .263 .112 .263 .11000001 .24800001 .093 C .20400001 .038000004 .163 .022000002 .135 .022000002 C .08499999 .022000002 .07100001 .077 .07100001 .116000007 C .07100001 .16600001 .103 .28900004 .126 .335 C .157 .39400003 .202 .43100003 .242 .43100003 C .307 .43100003 .32100005 .34900005 .32100005 .34300003 C .32100005 .337 .31900005 .33100004 .31800003 .32600004 L .26800005 .13000001 Z "/>
</symbol>
<symbol id="font_2_1">
<path d="M .117000009 .194 C .117000009 .26 .092 .29900003 .05300001 .29900003 C .020000004 .29900003 0 .274 0 .246 C 0 .21900001 .020000004 .193 .05300001 .193 C .065000008 .193 .078 .197 .08800001 .206 C .091 .208 .092 .209 .093 .209 C .094000007 .209 .095000009 .208 .095000009 .194 C .095000009 .12 .06000001 .060000004 .027000003 .026999996 C .016000003 .016000003 .016000003 .013999999 .016000003 .0109999929 C .016000003 .003999993 .021000006 0 .026 0 C .037 0 .117000009 .077 .117000009 .194 Z "/>
</symbol>
<symbol id="font_2_3">
<path d="M .192 .694 C .192 .695 .192 .705 .179 .705 C .156 .705 .083000008 .697 .057 .695 C .049 .694 .038 .693 .038 .675 C .038 .663 .047000003 .663 .062000004 .663 C .11 .663 .112 .656 .112 .646 C .112 .639 .103 .605 .098000008 .584 L .015999999 .25800003 C .0040000008 .20800002 0 .19200002 0 .15700002 C 0 .062000004 .053 0 .127 0 C .24500002 0 .36800004 .14900002 .36800004 .293 C .36800004 .38400004 .31500004 .45300005 .235 .45300005 C .18900001 .45300005 .148 .42400003 .118 .39300005 L .192 .694 M .098000008 .316 C .104 .33800004 .104 .34000004 .113000009 .351 C .162 .41600005 .207 .43100003 .233 .43100003 C .26900003 .43100003 .29600004 .40100003 .29600004 .337 C .29600004 .27800004 .263 .16300002 .24500002 .12500002 C .212 .058000003 .16600001 .022000002 .127 .022000002 C .092999998 .022000002 .060000007 .049000004 .060000007 .123 C .060000007 .14200002 .060000007 .16100002 .076000008 .22400002 L .098000008 .316 Z "/>
</symbol>
<use xlink:href="#font_2_2" transform="matrix(9.9626,0,0,-9.9626,127.993518,71.39859)" fill="#000080"/>
<use xlink:href="#font_2_1" transform="matrix(9.9626,0,0,-9.9626,133.72202,73.211788)" fill="#000080"/>
<use xlink:href="#font_2_3" transform="matrix(9.9626,0,0,-9.9626,137.76683,71.39859)" fill="#000080"/>
<symbol id="font_1_2">
<path d="M .232 .5 C .232 .578 .22100002 .699 .16600001 .81200006 C .106 .93500009 .020000004 1 .009999998 1 C .0040000008 1 0 .99600008 0 .99 C 0 .98700007 0 .985 .019000002 .967 C .117000009 .86800006 .174 .709 .174 .5 C .174 .329 .137 .153 .012999997 .026999996 C 0 .014999986 0 .012999982 0 .00999999 C 0 .003999993 .0040000008 0 .009999998 0 C .020000004 0 .11000001 .06799999 .169 .195 C .22 .305 .232 .416 .232 .5 Z "/>
</symbol>
<use xlink:href="#font_1_2" transform="matrix(9.9626,0,0,-9.9626,142.13288,73.77965)" fill="#000080"/>
<path transform="matrix(1,0,0,-1,-57.06,372.108)" stroke-width="1.19553" stroke-linecap="butt" stroke-miterlimit="10" stroke-linejoin="miter" fill="none" stroke="#800000" d="M 152.2633 311.66148 C 152.2633 311.66148 175.89038 311.66148 172.7023 311.66148 "/>
<path transform="matrix(1,0,0,-1,115.6423,60.446535)" d="M 3.18808 0 L -1.91284 2.55046 L 0 0 L -1.91284 -2.55046 " fill="#800000"/>
<path transform="matrix(1,0,0,-1,-57.06,372.108)" stroke-width="1.19553" stroke-linecap="butt" stroke-miterlimit="10" stroke-linejoin="miter" fill="none" stroke="#800000" d="M 204.7679 311.66148 C 204.7679 311.66148 181.14084 311.66148 184.32892 311.66148 "/>
<path transform="matrix(-1,0,0,1,127.26892,60.446535)" d="M 3.18808 0 L -1.91284 2.55046 L 0 0 L -1.91284 -2.55046 " fill="#800000"/>
<path transform="matrix(1,0,0,-1,-57.06,372.108)" stroke-width="1.19553" stroke-linecap="butt" stroke-miterlimit="10" stroke-linejoin="miter" fill="none" stroke="#800000" d="M 178.51561 339.4884 C 178.51561 339.4884 178.51561 314.44416 178.51561 317.63227 "/>
<path transform="matrix(0,1,1,0,121.45561,54.47574)" d="M 3.18808 0 L -1.91284 2.55046 L 0 0 L -1.91284 -2.55046 " fill="#800000"/>
<path transform="matrix(1,0,0,-1,-57.06,372.108)" stroke-width="1.19553" stroke-linecap="butt" stroke-miterlimit="10" stroke-linejoin="miter" fill="none" stroke="#800000" d="M 178.51561 283.83457 C 178.51561 283.83457 178.51561 308.87879 178.51561 305.6907 "/>
<path transform="matrix(0,-1,-1,-0,121.45561,66.4173)" d="M 3.18808 0 L -1.91284 2.55046 L 0 0 L -1.91284 -2.55046 " fill="#800000"/>
<path transform="matrix(1,0,0,-1,-57.06,372.108)" stroke-width="1.19553" stroke-linecap="butt" stroke-miterlimit="10" stroke-linejoin="miter" fill="none" stroke="#800000" d="M 194.26699 333.923 C 194.26699 333.923 190.4735 330.28807 189.01653 328.3576 C 187.55956 326.4272 185.04093 322.13304 183.76607 320.00956 C 182.49121 317.88603 179.82822 313.0528 181.3673 315.84623 "/>
<path transform="matrix(-.48276,.8762,.8762,.48276,124.3073,56.26178)" d="M 3.18808 0 L -1.91284 2.55046 L 0 0 L -1.91284 -2.55046 " fill="#800000"/>
<path transform="matrix(1,0,0,-1,-57.06,372.108)" stroke-width="1.19553" stroke-linecap="butt" stroke-miterlimit="10" stroke-linejoin="miter" fill="none" stroke="#800000" d="M 154.62602 333.923 C 154.62602 333.923 167.3466 330.28807 170.11487 328.3576 C 172.88314 326.4272 173.5943 322.13304 174.57776 320.00956 C 175.56122 317.88603 177.20299 313.0528 176.17462 316.08027 "/>
<path transform="matrix(.32257,.94962,.94962,-.32257,119.11461,56.02774)" d="M 3.18808 0 L -1.91284 2.55046 L 0 0 L -1.91284 -2.55046 " fill="#800000"/>
<path transform="matrix(1,0,0,-1,-57.06,372.108)" stroke-width="1.19553" stroke-linecap="butt" stroke-miterlimit="10" stroke-linejoin="miter" fill="none" stroke="#800000" d="M 154.62602 294.96534 C 154.62602 294.96534 167.52875 298.75468 170.11487 300.5307 C 172.701 302.30674 172.2817 306.41438 173.26515 307.7657 C 174.24861 309.11705 177.20299 310.27015 174.2328 309.1109 "/>
<path transform="matrix(.93166,-.36362,-.36362,-.93166,117.172809,62.9971)" d="M 3.18808 0 L -1.91284 2.55046 L 0 0 L -1.91284 -2.55046 " fill="#800000"/>
</g>
<path transform="matrix(1,0,0,-1,-57.06,372.108)" stroke-width="1" stroke-linecap="butt" stroke-miterlimit="10" stroke-linejoin="miter" fill="none" stroke="#808080" d="M 105.00919 276.14295 L 105.00919 280.39537 M 131.26148 276.14295 L 131.26148 280.39537 M 157.51378 276.14295 L 157.51378 280.39537 M 183.76607 276.14295 L 183.76607 280.39537 M 210.01837 276.14295 L 210.01837 280.39537 M 236.27066 276.14295 L 236.27066 280.39537 "/>
<path transform="matrix(1,0,0,-1,-57.06,372.108)" stroke-width="1" stroke-linecap="butt" stroke-miterlimit="10" stroke-linejoin="miter" fill="none" stroke="#808080" d="M 76.63086 222.61533 L 80.88289 222.61533 M 76.63086 250.44225 L 80.88289 250.44225 M 76.63086 306.09608 L 80.88289 306.09608 M 76.63086 333.923 L 80.88289 333.923 "/>
<path transform="matrix(1,0,0,-1,-57.06,372.108)" stroke-width="1" stroke-linecap="butt" stroke-miterlimit="10" stroke-linejoin="miter" fill="none" stroke="#000000" d="M 65.63074 278.26918 L 257.9052 278.26918 "/>
<path transform="matrix(1,0,0,-1,200.84522,93.83884)" d="M 1.99252 0 L -1.19551 1.59401 L 0 0 L -1.19551 -1.59401 "/>
<path transform="matrix(1,0,0,-1,-57.06,372.108)" stroke-width="1" stroke-linecap="butt" stroke-miterlimit="10" stroke-linejoin="miter" fill="none" stroke="#000000" d="M 78.75688 197.5711 L 78.75688 356.9747 "/>
<path transform="matrix(0,-1,-1,-0,21.69688,15.133301)" d="M 1.99252 0 L -1.19551 1.59401 L 0 0 L -1.19551 -1.59401 "/>
<symbol id="font_1_3">
<path d="M .205 .64000007 C .205 .66400006 .205 .666 .18200003 .666 C .120000008 .60200008 .032000007 .60200008 0 .60200008 L 0 .57100006 C .020000004 .57100006 .07900001 .57100006 .13100001 .597 L .13100001 .079 C .13100001 .043 .128 .031000002 .038000004 .031000002 L .0060000049 .031000002 L .0060000049 0 C .04100001 .003 .128 .003 .168 .003 C .20800002 .003 .29500003 .003 .33000005 0 L .33000005 .031000002 L .29800005 .031000002 C .20800002 .031000002 .205 .042000005 .205 .079 L .205 .64000007 Z "/>
</symbol>
<use xlink:href="#font_1_3" transform="matrix(9.9626,0,0,-9.9626,46.34467,107.856998)"/>
<symbol id="font_1_4">
<path d="M .07700001 .07700001 L .18300002 .18 C .33900003 .31800003 .39900003 .372 .39900003 .47200004 C .39900003 .586 .30900003 .666 .18700002 .666 C .074 .666 0 .574 0 .485 C 0 .42900003 .05 .42900003 .053000008 .42900003 C .07000001 .42900003 .105000007 .441 .105000007 .48200003 C .105000007 .508 .08700001 .53400006 .052000006 .53400006 C .044000005 .53400006 .042000008 .53400006 .039 .53300008 C .062000004 .59800007 .11600001 .63500007 .17400001 .63500007 C .26500003 .63500007 .308 .554 .308 .47200004 C .308 .39200003 .25800003 .31300003 .20300003 .25100003 L .011000004 .037 C 0 .026 0 .024 0 0 L .37100003 0 L .39900003 .17400001 L .374 .17400001 C .36900003 .14400001 .36200003 .1 .352 .085 C .345 .07700001 .279 .07700001 .257 .07700001 L .07700001 .07700001 Z "/>
</symbol>
<use xlink:href="#font_1_4" transform="matrix(9.9626,0,0,-9.9626,72.20814,107.856998)"/>
<symbol id="font_1_5">
<path d="M .24800003 .37400005 C .33 .40100003 .388 .47100006 .388 .55 C .388 .632 .3 .688 .204 .688 C .10300001 .688 .027000003 .628 .027000003 .55200007 C .027000003 .519 .049000004 .5 .078 .5 C .109000008 .5 .12900001 .522 .12900001 .55100008 C .12900001 .6010001 .082 .6010001 .067 .6010001 C .098 .65000006 .164 .66300007 .20000002 .66300007 C .24100003 .66300007 .29600004 .64100006 .29600004 .55100008 C .29600004 .53900006 .29400004 .48100005 .268 .43700005 C .238 .38900004 .204 .38600005 .17900002 .38500003 C .171 .38400004 .14700002 .38200004 .14000002 .38200004 C .132 .38100005 .125 .38000003 .125 .37000004 C .125 .35900004 .132 .35900004 .14900002 .35900004 L .19300002 .35900004 C .275 .35900004 .312 .29100005 .312 .193 C .312 .057000005 .24300003 .028 .199 .028 C .15600002 .028 .081 .045 .046000005 .104 C .081 .09900001 .11200001 .12100001 .11200001 .15900001 C .11200001 .19500001 .085 .215 .056 .215 C .031999999 .215 0 .201 0 .157 C 0 .06600001 .093 0 .20200002 0 C .32400004 0 .41500003 .091000009 .41500003 .193 C .41500003 .27500005 .35200004 .35300005 .24800003 .37400005 Z "/>
</symbol>
<use xlink:href="#font_1_5" transform="matrix(9.9626,0,0,-9.9626,98.38043,108.07617)"/>
<symbol id="font_1_6">
<path d="M .266 .165 L .266 .078 C .266 .042000005 .26400004 .031000002 .19000001 .031000002 L .16900002 .031000002 L .16900002 0 C .21000001 .003 .26200003 .003 .30400003 .003 C .34600003 .003 .39900003 .003 .44000004 0 L .44000004 .031000002 L .41900004 .031000002 C .34500004 .031000002 .34300003 .042000005 .34300003 .078 L .34300003 .165 L .44300003 .165 L .44300003 .19600001 L .34300003 .19600001 L .34300003 .651 C .34300003 .671 .34300003 .67700007 .32700003 .67700007 C .31800003 .67700007 .31500004 .67700007 .307 .665 L 0 .19600001 L 0 .165 L .266 .165 M .272 .19600001 L .028 .19600001 L .272 .569 L .272 .19600001 Z "/>
</symbol>
<use xlink:href="#font_1_6" transform="matrix(9.9626,0,0,-9.9626,124.49195,107.856998)"/>
<symbol id="font_1_7">
<path d="M .39900003 .223 C .39900003 .34200005 .317 .44200004 .209 .44200004 C .16100002 .44200004 .118000019 .42600004 .082 .39100004 L .082 .586 C .10200001 .58000007 .135 .573 .16700001 .573 C .29 .573 .36 .66400006 .36 .67700007 C .36 .683 .357 .688 .35 .688 C .349 .688 .347 .688 .342 .68500009 C .322 .67600008 .273 .656 .20600002 .656 C .16600001 .656 .120000008 .66300007 .073 .6840001 C .065 .68700006 .06300001 .68700006 .061000009 .68700006 C .051000004 .68700006 .051000004 .679 .051000004 .66300007 L .051000004 .36700005 C .051000004 .34900005 .051000004 .34100003 .065 .34100003 C .07200001 .34100003 .074 .34400005 .07800001 .35000003 C .08900002 .36600004 .12600002 .42000006 .207 .42000006 C .259 .42000006 .284 .37400005 .292 .35600005 C .308 .31900005 .31 .28000004 .31 .23 C .31 .19500001 .31 .135 .286 .093 C .262 .054000006 .22500001 .028 .17900002 .028 C .106000009 .028 .049000008 .08100001 .032 .14000002 C .035 .13900002 .038000008 .13800001 .049000008 .13800001 C .082 .13800001 .09900001 .163 .09900001 .187 C .09900001 .21100001 .082 .23600002 .049000008 .23600002 C .035 .23600002 0 .22900002 0 .18300002 C 0 .097 .069000009 0 .18100001 0 C .297 0 .39900003 .096 .39900003 .223 Z "/>
</symbol>
<use xlink:href="#font_1_7" transform="matrix(9.9626,0,0,-9.9626,150.96312,108.07617)"/>
<symbol id="font_1_8">
<path d="M .089999999 .35000003 L .089999999 .37400005 C .089999999 .62700006 .21400002 .66300007 .26500003 .66300007 C .28900004 .66300007 .33100004 .65700009 .35300002 .623 C .33800004 .623 .298 .623 .298 .57800009 C .298 .54700008 .32200004 .53200009 .344 .53200009 C .36 .53200009 .39000003 .54100009 .39000003 .58000007 C .39000003 .64000007 .34600003 .688 .263 .688 C .13499999 .688 0 .559 0 .33800004 C 0 .071 .116000007 0 .20900002 0 C .32000003 0 .41500003 .094000007 .41500003 .22600001 C .41500003 .35300005 .32600004 .44900004 .215 .44900004 C .14700002 .44900004 .11000001 .39800004 .089999999 .35000003 M .20900002 .028 C .146 .028 .116000007 .088 .11000001 .103 C .092 .15 .092 .23 .092 .24800001 C .092 .32600004 .124000009 .42600004 .21400002 .42600004 C .23000002 .42600004 .27600003 .42600004 .307 .36400003 C .32500003 .32700003 .32500003 .27600003 .32500003 .22700002 C .32500003 .179 .32500003 .12900001 .30800004 .093 C .27800004 .033000005 .23200003 .028 .20900002 .028 Z "/>
</symbol>
<use xlink:href="#font_1_8" transform="matrix(9.9626,0,0,-9.9626,177.13542,108.07617)"/>
<symbol id="font_3_1">
<path d="M .57600006 0 C .59300008 0 .611 0 .611 .019999996 C .611 .040000008 .59300008 .040000008 .57600006 .040000008 L .035000005 .040000008 C .018 .040000008 0 .040000008 0 .019999996 C 0 0 .018 0 .035000005 0 L .57600006 0 Z "/>
</symbol>
<use xlink:href="#font_3_1" transform="matrix(9.9626,0,0,-9.9626,4.1468956,149.59561)"/>
<use xlink:href="#font_1_4" transform="matrix(9.9626,0,0,-9.9626,11.56613,151.88701)"/>
<use xlink:href="#font_3_1" transform="matrix(9.9626,0,0,-9.9626,4.1468956,121.7686)"/>
<use xlink:href="#font_1_3" transform="matrix(9.9626,0,0,-9.9626,11.954671,124.06)"/>
<use xlink:href="#font_1_3" transform="matrix(9.9626,0,0,-9.9626,11.954668,68.40701)"/>
<use xlink:href="#font_1_4" transform="matrix(9.9626,0,0,-9.9626,11.566127,40.579988)"/>
<path transform="matrix(1,0,0,-1,-57.06,372.108)" d="M 180.50817 311.66148 C 180.50817 312.76194 179.61608 313.65403 178.51561 313.65403 C 177.41513 313.65403 176.52306 312.76194 176.52306 311.66148 C 176.52306 310.561 177.41513 309.6689 178.51561 309.6689 C 179.61608 309.6689 180.50817 310.561 180.50817 311.66148 Z M 178.51561 311.66148 " fill="#000080"/>
<path transform="matrix(1,0,0,-1,-57.06,372.108)" stroke-width="1" stroke-linecap="butt" stroke-miterlimit="10" stroke-linejoin="miter" fill="none" stroke="#000080" d="M 180.50817 311.66148 C 180.50817 312.76194 179.61608 313.65403 178.51561 313.65403 C 177.41513 313.65403 176.52306 312.76194 176.52306 311.66148 C 176.52306 310.561 177.41513 309.6689 178.51561 309.6689 C 179.61608 309.6689 180.50817 310.561 180.50817 311.66148 Z M 178.51561 311.66148 "/>
<symbol id="font_2_4">
<path d="M .305 .31300003 C .311 .33900003 .334 .43100003 .404 .43100003 C .409 .43100003 .433 .43100003 .454 .418 C .426 .41300003 .40600003 .388 .40600003 .36400003 C .40600003 .34800003 .417 .32900004 .444 .32900004 C .46600003 .32900004 .498 .34700004 .498 .38700003 C .498 .43900005 .439 .45300005 .405 .45300005 C .347 .45300005 .312 .40000005 .3 .37700004 C .275 .44300003 .221 .45300005 .19200002 .45300005 C .08800001 .45300005 .031000002 .32400004 .031000002 .29900003 C .031000002 .28900004 .041 .28900004 .043000007 .28900004 C .051000008 .28900004 .054000006 .291 .056 .3 C .09 .40600003 .156 .43100003 .19000001 .43100003 C .209 .43100003 .244 .42200003 .244 .36400003 C .244 .33300004 .22700002 .26600004 .19000001 .126 C .17400001 .064 .13900002 .022000002 .095000009 .022000002 C .08900001 .022000002 .06600001 .022000002 .045 .035 C .07000001 .040000004 .09200001 .061 .09200001 .089 C .09200001 .116000007 .07000001 .124000009 .055000009 .124000009 C .025 .124000009 0 .098000008 0 .06600001 C 0 .020000002 .050000006 0 .094000007 0 C .16000001 0 .19600001 .07000001 .19900002 .076000008 C .21100001 .039 .24700003 0 .307 0 C .41 0 .467 .12900001 .467 .15400002 C .467 .16400002 .458 .16400002 .455 .16400002 C .446 .16400002 .444 .16000001 .442 .15300001 C .409 .046 .341 .022000002 .30900003 .022000002 C .27 .022000002 .254 .054 .254 .08800001 C .254 .11000001 .26 .13200002 .271 .17600002 L .305 .31300003 Z "/>
</symbol>
<use xlink:href="#font_2_4" transform="matrix(9.9626,0,0,-9.9626,206.68091,96.05759)"/>
<symbol id="font_2_5">
<path d="M .45700003 .586 C .461 .6 .461 .602 .461 .609 C .461 .62700006 .447 .63600006 .432 .63600006 C .42200003 .63600006 .40600003 .63 .397 .615 C .395 .61 .387 .579 .38300003 .561 C .37600003 .535 .36900003 .508 .363 .48100005 L .318 .301 C .314 .286 .271 .21600002 .20500002 .21600002 C .15400002 .21600002 .143 .26000003 .143 .29700003 C .143 .34300003 .16000001 .40500004 .194 .49300004 C .21000001 .53400006 .21400002 .545 .21400002 .56500008 C .21400002 .61 .18200001 .6470001 .13200002 .6470001 C .037 .6470001 0 .50200006 0 .49300004 C 0 .48300005 .01 .48300005 .012 .48300005 C .022000002 .48300005 .023 .485 .028000003 .50100007 C .055000009 .595 .095000009 .625 .12900001 .625 C .13700001 .625 .15400002 .625 .15400002 .59300008 C .15400002 .568 .14400001 .54200008 .13700001 .523 C .097 .41700004 .079 .36 .079 .31300003 C .079 .224 .142 .194 .201 .194 C .24000003 .194 .274 .21100001 .30200003 .23900002 C .289 .187 .277 .13800001 .237 .08500001 C .21100001 .051 .17300001 .022 .127 .022 C .113000009 .022 .068 .025000006 .051000008 .06400001 C .067 .06400001 .080000009 .06400001 .094000007 .076000008 C .104 .08500001 .11400001 .098000008 .11400001 .117000009 C .11400001 .148 .087000008 .15200001 .07700001 .15200001 C .054000006 .15200001 .021 .136 .021 .087000008 C .021 .037 .065000008 0 .127 0 C .23 0 .333 .091000009 .361 .20400001 L .45700003 .586 Z "/>
</symbol>
<use xlink:href="#font_2_5" transform="matrix(9.9626,0,0,-9.9626,19.378916,9.652349)"/>
</svg>
