<?xml version="1.0" encoding="UTF-8" standalone="no"?>
<!DOCTYPE svg PUBLIC "-//W3C//DTD SVG 1.1//EN" "http://www.w3.org/Graphics/SVG/1.1/DTD/svg11.dtd">
<svg xmlns="http://www.w3.org/2000/svg" xmlns:xlink="http://www.w3.org/1999/xlink" version="1.1" width="93.702pt" height="65.356pt" viewBox="0 0 93.702 65.356">
<path transform="matrix(1,0,0,-1,59.058,77.164)" d="M 14.17339 28.3468 C 24.00604 36.21294 34.2464 64.9674 28.3468 70.867 C 22.4472 76.7666 -16.5476 74.80006 -28.3468 70.867 C -40.146 66.93396 -54.72708 50.38632 -56.69362 42.5202 C -58.66014 34.65407 -52.35286 16.13992 -42.5202 14.17339 C -32.68755 12.20686 4.34073 20.48068 14.17339 28.3468 Z " fill="#cccce6"/>
<path transform="matrix(1,0,0,-1,59.058,77.164)" stroke-width="1" stroke-linecap="butt" stroke-miterlimit="10" stroke-linejoin="miter" fill="none" stroke="#000080" d="M 14.17339 28.3468 C 24.00604 36.21294 34.2464 64.9674 28.3468 70.867 C 22.4472 76.7666 -16.5476 74.80006 -28.3468 70.867 C -40.146 66.93396 -54.72708 50.38632 -56.69362 42.5202 C -58.66014 34.65407 -52.35286 16.13992 -42.5202 14.17339 C -32.68755 12.20686 4.34073 20.48068 14.17339 28.3468 Z "/>
<symbol id="font_0_1">
<path d="M .71000006 .71700009 C .71000006 .72 .708 .72700008 .699 .72700008 C .69600006 .72700008 .69500008 .7260001 .684 .71500006 L .614 .6380001 C .605 .65200009 .559 .72700008 .448 .72700008 C .22500001 .72700008 0 .50600007 0 .27400003 C 0 .109000008 .118000019 0 .271 0 C .358 0 .43400003 .040000004 .487 .086 C .58000007 .16800002 .597 .25900004 .597 .26200003 C .597 .272 .587 .272 .58500006 .272 C .579 .272 .574 .27 .572 .26200003 C .563 .23300001 .54 .162 .47100003 .104 C .402 .048 .33900003 .031000004 .287 .031000004 C .19700001 .031000004 .091000009 .083000008 .091000009 .23900001 C .091000009 .29600004 .112 .45800004 .21200003 .57500007 C .273 .646 .367 .69600006 .45600004 .69600006 C .558 .69600006 .61700007 .619 .61700007 .503 C .61700007 .46300004 .614 .46200005 .614 .45200003 C .614 .44200004 .625 .44200004 .629 .44200004 C .642 .44200004 .642 .44400005 .647 .46200005 L .71000006 .71700009 Z "/>
</symbol>
<use xlink:href="#font_0_1" transform="matrix(9.9626,0,0,-9.9626,41.46613,24.094182)" fill="#000080"/>
</svg>
