<?xml version="1.0" encoding="UTF-8" standalone="no"?>
<!DOCTYPE svg PUBLIC "-//W3C//DTD SVG 1.1//EN" "http://www.w3.org/Graphics/SVG/1.1/DTD/svg11.dtd">
<svg xmlns="http://www.w3.org/2000/svg" xmlns:xlink="http://www.w3.org/1999/xlink" version="1.1" width="94.499pt" height="66.153pt" viewBox="0 0 94.499 66.153">
<path transform="matrix(1,0,0,-1,59.456,77.563)" d="M 14.17339 28.3468 C 24.00604 36.21294 34.2464 64.9674 28.3468 70.867 C 22.4472 76.7666 -16.5476 74.80006 -28.3468 70.867 C -40.146 66.93396 -54.72708 50.38632 -56.69362 42.5202 C -58.66014 34.65407 -52.35286 16.13992 -42.5202 14.17339 C -32.68755 12.20686 4.34073 20.48068 14.17339 28.3468 Z " fill="#cccce6"/>
<path transform="matrix(1,0,0,-1,59.456,77.563)" stroke-width="1.59404" stroke-linecap="butt" stroke-miterlimit="10" stroke-linejoin="miter" fill="none" stroke="#000080" d="M 14.17339 28.3468 C 24.00604 36.21294 34.2464 64.9674 28.3468 70.867 C 22.4472 76.7666 -16.5476 74.80006 -28.3468 70.867 C -40.146 66.93396 -54.72708 50.38632 -56.69362 42.5202 C -58.66014 34.65407 -52.35286 16.13992 -42.5202 14.17339 C -32.68755 12.20686 4.34073 20.48068 14.17339 28.3468 Z "/>
<path transform="matrix(1,0,0,-1,59.456,77.563)" d="M 28.06348 45.35506 C 28.06348 46.9207 26.79428 48.1899 25.22864 48.1899 C 23.66298 48.1899 22.39378 46.9207 22.39378 45.35506 C 22.39378 43.7894 23.66298 42.5202 25.22864 42.5202 C 26.79428 42.5202 28.06348 43.7894 28.06348 45.35506 Z M 25.22864 45.35506 "/>
<path transform="matrix(1,0,0,-1,59.456,77.563)" stroke-width="1" stroke-linecap="butt" stroke-dasharray="2.98883,2.98883" stroke-miterlimit="10" stroke-linejoin="miter" fill="none" stroke="#000000" d="M 33.73276 45.35506 C 33.73276 50.0518 29.92538 53.85918 25.22864 53.85918 C 20.53188 53.85918 16.7245 50.0518 16.7245 45.35506 C 16.7245 40.6583 20.53188 36.85092 25.22864 36.85092 C 29.92538 36.85092 33.73276 40.6583 33.73276 45.35506 Z M 25.22864 45.35506 "/>
<symbol id="font_0_1">
<path d="M .59300008 .71700009 C .59300008 .72 .591 .72700008 .582 .72700008 C .577 .72700008 .57600006 .7260001 .56400009 .7120001 L .51600006 .65500006 C .49000008 .702 .43800003 .72700008 .37300004 .72700008 C .246 .72700008 .126 .61200007 .126 .49100004 C .126 .41000004 .179 .36400003 .23 .34900005 L .337 .32100005 C .374 .31200005 .42900003 .29700003 .42900003 .215 C .42900003 .12500002 .347 .031000004 .24900003 .031000004 C .18500002 .031000004 .074 .053000004 .074 .177 C .074 .201 .07900001 .22500001 .08 .231 C .081 .23500002 .082 .23600002 .082 .238 C .082 .24800001 .075 .24900002 .07000001 .24900002 C .065000008 .24900002 .063 .24800001 .060000004 .245 C .056 .24100001 0 .013000001 0 .010000002 C 0 .0040000008 .0050000029 0 .011 0 C .016000003 0 .017000005 .0010000002 .029 .0150000019 L .07800001 .072000008 C .12100001 .014000001 .18900001 0 .24700003 0 C .38300003 0 .50100007 .13300002 .50100007 .25700004 C .50100007 .32600004 .46700008 .36000005 .45200003 .37400005 C .42900003 .39700005 .41400004 .40100003 .325 .42400003 C .30300004 .43000005 .26700003 .44000004 .25800003 .44200004 C .23100002 .45100004 .19700001 .48000006 .19700001 .53300008 C .19700001 .614 .277 .69900009 .37200005 .69900009 C .45500005 .69900009 .51600006 .656 .51600006 .544 C .51600006 .512 .512 .49400006 .512 .48800005 C .512 .48700006 .512 .47800005 .52400007 .47800005 C .53400006 .47800005 .535 .48100005 .53900006 .49800004 L .59300008 .71700009 Z "/>
</symbol>
<use xlink:href="#font_0_1" transform="matrix(9.9626,0,0,-9.9626,42.460058,24.493176)" fill="#000080"/>
</svg>
