<?xml version="1.0" encoding="UTF-8" standalone="no"?>
<!DOCTYPE svg PUBLIC "-//W3C//DTD SVG 1.1//EN" "http://www.w3.org/Graphics/SVG/1.1/DTD/svg11.dtd">
<svg xmlns="http://www.w3.org/2000/svg" xmlns:xlink="http://www.w3.org/1999/xlink" version="1.1" width="181.892pt" height="179.685pt" viewBox="0 0 181.892 179.685">
<path transform="matrix(1,0,0,-1,7.791,174.634)" stroke-width="1" stroke-linecap="butt" stroke-miterlimit="10" stroke-linejoin="miter" fill="none" stroke="#808080" d="M 1.96819 78.57034 L 1.96819 82.82204 M 41.3322 78.57034 L 41.3322 82.82204 M 120.0602 78.57034 L 120.0602 82.82204 M 159.42421 78.57034 L 159.42421 82.82204 "/>
<path transform="matrix(1,0,0,-1,7.791,174.634)" stroke-width="1" stroke-linecap="butt" stroke-miterlimit="10" stroke-linejoin="miter" fill="none" stroke="#808080" d="M 78.57034 1.96819 L 82.82204 1.96819 M 78.57034 41.3322 L 82.82204 41.3322 M 78.57034 120.0602 L 82.82204 120.0602 M 78.57034 159.42421 L 82.82204 159.42421 "/>
<path transform="matrix(1,0,0,-1,7.791,174.634)" stroke-width="1" stroke-linecap="butt" stroke-miterlimit="10" stroke-linejoin="miter" fill="none" stroke="#000000" d="M 0 80.6962 L 159.39989 80.6962 "/>
<path transform="matrix(1,0,0,-1,167.19089,93.937808)" d="M 1.99252 0 L -1.19551 1.59401 L 0 0 L -1.19551 -1.59401 "/>
<path transform="matrix(1,0,0,-1,7.791,174.634)" stroke-width="1" stroke-linecap="butt" stroke-miterlimit="10" stroke-linejoin="miter" fill="none" stroke="#000000" d="M 80.6962 0 L 80.6962 159.39989 "/>
<path transform="matrix(0,-1,-1,-0,88.4872,15.234116)" d="M 1.99252 0 L -1.19551 1.59401 L 0 0 L -1.19551 -1.59401 "/>
<symbol id="font_0_1">
<path d="M .57600006 0 C .59300008 0 .611 0 .611 .019999996 C .611 .040000008 .59300008 .040000008 .57600006 .040000008 L .035000005 .040000008 C .018 .040000008 0 .040000008 0 .019999996 C 0 0 .018 0 .035000005 0 L .57600006 0 Z "/>
</symbol>
<use xlink:href="#font_0_1" transform="matrix(9.9626,0,0,-9.9626,4.220896,103.7866)"/>
<symbol id="font_1_4">
<path d="M .266 .165 L .266 .078 C .266 .042000005 .26400004 .031000002 .19000001 .031000002 L .16900002 .031000002 L .16900002 0 C .21000001 .003 .26200003 .003 .30400003 .003 C .34600003 .003 .39900003 .003 .44000004 0 L .44000004 .031000002 L .41900004 .031000002 C .34500004 .031000002 .34300003 .042000005 .34300003 .078 L .34300003 .165 L .44300003 .165 L .44300003 .19600001 L .34300003 .19600001 L .34300003 .651 C .34300003 .671 .34300003 .67700007 .32700003 .67700007 C .31800003 .67700007 .31500004 .67700007 .307 .665 L 0 .19600001 L 0 .165 L .266 .165 M .272 .19600001 L .028 .19600001 L .272 .569 L .272 .19600001 Z "/>
</symbol>
<use xlink:href="#font_1_4" transform="matrix(9.9626,0,0,-9.9626,11.421952,106.077999)"/>
<use xlink:href="#font_0_1" transform="matrix(9.9626,0,0,-9.9626,43.584897,103.7866)"/>
<symbol id="font_1_3">
<path d="M .07700001 .07700001 L .18300002 .18 C .33900003 .31800003 .39900003 .372 .39900003 .47200004 C .39900003 .586 .30900003 .666 .18700002 .666 C .074 .666 0 .574 0 .485 C 0 .42900003 .05 .42900003 .053000008 .42900003 C .07000001 .42900003 .105000007 .441 .105000007 .48200003 C .105000007 .508 .08700001 .53400006 .052000006 .53400006 C .044000005 .53400006 .042000008 .53400006 .039 .53300008 C .062000004 .59800007 .11600001 .63500007 .17400001 .63500007 C .26500003 .63500007 .308 .554 .308 .47200004 C .308 .39200003 .25800003 .31300003 .20300003 .25100003 L .011000004 .037 C 0 .026 0 .024 0 0 L .37100003 0 L .39900003 .17400001 L .374 .17400001 C .36900003 .14400001 .36200003 .1 .352 .085 C .345 .07700001 .279 .07700001 .257 .07700001 L .07700001 .07700001 Z "/>
</symbol>
<use xlink:href="#font_1_3" transform="matrix(9.9626,0,0,-9.9626,51.00513,106.077999)"/>
<use xlink:href="#font_1_3" transform="matrix(9.9626,0,0,-9.9626,125.85713,106.077999)"/>
<use xlink:href="#font_1_4" transform="matrix(9.9626,0,0,-9.9626,165.00196,106.077999)"/>
<use xlink:href="#font_0_1" transform="matrix(9.9626,0,0,-9.9626,70.86389,173.1696)"/>
<use xlink:href="#font_1_4" transform="matrix(9.9626,0,0,-9.9626,78.06495,175.461)"/>
<use xlink:href="#font_0_1" transform="matrix(9.9626,0,0,-9.9626,70.86389,133.8056)"/>
<use xlink:href="#font_1_3" transform="matrix(9.9626,0,0,-9.9626,78.28413,136.097)"/>
<use xlink:href="#font_1_3" transform="matrix(9.9626,0,0,-9.9626,78.284137,57.784997)"/>
<use xlink:href="#font_1_4" transform="matrix(9.9626,0,0,-9.9626,78.06496,18.421998)"/>
<path transform="matrix(1,0,0,-1,7.791,174.634)" stroke-width="1.59404" stroke-linecap="butt" stroke-miterlimit="10" stroke-linejoin="miter" fill="none" stroke="#000000" d="M 139.7422 80.6962 C 139.7422 80.6962 139.68669 83.40398 139.62058 84.44089 C 139.55446 85.4778 139.3971 87.13902 139.2657 88.16965 C 139.1343 89.20026 138.87033 90.84859 138.67346 91.86888 C 138.4766 92.88918 138.10765 94.51727 137.84682 95.52324 C 137.58599 96.52919 137.1176 98.13179 136.79343 99.11914 C 136.46927 100.10649 135.89688 101.67487 135.51036 102.63945 C 135.12386 103.60403 134.45412 105.13277 134.00763 106.07121 C 133.56116 107.00967 132.7975 108.49504 132.29236 109.40317 C 131.7872 110.31131 130.92877 111.74248 130.36687 112.61646 C 129.80496 113.49043 128.85848 114.86526 128.24239 115.70221 C 127.62631 116.53915 126.59454 117.85254 125.92662 118.6486 C 125.25868 119.44467 124.14539 120.6878 123.42838 121.4397 C 122.71138 122.1916 121.5222 123.36264 120.75891 124.06784 C 119.99562 124.77304 118.73376 125.86723 117.92706 126.52238 C 117.12035 127.17752 115.79109 128.18695 114.94464 128.78975 C 114.09819 129.39257 112.70934 130.31884 111.82643 130.86699 C 110.94353 131.41513 109.49733 132.24988 108.58125 132.74053 C 107.66516 133.23117 106.16905 133.97159 105.22389 134.40326 C 104.27872 134.83492 102.73976 135.48079 101.76912 135.85166 C 100.79848 136.22252 99.22057 136.76773 98.22813 137.07627 C 97.2357 137.38478 95.62617 137.82996 94.61629 138.07532 C 93.6064 138.32068 91.97285 138.6643 90.94954 138.8447 C 89.92622 139.02509 88.27359 139.26059 87.24084 139.37552 C 86.2081 139.49045 84.54402 139.62348 83.5062 139.67311 C 82.46837 139.72275 80.79971 139.74988 79.7609 139.73334 C 78.72209 139.7168 77.05493 139.63632 76.01917 139.55384 C 74.98338 139.47135 73.32428 139.28662 72.2957 139.13875 C 71.26714 138.99088 69.62286 138.70098 68.60593 138.48805 C 67.58899 138.27513 65.96802 137.8808 64.96632 137.60414 C 63.96465 137.32747 62.36858 136.8338 61.38637 136.49407 C 60.40417 136.15435 58.8456 135.55709 57.88731 135.15549 C 56.92905 134.7539 55.41092 134.0607 54.47977 133.59964 C 53.54861 133.13858 52.07608 132.35196 51.17615 131.8324 C 50.2762 131.31284 48.85869 130.4307 47.99356 129.85494 C 47.12843 129.27918 45.76807 128.31182 44.94089 127.68265 C 44.11371 127.05347 42.81693 126.00075 42.03168 125.3202 C 41.24644 124.63966 40.02176 123.50673 39.28133 122.7777 C 38.5409 122.04865 37.38818 120.84013 36.6951 120.0657 C 36.00203 119.29128 34.9284 118.01286 34.28603 117.19608 C 33.64366 116.37929 32.65459 115.03444 32.0653 114.17882 C 31.47604 113.32318 30.57275 111.9208 30.03886 111.0293 C 29.50496 110.13779 28.69325 108.67738 28.21729 107.75343 C 27.7413 106.8295 27.0252 105.32188 26.60829 104.37009 C 26.19138 103.41829 25.56783 101.8699 25.21243 100.89345 C 24.85704 99.917 24.33925 98.32959 24.04686 97.33241 C 23.75449 96.33522 23.3344 94.71986 23.10509 93.70639 C 22.87578 92.6929 22.55833 91.05385 22.39417 90.02783 C 22.23 89.0018 22.02068 87.34592 21.92181 86.31146 C 21.82294 85.277 21.71481 83.61046 21.68147 82.57208 C 21.64815 81.53369 21.64832 79.86569 21.68147 78.8274 C 21.71465 77.78908 21.82198 76.12314 21.92061 75.0886 C 22.01924 74.05406 22.2284 72.39726 22.3924 71.37106 C 22.55641 70.34486 22.87358 68.70607 23.10272 67.69249 C 23.33186 66.67891 23.75143 65.06308 24.04391 64.06589 C 24.33638 63.0687 24.85536 61.48178 25.21066 60.5054 C 25.56596 59.52902 26.18793 57.98074 26.60475 57.02878 C 27.02158 56.07683 27.73895 54.5682 28.21492 53.64426 C 28.6909 52.72032 29.50157 51.26099 30.03531 50.36957 C 30.56906 49.47816 31.4725 48.07541 32.06177 47.21947 C 32.65105 46.36353 33.64021 45.01747 34.28249 44.20044 C 34.92477 43.3834 35.99815 42.10507 36.69098 41.33081 C 37.38382 40.55655 38.53566 39.34904 39.276 38.62001 C 40.01636 37.89098 41.24171 36.75693 42.02696 36.07631 C 42.8122 35.39569 44.10846 34.34372 44.93556 33.71446 C 45.76268 33.08522 47.12328 32.11684 47.98825 31.54099 C 48.85321 30.96513 50.26979 30.0836 51.16965 29.56412 C 52.06952 29.04463 53.54271 28.2581 54.47386 27.79688 C 55.40501 27.33565 56.92253 26.64166 57.88081 26.23982 C 58.83908 25.83798 60.39844 25.24057 61.38048 24.90067 C 62.3625 24.56076 63.95714 24.06682 64.95865 23.79001 C 65.96017 23.5132 67.58191 23.11867 68.59885 22.90552 C 69.61578 22.69235 71.25946 22.40158 72.28802 22.25363 C 73.31659 22.1057 74.97614 21.92163 76.01207 21.83914 C 77.04802 21.75665 78.71559 21.67567 79.75441 21.65904 C 80.79321 21.64241 82.46129 21.66971 83.49911 21.71927 C 84.53693 21.76883 86.20154 21.9015 87.23436 22.01627 C 88.26718 22.13104 89.91971 22.3662 90.94302 22.54651 C 91.96635 22.7268 93.59991 23.07059 94.60979 23.31587 C 95.61967 23.56116 97.2292 24.0059 98.22163 24.31435 C 99.21407 24.62277 100.79189 25.16817 101.76262 25.53896 C 102.73334 25.90974 104.27283 26.5551 105.21799 26.98676 C 106.16316 27.41841 107.65877 28.1596 108.57475 28.65009 C 109.49075 29.14056 110.93686 29.97409 111.81992 30.52184 C 112.70299 31.06958 114.09273 31.99518 114.93933 32.5979 C 115.78595 33.2006 117.11511 34.2108 117.92174 34.86586 C 118.72838 35.52094 119.98972 36.61418 120.753 37.31923 C 121.5163 38.02426 122.70572 39.19547 123.42307 39.94737 C 124.1404 40.69928 125.25505 41.94249 125.92305 42.73846 C 126.59106 43.53444 127.6216 44.84749 128.23769 45.68427 C 128.85376 46.52104 129.80117 47.89545 130.36333 48.76942 C 130.92549 49.6434 131.7842 51.07526 132.28942 51.98329 C 132.79465 52.89134 133.55823 54.37563 134.0047 55.31407 C 134.45119 56.25253 135.12091 57.78236 135.50742 58.74702 C 135.89392 59.71167 136.46608 61.27963 136.7905 62.26675 C 137.1149 63.25386 137.58446 64.85577 137.84563 65.86147 C 138.10681 66.86717 138.47609 68.49493 138.67287 69.51523 C 138.86965 70.53554 139.1326 72.18413 139.26392 73.21506 C 139.39524 74.246 139.55319 75.90842 139.61939 76.94559 C 139.68558 77.98276 139.74102 80.69028 139.74102 80.69028 "/>
<path transform="matrix(1,0,0,-1,7.791,174.634)" stroke-width="1.59404" stroke-linecap="butt" stroke-miterlimit="10" stroke-linejoin="miter" fill="none" stroke="#000080" d="M 139.7422 80.6962 L 139.7422 96.59238 "/>
<path transform="matrix(0,-1,-1,-0,147.5332,78.041629)" d="M 3.78581 0 L -2.27148 3.02866 L 0 0 L -2.27148 -3.02866 " fill="#000080"/>
<path transform="matrix(1,0,0,-1,7.791,174.634)" stroke-width="1.59404" stroke-linecap="butt" stroke-miterlimit="10" stroke-linejoin="miter" fill="none" stroke="#000080" d="M 125.9278 118.65038 L 115.72105 130.81444 "/>
<path transform="matrix(-.64574,-.76949,-.76949,.64574,123.51205,43.81958)" d="M 3.78581 0 L -2.27148 3.02866 L 0 0 L -2.27148 -3.02866 " fill="#000080"/>
<path transform="matrix(1,0,0,-1,7.791,174.634)" stroke-width="1.59404" stroke-linecap="butt" stroke-miterlimit="10" stroke-linejoin="miter" fill="none" stroke="#000080" d="M 90.94954 138.84587 L 75.29857 141.60564 "/>
<path transform="matrix(-.98586,-.17381,-.17381,.98586,83.08957,33.028367)" d="M 3.78581 0 L -2.27148 3.02866 L 0 0 L -2.27148 -3.02866 " fill="#000080"/>
<path transform="matrix(1,0,0,-1,7.791,174.634)" stroke-width="1.59404" stroke-linecap="butt" stroke-miterlimit="10" stroke-linejoin="miter" fill="none" stroke="#000080" d="M 51.1732 131.83179 L 37.41702 123.8897 "/>
<path transform="matrix(-.86877,.50159,.50159,.86877,45.20802,50.744295)" d="M 3.78581 0 L -2.27148 3.02866 L 0 0 L -2.27148 -3.02866 " fill="#000080"/>
<path transform="matrix(1,0,0,-1,7.791,174.634)" stroke-width="1.59404" stroke-linecap="butt" stroke-miterlimit="10" stroke-linejoin="miter" fill="none" stroke="#000080" d="M 25.21066 100.8917 L 19.77534 85.95854 "/>
<path transform="matrix(-.34247,.94089,.94089,.34247,27.56636,88.675449)" d="M 3.78581 0 L -2.27148 3.02866 L 0 0 L -2.27148 -3.02866 " fill="#000080"/>
<path transform="matrix(1,0,0,-1,7.791,174.634)" stroke-width="1.59404" stroke-linecap="butt" stroke-miterlimit="10" stroke-linejoin="miter" fill="none" stroke="#000080" d="M 25.21066 60.50069 L 30.64598 45.56752 "/>
<path transform="matrix(.34247,.94089,.94089,-.34247,38.43697,129.06647)" d="M 3.78581 0 L -2.27148 3.02866 L 0 0 L -2.27148 -3.02866 " fill="#000080"/>
<path transform="matrix(1,0,0,-1,7.791,174.634)" stroke-width="1.59404" stroke-linecap="butt" stroke-miterlimit="10" stroke-linejoin="miter" fill="none" stroke="#000080" d="M 51.1732 29.5606 L 64.92937 21.6185 "/>
<path transform="matrix(.86877,.50159,.50159,-.86877,72.72037,153.01549)" d="M 3.78581 0 L -2.27148 3.02866 L 0 0 L -2.27148 -3.02866 " fill="#000080"/>
<path transform="matrix(1,0,0,-1,7.791,174.634)" stroke-width="1.59404" stroke-linecap="butt" stroke-miterlimit="10" stroke-linejoin="miter" fill="none" stroke="#000080" d="M 90.94954 22.54651 L 106.6005 25.30627 "/>
<path transform="matrix(.98586,-.17381,-.17381,-.98586,114.3915,149.32773)" d="M 3.78581 0 L -2.27148 3.02866 L 0 0 L -2.27148 -3.02866 " fill="#000080"/>
<path transform="matrix(1,0,0,-1,7.791,174.634)" stroke-width="1.59404" stroke-linecap="butt" stroke-miterlimit="10" stroke-linejoin="miter" fill="none" stroke="#000080" d="M 125.9278 42.742 L 136.13455 54.90607 "/>
<path transform="matrix(.64574,-.76949,-.76949,-.64574,143.92555,119.72795)" d="M 3.78581 0 L -2.27148 3.02866 L 0 0 L -2.27148 -3.02866 " fill="#000080"/>
<path transform="matrix(1,0,0,-1,7.791,174.634)" stroke-width="1.59404" stroke-linecap="butt" stroke-miterlimit="10" stroke-linejoin="miter" fill="none" stroke="#800000" d="M 139.7422 80.6962 L 123.84602 80.6962 "/>
<path transform="matrix(-1,0,0,1,131.63703,93.937808)" d="M 3.78581 0 L -2.27148 3.02866 L 0 0 L -2.27148 -3.02866 " fill="#800000"/>
<path transform="matrix(1,0,0,-1,7.791,174.634)" stroke-width="1.59404" stroke-linecap="butt" stroke-miterlimit="10" stroke-linejoin="miter" fill="none" stroke="#800000" d="M 125.9278 118.65038 L 113.76372 108.44362 "/>
<path transform="matrix(-.76949,.64574,.64574,.76949,121.55473,66.190387)" d="M 3.78581 0 L -2.27148 3.02866 L 0 0 L -2.27148 -3.02866 " fill="#800000"/>
<path transform="matrix(1,0,0,-1,7.791,174.634)" stroke-width="1.59404" stroke-linecap="butt" stroke-miterlimit="10" stroke-linejoin="miter" fill="none" stroke="#800000" d="M 90.94954 138.84587 L 88.18977 123.19492 "/>
<path transform="matrix(-.17381,.98586,.98586,.17381,95.980777,51.43908)" d="M 3.78581 0 L -2.27148 3.02866 L 0 0 L -2.27148 -3.02866 " fill="#800000"/>
<path transform="matrix(1,0,0,-1,7.791,174.634)" stroke-width="1.59404" stroke-linecap="butt" stroke-miterlimit="10" stroke-linejoin="miter" fill="none" stroke="#800000" d="M 51.1732 131.83179 L 59.11528 118.0756 "/>
<path transform="matrix(.50159,.86877,.86877,-.50159,66.90626,56.558404)" d="M 3.78581 0 L -2.27148 3.02866 L 0 0 L -2.27148 -3.02866 " fill="#800000"/>
<path transform="matrix(1,0,0,-1,7.791,174.634)" stroke-width="1.59404" stroke-linecap="butt" stroke-miterlimit="10" stroke-linejoin="miter" fill="none" stroke="#800000" d="M 25.21066 100.8917 L 40.14381 95.45638 "/>
<path transform="matrix(.94089,.34247,.34247,-.94089,47.9348,79.17761)" d="M 3.78581 0 L -2.27148 3.02866 L 0 0 L -2.27148 -3.02866 " fill="#800000"/>
<path transform="matrix(1,0,0,-1,7.791,174.634)" stroke-width="1.59404" stroke-linecap="butt" stroke-miterlimit="10" stroke-linejoin="miter" fill="none" stroke="#800000" d="M 25.21066 60.50069 L 40.14381 65.936 "/>
<path transform="matrix(.94089,-.34247,-.34247,-.94089,47.9348,108.69801)" d="M 3.78581 0 L -2.27148 3.02866 L 0 0 L -2.27148 -3.02866 " fill="#800000"/>
<path transform="matrix(1,0,0,-1,7.791,174.634)" stroke-width="1.59404" stroke-linecap="butt" stroke-miterlimit="10" stroke-linejoin="miter" fill="none" stroke="#800000" d="M 51.1732 29.5606 L 59.11528 43.31677 "/>
<path transform="matrix(.50159,-.86877,-.86877,-.50159,66.90626,131.31723)" d="M 3.78581 0 L -2.27148 3.02866 L 0 0 L -2.27148 -3.02866 " fill="#800000"/>
<path transform="matrix(1,0,0,-1,7.791,174.634)" stroke-width="1.59404" stroke-linecap="butt" stroke-miterlimit="10" stroke-linejoin="miter" fill="none" stroke="#800000" d="M 90.94954 22.54651 L 88.18977 38.19746 "/>
<path transform="matrix(-.17381,-.98586,-.98586,.17381,95.980777,136.43654)" d="M 3.78581 0 L -2.27148 3.02866 L 0 0 L -2.27148 -3.02866 " fill="#800000"/>
<path transform="matrix(1,0,0,-1,7.791,174.634)" stroke-width="1.59404" stroke-linecap="butt" stroke-miterlimit="10" stroke-linejoin="miter" fill="none" stroke="#800000" d="M 125.9278 42.742 L 113.76372 52.94876 "/>
<path transform="matrix(-.76949,-.64574,-.64574,.76949,121.55473,121.68524)" d="M 3.78581 0 L -2.27148 3.02866 L 0 0 L -2.27148 -3.02866 " fill="#800000"/>
<symbol id="font_2_1">
<path d="M .15699999 .16499996 L 0 .038999976 L .027999998 0 L .15699999 .083000008 L .286 .0009999871 L .314 .037999989 L .15699999 .16499996 Z "/>
</symbol>
<symbol id="font_2_3">
<path d="M .082 .40300004 L .082 .12900001 C .082 .022 .16900002 0 .24000001 0 C .316 0 .36100004 .057000005 .36100004 .13000001 L .36100004 .183 L .314 .183 L .314 .132 C .314 .064 .282 .040000004 .254 .040000004 C .19600001 .040000004 .19600001 .104 .19600001 .127 L .19600001 .40300004 L .342 .40300004 L .342 .45000006 L .19600001 .45000006 L .19600001 .64100006 L .149 .64100006 C .14800002 .541 .09900001 .44200004 0 .43900005 L 0 .40300004 L .082 .40300004 Z "/>
</symbol>
<use xlink:href="#font_2_1" transform="matrix(9.9626,0,0,-9.9626,42.19514,34.824789)" fill="#000080"/>
<use xlink:href="#font_2_3" transform="matrix(9.9626,0,0,-9.9626,41.745218,42.05178)" fill="#000080"/>
<symbol id="font_1_1">
<path d="M .23200003 .00999999 C .23200003 .012999982 .23200003 .014999986 .215 .03199999 C .09 .15799999 .058 .347 .058 .5 C .058 .674 .096 .84800007 .21900001 .97300007 C .23200003 .985 .23200003 .98700007 .23200003 .99 C .23200003 .99700006 .22800002 1 .222 1 C .21200001 1 .12200001 .93200007 .06299999 .805 C .012000002 .69500008 0 .584 0 .5 C 0 .422 .011 .301 .066 .188 C .126 .065 .21200001 0 .222 0 C .22800002 0 .23200003 .0029999912 .23200003 .00999999 Z "/>
</symbol>
<use xlink:href="#font_1_1" transform="matrix(9.9626,0,0,-9.9626,46.978303,44.482656)" fill="#000080"/>
<symbol id="font_3_1">
<path d="M .18300002 .411 L .277 .411 C .29700003 .411 .307 .411 .307 .43100003 C .307 .44200004 .29700003 .44200004 .279 .44200004 L .19100002 .44200004 C .227 .584 .23200003 .60400006 .23200003 .61 C .23200003 .62700006 .22000002 .637 .20300001 .637 C .2 .637 .172 .636 .163 .601 L .124 .44200004 L .030000002 .44200004 C .009999998 .44200004 0 .44200004 0 .42300005 C 0 .411 .007999999 .411 .028 .411 L .11600001 .411 C .044 .127 .04 .11000001 .04 .092 C .04 .038000004 .078 0 .132 0 C .234 0 .291 .14600002 .291 .15400002 C .291 .16400002 .28300003 .16400002 .279 .16400002 C .27 .16400002 .26900003 .16100002 .264 .15000002 C .22100002 .046 .16800002 .022000002 .134 .022000002 C .113000009 .022000002 .103 .035 .103 .068 C .103 .092 .105000007 .09900001 .109 .116000007 L .18300002 .411 Z "/>
</symbol>
<use xlink:href="#font_3_1" transform="matrix(9.9626,0,0,-9.9626,50.095148,42.101594)" fill="#000080"/>
<symbol id="font_1_2">
<path d="M .232 .5 C .232 .578 .22100002 .699 .16600001 .81200006 C .106 .93500009 .020000004 1 .009999998 1 C .0040000008 1 0 .99600008 0 .99 C 0 .98700007 0 .985 .019000002 .967 C .117000009 .86800006 .174 .709 .174 .5 C .174 .329 .137 .153 .012999997 .026999996 C 0 .014999986 0 .012999982 0 .00999999 C 0 .003999993 .0040000008 0 .009999998 0 C .020000004 0 .11000001 .06799999 .169 .195 C .22 .305 .232 .416 .232 .5 Z "/>
</symbol>
<use xlink:href="#font_1_2" transform="matrix(9.9626,0,0,-9.9626,54.03187,44.482656)" fill="#000080"/>
<symbol id="font_2_2">
<path d="M .069000009 .356 L .069000009 .047000003 L 0 .047000003 L 0 0 C .028000005 .001 .088 .003 .126 .003 C .165 .003 .22400002 .001 .25200004 0 L .25200004 .047000003 L .18300002 .047000003 L .18300002 .256 C .18300002 .365 .269 .41400004 .33200003 .41400004 C .366 .41400004 .38700003 .393 .38700003 .317 L .38700003 .047000003 L .31800003 .047000003 L .31800003 0 C .34600003 .001 .40600003 .003 .444 .003 C .48299999 .003 .542 .001 .57 0 L .57 .047000003 L .501 .047000003 L .501 .30600003 C .501 .411 .44700004 .45000003 .347 .45000003 C .251 .45000003 .19800002 .393 .172 .342 L .172 .45000003 L 0 .44200004 L 0 .395 C .062000008 .395 .069000009 .395 .069000009 .356 Z "/>
</symbol>
<use xlink:href="#font_2_1" transform="matrix(9.9626,0,0,-9.9626,98.31714,120.68178)" fill="#800000"/>
<use xlink:href="#font_2_2" transform="matrix(9.9626,0,0,-9.9626,97.15152,125.951999)" fill="#800000"/>
<use xlink:href="#font_1_1" transform="matrix(9.9626,0,0,-9.9626,104.0553,128.44264)" fill="#800000"/>
<use xlink:href="#font_3_1" transform="matrix(9.9626,0,0,-9.9626,107.17214,126.061588)" fill="#800000"/>
<use xlink:href="#font_1_2" transform="matrix(9.9626,0,0,-9.9626,111.10887,128.44264)" fill="#800000"/>
<symbol id="font_3_2">
<path d="M .305 .31300003 C .311 .33900003 .334 .43100003 .404 .43100003 C .409 .43100003 .433 .43100003 .454 .418 C .426 .41300003 .40600003 .388 .40600003 .36400003 C .40600003 .34800003 .417 .32900004 .444 .32900004 C .46600003 .32900004 .498 .34700004 .498 .38700003 C .498 .43900005 .439 .45300005 .405 .45300005 C .347 .45300005 .312 .40000005 .3 .37700004 C .275 .44300003 .221 .45300005 .19200002 .45300005 C .08800001 .45300005 .031000002 .32400004 .031000002 .29900003 C .031000002 .28900004 .041 .28900004 .043000007 .28900004 C .051000008 .28900004 .054000006 .291 .056 .3 C .09 .40600003 .156 .43100003 .19000001 .43100003 C .209 .43100003 .244 .42200003 .244 .36400003 C .244 .33300004 .22700002 .26600004 .19000001 .126 C .17400001 .064 .13900002 .022000002 .095000009 .022000002 C .08900001 .022000002 .06600001 .022000002 .045 .035 C .07000001 .040000004 .09200001 .061 .09200001 .089 C .09200001 .116000007 .07000001 .124000009 .055000009 .124000009 C .025 .124000009 0 .098000008 0 .06600001 C 0 .020000002 .050000006 0 .094000007 0 C .16000001 0 .19600001 .07000001 .19900002 .076000008 C .21100001 .039 .24700003 0 .307 0 C .41 0 .467 .12900001 .467 .15400002 C .467 .16400002 .458 .16400002 .455 .16400002 C .446 .16400002 .444 .16000001 .442 .15300001 C .409 .046 .341 .022000002 .30900003 .022000002 C .27 .022000002 .254 .054 .254 .08800001 C .254 .11000001 .26 .13200002 .271 .17600002 L .305 .31300003 Z "/>
</symbol>
<use xlink:href="#font_3_2" transform="matrix(9.9626,0,0,-9.9626,173.0919,96.17859)"/>
<symbol id="font_3_3">
<path d="M .45700003 .586 C .461 .6 .461 .602 .461 .609 C .461 .62700006 .447 .63600006 .432 .63600006 C .42200003 .63600006 .40600003 .63 .397 .615 C .395 .61 .387 .579 .38300003 .561 C .37600003 .535 .36900003 .508 .363 .48100005 L .318 .301 C .314 .286 .271 .21600002 .20500002 .21600002 C .15400002 .21600002 .143 .26000003 .143 .29700003 C .143 .34300003 .16000001 .40500004 .194 .49300004 C .21000001 .53400006 .21400002 .545 .21400002 .56500008 C .21400002 .61 .18200001 .6470001 .13200002 .6470001 C .037 .6470001 0 .50200006 0 .49300004 C 0 .48300005 .01 .48300005 .012 .48300005 C .022000002 .48300005 .023 .485 .028000003 .50100007 C .055000009 .595 .095000009 .625 .12900001 .625 C .13700001 .625 .15400002 .625 .15400002 .59300008 C .15400002 .568 .14400001 .54200008 .13700001 .523 C .097 .41700004 .079 .36 .079 .31300003 C .079 .224 .142 .194 .201 .194 C .24000003 .194 .274 .21100001 .30200003 .23900002 C .289 .187 .277 .13800001 .237 .08500001 C .21100001 .051 .17300001 .022 .127 .022 C .113000009 .022 .068 .025000006 .051000008 .06400001 C .067 .06400001 .080000009 .06400001 .094000007 .076000008 C .104 .08500001 .11400001 .098000008 .11400001 .117000009 C .11400001 .148 .087000008 .15200001 .07700001 .15200001 C .054000006 .15200001 .021 .136 .021 .087000008 C .021 .037 .065000008 0 .127 0 C .23 0 .333 .091000009 .361 .20400001 L .45700003 .586 Z "/>
</symbol>
<use xlink:href="#font_3_3" transform="matrix(9.9626,0,0,-9.9626,86.168918,9.726339)"/>
</svg>
