<?xml version="1.0" encoding="UTF-8" standalone="no"?>
<!DOCTYPE svg PUBLIC "-//W3C//DTD SVG 1.1//EN" "http://www.w3.org/Graphics/SVG/1.1/DTD/svg11.dtd">
<svg xmlns="http://www.w3.org/2000/svg" xmlns:xlink="http://www.w3.org/1999/xlink" version="1.1" width="229.768pt" height="175.293pt" viewBox="0 0 229.768 175.293">
<path transform="matrix(1,0,0,-1,116.789,97.539)" stroke-width="1" stroke-linecap="butt" stroke-miterlimit="10" stroke-linejoin="miter" fill="none" stroke="#808080" d="M 0 0 L 4.0377 -1.33292 M -24.30492 -8.02359 L -20.26721 -9.35652 M -48.60983 -16.0472 L -44.57213 -17.38013 M -72.91476 -24.0708 L -68.87706 -25.40373 M -97.21968 -32.0944 L -93.18198 -33.42734 M 97.21968 -32.0944 L 93.18196 -30.76147 M 72.91476 -40.11801 L 68.87704 -38.78508 M 48.60983 -48.14162 L 44.57211 -46.80867 M 24.30492 -56.16522 L 20.2672 -54.83228 M 0 -64.18883 L -4.03772 -62.85588 "/>
<path transform="matrix(1,0,0,-1,116.789,97.539)" stroke-width="1" stroke-linecap="butt" stroke-miterlimit="10" stroke-linejoin="miter" fill="none" stroke="#808080" d="M 0 0 L -4.0377 -1.33292 M 24.30492 -8.02359 L 20.26721 -9.35652 M 48.60983 -16.0472 L 44.57213 -17.38013 M 72.91476 -24.0708 L 68.87706 -25.40373 M 97.21968 -32.0944 L 93.18198 -33.42734 M -97.21968 -32.0944 L -93.18196 -30.76147 M -72.91476 -40.11801 L -68.87704 -38.78508 M -48.60983 -48.14162 L -44.57211 -46.80867 M -24.30492 -56.16522 L -20.2672 -54.83228 M 0 -64.18883 L 4.03772 -62.85588 "/>
<path transform="matrix(1,0,0,-1,116.789,97.539)" stroke-width="1" stroke-linecap="butt" stroke-miterlimit="10" stroke-linejoin="miter" fill="none" stroke="#000000" d="M 0 0 L -97.21968 -32.0944 "/>
<path transform="matrix(1,0,0,-1,116.789,97.539)" stroke-width="1" stroke-linecap="butt" stroke-miterlimit="10" stroke-linejoin="miter" fill="none" stroke="#000000" d="M 97.21968 -32.0944 L 0 -64.18883 "/>
<path transform="matrix(1,0,0,-1,116.789,97.539)" stroke-width="1" stroke-linecap="butt" stroke-miterlimit="10" stroke-linejoin="miter" fill="none" stroke="#000000" d="M 0 0 L 97.21968 -32.0944 "/>
<path transform="matrix(1,0,0,-1,116.789,97.539)" stroke-width="1" stroke-linecap="butt" stroke-miterlimit="10" stroke-linejoin="miter" fill="none" stroke="#000000" d="M -97.21968 -32.0944 L 0 -64.18883 "/>
<symbol id="font_0_1">
<path d="M .57600006 0 C .59300008 0 .611 0 .611 .019999996 C .611 .040000008 .59300008 .040000008 .57600006 .040000008 L .035000005 .040000008 C .018 .040000008 0 .040000008 0 .019999996 C 0 0 .018 0 .035000005 0 L .57600006 0 Z "/>
</symbol>
<use xlink:href="#font_0_1" transform="matrix(9.9626,0,0,-9.9626,214.5439,138.5396)"/>
<symbol id="font_1_3">
<path d="M .266 .165 L .266 .078 C .266 .042000005 .26400004 .031000002 .19000001 .031000002 L .16900002 .031000002 L .16900002 0 C .21000001 .003 .26200003 .003 .30400003 .003 C .34600003 .003 .39900003 .003 .44000004 0 L .44000004 .031000002 L .41900004 .031000002 C .34500004 .031000002 .34300003 .042000005 .34300003 .078 L .34300003 .165 L .44300003 .165 L .44300003 .19600001 L .34300003 .19600001 L .34300003 .651 C .34300003 .671 .34300003 .67700007 .32700003 .67700007 C .31800003 .67700007 .31500004 .67700007 .307 .665 L 0 .19600001 L 0 .165 L .266 .165 M .272 .19600001 L .028 .19600001 L .272 .569 L .272 .19600001 Z "/>
</symbol>
<use xlink:href="#font_1_3" transform="matrix(9.9626,0,0,-9.9626,221.74495,140.831)"/>
<use xlink:href="#font_0_1" transform="matrix(9.9626,0,0,-9.9626,190.23889,146.56362)"/>
<symbol id="font_1_2">
<path d="M .07700001 .07700001 L .18300002 .18 C .33900003 .31800003 .39900003 .372 .39900003 .47200004 C .39900003 .586 .30900003 .666 .18700002 .666 C .074 .666 0 .574 0 .485 C 0 .42900003 .05 .42900003 .053000008 .42900003 C .07000001 .42900003 .105000007 .441 .105000007 .48200003 C .105000007 .508 .08700001 .53400006 .052000006 .53400006 C .044000005 .53400006 .042000008 .53400006 .039 .53300008 C .062000004 .59800007 .11600001 .63500007 .17400001 .63500007 C .26500003 .63500007 .308 .554 .308 .47200004 C .308 .39200003 .25800003 .31300003 .20300003 .25100003 L .011000004 .037 C 0 .026 0 .024 0 0 L .37100003 0 L .39900003 .17400001 L .374 .17400001 C .36900003 .14400001 .36200003 .1 .352 .085 C .345 .07700001 .279 .07700001 .257 .07700001 L .07700001 .07700001 Z "/>
</symbol>
<use xlink:href="#font_1_2" transform="matrix(9.9626,0,0,-9.9626,197.65912,148.85501)"/>
<symbol id="font_1_1">
<path d="M .421 .34200005 C .421 .42200003 .416 .50200006 .381 .57600006 C .335 .67200008 .25300003 .688 .211 .688 C .15100001 .688 .07800001 .66200008 .037000006 .56900009 C .0050000029 .5 0 .42200003 0 .34200005 C 0 .26700003 .0040000008 .177 .045000007 .101 C .088 .020000002 .161 0 .21000001 0 C .264 0 .34 .021000002 .384 .116000007 C .416 .185 .421 .263 .421 .34200005 M .21000001 .022000002 C .171 .022000002 .112 .047000003 .094 .143 C .083000008 .20300001 .083000008 .29500003 .083000008 .35400004 C .083000008 .41800005 .083000008 .48400004 .091000009 .53800007 C .11 .65700009 .185 .66600009 .21000001 .66600009 C .243 .66600009 .30900003 .64800009 .328 .549 C .338 .49300004 .338 .41700004 .338 .35400004 C .338 .279 .338 .21100001 .32700003 .147 C .312 .052 .255 .022000002 .21000001 .022000002 Z "/>
</symbol>
<use xlink:href="#font_1_1" transform="matrix(9.9626,0,0,-9.9626,168.38153,156.14418)"/>
<use xlink:href="#font_1_2" transform="matrix(9.9626,0,0,-9.9626,144.18712,163.949)"/>
<use xlink:href="#font_1_3" transform="matrix(9.9626,0,0,-9.9626,119.66296,171.972)"/>
<use xlink:href="#font_0_1" transform="matrix(9.9626,0,0,-9.9626,7.9569008,138.5396)"/>
<use xlink:href="#font_1_3" transform="matrix(9.9626,0,0,-9.9626,15.157957,140.831)"/>
<use xlink:href="#font_0_1" transform="matrix(9.9626,0,0,-9.9626,32.2619,146.56362)"/>
<use xlink:href="#font_1_2" transform="matrix(9.9626,0,0,-9.9626,39.682138,148.85501)"/>
<use xlink:href="#font_1_1" transform="matrix(9.9626,0,0,-9.9626,60.991544,156.14418)"/>
<use xlink:href="#font_1_2" transform="matrix(9.9626,0,0,-9.9626,85.40513,163.949)"/>
<use xlink:href="#font_1_3" transform="matrix(9.9626,0,0,-9.9626,109.49095,171.972)"/>
<path transform="matrix(1,0,0,-1,116.789,97.539)" stroke-width="1" stroke-linecap="butt" stroke-miterlimit="10" stroke-linejoin="miter" fill="none" stroke="#808080" d="M 0 97.3413 L 4.0377 96.00838 M -24.30492 89.3177 L -20.26721 87.98477 M -48.60983 81.2941 L -44.57213 79.96117 M -72.91476 73.2705 L -68.87706 71.93756 M -97.21968 65.24689 L -93.18198 63.91396 "/>
<path transform="matrix(1,0,0,-1,116.789,97.539)" stroke-width="1" stroke-linecap="butt" stroke-miterlimit="10" stroke-linejoin="miter" fill="none" stroke="#808080" d="M 0 97.3413 L -4.0377 96.00838 M 24.30492 89.3177 L 20.26721 87.98477 M 48.60983 81.2941 L 44.57213 79.96117 M 72.91476 73.2705 L 68.87706 71.93756 M 97.21968 65.24689 L 93.18198 63.91396 "/>
<path transform="matrix(1,0,0,-1,116.789,97.539)" stroke-width="1" stroke-linecap="butt" stroke-miterlimit="10" stroke-linejoin="miter" fill="none" stroke="#000000" d="M 0 97.3413 L -97.21968 65.24689 "/>
<path transform="matrix(1,0,0,-1,116.789,97.539)" stroke-width="1" stroke-linecap="butt" stroke-miterlimit="10" stroke-linejoin="miter" fill="none" stroke="#000000" d="M 0 97.3413 L 97.21968 65.24689 "/>
<path transform="matrix(1,0,0,-1,116.789,97.539)" stroke-width="1" stroke-linecap="butt" stroke-miterlimit="10" stroke-linejoin="miter" fill="none" stroke="#808080" d="M 0 0 L 0 4.25185 M 24.30492 -8.02359 L 24.30492 -3.77174 M 48.60983 -16.0472 L 48.60983 -11.79535 M 72.91476 -24.0708 L 72.91476 -19.81895 M 97.21968 -32.0944 L 97.21968 -27.84256 M 0 97.3413 L 0 93.08943 M 24.30492 89.3177 L 24.30492 85.06583 M 48.60983 81.2941 L 48.60983 77.04222 M 72.91476 73.2705 L 72.91476 69.01862 M 97.21968 65.24689 L 97.21968 60.99501 "/>
<path transform="matrix(1,0,0,-1,116.789,97.539)" stroke-width="1" stroke-linecap="butt" stroke-miterlimit="10" stroke-linejoin="miter" fill="none" stroke="#808080" d="M 0 0 L 4.0377 -1.33292 M 0 24.33531 L 4.0377 23.0024 M 0 48.67064 L 4.0377 47.33772 M 0 73.00597 L 4.0377 71.67305 M 0 97.3413 L 4.0377 96.00838 M 97.21968 -32.0944 L 93.18196 -30.76147 M 97.21968 -7.75908 L 93.18196 -6.42615 M 97.21968 16.57623 L 93.18196 17.90916 M 97.21968 40.91156 L 93.18196 42.24449 M 97.21968 65.24689 L 93.18196 66.57982 "/>
<path transform="matrix(1,0,0,-1,116.789,97.539)" stroke-width="1" stroke-linecap="butt" stroke-miterlimit="10" stroke-linejoin="miter" fill="none" stroke="#000000" d="M 0 0 L 0 97.3413 "/>
<path transform="matrix(1,0,0,-1,116.789,97.539)" stroke-width="1" stroke-linecap="butt" stroke-miterlimit="10" stroke-linejoin="miter" fill="none" stroke="#000000" d="M 97.21968 -32.0944 L 97.21968 65.24689 "/>
<path transform="matrix(1,0,0,-1,116.789,97.539)" stroke-width="1" stroke-linecap="butt" stroke-miterlimit="10" stroke-linejoin="miter" fill="none" stroke="#808080" d="M -97.21968 -32.0944 L -97.21968 -27.84256 M -72.91476 -40.11801 L -72.91476 -35.86615 M -48.60983 -48.14162 L -48.60983 -43.88976 M -24.30492 -56.16522 L -24.30492 -51.91336 M 0 -64.18883 L 0 -59.93697 "/>
<path transform="matrix(1,0,0,-1,116.789,97.539)" stroke-width="1" stroke-linecap="butt" stroke-miterlimit="10" stroke-linejoin="miter" fill="none" stroke="#808080" d="M -97.21968 -32.0944 L -93.18198 -33.42734 M -97.21968 -7.75908 L -93.18198 -9.09201 M -97.21968 16.57623 L -93.18198 15.2433 M -97.21968 40.91156 L -93.18198 39.57863 M -97.21968 65.24689 L -93.18198 63.91396 "/>
<path transform="matrix(1,0,0,-1,116.789,97.539)" stroke-width="1" stroke-linecap="butt" stroke-miterlimit="10" stroke-linejoin="miter" fill="none" stroke="#000000" d="M -97.21968 -32.0944 L -97.21968 65.24689 "/>
<use xlink:href="#font_0_1" transform="matrix(9.9626,0,0,-9.9626,4.147895,130.13661)"/>
<use xlink:href="#font_1_3" transform="matrix(9.9626,0,0,-9.9626,11.347952,132.42801)"/>
<use xlink:href="#font_0_1" transform="matrix(9.9626,0,0,-9.9626,4.147895,105.801609)"/>
<use xlink:href="#font_1_2" transform="matrix(9.9626,0,0,-9.9626,11.567129,108.093)"/>
<use xlink:href="#font_1_1" transform="matrix(9.9626,0,0,-9.9626,11.457541,84.39217)"/>
<use xlink:href="#font_1_2" transform="matrix(9.9626,0,0,-9.9626,11.56713,59.837999)"/>
<use xlink:href="#font_1_3" transform="matrix(9.9626,0,0,-9.9626,11.347953,35.503007)"/>
<path transform="matrix(1,0,0,-1,116.789,97.539)" stroke-width="1" stroke-linecap="butt" stroke-miterlimit="10" stroke-linejoin="miter" fill="none" stroke="#808080" d="M 0 0 L 0 4.25185 M -24.30492 -8.02359 L -24.30492 -3.77174 M -48.60983 -16.0472 L -48.60983 -11.79535 M -72.91476 -24.0708 L -72.91476 -19.81895 M -97.21968 -32.0944 L -97.21968 -27.84256 M 0 97.3413 L 0 93.08943 M -24.30492 89.3177 L -24.30492 85.06583 M -48.60983 81.2941 L -48.60983 77.04222 M -72.91476 73.2705 L -72.91476 69.01862 M -97.21968 65.24689 L -97.21968 60.99501 "/>
<path transform="matrix(1,0,0,-1,116.789,97.539)" stroke-width="1" stroke-linecap="butt" stroke-miterlimit="10" stroke-linejoin="miter" fill="none" stroke="#808080" d="M 0 0 L -4.0377 -1.33292 M 0 24.33531 L -4.0377 23.0024 M 0 48.67064 L -4.0377 47.33772 M 0 73.00597 L -4.0377 71.67305 M 0 97.3413 L -4.0377 96.00838 M -97.21968 -32.0944 L -93.18196 -30.76147 M -97.21968 -7.75908 L -93.18196 -6.42615 M -97.21968 16.57623 L -93.18196 17.90916 M -97.21968 40.91156 L -93.18196 42.24449 M -97.21968 65.24689 L -93.18196 66.57982 "/>
<path transform="matrix(1,0,0,-1,116.789,97.539)" stroke-width="1" stroke-linecap="butt" stroke-miterlimit="10" stroke-linejoin="miter" fill="none" stroke="#808080" d="M 97.21968 -32.0944 L 97.21968 -27.84256 M 72.91476 -40.11801 L 72.91476 -35.86615 M 48.60983 -48.14162 L 48.60983 -43.88976 M 24.30492 -56.16522 L 24.30492 -51.91336 M 0 -64.18883 L 0 -59.93697 "/>
<path transform="matrix(1,0,0,-1,116.789,97.539)" stroke-width="1" stroke-linecap="butt" stroke-miterlimit="10" stroke-linejoin="miter" fill="none" stroke="#808080" d="M 97.21968 -32.0944 L 93.18198 -33.42734 M 97.21968 -7.75908 L 93.18198 -9.09201 M 97.21968 16.57623 L 93.18198 15.2433 M 97.21968 40.91156 L 93.18198 39.57863 M 97.21968 65.24689 L 93.18198 63.91396 "/>
<clipPath id="cp2">
<path transform="matrix(1,0,0,-1,116.789,97.539)" d="M -97.21968 -32.0944 L -97.21968 65.24689 L 0 97.3413 L 97.21968 65.24689 L 97.21968 -32.0944 L 0 -64.18883 Z "/>
</clipPath>
<g clip-path="url(#cp2)">
<path transform="matrix(1,0,0,-1,116.789,97.539)" stroke-width="1" stroke-linecap="butt" stroke-miterlimit="10" stroke-linejoin="miter" fill="none" stroke="#800000" d="M -12.15245 16.70848 L -2.53496 18.79025 "/>
<path transform="matrix(.97865,-.21182,-.21182,-.97865,114.25403,78.74875)" d="M 2.59026 0 L -1.55415 2.0722 L 0 0 L -1.55415 -2.0722 " fill="#800000"/>
<path transform="matrix(1,0,0,-1,116.789,97.539)" stroke-width="1" stroke-linecap="butt" stroke-miterlimit="10" stroke-linejoin="miter" fill="none" stroke="#800000" d="M -12.15245 16.70848 L -12.15245 27.40329 "/>
<path transform="matrix(0,-1,-1,-0,104.63655,70.13571)" d="M 2.59026 0 L -1.55415 2.0722 L 0 0 L -1.55415 -2.0722 " fill="#800000"/>
<path transform="matrix(1,0,0,-1,116.789,97.539)" stroke-width="1" stroke-linecap="butt" stroke-miterlimit="10" stroke-linejoin="miter" fill="none" stroke="#800000" d="M -12.15245 16.70848 L -22.74837 30.81573 "/>
<path transform="matrix(-.60092,-.8,-.8,.60092,94.040637,66.72328)" d="M 2.59026 0 L -1.55415 2.0722 L 0 0 L -1.55415 -2.0722 " fill="#800000"/>
<path transform="matrix(1,0,0,-1,116.789,97.539)" stroke-width="1" stroke-linecap="butt" stroke-miterlimit="10" stroke-linejoin="miter" fill="none" stroke="#800000" d="M -12.15245 16.70848 L -27.0664 25.02364 "/>
<path transform="matrix(-.87622,-.48853,-.48853,.87622,89.7226,72.51538)" d="M 2.59026 0 L -1.55415 2.0722 L 0 0 L -1.55415 -2.0722 " fill="#800000"/>
<path transform="matrix(1,0,0,-1,116.789,97.539)" stroke-width="1" stroke-linecap="butt" stroke-miterlimit="10" stroke-linejoin="miter" fill="none" stroke="#800000" d="M -12.15245 16.70848 L -21.7696 14.62683 "/>
<path transform="matrix(-.97865,.21182,.21182,.97865,95.01941,82.91217)" d="M 2.59026 0 L -1.55415 2.0722 L 0 0 L -1.55415 -2.0722 " fill="#800000"/>
<path transform="matrix(1,0,0,-1,116.789,97.539)" stroke-width="1" stroke-linecap="butt" stroke-miterlimit="10" stroke-linejoin="miter" fill="none" stroke="#800000" d="M -12.15245 16.70848 L -12.15245 6.00154 "/>
<path transform="matrix(0,1,1,0,104.63655,91.53746)" d="M 2.59026 0 L -1.55415 2.0722 L 0 0 L -1.55415 -2.0722 " fill="#800000"/>
<path transform="matrix(1,0,0,-1,116.789,97.539)" stroke-width="1" stroke-linecap="butt" stroke-miterlimit="10" stroke-linejoin="miter" fill="none" stroke="#800000" d="M -12.15245 16.70848 L -1.55653 2.60123 "/>
<path transform="matrix(.60092,.8,.8,-.60092,115.23247,94.93776)" d="M 2.59026 0 L -1.55415 2.0722 L 0 0 L -1.55415 -2.0722 " fill="#800000"/>
<path transform="matrix(1,0,0,-1,116.789,97.539)" stroke-width="1" stroke-linecap="butt" stroke-miterlimit="10" stroke-linejoin="miter" fill="none" stroke="#800000" d="M -12.15245 16.70848 L 2.76147 8.39336 "/>
<path transform="matrix(.87622,.48853,.48853,-.87622,119.55047,89.14563)" d="M 2.59026 0 L -1.55415 2.0722 L 0 0 L -1.55415 -2.0722 " fill="#800000"/>
<path transform="matrix(1,0,0,-1,116.789,97.539)" stroke-width="1" stroke-linecap="butt" stroke-miterlimit="10" stroke-linejoin="miter" fill="none" stroke="#000080" d="M -12.15245 16.70848 L 22.03528 35.76685 "/>
<path transform="matrix(.87622,-.48843,-.48843,-.87622,138.82428,61.772153)" d="M 2.59026 0 L -1.55415 2.0722 L 0 0 L -1.55415 -2.0722 " fill="#000080"/>
</g>
</svg>
