<?xml version="1.0" encoding="UTF-8" standalone="no"?>
<!DOCTYPE svg PUBLIC "-//W3C//DTD SVG 1.1//EN" "http://www.w3.org/Graphics/SVG/1.1/DTD/svg11.dtd">
<svg xmlns="http://www.w3.org/2000/svg" xmlns:xlink="http://www.w3.org/1999/xlink" version="1.1" width="130.025pt" height="105.663pt" viewBox="0 0 130.025 105.663">
<clipPath id="cp0">
<path transform="matrix(1,0,0,-1,41.352,65.130008)" d="M -41.35242 -27.64632 L -41.35242 37.48524 L 0 65.13156 L 88.67465 52.24484 L 88.67465 -12.8867 L 47.32224 -40.53302 Z "/>
</clipPath>
<g clip-path="url(#cp0)">
<path transform="matrix(1,0,0,-1,41.352,65.130008)" stroke-width="1" stroke-linecap="butt" stroke-miterlimit="10" stroke-linejoin="miter" fill="none" stroke="#000080" d="M 41.38358 -1.57722 C 41.38358 -1.57722 35.24054 .44424 32.79933 1.10631 C 30.35811 1.76836 26.29042 2.6999 23.78902 3.19447 C 21.28763 3.68904 17.21545 4.34407 14.77094 4.6709 C 12.32642 4.99771 8.44398 5.38312 6.17058 5.55002 C 3.89717 5.71692 .38155 5.85168 -1.61423 5.87389 C -3.61002 5.89607 -6.58876 5.81053 -8.21368 5.71002 C -9.83861 5.60951 -12.14723 5.34491 -13.32562 5.14941 C -14.504 4.95392 -16.03033 4.55939 -16.70671 4.3009 C -17.38307 4.04242 -18.05733 3.5727 -18.20045 3.28645 C -18.34358 3.00021 -18.13542 2.51537 -17.73831 2.23785 C -17.3412 1.96034 -16.25705 1.51921 -15.33832 1.28629 C -14.41959 1.05338 -12.51408 .71344 -11.11668 .5591 C -9.71928 .40474 -7.07765 .21939 -5.26682 .17383 C -3.45596 .12827 -.20444 .14232 1.93466 .23067 C 4.07378 .31902 7.78267 .56946 10.15045 .81068 C 12.51822 1.05191 16.51399 1.56358 18.99991 1.96933 C 21.48582 2.37509 25.57965 3.1607 28.0673 3.73512 C 30.55498 4.30952 34.55644 5.37013 36.9293 6.10933 C 39.30217 6.84853 43.02228 8.17033 45.16933 9.06274 C 47.31638 9.95514 50.58275 11.51428 52.40382 12.54121 C 54.2249 13.56815 56.8844 15.32782 58.29443 16.4642 C 59.70448 17.6006 61.63364 19.51578 62.5665 20.73163 C 63.49937 21.94748 64.60579 23.96587 65.01799 25.22728 C 65.43019 26.4887 65.6652 28.55206 65.53746 29.82312 C 65.4097 31.0942 64.75896 33.14398 64.0971 34.38829 C 63.43526 35.63261 61.93204 37.60902 60.76724 38.79132 C 59.60245 39.97362 57.31554 41.82147 55.70203 42.90952 C 54.08853 43.99757 51.12473 45.6672 49.13814 46.63324 C 47.15155 47.59929 41.38397 49.87207 41.38397 49.87207 "/>
<path transform="matrix(1,0,0,-1,41.352,65.130008)" stroke-width="1" stroke-linecap="butt" stroke-miterlimit="10" stroke-linejoin="miter" fill="none" stroke="#800000" d="M 5.93864 .45084 L 10.95538 .80334 "/>
<path transform="matrix(.99756,-.07005,-.07005,-.99756,52.30738,64.326679)" d="M 2.59026 0 L -1.55415 2.0722 L 0 0 L -1.55415 -2.0722 " fill="#800000"/>
<path transform="matrix(1,0,0,-1,41.352,65.130008)" stroke-width="1" stroke-linecap="butt" stroke-miterlimit="10" stroke-linejoin="miter" fill="none" stroke="#800000" d="M 45.87865 9.57036 L 50.73476 11.50085 "/>
<path transform="matrix(.93166,-.3704,-.3704,-.93166,92.08675,53.629156)" d="M 2.59026 0 L -1.55415 2.0722 L 0 0 L -1.55415 -2.0722 " fill="#800000"/>
</g>
<path transform="matrix(1,0,0,-1,41.352,65.130008)" stroke-width="1" stroke-linecap="butt" stroke-miterlimit="10" stroke-linejoin="miter" fill="none" stroke="#808080" d="M 33.3721 20.50398 L 37.58006 19.89246 M 9.74216 4.70609 L 13.9501 4.09456 "/>
<path transform="matrix(1,0,0,-1,41.352,65.130008)" stroke-width="1" stroke-linecap="butt" stroke-miterlimit="10" stroke-linejoin="miter" fill="none" stroke="#808080" d="M .093 17.16286 L -3.44199 14.79951 M 50.76424 9.79903 L 47.22923 7.43567 "/>
<path transform="matrix(1,0,0,-1,41.352,65.130008)" stroke-width="1" stroke-linecap="butt" stroke-miterlimit="10" stroke-linejoin="miter" fill="none" stroke="#000000" d="M 44.33733 26.12242 L 4.64787 -.41211 "/>
<path transform="matrix(-.83461,.55798,.55798,.83461,45.99987,65.54211)" d="M 1.99252 0 L -1.19551 1.59401 L 0 0 L -1.19551 -1.59401 "/>
<path transform="matrix(1,0,0,-1,41.352,65.130008)" stroke-width="1" stroke-linecap="butt" stroke-miterlimit="10" stroke-linejoin="miter" fill="none" stroke="#000000" d="M -20.67621 18.74261 L 66.02516 6.14265 "/>
<path transform="matrix(.99034,.14392,.14392,-.99034,107.37717,58.987356)" d="M 1.99252 0 L -1.19551 1.59401 L 0 0 L -1.19551 -1.59401 "/>
<symbol id="font_1_1">
<path d="M .63600006 0 C .65200009 0 .67600008 0 .67600008 .023999989 C .67600008 .048999996 .65300008 .048999996 .63600006 .048999996 L .04 .048999996 C .023999997 .048999996 0 .048999996 0 .025000006 C 0 0 .02300001 0 .04 0 L .63600006 0 Z "/>
</symbol>
<use xlink:href="#font_1_1" transform="matrix(6.9738,0,0,-6.9738,76.92517,52.44993)"/>
<symbol id="font_2_3">
<path d="M .442 .18200001 L .40800003 .18200001 C .40500004 .16000001 .39500005 .101 .38200004 .091000009 C .374 .085 .29700003 .085 .28300003 .085 L .099 .085 C .20400003 .178 .23900002 .20600002 .29900003 .25300003 C .37300004 .312 .442 .374 .442 .469 C .442 .59000006 .33600004 .66400006 .20800004 .66400006 C .084 .66400006 0 .577 0 .485 C 0 .43400003 .043000007 .42900003 .053000004 .42900003 C .077 .42900003 .10600001 .446 .10600001 .48200003 C .10600001 .5 .099 .535 .047000007 .535 C .078 .606 .146 .628 .19300002 .628 C .293 .628 .34500004 .55 .34500004 .469 C .34500004 .38200004 .28300003 .31300003 .25100003 .277 L .010000005 .039 C 0 .030000002 0 .028 0 0 L .41200004 0 L .442 .18200001 Z "/>
</symbol>
<use xlink:href="#font_2_3" transform="matrix(6.9738,0,0,-6.9738,82.83734,54.02601)"/>
<use xlink:href="#font_2_3" transform="matrix(6.9738,0,0,-6.9738,54.726354,68.65701)"/>
<use xlink:href="#font_1_1" transform="matrix(6.9738,0,0,-6.9738,33.41317,55.12193)"/>
<use xlink:href="#font_2_3" transform="matrix(6.9738,0,0,-6.9738,39.32535,56.69801)"/>
<use xlink:href="#font_2_3" transform="matrix(6.9738,0,0,-6.9738,87.31335,63.67201)"/>
<path transform="matrix(1,0,0,-1,41.352,65.130008)" stroke-width="1" stroke-linecap="butt" stroke-miterlimit="10" stroke-linejoin="miter" fill="none" stroke="#808080" d="M -1.67448 13.85518 L -1.67448 18.10716 M 48.99673 6.49135 L 48.99673 10.74332 "/>
<path transform="matrix(1,0,0,-1,41.352,65.130008)" stroke-width="1" stroke-linecap="butt" stroke-miterlimit="10" stroke-linejoin="miter" fill="none" stroke="#808080" d="M 21.55713 -7.87657 L 25.76508 -8.48811 M 21.55713 33.08665 L 25.76508 32.47513 "/>
<path transform="matrix(1,0,0,-1,41.352,65.130008)" stroke-width="1" stroke-linecap="butt" stroke-miterlimit="10" stroke-linejoin="miter" fill="none" stroke="#000000" d="M 23.66112 -20.26651 L 23.66112 42.87253 "/>
<path transform="matrix(0,-1,-1,-0,65.01312,22.257473)" d="M 1.99252 0 L -1.19551 1.59401 L 0 0 L -1.19551 -1.59401 "/>
<use xlink:href="#font_1_1" transform="matrix(6.9738,0,0,-6.9738,45.97317,75.66193)"/>
<symbol id="font_2_2">
<path d="M .22600001 .63600006 C .22600001 .66300007 .224 .66400006 .19600001 .66400006 C .132 .601 .041 .6 0 .6 L 0 .564 C .023999997 .564 .09000001 .564 .14500001 .592 L .14500001 .082 C .14500001 .049000004 .14500001 .036000004 .04500001 .036000004 L .0069999995 .036000004 L .0069999995 0 C .024999999 .001 .148 .004 .185 .004 C .21600002 .004 .34200005 .001 .36400003 0 L .36400003 .036000004 L .32600004 .036000004 C .22600001 .036000004 .22600001 .049000004 .22600001 .082 L .22600001 .63600006 Z "/>
</symbol>
<symbol id="font_2_1">
<path d="M .46400006 .33900003 C .46400006 .44900004 .45100004 .528 .40500004 .598 C .374 .644 .31200005 .684 .23200001 .684 C 0 .684 0 .41100005 0 .33900003 C 0 .26700003 0 0 .23200001 0 C .46400006 0 .46400006 .26700003 .46400006 .33900003 M .23200001 .028 C .186 .028 .125 .055 .105000007 .13700001 C .091000009 .19600001 .091000009 .27800004 .091000009 .35200004 C .091000009 .42500005 .091000009 .50100007 .106000009 .556 C .127 .635 .19100002 .656 .23200001 .656 C .286 .656 .338 .623 .356 .565 C .37200005 .51100006 .37300004 .43900005 .37300004 .35200004 C .37300004 .27800004 .37300004 .20400001 .36 .141 C .34000004 .050000006 .272 .028 .23200001 .028 Z "/>
</symbol>
<use xlink:href="#font_2_2" transform="matrix(6.9738,0,0,-6.9738,52.207147,77.23801)"/>
<use xlink:href="#font_2_1" transform="matrix(6.9738,0,0,-6.9738,55.784708,77.37748)"/>
<use xlink:href="#font_2_2" transform="matrix(6.9738,0,0,-6.9738,52.207147,35.986009)"/>
<use xlink:href="#font_2_1" transform="matrix(6.9738,0,0,-6.9738,55.784708,36.125486)"/>
<path transform="matrix(1,0,0,-1,41.352,65.130008)" stroke-width="1" stroke-linecap="butt" stroke-miterlimit="10" stroke-linejoin="miter" fill="none" stroke="#808080" d="M 35.47609 18.0722 L 35.47609 22.32419 M 11.84613 2.2743 L 11.84613 6.52629 "/>
<path transform="matrix(1,0,0,-1,41.352,65.130008)" stroke-width="1" stroke-linecap="butt" stroke-miterlimit="10" stroke-linejoin="miter" fill="none" stroke="#808080" d="M 25.42862 -7.00067 L 21.89362 -9.36401 M 25.42862 33.96257 L 21.89362 31.59921 "/>
<symbol id="font_3_1">
<path d="M .201 .116000007 C .19100002 .082 .15800002 .028 .107 .028 C .10400001 .028 .07400001 .028 .053000004 .042000005 C .094000007 .055000005 .09700001 .091 .09700001 .097 C .09700001 .119 .080000009 .134 .057000005 .134 C .029000007 .134 0 .11 0 .073 C 0 .023000002 .056 0 .10500001 0 C .15100003 0 .192 .029000003 .21700001 .071 C .241 .018000002 .296 0 .336 0 C .451 0 .512 .125 .512 .15300001 C .512 .16600001 .49900005 .16600001 .49600003 .16600001 C .48200003 .16600001 .48100005 .16100002 .47700004 .14900002 C .456 .08 .39600004 .028 .34 .028 C .3 .028 .279 .055000005 .279 .093 C .279 .119 .303 .21000001 .331 .321 C .351 .398 .39600004 .423 .42900003 .423 C .43100003 .423 .46200005 .423 .483 .409 C .451 .4 .439 .372 .439 .354 C .439 .33200003 .456 .317 .479 .317 C .50200006 .317 .535 .336 .535 .37800003 C .535 .43400003 .47100006 .451 .43100003 .451 C .381 .451 .34100003 .418 .319 .38 C .301 .421 .255 .451 .199 .451 C .087000008 .451 .023000002 .328 .023000002 .298 C .023000002 .285 .037 .285 .040000008 .285 C .053000004 .285 .054000006 .289 .059000009 .30200003 C .084 .38 .14700002 .423 .19600001 .423 C .229 .423 .256 .405 .256 .357 C .256 .337 .24400002 .287 .23500002 .25300003 L .201 .116000007 Z "/>
</symbol>
<use xlink:href="#font_3_1" transform="matrix(6.9738,0,0,-6.9738,39.423746,71.21375)"/>
<symbol id="font_3_2">
<path d="M .50900009 .58100005 C .513 .595 .513 .597 .513 .60300007 C .513 .623 .49700005 .63500007 .48000003 .63500007 C .46900005 .63500007 .45000003 .63000008 .43900005 .611 C .43600003 .605 .42800004 .573 .42300005 .55300006 L .40200005 .47000004 C .39600004 .44600005 .36500005 .32000003 .36200003 .30900003 C .36100004 .30900003 .31700004 .22200002 .23900001 .22200002 C .171 .22200002 .171 .287 .171 .305 C .171 .35900004 .194 .42200003 .22400002 .499 C .23600002 .531 .24100001 .54300007 .24100001 .56 C .24100001 .60800006 .2 .64500007 .146 .64500007 C .045000007 .64500007 0 .509 0 .49200005 C 0 .47900004 .014000002 .47900004 .017 .47900004 C .031 .47900004 .032 .48400004 .035 .495 C .060000007 .578 .103 .61700007 .143 .61700007 C .16000001 .61700007 .168 .606 .168 .582 C .168 .559 .15900001 .537 .154 .52400007 C .106000009 .402 .096 .365 .096 .321 C .096 .30400003 .096 .25700004 .135 .22500001 C .16600001 .19900002 .20800002 .194 .235 .194 C .27500005 .194 .31100003 .209 .34400005 .23900001 C .33100004 .18400002 .32000003 .142 .27800004 .09200001 C .25100003 .061000006 .21100001 .027999998 .158 .027999998 C .15100001 .027999998 .104 .027999998 .083000008 .061000006 C .13700001 .067 .13700001 .11500001 .13700001 .116000007 C .13700001 .148 .107999999 .15400002 .098000008 .15400002 C .073 .15400002 .040000004 .134 .040000004 .08800001 C .040000004 .037 .088 0 .15900001 0 C .26000003 0 .38300003 .07800001 .41400004 .20300001 L .50900009 .58100005 Z "/>
</symbol>
<use xlink:href="#font_3_2" transform="matrix(6.9738,0,0,-6.9738,107.53176,66.501659)"/>
<symbol id="font_3_3">
<path d="M .10700001 .098000008 C .133 .124000009 .15100001 .143 .23600002 .21100001 C .25700004 .22800002 .33200003 .28800003 .361 .316 C .422 .37600003 .46000005 .42700003 .46000005 .439 C .46000005 .451 .44700004 .451 .44300003 .451 C .43400003 .451 .431 .449 .426 .441 C .39500005 .395 .374 .38 .35000003 .38 C .338 .38 .323 .381 .29299999 .41 C .259 .444 .237 .451 .214 .451 C .134 .451 .08 .364 .08 .334 C .08 .32500003 .09 .322 .097 .322 C .109 .322 .111 .32500003 .11500001 .336 C .13000001 .37100003 .186 .373 .202 .373 C .22500001 .373 .251 .367 .265 .364 C .32 .352 .32700003 .352 .352 .352 C .32600004 .32500003 .30800004 .307 .21300002 .23100002 C .135 .16900002 .10800001 .14400001 .089 .124000009 C .029 .065000008 0 .021000002 0 .012000001 C 0 0 .012999997 0 .016999998 0 C .027000003 0 .029 .0020000004 .034 .010000001 C .061000006 .048000006 .09200001 .071 .126 .071 C .13800001 .071 .15300001 .07 .18 .045 C .21100001 .015000001 .23100002 0 .263 0 C .37 0 .43700005 .12100001 .43700005 .15500002 C .43700005 .16700001 .426 .16800002 .42000003 .16800002 C .408 .16800002 .40600003 .16300002 .402 .15200001 C .38300003 .102000009 .324 .078 .27500005 .078 C .25200004 .078 .22700002 .083000008 .202 .089 C .156 .099 .148 .099 .13000001 .099 C .128 .099 .113000009 .099 .10700001 .098000008 Z "/>
</symbol>
<use xlink:href="#font_3_3" transform="matrix(6.9738,0,0,-6.9738,63.392408,17.851744)"/>
</svg>
