<?xml version="1.0" encoding="UTF-8" standalone="no"?>
<!DOCTYPE svg PUBLIC "-//W3C//DTD SVG 1.1//EN" "http://www.w3.org/Graphics/SVG/1.1/DTD/svg11.dtd">
<svg xmlns="http://www.w3.org/2000/svg" xmlns:xlink="http://www.w3.org/1999/xlink" version="1.1" width="249.884pt" height="84.383pt" viewBox="0 0 249.884 84.383">
<path transform="matrix(1,0,0,-1,43.052,62.351007)" stroke-width="1" stroke-linecap="butt" stroke-miterlimit="10" stroke-linejoin="miter" fill="none" stroke="#808080" d="M 19.4266 21.186 L 19.4266 25.43782 M 58.27982 21.186 L 58.27982 25.43782 M 135.98625 21.186 L 135.98625 25.43782 M 174.83946 21.186 L 174.83946 25.43782 "/>
<path transform="matrix(1,0,0,-1,43.052,62.351007)" stroke-width="1" stroke-linecap="butt" stroke-miterlimit="10" stroke-linejoin="miter" fill="none" stroke="#808080" d="M 95.00711 3.88531 L 99.25894 3.88531 M 95.00711 42.73853 L 99.25894 42.73853 "/>
<path transform="matrix(1,0,0,-1,43.052,62.351007)" stroke-width="1" stroke-linecap="butt" stroke-miterlimit="10" stroke-linejoin="miter" fill="none" stroke="#000000" d="M 0 23.31192 L 192.27355 23.31192 "/>
<path transform="matrix(1,0,0,-1,235.32555,39.039087)" d="M 1.99252 0 L -1.19551 1.59401 L 0 0 L -1.19551 -1.59401 "/>
<path transform="matrix(1,0,0,-1,43.052,62.351007)" stroke-width="1" stroke-linecap="butt" stroke-miterlimit="10" stroke-linejoin="miter" fill="none" stroke="#000000" d="M 97.13303 0 L 97.13303 44.63133 "/>
<path transform="matrix(0,-1,-1,-0,140.18503,17.719677)" d="M 1.99252 0 L -1.19551 1.59401 L 0 0 L -1.19551 -1.59401 "/>
<symbol id="font_0_1">
<path d="M .57600006 0 C .59300008 0 .611 0 .611 .019999996 C .611 .040000008 .59300008 .040000008 .57600006 .040000008 L .035000005 .040000008 C .018 .040000008 0 .040000008 0 .019999996 C 0 0 .018 0 .035000005 0 L .57600006 0 Z "/>
</symbol>
<use xlink:href="#font_0_1" transform="matrix(9.9626,0,0,-9.9626,56.939897,48.814615)"/>
<symbol id="font_1_5">
<path d="M .266 .165 L .266 .078 C .266 .042000005 .26400004 .031000002 .19000001 .031000002 L .16900002 .031000002 L .16900002 0 C .21000001 .003 .26200003 .003 .30400003 .003 C .34600003 .003 .39900003 .003 .44000004 0 L .44000004 .031000002 L .41900004 .031000002 C .34500004 .031000002 .34300003 .042000005 .34300003 .078 L .34300003 .165 L .44300003 .165 L .44300003 .19600001 L .34300003 .19600001 L .34300003 .651 C .34300003 .671 .34300003 .67700007 .32700003 .67700007 C .31800003 .67700007 .31500004 .67700007 .307 .665 L 0 .19600001 L 0 .165 L .266 .165 M .272 .19600001 L .028 .19600001 L .272 .569 L .272 .19600001 Z "/>
</symbol>
<use xlink:href="#font_1_5" transform="matrix(9.9626,0,0,-9.9626,64.14095,51.10601)"/>
<use xlink:href="#font_0_1" transform="matrix(9.9626,0,0,-9.9626,95.7929,48.814615)"/>
<symbol id="font_1_4">
<path d="M .07700001 .07700001 L .18300002 .18 C .33900003 .31800003 .39900003 .372 .39900003 .47200004 C .39900003 .586 .30900003 .666 .18700002 .666 C .074 .666 0 .574 0 .485 C 0 .42900003 .05 .42900003 .053000008 .42900003 C .07000001 .42900003 .105000007 .441 .105000007 .48200003 C .105000007 .508 .08700001 .53400006 .052000006 .53400006 C .044000005 .53400006 .042000008 .53400006 .039 .53300008 C .062000004 .59800007 .11600001 .63500007 .17400001 .63500007 C .26500003 .63500007 .308 .554 .308 .47200004 C .308 .39200003 .25800003 .31300003 .20300003 .25100003 L .011000004 .037 C 0 .026 0 .024 0 0 L .37100003 0 L .39900003 .17400001 L .374 .17400001 C .36900003 .14400001 .36200003 .1 .352 .085 C .345 .07700001 .279 .07700001 .257 .07700001 L .07700001 .07700001 Z "/>
</symbol>
<use xlink:href="#font_1_4" transform="matrix(9.9626,0,0,-9.9626,103.212139,51.10601)"/>
<use xlink:href="#font_1_4" transform="matrix(9.9626,0,0,-9.9626,177.04312,51.10601)"/>
<use xlink:href="#font_1_5" transform="matrix(9.9626,0,0,-9.9626,215.67694,51.10601)"/>
<use xlink:href="#font_0_1" transform="matrix(9.9626,0,0,-9.9626,122.634899,58.969606)"/>
<symbol id="font_1_3">
<path d="M .205 .64000007 C .205 .66400006 .205 .666 .18200003 .666 C .120000008 .60200008 .032000007 .60200008 0 .60200008 L 0 .57100006 C .020000004 .57100006 .07900001 .57100006 .13100001 .597 L .13100001 .079 C .13100001 .043 .128 .031000002 .038000004 .031000002 L .0060000049 .031000002 L .0060000049 0 C .04100001 .003 .128 .003 .168 .003 C .20800002 .003 .29500003 .003 .33000005 0 L .33000005 .031000002 L .29800005 .031000002 C .20800002 .031000002 .205 .042000005 .205 .079 L .205 .64000007 Z "/>
</symbol>
<use xlink:href="#font_1_3" transform="matrix(9.9626,0,0,-9.9626,130.44268,61.261)"/>
<use xlink:href="#font_1_3" transform="matrix(9.9626,0,0,-9.9626,130.44268,22.82301)"/>
<path transform="matrix(1,0,0,-1,43.052,62.351007)" stroke-width="1.59404" stroke-linecap="butt" stroke-miterlimit="10" stroke-linejoin="miter" fill="none" stroke="#000080" d="M 0 41.93932 C 0 41.93932 5.84814 42.8568 8.09427 42.57611 C 10.3404 42.29543 13.94244 41.04852 16.18857 39.91623 C 18.4347 38.78392 22.03673 36.2053 24.28285 34.41519 C 26.52898 32.62506 30.13103 29.15582 32.37715 27.01424 C 34.62328 24.87267 38.22533 21.10683 40.47145 18.98016 C 42.71756 16.8535 46.3196 13.43451 48.56572 11.68665 C 50.81184 9.93878 54.4139 7.45267 56.66002 6.38278 C 58.90614 5.3129 62.5082 4.18459 64.7543 3.97565 C 67.00043 3.76671 70.60248 4.18906 72.8486 4.87685 C 75.09473 5.56465 78.69678 7.46611 80.9429 8.93292 C 83.18903 10.39972 86.79106 13.45378 89.03719 15.44861 C 91.28331 17.44344 94.88535 21.12874 97.13147 23.31036 C 99.3776 25.49197 102.97964 29.1773 105.22575 31.1723 C 107.47188 33.1673 111.07393 36.22188 113.32005 37.68896 C 115.56618 39.15605 119.16823 41.05792 121.41435 41.74602 C 123.66048 42.43413 127.26251 42.85703 129.50864 42.64838 C 131.75476 42.43974 135.3568 41.31178 137.60292 40.2422 C 139.84905 39.17262 143.4511 36.68713 145.69722 34.93951 C 147.94333 33.1919 151.54538 29.77316 153.7915 27.64658 C 156.03763 25.51997 159.63968 21.75417 161.8858 19.6125 C 164.13193 17.47086 167.73397 14.00124 169.98009 12.21097 C 172.22621 10.42068 175.82826 7.8419 178.07439 6.70935 C 180.32051 5.57681 183.92255 4.32936 186.16867 4.0483 C 188.41478 3.76723 194.26296 4.68353 194.26296 4.68353 "/>
<path transform="matrix(1,0,0,-1,43.052,62.351007)" stroke-width="1.59404" stroke-linecap="butt" stroke-miterlimit="10" stroke-linejoin="miter" fill="none" stroke="#800000" d="M 12.369 41.5671 L 7.30809 26.77174 "/>
<path transform="matrix(-.32382,.94678,.94678,.32382,50.36009,35.579248)" d="M 3.78581 0 L -2.27148 3.02866 L 0 0 L -2.27148 -3.02866 " fill="#800000"/>
<path transform="matrix(1,0,0,-1,43.052,62.351007)" stroke-width="1.59404" stroke-linecap="butt" stroke-miterlimit="10" stroke-linejoin="miter" fill="none" stroke="#800000" d="M 28.6446 30.58913 L 18.01993 19.13004 "/>
<path transform="matrix(-.68237,.73593,.73593,.68237,61.071939,43.220956)" d="M 3.78581 0 L -2.27148 3.02866 L 0 0 L -2.27148 -3.02866 " fill="#800000"/>
<path transform="matrix(1,0,0,-1,43.052,62.351007)" stroke-width="1.59404" stroke-linecap="butt" stroke-miterlimit="10" stroke-linejoin="miter" fill="none" stroke="#800000" d="M 44.92023 14.79587 L 55.36407 26.4161 "/>
<path transform="matrix(.67143,-.747,-.747,-.67143,98.41607,35.934915)" d="M 3.78581 0 L -2.27148 3.02866 L 0 0 L -2.27148 -3.02866 " fill="#800000"/>
<path transform="matrix(1,0,0,-1,43.052,62.351007)" stroke-width="1.59404" stroke-linecap="butt" stroke-miterlimit="10" stroke-linejoin="miter" fill="none" stroke="#800000" d="M 61.19463 4.6379 L 65.3493 19.71086 "/>
<path transform="matrix(.26608,-.96542,-.96542,-.26608,108.40129,42.640146)" d="M 3.78581 0 L -2.27148 3.02866 L 0 0 L -2.27148 -3.02866 " fill="#800000"/>
<path transform="matrix(1,0,0,-1,43.052,62.351007)" stroke-width="1.59404" stroke-linecap="butt" stroke-miterlimit="10" stroke-linejoin="miter" fill="none" stroke="#800000" d="M 77.46779 6.83717 L 70.15164 20.64388 "/>
<path transform="matrix(-.47014,-.8872,-.8872,.47014,113.20366,41.707124)" d="M 3.78581 0 L -2.27148 3.02866 L 0 0 L -2.27148 -3.02866 " fill="#800000"/>
<path transform="matrix(1,0,0,-1,43.052,62.351007)" stroke-width="1.59404" stroke-linecap="butt" stroke-miterlimit="10" stroke-linejoin="miter" fill="none" stroke="#800000" d="M 93.74254 19.93848 L 82.77441 31.07579 "/>
<path transform="matrix(-.7034,-.7142,-.7142,.7034,125.8264,31.275225)" d="M 3.78581 0 L -2.27148 3.02866 L 0 0 L -2.27148 -3.02866 " fill="#800000"/>
<path transform="matrix(1,0,0,-1,43.052,62.351007)" stroke-width="1.59404" stroke-linecap="butt" stroke-miterlimit="10" stroke-linejoin="miter" fill="none" stroke="#800000" d="M 110.01714 35.2721 L 119.68846 22.99875 "/>
<path transform="matrix(.62134,.7885,.7885,-.62134,162.74045,39.352258)" d="M 3.78581 0 L -2.27148 3.02866 L 0 0 L -2.27148 -3.02866 " fill="#800000"/>
<path transform="matrix(1,0,0,-1,43.052,62.351007)" stroke-width="1.59404" stroke-linecap="butt" stroke-miterlimit="10" stroke-linejoin="miter" fill="none" stroke="#800000" d="M 126.29198 42.69112 L 127.38036 27.08989 "/>
<path transform="matrix(.06961,.9982,.9982,-.06961,170.43236,35.26111)" d="M 3.78581 0 L -2.27148 3.02866 L 0 0 L -2.27148 -3.02866 " fill="#800000"/>
<path transform="matrix(1,0,0,-1,43.052,62.351007)" stroke-width="1.59404" stroke-linecap="butt" stroke-miterlimit="10" stroke-linejoin="miter" fill="none" stroke="#800000" d="M 142.56662 37.28645 L 133.64836 24.44952 "/>
<path transform="matrix(-.57182,.82307,.82307,.57182,176.70038,37.901487)" d="M 3.78581 0 L -2.27148 3.02866 L 0 0 L -2.27148 -3.02866 " fill="#800000"/>
<path transform="matrix(1,0,0,-1,43.052,62.351007)" stroke-width="1.59404" stroke-linecap="butt" stroke-miterlimit="10" stroke-linejoin="miter" fill="none" stroke="#800000" d="M 158.8397 22.63393 L 169.88278 33.68376 "/>
<path transform="matrix(.71027,-.71065,-.71065,-.71027,212.93479,28.667244)" d="M 3.78581 0 L -2.27148 3.02866 L 0 0 L -2.27148 -3.02866 " fill="#800000"/>
<path transform="matrix(1,0,0,-1,43.052,62.351007)" stroke-width="1.59404" stroke-linecap="butt" stroke-miterlimit="10" stroke-linejoin="miter" fill="none" stroke="#800000" d="M 175.11338 8.43036 L 183.568 21.58302 "/>
<path transform="matrix(.54138,-.84227,-.84227,-.54138,226.62,40.767999)" d="M 3.78581 0 L -2.27148 3.02866 L 0 0 L -2.27148 -3.02866 " fill="#800000"/>
<symbol id="font_2_1">
<path d="M 1.098 0 C 1.12 0 1.1350001 0 1.1350001 .029 C 1.1350001 .039000006 1.1350001 .049999983 1.1220001 .05700001 C 1.067 .083000008 .95300009 .137 .86800006 .28800003 C .85600009 .307 .855 .308 .82900008 .308 C .81200006 .308 .79300007 .308 .79300007 .28599999 C .79300007 .272 .8510001 .15599999 .9560001 .072999987 L .051000008 .072999987 C .036 .072999987 0 .072999987 0 .037 C 0 0 .035000005 0 .051000008 0 L 1.098 0 Z "/>
</symbol>
<use xlink:href="#font_2_1" transform="matrix(6.9738,0,0,-6.9738,3.8719295,5.6896135)" fill="#000080"/>
<symbol id="font_3_3">
<path d="M .18300002 .523 C .18300002 .54200008 .18400002 .543 .19800002 .55700007 C .238 .59800007 .29000003 .60400006 .312 .60400006 C .379 .60400006 .43500004 .543 .43500004 .417 C .43500004 .27600003 .365 .224 .3 .224 C .286 .224 .23900002 .224 .194 .278 C .18300002 .291 .18300002 .292 .18300002 .31100003 L .18300002 .523 M .18300002 .23300001 C .22600001 .198 .27 .18800001 .31100003 .18800001 C .46100004 .18800001 .563 .278 .563 .417 C .563 .55 .472 .64400008 .328 .64400008 C .25300003 .64400008 .20000002 .61300006 .17700002 .595 L .17700002 .64400008 L 0 .63600006 L 0 .589 C .062000008 .589 .069000009 .589 .069000009 .551 L .069000009 .047000007 L 0 .047000007 L 0 0 C .028000005 .001000002 .088 .0029999912 .126 .0029999912 C .165 .0029999912 .224 .001000002 .252 0 L .252 .047000007 L .18300002 .047000007 L .18300002 .23300001 Z "/>
</symbol>
<use xlink:href="#font_3_3" transform="matrix(9.9626,0,0,-9.9626,5.020615,15.5357489)" fill="#000080"/>
<symbol id="font_1_1">
<path d="M .23200003 .00999999 C .23200003 .012999982 .23200003 .014999986 .215 .03199999 C .09 .15799999 .058 .347 .058 .5 C .058 .674 .096 .84800007 .21900001 .97300007 C .23200003 .985 .23200003 .98700007 .23200003 .99 C .23200003 .99700006 .22800002 1 .222 1 C .21200001 1 .12200001 .93200007 .06299999 .805 C .012000002 .69500008 0 .584 0 .5 C 0 .422 .011 .301 .066 .188 C .126 .065 .21200001 0 .222 0 C .22800002 0 .23200003 .0029999912 .23200003 .00999999 Z "/>
</symbol>
<use xlink:href="#font_1_1" transform="matrix(9.9626,0,0,-9.9626,13.334296,16.093655)" fill="#000080"/>
<symbol id="font_4_2">
<path d="M .18300002 .411 L .277 .411 C .29700003 .411 .307 .411 .307 .43100003 C .307 .44200004 .29700003 .44200004 .279 .44200004 L .19100002 .44200004 C .227 .584 .23200003 .60400006 .23200003 .61 C .23200003 .62700006 .22000002 .637 .20300001 .637 C .2 .637 .172 .636 .163 .601 L .124 .44200004 L .030000002 .44200004 C .009999998 .44200004 0 .44200004 0 .42300005 C 0 .411 .007999999 .411 .028 .411 L .11600001 .411 C .044 .127 .04 .11000001 .04 .092 C .04 .038000004 .078 0 .132 0 C .234 0 .291 .14600002 .291 .15400002 C .291 .16400002 .28300003 .16400002 .279 .16400002 C .27 .16400002 .26900003 .16100002 .264 .15000002 C .22100002 .046 .16800002 .022000002 .134 .022000002 C .113000009 .022000002 .103 .035 .103 .068 C .103 .092 .105000007 .09900001 .109 .116000007 L .18300002 .411 Z "/>
</symbol>
<use xlink:href="#font_4_2" transform="matrix(9.9626,0,0,-9.9626,16.45114,13.712593)" fill="#000080"/>
<symbol id="font_1_2">
<path d="M .232 .5 C .232 .578 .22100002 .699 .16600001 .81200006 C .106 .93500009 .020000004 1 .009999998 1 C .0040000008 1 0 .99600008 0 .99 C 0 .98700007 0 .985 .019000002 .967 C .117000009 .86800006 .174 .709 .174 .5 C .174 .329 .137 .153 .012999997 .026999996 C 0 .014999986 0 .012999982 0 .00999999 C 0 .003999993 .0040000008 0 .009999998 0 C .020000004 0 .11000001 .06799999 .169 .195 C .22 .305 .232 .416 .232 .5 Z "/>
</symbol>
<symbol id="font_1_6">
<path d="M .63100007 .19400002 C .646 .19400002 .665 .19400002 .665 .214 C .665 .23400001 .646 .23400001 .632 .23400001 L .033 .23400001 C .019000002 .23400001 0 .23400001 0 .214 C 0 .19400002 .019000002 .19400002 .034 .19400002 L .63100007 .19400002 M .632 0 C .646 0 .665 0 .665 .02000001 C .665 .040000008 .646 .040000008 .63100007 .040000008 L .034 .040000008 C .019000002 .040000008 0 .040000008 0 .02000001 C 0 0 .019000002 0 .033 0 L .632 0 Z "/>
</symbol>
<use xlink:href="#font_1_2" transform="matrix(9.9626,0,0,-9.9626,20.387867,16.093655)" fill="#000080"/>
<use xlink:href="#font_1_6" transform="matrix(9.9626,0,0,-9.9626,27.022959,12.277979)" fill="#000080"/>
<symbol id="font_0_2">
<path d="M .218 .962 C .22299999 .97300007 .22299999 .975 .22299999 .98 C .22299999 .99100008 .21399999 1 .20300001 1 C .194 1 .187 .99500009 .18 .97700008 L .004999995 .518 C .0029999987 .512 0 .50600007 0 .5 C 0 .497 0 .495 .004999995 .483 L .18 .023999989 C .18399999 .012999982 .18900001 0 .20300001 0 C .21399999 0 .22299999 .008999988 .22299999 .019999996 C .22299999 .022999987 .22299999 .024999991 .218 .035999985 L .041 .5 L .218 .962 Z "/>
</symbol>
<use xlink:href="#font_0_2" transform="matrix(9.9626,0,0,-9.9626,38.073888,16.093655)" fill="#000080"/>
<symbol id="font_4_3">
<path d="M .305 .31300003 C .311 .33900003 .334 .43100003 .404 .43100003 C .409 .43100003 .433 .43100003 .454 .418 C .426 .41300003 .40600003 .388 .40600003 .36400003 C .40600003 .34800003 .417 .32900004 .444 .32900004 C .46600003 .32900004 .498 .34700004 .498 .38700003 C .498 .43900005 .439 .45300005 .405 .45300005 C .347 .45300005 .312 .40000005 .3 .37700004 C .275 .44300003 .221 .45300005 .19200002 .45300005 C .08800001 .45300005 .031000002 .32400004 .031000002 .29900003 C .031000002 .28900004 .041 .28900004 .043000007 .28900004 C .051000008 .28900004 .054000006 .291 .056 .3 C .09 .40600003 .156 .43100003 .19000001 .43100003 C .209 .43100003 .244 .42200003 .244 .36400003 C .244 .33300004 .22700002 .26600004 .19000001 .126 C .17400001 .064 .13900002 .022000002 .095000009 .022000002 C .08900001 .022000002 .06600001 .022000002 .045 .035 C .07000001 .040000004 .09200001 .061 .09200001 .089 C .09200001 .116000007 .07000001 .124000009 .055000009 .124000009 C .025 .124000009 0 .098000008 0 .06600001 C 0 .020000002 .050000006 0 .094000007 0 C .16000001 0 .19600001 .07000001 .19900002 .076000008 C .21100001 .039 .24700003 0 .307 0 C .41 0 .467 .12900001 .467 .15400002 C .467 .16400002 .458 .16400002 .455 .16400002 C .446 .16400002 .444 .16000001 .442 .15300001 C .409 .046 .341 .022000002 .30900003 .022000002 C .27 .022000002 .254 .054 .254 .08800001 C .254 .11000001 .26 .13200002 .271 .17600002 L .305 .31300003 Z "/>
</symbol>
<use xlink:href="#font_4_3" transform="matrix(9.9626,0,0,-9.9626,41.140916,13.712593)" fill="#000080"/>
<use xlink:href="#font_1_1" transform="matrix(9.9626,0,0,-9.9626,47.5323,16.093655)" fill="#000080"/>
<use xlink:href="#font_4_2" transform="matrix(9.9626,0,0,-9.9626,50.649145,13.712593)" fill="#000080"/>
<use xlink:href="#font_1_2" transform="matrix(9.9626,0,0,-9.9626,54.58587,16.093655)" fill="#000080"/>
<symbol id="font_4_1">
<path d="M .117000009 .194 C .117000009 .26 .092 .29900003 .05300001 .29900003 C .020000004 .29900003 0 .274 0 .246 C 0 .21900001 .020000004 .193 .05300001 .193 C .065000008 .193 .078 .197 .08800001 .206 C .091 .208 .092 .209 .093 .209 C .094000007 .209 .095000009 .208 .095000009 .194 C .095000009 .12 .06000001 .060000004 .027000003 .026999996 C .016000003 .016000003 .016000003 .013999999 .016000003 .0109999929 C .016000003 .003999993 .021000006 0 .026 0 C .037 0 .117000009 .077 .117000009 .194 Z "/>
</symbol>
<symbol id="font_4_4">
<path d="M .45700003 .586 C .461 .6 .461 .602 .461 .609 C .461 .62700006 .447 .63600006 .432 .63600006 C .42200003 .63600006 .40600003 .63 .397 .615 C .395 .61 .387 .579 .38300003 .561 C .37600003 .535 .36900003 .508 .363 .48100005 L .318 .301 C .314 .286 .271 .21600002 .20500002 .21600002 C .15400002 .21600002 .143 .26000003 .143 .29700003 C .143 .34300003 .16000001 .40500004 .194 .49300004 C .21000001 .53400006 .21400002 .545 .21400002 .56500008 C .21400002 .61 .18200001 .6470001 .13200002 .6470001 C .037 .6470001 0 .50200006 0 .49300004 C 0 .48300005 .01 .48300005 .012 .48300005 C .022000002 .48300005 .023 .485 .028000003 .50100007 C .055000009 .595 .095000009 .625 .12900001 .625 C .13700001 .625 .15400002 .625 .15400002 .59300008 C .15400002 .568 .14400001 .54200008 .13700001 .523 C .097 .41700004 .079 .36 .079 .31300003 C .079 .224 .142 .194 .201 .194 C .24000003 .194 .274 .21100001 .30200003 .23900002 C .289 .187 .277 .13800001 .237 .08500001 C .21100001 .051 .17300001 .022 .127 .022 C .113000009 .022 .068 .025000006 .051000008 .06400001 C .067 .06400001 .080000009 .06400001 .094000007 .076000008 C .104 .08500001 .11400001 .098000008 .11400001 .117000009 C .11400001 .148 .087000008 .15200001 .07700001 .15200001 C .054000006 .15200001 .021 .136 .021 .087000008 C .021 .037 .065000008 0 .127 0 C .23 0 .333 .091000009 .361 .20400001 L .45700003 .586 Z "/>
</symbol>
<use xlink:href="#font_4_1" transform="matrix(9.9626,0,0,-9.9626,58.748788,15.525786)" fill="#000080"/>
<use xlink:href="#font_4_4" transform="matrix(9.9626,0,0,-9.9626,62.614274,15.645338)" fill="#000080"/>
<use xlink:href="#font_1_1" transform="matrix(9.9626,0,0,-9.9626,68.5483,16.093655)" fill="#000080"/>
<use xlink:href="#font_4_2" transform="matrix(9.9626,0,0,-9.9626,71.665149,13.712593)" fill="#000080"/>
<use xlink:href="#font_1_2" transform="matrix(9.9626,0,0,-9.9626,75.601879,16.093655)" fill="#000080"/>
<symbol id="font_0_3">
<path d="M .218 .483 C .22300002 .495 .22300002 .497 .22300002 .5 C .22300002 .503 .22300002 .505 .218 .517 L .043 .97700008 C .037000006 .994 .031 1 .02 1 C .009 1 0 .99100008 0 .98 C 0 .97700008 0 .975 .004999999 .96400007 L .18200001 .5 L .004999999 .037999989 C 0 .026999996 0 .024999991 0 .019999996 C 0 .008999988 .009 0 .02 0 C .033000005 0 .037000006 .00999999 .040999999 .019999996 L .218 .483 Z "/>
</symbol>
<use xlink:href="#font_0_3" transform="matrix(9.9626,0,0,-9.9626,79.45595,16.093655)" fill="#000080"/>
<symbol id="font_3_1">
<path d="M .15699999 .16499996 L 0 .038999976 L .027999998 0 L .15699999 .083000008 L .286 .0009999871 L .314 .037999989 L .15699999 .16499996 Z "/>
</symbol>
<symbol id="font_3_2">
<path d="M .069000009 .356 L .069000009 .047000003 L 0 .047000003 L 0 0 C .028000005 .001 .088 .003 .126 .003 C .165 .003 .22400002 .001 .25200004 0 L .25200004 .047000003 L .18300002 .047000003 L .18300002 .256 C .18300002 .365 .269 .41400004 .33200003 .41400004 C .366 .41400004 .38700003 .393 .38700003 .317 L .38700003 .047000003 L .31800003 .047000003 L .31800003 0 C .34600003 .001 .40600003 .003 .444 .003 C .48299999 .003 .542 .001 .57 0 L .57 .047000003 L .501 .047000003 L .501 .30600003 C .501 .411 .44700004 .45000003 .347 .45000003 C .251 .45000003 .19800002 .393 .172 .342 L .172 .45000003 L 0 .44200004 L 0 .395 C .062000008 .395 .069000009 .395 .069000009 .356 Z "/>
</symbol>
<use xlink:href="#font_3_1" transform="matrix(9.9626,0,0,-9.9626,151.89113,65.58179)" fill="#800000"/>
<use xlink:href="#font_3_2" transform="matrix(9.9626,0,0,-9.9626,150.72551,70.852008)" fill="#800000"/>
<use xlink:href="#font_1_1" transform="matrix(9.9626,0,0,-9.9626,157.6283,73.34265)" fill="#800000"/>
<use xlink:href="#font_4_2" transform="matrix(9.9626,0,0,-9.9626,160.74614,70.96159)" fill="#800000"/>
<use xlink:href="#font_1_2" transform="matrix(9.9626,0,0,-9.9626,164.68187,73.34265)" fill="#800000"/>
<use xlink:href="#font_1_6" transform="matrix(9.9626,0,0,-9.9626,171.31697,69.52698)" fill="#800000"/>
<symbol id="font_3_4">
<path d="M .082 .40300004 L .082 .12900001 C .082 .022 .16900002 0 .24000001 0 C .316 0 .36100004 .057000005 .36100004 .13000001 L .36100004 .183 L .314 .183 L .314 .132 C .314 .064 .282 .040000004 .254 .040000004 C .19600001 .040000004 .19600001 .104 .19600001 .127 L .19600001 .40300004 L .342 .40300004 L .342 .45000006 L .19600001 .45000006 L .19600001 .64100006 L .149 .64100006 C .14800002 .541 .09900001 .44200004 0 .43900005 L 0 .40300004 L .082 .40300004 Z "/>
</symbol>
<use xlink:href="#font_3_1" transform="matrix(9.9626,0,0,-9.9626,185.89414,56.94379)" fill="#800000"/>
<use xlink:href="#font_3_4" transform="matrix(9.9626,0,0,-9.9626,185.44422,64.17178)" fill="#800000"/>
<symbol id="font_5_1">
<path d="M .24200002 .43100003 C .25 .448 .25100003 .456 .25100003 .463 C .25100003 .49400003 .22300002 .518 .192 .518 C .15400002 .518 .14200002 .487 .137 .47100003 L .0050000029 .038000004 C .0040000008 .036000007 0 .023000002 0 .022 C 0 .010000002 .031000004 0 .039000006 0 C .046000005 0 .047000007 .0020000004 .054000006 .017 L .24200002 .43100003 Z "/>
</symbol>
<use xlink:href="#font_5_1" transform="matrix(6.9738,0,0,-6.9738,190.02574,60.21008)" fill="#800000"/>
<use xlink:href="#font_1_1" transform="matrix(9.9626,0,0,-9.9626,193.47229,66.60265)" fill="#800000"/>
<use xlink:href="#font_4_2" transform="matrix(9.9626,0,0,-9.9626,196.58913,64.221599)" fill="#800000"/>
<use xlink:href="#font_1_2" transform="matrix(9.9626,0,0,-9.9626,200.52587,66.60265)" fill="#800000"/>
<path transform="matrix(1,0,0,-1,182.468,68.36101)" stroke-width="1" stroke-linecap="butt" stroke-miterlimit="10" stroke-linejoin="miter" fill="none" stroke="#800000" d="M 0 0 L 24.132 0 "/>
<symbol id="font_0_4">
<path d="M .040000008 .96400007 C .040000008 .98200008 .040000008 1 .02000001 1 C 0 1 0 .98200008 0 .96400007 L 0 .035999985 C 0 .017999992 0 0 .02000001 0 C .040000008 0 .040000008 .017999992 .040000008 .035999985 L .040000008 .96400007 Z "/>
</symbol>
<use xlink:href="#font_0_4" transform="matrix(9.9626,0,0,-9.9626,183.65355,81.06265)" fill="#800000"/>
<use xlink:href="#font_3_1" transform="matrix(9.9626,0,0,-9.9626,185.89414,71.403789)" fill="#800000"/>
<use xlink:href="#font_3_4" transform="matrix(9.9626,0,0,-9.9626,185.44422,78.63178)" fill="#800000"/>
<use xlink:href="#font_5_1" transform="matrix(6.9738,0,0,-6.9738,190.02574,75.40807)" fill="#800000"/>
<use xlink:href="#font_1_1" transform="matrix(9.9626,0,0,-9.9626,193.47229,81.06265)" fill="#800000"/>
<use xlink:href="#font_4_2" transform="matrix(9.9626,0,0,-9.9626,196.58913,78.681598)" fill="#800000"/>
<use xlink:href="#font_1_2" transform="matrix(9.9626,0,0,-9.9626,200.52587,81.06265)" fill="#800000"/>
<use xlink:href="#font_0_4" transform="matrix(9.9626,0,0,-9.9626,205.01753,81.06265)" fill="#800000"/>
<use xlink:href="#font_4_3" transform="matrix(9.9626,0,0,-9.9626,241.1589,41.2896)"/>
<use xlink:href="#font_4_4" transform="matrix(9.9626,0,0,-9.9626,137.8699,12.303343)"/>
</svg>
