<?xml version="1.0" encoding="UTF-8" standalone="no"?>
<!DOCTYPE svg PUBLIC "-//W3C//DTD SVG 1.1//EN" "http://www.w3.org/Graphics/SVG/1.1/DTD/svg11.dtd">
<svg xmlns="http://www.w3.org/2000/svg" xmlns:xlink="http://www.w3.org/1999/xlink" version="1.1" width="194.27pt" height="129.513pt" viewBox="0 0 194.27 129.513">
<clipPath id="cp0">
<path transform="matrix(1,0,0,-1,-97.135,129.513)" d="M 97.13608 0 L 291.40824 0 L 291.40824 129.51477 L 97.13608 129.51477 Z "/>
</clipPath>
<g clip-path="url(#cp0)">
<path transform="matrix(1,0,0,-1,-97.135,129.513)" stroke-width="1" stroke-linecap="butt" stroke-dasharray="2.98883,2.98883" stroke-miterlimit="10" stroke-linejoin="miter" fill="none" stroke="#000000" d="M 0 48.56804 L 13.49089 55.3138 L 26.9818 62.05925 L 40.4727 68.8047 L 53.96361 75.55016 L 67.45451 82.29561 L 80.94542 89.04074 L 94.43633 95.7862 L 107.92725 102.53165 L 121.41815 109.27742 L 134.90906 116.02258 L 148.39997 122.768 L 161.89087 129.51346 L 175.38176 136.25888 L 188.87267 143.00437 L 202.36359 149.7495 L 215.85449 156.49495 L 229.3454 163.2404 L 242.8363 169.98619 L 256.3272 176.73165 L 269.8181 183.4771 L 283.30903 190.22223 L 296.79994 196.96768 L 310.29087 203.71314 L 323.78175 210.45859 "/>
<path transform="matrix(1,0,0,-1,-97.135,129.513)" stroke-width="1" stroke-linecap="butt" stroke-dasharray="2.98883,2.98883" stroke-miterlimit="10" stroke-linejoin="miter" fill="none" stroke="#000000" d="M 0 0 L 13.49089 6.74576 L 26.9818 13.49121 L 40.4727 20.23666 L 53.96361 26.98212 L 67.45451 33.72757 L 80.94542 40.4727 L 94.43633 47.21815 L 107.92725 53.96361 L 121.41815 60.70938 L 134.90906 67.45454 L 148.39997 74.19997 L 161.89087 80.94542 L 175.38176 87.69084 L 188.87267 94.43633 L 202.36359 101.18146 L 215.85449 107.92691 L 229.3454 114.67236 L 242.8363 121.41815 L 256.3272 128.1636 L 269.8181 134.90906 L 283.30903 141.65419 L 296.79994 148.39965 L 310.29087 155.1451 L 323.78175 161.89055 "/>
<path transform="matrix(1,0,0,-1,-97.135,129.513)" stroke-width="1" stroke-linecap="butt" stroke-dasharray="2.98883,2.98883" stroke-miterlimit="10" stroke-linejoin="miter" fill="none" stroke="#000000" d="M 0 -48.56804 L 13.49089 -41.82225 L 26.9818 -35.0768 L 40.4727 -28.33134 L 53.96361 -21.58589 L 67.45451 -14.84044 L 80.94542 -8.0953 L 94.43633 -1.34985 L 107.92725 5.39557 L 121.41815 12.14134 L 134.90906 18.8865 L 148.39997 25.63193 L 161.89087 32.37738 L 175.38176 39.1228 L 188.87267 45.86829 L 202.36359 52.61342 L 215.85449 59.35887 L 229.3454 66.10432 L 242.8363 72.85011 L 256.3272 79.59557 L 269.8181 86.34102 L 283.30903 93.08615 L 296.79994 99.8316 L 310.29087 106.57706 L 323.78175 113.3225 "/>
<path transform="matrix(1,0,0,-1,-97.135,129.513)" stroke-width="1" stroke-linecap="butt" stroke-dasharray="2.98883,2.98883" stroke-miterlimit="10" stroke-linejoin="miter" fill="none" stroke="#000000" d="M 0 -97.13608 L 13.49089 -90.39029 L 26.9818 -83.64484 L 40.4727 -76.89938 L 53.96361 -70.15393 L 67.45451 -63.40848 L 80.94542 -56.66335 L 94.43633 -49.9179 L 107.92725 -43.17244 L 121.41815 -36.42667 L 134.90906 -29.6815 L 148.39997 -22.93608 L 161.89087 -16.19063 L 175.38176 -9.4452 L 188.87267 -2.69972 L 202.36359 4.04538 L 215.85449 10.79083 L 229.3454 17.53629 L 242.8363 24.28207 L 256.3272 31.02751 L 269.8181 37.77296 L 283.30903 44.5181 L 296.79994 51.26355 L 310.29087 58.009 L 323.78175 64.75446 "/>
<path transform="matrix(1,0,0,-1,-97.135,129.513)" stroke-width="1" stroke-linecap="butt" stroke-dasharray="2.98883,2.98883" stroke-miterlimit="10" stroke-linejoin="miter" fill="none" stroke="#000000" d="M 0 -97.13608 L 13.49089 -70.15428 L 26.9818 -43.1724 L 40.4727 -16.19061 L 53.96361 10.79114 L 67.45451 37.77292 L 80.94542 64.7548 L 94.43633 91.73659 L 107.92725 118.71837 L 121.41815 145.70026 L 134.90906 172.68204 L 148.39997 199.66385 L 161.89087 226.64566 L 175.38176 253.62747 L 188.87267 280.60929 L 202.36359 307.59107 L 215.85449 334.57295 L 229.3454 361.55473 L 242.8363 388.5365 L 256.3272 415.5184 L 269.8181 442.50019 L 283.30903 469.48197 L 296.79994 496.46385 L 310.29087 523.4456 L 323.78175 550.4274 "/>
<path transform="matrix(1,0,0,-1,-97.135,129.513)" stroke-width="1" stroke-linecap="butt" stroke-dasharray="2.98883,2.98883" stroke-miterlimit="10" stroke-linejoin="miter" fill="none" stroke="#000000" d="M 0 -194.27216 L 13.49089 -167.29036 L 26.9818 -140.30847 L 40.4727 -113.32669 L 53.96361 -86.34492 L 67.45451 -59.36313 L 80.94542 -32.38124 L 94.43633 -5.39946 L 107.92725 21.58229 L 121.41815 48.56418 L 134.90906 75.54594 L 148.39997 102.52777 L 161.89087 129.50959 L 175.38176 156.4914 L 188.87267 183.4732 L 202.36359 210.45499 L 215.85449 237.43685 L 229.3454 264.41865 L 242.8363 291.40043 L 256.3272 318.38233 L 269.8181 345.3641 L 283.30903 372.3459 L 296.79994 399.32774 L 310.29087 426.30955 L 323.78175 453.29133 "/>
<path transform="matrix(1,0,0,-1,-97.135,129.513)" stroke-width="1" stroke-linecap="butt" stroke-dasharray="2.98883,2.98883" stroke-miterlimit="10" stroke-linejoin="miter" fill="none" stroke="#000000" d="M 0 -291.40824 L 13.49089 -264.42646 L 26.9818 -237.44457 L 40.4727 -210.46279 L 53.96361 -183.481 L 67.45451 -156.4992 L 80.94542 -129.51732 L 94.43633 -102.53554 L 107.92725 -75.55376 L 121.41815 -48.57188 L 134.90906 -21.5901 L 148.39997 5.3917 L 161.89087 32.3735 L 175.38176 59.35532 L 188.87267 86.33713 L 202.36359 113.3189 L 215.85449 140.30077 L 229.3454 167.28256 L 242.8363 194.26435 L 256.3272 221.24623 L 269.8181 248.22801 L 283.30903 275.2098 L 296.79994 302.19169 L 310.29087 329.17347 L 323.78175 356.15525 "/>
<path transform="matrix(1,0,0,-1,-97.135,129.513)" stroke-width="1" stroke-linecap="butt" stroke-dasharray="2.98883,2.98883" stroke-miterlimit="10" stroke-linejoin="miter" fill="none" stroke="#000000" d="M 0 -388.5443 L 13.49089 -361.56254 L 26.9818 -334.58064 L 40.4727 -307.59886 L 53.96361 -280.61708 L 67.45451 -253.63529 L 80.94542 -226.6534 L 94.43633 -199.67163 L 107.92725 -172.68985 L 121.41815 -145.70796 L 134.90906 -118.72618 L 148.39997 -91.74435 L 161.89087 -64.76254 L 175.38176 -37.78075 L 188.87267 -10.79893 L 202.36359 16.18282 L 215.85449 43.16469 L 229.3454 70.14648 L 242.8363 97.12827 L 256.3272 124.11014 L 269.8181 151.09192 L 283.30903 178.07372 L 296.79994 205.05559 L 310.29087 232.03739 L 323.78175 259.01918 "/>
<path transform="matrix(1,0,0,-1,-97.135,129.513)" stroke-width="1" stroke-linecap="butt" stroke-dasharray="2.98883,2.98883" stroke-miterlimit="10" stroke-linejoin="miter" fill="none" stroke="#000000" d="M 0 -485.6804 L 13.49089 -458.6986 L 26.9818 -431.7167 L 40.4727 -404.73497 L 53.96361 -377.75318 L 67.45451 -350.77137 L 80.94542 -323.7895 L 94.43633 -296.8077 L 107.92725 -269.82594 L 121.41815 -242.84404 L 134.90906 -215.86226 L 148.39997 -188.88043 L 161.89087 -161.89864 L 175.38176 -134.91683 L 188.87267 -107.93501 L 202.36359 -80.95323 L 215.85449 -53.97136 L 229.3454 -26.98956 L 242.8363 -.0078 L 256.3272 26.97406 L 269.8181 53.95584 L 283.30903 80.93764 L 296.79994 107.91951 L 310.29087 134.9013 L 323.78175 161.88307 "/>
<path transform="matrix(1,0,0,-1,-97.135,129.513)" stroke-width="1.59404" stroke-linecap="butt" stroke-miterlimit="10" stroke-linejoin="miter" fill="none" stroke="#000080" d="M 161.89347 32.3787 L 223.2512 63.05748 "/>
<path transform="matrix(.898,-.44902,-.44902,-.898,126.1162,66.45552)" d="M 3.78581 0 L -2.27148 3.02866 L 0 0 L -2.27148 -3.02866 " fill="#000080"/>
<path transform="matrix(1,0,0,-1,-97.135,129.513)" stroke-width="1.59404" stroke-linecap="butt" stroke-miterlimit="10" stroke-linejoin="miter" fill="none" stroke="#800000" d="M 161.89347 32.3787 L 192.57225 93.73642 "/>
<path transform="matrix(.44902,-.898,-.898,-.44902,95.43725,35.77658)" d="M 3.78581 0 L -2.27148 3.02866 L 0 0 L -2.27148 -3.02866 " fill="#800000"/>
<symbol id="font_1_1">
<path d="M 1.098 0 C 1.12 0 1.1350001 0 1.1350001 .029 C 1.1350001 .039000006 1.1350001 .049999983 1.1220001 .05700001 C 1.067 .083000008 .95300009 .137 .86800006 .28800003 C .85600009 .307 .855 .308 .82900008 .308 C .81200006 .308 .79300007 .308 .79300007 .28599999 C .79300007 .272 .8510001 .15599999 .9560001 .072999987 L .051000008 .072999987 C .036 .072999987 0 .072999987 0 .037 C 0 0 .035000005 0 .051000008 0 L 1.098 0 Z "/>
</symbol>
<use xlink:href="#font_1_1" transform="matrix(6.9738,0,0,-6.9738,68.94993,61.984605)" fill="#800000"/>
<symbol id="font_2_2">
<path d="M .7120001 .38000003 C .71700009 .39300005 .7210001 .40100003 .7800001 .40100003 L .7800001 .44800005 C .7570001 .44600005 .72700008 .44500003 .70300009 .44500003 C .67600008 .44500003 .62900009 .44700004 .60700008 .44800005 L .60700008 .40100003 C .61600008 .40100003 .6650001 .40000005 .6650001 .38900004 C .6650001 .38600005 .66200008 .38000003 .6610001 .37700004 L .55600008 .12100001 L .442 .40100003 L .498 .40100003 L .498 .44800005 C .46600003 .44700004 .414 .44500003 .384 .44500003 C .342 .44500003 .3 .44700004 .284 .44800005 L .284 .40100003 L .34300003 .40100003 C .36400003 .351 .36400003 .34900005 .36400003 .34800003 C .36400003 .344 .361 .33800004 .36 .33500005 L .28100003 .143 L .176 .40100003 L .232 .40100003 L .232 .44800005 C .191 .44600005 .15 .44500003 .109000008 .44500003 C .07800001 .44500003 .034 .44700004 0 .44800005 L 0 .40100003 L .059000009 .40100003 L .21200001 .027000003 C .21900001 .01 .223 0 .248 0 C .273 0 .277 .01 .284 .027000003 L .39000003 .286 L .49600003 .027000003 C .503 .01 .507 0 .53200009 0 C .55700007 0 .56100007 .01 .5680001 .027000003 L .7120001 .38000003 Z "/>
</symbol>
<use xlink:href="#font_2_2" transform="matrix(9.9626,0,0,-9.9626,68.94405,69.936847)" fill="#800000"/>
<use xlink:href="#font_1_1" transform="matrix(6.9738,0,0,-6.9738,93.17193,86.8346)" fill="#000080"/>
<symbol id="font_2_1">
<path d="M .48000006 .38000003 C .48600004 .39400003 .49000005 .40100003 .554 .40100003 L .554 .44800005 C .529 .44600005 .5 .44500003 .47500006 .44500003 C .45000003 .44500003 .40500004 .44700004 .38400004 .44800005 L .38400004 .40100003 C .40300004 .40100003 .43200005 .39800004 .43200005 .39000003 C .43200005 .38900004 .43100003 .38700003 .42700003 .37800003 L .31100003 .128 L .18400002 .40100003 L .238 .40100003 L .238 .44800005 C .20500002 .44600005 .115 .44500003 .114 .44500003 C .086 .44500003 .041 .44700004 0 .44800005 L 0 .40100003 L .064 .40100003 L .23900002 .025000003 C .25100003 0 .26400004 0 .277 0 C .29400004 0 .30400003 .003 .314 .024000003 L .48000006 .38000003 Z "/>
</symbol>
<use xlink:href="#font_2_1" transform="matrix(9.9626,0,0,-9.9626,94.29102,94.78685)" fill="#000080"/>
</g>
</svg>
