<?xml version="1.0" encoding="UTF-8" standalone="no"?>
<!DOCTYPE svg PUBLIC "-//W3C//DTD SVG 1.1//EN" "http://www.w3.org/Graphics/SVG/1.1/DTD/svg11.dtd">
<svg xmlns="http://www.w3.org/2000/svg" xmlns:xlink="http://www.w3.org/1999/xlink" version="1.1" width="284.353pt" height="199.058pt" viewBox="0 0 284.353 199.058">
<path transform="matrix(1,0,0,-1,21.372,174.486)" stroke-width="1" stroke-linecap="butt" stroke-miterlimit="10" stroke-linejoin="miter" fill="none" stroke="#808080" d="M 5.8858 78.57034 L 5.8858 82.82204 M 45.2498 78.57034 L 45.2498 82.82204 M 123.97781 78.57034 L 123.97781 82.82204 M 163.34181 78.57034 L 163.34181 82.82204 "/>
<path transform="matrix(1,0,0,-1,21.372,174.486)" stroke-width="1" stroke-linecap="butt" stroke-miterlimit="10" stroke-linejoin="miter" fill="none" stroke="#808080" d="M 82.48795 1.96819 L 86.73965 1.96819 M 82.48795 41.3322 L 86.73965 41.3322 M 82.48795 120.0602 L 86.73965 120.0602 M 82.48795 159.42421 L 86.73965 159.42421 "/>
<path transform="matrix(1,0,0,-1,21.372,174.486)" stroke-width="1" stroke-linecap="butt" stroke-miterlimit="10" stroke-linejoin="miter" fill="none" stroke="#000000" d="M 3.9176 80.6962 L 163.31749 80.6962 "/>
<path transform="matrix(1,0,0,-1,184.68949,93.789798)" d="M 1.99252 0 L -1.19551 1.59401 L 0 0 L -1.19551 -1.59401 "/>
<path transform="matrix(1,0,0,-1,21.372,174.486)" stroke-width="1" stroke-linecap="butt" stroke-miterlimit="10" stroke-linejoin="miter" fill="none" stroke="#000000" d="M 84.61382 0 L 84.61382 159.39989 "/>
<path transform="matrix(0,-1,-1,-0,105.985828,15.086105)" d="M 1.99252 0 L -1.19551 1.59401 L 0 0 L -1.19551 -1.59401 "/>
<symbol id="font_0_1">
<path d="M .57600006 0 C .59300008 0 .611 0 .611 .019999996 C .611 .040000008 .59300008 .040000008 .57600006 .040000008 L .035000005 .040000008 C .018 .040000008 0 .040000008 0 .019999996 C 0 0 .018 0 .035000005 0 L .57600006 0 Z "/>
</symbol>
<use xlink:href="#font_0_1" transform="matrix(9.9626,0,0,-9.9626,21.718897,103.56559)"/>
<symbol id="font_1_4">
<path d="M .266 .165 L .266 .078 C .266 .042000005 .26400004 .031000002 .19000001 .031000002 L .16900002 .031000002 L .16900002 0 C .21000001 .003 .26200003 .003 .30400003 .003 C .34600003 .003 .39900003 .003 .44000004 0 L .44000004 .031000002 L .41900004 .031000002 C .34500004 .031000002 .34300003 .042000005 .34300003 .078 L .34300003 .165 L .44300003 .165 L .44300003 .19600001 L .34300003 .19600001 L .34300003 .651 C .34300003 .671 .34300003 .67700007 .32700003 .67700007 C .31800003 .67700007 .31500004 .67700007 .307 .665 L 0 .19600001 L 0 .165 L .266 .165 M .272 .19600001 L .028 .19600001 L .272 .569 L .272 .19600001 Z "/>
</symbol>
<use xlink:href="#font_1_4" transform="matrix(9.9626,0,0,-9.9626,28.919955,105.85699)"/>
<use xlink:href="#font_0_1" transform="matrix(9.9626,0,0,-9.9626,61.083894,103.56559)"/>
<symbol id="font_1_3">
<path d="M .07700001 .07700001 L .18300002 .18 C .33900003 .31800003 .39900003 .372 .39900003 .47200004 C .39900003 .586 .30900003 .666 .18700002 .666 C .074 .666 0 .574 0 .485 C 0 .42900003 .05 .42900003 .053000008 .42900003 C .07000001 .42900003 .105000007 .441 .105000007 .48200003 C .105000007 .508 .08700001 .53400006 .052000006 .53400006 C .044000005 .53400006 .042000008 .53400006 .039 .53300008 C .062000004 .59800007 .11600001 .63500007 .17400001 .63500007 C .26500003 .63500007 .308 .554 .308 .47200004 C .308 .39200003 .25800003 .31300003 .20300003 .25100003 L .011000004 .037 C 0 .026 0 .024 0 0 L .37100003 0 L .39900003 .17400001 L .374 .17400001 C .36900003 .14400001 .36200003 .1 .352 .085 C .345 .07700001 .279 .07700001 .257 .07700001 L .07700001 .07700001 Z "/>
</symbol>
<use xlink:href="#font_1_3" transform="matrix(9.9626,0,0,-9.9626,68.50312,105.85699)"/>
<use xlink:href="#font_1_3" transform="matrix(9.9626,0,0,-9.9626,143.35512,105.85699)"/>
<use xlink:href="#font_1_4" transform="matrix(9.9626,0,0,-9.9626,182.49994,105.85699)"/>
<use xlink:href="#font_0_1" transform="matrix(9.9626,0,0,-9.9626,88.4359,173.02159)"/>
<use xlink:href="#font_1_4" transform="matrix(9.9626,0,0,-9.9626,95.635959,175.31299)"/>
<use xlink:href="#font_0_1" transform="matrix(9.9626,0,0,-9.9626,88.4359,133.65758)"/>
<use xlink:href="#font_1_3" transform="matrix(9.9626,0,0,-9.9626,95.85513,135.94898)"/>
<use xlink:href="#font_1_3" transform="matrix(9.9626,0,0,-9.9626,95.85513,57.637987)"/>
<use xlink:href="#font_1_4" transform="matrix(9.9626,0,0,-9.9626,95.635959,18.273987)"/>
<path transform="matrix(1,0,0,-1,21.372,174.486)" stroke-width="1.59404" stroke-linecap="butt" stroke-miterlimit="10" stroke-linejoin="miter" fill="none" stroke="#000080" d="M 143.65982 80.6962 C 143.65982 80.6962 148.1267 83.58852 149.6665 84.83035 C 151.20633 86.07217 153.55544 88.24907 154.75782 89.64655 C 155.9602 91.04402 157.61145 93.43222 158.33248 94.90237 C 159.0535 96.37253 159.80538 98.80544 159.95452 100.24242 C 160.10364 101.6794 159.85968 103.9676 159.40734 105.2592 C 158.95499 106.55081 157.71286 108.50497 156.69428 109.55151 C 155.6757 110.59805 153.55512 112.06966 152.06613 112.80194 C 150.57714 113.53423 147.7826 114.43916 145.96268 114.82936 C 144.14275 115.21957 140.93407 115.54445 138.94939 115.6143 C 136.9647 115.68416 133.63703 115.51208 131.6584 115.33289 C 129.67977 115.15369 126.5086 114.64006 124.68872 114.32268 C 122.86882 114.00528 120.08607 113.3631 118.54189 113.04532 C 116.9977 112.72755 114.76051 112.20508 113.55923 112.03233 C 112.35797 111.8596 110.73016 111.69685 109.88388 111.80025 C 109.03758 111.90366 107.99156 112.29977 107.45969 112.77765 C 106.92783 113.25552 106.35234 114.34296 106.05049 115.24448 C 105.74866 116.146 105.46875 117.9601 105.28426 119.27528 C 105.09976 120.59045 104.90979 123.06436 104.7208 124.72345 C 104.5318 126.38255 104.22804 129.35395 103.92209 131.23293 C 103.61613 133.11191 103.02408 136.33055 102.51567 138.26589 C 102.00728 140.20122 101.0143 143.37285 100.25784 145.18154 C 99.50139 146.99022 98.06902 149.80142 97.06367 151.30167 C 96.05835 152.80191 94.22322 154.95717 93.01201 155.9943 C 91.80078 157.03142 89.67212 158.31102 88.334 158.77654 C 86.9959 159.24205 84.73236 159.50576 83.36775 159.34943 C 82.00314 159.1931 79.78511 158.41106 78.4988 157.64983 C 77.21248 156.88861 75.21324 155.14827 74.09688 153.86296 C 72.98053 152.57764 71.33649 150.06179 70.45285 148.3861 C 69.5692 146.7104 68.35779 143.6805 67.72812 141.7857 C 67.09845 139.89093 66.31364 136.65903 65.91455 134.72977 C 65.51547 132.80049 65.08647 129.66863 64.85175 127.88083 C 64.617 126.09303 64.39435 123.34412 64.22269 121.84448 C 64.05103 120.34486 63.84232 118.1862 63.61443 117.07245 C 63.38652 115.9587 62.98409 114.50475 62.58018 113.81723 C 62.17628 113.12973 61.3841 112.39868 60.7033 112.11728 C 60.02248 111.83588 58.69484 111.73982 57.67342 111.78902 C 56.65198 111.83821 54.7188 112.20915 53.34145 112.47194 C 51.96408 112.73471 49.44 113.34735 47.74632 113.683 C 46.05264 114.01865 43.05072 114.6267 41.13445 114.8911 C 39.21819 115.15552 35.93738 115.52199 33.93507 115.58876 C 31.93279 115.65555 28.62733 115.59634 26.70319 115.3725 C 24.77902 115.14867 21.74123 114.53705 20.06703 113.97543 C 18.39284 113.4138 15.90617 112.21992 14.63667 111.3247 C 13.36717 110.42949 11.66142 108.7031 10.91733 107.52328 C 10.17322 106.34348 9.42575 104.19925 9.27362 102.82135 C 9.1215 101.44347 9.37894 99.05981 9.82082 97.59239 C 10.2627 96.12497 11.48209 93.69127 12.45844 92.24515 C 13.43478 90.79901 15.46643 88.49796 16.85771 87.16959 C 18.249 85.8412 20.8426 83.81487 22.48587 82.67104 C 24.12915 81.52722 26.99136 79.8589 28.7013 78.92563 C 30.41122 77.99234 33.22063 76.68546 34.80992 75.94455 C 36.39922 75.20363 38.85051 74.19177 40.1558 73.58557 C 41.4611 72.97935 43.31645 72.13498 44.21773 71.5754 C 45.119 71.01581 46.21802 70.16866 46.65167 69.55238 C 47.08533 68.93611 47.3757 67.90634 47.34325 67.13371 C 47.31079 66.36107 46.85266 64.99168 46.41766 63.98369 C 45.98268 62.9757 44.92989 61.15443 44.20811 59.86873 C 43.48636 58.58302 42.07196 56.27579 41.21567 54.71721 C 40.35939 53.15862 38.86044 50.4135 38.03662 48.63553 C 37.2128 46.85757 35.91005 43.80089 35.27805 41.90279 C 34.64606 40.00468 33.79004 36.83974 33.48164 34.95532 C 33.17326 33.07089 32.95258 30.04233 33.05534 28.32115 C 33.15811 26.59999 33.67403 23.96121 34.2224 22.55026 C 34.77077 21.1393 36.03479 19.12978 37.00761 18.15195 C 37.98044 17.1741 39.90828 15.96764 41.23392 15.50262 C 42.55954 15.03761 44.99026 14.72658 46.56187 14.80043 C 48.13348 14.87428 50.87042 15.45837 52.56104 16.0349 C 54.25165 16.61143 57.06467 17.97192 58.74664 18.95575 C 60.42862 19.93958 63.1181 21.87628 64.6836 23.12566 C 66.24907 24.37503 68.65565 26.61906 70.02962 27.96046 C 71.4036 29.30185 73.43562 31.54337 74.5863 32.79349 C 75.737 34.04361 77.38182 35.98018 78.32297 36.97046 C 79.26413 37.96074 80.58394 39.33363 81.3695 39.93082 C 82.15509 40.528 83.27188 41.15045 83.98494 41.27452 C 84.69798 41.39857 85.77132 41.19038 86.5087 40.82504 C 87.2461 40.45969 88.44559 39.44771 89.2996 38.64127 C 90.15363 37.83481 91.62305 36.15154 92.66394 35.01262 C 93.70483 33.87372 95.53882 31.7505 96.80171 30.43275 C 98.06459 29.115 100.28992 26.83353 101.76602 25.51509 C 103.24211 24.19664 105.80527 22.06804 107.44041 20.93036 C 109.07558 19.7927 111.84993 18.11183 113.55116 17.3155 C 115.25241 16.51918 118.05406 15.52585 119.70177 15.19098 C 121.34949 14.85611 123.96217 14.70857 125.42677 14.9019 C 126.89137 15.09521 129.09584 15.85759 130.25765 16.58438 C 131.41944 17.31117 133.03261 18.93398 133.8003 20.14012 C 134.56798 21.34627 135.46462 23.695 135.79065 25.2775 C 136.11669 26.85997 136.25936 29.72424 136.15026 31.54564 C 136.04114 33.36703 135.48761 36.49535 135.00421 38.40485 C 134.52083 40.31433 133.41243 43.45477 132.66622 45.308 C 131.92 47.16122 130.48657 50.08318 129.62596 51.7617 C 128.76534 53.44025 127.2734 55.97923 126.46347 57.40582 C 125.65353 58.83243 124.3851 60.89854 123.78845 62.04372 C 123.1918 63.1889 122.40952 64.77638 122.16315 65.65955 C 121.9168 66.5427 121.8176 67.72572 122.0128 68.40897 C 122.20801 69.09222 122.90002 70.00914 123.57013 70.58401 C 124.24023 71.15887 125.72865 71.98193 126.84247 72.55229 C 127.95628 73.12263 130.13332 74.03091 131.59783 74.6947 C 133.06232 75.35847 135.72583 76.50452 137.3976 77.33638 C 139.06938 78.16824 143.64684 80.69028 143.64684 80.69028 "/>
<path transform="matrix(1,0,0,-1,21.372,174.486)" stroke-width="1.59404" stroke-linecap="butt" stroke-miterlimit="10" stroke-linejoin="miter" fill="none" stroke="#800000" d="M 110.67947 111.75974 L 110.94078 160.67327 "/>
<path transform="matrix(.00531,-1,-1,-.00531,132.31278,13.812729)" d="M 3.78581 0 L -2.27148 3.02866 L 0 0 L -2.27148 -3.02866 " fill="#800000"/>
<path transform="matrix(1,0,0,-1,21.372,174.486)" stroke-width="1.59404" stroke-linecap="butt" stroke-miterlimit="10" stroke-linejoin="miter" fill="none" stroke="#800000" d="M 63.6134 117.07016 L 3.7259 128.15213 "/>
<path transform="matrix(-.98418,-.18213,-.18213,.98418,25.09792,46.333879)" d="M 3.78581 0 L -2.27148 3.02866 L 0 0 L -2.27148 -3.02866 " fill="#800000"/>
<path transform="matrix(1,0,0,-1,21.372,174.486)" stroke-width="1.59404" stroke-linecap="butt" stroke-miterlimit="10" stroke-linejoin="miter" fill="none" stroke="#800000" d="M 47.34271 67.13033 L 8.00774 69.4044 "/>
<path transform="matrix(-.99875,-.05772,-.05772,.99875,29.37974,105.08159)" d="M 3.78581 0 L -2.27148 3.02866 L 0 0 L -2.27148 -3.02866 " fill="#800000"/>
<path transform="matrix(1,0,0,-1,21.372,174.486)" stroke-width="1.59404" stroke-linecap="butt" stroke-miterlimit="10" stroke-linejoin="miter" fill="none" stroke="#800000" d="M 76.55739 35.00586 L 139.90053 -21.25104 "/>
<path transform="matrix(.75072,.66675,.66675,-.75072,161.2725,195.73703)" d="M 3.78581 0 L -2.27148 3.02866 L 0 0 L -2.27148 -3.02866 " fill="#800000"/>
<path transform="matrix(1,0,0,-1,21.372,174.486)" stroke-width="1.59404" stroke-linecap="butt" stroke-miterlimit="10" stroke-linejoin="miter" fill="none" stroke="#800000" d="M 127.2268 56.09369 L 209.16382 103.4005 "/>
<path transform="matrix(.86877,-.5016,-.5016,-.86877,230.53582,71.08551)" d="M 3.78581 0 L -2.27148 3.02866 L 0 0 L -2.27148 -3.02866 " fill="#800000"/>
<symbol id="font_2_1">
<path d="M 1.098 0 C 1.12 0 1.1350001 0 1.1350001 .029 C 1.1350001 .039000006 1.1350001 .049999983 1.1220001 .05700001 C 1.067 .083000008 .95300009 .137 .86800006 .28800003 C .85600009 .307 .855 .308 .82900008 .308 C .81200006 .308 .79300007 .308 .79300007 .28599999 C .79300007 .272 .8510001 .15599999 .9560001 .072999987 L .051000008 .072999987 C .036 .072999987 0 .072999987 0 .037 C 0 0 .035000005 0 .051000008 0 L 1.098 0 Z "/>
</symbol>
<use xlink:href="#font_2_1" transform="matrix(6.9738,0,0,-6.9738,3.8719295,30.7286)" fill="#000080"/>
<symbol id="font_3_2">
<path d="M .18300002 .523 C .18300002 .54200008 .18400002 .543 .19800002 .55700007 C .238 .59800007 .29000003 .60400006 .312 .60400006 C .379 .60400006 .43500004 .543 .43500004 .417 C .43500004 .27600003 .365 .224 .3 .224 C .286 .224 .23900002 .224 .194 .278 C .18300002 .291 .18300002 .292 .18300002 .31100003 L .18300002 .523 M .18300002 .23300001 C .22600001 .198 .27 .18800001 .31100003 .18800001 C .46100004 .18800001 .563 .278 .563 .417 C .563 .55 .472 .64400008 .328 .64400008 C .25300003 .64400008 .20000002 .61300006 .17700002 .595 L .17700002 .64400008 L 0 .63600006 L 0 .589 C .062000008 .589 .069000009 .589 .069000009 .551 L .069000009 .047000007 L 0 .047000007 L 0 0 C .028000005 .001000002 .088 .0029999912 .126 .0029999912 C .165 .0029999912 .224 .001000002 .252 0 L .252 .047000007 L .18300002 .047000007 L .18300002 .23300001 Z "/>
</symbol>
<use xlink:href="#font_3_2" transform="matrix(9.9626,0,0,-9.9626,5.020615,40.573736)" fill="#000080"/>
<symbol id="font_1_1">
<path d="M .23200003 .00999999 C .23200003 .012999982 .23200003 .014999986 .215 .03199999 C .09 .15799999 .058 .347 .058 .5 C .058 .674 .096 .84800007 .21900001 .97300007 C .23200003 .985 .23200003 .98700007 .23200003 .99 C .23200003 .99700006 .22800002 1 .222 1 C .21200001 1 .12200001 .93200007 .06299999 .805 C .012000002 .69500008 0 .584 0 .5 C 0 .422 .011 .301 .066 .188 C .126 .065 .21200001 0 .222 0 C .22800002 0 .23200003 .0029999912 .23200003 .00999999 Z "/>
</symbol>
<use xlink:href="#font_1_1" transform="matrix(9.9626,0,0,-9.9626,13.334296,41.13164)" fill="#000080"/>
<symbol id="font_4_2">
<path d="M .18300002 .411 L .277 .411 C .29700003 .411 .307 .411 .307 .43100003 C .307 .44200004 .29700003 .44200004 .279 .44200004 L .19100002 .44200004 C .227 .584 .23200003 .60400006 .23200003 .61 C .23200003 .62700006 .22000002 .637 .20300001 .637 C .2 .637 .172 .636 .163 .601 L .124 .44200004 L .030000002 .44200004 C .009999998 .44200004 0 .44200004 0 .42300005 C 0 .411 .007999999 .411 .028 .411 L .11600001 .411 C .044 .127 .04 .11000001 .04 .092 C .04 .038000004 .078 0 .132 0 C .234 0 .291 .14600002 .291 .15400002 C .291 .16400002 .28300003 .16400002 .279 .16400002 C .27 .16400002 .26900003 .16100002 .264 .15000002 C .22100002 .046 .16800002 .022000002 .134 .022000002 C .113000009 .022000002 .103 .035 .103 .068 C .103 .092 .105000007 .09900001 .109 .116000007 L .18300002 .411 Z "/>
</symbol>
<use xlink:href="#font_4_2" transform="matrix(9.9626,0,0,-9.9626,16.45114,38.75058)" fill="#000080"/>
<symbol id="font_1_2">
<path d="M .232 .5 C .232 .578 .22100002 .699 .16600001 .81200006 C .106 .93500009 .020000004 1 .009999998 1 C .0040000008 1 0 .99600008 0 .99 C 0 .98700007 0 .985 .019000002 .967 C .117000009 .86800006 .174 .709 .174 .5 C .174 .329 .137 .153 .012999997 .026999996 C 0 .014999986 0 .012999982 0 .00999999 C 0 .003999993 .0040000008 0 .009999998 0 C .020000004 0 .11000001 .06799999 .169 .195 C .22 .305 .232 .416 .232 .5 Z "/>
</symbol>
<symbol id="font_1_5">
<path d="M .63100007 .19400002 C .646 .19400002 .665 .19400002 .665 .214 C .665 .23400001 .646 .23400001 .632 .23400001 L .033 .23400001 C .019000002 .23400001 0 .23400001 0 .214 C 0 .19400002 .019000002 .19400002 .034 .19400002 L .63100007 .19400002 M .632 0 C .646 0 .665 0 .665 .02000001 C .665 .040000008 .646 .040000008 .63100007 .040000008 L .034 .040000008 C .019000002 .040000008 0 .040000008 0 .02000001 C 0 0 .019000002 0 .033 0 L .632 0 Z "/>
</symbol>
<use xlink:href="#font_1_2" transform="matrix(9.9626,0,0,-9.9626,20.387867,41.13164)" fill="#000080"/>
<use xlink:href="#font_1_5" transform="matrix(9.9626,0,0,-9.9626,27.022959,37.315965)" fill="#000080"/>
<symbol id="font_0_2">
<path d="M .218 .962 C .22299999 .97300007 .22299999 .975 .22299999 .98 C .22299999 .99100008 .21399999 1 .20300001 1 C .194 1 .187 .99500009 .18 .97700008 L .004999995 .518 C .0029999987 .512 0 .50600007 0 .5 C 0 .497 0 .495 .004999995 .483 L .18 .023999989 C .18399999 .012999982 .18900001 0 .20300001 0 C .21399999 0 .22299999 .008999988 .22299999 .019999996 C .22299999 .022999987 .22299999 .024999991 .218 .035999985 L .041 .5 L .218 .962 Z "/>
</symbol>
<use xlink:href="#font_0_2" transform="matrix(9.9626,0,0,-9.9626,38.073888,41.13164)" fill="#000080"/>
<symbol id="font_4_3">
<path d="M .305 .31300003 C .311 .33900003 .334 .43100003 .404 .43100003 C .409 .43100003 .433 .43100003 .454 .418 C .426 .41300003 .40600003 .388 .40600003 .36400003 C .40600003 .34800003 .417 .32900004 .444 .32900004 C .46600003 .32900004 .498 .34700004 .498 .38700003 C .498 .43900005 .439 .45300005 .405 .45300005 C .347 .45300005 .312 .40000005 .3 .37700004 C .275 .44300003 .221 .45300005 .19200002 .45300005 C .08800001 .45300005 .031000002 .32400004 .031000002 .29900003 C .031000002 .28900004 .041 .28900004 .043000007 .28900004 C .051000008 .28900004 .054000006 .291 .056 .3 C .09 .40600003 .156 .43100003 .19000001 .43100003 C .209 .43100003 .244 .42200003 .244 .36400003 C .244 .33300004 .22700002 .26600004 .19000001 .126 C .17400001 .064 .13900002 .022000002 .095000009 .022000002 C .08900001 .022000002 .06600001 .022000002 .045 .035 C .07000001 .040000004 .09200001 .061 .09200001 .089 C .09200001 .116000007 .07000001 .124000009 .055000009 .124000009 C .025 .124000009 0 .098000008 0 .06600001 C 0 .020000002 .050000006 0 .094000007 0 C .16000001 0 .19600001 .07000001 .19900002 .076000008 C .21100001 .039 .24700003 0 .307 0 C .41 0 .467 .12900001 .467 .15400002 C .467 .16400002 .458 .16400002 .455 .16400002 C .446 .16400002 .444 .16000001 .442 .15300001 C .409 .046 .341 .022000002 .30900003 .022000002 C .27 .022000002 .254 .054 .254 .08800001 C .254 .11000001 .26 .13200002 .271 .17600002 L .305 .31300003 Z "/>
</symbol>
<use xlink:href="#font_4_3" transform="matrix(9.9626,0,0,-9.9626,41.140916,38.75058)" fill="#000080"/>
<use xlink:href="#font_1_1" transform="matrix(9.9626,0,0,-9.9626,47.5323,41.13164)" fill="#000080"/>
<use xlink:href="#font_4_2" transform="matrix(9.9626,0,0,-9.9626,50.649145,38.75058)" fill="#000080"/>
<use xlink:href="#font_1_2" transform="matrix(9.9626,0,0,-9.9626,54.58587,41.13164)" fill="#000080"/>
<symbol id="font_4_1">
<path d="M .117000009 .194 C .117000009 .26 .092 .29900003 .05300001 .29900003 C .020000004 .29900003 0 .274 0 .246 C 0 .21900001 .020000004 .193 .05300001 .193 C .065000008 .193 .078 .197 .08800001 .206 C .091 .208 .092 .209 .093 .209 C .094000007 .209 .095000009 .208 .095000009 .194 C .095000009 .12 .06000001 .060000004 .027000003 .026999996 C .016000003 .016000003 .016000003 .013999999 .016000003 .0109999929 C .016000003 .003999993 .021000006 0 .026 0 C .037 0 .117000009 .077 .117000009 .194 Z "/>
</symbol>
<symbol id="font_4_4">
<path d="M .45700003 .586 C .461 .6 .461 .602 .461 .609 C .461 .62700006 .447 .63600006 .432 .63600006 C .42200003 .63600006 .40600003 .63 .397 .615 C .395 .61 .387 .579 .38300003 .561 C .37600003 .535 .36900003 .508 .363 .48100005 L .318 .301 C .314 .286 .271 .21600002 .20500002 .21600002 C .15400002 .21600002 .143 .26000003 .143 .29700003 C .143 .34300003 .16000001 .40500004 .194 .49300004 C .21000001 .53400006 .21400002 .545 .21400002 .56500008 C .21400002 .61 .18200001 .6470001 .13200002 .6470001 C .037 .6470001 0 .50200006 0 .49300004 C 0 .48300005 .01 .48300005 .012 .48300005 C .022000002 .48300005 .023 .485 .028000003 .50100007 C .055000009 .595 .095000009 .625 .12900001 .625 C .13700001 .625 .15400002 .625 .15400002 .59300008 C .15400002 .568 .14400001 .54200008 .13700001 .523 C .097 .41700004 .079 .36 .079 .31300003 C .079 .224 .142 .194 .201 .194 C .24000003 .194 .274 .21100001 .30200003 .23900002 C .289 .187 .277 .13800001 .237 .08500001 C .21100001 .051 .17300001 .022 .127 .022 C .113000009 .022 .068 .025000006 .051000008 .06400001 C .067 .06400001 .080000009 .06400001 .094000007 .076000008 C .104 .08500001 .11400001 .098000008 .11400001 .117000009 C .11400001 .148 .087000008 .15200001 .07700001 .15200001 C .054000006 .15200001 .021 .136 .021 .087000008 C .021 .037 .065000008 0 .127 0 C .23 0 .333 .091000009 .361 .20400001 L .45700003 .586 Z "/>
</symbol>
<use xlink:href="#font_4_1" transform="matrix(9.9626,0,0,-9.9626,58.748788,40.563776)" fill="#000080"/>
<use xlink:href="#font_4_4" transform="matrix(9.9626,0,0,-9.9626,62.614274,40.683324)" fill="#000080"/>
<use xlink:href="#font_1_1" transform="matrix(9.9626,0,0,-9.9626,68.5483,41.13164)" fill="#000080"/>
<use xlink:href="#font_4_2" transform="matrix(9.9626,0,0,-9.9626,71.665149,38.75058)" fill="#000080"/>
<use xlink:href="#font_1_2" transform="matrix(9.9626,0,0,-9.9626,75.601879,41.13164)" fill="#000080"/>
<symbol id="font_0_3">
<path d="M .218 .483 C .22300002 .495 .22300002 .497 .22300002 .5 C .22300002 .503 .22300002 .505 .218 .517 L .043 .97700008 C .037000006 .994 .031 1 .02 1 C .009 1 0 .99100008 0 .98 C 0 .97700008 0 .975 .004999999 .96400007 L .18200001 .5 L .004999999 .037999989 C 0 .026999996 0 .024999991 0 .019999996 C 0 .008999988 .009 0 .02 0 C .033000005 0 .037000006 .00999999 .040999999 .019999996 L .218 .483 Z "/>
</symbol>
<use xlink:href="#font_0_3" transform="matrix(9.9626,0,0,-9.9626,79.45595,41.13164)" fill="#000080"/>
<use xlink:href="#font_2_1" transform="matrix(6.9738,0,0,-6.9738,188.78192,109.455608)" fill="#800000"/>
<symbol id="font_3_1">
<path d="M .069000009 .356 L .069000009 .047000003 L 0 .047000003 L 0 0 C .028000005 .001 .088 .003 .126 .003 C .165 .003 .22400002 .001 .25200004 0 L .25200004 .047000003 L .18300002 .047000003 L .18300002 .256 C .18300002 .365 .269 .41400004 .33200003 .41400004 C .366 .41400004 .38700003 .393 .38700003 .317 L .38700003 .047000003 L .31800003 .047000003 L .31800003 0 C .34600003 .001 .40600003 .003 .444 .003 C .48299999 .003 .542 .001 .57 0 L .57 .047000003 L .501 .047000003 L .501 .30600003 C .501 .411 .44700004 .45000003 .347 .45000003 C .251 .45000003 .19800002 .393 .172 .342 L .172 .45000003 L 0 .44200004 L 0 .395 C .062000008 .395 .069000009 .395 .069000009 .356 Z "/>
</symbol>
<use xlink:href="#font_3_1" transform="matrix(9.9626,0,0,-9.9626,190.0103,117.368)" fill="#800000"/>
<use xlink:href="#font_1_1" transform="matrix(9.9626,0,0,-9.9626,198.24428,119.85864)" fill="#800000"/>
<use xlink:href="#font_4_2" transform="matrix(9.9626,0,0,-9.9626,201.36212,117.477588)" fill="#800000"/>
<use xlink:href="#font_1_2" transform="matrix(9.9626,0,0,-9.9626,205.29785,119.85864)" fill="#800000"/>
<use xlink:href="#font_1_5" transform="matrix(9.9626,0,0,-9.9626,211.93296,116.04297)" fill="#800000"/>
<use xlink:href="#font_0_2" transform="matrix(9.9626,0,0,-9.9626,222.98387,119.85864)" fill="#800000"/>
<use xlink:href="#font_4_4" transform="matrix(9.9626,0,0,-9.9626,226.05089,119.41033)" fill="#800000"/>
<symbol id="font_5_1">
<path d="M .24200002 .43100003 C .25 .448 .25100003 .456 .25100003 .463 C .25100003 .49400003 .22300002 .518 .192 .518 C .15400002 .518 .14200002 .487 .137 .47100003 L .0050000029 .038000004 C .0040000008 .036000007 0 .023000002 0 .022 C 0 .010000002 .031000004 0 .039000006 0 C .046000005 0 .047000007 .0020000004 .054000006 .017 L .24200002 .43100003 Z "/>
</symbol>
<use xlink:href="#font_5_1" transform="matrix(6.9738,0,0,-6.9738,231.33873,112.96907)" fill="#800000"/>
<use xlink:href="#font_1_1" transform="matrix(9.9626,0,0,-9.9626,234.78528,119.85864)" fill="#800000"/>
<use xlink:href="#font_4_2" transform="matrix(9.9626,0,0,-9.9626,237.90312,117.477588)" fill="#800000"/>
<use xlink:href="#font_1_2" transform="matrix(9.9626,0,0,-9.9626,241.83885,119.85864)" fill="#800000"/>
<use xlink:href="#font_4_1" transform="matrix(9.9626,0,0,-9.9626,246.00276,119.29078)" fill="#800000"/>
<use xlink:href="#font_0_1" transform="matrix(9.9626,0,0,-9.9626,250.40087,115.0766)" fill="#800000"/>
<use xlink:href="#font_4_3" transform="matrix(9.9626,0,0,-9.9626,257.61088,117.477588)" fill="#800000"/>
<use xlink:href="#font_5_1" transform="matrix(6.9738,0,0,-6.9738,263.35075,112.96907)" fill="#800000"/>
<use xlink:href="#font_1_1" transform="matrix(9.9626,0,0,-9.9626,266.79728,119.85864)" fill="#800000"/>
<use xlink:href="#font_4_2" transform="matrix(9.9626,0,0,-9.9626,269.9151,117.477588)" fill="#800000"/>
<use xlink:href="#font_1_2" transform="matrix(9.9626,0,0,-9.9626,273.85084,119.85864)" fill="#800000"/>
<use xlink:href="#font_0_3" transform="matrix(9.9626,0,0,-9.9626,277.7059,119.85864)" fill="#800000"/>
<use xlink:href="#font_4_3" transform="matrix(9.9626,0,0,-9.9626,190.5169,96.03057)"/>
<use xlink:href="#font_4_4" transform="matrix(9.9626,0,0,-9.9626,103.666919,9.652319)"/>
</svg>
