<?xml version="1.0" encoding="UTF-8" standalone="no"?>
<!DOCTYPE svg PUBLIC "-//W3C//DTD SVG 1.1//EN" "http://www.w3.org/Graphics/SVG/1.1/DTD/svg11.dtd">
<svg xmlns="http://www.w3.org/2000/svg" xmlns:xlink="http://www.w3.org/1999/xlink" version="1.1" width="181.933pt" height="99.145pt" viewBox="0 0 181.933 99.145">
<path transform="matrix(1,0,0,-1,39.266,85.239)" stroke-width=".3985" stroke-linecap="butt" stroke-miterlimit="10" stroke-linejoin="miter" fill="none" stroke="#000000" d="M 0 0 L 6.23631 0 L 6.23631 6.23631 L 0 6.23631 Z "/>
<path transform="matrix(1,0,0,-1,39.266,85.239)" stroke-width=".3985" stroke-linecap="butt" stroke-miterlimit="10" stroke-linejoin="miter" fill="none" stroke="#000000" d="M 0 0 L 0 85.04042 L 42.5202 0 Z "/>
<symbol id="font_0_4">
<path d="M .35500003 .39100004 C .33900003 .39100004 .32500003 .39100004 .31100003 .37700004 C .29500003 .36200003 .293 .34500004 .293 .33800004 C .293 .314 .31100003 .30300004 .33 .30300004 C .359 .30300004 .386 .32700003 .386 .367 C .386 .41600005 .33900003 .45300005 .268 .45300005 C .13300002 .45300005 0 .31000004 0 .16900002 C 0 .079 .058000007 0 .162 0 C .305 0 .389 .106000009 .389 .11800001 C .389 .124000009 .38300003 .13100001 .377 .13100001 C .372 .13100001 .37 .12900001 .36400003 .12100001 C .285 .022000002 .176 .022000002 .164 .022000002 C .101 .022000002 .074 .071 .074 .13100001 C .074 .17200002 .094000007 .26900003 .12800002 .33100004 C .15900001 .388 .21400002 .43100003 .269 .43100003 C .303 .43100003 .34100003 .418 .35500003 .39100004 Z "/>
</symbol>
<use xlink:href="#font_0_4" transform="matrix(9.9626,0,0,-9.9626,64.52747,44.973588)"/>
<path transform="matrix(1,0,0,-1,39.266,85.239)" stroke-width=".3985" stroke-linecap="butt" stroke-miterlimit="10" stroke-linejoin="miter" fill="none" stroke="#000000" d="M 34.91457 15.21155 C 29.15315 12.3309 25.51193 6.44193 25.51193 0 "/>
<symbol id="font_0_2">
<path d="M .33300004 .38900004 C .31500004 .42600004 .286 .45300005 .24100001 .45300005 C .124 .45300005 0 .30600003 0 .16000001 C 0 .06600001 .055000005 0 .133 0 C .153 0 .20300001 .0040000008 .263 .075 C .27100004 .033000005 .30600003 0 .35400004 0 C .38900004 0 .41200004 .023000002 .42800004 .055000005 C .44500003 .091000009 .45800004 .15200001 .45800004 .15400002 C .45800004 .16400002 .44900004 .16400002 .44600005 .16400002 C .43600003 .16400002 .43500004 .16000001 .43200005 .14600002 C .41500003 .081 .397 .022000002 .35600005 .022000002 C .32900004 .022000002 .32600004 .048 .32600004 .068 C .32600004 .09 .32800005 .098000008 .33900003 .14200002 C .35000003 .18400002 .35200004 .19400002 .36100004 .23200003 L .397 .37200005 C .40400005 .40000005 .40400005 .40200005 .40400005 .40600003 C .40400005 .42300005 .39200003 .43300004 .37500004 .43300004 C .35100005 .43300004 .33600004 .411 .33300004 .38900004 M .26800005 .13000001 C .263 .112 .263 .11000001 .24800001 .093 C .20400001 .038000004 .163 .022000002 .135 .022000002 C .08499999 .022000002 .07100001 .077 .07100001 .116000007 C .07100001 .16600001 .103 .28900004 .126 .335 C .157 .39400003 .202 .43100003 .242 .43100003 C .307 .43100003 .32100005 .34900005 .32100005 .34300003 C .32100005 .337 .31900005 .33100004 .31800003 .32600004 L .26800005 .13000001 Z "/>
</symbol>
<use xlink:href="#font_0_2" transform="matrix(9.9626,0,0,-9.9626,3.7925013,46.038587)"/>
<symbol id="font_1_3">
<path d="M .63100007 .19400002 C .646 .19400002 .665 .19400002 .665 .214 C .665 .23400001 .646 .23400001 .632 .23400001 L .033 .23400001 C .019000002 .23400001 0 .23400001 0 .214 C 0 .19400002 .019000002 .19400002 .034 .19400002 L .63100007 .19400002 M .632 0 C .646 0 .665 0 .665 .02000001 C .665 .040000008 .646 .040000008 .63100007 .040000008 L .034 .040000008 C .019000002 .040000008 0 .040000008 0 .02000001 C 0 0 .019000002 0 .033 0 L .632 0 Z "/>
</symbol>
<symbol id="font_1_2">
<path d="M .24800003 .37400005 C .33 .40100003 .388 .47100006 .388 .55 C .388 .632 .3 .688 .204 .688 C .10300001 .688 .027000003 .628 .027000003 .55200007 C .027000003 .519 .049000004 .5 .078 .5 C .109000008 .5 .12900001 .522 .12900001 .55100008 C .12900001 .6010001 .082 .6010001 .067 .6010001 C .098 .65000006 .164 .66300007 .20000002 .66300007 C .24100003 .66300007 .29600004 .64100006 .29600004 .55100008 C .29600004 .53900006 .29400004 .48100005 .268 .43700005 C .238 .38900004 .204 .38600005 .17900002 .38500003 C .171 .38400004 .14700002 .38200004 .14000002 .38200004 C .132 .38100005 .125 .38000003 .125 .37000004 C .125 .35900004 .132 .35900004 .14900002 .35900004 L .19300002 .35900004 C .275 .35900004 .312 .29100005 .312 .193 C .312 .057000005 .24300003 .028 .199 .028 C .15600002 .028 .081 .045 .046000005 .104 C .081 .09900001 .11200001 .12100001 .11200001 .15900001 C .11200001 .19500001 .085 .215 .056 .215 C .031999999 .215 0 .201 0 .157 C 0 .06600001 .093 0 .20200002 0 C .32400004 0 .41500003 .091000009 .41500003 .193 C .41500003 .27500005 .35200004 .35300005 .24800003 .37400005 Z "/>
</symbol>
<use xlink:href="#font_1_3" transform="matrix(9.9626,0,0,-9.9626,11.985903,44.60397)"/>
<use xlink:href="#font_1_2" transform="matrix(9.9626,0,0,-9.9626,22.366934,46.148176)"/>
<symbol id="font_0_6">
<path d="M .059000009 .07000001 C .056 .055000005 .050000006 .032 .050000006 .027000003 C .050000006 .009000001 .064 0 .079 0 C .091000009 0 .10900001 .008000001 .11600001 .028 C .11700001 .030000002 .12900001 .077 .135 .102000009 L .157 .19200002 C .163 .21400002 .16900002 .23600002 .17400001 .259 C .17800002 .27600003 .186 .305 .187 .30900003 C .202 .34000004 .255 .43100003 .35 .43100003 C .395 .43100003 .404 .39400003 .404 .36100004 C .404 .33600004 .397 .30800004 .389 .27800004 L .361 .16200002 L .341 .086 C .337 .06600001 .328 .032 .328 .027000003 C .328 .009000001 .342 0 .357 0 C .388 0 .394 .025000003 .402 .057000005 C .416 .113000009 .453 .259 .462 .298 C .465 .31100003 .51800009 .43100003 .62700006 .43100003 C .6700001 .43100003 .68100008 .397 .68100008 .36100004 C .68100008 .30400003 .63900008 .19000001 .619 .13700001 C .6100001 .113000009 .60600009 .102000009 .60600009 .082 C .60600009 .035 .64100006 0 .688 0 C .78200009 0 .81900009 .14600002 .81900009 .15400002 C .81900009 .16400002 .81000009 .16400002 .80700007 .16400002 C .79700008 .16400002 .79700008 .16100002 .79200008 .14600002 C .77700009 .093 .74500009 .022000002 .69000008 .022000002 C .67300006 .022000002 .66600009 .032 .66600009 .055000005 C .66600009 .080000009 .6750001 .104 .6840001 .126 C .70300009 .17800002 .74500009 .28900004 .74500009 .34600003 C .74500009 .411 .70500007 .45300005 .63000008 .45300005 C .55500009 .45300005 .50400009 .40900005 .467 .35600005 C .46600003 .36900003 .463 .40300004 .435 .42700003 C .41 .448 .378 .45300005 .35300002 .45300005 C .263 .45300005 .21400002 .38900004 .19700001 .36600004 C .19200002 .42300005 .15 .45300005 .105000007 .45300005 C .059000009 .45300005 .040000008 .41400004 .031000002 .39600004 C .013000002 .36100004 0 .30200003 0 .29900003 C 0 .28900004 .01 .28900004 .012 .28900004 C .022000002 .28900004 .023 .29000003 .029000001 .31200005 C .046000005 .38300003 .06600001 .43100003 .10200001 .43100003 C .118 .43100003 .133 .42300005 .133 .38500003 C .133 .36400003 .13000001 .35300002 .11700001 .30100004 L .059000009 .07000001 Z "/>
</symbol>
<use xlink:href="#font_0_6" transform="matrix(9.9626,0,0,-9.9626,27.213912,46.038587)"/>
<symbol id="font_0_3">
<path d="M .192 .694 C .192 .695 .192 .705 .179 .705 C .156 .705 .083000008 .697 .057 .695 C .049 .694 .038 .693 .038 .675 C .038 .663 .047000003 .663 .062000004 .663 C .11 .663 .112 .656 .112 .646 C .112 .639 .103 .605 .098000008 .584 L .015999999 .25800003 C .0040000008 .20800002 0 .19200002 0 .15700002 C 0 .062000004 .053 0 .127 0 C .24500002 0 .36800004 .14900002 .36800004 .293 C .36800004 .38400004 .31500004 .45300005 .235 .45300005 C .18900001 .45300005 .148 .42400003 .118 .39300005 L .192 .694 M .098000008 .316 C .104 .33800004 .104 .34000004 .113000009 .351 C .162 .41600005 .207 .43100003 .233 .43100003 C .26900003 .43100003 .29600004 .40100003 .29600004 .337 C .29600004 .27800004 .263 .16300002 .24500002 .12500002 C .212 .058000003 .16600001 .022000002 .127 .022000002 C .092999998 .022000002 .060000007 .049000004 .060000007 .123 C .060000007 .14200002 .060000007 .16100002 .076000008 .22400002 L .098000008 .316 Z "/>
</symbol>
<use xlink:href="#font_0_3" transform="matrix(9.9626,0,0,-9.9626,58.856245,95.86059)"/>
<symbol id="font_0_1">
<path d="M .41300003 .511 C .41300003 .577 .395 .716 .293 .716 C .15400002 .716 0 .43400003 0 .20500002 C 0 .111 .029 0 .12 0 C .261 0 .41300003 .28700004 .41300003 .511 M .106 .374 C .123 .43800003 .143 .518 .183 .589 C .21000001 .638 .24700001 .694 .29200004 .694 C .34100003 .694 .34700004 .63 .34700004 .573 C .34700004 .524 .33900003 .47300003 .31500004 .374 L .106 .374 M .30600003 .34200005 C .29500003 .29600004 .27400003 .21100001 .23600003 .13900002 C .201 .071 .16300002 .022000002 .12 .022000002 C .087000008 .022000002 .066 .051000004 .066 .14400001 C .066 .18600002 .072000008 .24400002 .098 .34200005 L .30600003 .34200005 Z "/>
</symbol>
<use xlink:href="#font_0_1" transform="matrix(9.9626,0,0,-9.9626,70.089427,82.57159)" fill="#800000"/>
<symbol id="font_0_5">
<path d="M .47600005 .694 C .47600005 .695 .47600005 .705 .46300004 .705 C .44800005 .705 .35300002 .69600006 .33600004 .694 C .32800005 .693 .32200004 .688 .32200004 .675 C .32200004 .663 .33100004 .663 .34600003 .663 C .39400003 .663 .39600004 .656 .39600004 .646 L .39300005 .626 L .33300004 .38900004 C .31500004 .42600004 .286 .45300005 .24100001 .45300005 C .124 .45300005 0 .30600003 0 .16000001 C 0 .06600001 .055000005 0 .133 0 C .153 0 .20300001 .0040000008 .263 .075 C .27100004 .033000005 .30600003 0 .35400004 0 C .38900004 0 .41200004 .023000002 .42800004 .055000005 C .44500003 .091000009 .45800004 .15200001 .45800004 .15400002 C .45800004 .16400002 .44900004 .16400002 .44600005 .16400002 C .43600003 .16400002 .43500004 .16000001 .43200005 .14600002 C .41500003 .081 .397 .022000002 .35600005 .022000002 C .32900004 .022000002 .32600004 .048 .32600004 .068 C .32600004 .092 .32800005 .09900001 .33200003 .116000007 L .47600005 .694 M .26800005 .13000001 C .263 .112 .263 .11000001 .24800001 .093 C .20400001 .038000004 .163 .022000002 .135 .022000002 C .08499999 .022000002 .07100001 .077 .07100001 .116000007 C .07100001 .16600001 .103 .28900004 .126 .335 C .157 .39400003 .202 .43100003 .242 .43100003 C .307 .43100003 .32100005 .34900005 .32100005 .34300003 C .32100005 .337 .31900005 .33100004 .31800003 .32600004 L .26800005 .13000001 Z "/>
</symbol>
<use xlink:href="#font_0_5" transform="matrix(9.9626,0,0,-9.9626,93.832508,13.422592)" fill="#000080"/>
<use xlink:href="#font_0_3" transform="matrix(9.9626,0,0,-9.9626,99.09275,13.422592)" fill="#000080"/>
<path transform="matrix(1,0,0,-1,93.434,17.562005)" stroke-width=".398" stroke-linecap="butt" stroke-miterlimit="10" stroke-linejoin="miter" fill="none" stroke="#000080" d="M 0 0 L 9.461 0 "/>
<symbol id="font_0_7">
<path d="M .18300002 .411 L .277 .411 C .29700003 .411 .307 .411 .307 .43100003 C .307 .44200004 .29700003 .44200004 .279 .44200004 L .19100002 .44200004 C .227 .584 .23200003 .60400006 .23200003 .61 C .23200003 .62700006 .22000002 .637 .20300001 .637 C .2 .637 .172 .636 .163 .601 L .124 .44200004 L .030000002 .44200004 C .009999998 .44200004 0 .44200004 0 .42300005 C 0 .411 .007999999 .411 .028 .411 L .11600001 .411 C .044 .127 .04 .11000001 .04 .092 C .04 .038000004 .078 0 .132 0 C .234 0 .291 .14600002 .291 .15400002 C .291 .16400002 .28300003 .16400002 .279 .16400002 C .27 .16400002 .26900003 .16100002 .264 .15000002 C .22100002 .046 .16800002 .022000002 .134 .022000002 C .113000009 .022000002 .103 .035 .103 .068 C .103 .092 .105000007 .09900001 .109 .116000007 L .18300002 .411 Z "/>
</symbol>
<use xlink:href="#font_0_5" transform="matrix(9.9626,0,0,-9.9626,94.17151,26.99559)" fill="#000080"/>
<use xlink:href="#font_0_7" transform="matrix(9.9626,0,0,-9.9626,99.19266,26.99559)" fill="#000080"/>
<symbol id="font_1_1">
<path d="M .07700001 .07700001 L .18300002 .18 C .33900003 .31800003 .39900003 .372 .39900003 .47200004 C .39900003 .586 .30900003 .666 .18700002 .666 C .074 .666 0 .574 0 .485 C 0 .42900003 .05 .42900003 .053000008 .42900003 C .07000001 .42900003 .105000007 .441 .105000007 .48200003 C .105000007 .508 .08700001 .53400006 .052000006 .53400006 C .044000005 .53400006 .042000008 .53400006 .039 .53300008 C .062000004 .59800007 .11600001 .63500007 .17400001 .63500007 C .26500003 .63500007 .308 .554 .308 .47200004 C .308 .39200003 .25800003 .31300003 .20300003 .25100003 L .011000004 .037 C 0 .026 0 .024 0 0 L .37100003 0 L .39900003 .17400001 L .374 .17400001 C .36900003 .14400001 .36200003 .1 .352 .085 C .345 .07700001 .279 .07700001 .257 .07700001 L .07700001 .07700001 Z "/>
</symbol>
<use xlink:href="#font_1_3" transform="matrix(9.9626,0,0,-9.9626,107.41591,18.727976)" fill="#000080"/>
<use xlink:href="#font_1_1" transform="matrix(9.9626,0,0,-9.9626,117.87663,20.053002)" fill="#000080"/>
<use xlink:href="#font_0_5" transform="matrix(9.9626,0,0,-9.9626,92.860507,46.587587)" fill="#800000"/>
<use xlink:href="#font_0_1" transform="matrix(9.9626,0,0,-9.9626,98.07094,46.587587)" fill="#800000"/>
<path transform="matrix(1,0,0,-1,92.462,50.726999)" stroke-width=".398" stroke-linecap="butt" stroke-miterlimit="10" stroke-linejoin="miter" fill="none" stroke="#800000" d="M 0 0 L 10.139 0 "/>
<use xlink:href="#font_0_5" transform="matrix(9.9626,0,0,-9.9626,93.538509,60.161588)" fill="#800000"/>
<use xlink:href="#font_0_7" transform="matrix(9.9626,0,0,-9.9626,98.559658,60.161588)" fill="#800000"/>
<use xlink:href="#font_1_3" transform="matrix(9.9626,0,0,-9.9626,107.1219,51.89297)" fill="#800000"/>
<symbol id="font_2_2">
<path d="M .12100002 .37500004 C .096000019 .354 .052 .32000003 .052 .257 C .052 .224 .06999999 .187 .11200002 .187 C .17900002 .187 .224 .25800003 .224 .282 C .224 .29200004 .21400002 .29200004 .20900002 .29200004 C .19700003 .29200004 .19600001 .29000003 .192 .277 C .178 .23700002 .143 .209 .11200002 .209 C .09400001 .209 .08700001 .22700002 .08700001 .24300002 C .08700001 .282 .10500002 .296 .169 .34600003 L .24700001 .409 C .28800003 .441 .357 .49600003 .357 .592 C .357 .66300007 .31 .716 .23700002 .716 C .08400002 .716 0 .50600007 0 .46300004 C 0 .437 .020999998 .43100003 .03400001 .43100003 C .060000004 .43100003 .083000008 .45400004 .083000008 .48000003 C .083000008 .49400003 .07500002 .512 .045 .512 C .081 .61200007 .155 .694 .23700002 .694 C .28300003 .694 .32200004 .66400006 .32200004 .606 C .32200004 .535 .27100004 .49400003 .24200002 .47000004 L .12100002 .37500004 M .13 .063 C .13 .083000008 .11500001 .106000009 .08500001 .106000009 C .054000006 .106000009 .020999998 .07700001 .020999998 .043 C .020999998 .018000002 .040000008 0 .065 0 C .09900001 0 .13 .032 .13 .063 Z "/>
</symbol>
<symbol id="font_2_1">
<path d="M .125 .208 C .11000001 .131 .059999996 .067 .012999997 .026999996 C .0009999946 .015000001 0 .013999999 0 .00999999 C 0 .0069999995 .0029999987 0 .009999998 0 C .027999998 0 .151 .121 .151 .24000001 C .151 .273 .137 .29900003 .105 .29900003 C .065000008 .29900003 .04 .264 .04 .23500002 C .04 .20300001 .063 .193 .084 .193 C .103999998 .193 .12 .20400001 .125 .208 Z "/>
</symbol>
<use xlink:href="#font_2_2" transform="matrix(9.9626,0,0,-9.9626,119.809749,53.218)" fill="#800000"/>
<use xlink:href="#font_2_1" transform="matrix(9.9626,0,0,-9.9626,128.27796,55.14078)" fill="#800000"/>
<symbol id="font_3_4">
<path d="M .30800004 .18600002 C .307 .18100001 .3 .15300001 .3 .128 C .3 .108 .29200004 .08800001 .273 .061 C .256 .037 .23700002 .025000003 .215 .025000003 C .143 .025000003 .143 .095000009 .143 .112 C .143 .15700002 .158 .20800002 .19700003 .31500004 C .20700002 .34100003 .21100003 .351 .21100003 .37100003 C .21100003 .42000003 .17700002 .45300005 .13200002 .45300005 C .037000009 .45300005 0 .30800004 0 .29900003 C 0 .28700004 .012000002 .28700004 .017000005 .28700004 C .031000004 .28700004 .032000007 .29200004 .036000007 .30400003 C .043000007 .33 .07000001 .42800004 .12900001 .42800004 C .13900002 .42800004 .15 .42600004 .15 .40000005 C .15 .37500004 .13900002 .34500004 .13200002 .32600004 C .08700001 .20500002 .07700001 .16500002 .07700001 .12500002 C .07700001 .018000002 .164 0 .21200001 0 C .252 0 .28500004 .020000002 .31100003 .063 C .33800004 .008000001 .397 0 .428 0 C .505 0 .5450001 .068 .564 .11400001 C .595 .18600002 .6320001 .328 .6320001 .38400004 C .6320001 .44000004 .605 .45300005 .589 .45300005 C .5680001 .45300005 .541 .43200005 .541 .40700004 C .541 .397 .543 .39200003 .551 .38300003 C .56200006 .37000004 .5810001 .34800003 .5810001 .30100004 C .5810001 .26200003 .548 .15100001 .533 .117000009 C .51900008 .085 .49000005 .025000003 .43100003 .025000003 C .36800004 .025000003 .365 .086 .365 .108 C .365 .13700001 .372 .16500002 .379 .19200002 L .418 .34800003 C .423 .37000004 .433 .40800003 .433 .41400004 C .433 .43200005 .419 .44200004 .404 .44200004 C .388 .44200004 .37000004 .43400003 .36300005 .40500004 L .30800004 .18600002 Z "/>
</symbol>
<symbol id="font_3_2">
<path d="M .229 .67300006 C .23200003 .68700006 .23300001 .688 .23300001 .691 C .23300001 .704 .224 .70600005 .20700002 .704 L .103 .695 C .088 .694 .07800001 .693 .07800001 .676 C .07800001 .663 .088 .663 .105000007 .663 C .15200001 .663 .15200001 .65500006 .15200001 .646 C .15200001 .645 .15200001 .639 .148 .624 L .0040000008 .048 C 0 .034 0 .032 0 .028 C 0 .013000001 .011 0 .030000002 0 C .061000006 0 .067 .025000003 .074 .055000005 C .085999999 .098000008 .085999999 .1 .096 .14100002 C .10700001 .18400002 .120000008 .23600002 .128 .27100004 C .139 .31200005 .15900001 .35000003 .18900001 .38000003 C .204 .395 .23700002 .42800004 .291 .42800004 C .32900004 .42800004 .33800004 .395 .33800004 .36300005 C .33800004 .305 .29500003 .18700002 .278 .14200002 C .266 .109000008 .264 .10300001 .264 .082 C .264 .028 .30200003 0 .34300003 0 C .438 0 .475 .14700002 .475 .15400002 C .475 .16600001 .46200005 .16600001 .45800004 .16600001 C .44400005 .16600001 .44300006 .16300002 .437 .14200002 C .42700003 .106000009 .39900003 .025000003 .34500004 .025000003 C .337 .025000003 .324 .026 .324 .053000004 C .324 .077 .33600004 .109000008 .344 .13100001 C .36200003 .17900002 .40300004 .29000003 .40300004 .34700004 C .40300004 .41400004 .363 .45300005 .293 .45300005 C .238 .45300005 .194 .42800004 .15900001 .39100004 L .229 .67300006 Z "/>
</symbol>
<symbol id="font_3_1">
<path d="M .116000007 .24000003 C .19100002 .24000003 .24300003 .24800003 .279 .26200003 C .34900005 .29000003 .35800005 .34600003 .35800005 .367 C .35800005 .41200004 .32000003 .45300005 .25200004 .45300005 C .15 .45300005 0 .35900004 0 .17800002 C 0 .06600001 .063 0 .148 0 C .24000001 0 .32800005 .05 .36600004 .112 C .36200003 .12500002 .35300002 .13100001 .34700004 .13100001 C .34200005 .13100001 .34000004 .12900001 .33300004 .120000008 C .27600003 .047000003 .19500003 .025000003 .14900002 .025000003 C .08100001 .025000003 .071 .101 .071 .136 C .071 .14400001 .071 .17600002 .087000008 .24000003 L .116000007 .24000003 M .093 .26500003 C .13900003 .42500005 .238 .42800004 .25200004 .42800004 C .29600004 .42800004 .31700004 .39800004 .31700004 .36800004 C .31700004 .26500003 .15800002 .26500003 .093 .26500003 Z "/>
</symbol>
<symbol id="font_3_3">
<path d="M .051 .049000004 C .047000007 .035 .047000007 .033000005 .047000007 .028 C .047000007 .010000001 .061000006 0 .076000008 0 C .10800001 0 .113000009 .020000002 .12600002 .075 C .13100001 .094000007 .14500001 .14700002 .14800002 .16100002 C .15600002 .19400002 .17400003 .26400004 .18 .291 C .18400002 .30400003 .21200001 .35600005 .236 .38000003 C .25100003 .395 .284 .42800004 .33800004 .42800004 C .37600003 .42800004 .38500003 .395 .38500003 .36300005 C .38500003 .305 .342 .18700002 .32500003 .14200002 C .31300003 .109000008 .31100003 .10300001 .31100003 .082 C .31100003 .028 .349 0 .39000003 0 C .48500005 0 .5220001 .14700002 .5220001 .15400002 C .5220001 .16600001 .50900009 .16600001 .505 .16600001 C .49100004 .16600001 .49000005 .16300002 .484 .14200002 C .474 .106000009 .446 .025000003 .39200003 .025000003 C .38400004 .025000003 .37100003 .026 .37100003 .053000004 C .37100003 .077 .38300003 .109000008 .39100004 .13100001 C .409 .17900002 .45000003 .29000003 .45000003 .34700004 C .45000003 .41400004 .41000004 .45300005 .34000004 .45300005 C .268 .45300005 .22000003 .40900005 .194 .37700004 C .185 .42700003 .14800002 .45300005 .106000009 .45300005 C .073000017 .45300005 .048000009 .43300004 .030000009 .395 C .014000006 .36 0 .30400003 0 .3 C 0 .28700004 .011000007 .28700004 .017000005 .28700004 C .032000007 .28700004 .032000007 .291 .037000009 .31100003 C .05700001 .39100004 .076000008 .42800004 .104 .42800004 C .120000008 .42800004 .13000001 .41900004 .13000001 .388 C .13000001 .367 .12400001 .34100003 .12300001 .337 L .051 .049000004 Z "/>
</symbol>
<use xlink:href="#font_3_4" transform="matrix(8.9664,0,0,-8.9664,134.89728,53.316629)" fill="#800000"/>
<use xlink:href="#font_3_2" transform="matrix(8.9664,0,0,-8.9664,140.96753,53.316629)" fill="#800000"/>
<use xlink:href="#font_3_1" transform="matrix(8.9664,0,0,-8.9664,146.03356,53.316629)" fill="#800000"/>
<use xlink:href="#font_3_3" transform="matrix(8.9664,0,0,-8.9664,149.95188,53.316629)" fill="#800000"/>
<symbol id="font_4_1">
<path d="M .192 .671 C .19600001 .685 .19600001 .68700006 .19600001 .691 C .19600001 .7 .19000001 .705 .18100001 .705 C .16700001 .705 .078999999 .697 .059000005 .695 C .049 .694 .038 .693 .038 .676 C .038 .663 .049 .663 .065 .663 C .112 .663 .112 .656 .112 .647 C .112 .64100006 .112 .639 .105000007 .612 L .052000006 .40100003 C .038 .34500004 .025000003 .29400004 .014000002 .24700003 C .0069999995 .22200002 0 .19200002 0 .16000001 C 0 .074 .048000006 0 .134 0 C .25100003 0 .37900005 .14100002 .37900005 .291 C .37900005 .39300005 .316 .45300005 .24100001 .45300005 C .19000001 .45300005 .146 .418 .122999999 .39600004 L .192 .671 M .109 .33900003 C .13700001 .37900005 .18800001 .42800004 .23900001 .42800004 C .286 .42800004 .30500005 .381 .30500005 .33400003 C .30500005 .28900004 .277 .16500002 .246 .112 C .209 .048 .165 .025000003 .134 .025000003 C .08400001 .025000003 .06400001 .075 .06400001 .126 C .06400001 .16100002 .07100001 .18800001 .094 .279 L .109 .33900003 Z "/>
</symbol>
<use xlink:href="#font_4_1" transform="matrix(8.9664,0,0,-8.9664,158.11542,53.316629)" fill="#800000"/>
<symbol id="font_5_2">
<path d="M .651 .20400003 C .6650001 .20400003 .6840001 .20400003 .6840001 .22500003 C .6840001 .24700001 .66200008 .24700001 .6470001 .24700001 L .037 .24700001 C .022 .24700001 0 .24700001 0 .22500003 C 0 .20400003 .020000004 .20400003 .033 .20400003 L .651 .20400003 M .6470001 0 C .66200008 0 .6840001 0 .6840001 .022 C .6840001 .042999999 .6650001 .042999999 .651 .042999999 L .033 .042999999 C .020000004 .042999999 0 .042999999 0 .022 C 0 0 .022 0 .037 0 L .6470001 0 Z "/>
</symbol>
<symbol id="font_5_1">
<path d="M .262 .37400005 C .35500003 .40900005 .39900003 .48200003 .39900003 .55100008 C .39900003 .628 .314 .688 .21000003 .688 C .106000009 .688 .028 .62900009 .028 .55300006 C .028 .52000007 .05 .50100007 .07900001 .50100007 C .10800001 .50100007 .12900001 .522 .12900001 .55100008 C .12900001 .586 .105000007 .6010001 .07100001 .6010001 C .097 .64300009 .158 .66300007 .207 .66300007 C .29 .66300007 .306 .59700009 .306 .55 C .306 .52000007 .3 .47200004 .275 .43400005 C .244 .38900004 .209 .38700003 .18 .38500003 C .15500002 .38300006 .15300001 .38300006 .14500001 .38300006 C .136 .38200004 .128 .38100005 .128 .37000004 C .128 .35700003 .136 .35700003 .15300001 .35700003 L .20000002 .35700003 C .287 .35700003 .32500003 .28700004 .32500003 .192 C .32500003 .064 .257 .028 .20600002 .028 C .187 .028 .09 .033000005 .045000007 .107 C .081 .102000009 .10900001 .127 .10900001 .16100002 C .10900001 .194 .08400001 .215 .055000005 .215 C .030000005 .215 0 .2 0 .158 C 0 .069000009 .09300001 0 .209 0 C .334 0 .42700003 .09 .42700003 .192 C .42700003 .279 .358 .35300005 .262 .37400005 Z "/>
</symbol>
<use xlink:href="#font_5_2" transform="matrix(8.9664,0,0,-8.9664,164.71408,52.079267)" fill="#800000"/>
<use xlink:href="#font_5_1" transform="matrix(8.9664,0,0,-8.9664,174.31711,53.41526)" fill="#800000"/>
</svg>
