<?xml version="1.0" encoding="UTF-8" standalone="no"?>
<!DOCTYPE svg PUBLIC "-//W3C//DTD SVG 1.1//EN" "http://www.w3.org/Graphics/SVG/1.1/DTD/svg11.dtd">
<svg xmlns="http://www.w3.org/2000/svg" xmlns:xlink="http://www.w3.org/1999/xlink" version="1.1" width="283.812pt" height="48.632pt" viewBox="0 0 283.812 48.632">
<symbol id="font_0_1">
<path d="M .33900006 .38500003 C .311 .38400004 .291 .36200003 .291 .34000004 C .291 .32600004 .3 .31100003 .32200004 .31100003 C .34400005 .31100003 .36800004 .328 .36800004 .367 C .36800004 .41200004 .325 .45300005 .24900003 .45300005 C .11700001 .45300005 .08 .351 .08 .307 C .08 .22900002 .15400002 .21400002 .18300002 .20800002 C .235 .19800002 .287 .18700002 .287 .13200002 C .287 .106000009 .264 .022000002 .14400001 .022000002 C .13000001 .022000002 .053000004 .022000002 .030000002 .075 C .068 .07000001 .09300001 .1 .09300001 .128 C .09300001 .15100001 .07700001 .16300002 .056 .16300002 C .030000002 .16300002 0 .14200002 0 .097 C 0 .040000004 .057000005 0 .143 0 C .305 0 .34400005 .12100001 .34400005 .16600001 C .34400005 .20200002 .325 .22700002 .31300003 .23900002 C .286 .26700003 .25700004 .272 .21300002 .28100003 C .17700002 .28900004 .13700001 .29600004 .13700001 .34100003 C .13700001 .37000004 .16100002 .43100003 .24900003 .43100003 C .274 .43100003 .324 .42400003 .33900006 .38500003 Z "/>
</symbol>
<use xlink:href="#font_0_1" transform="matrix(9.9626,0,0,-9.9626,3.9120677,11.872589)"/>
<symbol id="font_1_1">
<path d="M .22600001 .63600006 C .22600001 .66300007 .224 .66400006 .19600001 .66400006 C .132 .601 .041 .6 0 .6 L 0 .564 C .023999997 .564 .09000001 .564 .14500001 .592 L .14500001 .082 C .14500001 .049000004 .14500001 .036000004 .04500001 .036000004 L .0069999995 .036000004 L .0069999995 0 C .024999999 .001 .148 .004 .185 .004 C .21600002 .004 .34200005 .001 .36400003 0 L .36400003 .036000004 L .32600004 .036000004 C .22600001 .036000004 .22600001 .049000004 .22600001 .082 L .22600001 .63600006 Z "/>
</symbol>
<use xlink:href="#font_1_1" transform="matrix(6.9738,0,0,-6.9738,8.824157,13.257999)"/>
<symbol id="font_2_8">
<path d="M .63100007 .19400002 C .646 .19400002 .665 .19400002 .665 .214 C .665 .23400001 .646 .23400001 .632 .23400001 L .033 .23400001 C .019000002 .23400001 0 .23400001 0 .214 C 0 .19400002 .019000002 .19400002 .034 .19400002 L .63100007 .19400002 M .632 0 C .646 0 .665 0 .665 .02000001 C .665 .040000008 .646 .040000008 .63100007 .040000008 L .034 .040000008 C .019000002 .040000008 0 .040000008 0 .02000001 C 0 0 .019000002 0 .033 0 L .632 0 Z "/>
</symbol>
<symbol id="font_2_9">
<path d="M .144 .694 L 0 .683 L 0 .652 C .07000001 .652 .07800001 .64500007 .07800001 .596 L .07800001 .076000008 C .07800001 .031000002 .067 .031000002 0 .031000002 L 0 0 C .033 .001 .086 .003 .11100001 .003 C .136 .003 .185 .001 .22200004 0 L .22200004 .031000002 C .155 .031000002 .144 .031000002 .144 .076000008 L .144 .694 Z "/>
</symbol>
<symbol id="font_2_a">
<path d="M .07800001 .344 L .07800001 .076000008 C .07800001 .031000002 .067 .031000002 0 .031000002 L 0 0 C .035 .001 .08600001 .003 .113000009 .003 C .139 .003 .191 .001 .225 0 L .225 .031000002 C .158 .031000002 .147 .031000002 .147 .076000008 L .147 .26000003 C .147 .36400003 .218 .42000003 .282 .42000003 C .345 .42000003 .356 .36600004 .356 .30900003 L .356 .076000008 C .356 .031000002 .345 .031000002 .278 .031000002 L .278 0 C .31300003 .001 .36400003 .003 .391 .003 C .41700004 .003 .46900005 .001 .503 0 L .503 .031000002 C .451 .031000002 .42600004 .031000002 .425 .061000006 L .425 .252 C .425 .33800004 .425 .36900003 .39400003 .40500004 C .38000003 .42200003 .347 .44200004 .289 .44200004 C .216 .44200004 .169 .39900003 .141 .337 L .141 .44200004 L 0 .43100003 L 0 .4 C .07000001 .4 .07800001 .393 .07800001 .344 Z "/>
</symbol>
<symbol id="font_2_1">
<path d="M .23200003 .00999999 C .23200003 .012999982 .23200003 .014999986 .215 .03199999 C .09 .15799999 .058 .347 .058 .5 C .058 .674 .096 .84800007 .21900001 .97300007 C .23200003 .985 .23200003 .98700007 .23200003 .99 C .23200003 .99700006 .22800002 1 .222 1 C .21200001 1 .12200001 .93200007 .06299999 .805 C .012000002 .69500008 0 .584 0 .5 C 0 .422 .011 .301 .066 .188 C .126 .065 .21200001 0 .222 0 C .22800002 0 .23200003 .0029999912 .23200003 .00999999 Z "/>
</symbol>
<symbol id="font_2_5">
<path d="M .07700001 .07700001 L .18300002 .18 C .33900003 .31800003 .39900003 .372 .39900003 .47200004 C .39900003 .586 .30900003 .666 .18700002 .666 C .074 .666 0 .574 0 .485 C 0 .42900003 .05 .42900003 .053000008 .42900003 C .07000001 .42900003 .105000007 .441 .105000007 .48200003 C .105000007 .508 .08700001 .53400006 .052000006 .53400006 C .044000005 .53400006 .042000008 .53400006 .039 .53300008 C .062000004 .59800007 .11600001 .63500007 .17400001 .63500007 C .26500003 .63500007 .308 .554 .308 .47200004 C .308 .39200003 .25800003 .31300003 .20300003 .25100003 L .011000004 .037 C 0 .026 0 .024 0 0 L .37100003 0 L .39900003 .17400001 L .374 .17400001 C .36900003 .14400001 .36200003 .1 .352 .085 C .345 .07700001 .279 .07700001 .257 .07700001 L .07700001 .07700001 Z "/>
</symbol>
<symbol id="font_2_2">
<path d="M .232 .5 C .232 .578 .22100002 .699 .16600001 .81200006 C .106 .93500009 .020000004 1 .009999998 1 C .0040000008 1 0 .99600008 0 .99 C 0 .98700007 0 .985 .019000002 .967 C .117000009 .86800006 .174 .709 .174 .5 C .174 .329 .137 .153 .012999997 .026999996 C 0 .014999986 0 .012999982 0 .00999999 C 0 .003999993 .0040000008 0 .009999998 0 C .020000004 0 .11000001 .06799999 .169 .195 C .22 .305 .232 .416 .232 .5 Z "/>
</symbol>
<use xlink:href="#font_2_8" transform="matrix(9.9626,0,0,-9.9626,15.858918,10.437975)"/>
<use xlink:href="#font_2_9" transform="matrix(9.9626,0,0,-9.9626,26.150284,11.7630009)"/>
<use xlink:href="#font_2_a" transform="matrix(9.9626,0,0,-9.9626,28.909926,11.7630009)"/>
<use xlink:href="#font_2_1" transform="matrix(9.9626,0,0,-9.9626,35.116628,14.253651)"/>
<use xlink:href="#font_2_5" transform="matrix(9.9626,0,0,-9.9626,38.50391,11.7630009)"/>
<use xlink:href="#font_2_2" transform="matrix(9.9626,0,0,-9.9626,43.554948,14.253651)"/>
<symbol id="font_3_1">
<path d="M .57600006 0 C .59300008 0 .611 0 .611 .019999996 C .611 .040000008 .59300008 .040000008 .57600006 .040000008 L .035000005 .040000008 C .018 .040000008 0 .040000008 0 .019999996 C 0 0 .018 0 .035000005 0 L .57600006 0 Z "/>
</symbol>
<use xlink:href="#font_3_1" transform="matrix(9.9626,0,0,-9.9626,49.88991,9.471602)"/>
<symbol id="font_2_4">
<path d="M .205 .64000007 C .205 .66400006 .205 .666 .18200003 .666 C .120000008 .60200008 .032000007 .60200008 0 .60200008 L 0 .57100006 C .020000004 .57100006 .07900001 .57100006 .13100001 .597 L .13100001 .079 C .13100001 .043 .128 .031000002 .038000004 .031000002 L .0060000049 .031000002 L .0060000049 0 C .04100001 .003 .128 .003 .168 .003 C .20800002 .003 .29500003 .003 .33000005 0 L .33000005 .031000002 L .29800005 .031000002 C .20800002 .031000002 .205 .042000005 .205 .079 L .205 .64000007 Z "/>
</symbol>
<use xlink:href="#font_2_9" transform="matrix(9.9626,0,0,-9.9626,59.354784,11.7630009)"/>
<use xlink:href="#font_2_a" transform="matrix(9.9626,0,0,-9.9626,62.11442,11.7630009)"/>
<use xlink:href="#font_2_1" transform="matrix(9.9626,0,0,-9.9626,68.32113,14.253651)"/>
<use xlink:href="#font_2_4" transform="matrix(9.9626,0,0,-9.9626,72.096958,11.7630009)"/>
<use xlink:href="#font_2_2" transform="matrix(9.9626,0,0,-9.9626,76.75945,14.253651)"/>
<use xlink:href="#font_2_8" transform="matrix(9.9626,0,0,-9.9626,249.43125,10.437975)"/>
<use xlink:href="#font_2_9" transform="matrix(9.9626,0,0,-9.9626,259.7226,11.7630009)"/>
<use xlink:href="#font_2_a" transform="matrix(9.9626,0,0,-9.9626,262.48225,11.7630009)"/>
<use xlink:href="#font_2_1" transform="matrix(9.9626,0,0,-9.9626,268.68894,14.253651)"/>
<use xlink:href="#font_2_5" transform="matrix(9.9626,0,0,-9.9626,272.07624,11.7630009)"/>
<use xlink:href="#font_2_2" transform="matrix(9.9626,0,0,-9.9626,277.12727,14.253651)"/>
<use xlink:href="#font_0_1" transform="matrix(9.9626,0,0,-9.9626,3.9120725,26.81659)"/>
<symbol id="font_1_2">
<path d="M .442 .18200001 L .40800003 .18200001 C .40500004 .16000001 .39500005 .101 .38200004 .091000009 C .374 .085 .29700003 .085 .28300003 .085 L .099 .085 C .20400003 .178 .23900002 .20600002 .29900003 .25300003 C .37300004 .312 .442 .374 .442 .469 C .442 .59000006 .33600004 .66400006 .20800004 .66400006 C .084 .66400006 0 .577 0 .485 C 0 .43400003 .043000007 .42900003 .053000004 .42900003 C .077 .42900003 .10600001 .446 .10600001 .48200003 C .10600001 .5 .099 .535 .047000007 .535 C .078 .606 .146 .628 .19300002 .628 C .293 .628 .34500004 .55 .34500004 .469 C .34500004 .38200004 .28300003 .31300003 .25100003 .277 L .010000005 .039 C 0 .030000002 0 .028 0 0 L .41200004 0 L .442 .18200001 Z "/>
</symbol>
<use xlink:href="#font_1_2" transform="matrix(6.9738,0,0,-6.9738,8.503366,28.202002)"/>
<symbol id="font_2_6">
<path d="M .24800003 .37400005 C .33 .40100003 .388 .47100006 .388 .55 C .388 .632 .3 .688 .204 .688 C .10300001 .688 .027000003 .628 .027000003 .55200007 C .027000003 .519 .049000004 .5 .078 .5 C .109000008 .5 .12900001 .522 .12900001 .55100008 C .12900001 .6010001 .082 .6010001 .067 .6010001 C .098 .65000006 .164 .66300007 .20000002 .66300007 C .24100003 .66300007 .29600004 .64100006 .29600004 .55100008 C .29600004 .53900006 .29400004 .48100005 .268 .43700005 C .238 .38900004 .204 .38600005 .17900002 .38500003 C .171 .38400004 .14700002 .38200004 .14000002 .38200004 C .132 .38100005 .125 .38000003 .125 .37000004 C .125 .35900004 .132 .35900004 .14900002 .35900004 L .19300002 .35900004 C .275 .35900004 .312 .29100005 .312 .193 C .312 .057000005 .24300003 .028 .199 .028 C .15600002 .028 .081 .045 .046000005 .104 C .081 .09900001 .11200001 .12100001 .11200001 .15900001 C .11200001 .19500001 .085 .215 .056 .215 C .031999999 .215 0 .201 0 .157 C 0 .06600001 .093 0 .20200002 0 C .32400004 0 .41500003 .091000009 .41500003 .193 C .41500003 .27500005 .35200004 .35300005 .24800003 .37400005 Z "/>
</symbol>
<use xlink:href="#font_2_8" transform="matrix(9.9626,0,0,-9.9626,15.858922,25.381976)"/>
<use xlink:href="#font_2_1" transform="matrix(9.9626,0,0,-9.9626,26.80782,29.19765)"/>
<use xlink:href="#font_2_9" transform="matrix(9.9626,0,0,-9.9626,30.025742,26.707)"/>
<use xlink:href="#font_2_a" transform="matrix(9.9626,0,0,-9.9626,32.785379,26.707)"/>
<use xlink:href="#font_2_1" transform="matrix(9.9626,0,0,-9.9626,38.99208,29.19765)"/>
<use xlink:href="#font_2_6" transform="matrix(9.9626,0,0,-9.9626,42.299665,26.926178)"/>
<use xlink:href="#font_2_2" transform="matrix(9.9626,0,0,-9.9626,47.4304,29.19765)"/>
<use xlink:href="#font_3_1" transform="matrix(9.9626,0,0,-9.9626,53.76491,24.415604)"/>
<symbol id="font_2_3">
<path d="M .35300002 .31300003 L .632 .31300003 C .646 .31300003 .665 .31300003 .665 .333 C .665 .35300002 .646 .35300002 .632 .35300002 L .35300002 .35300002 L .35300002 .633 C .35300002 .647 .35300002 .666 .33300004 .666 C .31300003 .666 .31300003 .647 .31300003 .633 L .31300003 .35300002 L .033 .35300002 C .019000002 .35300002 0 .35300002 0 .333 C 0 .31300003 .019000002 .31300003 .033 .31300003 L .31300003 .31300003 L .31300003 .033000005 C .31300003 .019000002 .31300003 0 .33300004 0 C .35300002 0 .35300002 .019000002 .35300002 .033000005 L .35300002 .31300003 Z "/>
</symbol>
<use xlink:href="#font_2_9" transform="matrix(9.9626,0,0,-9.9626,63.22878,26.707)"/>
<use xlink:href="#font_2_a" transform="matrix(9.9626,0,0,-9.9626,65.98842,26.707)"/>
<use xlink:href="#font_2_1" transform="matrix(9.9626,0,0,-9.9626,72.19512,29.19765)"/>
<use xlink:href="#font_2_5" transform="matrix(9.9626,0,0,-9.9626,75.582408,26.707)"/>
<use xlink:href="#font_2_2" transform="matrix(9.9626,0,0,-9.9626,80.633449,29.19765)"/>
<use xlink:href="#font_2_2" transform="matrix(9.9626,0,0,-9.9626,84.508899,29.19765)"/>
<use xlink:href="#font_2_3" transform="matrix(9.9626,0,0,-9.9626,90.58608,27.533898)"/>
<use xlink:href="#font_2_1" transform="matrix(9.9626,0,0,-9.9626,100.97707,29.19765)"/>
<use xlink:href="#font_2_9" transform="matrix(9.9626,0,0,-9.9626,104.19499,26.707)"/>
<use xlink:href="#font_2_a" transform="matrix(9.9626,0,0,-9.9626,106.95463,26.707)"/>
<use xlink:href="#font_2_1" transform="matrix(9.9626,0,0,-9.9626,113.16133,29.19765)"/>
<use xlink:href="#font_2_5" transform="matrix(9.9626,0,0,-9.9626,116.548618,26.707)"/>
<use xlink:href="#font_2_2" transform="matrix(9.9626,0,0,-9.9626,121.599658,29.19765)"/>
<use xlink:href="#font_3_1" transform="matrix(9.9626,0,0,-9.9626,127.930919,24.415604)"/>
<use xlink:href="#font_2_9" transform="matrix(9.9626,0,0,-9.9626,137.39579,26.707)"/>
<use xlink:href="#font_2_a" transform="matrix(9.9626,0,0,-9.9626,140.15543,26.707)"/>
<use xlink:href="#font_2_1" transform="matrix(9.9626,0,0,-9.9626,146.36212,29.19765)"/>
<use xlink:href="#font_2_4" transform="matrix(9.9626,0,0,-9.9626,150.13796,26.707)"/>
<use xlink:href="#font_2_2" transform="matrix(9.9626,0,0,-9.9626,154.80045,29.19765)"/>
<use xlink:href="#font_2_2" transform="matrix(9.9626,0,0,-9.9626,158.6759,29.19765)"/>
<use xlink:href="#font_2_8" transform="matrix(9.9626,0,0,-9.9626,249.4352,25.381976)"/>
<use xlink:href="#font_2_9" transform="matrix(9.9626,0,0,-9.9626,259.72654,26.707)"/>
<use xlink:href="#font_2_a" transform="matrix(9.9626,0,0,-9.9626,262.48619,26.707)"/>
<use xlink:href="#font_2_1" transform="matrix(9.9626,0,0,-9.9626,268.69288,29.19765)"/>
<use xlink:href="#font_2_6" transform="matrix(9.9626,0,0,-9.9626,272.00047,26.926178)"/>
<use xlink:href="#font_2_2" transform="matrix(9.9626,0,0,-9.9626,277.1312,29.19765)"/>
<use xlink:href="#font_0_1" transform="matrix(9.9626,0,0,-9.9626,3.9120649,41.76059)"/>
<symbol id="font_1_3">
<path d="M .219 .35400004 C .29700003 .35400004 .35300002 .3 .35300002 .193 C .35300002 .069000009 .28100003 .032 .223 .032 C .18300002 .032 .095 .043000007 .053000008 .102000009 C .10000001 .10400001 .111 .13700001 .111 .158 C .111 .19 .087 .213 .056000007 .213 C .028 .213 0 .19600001 0 .155 C 0 .061000006 .104 0 .22500001 0 C .36400003 0 .46 .09300001 .46 .193 C .46 .27100004 .39600004 .34900005 .286 .37200005 C .39100004 .41000004 .42900003 .48500005 .42900003 .546 C .42900003 .625 .33800004 .684 .22700002 .684 C .116 .684 .031 .63 .031 .55 C .031 .51600006 .053000008 .49700005 .083000008 .49700005 C .11400001 .49700005 .134 .52 .134 .548 C .134 .577 .11400001 .598 .083000008 .6 C .118 .644 .187 .65500006 .22400002 .65500006 C .26900003 .65500006 .33200003 .633 .33200003 .546 C .33200003 .504 .31800003 .45800004 .29200004 .42700003 C .25900004 .38900004 .23100002 .38700003 .18100001 .38400004 C .156 .38200004 .154 .38200004 .149 .38100005 C .147 .38100005 .139 .37900005 .139 .36800004 C .139 .35400004 .148 .35400004 .165 .35400004 L .219 .35400004 Z "/>
</symbol>
<use xlink:href="#font_1_3" transform="matrix(6.9738,0,0,-6.9738,8.440595,43.284479)"/>
<symbol id="font_2_7">
<path d="M .266 .165 L .266 .078 C .266 .042000005 .26400004 .031000002 .19000001 .031000002 L .16900002 .031000002 L .16900002 0 C .21000001 .003 .26200003 .003 .30400003 .003 C .34600003 .003 .39900003 .003 .44000004 0 L .44000004 .031000002 L .41900004 .031000002 C .34500004 .031000002 .34300003 .042000005 .34300003 .078 L .34300003 .165 L .44300003 .165 L .44300003 .19600001 L .34300003 .19600001 L .34300003 .651 C .34300003 .671 .34300003 .67700007 .32700003 .67700007 C .31800003 .67700007 .31500004 .67700007 .307 .665 L 0 .19600001 L 0 .165 L .266 .165 M .272 .19600001 L .028 .19600001 L .272 .569 L .272 .19600001 Z "/>
</symbol>
<use xlink:href="#font_2_8" transform="matrix(9.9626,0,0,-9.9626,15.858914,40.325975)"/>
<use xlink:href="#font_2_1" transform="matrix(9.9626,0,0,-9.9626,26.807812,44.14165)"/>
<use xlink:href="#font_2_9" transform="matrix(9.9626,0,0,-9.9626,30.025734,41.651)"/>
<use xlink:href="#font_2_a" transform="matrix(9.9626,0,0,-9.9626,32.78537,41.651)"/>
<use xlink:href="#font_2_1" transform="matrix(9.9626,0,0,-9.9626,38.992074,44.14165)"/>
<use xlink:href="#font_2_7" transform="matrix(9.9626,0,0,-9.9626,42.16018,41.651)"/>
<use xlink:href="#font_2_2" transform="matrix(9.9626,0,0,-9.9626,47.430395,44.14165)"/>
<use xlink:href="#font_3_1" transform="matrix(9.9626,0,0,-9.9626,53.764905,39.359605)"/>
<use xlink:href="#font_2_9" transform="matrix(9.9626,0,0,-9.9626,63.22877,41.651)"/>
<use xlink:href="#font_2_a" transform="matrix(9.9626,0,0,-9.9626,65.98841,41.651)"/>
<use xlink:href="#font_2_1" transform="matrix(9.9626,0,0,-9.9626,72.195117,44.14165)"/>
<use xlink:href="#font_2_6" transform="matrix(9.9626,0,0,-9.9626,75.50269,41.87018)"/>
<use xlink:href="#font_2_2" transform="matrix(9.9626,0,0,-9.9626,80.63344,44.14165)"/>
<use xlink:href="#font_2_2" transform="matrix(9.9626,0,0,-9.9626,84.50889,44.14165)"/>
<use xlink:href="#font_2_3" transform="matrix(9.9626,0,0,-9.9626,90.586078,42.477899)"/>
<use xlink:href="#font_2_1" transform="matrix(9.9626,0,0,-9.9626,100.977069,44.14165)"/>
<use xlink:href="#font_2_9" transform="matrix(9.9626,0,0,-9.9626,104.194988,41.651)"/>
<use xlink:href="#font_2_a" transform="matrix(9.9626,0,0,-9.9626,106.95462,41.651)"/>
<use xlink:href="#font_2_1" transform="matrix(9.9626,0,0,-9.9626,113.16132,44.14165)"/>
<use xlink:href="#font_2_6" transform="matrix(9.9626,0,0,-9.9626,116.4689,41.87018)"/>
<use xlink:href="#font_2_2" transform="matrix(9.9626,0,0,-9.9626,121.59965,44.14165)"/>
<use xlink:href="#font_3_1" transform="matrix(9.9626,0,0,-9.9626,127.93091,39.359605)"/>
<use xlink:href="#font_2_9" transform="matrix(9.9626,0,0,-9.9626,137.39579,41.651)"/>
<use xlink:href="#font_2_a" transform="matrix(9.9626,0,0,-9.9626,140.15543,41.651)"/>
<use xlink:href="#font_2_1" transform="matrix(9.9626,0,0,-9.9626,146.36212,44.14165)"/>
<use xlink:href="#font_2_5" transform="matrix(9.9626,0,0,-9.9626,149.7494,41.651)"/>
<use xlink:href="#font_2_2" transform="matrix(9.9626,0,0,-9.9626,154.80045,44.14165)"/>
<use xlink:href="#font_2_2" transform="matrix(9.9626,0,0,-9.9626,158.6759,44.14165)"/>
<use xlink:href="#font_2_3" transform="matrix(9.9626,0,0,-9.9626,164.7531,42.477899)"/>
<use xlink:href="#font_2_1" transform="matrix(9.9626,0,0,-9.9626,175.14409,44.14165)"/>
<use xlink:href="#font_2_9" transform="matrix(9.9626,0,0,-9.9626,178.36202,41.651)"/>
<use xlink:href="#font_2_a" transform="matrix(9.9626,0,0,-9.9626,181.12166,41.651)"/>
<use xlink:href="#font_2_1" transform="matrix(9.9626,0,0,-9.9626,187.32836,44.14165)"/>
<use xlink:href="#font_2_5" transform="matrix(9.9626,0,0,-9.9626,190.71564,41.651)"/>
<use xlink:href="#font_2_2" transform="matrix(9.9626,0,0,-9.9626,195.76668,44.14165)"/>
<use xlink:href="#font_3_1" transform="matrix(9.9626,0,0,-9.9626,202.09691,39.359605)"/>
<use xlink:href="#font_2_9" transform="matrix(9.9626,0,0,-9.9626,211.56179,41.651)"/>
<use xlink:href="#font_2_a" transform="matrix(9.9626,0,0,-9.9626,214.32143,41.651)"/>
<use xlink:href="#font_2_1" transform="matrix(9.9626,0,0,-9.9626,220.52812,44.14165)"/>
<use xlink:href="#font_2_4" transform="matrix(9.9626,0,0,-9.9626,224.30396,41.651)"/>
<use xlink:href="#font_2_2" transform="matrix(9.9626,0,0,-9.9626,228.96645,44.14165)"/>
<use xlink:href="#font_2_2" transform="matrix(9.9626,0,0,-9.9626,232.8419,44.14165)"/>
<use xlink:href="#font_2_8" transform="matrix(9.9626,0,0,-9.9626,249.4396,40.325975)"/>
<use xlink:href="#font_2_9" transform="matrix(9.9626,0,0,-9.9626,259.721,41.651)"/>
<use xlink:href="#font_2_a" transform="matrix(9.9626,0,0,-9.9626,262.48066,41.651)"/>
<use xlink:href="#font_2_1" transform="matrix(9.9626,0,0,-9.9626,268.68736,44.14165)"/>
<use xlink:href="#font_2_7" transform="matrix(9.9626,0,0,-9.9626,271.85548,41.651)"/>
<use xlink:href="#font_2_2" transform="matrix(9.9626,0,0,-9.9626,277.12568,44.14165)"/>
</svg>
