<?xml version="1.0" encoding="UTF-8" standalone="no"?>
<!DOCTYPE svg PUBLIC "-//W3C//DTD SVG 1.1//EN" "http://www.w3.org/Graphics/SVG/1.1/DTD/svg11.dtd">
<svg xmlns="http://www.w3.org/2000/svg" xmlns:xlink="http://www.w3.org/1999/xlink" version="1.1" width="191.907pt" height="73.912pt" viewBox="0 0 191.907 73.912">
<symbol id="font_0_1">
<path d="M .501 .284 C .448 .34600003 .43199999 .363 .394 .39000003 C .333 .43400003 .269 .451 .214 .451 C .09 .451 0 .345 0 .22500001 C 0 .108 .085999999 0 .21100001 0 C .35000003 0 .44700004 .114 .48299999 .16700001 C .536 .105000007 .552 .088 .59000006 .061000006 C .651 .017 .71500006 0 .77000007 0 C .89400008 0 .9840001 .106 .9840001 .22600001 C .9840001 .343 .898 .451 .773 .451 C .634 .451 .537 .337 .501 .284 M .533 .24700003 C .573 .312 .66 .41300003 .782 .41300003 C .88500007 .41300003 .956 .322 .956 .22600001 C .956 .13000001 .878 .055000005 .786 .055000005 C .693 .055000005 .629 .13100001 .533 .24700003 M .45099999 .20400001 C .411 .13900002 .324 .038000004 .202 .038000004 C .09900001 .038000004 .027999998 .12900001 .027999998 .22500001 C .027999998 .321 .106000009 .396 .198 .396 C .291 .396 .35500003 .32 .45099999 .20400001 Z "/>
</symbol>
<use xlink:href="#font_0_1" transform="matrix(6.9738,0,0,-6.9738,26.940989,18.28374)"/>
<symbol id="font_1_1">
<path d="M 1.21 0 L 1.3310001 .32000006 L 1.3060001 .32000006 C 1.2670001 .21600008 1.161 .148 1.046 .11800003 C 1.0250001 .113000039 .92700007 .08700001 .735 .08700001 L .132 .08700001 L .64100006 .6840001 C .64800009 .6920001 .65000006 .69500008 .65000006 .70000007 C .65000006 .7020001 .65000006 .70500007 .64300009 .71500006 L .17700002 1.3520001 L .725 1.3520001 C .859 1.3520001 .95000007 1.338 .9590001 1.3360001 C 1.013 1.3280001 1.1 1.3110001 1.179 1.261 C 1.2040001 1.2450001 1.2720001 1.2 1.3060001 1.1190001 L 1.3310001 1.1190001 L 1.21 1.4000001 L .028000005 1.4000001 C .0050000029 1.4000001 .0040000008 1.399 .001000002 1.3930001 C 0 1.3900001 0 1.371 0 1.3600001 L .52900007 .63600006 L .011 .029000044 C .001000002 .01700008 .001000002 .012000084 .001000002 .011000037 C .001000002 0 .009999998 0 .028000005 0 L 1.21 0 Z "/>
</symbol>
<use xlink:href="#font_1_1" transform="matrix(9.9626,0,0,-9.9626,23.737912,35.14964)"/>
<symbol id="font_2_1">
<path d="M .23800002 .674 C .23900001 .676 .242 .689 .242 .69 C .242 .69500008 .23800002 .704 .22600003 .704 C .20600002 .704 .12300001 .69600006 .098000008 .694 C .09 .693 .076000008 .69200006 .076000008 .671 C .076000008 .657 .09 .657 .102 .657 C .15 .657 .15 .65000006 .15 .642 C .15 .635 .148 .629 .14600002 .62 L .0050000029 .054000006 C 0 .036000004 0 .034 0 .032 C 0 .017 .012000002 0 .034 0 C .061000006 0 .074 .020000002 .08 .042000005 C .082 .046000005 .125 .22200002 .12900001 .23600002 C .2 .22900002 .25700004 .20600002 .25700004 .15400002 C .25700004 .14900002 .25700004 .14400001 .255 .134 C .251 .119 .251 .114 .251 .103 C .251 .032 .30900003 0 .357 0 C .45400007 0 .48400004 .15200001 .48400004 .15300001 C .48400004 .16600001 .47100003 .16600001 .46800006 .16600001 C .45400007 .16600001 .453 .16100002 .448 .142 C .43600006 .099 .40900005 .028 .36 .028 C .333 .028 .325 .053000004 .325 .08 C .325 .097 .325 .099 .33100004 .125 C .33200003 .128 .33600004 .14500001 .33600004 .15600002 C .33600004 .24500002 .216 .259 .17400001 .262 C .20300003 .28 .24000003 .313 .25700004 .328 C .30800004 .37600003 .35800005 .423 .41400004 .423 C .42600007 .423 .439 .42000003 .44700004 .41 C .40400005 .403 .39500005 .36900003 .39500005 .354 C .39500005 .33200003 .412 .317 .43500007 .317 C .462 .317 .49200005 .33900003 .49200005 .381 C .49200005 .414 .46800006 .451 .41500003 .451 C .35800005 .451 .306 .41 .255 .363 C .21300002 .323 .18000002 .292 .13900002 .275 L .23800002 .674 Z "/>
</symbol>
<use xlink:href="#font_2_1" transform="matrix(6.9738,0,0,-6.9738,23.653042,42.719739)"/>
<symbol id="font_3_6">
<path d="M .698 .22000003 C .71300008 .22000003 .73600009 .22000003 .73600009 .24500004 C .73600009 .26900003 .7120001 .26900003 .69900009 .26900003 L .037000009 .26900003 C .024000004 .26900003 0 .26900003 0 .24500004 C 0 .22000003 .023000002 .22000003 .038000004 .22000003 L .698 .22000003 M .69900009 0 C .7120001 0 .73600009 0 .73600009 .023999997 C .73600009 .049000004 .71300008 .049000004 .698 .049000004 L .038000004 .049000004 C .023000002 .049000004 0 .049000004 0 .023999997 C 0 0 .024000004 0 .037000009 0 L .69900009 0 Z "/>
</symbol>
<symbol id="font_3_1">
<path d="M .22600001 .63600006 C .22600001 .66300007 .224 .66400006 .19600001 .66400006 C .132 .601 .041 .6 0 .6 L 0 .564 C .023999997 .564 .09000001 .564 .14500001 .592 L .14500001 .082 C .14500001 .049000004 .14500001 .036000004 .04500001 .036000004 L .0069999995 .036000004 L .0069999995 0 C .024999999 .001 .148 .004 .185 .004 C .21600002 .004 .34200005 .001 .36400003 0 L .36400003 .036000004 L .32600004 .036000004 C .22600001 .036000004 .22600001 .049000004 .22600001 .082 L .22600001 .63600006 Z "/>
</symbol>
<use xlink:href="#font_3_6" transform="matrix(6.9738,0,0,-6.9738,28.021174,41.84104)"/>
<use xlink:href="#font_3_1" transform="matrix(6.9738,0,0,-6.9738,34.409177,42.65)"/>
<symbol id="font_4_2">
<path d="M .33300004 .38900004 C .31500004 .42600004 .286 .45300005 .24100001 .45300005 C .124 .45300005 0 .30600003 0 .16000001 C 0 .06600001 .055000005 0 .133 0 C .153 0 .20300001 .0040000008 .263 .075 C .27100004 .033000005 .30600003 0 .35400004 0 C .38900004 0 .41200004 .023000002 .42800004 .055000005 C .44500003 .091000009 .45800004 .15200001 .45800004 .15400002 C .45800004 .16400002 .44900004 .16400002 .44600005 .16400002 C .43600003 .16400002 .43500004 .16000001 .43200005 .14600002 C .41500003 .081 .397 .022000002 .35600005 .022000002 C .32900004 .022000002 .32600004 .048 .32600004 .068 C .32600004 .09 .32800005 .098000008 .33900003 .14200002 C .35000003 .18400002 .35200004 .19400002 .36100004 .23200003 L .397 .37200005 C .40400005 .40000005 .40400005 .40200005 .40400005 .40600003 C .40400005 .42300005 .39200003 .43300004 .37500004 .43300004 C .35100005 .43300004 .33600004 .411 .33300004 .38900004 M .26800005 .13000001 C .263 .112 .263 .11000001 .24800001 .093 C .20400001 .038000004 .163 .022000002 .135 .022000002 C .08499999 .022000002 .07100001 .077 .07100001 .116000007 C .07100001 .16600001 .103 .28900004 .126 .335 C .157 .39400003 .202 .43100003 .242 .43100003 C .307 .43100003 .32100005 .34900005 .32100005 .34300003 C .32100005 .337 .31900005 .33100004 .31800003 .32600004 L .26800005 .13000001 Z "/>
</symbol>
<use xlink:href="#font_4_2" transform="matrix(9.9626,0,0,-9.9626,39.67951,30.776589)"/>
<use xlink:href="#font_2_1" transform="matrix(6.9738,0,0,-6.9738,45.070039,32.230737)"/>
<symbol id="font_1_4">
<path d="M .484 .09200001 C .484 .115 .484 .120000008 .47 .120000008 C .409 .12100001 .31 .12900001 .22000002 .17300001 C .112 .22700002 .071 .29000003 .046000005 .32900004 C .043 .33400003 .037 .33400003 .024 .33400003 C .0009999983 .33400003 0 .333 0 .30800004 L 0 .29200004 C .136 .047000003 .361 0 .463 0 C .484 0 .484 .001 .484 .028 L .484 .09200001 Z "/>
</symbol>
<use xlink:href="#font_1_4" transform="matrix(9.9626,0,0,-9.9626,22.890904,47.829999)"/>
<path transform="matrix(1,0,0,-1,27.613007,47.83)" d="M 0 0 L 4.193 0 L 4.193 1.195 L 0 1.195 Z "/>
<symbol id="font_1_3">
<path d="M .48400004 .04200001 C .34800003 .28700004 .123 .33400003 .021000002 .33400003 C 0 .33400003 0 .333 0 .30600003 L 0 .24200002 C 0 .21900001 0 .21400002 .014 .21400002 C .075 .21300002 .17400001 .20500002 .264 .16100002 C .372 .10700001 .41300003 .044000016 .43800003 .00500001 C .441 0 .447 0 .46 0 C .483 0 .48400004 .001000002 .48400004 .026000008 L .48400004 .04200001 Z "/>
</symbol>
<symbol id="font_1_2">
<path d="M .484 .30600003 C .484 .333 .484 .33400003 .463 .33400003 C .361 .33400003 .136 .286 0 .04200001 L 0 .026000008 C 0 .001000002 .0009999983 0 .024 0 C .043 0 .044 .001000002 .049000004 .008000001 C .13100001 .13900002 .269 .21000003 .472 .21400002 C .484 .21400002 .484 .22100002 .484 .24200002 L .484 .30600003 Z "/>
</symbol>
<use xlink:href="#font_1_3" transform="matrix(9.9626,0,0,-9.9626,31.706379,49.961999)"/>
<use xlink:href="#font_1_2" transform="matrix(9.9626,0,0,-9.9626,36.050077,49.961999)"/>
<path transform="matrix(1,0,0,-1,40.773004,47.83)" d="M 0 0 L 4.193 0 L 4.193 1.195 L 0 1.195 Z "/>
<symbol id="font_1_5">
<path d="M .48400004 .30800004 C .48400004 .333 .483 .33400003 .46 .33400003 C .441 .33400003 .44 .333 .435 .326 C .35300002 .19500001 .21500002 .124000009 .012000001 .120000008 C 0 .120000008 0 .113000009 0 .09200001 L 0 .028 C 0 .001 0 0 .021000002 0 C .123 0 .34800003 .048 .48400004 .29200004 L .48400004 .30800004 Z "/>
</symbol>
<use xlink:href="#font_1_5" transform="matrix(9.9626,0,0,-9.9626,44.86638,47.83)"/>
<symbol id="font_5_2">
<path d="M .63100007 .19400002 C .646 .19400002 .665 .19400002 .665 .214 C .665 .23400001 .646 .23400001 .632 .23400001 L .033 .23400001 C .019000002 .23400001 0 .23400001 0 .214 C 0 .19400002 .019000002 .19400002 .034 .19400002 L .63100007 .19400002 M .632 0 C .646 0 .665 0 .665 .02000001 C .665 .040000008 .646 .040000008 .63100007 .040000008 L .034 .040000008 C .019000002 .040000008 0 .040000008 0 .02000001 C 0 0 .019000002 0 .033 0 L .632 0 Z "/>
</symbol>
<use xlink:href="#font_5_2" transform="matrix(9.9626,0,0,-9.9626,52.77391,29.341975)"/>
<use xlink:href="#font_1_2" transform="matrix(9.9626,0,0,-9.9626,62.4929,23.998997)"/>
<path transform="matrix(1,0,0,-1,67.21601,21.867005)" d="M 0 0 L 17.813 0 L 17.813 1.195 L 0 1.195 Z "/>
<use xlink:href="#font_1_5" transform="matrix(9.9626,0,0,-9.9626,84.92938,21.867005)"/>
<use xlink:href="#font_1_4" transform="matrix(9.9626,0,0,-9.9626,89.27307,21.867005)"/>
<path transform="matrix(1,0,0,-1,93.99501,21.867005)" d="M 0 0 L 17.813 0 L 17.813 1.195 L 0 1.195 Z "/>
<use xlink:href="#font_1_3" transform="matrix(9.9626,0,0,-9.9626,111.70938,23.999)"/>
<use xlink:href="#font_4_2" transform="matrix(9.9626,0,0,-9.9626,63.130506,30.776593)"/>
<use xlink:href="#font_3_1" transform="matrix(6.9738,0,0,-6.9738,68.758159,32.161005)"/>
<symbol id="font_5_1">
<path d="M .35300002 .31300003 L .632 .31300003 C .646 .31300003 .665 .31300003 .665 .333 C .665 .35300002 .646 .35300002 .632 .35300002 L .35300002 .35300002 L .35300002 .633 C .35300002 .647 .35300002 .666 .33300004 .666 C .31300003 .666 .31300003 .647 .31300003 .633 L .31300003 .35300002 L .033 .35300002 C .019000002 .35300002 0 .35300002 0 .333 C 0 .31300003 .019000002 .31300003 .033 .31300003 L .31300003 .31300003 L .31300003 .033000005 C .31300003 .019000002 .31300003 0 .33300004 0 C .35300002 0 .35300002 .019000002 .35300002 .033000005 L .35300002 .31300003 Z "/>
</symbol>
<use xlink:href="#font_5_1" transform="matrix(9.9626,0,0,-9.9626,75.239917,31.4939)"/>
<use xlink:href="#font_4_2" transform="matrix(9.9626,0,0,-9.9626,85.04251,30.776593)"/>
<symbol id="font_3_2">
<path d="M .442 .18200001 L .40800003 .18200001 C .40500004 .16000001 .39500005 .101 .38200004 .091000009 C .374 .085 .29700003 .085 .28300003 .085 L .099 .085 C .20400003 .178 .23900002 .20600002 .29900003 .25300003 C .37300004 .312 .442 .374 .442 .469 C .442 .59000006 .33600004 .66400006 .20800004 .66400006 C .084 .66400006 0 .577 0 .485 C 0 .43400003 .043000007 .42900003 .053000004 .42900003 C .077 .42900003 .10600001 .446 .10600001 .48200003 C .10600001 .5 .099 .535 .047000007 .535 C .078 .606 .146 .628 .19300002 .628 C .293 .628 .34500004 .55 .34500004 .469 C .34500004 .38200004 .28300003 .31300003 .25100003 .277 L .010000005 .039 C 0 .030000002 0 .028 0 0 L .41200004 0 L .442 .18200001 Z "/>
</symbol>
<use xlink:href="#font_3_2" transform="matrix(6.9738,0,0,-6.9738,90.34935,32.161005)"/>
<use xlink:href="#font_5_1" transform="matrix(9.9626,0,0,-9.9626,97.15191,31.4939)"/>
<use xlink:href="#font_4_2" transform="matrix(9.9626,0,0,-9.9626,106.954509,30.776593)"/>
<symbol id="font_3_3">
<path d="M .219 .35400004 C .29700003 .35400004 .35300002 .3 .35300002 .193 C .35300002 .069000009 .28100003 .032 .223 .032 C .18300002 .032 .095 .043000007 .053000008 .102000009 C .10000001 .10400001 .111 .13700001 .111 .158 C .111 .19 .087 .213 .056000007 .213 C .028 .213 0 .19600001 0 .155 C 0 .061000006 .104 0 .22500001 0 C .36400003 0 .46 .09300001 .46 .193 C .46 .27100004 .39600004 .34900005 .286 .37200005 C .39100004 .41000004 .42900003 .48500005 .42900003 .546 C .42900003 .625 .33800004 .684 .22700002 .684 C .116 .684 .031 .63 .031 .55 C .031 .51600006 .053000008 .49700005 .083000008 .49700005 C .11400001 .49700005 .134 .52 .134 .548 C .134 .577 .11400001 .598 .083000008 .6 C .118 .644 .187 .65500006 .22400002 .65500006 C .26900003 .65500006 .33200003 .633 .33200003 .546 C .33200003 .504 .31800003 .45800004 .29200004 .42700003 C .25900004 .38900004 .23100002 .38700003 .18100001 .38400004 C .156 .38200004 .154 .38200004 .149 .38100005 C .147 .38100005 .139 .37900005 .139 .36800004 C .139 .35400004 .148 .35400004 .165 .35400004 L .219 .35400004 Z "/>
</symbol>
<use xlink:href="#font_3_3" transform="matrix(6.9738,0,0,-6.9738,112.198589,32.30048)"/>
<use xlink:href="#font_5_1" transform="matrix(9.9626,0,0,-9.9626,118.5099,31.4939)"/>
<use xlink:href="#font_4_2" transform="matrix(9.9626,0,0,-9.9626,127.75951,30.776593)"/>
<symbol id="font_3_4">
<path d="M .49000005 .164 L .49000005 .2 L .379 .2 L .379 .646 C .379 .66700008 .379 .674 .35700003 .674 C .345 .674 .34100003 .674 .331 .66 L 0 .2 L 0 .164 L .294 .164 L .294 .082 C .294 .048 .294 .036000004 .213 .036000004 L .186 .036000004 L .186 0 C .236 .002 .3 .004 .33600004 .004 C .37300004 .004 .437 .002 .48700003 0 L .48700003 .036000004 L .46 .036000004 C .379 .036000004 .379 .048 .379 .082 L .379 .164 L .49000005 .164 M .301 .56600007 L .301 .2 L .037000006 .2 L .301 .56600007 Z "/>
</symbol>
<use xlink:href="#font_3_4" transform="matrix(6.9738,0,0,-6.9738,132.89897,32.161005)"/>
<use xlink:href="#font_5_1" transform="matrix(9.9626,0,0,-9.9626,139.86891,31.4939)"/>
<use xlink:href="#font_4_2" transform="matrix(9.9626,0,0,-9.9626,149.67151,30.776593)"/>
<symbol id="font_3_5">
<path d="M .092 .578 C .143 .565 .17300001 .565 .18900001 .565 C .321 .565 .39900003 .65500006 .39900003 .67 C .39900003 .681 .39200003 .684 .38700003 .684 C .38500003 .684 .38300003 .684 .37900005 .681 C .35500003 .672 .30200003 .652 .22800002 .652 C .20000002 .652 .14700002 .654 .08200001 .679 C .072000008 .684 .07 .684 .069 .684 C .056 .684 .056 .67300006 .056 .657 L .056 .36200003 C .056 .34500004 .056 .33300004 .072000008 .33300004 C .08100001 .33300004 .08200001 .33500005 .092 .34700004 C .13500002 .40200005 .19600001 .41000004 .231 .41000004 C .291 .41000004 .31800003 .36200003 .323 .35400004 C .34100003 .32100005 .34700004 .28300003 .34700004 .22500001 C .34700004 .19500001 .34700004 .136 .31700004 .09200001 C .29200004 .056 .24900002 .032 .20000002 .032 C .13500002 .032 .06800001 .068 .043000007 .134 C .08100001 .13100001 .1 .156 .1 .183 C .1 .22600001 .063 .23400001 .050000006 .23400001 C .048000009 .23400001 0 .23400001 0 .18 C 0 .09 .08200001 0 .20200002 0 C .33 0 .442 .095000009 .442 .221 C .442 .33400003 .35600005 .43800003 .23200003 .43800003 C .18800003 .43800003 .136 .42700003 .092 .38900004 L .092 .578 Z "/>
</symbol>
<use xlink:href="#font_3_5" transform="matrix(6.9738,0,0,-6.9738,154.97837,32.30048)"/>
<use xlink:href="#font_5_1" transform="matrix(9.9626,0,0,-9.9626,161.78093,31.4939)"/>
<symbol id="font_4_1">
<path d="M .106 .053000004 C .106 .082 .08200001 .106000009 .05300001 .106000009 C .024000004 .106000009 0 .082 0 .053000004 C 0 .024 .024000004 0 .05300001 0 C .08200001 0 .106 .024 .106 .053000004 Z "/>
</symbol>
<use xlink:href="#font_4_1" transform="matrix(9.9626,0,0,-9.9626,172.04181,30.667004)"/>
<use xlink:href="#font_4_1" transform="matrix(9.9626,0,0,-9.9626,176.47518,30.667004)"/>
<use xlink:href="#font_4_1" transform="matrix(9.9626,0,0,-9.9626,180.89858,30.667004)"/>
<use xlink:href="#font_1_4" transform="matrix(9.9626,0,0,-9.9626,127.121929,36.346006)"/>
<path transform="matrix(1,0,0,-1,131.845,36.346)" d="M 0 0 L 18.757 0 L 18.757 1.195 L 0 1.195 Z "/>
<use xlink:href="#font_1_3" transform="matrix(9.9626,0,0,-9.9626,150.50238,38.477998)"/>
<use xlink:href="#font_1_2" transform="matrix(9.9626,0,0,-9.9626,154.84607,38.477998)"/>
<path transform="matrix(1,0,0,-1,159.568,36.346)" d="M 0 0 L 18.757 0 L 18.757 1.195 L 0 1.195 Z "/>
<use xlink:href="#font_1_5" transform="matrix(9.9626,0,0,-9.9626,178.22537,36.346)"/>
<symbol id="font_6_3">
<path d="M .38300003 .611 C .39000006 .64000007 .397 .643 .40600003 .64400008 C .41300006 .646 .44200004 .646 .46000005 .646 C .55600008 .646 .591 .638 .591 .57000008 C .591 .544 .58400008 .49800004 .58300009 .49 C .5820001 .485 .57900008 .469 .57900008 .46500004 C .57900008 .45200003 .59300008 .45200003 .5960001 .45200003 C .60800006 .45200003 .61200007 .45400004 .61500009 .47300003 L .64300009 .651 C .64300009 .65300008 .64500007 .66200008 .64500007 .66300007 C .64500007 .67700007 .63500007 .67700007 .61800006 .67700007 L .09400003 .67700007 C .073 .67700007 .07000001 .67700007 .06400001 .65900006 L .004000008 .47900004 C .004000008 .47800002 0 .46600003 0 .46500004 C 0 .45200003 .012000009 .45200003 .016000003 .45200003 C .02000001 .45200003 .025000006 .45200003 .028000012 .455 C .031000004 .45700003 .031000004 .45900003 .040000008 .483 C .09000002 .62600007 .115000028 .646 .24900003 .646 C .268 .646 .291 .646 .30700005 .643 C .30700005 .632 .30700005 .63000008 .30300004 .615 L .16900002 .07700001 C .16000001 .042000005 .15300001 .031000002 .06300001 .031000002 L .04900001 .031000002 C .033000009 .031000002 .02000001 .031000002 .02000001 .013 C .02000001 0 .03400001 0 .037000017 0 C .087 0 .14 .003 .19100003 .003 C .24200003 .003 .296 0 .34600003 0 C .35400004 0 .36700005 0 .36700005 .018000002 C .36700005 .031000002 .35700006 .031000002 .34100003 .031000002 L .32600004 .031000002 C .31100006 .031000002 .291 .032 .27600003 .033 C .25300003 .036000004 .24500002 .037 .24500002 .053000004 C .24500002 .057000005 .24500002 .059000005 .24900003 .07300001 L .38300003 .611 Z "/>
</symbol>
<symbol id="font_6_8">
<path d="M .229 .67300006 C .23200003 .68700006 .23300001 .688 .23300001 .691 C .23300001 .704 .224 .70600005 .20700002 .704 L .103 .695 C .088 .694 .07800001 .693 .07800001 .676 C .07800001 .663 .088 .663 .105000007 .663 C .15200001 .663 .15200001 .65500006 .15200001 .646 C .15200001 .645 .15200001 .639 .148 .624 L .0040000008 .048 C 0 .034 0 .032 0 .028 C 0 .013000001 .011 0 .030000002 0 C .061000006 0 .067 .025000003 .074 .055000005 C .085999999 .098000008 .085999999 .1 .096 .14100002 C .10700001 .18400002 .120000008 .23600002 .128 .27100004 C .139 .31200005 .15900001 .35000003 .18900001 .38000003 C .204 .395 .23700002 .42800004 .291 .42800004 C .32900004 .42800004 .33800004 .395 .33800004 .36300005 C .33800004 .305 .29500003 .18700002 .278 .14200002 C .266 .109000008 .264 .10300001 .264 .082 C .264 .028 .30200003 0 .34300003 0 C .438 0 .475 .14700002 .475 .15400002 C .475 .16600001 .46200005 .16600001 .45800004 .16600001 C .44400005 .16600001 .44300006 .16300002 .437 .14200002 C .42700003 .106000009 .39900003 .025000003 .34500004 .025000003 C .337 .025000003 .324 .026 .324 .053000004 C .324 .077 .33600004 .109000008 .344 .13100001 C .36200003 .17900002 .40300004 .29000003 .40300004 .34700004 C .40300004 .41400004 .363 .45300005 .293 .45300005 C .238 .45300005 .194 .42800004 .15900001 .39100004 L .229 .67300006 Z "/>
</symbol>
<symbol id="font_6_9">
<path d="M .24800003 .634 C .24800003 .65000006 .236 .667 .215 .667 C .19100002 .667 .16700001 .646 .16700001 .621 C .16700001 .593 .19000003 .587 .201 .587 C .22600001 .587 .24800003 .61 .24800003 .634 M .26000003 .15400002 C .26000003 .16600001 .24700001 .16600001 .243 .16600001 C .229 .16600001 .22800002 .16300002 .222 .14200002 C .21200001 .106000009 .18400002 .025000003 .13000001 .025000003 C .12200001 .025000003 .10900001 .026 .10900001 .053000004 C .10900001 .07000001 .11500001 .093 .12600002 .124000009 C .14000002 .16100002 .14000002 .16300002 .157 .20500002 L .19100002 .29900003 C .20000002 .32200004 .21100003 .35200004 .21100003 .37100003 C .21100003 .42000003 .17700002 .45300005 .13200002 .45300005 C .037000009 .45300005 0 .30800004 0 .29900003 C 0 .28700004 .012000002 .28700004 .017000005 .28700004 C .031000004 .28700004 .032000007 .29200004 .036000007 .30400003 C .043000007 .33 .07000001 .42800004 .12900001 .42800004 C .13900002 .42800004 .15 .42600004 .15 .40000005 C .15 .37600003 .143 .35600005 .12600002 .30900003 L .091000009 .21600002 C .08500001 .19800002 .069000009 .15600002 .066 .14700002 C .058000015 .126 .04900001 .102000009 .04900001 .082 C .04900001 .028 .08700001 0 .128 0 C .22300002 0 .26000003 .14700002 .26000003 .15400002 Z "/>
</symbol>
<symbol id="font_6_10">
<path d="M .316 .381 C .279 .374 .279 .34300003 .279 .34100003 C .279 .33200003 .28500004 .31300003 .30900003 .31300003 C .331 .31300003 .35200004 .33 .35200004 .367 C .35200004 .41200004 .312 .45300005 .24000001 .45300005 C .12300001 .45300005 .078999999 .36 .078999999 .305 C .078999999 .22700002 .14600002 .21300002 .176 .20600002 C .22300002 .19600001 .268 .18600002 .268 .134 C .268 .105000007 .24400002 .025000003 .135 .025000003 C .109 .025000003 .053000004 .032 .037 .079 C .08400001 .08400001 .08400001 .12500002 .08400001 .126 C .08400001 .15300001 .061000006 .15900001 .049999998 .15900001 C .044 .15900001 0 .15600002 0 .097 C 0 .041 .053000004 0 .135 0 C .28800003 0 .32700003 .12200001 .32700003 .16700001 C .32700003 .19500003 .317 .22100002 .29700003 .24200002 C .271 .268 .248 .27300004 .20300001 .28200004 C .17300001 .28900004 .13700001 .29600004 .13700001 .33900003 C .13700001 .35700003 .15300001 .42800004 .24000001 .42800004 C .27 .42800004 .30600003 .41600005 .316 .381 Z "/>
</symbol>
<symbol id="font_6_11">
<path d="M .17400001 .411 L .26 .411 C .277 .411 .288 .411 .288 .42900003 C .288 .44200004 .278 .44200004 .26200003 .44200004 L .182 .44200004 L .219 .589 C .223 .603 .223 .605 .223 .609 C .223 .626 .21000003 .637 .19400002 .637 C .16700001 .637 .156 .615 .15200001 .598 L .113000009 .44200004 L .027999998 .44200004 C .011 .44200004 0 .44200004 0 .42400003 C 0 .411 .009999998 .411 .026 .411 L .105000007 .411 L .033999996 .12500002 C .033999996 .124000009 .029 .106000009 .029 .091000009 C .029 .046 .060000004 0 .119 0 C .22000002 0 .27500005 .14500001 .27500005 .15500002 C .27500005 .16600001 .26200003 .16600001 .259 .16600001 C .246 .16600001 .24500002 .16300002 .23900001 .14900002 C .21100001 .079 .16900002 .025000003 .12100001 .025000003 C .11 .025000003 .09300001 .027000003 .09300001 .06600001 C .09300001 .075 .096 .097 .100999999 .117000009 L .17400001 .411 Z "/>
</symbol>
<symbol id="font_6_6">
<path d="M .116000007 .24000003 C .19100002 .24000003 .24300003 .24800003 .279 .26200003 C .34900005 .29000003 .35800005 .34600003 .35800005 .367 C .35800005 .41200004 .32000003 .45300005 .25200004 .45300005 C .15 .45300005 0 .35900004 0 .17800002 C 0 .06600001 .063 0 .148 0 C .24000001 0 .32800005 .05 .36600004 .112 C .36200003 .12500002 .35300002 .13100001 .34700004 .13100001 C .34200005 .13100001 .34000004 .12900001 .33300004 .120000008 C .27600003 .047000003 .19500003 .025000003 .14900002 .025000003 C .08100001 .025000003 .071 .101 .071 .136 C .071 .14400001 .071 .17600002 .087000008 .24000003 L .116000007 .24000003 M .093 .26500003 C .13900003 .42500005 .238 .42800004 .25200004 .42800004 C .29600004 .42800004 .31700004 .39800004 .31700004 .36800004 C .31700004 .26500003 .15800002 .26500003 .093 .26500003 Z "/>
</symbol>
<symbol id="font_6_f">
<path d="M .18200001 .298 C .18400002 .305 .22800002 .42800004 .31500004 .42800004 C .321 .42800004 .349 .42800004 .37000004 .41300003 C .34000004 .40300004 .335 .37900005 .335 .367 C .335 .34700004 .35000003 .335 .36900003 .335 C .395 .335 .418 .35700003 .418 .388 C .418 .43000005 .37100003 .45300005 .31700004 .45300005 C .25700004 .45300005 .21700001 .41700004 .19300002 .38300003 C .18200001 .42800004 .14700002 .45300005 .106000009 .45300005 C .073000017 .45300005 .048000009 .43300004 .030000009 .395 C .014000006 .36 0 .30400003 0 .3 C 0 .28700004 .011000007 .28700004 .017000005 .28700004 C .032000007 .28700004 .032000007 .291 .037000009 .31100003 C .05700001 .39100004 .076000008 .42800004 .104 .42800004 C .120000008 .42800004 .13000001 .41900004 .13000001 .388 C .13000001 .367 .12400001 .34100003 .12300001 .337 L .051 .049000004 C .047000007 .035 .047000007 .033000005 .047000007 .028 C .047000007 .010000001 .061000006 0 .076000008 0 C .09 0 .10900001 .0060000007 .11700001 .037 L .18200001 .298 Z "/>
</symbol>
<use xlink:href="#font_6_3" transform="matrix(8.9664,0,0,-8.9664,121.05905,55.473005)"/>
<use xlink:href="#font_6_8" transform="matrix(8.9664,0,0,-8.9664,126.74375,55.571634)"/>
<use xlink:href="#font_6_9" transform="matrix(8.9664,0,0,-8.9664,131.49594,55.571634)"/>
<use xlink:href="#font_6_10" transform="matrix(8.9664,0,0,-8.9664,134.27553,55.571634)"/>
<use xlink:href="#font_6_9" transform="matrix(8.9664,0,0,-8.9664,141.3769,55.571634)"/>
<use xlink:href="#font_6_10" transform="matrix(8.9664,0,0,-8.9664,144.1565,55.571634)"/>
<use xlink:href="#font_6_11" transform="matrix(8.9664,0,0,-8.9664,151.35652,55.571634)"/>
<use xlink:href="#font_6_8" transform="matrix(8.9664,0,0,-8.9664,154.27956,55.571634)"/>
<use xlink:href="#font_6_6" transform="matrix(8.9664,0,0,-8.9664,159.33661,55.571634)"/>
<use xlink:href="#font_6_10" transform="matrix(8.9664,0,0,-8.9664,166.50974,55.571634)"/>
<use xlink:href="#font_6_6" transform="matrix(8.9664,0,0,-8.9664,170.63428,55.571634)"/>
<use xlink:href="#font_6_f" transform="matrix(8.9664,0,0,-8.9664,174.5526,55.571634)"/>
<use xlink:href="#font_6_9" transform="matrix(8.9664,0,0,-8.9664,178.43505,55.571634)"/>
<use xlink:href="#font_6_6" transform="matrix(8.9664,0,0,-8.9664,181.57329,55.571634)"/>
<use xlink:href="#font_6_10" transform="matrix(8.9664,0,0,-8.9664,185.44678,55.571634)"/>
<symbol id="font_6_12">
<path d="M .30800004 .18600002 C .307 .18100001 .3 .15300001 .3 .128 C .3 .108 .29200004 .08800001 .273 .061 C .256 .037 .23700002 .025000003 .215 .025000003 C .143 .025000003 .143 .095000009 .143 .112 C .143 .15700002 .158 .20800002 .19700003 .31500004 C .20700002 .34100003 .21100003 .351 .21100003 .37100003 C .21100003 .42000003 .17700002 .45300005 .13200002 .45300005 C .037000009 .45300005 0 .30800004 0 .29900003 C 0 .28700004 .012000002 .28700004 .017000005 .28700004 C .031000004 .28700004 .032000007 .29200004 .036000007 .30400003 C .043000007 .33 .07000001 .42800004 .12900001 .42800004 C .13900002 .42800004 .15 .42600004 .15 .40000005 C .15 .37500004 .13900002 .34500004 .13200002 .32600004 C .08700001 .20500002 .07700001 .16500002 .07700001 .12500002 C .07700001 .018000002 .164 0 .21200001 0 C .252 0 .28500004 .020000002 .31100003 .063 C .33800004 .008000001 .397 0 .428 0 C .505 0 .5450001 .068 .564 .11400001 C .595 .18600002 .6320001 .328 .6320001 .38400004 C .6320001 .44000004 .605 .45300005 .589 .45300005 C .5680001 .45300005 .541 .43200005 .541 .40700004 C .541 .397 .543 .39200003 .551 .38300003 C .56200006 .37000004 .5810001 .34800003 .5810001 .30100004 C .5810001 .26200003 .548 .15100001 .533 .117000009 C .51900008 .085 .49000005 .025000003 .43100003 .025000003 C .36800004 .025000003 .365 .086 .365 .108 C .365 .13700001 .372 .16500002 .379 .19200002 L .418 .34800003 C .423 .37000004 .433 .40800003 .433 .41400004 C .433 .43200005 .419 .44200004 .404 .44200004 C .388 .44200004 .37000004 .43400003 .36300005 .40500004 L .30800004 .18600002 Z "/>
</symbol>
<symbol id="font_6_4">
<path d="M .38500003 .38500003 C .389 .39900003 .389 .40100003 .389 .40500004 C .389 .42200003 .37600003 .43300004 .36 .43300004 C .347 .43300004 .32500003 .42500005 .319 .397 C .30900003 .41700004 .283 .45300005 .23300001 .45300005 C .121 .45300005 0 .30800004 0 .15700002 C 0 .055000005 .059000009 0 .125 0 C .185 0 .229 .048 .248 .069000009 C .259 .025000003 .294 0 .335 0 C .381 0 .402 .040000004 .41000004 .057000005 C .42800004 .094000007 .44099999 .15100001 .44099999 .15400002 C .44099999 .16600001 .42800004 .16600001 .42400003 .16600001 C .40900005 .16600001 .408 .16200002 .40399999 .143 C .387 .077 .36900003 .025000003 .336 .025000003 C .317 .025000003 .31 .041 .31 .06600001 C .31 .075 .313 .097 .31800003 .117000009 L .38500003 .38500003 M .254 .136 C .245 .102000009 .18200001 .025000003 .12799999 .025000003 C .07300001 .025000003 .07 .09900001 .07 .11400001 C .07 .16500002 .1 .275 .115 .31300003 C .141 .37600003 .18900001 .42800004 .23300001 .42800004 C .294 .42800004 .303 .344 .303 .337 C .303 .33200003 .303 .33100004 .3 .321 L .254 .136 Z "/>
</symbol>
<symbol id="font_6_c">
<path d="M .051 .049000004 C .047000007 .035 .047000007 .033000005 .047000007 .028 C .047000007 .010000001 .061000006 0 .076000008 0 C .10800001 0 .113000009 .020000002 .12600002 .075 C .13100001 .094000007 .14500001 .14700002 .14800002 .16100002 C .15600002 .19400002 .17400003 .26400004 .18 .291 C .18400002 .30400003 .21200001 .35600005 .236 .38000003 C .25100003 .395 .284 .42800004 .33800004 .42800004 C .37600003 .42800004 .38500003 .395 .38500003 .36300005 C .38500003 .305 .342 .18700002 .32500003 .14200002 C .31300003 .109000008 .31100003 .10300001 .31100003 .082 C .31100003 .028 .349 0 .39000003 0 C .48500005 0 .5220001 .14700002 .5220001 .15400002 C .5220001 .16600001 .50900009 .16600001 .505 .16600001 C .49100004 .16600001 .49000005 .16300002 .484 .14200002 C .474 .106000009 .446 .025000003 .39200003 .025000003 C .38400004 .025000003 .37100003 .026 .37100003 .053000004 C .37100003 .077 .38300003 .109000008 .39100004 .13100001 C .409 .17900002 .45000003 .29000003 .45000003 .34700004 C .45000003 .41400004 .41000004 .45300005 .34000004 .45300005 C .268 .45300005 .22000003 .40900005 .194 .37700004 C .185 .42700003 .14800002 .45300005 .106000009 .45300005 C .073000017 .45300005 .048000009 .43300004 .030000009 .395 C .014000006 .36 0 .30400003 0 .3 C 0 .28700004 .011000007 .28700004 .017000005 .28700004 C .032000007 .28700004 .032000007 .291 .037000009 .31100003 C .05700001 .39100004 .076000008 .42800004 .104 .42800004 C .120000008 .42800004 .13000001 .41900004 .13000001 .388 C .13000001 .367 .12400001 .34100003 .12300001 .337 L .051 .049000004 Z "/>
</symbol>
<symbol id="font_6_d">
<path d="M .41000004 .286 C .41000004 .381 .35000003 .45300005 .25800003 .45300005 C .13100001 .45300005 0 .31200005 0 .16600001 C 0 .07300001 .058000007 0 .15200001 0 C .282 0 .41000004 .14500001 .41000004 .286 M .15200001 .025000003 C .117000009 .025000003 .07300001 .049000004 .07300001 .13000001 C .07300001 .16900002 .093 .27400003 .132 .33900003 C .16500002 .39600004 .21600002 .42800004 .25800003 .42800004 C .30200003 .42800004 .337 .39200003 .337 .32400004 C .337 .28900004 .31800003 .17500001 .273 .106000009 C .24100003 .057000005 .194 .025000003 .15200001 .025000003 Z "/>
</symbol>
<symbol id="font_6_1">
<path d="M .30800004 .605 L .509 .605 L .43800003 .319 C .43800003 .31800003 .43300004 .3 .43300004 .28500004 C .43300004 .23700002 .46700005 .194 .522 .194 C .568 .194 .589 .23400001 .597 .25100003 C .615 .28800003 .628 .34500004 .628 .34800003 C .628 .36 .615 .36 .611 .36 C .596 .36 .595 .356 .591 .337 C .574 .27100004 .556 .21900001 .523 .21900001 C .504 .21900001 .49700005 .23500002 .49700005 .26000003 C .49700005 .26900003 .5 .291 .505 .31100003 L .58 .61100009 C .58100005 .61700007 .583 .62100008 .583 .6240001 C .583 .63600006 .574 .63600006 .558 .63600006 L .314 .63600006 C .32500003 .6980001 .33800004 .77700009 .35700003 .82000008 C .37700004 .86800006 .42100004 .885 .48800005 .885 C .5 .885 .56 .885 .59 .86 C .583 .85800006 .551 .8460001 .551 .81200006 C .551 .791 .566 .7800001 .585 .7800001 C .605 .7800001 .634 .796 .634 .8360001 C .634 .9100001 .515 .9100001 .485 .9100001 C .411 .9100001 .29600004 .90200009 .264 .73600009 L .24500002 .63600006 L .17700002 .63600006 C .16000001 .63600006 .149 .63600006 .149 .61800006 C .149 .605 .16000001 .605 .17600002 .605 L .23900002 .605 L .16700001 .231 C .15600002 .17200002 .15600002 .17000002 .13900002 .10500001 C .13100001 .07800001 .118 .025000006 .083000008 .025000006 C .080000009 .025000006 .058 .025000006 .044 .04100001 C .080000009 .051 .083000008 .08200001 .083000008 .08800001 C .083000008 .10800001 .067 .12000001 .049000004 .12000001 C .027 .12000001 0 .10300001 0 .066 C 0 .024000004 .04 0 .083000008 0 C .17500001 0 .22100002 .15100001 .24600002 .282 L .30800004 .605 Z "/>
</symbol>
<symbol id="font_6_5">
<path d="M .45700003 .67300006 C .46000005 .686 .46100004 .688 .46100004 .691 C .46100004 .704 .45200003 .70600005 .435 .704 L .331 .695 C .316 .694 .306 .693 .306 .676 C .306 .663 .316 .663 .333 .663 C .38 .663 .38 .65500006 .38 .646 C .38 .64 .38 .638 .37600003 .624 L .319 .397 C .30900003 .41700004 .283 .45300005 .23300001 .45300005 C .121 .45300005 0 .30800004 0 .15700002 C 0 .055000005 .059000009 0 .125 0 C .185 0 .229 .048 .248 .069000009 C .259 .025000003 .294 0 .335 0 C .381 0 .402 .040000004 .41000004 .057000005 C .42800004 .094000007 .44099999 .15100001 .44099999 .15400002 C .44099999 .16600001 .42800004 .16600001 .42400003 .16600001 C .40900005 .16600001 .408 .16200002 .40399999 .143 C .387 .077 .36900003 .025000003 .336 .025000003 C .317 .025000003 .31 .041 .31 .06600001 C .31 .075 .313 .097 .31800003 .117000009 L .45700003 .67300006 M .254 .136 C .245 .102000009 .18200001 .025000003 .12799999 .025000003 C .07300001 .025000003 .07 .09900001 .07 .11400001 C .07 .16500002 .1 .275 .115 .31300003 C .141 .37600003 .18900001 .42800004 .23300001 .42800004 C .294 .42800004 .303 .344 .303 .337 C .303 .33200003 .303 .33100004 .3 .321 L .254 .136 Z "/>
</symbol>
<symbol id="font_6_2">
<path d="M .11100001 .064 C .11100001 .087000008 .094000007 .108 .06600001 .108 C .030000009 .108 0 .074 0 .044000005 C 0 .021000002 .016999998 0 .04500001 0 C .08100001 0 .11100001 .034 .11100001 .064 Z "/>
</symbol>
<use xlink:href="#font_6_12" transform="matrix(8.9664,0,0,-8.9664,122.257289,63.203634)"/>
<use xlink:href="#font_6_6" transform="matrix(8.9664,0,0,-8.9664,128.68619,63.203634)"/>
<use xlink:href="#font_6_12" transform="matrix(8.9664,0,0,-8.9664,135.89516,63.203634)"/>
<use xlink:href="#font_6_4" transform="matrix(8.9664,0,0,-8.9664,142.27027,63.203634)"/>
<use xlink:href="#font_6_c" transform="matrix(8.9664,0,0,-8.9664,146.7176,63.203634)"/>
<use xlink:href="#font_6_11" transform="matrix(8.9664,0,0,-8.9664,151.9809,63.203634)"/>
<use xlink:href="#font_6_11" transform="matrix(8.9664,0,0,-8.9664,158.33808,63.203634)"/>
<use xlink:href="#font_6_d" transform="matrix(8.9664,0,0,-8.9664,161.56598,63.203634)"/>
<use xlink:href="#font_6_1" transform="matrix(8.9664,0,0,-8.9664,168.35353,64.943119)"/>
<use xlink:href="#font_6_c" transform="matrix(8.9664,0,0,-8.9664,174.47759,63.203634)"/>
<use xlink:href="#font_6_5" transform="matrix(8.9664,0,0,-8.9664,179.91123,63.203634)"/>
<use xlink:href="#font_6_2" transform="matrix(8.9664,0,0,-8.9664,184.66344,63.105005)"/>
<use xlink:href="#font_6_3" transform="matrix(8.9664,0,0,-8.9664,4.9810578,60.270006)"/>
<use xlink:href="#font_6_8" transform="matrix(8.9664,0,0,-8.9664,10.665755,60.368635)"/>
<use xlink:href="#font_6_9" transform="matrix(8.9664,0,0,-8.9664,15.417948,60.368635)"/>
<use xlink:href="#font_6_10" transform="matrix(8.9664,0,0,-8.9664,18.197533,60.368635)"/>
<use xlink:href="#font_6_9" transform="matrix(8.9664,0,0,-8.9664,25.298922,60.368635)"/>
<use xlink:href="#font_6_10" transform="matrix(8.9664,0,0,-8.9664,28.078507,60.368635)"/>
<symbol id="font_7_1">
<path d="M .43300004 .34200005 C .43300004 .40900005 .43000005 .49500004 .39500005 .57000008 C .35100005 .66400006 .27500005 .688 .217 .688 C .157 .688 .081 .66400006 .037000006 .568 C .004999999 .49900005 0 .41800005 0 .34200005 C 0 .27700005 .0020000004 .18 .044999999 .101 C .09199999 .016000003 .17 0 .216 0 C .28100003 0 .35500003 .028 .397 .120000008 C .42700003 .187 .43300004 .26200003 .43300004 .34200005 M .217 .025000003 C .187 .025000003 .114999998 .039000006 .096 .15200001 C .085999999 .21100001 .085999999 .29700003 .085999999 .35400004 C .085999999 .42200003 .085999999 .50100007 .098000008 .55600008 C .118 .64500007 .18200001 .66300007 .216 .66300007 C .254 .66300007 .31700004 .64300009 .33600004 .55 C .34700004 .49500004 .34700004 .41700004 .34700004 .35400004 C .34700004 .29200004 .34700004 .208 .337 .149 C .316 .035000005 .242 .025000003 .217 .025000003 Z "/>
</symbol>
<use xlink:href="#font_7_1" transform="matrix(8.9664,0,0,-8.9664,34.80366,60.467267)"/>
<symbol id="font_6_7">
<path d="M .30800004 .605 L .39200003 .605 C .409 .605 .42000003 .605 .42000003 .623 C .42000003 .63600006 .409 .63600006 .39300005 .63600006 L .314 .63600006 C .33300004 .742 .34100003 .77900007 .344 .794 C .35400004 .839 .36400003 .885 .39900003 .885 C .40100003 .885 .42400003 .885 .44000004 .8690001 C .404 .8590001 .40100003 .82800009 .40100003 .822 C .40100003 .80200007 .41700004 .7900001 .43500004 .7900001 C .45700003 .7900001 .48400004 .80700007 .48400004 .8440001 C .48400004 .88900008 .43800003 .9100001 .39900003 .9100001 C .34800003 .9100001 .314 .86800006 .307 .85800006 C .28100003 .8230001 .26700003 .7520001 .26700003 .75100007 L .24500002 .63600006 L .17700002 .63600006 C .16000001 .63600006 .149 .63600006 .149 .61800006 C .149 .605 .16000001 .605 .17600002 .605 L .23900002 .605 L .16900002 .24100001 C .157 .17700002 .157 .17500001 .13900002 .106000009 C .13200002 .07900001 .118 .025000006 .083000008 .025000006 C .080000009 .025000006 .058 .025000006 .044 .04100001 C .080000009 .051 .083000008 .08200001 .083000008 .08800001 C .083000008 .10800001 .067 .12000001 .049000004 .12000001 C .027 .12000001 0 .10300001 0 .066 C 0 .022 .042000005 0 .082 0 C .17600002 0 .22000002 .15 .24500002 .27800004 L .30800004 .605 Z "/>
</symbol>
<symbol id="font_6_b">
<path d="M .314 .049000004 C .31000004 .035 .31000004 .033000005 .31000004 .028 C .31000004 .010000001 .32400004 0 .33900003 0 C .37100003 0 .37600003 .020000002 .38900004 .075 C .39400003 .094000007 .40800003 .14700002 .411 .16100002 C .419 .19400002 .437 .26400004 .44300006 .291 C .447 .30400003 .47500006 .35600005 .49900005 .38000003 C .51400008 .395 .54700008 .42800004 .6010001 .42800004 C .63900008 .42800004 .648 .395 .648 .36300005 C .648 .305 .605 .18700002 .58800008 .14200002 C .576 .109000008 .574 .10300001 .574 .082 C .574 .028 .612 0 .653 0 C .748 0 .7850001 .14700002 .7850001 .15400002 C .7850001 .16600001 .7720001 .16600001 .768 .16600001 C .75400009 .16600001 .753 .16300002 .7470001 .14200002 C .737 .106000009 .709 .025000003 .6550001 .025000003 C .6470001 .025000003 .63400009 .026 .63400009 .053000004 C .63400009 .077 .646 .109000008 .65400007 .13100001 C .67200008 .17900002 .71300008 .29000003 .71300008 .34700004 C .71300008 .41400004 .673 .45300005 .60300007 .45300005 C .53400006 .45300005 .48500005 .41500003 .45000003 .367 C .442 .42500005 .39900003 .45300005 .34100003 .45300005 C .286 .45300005 .236 .42900003 .194 .37600003 C .185 .42800004 .14700002 .45300005 .106000009 .45300005 C .073000017 .45300005 .048000009 .43300004 .030000009 .395 C .014000006 .36 0 .30400003 0 .3 C 0 .28700004 .011000007 .28700004 .017000005 .28700004 C .032000007 .28700004 .032000007 .291 .037000009 .31100003 C .05700001 .39100004 .076000008 .42800004 .104 .42800004 C .120000008 .42800004 .13000001 .41900004 .13000001 .388 C .13000001 .367 .12400001 .34100003 .12300001 .337 L .051 .049000004 C .047000007 .035 .047000007 .033000005 .047000007 .028 C .047000007 .010000001 .061000006 0 .076000008 0 C .10800001 0 .113000009 .020000002 .12600002 .075 C .13100001 .094000007 .14500001 .14700002 .14800002 .16100002 C .15600002 .19400002 .17400003 .26400004 .18 .291 C .18200001 .298 .20700002 .35300002 .24600002 .39000003 C .27400003 .41600005 .30800004 .42800004 .33800004 .42800004 C .36800004 .42800004 .386 .40800003 .386 .36200003 C .386 .344 .38000003 .314 .37700004 .30100004 L .314 .049000004 Z "/>
</symbol>
<use xlink:href="#font_6_7" transform="matrix(8.9664,0,0,-8.9664,42.121847,62.108118)"/>
<use xlink:href="#font_6_f" transform="matrix(8.9664,0,0,-8.9664,45.8967,60.368635)"/>
<use xlink:href="#font_6_d" transform="matrix(8.9664,0,0,-8.9664,49.58189,60.368635)"/>
<use xlink:href="#font_6_b" transform="matrix(8.9664,0,0,-8.9664,54.02026,60.368635)"/>
<symbol id="font_6_a">
<path d="M .211 .67300006 C .21400002 .686 .215 .688 .215 .691 C .215 .704 .206 .70600005 .18900001 .704 L .085 .695 C .07 .694 .06000001 .693 .06000001 .676 C .06000001 .663 .07 .663 .087000008 .663 C .134 .663 .134 .65500006 .134 .646 C .134 .645 .134 .639 .13 .624 L .0050000029 .12500002 C .0050000029 .124000009 0 .106000009 0 .091000009 C 0 .043 .034 0 .08900001 0 C .134 0 .15400002 .037 .16299999 .056 C .181 .092 .194 .15100001 .194 .15400002 C .194 .16600001 .181 .16600001 .17700002 .16600001 C .162 .16600001 .16100002 .16200002 .157 .143 C .134 .051000004 .115 .025000003 .09000001 .025000003 C .071 .025000003 .064 .041 .064 .06600001 C .064 .075 .06700001 .097 .072000008 .117000009 L .211 .67300006 Z "/>
</symbol>
<symbol id="font_6_e">
<path d="M .075 .067 C .067 .034999998 .060000004 .031000004 .021 .031000004 C .012 .031000004 0 .031000004 0 .012999997 C 0 .008000001 .0020000004 0 .013 0 C .039000006 0 .07 .0029999912 .098000008 .0029999912 C .131 .0029999912 .165 0 .19600001 0 C .201 0 .214 0 .214 .017999992 C .214 .031000004 .20300001 .031000004 .187 .031000004 C .14 .031000004 .14 .038000004 .14 .047000007 C .14 .058 .18200001 .21800001 .187 .238 C .208 .2 .238 .183 .273 .183 C .38700003 .183 .50600007 .33200003 .50600007 .47800002 C .50600007 .57500007 .45200003 .63600006 .38000003 .63600006 C .32700003 .63600006 .289 .59900006 .257 .568 C .243 .623 .199 .63600006 .171 .63600006 C .13800001 .63600006 .113000009 .61600008 .095000009 .578 C .079 .543 .065 .48700003 .065 .483 C .065 .47000004 .076000008 .47000004 .082 .47000004 C .097 .47000004 .097 .474 .102000009 .49400003 C .12200001 .574 .141 .61100009 .169 .61100009 C .185 .61100009 .19500001 .602 .19500001 .571 C .19500001 .55 .18900001 .52400007 .18800001 .52 L .075 .067 M .252 .499 C .26000003 .52900007 .28100003 .55200007 .303 .573 C .335 .60400006 .363 .61100009 .37800003 .61100009 C .43300004 .61100009 .43600003 .535 .43600003 .522 C .43600003 .47000004 .40500004 .35400004 .38500003 .31 C .36 .256 .31500004 .208 .273 .208 C .25100003 .208 .234 .21900001 .22100002 .24000001 C .20600002 .264 .20300001 .298 .20300001 .3 C .20300001 .30200003 .20400001 .31 .20500002 .31300003 L .252 .499 Z "/>
</symbol>
<use xlink:href="#font_6_11" transform="matrix(8.9664,0,0,-8.9664,7.336946,68.872638)"/>
<use xlink:href="#font_6_8" transform="matrix(8.9664,0,0,-8.9664,10.259993,68.872638)"/>
<use xlink:href="#font_6_6" transform="matrix(8.9664,0,0,-8.9664,15.32601,68.872638)"/>
<use xlink:href="#font_6_a" transform="matrix(8.9664,0,0,-8.9664,22.651558,68.872638)"/>
<use xlink:href="#font_6_4" transform="matrix(8.9664,0,0,-8.9664,25.144217,68.872638)"/>
<use xlink:href="#font_6_10" transform="matrix(8.9664,0,0,-8.9664,29.546719,68.872638)"/>
<use xlink:href="#font_6_11" transform="matrix(8.9664,0,0,-8.9664,33.4471,68.872638)"/>
<use xlink:href="#font_6_e" transform="matrix(8.9664,0,0,-8.9664,39.1318,70.51348)"/>
<use xlink:href="#font_6_4" transform="matrix(8.9664,0,0,-8.9664,44.206785,68.872638)"/>
<use xlink:href="#font_6_f" transform="matrix(8.9664,0,0,-8.9664,48.654119,68.872638)"/>
<use xlink:href="#font_6_11" transform="matrix(8.9664,0,0,-8.9664,52.62623,68.872638)"/>
<use xlink:href="#font_6_2" transform="matrix(8.9664,0,0,-8.9664,55.898965,68.774)"/>
<use xlink:href="#font_6_3" transform="matrix(8.9664,0,0,-8.9664,66.38905,9.621002)"/>
<use xlink:href="#font_6_8" transform="matrix(8.9664,0,0,-8.9664,72.07375,9.719632)"/>
<use xlink:href="#font_6_9" transform="matrix(8.9664,0,0,-8.9664,76.82594,9.719632)"/>
<use xlink:href="#font_6_10" transform="matrix(8.9664,0,0,-8.9664,79.60553,9.719632)"/>
<use xlink:href="#font_6_9" transform="matrix(8.9664,0,0,-8.9664,86.706928,9.719632)"/>
<use xlink:href="#font_6_10" transform="matrix(8.9664,0,0,-8.9664,89.48651,9.719632)"/>
<symbol id="font_8_1">
<path d="M .344 .38500003 C .301 .381 .29700003 .34700004 .29700003 .34000004 C .29700003 .323 .31 .31000004 .32900004 .31000004 C .35700003 .31000004 .37600003 .33300004 .37600003 .36600004 C .37600003 .41600005 .32700003 .45300005 .25300003 .45300005 C .119 .45300005 .081 .35300002 .081 .307 C .081 .26900003 .10000001 .24900002 .113000009 .23700002 C .133 .21800003 .16000001 .21200001 .19600001 .20500002 C .241 .19600001 .25100003 .19400002 .26900003 .18100001 C .28500004 .16900002 .294 .15300001 .294 .13200002 C .294 .106000009 .27 .025000003 .149 .025000003 C .126 .025000003 .056 .028 .034 .074 C .08400001 .074 .094 .11400001 .094 .128 C .094 .158 .067 .16400002 .056 .16400002 C .038000004 .16400002 0 .15000002 0 .098000008 C 0 .036000004 .063 0 .148 0 C .316 0 .35300002 .123 .35300002 .16600001 C .35300002 .20400001 .33200003 .22800002 .32000003 .24000003 C .294 .26700003 .26200003 .27300004 .227 .28000004 C .215 .28300003 .193 .28700004 .19000001 .28800003 C .157 .29500003 .139 .31500004 .139 .34000004 C .139 .351 .14600002 .38300003 .17400001 .40500004 C .20200002 .42700003 .24000001 .42800004 .25300003 .42800004 C .28800003 .42800004 .32900004 .41700004 .344 .38500003 Z "/>
</symbol>
<use xlink:href="#font_8_1" transform="matrix(8.9664,0,0,-8.9664,96.328227,9.719632)"/>
<symbol id="font_9_1">
<path d="M .231 .35300002 C .316 .35300002 .37300004 .296 .37300004 .194 C .37300004 .08400001 .307 .036000004 .23400003 .036000004 C .20700002 .036000004 .10400001 .042000005 .059000009 .10000001 C .09800001 .104 .114 .13000001 .114 .157 C .114 .191 .09000001 .214 .057000005 .214 C .030000002 .214 0 .19700001 0 .155 C 0 .056 .11000001 0 .23700002 0 C .38500003 0 .48400007 .095 .48400007 .194 C .48400007 .26700003 .42800004 .344 .30900003 .374 C .38800005 .4 .45200006 .46400003 .45200006 .54600009 C .45200006 .62600007 .35800005 .68600007 .23800004 .68600007 C .121000017 .68600007 .032000007 .632 .032000007 .5500001 C .032000007 .507 .065000008 .49500004 .085 .49500004 C .11100001 .49500004 .13800001 .513 .13800001 .54800006 C .13800001 .57900008 .116000007 .59700009 .08900001 .6010001 C .136 .65300008 .22700003 .65300008 .23600003 .65300008 C .28700004 .65300008 .35100005 .62900009 .35100005 .54600009 C .35100005 .49100004 .32000003 .395 .22000003 .38900004 C .20200002 .388 .17500001 .386 .16600001 .386 C .15600002 .38500003 .14500001 .384 .14500001 .36900003 C .14500001 .35300002 .15600002 .35300002 .17300001 .35300002 L .231 .35300002 Z "/>
</symbol>
<use xlink:href="#font_9_1" transform="matrix(5.9776,0,0,-5.9776,100.52259,10.74253)"/>
<use xlink:href="#font_6_2" transform="matrix(8.9664,0,0,-8.9664,105.32814,9.621002)"/>
</svg>
