<?xml version="1.0" encoding="UTF-8" standalone="no"?>
<!DOCTYPE svg PUBLIC "-//W3C//DTD SVG 1.1//EN" "http://www.w3.org/Graphics/SVG/1.1/DTD/svg11.dtd">
<svg xmlns="http://www.w3.org/2000/svg" xmlns:xlink="http://www.w3.org/1999/xlink" version="1.1" width="194.449pt" height="161.421pt" viewBox="0 0 194.449 161.421">
<clipPath id="cp0">
<path transform="matrix(1,0,0,-1,97.225,97.233)" d="M -97.22577 -32.0944 L -97.22577 65.13986 L 0 97.23428 L 97.22577 65.13986 L 97.22577 -32.0944 L 0 -64.18883 Z "/>
</clipPath>
<g clip-path="url(#cp0)">
<path transform="matrix(1,0,0,-1,97.225,97.233)" stroke-width="1" stroke-linecap="butt" stroke-miterlimit="10" stroke-linejoin="miter" fill="none" stroke="#b6dbff" d="M 0 22.3621 L -4.05104 17.31105 L 6.7517 9.84367 L 10.80275 15.79504 Z "/>
<path transform="matrix(1,0,0,-1,97.225,97.233)" stroke-width="1" stroke-linecap="butt" stroke-miterlimit="10" stroke-linejoin="miter" fill="none" stroke="#c2e0ff" d="M -4.05104 17.31105 L -8.1021 12.93523 L 2.70064 4.56755 L 6.7517 9.84367 Z "/>
<path transform="matrix(1,0,0,-1,97.225,97.233)" stroke-width="1" stroke-linecap="butt" stroke-miterlimit="10" stroke-linejoin="miter" fill="none" stroke="#cbe5ff" d="M -8.1021 12.93523 L -12.15317 9.23462 L -1.35042 -.03334 L 2.70064 4.56755 Z "/>
<path transform="matrix(1,0,0,-1,97.225,97.233)" stroke-width="1" stroke-linecap="butt" stroke-miterlimit="10" stroke-linejoin="miter" fill="none" stroke="#badcff" d="M 10.80275 15.79504 L 6.7517 9.84367 L 17.55444 7.17792 L 21.6055 14.02959 Z "/>
<path transform="matrix(1,0,0,-1,97.225,97.233)" stroke-width="1" stroke-linecap="butt" stroke-miterlimit="10" stroke-linejoin="miter" fill="none" stroke="#d2e9ff" d="M -12.15317 9.23462 L -16.20422 6.20927 L -5.40147 -3.959 L -1.35042 -.03334 Z "/>
<path transform="matrix(1,0,0,-1,97.225,97.233)" stroke-width="1" stroke-linecap="butt" stroke-miterlimit="10" stroke-linejoin="miter" fill="none" stroke="#c7e3ff" d="M 6.7517 9.84367 L 2.70064 4.56755 L 13.50339 1.00148 L 17.55444 7.17792 Z "/>
<path transform="matrix(1,0,0,-1,97.225,97.233)" stroke-width="1" stroke-linecap="butt" stroke-miterlimit="10" stroke-linejoin="miter" fill="none" stroke="#d7ebff" d="M -16.20422 6.20927 L -20.2553 3.85913 L -9.45253 -7.20944 L -5.40147 -3.959 Z "/>
<path transform="matrix(1,0,0,-1,97.225,97.233)" stroke-width="1" stroke-linecap="butt" stroke-miterlimit="10" stroke-linejoin="miter" fill="none" stroke="#d3e9ff" d="M 2.70064 4.56755 L -1.35042 -.03334 L 9.45233 -4.49973 L 13.50339 1.00148 Z "/>
<path transform="matrix(1,0,0,-1,97.225,97.233)" stroke-width="1" stroke-linecap="butt" stroke-miterlimit="10" stroke-linejoin="miter" fill="none" stroke="#dbedff" d="M -20.2553 3.85913 L -24.30635 2.18425 L -13.50359 -9.78464 L -9.45253 -7.20944 Z "/>
<path transform="matrix(1,0,0,-1,97.225,97.233)" stroke-width="1" stroke-linecap="butt" stroke-miterlimit="10" stroke-linejoin="miter" fill="none" stroke="#afd7ff" d="M 21.6055 14.02959 L 17.55444 7.17792 L 28.3572 9.31374 L 32.40825 17.06572 Z "/>
<path transform="matrix(1,0,0,-1,97.225,97.233)" stroke-width="1" stroke-linecap="butt" stroke-miterlimit="10" stroke-linejoin="miter" fill="none" stroke="#ddeeff" d="M -1.35042 -.03334 L -5.40147 -3.959 L 5.40128 -9.3257 L 9.45233 -4.49973 Z "/>
<path transform="matrix(1,0,0,-1,97.225,97.233)" stroke-width="1" stroke-linecap="butt" stroke-miterlimit="10" stroke-linejoin="miter" fill="none" stroke="#dceeff" d="M -24.30635 2.18425 L -28.3574 1.18457 L -17.55466 -11.6846 L -13.50359 -9.78464 Z "/>
<path transform="matrix(1,0,0,-1,97.225,97.233)" stroke-width="1" stroke-linecap="butt" stroke-miterlimit="10" stroke-linejoin="miter" fill="none" stroke="#bfdfff" d="M 17.55444 7.17792 L 13.50339 1.00148 L 24.30615 2.23701 L 28.3572 9.31374 Z "/>
<path transform="matrix(1,0,0,-1,97.225,97.233)" stroke-width="1" stroke-linecap="butt" stroke-miterlimit="10" stroke-linejoin="miter" fill="none" stroke="#e5f2ff" d="M -5.40147 -3.959 L -9.45253 -7.20944 L 1.3502 -13.47643 L 5.40128 -9.3257 Z "/>
<path transform="matrix(1,0,0,-1,97.225,97.233)" stroke-width="1" stroke-linecap="butt" stroke-miterlimit="10" stroke-linejoin="miter" fill="none" stroke="#dbedff" d="M -28.3574 1.18457 L -32.40846 .86017 L -21.60571 -12.90932 L -17.55466 -11.6846 Z "/>
<path transform="matrix(1,0,0,-1,97.225,97.233)" stroke-width="1" stroke-linecap="butt" stroke-miterlimit="10" stroke-linejoin="miter" fill="none" stroke="#cee6ff" d="M 13.50339 1.00148 L 9.45233 -4.49973 L 20.25508 -4.16452 L 24.30615 2.23701 Z "/>
<path transform="matrix(1,0,0,-1,97.225,97.233)" stroke-width="1" stroke-linecap="butt" stroke-miterlimit="10" stroke-linejoin="miter" fill="none" stroke="#ebf5ff" d="M -9.45253 -7.20944 L -13.50359 -9.78464 L -2.70084 -16.95193 L 1.3502 -13.47643 Z "/>
<path transform="matrix(1,0,0,-1,97.225,97.233)" stroke-width="1" stroke-linecap="butt" stroke-miterlimit="10" stroke-linejoin="miter" fill="none" stroke="#d9ecff" d="M -32.40846 .86017 L -36.45952 1.21097 L -25.65677 -13.45883 L -21.60571 -12.90932 Z "/>
<path transform="matrix(1,0,0,-1,97.225,97.233)" stroke-width="1" stroke-linecap="butt" stroke-miterlimit="10" stroke-linejoin="miter" fill="none" stroke="#96caff" d="M 32.40825 17.06572 L 28.3572 9.31374 L 39.15996 16.25114 L 43.21101 24.90343 Z "/>
<path transform="matrix(1,0,0,-1,97.225,97.233)" stroke-width="1" stroke-linecap="butt" stroke-miterlimit="10" stroke-linejoin="miter" fill="none" stroke="#daedff" d="M 9.45233 -4.49973 L 5.40128 -9.3257 L 16.20403 -9.89078 L 20.25508 -4.16452 Z "/>
<path transform="matrix(1,0,0,-1,97.225,97.233)" stroke-width="1" stroke-linecap="butt" stroke-miterlimit="10" stroke-linejoin="miter" fill="none" stroke="#eff7ff" d="M -13.50359 -9.78464 L -17.55466 -11.6846 L -6.7519 -19.75218 L -2.70084 -16.95193 Z "/>
<path transform="matrix(1,0,0,-1,97.225,97.233)" stroke-width="1" stroke-linecap="butt" stroke-miterlimit="10" stroke-linejoin="miter" fill="none" stroke="#d4eaff" d="M -36.45952 1.21097 L -40.51059 2.237 L -29.70784 -13.33308 L -25.65677 -13.45883 Z "/>
<path transform="matrix(1,0,0,-1,97.225,97.233)" stroke-width="1" stroke-linecap="butt" stroke-miterlimit="10" stroke-linejoin="miter" fill="none" stroke="#a9d4ff" d="M 28.3572 9.31374 L 24.30615 2.23701 L 35.1089 8.27412 L 39.15996 16.25114 Z "/>
<path transform="matrix(1,0,0,-1,97.225,97.233)" stroke-width="1" stroke-linecap="butt" stroke-miterlimit="10" stroke-linejoin="miter" fill="none" stroke="#e5f2ff" d="M 5.40128 -9.3257 L 1.3502 -13.47643 L 12.15295 -14.94182 L 16.20403 -9.89078 Z "/>
<path transform="matrix(1,0,0,-1,97.225,97.233)" stroke-width="1" stroke-linecap="butt" stroke-miterlimit="10" stroke-linejoin="miter" fill="none" stroke="#f1f8ff" d="M -17.55466 -11.6846 L -21.60571 -12.90932 L -10.80296 -21.87723 L -6.7519 -19.75218 Z "/>
<path transform="matrix(1,0,0,-1,97.225,97.233)" stroke-width="1" stroke-linecap="butt" stroke-miterlimit="10" stroke-linejoin="miter" fill="none" stroke="#cee6ff" d="M -40.51059 2.237 L -44.56165 3.93826 L -33.7589 -12.53214 L -29.70784 -13.33308 Z "/>
<path transform="matrix(1,0,0,-1,97.225,97.233)" stroke-width="1" stroke-linecap="butt" stroke-miterlimit="10" stroke-linejoin="miter" fill="none" stroke="#baddff" d="M 24.30615 2.23701 L 20.25508 -4.16452 L 31.05783 .97229 L 35.1089 8.27412 Z "/>
<path transform="matrix(1,0,0,-1,97.225,97.233)" stroke-width="1" stroke-linecap="butt" stroke-miterlimit="10" stroke-linejoin="miter" fill="none" stroke="#edf6ff" d="M 1.3502 -13.47643 L -2.70084 -16.95193 L 8.1019 -19.31763 L 12.15295 -14.94182 Z "/>
<path transform="matrix(1,0,0,-1,97.225,97.233)" stroke-width="1" stroke-linecap="butt" stroke-miterlimit="10" stroke-linejoin="miter" fill="none" stroke="#f1f8ff" d="M -21.60571 -12.90932 L -25.65677 -13.45883 L -14.85402 -23.32703 L -10.80296 -21.87723 Z "/>
<path transform="matrix(1,0,0,-1,97.225,97.233)" stroke-width="1" stroke-linecap="butt" stroke-miterlimit="10" stroke-linejoin="miter" fill="none" stroke="#6eb7ff" d="M 43.21101 24.90343 L 39.15996 16.25114 L 49.9627 27.99017 L 54.01376 37.54276 Z "/>
<path transform="matrix(1,0,0,-1,97.225,97.233)" stroke-width="1" stroke-linecap="butt" stroke-miterlimit="10" stroke-linejoin="miter" fill="none" stroke="#c9e4ff" d="M 20.25508 -4.16452 L 16.20403 -9.89078 L 27.00677 -5.65428 L 31.05783 .97229 Z "/>
<path transform="matrix(1,0,0,-1,97.225,97.233)" stroke-width="1" stroke-linecap="butt" stroke-miterlimit="10" stroke-linejoin="miter" fill="none" stroke="#c5e2ff" d="M -44.56165 3.93826 L -48.61272 6.31479 L -37.80995 -11.05592 L -33.7589 -12.53214 Z "/>
<path transform="matrix(1,0,0,-1,97.225,97.233)" stroke-width="1" stroke-linecap="butt" stroke-miterlimit="10" stroke-linejoin="miter" fill="none" stroke="#f4f9ff" d="M -2.70084 -16.95193 L -6.7519 -19.75218 L 4.05083 -23.0182 L 8.1019 -19.31763 Z "/>
<path transform="matrix(1,0,0,-1,97.225,97.233)" stroke-width="1" stroke-linecap="butt" stroke-miterlimit="10" stroke-linejoin="miter" fill="none" stroke="#eff7ff" d="M -25.65677 -13.45883 L -29.70784 -13.33308 L -18.90508 -24.10161 L -14.85402 -23.32703 Z "/>
<path transform="matrix(1,0,0,-1,97.225,97.233)" stroke-width="1" stroke-linecap="butt" stroke-miterlimit="10" stroke-linejoin="miter" fill="none" stroke="#84c2ff" d="M 39.15996 16.25114 L 35.1089 8.27412 L 45.91165 19.11284 L 49.9627 27.99017 Z "/>
<path transform="matrix(1,0,0,-1,97.225,97.233)" stroke-width="1" stroke-linecap="butt" stroke-miterlimit="10" stroke-linejoin="miter" fill="none" stroke="#d6ebff" d="M 16.20403 -9.89078 L 12.15295 -14.94182 L 22.9557 -11.60562 L 27.00677 -5.65428 Z "/>
<path transform="matrix(1,0,0,-1,97.225,97.233)" stroke-width="1" stroke-linecap="butt" stroke-miterlimit="10" stroke-linejoin="miter" fill="none" stroke="#baddff" d="M -48.61272 6.31479 L -52.66377 9.36655 L -41.86101 -8.90448 L -37.80995 -11.05592 Z "/>
<path transform="matrix(1,0,0,-1,97.225,97.233)" stroke-width="1" stroke-linecap="butt" stroke-miterlimit="10" stroke-linejoin="miter" fill="none" stroke="#f8fcff" d="M -6.7519 -19.75218 L -10.80296 -21.87723 L -.0002 -26.04353 L 4.05083 -23.0182 Z "/>
<path transform="matrix(1,0,0,-1,97.225,97.233)" stroke-width="1" stroke-linecap="butt" stroke-miterlimit="10" stroke-linejoin="miter" fill="none" stroke="#ebf5ff" d="M -29.70784 -13.33308 L -33.7589 -12.53214 L -22.95613 -24.20094 L -18.90508 -24.10161 Z "/>
<path transform="matrix(1,0,0,-1,97.225,97.233)" stroke-width="1" stroke-linecap="butt" stroke-miterlimit="10" stroke-linejoin="miter" fill="none" stroke="#98ccff" d="M 35.1089 8.27412 L 31.05783 .97229 L 41.86058 10.91069 L 45.91165 19.11284 Z "/>
<path transform="matrix(1,0,0,-1,97.225,97.233)" stroke-width="1" stroke-linecap="butt" stroke-miterlimit="10" stroke-linejoin="miter" fill="none" stroke="#e1f0ff" d="M 12.15295 -14.94182 L 8.1019 -19.31763 L 18.90466 -16.88174 L 22.9557 -11.60562 Z "/>
<path transform="matrix(1,0,0,-1,97.225,97.233)" stroke-width="1" stroke-linecap="butt" stroke-miterlimit="10" stroke-linejoin="miter" fill="none" stroke="#aed7ff" d="M -52.66377 9.36655 L -56.71483 13.09349 L -45.91208 -6.07785 L -41.86101 -8.90448 Z "/>
<path transform="matrix(1,0,0,-1,97.225,97.233)" stroke-width="1" stroke-linecap="butt" stroke-miterlimit="10" stroke-linejoin="miter" fill="none" stroke="#fbfdff" d="M -10.80296 -21.87723 L -14.85402 -23.32703 L -4.05125 -28.39366 L -.0002 -26.04353 Z "/>
<path transform="matrix(1,0,0,-1,97.225,97.233)" stroke-width="1" stroke-linecap="butt" stroke-miterlimit="10" stroke-linejoin="miter" fill="none" stroke="#e5f2ff" d="M -33.7589 -12.53214 L -37.80995 -11.05592 L -27.0072 -23.62503 L -22.95613 -24.20094 Z "/>
<path transform="matrix(1,0,0,-1,97.225,97.233)" stroke-width="1" stroke-linecap="butt" stroke-miterlimit="10" stroke-linejoin="miter" fill="none" stroke="#399dff" d="M 54.01376 37.54276 L 49.9627 27.99017 L 60.76546 44.53076 L 64.81651 54.98366 Z "/>
<path transform="matrix(1,0,0,-1,97.225,97.233)" stroke-width="1" stroke-linecap="butt" stroke-miterlimit="10" stroke-linejoin="miter" fill="none" stroke="#aad5ff" d="M 31.05783 .97229 L 27.00677 -5.65428 L 37.80952 3.38382 L 41.86058 10.91069 Z "/>
<path transform="matrix(1,0,0,-1,97.225,97.233)" stroke-width="1" stroke-linecap="butt" stroke-miterlimit="10" stroke-linejoin="miter" fill="none" stroke="#ebf5ff" d="M 8.1019 -19.31763 L 4.05083 -23.0182 L 14.85359 -21.48262 L 18.90466 -16.88174 Z "/>
<path transform="matrix(1,0,0,-1,97.225,97.233)" stroke-width="1" stroke-linecap="butt" stroke-miterlimit="10" stroke-linejoin="miter" fill="none" stroke="#9fcfff" d="M -56.71483 13.09349 L -60.76588 17.4957 L -49.96313 -2.57594 L -45.91208 -6.07785 Z "/>
<path transform="matrix(1,0,0,-1,97.225,97.233)" stroke-width="1" stroke-linecap="butt" stroke-miterlimit="10" stroke-linejoin="miter" fill="none" stroke="#fcfdff" d="M -14.85402 -23.32703 L -18.90508 -24.10161 L -8.10233 -30.06853 L -4.05125 -28.39366 Z "/>
<path transform="matrix(1,0,0,-1,97.225,97.233)" stroke-width="1" stroke-linecap="butt" stroke-miterlimit="10" stroke-linejoin="miter" fill="none" stroke="#52a9ff" d="M 49.9627 27.99017 L 45.91165 19.11284 L 56.7144 34.75313 L 60.76546 44.53076 Z "/>
<path transform="matrix(1,0,0,-1,97.225,97.233)" stroke-width="1" stroke-linecap="butt" stroke-miterlimit="10" stroke-linejoin="miter" fill="none" stroke="#ddeeff" d="M -37.80995 -11.05592 L -41.86101 -8.90448 L -31.05826 -22.3739 L -27.0072 -23.62503 Z "/>
<path transform="matrix(1,0,0,-1,97.225,97.233)" stroke-width="1" stroke-linecap="butt" stroke-miterlimit="10" stroke-linejoin="miter" fill="none" stroke="#badcff" d="M 27.00677 -5.65428 L 22.9557 -11.60562 L 33.75847 -3.46782 L 37.80952 3.38382 Z "/>
<path transform="matrix(1,0,0,-1,97.225,97.233)" stroke-width="1" stroke-linecap="butt" stroke-miterlimit="10" stroke-linejoin="miter" fill="none" stroke="#f2f8ff" d="M 4.05083 -23.0182 L -.0002 -26.04353 L 10.80254 -25.40825 L 14.85359 -21.48262 Z "/>
<path transform="matrix(1,0,0,-1,97.225,97.233)" stroke-width="1" stroke-linecap="butt" stroke-miterlimit="10" stroke-linejoin="miter" fill="none" stroke="#8fc7ff" d="M -60.76588 17.4957 L -64.81696 22.57318 L -54.0142 1.60124 L -49.96313 -2.57594 Z "/>
<path transform="matrix(1,0,0,-1,97.225,97.233)" stroke-width="1" stroke-linecap="butt" stroke-miterlimit="10" stroke-linejoin="miter" fill="none" stroke="#fafdff" d="M -18.90508 -24.10161 L -22.95613 -24.20094 L -12.15338 -31.06819 L -8.10233 -30.06853 Z "/>
<path transform="matrix(1,0,0,-1,97.225,97.233)" stroke-width="1" stroke-linecap="butt" stroke-miterlimit="10" stroke-linejoin="miter" fill="none" stroke="#68b4ff" d="M 45.91165 19.11284 L 41.86058 10.91069 L 52.66335 25.65067 L 56.7144 34.75313 Z "/>
<path transform="matrix(1,0,0,-1,97.225,97.233)" stroke-width="1" stroke-linecap="butt" stroke-miterlimit="10" stroke-linejoin="miter" fill="none" stroke="#d3e9ff" d="M -41.86101 -8.90448 L -45.91208 -6.07785 L -35.10933 -20.44759 L -31.05826 -22.3739 Z "/>
<path transform="matrix(1,0,0,-1,97.225,97.233)" stroke-width="1" stroke-linecap="butt" stroke-miterlimit="10" stroke-linejoin="miter" fill="none" stroke="#c7e3ff" d="M 22.9557 -11.60562 L 18.90466 -16.88174 L 29.70741 -9.64426 L 33.75847 -3.46782 Z "/>
<path transform="matrix(1,0,0,-1,97.225,97.233)" stroke-width="1" stroke-linecap="butt" stroke-miterlimit="10" stroke-linejoin="miter" fill="none" stroke="#f7fbff" d="M -.0002 -26.04353 L -4.05125 -28.39366 L 6.75148 -28.65869 L 10.80254 -25.40825 Z "/>
<path transform="matrix(1,0,0,-1,97.225,97.233)" stroke-width="1" stroke-linecap="butt" stroke-miterlimit="10" stroke-linejoin="miter" fill="none" stroke="#7dbeff" d="M -64.81696 22.57318 L -68.86801 28.32582 L -58.06526 6.45358 L -54.0142 1.60124 Z "/>
<path transform="matrix(1,0,0,-1,97.225,97.233)" stroke-width="1" stroke-linecap="butt" stroke-miterlimit="10" stroke-linejoin="miter" fill="none" stroke="#f7fbff" d="M -22.95613 -24.20094 L -27.0072 -23.62503 L -16.20445 -31.39258 L -12.15338 -31.06819 Z "/>
<path transform="matrix(1,0,0,-1,97.225,97.233)" stroke-width="1" stroke-linecap="butt" stroke-miterlimit="10" stroke-linejoin="miter" fill="none" stroke="#0a7bff" d="M 64.81651 54.98366 L 60.76546 44.53076 L 71.56822 65.87296 L 75.61926 77.22615 Z "/>
<path transform="matrix(1,0,0,-1,97.225,97.233)" stroke-width="1" stroke-linecap="butt" stroke-miterlimit="10" stroke-linejoin="miter" fill="none" stroke="#7dbeff" d="M 41.86058 10.91069 L 37.80952 3.38382 L 48.61229 17.2235 L 52.66335 25.65067 Z "/>
<path transform="matrix(1,0,0,-1,97.225,97.233)" stroke-width="1" stroke-linecap="butt" stroke-miterlimit="10" stroke-linejoin="miter" fill="none" stroke="#d3e9ff" d="M 18.90466 -16.88174 L 14.85359 -21.48262 L 25.65634 -15.14543 L 29.70741 -9.64426 Z "/>
<path transform="matrix(1,0,0,-1,97.225,97.233)" stroke-width="1" stroke-linecap="butt" stroke-miterlimit="10" stroke-linejoin="miter" fill="none" stroke="#c7e3ff" d="M -45.91208 -6.07785 L -49.96313 -2.57594 L -39.16039 -17.846 L -35.10933 -20.44759 Z "/>
<path transform="matrix(1,0,0,-1,97.225,97.233)" stroke-width="1" stroke-linecap="butt" stroke-miterlimit="10" stroke-linejoin="miter" fill="none" stroke="#fafdff" d="M -4.05125 -28.39366 L -8.10233 -30.06853 L 2.70041 -31.23386 L 6.75148 -28.65869 Z "/>
<path transform="matrix(1,0,0,-1,97.225,97.233)" stroke-width="1" stroke-linecap="butt" stroke-miterlimit="10" stroke-linejoin="miter" fill="none" stroke="#68b4ff" d="M -68.86801 28.32582 L -72.91907 34.75371 L -62.1163 11.98116 L -58.06526 6.45358 Z "/>
<path transform="matrix(1,0,0,-1,97.225,97.233)" stroke-width="1" stroke-linecap="butt" stroke-miterlimit="10" stroke-linejoin="miter" fill="none" stroke="#f2f8ff" d="M -27.0072 -23.62503 L -31.05826 -22.3739 L -20.25551 -31.04175 L -16.20445 -31.39258 Z "/>
<path transform="matrix(1,0,0,-1,97.225,97.233)" stroke-width="1" stroke-linecap="butt" stroke-miterlimit="10" stroke-linejoin="miter" fill="none" stroke="#1189ff" d="M 60.76546 44.53076 L 56.7144 34.75313 L 67.51717 55.195 L 71.56822 65.87296 Z "/>
<path transform="matrix(1,0,0,-1,97.225,97.233)" stroke-width="1" stroke-linecap="butt" stroke-miterlimit="10" stroke-linejoin="miter" fill="none" stroke="#8fc7ff" d="M 37.80952 3.38382 L 33.75847 -3.46782 L 44.56122 9.47154 L 48.61229 17.2235 Z "/>
<path transform="matrix(1,0,0,-1,97.225,97.233)" stroke-width="1" stroke-linecap="butt" stroke-miterlimit="10" stroke-linejoin="miter" fill="none" stroke="#ddeeff" d="M 14.85359 -21.48262 L 10.80254 -25.40825 L 21.60529 -19.97139 L 25.65634 -15.14543 Z "/>
<path transform="matrix(1,0,0,-1,97.225,97.233)" stroke-width="1" stroke-linecap="butt" stroke-miterlimit="10" stroke-linejoin="miter" fill="none" stroke="#badcff" d="M -49.96313 -2.57594 L -54.0142 1.60124 L -43.21146 -14.56909 L -39.16039 -17.846 Z "/>
<path transform="matrix(1,0,0,-1,97.225,97.233)" stroke-width="1" stroke-linecap="butt" stroke-miterlimit="10" stroke-linejoin="miter" fill="none" stroke="#fcfdff" d="M -8.10233 -30.06853 L -12.15338 -31.06819 L -1.35063 -33.13382 L 2.70041 -31.23386 Z "/>
<path transform="matrix(1,0,0,-1,97.225,97.233)" stroke-width="1" stroke-linecap="butt" stroke-miterlimit="10" stroke-linejoin="miter" fill="none" stroke="#ebf5ff" d="M -31.05826 -22.3739 L -35.10933 -20.44759 L -24.30658 -30.01572 L -20.25551 -31.04175 Z "/>
<path transform="matrix(1,0,0,-1,97.225,97.233)" stroke-width="1" stroke-linecap="butt" stroke-miterlimit="10" stroke-linejoin="miter" fill="none" stroke="#52a9ff" d="M -72.91907 34.75371 L -76.97014 41.85689 L -66.16737 18.18404 L -62.1163 11.98116 Z "/>
<path transform="matrix(1,0,0,-1,97.225,97.233)" stroke-width="1" stroke-linecap="butt" stroke-miterlimit="10" stroke-linejoin="miter" fill="none" stroke="#2a95ff" d="M 56.7144 34.75313 L 52.66335 25.65067 L 63.4661 45.19226 L 67.51717 55.195 Z "/>
<path transform="matrix(1,0,0,-1,97.225,97.233)" stroke-width="1" stroke-linecap="butt" stroke-miterlimit="10" stroke-linejoin="miter" fill="none" stroke="#9fcfff" d="M 33.75847 -3.46782 L 29.70741 -9.64426 L 40.51016 2.3948 L 44.56122 9.47154 Z "/>
<path transform="matrix(1,0,0,-1,97.225,97.233)" stroke-width="1" stroke-linecap="butt" stroke-miterlimit="10" stroke-linejoin="miter" fill="none" stroke="#e5f2ff" d="M 10.80254 -25.40825 L 6.75148 -28.65869 L 17.55423 -24.1221 L 21.60529 -19.97139 Z "/>
<path transform="matrix(1,0,0,-1,97.225,97.233)" stroke-width="1" stroke-linecap="butt" stroke-miterlimit="10" stroke-linejoin="miter" fill="none" stroke="#aad5ff" d="M -54.0142 1.60124 L -58.06526 6.45358 L -47.2625 -10.61707 L -43.21146 -14.56909 Z "/>
<path transform="matrix(1,0,0,-1,97.225,97.233)" stroke-width="1" stroke-linecap="butt" stroke-miterlimit="10" stroke-linejoin="miter" fill="none" stroke="#fbfdff" d="M -12.15338 -31.06819 L -16.20445 -31.39258 L -5.4017 -34.35852 L -1.35063 -33.13382 Z "/>
<path transform="matrix(1,0,0,-1,97.225,97.233)" stroke-width="1" stroke-linecap="butt" stroke-miterlimit="10" stroke-linejoin="miter" fill="none" stroke="#e1f0ff" d="M -35.10933 -20.44759 L -39.16039 -17.846 L -28.35762 -28.31442 L -24.30658 -30.01572 Z "/>
<path transform="matrix(1,0,0,-1,97.225,97.233)" stroke-width="1" stroke-linecap="butt" stroke-miterlimit="10" stroke-linejoin="miter" fill="none" stroke="#41a1ff" d="M 52.66335 25.65067 L 48.61229 17.2235 L 59.41504 35.86478 L 63.4661 45.19226 Z "/>
<path transform="matrix(1,0,0,-1,97.225,97.233)" stroke-width="1" stroke-linecap="butt" stroke-miterlimit="10" stroke-linejoin="miter" fill="none" stroke="#5b52ff" d="M 75.61926 77.22615 L 71.56822 65.87296 L 82.37097 92.01685 L 86.42203 104.27036 Z "/>
<path transform="matrix(1,0,0,-1,97.225,97.233)" stroke-width="1" stroke-linecap="butt" stroke-miterlimit="10" stroke-linejoin="miter" fill="none" stroke="#399dff" d="M -76.97014 41.85689 L -81.02118 49.63525 L -70.21843 25.06209 L -66.16737 18.18404 Z "/>
<path transform="matrix(1,0,0,-1,97.225,97.233)" stroke-width="1" stroke-linecap="butt" stroke-miterlimit="10" stroke-linejoin="miter" fill="none" stroke="#aed7ff" d="M 29.70741 -9.64426 L 25.65634 -15.14543 L 36.45909 -4.00667 L 40.51016 2.3948 Z "/>
<path transform="matrix(1,0,0,-1,97.225,97.233)" stroke-width="1" stroke-linecap="butt" stroke-miterlimit="10" stroke-linejoin="miter" fill="none" stroke="#ebf5ff" d="M 6.75148 -28.65869 L 2.70041 -31.23386 L 13.50316 -27.59761 L 17.55423 -24.1221 Z "/>
<path transform="matrix(1,0,0,-1,97.225,97.233)" stroke-width="1" stroke-linecap="butt" stroke-miterlimit="10" stroke-linejoin="miter" fill="none" stroke="#98ccff" d="M -58.06526 6.45358 L -62.1163 11.98116 L -51.31355 -5.98979 L -47.2625 -10.61707 Z "/>
<path transform="matrix(1,0,0,-1,97.225,97.233)" stroke-width="1" stroke-linecap="butt" stroke-miterlimit="10" stroke-linejoin="miter" fill="none" stroke="#f8fcff" d="M -16.20445 -31.39258 L -20.25551 -31.04175 L -9.45274 -34.90799 L -5.4017 -34.35852 Z "/>
<path transform="matrix(1,0,0,-1,97.225,97.233)" stroke-width="1" stroke-linecap="butt" stroke-miterlimit="10" stroke-linejoin="miter" fill="none" stroke="#3d61ff" d="M 71.56822 65.87296 L 67.51717 55.195 L 78.31992 80.43858 L 82.37097 92.01685 Z "/>
<path transform="matrix(1,0,0,-1,97.225,97.233)" stroke-width="1" stroke-linecap="butt" stroke-miterlimit="10" stroke-linejoin="miter" fill="none" stroke="#56abff" d="M 48.61229 17.2235 L 44.56122 9.47154 L 55.36397 27.21252 L 59.41504 35.86478 Z "/>
<path transform="matrix(1,0,0,-1,97.225,97.233)" stroke-width="1" stroke-linecap="butt" stroke-miterlimit="10" stroke-linejoin="miter" fill="none" stroke="#d6ebff" d="M -39.16039 -17.846 L -43.21146 -14.56909 L -32.40869 -25.93785 L -28.35762 -28.31442 Z "/>
<path transform="matrix(1,0,0,-1,97.225,97.233)" stroke-width="1" stroke-linecap="butt" stroke-miterlimit="10" stroke-linejoin="miter" fill="none" stroke="#baddff" d="M 25.65634 -15.14543 L 21.60529 -19.97139 L 32.40804 -9.73293 L 36.45909 -4.00667 Z "/>
<path transform="matrix(1,0,0,-1,97.225,97.233)" stroke-width="1" stroke-linecap="butt" stroke-miterlimit="10" stroke-linejoin="miter" fill="none" stroke="#1f8fff" d="M -81.02118 49.63525 L -85.07225 58.08885 L -74.2695 32.61539 L -70.21843 25.06209 Z "/>
<path transform="matrix(1,0,0,-1,97.225,97.233)" stroke-width="1" stroke-linecap="butt" stroke-miterlimit="10" stroke-linejoin="miter" fill="none" stroke="#eff7ff" d="M 2.70041 -31.23386 L -1.35063 -33.13382 L 9.45212 -30.39786 L 13.50316 -27.59761 Z "/>
<path transform="matrix(1,0,0,-1,97.225,97.233)" stroke-width="1" stroke-linecap="butt" stroke-miterlimit="10" stroke-linejoin="miter" fill="none" stroke="#84c2ff" d="M -62.1163 11.98116 L -66.16737 18.18404 L -55.36462 -.68721 L -51.31355 -5.98979 Z "/>
<path transform="matrix(1,0,0,-1,97.225,97.233)" stroke-width="1" stroke-linecap="butt" stroke-miterlimit="10" stroke-linejoin="miter" fill="none" stroke="#f4f9ff" d="M -20.25551 -31.04175 L -24.30658 -30.01572 L -13.50381 -34.78226 L -9.45274 -34.90799 Z "/>
<path transform="matrix(1,0,0,-1,97.225,97.233)" stroke-width="1" stroke-linecap="butt" stroke-miterlimit="10" stroke-linejoin="miter" fill="none" stroke="#226fff" d="M 67.51717 55.195 L 63.4661 45.19226 L 74.26884 69.53554 L 78.31992 80.43858 Z "/>
<path transform="matrix(1,0,0,-1,97.225,97.233)" stroke-width="1" stroke-linecap="butt" stroke-miterlimit="10" stroke-linejoin="miter" fill="none" stroke="#69b5ff" d="M 44.56122 9.47154 L 40.51016 2.3948 L 51.31291 19.23549 L 55.36397 27.21252 Z "/>
<path transform="matrix(1,0,0,-1,97.225,97.233)" stroke-width="1" stroke-linecap="butt" stroke-miterlimit="10" stroke-linejoin="miter" fill="none" stroke="#c9e4ff" d="M -43.21146 -14.56909 L -47.2625 -10.61707 L -36.45975 -22.88612 L -32.40869 -25.93785 Z "/>
<path transform="matrix(1,0,0,-1,97.225,97.233)" stroke-width="1" stroke-linecap="butt" stroke-miterlimit="10" stroke-linejoin="miter" fill="none" stroke="#c5e2ff" d="M 21.60529 -19.97139 L 17.55423 -24.1221 L 28.357 -14.78395 L 32.40804 -9.73293 Z "/>
<path transform="matrix(1,0,0,-1,97.225,97.233)" stroke-width="1" stroke-linecap="butt" stroke-miterlimit="10" stroke-linejoin="miter" fill="none" stroke="#0381ff" d="M -85.07225 58.08885 L -89.1233 67.21777 L -78.32056 40.84396 L -74.2695 32.61539 Z "/>
<path transform="matrix(1,0,0,-1,97.225,97.233)" stroke-width="1" stroke-linecap="butt" stroke-miterlimit="10" stroke-linejoin="miter" fill="none" stroke="#f1f8ff" d="M -1.35063 -33.13382 L -5.4017 -34.35852 L 5.40105 -32.52286 L 9.45212 -30.39786 Z "/>
<path transform="matrix(1,0,0,-1,97.225,97.233)" stroke-width="1" stroke-linecap="butt" stroke-miterlimit="10" stroke-linejoin="miter" fill="none" stroke="#6eb7ff" d="M -66.16737 18.18404 L -70.21843 25.06209 L -59.41568 5.29053 L -55.36462 -.68721 Z "/>
<path transform="matrix(1,0,0,-1,97.225,97.233)" stroke-width="1" stroke-linecap="butt" stroke-miterlimit="10" stroke-linejoin="miter" fill="none" stroke="#edf6ff" d="M -24.30658 -30.01572 L -28.35762 -28.31442 L -17.55487 -33.98128 L -13.50381 -34.78226 Z "/>
<path transform="matrix(1,0,0,-1,97.225,97.233)" stroke-width="1" stroke-linecap="butt" stroke-miterlimit="10" stroke-linejoin="miter" fill="none" stroke="#087cff" d="M 63.4661 45.19226 L 59.41504 35.86478 L 70.21779 59.30774 L 74.26884 69.53554 Z "/>
<path transform="matrix(1,0,0,-1,97.225,97.233)" stroke-width="1" stroke-linecap="butt" stroke-miterlimit="10" stroke-linejoin="miter" fill="none" stroke="#7bbdff" d="M 40.51016 2.3948 L 36.45909 -4.00667 L 47.26186 11.93369 L 51.31291 19.23549 Z "/>
<path transform="matrix(1,0,0,-1,97.225,97.233)" stroke-width="1" stroke-linecap="butt" stroke-miterlimit="10" stroke-linejoin="miter" fill="none" stroke="#ba22ff" d="M 86.42203 104.27036 L 82.37097 92.01685 L 93.17374 122.96225 L 97.2248 136.11606 Z "/>
<path transform="matrix(1,0,0,-1,97.225,97.233)" stroke-width="1" stroke-linecap="butt" stroke-miterlimit="10" stroke-linejoin="miter" fill="none" stroke="#cee6ff" d="M 17.55423 -24.1221 L 13.50316 -27.59761 L 24.30592 -19.15974 L 28.357 -14.78395 Z "/>
<path transform="matrix(1,0,0,-1,97.225,97.233)" stroke-width="1" stroke-linecap="butt" stroke-miterlimit="10" stroke-linejoin="miter" fill="none" stroke="#baddff" d="M -47.2625 -10.61707 L -51.31355 -5.98979 L -40.5108 -19.15915 L -36.45975 -22.88612 Z "/>
<path transform="matrix(1,0,0,-1,97.225,97.233)" stroke-width="1" stroke-linecap="butt" stroke-miterlimit="10" stroke-linejoin="miter" fill="none" stroke="#1c72ff" d="M -89.1233 67.21777 L -93.17438 77.02182 L -82.37163 49.74773 L -78.32056 40.84396 Z "/>
<path transform="matrix(1,0,0,-1,97.225,97.233)" stroke-width="1" stroke-linecap="butt" stroke-miterlimit="10" stroke-linejoin="miter" fill="none" stroke="#f1f8ff" d="M -5.4017 -34.35852 L -9.45274 -34.90799 L 1.34999 -33.97264 L 5.40105 -32.52286 Z "/>
<path transform="matrix(1,0,0,-1,97.225,97.233)" stroke-width="1" stroke-linecap="butt" stroke-miterlimit="10" stroke-linejoin="miter" fill="none" stroke="#57abff" d="M -70.21843 25.06209 L -74.2695 32.61539 L -63.46675 11.9435 L -59.41568 5.29053 Z "/>
<path transform="matrix(1,0,0,-1,97.225,97.233)" stroke-width="1" stroke-linecap="butt" stroke-miterlimit="10" stroke-linejoin="miter" fill="none" stroke="#e5f2ff" d="M -28.35762 -28.31442 L -32.40869 -25.93785 L -21.60594 -32.505 L -17.55487 -33.98128 Z "/>
<path transform="matrix(1,0,0,-1,97.225,97.233)" stroke-width="1" stroke-linecap="butt" stroke-miterlimit="10" stroke-linejoin="miter" fill="none" stroke="#1088ff" d="M 59.41504 35.86478 L 55.36397 27.21252 L 66.16672 49.75517 L 70.21779 59.30774 Z "/>
<path transform="matrix(1,0,0,-1,97.225,97.233)" stroke-width="1" stroke-linecap="butt" stroke-miterlimit="10" stroke-linejoin="miter" fill="none" stroke="#9a33ff" d="M 82.37097 92.01685 L 78.31992 80.43858 L 89.12268 110.48369 L 93.17374 122.96225 Z "/>
<path transform="matrix(1,0,0,-1,97.225,97.233)" stroke-width="1" stroke-linecap="butt" stroke-miterlimit="10" stroke-linejoin="miter" fill="none" stroke="#8ac5ff" d="M 36.45909 -4.00667 L 32.40804 -9.73293 L 43.2108 5.30713 L 47.26186 11.93369 Z "/>
<path transform="matrix(1,0,0,-1,97.225,97.233)" stroke-width="1" stroke-linecap="butt" stroke-miterlimit="10" stroke-linejoin="miter" fill="none" stroke="#d4eaff" d="M 13.50316 -27.59761 L 9.45212 -30.39786 L 20.25487 -22.86032 L 24.30592 -19.15974 Z "/>
<path transform="matrix(1,0,0,-1,97.225,97.233)" stroke-width="1" stroke-linecap="butt" stroke-miterlimit="10" stroke-linejoin="miter" fill="none" stroke="#a9d4ff" d="M -51.31355 -5.98979 L -55.36462 -.68721 L -44.56187 -14.75688 L -40.5108 -19.15915 Z "/>
<path transform="matrix(1,0,0,-1,97.225,97.233)" stroke-width="1" stroke-linecap="butt" stroke-miterlimit="10" stroke-linejoin="miter" fill="none" stroke="#3c62ff" d="M -93.17438 77.02182 L -97.22543 87.50108 L -86.42268 59.3267 L -82.37163 49.74773 Z "/>
<path transform="matrix(1,0,0,-1,97.225,97.233)" stroke-width="1" stroke-linecap="butt" stroke-miterlimit="10" stroke-linejoin="miter" fill="none" stroke="#eff7ff" d="M -9.45274 -34.90799 L -13.50381 -34.78226 L -2.70107 -34.74721 L 1.34999 -33.97264 Z "/>
<path transform="matrix(1,0,0,-1,97.225,97.233)" stroke-width="1" stroke-linecap="butt" stroke-miterlimit="10" stroke-linejoin="miter" fill="none" stroke="#daedff" d="M -32.40869 -25.93785 L -36.45975 -22.88612 L -25.657 -30.35358 L -21.60594 -32.505 Z "/>
<path transform="matrix(1,0,0,-1,97.225,97.233)" stroke-width="1" stroke-linecap="butt" stroke-miterlimit="10" stroke-linejoin="miter" fill="none" stroke="#3d9eff" d="M -74.2695 32.61539 L -78.32056 40.84396 L -67.5178 19.2718 L -63.46675 11.9435 Z "/>
<path transform="matrix(1,0,0,-1,97.225,97.233)" stroke-width="1" stroke-linecap="butt" stroke-miterlimit="10" stroke-linejoin="miter" fill="none" stroke="#2593ff" d="M 55.36397 27.21252 L 51.31291 19.23549 L 62.11568 40.87784 L 66.16672 49.75517 Z "/>
<path transform="matrix(1,0,0,-1,97.225,97.233)" stroke-width="1" stroke-linecap="butt" stroke-miterlimit="10" stroke-linejoin="miter" fill="none" stroke="#7c42ff" d="M 78.31992 80.43858 L 74.26884 69.53554 L 85.07161 98.68033 L 89.12268 110.48369 Z "/>
<path transform="matrix(1,0,0,-1,97.225,97.233)" stroke-width="1" stroke-linecap="butt" stroke-miterlimit="10" stroke-linejoin="miter" fill="none" stroke="#97cbff" d="M 32.40804 -9.73293 L 28.357 -14.78395 L 39.15974 -.6442 L 43.2108 5.30713 Z "/>
<path transform="matrix(1,0,0,-1,97.225,97.233)" stroke-width="1" stroke-linecap="butt" stroke-miterlimit="10" stroke-linejoin="miter" fill="none" stroke="#d9ecff" d="M 9.45212 -30.39786 L 5.40105 -32.52286 L 16.2038 -25.88562 L 20.25487 -22.86032 Z "/>
<path transform="matrix(1,0,0,-1,97.225,97.233)" stroke-width="1" stroke-linecap="butt" stroke-miterlimit="10" stroke-linejoin="miter" fill="none" stroke="#96caff" d="M -55.36462 -.68721 L -59.41568 5.29053 L -48.61293 -9.67946 L -44.56187 -14.75688 Z "/>
<path transform="matrix(1,0,0,-1,97.225,97.233)" stroke-width="1" stroke-linecap="butt" stroke-miterlimit="10" stroke-linejoin="miter" fill="none" stroke="#ebf5ff" d="M -13.50381 -34.78226 L -17.55487 -33.98128 L -6.75212 -34.84654 L -2.70107 -34.74721 Z "/>
<path transform="matrix(1,0,0,-1,97.225,97.233)" stroke-width="1" stroke-linecap="butt" stroke-miterlimit="10" stroke-linejoin="miter" fill="none" stroke="#399cff" d="M 51.31291 19.23549 L 47.26186 11.93369 L 58.0646 32.67574 L 62.11568 40.87784 Z "/>
<path transform="matrix(1,0,0,-1,97.225,97.233)" stroke-width="1" stroke-linecap="butt" stroke-miterlimit="10" stroke-linejoin="miter" fill="none" stroke="#cee6ff" d="M -36.45975 -22.88612 L -40.5108 -19.15915 L -29.70805 -27.52692 L -25.657 -30.35358 Z "/>
<path transform="matrix(1,0,0,-1,97.225,97.233)" stroke-width="1" stroke-linecap="butt" stroke-miterlimit="10" stroke-linejoin="miter" fill="none" stroke="#5f50ff" d="M 74.26884 69.53554 L 70.21779 59.30774 L 81.02057 87.55222 L 85.07161 98.68033 Z "/>
<path transform="matrix(1,0,0,-1,97.225,97.233)" stroke-width="1" stroke-linecap="butt" stroke-miterlimit="10" stroke-linejoin="miter" fill="none" stroke="#2191ff" d="M -78.32056 40.84396 L -82.37163 49.74773 L -71.56886 27.27522 L -67.5178 19.2718 Z "/>
<path transform="matrix(1,0,0,-1,97.225,97.233)" stroke-width="1" stroke-linecap="butt" stroke-miterlimit="10" stroke-linejoin="miter" fill="none" stroke="#a2d1ff" d="M 28.357 -14.78395 L 24.30592 -19.15974 L 35.10867 -5.9203 L 39.15974 -.6442 Z "/>
<path transform="matrix(1,0,0,-1,97.225,97.233)" stroke-width="1" stroke-linecap="butt" stroke-miterlimit="10" stroke-linejoin="miter" fill="none" stroke="#dbedff" d="M 5.40105 -32.52286 L 1.34999 -33.97264 L 12.15274 -28.2357 L 16.2038 -25.88562 Z "/>
<path transform="matrix(1,0,0,-1,97.225,97.233)" stroke-width="1" stroke-linecap="butt" stroke-miterlimit="10" stroke-linejoin="miter" fill="none" stroke="#80c0ff" d="M -59.41568 5.29053 L -63.46675 11.9435 L -52.66399 -3.92677 L -48.61293 -9.67946 Z "/>
<path transform="matrix(1,0,0,-1,97.225,97.233)" stroke-width="1" stroke-linecap="butt" stroke-miterlimit="10" stroke-linejoin="miter" fill="none" stroke="#e5f2ff" d="M -17.55487 -33.98128 L -21.60594 -32.505 L -10.80319 -34.27058 L -6.75212 -34.84654 Z "/>
<path transform="matrix(1,0,0,-1,97.225,97.233)" stroke-width="1" stroke-linecap="butt" stroke-miterlimit="10" stroke-linejoin="miter" fill="none" stroke="#455dff" d="M 70.21779 59.30774 L 66.16672 49.75517 L 76.9695 77.09937 L 81.02057 87.55222 Z "/>
<path transform="matrix(1,0,0,-1,97.225,97.233)" stroke-width="1" stroke-linecap="butt" stroke-miterlimit="10" stroke-linejoin="miter" fill="none" stroke="#4ba5ff" d="M 47.26186 11.93369 L 43.2108 5.30713 L 54.01355 25.14886 L 58.0646 32.67574 Z "/>
<path transform="matrix(1,0,0,-1,97.225,97.233)" stroke-width="1" stroke-linecap="butt" stroke-miterlimit="10" stroke-linejoin="miter" fill="none" stroke="#bfdfff" d="M -40.5108 -19.15915 L -44.56187 -14.75688 L -33.75911 -24.02496 L -29.70805 -27.52692 Z "/>
<path transform="matrix(1,0,0,-1,97.225,97.233)" stroke-width="1" stroke-linecap="butt" stroke-miterlimit="10" stroke-linejoin="miter" fill="none" stroke="#abd5ff" d="M 24.30592 -19.15974 L 20.25487 -22.86032 L 31.05762 -10.52116 L 35.10867 -5.9203 Z "/>
<path transform="matrix(1,0,0,-1,97.225,97.233)" stroke-width="1" stroke-linecap="butt" stroke-miterlimit="10" stroke-linejoin="miter" fill="none" stroke="#0482ff" d="M -82.37163 49.74773 L -86.42268 59.3267 L -75.61992 35.95392 L -71.56886 27.27522 Z "/>
<path transform="matrix(1,0,0,-1,97.225,97.233)" stroke-width="1" stroke-linecap="butt" stroke-miterlimit="10" stroke-linejoin="miter" fill="none" stroke="#dceeff" d="M 1.34999 -33.97264 L -2.70107 -34.74721 L 8.10167 -29.91057 L 12.15274 -28.2357 Z "/>
<path transform="matrix(1,0,0,-1,97.225,97.233)" stroke-width="1" stroke-linecap="butt" stroke-miterlimit="10" stroke-linejoin="miter" fill="none" stroke="#69b5ff" d="M -63.46675 11.9435 L -67.5178 19.2718 L -56.71504 2.50119 L -52.66399 -3.92677 Z "/>
<path transform="matrix(1,0,0,-1,97.225,97.233)" stroke-width="1" stroke-linecap="butt" stroke-miterlimit="10" stroke-linejoin="miter" fill="none" stroke="#ddeeff" d="M -21.60594 -32.505 L -25.657 -30.35358 L -14.85425 -33.01947 L -10.80319 -34.27058 Z "/>
<path transform="matrix(1,0,0,-1,97.225,97.233)" stroke-width="1" stroke-linecap="butt" stroke-miterlimit="10" stroke-linejoin="miter" fill="none" stroke="#2d6aff" d="M 66.16672 49.75517 L 62.11568 40.87784 L 72.91844 67.32172 L 76.9695 77.09937 Z "/>
<path transform="matrix(1,0,0,-1,97.225,97.233)" stroke-width="1" stroke-linecap="butt" stroke-miterlimit="10" stroke-linejoin="miter" fill="none" stroke="#5badff" d="M 43.2108 5.30713 L 39.15974 -.6442 L 49.9625 18.29721 L 54.01355 25.14886 Z "/>
<path transform="matrix(1,0,0,-1,97.225,97.233)" stroke-width="1" stroke-linecap="butt" stroke-miterlimit="10" stroke-linejoin="miter" fill="none" stroke="#b3d9ff" d="M 20.25487 -22.86032 L 16.2038 -25.88562 L 27.00655 -14.44678 L 31.05762 -10.52116 Z "/>
<path transform="matrix(1,0,0,-1,97.225,97.233)" stroke-width="1" stroke-linecap="butt" stroke-miterlimit="10" stroke-linejoin="miter" fill="none" stroke="#afd7ff" d="M -44.56187 -14.75688 L -48.61293 -9.67946 L -37.81017 -19.84782 L -33.75911 -24.02496 Z "/>
<path transform="matrix(1,0,0,-1,97.225,97.233)" stroke-width="1" stroke-linecap="butt" stroke-miterlimit="10" stroke-linejoin="miter" fill="none" stroke="#dbedff" d="M -2.70107 -34.74721 L -6.75212 -34.84654 L 4.05061 -30.9102 L 8.10167 -29.91057 Z "/>
<path transform="matrix(1,0,0,-1,97.225,97.233)" stroke-width="1" stroke-linecap="butt" stroke-miterlimit="10" stroke-linejoin="miter" fill="none" stroke="#50a8ff" d="M -67.5178 19.2718 L -71.56886 27.27522 L -60.76611 9.60434 L -56.71504 2.50119 Z "/>
<path transform="matrix(1,0,0,-1,97.225,97.233)" stroke-width="1" stroke-linecap="butt" stroke-miterlimit="10" stroke-linejoin="miter" fill="none" stroke="#d3e9ff" d="M -25.657 -30.35358 L -29.70805 -27.52692 L -18.90529 -31.0931 L -14.85425 -33.01947 Z "/>
<path transform="matrix(1,0,0,-1,97.225,97.233)" stroke-width="1" stroke-linecap="butt" stroke-miterlimit="10" stroke-linejoin="miter" fill="none" stroke="#1675ff" d="M 62.11568 40.87784 L 58.0646 32.67574 L 68.86737 58.2193 L 72.91844 67.32172 Z "/>
<path transform="matrix(1,0,0,-1,97.225,97.233)" stroke-width="1" stroke-linecap="butt" stroke-miterlimit="10" stroke-linejoin="miter" fill="none" stroke="#69b4ff" d="M 39.15974 -.6442 L 35.10867 -5.9203 L 45.91142 12.12083 L 49.9625 18.29721 Z "/>
<path transform="matrix(1,0,0,-1,97.225,97.233)" stroke-width="1" stroke-linecap="butt" stroke-miterlimit="10" stroke-linejoin="miter" fill="none" stroke="#b8dcff" d="M 16.2038 -25.88562 L 12.15274 -28.2357 L 22.95549 -17.69716 L 27.00655 -14.44678 Z "/>
<path transform="matrix(1,0,0,-1,97.225,97.233)" stroke-width="1" stroke-linecap="butt" stroke-miterlimit="10" stroke-linejoin="miter" fill="none" stroke="#9cceff" d="M -48.61293 -9.67946 L -52.66399 -3.92677 L -41.86124 -14.99545 L -37.81017 -19.84782 Z "/>
<path transform="matrix(1,0,0,-1,97.225,97.233)" stroke-width="1" stroke-linecap="butt" stroke-miterlimit="10" stroke-linejoin="miter" fill="none" stroke="#d7ebff" d="M -6.75212 -34.84654 L -10.80319 -34.27058 L -.00043 -31.23456 L 4.05061 -30.9102 Z "/>
<path transform="matrix(1,0,0,-1,97.225,97.233)" stroke-width="1" stroke-linecap="butt" stroke-miterlimit="10" stroke-linejoin="miter" fill="none" stroke="#359bff" d="M -71.56886 27.27522 L -75.61992 35.95392 L -64.81717 17.38269 L -60.76611 9.60434 Z "/>
<path transform="matrix(1,0,0,-1,97.225,97.233)" stroke-width="1" stroke-linecap="butt" stroke-miterlimit="10" stroke-linejoin="miter" fill="none" stroke="#c7e3ff" d="M -29.70805 -27.52692 L -33.75911 -24.02496 L -22.95636 -28.49146 L -18.90529 -31.0931 Z "/>
<path transform="matrix(1,0,0,-1,97.225,97.233)" stroke-width="1" stroke-linecap="butt" stroke-miterlimit="10" stroke-linejoin="miter" fill="none" stroke="#027fff" d="M 58.0646 32.67574 L 54.01355 25.14886 L 64.81631 49.79214 L 68.86737 58.2193 Z "/>
<path transform="matrix(1,0,0,-1,97.225,97.233)" stroke-width="1" stroke-linecap="butt" stroke-miterlimit="10" stroke-linejoin="miter" fill="none" stroke="#74baff" d="M 35.10867 -5.9203 L 31.05762 -10.52116 L 41.86037 6.61963 L 45.91142 12.12083 Z "/>
<path transform="matrix(1,0,0,-1,97.225,97.233)" stroke-width="1" stroke-linecap="butt" stroke-miterlimit="10" stroke-linejoin="miter" fill="none" stroke="#bbddff" d="M 12.15274 -28.2357 L 8.10167 -29.91057 L 18.90443 -20.27235 L 22.95549 -17.69716 Z "/>
<path transform="matrix(1,0,0,-1,97.225,97.233)" stroke-width="1" stroke-linecap="butt" stroke-miterlimit="10" stroke-linejoin="miter" fill="none" stroke="#88c4ff" d="M -52.66399 -3.92677 L -56.71504 2.50119 L -45.9123 -9.46779 L -41.86124 -14.99545 Z "/>
<path transform="matrix(1,0,0,-1,97.225,97.233)" stroke-width="1" stroke-linecap="butt" stroke-miterlimit="10" stroke-linejoin="miter" fill="none" stroke="#d2e9ff" d="M -10.80319 -34.27058 L -14.85425 -33.01947 L -4.05148 -30.88374 L -.00043 -31.23456 Z "/>
<path transform="matrix(1,0,0,-1,97.225,97.233)" stroke-width="1" stroke-linecap="butt" stroke-miterlimit="10" stroke-linejoin="miter" fill="none" stroke="#badcff" d="M -33.75911 -24.02496 L -37.81017 -19.84782 L -27.00742 -25.21461 L -22.95636 -28.49146 Z "/>
<path transform="matrix(1,0,0,-1,97.225,97.233)" stroke-width="1" stroke-linecap="butt" stroke-miterlimit="10" stroke-linejoin="miter" fill="none" stroke="#1188ff" d="M 54.01355 25.14886 L 49.9625 18.29721 L 60.76526 42.04018 L 64.81631 49.79214 Z "/>
<path transform="matrix(1,0,0,-1,97.225,97.233)" stroke-width="1" stroke-linecap="butt" stroke-miterlimit="10" stroke-linejoin="miter" fill="none" stroke="#7ebfff" d="M 31.05762 -10.52116 L 27.00655 -14.44678 L 37.80931 1.79372 L 41.86037 6.61963 Z "/>
<path transform="matrix(1,0,0,-1,97.225,97.233)" stroke-width="1" stroke-linecap="butt" stroke-miterlimit="10" stroke-linejoin="miter" fill="none" stroke="#bcdeff" d="M 8.10167 -29.91057 L 4.05061 -30.9102 L 14.85338 -22.17227 L 18.90443 -20.27235 Z "/>
<path transform="matrix(1,0,0,-1,97.225,97.233)" stroke-width="1" stroke-linecap="butt" stroke-miterlimit="10" stroke-linejoin="miter" fill="none" stroke="#71b8ff" d="M -56.71504 2.50119 L -60.76611 9.60434 L -49.96336 -3.26495 L -45.9123 -9.46779 Z "/>
<path transform="matrix(1,0,0,-1,97.225,97.233)" stroke-width="1" stroke-linecap="butt" stroke-miterlimit="10" stroke-linejoin="miter" fill="none" stroke="#cbe5ff" d="M -14.85425 -33.01947 L -18.90529 -31.0931 L -8.10254 -29.85768 L -4.05148 -30.88374 Z "/>
<path transform="matrix(1,0,0,-1,97.225,97.233)" stroke-width="1" stroke-linecap="butt" stroke-miterlimit="10" stroke-linejoin="miter" fill="none" stroke="#2190ff" d="M 49.9625 18.29721 L 45.91142 12.12083 L 56.7142 34.96347 L 60.76526 42.04018 Z "/>
<path transform="matrix(1,0,0,-1,97.225,97.233)" stroke-width="1" stroke-linecap="butt" stroke-miterlimit="10" stroke-linejoin="miter" fill="none" stroke="#aad5ff" d="M -37.81017 -19.84782 L -41.86124 -14.99545 L -31.05849 -21.26254 L -27.00742 -25.21461 Z "/>
<path transform="matrix(1,0,0,-1,97.225,97.233)" stroke-width="1" stroke-linecap="butt" stroke-miterlimit="10" stroke-linejoin="miter" fill="none" stroke="#86c3ff" d="M 27.00655 -14.44678 L 22.95549 -17.69716 L 33.75826 -2.35696 L 37.80931 1.79372 Z "/>
<path transform="matrix(1,0,0,-1,97.225,97.233)" stroke-width="1" stroke-linecap="butt" stroke-miterlimit="10" stroke-linejoin="miter" fill="none" stroke="#bcdeff" d="M 4.05061 -30.9102 L -.00043 -31.23456 L 10.8023 -23.39693 L 14.85338 -22.17227 Z "/>
<path transform="matrix(1,0,0,-1,97.225,97.233)" stroke-width="1" stroke-linecap="butt" stroke-miterlimit="10" stroke-linejoin="miter" fill="none" stroke="#59acff" d="M -60.76611 9.60434 L -64.81717 17.38269 L -54.01442 3.61311 L -49.96336 -3.26495 Z "/>
<path transform="matrix(1,0,0,-1,97.225,97.233)" stroke-width="1" stroke-linecap="butt" stroke-miterlimit="10" stroke-linejoin="miter" fill="none" stroke="#c2e0ff" d="M -18.90529 -31.0931 L -22.95636 -28.49146 L -12.15361 -28.15634 L -8.10254 -29.85768 Z "/>
<path transform="matrix(1,0,0,-1,97.225,97.233)" stroke-width="1" stroke-linecap="butt" stroke-miterlimit="10" stroke-linejoin="miter" fill="none" stroke="#2f98ff" d="M 45.91142 12.12083 L 41.86037 6.61963 L 52.66315 28.562 L 56.7142 34.96347 Z "/>
<path transform="matrix(1,0,0,-1,97.225,97.233)" stroke-width="1" stroke-linecap="butt" stroke-miterlimit="10" stroke-linejoin="miter" fill="none" stroke="#98ccff" d="M -41.86124 -14.99545 L -45.9123 -9.46779 L -35.10954 -16.63516 L -31.05849 -21.26254 Z "/>
<path transform="matrix(1,0,0,-1,97.225,97.233)" stroke-width="1" stroke-linecap="butt" stroke-miterlimit="10" stroke-linejoin="miter" fill="none" stroke="#8cc6ff" d="M 22.95549 -17.69716 L 18.90443 -20.27235 L 29.70718 -5.83246 L 33.75826 -2.35696 Z "/>
<path transform="matrix(1,0,0,-1,97.225,97.233)" stroke-width="1" stroke-linecap="butt" stroke-miterlimit="10" stroke-linejoin="miter" fill="none" stroke="#b9dcff" d="M -.00043 -31.23456 L -4.05148 -30.88374 L 6.75125 -23.94641 L 10.8023 -23.39693 Z "/>
<path transform="matrix(1,0,0,-1,97.225,97.233)" stroke-width="1" stroke-linecap="butt" stroke-miterlimit="10" stroke-linejoin="miter" fill="none" stroke="#b6dbff" d="M -22.95636 -28.49146 L -27.00742 -25.21461 L -16.20467 -25.77982 L -12.15361 -28.15634 Z "/>
<path transform="matrix(1,0,0,-1,97.225,97.233)" stroke-width="1" stroke-linecap="butt" stroke-miterlimit="10" stroke-linejoin="miter" fill="none" stroke="#3c9eff" d="M 41.86037 6.61963 L 37.80931 1.79372 L 48.61208 22.83577 L 52.66315 28.562 Z "/>
<path transform="matrix(1,0,0,-1,97.225,97.233)" stroke-width="1" stroke-linecap="butt" stroke-miterlimit="10" stroke-linejoin="miter" fill="none" stroke="#90c8ff" d="M 18.90443 -20.27235 L 14.85338 -22.17227 L 25.65613 -8.63268 L 29.70718 -5.83246 Z "/>
<path transform="matrix(1,0,0,-1,97.225,97.233)" stroke-width="1" stroke-linecap="butt" stroke-miterlimit="10" stroke-linejoin="miter" fill="none" stroke="#84c2ff" d="M -45.9123 -9.46779 L -49.96336 -3.26495 L -39.16061 -11.33266 L -35.10954 -16.63516 Z "/>
<path transform="matrix(1,0,0,-1,97.225,97.233)" stroke-width="1" stroke-linecap="butt" stroke-miterlimit="10" stroke-linejoin="miter" fill="none" stroke="#b5daff" d="M -4.05148 -30.88374 L -8.10254 -29.85768 L 2.7002 -23.82068 L 6.75125 -23.94641 Z "/>
<path transform="matrix(1,0,0,-1,97.225,97.233)" stroke-width="1" stroke-linecap="butt" stroke-miterlimit="10" stroke-linejoin="miter" fill="none" stroke="#a9d4ff" d="M -27.00742 -25.21461 L -31.05849 -21.26254 L -20.25574 -22.72803 L -16.20467 -25.77982 Z "/>
<path transform="matrix(1,0,0,-1,97.225,97.233)" stroke-width="1" stroke-linecap="butt" stroke-miterlimit="10" stroke-linejoin="miter" fill="none" stroke="#47a3ff" d="M 37.80931 1.79372 L 33.75826 -2.35696 L 44.56102 17.78477 L 48.61208 22.83577 Z "/>
<path transform="matrix(1,0,0,-1,97.225,97.233)" stroke-width="1" stroke-linecap="butt" stroke-miterlimit="10" stroke-linejoin="miter" fill="none" stroke="#92c9ff" d="M 14.85338 -22.17227 L 10.8023 -23.39693 L 21.60506 -10.75766 L 25.65613 -8.63268 Z "/>
<path transform="matrix(1,0,0,-1,97.225,97.233)" stroke-width="1" stroke-linecap="butt" stroke-miterlimit="10" stroke-linejoin="miter" fill="none" stroke="#6eb7ff" d="M -49.96336 -3.26495 L -54.01442 3.61311 L -43.21165 -5.35489 L -39.16061 -11.33266 Z "/>
<path transform="matrix(1,0,0,-1,97.225,97.233)" stroke-width="1" stroke-linecap="butt" stroke-miterlimit="10" stroke-linejoin="miter" fill="none" stroke="#aed7ff" d="M -8.10254 -29.85768 L -12.15361 -28.15634 L -1.35086 -23.01965 L 2.7002 -23.82068 Z "/>
<path transform="matrix(1,0,0,-1,97.225,97.233)" stroke-width="1" stroke-linecap="butt" stroke-miterlimit="10" stroke-linejoin="miter" fill="none" stroke="#9acdff" d="M -31.05849 -21.26254 L -35.10954 -16.63516 L -24.30678 -19.00099 L -20.25574 -22.72803 Z "/>
<path transform="matrix(1,0,0,-1,97.225,97.233)" stroke-width="1" stroke-linecap="butt" stroke-miterlimit="10" stroke-linejoin="miter" fill="none" stroke="#4fa7ff" d="M 33.75826 -2.35696 L 29.70718 -5.83246 L 40.50995 13.40898 L 44.56102 17.78477 Z "/>
<path transform="matrix(1,0,0,-1,97.225,97.233)" stroke-width="1" stroke-linecap="butt" stroke-miterlimit="10" stroke-linejoin="miter" fill="none" stroke="#92c9ff" d="M 10.8023 -23.39693 L 6.75125 -23.94641 L 17.554 -12.20746 L 21.60506 -10.75766 Z "/>
<path transform="matrix(1,0,0,-1,97.225,97.233)" stroke-width="1" stroke-linecap="butt" stroke-miterlimit="10" stroke-linejoin="miter" fill="none" stroke="#a5d2ff" d="M -12.15361 -28.15634 L -16.20467 -25.77982 L -5.40192 -21.54341 L -1.35086 -23.01965 Z "/>
<path transform="matrix(1,0,0,-1,97.225,97.233)" stroke-width="1" stroke-linecap="butt" stroke-miterlimit="10" stroke-linejoin="miter" fill="none" stroke="#89c4ff" d="M -35.10954 -16.63516 L -39.16061 -11.33266 L -28.35785 -14.59875 L -24.30678 -19.00099 Z "/>
<path transform="matrix(1,0,0,-1,97.225,97.233)" stroke-width="1" stroke-linecap="butt" stroke-miterlimit="10" stroke-linejoin="miter" fill="none" stroke="#56abff" d="M 29.70718 -5.83246 L 25.65613 -8.63268 L 36.4589 9.70844 L 40.50995 13.40898 Z "/>
<path transform="matrix(1,0,0,-1,97.225,97.233)" stroke-width="1" stroke-linecap="butt" stroke-miterlimit="10" stroke-linejoin="miter" fill="none" stroke="#90c8ff" d="M 6.75125 -23.94641 L 2.7002 -23.82068 L 13.50294 -12.98198 L 17.554 -12.20746 Z "/>
<path transform="matrix(1,0,0,-1,97.225,97.233)" stroke-width="1" stroke-linecap="butt" stroke-miterlimit="10" stroke-linejoin="miter" fill="none" stroke="#9bcdff" d="M -16.20467 -25.77982 L -20.25574 -22.72803 L -9.45297 -19.39192 L -5.40192 -21.54341 Z "/>
<path transform="matrix(1,0,0,-1,97.225,97.233)" stroke-width="1" stroke-linecap="butt" stroke-miterlimit="10" stroke-linejoin="miter" fill="none" stroke="#76bbff" d="M -39.16061 -11.33266 L -43.21165 -5.35489 L -32.4089 -9.52132 L -28.35785 -14.59875 Z "/>
<path transform="matrix(1,0,0,-1,97.225,97.233)" stroke-width="1" stroke-linecap="butt" stroke-miterlimit="10" stroke-linejoin="miter" fill="none" stroke="#5aadff" d="M 25.65613 -8.63268 L 21.60506 -10.75766 L 32.40782 6.68317 L 36.4589 9.70844 Z "/>
<path transform="matrix(1,0,0,-1,97.225,97.233)" stroke-width="1" stroke-linecap="butt" stroke-miterlimit="10" stroke-linejoin="miter" fill="none" stroke="#8cc6ff" d="M 2.7002 -23.82068 L -1.35086 -23.01965 L 9.45189 -13.08127 L 13.50294 -12.98198 Z "/>
<path transform="matrix(1,0,0,-1,97.225,97.233)" stroke-width="1" stroke-linecap="butt" stroke-miterlimit="10" stroke-linejoin="miter" fill="none" stroke="#8ec7ff" d="M -20.25574 -22.72803 L -24.30678 -19.00099 L -13.50403 -16.5652 L -9.45297 -19.39192 Z "/>
<path transform="matrix(1,0,0,-1,97.225,97.233)" stroke-width="1" stroke-linecap="butt" stroke-miterlimit="10" stroke-linejoin="miter" fill="none" stroke="#5daeff" d="M 21.60506 -10.75766 L 17.554 -12.20746 L 28.35678 4.33305 L 32.40782 6.68317 Z "/>
<path transform="matrix(1,0,0,-1,97.225,97.233)" stroke-width="1" stroke-linecap="butt" stroke-miterlimit="10" stroke-linejoin="miter" fill="none" stroke="#86c3ff" d="M -1.35086 -23.01965 L -5.40192 -21.54341 L 5.40083 -12.50536 L 9.45189 -13.08127 Z "/>
<path transform="matrix(1,0,0,-1,97.225,97.233)" stroke-width="1" stroke-linecap="butt" stroke-miterlimit="10" stroke-linejoin="miter" fill="none" stroke="#80c0ff" d="M -24.30678 -19.00099 L -28.35785 -14.59875 L -17.5551 -13.06328 L -13.50403 -16.5652 Z "/>
<path transform="matrix(1,0,0,-1,97.225,97.233)" stroke-width="1" stroke-linecap="butt" stroke-miterlimit="10" stroke-linejoin="miter" fill="none" stroke="#5eafff" d="M 17.554 -12.20746 L 13.50294 -12.98198 L 24.30573 2.65819 L 28.35678 4.33305 Z "/>
<path transform="matrix(1,0,0,-1,97.225,97.233)" stroke-width="1" stroke-linecap="butt" stroke-miterlimit="10" stroke-linejoin="miter" fill="none" stroke="#7ebfff" d="M -5.40192 -21.54341 L -9.45297 -19.39192 L 1.34976 -11.25418 L 5.40083 -12.50536 Z "/>
<path transform="matrix(1,0,0,-1,97.225,97.233)" stroke-width="1" stroke-linecap="butt" stroke-miterlimit="10" stroke-linejoin="miter" fill="none" stroke="#6fb7ff" d="M -28.35785 -14.59875 L -32.4089 -9.52132 L -21.60616 -8.88611 L -17.5551 -13.06328 Z "/>
<path transform="matrix(1,0,0,-1,97.225,97.233)" stroke-width="1" stroke-linecap="butt" stroke-miterlimit="10" stroke-linejoin="miter" fill="none" stroke="#5caeff" d="M 13.50294 -12.98198 L 9.45189 -13.08127 L 20.25465 1.65863 L 24.30573 2.65819 Z "/>
<path transform="matrix(1,0,0,-1,97.225,97.233)" stroke-width="1" stroke-linecap="butt" stroke-miterlimit="10" stroke-linejoin="miter" fill="none" stroke="#74baff" d="M -9.45297 -19.39192 L -13.50403 -16.5652 L -2.70128 -9.32777 L 1.34976 -11.25418 Z "/>
<path transform="matrix(1,0,0,-1,97.225,97.233)" stroke-width="1" stroke-linecap="butt" stroke-miterlimit="10" stroke-linejoin="miter" fill="none" stroke="#59acff" d="M 9.45189 -13.08127 L 5.40083 -12.50536 L 16.2036 1.33424 L 20.25465 1.65863 Z "/>
<path transform="matrix(1,0,0,-1,97.225,97.233)" stroke-width="1" stroke-linecap="butt" stroke-miterlimit="10" stroke-linejoin="miter" fill="none" stroke="#69b4ff" d="M -13.50403 -16.5652 L -17.5551 -13.06328 L -6.75235 -6.72614 L -2.70128 -9.32777 Z "/>
<path transform="matrix(1,0,0,-1,97.225,97.233)" stroke-width="1" stroke-linecap="butt" stroke-miterlimit="10" stroke-linejoin="miter" fill="none" stroke="#54aaff" d="M 5.40083 -12.50536 L 1.34976 -11.25418 L 12.15253 1.6851 L 16.2036 1.33424 Z "/>
<path transform="matrix(1,0,0,-1,97.225,97.233)" stroke-width="1" stroke-linecap="butt" stroke-miterlimit="10" stroke-linejoin="miter" fill="none" stroke="#5badff" d="M -17.5551 -13.06328 L -21.60616 -8.88611 L -10.8034 -3.4493 L -6.75235 -6.72614 Z "/>
<path transform="matrix(1,0,0,-1,97.225,97.233)" stroke-width="1" stroke-linecap="butt" stroke-miterlimit="10" stroke-linejoin="miter" fill="none" stroke="#4ca6ff" d="M 1.34976 -11.25418 L -2.70128 -9.32777 L 8.10147 2.71123 L 12.15253 1.6851 Z "/>
<path transform="matrix(1,0,0,-1,97.225,97.233)" stroke-width="1" stroke-linecap="butt" stroke-miterlimit="10" stroke-linejoin="miter" fill="none" stroke="#43a1ff" d="M -2.70128 -9.32777 L -6.75235 -6.72614 L 4.05042 4.41252 L 8.10147 2.71123 Z "/>
<path transform="matrix(1,0,0,-1,97.225,97.233)" stroke-width="1" stroke-linecap="butt" stroke-miterlimit="10" stroke-linejoin="miter" fill="none" stroke="#389cff" d="M -6.75235 -6.72614 L -10.8034 -3.4493 L -.00063 6.78908 L 4.05042 4.41252 Z "/>
<path transform="matrix(1,0,0,-1,97.225,97.233)" stroke-width="1.59404" stroke-linecap="butt" stroke-miterlimit="10" stroke-linejoin="miter" fill="none" stroke="#000080" stroke-opacity=".3" d="M 97.22577 136.11911 C 97.22577 136.11911 93.52863 124.04596 92.10864 119.61586 C 90.68866 115.18576 88.41147 108.32112 86.99149 104.19 C 85.5715 100.05888 83.29434 93.67369 81.87434 89.84152 C 80.45436 86.00937 78.1772 80.10362 76.75722 76.57043 C 75.33723 73.03726 73.06006 67.61095 71.64008 64.37672 C 70.2201 61.1425 67.94292 56.19566 66.52293 53.2604 C 65.10295 50.32516 62.82578 45.85774 61.40578 43.22147 C 59.9858 40.58519 57.70863 36.59721 56.28865 34.25992 C 54.86867 31.9226 52.59149 28.4141 51.17151 26.37575 C 49.75153 24.3374 47.47435 21.30833 46.05437 19.56897 C 44.63438 17.8296 42.35722 15.27997 40.93723 13.83958 C 39.51724 12.3992 37.24008 10.32903 35.8201 9.18759 C 34.40012 8.04617 32.12294 6.4554 30.70296 5.61296 C 29.28297 4.77051 27.0058 3.65921 25.58582 3.11572 C 24.16583 2.57225 21.88867 1.94038 20.46867 1.69588 C 19.04869 1.45137 16.77153 1.299 15.35155 1.35344 C 13.93155 1.40788 11.65439 1.73492 10.2344 2.08833 C 8.81442 2.44174 6.53725 3.24826 5.11726 3.90063 C 3.69728 4.55301 .00012 6.7903 .00012 6.7903 "/>
<path transform="matrix(1,0,0,-1,97.225,97.233)" stroke-width="1.59404" stroke-linecap="butt" stroke-miterlimit="10" stroke-linejoin="miter" fill="none" stroke="#000080" stroke-opacity=".3" d="M 0 22.3621 C 0 22.3621 -3.69713 17.68391 -5.11711 16.09404 C -6.5371 14.50417 -8.81429 12.19424 -10.23427 10.90334 C -11.65425 9.61243 -13.93143 7.78198 -15.35141 6.79005 C -16.7714 5.79811 -19.04855 4.4471 -20.46855 3.75414 C -21.88853 3.06117 -24.1657 2.18958 -25.58568 1.7956 C -27.00566 1.4016 -29.28284 1.00948 -30.70282 .91447 C -32.1228 .81946 -34.4 .90677 -35.81998 1.1107 C -37.23996 1.31465 -39.51712 1.88142 -40.93712 2.38432 C -42.3571 2.8872 -44.63426 3.93346 -46.05424 4.73534 C -47.47423 5.5372 -49.7514 7.0629 -51.17139 8.16374 C -52.59137 9.26459 -54.86855 11.26968 -56.28853 12.66951 C -57.70851 14.06932 -59.98567 16.55388 -61.40567 18.25267 C -62.82565 19.95146 -65.10281 22.9155 -66.5228 24.91325 C -67.9428 26.91101 -70.21996 30.35445 -71.63994 32.65117 C -73.05992 34.94788 -75.3371 38.87077 -76.75708 41.46648 C -78.17706 44.06218 -80.45422 48.46457 -81.87422 51.35924 C -83.2942 54.2539 -85.57137 59.13568 -86.99135 62.32932 C -88.41135 65.52295 -90.6885 70.88416 -92.10849 74.37675 C -93.52847 77.86934 -97.22563 87.50156 -97.22563 87.50156 "/>
<path transform="matrix(1,0,0,-1,97.225,97.233)" stroke-width="1.59404" stroke-linecap="butt" stroke-miterlimit="10" stroke-linejoin="miter" fill="none" stroke="#000080" stroke-opacity=".3" d="M 0 22.3621 C 0 22.3621 3.69713 19.53264 5.11711 18.65282 C 6.5371 17.77301 8.81429 16.60179 10.23427 16.02094 C 11.65425 15.44008 13.93143 14.74829 15.35141 14.46642 C 16.7714 14.18456 19.04855 13.97223 20.46855 13.98929 C 21.88853 14.00636 24.1657 14.27351 25.58568 14.58955 C 27.00566 14.90561 29.28284 15.65219 30.70282 16.26721 C 32.1228 16.88225 34.4 18.10826 35.81998 19.02225 C 37.23996 19.93623 39.51712 21.6417 40.93712 22.85466 C 42.3571 24.06763 44.63426 26.25255 46.05424 27.76448 C 47.47423 29.2764 49.7514 31.94078 51.17139 33.75168 C 52.59137 35.56259 54.86855 38.70638 56.28853 40.81624 C 57.70851 42.9261 59.98567 46.54935 61.40567 48.95819 C 62.82565 51.36703 65.10281 55.46976 66.5228 58.17758 C 67.9428 60.8854 70.21996 65.46753 71.63994 68.47429 C 73.05992 71.48106 75.3371 76.54262 76.75708 79.84839 C 78.17706 83.15414 80.45422 88.69522 81.87422 92.29994 C 83.2942 95.90466 85.57137 101.92511 86.99135 105.8288 C 88.41135 109.73248 90.6885 116.23239 92.10849 120.43504 C 93.52847 124.63768 97.22563 136.11862 97.22563 136.11862 "/>
<path transform="matrix(1,0,0,-1,97.225,97.233)" stroke-width="1.59404" stroke-linecap="butt" stroke-miterlimit="10" stroke-linejoin="miter" fill="none" stroke="#000080" stroke-opacity=".3" d="M -97.22577 87.50197 C -97.22577 87.50197 -93.52863 77.27757 -92.10864 73.55753 C -90.68866 69.83748 -88.41147 64.11153 -86.99149 60.69046 C -85.5715 57.2694 -83.29434 52.02287 -81.87434 48.90077 C -80.45436 45.77867 -78.1772 41.01158 -76.75722 38.18846 C -75.33723 35.36533 -73.06006 31.0777 -71.64008 28.55354 C -70.2201 26.0294 -67.94292 22.22122 -66.52293 19.99603 C -65.10295 17.77084 -62.82578 14.44211 -61.40578 12.51588 C -59.9858 10.58966 -57.70863 7.74037 -56.28865 6.11311 C -54.86867 4.48587 -52.59149 2.11603 -51.17151 .78777 C -49.75153 -.5405 -47.47435 -2.43091 -46.05437 -3.46022 C -44.63438 -4.48953 -42.35722 -5.90048 -40.93723 -6.63083 C -39.51724 -7.36116 -37.24008 -8.29266 -35.8201 -8.72401 C -34.40012 -9.15536 -32.12294 -9.60745 -30.70296 -9.73984 C -29.28297 -9.87224 -27.0058 -9.84483 -25.58582 -9.67828 C -24.16583 -9.51173 -21.88867 -9.00487 -20.46867 -8.53934 C -19.04869 -8.0738 -16.77153 -7.08751 -15.35155 -6.323 C -13.93155 -5.55849 -11.65439 -4.09276 -10.2344 -3.0293 C -8.81442 -1.96582 -6.53725 -.02065 -5.11726 1.34177 C -3.69728 2.7042 -.00012 6.79022 -.00012 6.79022 "/>
<g>
<path transform="matrix(1,0,0,-1,97.225,97.233)" d="M -5.10521 -30.05661 C -5.10521 -28.40591 -6.44333 -27.06778 -8.09404 -27.06778 C -9.74475 -27.06778 -11.08287 -28.40591 -11.08287 -30.05661 C -11.08287 -31.70732 -9.74475 -33.04544 -8.09404 -33.04544 C -6.44333 -33.04544 -5.10521 -31.70732 -5.10521 -30.05661 Z M -8.09404 -30.05661 " fill-opacity=".7"/>
<path transform="matrix(1,0,0,-1,97.225,97.233)" stroke-width="1" stroke-linecap="butt" stroke-miterlimit="10" stroke-linejoin="miter" fill="none" stroke="#000000" stroke-opacity=".7" d="M -5.10521 -30.05661 C -5.10521 -28.40591 -6.44333 -27.06778 -8.09404 -27.06778 C -9.74475 -27.06778 -11.08287 -28.40591 -11.08287 -30.05661 C -11.08287 -31.70732 -9.74475 -33.04544 -8.09404 -33.04544 C -6.44333 -33.04544 -5.10521 -31.70732 -5.10521 -30.05661 Z M -8.09404 -30.05661 "/>
</g>
<symbol id="font_1_1">
<path d="M .23200003 .00999999 C .23200003 .012999982 .23200003 .014999986 .215 .03199999 C .09 .15799999 .058 .347 .058 .5 C .058 .674 .096 .84800007 .21900001 .97300007 C .23200003 .985 .23200003 .98700007 .23200003 .99 C .23200003 .99700006 .22800002 1 .222 1 C .21200001 1 .12200001 .93200007 .06299999 .805 C .012000002 .69500008 0 .584 0 .5 C 0 .422 .011 .301 .066 .188 C .126 .065 .21200001 0 .222 0 C .22800002 0 .23200003 .0029999912 .23200003 .00999999 Z "/>
</symbol>
<symbol id="font_1_4">
<path d="M .07700001 .07700001 L .18300002 .18 C .33900003 .31800003 .39900003 .372 .39900003 .47200004 C .39900003 .586 .30900003 .666 .18700002 .666 C .074 .666 0 .574 0 .485 C 0 .42900003 .05 .42900003 .053000008 .42900003 C .07000001 .42900003 .105000007 .441 .105000007 .48200003 C .105000007 .508 .08700001 .53400006 .052000006 .53400006 C .044000005 .53400006 .042000008 .53400006 .039 .53300008 C .062000004 .59800007 .11600001 .63500007 .17400001 .63500007 C .26500003 .63500007 .308 .554 .308 .47200004 C .308 .39200003 .25800003 .31300003 .20300003 .25100003 L .011000004 .037 C 0 .026 0 .024 0 0 L .37100003 0 L .39900003 .17400001 L .374 .17400001 C .36900003 .14400001 .36200003 .1 .352 .085 C .345 .07700001 .279 .07700001 .257 .07700001 L .07700001 .07700001 Z "/>
</symbol>
<use xlink:href="#font_1_1" transform="matrix(9.9626,0,0,-9.9626,93.70229,132.28264)"/>
<use xlink:href="#font_1_4" transform="matrix(9.9626,0,0,-9.9626,97.08958,129.79199)"/>
<symbol id="font_2_2">
<path d="M .384 .962 C .38900004 .975 .38900004 .97900006 .38900004 .98 C .38900004 .99100008 .38000003 1 .36900003 1 C .36200003 1 .35500003 .99700006 .352 .99100008 L .004999999 .037999989 C 0 .024999991 0 .020999983 0 .019999996 C 0 .008999988 .009 0 .02 0 C .033000005 0 .036000004 .0069999846 .042 .023999989 L .384 .962 Z "/>
</symbol>
<use xlink:href="#font_2_2" transform="matrix(9.9626,0,0,-9.9626,102.11994,132.28264)"/>
<symbol id="font_1_5">
<path d="M .24800003 .37400005 C .33 .40100003 .388 .47100006 .388 .55 C .388 .632 .3 .688 .204 .688 C .10300001 .688 .027000003 .628 .027000003 .55200007 C .027000003 .519 .049000004 .5 .078 .5 C .109000008 .5 .12900001 .522 .12900001 .55100008 C .12900001 .6010001 .082 .6010001 .067 .6010001 C .098 .65000006 .164 .66300007 .20000002 .66300007 C .24100003 .66300007 .29600004 .64100006 .29600004 .55100008 C .29600004 .53900006 .29400004 .48100005 .268 .43700005 C .238 .38900004 .204 .38600005 .17900002 .38500003 C .171 .38400004 .14700002 .38200004 .14000002 .38200004 C .132 .38100005 .125 .38000003 .125 .37000004 C .125 .35900004 .132 .35900004 .14900002 .35900004 L .19300002 .35900004 C .275 .35900004 .312 .29100005 .312 .193 C .312 .057000005 .24300003 .028 .199 .028 C .15600002 .028 .081 .045 .046000005 .104 C .081 .09900001 .11200001 .12100001 .11200001 .15900001 C .11200001 .19500001 .085 .215 .056 .215 C .031999999 .215 0 .201 0 .157 C 0 .06600001 .093 0 .20200002 0 C .32400004 0 .41500003 .091000009 .41500003 .193 C .41500003 .27500005 .35200004 .35300005 .24800003 .37400005 Z "/>
</symbol>
<use xlink:href="#font_1_5" transform="matrix(9.9626,0,0,-9.9626,106.97143,130.01117)"/>
<symbol id="font_2_1">
<path d="M .117000009 .194 C .117000009 .26 .092 .29900003 .05300001 .29900003 C .020000004 .29900003 0 .274 0 .246 C 0 .21900001 .020000004 .193 .05300001 .193 C .065000008 .193 .078 .197 .08800001 .206 C .091 .208 .092 .209 .093 .209 C .094000007 .209 .095000009 .208 .095000009 .194 C .095000009 .12 .06000001 .060000004 .027000003 .026999996 C .016000003 .016000003 .016000003 .013999999 .016000003 .0109999929 C .016000003 .003999993 .021000006 0 .026 0 C .037 0 .117000009 .077 .117000009 .194 Z "/>
</symbol>
<use xlink:href="#font_2_1" transform="matrix(9.9626,0,0,-9.9626,112.390789,131.71477)"/>
<symbol id="font_1_3">
<path d="M .205 .64000007 C .205 .66400006 .205 .666 .18200003 .666 C .120000008 .60200008 .032000007 .60200008 0 .60200008 L 0 .57100006 C .020000004 .57100006 .07900001 .57100006 .13100001 .597 L .13100001 .079 C .13100001 .043 .128 .031000002 .038000004 .031000002 L .0060000049 .031000002 L .0060000049 0 C .04100001 .003 .128 .003 .168 .003 C .20800002 .003 .29500003 .003 .33000005 0 L .33000005 .031000002 L .29800005 .031000002 C .20800002 .031000002 .205 .042000005 .205 .079 L .205 .64000007 Z "/>
</symbol>
<use xlink:href="#font_1_3" transform="matrix(9.9626,0,0,-9.9626,116.84868,129.79199)"/>
<use xlink:href="#font_2_2" transform="matrix(9.9626,0,0,-9.9626,121.49195,132.28264)"/>
<use xlink:href="#font_1_5" transform="matrix(9.9626,0,0,-9.9626,126.34344,130.01117)"/>
<use xlink:href="#font_2_1" transform="matrix(9.9626,0,0,-9.9626,131.76279,131.71477)"/>
<symbol id="font_3_1">
<path d="M .57600006 0 C .59300008 0 .611 0 .611 .019999996 C .611 .040000008 .59300008 .040000008 .57600006 .040000008 L .035000005 .040000008 C .018 .040000008 0 .040000008 0 .019999996 C 0 0 .018 0 .035000005 0 L .57600006 0 Z "/>
</symbol>
<use xlink:href="#font_3_1" transform="matrix(9.9626,0,0,-9.9626,136.1609,127.500598)"/>
<symbol id="font_1_6">
<path d="M .42000003 .63100007 C .42900003 .64300009 .42900003 .64500007 .42900003 .66600009 L .18600002 .66600009 C .064 .66600009 .062000008 .679 .058000007 .6980001 L .033 .6980001 L 0 .49200005 L .024999999 .49200005 C .028000005 .508 .037 .57100006 .050000006 .58300009 C .057000005 .58900007 .13500002 .58900007 .148 .58900007 L .35500003 .58900007 C .344 .573 .26500003 .46400006 .24300003 .43100003 C .153 .29600004 .12000001 .157 .12000001 .055 C .12000001 .045 .12000001 0 .16600001 0 C .21200001 0 .21200001 .045 .21200001 .055 L .21200001 .106000009 C .21200001 .16100002 .21500004 .216 .22300002 .27 C .22700003 .29300005 .24100003 .37900005 .28500004 .44100005 L .42000003 .63100007 Z "/>
</symbol>
<use xlink:href="#font_1_6" transform="matrix(9.9626,0,0,-9.9626,143.64092,130.01117)"/>
<use xlink:href="#font_2_2" transform="matrix(9.9626,0,0,-9.9626,148.61194,132.28264)"/>
<symbol id="font_1_2">
<path d="M .232 .5 C .232 .578 .22100002 .699 .16600001 .81200006 C .106 .93500009 .020000004 1 .009999998 1 C .0040000008 1 0 .99600008 0 .99 C 0 .98700007 0 .985 .019000002 .967 C .117000009 .86800006 .174 .709 .174 .5 C .174 .329 .137 .153 .012999997 .026999996 C 0 .014999986 0 .012999982 0 .00999999 C 0 .003999993 .0040000008 0 .009999998 0 C .020000004 0 .11000001 .06799999 .169 .195 C .22 .305 .232 .416 .232 .5 Z "/>
</symbol>
<use xlink:href="#font_1_5" transform="matrix(9.9626,0,0,-9.9626,153.46442,130.01117)"/>
<use xlink:href="#font_1_2" transform="matrix(9.9626,0,0,-9.9626,158.59516,132.28264)"/>
</g>
<path transform="matrix(1,0,0,-1,97.225,97.233)" stroke-width="1" stroke-linecap="butt" stroke-miterlimit="10" stroke-linejoin="miter" fill="none" stroke="#808080" d="M -25.65254 -1.26434 L -22.96033 -2.15305 "/>
<path transform="matrix(1,0,0,-1,97.225,97.233)" stroke-width="1" stroke-linecap="butt" stroke-miterlimit="10" stroke-linejoin="miter" fill="none" stroke="#808080" d="M -50.63185 -9.06583 L -46.59392 -10.39876 "/>
<path transform="matrix(1,0,0,-1,97.225,97.233)" stroke-width="1" stroke-linecap="butt" stroke-miterlimit="10" stroke-linejoin="miter" fill="none" stroke="#808080" d="M 25.65254 -1.26434 L 22.96033 -2.15305 "/>
<path transform="matrix(1,0,0,-1,97.225,97.233)" stroke-width="1" stroke-linecap="butt" stroke-miterlimit="10" stroke-linejoin="miter" fill="none" stroke="#808080" d="M 50.63185 -9.06583 L 46.59392 -10.39876 "/>
<path transform="matrix(1,0,0,-1,97.225,97.233)" stroke-width="1" stroke-linecap="butt" stroke-miterlimit="10" stroke-linejoin="miter" fill="none" stroke="#000000" d="M 36.45966 18.3503 L -58.87395 -13.11949 "/>
<path transform="matrix(-.94963,.31348,.31348,.94963,38.351049,110.35249)" d="M 1.99252 0 L -1.19551 1.59401 L 0 0 L -1.19551 -1.59401 "/>
<path transform="matrix(1,0,0,-1,97.225,97.233)" stroke-width="1" stroke-linecap="butt" stroke-miterlimit="10" stroke-linejoin="miter" fill="none" stroke="#000000" d="M -36.45966 18.3503 L 58.87395 -13.11949 "/>
<path transform="matrix(.94963,.31348,.31348,-.94963,156.09896,110.35249)" d="M 1.99252 0 L -1.19551 1.59401 L 0 0 L -1.19551 -1.59401 "/>
<symbol id="font_4_1">
<path d="M .442 .18200001 L .40800003 .18200001 C .40500004 .16000001 .39500005 .101 .38200004 .091000009 C .374 .085 .29700003 .085 .28300003 .085 L .099 .085 C .20400003 .178 .23900002 .20600002 .29900003 .25300003 C .37300004 .312 .442 .374 .442 .469 C .442 .59000006 .33600004 .66400006 .20800004 .66400006 C .084 .66400006 0 .577 0 .485 C 0 .43400003 .043000007 .42900003 .053000004 .42900003 C .077 .42900003 .10600001 .446 .10600001 .48200003 C .10600001 .5 .099 .535 .047000007 .535 C .078 .606 .146 .628 .19300002 .628 C .293 .628 .34500004 .55 .34500004 .469 C .34500004 .38200004 .28300003 .31300003 .25100003 .277 L .010000005 .039 C 0 .030000002 0 .028 0 0 L .41200004 0 L .442 .18200001 Z "/>
</symbol>
<use xlink:href="#font_4_1" transform="matrix(6.9738,0,0,-6.9738,49.53135,114.748)"/>
<use xlink:href="#font_4_1" transform="matrix(6.9738,0,0,-6.9738,141.82535,114.748)"/>
<path transform="matrix(1,0,0,-1,97.225,97.233)" stroke-width="1" stroke-linecap="butt" stroke-miterlimit="10" stroke-linejoin="miter" fill="none" stroke="#808080" d="M 24.30644 -3.12628 L 24.30644 -.2911 "/>
<path transform="matrix(1,0,0,-1,97.225,97.233)" stroke-width="1" stroke-linecap="butt" stroke-miterlimit="10" stroke-linejoin="miter" fill="none" stroke="#808080" d="M 48.61288 -11.85849 L 48.61288 -7.60612 "/>
<path transform="matrix(1,0,0,-1,97.225,97.233)" stroke-width="1" stroke-linecap="butt" stroke-miterlimit="10" stroke-linejoin="miter" fill="none" stroke="#808080" d="M -2.01897 67.75279 L 2.01895 66.41986 "/>
<path transform="matrix(1,0,0,-1,97.225,97.233)" stroke-width="1" stroke-linecap="butt" stroke-miterlimit="10" stroke-linejoin="miter" fill="none" stroke="#000000" d="M 0 -24.0708 L 0 71.17094 "/>
<path transform="matrix(0,-1,-1,-0,97.225,26.062066)" d="M 1.99252 0 L -1.19551 1.59401 L 0 0 L -1.19551 -1.59401 "/>
<symbol id="font_4_2">
<path d="M .092 .578 C .143 .565 .17300001 .565 .18900001 .565 C .321 .565 .39900003 .65500006 .39900003 .67 C .39900003 .681 .39200003 .684 .38700003 .684 C .38500003 .684 .38300003 .684 .37900005 .681 C .35500003 .672 .30200003 .652 .22800002 .652 C .20000002 .652 .14700002 .654 .08200001 .679 C .072000008 .684 .07 .684 .069 .684 C .056 .684 .056 .67300006 .056 .657 L .056 .36200003 C .056 .34500004 .056 .33300004 .072000008 .33300004 C .08100001 .33300004 .08200001 .33500005 .092 .34700004 C .13500002 .40200005 .19600001 .41000004 .231 .41000004 C .291 .41000004 .31800003 .36200003 .323 .35400004 C .34100003 .32100005 .34700004 .28300003 .34700004 .22500001 C .34700004 .19500001 .34700004 .136 .31700004 .09200001 C .29200004 .056 .24900002 .032 .20000002 .032 C .13500002 .032 .06800001 .068 .043000007 .134 C .08100001 .13100001 .1 .156 .1 .183 C .1 .22600001 .063 .23400001 .050000006 .23400001 C .048000009 .23400001 0 .23400001 0 .18 C 0 .09 .08200001 0 .20200002 0 C .33 0 .442 .095000009 .442 .221 C .442 .33400003 .35600005 .43800003 .23200003 .43800003 C .18800003 .43800003 .136 .42700003 .092 .38900004 L .092 .578 Z "/>
</symbol>
<use xlink:href="#font_4_2" transform="matrix(6.9738,0,0,-6.9738,88.080348,31.867474)"/>
<path transform="matrix(1,0,0,-1,97.225,97.233)" stroke-width="1" stroke-linecap="butt" stroke-miterlimit="10" stroke-linejoin="miter" fill="none" stroke="#808080" d="M -24.30644 -3.12628 L -24.30644 -.2911 "/>
<path transform="matrix(1,0,0,-1,97.225,97.233)" stroke-width="1" stroke-linecap="butt" stroke-miterlimit="10" stroke-linejoin="miter" fill="none" stroke="#808080" d="M -48.61288 -11.85849 L -48.61288 -7.60612 "/>
<path transform="matrix(1,0,0,-1,97.225,97.233)" stroke-width="1" stroke-linecap="butt" stroke-miterlimit="10" stroke-linejoin="miter" fill="none" stroke="#808080" d="M 2.01897 67.75279 L -2.01895 66.41986 "/>
<symbol id="font_5_1">
<path d="M .201 .116000007 C .19100002 .082 .15800002 .028 .107 .028 C .10400001 .028 .07400001 .028 .053000004 .042000005 C .094000007 .055000005 .09700001 .091 .09700001 .097 C .09700001 .119 .080000009 .134 .057000005 .134 C .029000007 .134 0 .11 0 .073 C 0 .023000002 .056 0 .10500001 0 C .15100003 0 .192 .029000003 .21700001 .071 C .241 .018000002 .296 0 .336 0 C .451 0 .512 .125 .512 .15300001 C .512 .16600001 .49900005 .16600001 .49600003 .16600001 C .48200003 .16600001 .48100005 .16100002 .47700004 .14900002 C .456 .08 .39600004 .028 .34 .028 C .3 .028 .279 .055000005 .279 .093 C .279 .119 .303 .21000001 .331 .321 C .351 .398 .39600004 .423 .42900003 .423 C .43100003 .423 .46200005 .423 .483 .409 C .451 .4 .439 .372 .439 .354 C .439 .33200003 .456 .317 .479 .317 C .50200006 .317 .535 .336 .535 .37800003 C .535 .43400003 .47100006 .451 .43100003 .451 C .381 .451 .34100003 .418 .319 .38 C .301 .421 .255 .451 .199 .451 C .087000008 .451 .023000002 .328 .023000002 .298 C .023000002 .285 .037 .285 .040000008 .285 C .053000004 .285 .054000006 .289 .059000009 .30200003 C .084 .38 .14700002 .423 .19600001 .423 C .229 .423 .256 .405 .256 .357 C .256 .337 .24400002 .287 .23500002 .25300003 L .201 .116000007 Z "/>
</symbol>
<use xlink:href="#font_5_1" transform="matrix(6.9738,0,0,-6.9738,29.553744,113.54373)"/>
<symbol id="font_5_2">
<path d="M .50900009 .58100005 C .513 .595 .513 .597 .513 .60300007 C .513 .623 .49700005 .63500007 .48000003 .63500007 C .46900005 .63500007 .45000003 .63000008 .43900005 .611 C .43600003 .605 .42800004 .573 .42300005 .55300006 L .40200005 .47000004 C .39600004 .44600005 .36500005 .32000003 .36200003 .30900003 C .36100004 .30900003 .31700004 .22200002 .23900001 .22200002 C .171 .22200002 .171 .287 .171 .305 C .171 .35900004 .194 .42200003 .22400002 .499 C .23600002 .531 .24100001 .54300007 .24100001 .56 C .24100001 .60800006 .2 .64500007 .146 .64500007 C .045000007 .64500007 0 .509 0 .49200005 C 0 .47900004 .014000002 .47900004 .017 .47900004 C .031 .47900004 .032 .48400004 .035 .495 C .060000007 .578 .103 .61700007 .143 .61700007 C .16000001 .61700007 .168 .606 .168 .582 C .168 .559 .15900001 .537 .154 .52400007 C .106000009 .402 .096 .365 .096 .321 C .096 .30400003 .096 .25700004 .135 .22500001 C .16600001 .19900002 .20800002 .194 .235 .194 C .27500005 .194 .31100003 .209 .34400005 .23900001 C .33100004 .18400002 .32000003 .142 .27800004 .09200001 C .25100003 .061000006 .21100001 .027999998 .158 .027999998 C .15100001 .027999998 .104 .027999998 .083000008 .061000006 C .13700001 .067 .13700001 .11500001 .13700001 .116000007 C .13700001 .148 .107999999 .15400002 .098000008 .15400002 C .073 .15400002 .040000004 .134 .040000004 .08800001 C .040000004 .037 .088 0 .15900001 0 C .26000003 0 .38300003 .07800001 .41400004 .20300001 L .50900009 .58100005 Z "/>
</symbol>
<use xlink:href="#font_5_2" transform="matrix(6.9738,0,0,-6.9738,160.15778,117.20766)"/>
<symbol id="font_5_3">
<path d="M .10700001 .098000008 C .133 .124000009 .15100001 .143 .23600002 .21100001 C .25700004 .22800002 .33200003 .28800003 .361 .316 C .422 .37600003 .46000005 .42700003 .46000005 .439 C .46000005 .451 .44700004 .451 .44300003 .451 C .43400003 .451 .431 .449 .426 .441 C .39500005 .395 .374 .38 .35000003 .38 C .338 .38 .323 .381 .29299999 .41 C .259 .444 .237 .451 .214 .451 C .134 .451 .08 .364 .08 .334 C .08 .32500003 .09 .322 .097 .322 C .109 .322 .111 .32500003 .11500001 .336 C .13000001 .37100003 .186 .373 .202 .373 C .22500001 .373 .251 .367 .265 .364 C .32 .352 .32700003 .352 .352 .352 C .32600004 .32500003 .30800004 .307 .21300002 .23100002 C .135 .16900002 .10800001 .14400001 .089 .124000009 C .029 .065000008 0 .021000002 0 .012000001 C 0 0 .012999997 0 .016999998 0 C .027000003 0 .029 .0020000004 .034 .010000001 C .061000006 .048000006 .09200001 .071 .126 .071 C .13800001 .071 .15300001 .07 .18 .045 C .21100001 .015000001 .23100002 0 .263 0 C .37 0 .43700005 .12100001 .43700005 .15500002 C .43700005 .16700001 .426 .16800002 .42000003 .16800002 C .408 .16800002 .40600003 .16300002 .402 .15200001 C .38300003 .102000009 .324 .078 .27500005 .078 C .25200004 .078 .22700002 .083000008 .202 .089 C .156 .099 .148 .099 .13000001 .099 C .128 .099 .113000009 .099 .10700001 .098000008 Z "/>
</symbol>
<use xlink:href="#font_5_3" transform="matrix(6.9738,0,0,-6.9738,95.6034,21.656729)"/>
</svg>
