<?xml version="1.0" encoding="UTF-8" standalone="no"?>
<!DOCTYPE svg PUBLIC "-//W3C//DTD SVG 1.1//EN" "http://www.w3.org/Graphics/SVG/1.1/DTD/svg11.dtd">
<svg xmlns="http://www.w3.org/2000/svg" xmlns:xlink="http://www.w3.org/1999/xlink" version="1.1" width="194.449pt" height="161.54pt" viewBox="0 0 194.449 161.54">
<path transform="matrix(1,0,0,-1,61.835,83.675998)" stroke-width="1" stroke-linecap="butt" stroke-miterlimit="10" stroke-linejoin="miter" fill="none" stroke="#000000" d="M 33.15399 14.72919 L -27.1634 -37.0705 "/>
<path transform="matrix(-.76193,.65437,.65437,.76193,34.671609,120.74649)" d="M 1.99252 0 L -1.19551 1.59401 L 0 0 L -1.19551 -1.59401 "/>
<path transform="matrix(1,0,0,-1,61.835,83.675998)" stroke-width="1" stroke-linecap="butt" stroke-miterlimit="10" stroke-linejoin="miter" fill="none" stroke="#000000" d="M -46.37666 -18.90822 L 84.2783 -43.30305 "/>
<path transform="matrix(.98418,.18376,.18376,-.98418,146.1133,126.979038)" d="M 1.99252 0 L -1.19551 1.59401 L 0 0 L -1.19551 -1.59401 "/>
<path transform="matrix(1,0,0,-1,61.835,83.675998)" stroke-width="1" stroke-linecap="butt" stroke-miterlimit="10" stroke-linejoin="miter" fill="none" stroke="#000000" d="M -13.22267 -46.0179 L -13.22267 35.66733 "/>
<path transform="matrix(0,-1,-1,-0,48.612329,48.008665)" d="M 1.99252 0 L -1.19551 1.59401 L 0 0 L -1.19551 -1.59401 "/>
<clipPath id="cp0">
<path transform="matrix(1,0,0,-1,61.835,83.675998)" d="M -61.83556 -53.10355 L -61.83556 30.57422 L 0 83.67776 L 132.61597 58.91678 L 132.61597 -24.76097 L 70.78041 -77.86453 Z "/>
</clipPath>
<g clip-path="url(#cp0)">
<path transform="matrix(1,0,0,-1,61.835,83.675998)" d="M -13.22267 -25.09846 L 17.6951 1.45331 L 17.6951 43.29219 L -13.22267 16.74042 L -13.22267 -25.09846 " fill="#cccce6"/>
<path transform="matrix(1,0,0,-1,61.835,83.675998)" stroke-width="1.19553" stroke-linecap="butt" stroke-miterlimit="10" stroke-linejoin="miter" fill="none" stroke="#000080" d="M -13.22267 -25.09846 L 17.6951 1.45331 L 17.6951 43.29219 L -13.22267 16.74042 L -13.22267 -25.09846 "/>
<path transform="matrix(1,0,0,-1,61.835,83.675998)" stroke-width="1.59404" stroke-linecap="butt" stroke-miterlimit="10" stroke-linejoin="miter" fill="none" stroke="#000080" d="M 2.2362 9.09686 L 31.66429 3.6023 "/>
<path transform="matrix(.98418,.18376,.18376,-.98418,93.49928,80.07369)" d="M 3.78581 0 L -2.27148 3.02866 L 0 0 L -2.27148 -3.02866 " fill="#000080"/>
</g>
<symbol id="font_1_1">
<path d="M .201 .116000007 C .19100002 .082 .15800002 .028 .107 .028 C .10400001 .028 .07400001 .028 .053000004 .042000005 C .094000007 .055000005 .09700001 .091 .09700001 .097 C .09700001 .119 .080000009 .134 .057000005 .134 C .029000007 .134 0 .11 0 .073 C 0 .023000002 .056 0 .10500001 0 C .15100003 0 .192 .029000003 .21700001 .071 C .241 .018000002 .296 0 .336 0 C .451 0 .512 .125 .512 .15300001 C .512 .16600001 .49900005 .16600001 .49600003 .16600001 C .48200003 .16600001 .48100005 .16100002 .47700004 .14900002 C .456 .08 .39600004 .028 .34 .028 C .3 .028 .279 .055000005 .279 .093 C .279 .119 .303 .21000001 .331 .321 C .351 .398 .39600004 .423 .42900003 .423 C .43100003 .423 .46200005 .423 .483 .409 C .451 .4 .439 .372 .439 .354 C .439 .33200003 .456 .317 .479 .317 C .50200006 .317 .535 .336 .535 .37800003 C .535 .43400003 .47100006 .451 .43100003 .451 C .381 .451 .34100003 .418 .319 .38 C .301 .421 .255 .451 .199 .451 C .087000008 .451 .023000002 .328 .023000002 .298 C .023000002 .285 .037 .285 .040000008 .285 C .053000004 .285 .054000006 .289 .059000009 .30200003 C .084 .38 .14700002 .423 .19600001 .423 C .229 .423 .256 .405 .256 .357 C .256 .337 .24400002 .287 .23500002 .25300003 L .201 .116000007 Z "/>
</symbol>
<use xlink:href="#font_1_1" transform="matrix(6.9738,0,0,-6.9738,30.23274,127.606739)"/>
<symbol id="font_1_2">
<path d="M .50900009 .58100005 C .513 .595 .513 .597 .513 .60300007 C .513 .623 .49700005 .63500007 .48000003 .63500007 C .46900005 .63500007 .45000003 .63000008 .43900005 .611 C .43600003 .605 .42800004 .573 .42300005 .55300006 L .40200005 .47000004 C .39600004 .44600005 .36500005 .32000003 .36200003 .30900003 C .36100004 .30900003 .31700004 .22200002 .23900001 .22200002 C .171 .22200002 .171 .287 .171 .305 C .171 .35900004 .194 .42200003 .22400002 .499 C .23600002 .531 .24100001 .54300007 .24100001 .56 C .24100001 .60800006 .2 .64500007 .146 .64500007 C .045000007 .64500007 0 .509 0 .49200005 C 0 .47900004 .014000002 .47900004 .017 .47900004 C .031 .47900004 .032 .48400004 .035 .495 C .060000007 .578 .103 .61700007 .143 .61700007 C .16000001 .61700007 .168 .606 .168 .582 C .168 .559 .15900001 .537 .154 .52400007 C .106000009 .402 .096 .365 .096 .321 C .096 .30400003 .096 .25700004 .135 .22500001 C .16600001 .19900002 .20800002 .194 .235 .194 C .27500005 .194 .31100003 .209 .34400005 .23900001 C .33100004 .18400002 .32000003 .142 .27800004 .09200001 C .25100003 .061000006 .21100001 .027999998 .158 .027999998 C .15100001 .027999998 .104 .027999998 .083000008 .061000006 C .13700001 .067 .13700001 .11500001 .13700001 .116000007 C .13700001 .148 .107999999 .15400002 .098000008 .15400002 C .073 .15400002 .040000004 .134 .040000004 .08800001 C .040000004 .037 .088 0 .15900001 0 C .26000003 0 .38300003 .07800001 .41400004 .20300001 L .50900009 .58100005 Z "/>
</symbol>
<use xlink:href="#font_1_2" transform="matrix(6.9738,0,0,-6.9738,151.23677,132.57965)"/>
<symbol id="font_1_3">
<path d="M .10700001 .098000008 C .133 .124000009 .15100001 .143 .23600002 .21100001 C .25700004 .22800002 .33200003 .28800003 .361 .316 C .422 .37600003 .46000005 .42700003 .46000005 .439 C .46000005 .451 .44700004 .451 .44300003 .451 C .43400003 .451 .431 .449 .426 .441 C .39500005 .395 .374 .38 .35000003 .38 C .338 .38 .323 .381 .29299999 .41 C .259 .444 .237 .451 .214 .451 C .134 .451 .08 .364 .08 .334 C .08 .32500003 .09 .322 .097 .322 C .109 .322 .111 .32500003 .11500001 .336 C .13000001 .37100003 .186 .373 .202 .373 C .22500001 .373 .251 .367 .265 .364 C .32 .352 .32700003 .352 .352 .352 C .32600004 .32500003 .30800004 .307 .21300002 .23100002 C .135 .16900002 .10800001 .14400001 .089 .124000009 C .029 .065000008 0 .021000002 0 .012000001 C 0 0 .012999997 0 .016999998 0 C .027000003 0 .029 .0020000004 .034 .010000001 C .061000006 .048000006 .09200001 .071 .126 .071 C .13800001 .071 .15300001 .07 .18 .045 C .21100001 .015000001 .23100002 0 .263 0 C .37 0 .43700005 .12100001 .43700005 .15500002 C .43700005 .16700001 .426 .16800002 .42000003 .16800002 C .408 .16800002 .40600003 .16300002 .402 .15200001 C .38300003 .102000009 .324 .078 .27500005 .078 C .25200004 .078 .22700002 .083000008 .202 .089 C .156 .099 .148 .099 .13000001 .099 C .128 .099 .113000009 .099 .10700001 .098000008 Z "/>
</symbol>
<use xlink:href="#font_1_3" transform="matrix(6.9738,0,0,-6.9738,46.9914,43.602727)"/>
</svg>
