<?xml version="1.0" encoding="UTF-8" standalone="no"?>
<!DOCTYPE svg PUBLIC "-//W3C//DTD SVG 1.1//EN" "http://www.w3.org/Graphics/SVG/1.1/DTD/svg11.dtd">
<svg xmlns="http://www.w3.org/2000/svg" xmlns:xlink="http://www.w3.org/1999/xlink" version="1.1" width="125.568pt" height="51.247pt" viewBox="0 0 125.568 51.247">
<symbol id="font_0_1">
<path d="M .501 .284 C .448 .34600003 .43199999 .363 .394 .39000003 C .333 .43400003 .269 .451 .214 .451 C .09 .451 0 .345 0 .22500001 C 0 .108 .085999999 0 .21100001 0 C .35000003 0 .44700004 .114 .48299999 .16700001 C .536 .105000007 .552 .088 .59000006 .061000006 C .651 .017 .71500006 0 .77000007 0 C .89400008 0 .9840001 .106 .9840001 .22600001 C .9840001 .343 .898 .451 .773 .451 C .634 .451 .537 .337 .501 .284 M .533 .24700003 C .573 .312 .66 .41300003 .782 .41300003 C .88500007 .41300003 .956 .322 .956 .22600001 C .956 .13000001 .878 .055000005 .786 .055000005 C .693 .055000005 .629 .13100001 .533 .24700003 M .45099999 .20400001 C .411 .13900002 .324 .038000004 .202 .038000004 C .09900001 .038000004 .027999998 .12900001 .027999998 .22500001 C .027999998 .321 .106000009 .396 .198 .396 C .291 .396 .35500003 .32 .45099999 .20400001 Z "/>
</symbol>
<use xlink:href="#font_0_1" transform="matrix(6.9738,0,0,-6.9738,12.725984,7.463739)"/>
<symbol id="font_1_1">
<path d="M 1.21 0 L 1.3310001 .32000006 L 1.3060001 .32000006 C 1.2670001 .21600008 1.161 .148 1.046 .11800003 C 1.0250001 .113000039 .92700007 .08700001 .735 .08700001 L .132 .08700001 L .64100006 .6840001 C .64800009 .6920001 .65000006 .69500008 .65000006 .70000007 C .65000006 .7020001 .65000006 .70500007 .64300009 .71500006 L .17700002 1.3520001 L .725 1.3520001 C .859 1.3520001 .95000007 1.338 .9590001 1.3360001 C 1.013 1.3280001 1.1 1.3110001 1.179 1.261 C 1.2040001 1.2450001 1.2720001 1.2 1.3060001 1.1190001 L 1.3310001 1.1190001 L 1.21 1.4000001 L .028000005 1.4000001 C .0050000029 1.4000001 .0040000008 1.399 .001000002 1.3930001 C 0 1.3900001 0 1.371 0 1.3600001 L .52900007 .63600006 L .011 .029000044 C .001000002 .01700008 .001000002 .012000084 .001000002 .011000037 C .001000002 0 .009999998 0 .028000005 0 L 1.21 0 Z "/>
</symbol>
<use xlink:href="#font_1_1" transform="matrix(9.9626,0,0,-9.9626,9.522906,24.32964)"/>
<symbol id="font_2_1">
<path d="M .23800002 .674 C .23900001 .676 .242 .689 .242 .69 C .242 .69500008 .23800002 .704 .22600003 .704 C .20600002 .704 .12300001 .69600006 .098000008 .694 C .09 .693 .076000008 .69200006 .076000008 .671 C .076000008 .657 .09 .657 .102 .657 C .15 .657 .15 .65000006 .15 .642 C .15 .635 .148 .629 .14600002 .62 L .0050000029 .054000006 C 0 .036000004 0 .034 0 .032 C 0 .017 .012000002 0 .034 0 C .061000006 0 .074 .020000002 .08 .042000005 C .082 .046000005 .125 .22200002 .12900001 .23600002 C .2 .22900002 .25700004 .20600002 .25700004 .15400002 C .25700004 .14900002 .25700004 .14400001 .255 .134 C .251 .119 .251 .114 .251 .103 C .251 .032 .30900003 0 .357 0 C .45400007 0 .48400004 .15200001 .48400004 .15300001 C .48400004 .16600001 .47100003 .16600001 .46800006 .16600001 C .45400007 .16600001 .453 .16100002 .448 .142 C .43600006 .099 .40900005 .028 .36 .028 C .333 .028 .325 .053000004 .325 .08 C .325 .097 .325 .099 .33100004 .125 C .33200003 .128 .33600004 .14500001 .33600004 .15600002 C .33600004 .24500002 .216 .259 .17400001 .262 C .20300003 .28 .24000003 .313 .25700004 .328 C .30800004 .37600003 .35800005 .423 .41400004 .423 C .42600007 .423 .439 .42000003 .44700004 .41 C .40400005 .403 .39500005 .36900003 .39500005 .354 C .39500005 .33200003 .412 .317 .43500007 .317 C .462 .317 .49200005 .33900003 .49200005 .381 C .49200005 .414 .46800006 .451 .41500003 .451 C .35800005 .451 .306 .41 .255 .363 C .21300002 .323 .18000002 .292 .13900002 .275 L .23800002 .674 Z "/>
</symbol>
<use xlink:href="#font_2_1" transform="matrix(6.9738,0,0,-6.9738,3.917036,31.899739)"/>
<symbol id="font_3_3">
<path d="M .698 .22000003 C .71300008 .22000003 .73600009 .22000003 .73600009 .24500004 C .73600009 .26900003 .7120001 .26900003 .69900009 .26900003 L .037000009 .26900003 C .024000004 .26900003 0 .26900003 0 .24500004 C 0 .22000003 .023000002 .22000003 .038000004 .22000003 L .698 .22000003 M .69900009 0 C .7120001 0 .73600009 0 .73600009 .023999997 C .73600009 .049000004 .71300008 .049000004 .698 .049000004 L .038000004 .049000004 C .023000002 .049000004 0 .049000004 0 .023999997 C 0 0 .024000004 0 .037000009 0 L .69900009 0 Z "/>
</symbol>
<use xlink:href="#font_3_3" transform="matrix(6.9738,0,0,-6.9738,8.286167,31.02104)"/>
<symbol id="font_2_2">
<path d="M .075 .073 C .07100001 .060000004 .065 .035 .065 .032 C .065 .010000001 .083000008 0 .09900001 0 C .117 0 .133 .013 .138 .022 C .143 .031000004 .15100001 .063 .156 .084 C .161 .103 .172 .14900002 .178 .17400001 C .184 .19600001 .19000001 .21800001 .19500001 .24100001 C .20600002 .282 .20800002 .29 .237 .331 C .26500003 .37100003 .31200005 .423 .38700003 .423 C .44500003 .423 .44600005 .372 .44600005 .35300002 C .44600005 .293 .40300004 .18200001 .38700003 .14000002 C .37600003 .112 .37200005 .103 .37200005 .086 C .37200005 .033000005 .41600005 0 .467 0 C .56700006 0 .61100009 .13800001 .61100009 .15300001 C .61100009 .16600001 .59800007 .16600001 .595 .16600001 C .58100005 .16600001 .58000007 .16000001 .57600006 .14900002 C .55300006 .069000009 .51000007 .028 .47000004 .028 C .44900004 .028 .44500003 .042000005 .44500003 .063 C .44500003 .086 .45000003 .099 .46800006 .14400001 C .48000003 .17500001 .521 .28100003 .521 .337 C .521 .43400003 .44400005 .451 .39100004 .451 C .30800004 .451 .25200004 .4 .22200002 .36 C .21500002 .42900003 .156 .451 .114999998 .451 C .072 .451 .049 .42000003 .036000004 .397 C .014000002 .36 0 .303 0 .298 C 0 .285 .014000002 .285 .017 .285 C .031 .285 .032 .28800003 .039 .315 C .054 .374 .073 .423 .112 .423 C .138 .423 .145 .40100003 .145 .374 C .145 .35500003 .136 .31800003 .12900001 .291 C .12200001 .264 .112 .22300002 .10700001 .20100002 L .075 .073 Z "/>
</symbol>
<use xlink:href="#font_2_2" transform="matrix(6.9738,0,0,-6.9738,14.241769,31.899739)"/>
<symbol id="font_3_1">
<path d="M .39300005 .344 L .69900009 .344 C .7120001 .344 .73600009 .344 .73600009 .368 C .73600009 .393 .71300008 .393 .69900009 .393 L .39300005 .393 L .39300005 .70000007 C .39300005 .71300008 .39300005 .73700007 .36900003 .73700007 C .34400005 .73700007 .34400005 .71400007 .34400005 .70000007 L .34400005 .393 L .037000009 .393 C .024000004 .393 0 .393 0 .36900003 C 0 .344 .023000002 .344 .037000009 .344 L .34400005 .344 L .34400005 .037000009 C .34400005 .024000004 .34400005 0 .36800004 0 C .39300005 0 .39300005 .023000002 .39300005 .037000009 L .39300005 .344 Z "/>
</symbol>
<symbol id="font_3_2">
<path d="M .22600001 .63600006 C .22600001 .66300007 .224 .66400006 .19600001 .66400006 C .132 .601 .041 .6 0 .6 L 0 .564 C .023999997 .564 .09000001 .564 .14500001 .592 L .14500001 .082 C .14500001 .049000004 .14500001 .036000004 .04500001 .036000004 L .0069999995 .036000004 L .0069999995 0 C .024999999 .001 .148 .004 .185 .004 C .21600002 .004 .34200005 .001 .36400003 0 L .36400003 .036000004 L .32600004 .036000004 C .22600001 .036000004 .22600001 .049000004 .22600001 .082 L .22600001 .63600006 Z "/>
</symbol>
<use xlink:href="#font_3_1" transform="matrix(6.9738,0,0,-6.9738,19.327168,32.65291)"/>
<use xlink:href="#font_3_2" transform="matrix(6.9738,0,0,-6.9738,25.715168,31.83)"/>
<symbol id="font_4_2">
<path d="M .33300004 .38900004 C .31500004 .42600004 .286 .45300005 .24100001 .45300005 C .124 .45300005 0 .30600003 0 .16000001 C 0 .06600001 .055000005 0 .133 0 C .153 0 .20300001 .0040000008 .263 .075 C .27100004 .033000005 .30600003 0 .35400004 0 C .38900004 0 .41200004 .023000002 .42800004 .055000005 C .44500003 .091000009 .45800004 .15200001 .45800004 .15400002 C .45800004 .16400002 .44900004 .16400002 .44600005 .16400002 C .43600003 .16400002 .43500004 .16000001 .43200005 .14600002 C .41500003 .081 .397 .022000002 .35600005 .022000002 C .32900004 .022000002 .32600004 .048 .32600004 .068 C .32600004 .09 .32800005 .098000008 .33900003 .14200002 C .35000003 .18400002 .35200004 .19400002 .36100004 .23200003 L .397 .37200005 C .40400005 .40000005 .40400005 .40200005 .40400005 .40600003 C .40400005 .42300005 .39200003 .43300004 .37500004 .43300004 C .35100005 .43300004 .33600004 .411 .33300004 .38900004 M .26800005 .13000001 C .263 .112 .263 .11000001 .24800001 .093 C .20400001 .038000004 .163 .022000002 .135 .022000002 C .08499999 .022000002 .07100001 .077 .07100001 .116000007 C .07100001 .16600001 .103 .28900004 .126 .335 C .157 .39400003 .202 .43100003 .242 .43100003 C .307 .43100003 .32100005 .34900005 .32100005 .34300003 C .32100005 .337 .31900005 .33100004 .31800003 .32600004 L .26800005 .13000001 Z "/>
</symbol>
<use xlink:href="#font_4_2" transform="matrix(9.9626,0,0,-9.9626,30.984507,19.956589)"/>
<use xlink:href="#font_2_1" transform="matrix(6.9738,0,0,-6.9738,36.376039,21.410738)"/>
<symbol id="font_1_4">
<path d="M .484 .09200001 C .484 .115 .484 .120000008 .47 .120000008 C .409 .12100001 .31 .12900001 .22000002 .17300001 C .112 .22700002 .071 .29000003 .046000005 .32900004 C .043 .33400003 .037 .33400003 .024 .33400003 C .0009999983 .33400003 0 .333 0 .30800004 L 0 .29200004 C .136 .047000003 .361 0 .463 0 C .484 0 .484 .001 .484 .028 L .484 .09200001 Z "/>
</symbol>
<use xlink:href="#font_1_4" transform="matrix(9.9626,0,0,-9.9626,3.1548997,37.841)"/>
<path transform="matrix(1,0,0,-1,7.8780009,37.841005)" d="M 0 0 L 9.714 0 L 9.714 1.195 L 0 1.195 Z "/>
<symbol id="font_1_3">
<path d="M .48400004 .04200001 C .34800003 .28700004 .123 .33400003 .021000002 .33400003 C 0 .33400003 0 .333 0 .30600003 L 0 .24200002 C 0 .21900001 0 .21400002 .014 .21400002 C .075 .21300002 .17400001 .20500002 .264 .16100002 C .372 .10700001 .41300003 .044000016 .43800003 .00500001 C .441 0 .447 0 .46 0 C .483 0 .48400004 .001000002 .48400004 .026000008 L .48400004 .04200001 Z "/>
</symbol>
<symbol id="font_1_2">
<path d="M .484 .30600003 C .484 .333 .484 .33400003 .463 .33400003 C .361 .33400003 .136 .286 0 .04200001 L 0 .026000008 C 0 .001000002 .0009999983 0 .024 0 C .043 0 .044 .001000002 .049000004 .008000001 C .13100001 .13900002 .269 .21000003 .472 .21400002 C .484 .21400002 .484 .22100002 .484 .24200002 L .484 .30600003 Z "/>
</symbol>
<use xlink:href="#font_1_3" transform="matrix(9.9626,0,0,-9.9626,17.491374,39.973)"/>
<use xlink:href="#font_1_2" transform="matrix(9.9626,0,0,-9.9626,21.835066,39.973)"/>
<path transform="matrix(1,0,0,-1,26.558003,37.841005)" d="M 0 0 L 9.714 0 L 9.714 1.195 L 0 1.195 Z "/>
<symbol id="font_1_5">
<path d="M .48400004 .30800004 C .48400004 .333 .483 .33400003 .46 .33400003 C .441 .33400003 .44 .333 .435 .326 C .35300002 .19500001 .21500002 .124000009 .012000001 .120000008 C 0 .120000008 0 .113000009 0 .09200001 L 0 .028 C 0 .001 0 0 .021000002 0 C .123 0 .34800003 .048 .48400004 .29200004 L .48400004 .30800004 Z "/>
</symbol>
<use xlink:href="#font_1_5" transform="matrix(9.9626,0,0,-9.9626,36.171377,37.841005)"/>
<symbol id="font_5_1">
<path d="M .63100007 .19400002 C .646 .19400002 .665 .19400002 .665 .214 C .665 .23400001 .646 .23400001 .632 .23400001 L .033 .23400001 C .019000002 .23400001 0 .23400001 0 .214 C 0 .19400002 .019000002 .19400002 .034 .19400002 L .63100007 .19400002 M .632 0 C .646 0 .665 0 .665 .02000001 C .665 .040000008 .646 .040000008 .63100007 .040000008 L .034 .040000008 C .019000002 .040000008 0 .040000008 0 .02000001 C 0 0 .019000002 0 .033 0 L .632 0 Z "/>
</symbol>
<use xlink:href="#font_5_1" transform="matrix(9.9626,0,0,-9.9626,44.079908,18.521977)"/>
<use xlink:href="#font_0_1" transform="matrix(6.9738,0,0,-6.9738,57.848985,7.463739)"/>
<use xlink:href="#font_1_1" transform="matrix(9.9626,0,0,-9.9626,54.64591,24.32964)"/>
<use xlink:href="#font_2_1" transform="matrix(6.9738,0,0,-6.9738,54.561037,31.899739)"/>
<use xlink:href="#font_3_3" transform="matrix(6.9738,0,0,-6.9738,58.92917,31.02104)"/>
<use xlink:href="#font_3_2" transform="matrix(6.9738,0,0,-6.9738,65.31717,31.83)"/>
<use xlink:href="#font_4_2" transform="matrix(9.9626,0,0,-9.9626,70.58751,19.956589)"/>
<use xlink:href="#font_2_1" transform="matrix(6.9738,0,0,-6.9738,75.978038,21.410738)"/>
<use xlink:href="#font_1_4" transform="matrix(9.9626,0,0,-9.9626,53.7989,37.01)"/>
<path transform="matrix(1,0,0,-1,58.521,37.010004)" d="M 0 0 L 4.193 0 L 4.193 1.195 L 0 1.195 Z "/>
<use xlink:href="#font_1_3" transform="matrix(9.9626,0,0,-9.9626,62.614377,39.142)"/>
<use xlink:href="#font_1_2" transform="matrix(9.9626,0,0,-9.9626,66.95807,39.142)"/>
<path transform="matrix(1,0,0,-1,71.681,37.010004)" d="M 0 0 L 4.193 0 L 4.193 1.195 L 0 1.195 Z "/>
<use xlink:href="#font_1_5" transform="matrix(9.9626,0,0,-9.9626,75.774379,37.010004)"/>
<symbol id="font_6_1">
<path d="M .57600006 0 C .59300008 0 .611 0 .611 .019999996 C .611 .040000008 .59300008 .040000008 .57600006 .040000008 L .035000005 .040000008 C .018 .040000008 0 .040000008 0 .019999996 C 0 0 .018 0 .035000005 0 L .57600006 0 Z "/>
</symbol>
<use xlink:href="#font_6_1" transform="matrix(9.9626,0,0,-9.9626,82.843898,17.555603)"/>
<use xlink:href="#font_2_2" transform="matrix(6.9738,0,0,-6.9738,96.536769,7.463739)"/>
<use xlink:href="#font_1_1" transform="matrix(9.9626,0,0,-9.9626,92.034908,24.32964)"/>
<use xlink:href="#font_2_1" transform="matrix(6.9738,0,0,-6.9738,91.94903,31.899739)"/>
<use xlink:href="#font_3_3" transform="matrix(6.9738,0,0,-6.9738,96.31816,31.02104)"/>
<use xlink:href="#font_3_2" transform="matrix(6.9738,0,0,-6.9738,102.70616,31.83)"/>
<use xlink:href="#font_4_2" transform="matrix(9.9626,0,0,-9.9626,107.9765,19.956589)"/>
<use xlink:href="#font_2_1" transform="matrix(6.9738,0,0,-6.9738,113.36703,21.410738)"/>
<use xlink:href="#font_1_4" transform="matrix(9.9626,0,0,-9.9626,91.18689,37.01)"/>
<path transform="matrix(1,0,0,-1,95.91,37.010004)" d="M 0 0 L 4.193 0 L 4.193 1.195 L 0 1.195 Z "/>
<use xlink:href="#font_1_3" transform="matrix(9.9626,0,0,-9.9626,100.00337,39.142)"/>
<use xlink:href="#font_1_2" transform="matrix(9.9626,0,0,-9.9626,104.34706,39.142)"/>
<path transform="matrix(1,0,0,-1,109.069,37.010004)" d="M 0 0 L 4.193 0 L 4.193 1.195 L 0 1.195 Z "/>
<use xlink:href="#font_1_5" transform="matrix(9.9626,0,0,-9.9626,113.16238,37.010004)"/>
<symbol id="font_4_1">
<path d="M .106 .053000004 C .106 .082 .08200001 .106000009 .05300001 .106000009 C .024000004 .106000009 0 .082 0 .053000004 C 0 .024 .024000004 0 .05300001 0 C .08200001 0 .106 .024 .106 .053000004 Z "/>
</symbol>
<use xlink:href="#font_4_1" transform="matrix(9.9626,0,0,-9.9626,120.26278,19.847)"/>
<symbol id="font_7_2">
<path d="M .375 .41600005 C .342 .41000004 .325 .38200004 .325 .36100004 C .325 .34200005 .33900003 .32500003 .364 .32500003 C .391 .32500003 .419 .34800003 .419 .38500003 C .419 .42400003 .38300003 .45300005 .334 .45300005 C .259 .45300005 .21700001 .397 .20300001 .37800003 C .19100002 .43300004 .14600002 .45300005 .10800001 .45300005 C .072000008 .45300005 .049000004 .43100003 .032000007 .39600004 C .013000002 .36 0 .30300004 0 .29900003 C 0 .29000003 .007000001 .28700004 .014 .28700004 C .025 .28700004 .027 .29200004 .032000007 .31200005 C .051000008 .39100004 .072000008 .42800004 .106000009 .42800004 C .136 .42800004 .136 .39600004 .136 .381 C .136 .36 .128 .32900004 .12200001 .30300004 C .11500001 .277 .105000007 .23400001 .10100001 .22200002 L .061000006 .058000003 C .054000006 .034 .054000006 .032 .054000006 .029000003 C .054000006 .016 .06300001 0 .08500001 0 C .11700001 0 .12400001 .027000003 .13100001 .056 C .143 .09900001 .143 .101 .15300001 .14200002 C .19000001 .29200004 .19600001 .316 .19800002 .321 C .20400001 .33300004 .25 .42800004 .333 .42800004 C .356 .42800004 .37 .42000003 .375 .41600005 Z "/>
</symbol>
<use xlink:href="#font_7_2" transform="matrix(8.9664,0,0,-8.9664,15.896028,46.31963)"/>
<symbol id="font_8_1">
<path d="M .23200001 .356 C .22700002 .432 .157 .451 .119 .451 C .081 .451 .055 .428 .037 .396 C .012000002 .35500003 0 .30200003 0 .298 C 0 .287 .008999996 .283 .018 .283 C .034 .283 .034999998 .29 .04 .306 C .060000004 .386 .08400001 .418 .116 .418 C .15200001 .418 .15200001 .377 .15200001 .367 C .15200001 .351 .142 .31100003 .135 .283 C .128 .256 .118 .21500002 .113000009 .19300002 C .106000009 .16800002 .10000001 .142 .09300001 .117000009 C .085999999 .089 .074 .039 .074 .033000005 C .074 .011000001 .091000009 0 .109 0 C .127 0 .14400001 .012000001 .15200001 .027000003 C .154 .033000005 .163 .068 .16800002 .088 L .19000001 .17800002 C .19700001 .20400001 .20100002 .22200002 .207 .24500002 C .216 .279 .251 .33200003 .288 .36900003 C .30800004 .388 .351 .418 .40500004 .418 C .46900005 .418 .46900005 .367 .46900005 .34800003 C .46900005 .289 .426 .18200001 .408 .13700001 C .402 .120000008 .39500005 .104 .39500005 .087000008 C .39500005 .036000004 .44100005 0 .49600006 0 C .59700009 0 .647 .13200002 .647 .15400002 C .647 .15600002 .646 .16800002 .628 .16800002 C .614 .16800002 .61300006 .16300002 .60700008 .14400001 C .591 .091 .55 .033000005 .499 .033000005 C .48000003 .033000005 .47200007 .048000006 .47200007 .069000009 C .47200007 .089 .47900004 .106 .48800005 .127 C .503 .16600001 .54800006 .279 .54800006 .335 C .54800006 .417 .48600007 .451 .41000004 .451 C .36 .451 .296 .435 .23200001 .356 Z "/>
</symbol>
<use xlink:href="#font_8_1" transform="matrix(5.9776,0,0,-5.9776,20.158635,47.27778)"/>
<symbol id="font_7_1">
<path d="M .59900006 .70000007 C .602 .711 .602 .71300008 .602 .716 C .602 .71700009 .601 .72700008 .59000006 .72700008 C .58500006 .72700008 .58400008 .7260001 .572 .7120001 C .558 .697 .57 .71000006 .52400007 .656 C .48700006 .7120001 .42900003 .72700008 .37600003 .72700008 C .24700001 .72700008 .125 .61200007 .125 .49200005 C .125 .45100004 .138 .41700004 .164 .38900004 C .193 .35900004 .218 .35300005 .29000003 .33400003 L .374 .31300003 C .40600003 .30200003 .439 .27100004 .439 .214 C .439 .12500002 .354 .031000004 .254 .031000004 C .195 .031000004 .076000008 .049000004 .076000008 .177 C .076000008 .186 .076000008 .201 .082 .231 C .08400001 .23500002 .08400001 .237 .08400001 .238 C .08400001 .24200002 .082 .24900002 .06999999 .24900002 C .058000003 .24900002 .057 .24400002 .053 .22700002 L 0 .011000001 C 0 .005000001 .004999999 0 .011999998 0 C .017 0 .018000003 .0010000002 .031 .0150000019 C .037000006 .022000002 .066 .058000007 .077999997 .071 C .13 .0040000008 .222 0 .252 0 C .39000003 0 .51 .12900001 .51 .25500003 C .51 .37900005 .412 .40400005 .381 .41100005 L .29000003 .43500004 C .257 .44300006 .19600001 .45900003 .19600001 .535 C .19600001 .61100009 .27600003 .69900009 .37600003 .69900009 C .416 .69900009 .45500005 .688 .48300005 .66 C .521 .623 .522 .56900009 .522 .54300007 C .522 .51000007 .518 .49900005 .518 .49100004 C .518 .48300005 .522 .47800005 .532 .47800005 C .54300007 .47800005 .54300007 .48000006 .54800006 .49900005 L .59900006 .70000007 Z "/>
</symbol>
<use xlink:href="#font_7_1" transform="matrix(8.9664,0,0,-8.9664,63.042154,48.050264)"/>
<symbol id="font_7_3">
<path d="M .344 .38500003 C .301 .381 .29700003 .34700004 .29700003 .34000004 C .29700003 .323 .31 .31000004 .32900004 .31000004 C .35700003 .31000004 .37600003 .33300004 .37600003 .36600004 C .37600003 .41600005 .32700003 .45300005 .25300003 .45300005 C .119 .45300005 .081 .35300002 .081 .307 C .081 .26900003 .10000001 .24900002 .113000009 .23700002 C .133 .21800003 .16000001 .21200001 .19600001 .20500002 C .241 .19600001 .25100003 .19400002 .26900003 .18100001 C .28500004 .16900002 .294 .15300001 .294 .13200002 C .294 .106000009 .27 .025000003 .149 .025000003 C .126 .025000003 .056 .028 .034 .074 C .08400001 .074 .094 .11400001 .094 .128 C .094 .158 .067 .16400002 .056 .16400002 C .038000004 .16400002 0 .15000002 0 .098000008 C 0 .036000004 .063 0 .148 0 C .316 0 .35300002 .123 .35300002 .16600001 C .35300002 .20400001 .33200003 .22800002 .32000003 .24000003 C .294 .26700003 .26200003 .27300004 .227 .28000004 C .215 .28300003 .193 .28700004 .19000001 .28800003 C .157 .29500003 .139 .31500004 .139 .34000004 C .139 .351 .14600002 .38300003 .17400001 .40500004 C .20200002 .42700003 .24000001 .42800004 .25300003 .42800004 C .28800003 .42800004 .32900004 .41700004 .344 .38500003 Z "/>
</symbol>
<use xlink:href="#font_7_3" transform="matrix(8.9664,0,0,-8.9664,98.248218,46.31963)"/>
<use xlink:href="#font_8_1" transform="matrix(5.9776,0,0,-5.9776,102.430629,47.27778)"/>
</svg>
