<?xml version="1.0" encoding="UTF-8" standalone="no"?>
<!DOCTYPE svg PUBLIC "-//W3C//DTD SVG 1.1//EN" "http://www.w3.org/Graphics/SVG/1.1/DTD/svg11.dtd">
<svg xmlns="http://www.w3.org/2000/svg" xmlns:xlink="http://www.w3.org/1999/xlink" version="1.1" width="216.753pt" height="174.922pt" viewBox="0 0 216.753 174.922">
<path transform="matrix(1,0,0,-1,-29.095,739.603)" stroke-width="1" stroke-linecap="butt" stroke-miterlimit="10" stroke-linejoin="miter" fill="none" stroke="#808080" d="M 38.85474 643.45938 L 38.85474 647.71157 M 77.70947 643.45938 L 77.70947 647.71157 M 116.56421 643.45938 L 116.56421 647.71157 M 194.27368 643.45938 L 194.27368 647.71157 M 233.12842 643.45938 L 233.12842 647.71157 "/>
<path transform="matrix(1,0,0,-1,-29.095,739.603)" stroke-width="1" stroke-linecap="butt" stroke-miterlimit="10" stroke-linejoin="miter" fill="none" stroke="#808080" d="M 153.29291 581.0269 L 157.54496 581.0269 M 153.29291 613.30618 L 157.54496 613.30618 M 153.29291 677.86477 L 157.54496 677.86477 M 153.29291 710.144 L 157.54496 710.144 "/>
<path transform="matrix(1,0,0,-1,-29.095,739.603)" stroke-width="1" stroke-linecap="butt" stroke-miterlimit="10" stroke-linejoin="miter" fill="none" stroke="#000000" d="M 38.85469 645.58547 L 231.13565 645.58547 "/>
<path transform="matrix(1,0,0,-1,202.04065,94.01758)" d="M 1.99252 0 L -1.19551 1.59401 L 0 0 L -1.19551 -1.59401 "/>
<path transform="matrix(1,0,0,-1,-29.095,739.603)" stroke-width="1" stroke-linecap="butt" stroke-miterlimit="10" stroke-linejoin="miter" fill="none" stroke="#000000" d="M 155.41895 564.88729 L 155.41895 724.2911 "/>
<path transform="matrix(0,-1,-1,-0,126.323947,15.311951)" d="M 1.99252 0 L -1.19551 1.59401 L 0 0 L -1.19551 -1.59401 "/>
<symbol id="font_0_1">
<path d="M .57600006 0 C .59300008 0 .611 0 .611 .019999996 C .611 .040000008 .59300008 .040000008 .57600006 .040000008 L .035000005 .040000008 C .018 .040000008 0 .040000008 0 .019999996 C 0 0 .018 0 .035000005 0 L .57600006 0 Z "/>
</symbol>
<use xlink:href="#font_0_1" transform="matrix(9.9626,0,0,-9.9626,4.220895,103.87462)"/>
<symbol id="font_1_3">
<path d="M .24800003 .37400005 C .33 .40100003 .388 .47100006 .388 .55 C .388 .632 .3 .688 .204 .688 C .10300001 .688 .027000003 .628 .027000003 .55200007 C .027000003 .519 .049000004 .5 .078 .5 C .109000008 .5 .12900001 .522 .12900001 .55100008 C .12900001 .6010001 .082 .6010001 .067 .6010001 C .098 .65000006 .164 .66300007 .20000002 .66300007 C .24100003 .66300007 .29600004 .64100006 .29600004 .55100008 C .29600004 .53900006 .29400004 .48100005 .268 .43700005 C .238 .38900004 .204 .38600005 .17900002 .38500003 C .171 .38400004 .14700002 .38200004 .14000002 .38200004 C .132 .38100005 .125 .38000003 .125 .37000004 C .125 .35900004 .132 .35900004 .14900002 .35900004 L .19300002 .35900004 C .275 .35900004 .312 .29100005 .312 .193 C .312 .057000005 .24300003 .028 .199 .028 C .15600002 .028 .081 .045 .046000005 .104 C .081 .09900001 .11200001 .12100001 .11200001 .15900001 C .11200001 .19500001 .085 .215 .056 .215 C .031999999 .215 0 .201 0 .157 C 0 .06600001 .093 0 .20200002 0 C .32400004 0 .41500003 .091000009 .41500003 .193 C .41500003 .27500005 .35200004 .35300005 .24800003 .37400005 Z "/>
</symbol>
<use xlink:href="#font_1_3" transform="matrix(9.9626,0,0,-9.9626,11.561428,106.38519)"/>
<use xlink:href="#font_0_1" transform="matrix(9.9626,0,0,-9.9626,43.075899,103.87462)"/>
<symbol id="font_1_2">
<path d="M .07700001 .07700001 L .18300002 .18 C .33900003 .31800003 .39900003 .372 .39900003 .47200004 C .39900003 .586 .30900003 .666 .18700002 .666 C .074 .666 0 .574 0 .485 C 0 .42900003 .05 .42900003 .053000008 .42900003 C .07000001 .42900003 .105000007 .441 .105000007 .48200003 C .105000007 .508 .08700001 .53400006 .052000006 .53400006 C .044000005 .53400006 .042000008 .53400006 .039 .53300008 C .062000004 .59800007 .11600001 .63500007 .17400001 .63500007 C .26500003 .63500007 .308 .554 .308 .47200004 C .308 .39200003 .25800003 .31300003 .20300003 .25100003 L .011000004 .037 C 0 .026 0 .024 0 0 L .37100003 0 L .39900003 .17400001 L .374 .17400001 C .36900003 .14400001 .36200003 .1 .352 .085 C .345 .07700001 .279 .07700001 .257 .07700001 L .07700001 .07700001 Z "/>
</symbol>
<use xlink:href="#font_1_2" transform="matrix(9.9626,0,0,-9.9626,50.495134,106.166019)"/>
<use xlink:href="#font_0_1" transform="matrix(9.9626,0,0,-9.9626,81.92989,103.87462)"/>
<symbol id="font_1_1">
<path d="M .205 .64000007 C .205 .66400006 .205 .666 .18200003 .666 C .120000008 .60200008 .032000007 .60200008 0 .60200008 L 0 .57100006 C .020000004 .57100006 .07900001 .57100006 .13100001 .597 L .13100001 .079 C .13100001 .043 .128 .031000002 .038000004 .031000002 L .0060000049 .031000002 L .0060000049 0 C .04100001 .003 .128 .003 .168 .003 C .20800002 .003 .29500003 .003 .33000005 0 L .33000005 .031000002 L .29800005 .031000002 C .20800002 .031000002 .205 .042000005 .205 .079 L .205 .64000007 Z "/>
</symbol>
<use xlink:href="#font_1_1" transform="matrix(9.9626,0,0,-9.9626,89.73867,106.166019)"/>
<use xlink:href="#font_1_1" transform="matrix(9.9626,0,0,-9.9626,163.57268,106.166019)"/>
<use xlink:href="#font_1_2" transform="matrix(9.9626,0,0,-9.9626,202.03812,106.166019)"/>
<use xlink:href="#font_0_1" transform="matrix(9.9626,0,0,-9.9626,108.69889,159.08666)"/>
<symbol id="font_1_4">
<path d="M .266 .165 L .266 .078 C .266 .042000005 .26400004 .031000002 .19000001 .031000002 L .16900002 .031000002 L .16900002 0 C .21000001 .003 .26200003 .003 .30400003 .003 C .34600003 .003 .39900003 .003 .44000004 0 L .44000004 .031000002 L .41900004 .031000002 C .34500004 .031000002 .34300003 .042000005 .34300003 .078 L .34300003 .165 L .44300003 .165 L .44300003 .19600001 L .34300003 .19600001 L .34300003 .651 C .34300003 .671 .34300003 .67700007 .32700003 .67700007 C .31800003 .67700007 .31500004 .67700007 .307 .665 L 0 .19600001 L 0 .165 L .266 .165 M .272 .19600001 L .028 .19600001 L .272 .569 L .272 .19600001 Z "/>
</symbol>
<use xlink:href="#font_1_4" transform="matrix(9.9626,0,0,-9.9626,115.89995,161.37805)"/>
<use xlink:href="#font_0_1" transform="matrix(9.9626,0,0,-9.9626,108.69889,126.80864)"/>
<use xlink:href="#font_1_2" transform="matrix(9.9626,0,0,-9.9626,116.119129,129.10004)"/>
<use xlink:href="#font_1_2" transform="matrix(9.9626,0,0,-9.9626,116.11913,64.95703)"/>
<use xlink:href="#font_1_4" transform="matrix(9.9626,0,0,-9.9626,115.899959,32.67804)"/>
<clipPath id="cp2">
<path transform="matrix(1,0,0,-1,-29.095,739.603)" d="M 38.85469 564.88729 L 233.12818 564.88729 L 233.12818 726.2836 L 38.85469 726.2836 Z "/>
</clipPath>
<g clip-path="url(#cp2)">
<path transform="matrix(1,0,0,-1,-29.095,739.603)" stroke-width="1" stroke-linecap="butt" stroke-dasharray="2.98883,2.98883" stroke-miterlimit="10" stroke-linejoin="miter" fill="none" stroke="#000000" d="M 77.70947 645.58547 L 77.70947 602.541 "/>
<path transform="matrix(1,0,0,-1,-29.095,739.603)" stroke-width="1" stroke-linecap="butt" stroke-dasharray="2.98883,2.98883" stroke-miterlimit="10" stroke-linejoin="miter" fill="none" stroke="#000000" d="M 194.27368 645.58547 L 194.27368 638.86007 "/>
<path transform="matrix(1,0,0,-1,-29.095,739.603)" stroke-width="1.19553" stroke-linecap="butt" stroke-miterlimit="10" stroke-linejoin="miter" fill="none" stroke="#000080" d="M 0 1075.9763 C 0 1075.9763 9.35754 935.82077 12.95155 892.69229 C 16.54555 849.5638 22.30911 794.3834 25.90312 765.13638 C 29.49712 735.8892 35.26068 700.25656 38.85469 681.8995 C 42.44868 663.5424 48.21225 642.95016 51.80626 632.83157 C 55.40025 622.713 61.1638 613.17398 64.75781 608.9719 C 68.3518 604.7699 74.11537 602.82266 77.70938 602.54629 C 81.30338 602.2699 87.06694 604.9893 90.66095 606.97988 C 94.25494 608.97036 100.01851 613.96218 103.61252 616.89266 C 107.20651 619.8231 112.97006 625.2256 116.56407 628.10079 C 120.15807 630.976 125.92163 635.4588 129.51564 637.6152 C 133.10964 639.7716 138.8732 642.5368 142.46721 643.64266 C 146.0612 644.7485 151.82477 645.53018 155.41878 645.58547 C 159.01277 645.64077 164.77634 644.7048 168.37035 644.04129 C 171.96434 643.37777 177.72789 641.52218 181.3219 640.80337 C 184.9159 640.08456 190.67946 638.63949 194.27347 638.8606 C 197.86746 639.08169 203.63103 639.90878 207.22504 642.39688 C 210.81903 644.88497 216.5826 650.37899 220.1766 656.79299 C 223.7706 663.207 229.53417 676.2947 233.12818 688.6244 C 236.72217 700.9542 242.48572 725.08938 246.07973 745.6574 C 249.67372 766.22549 255.43729 805.4036 259.0313 836.86477 C 262.6253 868.32589 268.38887 927.0718 271.98286 972.40737 C 275.57688 1017.7429 281.34043 1101.0786 284.93443 1163.612 C 288.52845 1226.1454 294.292 1339.7233 297.886 1423.1046 C 301.47999 1506.4861 310.83757 1764.567 310.83757 1764.567 "/>
<path transform="matrix(1,0,0,-1,-29.095,739.603)" stroke-width="1.19553" stroke-linecap="butt" stroke-miterlimit="10" stroke-linejoin="miter" fill="none" stroke="#800000" d="M 0 0 C 0 0 9.35754 138.86128 12.95155 185.30692 C 16.54555 231.75255 22.30911 297.75715 25.90312 334.74775 C 29.49712 371.73835 35.26068 423.37846 38.85469 451.90937 C 42.44868 480.44023 48.21225 519.312 51.80626 540.3785 C 55.40025 561.44497 61.1638 589.14456 64.75781 603.74179 C 68.3518 618.33908 74.11537 636.46206 77.70938 645.5853 C 81.30338 654.70858 87.06694 664.8514 90.66095 669.4959 C 94.25494 674.1405 100.01851 677.89907 103.61252 679.06027 C 107.20651 680.2214 112.97006 679.1918 116.56407 677.86477 C 120.15807 676.5378 125.92163 672.31607 129.51564 669.4961 C 133.10964 666.6763 138.8732 660.8584 142.46721 657.5409 C 146.0612 654.2233 151.82477 648.4055 155.41878 645.5856 C 159.01277 642.7657 164.77634 638.5439 168.37035 637.21688 C 171.96434 635.8898 177.72789 634.8601 181.3219 636.0212 C 184.9159 637.18228 190.67946 640.9407 194.27347 645.5852 C 197.86746 650.2297 203.63103 660.3723 207.22504 669.4955 C 210.81903 678.61868 216.5826 696.7415 220.1766 711.3386 C 223.7706 725.9357 229.53417 753.6349 233.12818 774.7012 C 236.72217 795.76748 242.48572 834.6389 246.07973 863.1696 C 249.67372 891.7004 255.43729 943.3402 259.0313 980.3306 C 262.6253 1017.32107 268.38887 1083.3255 271.98286 1129.7708 C 275.57688 1176.2161 281.34043 1258.1807 284.93443 1315.0762 C 288.52845 1371.9718 294.292 1471.4934 297.886 1539.8345 C 301.47999 1608.1755 310.83757 1807.631 310.83757 1807.631 "/>
<symbol id="font_3_1">
<path d="M .314 .605 L .4 .605 C .42000003 .605 .43 .605 .43 .625 C .43 .63600006 .42000003 .63600006 .40300004 .63600006 L .32000003 .63600006 L .34100003 .75 C .34500004 .771 .35900004 .842 .365 .8540001 C .374 .873 .39100004 .888 .41200004 .888 C .416 .888 .44200004 .888 .461 .87 C .41700004 .86600008 .407 .8310001 .407 .816 C .407 .793 .425 .781 .444 .781 C .47 .781 .49900005 .8030001 .49900005 .8410001 C .49900005 .8870001 .45300005 .9100001 .41200004 .9100001 C .37800003 .9100001 .31500004 .8920001 .28500004 .793 C .279 .7720001 .27600003 .7620001 .252 .63600006 L .18300002 .63600006 C .164 .63600006 .15300001 .63600006 .15300001 .61700007 C .15300001 .605 .162 .605 .18100001 .605 L .24700001 .605 L .172 .21000001 C .15400002 .113000009 .13700001 .022 .08500001 .022 C .081 .022 .056 .022 .037 .040000008 C .083000008 .043000014 .09200001 .07900001 .09200001 .094000007 C .09200001 .117000009 .074 .12900001 .055 .12900001 C .029 .12900001 0 .10700001 0 .069000009 C 0 .024000004 .044 0 .08500001 0 C .14 0 .18 .059 .19800002 .09700001 C .23000002 .16000001 .25300003 .28100003 .254 .28800003 L .314 .605 Z "/>
</symbol>
<use xlink:href="#font_3_1" transform="matrix(9.9626,0,0,-9.9626,79.933017,130.83737)" fill="#000080"/>
<use xlink:href="#font_3_1" transform="matrix(9.9626,0,0,-9.9626,48.850019,66.81436)" fill="#800000"/>
<symbol id="font_4_1">
<path d="M .24200002 .43100003 C .25 .448 .25100003 .456 .25100003 .463 C .25100003 .49400003 .22300002 .518 .192 .518 C .15400002 .518 .14200002 .487 .137 .47100003 L .0050000029 .038000004 C .0040000008 .036000007 0 .023000002 0 .022 C 0 .010000002 .031000004 0 .039000006 0 C .046000005 0 .047000007 .0020000004 .054000006 .017 L .24200002 .43100003 Z "/>
</symbol>
<use xlink:href="#font_4_1" transform="matrix(6.9738,0,0,-6.9738,54.606744,60.3731)" fill="#800000"/>
</g>
<path transform="matrix(1,0,0,-1,-29.095,739.603)" d="M 79.70203 645.58547 C 79.70203 646.6859 78.80994 647.578 77.70947 647.578 C 76.609 647.578 75.71692 646.6859 75.71692 645.58547 C 75.71692 644.485 76.609 643.5929 77.70947 643.5929 C 78.80994 643.5929 79.70203 644.485 79.70203 645.58547 Z M 77.70947 645.58547 " fill="#800000"/>
<path transform="matrix(1,0,0,-1,-29.095,739.603)" stroke-width="1" stroke-linecap="butt" stroke-miterlimit="10" stroke-linejoin="miter" fill="none" stroke="#800000" d="M 79.70203 645.58547 C 79.70203 646.6859 78.80994 647.578 77.70947 647.578 C 76.609 647.578 75.71692 646.6859 75.71692 645.58547 C 75.71692 644.485 76.609 643.5929 77.70947 643.5929 C 78.80994 643.5929 79.70203 644.485 79.70203 645.58547 Z M 77.70947 645.58547 "/>
<path transform="matrix(1,0,0,-1,-29.095,739.603)" d="M 196.26624 645.58547 C 196.26624 646.6859 195.37415 647.578 194.27368 647.578 C 193.1732 647.578 192.28113 646.6859 192.28113 645.58547 C 192.28113 644.485 193.1732 643.5929 194.27368 643.5929 C 195.37415 643.5929 196.26624 644.485 196.26624 645.58547 Z M 194.27368 645.58547 " fill="#800000"/>
<path transform="matrix(1,0,0,-1,-29.095,739.603)" stroke-width="1" stroke-linecap="butt" stroke-miterlimit="10" stroke-linejoin="miter" fill="none" stroke="#800000" d="M 196.26624 645.58547 C 196.26624 646.6859 195.37415 647.578 194.27368 647.578 C 193.1732 647.578 192.28113 646.6859 192.28113 645.58547 C 192.28113 644.485 193.1732 643.5929 194.27368 643.5929 C 195.37415 643.5929 196.26624 644.485 196.26624 645.58547 Z M 194.27368 645.58547 "/>
<path transform="matrix(1,0,0,-1,-29.095,739.603)" d="M 157.4115 645.58547 C 157.4115 646.6859 156.51941 647.578 155.41895 647.578 C 154.31847 647.578 153.42639 646.6859 153.42639 645.58547 C 153.42639 644.485 154.31847 643.5929 155.41895 643.5929 C 156.51941 643.5929 157.4115 644.485 157.4115 645.58547 Z M 155.41895 645.58547 " fill="#800080"/>
<path transform="matrix(1,0,0,-1,-29.095,739.603)" stroke-width="1" stroke-linecap="butt" stroke-miterlimit="10" stroke-linejoin="miter" fill="none" stroke="#800000" d="M 157.4115 645.58547 C 157.4115 646.6859 156.51941 647.578 155.41895 647.578 C 154.31847 647.578 153.42639 646.6859 153.42639 645.58547 C 153.42639 644.485 154.31847 643.5929 155.41895 643.5929 C 156.51941 643.5929 157.4115 644.485 157.4115 645.58547 Z M 155.41895 645.58547 "/>
<path transform="matrix(1,0,0,-1,-29.095,739.603)" d="M 79.70203 602.541 C 79.70203 603.6415 78.80994 604.53359 77.70947 604.53359 C 76.609 604.53359 75.71692 603.6415 75.71692 602.541 C 75.71692 601.44058 76.609 600.54849 77.70947 600.54849 C 78.80994 600.54849 79.70203 601.44058 79.70203 602.541 Z M 77.70947 602.541 " fill="#000080"/>
<path transform="matrix(1,0,0,-1,-29.095,739.603)" stroke-width="1" stroke-linecap="butt" stroke-miterlimit="10" stroke-linejoin="miter" fill="none" stroke="#000080" d="M 79.70203 602.541 C 79.70203 603.6415 78.80994 604.53359 77.70947 604.53359 C 76.609 604.53359 75.71692 603.6415 75.71692 602.541 C 75.71692 601.44058 76.609 600.54849 77.70947 600.54849 C 78.80994 600.54849 79.70203 601.44058 79.70203 602.541 Z M 77.70947 602.541 "/>
<path transform="matrix(1,0,0,-1,-29.095,739.603)" d="M 196.26624 638.86007 C 196.26624 639.9605 195.37415 640.8526 194.27368 640.8526 C 193.1732 640.8526 192.28113 639.9605 192.28113 638.86007 C 192.28113 637.7596 193.1732 636.8675 194.27368 636.8675 C 195.37415 636.8675 196.26624 637.7596 196.26624 638.86007 Z M 194.27368 638.86007 " fill="#000080"/>
<path transform="matrix(1,0,0,-1,-29.095,739.603)" stroke-width="1" stroke-linecap="butt" stroke-miterlimit="10" stroke-linejoin="miter" fill="none" stroke="#000080" d="M 196.26624 638.86007 C 196.26624 639.9605 195.37415 640.8526 194.27368 640.8526 C 193.1732 640.8526 192.28113 639.9605 192.28113 638.86007 C 192.28113 637.7596 193.1732 636.8675 194.27368 636.8675 C 195.37415 636.8675 196.26624 637.7596 196.26624 638.86007 Z M 194.27368 638.86007 "/>
<symbol id="font_3_2">
<path d="M .305 .31300003 C .311 .33900003 .334 .43100003 .404 .43100003 C .409 .43100003 .433 .43100003 .454 .418 C .426 .41300003 .40600003 .388 .40600003 .36400003 C .40600003 .34800003 .417 .32900004 .444 .32900004 C .46600003 .32900004 .498 .34700004 .498 .38700003 C .498 .43900005 .439 .45300005 .405 .45300005 C .347 .45300005 .312 .40000005 .3 .37700004 C .275 .44300003 .221 .45300005 .19200002 .45300005 C .08800001 .45300005 .031000002 .32400004 .031000002 .29900003 C .031000002 .28900004 .041 .28900004 .043000007 .28900004 C .051000008 .28900004 .054000006 .291 .056 .3 C .09 .40600003 .156 .43100003 .19000001 .43100003 C .209 .43100003 .244 .42200003 .244 .36400003 C .244 .33300004 .22700002 .26600004 .19000001 .126 C .17400001 .064 .13900002 .022000002 .095000009 .022000002 C .08900001 .022000002 .06600001 .022000002 .045 .035 C .07000001 .040000004 .09200001 .061 .09200001 .089 C .09200001 .116000007 .07000001 .124000009 .055000009 .124000009 C .025 .124000009 0 .098000008 0 .06600001 C 0 .020000002 .050000006 0 .094000007 0 C .16000001 0 .19600001 .07000001 .19900002 .076000008 C .21100001 .039 .24700003 0 .307 0 C .41 0 .467 .12900001 .467 .15400002 C .467 .16400002 .458 .16400002 .455 .16400002 C .446 .16400002 .444 .16000001 .442 .15300001 C .409 .046 .341 .022000002 .30900003 .022000002 C .27 .022000002 .254 .054 .254 .08800001 C .254 .11000001 .26 .13200002 .271 .17600002 L .305 .31300003 Z "/>
</symbol>
<use xlink:href="#font_3_2" transform="matrix(9.9626,0,0,-9.9626,207.9539,96.16862)"/>
<symbol id="font_3_3">
<path d="M .45700003 .586 C .461 .6 .461 .602 .461 .609 C .461 .62700006 .447 .63600006 .432 .63600006 C .42200003 .63600006 .40600003 .63 .397 .615 C .395 .61 .387 .579 .38300003 .561 C .37600003 .535 .36900003 .508 .363 .48100005 L .318 .301 C .314 .286 .271 .21600002 .20500002 .21600002 C .15400002 .21600002 .143 .26000003 .143 .29700003 C .143 .34300003 .16000001 .40500004 .194 .49300004 C .21000001 .53400006 .21400002 .545 .21400002 .56500008 C .21400002 .61 .18200001 .6470001 .13200002 .6470001 C .037 .6470001 0 .50200006 0 .49300004 C 0 .48300005 .01 .48300005 .012 .48300005 C .022000002 .48300005 .023 .485 .028000003 .50100007 C .055000009 .595 .095000009 .625 .12900001 .625 C .13700001 .625 .15400002 .625 .15400002 .59300008 C .15400002 .568 .14400001 .54200008 .13700001 .523 C .097 .41700004 .079 .36 .079 .31300003 C .079 .224 .142 .194 .201 .194 C .24000003 .194 .274 .21100001 .30200003 .23900002 C .289 .187 .277 .13800001 .237 .08500001 C .21100001 .051 .17300001 .022 .127 .022 C .113000009 .022 .068 .025000006 .051000008 .06400001 C .067 .06400001 .080000009 .06400001 .094000007 .076000008 C .104 .08500001 .11400001 .098000008 .11400001 .117000009 C .11400001 .148 .087000008 .15200001 .07700001 .15200001 C .054000006 .15200001 .021 .136 .021 .087000008 C .021 .037 .065000008 0 .127 0 C .23 0 .333 .091000009 .361 .20400001 L .45700003 .586 Z "/>
</symbol>
<use xlink:href="#font_3_3" transform="matrix(9.9626,0,0,-9.9626,124.01992,9.725378)"/>
</svg>
