<?xml version="1.0" encoding="UTF-8" standalone="no"?>
<!DOCTYPE svg PUBLIC "-//W3C//DTD SVG 1.1//EN" "http://www.w3.org/Graphics/SVG/1.1/DTD/svg11.dtd">
<svg xmlns="http://www.w3.org/2000/svg" xmlns:xlink="http://www.w3.org/1999/xlink" version="1.1" width="207.21pt" height="174.935pt" viewBox="0 0 207.21 174.935">
<path transform="matrix(1,0,0,-1,-135.791,820.314)" stroke-width=".19925" stroke-linecap="butt" stroke-miterlimit="10" stroke-linejoin="miter" fill="none" stroke="#929292" d="M 155.41895 724.15908 L 155.41895 728.41098 M 194.27368 724.15908 L 194.27368 728.41098 M 271.98316 724.15908 L 271.98316 728.41098 M 310.8379 724.15908 L 310.8379 728.41098 "/>
<path transform="matrix(1,0,0,-1,-135.791,820.314)" stroke-width=".19925" stroke-linecap="butt" stroke-miterlimit="10" stroke-linejoin="miter" fill="none" stroke="#929292" d="M 231.00247 672.4861 L 235.25434 672.4861 M 231.00247 780.0839 L 235.25434 780.0839 "/>
<path transform="matrix(1,0,0,-1,-135.791,820.314)" stroke-width=".3985" stroke-linecap="butt" stroke-miterlimit="10" stroke-linejoin="miter" fill="none" stroke="#000000" d="M 135.99158 726.285 L 328.27275 726.285 "/>
<path transform="matrix(1,0,0,-1,192.48174,94.02905)" d="M 1.99252 0 L -1.19551 1.59401 L 0 0 L -1.19551 -1.59401 "/>
<path transform="matrix(1,0,0,-1,-135.791,820.314)" stroke-width=".3985" stroke-linecap="butt" stroke-miterlimit="10" stroke-linejoin="miter" fill="none" stroke="#000000" d="M 233.12842 645.5867 L 233.12842 804.9908 "/>
<path transform="matrix(0,-1,-1,-0,97.33742,15.323242)" d="M 1.99252 0 L -1.19551 1.59401 L 0 0 L -1.19551 -1.59401 "/>
<symbol id="font_0_1">
<path d="M .57600006 0 C .59300008 0 .611 0 .611 .019999996 C .611 .040000008 .59300008 .040000008 .57600006 .040000008 L .035000005 .040000008 C .018 .040000008 0 .040000008 0 .019999996 C 0 0 .018 0 .035000005 0 L .57600006 0 Z "/>
</symbol>
<use xlink:href="#font_0_1" transform="matrix(9.9626,0,0,-9.9626,14.087897,103.88664)"/>
<symbol id="font_1_2">
<path d="M .205 .64000007 C .205 .66400006 .205 .666 .18200003 .666 C .120000008 .60200008 .032000007 .60200008 0 .60200008 L 0 .57100006 C .020000004 .57100006 .07900001 .57100006 .13100001 .597 L .13100001 .079 C .13100001 .043 .128 .031000002 .038000004 .031000002 L .0060000049 .031000002 L .0060000049 0 C .04100001 .003 .128 .003 .168 .003 C .20800002 .003 .29500003 .003 .33000005 0 L .33000005 .031000002 L .29800005 .031000002 C .20800002 .031000002 .205 .042000005 .205 .079 L .205 .64000007 Z "/>
</symbol>
<use xlink:href="#font_1_2" transform="matrix(9.9626,0,0,-9.9626,21.896674,106.17804)"/>
<use xlink:href="#font_0_1" transform="matrix(9.9626,0,0,-9.9626,49.067895,103.88664)"/>
<symbol id="font_1_1">
<path d="M .421 .34200005 C .421 .42200003 .416 .50200006 .381 .57600006 C .335 .67200008 .25300003 .688 .211 .688 C .15100001 .688 .07800001 .66200008 .037000006 .56900009 C .0050000029 .5 0 .42200003 0 .34200005 C 0 .26700003 .0040000008 .177 .045000007 .101 C .088 .020000002 .161 0 .21000001 0 C .264 0 .34 .021000002 .384 .116000007 C .416 .185 .421 .263 .421 .34200005 M .21000001 .022000002 C .171 .022000002 .112 .047000003 .094 .143 C .083000008 .20300001 .083000008 .29500003 .083000008 .35400004 C .083000008 .41800005 .083000008 .48400004 .091000009 .53800007 C .11 .65700009 .185 .66600009 .21000001 .66600009 C .243 .66600009 .30900003 .64800009 .328 .549 C .338 .49300004 .338 .41700004 .338 .35400004 C .338 .279 .338 .21100001 .32700003 .147 C .312 .052 .255 .022000002 .21000001 .022000002 Z "/>
</symbol>
<use xlink:href="#font_1_1" transform="matrix(9.9626,0,0,-9.9626,56.37854,106.39722)"/>
<symbol id="font_2_1">
<path d="M .106 .053000004 C .106 .082 .08200001 .106000009 .05300001 .106000009 C .024000004 .106000009 0 .082 0 .053000004 C 0 .024 .024000004 0 .05300001 0 C .08200001 0 .106 .024 .106 .053000004 Z "/>
</symbol>
<use xlink:href="#font_2_1" transform="matrix(9.9626,0,0,-9.9626,61.82778,106.17804)"/>
<symbol id="font_1_4">
<path d="M .39900003 .223 C .39900003 .34200005 .317 .44200004 .209 .44200004 C .16100002 .44200004 .118000019 .42600004 .082 .39100004 L .082 .586 C .10200001 .58000007 .135 .573 .16700001 .573 C .29 .573 .36 .66400006 .36 .67700007 C .36 .683 .357 .688 .35 .688 C .349 .688 .347 .688 .342 .68500009 C .322 .67600008 .273 .656 .20600002 .656 C .16600001 .656 .120000008 .66300007 .073 .6840001 C .065 .68700006 .06300001 .68700006 .061000009 .68700006 C .051000004 .68700006 .051000004 .679 .051000004 .66300007 L .051000004 .36700005 C .051000004 .34900005 .051000004 .34100003 .065 .34100003 C .07200001 .34100003 .074 .34400005 .07800001 .35000003 C .08900002 .36600004 .12600002 .42000006 .207 .42000006 C .259 .42000006 .284 .37400005 .292 .35600005 C .308 .31900005 .31 .28000004 .31 .23 C .31 .19500001 .31 .135 .286 .093 C .262 .054000006 .22500001 .028 .17900002 .028 C .106000009 .028 .049000008 .08100001 .032 .14000002 C .035 .13900002 .038000008 .13800001 .049000008 .13800001 C .082 .13800001 .09900001 .163 .09900001 .187 C .09900001 .21100001 .082 .23600002 .049000008 .23600002 C .035 .23600002 0 .22900002 0 .18300002 C 0 .097 .069000009 0 .18100001 0 C .297 0 .39900003 .096 .39900003 .223 Z "/>
</symbol>
<use xlink:href="#font_1_4" transform="matrix(9.9626,0,0,-9.9626,64.23713,106.39722)"/>
<use xlink:href="#font_1_1" transform="matrix(9.9626,0,0,-9.9626,130.21253,106.39722)"/>
<use xlink:href="#font_2_1" transform="matrix(9.9626,0,0,-9.9626,135.66178,106.17804)"/>
<use xlink:href="#font_1_4" transform="matrix(9.9626,0,0,-9.9626,138.07112,106.39722)"/>
<use xlink:href="#font_1_2" transform="matrix(9.9626,0,0,-9.9626,173.43967,106.17804)"/>
<use xlink:href="#font_0_1" transform="matrix(9.9626,0,0,-9.9626,79.71189,148.34062)"/>
<symbol id="font_1_3">
<path d="M .07700001 .07700001 L .18300002 .18 C .33900003 .31800003 .39900003 .372 .39900003 .47200004 C .39900003 .586 .30900003 .666 .18700002 .666 C .074 .666 0 .574 0 .485 C 0 .42900003 .05 .42900003 .053000008 .42900003 C .07000001 .42900003 .105000007 .441 .105000007 .48200003 C .105000007 .508 .08700001 .53400006 .052000006 .53400006 C .044000005 .53400006 .042000008 .53400006 .039 .53300008 C .062000004 .59800007 .11600001 .63500007 .17400001 .63500007 C .26500003 .63500007 .308 .554 .308 .47200004 C .308 .39200003 .25800003 .31300003 .20300003 .25100003 L .011000004 .037 C 0 .026 0 .024 0 0 L .37100003 0 L .39900003 .17400001 L .374 .17400001 C .36900003 .14400001 .36200003 .1 .352 .085 C .345 .07700001 .279 .07700001 .257 .07700001 L .07700001 .07700001 Z "/>
</symbol>
<use xlink:href="#font_1_3" transform="matrix(9.9626,0,0,-9.9626,87.132129,150.63202)"/>
<use xlink:href="#font_1_3" transform="matrix(9.9626,0,0,-9.9626,87.13213,43.450014)"/>
<clipPath id="cp3">
<path transform="matrix(1,0,0,-1,-135.791,820.314)" d="M 135.99158 645.5867 L 330.26527 645.5867 L 330.26527 806.98336 L 135.99158 806.98336 Z "/>
</clipPath>
<g clip-path="url(#cp3)">
<path transform="matrix(1,0,0,-1,-135.791,820.314)" stroke-width="1.19553" stroke-linecap="butt" stroke-miterlimit="10" stroke-linejoin="miter" fill="none" stroke="#800000" d="M 0 1452.57 C 0 1452.57 14.03635 1367.3572 19.42737 1336.5662 C 24.81837 1305.7752 33.46371 1258.6415 38.85474 1230.6495 C 44.24574 1202.6577 52.89108 1160.013 58.2821 1134.8203 C 63.67311 1109.6277 72.31845 1071.4718 77.70947 1049.0784 C 83.10048 1026.6848 91.74582 993.01797 97.13684 973.42367 C 102.52785 953.82937 111.17319 924.65139 116.56421 907.85629 C 121.95522 891.06118 130.60056 866.3721 135.99158 852.37619 C 141.38259 838.3802 150.02793 818.18008 155.41895 806.98336 C 160.80995 795.78659 169.45529 780.0754 174.84632 771.6778 C 180.23732 763.2802 188.88266 752.0579 194.27368 746.4596 C 199.66469 740.8612 208.31003 734.1278 213.70105 731.3286 C 219.09206 728.5295 227.7374 726.285 233.12842 726.285 C 238.51943 726.285 247.16477 728.5295 252.55579 731.3286 C 257.9468 734.1278 266.59214 740.8612 271.98316 746.4596 C 277.37416 752.0579 286.0195 763.2802 291.41053 771.6778 C 296.80155 780.0754 305.44688 795.78659 310.8379 806.98336 C 316.2289 818.18008 324.87425 838.3802 330.26527 852.37619 C 335.65629 866.3721 344.3016 891.06118 349.69264 907.85629 C 355.08363 924.65139 363.72898 953.82937 369.12 973.42367 C 374.511 993.01797 383.15635 1026.6848 388.54737 1049.0784 C 393.9384 1071.4718 402.5837 1109.6277 407.97474 1134.8203 C 413.36576 1160.013 422.01109 1202.6577 427.4021 1230.6495 C 432.7931 1258.6415 441.43846 1305.7752 446.82948 1336.5662 C 452.22047 1367.3572 466.25685 1452.57 466.25685 1452.57 "/>
<path transform="matrix(1,0,0,-1,-135.791,820.314)" stroke-width="1.19553" stroke-linecap="butt" stroke-miterlimit="10" stroke-linejoin="miter" fill="none" stroke="#000080" d="M 0 0 C 0 0 14.03635 124.40628 19.42737 166.8606 C 24.81837 209.31493 33.46371 270.8747 38.85474 305.98118 C 44.24574 341.08763 52.89108 391.4251 58.2821 419.8835 C 63.67311 448.3419 72.31845 488.5793 77.70947 511.08946 C 83.10048 533.59957 91.74582 564.85916 97.13684 582.1208 C 102.52785 599.38247 111.17319 622.7864 116.56421 635.4994 C 121.95522 648.21237 130.60056 664.88296 135.99158 673.747 C 141.38259 682.6111 150.02793 693.67056 155.41895 699.38558 C 160.80995 705.1006 169.45529 711.6711 174.84632 714.93679 C 180.23732 718.20248 188.88266 721.4064 194.27368 722.92257 C 199.66469 724.4388 208.31003 725.3982 213.70105 725.8647 C 219.09206 726.3312 227.7374 726.1684 233.12842 726.285 C 238.51943 726.4016 247.16477 726.2388 252.55579 726.70529 C 257.9468 727.1718 266.59214 728.1312 271.98316 729.6474 C 277.37416 731.16366 286.0195 734.3675 291.41053 737.6332 C 296.80155 740.8989 305.44688 747.4694 310.8379 753.18447 C 316.2289 758.8994 324.87425 769.9589 330.26527 778.823 C 335.65629 787.6871 344.3016 804.35769 349.69264 817.0706 C 355.08363 829.78359 363.72898 853.18759 369.12 870.4492 C 374.511 887.7109 383.15635 918.97048 388.54737 941.4805 C 393.9384 963.99069 402.5837 1004.2281 407.97474 1032.6865 C 413.36576 1061.1449 422.01109 1111.4823 427.4021 1146.5888 C 432.7931 1181.6953 441.43846 1243.2551 446.82948 1285.7094 C 452.22047 1328.1637 466.25685 1452.57 466.25685 1452.57 "/>
<symbol id="font_2_2">
<path d="M .314 .605 L .4 .605 C .42000003 .605 .43 .605 .43 .625 C .43 .63600006 .42000003 .63600006 .40300004 .63600006 L .32000003 .63600006 L .34100003 .75 C .34500004 .771 .35900004 .842 .365 .8540001 C .374 .873 .39100004 .888 .41200004 .888 C .416 .888 .44200004 .888 .461 .87 C .41700004 .86600008 .407 .8310001 .407 .816 C .407 .793 .425 .781 .444 .781 C .47 .781 .49900005 .8030001 .49900005 .8410001 C .49900005 .8870001 .45300005 .9100001 .41200004 .9100001 C .37800003 .9100001 .31500004 .8920001 .28500004 .793 C .279 .7720001 .27600003 .7620001 .252 .63600006 L .18300002 .63600006 C .164 .63600006 .15300001 .63600006 .15300001 .61700007 C .15300001 .605 .162 .605 .18100001 .605 L .24700001 .605 L .172 .21000001 C .15400002 .113000009 .13700001 .022 .08500001 .022 C .081 .022 .056 .022 .037 .040000008 C .083000008 .043000014 .09200001 .07900001 .09200001 .094000007 C .09200001 .117000009 .074 .12900001 .055 .12900001 C .029 .12900001 0 .10700001 0 .069000009 C 0 .024000004 .044 0 .08500001 0 C .14 0 .18 .059 .19800002 .09700001 C .23000002 .16000001 .25300003 .28100003 .254 .28800003 L .314 .605 Z "/>
</symbol>
<use xlink:href="#font_2_2" transform="matrix(9.9626,0,0,-9.9626,179.16503,74.362339)" fill="#000080"/>
<use xlink:href="#font_2_2" transform="matrix(9.9626,0,0,-9.9626,62.602025,72.20737)" fill="#800000"/>
<symbol id="font_4_1">
<path d="M .24200002 .43100003 C .25 .448 .25100003 .456 .25100003 .463 C .25100003 .49400003 .22300002 .518 .192 .518 C .15400002 .518 .14200002 .487 .137 .47100003 L .0050000029 .038000004 C .0040000008 .036000007 0 .023000002 0 .022 C 0 .010000002 .031000004 0 .039000006 0 C .046000005 0 .047000007 .0020000004 .054000006 .017 L .24200002 .43100003 Z "/>
</symbol>
<use xlink:href="#font_4_1" transform="matrix(6.9738,0,0,-6.9738,68.35874,65.76511)" fill="#800000"/>
</g>
<symbol id="font_2_3">
<path d="M .305 .31300003 C .311 .33900003 .334 .43100003 .404 .43100003 C .409 .43100003 .433 .43100003 .454 .418 C .426 .41300003 .40600003 .388 .40600003 .36400003 C .40600003 .34800003 .417 .32900004 .444 .32900004 C .46600003 .32900004 .498 .34700004 .498 .38700003 C .498 .43900005 .439 .45300005 .405 .45300005 C .347 .45300005 .312 .40000005 .3 .37700004 C .275 .44300003 .221 .45300005 .19200002 .45300005 C .08800001 .45300005 .031000002 .32400004 .031000002 .29900003 C .031000002 .28900004 .041 .28900004 .043000007 .28900004 C .051000008 .28900004 .054000006 .291 .056 .3 C .09 .40600003 .156 .43100003 .19000001 .43100003 C .209 .43100003 .244 .42200003 .244 .36400003 C .244 .33300004 .22700002 .26600004 .19000001 .126 C .17400001 .064 .13900002 .022000002 .095000009 .022000002 C .08900001 .022000002 .06600001 .022000002 .045 .035 C .07000001 .040000004 .09200001 .061 .09200001 .089 C .09200001 .116000007 .07000001 .124000009 .055000009 .124000009 C .025 .124000009 0 .098000008 0 .06600001 C 0 .020000002 .050000006 0 .094000007 0 C .16000001 0 .19600001 .07000001 .19900002 .076000008 C .21100001 .039 .24700003 0 .307 0 C .41 0 .467 .12900001 .467 .15400002 C .467 .16400002 .458 .16400002 .455 .16400002 C .446 .16400002 .444 .16000001 .442 .15300001 C .409 .046 .341 .022000002 .30900003 .022000002 C .27 .022000002 .254 .054 .254 .08800001 C .254 .11000001 .26 .13200002 .271 .17600002 L .305 .31300003 Z "/>
</symbol>
<use xlink:href="#font_2_3" transform="matrix(9.9626,0,0,-9.9626,198.4109,96.16763)"/>
<symbol id="font_2_4">
<path d="M .45700003 .586 C .461 .6 .461 .602 .461 .609 C .461 .62700006 .447 .63600006 .432 .63600006 C .42200003 .63600006 .40600003 .63 .397 .615 C .395 .61 .387 .579 .38300003 .561 C .37600003 .535 .36900003 .508 .363 .48100005 L .318 .301 C .314 .286 .271 .21600002 .20500002 .21600002 C .15400002 .21600002 .143 .26000003 .143 .29700003 C .143 .34300003 .16000001 .40500004 .194 .49300004 C .21000001 .53400006 .21400002 .545 .21400002 .56500008 C .21400002 .61 .18200001 .6470001 .13200002 .6470001 C .037 .6470001 0 .50200006 0 .49300004 C 0 .48300005 .01 .48300005 .012 .48300005 C .022000002 .48300005 .023 .485 .028000003 .50100007 C .055000009 .595 .095000009 .625 .12900001 .625 C .13700001 .625 .15400002 .625 .15400002 .59300008 C .15400002 .568 .14400001 .54200008 .13700001 .523 C .097 .41700004 .079 .36 .079 .31300003 C .079 .224 .142 .194 .201 .194 C .24000003 .194 .274 .21100001 .30200003 .23900002 C .289 .187 .277 .13800001 .237 .08500001 C .21100001 .051 .17300001 .022 .127 .022 C .113000009 .022 .068 .025000006 .051000008 .06400001 C .067 .06400001 .080000009 .06400001 .094000007 .076000008 C .104 .08500001 .11400001 .098000008 .11400001 .117000009 C .11400001 .148 .087000008 .15200001 .07700001 .15200001 C .054000006 .15200001 .021 .136 .021 .087000008 C .021 .037 .065000008 0 .127 0 C .23 0 .333 .091000009 .361 .20400001 L .45700003 .586 Z "/>
</symbol>
<use xlink:href="#font_2_4" transform="matrix(9.9626,0,0,-9.9626,95.04792,9.725378)"/>
</svg>
