<?xml version="1.0" encoding="UTF-8" standalone="no"?>
<!DOCTYPE svg PUBLIC "-//W3C//DTD SVG 1.1//EN" "http://www.w3.org/Graphics/SVG/1.1/DTD/svg11.dtd">
<svg xmlns="http://www.w3.org/2000/svg" xmlns:xlink="http://www.w3.org/1999/xlink" version="1.1" width="220.637pt" height="174.923pt" viewBox="0 0 220.637 174.923">
<path transform="matrix(1,0,0,-1,-83.501,739.605)" stroke-width="1" stroke-linecap="butt" stroke-miterlimit="10" stroke-linejoin="miter" fill="none" stroke="#808080" d="M 97.13608 643.4607 L 97.13608 647.7126 M 129.51477 643.4607 L 129.51477 647.7126 M 161.89347 643.4607 L 161.89347 647.7126 M 226.65085 643.4607 L 226.65085 647.7126 M 259.02955 643.4607 L 259.02955 647.7126 M 291.40824 643.4607 L 291.40824 647.7126 "/>
<path transform="matrix(1,0,0,-1,-83.501,739.605)" stroke-width="1" stroke-linecap="butt" stroke-miterlimit="10" stroke-linejoin="miter" fill="none" stroke="#808080" d="M 192.14617 591.7878 L 196.39813 591.7878 M 192.14617 699.38558 L 196.39813 699.38558 "/>
<path transform="matrix(1,0,0,-1,-83.501,739.605)" stroke-width="1" stroke-linecap="butt" stroke-miterlimit="10" stroke-linejoin="miter" fill="none" stroke="#000000" d="M 97.13608 645.5867 L 289.4157 645.5867 "/>
<path transform="matrix(1,0,0,-1,205.9147,94.01831)" d="M 1.99252 0 L -1.19551 1.59401 L 0 0 L -1.19551 -1.59401 "/>
<path transform="matrix(1,0,0,-1,-83.501,739.605)" stroke-width="1" stroke-linecap="butt" stroke-miterlimit="10" stroke-linejoin="miter" fill="none" stroke="#000000" d="M 194.27216 564.88839 L 194.27216 724.2925 "/>
<path transform="matrix(0,-1,-1,-0,110.77116,15.3125)" d="M 1.99252 0 L -1.19551 1.59401 L 0 0 L -1.19551 -1.59401 "/>
<symbol id="font_0_1">
<path d="M .57600006 0 C .59300008 0 .611 0 .611 .019999996 C .611 .040000008 .59300008 .040000008 .57600006 .040000008 L .035000005 .040000008 C .018 .040000008 0 .040000008 0 .019999996 C 0 0 .018 0 .035000005 0 L .57600006 0 Z "/>
</symbol>
<use xlink:href="#font_0_1" transform="matrix(9.9626,0,0,-9.9626,4.220893,103.87456)"/>
<symbol id="font_1_2">
<path d="M .205 .64000007 C .205 .66400006 .205 .666 .18200003 .666 C .120000008 .60200008 .032000007 .60200008 0 .60200008 L 0 .57100006 C .020000004 .57100006 .07900001 .57100006 .13100001 .597 L .13100001 .079 C .13100001 .043 .128 .031000002 .038000004 .031000002 L .0060000049 .031000002 L .0060000049 0 C .04100001 .003 .128 .003 .168 .003 C .20800002 .003 .29500003 .003 .33000005 0 L .33000005 .031000002 L .29800005 .031000002 C .20800002 .031000002 .205 .042000005 .205 .079 L .205 .64000007 Z "/>
</symbol>
<use xlink:href="#font_1_2" transform="matrix(9.9626,0,0,-9.9626,12.029668,106.165958)"/>
<symbol id="font_2_1">
<path d="M .106 .053000004 C .106 .082 .08200001 .106000009 .05300001 .106000009 C .024000004 .106000009 0 .082 0 .053000004 C 0 .024 .024000004 0 .05300001 0 C .08200001 0 .106 .024 .106 .053000004 Z "/>
</symbol>
<use xlink:href="#font_2_1" transform="matrix(9.9626,0,0,-9.9626,16.98078,106.165958)"/>
<symbol id="font_1_4">
<path d="M .39900003 .223 C .39900003 .34200005 .317 .44200004 .209 .44200004 C .16100002 .44200004 .118000019 .42600004 .082 .39100004 L .082 .586 C .10200001 .58000007 .135 .573 .16700001 .573 C .29 .573 .36 .66400006 .36 .67700007 C .36 .683 .357 .688 .35 .688 C .349 .688 .347 .688 .342 .68500009 C .322 .67600008 .273 .656 .20600002 .656 C .16600001 .656 .120000008 .66300007 .073 .6840001 C .065 .68700006 .06300001 .68700006 .061000009 .68700006 C .051000004 .68700006 .051000004 .679 .051000004 .66300007 L .051000004 .36700005 C .051000004 .34900005 .051000004 .34100003 .065 .34100003 C .07200001 .34100003 .074 .34400005 .07800001 .35000003 C .08900002 .36600004 .12600002 .42000006 .207 .42000006 C .259 .42000006 .284 .37400005 .292 .35600005 C .308 .31900005 .31 .28000004 .31 .23 C .31 .19500001 .31 .135 .286 .093 C .262 .054000006 .22500001 .028 .17900002 .028 C .106000009 .028 .049000008 .08100001 .032 .14000002 C .035 .13900002 .038000008 .13800001 .049000008 .13800001 C .082 .13800001 .09900001 .163 .09900001 .187 C .09900001 .21100001 .082 .23600002 .049000008 .23600002 C .035 .23600002 0 .22900002 0 .18300002 C 0 .097 .069000009 0 .18100001 0 C .297 0 .39900003 .096 .39900003 .223 Z "/>
</symbol>
<use xlink:href="#font_1_4" transform="matrix(9.9626,0,0,-9.9626,19.39013,106.38513)"/>
<use xlink:href="#font_0_1" transform="matrix(9.9626,0,0,-9.9626,40.4739,103.87456)"/>
<use xlink:href="#font_1_2" transform="matrix(9.9626,0,0,-9.9626,48.282678,106.165958)"/>
<use xlink:href="#font_0_1" transform="matrix(9.9626,0,0,-9.9626,68.97789,103.87456)"/>
<symbol id="font_1_1">
<path d="M .421 .34200005 C .421 .42200003 .416 .50200006 .381 .57600006 C .335 .67200008 .25300003 .688 .211 .688 C .15100001 .688 .07800001 .66200008 .037000006 .56900009 C .0050000029 .5 0 .42200003 0 .34200005 C 0 .26700003 .0040000008 .177 .045000007 .101 C .088 .020000002 .161 0 .21000001 0 C .264 0 .34 .021000002 .384 .116000007 C .416 .185 .421 .263 .421 .34200005 M .21000001 .022000002 C .171 .022000002 .112 .047000003 .094 .143 C .083000008 .20300001 .083000008 .29500003 .083000008 .35400004 C .083000008 .41800005 .083000008 .48400004 .091000009 .53800007 C .11 .65700009 .185 .66600009 .21000001 .66600009 C .243 .66600009 .30900003 .64800009 .328 .549 C .338 .49300004 .338 .41700004 .338 .35400004 C .338 .279 .338 .21100001 .32700003 .147 C .312 .052 .255 .022000002 .21000001 .022000002 Z "/>
</symbol>
<use xlink:href="#font_1_1" transform="matrix(9.9626,0,0,-9.9626,76.288539,106.38513)"/>
<use xlink:href="#font_2_1" transform="matrix(9.9626,0,0,-9.9626,81.73778,106.165958)"/>
<use xlink:href="#font_1_4" transform="matrix(9.9626,0,0,-9.9626,84.146129,106.38513)"/>
<use xlink:href="#font_1_1" transform="matrix(9.9626,0,0,-9.9626,137.17055,106.38513)"/>
<use xlink:href="#font_2_1" transform="matrix(9.9626,0,0,-9.9626,142.6198,106.165958)"/>
<use xlink:href="#font_1_4" transform="matrix(9.9626,0,0,-9.9626,145.02915,106.38513)"/>
<use xlink:href="#font_1_2" transform="matrix(9.9626,0,0,-9.9626,173.92067,106.165958)"/>
<use xlink:href="#font_1_2" transform="matrix(9.9626,0,0,-9.9626,202.42467,106.165958)"/>
<use xlink:href="#font_2_1" transform="matrix(9.9626,0,0,-9.9626,207.37677,106.165958)"/>
<use xlink:href="#font_1_4" transform="matrix(9.9626,0,0,-9.9626,209.78511,106.38513)"/>
<use xlink:href="#font_0_1" transform="matrix(9.9626,0,0,-9.9626,93.145908,148.3286)"/>
<symbol id="font_1_3">
<path d="M .07700001 .07700001 L .18300002 .18 C .33900003 .31800003 .39900003 .372 .39900003 .47200004 C .39900003 .586 .30900003 .666 .18700002 .666 C .074 .666 0 .574 0 .485 C 0 .42900003 .05 .42900003 .053000008 .42900003 C .07000001 .42900003 .105000007 .441 .105000007 .48200003 C .105000007 .508 .08700001 .53400006 .052000006 .53400006 C .044000005 .53400006 .042000008 .53400006 .039 .53300008 C .062000004 .59800007 .11600001 .63500007 .17400001 .63500007 C .26500003 .63500007 .308 .554 .308 .47200004 C .308 .39200003 .25800003 .31300003 .20300003 .25100003 L .011000004 .037 C 0 .026 0 .024 0 0 L .37100003 0 L .39900003 .17400001 L .374 .17400001 C .36900003 .14400001 .36200003 .1 .352 .085 C .345 .07700001 .279 .07700001 .257 .07700001 L .07700001 .07700001 Z "/>
</symbol>
<use xlink:href="#font_1_3" transform="matrix(9.9626,0,0,-9.9626,100.56614,150.62)"/>
<use xlink:href="#font_1_3" transform="matrix(9.9626,0,0,-9.9626,100.56613,43.43799)"/>
<clipPath id="cp3">
<path transform="matrix(1,0,0,-1,-83.501,739.605)" d="M 97.13608 564.88839 L 291.40824 564.88839 L 291.40824 726.285 L 97.13608 726.285 Z "/>
</clipPath>
<g clip-path="url(#cp3)">
<path transform="matrix(1,0,0,-1,-83.501,739.605)" stroke-width="1.19553" stroke-linecap="butt" stroke-miterlimit="10" stroke-linejoin="miter" fill="none" stroke="#000080" d="M 0 0 C 0 0 11.69687 119.54755 16.18935 160.13574 C 20.68181 200.72396 27.88622 259.2911 32.3787 292.53147 C 36.87115 325.77177 44.07556 373.11668 48.56804 399.70893 C 53.0605 426.30119 60.26491 463.546 64.75739 484.19 C 69.24985 504.834 76.45425 533.10098 80.94673 548.49649 C 85.4392 563.892 92.6436 584.30337 97.13608 595.1502 C 101.62854 605.9971 108.83295 619.67507 113.32542 626.673 C 117.8179 633.67098 125.0223 641.7378 129.51477 645.5867 C 134.00725 649.43557 141.21164 653.0135 145.70412 654.413 C 150.1966 655.8126 157.40099 656.0238 161.89347 655.67398 C 166.38594 655.3241 173.59033 653.2908 178.08281 651.89126 C 182.57529 650.49166 189.77968 647.3361 194.27216 645.5867 C 198.76464 643.83718 205.96903 640.6817 210.4615 639.2821 C 214.95398 637.8825 222.15837 635.84927 226.65085 635.4994 C 231.14333 635.1495 238.34772 635.3607 242.8402 636.76028 C 247.33267 638.15988 254.53707 641.7378 259.02955 645.5867 C 263.52204 649.43557 270.7264 657.5024 275.2189 664.5003 C 279.71138 671.4983 286.91578 685.1763 291.40824 696.02316 C 295.9007 706.86996 303.1051 727.2813 307.5976 742.6768 C 312.09007 758.0724 319.29447 786.33938 323.78694 806.98336 C 328.2794 827.6273 335.4838 864.87216 339.97627 891.4644 C 344.46876 918.05667 351.67317 965.40158 356.16563 998.64187 C 360.6581 1031.8822 367.8625 1090.4494 372.35499 1131.0376 C 376.84745 1171.6257 388.5443 1291.1734 388.5443 1291.1734 "/>
<path transform="matrix(1,0,0,-1,-83.501,739.605)" stroke-width="1.19553" stroke-linecap="butt" stroke-miterlimit="10" stroke-linejoin="miter" fill="none" stroke="#008000" d="M 0 161.39667 C 0 161.39667 11.69687 190.54909 16.18935 201.74584 C 20.68181 212.94257 27.88622 230.89826 32.3787 242.095 C 36.87115 253.29174 44.07556 271.2474 48.56804 282.44419 C 53.0605 293.6409 60.26491 311.5966 64.75739 322.79335 C 69.24985 333.99009 76.45425 351.94578 80.94673 363.1425 C 85.4392 374.33924 92.6436 392.29493 97.13608 403.49168 C 101.62854 414.6884 108.83295 432.6441 113.32542 443.84086 C 117.8179 455.03758 125.0223 472.99327 129.51477 484.19 C 134.00725 495.38673 141.21164 513.3424 145.70412 524.5392 C 150.1966 535.7359 157.40099 553.6916 161.89347 564.88839 C 166.38594 576.0851 173.59033 594.0408 178.08281 605.2375 C 182.57529 616.4342 189.77968 634.3899 194.27216 645.5867 C 198.76464 656.7834 205.96903 674.7391 210.4615 685.93588 C 214.95398 697.13259 222.15837 715.08828 226.65085 726.285 C 231.14333 737.48178 238.34772 755.43746 242.8402 766.63418 C 247.33267 777.8309 254.53707 795.78659 259.02955 806.98336 C 263.52204 818.18008 270.7264 836.13577 275.2189 847.3325 C 279.71138 858.52926 286.91578 876.4849 291.40824 887.68167 C 295.9007 898.8784 303.1051 916.8341 307.5976 928.0308 C 312.09007 939.2276 319.29447 957.1833 323.78694 968.38 C 328.2794 979.5767 335.4838 997.5324 339.97627 1008.7292 C 344.46876 1019.9259 351.67317 1037.8816 356.16563 1049.0784 C 360.6581 1060.2752 367.8625 1078.2307 372.35499 1089.4275 C 376.84745 1100.6243 388.5443 1129.7766 388.5443 1129.7766 "/>
<symbol id="font_2_2">
<path d="M .314 .605 L .4 .605 C .42000003 .605 .43 .605 .43 .625 C .43 .63600006 .42000003 .63600006 .40300004 .63600006 L .32000003 .63600006 L .34100003 .75 C .34500004 .771 .35900004 .842 .365 .8540001 C .374 .873 .39100004 .888 .41200004 .888 C .416 .888 .44200004 .888 .461 .87 C .41700004 .86600008 .407 .8310001 .407 .816 C .407 .793 .425 .781 .444 .781 C .47 .781 .49900005 .8030001 .49900005 .8410001 C .49900005 .8870001 .45300005 .9100001 .41200004 .9100001 C .37800003 .9100001 .31500004 .8920001 .28500004 .793 C .279 .7720001 .27600003 .7620001 .252 .63600006 L .18300002 .63600006 C .164 .63600006 .15300001 .63600006 .15300001 .61700007 C .15300001 .605 .162 .605 .18100001 .605 L .24700001 .605 L .172 .21000001 C .15400002 .113000009 .13700001 .022 .08500001 .022 C .081 .022 .056 .022 .037 .040000008 C .083000008 .043000014 .09200001 .07900001 .09200001 .094000007 C .09200001 .117000009 .074 .12900001 .055 .12900001 C .029 .12900001 0 .10700001 0 .069000009 C 0 .024000004 .044 0 .08500001 0 C .14 0 .18 .059 .19800002 .09700001 C .23000002 .16000001 .25300003 .28100003 .254 .28800003 L .314 .605 Z "/>
</symbol>
<use xlink:href="#font_2_2" transform="matrix(9.9626,0,0,-9.9626,66.32302,82.42033)" fill="#000080"/>
<use xlink:href="#font_2_2" transform="matrix(9.9626,0,0,-9.9626,127.84101,72.19528)" fill="#008000"/>
<symbol id="font_4_1">
<path d="M .24200002 .43100003 C .25 .448 .25100003 .456 .25100003 .463 C .25100003 .49400003 .22300002 .518 .192 .518 C .15400002 .518 .14200002 .487 .137 .47100003 L .0050000029 .038000004 C .0040000008 .036000007 0 .023000002 0 .022 C 0 .010000002 .031000004 0 .039000006 0 C .046000005 0 .047000007 .0020000004 .054000006 .017 L .24200002 .43100003 Z "/>
</symbol>
<use xlink:href="#font_4_1" transform="matrix(6.9738,0,0,-6.9738,133.59775,65.75302)" fill="#008000"/>
<use xlink:href="#font_4_1" transform="matrix(6.9738,0,0,-6.9738,135.89212,65.75302)" fill="#008000"/>
</g>
<path transform="matrix(1,0,0,-1,-83.501,739.605)" d="M 196.26471 645.5867 C 196.26471 646.68716 195.37262 647.5792 194.27216 647.5792 C 193.17168 647.5792 192.2796 646.68716 192.2796 645.5867 C 192.2796 644.4862 193.17168 643.5941 194.27216 643.5941 C 195.37262 643.5941 196.26471 644.4862 196.26471 645.5867 Z M 194.27216 645.5867 " fill="#004040"/>
<path transform="matrix(1,0,0,-1,-83.501,739.605)" stroke-width="1" stroke-linecap="butt" stroke-miterlimit="10" stroke-linejoin="miter" fill="none" stroke="#004040" d="M 196.26471 645.5867 C 196.26471 646.68716 195.37262 647.5792 194.27216 647.5792 C 193.17168 647.5792 192.2796 646.68716 192.2796 645.5867 C 192.2796 644.4862 193.17168 643.5941 194.27216 643.5941 C 195.37262 643.5941 196.26471 644.4862 196.26471 645.5867 Z M 194.27216 645.5867 "/>
<symbol id="font_2_3">
<path d="M .305 .31300003 C .311 .33900003 .334 .43100003 .404 .43100003 C .409 .43100003 .433 .43100003 .454 .418 C .426 .41300003 .40600003 .388 .40600003 .36400003 C .40600003 .34800003 .417 .32900004 .444 .32900004 C .46600003 .32900004 .498 .34700004 .498 .38700003 C .498 .43900005 .439 .45300005 .405 .45300005 C .347 .45300005 .312 .40000005 .3 .37700004 C .275 .44300003 .221 .45300005 .19200002 .45300005 C .08800001 .45300005 .031000002 .32400004 .031000002 .29900003 C .031000002 .28900004 .041 .28900004 .043000007 .28900004 C .051000008 .28900004 .054000006 .291 .056 .3 C .09 .40600003 .156 .43100003 .19000001 .43100003 C .209 .43100003 .244 .42200003 .244 .36400003 C .244 .33300004 .22700002 .26600004 .19000001 .126 C .17400001 .064 .13900002 .022000002 .095000009 .022000002 C .08900001 .022000002 .06600001 .022000002 .045 .035 C .07000001 .040000004 .09200001 .061 .09200001 .089 C .09200001 .116000007 .07000001 .124000009 .055000009 .124000009 C .025 .124000009 0 .098000008 0 .06600001 C 0 .020000002 .050000006 0 .094000007 0 C .16000001 0 .19600001 .07000001 .19900002 .076000008 C .21100001 .039 .24700003 0 .307 0 C .41 0 .467 .12900001 .467 .15400002 C .467 .16400002 .458 .16400002 .455 .16400002 C .446 .16400002 .444 .16000001 .442 .15300001 C .409 .046 .341 .022000002 .30900003 .022000002 C .27 .022000002 .254 .054 .254 .08800001 C .254 .11000001 .26 .13200002 .271 .17600002 L .305 .31300003 Z "/>
</symbol>
<use xlink:href="#font_2_3" transform="matrix(9.9626,0,0,-9.9626,211.83692,96.16959)"/>
<symbol id="font_2_4">
<path d="M .45700003 .586 C .461 .6 .461 .602 .461 .609 C .461 .62700006 .447 .63600006 .432 .63600006 C .42200003 .63600006 .40600003 .63 .397 .615 C .395 .61 .387 .579 .38300003 .561 C .37600003 .535 .36900003 .508 .363 .48100005 L .318 .301 C .314 .286 .271 .21600002 .20500002 .21600002 C .15400002 .21600002 .143 .26000003 .143 .29700003 C .143 .34300003 .16000001 .40500004 .194 .49300004 C .21000001 .53400006 .21400002 .545 .21400002 .56500008 C .21400002 .61 .18200001 .6470001 .13200002 .6470001 C .037 .6470001 0 .50200006 0 .49300004 C 0 .48300005 .01 .48300005 .012 .48300005 C .022000002 .48300005 .023 .485 .028000003 .50100007 C .055000009 .595 .095000009 .625 .12900001 .625 C .13700001 .625 .15400002 .625 .15400002 .59300008 C .15400002 .568 .14400001 .54200008 .13700001 .523 C .097 .41700004 .079 .36 .079 .31300003 C .079 .224 .142 .194 .201 .194 C .24000003 .194 .274 .21100001 .30200003 .23900002 C .289 .187 .277 .13800001 .237 .08500001 C .21100001 .051 .17300001 .022 .127 .022 C .113000009 .022 .068 .025000006 .051000008 .06400001 C .067 .06400001 .080000009 .06400001 .094000007 .076000008 C .104 .08500001 .11400001 .098000008 .11400001 .117000009 C .11400001 .148 .087000008 .15200001 .07700001 .15200001 C .054000006 .15200001 .021 .136 .021 .087000008 C .021 .037 .065000008 0 .127 0 C .23 0 .333 .091000009 .361 .20400001 L .45700003 .586 Z "/>
</symbol>
<use xlink:href="#font_2_4" transform="matrix(9.9626,0,0,-9.9626,108.47392,9.726294)"/>
</svg>
