<?xml version="1.0" encoding="UTF-8" standalone="no"?>
<!DOCTYPE svg PUBLIC "-//W3C//DTD SVG 1.1//EN" "http://www.w3.org/Graphics/SVG/1.1/DTD/svg11.dtd">
<svg xmlns="http://www.w3.org/2000/svg" xmlns:xlink="http://www.w3.org/1999/xlink" version="1.1" width="210.9pt" height="175pt" viewBox="0 0 210.9 175">
<path transform="matrix(1,0,0,-1,-190.232,2393.976)" stroke-width=".19925" stroke-linecap="butt" stroke-miterlimit="10" stroke-linejoin="miter" fill="none" stroke="#929292" d="M 247.25257 2297.7767 L 247.25257 2302.0284 M 282.57438 2297.7767 L 282.57438 2302.0284 M 317.89616 2297.7767 L 317.89616 2302.0284 M 353.21797 2297.7767 L 353.21797 2302.0284 M 388.53977 2297.7767 L 388.53977 2302.0284 "/>
<path transform="matrix(1,0,0,-1,-190.232,2393.976)" stroke-width=".19925" stroke-linecap="butt" stroke-miterlimit="10" stroke-linejoin="miter" fill="none" stroke="#929292" d="M 209.80484 2246.1036 L 214.05669 2246.1036 M 209.80484 2353.7015 L 214.05669 2353.7015 "/>
<path transform="matrix(1,0,0,-1,-190.232,2393.976)" stroke-width=".3985" stroke-linecap="butt" stroke-miterlimit="10" stroke-linejoin="miter" fill="none" stroke="#000000" d="M 194.26988 2299.9027 L 386.54725 2299.9027 "/>
<path transform="matrix(1,0,0,-1,196.31525,94.07349)" d="M 1.99252 0 L -1.19551 1.59401 L 0 0 L -1.19551 -1.59401 "/>
<path transform="matrix(1,0,0,-1,-190.232,2393.976)" stroke-width=".3985" stroke-linecap="butt" stroke-miterlimit="10" stroke-linejoin="miter" fill="none" stroke="#000000" d="M 211.93077 2219.204 L 211.93077 2378.6085 "/>
<path transform="matrix(0,-1,-1,-0,21.698777,15.367676)" d="M 1.99252 0 L -1.19551 1.59401 L 0 0 L -1.19551 -1.59401 "/>
<symbol id="font_0_1">
<path d="M .421 .34200005 C .421 .42200003 .416 .50200006 .381 .57600006 C .335 .67200008 .25300003 .688 .211 .688 C .15100001 .688 .07800001 .66200008 .037000006 .56900009 C .0050000029 .5 0 .42200003 0 .34200005 C 0 .26700003 .0040000008 .177 .045000007 .101 C .088 .020000002 .161 0 .21000001 0 C .264 0 .34 .021000002 .384 .116000007 C .416 .185 .421 .263 .421 .34200005 M .21000001 .022000002 C .171 .022000002 .112 .047000003 .094 .143 C .083000008 .20300001 .083000008 .29500003 .083000008 .35400004 C .083000008 .41800005 .083000008 .48400004 .091000009 .53800007 C .11 .65700009 .185 .66600009 .21000001 .66600009 C .243 .66600009 .30900003 .64800009 .328 .549 C .338 .49300004 .338 .41700004 .338 .35400004 C .338 .279 .338 .21100001 .32700003 .147 C .312 .052 .255 .022000002 .21000001 .022000002 Z "/>
</symbol>
<use xlink:href="#font_0_1" transform="matrix(9.9626,0,0,-9.9626,51.041543,106.38934)"/>
<symbol id="font_1_1">
<path d="M .106 .053000004 C .106 .082 .08200001 .106000009 .05300001 .106000009 C .024000004 .106000009 0 .082 0 .053000004 C 0 .024 .024000004 0 .05300001 0 C .08200001 0 .106 .024 .106 .053000004 Z "/>
</symbol>
<use xlink:href="#font_1_1" transform="matrix(9.9626,0,0,-9.9626,56.490785,106.170169)"/>
<symbol id="font_0_4">
<path d="M .39900003 .223 C .39900003 .34200005 .317 .44200004 .209 .44200004 C .16100002 .44200004 .118000019 .42600004 .082 .39100004 L .082 .586 C .10200001 .58000007 .135 .573 .16700001 .573 C .29 .573 .36 .66400006 .36 .67700007 C .36 .683 .357 .688 .35 .688 C .349 .688 .347 .688 .342 .68500009 C .322 .67600008 .273 .656 .20600002 .656 C .16600001 .656 .120000008 .66300007 .073 .6840001 C .065 .68700006 .06300001 .68700006 .061000009 .68700006 C .051000004 .68700006 .051000004 .679 .051000004 .66300007 L .051000004 .36700005 C .051000004 .34900005 .051000004 .34100003 .065 .34100003 C .07200001 .34100003 .074 .34400005 .07800001 .35000003 C .08900002 .36600004 .12600002 .42000006 .207 .42000006 C .259 .42000006 .284 .37400005 .292 .35600005 C .308 .31900005 .31 .28000004 .31 .23 C .31 .19500001 .31 .135 .286 .093 C .262 .054000006 .22500001 .028 .17900002 .028 C .106000009 .028 .049000008 .08100001 .032 .14000002 C .035 .13900002 .038000008 .13800001 .049000008 .13800001 C .082 .13800001 .09900001 .163 .09900001 .187 C .09900001 .21100001 .082 .23600002 .049000008 .23600002 C .035 .23600002 0 .22900002 0 .18300002 C 0 .097 .069000009 0 .18100001 0 C .297 0 .39900003 .096 .39900003 .223 Z "/>
</symbol>
<use xlink:href="#font_0_4" transform="matrix(9.9626,0,0,-9.9626,58.899129,106.38934)"/>
<symbol id="font_0_2">
<path d="M .205 .64000007 C .205 .66400006 .205 .666 .18200003 .666 C .120000008 .60200008 .032000007 .60200008 0 .60200008 L 0 .57100006 C .020000004 .57100006 .07900001 .57100006 .13100001 .597 L .13100001 .079 C .13100001 .043 .128 .031000002 .038000004 .031000002 L .0060000049 .031000002 L .0060000049 0 C .04100001 .003 .128 .003 .168 .003 C .20800002 .003 .29500003 .003 .33000005 0 L .33000005 .031000002 L .29800005 .031000002 C .20800002 .031000002 .205 .042000005 .205 .079 L .205 .64000007 Z "/>
</symbol>
<use xlink:href="#font_0_2" transform="matrix(9.9626,0,0,-9.9626,90.734668,106.170169)"/>
<use xlink:href="#font_0_2" transform="matrix(9.9626,0,0,-9.9626,122.18169,106.170169)"/>
<use xlink:href="#font_1_1" transform="matrix(9.9626,0,0,-9.9626,127.1338,106.170169)"/>
<use xlink:href="#font_0_4" transform="matrix(9.9626,0,0,-9.9626,129.54215,106.38934)"/>
<symbol id="font_0_3">
<path d="M .07700001 .07700001 L .18300002 .18 C .33900003 .31800003 .39900003 .372 .39900003 .47200004 C .39900003 .586 .30900003 .666 .18700002 .666 C .074 .666 0 .574 0 .485 C 0 .42900003 .05 .42900003 .053000008 .42900003 C .07000001 .42900003 .105000007 .441 .105000007 .48200003 C .105000007 .508 .08700001 .53400006 .052000006 .53400006 C .044000005 .53400006 .042000008 .53400006 .039 .53300008 C .062000004 .59800007 .11600001 .63500007 .17400001 .63500007 C .26500003 .63500007 .308 .554 .308 .47200004 C .308 .39200003 .25800003 .31300003 .20300003 .25100003 L .011000004 .037 C 0 .026 0 .024 0 0 L .37100003 0 L .39900003 .17400001 L .374 .17400001 C .36900003 .14400001 .36200003 .1 .352 .085 C .345 .07700001 .279 .07700001 .257 .07700001 L .07700001 .07700001 Z "/>
</symbol>
<use xlink:href="#font_0_3" transform="matrix(9.9626,0,0,-9.9626,160.98912,106.170169)"/>
<use xlink:href="#font_0_3" transform="matrix(9.9626,0,0,-9.9626,192.43614,106.170169)"/>
<use xlink:href="#font_1_1" transform="matrix(9.9626,0,0,-9.9626,197.7758,106.170169)"/>
<use xlink:href="#font_0_4" transform="matrix(9.9626,0,0,-9.9626,200.18515,106.38934)"/>
<symbol id="font_2_1">
<path d="M .57600006 0 C .59300008 0 .611 0 .611 .019999996 C .611 .040000008 .59300008 .040000008 .57600006 .040000008 L .035000005 .040000008 C .018 .040000008 0 .040000008 0 .019999996 C 0 0 .018 0 .035000005 0 L .57600006 0 Z "/>
</symbol>
<use xlink:href="#font_2_1" transform="matrix(9.9626,0,0,-9.9626,4.147895,148.40563)"/>
<use xlink:href="#font_0_3" transform="matrix(9.9626,0,0,-9.9626,11.567129,150.69702)"/>
<use xlink:href="#font_0_3" transform="matrix(9.9626,0,0,-9.9626,11.56713,43.515138)"/>
<clipPath id="cp3">
<path transform="matrix(1,0,0,-1,-190.232,2393.976)" d="M 194.26988 2219.204 L 388.53977 2219.204 L 388.53977 2380.6009 L 194.26988 2380.6009 Z "/>
</clipPath>
<g clip-path="url(#cp3)">
<path transform="matrix(1,0,0,-1,-190.232,2393.976)" stroke-width=".3985" stroke-linecap="butt" stroke-dasharray="2.98883,2.98883" stroke-miterlimit="10" stroke-linejoin="miter" fill="none" stroke="#000000" d="M 282.57438 2299.9027 L 282.57438 2367.1512 "/>
<path transform="matrix(1,0,0,-1,-190.232,2393.976)" stroke-width=".3985" stroke-linecap="butt" stroke-dasharray="2.98883,2.98883" stroke-miterlimit="10" stroke-linejoin="miter" fill="none" stroke="#000000" d="M 353.21797 2299.9027 L 353.21797 2353.7015 "/>
<path transform="matrix(1,0,0,-1,-190.232,2393.976)" stroke-width="1.19553" stroke-linecap="butt" stroke-miterlimit="10" stroke-linejoin="miter" fill="none" stroke="#800000" d="M 0 3913.8692 C 0 3913.8692 12.76006 3784.9278 17.66089 3737.3416 C 22.56172 3689.7554 30.42096 3615.6883 35.3218 3570.9014 C 40.22263 3526.1143 48.08186 3456.5362 52.98268 3414.5484 C 57.88351 3372.5606 65.74275 3307.4713 70.64359 3268.2825 C 75.54442 3229.094 83.40366 3168.4935 88.30449 3132.104 C 93.2053 3095.7147 101.06456 3039.6033 105.96538 3006.013 C 110.86621 2972.4227 118.72545 2920.8 123.62628 2890.009 C 128.52712 2859.218 136.38636 2812.0845 141.28719 2784.0926 C 146.188 2756.1007 154.04726 2713.4559 158.94808 2688.2633 C 163.8489 2663.0706 171.70815 2624.9149 176.60898 2602.5213 C 181.50981 2580.1278 189.36905 2546.461 194.26988 2526.8668 C 199.1707 2507.2723 207.02994 2478.0943 211.93077 2461.299 C 216.8316 2444.5042 224.69084 2419.815 229.59168 2405.819 C 234.49251 2391.8233 242.35175 2371.623 247.25257 2360.4263 C 252.1534 2349.2296 260.01264 2333.5184 264.91349 2325.1209 C 269.8143 2316.7232 277.67356 2305.501 282.57438 2299.9027 C 287.4752 2294.3043 295.33445 2287.5709 300.23527 2284.7716 C 305.1361 2281.9725 312.99534 2279.728 317.89616 2279.728 C 322.797 2279.728 330.65623 2281.9725 335.55708 2284.7716 C 340.4579 2287.5709 348.31715 2294.3043 353.21797 2299.9027 C 358.1188 2305.501 365.97804 2316.7232 370.87886 2325.1209 C 375.7797 2333.5184 383.63893 2349.2296 388.53977 2360.4263 C 393.44059 2371.623 401.29985 2391.8233 406.20066 2405.819 C 411.1015 2419.815 423.86158 2461.299 423.86158 2461.299 "/>
<path transform="matrix(1,0,0,-1,-190.232,2393.976)" stroke-width="1.19553" stroke-linecap="butt" stroke-miterlimit="10" stroke-linejoin="miter" fill="none" stroke="#000080" d="M 0 0 C 0 0 12.76006 281.3779 17.66089 381.21556 C 22.56172 481.0532 30.42096 631.2691 35.3218 719.5601 C 40.22263 807.85116 48.08186 940.1114 52.98268 1017.55557 C 57.88351 1094.9998 65.74275 1210.4265 70.64359 1277.7236 C 75.54442 1345.0208 83.40366 1444.7363 88.30449 1502.5862 C 93.2053 1560.436 101.06456 1645.5626 105.96538 1694.665 C 110.86621 1743.7675 118.72545 1815.4273 123.62628 1856.4819 C 128.52712 1897.5366 136.38636 1956.852 141.28719 1990.559 C 146.188 2024.2658 154.04726 2072.359 158.94808 2099.4176 C 163.8489 2126.4764 171.70815 2164.4693 176.60898 2185.5799 C 181.50981 2206.6905 189.36905 2235.7056 194.26988 2251.5677 C 199.1707 2267.4298 207.02994 2288.589 211.93077 2299.9027 C 216.8316 2311.2159 224.69084 2325.642 229.59168 2333.1065 C 234.49251 2340.571 242.35175 2349.386 247.25257 2353.7015 C 252.1534 2358.0169 260.01264 2362.3428 264.91349 2364.209 C 269.8143 2366.0753 277.67356 2367.0345 282.57438 2367.1512 C 287.4752 2367.2679 295.33445 2365.9827 300.23527 2365.0496 C 305.1361 2364.1165 312.99534 2361.7093 317.89616 2360.4263 C 322.797 2359.1434 330.65623 2356.7359 335.55708 2355.803 C 340.4579 2354.8699 348.31715 2353.5848 353.21797 2353.7015 C 358.1188 2353.818 365.97804 2354.7774 370.87886 2356.6436 C 375.7797 2358.5096 383.63893 2362.8358 388.53977 2367.1512 C 393.44059 2371.4666 401.29985 2380.2816 406.20066 2387.746 C 411.1015 2395.2105 423.86158 2420.95 423.86158 2420.95 "/>
<symbol id="font_1_2">
<path d="M .314 .605 L .4 .605 C .42000003 .605 .43 .605 .43 .625 C .43 .63600006 .42000003 .63600006 .40300004 .63600006 L .32000003 .63600006 L .34100003 .75 C .34500004 .771 .35900004 .842 .365 .8540001 C .374 .873 .39100004 .888 .41200004 .888 C .416 .888 .44200004 .888 .461 .87 C .41700004 .86600008 .407 .8310001 .407 .816 C .407 .793 .425 .781 .444 .781 C .47 .781 .49900005 .8030001 .49900005 .8410001 C .49900005 .8870001 .45300005 .9100001 .41200004 .9100001 C .37800003 .9100001 .31500004 .8920001 .28500004 .793 C .279 .7720001 .27600003 .7620001 .252 .63600006 L .18300002 .63600006 C .164 .63600006 .15300001 .63600006 .15300001 .61700007 C .15300001 .605 .162 .605 .18100001 .605 L .24700001 .605 L .172 .21000001 C .15400002 .113000009 .13700001 .022 .08500001 .022 C .081 .022 .056 .022 .037 .040000008 C .083000008 .043000014 .09200001 .07900001 .09200001 .094000007 C .09200001 .117000009 .074 .12900001 .055 .12900001 C .029 .12900001 0 .10700001 0 .069000009 C 0 .024000004 .044 0 .08500001 0 C .14 0 .18 .059 .19800002 .09700001 C .23000002 .16000001 .25300003 .28100003 .254 .28800003 L .314 .605 Z "/>
</symbol>
<use xlink:href="#font_1_2" transform="matrix(9.9626,0,0,-9.9626,181.15802,31.388525)" fill="#000080"/>
<use xlink:href="#font_1_2" transform="matrix(9.9626,0,0,-9.9626,38.460027,31.923438)" fill="#800000"/>
<symbol id="font_4_1">
<path d="M .24200002 .43100003 C .25 .448 .25100003 .456 .25100003 .463 C .25100003 .49400003 .22300002 .518 .192 .518 C .15400002 .518 .14200002 .487 .137 .47100003 L .0050000029 .038000004 C .0040000008 .036000007 0 .023000002 0 .022 C 0 .010000002 .031000004 0 .039000006 0 C .046000005 0 .047000007 .0020000004 .054000006 .017 L .24200002 .43100003 Z "/>
</symbol>
<use xlink:href="#font_4_1" transform="matrix(6.9738,0,0,-6.9738,44.21675,25.482172)" fill="#800000"/>
</g>
<path transform="matrix(1,0,0,-1,-190.232,2393.976)" d="M 284.56694 2299.9027 C 284.56694 2301.003 283.67485 2301.895 282.57438 2301.895 C 281.47389 2301.895 280.58183 2301.003 280.58183 2299.9027 C 280.58183 2298.802 281.47389 2297.91 282.57438 2297.91 C 283.67485 2297.91 284.56694 2298.802 284.56694 2299.9027 Z M 282.57438 2299.9027 " fill="#800000"/>
<path transform="matrix(1,0,0,-1,-190.232,2393.976)" stroke-width=".3985" stroke-linecap="butt" stroke-miterlimit="10" stroke-linejoin="miter" fill="none" stroke="#800000" d="M 284.56694 2299.9027 C 284.56694 2301.003 283.67485 2301.895 282.57438 2301.895 C 281.47389 2301.895 280.58183 2301.003 280.58183 2299.9027 C 280.58183 2298.802 281.47389 2297.91 282.57438 2297.91 C 283.67485 2297.91 284.56694 2298.802 284.56694 2299.9027 Z M 282.57438 2299.9027 "/>
<path transform="matrix(1,0,0,-1,-190.232,2393.976)" d="M 355.2105 2299.9027 C 355.2105 2301.003 354.31846 2301.895 353.21797 2301.895 C 352.1175 2301.895 351.2254 2301.003 351.2254 2299.9027 C 351.2254 2298.802 352.1175 2297.91 353.21797 2297.91 C 354.31846 2297.91 355.2105 2298.802 355.2105 2299.9027 Z M 353.21797 2299.9027 " fill="#800000"/>
<path transform="matrix(1,0,0,-1,-190.232,2393.976)" stroke-width=".3985" stroke-linecap="butt" stroke-miterlimit="10" stroke-linejoin="miter" fill="none" stroke="#800000" d="M 355.2105 2299.9027 C 355.2105 2301.003 354.31846 2301.895 353.21797 2301.895 C 352.1175 2301.895 351.2254 2301.003 351.2254 2299.9027 C 351.2254 2298.802 352.1175 2297.91 353.21797 2297.91 C 354.31846 2297.91 355.2105 2298.802 355.2105 2299.9027 Z M 353.21797 2299.9027 "/>
<path transform="matrix(1,0,0,-1,-190.232,2393.976)" d="M 284.56694 2367.1512 C 284.56694 2368.2518 283.67485 2369.1439 282.57438 2369.1439 C 281.47389 2369.1439 280.58183 2368.2518 280.58183 2367.1512 C 280.58183 2366.0509 281.47389 2365.1588 282.57438 2365.1588 C 283.67485 2365.1588 284.56694 2366.0509 284.56694 2367.1512 Z M 282.57438 2367.1512 " fill="#000080"/>
<path transform="matrix(1,0,0,-1,-190.232,2393.976)" stroke-width=".3985" stroke-linecap="butt" stroke-miterlimit="10" stroke-linejoin="miter" fill="none" stroke="#000080" d="M 284.56694 2367.1512 C 284.56694 2368.2518 283.67485 2369.1439 282.57438 2369.1439 C 281.47389 2369.1439 280.58183 2368.2518 280.58183 2367.1512 C 280.58183 2366.0509 281.47389 2365.1588 282.57438 2365.1588 C 283.67485 2365.1588 284.56694 2366.0509 284.56694 2367.1512 Z M 282.57438 2367.1512 "/>
<path transform="matrix(1,0,0,-1,-190.232,2393.976)" d="M 355.2105 2353.7015 C 355.2105 2354.802 354.31846 2355.6939 353.21797 2355.6939 C 352.1175 2355.6939 351.2254 2354.802 351.2254 2353.7015 C 351.2254 2352.6009 352.1175 2351.7088 353.21797 2351.7088 C 354.31846 2351.7088 355.2105 2352.6009 355.2105 2353.7015 Z M 353.21797 2353.7015 " fill="#000080"/>
<path transform="matrix(1,0,0,-1,-190.232,2393.976)" stroke-width=".3985" stroke-linecap="butt" stroke-miterlimit="10" stroke-linejoin="miter" fill="none" stroke="#000080" d="M 355.2105 2353.7015 C 355.2105 2354.802 354.31846 2355.6939 353.21797 2355.6939 C 352.1175 2355.6939 351.2254 2354.802 351.2254 2353.7015 C 351.2254 2352.6009 352.1175 2351.7088 353.21797 2351.7088 C 354.31846 2351.7088 355.2105 2352.6009 355.2105 2353.7015 Z M 353.21797 2353.7015 "/>
<symbol id="font_1_3">
<path d="M .305 .31300003 C .311 .33900003 .334 .43100003 .404 .43100003 C .409 .43100003 .433 .43100003 .454 .418 C .426 .41300003 .40600003 .388 .40600003 .36400003 C .40600003 .34800003 .417 .32900004 .444 .32900004 C .46600003 .32900004 .498 .34700004 .498 .38700003 C .498 .43900005 .439 .45300005 .405 .45300005 C .347 .45300005 .312 .40000005 .3 .37700004 C .275 .44300003 .221 .45300005 .19200002 .45300005 C .08800001 .45300005 .031000002 .32400004 .031000002 .29900003 C .031000002 .28900004 .041 .28900004 .043000007 .28900004 C .051000008 .28900004 .054000006 .291 .056 .3 C .09 .40600003 .156 .43100003 .19000001 .43100003 C .209 .43100003 .244 .42200003 .244 .36400003 C .244 .33300004 .22700002 .26600004 .19000001 .126 C .17400001 .064 .13900002 .022000002 .095000009 .022000002 C .08900001 .022000002 .06600001 .022000002 .045 .035 C .07000001 .040000004 .09200001 .061 .09200001 .089 C .09200001 .116000007 .07000001 .124000009 .055000009 .124000009 C .025 .124000009 0 .098000008 0 .06600001 C 0 .020000002 .050000006 0 .094000007 0 C .16000001 0 .19600001 .07000001 .19900002 .076000008 C .21100001 .039 .24700003 0 .307 0 C .41 0 .467 .12900001 .467 .15400002 C .467 .16400002 .458 .16400002 .455 .16400002 C .446 .16400002 .444 .16000001 .442 .15300001 C .409 .046 .341 .022000002 .30900003 .022000002 C .27 .022000002 .254 .054 .254 .08800001 C .254 .11000001 .26 .13200002 .271 .17600002 L .305 .31300003 Z "/>
</symbol>
<use xlink:href="#font_1_3" transform="matrix(9.9626,0,0,-9.9626,202.17392,95.99459)"/>
<symbol id="font_1_4">
<path d="M .45700003 .586 C .461 .6 .461 .602 .461 .609 C .461 .62700006 .447 .63600006 .432 .63600006 C .42200003 .63600006 .40600003 .63 .397 .615 C .395 .61 .387 .579 .38300003 .561 C .37600003 .535 .36900003 .508 .363 .48100005 L .318 .301 C .314 .286 .271 .21600002 .20500002 .21600002 C .15400002 .21600002 .143 .26000003 .143 .29700003 C .143 .34300003 .16000001 .40500004 .194 .49300004 C .21000001 .53400006 .21400002 .545 .21400002 .56500008 C .21400002 .61 .18200001 .6470001 .13200002 .6470001 C .037 .6470001 0 .50200006 0 .49300004 C 0 .48300005 .01 .48300005 .012 .48300005 C .022000002 .48300005 .023 .485 .028000003 .50100007 C .055000009 .595 .095000009 .625 .12900001 .625 C .13700001 .625 .15400002 .625 .15400002 .59300008 C .15400002 .568 .14400001 .54200008 .13700001 .523 C .097 .41700004 .079 .36 .079 .31300003 C .079 .224 .142 .194 .201 .194 C .24000003 .194 .274 .21100001 .30200003 .23900002 C .289 .187 .277 .13800001 .237 .08500001 C .21100001 .051 .17300001 .022 .127 .022 C .113000009 .022 .068 .025000006 .051000008 .06400001 C .067 .06400001 .080000009 .06400001 .094000007 .076000008 C .104 .08500001 .11400001 .098000008 .11400001 .117000009 C .11400001 .148 .087000008 .15200001 .07700001 .15200001 C .054000006 .15200001 .021 .136 .021 .087000008 C .021 .037 .065000008 0 .127 0 C .23 0 .333 .091000009 .361 .20400001 L .45700003 .586 Z "/>
</symbol>
<use xlink:href="#font_1_4" transform="matrix(9.9626,0,0,-9.9626,19.404929,9.652441)"/>
</svg>
