<?xml version="1.0" encoding="UTF-8" standalone="no"?>
<!DOCTYPE svg PUBLIC "-//W3C//DTD SVG 1.1//EN" "http://www.w3.org/Graphics/SVG/1.1/DTD/svg11.dtd">
<svg xmlns="http://www.w3.org/2000/svg" xmlns:xlink="http://www.w3.org/1999/xlink" version="1.1" width="216.76pt" height="181.652pt" viewBox="0 0 216.76 181.652">
<path transform="matrix(1,0,0,-1,-26.667,174.63199)" stroke-width=".19925" stroke-linecap="butt" stroke-miterlimit="10" stroke-linejoin="miter" fill="none" stroke="#929292" d="M 36.42697 56.56302 L 36.42697 60.81569 M 72.85396 56.56302 L 72.85396 60.81569 M 109.28093 56.56302 L 109.28093 60.81569 M 182.1349 56.56302 L 182.1349 60.81569 M 218.56188 56.56302 L 218.56188 60.81569 "/>
<path transform="matrix(1,0,0,-1,-26.667,174.63199)" stroke-width=".19925" stroke-linecap="butt" stroke-miterlimit="10" stroke-linejoin="miter" fill="none" stroke="#929292" d="M 143.58187 0 L 147.83396 0 M 143.58187 29.34468 L 147.83396 29.34468 M 143.58187 88.03404 L 147.83396 88.03404 M 143.58187 117.37872 L 147.83396 117.37872 M 143.58187 146.7234 L 147.83396 146.7234 "/>
<path transform="matrix(1,0,0,-1,-26.667,174.63199)" stroke-width=".3985" stroke-linecap="butt" stroke-miterlimit="10" stroke-linejoin="miter" fill="none" stroke="#000000" d="M 36.42693 58.68936 L 228.71143 58.68936 "/>
<path transform="matrix(1,0,0,-1,202.04444,115.94263)" d="M 1.99252 0 L -1.19551 1.59401 L 0 0 L -1.19551 -1.59401 "/>
<path transform="matrix(1,0,0,-1,-26.667,174.63199)" stroke-width=".3985" stroke-linecap="butt" stroke-miterlimit="10" stroke-linejoin="miter" fill="none" stroke="#000000" d="M 145.70792 0 L 145.70792 159.40323 "/>
<path transform="matrix(0,-1,-1,-0,119.04092,15.22876)" d="M 1.99252 0 L -1.19551 1.59401 L 0 0 L -1.19551 -1.59401 "/>
<symbol id="font_0_1">
<path d="M .57600006 0 C .59300008 0 .611 0 .611 .019999996 C .611 .040000008 .59300008 .040000008 .57600006 .040000008 L .035000005 .040000008 C .018 .040000008 0 .040000008 0 .019999996 C 0 0 .018 0 .035000005 0 L .57600006 0 Z "/>
</symbol>
<use xlink:href="#font_0_1" transform="matrix(9.9626,0,0,-9.9626,4.2208969,125.79259)"/>
<symbol id="font_1_3">
<path d="M .24800003 .37400005 C .33 .40100003 .388 .47100006 .388 .55 C .388 .632 .3 .688 .204 .688 C .10300001 .688 .027000003 .628 .027000003 .55200007 C .027000003 .519 .049000004 .5 .078 .5 C .109000008 .5 .12900001 .522 .12900001 .55100008 C .12900001 .6010001 .082 .6010001 .067 .6010001 C .098 .65000006 .164 .66300007 .20000002 .66300007 C .24100003 .66300007 .29600004 .64100006 .29600004 .55100008 C .29600004 .53900006 .29400004 .48100005 .268 .43700005 C .238 .38900004 .204 .38600005 .17900002 .38500003 C .171 .38400004 .14700002 .38200004 .14000002 .38200004 C .132 .38100005 .125 .38000003 .125 .37000004 C .125 .35900004 .132 .35900004 .14900002 .35900004 L .19300002 .35900004 C .275 .35900004 .312 .29100005 .312 .193 C .312 .057000005 .24300003 .028 .199 .028 C .15600002 .028 .081 .045 .046000005 .104 C .081 .09900001 .11200001 .12100001 .11200001 .15900001 C .11200001 .19500001 .085 .215 .056 .215 C .031999999 .215 0 .201 0 .157 C 0 .06600001 .093 0 .20200002 0 C .32400004 0 .41500003 .091000009 .41500003 .193 C .41500003 .27500005 .35200004 .35300005 .24800003 .37400005 Z "/>
</symbol>
<use xlink:href="#font_1_3" transform="matrix(9.9626,0,0,-9.9626,11.56143,128.30316)"/>
<use xlink:href="#font_0_1" transform="matrix(9.9626,0,0,-9.9626,40.647897,125.79259)"/>
<symbol id="font_1_2">
<path d="M .07700001 .07700001 L .18300002 .18 C .33900003 .31800003 .39900003 .372 .39900003 .47200004 C .39900003 .586 .30900003 .666 .18700002 .666 C .074 .666 0 .574 0 .485 C 0 .42900003 .05 .42900003 .053000008 .42900003 C .07000001 .42900003 .105000007 .441 .105000007 .48200003 C .105000007 .508 .08700001 .53400006 .052000006 .53400006 C .044000005 .53400006 .042000008 .53400006 .039 .53300008 C .062000004 .59800007 .11600001 .63500007 .17400001 .63500007 C .26500003 .63500007 .308 .554 .308 .47200004 C .308 .39200003 .25800003 .31300003 .20300003 .25100003 L .011000004 .037 C 0 .026 0 .024 0 0 L .37100003 0 L .39900003 .17400001 L .374 .17400001 C .36900003 .14400001 .36200003 .1 .352 .085 C .345 .07700001 .279 .07700001 .257 .07700001 L .07700001 .07700001 Z "/>
</symbol>
<use xlink:href="#font_1_2" transform="matrix(9.9626,0,0,-9.9626,48.06813,128.08399)"/>
<use xlink:href="#font_0_1" transform="matrix(9.9626,0,0,-9.9626,77.0739,125.79259)"/>
<symbol id="font_1_1">
<path d="M .205 .64000007 C .205 .66400006 .205 .666 .18200003 .666 C .120000008 .60200008 .032000007 .60200008 0 .60200008 L 0 .57100006 C .020000004 .57100006 .07900001 .57100006 .13100001 .597 L .13100001 .079 C .13100001 .043 .128 .031000002 .038000004 .031000002 L .0060000049 .031000002 L .0060000049 0 C .04100001 .003 .128 .003 .168 .003 C .20800002 .003 .29500003 .003 .33000005 0 L .33000005 .031000002 L .29800005 .031000002 C .20800002 .031000002 .205 .042000005 .205 .079 L .205 .64000007 Z "/>
</symbol>
<use xlink:href="#font_1_1" transform="matrix(9.9626,0,0,-9.9626,84.882678,128.08399)"/>
<use xlink:href="#font_1_1" transform="matrix(9.9626,0,0,-9.9626,153.86168,128.08399)"/>
<use xlink:href="#font_1_2" transform="matrix(9.9626,0,0,-9.9626,189.89913,128.08399)"/>
<use xlink:href="#font_0_1" transform="matrix(9.9626,0,0,-9.9626,101.41589,175.13559)"/>
<symbol id="font_1_4">
<path d="M .266 .165 L .266 .078 C .266 .042000005 .26400004 .031000002 .19000001 .031000002 L .16900002 .031000002 L .16900002 0 C .21000001 .003 .26200003 .003 .30400003 .003 C .34600003 .003 .39900003 .003 .44000004 0 L .44000004 .031000002 L .41900004 .031000002 C .34500004 .031000002 .34300003 .042000005 .34300003 .078 L .34300003 .165 L .44300003 .165 L .44300003 .19600001 L .34300003 .19600001 L .34300003 .651 C .34300003 .671 .34300003 .67700007 .32700003 .67700007 C .31800003 .67700007 .31500004 .67700007 .307 .665 L 0 .19600001 L 0 .165 L .266 .165 M .272 .19600001 L .028 .19600001 L .272 .569 L .272 .19600001 Z "/>
</symbol>
<use xlink:href="#font_1_4" transform="matrix(9.9626,0,0,-9.9626,108.61695,177.42699)"/>
<use xlink:href="#font_0_1" transform="matrix(9.9626,0,0,-9.9626,101.41589,145.7916)"/>
<use xlink:href="#font_1_2" transform="matrix(9.9626,0,0,-9.9626,108.83613,148.083)"/>
<use xlink:href="#font_1_2" transform="matrix(9.9626,0,0,-9.9626,108.836139,89.80999)"/>
<use xlink:href="#font_1_4" transform="matrix(9.9626,0,0,-9.9626,108.61696,60.46498)"/>
<symbol id="font_1_5">
<path d="M .089999999 .35000003 L .089999999 .37400005 C .089999999 .62700006 .21400002 .66300007 .26500003 .66300007 C .28900004 .66300007 .33100004 .65700009 .35300002 .623 C .33800004 .623 .298 .623 .298 .57800009 C .298 .54700008 .32200004 .53200009 .344 .53200009 C .36 .53200009 .39000003 .54100009 .39000003 .58000007 C .39000003 .64000007 .34600003 .688 .263 .688 C .13499999 .688 0 .559 0 .33800004 C 0 .071 .116000007 0 .20900002 0 C .32000003 0 .41500003 .094000007 .41500003 .22600001 C .41500003 .35300005 .32600004 .44900004 .215 .44900004 C .14700002 .44900004 .11000001 .39800004 .089999999 .35000003 M .20900002 .028 C .146 .028 .116000007 .088 .11000001 .103 C .092 .15 .092 .23 .092 .24800001 C .092 .32600004 .124000009 .42600004 .21400002 .42600004 C .23000002 .42600004 .27600003 .42600004 .307 .36400003 C .32500003 .32700003 .32500003 .27600003 .32500003 .22700002 C .32500003 .179 .32500003 .12900001 .30800004 .093 C .27800004 .033000005 .23200003 .028 .20900002 .028 Z "/>
</symbol>
<use xlink:href="#font_1_5" transform="matrix(9.9626,0,0,-9.9626,108.75643,31.340165)"/>
<clipPath id="cp2">
<path transform="matrix(1,0,0,-1,-26.667,174.63199)" d="M 36.42693 0 L 230.70395 0 L 230.70395 161.39575 L 36.42693 161.39575 Z "/>
</clipPath>
<g clip-path="url(#cp2)">
<path transform="matrix(1,0,0,-1,-26.667,174.63199)" stroke-width=".3985" stroke-linecap="butt" stroke-dasharray="2.98883,2.98883" stroke-miterlimit="10" stroke-linejoin="miter" fill="none" stroke="#000000" d="M 72.85396 19.55821 L 72.85396 146.7234 "/>
<path transform="matrix(1,0,0,-1,-26.667,174.63199)" stroke-width=".3985" stroke-linecap="butt" stroke-dasharray="2.98883,2.98883" stroke-miterlimit="10" stroke-linejoin="miter" fill="none" stroke="#000000" d="M 182.1349 58.68936 L 182.1349 102.70638 "/>
<path transform="matrix(1,0,0,-1,-26.667,174.63199)" stroke-width="1.19553" stroke-linecap="butt" stroke-miterlimit="10" stroke-linejoin="miter" fill="none" stroke="#000080" d="M 0 449.9523 C 0 449.9523 8.77286 322.5386 12.1423 283.33106 C 15.51173 244.12352 20.91516 193.95975 24.2846 167.37158 C 27.65405 140.78342 33.05748 108.39014 36.42693 91.702 C 39.79637 75.01384 45.1998 56.29362 48.56923 47.09496 C 51.93867 37.8963 57.34212 29.22444 60.71156 25.40443 C 64.081 21.58441 69.48442 19.81422 72.85387 19.56296 C 76.22331 19.3117 81.62674 21.7839 84.99619 23.59348 C 88.36563 25.40305 93.76904 29.94102 97.13849 32.60509 C 100.50793 35.26917 105.91138 40.18047 109.2808 42.79428 C 112.65025 45.4081 118.05368 49.48334 121.42313 51.4437 C 124.79256 53.40405 130.196 55.9179 133.56545 56.92319 C 136.93489 57.9285 142.3383 58.63908 145.70775 58.68936 C 149.0772 58.73962 154.48062 57.88873 157.85007 57.28555 C 161.21952 56.68236 166.62296 54.99545 169.99239 54.342 C 173.36183 53.68855 178.76526 52.37486 182.1347 52.57585 C 185.50414 52.77684 190.90758 53.52875 194.27703 55.79063 C 197.64647 58.05252 203.04988 63.04712 206.41933 68.87798 C 209.78878 74.70885 215.1922 86.6067 218.56165 97.81555 C 221.93109 109.0244 227.33452 130.96537 230.70395 149.66353 C 234.0734 168.36171 239.47682 203.97808 242.84627 232.57898 C 246.2157 261.1799 251.61914 314.58506 254.98859 355.79905 C 258.35804 397.01307 263.76145 472.7725 267.1309 529.62088 C 270.50035 586.4692 275.90376 689.7213 279.27323 765.52236 C 282.64265 841.3233 291.4155 1075.9415 291.4155 1075.9415 "/>
<path transform="matrix(1,0,0,-1,-26.667,174.63199)" stroke-width="1.19553" stroke-linecap="butt" stroke-miterlimit="10" stroke-linejoin="miter" fill="none" stroke="#008000" d="M 0 616.23837 C 0 616.23837 8.77286 540.6753 12.1423 513.53189 C 15.51173 486.3884 20.91516 445.0363 24.2846 420.6072 C 27.65405 396.17817 33.05748 359.17893 36.42693 337.4642 C 39.79637 315.74949 45.1998 283.103 48.56923 264.10255 C 51.93867 245.1021 57.34212 216.80826 60.71156 200.52214 C 64.081 184.23604 69.48442 160.29534 72.85387 146.72362 C 76.22331 133.1519 81.62674 113.564 84.99619 102.70662 C 88.36563 91.84926 93.76904 76.6142 97.13849 68.47115 C 100.50793 60.3281 105.91138 49.44589 109.2808 44.01718 C 112.65025 38.58849 118.05368 32.05914 121.42313 29.34479 C 124.79256 26.63042 130.196 24.45392 133.56545 24.45389 C 136.93489 24.45386 142.3383 26.63023 145.70775 29.34454 C 149.0772 32.05884 154.48062 38.5881 157.85007 44.01674 C 161.21952 49.44539 166.62296 60.32751 169.99239 68.47049 C 173.36183 76.61348 178.76526 91.84845 182.1347 102.70578 C 185.50414 113.56311 190.90758 133.15094 194.27703 146.72261 C 197.64647 160.2943 203.04988 184.23497 206.41933 200.521 C 209.78878 216.807 215.1922 245.10053 218.56165 264.1009 C 221.93109 283.10124 227.33452 315.7476 230.70395 337.4623 C 234.0734 359.177 239.47682 396.1762 242.84627 420.60523 C 246.2157 445.03425 251.61914 486.38636 254.98859 513.5297 C 258.35804 540.67306 263.76145 586.37789 267.1309 616.23556 C 270.50035 646.09329 275.90376 696.1512 279.27323 728.72329 C 282.64265 761.2953 291.4155 850.9922 291.4155 850.9922 "/>
<symbol id="font_3_1">
<path d="M .314 .605 L .4 .605 C .42000003 .605 .43 .605 .43 .625 C .43 .63600006 .42000003 .63600006 .40300004 .63600006 L .32000003 .63600006 L .34100003 .75 C .34500004 .771 .35900004 .842 .365 .8540001 C .374 .873 .39100004 .888 .41200004 .888 C .416 .888 .44200004 .888 .461 .87 C .41700004 .86600008 .407 .8310001 .407 .816 C .407 .793 .425 .781 .444 .781 C .47 .781 .49900005 .8030001 .49900005 .8410001 C .49900005 .8870001 .45300005 .9100001 .41200004 .9100001 C .37800003 .9100001 .31500004 .8920001 .28500004 .793 C .279 .7720001 .27600003 .7620001 .252 .63600006 L .18300002 .63600006 C .164 .63600006 .15300001 .63600006 .15300001 .61700007 C .15300001 .605 .162 .605 .18100001 .605 L .24700001 .605 L .172 .21000001 C .15400002 .113000009 .13700001 .022 .08500001 .022 C .081 .022 .056 .022 .037 .040000008 C .083000008 .043000014 .09200001 .07900001 .09200001 .094000007 C .09200001 .117000009 .074 .12900001 .055 .12900001 C .029 .12900001 0 .10700001 0 .069000009 C 0 .024000004 .044 0 .08500001 0 C .14 0 .18 .059 .19800002 .09700001 C .23000002 .16000001 .25300003 .28100003 .254 .28800003 L .314 .605 Z "/>
</symbol>
<use xlink:href="#font_3_1" transform="matrix(9.9626,0,0,-9.9626,61.23502,160.09131)" fill="#000080"/>
<use xlink:href="#font_3_1" transform="matrix(9.9626,0,0,-9.9626,68.52102,91.66731)" fill="#008000"/>
<symbol id="font_4_1">
<path d="M .24200002 .43100003 C .25 .448 .25100003 .456 .25100003 .463 C .25100003 .49400003 .22300002 .518 .192 .518 C .15400002 .518 .14200002 .487 .137 .47100003 L .0050000029 .038000004 C .0040000008 .036000007 0 .023000002 0 .022 C 0 .010000002 .031000004 0 .039000006 0 C .046000005 0 .047000007 .0020000004 .054000006 .017 L .24200002 .43100003 Z "/>
</symbol>
<use xlink:href="#font_4_1" transform="matrix(6.9738,0,0,-6.9738,74.27774,85.22505)" fill="#008000"/>
<use xlink:href="#font_4_1" transform="matrix(6.9738,0,0,-6.9738,76.57212,85.22505)" fill="#008000"/>
</g>
<path transform="matrix(1,0,0,-1,-26.667,174.63199)" d="M 74.84651 146.7234 C 74.84651 147.82389 73.95442 148.71596 72.85396 148.71596 C 71.75348 148.71596 70.8614 147.82389 70.8614 146.7234 C 70.8614 145.62294 71.75348 144.73085 72.85396 144.73085 C 73.95442 144.73085 74.84651 145.62294 74.84651 146.7234 Z M 72.85396 146.7234 " fill="#008000"/>
<path transform="matrix(1,0,0,-1,-26.667,174.63199)" stroke-width=".3985" stroke-linecap="butt" stroke-miterlimit="10" stroke-linejoin="miter" fill="none" stroke="#008000" d="M 74.84651 146.7234 C 74.84651 147.82389 73.95442 148.71596 72.85396 148.71596 C 71.75348 148.71596 70.8614 147.82389 70.8614 146.7234 C 70.8614 145.62294 71.75348 144.73085 72.85396 144.73085 C 73.95442 144.73085 74.84651 145.62294 74.84651 146.7234 Z M 72.85396 146.7234 "/>
<path transform="matrix(1,0,0,-1,-26.667,174.63199)" d="M 184.12746 102.70638 C 184.12746 103.80685 183.23537 104.69893 182.1349 104.69893 C 181.03443 104.69893 180.14235 103.80685 180.14235 102.70638 C 180.14235 101.60591 181.03443 100.71382 182.1349 100.71382 C 183.23537 100.71382 184.12746 101.60591 184.12746 102.70638 Z M 182.1349 102.70638 " fill="#008000"/>
<path transform="matrix(1,0,0,-1,-26.667,174.63199)" stroke-width=".3985" stroke-linecap="butt" stroke-miterlimit="10" stroke-linejoin="miter" fill="none" stroke="#008000" d="M 184.12746 102.70638 C 184.12746 103.80685 183.23537 104.69893 182.1349 104.69893 C 181.03443 104.69893 180.14235 103.80685 180.14235 102.70638 C 180.14235 101.60591 181.03443 100.71382 182.1349 100.71382 C 183.23537 100.71382 184.12746 101.60591 184.12746 102.70638 Z M 182.1349 102.70638 "/>
<path transform="matrix(1,0,0,-1,-26.667,174.63199)" d="M 147.70047 29.34468 C 147.70047 30.44514 146.80838 31.33723 145.70792 31.33723 C 144.60744 31.33723 143.71537 30.44514 143.71537 29.34468 C 143.71537 28.2442 144.60744 27.35213 145.70792 27.35213 C 146.80838 27.35213 147.70047 28.2442 147.70047 29.34468 Z M 145.70792 29.34468 " fill="#008000"/>
<path transform="matrix(1,0,0,-1,-26.667,174.63199)" stroke-width=".3985" stroke-linecap="butt" stroke-miterlimit="10" stroke-linejoin="miter" fill="none" stroke="#008000" d="M 147.70047 29.34468 C 147.70047 30.44514 146.80838 31.33723 145.70792 31.33723 C 144.60744 31.33723 143.71537 30.44514 143.71537 29.34468 C 143.71537 28.2442 144.60744 27.35213 145.70792 27.35213 C 146.80838 27.35213 147.70047 28.2442 147.70047 29.34468 Z M 145.70792 29.34468 "/>
<path transform="matrix(1,0,0,-1,-26.667,174.63199)" d="M 147.70047 58.68936 C 147.70047 59.78983 146.80838 60.68192 145.70792 60.68192 C 144.60744 60.68192 143.71537 59.78983 143.71537 58.68936 C 143.71537 57.58888 144.60744 56.69681 145.70792 56.69681 C 146.80838 56.69681 147.70047 57.58888 147.70047 58.68936 Z M 145.70792 58.68936 " fill="#000080"/>
<path transform="matrix(1,0,0,-1,-26.667,174.63199)" stroke-width=".3985" stroke-linecap="butt" stroke-miterlimit="10" stroke-linejoin="miter" fill="none" stroke="#000080" d="M 147.70047 58.68936 C 147.70047 59.78983 146.80838 60.68192 145.70792 60.68192 C 144.60744 60.68192 143.71537 59.78983 143.71537 58.68936 C 143.71537 57.58888 144.60744 56.69681 145.70792 56.69681 C 146.80838 56.69681 147.70047 57.58888 147.70047 58.68936 Z M 145.70792 58.68936 "/>
<path transform="matrix(1,0,0,-1,-26.667,174.63199)" d="M 74.84651 19.55821 C 74.84651 20.65869 73.95442 21.55077 72.85396 21.55077 C 71.75348 21.55077 70.8614 20.65869 70.8614 19.55821 C 70.8614 18.45775 71.75348 17.56566 72.85396 17.56566 C 73.95442 17.56566 74.84651 18.45775 74.84651 19.55821 Z M 72.85396 19.55821 " fill="#000080"/>
<path transform="matrix(1,0,0,-1,-26.667,174.63199)" stroke-width=".3985" stroke-linecap="butt" stroke-miterlimit="10" stroke-linejoin="miter" fill="none" stroke="#000080" d="M 74.84651 19.55821 C 74.84651 20.65869 73.95442 21.55077 72.85396 21.55077 C 71.75348 21.55077 70.8614 20.65869 70.8614 19.55821 C 70.8614 18.45775 71.75348 17.56566 72.85396 17.56566 C 73.95442 17.56566 74.84651 18.45775 74.84651 19.55821 Z M 72.85396 19.55821 "/>
<path transform="matrix(1,0,0,-1,-26.667,174.63199)" d="M 184.12746 52.57538 C 184.12746 53.67586 183.23537 54.56793 182.1349 54.56793 C 181.03443 54.56793 180.14235 53.67586 180.14235 52.57538 C 180.14235 51.47491 181.03443 50.58282 182.1349 50.58282 C 183.23537 50.58282 184.12746 51.47491 184.12746 52.57538 Z M 182.1349 52.57538 " fill="#000080"/>
<path transform="matrix(1,0,0,-1,-26.667,174.63199)" stroke-width=".3985" stroke-linecap="butt" stroke-miterlimit="10" stroke-linejoin="miter" fill="none" stroke="#000080" d="M 184.12746 52.57538 C 184.12746 53.67586 183.23537 54.56793 182.1349 54.56793 C 181.03443 54.56793 180.14235 53.67586 180.14235 52.57538 C 180.14235 51.47491 181.03443 50.58282 182.1349 50.58282 C 183.23537 50.58282 184.12746 51.47491 184.12746 52.57538 Z M 182.1349 52.57538 "/>
<symbol id="font_3_2">
<path d="M .305 .31300003 C .311 .33900003 .334 .43100003 .404 .43100003 C .409 .43100003 .433 .43100003 .454 .418 C .426 .41300003 .40600003 .388 .40600003 .36400003 C .40600003 .34800003 .417 .32900004 .444 .32900004 C .46600003 .32900004 .498 .34700004 .498 .38700003 C .498 .43900005 .439 .45300005 .405 .45300005 C .347 .45300005 .312 .40000005 .3 .37700004 C .275 .44300003 .221 .45300005 .19200002 .45300005 C .08800001 .45300005 .031000002 .32400004 .031000002 .29900003 C .031000002 .28900004 .041 .28900004 .043000007 .28900004 C .051000008 .28900004 .054000006 .291 .056 .3 C .09 .40600003 .156 .43100003 .19000001 .43100003 C .209 .43100003 .244 .42200003 .244 .36400003 C .244 .33300004 .22700002 .26600004 .19000001 .126 C .17400001 .064 .13900002 .022000002 .095000009 .022000002 C .08900001 .022000002 .06600001 .022000002 .045 .035 C .07000001 .040000004 .09200001 .061 .09200001 .089 C .09200001 .116000007 .07000001 .124000009 .055000009 .124000009 C .025 .124000009 0 .098000008 0 .06600001 C 0 .020000002 .050000006 0 .094000007 0 C .16000001 0 .19600001 .07000001 .19900002 .076000008 C .21100001 .039 .24700003 0 .307 0 C .41 0 .467 .12900001 .467 .15400002 C .467 .16400002 .458 .16400002 .455 .16400002 C .446 .16400002 .444 .16000001 .442 .15300001 C .409 .046 .341 .022000002 .30900003 .022000002 C .27 .022000002 .254 .054 .254 .08800001 C .254 .11000001 .26 .13200002 .271 .17600002 L .305 .31300003 Z "/>
</symbol>
<use xlink:href="#font_3_2" transform="matrix(9.9626,0,0,-9.9626,207.9609,118.186588)"/>
<symbol id="font_3_3">
<path d="M .45700003 .586 C .461 .6 .461 .602 .461 .609 C .461 .62700006 .447 .63600006 .432 .63600006 C .42200003 .63600006 .40600003 .63 .397 .615 C .395 .61 .387 .579 .38300003 .561 C .37600003 .535 .36900003 .508 .363 .48100005 L .318 .301 C .314 .286 .271 .21600002 .20500002 .21600002 C .15400002 .21600002 .143 .26000003 .143 .29700003 C .143 .34300003 .16000001 .40500004 .194 .49300004 C .21000001 .53400006 .21400002 .545 .21400002 .56500008 C .21400002 .61 .18200001 .6470001 .13200002 .6470001 C .037 .6470001 0 .50200006 0 .49300004 C 0 .48300005 .01 .48300005 .012 .48300005 C .022000002 .48300005 .023 .485 .028000003 .50100007 C .055000009 .595 .095000009 .625 .12900001 .625 C .13700001 .625 .15400002 .625 .15400002 .59300008 C .15400002 .568 .14400001 .54200008 .13700001 .523 C .097 .41700004 .079 .36 .079 .31300003 C .079 .224 .142 .194 .201 .194 C .24000003 .194 .274 .21100001 .30200003 .23900002 C .289 .187 .277 .13800001 .237 .08500001 C .21100001 .051 .17300001 .022 .127 .022 C .113000009 .022 .068 .025000006 .051000008 .06400001 C .067 .06400001 .080000009 .06400001 .094000007 .076000008 C .104 .08500001 .11400001 .098000008 .11400001 .117000009 C .11400001 .148 .087000008 .15200001 .07700001 .15200001 C .054000006 .15200001 .021 .136 .021 .087000008 C .021 .037 .065000008 0 .127 0 C .23 0 .333 .091000009 .361 .20400001 L .45700003 .586 Z "/>
</symbol>
<use xlink:href="#font_3_3" transform="matrix(9.9626,0,0,-9.9626,116.734928,9.725317)"/>
</svg>
