<?xml version="1.0" encoding="UTF-8" standalone="no"?>
<!DOCTYPE svg PUBLIC "-//W3C//DTD SVG 1.1//EN" "http://www.w3.org/Graphics/SVG/1.1/DTD/svg11.dtd">
<svg xmlns="http://www.w3.org/2000/svg" xmlns:xlink="http://www.w3.org/1999/xlink" version="1.1" width="343.707pt" height="85.039pt" viewBox="0 0 343.707 85.039">
<clipPath id="cp0">
<path transform="matrix(1,0,0,-1,28.644,85.039)" d="M -28.64407 0 L 315.0676 0 L 315.0676 85.03986 L -28.64407 85.03986 Z "/>
</clipPath>
<g clip-path="url(#cp0)">
<path transform="matrix(1,0,0,-1,28.644,85.039)" stroke-width=".3985" stroke-linecap="butt" stroke-miterlimit="10" stroke-linejoin="miter" fill="none" stroke="#000000" d="M 0 42.51993 L 284.43098 42.51993 "/>
<path transform="matrix(1,0,0,-1,313.07499,42.51907)" d="M 1.99252 0 L -1.19551 1.59401 L 0 0 L -1.19551 -1.59401 "/>
<path transform="matrix(1,0,0,-1,28.644,85.039)" stroke-width="1.59404" stroke-linecap="butt" stroke-miterlimit="10" stroke-linejoin="miter" fill="none" stroke="#000000" d="M 1.8238 73.59764 L 42.44821 55.5055 "/>
<path transform="matrix(.91531,.40765,.40765,-.91531,71.09221,29.5335)" d="M 3.78581 0 L -2.27148 3.02866 L 0 0 L -2.27148 -3.02866 "/>
<path transform="matrix(1,0,0,-1,28.644,85.039)" stroke-width="1.59404" stroke-linecap="butt" stroke-miterlimit="10" stroke-linejoin="miter" fill="none" stroke="#000000" d="M 49.68324 53.58322 L 137.56836 73.15317 "/>
<path transform="matrix(.97664,-.21748,-.21748,-.97664,166.21236,11.885834)" d="M 3.78581 0 L -2.27148 3.02866 L 0 0 L -2.27148 -3.02866 "/>
<path transform="matrix(1,0,0,-1,28.644,85.039)" stroke-width="1.59404" stroke-linecap="butt" stroke-miterlimit="10" stroke-linejoin="miter" fill="none" stroke="#000000" d="M 145.03557 73.59764 L 185.65998 55.5055 "/>
<path transform="matrix(.91531,.40765,.40765,-.91531,214.30397,29.5335)" d="M 3.78581 0 L -2.27148 3.02866 L 0 0 L -2.27148 -3.02866 "/>
<path transform="matrix(1,0,0,-1,28.644,85.039)" stroke-width="1.59404" stroke-linecap="butt" stroke-miterlimit="10" stroke-linejoin="miter" fill="none" stroke="#000000" d="M 192.895 53.58322 L 280.78013 73.15317 "/>
<path transform="matrix(.97664,-.21748,-.21748,-.97664,309.42414,11.885834)" d="M 3.78581 0 L -2.27148 3.02866 L 0 0 L -2.27148 -3.02866 "/>
<path transform="matrix(1,0,0,-1,28.644,85.039)" stroke-width=".3985" stroke-linecap="butt" stroke-dasharray="2.98883,2.98883" stroke-miterlimit="10" stroke-linejoin="miter" fill="none" stroke="#000000" d="M 47.73724 42.51993 L 47.73724 85.03986 "/>
<path transform="matrix(1,0,0,-1,28.644,85.039)" stroke-width=".3985" stroke-linecap="butt" stroke-dasharray="2.98883,2.98883" stroke-miterlimit="10" stroke-linejoin="miter" fill="none" stroke="#000000" d="M 143.21175 42.51993 L 143.21175 85.03986 "/>
<path transform="matrix(1,0,0,-1,28.644,85.039)" stroke-width=".3985" stroke-linecap="butt" stroke-dasharray="2.98883,2.98883" stroke-miterlimit="10" stroke-linejoin="miter" fill="none" stroke="#000000" d="M 190.949 42.51993 L 190.949 85.03986 "/>
<symbol id="font_1_1">
<path d="M .61100009 0 C .62700006 0 .64900007 0 .64900007 .022999987 C .64900007 .04599999 .62700006 .04599999 .61100009 .04599999 L .037999996 .04599999 C .022 .04599999 0 .04599999 0 .022999987 C 0 0 .022 0 .037999996 0 L .61100009 0 Z "/>
</symbol>
<use xlink:href="#font_1_1" transform="matrix(7.9701,0,0,-7.9701,71.67137,49.43979)"/>
<symbol id="font_2_5">
<path d="M .229 .20400001 C .245 .21900001 .287 .252 .303 .266 C .365 .323 .42400003 .37800003 .42400003 .469 C .42400003 .588 .324 .665 .199 .665 C .078999999 .665 0 .574 0 .485 C 0 .43600003 .039000006 .42900003 .053000004 .42900003 C .074 .42900003 .105000007 .44400005 .105000007 .48200003 C .105000007 .53400006 .055 .53400006 .042999999 .53400006 C .072 .60700008 .139 .632 .18800001 .632 C .28100003 .632 .32900004 .55300006 .32900004 .469 C .32900004 .365 .256 .289 .13800001 .16800002 L .012000002 .038000004 C 0 .027 0 .025 0 0 L .395 0 L .42400003 .179 L .393 .179 C .39000003 .15900001 .38200004 .109000008 .37 .09 C .36400003 .082 .28800003 .082 .272 .082 L .094 .082 L .229 .20400001 Z "/>
</symbol>
<use xlink:href="#font_2_5" transform="matrix(7.9701,0,0,-7.9701,77.979419,51.249)"/>
<symbol id="font_2_3">
<path d="M .448 .34 C .448 .44700004 .437 .512 .404 .57600006 C .36 .66400006 .279 .68600007 .224 .68600007 C .09800001 .68600007 .052 .59200009 .038000004 .56400009 C .0020000004 .49100004 0 .39200003 0 .34 C 0 .27400003 .0030000024 .17300001 .051000008 .09300001 C .09700001 .019000002 .171 0 .224 0 C .272 0 .358 .0150000019 .40800003 .11400001 C .44500003 .186 .448 .275 .448 .34 M .224 .028 C .19 .028 .121 .044000005 .1 .149 C .08900001 .206 .08900001 .3 .08900001 .35200004 C .08900001 .421 .08900001 .49100004 .1 .54600009 C .121 .64800009 .199 .65800008 .224 .65800008 C .25800003 .65800008 .32700003 .64100006 .347 .5500001 C .359 .49500004 .359 .42000003 .359 .35200004 C .359 .293 .359 .20300001 .347 .147 C .326 .042000005 .257 .028 .224 .028 Z "/>
</symbol>
<use xlink:href="#font_2_3" transform="matrix(7.9701,0,0,-7.9701,170.06377,51.416376)"/>
<symbol id="font_2_4">
<path d="M .21800001 .637 C .21800001 .66400006 .216 .665 .18900003 .665 C .14800002 .625 .09500001 .601 0 .601 L 0 .568 C .027000003 .568 .081 .568 .13900002 .595 L .13900002 .082 C .13900002 .045 .136 .033 .04100001 .033 L .0060000049 .033 L .0060000049 0 C .047000007 .003 .13300002 .003 .17800002 .003 C .223 .003 .31 .003 .351 0 L .351 .033 L .31600005 .033 C .221 .033 .21800001 .045 .21800001 .082 L .21800001 .637 Z "/>
</symbol>
<use xlink:href="#font_2_4" transform="matrix(7.9701,0,0,-7.9701,218.23813,51.249)"/>
<symbol id="font_3_3">
<path d="M .328 .60200008 L .421 .60200008 C .441 .60200008 .453 .60200008 .453 .62100008 C .453 .63500007 .44000004 .63500007 .423 .63500007 L .33400003 .63500007 C .35000003 .725 .36 .782 .37 .827 C .374 .84400007 .377 .855 .39200003 .86700007 C .405 .878 .41300003 .88000008 .42400003 .88000008 C .439 .88000008 .45500005 .87700006 .468 .869 C .463 .86700007 .45700003 .864 .45200003 .861 C .435 .852 .423 .83400008 .423 .814 C .423 .791 .441 .777 .463 .777 C .49200005 .777 .519 .80200007 .519 .837 C .519 .884 .47100003 .90800008 .423 .90800008 C .38900004 .90800008 .326 .892 .294 .8 C .285 .777 .285 .77500006 .25800003 .63500007 L .183 .63500007 C .163 .63500007 .15100001 .63500007 .15100001 .61600008 C .15100001 .60200008 .164 .60200008 .18100001 .60200008 L .252 .60200008 L .18 .21400002 C .161 .113000009 .146 .027999998 .092999998 .027999998 C .09 .027999998 .069000009 .027999998 .05 .040000008 C .096 .051 .096 .093 .096 .094000007 C .096 .117000009 .077999997 .13100001 .056000007 .13100001 C .029000003 .13100001 0 .10800001 0 .07000001 C 0 .027999998 .043 0 .092999998 0 C .154 0 .19600001 .06400001 .20899999 .08900001 C .245 .155 .268 .28000004 .27 .29000003 L .328 .60200008 Z "/>
</symbol>
<use xlink:href="#font_3_3" transform="matrix(7.9701,0,0,-7.9701,35.695356,61.3469)"/>
<symbol id="font_4_1">
<path d="M .25300003 .43100003 C .26 .446 .26200003 .45700003 .26200003 .46300004 C .26200003 .49400006 .23400001 .52000007 .20100002 .52000007 C .16100002 .52000007 .149 .48500005 .14500001 .47100006 L .004999995 .043 C .0029999987 .037000006 0 .029000003 0 .025000003 C 0 .008000001 .04 0 .041 0 C .050000006 0 .053999999 .009 .058 .017 L .25300003 .43100003 Z "/>
</symbol>
<use xlink:href="#font_4_1" transform="matrix(5.9776,0,0,-5.9776,40.568635,56.176874)"/>
<symbol id="font_2_1">
<path d="M .22999999 0 C .238 0 .25 0 .25 .0119999949 C .25 .015999988 .24900002 .01699999 .236 .029999987 C .099 .159 .065000008 .345 .065000008 .5 C .065000008 .78800007 .18399999 .92300006 .23500002 .96900007 C .24900002 .98200008 .25 .98300006 .25 .98800006 C .25 .99300006 .24599999 1 .236 1 C .22 1 .16999999 .94900009 .162 .94000008 C .028000005 .8 0 .62 0 .5 C 0 .276 .094000007 .095999989 .22999999 0 Z "/>
</symbol>
<use xlink:href="#font_2_1" transform="matrix(7.9701,0,0,-7.9701,43.70892,61.713525)"/>
<symbol id="font_3_4">
<path d="M .46900005 .409 C .425 .398 .423 .359 .423 .35500003 C .423 .333 .44000004 .31800003 .462 .31800003 C .48400004 .31800003 .518 .335 .518 .37800003 C .518 .435 .455 .451 .418 .451 C .37100003 .451 .333 .418 .31 .379 C .28800003 .432 .236 .451 .19500001 .451 C .08600001 .451 .025000003 .326 .025000003 .298 C .025000003 .289 .032 .285 .040000004 .285 C .052000006 .285 .054 .29 .057 .30200003 C .08 .375 .14 .423 .192 .423 C .231 .423 .25 .395 .25 .359 C .25 .33900003 .238 .293 .23000002 .261 C .22300002 .23200003 .201 .143 .19600001 .124000009 C .18200001 .07 .146 .028 .100999999 .028 C .097 .028 .07100001 .028 .05 .042000005 C .096 .053000004 .096 .095 .096 .096 C .096 .119 .07800001 .133 .056000007 .133 C .029000003 .133 0 .11 0 .072000008 C 0 .026 .049 0 .099999997 0 C .153 0 .19000001 .040000004 .208 .072000008 C .23000002 .023000002 .27600003 0 .324 0 C .43300004 0 .49300004 .125 .49300004 .15300001 C .49300004 .16300002 .485 .16600001 .47800005 .16600001 C .46600003 .16600001 .46400003 .15900001 .46100004 .14900002 C .441 .082 .384 .028 .326 .028 C .293 .028 .26900003 .050000006 .26900003 .092 C .26900003 .112 .275 .135 .289 .19100002 C .296 .22100002 .31800003 .30900003 .323 .328 C .337 .38 .372 .423 .41700004 .423 C .42200003 .423 .448 .423 .46900005 .409 Z "/>
</symbol>
<use xlink:href="#font_3_4" transform="matrix(7.9701,0,0,-7.9701,46.436044,59.8007)"/>
<symbol id="font_2_2">
<path d="M .24900002 .5 C .24900002 .595 .23300001 .709 .171 .827 C .12200001 .919 .031000004 1 .013000004 1 C .0029999987 1 0 .99300006 0 .98800006 C 0 .984 0 .98200008 .012000002 .97 C .15200001 .837 .18400002 .65400007 .18400002 .5 C .18400002 .213 .065 .07699999 .013999999 .030999989 C .001000002 .017999992 0 .01699999 0 .0119999949 C 0 .0069999846 .0029999987 0 .013000004 0 C .029 0 .07900001 .050999986 .087 .059999989 C .22100002 .2 .24900002 .38 .24900002 .5 Z "/>
</symbol>
<use xlink:href="#font_2_2" transform="matrix(7.9701,0,0,-7.9701,51.426206,61.713525)"/>
<symbol id="font_3_1">
<path d="M .628 .58000007 C .64000007 .586 .64900007 .592 .64900007 .605 C .64900007 .61800006 .63900008 .628 .62600007 .628 C .623 .628 .62100008 .628 .60800006 .62100008 L .020999998 .33900003 C .008999996 .33300004 0 .32700003 0 .314 C 0 .30100004 .008999996 .29500003 .020999998 .289 L .60800006 .0069999995 C .62100008 0 .623 0 .62600007 0 C .63900008 0 .64900007 .010000002 .64900007 .023000002 C .64900007 .036000004 .64000007 .042000005 .628 .048 L .076 .314 L .628 .58000007 Z "/>
</symbol>
<use xlink:href="#font_3_1" transform="matrix(7.9701,0,0,-7.9701,57.29537,60.231088)"/>
<use xlink:href="#font_2_3" transform="matrix(7.9701,0,0,-7.9701,65.85977,59.888376)"/>
<use xlink:href="#font_3_3" transform="matrix(7.9701,0,0,-7.9701,178.90535,61.3469)"/>
<use xlink:href="#font_4_1" transform="matrix(5.9776,0,0,-5.9776,183.77864,56.176874)"/>
<use xlink:href="#font_2_1" transform="matrix(7.9701,0,0,-7.9701,186.91893,61.713525)"/>
<use xlink:href="#font_3_4" transform="matrix(7.9701,0,0,-7.9701,189.64606,59.8007)"/>
<use xlink:href="#font_2_2" transform="matrix(7.9701,0,0,-7.9701,194.63622,61.713525)"/>
<use xlink:href="#font_3_1" transform="matrix(7.9701,0,0,-7.9701,200.50537,60.231088)"/>
<use xlink:href="#font_2_3" transform="matrix(7.9701,0,0,-7.9701,209.06977,59.888376)"/>
<use xlink:href="#font_3_3" transform="matrix(7.9701,0,0,-7.9701,107.300357,61.3469)"/>
<use xlink:href="#font_4_1" transform="matrix(5.9776,0,0,-5.9776,112.17363,56.176874)"/>
<use xlink:href="#font_2_1" transform="matrix(7.9701,0,0,-7.9701,115.31392,61.713525)"/>
<use xlink:href="#font_3_4" transform="matrix(7.9701,0,0,-7.9701,118.04104,59.8007)"/>
<use xlink:href="#font_2_2" transform="matrix(7.9701,0,0,-7.9701,123.0312,61.713525)"/>
<symbol id="font_3_2">
<path d="M .628 .289 C .64000007 .29500003 .64900007 .30100004 .64900007 .314 C .64900007 .32700003 .64000007 .33300004 .628 .33900003 L .041 .62100008 C .027999998 .628 .026 .628 .023000002 .628 C .009999998 .628 0 .61800006 0 .605 C 0 .592 .008999996 .586 .020999998 .58000007 L .573 .314 L .020999998 .048 C .008999996 .042000005 0 .036000004 0 .023000002 C 0 .010000002 .009999998 0 .023000002 0 C .026 0 .027999998 0 .041 .0069999995 L .628 .289 Z "/>
</symbol>
<use xlink:href="#font_3_2" transform="matrix(7.9701,0,0,-7.9701,128.90036,60.231088)"/>
<use xlink:href="#font_2_3" transform="matrix(7.9701,0,0,-7.9701,137.46475,59.888376)"/>
<use xlink:href="#font_3_3" transform="matrix(7.9701,0,0,-7.9701,250.51035,61.3469)"/>
<use xlink:href="#font_4_1" transform="matrix(5.9776,0,0,-5.9776,255.38364,56.176874)"/>
<use xlink:href="#font_2_1" transform="matrix(7.9701,0,0,-7.9701,258.52394,61.713525)"/>
<use xlink:href="#font_3_4" transform="matrix(7.9701,0,0,-7.9701,261.251,59.8007)"/>
<use xlink:href="#font_2_2" transform="matrix(7.9701,0,0,-7.9701,266.2412,61.713525)"/>
<use xlink:href="#font_3_2" transform="matrix(7.9701,0,0,-7.9701,272.11036,60.231088)"/>
<use xlink:href="#font_2_3" transform="matrix(7.9701,0,0,-7.9701,280.67475,59.888376)"/>
</g>
</svg>
