<?xml version="1.0" encoding="UTF-8" standalone="no"?>
<!DOCTYPE svg PUBLIC "-//W3C//DTD SVG 1.1//EN" "http://www.w3.org/Graphics/SVG/1.1/DTD/svg11.dtd">
<svg xmlns="http://www.w3.org/2000/svg" xmlns:xlink="http://www.w3.org/1999/xlink" version="1.1" width="365.734pt" height="145.656pt" viewBox="0 0 365.734 145.656">
<path transform="matrix(1,0,0,-1,21.547,84.63301)" stroke-width="1.19553" stroke-linecap="butt" stroke-miterlimit="10" stroke-linejoin="miter" fill="none" stroke="#800000" d="M 0 0 C 0 0 3.23764 9.69597 4.48112 13.19954 C 5.72461 16.70311 7.71878 22.06624 8.96228 25.2513 C 10.20576 28.43636 12.19994 33.28874 13.44342 36.1553 C 14.6869 39.02187 16.68108 43.36343 17.92458 45.91148 C 19.16806 48.45953 21.16223 52.29036 22.40572 54.51991 C 23.64922 56.74947 25.64336 60.06952 26.88686 61.98056 C 28.13034 63.8916 30.12451 66.7009 31.368 68.29343 C 32.6115 69.88596 34.60565 72.18446 35.84915 73.4585 C 37.09264 74.73253 39.0868 76.52028 40.33029 77.4758 C 41.57379 78.43132 43.56793 79.7083 44.81143 80.34532 C 46.05492 80.98235 48.04909 81.74852 49.29257 82.06703 C 50.53607 82.38554 52.53023 82.64099 53.77373 82.64099 C 55.01721 82.64099 57.01138 82.38562 58.25487 82.06714 C 59.49837 81.74866 61.49251 80.98253 62.73601 80.34554 C 63.97949 79.70854 65.97366 78.43163 67.21715 77.47614 C 68.46065 76.52065 70.4548 74.73296 71.6983 73.45895 C 72.94179 72.18495 74.93596 69.88647 76.17944 68.29398 C 77.42294 66.70149 79.41708 63.89227 80.66058 61.98126 C 81.90407 60.07025 83.89824 56.75024 85.14172 54.52072 C 86.38522 52.2912 88.37938 48.46043 89.62288 45.91241 C 90.86636 43.3644 92.86053 39.02286 94.10402 36.15633 C 95.34752 33.2898 97.34166 28.43748 98.58516 25.25246 C 99.82864 22.06743 101.82281 16.70433 103.0663 13.20079 C 104.3098 9.69727 107.54745 .00137 107.54745 .00137 "/>
<symbol id="font_0_3">
<path d="M .63 .67700007 L .019000002 .67700007 L 0 .45200003 L .025000003 .45200003 C .039 .61300006 .054 .646 .20500002 .646 C .223 .646 .24900003 .646 .259 .64400008 C .28 .64000007 .28 .629 .28 .606 L .28 .079 C .28 .045 .28 .031000002 .17500001 .031000002 L .135 .031000002 L .135 0 C .17600002 .003 .278 .003 .324 .003 C .37 .003 .473 .003 .514 0 L .514 .031000002 L .47400005 .031000002 C .36900003 .031000002 .36900003 .045 .36900003 .079 L .36900003 .606 C .36900003 .62600007 .36900003 .64000007 .387 .64400008 C .398 .646 .425 .646 .444 .646 C .595 .646 .61 .61300006 .624 .45200003 L .64900007 .45200003 L .63 .67700007 Z "/>
</symbol>
<symbol id="font_0_9">
<path d="M .07800001 .076000008 C .07800001 .031000002 .067 .031000002 0 .031000002 L 0 0 C .035 .001 .08600001 .003 .113000009 .003 C .139 .003 .191 .001 .225 0 L .225 .031000002 C .158 .031000002 .147 .031000002 .147 .076000008 L .147 .26000003 C .147 .36400003 .218 .42000003 .282 .42000003 C .345 .42000003 .356 .36600004 .356 .30900003 L .356 .076000008 C .356 .031000002 .345 .031000002 .278 .031000002 L .278 0 C .31300003 .001 .36400003 .003 .391 .003 C .41700004 .003 .46900005 .001 .503 0 L .503 .031000002 C .451 .031000002 .42600004 .031000002 .425 .061000006 L .425 .252 C .425 .33800004 .425 .36900003 .39400003 .40500004 C .38000003 .42200003 .347 .44200004 .289 .44200004 C .20500002 .44200004 .161 .38200004 .14400001 .344 L .14400001 .694 L 0 .683 L 0 .652 C .07000001 .652 .07800001 .64500007 .07800001 .596 L .07800001 .076000008 Z "/>
</symbol>
<symbol id="font_0_a">
<path d="M .144 .44200004 L .0040000008 .43100003 L .0040000008 .4 C .069000009 .4 .07800001 .39400003 .07800001 .34500004 L .07800001 .076000008 C .07800001 .031000002 .067 .031000002 0 .031000002 L 0 0 C .032000007 .001 .086 .003 .11000001 .003 C .14500001 .003 .18 .001 .21400002 0 L .21400002 .031000002 C .148 .031000002 .144 .036000004 .144 .075 L .144 .44200004 M .148 .61600008 C .148 .648 .123 .669 .095000009 .669 C .064 .669 .042000005 .642 .042000005 .61600008 C .042000005 .58900007 .064 .563 .095000009 .563 C .123 .563 .148 .58400008 .148 .61600008 Z "/>
</symbol>
<symbol id="font_0_f">
<path d="M .17500001 .20500002 C .197 .20100002 .279 .18500002 .279 .113000009 C .279 .062000004 .24400002 .022000002 .16600001 .022000002 C .082 .022000002 .046000005 .079 .027000003 .16400002 C .024000004 .17700002 .023000002 .18100001 .013000004 .18100001 C 0 .18100001 0 .17400001 0 .15600002 L 0 .024 C 0 .0070000009 0 0 .011000004 0 C .016000003 0 .017 .0010000002 .036000007 .020000002 C .038000004 .022000002 .038000004 .024 .056 .043 C .1 .0010000002 .14500001 0 .16600001 0 C .28100003 0 .32700003 .067 .32700003 .13900002 C .32700003 .19200002 .29700003 .22200002 .28500004 .23400001 C .25200004 .26600004 .213 .27400003 .171 .28200004 C .115 .293 .048 .30600003 .048 .36400003 C .048 .39900003 .07400001 .44000004 .16 .44000004 C .27 .44000004 .27500005 .35000003 .277 .31900005 C .27800004 .31000004 .28700004 .31000004 .28900004 .31000004 C .30200003 .31000004 .30200003 .31500004 .30200003 .33400003 L .30200003 .43500004 C .30200003 .45200003 .30200003 .45900003 .291 .45900003 C .286 .45900003 .284 .45900003 .27100004 .44700004 C .26800005 .44300003 .25800003 .43400003 .254 .43100003 C .21600002 .45900003 .17500001 .45900003 .16 .45900003 C .038000004 .45900003 0 .39200003 0 .33600004 C 0 .30100004 .016000003 .27300004 .043000007 .25100003 C .075 .22500003 .10300001 .21900001 .17500001 .20500002 Z "/>
</symbol>
<use xlink:href="#font_0_3" transform="matrix(9.9626,0,0,-9.9626,3.6796547,116.48801)"/>
<use xlink:href="#font_0_9" transform="matrix(9.9626,0,0,-9.9626,10.832802,116.48801)"/>
<use xlink:href="#font_0_a" transform="matrix(9.9626,0,0,-9.9626,16.38197,116.48801)"/>
<use xlink:href="#font_0_f" transform="matrix(9.9626,0,0,-9.9626,19.151574,116.597599)"/>
<use xlink:href="#font_0_a" transform="matrix(9.9626,0,0,-9.9626,26.394383,116.48801)"/>
<use xlink:href="#font_0_f" transform="matrix(9.9626,0,0,-9.9626,29.163987,116.597599)"/>
<symbol id="font_1_1">
<path d="M .069000009 .356 L .069000009 .047000003 L 0 .047000003 L 0 0 C .028000005 .001 .088 .003 .126 .003 C .165 .003 .22400002 .001 .25200004 0 L .25200004 .047000003 L .18300002 .047000003 L .18300002 .256 C .18300002 .365 .269 .41400004 .33200003 .41400004 C .366 .41400004 .38700003 .393 .38700003 .317 L .38700003 .047000003 L .31800003 .047000003 L .31800003 0 C .34600003 .001 .40600003 .003 .444 .003 C .48299999 .003 .542 .001 .57 0 L .57 .047000003 L .501 .047000003 L .501 .30600003 C .501 .411 .44700004 .45000003 .347 .45000003 C .251 .45000003 .19800002 .393 .172 .342 L .172 .45000003 L 0 .44200004 L 0 .395 C .062000008 .395 .069000009 .395 .069000009 .356 Z "/>
</symbol>
<symbol id="font_1_2">
<path d="M .51000007 .224 C .51000007 .35800005 .418 .45900003 .255 .45900003 C .091000009 .45900003 0 .35700003 0 .224 C 0 .1 .088 0 .255 0 C .423 0 .51000007 .101 .51000007 .224 M .255 .040000004 C .128 .040000004 .128 .148 .128 .23500002 C .128 .28000004 .128 .33100004 .145 .36500005 C .164 .40200005 .206 .42300005 .255 .42300005 C .29700003 .42300005 .33900003 .40700004 .361 .37200005 C .38200004 .33800004 .38200004 .28300003 .38200004 .23500002 C .38200004 .148 .38200004 .040000004 .255 .040000004 Z "/>
</symbol>
<symbol id="font_1_3">
<path d="M .082 .40300004 L .082 .12900001 C .082 .022 .16900002 0 .24000001 0 C .316 0 .36100004 .057000005 .36100004 .13000001 L .36100004 .183 L .314 .183 L .314 .132 C .314 .064 .282 .040000004 .254 .040000004 C .19600001 .040000004 .19600001 .104 .19600001 .127 L .19600001 .40300004 L .342 .40300004 L .342 .45000006 L .19600001 .45000006 L .19600001 .64100006 L .149 .64100006 C .14800002 .541 .09900001 .44200004 0 .43900005 L 0 .40300004 L .082 .40300004 Z "/>
</symbol>
<use xlink:href="#font_1_1" transform="matrix(9.9626,0,0,-9.9626,36.534318,116.48801)"/>
<use xlink:href="#font_1_2" transform="matrix(9.9626,0,0,-9.9626,42.7709,116.54778)"/>
<use xlink:href="#font_1_3" transform="matrix(9.9626,0,0,-9.9626,48.38981,116.54778)"/>
<symbol id="font_0_4">
<path d="M .291 .087000008 C .29500003 .047000003 .32200004 .005000001 .36900003 .005000001 C .39000003 .005000001 .45100004 .019000002 .45100004 .1 L .45100004 .15600002 L .42600004 .15600002 L .42600004 .1 C .42600004 .042000005 .40100003 .036000004 .39000003 .036000004 C .35700003 .036000004 .35300002 .081 .35300002 .086 L .35300002 .286 C .35300002 .328 .35300002 .367 .31700004 .404 C .27800004 .44300003 .22800002 .45900003 .18 .45900003 C .098 .45900003 .029 .41200004 .029 .34600003 C .029 .316 .049000004 .29900003 .075 .29900003 C .10300001 .29900003 .121 .31900005 .121 .34500004 C .121 .35700003 .116000007 .39000003 .07 .39100004 C .09700001 .42600004 .146 .43700005 .178 .43700005 C .22700003 .43700005 .284 .39800004 .284 .30900003 L .284 .272 C .23300001 .26900003 .16300002 .26600004 .1 .23600002 C .024999999 .20200002 0 .15000002 0 .106000009 C 0 .025000003 .09700001 0 .16 0 C .22600001 0 .272 .040000004 .291 .087000008 M .284 .25100003 L .284 .15100001 C .284 .056 .21200001 .022000002 .167 .022000002 C .11800001 .022000002 .077 .057000005 .077 .107 C .077 .16200002 .11900001 .24500002 .284 .25100003 Z "/>
</symbol>
<symbol id="font_0_b">
<path d="M .07800001 .344 L .07800001 .076000008 C .07800001 .031000002 .067 .031000002 0 .031000002 L 0 0 C .035 .001 .08600001 .003 .113000009 .003 C .139 .003 .191 .001 .225 0 L .225 .031000002 C .158 .031000002 .147 .031000002 .147 .076000008 L .147 .26000003 C .147 .36400003 .218 .42000003 .282 .42000003 C .345 .42000003 .356 .36600004 .356 .30900003 L .356 .076000008 C .356 .031000002 .345 .031000002 .278 .031000002 L .278 0 C .31300003 .001 .36400003 .003 .391 .003 C .41700004 .003 .46900005 .001 .503 0 L .503 .031000002 C .451 .031000002 .42600004 .031000002 .425 .061000006 L .425 .252 C .425 .33800004 .425 .36900003 .39400003 .40500004 C .38000003 .42200003 .347 .44200004 .289 .44200004 C .216 .44200004 .169 .39900003 .141 .337 L .141 .44200004 L 0 .43100003 L 0 .4 C .07000001 .4 .07800001 .393 .07800001 .344 Z "/>
</symbol>
<symbol id="font_0_1">
<path d="M .356 .4 L .356 .076000008 C .356 .031000002 .345 .031000002 .278 .031000002 L .278 0 C .31100003 .001 .36400003 .003 .389 .003 C .414 .003 .463 .001 .5 0 L .5 .031000002 C .433 .031000002 .42200003 .031000002 .42200003 .076000008 L .42200003 .694 L .386 .688 C .382 .688 .381 .689 .377 .69100007 C .345 .70500007 .30400003 .70500007 .293 .70500007 C .18800001 .70500007 .079 .64900007 .079 .545 L .079 .43100003 L 0 .43100003 L 0 .4 L .079 .4 L .079 .076000008 C .079 .031000002 .068 .031000002 .0010000002 .031000002 L .0010000002 0 C .034 .001 .087000008 .003 .11200001 .003 C .13700001 .003 .18600002 .001 .223 0 L .223 .031000002 C .15600002 .031000002 .14500001 .031000002 .14500001 .076000008 L .14500001 .4 L .356 .4 M .356 .43100003 L .14200002 .43100003 L .14200002 .544 C .14200002 .637 .21800001 .683 .292 .683 C .301 .683 .328 .683 .356 .674 C .347 .67 .331 .66 .331 .634 C .331 .61600008 .33900003 .601 .356 .595 L .356 .43100003 Z "/>
</symbol>
<symbol id="font_0_7">
<path d="M .08400001 .263 C .09 .41200004 .17400001 .43700005 .20800002 .43700005 C .31100003 .43700005 .321 .30200003 .321 .263 L .08400001 .263 M .083000008 .24200002 L .36200003 .24200002 C .38400004 .24200002 .38700003 .24200002 .38700003 .263 C .38700003 .36200003 .33300004 .45900003 .20800002 .45900003 C .09200001 .45900003 0 .35600005 0 .23100002 C 0 .097 .105000007 0 .22000002 0 C .342 0 .38700003 .111 .38700003 .13000001 C .38700003 .14000002 .379 .14200002 .374 .14200002 C .365 .14200002 .36300005 .136 .36100004 .128 C .326 .025000003 .236 .025000003 .22600001 .025000003 C .17600002 .025000003 .136 .055000005 .113000009 .092 C .083000008 .14000002 .083000008 .20600002 .083000008 .24200002 Z "/>
</symbol>
<symbol id="font_0_5">
<path d="M .083000008 .22900002 C .083000008 .39200003 .16500002 .43400003 .218 .43400003 C .227 .43400003 .29 .43300004 .32500003 .397 C .284 .39400003 .278 .36400003 .278 .351 C .278 .32500003 .296 .305 .324 .305 C .35 .305 .37 .32200004 .37 .35200004 C .37 .42000003 .294 .45900003 .21700001 .45900003 C .092 .45900003 0 .351 0 .22700002 C 0 .09900001 .099 0 .215 0 C .349 0 .381 .120000008 .381 .13000001 C .381 .14000002 .37100003 .14000002 .368 .14000002 C .359 .14000002 .35700003 .136 .35500003 .13000001 C .326 .037 .261 .025000003 .224 .025000003 C .171 .025000003 .083000008 .068 .083000008 .22900002 Z "/>
</symbol>
<symbol id="font_0_10">
<path d="M .15400002 .411 L .29700003 .411 L .29700003 .44200004 L .15400002 .44200004 L .15400002 .626 L .12900001 .626 C .12799999 .544 .098000008 .43700005 0 .43300004 L 0 .411 L .085 .411 L .085 .135 C .085 .012000001 .178 0 .21400002 0 C .28500004 0 .31300003 .071 .31300003 .135 L .31300003 .19200002 L .28800003 .19200002 L .28800003 .13700001 C .28800003 .063 .25800003 .025000003 .22100002 .025000003 C .15400002 .025000003 .15400002 .116000007 .15400002 .13300002 L .15400002 .411 Z "/>
</symbol>
<symbol id="font_0_c">
<path d="M .44300003 .22500003 C .44300003 .35300002 .34300003 .45900003 .222 .45900003 C .097 .45900003 0 .35000003 0 .22500003 C 0 .096 .104 0 .22100002 0 C .342 0 .44300003 .098000008 .44300003 .22500003 M .222 .025000003 C .17900002 .025000003 .135 .046 .10800001 .092 C .083000008 .136 .083000008 .19700001 .083000008 .23300003 C .083000008 .272 .083000008 .32600004 .10700001 .37000004 C .134 .41600005 .18100001 .43700005 .22100002 .43700005 C .26500003 .43700005 .30800004 .41500003 .33400003 .37200005 C .36 .32900004 .36 .27100004 .36 .23300003 C .36 .19700001 .36 .143 .33800004 .09900001 C .316 .054 .272 .025000003 .222 .025000003 Z "/>
</symbol>
<symbol id="font_0_d">
<path d="M .14400001 .57000008 L .14400001 .63600006 L 0 .625 L 0 .594 C .07100001 .594 .07800001 .58800008 .07800001 .544 L .07800001 .076 C .07800001 .031000004 .067 .031000004 0 .031000004 L 0 0 C .034 .001000002 .08600001 .0029999912 .112 .0029999912 C .13900002 .0029999912 .19000001 .001000002 .22500003 0 L .22500003 .031000004 C .158 .031000004 .14700002 .031000004 .14700002 .076 L .14700002 .244 L .14700002 .25300003 C .15200001 .237 .19400002 .183 .27 .183 C .38900004 .183 .49300004 .28100003 .49300004 .41000004 C .49300004 .53700008 .39600004 .63600006 .284 .63600006 C .20600002 .63600006 .164 .592 .14400001 .57000008 M .14700002 .30800004 L .14700002 .531 C .17600002 .582 .22500003 .61100009 .27600003 .61100009 C .349 .61100009 .41000004 .523 .41000004 .41000004 C .41000004 .289 .34000004 .20500002 .266 .20500002 C .22600001 .20500002 .18800001 .22500001 .16100002 .266 C .14700002 .287 .14700002 .28800003 .14700002 .30800004 Z "/>
</symbol>
<symbol id="font_0_2">
<path d="M .106 .053000004 C .106 .082 .08200001 .106000009 .05300001 .106000009 C .024000004 .106000009 0 .082 0 .053000004 C 0 .024 .024000004 0 .05300001 0 C .08200001 0 .106 .024 .106 .053000004 Z "/>
</symbol>
<symbol id="font_0_11">
<path d="M .35900004 .09 L .35900004 0 L .503 .011000001 L .503 .042000005 C .43300004 .042000005 .425 .049000004 .425 .098000008 L .425 .45300005 L .278 .44200004 L .278 .411 C .34800003 .411 .356 .404 .356 .35500003 L .356 .17700002 C .356 .09 .308 .022000002 .23500002 .022000002 C .15100001 .022000002 .147 .069000009 .147 .12100001 L .147 .45300005 L 0 .44200004 L 0 .411 C .07800001 .411 .07800001 .40800003 .07800001 .31900005 L .07800001 .16900002 C .07800001 .091000009 .07800001 0 .23000002 0 C .286 0 .33 .028 .35900004 .09 Z "/>
</symbol>
<symbol id="font_0_e">
<path d="M .13900002 .33200003 L .13900002 .44200004 L 0 .43100003 L 0 .4 C .07000001 .4 .07800001 .393 .07800001 .344 L .07800001 .076000008 C .07800001 .031000002 .067 .031000002 0 .031000002 L 0 0 C .039 .001 .08600001 .003 .11400001 .003 C .15400002 .003 .20100002 .003 .24100003 0 L .24100003 .031000002 L .22000002 .031000002 C .14600002 .031000002 .14400001 .042000005 .14400001 .078 L .14400001 .23200001 C .14400001 .33100004 .18600002 .42000003 .26200003 .42000003 C .26900003 .42000003 .27100004 .42000003 .27300004 .41900004 C .27 .418 .25000004 .40600003 .25000004 .38000003 C .25000004 .35200004 .27100004 .337 .293 .337 C .31100003 .337 .33600004 .349 .33600004 .381 C .33600004 .41300003 .305 .44200004 .26200003 .44200004 C .18900001 .44200004 .15300001 .37500004 .13900002 .33200003 Z "/>
</symbol>
<symbol id="font_0_12">
<path d="M .397 .344 C .40600003 .367 .42300005 .41000004 .48900003 .411 L .48900003 .44200004 C .46600003 .44000004 .43700005 .43900005 .41400004 .43900005 C .39000003 .43900005 .344 .441 .32700003 .44200004 L .32700003 .411 C .36400003 .41000004 .37500004 .38700003 .37500004 .36800004 C .37500004 .35900004 .37300004 .35500003 .36900003 .344 L .26700003 .089 L .155 .36800004 C .14900002 .381 .14900002 .38300003 .14900002 .38500003 C .14900002 .411 .18800003 .411 .206 .411 L .206 .44200004 C .176 .441 .12000001 .43900005 .097 .43900005 C .07 .43900005 .030000002 .44000004 0 .44200004 L 0 .411 C .063 .411 .067 .40500004 .080000009 .374 L .224 .019000002 C .23000002 .005000001 .23200003 0 .245 0 C .25800003 0 .26200003 .009000001 .26600004 .019000002 L .397 .344 Z "/>
</symbol>
<symbol id="font_0_6">
<path d="M .34600003 .06600001 L .34600003 0 L .493 .011000001 L .493 .042000005 C .423 .042000005 .41500003 .049000004 .41500003 .098000008 L .41500003 .705 L .271 .694 L .271 .663 C .34100003 .663 .349 .656 .349 .607 L .349 .39100004 C .32 .42700003 .277 .45300005 .22299999 .45300005 C .10500001 .45300005 0 .35500003 0 .22600001 C 0 .09900001 .098 0 .21200001 0 C .276 0 .321 .034 .34600003 .06600001 M .34600003 .33400003 L .34600003 .12900001 C .34600003 .111 .34600003 .109000008 .335 .092 C .305 .044 .26 .022000002 .21700001 .022000002 C .17200002 .022000002 .136 .048 .11200001 .086 C .086 .127 .083000008 .18400002 .083000008 .22500003 C .083000008 .26200003 .085 .32200004 .114 .367 C .13500002 .39800004 .17300001 .43100003 .227 .43100003 C .262 .43100003 .30400003 .41600005 .335 .37100003 C .34600003 .35400004 .34600003 .35200004 .34600003 .33400003 Z "/>
</symbol>
<symbol id="font_0_13">
<path d="M .601 .34700004 C .619 .397 .65000006 .41000004 .685 .411 L .685 .44200004 C .66300007 .44000004 .634 .43900005 .61200007 .43900005 C .583 .43900005 .53800007 .441 .519 .44200004 L .519 .411 C .555 .41000004 .577 .39200003 .577 .36300005 C .577 .35700003 .577 .35500003 .572 .34200005 L .481 .086 L .382 .365 C .37800003 .37700004 .377 .37900005 .377 .38400004 C .377 .411 .416 .411 .43600003 .411 L .43600003 .44200004 C .407 .441 .356 .43900005 .33200003 .43900005 C .30200003 .43900005 .273 .44000004 .243 .44200004 L .243 .411 C .28 .411 .296 .40900005 .306 .39600004 C .31100003 .39000003 .322 .36 .329 .34100003 L .243 .09900001 L .148 .36600004 C .143 .37800003 .143 .38000003 .143 .38400004 C .143 .411 .182 .411 .202 .411 L .202 .44200004 C .172 .441 .116000007 .43900005 .09300001 .43900005 C .08900001 .43900005 .036 .44000004 0 .44200004 L 0 .411 C .050000006 .411 .062000008 .40800003 .07400001 .37600003 L .2 .022000002 C .205 .008000001 .208 0 .221 0 C .234 0 .236 .0060000007 .241 .020000002 L .342 .30300004 L .444 .019000002 C .448 .008000001 .451 0 .46400003 0 C .47700004 0 .48000003 .009000001 .48400004 .019000002 L .601 .34700004 Z "/>
</symbol>
<symbol id="font_0_8">
<path d="M .14200002 .43100003 L .14200002 .54700008 C .14200002 .63500007 .19 .683 .23400003 .683 C .23700002 .683 .25200004 .683 .26700003 .67600008 C .25500003 .67200008 .23700002 .65900006 .23700002 .634 C .23700002 .611 .25300003 .591 .28000004 .591 C .30900003 .591 .32400004 .611 .32400004 .63500007 C .32400004 .67200008 .28700004 .70500007 .23400003 .70500007 C .164 .70500007 .079 .652 .079 .546 L .079 .43100003 L 0 .43100003 L 0 .4 L .079 .4 L .079 .076000008 C .079 .031000002 .068 .031000002 .001000002 .031000002 L .001000002 0 C .040000008 .001 .087000008 .003 .115 .003 C .155 .003 .20200002 .003 .24200002 0 L .24200002 .031000002 L .22100002 .031000002 C .14700002 .031000002 .14500001 .042000005 .14500001 .078 L .14500001 .4 L .25900004 .4 L .25900004 .43100003 L .14200002 .43100003 Z "/>
</symbol>
<use xlink:href="#font_0_4" transform="matrix(9.9626,0,0,-9.9626,56.37343,116.597599)"/>
<use xlink:href="#font_0_b" transform="matrix(9.9626,0,0,-9.9626,61.2551,116.48801)"/>
<use xlink:href="#font_0_a" transform="matrix(9.9626,0,0,-9.9626,70.12181,116.48801)"/>
<use xlink:href="#font_0_b" transform="matrix(9.9626,0,0,-9.9626,72.88145,116.48801)"/>
<use xlink:href="#font_0_1" transform="matrix(9.9626,0,0,-9.9626,78.37084,116.48801)"/>
<use xlink:href="#font_0_7" transform="matrix(9.9626,0,0,-9.9626,83.92001,116.597599)"/>
<use xlink:href="#font_0_5" transform="matrix(9.9626,0,0,-9.9626,88.40318,116.597599)"/>
<use xlink:href="#font_0_10" transform="matrix(9.9626,0,0,-9.9626,92.67714,116.597599)"/>
<use xlink:href="#font_0_a" transform="matrix(9.9626,0,0,-9.9626,96.69206,116.48801)"/>
<use xlink:href="#font_0_c" transform="matrix(9.9626,0,0,-9.9626,99.41185,116.597599)"/>
<use xlink:href="#font_0_b" transform="matrix(9.9626,0,0,-9.9626,104.433,116.48801)"/>
<use xlink:href="#font_0_d" transform="matrix(9.9626,0,0,-9.9626,113.259868,118.42075)"/>
<use xlink:href="#font_0_c" transform="matrix(9.9626,0,0,-9.9626,119.06806,116.597599)"/>
<use xlink:href="#font_0_a" transform="matrix(9.9626,0,0,-9.9626,124.099178,116.48801)"/>
<use xlink:href="#font_0_b" transform="matrix(9.9626,0,0,-9.9626,126.85881,116.48801)"/>
<use xlink:href="#font_0_10" transform="matrix(9.9626,0,0,-9.9626,131.98955,116.597599)"/>
<use xlink:href="#font_0_2" transform="matrix(9.9626,0,0,-9.9626,136.5325,116.48801)"/>
<use xlink:href="#font_0_3" transform="matrix(9.9626,0,0,-9.9626,3.6796537,128.44301)"/>
<use xlink:href="#font_0_9" transform="matrix(9.9626,0,0,-9.9626,10.8328,128.44301)"/>
<use xlink:href="#font_0_7" transform="matrix(9.9626,0,0,-9.9626,16.332158,128.5526)"/>
<use xlink:href="#font_0_5" transform="matrix(9.9626,0,0,-9.9626,24.132872,128.5526)"/>
<use xlink:href="#font_0_11" transform="matrix(9.9626,0,0,-9.9626,28.536345,128.5526)"/>
<use xlink:href="#font_0_e" transform="matrix(9.9626,0,0,-9.9626,34.035699,128.44301)"/>
<use xlink:href="#font_0_12" transform="matrix(9.9626,0,0,-9.9626,37.85137,128.5526)"/>
<use xlink:href="#font_0_7" transform="matrix(9.9626,0,0,-9.9626,42.922338,128.5526)"/>
<use xlink:href="#font_0_a" transform="matrix(9.9626,0,0,-9.9626,50.72305,128.44301)"/>
<use xlink:href="#font_0_f" transform="matrix(9.9626,0,0,-9.9626,53.492654,128.5526)"/>
<use xlink:href="#font_0_5" transform="matrix(9.9626,0,0,-9.9626,60.74543,128.5526)"/>
<use xlink:href="#font_0_c" transform="matrix(9.9626,0,0,-9.9626,65.10905,128.5526)"/>
<use xlink:href="#font_0_b" transform="matrix(9.9626,0,0,-9.9626,70.130199,128.44301)"/>
<use xlink:href="#font_0_5" transform="matrix(9.9626,0,0,-9.9626,75.68933,128.5526)"/>
<use xlink:href="#font_0_4" transform="matrix(9.9626,0,0,-9.9626,80.19242,128.5526)"/>
<use xlink:href="#font_0_12" transform="matrix(9.9626,0,0,-9.9626,84.665637,128.5526)"/>
<use xlink:href="#font_0_7" transform="matrix(9.9626,0,0,-9.9626,89.74656,128.5526)"/>
<use xlink:href="#font_0_6" transform="matrix(9.9626,0,0,-9.9626,97.54727,128.5526)"/>
<use xlink:href="#font_0_c" transform="matrix(9.9626,0,0,-9.9626,103.0267,128.5526)"/>
<use xlink:href="#font_0_13" transform="matrix(9.9626,0,0,-9.9626,107.629428,128.5526)"/>
<use xlink:href="#font_0_b" transform="matrix(9.9626,0,0,-9.9626,114.9619,128.44301)"/>
<use xlink:href="#font_0_c" transform="matrix(9.9626,0,0,-9.9626,123.7788,128.5526)"/>
<use xlink:href="#font_0_b" transform="matrix(9.9626,0,0,-9.9626,128.79994,128.44301)"/>
<use xlink:href="#font_0_7" transform="matrix(9.9626,0,0,-9.9626,3.599953,140.5076)"/>
<use xlink:href="#font_0_a" transform="matrix(9.9626,0,0,-9.9626,8.07316,140.39801)"/>
<use xlink:href="#font_0_10" transform="matrix(9.9626,0,0,-9.9626,10.703287,140.5076)"/>
<use xlink:href="#font_0_9" transform="matrix(9.9626,0,0,-9.9626,14.708252,140.39801)"/>
<use xlink:href="#font_0_7" transform="matrix(9.9626,0,0,-9.9626,20.207608,140.5076)"/>
<use xlink:href="#font_0_e" transform="matrix(9.9626,0,0,-9.9626,24.631005,140.39801)"/>
<use xlink:href="#font_0_f" transform="matrix(9.9626,0,0,-9.9626,31.903702,140.5076)"/>
<use xlink:href="#font_0_a" transform="matrix(9.9626,0,0,-9.9626,35.828969,140.39801)"/>
<use xlink:href="#font_0_6" transform="matrix(9.9626,0,0,-9.9626,38.608537,140.5076)"/>
<use xlink:href="#font_0_7" transform="matrix(9.9626,0,0,-9.9626,44.087968,140.5076)"/>
<use xlink:href="#font_0_c" transform="matrix(9.9626,0,0,-9.9626,51.838869,140.5076)"/>
<use xlink:href="#font_0_8" transform="matrix(9.9626,0,0,-9.9626,56.86998,140.39801)"/>
<use xlink:href="#font_0_10" transform="matrix(9.9626,0,0,-9.9626,63.096609,140.5076)"/>
<use xlink:href="#font_0_9" transform="matrix(9.9626,0,0,-9.9626,67.10157,140.39801)"/>
<use xlink:href="#font_0_7" transform="matrix(9.9626,0,0,-9.9626,72.60093,140.5076)"/>
<use xlink:href="#font_0_d" transform="matrix(9.9626,0,0,-9.9626,80.341869,142.33075)"/>
<use xlink:href="#font_0_c" transform="matrix(9.9626,0,0,-9.9626,86.16003,140.5076)"/>
<use xlink:href="#font_0_a" transform="matrix(9.9626,0,0,-9.9626,91.19114,140.39801)"/>
<use xlink:href="#font_0_b" transform="matrix(9.9626,0,0,-9.9626,93.950778,140.39801)"/>
<use xlink:href="#font_0_10" transform="matrix(9.9626,0,0,-9.9626,99.08152,140.5076)"/>
<use xlink:href="#font_0_2" transform="matrix(9.9626,0,0,-9.9626,103.62446,140.39801)"/>
<path transform="matrix(1,0,0,-1,21.547,84.63301)" stroke-width="1.19553" stroke-linecap="butt" stroke-miterlimit="10" stroke-linejoin="miter" fill="none" stroke="#800000" d="M 215.09583 82.63974 C 215.09583 82.63974 216.71463 81.38896 217.33635 80.901 C 217.95809 80.41302 218.95517 79.6219 219.5769 79.12277 C 220.19863 78.62366 221.19571 77.81451 221.81745 77.30363 C 222.43918 76.79276 223.43625 75.96419 224.05799 75.44067 C 224.67972 74.91716 225.6768 74.06763 226.29853 73.5305 C 226.92026 72.99338 227.91735 72.12125 228.53908 71.56938 C 229.1608 71.01752 230.15789 70.12086 230.77962 69.55298 C 231.40135 68.98509 232.39842 68.06175 233.02016 67.47636 C 233.64189 66.89096 234.63898 65.9384 235.2607 65.33376 C 235.88243 64.72913 236.87952 63.74438 237.50125 63.11847 C 238.12297 62.49255 239.12006 61.47215 239.74179 60.82254 C 240.36353 60.17293 241.3606 59.1127 241.98233 58.4365 C 242.60407 57.76027 243.60115 56.65517 244.22287 55.94876 C 244.8446 55.24236 245.84169 54.0862 246.46343 53.34515 C 247.08515 52.6041 248.08223 51.38914 248.70397 50.60777 C 249.3257 49.8264 250.32277 48.5427 250.9445 47.7136 C 251.56624 46.88449 252.56333 45.51904 253.18505 44.63217 C 253.80678 43.74529 254.80387 42.28036 255.4256 41.32152 C 256.04734 40.36269 257.0444 38.77348 257.66615 37.7215 C 258.28788 36.66951 259.28498 34.91905 259.90669 33.73946 C 260.5284 32.55986 261.5255 30.59073 262.14723 29.21974 C 262.76896 27.84875 263.76606 25.57149 264.38777 23.85826 C 265.0095 22.14505 266.0066 20.13478 266.6283 16.87206 C 267.25007 13.60933 268.86885 .34273 268.86885 .34273 "/>
<path transform="matrix(1,0,0,-1,21.547,84.63301)" stroke-width="1.19553" stroke-linecap="butt" stroke-miterlimit="10" stroke-linejoin="miter" fill="none" stroke="#800000" d="M 268.86979 0 C 268.86979 0 270.4886 13.55867 271.1103 16.8686 C 271.73204 20.17856 272.72914 22.14241 273.35087 23.85582 C 273.9726 25.56923 274.96968 27.84666 275.5914 29.21774 C 276.21315 30.58882 277.2102 32.55807 277.83195 33.73773 C 278.45368 34.91739 279.45079 36.6679 280.07249 37.71992 C 280.6942 38.77197 281.6913 40.36125 282.31303 41.32011 C 282.93476 42.27898 283.93186 43.74393 284.55357 44.63084 C 285.17533 45.51776 286.1724 46.88326 286.7941 47.71237 C 287.41587 48.54149 288.41294 49.82524 289.03465 50.60661 C 289.6564 51.388 290.65348 52.60298 291.2752 53.34406 C 291.89695 54.08511 292.894 55.2413 293.51576 55.94772 C 294.13749 56.65414 295.13459 57.75926 295.7563 58.43549 C 296.37803 59.11171 297.3751 60.17197 297.99684 60.8216 C 298.61857 61.4712 299.61567 62.49162 300.23738 63.11754 C 300.85914 63.74347 301.8562 64.72823 302.4779 65.33287 C 303.09968 65.93752 304.09675 66.89008 304.71846 67.4755 C 305.3402 68.06091 306.33729 68.98424 306.959 69.55214 C 307.58073 70.12004 308.57783 71.01671 309.19956 71.56859 C 309.8213 72.12045 310.81837 72.99258 311.4401 73.52971 C 312.06184 74.06685 313.0589 74.9164 313.68064 75.4399 C 314.30238 75.96341 315.29945 76.792 315.9212 77.30289 C 316.5429 77.81377 317.54 78.62292 318.16175 79.12206 C 318.78346 79.62117 319.78053 80.41216 320.40229 80.90028 C 321.024 81.38843 322.6428 82.64027 322.6428 82.64027 "/>
<use xlink:href="#font_0_3" transform="matrix(9.9626,0,0,-9.9626,218.77266,116.48801)"/>
<use xlink:href="#font_0_9" transform="matrix(9.9626,0,0,-9.9626,225.9258,116.48801)"/>
<use xlink:href="#font_0_a" transform="matrix(9.9626,0,0,-9.9626,231.47496,116.48801)"/>
<use xlink:href="#font_0_f" transform="matrix(9.9626,0,0,-9.9626,234.24457,116.597599)"/>
<use xlink:href="#font_0_a" transform="matrix(9.9626,0,0,-9.9626,241.48738,116.48801)"/>
<use xlink:href="#font_0_f" transform="matrix(9.9626,0,0,-9.9626,244.25699,116.597599)"/>
<use xlink:href="#font_1_1" transform="matrix(9.9626,0,0,-9.9626,251.62732,116.48801)"/>
<use xlink:href="#font_1_2" transform="matrix(9.9626,0,0,-9.9626,257.86393,116.54778)"/>
<use xlink:href="#font_1_3" transform="matrix(9.9626,0,0,-9.9626,263.48283,116.54778)"/>
<use xlink:href="#font_0_4" transform="matrix(9.9626,0,0,-9.9626,271.46644,116.597599)"/>
<use xlink:href="#font_0_b" transform="matrix(9.9626,0,0,-9.9626,276.3481,116.48801)"/>
<use xlink:href="#font_0_a" transform="matrix(9.9626,0,0,-9.9626,285.2148,116.48801)"/>
<use xlink:href="#font_0_b" transform="matrix(9.9626,0,0,-9.9626,287.97447,116.48801)"/>
<use xlink:href="#font_0_1" transform="matrix(9.9626,0,0,-9.9626,293.46385,116.48801)"/>
<use xlink:href="#font_0_7" transform="matrix(9.9626,0,0,-9.9626,299.01304,116.597599)"/>
<use xlink:href="#font_0_5" transform="matrix(9.9626,0,0,-9.9626,303.4962,116.597599)"/>
<use xlink:href="#font_0_10" transform="matrix(9.9626,0,0,-9.9626,307.77018,116.597599)"/>
<use xlink:href="#font_0_a" transform="matrix(9.9626,0,0,-9.9626,311.7851,116.48801)"/>
<use xlink:href="#font_0_c" transform="matrix(9.9626,0,0,-9.9626,314.50489,116.597599)"/>
<use xlink:href="#font_0_b" transform="matrix(9.9626,0,0,-9.9626,319.52604,116.48801)"/>
<use xlink:href="#font_0_d" transform="matrix(9.9626,0,0,-9.9626,328.3529,118.42075)"/>
<use xlink:href="#font_0_c" transform="matrix(9.9626,0,0,-9.9626,334.1611,116.597599)"/>
<use xlink:href="#font_0_a" transform="matrix(9.9626,0,0,-9.9626,339.1922,116.48801)"/>
<use xlink:href="#font_0_b" transform="matrix(9.9626,0,0,-9.9626,341.95185,116.48801)"/>
<use xlink:href="#font_0_10" transform="matrix(9.9626,0,0,-9.9626,347.08259,116.597599)"/>
<use xlink:href="#font_0_2" transform="matrix(9.9626,0,0,-9.9626,351.62553,116.48801)"/>
<use xlink:href="#font_0_3" transform="matrix(9.9626,0,0,-9.9626,218.77266,128.44301)"/>
<use xlink:href="#font_0_9" transform="matrix(9.9626,0,0,-9.9626,225.9258,128.44301)"/>
<use xlink:href="#font_0_7" transform="matrix(9.9626,0,0,-9.9626,231.42514,128.5526)"/>
<use xlink:href="#font_0_5" transform="matrix(9.9626,0,0,-9.9626,239.22588,128.5526)"/>
<use xlink:href="#font_0_11" transform="matrix(9.9626,0,0,-9.9626,243.62935,128.5526)"/>
<use xlink:href="#font_0_e" transform="matrix(9.9626,0,0,-9.9626,249.1287,128.44301)"/>
<use xlink:href="#font_0_12" transform="matrix(9.9626,0,0,-9.9626,252.94437,128.5526)"/>
<use xlink:href="#font_0_7" transform="matrix(9.9626,0,0,-9.9626,258.01533,128.5526)"/>
<use xlink:href="#font_0_a" transform="matrix(9.9626,0,0,-9.9626,265.81605,128.44301)"/>
<use xlink:href="#font_0_f" transform="matrix(9.9626,0,0,-9.9626,268.58564,128.5526)"/>
<use xlink:href="#font_0_5" transform="matrix(9.9626,0,0,-9.9626,275.83839,128.5526)"/>
<use xlink:href="#font_0_c" transform="matrix(9.9626,0,0,-9.9626,280.20204,128.5526)"/>
<use xlink:href="#font_0_b" transform="matrix(9.9626,0,0,-9.9626,285.22319,128.44301)"/>
<use xlink:href="#font_0_5" transform="matrix(9.9626,0,0,-9.9626,290.7823,128.5526)"/>
<use xlink:href="#font_0_4" transform="matrix(9.9626,0,0,-9.9626,295.2854,128.5526)"/>
<use xlink:href="#font_0_12" transform="matrix(9.9626,0,0,-9.9626,299.7586,128.5526)"/>
<use xlink:href="#font_0_7" transform="matrix(9.9626,0,0,-9.9626,304.83955,128.5526)"/>
<use xlink:href="#font_0_6" transform="matrix(9.9626,0,0,-9.9626,312.64024,128.5526)"/>
<use xlink:href="#font_0_c" transform="matrix(9.9626,0,0,-9.9626,318.1197,128.5526)"/>
<use xlink:href="#font_0_13" transform="matrix(9.9626,0,0,-9.9626,322.72239,128.5526)"/>
<use xlink:href="#font_0_b" transform="matrix(9.9626,0,0,-9.9626,330.05488,128.44301)"/>
<use xlink:href="#font_0_c" transform="matrix(9.9626,0,0,-9.9626,338.87178,128.5526)"/>
<use xlink:href="#font_0_b" transform="matrix(9.9626,0,0,-9.9626,343.8929,128.44301)"/>
<use xlink:href="#font_0_7" transform="matrix(9.9626,0,0,-9.9626,218.69295,140.5076)"/>
<use xlink:href="#font_0_a" transform="matrix(9.9626,0,0,-9.9626,223.16617,140.39801)"/>
<use xlink:href="#font_0_10" transform="matrix(9.9626,0,0,-9.9626,225.7963,140.5076)"/>
<use xlink:href="#font_0_9" transform="matrix(9.9626,0,0,-9.9626,229.80127,140.39801)"/>
<use xlink:href="#font_0_7" transform="matrix(9.9626,0,0,-9.9626,235.30062,140.5076)"/>
<use xlink:href="#font_0_e" transform="matrix(9.9626,0,0,-9.9626,239.72402,140.39801)"/>
<use xlink:href="#font_0_f" transform="matrix(9.9626,0,0,-9.9626,246.99672,140.5076)"/>
<use xlink:href="#font_0_a" transform="matrix(9.9626,0,0,-9.9626,250.92198,140.39801)"/>
<use xlink:href="#font_0_6" transform="matrix(9.9626,0,0,-9.9626,253.70156,140.5076)"/>
<use xlink:href="#font_0_7" transform="matrix(9.9626,0,0,-9.9626,259.181,140.5076)"/>
<use xlink:href="#font_0_c" transform="matrix(9.9626,0,0,-9.9626,266.93193,140.5076)"/>
<use xlink:href="#font_0_8" transform="matrix(9.9626,0,0,-9.9626,271.963,140.39801)"/>
<use xlink:href="#font_0_10" transform="matrix(9.9626,0,0,-9.9626,278.18965,140.5076)"/>
<use xlink:href="#font_0_9" transform="matrix(9.9626,0,0,-9.9626,282.1946,140.39801)"/>
<use xlink:href="#font_0_7" transform="matrix(9.9626,0,0,-9.9626,287.69398,140.5076)"/>
<use xlink:href="#font_0_d" transform="matrix(9.9626,0,0,-9.9626,295.4349,142.33075)"/>
<use xlink:href="#font_0_c" transform="matrix(9.9626,0,0,-9.9626,301.25309,140.5076)"/>
<use xlink:href="#font_0_a" transform="matrix(9.9626,0,0,-9.9626,306.28419,140.39801)"/>
<use xlink:href="#font_0_b" transform="matrix(9.9626,0,0,-9.9626,309.04383,140.39801)"/>
<use xlink:href="#font_0_10" transform="matrix(9.9626,0,0,-9.9626,314.17457,140.5076)"/>
<use xlink:href="#font_0_2" transform="matrix(9.9626,0,0,-9.9626,318.7175,140.39801)"/>
<path transform="matrix(1,0,0,-1,21.547,84.63301)" d="M 55.76651 82.64099 C 55.76651 83.74146 54.87442 84.63354 53.77396 84.63354 C 52.67348 84.63354 51.7814 83.74146 51.7814 82.64099 C 51.7814 81.54051 52.67348 80.64844 53.77396 80.64844 C 54.87442 80.64844 55.76651 81.54051 55.76651 82.64099 Z M 53.77396 82.64099 " fill="#800000"/>
<path transform="matrix(1,0,0,-1,21.547,84.63301)" stroke-width="1" stroke-linecap="butt" stroke-miterlimit="10" stroke-linejoin="miter" fill="none" stroke="#800000" d="M 55.76651 82.64099 C 55.76651 83.74146 54.87442 84.63354 53.77396 84.63354 C 52.67348 84.63354 51.7814 83.74146 51.7814 82.64099 C 51.7814 81.54051 52.67348 80.64844 53.77396 80.64844 C 54.87442 80.64844 55.76651 81.54051 55.76651 82.64099 Z M 53.77396 82.64099 "/>
<path transform="matrix(1,0,0,-1,21.547,84.63301)" d="M 270.86235 0 C 270.86235 1.10046 269.97026 1.99255 268.86979 1.99255 C 267.76933 1.99255 266.87724 1.10046 266.87724 0 C 266.87724 -1.10046 267.76933 -1.99255 268.86979 -1.99255 C 269.97026 -1.99255 270.86235 -1.10046 270.86235 0 Z M 268.86979 0 " fill="#800000"/>
<path transform="matrix(1,0,0,-1,21.547,84.63301)" stroke-width="1" stroke-linecap="butt" stroke-miterlimit="10" stroke-linejoin="miter" fill="none" stroke="#800000" d="M 270.86235 0 C 270.86235 1.10046 269.97026 1.99255 268.86979 1.99255 C 267.76933 1.99255 266.87724 1.10046 266.87724 0 C 266.87724 -1.10046 267.76933 -1.99255 268.86979 -1.99255 C 269.97026 -1.99255 270.86235 -1.10046 270.86235 0 Z M 268.86979 0 "/>
</svg>
