<?xml version="1.0" encoding="UTF-8" standalone="no"?>
<!DOCTYPE svg PUBLIC "-//W3C//DTD SVG 1.1//EN" "http://www.w3.org/Graphics/SVG/1.1/DTD/svg11.dtd">
<svg xmlns="http://www.w3.org/2000/svg" xmlns:xlink="http://www.w3.org/1999/xlink" version="1.1" width="365.734pt" height="123.601pt" viewBox="0 0 365.734 123.601">
<path transform="matrix(1,0,0,-1,21.547,83.237)" stroke-width="1.19553" stroke-linecap="butt" stroke-miterlimit="10" stroke-linejoin="miter" fill="none" stroke="#000080" d="M 0 82.64035 C 0 82.64035 1.61879 80.18446 2.24052 79.26878 C 2.86224 78.35309 3.85934 76.91655 4.48108 76.04066 C 5.10281 75.1648 6.0999 73.79208 6.72162 72.95602 C 7.34335 72.11995 8.34044 70.81108 8.96217 70.01483 C 9.5839 69.21858 10.58098 67.97356 11.20271 67.21712 C 11.82445 66.46068 12.82152 65.27953 13.44325 64.5629 C 14.06499 63.84628 15.06207 62.72893 15.68379 62.05211 C 16.30553 61.37529 17.30261 60.32182 17.92435 59.68481 C 18.54607 59.0478 19.54317 58.05818 20.1649 57.461 C 20.78664 56.8638 21.7837 55.938 22.40544 55.38062 C 23.02718 54.82324 24.02426 53.9613 24.64598 53.44373 C 25.26772 52.92616 26.2648 52.12807 26.88654 51.65031 C 27.50826 51.17256 28.50534 50.43831 29.12708 50.00037 C 29.74881 49.56242 30.74588 48.892 31.36761 48.49388 C 31.98935 48.09575 32.98643 47.48918 33.60815 47.13087 C 34.22989 46.77255 35.22699 46.22983 35.84872 45.91132 C 36.47044 45.5928 37.46753 45.11394 38.08926 44.83524 C 38.711 44.55653 39.70808 44.14153 40.3298 43.90263 C 40.95154 43.66376 41.94862 43.31258 42.57036 43.1135 C 43.19208 42.91443 44.18916 42.62709 44.8109 42.46783 C 45.43263 42.30858 46.4297 42.08507 47.05144 41.96564 C 47.67317 41.84619 48.67027 41.68654 49.29199 41.6069 C 49.91373 41.52728 50.91081 41.43146 51.53255 41.39165 C 52.15427 41.35184 53.77309 41.31985 53.77309 41.31985 "/>
<path transform="matrix(1,0,0,-1,21.547,83.237)" stroke-width="1.19553" stroke-linecap="butt" stroke-miterlimit="10" stroke-linejoin="miter" fill="none" stroke="#000080" d="M 53.77396 41.31985 C 53.77396 41.31985 55.39275 41.28793 56.01448 41.24812 C 56.63622 41.20833 57.63329 41.11255 58.25502 41.03293 C 58.87675 40.95332 59.87384 40.79369 60.49556 40.67426 C 61.1173 40.55482 62.11438 40.33134 62.73611 40.1721 C 63.35783 40.01286 64.35492 39.72556 64.97665 39.5265 C 65.59839 39.32745 66.59546 38.97629 67.2172 38.73741 C 67.83893 38.49855 68.83601 38.08354 69.45773 37.80487 C 70.07947 37.52618 71.07655 37.04733 71.69829 36.72885 C 72.32 36.41037 73.3171 35.86766 73.93883 35.50937 C 74.56056 35.15108 75.55765 34.54451 76.17937 34.14641 C 76.8011 33.74829 77.79819 33.0779 78.41992 32.63998 C 79.04164 32.20206 80.03873 31.46783 80.66046 30.9901 C 81.2822 30.51236 82.27927 29.71426 82.901 29.19672 C 83.52274 28.67917 84.51982 27.81726 85.14154 27.25989 C 85.76328 26.70253 86.76036 25.77676 87.3821 25.1796 C 88.00381 24.58241 89.0009 23.5928 89.62263 22.95581 C 90.24437 22.31882 91.24144 21.26537 91.86317 20.58858 C 92.48491 19.91179 93.482 18.79448 94.10371 18.07787 C 94.72545 17.36127 95.72253 16.18011 96.34427 15.42369 C 96.96599 14.66727 97.96307 13.42227 98.58481 12.62604 C 99.20654 11.8298 100.20361 10.52098 100.82535 9.68494 C 101.44708 8.84888 102.44417 7.47621 103.06589 6.60036 C 103.68762 5.7245 104.68471 4.28796 105.30644 3.3723 C 105.92816 2.45662 107.54698 .00076 107.54698 .00076 "/>
<symbol id="font_0_3">
<path d="M .63 .67700007 L .019000002 .67700007 L 0 .45200003 L .025000003 .45200003 C .039 .61300006 .054 .646 .20500002 .646 C .223 .646 .24900003 .646 .259 .64400008 C .28 .64000007 .28 .629 .28 .606 L .28 .079 C .28 .045 .28 .031000002 .17500001 .031000002 L .135 .031000002 L .135 0 C .17600002 .003 .278 .003 .324 .003 C .37 .003 .473 .003 .514 0 L .514 .031000002 L .47400005 .031000002 C .36900003 .031000002 .36900003 .045 .36900003 .079 L .36900003 .606 C .36900003 .62600007 .36900003 .64000007 .387 .64400008 C .398 .646 .425 .646 .444 .646 C .595 .646 .61 .61300006 .624 .45200003 L .64900007 .45200003 L .63 .67700007 Z "/>
</symbol>
<symbol id="font_0_a">
<path d="M .07800001 .076000008 C .07800001 .031000002 .067 .031000002 0 .031000002 L 0 0 C .035 .001 .08600001 .003 .113000009 .003 C .139 .003 .191 .001 .225 0 L .225 .031000002 C .158 .031000002 .147 .031000002 .147 .076000008 L .147 .26000003 C .147 .36400003 .218 .42000003 .282 .42000003 C .345 .42000003 .356 .36600004 .356 .30900003 L .356 .076000008 C .356 .031000002 .345 .031000002 .278 .031000002 L .278 0 C .31300003 .001 .36400003 .003 .391 .003 C .41700004 .003 .46900005 .001 .503 0 L .503 .031000002 C .451 .031000002 .42600004 .031000002 .425 .061000006 L .425 .252 C .425 .33800004 .425 .36900003 .39400003 .40500004 C .38000003 .42200003 .347 .44200004 .289 .44200004 C .20500002 .44200004 .161 .38200004 .14400001 .344 L .14400001 .694 L 0 .683 L 0 .652 C .07000001 .652 .07800001 .64500007 .07800001 .596 L .07800001 .076000008 Z "/>
</symbol>
<symbol id="font_0_b">
<path d="M .144 .44200004 L .0040000008 .43100003 L .0040000008 .4 C .069000009 .4 .07800001 .39400003 .07800001 .34500004 L .07800001 .076000008 C .07800001 .031000002 .067 .031000002 0 .031000002 L 0 0 C .032000007 .001 .086 .003 .11000001 .003 C .14500001 .003 .18 .001 .21400002 0 L .21400002 .031000002 C .148 .031000002 .144 .036000004 .144 .075 L .144 .44200004 M .148 .61600008 C .148 .648 .123 .669 .095000009 .669 C .064 .669 .042000005 .642 .042000005 .61600008 C .042000005 .58900007 .064 .563 .095000009 .563 C .123 .563 .148 .58400008 .148 .61600008 Z "/>
</symbol>
<symbol id="font_0_11">
<path d="M .17500001 .20500002 C .197 .20100002 .279 .18500002 .279 .113000009 C .279 .062000004 .24400002 .022000002 .16600001 .022000002 C .082 .022000002 .046000005 .079 .027000003 .16400002 C .024000004 .17700002 .023000002 .18100001 .013000004 .18100001 C 0 .18100001 0 .17400001 0 .15600002 L 0 .024 C 0 .0070000009 0 0 .011000004 0 C .016000003 0 .017 .0010000002 .036000007 .020000002 C .038000004 .022000002 .038000004 .024 .056 .043 C .1 .0010000002 .14500001 0 .16600001 0 C .28100003 0 .32700003 .067 .32700003 .13900002 C .32700003 .19200002 .29700003 .22200002 .28500004 .23400001 C .25200004 .26600004 .213 .27400003 .171 .28200004 C .115 .293 .048 .30600003 .048 .36400003 C .048 .39900003 .07400001 .44000004 .16 .44000004 C .27 .44000004 .27500005 .35000003 .277 .31900005 C .27800004 .31000004 .28700004 .31000004 .28900004 .31000004 C .30200003 .31000004 .30200003 .31500004 .30200003 .33400003 L .30200003 .43500004 C .30200003 .45200003 .30200003 .45900003 .291 .45900003 C .286 .45900003 .284 .45900003 .27100004 .44700004 C .26800005 .44300003 .25800003 .43400003 .254 .43100003 C .21600002 .45900003 .17500001 .45900003 .16 .45900003 C .038000004 .45900003 0 .39200003 0 .33600004 C 0 .30100004 .016000003 .27300004 .043000007 .25100003 C .075 .22500003 .10300001 .21900001 .17500001 .20500002 Z "/>
</symbol>
<symbol id="font_0_4">
<path d="M .291 .087000008 C .29500003 .047000003 .32200004 .005000001 .36900003 .005000001 C .39000003 .005000001 .45100004 .019000002 .45100004 .1 L .45100004 .15600002 L .42600004 .15600002 L .42600004 .1 C .42600004 .042000005 .40100003 .036000004 .39000003 .036000004 C .35700003 .036000004 .35300002 .081 .35300002 .086 L .35300002 .286 C .35300002 .328 .35300002 .367 .31700004 .404 C .27800004 .44300003 .22800002 .45900003 .18 .45900003 C .098 .45900003 .029 .41200004 .029 .34600003 C .029 .316 .049000004 .29900003 .075 .29900003 C .10300001 .29900003 .121 .31900005 .121 .34500004 C .121 .35700003 .116000007 .39000003 .07 .39100004 C .09700001 .42600004 .146 .43700005 .178 .43700005 C .22700003 .43700005 .284 .39800004 .284 .30900003 L .284 .272 C .23300001 .26900003 .16300002 .26600004 .1 .23600002 C .024999999 .20200002 0 .15000002 0 .106000009 C 0 .025000003 .09700001 0 .16 0 C .22600001 0 .272 .040000004 .291 .087000008 M .284 .25100003 L .284 .15100001 C .284 .056 .21200001 .022000002 .167 .022000002 C .11800001 .022000002 .077 .057000005 .077 .107 C .077 .16200002 .11900001 .24500002 .284 .25100003 Z "/>
</symbol>
<symbol id="font_0_d">
<path d="M .07800001 .344 L .07800001 .076000008 C .07800001 .031000002 .067 .031000002 0 .031000002 L 0 0 C .035 .001 .08600001 .003 .113000009 .003 C .139 .003 .191 .001 .225 0 L .225 .031000002 C .158 .031000002 .147 .031000002 .147 .076000008 L .147 .26000003 C .147 .36400003 .218 .42000003 .282 .42000003 C .345 .42000003 .356 .36600004 .356 .30900003 L .356 .076000008 C .356 .031000002 .345 .031000002 .278 .031000002 L .278 0 C .31300003 .001 .36400003 .003 .391 .003 C .41700004 .003 .46900005 .001 .503 0 L .503 .031000002 C .451 .031000002 .42600004 .031000002 .425 .061000006 L .425 .252 C .425 .33800004 .425 .36900003 .39400003 .40500004 C .38000003 .42200003 .347 .44200004 .289 .44200004 C .216 .44200004 .169 .39900003 .141 .337 L .141 .44200004 L 0 .43100003 L 0 .4 C .07000001 .4 .07800001 .393 .07800001 .344 Z "/>
</symbol>
<symbol id="font_0_1">
<path d="M .356 .4 L .356 .076000008 C .356 .031000002 .345 .031000002 .278 .031000002 L .278 0 C .31100003 .001 .36400003 .003 .389 .003 C .414 .003 .463 .001 .5 0 L .5 .031000002 C .433 .031000002 .42200003 .031000002 .42200003 .076000008 L .42200003 .694 L .386 .688 C .382 .688 .381 .689 .377 .69100007 C .345 .70500007 .30400003 .70500007 .293 .70500007 C .18800001 .70500007 .079 .64900007 .079 .545 L .079 .43100003 L 0 .43100003 L 0 .4 L .079 .4 L .079 .076000008 C .079 .031000002 .068 .031000002 .0010000002 .031000002 L .0010000002 0 C .034 .001 .087000008 .003 .11200001 .003 C .13700001 .003 .18600002 .001 .223 0 L .223 .031000002 C .15600002 .031000002 .14500001 .031000002 .14500001 .076000008 L .14500001 .4 L .356 .4 M .356 .43100003 L .14200002 .43100003 L .14200002 .544 C .14200002 .637 .21800001 .683 .292 .683 C .301 .683 .328 .683 .356 .674 C .347 .67 .331 .66 .331 .634 C .331 .61600008 .33900003 .601 .356 .595 L .356 .43100003 Z "/>
</symbol>
<symbol id="font_0_7">
<path d="M .08400001 .263 C .09 .41200004 .17400001 .43700005 .20800002 .43700005 C .31100003 .43700005 .321 .30200003 .321 .263 L .08400001 .263 M .083000008 .24200002 L .36200003 .24200002 C .38400004 .24200002 .38700003 .24200002 .38700003 .263 C .38700003 .36200003 .33300004 .45900003 .20800002 .45900003 C .09200001 .45900003 0 .35600005 0 .23100002 C 0 .097 .105000007 0 .22000002 0 C .342 0 .38700003 .111 .38700003 .13000001 C .38700003 .14000002 .379 .14200002 .374 .14200002 C .365 .14200002 .36300005 .136 .36100004 .128 C .326 .025000003 .236 .025000003 .22600001 .025000003 C .17600002 .025000003 .136 .055000005 .113000009 .092 C .083000008 .14000002 .083000008 .20600002 .083000008 .24200002 Z "/>
</symbol>
<symbol id="font_0_5">
<path d="M .083000008 .22900002 C .083000008 .39200003 .16500002 .43400003 .218 .43400003 C .227 .43400003 .29 .43300004 .32500003 .397 C .284 .39400003 .278 .36400003 .278 .351 C .278 .32500003 .296 .305 .324 .305 C .35 .305 .37 .32200004 .37 .35200004 C .37 .42000003 .294 .45900003 .21700001 .45900003 C .092 .45900003 0 .351 0 .22700002 C 0 .09900001 .099 0 .215 0 C .349 0 .381 .120000008 .381 .13000001 C .381 .14000002 .37100003 .14000002 .368 .14000002 C .359 .14000002 .35700003 .136 .35500003 .13000001 C .326 .037 .261 .025000003 .224 .025000003 C .171 .025000003 .083000008 .068 .083000008 .22900002 Z "/>
</symbol>
<symbol id="font_0_12">
<path d="M .15400002 .411 L .29700003 .411 L .29700003 .44200004 L .15400002 .44200004 L .15400002 .626 L .12900001 .626 C .12799999 .544 .098000008 .43700005 0 .43300004 L 0 .411 L .085 .411 L .085 .135 C .085 .012000001 .178 0 .21400002 0 C .28500004 0 .31300003 .071 .31300003 .135 L .31300003 .19200002 L .28800003 .19200002 L .28800003 .13700001 C .28800003 .063 .25800003 .025000003 .22100002 .025000003 C .15400002 .025000003 .15400002 .116000007 .15400002 .13300002 L .15400002 .411 Z "/>
</symbol>
<symbol id="font_0_e">
<path d="M .44300003 .22500003 C .44300003 .35300002 .34300003 .45900003 .222 .45900003 C .097 .45900003 0 .35000003 0 .22500003 C 0 .096 .104 0 .22100002 0 C .342 0 .44300003 .098000008 .44300003 .22500003 M .222 .025000003 C .17900002 .025000003 .135 .046 .10800001 .092 C .083000008 .136 .083000008 .19700001 .083000008 .23300003 C .083000008 .272 .083000008 .32600004 .10700001 .37000004 C .134 .41600005 .18100001 .43700005 .22100002 .43700005 C .26500003 .43700005 .30800004 .41500003 .33400003 .37200005 C .36 .32900004 .36 .27100004 .36 .23300003 C .36 .19700001 .36 .143 .33800004 .09900001 C .316 .054 .272 .025000003 .222 .025000003 Z "/>
</symbol>
<symbol id="font_0_f">
<path d="M .14400001 .57000008 L .14400001 .63600006 L 0 .625 L 0 .594 C .07100001 .594 .07800001 .58800008 .07800001 .544 L .07800001 .076 C .07800001 .031000004 .067 .031000004 0 .031000004 L 0 0 C .034 .001000002 .08600001 .0029999912 .112 .0029999912 C .13900002 .0029999912 .19000001 .001000002 .22500003 0 L .22500003 .031000004 C .158 .031000004 .14700002 .031000004 .14700002 .076 L .14700002 .244 L .14700002 .25300003 C .15200001 .237 .19400002 .183 .27 .183 C .38900004 .183 .49300004 .28100003 .49300004 .41000004 C .49300004 .53700008 .39600004 .63600006 .284 .63600006 C .20600002 .63600006 .164 .592 .14400001 .57000008 M .14700002 .30800004 L .14700002 .531 C .17600002 .582 .22500003 .61100009 .27600003 .61100009 C .349 .61100009 .41000004 .523 .41000004 .41000004 C .41000004 .289 .34000004 .20500002 .266 .20500002 C .22600001 .20500002 .18800001 .22500001 .16100002 .266 C .14700002 .287 .14700002 .28800003 .14700002 .30800004 Z "/>
</symbol>
<symbol id="font_0_2">
<path d="M .106 .053000004 C .106 .082 .08200001 .106000009 .05300001 .106000009 C .024000004 .106000009 0 .082 0 .053000004 C 0 .024 .024000004 0 .05300001 0 C .08200001 0 .106 .024 .106 .053000004 Z "/>
</symbol>
<symbol id="font_0_14">
<path d="M .397 .344 C .40600003 .367 .42300005 .41000004 .48900003 .411 L .48900003 .44200004 C .46600003 .44000004 .43700005 .43900005 .41400004 .43900005 C .39000003 .43900005 .344 .441 .32700003 .44200004 L .32700003 .411 C .36400003 .41000004 .37500004 .38700003 .37500004 .36800004 C .37500004 .35900004 .37300004 .35500003 .36900003 .344 L .26700003 .089 L .155 .36800004 C .14900002 .381 .14900002 .38300003 .14900002 .38500003 C .14900002 .411 .18800003 .411 .206 .411 L .206 .44200004 C .176 .441 .12000001 .43900005 .097 .43900005 C .07 .43900005 .030000002 .44000004 0 .44200004 L 0 .411 C .063 .411 .067 .40500004 .080000009 .374 L .224 .019000002 C .23000002 .005000001 .23200003 0 .245 0 C .25800003 0 .26200003 .009000001 .26600004 .019000002 L .397 .344 Z "/>
</symbol>
<symbol id="font_0_16">
<path d="M .39600004 .541 C .42200003 .60400006 .47300003 .605 .48900003 .605 L .48900003 .63600006 C .46600003 .63400009 .43700005 .633 .41400004 .633 C .39600004 .633 .34900005 .635 .32700003 .63600006 L .32700003 .605 C .358 .60400006 .374 .587 .374 .56200006 C .374 .55200007 .37300004 .5500001 .36800004 .538 L .26700003 .29200004 L .15600002 .561 C .15200001 .57100006 .15 .57500007 .15 .579 C .15 .605 .187 .605 .206 .605 L .206 .63600006 C .18 .635 .114 .633 .097 .633 C .07 .633 .030000002 .63400009 0 .63600006 L 0 .605 C .048 .605 .067 .605 .081 .57000008 L .231 .20500002 C .22600001 .19200002 .21200001 .15900001 .206 .14600002 C .18400002 .091000009 .15600002 .022 .09200001 .022 C .087000008 .022 .064 .022 .045 .040000008 C .076000008 .044 .08400001 .066 .08400001 .08200001 C .08400001 .10800001 .065000008 .12400001 .042000005 .12400001 C .022 .12400001 0 .11100001 0 .08100001 C 0 .036 .042000005 0 .09200001 0 C .155 0 .19600001 .05700001 .22 .11400001 L .39600004 .541 Z "/>
</symbol>
<symbol id="font_0_9">
<path d="M .19400002 .37800003 C .10700001 .37800003 .10700001 .47800005 .10700001 .50100007 C .10700001 .52800008 .10800001 .56 .12300001 .58500006 C .13100001 .59700009 .15400002 .62500008 .19400002 .62500008 C .28100003 .62500008 .28100003 .52500006 .28100003 .50200006 C .28100003 .47500003 .28000004 .44300003 .26500003 .41800005 C .25700004 .40600003 .23400003 .37800003 .19400002 .37800003 M .07800001 .33900003 C .07800001 .34300003 .07800001 .36600004 .095 .38600005 C .134 .35800005 .17500001 .35500003 .19400002 .35500003 C .28700004 .35500003 .356 .42400003 .356 .50100007 C .356 .53800007 .34000004 .57500007 .31500004 .59800007 C .351 .632 .38700003 .637 .40500004 .637 C .40700004 .637 .41200004 .637 .41500003 .63600006 C .404 .632 .39900003 .62100008 .39900003 .609 C .39900003 .592 .41200004 .58000007 .42800004 .58000007 C .43800003 .58000007 .45700003 .587 .45700003 .61 C .45700003 .62700006 .44500003 .65900006 .40600003 .65900006 C .38600005 .65900006 .342 .65300008 .3 .61200007 C .25800003 .64500007 .21600002 .64800009 .19400002 .64800009 C .10100001 .64800009 .032 .57900008 .032 .50200006 C .032 .458 .054 .42000003 .07900001 .39900003 C .066 .384 .048000006 .351 .048000006 .316 C .048000006 .28500004 .061 .24700001 .09200001 .22700002 C .032 .21000001 0 .16700001 0 .127 C 0 .055000009 .09900001 0 .22100002 0 C .33900003 0 .44300003 .051000015 .44300003 .12900001 C .44300003 .164 .42900003 .21500002 .37800003 .24300002 C .32500003 .27100004 .26700003 .27100004 .20600002 .27100004 C .18100001 .27100004 .13800001 .27100004 .13100001 .272 C .09900001 .27600003 .07800001 .307 .07800001 .33900003 M .222 .023000002 C .12100001 .023000002 .052000006 .074000019 .052000006 .127 C .052000006 .17300001 .09 .21000001 .134 .21300002 L .19300002 .21300002 C .279 .21300002 .39100004 .21300002 .39100004 .127 C .39100004 .073000017 .32000003 .023000002 .222 .023000002 Z "/>
</symbol>
<symbol id="font_0_8">
<path d="M .14200002 .43100003 L .14200002 .54700008 C .14200002 .63500007 .19 .683 .23400003 .683 C .23700002 .683 .25200004 .683 .26700003 .67600008 C .25500003 .67200008 .23700002 .65900006 .23700002 .634 C .23700002 .611 .25300003 .591 .28000004 .591 C .30900003 .591 .32400004 .611 .32400004 .63500007 C .32400004 .67200008 .28700004 .70500007 .23400003 .70500007 C .164 .70500007 .079 .652 .079 .546 L .079 .43100003 L 0 .43100003 L 0 .4 L .079 .4 L .079 .076000008 C .079 .031000002 .068 .031000002 .001000002 .031000002 L .001000002 0 C .040000008 .001 .087000008 .003 .115 .003 C .155 .003 .20200002 .003 .24200002 0 L .24200002 .031000002 L .22100002 .031000002 C .14700002 .031000002 .14500001 .042000005 .14500001 .078 L .14500001 .4 L .25900004 .4 L .25900004 .43100003 L .14200002 .43100003 Z "/>
</symbol>
<symbol id="font_0_10">
<path d="M .13900002 .33200003 L .13900002 .44200004 L 0 .43100003 L 0 .4 C .07000001 .4 .07800001 .393 .07800001 .344 L .07800001 .076000008 C .07800001 .031000002 .067 .031000002 0 .031000002 L 0 0 C .039 .001 .08600001 .003 .11400001 .003 C .15400002 .003 .20100002 .003 .24100003 0 L .24100003 .031000002 L .22000002 .031000002 C .14600002 .031000002 .14400001 .042000005 .14400001 .078 L .14400001 .23200001 C .14400001 .33100004 .18600002 .42000003 .26200003 .42000003 C .26900003 .42000003 .27100004 .42000003 .27300004 .41900004 C .27 .418 .25000004 .40600003 .25000004 .38000003 C .25000004 .35200004 .27100004 .337 .293 .337 C .31100003 .337 .33600004 .349 .33600004 .381 C .33600004 .41300003 .305 .44200004 .26200003 .44200004 C .18900001 .44200004 .15300001 .37500004 .13900002 .33200003 Z "/>
</symbol>
<symbol id="font_0_c">
<path d="M .07800001 .344 L .07800001 .076000008 C .07800001 .031000002 .067 .031000002 0 .031000002 L 0 0 C .035 .001 .08600001 .003 .113000009 .003 C .139 .003 .191 .001 .225 0 L .225 .031000002 C .158 .031000002 .147 .031000002 .147 .076000008 L .147 .26000003 C .147 .36400003 .218 .42000003 .282 .42000003 C .345 .42000003 .356 .36600004 .356 .30900003 L .356 .076000008 C .356 .031000002 .345 .031000002 .278 .031000002 L .278 0 C .31300003 .001 .36400003 .003 .391 .003 C .41700004 .003 .46900005 .001 .503 0 L .503 .031000002 C .43600003 .031000002 .425 .031000002 .425 .076000008 L .425 .26000003 C .425 .36400003 .496 .42000003 .56 .42000003 C .623 .42000003 .634 .36600004 .634 .30900003 L .634 .076000008 C .634 .031000002 .623 .031000002 .556 .031000002 L .556 0 C .591 .001 .642 .003 .669 .003 C .69500008 .003 .74700006 .001 .781 0 L .781 .031000002 C .72900006 .031000002 .70400008 .031000002 .703 .061000006 L .703 .252 C .703 .33800004 .703 .36900003 .67200008 .40500004 C .65800008 .42200003 .625 .44200004 .56700006 .44200004 C .48300005 .44200004 .439 .38200004 .42200003 .344 C .40800003 .43100003 .33400003 .44200004 .289 .44200004 C .216 .44200004 .169 .39900003 .141 .337 L .141 .44200004 L 0 .43100003 L 0 .4 C .07000001 .4 .07800001 .393 .07800001 .344 Z "/>
</symbol>
<symbol id="font_0_13">
<path d="M .35900004 .09 L .35900004 0 L .503 .011000001 L .503 .042000005 C .43300004 .042000005 .425 .049000004 .425 .098000008 L .425 .45300005 L .278 .44200004 L .278 .411 C .34800003 .411 .356 .404 .356 .35500003 L .356 .17700002 C .356 .09 .308 .022000002 .23500002 .022000002 C .15100001 .022000002 .147 .069000009 .147 .12100001 L .147 .45300005 L 0 .44200004 L 0 .411 C .07800001 .411 .07800001 .40800003 .07800001 .31900005 L .07800001 .16900002 C .07800001 .091000009 .07800001 0 .23000002 0 C .286 0 .33 .028 .35900004 .09 Z "/>
</symbol>
<symbol id="font_0_6">
<path d="M .34600003 .06600001 L .34600003 0 L .493 .011000001 L .493 .042000005 C .423 .042000005 .41500003 .049000004 .41500003 .098000008 L .41500003 .705 L .271 .694 L .271 .663 C .34100003 .663 .349 .656 .349 .607 L .349 .39100004 C .32 .42700003 .277 .45300005 .22299999 .45300005 C .10500001 .45300005 0 .35500003 0 .22600001 C 0 .09900001 .098 0 .21200001 0 C .276 0 .321 .034 .34600003 .06600001 M .34600003 .33400003 L .34600003 .12900001 C .34600003 .111 .34600003 .109000008 .335 .092 C .305 .044 .26 .022000002 .21700001 .022000002 C .17200002 .022000002 .136 .048 .11200001 .086 C .086 .127 .083000008 .18400002 .083000008 .22500003 C .083000008 .26200003 .085 .32200004 .114 .367 C .13500002 .39800004 .17300001 .43100003 .227 .43100003 C .262 .43100003 .30400003 .41600005 .335 .37100003 C .34600003 .35400004 .34600003 .35200004 .34600003 .33400003 Z "/>
</symbol>
<symbol id="font_0_15">
<path d="M .601 .34700004 C .619 .397 .65000006 .41000004 .685 .411 L .685 .44200004 C .66300007 .44000004 .634 .43900005 .61200007 .43900005 C .583 .43900005 .53800007 .441 .519 .44200004 L .519 .411 C .555 .41000004 .577 .39200003 .577 .36300005 C .577 .35700003 .577 .35500003 .572 .34200005 L .481 .086 L .382 .365 C .37800003 .37700004 .377 .37900005 .377 .38400004 C .377 .411 .416 .411 .43600003 .411 L .43600003 .44200004 C .407 .441 .356 .43900005 .33200003 .43900005 C .30200003 .43900005 .273 .44000004 .243 .44200004 L .243 .411 C .28 .411 .296 .40900005 .306 .39600004 C .31100003 .39000003 .322 .36 .329 .34100003 L .243 .09900001 L .148 .36600004 C .143 .37800003 .143 .38000003 .143 .38400004 C .143 .411 .182 .411 .202 .411 L .202 .44200004 C .172 .441 .116000007 .43900005 .09300001 .43900005 C .08900001 .43900005 .036 .44000004 0 .44200004 L 0 .411 C .050000006 .411 .062000008 .40800003 .07400001 .37600003 L .2 .022000002 C .205 .008000001 .208 0 .221 0 C .234 0 .236 .0060000007 .241 .020000002 L .342 .30300004 L .444 .019000002 C .448 .008000001 .451 0 .46400003 0 C .47700004 0 .48000003 .009000001 .48400004 .019000002 L .601 .34700004 Z "/>
</symbol>
<use xlink:href="#font_0_3" transform="matrix(9.9626,0,0,-9.9626,3.6796547,94.433)"/>
<use xlink:href="#font_0_a" transform="matrix(9.9626,0,0,-9.9626,10.832802,94.433)"/>
<use xlink:href="#font_0_b" transform="matrix(9.9626,0,0,-9.9626,16.38197,94.433)"/>
<use xlink:href="#font_0_11" transform="matrix(9.9626,0,0,-9.9626,19.151574,94.54259)"/>
<use xlink:href="#font_0_b" transform="matrix(9.9626,0,0,-9.9626,26.394383,94.433)"/>
<use xlink:href="#font_0_11" transform="matrix(9.9626,0,0,-9.9626,29.163987,94.54259)"/>
<use xlink:href="#font_0_4" transform="matrix(9.9626,0,0,-9.9626,36.506425,94.54259)"/>
<use xlink:href="#font_0_d" transform="matrix(9.9626,0,0,-9.9626,41.388097,94.433)"/>
<use xlink:href="#font_0_b" transform="matrix(9.9626,0,0,-9.9626,50.254816,94.433)"/>
<use xlink:href="#font_0_d" transform="matrix(9.9626,0,0,-9.9626,53.014455,94.433)"/>
<use xlink:href="#font_0_1" transform="matrix(9.9626,0,0,-9.9626,58.50385,94.433)"/>
<use xlink:href="#font_0_7" transform="matrix(9.9626,0,0,-9.9626,64.05302,94.54259)"/>
<use xlink:href="#font_0_5" transform="matrix(9.9626,0,0,-9.9626,68.536197,94.54259)"/>
<use xlink:href="#font_0_12" transform="matrix(9.9626,0,0,-9.9626,72.81015,94.54259)"/>
<use xlink:href="#font_0_b" transform="matrix(9.9626,0,0,-9.9626,76.82507,94.433)"/>
<use xlink:href="#font_0_e" transform="matrix(9.9626,0,0,-9.9626,79.54486,94.54259)"/>
<use xlink:href="#font_0_d" transform="matrix(9.9626,0,0,-9.9626,84.56601,94.433)"/>
<use xlink:href="#font_0_f" transform="matrix(9.9626,0,0,-9.9626,93.38291,96.365749)"/>
<use xlink:href="#font_0_e" transform="matrix(9.9626,0,0,-9.9626,99.20107,94.54259)"/>
<use xlink:href="#font_0_b" transform="matrix(9.9626,0,0,-9.9626,104.232189,94.433)"/>
<use xlink:href="#font_0_d" transform="matrix(9.9626,0,0,-9.9626,106.99182,94.433)"/>
<use xlink:href="#font_0_12" transform="matrix(9.9626,0,0,-9.9626,112.12257,94.54259)"/>
<use xlink:href="#font_0_2" transform="matrix(9.9626,0,0,-9.9626,116.665508,94.433)"/>
<use xlink:href="#font_0_3" transform="matrix(9.9626,0,0,-9.9626,123.918277,94.433)"/>
<use xlink:href="#font_0_a" transform="matrix(9.9626,0,0,-9.9626,131.07143,94.433)"/>
<use xlink:href="#font_0_7" transform="matrix(9.9626,0,0,-9.9626,136.57077,94.54259)"/>
<use xlink:href="#font_0_5" transform="matrix(9.9626,0,0,-9.9626,3.6597295,106.49759)"/>
<use xlink:href="#font_0_e" transform="matrix(9.9626,0,0,-9.9626,8.023349,106.49759)"/>
<use xlink:href="#font_0_d" transform="matrix(9.9626,0,0,-9.9626,13.044498,106.388)"/>
<use xlink:href="#font_0_5" transform="matrix(9.9626,0,0,-9.9626,18.603629,106.49759)"/>
<use xlink:href="#font_0_4" transform="matrix(9.9626,0,0,-9.9626,23.106726,106.49759)"/>
<use xlink:href="#font_0_14" transform="matrix(9.9626,0,0,-9.9626,27.579934,106.49759)"/>
<use xlink:href="#font_0_b" transform="matrix(9.9626,0,0,-9.9626,32.97966,106.388)"/>
<use xlink:href="#font_0_12" transform="matrix(9.9626,0,0,-9.9626,35.609788,106.49759)"/>
<use xlink:href="#font_0_16" transform="matrix(9.9626,0,0,-9.9626,39.206285,108.430339)"/>
<use xlink:href="#font_0_5" transform="matrix(9.9626,0,0,-9.9626,47.943487,106.49759)"/>
<use xlink:href="#font_0_a" transform="matrix(9.9626,0,0,-9.9626,52.067998,106.388)"/>
<use xlink:href="#font_0_4" transform="matrix(9.9626,0,0,-9.9626,57.706834,106.49759)"/>
<use xlink:href="#font_0_d" transform="matrix(9.9626,0,0,-9.9626,62.588506,106.388)"/>
<use xlink:href="#font_0_9" transform="matrix(9.9626,0,0,-9.9626,68.08786,108.44029)"/>
<use xlink:href="#font_0_7" transform="matrix(9.9626,0,0,-9.9626,73.06916,106.49759)"/>
<use xlink:href="#font_0_11" transform="matrix(9.9626,0,0,-9.9626,77.542369,106.49759)"/>
<use xlink:href="#font_0_8" transform="matrix(9.9626,0,0,-9.9626,84.78517,106.388)"/>
<use xlink:href="#font_0_10" transform="matrix(9.9626,0,0,-9.9626,87.78391,106.388)"/>
<use xlink:href="#font_0_e" transform="matrix(9.9626,0,0,-9.9626,91.689258,106.49759)"/>
<use xlink:href="#font_0_c" transform="matrix(9.9626,0,0,-9.9626,96.7104,106.388)"/>
<use xlink:href="#font_0_5" transform="matrix(9.9626,0,0,-9.9626,108.35668,106.49759)"/>
<use xlink:href="#font_0_e" transform="matrix(9.9626,0,0,-9.9626,112.7203,106.49759)"/>
<use xlink:href="#font_0_d" transform="matrix(9.9626,0,0,-9.9626,117.74145,106.388)"/>
<use xlink:href="#font_0_5" transform="matrix(9.9626,0,0,-9.9626,123.30058,106.49759)"/>
<use xlink:href="#font_0_4" transform="matrix(9.9626,0,0,-9.9626,127.80367,106.49759)"/>
<use xlink:href="#font_0_14" transform="matrix(9.9626,0,0,-9.9626,132.27689,106.49759)"/>
<use xlink:href="#font_0_7" transform="matrix(9.9626,0,0,-9.9626,137.34786,106.49759)"/>
<use xlink:href="#font_0_13" transform="matrix(9.9626,0,0,-9.9626,3.6398044,118.45259)"/>
<use xlink:href="#font_0_f" transform="matrix(9.9626,0,0,-9.9626,9.13916,120.27575)"/>
<use xlink:href="#font_0_12" transform="matrix(9.9626,0,0,-9.9626,17.906247,118.45259)"/>
<use xlink:href="#font_0_e" transform="matrix(9.9626,0,0,-9.9626,21.871365,118.45259)"/>
<use xlink:href="#font_0_5" transform="matrix(9.9626,0,0,-9.9626,30.229983,118.45259)"/>
<use xlink:href="#font_0_e" transform="matrix(9.9626,0,0,-9.9626,34.603567,118.45259)"/>
<use xlink:href="#font_0_d" transform="matrix(9.9626,0,0,-9.9626,39.624715,118.343)"/>
<use xlink:href="#font_0_5" transform="matrix(9.9626,0,0,-9.9626,45.173887,118.45259)"/>
<use xlink:href="#font_0_4" transform="matrix(9.9626,0,0,-9.9626,49.686944,118.45259)"/>
<use xlink:href="#font_0_14" transform="matrix(9.9626,0,0,-9.9626,54.16015,118.45259)"/>
<use xlink:href="#font_0_7" transform="matrix(9.9626,0,0,-9.9626,59.231115,118.45259)"/>
<use xlink:href="#font_0_6" transform="matrix(9.9626,0,0,-9.9626,67.03183,118.45259)"/>
<use xlink:href="#font_0_e" transform="matrix(9.9626,0,0,-9.9626,72.51126,118.45259)"/>
<use xlink:href="#font_0_15" transform="matrix(9.9626,0,0,-9.9626,77.11398,118.45259)"/>
<use xlink:href="#font_0_d" transform="matrix(9.9626,0,0,-9.9626,84.44646,118.343)"/>
<use xlink:href="#font_0_2" transform="matrix(9.9626,0,0,-9.9626,90.52364,118.343)"/>
<path transform="matrix(1,0,0,-1,21.547,83.237)" stroke-width="1.19553" stroke-linecap="butt" stroke-miterlimit="10" stroke-linejoin="miter" fill="none" stroke="#000080" d="M 215.09583 0 C 215.09583 0 216.71463 .62538 217.33635 .86937 C 217.95809 1.11334 218.95517 1.50891 219.5769 1.75847 C 220.19863 2.00803 221.19571 2.4126 221.81745 2.66803 C 222.43918 2.92348 223.43625 3.33777 224.05799 3.59952 C 224.67972 3.86127 225.6768 4.28604 226.29853 4.5546 C 226.92026 4.82315 227.91735 5.25922 228.53908 5.53516 C 229.1608 5.81108 230.15789 6.25941 230.77962 6.54337 C 231.40135 6.8273 232.39842 7.28897 233.02016 7.58168 C 233.64189 7.87437 234.63898 8.35065 235.2607 8.65297 C 235.88243 8.95529 236.87952 9.44768 237.50125 9.76062 C 238.12297 10.07356 239.12006 10.58377 239.74179 10.90858 C 240.36353 11.23338 241.3606 11.7635 241.98233 12.10162 C 242.60407 12.43973 243.60115 12.99226 244.22287 13.34546 C 244.8446 13.69867 245.84169 14.27676 246.46343 14.64728 C 247.08515 15.01779 248.08223 15.62529 248.70397 16.01596 C 249.3257 16.40663 250.32277 17.04851 250.9445 17.46306 C 251.56624 17.8776 252.56333 18.56033 253.18505 19.00377 C 253.80678 19.44722 254.80387 20.17967 255.4256 20.65909 C 256.04734 21.13849 257.0444 21.93312 257.66615 22.4591 C 258.28788 22.98509 259.28498 23.86032 259.90669 24.4501 C 260.5284 25.0399 261.5255 26.02449 262.14723 26.70998 C 262.76896 27.39546 263.76606 28.5341 264.38777 29.3907 C 265.0095 30.24731 266.0066 31.25246 266.6283 32.88383 C 267.25007 34.5152 268.86885 41.1485 268.86885 41.1485 "/>
<path transform="matrix(1,0,0,-1,21.547,83.237)" stroke-width="1.19553" stroke-linecap="butt" stroke-miterlimit="10" stroke-linejoin="miter" fill="none" stroke="#000080" d="M 268.86979 41.31985 C 268.86979 41.31985 270.4886 48.0992 271.1103 49.75417 C 271.73204 51.40913 272.72914 52.39107 273.35087 53.24777 C 273.9726 54.10449 274.96968 55.2432 275.5914 55.92873 C 276.21315 56.61426 277.2102 57.5989 277.83195 58.18872 C 278.45368 58.77855 279.45079 59.65382 280.07249 60.17984 C 280.6942 60.70586 281.6913 61.50049 282.31303 61.97992 C 282.93476 62.45934 283.93186 63.19183 284.55357 63.63528 C 285.17533 64.07875 286.1724 64.7615 286.7941 65.17606 C 287.41587 65.59062 288.41294 66.23247 289.03465 66.62317 C 289.6564 67.01385 290.65348 67.62135 291.2752 67.99188 C 291.89695 68.36243 292.894 68.94052 293.51576 69.29373 C 294.13749 69.64693 295.13459 70.19951 295.7563 70.53761 C 296.37803 70.87572 297.3751 71.40584 297.99684 71.73065 C 298.61857 72.05545 299.61567 72.56567 300.23738 72.87865 C 300.85914 73.1916 301.8562 73.68398 302.4779 73.9863 C 303.09968 74.28862 304.09675 74.76492 304.71846 75.05762 C 305.3402 75.35031 306.33729 75.812 306.959 76.09595 C 307.58073 76.37988 308.57783 76.82822 309.19956 77.10416 C 309.8213 77.38008 310.81837 77.81615 311.4401 78.08472 C 312.06184 78.35327 313.0589 78.77806 313.68064 79.03981 C 314.30238 79.30156 315.29945 79.71587 315.9212 79.97131 C 316.5429 80.22675 317.54 80.63133 318.16175 80.88089 C 318.78346 81.13045 319.78053 81.52594 320.40229 81.77 C 321.024 82.01407 322.6428 82.64 322.6428 82.64 "/>
<use xlink:href="#font_0_3" transform="matrix(9.9626,0,0,-9.9626,218.77266,94.433)"/>
<use xlink:href="#font_0_a" transform="matrix(9.9626,0,0,-9.9626,225.9258,94.433)"/>
<use xlink:href="#font_0_b" transform="matrix(9.9626,0,0,-9.9626,231.47496,94.433)"/>
<use xlink:href="#font_0_11" transform="matrix(9.9626,0,0,-9.9626,234.24457,94.54259)"/>
<use xlink:href="#font_0_b" transform="matrix(9.9626,0,0,-9.9626,241.48738,94.433)"/>
<use xlink:href="#font_0_11" transform="matrix(9.9626,0,0,-9.9626,244.25699,94.54259)"/>
<use xlink:href="#font_0_4" transform="matrix(9.9626,0,0,-9.9626,251.59943,94.54259)"/>
<use xlink:href="#font_0_d" transform="matrix(9.9626,0,0,-9.9626,256.4811,94.433)"/>
<use xlink:href="#font_0_b" transform="matrix(9.9626,0,0,-9.9626,265.3478,94.433)"/>
<use xlink:href="#font_0_d" transform="matrix(9.9626,0,0,-9.9626,268.10746,94.433)"/>
<use xlink:href="#font_0_1" transform="matrix(9.9626,0,0,-9.9626,273.59684,94.433)"/>
<use xlink:href="#font_0_7" transform="matrix(9.9626,0,0,-9.9626,279.14604,94.54259)"/>
<use xlink:href="#font_0_5" transform="matrix(9.9626,0,0,-9.9626,283.62919,94.54259)"/>
<use xlink:href="#font_0_12" transform="matrix(9.9626,0,0,-9.9626,287.90318,94.54259)"/>
<use xlink:href="#font_0_b" transform="matrix(9.9626,0,0,-9.9626,291.9181,94.433)"/>
<use xlink:href="#font_0_e" transform="matrix(9.9626,0,0,-9.9626,294.63789,94.54259)"/>
<use xlink:href="#font_0_d" transform="matrix(9.9626,0,0,-9.9626,299.65904,94.433)"/>
<use xlink:href="#font_0_f" transform="matrix(9.9626,0,0,-9.9626,308.47593,96.365749)"/>
<use xlink:href="#font_0_e" transform="matrix(9.9626,0,0,-9.9626,314.2941,94.54259)"/>
<use xlink:href="#font_0_b" transform="matrix(9.9626,0,0,-9.9626,319.3252,94.433)"/>
<use xlink:href="#font_0_d" transform="matrix(9.9626,0,0,-9.9626,322.08485,94.433)"/>
<use xlink:href="#font_0_12" transform="matrix(9.9626,0,0,-9.9626,327.21559,94.54259)"/>
<use xlink:href="#font_0_2" transform="matrix(9.9626,0,0,-9.9626,331.7585,94.433)"/>
<use xlink:href="#font_0_3" transform="matrix(9.9626,0,0,-9.9626,339.01127,94.433)"/>
<use xlink:href="#font_0_a" transform="matrix(9.9626,0,0,-9.9626,346.16444,94.433)"/>
<use xlink:href="#font_0_7" transform="matrix(9.9626,0,0,-9.9626,351.6638,94.54259)"/>
<use xlink:href="#font_0_5" transform="matrix(9.9626,0,0,-9.9626,218.75273,106.49759)"/>
<use xlink:href="#font_0_e" transform="matrix(9.9626,0,0,-9.9626,223.11635,106.49759)"/>
<use xlink:href="#font_0_d" transform="matrix(9.9626,0,0,-9.9626,228.1375,106.388)"/>
<use xlink:href="#font_0_5" transform="matrix(9.9626,0,0,-9.9626,233.69663,106.49759)"/>
<use xlink:href="#font_0_4" transform="matrix(9.9626,0,0,-9.9626,238.19972,106.49759)"/>
<use xlink:href="#font_0_14" transform="matrix(9.9626,0,0,-9.9626,242.67293,106.49759)"/>
<use xlink:href="#font_0_b" transform="matrix(9.9626,0,0,-9.9626,248.07266,106.388)"/>
<use xlink:href="#font_0_12" transform="matrix(9.9626,0,0,-9.9626,250.70279,106.49759)"/>
<use xlink:href="#font_0_16" transform="matrix(9.9626,0,0,-9.9626,254.2993,108.430339)"/>
<use xlink:href="#font_0_5" transform="matrix(9.9626,0,0,-9.9626,263.0365,106.49759)"/>
<use xlink:href="#font_0_a" transform="matrix(9.9626,0,0,-9.9626,267.16105,106.388)"/>
<use xlink:href="#font_0_4" transform="matrix(9.9626,0,0,-9.9626,272.79988,106.49759)"/>
<use xlink:href="#font_0_d" transform="matrix(9.9626,0,0,-9.9626,277.68156,106.388)"/>
<use xlink:href="#font_0_9" transform="matrix(9.9626,0,0,-9.9626,283.1809,108.44029)"/>
<use xlink:href="#font_0_7" transform="matrix(9.9626,0,0,-9.9626,288.1622,106.49759)"/>
<use xlink:href="#font_0_11" transform="matrix(9.9626,0,0,-9.9626,292.6354,106.49759)"/>
<use xlink:href="#font_0_8" transform="matrix(9.9626,0,0,-9.9626,299.8782,106.388)"/>
<use xlink:href="#font_0_10" transform="matrix(9.9626,0,0,-9.9626,302.87696,106.388)"/>
<use xlink:href="#font_0_e" transform="matrix(9.9626,0,0,-9.9626,306.7823,106.49759)"/>
<use xlink:href="#font_0_c" transform="matrix(9.9626,0,0,-9.9626,311.80345,106.388)"/>
<use xlink:href="#font_0_5" transform="matrix(9.9626,0,0,-9.9626,323.4497,106.49759)"/>
<use xlink:href="#font_0_e" transform="matrix(9.9626,0,0,-9.9626,327.81336,106.49759)"/>
<use xlink:href="#font_0_d" transform="matrix(9.9626,0,0,-9.9626,332.8345,106.388)"/>
<use xlink:href="#font_0_5" transform="matrix(9.9626,0,0,-9.9626,338.39363,106.49759)"/>
<use xlink:href="#font_0_4" transform="matrix(9.9626,0,0,-9.9626,342.89674,106.49759)"/>
<use xlink:href="#font_0_14" transform="matrix(9.9626,0,0,-9.9626,347.36994,106.49759)"/>
<use xlink:href="#font_0_7" transform="matrix(9.9626,0,0,-9.9626,352.4409,106.49759)"/>
<use xlink:href="#font_0_13" transform="matrix(9.9626,0,0,-9.9626,218.7328,118.45259)"/>
<use xlink:href="#font_0_f" transform="matrix(9.9626,0,0,-9.9626,224.23215,120.27575)"/>
<use xlink:href="#font_0_12" transform="matrix(9.9626,0,0,-9.9626,232.99924,118.45259)"/>
<use xlink:href="#font_0_e" transform="matrix(9.9626,0,0,-9.9626,236.96436,118.45259)"/>
<use xlink:href="#font_0_5" transform="matrix(9.9626,0,0,-9.9626,245.32299,118.45259)"/>
<use xlink:href="#font_0_e" transform="matrix(9.9626,0,0,-9.9626,249.69657,118.45259)"/>
<use xlink:href="#font_0_d" transform="matrix(9.9626,0,0,-9.9626,254.71772,118.343)"/>
<use xlink:href="#font_0_5" transform="matrix(9.9626,0,0,-9.9626,260.26689,118.45259)"/>
<use xlink:href="#font_0_4" transform="matrix(9.9626,0,0,-9.9626,264.77995,118.45259)"/>
<use xlink:href="#font_0_14" transform="matrix(9.9626,0,0,-9.9626,269.25315,118.45259)"/>
<use xlink:href="#font_0_7" transform="matrix(9.9626,0,0,-9.9626,274.3241,118.45259)"/>
<use xlink:href="#font_0_6" transform="matrix(9.9626,0,0,-9.9626,282.1248,118.45259)"/>
<use xlink:href="#font_0_e" transform="matrix(9.9626,0,0,-9.9626,287.60426,118.45259)"/>
<use xlink:href="#font_0_15" transform="matrix(9.9626,0,0,-9.9626,292.20695,118.45259)"/>
<use xlink:href="#font_0_d" transform="matrix(9.9626,0,0,-9.9626,299.54939,118.343)"/>
<use xlink:href="#font_0_2" transform="matrix(9.9626,0,0,-9.9626,305.6166,118.343)"/>
<path transform="matrix(1,0,0,-1,21.547,83.237)" d="M 55.76651 41.31985 C 55.76651 42.42032 54.87442 43.31241 53.77396 43.31241 C 52.67348 43.31241 51.7814 42.42032 51.7814 41.31985 C 51.7814 40.21938 52.67348 39.3273 53.77396 39.3273 C 54.87442 39.3273 55.76651 40.21938 55.76651 41.31985 Z M 53.77396 41.31985 " fill="#000080"/>
<path transform="matrix(1,0,0,-1,21.547,83.237)" stroke-width="1" stroke-linecap="butt" stroke-miterlimit="10" stroke-linejoin="miter" fill="none" stroke="#000080" d="M 55.76651 41.31985 C 55.76651 42.42032 54.87442 43.31241 53.77396 43.31241 C 52.67348 43.31241 51.7814 42.42032 51.7814 41.31985 C 51.7814 40.21938 52.67348 39.3273 53.77396 39.3273 C 54.87442 39.3273 55.76651 40.21938 55.76651 41.31985 Z M 53.77396 41.31985 "/>
<path transform="matrix(1,0,0,-1,21.547,83.237)" d="M 270.86235 41.31985 C 270.86235 42.42032 269.97026 43.31241 268.86979 43.31241 C 267.76933 43.31241 266.87724 42.42032 266.87724 41.31985 C 266.87724 40.21938 267.76933 39.3273 268.86979 39.3273 C 269.97026 39.3273 270.86235 40.21938 270.86235 41.31985 Z M 268.86979 41.31985 " fill="#000080"/>
<path transform="matrix(1,0,0,-1,21.547,83.237)" stroke-width="1" stroke-linecap="butt" stroke-miterlimit="10" stroke-linejoin="miter" fill="none" stroke="#000080" d="M 270.86235 41.31985 C 270.86235 42.42032 269.97026 43.31241 268.86979 43.31241 C 267.76933 43.31241 266.87724 42.42032 266.87724 41.31985 C 266.87724 40.21938 267.76933 39.3273 268.86979 39.3273 C 269.97026 39.3273 270.86235 40.21938 270.86235 41.31985 Z M 268.86979 41.31985 "/>
</svg>
