<?xml version="1.0" encoding="UTF-8" standalone="no"?>
<!DOCTYPE svg PUBLIC "-//W3C//DTD SVG 1.1//EN" "http://www.w3.org/Graphics/SVG/1.1/DTD/svg11.dtd">
<svg xmlns="http://www.w3.org/2000/svg" xmlns:xlink="http://www.w3.org/1999/xlink" version="1.1" width="176.361pt" height="181.135pt" viewBox="0 0 176.361 181.135">
<path transform="matrix(1,0,0,-1,9.686,174.496)" stroke-width=".3985" stroke-linecap="butt" stroke-miterlimit="10" stroke-linejoin="miter" fill="none" stroke="#cbcbcb" d="M 0 0 L 0 161.39519 M 25.68678 0 L 25.68678 161.39519 M 51.37357 0 L 51.37357 161.39519 M 102.74713 0 L 102.74713 161.39519 M 128.43392 0 L 128.43392 161.39519 M 154.1207 0 L 154.1207 161.39519 "/>
<path transform="matrix(1,0,0,-1,9.686,174.496)" stroke-width=".3985" stroke-linecap="butt" stroke-miterlimit="10" stroke-linejoin="miter" fill="none" stroke="#cbcbcb" d="M 0 .00256 L 154.1207 .00256 M 0 40.35135 L 154.1207 40.35135 M 0 121.04895 L 154.1207 121.04895 M 0 161.39801 L 154.1207 161.39801 "/>
<path transform="matrix(1,0,0,-1,9.686,174.496)" stroke-width=".19925" stroke-linecap="butt" stroke-miterlimit="10" stroke-linejoin="miter" fill="none" stroke="#929292" d="M 0 78.57158 L 0 82.82358 M 25.68678 78.57158 L 25.68678 82.82358 M 51.37357 78.57158 L 51.37357 82.82358 M 102.74713 78.57158 L 102.74713 82.82358 M 128.43392 78.57158 L 128.43392 82.82358 M 154.1207 78.57158 L 154.1207 82.82358 "/>
<path transform="matrix(1,0,0,-1,9.686,174.496)" stroke-width=".19925" stroke-linecap="butt" stroke-miterlimit="10" stroke-linejoin="miter" fill="none" stroke="#929292" d="M 74.93433 .00256 L 79.18634 .00256 M 74.93433 40.35135 L 79.18634 40.35135 M 74.93433 121.04895 L 79.18634 121.04895 M 74.93433 161.39801 L 79.18634 161.39801 "/>
<path transform="matrix(1,0,0,-1,9.686,174.496)" stroke-width=".3985" stroke-linecap="butt" stroke-miterlimit="10" stroke-linejoin="miter" fill="none" stroke="#000000" d="M 0 80.69759 L 152.12818 80.69759 "/>
<path transform="matrix(1,0,0,-1,161.81418,93.79841)" d="M 1.99252 0 L -1.19551 1.59401 L 0 0 L -1.19551 -1.59401 "/>
<path transform="matrix(1,0,0,-1,9.686,174.496)" stroke-width=".3985" stroke-linecap="butt" stroke-miterlimit="10" stroke-linejoin="miter" fill="none" stroke="#000000" d="M 77.06035 0 L 77.06035 159.40267 "/>
<path transform="matrix(0,-1,-1,-0,86.746349,15.093338)" d="M 1.99252 0 L -1.19551 1.59401 L 0 0 L -1.19551 -1.59401 "/>
<symbol id="font_0_1">
<path d="M .57600006 0 C .59300008 0 .611 0 .611 .019999996 C .611 .040000008 .59300008 .040000008 .57600006 .040000008 L .035000005 .040000008 C .018 .040000008 0 .040000008 0 .019999996 C 0 0 .018 0 .035000005 0 L .57600006 0 Z "/>
</symbol>
<use xlink:href="#font_0_1" transform="matrix(9.9626,0,0,-9.9626,4.147896,103.574619)"/>
<symbol id="font_1_3">
<path d="M .24800003 .37400005 C .33 .40100003 .388 .47100006 .388 .55 C .388 .632 .3 .688 .204 .688 C .10300001 .688 .027000003 .628 .027000003 .55200007 C .027000003 .519 .049000004 .5 .078 .5 C .109000008 .5 .12900001 .522 .12900001 .55100008 C .12900001 .6010001 .082 .6010001 .067 .6010001 C .098 .65000006 .164 .66300007 .20000002 .66300007 C .24100003 .66300007 .29600004 .64100006 .29600004 .55100008 C .29600004 .53900006 .29400004 .48100005 .268 .43700005 C .238 .38900004 .204 .38600005 .17900002 .38500003 C .171 .38400004 .14700002 .38200004 .14000002 .38200004 C .132 .38100005 .125 .38000003 .125 .37000004 C .125 .35900004 .132 .35900004 .14900002 .35900004 L .19300002 .35900004 C .275 .35900004 .312 .29100005 .312 .193 C .312 .057000005 .24300003 .028 .199 .028 C .15600002 .028 .081 .045 .046000005 .104 C .081 .09900001 .11200001 .12100001 .11200001 .15900001 C .11200001 .19500001 .085 .215 .056 .215 C .031999999 .215 0 .201 0 .157 C 0 .06600001 .093 0 .20200002 0 C .32400004 0 .41500003 .091000009 .41500003 .193 C .41500003 .27500005 .35200004 .35300005 .24800003 .37400005 Z "/>
</symbol>
<use xlink:href="#font_1_3" transform="matrix(9.9626,0,0,-9.9626,11.48743,106.08519)"/>
<use xlink:href="#font_0_1" transform="matrix(9.9626,0,0,-9.9626,29.833897,103.574619)"/>
<symbol id="font_1_2">
<path d="M .07700001 .07700001 L .18300002 .18 C .33900003 .31800003 .39900003 .372 .39900003 .47200004 C .39900003 .586 .30900003 .666 .18700002 .666 C .074 .666 0 .574 0 .485 C 0 .42900003 .05 .42900003 .053000008 .42900003 C .07000001 .42900003 .105000007 .441 .105000007 .48200003 C .105000007 .508 .08700001 .53400006 .052000006 .53400006 C .044000005 .53400006 .042000008 .53400006 .039 .53300008 C .062000004 .59800007 .11600001 .63500007 .17400001 .63500007 C .26500003 .63500007 .308 .554 .308 .47200004 C .308 .39200003 .25800003 .31300003 .20300003 .25100003 L .011000004 .037 C 0 .026 0 .024 0 0 L .37100003 0 L .39900003 .17400001 L .374 .17400001 C .36900003 .14400001 .36200003 .1 .352 .085 C .345 .07700001 .279 .07700001 .257 .07700001 L .07700001 .07700001 Z "/>
</symbol>
<use xlink:href="#font_1_2" transform="matrix(9.9626,0,0,-9.9626,37.25413,105.86601)"/>
<use xlink:href="#font_0_1" transform="matrix(9.9626,0,0,-9.9626,55.519899,103.574619)"/>
<symbol id="font_1_1">
<path d="M .205 .64000007 C .205 .66400006 .205 .666 .18200003 .666 C .120000008 .60200008 .032000007 .60200008 0 .60200008 L 0 .57100006 C .020000004 .57100006 .07900001 .57100006 .13100001 .597 L .13100001 .079 C .13100001 .043 .128 .031000002 .038000004 .031000002 L .0060000049 .031000002 L .0060000049 0 C .04100001 .003 .128 .003 .168 .003 C .20800002 .003 .29500003 .003 .33000005 0 L .33000005 .031000002 L .29800005 .031000002 C .20800002 .031000002 .205 .042000005 .205 .079 L .205 .64000007 Z "/>
</symbol>
<use xlink:href="#font_1_1" transform="matrix(9.9626,0,0,-9.9626,63.328676,105.86601)"/>
<use xlink:href="#font_1_1" transform="matrix(9.9626,0,0,-9.9626,110.82767,105.86601)"/>
<use xlink:href="#font_1_2" transform="matrix(9.9626,0,0,-9.9626,136.12512,105.86601)"/>
<use xlink:href="#font_1_3" transform="matrix(9.9626,0,0,-9.9626,161.73244,106.08519)"/>
<use xlink:href="#font_0_1" transform="matrix(9.9626,0,0,-9.9626,68.14089,174.69261)"/>
<symbol id="font_2_1">
<path d="M .23800002 .38400004 L .351 .38400004 C .31800003 .23600002 .30900003 .19300002 .30900003 .126 C .30900003 .111 .30900003 .08400001 .317 .05 C .327 .0060000007 .338 0 .35300002 0 C .373 0 .39400003 .018000002 .39400003 .038000004 C .39400003 .044 .39400003 .046 .388 .060000004 C .359 .13200002 .359 .19700001 .359 .22500003 C .359 .27800004 .366 .33200003 .377 .38400004 L .491 .38400004 C .504 .38400004 .54 .38400004 .54 .418 C .54 .44200004 .519 .44200004 .5 .44200004 L .165 .44200004 C .143 .44200004 .105 .44200004 .061000006 .395 C .026000003 .35600005 0 .31000004 0 .305 C 0 .30400003 0 .29500003 .012 .29500003 C .020000002 .29500003 .022000002 .29900003 .028000003 .307 C .077 .38400004 .135 .38400004 .15500002 .38400004 L .21200001 .38400004 C .18000002 .263 .12600002 .14200002 .08400001 .051000004 C .076000008 .036000004 .076000008 .034 .076000008 .027000003 C .076000008 .008000001 .092 0 .105 0 C .135 0 .143 .028 .15500002 .065000008 C .16900002 .111 .16900002 .113000009 .18200001 .16300002 L .23800002 .38400004 Z "/>
</symbol>
<use xlink:href="#font_2_1" transform="matrix(9.9626,0,0,-9.9626,75.331989,177.0936)"/>
<use xlink:href="#font_0_1" transform="matrix(9.9626,0,0,-9.9626,65.74989,133.95162)"/>
<use xlink:href="#font_2_1" transform="matrix(9.9626,0,0,-9.9626,74.13599,129.61261)"/>
<path transform="matrix(1,0,0,-1,73.867,133.75202)" stroke-width=".398" stroke-linecap="butt" stroke-miterlimit="10" stroke-linejoin="miter" fill="none" stroke="#000000" d="M 0 0 L 6.036 0 "/>
<use xlink:href="#font_1_2" transform="matrix(9.9626,0,0,-9.9626,74.89313,143.07701)"/>
<use xlink:href="#font_2_1" transform="matrix(9.9626,0,0,-9.9626,74.13599,48.916597)"/>
<path transform="matrix(1,0,0,-1,73.867,53.056016)" stroke-width=".398" stroke-linecap="butt" stroke-miterlimit="10" stroke-linejoin="miter" fill="none" stroke="#000000" d="M 0 0 L 6.036 0 "/>
<use xlink:href="#font_1_2" transform="matrix(9.9626,0,0,-9.9626,74.89313,62.380014)"/>
<use xlink:href="#font_2_1" transform="matrix(9.9626,0,0,-9.9626,75.331989,15.354584)"/>
<clipPath id="cp3">
<path transform="matrix(1,0,0,-1,9.686,174.496)" d="M 0 0 L 154.1207 0 L 154.1207 161.39519 L 0 161.39519 Z "/>
</clipPath>
<g clip-path="url(#cp3)">
<path transform="matrix(1,0,0,-1,9.686,174.496)" stroke-width="1.19553" stroke-linecap="butt" stroke-miterlimit="10" stroke-linejoin="miter" fill="none" stroke="#000080" d="M 0 48.6137 L 3.1453 48.94171 L 6.29062 49.29295 L 9.43594 49.67442 L 12.58125 50.08736 L 15.72658 50.53879 L 18.8719 51.02864 L 22.01721 51.56528 L 25.16254 52.1559 L 28.30785 52.80585 L 31.45316 53.52664 L 34.59848 54.32564 L 37.7438 55.2166 L 40.88911 56.21278 L 44.03444 57.3307 L 47.17976 58.5906 L 50.32507 60.01147 L 53.47038 61.61569 L 56.6157 63.42995 L 59.76102 65.47299 L 62.90634 67.76093 L 66.05167 70.29732 L 69.19698 73.06706 L 72.3423 76.03172 L 75.48763 79.12675 L 78.63293 82.26816 L 81.77826 85.36343 L 84.92357 88.32811 L 88.06888 91.09787 L 91.2142 93.63383 L 94.35953 95.92181 L 97.50484 97.96523 L 100.65016 99.77946 L 103.79549 101.38368 L 106.9408 102.80455 L 110.0861 104.06447 L 113.23143 105.18239 L 116.37674 106.17856 L 119.52206 107.06953 L 122.66739 107.86852 L 125.8127 108.58932 L 128.95803 109.23927 L 132.10335 109.8299 L 135.24866 110.36653 L 138.39397 110.85637 L 141.53929 111.30783 L 144.68462 111.72075 L 147.82993 112.1022 L 150.97525 112.45345 L 154.12058 112.78146 "/>
<symbol id="font_4_1">
<path d="M .11400001 .683 L .10900001 .65400007 L .12900001 .65400007 C .18900001 .65400007 .19900002 .646 .19900002 .62600007 C .19900002 .624 .19800002 .62 .19600001 .60700008 L .10700001 .072000008 C .10100001 .039 .09500001 .029000001 .025000003 .029000001 L .004999999 .029000001 L 0 0 L .37600003 0 C .51500007 0 .62700006 .102000009 .62700006 .20600002 C .62700006 .287 .5590001 .347 .46199999 .35700003 C .56900009 .377 .65400007 .44900004 .65400007 .535 C .65400007 .619 .57600006 .683 .46300004 .683 L .11400001 .683 M .23200001 .365 L .274 .619 C .279 .65000006 .28800003 .65400007 .326 .65400007 L .45200003 .65400007 C .53900006 .65400007 .56600007 .58900007 .56600007 .53900006 C .56600007 .453 .49000005 .365 .37600003 .365 L .23200001 .365 M .22200002 .029000001 C .19000001 .029000001 .18 .032 .18 .05 C .18 .053000004 .18 .055000005 .18300002 .071 L .22900002 .34500004 L .416 .34500004 C .50000008 .34500004 .53700008 .279 .53700008 .21400002 C .53700008 .11100001 .451 .029000001 .35 .029000001 L .22200002 .029000001 Z "/>
</symbol>
<use xlink:href="#font_4_1" transform="matrix(24.7871,0,0,-24.7871,130.58985,50.89601)"/>
</g>
<symbol id="font_2_2">
<path d="M .305 .31300003 C .311 .33900003 .334 .43100003 .404 .43100003 C .409 .43100003 .433 .43100003 .454 .418 C .426 .41300003 .40600003 .388 .40600003 .36400003 C .40600003 .34800003 .417 .32900004 .444 .32900004 C .46600003 .32900004 .498 .34700004 .498 .38700003 C .498 .43900005 .439 .45300005 .405 .45300005 C .347 .45300005 .312 .40000005 .3 .37700004 C .275 .44300003 .221 .45300005 .19200002 .45300005 C .08800001 .45300005 .031000002 .32400004 .031000002 .29900003 C .031000002 .28900004 .041 .28900004 .043000007 .28900004 C .051000008 .28900004 .054000006 .291 .056 .3 C .09 .40600003 .156 .43100003 .19000001 .43100003 C .209 .43100003 .244 .42200003 .244 .36400003 C .244 .33300004 .22700002 .26600004 .19000001 .126 C .17400001 .064 .13900002 .022000002 .095000009 .022000002 C .08900001 .022000002 .06600001 .022000002 .045 .035 C .07000001 .040000004 .09200001 .061 .09200001 .089 C .09200001 .116000007 .07000001 .124000009 .055000009 .124000009 C .025 .124000009 0 .098000008 0 .06600001 C 0 .020000002 .050000006 0 .094000007 0 C .16000001 0 .19600001 .07000001 .19900002 .076000008 C .21100001 .039 .24700003 0 .307 0 C .41 0 .467 .12900001 .467 .15400002 C .467 .16400002 .458 .16400002 .455 .16400002 C .446 .16400002 .444 .16000001 .442 .15300001 C .409 .046 .341 .022000002 .30900003 .022000002 C .27 .022000002 .254 .054 .254 .08800001 C .254 .11000001 .26 .13200002 .271 .17600002 L .305 .31300003 Z "/>
</symbol>
<use xlink:href="#font_2_2" transform="matrix(9.9626,0,0,-9.9626,167.63591,96.041599)"/>
<symbol id="font_2_3">
<path d="M .45700003 .586 C .461 .6 .461 .602 .461 .609 C .461 .62700006 .447 .63600006 .432 .63600006 C .42200003 .63600006 .40600003 .63 .397 .615 C .395 .61 .387 .579 .38300003 .561 C .37600003 .535 .36900003 .508 .363 .48100005 L .318 .301 C .314 .286 .271 .21600002 .20500002 .21600002 C .15400002 .21600002 .143 .26000003 .143 .29700003 C .143 .34300003 .16000001 .40500004 .194 .49300004 C .21000001 .53400006 .21400002 .545 .21400002 .56500008 C .21400002 .61 .18200001 .6470001 .13200002 .6470001 C .037 .6470001 0 .50200006 0 .49300004 C 0 .48300005 .01 .48300005 .012 .48300005 C .022000002 .48300005 .023 .485 .028000003 .50100007 C .055000009 .595 .095000009 .625 .12900001 .625 C .13700001 .625 .15400002 .625 .15400002 .59300008 C .15400002 .568 .14400001 .54200008 .13700001 .523 C .097 .41700004 .079 .36 .079 .31300003 C .079 .224 .142 .194 .201 .194 C .24000003 .194 .274 .21100001 .30200003 .23900002 C .289 .187 .277 .13800001 .237 .08500001 C .21100001 .051 .17300001 .022 .127 .022 C .113000009 .022 .068 .025000006 .051000008 .06400001 C .067 .06400001 .080000009 .06400001 .094000007 .076000008 C .104 .08500001 .11400001 .098000008 .11400001 .117000009 C .11400001 .148 .087000008 .15200001 .07700001 .15200001 C .054000006 .15200001 .021 .136 .021 .087000008 C .021 .037 .065000008 0 .127 0 C .23 0 .333 .091000009 .361 .20400001 L .45700003 .586 Z "/>
</symbol>
<use xlink:href="#font_2_3" transform="matrix(9.9626,0,0,-9.9626,84.42792,9.652334)"/>
</svg>
