<?xml version="1.0" encoding="UTF-8" standalone="no"?>
<!DOCTYPE svg PUBLIC "-//W3C//DTD SVG 1.1//EN" "http://www.w3.org/Graphics/SVG/1.1/DTD/svg11.dtd">
<svg xmlns="http://www.w3.org/2000/svg" xmlns:xlink="http://www.w3.org/1999/xlink" version="1.1" width="107.893pt" height="73.906pt" viewBox="0 0 107.893 73.906">
<path transform="matrix(1,0,0,-1,.797,53.946)" stroke-width="1" stroke-linecap="butt" stroke-miterlimit="10" stroke-linejoin="miter" fill="none" stroke="#000000" d="M 28.3469 0 L 28.3469 7.08658 L 35.43349 7.08658 "/>
<path transform="matrix(1,0,0,-1,.797,53.946)" stroke-width="1" stroke-linecap="butt" stroke-miterlimit="10" stroke-linejoin="miter" fill="none" stroke="#000000" d="M 8.85835 0 C 8.85835 2.94461 7.39459 5.69746 4.95348 7.34393 "/>
<path transform="matrix(1,0,0,-1,.797,53.946)" stroke-width="1.59404" stroke-linecap="butt" stroke-miterlimit="10" stroke-linejoin="miter" fill="none" stroke="#800000" d="M 0 0 L 67.08119 0 "/>
<path transform="matrix(1,0,0,-1,67.87819,53.946)" d="M 3.78581 0 L -2.27148 3.02866 L 0 0 L -2.27148 -3.02866 " fill="#800000"/>
<path transform="matrix(1,0,0,-1,.797,53.946)" stroke-width="1.59404" stroke-linecap="butt" stroke-dasharray="2.98883,2.98883" stroke-miterlimit="10" stroke-linejoin="miter" fill="none" stroke="#800000" d="M 35.43349 53.15024 L 102.5147 53.15024 "/>
<path transform="matrix(1,0,0,-1,103.3117,.7957573)" d="M 3.78581 0 L -2.27148 3.02866 L 0 0 L -2.27148 -3.02866 " fill="#800000"/>
<symbol id="font_0_1">
<path d="M .44800005 .497 C .44800005 .602 .40800003 .71400007 .31000004 .71400007 C .16 .71400007 0 .446 0 .21700002 C 0 .098000008 .046000005 0 .13800001 0 C .29000003 0 .44800005 .273 .44800005 .497 M .11300001 .375 C .164 .591 .25000004 .68600007 .30900003 .68600007 C .37300004 .68600007 .37300004 .575 .37300004 .556 C .37300004 .517 .36500005 .45900003 .344 .375 L .11300001 .375 M .33500005 .33900003 C .307 .23000002 .284 .17600002 .254 .127 C .22300002 .075 .183 .028 .139 .028 C .084 .028 .07500001 .104 .07500001 .158 C .07500001 .22400002 .094000007 .30200003 .10400001 .33900003 L .33500005 .33900003 Z "/>
</symbol>
<use xlink:href="#font_0_1" transform="matrix(6.9738,0,0,-6.9738,9.861349,50.236738)"/>
<path transform="matrix(1,0,0,-1,.797,53.946)" stroke-width="1.59404" stroke-linecap="butt" stroke-miterlimit="10" stroke-linejoin="miter" fill="none" stroke="#000080" d="M 0 0 L 33.32697 49.99062 "/>
<path transform="matrix(.55643,-.8346,-.8346,-.55643,34.12395,3.9553986)" d="M 3.78581 0 L -2.27148 3.02866 L 0 0 L -2.27148 -3.02866 " fill="#000080"/>
<path transform="matrix(1,0,0,-1,.797,53.946)" stroke-width="1.59404" stroke-linecap="butt" stroke-dasharray="2.98883,2.98883" stroke-miterlimit="10" stroke-linejoin="miter" fill="none" stroke="#000080" d="M 70.867 0 L 104.194 49.99062 "/>
<path transform="matrix(.55643,-.8346,-.8346,-.55643,104.990978,3.9553986)" d="M 3.78581 0 L -2.27148 3.02866 L 0 0 L -2.27148 -3.02866 " fill="#000080"/>
<path transform="matrix(1,0,0,-1,.797,53.946)" stroke-width="1" stroke-linecap="butt" stroke-dasharray="2.98883,2.98883" stroke-miterlimit="10" stroke-linejoin="miter" fill="none" stroke="#000000" d="M 35.43349 53.15024 L 35.43349 0 "/>
<symbol id="font_0_2">
<path d="M .23800002 .674 C .23900001 .676 .242 .689 .242 .69 C .242 .69500008 .23800002 .704 .22600003 .704 C .20600002 .704 .12300001 .69600006 .098000008 .694 C .09 .693 .076000008 .69200006 .076000008 .671 C .076000008 .657 .09 .657 .102 .657 C .15 .657 .15 .65000006 .15 .642 C .15 .635 .148 .629 .14600002 .62 L .0050000029 .054000006 C 0 .036000004 0 .034 0 .032 C 0 .017 .012000002 0 .034 0 C .045 0 .06400001 .0050000005 .075 .026 C .07800001 .032 .087 .068 .09200001 .089 L .11500001 .17800002 C .118 .19300002 .128 .23100002 .13100001 .24600002 C .141 .284 .141 .285 .16100002 .317 C .193 .366 .24300002 .423 .32100005 .423 C .37700004 .423 .38 .377 .38 .35300002 C .38 .293 .337 .18200001 .32100005 .14000002 C .31 .112 .306 .103 .306 .086 C .306 .033000005 .35000003 0 .40100003 0 C .50100007 0 .545 .13800001 .545 .15300001 C .545 .16600001 .53200009 .16600001 .52900007 .16600001 C .51500007 .16600001 .51400008 .16000001 .51000007 .14900002 C .48700006 .069000009 .44300003 .028 .40400005 .028 C .38300003 .028 .379 .042000005 .379 .063 C .379 .086 .384 .099 .402 .14400001 C .41400004 .17500001 .45500005 .28100003 .45500005 .337 C .45500005 .35300002 .45500005 .395 .41800005 .42400003 C .40100003 .437 .37200005 .451 .325 .451 C .25200004 .451 .19900002 .411 .16200002 .368 L .23800002 .674 Z "/>
</symbol>
<use xlink:href="#font_0_2" transform="matrix(6.9738,0,0,-6.9738,40.546037,29.862738)"/>
<symbol id="font_1_1">
<path d="M 1.098 0 C 1.12 0 1.1350001 0 1.1350001 .029 C 1.1350001 .039000006 1.1350001 .049999983 1.1220001 .05700001 C 1.067 .083000008 .95300009 .137 .86800006 .28800003 C .85600009 .307 .855 .308 .82900008 .308 C .81200006 .308 .79300007 .308 .79300007 .28599999 C .79300007 .272 .8510001 .15599999 .9560001 .072999987 L .051000008 .072999987 C .036 .072999987 0 .072999987 0 .037 C 0 0 .035000005 0 .051000008 0 L 1.098 0 Z "/>
</symbol>
<use xlink:href="#font_1_1" transform="matrix(6.9738,0,0,-6.9738,6.24393,24.599614)" fill="#000080"/>
<symbol id="font_2_1">
<path d="M .342 .083000008 C .342 .052000006 .342 .006 .446 .006 L .49400003 .006 C .514 .006 .526 .006 .526 .030000002 C .526 .053000004 .513 .053000004 .5 .053000004 C .439 .054 .439 .067 .439 .09 L .439 .30500005 C .439 .39400003 .368 .45900003 .21900001 .45900003 C .162 .45900003 .040000004 .45500005 .040000004 .36700005 C .040000004 .323 .075 .30400003 .102 .30400003 C .133 .30400003 .165 .32500003 .165 .36700005 C .165 .39700005 .146 .41400004 .143 .41600005 C .171 .42200003 .20300001 .42300005 .215 .42300005 C .29000003 .42300005 .32500003 .38100005 .32500003 .30500005 L .32500003 .27100004 C .254 .26800005 0 .25900004 0 .114 C 0 .018 .124 0 .193 0 C .273 0 .32000003 .041 .342 .083000008 M .32500003 .24000001 L .32500003 .14500001 C .32500003 .049000004 .23300001 .036000004 .208 .036000004 C .157 .036000004 .117 .071 .117 .115 C .117 .223 .275 .237 .32500003 .24000001 Z "/>
</symbol>
<use xlink:href="#font_2_1" transform="matrix(9.9626,0,0,-9.9626,7.7408034,32.572786)" fill="#000080"/>
<use xlink:href="#font_1_1" transform="matrix(6.9738,0,0,-6.9738,32.266935,60.108606)" fill="#800000"/>
<symbol id="font_2_2">
<path d="M .17700002 .40700004 L .17700002 .7 L 0 .69200006 L 0 .64500007 C .062000008 .64500007 .069000009 .64500007 .069000009 .606 L .069000009 .006 L .11600001 .006 L .165 .062000004 C .17300001 .054 .222 0 .31100003 0 C .46 0 .563 .09 .563 .229 C .563 .36200003 .46900005 .45600004 .32400004 .45600004 C .25100003 .45600004 .201 .42700006 .17700002 .40700004 M .18300002 .105000007 L .18300002 .35600005 C .21000001 .39100004 .25800003 .42000006 .31300003 .42000006 C .43500004 .42000006 .43500004 .29900003 .43500004 .229 C .43500004 .18200001 .43500004 .127 .409 .088 C .38000003 .047000003 .33400003 .036000004 .30200003 .036000004 C .23200003 .036000004 .193 .09 .18300002 .105000007 Z "/>
</symbol>
<use xlink:href="#font_2_2" transform="matrix(9.9626,0,0,-9.9626,33.416624,70.57178)" fill="#800000"/>
</svg>
