<?xml version="1.0" encoding="UTF-8" standalone="no"?>
<!DOCTYPE svg PUBLIC "-//W3C//DTD SVG 1.1//EN" "http://www.w3.org/Graphics/SVG/1.1/DTD/svg11.dtd">
<svg xmlns="http://www.w3.org/2000/svg" xmlns:xlink="http://www.w3.org/1999/xlink" version="1.1" width="219.01pt" height="240.353pt" viewBox="0 0 219.01 240.353">
<clipPath id="cp0">
<path transform="matrix(1,0,0,-1,109.073,119.216999)" d="M 97.1363 0 C 97.1363 53.64758 53.64758 97.1363 0 97.1363 C -53.64758 97.1363 -97.1363 53.64758 -97.1363 0 C -97.1363 -53.64758 -53.64758 -97.1363 0 -97.1363 C 53.64758 -97.1363 97.1363 -53.64758 97.1363 0 "/>
</clipPath>
<g clip-path="url(#cp0)">
<path transform="matrix(1,0,0,-1,109.073,119.216999)" stroke-width="1.19553" stroke-linecap="butt" stroke-miterlimit="10" stroke-linejoin="miter" fill="none" stroke="#000080" d="M 88.30524 0 C 88.30524 0 88.09839 2.02432 87.85208 2.78706 C 87.60579 3.5498 87.01813 4.76692 86.53006 5.49733 C 86.042 6.22774 85.05812 7.37451 84.33444 8.05142 C 83.61076 8.72832 82.26277 9.7728 81.31432 10.37598 C 80.36584 10.97917 78.6602 11.88802 77.49854 12.39883 C 76.33688 12.90965 74.3009 13.65656 72.9418 14.05765 C 71.5827 14.45872 69.24098 15.0136 67.70305 15.28966 C 66.16513 15.5657 63.55287 15.90846 61.85748 16.04726 C 60.1621 16.18605 57.31453 16.29926 55.48389 16.29008 C 53.65323 16.28091 50.60475 16.14615 48.66339 15.98117 C 46.72205 15.81618 43.51854 15.42662 41.49191 15.10088 C 39.46527 14.77513 36.14221 14.12187 34.05681 13.63336 C 31.97139 13.14484 28.57855 12.22995 26.46172 11.57993 C 24.34486 10.92992 20.92128 9.75586 18.80005 8.94836 C 16.67883 8.14087 13.27171 6.71774 11.17331 5.75996 C 9.0749 4.80217 5.72571 3.14336 3.67612 2.04526 C 1.62653 .94716 -1.62294 -.92877 -3.59874 -2.15445 C -5.57454 -3.38013 -8.68547 -5.45058 -10.56407 -6.78864 C -12.44267 -8.1267 -15.37819 -10.36511 -17.13846 -11.79828 C -18.89873 -13.23145 -21.62917 -15.60983 -23.25087 -17.11795 C -24.87257 -18.62607 -27.36067 -21.10597 -28.82661 -22.66779 C -30.29254 -24.22958 -32.52066 -26.7822 -33.81644 -28.37445 C -35.11223 -29.9667 -37.05194 -32.54526 -38.16577 -34.14374 C -39.2796 -35.74223 -40.92052 -38.31459 -41.84418 -39.89534 C -42.76785 -41.47609 -44.095 -43.99892 -44.823 -45.53671 C -45.551 -47.07451 -46.56105 -49.50873 -47.09113 -50.97878 C -47.62122 -52.44882 -48.31093 -54.75412 -48.64346 -56.13187 C -48.97601 -57.50963 -49.34924 -59.64688 -49.48788 -60.90872 C -49.62653 -62.17056 -49.69058 -64.10294 -49.64272 -65.22636 C -49.59486 -66.3498 -49.3669 -68.04044 -49.14294 -69.00566 C -48.91899 -69.9709 -48.41704 -71.3952 -48.02858 -72.18312 C -47.64012 -72.97104 -46.88068 -74.08975 -46.34315 -74.68443 C -45.80562 -75.27913 -44.82434 -76.08182 -44.15442 -76.46921 C -43.48448 -76.8566 -42.29846 -77.3078 -41.51466 -77.47653 C -40.73087 -77.64525 -39.38164 -77.7426 -38.50526 -77.68533 C -37.62889 -77.62807 -36.14597 -77.35153 -35.1983 -77.06369 C -34.25064 -76.77583 -32.67172 -76.13004 -31.67508 -75.61066 C -30.67844 -75.09126 -29.03818 -74.07062 -28.01517 -73.32024 C -26.99217 -72.56984 -25.32887 -71.1787 -24.30197 -70.20232 C -23.27505 -69.22594 -21.62224 -67.47646 -20.6139 -66.28314 C -19.60558 -65.08983 -18.00244 -63.00024 -17.03455 -61.60175 C -16.06664 -60.20323 -14.54523 -57.79343 -13.63786 -56.20369 C -12.73051 -54.61394 -11.32259 -51.9073 -10.49483 -50.14386 C -9.66707 -48.38042 -8.40312 -45.41187 -7.67186 -43.49396 C -6.94058 -41.57607 -5.84406 -38.37122 -5.2242 -36.32095 C -4.60434 -34.27069 -3.69987 -30.87532 -3.20425 -28.71709 C -2.70862 -26.55887 -2.01344 -23.00644 -1.65204 -20.76588 C -1.29062 -18.52531 -.81932 -14.8646 -.59944 -12.56868 C -.37956 -10.27278 -.1412 -6.54248 -.0672 -4.21855 C .00679 -1.89462 .00732 1.85669 -.06601 4.1806 C -.13936 6.5045 -.37665 10.23448 -.5959 12.53058 C -.81514 14.82666 -1.28549 18.4882 -1.64622 20.72923 C -2.00697 22.97026 -2.70093 26.52365 -3.19592 28.68243 C -3.69092 30.84122 -4.59451 34.23738 -5.21384 36.2883 C -5.83315 38.33922 -6.92874 41.54565 -7.6596 43.464 C -8.39047 45.38234 -9.65414 48.35023 -10.48146 50.1144 C -11.30879 51.87856 -12.71533 54.58818 -13.62239 56.17888 C -14.52945 57.76956 -16.05113 60.17966 -17.01892 61.579 C -17.98671 62.97833 -19.58943 65.07008 -20.59755 66.2644 C -21.60567 67.45871 -23.25803 69.20981 -24.28484 70.18683 C -25.31163 71.16385 -26.97482 72.55461 -27.9981 73.30615 C -29.02138 74.0577 -30.66318 75.0827 -31.65996 75.60342 C -32.65672 76.12416 -34.23428 76.77048 -35.18225 77.05922 C -36.13022 77.34796 -37.61557 77.62643 -38.49232 77.68457 C -39.3691 77.74269 -40.71722 77.6459 -41.50133 77.47821 C -42.28543 77.31052 -43.47282 76.86212 -44.14363 76.47595 C -44.81444 76.08977 -45.79805 75.2889 -46.33607 74.69492 C -46.8741 74.10092 -47.63257 72.98215 -48.02141 72.19489 C -48.41026 71.40762 -48.91383 69.9852 -49.13875 69.02075 C -49.36366 68.05632 -49.59402 66.36667 -49.64252 65.24385 C -49.69102 64.12102 -49.62643 62.18938 -49.48833 60.92824 C -49.35022 59.66711 -48.9785 57.53163 -48.64711 56.1545 C -48.31572 54.77734 -47.62901 52.47244 -47.09988 51.00264 C -46.57077 49.53284 -45.56056 47.09865 -44.83351 45.56116 C -44.10646 44.02367 -42.78233 41.50186 -41.85974 39.92134 C -40.93715 38.34082 -39.29727 35.76852 -38.18411 34.16983 C -37.07094 32.57112 -35.13168 29.99117 -33.83673 28.39894 C -32.5418 26.80672 -30.31613 24.25592 -28.85101 22.69409 C -27.38588 21.13228 -24.89809 18.65091 -23.27711 17.14243 C -21.65614 15.63396 -18.92775 13.25554 -17.16815 11.82204 C -15.40855 10.38853 -12.47354 8.1494 -10.59508 6.81068 C -8.71661 5.47198 -5.60493 3.3998 -3.62949 2.17355 C -1.65402 .94731 1.59341 -.92863 3.6426 -2.02724 C 5.69179 -3.12584 9.04135 -4.78606 11.13959 -5.74449 C 13.23782 -6.70291 16.64427 -8.12683 18.76529 -8.93497 C 20.88629 -9.7431 24.3095 -10.91829 26.4264 -11.56903 C 28.54333 -12.21977 31.93684 -13.1357 34.0226 -13.62503 C 36.10835 -14.11435 39.4322 -14.76921 41.45918 -15.09575 C 43.48615 -15.42229 46.68993 -15.81285 48.63168 -15.97855 C 50.57344 -16.14426 53.62305 -16.28009 55.45412 -16.29005 C 57.2852 -16.3 60.1328 -16.18854 61.82892 -16.05037 C 63.52502 -15.91219 66.13986 -15.5699 67.67854 -15.29413 C 69.21722 -15.01834 71.55899 -14.46312 72.91873 -14.06268 C 74.27847 -13.66225 76.31583 -12.91821 77.4787 -12.40802 C 78.64157 -11.89783 80.35036 -10.98854 81.29993 -10.38556 C 82.24951 -9.78258 83.59842 -8.73848 84.32262 -8.06203 C 85.04681 -7.38557 86.03021 -6.24026 86.51947 -5.51006 C 87.00873 -4.77985 87.60164 -3.56189 87.84897 -2.79907 C 88.09631 -2.03625 88.30212 -.0121 88.30212 -.0121 "/>
</g>
<path transform="matrix(1,0,0,-1,109.073,119.216999)" stroke-width="1" stroke-linecap="butt" stroke-miterlimit="10" stroke-linejoin="miter" fill="none" stroke="#bfbfbf" d="M 0 0 L 97.1363 0 M 0 0 L 84.12273 48.56815 M 0 0 L 48.56815 84.12273 M 0 0 L 0 97.1363 M 0 0 L -48.56815 84.12273 M 0 0 L -84.12273 48.56815 M 0 0 L -97.1363 0 M 0 0 L -84.12273 -48.56815 M 0 0 L -48.56815 -84.12273 M 0 0 L 0 -97.1363 M 0 0 L 48.56815 -84.12273 M 0 0 L 84.12273 -48.56815 "/>
<path transform="matrix(1,0,0,-1,109.073,119.216999)" stroke-width="1" stroke-linecap="butt" stroke-miterlimit="10" stroke-linejoin="miter" fill="none" stroke="#bfbfbf" d="M 44.15262 0 C 44.15262 24.38512 24.38512 44.15262 0 44.15262 C -24.38512 44.15262 -44.15262 24.38512 -44.15262 0 C -44.15262 -24.38512 -24.38512 -44.15262 0 -44.15262 C 24.38512 -44.15262 44.15262 -24.38512 44.15262 0 M 88.30524 0 C 88.30524 48.77026 48.77026 88.30524 0 88.30524 C -48.77026 88.30524 -88.30524 48.77026 -88.30524 0 C -88.30524 -48.77026 -48.77026 -88.30524 0 -88.30524 C 48.77026 -88.30524 88.30524 -48.77026 88.30524 0 "/>
<path transform="matrix(1,0,0,-1,109.073,119.216999)" stroke-width="1" stroke-linecap="butt" stroke-miterlimit="10" stroke-linejoin="miter" fill="none" stroke="#808080" d="M 97.1363 0 L 101.38814 0 M 84.12273 48.56815 L 87.80493 50.69406 M 48.56815 84.12273 L 50.69406 87.80493 M 0 97.1363 L 0 101.38814 M -48.56815 84.12273 L -50.69406 87.80493 M -84.12273 48.56815 L -87.80493 50.69406 M -97.1363 0 L -101.38814 0 M -84.12273 -48.56815 L -87.80493 -50.69406 M -48.56815 -84.12273 L -50.69406 -87.80493 M 0 -97.1363 L 0 -101.38814 M 48.56815 -84.12273 L 50.69406 -87.80493 M 84.12273 -48.56815 L 87.80493 -50.69406 "/>
<path transform="matrix(1,0,0,-1,109.073,119.216999)" stroke-width="1" stroke-linecap="butt" stroke-miterlimit="10" stroke-linejoin="miter" fill="none" stroke="#808080" d="M 44.15262 0 L 44.15262 4.25183 M 88.30524 0 L 88.30524 4.25183 "/>
<path transform="matrix(1,0,0,-1,109.073,119.216999)" stroke-width="1" stroke-linecap="butt" stroke-miterlimit="10" stroke-linejoin="miter" fill="none" stroke="#404040" d="M 0 0 L 0 0 "/>
<path transform="matrix(1,0,0,-1,109.073,119.216999)" stroke-width="1" stroke-linecap="butt" stroke-miterlimit="10" stroke-linejoin="miter" fill="none" stroke="#404040" d="M 97.1363 0 C 97.1363 53.64758 53.64758 97.1363 0 97.1363 C -53.64758 97.1363 -97.1363 53.64758 -97.1363 0 C -97.1363 -53.64758 -53.64758 -97.1363 0 -97.1363 C 53.64758 -97.1363 97.1363 -53.64758 97.1363 0 "/>
<path transform="matrix(1,0,0,-1,109.073,119.216999)" stroke-width="1" stroke-linecap="butt" stroke-miterlimit="10" stroke-linejoin="miter" fill="none" stroke="#404040" d="M 0 0 L 97.1363 0 "/>
<path transform="matrix(1,0,0,-1,109.073,119.216999)" stroke-width="1" stroke-linecap="butt" stroke-miterlimit="10" stroke-linejoin="miter" fill="none" stroke="#404040" d="M 0 0 L 97.1363 0 "/>
<symbol id="font_1_1">
<path d="M .43300004 .34200005 C .43300004 .40900005 .43000005 .49500004 .39500005 .57000008 C .35100005 .66400006 .27500005 .688 .217 .688 C .157 .688 .081 .66400006 .037000006 .568 C .004999999 .49900005 0 .41800005 0 .34200005 C 0 .27700005 .0020000004 .18 .044999999 .101 C .09199999 .016000003 .17 0 .216 0 C .28100003 0 .35500003 .028 .397 .120000008 C .42700003 .187 .43300004 .26200003 .43300004 .34200005 M .217 .025000003 C .187 .025000003 .114999998 .039000006 .096 .15200001 C .085999999 .21100001 .085999999 .29700003 .085999999 .35400004 C .085999999 .42200003 .085999999 .50100007 .098000008 .55600008 C .118 .64500007 .18200001 .66300007 .216 .66300007 C .254 .66300007 .31700004 .64300009 .33600004 .55 C .34700004 .49500004 .34700004 .41700004 .34700004 .35400004 C .34700004 .29200004 .34700004 .208 .337 .149 C .316 .035000005 .242 .025000003 .217 .025000003 Z "/>
</symbol>
<use xlink:href="#font_1_1" transform="matrix(8.9664,0,0,-8.9664,209.83766,122.30425)" fill="#404040"/>
<symbol id="font_2_1">
<path d="M .246 .38000003 L .36 .38000003 C .345 .31700004 .319 .21300002 .319 .13000001 C .319 .123 .319 .086 .328 .05 C .338 .012000001 .347 0 .367 0 C .388 0 .41 .018000002 .41 .041 C .41 .048 .409 .051000004 .403 .064 C .372 .134 .372 .20800002 .372 .23100002 C .372 .256 .372 .3 .389 .38000003 L .50600007 .38000003 C .519 .38000003 .556 .38000003 .556 .41600005 C .556 .44200004 .53400006 .44200004 .51500007 .44200004 L .16900002 .44200004 C .14500001 .44200004 .11000001 .44200004 .063 .395 C .036 .36800004 0 .31300003 0 .305 C 0 .29400004 .011000002 .29400004 .014 .29400004 C .022000002 .29400004 .024000003 .29600004 .030000003 .30600003 C .079 .38000003 .14000002 .38000003 .16000001 .38000003 L .21700002 .38000003 C .17400001 .22900002 .105 .087000008 .098 .072000008 C .091000009 .058000003 .081 .037 .081 .029000003 C .081 .016 .09 0 .11200001 0 C .14800002 0 .15700002 .036000004 .17800002 .117000009 L .246 .38000003 Z "/>
</symbol>
<use xlink:href="#font_2_1" transform="matrix(8.9664,0,0,-8.9664,200.91109,60.80862)" fill="#404040"/>
<path transform="matrix(1,0,0,-1,200.66899,64.267)" stroke-width="1" stroke-linecap="butt" stroke-miterlimit="10" stroke-linejoin="miter" fill="none" stroke="#404040" d="M 0 0 L 5.596 0 "/>
<symbol id="font_1_7">
<path d="M .091000009 .35300005 C .091000009 .45500005 .10200001 .512 .12900001 .56400009 C .149 .605 .19800002 .66300007 .272 .66300007 C .292 .66300007 .338 .65900006 .361 .623 C .324 .623 .308 .60400006 .308 .577 C .308 .55100008 .326 .531 .354 .531 C .382 .531 .40100003 .549 .40100003 .57900008 C .40100003 .63500007 .361 .688 .27 .688 C .14100002 .688 0 .56100007 0 .33800004 C 0 .067 .12200001 0 .216 0 C .327 0 .42700003 .093 .42700003 .22500001 C .42700003 .35200004 .335 .44800005 .22200002 .44800005 C .16200002 .44800005 .119 .41300006 .091000009 .35300005 M .21500002 .028 C .158 .028 .12500002 .075 .113000009 .104 C .09400001 .149 .09300001 .23200001 .09300001 .24800001 C .09300001 .31500004 .12400001 .42300005 .22000002 .42300005 C .23600002 .42300005 .285 .42300005 .317 .36100004 C .336 .32300005 .336 .27400003 .336 .22600001 C .336 .178 .336 .12900001 .317 .092 C .286 .035000005 .24200003 .028 .21500002 .028 Z "/>
</symbol>
<use xlink:href="#font_1_7" transform="matrix(8.9664,0,0,-8.9664,201.54854,72.787258)" fill="#404040"/>
<use xlink:href="#font_2_1" transform="matrix(8.9664,0,0,-8.9664,161.7251,19.683623)" fill="#404040"/>
<path transform="matrix(1,0,0,-1,161.483,23.141999)" stroke-width="1" stroke-linecap="butt" stroke-miterlimit="10" stroke-linejoin="miter" fill="none" stroke="#404040" d="M 0 0 L 5.596 0 "/>
<symbol id="font_1_4">
<path d="M .262 .37400005 C .35500003 .40900005 .39900003 .48200003 .39900003 .55100008 C .39900003 .628 .314 .688 .21000003 .688 C .106000009 .688 .028 .62900009 .028 .55300006 C .028 .52000007 .05 .50100007 .07900001 .50100007 C .10800001 .50100007 .12900001 .522 .12900001 .55100008 C .12900001 .586 .105000007 .6010001 .07100001 .6010001 C .097 .64300009 .158 .66300007 .207 .66300007 C .29 .66300007 .306 .59700009 .306 .55 C .306 .52000007 .3 .47200004 .275 .43400005 C .244 .38900004 .209 .38700003 .18 .38500003 C .15500002 .38300006 .15300001 .38300006 .14500001 .38300006 C .136 .38200004 .128 .38100005 .128 .37000004 C .128 .35700003 .136 .35700003 .15300001 .35700003 L .20000002 .35700003 C .287 .35700003 .32500003 .28700004 .32500003 .192 C .32500003 .064 .257 .028 .20600002 .028 C .187 .028 .09 .033000005 .045000007 .107 C .081 .102000009 .10900001 .127 .10900001 .16100002 C .10900001 .194 .08400001 .215 .055000005 .215 C .030000005 .215 0 .2 0 .158 C 0 .069000009 .09300001 0 .209 0 C .334 0 .42700003 .09 .42700003 .192 C .42700003 .279 .358 .35300005 .262 .37400005 Z "/>
</symbol>
<use xlink:href="#font_1_4" transform="matrix(8.9664,0,0,-8.9664,162.36257,31.662257)" fill="#404040"/>
<use xlink:href="#font_2_1" transform="matrix(8.9664,0,0,-8.9664,106.5171,7.02963)" fill="#404040"/>
<path transform="matrix(1,0,0,-1,106.275,10.488998)" stroke-width="1" stroke-linecap="butt" stroke-miterlimit="10" stroke-linejoin="miter" fill="none" stroke="#404040" d="M 0 0 L 5.596 0 "/>
<symbol id="font_1_3">
<path d="M .411 .177 L .38300003 .177 C .381 .164 .37300004 .105000007 .36 .089 C .35400004 .080000009 .28500004 .080000009 .26500003 .080000009 L .08700001 .080000009 L .18600002 .17400001 C .35000003 .316 .411 .36900003 .411 .47100003 C .411 .586 .316 .666 .19300002 .666 C .07800001 .666 0 .57500007 0 .48400004 C 0 .43400003 .043 .42900003 .052000006 .42900003 C .074 .42900003 .104 .44500003 .104 .48100005 C .104 .51100006 .083000008 .53300008 .052000006 .53300008 C .047000003 .53300008 .044000005 .53300008 .040000004 .532 C .063999999 .60300007 .128 .63500007 .18200001 .63500007 C .284 .63500007 .319 .54 .319 .47100003 C .319 .36900003 .24200002 .286 .194 .23400001 L .011 .036000004 C 0 .025 0 .023000002 0 0 L .38300003 0 L .411 .177 Z "/>
</symbol>
<use xlink:href="#font_1_3" transform="matrix(8.9664,0,0,-8.9664,107.22628,18.811997)" fill="#404040"/>
<use xlink:href="#font_1_3" transform="matrix(8.9664,0,0,-8.9664,48.230287,18.826996)" fill="#404040"/>
<use xlink:href="#font_2_1" transform="matrix(8.9664,0,0,-8.9664,52.62209,18.925627)" fill="#404040"/>
<path transform="matrix(1,0,0,-1,47.773,22.384995)" stroke-width="1" stroke-linecap="butt" stroke-miterlimit="10" stroke-linejoin="miter" fill="none" stroke="#404040" d="M 0 0 L 10.204 0 "/>
<use xlink:href="#font_1_4" transform="matrix(8.9664,0,0,-8.9664,50.956556,30.90426)" fill="#404040"/>
<symbol id="font_1_6">
<path d="M .053 .36700005 C .053 .34900005 .053 .33800004 .067 .33800004 C .075 .33800004 .07800001 .34200005 .08400001 .35100005 C .11400001 .39300005 .16200002 .41700004 .21400002 .41700004 C .321 .41700004 .321 .263 .321 .22700002 C .321 .19600001 .321 .134 .293 .089 C .266 .047000003 .224 .028 .18500002 .028 C .126 .028 .059000005 .065000008 .035 .13900002 C .036000004 .13900002 .042 .13700001 .049 .13700001 C .069000009 .13700001 .098000008 .15 .098000008 .186 C .098000008 .21700001 .076000008 .23500002 .049 .23500002 C .028 .23500002 0 .223 0 .18300002 C 0 .092 .076000008 0 .187 0 C .30800004 0 .411 .098000008 .411 .222 C .411 .34300003 .32500003 .44200004 .21600002 .44200004 C .16800002 .44200004 .119 .42600004 .08400001 .39000006 L .08400001 .587 C .11400001 .57800009 .14500001 .573 .17600002 .573 C .29900003 .573 .37100003 .66200008 .37100003 .6750001 C .37100003 .6840001 .365 .688 .36 .688 C .358 .688 .356 .688 .34700004 .683 C .3 .66400006 .254 .656 .21200001 .656 C .16900002 .656 .12400001 .66400006 .07800001 .683 C .068 .688 .066 .688 .065 .688 C .053 .688 .053 .67800006 .053 .6610001 L .053 .36700005 Z "/>
</symbol>
<use xlink:href="#font_1_6" transform="matrix(8.9664,0,0,-8.9664,7.892285,60.62826)" fill="#404040"/>
<use xlink:href="#font_2_1" transform="matrix(8.9664,0,0,-8.9664,12.284091,60.52963)" fill="#404040"/>
<path transform="matrix(1,0,0,-1,7.4349987,63.98799)" stroke-width="1" stroke-linecap="butt" stroke-miterlimit="10" stroke-linejoin="miter" fill="none" stroke="#404040" d="M 0 0 L 10.204 0 "/>
<use xlink:href="#font_1_7" transform="matrix(8.9664,0,0,-8.9664,10.618553,72.50825)" fill="#404040"/>
<use xlink:href="#font_2_1" transform="matrix(8.9664,0,0,-8.9664,3.313092,121.24663)" fill="#404040"/>
<symbol id="font_1_8">
<path d="M .433 .632 C .442 .64300009 .442 .64500007 .442 .66600009 L .19299999 .66600009 C .067 .66600009 .064 .679 .061000006 .6980001 L .033 .6980001 L 0 .48900003 L .027999998 .48900003 C .031999999 .512 .04 .568 .053000004 .58000007 C .060000004 .586 .139 .586 .153 .586 L .363 .586 L .267 .45500005 C .137 .27600003 .125 .113000009 .125 .056 C .125 .045 .125 0 .171 0 C .218 0 .218 .044000005 .218 .057000005 L .218 .106000009 C .218 .25300003 .24000001 .36900003 .293 .44100005 L .433 .632 Z "/>
</symbol>
<use xlink:href="#font_1_8" transform="matrix(8.9664,0,0,-8.9664,7.9460837,172.09928)" fill="#404040"/>
<use xlink:href="#font_2_1" transform="matrix(8.9664,0,0,-8.9664,12.284091,172.00064)" fill="#404040"/>
<path transform="matrix(1,0,0,-1,7.4349987,175.459)" stroke-width="1" stroke-linecap="butt" stroke-miterlimit="10" stroke-linejoin="miter" fill="none" stroke="#404040" d="M 0 0 L 10.204 0 "/>
<use xlink:href="#font_1_7" transform="matrix(8.9664,0,0,-8.9664,10.618553,183.97927)" fill="#404040"/>
<symbol id="font_1_5">
<path d="M 0 .19600001 L 0 .165 L .273 .165 L .273 .079 C .273 .042000005 .27 .031000002 .19500001 .031000002 L .17300001 .031000002 L .17300001 0 C .23600002 .003 .306 .003 .313 .003 C .318 .003 .39000003 .003 .453 0 L .453 .031000002 L .431 .031000002 C .356 .031000002 .35300002 .042000005 .35300002 .079 L .35300002 .165 L .455 .165 L .455 .19600001 L .35300002 .19600001 L .35300002 .65000006 C .35300002 .67 .35300002 .67700007 .334 .67700007 C .322 .67700007 .321 .67600008 .312 .66200008 L 0 .19600001 M .032000007 .19600001 L .279 .56600007 L .279 .19600001 L .032000007 .19600001 Z "/>
</symbol>
<use xlink:href="#font_1_5" transform="matrix(8.9664,0,0,-8.9664,48.033025,213.50498)" fill="#404040"/>
<use xlink:href="#font_2_1" transform="matrix(8.9664,0,0,-8.9664,52.62209,213.6036)" fill="#404040"/>
<path transform="matrix(1,0,0,-1,47.773,217.06299)" stroke-width="1" stroke-linecap="butt" stroke-miterlimit="10" stroke-linejoin="miter" fill="none" stroke="#404040" d="M 0 0 L 10.204 0 "/>
<use xlink:href="#font_1_4" transform="matrix(8.9664,0,0,-8.9664,50.956556,225.58325)" fill="#404040"/>
<use xlink:href="#font_1_4" transform="matrix(8.9664,0,0,-8.9664,104.35655,225.59827)" fill="#404040"/>
<use xlink:href="#font_2_1" transform="matrix(8.9664,0,0,-8.9664,108.8211,225.49964)" fill="#404040"/>
<path transform="matrix(1,0,0,-1,103.971,228.959)" stroke-width="1" stroke-linecap="butt" stroke-miterlimit="10" stroke-linejoin="miter" fill="none" stroke="#404040" d="M 0 0 L 10.204 0 "/>
<use xlink:href="#font_1_3" transform="matrix(8.9664,0,0,-8.9664,107.22628,237.28099)" fill="#404040"/>
<use xlink:href="#font_1_6" transform="matrix(8.9664,0,0,-8.9664,160.62729,213.70224)" fill="#404040"/>
<use xlink:href="#font_2_1" transform="matrix(8.9664,0,0,-8.9664,165.0201,213.6036)" fill="#404040"/>
<path transform="matrix(1,0,0,-1,160.17,217.06299)" stroke-width="1" stroke-linecap="butt" stroke-miterlimit="10" stroke-linejoin="miter" fill="none" stroke="#404040" d="M 0 0 L 10.204 0 "/>
<use xlink:href="#font_1_4" transform="matrix(8.9664,0,0,-8.9664,163.35356,225.58325)" fill="#404040"/>
<symbol id="font_1_2">
<path d="M .21100003 .63900008 C .21100003 .66400006 .21000001 .666 .18500003 .666 C .123 .60200008 .031000004 .60200008 0 .60200008 L 0 .57100006 C .019000002 .57100006 .080000009 .57100006 .134 .597 L .134 .080000009 C .134 .043 .13100001 .031000002 .03800001 .031000002 L .0060000049 .031000002 L .0060000049 0 C .042000005 .003 .13100001 .003 .17200002 .003 C .21300003 .003 .30300004 .003 .33900003 0 L .33900003 .031000002 L .307 .031000002 C .21400002 .031000002 .21100003 .043 .21100003 .080000009 L .21100003 .63900008 Z "/>
</symbol>
<use xlink:href="#font_1_2" transform="matrix(8.9664,0,0,-8.9664,200.76589,172.89899)" fill="#404040"/>
<use xlink:href="#font_1_2" transform="matrix(8.9664,0,0,-8.9664,205.37462,172.89899)" fill="#404040"/>
<use xlink:href="#font_2_1" transform="matrix(8.9664,0,0,-8.9664,209.3891,172.99762)" fill="#404040"/>
<path transform="matrix(1,0,0,-1,199.932,176.456)" stroke-width="1" stroke-linecap="butt" stroke-miterlimit="10" stroke-linejoin="miter" fill="none" stroke="#404040" d="M 0 0 L 14.811 0 "/>
<use xlink:href="#font_1_7" transform="matrix(8.9664,0,0,-8.9664,205.41956,184.97626)" fill="#404040"/>
</svg>
