<?xml version="1.0" encoding="UTF-8" standalone="no"?>
<!DOCTYPE svg PUBLIC "-//W3C//DTD SVG 1.1//EN" "http://www.w3.org/Graphics/SVG/1.1/DTD/svg11.dtd">
<svg xmlns="http://www.w3.org/2000/svg" xmlns:xlink="http://www.w3.org/1999/xlink" version="1.1" width="211.639pt" height="180.134pt" viewBox="0 0 211.639 180.134">
<path transform="matrix(1,0,0,-1,5.507,178.197)" stroke-width="1" stroke-linecap="butt" stroke-miterlimit="10" stroke-linejoin="miter" fill="none" stroke="#808080" d="M 48.5685 11.32335 L 48.5685 15.57591 M 80.9475 11.32335 L 80.9475 15.57591 M 113.32649 11.32335 L 113.32649 15.57591 M 145.70549 11.32335 L 145.70549 15.57591 M 178.08449 11.32335 L 178.08449 15.57591 "/>
<path transform="matrix(1,0,0,-1,5.507,178.197)" stroke-width="1" stroke-linecap="butt" stroke-miterlimit="10" stroke-linejoin="miter" fill="none" stroke="#808080" d="M 14.06335 40.34894 L 18.31561 40.34894 M 14.06335 67.24823 L 18.31561 67.24823 M 14.06335 94.14752 L 18.31561 94.14752 M 14.06335 121.04681 L 18.31561 121.04681 M 14.06335 147.9461 L 18.31561 147.9461 "/>
<path transform="matrix(1,0,0,-1,5.507,178.197)" stroke-width="1" stroke-linecap="butt" stroke-miterlimit="10" stroke-linejoin="miter" fill="none" stroke="#000000" d="M 0 13.44965 L 192.28145 13.44965 "/>
<path transform="matrix(1,0,0,-1,197.78845,164.74736)" d="M 1.99252 0 L -1.19551 1.59401 L 0 0 L -1.19551 -1.59401 "/>
<path transform="matrix(1,0,0,-1,5.507,178.197)" stroke-width="1" stroke-linecap="butt" stroke-miterlimit="10" stroke-linejoin="miter" fill="none" stroke="#000000" d="M 16.1895 0 L 16.1895 159.40323 "/>
<path transform="matrix(0,-1,-1,-0,21.6965,18.793778)" d="M 1.99252 0 L -1.19551 1.59401 L 0 0 L -1.19551 -1.59401 "/>
<symbol id="font_0_3">
<path d="M .421 .34200005 C .421 .42200003 .416 .50200006 .381 .57600006 C .335 .67200008 .25300003 .688 .211 .688 C .15100001 .688 .07800001 .66200008 .037000006 .56900009 C .0050000029 .5 0 .42200003 0 .34200005 C 0 .26700003 .0040000008 .177 .045000007 .101 C .088 .020000002 .161 0 .21000001 0 C .264 0 .34 .021000002 .384 .116000007 C .416 .185 .421 .263 .421 .34200005 M .21000001 .022000002 C .171 .022000002 .112 .047000003 .094 .143 C .083000008 .20300001 .083000008 .29500003 .083000008 .35400004 C .083000008 .41800005 .083000008 .48400004 .091000009 .53800007 C .11 .65700009 .185 .66600009 .21000001 .66600009 C .243 .66600009 .30900003 .64800009 .328 .549 C .338 .49300004 .338 .41700004 .338 .35400004 C .338 .279 .338 .21100001 .32700003 .147 C .312 .052 .255 .022000002 .21000001 .022000002 Z "/>
</symbol>
<use xlink:href="#font_0_3" transform="matrix(9.9626,0,0,-9.9626,48.09854,177.03218)"/>
<symbol id="font_1_5">
<path d="M .106 .053000004 C .106 .082 .08200001 .106000009 .05300001 .106000009 C .024000004 .106000009 0 .082 0 .053000004 C 0 .024 .024000004 0 .05300001 0 C .08200001 0 .106 .024 .106 .053000004 Z "/>
</symbol>
<use xlink:href="#font_1_5" transform="matrix(9.9626,0,0,-9.9626,53.547784,176.813)"/>
<symbol id="font_0_5">
<path d="M .07700001 .07700001 L .18300002 .18 C .33900003 .31800003 .39900003 .372 .39900003 .47200004 C .39900003 .586 .30900003 .666 .18700002 .666 C .074 .666 0 .574 0 .485 C 0 .42900003 .05 .42900003 .053000008 .42900003 C .07000001 .42900003 .105000007 .441 .105000007 .48200003 C .105000007 .508 .08700001 .53400006 .052000006 .53400006 C .044000005 .53400006 .042000008 .53400006 .039 .53300008 C .062000004 .59800007 .11600001 .63500007 .17400001 .63500007 C .26500003 .63500007 .308 .554 .308 .47200004 C .308 .39200003 .25800003 .31300003 .20300003 .25100003 L .011000004 .037 C 0 .026 0 .024 0 0 L .37100003 0 L .39900003 .17400001 L .374 .17400001 C .36900003 .14400001 .36200003 .1 .352 .085 C .345 .07700001 .279 .07700001 .257 .07700001 L .07700001 .07700001 Z "/>
</symbol>
<use xlink:href="#font_0_5" transform="matrix(9.9626,0,0,-9.9626,55.95713,176.813)"/>
<use xlink:href="#font_0_3" transform="matrix(9.9626,0,0,-9.9626,80.47755,177.03218)"/>
<use xlink:href="#font_1_5" transform="matrix(9.9626,0,0,-9.9626,85.92679,176.813)"/>
<symbol id="font_0_6">
<path d="M .266 .165 L .266 .078 C .266 .042000005 .26400004 .031000002 .19000001 .031000002 L .16900002 .031000002 L .16900002 0 C .21000001 .003 .26200003 .003 .30400003 .003 C .34600003 .003 .39900003 .003 .44000004 0 L .44000004 .031000002 L .41900004 .031000002 C .34500004 .031000002 .34300003 .042000005 .34300003 .078 L .34300003 .165 L .44300003 .165 L .44300003 .19600001 L .34300003 .19600001 L .34300003 .651 C .34300003 .671 .34300003 .67700007 .32700003 .67700007 C .31800003 .67700007 .31500004 .67700007 .307 .665 L 0 .19600001 L 0 .165 L .266 .165 M .272 .19600001 L .028 .19600001 L .272 .569 L .272 .19600001 Z "/>
</symbol>
<use xlink:href="#font_0_6" transform="matrix(9.9626,0,0,-9.9626,88.11596,176.813)"/>
<use xlink:href="#font_0_3" transform="matrix(9.9626,0,0,-9.9626,112.85554,177.03218)"/>
<use xlink:href="#font_1_5" transform="matrix(9.9626,0,0,-9.9626,118.30478,176.813)"/>
<symbol id="font_0_7">
<path d="M .089999999 .35000003 L .089999999 .37400005 C .089999999 .62700006 .21400002 .66300007 .26500003 .66300007 C .28900004 .66300007 .33100004 .65700009 .35300002 .623 C .33800004 .623 .298 .623 .298 .57800009 C .298 .54700008 .32200004 .53200009 .344 .53200009 C .36 .53200009 .39000003 .54100009 .39000003 .58000007 C .39000003 .64000007 .34600003 .688 .263 .688 C .13499999 .688 0 .559 0 .33800004 C 0 .071 .116000007 0 .20900002 0 C .32000003 0 .41500003 .094000007 .41500003 .22600001 C .41500003 .35300005 .32600004 .44900004 .215 .44900004 C .14700002 .44900004 .11000001 .39800004 .089999999 .35000003 M .20900002 .028 C .146 .028 .116000007 .088 .11000001 .103 C .092 .15 .092 .23 .092 .24800001 C .092 .32600004 .124000009 .42600004 .21400002 .42600004 C .23000002 .42600004 .27600003 .42600004 .307 .36400003 C .32500003 .32700003 .32500003 .27600003 .32500003 .22700002 C .32500003 .179 .32500003 .12900001 .30800004 .093 C .27800004 .033000005 .23200003 .028 .20900002 .028 Z "/>
</symbol>
<use xlink:href="#font_0_7" transform="matrix(9.9626,0,0,-9.9626,120.63442,177.03218)"/>
<use xlink:href="#font_0_3" transform="matrix(9.9626,0,0,-9.9626,145.23455,177.03218)"/>
<use xlink:href="#font_1_5" transform="matrix(9.9626,0,0,-9.9626,150.68379,176.813)"/>
<symbol id="font_0_8">
<path d="M .121 .47900004 C .075 .509 .071 .54300007 .071 .56000009 C .071 .62100008 .136 .66300007 .20700002 .66300007 C .28000004 .66300007 .344 .61100009 .344 .53900006 C .344 .48200003 .305 .43400005 .245 .39900003 L .121 .47900004 M .26700003 .38400004 C .33900003 .42100004 .388 .47300006 .388 .53900006 C .388 .63100007 .29900003 .688 .208 .688 C .108 .688 .027000003 .614 .027000003 .521 C .027000003 .503 .029 .45800004 .071 .41100005 C .082 .39900003 .11900001 .37400005 .144 .35700003 C .086 .32800005 0 .272 0 .17300001 C 0 .067 .102000009 0 .20700002 0 C .32000003 0 .41500003 .083000008 .41500003 .19000001 C .41500003 .22600001 .404 .27100004 .36600004 .31300003 C .34700004 .33400003 .33100004 .34400005 .26700003 .38400004 M .167 .34200005 L .29000003 .26400004 C .31800003 .245 .365 .215 .365 .154 C .365 .080000009 .29000003 .028 .208 .028 C .122 .028 .050000006 .09 .050000006 .17300001 C .050000006 .231 .082 .29500003 .167 .34200005 Z "/>
</symbol>
<use xlink:href="#font_0_8" transform="matrix(9.9626,0,0,-9.9626,153.01244,177.03218)"/>
<symbol id="font_0_4">
<path d="M .205 .64000007 C .205 .66400006 .205 .666 .18200003 .666 C .120000008 .60200008 .032000007 .60200008 0 .60200008 L 0 .57100006 C .020000004 .57100006 .07900001 .57100006 .13100001 .597 L .13100001 .079 C .13100001 .043 .128 .031000002 .038000004 .031000002 L .0060000049 .031000002 L .0060000049 0 C .04100001 .003 .128 .003 .168 .003 C .20800002 .003 .29500003 .003 .33000005 0 L .33000005 .031000002 L .29800005 .031000002 C .20800002 .031000002 .205 .042000005 .205 .079 L .205 .64000007 Z "/>
</symbol>
<use xlink:href="#font_0_4" transform="matrix(9.9626,0,0,-9.9626,181.98567,176.813)"/>
<use xlink:href="#font_0_3" transform="matrix(9.9626,0,0,-9.9626,3.7095414,141.27719)"/>
<use xlink:href="#font_1_5" transform="matrix(9.9626,0,0,-9.9626,9.158784,141.05802)"/>
<use xlink:href="#font_0_5" transform="matrix(9.9626,0,0,-9.9626,11.56713,141.05802)"/>
<use xlink:href="#font_0_3" transform="matrix(9.9626,0,0,-9.9626,3.7095414,114.37818)"/>
<use xlink:href="#font_1_5" transform="matrix(9.9626,0,0,-9.9626,9.158784,114.159008)"/>
<use xlink:href="#font_0_6" transform="matrix(9.9626,0,0,-9.9626,11.347953,114.159008)"/>
<use xlink:href="#font_0_3" transform="matrix(9.9626,0,0,-9.9626,3.7095414,87.47918)"/>
<use xlink:href="#font_1_5" transform="matrix(9.9626,0,0,-9.9626,9.158784,87.26)"/>
<use xlink:href="#font_0_7" transform="matrix(9.9626,0,0,-9.9626,11.48743,87.47918)"/>
<use xlink:href="#font_0_3" transform="matrix(9.9626,0,0,-9.9626,3.7095414,60.580179)"/>
<use xlink:href="#font_1_5" transform="matrix(9.9626,0,0,-9.9626,9.158784,60.361)"/>
<use xlink:href="#font_0_8" transform="matrix(9.9626,0,0,-9.9626,11.48743,60.580179)"/>
<use xlink:href="#font_0_4" transform="matrix(9.9626,0,0,-9.9626,11.955671,33.463014)"/>
<clipPath id="cp2">
<path transform="matrix(1,0,0,-1,5.507,178.197)" d="M 0 0 L 194.27399 0 L 194.27399 161.39575 L 0 161.39575 Z "/>
</clipPath>
<g clip-path="url(#cp2)">
<path transform="matrix(1,0,0,-1,5.507,178.197)" d="M 162.84099 53.03531 C 162.84099 53.03531 161.32555 55.779 160.83913 56.86069 C 160.3527 57.94237 159.69019 59.70383 159.33515 60.83131 C 158.9801 61.9588 158.5242 63.80576 158.28014 64.98691 C 158.03607 66.16808 157.74214 68.10909 157.57599 69.34439 C 157.40985 70.57971 157.21431 72.60886 157.08266 73.89023 C 156.951 75.1716 156.77326 77.26755 156.62714 78.57968 C 156.481 79.89183 156.24019 82.02646 156.02942 83.34732 C 155.81865 84.66817 155.42978 86.79744 155.10794 88.09955 C 154.7861 89.40166 154.1793 91.47871 153.70977 92.73209 C 153.24022 93.98546 152.36759 95.9575 151.7238 97.13307 C 151.08 98.30865 149.90091 100.13231 149.06969 101.20477 C 148.23845 102.27725 146.74973 103.91309 145.73285 104.8627 C 144.71598 105.81233 142.92775 107.23279 141.74069 108.04903 C 140.55362 108.86526 138.50829 110.06346 137.17723 110.74568 C 135.84618 111.42789 133.58805 112.409 132.14731 112.9661 C 130.70658 113.52318 128.30175 114.3081 126.79335 114.7609 C 125.28497 115.21368 122.80977 115.85167 121.27591 116.22955 C 119.74203 116.60742 117.25893 117.14746 115.73824 117.48436 C 114.21753 117.82127 111.79146 118.3241 110.31566 118.65782 C 108.83984 118.99155 106.50981 119.52274 105.10155 119.8897 C 103.69328 120.25665 101.493 120.87051 100.16585 121.30266 C 98.8387 121.7348 96.78172 122.4831 95.53632 123.00432 C 94.29091 123.52556 92.36336 124.43578 91.1898 125.05939 C 90.01625 125.683 88.19716 126.77147 87.07813 127.49896 C 85.95909 128.22647 84.21283 129.48224 83.1245 130.30275 C 82.03618 131.12326 80.31865 132.52265 79.23419 133.41268 C 78.14975 134.3027 76.41592 135.7928 75.30853 136.71753 C 74.20113 137.64225 72.40675 139.15927 71.25273 140.07753 C 70.0987 140.99579 66.9911 143.33576 66.9911 143.33576 L 16.1895 13.44965 Z " fill="#cccce6"/>
<path transform="matrix(1,0,0,-1,5.507,178.197)" stroke-width="1" stroke-linecap="butt" stroke-miterlimit="10" stroke-linejoin="miter" fill="none" stroke="#cccce6" d="M 162.84099 53.03531 C 162.84099 53.03531 161.32555 55.779 160.83913 56.86069 C 160.3527 57.94237 159.69019 59.70383 159.33515 60.83131 C 158.9801 61.9588 158.5242 63.80576 158.28014 64.98691 C 158.03607 66.16808 157.74214 68.10909 157.57599 69.34439 C 157.40985 70.57971 157.21431 72.60886 157.08266 73.89023 C 156.951 75.1716 156.77326 77.26755 156.62714 78.57968 C 156.481 79.89183 156.24019 82.02646 156.02942 83.34732 C 155.81865 84.66817 155.42978 86.79744 155.10794 88.09955 C 154.7861 89.40166 154.1793 91.47871 153.70977 92.73209 C 153.24022 93.98546 152.36759 95.9575 151.7238 97.13307 C 151.08 98.30865 149.90091 100.13231 149.06969 101.20477 C 148.23845 102.27725 146.74973 103.91309 145.73285 104.8627 C 144.71598 105.81233 142.92775 107.23279 141.74069 108.04903 C 140.55362 108.86526 138.50829 110.06346 137.17723 110.74568 C 135.84618 111.42789 133.58805 112.409 132.14731 112.9661 C 130.70658 113.52318 128.30175 114.3081 126.79335 114.7609 C 125.28497 115.21368 122.80977 115.85167 121.27591 116.22955 C 119.74203 116.60742 117.25893 117.14746 115.73824 117.48436 C 114.21753 117.82127 111.79146 118.3241 110.31566 118.65782 C 108.83984 118.99155 106.50981 119.52274 105.10155 119.8897 C 103.69328 120.25665 101.493 120.87051 100.16585 121.30266 C 98.8387 121.7348 96.78172 122.4831 95.53632 123.00432 C 94.29091 123.52556 92.36336 124.43578 91.1898 125.05939 C 90.01625 125.683 88.19716 126.77147 87.07813 127.49896 C 85.95909 128.22647 84.21283 129.48224 83.1245 130.30275 C 82.03618 131.12326 80.31865 132.52265 79.23419 133.41268 C 78.14975 134.3027 76.41592 135.7928 75.30853 136.71753 C 74.20113 137.64225 72.40675 139.15927 71.25273 140.07753 C 70.0987 140.99579 66.9911 143.33576 66.9911 143.33576 L 16.1895 13.44965 Z "/>
<path transform="matrix(1,0,0,-1,5.507,178.197)" stroke-width="1" stroke-linecap="butt" stroke-miterlimit="10" stroke-linejoin="miter" fill="none" stroke="#000080" d="M 186.17923 13.44965 C 186.17923 13.44965 185.61139 18.97627 184.9825 21.05013 C 184.3536 23.12398 182.78058 26.41624 181.64658 28.39662 C 180.51258 30.377 178.23593 33.46024 176.80927 35.32333 C 175.38259 37.18645 172.83191 40.05797 171.36403 41.82466 C 169.89617 43.59135 167.51329 46.32645 166.22977 48.05647 C 164.94625 49.7865 163.07038 52.52109 162.11333 54.29356 C 161.15628 56.06604 159.93274 58.9477 159.33206 60.83131 C 158.73139 62.71495 158.11634 65.84273 157.78403 67.86955 C 157.45174 69.8964 157.18067 73.29147 156.937 75.43936 C 156.69332 77.58723 156.40209 81.16228 156.02779 83.35004 C 155.6535 85.5378 154.94844 89.10098 154.23937 91.20724 C 153.5303 93.3135 152.09758 96.63591 150.91733 98.53058 C 149.73708 100.42525 147.42026 103.28506 145.73285 104.8627 C 144.04544 106.44035 140.88495 108.68835 138.75568 109.90123 C 136.62639 111.1141 132.81166 112.72624 130.38639 113.60426 C 127.9611 114.4823 123.81259 115.5821 121.27591 116.22955 C 118.73921 116.87698 114.5807 117.70062 112.10359 118.2706 C 109.62648 118.84056 105.72113 119.68076 103.42247 120.33755 C 101.12381 120.99437 97.61728 122.12938 95.5364 123.00444 C 93.45555 123.87952 90.32741 125.49147 88.42505 126.64453 C 86.52269 127.79758 83.6454 129.91732 81.8255 131.31493 C 80.00562 132.71254 77.16624 135.19745 75.30853 136.71753 C 73.45082 138.2376 70.43578 140.81189 68.43637 142.27066 C 66.43695 143.72942 63.09465 146.03488 60.8981 147.23134 C 58.70155 148.4278 54.99419 150.12638 52.60512 150.89394 C 50.21605 151.6615 46.20294 152.51486 43.67929 152.76348 C 41.15564 153.01209 36.98586 152.94583 34.41632 152.68585 C 31.84677 152.42588 27.68869 151.54763 25.15977 150.88965 C 22.63084 150.23168 16.1895 147.9436 16.1895 147.9436 "/>
<path transform="matrix(1,0,0,-1,5.507,178.197)" stroke-width="1" stroke-linecap="butt" stroke-miterlimit="10" stroke-linejoin="miter" fill="none" stroke="#000080" d="M 16.1895 13.44965 L 162.83898 53.03491 "/>
<symbol id="font_1_3">
<path d="M .41300003 .511 C .41300003 .577 .395 .716 .293 .716 C .15400002 .716 0 .43400003 0 .20500002 C 0 .111 .029 0 .12 0 C .261 0 .41300003 .28700004 .41300003 .511 M .106 .374 C .123 .43800003 .143 .518 .183 .589 C .21000001 .638 .24700001 .694 .29200004 .694 C .34100003 .694 .34700004 .63 .34700004 .573 C .34700004 .524 .33900003 .47300003 .31500004 .374 L .106 .374 M .30600003 .34200005 C .29500003 .29600004 .27400003 .21100001 .23600003 .13900002 C .201 .071 .16300002 .022000002 .12 .022000002 C .087000008 .022000002 .066 .051000004 .066 .14400001 C .066 .18600002 .072000008 .24400002 .098 .34200005 L .30600003 .34200005 Z "/>
</symbol>
<use xlink:href="#font_1_3" transform="matrix(9.47513,-3.0786427,-3.0786427,-9.47513,116.347827,150.93795)"/>
<symbol id="font_0_9">
<path d="M .63100007 .19400002 C .646 .19400002 .665 .19400002 .665 .214 C .665 .23400001 .646 .23400001 .632 .23400001 L .033 .23400001 C .019000002 .23400001 0 .23400001 0 .214 C 0 .19400002 .019000002 .19400002 .034 .19400002 L .63100007 .19400002 M .632 0 C .646 0 .665 0 .665 .02000001 C .665 .040000008 .646 .040000008 .63100007 .040000008 L .034 .040000008 C .019000002 .040000008 0 .040000008 0 .02000001 C 0 0 .019000002 0 .033 0 L .632 0 Z "/>
</symbol>
<use xlink:href="#font_0_9" transform="matrix(9.47513,-3.0786427,-3.0786427,-9.47513,123.380359,147.14447)"/>
<symbol id="font_1_1">
<path d="M .43600003 .24700003 C .43600003 .404 .343 .45300005 .269 .45300005 C .132 .45300005 0 .31000004 0 .16900002 C 0 .076000008 .060000004 0 .162 0 C .225 0 .29700003 .023000002 .37300004 .08400001 C .386 .031000004 .419 0 .464 0 C .517 0 .54800006 .055000005 .54800006 .071 C .54800006 .078 .542 .081 .536 .081 C .52900007 .081 .526 .078 .523 .071 C .505 .022000002 .46900005 .022000002 .467 .022000002 C .43600003 .022000002 .43600003 .1 .43600003 .124000009 C .43600003 .14500001 .43600003 .14700002 .446 .15900001 C .54 .277 .56100007 .39300005 .56100007 .39400003 C .56100007 .39600004 .56 .404 .549 .404 C .53900006 .404 .53900006 .40100003 .53400006 .38300003 C .51600006 .32000003 .48300005 .24400002 .43600003 .18500002 L .43600003 .24700003 M .36900003 .11000001 C .28100003 .033000005 .204 .022000002 .164 .022000002 C .10400001 .022000002 .074 .067 .074 .13100001 C .074 .18000002 .1 .28800003 .132 .33900003 C .17900002 .41200004 .23300001 .43100003 .268 .43100003 C .367 .43100003 .367 .3 .367 .22200002 C .367 .18500002 .367 .127 .36900003 .11000001 Z "/>
</symbol>
<use xlink:href="#font_1_1" transform="matrix(9.47513,-3.0786427,-3.0786427,-9.47513,133.68302,145.30542)"/>
<path transform="matrix(1,0,0,-1,5.507,178.197)" stroke-width="1" stroke-linecap="butt" stroke-miterlimit="10" stroke-linejoin="miter" fill="none" stroke="#000080" d="M 16.1895 13.44965 L 66.99083 143.33974 "/>
<use xlink:href="#font_1_3" transform="matrix(3.0786427,-9.47513,-9.47513,-3.0786427,48.34153,83.31591)"/>
<use xlink:href="#font_0_9" transform="matrix(3.0786427,-9.47513,-9.47513,-3.0786427,49.406164,75.39673)"/>
<symbol id="font_1_2">
<path d="M .54600009 .763 C .54600009 .83800008 .49100004 .90000006 .41 .90000006 C .352 .90000006 .324 .88400009 .289 .85800006 C .23400001 .818 .179 .721 .16000001 .64500007 L .0010000002 .00999999 C 0 .0059999974 .005000001 0 .013000002 0 C .021 0 .024000003 .002000004 .025 .004999995 L .095000009 .28100003 C .11400001 .221 .158 .184 .23100002 .184 C .304 .184 .379 .21900001 .424 .263 C .47200004 .30900003 .50400009 .37300004 .50400009 .44700004 C .50400009 .51900008 .467 .571 .431 .596 C .489 .62900009 .54600009 .691 .54600009 .763 M .366 .597 C .35300002 .592 .342 .59000006 .318 .59000006 C .304 .59000006 .284 .589 .274 .594 C .276 .60400006 .312 .602 .323 .602 C .344 .602 .35300002 .602 .366 .597 M .49000005 .786 C .49000005 .716 .45200003 .64400008 .4 .61300006 C .373 .623 .35300002 .625 .323 .625 C .30200003 .625 .246 .62600007 .246 .59300008 C .24500002 .56500008 .297 .568 .315 .568 C .352 .568 .367 .569 .397 .58100005 C .435 .545 .44 .51400008 .441 .46800003 C .44300003 .41000004 .419 .335 .391 .296 C .352 .24200002 .285 .206 .228 .206 C .15200001 .206 .11400001 .264 .11400001 .335 C .11400001 .34500004 .11400001 .36 .119 .379 L .18300002 .632 C .20500002 .71800008 .277 .87700006 .397 .87700006 C .455 .87700006 .49000005 .846 .49000005 .786 Z "/>
</symbol>
<use xlink:href="#font_1_2" transform="matrix(3.0786427,-9.47513,-9.47513,-3.0786427,55.671064,66.65782)"/>
<path transform="matrix(1,0,0,-1,5.507,178.197)" stroke-width="1" stroke-linecap="butt" stroke-dasharray="2.98883,2.98883" stroke-miterlimit="10" stroke-linejoin="miter" fill="none" stroke="#000080" d="M 16.1895 13.44965 L 155.8388 84.54405 M 16.1895 13.44965 L 134.71393 111.91542 M 16.1895 13.44965 L 96.66669 122.55128 "/>
<symbol id="font_1_7">
<path d="M .059000009 .07000001 C .056 .055000005 .050000006 .032 .050000006 .027000003 C .050000006 .009000001 .064 0 .079 0 C .091000009 0 .10900001 .008000001 .11600001 .028 C .118 .032 .15200001 .16800002 .156 .18600002 C .164 .21900001 .18200001 .28900004 .18800001 .316 C .19200002 .32900004 .22000002 .37600003 .244 .39800004 C .252 .40500004 .281 .43100003 .324 .43100003 C .35 .43100003 .365 .41900004 .366 .41900004 C .336 .41400004 .314 .39000003 .314 .36400003 C .314 .34800003 .325 .32900004 .352 .32900004 C .379 .32900004 .407 .35200004 .407 .388 C .407 .42300005 .375 .45300005 .324 .45300005 C .259 .45300005 .21500002 .404 .19600001 .37600003 C .18800001 .42100004 .15200001 .45300005 .105000007 .45300005 C .059000009 .45300005 .040000008 .41400004 .031000002 .39600004 C .013000002 .36200003 0 .30200003 0 .29900003 C 0 .28900004 .01 .28900004 .012 .28900004 C .022000002 .28900004 .023 .29000003 .029000001 .31200005 C .046000005 .38300003 .06600001 .43100003 .10200001 .43100003 C .119 .43100003 .133 .42300005 .133 .38500003 C .133 .36400003 .13000001 .35300002 .11700001 .30100004 L .059000009 .07000001 Z "/>
</symbol>
<use xlink:href="#font_1_7" transform="matrix(9.9626,0,0,-9.9626,142.76291,53.02659)"/>
<symbol id="font_0_1">
<path d="M .23200003 .00999999 C .23200003 .012999982 .23200003 .014999986 .215 .03199999 C .09 .15799999 .058 .347 .058 .5 C .058 .674 .096 .84800007 .21900001 .97300007 C .23200003 .985 .23200003 .98700007 .23200003 .99 C .23200003 .99700006 .22800002 1 .222 1 C .21200001 1 .12200001 .93200007 .06299999 .805 C .012000002 .69500008 0 .584 0 .5 C 0 .422 .011 .301 .066 .188 C .126 .065 .21200001 0 .222 0 C .22800002 0 .23200003 .0029999912 .23200003 .00999999 Z "/>
</symbol>
<use xlink:href="#font_0_1" transform="matrix(9.9626,0,0,-9.9626,148.2313,55.40765)"/>
<use xlink:href="#font_1_3" transform="matrix(9.9626,0,0,-9.9626,151.53842,53.02659)"/>
<symbol id="font_0_2">
<path d="M .232 .5 C .232 .578 .22100002 .699 .16600001 .81200006 C .106 .93500009 .020000004 1 .009999998 1 C .0040000008 1 0 .99600008 0 .99 C 0 .98700007 0 .985 .019000002 .967 C .117000009 .86800006 .174 .709 .174 .5 C .174 .329 .137 .153 .012999997 .026999996 C 0 .014999986 0 .012999982 0 .00999999 C 0 .003999993 .0040000008 0 .009999998 0 C .020000004 0 .11000001 .06799999 .169 .195 C .22 .305 .232 .416 .232 .5 Z "/>
</symbol>
<use xlink:href="#font_0_2" transform="matrix(9.9626,0,0,-9.9626,156.64087,55.40765)"/>
</g>
<use xlink:href="#font_0_3" transform="matrix(9.9626,0,0,-9.9626,203.72554,168.17319)"/>
<symbol id="font_1_4">
<path d="M .23800002 .38400004 L .351 .38400004 C .31800003 .23600002 .30900003 .19300002 .30900003 .126 C .30900003 .111 .30900003 .08400001 .317 .05 C .327 .0060000007 .338 0 .35300002 0 C .373 0 .39400003 .018000002 .39400003 .038000004 C .39400003 .044 .39400003 .046 .388 .060000004 C .359 .13200002 .359 .19700001 .359 .22500003 C .359 .27800004 .366 .33200003 .377 .38400004 L .491 .38400004 C .504 .38400004 .54 .38400004 .54 .418 C .54 .44200004 .519 .44200004 .5 .44200004 L .165 .44200004 C .143 .44200004 .105 .44200004 .061000006 .395 C .026000003 .35600005 0 .31000004 0 .305 C 0 .30400003 0 .29500003 .012 .29500003 C .020000002 .29500003 .022000002 .29900003 .028000003 .307 C .077 .38400004 .135 .38400004 .15500002 .38400004 L .21200001 .38400004 C .18000002 .263 .12600002 .14200002 .08400001 .051000004 C .076000008 .036000004 .076000008 .034 .076000008 .027000003 C .076000008 .008000001 .092 0 .105 0 C .135 0 .143 .028 .15500002 .065000008 C .16900002 .111 .16900002 .113000009 .18200001 .16300002 L .23800002 .38400004 Z "/>
</symbol>
<symbol id="font_1_6">
<path d="M .384 .962 C .38900004 .975 .38900004 .97900006 .38900004 .98 C .38900004 .99100008 .38000003 1 .36900003 1 C .36200003 1 .35500003 .99700006 .352 .99100008 L .004999999 .037999989 C 0 .024999991 0 .020999983 0 .019999996 C 0 .008999988 .009 0 .02 0 C .033000005 0 .036000004 .0069999846 .042 .023999989 L .384 .962 Z "/>
</symbol>
<use xlink:href="#font_1_4" transform="matrix(9.9626,0,0,-9.9626,13.969991,10.901596)"/>
<use xlink:href="#font_1_6" transform="matrix(9.9626,0,0,-9.9626,20.28628,13.282658)"/>
<use xlink:href="#font_0_5" transform="matrix(9.9626,0,0,-9.9626,25.21713,10.792007)"/>
</svg>
