<?xml version="1.0" encoding="UTF-8" standalone="no"?>
<!DOCTYPE svg PUBLIC "-//W3C//DTD SVG 1.1//EN" "http://www.w3.org/Graphics/SVG/1.1/DTD/svg11.dtd">
<svg xmlns="http://www.w3.org/2000/svg" xmlns:xlink="http://www.w3.org/1999/xlink" version="1.1" width="222.345pt" height="246.102pt" viewBox="0 0 222.345 246.102">
<clipPath id="cp0">
<path transform="matrix(1,0,0,-1,110.159,121.98601)" d="M 97.1357 0 C 97.1357 53.64725 53.64725 97.1357 0 97.1357 C -53.64725 97.1357 -97.1357 53.64725 -97.1357 0 C -97.1357 -53.64725 -53.64725 -97.1357 0 -97.1357 C 53.64725 -97.1357 97.1357 -53.64725 97.1357 0 "/>
</clipPath>
<g clip-path="url(#cp0)">
<path transform="matrix(1,0,0,-1,110.159,121.98601)" d="M 44.15565 0 C 44.15565 0 43.98506 4.177 43.77632 5.76266 C 43.56758 7.34833 43.06506 9.88353 42.65114 11.42834 C 42.2372 12.97314 41.40494 15.41899 40.79291 16.89658 C 40.18088 18.37416 39.03967 20.6928 38.24002 22.07782 C 37.44037 23.46286 36.00317 25.61021 35.02954 26.87906 C 34.05592 28.14789 32.35365 30.09193 31.2228 31.2228 C 30.09193 32.35365 28.14789 34.05592 26.87906 35.02954 C 25.61021 36.00317 23.46286 37.44037 22.07782 38.24002 C 20.6928 39.03967 18.37416 40.18088 16.89658 40.79291 C 15.41899 41.40494 12.97314 42.2372 11.42834 42.65114 C 9.88353 43.06506 7.34833 43.56758 5.76266 43.77632 C 4.177 43.98506 1.5991 44.15565 0 44.15565 C -1.5991 44.15565 -4.177 43.98506 -5.76266 43.77632 C -7.34833 43.56758 -9.88353 43.06506 -11.42834 42.65114 C -12.97314 42.2372 -15.41899 41.40494 -16.89658 40.79291 C -18.37416 40.18088 -20.6928 39.03967 -22.07782 38.24002 C -23.46286 37.44037 -25.61021 36.00317 -26.87906 35.02954 C -28.14789 34.05592 -30.09193 32.35365 -31.2228 31.2228 C -32.35365 30.09193 -34.05592 28.14789 -35.02954 26.87906 C -36.00317 25.61021 -37.44037 23.46286 -38.24002 22.07782 C -39.03967 20.6928 -40.18088 18.37416 -40.79291 16.89658 C -41.40494 15.41899 -42.2372 12.97314 -42.65114 11.42834 C -43.06506 9.88353 -43.56758 7.34833 -43.77632 5.76266 C -43.98506 4.177 -44.15565 0 -44.15565 0 L 44.15565 0 Z " fill="#cccce6"/>
<path transform="matrix(1,0,0,-1,110.159,121.98601)" d="M 44.15565 0 C 44.15565 0 43.13287 .99188 42.73264 1.35565 C 42.3324 1.71944 41.6812 2.2832 41.271 2.62198 C 40.86078 2.96075 40.19447 3.4839 39.77602 3.7974 C 39.35754 4.1109 38.68004 4.59341 38.25496 4.88145 C 37.8299 5.1695 37.1428 5.61084 36.71233 5.87352 C 36.28186 6.1362 35.58669 6.53738 35.15231 6.77469 C 34.71796 7.012 34.01805 7.37177 33.58167 7.58386 C 33.14528 7.79596 32.44423 8.11598 32.00703 8.30336 C 31.56984 8.49074 30.86705 8.77142 30.43062 8.93442 C 29.99419 9.09741 29.29552 9.33913 28.86142 9.47815 C 28.42732 9.61717 27.7325 9.82088 27.30191 9.93646 C 26.8713 10.05205 26.1836 10.21844 25.75792 10.3112 C 25.33224 10.40396 24.6535 10.53435 24.23396 10.60506 C 23.81444 10.67578 23.14633 10.77147 22.73424 10.82095 C 22.32214 10.87044 21.66737 10.93268 21.26384 10.96173 C 20.8603 10.99078 20.21954 11.0208 19.82573 11.03036 C 19.4319 11.03993 18.80844 11.03963 18.42538 11.03072 C 18.04233 11.0218 17.4364 10.99248 17.06485 10.96613 C 16.6933 10.93976 16.10655 10.88342 15.74747 10.8407 C 15.38838 10.79799 14.8226 10.71616 14.47679 10.65822 C 14.13098 10.60028 13.58708 10.4951 13.25504 10.42308 C 12.923 10.35104 12.401 10.22386 12.08359 10.139 C 11.76617 10.05417 11.26942 9.90788 10.96729 9.81154 C 10.66515 9.71518 10.19258 9.5512 9.90587 9.4445 C 9.61917 9.33783 9.17172 9.15834 8.90085 9.04257 C 8.62996 8.9268 8.20828 8.73367 7.95352 8.61012 C 7.69875 8.48657 7.30315 8.28218 7.06458 8.15213 C 6.82602 8.02208 6.45634 7.80801 6.23409 7.67278 C 6.01181 7.53754 5.6684 7.31639 5.46263 7.17743 C 5.25685 7.03847 4.94044 6.81276 4.75095 6.67122 C 4.56145 6.52966 4.27045 6.30031 4.09685 6.15726 C 3.92326 6.01419 3.65761 5.7833 3.49974 5.64003 C 3.34189 5.49677 3.10147 5.2668 2.95903 5.12463 C 2.81659 4.98248 2.60054 4.75525 2.4731 4.6154 C 2.34566 4.47556 2.15338 4.25307 2.04044 4.11665 C 1.92747 3.98026 1.75815 3.76434 1.659 3.63226 C 1.55984 3.50018 1.41185 3.29155 1.32574 3.16466 C 1.23964 3.03778 1.11205 2.83815 1.0384 2.71771 C .96477 2.59726 .85689 2.40938 .795 2.29655 C .73311 2.18373 .64342 2.00919 .59225 1.90442 C .5411 1.79965 .46758 1.63734 .42622 1.54137 C .38487 1.44539 .32668 1.29906 .2942 1.21257 C .26173 1.12607 .21672 .9944 .1921 .91794 C .16747 .84146 .1344 .72676 .11665 .66138 C .0989 .596 .07617 .50047 .06422 .44664 C .05228 .3928 .03783 .31566 .03049 .27336 C .02315 .23105 .01514 .17247 .01126 .14171 C .00739 .11093 .00398 .07033 .00244 .05159 C .0009 .03284 .00043 .01283 .00008 .0066 C -.00024 .00037 .00024 .00024 -.00008 .0066 C -.00043 .01295 -.00093 .03384 -.00247 .05247 C -.00401 .07109 -.00731 .11029 -.01117 .14082 C -.01503 .17136 -.02301 .23012 -.03035 .27249 C -.03769 .31485 -.05219 .39244 -.0641 .44621 C -.07602 .49998 -.09859 .59477 -.1163 .6601 C -.13402 .72542 -.16722 .84073 -.1918 .91708 C -.21638 .99344 -.26105 1.12396 -.2935 1.21046 C -.32596 1.29697 -.38445 1.44458 -.42577 1.54057 C -.46709 1.63658 -.54027 1.79784 -.59132 1.9024 C -.64236 2.00696 -.73187 2.18124 -.79378 2.2942 C -.85568 2.40715 -.96393 2.5961 -1.03754 2.71655 C -1.11115 2.83702 -1.2383 3.03568 -1.3243 3.16241 C -1.4103 3.28915 -1.5582 3.4979 -1.65736 3.63008 C -1.75652 3.76228 -1.92613 3.97876 -2.0391 4.1153 C -2.15205 4.25182 -2.34425 4.47443 -2.47154 4.61409 C -2.59883 4.75377 -2.81425 4.98006 -2.95654 5.12204 C -3.09885 5.26402 -3.33936 5.49425 -3.49716 5.63754 C -3.65497 5.78084 -3.92046 6.01176 -4.094 6.15486 C -4.26752 6.29796 -4.55841 6.52733 -4.74791 6.66895 C -4.9374 6.81058 -5.25407 7.03664 -5.45978 7.17566 C -5.6655 7.31468 -6.00862 7.53581 -6.23065 7.67094 C -6.45267 7.80608 -6.8216 8.01958 -7.06007 8.14963 C -7.29857 8.27966 -7.69482 8.48468 -7.94957 8.60826 C -8.2043 8.73186 -8.62526 8.92467 -8.89609 9.04047 C -9.1669 9.15628 -9.6148 9.33626 -9.90152 9.44304 C -10.18825 9.54982 -10.66054 9.71375 -10.96266 9.81017 C -11.26479 9.90657 -11.76187 10.05307 -12.07909 10.13791 C -12.3963 10.22273 -12.9171 10.34953 -13.249 10.42159 C -13.58087 10.49364 -14.12526 10.59924 -14.47115 10.65727 C -14.81705 10.71532 -15.38298 10.79721 -15.742 10.84001 C -16.10103 10.8828 -16.68741 10.93929 -17.05885 10.96573 C -17.4303 10.99216 -18.03607 11.0216 -18.41919 11.03061 C -18.80232 11.03961 -19.42633 11.04013 -19.82014 11.03064 C -20.21397 11.02115 -20.85422 10.99121 -21.25766 10.96223 C -21.6611 10.93326 -22.31593 10.87114 -22.72792 10.82175 C -23.13991 10.77235 -23.80762 10.67683 -24.2271 10.6062 C -24.64658 10.53557 -25.32564 10.40526 -25.75133 10.31262 C -26.177 10.21999 -26.86461 10.05392 -27.29518 9.93848 C -27.72574 9.82304 -28.42052 9.61945 -28.85458 9.48053 C -29.28864 9.34161 -29.98737 9.10004 -30.42366 8.93718 C -30.85997 8.77432 -31.56187 8.49402 -31.99911 8.30673 C -32.43634 8.11945 -33.1384 7.79942 -33.57501 7.58733 C -34.01163 7.37523 -34.71185 7.0152 -35.14603 6.77805 C -35.58018 6.54091 -36.2738 6.14061 -36.70422 5.87808 C -37.13466 5.61555 -37.823 5.17397 -38.24826 4.88597 C -38.67352 4.59796 -39.35095 4.11562 -39.76926 3.8023 C -40.18755 3.48901 -40.8529 2.96654 -41.26312 2.62787 C -41.67332 2.2892 -42.32542 1.7251 -42.7258 1.36133 C -43.12617 .99756 -44.1488 .00604 -44.1488 .00604 L -44.1488 0 L 44.15565 0 Z " fill="#ffffff"/>
<path transform="matrix(1,0,0,-1,110.159,121.98601)" stroke-width="1.19553" stroke-linecap="butt" stroke-miterlimit="10" stroke-linejoin="miter" fill="none" stroke="#000080" d="M 44.15565 0 C 44.15565 0 43.47191 8.3651 42.65114 11.42834 C 41.83037 14.49158 39.82568 19.33139 38.24002 22.07782 C 36.65436 24.82426 33.46526 28.98032 31.2228 31.2228 C 28.98032 33.46526 24.82426 36.65436 22.07782 38.24002 C 19.33139 39.82568 14.49158 41.83037 11.42834 42.65114 C 8.3651 43.47191 3.17131 44.15565 0 44.15565 C -3.17131 44.15565 -8.3651 43.47191 -11.42834 42.65114 C -14.49158 41.83037 -19.33139 39.82568 -22.07782 38.24002 C -24.82426 36.65436 -28.98032 33.46526 -31.2228 31.2228 C -33.46526 28.98032 -36.65436 24.82426 -38.24002 22.07782 C -39.82568 19.33139 -41.83037 14.49158 -42.65114 11.42834 C -43.47191 8.3651 -44.15565 3.17131 -44.15565 0 C -44.15565 -3.17131 -43.47191 -8.3651 -42.65114 -11.42834 C -41.83037 -14.49158 -39.82568 -19.33139 -38.24002 -22.07782 C -36.65436 -24.82426 -33.46526 -28.98032 -31.2228 -31.2228 C -28.98032 -33.46526 -24.82426 -36.65436 -22.07782 -38.24002 C -19.33139 -39.82568 -14.49158 -41.83037 -11.42834 -42.65114 C -8.3651 -43.47191 -3.17131 -44.15565 0 -44.15565 C 3.17131 -44.15565 8.3651 -43.47191 11.42834 -42.65114 C 14.49158 -41.83037 19.33139 -39.82568 22.07782 -38.24002 C 24.82426 -36.65436 28.98032 -33.46526 31.2228 -31.2228 C 33.46526 -28.98032 36.65436 -24.82426 38.24002 -22.07782 C 39.82568 -19.33139 41.83037 -14.49158 42.65114 -11.42834 C 43.47191 -8.3651 44.15565 0 44.15565 0 "/>
<path transform="matrix(1,0,0,-1,110.159,121.98601)" stroke-width="1.19553" stroke-linecap="butt" stroke-miterlimit="10" stroke-linejoin="miter" fill="none" stroke="#800000" d="M 44.15565 0 C 44.15565 0 42.08873 1.94525 41.27011 2.62254 C 40.45148 3.29984 39.10434 4.3054 38.25555 4.88145 C 37.40677 5.4575 36.01973 6.29948 35.15263 6.7743 C 34.28555 7.24915 32.87898 7.92857 32.0061 8.30376 C 31.13322 8.67894 29.72844 9.19997 28.86147 9.47849 C 27.99449 9.757 26.60764 10.12495 25.75749 10.3112 C 24.90735 10.49747 23.5573 10.72119 22.73424 10.82095 C 21.91116 10.92073 20.61208 11.01022 19.82538 11.03036 C 19.03868 11.0505 17.80637 11.0178 17.06416 10.96619 C 16.32198 10.91455 15.16722 10.773 14.47615 10.65823 C 13.78508 10.54347 12.71753 10.30742 12.08334 10.139 C 11.44916 9.97061 10.47841 9.65656 9.90535 9.44441 C 9.33228 9.23227 8.46248 8.85582 7.95303 8.60999 C 7.44357 8.36415 6.67781 7.9416 6.2335 7.67259 C 5.7892 7.4036 5.13008 6.95332 4.7507 6.67122 C 4.37132 6.38911 3.81522 5.92465 3.49918 5.63937 C 3.18312 5.3541 2.7281 4.89368 2.47273 4.6151 C 2.21735 4.33652 1.85753 3.89478 1.65851 3.63152 C 1.4595 3.36827 1.1863 2.95744 1.03831 2.71771 C .89034 2.47798 .6952 2.1126 .59193 1.9036 C .48865 1.6946 .35979 1.38373 .29385 1.21132 C .2279 1.03891 .15308 .79121 .11653 .66096 C .07999 .53072 .04619 .35703 .03036 .27249 C .01454 .18794 .00667 .08847 .00244 .05159 C -.00177 .01471 .00179 -.00569 -.00008 .0066 C -.00197 .01892 -.00224 .07933 -.01114 .14038 C -.02003 .20143 -.03911 .33878 -.0642 .44664 C -.08928 .55452 -.14185 .76611 -.19202 .91794 C -.2422 1.06976 -.34238 1.34987 -.42593 1.54097 C -.5095 1.73207 -.6696 2.07024 -.79433 2.29536 C -.91905 2.5205 -1.1522 2.911 -1.32497 3.16354 C -1.49773 3.41609 -1.81303 3.84378 -2.0395 4.11562 C -2.26598 4.38744 -2.67207 4.83965 -2.95726 5.12271 C -3.24245 5.40578 -3.74768 5.8708 -4.09506 6.15575 C -4.44243 6.44069 -5.04933 6.89964 -5.461 7.17644 C -5.87267 7.45323 -6.58528 7.89203 -7.06218 8.15079 C -7.53908 8.40956 -8.3567 8.81113 -8.89821 9.04146 C -9.43973 9.2718 -10.361 9.61943 -10.96509 9.81104 C -11.56918 10.00264 -12.58902 10.27968 -13.25218 10.42249 C -13.91533 10.56529 -15.0275 10.75601 -15.7447 10.84038 C -16.46193 10.92473 -17.65598 11.01369 -18.42137 11.03053 C -19.18675 11.04738 -20.45512 11.02077 -21.26114 10.96182 C -22.06717 10.90286 -23.39299 10.74774 -24.23073 10.6056 C -25.06847 10.46347 -26.43918 10.169 -27.29898 9.93733 C -28.15877 9.70564 -29.55635 9.26207 -30.42754 8.93575 C -31.29874 8.60942 -32.70651 8.01003 -33.57802 7.5854 C -34.44951 7.16078 -35.84921 6.40059 -36.70872 5.87532 C -37.56825 5.35004 -38.93748 4.42627 -39.77293 3.79955 C -40.60837 3.1728 -41.93138 2.08537 -42.73 1.35818 C -43.52863 .631 -44.7799 -.61607 -45.52884 -1.44159 C -46.27777 -2.26712 -47.43996 -3.6714 -48.12778 -4.59174 C -48.81561 -5.51207 -49.87207 -7.06546 -50.4863 -8.07474 C -51.10051 -9.08401 -52.02594 -10.77486 -52.55475 -11.86598 C -53.08357 -12.95712 -53.86388 -14.77402 -54.29768 -15.93896 C -54.7315 -17.10391 -55.35307 -19.03357 -55.68144 -20.26208 C -56.00983 -21.4906 -56.44995 -23.5119 -56.66446 -24.79335 C -56.87895 -26.0748 -57.13332 -28.17516 -57.22746 -29.49791 C -57.32161 -30.82066 -57.376 -32.9769 -57.34305 -34.32687 C -57.31007 -35.67686 -57.15367 -37.86327 -56.9898 -39.22772 C -56.82594 -40.59218 -56.4593 -42.79625 -56.16203 -44.16101 C -55.86476 -45.52577 -55.27934 -47.7145 -54.84721 -49.06401 C -54.41508 -50.41354 -53.61316 -52.5669 -53.04753 -53.88756 C -52.48189 -55.2082 -51.46796 -57.30573 -50.7705 -58.58244 C -50.07303 -59.85916 -48.84593 -61.87143 -48.02058 -63.08939 C -47.19524 -64.30734 -45.76802 -66.21458 -44.82191 -67.36067 C -43.87581 -68.50676 -42.26212 -70.28972 -41.20158 -71.3497 C -40.14104 -72.4097 -38.34439 -74.0386 -37.17828 -75.00038 C -36.01219 -75.96216 -34.0575 -77.42798 -32.79713 -78.28157 C -31.53677 -79.13516 -29.43832 -80.41893 -28.09436 -81.1525 C -26.7504 -81.88608 -24.52501 -82.9634 -23.11069 -83.56874 C -21.69638 -84.17407 -19.37155 -85.04463 -17.90085 -85.51541 C -16.43016 -85.98618 -14.02403 -86.6327 -12.5108 -86.96182 C -10.99759 -87.29092 -8.53502 -87.70305 -6.99454 -87.8875 C -5.45407 -88.07195 -2.95984 -88.25397 -1.40805 -88.29121 C .14372 -88.32846 2.64171 -88.26683 4.18967 -88.15596 C 5.73764 -88.04509 8.21973 -87.74821 9.74864 -87.49216 C 11.27754 -87.23608 13.71507 -86.71042 15.20906 -86.31042 C 16.70305 -85.91043 19.0717 -85.14844 20.51628 -84.60925 C 21.96086 -84.07007 24.2396 -83.09448 25.62068 -82.42427 C 27.00175 -81.75406 29.16635 -80.57307 30.47023 -79.77882 C 31.77411 -78.98456 33.8035 -77.60867 35.01817 -76.69981 C 36.23286 -75.79094 38.11003 -74.24046 39.22485 -73.22829 C 40.33968 -72.21611 42.04823 -70.5091 43.05312 -69.4047 C 44.058 -68.30031 45.58055 -66.45207 46.4674 -65.26857 C 47.35426 -64.08508 48.68266 -62.12363 49.44496 -60.87488 C 50.20726 -59.62611 51.32928 -57.56873 51.96161 -56.26839 C 52.59395 -54.96803 53.50261 -52.83969 54.00238 -51.50285 C 54.50214 -50.166 55.19858 -47.99234 55.56363 -46.63324 C 55.9287 -45.27415 56.40308 -43.07388 56.63353 -41.70749 C 56.864 -40.34108 57.12614 -38.14397 57.22472 -36.78508 C 57.3233 -35.42621 57.375 -33.25171 57.34409 -31.91356 C 57.31319 -30.57542 57.1571 -28.44458 57.00195 -27.14066 C 56.8468 -25.83675 56.49783 -23.77248 56.2258 -22.51581 C 55.95378 -21.25914 55.42305 -19.28146 55.04134 -18.08336 C 54.65964 -16.88524 53.95694 -15.00981 53.47472 -13.8806 C 52.9925 -12.75139 52.13844 -10.99605 51.56575 -9.94469 C 50.99307 -8.89331 49.99957 -7.26894 49.34708 -6.30302 C 48.69458 -5.3371 47.58273 -3.85689 46.86296 -2.98302 C 46.14319 -2.10915 44.15938 -.0047 44.15938 -.0047 "/>
</g>
<path transform="matrix(1,0,0,-1,110.159,121.98601)" stroke-width="1" stroke-linecap="butt" stroke-miterlimit="10" stroke-linejoin="miter" fill="none" stroke="#bfbfbf" d="M 0 0 L 97.1357 0 M 0 0 L 84.12222 48.56784 M 0 0 L 48.56784 84.12222 M 0 0 L 0 97.1357 M 0 0 L -48.56784 84.12222 M 0 0 L -84.12222 48.56784 M 0 0 L -97.1357 0 M 0 0 L -84.12222 -48.56784 M 0 0 L -48.56784 -84.12222 M 0 0 L 0 -97.1357 M 0 0 L 48.56784 -84.12222 M 0 0 L 84.12222 -48.56784 "/>
<path transform="matrix(1,0,0,-1,110.159,121.98601)" stroke-width="1" stroke-linecap="butt" stroke-miterlimit="10" stroke-linejoin="miter" fill="none" stroke="#bfbfbf" d="M 22.07782 0 C 22.07782 12.19339 12.19339 22.07782 0 22.07782 C -12.19339 22.07782 -22.07782 12.19339 -22.07782 0 C -22.07782 -12.19339 -12.19339 -22.07782 0 -22.07782 C 12.19339 -22.07782 22.07782 -12.19339 22.07782 0 M 44.15565 0 C 44.15565 24.3868 24.3868 44.15565 0 44.15565 C -24.3868 44.15565 -44.15565 24.3868 -44.15565 0 C -44.15565 -24.3868 -24.3868 -44.15565 0 -44.15565 C 24.3868 -44.15565 44.15565 -24.3868 44.15565 0 M 66.23349 0 C 66.23349 36.58022 36.58022 66.23349 0 66.23349 C -36.58022 66.23349 -66.23349 36.58022 -66.23349 0 C -66.23349 -36.58022 -36.58022 -66.23349 0 -66.23349 C 36.58022 -66.23349 66.23349 -36.58022 66.23349 0 M 88.31133 0 C 88.31133 48.7736 48.7736 88.31133 0 88.31133 C -48.7736 88.31133 -88.31133 48.7736 -88.31133 0 C -88.31133 -48.7736 -48.7736 -88.31133 0 -88.31133 C 48.7736 -88.31133 88.31133 -48.7736 88.31133 0 "/>
<path transform="matrix(1,0,0,-1,110.159,121.98601)" stroke-width="1" stroke-linecap="butt" stroke-miterlimit="10" stroke-linejoin="miter" fill="none" stroke="#808080" d="M 97.1357 0 L 101.38753 0 M 84.12222 48.56784 L 87.80443 50.69376 M 48.56784 84.12222 L 50.69376 87.80443 M 0 97.1357 L 0 101.38753 M -48.56784 84.12222 L -50.69376 87.80443 M -84.12222 48.56784 L -87.80443 50.69376 M -97.1357 0 L -101.38753 0 M -84.12222 -48.56784 L -87.80443 -50.69376 M -48.56784 -84.12222 L -50.69376 -87.80443 M 0 -97.1357 L 0 -101.38753 M 48.56784 -84.12222 L 50.69376 -87.80443 M 84.12222 -48.56784 L 87.80443 -50.69376 "/>
<path transform="matrix(1,0,0,-1,110.159,121.98601)" stroke-width="1" stroke-linecap="butt" stroke-miterlimit="10" stroke-linejoin="miter" fill="none" stroke="#808080" d="M 22.07782 0 L 22.07782 4.25183 M 44.15565 0 L 44.15565 4.25183 M 66.23349 0 L 66.23349 4.25183 M 88.31133 0 L 88.31133 4.25183 "/>
<path transform="matrix(1,0,0,-1,110.159,121.98601)" stroke-width="1" stroke-linecap="butt" stroke-miterlimit="10" stroke-linejoin="miter" fill="none" stroke="#000000" d="M 0 0 L 0 0 "/>
<path transform="matrix(1,0,0,-1,110.159,121.98601)" stroke-width="1" stroke-linecap="butt" stroke-miterlimit="10" stroke-linejoin="miter" fill="none" stroke="#000000" d="M 97.1357 0 C 97.1357 53.64725 53.64725 97.1357 0 97.1357 C -53.64725 97.1357 -97.1357 53.64725 -97.1357 0 C -97.1357 -53.64725 -53.64725 -97.1357 0 -97.1357 C 53.64725 -97.1357 97.1357 -53.64725 97.1357 0 "/>
<path transform="matrix(1,0,0,-1,110.159,121.98601)" stroke-width="1" stroke-linecap="butt" stroke-miterlimit="10" stroke-linejoin="miter" fill="none" stroke="#000000" d="M 0 0 L 97.1357 0 "/>
<path transform="matrix(1,0,0,-1,110.159,121.98601)" stroke-width="1" stroke-linecap="butt" stroke-miterlimit="10" stroke-linejoin="miter" fill="none" stroke="#000000" d="M 0 0 L 97.1357 0 "/>
<symbol id="font_1_1">
<path d="M .421 .34200005 C .421 .42200003 .416 .50200006 .381 .57600006 C .335 .67200008 .25300003 .688 .211 .688 C .15100001 .688 .07800001 .66200008 .037000006 .56900009 C .0050000029 .5 0 .42200003 0 .34200005 C 0 .26700003 .0040000008 .177 .045000007 .101 C .088 .020000002 .161 0 .21000001 0 C .264 0 .34 .021000002 .384 .116000007 C .416 .185 .421 .263 .421 .34200005 M .21000001 .022000002 C .171 .022000002 .112 .047000003 .094 .143 C .083000008 .20300001 .083000008 .29500003 .083000008 .35400004 C .083000008 .41800005 .083000008 .48400004 .091000009 .53800007 C .11 .65700009 .185 .66600009 .21000001 .66600009 C .243 .66600009 .30900003 .64800009 .328 .549 C .338 .49300004 .338 .41700004 .338 .35400004 C .338 .279 .338 .21100001 .32700003 .147 C .312 .052 .255 .022000002 .21000001 .022000002 Z "/>
</symbol>
<use xlink:href="#font_1_1" transform="matrix(9.9626,0,0,-9.9626,211.27553,125.415187)"/>
<symbol id="font_2_1">
<path d="M .23800002 .38400004 L .351 .38400004 C .31800003 .23600002 .30900003 .19300002 .30900003 .126 C .30900003 .111 .30900003 .08400001 .317 .05 C .327 .0060000007 .338 0 .35300002 0 C .373 0 .39400003 .018000002 .39400003 .038000004 C .39400003 .044 .39400003 .046 .388 .060000004 C .359 .13200002 .359 .19700001 .359 .22500003 C .359 .27800004 .366 .33200003 .377 .38400004 L .491 .38400004 C .504 .38400004 .54 .38400004 .54 .418 C .54 .44200004 .519 .44200004 .5 .44200004 L .165 .44200004 C .143 .44200004 .105 .44200004 .061000006 .395 C .026000003 .35600005 0 .31000004 0 .305 C 0 .30400003 0 .29500003 .012 .29500003 C .020000002 .29500003 .022000002 .29900003 .028000003 .307 C .077 .38400004 .135 .38400004 .15500002 .38400004 L .21200001 .38400004 C .18000002 .263 .12600002 .14200002 .08400001 .051000004 C .076000008 .036000004 .076000008 .034 .076000008 .027000003 C .076000008 .008000001 .092 0 .105 0 C .135 0 .143 .028 .15500002 .065000008 C .16900002 .111 .16900002 .113000009 .18200001 .16300002 L .23800002 .38400004 Z "/>
</symbol>
<use xlink:href="#font_2_1" transform="matrix(9.9626,0,0,-9.9626,202.80899,62.374589)"/>
<path transform="matrix(1,0,0,-1,202.54,66.51401)" stroke-width="1" stroke-linecap="butt" stroke-miterlimit="10" stroke-linejoin="miter" fill="none" stroke="#000000" d="M 0 0 L 6.036 0 "/>
<symbol id="font_1_7">
<path d="M .089999999 .35000003 L .089999999 .37400005 C .089999999 .62700006 .21400002 .66300007 .26500003 .66300007 C .28900004 .66300007 .33100004 .65700009 .35300002 .623 C .33800004 .623 .298 .623 .298 .57800009 C .298 .54700008 .32200004 .53200009 .344 .53200009 C .36 .53200009 .39000003 .54100009 .39000003 .58000007 C .39000003 .64000007 .34600003 .688 .263 .688 C .13499999 .688 0 .559 0 .33800004 C 0 .071 .116000007 0 .20900002 0 C .32000003 0 .41500003 .094000007 .41500003 .22600001 C .41500003 .35300005 .32600004 .44900004 .215 .44900004 C .14700002 .44900004 .11000001 .39800004 .089999999 .35000003 M .20900002 .028 C .146 .028 .116000007 .088 .11000001 .103 C .092 .15 .092 .23 .092 .24800001 C .092 .32600004 .124000009 .42600004 .21400002 .42600004 C .23000002 .42600004 .27600003 .42600004 .307 .36400003 C .32500003 .32700003 .32500003 .27600003 .32500003 .22700002 C .32500003 .179 .32500003 .12900001 .30800004 .093 C .27800004 .033000005 .23200003 .028 .20900002 .028 Z "/>
</symbol>
<use xlink:href="#font_1_7" transform="matrix(9.9626,0,0,-9.9626,203.48642,76.057178)"/>
<use xlink:href="#font_2_1" transform="matrix(9.9626,0,0,-9.9626,163.35199,20.558609)"/>
<path transform="matrix(1,0,0,-1,163.083,24.698014)" stroke-width="1" stroke-linecap="butt" stroke-miterlimit="10" stroke-linejoin="miter" fill="none" stroke="#000000" d="M 0 0 L 6.036 0 "/>
<symbol id="font_1_4">
<path d="M .24800003 .37400005 C .33 .40100003 .388 .47100006 .388 .55 C .388 .632 .3 .688 .204 .688 C .10300001 .688 .027000003 .628 .027000003 .55200007 C .027000003 .519 .049000004 .5 .078 .5 C .109000008 .5 .12900001 .522 .12900001 .55100008 C .12900001 .6010001 .082 .6010001 .067 .6010001 C .098 .65000006 .164 .66300007 .20000002 .66300007 C .24100003 .66300007 .29600004 .64100006 .29600004 .55100008 C .29600004 .53900006 .29400004 .48100005 .268 .43700005 C .238 .38900004 .204 .38600005 .17900002 .38500003 C .171 .38400004 .14700002 .38200004 .14000002 .38200004 C .132 .38100005 .125 .38000003 .125 .37000004 C .125 .35900004 .132 .35900004 .14900002 .35900004 L .19300002 .35900004 C .275 .35900004 .312 .29100005 .312 .193 C .312 .057000005 .24300003 .028 .199 .028 C .15600002 .028 .081 .045 .046000005 .104 C .081 .09900001 .11200001 .12100001 .11200001 .15900001 C .11200001 .19500001 .085 .215 .056 .215 C .031999999 .215 0 .201 0 .157 C 0 .06600001 .093 0 .20200002 0 C .32400004 0 .41500003 .091000009 .41500003 .193 C .41500003 .27500005 .35200004 .35300005 .24800003 .37400005 Z "/>
</symbol>
<use xlink:href="#font_1_4" transform="matrix(9.9626,0,0,-9.9626,164.02843,34.241197)"/>
<use xlink:href="#font_2_1" transform="matrix(9.9626,0,0,-9.9626,107.40999,7.7935945)"/>
<path transform="matrix(1,0,0,-1,107.141,11.932999)" stroke-width="1" stroke-linecap="butt" stroke-miterlimit="10" stroke-linejoin="miter" fill="none" stroke="#000000" d="M 0 0 L 6.036 0 "/>
<symbol id="font_1_3">
<path d="M .07700001 .07700001 L .18300002 .18 C .33900003 .31800003 .39900003 .372 .39900003 .47200004 C .39900003 .586 .30900003 .666 .18700002 .666 C .074 .666 0 .574 0 .485 C 0 .42900003 .05 .42900003 .053000008 .42900003 C .07000001 .42900003 .105000007 .441 .105000007 .48200003 C .105000007 .508 .08700001 .53400006 .052000006 .53400006 C .044000005 .53400006 .042000008 .53400006 .039 .53300008 C .062000004 .59800007 .11600001 .63500007 .17400001 .63500007 C .26500003 .63500007 .308 .554 .308 .47200004 C .308 .39200003 .25800003 .31300003 .20300003 .25100003 L .011000004 .037 C 0 .026 0 .024 0 0 L .37100003 0 L .39900003 .17400001 L .374 .17400001 C .36900003 .14400001 .36200003 .1 .352 .085 C .345 .07700001 .279 .07700001 .257 .07700001 L .07700001 .07700001 Z "/>
</symbol>
<use xlink:href="#font_1_3" transform="matrix(9.9626,0,0,-9.9626,108.16613,21.25801)"/>
<use xlink:href="#font_1_3" transform="matrix(9.9626,0,0,-9.9626,48.122129,19.637009)"/>
<use xlink:href="#font_2_1" transform="matrix(9.9626,0,0,-9.9626,52.873987,19.746598)"/>
<path transform="matrix(1,0,0,-1,47.623998,23.886002)" stroke-width="1" stroke-linecap="butt" stroke-miterlimit="10" stroke-linejoin="miter" fill="none" stroke="#000000" d="M 0 0 L 11.018 0 "/>
<use xlink:href="#font_1_4" transform="matrix(9.9626,0,0,-9.9626,51.060426,33.429185)"/>
<symbol id="font_1_6">
<path d="M .39900003 .223 C .39900003 .34200005 .317 .44200004 .209 .44200004 C .16100002 .44200004 .118000019 .42600004 .082 .39100004 L .082 .586 C .10200001 .58000007 .135 .573 .16700001 .573 C .29 .573 .36 .66400006 .36 .67700007 C .36 .683 .357 .688 .35 .688 C .349 .688 .347 .688 .342 .68500009 C .322 .67600008 .273 .656 .20600002 .656 C .16600001 .656 .120000008 .66300007 .073 .6840001 C .065 .68700006 .06300001 .68700006 .061000009 .68700006 C .051000004 .68700006 .051000004 .679 .051000004 .66300007 L .051000004 .36700005 C .051000004 .34900005 .051000004 .34100003 .065 .34100003 C .07200001 .34100003 .074 .34400005 .07800001 .35000003 C .08900002 .36600004 .12600002 .42000006 .207 .42000006 C .259 .42000006 .284 .37400005 .292 .35600005 C .308 .31900005 .31 .28000004 .31 .23 C .31 .19500001 .31 .135 .286 .093 C .262 .054000006 .22500001 .028 .17900002 .028 C .106000009 .028 .049000008 .08100001 .032 .14000002 C .035 .13900002 .038000008 .13800001 .049000008 .13800001 C .082 .13800001 .09900001 .163 .09900001 .187 C .09900001 .21100001 .082 .23600002 .049000008 .23600002 C .035 .23600002 0 .22900002 0 .18300002 C 0 .097 .069000009 0 .18100001 0 C .297 0 .39900003 .096 .39900003 .223 Z "/>
</symbol>
<use xlink:href="#font_1_6" transform="matrix(9.9626,0,0,-9.9626,7.4191286,62.204179)"/>
<use xlink:href="#font_2_1" transform="matrix(9.9626,0,0,-9.9626,12.170989,62.09459)"/>
<path transform="matrix(1,0,0,-1,6.9209988,66.235)" stroke-width="1" stroke-linecap="butt" stroke-miterlimit="10" stroke-linejoin="miter" fill="none" stroke="#000000" d="M 0 0 L 11.018 0 "/>
<use xlink:href="#font_1_7" transform="matrix(9.9626,0,0,-9.9626,10.357429,75.77818)"/>
<use xlink:href="#font_2_1" transform="matrix(9.9626,0,0,-9.9626,3.6629875,124.23959)"/>
<symbol id="font_1_8">
<path d="M .42000003 .63100007 C .42900003 .64300009 .42900003 .64500007 .42900003 .66600009 L .18600002 .66600009 C .064 .66600009 .062000008 .679 .058000007 .6980001 L .033 .6980001 L 0 .49200005 L .024999999 .49200005 C .028000005 .508 .037 .57100006 .050000006 .58300009 C .057000005 .58900007 .13500002 .58900007 .148 .58900007 L .35500003 .58900007 C .344 .573 .26500003 .46400006 .24300003 .43100003 C .153 .29600004 .12000001 .157 .12000001 .055 C .12000001 .045 .12000001 0 .16600001 0 C .21200001 0 .21200001 .045 .21200001 .055 L .21200001 .106000009 C .21200001 .16100002 .21500004 .216 .22300002 .27 C .22700003 .29300005 .24100003 .37900005 .28500004 .44100005 L .42000003 .63100007 Z "/>
</symbol>
<use xlink:href="#font_1_8" transform="matrix(9.9626,0,0,-9.9626,7.4789044,175.05219)"/>
<use xlink:href="#font_2_1" transform="matrix(9.9626,0,0,-9.9626,12.170989,174.9426)"/>
<path transform="matrix(1,0,0,-1,6.9209988,179.082)" stroke-width="1" stroke-linecap="butt" stroke-miterlimit="10" stroke-linejoin="miter" fill="none" stroke="#000000" d="M 0 0 L 11.018 0 "/>
<use xlink:href="#font_1_7" transform="matrix(9.9626,0,0,-9.9626,10.357429,188.62519)"/>
<symbol id="font_1_5">
<path d="M .266 .165 L .266 .078 C .266 .042000005 .26400004 .031000002 .19000001 .031000002 L .16900002 .031000002 L .16900002 0 C .21000001 .003 .26200003 .003 .30400003 .003 C .34600003 .003 .39900003 .003 .44000004 0 L .44000004 .031000002 L .41900004 .031000002 C .34500004 .031000002 .34300003 .042000005 .34300003 .078 L .34300003 .165 L .44300003 .165 L .44300003 .19600001 L .34300003 .19600001 L .34300003 .651 C .34300003 .671 .34300003 .67700007 .32700003 .67700007 C .31800003 .67700007 .31500004 .67700007 .307 .665 L 0 .19600001 L 0 .165 L .266 .165 M .272 .19600001 L .028 .19600001 L .272 .569 L .272 .19600001 Z "/>
</symbol>
<use xlink:href="#font_1_5" transform="matrix(9.9626,0,0,-9.9626,47.90295,217.182)"/>
<use xlink:href="#font_2_1" transform="matrix(9.9626,0,0,-9.9626,52.873987,217.2916)"/>
<path transform="matrix(1,0,0,-1,47.623998,221.431)" stroke-width="1" stroke-linecap="butt" stroke-miterlimit="10" stroke-linejoin="miter" fill="none" stroke="#000000" d="M 0 0 L 11.018 0 "/>
<use xlink:href="#font_1_4" transform="matrix(9.9626,0,0,-9.9626,51.060426,230.97418)"/>
<use xlink:href="#font_1_4" transform="matrix(9.9626,0,0,-9.9626,105.06842,229.35318)"/>
<use xlink:href="#font_2_1" transform="matrix(9.9626,0,0,-9.9626,109.89999,229.24359)"/>
<path transform="matrix(1,0,0,-1,104.649997,233.38301)" stroke-width="1" stroke-linecap="butt" stroke-miterlimit="10" stroke-linejoin="miter" fill="none" stroke="#000000" d="M 0 0 L 11.018 0 "/>
<use xlink:href="#font_1_3" transform="matrix(9.9626,0,0,-9.9626,108.16612,242.70801)"/>
<use xlink:href="#font_1_6" transform="matrix(9.9626,0,0,-9.9626,162.17412,217.40119)"/>
<use xlink:href="#font_2_1" transform="matrix(9.9626,0,0,-9.9626,166.926,217.2916)"/>
<path transform="matrix(1,0,0,-1,161.676,221.431)" stroke-width="1" stroke-linecap="butt" stroke-miterlimit="10" stroke-linejoin="miter" fill="none" stroke="#000000" d="M 0 0 L 11.018 0 "/>
<use xlink:href="#font_1_4" transform="matrix(9.9626,0,0,-9.9626,165.11243,230.97418)"/>
<symbol id="font_1_2">
<path d="M .205 .64000007 C .205 .66400006 .205 .666 .18200003 .666 C .120000008 .60200008 .032000007 .60200008 0 .60200008 L 0 .57100006 C .020000004 .57100006 .07900001 .57100006 .13100001 .597 L .13100001 .079 C .13100001 .043 .128 .031000002 .038000004 .031000002 L .0060000049 .031000002 L .0060000049 0 C .04100001 .003 .128 .003 .168 .003 C .20800002 .003 .29500003 .003 .33000005 0 L .33000005 .031000002 L .29800005 .031000002 C .20800002 .031000002 .205 .042000005 .205 .079 L .205 .64000007 Z "/>
</symbol>
<use xlink:href="#font_1_2" transform="matrix(9.9626,0,0,-9.9626,202.64267,175.91101)"/>
<use xlink:href="#font_1_2" transform="matrix(9.9626,0,0,-9.9626,207.62397,175.91101)"/>
<use xlink:href="#font_2_1" transform="matrix(9.9626,0,0,-9.9626,211.98799,176.0206)"/>
<path transform="matrix(1,0,0,-1,201.756,180.16)" stroke-width="1" stroke-linecap="butt" stroke-miterlimit="10" stroke-linejoin="miter" fill="none" stroke="#000000" d="M 0 0 L 15.999 0 "/>
<use xlink:href="#font_1_7" transform="matrix(9.9626,0,0,-9.9626,207.68343,189.70418)"/>
</svg>
