<?xml version="1.0" encoding="UTF-8" standalone="no"?>
<!DOCTYPE svg PUBLIC "-//W3C//DTD SVG 1.1//EN" "http://www.w3.org/Graphics/SVG/1.1/DTD/svg11.dtd">
<svg xmlns="http://www.w3.org/2000/svg" xmlns:xlink="http://www.w3.org/1999/xlink" version="1.1" width="239.375pt" height="191.179pt" viewBox="0 0 239.375 191.179">
<clipPath id="cp0">
<path transform="matrix(1,0,0,-1,32.568,174.464)" d="M 0 0 L 194.27437 0 L 194.27437 161.39865 L 0 161.39865 Z "/>
</clipPath>
<g clip-path="url(#cp0)">
<path transform="matrix(1,0,0,-1,32.568,174.464)" d="M 0 134.4995 C 0 134.4995 4.59102 134.4995 6.35432 134.4995 C 8.11763 134.4995 10.94539 134.4995 12.7087 134.4995 C 14.472 134.4995 17.29974 134.4995 19.06305 134.4995 C 20.82635 134.4995 23.65408 134.4995 25.41739 134.4995 C 27.18071 134.4995 30.00844 134.4995 31.77174 134.4995 C 33.53505 134.4995 36.36281 134.4995 38.12611 134.4995 C 39.88942 134.4995 42.71718 134.4995 44.48047 134.4995 C 46.24376 134.4995 49.07149 134.4995 50.8348 134.4995 C 52.59811 134.4995 55.42586 134.4995 57.18916 134.4995 C 58.95247 134.4995 61.78021 134.4995 63.54352 134.4995 C 65.30682 134.4995 68.13457 134.4995 69.89787 134.4995 C 71.66118 134.4995 74.48892 134.4995 76.25223 134.4995 C 78.01555 134.4995 80.84328 134.4995 82.60658 134.4995 C 84.36989 134.4995 87.19765 134.4995 88.96094 134.4995 C 90.72423 134.4995 93.55197 134.4995 95.31528 134.4995 C 97.07858 134.4995 99.90633 134.4995 101.66963 134.4995 C 103.43295 134.4995 106.26068 134.4995 108.02399 134.4995 C 109.7873 134.4995 112.61504 134.4995 114.37834 134.4995 C 116.14165 134.4995 118.96938 134.4995 120.7327 134.4995 C 122.496 134.4995 125.32373 134.4995 127.08704 134.4995 C 128.85036 134.4995 131.6781 134.4995 133.44139 134.4995 C 135.20468 134.4995 138.03244 134.4995 139.79573 134.4995 C 141.55902 134.4995 144.38677 134.4995 146.15009 134.4995 C 147.91339 134.4995 152.50443 134.4995 152.50443 134.4995 L 152.50443 0 L 0 0 Z " fill="#e6cccc"/>
<path transform="matrix(1,0,0,-1,32.568,174.464)" stroke-width="1" stroke-linecap="butt" stroke-miterlimit="10" stroke-linejoin="miter" fill="none" stroke="#000000" d="M 0 134.4995 C 0 134.4995 4.59102 134.4995 6.35432 134.4995 C 8.11763 134.4995 10.94539 134.4995 12.7087 134.4995 C 14.472 134.4995 17.29974 134.4995 19.06305 134.4995 C 20.82635 134.4995 23.65408 134.4995 25.41739 134.4995 C 27.18071 134.4995 30.00844 134.4995 31.77174 134.4995 C 33.53505 134.4995 36.36281 134.4995 38.12611 134.4995 C 39.88942 134.4995 42.71718 134.4995 44.48047 134.4995 C 46.24376 134.4995 49.07149 134.4995 50.8348 134.4995 C 52.59811 134.4995 55.42586 134.4995 57.18916 134.4995 C 58.95247 134.4995 61.78021 134.4995 63.54352 134.4995 C 65.30682 134.4995 68.13457 134.4995 69.89787 134.4995 C 71.66118 134.4995 74.48892 134.4995 76.25223 134.4995 C 78.01555 134.4995 80.84328 134.4995 82.60658 134.4995 C 84.36989 134.4995 87.19765 134.4995 88.96094 134.4995 C 90.72423 134.4995 93.55197 134.4995 95.31528 134.4995 C 97.07858 134.4995 99.90633 134.4995 101.66963 134.4995 C 103.43295 134.4995 106.26068 134.4995 108.02399 134.4995 C 109.7873 134.4995 112.61504 134.4995 114.37834 134.4995 C 116.14165 134.4995 118.96938 134.4995 120.7327 134.4995 C 122.496 134.4995 125.32373 134.4995 127.08704 134.4995 C 128.85036 134.4995 131.6781 134.4995 133.44139 134.4995 C 135.20468 134.4995 138.03244 134.4995 139.79573 134.4995 C 141.55902 134.4995 144.38677 134.4995 146.15009 134.4995 C 147.91339 134.4995 152.50443 134.4995 152.50443 134.4995 L 152.50443 0 L 0 0 Z "/>
<path transform="matrix(1,0,0,-1,32.568,174.464)" d="M 0 122.04483 C 0 122.04483 3.80147 122.04483 5.26154 122.04483 C 6.72159 122.04483 9.06305 122.04483 10.5231 122.04483 C 11.98317 122.04483 14.32458 122.04483 15.78465 122.04483 C 17.2447 122.04483 19.58615 122.04483 21.0462 122.04483 C 22.50626 122.04483 24.8477 122.04483 26.30775 122.04483 C 27.76782 122.04483 30.10925 122.04483 31.56932 122.04483 C 33.02937 122.04483 35.37082 122.04483 36.83087 122.04483 C 38.29094 122.04483 40.63235 122.04483 42.09242 122.04483 C 43.55247 122.04483 45.89394 122.04483 47.35399 122.04483 C 48.81404 122.04483 51.15549 122.04483 52.61554 122.04483 C 54.0756 122.04483 56.41702 122.04483 57.87709 122.04483 C 59.33714 122.04483 61.6786 122.04483 63.13866 122.04483 C 64.59872 122.04483 66.94014 122.04483 68.40019 122.04483 C 69.86026 122.04483 72.20169 122.04483 73.66176 122.04483 C 75.12181 122.04483 77.46326 122.04483 78.92331 122.04483 C 80.38338 122.04483 82.72481 122.04483 84.18488 122.04483 C 85.64493 122.04483 87.98637 122.04483 89.44643 122.04483 C 90.90648 122.04483 93.24791 122.04483 94.70796 122.04483 C 96.16803 122.04483 98.50948 122.04483 99.96954 122.04483 C 101.4296 122.04483 103.77104 122.04483 105.2311 122.04483 C 106.69116 122.04483 109.03258 122.04483 110.49265 122.04483 C 111.9527 122.04483 114.29414 122.04483 115.7542 122.04483 C 117.21425 122.04483 119.5557 122.04483 121.01575 122.04483 C 122.47581 122.04483 126.2773 122.04483 126.2773 122.04483 L 126.2773 0 L 0 0 Z " fill="#cccce6"/>
<path transform="matrix(1,0,0,-1,32.568,174.464)" stroke-width="1" stroke-linecap="butt" stroke-dasharray="2.98883,2.98883" stroke-miterlimit="10" stroke-linejoin="miter" fill="none" stroke="#000000" d="M 0 122.04483 C 0 122.04483 3.80147 122.04483 5.26154 122.04483 C 6.72159 122.04483 9.06305 122.04483 10.5231 122.04483 C 11.98317 122.04483 14.32458 122.04483 15.78465 122.04483 C 17.2447 122.04483 19.58615 122.04483 21.0462 122.04483 C 22.50626 122.04483 24.8477 122.04483 26.30775 122.04483 C 27.76782 122.04483 30.10925 122.04483 31.56932 122.04483 C 33.02937 122.04483 35.37082 122.04483 36.83087 122.04483 C 38.29094 122.04483 40.63235 122.04483 42.09242 122.04483 C 43.55247 122.04483 45.89394 122.04483 47.35399 122.04483 C 48.81404 122.04483 51.15549 122.04483 52.61554 122.04483 C 54.0756 122.04483 56.41702 122.04483 57.87709 122.04483 C 59.33714 122.04483 61.6786 122.04483 63.13866 122.04483 C 64.59872 122.04483 66.94014 122.04483 68.40019 122.04483 C 69.86026 122.04483 72.20169 122.04483 73.66176 122.04483 C 75.12181 122.04483 77.46326 122.04483 78.92331 122.04483 C 80.38338 122.04483 82.72481 122.04483 84.18488 122.04483 C 85.64493 122.04483 87.98637 122.04483 89.44643 122.04483 C 90.90648 122.04483 93.24791 122.04483 94.70796 122.04483 C 96.16803 122.04483 98.50948 122.04483 99.96954 122.04483 C 101.4296 122.04483 103.77104 122.04483 105.2311 122.04483 C 106.69116 122.04483 109.03258 122.04483 110.49265 122.04483 C 111.9527 122.04483 114.29414 122.04483 115.7542 122.04483 C 117.21425 122.04483 119.5557 122.04483 121.01575 122.04483 C 122.47581 122.04483 126.2773 122.04483 126.2773 122.04483 L 126.2773 0 L 0 0 Z "/>
<path transform="matrix(1,0,0,-1,32.568,174.464)" d="M 0 88.31236 L 2.83316 88.31236 L 5.66634 88.31236 L 8.49951 88.31236 L 11.33269 88.31236 L 14.16585 88.31236 L 16.99902 88.31236 L 19.83218 88.31236 L 22.66537 88.31236 L 25.49855 88.31236 L 28.33173 88.31236 L 31.16489 88.31236 L 33.99806 88.31236 L 36.83124 88.31236 L 39.66441 88.31236 L 42.49757 88.31236 L 45.33075 88.31236 L 48.16394 88.31236 L 50.99712 88.31236 L 53.83028 88.31236 L 56.66345 88.31236 L 59.49661 88.31236 L 62.3298 88.31236 L 65.16296 88.31236 L 67.99614 88.31236 L 67.99614 0 L 0 0 Z " fill="#e6cccc"/>
<path transform="matrix(1,0,0,-1,32.568,174.464)" stroke-width="1" stroke-linecap="butt" stroke-dasharray="2.98883,2.98883" stroke-miterlimit="10" stroke-linejoin="miter" fill="none" stroke="#000000" d="M 0 88.31236 L 2.83316 88.31236 L 5.66634 88.31236 L 8.49951 88.31236 L 11.33269 88.31236 L 14.16585 88.31236 L 16.99902 88.31236 L 19.83218 88.31236 L 22.66537 88.31236 L 25.49855 88.31236 L 28.33173 88.31236 L 31.16489 88.31236 L 33.99806 88.31236 L 36.83124 88.31236 L 39.66441 88.31236 L 42.49757 88.31236 L 45.33075 88.31236 L 48.16394 88.31236 L 50.99712 88.31236 L 53.83028 88.31236 L 56.66345 88.31236 L 59.49661 88.31236 L 62.3298 88.31236 L 65.16296 88.31236 L 67.99614 88.31236 L 67.99614 0 L 0 0 Z "/>
<path transform="matrix(1,0,0,-1,32.568,174.464)" stroke-width="1.19553" stroke-linecap="butt" stroke-miterlimit="10" stroke-linejoin="miter" fill="none" stroke="#000000" d="M 0 107.5996 C 0 107.5996 2.92421 107.5996 4.04732 107.5996 C 5.17043 107.5996 6.97156 107.5996 8.09467 107.5996 C 9.21777 107.5996 11.01889 107.5996 12.142 107.5996 C 13.2651 107.5996 15.06622 107.5996 16.18933 107.5996 C 17.31242 107.5996 19.11354 107.5996 20.23665 107.5996 C 21.35976 107.5996 23.16089 107.5996 24.284 107.5996 C 25.4071 107.5996 27.20822 107.5996 28.33133 107.5996 C 29.45444 107.5996 31.25555 107.5996 32.37866 107.5996 C 33.50177 107.5996 35.30287 107.5996 36.426 107.5996 C 37.54912 107.5996 39.35023 107.5996 40.47334 107.5996 C 41.59645 107.5996 43.39757 107.5996 44.52068 107.5996 C 45.64378 107.5996 47.44492 107.5996 48.56802 107.5996 C 49.69113 107.5996 51.49223 107.5996 52.61534 107.5996 C 53.73845 107.5996 55.53957 107.5996 56.66267 107.5996 C 57.78578 107.5996 59.5869 107.5996 60.71 107.5996 C 61.83311 107.5996 63.63425 107.5996 64.75735 107.5996 C 65.88046 107.5996 67.68156 107.5996 68.80467 107.5996 C 69.92778 107.5996 71.72888 107.5996 72.852 107.5996 C 73.97513 107.5996 75.77625 107.5996 76.89937 107.5996 C 78.02249 107.5996 79.8236 107.5996 80.9467 107.5996 C 82.06981 107.5996 83.87093 107.5996 84.99402 107.5996 C 86.11713 107.5996 87.91826 107.5996 89.04137 107.5996 C 90.16447 107.5996 91.96559 107.5996 93.0887 107.5996 C 94.2118 107.5996 97.13603 107.5996 97.13603 107.5996 "/>
<path transform="matrix(1,0,0,-1,32.568,174.464)" d="M 0 80.69969 C 0 80.69969 1.77502 80.69969 2.45676 80.69969 C 3.13849 80.69969 4.23178 80.69969 4.91351 80.69969 C 5.59525 80.69969 6.68854 80.69969 7.37027 80.69969 C 8.052 80.69969 9.14531 80.69969 9.82704 80.69969 C 10.50877 80.69969 11.60208 80.69969 12.28381 80.69969 C 12.96555 80.69969 14.05884 80.69969 14.74057 80.69969 C 15.4223 80.69969 16.51561 80.69969 17.19734 80.69969 C 17.87907 80.69969 18.97237 80.69969 19.6541 80.69969 C 20.33583 80.69969 21.42914 80.69969 22.11087 80.69969 C 22.7926 80.69969 23.88591 80.69969 24.56764 80.69969 C 25.24937 80.69969 26.34267 80.69969 27.0244 80.69969 C 27.70613 80.69969 28.79942 80.69969 29.48116 80.69969 C 30.16289 80.69969 31.2562 80.69969 31.93794 80.69969 C 32.61967 80.69969 33.71297 80.69969 34.3947 80.69969 C 35.07643 80.69969 36.16972 80.69969 36.85146 80.69969 C 37.53319 80.69969 38.62648 80.69969 39.30821 80.69969 C 39.98994 80.69969 41.08327 80.69969 41.765 80.69969 C 42.44673 80.69969 43.54002 80.69969 44.22176 80.69969 C 44.90349 80.69969 45.99678 80.69969 46.67851 80.69969 C 47.36024 80.69969 48.45355 80.69969 49.13528 80.69969 C 49.81702 80.69969 50.91031 80.69969 51.59204 80.69969 C 52.27377 80.69969 53.36708 80.69969 54.04881 80.69969 C 54.73055 80.69969 55.82385 80.69969 56.50558 80.69969 C 57.18732 80.69969 58.96234 80.69969 58.96234 80.69969 L 58.96234 0 L 0 0 Z " fill="#ffffff"/>
<path transform="matrix(1,0,0,-1,32.568,174.464)" stroke-width="1" stroke-linecap="butt" stroke-miterlimit="10" stroke-linejoin="miter" fill="none" stroke="#000000" d="M 0 80.69969 C 0 80.69969 1.77502 80.69969 2.45676 80.69969 C 3.13849 80.69969 4.23178 80.69969 4.91351 80.69969 C 5.59525 80.69969 6.68854 80.69969 7.37027 80.69969 C 8.052 80.69969 9.14531 80.69969 9.82704 80.69969 C 10.50877 80.69969 11.60208 80.69969 12.28381 80.69969 C 12.96555 80.69969 14.05884 80.69969 14.74057 80.69969 C 15.4223 80.69969 16.51561 80.69969 17.19734 80.69969 C 17.87907 80.69969 18.97237 80.69969 19.6541 80.69969 C 20.33583 80.69969 21.42914 80.69969 22.11087 80.69969 C 22.7926 80.69969 23.88591 80.69969 24.56764 80.69969 C 25.24937 80.69969 26.34267 80.69969 27.0244 80.69969 C 27.70613 80.69969 28.79942 80.69969 29.48116 80.69969 C 30.16289 80.69969 31.2562 80.69969 31.93794 80.69969 C 32.61967 80.69969 33.71297 80.69969 34.3947 80.69969 C 35.07643 80.69969 36.16972 80.69969 36.85146 80.69969 C 37.53319 80.69969 38.62648 80.69969 39.30821 80.69969 C 39.98994 80.69969 41.08327 80.69969 41.765 80.69969 C 42.44673 80.69969 43.54002 80.69969 44.22176 80.69969 C 44.90349 80.69969 45.99678 80.69969 46.67851 80.69969 C 47.36024 80.69969 48.45355 80.69969 49.13528 80.69969 C 49.81702 80.69969 50.91031 80.69969 51.59204 80.69969 C 52.27377 80.69969 53.36708 80.69969 54.04881 80.69969 C 54.73055 80.69969 55.82385 80.69969 56.50558 80.69969 C 57.18732 80.69969 58.96234 80.69969 58.96234 80.69969 L 58.96234 0 L 0 0 Z "/>
<path transform="matrix(1,0,0,-1,32.568,174.464)" d="M 0 0 C 0 0 5.8485 11.00296 8.09476 14.95988 C 10.34102 18.91681 13.94327 24.93765 16.18951 28.51875 C 18.43578 32.09985 22.03802 37.5388 24.28429 40.76999 C 26.53055 44.00119 30.13281 48.89984 32.37906 51.80705 C 34.62532 54.71426 38.22757 59.11407 40.47383 61.72322 C 42.7201 64.33237 46.32234 68.27501 48.56859 70.61201 C 50.81485 72.949 54.4171 76.47601 56.66336 78.56679 C 58.90962 80.65756 62.51187 83.81046 64.75812 85.68092 C 67.00438 87.55139 70.60663 90.37178 72.85289 92.04787 C 75.09915 93.72394 78.7014 96.25337 80.94765 97.76099 C 83.19391 99.26859 86.79616 101.54861 89.04242 102.91368 C 91.28868 104.27873 94.89093 106.351 97.13718 107.5994 C 99.38344 108.8478 102.98569 110.7537 105.23195 111.91138 C 107.47821 113.06908 111.08046 114.85031 113.3267 115.94324 C 115.57297 117.03615 119.17522 118.73438 121.42148 119.78842 C 123.66774 120.84247 127.26999 122.49901 129.51624 123.54007 C 131.7625 124.58113 135.36475 126.23767 137.61101 127.29169 C 139.85727 128.3457 143.45954 130.04383 145.70578 131.13672 C 147.95204 132.2296 151.55429 134.01085 153.80055 135.16854 C 156.04682 136.32624 159.64907 138.23217 161.89531 139.48056 C 164.14157 140.72896 167.74382 142.80115 169.99008 144.16617 C 172.23635 145.5312 175.8386 147.81124 178.08484 149.31882 C 180.3311 150.82639 183.93335 153.35578 186.17961 155.03182 C 188.42588 156.70787 194.27437 161.39865 194.27437 161.39865 L 194.27437 0 L 0 0 Z " fill="#ffffff"/>
<path transform="matrix(1,0,0,-1,32.568,174.464)" d="M 67.9963 88.31235 L 70.42476 90.21092 L 72.8532 92.04808 L 75.28163 93.82643 L 77.71007 95.54843 L 80.13852 97.21663 L 82.56696 98.8336 L 84.99539 100.40176 L 87.42383 101.92372 L 89.85228 103.40192 L 92.28072 104.83897 L 94.70915 106.23738 L 97.13759 107.5996 L 99.56604 108.92819 L 101.99448 110.2257 L 104.42291 111.4946 L 106.85135 112.73747 L 109.2798 113.95679 L 111.70824 115.1551 L 114.13667 116.33492 L 116.56511 117.49875 L 118.99356 118.64914 L 121.422 119.7886 L 123.85043 120.91966 L 126.27887 122.04483 L 126.27887 0 L 67.9963 0 Z " fill="#cccce6"/>
<path transform="matrix(1,0,0,-1,32.568,174.464)" stroke-width="1.19553" stroke-linecap="butt" stroke-miterlimit="10" stroke-linejoin="miter" fill="none" stroke="#000000" d="M 97.13759 0 L 97.13759 107.5996 "/>
<path transform="matrix(1,0,0,-1,32.568,174.464)" stroke-width="1" stroke-linecap="butt" stroke-miterlimit="10" stroke-linejoin="miter" fill="none" stroke="#000000" d="M 67.9963 0 L 67.9963 88.31236 "/>
<path transform="matrix(1,0,0,-1,32.568,174.464)" stroke-width="1" stroke-linecap="butt" stroke-miterlimit="10" stroke-linejoin="miter" fill="none" stroke="#000000" d="M 126.27887 0 L 126.27887 122.04483 "/>
<path transform="matrix(1,0,0,-1,32.568,174.464)" stroke-width="1.19553" stroke-linecap="butt" stroke-miterlimit="10" stroke-linejoin="miter" fill="none" stroke="#000080" d="M 0 0 C 0 0 5.8485 11.00296 8.09476 14.95988 C 10.34102 18.91681 13.94327 24.93765 16.18951 28.51875 C 18.43578 32.09985 22.03802 37.5388 24.28429 40.76999 C 26.53055 44.00119 30.13281 48.89984 32.37906 51.80705 C 34.62532 54.71426 38.22757 59.11407 40.47383 61.72322 C 42.7201 64.33237 46.32234 68.27501 48.56859 70.61201 C 50.81485 72.949 54.4171 76.47601 56.66336 78.56679 C 58.90962 80.65756 62.51187 83.81046 64.75812 85.68092 C 67.00438 87.55139 70.60663 90.37178 72.85289 92.04787 C 75.09915 93.72394 78.7014 96.25337 80.94765 97.76099 C 83.19391 99.26859 86.79616 101.54861 89.04242 102.91368 C 91.28868 104.27873 94.89093 106.351 97.13718 107.5994 C 99.38344 108.8478 102.98569 110.7537 105.23195 111.91138 C 107.47821 113.06908 111.08046 114.85031 113.3267 115.94324 C 115.57297 117.03615 119.17522 118.73438 121.42148 119.78842 C 123.66774 120.84247 127.26999 122.49901 129.51624 123.54007 C 131.7625 124.58113 135.36475 126.23767 137.61101 127.29169 C 139.85727 128.3457 143.45954 130.04383 145.70578 131.13672 C 147.95204 132.2296 151.55429 134.01085 153.80055 135.16854 C 156.04682 136.32624 159.64907 138.23217 161.89531 139.48056 C 164.14157 140.72896 167.74382 142.80115 169.99008 144.16617 C 172.23635 145.5312 175.8386 147.81124 178.08484 149.31882 C 180.3311 150.82639 183.93335 153.35578 186.17961 155.03182 C 188.42588 156.70787 194.27437 161.39865 194.27437 161.39865 "/>
</g>
<path transform="matrix(1,0,0,-1,32.568,174.464)" stroke-width="1" stroke-linecap="butt" stroke-miterlimit="10" stroke-linejoin="miter" fill="none" stroke="#808080" d="M 67.9963 -2.12602 L 67.9963 2.12602 M 97.13759 -2.12602 L 97.13759 2.12602 M 126.27887 -2.12602 L 126.27887 2.12602 "/>
<path transform="matrix(1,0,0,-1,32.568,174.464)" stroke-width="1" stroke-linecap="butt" stroke-miterlimit="10" stroke-linejoin="miter" fill="none" stroke="#808080" d="M -2.12584 80.69969 L 2.12584 80.69969 M -2.12584 107.5996 L 2.12584 107.5996 M -2.12584 134.4995 L 2.12584 134.4995 "/>
<path transform="matrix(1,0,0,-1,32.568,174.464)" stroke-width="1" stroke-linecap="butt" stroke-miterlimit="10" stroke-linejoin="miter" fill="none" stroke="#000000" d="M 0 0 L 192.28185 0 "/>
<path transform="matrix(1,0,0,-1,224.84986,174.464)" d="M 1.99252 0 L -1.19551 1.59401 L 0 0 L -1.19551 -1.59401 "/>
<path transform="matrix(1,0,0,-1,32.568,174.464)" stroke-width="1" stroke-linecap="butt" stroke-miterlimit="10" stroke-linejoin="miter" fill="none" stroke="#000000" d="M 0 0 L 0 159.40613 "/>
<path transform="matrix(0,-1,-1,-0,32.568,15.057877)" d="M 1.99252 0 L -1.19551 1.59401 L 0 0 L -1.19551 -1.59401 "/>
<symbol id="font_1_4">
<path d="M .33300004 .38900004 C .31500004 .42600004 .286 .45300005 .24100001 .45300005 C .124 .45300005 0 .30600003 0 .16000001 C 0 .06600001 .055000005 0 .133 0 C .153 0 .20300001 .0040000008 .263 .075 C .27100004 .033000005 .30600003 0 .35400004 0 C .38900004 0 .41200004 .023000002 .42800004 .055000005 C .44500003 .091000009 .45800004 .15200001 .45800004 .15400002 C .45800004 .16400002 .44900004 .16400002 .44600005 .16400002 C .43600003 .16400002 .43500004 .16000001 .43200005 .14600002 C .41500003 .081 .397 .022000002 .35600005 .022000002 C .32900004 .022000002 .32600004 .048 .32600004 .068 C .32600004 .09 .32800005 .098000008 .33900003 .14200002 C .35000003 .18400002 .35200004 .19400002 .36100004 .23200003 L .397 .37200005 C .40400005 .40000005 .40400005 .40200005 .40400005 .40600003 C .40400005 .42300005 .39200003 .43300004 .37500004 .43300004 C .35100005 .43300004 .33600004 .411 .33300004 .38900004 M .26800005 .13000001 C .263 .112 .263 .11000001 .24800001 .093 C .20400001 .038000004 .163 .022000002 .135 .022000002 C .08499999 .022000002 .07100001 .077 .07100001 .116000007 C .07100001 .16600001 .103 .28900004 .126 .335 C .157 .39400003 .202 .43100003 .242 .43100003 C .307 .43100003 .32100005 .34900005 .32100005 .34300003 C .32100005 .337 .31900005 .33100004 .31800003 .32600004 L .26800005 .13000001 Z "/>
</symbol>
<use xlink:href="#font_1_4" transform="matrix(9.9626,0,0,-9.9626,89.83851,187.13759)"/>
<symbol id="font_2_1">
<path d="M .57600006 0 C .59300008 0 .611 0 .611 .019999996 C .611 .040000008 .59300008 .040000008 .57600006 .040000008 L .035000005 .040000008 C .018 .040000008 0 .040000008 0 .019999996 C 0 0 .018 0 .035000005 0 L .57600006 0 Z "/>
</symbol>
<use xlink:href="#font_2_1" transform="matrix(9.9626,0,0,-9.9626,97.7469,184.7366)"/>
<symbol id="font_1_1">
<path d="M .222 .449 C .09700001 .419 0 .289 0 .168 C 0 .072000008 .064 0 .15799999 0 C .275 0 .358 .157 .358 .29500003 C .358 .386 .31800003 .43600003 .284 .481 C .24800003 .526 .18900001 .6010001 .18900001 .64500007 C .18900001 .66700008 .20900002 .69100007 .24400002 .69100007 C .27400003 .69100007 .29400004 .67800006 .31500004 .66400006 C .335 .65200009 .35500003 .63900008 .37000004 .63900008 C .395 .63900008 .41000004 .66300007 .41000004 .6790001 C .41000004 .70100006 .39400003 .70400008 .358 .7120001 C .30600003 .72300007 .29200004 .72300007 .27600003 .72300007 C .19800002 .72300007 .162 .68000009 .162 .62000009 C .162 .56600007 .19100002 .51000007 .222 .449 M .23400003 .42700003 C .25900004 .381 .28900004 .32700003 .28900004 .25500003 C .28900004 .189 .25100003 .022 .15799999 .022 C .10300001 .022 .062 .064 .062 .14 C .062 .20300001 .099 .391 .23400003 .42700003 Z "/>
</symbol>
<use xlink:href="#font_1_1" transform="matrix(9.9626,0,0,-9.9626,107.30143,187.14756)"/>
<use xlink:href="#font_1_4" transform="matrix(9.9626,0,0,-9.9626,127.470508,184.50859)"/>
<use xlink:href="#font_1_4" transform="matrix(9.9626,0,0,-9.9626,148.1205,187.13759)"/>
<symbol id="font_3_1">
<path d="M .35300002 .31300003 L .632 .31300003 C .646 .31300003 .665 .31300003 .665 .333 C .665 .35300002 .646 .35300002 .632 .35300002 L .35300002 .35300002 L .35300002 .633 C .35300002 .647 .35300002 .666 .33300004 .666 C .31300003 .666 .31300003 .647 .31300003 .633 L .31300003 .35300002 L .033 .35300002 C .019000002 .35300002 0 .35300002 0 .333 C 0 .31300003 .019000002 .31300003 .033 .31300003 L .31300003 .31300003 L .31300003 .033000005 C .31300003 .019000002 .31300003 0 .33300004 0 C .35300002 0 .35300002 .019000002 .35300002 .033000005 L .35300002 .31300003 Z "/>
</symbol>
<use xlink:href="#font_3_1" transform="matrix(9.9626,0,0,-9.9626,155.7599,187.85489)"/>
<use xlink:href="#font_1_1" transform="matrix(9.9626,0,0,-9.9626,165.58342,187.14756)"/>
<symbol id="font_1_3">
<path d="M .335 .605 C .344 .64100006 .347 .652 .441 .652 C .47100006 .652 .479 .652 .479 .671 C .479 .683 .46800003 .683 .46300004 .683 C .43 .683 .34800003 .68 .315 .68 C .285 .68 .21200001 .683 .18200001 .683 C .17500001 .683 .163 .683 .163 .66300007 C .163 .652 .172 .652 .191 .652 C .193 .652 .21200001 .652 .229 .65000006 C .24700001 .648 .256 .647 .256 .634 C .256 .63000008 .255 .62700006 .252 .615 L .118 .078 C .107999999 .039 .106000009 .031000002 .026999999 .031000002 C .010000002 .031000002 0 .031000002 0 .011000001 C 0 0 .009 0 .026999999 0 L .49000005 0 C .51400008 0 .51500007 0 .521 .017 L .6000001 .23300001 C .60400006 .24400002 .60400006 .246 .60400006 .24700001 C .60400006 .25100003 .6010001 .25800003 .59200009 .25800003 C .58300009 .25800003 .5820001 .25300003 .57500007 .23700002 C .54100009 .14500001 .497 .031000002 .324 .031000002 L .23000002 .031000002 C .21600002 .031000002 .21400002 .031000002 .208 .032 C .19800002 .033 .19500001 .034 .19500001 .042000005 C .19500001 .045 .19500001 .047000003 .2 .065000008 L .335 .605 Z "/>
</symbol>
<use xlink:href="#font_1_3" transform="matrix(9.9626,0,0,-9.9626,3.7095426,96.75401)"/>
<use xlink:href="#font_2_1" transform="matrix(9.9626,0,0,-9.9626,13.141897,94.462619)"/>
<symbol id="font_1_2">
<path d="M .115 .24900002 C .148 .23500002 .17700002 .23500002 .201 .23500002 C .22700003 .23500002 .28200004 .23500002 .28200004 .26600004 C .28200004 .29000003 .24700001 .29300005 .20900002 .29300005 C .18800003 .29300005 .153 .29100005 .116000007 .27400003 C .093 .286 .076000008 .30500005 .076000008 .33200003 C .076000008 .39300005 .174 .42900003 .26400004 .42900003 C .28000004 .42900003 .316 .42900003 .35600005 .40100003 C .367 .39300005 .36900003 .39100004 .37600003 .39100004 C .38900004 .39100004 .40300004 .40400005 .40300004 .41800005 C .40300004 .43700005 .34200005 .47500003 .27400003 .47500003 C .15900001 .47500003 .051000008 .40800003 .051000008 .33200003 C .051000008 .28900004 .087000008 .26400004 .091000009 .261 C .032 .22800002 0 .172 0 .126 C 0 .061000006 .057000005 0 .16300002 0 C .29500003 0 .351 .088 .351 .103 C .351 .109000008 .34600003 .113000009 .34000004 .113000009 C .33500005 .113000009 .33200003 .109000008 .33 .106000009 C .316 .083000008 .29200004 .046000005 .17200002 .046000005 C .11100001 .046000005 .026 .061000006 .026 .13200002 C .026 .16600001 .054000006 .21900001 .115 .24900002 M .148 .26200003 C .171 .27 .192 .27100004 .20900002 .27100004 C .23400003 .27100004 .238 .27 .256 .26500003 C .24100003 .25800003 .23900002 .25700004 .201 .25700004 C .17900002 .25700004 .167 .25700004 .148 .26200003 Z "/>
</symbol>
<use xlink:href="#font_1_2" transform="matrix(9.9626,0,0,-9.9626,22.536028,96.97319)"/>
<use xlink:href="#font_1_3" transform="matrix(9.9626,0,0,-9.9626,20.531544,70.270008)"/>
<use xlink:href="#font_1_3" transform="matrix(9.9626,0,0,-9.9626,3.708543,42.955)"/>
<use xlink:href="#font_3_1" transform="matrix(9.9626,0,0,-9.9626,12.871907,43.7819)"/>
<use xlink:href="#font_1_2" transform="matrix(9.9626,0,0,-9.9626,22.535029,43.17418)"/>
<symbol id="font_1_5">
<path d="M .305 .31300003 C .311 .33900003 .334 .43100003 .404 .43100003 C .409 .43100003 .433 .43100003 .454 .418 C .426 .41300003 .40600003 .388 .40600003 .36400003 C .40600003 .34800003 .417 .32900004 .444 .32900004 C .46600003 .32900004 .498 .34700004 .498 .38700003 C .498 .43900005 .439 .45300005 .405 .45300005 C .347 .45300005 .312 .40000005 .3 .37700004 C .275 .44300003 .221 .45300005 .19200002 .45300005 C .08800001 .45300005 .031000002 .32400004 .031000002 .29900003 C .031000002 .28900004 .041 .28900004 .043000007 .28900004 C .051000008 .28900004 .054000006 .291 .056 .3 C .09 .40600003 .156 .43100003 .19000001 .43100003 C .209 .43100003 .244 .42200003 .244 .36400003 C .244 .33300004 .22700002 .26600004 .19000001 .126 C .17400001 .064 .13900002 .022000002 .095000009 .022000002 C .08900001 .022000002 .06600001 .022000002 .045 .035 C .07000001 .040000004 .09200001 .061 .09200001 .089 C .09200001 .116000007 .07000001 .124000009 .055000009 .124000009 C .025 .124000009 0 .098000008 0 .06600001 C 0 .020000002 .050000006 0 .094000007 0 C .16000001 0 .19600001 .07000001 .19900002 .076000008 C .21100001 .039 .24700003 0 .307 0 C .41 0 .467 .12900001 .467 .15400002 C .467 .16400002 .458 .16400002 .455 .16400002 C .446 .16400002 .444 .16000001 .442 .15300001 C .409 .046 .341 .022000002 .30900003 .022000002 C .27 .022000002 .254 .054 .254 .08800001 C .254 .11000001 .26 .13200002 .271 .17600002 L .305 .31300003 Z "/>
</symbol>
<use xlink:href="#font_1_5" transform="matrix(9.9626,0,0,-9.9626,230.64792,176.7186)"/>
<symbol id="font_1_6">
<path d="M .45700003 .586 C .461 .6 .461 .602 .461 .609 C .461 .62700006 .447 .63600006 .432 .63600006 C .42200003 .63600006 .40600003 .63 .397 .615 C .395 .61 .387 .579 .38300003 .561 C .37600003 .535 .36900003 .508 .363 .48100005 L .318 .301 C .314 .286 .271 .21600002 .20500002 .21600002 C .15400002 .21600002 .143 .26000003 .143 .29700003 C .143 .34300003 .16000001 .40500004 .194 .49300004 C .21000001 .53400006 .21400002 .545 .21400002 .56500008 C .21400002 .61 .18200001 .6470001 .13200002 .6470001 C .037 .6470001 0 .50200006 0 .49300004 C 0 .48300005 .01 .48300005 .012 .48300005 C .022000002 .48300005 .023 .485 .028000003 .50100007 C .055000009 .595 .095000009 .625 .12900001 .625 C .13700001 .625 .15400002 .625 .15400002 .59300008 C .15400002 .568 .14400001 .54200008 .13700001 .523 C .097 .41700004 .079 .36 .079 .31300003 C .079 .224 .142 .194 .201 .194 C .24000003 .194 .274 .21100001 .30200003 .23900002 C .289 .187 .277 .13800001 .237 .08500001 C .21100001 .051 .17300001 .022 .127 .022 C .113000009 .022 .068 .025000006 .051000008 .06400001 C .067 .06400001 .080000009 .06400001 .094000007 .076000008 C .104 .08500001 .11400001 .098000008 .11400001 .117000009 C .11400001 .148 .087000008 .15200001 .07700001 .15200001 C .054000006 .15200001 .021 .136 .021 .087000008 C .021 .037 .065000008 0 .127 0 C .23 0 .333 .091000009 .361 .20400001 L .45700003 .586 Z "/>
</symbol>
<use xlink:href="#font_1_6" transform="matrix(9.9626,0,0,-9.9626,30.236918,9.652334)"/>
</svg>
