<?xml version="1.0" encoding="UTF-8" standalone="no"?>
<!DOCTYPE svg PUBLIC "-//W3C//DTD SVG 1.1//EN" "http://www.w3.org/Graphics/SVG/1.1/DTD/svg11.dtd">
<svg xmlns="http://www.w3.org/2000/svg" xmlns:xlink="http://www.w3.org/1999/xlink" version="1.1" width="194.744pt" height="161.627pt" viewBox="0 0 194.744 161.627">
<clipPath id="cp0">
<path transform="matrix(1,0,0,-1,105.896,89.06)" d="M -105.89697 -33.1099 L -105.89697 55.95055 L 0 89.06046 L 88.84947 49.60219 L 88.84947 -39.45825 L -17.04749 -72.56816 Z "/>
</clipPath>
<g clip-path="url(#cp0)">
<path transform="matrix(1,0,0,-1,105.896,89.06)" stroke-width="1.19553" stroke-linecap="butt" stroke-miterlimit="10" stroke-linejoin="miter" fill="none" stroke="#000080" d="M 46.51956 25.46722 C 46.51956 25.46722 43.83499 20.27484 42.80391 18.40645 C 41.77284 16.53804 40.11932 13.68759 39.08824 12.00108 C 38.05717 10.31458 36.40366 7.75584 35.37257 6.25122 C 34.3415 4.74658 32.68799 2.47949 31.6569 1.15675 C 30.62584 -.16597 28.97232 -2.14137 27.94124 -3.28224 C 26.91017 -4.4231 25.25665 -6.10683 24.22557 -7.0658 C 23.1945 -8.02477 21.54099 -9.41681 20.5099 -10.19391 C 19.47884 -10.97101 17.82532 -12.07137 16.79424 -12.66656 C 15.76317 -13.26178 14.10966 -14.07047 13.07858 -14.4838 C 12.04752 -14.89713 10.394 -15.41412 9.36292 -15.64557 C 8.33185 -15.877 6.67833 -16.10234 5.64725 -16.1519 C 4.61618 -16.20146 2.96266 -16.1351 1.93158 -16.00278 C .90051 -15.87047 -.75299 -15.5124 -1.78407 -15.19821 C -2.81514 -14.88402 -4.46866 -14.2343 -5.49974 -13.73822 C -6.5308 -13.24213 -8.18433 -12.30072 -9.21541 -11.62276 C -10.24648 -10.9448 -11.9 -9.71172 -12.93108 -8.85187 C -13.96214 -7.992 -15.61566 -6.46724 -16.64674 -5.4255 C -17.67781 -4.38377 -19.33133 -2.56735 -20.36241 -1.34373 C -21.39348 -.12013 -24.07805 3.39348 -24.07805 3.39348 "/>
</g>
<path transform="matrix(1,0,0,-1,105.896,89.06)" stroke-width="1" stroke-linecap="butt" stroke-miterlimit="10" stroke-linejoin="miter" fill="none" stroke="#808080" d="M 36.59839 -17.09059 L 40.48473 -18.81651 M 13.06573 -24.44835 L 16.95207 -26.17427 M -33.99959 -39.16386 L -30.11324 -40.88979 M -57.53224 -46.52162 L -53.6459 -48.24754 "/>
<path transform="matrix(1,0,0,-1,105.896,89.06)" stroke-width="1" stroke-linecap="butt" stroke-miterlimit="10" stroke-linejoin="miter" fill="none" stroke="#808080" d="M -45.98315 -14.4976 L -50.04164 -15.76653 M -26.23882 -23.2661 L -30.2973 -24.53503 M 13.24982 -40.8031 L 9.19133 -42.07204 M 32.99416 -49.57161 L 28.93567 -50.84053 "/>
<path transform="matrix(1,0,0,-1,105.896,89.06)" stroke-width="1" stroke-linecap="butt" stroke-miterlimit="10" stroke-linejoin="miter" fill="none" stroke="#000000" d="M 44.42473 -16.11412 L -59.56906 -48.62898 "/>
<path transform="matrix(-.95515,.29865,.29865,.95515,46.326944,137.68898)" d="M 1.99252 0 L -1.19551 1.59401 L 0 0 L -1.19551 -1.59401 "/>
<path transform="matrix(1,0,0,-1,105.896,89.06)" stroke-width="1" stroke-linecap="butt" stroke-miterlimit="10" stroke-linejoin="miter" fill="none" stroke="#000000" d="M -52.94849 -12.93994 L 34.07721 -51.5882 "/>
<path transform="matrix(.91531,.40652,.40652,-.91531,139.9732,140.64818)" d="M 1.99252 0 L -1.19551 1.59401 L 0 0 L -1.19551 -1.59401 "/>
<symbol id="font_1_1">
<path d="M .63600006 0 C .65200009 0 .67600008 0 .67600008 .023999989 C .67600008 .048999996 .65300008 .048999996 .63600006 .048999996 L .04 .048999996 C .023999997 .048999996 0 .048999996 0 .025000006 C 0 0 .02300001 0 .04 0 L .63600006 0 Z "/>
</symbol>
<use xlink:href="#font_1_1" transform="matrix(6.9738,0,0,-6.9738,142.94419,113.78291)"/>
<symbol id="font_2_4">
<path d="M .49000005 .164 L .49000005 .2 L .379 .2 L .379 .646 C .379 .66700008 .379 .674 .35700003 .674 C .345 .674 .34100003 .674 .331 .66 L 0 .2 L 0 .164 L .294 .164 L .294 .082 C .294 .048 .294 .036000004 .213 .036000004 L .186 .036000004 L .186 0 C .236 .002 .3 .004 .33600004 .004 C .37300004 .004 .437 .002 .48700003 0 L .48700003 .036000004 L .46 .036000004 C .379 .036000004 .379 .048 .379 .082 L .379 .164 L .49000005 .164 M .301 .56600007 L .301 .2 L .037000006 .2 L .301 .56600007 Z "/>
</symbol>
<use xlink:href="#font_2_4" transform="matrix(6.9738,0,0,-6.9738,148.68898,115.35899)"/>
<use xlink:href="#font_1_1" transform="matrix(6.9738,0,0,-6.9738,119.41118,121.140918)"/>
<symbol id="font_2_3">
<path d="M .442 .18200001 L .40800003 .18200001 C .40500004 .16000001 .39500005 .101 .38200004 .091000009 C .374 .085 .29700003 .085 .28300003 .085 L .099 .085 C .20400003 .178 .23900002 .20600002 .29900003 .25300003 C .37300004 .312 .442 .374 .442 .469 C .442 .59000006 .33600004 .66400006 .20800004 .66400006 C .084 .66400006 0 .577 0 .485 C 0 .43400003 .043000007 .42900003 .053000004 .42900003 C .077 .42900003 .10600001 .446 .10600001 .48200003 C .10600001 .5 .099 .535 .047000007 .535 C .078 .606 .146 .628 .19300002 .628 C .293 .628 .34500004 .55 .34500004 .469 C .34500004 .38200004 .28300003 .31300003 .25100003 .277 L .010000005 .039 C 0 .030000002 0 .028 0 0 L .41200004 0 L .442 .18200001 Z "/>
</symbol>
<use xlink:href="#font_2_3" transform="matrix(6.9738,0,0,-6.9738,125.32435,122.716999)"/>
<use xlink:href="#font_2_3" transform="matrix(6.9738,0,0,-6.9738,74.39635,136.693)"/>
<use xlink:href="#font_2_4" transform="matrix(6.9738,0,0,-6.9738,50.69598,144.051)"/>
<use xlink:href="#font_1_1" transform="matrix(6.9738,0,0,-6.9738,50.020174,111.35892)"/>
<use xlink:href="#font_2_4" transform="matrix(6.9738,0,0,-6.9738,55.764978,112.935)"/>
<use xlink:href="#font_1_1" transform="matrix(6.9738,0,0,-6.9738,69.764179,120.127918)"/>
<use xlink:href="#font_2_3" transform="matrix(6.9738,0,0,-6.9738,75.676349,121.703998)"/>
<use xlink:href="#font_2_3" transform="matrix(6.9738,0,0,-6.9738,113.04835,138.3)"/>
<use xlink:href="#font_2_4" transform="matrix(6.9738,0,0,-6.9738,132.62497,147.069)"/>
<path transform="matrix(1,0,0,-1,105.896,89.06)" stroke-width="1" stroke-linecap="butt" stroke-miterlimit="10" stroke-linejoin="miter" fill="none" stroke="#808080" d="M -48.0124 -17.25797 L -48.0124 -13.0062 M -28.26807 -26.02646 L -28.26807 -21.7747 M 11.22057 -43.56346 L 11.22057 -39.3117 M 30.9649 -52.33197 L 30.9649 -48.0802 "/>
<path transform="matrix(1,0,0,-1,105.896,89.06)" stroke-width="1" stroke-linecap="butt" stroke-miterlimit="10" stroke-linejoin="miter" fill="none" stroke="#808080" d="M -10.46692 1.05751 L -6.58058 -.6684 M -10.46692 33.92116 L -6.58058 32.19524 "/>
<path transform="matrix(1,0,0,-1,105.896,89.06)" stroke-width="1" stroke-linecap="butt" stroke-miterlimit="10" stroke-linejoin="miter" fill="none" stroke="#000000" d="M -8.52374 -36.28407 L -8.52374 50.78384 "/>
<path transform="matrix(0,-1,-1,-0,97.37226,38.276159)" d="M 1.99252 0 L -1.19551 1.59401 L 0 0 L -1.19551 -1.59401 "/>
<symbol id="font_2_2">
<path d="M .22600001 .63600006 C .22600001 .66300007 .224 .66400006 .19600001 .66400006 C .132 .601 .041 .6 0 .6 L 0 .564 C .023999997 .564 .09000001 .564 .14500001 .592 L .14500001 .082 C .14500001 .049000004 .14500001 .036000004 .04500001 .036000004 L .0069999995 .036000004 L .0069999995 0 C .024999999 .001 .148 .004 .185 .004 C .21600002 .004 .34200005 .001 .36400003 0 L .36400003 .036000004 L .32600004 .036000004 C .22600001 .036000004 .22600001 .049000004 .22600001 .082 L .22600001 .63600006 Z "/>
</symbol>
<symbol id="font_2_1">
<path d="M .46400006 .33900003 C .46400006 .44900004 .45100004 .528 .40500004 .598 C .374 .644 .31200005 .684 .23200001 .684 C 0 .684 0 .41100005 0 .33900003 C 0 .26700003 0 0 .23200001 0 C .46400006 0 .46400006 .26700003 .46400006 .33900003 M .23200001 .028 C .186 .028 .125 .055 .105000007 .13700001 C .091000009 .19600001 .091000009 .27800004 .091000009 .35200004 C .091000009 .42500005 .091000009 .50100007 .106000009 .556 C .127 .635 .19100002 .656 .23200001 .656 C .286 .656 .338 .623 .356 .565 C .37200005 .51100006 .37300004 .43900005 .37300004 .35200004 C .37300004 .27800004 .37300004 .20400001 .36 .141 C .34000004 .050000006 .272 .028 .23200001 .028 Z "/>
</symbol>
<use xlink:href="#font_2_2" transform="matrix(6.9738,0,0,-6.9738,84.72715,89.819)"/>
<use xlink:href="#font_2_1" transform="matrix(6.9738,0,0,-6.9738,88.30471,89.95847)"/>
<use xlink:href="#font_2_3" transform="matrix(6.9738,0,0,-6.9738,84.40635,56.955)"/>
<use xlink:href="#font_2_1" transform="matrix(6.9738,0,0,-6.9738,88.30471,57.09448)"/>
<path transform="matrix(1,0,0,-1,105.896,89.06)" stroke-width="1" stroke-linecap="butt" stroke-miterlimit="10" stroke-linejoin="miter" fill="none" stroke="#808080" d="M 38.54156 -20.07945 L 38.54156 -15.82768 M 15.00891 -27.43721 L 15.00891 -23.18544 M -32.05641 -42.15273 L -32.05641 -37.90096 M -55.58907 -49.51048 L -55.58907 -45.25871 "/>
<path transform="matrix(1,0,0,-1,105.896,89.06)" stroke-width="1" stroke-linecap="butt" stroke-miterlimit="10" stroke-linejoin="miter" fill="none" stroke="#808080" d="M -6.49449 .82901 L -10.55298 -.4399 M -6.49449 33.69266 L -10.55298 32.42374 "/>
<symbol id="font_3_1">
<path d="M .201 .116000007 C .19100002 .082 .15800002 .028 .107 .028 C .10400001 .028 .07400001 .028 .053000004 .042000005 C .094000007 .055000005 .09700001 .091 .09700001 .097 C .09700001 .119 .080000009 .134 .057000005 .134 C .029000007 .134 0 .11 0 .073 C 0 .023000002 .056 0 .10500001 0 C .15100003 0 .192 .029000003 .21700001 .071 C .241 .018000002 .296 0 .336 0 C .451 0 .512 .125 .512 .15300001 C .512 .16600001 .49900005 .16600001 .49600003 .16600001 C .48200003 .16600001 .48100005 .16100002 .47700004 .14900002 C .456 .08 .39600004 .028 .34 .028 C .3 .028 .279 .055000005 .279 .093 C .279 .119 .303 .21000001 .331 .321 C .351 .398 .39600004 .423 .42900003 .423 C .43100003 .423 .46200005 .423 .483 .409 C .451 .4 .439 .372 .439 .354 C .439 .33200003 .456 .317 .479 .317 C .50200006 .317 .535 .336 .535 .37800003 C .535 .43400003 .47100006 .451 .43100003 .451 C .381 .451 .34100003 .418 .319 .38 C .301 .421 .255 .451 .199 .451 C .087000008 .451 .023000002 .328 .023000002 .298 C .023000002 .285 .037 .285 .040000008 .285 C .053000004 .285 .054000006 .289 .059000009 .30200003 C .084 .38 .14700002 .423 .19600001 .423 C .229 .423 .256 .405 .256 .357 C .256 .337 .24400002 .287 .23500002 .25300003 L .201 .116000007 Z "/>
</symbol>
<use xlink:href="#font_3_1" transform="matrix(6.9738,0,0,-6.9738,37.51875,140.85074)"/>
<symbol id="font_3_2">
<path d="M .50900009 .58100005 C .513 .595 .513 .597 .513 .60300007 C .513 .623 .49700005 .63500007 .48000003 .63500007 C .46900005 .63500007 .45000003 .63000008 .43900005 .611 C .43600003 .605 .42800004 .573 .42300005 .55300006 L .40200005 .47000004 C .39600004 .44600005 .36500005 .32000003 .36200003 .30900003 C .36100004 .30900003 .31700004 .22200002 .23900001 .22200002 C .171 .22200002 .171 .287 .171 .305 C .171 .35900004 .194 .42200003 .22400002 .499 C .23600002 .531 .24100001 .54300007 .24100001 .56 C .24100001 .60800006 .2 .64500007 .146 .64500007 C .045000007 .64500007 0 .509 0 .49200005 C 0 .47900004 .014000002 .47900004 .017 .47900004 C .031 .47900004 .032 .48400004 .035 .495 C .060000007 .578 .103 .61700007 .143 .61700007 C .16000001 .61700007 .168 .606 .168 .582 C .168 .559 .15900001 .537 .154 .52400007 C .106000009 .402 .096 .365 .096 .321 C .096 .30400003 .096 .25700004 .135 .22500001 C .16600001 .19900002 .20800002 .194 .235 .194 C .27500005 .194 .31100003 .209 .34400005 .23900001 C .33100004 .18400002 .32000003 .142 .27800004 .09200001 C .25100003 .061000006 .21100001 .027999998 .158 .027999998 C .15100001 .027999998 .104 .027999998 .083000008 .061000006 C .13700001 .067 .13700001 .11500001 .13700001 .116000007 C .13700001 .148 .107999999 .15400002 .098000008 .15400002 C .073 .15400002 .040000004 .134 .040000004 .08800001 C .040000004 .037 .088 0 .15900001 0 C .26000003 0 .38300003 .07800001 .41400004 .20300001 L .50900009 .58100005 Z "/>
</symbol>
<use xlink:href="#font_3_2" transform="matrix(6.9738,0,0,-6.9738,143.96378,147.68865)"/>
<symbol id="font_3_3">
<path d="M .10700001 .098000008 C .133 .124000009 .15100001 .143 .23600002 .21100001 C .25700004 .22800002 .33200003 .28800003 .361 .316 C .422 .37600003 .46000005 .42700003 .46000005 .439 C .46000005 .451 .44700004 .451 .44300003 .451 C .43400003 .451 .431 .449 .426 .441 C .39500005 .395 .374 .38 .35000003 .38 C .338 .38 .323 .381 .29299999 .41 C .259 .444 .237 .451 .214 .451 C .134 .451 .08 .364 .08 .334 C .08 .32500003 .09 .322 .097 .322 C .109 .322 .111 .32500003 .11500001 .336 C .13000001 .37100003 .186 .373 .202 .373 C .22500001 .373 .251 .367 .265 .364 C .32 .352 .32700003 .352 .352 .352 C .32600004 .32500003 .30800004 .307 .21300002 .23100002 C .135 .16900002 .10800001 .14400001 .089 .124000009 C .029 .065000008 0 .021000002 0 .012000001 C 0 0 .012999997 0 .016999998 0 C .027000003 0 .029 .0020000004 .034 .010000001 C .061000006 .048000006 .09200001 .071 .126 .071 C .13800001 .071 .15300001 .07 .18 .045 C .21100001 .015000001 .23100002 0 .263 0 C .37 0 .43700005 .12100001 .43700005 .15500002 C .43700005 .16700001 .426 .16800002 .42000003 .16800002 C .408 .16800002 .40600003 .16300002 .402 .15200001 C .38300003 .102000009 .324 .078 .27500005 .078 C .25200004 .078 .22700002 .083000008 .202 .089 C .156 .099 .148 .099 .13000001 .099 C .128 .099 .113000009 .099 .10700001 .098000008 Z "/>
</symbol>
<use xlink:href="#font_3_3" transform="matrix(6.9738,0,0,-6.9738,95.7514,33.86973)"/>
</svg>
