<?xml version="1.0" encoding="UTF-8" standalone="no"?>
<!DOCTYPE svg PUBLIC "-//W3C//DTD SVG 1.1//EN" "http://www.w3.org/Graphics/SVG/1.1/DTD/svg11.dtd">
<svg xmlns="http://www.w3.org/2000/svg" xmlns:xlink="http://www.w3.org/1999/xlink" version="1.1" width="207.177pt" height="174.828pt" viewBox="0 0 207.177 174.828">
<clipPath id="cp0">
<path transform="matrix(1,0,0,-1,.199,174.629)" d="M 0 0 L 194.26973 0 L 194.26973 161.39347 L 0 161.39347 Z "/>
</clipPath>
<g clip-path="url(#cp0)">
<path transform="matrix(1,0,0,-1,.199,174.629)" d="M 11.42763 83.47937 L 16.18912 88.59375 L 20.9506 92.8579 L 25.71211 96.34908 L 30.47362 99.1446 L 35.2351 101.3218 L 39.99661 102.95787 L 44.75812 104.1302 L 49.51962 104.91603 L 54.2811 105.3927 L 59.0426 105.63748 L 63.80411 105.72766 L 68.56561 105.74054 L 73.32712 105.7534 L 78.08861 105.84358 L 82.85011 106.08835 L 87.6116 106.56499 L 92.37311 107.35081 L 97.1346 108.5231 L 101.8961 110.15916 L 106.65761 112.33629 L 111.41911 115.13177 L 116.1806 118.62291 L 120.9421 122.887 L 125.7036 128.00131 L 125.7036 27.82626 L 120.9421 25.15959 L 116.1806 22.7248 L 111.41911 20.52188 L 106.65761 18.55086 L 101.8961 16.81172 L 97.1346 15.30447 L 92.37311 14.02911 L 87.6116 12.98563 L 82.85011 12.17404 L 78.08861 11.59433 L 73.32712 11.2465 L 68.56561 11.13057 L 63.80411 11.24652 L 59.0426 11.59436 L 54.2811 12.17407 L 49.51962 12.98569 L 44.75812 14.02919 L 39.99661 15.30457 L 35.2351 16.81183 L 30.47362 18.55098 L 25.71211 20.522 L 20.9506 22.72495 L 16.18912 25.15976 L 11.42763 27.82645 Z " fill="#cccce6"/>
</g>
<clipPath id="cp1">
<path transform="matrix(1,0,0,-1,.199,174.629)" d="M 0 0 L 194.26973 0 L 194.26973 161.39347 L 0 161.39347 Z "/>
</clipPath>
<g clip-path="url(#cp1)">
<path transform="matrix(1,0,0,-1,.199,174.629)" stroke-width="1.19553" stroke-linecap="butt" stroke-miterlimit="10" stroke-linejoin="miter" fill="none" stroke="#000080" d="M 0 67.27324 C 0 67.27324 4.12825 73.86232 5.7138 76.11089 C 7.29936 78.35945 9.84207 81.61998 11.42763 83.47937 C 13.01317 85.33878 15.5559 88.00487 17.14143 89.51215 C 18.72699 91.01942 21.2697 93.15059 22.85526 94.34282 C 24.44081 95.53505 26.98352 97.1907 28.56908 98.10495 C 30.15462 99.01921 32.69734 100.2588 34.28288 100.93213 C 35.86844 101.60545 38.41115 102.48843 39.9967 102.9579 C 41.58226 103.42737 44.12497 104.01314 45.71051 104.31583 C 47.29607 104.61852 49.83878 104.96654 51.42433 105.1395 C 53.00989 105.31244 55.5526 105.48216 57.13815 105.56245 C 58.7237 105.64275 61.26642 105.69357 62.85196 105.71828 C 64.43752 105.74298 66.98022 105.73438 68.56578 105.74054 C 70.15134 105.74672 72.69405 105.7381 74.2796 105.7628 C 75.86514 105.7875 78.40785 105.83832 79.99341 105.91862 C 81.57896 105.99892 84.12167 106.16864 85.70723 106.34158 C 87.29277 106.51454 89.8355 106.86256 91.42104 107.16524 C 93.00659 107.46793 95.5493 108.05373 97.13486 108.5232 C 98.72041 108.99266 101.26312 109.87563 102.84868 110.54895 C 104.43422 111.22227 106.97694 112.46187 108.56248 113.37611 C 110.14804 114.29036 112.69075 115.94603 114.2763 117.13826 C 115.86186 118.33049 118.40457 120.46165 119.99011 121.96893 C 121.57567 123.47621 124.11838 126.14232 125.70393 128.00171 C 127.28949 129.86112 129.8322 133.12163 131.41776 135.3702 C 133.0033 137.61875 137.13156 144.20783 137.13156 144.20783 "/>
<path transform="matrix(1,0,0,-1,.199,174.629)" stroke-width="1.19553" stroke-linecap="butt" stroke-miterlimit="10" stroke-linejoin="miter" fill="none" stroke="#800000" d="M 0 35.17262 C 0 35.17262 4.12825 32.35185 5.7138 31.3326 C 7.29936 30.31332 9.84207 28.75307 11.42763 27.82645 C 13.01317 26.89984 15.5559 25.48816 17.14143 24.65422 C 18.72699 23.8203 21.2697 22.5572 22.85526 21.81593 C 24.44081 21.07465 26.98352 19.96017 28.56908 19.31155 C 30.15462 18.66293 32.69734 17.69704 34.28288 17.14108 C 35.86844 16.58514 38.41115 15.76784 39.9967 15.30453 C 41.58226 14.84125 44.12497 14.17255 45.71051 13.80191 C 47.29607 13.43127 49.83878 12.91118 51.42433 12.6332 C 53.00989 12.35522 55.5526 11.98372 57.13815 11.7984 C 58.7237 11.61308 61.26642 11.39018 62.85196 11.29753 C 64.43752 11.20486 66.98022 11.13057 68.56578 11.13057 C 70.15134 11.13057 72.69405 11.20486 74.2796 11.29753 C 75.86514 11.39018 78.40785 11.61308 79.99341 11.7984 C 81.57896 11.98372 84.12167 12.35522 85.70723 12.6332 C 87.29277 12.91118 89.8355 13.43127 91.42104 13.80191 C 93.00659 14.17255 95.5493 14.84125 97.13486 15.30453 C 98.72041 15.76784 101.26312 16.58514 102.84868 17.14108 C 104.43422 17.69704 106.97694 18.66293 108.56248 19.31155 C 110.14804 19.96017 112.69075 21.07465 114.2763 21.81593 C 115.86186 22.5572 118.40457 23.8203 119.99011 24.65422 C 121.57567 25.48816 124.11838 26.89984 125.70393 27.82645 C 127.28949 28.75307 129.8322 30.31332 131.41776 31.3326 C 133.0033 32.35185 137.13156 35.17262 137.13156 35.17262 "/>
<path transform="matrix(1,0,0,-1,.199,174.629)" stroke-width="1" stroke-linecap="butt" stroke-miterlimit="10" stroke-linejoin="miter" fill="none" stroke="#000080" d="M 11.42763 27.82645 L 11.42763 83.47937 "/>
<path transform="matrix(1,0,0,-1,.199,174.629)" stroke-width="1" stroke-linecap="butt" stroke-miterlimit="10" stroke-linejoin="miter" fill="none" stroke="#000080" d="M 125.70393 27.82645 L 125.70393 128.00171 "/>
<symbol id="font_2_2">
<path d="M .45700003 .586 C .461 .6 .461 .602 .461 .609 C .461 .62700006 .447 .63600006 .432 .63600006 C .42200003 .63600006 .40600003 .63 .397 .615 C .395 .61 .387 .579 .38300003 .561 C .37600003 .535 .36900003 .508 .363 .48100005 L .318 .301 C .314 .286 .271 .21600002 .20500002 .21600002 C .15400002 .21600002 .143 .26000003 .143 .29700003 C .143 .34300003 .16000001 .40500004 .194 .49300004 C .21000001 .53400006 .21400002 .545 .21400002 .56500008 C .21400002 .61 .18200001 .6470001 .13200002 .6470001 C .037 .6470001 0 .50200006 0 .49300004 C 0 .48300005 .01 .48300005 .012 .48300005 C .022000002 .48300005 .023 .485 .028000003 .50100007 C .055000009 .595 .095000009 .625 .12900001 .625 C .13700001 .625 .15400002 .625 .15400002 .59300008 C .15400002 .568 .14400001 .54200008 .13700001 .523 C .097 .41700004 .079 .36 .079 .31300003 C .079 .224 .142 .194 .201 .194 C .24000003 .194 .274 .21100001 .30200003 .23900002 C .289 .187 .277 .13800001 .237 .08500001 C .21100001 .051 .17300001 .022 .127 .022 C .113000009 .022 .068 .025000006 .051000008 .06400001 C .067 .06400001 .080000009 .06400001 .094000007 .076000008 C .104 .08500001 .11400001 .098000008 .11400001 .117000009 C .11400001 .148 .087000008 .15200001 .07700001 .15200001 C .054000006 .15200001 .021 .136 .021 .087000008 C .021 .037 .065000008 0 .127 0 C .23 0 .333 .091000009 .361 .20400001 L .45700003 .586 Z "/>
</symbol>
<use xlink:href="#font_2_2" transform="matrix(9.9626,0,0,-9.9626,75.430919,35.310338)" fill="#000080"/>
<symbol id="font_3_7">
<path d="M .63100007 .19400002 C .646 .19400002 .665 .19400002 .665 .214 C .665 .23400001 .646 .23400001 .632 .23400001 L .033 .23400001 C .019000002 .23400001 0 .23400001 0 .214 C 0 .19400002 .019000002 .19400002 .034 .19400002 L .63100007 .19400002 M .632 0 C .646 0 .665 0 .665 .02000001 C .665 .040000008 .646 .040000008 .63100007 .040000008 L .034 .040000008 C .019000002 .040000008 0 .040000008 0 .02000001 C 0 0 .019000002 0 .033 0 L .632 0 Z "/>
</symbol>
<symbol id="font_3_5">
<path d="M .266 .165 L .266 .078 C .266 .042000005 .26400004 .031000002 .19000001 .031000002 L .16900002 .031000002 L .16900002 0 C .21000001 .003 .26200003 .003 .30400003 .003 C .34600003 .003 .39900003 .003 .44000004 0 L .44000004 .031000002 L .41900004 .031000002 C .34500004 .031000002 .34300003 .042000005 .34300003 .078 L .34300003 .165 L .44300003 .165 L .44300003 .19600001 L .34300003 .19600001 L .34300003 .651 C .34300003 .671 .34300003 .67700007 .32700003 .67700007 C .31800003 .67700007 .31500004 .67700007 .307 .665 L 0 .19600001 L 0 .165 L .266 .165 M .272 .19600001 L .028 .19600001 L .272 .569 L .272 .19600001 Z "/>
</symbol>
<use xlink:href="#font_3_7" transform="matrix(9.9626,0,0,-9.9626,83.70891,31.94298)" fill="#000080"/>
<use xlink:href="#font_3_5" transform="matrix(9.9626,0,0,-9.9626,93.950458,33.268007)" fill="#000080"/>
<symbol id="font_2_1">
<path d="M .305 .31300003 C .311 .33900003 .334 .43100003 .404 .43100003 C .409 .43100003 .433 .43100003 .454 .418 C .426 .41300003 .40600003 .388 .40600003 .36400003 C .40600003 .34800003 .417 .32900004 .444 .32900004 C .46600003 .32900004 .498 .34700004 .498 .38700003 C .498 .43900005 .439 .45300005 .405 .45300005 C .347 .45300005 .312 .40000005 .3 .37700004 C .275 .44300003 .221 .45300005 .19200002 .45300005 C .08800001 .45300005 .031000002 .32400004 .031000002 .29900003 C .031000002 .28900004 .041 .28900004 .043000007 .28900004 C .051000008 .28900004 .054000006 .291 .056 .3 C .09 .40600003 .156 .43100003 .19000001 .43100003 C .209 .43100003 .244 .42200003 .244 .36400003 C .244 .33300004 .22700002 .26600004 .19000001 .126 C .17400001 .064 .13900002 .022000002 .095000009 .022000002 C .08900001 .022000002 .06600001 .022000002 .045 .035 C .07000001 .040000004 .09200001 .061 .09200001 .089 C .09200001 .116000007 .07000001 .124000009 .055000009 .124000009 C .025 .124000009 0 .098000008 0 .06600001 C 0 .020000002 .050000006 0 .094000007 0 C .16000001 0 .19600001 .07000001 .19900002 .076000008 C .21100001 .039 .24700003 0 .307 0 C .41 0 .467 .12900001 .467 .15400002 C .467 .16400002 .458 .16400002 .455 .16400002 C .446 .16400002 .444 .16000001 .442 .15300001 C .409 .046 .341 .022000002 .30900003 .022000002 C .27 .022000002 .254 .054 .254 .08800001 C .254 .11000001 .26 .13200002 .271 .17600002 L .305 .31300003 Z "/>
</symbol>
<use xlink:href="#font_2_1" transform="matrix(9.9626,0,0,-9.9626,98.93792,33.377595)" fill="#000080"/>
<symbol id="font_4_2">
<path d="M .219 .35400004 C .29700003 .35400004 .35300002 .3 .35300002 .193 C .35300002 .069000009 .28100003 .032 .223 .032 C .18300002 .032 .095 .043000007 .053000008 .102000009 C .10000001 .10400001 .111 .13700001 .111 .158 C .111 .19 .087 .213 .056000007 .213 C .028 .213 0 .19600001 0 .155 C 0 .061000006 .104 0 .22500001 0 C .36400003 0 .46 .09300001 .46 .193 C .46 .27100004 .39600004 .34900005 .286 .37200005 C .39100004 .41000004 .42900003 .48500005 .42900003 .546 C .42900003 .625 .33800004 .684 .22700002 .684 C .116 .684 .031 .63 .031 .55 C .031 .51600006 .053000008 .49700005 .083000008 .49700005 C .11400001 .49700005 .134 .52 .134 .548 C .134 .577 .11400001 .598 .083000008 .6 C .118 .644 .187 .65500006 .22400002 .65500006 C .26900003 .65500006 .33200003 .633 .33200003 .546 C .33200003 .504 .31800003 .45800004 .29200004 .42700003 C .25900004 .38900004 .23100002 .38700003 .18100001 .38400004 C .156 .38200004 .154 .38200004 .149 .38100005 C .147 .38100005 .139 .37900005 .139 .36800004 C .139 .35400004 .148 .35400004 .165 .35400004 L .219 .35400004 Z "/>
</symbol>
<use xlink:href="#font_4_2" transform="matrix(6.9738,0,0,-6.9738,104.71959,29.294476)" fill="#000080"/>
<symbol id="font_3_1">
<path d="M .35300002 .31300003 L .632 .31300003 C .646 .31300003 .665 .31300003 .665 .333 C .665 .35300002 .646 .35300002 .632 .35300002 L .35300002 .35300002 L .35300002 .633 C .35300002 .647 .35300002 .666 .33300004 .666 C .31300003 .666 .31300003 .647 .31300003 .633 L .31300003 .35300002 L .033 .35300002 C .019000002 .35300002 0 .35300002 0 .333 C 0 .31300003 .019000002 .31300003 .033 .31300003 L .31300003 .31300003 L .31300003 .033000005 C .31300003 .019000002 .31300003 0 .33300004 0 C .35300002 0 .35300002 .019000002 .35300002 .033000005 L .35300002 .31300003 Z "/>
</symbol>
<symbol id="font_3_2">
<path d="M .205 .64000007 C .205 .66400006 .205 .666 .18200003 .666 C .120000008 .60200008 .032000007 .60200008 0 .60200008 L 0 .57100006 C .020000004 .57100006 .07900001 .57100006 .13100001 .597 L .13100001 .079 C .13100001 .043 .128 .031000002 .038000004 .031000002 L .0060000049 .031000002 L .0060000049 0 C .04100001 .003 .128 .003 .168 .003 C .20800002 .003 .29500003 .003 .33000005 0 L .33000005 .031000002 L .29800005 .031000002 C .20800002 .031000002 .205 .042000005 .205 .079 L .205 .64000007 Z "/>
</symbol>
<symbol id="font_3_6">
<path d="M .39900003 .223 C .39900003 .34200005 .317 .44200004 .209 .44200004 C .16100002 .44200004 .118000019 .42600004 .082 .39100004 L .082 .586 C .10200001 .58000007 .135 .573 .16700001 .573 C .29 .573 .36 .66400006 .36 .67700007 C .36 .683 .357 .688 .35 .688 C .349 .688 .347 .688 .342 .68500009 C .322 .67600008 .273 .656 .20600002 .656 C .16600001 .656 .120000008 .66300007 .073 .6840001 C .065 .68700006 .06300001 .68700006 .061000009 .68700006 C .051000004 .68700006 .051000004 .679 .051000004 .66300007 L .051000004 .36700005 C .051000004 .34900005 .051000004 .34100003 .065 .34100003 C .07200001 .34100003 .074 .34400005 .07800001 .35000003 C .08900002 .36600004 .12600002 .42000006 .207 .42000006 C .259 .42000006 .284 .37400005 .292 .35600005 C .308 .31900005 .31 .28000004 .31 .23 C .31 .19500001 .31 .135 .286 .093 C .262 .054000006 .22500001 .028 .17900002 .028 C .106000009 .028 .049000008 .08100001 .032 .14000002 C .035 .13900002 .038000008 .13800001 .049000008 .13800001 C .082 .13800001 .09900001 .163 .09900001 .187 C .09900001 .21100001 .082 .23600002 .049000008 .23600002 C .035 .23600002 0 .22900002 0 .18300002 C 0 .097 .069000009 0 .18100001 0 C .297 0 .39900003 .096 .39900003 .223 Z "/>
</symbol>
<use xlink:href="#font_3_1" transform="matrix(9.9626,0,0,-9.9626,111.58391,34.094903)" fill="#000080"/>
<use xlink:href="#font_3_2" transform="matrix(9.9626,0,0,-9.9626,121.875278,33.268007)" fill="#000080"/>
<use xlink:href="#font_3_6" transform="matrix(9.9626,0,0,-9.9626,126.46803,33.487184)" fill="#000080"/>
<use xlink:href="#font_2_2" transform="matrix(9.9626,0,0,-9.9626,140.77292,135.48433)" fill="#800000"/>
<symbol id="font_3_4">
<path d="M .24800003 .37400005 C .33 .40100003 .388 .47100006 .388 .55 C .388 .632 .3 .688 .204 .688 C .10300001 .688 .027000003 .628 .027000003 .55200007 C .027000003 .519 .049000004 .5 .078 .5 C .109000008 .5 .12900001 .522 .12900001 .55100008 C .12900001 .6010001 .082 .6010001 .067 .6010001 C .098 .65000006 .164 .66300007 .20000002 .66300007 C .24100003 .66300007 .29600004 .64100006 .29600004 .55100008 C .29600004 .53900006 .29400004 .48100005 .268 .43700005 C .238 .38900004 .204 .38600005 .17900002 .38500003 C .171 .38400004 .14700002 .38200004 .14000002 .38200004 C .132 .38100005 .125 .38000003 .125 .37000004 C .125 .35900004 .132 .35900004 .14900002 .35900004 L .19300002 .35900004 C .275 .35900004 .312 .29100005 .312 .193 C .312 .057000005 .24300003 .028 .199 .028 C .15600002 .028 .081 .045 .046000005 .104 C .081 .09900001 .11200001 .12100001 .11200001 .15900001 C .11200001 .19500001 .085 .215 .056 .215 C .031999999 .215 0 .201 0 .157 C 0 .06600001 .093 0 .20200002 0 C .32400004 0 .41500003 .091000009 .41500003 .193 C .41500003 .27500005 .35200004 .35300005 .24800003 .37400005 Z "/>
</symbol>
<use xlink:href="#font_3_7" transform="matrix(9.9626,0,0,-9.9626,149.05092,132.11698)" fill="#800000"/>
<use xlink:href="#font_3_4" transform="matrix(9.9626,0,0,-9.9626,159.43195,133.66118)" fill="#800000"/>
<use xlink:href="#font_2_1" transform="matrix(9.9626,0,0,-9.9626,164.27993,133.55159)" fill="#800000"/>
<symbol id="font_4_1">
<path d="M .442 .18200001 L .40800003 .18200001 C .40500004 .16000001 .39500005 .101 .38200004 .091000009 C .374 .085 .29700003 .085 .28300003 .085 L .099 .085 C .20400003 .178 .23900002 .20600002 .29900003 .25300003 C .37300004 .312 .442 .374 .442 .469 C .442 .59000006 .33600004 .66400006 .20800004 .66400006 C .084 .66400006 0 .577 0 .485 C 0 .43400003 .043000007 .42900003 .053000004 .42900003 C .077 .42900003 .10600001 .446 .10600001 .48200003 C .10600001 .5 .099 .535 .047000007 .535 C .078 .606 .146 .628 .19300002 .628 C .293 .628 .34500004 .55 .34500004 .469 C .34500004 .38200004 .28300003 .31300003 .25100003 .277 L .010000005 .039 C 0 .030000002 0 .028 0 0 L .41200004 0 L .442 .18200001 Z "/>
</symbol>
<use xlink:href="#font_4_1" transform="matrix(6.9738,0,0,-6.9738,170.12335,129.32901)" fill="#800000"/>
<symbol id="font_5_1">
<path d="M .57600006 0 C .59300008 0 .611 0 .611 .019999996 C .611 .040000008 .59300008 .040000008 .57600006 .040000008 L .035000005 .040000008 C .018 .040000008 0 .040000008 0 .019999996 C 0 0 .018 0 .035000005 0 L .57600006 0 Z "/>
</symbol>
<use xlink:href="#font_5_1" transform="matrix(9.9626,0,0,-9.9626,177.1949,131.1506)" fill="#800000"/>
<symbol id="font_3_3">
<path d="M .07700001 .07700001 L .18300002 .18 C .33900003 .31800003 .39900003 .372 .39900003 .47200004 C .39900003 .586 .30900003 .666 .18700002 .666 C .074 .666 0 .574 0 .485 C 0 .42900003 .05 .42900003 .053000008 .42900003 C .07000001 .42900003 .105000007 .441 .105000007 .48200003 C .105000007 .508 .08700001 .53400006 .052000006 .53400006 C .044000005 .53400006 .042000008 .53400006 .039 .53300008 C .062000004 .59800007 .11600001 .63500007 .17400001 .63500007 C .26500003 .63500007 .308 .554 .308 .47200004 C .308 .39200003 .25800003 .31300003 .20300003 .25100003 L .011000004 .037 C 0 .026 0 .024 0 0 L .37100003 0 L .39900003 .17400001 L .374 .17400001 C .36900003 .14400001 .36200003 .1 .352 .085 C .345 .07700001 .279 .07700001 .257 .07700001 L .07700001 .07700001 Z "/>
</symbol>
<use xlink:href="#font_3_3" transform="matrix(9.9626,0,0,-9.9626,186.82814,133.442)" fill="#800000"/>
</g>
<use xlink:href="#font_5_1" transform="matrix(9.9626,0,0,-9.9626,6.088896,162.2166)"/>
<use xlink:href="#font_3_2" transform="matrix(9.9626,0,0,-9.9626,13.896671,164.508)"/>
<use xlink:href="#font_3_2" transform="matrix(9.9626,0,0,-9.9626,124.29767,164.508)"/>
<use xlink:href="#font_2_1" transform="matrix(9.9626,0,0,-9.9626,198.37693,154.61859)"/>
<use xlink:href="#font_2_2" transform="matrix(9.9626,0,0,-9.9626,66.44392,9.726324)"/>
<path transform="matrix(1,0,0,-1,.199,174.629)" stroke-width="1" stroke-linecap="butt" stroke-miterlimit="10" stroke-linejoin="miter" fill="none" stroke="#808080" d="M 11.42763 20.13509 L 11.42763 24.38722 M 125.70393 20.13509 L 125.70393 24.38722 "/>
<path transform="matrix(1,0,0,-1,.199,174.629)" stroke-width="1" stroke-linecap="butt" stroke-miterlimit="10" stroke-linejoin="miter" fill="none" stroke="#000000" d="M 0 22.26115 L 192.2772 22.26115 "/>
<path transform="matrix(1,0,0,-1,192.47621,152.36785)" d="M 1.99252 0 L -1.19551 1.59401 L 0 0 L -1.19551 -1.59401 "/>
<path transform="matrix(1,0,0,-1,.199,174.629)" stroke-width="1" stroke-linecap="butt" stroke-miterlimit="10" stroke-linejoin="miter" fill="none" stroke="#000000" d="M 68.56578 0 L 68.56578 159.40094 "/>
<path transform="matrix(0,-1,-1,-0,68.76478,15.228058)" d="M 1.99252 0 L -1.19551 1.59401 L 0 0 L -1.19551 -1.59401 "/>
</svg>
