<?xml version="1.0" encoding="UTF-8" standalone="no"?>
<!DOCTYPE svg PUBLIC "-//W3C//DTD SVG 1.1//EN" "http://www.w3.org/Graphics/SVG/1.1/DTD/svg11.dtd">
<svg xmlns="http://www.w3.org/2000/svg" xmlns:xlink="http://www.w3.org/1999/xlink" version="1.1" width="207.184pt" height="174.802pt" viewBox="0 0 207.184 174.802">
<clipPath id="cp0">
<path transform="matrix(1,0,0,-1,.199,174.603)" d="M 0 0 L 194.27436 0 L 194.27436 161.39003 L 0 161.39003 Z "/>
</clipPath>
<g clip-path="url(#cp0)">
<path transform="matrix(1,0,0,-1,.199,174.603)" d="M 34.49731 62.47356 L 36.76686 60.84663 L 39.03642 59.21973 L 41.30598 57.5928 L 43.57555 55.9659 L 45.8451 54.33897 L 48.11467 52.71207 L 50.38423 51.08514 L 52.6538 49.45824 L 54.92334 47.83131 L 57.1929 46.20439 L 59.46246 44.57748 L 61.73204 42.95056 L 64.00159 41.32365 L 66.27115 39.69673 L 68.54071 38.06982 L 70.81027 36.4429 L 73.07982 34.816 L 75.3494 33.18907 L 77.61896 31.56216 L 79.88852 29.93524 L 82.15807 28.30832 L 84.42763 26.68141 L 86.69719 25.05449 L 88.96675 23.42758 L 70.80968 140.56426 L 69.29668 137.3105 L 67.78365 134.0567 L 66.27063 130.8029 L 64.75763 127.54915 L 63.24461 124.29536 L 61.7316 121.04158 L 60.21857 117.78783 L 58.70557 114.53403 L 57.19254 111.28024 L 55.67952 108.02649 L 54.1665 104.77269 L 52.6535 101.5189 L 51.14049 98.2651 L 49.62746 95.01135 L 48.11446 91.75757 L 46.60143 88.50378 L 45.08841 85.25003 L 43.5754 81.99623 L 42.0624 78.7425 L 40.54936 75.48868 L 39.03635 72.2349 L 37.52335 68.98111 L 36.01031 65.72736 L 34.49731 62.47356 Z " fill="#cccce6"/>
</g>
<clipPath id="cp1">
<path transform="matrix(1,0,0,-1,.199,174.603)" d="M 0 0 L 194.27436 0 L 194.27436 161.39003 L 0 161.39003 Z "/>
</clipPath>
<g clip-path="url(#cp1)">
<path transform="matrix(1,0,0,-1,.199,174.603)" d="M 70.81027 140.5655 L 71.56679 140.02323 L 72.3233 139.4809 L 73.07982 138.9386 L 73.83633 138.39632 L 74.59286 137.854 L 75.34938 137.31168 L 76.1059 136.7694 L 76.86241 136.2271 L 77.61894 135.68477 L 78.37544 135.14249 L 79.13197 134.60018 L 79.88849 134.05785 L 80.64502 133.51557 L 81.40152 132.97327 L 82.15805 132.43094 L 82.91457 131.88864 L 83.67108 131.34635 L 84.4276 130.80406 L 85.18413 130.26174 L 85.94064 129.71944 L 86.69716 129.17714 L 87.45367 128.63481 L 88.2102 128.09252 L 88.9667 127.55023 L 88.9667 23.42763 L 88.2102 23.96991 L 87.45367 24.5122 L 86.69716 25.05453 L 85.94064 25.59683 L 85.18413 26.13913 L 84.4276 26.68146 L 83.67108 27.22374 L 82.91457 27.76604 L 82.15805 28.30832 L 81.40152 28.85066 L 80.64502 29.39296 L 79.88849 29.93524 L 79.13197 30.47757 L 78.37544 31.01987 L 77.61894 31.56216 L 76.86241 32.10449 L 76.1059 32.64679 L 75.34938 33.18907 L 74.59286 33.7314 L 73.83633 34.2737 L 73.07982 34.816 L 72.3233 35.35829 L 71.56679 35.90062 L 70.81027 36.4429 Z " fill="#cccce6"/>
</g>
<clipPath id="cp2">
<path transform="matrix(1,0,0,-1,.199,174.603)" d="M 0 0 L 194.27436 0 L 194.27436 161.39003 L 0 161.39003 Z "/>
</clipPath>
<g clip-path="url(#cp2)">
<path transform="matrix(1,0,0,-1,.199,174.603)" d="M 88.96675 127.55019 L 91.99281 125.38098 L 95.01888 123.21176 L 98.04495 121.04257 L 101.07101 118.87335 L 104.09709 116.7041 L 107.12315 114.53491 L 110.14923 112.36569 L 113.1753 110.19649 L 116.20135 108.02728 L 119.22743 105.85808 L 122.2535 103.68887 L 125.27957 101.51965 L 128.30564 99.35045 L 131.33171 97.18124 L 134.35778 95.012 L 137.38385 92.84279 L 140.4099 90.67357 L 143.43598 88.50438 L 146.46204 86.33516 L 149.48812 84.16595 L 152.51418 81.99675 L 155.54026 79.82755 L 158.56632 77.6583 L 161.59239 75.48907 L 161.59239 75.48868 L 158.56632 73.31949 L 155.54026 71.15024 L 152.51418 68.98102 L 149.48812 66.81181 L 146.46204 64.64261 L 143.43598 62.4734 L 140.4099 60.30418 L 137.38385 58.135 L 134.35778 55.96579 L 131.33171 53.79652 L 128.30564 51.62732 L 125.27957 49.45813 L 122.2535 47.28891 L 119.22743 45.1197 L 116.20135 42.95049 L 113.1753 40.7813 L 110.14923 38.61208 L 107.12315 36.44287 L 104.09709 34.27365 L 101.07101 32.10442 L 98.04495 29.93521 L 95.01888 27.76599 L 91.99281 25.5968 L 88.96675 23.42758 Z " fill="#cccce6"/>
</g>
<clipPath id="cp3">
<path transform="matrix(1,0,0,-1,.199,174.603)" d="M 0 0 L 194.27436 0 L 194.27436 161.39003 L 0 161.39003 Z "/>
</clipPath>
<g clip-path="url(#cp3)">
<path transform="matrix(1,0,0,-1,.199,174.603)" stroke-width="1.19553" stroke-linecap="butt" stroke-miterlimit="10" stroke-linejoin="miter" fill="none" stroke="#000080" d="M 1.81564 85.90114 C 1.81564 85.90114 3.11421 84.97028 3.61295 84.61276 C 4.11168 84.25523 4.91151 83.6819 5.41025 83.32437 C 5.909 82.96686 6.70883 82.39351 7.20757 82.036 C 7.7063 81.67847 8.50613 81.10513 9.00487 80.7476 C 9.5036 80.39009 10.30344 79.81674 10.80219 79.45923 C 11.30093 79.10172 12.10077 78.52835 12.5995 78.17084 C 13.09824 77.81331 13.89807 77.23997 14.3968 76.88245 C 14.89552 76.52493 15.69537 75.95158 16.1941 75.59407 C 16.69286 75.23654 17.49269 74.66321 17.99142 74.30568 C 18.49016 73.94817 19.29 73.37482 19.78873 73.0173 C 20.28746 72.65977 21.0873 72.08644 21.58604 71.72891 C 22.0848 71.3714 22.88463 70.79803 23.38336 70.44052 C 23.88208 70.083 24.68193 69.50963 25.18065 69.1521 C 25.67938 68.79459 26.47922 68.22122 26.97797 67.86371 C 27.47672 67.50618 28.27655 66.93285 28.77528 66.57532 C 29.27402 66.2178 30.07385 65.64445 30.57259 65.28694 C 31.07132 64.92943 31.87115 64.35608 32.3699 63.99855 C 32.86865 63.64104 33.66847 63.06769 34.16722 62.71017 C 34.66595 62.35266 35.4658 61.77931 35.96452 61.4218 C 36.46326 61.06427 37.26309 60.49092 37.76183 60.13339 C 38.26056 59.77588 39.0604 59.20253 39.55914 58.84502 C 40.05789 58.48749 40.85773 57.91415 41.35646 57.55663 C 41.8552 57.19911 42.65503 56.62576 43.15376 56.26825 C 43.65248 55.91072 44.45233 55.33739 44.95107 54.97986 C 45.44981 54.62234 46.24965 54.049 46.74838 53.69148 C 47.24712 53.33395 48.04695 52.7606 48.54568 52.40308 C 49.04442 52.04556 49.84425 51.47221 50.343 51.1147 C 50.84175 50.75717 51.64157 50.18384 52.14032 49.82631 C 52.63907 49.4688 53.4389 48.89545 53.93764 48.53793 C 54.43636 48.18042 55.23619 47.60707 55.73492 47.24956 C 56.23366 46.89203 57.0335 46.3187 57.53224 45.96117 C 58.03099 45.60365 58.83083 45.03029 59.32956 44.67278 C 59.8283 44.31525 60.62813 43.74191 61.12686 43.38438 C 61.6256 43.02687 62.42543 42.45352 62.92418 42.09601 C 63.42291 41.73848 64.22276 41.16515 64.72148 40.80762 C 65.22021 40.4501 66.02005 39.87675 66.51878 39.51924 C 67.01752 39.16171 67.81735 38.58838 68.3161 38.23085 C 68.81485 37.87334 69.61467 37.29994 70.11342 36.94243 C 70.61217 36.5849 71.412 36.01157 71.91074 35.65404 C 72.40947 35.29652 73.2093 34.72316 73.70804 34.36565 C 74.20676 34.00813 75.00659 33.43478 75.50534 33.07726 C 76.00409 32.71974 76.80392 32.1464 77.30266 31.78888 C 77.80139 31.43137 78.60123 30.85802 79.09996 30.5005 C 79.5987 30.14297 80.39853 29.56964 80.89728 29.21211 C 81.39603 28.8546 82.19586 28.28125 82.6946 27.92374 C 83.19331 27.56621 83.99316 26.99286 84.49188 26.63533 C 84.99062 26.27782 85.79045 25.70447 86.2892 25.34695 C 86.78795 24.98943 87.58777 24.41609 88.08652 24.05856 C 88.58527 23.70105 89.3851 23.1277 89.88383 22.77019 C 90.38257 22.41266 91.1824 21.83932 91.68114 21.4818 C 92.17987 21.12428 92.9797 20.55093 93.47845 20.19342 C 93.97719 19.83589 94.77702 19.26256 95.27576 18.90503 C 95.77449 18.54752 96.57433 17.97415 97.07306 17.61664 C 97.5718 17.25912 98.37163 16.68578 98.87038 16.32826 C 99.36913 15.97073 100.16896 15.39738 100.6677 15.03987 C 101.16643 14.68236 101.96626 14.10901 102.465 13.7515 C 102.96371 13.39397 103.76357 12.82063 104.2623 12.4631 C 104.76105 12.10559 105.56087 11.53224 106.05962 11.17473 C 106.55836 10.8172 107.3582 10.24385 107.85693 9.88632 C 108.35567 9.52881 109.1555 8.95546 109.65424 8.59795 C 110.15297 8.24042 110.9528 7.66708 111.45155 7.30956 C 111.9503 6.95204 112.75014 6.3787 113.24887 6.02118 C 113.74759 5.66365 114.54742 5.09027 115.04616 4.73274 C 115.54489 4.37523 116.34473 3.80188 116.84348 3.44437 C 117.34222 3.08684 118.14206 2.5135 118.6408 2.15598 C 119.13953 1.79846 119.93936 1.22511 120.4381 .8676 C 120.93683 .51009 121.73666 -.06326 122.23541 -.42078 C 122.73415 -.7783 123.53398 -1.35164 124.03271 -1.70917 C 124.53146 -2.06668 125.3313 -2.64003 125.83003 -2.99754 C 126.32877 -3.35507 127.1286 -3.9284 127.62733 -4.28593 C 128.12607 -4.64345 128.9259 -5.2168 129.42465 -5.57431 C 129.9234 -5.93184 130.72324 -6.50517 131.22197 -6.8627 C 131.7207 -7.22021 132.52054 -7.79358 133.01927 -8.1511 C 133.51799 -8.50862 134.31783 -9.08195 134.81658 -9.43948 C 135.31533 -9.797 136.11516 -10.37035 136.61389 -10.72786 C 137.11263 -11.08539 137.91246 -11.65872 138.4112 -12.01625 C 138.90993 -12.37376 139.70977 -12.94711 140.20851 -13.30463 C 140.70726 -13.66214 141.50708 -14.23549 142.00583 -14.593 C 142.50457 -14.95053 143.30442 -15.5239 143.80313 -15.88141 C 144.30187 -16.23892 145.1017 -16.81227 145.60044 -17.16978 C 146.09917 -17.52731 146.899 -18.10065 147.39775 -18.45818 C 147.8965 -18.81569 148.69634 -19.38904 149.19507 -19.74655 C 149.6938 -20.10408 150.49364 -20.67741 150.99237 -21.03494 C 151.4911 -21.39246 152.29094 -21.9658 152.78968 -22.32332 C 153.28842 -22.68085 154.08826 -23.2542 154.58699 -23.61172 C 155.08573 -23.96924 155.88556 -24.54259 156.3843 -24.9001 C 156.88303 -25.25763 157.68286 -25.83096 158.18161 -26.18849 C 158.68036 -26.546 159.4802 -27.11935 159.97893 -27.47687 C 160.47766 -27.8344 161.2775 -28.40778 161.77623 -28.7653 C 162.27495 -29.12282 163.0748 -29.69617 163.57353 -30.05368 C 164.07228 -30.4112 164.87212 -30.98454 165.37085 -31.34206 C 165.86959 -31.69958 166.66942 -32.27292 167.16815 -32.63045 C 167.66689 -32.98796 168.46672 -33.56133 168.96547 -33.91884 C 169.46422 -34.27637 170.26404 -34.8497 170.76279 -35.20723 C 171.26154 -35.56474 172.06137 -36.13809 172.56009 -36.4956 C 173.05883 -36.85313 173.85866 -37.42647 174.35739 -37.784 C 174.85613 -38.14151 175.65596 -38.71486 176.15471 -39.07237 C 176.65346 -39.4299 177.4533 -40.00323 177.95203 -40.36076 C 178.45076 -40.71828 179.74933 -41.64914 179.74933 -41.64914 "/>
<path transform="matrix(1,0,0,-1,.199,174.603)" stroke-width="1.19553" stroke-linecap="butt" stroke-miterlimit="10" stroke-linejoin="miter" fill="none" stroke="#800000" d="M 1.81564 190.02375 C 1.81564 190.02375 3.11421 189.09288 3.61295 188.73537 C 4.11168 188.37786 4.91151 187.8045 5.41025 187.44699 C 5.909 187.08946 6.70883 186.51612 7.20757 186.1586 C 7.7063 185.80109 8.50613 185.22774 9.00487 184.87023 C 9.5036 184.5127 10.30344 183.93936 10.80219 183.58184 C 11.30093 183.22432 12.10077 182.65096 12.5995 182.29344 C 13.09824 181.93592 13.89807 181.36258 14.3968 181.00505 C 14.89552 180.64754 15.69537 180.07419 16.1941 179.71668 C 16.69286 179.35915 17.49269 178.78582 17.99142 178.42829 C 18.49016 178.07077 19.29 177.49742 19.78873 177.13991 C 20.28746 176.78238 21.0873 176.20905 21.58604 175.85152 C 22.0848 175.494 22.88463 174.92061 23.38336 174.5631 C 23.88208 174.20557 24.68193 173.63224 25.18065 173.2747 C 25.67938 172.91719 26.47922 172.34383 26.97797 171.98632 C 27.47672 171.6288 28.27655 171.05545 28.77528 170.69794 C 29.27402 170.34041 30.07385 169.76708 30.57259 169.40955 C 31.07132 169.05204 31.87115 168.47869 32.3699 168.12117 C 32.86865 167.76364 33.66847 167.1903 34.16722 166.83278 C 34.66595 166.47527 35.4658 165.90192 35.96452 165.5444 C 36.46326 165.18688 37.26309 164.61353 37.76183 164.256 C 38.26056 163.89849 39.0604 163.32514 39.55914 162.96762 C 40.05789 162.61009 40.85773 162.03676 41.35646 161.67923 C 41.8552 161.32172 42.65503 160.74837 43.15376 160.39086 C 43.65248 160.03333 44.45233 159.45999 44.95107 159.10247 C 45.44981 158.74495 46.24965 158.1716 46.74838 157.81409 C 47.24712 157.45658 48.04695 156.88321 48.54568 156.5257 C 49.04442 156.16817 49.84425 155.59482 50.343 155.2373 C 50.84175 154.87979 51.64157 154.30644 52.14032 153.94893 C 52.63907 153.5914 53.4389 153.01807 53.93764 152.66054 C 54.43636 152.30303 55.23619 151.72968 55.73492 151.37216 C 56.23366 151.01464 57.0335 150.4413 57.53224 150.08377 C 58.03099 149.72626 58.83083 149.1529 59.32956 148.79538 C 59.8283 148.43785 60.62813 147.86452 61.12686 147.50699 C 61.6256 147.14948 62.42543 146.57613 62.92418 146.21862 C 63.42291 145.86109 64.22276 145.28775 64.72148 144.93022 C 65.22021 144.57271 66.02005 143.99936 66.51878 143.64185 C 67.01752 143.28432 67.81735 142.71099 68.3161 142.35346 C 68.81485 141.99594 69.61467 141.42255 70.11342 141.06504 C 70.61217 140.70752 71.412 140.13417 71.91074 139.77666 C 72.40947 139.41913 73.2093 138.84578 73.70804 138.48825 C 74.20676 138.13074 75.00659 137.55739 75.50534 137.19988 C 76.00409 136.84235 76.80392 136.26902 77.30266 135.91149 C 77.80139 135.55397 78.60123 134.98062 79.09996 134.62311 C 79.5987 134.26558 80.39853 133.69225 80.89728 133.33472 C 81.39603 132.9772 82.19586 132.40386 82.6946 132.04634 C 83.19331 131.68881 83.99316 131.11547 84.49188 130.75794 C 84.99062 130.40042 85.79045 129.82707 86.2892 129.46956 C 86.78795 129.11203 87.58777 128.5387 88.08652 128.18117 C 88.58527 127.82365 89.3851 127.2503 89.88383 126.89279 C 90.38257 126.53528 91.1824 125.96193 91.68114 125.6044 C 92.17987 125.24689 92.9797 124.67354 93.47845 124.31602 C 93.97719 123.95851 94.77702 123.38516 95.27576 123.02765 C 95.77449 122.67012 96.57433 122.09677 97.07306 121.73924 C 97.5718 121.38173 98.37163 120.80838 98.87038 120.45087 C 99.36913 120.09334 100.16896 119.52 100.6677 119.16248 C 101.16643 118.80496 101.96626 118.23161 102.465 117.8741 C 102.96371 117.51657 103.76357 116.94324 104.2623 116.58571 C 104.76105 116.2282 105.56087 115.65485 106.05962 115.29733 C 106.55836 114.9398 107.3582 114.36646 107.85693 114.00893 C 108.35567 113.65141 109.1555 113.07806 109.65424 112.72055 C 110.15297 112.36302 110.9528 111.78969 111.45155 111.43216 C 111.9503 111.07465 112.75014 110.5013 113.24887 110.14378 C 113.74759 109.78627 114.54742 109.21288 115.04616 108.85536 C 115.54489 108.49783 116.34473 107.9245 116.84348 107.56697 C 117.34222 107.20946 118.14206 106.63611 118.6408 106.2786 C 119.13953 105.92107 119.93936 105.34773 120.4381 104.9902 C 120.93683 104.63269 121.73666 104.05933 122.23541 103.70181 C 122.73415 103.34428 123.53398 102.77095 124.03271 102.41342 C 124.53146 102.05591 125.3313 101.48256 125.83003 101.12505 C 126.32877 100.76752 127.1286 100.19418 127.62733 99.83665 C 128.12607 99.47914 128.9259 98.90579 129.42465 98.54828 C 129.9234 98.19075 130.72324 97.61742 131.22197 97.25989 C 131.7207 96.90237 132.52054 96.32901 133.01927 95.9715 C 133.51799 95.61398 134.31783 95.04063 134.81658 94.6831 C 135.31533 94.32559 136.11516 93.75224 136.61389 93.39473 C 137.11263 93.03722 137.91246 92.46387 138.4112 92.10635 C 138.90993 91.74883 139.70977 91.17549 140.20851 90.81796 C 140.70726 90.46045 141.50708 89.8871 142.00583 89.52959 C 142.50457 89.17206 143.30442 88.59871 143.80313 88.24118 C 144.30187 87.88367 145.1017 87.31032 145.60044 86.9528 C 146.09917 86.59528 146.899 86.02194 147.39775 85.66441 C 147.8965 85.3069 148.69634 84.73355 149.19507 84.37604 C 149.6938 84.01851 150.49364 83.44518 150.99237 83.08765 C 151.4911 82.73013 152.29094 82.15678 152.78968 81.79927 C 153.28842 81.44174 154.08826 80.8684 154.58699 80.51086 C 155.08573 80.15335 155.88556 79.58 156.3843 79.22249 C 156.88303 78.86497 157.68286 78.29163 158.18161 77.93411 C 158.68036 77.57658 159.4802 77.00323 159.97893 76.64572 C 160.47766 76.28821 161.2775 75.71481 161.77623 75.3573 C 162.27495 74.99977 163.0748 74.42644 163.57353 74.06891 C 164.07228 73.7114 164.87212 73.13805 165.37085 72.78053 C 165.86959 72.423 166.66942 71.84967 167.16815 71.49214 C 167.66689 71.13463 168.46672 70.56126 168.96547 70.20375 C 169.46422 69.84622 170.26404 69.27289 170.76279 68.91536 C 171.26154 68.55785 172.06137 67.9845 172.56009 67.62698 C 173.05883 67.26945 173.85866 66.69612 174.35739 66.3386 C 174.85613 65.98108 175.65596 65.40773 176.15471 65.05022 C 176.65346 64.69269 177.4533 64.11935 177.95203 63.76183 C 178.45076 63.40431 179.74933 62.47345 179.74933 62.47345 "/>
<path transform="matrix(1,0,0,-1,.199,174.603)" stroke-width="1.19553" stroke-linecap="butt" stroke-miterlimit="10" stroke-linejoin="miter" fill="none" stroke="#800080" d="M 1.81564 -39.04597 C 1.81564 -39.04597 3.11421 -38.1151 3.61295 -37.75757 C 4.11168 -37.40005 4.91151 -36.8267 5.41025 -36.4692 C 5.909 -36.11166 6.70883 -35.53833 7.20757 -35.1808 C 7.7063 -34.82329 8.50613 -34.24994 9.00487 -33.89243 C 9.5036 -33.5349 10.30344 -32.96156 10.80219 -32.60403 C 11.30093 -32.24652 12.10077 -31.67317 12.5995 -31.31566 C 13.09824 -30.95813 13.89807 -30.3848 14.3968 -30.02727 C 14.89552 -29.66975 15.69537 -29.09639 16.1941 -28.73888 C 16.69286 -28.38136 17.49269 -27.80801 17.99142 -27.4505 C 18.49016 -27.09297 19.29 -26.51964 19.78873 -26.16211 C 20.28746 -25.8046 21.0873 -25.23125 21.58604 -24.87373 C 22.0848 -24.5162 22.88463 -23.94283 23.38336 -23.5853 C 23.88208 -23.22778 24.68193 -22.65443 25.18065 -22.29692 C 25.67938 -21.93939 26.47922 -21.36606 26.97797 -21.00853 C 27.47672 -20.65102 28.27655 -20.07767 28.77528 -19.72015 C 29.27402 -19.36263 30.07385 -18.78928 30.57259 -18.43175 C 31.07132 -18.07423 31.87115 -17.50089 32.3699 -17.14337 C 32.86865 -16.78584 33.66847 -16.21251 34.16722 -15.85498 C 34.66595 -15.49747 35.4658 -14.92412 35.96452 -14.5666 C 36.46326 -14.20909 37.26309 -13.63574 37.76183 -13.27823 C 38.26056 -12.9207 39.0604 -12.34735 39.55914 -11.98984 C 40.05789 -11.63232 40.85773 -11.05896 41.35646 -10.70145 C 41.8552 -10.34392 42.65503 -9.77058 43.15376 -9.41306 C 43.65248 -9.05554 44.45233 -8.4822 44.95107 -8.12468 C 45.44981 -7.76715 46.24965 -7.19382 46.74838 -6.83629 C 47.24712 -6.47878 48.04695 -5.90543 48.54568 -5.54791 C 49.04442 -5.19038 49.84425 -4.61705 50.343 -4.25952 C 50.84175 -3.90201 51.64157 -3.32864 52.14032 -2.97113 C 52.63907 -2.6136 53.4389 -2.04027 53.93764 -1.68274 C 54.43636 -1.32523 55.23619 -.75188 55.73492 -.39436 C 56.23366 -.03683 57.0335 .53648 57.53224 .89401 C 58.03099 1.25153 58.83083 1.82487 59.32956 2.18239 C 59.8283 2.5399 60.62813 3.11325 61.12686 3.47076 C 61.6256 3.8283 62.42543 4.40164 62.92418 4.75917 C 63.42291 5.11668 64.22276 5.69003 64.72148 6.04755 C 65.22021 6.40508 66.02005 6.97841 66.51878 7.33594 C 67.01752 7.69345 67.81735 8.2668 68.3161 8.62431 C 68.81485 8.98184 69.61467 9.55522 70.11342 9.91275 C 70.61217 10.27026 71.412 10.84361 71.91074 11.20113 C 72.40947 11.55865 73.2093 12.13199 73.70804 12.48952 C 74.20676 12.84703 75.00659 13.42038 75.50534 13.7779 C 76.00409 14.13542 76.80392 14.70877 77.30266 15.0663 C 77.80139 15.42381 78.60123 15.99716 79.09996 16.35468 C 79.5987 16.71219 80.39853 17.28554 80.89728 17.64307 C 81.39603 18.00058 82.19586 18.57393 82.6946 18.93144 C 83.19331 19.28896 83.99316 19.8623 84.49188 20.21982 C 84.99062 20.57735 85.79045 21.15068 86.2892 21.50821 C 86.78795 21.86572 87.58777 22.43909 88.08652 22.7966 C 88.58527 23.15413 89.3851 23.72746 89.88383 24.08499 C 90.38257 24.4425 91.1824 25.01585 91.68114 25.37337 C 92.17987 25.7309 92.9797 26.30423 93.47845 26.66176 C 93.97719 27.01927 94.77702 27.59262 95.27576 27.95013 C 95.77449 28.30766 96.57433 28.881 97.07306 29.23853 C 97.5718 29.59604 98.37163 30.1694 98.87038 30.52692 C 99.36913 30.88445 100.16896 31.45778 100.6677 31.8153 C 101.16643 32.17282 101.96626 32.74617 102.465 33.10368 C 102.96371 33.4612 103.76357 34.03455 104.2623 34.39206 C 104.76105 34.74959 105.56087 35.32292 106.05962 35.68045 C 106.55836 36.03796 107.3582 36.61131 107.85693 36.96883 C 108.35567 37.32635 109.1555 37.89969 109.65424 38.25722 C 110.15297 38.61473 110.9528 39.1881 111.45155 39.54561 C 111.9503 39.90314 112.75014 40.47647 113.24887 40.834 C 113.74759 41.19151 114.54742 41.76491 115.04616 42.12242 C 115.54489 42.47995 116.34473 43.05328 116.84348 43.41081 C 117.34222 43.76833 118.14206 44.34167 118.6408 44.69919 C 119.13953 45.05672 119.93936 45.63005 120.4381 45.98758 C 120.93683 46.3451 121.73666 46.91844 122.23541 47.27596 C 122.73415 47.63347 123.53398 48.20682 124.03271 48.56435 C 124.53146 48.92186 125.3313 49.49522 125.83003 49.85274 C 126.32877 50.21025 127.1286 50.7836 127.62733 51.14111 C 128.12607 51.49864 128.9259 52.07198 129.42465 52.4295 C 129.9234 52.78702 130.72324 53.36037 131.22197 53.71788 C 131.7207 54.07541 132.52054 54.64874 133.01927 55.00627 C 133.51799 55.36378 134.31783 55.93713 134.81658 56.29465 C 135.31533 56.65218 136.11516 57.22552 136.61389 57.58305 C 137.11263 57.94057 137.91246 58.51392 138.4112 58.87143 C 138.90993 59.22896 139.70977 59.80229 140.20851 60.15982 C 140.70726 60.51733 141.50708 61.09068 142.00583 61.4482 C 142.50457 61.80573 143.30442 62.37906 143.80313 62.73659 C 144.30187 63.0941 145.1017 63.66745 145.60044 64.02496 C 146.09917 64.38248 146.899 64.95584 147.39775 65.31335 C 147.8965 65.67088 148.69634 66.24423 149.19507 66.60175 C 149.6938 66.95926 150.49364 67.53261 150.99237 67.89012 C 151.4911 68.24765 152.29094 68.82098 152.78968 69.17851 C 153.28842 69.53603 154.08826 70.10938 154.58699 70.46689 C 155.08573 70.82442 155.88556 71.39775 156.3843 71.75528 C 156.88303 72.1128 157.68286 72.68616 158.18161 73.04367 C 158.68036 73.4012 159.4802 73.97453 159.97893 74.33206 C 160.47766 74.68958 161.2775 75.26297 161.77623 75.62048 C 162.27495 75.97801 163.0748 76.55135 163.57353 76.90887 C 164.07228 77.26639 164.87212 77.83974 165.37085 78.19725 C 165.86959 78.55478 166.66942 79.12811 167.16815 79.48564 C 167.66689 79.84315 168.46672 80.4165 168.96547 80.77402 C 169.46422 81.13153 170.26404 81.70488 170.76279 82.0624 C 171.26154 82.41992 172.06137 82.99327 172.56009 83.3508 C 173.05883 83.70831 173.85866 84.28166 174.35739 84.63918 C 174.85613 84.9967 175.65596 85.57004 176.15471 85.92757 C 176.65346 86.28508 177.4533 86.85843 177.95203 87.21594 C 178.45076 87.57347 179.74933 88.50433 179.74933 88.50433 "/>
<path transform="matrix(1,0,0,-1,.199,174.603)" stroke-width="1.19553" stroke-linecap="butt" stroke-miterlimit="10" stroke-linejoin="miter" fill="none" stroke="#008000" d="M 1.81564 -7.80919 C 1.81564 -7.80919 3.11421 -5.01659 3.61295 -3.94403 C 4.11168 -2.87146 4.91151 -1.15143 5.41025 -.07887 C 5.909 .99367 6.70883 2.71371 7.20757 3.78627 C 7.7063 4.85884 8.50613 6.5789 9.00487 7.65147 C 9.5036 8.72403 10.30344 10.44406 10.80219 11.51662 C 11.30093 12.58917 12.10077 14.30922 12.5995 15.38177 C 13.09824 16.45435 13.89807 18.17436 14.3968 19.24693 C 14.89552 20.31949 15.69537 22.03954 16.1941 23.11209 C 16.69286 24.18465 17.49269 25.90468 17.99142 26.97723 C 18.49016 28.0498 19.29 29.76985 19.78873 30.8424 C 20.28746 31.91496 21.0873 33.635 21.58604 34.70755 C 22.0848 35.78012 22.88463 37.5002 23.38336 38.57277 C 23.88208 39.64532 24.68193 41.36536 25.18065 42.43791 C 25.67938 43.51047 26.47922 45.23051 26.97797 46.30307 C 27.47672 47.37564 28.27655 49.09566 28.77528 50.16823 C 29.27402 51.24078 30.07385 52.96083 30.57259 54.03339 C 31.07132 55.10594 31.87115 56.82597 32.3699 57.89853 C 32.86865 58.9711 33.66847 60.69115 34.16722 61.7637 C 34.66595 62.83626 35.4658 64.55629 35.96452 65.62885 C 36.46326 66.70142 37.26309 68.42143 37.76183 69.494 C 38.26056 70.56656 39.0604 72.2866 39.55914 73.35916 C 40.05789 74.43172 40.85773 76.1518 41.35646 77.22435 C 41.8552 78.29692 42.65503 80.01695 43.15376 81.08952 C 43.65248 82.16208 44.45233 83.88211 44.95107 84.95467 C 45.44981 86.02722 46.24965 87.74727 46.74838 88.81982 C 47.24712 89.8924 48.04695 91.61243 48.54568 92.68498 C 49.04442 93.75754 49.84425 95.47758 50.343 96.55014 C 50.84175 97.62271 51.64157 99.34273 52.14032 100.4153 C 52.63907 101.48785 53.4389 103.20793 53.93764 104.28049 C 54.43636 105.35304 55.23619 107.07309 55.73492 108.14565 C 56.23366 109.21822 57.0335 110.93823 57.53224 112.0108 C 58.03099 113.08336 58.83083 114.8034 59.32956 115.87596 C 59.8283 116.94852 60.62813 118.66855 61.12686 119.7411 C 61.6256 120.81367 62.42543 122.53372 62.92418 123.60628 C 63.42291 124.67883 64.22276 126.39886 64.72148 127.47142 C 65.22021 128.54399 66.02005 130.26403 66.51878 131.3366 C 67.01752 132.40915 67.81735 134.12923 68.3161 135.20178 C 68.81485 136.27434 69.61467 137.99434 70.11342 139.0669 C 70.61217 140.13947 71.412 141.85955 71.91074 142.93213 C 72.40947 144.0047 73.2093 145.72473 73.70804 146.79729 C 74.20676 147.86985 75.00659 149.58988 75.50534 150.66243 C 76.00409 151.735 76.80392 153.45505 77.30266 154.5276 C 77.80139 155.60016 78.60123 157.32019 79.09996 158.39275 C 79.5987 159.46532 80.39853 161.18535 80.89728 162.25792 C 81.39603 163.33048 82.19586 165.0505 82.6946 166.12306 C 83.19331 167.19562 83.99316 168.91567 84.49188 169.98822 C 84.99062 171.06079 85.79045 172.7808 86.2892 173.85338 C 86.78795 174.92594 87.58777 176.64598 88.08652 177.71854 C 88.58527 178.79109 89.3851 180.51113 89.88383 181.5837 C 90.38257 182.65625 91.1824 184.3763 91.68114 185.44886 C 92.17987 186.52141 92.9797 188.24144 93.47845 189.314 C 93.97719 190.38657 94.77702 192.1066 95.27576 193.17917 C 95.77449 194.25173 96.57433 195.97176 97.07306 197.04431 C 97.5718 198.11687 98.37163 199.83692 98.87038 200.90947 C 99.36913 201.98204 100.16896 203.70206 100.6677 204.77463 C 101.16643 205.84719 101.96626 207.56723 102.465 208.63979 C 102.96371 209.71234 103.76357 211.43238 104.2623 212.50495 C 104.76105 213.5775 105.56087 215.29755 106.05962 216.3701 C 106.55836 217.44266 107.3582 219.16269 107.85693 220.23525 C 108.35567 221.30782 109.1555 223.02785 109.65424 224.10042 C 110.15297 225.17298 110.9528 226.893 111.45155 227.96556 C 111.9503 229.03812 112.75014 230.75815 113.24887 231.83072 C 113.74759 232.9033 114.54742 234.62342 115.04616 235.696 C 115.54489 236.76857 116.34473 238.4886 116.84348 239.56116 C 117.34222 240.63372 118.14206 242.35375 118.6408 243.42632 C 119.13953 244.49887 119.93936 246.21892 120.4381 247.29148 C 120.93683 248.36403 121.73666 250.08406 122.23541 251.15662 C 122.73415 252.22919 123.53398 253.94922 124.03271 255.02179 C 124.53146 256.09437 125.3313 257.8144 125.83003 258.88694 C 126.32877 259.9595 127.1286 261.67955 127.62733 262.75209 C 128.12607 263.82466 128.9259 265.54469 129.42465 266.61726 C 129.9234 267.6898 130.72324 269.40986 131.22197 270.4824 C 131.7207 271.55497 132.52054 273.275 133.01927 274.34757 C 133.51799 275.4201 134.31783 277.14018 134.81658 278.2127 C 135.31533 279.28529 136.11516 281.0053 136.61389 282.07789 C 137.11263 283.15046 137.91246 284.87049 138.4112 285.94306 C 138.90993 287.0156 139.70977 288.73564 140.20851 289.80818 C 140.70726 290.88075 141.50708 292.60078 142.00583 293.67335 C 142.50457 294.7459 143.30442 296.46595 143.80313 297.5385 C 144.30187 298.61106 145.1017 300.3311 145.60044 301.40367 C 146.09917 302.4762 146.899 304.19624 147.39775 305.2688 C 147.8965 306.34138 148.69634 308.06144 149.19507 309.13398 C 149.6938 310.20655 150.49364 311.92658 150.99237 312.9991 C 151.4911 314.0717 152.29094 315.79173 152.78968 316.8643 C 153.28842 317.93684 154.08826 319.6569 154.58699 320.72944 C 155.08573 321.802 155.88556 323.52204 156.3843 324.5946 C 156.88303 325.66716 157.68286 327.38719 158.18161 328.45976 C 158.68036 329.5323 159.4802 331.25233 159.97893 332.3249 C 160.47766 333.3975 161.2775 335.1176 161.77623 336.1902 C 162.27495 337.26277 163.0748 338.98277 163.57353 340.05534 C 164.07228 341.12788 164.87212 342.84794 165.37085 343.9205 C 165.86959 344.99308 166.66942 346.71308 167.16815 347.78565 C 167.66689 348.8582 168.46672 350.57826 168.96547 351.6508 C 169.46422 352.72337 170.26404 354.4434 170.76279 355.51597 C 171.26154 356.58854 172.06137 358.30857 172.56009 359.38114 C 173.05883 360.45368 173.85866 362.1737 174.35739 363.24626 C 174.85613 364.31883 175.65596 366.03886 176.15471 367.11143 C 176.65346 368.184 177.4533 369.90403 177.95203 370.9766 C 178.45076 372.04914 179.74933 374.84175 179.74933 374.84175 "/>
</g>
<symbol id="font_4_1">
<path d="M .205 .64000007 C .205 .66400006 .205 .666 .18200003 .666 C .120000008 .60200008 .032000007 .60200008 0 .60200008 L 0 .57100006 C .020000004 .57100006 .07900001 .57100006 .13100001 .597 L .13100001 .079 C .13100001 .043 .128 .031000002 .038000004 .031000002 L .0060000049 .031000002 L .0060000049 0 C .04100001 .003 .128 .003 .168 .003 C .20800002 .003 .29500003 .003 .33000005 0 L .33000005 .031000002 L .29800005 .031000002 C .20800002 .031000002 .205 .042000005 .205 .079 L .205 .64000007 Z "/>
</symbol>
<use xlink:href="#font_4_1" transform="matrix(9.9626,0,0,-9.9626,69.40467,124.270008)"/>
<symbol id="font_4_2">
<path d="M .07700001 .07700001 L .18300002 .18 C .33900003 .31800003 .39900003 .372 .39900003 .47200004 C .39900003 .586 .30900003 .666 .18700002 .666 C .074 .666 0 .574 0 .485 C 0 .42900003 .05 .42900003 .053000008 .42900003 C .07000001 .42900003 .105000007 .441 .105000007 .48200003 C .105000007 .508 .08700001 .53400006 .052000006 .53400006 C .044000005 .53400006 .042000008 .53400006 .039 .53300008 C .062000004 .59800007 .11600001 .63500007 .17400001 .63500007 C .26500003 .63500007 .308 .554 .308 .47200004 C .308 .39200003 .25800003 .31300003 .20300003 .25100003 L .011000004 .037 C 0 .026 0 .024 0 0 L .37100003 0 L .39900003 .17400001 L .374 .17400001 C .36900003 .14400001 .36200003 .1 .352 .085 C .345 .07700001 .279 .07700001 .257 .07700001 L .07700001 .07700001 Z "/>
</symbol>
<use xlink:href="#font_4_2" transform="matrix(9.9626,0,0,-9.9626,105.328128,124.270008)"/>
<symbol id="font_4_3">
<path d="M .24800003 .37400005 C .33 .40100003 .388 .47100006 .388 .55 C .388 .632 .3 .688 .204 .688 C .10300001 .688 .027000003 .628 .027000003 .55200007 C .027000003 .519 .049000004 .5 .078 .5 C .109000008 .5 .12900001 .522 .12900001 .55100008 C .12900001 .6010001 .082 .6010001 .067 .6010001 C .098 .65000006 .164 .66300007 .20000002 .66300007 C .24100003 .66300007 .29600004 .64100006 .29600004 .55100008 C .29600004 .53900006 .29400004 .48100005 .268 .43700005 C .238 .38900004 .204 .38600005 .17900002 .38500003 C .171 .38400004 .14700002 .38200004 .14000002 .38200004 C .132 .38100005 .125 .38000003 .125 .37000004 C .125 .35900004 .132 .35900004 .14900002 .35900004 L .19300002 .35900004 C .275 .35900004 .312 .29100005 .312 .193 C .312 .057000005 .24300003 .028 .199 .028 C .15600002 .028 .081 .045 .046000005 .104 C .081 .09900001 .11200001 .12100001 .11200001 .15900001 C .11200001 .19500001 .085 .215 .056 .215 C .031999999 .215 0 .201 0 .157 C 0 .06600001 .093 0 .20200002 0 C .32400004 0 .41500003 .091000009 .41500003 .193 C .41500003 .27500005 .35200004 .35300005 .24800003 .37400005 Z "/>
</symbol>
<use xlink:href="#font_4_3" transform="matrix(9.9626,0,0,-9.9626,141.56143,124.48918)"/>
<symbol id="font_4_4">
<path d="M .266 .165 L .266 .078 C .266 .042000005 .26400004 .031000002 .19000001 .031000002 L .16900002 .031000002 L .16900002 0 C .21000001 .003 .26200003 .003 .30400003 .003 C .34600003 .003 .39900003 .003 .44000004 0 L .44000004 .031000002 L .41900004 .031000002 C .34500004 .031000002 .34300003 .042000005 .34300003 .078 L .34300003 .165 L .44300003 .165 L .44300003 .19600001 L .34300003 .19600001 L .34300003 .651 C .34300003 .671 .34300003 .67700007 .32700003 .67700007 C .31800003 .67700007 .31500004 .67700007 .307 .665 L 0 .19600001 L 0 .165 L .266 .165 M .272 .19600001 L .028 .19600001 L .272 .569 L .272 .19600001 Z "/>
</symbol>
<use xlink:href="#font_4_4" transform="matrix(9.9626,0,0,-9.9626,177.73395,124.270008)"/>
<symbol id="font_5_1">
<path d="M .57600006 0 C .59300008 0 .611 0 .611 .019999996 C .611 .040000008 .59300008 .040000008 .57600006 .040000008 L .035000005 .040000008 C .018 .040000008 0 .040000008 0 .019999996 C 0 0 .018 0 .035000005 0 L .57600006 0 Z "/>
</symbol>
<use xlink:href="#font_5_1" transform="matrix(9.9626,0,0,-9.9626,17.073897,164.6946)"/>
<use xlink:href="#font_4_2" transform="matrix(9.9626,0,0,-9.9626,24.49313,166.986)"/>
<use xlink:href="#font_4_2" transform="matrix(9.9626,0,0,-9.9626,24.49313,63.28)"/>
<symbol id="font_6_1">
<path d="M .305 .31300003 C .311 .33900003 .334 .43100003 .404 .43100003 C .409 .43100003 .433 .43100003 .454 .418 C .426 .41300003 .40600003 .388 .40600003 .36400003 C .40600003 .34800003 .417 .32900004 .444 .32900004 C .46600003 .32900004 .498 .34700004 .498 .38700003 C .498 .43900005 .439 .45300005 .405 .45300005 C .347 .45300005 .312 .40000005 .3 .37700004 C .275 .44300003 .221 .45300005 .19200002 .45300005 C .08800001 .45300005 .031000002 .32400004 .031000002 .29900003 C .031000002 .28900004 .041 .28900004 .043000007 .28900004 C .051000008 .28900004 .054000006 .291 .056 .3 C .09 .40600003 .156 .43100003 .19000001 .43100003 C .209 .43100003 .244 .42200003 .244 .36400003 C .244 .33300004 .22700002 .26600004 .19000001 .126 C .17400001 .064 .13900002 .022000002 .095000009 .022000002 C .08900001 .022000002 .06600001 .022000002 .045 .035 C .07000001 .040000004 .09200001 .061 .09200001 .089 C .09200001 .116000007 .07000001 .124000009 .055000009 .124000009 C .025 .124000009 0 .098000008 0 .06600001 C 0 .020000002 .050000006 0 .094000007 0 C .16000001 0 .19600001 .07000001 .19900002 .076000008 C .21100001 .039 .24700003 0 .307 0 C .41 0 .467 .12900001 .467 .15400002 C .467 .16400002 .458 .16400002 .455 .16400002 C .446 .16400002 .444 .16000001 .442 .15300001 C .409 .046 .341 .022000002 .30900003 .022000002 C .27 .022000002 .254 .054 .254 .08800001 C .254 .11000001 .26 .13200002 .271 .17600002 L .305 .31300003 Z "/>
</symbol>
<use xlink:href="#font_6_1" transform="matrix(9.9626,0,0,-9.9626,198.38492,114.36859)"/>
<symbol id="font_6_2">
<path d="M .45700003 .586 C .461 .6 .461 .602 .461 .609 C .461 .62700006 .447 .63600006 .432 .63600006 C .42200003 .63600006 .40600003 .63 .397 .615 C .395 .61 .387 .579 .38300003 .561 C .37600003 .535 .36900003 .508 .363 .48100005 L .318 .301 C .314 .286 .271 .21600002 .20500002 .21600002 C .15400002 .21600002 .143 .26000003 .143 .29700003 C .143 .34300003 .16000001 .40500004 .194 .49300004 C .21000001 .53400006 .21400002 .545 .21400002 .56500008 C .21400002 .61 .18200001 .6470001 .13200002 .6470001 C .037 .6470001 0 .50200006 0 .49300004 C 0 .48300005 .01 .48300005 .012 .48300005 C .022000002 .48300005 .023 .485 .028000003 .50100007 C .055000009 .595 .095000009 .625 .12900001 .625 C .13700001 .625 .15400002 .625 .15400002 .59300008 C .15400002 .568 .14400001 .54200008 .13700001 .523 C .097 .41700004 .079 .36 .079 .31300003 C .079 .224 .142 .194 .201 .194 C .24000003 .194 .274 .21100001 .30200003 .23900002 C .289 .187 .277 .13800001 .237 .08500001 C .21100001 .051 .17300001 .022 .127 .022 C .113000009 .022 .068 .025000006 .051000008 .06400001 C .067 .06400001 .080000009 .06400001 .094000007 .076000008 C .104 .08500001 .11400001 .098000008 .11400001 .117000009 C .11400001 .148 .087000008 .15200001 .07700001 .15200001 C .054000006 .15200001 .021 .136 .021 .087000008 C .021 .037 .065000008 0 .127 0 C .23 0 .333 .091000009 .361 .20400001 L .45700003 .586 Z "/>
</symbol>
<use xlink:href="#font_6_2" transform="matrix(9.9626,0,0,-9.9626,32.369916,9.726324)"/>
<path transform="matrix(1,0,0,-1,.199,174.603)" stroke-width="1" stroke-linecap="butt" stroke-miterlimit="10" stroke-linejoin="miter" fill="none" stroke="#808080" d="M 70.81027 60.34738 L 70.81027 64.59975 M 107.12325 60.34738 L 107.12325 64.59975 M 143.4362 60.34738 L 143.4362 64.59975 M 179.74918 60.34738 L 179.74918 64.59975 "/>
<path transform="matrix(1,0,0,-1,.199,174.603)" stroke-width="1" stroke-linecap="butt" stroke-miterlimit="10" stroke-linejoin="miter" fill="none" stroke="#808080" d="M 32.3713 10.41225 L 36.62329 10.41225 M 32.3713 114.53487 L 36.62329 114.53487 "/>
<path transform="matrix(1,0,0,-1,.199,174.603)" stroke-width="1" stroke-linecap="butt" stroke-miterlimit="10" stroke-linejoin="miter" fill="none" stroke="#000000" d="M 0 62.47356 L 192.28183 62.47356 "/>
<path transform="matrix(1,0,0,-1,192.48084,112.12944)" d="M 1.99252 0 L -1.19551 1.59401 L 0 0 L -1.19551 -1.59401 "/>
<path transform="matrix(1,0,0,-1,.199,174.603)" stroke-width="1" stroke-linecap="butt" stroke-miterlimit="10" stroke-linejoin="miter" fill="none" stroke="#000000" d="M 34.49731 0 L 34.49731 159.3975 "/>
<path transform="matrix(0,-1,-1,-0,34.696313,15.20549)" d="M 1.99252 0 L -1.19551 1.59401 L 0 0 L -1.19551 -1.59401 "/>
</svg>
