<?xml version="1.0" encoding="UTF-8" standalone="no"?>
<!DOCTYPE svg PUBLIC "-//W3C//DTD SVG 1.1//EN" "http://www.w3.org/Graphics/SVG/1.1/DTD/svg11.dtd">
<svg xmlns="http://www.w3.org/2000/svg" xmlns:xlink="http://www.w3.org/1999/xlink" version="1.1" width="223.057pt" height="177.453pt" viewBox="0 0 223.057 177.453">
<clipPath id="cp0">
<path transform="matrix(1,0,0,-1,16.224,174.481)" d="M 0 0 L 194.27048 0 L 194.27048 161.393 L 0 161.393 Z "/>
</clipPath>
<g clip-path="url(#cp0)">
<path transform="matrix(1,0,0,-1,16.224,174.481)" d="M 5.4724 12.41484 L 5.74739 21.21533 L 6.02238 24.86063 L 6.29738 27.65775 L 6.57237 30.01582 L 6.84735 32.09364 L 7.12236 33.97188 L 7.39735 35.69911 L 7.67233 37.30678 L 7.94734 38.81673 L 8.22234 40.24487 L 8.49731 41.60323 L 8.77232 42.90111 L 9.04732 44.14597 L 9.32231 45.34378 L 9.5973 46.49953 L 9.8723 47.61734 L 10.1473 48.70076 L 10.42229 49.75273 L 10.69728 50.7759 L 10.97227 51.77245 L 11.24727 52.74438 L 11.52226 53.69344 L 11.79726 54.62117 L 12.07225 55.52895 L 12.34724 56.41798 L 12.62224 57.28943 L 12.89723 58.14426 L 13.17223 58.9834 L 13.44722 59.80768 L 13.72221 60.61787 L 13.99721 61.41466 L 14.2722 62.19872 L 14.5472 62.97061 L 14.82219 63.73088 L 15.09718 64.48007 L 15.37218 65.21863 L 15.64717 65.94698 L 15.92216 66.66556 L 16.19716 67.37476 L 16.47215 68.0749 L 16.74715 68.76636 L 17.02216 69.44945 L 17.29713 70.12442 L 17.57213 70.79163 L 17.84714 71.45125 L 18.12212 72.1036 L 18.39711 72.74892 L 18.6721 73.38739 L 18.9471 74.01924 L 19.22209 74.64377 L 19.49709 75.2629 L 19.77208 75.87613 L 20.04707 76.48346 L 20.32207 77.08502 L 20.59706 77.68105 L 20.87207 78.27176 L 21.14705 78.85704 L 21.42204 79.43738 L 21.69705 80.01274 L 21.97203 80.58316 L 22.24702 81.1489 L 22.52203 81.70999 L 22.79701 82.2666 L 23.072 82.81882 L 23.34702 83.36668 L 23.622 83.9104 L 23.89699 84.45001 L 24.17198 84.9856 L 24.44698 85.51724 L 24.72198 86.04512 L 24.99696 86.5691 L 25.27196 87.08952 L 25.54697 87.60623 L 25.82195 88.11952 L 26.09694 88.6294 L 26.37195 89.13574 L 26.64693 89.63892 L 26.92192 90.13873 L 27.19693 90.63533 L 27.47191 91.12881 L 27.7469 91.61926 L 28.02191 92.10667 L 28.29689 92.59117 L 28.5719 93.07268 L 28.8469 93.55139 L 29.12187 94.02725 L 29.39688 94.50038 L 29.67188 94.97084 L 29.94685 95.43857 L 30.22186 95.90364 L 30.49684 96.36621 L 30.77184 96.82619 L 31.04684 97.28374 L 31.32182 97.73878 L 31.59682 98.19144 L 31.87183 98.64172 L 32.1468 99.08966 L 32.42181 99.53528 L 32.69681 99.97868 L 32.97179 100.41978 L 33.24681 100.8587 L 33.52177 101.29552 L 33.79678 101.73018 L 34.07175 102.1627 L 34.34677 102.59306 L 34.62177 103.0215 L 34.89674 103.44783 L 35.17177 103.87234 L 35.44672 104.29465 L 35.72174 104.7152 L 35.99673 105.13388 L 36.27171 105.55052 L 36.54672 105.96542 L 36.82169 106.37834 L 37.09671 106.78964 L 37.37172 107.1991 L 37.64668 107.60674 L 37.92169 108.01271 L 38.19667 108.41687 L 38.47166 108.81941 L 38.74669 109.22035 L 39.02165 109.61948 L 39.29666 110.01701 L 39.57162 110.413 L 39.84665 110.80746 L 40.12166 111.20015 L 40.39662 111.59134 L 40.67165 111.98111 L 40.9466 112.36926 L 41.22162 112.75592 L 41.49661 113.14116 L 41.77159 113.52484 L 42.04662 113.90709 L 42.32156 114.28786 L 42.59659 114.66743 L 42.8716 115.04541 L 43.14656 115.42207 L 43.42157 115.7973 L 43.69655 116.17113 L 43.97156 116.54375 L 44.24657 116.91496 L 44.52153 117.28485 L 44.79654 117.65346 L 45.07152 118.02069 L 45.34653 118.3868 L 45.62154 118.75162 L 45.8965 119.11517 L 46.17152 119.47743 L 46.44647 119.83867 L 46.7215 120.19843 L 46.9965 120.55716 L 47.27147 120.91458 L 47.5465 121.27103 L 47.82144 121.62614 L 48.09647 121.98009 L 48.37148 122.333 L 48.64644 122.68471 L 48.92146 123.03535 L 49.19643 123.38483 L 49.47144 123.73332 L 49.74644 124.08063 L 50.02142 124.42686 L 50.29642 124.77205 L 50.5714 125.11621 L 50.8464 125.45929 L 51.12141 125.80132 L 51.39638 126.1423 L 51.6714 126.48233 L 51.94637 126.8213 L 52.22137 127.15926 L 52.4964 127.49625 L 52.77135 127.8322 L 53.04637 128.16735 L 53.32132 128.50142 L 53.59634 128.83444 L 53.87137 129.16661 L 54.14632 129.49785 L 54.42134 129.82813 L 54.6963 130.15743 L 54.97131 130.48593 L 55.24632 130.8135 L 55.5213 131.14008 L 55.7963 131.46578 L 56.07127 131.79055 L 56.3463 132.11452 L 56.62129 132.43762 L 56.89627 132.75984 L 57.17128 133.08119 L 57.44624 133.40163 L 57.72125 133.72132 L 57.99628 134.04012 L 58.27122 134.35808 L 58.54625 134.67533 L 58.8212 134.9916 L 59.09622 135.30706 L 59.37125 135.62184 L 59.6462 135.93575 L 59.92122 136.2488 L 60.19618 136.56114 L 169.64466 12.41484 L 162.80414 12.41484 L 155.96363 12.41484 L 149.12311 12.41484 L 142.28261 12.41484 L 135.4421 12.41484 L 128.60158 12.41484 L 121.76108 12.41484 L 114.92056 12.41484 L 108.08005 12.41484 L 101.23955 12.41484 L 94.39903 12.41484 L 87.55852 12.41484 L 80.71802 12.41484 L 73.8775 12.41484 L 67.03699 12.41484 L 60.19649 12.41484 L 53.35597 12.41484 L 46.51546 12.41484 L 39.67496 12.41484 L 32.83444 12.41484 L 25.99393 12.41484 L 19.15343 12.41484 L 12.31291 12.41484 L 5.4724 12.41484 Z " fill="#cccce6"/>
</g>
<clipPath id="cp1">
<path transform="matrix(1,0,0,-1,16.224,174.481)" d="M 0 0 L 194.27048 0 L 194.27048 161.393 L 0 161.393 Z "/>
</clipPath>
<g clip-path="url(#cp1)">
<path transform="matrix(1,0,0,-1,16.224,174.481)" d="M 60.19649 136.56333 L 64.7568 131.39049 L 69.31712 126.21767 L 73.87744 121.0448 L 78.43776 115.87198 L 82.99808 110.69916 L 87.5584 105.52634 L 92.11873 100.35352 L 96.67905 95.18065 L 101.23936 90.00783 L 105.79968 84.83499 L 110.36 79.66217 L 114.92032 74.48936 L 119.48064 69.31648 L 124.04095 64.14368 L 128.60129 58.97086 L 133.1616 53.79803 L 137.72193 48.62521 L 142.28224 43.45235 L 146.84256 38.27951 L 151.4029 33.10669 L 155.96321 27.93387 L 160.52353 22.76105 L 165.08386 17.58818 L 169.64418 12.41536 L 169.64466 12.41484 L 162.80414 12.41484 L 155.96363 12.41484 L 149.12311 12.41484 L 142.28261 12.41484 L 135.4421 12.41484 L 128.60158 12.41484 L 121.76108 12.41484 L 114.92056 12.41484 L 108.08005 12.41484 L 101.23955 12.41484 L 94.39903 12.41484 L 87.55852 12.41484 L 80.71802 12.41484 L 73.8775 12.41484 L 67.03699 12.41484 L 60.19649 12.41484 L 53.35597 12.41484 L 46.51546 12.41484 L 39.67496 12.41484 L 32.83444 12.41484 L 25.99393 12.41484 L 19.15343 12.41484 L 12.31291 12.41484 L 5.4724 12.41484 Z " fill="#cccce6"/>
</g>
<clipPath id="cp2">
<path transform="matrix(1,0,0,-1,16.224,174.481)" d="M 0 0 L 194.27048 0 L 194.27048 161.393 L 0 161.393 Z "/>
</clipPath>
<g clip-path="url(#cp2)">
<path transform="matrix(1,0,0,-1,16.224,174.481)" stroke-width="1.19553" stroke-linecap="butt" stroke-miterlimit="10" stroke-linejoin="miter" fill="none" stroke="#000080" d="M 7.43456 35.92302 C 7.43456 35.92302 8.91225 43.54356 9.47978 46.01047 C 10.04732 48.47737 10.95747 51.73796 11.52501 53.70282 C 12.09254 55.66768 13.0027 58.48456 13.57024 60.17183 C 14.13777 61.85909 15.04793 64.36046 15.61546 65.86353 C 16.183 67.3666 17.09317 69.63605 17.6607 71.00488 C 18.22824 72.3737 19.1384 74.46368 19.70593 75.72914 C 20.27347 76.99458 21.18362 78.94269 21.75116 80.12535 C 22.3187 81.30801 23.22885 83.1388 23.79639 84.25305 C 24.36392 85.36731 25.2741 87.0997 25.84163 88.1562 C 26.40916 89.2127 27.31932 90.86078 27.88686 91.86769 C 28.45439 92.8746 29.36455 94.44968 29.93208 95.41344 C 30.49962 96.3772 31.40977 97.88814 31.97731 98.81386 C 32.54485 99.73958 33.455 101.19359 34.02254 102.08543 C 34.59007 102.97726 35.50024 104.38023 36.06778 105.24165 C 36.63531 106.10307 37.54547 107.46007 38.113 108.29402 C 38.68054 109.12798 39.5907 110.44327 40.15823 111.25224 C 40.72577 112.0612 41.63593 113.33853 42.20346 114.1246 C 42.771 114.91069 43.68115 116.15277 44.24869 116.9178 C 44.81622 117.68283 45.7264 118.8928 46.29393 119.63841 C 46.86147 120.384 47.77162 121.56407 48.33916 122.29164 C 48.9067 123.01921 49.81686 124.17143 50.3844 124.88223 C 50.95193 125.59303 51.86208 126.7195 52.42961 127.41463 C 52.99715 128.10976 53.90732 129.21189 54.47485 129.89232 C 55.04239 130.57277 55.95255 131.65215 56.52008 132.3188 C 57.08762 132.98546 57.99777 134.04349 58.5653 134.69718 C 59.13284 135.35085 60.043 136.38874 60.61053 137.03018 C 61.17807 137.67163 62.08823 138.69046 62.65576 139.32033 C 63.2233 139.95021 64.13345 140.95104 64.70099 141.56992 C 65.26852 142.18881 66.1787 143.17243 66.74623 143.78089 C 67.31377 144.38935 68.22394 145.35678 68.79147 145.95532 C 69.35901 146.55388 70.26917 147.50574 70.8367 148.09484 C 71.40424 148.68395 72.31439 149.62117 72.88193 150.20127 C 73.44946 150.78137 74.35962 151.70438 74.92715 152.27585 C 75.49469 152.84732 76.40485 153.75691 76.97238 154.32016 C 77.53992 154.8834 78.45007 155.78009 79.01761 156.33545 C 79.58514 156.89081 80.4953 157.77504 81.06284 158.32282 C 81.63037 158.8706 82.54053 159.74303 83.10806 160.28356 C 83.6756 160.8241 84.58575 161.68512 85.15329 162.21866 C 85.72083 162.75222 86.63101 163.60224 87.19855 164.12905 C 87.76608 164.65586 88.67624 165.49527 89.24377 166.01561 C 89.81131 166.53597 90.72147 167.3653 91.289 167.8794 C 91.85654 168.3935 92.7667 169.21288 93.33423 169.72097 C 93.90176 170.22904 94.81192 171.03907 95.37946 171.54134 C 95.94699 172.04361 96.85715 172.8444 97.42468 173.34105 C 97.99222 173.8377 98.90237 174.6297 99.46991 175.12091 C 100.03745 175.61214 100.9476 176.39556 101.51514 176.88152 C 102.08267 177.36748 102.99283 178.14252 103.56036 178.6234 C 104.1279 179.10427 105.03807 179.87145 105.6056 180.34738 C 106.17314 180.82334 107.08331 181.58255 107.65085 182.05367 C 108.21838 182.5248 109.12854 183.27646 109.69608 183.74297 C 110.26361 184.20946 111.17377 184.95394 111.7413 185.41593 C 112.30884 185.87792 113.219 186.61508 113.78653 187.07268 C 114.35406 187.53028 115.26422 188.26064 115.83176 188.71399 C 116.39929 189.16735 117.30945 189.89095 117.87698 190.34015 C 118.44452 190.78936 119.35468 191.50638 119.92221 191.95154 C 120.48975 192.3967 121.3999 193.10736 121.96744 193.54859 C 122.53497 193.9898 123.44514 194.69426 124.01268 195.13166 C 124.58022 195.56906 125.49037 196.2675 126.0579 196.7012 C 126.62544 197.1349 127.53561 197.82741 128.10315 198.25748 C 128.67069 198.68755 129.58084 199.37432 130.14838 199.80083 C 130.71591 200.22733 131.62607 200.90848 132.1936 201.33152 C 132.76114 201.75455 133.6713 202.43022 134.23883 202.8499 C 134.80637 203.26958 135.71652 203.93993 136.28406 204.35633 C 136.8516 204.77272 137.76175 205.4379 138.32929 205.85108 C 138.89682 206.26425 139.80698 206.92385 140.37451 207.33428 C 140.94205 207.74469 141.85222 208.40181 142.41976 208.80918 C 142.98729 209.21652 143.89745 209.86626 144.46498 210.2702 C 145.03252 210.67415 145.94268 211.31955 146.51021 211.72057 C 147.07775 212.12157 147.98792 212.76236 148.55545 213.1605 C 149.12299 213.55864 150.03314 214.19481 150.60068 214.59014 C 151.16822 214.98546 152.07837 215.61722 152.6459 216.00978 C 153.21344 216.40235 154.1236 217.02968 154.69113 217.41954 C 155.25867 217.80939 156.16883 218.43242 156.73636 218.81963 C 157.3039 219.20684 158.21405 219.8257 158.78159 220.21033 C 159.34912 220.59497 160.2593 221.20978 160.82683 221.59186 C 161.39437 221.97394 162.30452 222.58461 162.87206 222.9642 C 163.43959 223.3438 164.34975 223.95058 164.91728 224.32773 C 165.48482 224.70488 166.39498 225.30773 166.96251 225.68248 C 167.53005 226.05724 168.4402 226.65634 169.00775 227.02875 C 169.57529 227.40117 170.48545 227.99655 171.05298 228.36666 C 171.62052 228.73674 172.53067 229.32839 173.0982 229.69622 C 173.66574 230.06404 174.5759 230.65216 175.14344 231.01778 C 175.71097 231.38338 176.62113 231.96791 177.18866 232.33133 C 177.7562 232.69475 178.66637 233.27582 179.2339 233.63712 C 179.80144 233.99842 180.7116 234.5761 181.27913 234.93527 C 181.84667 235.29445 183.32436 236.22586 183.32436 236.22586 "/>
<path transform="matrix(1,0,0,-1,16.224,174.481)" stroke-width="1.19553" stroke-linecap="butt" stroke-miterlimit="10" stroke-linejoin="miter" fill="none" stroke="#000080" d="M 5.4724 12.41484 C 5.4724 12.41484 5.57225 17.42928 5.61058 18.65338 C 5.64893 19.87749 5.71043 20.6038 5.74878 21.23746 C 5.78711 21.87111 5.84862 22.71326 5.88696 23.2203 C 5.9253 23.72734 5.9868 24.45564 6.02515 24.8919 C 6.06348 25.32817 6.12498 25.97557 6.16333 26.36462 C 6.20168 26.7537 6.2632 27.34145 6.30153 27.69606 C 6.33987 28.05069 6.40138 28.59247 6.43971 28.92047 C 6.47806 29.24846 6.53957 29.75346 6.5779 30.06007 C 6.61624 30.3667 6.67776 30.84145 6.71611 31.13045 C 6.75444 31.41946 6.81595 31.869 6.8543 32.14311 C 6.89262 32.41722 6.95413 32.84477 6.99248 33.10602 C 7.03082 33.36726 7.09233 33.77599 7.13066 34.02608 C 7.169 34.27617 7.23051 34.66829 7.26884 34.90854 C 7.30719 35.14879 7.3687 35.52618 7.40703 35.75766 C 7.44537 35.98914 7.5069 36.35335 7.54524 36.57695 C 7.58357 36.80057 7.64508 37.15286 7.68343 37.36935 C 7.72176 37.58585 7.78326 37.92735 7.82161 38.13736 C 7.85995 38.34738 7.92145 38.679 7.9598 38.8831 C 7.99814 39.0872 8.05966 39.40976 8.09799 39.6084 C 8.13634 39.80704 8.19785 40.12123 8.23618 40.31483 C 8.27452 40.50844 8.33603 40.81488 8.37437 41.00381 C 8.4127 41.19275 8.47421 41.49203 8.51256 41.6766 C 8.55089 41.86119 8.6124 42.15375 8.65074 42.33426 C 8.68907 42.51479 8.7506 42.80103 8.78894 42.97775 C 8.82729 43.15446 8.8888 43.43484 8.92712 43.60799 C 8.96547 43.78114 9.02698 44.05597 9.0653 44.22574 C 9.10365 44.39552 9.16516 44.6651 9.20349 44.83171 C 9.24184 44.9983 9.30334 45.26295 9.34169 45.42656 C 9.38002 45.59016 9.44154 45.85013 9.47989 46.0109 C 9.51822 46.17166 9.57973 46.42717 9.61807 46.58522 C 9.65642 46.74329 9.71791 46.99457 9.75626 47.15005 C 9.7946 47.30554 9.85611 47.55284 9.89444 47.70587 C 9.93279 47.85889 9.99431 48.10234 10.03264 48.25304 C 10.07098 48.40373 10.13249 48.64352 10.17084 48.79199 C 10.20917 48.94044 10.27068 49.17676 10.30902 49.32307 C 10.34735 49.46939 10.40886 49.70236 10.4472 49.84662 C 10.48553 49.99089 10.54704 50.22064 10.58539 50.36295 C 10.62373 50.50525 10.68526 50.73192 10.72359 50.87233 C 10.76193 51.01276 10.82344 51.23647 10.86177 51.37508 C 10.90012 51.51369 10.96162 51.73453 10.99995 51.8714 C 11.0383 52.00826 11.09981 52.22636 11.13815 52.36156 C 11.17648 52.49673 11.238 52.71223 11.27635 52.8458 C 11.31468 52.97935 11.37619 53.19228 11.41454 53.32428 C 11.45288 53.45627 11.51437 53.66673 11.55272 53.79723 C 11.59106 53.92772 11.65257 54.1358 11.6909 54.26483 C 11.72925 54.39388 11.79076 54.59967 11.82909 54.7273 C 11.86743 54.85492 11.92896 55.05847 11.9673 55.18472 C 12.00563 55.31097 12.06714 55.51239 12.10548 55.63733 C 12.14381 55.76228 12.20532 55.9616 12.24367 56.08525 C 12.282 56.2089 12.3435 56.4062 12.38185 56.52861 C 12.4202 56.65102 12.4817 56.84636 12.52003 56.96756 C 12.55838 57.08878 12.6199 57.28221 12.65823 57.40225 C 12.69658 57.5223 12.75809 57.71385 12.79643 57.83275 C 12.83476 57.95163 12.89627 58.14142 12.93462 58.25922 C 12.97295 58.37701 13.03445 58.56505 13.0728 58.68178 C 13.11113 58.7985 13.17265 58.98482 13.211 59.10048 C 13.24934 59.21614 13.31085 59.4008 13.34918 59.51544 C 13.38753 59.6301 13.44904 59.81317 13.48737 59.92683 C 13.52571 60.0405 13.58722 60.22197 13.62555 60.33467 C 13.6639 60.44736 13.7254 60.6273 13.76375 60.73906 C 13.80208 60.8508 13.8636 61.02928 13.90195 61.1401 C 13.94028 61.25092 14.00179 61.42795 14.04013 61.53787 C 14.07848 61.6478 14.13997 61.8234 14.17831 61.93245 C 14.21666 62.04149 14.27817 62.21568 14.3165 62.32388 C 14.35484 62.43207 14.41637 62.60493 14.4547 62.7123 C 14.49304 62.81964 14.55455 62.99115 14.5929 63.0977 C 14.63123 63.20425 14.69273 63.37448 14.73108 63.48022 C 14.76941 63.58598 14.83092 63.75493 14.86926 63.8599 C 14.9076 63.96487 14.9691 64.1326 15.00745 64.23679 C 15.04579 64.34099 15.10732 64.50752 15.14565 64.61098 C 15.18399 64.71442 15.2455 64.87976 15.28383 64.98248 C 15.32217 65.08519 15.38368 65.24937 15.42201 65.35138 C 15.46036 65.45338 15.52187 65.61641 15.56021 65.71771 C 15.59854 65.81903 15.66005 65.98094 15.6984 66.08156 C 15.73672 66.18219 15.79825 66.34302 15.8366 66.44296 C 15.87494 66.5429 15.93643 66.70267 15.97478 66.80196 C 16.01312 66.90125 16.07463 67.05997 16.11296 67.1586 C 16.1513 67.25722 16.21281 67.41492 16.25114 67.51292 C 16.28949 67.61093 16.35101 67.76761 16.38936 67.865 C 16.42769 67.96239 16.4892 68.11807 16.52754 68.21484 C 16.56587 68.31161 16.62738 68.46634 16.66573 68.56252 C 16.70406 68.65868 16.76556 68.81245 16.80391 68.90804 C 16.84225 69.00363 16.90376 69.15645 16.9421 69.25146 C 16.98044 69.34648 17.04195 69.4984 17.08028 69.59282 C 17.11862 69.68726 17.18015 69.83827 17.21848 69.93216 C 17.25682 70.02605 17.31833 70.17618 17.35667 70.26952 C 17.395 70.36285 17.45651 70.51212 17.49486 70.60492 C 17.53319 70.69771 17.5947 70.8461 17.63304 70.93837 C 17.67139 71.03062 17.73291 71.1782 17.77124 71.26996 C 17.80959 71.3617 17.8711 71.50844 17.90942 71.59969 C 17.94777 71.69093 18.00928 71.83685 18.0476 71.92758 C 18.08595 72.0183 18.14746 72.16344 18.1858 72.25368 C 18.22414 72.34392 18.28564 72.48825 18.32399 72.578 C 18.36232 72.66776 18.42384 72.81134 18.46219 72.9006 C 18.50053 72.98987 18.56203 73.13268 18.60037 73.22148 C 18.63872 73.31027 18.70023 73.45233 18.73856 73.54068 C 18.7769 73.62901 18.83841 73.77032 18.87674 73.85822 C 18.91508 73.94609 18.9766 74.0867 19.01494 74.17412 C 19.05327 74.26155 19.15314 74.48842 19.15314 74.48842 "/>
<path transform="matrix(1,0,0,-1,16.224,174.481)" stroke-width="1.19553" stroke-linecap="butt" stroke-miterlimit="10" stroke-linejoin="miter" fill="none" stroke="#800000" d="M -19.15343 226.57097 C -19.15343 226.57097 -13.05792 219.65676 -10.71681 217.00118 C -8.37569 214.34561 -4.6213 210.087 -2.28018 207.43143 C .06093 204.77585 3.81529 200.51723 6.15642 197.86167 C 8.49753 195.20609 12.25192 190.94747 14.59303 188.2919 C 16.93416 185.63632 20.68854 181.3777 23.02965 178.72212 C 25.37077 176.06656 29.12515 171.80794 31.46628 169.15236 C 33.8074 166.49678 37.56177 162.23815 39.9029 159.58258 C 42.244 156.927 45.9984 152.66838 48.33952 150.01282 C 50.68063 147.35724 54.43501 143.09862 56.77612 140.44304 C 59.11725 137.78748 62.87163 133.52887 65.21275 130.87329 C 67.55388 128.21772 71.30824 123.95909 73.64937 121.30353 C 75.9905 118.64795 79.74487 114.38933 82.086 111.73376 C 84.42711 109.07819 88.18149 104.81956 90.5226 102.16399 C 92.86372 99.50842 96.61812 95.24982 98.95923 92.59424 C 101.30035 89.93866 105.05472 85.68 107.39584 83.02443 C 109.73697 80.36885 113.49135 76.11023 115.83247 73.45467 C 118.17358 70.79909 121.92796 66.54047 124.26909 63.88489 C 126.6102 61.22932 130.3646 56.97072 132.7057 54.31514 C 135.04683 51.65956 138.8012 47.40094 141.14232 44.74538 C 143.48345 42.0898 147.23783 37.83118 149.57895 35.17561 C 151.92006 32.52003 155.67446 28.26143 158.01558 25.60585 C 160.35669 22.95029 164.11107 18.69167 166.45218 16.03609 C 168.7933 13.38051 172.5477 9.12189 174.88881 6.46632 C 177.22994 3.81075 183.32543 -3.10341 183.32543 -3.10341 "/>
<symbol id="font_3_4">
<path d="M .45700003 .586 C .461 .6 .461 .602 .461 .609 C .461 .62700006 .447 .63600006 .432 .63600006 C .42200003 .63600006 .40600003 .63 .397 .615 C .395 .61 .387 .579 .38300003 .561 C .37600003 .535 .36900003 .508 .363 .48100005 L .318 .301 C .314 .286 .271 .21600002 .20500002 .21600002 C .15400002 .21600002 .143 .26000003 .143 .29700003 C .143 .34300003 .16000001 .40500004 .194 .49300004 C .21000001 .53400006 .21400002 .545 .21400002 .56500008 C .21400002 .61 .18200001 .6470001 .13200002 .6470001 C .037 .6470001 0 .50200006 0 .49300004 C 0 .48300005 .01 .48300005 .012 .48300005 C .022000002 .48300005 .023 .485 .028000003 .50100007 C .055000009 .595 .095000009 .625 .12900001 .625 C .13700001 .625 .15400002 .625 .15400002 .59300008 C .15400002 .568 .14400001 .54200008 .13700001 .523 C .097 .41700004 .079 .36 .079 .31300003 C .079 .224 .142 .194 .201 .194 C .24000003 .194 .274 .21100001 .30200003 .23900002 C .289 .187 .277 .13800001 .237 .08500001 C .21100001 .051 .17300001 .022 .127 .022 C .113000009 .022 .068 .025000006 .051000008 .06400001 C .067 .06400001 .080000009 .06400001 .094000007 .076000008 C .104 .08500001 .11400001 .098000008 .11400001 .117000009 C .11400001 .148 .087000008 .15200001 .07700001 .15200001 C .054000006 .15200001 .021 .136 .021 .087000008 C .021 .037 .065000008 0 .127 0 C .23 0 .333 .091000009 .361 .20400001 L .45700003 .586 Z "/>
</symbol>
<use xlink:href="#font_3_4" transform="matrix(9.9626,0,0,-9.9626,98.999919,31.34133)" fill="#000080"/>
<symbol id="font_4_a">
<path d="M .63100007 .19400002 C .646 .19400002 .665 .19400002 .665 .214 C .665 .23400001 .646 .23400001 .632 .23400001 L .033 .23400001 C .019000002 .23400001 0 .23400001 0 .214 C 0 .19400002 .019000002 .19400002 .034 .19400002 L .63100007 .19400002 M .632 0 C .646 0 .665 0 .665 .02000001 C .665 .040000008 .646 .040000008 .63100007 .040000008 L .034 .040000008 C .019000002 .040000008 0 .040000008 0 .02000001 C 0 0 .019000002 0 .033 0 L .632 0 Z "/>
</symbol>
<use xlink:href="#font_4_a" transform="matrix(9.9626,0,0,-9.9626,107.27791,27.97397)" fill="#000080"/>
<symbol id="font_5_1">
<path d="M .316 .10500002 L .14000002 .49400003 C .13300002 .51 .12799999 .51 .125 .51 C .124000009 .51 .118999999 .51 .108 .502 L .012999997 .43 C 0 .42000003 0 .417 0 .41400004 C 0 .40900005 .0029999987 .403 .009999998 .403 C .015999996 .403 .033 .417 .044 .425 C .049999998 .43 .065000008 .44099999 .076 .449 L .273 .015999973 C .28 0 .285 0 .294 0 C .30900003 0 .312 .0059999825 .319 .01999998 L .773 .96000006 C .78000006 .97400006 .78000006 .97800007 .78000006 .98 C .78000006 .99 .772 1 .76000007 1 C .75200006 1 .745 .99500009 .73700007 .97900006 L .316 .10500002 Z "/>
</symbol>
<use xlink:href="#font_5_1" transform="matrix(9.9626,0,0,-9.9626,117.96327,30.135096)" fill="#000080"/>
<path transform="matrix(1,0,0,-1,125.538,20.37201)" stroke-width="1" stroke-linecap="butt" stroke-miterlimit="10" stroke-linejoin="miter" fill="none" stroke="#000080" d="M 0 0 L 10.675 0 "/>
<symbol id="font_4_5">
<path d="M .07700001 .07700001 L .18300002 .18 C .33900003 .31800003 .39900003 .372 .39900003 .47200004 C .39900003 .586 .30900003 .666 .18700002 .666 C .074 .666 0 .574 0 .485 C 0 .42900003 .05 .42900003 .053000008 .42900003 C .07000001 .42900003 .105000007 .441 .105000007 .48200003 C .105000007 .508 .08700001 .53400006 .052000006 .53400006 C .044000005 .53400006 .042000008 .53400006 .039 .53300008 C .062000004 .59800007 .11600001 .63500007 .17400001 .63500007 C .26500003 .63500007 .308 .554 .308 .47200004 C .308 .39200003 .25800003 .31300003 .20300003 .25100003 L .011000004 .037 C 0 .026 0 .024 0 0 L .37100003 0 L .39900003 .17400001 L .374 .17400001 C .36900003 .14400001 .36200003 .1 .352 .085 C .345 .07700001 .279 .07700001 .257 .07700001 L .07700001 .07700001 Z "/>
</symbol>
<use xlink:href="#font_4_5" transform="matrix(9.9626,0,0,-9.9626,126.03613,29.298996)" fill="#000080"/>
<symbol id="font_3_3">
<path d="M .305 .31300003 C .311 .33900003 .334 .43100003 .404 .43100003 C .409 .43100003 .433 .43100003 .454 .418 C .426 .41300003 .40600003 .388 .40600003 .36400003 C .40600003 .34800003 .417 .32900004 .444 .32900004 C .46600003 .32900004 .498 .34700004 .498 .38700003 C .498 .43900005 .439 .45300005 .405 .45300005 C .347 .45300005 .312 .40000005 .3 .37700004 C .275 .44300003 .221 .45300005 .19200002 .45300005 C .08800001 .45300005 .031000002 .32400004 .031000002 .29900003 C .031000002 .28900004 .041 .28900004 .043000007 .28900004 C .051000008 .28900004 .054000006 .291 .056 .3 C .09 .40600003 .156 .43100003 .19000001 .43100003 C .209 .43100003 .244 .42200003 .244 .36400003 C .244 .33300004 .22700002 .26600004 .19000001 .126 C .17400001 .064 .13900002 .022000002 .095000009 .022000002 C .08900001 .022000002 .06600001 .022000002 .045 .035 C .07000001 .040000004 .09200001 .061 .09200001 .089 C .09200001 .116000007 .07000001 .124000009 .055000009 .124000009 C .025 .124000009 0 .098000008 0 .06600001 C 0 .020000002 .050000006 0 .094000007 0 C .16000001 0 .19600001 .07000001 .19900002 .076000008 C .21100001 .039 .24700003 0 .307 0 C .41 0 .467 .12900001 .467 .15400002 C .467 .16400002 .458 .16400002 .455 .16400002 C .446 .16400002 .444 .16000001 .442 .15300001 C .409 .046 .341 .022000002 .30900003 .022000002 C .27 .022000002 .254 .054 .254 .08800001 C .254 .11000001 .26 .13200002 .271 .17600002 L .305 .31300003 Z "/>
</symbol>
<use xlink:href="#font_3_3" transform="matrix(9.9626,0,0,-9.9626,130.80892,29.408585)" fill="#000080"/>
<use xlink:href="#font_3_3" transform="matrix(9.9626,0,0,-9.9626,119.197917,77.514598)" fill="#800000"/>
<symbol id="font_4_2">
<path d="M .35300002 .31300003 L .632 .31300003 C .646 .31300003 .665 .31300003 .665 .333 C .665 .35300002 .646 .35300002 .632 .35300002 L .35300002 .35300002 L .35300002 .633 C .35300002 .647 .35300002 .666 .33300004 .666 C .31300003 .666 .31300003 .647 .31300003 .633 L .31300003 .35300002 L .033 .35300002 C .019000002 .35300002 0 .35300002 0 .333 C 0 .31300003 .019000002 .31300003 .033 .31300003 L .31300003 .31300003 L .31300003 .033000005 C .31300003 .019000002 .31300003 0 .33300004 0 C .35300002 0 .35300002 .019000002 .35300002 .033000005 L .35300002 .31300003 Z "/>
</symbol>
<use xlink:href="#font_4_2" transform="matrix(9.9626,0,0,-9.9626,127.3739,78.2319)" fill="#800000"/>
<use xlink:href="#font_4_5" transform="matrix(9.9626,0,0,-9.9626,137.27672,77.40501)" fill="#800000"/>
<use xlink:href="#font_3_4" transform="matrix(9.9626,0,0,-9.9626,142.0489,79.44734)" fill="#800000"/>
<symbol id="font_4_9">
<path d="M .089999999 .35000003 L .089999999 .37400005 C .089999999 .62700006 .21400002 .66300007 .26500003 .66300007 C .28900004 .66300007 .33100004 .65700009 .35300002 .623 C .33800004 .623 .298 .623 .298 .57800009 C .298 .54700008 .32200004 .53200009 .344 .53200009 C .36 .53200009 .39000003 .54100009 .39000003 .58000007 C .39000003 .64000007 .34600003 .688 .263 .688 C .13499999 .688 0 .559 0 .33800004 C 0 .071 .116000007 0 .20900002 0 C .32000003 0 .41500003 .094000007 .41500003 .22600001 C .41500003 .35300005 .32600004 .44900004 .215 .44900004 C .14700002 .44900004 .11000001 .39800004 .089999999 .35000003 M .20900002 .028 C .146 .028 .116000007 .088 .11000001 .103 C .092 .15 .092 .23 .092 .24800001 C .092 .32600004 .124000009 .42600004 .21400002 .42600004 C .23000002 .42600004 .27600003 .42600004 .307 .36400003 C .32500003 .32700003 .32500003 .27600003 .32500003 .22700002 C .32500003 .179 .32500003 .12900001 .30800004 .093 C .27800004 .033000005 .23200003 .028 .20900002 .028 Z "/>
</symbol>
<use xlink:href="#font_4_a" transform="matrix(9.9626,0,0,-9.9626,150.3279,76.07998)" fill="#800000"/>
<use xlink:href="#font_4_9" transform="matrix(9.9626,0,0,-9.9626,160.70893,77.62418)" fill="#800000"/>
<path transform="matrix(1,0,0,-1,16.224,174.481)" d="M 21.34238 77.59279 L 119.02487 77.59279 L 119.02487 65.17795 L 21.34238 65.17795 " fill="#bfbfbf"/>
<path transform="matrix(1,0,0,-1,16.224,174.481)" stroke-width="1" stroke-linecap="butt" stroke-miterlimit="10" stroke-linejoin="miter" fill="none" stroke="#000080" d="M 21.34238 77.59279 L 119.02487 77.59279 L 119.02487 65.17795 L 21.34238 65.17795 "/>
<path transform="matrix(1,0,0,-1,16.224,174.481)" stroke-width="1" stroke-linecap="butt" stroke-miterlimit="10" stroke-linejoin="miter" fill="none" stroke="#000080" d="M 21.34238 65.17795 L 21.34238 77.59279 "/>
<path transform="matrix(1,0,0,-1,16.224,174.481)" stroke-width="1" stroke-linecap="butt" stroke-miterlimit="10" stroke-linejoin="miter" fill="none" stroke="#000000" d="M 21.34238 59.50867 C 21.71597 58.76146 22.58772 58.26332 23.83307 58.26332 L 67.69293 58.26332 C 68.93828 58.26332 69.81003 57.7652 70.18362 57.01797 C 70.5572 57.7652 71.42897 58.26332 72.67432 58.26332 L 116.53418 58.26332 C 117.77953 58.26332 118.65128 58.76146 119.02487 59.50867 "/>
<symbol id="font_3_2">
<path d="M .232 .694 C .232 .695 .232 .705 .21900001 .705 C .19600001 .705 .122999999 .697 .097 .695 C .089 .694 .077999997 .693 .077999997 .675 C .077999997 .663 .087 .663 .102 .663 C .15 .663 .15200001 .656 .15200001 .646 L .149 .626 L .0040000008 .05 C 0 .036000004 0 .034 0 .028 C 0 .005000001 .02 0 .029000003 0 C .044999999 0 .061 .012000001 .066 .026 L .08499999 .102000009 L .10699999 .19200002 C .113000009 .21400002 .119 .23600002 .124 .259 C .126 .26500003 .134 .298 .135 .30400003 C .138 .31300003 .169 .36900003 .20300001 .39600004 C .225 .41200004 .256 .43100003 .299 .43100003 C .342 .43100003 .35300002 .397 .35300002 .36100004 C .35300002 .307 .315 .19800002 .291 .13700001 C .28300003 .11400001 .278 .102000009 .278 .082 C .278 .035 .31300003 0 .36 0 C .454 0 .491 .14600002 .491 .15400002 C .491 .16400002 .482 .16400002 .47900004 .16400002 C .46900005 .16400002 .46900005 .16100002 .46400006 .14600002 C .449 .093 .41700004 .022000002 .36200003 .022000002 C .345 .022000002 .338 .032 .338 .055000005 C .338 .080000009 .347 .104 .356 .126 C .372 .16900002 .41700004 .28800003 .41700004 .34600003 C .41700004 .411 .377 .45300005 .30200003 .45300005 C .239 .45300005 .191 .42200003 .154 .37600003 L .232 .694 Z "/>
</symbol>
<use xlink:href="#font_3_2" transform="matrix(9.9626,0,0,-9.9626,84.67194,128.39159)"/>
<path transform="matrix(1,0,0,-1,16.224,174.481)" stroke-width="1" stroke-linecap="butt" stroke-miterlimit="10" stroke-linejoin="miter" fill="none" stroke="#000000" d="M 124.69414 65.17795 C 125.44135 65.55153 125.93948 66.4233 125.93948 67.66864 L 125.93948 68.89467 C 125.93948 70.14001 126.4376 71.01178 127.18483 71.38536 C 126.4376 71.75896 125.93948 72.6307 125.93948 73.87605 L 125.93948 75.1021 C 125.93948 76.34744 125.44135 77.21921 124.69414 77.59279 "/>
<symbol id="font_4_1">
<path d="M .39500005 .698 C .38800005 .711 .38600005 .716 .36900003 .716 C .35200004 .716 .35000003 .711 .34300003 .698 L .004999999 .020000002 C 0 .011000001 0 .009000001 0 .008 C 0 0 .006000001 0 .022000004 0 L .716 0 C .73200008 0 .73800006 0 .73800006 .008 C .73800006 .009000001 .73800006 .011000001 .73300006 .020000002 L .39500005 .698 M .337 .61600008 L .60600009 .076000008 L .067 .076000008 L .337 .61600008 Z "/>
</symbol>
<use xlink:href="#font_4_1" transform="matrix(9.9626,0,0,-9.9626,146.01325,107.394008)"/>
<use xlink:href="#font_3_4" transform="matrix(9.9626,0,0,-9.9626,154.13591,109.43634)"/>
</g>
<symbol id="font_4_4">
<path d="M .205 .64000007 C .205 .66400006 .205 .666 .18200003 .666 C .120000008 .60200008 .032000007 .60200008 0 .60200008 L 0 .57100006 C .020000004 .57100006 .07900001 .57100006 .13100001 .597 L .13100001 .079 C .13100001 .043 .128 .031000002 .038000004 .031000002 L .0060000049 .031000002 L .0060000049 0 C .04100001 .003 .128 .003 .168 .003 C .20800002 .003 .29500003 .003 .33000005 0 L .33000005 .031000002 L .29800005 .031000002 C .20800002 .031000002 .205 .042000005 .205 .079 L .205 .64000007 Z "/>
</symbol>
<use xlink:href="#font_4_4" transform="matrix(9.9626,0,0,-9.9626,47.453676,174.132)"/>
<use xlink:href="#font_4_5" transform="matrix(9.9626,0,0,-9.9626,74.42713,174.132)"/>
<symbol id="font_4_6">
<path d="M .24800003 .37400005 C .33 .40100003 .388 .47100006 .388 .55 C .388 .632 .3 .688 .204 .688 C .10300001 .688 .027000003 .628 .027000003 .55200007 C .027000003 .519 .049000004 .5 .078 .5 C .109000008 .5 .12900001 .522 .12900001 .55100008 C .12900001 .6010001 .082 .6010001 .067 .6010001 C .098 .65000006 .164 .66300007 .20000002 .66300007 C .24100003 .66300007 .29600004 .64100006 .29600004 .55100008 C .29600004 .53900006 .29400004 .48100005 .268 .43700005 C .238 .38900004 .204 .38600005 .17900002 .38500003 C .171 .38400004 .14700002 .38200004 .14000002 .38200004 C .132 .38100005 .125 .38000003 .125 .37000004 C .125 .35900004 .132 .35900004 .14900002 .35900004 L .19300002 .35900004 C .275 .35900004 .312 .29100005 .312 .193 C .312 .057000005 .24300003 .028 .199 .028 C .15600002 .028 .081 .045 .046000005 .104 C .081 .09900001 .11200001 .12100001 .11200001 .15900001 C .11200001 .19500001 .085 .215 .056 .215 C .031999999 .215 0 .201 0 .157 C 0 .06600001 .093 0 .20200002 0 C .32400004 0 .41500003 .091000009 .41500003 .193 C .41500003 .27500005 .35200004 .35300005 .24800003 .37400005 Z "/>
</symbol>
<use xlink:href="#font_4_6" transform="matrix(9.9626,0,0,-9.9626,101.70943,174.35118)"/>
<symbol id="font_4_7">
<path d="M .266 .165 L .266 .078 C .266 .042000005 .26400004 .031000002 .19000001 .031000002 L .16900002 .031000002 L .16900002 0 C .21000001 .003 .26200003 .003 .30400003 .003 C .34600003 .003 .39900003 .003 .44000004 0 L .44000004 .031000002 L .41900004 .031000002 C .34500004 .031000002 .34300003 .042000005 .34300003 .078 L .34300003 .165 L .44300003 .165 L .44300003 .19600001 L .34300003 .19600001 L .34300003 .651 C .34300003 .671 .34300003 .67700007 .32700003 .67700007 C .31800003 .67700007 .31500004 .67700007 .307 .665 L 0 .19600001 L 0 .165 L .266 .165 M .272 .19600001 L .028 .19600001 L .272 .569 L .272 .19600001 Z "/>
</symbol>
<use xlink:href="#font_4_7" transform="matrix(9.9626,0,0,-9.9626,128.93096,174.132)"/>
<symbol id="font_4_8">
<path d="M .39900003 .223 C .39900003 .34200005 .317 .44200004 .209 .44200004 C .16100002 .44200004 .118000019 .42600004 .082 .39100004 L .082 .586 C .10200001 .58000007 .135 .573 .16700001 .573 C .29 .573 .36 .66400006 .36 .67700007 C .36 .683 .357 .688 .35 .688 C .349 .688 .347 .688 .342 .68500009 C .322 .67600008 .273 .656 .20600002 .656 C .16600001 .656 .120000008 .66300007 .073 .6840001 C .065 .68700006 .06300001 .68700006 .061000009 .68700006 C .051000004 .68700006 .051000004 .679 .051000004 .66300007 L .051000004 .36700005 C .051000004 .34900005 .051000004 .34100003 .065 .34100003 C .07200001 .34100003 .074 .34400005 .07800001 .35000003 C .08900002 .36600004 .12600002 .42000006 .207 .42000006 C .259 .42000006 .284 .37400005 .292 .35600005 C .308 .31900005 .31 .28000004 .31 .23 C .31 .19500001 .31 .135 .286 .093 C .262 .054000006 .22500001 .028 .17900002 .028 C .106000009 .028 .049000008 .08100001 .032 .14000002 C .035 .13900002 .038000008 .13800001 .049000008 .13800001 C .082 .13800001 .09900001 .163 .09900001 .187 C .09900001 .21100001 .082 .23600002 .049000008 .23600002 C .035 .23600002 0 .22900002 0 .18300002 C 0 .097 .069000009 0 .18100001 0 C .297 0 .39900003 .096 .39900003 .223 Z "/>
</symbol>
<use xlink:href="#font_4_8" transform="matrix(9.9626,0,0,-9.9626,156.51212,174.35118)"/>
<use xlink:href="#font_4_9" transform="matrix(9.9626,0,0,-9.9626,183.79442,174.35118)"/>
<symbol id="font_4_3">
<path d="M .421 .34200005 C .421 .42200003 .416 .50200006 .381 .57600006 C .335 .67200008 .25300003 .688 .211 .688 C .15100001 .688 .07800001 .66200008 .037000006 .56900009 C .0050000029 .5 0 .42200003 0 .34200005 C 0 .26700003 .0040000008 .177 .045000007 .101 C .088 .020000002 .161 0 .21000001 0 C .264 0 .34 .021000002 .384 .116000007 C .416 .185 .421 .263 .421 .34200005 M .21000001 .022000002 C .171 .022000002 .112 .047000003 .094 .143 C .083000008 .20300001 .083000008 .29500003 .083000008 .35400004 C .083000008 .41800005 .083000008 .48400004 .091000009 .53800007 C .11 .65700009 .185 .66600009 .21000001 .66600009 C .243 .66600009 .30900003 .64800009 .328 .549 C .338 .49300004 .338 .41700004 .338 .35400004 C .338 .279 .338 .21100001 .32700003 .147 C .312 .052 .255 .022000002 .21000001 .022000002 Z "/>
</symbol>
<use xlink:href="#font_4_3" transform="matrix(9.9626,0,0,-9.9626,3.7095426,134.45919)"/>
<symbol id="font_3_1">
<path d="M .106 .053000004 C .106 .082 .08200001 .106000009 .05300001 .106000009 C .024000004 .106000009 0 .082 0 .053000004 C 0 .024 .024000004 0 .05300001 0 C .08200001 0 .106 .024 .106 .053000004 Z "/>
</symbol>
<use xlink:href="#font_3_1" transform="matrix(9.9626,0,0,-9.9626,9.158785,134.24)"/>
<use xlink:href="#font_4_8" transform="matrix(9.9626,0,0,-9.9626,11.567131,134.45919)"/>
<use xlink:href="#font_4_4" transform="matrix(9.9626,0,0,-9.9626,11.955671,103.203)"/>
<use xlink:href="#font_4_4" transform="matrix(9.9626,0,0,-9.9626,4.2076728,72.166)"/>
<use xlink:href="#font_3_1" transform="matrix(9.9626,0,0,-9.9626,9.158785,72.166)"/>
<use xlink:href="#font_4_8" transform="matrix(9.9626,0,0,-9.9626,11.567131,72.38518)"/>
<use xlink:href="#font_4_5" transform="matrix(9.9626,0,0,-9.9626,11.56713,41.130006)"/>
<use xlink:href="#font_3_3" transform="matrix(9.9626,0,0,-9.9626,214.33191,164.31859)"/>
<use xlink:href="#font_3_4" transform="matrix(9.9626,0,0,-9.9626,19.368918,9.652334)"/>
<path transform="matrix(1,0,0,-1,16.224,174.481)" stroke-width="1" stroke-linecap="butt" stroke-miterlimit="10" stroke-linejoin="miter" fill="none" stroke="#808080" d="M 32.83444 10.28883 L 32.83444 14.54083 M 60.19649 10.28883 L 60.19649 14.54083 M 87.55852 10.28883 L 87.55852 14.54083 M 114.92056 10.28883 L 114.92056 14.54083 M 142.28261 10.28883 L 142.28261 14.54083 M 169.64466 10.28883 L 169.64466 14.54083 "/>
<path transform="matrix(1,0,0,-1,16.224,174.481)" stroke-width="1" stroke-linecap="butt" stroke-miterlimit="10" stroke-linejoin="miter" fill="none" stroke="#808080" d="M 3.34639 43.45197 L 7.5984 43.45197 M 3.34639 74.48907 L 7.5984 74.48907 M 3.34639 105.5262 L 7.5984 105.5262 M 3.34639 136.56333 L 7.5984 136.56333 "/>
<path transform="matrix(1,0,0,-1,16.224,174.481)" stroke-width="1" stroke-linecap="butt" stroke-miterlimit="10" stroke-linejoin="miter" fill="none" stroke="#000000" d="M 0 12.41484 L 192.27796 12.41484 "/>
<path transform="matrix(1,0,0,-1,208.50196,162.06616)" d="M 1.99252 0 L -1.19551 1.59401 L 0 0 L -1.19551 -1.59401 "/>
<path transform="matrix(1,0,0,-1,16.224,174.481)" stroke-width="1" stroke-linecap="butt" stroke-miterlimit="10" stroke-linejoin="miter" fill="none" stroke="#000000" d="M 5.4724 0 L 5.4724 159.40048 "/>
<path transform="matrix(0,-1,-1,-0,21.696402,15.080521)" d="M 1.99252 0 L -1.19551 1.59401 L 0 0 L -1.19551 -1.59401 "/>
</svg>
