<?xml version="1.0" encoding="UTF-8" standalone="no"?>
<!DOCTYPE svg PUBLIC "-//W3C//DTD SVG 1.1//EN" "http://www.w3.org/Graphics/SVG/1.1/DTD/svg11.dtd">
<svg xmlns="http://www.w3.org/2000/svg" xmlns:xlink="http://www.w3.org/1999/xlink" version="1.1" width="129.784pt" height="105.558pt" viewBox="0 0 129.784 105.558">
<clipPath id="cp0">
<path transform="matrix(1,0,0,-1,81.795,68.999)" d="M -81.79585 -15.6945 L -81.79585 54.32579 L -5.31621 69.00027 L 47.9895 48.13556 L 47.9895 -21.88475 L -28.49011 -36.55922 Z "/>
</clipPath>
<g clip-path="url(#cp0)">
<path transform="matrix(1,0,0,-1,81.795,68.999)" stroke-width="1" stroke-linecap="butt" stroke-miterlimit="10" stroke-linejoin="miter" fill="none" stroke="#c91bff" d="M 11.40424 31.73796 L 5.79895 32.23761 L 8.63672 44.01631 L 14.94269 43.45421 Z "/>
<path transform="matrix(1,0,0,-1,81.795,68.999)" stroke-width="1" stroke-linecap="butt" stroke-miterlimit="10" stroke-linejoin="miter" fill="none" stroke="#c91bff" d="M 16.27776 30.98547 L 11.40424 31.73796 L 14.94269 43.45421 L 20.42538 42.60765 Z "/>
<path transform="matrix(1,0,0,-1,81.795,68.999)" stroke-width="1" stroke-linecap="butt" stroke-miterlimit="10" stroke-linejoin="miter" fill="none" stroke="#c91bff" d="M 5.79895 32.23761 L -.39471 32.47139 L 1.66884 44.2793 L 8.63672 44.01631 Z "/>
<path transform="matrix(1,0,0,-1,81.795,68.999)" stroke-width="1" stroke-linecap="butt" stroke-miterlimit="10" stroke-linejoin="miter" fill="none" stroke="#654eff" d="M 7.86583 21.25659 L 2.9612 21.69379 L 5.79895 32.23761 L 11.40424 31.73796 Z "/>
<path transform="matrix(1,0,0,-1,81.795,68.999)" stroke-width="1" stroke-linecap="butt" stroke-miterlimit="10" stroke-linejoin="miter" fill="none" stroke="#654eff" d="M 12.13016 20.59816 L 7.86583 21.25659 L 11.40424 31.73796 L 16.27776 30.98547 Z "/>
<path transform="matrix(1,0,0,-1,81.795,68.999)" stroke-width="1" stroke-linecap="butt" stroke-miterlimit="10" stroke-linejoin="miter" fill="none" stroke="#654eff" d="M 2.9612 21.69379 L -2.45825 21.89833 L -.39471 32.47139 L 5.79895 32.23761 Z "/>
<path transform="matrix(1,0,0,-1,81.795,68.999)" stroke-width="1" stroke-linecap="butt" stroke-miterlimit="10" stroke-linejoin="miter" fill="none" stroke="#c91bff" d="M 20.28934 29.99916 L 16.27776 30.98547 L 20.42538 42.60765 L 24.93843 41.49806 Z "/>
<path transform="matrix(1,0,0,-1,81.795,68.999)" stroke-width="1" stroke-linecap="butt" stroke-miterlimit="10" stroke-linejoin="miter" fill="none" stroke="#c91bff" d="M -.39471 32.47139 L -7.01523 32.43355 L -5.77922 44.23674 L 1.66884 44.2793 Z "/>
<path transform="matrix(1,0,0,-1,81.795,68.999)" stroke-width="1" stroke-linecap="butt" stroke-miterlimit="10" stroke-linejoin="miter" fill="none" stroke="#0c7aff" d="M 4.3274 12.00989 L .12341 12.38464 L 2.9612 21.69379 L 7.86583 21.25659 Z "/>
<path transform="matrix(1,0,0,-1,81.795,68.999)" stroke-width="1" stroke-linecap="butt" stroke-miterlimit="10" stroke-linejoin="miter" fill="none" stroke="#654eff" d="M 15.64029 19.73515 L 12.13016 20.59816 L 16.27776 30.98547 L 20.28934 29.99916 Z "/>
<path transform="matrix(1,0,0,-1,81.795,68.999)" stroke-width="1" stroke-linecap="butt" stroke-miterlimit="10" stroke-linejoin="miter" fill="none" stroke="#0c7aff" d="M 7.98251 11.44553 L 4.3274 12.00989 L 7.86583 21.25659 L 12.13016 20.59816 Z "/>
<path transform="matrix(1,0,0,-1,81.795,68.999)" stroke-width="1" stroke-linecap="butt" stroke-miterlimit="10" stroke-linejoin="miter" fill="none" stroke="#0c7aff" d="M .12341 12.38464 L -4.52182 12.55995 L -2.45825 21.89833 L 2.9612 21.69379 Z "/>
<path transform="matrix(1,0,0,-1,81.795,68.999)" stroke-width="1" stroke-linecap="butt" stroke-miterlimit="10" stroke-linejoin="miter" fill="none" stroke="#654eff" d="M -2.45825 21.89833 L -8.2512 21.86522 L -7.01523 32.43355 L -.39471 32.47139 Z "/>
<path transform="matrix(1,0,0,-1,81.795,68.999)" stroke-width="1" stroke-linecap="butt" stroke-miterlimit="10" stroke-linejoin="miter" fill="none" stroke="#0c7aff" d="M 10.99123 10.70581 L 7.98251 11.44553 L 12.13016 20.59816 L 15.64029 19.73515 Z "/>
<path transform="matrix(1,0,0,-1,81.795,68.999)" stroke-width="1" stroke-linecap="butt" stroke-miterlimit="10" stroke-linejoin="miter" fill="none" stroke="#0c7aff" d="M -4.52182 12.55995 L -9.4872 12.53159 L -8.2512 21.86522 L -2.45825 21.89833 Z "/>
<path transform="matrix(1,0,0,-1,81.795,68.999)" stroke-width="1" stroke-linecap="butt" stroke-miterlimit="10" stroke-linejoin="miter" fill="none" stroke="#3f9fff" d="M .78896 3.99811 L -2.71434 4.3104 L .12341 12.38464 L 4.3274 12.00989 Z "/>
<path transform="matrix(1,0,0,-1,81.795,68.999)" stroke-width="1" stroke-linecap="butt" stroke-miterlimit="10" stroke-linejoin="miter" fill="none" stroke="#c91bff" d="M 23.33798 28.80566 L 20.28934 29.99916 L 24.93843 41.49806 L 28.36813 40.15538 Z "/>
<path transform="matrix(1,0,0,-1,81.795,68.999)" stroke-width="1" stroke-linecap="butt" stroke-miterlimit="10" stroke-linejoin="miter" fill="none" stroke="#3f9fff" d="M 3.83492 3.5278 L .78896 3.99811 L 4.3274 12.00989 L 7.98251 11.44553 Z "/>
<path transform="matrix(1,0,0,-1,81.795,68.999)" stroke-width="1" stroke-linecap="butt" stroke-miterlimit="10" stroke-linejoin="miter" fill="none" stroke="#3f9fff" d="M -2.71434 4.3104 L -6.58537 4.4565 L -4.52182 12.55995 L .12341 12.38464 Z "/>
<path transform="matrix(1,0,0,-1,81.795,68.999)" stroke-width="1" stroke-linecap="butt" stroke-miterlimit="10" stroke-linejoin="miter" fill="none" stroke="#c91bff" d="M -7.01523 32.43355 L -13.8926 32.12491 L -13.51627 43.88951 L -5.77922 44.23674 Z "/>
<path transform="matrix(1,0,0,-1,81.795,68.999)" stroke-width="1" stroke-linecap="butt" stroke-miterlimit="10" stroke-linejoin="miter" fill="none" stroke="#654eff" d="M 18.30785 18.69084 L 15.64029 19.73515 L 20.28934 29.99916 L 23.33798 28.80566 Z "/>
<path transform="matrix(1,0,0,-1,81.795,68.999)" stroke-width="1" stroke-linecap="butt" stroke-miterlimit="10" stroke-linejoin="miter" fill="none" stroke="#654eff" d="M -8.2512 21.86522 L -14.26892 21.59517 L -13.8926 32.12491 L -7.01523 32.43355 Z "/>
<path transform="matrix(1,0,0,-1,81.795,68.999)" stroke-width="1" stroke-linecap="butt" stroke-miterlimit="10" stroke-linejoin="miter" fill="none" stroke="#3f9fff" d="M 6.34216 2.91135 L 3.83492 3.5278 L 7.98251 11.44553 L 10.99123 10.70581 Z "/>
<path transform="matrix(1,0,0,-1,81.795,68.999)" stroke-width="1" stroke-linecap="butt" stroke-miterlimit="10" stroke-linejoin="miter" fill="none" stroke="#3f9fff" d="M -6.58537 4.4565 L -10.72319 4.43285 L -9.4872 12.53159 L -4.52182 12.55995 Z "/>
<path transform="matrix(1,0,0,-1,81.795,68.999)" stroke-width="1" stroke-linecap="butt" stroke-miterlimit="10" stroke-linejoin="miter" fill="none" stroke="#0c7aff" d="M 13.2777 9.81068 L 10.99123 10.70581 L 15.64029 19.73515 L 18.30785 18.69084 Z "/>
<path transform="matrix(1,0,0,-1,81.795,68.999)" stroke-width="1" stroke-linecap="butt" stroke-miterlimit="10" stroke-linejoin="miter" fill="none" stroke="#0c7aff" d="M -9.4872 12.53159 L -14.64523 12.30011 L -14.26892 21.59517 L -8.2512 21.86522 Z "/>
<path transform="matrix(1,0,0,-1,81.795,68.999)" stroke-width="1" stroke-linecap="butt" stroke-miterlimit="10" stroke-linejoin="miter" fill="none" stroke="#7ebfff" d="M -2.74945 -2.77895 L -5.5521 -2.52911 L -2.71434 4.3104 L .78896 3.99811 Z "/>
<path transform="matrix(1,0,0,-1,81.795,68.999)" stroke-width="1" stroke-linecap="butt" stroke-miterlimit="10" stroke-linejoin="miter" fill="none" stroke="#7ebfff" d="M -.3127 -3.15518 L -2.74945 -2.77895 L .78896 3.99811 L 3.83492 3.5278 Z "/>
<path transform="matrix(1,0,0,-1,81.795,68.999)" stroke-width="1" stroke-linecap="butt" stroke-miterlimit="10" stroke-linejoin="miter" fill="none" stroke="#7ebfff" d="M -5.5521 -2.52911 L -8.64894 -2.41225 L -6.58537 4.4565 L -2.71434 4.3104 Z "/>
<path transform="matrix(1,0,0,-1,81.795,68.999)" stroke-width="1" stroke-linecap="butt" stroke-miterlimit="10" stroke-linejoin="miter" fill="none" stroke="#3f9fff" d="M 8.24756 2.1654 L 6.34216 2.91135 L 10.99123 10.70581 L 13.2777 9.81068 Z "/>
<path transform="matrix(1,0,0,-1,81.795,68.999)" stroke-width="1" stroke-linecap="butt" stroke-miterlimit="10" stroke-linejoin="miter" fill="none" stroke="#3f9fff" d="M -10.72319 4.43285 L -15.02156 4.23994 L -14.64523 12.30011 L -9.4872 12.53159 Z "/>
<path transform="matrix(1,0,0,-1,81.795,68.999)" stroke-width="1" stroke-linecap="butt" stroke-miterlimit="10" stroke-linejoin="miter" fill="none" stroke="#7ebfff" d="M 1.69308 -3.64835 L -.3127 -3.15518 L 3.83492 3.5278 L 6.34216 2.91135 Z "/>
<path transform="matrix(1,0,0,-1,81.795,68.999)" stroke-width="1" stroke-linecap="butt" stroke-miterlimit="10" stroke-linejoin="miter" fill="none" stroke="#7ebfff" d="M -8.64894 -2.41225 L -11.9592 -2.43115 L -10.72319 4.43285 L -6.58537 4.4565 Z "/>
<path transform="matrix(1,0,0,-1,81.795,68.999)" stroke-width="1" stroke-linecap="butt" stroke-miterlimit="10" stroke-linejoin="miter" fill="none" stroke="#654eff" d="M 20.06548 17.49156 L 18.30785 18.69084 L 23.33798 28.80566 L 25.34671 27.43507 Z "/>
<path transform="matrix(1,0,0,-1,81.795,68.999)" stroke-width="1" stroke-linecap="butt" stroke-miterlimit="10" stroke-linejoin="miter" fill="none" stroke="#c91bff" d="M 25.34671 27.43507 L 23.33798 28.80566 L 28.36813 40.15538 L 30.62794 38.61346 Z "/>
<path transform="matrix(1,0,0,-1,81.795,68.999)" stroke-width="1" stroke-linecap="butt" stroke-miterlimit="10" stroke-linejoin="miter" fill="none" stroke="#654eff" d="M -14.26892 21.59517 L -20.355 21.09453 L -20.84813 31.55275 L -13.8926 32.12491 Z "/>
<path transform="matrix(1,0,0,-1,81.795,68.999)" stroke-width="1" stroke-linecap="butt" stroke-miterlimit="10" stroke-linejoin="miter" fill="none" stroke="#0c7aff" d="M 14.78423 8.78273 L 13.2777 9.81068 L 18.30785 18.69084 L 20.06548 17.49156 Z "/>
<path transform="matrix(1,0,0,-1,81.795,68.999)" stroke-width="1" stroke-linecap="butt" stroke-miterlimit="10" stroke-linejoin="miter" fill="none" stroke="#c91bff" d="M -13.8926 32.12491 L -20.84813 31.55275 L -21.34123 43.24585 L -13.51627 43.88951 Z "/>
<path transform="matrix(1,0,0,-1,81.795,68.999)" stroke-width="1" stroke-linecap="butt" stroke-miterlimit="10" stroke-linejoin="miter" fill="none" stroke="#0c7aff" d="M -14.64523 12.30011 L -19.86188 11.871 L -20.355 21.09453 L -14.26892 21.59517 Z "/>
<path transform="matrix(1,0,0,-1,81.795,68.999)" stroke-width="1" stroke-linecap="butt" stroke-miterlimit="10" stroke-linejoin="miter" fill="none" stroke="#7ebfff" d="M 3.2174 -4.24509 L 1.69308 -3.64835 L 6.34216 2.91135 L 8.24756 2.1654 Z "/>
<path transform="matrix(1,0,0,-1,81.795,68.999)" stroke-width="1" stroke-linecap="butt" stroke-miterlimit="10" stroke-linejoin="miter" fill="none" stroke="#7ebfff" d="M -11.9592 -2.43115 L -15.39787 -2.58546 L -15.02156 4.23994 L -10.72319 4.43285 Z "/>
<path transform="matrix(1,0,0,-1,81.795,68.999)" stroke-width="1" stroke-linecap="butt" stroke-miterlimit="10" stroke-linejoin="miter" fill="none" stroke="#3f9fff" d="M 9.503 1.30879 L 8.24756 2.1654 L 13.2777 9.81068 L 14.78423 8.78273 Z "/>
<path transform="matrix(1,0,0,-1,81.795,68.999)" stroke-width="1" stroke-linecap="butt" stroke-miterlimit="10" stroke-linejoin="miter" fill="none" stroke="#b0d8ff" d="M -6.28789 -8.32121 L -8.38988 -8.13383 L -5.5521 -2.52911 L -2.74945 -2.77895 Z "/>
<path transform="matrix(1,0,0,-1,81.795,68.999)" stroke-width="1" stroke-linecap="butt" stroke-miterlimit="10" stroke-linejoin="miter" fill="none" stroke="#b0d8ff" d="M -4.46031 -8.60338 L -6.28789 -8.32121 L -2.74945 -2.77895 L -.3127 -3.15518 Z "/>
<path transform="matrix(1,0,0,-1,81.795,68.999)" stroke-width="1" stroke-linecap="butt" stroke-miterlimit="10" stroke-linejoin="miter" fill="none" stroke="#3f9fff" d="M -15.02156 4.23994 L -19.36876 3.88235 L -19.86188 11.871 L -14.64523 12.30011 Z "/>
<path transform="matrix(1,0,0,-1,81.795,68.999)" stroke-width="1" stroke-linecap="butt" stroke-miterlimit="10" stroke-linejoin="miter" fill="none" stroke="#b0d8ff" d="M -8.38988 -8.13383 L -10.7125 -8.04617 L -8.64894 -2.41225 L -5.5521 -2.52911 Z "/>
<path transform="matrix(1,0,0,-1,81.795,68.999)" stroke-width="1" stroke-linecap="butt" stroke-miterlimit="10" stroke-linejoin="miter" fill="none" stroke="#b0d8ff" d="M -2.95598 -8.97325 L -4.46031 -8.60338 L -.3127 -3.15518 L 1.69308 -3.64835 Z "/>
<path transform="matrix(1,0,0,-1,81.795,68.999)" stroke-width="1" stroke-linecap="butt" stroke-miterlimit="10" stroke-linejoin="miter" fill="none" stroke="#b0d8ff" d="M -10.7125 -8.04617 L -13.19519 -8.06036 L -11.9592 -2.43115 L -8.64894 -2.41225 Z "/>
<path transform="matrix(1,0,0,-1,81.795,68.999)" stroke-width="1" stroke-linecap="butt" stroke-miterlimit="10" stroke-linejoin="miter" fill="none" stroke="#7ebfff" d="M 4.22177 -4.93039 L 3.2174 -4.24509 L 8.24756 2.1654 L 9.503 1.30879 Z "/>
<path transform="matrix(1,0,0,-1,81.795,68.999)" stroke-width="1" stroke-linecap="butt" stroke-miterlimit="10" stroke-linejoin="miter" fill="none" stroke="#7ebfff" d="M -15.39787 -2.58546 L -18.87566 -2.87154 L -19.36876 3.88235 L -15.02156 4.23994 Z "/>
<path transform="matrix(1,0,0,-1,81.795,68.999)" stroke-width="1" stroke-linecap="butt" stroke-miterlimit="10" stroke-linejoin="miter" fill="none" stroke="#b0d8ff" d="M -1.81274 -9.42082 L -2.95598 -8.97325 L 1.69308 -3.64835 L 3.2174 -4.24509 Z "/>
<path transform="matrix(1,0,0,-1,81.795,68.999)" stroke-width="1" stroke-linecap="butt" stroke-miterlimit="10" stroke-linejoin="miter" fill="none" stroke="#b0d8ff" d="M -13.19519 -8.06036 L -15.7742 -8.1761 L -15.39787 -2.58546 L -11.9592 -2.43115 Z "/>
<path transform="matrix(1,0,0,-1,81.795,68.999)" stroke-width="1" stroke-linecap="butt" stroke-miterlimit="10" stroke-linejoin="miter" fill="none" stroke="#0c7aff" d="M 15.46967 7.64862 L 14.78423 8.78273 L 20.06548 17.49156 L 20.86516 16.16844 Z "/>
<path transform="matrix(1,0,0,-1,81.795,68.999)" stroke-width="1" stroke-linecap="butt" stroke-miterlimit="10" stroke-linejoin="miter" fill="none" stroke="#654eff" d="M 20.86516 16.16844 L 20.06548 17.49156 L 25.34671 27.43507 L 26.2606 25.92296 Z "/>
<path transform="matrix(1,0,0,-1,81.795,68.999)" stroke-width="1" stroke-linecap="butt" stroke-miterlimit="10" stroke-linejoin="miter" fill="none" stroke="#0c7aff" d="M -19.86188 11.871 L -25.0014 11.25603 L -26.35112 20.37709 L -20.355 21.09453 Z "/>
<path transform="matrix(1,0,0,-1,81.795,68.999)" stroke-width="1" stroke-linecap="butt" stroke-miterlimit="10" stroke-linejoin="miter" fill="none" stroke="#3f9fff" d="M 10.0742 .36371 L 9.503 1.30879 L 14.78423 8.78273 L 15.46967 7.64862 Z "/>
<path transform="matrix(1,0,0,-1,81.795,68.999)" stroke-width="1" stroke-linecap="butt" stroke-miterlimit="10" stroke-linejoin="miter" fill="none" stroke="#654eff" d="M -20.355 21.09453 L -26.35112 20.37709 L -27.70082 30.7328 L -20.84813 31.55275 Z "/>
<path transform="matrix(1,0,0,-1,81.795,68.999)" stroke-width="1" stroke-linecap="butt" stroke-miterlimit="10" stroke-linejoin="miter" fill="none" stroke="#c91bff" d="M 26.2606 25.92296 L 25.34671 27.43507 L 30.62794 38.61346 L 31.65611 36.91231 Z "/>
<path transform="matrix(1,0,0,-1,81.795,68.999)" stroke-width="1" stroke-linecap="butt" stroke-miterlimit="10" stroke-linejoin="miter" fill="none" stroke="#3f9fff" d="M -19.36876 3.88235 L -23.6517 3.36989 L -25.0014 11.25603 L -19.86188 11.871 Z "/>
<path transform="matrix(1,0,0,-1,81.795,68.999)" stroke-width="1" stroke-linecap="butt" stroke-miterlimit="10" stroke-linejoin="miter" fill="none" stroke="#b0d8ff" d="M -1.05946 -9.9348 L -1.81274 -9.42082 L 3.2174 -4.24509 L 4.22177 -4.93039 Z "/>
<path transform="matrix(1,0,0,-1,81.795,68.999)" stroke-width="1" stroke-linecap="butt" stroke-miterlimit="10" stroke-linejoin="miter" fill="none" stroke="#d6ebff" d="M -9.82631 -12.6287 L -11.22765 -12.50377 L -8.38988 -8.13383 L -6.28789 -8.32121 Z "/>
<path transform="matrix(1,0,0,-1,81.795,68.999)" stroke-width="1" stroke-linecap="butt" stroke-miterlimit="10" stroke-linejoin="miter" fill="none" stroke="#c91bff" d="M -20.84813 31.55275 L -27.70082 30.7328 L -29.05054 42.32341 L -21.34123 43.24585 Z "/>
<path transform="matrix(1,0,0,-1,81.795,68.999)" stroke-width="1" stroke-linecap="butt" stroke-miterlimit="10" stroke-linejoin="miter" fill="none" stroke="#b0d8ff" d="M -15.7742 -8.1761 L -18.38252 -8.39067 L -18.87566 -2.87154 L -15.39787 -2.58546 Z "/>
<path transform="matrix(1,0,0,-1,81.795,68.999)" stroke-width="1" stroke-linecap="butt" stroke-miterlimit="10" stroke-linejoin="miter" fill="none" stroke="#d6ebff" d="M -8.60793 -12.8168 L -9.82631 -12.6287 L -6.28789 -8.32121 L -4.46031 -8.60338 Z "/>
<path transform="matrix(1,0,0,-1,81.795,68.999)" stroke-width="1" stroke-linecap="butt" stroke-miterlimit="10" stroke-linejoin="miter" fill="none" stroke="#d6ebff" d="M -11.22765 -12.50377 L -12.77606 -12.44533 L -10.7125 -8.04617 L -8.38988 -8.13383 Z "/>
<path transform="matrix(1,0,0,-1,81.795,68.999)" stroke-width="1" stroke-linecap="butt" stroke-miterlimit="10" stroke-linejoin="miter" fill="none" stroke="#7ebfff" d="M 4.67873 -5.68646 L 4.22177 -4.93039 L 9.503 1.30879 L 10.0742 .36371 Z "/>
<path transform="matrix(1,0,0,-1,81.795,68.999)" stroke-width="1" stroke-linecap="butt" stroke-miterlimit="10" stroke-linejoin="miter" fill="none" stroke="#d6ebff" d="M -7.60504 -13.06339 L -8.60793 -12.8168 L -4.46031 -8.60338 L -2.95598 -8.97325 Z "/>
<path transform="matrix(1,0,0,-1,81.795,68.999)" stroke-width="1" stroke-linecap="butt" stroke-miterlimit="10" stroke-linejoin="miter" fill="none" stroke="#7ebfff" d="M -18.87566 -2.87154 L -22.30199 -3.28152 L -23.6517 3.36989 L -19.36876 3.88235 Z "/>
<path transform="matrix(1,0,0,-1,81.795,68.999)" stroke-width="1" stroke-linecap="butt" stroke-miterlimit="10" stroke-linejoin="miter" fill="none" stroke="#d6ebff" d="M -12.77606 -12.44533 L -14.43118 -12.45479 L -13.19519 -8.06036 L -10.7125 -8.04617 Z "/>
<path transform="matrix(1,0,0,-1,81.795,68.999)" stroke-width="1" stroke-linecap="butt" stroke-miterlimit="10" stroke-linejoin="miter" fill="none" stroke="#d6ebff" d="M -6.84288 -13.36176 L -7.60504 -13.06339 L -2.95598 -8.97325 L -1.81274 -9.42082 Z "/>
<path transform="matrix(1,0,0,-1,81.795,68.999)" stroke-width="1" stroke-linecap="butt" stroke-miterlimit="10" stroke-linejoin="miter" fill="none" stroke="#d6ebff" d="M -14.43118 -12.45479 L -16.15053 -12.53194 L -15.7742 -8.1761 L -13.19519 -8.06036 Z "/>
<path transform="matrix(1,0,0,-1,81.795,68.999)" stroke-width="1" stroke-linecap="butt" stroke-miterlimit="10" stroke-linejoin="miter" fill="none" stroke="#b0d8ff" d="M -.71675 -10.50183 L -1.05946 -9.9348 L 4.22177 -4.93039 L 4.67873 -5.68646 Z "/>
<path transform="matrix(1,0,0,-1,81.795,68.999)" stroke-width="1" stroke-linecap="butt" stroke-miterlimit="10" stroke-linejoin="miter" fill="none" stroke="#b0d8ff" d="M -18.38252 -8.39067 L -20.95229 -8.69814 L -22.30199 -3.28152 L -18.87566 -2.87154 Z "/>
<path transform="matrix(1,0,0,-1,81.795,68.999)" stroke-width="1" stroke-linecap="butt" stroke-miterlimit="10" stroke-linejoin="miter" fill="none" stroke="#d6ebff" d="M -6.3407 -13.7044 L -6.84288 -13.36176 L -1.81274 -9.42082 L -1.05946 -9.9348 Z "/>
<path transform="matrix(1,0,0,-1,81.795,68.999)" stroke-width="1" stroke-linecap="butt" stroke-miterlimit="10" stroke-linejoin="miter" fill="none" stroke="#d6ebff" d="M -16.15053 -12.53194 L -17.8894 -12.67497 L -18.38252 -8.39067 L -15.7742 -8.1761 Z "/>
<path transform="matrix(1,0,0,-1,81.795,68.999)" stroke-width="1" stroke-linecap="butt" stroke-miterlimit="10" stroke-linejoin="miter" fill="none" stroke="#3f9fff" d="M 9.94566 -.64534 L 10.0742 .36371 L 15.46967 7.64862 L 15.3154 6.43776 Z "/>
<path transform="matrix(1,0,0,-1,81.795,68.999)" stroke-width="1" stroke-linecap="butt" stroke-miterlimit="10" stroke-linejoin="miter" fill="none" stroke="#0c7aff" d="M 15.3154 6.43776 L 15.46967 7.64862 L 20.86516 16.16844 L 20.68518 14.75575 Z "/>
<path transform="matrix(1,0,0,-1,81.795,68.999)" stroke-width="1" stroke-linecap="butt" stroke-miterlimit="10" stroke-linejoin="miter" fill="none" stroke="#7ebfff" d="M 4.57588 -6.49371 L 4.67873 -5.68646 L 10.0742 .36371 L 9.94566 -.64534 Z "/>
<path transform="matrix(1,0,0,-1,81.795,68.999)" stroke-width="1" stroke-linecap="butt" stroke-miterlimit="10" stroke-linejoin="miter" fill="none" stroke="#3f9fff" d="M -23.6517 3.36989 L -27.76027 2.71567 L -29.93167 10.47096 L -25.0014 11.25603 Z "/>
<path transform="matrix(1,0,0,-1,81.795,68.999)" stroke-width="1" stroke-linecap="butt" stroke-miterlimit="10" stroke-linejoin="miter" fill="none" stroke="#0c7aff" d="M -25.0014 11.25603 L -29.93167 10.47096 L -32.10309 19.46117 L -26.35112 20.37709 Z "/>
<path transform="matrix(1,0,0,-1,81.795,68.999)" stroke-width="1" stroke-linecap="butt" stroke-miterlimit="10" stroke-linejoin="miter" fill="none" stroke="#7ebfff" d="M -22.30199 -3.28152 L -25.58884 -3.8049 L -27.76027 2.71567 L -23.6517 3.36989 Z "/>
<path transform="matrix(1,0,0,-1,81.795,68.999)" stroke-width="1" stroke-linecap="butt" stroke-miterlimit="10" stroke-linejoin="miter" fill="none" stroke="#654eff" d="M 20.68518 14.75575 L 20.86516 16.16844 L 26.2606 25.92296 L 26.05493 24.30841 Z "/>
<path transform="matrix(1,0,0,-1,81.795,68.999)" stroke-width="1" stroke-linecap="butt" stroke-miterlimit="10" stroke-linejoin="miter" fill="none" stroke="#d6ebff" d="M -6.11221 -14.08244 L -6.3407 -13.7044 L -1.05946 -9.9348 L -.71675 -10.50183 Z "/>
<path transform="matrix(1,0,0,-1,81.795,68.999)" stroke-width="1" stroke-linecap="butt" stroke-miterlimit="10" stroke-linejoin="miter" fill="none" stroke="#d6ebff" d="M -17.8894 -12.67497 L -19.6026 -12.87997 L -20.95229 -8.69814 L -18.38252 -8.39067 Z "/>
<path transform="matrix(1,0,0,-1,81.795,68.999)" stroke-width="1" stroke-linecap="butt" stroke-miterlimit="10" stroke-linejoin="miter" fill="none" stroke="#b0d8ff" d="M -.79387 -11.10728 L -.71675 -10.50183 L 4.67873 -5.68646 L 4.57588 -6.49371 Z "/>
<path transform="matrix(1,0,0,-1,81.795,68.999)" stroke-width="1" stroke-linecap="butt" stroke-miterlimit="10" stroke-linejoin="miter" fill="none" stroke="#eff7ff" d="M -13.36475 -15.70139 L -14.06541 -15.63892 L -11.22765 -12.50377 L -9.82631 -12.6287 Z "/>
<path transform="matrix(1,0,0,-1,81.795,68.999)" stroke-width="1" stroke-linecap="butt" stroke-miterlimit="10" stroke-linejoin="miter" fill="none" stroke="#eff7ff" d="M -12.75557 -15.79543 L -13.36475 -15.70139 L -9.82631 -12.6287 L -8.60793 -12.8168 Z "/>
<path transform="matrix(1,0,0,-1,81.795,68.999)" stroke-width="1" stroke-linecap="butt" stroke-miterlimit="10" stroke-linejoin="miter" fill="none" stroke="#eff7ff" d="M -14.06541 -15.63892 L -14.83961 -15.6097 L -12.77606 -12.44533 L -11.22765 -12.50377 Z "/>
<path transform="matrix(1,0,0,-1,81.795,68.999)" stroke-width="1" stroke-linecap="butt" stroke-miterlimit="10" stroke-linejoin="miter" fill="none" stroke="#654eff" d="M -26.35112 20.37709 L -32.10309 19.46117 L -34.27449 29.68605 L -27.70082 30.7328 Z "/>
<path transform="matrix(1,0,0,-1,81.795,68.999)" stroke-width="1" stroke-linecap="butt" stroke-miterlimit="10" stroke-linejoin="miter" fill="none" stroke="#b0d8ff" d="M -20.95229 -8.69814 L -23.41742 -9.09067 L -25.58884 -3.8049 L -22.30199 -3.28152 Z "/>
<path transform="matrix(1,0,0,-1,81.795,68.999)" stroke-width="1" stroke-linecap="butt" stroke-miterlimit="10" stroke-linejoin="miter" fill="none" stroke="#eff7ff" d="M -12.25409 -15.91873 L -12.75557 -15.79543 L -8.60793 -12.8168 L -7.60504 -13.06339 Z "/>
<path transform="matrix(1,0,0,-1,81.795,68.999)" stroke-width="1" stroke-linecap="butt" stroke-miterlimit="10" stroke-linejoin="miter" fill="none" stroke="#eff7ff" d="M -14.83961 -15.6097 L -15.66718 -15.61443 L -14.43118 -12.45479 L -12.77606 -12.44533 Z "/>
<path transform="matrix(1,0,0,-1,81.795,68.999)" stroke-width="1" stroke-linecap="butt" stroke-miterlimit="10" stroke-linejoin="miter" fill="none" stroke="#c91bff" d="M 26.05493 24.30841 L 26.2606 25.92296 L 31.65611 36.91231 L 31.42471 35.09598 Z "/>
<path transform="matrix(1,0,0,-1,81.795,68.999)" stroke-width="1" stroke-linecap="butt" stroke-miterlimit="10" stroke-linejoin="miter" fill="none" stroke="#eff7ff" d="M -11.87303 -16.0679 L -12.25409 -15.91873 L -7.60504 -13.06339 L -6.84288 -13.36176 Z "/>
<path transform="matrix(1,0,0,-1,81.795,68.999)" stroke-width="1" stroke-linecap="butt" stroke-miterlimit="10" stroke-linejoin="miter" fill="none" stroke="#eff7ff" d="M -15.66718 -15.61443 L -16.52684 -15.653 L -16.15053 -12.53194 L -14.43118 -12.45479 Z "/>
<path transform="matrix(1,0,0,-1,81.795,68.999)" stroke-width="1" stroke-linecap="butt" stroke-miterlimit="10" stroke-linejoin="miter" fill="none" stroke="#d6ebff" d="M -6.16365 -14.48607 L -6.11221 -14.08244 L -.71675 -10.50183 L -.79387 -11.10728 Z "/>
<path transform="matrix(1,0,0,-1,81.795,68.999)" stroke-width="1" stroke-linecap="butt" stroke-miterlimit="10" stroke-linejoin="miter" fill="none" stroke="#c91bff" d="M -27.70082 30.7328 L -34.27449 29.68605 L -36.4459 41.14581 L -29.05054 42.32341 Z "/>
<path transform="matrix(1,0,0,-1,81.795,68.999)" stroke-width="1" stroke-linecap="butt" stroke-miterlimit="10" stroke-linejoin="miter" fill="none" stroke="#eff7ff" d="M -11.62193 -16.23923 L -11.87303 -16.0679 L -6.84288 -13.36176 L -6.3407 -13.7044 Z "/>
<path transform="matrix(1,0,0,-1,81.795,68.999)" stroke-width="1" stroke-linecap="butt" stroke-miterlimit="10" stroke-linejoin="miter" fill="none" stroke="#d6ebff" d="M -19.6026 -12.87997 L -21.246 -13.14166 L -23.41742 -9.09067 L -20.95229 -8.69814 Z "/>
<path transform="matrix(1,0,0,-1,81.795,68.999)" stroke-width="1" stroke-linecap="butt" stroke-miterlimit="10" stroke-linejoin="miter" fill="none" stroke="#eff7ff" d="M -16.52684 -15.653 L -17.39629 -15.72453 L -17.8894 -12.67497 L -16.15053 -12.53194 Z "/>
<path transform="matrix(1,0,0,-1,81.795,68.999)" stroke-width="1" stroke-linecap="butt" stroke-miterlimit="10" stroke-linejoin="miter" fill="none" stroke="#7ebfff" d="M 3.91684 -7.33125 L 4.57588 -6.49371 L 9.94566 -.64534 L 9.12184 -1.69226 Z "/>
<path transform="matrix(1,0,0,-1,81.795,68.999)" stroke-width="1" stroke-linecap="butt" stroke-miterlimit="10" stroke-linejoin="miter" fill="none" stroke="#eff7ff" d="M -11.5077 -16.42825 L -11.62193 -16.23923 L -6.3407 -13.7044 L -6.11221 -14.08244 Z "/>
<path transform="matrix(1,0,0,-1,81.795,68.999)" stroke-width="1" stroke-linecap="butt" stroke-miterlimit="10" stroke-linejoin="miter" fill="none" stroke="#eff7ff" d="M -17.39629 -15.72453 L -18.25287 -15.82703 L -19.6026 -12.87997 L -17.8894 -12.67497 Z "/>
<path transform="matrix(1,0,0,-1,81.795,68.999)" stroke-width="1" stroke-linecap="butt" stroke-miterlimit="10" stroke-linejoin="miter" fill="none" stroke="#b0d8ff" d="M -1.28816 -11.73544 L -.79387 -11.10728 L 4.57588 -6.49371 L 3.91684 -7.33125 Z "/>
<path transform="matrix(1,0,0,-1,81.795,68.999)" stroke-width="1" stroke-linecap="butt" stroke-miterlimit="10" stroke-linejoin="miter" fill="none" stroke="#3f9fff" d="M 9.12184 -1.69226 L 9.94566 -.64534 L 15.3154 6.43776 L 14.32683 5.18144 Z "/>
<path transform="matrix(1,0,0,-1,81.795,68.999)" stroke-width="1" stroke-linecap="butt" stroke-miterlimit="10" stroke-linejoin="miter" fill="none" stroke="#7ebfff" d="M -25.58884 -3.8049 L -28.64996 -4.42795 L -31.58667 1.93683 L -27.76027 2.71567 Z "/>
<path transform="matrix(1,0,0,-1,81.795,68.999)" stroke-width="1" stroke-linecap="butt" stroke-miterlimit="10" stroke-linejoin="miter" fill="none" stroke="#b0d8ff" d="M -23.41742 -9.09067 L -25.71327 -9.55797 L -28.64996 -4.42795 L -25.58884 -3.8049 Z "/>
<path transform="matrix(1,0,0,-1,81.795,68.999)" stroke-width="1" stroke-linecap="butt" stroke-miterlimit="10" stroke-linejoin="miter" fill="none" stroke="#3f9fff" d="M -27.76027 2.71567 L -31.58667 1.93683 L -34.52333 9.53639 L -29.93167 10.47096 Z "/>
<path transform="matrix(1,0,0,-1,81.795,68.999)" stroke-width="1" stroke-linecap="butt" stroke-miterlimit="10" stroke-linejoin="miter" fill="none" stroke="#d6ebff" d="M -6.49316 -14.90483 L -6.16365 -14.48607 L -.79387 -11.10728 L -1.28816 -11.73544 Z "/>
<path transform="matrix(1,0,0,-1,81.795,68.999)" stroke-width="1" stroke-linecap="butt" stroke-miterlimit="10" stroke-linejoin="miter" fill="none" stroke="#eff7ff" d="M -11.5334 -16.63007 L -11.5077 -16.42825 L -6.11221 -14.08244 L -6.16365 -14.48607 Z "/>
<path transform="matrix(1,0,0,-1,81.795,68.999)" stroke-width="1" stroke-linecap="butt" stroke-miterlimit="10" stroke-linejoin="miter" fill="none" stroke="#d6ebff" d="M -21.246 -13.14166 L -22.77657 -13.4532 L -25.71327 -9.55797 L -23.41742 -9.09067 Z "/>
<path transform="matrix(1,0,0,-1,81.795,68.999)" stroke-width="1" stroke-linecap="butt" stroke-miterlimit="10" stroke-linejoin="miter" fill="none" stroke="#eff7ff" d="M -18.25287 -15.82703 L -19.07458 -15.95787 L -21.246 -13.14166 L -19.6026 -12.87997 Z "/>
<path transform="matrix(1,0,0,-1,81.795,68.999)" stroke-width="1" stroke-linecap="butt" stroke-miterlimit="10" stroke-linejoin="miter" fill="none" stroke="#0c7aff" d="M 14.32683 5.18144 L 15.3154 6.43776 L 20.68518 14.75575 L 19.53185 13.29005 Z "/>
<path transform="matrix(1,0,0,-1,81.795,68.999)" stroke-width="1" stroke-linecap="butt" stroke-miterlimit="10" stroke-linejoin="miter" fill="none" stroke="#0c7aff" d="M -29.93167 10.47096 L -34.52333 9.53639 L -37.46005 18.37082 L -32.10309 19.46117 Z "/>
<path transform="matrix(1,0,0,-1,81.795,68.999)" stroke-width="1" stroke-linecap="butt" stroke-miterlimit="10" stroke-linejoin="miter" fill="none" stroke="#eff7ff" d="M -11.69817 -16.83945 L -11.5334 -16.63007 L -6.16365 -14.48607 L -6.49316 -14.90483 Z "/>
<path transform="matrix(1,0,0,-1,81.795,68.999)" stroke-width="1" stroke-linecap="butt" stroke-miterlimit="10" stroke-linejoin="miter" fill="none" stroke="#eff7ff" d="M -19.07458 -15.95787 L -19.83986 -16.11363 L -22.77657 -13.4532 L -21.246 -13.14166 Z "/>
<path transform="matrix(1,0,0,-1,81.795,68.999)" stroke-width="1" stroke-linecap="butt" stroke-miterlimit="10" stroke-linejoin="miter" fill="none" stroke="#fcfdff" d="M -16.90317 -17.53926 L -16.90317 -17.53926 L -14.06541 -15.63892 L -13.36475 -15.70139 Z "/>
<path transform="matrix(1,0,0,-1,81.795,68.999)" stroke-width="1" stroke-linecap="butt" stroke-miterlimit="10" stroke-linejoin="miter" fill="none" stroke="#fcfdff" d="M -16.90317 -17.53926 L -16.90317 -17.53926 L -13.36475 -15.70139 L -12.75557 -15.79543 Z "/>
<path transform="matrix(1,0,0,-1,81.795,68.999)" stroke-width="1" stroke-linecap="butt" stroke-miterlimit="10" stroke-linejoin="miter" fill="none" stroke="#fcfdff" d="M -16.90317 -17.53926 L -16.90317 -17.53926 L -14.83961 -15.6097 L -14.06541 -15.63892 Z "/>
<path transform="matrix(1,0,0,-1,81.795,68.999)" stroke-width="1" stroke-linecap="butt" stroke-miterlimit="10" stroke-linejoin="miter" fill="none" stroke="#fcfdff" d="M -16.90317 -17.53926 L -16.90317 -17.53926 L -12.75557 -15.79543 L -12.25409 -15.91873 Z "/>
<path transform="matrix(1,0,0,-1,81.795,68.999)" stroke-width="1" stroke-linecap="butt" stroke-miterlimit="10" stroke-linejoin="miter" fill="none" stroke="#fcfdff" d="M -16.90317 -17.53926 L -16.90317 -17.53926 L -15.66718 -15.61443 L -14.83961 -15.6097 Z "/>
<path transform="matrix(1,0,0,-1,81.795,68.999)" stroke-width="1" stroke-linecap="butt" stroke-miterlimit="10" stroke-linejoin="miter" fill="none" stroke="#654eff" d="M 19.53185 13.29005 L 20.68518 14.75575 L 26.05493 24.30841 L 24.73683 22.63335 Z "/>
<path transform="matrix(1,0,0,-1,81.795,68.999)" stroke-width="1" stroke-linecap="butt" stroke-miterlimit="10" stroke-linejoin="miter" fill="none" stroke="#fcfdff" d="M -16.90317 -17.53926 L -16.90317 -17.53926 L -12.25409 -15.91873 L -11.87303 -16.0679 Z "/>
<path transform="matrix(1,0,0,-1,81.795,68.999)" stroke-width="1" stroke-linecap="butt" stroke-miterlimit="10" stroke-linejoin="miter" fill="none" stroke="#fcfdff" d="M -16.90317 -17.53926 L -16.90317 -17.53926 L -16.52684 -15.653 L -15.66718 -15.61443 Z "/>
<path transform="matrix(1,0,0,-1,81.795,68.999)" stroke-width="1" stroke-linecap="butt" stroke-miterlimit="10" stroke-linejoin="miter" fill="none" stroke="#d6ebff" d="M -7.0919 -15.32779 L -6.49316 -14.90483 L -1.28816 -11.73544 L -2.18626 -12.36986 Z "/>
<path transform="matrix(1,0,0,-1,81.795,68.999)" stroke-width="1" stroke-linecap="butt" stroke-miterlimit="10" stroke-linejoin="miter" fill="none" stroke="#fcfdff" d="M -16.90317 -17.53926 L -16.90317 -17.53926 L -11.87303 -16.0679 L -11.62193 -16.23923 Z "/>
<path transform="matrix(1,0,0,-1,81.795,68.999)" stroke-width="1" stroke-linecap="butt" stroke-miterlimit="10" stroke-linejoin="miter" fill="none" stroke="#b0d8ff" d="M -2.18626 -12.36986 L -1.28816 -11.73544 L 3.91684 -7.33125 L 2.71936 -8.17714 Z "/>
<path transform="matrix(1,0,0,-1,81.795,68.999)" stroke-width="1" stroke-linecap="butt" stroke-miterlimit="10" stroke-linejoin="miter" fill="none" stroke="#fcfdff" d="M -16.90317 -17.53926 L -16.90317 -17.53926 L -17.39629 -15.72453 L -16.52684 -15.653 Z "/>
<path transform="matrix(1,0,0,-1,81.795,68.999)" stroke-width="1" stroke-linecap="butt" stroke-miterlimit="10" stroke-linejoin="miter" fill="none" stroke="#d6ebff" d="M -22.77657 -13.4532 L -24.15521 -13.80667 L -27.78122 -10.08821 L -25.71327 -9.55797 Z "/>
<path transform="matrix(1,0,0,-1,81.795,68.999)" stroke-width="1" stroke-linecap="butt" stroke-miterlimit="10" stroke-linejoin="miter" fill="none" stroke="#fcfdff" d="M -16.90317 -17.53926 L -16.90317 -17.53926 L -11.62193 -16.23923 L -11.5077 -16.42825 Z "/>
<path transform="matrix(1,0,0,-1,81.795,68.999)" stroke-width="1" stroke-linecap="butt" stroke-miterlimit="10" stroke-linejoin="miter" fill="none" stroke="#fcfdff" d="M -16.90317 -17.53926 L -16.90317 -17.53926 L -18.25287 -15.82703 L -17.39629 -15.72453 Z "/>
<path transform="matrix(1,0,0,-1,81.795,68.999)" stroke-width="1" stroke-linecap="butt" stroke-miterlimit="10" stroke-linejoin="miter" fill="none" stroke="#b0d8ff" d="M -25.71327 -9.55797 L -27.78122 -10.08821 L -31.40724 -5.13492 L -28.64996 -4.42795 Z "/>
<path transform="matrix(1,0,0,-1,81.795,68.999)" stroke-width="1" stroke-linecap="butt" stroke-miterlimit="10" stroke-linejoin="miter" fill="none" stroke="#eff7ff" d="M -11.99754 -17.05093 L -11.69817 -16.83945 L -6.49316 -14.90483 L -7.0919 -15.32779 Z "/>
<path transform="matrix(1,0,0,-1,81.795,68.999)" stroke-width="1" stroke-linecap="butt" stroke-miterlimit="10" stroke-linejoin="miter" fill="none" stroke="#654eff" d="M -32.10309 19.46117 L -37.46005 18.37082 L -40.39674 28.43993 L -34.27449 29.68605 Z "/>
<path transform="matrix(1,0,0,-1,81.795,68.999)" stroke-width="1" stroke-linecap="butt" stroke-miterlimit="10" stroke-linejoin="miter" fill="none" stroke="#eff7ff" d="M -19.83986 -16.11363 L -20.52919 -16.29037 L -24.15521 -13.80667 L -22.77657 -13.4532 Z "/>
<path transform="matrix(1,0,0,-1,81.795,68.999)" stroke-width="1" stroke-linecap="butt" stroke-miterlimit="10" stroke-linejoin="miter" fill="none" stroke="#fcfdff" d="M -16.90317 -17.53926 L -16.90317 -17.53926 L -11.5077 -16.42825 L -11.5334 -16.63007 Z "/>
<path transform="matrix(1,0,0,-1,81.795,68.999)" stroke-width="1" stroke-linecap="butt" stroke-miterlimit="10" stroke-linejoin="miter" fill="none" stroke="#7ebfff" d="M 2.71936 -8.17714 L 3.91684 -7.33125 L 9.12184 -1.69226 L 7.625 -2.74962 Z "/>
<path transform="matrix(1,0,0,-1,81.795,68.999)" stroke-width="1" stroke-linecap="butt" stroke-miterlimit="10" stroke-linejoin="miter" fill="none" stroke="#fcfdff" d="M -16.90317 -17.53926 L -16.90317 -17.53926 L -19.07458 -15.95787 L -18.25287 -15.82703 Z "/>
<path transform="matrix(1,0,0,-1,81.795,68.999)" stroke-width="1" stroke-linecap="butt" stroke-miterlimit="10" stroke-linejoin="miter" fill="none" stroke="#fcfdff" d="M -16.90317 -17.53926 L -16.90317 -17.53926 L -11.5334 -16.63007 L -11.69817 -16.83945 Z "/>
<path transform="matrix(1,0,0,-1,81.795,68.999)" stroke-width="1" stroke-linecap="butt" stroke-miterlimit="10" stroke-linejoin="miter" fill="none" stroke="#fcfdff" d="M -16.90317 -17.53926 L -16.90317 -17.53926 L -19.83986 -16.11363 L -19.07458 -15.95787 Z "/>
<path transform="matrix(1,0,0,-1,81.795,68.999)" stroke-width="1" stroke-linecap="butt" stroke-miterlimit="10" stroke-linejoin="miter" fill="none" stroke="#7ebfff" d="M -28.64996 -4.42795 L -31.40724 -5.13492 L -35.03326 1.05313 L -31.58667 1.93683 Z "/>
<path transform="matrix(1,0,0,-1,81.795,68.999)" stroke-width="1" stroke-linecap="butt" stroke-miterlimit="10" stroke-linejoin="miter" fill="none" stroke="#fcfdff" d="M -16.90317 -17.53926 L -16.90317 -17.53926 L -11.69817 -16.83945 L -11.99754 -17.05093 Z "/>
<path transform="matrix(1,0,0,-1,81.795,68.999)" stroke-width="1" stroke-linecap="butt" stroke-miterlimit="10" stroke-linejoin="miter" fill="none" stroke="#fcfdff" d="M -16.90317 -17.53926 L -16.90317 -17.53926 L -20.52919 -16.29037 L -19.83986 -16.11363 Z "/>
<path transform="matrix(1,0,0,-1,81.795,68.999)" stroke-width="1" stroke-linecap="butt" stroke-miterlimit="10" stroke-linejoin="miter" fill="none" stroke="#eff7ff" d="M -12.42384 -17.25911 L -11.99754 -17.05093 L -7.0919 -15.32779 L -7.9445 -15.74414 Z "/>
<path transform="matrix(1,0,0,-1,81.795,68.999)" stroke-width="1" stroke-linecap="butt" stroke-miterlimit="10" stroke-linejoin="miter" fill="none" stroke="#c91bff" d="M 24.73683 22.63335 L 26.05493 24.30841 L 31.42471 35.09598 L 29.94183 33.21153 Z "/>
<path transform="matrix(1,0,0,-1,81.795,68.999)" stroke-width="1" stroke-linecap="butt" stroke-miterlimit="10" stroke-linejoin="miter" fill="none" stroke="#eff7ff" d="M -20.52919 -16.29037 L -21.1246 -16.4835 L -25.34605 -14.19295 L -24.15521 -13.80667 Z "/>
<path transform="matrix(1,0,0,-1,81.795,68.999)" stroke-width="1" stroke-linecap="butt" stroke-miterlimit="10" stroke-linejoin="miter" fill="none" stroke="#fcfdff" d="M -16.90317 -17.53926 L -16.90317 -17.53926 L -11.99754 -17.05093 L -12.42384 -17.25911 Z "/>
<path transform="matrix(1,0,0,-1,81.795,68.999)" stroke-width="1" stroke-linecap="butt" stroke-miterlimit="10" stroke-linejoin="miter" fill="none" stroke="#3f9fff" d="M 7.625 -2.74962 L 9.12184 -1.69226 L 14.32683 5.18144 L 12.53062 3.9126 Z "/>
<path transform="matrix(1,0,0,-1,81.795,68.999)" stroke-width="1" stroke-linecap="butt" stroke-miterlimit="10" stroke-linejoin="miter" fill="none" stroke="#fcfdff" d="M -16.90317 -17.53926 L -16.90317 -17.53926 L -21.1246 -16.4835 L -20.52919 -16.29037 Z "/>
<path transform="matrix(1,0,0,-1,81.795,68.999)" stroke-width="1" stroke-linecap="butt" stroke-miterlimit="10" stroke-linejoin="miter" fill="none" stroke="#d6ebff" d="M -7.9445 -15.74414 L -7.0919 -15.32779 L -2.18626 -12.36986 L -3.46518 -12.9944 Z "/>
<path transform="matrix(1,0,0,-1,81.795,68.999)" stroke-width="1" stroke-linecap="butt" stroke-miterlimit="10" stroke-linejoin="miter" fill="none" stroke="#fcfdff" d="M -16.90317 -17.53926 L -16.90317 -17.53926 L -12.42384 -17.25911 L -12.96655 -17.45851 Z "/>
<path transform="matrix(1,0,0,-1,81.795,68.999)" stroke-width="1" stroke-linecap="butt" stroke-miterlimit="10" stroke-linejoin="miter" fill="none" stroke="#fcfdff" d="M -16.90317 -17.53926 L -16.90317 -17.53926 L -21.61082 -16.68794 L -21.1246 -16.4835 Z "/>
<path transform="matrix(1,0,0,-1,81.795,68.999)" stroke-width="1" stroke-linecap="butt" stroke-miterlimit="10" stroke-linejoin="miter" fill="none" stroke="#d6ebff" d="M -24.15521 -13.80667 L -25.34605 -14.19295 L -29.56749 -10.66762 L -27.78122 -10.08821 Z "/>
<path transform="matrix(1,0,0,-1,81.795,68.999)" stroke-width="1" stroke-linecap="butt" stroke-miterlimit="10" stroke-linejoin="miter" fill="none" stroke="#3f9fff" d="M -31.58667 1.93683 L -35.03326 1.05313 L -38.65926 8.47592 L -34.52333 9.53639 Z "/>
<path transform="matrix(1,0,0,-1,81.795,68.999)" stroke-width="1" stroke-linecap="butt" stroke-miterlimit="10" stroke-linejoin="miter" fill="none" stroke="#c91bff" d="M -34.27449 29.68605 L -40.39674 28.43993 L -43.33345 39.74394 L -36.4459 41.14581 Z "/>
<path transform="matrix(1,0,0,-1,81.795,68.999)" stroke-width="1" stroke-linecap="butt" stroke-miterlimit="10" stroke-linejoin="miter" fill="none" stroke="#fcfdff" d="M -16.90317 -17.53926 L -16.90317 -17.53926 L -12.96655 -17.45851 L -13.61101 -17.64403 Z "/>
<path transform="matrix(1,0,0,-1,81.795,68.999)" stroke-width="1" stroke-linecap="butt" stroke-miterlimit="10" stroke-linejoin="miter" fill="none" stroke="#fcfdff" d="M -16.90317 -17.53926 L -16.90317 -17.53926 L -21.97502 -16.89847 L -21.61082 -16.68794 Z "/>
<path transform="matrix(1,0,0,-1,81.795,68.999)" stroke-width="1" stroke-linecap="butt" stroke-miterlimit="10" stroke-linejoin="miter" fill="none" stroke="#eff7ff" d="M -12.96655 -17.45851 L -12.42384 -17.25911 L -7.9445 -15.74414 L -9.02992 -16.14296 Z "/>
<path transform="matrix(1,0,0,-1,81.795,68.999)" stroke-width="1" stroke-linecap="butt" stroke-miterlimit="10" stroke-linejoin="miter" fill="none" stroke="#b0d8ff" d="M -3.46518 -12.9944 L -2.18626 -12.36986 L 2.71936 -8.17714 L 1.01414 -9.00986 Z "/>
<path transform="matrix(1,0,0,-1,81.795,68.999)" stroke-width="1" stroke-linecap="butt" stroke-miterlimit="10" stroke-linejoin="miter" fill="none" stroke="#fcfdff" d="M -16.90317 -17.53926 L -16.90317 -17.53926 L -13.61101 -17.64403 L -14.34088 -17.81087 Z "/>
<path transform="matrix(1,0,0,-1,81.795,68.999)" stroke-width="1" stroke-linecap="butt" stroke-miterlimit="10" stroke-linejoin="miter" fill="none" stroke="#eff7ff" d="M -21.1246 -16.4835 L -21.61082 -16.68794 L -26.31847 -14.60184 L -25.34605 -14.19295 Z "/>
<path transform="matrix(1,0,0,-1,81.795,68.999)" stroke-width="1" stroke-linecap="butt" stroke-miterlimit="10" stroke-linejoin="miter" fill="none" stroke="#fcfdff" d="M -16.90317 -17.53926 L -16.90317 -17.53926 L -22.208 -17.10957 L -21.97502 -16.89847 Z "/>
<path transform="matrix(1,0,0,-1,81.795,68.999)" stroke-width="1" stroke-linecap="butt" stroke-miterlimit="10" stroke-linejoin="miter" fill="none" stroke="#b0d8ff" d="M -27.78122 -10.08821 L -29.56749 -10.66762 L -33.78893 -5.90747 L -31.40724 -5.13492 Z "/>
<path transform="matrix(1,0,0,-1,81.795,68.999)" stroke-width="1" stroke-linecap="butt" stroke-miterlimit="10" stroke-linejoin="miter" fill="none" stroke="#fcfdff" d="M -16.90317 -17.53926 L -16.90317 -17.53926 L -14.34088 -17.81087 L -15.13672 -17.95465 Z "/>
<path transform="matrix(1,0,0,-1,81.795,68.999)" stroke-width="1" stroke-linecap="butt" stroke-miterlimit="10" stroke-linejoin="miter" fill="none" stroke="#0c7aff" d="M 12.53062 3.9126 L 14.32683 5.18144 L 19.53185 13.29005 L 17.43626 11.80972 Z "/>
<path transform="matrix(1,0,0,-1,81.795,68.999)" stroke-width="1" stroke-linecap="butt" stroke-miterlimit="10" stroke-linejoin="miter" fill="none" stroke="#fcfdff" d="M -16.90317 -17.53926 L -16.90317 -17.53926 L -22.30324 -17.31583 L -22.208 -17.10957 Z "/>
<path transform="matrix(1,0,0,-1,81.795,68.999)" stroke-width="1" stroke-linecap="butt" stroke-miterlimit="10" stroke-linejoin="miter" fill="none" stroke="#fcfdff" d="M -16.90317 -17.53926 L -16.90317 -17.53926 L -15.13672 -17.95465 L -15.97859 -18.0717 Z "/>
<path transform="matrix(1,0,0,-1,81.795,68.999)" stroke-width="1" stroke-linecap="butt" stroke-miterlimit="10" stroke-linejoin="miter" fill="none" stroke="#fcfdff" d="M -16.90317 -17.53926 L -16.90317 -17.53926 L -22.25882 -17.51187 L -22.30324 -17.31583 Z "/>
<path transform="matrix(1,0,0,-1,81.795,68.999)" stroke-width="1" stroke-linecap="butt" stroke-miterlimit="10" stroke-linejoin="miter" fill="none" stroke="#fcfdff" d="M -16.90317 -17.53926 L -16.90317 -17.53926 L -15.97859 -18.0717 L -16.84444 -18.15894 Z "/>
<path transform="matrix(1,0,0,-1,81.795,68.999)" stroke-width="1" stroke-linecap="butt" stroke-miterlimit="10" stroke-linejoin="miter" fill="none" stroke="#0c7aff" d="M -34.52333 9.53639 L -38.65926 8.47592 L -42.2853 17.13362 L -37.46005 18.37082 Z "/>
<path transform="matrix(1,0,0,-1,81.795,68.999)" stroke-width="1" stroke-linecap="butt" stroke-miterlimit="10" stroke-linejoin="miter" fill="none" stroke="#fcfdff" d="M -16.90317 -17.53926 L -16.90317 -17.53926 L -22.07568 -17.69266 L -22.25882 -17.51187 Z "/>
<path transform="matrix(1,0,0,-1,81.795,68.999)" stroke-width="1" stroke-linecap="butt" stroke-miterlimit="10" stroke-linejoin="miter" fill="none" stroke="#d6ebff" d="M -9.02992 -16.14296 L -7.9445 -15.74414 L -3.46518 -12.9944 L -5.09329 -13.59262 Z "/>
<path transform="matrix(1,0,0,-1,81.795,68.999)" stroke-width="1" stroke-linecap="butt" stroke-miterlimit="10" stroke-linejoin="miter" fill="none" stroke="#eff7ff" d="M -13.61101 -17.64403 L -12.96655 -17.45851 L -9.02992 -16.14296 L -10.31885 -16.51399 Z "/>
<path transform="matrix(1,0,0,-1,81.795,68.999)" stroke-width="1" stroke-linecap="butt" stroke-miterlimit="10" stroke-linejoin="miter" fill="none" stroke="#eff7ff" d="M -21.61082 -16.68794 L -21.97502 -16.89847 L -27.04686 -15.02284 L -26.31847 -14.60184 Z "/>
<path transform="matrix(1,0,0,-1,81.795,68.999)" stroke-width="1" stroke-linecap="butt" stroke-miterlimit="10" stroke-linejoin="miter" fill="none" stroke="#fcfdff" d="M -16.90317 -17.53926 L -16.90317 -17.53926 L -16.84444 -18.15894 L -17.71169 -18.21417 Z "/>
<path transform="matrix(1,0,0,-1,81.795,68.999)" stroke-width="1" stroke-linecap="butt" stroke-miterlimit="10" stroke-linejoin="miter" fill="none" stroke="#7ebfff" d="M 1.01414 -9.00986 L 2.71936 -8.17714 L 7.625 -2.74962 L 5.49347 -3.79051 Z "/>
<path transform="matrix(1,0,0,-1,81.795,68.999)" stroke-width="1" stroke-linecap="butt" stroke-miterlimit="10" stroke-linejoin="miter" fill="none" stroke="#fcfdff" d="M -16.90317 -17.53926 L -16.90317 -17.53926 L -21.75877 -17.85345 L -22.07568 -17.69266 Z "/>
<path transform="matrix(1,0,0,-1,81.795,68.999)" stroke-width="1" stroke-linecap="butt" stroke-miterlimit="10" stroke-linejoin="miter" fill="none" stroke="#d6ebff" d="M -25.34605 -14.19295 L -26.31847 -14.60184 L -31.02611 -11.28093 L -29.56749 -10.66762 Z "/>
<path transform="matrix(1,0,0,-1,81.795,68.999)" stroke-width="1" stroke-linecap="butt" stroke-miterlimit="10" stroke-linejoin="miter" fill="none" stroke="#fcfdff" d="M -16.90317 -17.53926 L -16.90317 -17.53926 L -17.71169 -18.21417 L -18.55809 -18.23595 Z "/>
<path transform="matrix(1,0,0,-1,81.795,68.999)" stroke-width="1" stroke-linecap="butt" stroke-miterlimit="10" stroke-linejoin="miter" fill="none" stroke="#fcfdff" d="M -16.90317 -17.53926 L -16.90317 -17.53926 L -21.31572 -17.99016 L -21.75876 -17.85355 Z "/>
<path transform="matrix(1,0,0,-1,81.795,68.999)" stroke-width="1" stroke-linecap="butt" stroke-miterlimit="10" stroke-linejoin="miter" fill="none" stroke="#fcfdff" d="M -16.90317 -17.53926 L -16.90317 -17.53926 L -18.55809 -18.23595 L -19.36171 -18.22368 Z "/>
<path transform="matrix(1,0,0,-1,81.795,68.999)" stroke-width="1" stroke-linecap="butt" stroke-miterlimit="10" stroke-linejoin="miter" fill="none" stroke="#fcfdff" d="M -16.90317 -17.53926 L -16.90317 -17.53926 L -20.75851 -18.09915 L -21.31572 -17.99016 Z "/>
<path transform="matrix(1,0,0,-1,81.795,68.999)" stroke-width="1" stroke-linecap="butt" stroke-miterlimit="10" stroke-linejoin="miter" fill="none" stroke="#fcfdff" d="M -16.90317 -17.53926 L -16.90317 -17.53926 L -19.36171 -18.22368 L -20.10144 -18.17766 Z "/>
<path transform="matrix(1,0,0,-1,81.795,68.999)" stroke-width="1" stroke-linecap="butt" stroke-miterlimit="10" stroke-linejoin="miter" fill="none" stroke="#fcfdff" d="M -16.90317 -17.53926 L -16.90317 -17.53926 L -20.10144 -18.17766 L -20.75851 -18.09915 Z "/>
<path transform="matrix(1,0,0,-1,81.795,68.999)" stroke-width="1" stroke-linecap="butt" stroke-miterlimit="10" stroke-linejoin="miter" fill="none" stroke="#7ebfff" d="M -31.40724 -5.13492 L -33.78893 -5.90747 L -38.01036 .08746 L -35.03326 1.05313 Z "/>
<path transform="matrix(1,0,0,-1,81.795,68.999)" stroke-width="1" stroke-linecap="butt" stroke-miterlimit="10" stroke-linejoin="miter" fill="none" stroke="#eff7ff" d="M -14.34088 -17.81087 L -13.61101 -17.64403 L -10.31885 -16.51399 L -11.7786 -16.84769 Z "/>
<path transform="matrix(1,0,0,-1,81.795,68.999)" stroke-width="1" stroke-linecap="butt" stroke-miterlimit="10" stroke-linejoin="miter" fill="none" stroke="#eff7ff" d="M -21.97502 -16.89847 L -22.208 -17.10957 L -27.51285 -15.4451 L -27.04686 -15.02284 Z "/>
<path transform="matrix(1,0,0,-1,81.795,68.999)" stroke-width="1" stroke-linecap="butt" stroke-miterlimit="10" stroke-linejoin="miter" fill="none" stroke="#654eff" d="M 17.43626 11.80972 L 19.53185 13.29005 L 24.73683 22.63335 L 22.34189 20.94156 Z "/>
<path transform="matrix(1,0,0,-1,81.795,68.999)" stroke-width="1" stroke-linecap="butt" stroke-miterlimit="10" stroke-linejoin="miter" fill="none" stroke="#b0d8ff" d="M -5.09329 -13.59262 L -3.46518 -12.9944 L 1.01414 -9.00986 L -1.15668 -9.8075 Z "/>
<path transform="matrix(1,0,0,-1,81.795,68.999)" stroke-width="1" stroke-linecap="butt" stroke-miterlimit="10" stroke-linejoin="miter" fill="none" stroke="#d6ebff" d="M -10.31885 -16.51399 L -9.02992 -16.14296 L -5.09329 -13.59262 L -7.0267 -14.14919 Z "/>
<path transform="matrix(1,0,0,-1,81.795,68.999)" stroke-width="1" stroke-linecap="butt" stroke-miterlimit="10" stroke-linejoin="miter" fill="none" stroke="#b0d8ff" d="M -29.56749 -10.66762 L -31.02611 -11.28093 L -35.73375 -6.72523 L -33.78893 -5.90747 Z "/>
<path transform="matrix(1,0,0,-1,81.795,68.999)" stroke-width="1" stroke-linecap="butt" stroke-miterlimit="10" stroke-linejoin="miter" fill="none" stroke="#3f9fff" d="M 5.49347 -3.79051 L 7.625 -2.74962 L 12.53062 3.9126 L 9.97278 2.66353 Z "/>
<path transform="matrix(1,0,0,-1,81.795,68.999)" stroke-width="1" stroke-linecap="butt" stroke-miterlimit="10" stroke-linejoin="miter" fill="none" stroke="#654eff" d="M -37.46005 18.37082 L -42.2853 17.13362 L -45.9113 27.026 L -40.39674 28.43993 Z "/>
<path transform="matrix(1,0,0,-1,81.795,68.999)" stroke-width="1" stroke-linecap="butt" stroke-miterlimit="10" stroke-linejoin="miter" fill="none" stroke="#d6ebff" d="M -26.31847 -14.60184 L -27.04686 -15.02284 L -32.11871 -11.91246 L -31.02611 -11.28093 Z "/>
<path transform="matrix(1,0,0,-1,81.795,68.999)" stroke-width="1" stroke-linecap="butt" stroke-miterlimit="10" stroke-linejoin="miter" fill="none" stroke="#eff7ff" d="M -15.13672 -17.95465 L -14.34088 -17.81087 L -11.7786 -16.84769 L -13.37027 -17.13525 Z "/>
<path transform="matrix(1,0,0,-1,81.795,68.999)" stroke-width="1" stroke-linecap="butt" stroke-miterlimit="10" stroke-linejoin="miter" fill="none" stroke="#eff7ff" d="M -22.208 -17.10957 L -22.30324 -17.31583 L -27.7033 -15.85756 L -27.51285 -15.4451 Z "/>
<path transform="matrix(1,0,0,-1,81.795,68.999)" stroke-width="1" stroke-linecap="butt" stroke-miterlimit="10" stroke-linejoin="miter" fill="none" stroke="#3f9fff" d="M -35.03326 1.05313 L -38.01036 .08746 L -42.23178 7.31711 L -38.65926 8.47592 Z "/>
<path transform="matrix(1,0,0,-1,81.795,68.999)" stroke-width="1" stroke-linecap="butt" stroke-miterlimit="10" stroke-linejoin="miter" fill="none" stroke="#eff7ff" d="M -15.97859 -18.0717 L -15.13672 -17.95465 L -13.37027 -17.13525 L -15.05405 -17.36931 Z "/>
<path transform="matrix(1,0,0,-1,81.795,68.999)" stroke-width="1" stroke-linecap="butt" stroke-miterlimit="10" stroke-linejoin="miter" fill="none" stroke="#eff7ff" d="M -22.30324 -17.31583 L -22.25882 -17.51187 L -27.61446 -16.24965 L -27.7033 -15.85756 Z "/>
<path transform="matrix(1,0,0,-1,81.795,68.999)" stroke-width="1" stroke-linecap="butt" stroke-miterlimit="10" stroke-linejoin="miter" fill="none" stroke="#7ebfff" d="M -1.15668 -9.8075 L 1.01414 -9.00986 L 5.49347 -3.79051 L 2.77995 -4.78757 Z "/>
<path transform="matrix(1,0,0,-1,81.795,68.999)" stroke-width="1" stroke-linecap="butt" stroke-miterlimit="10" stroke-linejoin="miter" fill="none" stroke="#d6ebff" d="M -11.7786 -16.84769 L -10.31885 -16.51399 L -7.0267 -14.14919 L -9.2163 -14.64973 Z "/>
<path transform="matrix(1,0,0,-1,81.795,68.999)" stroke-width="1" stroke-linecap="butt" stroke-miterlimit="10" stroke-linejoin="miter" fill="none" stroke="#c91bff" d="M 22.34189 20.94156 L 24.73683 22.63335 L 29.94183 33.21153 L 27.24754 31.30826 Z "/>
<path transform="matrix(1,0,0,-1,81.795,68.999)" stroke-width="1" stroke-linecap="butt" stroke-miterlimit="10" stroke-linejoin="miter" fill="none" stroke="#d6ebff" d="M -27.04686 -15.02284 L -27.51285 -15.4451 L -32.81767 -12.54582 L -32.11871 -11.91246 Z "/>
<path transform="matrix(1,0,0,-1,81.795,68.999)" stroke-width="1" stroke-linecap="butt" stroke-miterlimit="10" stroke-linejoin="miter" fill="none" stroke="#eff7ff" d="M -16.84444 -18.15894 L -15.97859 -18.0717 L -15.05405 -17.36931 L -16.7857 -17.54382 Z "/>
<path transform="matrix(1,0,0,-1,81.795,68.999)" stroke-width="1" stroke-linecap="butt" stroke-miterlimit="10" stroke-linejoin="miter" fill="none" stroke="#eff7ff" d="M -22.25882 -17.51187 L -22.07568 -17.69266 L -27.24821 -16.61125 L -27.61446 -16.24965 Z "/>
<path transform="matrix(1,0,0,-1,81.795,68.999)" stroke-width="1" stroke-linecap="butt" stroke-miterlimit="10" stroke-linejoin="miter" fill="none" stroke="#7ebfff" d="M -33.78893 -5.90747 L -35.73375 -6.72523 L -40.4414 -.93475 L -38.01036 .08746 Z "/>
<path transform="matrix(1,0,0,-1,81.795,68.999)" stroke-width="1" stroke-linecap="butt" stroke-miterlimit="10" stroke-linejoin="miter" fill="none" stroke="#b0d8ff" d="M -7.0267 -14.14919 L -5.09329 -13.59262 L -1.15668 -9.8075 L -3.73454 -10.54958 Z "/>
<path transform="matrix(1,0,0,-1,81.795,68.999)" stroke-width="1" stroke-linecap="butt" stroke-miterlimit="10" stroke-linejoin="miter" fill="none" stroke="#0c7aff" d="M 9.97278 2.66353 L 12.53062 3.9126 L 17.43626 11.80972 L 14.45213 10.3525 Z "/>
<path transform="matrix(1,0,0,-1,81.795,68.999)" stroke-width="1" stroke-linecap="butt" stroke-miterlimit="10" stroke-linejoin="miter" fill="none" stroke="#b0d8ff" d="M -31.02611 -11.28093 L -32.11871 -11.91246 L -37.19057 -7.56728 L -35.73375 -6.72523 Z "/>
<path transform="matrix(1,0,0,-1,81.795,68.999)" stroke-width="1" stroke-linecap="butt" stroke-miterlimit="10" stroke-linejoin="miter" fill="none" stroke="#c91bff" d="M -40.39674 28.43993 L -45.9113 27.026 L -49.53734 38.15324 L -43.33345 39.74394 Z "/>
<path transform="matrix(1,0,0,-1,81.795,68.999)" stroke-width="1" stroke-linecap="butt" stroke-miterlimit="10" stroke-linejoin="miter" fill="none" stroke="#eff7ff" d="M -17.71169 -18.21417 L -16.84444 -18.15894 L -16.7857 -17.54382 L -18.52019 -17.65427 Z "/>
<path transform="matrix(1,0,0,-1,81.795,68.999)" stroke-width="1" stroke-linecap="butt" stroke-miterlimit="10" stroke-linejoin="miter" fill="none" stroke="#eff7ff" d="M -22.07568 -17.69266 L -21.75877 -17.85345 L -26.61438 -16.93286 L -27.24821 -16.61125 Z "/>
<path transform="matrix(1,0,0,-1,81.795,68.999)" stroke-width="1" stroke-linecap="butt" stroke-miterlimit="10" stroke-linejoin="miter" fill="none" stroke="#0c7aff" d="M -38.65926 8.47592 L -42.23178 7.31711 L -46.45326 15.78166 L -42.2853 17.13362 Z "/>
<path transform="matrix(1,0,0,-1,81.795,68.999)" stroke-width="1" stroke-linecap="butt" stroke-miterlimit="10" stroke-linejoin="miter" fill="none" stroke="#eff7ff" d="M -18.55809 -18.23595 L -17.71169 -18.21417 L -18.52019 -17.65427 L -20.21303 -17.69785 Z "/>
<path transform="matrix(1,0,0,-1,81.795,68.999)" stroke-width="1" stroke-linecap="butt" stroke-miterlimit="10" stroke-linejoin="miter" fill="none" stroke="#eff7ff" d="M -21.75876 -17.85355 L -21.31572 -17.99016 L -25.72824 -17.20624 L -26.61432 -16.933 Z "/>
<path transform="matrix(1,0,0,-1,81.795,68.999)" stroke-width="1" stroke-linecap="butt" stroke-miterlimit="10" stroke-linejoin="miter" fill="none" stroke="#d6ebff" d="M -13.37027 -17.13525 L -11.7786 -16.84769 L -9.2163 -14.64973 L -11.60382 -15.08105 Z "/>
<path transform="matrix(1,0,0,-1,81.795,68.999)" stroke-width="1" stroke-linecap="butt" stroke-miterlimit="10" stroke-linejoin="miter" fill="none" stroke="#eff7ff" d="M -19.36171 -18.22368 L -18.55809 -18.23595 L -20.21303 -17.69785 L -21.82024 -17.67331 Z "/>
<path transform="matrix(1,0,0,-1,81.795,68.999)" stroke-width="1" stroke-linecap="butt" stroke-miterlimit="10" stroke-linejoin="miter" fill="none" stroke="#eff7ff" d="M -21.31572 -17.99016 L -20.75851 -18.09915 L -24.61386 -17.42424 L -25.72824 -17.20624 Z "/>
<path transform="matrix(1,0,0,-1,81.795,68.999)" stroke-width="1" stroke-linecap="butt" stroke-miterlimit="10" stroke-linejoin="miter" fill="none" stroke="#d6ebff" d="M -27.51285 -15.4451 L -27.7033 -15.85756 L -33.10335 -13.16454 L -32.81767 -12.54582 Z "/>
<path transform="matrix(1,0,0,-1,81.795,68.999)" stroke-width="1" stroke-linecap="butt" stroke-miterlimit="10" stroke-linejoin="miter" fill="none" stroke="#eff7ff" d="M -20.10144 -18.17766 L -19.36171 -18.22368 L -21.82024 -17.67331 L -23.29973 -17.58127 Z "/>
<path transform="matrix(1,0,0,-1,81.795,68.999)" stroke-width="1" stroke-linecap="butt" stroke-miterlimit="10" stroke-linejoin="miter" fill="none" stroke="#eff7ff" d="M -20.75851 -18.09915 L -20.10144 -18.17766 L -23.29973 -17.58127 L -24.61386 -17.42424 Z "/>
<path transform="matrix(1,0,0,-1,81.795,68.999)" stroke-width="1" stroke-linecap="butt" stroke-miterlimit="10" stroke-linejoin="miter" fill="none" stroke="#3f9fff" d="M 2.77995 -4.78757 L 5.49347 -3.79051 L 9.97278 2.66353 L 6.71657 1.46709 Z "/>
<path transform="matrix(1,0,0,-1,81.795,68.999)" stroke-width="1" stroke-linecap="butt" stroke-miterlimit="10" stroke-linejoin="miter" fill="none" stroke="#3f9fff" d="M -38.01036 .08746 L -40.4414 -.93475 L -45.14905 6.09045 L -42.23178 7.31711 Z "/>
<path transform="matrix(1,0,0,-1,81.795,68.999)" stroke-width="1" stroke-linecap="butt" stroke-miterlimit="10" stroke-linejoin="miter" fill="none" stroke="#b0d8ff" d="M -9.2163 -14.64973 L -7.0267 -14.14919 L -3.73454 -10.54958 L -6.654 -11.21698 Z "/>
<path transform="matrix(1,0,0,-1,81.795,68.999)" stroke-width="1" stroke-linecap="butt" stroke-miterlimit="10" stroke-linejoin="miter" fill="none" stroke="#654eff" d="M 14.45213 10.3525 L 17.43626 11.80972 L 22.34189 20.94156 L 18.93144 19.27614 Z "/>
<path transform="matrix(1,0,0,-1,81.795,68.999)" stroke-width="1" stroke-linecap="butt" stroke-miterlimit="10" stroke-linejoin="miter" fill="none" stroke="#d6ebff" d="M -15.05405 -17.36931 L -13.37027 -17.13525 L -11.60382 -15.08105 L -14.12947 -15.43214 Z "/>
<path transform="matrix(1,0,0,-1,81.795,68.999)" stroke-width="1" stroke-linecap="butt" stroke-miterlimit="10" stroke-linejoin="miter" fill="none" stroke="#7ebfff" d="M -3.73454 -10.54958 L -1.15668 -9.8075 L 2.77995 -4.78757 L -.44237 -5.71518 Z "/>
<path transform="matrix(1,0,0,-1,81.795,68.999)" stroke-width="1" stroke-linecap="butt" stroke-miterlimit="10" stroke-linejoin="miter" fill="none" stroke="#b0d8ff" d="M -32.11871 -11.91246 L -32.81767 -12.54582 L -38.12251 -8.41174 L -37.19057 -7.56728 Z "/>
<path transform="matrix(1,0,0,-1,81.795,68.999)" stroke-width="1" stroke-linecap="butt" stroke-miterlimit="10" stroke-linejoin="miter" fill="none" stroke="#d6ebff" d="M -27.7033 -15.85756 L -27.61446 -16.24965 L -32.9701 -13.75267 L -33.10335 -13.16454 Z "/>
<path transform="matrix(1,0,0,-1,81.795,68.999)" stroke-width="1" stroke-linecap="butt" stroke-miterlimit="10" stroke-linejoin="miter" fill="none" stroke="#7ebfff" d="M -35.73375 -6.72523 L -37.19057 -7.56728 L -42.26242 -1.9873 L -40.4414 -.93475 Z "/>
<path transform="matrix(1,0,0,-1,81.795,68.999)" stroke-width="1" stroke-linecap="butt" stroke-miterlimit="10" stroke-linejoin="miter" fill="none" stroke="#654eff" d="M -42.2853 17.13362 L -46.45326 15.78166 L -50.67468 25.48091 L -45.9113 27.026 Z "/>
<path transform="matrix(1,0,0,-1,81.795,68.999)" stroke-width="1" stroke-linecap="butt" stroke-miterlimit="10" stroke-linejoin="miter" fill="none" stroke="#d6ebff" d="M -16.7857 -17.54382 L -15.05405 -17.36931 L -14.12947 -15.43214 L -16.727 -15.69392 Z "/>
<path transform="matrix(1,0,0,-1,81.795,68.999)" stroke-width="1" stroke-linecap="butt" stroke-miterlimit="10" stroke-linejoin="miter" fill="none" stroke="#d6ebff" d="M -27.61446 -16.24965 L -27.24821 -16.61125 L -32.42073 -14.29506 L -32.9701 -13.75267 Z "/>
<path transform="matrix(1,0,0,-1,81.795,68.999)" stroke-width="1" stroke-linecap="butt" stroke-miterlimit="10" stroke-linejoin="miter" fill="none" stroke="#0c7aff" d="M 6.71657 1.46709 L 9.97278 2.66353 L 14.45213 10.3525 L 10.65318 8.95663 Z "/>
<path transform="matrix(1,0,0,-1,81.795,68.999)" stroke-width="1" stroke-linecap="butt" stroke-miterlimit="10" stroke-linejoin="miter" fill="none" stroke="#b0d8ff" d="M -11.60382 -15.08105 L -9.2163 -14.64973 L -6.654 -11.21698 L -9.83736 -11.79207 Z "/>
<path transform="matrix(1,0,0,-1,81.795,68.999)" stroke-width="1" stroke-linecap="butt" stroke-miterlimit="10" stroke-linejoin="miter" fill="none" stroke="#b0d8ff" d="M -32.81767 -12.54582 L -33.10335 -13.16454 L -38.5034 -9.2367 L -38.12251 -8.41174 Z "/>
<path transform="matrix(1,0,0,-1,81.795,68.999)" stroke-width="1" stroke-linecap="butt" stroke-miterlimit="10" stroke-linejoin="miter" fill="none" stroke="#d6ebff" d="M -18.52019 -17.65427 L -16.7857 -17.54382 L -16.727 -15.69392 L -19.32872 -15.85956 Z "/>
<path transform="matrix(1,0,0,-1,81.795,68.999)" stroke-width="1" stroke-linecap="butt" stroke-miterlimit="10" stroke-linejoin="miter" fill="none" stroke="#d6ebff" d="M -27.24821 -16.61125 L -26.61438 -16.93286 L -31.46999 -14.77748 L -32.42073 -14.29506 Z "/>
<path transform="matrix(1,0,0,-1,81.795,68.999)" stroke-width="1" stroke-linecap="butt" stroke-miterlimit="10" stroke-linejoin="miter" fill="none" stroke="#0c7aff" d="M -42.23178 7.31711 L -45.14905 6.09045 L -49.85669 14.35056 L -46.45326 15.78166 Z "/>
<path transform="matrix(1,0,0,-1,81.795,68.999)" stroke-width="1" stroke-linecap="butt" stroke-miterlimit="10" stroke-linejoin="miter" fill="none" stroke="#c91bff" d="M 18.93144 19.27614 L 22.34189 20.94156 L 27.24754 31.30826 L 23.4108 29.43466 Z "/>
<path transform="matrix(1,0,0,-1,81.795,68.999)" stroke-width="1" stroke-linecap="butt" stroke-miterlimit="10" stroke-linejoin="miter" fill="none" stroke="#3f9fff" d="M -.44237 -5.71518 L 2.77995 -4.78757 L 6.71657 1.46709 L 2.84975 .35396 Z "/>
<path transform="matrix(1,0,0,-1,81.795,68.999)" stroke-width="1" stroke-linecap="butt" stroke-miterlimit="10" stroke-linejoin="miter" fill="none" stroke="#7ebfff" d="M -6.654 -11.21698 L -3.73454 -10.54958 L -.44237 -5.71518 L -4.0917 -6.54942 Z "/>
<path transform="matrix(1,0,0,-1,81.795,68.999)" stroke-width="1" stroke-linecap="butt" stroke-miterlimit="10" stroke-linejoin="miter" fill="none" stroke="#d6ebff" d="M -20.21303 -17.69785 L -18.52019 -17.65427 L -19.32872 -15.85956 L -21.86795 -15.92494 Z "/>
<path transform="matrix(1,0,0,-1,81.795,68.999)" stroke-width="1" stroke-linecap="butt" stroke-miterlimit="10" stroke-linejoin="miter" fill="none" stroke="#d6ebff" d="M -26.61432 -16.933 L -25.72824 -17.20624 L -30.14081 -15.18755 L -31.46991 -14.7777 Z "/>
<path transform="matrix(1,0,0,-1,81.795,68.999)" stroke-width="1" stroke-linecap="butt" stroke-miterlimit="10" stroke-linejoin="miter" fill="none" stroke="#7ebfff" d="M -37.19057 -7.56728 L -38.12251 -8.41174 L -43.42735 -3.0429 L -42.26242 -1.9873 Z "/>
<path transform="matrix(1,0,0,-1,81.795,68.999)" stroke-width="1" stroke-linecap="butt" stroke-miterlimit="10" stroke-linejoin="miter" fill="none" stroke="#3f9fff" d="M -40.4414 -.93475 L -42.26242 -1.9873 L -47.33424 4.8274 L -45.14905 6.09045 Z "/>
<path transform="matrix(1,0,0,-1,81.795,68.999)" stroke-width="1" stroke-linecap="butt" stroke-miterlimit="10" stroke-linejoin="miter" fill="none" stroke="#c91bff" d="M -45.9113 27.026 L -50.67468 25.48091 L -54.89613 36.41502 L -49.53734 38.15324 Z "/>
<path transform="matrix(1,0,0,-1,81.795,68.999)" stroke-width="1" stroke-linecap="butt" stroke-miterlimit="10" stroke-linejoin="miter" fill="none" stroke="#d6ebff" d="M -21.82024 -17.67331 L -20.21303 -17.69785 L -21.86795 -15.92494 L -24.27876 -15.88815 Z "/>
<path transform="matrix(1,0,0,-1,81.795,68.999)" stroke-width="1" stroke-linecap="butt" stroke-miterlimit="10" stroke-linejoin="miter" fill="none" stroke="#d6ebff" d="M -25.72824 -17.20624 L -24.61386 -17.42424 L -28.46921 -15.51454 L -30.14081 -15.18755 Z "/>
<path transform="matrix(1,0,0,-1,81.795,68.999)" stroke-width="1" stroke-linecap="butt" stroke-miterlimit="10" stroke-linejoin="miter" fill="none" stroke="#d6ebff" d="M -23.29973 -17.58127 L -21.82024 -17.67331 L -24.27876 -15.88815 L -26.49799 -15.75006 Z "/>
<path transform="matrix(1,0,0,-1,81.795,68.999)" stroke-width="1" stroke-linecap="butt" stroke-miterlimit="10" stroke-linejoin="miter" fill="none" stroke="#b0d8ff" d="M -14.12947 -15.43214 L -11.60382 -15.08105 L -9.83736 -11.79207 L -13.20491 -12.2602 Z "/>
<path transform="matrix(1,0,0,-1,81.795,68.999)" stroke-width="1" stroke-linecap="butt" stroke-miterlimit="10" stroke-linejoin="miter" fill="none" stroke="#d6ebff" d="M -24.61386 -17.42424 L -23.29973 -17.58127 L -26.49799 -15.75006 L -28.46921 -15.51454 Z "/>
<path transform="matrix(1,0,0,-1,81.795,68.999)" stroke-width="1" stroke-linecap="butt" stroke-miterlimit="10" stroke-linejoin="miter" fill="none" stroke="#b0d8ff" d="M -33.10335 -13.16454 L -32.9701 -13.75267 L -38.32573 -10.02087 L -38.5034 -9.2367 Z "/>
<path transform="matrix(1,0,0,-1,81.795,68.999)" stroke-width="1" stroke-linecap="butt" stroke-miterlimit="10" stroke-linejoin="miter" fill="none" stroke="#654eff" d="M 10.65318 8.95663 L 14.45213 10.3525 L 18.93144 19.27614 L 14.5898 17.68086 Z "/>
<path transform="matrix(1,0,0,-1,81.795,68.999)" stroke-width="1" stroke-linecap="butt" stroke-miterlimit="10" stroke-linejoin="miter" fill="none" stroke="#b0d8ff" d="M -16.727 -15.69392 L -14.12947 -15.43214 L -13.20491 -12.2602 L -16.66827 -12.6092 Z "/>
<path transform="matrix(1,0,0,-1,81.795,68.999)" stroke-width="1" stroke-linecap="butt" stroke-miterlimit="10" stroke-linejoin="miter" fill="none" stroke="#654eff" d="M -46.45326 15.78166 L -49.85669 14.35056 L -54.56433 23.84537 L -50.67468 25.48091 Z "/>
<path transform="matrix(1,0,0,-1,81.795,68.999)" stroke-width="1" stroke-linecap="butt" stroke-miterlimit="10" stroke-linejoin="miter" fill="none" stroke="#7ebfff" d="M -9.83736 -11.79207 L -6.654 -11.21698 L -4.0917 -6.54942 L -8.0709 -7.26828 Z "/>
<path transform="matrix(1,0,0,-1,81.795,68.999)" stroke-width="1" stroke-linecap="butt" stroke-miterlimit="10" stroke-linejoin="miter" fill="none" stroke="#b0d8ff" d="M -32.9701 -13.75267 L -32.42073 -14.29506 L -37.59325 -10.74408 L -38.32573 -10.02087 Z "/>
<path transform="matrix(1,0,0,-1,81.795,68.999)" stroke-width="1" stroke-linecap="butt" stroke-miterlimit="10" stroke-linejoin="miter" fill="none" stroke="#7ebfff" d="M -38.12251 -8.41174 L -38.5034 -9.2367 L -43.90346 -4.0741 L -43.42735 -3.0429 Z "/>
<path transform="matrix(1,0,0,-1,81.795,68.999)" stroke-width="1" stroke-linecap="butt" stroke-miterlimit="10" stroke-linejoin="miter" fill="none" stroke="#0c7aff" d="M 2.84975 .35396 L 6.71657 1.46709 L 10.65318 8.95663 L 6.14192 7.65799 Z "/>
<path transform="matrix(1,0,0,-1,81.795,68.999)" stroke-width="1" stroke-linecap="butt" stroke-miterlimit="10" stroke-linejoin="miter" fill="none" stroke="#3f9fff" d="M -4.0917 -6.54942 L -.44237 -5.71518 L 2.84975 .35396 L -1.52942 -.64713 Z "/>
<path transform="matrix(1,0,0,-1,81.795,68.999)" stroke-width="1" stroke-linecap="butt" stroke-miterlimit="10" stroke-linejoin="miter" fill="none" stroke="#0c7aff" d="M -45.14905 6.09045 L -47.33424 4.8274 L -52.40611 12.877 L -49.85669 14.35056 Z "/>
<path transform="matrix(1,0,0,-1,81.795,68.999)" stroke-width="1" stroke-linecap="butt" stroke-miterlimit="10" stroke-linejoin="miter" fill="none" stroke="#3f9fff" d="M -42.26242 -1.9873 L -43.42735 -3.0429 L -48.73216 3.56068 L -47.33424 4.8274 Z "/>
<path transform="matrix(1,0,0,-1,81.795,68.999)" stroke-width="1" stroke-linecap="butt" stroke-miterlimit="10" stroke-linejoin="miter" fill="none" stroke="#b0d8ff" d="M -19.32872 -15.85956 L -16.727 -15.69392 L -16.66827 -12.6092 L -20.13722 -12.8301 Z "/>
<path transform="matrix(1,0,0,-1,81.795,68.999)" stroke-width="1" stroke-linecap="butt" stroke-miterlimit="10" stroke-linejoin="miter" fill="none" stroke="#b0d8ff" d="M -32.42073 -14.29506 L -31.46999 -14.77748 L -36.32559 -11.38731 L -37.59325 -10.74408 Z "/>
<path transform="matrix(1,0,0,-1,81.795,68.999)" stroke-width="1" stroke-linecap="butt" stroke-miterlimit="10" stroke-linejoin="miter" fill="none" stroke="#b0d8ff" d="M -21.86795 -15.92494 L -19.32872 -15.85956 L -20.13722 -12.8301 L -23.52289 -12.91727 Z "/>
<path transform="matrix(1,0,0,-1,81.795,68.999)" stroke-width="1" stroke-linecap="butt" stroke-miterlimit="10" stroke-linejoin="miter" fill="none" stroke="#7ebfff" d="M -13.20491 -12.2602 L -9.83736 -11.79207 L -8.0709 -7.26828 L -12.28033 -7.85342 Z "/>
<path transform="matrix(1,0,0,-1,81.795,68.999)" stroke-width="1" stroke-linecap="butt" stroke-miterlimit="10" stroke-linejoin="miter" fill="none" stroke="#b0d8ff" d="M -31.46991 -14.7777 L -30.14081 -15.18755 L -34.55334 -11.93408 L -36.3255 -11.38759 Z "/>
<path transform="matrix(1,0,0,-1,81.795,68.999)" stroke-width="1" stroke-linecap="butt" stroke-miterlimit="10" stroke-linejoin="miter" fill="none" stroke="#7ebfff" d="M -38.5034 -9.2367 L -38.32573 -10.02087 L -43.6814 -5.0543 L -43.90346 -4.0741 Z "/>
<path transform="matrix(1,0,0,-1,81.795,68.999)" stroke-width="1" stroke-linecap="butt" stroke-miterlimit="10" stroke-linejoin="miter" fill="none" stroke="#c91bff" d="M 14.5898 17.68086 L 18.93144 19.27614 L 23.4108 29.43466 L 18.52643 27.63998 Z "/>
<path transform="matrix(1,0,0,-1,81.795,68.999)" stroke-width="1" stroke-linecap="butt" stroke-miterlimit="10" stroke-linejoin="miter" fill="none" stroke="#b0d8ff" d="M -24.27876 -15.88815 L -21.86795 -15.92494 L -23.52289 -12.91727 L -26.73732 -12.86821 Z "/>
<path transform="matrix(1,0,0,-1,81.795,68.999)" stroke-width="1" stroke-linecap="butt" stroke-miterlimit="10" stroke-linejoin="miter" fill="none" stroke="#b0d8ff" d="M -30.14081 -15.18755 L -28.46921 -15.51454 L -32.32457 -12.37006 L -34.55334 -11.93408 Z "/>
<path transform="matrix(1,0,0,-1,81.795,68.999)" stroke-width="1" stroke-linecap="butt" stroke-miterlimit="10" stroke-linejoin="miter" fill="none" stroke="#c91bff" d="M -50.67468 25.48091 L -54.56433 23.84537 L -59.27199 34.57504 L -54.89613 36.41502 Z "/>
<path transform="matrix(1,0,0,-1,81.795,68.999)" stroke-width="1" stroke-linecap="butt" stroke-miterlimit="10" stroke-linejoin="miter" fill="none" stroke="#b0d8ff" d="M -26.49799 -15.75006 L -24.27876 -15.88815 L -26.73732 -12.86821 L -29.69627 -12.68408 Z "/>
<path transform="matrix(1,0,0,-1,81.795,68.999)" stroke-width="1" stroke-linecap="butt" stroke-miterlimit="10" stroke-linejoin="miter" fill="none" stroke="#b0d8ff" d="M -28.46921 -15.51454 L -26.49799 -15.75006 L -29.69627 -12.68408 L -32.32457 -12.37006 Z "/>
<path transform="matrix(1,0,0,-1,81.795,68.999)" stroke-width="1" stroke-linecap="butt" stroke-miterlimit="10" stroke-linejoin="miter" fill="none" stroke="#3f9fff" d="M -8.0709 -7.26828 L -4.0917 -6.54942 L -1.52942 -.64713 L -6.30446 -1.50978 Z "/>
<path transform="matrix(1,0,0,-1,81.795,68.999)" stroke-width="1" stroke-linecap="butt" stroke-miterlimit="10" stroke-linejoin="miter" fill="none" stroke="#654eff" d="M 6.14192 7.65799 L 10.65318 8.95663 L 14.5898 17.68086 L 9.43407 16.19672 Z "/>
<path transform="matrix(1,0,0,-1,81.795,68.999)" stroke-width="1" stroke-linecap="butt" stroke-miterlimit="10" stroke-linejoin="miter" fill="none" stroke="#3f9fff" d="M -43.42735 -3.0429 L -43.90346 -4.0741 L -49.3035 2.32327 L -48.73216 3.56068 Z "/>
<path transform="matrix(1,0,0,-1,81.795,68.999)" stroke-width="1" stroke-linecap="butt" stroke-miterlimit="10" stroke-linejoin="miter" fill="none" stroke="#7ebfff" d="M -16.66827 -12.6092 L -13.20491 -12.2602 L -12.28033 -7.85342 L -16.60956 -8.28972 Z "/>
<path transform="matrix(1,0,0,-1,81.795,68.999)" stroke-width="1" stroke-linecap="butt" stroke-miterlimit="10" stroke-linejoin="miter" fill="none" stroke="#0c7aff" d="M -1.52942 -.64713 L 2.84975 .35396 L 6.14192 7.65799 L 1.03285 6.49004 Z "/>
<path transform="matrix(1,0,0,-1,81.795,68.999)" stroke-width="1" stroke-linecap="butt" stroke-miterlimit="10" stroke-linejoin="miter" fill="none" stroke="#654eff" d="M -49.85669 14.35056 L -52.40611 12.877 L -57.47794 22.1613 L -54.56433 23.84537 Z "/>
<path transform="matrix(1,0,0,-1,81.795,68.999)" stroke-width="1" stroke-linecap="butt" stroke-miterlimit="10" stroke-linejoin="miter" fill="none" stroke="#7ebfff" d="M -38.32573 -10.02087 L -37.59325 -10.74408 L -42.7658 -5.9583 L -43.6814 -5.0543 Z "/>
<path transform="matrix(1,0,0,-1,81.795,68.999)" stroke-width="1" stroke-linecap="butt" stroke-miterlimit="10" stroke-linejoin="miter" fill="none" stroke="#0c7aff" d="M -47.33424 4.8274 L -48.73216 3.56068 L -54.03702 11.39919 L -52.40611 12.877 Z "/>
<path transform="matrix(1,0,0,-1,81.795,68.999)" stroke-width="1" stroke-linecap="butt" stroke-miterlimit="10" stroke-linejoin="miter" fill="none" stroke="#7ebfff" d="M -20.13722 -12.8301 L -16.66827 -12.6092 L -16.60956 -8.28972 L -20.94572 -8.56581 Z "/>
<path transform="matrix(1,0,0,-1,81.795,68.999)" stroke-width="1" stroke-linecap="butt" stroke-miterlimit="10" stroke-linejoin="miter" fill="none" stroke="#7ebfff" d="M -37.59325 -10.74408 L -36.32559 -11.38731 L -41.1812 -6.76234 L -42.7658 -5.9583 Z "/>
<path transform="matrix(1,0,0,-1,81.795,68.999)" stroke-width="1" stroke-linecap="butt" stroke-miterlimit="10" stroke-linejoin="miter" fill="none" stroke="#3f9fff" d="M -12.28033 -7.85342 L -8.0709 -7.26828 L -6.30446 -1.50978 L -11.35576 -2.21194 Z "/>
<path transform="matrix(1,0,0,-1,81.795,68.999)" stroke-width="1" stroke-linecap="butt" stroke-miterlimit="10" stroke-linejoin="miter" fill="none" stroke="#3f9fff" d="M -43.90346 -4.0741 L -43.6814 -5.0543 L -49.03702 1.147 L -49.3035 2.32327 Z "/>
<path transform="matrix(1,0,0,-1,81.795,68.999)" stroke-width="1" stroke-linecap="butt" stroke-miterlimit="10" stroke-linejoin="miter" fill="none" stroke="#7ebfff" d="M -23.52289 -12.91727 L -20.13722 -12.8301 L -20.94572 -8.56581 L -25.17783 -8.67477 Z "/>
<path transform="matrix(1,0,0,-1,81.795,68.999)" stroke-width="1" stroke-linecap="butt" stroke-miterlimit="10" stroke-linejoin="miter" fill="none" stroke="#7ebfff" d="M -36.3255 -11.38759 L -34.55334 -11.93408 L -38.9659 -7.44579 L -41.18109 -6.76268 Z "/>
<path transform="matrix(1,0,0,-1,81.795,68.999)" stroke-width="1" stroke-linecap="butt" stroke-miterlimit="10" stroke-linejoin="miter" fill="none" stroke="#c91bff" d="M 9.43407 16.19672 L 14.5898 17.68086 L 18.52643 27.63998 L 12.72623 25.97029 Z "/>
<path transform="matrix(1,0,0,-1,81.795,68.999)" stroke-width="1" stroke-linecap="butt" stroke-miterlimit="10" stroke-linejoin="miter" fill="none" stroke="#0c7aff" d="M -6.30446 -1.50978 L -1.52942 -.64713 L 1.03285 6.49004 L -4.538 5.48361 Z "/>
<path transform="matrix(1,0,0,-1,81.795,68.999)" stroke-width="1" stroke-linecap="butt" stroke-miterlimit="10" stroke-linejoin="miter" fill="none" stroke="#7ebfff" d="M -26.73732 -12.86821 L -23.52289 -12.91727 L -25.17783 -8.67477 L -29.19586 -8.61346 Z "/>
<path transform="matrix(1,0,0,-1,81.795,68.999)" stroke-width="1" stroke-linecap="butt" stroke-miterlimit="10" stroke-linejoin="miter" fill="none" stroke="#7ebfff" d="M -34.55334 -11.93408 L -32.32457 -12.37006 L -36.17992 -7.99077 L -38.9659 -7.44579 Z "/>
<path transform="matrix(1,0,0,-1,81.795,68.999)" stroke-width="1" stroke-linecap="butt" stroke-miterlimit="10" stroke-linejoin="miter" fill="none" stroke="#c91bff" d="M -54.56433 23.84537 L -57.47794 22.1613 L -62.54979 32.68047 L -59.27199 34.57504 Z "/>
<path transform="matrix(1,0,0,-1,81.795,68.999)" stroke-width="1" stroke-linecap="butt" stroke-miterlimit="10" stroke-linejoin="miter" fill="none" stroke="#654eff" d="M 1.03285 6.49004 L 6.14192 7.65799 L 9.43407 16.19672 L 3.59514 14.86191 Z "/>
<path transform="matrix(1,0,0,-1,81.795,68.999)" stroke-width="1" stroke-linecap="butt" stroke-miterlimit="10" stroke-linejoin="miter" fill="none" stroke="#0c7aff" d="M -48.73216 3.56068 L -49.3035 2.32327 L -54.70358 9.9555 L -54.03702 11.39919 Z "/>
<path transform="matrix(1,0,0,-1,81.795,68.999)" stroke-width="1" stroke-linecap="butt" stroke-miterlimit="10" stroke-linejoin="miter" fill="none" stroke="#7ebfff" d="M -29.69627 -12.68408 L -26.73732 -12.86821 L -29.19586 -8.61346 L -32.89455 -8.38329 Z "/>
<path transform="matrix(1,0,0,-1,81.795,68.999)" stroke-width="1" stroke-linecap="butt" stroke-miterlimit="10" stroke-linejoin="miter" fill="none" stroke="#7ebfff" d="M -32.32457 -12.37006 L -29.69627 -12.68408 L -32.89455 -8.38329 L -36.17992 -7.99077 Z "/>
<path transform="matrix(1,0,0,-1,81.795,68.999)" stroke-width="1" stroke-linecap="butt" stroke-miterlimit="10" stroke-linejoin="miter" fill="none" stroke="#654eff" d="M -52.40611 12.877 L -54.03702 11.39919 L -59.34183 20.47237 L -57.47794 22.1613 Z "/>
<path transform="matrix(1,0,0,-1,81.795,68.999)" stroke-width="1" stroke-linecap="butt" stroke-miterlimit="10" stroke-linejoin="miter" fill="none" stroke="#3f9fff" d="M -16.60956 -8.28972 L -12.28033 -7.85342 L -11.35576 -2.21194 L -16.55083 -2.7355 Z "/>
<path transform="matrix(1,0,0,-1,81.795,68.999)" stroke-width="1" stroke-linecap="butt" stroke-miterlimit="10" stroke-linejoin="miter" fill="none" stroke="#3f9fff" d="M -43.6814 -5.0543 L -42.7658 -5.9583 L -47.9383 .0622 L -49.03702 1.147 Z "/>
<path transform="matrix(1,0,0,-1,81.795,68.999)" stroke-width="1" stroke-linecap="butt" stroke-miterlimit="10" stroke-linejoin="miter" fill="none" stroke="#3f9fff" d="M -20.94572 -8.56581 L -16.60956 -8.28972 L -16.55083 -2.7355 L -21.75424 -3.06679 Z "/>
<path transform="matrix(1,0,0,-1,81.795,68.999)" stroke-width="1" stroke-linecap="butt" stroke-miterlimit="10" stroke-linejoin="miter" fill="none" stroke="#0c7aff" d="M -11.35576 -2.21194 L -6.30446 -1.50978 L -4.538 5.48361 L -10.43121 4.66441 Z "/>
<path transform="matrix(1,0,0,-1,81.795,68.999)" stroke-width="1" stroke-linecap="butt" stroke-miterlimit="10" stroke-linejoin="miter" fill="none" stroke="#3f9fff" d="M -42.7658 -5.9583 L -41.1812 -6.76234 L -46.03679 -.90263 L -47.9383 .0622 Z "/>
<path transform="matrix(1,0,0,-1,81.795,68.999)" stroke-width="1" stroke-linecap="butt" stroke-miterlimit="10" stroke-linejoin="miter" fill="none" stroke="#0c7aff" d="M -49.3035 2.32327 L -49.03702 1.147 L -54.39267 8.58319 L -54.70358 9.9555 Z "/>
<path transform="matrix(1,0,0,-1,81.795,68.999)" stroke-width="1" stroke-linecap="butt" stroke-miterlimit="10" stroke-linejoin="miter" fill="none" stroke="#654eff" d="M -4.538 5.48361 L 1.03285 6.49004 L 3.59514 14.86191 L -2.77156 13.71172 Z "/>
<path transform="matrix(1,0,0,-1,81.795,68.999)" stroke-width="1" stroke-linecap="butt" stroke-miterlimit="10" stroke-linejoin="miter" fill="none" stroke="#3f9fff" d="M -25.17783 -8.67477 L -20.94572 -8.56581 L -21.75424 -3.06679 L -26.83275 -3.19754 Z "/>
<path transform="matrix(1,0,0,-1,81.795,68.999)" stroke-width="1" stroke-linecap="butt" stroke-miterlimit="10" stroke-linejoin="miter" fill="none" stroke="#c91bff" d="M 3.59514 14.86191 L 9.43407 16.19672 L 12.72623 25.97029 L 6.15742 24.46864 Z "/>
<path transform="matrix(1,0,0,-1,81.795,68.999)" stroke-width="1" stroke-linecap="butt" stroke-miterlimit="10" stroke-linejoin="miter" fill="none" stroke="#3f9fff" d="M -41.18109 -6.76268 L -38.9659 -7.44579 L -43.37842 -1.72278 L -46.03665 -.90303 Z "/>
<path transform="matrix(1,0,0,-1,81.795,68.999)" stroke-width="1" stroke-linecap="butt" stroke-miterlimit="10" stroke-linejoin="miter" fill="none" stroke="#654eff" d="M -54.03702 11.39919 L -54.70358 9.9555 L -60.10362 18.82243 L -59.34183 20.47237 Z "/>
<path transform="matrix(1,0,0,-1,81.795,68.999)" stroke-width="1" stroke-linecap="butt" stroke-miterlimit="10" stroke-linejoin="miter" fill="none" stroke="#c91bff" d="M -57.47794 22.1613 L -59.34183 20.47237 L -64.64668 30.7804 L -62.54979 32.68047 Z "/>
<path transform="matrix(1,0,0,-1,81.795,68.999)" stroke-width="1" stroke-linecap="butt" stroke-miterlimit="10" stroke-linejoin="miter" fill="none" stroke="#3f9fff" d="M -29.19586 -8.61346 L -25.17783 -8.67477 L -26.83275 -3.19754 L -31.65439 -3.12396 Z "/>
<path transform="matrix(1,0,0,-1,81.795,68.999)" stroke-width="1" stroke-linecap="butt" stroke-miterlimit="10" stroke-linejoin="miter" fill="none" stroke="#3f9fff" d="M -38.9659 -7.44579 L -36.17992 -7.99077 L -40.03523 -2.37674 L -43.37842 -1.72278 Z "/>
<path transform="matrix(1,0,0,-1,81.795,68.999)" stroke-width="1" stroke-linecap="butt" stroke-miterlimit="10" stroke-linejoin="miter" fill="none" stroke="#0c7aff" d="M -16.55083 -2.7355 L -11.35576 -2.21194 L -10.43121 4.66441 L -16.4921 4.05362 Z "/>
<path transform="matrix(1,0,0,-1,81.795,68.999)" stroke-width="1" stroke-linecap="butt" stroke-miterlimit="10" stroke-linejoin="miter" fill="none" stroke="#3f9fff" d="M -32.89455 -8.38329 L -29.19586 -8.61346 L -31.65439 -3.12396 L -36.0928 -2.84778 Z "/>
<path transform="matrix(1,0,0,-1,81.795,68.999)" stroke-width="1" stroke-linecap="butt" stroke-miterlimit="10" stroke-linejoin="miter" fill="none" stroke="#3f9fff" d="M -36.17992 -7.99077 L -32.89455 -8.38329 L -36.0928 -2.84778 L -40.03523 -2.37674 Z "/>
<path transform="matrix(1,0,0,-1,81.795,68.999)" stroke-width="1" stroke-linecap="butt" stroke-miterlimit="10" stroke-linejoin="miter" fill="none" stroke="#0c7aff" d="M -49.03702 1.147 L -47.9383 .0622 L -53.11084 7.31758 L -54.39267 8.58319 Z "/>
<path transform="matrix(1,0,0,-1,81.795,68.999)" stroke-width="1" stroke-linecap="butt" stroke-miterlimit="10" stroke-linejoin="miter" fill="none" stroke="#654eff" d="M -10.43121 4.66441 L -4.538 5.48361 L -2.77156 13.71172 L -9.50664 12.7755 Z "/>
<path transform="matrix(1,0,0,-1,81.795,68.999)" stroke-width="1" stroke-linecap="butt" stroke-miterlimit="10" stroke-linejoin="miter" fill="none" stroke="#0c7aff" d="M -21.75424 -3.06679 L -16.55083 -2.7355 L -16.4921 4.05362 L -22.56274 3.66707 Z "/>
<path transform="matrix(1,0,0,-1,81.795,68.999)" stroke-width="1" stroke-linecap="butt" stroke-miterlimit="10" stroke-linejoin="miter" fill="none" stroke="#654eff" d="M -54.70358 9.9555 L -54.39267 8.58319 L -59.74829 17.2541 L -60.10362 18.82243 Z "/>
<path transform="matrix(1,0,0,-1,81.795,68.999)" stroke-width="1" stroke-linecap="butt" stroke-miterlimit="10" stroke-linejoin="miter" fill="none" stroke="#0c7aff" d="M -47.9383 .0622 L -46.03679 -.90263 L -50.89241 6.19194 L -53.11084 7.31758 Z "/>
<path transform="matrix(1,0,0,-1,81.795,68.999)" stroke-width="1" stroke-linecap="butt" stroke-miterlimit="10" stroke-linejoin="miter" fill="none" stroke="#c91bff" d="M -2.77156 13.71172 L 3.59514 14.86191 L 6.15742 24.46864 L -1.00508 23.17468 Z "/>
<path transform="matrix(1,0,0,-1,81.795,68.999)" stroke-width="1" stroke-linecap="butt" stroke-miterlimit="10" stroke-linejoin="miter" fill="none" stroke="#c91bff" d="M -59.34183 20.47237 L -60.10362 18.82243 L -65.50371 28.92426 L -64.64668 30.7804 Z "/>
<path transform="matrix(1,0,0,-1,81.795,68.999)" stroke-width="1" stroke-linecap="butt" stroke-miterlimit="10" stroke-linejoin="miter" fill="none" stroke="#0c7aff" d="M -26.83275 -3.19754 L -21.75424 -3.06679 L -22.56274 3.66707 L -28.48769 3.51456 Z "/>
<path transform="matrix(1,0,0,-1,81.795,68.999)" stroke-width="1" stroke-linecap="butt" stroke-miterlimit="10" stroke-linejoin="miter" fill="none" stroke="#0c7aff" d="M -46.03665 -.90303 L -43.37842 -1.72278 L -47.79099 5.23512 L -50.89224 6.19147 Z "/>
<path transform="matrix(1,0,0,-1,81.795,68.999)" stroke-width="1" stroke-linecap="butt" stroke-miterlimit="10" stroke-linejoin="miter" fill="none" stroke="#654eff" d="M -16.4921 4.05362 L -10.43121 4.66441 L -9.50664 12.7755 L -16.43338 12.07744 Z "/>
<path transform="matrix(1,0,0,-1,81.795,68.999)" stroke-width="1" stroke-linecap="butt" stroke-miterlimit="10" stroke-linejoin="miter" fill="none" stroke="#0c7aff" d="M -31.65439 -3.12396 L -26.83275 -3.19754 L -28.48769 3.51456 L -34.11293 3.60039 Z "/>
<path transform="matrix(1,0,0,-1,81.795,68.999)" stroke-width="1" stroke-linecap="butt" stroke-miterlimit="10" stroke-linejoin="miter" fill="none" stroke="#0c7aff" d="M -43.37842 -1.72278 L -40.03523 -2.37674 L -43.89061 4.47214 L -47.79099 5.23512 Z "/>
<path transform="matrix(1,0,0,-1,81.795,68.999)" stroke-width="1" stroke-linecap="butt" stroke-miterlimit="10" stroke-linejoin="miter" fill="none" stroke="#654eff" d="M -54.39267 8.58319 L -53.11084 7.31758 L -58.28333 15.80768 L -59.74829 17.2541 Z "/>
<path transform="matrix(1,0,0,-1,81.795,68.999)" stroke-width="1" stroke-linecap="butt" stroke-miterlimit="10" stroke-linejoin="miter" fill="none" stroke="#0c7aff" d="M -36.0928 -2.84778 L -31.65439 -3.12396 L -34.11293 3.60039 L -39.2911 3.92262 Z "/>
<path transform="matrix(1,0,0,-1,81.795,68.999)" stroke-width="1" stroke-linecap="butt" stroke-miterlimit="10" stroke-linejoin="miter" fill="none" stroke="#0c7aff" d="M -40.03523 -2.37674 L -36.0928 -2.84778 L -39.2911 3.92262 L -43.89061 4.47214 Z "/>
<path transform="matrix(1,0,0,-1,81.795,68.999)" stroke-width="1" stroke-linecap="butt" stroke-miterlimit="10" stroke-linejoin="miter" fill="none" stroke="#c91bff" d="M -9.50664 12.7755 L -2.77156 13.71172 L -1.00508 23.17468 L -8.58208 22.12143 Z "/>
<path transform="matrix(1,0,0,-1,81.795,68.999)" stroke-width="1" stroke-linecap="butt" stroke-miterlimit="10" stroke-linejoin="miter" fill="none" stroke="#c91bff" d="M -60.10362 18.82243 L -59.74829 17.2541 L -65.10396 27.15985 L -65.50371 28.92426 Z "/>
<path transform="matrix(1,0,0,-1,81.795,68.999)" stroke-width="1" stroke-linecap="butt" stroke-miterlimit="10" stroke-linejoin="miter" fill="none" stroke="#654eff" d="M -22.56274 3.66707 L -16.4921 4.05362 L -16.43338 12.07744 L -23.37126 11.63568 Z "/>
<path transform="matrix(1,0,0,-1,81.795,68.999)" stroke-width="1" stroke-linecap="butt" stroke-miterlimit="10" stroke-linejoin="miter" fill="none" stroke="#654eff" d="M -53.11084 7.31758 L -50.89241 6.19194 L -55.748 14.52122 L -58.28333 15.80768 Z "/>
<path transform="matrix(1,0,0,-1,81.795,68.999)" stroke-width="1" stroke-linecap="butt" stroke-miterlimit="10" stroke-linejoin="miter" fill="none" stroke="#654eff" d="M -28.48769 3.51456 L -22.56274 3.66707 L -23.37126 11.63568 L -30.1426 11.46133 Z "/>
<path transform="matrix(1,0,0,-1,81.795,68.999)" stroke-width="1" stroke-linecap="butt" stroke-miterlimit="10" stroke-linejoin="miter" fill="none" stroke="#654eff" d="M -50.89224 6.19147 L -47.79099 5.23512 L -52.20349 13.42772 L -55.7478 14.52069 Z "/>
<path transform="matrix(1,0,0,-1,81.795,68.999)" stroke-width="1" stroke-linecap="butt" stroke-miterlimit="10" stroke-linejoin="miter" fill="none" stroke="#c91bff" d="M -16.43338 12.07744 L -9.50664 12.7755 L -8.58208 22.12143 L -16.37465 21.33609 Z "/>
<path transform="matrix(1,0,0,-1,81.795,68.999)" stroke-width="1" stroke-linecap="butt" stroke-miterlimit="10" stroke-linejoin="miter" fill="none" stroke="#c91bff" d="M -59.74829 17.2541 L -58.28333 15.80768 L -63.45586 25.53264 L -65.10396 27.15985 Z "/>
<path transform="matrix(1,0,0,-1,81.795,68.999)" stroke-width="1" stroke-linecap="butt" stroke-miterlimit="10" stroke-linejoin="miter" fill="none" stroke="#654eff" d="M -34.11293 3.60039 L -28.48769 3.51456 L -30.1426 11.46133 L -36.57146 11.55943 Z "/>
<path transform="matrix(1,0,0,-1,81.795,68.999)" stroke-width="1" stroke-linecap="butt" stroke-miterlimit="10" stroke-linejoin="miter" fill="none" stroke="#654eff" d="M -47.79099 5.23512 L -43.89061 4.47214 L -47.74594 12.55573 L -52.20349 13.42772 Z "/>
<path transform="matrix(1,0,0,-1,81.795,68.999)" stroke-width="1" stroke-linecap="butt" stroke-miterlimit="10" stroke-linejoin="miter" fill="none" stroke="#654eff" d="M -39.2911 3.92262 L -34.11293 3.60039 L -36.57146 11.55943 L -42.48935 11.9277 Z "/>
<path transform="matrix(1,0,0,-1,81.795,68.999)" stroke-width="1" stroke-linecap="butt" stroke-miterlimit="10" stroke-linejoin="miter" fill="none" stroke="#654eff" d="M -43.89061 4.47214 L -39.2911 3.92262 L -42.48935 11.9277 L -47.74594 12.55573 Z "/>
<path transform="matrix(1,0,0,-1,81.795,68.999)" stroke-width="1" stroke-linecap="butt" stroke-miterlimit="10" stroke-linejoin="miter" fill="none" stroke="#c91bff" d="M -23.37126 11.63568 L -16.43338 12.07744 L -16.37465 21.33609 L -24.17978 20.83913 Z "/>
<path transform="matrix(1,0,0,-1,81.795,68.999)" stroke-width="1" stroke-linecap="butt" stroke-miterlimit="10" stroke-linejoin="miter" fill="none" stroke="#c91bff" d="M -58.28333 15.80768 L -55.748 14.52122 L -60.60362 24.08537 L -63.45586 25.53264 Z "/>
<path transform="matrix(1,0,0,-1,81.795,68.999)" stroke-width="1" stroke-linecap="butt" stroke-miterlimit="10" stroke-linejoin="miter" fill="none" stroke="#c91bff" d="M -30.1426 11.46133 L -23.37126 11.63568 L -24.17978 20.83913 L -31.79755 20.643 Z "/>
<path transform="matrix(1,0,0,-1,81.795,68.999)" stroke-width="1" stroke-linecap="butt" stroke-miterlimit="10" stroke-linejoin="miter" fill="none" stroke="#c91bff" d="M -55.7478 14.52069 L -52.20349 13.42772 L -56.61607 22.85518 L -60.60341 24.08478 Z "/>
<path transform="matrix(1,0,0,-1,81.795,68.999)" stroke-width="1" stroke-linecap="butt" stroke-miterlimit="10" stroke-linejoin="miter" fill="none" stroke="#c91bff" d="M -36.57146 11.55943 L -30.1426 11.46133 L -31.79755 20.643 L -39.03001 20.75337 Z "/>
<path transform="matrix(1,0,0,-1,81.795,68.999)" stroke-width="1" stroke-linecap="butt" stroke-miterlimit="10" stroke-linejoin="miter" fill="none" stroke="#c91bff" d="M -52.20349 13.42772 L -47.74594 12.55573 L -51.60132 21.87419 L -56.61607 22.85518 Z "/>
<path transform="matrix(1,0,0,-1,81.795,68.999)" stroke-width="1" stroke-linecap="butt" stroke-miterlimit="10" stroke-linejoin="miter" fill="none" stroke="#c91bff" d="M -42.48935 11.9277 L -36.57146 11.55943 L -39.03001 20.75337 L -45.68764 21.16766 Z "/>
<path transform="matrix(1,0,0,-1,81.795,68.999)" stroke-width="1" stroke-linecap="butt" stroke-miterlimit="10" stroke-linejoin="miter" fill="none" stroke="#c91bff" d="M -47.74594 12.55573 L -42.48935 11.9277 L -45.68764 21.16766 L -51.60132 21.87419 Z "/>
</g>
<path transform="matrix(1,0,0,-1,81.795,68.999)" stroke-width="1" stroke-linecap="butt" stroke-miterlimit="10" stroke-linejoin="miter" fill="none" stroke="#000000" d="M 21.33664 -10.20203 L -53.18549 -24.50093 "/>
<path transform="matrix(-.98242,.18849,.18849,.98242,28.609509,93.49993)" d="M 1.99252 0 L -1.19551 1.59401 L 0 0 L -1.19551 -1.59401 "/>
<path transform="matrix(1,0,0,-1,81.795,68.999)" stroke-width="1" stroke-linecap="butt" stroke-miterlimit="10" stroke-linejoin="miter" fill="none" stroke="#000000" d="M -43.55603 -7.1069 L 7.89334 -27.24507 "/>
<path transform="matrix(.93166,.36464,.36464,-.93166,89.68834,96.244068)" d="M 1.99252 0 L -1.19551 1.59401 L 0 0 L -1.19551 -1.59401 "/>
<path transform="matrix(1,0,0,-1,81.795,68.999)" stroke-width="1" stroke-linecap="butt" stroke-miterlimit="10" stroke-linejoin="miter" fill="none" stroke="#000000" d="M -16.90317 -18.78963 L -16.90317 49.23814 "/>
<path transform="matrix(0,-1,-1,-0,64.89183,19.76086)" d="M 1.99252 0 L -1.19551 1.59401 L 0 0 L -1.19551 -1.59401 "/>
<symbol id="font_1_1">
<path d="M .201 .116000007 C .19100002 .082 .15800002 .028 .107 .028 C .10400001 .028 .07400001 .028 .053000004 .042000005 C .094000007 .055000005 .09700001 .091 .09700001 .097 C .09700001 .119 .080000009 .134 .057000005 .134 C .029000007 .134 0 .11 0 .073 C 0 .023000002 .056 0 .10500001 0 C .15100003 0 .192 .029000003 .21700001 .071 C .241 .018000002 .296 0 .336 0 C .451 0 .512 .125 .512 .15300001 C .512 .16600001 .49900005 .16600001 .49600003 .16600001 C .48200003 .16600001 .48100005 .16100002 .47700004 .14900002 C .456 .08 .39600004 .028 .34 .028 C .3 .028 .279 .055000005 .279 .093 C .279 .119 .303 .21000001 .331 .321 C .351 .398 .39600004 .423 .42900003 .423 C .43100003 .423 .46200005 .423 .483 .409 C .451 .4 .439 .372 .439 .354 C .439 .33200003 .456 .317 .479 .317 C .50200006 .317 .535 .336 .535 .37800003 C .535 .43400003 .47100006 .451 .43100003 .451 C .381 .451 .34100003 .418 .319 .38 C .301 .421 .255 .451 .199 .451 C .087000008 .451 .023000002 .328 .023000002 .298 C .023000002 .285 .037 .285 .040000008 .285 C .053000004 .285 .054000006 .289 .059000009 .30200003 C .084 .38 .14700002 .423 .19600001 .423 C .229 .423 .256 .405 .256 .357 C .256 .337 .24400002 .287 .23500002 .25300003 L .201 .116000007 Z "/>
</symbol>
<use xlink:href="#font_1_1" transform="matrix(6.9738,0,0,-6.9738,21.73974,98.43574)"/>
<symbol id="font_1_2">
<path d="M .50900009 .58100005 C .513 .595 .513 .597 .513 .60300007 C .513 .623 .49700005 .63500007 .48000003 .63500007 C .46900005 .63500007 .45000003 .63000008 .43900005 .611 C .43600003 .605 .42800004 .573 .42300005 .55300006 L .40200005 .47000004 C .39600004 .44600005 .36500005 .32000003 .36200003 .30900003 C .36100004 .30900003 .31700004 .22200002 .23900001 .22200002 C .171 .22200002 .171 .287 .171 .305 C .171 .35900004 .194 .42200003 .22400002 .499 C .23600002 .531 .24100001 .54300007 .24100001 .56 C .24100001 .60800006 .2 .64500007 .146 .64500007 C .045000007 .64500007 0 .509 0 .49200005 C 0 .47900004 .014000002 .47900004 .017 .47900004 C .031 .47900004 .032 .48400004 .035 .495 C .060000007 .578 .103 .61700007 .143 .61700007 C .16000001 .61700007 .168 .606 .168 .582 C .168 .559 .15900001 .537 .154 .52400007 C .106000009 .402 .096 .365 .096 .321 C .096 .30400003 .096 .25700004 .135 .22500001 C .16600001 .19900002 .20800002 .194 .235 .194 C .27500005 .194 .31100003 .209 .34400005 .23900001 C .33100004 .18400002 .32000003 .142 .27800004 .09200001 C .25100003 .061000006 .21100001 .027999998 .158 .027999998 C .15100001 .027999998 .104 .027999998 .083000008 .061000006 C .13700001 .067 .13700001 .11500001 .13700001 .116000007 C .13700001 .148 .107999999 .15400002 .098000008 .15400002 C .073 .15400002 .040000004 .134 .040000004 .08800001 C .040000004 .037 .088 0 .15900001 0 C .26000003 0 .38300003 .07800001 .41400004 .20300001 L .50900009 .58100005 Z "/>
</symbol>
<use xlink:href="#font_1_2" transform="matrix(6.9738,0,0,-6.9738,94.70776,101.20866)"/>
<symbol id="font_1_3">
<path d="M .10700001 .098000008 C .133 .124000009 .15100001 .143 .23600002 .21100001 C .25700004 .22800002 .33200003 .28800003 .361 .316 C .422 .37600003 .46000005 .42700003 .46000005 .439 C .46000005 .451 .44700004 .451 .44300003 .451 C .43400003 .451 .431 .449 .426 .441 C .39500005 .395 .374 .38 .35000003 .38 C .338 .38 .323 .381 .29299999 .41 C .259 .444 .237 .451 .214 .451 C .134 .451 .08 .364 .08 .334 C .08 .32500003 .09 .322 .097 .322 C .109 .322 .111 .32500003 .11500001 .336 C .13000001 .37100003 .186 .373 .202 .373 C .22500001 .373 .251 .367 .265 .364 C .32 .352 .32700003 .352 .352 .352 C .32600004 .32500003 .30800004 .307 .21300002 .23100002 C .135 .16900002 .10800001 .14400001 .089 .124000009 C .029 .065000008 0 .021000002 0 .012000001 C 0 0 .012999997 0 .016999998 0 C .027000003 0 .029 .0020000004 .034 .010000001 C .061000006 .048000006 .09200001 .071 .126 .071 C .13800001 .071 .15300001 .07 .18 .045 C .21100001 .015000001 .23100002 0 .263 0 C .37 0 .43700005 .12100001 .43700005 .15500002 C .43700005 .16700001 .426 .16800002 .42000003 .16800002 C .408 .16800002 .40600003 .16300002 .402 .15200001 C .38300003 .102000009 .324 .078 .27500005 .078 C .25200004 .078 .22700002 .083000008 .202 .089 C .156 .099 .148 .099 .13000001 .099 C .128 .099 .113000009 .099 .10700001 .098000008 Z "/>
</symbol>
<use xlink:href="#font_1_3" transform="matrix(6.9738,0,0,-6.9738,63.271406,15.354734)"/>
</svg>
