<?xml version="1.0" encoding="UTF-8" standalone="no"?>
<!DOCTYPE svg PUBLIC "-//W3C//DTD SVG 1.1//EN" "http://www.w3.org/Graphics/SVG/1.1/DTD/svg11.dtd">
<svg xmlns="http://www.w3.org/2000/svg" xmlns:xlink="http://www.w3.org/1999/xlink" version="1.1" width="181.025pt" height="172.749pt" viewBox="0 0 181.025 172.749">
<path transform="matrix(1,0,0,-1,.797,172.54999)" stroke-width="1" stroke-linecap="butt" stroke-miterlimit="10" stroke-linejoin="miter" fill="none" stroke="#000000" d="M 6.72475 80.69696 L 166.12615 80.69696 "/>
<path transform="matrix(1,0,0,-1,166.92314,91.85303)" d="M 1.99252 0 L -1.19551 1.59401 L 0 0 L -1.19551 -1.59401 "/>
<path transform="matrix(1,0,0,-1,.797,172.54999)" stroke-width="1" stroke-linecap="butt" stroke-miterlimit="10" stroke-linejoin="miter" fill="none" stroke="#000000" d="M 87.4217 0 L 87.4217 159.4014 "/>
<path transform="matrix(0,-1,-1,-0,88.2187,13.14859)" d="M 1.99252 0 L -1.19551 1.59401 L 0 0 L -1.19551 -1.59401 "/>
<symbol id="font_0_1">
<path d="M .305 .31300003 C .311 .33900003 .334 .43100003 .404 .43100003 C .409 .43100003 .433 .43100003 .454 .418 C .426 .41300003 .40600003 .388 .40600003 .36400003 C .40600003 .34800003 .417 .32900004 .444 .32900004 C .46600003 .32900004 .498 .34700004 .498 .38700003 C .498 .43900005 .439 .45300005 .405 .45300005 C .347 .45300005 .312 .40000005 .3 .37700004 C .275 .44300003 .221 .45300005 .19200002 .45300005 C .08800001 .45300005 .031000002 .32400004 .031000002 .29900003 C .031000002 .28900004 .041 .28900004 .043000007 .28900004 C .051000008 .28900004 .054000006 .291 .056 .3 C .09 .40600003 .156 .43100003 .19000001 .43100003 C .209 .43100003 .244 .42200003 .244 .36400003 C .244 .33300004 .22700002 .26600004 .19000001 .126 C .17400001 .064 .13900002 .022000002 .095000009 .022000002 C .08900001 .022000002 .06600001 .022000002 .045 .035 C .07000001 .040000004 .09200001 .061 .09200001 .089 C .09200001 .116000007 .07000001 .124000009 .055000009 .124000009 C .025 .124000009 0 .098000008 0 .06600001 C 0 .020000002 .050000006 0 .094000007 0 C .16000001 0 .19600001 .07000001 .19900002 .076000008 C .21100001 .039 .24700003 0 .307 0 C .41 0 .467 .12900001 .467 .15400002 C .467 .16400002 .458 .16400002 .455 .16400002 C .446 .16400002 .444 .16000001 .442 .15300001 C .409 .046 .341 .022000002 .30900003 .022000002 C .27 .022000002 .254 .054 .254 .08800001 C .254 .11000001 .26 .13200002 .271 .17600002 L .305 .31300003 Z "/>
</symbol>
<use xlink:href="#font_0_1" transform="matrix(9.9626,0,0,-9.9626,35.224916,129.07657)"/>
<path transform="matrix(1,0,0,-1,.797,172.54999)" stroke-width="1" stroke-linecap="butt" stroke-miterlimit="10" stroke-linejoin="miter" fill="none" stroke="#000000" d="M 134.49494 114.3207 L 41.97314 48.23367 "/>
<path transform="matrix(-.81538,.58241,.58241,.81538,42.77014,124.316318)" d="M 1.99252 0 L -1.19551 1.59401 L 0 0 L -1.19551 -1.59401 "/>
<path transform="matrix(1,0,0,-1,.797,172.54999)" stroke-width="1.59404" stroke-linecap="butt" stroke-miterlimit="10" stroke-linejoin="miter" fill="none" stroke="#000080" d="M 0 29.58888 C 0 29.58888 2.83418 37.32097 3.92273 40.1149 C 5.01126 42.90883 6.75694 47.18568 7.84547 49.72563 C 8.934 52.26558 10.67969 56.13513 11.76822 58.42108 C 12.85677 60.70705 14.60243 64.16925 15.69098 66.2012 C 16.77951 68.23315 18.52516 71.28807 19.61371 73.06604 C 20.70224 74.844 22.44792 77.4916 23.53645 79.01556 C 24.625 80.53952 26.37067 82.77982 27.4592 84.04979 C 28.54774 85.31976 30.29341 87.15274 31.38196 88.16872 C 32.47049 89.1847 34.21616 90.61035 35.30469 91.37233 C 36.39322 92.13432 38.13892 93.15266 39.22745 93.66066 C 40.316 94.16864 42.06166 94.77966 43.1502 95.03368 C 44.23874 95.28767 45.98439 95.4914 47.07294 95.49141 C 48.16147 95.49142 49.90715 95.28777 50.99568 95.03381 C 52.08421 94.77985 53.8299 94.16887 54.91843 93.66092 C 56.00697 93.15295 57.75264 92.13469 58.84119 91.37273 C 59.92972 90.61078 61.67537 89.1852 62.76392 88.16925 C 63.85245 87.1533 65.59813 85.3204 66.68666 84.05046 C 67.7752 82.78052 69.52087 80.5403 70.6094 79.01636 C 71.69795 77.49243 73.44362 74.84488 74.53217 73.06696 C 75.6207 71.28902 77.36638 68.23416 78.45491 66.20224 C 79.54344 64.1703 81.28912 60.70813 82.37766 58.42223 C 83.4662 56.13632 85.21187 52.26683 86.30042 49.72693 C 87.38895 47.18703 89.1346 42.91023 90.22314 40.11635 C 91.31168 37.32245 94.14589 29.59042 94.14589 29.59042 "/>
<path transform="matrix(1,0,0,-1,.797,172.54999)" stroke-width="1.59404" stroke-linecap="butt" stroke-miterlimit="10" stroke-linejoin="miter" fill="none" stroke="#000080" d="M 87.4217 80.69696 C 87.4217 80.69696 89.85104 86.37773 90.78407 88.43042 C 91.71712 90.48311 93.21341 93.62532 94.14645 95.49141 C 95.07948 97.35748 96.57579 100.20044 97.50882 101.87991 C 98.44186 103.55939 99.93816 106.10309 100.8712 107.59595 C 101.80423 109.0888 103.30054 111.33325 104.23357 112.63951 C 105.16661 113.94577 106.6629 115.89095 107.59595 117.01059 C 108.52898 118.13023 110.02528 119.77617 110.95831 120.7092 C 111.89136 121.64224 113.38766 122.9889 114.3207 123.73534 C 115.25372 124.48177 116.75003 125.52919 117.68307 126.089 C 118.6161 126.64882 120.11241 127.39697 121.04544 127.77019 C 121.97849 128.1434 123.47478 128.5923 124.40782 128.7789 C 125.34085 128.9655 126.83716 129.11515 127.77019 129.11515 C 128.70323 129.11515 130.19953 128.9655 131.13257 128.7789 C 132.0656 128.5923 133.5619 128.1434 134.49494 127.77019 C 135.42798 127.39697 136.92427 126.64882 137.85732 126.089 C 138.79035 125.52919 140.28665 124.48177 141.21968 123.73534 C 142.15273 122.9889 143.64902 121.64224 144.58206 120.7092 C 145.51509 119.77617 147.0114 118.13023 147.94443 117.01059 C 148.87747 115.89095 150.37377 113.94577 151.30681 112.63951 C 152.23984 111.33325 153.73615 109.0888 154.66918 107.59595 C 155.60222 106.10309 157.09851 103.55939 158.03156 101.87991 C 158.96459 100.20044 160.46089 97.35748 161.39392 95.49141 C 162.32697 93.62532 163.82326 90.48311 164.7563 88.43042 C 165.68933 86.37773 168.11867 80.69696 168.11867 80.69696 "/>
<path transform="matrix(1,0,0,-1,.797,172.54999)" stroke-width="1.59404" stroke-linecap="butt" stroke-miterlimit="10" stroke-linejoin="miter" fill="none" stroke="#000080" d="M 0 29.58888 C 0 29.58888 37.08963 43.84625 47.07323 48.41817 C 57.05682 52.9901 67.75609 59.74101 71.95479 62.54015 C 76.15349 65.33926 77.33458 68.5924 77.33458 68.5924 "/>
<path transform="matrix(1,0,0,-1,.797,172.54999)" stroke-width="1.59404" stroke-linecap="butt" stroke-miterlimit="10" stroke-linejoin="miter" fill="none" stroke="#000080" d="M 63.21262 87.4217 C 63.21262 87.4217 81.91673 80.69696 87.4217 80.69696 C 92.92668 80.69696 98.87653 84.24936 102.88863 87.4217 C 106.90071 90.59406 112.88585 97.77621 116.33812 103.5611 C 119.79037 109.34598 127.77019 129.11515 127.77019 129.11515 "/>
<path transform="matrix(1,0,0,-1,.797,172.54999)" stroke-width="1.59404" stroke-linecap="butt" stroke-miterlimit="10" stroke-linejoin="miter" fill="none" stroke="#000080" d="M 94.14645 28.91641 C 94.14645 28.91641 102.33221 50.70299 106.25099 56.48787 C 110.16978 62.27275 117.53856 67.99731 122.3904 70.60983 C 127.24222 73.22235 134.87497 73.9176 141.21968 75.31715 C 147.56439 76.71672 168.11867 80.69696 168.11867 80.69696 "/>
<symbol id="font_0_2">
<path d="M .45700003 .586 C .461 .6 .461 .602 .461 .609 C .461 .62700006 .447 .63600006 .432 .63600006 C .42200003 .63600006 .40600003 .63 .397 .615 C .395 .61 .387 .579 .38300003 .561 C .37600003 .535 .36900003 .508 .363 .48100005 L .318 .301 C .314 .286 .271 .21600002 .20500002 .21600002 C .15400002 .21600002 .143 .26000003 .143 .29700003 C .143 .34300003 .16000001 .40500004 .194 .49300004 C .21000001 .53400006 .21400002 .545 .21400002 .56500008 C .21400002 .61 .18200001 .6470001 .13200002 .6470001 C .037 .6470001 0 .50200006 0 .49300004 C 0 .48300005 .01 .48300005 .012 .48300005 C .022000002 .48300005 .023 .485 .028000003 .50100007 C .055000009 .595 .095000009 .625 .12900001 .625 C .13700001 .625 .15400002 .625 .15400002 .59300008 C .15400002 .568 .14400001 .54200008 .13700001 .523 C .097 .41700004 .079 .36 .079 .31300003 C .079 .224 .142 .194 .201 .194 C .24000003 .194 .274 .21100001 .30200003 .23900002 C .289 .187 .277 .13800001 .237 .08500001 C .21100001 .051 .17300001 .022 .127 .022 C .113000009 .022 .068 .025000006 .051000008 .06400001 C .067 .06400001 .080000009 .06400001 .094000007 .076000008 C .104 .08500001 .11400001 .098000008 .11400001 .117000009 C .11400001 .148 .087000008 .15200001 .07700001 .15200001 C .054000006 .15200001 .021 .136 .021 .087000008 C .021 .037 .065000008 0 .127 0 C .23 0 .333 .091000009 .361 .20400001 L .45700003 .586 Z "/>
</symbol>
<use xlink:href="#font_0_2" transform="matrix(9.9626,0,0,-9.9626,172.7519,95.05833)"/>
<symbol id="font_0_3">
<path d="M .09 .094000007 C .14400001 .15200001 .17300001 .17700002 .209 .20800002 C .209 .20900002 .271 .26200003 .307 .298 C .402 .39100004 .424 .43900005 .424 .44300003 C .424 .45300005 .41500003 .45300005 .41300003 .45300005 C .40600003 .45300005 .403 .45100004 .398 .44200004 C .368 .39400003 .347 .37800003 .323 .37800003 C .299 .37800003 .287 .39300005 .272 .41000004 C .253 .43300004 .23600002 .45300005 .20300001 .45300005 C .128 .45300005 .082 .36 .082 .33900003 C .082 .33400003 .08500001 .328 .09400001 .328 C .103000018 .328 .105000007 .33300004 .10700001 .33900003 C .12600002 .38500003 .18400002 .38600005 .19200002 .38600005 C .21300002 .38600005 .23200001 .37900005 .255 .37100003 C .29500003 .35600005 .306 .35600005 .33200003 .35600005 C .296 .31300003 .21200003 .24100001 .19300002 .22500003 L .103000018 .14100002 C .035 .074 0 .017 0 .010000001 C 0 0 .010000002 0 .012000002 0 C .02 0 .022000004 .0020000004 .028 .013000001 C .051000004 .048 .081 .075 .113000009 .075 C .136 .075 .14600002 .06600001 .17100002 .037 C .18800001 .016 .20600002 0 .23500003 0 C .334 0 .39200003 .127 .39200003 .15400002 C .39200003 .15900001 .388 .16400002 .38 .16400002 C .37100003 .16400002 .36900003 .158 .366 .15100001 C .343 .086 .279 .067 .246 .067 C .22600003 .067 .20800002 .07300001 .187 .080000009 C .15300001 .093 .13800001 .097 .11700001 .097 C .11500001 .097 .09900001 .097 .09 .094000007 Z "/>
</symbol>
<use xlink:href="#font_0_3" transform="matrix(9.9626,0,0,-9.9626,86.12539,7.719574)"/>
</svg>
