<?xml version="1.0" encoding="UTF-8" standalone="no"?>
<!DOCTYPE svg PUBLIC "-//W3C//DTD SVG 1.1//EN" "http://www.w3.org/Graphics/SVG/1.1/DTD/svg11.dtd">
<svg xmlns="http://www.w3.org/2000/svg" xmlns:xlink="http://www.w3.org/1999/xlink" version="1.1" width="173.702pt" height="172.749pt" viewBox="0 0 173.702 172.749">
<path transform="matrix(1,0,0,-1,.199,172.54999)" stroke-width="1" stroke-linecap="butt" stroke-miterlimit="10" stroke-linejoin="miter" fill="none" stroke="#000000" d="M 0 80.69696 L 159.4014 80.69696 "/>
<path transform="matrix(1,0,0,-1,159.6004,91.85303)" d="M 1.99252 0 L -1.19551 1.59401 L 0 0 L -1.19551 -1.59401 "/>
<path transform="matrix(1,0,0,-1,.199,172.54999)" stroke-width="1" stroke-linecap="butt" stroke-miterlimit="10" stroke-linejoin="miter" fill="none" stroke="#000000" d="M 80.69696 0 L 80.69696 159.4014 "/>
<path transform="matrix(0,-1,-1,-0,80.89596,13.14859)" d="M 1.99252 0 L -1.19551 1.59401 L 0 0 L -1.19551 -1.59401 "/>
<clipPath id="cp0">
<path transform="matrix(1,0,0,-1,.199,172.54999)" d="M 0 0 L 161.39392 0 L 161.39392 161.39392 L 0 161.39392 Z "/>
</clipPath>
<g clip-path="url(#cp0)">
<path transform="matrix(1,0,0,-1,.199,172.54999)" stroke-width="1" stroke-linecap="butt" stroke-miterlimit="10" stroke-linejoin="miter" fill="none" stroke="#000000" d="M 127.77019 114.3207 L 35.2484 48.23367 "/>
<path transform="matrix(-.81538,.58241,.58241,.81538,35.447404,124.316318)" d="M 1.99252 0 L -1.19551 1.59401 L 0 0 L -1.19551 -1.59401 "/>
<path transform="matrix(1,0,0,-1,.199,172.54999)" stroke-width="1.59404" stroke-linecap="butt" stroke-miterlimit="10" stroke-linejoin="miter" fill="none" stroke="#000080" d="M 33.62373 146.59949 C 33.62373 146.59949 36.45793 138.86737 37.54646 136.07344 C 38.635 133.27953 40.38068 129.00266 41.46921 126.4627 C 42.55775 123.92276 44.30342 120.0532 45.39195 117.76726 C 46.4805 115.48131 48.22617 112.0191 49.31471 109.98714 C 50.40324 107.95518 52.14891 104.90027 53.23744 103.12231 C 54.32597 101.34435 56.07167 98.69673 57.1602 97.17278 C 58.24875 95.6488 59.9944 93.40852 61.08295 92.13855 C 62.17148 90.86858 63.91714 89.03561 65.00569 88.01962 C 66.09422 87.00365 67.8399 85.57797 68.92844 84.816 C 70.01698 84.05402 71.76265 83.03568 72.85118 82.52768 C 73.93973 82.0197 75.6854 81.40869 76.77394 81.15468 C 77.86247 80.90067 79.60814 80.69698 80.69667 80.69696 C 81.7852 80.69695 83.53088 80.90057 84.61942 81.15454 C 85.70796 81.40851 87.45363 82.01947 88.54216 82.52744 C 89.6307 83.03539 91.37637 84.05367 92.46492 84.81561 C 93.55345 85.57758 95.29913 87.00316 96.38766 88.01912 C 97.4762 89.03506 99.22188 90.86797 100.31041 92.13791 C 101.39896 93.40785 103.14462 95.64807 104.23317 97.17201 C 105.3217 98.69595 107.06735 101.34346 108.1559 103.1214 C 109.24443 104.89932 110.99011 107.95418 112.07864 109.98611 C 113.16719 112.01804 114.91286 115.48021 116.00139 117.76611 C 117.08994 120.05202 118.8356 123.92152 119.92415 126.46143 C 121.01268 129.00133 122.75836 133.27816 123.8469 136.07205 C 124.93542 138.86595 127.76964 146.59796 127.76964 146.59796 "/>
<symbol id="font_1_1">
<path d="M .305 .31300003 C .311 .33900003 .334 .43100003 .404 .43100003 C .409 .43100003 .433 .43100003 .454 .418 C .426 .41300003 .40600003 .388 .40600003 .36400003 C .40600003 .34800003 .417 .32900004 .444 .32900004 C .46600003 .32900004 .498 .34700004 .498 .38700003 C .498 .43900005 .439 .45300005 .405 .45300005 C .347 .45300005 .312 .40000005 .3 .37700004 C .275 .44300003 .221 .45300005 .19200002 .45300005 C .08800001 .45300005 .031000002 .32400004 .031000002 .29900003 C .031000002 .28900004 .041 .28900004 .043000007 .28900004 C .051000008 .28900004 .054000006 .291 .056 .3 C .09 .40600003 .156 .43100003 .19000001 .43100003 C .209 .43100003 .244 .42200003 .244 .36400003 C .244 .33300004 .22700002 .26600004 .19000001 .126 C .17400001 .064 .13900002 .022000002 .095000009 .022000002 C .08900001 .022000002 .06600001 .022000002 .045 .035 C .07000001 .040000004 .09200001 .061 .09200001 .089 C .09200001 .116000007 .07000001 .124000009 .055000009 .124000009 C .025 .124000009 0 .098000008 0 .06600001 C 0 .020000002 .050000006 0 .094000007 0 C .16000001 0 .19600001 .07000001 .19900002 .076000008 C .21100001 .039 .24700003 0 .307 0 C .41 0 .467 .12900001 .467 .15400002 C .467 .16400002 .458 .16400002 .455 .16400002 C .446 .16400002 .444 .16000001 .442 .15300001 C .409 .046 .341 .022000002 .30900003 .022000002 C .27 .022000002 .254 .054 .254 .08800001 C .254 .11000001 .26 .13200002 .271 .17600002 L .305 .31300003 Z "/>
</symbol>
<use xlink:href="#font_1_1" transform="matrix(9.9626,0,0,-9.9626,27.901915,129.07657)"/>
<path transform="matrix(1,0,0,-1,.199,172.54999)" stroke-width="1.59404" stroke-linecap="butt" stroke-miterlimit="10" stroke-linejoin="miter" fill="none" stroke="#000080" d="M 127.77019 147.94443 C 127.77019 147.94443 127.0414 149.2184 126.1664 149.68492 C 125.2914 150.15145 123.15428 150.88855 121.46379 151.30681 C 119.7733 151.72505 116.37308 152.35797 113.98244 152.6995 C 111.59178 153.041 107.16142 153.52675 104.23357 153.76825 C 101.30573 154.00975 96.1461 154.31507 92.88045 154.44005 C 89.61479 154.56505 84.07784 154.66918 80.69696 154.66918 C 77.31609 154.66918 71.77911 154.56505 68.51346 154.44005 C 65.2478 154.31507 60.0882 154.00975 57.16034 153.76825 C 54.23248 153.52675 49.80211 153.041 47.41147 152.6995 C 45.02081 152.35797 41.6206 151.72505 39.93011 151.30681 C 38.23962 150.88855 36.10251 150.15145 35.22751 149.68492 C 34.35251 149.2184 33.62373 148.4274 33.62373 147.94443 C 33.62373 147.46146 34.35251 146.67044 35.22751 146.20392 C 36.10251 145.73741 38.23962 145.0003 39.93011 144.58206 C 41.6206 144.1638 45.02081 143.53087 47.41147 143.18936 C 49.80211 142.84784 54.23248 142.36209 57.16034 142.12059 C 60.0882 141.8791 65.2478 141.57378 68.51346 141.44879 C 71.77911 141.3238 77.31609 141.21968 80.69696 141.21968 C 84.07784 141.21968 89.61479 141.3238 92.88045 141.44879 C 96.1461 141.57378 101.30573 141.8791 104.23357 142.12059 C 107.16142 142.36209 111.59178 142.84784 113.98244 143.18936 C 116.37308 143.53087 119.7733 144.1638 121.46379 144.58206 C 123.15428 145.0003 125.2914 145.73741 126.1664 146.20392 C 127.0414 146.67044 127.77019 147.94443 127.77019 147.94443 "/>
</g>
<symbol id="font_1_2">
<path d="M .45700003 .586 C .461 .6 .461 .602 .461 .609 C .461 .62700006 .447 .63600006 .432 .63600006 C .42200003 .63600006 .40600003 .63 .397 .615 C .395 .61 .387 .579 .38300003 .561 C .37600003 .535 .36900003 .508 .363 .48100005 L .318 .301 C .314 .286 .271 .21600002 .20500002 .21600002 C .15400002 .21600002 .143 .26000003 .143 .29700003 C .143 .34300003 .16000001 .40500004 .194 .49300004 C .21000001 .53400006 .21400002 .545 .21400002 .56500008 C .21400002 .61 .18200001 .6470001 .13200002 .6470001 C .037 .6470001 0 .50200006 0 .49300004 C 0 .48300005 .01 .48300005 .012 .48300005 C .022000002 .48300005 .023 .485 .028000003 .50100007 C .055000009 .595 .095000009 .625 .12900001 .625 C .13700001 .625 .15400002 .625 .15400002 .59300008 C .15400002 .568 .14400001 .54200008 .13700001 .523 C .097 .41700004 .079 .36 .079 .31300003 C .079 .224 .142 .194 .201 .194 C .24000003 .194 .274 .21100001 .30200003 .23900002 C .289 .187 .277 .13800001 .237 .08500001 C .21100001 .051 .17300001 .022 .127 .022 C .113000009 .022 .068 .025000006 .051000008 .06400001 C .067 .06400001 .080000009 .06400001 .094000007 .076000008 C .104 .08500001 .11400001 .098000008 .11400001 .117000009 C .11400001 .148 .087000008 .15200001 .07700001 .15200001 C .054000006 .15200001 .021 .136 .021 .087000008 C .021 .037 .065000008 0 .127 0 C .23 0 .333 .091000009 .361 .20400001 L .45700003 .586 Z "/>
</symbol>
<use xlink:href="#font_1_2" transform="matrix(9.9626,0,0,-9.9626,165.42792,95.05833)"/>
<symbol id="font_1_3">
<path d="M .09 .094000007 C .14400001 .15200001 .17300001 .17700002 .209 .20800002 C .209 .20900002 .271 .26200003 .307 .298 C .402 .39100004 .424 .43900005 .424 .44300003 C .424 .45300005 .41500003 .45300005 .41300003 .45300005 C .40600003 .45300005 .403 .45100004 .398 .44200004 C .368 .39400003 .347 .37800003 .323 .37800003 C .299 .37800003 .287 .39300005 .272 .41000004 C .253 .43300004 .23600002 .45300005 .20300001 .45300005 C .128 .45300005 .082 .36 .082 .33900003 C .082 .33400003 .08500001 .328 .09400001 .328 C .103000018 .328 .105000007 .33300004 .10700001 .33900003 C .12600002 .38500003 .18400002 .38600005 .19200002 .38600005 C .21300002 .38600005 .23200001 .37900005 .255 .37100003 C .29500003 .35600005 .306 .35600005 .33200003 .35600005 C .296 .31300003 .21200003 .24100001 .19300002 .22500003 L .103000018 .14100002 C .035 .074 0 .017 0 .010000001 C 0 0 .010000002 0 .012000002 0 C .02 0 .022000004 .0020000004 .028 .013000001 C .051000004 .048 .081 .075 .113000009 .075 C .136 .075 .14600002 .06600001 .17100002 .037 C .18800001 .016 .20600002 0 .23500003 0 C .334 0 .39200003 .127 .39200003 .15400002 C .39200003 .15900001 .388 .16400002 .38 .16400002 C .37100003 .16400002 .36900003 .158 .366 .15100001 C .343 .086 .279 .067 .246 .067 C .22600003 .067 .20800002 .07300001 .187 .080000009 C .15300001 .093 .13800001 .097 .11700001 .097 C .11500001 .097 .09900001 .097 .09 .094000007 Z "/>
</symbol>
<use xlink:href="#font_1_3" transform="matrix(9.9626,0,0,-9.9626,78.80239,7.719574)"/>
</svg>
