<?xml version="1.0" encoding="UTF-8" standalone="no"?>
<!DOCTYPE svg PUBLIC "-//W3C//DTD SVG 1.1//EN" "http://www.w3.org/Graphics/SVG/1.1/DTD/svg11.dtd">
<svg xmlns="http://www.w3.org/2000/svg" xmlns:xlink="http://www.w3.org/1999/xlink" version="1.1" width="173.702pt" height="172.749pt" viewBox="0 0 173.702 172.749">
<path transform="matrix(1,0,0,-1,.199,172.54999)" stroke-width="1" stroke-linecap="butt" stroke-miterlimit="10" stroke-linejoin="miter" fill="none" stroke="#000000" d="M 0 80.69696 L 159.4014 80.69696 "/>
<path transform="matrix(1,0,0,-1,159.6004,91.85303)" d="M 1.99252 0 L -1.19551 1.59401 L 0 0 L -1.19551 -1.59401 "/>
<path transform="matrix(1,0,0,-1,.199,172.54999)" stroke-width="1" stroke-linecap="butt" stroke-miterlimit="10" stroke-linejoin="miter" fill="none" stroke="#000000" d="M 80.69696 0 L 80.69696 159.4014 "/>
<path transform="matrix(0,-1,-1,-0,80.89596,13.14859)" d="M 1.99252 0 L -1.19551 1.59401 L 0 0 L -1.19551 -1.59401 "/>
<clipPath id="cp0">
<path transform="matrix(1,0,0,-1,.199,172.54999)" d="M 0 0 L 161.39392 0 L 161.39392 161.39392 L 0 161.39392 Z "/>
</clipPath>
<g clip-path="url(#cp0)">
<path transform="matrix(1,0,0,-1,.199,172.54999)" stroke-width="1" stroke-linecap="butt" stroke-miterlimit="10" stroke-linejoin="miter" fill="none" stroke="#000000" d="M 127.77019 114.3207 L 35.2484 48.23367 "/>
<path transform="matrix(-.81538,.58241,.58241,.81538,35.447404,124.316318)" d="M 1.99252 0 L -1.19551 1.59401 L 0 0 L -1.19551 -1.59401 "/>
<path transform="matrix(1,0,0,-1,.199,172.54999)" stroke-width="1.59404" stroke-linecap="butt" stroke-miterlimit="10" stroke-linejoin="miter" fill="none" stroke="#000080" d="M 33.62373 14.79443 C 33.62373 14.79443 36.45793 22.52652 37.54646 25.32045 C 38.635 28.11438 40.38068 32.39124 41.46921 34.93118 C 42.55775 37.47113 44.30342 41.3407 45.39195 43.62665 C 46.4805 45.9126 48.22617 49.3748 49.31471 51.40675 C 50.40324 53.43872 52.14891 56.49364 53.23744 58.27159 C 54.32597 60.04956 56.07167 62.69716 57.1602 64.22113 C 58.24875 65.7451 59.9944 67.98538 61.08295 69.25536 C 62.17148 70.52533 63.91714 72.35829 65.00569 73.37427 C 66.09422 74.39024 67.8399 75.81592 68.92844 76.57791 C 70.01698 77.33989 71.76265 78.35823 72.85118 78.86621 C 73.93973 79.3742 75.6854 79.98521 76.77394 80.23923 C 77.86247 80.49324 79.60814 80.69695 80.69667 80.69696 C 81.7852 80.69698 83.53088 80.49333 84.61942 80.23936 C 85.70796 79.9854 87.45363 79.37444 88.54216 78.86647 C 89.6307 78.35852 91.37637 77.34024 92.46492 76.5783 C 93.55345 75.81633 95.29913 74.39073 96.38766 73.37479 C 97.4762 72.35884 99.22188 70.52594 100.31041 69.256 C 101.39896 67.98605 103.14462 65.74583 104.23317 64.2219 C 105.3217 62.69795 107.06735 60.05043 108.1559 58.2725 C 109.24443 56.49457 110.99011 53.43971 112.07864 51.40779 C 113.16719 49.37587 114.91286 45.9137 116.00139 43.62779 C 117.08994 41.34187 118.8356 37.47238 119.92415 34.93248 C 121.01268 32.39258 122.75836 28.11575 123.8469 25.32185 C 124.93542 22.52795 127.76964 14.79594 127.76964 14.79594 "/>
<symbol id="font_1_1">
<path d="M .305 .31300003 C .311 .33900003 .334 .43100003 .404 .43100003 C .409 .43100003 .433 .43100003 .454 .418 C .426 .41300003 .40600003 .388 .40600003 .36400003 C .40600003 .34800003 .417 .32900004 .444 .32900004 C .46600003 .32900004 .498 .34700004 .498 .38700003 C .498 .43900005 .439 .45300005 .405 .45300005 C .347 .45300005 .312 .40000005 .3 .37700004 C .275 .44300003 .221 .45300005 .19200002 .45300005 C .08800001 .45300005 .031000002 .32400004 .031000002 .29900003 C .031000002 .28900004 .041 .28900004 .043000007 .28900004 C .051000008 .28900004 .054000006 .291 .056 .3 C .09 .40600003 .156 .43100003 .19000001 .43100003 C .209 .43100003 .244 .42200003 .244 .36400003 C .244 .33300004 .22700002 .26600004 .19000001 .126 C .17400001 .064 .13900002 .022000002 .095000009 .022000002 C .08900001 .022000002 .06600001 .022000002 .045 .035 C .07000001 .040000004 .09200001 .061 .09200001 .089 C .09200001 .116000007 .07000001 .124000009 .055000009 .124000009 C .025 .124000009 0 .098000008 0 .06600001 C 0 .020000002 .050000006 0 .094000007 0 C .16000001 0 .19600001 .07000001 .19900002 .076000008 C .21100001 .039 .24700003 0 .307 0 C .41 0 .467 .12900001 .467 .15400002 C .467 .16400002 .458 .16400002 .455 .16400002 C .446 .16400002 .444 .16000001 .442 .15300001 C .409 .046 .341 .022000002 .30900003 .022000002 C .27 .022000002 .254 .054 .254 .08800001 C .254 .11000001 .26 .13200002 .271 .17600002 L .305 .31300003 Z "/>
</symbol>
<use xlink:href="#font_1_1" transform="matrix(9.9626,0,0,-9.9626,27.901915,129.07657)"/>
<path transform="matrix(1,0,0,-1,.199,172.54999)" stroke-width="1.59404" stroke-linecap="butt" stroke-dasharray="2.98883,2.98883" stroke-miterlimit="10" stroke-linejoin="miter" fill="none" stroke="#000080" d="M 127.77019 13.4495 C 127.77019 13.4495 127.58833 14.08565 127.36581 14.32713 C 127.14331 14.5686 126.60771 14.95471 126.1664 15.18997 C 125.72508 15.42525 124.83755 15.79774 124.18509 16.02277 C 123.53262 16.24779 122.31625 16.60094 121.46379 16.81186 C 120.61131 17.02278 119.0791 17.34981 118.04108 17.54303 C 117.00305 17.73625 115.18805 18.03232 113.98244 18.20454 C 112.77682 18.37677 110.70447 18.63606 109.35184 18.78435 C 107.9992 18.93263 105.7101 19.15154 104.23357 19.2733 C 102.75705 19.39507 100.2852 19.56886 98.70999 19.66206 C 97.13478 19.75526 94.52731 19.88206 92.88045 19.94511 C 91.23358 20.00815 88.5309 20.08467 86.84047 20.11646 C 85.15004 20.14824 82.40175 20.17424 80.69696 20.17424 C 78.99216 20.17424 76.24385 20.14824 74.55342 20.11646 C 72.86299 20.08467 70.16031 20.00815 68.51346 19.94511 C 66.8666 19.88206 64.25912 19.75526 62.6839 19.66206 C 61.10869 19.56886 58.63687 19.39507 57.16034 19.2733 C 55.68382 19.15154 53.3947 18.93263 52.04207 18.78435 C 50.68944 18.63606 48.61708 18.37677 47.41147 18.20454 C 46.20586 18.03232 44.39085 17.73625 43.35283 17.54303 C 42.3148 17.34981 40.78258 17.02278 39.93011 16.81186 C 39.07765 16.60094 37.86128 16.24779 37.20882 16.02277 C 36.55634 15.79774 35.66882 15.42525 35.22751 15.18997 C 34.7862 14.95471 34.2506 14.5686 34.02809 14.32713 C 33.80557 14.08565 33.62373 13.4495 33.62373 13.4495 "/>
<path transform="matrix(1,0,0,-1,.199,172.54999)" stroke-width="1.59404" stroke-linecap="butt" stroke-miterlimit="10" stroke-linejoin="miter" fill="none" stroke="#000080" d="M 33.62373 13.4495 C 33.62373 13.4495 33.80557 12.81331 34.02809 12.57184 C 34.2506 12.33035 34.7862 11.94424 35.22751 11.70898 C 35.66882 11.47371 36.55634 11.10121 37.20882 10.87619 C 37.86128 10.65117 39.07765 10.29803 39.93011 10.08711 C 40.78258 9.87619 42.3148 9.54916 43.35283 9.35593 C 44.39085 9.16269 46.20586 8.86664 47.41147 8.69441 C 48.61708 8.52219 50.68944 8.2629 52.04207 8.11461 C 53.3947 7.96632 55.68382 7.74742 57.16034 7.62566 C 58.63687 7.50389 61.10869 7.3301 62.6839 7.2369 C 64.25912 7.14369 66.8666 7.01689 68.51346 6.95384 C 70.16031 6.89081 72.86299 6.8143 74.55342 6.7825 C 76.24385 6.75072 78.99216 6.72475 80.69696 6.72475 C 82.40175 6.72475 85.15004 6.75072 86.84047 6.7825 C 88.5309 6.8143 91.23358 6.89081 92.88045 6.95384 C 94.52731 7.01689 97.13478 7.14369 98.70999 7.2369 C 100.2852 7.3301 102.75705 7.50389 104.23357 7.62566 C 105.7101 7.74742 107.9992 7.96632 109.35184 8.11461 C 110.70447 8.2629 112.77682 8.52219 113.98244 8.69441 C 115.18805 8.86664 117.00305 9.16269 118.04108 9.35593 C 119.0791 9.54916 120.61131 9.87619 121.46379 10.08711 C 122.31625 10.29803 123.53262 10.65117 124.18509 10.87619 C 124.83755 11.10121 125.72508 11.47371 126.1664 11.70898 C 126.60771 11.94424 127.14331 12.33035 127.36581 12.57184 C 127.58833 12.81331 127.77019 13.4495 127.77019 13.4495 "/>
</g>
<symbol id="font_1_2">
<path d="M .45700003 .586 C .461 .6 .461 .602 .461 .609 C .461 .62700006 .447 .63600006 .432 .63600006 C .42200003 .63600006 .40600003 .63 .397 .615 C .395 .61 .387 .579 .38300003 .561 C .37600003 .535 .36900003 .508 .363 .48100005 L .318 .301 C .314 .286 .271 .21600002 .20500002 .21600002 C .15400002 .21600002 .143 .26000003 .143 .29700003 C .143 .34300003 .16000001 .40500004 .194 .49300004 C .21000001 .53400006 .21400002 .545 .21400002 .56500008 C .21400002 .61 .18200001 .6470001 .13200002 .6470001 C .037 .6470001 0 .50200006 0 .49300004 C 0 .48300005 .01 .48300005 .012 .48300005 C .022000002 .48300005 .023 .485 .028000003 .50100007 C .055000009 .595 .095000009 .625 .12900001 .625 C .13700001 .625 .15400002 .625 .15400002 .59300008 C .15400002 .568 .14400001 .54200008 .13700001 .523 C .097 .41700004 .079 .36 .079 .31300003 C .079 .224 .142 .194 .201 .194 C .24000003 .194 .274 .21100001 .30200003 .23900002 C .289 .187 .277 .13800001 .237 .08500001 C .21100001 .051 .17300001 .022 .127 .022 C .113000009 .022 .068 .025000006 .051000008 .06400001 C .067 .06400001 .080000009 .06400001 .094000007 .076000008 C .104 .08500001 .11400001 .098000008 .11400001 .117000009 C .11400001 .148 .087000008 .15200001 .07700001 .15200001 C .054000006 .15200001 .021 .136 .021 .087000008 C .021 .037 .065000008 0 .127 0 C .23 0 .333 .091000009 .361 .20400001 L .45700003 .586 Z "/>
</symbol>
<use xlink:href="#font_1_2" transform="matrix(9.9626,0,0,-9.9626,165.42792,95.05833)"/>
<symbol id="font_1_3">
<path d="M .09 .094000007 C .14400001 .15200001 .17300001 .17700002 .209 .20800002 C .209 .20900002 .271 .26200003 .307 .298 C .402 .39100004 .424 .43900005 .424 .44300003 C .424 .45300005 .41500003 .45300005 .41300003 .45300005 C .40600003 .45300005 .403 .45100004 .398 .44200004 C .368 .39400003 .347 .37800003 .323 .37800003 C .299 .37800003 .287 .39300005 .272 .41000004 C .253 .43300004 .23600002 .45300005 .20300001 .45300005 C .128 .45300005 .082 .36 .082 .33900003 C .082 .33400003 .08500001 .328 .09400001 .328 C .103000018 .328 .105000007 .33300004 .10700001 .33900003 C .12600002 .38500003 .18400002 .38600005 .19200002 .38600005 C .21300002 .38600005 .23200001 .37900005 .255 .37100003 C .29500003 .35600005 .306 .35600005 .33200003 .35600005 C .296 .31300003 .21200003 .24100001 .19300002 .22500003 L .103000018 .14100002 C .035 .074 0 .017 0 .010000001 C 0 0 .010000002 0 .012000002 0 C .02 0 .022000004 .0020000004 .028 .013000001 C .051000004 .048 .081 .075 .113000009 .075 C .136 .075 .14600002 .06600001 .17100002 .037 C .18800001 .016 .20600002 0 .23500003 0 C .334 0 .39200003 .127 .39200003 .15400002 C .39200003 .15900001 .388 .16400002 .38 .16400002 C .37100003 .16400002 .36900003 .158 .366 .15100001 C .343 .086 .279 .067 .246 .067 C .22600003 .067 .20800002 .07300001 .187 .080000009 C .15300001 .093 .13800001 .097 .11700001 .097 C .11500001 .097 .09900001 .097 .09 .094000007 Z "/>
</symbol>
<use xlink:href="#font_1_3" transform="matrix(9.9626,0,0,-9.9626,78.80239,7.719574)"/>
</svg>
