<?xml version="1.0" encoding="UTF-8" standalone="no"?>
<!DOCTYPE svg PUBLIC "-//W3C//DTD SVG 1.1//EN" "http://www.w3.org/Graphics/SVG/1.1/DTD/svg11.dtd">
<svg xmlns="http://www.w3.org/2000/svg" xmlns:xlink="http://www.w3.org/1999/xlink" version="1.1" width="248.25pt" height="47.04pt" viewBox="0 0 248.25 47.04">
<symbol id="font_0_1">
<path d="M .49 .326 C .38500003 .43800003 .279 .451 .22600001 .451 C .09700001 .451 0 .34800003 0 .22500001 C 0 .108 .092 0 .22300002 0 C .34500004 0 .44700004 .081 .508 .16600001 L .545 .125 C .65000006 .013 .75600007 0 .8090001 0 C .938 0 1.035 .103 1.035 .22600001 C 1.035 .343 .943 .451 .81200006 .451 C .69000008 .451 .58800008 .37 .527 .285 L .49 .326 M .56100007 .24700003 C .61800006 .32500003 .70300009 .40800003 .82100006 .40800003 C .9290001 .40800003 1.002 .32 1.002 .22600001 C 1.002 .12900001 .91800007 .060000004 .82600006 .060000004 C .74700006 .060000004 .67800006 .107 .56100007 .24700003 M .47400005 .20400001 C .41700007 .126 .33200003 .043 .21400002 .043 C .10600001 .043 .033 .13100001 .033 .22500001 C .033 .322 .117000009 .391 .20900002 .391 C .28800003 .391 .35700003 .344 .47400005 .20400001 Z "/>
</symbol>
<use xlink:href="#font_0_1" transform="matrix(5.9776,0,0,-5.9776,6.633916,6.7007787)"/>
<symbol id="font_1_1">
<path d="M 1.245 0 L 1.37 .319 L 1.342 .319 C 1.255 .110000018 .971 .086000088 .75400009 .086000088 L .13300002 .086000088 L .651 .6830001 C .6610001 .69400009 .6610001 .69500008 .6610001 .70000007 C .6610001 .70300009 .6610001 .70500007 .65400007 .71500006 L .176 1.3500002 L .7440001 1.3500002 C .93500009 1.3500002 1.0370001 1.325 1.058 1.32 C 1.197 1.2870001 1.302 1.2120001 1.342 1.1170001 L 1.37 1.1170001 L 1.245 1.4000001 L .029 1.4000001 C .009999998 1.4000001 .0059999974 1.4000001 .0020000004 1.3930001 C 0 1.389 0 1.371 0 1.3590001 L .54 .64000007 L .009999998 .029000044 C 0 .018000007 0 .014999986 0 .013000011 C 0 0 .011 0 .029 0 L 1.245 0 Z "/>
</symbol>
<use xlink:href="#font_1_1" transform="matrix(8.9664,0,0,-8.9664,3.586084,21.883963)"/>
<symbol id="font_2_1">
<path d="M .24100001 .674 C .242 .67800006 .244 .684 .244 .689 C .244 .70500007 .22400002 .704 .212 .703 L .10000001 .694 C .083000008 .693 .07000001 .69200006 .07000001 .66800007 C .07000001 .653 .083000008 .653 .09900001 .653 C .128 .653 .135 .65000006 .148 .646 C .148 .634 .148 .632 .14400001 .616 L .0040000008 .057000005 C 0 .041 0 .036000004 0 .034 C 0 .009000001 .020000004 0 .034999998 0 C .045 0 .06300001 .0040000008 .076000008 .023000002 C .083000008 .036000004 .12300001 .202 .13000001 .23400001 C .19700001 .22900002 .269 .21300002 .269 .15400002 C .269 .14900002 .269 .14400001 .26600004 .133 C .263 .118 .263 .112 .263 .104 C .263 .038000004 .319 0 .376 0 C .473 0 .508 .14600002 .508 .15400002 C .508 .15600002 .507 .16800002 .48900003 .16800002 C .47500003 .16800002 .473 .16200002 .468 .14500001 C .458 .109000008 .43 .033000005 .379 .033000005 C .34100003 .033000005 .34100003 .076 .34100003 .087000008 C .34100003 .103 .34100003 .104 .34600003 .124000009 C .34600003 .125 .351 .14500001 .351 .157 C .351 .23400001 .264 .25800003 .18700002 .26500003 C .21100001 .28 .23200001 .296 .272 .331 C .32200004 .375 .374 .418 .42900003 .418 C .44200004 .418 .454 .41500003 .463 .405 C .42800004 .398 .413 .37 .413 .349 C .413 .317 .439 .31 .453 .31 C .47500003 .31 .51100006 .326 .51100006 .37600003 C .51100006 .419 .47900004 .451 .43 .451 C .36700005 .451 .30800004 .403 .26200003 .363 C .21000003 .31800003 .179 .292 .142 .278 L .24100001 .674 Z "/>
</symbol>
<use xlink:href="#font_2_1" transform="matrix(5.9776,0,0,-5.9776,3.6149607,28.485777)"/>
<symbol id="font_3_3">
<path d="M .739 .23000002 C .753 .23000002 .776 .23000002 .776 .256 C .776 .28200004 .7490001 .28200004 .734 .28200004 L .042000005 .28200004 C .027000003 .28200004 0 .28200004 0 .256 C 0 .23000002 .023000002 .23000002 .037 .23000002 L .739 .23000002 M .734 0 C .7490001 0 .776 0 .776 .026 C .776 .05200001 .753 .05200001 .739 .05200001 L .037 .05200001 C .023000002 .05200001 0 .05200001 0 .026 C 0 0 .027000003 0 .042000005 0 L .734 0 Z "/>
</symbol>
<symbol id="font_3_1">
<path d="M .23800002 .63500007 C .23800002 .665 .23400001 .665 .20400001 .665 C .138 .601 .036 .601 0 .601 L 0 .56200006 C .025999994 .56200006 .09200001 .56200006 .152 .59000006 L .152 .085 C .152 .052 .152 .039 .048999996 .039 L .0059999974 .039 L .0059999974 0 C .061000006 .004 .13900002 .004 .19500001 .004 C .251 .004 .329 .004 .384 0 L .384 .039 L .34100003 .039 C .23800002 .039 .23800002 .052 .23800002 .085 L .23800002 .63500007 Z "/>
</symbol>
<use xlink:href="#font_3_3" transform="matrix(5.9776,0,0,-5.9776,7.6182296,27.774443)"/>
<use xlink:href="#font_3_1" transform="matrix(5.9776,0,0,-5.9776,13.458344,28.426)"/>
<symbol id="font_4_7">
<path d="M 0 .19600001 L 0 .165 L .273 .165 L .273 .079 C .273 .042000005 .27 .031000002 .19500001 .031000002 L .17300001 .031000002 L .17300001 0 C .23600002 .003 .306 .003 .313 .003 C .318 .003 .39000003 .003 .453 0 L .453 .031000002 L .431 .031000002 C .356 .031000002 .35300002 .042000005 .35300002 .079 L .35300002 .165 L .455 .165 L .455 .19600001 L .35300002 .19600001 L .35300002 .65000006 C .35300002 .67 .35300002 .67700007 .334 .67700007 C .322 .67700007 .321 .67600008 .312 .66200008 L 0 .19600001 M .032000007 .19600001 L .279 .56600007 L .279 .19600001 L .032000007 .19600001 Z "/>
</symbol>
<symbol id="font_4_8">
<path d="M .12900001 .47600005 C .09900001 .49500004 .076000008 .522 .076000008 .559 C .076000008 .6240001 .14600002 .66300007 .21200003 .66300007 C .289 .66300007 .351 .609 .351 .53900006 C .351 .46900005 .291 .42300005 .251 .40000005 L .12900001 .47600005 M .276 .38400004 C .326 .40800003 .39900003 .45800004 .39900003 .53900006 C .39900003 .633 .305 .688 .21500002 .688 C .110000018 .688 .028 .61300006 .028 .521 C .028 .48300005 .042 .44700004 .066 .41800005 C .083000008 .39900003 .089 .39500005 .14700002 .35800005 C .059000005 .316 0 .25500003 0 .17300001 C 0 .067 .105000007 0 .21300002 0 C .329 0 .42700003 .082 .42700003 .19000001 C .42700003 .28700004 .35300002 .33500005 .328 .35100005 C .317 .35900004 .28800003 .37700004 .276 .38400004 M .17400001 .34100003 L .3 .263 C .323 .24800001 .373 .216 .373 .155 C .373 .076000008 .293 .028 .214 .028 C .127 .028 .054 .09 .054 .17300001 C .054 .245 .104 .30500005 .17400001 .34100003 Z "/>
</symbol>
<use xlink:href="#font_4_7" transform="matrix(8.9664,0,0,-8.9664,29.845025,12.050003)"/>
<use xlink:href="#font_4_8" transform="matrix(8.9664,0,0,-8.9664,34.579286,12.247264)"/>
<path transform="matrix(1,0,0,-1,19.120999,15.607)" stroke-width="1" stroke-linecap="butt" stroke-miterlimit="10" stroke-linejoin="miter" fill="none" stroke="#000000" d="M 0 0 L 30.144 0 "/>
<symbol id="font_5_2">
<path d="M .232 .671 C .236 .685 .236 .68700006 .236 .691 C .236 .7 .23000002 .705 .22100002 .705 C .20700002 .705 .119 .697 .09900001 .695 C .089 .694 .077999997 .693 .077999997 .676 C .077999997 .663 .089 .663 .105000007 .663 C .15200001 .663 .15200001 .656 .15200001 .647 C .15200001 .643 .15200001 .64100006 .147 .623 L .0040000008 .048 C 0 .034 0 .032 0 .029000003 C 0 .013000001 .013 0 .031 0 C .063999999 0 .070999998 .029000003 .076000008 .049000004 L .122999999 .23800002 C .191 .23200003 .24200002 .20500002 .24200002 .15500002 C .24200002 .14900002 .24200002 .14500001 .239 .13000001 C .238 .126 .23500002 .112 .23500002 .101 C .23500002 .042000005 .27600003 0 .331 0 C .36900003 0 .393 .023000002 .411 .052 C .43600003 .09 .45 .15000002 .45 .15400002 C .45 .15900001 .44700004 .16600001 .437 .16600001 C .42600004 .16600001 .42400003 .16100002 .41900004 .143 C .40600003 .092 .381 .025000003 .33400003 .025000003 C .305 .025000003 .30200003 .051000004 .30200003 .07300001 C .30200003 .098000008 .308 .124000009 .30900003 .126 C .31100003 .13200002 .31300003 .14400001 .31300003 .15600002 C .31300003 .22600001 .24000001 .25300003 .163 .26200003 C .193 .28100003 .215 .30200003 .24700001 .33400003 C .298 .38500003 .34 .42800004 .393 .42800004 C .405 .42800004 .418 .42500005 .42600004 .41600005 C .381 .41200004 .37 .37500004 .37 .36100004 C .37 .34200005 .384 .32500003 .409 .32500003 C .432 .32500003 .46400006 .34300003 .46400006 .38700003 C .46400006 .42000003 .44000004 .45300005 .393 .45300005 C .33200003 .45300005 .28300003 .404 .241 .36100004 C .193 .314 .169 .29000003 .132 .27400003 L .232 .671 Z "/>
</symbol>
<use xlink:href="#font_5_2" transform="matrix(8.9664,0,0,-8.9664,19.614151,24.028632)"/>
<symbol id="font_3_2">
<path d="M .46600006 .187 L .42900006 .187 C .42700003 .17300001 .41700004 .10700001 .40200005 .096 C .395 .09 .314 .09 .3 .09 L .113 .09 L .24100003 .194 C .275 .22100002 .36400003 .28500004 .395 .31500004 C .425 .34500004 .46600006 .39600004 .46600006 .467 C .46600006 .592 .35300002 .665 .21900001 .665 C .089999999 .665 0 .58000007 0 .48600004 C 0 .43500004 .042999999 .42900003 .053999999 .42900003 C .079 .42900003 .108 .44700004 .108 .483 C .108 .505 .095000009 .537 .051 .537 C .07400001 .588 .13500002 .62600007 .20400003 .62600007 C .30900003 .62600007 .365 .54800006 .365 .467 C .365 .39600004 .31800003 .323 .24800003 .259 L .011 .042000005 C .001000002 .032 0 .031000002 0 0 L .43500004 0 L .46600006 .187 Z "/>
</symbol>
<use xlink:href="#font_3_2" transform="matrix(5.9776,0,0,-5.9776,24.612387,21.356)"/>
<symbol id="font_4_3">
<path d="M .64900007 .32100005 C .66300007 .32100005 .6840001 .32100005 .6840001 .342 C .6840001 .36400003 .6650001 .36400003 .64900007 .36400003 L .36400003 .36400003 L .36400003 .65000006 C .36400003 .666 .36400003 .68500009 .342 .68500009 C .321 .68500009 .321 .66400006 .321 .65000006 L .321 .36400003 L .035000005 .36400003 C .020999998 .36400003 0 .36400003 0 .34300003 C 0 .32100005 .019000002 .32100005 .035000005 .32100005 L .321 .32100005 L .321 .035000005 C .321 .019000002 .321 0 .343 0 C .36400003 0 .36400003 .021000006 .36400003 .035000005 L .36400003 .32100005 L .64900007 .32100005 Z "/>
</symbol>
<use xlink:href="#font_4_3" transform="matrix(8.9664,0,0,-8.9664,30.892083,24.75491)"/>
<use xlink:href="#font_4_7" transform="matrix(8.9664,0,0,-8.9664,39.849515,23.93)"/>
<use xlink:href="#font_5_2" transform="matrix(8.9664,0,0,-8.9664,44.69715,24.028632)"/>
<symbol id="font_4_9">
<path d="M .651 .20400003 C .6650001 .20400003 .6840001 .20400003 .6840001 .22500003 C .6840001 .24700001 .66200008 .24700001 .6470001 .24700001 L .037 .24700001 C .022 .24700001 0 .24700001 0 .22500003 C 0 .20400003 .020000004 .20400003 .033 .20400003 L .651 .20400003 M .6470001 0 C .66200008 0 .6840001 0 .6840001 .022 C .6840001 .042999999 .6650001 .042999999 .651 .042999999 L .033 .042999999 C .020000004 .042999999 0 .042999999 0 .022 C 0 0 .022 0 .037 0 L .6470001 0 Z "/>
</symbol>
<use xlink:href="#font_4_9" transform="matrix(8.9664,0,0,-8.9664,53.531084,16.710268)"/>
<use xlink:href="#font_4_7" transform="matrix(8.9664,0,0,-8.9664,81.38102,12.050003)"/>
<use xlink:href="#font_4_8" transform="matrix(8.9664,0,0,-8.9664,86.11527,12.247264)"/>
<path transform="matrix(1,0,0,-1,63.943,15.607)" stroke-width="1" stroke-linecap="butt" stroke-miterlimit="10" stroke-linejoin="miter" fill="none" stroke="#000000" d="M 0 0 L 43.572 0 "/>
<symbol id="font_4_1">
<path d="M .24000001 .011000007 C .24000001 .016000003 .23700002 .019000009 .231 .026000008 C .102000009 .14400001 .063 .324 .063 .499 C .063 .65400007 .093 .84200009 .234 .9760001 C .238 .98 .24000001 .98300006 .24000001 .98800006 C .24000001 .99500009 .23500002 .9990001 .22800002 .9990001 C .21599999 .9990001 .12600002 .92700007 .072000008 .818 C .023999997 .722 0 .619 0 .5 C 0 .42800004 .009000003 .314 .064 .19600001 C .123 .073 .21599999 0 .22800002 0 C .23500002 0 .24000001 .004000008 .24000001 .011000007 Z "/>
</symbol>
<symbol id="font_4_4">
<path d="M .21100003 .63900008 C .21100003 .66400006 .21000001 .666 .18500003 .666 C .123 .60200008 .031000004 .60200008 0 .60200008 L 0 .57100006 C .019000002 .57100006 .080000009 .57100006 .134 .597 L .134 .080000009 C .134 .043 .13100001 .031000002 .03800001 .031000002 L .0060000049 .031000002 L .0060000049 0 C .042000005 .003 .13100001 .003 .17200002 .003 C .21300003 .003 .30300004 .003 .33900003 0 L .33900003 .031000002 L .307 .031000002 C .21400002 .031000002 .21100003 .043 .21100003 .080000009 L .21100003 .63900008 Z "/>
</symbol>
<symbol id="font_4_2">
<path d="M .24000001 .5 C .24000001 .582 .22800002 .69200006 .17600002 .80300006 C .11700001 .92600008 .024 .9990001 .011999998 .9990001 C .0020000004 .9990001 0 .99100008 0 .98800006 C 0 .98300006 .0020000004 .98 .009 .97300007 C .067 .92100009 .17700002 .785 .17700002 .5 C .17700002 .35700003 .15100001 .158 .006000001 .023000002 C .0040000008 .019999996 0 .016000003 0 .011000007 C 0 .008000001 .0020000004 0 .011999998 0 C .024 0 .11400001 .07200001 .16800002 .18100001 C .21600002 .277 .24000001 .38000003 .24000001 .5 Z "/>
</symbol>
<use xlink:href="#font_4_1" transform="matrix(8.9664,0,0,-8.9664,64.84861,26.162634)"/>
<use xlink:href="#font_4_4" transform="matrix(8.9664,0,0,-8.9664,68.36344,23.93)"/>
<use xlink:href="#font_4_2" transform="matrix(8.9664,0,0,-8.9664,72.65834,26.162634)"/>
<use xlink:href="#font_3_2" transform="matrix(5.9776,0,0,-5.9776,76.14839,21.356)"/>
<use xlink:href="#font_4_3" transform="matrix(8.9664,0,0,-8.9664,82.428089,24.75491)"/>
<use xlink:href="#font_4_7" transform="matrix(8.9664,0,0,-8.9664,91.38552,23.93)"/>
<use xlink:href="#font_4_1" transform="matrix(8.9664,0,0,-8.9664,96.63983,26.162634)"/>
<use xlink:href="#font_4_4" transform="matrix(8.9664,0,0,-8.9664,100.15466,23.93)"/>
<use xlink:href="#font_4_2" transform="matrix(8.9664,0,0,-8.9664,104.44956,26.162634)"/>
<use xlink:href="#font_4_3" transform="matrix(8.9664,0,0,-8.9664,111.27009,18.67391)"/>
<use xlink:href="#font_4_7" transform="matrix(8.9664,0,0,-8.9664,138.60803,12.050003)"/>
<use xlink:href="#font_4_8" transform="matrix(8.9664,0,0,-8.9664,143.3423,12.247264)"/>
<path transform="matrix(1,0,0,-1,121.169,15.607)" stroke-width="1" stroke-linecap="butt" stroke-miterlimit="10" stroke-linejoin="miter" fill="none" stroke="#000000" d="M 0 0 L 43.572 0 "/>
<symbol id="font_4_5">
<path d="M .411 .177 L .38300003 .177 C .381 .164 .37300004 .105000007 .36 .089 C .35400004 .080000009 .28500004 .080000009 .26500003 .080000009 L .08700001 .080000009 L .18600002 .17400001 C .35000003 .316 .411 .36900003 .411 .47100003 C .411 .586 .316 .666 .19300002 .666 C .07800001 .666 0 .57500007 0 .48400004 C 0 .43400003 .043 .42900003 .052000006 .42900003 C .074 .42900003 .104 .44500003 .104 .48100005 C .104 .51100006 .083000008 .53300008 .052000006 .53300008 C .047000003 .53300008 .044000005 .53300008 .040000004 .532 C .063999999 .60300007 .128 .63500007 .18200001 .63500007 C .284 .63500007 .319 .54 .319 .47100003 C .319 .36900003 .24200002 .286 .194 .23400001 L .011 .036000004 C 0 .025 0 .023000002 0 0 L .38300003 0 L .411 .177 Z "/>
</symbol>
<use xlink:href="#font_4_1" transform="matrix(8.9664,0,0,-8.9664,122.07461,26.162634)"/>
<use xlink:href="#font_4_5" transform="matrix(8.9664,0,0,-8.9664,125.212848,23.93)"/>
<use xlink:href="#font_4_2" transform="matrix(8.9664,0,0,-8.9664,129.88434,26.162634)"/>
<use xlink:href="#font_3_2" transform="matrix(5.9776,0,0,-5.9776,133.37538,21.356)"/>
<use xlink:href="#font_4_3" transform="matrix(8.9664,0,0,-8.9664,139.65407,24.75491)"/>
<use xlink:href="#font_4_7" transform="matrix(8.9664,0,0,-8.9664,148.61151,23.93)"/>
<use xlink:href="#font_4_1" transform="matrix(8.9664,0,0,-8.9664,153.86583,26.162634)"/>
<use xlink:href="#font_4_5" transform="matrix(8.9664,0,0,-8.9664,157.00408,23.93)"/>
<use xlink:href="#font_4_2" transform="matrix(8.9664,0,0,-8.9664,161.67557,26.162634)"/>
<use xlink:href="#font_4_3" transform="matrix(8.9664,0,0,-8.9664,168.49607,18.67391)"/>
<use xlink:href="#font_4_7" transform="matrix(8.9664,0,0,-8.9664,195.835,12.050003)"/>
<use xlink:href="#font_4_8" transform="matrix(8.9664,0,0,-8.9664,200.56928,12.247264)"/>
<path transform="matrix(1,0,0,-1,178.396,15.607)" stroke-width="1" stroke-linecap="butt" stroke-miterlimit="10" stroke-linejoin="miter" fill="none" stroke="#000000" d="M 0 0 L 43.572 0 "/>
<symbol id="font_4_6">
<path d="M .262 .37400005 C .35500003 .40900005 .39900003 .48200003 .39900003 .55100008 C .39900003 .628 .314 .688 .21000003 .688 C .106000009 .688 .028 .62900009 .028 .55300006 C .028 .52000007 .05 .50100007 .07900001 .50100007 C .10800001 .50100007 .12900001 .522 .12900001 .55100008 C .12900001 .586 .105000007 .6010001 .07100001 .6010001 C .097 .64300009 .158 .66300007 .207 .66300007 C .29 .66300007 .306 .59700009 .306 .55 C .306 .52000007 .3 .47200004 .275 .43400005 C .244 .38900004 .209 .38700003 .18 .38500003 C .15500002 .38300006 .15300001 .38300006 .14500001 .38300006 C .136 .38200004 .128 .38100005 .128 .37000004 C .128 .35700003 .136 .35700003 .15300001 .35700003 L .20000002 .35700003 C .287 .35700003 .32500003 .28700004 .32500003 .192 C .32500003 .064 .257 .028 .20600002 .028 C .187 .028 .09 .033000005 .045000007 .107 C .081 .102000009 .10900001 .127 .10900001 .16100002 C .10900001 .194 .08400001 .215 .055000005 .215 C .030000005 .215 0 .2 0 .158 C 0 .069000009 .09300001 0 .209 0 C .334 0 .42700003 .09 .42700003 .192 C .42700003 .279 .358 .35300005 .262 .37400005 Z "/>
</symbol>
<use xlink:href="#font_4_1" transform="matrix(8.9664,0,0,-8.9664,179.3016,26.162634)"/>
<use xlink:href="#font_4_6" transform="matrix(8.9664,0,0,-8.9664,182.36812,24.12726)"/>
<use xlink:href="#font_4_2" transform="matrix(8.9664,0,0,-8.9664,187.11135,26.162634)"/>
<use xlink:href="#font_3_2" transform="matrix(5.9776,0,0,-5.9776,190.60138,21.356)"/>
<use xlink:href="#font_4_3" transform="matrix(8.9664,0,0,-8.9664,196.88108,24.75491)"/>
<use xlink:href="#font_4_7" transform="matrix(8.9664,0,0,-8.9664,205.83852,23.93)"/>
<use xlink:href="#font_4_1" transform="matrix(8.9664,0,0,-8.9664,211.09284,26.162634)"/>
<use xlink:href="#font_4_6" transform="matrix(8.9664,0,0,-8.9664,214.15935,24.12726)"/>
<use xlink:href="#font_4_2" transform="matrix(8.9664,0,0,-8.9664,218.90258,26.162634)"/>
<use xlink:href="#font_4_3" transform="matrix(8.9664,0,0,-8.9664,225.72307,18.67391)"/>
<symbol id="font_5_1">
<path d="M .108 .054 C .108 .083000008 .085 .108 .053999999 .108 C .023000002 .108 0 .083000008 0 .054 C 0 .025 .023000002 0 .053999999 0 C .085 0 .108 .025 .108 .054 Z "/>
</symbol>
<use xlink:href="#font_5_1" transform="matrix(8.9664,0,0,-8.9664,235.21604,17.849)"/>
<use xlink:href="#font_5_1" transform="matrix(8.9664,0,0,-8.9664,239.31368,17.849)"/>
<use xlink:href="#font_5_1" transform="matrix(8.9664,0,0,-8.9664,243.42029,17.849)"/>
<symbol id="font_1_4">
<path d="M .48600004 .09900001 C .48600004 .12100001 .48600004 .127 .47100003 .127 C .43300004 .128 .32700003 .13000001 .21900001 .18200001 C .114 .23400001 .07 .305 .049000004 .33900003 C .045 .34500004 .04 .34500004 .025 .34500004 C 0 .34500004 0 .344 0 .32000003 C 0 .305 0 .303 .0019999985 .3 C .091 .123 .28300003 0 .46400003 0 C .48600004 0 .48600004 .002 .48600004 .028 L .48600004 .09900001 Z "/>
</symbol>
<use xlink:href="#font_1_4" transform="matrix(8.9664,0,0,-8.9664,119.749828,30.296002)"/>
<path transform="matrix(1,0,0,-1,124.009,30.296002)" d="M 0 0 L 54.532 0 L 54.532 1.136 L 0 1.136 Z "/>
<symbol id="font_1_3">
<path d="M 0 .246 C 0 .224 0 .21800001 .015000001 .21800001 C .056 .21700001 .16000001 .215 .26700003 .163 C .37200005 .111 .41600005 .040000008 .43700005 .0059999974 C .441 0 .44600005 0 .46100004 0 C .48600004 0 .48600004 .001000002 .48600004 .025000006 C .48600004 .040000008 .48600004 .041999997 .48400004 .045 C .395 .222 .20300001 .34500004 .022000002 .34500004 C 0 .34500004 0 .343 0 .31700004 L 0 .246 Z "/>
</symbol>
<symbol id="font_1_2">
<path d="M .48600004 .31700004 C .48600004 .343 .48600004 .34500004 .46400003 .34500004 C .37300004 .34500004 .158 .305 .017 .072 C 0 .045 0 .042999999 0 .025000006 C 0 .001000002 0 0 .025 0 C .042000005 0 .045 0 .05 .008000001 C .126 .13100001 .256 .21400002 .47400005 .21800001 C .48600004 .21800001 .48600004 .22700002 .48600004 .246 L .48600004 .31700004 Z "/>
</symbol>
<use xlink:href="#font_1_3" transform="matrix(8.9664,0,0,-8.9664,178.44237,32.250677)"/>
<use xlink:href="#font_1_2" transform="matrix(8.9664,0,0,-8.9664,182.35172,32.250677)"/>
<path transform="matrix(1,0,0,-1,186.611,30.296002)" d="M 0 0 L 54.532 0 L 54.532 1.136 L 0 1.136 Z "/>
<symbol id="font_1_5">
<path d="M 0 .028 C 0 .002 0 0 .022000002 0 C .113000009 0 .328 .040000004 .46900005 .273 C .48600004 .3 .48600004 .30200003 .48600004 .32000003 C .48600004 .344 .48600004 .34500004 .46100004 .34500004 C .44400005 .34500004 .441 .34500004 .43600003 .337 C .36200003 .21700001 .23500002 .13100001 .012000001 .127 C 0 .127 0 .11800001 0 .09900001 L 0 .028 Z "/>
</symbol>
<use xlink:href="#font_1_5" transform="matrix(8.9664,0,0,-8.9664,241.04537,30.296002)"/>
<symbol id="font_6_2">
<path d="M .40500004 .60700008 C .40900005 .634 .416 .64000007 .42900003 .643 C .439 .646 .46700008 .646 .48700006 .646 C .61500009 .646 .64300009 .625 .64300009 .52500006 C .64300009 .49400003 .64100006 .47300003 .63900008 .45200003 L .66700008 .45200003 L .68500009 .67700007 L .058 .67700007 L 0 .45200003 L .027999998 .45200003 C .07000001 .61300006 .09 .646 .24500002 .646 C .26100005 .646 .286 .646 .292 .64500007 C .311 .643 .31700004 .64000007 .31700004 .624 C .31700004 .62 .31700004 .61800006 .314 .601 L .22700002 .076000008 C .221 .040000004 .20600002 .031000002 .11400001 .031000002 L .075 .031000002 L .07000001 0 C .106000009 .003 .216 .003 .259 .003 C .30200006 .003 .41200007 .003 .448 0 C .44900007 .008 .45200003 .022000002 .453 .031000002 L .41400004 .031000002 C .35800005 .031000002 .315 .031000002 .315 .063 C .315 .065000008 .31600005 .071 .31700004 .076000008 L .40500004 .60700008 Z "/>
</symbol>
<symbol id="font_6_5">
<path d="M .48600004 .30600003 C .488 .316 .48900006 .324 .48900006 .33900003 C .48900006 .41300003 .441 .44200004 .36800004 .44200004 C .277 .44200004 .22300002 .37600003 .20800002 .354 L .20700002 .354 L .26400004 .694 L .11400001 .683 L .10900001 .652 C .16800002 .652 .17900002 .646 .17900002 .619 C .17900002 .614 .17900002 .61200007 .17600002 .595 L .089 .072000008 C .082 .031000002 .067 .031000002 .0050000029 .031000002 C .0040000008 .023000002 .001000002 .009000001 0 0 C .046 .002 .069000009 .003 .11400001 .003 C .16200002 .003 .17500001 .002 .22800002 0 L .23300001 .031000002 C .18300002 .031000002 .16100002 .031000002 .16100002 .057000005 C .16100002 .060000004 .16800002 .098000008 .17100002 .11800001 C .17400001 .13800001 .18500002 .20400001 .19300002 .25 C .21600002 .386 .31700004 .41700004 .36 .41700004 C .397 .41700004 .41700004 .39900003 .41700004 .35200004 C .41700004 .337 .40900005 .28800003 .40300004 .256 C .39800004 .22600001 .37600003 .087000008 .37300004 .07 C .36600004 .031000002 .351 .031000002 .289 .031000002 C .28800003 .023000002 .28500004 .009000001 .284 0 C .33 .002 .35300002 .003 .39800004 .003 C .44600005 .003 .45900003 .002 .512 0 L .517 .031000002 C .46700005 .031000002 .44500003 .031000002 .44500003 .057000005 C .44500003 .060000004 .44500003 .061000006 .448 .07700001 L .48600004 .30600003 Z "/>
</symbol>
<symbol id="font_6_6">
<path d="M .254 .623 C .254 .65000006 .23400001 .67 .20600002 .67 C .17500001 .67 .14500001 .64100006 .14500001 .609 C .14500001 .58500006 .16300002 .56200006 .19300002 .56200006 C .22200002 .56200006 .254 .587 .254 .623 M .09300001 .432 C .07700001 .43100003 .076000008 .43 .074 .423 C .072 .41500003 .07000001 .40600003 .07000001 .4 C .12500002 .4 .13700001 .395 .13700001 .36800004 C .13700001 .36200003 .13700001 .36 .134 .34300003 L .089 .072000008 C .082 .031000002 .067 .031000002 .004999999 .031000002 C .0040000008 .023000002 .0009999983 .009000001 0 0 C .044000005 .002 .066 .003 .111 .003 C .13100001 .003 .16800002 .003 .21700002 0 L .223 .031000002 C .17800002 .031000002 .158 .031000002 .158 .056 C .158 .060000004 .158 .061000006 .16100002 .07700001 L .22200002 .44200004 L .09300001 .432 Z "/>
</symbol>
<symbol id="font_6_9">
<path d="M .381 .43400003 C .38300003 .44300003 .38300003 .44500003 .38300003 .44700004 C .38300003 .45100004 .38000003 .45900003 .37 .45900003 C .36400003 .45900003 .343 .44200004 .33 .43100003 C .296 .45900003 .252 .45900003 .238 .45900003 C .092 .45900003 .053000004 .37000004 .053000004 .32000003 C .053000004 .23500002 .15 .21600002 .18 .21100001 C .24599999 .19800002 .303 .18700002 .303 .127 C .303 .126 .303 .025000003 .17000002 .025000003 C .095000009 .025000003 .061000006 .071 .055 .15600002 C .054000006 .17400001 .053000004 .18000002 .04 .18000002 C .030000002 .18000002 .027000003 .17600002 .024 .15900001 L 0 .013000001 C 0 .0060000007 .0040000008 0 .012000002 0 C .018 0 .019000002 .0010000002 .039000006 .021000002 C .045 .026 .059 .039 .064 .044 C .09600001 .0060000007 .137 0 .17000002 0 C .323 0 .359 .108 .359 .158 C .359 .19300002 .347 .21800003 .321 .24200002 C .294 .26900003 .259 .275 .20700002 .28500004 C .16600001 .293 .109000008 .30400003 .109000008 .35200004 C .109000008 .381 .13300002 .43700005 .238 .43700005 C .308 .43700005 .336 .40100003 .336 .34900005 C .336 .335 .33400003 .32900004 .33400003 .32400004 C .33400003 .31200005 .343 .31100003 .34800003 .31100003 C .361 .31100003 .36200003 .31900005 .36400003 .33200003 L .381 .43400003 Z "/>
</symbol>
<symbol id="font_6_a">
<path d="M .16100002 .411 L .30600003 .411 C .30800004 .42100004 .30900003 .43200005 .31100003 .44200004 L .16600001 .44200004 L .19600001 .626 L .16800002 .626 C .15400002 .541 .1 .43900005 .0040000008 .43600003 C .002000004 .42600004 .001000002 .42000003 0 .411 L .086 .411 L .041 .13900002 C .038000004 .12100001 .038000004 .117000009 .038000004 .106000009 C .038000004 .016 .11100001 0 .15400002 0 C .20400003 0 .23300001 .033000005 .24900002 .058000003 C .27 .092 .272 .106000009 .286 .19200002 L .25800003 .19200002 C .24700001 .126 .24500004 .11000001 .23400003 .086 C .21600002 .049000004 .19000003 .028 .162 .028 C .11100001 .028 .11100001 .082 .11100001 .095000009 C .11100001 .10300001 .11100001 .111 .114 .12900001 L .16100002 .411 Z "/>
</symbol>
<symbol id="font_6_4">
<path d="M .37800003 .24000003 C .402 .24000003 .41000004 .24000003 .41000004 .30300004 C .41000004 .41700004 .33400003 .45900003 .254 .45900003 C .117 .45900003 0 .32700003 0 .19400002 C 0 .081 .08499999 0 .194 0 C .32000003 0 .38500003 .113000009 .38500003 .13000001 C .38500003 .13700001 .38000003 .143 .37100003 .143 C .36200003 .143 .36 .13800001 .356 .13100001 C .317 .053000004 .245 .028 .20000002 .028 C .14500001 .028 .083000008 .065000008 .083000008 .16500002 C .083000008 .18500002 .087 .22000002 .091000009 .24000003 L .37800003 .24000003 M .096 .26400004 C .128 .404 .213 .43400003 .25300003 .43400003 C .32700003 .43400003 .344 .367 .344 .31700004 C .344 .291 .33900003 .26500003 .33900003 .26400004 L .096 .26400004 Z "/>
</symbol>
<symbol id="font_6_b">
<path d="M .44200004 .45300005 L .28900004 .44200004 L .284 .411 C .34300003 .411 .35400004 .40500004 .35400004 .37800003 C .35400004 .37100003 .34800003 .337 .34500004 .316 L .32400004 .19000001 C .30100004 .057000005 .22100002 .025000003 .17200002 .025000003 C .102000009 .025000003 .098 .057000005 .098 .080000009 C .098 .092 .1 .104 .102000009 .116000007 L .15800002 .45300005 L .0050000029 .44200004 L 0 .411 C .059000009 .411 .07 .40500004 .07 .37800003 C .07 .36400003 .037000009 .17500001 .031999999 .14400001 C .028000005 .12200001 .028000005 .120000008 .028000005 .105000007 C .028000005 .029000003 .08100001 0 .16600001 0 C .24400002 0 .28900004 .052 .30800004 .081 L .30900003 .081 L .29500003 0 L .44500006 .011000001 C .44700004 .021000002 .448 .032 .45000006 .042000005 C .38900004 .042000005 .38000003 .049000004 .38000003 .075 C .38000003 .081 .38000003 .083000008 .38300003 .1 L .44200004 .45300005 Z "/>
</symbol>
<symbol id="font_6_7">
<path d="M .772 .30600003 C .774 .316 .77500006 .324 .77500006 .33900003 C .77500006 .41500003 .725 .44200004 .653 .44200004 C .555 .44200004 .5 .36400003 .49000005 .34800003 C .48600004 .43400003 .40900005 .44200004 .36800004 .44200004 C .27100004 .44200004 .21700001 .367 .20400001 .347 L .20300001 .347 L .21900001 .44200004 L .07200001 .43100003 L .067 .4 C .12600002 .4 .13700001 .39400003 .13700001 .367 C .13700001 .36200003 .13700001 .36 .13400002 .34300003 L .089 .072000008 C .082 .031000002 .067 .031000002 .0050000029 .031000002 C .0040000008 .023000002 .001000002 .009000001 0 0 C .046 .002 .069000009 .003 .11400001 .003 C .16200002 .003 .17500001 .002 .22800002 0 L .23300001 .031000002 C .18300002 .031000002 .16100002 .031000002 .16100002 .057000005 C .16100002 .060000004 .16800002 .098000008 .17100002 .11800001 C .17400001 .13800001 .18500002 .20400001 .19300002 .25 C .21600002 .386 .31700004 .41700004 .36100004 .41700004 C .39600004 .41700004 .418 .4 .418 .35200004 C .418 .344 .41700004 .337 .41600005 .32900004 L .374 .072000008 C .367 .031000002 .35200004 .031000002 .29000003 .031000002 C .289 .023000002 .286 .009000001 .28500004 0 C .33100004 .002 .35400004 .003 .39900003 .003 C .44700004 .003 .46000005 .002 .513 0 L .518 .031000002 C .46800003 .031000002 .44600005 .031000002 .44600005 .057000005 C .44600005 .060000004 .45300005 .098000008 .45600004 .11800001 C .45900003 .13800001 .47 .20400001 .47800002 .25 C .501 .386 .602 .41700004 .646 .41700004 C .681 .41700004 .703 .4 .703 .35200004 C .703 .344 .702 .337 .70100006 .32900004 L .659 .072000008 C .652 .031000002 .637 .031000002 .575 .031000002 C .574 .023000002 .571 .009000001 .57 0 C .616 .002 .639 .003 .684 .003 C .732 .003 .745 .002 .79800006 0 L .80300006 .031000002 C .753 .031000002 .731 .031000002 .731 .057000005 C .731 .060000004 .731 .061000006 .734 .07700001 L .772 .30600003 Z "/>
</symbol>
<symbol id="font_6_c">
<path d="M .607 .34500004 C .637 .40200005 .672 .41000004 .702 .411 C .703 .41900004 .70600005 .43300004 .707 .44200004 C .67300006 .43900005 .653 .43900005 .631 .43900005 C .623 .43900005 .578 .43900005 .541 .44200004 L .535 .41200004 C .539 .41200004 .584 .40900005 .584 .37100003 C .584 .35900004 .582 .35500003 .575 .34200005 L .441 .09 L .38700003 .35600005 C .38400004 .36900003 .38400004 .37100003 .38400004 .37900005 C .38400004 .411 .42600004 .411 .446 .411 C .44800005 .42100004 .44900004 .43200005 .451 .44200004 C .41300003 .44000004 .38500003 .43900005 .34700004 .43900005 C .34600003 .43900005 .28800003 .43900005 .25700004 .44200004 L .25100003 .411 C .27500005 .411 .3 .411 .30900003 .39900003 C .316 .39000003 .32400004 .35300002 .32400004 .34300003 C .32400004 .33900003 .32000003 .33200003 .31900005 .33 L .19700003 .10300001 L .146 .358 C .143 .37100003 .143 .37300004 .143 .37900005 C .143 .411 .18600002 .411 .20600003 .411 L .21100003 .44200004 C .16300002 .44000004 .14200002 .43900005 .101 .43900005 C .06800001 .43900005 .04 .43900005 .0060000049 .44200004 L 0 .411 C .055 .411 .060999998 .40600003 .06800001 .37200005 L .13800001 .024 C .141 .0070000009 .143 0 .15800002 0 C .17000002 0 .17600003 .0070000009 .18200001 .018000002 L .33300004 .30100004 L .38900004 .023000002 C .39200003 .0070000009 .39400003 0 .40800003 0 C .42200003 0 .42600004 .0070000009 .43300007 .020000002 L .607 .34500004 Z "/>
</symbol>
<symbol id="font_6_3">
<path d="M .44500003 .15600002 C .439 .11800001 .43500004 .091000009 .43300004 .08400001 C .42800004 .065000008 .41300003 .040000004 .39000003 .040000004 C .36200003 .040000004 .36100004 .074 .36100004 .079 C .36100004 .087000008 .36800004 .127 .372 .14700002 C .379 .18400002 .40100003 .30300004 .40100003 .33300004 C .40100003 .40300004 .337 .45900003 .24200002 .45900003 C .13700001 .45900003 .07100001 .39900003 .07100001 .34500004 C .07100001 .321 .08700001 .305 .113000009 .305 C .14000002 .305 .165 .32700003 .165 .358 C .165 .39100004 .135 .397 .12900001 .39800004 C .17000002 .43200005 .229 .43400003 .23900002 .43400003 C .30600003 .43400003 .328 .37900005 .328 .33900003 C .328 .33300004 .328 .33100004 .319 .275 C .268 .27300004 .19000001 .26900003 .11700001 .23700002 C .017 .19200002 0 .124000009 0 .095000009 C 0 .027000003 .081000018 0 .14900002 0 C .23300001 0 .28000004 .057000005 .296 .082 C .296 .016 .33800004 .005000001 .36 .005000001 C .39300005 .005000001 .451 .027000003 .46300004 .096 C .465 .107 .47 .136 .47300003 .15600002 L .44500003 .15600002 M .31500004 .25100003 C .30800004 .21100001 .30400003 .16700001 .29400004 .13100001 C .27600003 .068 .21400002 .025000003 .157 .025000003 C .113000009 .025000003 .08000001 .053000004 .08000001 .094000007 C .08000001 .097 .08000001 .23900002 .31500004 .25100003 Z "/>
</symbol>
<symbol id="font_6_8">
<path d="M .48600004 .30600003 C .488 .316 .48900006 .324 .48900006 .33900003 C .48900006 .41300003 .441 .44200004 .36800004 .44200004 C .29000003 .44200004 .23400003 .39400003 .20400001 .347 L .20300001 .347 L .21900001 .44200004 L .07200001 .43100003 L .067 .4 C .12600002 .4 .13700001 .39400003 .13700001 .367 C .13700001 .36200003 .13700001 .36 .13400002 .34300003 L .089 .072000008 C .082 .031000002 .067 .031000002 .0050000029 .031000002 C .0040000008 .023000002 .001000002 .009000001 0 0 C .046 .002 .069000009 .003 .11400001 .003 C .16200002 .003 .17500001 .002 .22800002 0 L .23300001 .031000002 C .18300002 .031000002 .16100002 .031000002 .16100002 .057000005 C .16100002 .060000004 .16800002 .098000008 .17100002 .11800001 C .17400001 .13800001 .18500002 .20400001 .19300002 .25 C .21600002 .386 .31700004 .41700004 .36 .41700004 C .397 .41700004 .41700004 .39900003 .41700004 .35200004 C .41700004 .337 .40900005 .28800003 .40300004 .256 C .39800004 .22600001 .37600003 .087000008 .37300004 .07 C .36600004 .031000002 .351 .031000002 .289 .031000002 C .28800003 .023000002 .28500004 .009000001 .284 0 C .33 .002 .35300002 .003 .39800004 .003 C .44600005 .003 .45900003 .002 .512 0 L .517 .031000002 C .46700005 .031000002 .44500003 .031000002 .44500003 .057000005 C .44500003 .060000004 .44500003 .061000006 .448 .07700001 L .48600004 .30600003 Z "/>
</symbol>
<symbol id="font_6_1">
<path d="M .20800002 .651 C .209 .65500006 .21200003 .666 .21200003 .671 C .21200003 .694 .193 .716 .163 .716 C .15900003 .716 .10700001 .716 .10200001 .65400007 L .066 .215 L .066 .208 C .066 .20700002 .067 .20300001 .066 .202 C .06500001 .19900002 .06500001 .18900001 .07900001 .18900001 C .09 .18900001 .09200001 .19100002 .096 .208 L .20800002 .651 M .110000018 .060000004 C .110000018 .085 .09300001 .108 .061000006 .108 C .027000003 .108 0 .076000008 0 .048 C 0 .023000002 .017000005 0 .04900001 0 C .083000008 0 .110000018 .032 .110000018 .060000004 Z "/>
</symbol>
<use xlink:href="#font_6_2" transform="matrix(8.9664,0,0,-8.9664,119.84724,43.969)"/>
<use xlink:href="#font_6_5" transform="matrix(8.9664,0,0,-8.9664,125.8099,43.969)"/>
<use xlink:href="#font_6_6" transform="matrix(8.9664,0,0,-8.9664,130.93868,43.969)"/>
<use xlink:href="#font_6_9" transform="matrix(8.9664,0,0,-8.9664,133.48514,44.06763)"/>
<use xlink:href="#font_6_6" transform="matrix(8.9664,0,0,-8.9664,140.20098,43.969)"/>
<use xlink:href="#font_6_9" transform="matrix(8.9664,0,0,-8.9664,142.74744,44.06763)"/>
<use xlink:href="#font_6_a" transform="matrix(8.9664,0,0,-8.9664,149.92055,44.06763)"/>
<use xlink:href="#font_6_5" transform="matrix(8.9664,0,0,-8.9664,153.04984,43.969)"/>
<use xlink:href="#font_6_4" transform="matrix(8.9664,0,0,-8.9664,158.41175,44.06763)"/>
<use xlink:href="#font_6_9" transform="matrix(8.9664,0,0,-8.9664,165.33379,44.06763)"/>
<use xlink:href="#font_6_b" transform="matrix(8.9664,0,0,-8.9664,169.57489,44.06763)"/>
<use xlink:href="#font_6_7" transform="matrix(8.9664,0,0,-8.9664,174.09397,43.969)"/>
<use xlink:href="#font_6_c" transform="matrix(8.9664,0,0,-8.9664,185.30196,44.06763)"/>
<use xlink:href="#font_6_4" transform="matrix(8.9664,0,0,-8.9664,191.4888,44.06763)"/>
<use xlink:href="#font_6_c" transform="matrix(8.9664,0,0,-8.9664,198.86814,44.06763)"/>
<use xlink:href="#font_6_3" transform="matrix(8.9664,0,0,-8.9664,205.0191,44.06763)"/>
<use xlink:href="#font_6_8" transform="matrix(8.9664,0,0,-8.9664,209.42162,43.969)"/>
<use xlink:href="#font_6_a" transform="matrix(8.9664,0,0,-8.9664,214.73868,44.06763)"/>
<use xlink:href="#font_6_1" transform="matrix(8.9664,0,0,-8.9664,218.41492,43.969)"/>
</svg>
