<?xml version="1.0" encoding="UTF-8" standalone="no"?>
<!DOCTYPE svg PUBLIC "-//W3C//DTD SVG 1.1//EN" "http://www.w3.org/Graphics/SVG/1.1/DTD/svg11.dtd">
<svg xmlns="http://www.w3.org/2000/svg" xmlns:xlink="http://www.w3.org/1999/xlink" version="1.1" width="207.036pt" height="174.683pt" viewBox="0 0 207.036 174.683">
<path transform="matrix(1,0,0,-1,.199,174.484)" stroke-width="1" stroke-linecap="butt" stroke-miterlimit="10" stroke-linejoin="miter" fill="none" stroke="#808080" d="M 27.75333 78.57089 L 27.75333 82.82301 M 62.445 78.57089 L 62.445 82.82301 M 131.82836 78.57089 L 131.82836 82.82301 M 166.52004 78.57089 L 166.52004 82.82301 "/>
<path transform="matrix(1,0,0,-1,.199,174.484)" stroke-width="1" stroke-linecap="butt" stroke-miterlimit="10" stroke-linejoin="miter" fill="none" stroke="#808080" d="M 95.01076 13.4495 L 99.26259 13.4495 M 95.01076 47.07323 L 99.26259 47.07323 M 95.01076 114.3207 L 99.26259 114.3207 M 95.01076 147.94443 L 99.26259 147.94443 "/>
<path transform="matrix(1,0,0,-1,.199,174.484)" stroke-width="1" stroke-linecap="butt" stroke-miterlimit="10" stroke-linejoin="miter" fill="none" stroke="#000000" d="M 0 80.69696 L 192.28086 80.69696 "/>
<path transform="matrix(1,0,0,-1,192.47986,93.78703)" d="M 1.99252 0 L -1.19551 1.59401 L 0 0 L -1.19551 -1.59401 "/>
<path transform="matrix(1,0,0,-1,.199,174.484)" stroke-width="1" stroke-linecap="butt" stroke-miterlimit="10" stroke-linejoin="miter" fill="none" stroke="#000000" d="M 97.13669 0 L 97.13669 159.4014 "/>
<path transform="matrix(0,-1,-1,-0,97.335689,15.082596)" d="M 1.99252 0 L -1.19551 1.59401 L 0 0 L -1.19551 -1.59401 "/>
<symbol id="font_0_1">
<path d="M .57600006 0 C .59300008 0 .611 0 .611 .019999996 C .611 .040000008 .59300008 .040000008 .57600006 .040000008 L .035000005 .040000008 C .018 .040000008 0 .040000008 0 .019999996 C 0 0 .018 0 .035000005 0 L .57600006 0 Z "/>
</symbol>
<use xlink:href="#font_0_1" transform="matrix(9.9626,0,0,-9.9626,22.413897,103.5626)"/>
<symbol id="font_1_2">
<path d="M .205 .64000007 C .205 .66400006 .205 .666 .18200003 .666 C .120000008 .60200008 .032000007 .60200008 0 .60200008 L 0 .57100006 C .020000004 .57100006 .07900001 .57100006 .13100001 .597 L .13100001 .079 C .13100001 .043 .128 .031000002 .038000004 .031000002 L .0060000049 .031000002 L .0060000049 0 C .04100001 .003 .128 .003 .168 .003 C .20800002 .003 .29500003 .003 .33000005 0 L .33000005 .031000002 L .29800005 .031000002 C .20800002 .031000002 .205 .042000005 .205 .079 L .205 .64000007 Z "/>
</symbol>
<use xlink:href="#font_1_2" transform="matrix(9.9626,0,0,-9.9626,30.222672,105.854)"/>
<use xlink:href="#font_0_1" transform="matrix(9.9626,0,0,-9.9626,53.2309,103.5626)"/>
<symbol id="font_1_1">
<path d="M .421 .34200005 C .421 .42200003 .416 .50200006 .381 .57600006 C .335 .67200008 .25300003 .688 .211 .688 C .15100001 .688 .07800001 .66200008 .037000006 .56900009 C .0050000029 .5 0 .42200003 0 .34200005 C 0 .26700003 .0040000008 .177 .045000007 .101 C .088 .020000002 .161 0 .21000001 0 C .264 0 .34 .021000002 .384 .116000007 C .416 .185 .421 .263 .421 .34200005 M .21000001 .022000002 C .171 .022000002 .112 .047000003 .094 .143 C .083000008 .20300001 .083000008 .29500003 .083000008 .35400004 C .083000008 .41800005 .083000008 .48400004 .091000009 .53800007 C .11 .65700009 .185 .66600009 .21000001 .66600009 C .243 .66600009 .30900003 .64800009 .328 .549 C .338 .49300004 .338 .41700004 .338 .35400004 C .338 .279 .338 .21100001 .32700003 .147 C .312 .052 .255 .022000002 .21000001 .022000002 Z "/>
</symbol>
<use xlink:href="#font_1_1" transform="matrix(9.9626,0,0,-9.9626,60.541547,106.07317)"/>
<symbol id="font_2_1">
<path d="M .106 .053000004 C .106 .082 .08200001 .106000009 .05300001 .106000009 C .024000004 .106000009 0 .082 0 .053000004 C 0 .024 .024000004 0 .05300001 0 C .08200001 0 .106 .024 .106 .053000004 Z "/>
</symbol>
<use xlink:href="#font_2_1" transform="matrix(9.9626,0,0,-9.9626,65.99078,105.854)"/>
<symbol id="font_1_3">
<path d="M .39900003 .223 C .39900003 .34200005 .317 .44200004 .209 .44200004 C .16100002 .44200004 .118000019 .42600004 .082 .39100004 L .082 .586 C .10200001 .58000007 .135 .573 .16700001 .573 C .29 .573 .36 .66400006 .36 .67700007 C .36 .683 .357 .688 .35 .688 C .349 .688 .347 .688 .342 .68500009 C .322 .67600008 .273 .656 .20600002 .656 C .16600001 .656 .120000008 .66300007 .073 .6840001 C .065 .68700006 .06300001 .68700006 .061000009 .68700006 C .051000004 .68700006 .051000004 .679 .051000004 .66300007 L .051000004 .36700005 C .051000004 .34900005 .051000004 .34100003 .065 .34100003 C .07200001 .34100003 .074 .34400005 .07800001 .35000003 C .08900002 .36600004 .12600002 .42000006 .207 .42000006 C .259 .42000006 .284 .37400005 .292 .35600005 C .308 .31900005 .31 .28000004 .31 .23 C .31 .19500001 .31 .135 .286 .093 C .262 .054000006 .22500001 .028 .17900002 .028 C .106000009 .028 .049000008 .08100001 .032 .14000002 C .035 .13900002 .038000008 .13800001 .049000008 .13800001 C .082 .13800001 .09900001 .163 .09900001 .187 C .09900001 .21100001 .082 .23600002 .049000008 .23600002 C .035 .23600002 0 .22900002 0 .18300002 C 0 .097 .069000009 0 .18100001 0 C .297 0 .39900003 .096 .39900003 .223 Z "/>
</symbol>
<use xlink:href="#font_1_3" transform="matrix(9.9626,0,0,-9.9626,68.40014,106.07317)"/>
<use xlink:href="#font_1_1" transform="matrix(9.9626,0,0,-9.9626,126.04954,106.07317)"/>
<use xlink:href="#font_2_1" transform="matrix(9.9626,0,0,-9.9626,131.49878,105.854)"/>
<use xlink:href="#font_1_3" transform="matrix(9.9626,0,0,-9.9626,133.90813,106.07317)"/>
<use xlink:href="#font_1_2" transform="matrix(9.9626,0,0,-9.9626,165.11267,105.854)"/>
<use xlink:href="#font_0_1" transform="matrix(9.9626,0,0,-9.9626,79.7859,161.53859)"/>
<use xlink:href="#font_1_2" transform="matrix(9.9626,0,0,-9.9626,87.59467,163.82999)"/>
<use xlink:href="#font_0_1" transform="matrix(9.9626,0,0,-9.9626,72.036899,127.9146)"/>
<use xlink:href="#font_1_1" transform="matrix(9.9626,0,0,-9.9626,79.34754,130.42517)"/>
<use xlink:href="#font_2_1" transform="matrix(9.9626,0,0,-9.9626,84.79678,130.206)"/>
<use xlink:href="#font_1_3" transform="matrix(9.9626,0,0,-9.9626,87.20613,130.42517)"/>
<use xlink:href="#font_1_1" transform="matrix(9.9626,0,0,-9.9626,79.34754,63.594163)"/>
<use xlink:href="#font_2_1" transform="matrix(9.9626,0,0,-9.9626,84.79678,63.374986)"/>
<use xlink:href="#font_1_3" transform="matrix(9.9626,0,0,-9.9626,87.20613,63.594163)"/>
<use xlink:href="#font_1_2" transform="matrix(9.9626,0,0,-9.9626,87.59467,29.750992)"/>
<clipPath id="cp3">
<path transform="matrix(1,0,0,-1,.199,174.484)" d="M 0 0 L 194.27338 0 L 194.27338 161.39392 L 0 161.39392 Z "/>
</clipPath>
<g clip-path="url(#cp3)">
<path transform="matrix(1,0,0,-1,.199,174.484)" stroke-width="1.59404" stroke-linecap="butt" stroke-miterlimit="10" stroke-linejoin="miter" fill="none" stroke="#000080" d="M 145.01116 20.37602 C 145.01116 20.37602 131.25368 40.41943 126.28252 47.03397 C 121.31137 53.6485 113.70175 62.92914 109.18251 68.04897 C 104.66328 73.16881 97.77834 80.16667 93.71103 83.93414 C 89.6437 87.70161 83.48347 92.64493 79.86809 95.20238 C 76.25269 97.75984 70.81721 100.87683 67.65373 102.36664 C 64.49026 103.85645 59.77953 105.37543 57.06798 105.93994 C 54.35643 106.50444 50.37039 106.6537 48.11078 106.43527 C 45.85115 106.21686 42.58984 105.22467 40.78214 104.36565 C 38.97444 103.50662 36.43785 101.6013 35.08208 100.24405 C 33.72632 98.88678 31.91443 96.29657 31.01059 94.58344 C 30.10674 92.87029 29.01959 89.82353 28.56767 87.89685 C 28.11575 85.97015 27.75334 82.69508 27.75333 80.69724 C 27.75331 78.69937 28.11566 75.42427 28.56755 73.49759 C 29.01944 71.5709 30.10652 68.52411 31.01035 66.81094 C 31.91415 65.09776 33.72598 62.50754 35.08173 61.15024 C 36.43747 59.79294 38.97398 57.88756 40.78166 57.0285 C 42.58932 56.16943 45.85057 55.17715 48.11017 54.95868 C 50.36975 54.74022 54.35573 54.88937 57.06725 55.45383 C 59.77876 56.01828 64.48946 57.53714 67.6529 59.02687 C 70.81631 60.5166 76.25177 63.63347 79.86711 66.19086 C 83.48247 68.74823 89.64264 73.69138 93.7099 77.45872 C 97.77716 81.22607 104.66194 88.22357 109.18115 93.34332 C 113.70036 98.46306 121.3101 107.74382 126.28127 114.35829 C 131.25241 120.97276 145.00977 141.01583 145.00977 141.01583 "/>
<path transform="matrix(1,0,0,-1,.199,174.484)" stroke-width="1.59404" stroke-linecap="butt" stroke-miterlimit="10" stroke-linejoin="miter" fill="none" stroke="#800080" d="M 27.75333 147.94443 C 27.75333 147.94443 31.9308 143.89557 33.53525 142.3405 C 35.1397 140.78542 37.7127 138.29161 39.31717 136.73654 C 40.92163 135.18148 43.49464 132.68769 45.0991 131.13262 C 46.70357 129.57753 49.27657 127.08374 50.88103 125.52867 C 52.48549 123.9736 55.0585 121.47981 56.66296 119.92474 C 58.26743 118.36966 60.84044 115.87585 62.4449 114.32079 C 64.04936 112.76572 66.62236 110.27193 68.22682 108.71684 C 69.83128 107.16177 72.4043 104.66797 74.00876 103.1129 C 75.61322 101.55783 78.18623 99.06404 79.7907 97.50896 C 81.39516 95.95389 83.96815 93.4601 85.57262 91.90503 C 87.17708 90.34996 89.75009 87.85616 91.35455 86.30109 C 92.95901 84.74602 95.53201 82.25221 97.13647 80.69714 C 98.74094 79.14207 101.31395 76.64827 102.91841 75.0932 C 104.52287 73.53813 107.09587 71.04433 108.70033 69.48926 C 110.30481 67.93419 112.87779 65.4404 114.48225 63.88533 C 116.08672 62.33026 118.65973 59.83646 120.26419 58.28139 C 121.86865 56.72632 124.44165 54.23251 126.04611 52.67744 C 127.65057 51.12238 130.22359 48.62857 131.82805 47.0735 C 133.43251 45.51842 136.00551 43.02464 137.60997 41.46957 C 139.21443 39.9145 141.78745 37.4207 143.3919 35.86563 C 144.99637 34.31055 147.56938 31.81676 149.17385 30.26169 C 150.7783 28.70662 153.3513 26.21281 154.95577 24.65775 C 156.56023 23.10266 159.13324 20.60887 160.7377 19.0538 C 162.34217 17.49873 166.51964 13.44984 166.51964 13.44984 "/>
</g>
<symbol id="font_2_2">
<path d="M .305 .31300003 C .311 .33900003 .334 .43100003 .404 .43100003 C .409 .43100003 .433 .43100003 .454 .418 C .426 .41300003 .40600003 .388 .40600003 .36400003 C .40600003 .34800003 .417 .32900004 .444 .32900004 C .46600003 .32900004 .498 .34700004 .498 .38700003 C .498 .43900005 .439 .45300005 .405 .45300005 C .347 .45300005 .312 .40000005 .3 .37700004 C .275 .44300003 .221 .45300005 .19200002 .45300005 C .08800001 .45300005 .031000002 .32400004 .031000002 .29900003 C .031000002 .28900004 .041 .28900004 .043000007 .28900004 C .051000008 .28900004 .054000006 .291 .056 .3 C .09 .40600003 .156 .43100003 .19000001 .43100003 C .209 .43100003 .244 .42200003 .244 .36400003 C .244 .33300004 .22700002 .26600004 .19000001 .126 C .17400001 .064 .13900002 .022000002 .095000009 .022000002 C .08900001 .022000002 .06600001 .022000002 .045 .035 C .07000001 .040000004 .09200001 .061 .09200001 .089 C .09200001 .116000007 .07000001 .124000009 .055000009 .124000009 C .025 .124000009 0 .098000008 0 .06600001 C 0 .020000002 .050000006 0 .094000007 0 C .16000001 0 .19600001 .07000001 .19900002 .076000008 C .21100001 .039 .24700003 0 .307 0 C .41 0 .467 .12900001 .467 .15400002 C .467 .16400002 .458 .16400002 .455 .16400002 C .446 .16400002 .444 .16000001 .442 .15300001 C .409 .046 .341 .022000002 .30900003 .022000002 C .27 .022000002 .254 .054 .254 .08800001 C .254 .11000001 .26 .13200002 .271 .17600002 L .305 .31300003 Z "/>
</symbol>
<use xlink:href="#font_2_2" transform="matrix(9.9626,0,0,-9.9626,198.30992,96.02957)"/>
<symbol id="font_2_3">
<path d="M .45700003 .586 C .461 .6 .461 .602 .461 .609 C .461 .62700006 .447 .63600006 .432 .63600006 C .42200003 .63600006 .40600003 .63 .397 .615 C .395 .61 .387 .579 .38300003 .561 C .37600003 .535 .36900003 .508 .363 .48100005 L .318 .301 C .314 .286 .271 .21600002 .20500002 .21600002 C .15400002 .21600002 .143 .26000003 .143 .29700003 C .143 .34300003 .16000001 .40500004 .194 .49300004 C .21000001 .53400006 .21400002 .545 .21400002 .56500008 C .21400002 .61 .18200001 .6470001 .13200002 .6470001 C .037 .6470001 0 .50200006 0 .49300004 C 0 .48300005 .01 .48300005 .012 .48300005 C .022000002 .48300005 .023 .485 .028000003 .50100007 C .055000009 .595 .095000009 .625 .12900001 .625 C .13700001 .625 .15400002 .625 .15400002 .59300008 C .15400002 .568 .14400001 .54200008 .13700001 .523 C .097 .41700004 .079 .36 .079 .31300003 C .079 .224 .142 .194 .201 .194 C .24000003 .194 .274 .21100001 .30200003 .23900002 C .289 .187 .277 .13800001 .237 .08500001 C .21100001 .051 .17300001 .022 .127 .022 C .113000009 .022 .068 .025000006 .051000008 .06400001 C .067 .06400001 .080000009 .06400001 .094000007 .076000008 C .104 .08500001 .11400001 .098000008 .11400001 .117000009 C .11400001 .148 .087000008 .15200001 .07700001 .15200001 C .054000006 .15200001 .021 .136 .021 .087000008 C .021 .037 .065000008 0 .127 0 C .23 0 .333 .091000009 .361 .20400001 L .45700003 .586 Z "/>
</symbol>
<use xlink:href="#font_2_3" transform="matrix(9.9626,0,0,-9.9626,95.01991,9.652334)"/>
</svg>
