<?xml version="1.0" encoding="UTF-8" standalone="no"?>
<!DOCTYPE svg PUBLIC "-//W3C//DTD SVG 1.1//EN" "http://www.w3.org/Graphics/SVG/1.1/DTD/svg11.dtd">
<svg xmlns="http://www.w3.org/2000/svg" xmlns:xlink="http://www.w3.org/1999/xlink" version="1.1" width="207.076pt" height="174.683pt" viewBox="0 0 207.076 174.683">
<path transform="matrix(1,0,0,-1,-249.578,174.484)" stroke-width="1" stroke-linecap="butt" stroke-miterlimit="10" stroke-linejoin="miter" fill="none" stroke="#808080" d="M 277.5334 78.57089 L 277.5334 82.82301 M 312.22508 78.57089 L 312.22508 82.82301 M 381.6084 78.57089 L 381.6084 82.82301 M 416.3001 78.57089 L 416.3001 82.82301 "/>
<path transform="matrix(1,0,0,-1,-249.578,174.484)" stroke-width="1" stroke-linecap="butt" stroke-miterlimit="10" stroke-linejoin="miter" fill="none" stroke="#808080" d="M 344.79084 13.4495 L 349.04267 13.4495 M 344.79084 47.07323 L 349.04267 47.07323 M 344.79084 114.3207 L 349.04267 114.3207 M 344.79084 147.94443 L 349.04267 147.94443 "/>
<path transform="matrix(1,0,0,-1,-249.578,174.484)" stroke-width="1" stroke-linecap="butt" stroke-miterlimit="10" stroke-linejoin="miter" fill="none" stroke="#000000" d="M 249.78005 80.69696 L 442.0609 80.69696 "/>
<path transform="matrix(1,0,0,-1,192.48291,93.78703)" d="M 1.99252 0 L -1.19551 1.59401 L 0 0 L -1.19551 -1.59401 "/>
<path transform="matrix(1,0,0,-1,-249.578,174.484)" stroke-width="1" stroke-linecap="butt" stroke-miterlimit="10" stroke-linejoin="miter" fill="none" stroke="#000000" d="M 346.91673 0 L 346.91673 159.4014 "/>
<path transform="matrix(0,-1,-1,-0,97.338718,15.082596)" d="M 1.99252 0 L -1.19551 1.59401 L 0 0 L -1.19551 -1.59401 "/>
<symbol id="font_0_1">
<path d="M .57600006 0 C .59300008 0 .611 0 .611 .019999996 C .611 .040000008 .59300008 .040000008 .57600006 .040000008 L .035000005 .040000008 C .018 .040000008 0 .040000008 0 .019999996 C 0 0 .018 0 .035000005 0 L .57600006 0 Z "/>
</symbol>
<use xlink:href="#font_0_1" transform="matrix(9.9626,0,0,-9.9626,22.413903,103.5626)"/>
<symbol id="font_1_2">
<path d="M .205 .64000007 C .205 .66400006 .205 .666 .18200003 .666 C .120000008 .60200008 .032000007 .60200008 0 .60200008 L 0 .57100006 C .020000004 .57100006 .07900001 .57100006 .13100001 .597 L .13100001 .079 C .13100001 .043 .128 .031000002 .038000004 .031000002 L .0060000049 .031000002 L .0060000049 0 C .04100001 .003 .128 .003 .168 .003 C .20800002 .003 .29500003 .003 .33000005 0 L .33000005 .031000002 L .29800005 .031000002 C .20800002 .031000002 .205 .042000005 .205 .079 L .205 .64000007 Z "/>
</symbol>
<use xlink:href="#font_1_2" transform="matrix(9.9626,0,0,-9.9626,30.222678,105.854)"/>
<use xlink:href="#font_0_1" transform="matrix(9.9626,0,0,-9.9626,53.23089,103.5626)"/>
<symbol id="font_1_1">
<path d="M .421 .34200005 C .421 .42200003 .416 .50200006 .381 .57600006 C .335 .67200008 .25300003 .688 .211 .688 C .15100001 .688 .07800001 .66200008 .037000006 .56900009 C .0050000029 .5 0 .42200003 0 .34200005 C 0 .26700003 .0040000008 .177 .045000007 .101 C .088 .020000002 .161 0 .21000001 0 C .264 0 .34 .021000002 .384 .116000007 C .416 .185 .421 .263 .421 .34200005 M .21000001 .022000002 C .171 .022000002 .112 .047000003 .094 .143 C .083000008 .20300001 .083000008 .29500003 .083000008 .35400004 C .083000008 .41800005 .083000008 .48400004 .091000009 .53800007 C .11 .65700009 .185 .66600009 .21000001 .66600009 C .243 .66600009 .30900003 .64800009 .328 .549 C .338 .49300004 .338 .41700004 .338 .35400004 C .338 .279 .338 .21100001 .32700003 .147 C .312 .052 .255 .022000002 .21000001 .022000002 Z "/>
</symbol>
<use xlink:href="#font_1_1" transform="matrix(9.9626,0,0,-9.9626,60.541536,106.07317)"/>
<symbol id="font_2_1">
<path d="M .106 .053000004 C .106 .082 .08200001 .106000009 .05300001 .106000009 C .024000004 .106000009 0 .082 0 .053000004 C 0 .024 .024000004 0 .05300001 0 C .08200001 0 .106 .024 .106 .053000004 Z "/>
</symbol>
<use xlink:href="#font_2_1" transform="matrix(9.9626,0,0,-9.9626,65.990779,105.854)"/>
<symbol id="font_1_3">
<path d="M .39900003 .223 C .39900003 .34200005 .317 .44200004 .209 .44200004 C .16100002 .44200004 .118000019 .42600004 .082 .39100004 L .082 .586 C .10200001 .58000007 .135 .573 .16700001 .573 C .29 .573 .36 .66400006 .36 .67700007 C .36 .683 .357 .688 .35 .688 C .349 .688 .347 .688 .342 .68500009 C .322 .67600008 .273 .656 .20600002 .656 C .16600001 .656 .120000008 .66300007 .073 .6840001 C .065 .68700006 .06300001 .68700006 .061000009 .68700006 C .051000004 .68700006 .051000004 .679 .051000004 .66300007 L .051000004 .36700005 C .051000004 .34900005 .051000004 .34100003 .065 .34100003 C .07200001 .34100003 .074 .34400005 .07800001 .35000003 C .08900002 .36600004 .12600002 .42000006 .207 .42000006 C .259 .42000006 .284 .37400005 .292 .35600005 C .308 .31900005 .31 .28000004 .31 .23 C .31 .19500001 .31 .135 .286 .093 C .262 .054000006 .22500001 .028 .17900002 .028 C .106000009 .028 .049000008 .08100001 .032 .14000002 C .035 .13900002 .038000008 .13800001 .049000008 .13800001 C .082 .13800001 .09900001 .163 .09900001 .187 C .09900001 .21100001 .082 .23600002 .049000008 .23600002 C .035 .23600002 0 .22900002 0 .18300002 C 0 .097 .069000009 0 .18100001 0 C .297 0 .39900003 .096 .39900003 .223 Z "/>
</symbol>
<use xlink:href="#font_1_3" transform="matrix(9.9626,0,0,-9.9626,68.40012,106.07317)"/>
<use xlink:href="#font_1_1" transform="matrix(9.9626,0,0,-9.9626,126.04955,106.07317)"/>
<use xlink:href="#font_2_1" transform="matrix(9.9626,0,0,-9.9626,131.49878,105.854)"/>
<use xlink:href="#font_1_3" transform="matrix(9.9626,0,0,-9.9626,133.90813,106.07317)"/>
<use xlink:href="#font_1_2" transform="matrix(9.9626,0,0,-9.9626,165.11266,105.854)"/>
<use xlink:href="#font_0_1" transform="matrix(9.9626,0,0,-9.9626,79.78588,161.53859)"/>
<use xlink:href="#font_1_2" transform="matrix(9.9626,0,0,-9.9626,87.59466,163.82999)"/>
<use xlink:href="#font_0_1" transform="matrix(9.9626,0,0,-9.9626,72.03689,127.9146)"/>
<use xlink:href="#font_1_1" transform="matrix(9.9626,0,0,-9.9626,79.347537,130.42517)"/>
<use xlink:href="#font_2_1" transform="matrix(9.9626,0,0,-9.9626,84.796779,130.206)"/>
<use xlink:href="#font_1_3" transform="matrix(9.9626,0,0,-9.9626,87.20612,130.42517)"/>
<use xlink:href="#font_1_1" transform="matrix(9.9626,0,0,-9.9626,79.34753,63.594163)"/>
<use xlink:href="#font_2_1" transform="matrix(9.9626,0,0,-9.9626,84.79677,63.374986)"/>
<use xlink:href="#font_1_3" transform="matrix(9.9626,0,0,-9.9626,87.206119,63.594163)"/>
<use xlink:href="#font_1_2" transform="matrix(9.9626,0,0,-9.9626,87.59468,29.750992)"/>
<clipPath id="cp3">
<path transform="matrix(1,0,0,-1,-249.578,174.484)" d="M 249.78005 0 L 444.05345 0 L 444.05345 161.39392 L 249.78005 161.39392 Z "/>
</clipPath>
<g clip-path="url(#cp3)">
<path transform="matrix(1,0,0,-1,-249.578,174.484)" stroke-width="1.59404" stroke-linecap="butt" stroke-miterlimit="10" stroke-linejoin="miter" fill="none" stroke="#000080" d="M 394.7912 20.37602 C 394.7912 20.37602 381.03376 40.41943 376.0626 47.03397 C 371.09144 53.6485 363.4818 62.92914 358.96257 68.04897 C 354.44334 73.16881 347.5584 80.16667 343.49107 83.93414 C 339.42378 87.70161 333.26353 92.64493 329.64817 95.20238 C 326.03276 97.75984 320.59727 100.87683 317.43379 102.36664 C 314.27033 103.85645 309.5596 105.37543 306.84806 105.93994 C 304.1365 106.50444 300.15046 106.6537 297.89085 106.43527 C 295.6312 106.21686 292.3699 105.22467 290.5622 104.36565 C 288.7545 103.50662 286.2179 101.6013 284.86216 100.24405 C 283.50636 98.88678 281.6945 96.29657 280.79066 94.58344 C 279.8868 92.87029 278.79966 89.82353 278.34773 87.89685 C 277.8958 85.97015 277.5334 82.69508 277.5334 80.69724 C 277.53337 78.69937 277.89573 75.42427 278.3476 73.49759 C 278.7995 71.5709 279.88658 68.52411 280.7904 66.81094 C 281.6942 65.09776 283.50605 62.50754 284.86177 61.15024 C 286.2175 59.79294 288.75404 57.88756 290.5617 57.0285 C 292.3694 56.16943 295.6306 55.17715 297.89024 54.95868 C 300.1498 54.74022 304.1358 54.88937 306.8473 55.45383 C 309.5588 56.01828 314.26954 57.53714 317.43296 59.02687 C 320.59638 60.5166 326.0318 63.63347 329.64717 66.19086 C 333.26255 68.74823 339.4227 73.69138 343.48997 77.45872 C 347.55723 81.22607 354.442 88.22357 358.9612 93.34332 C 363.4804 98.46306 371.09016 107.74382 376.06135 114.35829 C 381.03248 120.97276 394.78984 141.01583 394.78984 141.01583 "/>
<path transform="matrix(1,0,0,-1,-249.578,174.484)" stroke-width="1.59404" stroke-linecap="butt" stroke-miterlimit="10" stroke-linejoin="miter" fill="none" stroke="#008000" d="M 0 54.80669 C 0 54.80669 20.88704 54.80669 28.90924 54.80669 C 36.93146 54.80669 49.79631 54.80669 57.81851 54.80669 C 65.84071 54.80669 78.70558 54.80669 86.72778 54.80669 C 94.74998 54.80669 107.61484 54.80669 115.63705 54.80669 C 123.65926 54.80669 136.52411 54.80669 144.54631 54.80669 C 152.56853 54.80669 165.43338 54.80669 173.45558 54.80669 C 181.47779 54.80669 194.34265 54.80669 202.36486 54.80669 C 210.38706 54.80669 223.2519 54.80669 231.27413 54.80669 C 239.29633 54.80669 252.16118 54.80669 260.1834 54.80669 C 268.2056 54.80669 281.07048 54.80669 289.09266 54.80669 C 297.11488 54.80669 309.9797 54.80669 318.00193 54.80669 C 326.0241 54.80669 338.88899 54.80669 346.9112 54.80669 C 354.9334 54.80669 367.79823 54.80669 375.82048 54.80669 C 383.84266 54.80669 396.7075 54.80669 404.7297 54.80669 C 412.75193 54.80669 425.6168 54.80669 433.63899 54.80669 C 441.6612 54.80669 454.52607 54.80669 462.54826 54.80669 C 470.57048 54.80669 483.4353 54.80669 491.45753 54.80669 C 499.4797 54.80669 512.34457 54.80669 520.36679 54.80669 C 528.389 54.80669 541.25387 54.80669 549.27609 54.80669 C 557.2983 54.80669 570.16317 54.80669 578.1853 54.80669 C 586.2075 54.80669 599.0724 54.80669 607.0946 54.80669 C 615.11679 54.80669 627.9816 54.80669 636.00387 54.80669 C 644.02609 54.80669 656.8909 54.80669 664.91317 54.80669 C 672.9353 54.80669 693.8224 54.80669 693.8224 54.80669 "/>
<path transform="matrix(1,0,0,-1,-249.578,174.484)" stroke-width="1.59404" stroke-linecap="butt" stroke-miterlimit="10" stroke-linejoin="miter" fill="none" stroke="#cc6600" d="M 0 106.58723 C 0 106.58723 20.88704 106.58723 28.90924 106.58723 C 36.93146 106.58723 49.79631 106.58723 57.81851 106.58723 C 65.84071 106.58723 78.70558 106.58723 86.72778 106.58723 C 94.74998 106.58723 107.61484 106.58723 115.63705 106.58723 C 123.65926 106.58723 136.52411 106.58723 144.54631 106.58723 C 152.56853 106.58723 165.43338 106.58723 173.45558 106.58723 C 181.47779 106.58723 194.34265 106.58723 202.36486 106.58723 C 210.38706 106.58723 223.2519 106.58723 231.27413 106.58723 C 239.29633 106.58723 252.16118 106.58723 260.1834 106.58723 C 268.2056 106.58723 281.07048 106.58723 289.09266 106.58723 C 297.11488 106.58723 309.9797 106.58723 318.00193 106.58723 C 326.0241 106.58723 338.88899 106.58723 346.9112 106.58723 C 354.9334 106.58723 367.79823 106.58723 375.82048 106.58723 C 383.84266 106.58723 396.7075 106.58723 404.7297 106.58723 C 412.75193 106.58723 425.6168 106.58723 433.63899 106.58723 C 441.6612 106.58723 454.52607 106.58723 462.54826 106.58723 C 470.57048 106.58723 483.4353 106.58723 491.45753 106.58723 C 499.4797 106.58723 512.34457 106.58723 520.36679 106.58723 C 528.389 106.58723 541.25387 106.58723 549.27609 106.58723 C 557.2983 106.58723 570.16317 106.58723 578.1853 106.58723 C 586.2075 106.58723 599.0724 106.58723 607.0946 106.58723 C 615.11679 106.58723 627.9816 106.58723 636.00387 106.58723 C 644.02609 106.58723 656.8909 106.58723 664.91317 106.58723 C 672.9353 106.58723 693.8224 106.58723 693.8224 106.58723 "/>
</g>
<symbol id="font_2_2">
<path d="M .305 .31300003 C .311 .33900003 .334 .43100003 .404 .43100003 C .409 .43100003 .433 .43100003 .454 .418 C .426 .41300003 .40600003 .388 .40600003 .36400003 C .40600003 .34800003 .417 .32900004 .444 .32900004 C .46600003 .32900004 .498 .34700004 .498 .38700003 C .498 .43900005 .439 .45300005 .405 .45300005 C .347 .45300005 .312 .40000005 .3 .37700004 C .275 .44300003 .221 .45300005 .19200002 .45300005 C .08800001 .45300005 .031000002 .32400004 .031000002 .29900003 C .031000002 .28900004 .041 .28900004 .043000007 .28900004 C .051000008 .28900004 .054000006 .291 .056 .3 C .09 .40600003 .156 .43100003 .19000001 .43100003 C .209 .43100003 .244 .42200003 .244 .36400003 C .244 .33300004 .22700002 .26600004 .19000001 .126 C .17400001 .064 .13900002 .022000002 .095000009 .022000002 C .08900001 .022000002 .06600001 .022000002 .045 .035 C .07000001 .040000004 .09200001 .061 .09200001 .089 C .09200001 .116000007 .07000001 .124000009 .055000009 .124000009 C .025 .124000009 0 .098000008 0 .06600001 C 0 .020000002 .050000006 0 .094000007 0 C .16000001 0 .19600001 .07000001 .19900002 .076000008 C .21100001 .039 .24700003 0 .307 0 C .41 0 .467 .12900001 .467 .15400002 C .467 .16400002 .458 .16400002 .455 .16400002 C .446 .16400002 .444 .16000001 .442 .15300001 C .409 .046 .341 .022000002 .30900003 .022000002 C .27 .022000002 .254 .054 .254 .08800001 C .254 .11000001 .26 .13200002 .271 .17600002 L .305 .31300003 Z "/>
</symbol>
<use xlink:href="#font_2_2" transform="matrix(9.9626,0,0,-9.9626,198.35092,96.02957)"/>
<symbol id="font_2_3">
<path d="M .45700003 .586 C .461 .6 .461 .602 .461 .609 C .461 .62700006 .447 .63600006 .432 .63600006 C .42200003 .63600006 .40600003 .63 .397 .615 C .395 .61 .387 .579 .38300003 .561 C .37600003 .535 .36900003 .508 .363 .48100005 L .318 .301 C .314 .286 .271 .21600002 .20500002 .21600002 C .15400002 .21600002 .143 .26000003 .143 .29700003 C .143 .34300003 .16000001 .40500004 .194 .49300004 C .21000001 .53400006 .21400002 .545 .21400002 .56500008 C .21400002 .61 .18200001 .6470001 .13200002 .6470001 C .037 .6470001 0 .50200006 0 .49300004 C 0 .48300005 .01 .48300005 .012 .48300005 C .022000002 .48300005 .023 .485 .028000003 .50100007 C .055000009 .595 .095000009 .625 .12900001 .625 C .13700001 .625 .15400002 .625 .15400002 .59300008 C .15400002 .568 .14400001 .54200008 .13700001 .523 C .097 .41700004 .079 .36 .079 .31300003 C .079 .224 .142 .194 .201 .194 C .24000003 .194 .274 .21100001 .30200003 .23900002 C .289 .187 .277 .13800001 .237 .08500001 C .21100001 .051 .17300001 .022 .127 .022 C .113000009 .022 .068 .025000006 .051000008 .06400001 C .067 .06400001 .080000009 .06400001 .094000007 .076000008 C .104 .08500001 .11400001 .098000008 .11400001 .117000009 C .11400001 .148 .087000008 .15200001 .07700001 .15200001 C .054000006 .15200001 .021 .136 .021 .087000008 C .021 .037 .065000008 0 .127 0 C .23 0 .333 .091000009 .361 .20400001 L .45700003 .586 Z "/>
</symbol>
<use xlink:href="#font_2_3" transform="matrix(9.9626,0,0,-9.9626,95.06391,9.652334)"/>
</svg>
