<?xml version="1.0" encoding="UTF-8" standalone="no"?>
<!DOCTYPE svg PUBLIC "-//W3C//DTD SVG 1.1//EN" "http://www.w3.org/Graphics/SVG/1.1/DTD/svg11.dtd">
<svg xmlns="http://www.w3.org/2000/svg" xmlns:xlink="http://www.w3.org/1999/xlink" version="1.1" width="207.045pt" height="174.677pt" viewBox="0 0 207.045 174.677">
<clipPath id="cp0">
<path transform="matrix(1,0,0,-1,.199,174.478)" d="M 0 0 L 194.27033 0 L 194.27033 161.39028 L 0 161.39028 Z "/>
</clipPath>
<g clip-path="url(#cp0)">
<path transform="matrix(1,0,0,-1,.199,174.478)" stroke-width="1.59404" stroke-linecap="butt" stroke-miterlimit="10" stroke-linejoin="miter" fill="none" stroke="#000080" d="M 48.56758 110.00652 C 48.56758 110.00652 51.49178 116.59305 52.61487 118.69743 C 53.73798 120.80182 55.53906 123.5623 56.66217 125.17346 C 57.78528 126.78462 59.58636 129.01685 60.70947 130.30963 C 61.83258 131.60243 63.63367 133.43416 64.75677 134.4911 C 65.87988 135.54805 67.68097 137.05948 68.80408 137.92743 C 69.92719 138.7954 71.72826 140.03839 72.85136 140.74677 C 73.97447 141.45513 75.77556 142.46457 76.89867 143.03287 C 78.02177 143.60117 79.82286 144.40111 80.94597 144.84273 C 82.06908 145.28435 83.87016 145.89167 84.99327 146.21585 C 86.11638 146.54003 87.91745 146.96633 89.04056 147.17928 C 90.16367 147.39221 91.96475 147.64511 93.08786 147.75067 C 94.21097 147.85622 96.01205 147.94005 97.13516 147.94005 C 98.25827 147.94005 100.05936 147.85622 101.18246 147.75067 C 102.30557 147.64511 104.10666 147.39221 105.22975 147.17928 C 106.35286 146.96633 108.15395 146.54003 109.27705 146.21585 C 110.40016 145.89167 112.20125 145.28435 113.32436 144.84273 C 114.44746 144.40111 116.24855 143.60117 117.37166 143.03287 C 118.49477 142.46457 120.29585 141.45513 121.41896 140.74677 C 122.54205 140.03839 124.34314 138.7954 125.46625 137.92743 C 126.58936 137.05948 128.39044 135.54805 129.51355 134.4911 C 130.63666 133.43416 132.43775 131.60243 133.56085 130.30963 C 134.68396 129.01685 136.48505 126.78462 137.60816 125.17346 C 138.73126 123.5623 140.53234 120.80182 141.65544 118.69743 C 142.77855 116.59305 145.70275 110.00652 145.70275 110.00652 "/>
<path transform="matrix(1,0,0,-1,.199,174.478)" stroke-width="1.59404" stroke-linecap="butt" stroke-miterlimit="10" stroke-linejoin="miter" fill="none" stroke="#000080" d="M 43.17117 80.69513 C 43.17117 80.69513 43.19078 82.40901 43.19829 82.82713 C 43.2058 83.24527 43.21788 83.49243 43.2254 83.70874 C 43.23293 83.92505 43.24501 84.21312 43.25252 84.38615 C 43.26004 84.5592 43.27213 84.80719 43.27963 84.95602 C 43.28714 85.10484 43.29922 85.32613 43.30675 85.45891 C 43.31427 85.59167 43.32635 85.79218 43.33388 85.91304 C 43.34138 86.03392 43.35347 86.21835 43.36098 86.33011 C 43.36848 86.44188 43.38057 86.61423 43.38809 86.71864 C 43.39561 86.82307 43.4077 86.9844 43.41522 87.0828 C 43.42273 87.18118 43.43481 87.33441 43.44232 87.42776 C 43.44983 87.52113 43.46191 87.66678 43.46944 87.75568 C 43.47696 87.84457 43.48906 87.98349 43.49657 88.06854 C 43.50407 88.15361 43.51616 88.28712 43.52367 88.36879 C 43.53117 88.45045 43.54326 88.5785 43.55078 88.65717 C 43.55832 88.73584 43.5704 88.85977 43.57791 88.93579 C 43.58542 89.01181 43.5975 89.13167 43.60501 89.20518 C 43.61252 89.2787 43.6246 89.39445 43.63213 89.46573 C 43.63966 89.53702 43.65175 89.6498 43.65926 89.71904 C 43.66676 89.78828 43.67885 89.8975 43.68636 89.96486 C 43.69386 90.03223 43.70595 90.13892 43.71349 90.2046 C 43.72101 90.2703 43.7331 90.37433 43.7406 90.43837 C 43.74811 90.50241 43.7602 90.60368 43.7677 90.66621 C 43.7752 90.72876 43.7873 90.82802 43.79483 90.88916 C 43.80235 90.9503 43.81444 91.04707 43.82195 91.10689 C 43.82945 91.16672 43.84154 91.2617 43.84904 91.32034 C 43.85657 91.37898 43.86865 91.47215 43.87617 91.52959 C 43.8837 91.58702 43.89578 91.67805 43.90329 91.73439 C 43.9108 91.79071 43.92288 91.88031 43.93039 91.93561 C 43.93791 91.99092 43.95 92.07867 43.95752 92.133 C 43.96504 92.18732 43.97713 92.2737 43.98463 92.3271 C 43.99214 92.38052 44.00423 92.46556 44.01175 92.51805 C 44.01926 92.57054 44.03134 92.65385 44.03886 92.7055 C 44.04639 92.75714 44.05847 92.83945 44.06598 92.89029 C 44.07349 92.94112 44.08557 93.02191 44.0931 93.07198 C 44.1006 93.12204 44.11269 93.2018 44.12021 93.25116 C 44.12773 93.30052 44.13982 93.37915 44.14732 93.42776 C 44.15483 93.47638 44.16692 93.55368 44.17444 93.60161 C 44.18195 93.64955 44.19403 93.72601 44.20155 93.77328 C 44.20908 93.82057 44.22116 93.89575 44.22867 93.94241 C 44.23619 93.98906 44.24828 94.06352 44.25578 94.1096 C 44.26329 94.15569 44.27538 94.22914 44.2829 94.27461 C 44.29042 94.32007 44.30249 94.39247 44.31001 94.43738 C 44.31755 94.48228 44.32964 94.55392 44.33714 94.59828 C 44.34465 94.64264 44.35674 94.71329 44.36424 94.75713 C 44.37175 94.80098 44.38383 94.87096 44.39137 94.91432 C 44.3989 94.95767 44.41098 95.02681 44.41849 95.06966 C 44.426 95.11249 44.43808 95.18074 44.44559 95.2231 C 44.4531 95.26547 44.46518 95.33316 44.47272 95.37508 C 44.48024 95.41699 44.49232 95.48372 44.49983 95.52518 C 44.50734 95.56664 44.51942 95.63284 44.52693 95.6739 C 44.53444 95.71497 44.54654 95.78056 44.55406 95.82117 C 44.56158 95.86177 44.57367 95.92642 44.58118 95.96661 C 44.58868 96.0068 44.60077 96.07112 44.60828 96.11092 C 44.6158 96.15071 44.62788 96.21413 44.6354 96.25354 C 44.64293 96.29295 44.65501 96.35597 44.66252 96.39503 C 44.67003 96.43411 44.68211 96.49648 44.68962 96.53516 C 44.69714 96.57382 44.70923 96.63551 44.71675 96.67384 C 44.72427 96.71217 44.73636 96.7734 44.74387 96.81137 C 44.75137 96.84935 44.76346 96.9099 44.77098 96.94754 C 44.77849 96.98518 44.79057 97.04533 44.7981 97.08267 C 44.80562 97.12001 44.8177 97.17967 44.82521 97.21666 C 44.83272 97.25365 44.8448 97.31262 44.85233 97.3493 C 44.85983 97.38597 44.87192 97.44463 44.87944 97.48099 C 44.88696 97.51735 44.89905 97.57535 44.90656 97.6114 C 44.91408 97.64746 44.92616 97.70517 44.93367 97.74098 C 44.94118 97.77678 44.95326 97.834 44.96078 97.86948 C 44.9683 97.90495 44.9804 97.96156 44.9879 97.99677 C 44.99542 98.03197 45.0075 98.08835 45.01501 98.12328 C 45.02252 98.1582 45.0346 98.21391 45.04213 98.24857 C 45.04965 98.28323 45.06174 98.3387 45.06926 98.37314 C 45.07677 98.40756 45.08885 98.46263 45.09636 98.49677 C 45.10387 98.53091 45.11595 98.58539 45.12347 98.61926 C 45.131 98.65315 45.14308 98.70744 45.1506 98.74109 C 45.15811 98.77472 45.1702 98.82843 45.1777 98.86183 C 45.18521 98.89523 45.1973 98.94872 45.20482 98.9819 C 45.21234 99.01509 45.22443 99.06818 45.23195 99.1011 C 45.23946 99.13405 45.25154 99.18663 45.25905 99.21935 C 45.26656 99.25204 45.27864 99.30443 45.28616 99.33691 C 45.2937 99.3694 45.30579 99.4213 45.3133 99.45355 C 45.3208 99.48581 45.33289 99.53746 45.3404 99.56952 C 45.3479 99.60158 45.35999 99.65288 45.36751 99.68474 C 45.37505 99.71658 45.38712 99.76744 45.39464 99.79909 C 45.40216 99.83072 45.41425 99.88136 45.42175 99.9128 C 45.42926 99.94421 45.44135 99.99442 45.44887 100.02563 C 45.45638 100.05685 45.46846 100.10687 45.47598 100.13794 C 45.4835 100.16899 45.49559 100.2187 45.5031 100.24954 C 45.5106 100.2804 45.52269 100.3296 45.53021 100.36024 C 45.53772 100.3909 45.5498 100.44005 45.55733 100.4705 C 45.56485 100.50098 45.57693 100.54962 45.58444 100.5799 C 45.59195 100.61018 45.60405 100.65866 45.61156 100.68878 C 45.61906 100.71889 45.63115 100.76709 45.63867 100.79701 C 45.6462 100.82693 45.65828 100.87471 45.66579 100.90446 C 45.67331 100.93422 45.6854 100.98192 45.6929 101.01149 C 45.70041 101.04105 45.7125 101.08827 45.72002 101.11768 C 45.72754 101.14706 45.73962 101.19418 45.74713 101.22345 C 45.75465 101.25272 45.76674 101.29951 45.77425 101.3286 C 45.78175 101.35768 45.79384 101.40413 45.80136 101.43304 C 45.80888 101.46196 45.82097 101.5083 45.82849 101.53705 C 45.836 101.5658 45.84808 101.61171 45.85559 101.6403 C 45.8631 101.6689 45.87518 101.71469 45.8827 101.74315 C 45.89023 101.7716 45.90231 101.81718 45.90984 101.84547 C 45.91734 101.87376 45.92943 101.91896 45.93694 101.9471 C 45.94444 101.97525 45.95653 102.02034 45.96405 102.04832 C 45.97159 102.07631 45.98367 102.12105 45.99118 102.1489 C 45.99869 102.17674 46.01077 102.22134 46.01828 102.24905 C 46.02579 102.27678 46.03787 102.32115 46.0454 102.34871 C 46.05293 102.37627 46.06502 102.42032 46.07253 102.44774 C 46.08003 102.47516 46.09212 102.51909 46.09962 102.54637 C 46.10713 102.57364 46.11922 102.61723 46.12675 102.6444 C 46.13428 102.67154 46.14636 102.71503 46.15387 102.74207 C 46.16138 102.76909 46.17346 102.81235 46.18097 102.83922 C 46.18848 102.86609 46.20056 102.90906 46.2081 102.93579 C 46.21562 102.96254 46.2277 103.00546 46.23521 103.03204 C 46.24272 103.05861 46.2548 103.1009 46.26231 103.12733 C 46.26982 103.15378 46.28192 103.19626 46.28944 103.22263 C 46.29697 103.24901 46.30905 103.29123 46.31656 103.31747 C 46.32407 103.3437 46.33615 103.38565 46.34366 103.41177 C 46.35118 103.43788 46.36327 103.47974 46.37079 103.50574 C 46.37831 103.53172 46.3904 103.57329 46.3979 103.59917 C 46.40541 103.62503 46.4175 103.66646 46.425 103.69223 C 46.43253 103.718 46.44461 103.75932 46.45213 103.78496 C 46.45966 103.81061 46.47173 103.85155 46.47925 103.87708 C 46.48677 103.9026 46.49886 103.94354 46.50638 103.96895 C 46.51389 103.99435 46.52597 104.03494 46.53348 104.06023 C 46.54099 104.08551 46.55307 104.12605 46.5606 104.15125 C 46.56812 104.17642 46.5802 104.21681 46.58772 104.24187 C 46.59523 104.26694 46.60732 104.30704 46.61482 104.332 C 46.62233 104.35696 46.63441 104.39699 46.64194 104.42184 C 46.64946 104.4467 46.66156 104.48645 46.66907 104.51118 C 46.67657 104.53593 46.68866 104.57565 46.69617 104.60031 C 46.70367 104.62497 46.71576 104.66444 46.72328 104.68898 C 46.73082 104.71352 46.7429 104.75276 46.75041 104.77719 C 46.75792 104.80162 46.77 104.84079 46.77751 104.86511 C 46.78502 104.88943 46.7971 104.92834 46.80463 104.95258 C 46.81216 104.9768 46.82425 105.01569 46.83176 105.03984 C 46.83926 105.064 46.85135 105.10268 46.85886 105.12671 C 46.86636 105.15074 46.87845 105.18916 46.88599 105.21312 C 46.89351 105.23706 46.9056 105.27544 46.9131 105.29927 C 46.92061 105.32312 46.9327 105.36119 46.9402 105.38493 C 46.94771 105.40869 46.9598 105.4468 46.96733 105.47047 C 46.97485 105.49414 46.98694 105.53204 46.99445 105.5556 C 47.00195 105.57915 47.01404 105.61679 47.02155 105.64024 C 47.02907 105.6637 47.04115 105.70135 47.04868 105.72472 C 47.0562 105.7481 47.06828 105.78545 47.07579 105.80873 C 47.0833 105.832 47.09538 105.86931 47.10289 105.89252 C 47.11041 105.91573 47.1225 105.95293 47.13002 105.97604 C 47.13754 105.99915 47.14963 106.03607 47.15714 106.05908 C 47.16464 106.0821 47.17673 106.11903 47.18425 106.14195 C 47.19176 106.16487 47.20384 106.20152 47.21136 106.22437 C 47.21889 106.2472 47.23097 106.2838 47.23848 106.30658 C 47.24599 106.32935 47.25807 106.36584 47.2656 106.38853 C 47.2731 106.41121 47.28519 106.44748 47.29271 106.47006 C 47.30023 106.49263 47.31232 106.52882 47.31982 106.55133 C 47.32733 106.57382 47.33943 106.60985 47.34694 106.63228 C 47.35445 106.6547 47.36653 106.6906 47.37405 106.71294 C 47.38158 106.73529 47.39366 106.77113 47.40117 106.7934 C 47.40869 106.81564 47.42078 106.85121 47.42828 106.8734 C 47.43579 106.89558 47.44788 106.93115 47.4554 106.95325 C 47.46292 106.97536 47.475 107.0107 47.48251 107.03271 C 47.49004 107.05473 47.50212 107.09001 47.50963 107.11197 C 47.51714 107.13391 47.52922 107.16914 47.53674 107.191 C 47.54427 107.21286 47.55635 107.24782 47.56387 107.2696 C 47.57138 107.2914 47.58347 107.32635 47.59097 107.34807 C 47.59848 107.36977 47.61057 107.40448 47.61809 107.42612 C 47.62561 107.44774 47.63768 107.48244 47.64522 107.504 C 47.65274 107.52557 47.66483 107.56018 47.67233 107.58167 C 47.67984 107.60316 47.69193 107.63754 47.69943 107.65895 C 47.70695 107.68034 47.71904 107.71469 47.72656 107.73602 C 47.73409 107.75734 47.74617 107.79149 47.75368 107.81276 C 47.76118 107.83403 47.77327 107.86812 47.78078 107.88933 C 47.7883 107.91054 47.80038 107.94455 47.8079 107.96567 C 47.81543 107.9868 47.82751 108.02058 47.83502 108.04164 C 47.84253 108.0627 47.85461 108.09648 47.86212 108.11746 C 47.86964 108.13844 47.88173 108.172 47.88925 108.19292 C 47.89677 108.21384 47.90886 108.2474 47.91637 108.26826 C 47.92387 108.28912 47.93596 108.32253 47.94348 108.3433 C 47.95099 108.36409 47.96307 108.39738 47.9706 108.41809 C 47.97812 108.4388 47.9902 108.47198 47.99771 108.49263 C 48.00522 108.51328 48.0173 108.54631 48.02483 108.5669 C 48.03233 108.58748 48.04442 108.6205 48.05194 108.64102 C 48.05946 108.66154 48.07155 108.69443 48.07906 108.71487 C 48.08658 108.73532 48.09866 108.76804 48.10617 108.78842 C 48.11368 108.8088 48.12576 108.84152 48.13329 108.86183 C 48.14081 108.88214 48.1529 108.91464 48.1604 108.93489 C 48.16792 108.95514 48.18001 108.98764 48.18752 109.00784 C 48.19502 109.02805 48.2071 109.06041 48.21463 109.08054 C 48.22215 109.10066 48.23424 109.1329 48.24176 109.15297 C 48.24927 109.17303 48.26135 109.2052 48.26886 109.2252 C 48.27637 109.24521 48.28845 109.2772 48.29597 109.29715 C 48.3035 109.3171 48.31558 109.34909 48.3231 109.36899 C 48.33061 109.38889 48.3427 109.42079 48.3502 109.44061 C 48.35771 109.46043 48.3698 109.49214 48.37732 109.51189 C 48.38484 109.53163 48.39694 109.56332 48.40445 109.58302 C 48.41196 109.60272 48.42404 109.6343 48.43155 109.65393 C 48.43906 109.67357 48.45114 109.70506 48.45866 109.72467 C 48.4662 109.74426 48.47829 109.77567 48.4858 109.79518 C 48.4933 109.81471 48.50539 109.84593 48.5129 109.8654 C 48.5204 109.88487 48.53249 109.91617 48.54001 109.93558 C 48.54755 109.95499 48.56714 110.00533 48.56714 110.00533 "/>
<path transform="matrix(1,0,0,-1,.199,174.478)" stroke-width="1.59404" stroke-linecap="butt" stroke-miterlimit="10" stroke-linejoin="miter" fill="none" stroke="#000080" d="M 145.70275 110.00652 C 145.70275 110.00652 145.72234 109.95604 145.72986 109.93663 C 145.73737 109.9172 145.74945 109.88606 145.75698 109.8666 C 145.7645 109.84712 145.77658 109.81578 145.78409 109.79626 C 145.7916 109.77675 145.80368 109.74547 145.8112 109.72588 C 145.81871 109.7063 145.8308 109.67474 145.83832 109.65509 C 145.84584 109.63542 145.85793 109.60387 145.86544 109.58417 C 145.87294 109.56447 145.88504 109.5328 145.89255 109.51303 C 145.90006 109.49327 145.91214 109.46149 145.91967 109.44168 C 145.92719 109.42188 145.93927 109.39008 145.94678 109.37018 C 145.9543 109.3503 145.96639 109.3183 145.97389 109.29836 C 145.9814 109.27841 145.99349 109.24634 146.001 109.22633 C 146.00853 109.20633 146.02062 109.1742 146.02812 109.15413 C 146.03565 109.13406 146.04773 109.10179 146.05524 109.08168 C 146.06275 109.06157 146.07483 109.02927 146.08235 109.00908 C 146.08988 108.98889 146.10196 108.9564 146.10948 108.93613 C 146.11699 108.91585 146.12908 108.88322 146.13658 108.86292 C 146.14409 108.8426 146.15618 108.81004 146.1637 108.78966 C 146.17122 108.76927 146.1833 108.73643 146.19083 108.71599 C 146.19834 108.69554 146.21042 108.66275 146.21793 108.64224 C 146.22544 108.62173 146.23752 108.58873 146.24504 108.56813 C 146.25258 108.54753 146.26467 108.51442 146.27217 108.49377 C 146.27968 108.47313 146.29177 108.44002 146.29927 108.41931 C 146.30678 108.3986 146.31887 108.36525 146.32639 108.34447 C 146.33393 108.32368 146.34601 108.29033 146.35352 108.26949 C 146.36103 108.24864 146.37311 108.21509 146.38062 108.19417 C 146.38813 108.17326 146.4002 108.13962 146.40775 108.11864 C 146.41527 108.09766 146.42736 108.06396 146.43486 108.04292 C 146.44237 108.02187 146.45446 107.98795 146.46196 107.96683 C 146.46947 107.94571 146.48155 107.91182 146.48909 107.89063 C 146.49662 107.86943 146.5087 107.83528 146.5162 107.81401 C 146.52371 107.79272 146.5358 107.75851 146.5433 107.73718 C 146.55081 107.71587 146.56291 107.6816 146.57044 107.66019 C 146.57796 107.63878 146.59004 107.60432 146.59755 107.58284 C 146.60506 107.56136 146.61714 107.52686 146.62465 107.5053 C 146.63217 107.48373 146.64426 107.44905 146.65178 107.4274 C 146.6593 107.40576 146.67139 107.37096 146.6789 107.34926 C 146.6864 107.32758 146.69849 107.29274 146.706 107.27097 C 146.71352 107.24918 146.7256 107.21408 146.73313 107.19221 C 146.74065 107.17035 146.75273 107.13527 146.76024 107.11333 C 146.76775 107.0914 146.77983 107.05606 146.78736 107.03403 C 146.79486 107.01198 146.80695 106.97655 146.81447 106.95445 C 146.82199 106.93236 146.83406 106.89693 146.84159 106.87477 C 146.8491 106.8526 146.86119 106.81688 146.86872 106.79462 C 146.87622 106.77237 146.8883 106.73663 146.89582 106.71431 C 146.90332 106.69197 146.9154 106.656 146.92293 106.63358 C 146.93045 106.61113 146.94255 106.57506 146.95006 106.55257 C 146.95757 106.53006 146.96965 106.49396 146.97716 106.47137 C 146.98467 106.4488 146.99675 106.41243 147.00428 106.38976 C 147.01181 106.3671 147.0239 106.33075 147.0314 106.30798 C 147.03891 106.28523 147.051 106.24857 147.0585 106.22572 C 147.06601 106.20287 147.0781 106.16614 147.08562 106.14323 C 147.09316 106.12032 147.10524 106.08351 147.11275 106.0605 C 147.12026 106.03749 147.13234 106.00043 147.13985 105.97731 C 147.14736 105.95421 147.15944 105.91713 147.16698 105.89395 C 147.1745 105.87076 147.18659 105.83344 147.19409 105.81013 C 147.2016 105.78685 147.21369 105.74937 147.22119 105.72601 C 147.2287 105.70265 147.24079 105.6651 147.24832 105.64165 C 147.25585 105.61818 147.26793 105.58044 147.27544 105.55688 C 147.28295 105.53334 147.29503 105.49554 147.30254 105.4719 C 147.31006 105.44824 147.32215 105.41014 147.32967 105.38638 C 147.33719 105.36263 147.34928 105.32442 147.35678 105.30058 C 147.36429 105.27675 147.37638 105.23846 147.38388 105.21454 C 147.3914 105.19061 147.40349 105.15207 147.41101 105.12802 C 147.41854 105.10399 147.43062 105.06541 147.43813 105.04129 C 147.44564 105.01717 147.45772 104.9783 147.46524 104.95406 C 147.47275 104.92981 147.48484 104.8908 147.49236 104.86646 C 147.49988 104.84213 147.51197 104.80309 147.51947 104.77866 C 147.52698 104.75423 147.53907 104.71486 147.54659 104.69032 C 147.5541 104.66579 147.56618 104.6264 147.5737 104.60176 C 147.58123 104.57712 147.5933 104.53741 147.60082 104.51265 C 147.60832 104.48788 147.62042 104.44807 147.62793 104.42322 C 147.63544 104.39836 147.64752 104.35847 147.65505 104.33351 C 147.66257 104.30855 147.67465 104.26836 147.68216 104.24329 C 147.68968 104.21822 147.70177 104.17795 147.70928 104.15277 C 147.71678 104.1276 147.72887 104.08708 147.73639 104.06178 C 147.74391 104.03647 147.756 103.99571 147.7635 103.97029 C 147.77103 103.94487 147.78311 103.90408 147.79062 103.87857 C 147.79813 103.85307 147.81021 103.81197 147.81774 103.78633 C 147.82526 103.7607 147.83734 103.71954 147.84487 103.6938 C 147.85237 103.66805 147.86446 103.6266 147.87197 103.60071 C 147.87947 103.57483 147.89156 103.53317 147.89908 103.50717 C 147.9066 103.48119 147.91867 103.43942 147.92621 103.41331 C 147.93373 103.38722 147.94582 103.34517 147.95333 103.31894 C 147.96083 103.29272 147.97292 103.25061 147.98043 103.22426 C 147.98793 103.19789 148.00003 103.15538 148.00756 103.1289 C 148.01508 103.10243 148.02716 103.06006 148.03467 103.0335 C 148.04218 103.00694 148.05426 102.96413 148.06177 102.9374 C 148.06929 102.91064 148.08138 102.86757 148.0889 102.8407 C 148.09642 102.81381 148.1085 102.77066 148.11602 102.74365 C 148.12352 102.71666 148.1356 102.67316 148.14311 102.646 C 148.15064 102.61885 148.16272 102.57515 148.17024 102.54787 C 148.17777 102.5206 148.18985 102.47679 148.19736 102.44936 C 148.20487 102.42194 148.21695 102.37776 148.22447 102.35022 C 148.23198 102.32266 148.24407 102.27843 148.25159 102.25073 C 148.25911 102.22304 148.2712 102.17842 148.2787 102.15056 C 148.28621 102.12268 148.2983 102.07784 148.30582 102.04985 C 148.31333 102.02187 148.32541 101.97694 148.33293 101.9488 C 148.34046 101.92067 148.35254 101.87532 148.36005 101.84703 C 148.36757 101.81874 148.37966 101.77332 148.38716 101.74487 C 148.39467 101.71643 148.40676 101.67064 148.41428 101.64203 C 148.4218 101.61342 148.43389 101.56737 148.44139 101.53862 C 148.44892 101.50989 148.461 101.46371 148.4685 101.4348 C 148.47602 101.40588 148.4881 101.35924 148.49562 101.33018 C 148.50315 101.30112 148.51523 101.25444 148.52275 101.2252 C 148.53026 101.19597 148.54235 101.14886 148.54985 101.11945 C 148.55736 101.09003 148.56945 101.04266 148.57697 101.01309 C 148.58449 100.98352 148.59658 100.936 148.6041 100.90625 C 148.6116 100.87651 148.62369 100.82855 148.6312 100.79865 C 148.6387 100.76872 148.65079 100.72067 148.65831 100.69058 C 148.66584 100.6605 148.67794 100.612 148.68544 100.58171 C 148.69295 100.5514 148.70503 100.50262 148.71254 100.47217 C 148.72005 100.4417 148.73213 100.39278 148.73966 100.36214 C 148.7472 100.33148 148.75928 100.28206 148.76679 100.25122 C 148.77429 100.22037 148.78638 100.17082 148.79389 100.1398 C 148.80139 100.10878 148.81348 100.05876 148.821 100.02753 C 148.82854 99.99628 148.84062 99.94597 148.84813 99.91454 C 148.85564 99.88312 148.86772 99.8326 148.87523 99.80096 C 148.88274 99.76933 148.89482 99.71834 148.90236 99.68651 C 148.90988 99.65468 148.92197 99.60349 148.92948 99.57144 C 148.93698 99.5394 148.94907 99.48778 148.95658 99.45549 C 148.96408 99.4232 148.97617 99.37119 148.9837 99.3387 C 148.99123 99.30621 149.0033 99.254 149.01082 99.2213 C 149.01834 99.1886 149.03043 99.13586 149.03794 99.10294 C 149.04546 99.07 149.05754 99.01709 149.06505 98.98392 C 149.07256 98.95074 149.08464 98.89726 149.09217 98.86385 C 149.09969 98.83041 149.11177 98.77658 149.11928 98.74294 C 149.1268 98.70929 149.13889 98.65518 149.1464 98.62129 C 149.1539 98.5874 149.16599 98.53276 149.17351 98.49861 C 149.18103 98.46446 149.19312 98.40958 149.20063 98.37518 C 149.20815 98.3408 149.22023 98.28535 149.22774 98.25069 C 149.23525 98.216 149.24733 98.16008 149.25485 98.12515 C 149.26238 98.09024 149.27446 98.0341 149.28199 97.9989 C 149.28949 97.96371 149.30158 97.9069 149.30908 97.87143 C 149.31659 97.83594 149.32868 97.77887 149.3362 97.7431 C 149.34372 97.70734 149.3558 97.64967 149.36333 97.6136 C 149.37084 97.57753 149.38292 97.51935 149.39043 97.483 C 149.39794 97.44666 149.41002 97.3882 149.41754 97.35153 C 149.42508 97.31487 149.43717 97.25568 149.44467 97.21869 C 149.45218 97.18172 149.46427 97.12224 149.47177 97.08493 C 149.47928 97.04762 149.49137 96.98747 149.49889 96.94981 C 149.50643 96.91217 149.51851 96.85143 149.52602 96.81346 C 149.53353 96.77548 149.54561 96.71442 149.55312 96.6761 C 149.56063 96.6378 149.57271 96.57594 149.58025 96.53728 C 149.58777 96.49863 149.59986 96.43642 149.60736 96.3974 C 149.61487 96.35837 149.62696 96.29536 149.63446 96.25592 C 149.64197 96.21649 149.65406 96.1529 149.66159 96.11308 C 149.66912 96.07329 149.6812 96.00925 149.6887 95.96906 C 149.69622 95.92885 149.7083 95.86398 149.7158 95.82338 C 149.72332 95.78278 149.73542 95.71739 149.74294 95.67638 C 149.75046 95.63536 149.76255 95.56915 149.77005 95.52768 C 149.77756 95.48619 149.78964 95.41925 149.79715 95.37735 C 149.80467 95.33546 149.81676 95.268 149.82428 95.22566 C 149.8318 95.1833 149.84389 95.11488 149.8514 95.07205 C 149.8589 95.02924 149.87099 94.96025 149.8785 94.91692 C 149.88602 94.8736 149.8981 94.80362 149.90563 94.75977 C 149.91315 94.7159 149.92523 94.64507 149.93274 94.60072 C 149.94025 94.55638 149.95233 94.48495 149.95986 94.44006 C 149.96736 94.39517 149.97945 94.3226 149.98697 94.27715 C 149.99449 94.23169 150.00658 94.15842 150.01409 94.11237 C 150.02159 94.06633 150.03368 93.9919 150.0412 93.94522 C 150.0487 93.89856 150.06079 93.8232 150.06832 93.77594 C 150.07584 93.72867 150.08792 93.65244 150.09543 93.6045 C 150.10295 93.55656 150.11504 93.47902 150.12255 93.4304 C 150.13005 93.38179 150.14214 93.30342 150.14966 93.2541 C 150.15718 93.2048 150.16925 93.12505 150.17678 93.07497 C 150.18431 93.0249 150.1964 92.94392 150.2039 92.89311 C 150.21141 92.84229 150.2235 92.76028 150.231 92.70865 C 150.23851 92.65701 150.2506 92.57336 150.25814 92.52089 C 150.26566 92.46841 150.27774 92.38374 150.28525 92.33038 C 150.29276 92.27702 150.30484 92.19058 150.31235 92.13625 C 150.31986 92.08192 150.33194 91.99397 150.33948 91.93869 C 150.347 91.88339 150.35909 91.79407 150.3666 91.73775 C 150.3741 91.68143 150.38619 91.5901 150.39369 91.53268 C 150.4012 91.47527 150.4133 91.38248 150.42082 91.3239 C 150.42835 91.26534 150.44043 91.1703 150.44794 91.11046 C 150.45545 91.05063 150.46753 90.95366 150.47504 90.89255 C 150.48256 90.83144 150.49465 90.73245 150.50217 90.66994 C 150.50969 90.60744 150.52178 90.50592 150.52928 90.44191 C 150.53679 90.37791 150.54888 90.27422 150.55638 90.2086 C 150.5639 90.14299 150.57599 90.03638 150.58351 89.96896 C 150.59104 89.90157 150.60312 89.79199 150.61063 89.72276 C 150.61814 89.65353 150.63022 89.54121 150.63774 89.46996 C 150.64525 89.39871 150.65734 89.28261 150.66486 89.20914 C 150.67238 89.13567 150.68447 89.01631 150.69197 88.9404 C 150.69948 88.86449 150.71157 88.74063 150.71909 88.66194 C 150.7266 88.58325 150.73868 88.45491 150.7462 88.37328 C 150.75373 88.29164 150.76581 88.15857 150.77332 88.07356 C 150.78083 87.98856 150.79293 87.84937 150.80043 87.76056 C 150.80794 87.67175 150.82003 87.52661 150.82755 87.43341 C 150.83507 87.34021 150.84716 87.1871 150.85466 87.08871 C 150.86219 86.99034 150.87427 86.82855 150.88178 86.72424 C 150.88928 86.61992 150.90137 86.44847 150.90889 86.33685 C 150.91641 86.22522 150.9285 86.04037 150.936 85.91966 C 150.94353 85.79893 150.95561 85.59914 150.96312 85.46669 C 150.97063 85.33423 150.98271 85.11354 150.99024 84.96494 C 150.99776 84.81631 151.00984 84.56804 151.01737 84.3955 C 151.02487 84.22295 151.03696 83.93669 151.04447 83.72133 C 151.05197 83.50597 151.06406 83.22491 151.07158 82.84325 C 151.0791 82.4616 151.09871 80.97057 151.09871 80.97057 "/>
<path transform="matrix(1,0,0,-1,.199,174.478)" stroke-width="1.59404" stroke-linecap="butt" stroke-miterlimit="10" stroke-linejoin="miter" fill="none" stroke="#000080" d="M 48.56758 51.38374 C 48.56758 51.38374 51.49178 44.7972 52.61487 42.69283 C 53.73798 40.58844 55.53906 37.82796 56.66217 36.2168 C 57.78528 34.60562 59.58636 32.37341 60.70947 31.08061 C 61.83258 29.78783 63.63367 27.9561 64.75677 26.89915 C 65.87988 25.8422 67.68097 24.33078 68.80408 23.46281 C 69.92719 22.59486 71.72826 21.35185 72.85136 20.6435 C 73.97447 19.93512 75.77556 18.92567 76.89867 18.35739 C 78.02177 17.7891 79.82286 16.98915 80.94597 16.54753 C 82.06908 16.10591 83.87016 15.4986 84.99327 15.17441 C 86.11638 14.85023 87.91745 14.42393 89.04056 14.21098 C 90.16367 13.99803 91.96475 13.74513 93.08786 13.63959 C 94.21097 13.53404 96.01205 13.4502 97.13516 13.4502 C 98.25827 13.4502 100.05936 13.53404 101.18246 13.63959 C 102.30557 13.74513 104.10666 13.99803 105.22975 14.21098 C 106.35286 14.42393 108.15395 14.85023 109.27705 15.17441 C 110.40016 15.4986 112.20125 16.10591 113.32436 16.54753 C 114.44746 16.98915 116.24855 17.7891 117.37166 18.35739 C 118.49477 18.92567 120.29585 19.93512 121.41896 20.6435 C 122.54205 21.35185 124.34314 22.59486 125.46625 23.46281 C 126.58936 24.33078 128.39044 25.8422 129.51355 26.89915 C 130.63666 27.9561 132.43775 29.78783 133.56085 31.08061 C 134.68396 32.37341 136.48505 34.60562 137.60816 36.2168 C 138.73126 37.82796 140.53234 40.58844 141.65544 42.69283 C 142.77855 44.7972 145.70275 51.38374 145.70275 51.38374 "/>
<path transform="matrix(1,0,0,-1,.199,174.478)" stroke-width="1.59404" stroke-linecap="butt" stroke-miterlimit="10" stroke-linejoin="miter" fill="none" stroke="#000080" d="M 43.17117 80.69513 C 43.17117 80.69513 43.19078 78.98125 43.19829 78.56311 C 43.2058 78.14499 43.21788 77.89781 43.2254 77.6815 C 43.23293 77.4652 43.24501 77.17714 43.25252 77.00409 C 43.26004 76.83105 43.27213 76.58305 43.27963 76.43423 C 43.28714 76.2854 43.29922 76.06412 43.30675 75.93135 C 43.31427 75.79858 43.32635 75.59808 43.33388 75.4772 C 43.34138 75.35634 43.35347 75.1719 43.36098 75.06013 C 43.36848 74.94838 43.38057 74.77603 43.38809 74.67162 C 43.39561 74.56718 43.4077 74.40585 43.41522 74.30746 C 43.42273 74.20908 43.43481 74.05583 43.44232 73.96248 C 43.44983 73.86913 43.46191 73.72348 43.46944 73.63458 C 43.47696 73.54567 43.48906 73.40675 43.49657 73.3217 C 43.50407 73.23665 43.51616 73.10313 43.52367 73.02147 C 43.53117 72.9398 43.54326 72.81175 43.55078 72.73308 C 43.55832 72.65442 43.5704 72.53049 43.57791 72.45447 C 43.58542 72.37843 43.5975 72.25859 43.60501 72.18507 C 43.61252 72.11156 43.6246 71.9958 43.63213 71.92451 C 43.63966 71.85324 43.65175 71.74045 43.65926 71.6712 C 43.66676 71.60196 43.67885 71.49275 43.68636 71.4254 C 43.69386 71.35803 43.70595 71.25133 43.71349 71.18564 C 43.72101 71.11995 43.7331 71.01593 43.7406 70.95189 C 43.74811 70.88783 43.7602 70.78658 43.7677 70.72403 C 43.7752 70.6615 43.7873 70.56224 43.79483 70.5011 C 43.80235 70.43996 43.81444 70.34319 43.82195 70.28336 C 43.82945 70.22354 43.84154 70.12854 43.84904 70.06992 C 43.85657 70.01128 43.86865 69.9181 43.87617 69.86067 C 43.8837 69.80324 43.89578 69.71219 43.90329 69.65587 C 43.9108 69.59955 43.92288 69.50995 43.93039 69.45464 C 43.93791 69.39934 43.95 69.31157 43.95752 69.25726 C 43.96504 69.20294 43.97713 69.11656 43.98463 69.06314 C 43.99214 69.00972 44.00423 68.9247 44.01175 68.87221 C 44.01926 68.81972 44.03134 68.73639 44.03886 68.68475 C 44.04639 68.6331 44.05847 68.55081 44.06598 68.49997 C 44.07349 68.44913 44.08557 68.36833 44.0931 68.31828 C 44.1006 68.26822 44.11269 68.18845 44.12021 68.13908 C 44.12773 68.08974 44.13982 68.01111 44.14732 67.9625 C 44.15483 67.91388 44.16692 67.83658 44.17444 67.78864 C 44.18195 67.7407 44.19403 67.66425 44.20155 67.61696 C 44.20908 67.56969 44.22116 67.49449 44.22867 67.44785 C 44.23619 67.40118 44.24828 67.32672 44.25578 67.28065 C 44.26329 67.23457 44.27538 67.16112 44.2829 67.11565 C 44.29042 67.07018 44.30249 66.99779 44.31001 66.95288 C 44.31755 66.90797 44.32964 66.83632 44.33714 66.79196 C 44.34465 66.7476 44.35674 66.67697 44.36424 66.63312 C 44.37175 66.58928 44.38383 66.51929 44.39137 66.47594 C 44.3989 66.43257 44.41098 66.36343 44.41849 66.3206 C 44.426 66.27776 44.43808 66.20952 44.44559 66.16714 C 44.4531 66.12479 44.46518 66.05708 44.47272 66.01518 C 44.48024 65.97327 44.49232 65.90652 44.49983 65.86507 C 44.50734 65.82362 44.51942 65.75742 44.52693 65.71635 C 44.53444 65.6753 44.54654 65.6097 44.55406 65.56909 C 44.56158 65.52849 44.57367 65.46384 44.58118 65.42363 C 44.58868 65.38344 44.60077 65.31914 44.60828 65.27934 C 44.6158 65.23955 44.62788 65.17613 44.6354 65.13672 C 44.64293 65.09729 44.65501 65.03429 44.66252 64.99521 C 44.67003 64.95615 44.68211 64.89377 44.68962 64.8551 C 44.69714 64.81642 44.70923 64.75473 44.71675 64.71642 C 44.72427 64.67809 44.73636 64.61685 44.74387 64.57887 C 44.75137 64.54091 44.76346 64.48035 44.77098 64.44272 C 44.77849 64.40508 44.79057 64.34492 44.7981 64.30759 C 44.80562 64.27025 44.8177 64.21059 44.82521 64.1736 C 44.83272 64.13661 44.8448 64.07762 44.85233 64.04095 C 44.85983 64.00429 44.87192 63.94562 44.87944 63.90926 C 44.88696 63.8729 44.89905 63.8149 44.90656 63.77884 C 44.91408 63.74278 44.92616 63.68507 44.93367 63.64928 C 44.94118 63.61348 44.95326 63.55626 44.96078 63.52078 C 44.9683 63.48529 44.9804 63.4287 44.9879 63.3935 C 44.99542 63.35828 45.0075 63.30191 45.01501 63.26698 C 45.02252 63.23204 45.0346 63.17635 45.04213 63.14168 C 45.04965 63.10703 45.06174 63.05154 45.06926 63.01712 C 45.07677 62.98268 45.08885 62.92763 45.09636 62.89348 C 45.10387 62.85934 45.11595 62.80487 45.12347 62.77098 C 45.131 62.73709 45.14308 62.68282 45.1506 62.64917 C 45.15811 62.61552 45.1702 62.56181 45.1777 62.52843 C 45.18521 62.49503 45.1973 62.44154 45.20482 62.40836 C 45.21234 62.37517 45.22443 62.32208 45.23195 62.28914 C 45.23946 62.2562 45.25154 62.20363 45.25905 62.17091 C 45.26656 62.1382 45.27864 62.08583 45.28616 62.05334 C 45.2937 62.02086 45.30579 61.96896 45.3133 61.93669 C 45.3208 61.90443 45.33289 61.8528 45.3404 61.82074 C 45.3479 61.78868 45.35999 61.73737 45.36751 61.70552 C 45.37505 61.67368 45.38712 61.6228 45.39464 61.59117 C 45.40216 61.55954 45.41425 61.50888 45.42175 61.47746 C 45.42926 61.44604 45.44135 61.39584 45.44887 61.36462 C 45.45638 61.33339 45.46846 61.28337 45.47598 61.25232 C 45.4835 61.22127 45.49559 61.17155 45.5031 61.1407 C 45.5106 61.10986 45.52269 61.06065 45.53021 61.03001 C 45.53772 60.99936 45.5498 60.95021 45.55733 60.91975 C 45.56485 60.88928 45.57693 60.84064 45.58444 60.81035 C 45.59195 60.78008 45.60405 60.7316 45.61156 60.70148 C 45.61906 60.67136 45.63115 60.62315 45.63867 60.59323 C 45.6462 60.56332 45.65828 60.51555 45.66579 60.4858 C 45.67331 60.45604 45.6854 60.40834 45.6929 60.37877 C 45.70041 60.3492 45.7125 60.30199 45.72002 60.27258 C 45.72754 60.24318 45.73962 60.19608 45.74713 60.16681 C 45.75465 60.13754 45.76674 60.09074 45.77425 60.06166 C 45.78175 60.03258 45.79384 59.98611 45.80136 59.9572 C 45.80888 59.92828 45.82097 59.88196 45.82849 59.85321 C 45.836 59.82446 45.84808 59.77855 45.85559 59.74995 C 45.8631 59.72136 45.87518 59.67555 45.8827 59.6471 C 45.89023 59.61864 45.90231 59.57306 45.90984 59.54477 C 45.91734 59.51648 45.92943 59.47128 45.93694 59.44315 C 45.94444 59.41501 45.95653 59.36992 45.96405 59.34193 C 45.97159 59.31395 45.98367 59.26921 45.99118 59.24136 C 45.99869 59.2135 46.01077 59.1689 46.01828 59.14119 C 46.02579 59.11348 46.03787 59.0691 46.0454 59.04155 C 46.05293 59.01398 46.06502 58.96994 46.07253 58.94252 C 46.08003 58.91508 46.09212 58.87115 46.09962 58.84389 C 46.10713 58.81662 46.11922 58.77301 46.12675 58.74586 C 46.13428 58.71872 46.14636 58.67522 46.15387 58.6482 C 46.16138 58.62115 46.17346 58.57791 46.18097 58.55104 C 46.18848 58.52415 46.20056 58.4812 46.2081 58.45445 C 46.21562 58.42772 46.2277 58.38478 46.23521 58.35822 C 46.24272 58.33163 46.2548 58.28935 46.26231 58.26291 C 46.26982 58.23648 46.28192 58.194 46.28944 58.16763 C 46.29697 58.14125 46.30905 58.09901 46.31656 58.07278 C 46.32407 58.04654 46.33615 58.0046 46.34366 57.97849 C 46.35118 57.95236 46.36327 57.91052 46.37079 57.88452 C 46.37831 57.85852 46.3904 57.81696 46.3979 57.79109 C 46.40541 57.76521 46.4175 57.72379 46.425 57.69803 C 46.43253 57.67226 46.44461 57.63094 46.45213 57.60529 C 46.45966 57.57965 46.47173 57.53871 46.47925 57.51318 C 46.48677 57.48766 46.49886 57.4467 46.50638 57.4213 C 46.51389 57.3959 46.52597 57.35532 46.53348 57.33003 C 46.54099 57.30475 46.55307 57.2642 46.5606 57.23901 C 46.56812 57.21382 46.5802 57.17345 46.58772 57.14838 C 46.59523 57.1233 46.60732 57.0832 46.61482 57.05824 C 46.62233 57.03328 46.63441 56.99326 46.64194 56.9684 C 46.64946 56.94354 46.66156 56.90381 46.66907 56.87906 C 46.67657 56.85431 46.68866 56.8146 46.69617 56.78995 C 46.70367 56.76529 46.71576 56.72581 46.72328 56.70128 C 46.73082 56.67674 46.7429 56.63748 46.75041 56.61305 C 46.75792 56.58862 46.77 56.54947 46.77751 56.52515 C 46.78502 56.50082 46.7971 56.4619 46.80463 56.43767 C 46.81216 56.41344 46.82425 56.37457 46.83176 56.35042 C 46.83926 56.32626 46.85135 56.28758 46.85886 56.26355 C 46.86636 56.23952 46.87845 56.20108 46.88599 56.17714 C 46.89351 56.1532 46.9056 56.1148 46.9131 56.09097 C 46.92061 56.06714 46.9327 56.02905 46.9402 56.00531 C 46.94771 55.98157 46.9598 55.94345 46.96733 55.91978 C 46.97485 55.89612 46.98694 55.8582 46.99445 55.83466 C 47.00195 55.81111 47.01404 55.77347 47.02155 55.75002 C 47.02907 55.72655 47.04115 55.6889 47.04868 55.66553 C 47.0562 55.64217 47.06828 55.6048 47.07579 55.58153 C 47.0833 55.55826 47.09538 55.52095 47.10289 55.49773 C 47.11041 55.47452 47.1225 55.43732 47.13002 55.41422 C 47.13754 55.39111 47.14963 55.35419 47.15714 55.33116 C 47.16464 55.30815 47.17673 55.27122 47.18425 55.2483 C 47.19176 55.22537 47.20384 55.18872 47.21136 55.1659 C 47.21889 55.14305 47.23097 55.10645 47.23848 55.08368 C 47.24599 55.0609 47.25807 55.0244 47.2656 55.00172 C 47.2731 54.97903 47.28519 54.94276 47.29271 54.9202 C 47.30023 54.89761 47.31232 54.86142 47.31982 54.83893 C 47.32733 54.81642 47.33943 54.7804 47.34694 54.75798 C 47.35445 54.73555 47.36653 54.69966 47.37405 54.6773 C 47.38158 54.65497 47.39366 54.61913 47.40117 54.59686 C 47.40869 54.57462 47.42078 54.53903 47.42828 54.51686 C 47.43579 54.49467 47.44788 54.4591 47.4554 54.437 C 47.46292 54.4149 47.475 54.37955 47.48251 54.35754 C 47.49004 54.33553 47.50212 54.30025 47.50963 54.27829 C 47.51714 54.25633 47.52922 54.22112 47.53674 54.19925 C 47.54427 54.1774 47.55635 54.14243 47.56387 54.12065 C 47.57138 54.09886 47.58347 54.0639 47.59097 54.04219 C 47.59848 54.02048 47.61057 53.98578 47.61809 53.96414 C 47.62561 53.9425 47.63768 53.90782 47.64522 53.88625 C 47.65274 53.86467 47.66483 53.83008 47.67233 53.80858 C 47.67984 53.78708 47.69193 53.75272 47.69943 53.73131 C 47.70695 53.7099 47.71904 53.67557 47.72656 53.65424 C 47.73409 53.6329 47.74617 53.59877 47.75368 53.5775 C 47.76118 53.55623 47.77327 53.52213 47.78078 53.50092 C 47.7883 53.47972 47.80038 53.44571 47.8079 53.42458 C 47.81543 53.40344 47.82751 53.36967 47.83502 53.34862 C 47.84253 53.32756 47.85461 53.29376 47.86212 53.27278 C 47.86964 53.2518 47.88173 53.21826 47.88925 53.19734 C 47.89677 53.17642 47.90886 53.14284 47.91637 53.12198 C 47.92387 53.10112 47.93596 53.06773 47.94348 53.04695 C 47.95099 53.02617 47.96307 52.99287 47.9706 52.97217 C 47.97812 52.95146 47.9902 52.91826 47.99771 52.89761 C 48.00522 52.87697 48.0173 52.84393 48.02483 52.82335 C 48.03233 52.80276 48.04442 52.76976 48.05194 52.74924 C 48.05946 52.72871 48.07155 52.69583 48.07906 52.67538 C 48.08658 52.65494 48.09866 52.62222 48.10617 52.60184 C 48.11368 52.58145 48.12576 52.54874 48.13329 52.52843 C 48.14081 52.50812 48.1529 52.47562 48.1604 52.45537 C 48.16792 52.43512 48.18001 52.4026 48.18752 52.3824 C 48.19502 52.3622 48.2071 52.32983 48.21463 52.30971 C 48.22215 52.28958 48.23424 52.25735 48.24176 52.23729 C 48.24927 52.21722 48.26135 52.18506 48.26886 52.16505 C 48.27637 52.14505 48.28845 52.11304 48.29597 52.0931 C 48.3035 52.07315 48.31558 52.04117 48.3231 52.02127 C 48.33061 52.00137 48.3427 51.96947 48.3502 51.94963 C 48.35771 51.92981 48.3698 51.89812 48.37732 51.87837 C 48.38484 51.85863 48.39694 51.82692 48.40445 51.80722 C 48.41196 51.78752 48.42404 51.75597 48.43155 51.73633 C 48.43906 51.71667 48.45114 51.68518 48.45866 51.66559 C 48.4662 51.646 48.47829 51.61458 48.4858 51.59506 C 48.4933 51.57555 48.50539 51.54433 48.5129 51.52484 C 48.5204 51.50537 48.53249 51.47409 48.54001 51.45468 C 48.54755 51.43526 48.56714 51.38493 48.56714 51.38493 "/>
<path transform="matrix(1,0,0,-1,.199,174.478)" stroke-width="1.59404" stroke-linecap="butt" stroke-miterlimit="10" stroke-linejoin="miter" fill="none" stroke="#000080" d="M 145.70275 51.38374 C 145.70275 51.38374 145.72234 51.43422 145.72986 51.45363 C 145.73737 51.47304 145.74945 51.5042 145.75698 51.52367 C 145.7645 51.54314 145.77658 51.57446 145.78409 51.594 C 145.7916 51.61351 145.80368 51.64479 145.8112 51.66437 C 145.81871 51.68394 145.8308 51.71552 145.83832 51.73517 C 145.84584 51.75482 145.85793 51.78638 145.86544 51.80609 C 145.87294 51.82579 145.88504 51.85745 145.89255 51.87721 C 145.90006 51.89697 145.91214 51.92877 145.91967 51.94858 C 145.92719 51.96838 145.93927 52.00018 145.94678 52.02007 C 145.9543 52.03995 145.96639 52.07195 145.97389 52.0919 C 145.9814 52.11185 145.99349 52.14392 146.001 52.16393 C 146.00853 52.18393 146.02062 52.21605 146.02812 52.23611 C 146.03565 52.25618 146.04773 52.28845 146.05524 52.30858 C 146.06275 52.32869 146.07483 52.361 146.08235 52.38118 C 146.08988 52.40137 146.10196 52.43385 146.10948 52.45413 C 146.11699 52.47441 146.12908 52.50703 146.13658 52.52734 C 146.14409 52.54765 146.15618 52.58022 146.1637 52.6006 C 146.17122 52.62099 146.1833 52.65382 146.19083 52.67427 C 146.19834 52.69472 146.21042 52.72751 146.21793 52.74802 C 146.22544 52.76852 146.23752 52.80153 146.24504 52.82213 C 146.25258 52.84273 146.26467 52.87584 146.27217 52.89648 C 146.27968 52.91711 146.29177 52.95023 146.29927 52.97093 C 146.30678 52.99164 146.31887 53.02501 146.32639 53.04579 C 146.33393 53.06657 146.34601 53.09993 146.35352 53.12077 C 146.36103 53.1416 146.37311 53.17516 146.38062 53.19608 C 146.38813 53.217 146.4002 53.25064 146.40775 53.27162 C 146.41527 53.2926 146.42736 53.32628 146.43486 53.34734 C 146.44237 53.3684 146.45446 53.40231 146.46196 53.42342 C 146.46947 53.44453 146.48155 53.47844 146.48909 53.49963 C 146.49662 53.52083 146.5087 53.55496 146.5162 53.57625 C 146.52371 53.59753 146.5358 53.63173 146.5433 53.65306 C 146.55081 53.6744 146.56291 53.70866 146.57044 53.73006 C 146.57796 53.75146 146.59004 53.78593 146.59755 53.8074 C 146.60506 53.82889 146.61714 53.8634 146.62465 53.88495 C 146.63217 53.90651 146.64426 53.94121 146.65178 53.96284 C 146.6593 53.9845 146.67139 54.0193 146.6789 54.04099 C 146.6864 54.06268 146.69849 54.0975 146.706 54.1193 C 146.71352 54.14108 146.7256 54.17618 146.73313 54.19804 C 146.74065 54.2199 146.75273 54.25499 146.76024 54.27692 C 146.76775 54.29886 146.77983 54.33418 146.78736 54.35623 C 146.79486 54.37828 146.80695 54.41371 146.81447 54.4358 C 146.82199 54.45789 146.83406 54.49332 146.84159 54.51549 C 146.8491 54.53766 146.86119 54.57338 146.86872 54.59563 C 146.87622 54.61789 146.8883 54.65361 146.89582 54.67595 C 146.90332 54.69827 146.9154 54.73424 146.92293 54.75668 C 146.93045 54.77911 146.94255 54.8152 146.95006 54.83769 C 146.95757 54.8602 146.96965 54.8963 146.97716 54.91887 C 146.98467 54.94145 146.99675 54.97783 147.00428 55.00049 C 147.01181 55.02316 147.0239 55.05951 147.0314 55.08226 C 147.03891 55.10503 147.051 55.1417 147.0585 55.16454 C 147.06601 55.18738 147.0781 55.2241 147.08562 55.24702 C 147.09316 55.26993 147.10524 55.30673 147.11275 55.32976 C 147.12026 55.35277 147.13234 55.38983 147.13985 55.41293 C 147.14736 55.43605 147.15944 55.47311 147.16698 55.4963 C 147.1745 55.51949 147.18659 55.55682 147.19409 55.58011 C 147.2016 55.60341 147.21369 55.64087 147.22119 55.66425 C 147.2287 55.6876 147.24079 55.72516 147.24832 55.74861 C 147.25585 55.77206 147.26793 55.80981 147.27544 55.83336 C 147.28295 55.8569 147.29503 55.8947 147.30254 55.91835 C 147.31006 55.94202 147.32215 55.9801 147.32967 56.00386 C 147.33719 56.02763 147.34928 56.06583 147.35678 56.08966 C 147.36429 56.11351 147.37638 56.15178 147.38388 56.1757 C 147.3914 56.19965 147.40349 56.23819 147.41101 56.26222 C 147.41854 56.28625 147.43062 56.32484 147.43813 56.34897 C 147.44564 56.3731 147.45772 56.41196 147.46524 56.4362 C 147.47275 56.46045 147.48484 56.49947 147.49236 56.52379 C 147.49988 56.54811 147.51197 56.58717 147.51947 56.6116 C 147.52698 56.63603 147.53907 56.6754 147.54659 56.69994 C 147.5541 56.72447 147.56618 56.76384 147.5737 56.78848 C 147.58123 56.81313 147.5933 56.85284 147.60082 56.8776 C 147.60832 56.90236 147.62042 56.94218 147.62793 56.96704 C 147.63544 56.9919 147.64752 57.03178 147.65505 57.05675 C 147.66257 57.08171 147.67465 57.1219 147.68216 57.14697 C 147.68968 57.17203 147.70177 57.21231 147.70928 57.23747 C 147.71678 57.26265 147.72887 57.30316 147.73639 57.32848 C 147.74391 57.35379 147.756 57.39455 147.7635 57.41997 C 147.77103 57.44537 147.78311 57.48616 147.79062 57.51167 C 147.79813 57.53719 147.81021 57.5783 147.81774 57.60393 C 147.82526 57.62955 147.83734 57.6707 147.84487 57.69646 C 147.85237 57.72221 147.86446 57.76364 147.87197 57.78954 C 147.87947 57.81543 147.89156 57.85709 147.89908 57.88307 C 147.9066 57.90907 147.91867 57.95084 147.92621 57.97693 C 147.93373 58.00304 147.94582 58.04509 147.95333 58.0713 C 147.96083 58.09753 147.97292 58.13963 147.98043 58.166 C 147.98793 58.19237 148.00003 58.23488 148.00756 58.26135 C 148.01508 58.28781 148.02716 58.3302 148.03467 58.35675 C 148.04218 58.38332 148.05426 58.42612 148.06177 58.45287 C 148.06929 58.4796 148.08138 58.52269 148.0889 58.54956 C 148.09642 58.57643 148.1085 58.6196 148.11602 58.64659 C 148.12352 58.6736 148.1356 58.7171 148.14311 58.74425 C 148.15064 58.77141 148.16272 58.81511 148.17024 58.84238 C 148.17777 58.86966 148.18985 58.91347 148.19736 58.94089 C 148.20487 58.9683 148.21695 59.0125 148.22447 59.04004 C 148.23198 59.06758 148.24407 59.11182 148.25159 59.13953 C 148.25911 59.16722 148.2712 59.21184 148.2787 59.2397 C 148.28621 59.26756 148.2983 59.31241 148.30582 59.3404 C 148.31333 59.36838 148.32541 59.4133 148.33293 59.44145 C 148.34046 59.46959 148.35254 59.51494 148.36005 59.54323 C 148.36757 59.57152 148.37966 59.61694 148.38716 59.64539 C 148.39467 59.67383 148.40676 59.7196 148.41428 59.74821 C 148.4218 59.77682 148.43389 59.82288 148.44139 59.85162 C 148.44892 59.88037 148.461 59.92654 148.4685 59.95546 C 148.47602 59.98438 148.4881 60.031 148.49562 60.06007 C 148.50315 60.08914 148.51523 60.13582 148.52275 60.16504 C 148.53026 60.19427 148.54235 60.2414 148.54985 60.2708 C 148.55736 60.30022 148.56945 60.3476 148.57697 60.37715 C 148.58449 60.40672 148.59658 60.45425 148.6041 60.484 C 148.6116 60.51375 148.62369 60.56169 148.6312 60.59161 C 148.6387 60.62154 148.65079 60.66959 148.65831 60.69966 C 148.66584 60.72975 148.67794 60.77824 148.68544 60.80855 C 148.69295 60.83884 148.70503 60.88762 148.71254 60.91809 C 148.72005 60.94855 148.73213 60.99747 148.73966 61.02812 C 148.7472 61.05876 148.75928 61.10818 148.76679 61.13904 C 148.77429 61.16988 148.78638 61.21942 148.79389 61.25046 C 148.80139 61.28148 148.81348 61.3315 148.821 61.36273 C 148.82854 61.39397 148.84062 61.44429 148.84813 61.47571 C 148.85564 61.50714 148.86772 61.55765 148.87523 61.5893 C 148.88274 61.62093 148.89482 61.6719 148.90236 61.70375 C 148.90988 61.73558 148.92197 61.78676 148.92948 61.8188 C 148.93698 61.85085 148.94907 61.90248 148.95658 61.93477 C 148.96408 61.96706 148.97617 62.01906 148.9837 62.05154 C 148.99123 62.08403 149.0033 62.13626 149.01082 62.16896 C 149.01834 62.20166 149.03043 62.2544 149.03794 62.28732 C 149.04546 62.32025 149.05754 62.37317 149.06505 62.40633 C 149.07256 62.4395 149.08464 62.49298 149.09217 62.52641 C 149.09969 62.55984 149.11177 62.61368 149.11928 62.64731 C 149.1268 62.68095 149.13889 62.73508 149.1464 62.76897 C 149.1539 62.80284 149.16599 62.8575 149.17351 62.89165 C 149.18103 62.92578 149.19312 62.98068 149.20063 63.01506 C 149.20815 63.04945 149.22023 63.10489 149.22774 63.13957 C 149.23525 63.17424 149.24733 63.23018 149.25485 63.26509 C 149.26238 63.30002 149.27446 63.35616 149.28199 63.39134 C 149.28949 63.42654 149.30158 63.48335 149.30908 63.51883 C 149.31659 63.5543 149.32868 63.61137 149.3362 63.64716 C 149.34372 63.68292 149.3558 63.74059 149.36333 63.77666 C 149.37084 63.81273 149.38292 63.87091 149.39043 63.90726 C 149.39794 63.9436 149.41002 64.00206 149.41754 64.03873 C 149.42508 64.0754 149.43717 64.13457 149.44467 64.17155 C 149.45218 64.20854 149.46427 64.26802 149.47177 64.30531 C 149.47928 64.34262 149.49137 64.40277 149.49889 64.44043 C 149.50643 64.47809 149.51851 64.53882 149.52602 64.5768 C 149.53353 64.61478 149.54561 64.67584 149.55312 64.71414 C 149.56063 64.75246 149.57271 64.81432 149.58025 64.85297 C 149.58777 64.89163 149.59986 64.95384 149.60736 64.99286 C 149.61487 65.03188 149.62696 65.0949 149.63446 65.13432 C 149.64197 65.17377 149.65406 65.23737 149.66159 65.27716 C 149.66912 65.31697 149.6812 65.38101 149.6887 65.4212 C 149.69622 65.4614 149.7083 65.52626 149.7158 65.56686 C 149.72332 65.60747 149.73542 65.67285 149.74294 65.71387 C 149.75046 65.75488 149.76255 65.82109 149.77005 65.86258 C 149.77756 65.90407 149.78964 65.971 149.79715 66.0129 C 149.80467 66.0548 149.81676 66.12224 149.82428 66.1646 C 149.8318 66.20695 149.84389 66.27538 149.8514 66.31819 C 149.8589 66.36102 149.87099 66.43001 149.8785 66.47333 C 149.88602 66.51666 149.8981 66.58664 149.90563 66.6305 C 149.91315 66.67435 149.92523 66.7452 149.93274 66.78954 C 149.94025 66.83388 149.95233 66.9053 149.95986 66.9502 C 149.96736 66.99509 149.97945 67.06766 149.98697 67.11311 C 149.99449 67.15857 150.00658 67.23184 150.01409 67.27788 C 150.02159 67.32393 150.03368 67.39836 150.0412 67.44502 C 150.0487 67.4917 150.06079 67.56706 150.06832 67.61432 C 150.07584 67.66158 150.08792 67.73782 150.09543 67.78575 C 150.10295 67.83368 150.11504 67.91122 150.12255 67.95984 C 150.13005 68.00845 150.14214 68.08682 150.14966 68.13614 C 150.15718 68.18546 150.16925 68.26521 150.17678 68.31528 C 150.18431 68.36536 150.1964 68.44632 150.2039 68.49715 C 150.21141 68.54796 150.2235 68.62996 150.231 68.68161 C 150.23851 68.73325 150.2506 68.81688 150.25814 68.86937 C 150.26566 68.92184 150.27774 69.00652 150.28525 69.05988 C 150.29276 69.11324 150.30484 69.19968 150.31235 69.254 C 150.31986 69.30833 150.33194 69.39629 150.33948 69.45157 C 150.347 69.50685 150.35909 69.59619 150.3666 69.65251 C 150.3741 69.70883 150.38619 69.80016 150.39369 69.85757 C 150.4012 69.91498 150.4133 70.00778 150.42082 70.06635 C 150.42835 70.12492 150.44043 70.21996 150.44794 70.27979 C 150.45545 70.33961 150.46753 70.4366 150.47504 70.49771 C 150.48256 70.55882 150.49465 70.6578 150.50217 70.7203 C 150.50969 70.78282 150.52178 70.88434 150.52928 70.94833 C 150.53679 71.01234 150.54888 71.11603 150.55638 71.18164 C 150.5639 71.24725 150.57599 71.35388 150.58351 71.4213 C 150.59104 71.4887 150.60312 71.59825 150.61063 71.66748 C 150.61814 71.73671 150.63022 71.84904 150.63774 71.92029 C 150.64525 71.99155 150.65734 72.10764 150.66486 72.1811 C 150.67238 72.25458 150.68447 72.37393 150.69197 72.44986 C 150.69948 72.52577 150.71157 72.64963 150.71909 72.7283 C 150.7266 72.80699 150.73868 72.93535 150.7462 73.01698 C 150.75373 73.09862 150.76581 73.23167 150.77332 73.31668 C 150.78083 73.4017 150.79293 73.54088 150.80043 73.6297 C 150.80794 73.7185 150.82003 73.86363 150.82755 73.95685 C 150.83507 74.05005 150.84716 74.20314 150.85466 74.30153 C 150.86219 74.39992 150.87427 74.56169 150.88178 74.66602 C 150.88928 74.77032 150.90137 74.94177 150.90889 75.0534 C 150.91641 75.16504 150.9285 75.34987 150.936 75.4706 C 150.94353 75.59131 150.95561 75.7911 150.96312 75.92357 C 150.97063 76.05602 150.98271 76.2767 150.99024 76.42532 C 150.99776 76.57394 151.00984 76.82222 151.01737 76.99477 C 151.02487 77.1673 151.03696 77.45355 151.04447 77.66891 C 151.05197 77.8843 151.06406 78.16534 151.07158 78.547 C 151.0791 78.92867 151.09871 80.4197 151.09871 80.4197 "/>
<path transform="matrix(1,0,0,-1,.199,174.478)" stroke-width="1.19553" stroke-linecap="butt" stroke-miterlimit="10" stroke-linejoin="miter" fill="none" stroke="#800000" d="M 64.75677 26.89838 L 129.51355 26.89838 L 129.51355 134.4919 L 64.75677 134.4919 L 64.75677 26.89838 "/>
<symbol id="font_1_1">
<path d="M .23200003 .00999999 C .23200003 .012999982 .23200003 .014999986 .215 .03199999 C .09 .15799999 .058 .347 .058 .5 C .058 .674 .096 .84800007 .21900001 .97300007 C .23200003 .985 .23200003 .98700007 .23200003 .99 C .23200003 .99700006 .22800002 1 .222 1 C .21200001 1 .12200001 .93200007 .06299999 .805 C .012000002 .69500008 0 .584 0 .5 C 0 .422 .011 .301 .066 .188 C .126 .065 .21200001 0 .222 0 C .22800002 0 .23200003 .0029999912 .23200003 .00999999 Z "/>
</symbol>
<use xlink:href="#font_1_1" transform="matrix(9.9626,0,0,-9.9626,135.3303,40.485647)" fill="#800000"/>
<symbol id="font_2_2">
<path d="M .305 .31300003 C .311 .33900003 .334 .43100003 .404 .43100003 C .409 .43100003 .433 .43100003 .454 .418 C .426 .41300003 .40600003 .388 .40600003 .36400003 C .40600003 .34800003 .417 .32900004 .444 .32900004 C .46600003 .32900004 .498 .34700004 .498 .38700003 C .498 .43900005 .439 .45300005 .405 .45300005 C .347 .45300005 .312 .40000005 .3 .37700004 C .275 .44300003 .221 .45300005 .19200002 .45300005 C .08800001 .45300005 .031000002 .32400004 .031000002 .29900003 C .031000002 .28900004 .041 .28900004 .043000007 .28900004 C .051000008 .28900004 .054000006 .291 .056 .3 C .09 .40600003 .156 .43100003 .19000001 .43100003 C .209 .43100003 .244 .42200003 .244 .36400003 C .244 .33300004 .22700002 .26600004 .19000001 .126 C .17400001 .064 .13900002 .022000002 .095000009 .022000002 C .08900001 .022000002 .06600001 .022000002 .045 .035 C .07000001 .040000004 .09200001 .061 .09200001 .089 C .09200001 .116000007 .07000001 .124000009 .055000009 .124000009 C .025 .124000009 0 .098000008 0 .06600001 C 0 .020000002 .050000006 0 .094000007 0 C .16000001 0 .19600001 .07000001 .19900002 .076000008 C .21100001 .039 .24700003 0 .307 0 C .41 0 .467 .12900001 .467 .15400002 C .467 .16400002 .458 .16400002 .455 .16400002 C .446 .16400002 .444 .16000001 .442 .15300001 C .409 .046 .341 .022000002 .30900003 .022000002 C .27 .022000002 .254 .054 .254 .08800001 C .254 .11000001 .26 .13200002 .271 .17600002 L .305 .31300003 Z "/>
</symbol>
<symbol id="font_2_1">
<path d="M .117000009 .194 C .117000009 .26 .092 .29900003 .05300001 .29900003 C .020000004 .29900003 0 .274 0 .246 C 0 .21900001 .020000004 .193 .05300001 .193 C .065000008 .193 .078 .197 .08800001 .206 C .091 .208 .092 .209 .093 .209 C .094000007 .209 .095000009 .208 .095000009 .194 C .095000009 .12 .06000001 .060000004 .027000003 .026999996 C .016000003 .016000003 .016000003 .013999999 .016000003 .0109999929 C .016000003 .003999993 .021000006 0 .026 0 C .037 0 .117000009 .077 .117000009 .194 Z "/>
</symbol>
<symbol id="font_2_3">
<path d="M .45700003 .586 C .461 .6 .461 .602 .461 .609 C .461 .62700006 .447 .63600006 .432 .63600006 C .42200003 .63600006 .40600003 .63 .397 .615 C .395 .61 .387 .579 .38300003 .561 C .37600003 .535 .36900003 .508 .363 .48100005 L .318 .301 C .314 .286 .271 .21600002 .20500002 .21600002 C .15400002 .21600002 .143 .26000003 .143 .29700003 C .143 .34300003 .16000001 .40500004 .194 .49300004 C .21000001 .53400006 .21400002 .545 .21400002 .56500008 C .21400002 .61 .18200001 .6470001 .13200002 .6470001 C .037 .6470001 0 .50200006 0 .49300004 C 0 .48300005 .01 .48300005 .012 .48300005 C .022000002 .48300005 .023 .485 .028000003 .50100007 C .055000009 .595 .095000009 .625 .12900001 .625 C .13700001 .625 .15400002 .625 .15400002 .59300008 C .15400002 .568 .14400001 .54200008 .13700001 .523 C .097 .41700004 .079 .36 .079 .31300003 C .079 .224 .142 .194 .201 .194 C .24000003 .194 .274 .21100001 .30200003 .23900002 C .289 .187 .277 .13800001 .237 .08500001 C .21100001 .051 .17300001 .022 .127 .022 C .113000009 .022 .068 .025000006 .051000008 .06400001 C .067 .06400001 .080000009 .06400001 .094000007 .076000008 C .104 .08500001 .11400001 .098000008 .11400001 .117000009 C .11400001 .148 .087000008 .15200001 .07700001 .15200001 C .054000006 .15200001 .021 .136 .021 .087000008 C .021 .037 .065000008 0 .127 0 C .23 0 .333 .091000009 .361 .20400001 L .45700003 .586 Z "/>
</symbol>
<use xlink:href="#font_2_2" transform="matrix(9.9626,0,0,-9.9626,138.50691,38.104585)" fill="#800000"/>
<use xlink:href="#font_2_1" transform="matrix(9.9626,0,0,-9.9626,144.77339,39.917779)" fill="#800000"/>
<use xlink:href="#font_2_3" transform="matrix(9.9626,0,0,-9.9626,148.63889,40.037328)" fill="#800000"/>
<symbol id="font_1_2">
<path d="M .232 .5 C .232 .578 .22100002 .699 .16600001 .81200006 C .106 .93500009 .020000004 1 .009999998 1 C .0040000008 1 0 .99600008 0 .99 C 0 .98700007 0 .985 .019000002 .967 C .117000009 .86800006 .174 .709 .174 .5 C .174 .329 .137 .153 .012999997 .026999996 C 0 .014999986 0 .012999982 0 .00999999 C 0 .003999993 .0040000008 0 .009999998 0 C .020000004 0 .11000001 .06799999 .169 .195 C .22 .305 .232 .416 .232 .5 Z "/>
</symbol>
<use xlink:href="#font_1_2" transform="matrix(9.9626,0,0,-9.9626,154.14987,40.485647)" fill="#800000"/>
</g>
<path transform="matrix(1,0,0,-1,.199,174.478)" stroke-width="1" stroke-linecap="butt" stroke-miterlimit="10" stroke-linejoin="miter" fill="none" stroke="#808080" d="M 16.1892 78.56917 L 16.1892 82.82109 M 43.17117 78.56917 L 43.17117 82.82109 M 70.15317 78.56917 L 70.15317 82.82109 M 124.11716 78.56917 L 124.11716 82.82109 M 151.09915 78.56917 L 151.09915 82.82109 M 178.08113 78.56917 L 178.08113 82.82109 "/>
<path transform="matrix(1,0,0,-1,.199,174.478)" stroke-width="1" stroke-linecap="butt" stroke-miterlimit="10" stroke-linejoin="miter" fill="none" stroke="#808080" d="M 95.0092 13.44919 L 99.26111 13.44919 M 95.0092 35.8645 L 99.26111 35.8645 M 95.0092 58.27982 L 99.26111 58.27982 M 95.0092 103.11046 L 99.26111 103.11046 M 95.0092 125.52577 L 99.26111 125.52577 M 95.0092 147.94109 L 99.26111 147.94109 "/>
<path transform="matrix(1,0,0,-1,.199,174.478)" stroke-width="1" stroke-linecap="butt" stroke-miterlimit="10" stroke-linejoin="miter" fill="none" stroke="#000000" d="M 0 80.69513 L 192.2778 80.69513 "/>
<path transform="matrix(1,0,0,-1,192.4768,93.78287)" d="M 1.99252 0 L -1.19551 1.59401 L 0 0 L -1.19551 -1.59401 "/>
<path transform="matrix(1,0,0,-1,.199,174.478)" stroke-width="1" stroke-linecap="butt" stroke-miterlimit="10" stroke-linejoin="miter" fill="none" stroke="#000000" d="M 97.13516 0 L 97.13516 159.39775 "/>
<path transform="matrix(0,-1,-1,-0,97.33416,15.080246)" d="M 1.99252 0 L -1.19551 1.59401 L 0 0 L -1.19551 -1.59401 "/>
<symbol id="font_3_1">
<path d="M .57600006 0 C .59300008 0 .611 0 .611 .019999996 C .611 .040000008 .59300008 .040000008 .57600006 .040000008 L .035000005 .040000008 C .018 .040000008 0 .040000008 0 .019999996 C 0 0 .018 0 .035000005 0 L .57600006 0 Z "/>
</symbol>
<use xlink:href="#font_3_1" transform="matrix(9.9626,0,0,-9.9626,10.849896,103.5586)"/>
<symbol id="font_1_6">
<path d="M .24800003 .37400005 C .33 .40100003 .388 .47100006 .388 .55 C .388 .632 .3 .688 .204 .688 C .10300001 .688 .027000003 .628 .027000003 .55200007 C .027000003 .519 .049000004 .5 .078 .5 C .109000008 .5 .12900001 .522 .12900001 .55100008 C .12900001 .6010001 .082 .6010001 .067 .6010001 C .098 .65000006 .164 .66300007 .20000002 .66300007 C .24100003 .66300007 .29600004 .64100006 .29600004 .55100008 C .29600004 .53900006 .29400004 .48100005 .268 .43700005 C .238 .38900004 .204 .38600005 .17900002 .38500003 C .171 .38400004 .14700002 .38200004 .14000002 .38200004 C .132 .38100005 .125 .38000003 .125 .37000004 C .125 .35900004 .132 .35900004 .14900002 .35900004 L .19300002 .35900004 C .275 .35900004 .312 .29100005 .312 .193 C .312 .057000005 .24300003 .028 .199 .028 C .15600002 .028 .081 .045 .046000005 .104 C .081 .09900001 .11200001 .12100001 .11200001 .15900001 C .11200001 .19500001 .085 .215 .056 .215 C .031999999 .215 0 .201 0 .157 C 0 .06600001 .093 0 .20200002 0 C .32400004 0 .41500003 .091000009 .41500003 .193 C .41500003 .27500005 .35200004 .35300005 .24800003 .37400005 Z "/>
</symbol>
<use xlink:href="#font_1_6" transform="matrix(9.9626,0,0,-9.9626,18.190428,106.069179)"/>
<use xlink:href="#font_3_1" transform="matrix(9.9626,0,0,-9.9626,37.831899,103.5586)"/>
<symbol id="font_1_5">
<path d="M .07700001 .07700001 L .18300002 .18 C .33900003 .31800003 .39900003 .372 .39900003 .47200004 C .39900003 .586 .30900003 .666 .18700002 .666 C .074 .666 0 .574 0 .485 C 0 .42900003 .05 .42900003 .053000008 .42900003 C .07000001 .42900003 .105000007 .441 .105000007 .48200003 C .105000007 .508 .08700001 .53400006 .052000006 .53400006 C .044000005 .53400006 .042000008 .53400006 .039 .53300008 C .062000004 .59800007 .11600001 .63500007 .17400001 .63500007 C .26500003 .63500007 .308 .554 .308 .47200004 C .308 .39200003 .25800003 .31300003 .20300003 .25100003 L .011000004 .037 C 0 .026 0 .024 0 0 L .37100003 0 L .39900003 .17400001 L .374 .17400001 C .36900003 .14400001 .36200003 .1 .352 .085 C .345 .07700001 .279 .07700001 .257 .07700001 L .07700001 .07700001 Z "/>
</symbol>
<use xlink:href="#font_1_5" transform="matrix(9.9626,0,0,-9.9626,45.252134,105.85)"/>
<use xlink:href="#font_3_1" transform="matrix(9.9626,0,0,-9.9626,64.8129,103.5586)"/>
<symbol id="font_1_4">
<path d="M .205 .64000007 C .205 .66400006 .205 .666 .18200003 .666 C .120000008 .60200008 .032000007 .60200008 0 .60200008 L 0 .57100006 C .020000004 .57100006 .07900001 .57100006 .13100001 .597 L .13100001 .079 C .13100001 .043 .128 .031000002 .038000004 .031000002 L .0060000049 .031000002 L .0060000049 0 C .04100001 .003 .128 .003 .168 .003 C .20800002 .003 .29500003 .003 .33000005 0 L .33000005 .031000002 L .29800005 .031000002 C .20800002 .031000002 .205 .042000005 .205 .079 L .205 .64000007 Z "/>
</symbol>
<use xlink:href="#font_1_4" transform="matrix(9.9626,0,0,-9.9626,72.62167,105.85)"/>
<use xlink:href="#font_1_4" transform="matrix(9.9626,0,0,-9.9626,122.71067,105.85)"/>
<use xlink:href="#font_1_5" transform="matrix(9.9626,0,0,-9.9626,149.30413,105.85)"/>
<use xlink:href="#font_1_6" transform="matrix(9.9626,0,0,-9.9626,176.20543,106.069179)"/>
<use xlink:href="#font_3_1" transform="matrix(9.9626,0,0,-9.9626,79.7839,161.5326)"/>
<use xlink:href="#font_1_6" transform="matrix(9.9626,0,0,-9.9626,87.12443,164.04317)"/>
<use xlink:href="#font_3_1" transform="matrix(9.9626,0,0,-9.9626,79.7839,139.1176)"/>
<use xlink:href="#font_1_5" transform="matrix(9.9626,0,0,-9.9626,87.20413,141.409)"/>
<use xlink:href="#font_3_1" transform="matrix(9.9626,0,0,-9.9626,79.7839,116.70261)"/>
<use xlink:href="#font_1_4" transform="matrix(9.9626,0,0,-9.9626,87.592678,118.994)"/>
<use xlink:href="#font_1_4" transform="matrix(9.9626,0,0,-9.9626,87.592678,74.579)"/>
<use xlink:href="#font_1_5" transform="matrix(9.9626,0,0,-9.9626,87.20413,52.164)"/>
<use xlink:href="#font_1_6" transform="matrix(9.9626,0,0,-9.9626,87.12443,29.96817)"/>
<path transform="matrix(1,0,0,-1,.199,174.478)" d="M 131.5061 134.4919 C 131.5061 135.59236 130.61403 136.48445 129.51355 136.48445 C 128.41309 136.48445 127.521 135.59236 127.521 134.4919 C 127.521 133.39142 128.41309 132.49935 129.51355 132.49935 C 130.61403 132.49935 131.5061 133.39142 131.5061 134.4919 Z M 129.51355 134.4919 " fill="#800000"/>
<path transform="matrix(1,0,0,-1,.199,174.478)" stroke-width="1" stroke-linecap="butt" stroke-miterlimit="10" stroke-linejoin="miter" fill="none" stroke="#800000" d="M 131.5061 134.4919 C 131.5061 135.59236 130.61403 136.48445 129.51355 136.48445 C 128.41309 136.48445 127.521 135.59236 127.521 134.4919 C 127.521 133.39142 128.41309 132.49935 129.51355 132.49935 C 130.61403 132.49935 131.5061 133.39142 131.5061 134.4919 Z M 129.51355 134.4919 "/>
<use xlink:href="#font_2_2" transform="matrix(9.9626,0,0,-9.9626,198.31891,96.02059)"/>
<use xlink:href="#font_2_3" transform="matrix(9.9626,0,0,-9.9626,95.016918,9.652334)"/>
</svg>
