<?xml version="1.0" encoding="UTF-8" standalone="no"?>
<!DOCTYPE svg PUBLIC "-//W3C//DTD SVG 1.1//EN" "http://www.w3.org/Graphics/SVG/1.1/DTD/svg11.dtd">
<svg xmlns="http://www.w3.org/2000/svg" xmlns:xlink="http://www.w3.org/1999/xlink" version="1.1" width="279.148pt" height="63.128pt" viewBox="0 0 279.148 63.128">
<symbol id="font_0_1">
<path d="M .057000005 .05099988 C .065000008 .05099988 .073 .052999975 .08 .055999996 C .132 .08099985 .09900001 .16699982 .04 .14499998 C 0 .1309998 .003999997 .08099985 .023000002 .051999809 C .047 .015999794 .096 0 .13700001 .0059998037 C .18800001 .0149998669 .222 .058999778 .24600002 .10099983 C .29900003 .194 .324 .30299986 .35000003 .4059999 C .41500003 .6639999 .47300006 .9239999 .523 1.185 C .57100006 1.433 .605 1.686 .66 1.927 C .675 1.99 .69000008 2.053 .71400007 2.113 C .72300007 2.137 .734 2.161 .75000008 2.181 C .758 2.191 .768 2.201 .78000006 2.204 C .794 2.208 .81200006 2.203 .82500007 2.197 C .83400008 2.193 .84300008 2.188 .85 2.181 C .84200009 2.181 .83400008 2.179 .827 2.1759999 C .77500006 2.151 .808 2.065 .86700007 2.087 C .90700009 2.101 .90300008 2.151 .88400009 2.18 C .86 2.216 .81100007 2.232 .77000007 2.226 C .71900007 2.217 .685 2.173 .661 2.131 C .60800006 2.038 .583 1.929 .55700007 1.826 C .49200005 1.568 .43400003 1.308 .384 1.0469999 C .33600004 .7989999 .30200003 .5459999 .24700001 .30499996 C .23200003 .24199987 .21700001 .1789999 .193 .11899996 C .184 .09499979 .17300001 .07099986 .157 .05099988 C .149 .04099989 .139 .030999899 .127 .027999878 C .113000009 .02399993 .095 .028999806 .082 .034999849 C .073 .038999797 .064 .04399991 .057000005 .05099988 Z "/>
</symbol>
<use xlink:href="#font_0_1" transform="matrix(19.9252,0,0,-19.9252,7.5575659,53.593423)" fill="#007d4d"/>
<symbol id="font_1_1">
<path d="M .36 .386 C .33400003 .38 .31800003 .359 .31800003 .33900003 C .31800003 .316 .338 .307 .351 .307 C .361 .307 .39900003 .313 .39900003 .364 C .39900003 .42900003 .32700003 .451 .266 .451 C .11000001 .451 .08200001 .336 .08200001 .305 C .08200001 .268 .10300001 .24400002 .117000009 .23200003 C .143 .21200001 .16100002 .20800002 .23000002 .19600001 C .25100003 .19200002 .315 .18 .315 .13000001 C .315 .113000009 .30400003 .075 .262 .050000006 C .22299999 .028 .174 .028 .162 .028 C .122 .028 .065000008 .037 .042000005 .07 C .07500001 .074 .09700001 .099 .09700001 .127 C .09700001 .15200001 .079 .16400002 .058000007 .16400002 C .029 .16400002 0 .14100002 0 .097 C 0 .037 .064 0 .16100002 0 C .345 0 .379 .126 .379 .165 C .379 .257 .278 .275 .241 .282 C .232 .284 .20700002 .28800003 .201 .29 C .164 .297 .146 .31800003 .146 .34 C .146 .363 .164 .39000003 .18599999 .404 C .213 .421 .248 .423 .26500003 .423 C .286 .423 .338 .42000003 .36 .386 Z "/>
</symbol>
<use xlink:href="#font_1_1" transform="matrix(13.9476,0,0,-13.9476,27.557288,14.28548)" fill="#007d4d"/>
<symbol id="font_2_2">
<path d="M .25500003 .63600006 C .25500003 .666 .252 .666 .21900001 .666 C .148 .60200008 .037 .60200008 .017000005 .60200008 L 0 .60200008 L 0 .558 L .017000005 .558 C .040000008 .558 .105000007 .56100007 .16300002 .586 L .16300002 .086 C .16300002 .055000005 .16300002 .044000005 .056999998 .044000005 L .0069999995 .044000005 L .0069999995 0 C .062000008 .004 .151 .004 .20900002 .004 C .26700003 .004 .356 .004 .411 0 L .411 .044000005 L .361 .044000005 C .25500003 .044000005 .25500003 .055000005 .25500003 .086 L .25500003 .63600006 Z "/>
</symbol>
<use xlink:href="#font_2_2" transform="matrix(9.9626,0,0,-9.9626,35.511659,16.138)" fill="#007d4d"/>
<use xlink:href="#font_1_1" transform="matrix(13.9476,0,0,-13.9476,18.701289,54.633478)" fill="#007d4d"/>
<symbol id="font_2_1">
<path d="M .522 .34200005 C .522 .41400004 .522 .688 .261 .688 C 0 .688 0 .41400004 0 .34200005 C 0 .26900003 0 0 .261 0 C .522 0 .522 .26900003 .522 .34200005 M .261 .033000005 C .224 .033000005 .14000002 .046000005 .115 .147 C .101 .201 .1 .272 .1 .35400004 C .1 .42800004 .1 .49700005 .116000007 .554 C .141 .6380001 .21800003 .65500006 .261 .65500006 C .33500005 .65500006 .388 .61700007 .40800003 .54700008 C .42200006 .49600006 .42200006 .41300006 .42200006 .35400004 C .42200006 .286 .42200006 .20500002 .40700004 .14500001 C .381 .048 .30100004 .033000005 .261 .033000005 Z "/>
</symbol>
<use xlink:href="#font_2_1" transform="matrix(9.9626,0,0,-9.9626,26.018054,56.707178)" fill="#007d4d"/>
<symbol id="font_3_1">
<path d="M .265 .32500003 L .362 .32500003 C .43700005 .32500003 .445 .30900003 .445 .28 C .445 .273 .445 .261 .43800003 .231 C .43600006 .22600001 .435 .22200002 .435 .22000002 C .435 .21200001 .44100005 .208 .44700004 .208 C .45700003 .208 .45700003 .21100001 .462 .22900002 L .517 .446 C .52000007 .45700003 .52000007 .45900003 .52000007 .462 C .52000007 .46400003 .51800009 .47300003 .508 .47300003 C .49800004 .47300003 .49700005 .46800003 .49300004 .45200003 C .47200007 .374 .449 .356 .36400003 .356 L .273 .356 L .337 .61 C .34600003 .64500007 .347 .64900007 .39100004 .64900007 L .52300009 .64900007 C .646 .64900007 .669 .61600008 .669 .53900006 C .669 .51600006 .669 .512 .66600009 .485 C .66400006 .47200004 .66400006 .47000004 .66400006 .467 C .66400006 .462 .66700008 .455 .67600008 .455 C .68700006 .455 .688 .46100004 .69000008 .48000003 L .71000006 .65300008 C .71300008 .68 .70800009 .68 .683 .68 L .193 .68 C .17300001 .68 .163 .68 .163 .66 C .163 .64900007 .172 .64900007 .19100002 .64900007 C .228 .64900007 .25599999 .64900007 .25599999 .63100007 C .25599999 .62700006 .25599999 .625 .251 .60700008 L .119 .078 C .109 .039 .10700001 .031000002 .027999998 .031000002 C .011 .031000002 0 .031000002 0 .012 C 0 0 .011999998 0 .015000001 0 C .044 0 .118 .003 .147 .003 C .18 .003 .263 0 .296 0 C .305 0 .31700004 0 .31700004 .019000002 C .31700004 .027 .311 .029000001 .311 .030000002 C .30800004 .031000002 .306 .031000002 .283 .031000002 C .26100005 .031000002 .25599999 .031000002 .23100002 .033 C .202 .036000004 .19900002 .040000004 .19900002 .053000004 C .19900002 .055000005 .19900002 .061000006 .20300001 .076000008 L .265 .32500003 Z "/>
</symbol>
<use xlink:href="#font_3_1" transform="matrix(19.9252,0,0,-19.9252,46.938165,36.339998)" fill="#56008f"/>
<symbol id="font_4_1">
<path d="M .23200003 .00999999 C .23200003 .012999982 .23200003 .014999986 .215 .03199999 C .09 .15799999 .058 .347 .058 .5 C .058 .674 .096 .84800007 .21900001 .97300007 C .23200003 .985 .23200003 .98700007 .23200003 .99 C .23200003 .99700006 .22800002 1 .222 1 C .21200001 1 .12200001 .93200007 .06299999 .805 C .012000002 .69500008 0 .584 0 .5 C 0 .422 .011 .301 .066 .188 C .126 .065 .21200001 0 .222 0 C .22800002 0 .23200003 .0029999912 .23200003 .00999999 Z "/>
</symbol>
<use xlink:href="#font_4_1" transform="matrix(19.9252,0,0,-19.9252,63.733606,41.321298)" fill="#56008f"/>
<symbol id="font_3_4">
<path d="M .33900006 .38500003 C .311 .38400004 .291 .36200003 .291 .34000004 C .291 .32600004 .3 .31100003 .32200004 .31100003 C .34400005 .31100003 .36800004 .328 .36800004 .367 C .36800004 .41200004 .325 .45300005 .24900003 .45300005 C .11700001 .45300005 .08 .351 .08 .307 C .08 .22900002 .15400002 .21400002 .18300002 .20800002 C .235 .19800002 .287 .18700002 .287 .13200002 C .287 .106000009 .264 .022000002 .14400001 .022000002 C .13000001 .022000002 .053000004 .022000002 .030000002 .075 C .068 .07000001 .09300001 .1 .09300001 .128 C .09300001 .15100001 .07700001 .16300002 .056 .16300002 C .030000002 .16300002 0 .14200002 0 .097 C 0 .040000004 .057000005 0 .143 0 C .305 0 .34400005 .12100001 .34400005 .16600001 C .34400005 .20200002 .325 .22700002 .31300003 .23900002 C .286 .26700003 .25700004 .272 .21300002 .28100003 C .17700002 .28900004 .13700001 .29600004 .13700001 .34100003 C .13700001 .37000004 .16100002 .43100003 .24900003 .43100003 C .274 .43100003 .324 .42400003 .33900006 .38500003 Z "/>
</symbol>
<use xlink:href="#font_3_4" transform="matrix(19.9252,0,0,-19.9252,70.54512,36.559175)" fill="#56008f"/>
<symbol id="font_4_2">
<path d="M .232 .5 C .232 .578 .22100002 .699 .16600001 .81200006 C .106 .93500009 .020000004 1 .009999998 1 C .0040000008 1 0 .99600008 0 .99 C 0 .98700007 0 .985 .019000002 .967 C .117000009 .86800006 .174 .709 .174 .5 C .174 .329 .137 .153 .012999997 .026999996 C 0 .014999986 0 .012999982 0 .00999999 C 0 .003999993 .0040000008 0 .009999998 0 C .020000004 0 .11000001 .06799999 .169 .195 C .22 .305 .232 .416 .232 .5 Z "/>
</symbol>
<use xlink:href="#font_4_2" transform="matrix(19.9252,0,0,-19.9252,79.98475,41.321298)" fill="#56008f"/>
<symbol id="font_3_2">
<path d="M .47600005 .694 C .47600005 .695 .47600005 .705 .46300004 .705 C .44800005 .705 .35300002 .69600006 .33600004 .694 C .32800005 .693 .32200004 .688 .32200004 .675 C .32200004 .663 .33100004 .663 .34600003 .663 C .39400003 .663 .39600004 .656 .39600004 .646 L .39300005 .626 L .33300004 .38900004 C .31500004 .42600004 .286 .45300005 .24100001 .45300005 C .124 .45300005 0 .30600003 0 .16000001 C 0 .06600001 .055000005 0 .133 0 C .153 0 .20300001 .0040000008 .263 .075 C .27100004 .033000005 .30600003 0 .35400004 0 C .38900004 0 .41200004 .023000002 .42800004 .055000005 C .44500003 .091000009 .45800004 .15200001 .45800004 .15400002 C .45800004 .16400002 .44900004 .16400002 .44600005 .16400002 C .43600003 .16400002 .43500004 .16000001 .43200005 .14600002 C .41500003 .081 .397 .022000002 .35600005 .022000002 C .32900004 .022000002 .32600004 .048 .32600004 .068 C .32600004 .092 .32800005 .09900001 .33200003 .116000007 L .47600005 .694 M .26800005 .13000001 C .263 .112 .263 .11000001 .24800001 .093 C .20400001 .038000004 .163 .022000002 .135 .022000002 C .08499999 .022000002 .07100001 .077 .07100001 .116000007 C .07100001 .16600001 .103 .28900004 .126 .335 C .157 .39400003 .202 .43100003 .242 .43100003 C .307 .43100003 .32100005 .34900005 .32100005 .34300003 C .32100005 .337 .31900005 .33100004 .31800003 .32600004 L .26800005 .13000001 Z "/>
</symbol>
<use xlink:href="#font_3_2" transform="matrix(19.9252,0,0,-19.9252,90.71602,36.559175)" fill="#007d4d"/>
<use xlink:href="#font_3_4" transform="matrix(19.9252,0,0,-19.9252,101.33615,36.559175)" fill="#007d4d"/>
<symbol id="font_4_4">
<path d="M .63100007 .19400002 C .646 .19400002 .665 .19400002 .665 .214 C .665 .23400001 .646 .23400001 .632 .23400001 L .033 .23400001 C .019000002 .23400001 0 .23400001 0 .214 C 0 .19400002 .019000002 .19400002 .034 .19400002 L .63100007 .19400002 M .632 0 C .646 0 .665 0 .665 .02000001 C .665 .040000008 .646 .040000008 .63100007 .040000008 L .034 .040000008 C .019000002 .040000008 0 .040000008 0 .02000001 C 0 0 .019000002 0 .033 0 L .632 0 Z "/>
</symbol>
<use xlink:href="#font_4_4" transform="matrix(19.9252,0,0,-19.9252,116.28083,33.689947)"/>
<symbol id="font_3_3">
<path d="M .059000009 .07000001 C .056 .055000005 .050000006 .032 .050000006 .027000003 C .050000006 .009000001 .064 0 .079 0 C .091000009 0 .10900001 .008000001 .11600001 .028 C .11700001 .030000002 .12900001 .077 .135 .102000009 L .157 .19200002 C .163 .21400002 .16900002 .23600002 .17400001 .259 C .17800002 .27600003 .186 .305 .187 .30900003 C .202 .34000004 .255 .43100003 .35 .43100003 C .395 .43100003 .404 .39400003 .404 .36100004 C .404 .33600004 .397 .30800004 .389 .27800004 L .361 .16200002 L .341 .086 C .337 .06600001 .328 .032 .328 .027000003 C .328 .009000001 .342 0 .357 0 C .388 0 .394 .025000003 .402 .057000005 C .416 .113000009 .453 .259 .462 .298 C .465 .31100003 .51800009 .43100003 .62700006 .43100003 C .6700001 .43100003 .68100008 .397 .68100008 .36100004 C .68100008 .30400003 .63900008 .19000001 .619 .13700001 C .6100001 .113000009 .60600009 .102000009 .60600009 .082 C .60600009 .035 .64100006 0 .688 0 C .78200009 0 .81900009 .14600002 .81900009 .15400002 C .81900009 .16400002 .81000009 .16400002 .80700007 .16400002 C .79700008 .16400002 .79700008 .16100002 .79200008 .14600002 C .77700009 .093 .74500009 .022000002 .69000008 .022000002 C .67300006 .022000002 .66600009 .032 .66600009 .055000005 C .66600009 .080000009 .6750001 .104 .6840001 .126 C .70300009 .17800002 .74500009 .28900004 .74500009 .34600003 C .74500009 .411 .70500007 .45300005 .63000008 .45300005 C .55500009 .45300005 .50400009 .40900005 .467 .35600005 C .46600003 .36900003 .463 .40300004 .435 .42700003 C .41 .448 .378 .45300005 .35300002 .45300005 C .263 .45300005 .21400002 .38900004 .19700001 .36600004 C .19200002 .42300005 .15 .45300005 .105000007 .45300005 C .059000009 .45300005 .040000008 .41400004 .031000002 .39600004 C .013000002 .36100004 0 .30200003 0 .29900003 C 0 .28900004 .01 .28900004 .012 .28900004 C .022000002 .28900004 .023 .29000003 .029000001 .31200005 C .046000005 .38300003 .06600001 .43100003 .10200001 .43100003 C .118 .43100003 .133 .42300005 .133 .38500003 C .133 .36400003 .13000001 .35300002 .11700001 .30100004 L .059000009 .07000001 Z "/>
</symbol>
<use xlink:href="#font_3_3" transform="matrix(19.9252,0,0,-19.9252,139.16486,23.079178)" fill="#004db3"/>
<symbol id="font_5_2">
<path d="M .106 .05299999 C .106 .082 .08200001 .10599999 .05300001 .10599999 C .024000004 .10599999 0 .082 0 .05299999 C 0 .024000004 .024000004 0 .05300001 0 C .08200001 0 .106 .024000004 .106 .05299999 Z "/>
</symbol>
<use xlink:href="#font_5_2" transform="matrix(19.9252,0,0,-19.9252,162.22458,18.934737)" fill="#004db3"/>
<symbol id="font_3_5">
<path d="M .439 .38300003 C .439 .43700005 .41300003 .45300005 .395 .45300005 C .37 .45300005 .34600003 .42700003 .34600003 .40500004 C .34600003 .39200003 .351 .38600005 .36200003 .37500004 C .38300003 .35500003 .396 .32900004 .396 .293 C .396 .25100003 .335 .022000002 .21800001 .022000002 C .16700001 .022000002 .14400001 .057000005 .14400001 .109000008 C .14400001 .16500002 .171 .23800002 .202 .321 C .209 .33800004 .21400002 .35200004 .21400002 .37100003 C .21400002 .41600005 .18200001 .45300005 .13200002 .45300005 C .038000004 .45300005 0 .30800004 0 .29900003 C 0 .28900004 .01 .28900004 .012 .28900004 C .022000002 .28900004 .023 .291 .028000003 .307 C .057000005 .40800003 .10000001 .43100003 .12900001 .43100003 C .13700001 .43100003 .15400002 .43100003 .15400002 .39900003 C .15400002 .374 .14400001 .34700004 .13700001 .32900004 C .09300001 .21300002 .080000009 .16700001 .080000009 .124000009 C .080000009 .016 .16800002 0 .21400002 0 C .382 0 .439 .33100004 .439 .38300003 Z "/>
</symbol>
<use xlink:href="#font_3_5" transform="matrix(19.9252,0,0,-19.9252,171.05086,23.079178)" fill="#004db3"/>
<symbol id="font_6_3">
<path d="M .442 .18200001 L .40800003 .18200001 C .40500004 .16000001 .39500005 .101 .38200004 .091000009 C .374 .085 .29700003 .085 .28300003 .085 L .099 .085 C .20400003 .178 .23900002 .20600002 .29900003 .25300003 C .37300004 .312 .442 .374 .442 .469 C .442 .59000006 .33600004 .66400006 .20800004 .66400006 C .084 .66400006 0 .577 0 .485 C 0 .43400003 .043000007 .42900003 .053000004 .42900003 C .077 .42900003 .10600001 .446 .10600001 .48200003 C .10600001 .5 .099 .535 .047000007 .535 C .078 .606 .146 .628 .19300002 .628 C .293 .628 .34500004 .55 .34500004 .469 C .34500004 .38200004 .28300003 .31300003 .25100003 .277 L .010000005 .039 C 0 .030000002 0 .028 0 0 L .41200004 0 L .442 .18200001 Z "/>
</symbol>
<symbol id="font_6_2">
<path d="M .22600001 .63600006 C .22600001 .66300007 .224 .66400006 .19600001 .66400006 C .132 .601 .041 .6 0 .6 L 0 .564 C .023999997 .564 .09000001 .564 .14500001 .592 L .14500001 .082 C .14500001 .049000004 .14500001 .036000004 .04500001 .036000004 L .0069999995 .036000004 L .0069999995 0 C .024999999 .001 .148 .004 .185 .004 C .21600002 .004 .34200005 .001 .36400003 0 L .36400003 .036000004 L .32600004 .036000004 C .22600001 .036000004 .22600001 .049000004 .22600001 .082 L .22600001 .63600006 Z "/>
</symbol>
<use xlink:href="#font_6_3" transform="matrix(13.9476,0,0,-13.9476,181.72371,15.629997)" fill="#004db3"/>
<use xlink:href="#font_6_2" transform="matrix(13.9476,0,0,-13.9476,181.6513,27.805996)" fill="#004db3"/>
<path transform="matrix(2,0,0,-2,138.587,31.358002)" stroke-width="1" stroke-linecap="butt" stroke-miterlimit="10" stroke-linejoin="miter" fill="none" stroke="#004db3" d="M 0 0 L 25.598 0 "/>
<symbol id="font_4_3">
<path d="M .07700001 .07700001 L .18300002 .18 C .33900003 .31800003 .39900003 .372 .39900003 .47200004 C .39900003 .586 .30900003 .666 .18700002 .666 C .074 .666 0 .574 0 .485 C 0 .42900003 .05 .42900003 .053000008 .42900003 C .07000001 .42900003 .105000007 .441 .105000007 .48200003 C .105000007 .508 .08700001 .53400006 .052000006 .53400006 C .044000005 .53400006 .042000008 .53400006 .039 .53300008 C .062000004 .59800007 .11600001 .63500007 .17400001 .63500007 C .26500003 .63500007 .308 .554 .308 .47200004 C .308 .39200003 .25800003 .31300003 .20300003 .25100003 L .011000004 .037 C 0 .026 0 .024 0 0 L .37100003 0 L .39900003 .17400001 L .374 .17400001 C .36900003 .14400001 .36200003 .1 .352 .085 C .345 .07700001 .279 .07700001 .257 .07700001 L .07700001 .07700001 Z "/>
</symbol>
<use xlink:href="#font_4_3" transform="matrix(19.9252,0,0,-19.9252,160.20127,50.008)" fill="#004db3"/>
<symbol id="font_5_1">
<path d="M .57600006 0 C .59300008 0 .611 0 .611 .019999996 C .611 .040000008 .59300008 .040000008 .57600006 .040000008 L .035000005 .040000008 C .018 .040000008 0 .040000008 0 .019999996 C 0 0 .018 0 .035000005 0 L .57600006 0 Z "/>
</symbol>
<use xlink:href="#font_5_1" transform="matrix(19.9252,0,0,-19.9252,198.25679,31.757205)" fill="#004db3"/>
<use xlink:href="#font_3_3" transform="matrix(19.9252,0,0,-19.9252,219.49683,23.079178)" fill="#004db3"/>
<use xlink:href="#font_5_2" transform="matrix(19.9252,0,0,-19.9252,242.55655,18.934737)" fill="#004db3"/>
<use xlink:href="#font_3_5" transform="matrix(19.9252,0,0,-19.9252,251.38283,23.079178)" fill="#004db3"/>
<symbol id="font_6_1">
<path d="M .46400006 .33900003 C .46400006 .44900004 .45100004 .528 .40500004 .598 C .374 .644 .31200005 .684 .23200001 .684 C 0 .684 0 .41100005 0 .33900003 C 0 .26700003 0 0 .23200001 0 C .46400006 0 .46400006 .26700003 .46400006 .33900003 M .23200001 .028 C .186 .028 .125 .055 .105000007 .13700001 C .091000009 .19600001 .091000009 .27800004 .091000009 .35200004 C .091000009 .42500005 .091000009 .50100007 .106000009 .556 C .127 .635 .19100002 .656 .23200001 .656 C .286 .656 .338 .623 .356 .565 C .37200005 .51100006 .37300004 .43900005 .37300004 .35200004 C .37300004 .27800004 .37300004 .20400001 .36 .141 C .34000004 .050000006 .272 .028 .23200001 .028 Z "/>
</symbol>
<use xlink:href="#font_6_3" transform="matrix(13.9476,0,0,-13.9476,262.0557,15.629997)" fill="#004db3"/>
<use xlink:href="#font_6_1" transform="matrix(13.9476,0,0,-13.9476,261.1883,28.084948)" fill="#004db3"/>
<path transform="matrix(2,0,0,-2,218.919,31.358002)" stroke-width="1" stroke-linecap="butt" stroke-miterlimit="10" stroke-linejoin="miter" fill="none" stroke="#004db3" d="M 0 0 L 25.598 0 "/>
<use xlink:href="#font_4_3" transform="matrix(19.9252,0,0,-19.9252,240.53327,50.008)" fill="#004db3"/>
</svg>
