<?xml version="1.0" encoding="UTF-8" standalone="no"?>
<!DOCTYPE svg PUBLIC "-//W3C//DTD SVG 1.1//EN" "http://www.w3.org/Graphics/SVG/1.1/DTD/svg11.dtd">
<svg xmlns="http://www.w3.org/2000/svg" xmlns:xlink="http://www.w3.org/1999/xlink" version="1.1" width="167.848pt" height="174.835pt" viewBox="0 0 167.848 174.835">
<path transform="matrix(1,0,0,-1,.199,174.636)" stroke-width="1" stroke-linecap="butt" stroke-miterlimit="10" stroke-linejoin="miter" fill="none" stroke="#808080" d="M 12.91164 75.34383 L 12.91164 79.59593 M 45.19077 75.34383 L 45.19077 79.59593 M 109.74901 75.34383 L 109.74901 79.59593 M 142.02812 75.34383 L 142.02812 79.59593 "/>
<path transform="matrix(1,0,0,-1,.199,174.636)" stroke-width="1" stroke-linecap="butt" stroke-miterlimit="10" stroke-linejoin="miter" fill="none" stroke="#808080" d="M 75.34383 12.91164 L 79.59593 12.91164 M 75.34383 45.19077 L 79.59593 45.19077 M 75.34383 109.74901 L 79.59593 109.74901 M 75.34383 142.02812 L 79.59593 142.02812 "/>
<path transform="matrix(1,0,0,-1,.199,174.636)" stroke-width="1" stroke-linecap="butt" stroke-miterlimit="10" stroke-linejoin="miter" fill="none" stroke="#000000" d="M 0 77.46988 L 152.94725 77.46988 "/>
<path transform="matrix(1,0,0,-1,153.14626,97.16612)" d="M 1.99252 0 L -1.19551 1.59401 L 0 0 L -1.19551 -1.59401 "/>
<path transform="matrix(1,0,0,-1,.199,174.636)" stroke-width="1" stroke-linecap="butt" stroke-miterlimit="10" stroke-linejoin="miter" fill="none" stroke="#000000" d="M 77.46988 0 L 77.46988 159.40308 "/>
<path transform="matrix(0,-1,-1,-0,77.66888,15.232925)" d="M 1.99252 0 L -1.19551 1.59401 L 0 0 L -1.19551 -1.59401 "/>
<symbol id="font_0_1">
<path d="M .57600006 0 C .59300008 0 .611 0 .611 .019999996 C .611 .040000008 .59300008 .040000008 .57600006 .040000008 L .035000005 .040000008 C .018 .040000008 0 .040000008 0 .019999996 C 0 0 .018 0 .035000005 0 L .57600006 0 Z "/>
</symbol>
<use xlink:href="#font_0_1" transform="matrix(9.9626,0,0,-9.9626,7.5728957,107.015598)"/>
<symbol id="font_1_4">
<path d="M .205 .64000007 C .205 .66400006 .205 .666 .18200003 .666 C .120000008 .60200008 .032000007 .60200008 0 .60200008 L 0 .57100006 C .020000004 .57100006 .07900001 .57100006 .13100001 .597 L .13100001 .079 C .13100001 .043 .128 .031000002 .038000004 .031000002 L .0060000049 .031000002 L .0060000049 0 C .04100001 .003 .128 .003 .168 .003 C .20800002 .003 .29500003 .003 .33000005 0 L .33000005 .031000002 L .29800005 .031000002 C .20800002 .031000002 .205 .042000005 .205 .079 L .205 .64000007 Z "/>
</symbol>
<use xlink:href="#font_1_4" transform="matrix(9.9626,0,0,-9.9626,15.380671,109.30699)"/>
<use xlink:href="#font_0_1" transform="matrix(9.9626,0,0,-9.9626,35.9769,107.015598)"/>
<symbol id="font_1_3">
<path d="M .421 .34200005 C .421 .42200003 .416 .50200006 .381 .57600006 C .335 .67200008 .25300003 .688 .211 .688 C .15100001 .688 .07800001 .66200008 .037000006 .56900009 C .0050000029 .5 0 .42200003 0 .34200005 C 0 .26700003 .0040000008 .177 .045000007 .101 C .088 .020000002 .161 0 .21000001 0 C .264 0 .34 .021000002 .384 .116000007 C .416 .185 .421 .263 .421 .34200005 M .21000001 .022000002 C .171 .022000002 .112 .047000003 .094 .143 C .083000008 .20300001 .083000008 .29500003 .083000008 .35400004 C .083000008 .41800005 .083000008 .48400004 .091000009 .53800007 C .11 .65700009 .185 .66600009 .21000001 .66600009 C .243 .66600009 .30900003 .64800009 .328 .549 C .338 .49300004 .338 .41700004 .338 .35400004 C .338 .279 .338 .21100001 .32700003 .147 C .312 .052 .255 .022000002 .21000001 .022000002 Z "/>
</symbol>
<use xlink:href="#font_1_3" transform="matrix(9.9626,0,0,-9.9626,43.287546,109.52617)"/>
<symbol id="font_2_1">
<path d="M .106 .053000004 C .106 .082 .08200001 .106000009 .05300001 .106000009 C .024000004 .106000009 0 .082 0 .053000004 C 0 .024 .024000004 0 .05300001 0 C .08200001 0 .106 .024 .106 .053000004 Z "/>
</symbol>
<use xlink:href="#font_2_1" transform="matrix(9.9626,0,0,-9.9626,48.736787,109.30699)"/>
<symbol id="font_1_5">
<path d="M .39900003 .223 C .39900003 .34200005 .317 .44200004 .209 .44200004 C .16100002 .44200004 .118000019 .42600004 .082 .39100004 L .082 .586 C .10200001 .58000007 .135 .573 .16700001 .573 C .29 .573 .36 .66400006 .36 .67700007 C .36 .683 .357 .688 .35 .688 C .349 .688 .347 .688 .342 .68500009 C .322 .67600008 .273 .656 .20600002 .656 C .16600001 .656 .120000008 .66300007 .073 .6840001 C .065 .68700006 .06300001 .68700006 .061000009 .68700006 C .051000004 .68700006 .051000004 .679 .051000004 .66300007 L .051000004 .36700005 C .051000004 .34900005 .051000004 .34100003 .065 .34100003 C .07200001 .34100003 .074 .34400005 .07800001 .35000003 C .08900002 .36600004 .12600002 .42000006 .207 .42000006 C .259 .42000006 .284 .37400005 .292 .35600005 C .308 .31900005 .31 .28000004 .31 .23 C .31 .19500001 .31 .135 .286 .093 C .262 .054000006 .22500001 .028 .17900002 .028 C .106000009 .028 .049000008 .08100001 .032 .14000002 C .035 .13900002 .038000008 .13800001 .049000008 .13800001 C .082 .13800001 .09900001 .163 .09900001 .187 C .09900001 .21100001 .082 .23600002 .049000008 .23600002 C .035 .23600002 0 .22900002 0 .18300002 C 0 .097 .069000009 0 .18100001 0 C .297 0 .39900003 .096 .39900003 .223 Z "/>
</symbol>
<use xlink:href="#font_1_5" transform="matrix(9.9626,0,0,-9.9626,51.146135,109.52617)"/>
<use xlink:href="#font_1_3" transform="matrix(9.9626,0,0,-9.9626,103.97054,109.52617)"/>
<use xlink:href="#font_2_1" transform="matrix(9.9626,0,0,-9.9626,109.419788,109.30699)"/>
<use xlink:href="#font_1_5" transform="matrix(9.9626,0,0,-9.9626,111.82913,109.52617)"/>
<use xlink:href="#font_1_4" transform="matrix(9.9626,0,0,-9.9626,140.62168,109.30699)"/>
<use xlink:href="#font_0_1" transform="matrix(9.9626,0,0,-9.9626,60.0459,162.2276)"/>
<use xlink:href="#font_1_4" transform="matrix(9.9626,0,0,-9.9626,67.853679,164.519)"/>
<use xlink:href="#font_0_1" transform="matrix(9.9626,0,0,-9.9626,52.296899,129.9496)"/>
<use xlink:href="#font_1_3" transform="matrix(9.9626,0,0,-9.9626,59.607545,132.46018)"/>
<use xlink:href="#font_2_1" transform="matrix(9.9626,0,0,-9.9626,65.056789,132.241)"/>
<use xlink:href="#font_1_5" transform="matrix(9.9626,0,0,-9.9626,67.46513,132.46018)"/>
<use xlink:href="#font_1_3" transform="matrix(9.9626,0,0,-9.9626,59.607545,68.31717)"/>
<use xlink:href="#font_2_1" transform="matrix(9.9626,0,0,-9.9626,65.056789,68.09799)"/>
<use xlink:href="#font_1_5" transform="matrix(9.9626,0,0,-9.9626,67.46513,68.31717)"/>
<use xlink:href="#font_1_4" transform="matrix(9.9626,0,0,-9.9626,67.85367,35.820009)"/>
<clipPath id="cp3">
<path transform="matrix(1,0,0,-1,.199,174.636)" d="M 0 0 L 154.93978 0 L 154.93978 161.3956 L 0 161.3956 Z "/>
</clipPath>
<g clip-path="url(#cp3)">
<path transform="matrix(1,0,0,-1,.199,174.636)" stroke-width="1.19553" stroke-linecap="butt" stroke-miterlimit="10" stroke-linejoin="miter" fill="none" stroke="#800080" d="M 142.02812 77.46988 C 142.02812 77.46988 141.02864 89.7002 139.82863 94.17885 C 138.62862 98.6575 135.69768 105.73361 133.37924 109.74901 C 131.06082 113.76439 126.39764 119.84036 123.119 123.119 C 119.84036 126.39764 113.76439 131.06082 109.74901 133.37924 C 105.73361 135.69768 98.6575 138.62862 94.17885 139.82863 C 89.7002 141.02864 82.10655 142.02812 77.46988 142.02812 C 72.83322 142.02812 65.23956 141.02864 60.7609 139.82863 C 56.28224 138.62862 49.20615 135.69768 45.19077 133.37924 C 41.17537 131.06082 35.09938 126.39764 31.82074 123.119 C 28.5421 119.84036 23.87892 113.76439 21.5605 109.74901 C 19.24208 105.73361 16.31113 98.6575 15.11113 94.17885 C 13.91112 89.7002 12.91164 82.10655 12.91164 77.46988 C 12.91164 72.83322 13.91112 65.23956 15.11113 60.7609 C 16.31113 56.28224 19.24208 49.20615 21.5605 45.19077 C 23.87892 41.17537 28.5421 35.09938 31.82074 31.82074 C 35.09938 28.5421 41.17537 23.87892 45.19077 21.5605 C 49.20615 19.24208 56.28224 16.31113 60.7609 15.11113 C 65.23956 13.91112 72.83322 12.91164 77.46988 12.91164 C 82.10655 12.91164 89.7002 13.91112 94.17885 15.11113 C 98.6575 16.31113 105.73361 19.24208 109.74901 21.5605 C 113.76439 23.87892 119.84036 28.5421 123.119 31.82074 C 126.39764 35.09938 131.06082 41.17537 133.37924 45.19077 C 135.69768 49.20615 138.62862 56.28224 139.82863 60.7609 C 141.02864 65.23956 142.02812 77.46988 142.02812 77.46988 "/>
<path transform="matrix(1,0,0,-1,.199,174.636)" stroke-width="1.19553" stroke-linecap="butt" stroke-miterlimit="10" stroke-linejoin="miter" fill="none" stroke="#008000" d="M 77.46988 77.46988 C 77.46988 77.46988 78.44162 79.15097 78.81483 79.79665 C 79.18803 80.44232 79.78659 81.47778 80.15979 82.12344 C 80.533 82.76912 81.13155 83.80457 81.50476 84.45023 C 81.87798 85.09589 82.4765 86.13133 82.84972 86.77701 C 83.22292 87.42268 83.82149 88.45811 84.19469 89.10379 C 84.5679 89.74947 85.16643 90.7849 85.53964 91.43057 C 85.91284 92.07625 86.5114 93.11168 86.8846 93.75735 C 87.25781 94.40303 87.85635 95.43846 88.22957 96.08414 C 88.60278 96.72981 89.20131 97.76526 89.57452 98.41092 C 89.94772 99.0566 90.54628 100.09206 90.91948 100.73772 C 91.2927 101.38338 91.89124 102.41882 92.26445 103.06448 C 92.63765 103.71014 93.2362 104.74559 93.6094 105.39127 C 93.98262 106.03694 94.58115 107.07239 94.95436 107.71805 C 95.32758 108.36371 95.92612 109.39914 96.29933 110.04482 C 96.67253 110.69049 97.27109 111.72594 97.64429 112.37161 C 98.0175 113.01729 98.61604 114.05275 98.98926 114.69841 C 99.36246 115.34409 99.96101 116.37955 100.33421 117.0252 C 100.70743 117.67087 101.30595 118.70631 101.67917 119.35197 C 102.05238 119.99763 102.65092 121.03308 103.02414 121.67876 C 103.39734 122.32443 103.9959 123.35988 104.3691 124.00554 C 104.74231 124.6512 105.34085 125.68665 105.71407 126.3323 C 106.08727 126.97797 106.6858 128.01342 107.059 128.65909 C 107.43222 129.30477 108.03076 130.34021 108.40398 130.98589 C 108.77719 131.63155 109.74895 133.31267 109.74895 133.31267 "/>
<symbol id="font_1_1">
<path d="M .23200003 .00999999 C .23200003 .012999982 .23200003 .014999986 .215 .03199999 C .09 .15799999 .058 .347 .058 .5 C .058 .674 .096 .84800007 .21900001 .97300007 C .23200003 .985 .23200003 .98700007 .23200003 .99 C .23200003 .99700006 .22800002 1 .222 1 C .21200001 1 .12200001 .93200007 .06299999 .805 C .012000002 .69500008 0 .584 0 .5 C 0 .422 .011 .301 .066 .188 C .126 .065 .21200001 0 .222 0 C .22800002 0 .23200003 .0029999912 .23200003 .00999999 Z "/>
</symbol>
<symbol id="font_1_6">
<path d="M .083000008 .22900002 C .083000008 .39200003 .16500002 .43400003 .218 .43400003 C .227 .43400003 .29 .43300004 .32500003 .397 C .284 .39400003 .278 .36400003 .278 .351 C .278 .32500003 .296 .305 .324 .305 C .35 .305 .37 .32200004 .37 .35200004 C .37 .42000003 .294 .45900003 .21700001 .45900003 C .092 .45900003 0 .351 0 .22700002 C 0 .09900001 .099 0 .215 0 C .349 0 .381 .120000008 .381 .13000001 C .381 .14000002 .37100003 .14000002 .368 .14000002 C .359 .14000002 .35700003 .136 .35500003 .13000001 C .326 .037 .261 .025000003 .224 .025000003 C .171 .025000003 .083000008 .068 .083000008 .22900002 Z "/>
</symbol>
<symbol id="font_1_9">
<path d="M .44300003 .22500003 C .44300003 .35300002 .34300003 .45900003 .222 .45900003 C .097 .45900003 0 .35000003 0 .22500003 C 0 .096 .104 0 .22100002 0 C .342 0 .44300003 .098000008 .44300003 .22500003 M .222 .025000003 C .17900002 .025000003 .135 .046 .10800001 .092 C .083000008 .136 .083000008 .19700001 .083000008 .23300003 C .083000008 .272 .083000008 .32600004 .10700001 .37000004 C .134 .41600005 .18100001 .43700005 .22100002 .43700005 C .26500003 .43700005 .30800004 .41500003 .33400003 .37200005 C .36 .32900004 .36 .27100004 .36 .23300003 C .36 .19700001 .36 .143 .33800004 .09900001 C .316 .054 .272 .025000003 .222 .025000003 Z "/>
</symbol>
<symbol id="font_1_a">
<path d="M .17500001 .20500002 C .197 .20100002 .279 .18500002 .279 .113000009 C .279 .062000004 .24400002 .022000002 .16600001 .022000002 C .082 .022000002 .046000005 .079 .027000003 .16400002 C .024000004 .17700002 .023000002 .18100001 .013000004 .18100001 C 0 .18100001 0 .17400001 0 .15600002 L 0 .024 C 0 .0070000009 0 0 .011000004 0 C .016000003 0 .017 .0010000002 .036000007 .020000002 C .038000004 .022000002 .038000004 .024 .056 .043 C .1 .0010000002 .14500001 0 .16600001 0 C .28100003 0 .32700003 .067 .32700003 .13900002 C .32700003 .19200002 .29700003 .22200002 .28500004 .23400001 C .25200004 .26600004 .213 .27400003 .171 .28200004 C .115 .293 .048 .30600003 .048 .36400003 C .048 .39900003 .07400001 .44000004 .16 .44000004 C .27 .44000004 .27500005 .35000003 .277 .31900005 C .27800004 .31000004 .28700004 .31000004 .28900004 .31000004 C .30200003 .31000004 .30200003 .31500004 .30200003 .33400003 L .30200003 .43500004 C .30200003 .45200003 .30200003 .45900003 .291 .45900003 C .286 .45900003 .284 .45900003 .27100004 .44700004 C .26800005 .44300003 .25800003 .43400003 .254 .43100003 C .21600002 .45900003 .17500001 .45900003 .16 .45900003 C .038000004 .45900003 0 .39200003 0 .33600004 C 0 .30100004 .016000003 .27300004 .043000007 .25100003 C .075 .22500003 .10300001 .21900001 .17500001 .20500002 Z "/>
</symbol>
<use xlink:href="#font_1_1" transform="matrix(9.9626,0,0,-9.9626,97.4983,33.07166)"/>
<use xlink:href="#font_1_6" transform="matrix(9.9626,0,0,-9.9626,100.72618,30.690598)"/>
<use xlink:href="#font_1_9" transform="matrix(9.9626,0,0,-9.9626,105.0898,30.690598)"/>
<use xlink:href="#font_1_a" transform="matrix(9.9626,0,0,-9.9626,110.12091,30.690598)"/>
<use xlink:href="#font_1_1" transform="matrix(9.9626,0,0,-9.9626,114.703708,33.07166)"/>
<symbol id="font_2_3">
<path d="M .18300002 .411 L .277 .411 C .29700003 .411 .307 .411 .307 .43100003 C .307 .44200004 .29700003 .44200004 .279 .44200004 L .19100002 .44200004 C .227 .584 .23200003 .60400006 .23200003 .61 C .23200003 .62700006 .22000002 .637 .20300001 .637 C .2 .637 .172 .636 .163 .601 L .124 .44200004 L .030000002 .44200004 C .009999998 .44200004 0 .44200004 0 .42300005 C 0 .411 .007999999 .411 .028 .411 L .11600001 .411 C .044 .127 .04 .11000001 .04 .092 C .04 .038000004 .078 0 .132 0 C .234 0 .291 .14600002 .291 .15400002 C .291 .16400002 .28300003 .16400002 .279 .16400002 C .27 .16400002 .26900003 .16100002 .264 .15000002 C .22100002 .046 .16800002 .022000002 .134 .022000002 C .113000009 .022000002 .103 .035 .103 .068 C .103 .092 .105000007 .09900001 .109 .116000007 L .18300002 .411 Z "/>
</symbol>
<use xlink:href="#font_2_3" transform="matrix(9.9626,0,0,-9.9626,117.82814,30.690598)"/>
<symbol id="font_1_2">
<path d="M .232 .5 C .232 .578 .22100002 .699 .16600001 .81200006 C .106 .93500009 .020000004 1 .009999998 1 C .0040000008 1 0 .99600008 0 .99 C 0 .98700007 0 .985 .019000002 .967 C .117000009 .86800006 .174 .709 .174 .5 C .174 .329 .137 .153 .012999997 .026999996 C 0 .014999986 0 .012999982 0 .00999999 C 0 .003999993 .0040000008 0 .009999998 0 C .020000004 0 .11000001 .06799999 .169 .195 C .22 .305 .232 .416 .232 .5 Z "/>
</symbol>
<use xlink:href="#font_1_2" transform="matrix(9.9626,0,0,-9.9626,121.76487,33.07166)"/>
<symbol id="font_2_2">
<path d="M .117000009 .194 C .117000009 .26 .092 .29900003 .05300001 .29900003 C .020000004 .29900003 0 .274 0 .246 C 0 .21900001 .020000004 .193 .05300001 .193 C .065000008 .193 .078 .197 .08800001 .206 C .091 .208 .092 .209 .093 .209 C .094000007 .209 .095000009 .208 .095000009 .194 C .095000009 .12 .06000001 .060000004 .027000003 .026999996 C .016000003 .016000003 .016000003 .013999999 .016000003 .0109999929 C .016000003 .003999993 .021000006 0 .026 0 C .037 0 .117000009 .077 .117000009 .194 Z "/>
</symbol>
<use xlink:href="#font_2_2" transform="matrix(9.9626,0,0,-9.9626,125.92778,32.50379)"/>
<symbol id="font_1_7">
<path d="M .144 .44200004 L .0040000008 .43100003 L .0040000008 .4 C .069000009 .4 .07800001 .39400003 .07800001 .34500004 L .07800001 .076000008 C .07800001 .031000002 .067 .031000002 0 .031000002 L 0 0 C .032000007 .001 .086 .003 .11000001 .003 C .14500001 .003 .18 .001 .21400002 0 L .21400002 .031000002 C .148 .031000002 .144 .036000004 .144 .075 L .144 .44200004 M .148 .61600008 C .148 .648 .123 .669 .095000009 .669 C .064 .669 .042000005 .642 .042000005 .61600008 C .042000005 .58900007 .064 .563 .095000009 .563 C .123 .563 .148 .58400008 .148 .61600008 Z "/>
</symbol>
<symbol id="font_1_8">
<path d="M .07800001 .344 L .07800001 .076000008 C .07800001 .031000002 .067 .031000002 0 .031000002 L 0 0 C .035 .001 .08600001 .003 .113000009 .003 C .139 .003 .191 .001 .225 0 L .225 .031000002 C .158 .031000002 .147 .031000002 .147 .076000008 L .147 .26000003 C .147 .36400003 .218 .42000003 .282 .42000003 C .345 .42000003 .356 .36600004 .356 .30900003 L .356 .076000008 C .356 .031000002 .345 .031000002 .278 .031000002 L .278 0 C .31300003 .001 .36400003 .003 .391 .003 C .41700004 .003 .46900005 .001 .503 0 L .503 .031000002 C .451 .031000002 .42600004 .031000002 .425 .061000006 L .425 .252 C .425 .33800004 .425 .36900003 .39400003 .40500004 C .38000003 .42200003 .347 .44200004 .289 .44200004 C .216 .44200004 .169 .39900003 .141 .337 L .141 .44200004 L 0 .43100003 L 0 .4 C .07000001 .4 .07800001 .393 .07800001 .344 Z "/>
</symbol>
<use xlink:href="#font_1_a" transform="matrix(9.9626,0,0,-9.9626,129.82776,30.690598)"/>
<use xlink:href="#font_1_7" transform="matrix(9.9626,0,0,-9.9626,133.75302,30.581009)"/>
<use xlink:href="#font_1_8" transform="matrix(9.9626,0,0,-9.9626,136.51267,30.581009)"/>
<use xlink:href="#font_1_1" transform="matrix(9.9626,0,0,-9.9626,142.71936,33.07166)"/>
<use xlink:href="#font_2_3" transform="matrix(9.9626,0,0,-9.9626,145.83414,30.690598)"/>
<use xlink:href="#font_1_2" transform="matrix(9.9626,0,0,-9.9626,149.77088,33.07166)"/>
<use xlink:href="#font_1_2" transform="matrix(9.9626,0,0,-9.9626,153.64633,33.07166)"/>
<path transform="matrix(1,0,0,-1,.199,174.636)" stroke-width="1.19553" stroke-linecap="butt" stroke-miterlimit="10" stroke-linejoin="miter" fill="none" stroke="#008000" d="M 90.38153 77.46988 C 90.38153 77.46988 90.37555 77.87682 90.36873 78.03294 C 90.36191 78.18909 90.34593 78.43959 90.33232 78.59526 C 90.31871 78.75092 90.29097 79.00003 90.27061 79.15498 C 90.25026 79.30992 90.21265 79.55807 90.18552 79.71199 C 90.15839 79.8659 90.10883 80.11177 90.075 80.26434 C 90.04117 80.4169 89.9821 80.66074 89.94164 80.81168 C 89.90117 80.96262 89.8303 81.20322 89.78333 81.35226 C 89.73633 81.50133 89.6564 81.73923 89.60297 81.88606 C 89.54953 82.0329 89.45798 82.2663 89.39818 82.41064 C 89.33836 82.55501 89.2379 82.78496 89.17183 82.92659 C 89.10576 83.0682 88.99414 83.29283 88.92198 83.43144 C 88.84984 83.57005 88.72987 83.79034 88.65176 83.9257 C 88.57364 84.06107 88.4429 84.27524 88.35892 84.40704 C 88.27495 84.53885 88.13606 84.74774 88.04645 84.87573 C 87.95683 85.00374 87.80807 85.20561 87.71295 85.32959 C 87.61781 85.45358 87.46117 85.64963 87.36072 85.76936 C 87.26025 85.88908 87.09444 86.0774 86.98886 86.1926 C 86.88329 86.3078 86.71017 86.48923 86.5997 86.5997 C 86.48923 86.71017 86.3078 86.88329 86.1926 86.98886 C 86.0774 87.09444 85.88908 87.26025 85.76936 87.36072 C 85.64963 87.46117 85.45358 87.61781 85.32959 87.71295 C 85.20561 87.80807 85.00374 87.95683 84.87573 88.04645 C 84.74774 88.13606 84.53885 88.27495 84.40704 88.35892 C 84.27524 88.4429 83.9257 88.65176 83.9257 88.65176 "/>
<use xlink:href="#font_2_3" transform="matrix(9.9626,0,0,-9.9626,94.17414,90.65659)"/>
</g>
<path transform="matrix(1,0,0,-1,.199,174.636)" d="M 111.74156 133.37732 C 111.74156 134.47779 110.84947 135.36988 109.74901 135.36988 C 108.64853 135.36988 107.75645 134.47779 107.75645 133.37732 C 107.75645 132.27684 108.64853 131.38477 109.74901 131.38477 C 110.84947 131.38477 111.74156 132.27684 111.74156 133.37732 Z M 109.74901 133.37732 "/>
<path transform="matrix(1,0,0,-1,.199,174.636)" stroke-width="1" stroke-linecap="butt" stroke-miterlimit="10" stroke-linejoin="miter" fill="none" stroke="#000000" d="M 111.74156 133.37732 C 111.74156 134.47779 110.84947 135.36988 109.74901 135.36988 C 108.64853 135.36988 107.75645 134.47779 107.75645 133.37732 C 107.75645 132.27684 108.64853 131.38477 109.74901 131.38477 C 110.84947 131.38477 111.74156 132.27684 111.74156 133.37732 Z M 109.74901 133.37732 "/>
<symbol id="font_2_4">
<path d="M .305 .31300003 C .311 .33900003 .334 .43100003 .404 .43100003 C .409 .43100003 .433 .43100003 .454 .418 C .426 .41300003 .40600003 .388 .40600003 .36400003 C .40600003 .34800003 .417 .32900004 .444 .32900004 C .46600003 .32900004 .498 .34700004 .498 .38700003 C .498 .43900005 .439 .45300005 .405 .45300005 C .347 .45300005 .312 .40000005 .3 .37700004 C .275 .44300003 .221 .45300005 .19200002 .45300005 C .08800001 .45300005 .031000002 .32400004 .031000002 .29900003 C .031000002 .28900004 .041 .28900004 .043000007 .28900004 C .051000008 .28900004 .054000006 .291 .056 .3 C .09 .40600003 .156 .43100003 .19000001 .43100003 C .209 .43100003 .244 .42200003 .244 .36400003 C .244 .33300004 .22700002 .26600004 .19000001 .126 C .17400001 .064 .13900002 .022000002 .095000009 .022000002 C .08900001 .022000002 .06600001 .022000002 .045 .035 C .07000001 .040000004 .09200001 .061 .09200001 .089 C .09200001 .116000007 .07000001 .124000009 .055000009 .124000009 C .025 .124000009 0 .098000008 0 .06600001 C 0 .020000002 .050000006 0 .094000007 0 C .16000001 0 .19600001 .07000001 .19900002 .076000008 C .21100001 .039 .24700003 0 .307 0 C .41 0 .467 .12900001 .467 .15400002 C .467 .16400002 .458 .16400002 .455 .16400002 C .446 .16400002 .444 .16000001 .442 .15300001 C .409 .046 .341 .022000002 .30900003 .022000002 C .27 .022000002 .254 .054 .254 .08800001 C .254 .11000001 .26 .13200002 .271 .17600002 L .305 .31300003 Z "/>
</symbol>
<use xlink:href="#font_2_4" transform="matrix(9.9626,0,0,-9.9626,159.04892,99.405597)"/>
<symbol id="font_2_5">
<path d="M .45700003 .586 C .461 .6 .461 .602 .461 .609 C .461 .62700006 .447 .63600006 .432 .63600006 C .42200003 .63600006 .40600003 .63 .397 .615 C .395 .61 .387 .579 .38300003 .561 C .37600003 .535 .36900003 .508 .363 .48100005 L .318 .301 C .314 .286 .271 .21600002 .20500002 .21600002 C .15400002 .21600002 .143 .26000003 .143 .29700003 C .143 .34300003 .16000001 .40500004 .194 .49300004 C .21000001 .53400006 .21400002 .545 .21400002 .56500008 C .21400002 .61 .18200001 .6470001 .13200002 .6470001 C .037 .6470001 0 .50200006 0 .49300004 C 0 .48300005 .01 .48300005 .012 .48300005 C .022000002 .48300005 .023 .485 .028000003 .50100007 C .055000009 .595 .095000009 .625 .12900001 .625 C .13700001 .625 .15400002 .625 .15400002 .59300008 C .15400002 .568 .14400001 .54200008 .13700001 .523 C .097 .41700004 .079 .36 .079 .31300003 C .079 .224 .142 .194 .201 .194 C .24000003 .194 .274 .21100001 .30200003 .23900002 C .289 .187 .277 .13800001 .237 .08500001 C .21100001 .051 .17300001 .022 .127 .022 C .113000009 .022 .068 .025000006 .051000008 .06400001 C .067 .06400001 .080000009 .06400001 .094000007 .076000008 C .104 .08500001 .11400001 .098000008 .11400001 .117000009 C .11400001 .148 .087000008 .15200001 .07700001 .15200001 C .054000006 .15200001 .021 .136 .021 .087000008 C .021 .037 .065000008 0 .127 0 C .23 0 .333 .091000009 .361 .20400001 L .45700003 .586 Z "/>
</symbol>
<use xlink:href="#font_2_5" transform="matrix(9.9626,0,0,-9.9626,75.350917,9.726339)"/>
</svg>
