<?xml version="1.0" encoding="UTF-8" standalone="no"?>
<!DOCTYPE svg PUBLIC "-//W3C//DTD SVG 1.1//EN" "http://www.w3.org/Graphics/SVG/1.1/DTD/svg11.dtd">
<svg xmlns="http://www.w3.org/2000/svg" xmlns:xlink="http://www.w3.org/1999/xlink" version="1.1" width="170.278pt" height="155.349pt" viewBox="0 0 170.278 155.349">
<path transform="matrix(1,0,0,-1,5.856,154.722)" stroke-width="1" stroke-linecap="butt" stroke-miterlimit="10" stroke-linejoin="miter" fill="none" stroke="#808080" d="M 6.39417 73.80858 L 6.39417 78.06038 M 38.595 73.80858 L 38.595 78.06038 M 102.99666 73.80858 L 102.99666 78.06038 M 135.1975 73.80858 L 135.1975 78.06038 "/>
<path transform="matrix(1,0,0,-1,5.856,154.722)" stroke-width="1" stroke-linecap="butt" stroke-miterlimit="10" stroke-linejoin="miter" fill="none" stroke="#808080" d="M 68.66994 11.5328 L 72.92172 11.5328 M 68.66994 43.73364 L 72.92172 43.73364 M 68.66994 108.1353 L 72.92172 108.1353 M 68.66994 140.33614 L 72.92172 140.33614 "/>
<path transform="matrix(1,0,0,-1,5.856,154.722)" stroke-width="1" stroke-linecap="butt" stroke-miterlimit="10" stroke-linejoin="miter" fill="none" stroke="#000000" d="M 0 75.93446 L 149.72904 75.93446 "/>
<path transform="matrix(1,0,0,-1,155.58504,78.78754)" d="M 1.99252 0 L -1.19551 1.59401 L 0 0 L -1.19551 -1.59401 "/>
<path transform="matrix(1,0,0,-1,5.856,154.722)" stroke-width="1" stroke-linecap="butt" stroke-miterlimit="10" stroke-linejoin="miter" fill="none" stroke="#000000" d="M 70.79584 0 L 70.79584 139.48451 "/>
<path transform="matrix(0,-1,-1,-0,76.65184,15.237488)" d="M 1.99252 0 L -1.19551 1.59401 L 0 0 L -1.19551 -1.59401 "/>
<symbol id="font_0_1">
<path d="M .57600006 0 C .59300008 0 .611 0 .611 .019999996 C .611 .040000008 .59300008 .040000008 .57600006 .040000008 L .035000005 .040000008 C .018 .040000008 0 .040000008 0 .019999996 C 0 0 .018 0 .035000005 0 L .57600006 0 Z "/>
</symbol>
<use xlink:href="#font_0_1" transform="matrix(9.9626,0,0,-9.9626,4.220896,88.636608)"/>
<symbol id="font_1_3">
<path d="M .07700001 .07700001 L .18300002 .18 C .33900003 .31800003 .39900003 .372 .39900003 .47200004 C .39900003 .586 .30900003 .666 .18700002 .666 C .074 .666 0 .574 0 .485 C 0 .42900003 .05 .42900003 .053000008 .42900003 C .07000001 .42900003 .105000007 .441 .105000007 .48200003 C .105000007 .508 .08700001 .53400006 .052000006 .53400006 C .044000005 .53400006 .042000008 .53400006 .039 .53300008 C .062000004 .59800007 .11600001 .63500007 .17400001 .63500007 C .26500003 .63500007 .308 .554 .308 .47200004 C .308 .39200003 .25800003 .31300003 .20300003 .25100003 L .011000004 .037 C 0 .026 0 .024 0 0 L .37100003 0 L .39900003 .17400001 L .374 .17400001 C .36900003 .14400001 .36200003 .1 .352 .085 C .345 .07700001 .279 .07700001 .257 .07700001 L .07700001 .07700001 Z "/>
</symbol>
<symbol id="font_1_1">
<path d="M .421 .34200005 C .421 .42200003 .416 .50200006 .381 .57600006 C .335 .67200008 .25300003 .688 .211 .688 C .15100001 .688 .07800001 .66200008 .037000006 .56900009 C .0050000029 .5 0 .42200003 0 .34200005 C 0 .26700003 .0040000008 .177 .045000007 .101 C .088 .020000002 .161 0 .21000001 0 C .264 0 .34 .021000002 .384 .116000007 C .416 .185 .421 .263 .421 .34200005 M .21000001 .022000002 C .171 .022000002 .112 .047000003 .094 .143 C .083000008 .20300001 .083000008 .29500003 .083000008 .35400004 C .083000008 .41800005 .083000008 .48400004 .091000009 .53800007 C .11 .65700009 .185 .66600009 .21000001 .66600009 C .243 .66600009 .30900003 .64800009 .328 .549 C .338 .49300004 .338 .41700004 .338 .35400004 C .338 .279 .338 .21100001 .32700003 .147 C .312 .052 .255 .022000002 .21000001 .022000002 Z "/>
</symbol>
<use xlink:href="#font_1_3" transform="matrix(9.9626,0,0,-9.9626,11.6411299,90.928)"/>
<use xlink:href="#font_1_1" transform="matrix(9.9626,0,0,-9.9626,16.512843,91.14718)"/>
<use xlink:href="#font_0_1" transform="matrix(9.9626,0,0,-9.9626,36.421899,88.636608)"/>
<symbol id="font_1_2">
<path d="M .205 .64000007 C .205 .66400006 .205 .666 .18200003 .666 C .120000008 .60200008 .032000007 .60200008 0 .60200008 L 0 .57100006 C .020000004 .57100006 .07900001 .57100006 .13100001 .597 L .13100001 .079 C .13100001 .043 .128 .031000002 .038000004 .031000002 L .0060000049 .031000002 L .0060000049 0 C .04100001 .003 .128 .003 .168 .003 C .20800002 .003 .29500003 .003 .33000005 0 L .33000005 .031000002 L .29800005 .031000002 C .20800002 .031000002 .205 .042000005 .205 .079 L .205 .64000007 Z "/>
</symbol>
<use xlink:href="#font_1_2" transform="matrix(9.9626,0,0,-9.9626,44.229677,90.928)"/>
<use xlink:href="#font_1_1" transform="matrix(9.9626,0,0,-9.9626,48.712846,91.14718)"/>
<use xlink:href="#font_1_2" transform="matrix(9.9626,0,0,-9.9626,104.756679,90.928)"/>
<use xlink:href="#font_1_1" transform="matrix(9.9626,0,0,-9.9626,109.239849,91.14718)"/>
<use xlink:href="#font_1_3" transform="matrix(9.9626,0,0,-9.9626,136.56813,90.928)"/>
<use xlink:href="#font_1_1" transform="matrix(9.9626,0,0,-9.9626,141.43984,91.14718)"/>
<use xlink:href="#font_0_1" transform="matrix(9.9626,0,0,-9.9626,54.046895,143.6926)"/>
<use xlink:href="#font_1_3" transform="matrix(9.9626,0,0,-9.9626,61.46713,145.984)"/>
<use xlink:href="#font_1_1" transform="matrix(9.9626,0,0,-9.9626,66.338848,146.20317)"/>
<use xlink:href="#font_0_1" transform="matrix(9.9626,0,0,-9.9626,54.046895,111.4926)"/>
<use xlink:href="#font_1_2" transform="matrix(9.9626,0,0,-9.9626,61.85567,113.784)"/>
<use xlink:href="#font_1_1" transform="matrix(9.9626,0,0,-9.9626,66.338848,114.003177)"/>
<use xlink:href="#font_1_2" transform="matrix(9.9626,0,0,-9.9626,61.85567,49.797998)"/>
<use xlink:href="#font_1_1" transform="matrix(9.9626,0,0,-9.9626,66.338848,50.017175)"/>
<use xlink:href="#font_1_3" transform="matrix(9.9626,0,0,-9.9626,61.46713,17.598008)"/>
<use xlink:href="#font_1_1" transform="matrix(9.9626,0,0,-9.9626,66.338848,17.817185)"/>
<path transform="matrix(1,0,0,-1,5.856,154.722)" stroke-width="1.19553" stroke-linecap="butt" stroke-miterlimit="10" stroke-linejoin="miter" fill="none" stroke="#000080" d="M 70.79584 75.93446 C 70.79584 75.93446 71.38884 76.02946 71.58704 76.13974 C 71.78523 76.25002 72.08798 76.52304 72.22446 76.72934 C 72.36092 76.93562 72.52965 77.35146 72.57062 77.62665 C 72.61159 77.90182 72.59758 78.40604 72.51974 78.71274 C 72.4419 79.01944 72.2163 79.54294 72.0095 79.83717 C 71.8027 80.13141 71.3602 80.59785 71.02925 80.83344 C 70.6983 81.06903 70.0594 81.40198 69.62418 81.53522 C 69.18893 81.66844 68.39821 81.79938 67.89238 81.79376 C 67.38655 81.78816 66.50969 81.66452 65.97844 81.4947 C 65.44717 81.3249 64.56725 80.9146 64.06332 80.5699 C 63.55939 80.2252 62.767 79.52405 62.34636 79.01035 C 61.92572 78.49664 61.31512 77.52702 61.03156 76.86745 C 60.748 76.20786 60.40242 75.0224 60.30257 74.25648 C 60.2027 73.49059 60.19324 72.16592 60.31181 71.34726 C 60.43039 70.52858 60.8017 69.16342 61.15724 68.35597 C 61.51279 67.54854 62.28214 66.25449 62.87442 65.52774 C 63.4667 64.801 64.61769 63.69476 65.42603 63.118 C 66.23436 62.54123 67.7168 61.73409 68.7004 61.37074 C 69.68399 61.0074 71.41519 60.59755 72.51518 60.49922 C 73.61516 60.40088 75.48566 60.46056 76.62833 60.6619 C 77.771 60.86322 79.64891 61.43542 80.75082 61.95033 C 81.85274 62.46524 83.59634 63.55414 84.57024 64.37299 C 85.54414 65.19182 87.00847 66.76335 87.77007 67.85197 C 88.53165 68.94058 89.58484 70.91829 90.05934 72.21906 C 90.53384 73.51984 91.06105 75.79192 91.18999 77.22707 C 91.31892 78.6622 91.24207 81.08687 90.98875 82.56265 C 90.73544 84.03842 90.01096 86.45076 89.36429 87.8635 C 88.71764 89.27623 87.35056 91.50107 86.32803 92.74477 C 85.3055 93.98848 83.34695 95.85333 81.99457 96.82732 C 80.64218 97.80132 78.1898 99.14803 76.58092 99.7647 C 74.97203 100.38136 72.16782 101.0801 70.39874 101.27188 C 68.62967 101.46367 65.64629 101.42075 63.83064 101.14699 C 62.01498 100.87323 59.05067 100.04823 57.31277 99.29878 C 55.57487 98.54935 52.83958 96.94746 51.30495 95.74553 C 49.77031 94.54361 47.46498 92.23373 46.2521 90.63611 C 45.03923 89.03847 43.35213 86.13666 42.56331 84.23087 C 41.77449 82.32509 40.85365 79.00006 40.56682 76.90053 C 40.27998 74.80098 40.23378 71.25858 40.49597 69.09872 C 40.75815 66.93887 41.63422 63.40936 42.45657 61.33382 C 43.27895 59.25827 45.06781 55.98454 46.4231 54.13963 C 47.77838 52.29472 50.40205 49.51405 52.2246 48.03691 C 54.04713 46.55975 57.36969 44.48389 59.55869 43.49333 C 61.74768 42.50279 65.5771 41.31139 68.00137 40.89767 C 70.42564 40.48396 74.52472 40.29332 77.0312 40.51161 C 79.53769 40.72989 83.64313 41.60625 86.0665 42.47095 C 88.48985 43.33565 92.32446 45.26259 94.49718 46.74388 C 96.66989 48.22519 99.96112 51.12175 101.72597 53.1471 C 103.4908 55.17244 105.99603 58.88472 107.21695 61.34122 C 108.43787 63.79773 109.95369 68.11116 110.52557 70.8519 C 111.09747 73.59264 111.48074 78.24146 111.33884 81.09462 C 111.19695 83.9478 110.37775 88.63658 109.50282 91.4156 C 108.6279 94.19461 106.61159 98.60771 105.03296 101.1239 C 103.45432 103.64009 100.32938 107.4756 98.1251 109.55061 C 95.92085 111.62563 91.85278 114.6005 89.14621 116.0792 C 86.43962 117.55789 81.66493 119.44687 78.61792 120.20808 C 75.5709 120.96931 70.38278 121.59848 67.1854 121.5656 C 63.988 121.53271 58.714 120.82428 55.57338 119.97102 C 52.43275 119.11777 47.42307 117.06236 44.54994 115.41591 C 41.6768 113.76945 37.2713 110.4619 34.8658 108.1045 C 32.46031 105.74713 28.97522 101.36209 27.21275 98.42543 C 25.45027 95.48877 23.14432 90.27971 22.16312 86.93904 C 21.18193 83.59837 20.24957 77.88509 20.14088 74.34814 C 20.03218 70.8112 20.58075 64.95308 21.3797 61.4472 C 22.17867 57.94135 24.21623 52.32191 25.89919 49.08029 C 27.58215 45.83867 31.0256 40.83896 33.50946 38.08382 C 35.9933 35.32869 40.65576 31.29446 43.80113 29.22314 C 46.9465 27.15184 52.55939 24.3854 56.17906 23.15517 C 59.79872 21.92491 66.01988 20.63911 69.88922 20.35628 C 73.75854 20.07344 80.19482 20.405 84.06656 21.11662 C 87.93828 21.82825 94.1745 23.79704 97.79404 25.48524 C 101.41356 27.17343 107.03223 30.70248 110.15372 33.28406 C 113.27519 35.86563 117.88771 40.76102 120.29161 44.09146 C 122.6955 47.4219 125.97136 53.40579 127.47931 57.28763 C 128.98728 61.16946 130.67139 67.87637 131.15999 72.06909 C 131.64859 76.26181 131.5918 83.26888 131.00092 87.50586 C 130.41004 91.74286 128.56177 98.6017 126.90129 102.60645 C 125.24081 106.61119 121.68286 112.86674 119.03325 116.3694 C 116.38364 119.87206 111.2953 125.09328 107.80463 127.85121 C 104.31395 130.60916 97.99933 134.43352 93.87486 136.24683 C 89.75041 138.06014 82.58273 140.19461 78.07831 140.92029 C 73.57388 141.64598 66.0086 141.9139 61.41008 141.47704 C 56.81157 141.04018 49.32968 139.37154 44.93536 137.77169 C 40.54106 136.17182 33.63611 132.63301 29.73885 129.94638 C 25.8416 127.25975 19.9792 122.0323 16.8466 118.40831 C 13.71399 114.7843 9.30595 108.17383 7.16113 103.82709 C 5.0163 99.48035 2.38167 91.88197 1.38809 87.07994 C .3945 82.27791 -.24931 74.17175 0 69.21736 C .24931 64.26299 1.67967 56.15887 3.18512 51.37212 C 4.69058 46.58536 8.15862 39.0201 10.85034 34.71777 C 13.54207 30.41544 18.85667 23.88959 22.5852 20.36386 C 26.31374 16.83815 33.17715 11.80832 37.72302 9.30684 C 42.26888 6.80536 50.26477 3.62617 55.34868 2.33488 C 60.43259 1.04358 69.06209 -.02959 74.36433 0 C 79.66656 .02959 88.38402 1.17137 93.56357 2.5483 C 98.7431 3.92523 106.97902 7.26013 111.69496 9.92398 C 116.4109 12.58783 123.6176 17.94382 127.55289 21.74745 C 131.48818 25.5511 137.17635 32.61797 140.05783 37.33807 C 142.9393 42.05818 146.7023 50.41914 148.32062 55.7668 C 149.93894 61.11444 151.72156 75.88026 151.72156 75.88026 "/>
<symbol id="font_2_1">
<path d="M .305 .31300003 C .311 .33900003 .334 .43100003 .404 .43100003 C .409 .43100003 .433 .43100003 .454 .418 C .426 .41300003 .40600003 .388 .40600003 .36400003 C .40600003 .34800003 .417 .32900004 .444 .32900004 C .46600003 .32900004 .498 .34700004 .498 .38700003 C .498 .43900005 .439 .45300005 .405 .45300005 C .347 .45300005 .312 .40000005 .3 .37700004 C .275 .44300003 .221 .45300005 .19200002 .45300005 C .08800001 .45300005 .031000002 .32400004 .031000002 .29900003 C .031000002 .28900004 .041 .28900004 .043000007 .28900004 C .051000008 .28900004 .054000006 .291 .056 .3 C .09 .40600003 .156 .43100003 .19000001 .43100003 C .209 .43100003 .244 .42200003 .244 .36400003 C .244 .33300004 .22700002 .26600004 .19000001 .126 C .17400001 .064 .13900002 .022000002 .095000009 .022000002 C .08900001 .022000002 .06600001 .022000002 .045 .035 C .07000001 .040000004 .09200001 .061 .09200001 .089 C .09200001 .116000007 .07000001 .124000009 .055000009 .124000009 C .025 .124000009 0 .098000008 0 .06600001 C 0 .020000002 .050000006 0 .094000007 0 C .16000001 0 .19600001 .07000001 .19900002 .076000008 C .21100001 .039 .24700003 0 .307 0 C .41 0 .467 .12900001 .467 .15400002 C .467 .16400002 .458 .16400002 .455 .16400002 C .446 .16400002 .444 .16000001 .442 .15300001 C .409 .046 .341 .022000002 .30900003 .022000002 C .27 .022000002 .254 .054 .254 .08800001 C .254 .11000001 .26 .13200002 .271 .17600002 L .305 .31300003 Z "/>
</symbol>
<use xlink:href="#font_2_1" transform="matrix(9.9626,0,0,-9.9626,161.47891,81.032588)"/>
<symbol id="font_2_2">
<path d="M .45700003 .586 C .461 .6 .461 .602 .461 .609 C .461 .62700006 .447 .63600006 .432 .63600006 C .42200003 .63600006 .40600003 .63 .397 .615 C .395 .61 .387 .579 .38300003 .561 C .37600003 .535 .36900003 .508 .363 .48100005 L .318 .301 C .314 .286 .271 .21600002 .20500002 .21600002 C .15400002 .21600002 .143 .26000003 .143 .29700003 C .143 .34300003 .16000001 .40500004 .194 .49300004 C .21000001 .53400006 .21400002 .545 .21400002 .56500008 C .21400002 .61 .18200001 .6470001 .13200002 .6470001 C .037 .6470001 0 .50200006 0 .49300004 C 0 .48300005 .01 .48300005 .012 .48300005 C .022000002 .48300005 .023 .485 .028000003 .50100007 C .055000009 .595 .095000009 .625 .12900001 .625 C .13700001 .625 .15400002 .625 .15400002 .59300008 C .15400002 .568 .14400001 .54200008 .13700001 .523 C .097 .41700004 .079 .36 .079 .31300003 C .079 .224 .142 .194 .201 .194 C .24000003 .194 .274 .21100001 .30200003 .23900002 C .289 .187 .277 .13800001 .237 .08500001 C .21100001 .051 .17300001 .022 .127 .022 C .113000009 .022 .068 .025000006 .051000008 .06400001 C .067 .06400001 .080000009 .06400001 .094000007 .076000008 C .104 .08500001 .11400001 .098000008 .11400001 .117000009 C .11400001 .148 .087000008 .15200001 .07700001 .15200001 C .054000006 .15200001 .021 .136 .021 .087000008 C .021 .037 .065000008 0 .127 0 C .23 0 .333 .091000009 .361 .20400001 L .45700003 .586 Z "/>
</symbol>
<use xlink:href="#font_2_2" transform="matrix(9.9626,0,0,-9.9626,74.33092,9.726339)"/>
</svg>
