<?xml version="1.0" encoding="UTF-8" standalone="no"?>
<!DOCTYPE svg PUBLIC "-//W3C//DTD SVG 1.1//EN" "http://www.w3.org/Graphics/SVG/1.1/DTD/svg11.dtd">
<svg xmlns="http://www.w3.org/2000/svg" xmlns:xlink="http://www.w3.org/1999/xlink" version="1.1" width="164.259pt" height="155.676pt" viewBox="0 0 164.259 155.676">
<path transform="matrix(1,0,0,-1,9.77,154.72499)" stroke-width="1" stroke-linecap="butt" stroke-miterlimit="10" stroke-linejoin="miter" fill="none" stroke="#808080" d="M -.01062 68.45288 L -.01062 72.70451 M 35.44037 68.45288 L 35.44037 72.70451 M 106.34239 68.45288 L 106.34239 72.70451 M 141.79341 68.45288 L 141.79341 72.70451 "/>
<path transform="matrix(1,0,0,-1,9.77,154.72499)" stroke-width="1" stroke-linecap="butt" stroke-miterlimit="10" stroke-linejoin="miter" fill="none" stroke="#808080" d="M 68.76555 35.12769 L 73.0172 35.12769 M 68.76555 106.02972 L 73.0172 106.02972 M 68.76555 141.48073 L 73.0172 141.48073 "/>
<path transform="matrix(1,0,0,-1,9.77,154.72499)" stroke-width="1" stroke-linecap="butt" stroke-miterlimit="10" stroke-linejoin="miter" fill="none" stroke="#000000" d="M 0 70.5787 L 139.79024 70.5787 "/>
<path transform="matrix(1,0,0,-1,149.56024,84.14629)" d="M 1.99252 0 L -1.19551 1.59401 L 0 0 L -1.19551 -1.59401 "/>
<path transform="matrix(1,0,0,-1,9.77,154.72499)" stroke-width="1" stroke-linecap="butt" stroke-miterlimit="10" stroke-linejoin="miter" fill="none" stroke="#000000" d="M 70.89137 0 L 70.89137 139.4882 "/>
<path transform="matrix(0,-1,-1,-0,80.66138,15.236786)" d="M 1.99252 0 L -1.19551 1.59401 L 0 0 L -1.19551 -1.59401 "/>
<symbol id="font_0_1">
<path d="M .57600006 0 C .59300008 0 .611 0 .611 .019999996 C .611 .040000008 .59300008 .040000008 .57600006 .040000008 L .035000005 .040000008 C .018 .040000008 0 .040000008 0 .019999996 C 0 0 .018 0 .035000005 0 L .57600006 0 Z "/>
</symbol>
<use xlink:href="#font_0_1" transform="matrix(9.9626,0,0,-9.9626,4.2208964,93.9956)"/>
<symbol id="font_1_2">
<path d="M .205 .64000007 C .205 .66400006 .205 .666 .18200003 .666 C .120000008 .60200008 .032000007 .60200008 0 .60200008 L 0 .57100006 C .020000004 .57100006 .07900001 .57100006 .13100001 .597 L .13100001 .079 C .13100001 .043 .128 .031000002 .038000004 .031000002 L .0060000049 .031000002 L .0060000049 0 C .04100001 .003 .128 .003 .168 .003 C .20800002 .003 .29500003 .003 .33000005 0 L .33000005 .031000002 L .29800005 .031000002 C .20800002 .031000002 .205 .042000005 .205 .079 L .205 .64000007 Z "/>
</symbol>
<use xlink:href="#font_1_2" transform="matrix(9.9626,0,0,-9.9626,12.029671,96.286998)"/>
<use xlink:href="#font_0_1" transform="matrix(9.9626,0,0,-9.9626,35.796899,93.9956)"/>
<symbol id="font_1_1">
<path d="M .421 .34200005 C .421 .42200003 .416 .50200006 .381 .57600006 C .335 .67200008 .25300003 .688 .211 .688 C .15100001 .688 .07800001 .66200008 .037000006 .56900009 C .0050000029 .5 0 .42200003 0 .34200005 C 0 .26700003 .0040000008 .177 .045000007 .101 C .088 .020000002 .161 0 .21000001 0 C .264 0 .34 .021000002 .384 .116000007 C .416 .185 .421 .263 .421 .34200005 M .21000001 .022000002 C .171 .022000002 .112 .047000003 .094 .143 C .083000008 .20300001 .083000008 .29500003 .083000008 .35400004 C .083000008 .41800005 .083000008 .48400004 .091000009 .53800007 C .11 .65700009 .185 .66600009 .21000001 .66600009 C .243 .66600009 .30900003 .64800009 .328 .549 C .338 .49300004 .338 .41700004 .338 .35400004 C .338 .279 .338 .21100001 .32700003 .147 C .312 .052 .255 .022000002 .21000001 .022000002 Z "/>
</symbol>
<use xlink:href="#font_1_1" transform="matrix(9.9626,0,0,-9.9626,43.107545,96.50617)"/>
<symbol id="font_2_1">
<path d="M .106 .053000004 C .106 .082 .08200001 .106000009 .05300001 .106000009 C .024000004 .106000009 0 .082 0 .053000004 C 0 .024 .024000004 0 .05300001 0 C .08200001 0 .106 .024 .106 .053000004 Z "/>
</symbol>
<use xlink:href="#font_2_1" transform="matrix(9.9626,0,0,-9.9626,48.557786,96.286998)"/>
<symbol id="font_1_3">
<path d="M .39900003 .223 C .39900003 .34200005 .317 .44200004 .209 .44200004 C .16100002 .44200004 .118000019 .42600004 .082 .39100004 L .082 .586 C .10200001 .58000007 .135 .573 .16700001 .573 C .29 .573 .36 .66400006 .36 .67700007 C .36 .683 .357 .688 .35 .688 C .349 .688 .347 .688 .342 .68500009 C .322 .67600008 .273 .656 .20600002 .656 C .16600001 .656 .120000008 .66300007 .073 .6840001 C .065 .68700006 .06300001 .68700006 .061000009 .68700006 C .051000004 .68700006 .051000004 .679 .051000004 .66300007 L .051000004 .36700005 C .051000004 .34900005 .051000004 .34100003 .065 .34100003 C .07200001 .34100003 .074 .34400005 .07800001 .35000003 C .08900002 .36600004 .12600002 .42000006 .207 .42000006 C .259 .42000006 .284 .37400005 .292 .35600005 C .308 .31900005 .31 .28000004 .31 .23 C .31 .19500001 .31 .135 .286 .093 C .262 .054000006 .22500001 .028 .17900002 .028 C .106000009 .028 .049000008 .08100001 .032 .14000002 C .035 .13900002 .038000008 .13800001 .049000008 .13800001 C .082 .13800001 .09900001 .163 .09900001 .187 C .09900001 .21100001 .082 .23600002 .049000008 .23600002 C .035 .23600002 0 .22900002 0 .18300002 C 0 .097 .069000009 0 .18100001 0 C .297 0 .39900003 .096 .39900003 .223 Z "/>
</symbol>
<use xlink:href="#font_1_3" transform="matrix(9.9626,0,0,-9.9626,50.96613,96.50617)"/>
<use xlink:href="#font_1_1" transform="matrix(9.9626,0,0,-9.9626,110.134548,96.50617)"/>
<use xlink:href="#font_2_1" transform="matrix(9.9626,0,0,-9.9626,115.583789,96.286998)"/>
<use xlink:href="#font_1_3" transform="matrix(9.9626,0,0,-9.9626,117.99313,96.50617)"/>
<use xlink:href="#font_1_2" transform="matrix(9.9626,0,0,-9.9626,149.95767,96.286998)"/>
<use xlink:href="#font_0_1" transform="matrix(9.9626,0,0,-9.9626,55.2889,120.10159)"/>
<use xlink:href="#font_1_1" transform="matrix(9.9626,0,0,-9.9626,62.599546,122.61217)"/>
<use xlink:href="#font_2_1" transform="matrix(9.9626,0,0,-9.9626,68.04878,122.39299)"/>
<use xlink:href="#font_1_3" transform="matrix(9.9626,0,0,-9.9626,70.45813,122.61217)"/>
<use xlink:href="#font_1_1" transform="matrix(9.9626,0,0,-9.9626,62.599546,52.126176)"/>
<use xlink:href="#font_2_1" transform="matrix(9.9626,0,0,-9.9626,68.04878,51.906999)"/>
<use xlink:href="#font_1_3" transform="matrix(9.9626,0,0,-9.9626,70.45814,52.126176)"/>
<use xlink:href="#font_1_2" transform="matrix(9.9626,0,0,-9.9626,70.84667,16.455994)"/>
<path transform="matrix(1,0,0,-1,9.77,154.72499)" stroke-width="1.19553" stroke-linecap="butt" stroke-miterlimit="10" stroke-linejoin="miter" fill="none" stroke="#000080" d="M 70.89137 141.48073 C 70.89137 141.48073 77.39638 140.90245 79.86687 140.19739 C 82.33736 139.49234 86.28642 137.78311 88.697 136.39919 C 91.10757 135.01526 94.92828 132.23586 97.24069 130.2229 C 99.5531 128.20995 103.18689 124.46066 105.36324 121.8912 C 107.53958 119.32175 110.92108 114.73701 112.92635 111.70401 C 114.93163 108.671 118.01309 103.41846 119.8159 100.0314 C 121.61873 96.64433 124.34921 90.91086 125.91986 87.29243 C 127.49052 83.674 129.82321 77.67099 131.13613 73.95222 C 132.44902 70.23344 134.34793 64.17537 135.38245 60.49005 C 136.41695 56.80472 137.8522 50.90958 138.59218 47.3909 C 139.33214 43.87222 140.28305 38.35445 140.7157 35.12982 C 141.14835 31.9052 141.5924 26.96385 141.71045 24.14993 C 141.82849 21.33601 141.76375 17.15068 141.56652 14.849 C 141.36928 12.54732 140.79854 9.26698 140.28887 7.56097 C 139.77919 5.85497 138.70792 3.60202 137.89308 2.55316 C 137.07823 1.5043 135.52237 .35544 134.41605 .0014 C 133.30973 -.35262 131.29875 -.35252 129.91945 .0014 C 128.54013 .35535 126.10564 1.5037 124.47487 2.55246 C 122.84412 3.60124 120.02226 5.85435 118.16602 7.56027 C 116.30978 9.26619 113.14787 12.5463 111.09637 14.84758 C 109.04486 17.14888 105.59373 21.33286 103.3801 24.14638 C 101.16647 26.9599 97.48254 31.90092 95.142 35.12556 C 92.80145 38.3502 88.94066 43.86848 86.5111 47.38736 C 84.08153 50.90623 80.11018 56.80199 77.63133 60.48721 C 75.15248 64.17245 71.13408 70.2292 68.64519 73.94797 C 66.15631 77.66673 62.1525 83.67116 59.69312 87.2896 C 57.23373 90.90804 53.3094 96.64029 50.9197 100.02715 C 48.52997 103.41399 44.7515 108.66666 42.46959 111.69975 C 40.18768 114.73285 36.61035 119.3179 34.47327 121.88766 C 32.33617 124.45741 29.0244 128.20754 27.06685 130.22078 C 25.10928 132.23403 22.1116 135.01363 20.36447 136.39777 C 18.61734 137.7819 15.98341 139.49164 14.47462 140.1967 C 12.96585 140.90175 10.73555 141.47902 9.49022 141.47931 C 8.24489 141.47959 6.46104 140.90358 5.49915 140.19882 C 4.53723 139.49408 3.22136 137.78372 2.55742 136.39989 C 1.8935 135.01604 1.0688 132.23778 .71397 130.22504 C .35915 128.2123 .03944 124.46259 0 121.89333 C -.03944 119.32408 .15341 114.74036 .42964 111.70755 C .70589 108.67474 1.40402 103.42178 1.99092 100.03494 C 2.57782 96.64809 3.77106 90.91563 4.65967 87.2974 C 5.5483 83.67915 7.21922 77.67606 8.3955 73.95718 C 9.57176 70.2383 11.6928 64.17973 13.13742 60.49431 C 14.58205 56.80887 17.11797 50.91393 18.80745 47.39516 C 20.49695 43.87639 23.40634 38.35818 25.31413 35.13336 C 27.22192 31.90854 30.462 26.96667 32.5575 24.15276 C 34.65298 21.33884 38.16823 17.1542 40.41698 14.85254 C 42.66573 12.55087 46.39896 9.27032 48.76497 7.56381 C 51.131 5.8573 55.02412 3.60213 57.46964 2.55316 C 59.91513 1.5042 63.90506 .35757 66.39052 .00354 C 68.87596 -.3505 72.89748 -.35204 75.38301 .0014 C 77.86856 .35487 81.85901 1.50256 84.30461 2.55104 C 86.75021 3.59952 90.64296 5.85262 93.00926 7.55814 C 95.37558 9.26367 99.11044 12.54195 101.35939 14.84332 C 103.60835 17.14471 107.1227 21.33133 109.21819 24.14496 C 111.31366 26.95859 114.55426 31.89777 116.46225 35.12202 C 118.37022 38.34627 121.28004 43.86443 122.96964 47.3831 C 124.65923 50.90178 127.19464 56.79712 128.63967 60.48225 C 130.08469 64.16737 132.20767 70.22432 133.38443 73.943 C 134.56119 77.66167 136.23206 83.6654 137.12096 87.28394 C 138.00986 90.90245 139.20395 96.63565 139.79114 100.0229 C 140.37833 103.41014 141.07677 108.6636 141.35309 111.69691 C 141.62943 114.73021 141.82212 119.31517 141.78276 121.88481 C 141.74343 124.45447 141.42412 128.2039 141.06949 130.21724 C 140.71486 132.23058 139.89038 135.01102 139.22675 136.39565 C 138.56313 137.78026 137.24816 139.49135 136.28644 140.1967 C 135.32474 140.90204 133.5403 141.47902 132.29537 141.47931 C 131.05043 141.47959 128.82227 140.90319 127.3138 140.19882 C 125.80531 139.49448 123.1702 137.78627 121.42326 136.40273 C 119.67632 135.01918 116.68037 132.2398 114.723 130.22716 C 112.76566 128.21451 109.45268 124.46603 107.31589 121.89688 C 105.17908 119.32771 101.60397 114.74309 99.32237 111.71037 C 97.04077 108.67767 93.26129 103.42584 90.87157 100.0392 C 88.48184 96.65254 84.55823 90.91998 82.09886 87.30165 C 79.63948 83.68332 75.63525 77.6794 73.14606 73.96072 C 70.65688 70.24203 66.63736 64.1853 64.15851 60.49997 C 61.67966 56.81465 57.70964 50.91858 55.28017 47.39941 C 52.8507 43.88025 48.98918 38.36092 46.64856 35.13618 C 44.30792 31.91145 40.62428 26.97176 38.41045 24.15773 C 36.19662 21.3437 32.74446 17.15674 30.69275 14.85466 C 28.64105 12.5526 25.47945 9.27246 23.62312 7.56595 C 21.7668 5.85942 18.94452 3.60455 17.31355 2.5553 C 15.6826 1.50604 13.24788 .35808 11.86827 .00354 C 10.48866 -.351 8.47685 -.35315 7.37024 0 C 6.26363 .35315 4.70744 1.50053 3.8925 2.5489 C 3.07758 3.59727 2.0068 5.8505 1.49673 7.55602 C .98666 9.26154 .41386 12.54001 .21625 14.8412 C .01862 17.14238 -.04552 21.3279 .07231 24.14142 C .19016 26.95494 .63327 31.89513 1.06564 35.11917 C 1.498 38.34323 2.44888 43.85976 3.18846 47.37814 C 3.92802 50.89653 5.36185 56.79196 6.39606 60.4773 C 7.43027 64.16261 9.32968 70.22049 10.64238 73.93945 C 11.9551 77.65842 14.28687 83.66266 15.85722 87.28108 C 17.42757 90.89952 20.15785 96.63148 21.96046 100.01865 C 23.76309 103.40579 26.84402 108.65997 28.8493 111.69336 C 30.85458 114.72676 34.23698 119.31123 36.41313 121.88127 C 38.5893 124.45132 42.22134 128.20279 44.53355 130.21652 C 46.84575 132.23026 50.66727 135.0104 53.07796 136.39493 C 55.48865 137.77945 59.4375 139.48983 61.90808 140.19527 C 64.37868 140.90071 70.8843 141.47931 70.8843 141.47931 "/>
<symbol id="font_2_2">
<path d="M .305 .31300003 C .311 .33900003 .334 .43100003 .404 .43100003 C .409 .43100003 .433 .43100003 .454 .418 C .426 .41300003 .40600003 .388 .40600003 .36400003 C .40600003 .34800003 .417 .32900004 .444 .32900004 C .46600003 .32900004 .498 .34700004 .498 .38700003 C .498 .43900005 .439 .45300005 .405 .45300005 C .347 .45300005 .312 .40000005 .3 .37700004 C .275 .44300003 .221 .45300005 .19200002 .45300005 C .08800001 .45300005 .031000002 .32400004 .031000002 .29900003 C .031000002 .28900004 .041 .28900004 .043000007 .28900004 C .051000008 .28900004 .054000006 .291 .056 .3 C .09 .40600003 .156 .43100003 .19000001 .43100003 C .209 .43100003 .244 .42200003 .244 .36400003 C .244 .33300004 .22700002 .26600004 .19000001 .126 C .17400001 .064 .13900002 .022000002 .095000009 .022000002 C .08900001 .022000002 .06600001 .022000002 .045 .035 C .07000001 .040000004 .09200001 .061 .09200001 .089 C .09200001 .116000007 .07000001 .124000009 .055000009 .124000009 C .025 .124000009 0 .098000008 0 .06600001 C 0 .020000002 .050000006 0 .094000007 0 C .16000001 0 .19600001 .07000001 .19900002 .076000008 C .21100001 .039 .24700003 0 .307 0 C .41 0 .467 .12900001 .467 .15400002 C .467 .16400002 .458 .16400002 .455 .16400002 C .446 .16400002 .444 .16000001 .442 .15300001 C .409 .046 .341 .022000002 .30900003 .022000002 C .27 .022000002 .254 .054 .254 .08800001 C .254 .11000001 .26 .13200002 .271 .17600002 L .305 .31300003 Z "/>
</symbol>
<use xlink:href="#font_2_2" transform="matrix(9.9626,0,0,-9.9626,155.45891,86.38858)"/>
<symbol id="font_2_3">
<path d="M .45700003 .586 C .461 .6 .461 .602 .461 .609 C .461 .62700006 .447 .63600006 .432 .63600006 C .42200003 .63600006 .40600003 .63 .397 .615 C .395 .61 .387 .579 .38300003 .561 C .37600003 .535 .36900003 .508 .363 .48100005 L .318 .301 C .314 .286 .271 .21600002 .20500002 .21600002 C .15400002 .21600002 .143 .26000003 .143 .29700003 C .143 .34300003 .16000001 .40500004 .194 .49300004 C .21000001 .53400006 .21400002 .545 .21400002 .56500008 C .21400002 .61 .18200001 .6470001 .13200002 .6470001 C .037 .6470001 0 .50200006 0 .49300004 C 0 .48300005 .01 .48300005 .012 .48300005 C .022000002 .48300005 .023 .485 .028000003 .50100007 C .055000009 .595 .095000009 .625 .12900001 .625 C .13700001 .625 .15400002 .625 .15400002 .59300008 C .15400002 .568 .14400001 .54200008 .13700001 .523 C .097 .41700004 .079 .36 .079 .31300003 C .079 .224 .142 .194 .201 .194 C .24000003 .194 .274 .21100001 .30200003 .23900002 C .289 .187 .277 .13800001 .237 .08500001 C .21100001 .051 .17300001 .022 .127 .022 C .113000009 .022 .068 .025000006 .051000008 .06400001 C .067 .06400001 .080000009 .06400001 .094000007 .076000008 C .104 .08500001 .11400001 .098000008 .11400001 .117000009 C .11400001 .148 .087000008 .15200001 .07700001 .15200001 C .054000006 .15200001 .021 .136 .021 .087000008 C .021 .037 .065000008 0 .127 0 C .23 0 .333 .091000009 .361 .20400001 L .45700003 .586 Z "/>
</symbol>
<use xlink:href="#font_2_3" transform="matrix(9.9626,0,0,-9.9626,78.34292,9.726324)"/>
</svg>
