<?xml version="1.0" encoding="UTF-8" standalone="no"?>
<!DOCTYPE svg PUBLIC "-//W3C//DTD SVG 1.1//EN" "http://www.w3.org/Graphics/SVG/1.1/DTD/svg11.dtd">
<svg xmlns="http://www.w3.org/2000/svg" xmlns:xlink="http://www.w3.org/1999/xlink" version="1.1" width="202.96pt" height="165.712pt" viewBox="0 0 202.96 165.712">
<path transform="matrix(1,0,0,-1,19.076,153.031)" stroke-width="1" stroke-linecap="butt" stroke-miterlimit="10" stroke-linejoin="miter" fill="none" stroke="#808080" d="M 57.05606 .72684 L 57.05606 4.97873 M 114.11212 .72684 L 114.11212 4.97873 M 171.16819 .72684 L 171.16819 4.97873 "/>
<path transform="matrix(1,0,0,-1,19.076,153.031)" stroke-width="1" stroke-linecap="butt" stroke-miterlimit="10" stroke-linejoin="miter" fill="none" stroke="#808080" d="M -2.12593 31.38083 L 2.12593 31.38083 M -2.12593 59.90886 L 2.12593 59.90886 M -2.12593 88.43689 L 2.12593 88.43689 M -2.12593 116.96492 L 2.12593 116.96492 "/>
<path transform="matrix(1,0,0,-1,19.076,153.031)" stroke-width="1" stroke-linecap="butt" stroke-miterlimit="10" stroke-linejoin="miter" fill="none" stroke="#000000" d="M 0 2.8528 L 169.17566 2.8528 "/>
<path transform="matrix(1,0,0,-1,188.25167,150.1782)" d="M 1.99252 0 L -1.19551 1.59401 L 0 0 L -1.19551 -1.59401 "/>
<path transform="matrix(1,0,0,-1,19.076,153.031)" stroke-width="1" stroke-linecap="butt" stroke-miterlimit="10" stroke-linejoin="miter" fill="none" stroke="#000000" d="M 0 0 L 0 137.79483 "/>
<path transform="matrix(0,-1,-1,-0,19.076,15.236176)" d="M 1.99252 0 L -1.19551 1.59401 L 0 0 L -1.19551 -1.59401 "/>
<symbol id="font_0_3">
<path d="M .07700001 .07700001 L .18300002 .18 C .33900003 .31800003 .39900003 .372 .39900003 .47200004 C .39900003 .586 .30900003 .666 .18700002 .666 C .074 .666 0 .574 0 .485 C 0 .42900003 .05 .42900003 .053000008 .42900003 C .07000001 .42900003 .105000007 .441 .105000007 .48200003 C .105000007 .508 .08700001 .53400006 .052000006 .53400006 C .044000005 .53400006 .042000008 .53400006 .039 .53300008 C .062000004 .59800007 .11600001 .63500007 .17400001 .63500007 C .26500003 .63500007 .308 .554 .308 .47200004 C .308 .39200003 .25800003 .31300003 .20300003 .25100003 L .011000004 .037 C 0 .026 0 .024 0 0 L .37100003 0 L .39900003 .17400001 L .374 .17400001 C .36900003 .14400001 .36200003 .1 .352 .085 C .345 .07700001 .279 .07700001 .257 .07700001 L .07700001 .07700001 Z "/>
</symbol>
<symbol id="font_0_1">
<path d="M .421 .34200005 C .421 .42200003 .416 .50200006 .381 .57600006 C .335 .67200008 .25300003 .688 .211 .688 C .15100001 .688 .07800001 .66200008 .037000006 .56900009 C .0050000029 .5 0 .42200003 0 .34200005 C 0 .26700003 .0040000008 .177 .045000007 .101 C .088 .020000002 .161 0 .21000001 0 C .264 0 .34 .021000002 .384 .116000007 C .416 .185 .421 .263 .421 .34200005 M .21000001 .022000002 C .171 .022000002 .112 .047000003 .094 .143 C .083000008 .20300001 .083000008 .29500003 .083000008 .35400004 C .083000008 .41800005 .083000008 .48400004 .091000009 .53800007 C .11 .65700009 .185 .66600009 .21000001 .66600009 C .243 .66600009 .30900003 .64800009 .328 .549 C .338 .49300004 .338 .41700004 .338 .35400004 C .338 .279 .338 .21100001 .32700003 .147 C .312 .052 .255 .022000002 .21000001 .022000002 Z "/>
</symbol>
<use xlink:href="#font_0_3" transform="matrix(9.9626,0,0,-9.9626,71.64813,162.31801)"/>
<use xlink:href="#font_0_1" transform="matrix(9.9626,0,0,-9.9626,76.519847,162.53719)"/>
<symbol id="font_0_5">
<path d="M .266 .165 L .266 .078 C .266 .042000005 .26400004 .031000002 .19000001 .031000002 L .16900002 .031000002 L .16900002 0 C .21000001 .003 .26200003 .003 .30400003 .003 C .34600003 .003 .39900003 .003 .44000004 0 L .44000004 .031000002 L .41900004 .031000002 C .34500004 .031000002 .34300003 .042000005 .34300003 .078 L .34300003 .165 L .44300003 .165 L .44300003 .19600001 L .34300003 .19600001 L .34300003 .651 C .34300003 .671 .34300003 .67700007 .32700003 .67700007 C .31800003 .67700007 .31500004 .67700007 .307 .665 L 0 .19600001 L 0 .165 L .266 .165 M .272 .19600001 L .028 .19600001 L .272 .569 L .272 .19600001 Z "/>
</symbol>
<use xlink:href="#font_0_5" transform="matrix(9.9626,0,0,-9.9626,128.48494,162.31801)"/>
<use xlink:href="#font_0_1" transform="matrix(9.9626,0,0,-9.9626,133.57582,162.53719)"/>
<symbol id="font_0_6">
<path d="M .089999999 .35000003 L .089999999 .37400005 C .089999999 .62700006 .21400002 .66300007 .26500003 .66300007 C .28900004 .66300007 .33100004 .65700009 .35300002 .623 C .33800004 .623 .298 .623 .298 .57800009 C .298 .54700008 .32200004 .53200009 .344 .53200009 C .36 .53200009 .39000003 .54100009 .39000003 .58000007 C .39000003 .64000007 .34600003 .688 .263 .688 C .13499999 .688 0 .559 0 .33800004 C 0 .071 .116000007 0 .20900002 0 C .32000003 0 .41500003 .094000007 .41500003 .22600001 C .41500003 .35300005 .32600004 .44900004 .215 .44900004 C .14700002 .44900004 .11000001 .39800004 .089999999 .35000003 M .20900002 .028 C .146 .028 .116000007 .088 .11000001 .103 C .092 .15 .092 .23 .092 .24800001 C .092 .32600004 .124000009 .42600004 .21400002 .42600004 C .23000002 .42600004 .27600003 .42600004 .307 .36400003 C .32500003 .32700003 .32500003 .27600003 .32500003 .22700002 C .32500003 .179 .32500003 .12900001 .30800004 .093 C .27800004 .033000005 .23200003 .028 .20900002 .028 Z "/>
</symbol>
<use xlink:href="#font_0_6" transform="matrix(9.9626,0,0,-9.9626,185.67943,162.53719)"/>
<use xlink:href="#font_0_1" transform="matrix(9.9626,0,0,-9.9626,190.63083,162.53719)"/>
<symbol id="font_0_2">
<path d="M .205 .64000007 C .205 .66400006 .205 .666 .18200003 .666 C .120000008 .60200008 .032000007 .60200008 0 .60200008 L 0 .57100006 C .020000004 .57100006 .07900001 .57100006 .13100001 .597 L .13100001 .079 C .13100001 .043 .128 .031000002 .038000004 .031000002 L .0060000049 .031000002 L .0060000049 0 C .04100001 .003 .128 .003 .168 .003 C .20800002 .003 .29500003 .003 .33000005 0 L .33000005 .031000002 L .29800005 .031000002 C .20800002 .031000002 .205 .042000005 .205 .079 L .205 .64000007 Z "/>
</symbol>
<use xlink:href="#font_0_2" transform="matrix(9.9626,0,0,-9.9626,4.2806718,124.86)"/>
<use xlink:href="#font_0_1" transform="matrix(9.9626,0,0,-9.9626,8.763841,125.07918)"/>
<use xlink:href="#font_0_3" transform="matrix(9.9626,0,0,-9.9626,3.8921302,96.33301)"/>
<use xlink:href="#font_0_1" transform="matrix(9.9626,0,0,-9.9626,8.763841,96.552188)"/>
<symbol id="font_0_4">
<path d="M .24800003 .37400005 C .33 .40100003 .388 .47100006 .388 .55 C .388 .632 .3 .688 .204 .688 C .10300001 .688 .027000003 .628 .027000003 .55200007 C .027000003 .519 .049000004 .5 .078 .5 C .109000008 .5 .12900001 .522 .12900001 .55100008 C .12900001 .6010001 .082 .6010001 .067 .6010001 C .098 .65000006 .164 .66300007 .20000002 .66300007 C .24100003 .66300007 .29600004 .64100006 .29600004 .55100008 C .29600004 .53900006 .29400004 .48100005 .268 .43700005 C .238 .38900004 .204 .38600005 .17900002 .38500003 C .171 .38400004 .14700002 .38200004 .14000002 .38200004 C .132 .38100005 .125 .38000003 .125 .37000004 C .125 .35900004 .132 .35900004 .14900002 .35900004 L .19300002 .35900004 C .275 .35900004 .312 .29100005 .312 .193 C .312 .057000005 .24300003 .028 .199 .028 C .15600002 .028 .081 .045 .046000005 .104 C .081 .09900001 .11200001 .12100001 .11200001 .15900001 C .11200001 .19500001 .085 .215 .056 .215 C .031999999 .215 0 .201 0 .157 C 0 .06600001 .093 0 .20200002 0 C .32400004 0 .41500003 .091000009 .41500003 .193 C .41500003 .27500005 .35200004 .35300005 .24800003 .37400005 Z "/>
</symbol>
<use xlink:href="#font_0_4" transform="matrix(9.9626,0,0,-9.9626,3.8124293,68.024188)"/>
<use xlink:href="#font_0_1" transform="matrix(9.9626,0,0,-9.9626,8.763841,68.024188)"/>
<use xlink:href="#font_0_5" transform="matrix(9.9626,0,0,-9.9626,3.672953,39.277009)"/>
<use xlink:href="#font_0_1" transform="matrix(9.9626,0,0,-9.9626,8.763841,39.496187)"/>
<path transform="matrix(1,0,0,-1,19.076,153.031)" stroke-width="1.19553" stroke-linecap="butt" stroke-miterlimit="10" stroke-linejoin="miter" fill="none" stroke="#000080" d="M 11.41121 0 C 11.41121 0 10.92189 .50174 10.74289 .69623 C 10.5639 .89072 10.28723 1.2047 10.12117 1.40178 C 9.9551 1.59886 9.69913 1.917 9.546 2.11667 C 9.39287 2.31633 9.15762 2.6386 9.01741 2.84085 C 8.8772 3.04309 8.66269 3.36952 8.5354 3.57436 C 8.40811 3.77919 8.21432 4.10976 8.09996 4.31717 C 7.9856 4.52458 7.81253 4.8593 7.71109 5.0693 C 7.60965 5.27931 7.4573 5.61816 7.36879 5.83073 C 7.28026 6.04332 7.14865 6.38634 7.07304 6.60152 C 6.99745 6.81668 6.88657 7.16382 6.82388 7.38158 C 6.76122 7.59932 6.67105 7.95062 6.6213 8.17096 C 6.57156 8.3913 6.50212 8.74675 6.4653 8.96968 C 6.42848 9.1926 6.37975 9.55219 6.35585 9.7777 C 6.33195 10.0032 6.30396 10.36693 6.29297 10.59502 C 6.282 10.8231 6.27475 11.191 6.27667 11.42166 C 6.27861 11.65234 6.29208 12.02437 6.30695 12.25761 C 6.3218 12.49088 6.35602 12.86705 6.38379 13.10289 C 6.41156 13.33875 6.4665 13.71906 6.5072 13.95747 C 6.5479 14.1959 6.62357 14.58038 6.67719 14.8214 C 6.7308 15.06241 6.82718 15.451 6.89374 15.69461 C 6.9603 15.9382 7.0774 16.33095 7.15688 16.57713 C 7.23634 16.8233 7.37416 17.22021 7.46657 17.46898 C 7.55896 17.71774 7.71751 18.11879 7.82285 18.37013 C 7.92816 18.62149 8.10745 19.02669 8.2257 19.28061 C 8.34393 19.53455 8.54395 19.94388 8.67511 20.2004 C 8.80627 20.45691 9.02701 20.87039 9.17108 21.1295 C 9.31517 21.3886 9.55663 21.80623 9.71364 22.06792 C 9.87064 22.3296 10.13283 22.75136 10.30275 23.01564 C 10.47269 23.2799 10.75558 23.70581 10.93846 23.97267 C 11.12132 24.23955 11.42496 24.66962 11.62074 24.93907 C 11.81653 25.20853 12.14087 25.6427 12.34958 25.91473 C 12.55829 26.18675 12.90337 26.6251 13.125 26.8997 C 13.34663 27.17432 13.71243 27.61682 13.94699 27.89401 C 14.18153 28.1712 14.56805 28.61784 14.81552 28.89761 C 15.06299 29.1774 15.47026 29.62817 15.73065 29.91054 C 15.99104 30.1929 16.41902 30.64781 16.69234 30.93279 C 16.96565 31.21774 17.41438 31.6768 17.7006 31.96434 C 17.98685 32.25188 18.45627 32.71509 18.75545 33.0052 C 19.05463 33.29532 19.54477 33.76268 19.85686 34.05539 C 20.16896 34.3481 20.67987 34.81963 21.00488 35.11491 C 21.32991 35.41022 21.86148 35.88586 22.19943 36.18375 C 22.53737 36.48163 23.08969 36.96141 23.44055 37.26187 C 23.79141 37.56232 24.36446 38.04625 24.72824 38.34929 C 25.09203 38.65234 25.68582 39.14043 26.06252 39.44606 C 26.43922 39.7517 27.05373 40.2439 27.44334 40.55212 C 27.83298 40.86034 28.4682 41.3567 28.87076 41.66751 C 29.2733 41.97832 29.92924 42.4788 30.34473 42.79219 C 30.7602 43.10558 31.43684 43.61023 31.86525 43.9262 C 32.29366 44.24217 32.99107 44.75096 33.4324 45.06952 C 33.87372 45.38808 34.59189 45.90108 35.04613 46.22221 C 35.50038 46.54335 36.23923 47.06044 36.7064 47.38417 C 37.17357 47.70789 37.93314 48.22913 38.41324 48.55544 C 38.89333 48.88174 39.67363 49.40712 40.16664 49.73602 C 40.65965 50.06491 41.46066 50.59442 41.9666 50.9259 C 42.47253 51.25739 43.2943 51.79105 43.81316 52.1251 C 44.33202 52.45918 45.1745 52.997 45.70627 53.33363 C 46.23805 53.67029 47.10124 54.21223 47.64594 54.55147 C 48.19064 54.8907 49.07458 55.43681 49.63222 55.77864 C 50.18985 56.12045 51.09447 56.6707 51.66504 57.0151 C 52.23561 57.3595 53.16104 57.91394 53.74454 58.26093 C 54.32803 58.60791 55.27408 59.16644 55.87048 59.516 C 56.46689 59.86559 57.43372 60.42828 58.04305 60.78044 C 58.65237 61.13258 59.63992 61.69942 60.26218 62.05415 C 60.88441 62.40889 61.89267 62.97987 62.52785 63.33719 C 63.16301 63.69452 64.192 64.26964 64.8401 64.62955 C 65.48822 64.98946 66.53793 65.56871 67.19894 65.9312 C 67.85995 66.29369 68.9304 66.87712 69.60434 67.24219 C 70.27827 67.60727 71.36942 68.19482 72.05629 68.56248 C 72.74316 68.93015 73.85503 69.52184 74.55482 69.89209 C 75.25464 70.26234 76.38731 70.85822 77.10005 71.23106 C 77.81277 71.60391 78.96611 72.20389 79.69174 72.5793 C 80.41737 72.95471 81.59143 73.55885 82.32999 73.93684 C 83.06854 74.31485 84.26332 74.92314 85.0148 75.30373 C 85.76628 75.68431 86.98181 76.29674 87.7462 76.6799 C 88.5106 77.06306 89.74683 77.67964 90.52417 78.06538 C 91.30151 78.45114 92.55847 79.07187 93.34872 79.4602 C 94.13899 79.84854 95.41666 80.47342 96.21983 80.86433 C 97.02301 81.25525 98.3214 81.88425 99.13751 82.27776 C 99.95361 82.67125 101.27284 83.30443 102.10185 83.70052 C 102.93086 84.0966 104.27054 84.73387 105.1125 85.13257 C 105.95447 85.53125 107.31529 86.17276 108.17017 86.57402 C 109.02505 86.9753 110.4062 87.62085 111.27399 88.02469 C 112.14178 88.42853 113.54387 89.07828 114.42462 89.48473 C 115.30536 89.89116 116.72816 90.54504 117.62181 90.95406 C 118.51544 91.36307 119.9588 92.02104 120.86536 92.43266 C 121.77191 92.84427 123.23622 93.50645 124.15572 93.92064 C 125.07521 94.33484 126.56001 95.00113 127.49243 95.4179 C 128.42485 95.83464 129.9306 96.50511 130.87593 96.92448 C 131.82128 97.34384 133.34758 98.01843 134.3058 98.44035 C 135.26404 98.86229 136.81105 99.54102 137.78226 99.96555 C 138.75347 100.39008 140.32155 101.07306 141.30568 101.50017 C 142.28981 101.92728 143.87828 102.6143 144.87529 103.04399 C 145.8723 103.47368 147.4815 104.16483 148.49146 104.5971 C 149.50142 105.0294 151.13156 105.72475 152.15444 106.15962 C 153.17733 106.59448 154.82798 107.29395 155.86377 107.73138 C 156.89955 108.16882 158.57097 108.87242 159.61968 109.31247 C 160.66838 109.7525 162.36052 110.46024 163.42215 110.90286 C 164.48378 111.34549 166.19664 112.05736 167.27123 112.50256 C 168.34581 112.94777 171.16709 114.11165 171.16709 114.11165 "/>
<path transform="matrix(1,0,0,-1,19.076,153.031)" stroke-width="1.59404" stroke-linecap="butt" stroke-miterlimit="10" stroke-linejoin="miter" fill="none" stroke="#cc6600" d="M 0 32.80724 C 0 32.80724 5.1529 35.3837 7.132 36.37323 C 9.1111 37.36278 12.28491 38.94969 14.264 39.93924 C 16.2431 40.92879 19.41692 42.5157 21.39601 43.50525 C 23.37512 44.49478 26.54892 46.08171 28.52803 47.07124 C 30.50713 48.06079 33.68094 49.6477 35.66003 50.63725 C 37.63913 51.62679 40.81294 53.21371 42.79204 54.20325 C 44.77115 55.1928 47.94495 56.77971 49.92406 57.76926 C 51.90315 58.7588 55.07695 60.34572 57.05606 61.33527 C 59.03516 62.3248 62.20897 63.91173 64.18806 64.90126 C 66.16716 65.89081 69.34097 67.47772 71.32007 68.46727 C 73.29918 69.45682 76.47298 71.04373 78.45209 72.03328 C 80.43118 73.02281 83.605 74.60974 85.58409 75.59927 C 87.56319 76.58882 90.737 78.17574 92.7161 79.16528 C 94.6952 80.15483 97.869 81.74174 99.84811 82.7313 C 101.82721 83.72083 105.00102 85.30775 106.98012 86.29729 C 108.95921 87.28683 112.13303 88.87375 114.11212 89.8633 C 116.09122 90.85284 119.26503 92.43976 121.24413 93.4293 C 123.22324 94.41884 126.39703 96.00577 128.37615 96.9953 C 130.35524 97.98485 133.52906 99.57176 135.50815 100.56131 C 137.48725 101.55084 140.66106 103.13777 142.64015 104.1273 C 144.61927 105.11685 147.79306 106.70377 149.77217 107.69331 C 151.75127 108.68286 154.92508 110.26978 156.90418 111.25932 C 158.88327 112.24886 162.05709 113.83578 164.03618 114.82532 C 166.01528 115.81487 171.16819 118.39133 171.16819 118.39133 "/>
<path transform="matrix(1,0,0,-1,19.076,153.031)" stroke-width="1.59404" stroke-linecap="butt" stroke-miterlimit="10" stroke-linejoin="miter" fill="none" stroke="#008000" d="M 57.05606 139.78736 C 57.05606 139.78736 59.03134 135.8368 59.78998 134.3195 C 60.54861 132.8022 61.76526 130.36896 62.52391 128.85164 C 63.28255 127.33434 64.49919 124.90111 65.25783 123.38379 C 66.01646 121.86649 67.23311 119.43324 67.99176 117.91592 C 68.7504 116.39862 69.96704 113.96538 70.72568 112.44809 C 71.48431 110.93079 72.70094 108.49754 73.4596 106.98024 C 74.21826 105.46292 75.43489 103.02968 76.19354 101.51237 C 76.9522 99.99507 78.16882 97.56181 78.92746 96.04453 C 79.6861 94.52724 80.90274 92.094 81.66139 90.57668 C 82.42003 89.05937 83.63667 86.62613 84.39531 85.10881 C 85.15395 83.5915 86.37059 81.15826 87.12924 79.64096 C 87.88788 78.12367 89.1045 75.69043 89.86316 74.17313 C 90.62181 72.6558 91.83844 70.22256 92.59709 68.70526 C 93.35576 67.18794 94.57239 64.7547 95.33102 63.23741 C 96.08966 61.72012 97.3063 59.28687 98.06494 57.76956 C 98.82358 56.25226 100.04022 53.81902 100.79887 52.3017 C 101.55751 50.7844 102.77415 48.35115 103.53279 46.83385 C 104.29143 45.31656 105.50806 42.88332 106.26672 41.366 C 107.02538 39.8487 108.242 37.41545 109.00066 35.89815 C 109.75931 34.38083 110.97594 31.94759 111.73457 30.4303 C 112.49323 28.913 113.70987 26.47974 114.4685 24.96245 C 115.22714 23.44516 116.44379 21.01189 117.20242 19.4946 C 117.96106 17.97731 119.1777 15.54407 119.93636 14.02676 C 120.69499 12.50948 122.67027 8.55891 122.67027 8.55891 "/>
<path transform="matrix(1,0,0,-1,19.076,153.031)" d="M 90.42944 77.02568 C 90.42944 78.12614 89.53737 79.01823 88.43689 79.01823 C 87.33643 79.01823 86.44434 78.12614 86.44434 77.02568 C 86.44434 75.92522 87.33643 75.03313 88.43689 75.03313 C 89.53737 75.03313 90.42944 75.92522 90.42944 77.02568 Z M 88.43689 77.02568 "/>
<path transform="matrix(1,0,0,-1,19.076,153.031)" stroke-width="1" stroke-linecap="butt" stroke-miterlimit="10" stroke-linejoin="miter" fill="none" stroke="#000000" d="M 90.42944 77.02568 C 90.42944 78.12614 89.53737 79.01823 88.43689 79.01823 C 87.33643 79.01823 86.44434 78.12614 86.44434 77.02568 C 86.44434 75.92522 87.33643 75.03313 88.43689 75.03313 C 89.53737 75.03313 90.42944 75.92522 90.42944 77.02568 Z M 88.43689 77.02568 "/>
<symbol id="font_1_1">
<path d="M .305 .31300003 C .311 .33900003 .334 .43100003 .404 .43100003 C .409 .43100003 .433 .43100003 .454 .418 C .426 .41300003 .40600003 .388 .40600003 .36400003 C .40600003 .34800003 .417 .32900004 .444 .32900004 C .46600003 .32900004 .498 .34700004 .498 .38700003 C .498 .43900005 .439 .45300005 .405 .45300005 C .347 .45300005 .312 .40000005 .3 .37700004 C .275 .44300003 .221 .45300005 .19200002 .45300005 C .08800001 .45300005 .031000002 .32400004 .031000002 .29900003 C .031000002 .28900004 .041 .28900004 .043000007 .28900004 C .051000008 .28900004 .054000006 .291 .056 .3 C .09 .40600003 .156 .43100003 .19000001 .43100003 C .209 .43100003 .244 .42200003 .244 .36400003 C .244 .33300004 .22700002 .26600004 .19000001 .126 C .17400001 .064 .13900002 .022000002 .095000009 .022000002 C .08900001 .022000002 .06600001 .022000002 .045 .035 C .07000001 .040000004 .09200001 .061 .09200001 .089 C .09200001 .116000007 .07000001 .124000009 .055000009 .124000009 C .025 .124000009 0 .098000008 0 .06600001 C 0 .020000002 .050000006 0 .094000007 0 C .16000001 0 .19600001 .07000001 .19900002 .076000008 C .21100001 .039 .24700003 0 .307 0 C .41 0 .467 .12900001 .467 .15400002 C .467 .16400002 .458 .16400002 .455 .16400002 C .446 .16400002 .444 .16000001 .442 .15300001 C .409 .046 .341 .022000002 .30900003 .022000002 C .27 .022000002 .254 .054 .254 .08800001 C .254 .11000001 .26 .13200002 .271 .17600002 L .305 .31300003 Z "/>
</symbol>
<use xlink:href="#font_1_1" transform="matrix(9.9626,0,0,-9.9626,194.16092,152.4316)"/>
<symbol id="font_1_2">
<path d="M .45700003 .586 C .461 .6 .461 .602 .461 .609 C .461 .62700006 .447 .63600006 .432 .63600006 C .42200003 .63600006 .40600003 .63 .397 .615 C .395 .61 .387 .579 .38300003 .561 C .37600003 .535 .36900003 .508 .363 .48100005 L .318 .301 C .314 .286 .271 .21600002 .20500002 .21600002 C .15400002 .21600002 .143 .26000003 .143 .29700003 C .143 .34300003 .16000001 .40500004 .194 .49300004 C .21000001 .53400006 .21400002 .545 .21400002 .56500008 C .21400002 .61 .18200001 .6470001 .13200002 .6470001 C .037 .6470001 0 .50200006 0 .49300004 C 0 .48300005 .01 .48300005 .012 .48300005 C .022000002 .48300005 .023 .485 .028000003 .50100007 C .055000009 .595 .095000009 .625 .12900001 .625 C .13700001 .625 .15400002 .625 .15400002 .59300008 C .15400002 .568 .14400001 .54200008 .13700001 .523 C .097 .41700004 .079 .36 .079 .31300003 C .079 .224 .142 .194 .201 .194 C .24000003 .194 .274 .21100001 .30200003 .23900002 C .289 .187 .277 .13800001 .237 .08500001 C .21100001 .051 .17300001 .022 .127 .022 C .113000009 .022 .068 .025000006 .051000008 .06400001 C .067 .06400001 .080000009 .06400001 .094000007 .076000008 C .104 .08500001 .11400001 .098000008 .11400001 .117000009 C .11400001 .148 .087000008 .15200001 .07700001 .15200001 C .054000006 .15200001 .021 .136 .021 .087000008 C .021 .037 .065000008 0 .127 0 C .23 0 .333 .091000009 .361 .20400001 L .45700003 .586 Z "/>
</symbol>
<use xlink:href="#font_1_2" transform="matrix(9.9626,0,0,-9.9626,16.743916,9.725332)"/>
</svg>
