<?xml version="1.0" encoding="UTF-8" standalone="no"?>
<!DOCTYPE svg PUBLIC "-//W3C//DTD SVG 1.1//EN" "http://www.w3.org/Graphics/SVG/1.1/DTD/svg11.dtd">
<svg xmlns="http://www.w3.org/2000/svg" xmlns:xlink="http://www.w3.org/1999/xlink" version="1.1" width="204.502pt" height="202.847pt" viewBox="0 0 204.502 202.847">
<path transform="matrix(1,0,0,-1,8.246,196.656)" stroke-width="1" stroke-linecap="butt" stroke-miterlimit="10" stroke-linejoin="miter" fill="none" stroke="#000000" d="M -8.04666 -5.99184 L -8.04666 196.45882 L 196.05931 196.45882 L 196.05931 -5.99184 Z M 196.05931 196.45882 "/>
<clipPath id="cp0">
<path transform="matrix(.75,0,0,-.75,8.24575,196.65625)" d="M 0 0 L 243.15868 0 L 243.15868 243.15868 L 0 243.15868 Z "/>
</clipPath>
<g clip-path="url(#cp0)">
<path transform="matrix(.75,0,0,-.75,8.24575,196.65625)" stroke-width="1.59404" stroke-linecap="butt" stroke-miterlimit="10" stroke-linejoin="miter" fill="none" stroke="#000080" d="M 4.67612 261.8632 C 4.67612 261.8632 8.89928 257.64006 10.52129 256.01805 C 12.14328 254.39603 14.74443 251.79488 16.36644 250.17287 C 17.98845 248.55086 20.5896 245.94972 22.21161 244.32772 C 23.8336 242.7057 26.43475 240.10456 28.05676 238.48255 C 29.67877 236.86055 32.27992 234.2594 33.90193 232.63739 C 35.52393 231.01538 38.12508 228.41423 39.74709 226.79222 C 41.3691 225.17023 43.97025 222.56908 45.59224 220.94707 C 47.21425 219.32506 49.8154 216.7239 51.43741 215.1019 C 53.05942 213.4799 55.66057 210.87876 57.28256 209.25675 C 58.90457 207.63474 61.50572 205.03359 63.12773 203.41159 C 64.74974 201.78958 67.35088 199.18843 68.97289 197.56642 C 70.5949 195.94441 73.19604 193.34326 74.81805 191.72127 C 76.44005 190.09926 79.0412 187.49811 80.66321 185.8761 C 82.28522 184.25409 84.88637 181.65296 86.50838 180.03095 C 88.13037 178.40894 90.73152 175.80779 92.35353 174.18578 C 93.97554 172.56378 96.57669 169.96263 98.19868 168.34062 C 99.8207 166.71862 102.42184 164.11746 104.04385 162.49546 C 105.66586 160.87346 108.26701 158.27231 109.889 156.6503 C 111.51102 155.02829 114.11217 152.42714 115.73418 150.80515 C 117.35619 149.18314 119.95734 146.58199 121.57933 144.95998 C 123.20134 143.33797 125.80249 140.73682 127.4245 139.11483 C 129.0465 137.49282 131.64765 134.89167 133.26966 133.26966 C 134.89167 131.64765 137.49282 129.0465 139.11483 127.4245 C 140.73682 125.80249 144.95998 121.57933 144.95998 121.57933 "/>
<path transform="matrix(.75,0,0,-.75,8.24575,196.65625)" stroke-width="1.59404" stroke-linecap="butt" stroke-miterlimit="10" stroke-linejoin="miter" fill="none" stroke="#000080" d="M 144.95998 121.57933 C 144.95998 121.57933 147.7754 124.39476 148.85674 125.47609 C 149.93807 126.55742 151.67215 128.2915 152.75348 129.37285 C 153.83483 130.45418 155.56891 132.18827 156.65024 133.26959 C 157.73157 134.35092 159.46566 136.08502 160.547 137.16635 C 161.62833 138.24768 163.36243 139.98178 164.44376 141.06311 C 165.52509 142.14446 167.25919 143.87854 168.34052 144.95987 C 169.42185 146.0412 171.15593 147.7753 172.23728 148.85663 C 173.3186 149.93796 175.05269 151.67205 176.13402 152.75337 C 177.21535 153.83472 178.94947 155.56882 180.03079 156.65015 C 181.11212 157.73148 182.8462 159.46556 183.92754 160.5469 C 185.00888 161.62824 186.74297 163.36232 187.8243 164.44365 C 188.90563 165.52498 190.63973 167.25908 191.72106 168.34041 C 192.80239 169.42174 194.53649 171.15584 195.61782 172.23719 C 196.69916 173.31851 198.43325 175.0526 199.51457 176.13393 C 200.5959 177.21526 202.32999 178.94936 203.41133 180.03069 C 204.49266 181.11202 206.22675 182.8461 207.30808 183.92743 C 208.3894 185.00878 210.12352 186.74288 211.20485 187.8242 C 212.28618 188.90554 214.02027 190.63964 215.10161 191.72097 C 216.18294 192.80229 217.91703 194.53638 218.99835 195.6177 C 220.07968 196.69905 221.81378 198.43314 222.89511 199.51447 C 223.97644 200.5958 225.71054 202.32991 226.79187 203.41124 C 227.87322 204.49257 229.6073 206.22666 230.68863 207.30799 C 231.76996 208.38932 233.50406 210.12342 234.58539 211.20475 C 235.66672 212.28607 238.48213 215.1015 238.48213 215.1015 "/>
<path transform="matrix(.75,0,0,-.75,8.24575,196.65625)" stroke-width="1.59404" stroke-linecap="butt" stroke-miterlimit="10" stroke-linejoin="miter" fill="none" stroke="#800000" d="M 121.57933 98.19868 C 121.57933 98.19868 122.43248 102.42195 122.76015 103.45296 C 123.08781 104.48395 123.6133 105.09576 123.94096 105.62947 C 124.26863 106.16316 124.79411 106.87244 125.12178 107.2995 C 125.44943 107.72655 125.97493 108.33997 126.30258 108.7074 C 126.63025 109.07483 127.15575 109.62009 127.4834 109.94777 C 127.81107 110.27545 128.33655 110.7705 128.66422 111.06917 C 128.99188 111.36784 129.51738 111.82414 129.84505 112.1004 C 130.17272 112.37665 130.6982 112.80199 131.02587 113.06024 C 131.35352 113.31848 131.87902 113.71837 132.20668 113.96175 C 132.53433 114.20512 133.05983 114.58359 133.38748 114.8144 C 133.71515 115.04524 134.24063 115.40536 134.5683 115.6254 C 134.89597 115.84544 135.42145 116.18967 135.74912 116.4003 C 136.07678 116.61092 136.60227 116.94118 136.92993 117.14352 C 137.25759 117.34586 137.7831 117.66371 138.11077 117.85869 C 138.43842 118.05365 138.96392 118.36038 139.29157 118.54872 C 139.61923 118.73705 140.14472 119.03377 140.47238 119.2161 C 140.80005 119.39842 141.32553 119.68605 141.6532 119.86295 C 141.98087 120.03983 142.50635 120.31914 142.83402 120.49103 C 143.16168 120.66292 143.68717 120.93462 144.01483 121.10187 C 144.34249 121.26912 144.86798 121.53352 145.19564 121.69653 C 145.5233 121.85954 146.0488 122.11766 146.37647 122.27678 C 146.70413 122.4359 147.22962 122.68794 147.55728 122.8434 C 147.88495 122.99886 148.41043 123.24522 148.7381 123.39726 C 149.06577 123.5493 149.59125 123.79042 149.91892 123.93925 C 150.24657 124.0881 150.77207 124.3242 151.09972 124.47003 C 151.42739 124.61588 151.95287 124.84734 152.28054 124.99033 C 152.6082 125.13332 153.1337 125.36038 153.46137 125.5007 C 153.78903 125.64102 154.31452 125.86389 154.64218 126.00168 C 154.96985 126.13947 155.49533 126.35841 155.823 126.4938 C 156.15065 126.6292 156.67615 126.84444 157.0038 126.97754 C 157.33147 127.11066 157.85695 127.3223 158.18462 127.45325 C 158.51229 127.5842 159.03777 127.79248 159.36544 127.92136 C 159.6931 128.05023 160.21858 128.25525 160.54625 128.38216 C 160.87392 128.50907 161.39942 128.71105 161.72708 128.83608 C 162.05474 128.9611 162.58023 129.16016 162.90789 129.28339 C 163.23555 129.40663 163.76103 129.60283 164.0887 129.72434 C 164.41637 129.84586 164.94185 130.03936 165.26952 130.15921 C 165.59719 130.27907 166.12267 130.46994 166.45034 130.5882 C 166.778 130.70645 167.30348 130.89488 167.63115 131.01161 C 167.9588 131.12836 168.4843 131.31433 168.81195 131.42961 C 169.13962 131.54489 169.66513 131.72863 169.99279 131.84249 C 170.32045 131.95635 170.84593 132.13779 171.1736 132.25028 C 171.50127 132.36275 172.02675 132.54209 172.35442 132.65326 C 172.68209 132.76444 173.20757 132.9417 173.53524 133.0516 C 173.86289 133.16152 174.38838 133.33675 174.71604 133.44542 C 175.0437 133.55411 175.5692 133.7274 175.89685 133.8349 C 176.22452 133.94239 176.75 134.11382 177.07767 134.22016 C 177.40534 134.32649 177.93083 134.49614 178.2585 134.60137 C 178.58617 134.70659 179.11165 134.87445 179.43932 134.9786 C 179.76697 135.08275 180.29247 135.24892 180.62012 135.35202 C 180.94779 135.45513 181.47328 135.61962 181.80094 135.7217 C 182.1286 135.82378 182.65409 135.98673 182.98175 136.08782 C 183.30942 136.1889 183.8349 136.35024 184.16257 136.45037 C 184.49024 136.5505 185.01573 136.71038 185.3434 136.80957 C 185.67105 136.90879 186.19655 137.06713 186.52422 137.16542 C 186.85187 137.26372 187.37737 137.42064 187.70502 137.51805 C 188.03269 137.61547 188.55817 137.77101 188.88584 137.86757 C 189.2135 137.96413 189.73899 138.11835 190.06665 138.21407 C 190.39432 138.3098 190.9198 138.4626 191.24747 138.55751 C 191.57512 138.65242 192.10062 138.804 192.42829 138.89812 C 192.75594 138.99224 193.28145 139.14257 193.6091 139.2359 C 193.93677 139.32924 194.46225 139.47832 194.78992 139.57089 C 195.11759 139.66347 195.64307 139.81133 195.97074 139.90319 C 196.2984 139.99503 196.82389 140.14177 197.15155 140.2329 C 197.47922 140.324 198.0047 140.46959 198.33237 140.56002 C 198.66002 140.65044 199.18552 140.79489 199.51317 140.88463 C 199.84084 140.97437 200.36632 141.11772 200.69399 141.20677 C 201.02165 141.29582 201.54715 141.43816 201.87482 141.52655 C 202.20249 141.61495 202.72797 141.75621 203.05564 141.84397 C 203.3833 141.93173 203.90879 142.07196 204.23645 142.15909 C 204.5641 142.24622 205.0896 142.38549 205.41725 142.47199 C 205.74492 142.5585 206.2704 142.69678 206.59807 142.78269 C 206.92574 142.86859 207.45122 143.00592 207.77889 143.09123 C 208.10655 143.17655 208.63204 143.31293 208.9597 143.39768 C 209.28737 143.4824 209.81287 143.61788 210.14054 143.70204 C 210.46819 143.78623 210.99369 143.92079 211.32134 144.0044 C 211.649 144.08802 212.17449 144.22168 212.50215 144.30477 C 212.82982 144.38784 213.3553 144.52065 213.68297 144.60318 C 214.01064 144.68573 214.53612 144.8177 214.86379 144.89972 C 215.19145 144.98174 215.71694 145.11287 216.0446 145.19437 C 216.37226 145.27587 216.89777 145.40616 217.22542 145.48715 C 217.55309 145.56815 218.07857 145.69768 218.40624 145.77819 C 218.7339 145.85868 219.25939 145.98738 219.58705 146.0674 C 219.91472 146.1474 220.4402 146.27538 220.76787 146.3549 C 221.09554 146.43445 221.62102 146.56165 221.94869 146.6407 C 222.27634 146.71977 222.80184 146.84622 223.12949 146.92484 C 223.45716 147.00345 223.98264 147.12917 224.3103 147.20732 C 224.63797 147.28548 225.16347 147.41043 225.49114 147.48815 C 225.8188 147.56586 226.34429 147.69014 226.67195 147.76743 C 226.99962 147.8447 227.5251 147.96826 227.85277 148.0451 C 228.18042 148.12197 228.70592 148.24488 229.03357 148.32129 C 229.36124 148.3977 229.88674 148.51992 230.21439 148.59592 C 230.54206 148.6719 231.06754 148.79347 231.3952 148.86908 C 231.72287 148.94467 232.24835 149.0656 232.57602 149.14078 C 232.90369 149.21598 233.42919 149.33623 233.75685 149.41101 C 234.0845 149.4858 234.61 149.60543 234.93766 149.67983 C 235.26532 149.75423 235.79082 149.87328 236.11847 149.9473 C 236.44614 150.02132 236.97162 150.13973 237.29929 150.21337 C 237.62696 150.287 238.4801 150.47805 238.4801 150.47805 "/>
<path transform="matrix(.75,0,0,-.75,8.24575,196.65625)" stroke-width="1.59404" stroke-linecap="butt" stroke-miterlimit="10" stroke-linejoin="miter" fill="none" stroke="#800000" d="M 4.67612 45.91876 C 4.67612 45.91876 5.52927 46.10983 5.85693 46.18347 C 6.1846 46.25711 6.71008 46.37552 7.03775 46.44952 C 7.36542 46.52354 7.8909 46.64256 8.21857 46.71696 C 8.54622 46.79137 9.07172 46.91096 9.39937 46.98576 C 9.72704 47.06056 10.25253 47.18086 10.58018 47.25606 C 10.90785 47.33125 11.43333 47.45215 11.761 47.52773 C 12.08867 47.60332 12.61417 47.72491 12.94183 47.8009 C 13.2695 47.8769 13.79498 47.99913 14.12265 48.07555 C 14.4503 48.15198 14.9758 48.27487 15.30345 48.35172 C 15.63112 48.42854 16.15662 48.55212 16.48427 48.6294 C 16.81194 48.70667 17.33742 48.83093 17.66508 48.90865 C 17.99275 48.98636 18.51823 49.11134 18.8459 49.18948 C 19.17357 49.26764 19.69905 49.39331 20.02672 49.47192 C 20.35437 49.55054 20.87988 49.67703 21.20755 49.7561 C 21.5352 49.83516 22.0607 49.96231 22.38835 50.04185 C 22.71602 50.12138 23.2415 50.24937 23.56917 50.32939 C 23.89684 50.40942 24.42232 50.53812 24.74998 50.6186 C 25.07765 50.69911 25.60313 50.82861 25.9308 50.9096 C 26.25845 50.9906 26.78395 51.12093 27.11162 51.20242 C 27.43927 51.28392 27.96477 51.41502 28.29242 51.49704 C 28.62009 51.57906 29.14558 51.71103 29.47325 51.79358 C 29.80092 51.87611 30.3264 52.00891 30.65407 52.092 C 30.98174 52.17506 31.50722 52.30876 31.83488 52.39238 C 32.16255 52.476 32.68803 52.61052 33.0157 52.69469 C 33.34335 52.77885 33.86885 52.91434 34.1965 52.99908 C 34.52417 53.08385 35.04965 53.2202 35.37732 53.30551 C 35.70499 53.39082 36.23048 53.52812 36.55815 53.61403 C 36.88582 53.69994 37.4113 53.83821 37.73897 53.92473 C 38.06664 54.01125 38.59212 54.15048 38.91978 54.23761 C 39.24744 54.32474 39.77293 54.46497 40.10059 54.55273 C 40.42825 54.64049 40.95374 54.7818 41.2814 54.8702 C 41.60907 54.95859 42.13455 55.10089 42.46222 55.18994 C 42.78989 55.27899 43.31537 55.4224 43.64304 55.51212 C 43.9707 55.60184 44.4962 55.74626 44.82387 55.83667 C 45.15152 55.9271 45.67702 56.07271 46.00467 56.16382 C 46.33234 56.25494 46.85782 56.40163 47.18549 56.49347 C 47.51315 56.5853 48.03864 56.73322 48.3663 56.82579 C 48.69397 56.91838 49.21945 57.06746 49.54712 57.1608 C 49.87479 57.25414 50.40027 57.40443 50.72794 57.49855 C 51.05559 57.59267 51.58109 57.74422 51.90874 57.83913 C 52.2364 57.93404 52.7619 58.08687 53.08957 58.1826 C 53.41724 58.27832 53.94272 58.43253 54.27039 58.52908 C 54.59805 58.62564 55.12354 58.78114 55.4512 58.87856 C 55.77887 58.97598 56.30435 59.13292 56.63202 59.23122 C 56.95967 59.32951 57.48517 59.48784 57.81282 59.58705 C 58.14049 59.68626 58.66599 59.8461 58.99364 59.94624 C 59.3213 60.04637 59.84679 60.20772 60.17445 60.3088 C 60.50212 60.4099 61.02762 60.57283 61.35529 60.67491 C 61.68295 60.777 62.20844 60.9415 62.5361 61.0446 C 62.86375 61.1477 63.38925 61.31386 63.7169 61.418 C 64.04457 61.52213 64.57007 61.68999 64.89772 61.79521 C 65.22539 61.90044 65.75087 62.07007 66.07854 62.1764 C 66.4062 62.28275 66.93169 62.4542 67.25935 62.56166 C 67.58702 62.66914 68.11252 62.84247 68.44019 62.95113 C 68.76784 63.05978 69.29333 63.23503 69.62099 63.34496 C 69.94865 63.45486 70.47415 63.63211 70.8018 63.74329 C 71.12947 63.85446 71.65495 64.03378 71.98262 64.14627 C 72.31029 64.25877 72.83577 64.44023 73.16344 64.55408 C 73.4911 64.66794 74.01659 64.85164 74.34425 64.96689 C 74.6719 65.08215 75.1974 65.26816 75.52507 65.38489 C 75.85272 65.50162 76.37823 65.69 76.70589 65.80826 C 77.03355 65.92651 77.55904 66.11743 77.8867 66.23727 C 78.21437 66.35713 78.73985 66.55061 79.06752 66.67213 C 79.39519 66.79364 79.92067 66.98982 80.24834 67.11305 C 80.57599 67.23628 81.10149 67.4353 81.42915 67.56032 C 81.7568 67.68535 82.2823 67.88731 82.60995 68.01422 C 82.93762 68.14113 83.4631 68.34618 83.79077 68.47505 C 84.11844 68.60394 84.64394 68.81223 84.9716 68.94316 C 85.29927 69.07411 85.82475 69.28578 86.15242 69.41887 C 86.48009 69.55196 87.00557 69.76715 87.33324 69.90253 C 87.66089 70.03789 88.18639 70.25687 88.51404 70.39465 C 88.8417 70.53244 89.36719 70.75533 89.69485 70.89563 C 90.02252 71.03595 90.548 71.26299 90.87567 71.40598 C 91.20334 71.54897 91.72882 71.78044 92.05649 71.92625 C 92.38416 72.07207 92.90965 72.30817 93.23732 72.457 C 93.56497 72.60582 94.09047 72.84691 94.41812 72.99895 C 94.74579 73.15099 95.27127 73.39737 95.59894 73.55283 C 95.9266 73.70827 96.45209 73.9603 96.77975 74.11942 C 97.10742 74.27853 97.6329 74.53668 97.96057 74.69968 C 98.28824 74.86267 98.81372 75.12701 99.14139 75.29425 C 99.46904 75.46149 99.99455 75.73318 100.3222 75.90506 C 100.64987 76.07695 101.17535 76.35625 101.50302 76.53313 C 101.83069 76.70999 102.35617 76.99759 102.68384 77.17992 C 103.0115 77.36226 103.53699 77.65894 103.86465 77.84726 C 104.19232 78.03558 104.7178 78.3423 105.04547 78.53725 C 105.37312 78.7322 105.89862 79.05002 106.22627 79.25235 C 106.55394 79.45467 107.07942 79.7849 107.40709 79.99551 C 107.73476 80.20612 108.26025 80.55032 108.58792 80.77032 C 108.91559 80.99033 109.44107 81.35045 109.76874 81.58124 C 110.0964 81.81204 110.62189 82.19046 110.94955 82.4338 C 111.2772 82.67717 111.8027 83.077 112.13036 83.33522 C 112.45802 83.59343 112.9835 84.0187 113.31117 84.29492 C 113.63884 84.57112 114.16432 85.02737 114.49199 85.32599 C 114.81966 85.6246 115.34514 86.11955 115.6728 86.44717 C 116.00047 86.77478 116.52597 87.31993 116.85364 87.68727 C 117.18129 88.05461 117.70679 88.66786 118.03444 89.09474 C 118.3621 89.52164 118.8876 90.2307 119.21526 90.76407 C 119.54292 91.29745 120.0684 91.94058 120.39607 92.939 C 120.72374 93.9374 121.57689 97.95996 121.57689 97.95996 "/>
<symbol id="font_1_2">
<path d="M .45600004 .582 C .45700003 .58800008 .45900006 .59300008 .45900006 .6 C .45900006 .61700007 .44700004 .62700006 .43 .62700006 C .42000003 .62700006 .393 .62 .389 .584 C .371 .62100008 .33600004 .6470001 .296 .6470001 C .18200001 .6470001 .058000007 .507 .058000007 .36300005 C .058000007 .26400004 .119 .20500002 .19100002 .20500002 C .25 .20500002 .297 .252 .30700005 .263 L .30800004 .26200003 C .287 .17300001 .27500005 .132 .27500005 .13000001 C .27100004 .12100001 .237 .022 .13100001 .022 C .112 .022 .079 .023000002 .051 .032000007 C .081 .04100001 .09200001 .067 .09200001 .08400001 C .09200001 .10000001 .081 .11900001 .054000006 .11900001 C .032 .11900001 0 .10100001 0 .061000006 C 0 .02000001 .037 0 .133 0 C .25800003 0 .33000005 .07800001 .34500004 .13800001 L .45600004 .582 M .32600004 .333 C .32 .307 .297 .282 .27500005 .263 C .254 .24500002 .223 .22700002 .194 .22700002 C .14400001 .22700002 .12900001 .279 .12900001 .319 C .12900001 .367 .158 .485 .185 .536 C .21200001 .58500006 .255 .625 .297 .625 C .36300005 .625 .37700004 .544 .37700004 .53900006 C .37700004 .53400006 .375 .528 .374 .52400007 L .32600004 .333 Z "/>
</symbol>
<use xlink:href="#font_1_2" transform="matrix(7.4719498,0,0,-7.4719498,119.04282,38.73126)" fill="#000080"/>
<symbol id="font_2_1">
<path d="M .23200003 .00999999 C .23200003 .012999982 .23200003 .014999986 .215 .03199999 C .09 .15799999 .058 .347 .058 .5 C .058 .674 .096 .84800007 .21900001 .97300007 C .23200003 .985 .23200003 .98700007 .23200003 .99 C .23200003 .99700006 .22800002 1 .222 1 C .21200001 1 .12200001 .93200007 .06299999 .805 C .012000002 .69500008 0 .584 0 .5 C 0 .422 .011 .301 .066 .188 C .126 .065 .21200001 0 .222 0 C .22800002 0 .23200003 .0029999912 .23200003 .00999999 Z "/>
</symbol>
<use xlink:href="#font_2_1" transform="matrix(7.4719498,0,0,-7.4719498,123.50221,39.067499)" fill="#000080"/>
<symbol id="font_1_3">
<path d="M .305 .31300003 C .311 .33900003 .334 .43100003 .404 .43100003 C .409 .43100003 .433 .43100003 .454 .418 C .426 .41300003 .40600003 .388 .40600003 .36400003 C .40600003 .34800003 .417 .32900004 .444 .32900004 C .46600003 .32900004 .498 .34700004 .498 .38700003 C .498 .43900005 .439 .45300005 .405 .45300005 C .347 .45300005 .312 .40000005 .3 .37700004 C .275 .44300003 .221 .45300005 .19200002 .45300005 C .08800001 .45300005 .031000002 .32400004 .031000002 .29900003 C .031000002 .28900004 .041 .28900004 .043000007 .28900004 C .051000008 .28900004 .054000006 .291 .056 .3 C .09 .40600003 .156 .43100003 .19000001 .43100003 C .209 .43100003 .244 .42200003 .244 .36400003 C .244 .33300004 .22700002 .26600004 .19000001 .126 C .17400001 .064 .13900002 .022000002 .095000009 .022000002 C .08900001 .022000002 .06600001 .022000002 .045 .035 C .07000001 .040000004 .09200001 .061 .09200001 .089 C .09200001 .116000007 .07000001 .124000009 .055000009 .124000009 C .025 .124000009 0 .098000008 0 .06600001 C 0 .020000002 .050000006 0 .094000007 0 C .16000001 0 .19600001 .07000001 .19900002 .076000008 C .21100001 .039 .24700003 0 .307 0 C .41 0 .467 .12900001 .467 .15400002 C .467 .16400002 .458 .16400002 .455 .16400002 C .446 .16400002 .444 .16000001 .442 .15300001 C .409 .046 .341 .022000002 .30900003 .022000002 C .27 .022000002 .254 .054 .254 .08800001 C .254 .11000001 .26 .13200002 .271 .17600002 L .305 .31300003 Z "/>
</symbol>
<use xlink:href="#font_1_3" transform="matrix(7.4719498,0,0,-7.4719498,125.88543,37.2817)" fill="#000080"/>
<symbol id="font_2_2">
<path d="M .232 .5 C .232 .578 .22100002 .699 .16600001 .81200006 C .106 .93500009 .020000004 1 .009999998 1 C .0040000008 1 0 .99600008 0 .99 C 0 .98700007 0 .985 .019000002 .967 C .117000009 .86800006 .174 .709 .174 .5 C .174 .329 .137 .153 .012999997 .026999996 C 0 .014999986 0 .012999982 0 .00999999 C 0 .003999993 .0040000008 0 .009999998 0 C .020000004 0 .11000001 .06799999 .169 .195 C .22 .305 .232 .416 .232 .5 Z "/>
</symbol>
<symbol id="font_2_8">
<path d="M .63100007 .19400002 C .646 .19400002 .665 .19400002 .665 .214 C .665 .23400001 .646 .23400001 .632 .23400001 L .033 .23400001 C .019000002 .23400001 0 .23400001 0 .214 C 0 .19400002 .019000002 .19400002 .034 .19400002 L .63100007 .19400002 M .632 0 C .646 0 .665 0 .665 .02000001 C .665 .040000008 .646 .040000008 .63100007 .040000008 L .034 .040000008 C .019000002 .040000008 0 .040000008 0 .02000001 C 0 0 .019000002 0 .033 0 L .632 0 Z "/>
</symbol>
<use xlink:href="#font_2_2" transform="matrix(7.4719498,0,0,-7.4719498,130.36438,39.067499)" fill="#000080"/>
<use xlink:href="#font_2_8" transform="matrix(7.4719498,0,0,-7.4719498,135.34073,36.205739)" fill="#000080"/>
<symbol id="font_3_2">
<path d="M .040000008 .96400007 C .040000008 .98200008 .040000008 1 .02000001 1 C 0 1 0 .98200008 0 .96400007 L 0 .035999985 C 0 .017999992 0 0 .02000001 0 C .040000008 0 .040000008 .017999992 .040000008 .035999985 L .040000008 .96400007 Z "/>
</symbol>
<use xlink:href="#font_3_2" transform="matrix(7.4719498,0,0,-7.4719498,143.69617,39.067499)" fill="#000080"/>
<use xlink:href="#font_1_3" transform="matrix(7.4719498,0,0,-7.4719498,145.09969,37.2817)" fill="#000080"/>
<symbol id="font_3_1">
<path d="M .57600006 0 C .59300008 0 .611 0 .611 .019999996 C .611 .040000008 .59300008 .040000008 .57600006 .040000008 L .035000005 .040000008 C .018 .040000008 0 .040000008 0 .019999996 C 0 0 .018 0 .035000005 0 L .57600006 0 Z "/>
</symbol>
<use xlink:href="#font_3_1" transform="matrix(7.4719498,0,0,-7.4719498,151.43341,35.48096)" fill="#000080"/>
<symbol id="font_2_3">
<path d="M .205 .64000007 C .205 .66400006 .205 .666 .18200003 .666 C .120000008 .60200008 .032000007 .60200008 0 .60200008 L 0 .57100006 C .020000004 .57100006 .07900001 .57100006 .13100001 .597 L .13100001 .079 C .13100001 .043 .128 .031000002 .038000004 .031000002 L .0060000049 .031000002 L .0060000049 0 C .04100001 .003 .128 .003 .168 .003 C .20800002 .003 .29500003 .003 .33000005 0 L .33000005 .031000002 L .29800005 .031000002 C .20800002 .031000002 .205 .042000005 .205 .079 L .205 .64000007 Z "/>
</symbol>
<use xlink:href="#font_2_3" transform="matrix(7.4719498,0,0,-7.4719498,158.9505,37.19951)" fill="#000080"/>
<use xlink:href="#font_3_2" transform="matrix(7.4719498,0,0,-7.4719498,162.9104,39.067499)" fill="#000080"/>
<symbol id="font_1_1">
<path d="M .314 .605 L .4 .605 C .42000003 .605 .43 .605 .43 .625 C .43 .63600006 .42000003 .63600006 .40300004 .63600006 L .32000003 .63600006 L .34100003 .75 C .34500004 .771 .35900004 .842 .365 .8540001 C .374 .873 .39100004 .888 .41200004 .888 C .416 .888 .44200004 .888 .461 .87 C .41700004 .86600008 .407 .8310001 .407 .816 C .407 .793 .425 .781 .444 .781 C .47 .781 .49900005 .8030001 .49900005 .8410001 C .49900005 .8870001 .45300005 .9100001 .41200004 .9100001 C .37800003 .9100001 .31500004 .8920001 .28500004 .793 C .279 .7720001 .27600003 .7620001 .252 .63600006 L .18300002 .63600006 C .164 .63600006 .15300001 .63600006 .15300001 .61700007 C .15300001 .605 .162 .605 .18100001 .605 L .24700001 .605 L .172 .21000001 C .15400002 .113000009 .13700001 .022 .08500001 .022 C .081 .022 .056 .022 .037 .040000008 C .083000008 .043000014 .09200001 .07900001 .09200001 .094000007 C .09200001 .117000009 .074 .12900001 .055 .12900001 C .029 .12900001 0 .10700001 0 .069000009 C 0 .024000004 .044 0 .08500001 0 C .14 0 .18 .059 .19800002 .09700001 C .23000002 .16000001 .25300003 .28100003 .254 .28800003 L .314 .605 Z "/>
</symbol>
<use xlink:href="#font_1_1" transform="matrix(7.4719498,0,0,-7.4719498,117.97376,144.31325)" fill="#800000"/>
<use xlink:href="#font_2_1" transform="matrix(7.4719498,0,0,-7.4719498,122.77997,144.64948)" fill="#800000"/>
<use xlink:href="#font_1_3" transform="matrix(7.4719498,0,0,-7.4719498,125.16243,142.86368)" fill="#800000"/>
<use xlink:href="#font_2_2" transform="matrix(7.4719498,0,0,-7.4719498,129.64215,144.64948)" fill="#800000"/>
<use xlink:href="#font_2_8" transform="matrix(7.4719498,0,0,-7.4719498,134.61847,141.78772)" fill="#800000"/>
<symbol id="font_3_3">
<path d="M .316 .10500002 L .14000002 .49400003 C .13300002 .51 .12799999 .51 .125 .51 C .124000009 .51 .118999999 .51 .108 .502 L .012999997 .43 C 0 .42000003 0 .417 0 .41400004 C 0 .40900005 .0029999987 .403 .009999998 .403 C .015999996 .403 .033 .417 .044 .425 C .049999998 .43 .065000008 .44099999 .076 .449 L .273 .015999973 C .28 0 .285 0 .294 0 C .30900003 0 .312 .0059999825 .319 .01999998 L .773 .96000006 C .78000006 .97400006 .78000006 .97800007 .78000006 .98 C .78000006 .99 .772 1 .76000007 1 C .75200006 1 .745 .99500009 .73700007 .97900006 L .316 .10500002 Z "/>
</symbol>
<use xlink:href="#font_3_3" transform="matrix(7.4719498,0,0,-7.4719498,142.6302,144.2073)" fill="#800000"/>
<path transform="matrix(.75,0,0,-.75,148.31125,136.885)" stroke-width="1" stroke-linecap="butt" stroke-miterlimit="10" stroke-linejoin="miter" fill="none" stroke="#800000" d="M 0 0 L 5.694 0 "/>
<use xlink:href="#font_1_3" transform="matrix(7.4719498,0,0,-7.4719498,148.52794,142.86368)" fill="#800000"/>
<use xlink:href="#font_3_1" transform="matrix(7.4719498,0,0,-7.4719498,154.86243,141.06295)" fill="#800000"/>
<use xlink:href="#font_2_3" transform="matrix(7.4719498,0,0,-7.4719498,162.37876,142.7815)" fill="#800000"/>
</g>
<path transform="matrix(.75,0,0,-.75,8.24575,196.65625)" stroke-width="1" stroke-linecap="butt" stroke-miterlimit="10" stroke-linejoin="miter" fill="none" stroke="#808080" d="M 4.67612 119.45338 L 4.67612 123.70528 M 28.05676 119.45338 L 28.05676 123.70528 M 51.43741 119.45338 L 51.43741 123.70528 M 74.81805 119.45338 L 74.81805 123.70528 M 98.19868 119.45338 L 98.19868 123.70528 M 144.95998 119.45338 L 144.95998 123.70528 M 168.34062 119.45338 L 168.34062 123.70528 M 191.72127 119.45338 L 191.72127 123.70528 M 215.1019 119.45338 L 215.1019 123.70528 M 238.48255 119.45338 L 238.48255 123.70528 "/>
<path transform="matrix(.75,0,0,-.75,8.24575,196.65625)" stroke-width="1" stroke-linecap="butt" stroke-miterlimit="10" stroke-linejoin="miter" fill="none" stroke="#808080" d="M 119.45338 4.67612 L 123.70528 4.67612 M 119.45338 28.05676 L 123.70528 28.05676 M 119.45338 51.43741 L 123.70528 51.43741 M 119.45338 74.81805 L 123.70528 74.81805 M 119.45338 98.19868 L 123.70528 98.19868 M 119.45338 144.95998 L 123.70528 144.95998 M 119.45338 168.34062 L 123.70528 168.34062 M 119.45338 191.72127 L 123.70528 191.72127 M 119.45338 215.1019 L 123.70528 215.1019 M 119.45338 238.48255 L 123.70528 238.48255 "/>
<path transform="matrix(.75,0,0,-.75,8.24575,196.65625)" stroke-width="1" stroke-linecap="butt" stroke-miterlimit="10" stroke-linejoin="miter" fill="none" stroke="#000000" d="M 0 121.57933 L 241.16616 121.57933 "/>
<path transform="matrix(.75,0,0,-.75,189.12036,105.471759)" d="M 1.99252 0 L -1.19551 1.59401 L 0 0 L -1.19551 -1.59401 "/>
<path transform="matrix(.75,0,0,-.75,8.24575,196.65625)" stroke-width="1" stroke-linecap="butt" stroke-miterlimit="10" stroke-linejoin="miter" fill="none" stroke="#000000" d="M 121.57933 0 L 121.57933 241.16616 "/>
<path transform="matrix(0,-.75,-.75,-0,99.430248,15.781631)" d="M 1.99252 0 L -1.19551 1.59401 L 0 0 L -1.19551 -1.59401 "/>
<use xlink:href="#font_3_1" transform="matrix(7.4719498,0,0,-7.4719498,7.5991728,112.803699)"/>
<symbol id="font_2_7">
<path d="M .39900003 .223 C .39900003 .34200005 .317 .44200004 .209 .44200004 C .16100002 .44200004 .118000019 .42600004 .082 .39100004 L .082 .586 C .10200001 .58000007 .135 .573 .16700001 .573 C .29 .573 .36 .66400006 .36 .67700007 C .36 .683 .357 .688 .35 .688 C .349 .688 .347 .688 .342 .68500009 C .322 .67600008 .273 .656 .20600002 .656 C .16600001 .656 .120000008 .66300007 .073 .6840001 C .065 .68700006 .06300001 .68700006 .061000009 .68700006 C .051000004 .68700006 .051000004 .679 .051000004 .66300007 L .051000004 .36700005 C .051000004 .34900005 .051000004 .34100003 .065 .34100003 C .07200001 .34100003 .074 .34400005 .07800001 .35000003 C .08900002 .36600004 .12600002 .42000006 .207 .42000006 C .259 .42000006 .284 .37400005 .292 .35600005 C .308 .31900005 .31 .28000004 .31 .23 C .31 .19500001 .31 .135 .286 .093 C .262 .054000006 .22500001 .028 .17900002 .028 C .106000009 .028 .049000008 .08100001 .032 .14000002 C .035 .13900002 .038000008 .13800001 .049000008 .13800001 C .082 .13800001 .09900001 .163 .09900001 .187 C .09900001 .21100001 .082 .23600002 .049000008 .23600002 C .035 .23600002 0 .22900002 0 .18300002 C 0 .097 .069000009 0 .18100001 0 C .297 0 .39900003 .096 .39900003 .223 Z "/>
</symbol>
<use xlink:href="#font_2_7" transform="matrix(7.4719498,0,0,-7.4719498,13.164349,114.68663)"/>
<use xlink:href="#font_3_1" transform="matrix(7.4719498,0,0,-7.4719498,25.134922,112.803699)"/>
<symbol id="font_2_6">
<path d="M .266 .165 L .266 .078 C .266 .042000005 .26400004 .031000002 .19000001 .031000002 L .16900002 .031000002 L .16900002 0 C .21000001 .003 .26200003 .003 .30400003 .003 C .34600003 .003 .39900003 .003 .44000004 0 L .44000004 .031000002 L .41900004 .031000002 C .34500004 .031000002 .34300003 .042000005 .34300003 .078 L .34300003 .165 L .44300003 .165 L .44300003 .19600001 L .34300003 .19600001 L .34300003 .651 C .34300003 .671 .34300003 .67700007 .32700003 .67700007 C .31800003 .67700007 .31500004 .67700007 .307 .665 L 0 .19600001 L 0 .165 L .266 .165 M .272 .19600001 L .028 .19600001 L .272 .569 L .272 .19600001 Z "/>
</symbol>
<use xlink:href="#font_2_6" transform="matrix(7.4719498,0,0,-7.4719498,30.534964,114.52225)"/>
<use xlink:href="#font_3_1" transform="matrix(7.4719498,0,0,-7.4719498,42.66992,112.803699)"/>
<symbol id="font_2_5">
<path d="M .24800003 .37400005 C .33 .40100003 .388 .47100006 .388 .55 C .388 .632 .3 .688 .204 .688 C .10300001 .688 .027000003 .628 .027000003 .55200007 C .027000003 .519 .049000004 .5 .078 .5 C .109000008 .5 .12900001 .522 .12900001 .55100008 C .12900001 .6010001 .082 .6010001 .067 .6010001 C .098 .65000006 .164 .66300007 .20000002 .66300007 C .24100003 .66300007 .29600004 .64100006 .29600004 .55100008 C .29600004 .53900006 .29400004 .48100005 .268 .43700005 C .238 .38900004 .204 .38600005 .17900002 .38500003 C .171 .38400004 .14700002 .38200004 .14000002 .38200004 C .132 .38100005 .125 .38000003 .125 .37000004 C .125 .35900004 .132 .35900004 .14900002 .35900004 L .19300002 .35900004 C .275 .35900004 .312 .29100005 .312 .193 C .312 .057000005 .24300003 .028 .199 .028 C .15600002 .028 .081 .045 .046000005 .104 C .081 .09900001 .11200001 .12100001 .11200001 .15900001 C .11200001 .19500001 .085 .215 .056 .215 C .031999999 .215 0 .201 0 .157 C 0 .06600001 .093 0 .20200002 0 C .32400004 0 .41500003 .091000009 .41500003 .193 C .41500003 .27500005 .35200004 .35300005 .24800003 .37400005 Z "/>
</symbol>
<use xlink:href="#font_2_5" transform="matrix(7.4719498,0,0,-7.4719498,48.175329,114.68663)"/>
<use xlink:href="#font_3_1" transform="matrix(7.4719498,0,0,-7.4719498,60.204927,112.803699)"/>
<symbol id="font_2_4">
<path d="M .07700001 .07700001 L .18300002 .18 C .33900003 .31800003 .39900003 .372 .39900003 .47200004 C .39900003 .586 .30900003 .666 .18700002 .666 C .074 .666 0 .574 0 .485 C 0 .42900003 .05 .42900003 .053000008 .42900003 C .07000001 .42900003 .105000007 .441 .105000007 .48200003 C .105000007 .508 .08700001 .53400006 .052000006 .53400006 C .044000005 .53400006 .042000008 .53400006 .039 .53300008 C .062000004 .59800007 .11600001 .63500007 .17400001 .63500007 C .26500003 .63500007 .308 .554 .308 .47200004 C .308 .39200003 .25800003 .31300003 .20300003 .25100003 L .011000004 .037 C 0 .026 0 .024 0 0 L .37100003 0 L .39900003 .17400001 L .374 .17400001 C .36900003 .14400001 .36200003 .1 .352 .085 C .345 .07700001 .279 .07700001 .257 .07700001 L .07700001 .07700001 Z "/>
</symbol>
<use xlink:href="#font_2_4" transform="matrix(7.4719498,0,0,-7.4719498,65.770099,114.52225)"/>
<use xlink:href="#font_3_1" transform="matrix(7.4719498,0,0,-7.4719498,77.74067,112.803699)"/>
<use xlink:href="#font_2_3" transform="matrix(7.4719498,0,0,-7.4719498,83.5965,114.52225)"/>
<use xlink:href="#font_2_3" transform="matrix(7.4719498,0,0,-7.4719498,115.76175,114.52225)"/>
<use xlink:href="#font_2_4" transform="matrix(7.4719498,0,0,-7.4719498,133.00534,114.52225)"/>
<use xlink:href="#font_2_5" transform="matrix(7.4719498,0,0,-7.4719498,150.48058,114.68663)"/>
<use xlink:href="#font_2_6" transform="matrix(7.4719498,0,0,-7.4719498,167.9117,114.52225)"/>
<use xlink:href="#font_2_7" transform="matrix(7.4719498,0,0,-7.4719498,185.61109,114.68663)"/>
<use xlink:href="#font_3_1" transform="matrix(7.4719498,0,0,-7.4719498,86.267429,193.52695)"/>
<use xlink:href="#font_2_7" transform="matrix(7.4719498,0,0,-7.4719498,91.8326,195.40988)"/>
<use xlink:href="#font_3_1" transform="matrix(7.4719498,0,0,-7.4719498,86.267429,175.9912)"/>
<use xlink:href="#font_2_6" transform="matrix(7.4719498,0,0,-7.4719498,91.66822,177.70975)"/>
<use xlink:href="#font_3_1" transform="matrix(7.4719498,0,0,-7.4719498,86.267429,158.45619)"/>
<use xlink:href="#font_2_5" transform="matrix(7.4719498,0,0,-7.4719498,91.77283,160.33913)"/>
<use xlink:href="#font_3_1" transform="matrix(7.4719498,0,0,-7.4719498,86.267429,140.92119)"/>
<use xlink:href="#font_2_4" transform="matrix(7.4719498,0,0,-7.4719498,91.8326,142.63974)"/>
<use xlink:href="#font_3_1" transform="matrix(7.4719498,0,0,-7.4719498,86.267429,123.38546)"/>
<use xlink:href="#font_2_3" transform="matrix(7.4719498,0,0,-7.4719498,92.12401,125.10401)"/>
<use xlink:href="#font_2_3" transform="matrix(7.4719498,0,0,-7.4719498,92.124,90.345249)"/>
<use xlink:href="#font_2_4" transform="matrix(7.4719498,0,0,-7.4719498,91.832599,72.80951)"/>
<use xlink:href="#font_2_5" transform="matrix(7.4719498,0,0,-7.4719498,91.77282,55.43889)"/>
<use xlink:href="#font_2_6" transform="matrix(7.4719498,0,0,-7.4719498,91.66821,37.739503)"/>
<use xlink:href="#font_2_7" transform="matrix(7.4719498,0,0,-7.4719498,91.832599,20.368134)"/>
<use xlink:href="#font_1_3" transform="matrix(7.4719498,0,0,-7.4719498,193.4687,107.16369)"/>
<symbol id="font_1_4">
<path d="M .45700003 .586 C .461 .6 .461 .602 .461 .609 C .461 .62700006 .447 .63600006 .432 .63600006 C .42200003 .63600006 .40600003 .63 .397 .615 C .395 .61 .387 .579 .38300003 .561 C .37600003 .535 .36900003 .508 .363 .48100005 L .318 .301 C .314 .286 .271 .21600002 .20500002 .21600002 C .15400002 .21600002 .143 .26000003 .143 .29700003 C .143 .34300003 .16000001 .40500004 .194 .49300004 C .21000001 .53400006 .21400002 .545 .21400002 .56500008 C .21400002 .61 .18200001 .6470001 .13200002 .6470001 C .037 .6470001 0 .50200006 0 .49300004 C 0 .48300005 .01 .48300005 .012 .48300005 C .022000002 .48300005 .023 .485 .028000003 .50100007 C .055000009 .595 .095000009 .625 .12900001 .625 C .13700001 .625 .15400002 .625 .15400002 .59300008 C .15400002 .568 .14400001 .54200008 .13700001 .523 C .097 .41700004 .079 .36 .079 .31300003 C .079 .224 .142 .194 .201 .194 C .24000003 .194 .274 .21100001 .30200003 .23900002 C .289 .187 .277 .13800001 .237 .08500001 C .21100001 .051 .17300001 .022 .127 .022 C .113000009 .022 .068 .025000006 .051000008 .06400001 C .067 .06400001 .080000009 .06400001 .094000007 .076000008 C .104 .08500001 .11400001 .098000008 .11400001 .117000009 C .11400001 .148 .087000008 .15200001 .07700001 .15200001 C .054000006 .15200001 .021 .136 .021 .087000008 C .021 .037 .065000008 0 .127 0 C .23 0 .333 .091000009 .361 .20400001 L .45700003 .586 Z "/>
</symbol>
<use xlink:href="#font_1_4" transform="matrix(7.4719498,0,0,-7.4719498,97.68019,11.728252)"/>
</svg>
