<?xml version="1.0" encoding="UTF-8" standalone="no"?>
<!DOCTYPE svg PUBLIC "-//W3C//DTD SVG 1.1//EN" "http://www.w3.org/Graphics/SVG/1.1/DTD/svg11.dtd">
<svg xmlns="http://www.w3.org/2000/svg" xmlns:xlink="http://www.w3.org/1999/xlink" version="1.1" width="204.502pt" height="202.847pt" viewBox="0 0 204.502 202.847">
<path transform="matrix(1,0,0,-1,8.246,196.656)" stroke-width="1" stroke-linecap="butt" stroke-miterlimit="10" stroke-linejoin="miter" fill="none" stroke="#000000" d="M -8.04666 -5.99184 L -8.04666 196.45882 L 196.05931 196.45882 L 196.05931 -5.99184 Z M 196.05931 196.45882 "/>
<clipPath id="cp0">
<path transform="matrix(.75,0,0,-.75,8.24575,196.65625)" d="M 0 0 L 243.15868 0 L 243.15868 243.15868 L 0 243.15868 Z "/>
</clipPath>
<g clip-path="url(#cp0)">
<path transform="matrix(.75,0,0,-.75,8.24575,196.65625)" stroke-width="1.59404" stroke-linecap="butt" stroke-miterlimit="10" stroke-linejoin="miter" fill="none" stroke="#000080" d="M 4.67612 261.8632 C 4.67612 261.8632 8.89928 257.64006 10.52129 256.01805 C 12.14328 254.39603 14.74443 251.79488 16.36644 250.17287 C 17.98845 248.55086 20.5896 245.94972 22.21161 244.32772 C 23.8336 242.7057 26.43475 240.10456 28.05676 238.48255 C 29.67877 236.86055 32.27992 234.2594 33.90193 232.63739 C 35.52393 231.01538 38.12508 228.41423 39.74709 226.79222 C 41.3691 225.17023 43.97025 222.56908 45.59224 220.94707 C 47.21425 219.32506 49.8154 216.7239 51.43741 215.1019 C 53.05942 213.4799 55.66057 210.87876 57.28256 209.25675 C 58.90457 207.63474 61.50572 205.03359 63.12773 203.41159 C 64.74974 201.78958 67.35088 199.18843 68.97289 197.56642 C 70.5949 195.94441 73.19604 193.34326 74.81805 191.72127 C 76.44005 190.09926 79.0412 187.49811 80.66321 185.8761 C 82.28522 184.25409 84.88637 181.65296 86.50838 180.03095 C 88.13037 178.40894 90.73152 175.80779 92.35353 174.18578 C 93.97554 172.56378 96.57669 169.96263 98.19868 168.34062 C 99.8207 166.71862 102.42184 164.11746 104.04385 162.49546 C 105.66586 160.87346 108.26701 158.27231 109.889 156.6503 C 111.51102 155.02829 114.11217 152.42714 115.73418 150.80515 C 117.35619 149.18314 119.95734 146.58199 121.57933 144.95998 C 123.20134 143.33797 125.80249 140.73682 127.4245 139.11483 C 129.0465 137.49282 131.64765 134.89167 133.26966 133.26966 C 134.89167 131.64765 137.49282 129.0465 139.11483 127.4245 C 140.73682 125.80249 144.95998 121.57933 144.95998 121.57933 "/>
<path transform="matrix(.75,0,0,-.75,8.24575,196.65625)" stroke-width="1.59404" stroke-linecap="butt" stroke-miterlimit="10" stroke-linejoin="miter" fill="none" stroke="#000080" d="M 144.95998 121.57933 C 144.95998 121.57933 147.7754 124.39476 148.85674 125.47609 C 149.93807 126.55742 151.67215 128.2915 152.75348 129.37285 C 153.83483 130.45418 155.56891 132.18827 156.65024 133.26959 C 157.73157 134.35092 159.46566 136.08502 160.547 137.16635 C 161.62833 138.24768 163.36243 139.98178 164.44376 141.06311 C 165.52509 142.14446 167.25919 143.87854 168.34052 144.95987 C 169.42185 146.0412 171.15593 147.7753 172.23728 148.85663 C 173.3186 149.93796 175.05269 151.67205 176.13402 152.75337 C 177.21535 153.83472 178.94947 155.56882 180.03079 156.65015 C 181.11212 157.73148 182.8462 159.46556 183.92754 160.5469 C 185.00888 161.62824 186.74297 163.36232 187.8243 164.44365 C 188.90563 165.52498 190.63973 167.25908 191.72106 168.34041 C 192.80239 169.42174 194.53649 171.15584 195.61782 172.23719 C 196.69916 173.31851 198.43325 175.0526 199.51457 176.13393 C 200.5959 177.21526 202.32999 178.94936 203.41133 180.03069 C 204.49266 181.11202 206.22675 182.8461 207.30808 183.92743 C 208.3894 185.00878 210.12352 186.74288 211.20485 187.8242 C 212.28618 188.90554 214.02027 190.63964 215.10161 191.72097 C 216.18294 192.80229 217.91703 194.53638 218.99835 195.6177 C 220.07968 196.69905 221.81378 198.43314 222.89511 199.51447 C 223.97644 200.5958 225.71054 202.32991 226.79187 203.41124 C 227.87322 204.49257 229.6073 206.22666 230.68863 207.30799 C 231.76996 208.38932 233.50406 210.12342 234.58539 211.20475 C 235.66672 212.28607 238.48213 215.1015 238.48213 215.1015 "/>
<path transform="matrix(.75,0,0,-.75,8.24575,196.65625)" stroke-width="1.59404" stroke-linecap="butt" stroke-miterlimit="10" stroke-linejoin="miter" fill="none" stroke="#800000" d="M 121.81314 100.53671 C 121.81314 100.53671 122.66457 103.18942 122.99158 103.94487 C 123.31859 104.70032 123.84303 105.4763 124.17004 105.98152 C 124.49706 106.48676 125.02148 107.17377 125.3485 107.5862 C 125.6755 107.99863 126.19995 108.59605 126.52696 108.95407 C 126.85396 109.3121 127.3784 109.8457 127.70541 110.16663 C 128.03243 110.48756 128.55684 110.97366 128.88385 111.26715 C 129.21086 111.56064 129.7353 112.00983 130.06232 112.28192 C 130.38933 112.55403 130.91376 112.97351 131.24077 113.22835 C 131.56778 113.48317 132.09223 113.87811 132.41922 114.1186 C 132.74623 114.35909 133.27068 114.73332 133.59769 114.96164 C 133.9247 115.18996 134.44911 115.54642 134.77613 115.76425 C 135.10314 115.9821 135.62758 116.3231 135.95459 116.53178 C 136.2816 116.74048 136.80603 117.06784 137.13304 117.26845 C 137.46006 117.46906 137.98448 117.78429 138.3115 117.97768 C 138.6385 118.17108 139.16295 118.47543 139.48996 118.66235 C 139.81697 118.84926 140.3414 119.14381 140.66841 119.32484 C 140.99542 119.50589 141.51985 119.7915 141.84687 119.9672 C 142.17386 120.14288 142.6983 120.42033 143.02532 120.59111 C 143.35233 120.76189 143.87676 121.03189 144.20377 121.19812 C 144.53078 121.36433 145.05522 121.62712 145.38224 121.78915 C 145.70925 121.95119 146.23368 122.20784 146.56069 122.36607 C 146.8877 122.52429 147.41213 122.7749 147.73912 122.92952 C 148.06613 123.08412 148.59058 123.32921 148.91759 123.48044 C 149.2446 123.63167 149.76903 123.87149 150.09604 124.01958 C 150.42305 124.16765 150.9475 124.40262 151.2745 124.54771 C 151.6015 124.69283 152.12595 124.92314 152.45296 125.06544 C 152.77997 125.20776 153.30438 125.43373 153.6314 125.5734 C 153.9584 125.71306 154.48285 125.93492 154.80986 126.07208 C 155.13687 126.20924 155.6613 126.42723 155.98831 126.56203 C 156.31533 126.69682 156.83977 126.91109 157.16677 127.04364 C 157.49378 127.1762 158.0182 127.38695 158.34522 127.51735 C 158.67223 127.64775 159.19666 127.85516 159.52367 127.98352 C 159.85068 128.11186 160.37512 128.31609 160.70214 128.44249 C 161.02915 128.5689 161.55358 128.77007 161.88059 128.89463 C 162.2076 129.01917 162.73203 129.21743 163.05904 129.34018 C 163.38605 129.46292 163.91048 129.6584 164.23749 129.77945 C 164.5645 129.9005 165.08893 130.0933 165.41594 130.21273 C 165.74295 130.33214 166.2674 130.52231 166.5944 130.64014 C 166.9214 130.75797 167.44585 130.94573 167.77286 131.06206 C 168.09987 131.17838 168.6243 131.36374 168.95131 131.4786 C 169.27832 131.59348 169.80275 131.77657 170.12976 131.89003 C 170.45677 132.0035 170.9812 132.18436 171.30821 132.29648 C 171.63523 132.40859 172.15967 132.5873 172.48667 132.6981 C 172.81368 132.80892 173.33812 132.98561 173.66513 133.09516 C 173.99214 133.2047 174.51657 133.37937 174.84358 133.4877 C 175.1706 133.59603 175.69503 133.76879 176.02204 133.87593 C 176.34905 133.98307 176.87348 134.15399 177.20049 134.26001 C 177.5275 134.36603 178.05193 134.53514 178.37894 134.64005 C 178.70595 134.74494 179.2304 134.91226 179.5574 135.01609 C 179.88442 135.11992 180.40883 135.2856 180.73584 135.3884 C 181.06285 135.4912 181.5873 135.65525 181.9143 135.75702 C 182.2413 135.8588 182.76575 136.02121 183.09276 136.12203 C 183.41977 136.22283 183.9442 136.38372 184.27121 136.48355 C 184.59822 136.5834 185.12267 136.7428 185.44968 136.8417 C 185.77669 136.94063 186.3011 137.09856 186.62812 137.19658 C 186.95513 137.2946 187.47957 137.4511 187.80657 137.54824 C 188.13358 137.64539 188.65802 137.8005 188.98503 137.89679 C 189.31204 137.99308 189.83647 138.14685 190.16349 138.24231 C 190.4905 138.33779 191.01494 138.49025 191.34195 138.58489 C 191.66896 138.67954 192.19338 138.83068 192.52039 138.92453 C 192.8474 139.01839 193.37183 139.16834 193.69884 139.26143 C 194.02585 139.35453 194.5503 139.50325 194.8773 139.59558 C 195.20432 139.68791 195.72875 139.8354 196.05576 139.92702 C 196.38277 140.01862 196.90721 140.16498 197.23423 140.25588 C 197.56122 140.34677 198.08565 140.49198 198.41266 140.58217 C 198.73967 140.67237 199.2641 140.81645 199.59111 140.90596 C 199.91812 140.99547 200.44257 141.13848 200.76958 141.22731 C 201.09659 141.31615 201.62102 141.4581 201.94803 141.54628 C 202.27504 141.63448 202.79949 141.77538 203.12648 141.86293 C 203.45349 141.95047 203.97792 142.09038 204.30493 142.1773 C 204.63195 142.26422 205.15637 142.40312 205.48339 142.48943 C 205.8104 142.57573 206.33484 142.71367 206.66185 142.79938 C 206.98885 142.88509 207.51329 143.02211 207.8403 143.10723 C 208.16732 143.19234 208.69173 143.32839 209.01874 143.41292 C 209.34575 143.49745 209.8702 143.6326 210.1972 143.7166 C 210.52422 143.80059 211.04865 143.93485 211.37566 144.01828 C 211.70267 144.1017 212.22711 144.23506 212.55411 144.31793 C 212.88112 144.40082 213.40557 144.53333 213.73258 144.61566 C 214.05959 144.69802 214.584 144.8297 214.91101 144.91153 C 215.23802 144.99337 215.76247 145.12418 216.08948 145.20549 C 216.41649 145.2868 216.94092 145.41686 217.26793 145.49767 C 217.59494 145.57849 218.11937 145.70772 218.44638 145.78804 C 218.77339 145.86838 219.29784 145.99678 219.62485 146.07663 C 219.95186 146.15647 220.47628 146.28415 220.80329 146.36351 C 221.1303 146.44289 221.65474 146.5698 221.98175 146.64868 C 222.30875 146.72759 222.83319 146.85378 223.1602 146.93222 C 223.48722 147.01067 224.01165 147.13607 224.33866 147.21405 C 224.66567 147.29204 225.19011 147.41677 225.51712 147.49431 C 225.84413 147.57186 226.36855 147.69588 226.69556 147.77298 C 227.02257 147.85009 227.54701 147.97342 227.87401 148.0501 C 228.20102 148.12677 228.72547 148.24942 229.05248 148.32569 C 229.37949 148.40193 229.90392 148.52391 230.23093 148.59976 C 230.55794 148.6756 231.08237 148.7969 231.40938 148.87235 C 231.73639 148.94777 232.26082 149.06844 232.58783 149.14347 C 232.91484 149.2185 233.43927 149.33853 233.76628 149.41316 C 234.09329 149.48781 234.61774 149.60724 234.94475 149.68149 C 235.27176 149.75574 235.79619 149.87445 236.1232 149.94832 C 236.45021 150.02219 236.97464 150.1404 237.30165 150.21389 C 237.62865 150.28737 238.4801 150.47805 238.4801 150.47805 "/>
<symbol id="font_1_2">
<path d="M .45600004 .582 C .45700003 .58800008 .45900006 .59300008 .45900006 .6 C .45900006 .61700007 .44700004 .62700006 .43 .62700006 C .42000003 .62700006 .393 .62 .389 .584 C .371 .62100008 .33600004 .6470001 .296 .6470001 C .18200001 .6470001 .058000007 .507 .058000007 .36300005 C .058000007 .26400004 .119 .20500002 .19100002 .20500002 C .25 .20500002 .297 .252 .30700005 .263 L .30800004 .26200003 C .287 .17300001 .27500005 .132 .27500005 .13000001 C .27100004 .12100001 .237 .022 .13100001 .022 C .112 .022 .079 .023000002 .051 .032000007 C .081 .04100001 .09200001 .067 .09200001 .08400001 C .09200001 .10000001 .081 .11900001 .054000006 .11900001 C .032 .11900001 0 .10100001 0 .061000006 C 0 .02000001 .037 0 .133 0 C .25800003 0 .33000005 .07800001 .34500004 .13800001 L .45600004 .582 M .32600004 .333 C .32 .307 .297 .282 .27500005 .263 C .254 .24500002 .223 .22700002 .194 .22700002 C .14400001 .22700002 .12900001 .279 .12900001 .319 C .12900001 .367 .158 .485 .185 .536 C .21200001 .58500006 .255 .625 .297 .625 C .36300005 .625 .37700004 .544 .37700004 .53900006 C .37700004 .53400006 .375 .528 .374 .52400007 L .32600004 .333 Z "/>
</symbol>
<use xlink:href="#font_1_2" transform="matrix(7.4719498,0,0,-7.4719498,119.04282,29.963757)" fill="#000080"/>
<symbol id="font_2_1">
<path d="M .23200003 .00999999 C .23200003 .012999982 .23200003 .014999986 .215 .03199999 C .09 .15799999 .058 .347 .058 .5 C .058 .674 .096 .84800007 .21900001 .97300007 C .23200003 .985 .23200003 .98700007 .23200003 .99 C .23200003 .99700006 .22800002 1 .222 1 C .21200001 1 .12200001 .93200007 .06299999 .805 C .012000002 .69500008 0 .584 0 .5 C 0 .422 .011 .301 .066 .188 C .126 .065 .21200001 0 .222 0 C .22800002 0 .23200003 .0029999912 .23200003 .00999999 Z "/>
</symbol>
<use xlink:href="#font_2_1" transform="matrix(7.4719498,0,0,-7.4719498,123.50221,30.299994)" fill="#000080"/>
<symbol id="font_1_3">
<path d="M .305 .31300003 C .311 .33900003 .334 .43100003 .404 .43100003 C .409 .43100003 .433 .43100003 .454 .418 C .426 .41300003 .40600003 .388 .40600003 .36400003 C .40600003 .34800003 .417 .32900004 .444 .32900004 C .46600003 .32900004 .498 .34700004 .498 .38700003 C .498 .43900005 .439 .45300005 .405 .45300005 C .347 .45300005 .312 .40000005 .3 .37700004 C .275 .44300003 .221 .45300005 .19200002 .45300005 C .08800001 .45300005 .031000002 .32400004 .031000002 .29900003 C .031000002 .28900004 .041 .28900004 .043000007 .28900004 C .051000008 .28900004 .054000006 .291 .056 .3 C .09 .40600003 .156 .43100003 .19000001 .43100003 C .209 .43100003 .244 .42200003 .244 .36400003 C .244 .33300004 .22700002 .26600004 .19000001 .126 C .17400001 .064 .13900002 .022000002 .095000009 .022000002 C .08900001 .022000002 .06600001 .022000002 .045 .035 C .07000001 .040000004 .09200001 .061 .09200001 .089 C .09200001 .116000007 .07000001 .124000009 .055000009 .124000009 C .025 .124000009 0 .098000008 0 .06600001 C 0 .020000002 .050000006 0 .094000007 0 C .16000001 0 .19600001 .07000001 .19900002 .076000008 C .21100001 .039 .24700003 0 .307 0 C .41 0 .467 .12900001 .467 .15400002 C .467 .16400002 .458 .16400002 .455 .16400002 C .446 .16400002 .444 .16000001 .442 .15300001 C .409 .046 .341 .022000002 .30900003 .022000002 C .27 .022000002 .254 .054 .254 .08800001 C .254 .11000001 .26 .13200002 .271 .17600002 L .305 .31300003 Z "/>
</symbol>
<use xlink:href="#font_1_3" transform="matrix(7.4719498,0,0,-7.4719498,125.88543,28.514199)" fill="#000080"/>
<symbol id="font_2_2">
<path d="M .232 .5 C .232 .578 .22100002 .699 .16600001 .81200006 C .106 .93500009 .020000004 1 .009999998 1 C .0040000008 1 0 .99600008 0 .99 C 0 .98700007 0 .985 .019000002 .967 C .117000009 .86800006 .174 .709 .174 .5 C .174 .329 .137 .153 .012999997 .026999996 C 0 .014999986 0 .012999982 0 .00999999 C 0 .003999993 .0040000008 0 .009999998 0 C .020000004 0 .11000001 .06799999 .169 .195 C .22 .305 .232 .416 .232 .5 Z "/>
</symbol>
<symbol id="font_2_8">
<path d="M .63100007 .19400002 C .646 .19400002 .665 .19400002 .665 .214 C .665 .23400001 .646 .23400001 .632 .23400001 L .033 .23400001 C .019000002 .23400001 0 .23400001 0 .214 C 0 .19400002 .019000002 .19400002 .034 .19400002 L .63100007 .19400002 M .632 0 C .646 0 .665 0 .665 .02000001 C .665 .040000008 .646 .040000008 .63100007 .040000008 L .034 .040000008 C .019000002 .040000008 0 .040000008 0 .02000001 C 0 0 .019000002 0 .033 0 L .632 0 Z "/>
</symbol>
<use xlink:href="#font_2_2" transform="matrix(7.4719498,0,0,-7.4719498,130.36438,30.299994)" fill="#000080"/>
<use xlink:href="#font_2_8" transform="matrix(7.4719498,0,0,-7.4719498,135.34073,27.438239)" fill="#000080"/>
<symbol id="font_3_2">
<path d="M .040000008 .96400007 C .040000008 .98200008 .040000008 1 .02000001 1 C 0 1 0 .98200008 0 .96400007 L 0 .035999985 C 0 .017999992 0 0 .02000001 0 C .040000008 0 .040000008 .017999992 .040000008 .035999985 L .040000008 .96400007 Z "/>
</symbol>
<use xlink:href="#font_3_2" transform="matrix(7.4719498,0,0,-7.4719498,143.69617,30.299994)" fill="#000080"/>
<use xlink:href="#font_1_3" transform="matrix(7.4719498,0,0,-7.4719498,145.09969,28.514199)" fill="#000080"/>
<symbol id="font_3_1">
<path d="M .57600006 0 C .59300008 0 .611 0 .611 .019999996 C .611 .040000008 .59300008 .040000008 .57600006 .040000008 L .035000005 .040000008 C .018 .040000008 0 .040000008 0 .019999996 C 0 0 .018 0 .035000005 0 L .57600006 0 Z "/>
</symbol>
<use xlink:href="#font_3_1" transform="matrix(7.4719498,0,0,-7.4719498,151.43341,26.713459)" fill="#000080"/>
<symbol id="font_2_3">
<path d="M .205 .64000007 C .205 .66400006 .205 .666 .18200003 .666 C .120000008 .60200008 .032000007 .60200008 0 .60200008 L 0 .57100006 C .020000004 .57100006 .07900001 .57100006 .13100001 .597 L .13100001 .079 C .13100001 .043 .128 .031000002 .038000004 .031000002 L .0060000049 .031000002 L .0060000049 0 C .04100001 .003 .128 .003 .168 .003 C .20800002 .003 .29500003 .003 .33000005 0 L .33000005 .031000002 L .29800005 .031000002 C .20800002 .031000002 .205 .042000005 .205 .079 L .205 .64000007 Z "/>
</symbol>
<use xlink:href="#font_2_3" transform="matrix(7.4719498,0,0,-7.4719498,158.9505,28.432007)" fill="#000080"/>
<use xlink:href="#font_3_2" transform="matrix(7.4719498,0,0,-7.4719498,162.9104,30.299994)" fill="#000080"/>
<symbol id="font_1_1">
<path d="M .314 .605 L .4 .605 C .42000003 .605 .43 .605 .43 .625 C .43 .63600006 .42000003 .63600006 .40300004 .63600006 L .32000003 .63600006 L .34100003 .75 C .34500004 .771 .35900004 .842 .365 .8540001 C .374 .873 .39100004 .888 .41200004 .888 C .416 .888 .44200004 .888 .461 .87 C .41700004 .86600008 .407 .8310001 .407 .816 C .407 .793 .425 .781 .444 .781 C .47 .781 .49900005 .8030001 .49900005 .8410001 C .49900005 .8870001 .45300005 .9100001 .41200004 .9100001 C .37800003 .9100001 .31500004 .8920001 .28500004 .793 C .279 .7720001 .27600003 .7620001 .252 .63600006 L .18300002 .63600006 C .164 .63600006 .15300001 .63600006 .15300001 .61700007 C .15300001 .605 .162 .605 .18100001 .605 L .24700001 .605 L .172 .21000001 C .15400002 .113000009 .13700001 .022 .08500001 .022 C .081 .022 .056 .022 .037 .040000008 C .083000008 .043000014 .09200001 .07900001 .09200001 .094000007 C .09200001 .117000009 .074 .12900001 .055 .12900001 C .029 .12900001 0 .10700001 0 .069000009 C 0 .024000004 .044 0 .08500001 0 C .14 0 .18 .059 .19800002 .09700001 C .23000002 .16000001 .25300003 .28100003 .254 .28800003 L .314 .605 Z "/>
</symbol>
<use xlink:href="#font_1_1" transform="matrix(7.4719498,0,0,-7.4719498,117.97376,144.31325)" fill="#800000"/>
<use xlink:href="#font_2_1" transform="matrix(7.4719498,0,0,-7.4719498,122.77997,144.64948)" fill="#800000"/>
<use xlink:href="#font_1_3" transform="matrix(7.4719498,0,0,-7.4719498,125.16243,142.86368)" fill="#800000"/>
<use xlink:href="#font_2_2" transform="matrix(7.4719498,0,0,-7.4719498,129.64215,144.64948)" fill="#800000"/>
<use xlink:href="#font_2_8" transform="matrix(7.4719498,0,0,-7.4719498,134.61847,141.78772)" fill="#800000"/>
<symbol id="font_3_3">
<path d="M .316 .10500002 L .14000002 .49400003 C .13300002 .51 .12799999 .51 .125 .51 C .124000009 .51 .118999999 .51 .108 .502 L .012999997 .43 C 0 .42000003 0 .417 0 .41400004 C 0 .40900005 .0029999987 .403 .009999998 .403 C .015999996 .403 .033 .417 .044 .425 C .049999998 .43 .065000008 .44099999 .076 .449 L .273 .015999973 C .28 0 .285 0 .294 0 C .30900003 0 .312 .0059999825 .319 .01999998 L .773 .96000006 C .78000006 .97400006 .78000006 .97800007 .78000006 .98 C .78000006 .99 .772 1 .76000007 1 C .75200006 1 .745 .99500009 .73700007 .97900006 L .316 .10500002 Z "/>
</symbol>
<use xlink:href="#font_3_3" transform="matrix(7.4719498,0,0,-7.4719498,142.6302,144.20806)" fill="#800000"/>
<path transform="matrix(.75,0,0,-.75,148.31125,136.885)" stroke-width="1" stroke-linecap="butt" stroke-miterlimit="10" stroke-linejoin="miter" fill="none" stroke="#800000" d="M 0 0 L 5.694 0 "/>
<use xlink:href="#font_1_3" transform="matrix(7.4719498,0,0,-7.4719498,148.52794,142.86368)" fill="#800000"/>
<use xlink:href="#font_3_1" transform="matrix(7.4719498,0,0,-7.4719498,154.86243,141.06295)" fill="#800000"/>
<use xlink:href="#font_2_3" transform="matrix(7.4719498,0,0,-7.4719498,162.37876,142.7815)" fill="#800000"/>
</g>
<path transform="matrix(.75,0,0,-.75,8.24575,196.65625)" stroke-width="1" stroke-linecap="butt" stroke-miterlimit="10" stroke-linejoin="miter" fill="none" stroke="#808080" d="M 4.67612 119.45338 L 4.67612 123.70528 M 28.05676 119.45338 L 28.05676 123.70528 M 51.43741 119.45338 L 51.43741 123.70528 M 74.81805 119.45338 L 74.81805 123.70528 M 98.19868 119.45338 L 98.19868 123.70528 M 144.95998 119.45338 L 144.95998 123.70528 M 168.34062 119.45338 L 168.34062 123.70528 M 191.72127 119.45338 L 191.72127 123.70528 M 215.1019 119.45338 L 215.1019 123.70528 M 238.48255 119.45338 L 238.48255 123.70528 "/>
<path transform="matrix(.75,0,0,-.75,8.24575,196.65625)" stroke-width="1" stroke-linecap="butt" stroke-miterlimit="10" stroke-linejoin="miter" fill="none" stroke="#808080" d="M 119.45338 4.67612 L 123.70528 4.67612 M 119.45338 28.05676 L 123.70528 28.05676 M 119.45338 51.43741 L 123.70528 51.43741 M 119.45338 74.81805 L 123.70528 74.81805 M 119.45338 98.19868 L 123.70528 98.19868 M 119.45338 144.95998 L 123.70528 144.95998 M 119.45338 168.34062 L 123.70528 168.34062 M 119.45338 191.72127 L 123.70528 191.72127 M 119.45338 215.1019 L 123.70528 215.1019 M 119.45338 238.48255 L 123.70528 238.48255 "/>
<path transform="matrix(.75,0,0,-.75,8.24575,196.65625)" stroke-width="1" stroke-linecap="butt" stroke-miterlimit="10" stroke-linejoin="miter" fill="none" stroke="#000000" d="M 0 121.57933 L 241.16616 121.57933 "/>
<path transform="matrix(.75,0,0,-.75,189.12036,105.471759)" d="M 1.99252 0 L -1.19551 1.59401 L 0 0 L -1.19551 -1.59401 "/>
<path transform="matrix(.75,0,0,-.75,8.24575,196.65625)" stroke-width="1" stroke-linecap="butt" stroke-miterlimit="10" stroke-linejoin="miter" fill="none" stroke="#000000" d="M 121.57933 0 L 121.57933 241.16616 "/>
<path transform="matrix(0,-.75,-.75,-0,99.430248,15.781631)" d="M 1.99252 0 L -1.19551 1.59401 L 0 0 L -1.19551 -1.59401 "/>
<use xlink:href="#font_3_1" transform="matrix(7.4719498,0,0,-7.4719498,7.5991728,112.803699)"/>
<symbol id="font_2_7">
<path d="M .39900003 .223 C .39900003 .34200005 .317 .44200004 .209 .44200004 C .16100002 .44200004 .118000019 .42600004 .082 .39100004 L .082 .586 C .10200001 .58000007 .135 .573 .16700001 .573 C .29 .573 .36 .66400006 .36 .67700007 C .36 .683 .357 .688 .35 .688 C .349 .688 .347 .688 .342 .68500009 C .322 .67600008 .273 .656 .20600002 .656 C .16600001 .656 .120000008 .66300007 .073 .6840001 C .065 .68700006 .06300001 .68700006 .061000009 .68700006 C .051000004 .68700006 .051000004 .679 .051000004 .66300007 L .051000004 .36700005 C .051000004 .34900005 .051000004 .34100003 .065 .34100003 C .07200001 .34100003 .074 .34400005 .07800001 .35000003 C .08900002 .36600004 .12600002 .42000006 .207 .42000006 C .259 .42000006 .284 .37400005 .292 .35600005 C .308 .31900005 .31 .28000004 .31 .23 C .31 .19500001 .31 .135 .286 .093 C .262 .054000006 .22500001 .028 .17900002 .028 C .106000009 .028 .049000008 .08100001 .032 .14000002 C .035 .13900002 .038000008 .13800001 .049000008 .13800001 C .082 .13800001 .09900001 .163 .09900001 .187 C .09900001 .21100001 .082 .23600002 .049000008 .23600002 C .035 .23600002 0 .22900002 0 .18300002 C 0 .097 .069000009 0 .18100001 0 C .297 0 .39900003 .096 .39900003 .223 Z "/>
</symbol>
<use xlink:href="#font_2_7" transform="matrix(7.4719498,0,0,-7.4719498,13.164349,114.68663)"/>
<use xlink:href="#font_3_1" transform="matrix(7.4719498,0,0,-7.4719498,25.134922,112.803699)"/>
<symbol id="font_2_6">
<path d="M .266 .165 L .266 .078 C .266 .042000005 .26400004 .031000002 .19000001 .031000002 L .16900002 .031000002 L .16900002 0 C .21000001 .003 .26200003 .003 .30400003 .003 C .34600003 .003 .39900003 .003 .44000004 0 L .44000004 .031000002 L .41900004 .031000002 C .34500004 .031000002 .34300003 .042000005 .34300003 .078 L .34300003 .165 L .44300003 .165 L .44300003 .19600001 L .34300003 .19600001 L .34300003 .651 C .34300003 .671 .34300003 .67700007 .32700003 .67700007 C .31800003 .67700007 .31500004 .67700007 .307 .665 L 0 .19600001 L 0 .165 L .266 .165 M .272 .19600001 L .028 .19600001 L .272 .569 L .272 .19600001 Z "/>
</symbol>
<use xlink:href="#font_2_6" transform="matrix(7.4719498,0,0,-7.4719498,30.534964,114.52225)"/>
<use xlink:href="#font_3_1" transform="matrix(7.4719498,0,0,-7.4719498,42.66992,112.803699)"/>
<symbol id="font_2_5">
<path d="M .24800003 .37400005 C .33 .40100003 .388 .47100006 .388 .55 C .388 .632 .3 .688 .204 .688 C .10300001 .688 .027000003 .628 .027000003 .55200007 C .027000003 .519 .049000004 .5 .078 .5 C .109000008 .5 .12900001 .522 .12900001 .55100008 C .12900001 .6010001 .082 .6010001 .067 .6010001 C .098 .65000006 .164 .66300007 .20000002 .66300007 C .24100003 .66300007 .29600004 .64100006 .29600004 .55100008 C .29600004 .53900006 .29400004 .48100005 .268 .43700005 C .238 .38900004 .204 .38600005 .17900002 .38500003 C .171 .38400004 .14700002 .38200004 .14000002 .38200004 C .132 .38100005 .125 .38000003 .125 .37000004 C .125 .35900004 .132 .35900004 .14900002 .35900004 L .19300002 .35900004 C .275 .35900004 .312 .29100005 .312 .193 C .312 .057000005 .24300003 .028 .199 .028 C .15600002 .028 .081 .045 .046000005 .104 C .081 .09900001 .11200001 .12100001 .11200001 .15900001 C .11200001 .19500001 .085 .215 .056 .215 C .031999999 .215 0 .201 0 .157 C 0 .06600001 .093 0 .20200002 0 C .32400004 0 .41500003 .091000009 .41500003 .193 C .41500003 .27500005 .35200004 .35300005 .24800003 .37400005 Z "/>
</symbol>
<use xlink:href="#font_2_5" transform="matrix(7.4719498,0,0,-7.4719498,48.175329,114.68663)"/>
<use xlink:href="#font_3_1" transform="matrix(7.4719498,0,0,-7.4719498,60.204927,112.803699)"/>
<symbol id="font_2_4">
<path d="M .07700001 .07700001 L .18300002 .18 C .33900003 .31800003 .39900003 .372 .39900003 .47200004 C .39900003 .586 .30900003 .666 .18700002 .666 C .074 .666 0 .574 0 .485 C 0 .42900003 .05 .42900003 .053000008 .42900003 C .07000001 .42900003 .105000007 .441 .105000007 .48200003 C .105000007 .508 .08700001 .53400006 .052000006 .53400006 C .044000005 .53400006 .042000008 .53400006 .039 .53300008 C .062000004 .59800007 .11600001 .63500007 .17400001 .63500007 C .26500003 .63500007 .308 .554 .308 .47200004 C .308 .39200003 .25800003 .31300003 .20300003 .25100003 L .011000004 .037 C 0 .026 0 .024 0 0 L .37100003 0 L .39900003 .17400001 L .374 .17400001 C .36900003 .14400001 .36200003 .1 .352 .085 C .345 .07700001 .279 .07700001 .257 .07700001 L .07700001 .07700001 Z "/>
</symbol>
<use xlink:href="#font_2_4" transform="matrix(7.4719498,0,0,-7.4719498,65.770099,114.52225)"/>
<use xlink:href="#font_3_1" transform="matrix(7.4719498,0,0,-7.4719498,77.74067,112.803699)"/>
<use xlink:href="#font_2_3" transform="matrix(7.4719498,0,0,-7.4719498,83.5965,114.52225)"/>
<use xlink:href="#font_2_3" transform="matrix(7.4719498,0,0,-7.4719498,115.76175,114.52225)"/>
<use xlink:href="#font_2_4" transform="matrix(7.4719498,0,0,-7.4719498,133.00534,114.52225)"/>
<use xlink:href="#font_2_5" transform="matrix(7.4719498,0,0,-7.4719498,150.48058,114.68663)"/>
<use xlink:href="#font_2_6" transform="matrix(7.4719498,0,0,-7.4719498,167.9117,114.52225)"/>
<use xlink:href="#font_2_7" transform="matrix(7.4719498,0,0,-7.4719498,185.61109,114.68663)"/>
<use xlink:href="#font_3_1" transform="matrix(7.4719498,0,0,-7.4719498,86.267429,193.52695)"/>
<use xlink:href="#font_2_7" transform="matrix(7.4719498,0,0,-7.4719498,91.8326,195.40988)"/>
<use xlink:href="#font_3_1" transform="matrix(7.4719498,0,0,-7.4719498,86.267429,175.9912)"/>
<use xlink:href="#font_2_6" transform="matrix(7.4719498,0,0,-7.4719498,91.66822,177.70975)"/>
<use xlink:href="#font_3_1" transform="matrix(7.4719498,0,0,-7.4719498,86.267429,158.45619)"/>
<use xlink:href="#font_2_5" transform="matrix(7.4719498,0,0,-7.4719498,91.77283,160.33913)"/>
<use xlink:href="#font_3_1" transform="matrix(7.4719498,0,0,-7.4719498,86.267429,140.92119)"/>
<use xlink:href="#font_2_4" transform="matrix(7.4719498,0,0,-7.4719498,91.8326,142.63974)"/>
<use xlink:href="#font_3_1" transform="matrix(7.4719498,0,0,-7.4719498,86.267429,123.38546)"/>
<use xlink:href="#font_2_3" transform="matrix(7.4719498,0,0,-7.4719498,92.12401,125.10401)"/>
<use xlink:href="#font_2_3" transform="matrix(7.4719498,0,0,-7.4719498,92.124,90.345249)"/>
<use xlink:href="#font_2_4" transform="matrix(7.4719498,0,0,-7.4719498,91.832599,72.80951)"/>
<use xlink:href="#font_2_5" transform="matrix(7.4719498,0,0,-7.4719498,91.77282,55.43889)"/>
<use xlink:href="#font_2_6" transform="matrix(7.4719498,0,0,-7.4719498,91.66821,37.739503)"/>
<use xlink:href="#font_2_7" transform="matrix(7.4719498,0,0,-7.4719498,91.832599,20.368134)"/>
<path transform="matrix(.75,0,0,-.75,8.24575,196.65625)" d="M 123.57188 98.19868 C 123.57188 99.29916 122.67981 100.19124 121.57933 100.19124 C 120.47887 100.19124 119.58678 99.29916 119.58678 98.19868 C 119.58678 97.09822 120.47887 96.20613 121.57933 96.20613 C 122.67981 96.20613 123.57188 97.09822 123.57188 98.19868 Z M 121.57933 98.19868 " fill="#800000"/>
<path transform="matrix(.75,0,0,-.75,8.24575,196.65625)" stroke-width="1" stroke-linecap="butt" stroke-miterlimit="10" stroke-linejoin="miter" fill="none" stroke="#800000" d="M 123.57188 98.19868 C 123.57188 99.29916 122.67981 100.19124 121.57933 100.19124 C 120.47887 100.19124 119.58678 99.29916 119.58678 98.19868 C 119.58678 97.09822 120.47887 96.20613 121.57933 96.20613 C 122.67981 96.20613 123.57188 97.09822 123.57188 98.19868 Z M 121.57933 98.19868 "/>
<use xlink:href="#font_1_3" transform="matrix(7.4719498,0,0,-7.4719498,193.4687,107.16369)"/>
<symbol id="font_1_4">
<path d="M .45700003 .586 C .461 .6 .461 .602 .461 .609 C .461 .62700006 .447 .63600006 .432 .63600006 C .42200003 .63600006 .40600003 .63 .397 .615 C .395 .61 .387 .579 .38300003 .561 C .37600003 .535 .36900003 .508 .363 .48100005 L .318 .301 C .314 .286 .271 .21600002 .20500002 .21600002 C .15400002 .21600002 .143 .26000003 .143 .29700003 C .143 .34300003 .16000001 .40500004 .194 .49300004 C .21000001 .53400006 .21400002 .545 .21400002 .56500008 C .21400002 .61 .18200001 .6470001 .13200002 .6470001 C .037 .6470001 0 .50200006 0 .49300004 C 0 .48300005 .01 .48300005 .012 .48300005 C .022000002 .48300005 .023 .485 .028000003 .50100007 C .055000009 .595 .095000009 .625 .12900001 .625 C .13700001 .625 .15400002 .625 .15400002 .59300008 C .15400002 .568 .14400001 .54200008 .13700001 .523 C .097 .41700004 .079 .36 .079 .31300003 C .079 .224 .142 .194 .201 .194 C .24000003 .194 .274 .21100001 .30200003 .23900002 C .289 .187 .277 .13800001 .237 .08500001 C .21100001 .051 .17300001 .022 .127 .022 C .113000009 .022 .068 .025000006 .051000008 .06400001 C .067 .06400001 .080000009 .06400001 .094000007 .076000008 C .104 .08500001 .11400001 .098000008 .11400001 .117000009 C .11400001 .148 .087000008 .15200001 .07700001 .15200001 C .054000006 .15200001 .021 .136 .021 .087000008 C .021 .037 .065000008 0 .127 0 C .23 0 .333 .091000009 .361 .20400001 L .45700003 .586 Z "/>
</symbol>
<use xlink:href="#font_1_4" transform="matrix(7.4719498,0,0,-7.4719498,97.68019,11.728252)"/>
</svg>
