<?xml version="1.0" encoding="UTF-8" standalone="no"?>
<!DOCTYPE svg PUBLIC "-//W3C//DTD SVG 1.1//EN" "http://www.w3.org/Graphics/SVG/1.1/DTD/svg11.dtd">
<svg xmlns="http://www.w3.org/2000/svg" xmlns:xlink="http://www.w3.org/1999/xlink" version="1.1" width="223.966pt" height="188.23pt" viewBox="0 0 223.966 188.23">
<path transform="matrix(1,0,0,-1,19.076,172.696)" stroke-width=".19925" stroke-linecap="butt" stroke-miterlimit="10" stroke-linejoin="miter" fill="none" stroke="#929292" d="M 38.85474 -2.12604 L 38.85474 2.12604 M 77.70947 -2.12604 L 77.70947 2.12604 M 116.56421 -2.12604 L 116.56421 2.12604 M 155.41895 -2.12604 L 155.41895 2.12604 M 194.27368 -2.12604 L 194.27368 2.12604 "/>
<path transform="matrix(1,0,0,-1,19.076,172.696)" stroke-width=".19925" stroke-linecap="butt" stroke-miterlimit="10" stroke-linejoin="miter" fill="none" stroke="#929292" d="M -2.12592 32.27911 L 2.12592 32.27911 M -2.12592 64.55823 L 2.12592 64.55823 M -2.12592 96.83736 L 2.12592 96.83736 M -2.12592 129.11647 L 2.12592 129.11647 M -2.12592 161.3956 L 2.12592 161.3956 "/>
<path transform="matrix(1,0,0,-1,19.076,172.696)" stroke-width=".3985" stroke-linecap="butt" stroke-miterlimit="10" stroke-linejoin="miter" fill="none" stroke="#000000" d="M 0 0 L 192.27985 0 "/>
<path transform="matrix(1,0,0,-1,211.35585,172.696)" d="M 1.99252 0 L -1.19551 1.59401 L 0 0 L -1.19551 -1.59401 "/>
<path transform="matrix(1,0,0,-1,19.076,172.696)" stroke-width=".3985" stroke-linecap="butt" stroke-miterlimit="10" stroke-linejoin="miter" fill="none" stroke="#000000" d="M 0 0 L 0 159.40299 "/>
<path transform="matrix(0,-1,-1,-0,19.076,13.293015)" d="M 1.99252 0 L -1.19551 1.59401 L 0 0 L -1.19551 -1.59401 "/>
<symbol id="font_0_1">
<path d="M .421 .34200005 C .421 .42200003 .416 .50200006 .381 .57600006 C .335 .67200008 .25300003 .688 .211 .688 C .15100001 .688 .07800001 .66200008 .037000006 .56900009 C .0050000029 .5 0 .42200003 0 .34200005 C 0 .26700003 .0040000008 .177 .045000007 .101 C .088 .020000002 .161 0 .21000001 0 C .264 0 .34 .021000002 .384 .116000007 C .416 .185 .421 .263 .421 .34200005 M .21000001 .022000002 C .171 .022000002 .112 .047000003 .094 .143 C .083000008 .20300001 .083000008 .29500003 .083000008 .35400004 C .083000008 .41800005 .083000008 .48400004 .091000009 .53800007 C .11 .65700009 .185 .66600009 .21000001 .66600009 C .243 .66600009 .30900003 .64800009 .328 .549 C .338 .49300004 .338 .41700004 .338 .35400004 C .338 .279 .338 .21100001 .32700003 .147 C .312 .052 .255 .022000002 .21000001 .022000002 Z "/>
</symbol>
<use xlink:href="#font_0_1" transform="matrix(9.9626,0,0,-9.9626,51.954545,185.05518)"/>
<symbol id="font_1_1">
<path d="M .106 .053000004 C .106 .082 .08200001 .106000009 .05300001 .106000009 C .024000004 .106000009 0 .082 0 .053000004 C 0 .024 .024000004 0 .05300001 0 C .08200001 0 .106 .024 .106 .053000004 Z "/>
</symbol>
<use xlink:href="#font_1_1" transform="matrix(9.9626,0,0,-9.9626,57.403787,184.836)"/>
<symbol id="font_0_4">
<path d="M .39900003 .223 C .39900003 .34200005 .317 .44200004 .209 .44200004 C .16100002 .44200004 .118000019 .42600004 .082 .39100004 L .082 .586 C .10200001 .58000007 .135 .573 .16700001 .573 C .29 .573 .36 .66400006 .36 .67700007 C .36 .683 .357 .688 .35 .688 C .349 .688 .347 .688 .342 .68500009 C .322 .67600008 .273 .656 .20600002 .656 C .16600001 .656 .120000008 .66300007 .073 .6840001 C .065 .68700006 .06300001 .68700006 .061000009 .68700006 C .051000004 .68700006 .051000004 .679 .051000004 .66300007 L .051000004 .36700005 C .051000004 .34900005 .051000004 .34100003 .065 .34100003 C .07200001 .34100003 .074 .34400005 .07800001 .35000003 C .08900002 .36600004 .12600002 .42000006 .207 .42000006 C .259 .42000006 .284 .37400005 .292 .35600005 C .308 .31900005 .31 .28000004 .31 .23 C .31 .19500001 .31 .135 .286 .093 C .262 .054000006 .22500001 .028 .17900002 .028 C .106000009 .028 .049000008 .08100001 .032 .14000002 C .035 .13900002 .038000008 .13800001 .049000008 .13800001 C .082 .13800001 .09900001 .163 .09900001 .187 C .09900001 .21100001 .082 .23600002 .049000008 .23600002 C .035 .23600002 0 .22900002 0 .18300002 C 0 .097 .069000009 0 .18100001 0 C .297 0 .39900003 .096 .39900003 .223 Z "/>
</symbol>
<use xlink:href="#font_0_4" transform="matrix(9.9626,0,0,-9.9626,59.81213,185.05518)"/>
<symbol id="font_0_2">
<path d="M .205 .64000007 C .205 .66400006 .205 .666 .18200003 .666 C .120000008 .60200008 .032000007 .60200008 0 .60200008 L 0 .57100006 C .020000004 .57100006 .07900001 .57100006 .13100001 .597 L .13100001 .079 C .13100001 .043 .128 .031000002 .038000004 .031000002 L .0060000049 .031000002 L .0060000049 0 C .04100001 .003 .128 .003 .168 .003 C .20800002 .003 .29500003 .003 .33000005 0 L .33000005 .031000002 L .29800005 .031000002 C .20800002 .031000002 .205 .042000005 .205 .079 L .205 .64000007 Z "/>
</symbol>
<use xlink:href="#font_0_2" transform="matrix(9.9626,0,0,-9.9626,95.18068,184.836)"/>
<use xlink:href="#font_0_2" transform="matrix(9.9626,0,0,-9.9626,130.16068,184.836)"/>
<use xlink:href="#font_1_1" transform="matrix(9.9626,0,0,-9.9626,135.11179,184.836)"/>
<use xlink:href="#font_0_4" transform="matrix(9.9626,0,0,-9.9626,137.52114,185.05518)"/>
<symbol id="font_0_3">
<path d="M .07700001 .07700001 L .18300002 .18 C .33900003 .31800003 .39900003 .372 .39900003 .47200004 C .39900003 .586 .30900003 .666 .18700002 .666 C .074 .666 0 .574 0 .485 C 0 .42900003 .05 .42900003 .053000008 .42900003 C .07000001 .42900003 .105000007 .441 .105000007 .48200003 C .105000007 .508 .08700001 .53400006 .052000006 .53400006 C .044000005 .53400006 .042000008 .53400006 .039 .53300008 C .062000004 .59800007 .11600001 .63500007 .17400001 .63500007 C .26500003 .63500007 .308 .554 .308 .47200004 C .308 .39200003 .25800003 .31300003 .20300003 .25100003 L .011000004 .037 C 0 .026 0 .024 0 0 L .37100003 0 L .39900003 .17400001 L .374 .17400001 C .36900003 .14400001 .36200003 .1 .352 .085 C .345 .07700001 .279 .07700001 .257 .07700001 L .07700001 .07700001 Z "/>
</symbol>
<use xlink:href="#font_0_3" transform="matrix(9.9626,0,0,-9.9626,172.50113,184.836)"/>
<use xlink:href="#font_0_3" transform="matrix(9.9626,0,0,-9.9626,207.48113,184.836)"/>
<use xlink:href="#font_1_1" transform="matrix(9.9626,0,0,-9.9626,212.82079,184.836)"/>
<use xlink:href="#font_0_4" transform="matrix(9.9626,0,0,-9.9626,215.22913,185.05518)"/>
<use xlink:href="#font_0_4" transform="matrix(9.9626,0,0,-9.9626,8.87413,143.84618)"/>
<use xlink:href="#font_0_2" transform="matrix(9.9626,0,0,-9.9626,4.2806718,111.349)"/>
<use xlink:href="#font_0_1" transform="matrix(9.9626,0,0,-9.9626,8.763841,111.56818)"/>
<use xlink:href="#font_0_2" transform="matrix(9.9626,0,0,-9.9626,4.2806718,79.07001)"/>
<use xlink:href="#font_0_4" transform="matrix(9.9626,0,0,-9.9626,8.873429,79.289188)"/>
<use xlink:href="#font_0_3" transform="matrix(9.9626,0,0,-9.9626,3.8921302,46.791)"/>
<use xlink:href="#font_0_1" transform="matrix(9.9626,0,0,-9.9626,8.763841,47.010179)"/>
<use xlink:href="#font_0_3" transform="matrix(9.9626,0,0,-9.9626,3.8921302,14.5130009)"/>
<use xlink:href="#font_0_4" transform="matrix(9.9626,0,0,-9.9626,8.873429,14.732178)"/>
<path transform="matrix(1,0,0,-1,19.076,172.696)" stroke-width="1.19553" stroke-linecap="butt" stroke-miterlimit="10" stroke-linejoin="miter" fill="none" stroke="#000080" d="M 0 0 C 0 0 5.84842 18.93591 8.09467 25.77827 C 10.34091 32.62064 13.94312 43.0947 16.18936 49.31503 C 18.4356 55.53535 22.0378 65.01186 24.28404 70.61017 C 26.53029 76.20848 30.13248 84.68748 32.37872 89.66376 C 34.62495 94.64003 38.22716 102.12149 40.4734 106.47572 C 42.71965 110.82997 46.32185 117.31395 48.5681 121.04617 C 50.81433 124.7784 54.41653 130.26482 56.66278 133.375 C 58.90903 136.4852 62.51122 140.97412 64.75746 143.46228 C 67.0037 145.95044 70.60591 149.44184 72.85216 151.30797 C 75.0984 153.1741 78.70059 155.66806 80.94684 156.91214 C 83.19308 158.15622 86.79527 159.65253 89.04152 160.27457 C 91.28777 160.89662 94.88995 161.39545 97.1362 161.39551 C 99.38245 161.39557 102.98463 160.897 105.23088 160.27504 C 107.47713 159.65309 111.07932 158.15685 113.32556 156.91284 C 115.57181 155.66883 119.174 153.1751 121.42024 151.30907 C 123.66649 149.44304 127.26868 145.95182 129.51493 143.46375 C 131.76117 140.97566 135.36336 136.48683 137.6096 133.37674 C 139.85585 130.26665 143.45804 124.78038 145.70429 121.04826 C 147.95053 117.31615 151.55272 110.83234 153.79897 106.47821 C 156.04521 102.12407 159.6474 94.64273 161.89365 89.6666 C 164.1399 84.69046 167.74208 76.21176 169.98833 70.61356 C 172.23458 65.01535 175.83676 55.5388 178.08301 49.31856 C 180.32926 43.0983 183.93146 32.62448 186.17769 25.78223 C 188.42394 18.93997 194.27237 .00432 194.27237 .00432 "/>
<use xlink:href="#font_0_1" transform="matrix(9.9626,0,0,-9.9626,16.974543,183.87218)"/>
<symbol id="font_1_3">
<path d="M .18300002 .411 L .277 .411 C .29700003 .411 .307 .411 .307 .43100003 C .307 .44200004 .29700003 .44200004 .279 .44200004 L .19100002 .44200004 C .227 .584 .23200003 .60400006 .23200003 .61 C .23200003 .62700006 .22000002 .637 .20300001 .637 C .2 .637 .172 .636 .163 .601 L .124 .44200004 L .030000002 .44200004 C .009999998 .44200004 0 .44200004 0 .42300005 C 0 .411 .007999999 .411 .028 .411 L .11600001 .411 C .044 .127 .04 .11000001 .04 .092 C .04 .038000004 .078 0 .132 0 C .234 0 .291 .14600002 .291 .15400002 C .291 .16400002 .28300003 .16400002 .279 .16400002 C .27 .16400002 .26900003 .16100002 .264 .15000002 C .22100002 .046 .16800002 .022000002 .134 .022000002 C .113000009 .022000002 .103 .035 .103 .068 C .103 .092 .105000007 .09900001 .109 .116000007 L .18300002 .411 Z "/>
</symbol>
<use xlink:href="#font_1_3" transform="matrix(9.9626,0,0,-9.9626,217.20314,175.86959)"/>
<symbol id="font_1_2">
<path d="M .33900006 .38500003 C .311 .38400004 .291 .36200003 .291 .34000004 C .291 .32600004 .3 .31100003 .32200004 .31100003 C .34400005 .31100003 .36800004 .328 .36800004 .367 C .36800004 .41200004 .325 .45300005 .24900003 .45300005 C .11700001 .45300005 .08 .351 .08 .307 C .08 .22900002 .15400002 .21400002 .18300002 .20800002 C .235 .19800002 .287 .18700002 .287 .13200002 C .287 .106000009 .264 .022000002 .14400001 .022000002 C .13000001 .022000002 .053000004 .022000002 .030000002 .075 C .068 .07000001 .09300001 .1 .09300001 .128 C .09300001 .15100001 .07700001 .16300002 .056 .16300002 C .030000002 .16300002 0 .14200002 0 .097 C 0 .040000004 .057000005 0 .143 0 C .305 0 .34400005 .12100001 .34400005 .16600001 C .34400005 .20200002 .325 .22700002 .31300003 .23900002 C .286 .26700003 .25700004 .272 .21300002 .28100003 C .17700002 .28900004 .13700001 .29600004 .13700001 .34100003 C .13700001 .37000004 .16100002 .43100003 .24900003 .43100003 C .274 .43100003 .324 .42400003 .33900006 .38500003 Z "/>
</symbol>
<use xlink:href="#font_1_2" transform="matrix(9.9626,0,0,-9.9626,17.259057,7.7935945)"/>
</svg>
