<?xml version="1.0" encoding="UTF-8" standalone="no"?>
<!DOCTYPE svg PUBLIC "-//W3C//DTD SVG 1.1//EN" "http://www.w3.org/Graphics/SVG/1.1/DTD/svg11.dtd">
<svg xmlns="http://www.w3.org/2000/svg" xmlns:xlink="http://www.w3.org/1999/xlink" version="1.1" width="176.257pt" height="178.329pt" viewBox="0 0 176.257 178.329">
<path transform="matrix(1,0,0,-1,-2.541,172.66899)" stroke-width="1" stroke-linecap="butt" stroke-miterlimit="10" stroke-linejoin="miter" fill="none" stroke="#808080" d="M 88.54478 1.36005 L 92.79655 1.36005 M 88.54478 24.02773 L 92.79655 24.02773 M 88.54478 69.36307 L 92.79655 69.36307 M 88.54478 92.03073 L 92.79655 92.03073 M 88.54478 114.69841 L 92.79655 114.69841 M 88.54478 137.36608 L 92.79655 137.36608 M 88.54478 160.03374 L 92.79655 160.03374 "/>
<path transform="matrix(1,0,0,-1,-2.541,172.66899)" stroke-width="1" stroke-linecap="butt" stroke-miterlimit="10" stroke-linejoin="miter" fill="none" stroke="#000000" d="M 90.67067 0 L 90.67067 159.40128 "/>
<path transform="matrix(0,-1,-1,-0,88.12967,13.267715)" d="M 1.99252 0 L -1.19551 1.59401 L 0 0 L -1.19551 -1.59401 "/>
<symbol id="font_0_1">
<path d="M .57600006 0 C .59300008 0 .611 0 .611 .019999996 C .611 .040000008 .59300008 .040000008 .57600006 .040000008 L .035000005 .040000008 C .018 .040000008 0 .040000008 0 .019999996 C 0 0 .018 0 .035000005 0 L .57600006 0 Z "/>
</symbol>
<use xlink:href="#font_0_1" transform="matrix(9.9626,0,0,-9.9626,65.524898,171.8136)"/>
<symbol id="font_1_2">
<path d="M .205 .64000007 C .205 .66400006 .205 .666 .18200003 .666 C .120000008 .60200008 .032000007 .60200008 0 .60200008 L 0 .57100006 C .020000004 .57100006 .07900001 .57100006 .13100001 .597 L .13100001 .079 C .13100001 .043 .128 .031000002 .038000004 .031000002 L .0060000049 .031000002 L .0060000049 0 C .04100001 .003 .128 .003 .168 .003 C .20800002 .003 .29500003 .003 .33000005 0 L .33000005 .031000002 L .29800005 .031000002 C .20800002 .031000002 .205 .042000005 .205 .079 L .205 .64000007 Z "/>
</symbol>
<symbol id="font_1_1">
<path d="M .421 .34200005 C .421 .42200003 .416 .50200006 .381 .57600006 C .335 .67200008 .25300003 .688 .211 .688 C .15100001 .688 .07800001 .66200008 .037000006 .56900009 C .0050000029 .5 0 .42200003 0 .34200005 C 0 .26700003 .0040000008 .177 .045000007 .101 C .088 .020000002 .161 0 .21000001 0 C .264 0 .34 .021000002 .384 .116000007 C .416 .185 .421 .263 .421 .34200005 M .21000001 .022000002 C .171 .022000002 .112 .047000003 .094 .143 C .083000008 .20300001 .083000008 .29500003 .083000008 .35400004 C .083000008 .41800005 .083000008 .48400004 .091000009 .53800007 C .11 .65700009 .185 .66600009 .21000001 .66600009 C .243 .66600009 .30900003 .64800009 .328 .549 C .338 .49300004 .338 .41700004 .338 .35400004 C .338 .279 .338 .21100001 .32700003 .147 C .312 .052 .255 .022000002 .21000001 .022000002 Z "/>
</symbol>
<use xlink:href="#font_1_2" transform="matrix(9.9626,0,0,-9.9626,73.33367,174.105)"/>
<use xlink:href="#font_1_1" transform="matrix(9.9626,0,0,-9.9626,77.81684,174.32418)"/>
<use xlink:href="#font_0_1" transform="matrix(9.9626,0,0,-9.9626,70.5059,149.1456)"/>
<symbol id="font_1_4">
<path d="M .39900003 .223 C .39900003 .34200005 .317 .44200004 .209 .44200004 C .16100002 .44200004 .118000019 .42600004 .082 .39100004 L .082 .586 C .10200001 .58000007 .135 .573 .16700001 .573 C .29 .573 .36 .66400006 .36 .67700007 C .36 .683 .357 .688 .35 .688 C .349 .688 .347 .688 .342 .68500009 C .322 .67600008 .273 .656 .20600002 .656 C .16600001 .656 .120000008 .66300007 .073 .6840001 C .065 .68700006 .06300001 .68700006 .061000009 .68700006 C .051000004 .68700006 .051000004 .679 .051000004 .66300007 L .051000004 .36700005 C .051000004 .34900005 .051000004 .34100003 .065 .34100003 C .07200001 .34100003 .074 .34400005 .07800001 .35000003 C .08900002 .36600004 .12600002 .42000006 .207 .42000006 C .259 .42000006 .284 .37400005 .292 .35600005 C .308 .31900005 .31 .28000004 .31 .23 C .31 .19500001 .31 .135 .286 .093 C .262 .054000006 .22500001 .028 .17900002 .028 C .106000009 .028 .049000008 .08100001 .032 .14000002 C .035 .13900002 .038000008 .13800001 .049000008 .13800001 C .082 .13800001 .09900001 .163 .09900001 .187 C .09900001 .21100001 .082 .23600002 .049000008 .23600002 C .035 .23600002 0 .22900002 0 .18300002 C 0 .097 .069000009 0 .18100001 0 C .297 0 .39900003 .096 .39900003 .223 Z "/>
</symbol>
<use xlink:href="#font_1_4" transform="matrix(9.9626,0,0,-9.9626,77.92613,151.65618)"/>
<use xlink:href="#font_1_4" transform="matrix(9.9626,0,0,-9.9626,77.92613,106.73616)"/>
<use xlink:href="#font_1_2" transform="matrix(9.9626,0,0,-9.9626,73.33267,83.84998)"/>
<use xlink:href="#font_1_1" transform="matrix(9.9626,0,0,-9.9626,77.81584,84.06916)"/>
<use xlink:href="#font_1_2" transform="matrix(9.9626,0,0,-9.9626,73.33267,61.18299)"/>
<use xlink:href="#font_1_4" transform="matrix(9.9626,0,0,-9.9626,77.92543,61.40217)"/>
<symbol id="font_1_3">
<path d="M .07700001 .07700001 L .18300002 .18 C .33900003 .31800003 .39900003 .372 .39900003 .47200004 C .39900003 .586 .30900003 .666 .18700002 .666 C .074 .666 0 .574 0 .485 C 0 .42900003 .05 .42900003 .053000008 .42900003 C .07000001 .42900003 .105000007 .441 .105000007 .48200003 C .105000007 .508 .08700001 .53400006 .052000006 .53400006 C .044000005 .53400006 .042000008 .53400006 .039 .53300008 C .062000004 .59800007 .11600001 .63500007 .17400001 .63500007 C .26500003 .63500007 .308 .554 .308 .47200004 C .308 .39200003 .25800003 .31300003 .20300003 .25100003 L .011000004 .037 C 0 .026 0 .024 0 0 L .37100003 0 L .39900003 .17400001 L .374 .17400001 C .36900003 .14400001 .36200003 .1 .352 .085 C .345 .07700001 .279 .07700001 .257 .07700001 L .07700001 .07700001 Z "/>
</symbol>
<use xlink:href="#font_1_3" transform="matrix(9.9626,0,0,-9.9626,72.94413,38.514986)"/>
<use xlink:href="#font_1_1" transform="matrix(9.9626,0,0,-9.9626,77.81584,38.73416)"/>
<use xlink:href="#font_1_3" transform="matrix(9.9626,0,0,-9.9626,72.94413,15.847992)"/>
<use xlink:href="#font_1_4" transform="matrix(9.9626,0,0,-9.9626,77.92543,16.06717)"/>
<symbol id="font_2_1">
<path d="M .14400001 .115 C .10400002 .048 .065 .034 .021000002 .031000002 C .009000003 .030000002 0 .030000002 0 .011000001 C 0 .0050000005 .0050000029 0 .013 0 C .040000004 0 .07100001 .003 .09900001 .003 C .13200002 .003 .16700001 0 .19900002 0 C .20500002 0 .21800003 0 .21800003 .019000002 C .21800003 .030000002 .20900002 .031000002 .20200002 .031000002 C .17900002 .033 .15500002 .041 .15500002 .066 C .15500002 .078 .16100002 .089 .16900002 .10300001 L .245 .231 L .49600003 .231 C .49800007 .21000001 .512 .074 .512 .064 C .512 .034 .46000005 .031000002 .44000004 .031000002 C .42600004 .031000002 .41600005 .031000002 .41600005 .011000001 C .41600005 0 .42800004 0 .43000005 0 C .47100006 0 .514 .003 .555 .003 C .58 .003 .643 0 .668 0 C .674 0 .686 0 .686 .020000002 C .686 .031000002 .676 .031000002 .663 .031000002 C .601 .031000002 .601 .038000004 .598 .067 L .537 .69200006 C .535 .712 .535 .716 .518 .716 C .502 .716 .49800007 .70900008 .492 .69900009 L .14400001 .115 M .26400004 .26200003 L .46100004 .592 L .493 .26200003 L .26400004 .26200003 Z "/>
</symbol>
<use xlink:href="#font_2_1" transform="matrix(9.9626,0,0,-9.9626,92.070697,156.579)"/>
<symbol id="font_2_2">
<path d="M .11800001 .078 C .108 .039 .106 .031000002 .027000003 .031000002 C .009999998 .031000002 0 .031000002 0 .011000001 C 0 0 .009 0 .027000003 0 L .38400004 0 C .54200008 0 .66 .11800001 .66 .216 C .66 .28800003 .60200008 .34600003 .50500008 .35700003 C .609 .37600003 .71400007 .45000003 .71400007 .545 C .71400007 .619 .64800009 .683 .52800008 .683 L .192 .683 C .17300001 .683 .16300002 .683 .16300002 .66300007 C .16300002 .652 .17200002 .652 .19100002 .652 C .19300002 .652 .21200001 .652 .22900003 .65000006 C .24700001 .648 .256 .647 .256 .634 C .256 .63000008 .25500003 .62700006 .252 .615 L .11800001 .078 M .26900003 .36600004 L .33100004 .614 C .34000004 .64900007 .342 .652 .38500003 .652 L .51400008 .652 C .60200008 .652 .623 .59300008 .623 .549 C .623 .46100004 .53700008 .36600004 .41500003 .36600004 L .26900003 .36600004 M .224 .031000002 C .21000001 .031000002 .208 .031000002 .20200002 .032 C .192 .033 .18900001 .034 .18900001 .042000005 C .18900001 .045 .18900001 .047000003 .194 .065000008 L .263 .344 L .45200003 .344 C .54800006 .344 .56700006 .27 .56700006 .22700002 C .56700006 .128 .47800005 .031000002 .36 .031000002 L .224 .031000002 Z "/>
</symbol>
<use xlink:href="#font_2_2" transform="matrix(9.9626,0,0,-9.9626,92.14043,129.379)"/>
<use xlink:href="#font_1_1" transform="matrix(9.9626,0,0,-9.9626,79.94254,129.40418)"/>
<symbol id="font_2_4">
<path d="M .119 .078 C .109 .039 .10699999 .031000002 .028 .031000002 C .011 .031000002 0 .031000002 0 .012 C 0 0 .009 0 .028 0 L .35900004 0 C .56700006 0 .764 .21100001 .764 .43 C .764 .57100006 .679 .683 .529 .683 L .193 .683 C .17400001 .683 .163 .683 .163 .66400006 C .163 .652 .172 .652 .192 .652 C .205 .652 .223 .651 .235 .65000006 C .25100003 .648 .25700004 .64500007 .25700004 .634 C .25700004 .63000008 .256 .62700006 .25300003 .615 L .119 .078 M .33500005 .614 C .344 .64900007 .34600003 .652 .38900004 .652 L .49600003 .652 C .594 .652 .677 .59900006 .677 .467 C .677 .418 .657 .254 .572 .14400001 C .543 .10700001 .46400003 .031000002 .34100003 .031000002 L .228 .031000002 C .214 .031000002 .212 .031000002 .206 .032 C .19600001 .033 .193 .034 .193 .042000005 C .193 .045 .193 .047000003 .198 .065000008 L .33500005 .614 Z "/>
</symbol>
<use xlink:href="#font_2_4" transform="matrix(9.9626,0,0,-9.9626,92.12051,20.574997)"/>
<symbol id="font_2_3">
<path d="M .71000006 .71700009 C .71000006 .72 .708 .72700008 .699 .72700008 C .69600006 .72700008 .69500008 .7260001 .684 .71500006 L .614 .6380001 C .605 .65200009 .559 .72700008 .448 .72700008 C .22500001 .72700008 0 .50600007 0 .27400003 C 0 .109000008 .118000019 0 .271 0 C .358 0 .43400003 .040000004 .487 .086 C .58000007 .16800002 .597 .25900004 .597 .26200003 C .597 .272 .587 .272 .58500006 .272 C .579 .272 .574 .27 .572 .26200003 C .563 .23300001 .54 .162 .47100003 .104 C .402 .048 .33900003 .031000004 .287 .031000004 C .19700001 .031000004 .091000009 .083000008 .091000009 .23900001 C .091000009 .29600004 .112 .45800004 .21200003 .57500007 C .273 .646 .367 .69600006 .45600004 .69600006 C .558 .69600006 .61700007 .619 .61700007 .503 C .61700007 .46300004 .614 .46200005 .614 .45200003 C .614 .44200004 .625 .44200004 .629 .44200004 C .642 .44200004 .642 .44400005 .647 .46200005 L .71000006 .71700009 Z "/>
</symbol>
<use xlink:href="#font_2_3" transform="matrix(9.9626,0,0,-9.9626,92.22013,57.062173)"/>
<path transform="matrix(1,0,0,-1,-2.541,172.66899)" d="M 92.66322 19.49419 C 92.66322 20.59467 91.77115 21.48674 90.67067 21.48674 C 89.5702 21.48674 88.67812 20.59467 88.67812 19.49419 C 88.67812 18.39372 89.5702 17.50163 90.67067 17.50163 C 91.77115 17.50163 92.66322 18.39372 92.66322 19.49419 Z M 90.67067 19.49419 " fill="#000080"/>
<path transform="matrix(1,0,0,-1,-2.541,172.66899)" stroke-width="1.19553" stroke-linecap="butt" stroke-miterlimit="10" stroke-linejoin="miter" fill="none" stroke="#000080" d="M 92.66322 19.49419 C 92.66322 20.59467 91.77115 21.48674 90.67067 21.48674 C 89.5702 21.48674 88.67812 20.59467 88.67812 19.49419 C 88.67812 18.39372 89.5702 17.50163 90.67067 17.50163 C 91.77115 17.50163 92.66322 18.39372 92.66322 19.49419 Z M 90.67067 19.49419 "/>
<path transform="matrix(1,0,0,-1,-2.541,172.66899)" d="M 92.66322 46.69539 C 92.66322 47.79587 91.77115 48.68794 90.67067 48.68794 C 89.5702 48.68794 88.67812 47.79587 88.67812 46.69539 C 88.67812 45.59492 89.5702 44.70284 90.67067 44.70284 C 91.77115 44.70284 92.66322 45.59492 92.66322 46.69539 Z M 90.67067 46.69539 " fill="#000080"/>
<path transform="matrix(1,0,0,-1,-2.541,172.66899)" stroke-width="1.19553" stroke-linecap="butt" stroke-miterlimit="10" stroke-linejoin="miter" fill="none" stroke="#000080" d="M 92.66322 46.69539 C 92.66322 47.79587 91.77115 48.68794 90.67067 48.68794 C 89.5702 48.68794 88.67812 47.79587 88.67812 46.69539 C 88.67812 45.59492 89.5702 44.70284 90.67067 44.70284 C 91.77115 44.70284 92.66322 45.59492 92.66322 46.69539 Z M 90.67067 46.69539 "/>
<path transform="matrix(1,0,0,-1,-2.541,172.66899)" d="M 92.66322 155.50022 C 92.66322 156.60068 91.77115 157.49277 90.67067 157.49277 C 89.5702 157.49277 88.67812 156.60068 88.67812 155.50022 C 88.67812 154.39974 89.5702 153.50766 90.67067 153.50766 C 91.77115 153.50766 92.66322 154.39974 92.66322 155.50022 Z M 90.67067 155.50022 " fill="#000080"/>
<path transform="matrix(1,0,0,-1,-2.541,172.66899)" stroke-width="1.19553" stroke-linecap="butt" stroke-miterlimit="10" stroke-linejoin="miter" fill="none" stroke="#000080" d="M 92.66322 155.50022 C 92.66322 156.60068 91.77115 157.49277 90.67067 157.49277 C 89.5702 157.49277 88.67812 156.60068 88.67812 155.50022 C 88.67812 154.39974 89.5702 153.50766 90.67067 153.50766 C 91.77115 153.50766 92.66322 154.39974 92.66322 155.50022 Z M 90.67067 155.50022 "/>
<path transform="matrix(1,0,0,-1,-2.541,172.66899)" d="M 92.66322 119.23193 C 92.66322 120.33241 91.77115 121.22449 90.67067 121.22449 C 89.5702 121.22449 88.67812 120.33241 88.67812 119.23193 C 88.67812 118.13147 89.5702 117.23938 90.67067 117.23938 C 91.77115 117.23938 92.66322 118.13147 92.66322 119.23193 Z M 90.67067 119.23193 " fill="#000080"/>
<path transform="matrix(1,0,0,-1,-2.541,172.66899)" stroke-width="1.19553" stroke-linecap="butt" stroke-miterlimit="10" stroke-linejoin="miter" fill="none" stroke="#000080" d="M 92.66322 119.23193 C 92.66322 120.33241 91.77115 121.22449 90.67067 121.22449 C 89.5702 121.22449 88.67812 120.33241 88.67812 119.23193 C 88.67812 118.13147 89.5702 117.23938 90.67067 117.23938 C 91.77115 117.23938 92.66322 118.13147 92.66322 119.23193 Z M 90.67067 119.23193 "/>
<path transform="matrix(1,0,0,-1,-2.541,172.66899)" d="M 178.80037 46.69539 C 178.80037 47.79587 177.9083 48.68794 176.80782 48.68794 C 175.70735 48.68794 174.81526 47.79587 174.81526 46.69539 C 174.81526 45.59492 175.70735 44.70284 176.80782 44.70284 C 177.9083 44.70284 178.80037 45.59492 178.80037 46.69539 Z M 176.80782 46.69539 " fill="#ffffff"/>
<path transform="matrix(1,0,0,-1,-2.541,172.66899)" stroke-width="1.19553" stroke-linecap="butt" stroke-miterlimit="10" stroke-linejoin="miter" fill="none" stroke="#ffffff" d="M 178.80037 46.69539 C 178.80037 47.79587 177.9083 48.68794 176.80782 48.68794 C 175.70735 48.68794 174.81526 47.79587 174.81526 46.69539 C 174.81526 45.59492 175.70735 44.70284 176.80782 44.70284 C 177.9083 44.70284 178.80037 45.59492 178.80037 46.69539 Z M 176.80782 46.69539 "/>
<path transform="matrix(1,0,0,-1,-2.541,172.66899)" d="M 6.52608 46.69539 C 6.52608 47.79587 5.634 48.68794 4.53352 48.68794 C 3.43306 48.68794 2.54097 47.79587 2.54097 46.69539 C 2.54097 45.59492 3.43306 44.70284 4.53352 44.70284 C 5.634 44.70284 6.52608 45.59492 6.52608 46.69539 Z M 4.53352 46.69539 " fill="#ffffff"/>
<path transform="matrix(1,0,0,-1,-2.541,172.66899)" stroke-width="1.19553" stroke-linecap="butt" stroke-miterlimit="10" stroke-linejoin="miter" fill="none" stroke="#ffffff" d="M 6.52608 46.69539 C 6.52608 47.79587 5.634 48.68794 4.53352 48.68794 C 3.43306 48.68794 2.54097 47.79587 2.54097 46.69539 C 2.54097 45.59492 3.43306 44.70284 4.53352 44.70284 C 5.634 44.70284 6.52608 45.59492 6.52608 46.69539 Z M 4.53352 46.69539 "/>
<symbol id="font_2_5">
<path d="M .33900006 .38500003 C .311 .38400004 .291 .36200003 .291 .34000004 C .291 .32600004 .3 .31100003 .32200004 .31100003 C .34400005 .31100003 .36800004 .328 .36800004 .367 C .36800004 .41200004 .325 .45300005 .24900003 .45300005 C .11700001 .45300005 .08 .351 .08 .307 C .08 .22900002 .15400002 .21400002 .18300002 .20800002 C .235 .19800002 .287 .18700002 .287 .13200002 C .287 .106000009 .264 .022000002 .14400001 .022000002 C .13000001 .022000002 .053000004 .022000002 .030000002 .075 C .068 .07000001 .09300001 .1 .09300001 .128 C .09300001 .15100001 .07700001 .16300002 .056 .16300002 C .030000002 .16300002 0 .14200002 0 .097 C 0 .040000004 .057000005 0 .143 0 C .305 0 .34400005 .12100001 .34400005 .16600001 C .34400005 .20200002 .325 .22700002 .31300003 .23900002 C .286 .26700003 .25700004 .272 .21300002 .28100003 C .17700002 .28900004 .13700001 .29600004 .13700001 .34100003 C .13700001 .37000004 .16100002 .43100003 .24900003 .43100003 C .274 .43100003 .324 .42400003 .33900006 .38500003 Z "/>
</symbol>
<use xlink:href="#font_2_5" transform="matrix(9.9626,0,0,-9.9626,86.31206,7.793579)"/>
</svg>
