<?xml version="1.0" encoding="UTF-8" standalone="no"?>
<!DOCTYPE svg PUBLIC "-//W3C//DTD SVG 1.1//EN" "http://www.w3.org/Graphics/SVG/1.1/DTD/svg11.dtd">
<svg xmlns="http://www.w3.org/2000/svg" xmlns:xlink="http://www.w3.org/1999/xlink" version="1.1" width="250.03pt" height="187.716pt" viewBox="0 0 250.03 187.716">
<path transform="matrix(1,0,0,-1,27.931,174.46)" stroke-width="1" stroke-linecap="butt" stroke-dasharray="2.98883,2.98883" stroke-miterlimit="10" stroke-linejoin="miter" fill="none" stroke="#000000" d="M 97.13759 0 L 97.13759 64.55823 "/>
<path transform="matrix(1,0,0,-1,27.931,174.46)" stroke-width="1" stroke-linecap="butt" stroke-dasharray="2.98883,2.98883" stroke-miterlimit="10" stroke-linejoin="miter" fill="none" stroke="#000000" d="M 0 64.55823 L 97.13759 64.55823 "/>
<path transform="matrix(1,0,0,-1,27.931,174.46)" stroke-width="1" stroke-linecap="butt" stroke-dasharray="2.98883,2.98883" stroke-miterlimit="10" stroke-linejoin="miter" fill="none" stroke="#000000" d="M 0 96.83736 L 145.70639 96.83736 "/>
<path transform="matrix(1,0,0,-1,27.931,174.46)" stroke-width="1" stroke-linecap="butt" stroke-dasharray="2.98883,2.98883" stroke-miterlimit="10" stroke-linejoin="miter" fill="none" stroke="#000000" d="M 97.13759 64.55823 L 145.70639 64.55823 "/>
<path transform="matrix(1,0,0,-1,27.931,174.46)" stroke-width="1" stroke-linecap="butt" stroke-dasharray="2.98883,2.98883" stroke-miterlimit="10" stroke-linejoin="miter" fill="none" stroke="#000000" d="M 145.70639 0 L 145.70639 96.83736 "/>
<path transform="matrix(1,0,0,-1,27.931,174.46)" stroke-width="1.59404" stroke-linecap="butt" stroke-miterlimit="10" stroke-linejoin="miter" fill="none" stroke="#000080" d="M 0 32.27911 C 0 32.27911 4.67877 33.07233 6.47577 33.39209 C 8.27275 33.71187 11.15456 34.24062 12.95155 34.58385 C 14.74854 34.92706 17.63033 35.49693 19.42732 35.86597 C 21.2243 36.23499 24.1061 36.84558 25.90309 37.24364 C 27.70007 37.64171 30.58186 38.30428 32.37886 38.73494 C 34.17584 39.16559 37.05765 39.8802 38.85464 40.3476 C 40.65163 40.81497 43.53342 41.59454 45.33041 42.10358 C 47.1274 42.61261 50.00919 43.4602 51.80618 44.01643 C 53.60316 44.57268 56.48497 45.50203 58.28197 46.11264 C 60.07895 46.72325 62.96075 47.74388 64.75775 48.41739 C 66.55473 49.09088 69.43652 50.22038 71.23352 50.96678 C 73.0305 51.71318 75.91231 52.96515 77.7093 53.79701 C 79.50629 54.62888 82.38808 56.02922 84.18507 56.96231 C 85.98206 57.89539 88.86385 59.4684 90.66084 60.52205 C 92.45782 61.5757 95.33961 63.35583 97.13661 64.55629 C 98.9336 65.75674 101.8154 67.79535 103.6124 69.17413 C 105.40938 70.55292 108.29117 72.89487 110.08817 74.49374 C 111.88515 76.09264 114.76694 78.82034 116.56393 80.6978 C 118.36093 82.57524 121.24272 85.78583 123.03972 88.02515 C 124.83672 90.26448 127.71849 94.12239 129.51549 96.83736 C 131.31249 99.55232 134.19426 104.23375 135.99126 107.59276 C 137.78826 110.95175 140.67003 116.7812 142.46703 121.04669 C 144.26403 125.31216 147.1458 132.73885 148.9428 138.33539 C 150.73979 143.93192 155.41857 161.38268 155.41857 161.38268 "/>
<path transform="matrix(1,0,0,-1,27.931,174.46)" stroke-width="1.19553" stroke-linecap="butt" stroke-miterlimit="10" stroke-linejoin="miter" fill="none" stroke="#800000" d="M 0 0 C 0 0 5.8485 3.88695 8.09476 5.37982 C 10.34102 6.8727 13.94327 9.26677 16.18951 10.75964 C 18.43578 12.25253 22.03802 14.64659 24.28429 16.13948 C 26.53055 17.63235 30.13281 20.02644 32.37906 21.51932 C 34.62532 23.0122 38.22757 25.40627 40.47383 26.89915 C 42.7201 28.39203 46.32234 30.7861 48.56859 32.27898 C 50.81485 33.77185 54.4171 36.16592 56.66336 37.6588 C 58.90962 39.15169 62.51187 41.54575 64.75812 43.03864 C 67.00438 44.53151 70.60663 46.9256 72.85289 48.41847 C 75.09915 49.91136 78.7014 52.30542 80.94765 53.79831 C 83.19391 55.29118 86.79616 57.68526 89.04242 59.17813 C 91.28868 60.671 94.89093 63.06508 97.13718 64.55795 C 99.38344 66.05084 102.98569 68.44492 105.23195 69.93779 C 107.47821 71.43066 111.08046 73.82474 113.3267 75.31761 C 115.57297 76.8105 119.17522 79.20456 121.42148 80.69745 C 123.66774 82.19032 127.26999 84.58441 129.51624 86.07729 C 131.7625 87.57018 135.36475 89.96423 137.61101 91.45712 C 139.85727 92.95 143.45954 95.34407 145.70578 96.83694 C 147.95204 98.32982 151.55429 100.72389 153.80055 102.21677 C 156.04682 103.70966 159.64907 106.10371 161.89531 107.5966 C 164.14157 109.08948 167.74382 111.48355 169.99008 112.97643 C 172.23635 114.46931 175.8386 116.86339 178.08484 118.35628 C 180.3311 119.84915 183.93335 122.24323 186.17961 123.7361 C 188.42588 125.22897 194.27437 129.11592 194.27437 129.11592 "/>
<path transform="matrix(1,0,0,-1,27.931,174.46)" stroke-width="1" stroke-linecap="butt" stroke-miterlimit="10" stroke-linejoin="miter" fill="none" stroke="#000000" d="M 101.99448 61.72339 C 102.36806 60.97618 103.23982 60.47804 104.48517 60.47804 L 118.9313 60.47804 C 120.17665 60.47804 121.0484 59.97992 121.422 59.2327 C 121.79558 59.97992 122.66734 60.47804 123.91269 60.47804 L 138.35883 60.47804 C 139.60417 60.47804 140.47592 60.97618 140.84952 61.72339 "/>
<symbol id="font_0_1">
<path d="M .23200003 .00999999 C .23200003 .012999982 .23200003 .014999986 .215 .03199999 C .09 .15799999 .058 .347 .058 .5 C .058 .674 .096 .84800007 .21900001 .97300007 C .23200003 .985 .23200003 .98700007 .23200003 .99 C .23200003 .99700006 .22800002 1 .222 1 C .21200001 1 .12200001 .93200007 .06299999 .805 C .012000002 .69500008 0 .584 0 .5 C 0 .422 .011 .301 .066 .188 C .126 .065 .21200001 0 .222 0 C .22800002 0 .23200003 .0029999912 .23200003 .00999999 Z "/>
</symbol>
<use xlink:href="#font_0_1" transform="matrix(9.9626,0,0,-9.9626,134.8953,129.84066)"/>
<symbol id="font_1_4">
<path d="M .305 .31300003 C .311 .33900003 .334 .43100003 .404 .43100003 C .409 .43100003 .433 .43100003 .454 .418 C .426 .41300003 .40600003 .388 .40600003 .36400003 C .40600003 .34800003 .417 .32900004 .444 .32900004 C .46600003 .32900004 .498 .34700004 .498 .38700003 C .498 .43900005 .439 .45300005 .405 .45300005 C .347 .45300005 .312 .40000005 .3 .37700004 C .275 .44300003 .221 .45300005 .19200002 .45300005 C .08800001 .45300005 .031000002 .32400004 .031000002 .29900003 C .031000002 .28900004 .041 .28900004 .043000007 .28900004 C .051000008 .28900004 .054000006 .291 .056 .3 C .09 .40600003 .156 .43100003 .19000001 .43100003 C .209 .43100003 .244 .42200003 .244 .36400003 C .244 .33300004 .22700002 .26600004 .19000001 .126 C .17400001 .064 .13900002 .022000002 .095000009 .022000002 C .08900001 .022000002 .06600001 .022000002 .045 .035 C .07000001 .040000004 .09200001 .061 .09200001 .089 C .09200001 .116000007 .07000001 .124000009 .055000009 .124000009 C .025 .124000009 0 .098000008 0 .06600001 C 0 .020000002 .050000006 0 .094000007 0 C .16000001 0 .19600001 .07000001 .19900002 .076000008 C .21100001 .039 .24700003 0 .307 0 C .41 0 .467 .12900001 .467 .15400002 C .467 .16400002 .458 .16400002 .455 .16400002 C .446 .16400002 .444 .16000001 .442 .15300001 C .409 .046 .341 .022000002 .30900003 .022000002 C .27 .022000002 .254 .054 .254 .08800001 C .254 .11000001 .26 .13200002 .271 .17600002 L .305 .31300003 Z "/>
</symbol>
<use xlink:href="#font_1_4" transform="matrix(9.9626,0,0,-9.9626,138.0719,127.459598)"/>
<symbol id="font_2_1">
<path d="M .57600006 0 C .59300008 0 .611 0 .611 .019999996 C .611 .040000008 .59300008 .040000008 .57600006 .040000008 L .035000005 .040000008 C .018 .040000008 0 .040000008 0 .019999996 C 0 0 .018 0 .035000005 0 L .57600006 0 Z "/>
</symbol>
<use xlink:href="#font_2_1" transform="matrix(9.9626,0,0,-9.9626,146.51789,125.05861)"/>
<symbol id="font_1_2">
<path d="M .33300004 .38900004 C .31500004 .42600004 .286 .45300005 .24100001 .45300005 C .124 .45300005 0 .30600003 0 .16000001 C 0 .06600001 .055000005 0 .133 0 C .153 0 .20300001 .0040000008 .263 .075 C .27100004 .033000005 .30600003 0 .35400004 0 C .38900004 0 .41200004 .023000002 .42800004 .055000005 C .44500003 .091000009 .45800004 .15200001 .45800004 .15400002 C .45800004 .16400002 .44900004 .16400002 .44600005 .16400002 C .43600003 .16400002 .43500004 .16000001 .43200005 .14600002 C .41500003 .081 .397 .022000002 .35600005 .022000002 C .32900004 .022000002 .32600004 .048 .32600004 .068 C .32600004 .09 .32800005 .098000008 .33900003 .14200002 C .35000003 .18400002 .35200004 .19400002 .36100004 .23200003 L .397 .37200005 C .40400005 .40000005 .40400005 .40200005 .40400005 .40600003 C .40400005 .42300005 .39200003 .43300004 .37500004 .43300004 C .35100005 .43300004 .33600004 .411 .33300004 .38900004 M .26800005 .13000001 C .263 .112 .263 .11000001 .24800001 .093 C .20400001 .038000004 .163 .022000002 .135 .022000002 C .08499999 .022000002 .07100001 .077 .07100001 .116000007 C .07100001 .16600001 .103 .28900004 .126 .335 C .157 .39400003 .202 .43100003 .242 .43100003 C .307 .43100003 .32100005 .34900005 .32100005 .34300003 C .32100005 .337 .31900005 .33100004 .31800003 .32600004 L .26800005 .13000001 Z "/>
</symbol>
<use xlink:href="#font_1_2" transform="matrix(9.9626,0,0,-9.9626,156.05249,127.459598)"/>
<symbol id="font_0_2">
<path d="M .232 .5 C .232 .578 .22100002 .699 .16600001 .81200006 C .106 .93500009 .020000004 1 .009999998 1 C .0040000008 1 0 .99600008 0 .99 C 0 .98700007 0 .985 .019000002 .967 C .117000009 .86800006 .174 .709 .174 .5 C .174 .329 .137 .153 .012999997 .026999996 C 0 .014999986 0 .012999982 0 .00999999 C 0 .003999993 .0040000008 0 .009999998 0 C .020000004 0 .11000001 .06799999 .169 .195 C .22 .305 .232 .416 .232 .5 Z "/>
</symbol>
<use xlink:href="#font_0_2" transform="matrix(9.9626,0,0,-9.9626,161.48787,129.84066)"/>
<path transform="matrix(1,0,0,-1,27.931,174.46)" stroke-width="1" stroke-linecap="butt" stroke-miterlimit="10" stroke-linejoin="miter" fill="none" stroke="#000000" d="M 151.37567 64.55823 C 152.12288 64.93182 152.62102 65.80357 152.62102 67.04892 L 152.62102 78.2071 C 152.62102 79.45245 153.11914 80.3242 153.86637 80.6978 C 153.11914 81.07138 152.62102 81.94315 152.62102 83.18849 L 152.62102 94.34666 C 152.62102 95.59201 152.12288 96.46376 151.37567 96.83736 "/>
<symbol id="font_1_3">
<path d="M .314 .605 L .4 .605 C .42000003 .605 .43 .605 .43 .625 C .43 .63600006 .42000003 .63600006 .40300004 .63600006 L .32000003 .63600006 L .34100003 .75 C .34500004 .771 .35900004 .842 .365 .8540001 C .374 .873 .39100004 .888 .41200004 .888 C .416 .888 .44200004 .888 .461 .87 C .41700004 .86600008 .407 .8310001 .407 .816 C .407 .793 .425 .781 .444 .781 C .47 .781 .49900005 .8030001 .49900005 .8410001 C .49900005 .8870001 .45300005 .9100001 .41200004 .9100001 C .37800003 .9100001 .31500004 .8920001 .28500004 .793 C .279 .7720001 .27600003 .7620001 .252 .63600006 L .18300002 .63600006 C .164 .63600006 .15300001 .63600006 .15300001 .61700007 C .15300001 .605 .162 .605 .18100001 .605 L .24700001 .605 L .172 .21000001 C .15400002 .113000009 .13700001 .022 .08500001 .022 C .081 .022 .056 .022 .037 .040000008 C .083000008 .043000014 .09200001 .07900001 .09200001 .094000007 C .09200001 .117000009 .074 .12900001 .055 .12900001 C .029 .12900001 0 .10700001 0 .069000009 C 0 .024000004 .044 0 .08500001 0 C .14 0 .18 .059 .19800002 .09700001 C .23000002 .16000001 .25300003 .28100003 .254 .28800003 L .314 .605 Z "/>
</symbol>
<use xlink:href="#font_1_3" transform="matrix(9.9626,0,0,-9.9626,187.39702,98.55434)"/>
<symbol id="font_3_1">
<path d="M .24200002 .43100003 C .25 .448 .25100003 .456 .25100003 .463 C .25100003 .49400003 .22300002 .518 .192 .518 C .15400002 .518 .14200002 .487 .137 .47100003 L .0050000029 .038000004 C .0040000008 .036000007 0 .023000002 0 .022 C 0 .010000002 .031000004 0 .039000006 0 C .046000005 0 .047000007 .0020000004 .054000006 .017 L .24200002 .43100003 Z "/>
</symbol>
<use xlink:href="#font_3_1" transform="matrix(6.9738,0,0,-6.9738,193.15375,92.113079)"/>
<use xlink:href="#font_0_1" transform="matrix(9.9626,0,0,-9.9626,196.6003,99.00265)"/>
<use xlink:href="#font_1_2" transform="matrix(9.9626,0,0,-9.9626,199.88649,96.62159)"/>
<use xlink:href="#font_0_2" transform="matrix(9.9626,0,0,-9.9626,205.32187,99.00265)"/>
<symbol id="font_2_2">
<path d="M .106 .05299999 C .106 .082 .08200001 .10599999 .05300001 .10599999 C .024000004 .10599999 0 .082 0 .05299999 C 0 .024000004 .024000004 0 .05300001 0 C .08200001 0 .106 .024000004 .106 .05299999 Z "/>
</symbol>
<use xlink:href="#font_2_2" transform="matrix(9.9626,0,0,-9.9626,211.69979,94.54937)"/>
<use xlink:href="#font_0_1" transform="matrix(9.9626,0,0,-9.9626,216.8103,99.00265)"/>
<use xlink:href="#font_1_4" transform="matrix(9.9626,0,0,-9.9626,219.98691,96.62159)"/>
<use xlink:href="#font_2_1" transform="matrix(9.9626,0,0,-9.9626,228.43289,94.220607)"/>
<use xlink:href="#font_1_2" transform="matrix(9.9626,0,0,-9.9626,237.9675,96.62159)"/>
<use xlink:href="#font_0_2" transform="matrix(9.9626,0,0,-9.9626,243.40288,99.00265)"/>
<path transform="matrix(1,0,0,-1,27.931,174.46)" stroke-width="1" stroke-linecap="butt" stroke-miterlimit="10" stroke-linejoin="miter" fill="none" stroke="#000000" d="M 151.37567 6.45581 C 152.12288 6.8294 152.62102 7.70116 152.62102 8.9465 L 152.62102 29.78842 C 152.62102 31.03377 153.11914 31.90552 153.86637 32.27911 C 153.11914 32.6527 152.62102 33.52446 152.62102 34.7698 L 152.62102 55.61172 C 152.62102 56.85707 152.12288 57.72882 151.37567 58.10242 "/>
<use xlink:href="#font_1_3" transform="matrix(9.9626,0,0,-9.9626,187.39702,146.71433)"/>
<use xlink:href="#font_0_1" transform="matrix(9.9626,0,0,-9.9626,193.8053,147.16265)"/>
<use xlink:href="#font_1_2" transform="matrix(9.9626,0,0,-9.9626,197.09149,144.78159)"/>
<use xlink:href="#font_0_2" transform="matrix(9.9626,0,0,-9.9626,202.52687,147.16265)"/>
<path transform="matrix(1,0,0,-1,27.931,174.46)" stroke-width="1" stroke-linecap="butt" stroke-miterlimit="10" stroke-linejoin="miter" fill="none" stroke="#808080" d="M 97.13759 -2.12604 L 97.13759 2.12604 M 145.70639 -2.12604 L 145.70639 2.12604 "/>
<path transform="matrix(1,0,0,-1,27.931,174.46)" stroke-width="1" stroke-linecap="butt" stroke-miterlimit="10" stroke-linejoin="miter" fill="none" stroke="#808080" d="M -2.12584 64.55823 L 2.12584 64.55823 M -2.12584 96.83736 L 2.12584 96.83736 "/>
<path transform="matrix(1,0,0,-1,27.931,174.46)" stroke-width="1" stroke-linecap="butt" stroke-miterlimit="10" stroke-linejoin="miter" fill="none" stroke="#000000" d="M 0 0 L 192.28185 0 "/>
<path transform="matrix(1,0,0,-1,220.21285,174.46)" d="M 1.99252 0 L -1.19551 1.59401 L 0 0 L -1.19551 -1.59401 "/>
<path transform="matrix(1,0,0,-1,27.931,174.46)" stroke-width="1" stroke-linecap="butt" stroke-miterlimit="10" stroke-linejoin="miter" fill="none" stroke="#000000" d="M 0 0 L 0 159.40308 "/>
<path transform="matrix(0,-1,-1,-0,27.931,15.056931)" d="M 1.99252 0 L -1.19551 1.59401 L 0 0 L -1.19551 -1.59401 "/>
<use xlink:href="#font_1_2" transform="matrix(9.9626,0,0,-9.9626,122.832508,184.5046)"/>
<use xlink:href="#font_1_4" transform="matrix(9.9626,0,0,-9.9626,171.07791,184.5046)"/>
<use xlink:href="#font_1_3" transform="matrix(9.9626,0,0,-9.9626,3.849017,114.43534)"/>
<use xlink:href="#font_0_1" transform="matrix(9.9626,0,0,-9.9626,10.257297,114.88365)"/>
<use xlink:href="#font_1_2" transform="matrix(9.9626,0,0,-9.9626,13.543504,112.502597)"/>
<use xlink:href="#font_0_2" transform="matrix(9.9626,0,0,-9.9626,18.978867,114.88365)"/>
<symbol id="font_1_1">
<path d="M .005 .11100001 C .0029999996 .108 0 .105000007 0 .101 C 0 .09600001 .006 .08800001 .012000001 .08800001 C .017 .08800001 .02 .091000009 .048000006 .11900001 C .056 .126 .076000008 .145 .08400001 .153 C .094000007 .074 .123 0 .19600001 0 C .236 0 .271 .023000002 .292 .038000004 C .306 .048 .35300002 .087000008 .35300002 .097 C .35300002 .10000001 .35000003 .109000008 .34100003 .109000008 C .338 .109000008 .337 .108 .328 .10000001 C .264 .037 .227 .022 .198 .022 C .153 .022 .137 .074 .137 .152 C .137 .158 .139 .204 .142 .209 C .144 .212 .144 .214 .164 .23400001 C .245 .315 .38700003 .48400004 .38700003 .63900008 C .38700003 .6560001 .38700003 .71700009 .328 .71700009 C .245 .71700009 .171 .55200007 .161 .52900007 C .113000009 .42000003 .082 .303 .082 .184 L .005 .11100001 M .147 .25100003 C .149 .262 .192 .48400004 .24900002 .6010001 C .276 .65500006 .29700003 .69500008 .329 .69500008 C .363 .69500008 .363 .65900006 .363 .64300009 C .363 .476 .19500001 .301 .147 .25100003 Z "/>
</symbol>
<use xlink:href="#font_1_1" transform="matrix(9.9626,0,0,-9.9626,4.801588,80.23456)"/>
<use xlink:href="#font_0_1" transform="matrix(9.9626,0,0,-9.9626,9.829298,82.60565)"/>
<use xlink:href="#font_1_4" transform="matrix(9.9626,0,0,-9.9626,13.005917,80.224597)"/>
<use xlink:href="#font_0_2" transform="matrix(9.9626,0,0,-9.9626,18.97887,82.60565)"/>
<path transform="matrix(1,0,0,-1,27.931,174.46)" d="M 99.13014 64.55823 C 99.13014 65.6587 98.23807 66.55078 97.13759 66.55078 C 96.03712 66.55078 95.14503 65.6587 95.14503 64.55823 C 95.14503 63.45776 96.03712 62.56567 97.13759 62.56567 C 98.23807 62.56567 99.13014 63.45776 99.13014 64.55823 Z M 97.13759 64.55823 " fill="#000080"/>
<path transform="matrix(1,0,0,-1,27.931,174.46)" stroke-width="1" stroke-linecap="butt" stroke-miterlimit="10" stroke-linejoin="miter" fill="none" stroke="#000080" d="M 99.13014 64.55823 C 99.13014 65.6587 98.23807 66.55078 97.13759 66.55078 C 96.03712 66.55078 95.14503 65.6587 95.14503 64.55823 C 95.14503 63.45776 96.03712 62.56567 97.13759 62.56567 C 98.23807 62.56567 99.13014 63.45776 99.13014 64.55823 Z M 97.13759 64.55823 "/>
<path transform="matrix(1,0,0,-1,27.931,174.46)" d="M 147.69895 96.83736 C 147.69895 97.93782 146.80687 98.82991 145.70639 98.82991 C 144.60593 98.82991 143.71384 97.93782 143.71384 96.83736 C 143.71384 95.73688 144.60593 94.8448 145.70639 94.8448 C 146.80687 94.8448 147.69895 95.73688 147.69895 96.83736 Z M 145.70639 96.83736 " fill="#800000"/>
<path transform="matrix(1,0,0,-1,27.931,174.46)" stroke-width="1" stroke-linecap="butt" stroke-miterlimit="10" stroke-linejoin="miter" fill="none" stroke="#800000" d="M 147.69895 96.83736 C 147.69895 97.93782 146.80687 98.82991 145.70639 98.82991 C 144.60593 98.82991 143.71384 97.93782 143.71384 96.83736 C 143.71384 95.73688 144.60593 94.8448 145.70639 94.8448 C 146.80687 94.8448 147.69895 95.73688 147.69895 96.83736 Z M 145.70639 96.83736 "/>
<use xlink:href="#font_1_4" transform="matrix(9.9626,0,0,-9.9626,226.0489,176.7146)"/>
<symbol id="font_1_5">
<path d="M .45700003 .586 C .461 .6 .461 .602 .461 .609 C .461 .62700006 .447 .63600006 .432 .63600006 C .42200003 .63600006 .40600003 .63 .397 .615 C .395 .61 .387 .579 .38300003 .561 C .37600003 .535 .36900003 .508 .363 .48100005 L .318 .301 C .314 .286 .271 .21600002 .20500002 .21600002 C .15400002 .21600002 .143 .26000003 .143 .29700003 C .143 .34300003 .16000001 .40500004 .194 .49300004 C .21000001 .53400006 .21400002 .545 .21400002 .56500008 C .21400002 .61 .18200001 .6470001 .13200002 .6470001 C .037 .6470001 0 .50200006 0 .49300004 C 0 .48300005 .01 .48300005 .012 .48300005 C .022000002 .48300005 .023 .485 .028000003 .50100007 C .055000009 .595 .095000009 .625 .12900001 .625 C .13700001 .625 .15400002 .625 .15400002 .59300008 C .15400002 .568 .14400001 .54200008 .13700001 .523 C .097 .41700004 .079 .36 .079 .31300003 C .079 .224 .142 .194 .201 .194 C .24000003 .194 .274 .21100001 .30200003 .23900002 C .289 .187 .277 .13800001 .237 .08500001 C .21100001 .051 .17300001 .022 .127 .022 C .113000009 .022 .068 .025000006 .051000008 .06400001 C .067 .06400001 .080000009 .06400001 .094000007 .076000008 C .104 .08500001 .11400001 .098000008 .11400001 .117000009 C .11400001 .148 .087000008 .15200001 .07700001 .15200001 C .054000006 .15200001 .021 .136 .021 .087000008 C .021 .037 .065000008 0 .127 0 C .23 0 .333 .091000009 .361 .20400001 L .45700003 .586 Z "/>
</symbol>
<use xlink:href="#font_1_5" transform="matrix(9.9626,0,0,-9.9626,25.598916,9.652334)"/>
</svg>
