<?xml version="1.0" encoding="UTF-8" standalone="no"?>
<!DOCTYPE svg PUBLIC "-//W3C//DTD SVG 1.1//EN" "http://www.w3.org/Graphics/SVG/1.1/DTD/svg11.dtd">
<svg xmlns="http://www.w3.org/2000/svg" xmlns:xlink="http://www.w3.org/1999/xlink" version="1.1" width="108.54pt" height="36.542pt" viewBox="0 0 108.54 36.542">
<path transform="matrix(1,0,0,-1,4.688,31.854)" stroke-width="1" stroke-linecap="butt" stroke-miterlimit="10" stroke-linejoin="miter" fill="none" stroke="#000000" d="M -4.48875 -4.48875 L -4.48875 31.6553 L 103.6543 31.6553 L 103.6543 -4.48875 Z M 103.6543 31.6553 "/>
<path transform="matrix(1,0,0,-1,4.688,37.627004)" stroke-width="1" stroke-linecap="butt" stroke-miterlimit="10" stroke-linejoin="miter" fill="none" stroke="#000000" d="M 0 19.35616 L 97.17302 19.35616 "/>
<path transform="matrix(1,0,0,-1,101.86102,18.270844)" d="M 1.99252 0 L -1.19551 1.59401 L 0 0 L -1.19551 -1.59401 "/>
<path transform="matrix(1,0,0,-1,4.688,37.627004)" stroke-width="1" stroke-linecap="butt" stroke-miterlimit="10" stroke-linejoin="miter" fill="none" stroke="#000000" d="M 49.58276 5.77289 L 49.58276 30.9469 "/>
<path transform="matrix(0,-1,-1,-0,54.27076,6.6801035)" d="M 1.99252 0 L -1.19551 1.59401 L 0 0 L -1.19551 -1.59401 "/>
<clipPath id="cp0">
<path transform="matrix(1,0,0,-1,4.688,37.627004)" d="M 0 5.77289 L 99.16554 5.77289 L 99.16554 32.93942 L 0 32.93942 Z "/>
</clipPath>
<g clip-path="url(#cp0)">
<path transform="matrix(1,0,0,-1,4.688,37.627004)" stroke-width="1.59404" stroke-linecap="butt" stroke-miterlimit="10" stroke-linejoin="miter" fill="none" stroke="#000080" d="M 0 0 C 0 0 2.98528 1.22673 4.13187 1.69789 C 5.27844 2.16904 7.11716 2.92462 8.26375 3.39578 C 9.41032 3.86693 11.24904 4.62253 12.39563 5.09369 C 13.5422 5.56485 15.38094 6.32045 16.52751 6.7916 C 17.67409 7.26276 19.51282 8.01834 20.6594 8.48949 C 21.80597 8.96065 23.6447 9.71623 24.79128 10.18738 C 25.93785 10.65854 27.77657 11.41414 28.92314 11.8853 C 30.06972 12.35645 31.90845 13.11205 33.05502 13.5832 C 34.2016 14.05435 36.04033 14.80994 37.1869 15.2811 C 38.33348 15.75226 40.17221 16.50786 41.31879 16.979 C 42.46536 17.45016 44.3041 18.20575 45.45067 18.6769 C 46.59724 19.14806 48.43597 19.90366 49.58255 20.3748 C 50.72913 20.84596 52.56786 21.60156 53.71443 22.07272 C 54.86101 22.54387 56.69974 23.29945 57.84631 23.77061 C 58.99289 24.24176 60.83162 24.99736 61.9782 25.46852 C 63.12477 25.93968 64.9635 26.69527 66.11008 27.16641 C 67.25667 27.63757 69.09538 28.39317 70.24196 28.86432 C 71.38855 29.33548 73.22726 30.09106 74.37384 30.56221 C 75.52043 31.03337 77.35913 31.78897 78.50572 32.26013 C 79.6523 32.73128 81.49101 33.48686 82.6376 33.95802 C 83.78418 34.42917 85.6229 35.18477 86.76949 35.65593 C 87.91606 36.12709 89.75478 36.88268 90.90137 37.35384 C 92.04794 37.825 93.88667 38.58058 95.03325 39.05173 C 96.17982 39.52289 99.16513 40.74962 99.16513 40.74962 "/>
</g>
</svg>
