<?xml version="1.0" encoding="UTF-8" standalone="no"?>
<!DOCTYPE svg PUBLIC "-//W3C//DTD SVG 1.1//EN" "http://www.w3.org/Graphics/SVG/1.1/DTD/svg11.dtd">
<svg xmlns="http://www.w3.org/2000/svg" xmlns:xlink="http://www.w3.org/1999/xlink" version="1.1" width="387.564pt" height="171.564pt" viewBox="0 0 387.564 171.564">
<path transform="matrix(1,0,0,-1,.199,171.36499)" stroke-width="1" stroke-linecap="butt" stroke-miterlimit="10" stroke-linejoin="miter" fill="none" stroke="#000000" d="M 0 57.05606 L 385.17756 57.05606 "/>
<path transform="matrix(1,0,0,-1,385.37657,114.30893)" d="M 1.99252 0 L -1.19551 1.59401 L 0 0 L -1.19551 -1.59401 "/>
<path transform="matrix(1,0,0,-1,.199,171.36499)" stroke-width="1" stroke-linecap="butt" stroke-miterlimit="10" stroke-linejoin="miter" fill="none" stroke="#000000" d="M 193.58502 0 L 193.58502 169.17566 "/>
<path transform="matrix(0,-1,-1,-0,193.78403,2.189331)" d="M 1.99252 0 L -1.19551 1.59401 L 0 0 L -1.19551 -1.59401 "/>
<clipPath id="cp0">
<path transform="matrix(1,0,0,-1,.199,171.36499)" d="M 0 0 L 387.17008 0 L 387.17008 171.16819 L 0 171.16819 Z "/>
</clipPath>
<g clip-path="url(#cp0)">
<path transform="matrix(1,0,0,-1,.199,171.36499)" stroke-width="1.59404" stroke-linecap="butt" stroke-miterlimit="10" stroke-linejoin="miter" fill="none" stroke="#000080" d="M 0 0 C 0 0 11.65543 5.15286 16.132 7.13196 C 20.60857 9.11104 27.78745 12.28482 32.26402 14.26392 C 36.74059 16.24301 43.91946 19.41684 48.39604 21.39594 C 52.8726 23.37505 60.05148 26.54881 64.52806 28.52791 C 69.00462 30.50699 76.18349 33.68079 80.66006 35.65987 C 85.13664 37.63895 92.3155 40.81276 96.79208 42.79184 C 101.26866 44.77094 108.44753 47.94473 112.9241 49.92383 C 117.40068 51.90291 124.57954 55.07672 129.05612 57.0558 C 133.5327 59.03488 140.7116 62.20871 145.18816 64.18779 C 149.66474 66.16687 156.8436 69.34068 161.32016 71.31976 C 165.79674 73.29886 172.97562 76.47266 177.45218 78.45175 C 181.92876 80.43083 189.10765 83.60464 193.58422 85.58372 C 198.06079 87.5628 205.23967 90.73662 209.71625 92.7157 C 214.19281 94.6948 221.37169 97.86859 225.84827 99.84769 C 230.32483 101.82677 237.50371 105.0006 241.98029 106.97968 C 246.45685 108.95876 253.63573 112.13257 258.1123 114.11165 C 262.58888 116.09074 269.76777 119.26454 274.24433 121.24362 C 278.7209 123.22272 285.89979 126.39651 290.37638 128.37561 C 294.85295 130.35469 302.0318 133.52849 306.5084 135.50757 C 310.98497 137.48665 318.1638 140.66043 322.64039 142.63953 C 327.11698 144.61864 334.2958 147.79247 338.7724 149.77158 C 343.249 151.75067 350.42787 154.92446 354.90443 156.90354 C 359.381 158.88262 366.55989 162.05641 371.03645 164.03549 C 375.51304 166.01459 387.16847 171.16747 387.16847 171.16747 "/>
<symbol id="font_1_1">
<path d="M .314 .605 L .4 .605 C .42000003 .605 .43 .605 .43 .625 C .43 .63600006 .42000003 .63600006 .40300004 .63600006 L .32000003 .63600006 L .34100003 .75 C .34500004 .771 .35900004 .842 .365 .8540001 C .374 .873 .39100004 .888 .41200004 .888 C .416 .888 .44200004 .888 .461 .87 C .41700004 .86600008 .407 .8310001 .407 .816 C .407 .793 .425 .781 .444 .781 C .47 .781 .49900005 .8030001 .49900005 .8410001 C .49900005 .8870001 .45300005 .9100001 .41200004 .9100001 C .37800003 .9100001 .31500004 .8920001 .28500004 .793 C .279 .7720001 .27600003 .7620001 .252 .63600006 L .18300002 .63600006 C .164 .63600006 .15300001 .63600006 .15300001 .61700007 C .15300001 .605 .162 .605 .18100001 .605 L .24700001 .605 L .172 .21000001 C .15400002 .113000009 .13700001 .022 .08500001 .022 C .081 .022 .056 .022 .037 .040000008 C .083000008 .043000014 .09200001 .07900001 .09200001 .094000007 C .09200001 .117000009 .074 .12900001 .055 .12900001 C .029 .12900001 0 .10700001 0 .069000009 C 0 .024000004 .044 0 .08500001 0 C .14 0 .18 .059 .19800002 .09700001 C .23000002 .16000001 .25300003 .28100003 .254 .28800003 L .314 .605 Z "/>
</symbol>
<use xlink:href="#font_1_1" transform="matrix(9.9626,0,0,-9.9626,353.29203,30.394324)" fill="#000080"/>
<path transform="matrix(1,0,0,-1,.199,171.36499)" stroke-width="1.59404" stroke-linecap="butt" stroke-miterlimit="10" stroke-linejoin="miter" fill="none" stroke="#800000" d="M 0 99.84811 C 0 99.84811 11.65543 99.84811 16.132 99.84811 C 20.60857 99.84811 27.78745 99.84811 32.26402 99.84811 C 36.74059 99.84811 43.91946 99.84811 48.39604 99.84811 C 52.8726 99.84811 60.05148 99.84811 64.52806 99.84811 C 69.00462 99.84811 76.18349 99.84811 80.66006 99.84811 C 85.13664 99.84811 92.3155 99.84811 96.79208 99.84811 C 101.26866 99.84811 108.44753 99.84811 112.9241 99.84811 C 117.40068 99.84811 124.57954 99.84811 129.05612 99.84811 C 133.5327 99.84811 140.7116 99.84811 145.18816 99.84811 C 149.66474 99.84811 156.8436 99.84811 161.32016 99.84811 C 165.79674 99.84811 172.97562 99.84811 177.45218 99.84811 C 181.92876 99.84811 189.10765 99.84811 193.58422 99.84811 C 198.06079 99.84811 205.23967 99.84811 209.71625 99.84811 C 214.19281 99.84811 221.37169 99.84811 225.84827 99.84811 C 230.32483 99.84811 237.50371 99.84811 241.98029 99.84811 C 246.45685 99.84811 253.63573 99.84811 258.1123 99.84811 C 262.58888 99.84811 269.76777 99.84811 274.24433 99.84811 C 278.7209 99.84811 285.89979 99.84811 290.37638 99.84811 C 294.85295 99.84811 302.0318 99.84811 306.5084 99.84811 C 310.98497 99.84811 318.1638 99.84811 322.64039 99.84811 C 327.11698 99.84811 334.2958 99.84811 338.7724 99.84811 C 343.249 99.84811 350.42787 99.84811 354.90443 99.84811 C 359.381 99.84811 366.55989 99.84811 371.03645 99.84811 C 375.51304 99.84811 387.16847 99.84811 387.16847 99.84811 "/>
<use xlink:href="#font_1_1" transform="matrix(9.9626,0,0,-9.9626,353.29203,85.66533)" fill="#800000"/>
<symbol id="font_2_1">
<path d="M .24200002 .43100003 C .25 .448 .25100003 .456 .25100003 .463 C .25100003 .49400003 .22300002 .518 .192 .518 C .15400002 .518 .14200002 .487 .137 .47100003 L .0050000029 .038000004 C .0040000008 .036000007 0 .023000002 0 .022 C 0 .010000002 .031000004 0 .039000006 0 C .046000005 0 .047000007 .0020000004 .054000006 .017 L .24200002 .43100003 Z "/>
</symbol>
<use xlink:href="#font_2_1" transform="matrix(6.9738,0,0,-6.9738,359.04878,79.22407)" fill="#800000"/>
</g>
</svg>
