<?xml version="1.0" encoding="UTF-8" standalone="no"?>
<!DOCTYPE svg PUBLIC "-//W3C//DTD SVG 1.1//EN" "http://www.w3.org/Graphics/SVG/1.1/DTD/svg11.dtd">
<svg xmlns="http://www.w3.org/2000/svg" xmlns:xlink="http://www.w3.org/1999/xlink" version="1.1" width="157.629pt" height="130.665pt" viewBox="0 0 157.629 130.665">
<path transform="matrix(1,0,0,-1,9.759,123.645)" stroke-width="1" stroke-linecap="butt" stroke-miterlimit="10" stroke-linejoin="miter" fill="none" stroke="#808080" d="M 0 53.08156 L 0 57.33342 M 33.79095 53.08156 L 33.79095 57.33342 M 101.37286 53.08156 L 101.37286 57.33342 M 135.16382 53.08156 L 135.16382 57.33342 "/>
<path transform="matrix(1,0,0,-1,9.759,123.645)" stroke-width="1" stroke-linecap="butt" stroke-miterlimit="10" stroke-linejoin="miter" fill="none" stroke="#808080" d="M 65.45587 0 L 69.70793 0 M 65.45587 27.60374 L 69.70793 27.60374 M 65.45587 82.81125 L 69.70793 82.81125 M 65.45587 110.41501 L 69.70793 110.41501 "/>
<path transform="matrix(1,0,0,-1,9.759,123.645)" stroke-width="1" stroke-linecap="butt" stroke-miterlimit="10" stroke-linejoin="miter" fill="none" stroke="#000000" d="M 0 55.2075 L 133.1713 55.2075 "/>
<path transform="matrix(1,0,0,-1,142.9303,68.4375)" d="M 1.99252 0 L -1.19551 1.59401 L 0 0 L -1.19551 -1.59401 "/>
<path transform="matrix(1,0,0,-1,9.759,123.645)" stroke-width="1" stroke-linecap="butt" stroke-miterlimit="10" stroke-linejoin="miter" fill="none" stroke="#000000" d="M 67.58191 0 L 67.58191 108.42249 "/>
<path transform="matrix(0,-1,-1,-0,77.34091,15.222504)" d="M 1.99252 0 L -1.19551 1.59401 L 0 0 L -1.19551 -1.59401 "/>
<symbol id="font_0_1">
<path d="M .57600006 0 C .59300008 0 .611 0 .611 .019999996 C .611 .040000008 .59300008 .040000008 .57600006 .040000008 L .035000005 .040000008 C .018 .040000008 0 .040000008 0 .019999996 C 0 0 .018 0 .035000005 0 L .57600006 0 Z "/>
</symbol>
<use xlink:href="#font_0_1" transform="matrix(9.9626,0,0,-9.9626,4.220896,78.28659)"/>
<symbol id="font_1_2">
<path d="M .07700001 .07700001 L .18300002 .18 C .33900003 .31800003 .39900003 .372 .39900003 .47200004 C .39900003 .586 .30900003 .666 .18700002 .666 C .074 .666 0 .574 0 .485 C 0 .42900003 .05 .42900003 .053000008 .42900003 C .07000001 .42900003 .105000007 .441 .105000007 .48200003 C .105000007 .508 .08700001 .53400006 .052000006 .53400006 C .044000005 .53400006 .042000008 .53400006 .039 .53300008 C .062000004 .59800007 .11600001 .63500007 .17400001 .63500007 C .26500003 .63500007 .308 .554 .308 .47200004 C .308 .39200003 .25800003 .31300003 .20300003 .25100003 L .011000004 .037 C 0 .026 0 .024 0 0 L .37100003 0 L .39900003 .17400001 L .374 .17400001 C .36900003 .14400001 .36200003 .1 .352 .085 C .345 .07700001 .279 .07700001 .257 .07700001 L .07700001 .07700001 Z "/>
</symbol>
<use xlink:href="#font_1_2" transform="matrix(9.9626,0,0,-9.9626,11.6411299,80.57799)"/>
<use xlink:href="#font_0_1" transform="matrix(9.9626,0,0,-9.9626,38.011899,78.28659)"/>
<symbol id="font_1_1">
<path d="M .205 .64000007 C .205 .66400006 .205 .666 .18200003 .666 C .120000008 .60200008 .032000007 .60200008 0 .60200008 L 0 .57100006 C .020000004 .57100006 .07900001 .57100006 .13100001 .597 L .13100001 .079 C .13100001 .043 .128 .031000002 .038000004 .031000002 L .0060000049 .031000002 L .0060000049 0 C .04100001 .003 .128 .003 .168 .003 C .20800002 .003 .29500003 .003 .33000005 0 L .33000005 .031000002 L .29800005 .031000002 C .20800002 .031000002 .205 .042000005 .205 .079 L .205 .64000007 Z "/>
</symbol>
<use xlink:href="#font_1_1" transform="matrix(9.9626,0,0,-9.9626,45.820676,80.57799)"/>
<use xlink:href="#font_1_1" transform="matrix(9.9626,0,0,-9.9626,109.52667,80.57799)"/>
<use xlink:href="#font_1_2" transform="matrix(9.9626,0,0,-9.9626,142.92913,80.57799)"/>
<use xlink:href="#font_0_1" transform="matrix(9.9626,0,0,-9.9626,59.717897,124.1486)"/>
<use xlink:href="#font_1_2" transform="matrix(9.9626,0,0,-9.9626,67.13813,126.439998)"/>
<use xlink:href="#font_0_1" transform="matrix(9.9626,0,0,-9.9626,59.717897,96.54559)"/>
<use xlink:href="#font_1_1" transform="matrix(9.9626,0,0,-9.9626,67.52667,98.83699)"/>
<use xlink:href="#font_1_1" transform="matrix(9.9626,0,0,-9.9626,67.52567,44.045007)"/>
<use xlink:href="#font_1_2" transform="matrix(9.9626,0,0,-9.9626,67.13713,16.441994)"/>
<clipPath id="cp2">
<path transform="matrix(1,0,0,-1,9.759,123.645)" d="M 0 0 L 135.16382 0 L 135.16382 110.41501 L 0 110.41501 Z "/>
</clipPath>
<g clip-path="url(#cp2)">
<path transform="matrix(1,0,0,-1,9.759,123.645)" stroke-width="1.59404" stroke-linecap="butt" stroke-miterlimit="10" stroke-linejoin="miter" fill="none" stroke="#000080" d="M 101.37286 82.81125 C 101.37286 82.81125 102.3901 81.98026 102.78079 81.6611 C 103.1715 81.34195 103.79803 80.83011 104.18872 80.51096 C 104.57942 80.19182 105.20596 79.67998 105.59666 79.36082 C 105.98735 79.04167 106.61389 78.52985 107.0046 78.2107 C 107.39528 77.89154 108.02184 77.3797 108.41252 77.06055 C 108.8032 76.74141 109.42976 76.22957 109.82045 75.91042 C 110.21114 75.59126 110.83769 75.07944 111.22838 74.76028 C 111.61908 74.44113 112.24562 73.92929 112.63632 73.61015 C 113.02701 73.291 113.65355 72.77916 114.04425 72.46 C 114.43494 72.14085 115.0615 71.62903 115.45218 71.30988 C 115.84286 70.99072 116.46942 70.47888 116.8601 70.15974 C 117.2508 69.84059 117.87737 69.32875 118.26805 69.0096 C 118.65875 68.69044 119.2853 68.17862 119.67598 67.85947 C 120.06668 67.54031 120.69322 67.02847 121.08392 66.70934 C 121.47461 66.39018 122.10115 65.87834 122.49185 65.55919 C 122.88254 65.24004 123.5091 64.72821 123.89978 64.40906 C 124.29047 64.0899 124.91702 63.57806 125.30771 63.25893 C 125.6984 62.93977 126.32495 62.42793 126.71564 62.10878 C 127.10634 61.78963 127.73288 61.2778 128.12358 60.95865 C 128.51427 60.6395 129.14081 60.12767 129.53151 59.80852 C 129.9222 59.48936 130.54875 58.97752 130.93944 58.65837 C 131.33013 58.33923 131.95668 57.8274 132.34737 57.50824 C 132.73805 57.18909 133.36461 56.67726 133.7553 56.35811 C 134.146 56.03896 135.16324 55.20796 135.16324 55.20796 "/>
<path transform="matrix(1,0,0,-1,9.759,123.645)" stroke-width="1.59404" stroke-linecap="butt" stroke-miterlimit="10" stroke-linejoin="miter" fill="none" stroke="#000080" d="M 0 165.62252 C 0 165.62252 3.05176 155.84252 4.22386 152.25193 C 5.39597 148.66135 7.27563 143.0952 8.44774 139.74399 C 9.61983 136.39276 11.4995 131.21048 12.6716 128.09865 C 13.8437 124.9868 15.72337 120.18842 16.89548 117.31593 C 18.06758 114.44347 19.94724 110.02893 21.11934 107.39583 C 22.29144 104.76273 24.17111 100.73207 25.34322 98.33835 C 26.51532 95.94464 28.39497 92.29784 29.56708 90.14348 C 30.73918 87.98914 32.61885 84.72623 33.79095 82.81125 C 34.96306 80.89627 36.84271 78.01721 38.01482 76.34161 C 39.18692 74.666 41.06659 72.17084 42.2387 70.7346 C 43.4108 69.29837 45.29045 67.18706 46.46255 65.9902 C 47.63466 64.79335 49.51433 63.06592 50.68643 62.10843 C 51.85854 61.15096 53.73819 59.80737 54.9103 59.08926 C 56.0824 58.37115 57.96207 57.41147 59.13417 56.93272 C 60.30627 56.45398 62.18593 55.87816 63.35803 55.6388 C 64.53014 55.39943 66.4098 55.2075 67.58191 55.2075 C 68.75401 55.2075 70.63367 55.39943 71.80577 55.6388 C 72.97787 55.87816 74.85754 56.45398 76.02965 56.93272 C 77.20175 57.41147 79.08142 58.37115 80.25351 59.08926 C 81.42561 59.80737 83.30528 61.15096 84.47739 62.10843 C 85.64949 63.06592 87.52916 64.79335 88.70126 65.9902 C 89.87335 67.18706 91.75302 69.29837 92.92513 70.7346 C 94.09723 72.17084 95.9769 74.666 97.149 76.34161 C 98.32109 78.01721 101.37286 82.81125 101.37286 82.81125 "/>
<symbol id="font_3_1">
<path d="M .31800003 .615 C .32700003 .652 .331 .65400007 .37 .65400007 L .50000008 .65400007 C .61300006 .65400007 .61300006 .558 .61300006 .549 C .61300006 .46800003 .53200009 .365 .4 .365 L .256 .365 L .31800003 .615 M .48700003 .35700003 C .5960001 .377 .69500008 .453 .69500008 .545 C .69500008 .623 .62600007 .683 .5130001 .683 L .192 .683 C .17300001 .683 .164 .683 .164 .66400006 C .164 .65400007 .17300001 .65400007 .18800003 .65400007 C .24900002 .65400007 .24900002 .646 .24900002 .63500007 C .24900002 .633 .24900002 .62700006 .245 .61200007 L .11000001 .074 C .101 .039 .099 .029000001 .029000007 .029000001 C .010000002 .029000001 0 .029000001 0 .011000001 C 0 0 .006000001 0 .026 0 L .36900003 0 C .5220001 0 .64000007 .116000007 .64000007 .21700001 C .64000007 .29900003 .5680001 .349 .48700003 .35700003 M .345 .029000001 L .21000001 .029000001 C .19600001 .029000001 .194 .029000001 .18800003 .030000002 C .17700002 .031000002 .176 .033 .176 .041 C .176 .048 .178 .054 .18 .063 L .25 .34500004 L .43800003 .34500004 C .55600008 .34500004 .55600008 .23500002 .55600008 .22700002 C .55600008 .13100001 .469 .029000001 .345 .029000001 Z "/>
</symbol>
<use xlink:href="#font_3_1" transform="matrix(11.9552,0,0,-11.9552,20.684849,33.878007)" fill="#000080"/>
</g>
<symbol id="font_4_1">
<path d="M .305 .31300003 C .311 .33900003 .334 .43100003 .404 .43100003 C .409 .43100003 .433 .43100003 .454 .418 C .426 .41300003 .40600003 .388 .40600003 .36400003 C .40600003 .34800003 .417 .32900004 .444 .32900004 C .46600003 .32900004 .498 .34700004 .498 .38700003 C .498 .43900005 .439 .45300005 .405 .45300005 C .347 .45300005 .312 .40000005 .3 .37700004 C .275 .44300003 .221 .45300005 .19200002 .45300005 C .08800001 .45300005 .031000002 .32400004 .031000002 .29900003 C .031000002 .28900004 .041 .28900004 .043000007 .28900004 C .051000008 .28900004 .054000006 .291 .056 .3 C .09 .40600003 .156 .43100003 .19000001 .43100003 C .209 .43100003 .244 .42200003 .244 .36400003 C .244 .33300004 .22700002 .26600004 .19000001 .126 C .17400001 .064 .13900002 .022000002 .095000009 .022000002 C .08900001 .022000002 .06600001 .022000002 .045 .035 C .07000001 .040000004 .09200001 .061 .09200001 .089 C .09200001 .116000007 .07000001 .124000009 .055000009 .124000009 C .025 .124000009 0 .098000008 0 .06600001 C 0 .020000002 .050000006 0 .094000007 0 C .16000001 0 .19600001 .07000001 .19900002 .076000008 C .21100001 .039 .24700003 0 .307 0 C .41 0 .467 .12900001 .467 .15400002 C .467 .16400002 .458 .16400002 .455 .16400002 C .446 .16400002 .444 .16000001 .442 .15300001 C .409 .046 .341 .022000002 .30900003 .022000002 C .27 .022000002 .254 .054 .254 .08800001 C .254 .11000001 .26 .13200002 .271 .17600002 L .305 .31300003 Z "/>
</symbol>
<use xlink:href="#font_4_1" transform="matrix(9.9626,0,0,-9.9626,148.82991,70.68259)"/>
<symbol id="font_4_2">
<path d="M .45700003 .586 C .461 .6 .461 .602 .461 .609 C .461 .62700006 .447 .63600006 .432 .63600006 C .42200003 .63600006 .40600003 .63 .397 .615 C .395 .61 .387 .579 .38300003 .561 C .37600003 .535 .36900003 .508 .363 .48100005 L .318 .301 C .314 .286 .271 .21600002 .20500002 .21600002 C .15400002 .21600002 .143 .26000003 .143 .29700003 C .143 .34300003 .16000001 .40500004 .194 .49300004 C .21000001 .53400006 .21400002 .545 .21400002 .56500008 C .21400002 .61 .18200001 .6470001 .13200002 .6470001 C .037 .6470001 0 .50200006 0 .49300004 C 0 .48300005 .01 .48300005 .012 .48300005 C .022000002 .48300005 .023 .485 .028000003 .50100007 C .055000009 .595 .095000009 .625 .12900001 .625 C .13700001 .625 .15400002 .625 .15400002 .59300008 C .15400002 .568 .14400001 .54200008 .13700001 .523 C .097 .41700004 .079 .36 .079 .31300003 C .079 .224 .142 .194 .201 .194 C .24000003 .194 .274 .21100001 .30200003 .23900002 C .289 .187 .277 .13800001 .237 .08500001 C .21100001 .051 .17300001 .022 .127 .022 C .113000009 .022 .068 .025000006 .051000008 .06400001 C .067 .06400001 .080000009 .06400001 .094000007 .076000008 C .104 .08500001 .11400001 .098000008 .11400001 .117000009 C .11400001 .148 .087000008 .15200001 .07700001 .15200001 C .054000006 .15200001 .021 .136 .021 .087000008 C .021 .037 .065000008 0 .127 0 C .23 0 .333 .091000009 .361 .20400001 L .45700003 .586 Z "/>
</symbol>
<use xlink:href="#font_4_2" transform="matrix(9.9626,0,0,-9.9626,75.02192,9.72534)"/>
</svg>
