<?xml version="1.0" encoding="UTF-8" standalone="no"?>
<!DOCTYPE svg PUBLIC "-//W3C//DTD SVG 1.1//EN" "http://www.w3.org/Graphics/SVG/1.1/DTD/svg11.dtd">
<svg xmlns="http://www.w3.org/2000/svg" xmlns:xlink="http://www.w3.org/1999/xlink" version="1.1" width="108.54pt" height="36.542pt" viewBox="0 0 108.54 36.542">
<path transform="matrix(1,0,0,-1,4.688,31.854)" stroke-width=".3985" stroke-linecap="butt" stroke-miterlimit="10" stroke-linejoin="miter" fill="none" stroke="#000000" d="M -4.48875 -4.48875 L -4.48875 31.6553 L 103.6543 31.6553 L 103.6543 -4.48875 Z M 103.6543 31.6553 "/>
<path transform="matrix(1,0,0,-1,4.688,31.854002)" stroke-width=".3985" stroke-linecap="butt" stroke-miterlimit="10" stroke-linejoin="miter" fill="none" stroke="#000000" d="M 0 13.58327 L 97.17302 13.58327 "/>
<path transform="matrix(1,0,0,-1,101.86102,18.270733)" d="M 1.99252 0 L -1.19551 1.59401 L 0 0 L -1.19551 -1.59401 "/>
<path transform="matrix(1,0,0,-1,4.688,31.854002)" stroke-width=".3985" stroke-linecap="butt" stroke-miterlimit="10" stroke-linejoin="miter" fill="none" stroke="#000000" d="M 49.58276 0 L 49.58276 25.17401 "/>
<path transform="matrix(0,-1,-1,-0,54.27076,6.6799929)" d="M 1.99252 0 L -1.19551 1.59401 L 0 0 L -1.19551 -1.59401 "/>
<clipPath id="cp0">
<path transform="matrix(1,0,0,-1,4.688,31.854002)" d="M 0 0 L 99.16554 0 L 99.16554 27.16653 L 0 27.16653 Z "/>
</clipPath>
<g clip-path="url(#cp0)">
<path transform="matrix(1,0,0,-1,4.688,31.854002)" stroke-width="1.59404" stroke-linecap="butt" stroke-miterlimit="10" stroke-linejoin="miter" fill="none" stroke="#000080" d="M 0 28.52486 C 0 28.52486 2.98528 26.257 4.13187 25.44034 C 5.27844 24.62367 7.11716 23.37695 8.26375 22.63881 C 9.41032 21.90067 11.24904 20.77983 12.39563 20.12022 C 13.5422 19.4606 15.38094 18.46576 16.52751 17.88466 C 17.67409 17.30357 19.51282 16.43462 20.6594 15.93207 C 21.80597 15.4295 23.6447 14.68651 24.79128 14.26245 C 25.93785 13.83841 27.77657 13.22133 28.92314 12.87582 C 30.06972 12.53032 31.90845 12.03918 33.05502 11.77219 C 34.2016 11.5052 36.04033 11.13998 37.1869 10.95152 C 38.33348 10.76306 40.17221 10.52379 41.31879 10.41385 C 42.46536 10.30391 44.3041 10.19055 45.45067 10.15913 C 46.59724 10.12773 48.43597 10.14032 49.58255 10.18742 C 50.72913 10.23454 52.56786 10.37306 53.71443 10.49869 C 54.86101 10.62431 56.69974 10.8888 57.84631 11.09296 C 58.99289 11.29712 60.83162 11.6875 61.9782 11.97018 C 63.12477 12.25287 64.9635 12.76918 66.11008 13.1304 C 67.25667 13.49161 69.09538 14.13387 70.24196 14.5736 C 71.38855 15.01334 73.22726 15.7815 74.37384 16.29976 C 75.52043 16.81804 77.35913 17.71216 78.50572 18.30893 C 79.6523 18.90572 81.49101 19.92574 82.6376 20.60106 C 83.78418 21.27638 85.6229 22.42236 86.76949 23.17621 C 87.91606 23.93007 89.75478 25.20195 90.90137 26.03432 C 92.04794 26.8667 93.88667 28.2645 95.03325 29.1754 C 96.17982 30.0863 99.16513 32.59947 99.16513 32.59947 "/>
</g>
</svg>
