<?xml version="1.0" encoding="UTF-8" standalone="no"?>
<!DOCTYPE svg PUBLIC "-//W3C//DTD SVG 1.1//EN" "http://www.w3.org/Graphics/SVG/1.1/DTD/svg11.dtd">
<svg xmlns="http://www.w3.org/2000/svg" xmlns:xlink="http://www.w3.org/1999/xlink" version="1.1" width="256.94pt" height="256.641pt" viewBox="0 0 256.94 256.641">
<clipPath id="cp0">
<path transform="matrix(1,0,0,-1,3.153,256.442)" d="M 0 0 L 243.16719 0 L 243.16719 243.17084 L 0 243.17084 Z "/>
</clipPath>
<g clip-path="url(#cp0)">
<path transform="matrix(1,0,0,-1,3.153,256.442)" d="M 11.05304 81.05695 C 11.05304 81.05695 14.38048 81.05695 15.65846 81.05695 C 16.93645 81.05695 18.9859 81.05695 20.26389 81.05695 C 21.54187 81.05695 23.59132 81.05695 24.86931 81.05695 C 26.1473 81.05695 28.19675 81.05695 29.47473 81.05695 C 30.75272 81.05695 32.80217 81.05695 34.08015 81.05695 C 35.35814 81.05695 37.40758 81.05695 38.68556 81.05695 C 39.96355 81.05695 42.013 81.05695 43.29099 81.05695 C 44.56897 81.05695 46.61842 81.05695 47.89641 81.05695 C 49.1744 81.05695 51.22383 81.05695 52.50182 81.05695 C 53.7798 81.05695 55.82925 81.05695 57.10724 81.05695 C 58.38522 81.05695 60.43468 81.05695 61.71266 81.05695 C 62.99065 81.05695 65.0401 81.05695 66.31808 81.05695 C 67.59607 81.05695 69.64551 81.05695 70.9235 81.05695 C 72.20148 81.05695 74.25095 81.05695 75.52893 81.05695 C 76.80692 81.05695 78.85637 81.05695 80.13435 81.05695 C 81.41234 81.05695 83.46178 81.05695 84.73976 81.05695 C 86.01775 81.05695 88.0672 81.05695 89.34518 81.05695 C 90.62317 81.05695 92.67262 81.05695 93.9506 81.05695 C 95.22859 81.05695 97.27803 81.05695 98.55602 81.05695 C 99.834 81.05695 101.88345 81.05695 103.16144 81.05695 C 104.43942 81.05695 106.48888 81.05695 107.76686 81.05695 C 109.04485 81.05695 111.0943 81.05695 112.37228 81.05695 C 113.65027 81.05695 115.6997 81.05695 116.97769 81.05695 C 118.25568 81.05695 121.58311 81.05695 121.58311 81.05695 L 121.58311 40.52847 L 11.05304 40.52847 Z " fill="#cccce6"/>
<path transform="matrix(1,0,0,-1,3.153,256.442)" stroke-width="1" stroke-linecap="butt" stroke-miterlimit="10" stroke-linejoin="miter" fill="none" stroke="#000080" d="M 11.05304 81.05695 C 11.05304 81.05695 14.38048 81.05695 15.65846 81.05695 C 16.93645 81.05695 18.9859 81.05695 20.26389 81.05695 C 21.54187 81.05695 23.59132 81.05695 24.86931 81.05695 C 26.1473 81.05695 28.19675 81.05695 29.47473 81.05695 C 30.75272 81.05695 32.80217 81.05695 34.08015 81.05695 C 35.35814 81.05695 37.40758 81.05695 38.68556 81.05695 C 39.96355 81.05695 42.013 81.05695 43.29099 81.05695 C 44.56897 81.05695 46.61842 81.05695 47.89641 81.05695 C 49.1744 81.05695 51.22383 81.05695 52.50182 81.05695 C 53.7798 81.05695 55.82925 81.05695 57.10724 81.05695 C 58.38522 81.05695 60.43468 81.05695 61.71266 81.05695 C 62.99065 81.05695 65.0401 81.05695 66.31808 81.05695 C 67.59607 81.05695 69.64551 81.05695 70.9235 81.05695 C 72.20148 81.05695 74.25095 81.05695 75.52893 81.05695 C 76.80692 81.05695 78.85637 81.05695 80.13435 81.05695 C 81.41234 81.05695 83.46178 81.05695 84.73976 81.05695 C 86.01775 81.05695 88.0672 81.05695 89.34518 81.05695 C 90.62317 81.05695 92.67262 81.05695 93.9506 81.05695 C 95.22859 81.05695 97.27803 81.05695 98.55602 81.05695 C 99.834 81.05695 101.88345 81.05695 103.16144 81.05695 C 104.43942 81.05695 106.48888 81.05695 107.76686 81.05695 C 109.04485 81.05695 111.0943 81.05695 112.37228 81.05695 C 113.65027 81.05695 115.6997 81.05695 116.97769 81.05695 C 118.25568 81.05695 121.58311 81.05695 121.58311 81.05695 L 121.58311 40.52847 L 11.05304 40.52847 Z "/>
<path transform="matrix(1,0,0,-1,3.153,256.442)" d="M 121.58359 121.58542 C 121.58359 121.58542 124.91101 121.58542 126.189 121.58542 C 127.46698 121.58542 129.51644 121.58542 130.79442 121.58542 C 132.0724 121.58542 134.12186 121.58542 135.39984 121.58542 C 136.67783 121.58542 138.72728 121.58542 140.00527 121.58542 C 141.28325 121.58542 143.3327 121.58542 144.61069 121.58542 C 145.88867 121.58542 147.93813 121.58542 149.21611 121.58542 C 150.4941 121.58542 152.54354 121.58542 153.82152 121.58542 C 155.0995 121.58542 157.14896 121.58542 158.42694 121.58542 C 159.70493 121.58542 161.75438 121.58542 163.03237 121.58542 C 164.31035 121.58542 166.3598 121.58542 167.63779 121.58542 C 168.91577 121.58542 170.96521 121.58542 172.2432 121.58542 C 173.52118 121.58542 175.57064 121.58542 176.84862 121.58542 C 178.1266 121.58542 180.17606 121.58542 181.45404 121.58542 C 182.73203 121.58542 184.78147 121.58542 186.05945 121.58542 C 187.33744 121.58542 189.38689 121.58542 190.66487 121.58542 C 191.94286 121.58542 193.99231 121.58542 195.2703 121.58542 C 196.54828 121.58542 198.59774 121.58542 199.87572 121.58542 C 201.1537 121.58542 203.20316 121.58542 204.48114 121.58542 C 205.75913 121.58542 207.80858 121.58542 209.08657 121.58542 C 210.36455 121.58542 212.414 121.58542 213.69199 121.58542 C 214.96997 121.58542 217.01941 121.58542 218.2974 121.58542 C 219.57538 121.58542 221.62483 121.58542 222.90282 121.58542 C 224.1808 121.58542 226.23026 121.58542 227.50824 121.58542 C 228.78623 121.58542 232.11365 121.58542 232.11365 121.58542 L 232.11365 40.52847 L 121.58359 40.52847 Z " fill="#cccce6"/>
<path transform="matrix(1,0,0,-1,3.153,256.442)" stroke-width="1" stroke-linecap="butt" stroke-miterlimit="10" stroke-linejoin="miter" fill="none" stroke="#000080" d="M 121.58359 121.58542 C 121.58359 121.58542 124.91101 121.58542 126.189 121.58542 C 127.46698 121.58542 129.51644 121.58542 130.79442 121.58542 C 132.0724 121.58542 134.12186 121.58542 135.39984 121.58542 C 136.67783 121.58542 138.72728 121.58542 140.00527 121.58542 C 141.28325 121.58542 143.3327 121.58542 144.61069 121.58542 C 145.88867 121.58542 147.93813 121.58542 149.21611 121.58542 C 150.4941 121.58542 152.54354 121.58542 153.82152 121.58542 C 155.0995 121.58542 157.14896 121.58542 158.42694 121.58542 C 159.70493 121.58542 161.75438 121.58542 163.03237 121.58542 C 164.31035 121.58542 166.3598 121.58542 167.63779 121.58542 C 168.91577 121.58542 170.96521 121.58542 172.2432 121.58542 C 173.52118 121.58542 175.57064 121.58542 176.84862 121.58542 C 178.1266 121.58542 180.17606 121.58542 181.45404 121.58542 C 182.73203 121.58542 184.78147 121.58542 186.05945 121.58542 C 187.33744 121.58542 189.38689 121.58542 190.66487 121.58542 C 191.94286 121.58542 193.99231 121.58542 195.2703 121.58542 C 196.54828 121.58542 198.59774 121.58542 199.87572 121.58542 C 201.1537 121.58542 203.20316 121.58542 204.48114 121.58542 C 205.75913 121.58542 207.80858 121.58542 209.08657 121.58542 C 210.36455 121.58542 212.414 121.58542 213.69199 121.58542 C 214.96997 121.58542 217.01941 121.58542 218.2974 121.58542 C 219.57538 121.58542 221.62483 121.58542 222.90282 121.58542 C 224.1808 121.58542 226.23026 121.58542 227.50824 121.58542 C 228.78623 121.58542 232.11365 121.58542 232.11365 121.58542 L 232.11365 40.52847 L 121.58359 40.52847 Z "/>
<path transform="matrix(1,0,0,-1,3.153,256.442)" stroke-width="1.59404" stroke-linecap="butt" stroke-miterlimit="10" stroke-linejoin="miter" fill="none" stroke="#800000" d="M 11.05304 81.05695 C 11.05304 81.05695 17.70792 81.18219 20.26389 81.33838 C 22.81985 81.49457 26.91876 81.87032 29.47473 82.18271 C 32.0307 82.49509 36.1296 83.12135 38.68556 83.58994 C 41.24153 84.05853 45.34044 84.93527 47.89641 85.56006 C 50.45238 86.18484 54.55127 87.31209 57.10724 88.09306 C 59.66321 88.87405 63.76212 90.25179 66.31808 91.18896 C 68.87405 92.12616 72.97296 93.75438 75.52893 94.84776 C 78.0849 95.94115 82.1838 97.81985 84.73978 99.06944 C 87.29575 100.31903 91.39464 102.44823 93.9506 103.854 C 96.50658 105.2598 100.60548 107.63947 103.16145 109.20146 C 105.71742 110.76344 109.81631 113.3936 112.37228 115.1118 C 114.92825 116.83 119.02716 119.7107 121.58313 121.5851 C 124.1391 123.4595 128.23799 126.59064 130.79398 128.62123 C 133.34995 130.65181 137.44884 134.03345 140.0048 136.22025 C 142.56078 138.40703 146.65969 142.03914 149.21566 144.38214 C 151.77162 146.72513 155.87052 150.60771 158.42649 153.10692 C 160.98246 155.60613 165.08136 159.73928 167.63733 162.39469 C 170.1933 165.0501 174.29219 169.43367 176.84816 172.24527 C 179.40413 175.05686 183.50302 179.69094 186.05899 182.65872 C 188.61496 185.62651 192.71389 190.51114 195.26985 193.63513 C 197.82582 196.75913 201.92472 201.8941 204.48069 205.1743 C 207.03665 208.4545 211.13556 213.84014 213.69153 217.27654 C 216.2475 220.71294 220.34639 226.34894 222.90236 229.94153 C 225.45833 233.53412 232.11319 243.16944 232.11319 243.16944 "/>
<path transform="matrix(1,0,0,-1,3.153,256.442)" stroke-width="1" stroke-linecap="butt" stroke-miterlimit="10" stroke-linejoin="miter" fill="none" stroke="#000080" d="M 11.05304 81.05695 C 11.05304 81.05695 14.38048 81.05695 15.65846 81.05695 C 16.93645 81.05695 18.9859 81.05695 20.26389 81.05695 C 21.54187 81.05695 23.59132 81.05695 24.86931 81.05695 C 26.1473 81.05695 28.19675 81.05695 29.47473 81.05695 C 30.75272 81.05695 32.80217 81.05695 34.08015 81.05695 C 35.35814 81.05695 37.40758 81.05695 38.68556 81.05695 C 39.96355 81.05695 42.013 81.05695 43.29099 81.05695 C 44.56897 81.05695 46.61842 81.05695 47.89641 81.05695 C 49.1744 81.05695 51.22383 81.05695 52.50182 81.05695 C 53.7798 81.05695 55.82925 81.05695 57.10724 81.05695 C 58.38522 81.05695 60.43468 81.05695 61.71266 81.05695 C 62.99065 81.05695 65.0401 81.05695 66.31808 81.05695 C 67.59607 81.05695 69.64551 81.05695 70.9235 81.05695 C 72.20148 81.05695 74.25095 81.05695 75.52893 81.05695 C 76.80692 81.05695 78.85637 81.05695 80.13435 81.05695 C 81.41234 81.05695 83.46178 81.05695 84.73976 81.05695 C 86.01775 81.05695 88.0672 81.05695 89.34518 81.05695 C 90.62317 81.05695 92.67262 81.05695 93.9506 81.05695 C 95.22859 81.05695 97.27803 81.05695 98.55602 81.05695 C 99.834 81.05695 101.88345 81.05695 103.16144 81.05695 C 104.43942 81.05695 106.48888 81.05695 107.76686 81.05695 C 109.04485 81.05695 111.0943 81.05695 112.37228 81.05695 C 113.65027 81.05695 115.6997 81.05695 116.97769 81.05695 C 118.25568 81.05695 121.58311 81.05695 121.58311 81.05695 "/>
<path transform="matrix(1,0,0,-1,3.153,256.442)" stroke-width="1" stroke-linecap="butt" stroke-miterlimit="10" stroke-linejoin="miter" fill="none" stroke="#000080" d="M 121.58359 121.58542 C 121.58359 121.58542 124.91101 121.58542 126.189 121.58542 C 127.46698 121.58542 129.51644 121.58542 130.79442 121.58542 C 132.0724 121.58542 134.12186 121.58542 135.39984 121.58542 C 136.67783 121.58542 138.72728 121.58542 140.00527 121.58542 C 141.28325 121.58542 143.3327 121.58542 144.61069 121.58542 C 145.88867 121.58542 147.93813 121.58542 149.21611 121.58542 C 150.4941 121.58542 152.54354 121.58542 153.82152 121.58542 C 155.0995 121.58542 157.14896 121.58542 158.42694 121.58542 C 159.70493 121.58542 161.75438 121.58542 163.03237 121.58542 C 164.31035 121.58542 166.3598 121.58542 167.63779 121.58542 C 168.91577 121.58542 170.96521 121.58542 172.2432 121.58542 C 173.52118 121.58542 175.57064 121.58542 176.84862 121.58542 C 178.1266 121.58542 180.17606 121.58542 181.45404 121.58542 C 182.73203 121.58542 184.78147 121.58542 186.05945 121.58542 C 187.33744 121.58542 189.38689 121.58542 190.66487 121.58542 C 191.94286 121.58542 193.99231 121.58542 195.2703 121.58542 C 196.54828 121.58542 198.59774 121.58542 199.87572 121.58542 C 201.1537 121.58542 203.20316 121.58542 204.48114 121.58542 C 205.75913 121.58542 207.80858 121.58542 209.08657 121.58542 C 210.36455 121.58542 212.414 121.58542 213.69199 121.58542 C 214.96997 121.58542 217.01941 121.58542 218.2974 121.58542 C 219.57538 121.58542 221.62483 121.58542 222.90282 121.58542 C 224.1808 121.58542 226.23026 121.58542 227.50824 121.58542 C 228.78623 121.58542 232.11365 121.58542 232.11365 121.58542 "/>
<symbol id="font_1_2">
<path d="M .439 .38300003 C .439 .43700005 .41300003 .45300005 .395 .45300005 C .37 .45300005 .34600003 .42700003 .34600003 .40500004 C .34600003 .39200003 .351 .38600005 .36200003 .37500004 C .38300003 .35500003 .396 .32900004 .396 .293 C .396 .25100003 .335 .022000002 .21800001 .022000002 C .16700001 .022000002 .14400001 .057000005 .14400001 .109000008 C .14400001 .16500002 .171 .23800002 .202 .321 C .209 .33800004 .21400002 .35200004 .21400002 .37100003 C .21400002 .41600005 .18200001 .45300005 .13200002 .45300005 C .038000004 .45300005 0 .30800004 0 .29900003 C 0 .28900004 .01 .28900004 .012 .28900004 C .022000002 .28900004 .023 .291 .028000003 .307 C .057000005 .40800003 .10000001 .43100003 .12900001 .43100003 C .13700001 .43100003 .15400002 .43100003 .15400002 .39900003 C .15400002 .374 .14400001 .34700004 .13700001 .32900004 C .09300001 .21300002 .080000009 .16700001 .080000009 .124000009 C .080000009 .016 .16800002 0 .21400002 0 C .382 0 .439 .33100004 .439 .38300003 Z "/>
</symbol>
<use xlink:href="#font_1_2" transform="matrix(9.9626,0,0,-9.9626,52.928915,192.98159)"/>
<symbol id="font_2_2">
<path d="M .23200003 .00999999 C .23200003 .012999982 .23200003 .014999986 .215 .03199999 C .09 .15799999 .058 .347 .058 .5 C .058 .674 .096 .84800007 .21900001 .97300007 C .23200003 .985 .23200003 .98700007 .23200003 .99 C .23200003 .99700006 .22800002 1 .222 1 C .21200001 1 .12200001 .93200007 .06299999 .805 C .012000002 .69500008 0 .584 0 .5 C 0 .422 .011 .301 .066 .188 C .126 .065 .21200001 0 .222 0 C .22800002 0 .23200003 .0029999912 .23200003 .00999999 Z "/>
</symbol>
<symbol id="font_2_4">
<path d="M .421 .34200005 C .421 .42200003 .416 .50200006 .381 .57600006 C .335 .67200008 .25300003 .688 .211 .688 C .15100001 .688 .07800001 .66200008 .037000006 .56900009 C .0050000029 .5 0 .42200003 0 .34200005 C 0 .26700003 .0040000008 .177 .045000007 .101 C .088 .020000002 .161 0 .21000001 0 C .264 0 .34 .021000002 .384 .116000007 C .416 .185 .421 .263 .421 .34200005 M .21000001 .022000002 C .171 .022000002 .112 .047000003 .094 .143 C .083000008 .20300001 .083000008 .29500003 .083000008 .35400004 C .083000008 .41800005 .083000008 .48400004 .091000009 .53800007 C .11 .65700009 .185 .66600009 .21000001 .66600009 C .243 .66600009 .30900003 .64800009 .328 .549 C .338 .49300004 .338 .41700004 .338 .35400004 C .338 .279 .338 .21100001 .32700003 .147 C .312 .052 .255 .022000002 .21000001 .022000002 Z "/>
</symbol>
<symbol id="font_2_3">
<path d="M .232 .5 C .232 .578 .22100002 .699 .16600001 .81200006 C .106 .93500009 .020000004 1 .009999998 1 C .0040000008 1 0 .99600008 0 .99 C 0 .98700007 0 .985 .019000002 .967 C .117000009 .86800006 .174 .709 .174 .5 C .174 .329 .137 .153 .012999997 .026999996 C 0 .014999986 0 .012999982 0 .00999999 C 0 .003999993 .0040000008 0 .009999998 0 C .020000004 0 .11000001 .06799999 .169 .195 C .22 .305 .232 .416 .232 .5 Z "/>
</symbol>
<symbol id="font_2_1">
<path d="M .39500005 .698 C .38800005 .711 .38600005 .716 .36900003 .716 C .35200004 .716 .35000003 .711 .34300003 .698 L .004999999 .020000002 C 0 .011000001 0 .009000001 0 .008 C 0 0 .006000001 0 .022000004 0 L .716 0 C .73200008 0 .73800006 0 .73800006 .008 C .73800006 .009000001 .73800006 .011000001 .73300006 .020000002 L .39500005 .698 M .337 .61600008 L .60600009 .076000008 L .067 .076000008 L .337 .61600008 Z "/>
</symbol>
<use xlink:href="#font_2_2" transform="matrix(9.9626,0,0,-9.9626,58.812299,195.36264)"/>
<use xlink:href="#font_2_4" transform="matrix(9.9626,0,0,-9.9626,62.089994,193.09117)"/>
<use xlink:href="#font_2_3" transform="matrix(9.9626,0,0,-9.9626,67.25062,195.36264)"/>
<use xlink:href="#font_2_1" transform="matrix(9.9626,0,0,-9.9626,71.026439,192.872)"/>
<symbol id="font_1_1">
<path d="M .18300002 .411 L .277 .411 C .29700003 .411 .307 .411 .307 .43100003 C .307 .44200004 .29700003 .44200004 .279 .44200004 L .19100002 .44200004 C .227 .584 .23200003 .60400006 .23200003 .61 C .23200003 .62700006 .22000002 .637 .20300001 .637 C .2 .637 .172 .636 .163 .601 L .124 .44200004 L .030000002 .44200004 C .009999998 .44200004 0 .44200004 0 .42300005 C 0 .411 .007999999 .411 .028 .411 L .11600001 .411 C .044 .127 .04 .11000001 .04 .092 C .04 .038000004 .078 0 .132 0 C .234 0 .291 .14600002 .291 .15400002 C .291 .16400002 .28300003 .16400002 .279 .16400002 C .27 .16400002 .26900003 .16100002 .264 .15000002 C .22100002 .046 .16800002 .022000002 .134 .022000002 C .113000009 .022000002 .103 .035 .103 .068 C .103 .092 .105000007 .09900001 .109 .116000007 L .18300002 .411 Z "/>
</symbol>
<use xlink:href="#font_1_1" transform="matrix(9.9626,0,0,-9.9626,79.08814,192.98159)"/>
<use xlink:href="#font_1_2" transform="matrix(9.9626,0,0,-9.9626,163.45792,192.98159)"/>
<symbol id="font_2_5">
<path d="M .07700001 .07700001 L .18300002 .18 C .33900003 .31800003 .39900003 .372 .39900003 .47200004 C .39900003 .586 .30900003 .666 .18700002 .666 C .074 .666 0 .574 0 .485 C 0 .42900003 .05 .42900003 .053000008 .42900003 C .07000001 .42900003 .105000007 .441 .105000007 .48200003 C .105000007 .508 .08700001 .53400006 .052000006 .53400006 C .044000005 .53400006 .042000008 .53400006 .039 .53300008 C .062000004 .59800007 .11600001 .63500007 .17400001 .63500007 C .26500003 .63500007 .308 .554 .308 .47200004 C .308 .39200003 .25800003 .31300003 .20300003 .25100003 L .011000004 .037 C 0 .026 0 .024 0 0 L .37100003 0 L .39900003 .17400001 L .374 .17400001 C .36900003 .14400001 .36200003 .1 .352 .085 C .345 .07700001 .279 .07700001 .257 .07700001 L .07700001 .07700001 Z "/>
</symbol>
<use xlink:href="#font_2_2" transform="matrix(9.9626,0,0,-9.9626,169.3423,195.36264)"/>
<use xlink:href="#font_2_5" transform="matrix(9.9626,0,0,-9.9626,172.72959,192.872)"/>
<use xlink:href="#font_2_3" transform="matrix(9.9626,0,0,-9.9626,177.78063,195.36264)"/>
<use xlink:href="#font_2_1" transform="matrix(9.9626,0,0,-9.9626,181.55646,192.872)"/>
<use xlink:href="#font_1_1" transform="matrix(9.9626,0,0,-9.9626,189.61714,192.98159)"/>
<symbol id="font_1_3">
<path d="M .45700003 .586 C .461 .6 .461 .602 .461 .609 C .461 .62700006 .447 .63600006 .432 .63600006 C .42200003 .63600006 .40600003 .63 .397 .615 C .395 .61 .387 .579 .38300003 .561 C .37600003 .535 .36900003 .508 .363 .48100005 L .318 .301 C .314 .286 .271 .21600002 .20500002 .21600002 C .15400002 .21600002 .143 .26000003 .143 .29700003 C .143 .34300003 .16000001 .40500004 .194 .49300004 C .21000001 .53400006 .21400002 .545 .21400002 .56500008 C .21400002 .61 .18200001 .6470001 .13200002 .6470001 C .037 .6470001 0 .50200006 0 .49300004 C 0 .48300005 .01 .48300005 .012 .48300005 C .022000002 .48300005 .023 .485 .028000003 .50100007 C .055000009 .595 .095000009 .625 .12900001 .625 C .13700001 .625 .15400002 .625 .15400002 .59300008 C .15400002 .568 .14400001 .54200008 .13700001 .523 C .097 .41700004 .079 .36 .079 .31300003 C .079 .224 .142 .194 .201 .194 C .24000003 .194 .274 .21100001 .30200003 .23900002 C .289 .187 .277 .13800001 .237 .08500001 C .21100001 .051 .17300001 .022 .127 .022 C .113000009 .022 .068 .025000006 .051000008 .06400001 C .067 .06400001 .080000009 .06400001 .094000007 .076000008 C .104 .08500001 .11400001 .098000008 .11400001 .117000009 C .11400001 .148 .087000008 .15200001 .07700001 .15200001 C .054000006 .15200001 .021 .136 .021 .087000008 C .021 .037 .065000008 0 .127 0 C .23 0 .333 .091000009 .361 .20400001 L .45700003 .586 Z "/>
</symbol>
<use xlink:href="#font_1_3" transform="matrix(9.9626,0,0,-9.9626,141.63692,73.33033)"/>
<symbol id="font_2_6">
<path d="M .63100007 .19400002 C .646 .19400002 .665 .19400002 .665 .214 C .665 .23400001 .646 .23400001 .632 .23400001 L .033 .23400001 C .019000002 .23400001 0 .23400001 0 .214 C 0 .19400002 .019000002 .19400002 .034 .19400002 L .63100007 .19400002 M .632 0 C .646 0 .665 0 .665 .02000001 C .665 .040000008 .646 .040000008 .63100007 .040000008 L .034 .040000008 C .019000002 .040000008 0 .040000008 0 .02000001 C 0 0 .019000002 0 .033 0 L .632 0 Z "/>
</symbol>
<use xlink:href="#font_2_6" transform="matrix(9.9626,0,0,-9.9626,149.91492,69.96297)"/>
<use xlink:href="#font_1_2" transform="matrix(9.9626,0,0,-9.9626,160.16193,71.39758)"/>
<use xlink:href="#font_2_2" transform="matrix(9.9626,0,0,-9.9626,166.04631,73.77864)"/>
<use xlink:href="#font_1_1" transform="matrix(9.9626,0,0,-9.9626,169.16315,71.39758)"/>
<use xlink:href="#font_2_3" transform="matrix(9.9626,0,0,-9.9626,173.09989,73.77864)"/>
</g>
<path transform="matrix(1,0,0,-1,3.153,256.442)" stroke-width="1" stroke-linecap="butt" stroke-miterlimit="10" stroke-linejoin="miter" fill="none" stroke="#808080" d="M 66.31831 38.40247 L 66.31831 42.65445 M 121.58359 38.40247 L 121.58359 42.65445 M 176.84886 38.40247 L 176.84886 42.65445 M 232.11414 38.40247 L 232.11414 42.65445 "/>
<path transform="matrix(1,0,0,-1,3.153,256.442)" stroke-width="1" stroke-linecap="butt" stroke-miterlimit="10" stroke-linejoin="miter" fill="none" stroke="#808080" d="M 8.92693 81.05695 L 13.17915 81.05695 M 8.92693 121.58542 L 13.17915 121.58542 M 8.92693 162.11389 L 13.17915 162.11389 M 8.92693 202.64237 L 13.17915 202.64237 M 8.92693 243.17084 L 13.17915 243.17084 "/>
<path transform="matrix(1,0,0,-1,3.153,256.442)" stroke-width="1" stroke-linecap="butt" stroke-miterlimit="10" stroke-linejoin="miter" fill="none" stroke="#000000" d="M 0 40.52847 L 241.17467 40.52847 "/>
<path transform="matrix(1,0,0,-1,244.32767,215.91352)" d="M 1.99252 0 L -1.19551 1.59401 L 0 0 L -1.19551 -1.59401 "/>
<path transform="matrix(1,0,0,-1,3.153,256.442)" stroke-width="1" stroke-linecap="butt" stroke-miterlimit="10" stroke-linejoin="miter" fill="none" stroke="#000000" d="M 11.05304 0 L 11.05304 241.17832 "/>
<path transform="matrix(0,-1,-1,-0,14.206039,15.263672)" d="M 1.99252 0 L -1.19551 1.59401 L 0 0 L -1.19551 -1.59401 "/>
<symbol id="font_3_1">
<path d="M .34100003 .64100006 C .342 .64400008 .344 .652 .344 .65400007 C .344 .66200008 .338 .666 .33200003 .666 C .326 .666 .32500003 .665 .313 .65000006 C .236 .54700008 .16600001 .54 .137 .537 C .132 .536 .121 .535 .121 .518 C .121 .50600007 .13299999 .50600007 .137 .50600007 C .15200001 .50600007 .201 .512 .248 .54700008 L .13 .07300001 C .122 .041 .114 .031000002 .036000007 .031000002 L .028000005 .031000002 C .011 .031000002 0 .031000002 0 .012 C 0 0 .011 0 .014999993 0 C .058000007 0 .10300001 .003 .146 .003 C .19 .003 .236 0 .28 0 C .287 0 .3 0 .3 .019000002 C .3 .031000002 .29 .031000002 .27400003 .031000002 L .266 .031000002 C .253 .031000002 .236 .032 .22299999 .033 C .201 .036000004 .195 .037 .195 .051000004 C .195 .057000005 .197 .066 .19800002 .07 L .34100003 .64100006 Z "/>
</symbol>
<use xlink:href="#font_3_1" transform="matrix(9.9626,0,0,-9.9626,68.08963,228.05399)"/>
<symbol id="font_3_2">
<path d="M .068 .096 C .118 .18200001 .191 .223 .22200002 .24100001 C .376 .32800005 .467 .39000006 .467 .519 C .467 .63400009 .389 .688 .311 .688 C .163 .688 .081 .48600004 .081 .42100004 C .081 .40100003 .087 .35800005 .132 .35800005 C .21100001 .35800005 .25300003 .47800005 .25300003 .51600006 C .25300003 .53400006 .244 .56900009 .23100002 .56900009 C .22500001 .56900009 .22000002 .56400009 .22000002 .558 C .22000002 .55600008 .22000002 .554 .221 .55200007 C .22700002 .54 .23100002 .527 .23100002 .51500007 C .23100002 .48600004 .19400002 .38000003 .133 .38000003 C .12100001 .38000003 .111 .38500003 .111 .41300006 C .111 .47800005 .186 .66600009 .30800004 .66600009 C .34900005 .66600009 .39600004 .63900008 .39600004 .55600008 C .39600004 .41100005 .30900003 .32700003 .21 .268 C .165 .24100001 .12300001 .21700001 .081 .165 C .011 .08100001 0 .011000001 0 .010000002 C 0 0 .009999998 0 .015000001 0 C .027000003 0 .029 .0020000004 .031999999 .013000001 C .04 .041 .058 .07700001 .088 .07700001 C .120000008 .07700001 .148 .057000005 .173 .040000004 C .19900002 .022000002 .23 0 .26999999 0 C .385 0 .43100006 .17400001 .43100006 .185 C .43100006 .19500001 .42300005 .19500001 .416 .19500001 C .40400005 .19500001 .403 .194 .399 .178 C .385 .13700001 .34600003 .07 .27899999 .07 C .251 .07 .212 .078 .196 .082 C .16000001 .09 .12100001 .09900001 .09 .09900001 C .078999999 .09900001 .07000001 .097 .068 .096 Z "/>
</symbol>
<use xlink:href="#font_3_2" transform="matrix(9.9626,0,0,-9.9626,123.02586,228.27317)"/>
<symbol id="font_3_3">
<path d="M .20900002 .37200005 C .192 .37200005 .18300003 .37200005 .18300003 .35100005 C .18300003 .34100003 .19100002 .34100003 .208 .34100003 L .23600003 .34100003 C .25500003 .34100003 .31300003 .33900003 .31300003 .25800003 C .31300003 .24000001 .30400003 .141 .252 .08100001 C .224 .047000003 .178 .022000002 .13300002 .022000002 C .083 .022000002 .033 .052 .030999996 .126 C .07400001 .122 .087000008 .15900001 .087000008 .17400001 C .087000008 .19000001 .076 .20600002 .052999997 .20600002 C .0019999967 .20600002 0 .14600002 0 .128 C 0 .060000004 .048 0 .13300002 0 C .259 0 .38500003 .105000007 .38500003 .22500001 C .38500003 .24400002 .381 .31700004 .305 .35200004 C .409 .38700003 .46700005 .47800005 .46700005 .554 C .46700005 .63900008 .402 .688 .32400004 .688 C .20500002 .688 .10400001 .58300009 .10400001 .49800004 C .10400001 .46300004 .123 .43400005 .16000003 .43400005 C .19700003 .43400005 .24300003 .46900005 .24300003 .519 C .24300003 .53800007 .23200003 .56900009 .22000003 .56900009 C .21400002 .56900009 .20900002 .56400009 .20900002 .558 C .20900002 .55500009 .21000001 .55300006 .21300003 .54700008 C .21400002 .54600009 .22100002 .53300008 .22100002 .518 C .22100002 .48400004 .18900001 .45600004 .16000003 .45600004 C .14000002 .45600004 .134 .47500003 .134 .49300004 C .134 .572 .22500003 .66600009 .32200004 .66600009 C .35900004 .66600009 .40700004 .64800009 .40700004 .57600006 C .40700004 .56000009 .397 .37200005 .23200003 .37200005 L .20900002 .37200005 Z "/>
</symbol>
<use xlink:href="#font_3_3" transform="matrix(9.9626,0,0,-9.9626,178.40044,228.27317)"/>
<symbol id="font_3_4">
<path d="M .36900003 .389 C .37300004 .404 .37300004 .40600003 .37300004 .409 C .37300004 .435 .349 .43600003 .34600003 .43600003 C .316 .43600003 .31 .41000004 .30600003 .393 C .303 .38300003 .26500003 .23300001 .26400004 .227 C .19100002 .25300003 .23200003 .24000001 .20300001 .25 C .16600001 .261 .149 .261 .127 .261 C .11500001 .261 .113000009 .261 .10000001 .26 C .37000004 .51 .42800004 .83300009 .42800004 .83400008 C .42800004 .855 .411 .86 .40100003 .86 C .372 .86 .36600004 .837 .35900004 .81000009 C .326 .68500009 .282 .56500008 .21100003 .44900004 C .13200002 .321 .043 .25100003 .039 .24800001 C .032 .245 0 .22800002 0 .21200001 C 0 .208 .0069999995 .19500001 .015000001 .19500001 C .021000002 .19500001 .036000004 .207 .047000003 .215 C .055999999 .223 .065 .23 .12400001 .23 C .142 .23 .16200002 .23 .19700001 .21900001 C .21000001 .214 .23400003 .20400001 .256 .19600001 L .21900001 .047000007 C .215 .032000007 .215 .030000002 .215 .025999994 C .215 .004999995 .23200003 0 .24200002 0 C .261 0 .27400003 .0109999929 .28 .033999996 L .31700004 .18 C .323 .179 .33100004 .179 .337 .179 C .365 .179 .43000005 .192 .43000005 .208 C .43000005 .213 .42400003 .22500001 .41500003 .22500001 C .41300003 .22500001 .411 .22500001 .40100003 .221 C .38300003 .214 .358 .21000001 .34100003 .21000001 C .33400003 .21000001 .33 .21000001 .32500003 .21100001 L .36900003 .389 Z "/>
</symbol>
<use xlink:href="#font_3_4" transform="matrix(9.9626,0,0,-9.9626,233.15636,229.98673)"/>
<use xlink:href="#font_3_1" transform="matrix(9.9626,0,0,-9.9626,4.559624,178.596)"/>
<use xlink:href="#font_3_2" transform="matrix(9.9626,0,0,-9.9626,4.2308585,138.28717)"/>
<use xlink:href="#font_3_3" transform="matrix(9.9626,0,0,-9.9626,4.340447,97.75917)"/>
<use xlink:href="#font_3_4" transform="matrix(9.9626,0,0,-9.9626,3.8323546,57.976736)"/>
<symbol id="font_3_5">
<path d="M .182 .58000007 C .18500002 .591 .186 .59200009 .18699999 .59200009 C .18800001 .59200009 .19000001 .59200009 .2 .58900007 C .219 .582 .242 .58000007 .26200003 .58000007 C .37200005 .58000007 .46000005 .66300007 .46000005 .67800006 C .46000005 .68500009 .45400007 .68700006 .45100004 .68700006 C .448 .68700006 .444 .68600007 .439 .6840001 C .39400006 .66400006 .34900005 .656 .31 .656 C .26600004 .656 .22700002 .66600009 .198 .68200007 C .19200002 .68500009 .18800001 .68700006 .184 .68700006 C .177 .68700006 .175 .68100008 .172 .67 L .096 .36600004 C .095 .36300005 .094 .35500003 .094 .35300005 C .094 .34300003 .100999999 .34100003 .10700001 .34100003 C .11400001 .34100003 .116 .34400005 .122999999 .35100005 C .17400001 .41100005 .22900002 .42000006 .25800003 .42000006 C .29900003 .42000006 .319 .38500003 .319 .33100004 C .319 .27600003 .29000003 .171 .269 .13100001 C .22500001 .050000006 .166 .028 .12900001 .028 C .092999998 .028 .032000007 .048 .031000004 .14500001 C .033999996 .14400001 .036 .14400001 .040999995 .14400001 C .075 .14400001 .094 .17300001 .094 .19600001 C .094 .216 .081 .23 .058 .23 C .0059999974 .23 0 .171 0 .13900002 C 0 .06600001 .042999999 0 .12900001 0 C .25700004 0 .39100004 .135 .39100004 .28700004 C .39100004 .36600004 .347 .44200004 .26 .44200004 C .214 .44200004 .173 .42500005 .136 .39600004 L .182 .58000007 Z "/>
</symbol>
<use xlink:href="#font_3_5" transform="matrix(9.9626,0,0,-9.9626,4.459998,16.70317)"/>
<use xlink:href="#font_1_1" transform="matrix(9.9626,0,0,-9.9626,250.17714,219.08158)"/>
<use xlink:href="#font_1_3" transform="matrix(9.9626,0,0,-9.9626,11.875916,9.726324)"/>
</svg>
