<?xml version="1.0" encoding="UTF-8" standalone="no"?>
<!DOCTYPE svg PUBLIC "-//W3C//DTD SVG 1.1//EN" "http://www.w3.org/Graphics/SVG/1.1/DTD/svg11.dtd">
<svg xmlns="http://www.w3.org/2000/svg" xmlns:xlink="http://www.w3.org/1999/xlink" version="1.1" width="207.027pt" height="174.695pt" viewBox="0 0 207.027 174.695">
<clipPath id="cp0">
<path transform="matrix(1,0,0,-1,.199,174.496)" d="M 0 0 L 194.2676 0 L 194.2676 161.39568 L 0 161.39568 Z "/>
</clipPath>
<g clip-path="url(#cp0)">
<path transform="matrix(1,0,0,-1,.199,174.496)" stroke-width="1.19553" stroke-linecap="butt" stroke-miterlimit="10" stroke-linejoin="miter" fill="none" stroke="#000080" d="M 0 57.56746 C 0 57.56746 5.84828 57.60393 8.09447 57.62276 C 10.34065 57.64159 13.94278 57.67581 16.18896 57.70322 C 18.43515 57.73064 22.03725 57.78044 24.28343 57.82033 C 26.52962 57.8602 30.13174 57.93266 32.37793 57.99068 C 34.62411 58.04869 38.22621 58.15407 40.4724 58.23853 C 42.71858 58.323 46.32071 58.47661 48.5669 58.59943 C 50.81308 58.72224 54.41519 58.94505 56.66136 59.12376 C 58.90755 59.30249 62.50967 59.6274 64.75586 59.88751 C 67.00204 60.14764 70.60416 60.62013 72.85034 60.99857 C 75.09651 61.37701 78.69864 62.06444 80.94482 62.61505 C 83.19101 63.16566 86.79312 64.16606 89.0393 64.96704 C 91.28549 65.76802 94.8876 67.22263 97.13379 68.38799 C 99.37997 69.55336 102.98209 71.67056 105.22827 73.3663 C 107.47446 75.06206 111.07658 78.14253 113.32275 80.60985 C 115.56894 83.07716 119.17105 87.55907 121.41724 91.14905 C 123.66342 94.73903 127.26555 101.26053 129.51174 106.48392 C 131.7579 111.70732 135.36002 121.1958 137.6062 128.79572 C 139.85239 136.39563 143.45452 150.20099 145.7007 161.25878 C 147.94689 172.31656 151.54898 192.40396 153.79517 208.49257 C 156.04135 224.58118 159.64348 253.8053 161.88967 277.2143 C 164.13585 300.6233 167.73795 343.14768 169.98413 377.2085 C 172.23032 411.26933 175.83245 473.14335 178.07863 522.701 C 180.32482 572.2586 183.92693 662.27969 186.17311 734.3854 C 188.41928 806.491 194.2676 1042.3884 194.2676 1042.3884 "/>
<path transform="matrix(1,0,0,-1,.199,174.496)" stroke-width="1.19553" stroke-linecap="butt" stroke-miterlimit="10" stroke-linejoin="miter" fill="none" stroke="#800000" d="M 0 19.14864 C 0 19.14864 5.84828 22.11327 8.09447 23.2519 C 10.34065 24.39055 13.94278 26.21655 16.18896 27.3552 C 18.43515 28.49384 22.03725 30.31982 24.28343 31.45847 C 26.52962 32.5971 30.13174 34.42311 32.37793 35.56175 C 34.62411 36.7004 38.22621 38.52638 40.4724 39.66502 C 42.71858 40.80367 46.32071 42.62967 48.5669 43.76831 C 50.81308 44.90695 54.41519 46.73294 56.66136 47.87158 C 58.90755 49.01022 62.50967 50.83623 64.75586 51.97487 C 67.00204 53.11351 70.60416 54.9395 72.85034 56.07814 C 75.09651 57.21678 78.69864 59.04279 80.94482 60.18143 C 83.19101 61.32007 86.79312 63.14606 89.0393 64.2847 C 91.28549 65.42336 94.8876 67.24934 97.13379 68.38799 C 99.37997 69.52664 102.98209 71.35262 105.22827 72.49127 C 107.47446 73.62991 111.07658 75.4559 113.32275 76.59456 C 115.56894 77.7332 119.17105 79.55919 121.41724 80.69783 C 123.66342 81.83647 127.26555 83.66248 129.51174 84.80112 C 131.7579 85.93976 135.36002 87.76575 137.6062 88.90439 C 139.85239 90.04303 143.45452 91.86903 145.7007 93.00768 C 147.94689 94.14632 151.54898 95.9723 153.79517 97.11095 C 156.04135 98.24959 159.64348 100.07559 161.88967 101.21423 C 164.13585 102.35287 167.73795 104.17886 169.98413 105.3175 C 172.23032 106.45615 175.83245 108.28215 178.07863 109.42079 C 180.32482 110.55943 183.92693 112.38542 186.17311 113.52406 C 188.41928 114.6627 194.2676 117.62735 194.2676 117.62735 "/>
<path transform="matrix(1,0,0,-1,.199,174.496)" stroke-width="1.19553" stroke-linecap="butt" stroke-miterlimit="10" stroke-linejoin="miter" fill="none" stroke="#008000" d="M 0 129.93718 C 0 129.93718 5.84828 119.90332 8.09447 116.34506 C 10.34065 112.78682 13.94278 107.42296 16.18896 104.29169 C 18.43515 101.16042 22.03725 96.48131 24.28343 93.77702 C 26.52962 91.07275 30.13174 87.0784 32.37793 84.80112 C 34.62411 82.52382 38.22621 79.2142 40.4724 77.3639 C 42.71858 75.51361 46.32071 72.88875 48.5669 71.46545 C 50.81308 70.04214 54.41519 68.10202 56.66136 67.10571 C 58.90755 66.1094 62.50967 64.85402 64.75586 64.2847 C 67.00204 63.7154 70.60416 63.14476 72.85034 63.00243 C 75.09651 62.8601 78.69864 62.97423 80.94482 63.2589 C 83.19101 63.54355 86.79312 64.34242 89.0393 65.05408 C 91.28549 65.76573 94.8876 67.24934 97.13379 68.38799 C 99.37997 69.52664 102.98209 71.695 105.22827 73.26064 C 107.47446 74.82628 111.07658 77.6794 113.32275 79.67201 C 115.56894 81.66463 119.17105 85.2025 121.41724 87.62212 C 123.66342 90.04172 127.26555 94.26434 129.51174 97.11095 C 131.7579 99.95755 135.36002 104.86491 137.6062 108.1385 C 139.85239 111.4121 143.45452 117.00423 145.7007 120.7048 C 147.94689 124.4054 151.54898 130.68225 153.79517 134.80983 C 156.04135 138.93741 159.64348 145.89902 161.88967 150.4536 C 164.13585 155.00817 167.73795 162.6545 169.98413 167.63607 C 172.23032 172.61763 175.83245 180.94873 178.07863 186.35729 C 180.32482 191.76586 183.92693 200.78168 186.17311 206.61722 C 188.41928 212.45278 194.2676 228.41591 194.2676 228.41591 "/>
<symbol id="font_1_4">
<path d="M .45700003 .586 C .461 .6 .461 .602 .461 .609 C .461 .62700006 .447 .63600006 .432 .63600006 C .42200003 .63600006 .40600003 .63 .397 .615 C .395 .61 .387 .579 .38300003 .561 C .37600003 .535 .36900003 .508 .363 .48100005 L .318 .301 C .314 .286 .271 .21600002 .20500002 .21600002 C .15400002 .21600002 .143 .26000003 .143 .29700003 C .143 .34300003 .16000001 .40500004 .194 .49300004 C .21000001 .53400006 .21400002 .545 .21400002 .56500008 C .21400002 .61 .18200001 .6470001 .13200002 .6470001 C .037 .6470001 0 .50200006 0 .49300004 C 0 .48300005 .01 .48300005 .012 .48300005 C .022000002 .48300005 .023 .485 .028000003 .50100007 C .055000009 .595 .095000009 .625 .12900001 .625 C .13700001 .625 .15400002 .625 .15400002 .59300008 C .15400002 .568 .14400001 .54200008 .13700001 .523 C .097 .41700004 .079 .36 .079 .31300003 C .079 .224 .142 .194 .201 .194 C .24000003 .194 .274 .21100001 .30200003 .23900002 C .289 .187 .277 .13800001 .237 .08500001 C .21100001 .051 .17300001 .022 .127 .022 C .113000009 .022 .068 .025000006 .051000008 .06400001 C .067 .06400001 .080000009 .06400001 .094000007 .076000008 C .104 .08500001 .11400001 .098000008 .11400001 .117000009 C .11400001 .148 .087000008 .15200001 .07700001 .15200001 C .054000006 .15200001 .021 .136 .021 .087000008 C .021 .037 .065000008 0 .127 0 C .23 0 .333 .091000009 .361 .20400001 L .45700003 .586 Z "/>
</symbol>
<use xlink:href="#font_1_4" transform="matrix(9.9626,0,0,-9.9626,103.12991,34.892339)" fill="#000080"/>
<symbol id="font_2_8">
<path d="M .63100007 .19400002 C .646 .19400002 .665 .19400002 .665 .214 C .665 .23400001 .646 .23400001 .632 .23400001 L .033 .23400001 C .019000002 .23400001 0 .23400001 0 .214 C 0 .19400002 .019000002 .19400002 .034 .19400002 L .63100007 .19400002 M .632 0 C .646 0 .665 0 .665 .02000001 C .665 .040000008 .646 .040000008 .63100007 .040000008 L .034 .040000008 C .019000002 .040000008 0 .040000008 0 .02000001 C 0 0 .019000002 0 .033 0 L .632 0 Z "/>
</symbol>
<use xlink:href="#font_2_8" transform="matrix(9.9626,0,0,-9.9626,111.407909,31.52498)" fill="#000080"/>
<symbol id="font_1_1">
<path d="M .141 .24200002 C .17 .24200002 .24400002 .24400002 .294 .26500003 C .36400003 .29500003 .36900003 .35400004 .36900003 .36800004 C .36900003 .41200004 .331 .45300005 .26200003 .45300005 C .15100001 .45300005 0 .35600005 0 .18100001 C 0 .079 .059 0 .157 0 C .3 0 .384 .106000009 .384 .11800001 C .384 .124000009 .37800003 .13100001 .372 .13100001 C .367 .13100001 .365 .12900001 .35900004 .12100001 C .28 .022000002 .171 .022000002 .15900001 .022000002 C .081 .022000002 .072000008 .106000009 .072000008 .13800001 C .072000008 .15000002 .073 .18100001 .088 .24200002 L .141 .24200002 M .094 .26400004 C .133 .41600005 .236 .43100003 .26200003 .43100003 C .30900003 .43100003 .33600004 .40200005 .33600004 .36800004 C .33600004 .26400004 .17600002 .26400004 .135 .26400004 L .094 .26400004 Z "/>
</symbol>
<use xlink:href="#font_1_1" transform="matrix(9.9626,0,0,-9.9626,121.82428,32.959596)" fill="#000080"/>
<symbol id="font_3_2">
<path d="M .442 .18200001 L .40800003 .18200001 C .40500004 .16000001 .39500005 .101 .38200004 .091000009 C .374 .085 .29700003 .085 .28300003 .085 L .099 .085 C .20400003 .178 .23900002 .20600002 .29900003 .25300003 C .37300004 .312 .442 .374 .442 .469 C .442 .59000006 .33600004 .66400006 .20800004 .66400006 C .084 .66400006 0 .577 0 .485 C 0 .43400003 .043000007 .42900003 .053000004 .42900003 C .077 .42900003 .10600001 .446 .10600001 .48200003 C .10600001 .5 .099 .535 .047000007 .535 C .078 .606 .146 .628 .19300002 .628 C .293 .628 .34500004 .55 .34500004 .469 C .34500004 .38200004 .28300003 .31300003 .25100003 .277 L .010000005 .039 C 0 .030000002 0 .028 0 0 L .41200004 0 L .442 .18200001 Z "/>
</symbol>
<use xlink:href="#font_3_2" transform="matrix(6.9738,0,0,-6.9738,126.44434,28.737)" fill="#000080"/>
<symbol id="font_4_1">
<path d="M .201 .116000007 C .19100002 .082 .15800002 .028 .107 .028 C .10400001 .028 .07400001 .028 .053000004 .042000005 C .094000007 .055000005 .09700001 .091 .09700001 .097 C .09700001 .119 .080000009 .134 .057000005 .134 C .029000007 .134 0 .11 0 .073 C 0 .023000002 .056 0 .10500001 0 C .15100003 0 .192 .029000003 .21700001 .071 C .241 .018000002 .296 0 .336 0 C .451 0 .512 .125 .512 .15300001 C .512 .16600001 .49900005 .16600001 .49600003 .16600001 C .48200003 .16600001 .48100005 .16100002 .47700004 .14900002 C .456 .08 .39600004 .028 .34 .028 C .3 .028 .279 .055000005 .279 .093 C .279 .119 .303 .21000001 .331 .321 C .351 .398 .39600004 .423 .42900003 .423 C .43100003 .423 .46200005 .423 .483 .409 C .451 .4 .439 .372 .439 .354 C .439 .33200003 .456 .317 .479 .317 C .50200006 .317 .535 .336 .535 .37800003 C .535 .43400003 .47100006 .451 .43100003 .451 C .381 .451 .34100003 .418 .319 .38 C .301 .421 .255 .451 .199 .451 C .087000008 .451 .023000002 .328 .023000002 .298 C .023000002 .285 .037 .285 .040000008 .285 C .053000004 .285 .054000006 .289 .059000009 .30200003 C .084 .38 .14700002 .423 .19600001 .423 C .229 .423 .256 .405 .256 .357 C .256 .337 .24400002 .287 .23500002 .25300003 L .201 .116000007 Z "/>
</symbol>
<use xlink:href="#font_4_1" transform="matrix(6.9738,0,0,-6.9738,130.31174,28.806738)" fill="#000080"/>
<use xlink:href="#font_1_4" transform="matrix(9.9626,0,0,-9.9626,141.65091,101.88834)" fill="#800000"/>
<use xlink:href="#font_2_8" transform="matrix(9.9626,0,0,-9.9626,149.92891,98.52098)" fill="#800000"/>
<symbol id="font_1_2">
<path d="M .07700001 .072 C .069000009 .038000004 .067 .031000004 .023000002 .031000004 C .011 .031000004 0 .031000004 0 .0119999949 C 0 .003999993 .005000001 0 .013 0 C .040000004 0 .069000009 .0029999912 .097 .0029999912 C .13000001 .0029999912 .164 0 .19600001 0 C .20100002 0 .21400002 0 .21400002 .019999996 C .21400002 .031000004 .20400001 .031000004 .19000001 .031000004 C .14 .031000004 .14 .038000004 .14 .047000007 C .14 .059 .18200001 .222 .18900001 .24700001 C .202 .21800001 .23000002 .183 .28100003 .183 C .397 .183 .522 .329 .522 .476 C .522 .57000008 .46500004 .63600006 .38900004 .63600006 C .33900003 .63600006 .291 .6 .25800003 .561 C .24800001 .615 .20500002 .63600006 .16800002 .63600006 C .12200001 .63600006 .103 .597 .094000007 .579 C .076000008 .545 .063 .485 .063 .48200003 C .063 .47200004 .073 .47200004 .075 .47200004 C .08500001 .47200004 .086 .47300003 .09200001 .49500004 C .10900001 .566 .12900001 .614 .165 .614 C .18200001 .614 .19600001 .60600009 .19600001 .568 C .19600001 .545 .19300002 .53400006 .18900001 .517 L .07700001 .072 M .25300003 .50600007 C .26000003 .533 .28700004 .561 .305 .57600006 C .34000004 .607 .36900003 .614 .386 .614 C .42600004 .614 .45000003 .579 .45000003 .52 C .45000003 .46100004 .41700004 .34600003 .39900003 .30800004 C .365 .238 .31700004 .20500002 .28 .20500002 C .21400002 .20500002 .20100002 .28800003 .20100002 .294 C .20100002 .296 .20100002 .298 .20400001 .31 L .25300003 .50600007 Z "/>
</symbol>
<use xlink:href="#font_1_2" transform="matrix(9.9626,0,0,-9.9626,159.5682,101.778759)" fill="#800000"/>
<symbol id="font_3_1">
<path d="M .22600001 .63600006 C .22600001 .66300007 .224 .66400006 .19600001 .66400006 C .132 .601 .041 .6 0 .6 L 0 .564 C .023999997 .564 .09000001 .564 .14500001 .592 L .14500001 .082 C .14500001 .049000004 .14500001 .036000004 .04500001 .036000004 L .0069999995 .036000004 L .0069999995 0 C .024999999 .001 .148 .004 .185 .004 C .21600002 .004 .34200005 .001 .36400003 0 L .36400003 .036000004 L .32600004 .036000004 C .22600001 .036000004 .22600001 .049000004 .22600001 .082 L .22600001 .63600006 Z "/>
</symbol>
<use xlink:href="#font_3_1" transform="matrix(6.9738,0,0,-6.9738,165.66016,101.34001)" fill="#800000"/>
<symbol id="font_2_1">
<path d="M .23200003 .00999999 C .23200003 .012999982 .23200003 .014999986 .215 .03199999 C .09 .15799999 .058 .347 .058 .5 C .058 .674 .096 .84800007 .21900001 .97300007 C .23200003 .985 .23200003 .98700007 .23200003 .99 C .23200003 .99700006 .22800002 1 .222 1 C .21200001 1 .12200001 .93200007 .06299999 .805 C .012000002 .69500008 0 .584 0 .5 C 0 .422 .011 .301 .066 .188 C .126 .065 .21200001 0 .222 0 C .22800002 0 .23200003 .0029999912 .23200003 .00999999 Z "/>
</symbol>
<use xlink:href="#font_2_1" transform="matrix(9.9626,0,0,-9.9626,170.3553,102.336658)" fill="#800000"/>
<symbol id="font_1_3">
<path d="M .305 .31300003 C .311 .33900003 .334 .43100003 .404 .43100003 C .409 .43100003 .433 .43100003 .454 .418 C .426 .41300003 .40600003 .388 .40600003 .36400003 C .40600003 .34800003 .417 .32900004 .444 .32900004 C .46600003 .32900004 .498 .34700004 .498 .38700003 C .498 .43900005 .439 .45300005 .405 .45300005 C .347 .45300005 .312 .40000005 .3 .37700004 C .275 .44300003 .221 .45300005 .19200002 .45300005 C .08800001 .45300005 .031000002 .32400004 .031000002 .29900003 C .031000002 .28900004 .041 .28900004 .043000007 .28900004 C .051000008 .28900004 .054000006 .291 .056 .3 C .09 .40600003 .156 .43100003 .19000001 .43100003 C .209 .43100003 .244 .42200003 .244 .36400003 C .244 .33300004 .22700002 .26600004 .19000001 .126 C .17400001 .064 .13900002 .022000002 .095000009 .022000002 C .08900001 .022000002 .06600001 .022000002 .045 .035 C .07000001 .040000004 .09200001 .061 .09200001 .089 C .09200001 .116000007 .07000001 .124000009 .055000009 .124000009 C .025 .124000009 0 .098000008 0 .06600001 C 0 .020000002 .050000006 0 .094000007 0 C .16000001 0 .19600001 .07000001 .19900002 .076000008 C .21100001 .039 .24700003 0 .307 0 C .41 0 .467 .12900001 .467 .15400002 C .467 .16400002 .458 .16400002 .455 .16400002 C .446 .16400002 .444 .16000001 .442 .15300001 C .409 .046 .341 .022000002 .30900003 .022000002 C .27 .022000002 .254 .054 .254 .08800001 C .254 .11000001 .26 .13200002 .271 .17600002 L .305 .31300003 Z "/>
</symbol>
<use xlink:href="#font_1_3" transform="matrix(9.9626,0,0,-9.9626,173.5319,99.9556)" fill="#800000"/>
<symbol id="font_2_2">
<path d="M .232 .5 C .232 .578 .22100002 .699 .16600001 .81200006 C .106 .93500009 .020000004 1 .009999998 1 C .0040000008 1 0 .99600008 0 .99 C 0 .98700007 0 .985 .019000002 .967 C .117000009 .86800006 .174 .709 .174 .5 C .174 .329 .137 .153 .012999997 .026999996 C 0 .014999986 0 .012999982 0 .00999999 C 0 .003999993 .0040000008 0 .009999998 0 C .020000004 0 .11000001 .06799999 .169 .195 C .22 .305 .232 .416 .232 .5 Z "/>
</symbol>
<use xlink:href="#font_2_2" transform="matrix(9.9626,0,0,-9.9626,179.50487,102.336658)" fill="#800000"/>
<use xlink:href="#font_1_4" transform="matrix(9.9626,0,0,-9.9626,25.091916,66.874347)" fill="#008000"/>
<use xlink:href="#font_2_8" transform="matrix(9.9626,0,0,-9.9626,33.369909,63.50698)" fill="#008000"/>
<use xlink:href="#font_1_2" transform="matrix(9.9626,0,0,-9.9626,43.009199,66.764759)" fill="#008000"/>
<use xlink:href="#font_3_2" transform="matrix(6.9738,0,0,-6.9738,48.78035,66.32601)" fill="#008000"/>
<use xlink:href="#font_2_1" transform="matrix(9.9626,0,0,-9.9626,53.796297,67.322658)" fill="#008000"/>
<use xlink:href="#font_1_3" transform="matrix(9.9626,0,0,-9.9626,56.97291,64.9416)" fill="#008000"/>
<use xlink:href="#font_2_2" transform="matrix(9.9626,0,0,-9.9626,62.945867,67.322658)" fill="#008000"/>
</g>
<path transform="matrix(1,0,0,-1,.199,174.496)" stroke-width="1" stroke-linecap="butt" stroke-miterlimit="10" stroke-linejoin="miter" fill="none" stroke="#808080" d="M 10.79263 55.31973 L 10.79263 59.57208 M 53.96321 55.31973 L 53.96321 59.57208 M 140.30437 55.31973 L 140.30437 59.57208 M 183.47495 55.31973 L 183.47495 59.57208 "/>
<path transform="matrix(1,0,0,-1,.199,174.496)" stroke-width="1" stroke-linecap="butt" stroke-miterlimit="10" stroke-linejoin="miter" fill="none" stroke="#808080" d="M 95.00786 13.6776 L 99.25972 13.6776 M 95.00786 35.56175 L 99.25972 35.56175 M 95.00786 79.33008 L 99.25972 79.33008 M 95.00786 101.21423 L 99.25972 101.21423 M 95.00786 123.09839 L 99.25972 123.09839 M 95.00786 144.98256 L 99.25972 144.98256 "/>
<path transform="matrix(1,0,0,-1,.199,174.496)" stroke-width="1" stroke-linecap="butt" stroke-miterlimit="10" stroke-linejoin="miter" fill="none" stroke="#000000" d="M 0 57.4459 L 192.27507 57.4459 "/>
<path transform="matrix(1,0,0,-1,192.47408,117.0501)" d="M 1.99252 0 L -1.19551 1.59401 L 0 0 L -1.19551 -1.59401 "/>
<path transform="matrix(1,0,0,-1,.199,174.496)" stroke-width="1" stroke-linecap="butt" stroke-miterlimit="10" stroke-linejoin="miter" fill="none" stroke="#000000" d="M 97.13379 0 L 97.13379 159.40316 "/>
<path transform="matrix(0,-1,-1,-0,97.33279,15.09285)" d="M 1.99252 0 L -1.19551 1.59401 L 0 0 L -1.19551 -1.59401 "/>
<symbol id="font_5_1">
<path d="M .57600006 0 C .59300008 0 .611 0 .611 .019999996 C .611 .040000008 .59300008 .040000008 .57600006 .040000008 L .035000005 .040000008 C .018 .040000008 0 .040000008 0 .019999996 C 0 0 .018 0 .035000005 0 L .57600006 0 Z "/>
</symbol>
<use xlink:href="#font_5_1" transform="matrix(9.9626,0,0,-9.9626,5.4538958,128.7736)"/>
<symbol id="font_2_4">
<path d="M .07700001 .07700001 L .18300002 .18 C .33900003 .31800003 .39900003 .372 .39900003 .47200004 C .39900003 .586 .30900003 .666 .18700002 .666 C .074 .666 0 .574 0 .485 C 0 .42900003 .05 .42900003 .053000008 .42900003 C .07000001 .42900003 .105000007 .441 .105000007 .48200003 C .105000007 .508 .08700001 .53400006 .052000006 .53400006 C .044000005 .53400006 .042000008 .53400006 .039 .53300008 C .062000004 .59800007 .11600001 .63500007 .17400001 .63500007 C .26500003 .63500007 .308 .554 .308 .47200004 C .308 .39200003 .25800003 .31300003 .20300003 .25100003 L .011000004 .037 C 0 .026 0 .024 0 0 L .37100003 0 L .39900003 .17400001 L .374 .17400001 C .36900003 .14400001 .36200003 .1 .352 .085 C .345 .07700001 .279 .07700001 .257 .07700001 L .07700001 .07700001 Z "/>
</symbol>
<use xlink:href="#font_2_4" transform="matrix(9.9626,0,0,-9.9626,12.87313,131.065)"/>
<use xlink:href="#font_5_1" transform="matrix(9.9626,0,0,-9.9626,48.623899,128.7736)"/>
<symbol id="font_2_3">
<path d="M .205 .64000007 C .205 .66400006 .205 .666 .18200003 .666 C .120000008 .60200008 .032000007 .60200008 0 .60200008 L 0 .57100006 C .020000004 .57100006 .07900001 .57100006 .13100001 .597 L .13100001 .079 C .13100001 .043 .128 .031000002 .038000004 .031000002 L .0060000049 .031000002 L .0060000049 0 C .04100001 .003 .128 .003 .168 .003 C .20800002 .003 .29500003 .003 .33000005 0 L .33000005 .031000002 L .29800005 .031000002 C .20800002 .031000002 .205 .042000005 .205 .079 L .205 .64000007 Z "/>
</symbol>
<use xlink:href="#font_2_3" transform="matrix(9.9626,0,0,-9.9626,56.432676,131.065)"/>
<use xlink:href="#font_2_3" transform="matrix(9.9626,0,0,-9.9626,138.89768,131.065)"/>
<use xlink:href="#font_2_4" transform="matrix(9.9626,0,0,-9.9626,181.67913,131.065)"/>
<use xlink:href="#font_5_1" transform="matrix(9.9626,0,0,-9.9626,79.7829,160.91762)"/>
<symbol id="font_2_5">
<path d="M .266 .165 L .266 .078 C .266 .042000005 .26400004 .031000002 .19000001 .031000002 L .16900002 .031000002 L .16900002 0 C .21000001 .003 .26200003 .003 .30400003 .003 C .34600003 .003 .39900003 .003 .44000004 0 L .44000004 .031000002 L .41900004 .031000002 C .34500004 .031000002 .34300003 .042000005 .34300003 .078 L .34300003 .165 L .44300003 .165 L .44300003 .19600001 L .34300003 .19600001 L .34300003 .651 C .34300003 .671 .34300003 .67700007 .32700003 .67700007 C .31800003 .67700007 .31500004 .67700007 .307 .665 L 0 .19600001 L 0 .165 L .266 .165 M .272 .19600001 L .028 .19600001 L .272 .569 L .272 .19600001 Z "/>
</symbol>
<use xlink:href="#font_2_5" transform="matrix(9.9626,0,0,-9.9626,86.983959,163.20902)"/>
<use xlink:href="#font_5_1" transform="matrix(9.9626,0,0,-9.9626,79.7829,139.0336)"/>
<use xlink:href="#font_2_4" transform="matrix(9.9626,0,0,-9.9626,87.20313,141.325)"/>
<use xlink:href="#font_2_4" transform="matrix(9.9626,0,0,-9.9626,87.203128,97.55801)"/>
<use xlink:href="#font_2_5" transform="matrix(9.9626,0,0,-9.9626,86.98395,75.674)"/>
<symbol id="font_2_6">
<path d="M .089999999 .35000003 L .089999999 .37400005 C .089999999 .62700006 .21400002 .66300007 .26500003 .66300007 C .28900004 .66300007 .33100004 .65700009 .35300002 .623 C .33800004 .623 .298 .623 .298 .57800009 C .298 .54700008 .32200004 .53200009 .344 .53200009 C .36 .53200009 .39000003 .54100009 .39000003 .58000007 C .39000003 .64000007 .34600003 .688 .263 .688 C .13499999 .688 0 .559 0 .33800004 C 0 .071 .116000007 0 .20900002 0 C .32000003 0 .41500003 .094000007 .41500003 .22600001 C .41500003 .35300005 .32600004 .44900004 .215 .44900004 C .14700002 .44900004 .11000001 .39800004 .089999999 .35000003 M .20900002 .028 C .146 .028 .116000007 .088 .11000001 .103 C .092 .15 .092 .23 .092 .24800001 C .092 .32600004 .124000009 .42600004 .21400002 .42600004 C .23000002 .42600004 .27600003 .42600004 .307 .36400003 C .32500003 .32700003 .32500003 .27600003 .32500003 .22700002 C .32500003 .179 .32500003 .12900001 .30800004 .093 C .27800004 .033000005 .23200003 .028 .20900002 .028 Z "/>
</symbol>
<use xlink:href="#font_2_6" transform="matrix(9.9626,0,0,-9.9626,87.12342,54.009187)"/>
<symbol id="font_2_7">
<path d="M .121 .47900004 C .075 .509 .071 .54300007 .071 .56000009 C .071 .62100008 .136 .66300007 .20700002 .66300007 C .28000004 .66300007 .344 .61100009 .344 .53900006 C .344 .48200003 .305 .43400005 .245 .39900003 L .121 .47900004 M .26700003 .38400004 C .33900003 .42100004 .388 .47300006 .388 .53900006 C .388 .63100007 .29900003 .688 .208 .688 C .108 .688 .027000003 .614 .027000003 .521 C .027000003 .503 .029 .45800004 .071 .41100005 C .082 .39900003 .11900001 .37400005 .144 .35700003 C .086 .32800005 0 .272 0 .17300001 C 0 .067 .102000009 0 .20700002 0 C .32000003 0 .41500003 .083000008 .41500003 .19000001 C .41500003 .22600001 .404 .27100004 .36600004 .31300003 C .34700004 .33400003 .33100004 .34400005 .26700003 .38400004 M .167 .34200005 L .29000003 .26400004 C .31800003 .245 .365 .215 .365 .154 C .365 .080000009 .29000003 .028 .208 .028 C .122 .028 .050000006 .09 .050000006 .17300001 C .050000006 .231 .082 .29500003 .167 .34200005 Z "/>
</symbol>
<use xlink:href="#font_2_7" transform="matrix(9.9626,0,0,-9.9626,87.12342,32.125185)"/>
<use xlink:href="#font_1_3" transform="matrix(9.9626,0,0,-9.9626,198.30092,119.2966)"/>
<use xlink:href="#font_1_4" transform="matrix(9.9626,0,0,-9.9626,95.017917,9.652334)"/>
</svg>
