<?xml version="1.0" encoding="UTF-8" standalone="no"?>
<!DOCTYPE svg PUBLIC "-//W3C//DTD SVG 1.1//EN" "http://www.w3.org/Graphics/SVG/1.1/DTD/svg11.dtd">
<svg xmlns="http://www.w3.org/2000/svg" xmlns:xlink="http://www.w3.org/1999/xlink" version="1.1" width="113.784pt" height="113.784pt" viewBox="0 0 113.784 113.784">
<path transform="matrix(1,0,0,-1,56.892,56.892)" stroke-width="1" stroke-linecap="butt" stroke-miterlimit="10" stroke-linejoin="miter" fill="none" stroke="#000000" d="M -56.69362 0 L 54.7011 0 "/>
<path transform="matrix(1,0,0,-1,111.593097,56.892)" d="M 1.99252 0 L -1.19551 1.59401 L 0 0 L -1.19551 -1.59401 "/>
<path transform="matrix(1,0,0,-1,56.892,56.892)" stroke-width="1" stroke-linecap="butt" stroke-miterlimit="10" stroke-linejoin="miter" fill="none" stroke="#000000" d="M 0 -56.69362 L 0 54.7011 "/>
<path transform="matrix(0,-1,-1,-0,56.892,2.190899)" d="M 1.99252 0 L -1.19551 1.59401 L 0 0 L -1.19551 -1.59401 "/>
<path transform="matrix(1,0,0,-1,56.892,56.892)" stroke-width="1.59404" stroke-linecap="butt" stroke-miterlimit="10" stroke-linejoin="miter" fill="none" stroke="#000080" d="M 28.3468 0 C 28.3468 0 28.05927 1.44804 27.71054 2.0022 C 27.3618 2.55635 26.51477 3.44402 25.83333 3.99403 C 25.15189 4.54407 23.7828 5.4233 22.79907 5.96642 C 21.81534 6.50954 19.98518 7.37498 18.74315 7.90851 C 17.50111 8.44202 15.29196 9.29034 13.84726 9.81169 C 12.40256 10.33302 9.91328 11.15956 8.33066 11.66595 C 6.74805 12.17235 4.09033 12.9725 2.4408 13.46144 C .79126 13.95036 -1.91553 14.7208 -3.55804 15.18985 C -5.20056 15.6589 -7.83528 16.39528 -9.39731 16.84215 C -10.95934 17.289 -13.40457 17.9881 -14.81615 18.41054 C -16.22772 18.83296 -18.37323 19.49088 -19.57103 19.88678 C -20.76884 20.28268 -22.51883 20.89659 -23.44917 21.26399 C -24.3795 21.6314 -25.65515 22.19775 -26.27623 22.53477 C -26.89731 22.87181 -27.64154 23.38812 -27.9255 23.69312 C -28.20949 23.9981 -28.38872 24.46152 -28.32301 24.73294 C -28.25731 25.00438 -27.86429 25.41298 -27.45187 25.64949 C -27.03946 25.886 -26.09122 26.23714 -25.3506 26.43758 C -24.60997 26.63802 -23.14963 26.93082 -22.11392 27.09416 C -21.0782 27.2575 -19.17033 27.48952 -17.88586 27.61493 C -16.6014 27.74036 -14.33191 27.9114 -12.85631 27.99817 C -11.38069 28.08495 -8.8513 28.19257 -7.25063 28.24039 C -5.64995 28.28821 -2.97351 28.33426 -1.31966 28.3429 C .33418 28.35153 3.03627 28.33333 4.66924 28.30267 C 6.3022 28.272 8.91055 28.1916 10.44966 28.12187 C 11.98877 28.05214 14.38586 27.90868 15.7621 27.80006 C 17.13834 27.69145 19.2171 27.48572 20.36864 27.33899 C 21.52017 27.19226 23.1864 26.92674 24.06165 26.74251 C 24.93687 26.55827 26.11702 26.23193 26.67676 26.0111 C 27.2365 25.79025 27.87682 25.40697 28.09592 25.15077 C 28.31503 24.89458 28.38707 24.45499 28.25595 24.16458 C 28.12483 23.87418 27.62631 23.38087 27.15083 23.05771 C 26.67534 22.73456 25.62761 22.18956 24.82896 21.83537 C 24.0303 21.48119 22.48074 20.88843 21.39462 20.50488 C 20.3085 20.12134 18.32587 19.4821 17.0009 19.07101 C 15.67592 18.65991 13.3494 17.97841 11.84505 17.54199 C 10.34068 17.10558 7.77463 16.38518 6.15846 15.9256 C 4.5423 15.46603 1.85233 14.71014 .19678 14.22961 C -1.45874 13.7491 -4.15254 12.96127 -5.7735 12.46227 C -7.39447 11.96327 -9.9723 11.14809 -11.48602 10.63306 C -12.99976 10.11803 -15.34491 9.27876 -16.68341 8.75023 C -18.0219 8.22171 -20.02953 7.36298 -21.13293 6.8237 C -22.23634 6.28442 -23.81715 5.41075 -24.63605 4.86343 C -25.45493 4.31612 -26.53734 3.43167 -27.0349 2.87895 C -27.53246 2.32625 -28.06812 1.435 -28.22223 .87976 C -28.37633 .32452 -28.3419 -.5678 -28.14566 -1.12285 C -27.94942 -1.67792 -27.3459 -2.56856 -26.80783 -3.12074 C -26.26976 -3.67293 -25.12328 -4.55617 -24.26753 -5.10265 C -23.4118 -5.64912 -21.77518 -6.5213 -20.64026 -7.05945 C -19.50534 -7.59758 -17.45102 -8.45422 -16.0878 -8.9812 C -14.7246 -9.50818 -12.34558 -10.34438 -10.81517 -10.85754 C -9.28476 -11.37073 -6.68665 -12.18294 -5.05765 -12.67984 C -3.42865 -13.17674 -.72913 -13.96085 .92561 -14.43896 C 2.58037 -14.91708 5.26225 -15.66893 6.86868 -16.12587 C 8.47513 -16.58281 11.01791 -17.29878 12.50378 -17.73232 C 13.98965 -18.16583 16.27904 -18.84262 17.5779 -19.25052 C 18.87677 -19.65842 20.81151 -20.29208 21.8652 -20.67227 C 22.91891 -21.05246 24.4112 -21.64012 25.1724 -21.99065 C 25.93361 -22.34117 26.9168 -22.87952 27.35153 -23.19873 C 27.78625 -23.51794 28.21707 -24.00494 28.3057 -24.29132 C 28.39432 -24.5777 28.25185 -25.0108 27.99037 -25.26279 C 27.7289 -25.51479 27.0209 -25.89114 26.42114 -26.10754 C 25.82138 -26.32394 24.57878 -26.64279 23.6676 -26.82253 C 22.75642 -27.00226 21.03558 -27.26096 19.85391 -27.403 C 18.67224 -27.54504 16.5502 -27.7426 15.15092 -27.84636 C 13.75165 -27.9501 11.32315 -28.08592 9.76886 -28.15085 C 8.21457 -28.21577 5.5882 -28.28856 3.94862 -28.31436 C 2.30907 -28.34016 -.39671 -28.35022 -2.04805 -28.33684 C -3.69937 -28.32347 -6.3639 -28.27042 -7.95306 -28.21791 C -9.5422 -28.16539 -12.04579 -28.0499 -13.50166 -27.95837 C -14.95752 -27.86687 -17.18878 -27.68831 -18.446 -27.55827 C -19.70322 -27.42824 -21.56067 -27.18892 -22.5629 -27.02107 C -23.56511 -26.85323 -24.967 -26.55334 -25.66939 -26.34846 C -26.37178 -26.1436 -27.25432 -25.78508 -27.62532 -25.54437 C -27.99632 -25.30367 -28.3204 -24.88902 -28.34334 -24.61356 C -28.36626 -24.3381 -28.11665 -23.86804 -27.79054 -23.55904 C -27.46443 -23.25002 -26.65332 -22.72723 -25.99294 -22.38643 C -25.33253 -22.04561 -23.99603 -21.47353 -23.0309 -21.10265 C -22.06577 -20.73177 -20.26353 -20.11255 -19.03685 -19.71333 C -17.81018 -19.31413 -15.62312 -18.65096 -14.18982 -18.2254 C -12.75652 -17.79985 -10.28226 -17.09595 -8.70654 -16.64621 C -7.13083 -16.19647 -4.48048 -15.4556 -2.83311 -14.98396 C -1.18573 -14.51231 1.52133 -13.73804 3.1666 -13.24689 C 4.81186 -12.75574 7.45537 -11.95232 9.02489 -11.44408 C 10.59442 -10.93582 13.0553 -10.10667 14.47876 -9.58372 C 15.90224 -9.06078 18.07068 -8.20984 19.28427 -7.67494 C 20.49785 -7.14005 22.27638 -6.2726 23.22554 -5.72853 C 24.17471 -5.18445 25.48302 -4.30428 26.12527 -3.75354 C 26.76753 -3.2028 27.54784 -2.31364 27.85457 -1.75912 C 28.16129 -1.20459 28.37851 -.3124 28.33598 .24307 C 28.29344 .79855 27.93797 1.69063 27.5479 2.24443 C 27.1578 2.79822 26.24446 3.68524 25.52448 4.23453 C 24.8045 4.78383 23.37633 5.66135 22.35875 6.20345 C 21.34116 6.74554 19.46031 7.60945 18.19037 8.14165 C 16.92043 8.67383 14.67096 9.51955 13.2058 10.0392 C 11.74063 10.55885 9.22495 11.38254 7.63039 11.887 C 6.03581 12.39146 3.3658 13.1884 1.71327 13.6751 C .06075 14.1618 -2.64331 14.92834 -4.27994 15.39488 C -5.91656 15.86142 -8.53487 16.59363 -10.08244 17.03766 C -11.63002 17.48169 -15.4338 18.59521 -15.4338 18.59521 "/>
</svg>
