<?xml version="1.0" encoding="UTF-8" standalone="no"?>
<!DOCTYPE svg PUBLIC "-//W3C//DTD SVG 1.1//EN" "http://www.w3.org/Graphics/SVG/1.1/DTD/svg11.dtd">
<svg xmlns="http://www.w3.org/2000/svg" xmlns:xlink="http://www.w3.org/1999/xlink" version="1.1" width="58.277pt" height="57.689pt" viewBox="0 0 58.277 57.689">
<path transform="matrix(1,0,0,-1,29.143,29.143)" stroke-width="1" stroke-linecap="butt" stroke-miterlimit="10" stroke-linejoin="miter" fill="none" stroke="#000000" d="M -28.3468 0 L 26.35428 0 "/>
<path transform="matrix(1,0,0,-1,55.49728,29.143)" d="M 1.99252 0 L -1.19551 1.59401 L 0 0 L -1.19551 -1.59401 "/>
<path transform="matrix(1,0,0,-1,29.143,29.143)" stroke-width="1" stroke-linecap="butt" stroke-miterlimit="10" stroke-linejoin="miter" fill="none" stroke="#000000" d="M 0 -28.3468 L 0 26.35428 "/>
<path transform="matrix(0,-1,-1,-0,29.143,2.7887192)" d="M 1.99252 0 L -1.19551 1.59401 L 0 0 L -1.19551 -1.59401 "/>
<path transform="matrix(1,0,0,-1,29.143,29.143)" stroke-width="1.59404" stroke-linecap="butt" stroke-miterlimit="10" stroke-linejoin="miter" fill="none" stroke="#000080" d="M -28.3468 28.3468 C -28.3468 28.3468 -23.49141 25.02115 -21.8345 23.81943 C -20.1776 22.6177 -17.77502 20.77815 -16.40486 19.68565 C -15.03468 18.59317 -13.06996 16.92876 -11.95923 15.9455 C -10.8485 14.96223 -9.27797 13.47293 -8.39943 12.59895 C -7.5209 11.72498 -6.30101 10.41115 -5.6273 9.64645 C -4.9536 8.88176 -4.04002 7.74307 -3.54378 7.08755 C -3.04752 6.43202 -2.39668 5.46812 -2.05064 4.92183 C -1.70462 4.37553 -1.27281 3.58717 -1.04974 3.15016 C -.82669 2.71315 -.57036 2.09987 -.4429 1.77208 C -.31544 1.4443 -.19028 1.0062 -.13104 .78764 C -.07182 .56908 -.03416 .30606 -.01599 .19678 C .00218 .08751 -.00441 .00003 0 0 C .00441 -.00003 -.00212 .08725 .01599 .19635 C .0341 .30547 .0715 .56796 .13062 .78635 C .18971 1.00471 .31462 1.4427 .44203 1.77037 C .56944 2.09804 .82594 2.71112 1.04889 3.14801 C 1.27182 3.5849 1.70311 4.37312 2.04892 4.91925 C 2.39471 5.46536 3.04517 6.42876 3.54117 7.0841 C 4.03719 7.73944 4.95038 8.87799 5.62384 9.64256 C 6.2973 10.40714 7.51695 11.72083 8.39511 12.59462 C 9.27328 13.46841 10.84293 14.95728 11.95317 15.9403 C 13.06342 16.92332 15.02733 18.58728 16.39708 19.6796 C 17.76682 20.7719 20.16885 22.61134 21.82541 23.81293 C 23.48196 25.01453 28.33643 28.33987 28.33643 28.33987 "/>
</svg>
