<?xml version="1.0" encoding="UTF-8" standalone="no"?>
<!DOCTYPE svg PUBLIC "-//W3C//DTD SVG 1.1//EN" "http://www.w3.org/Graphics/SVG/1.1/DTD/svg11.dtd">
<svg xmlns="http://www.w3.org/2000/svg" xmlns:xlink="http://www.w3.org/1999/xlink" version="1.1" width="57.689pt" height="58.277pt" viewBox="0 0 57.689 58.277">
<path transform="matrix(1,0,0,-1,28.546,29.134)" stroke-width="1" stroke-linecap="butt" stroke-miterlimit="10" stroke-linejoin="miter" fill="none" stroke="#000000" d="M -28.3468 0 L 26.35428 0 "/>
<path transform="matrix(1,0,0,-1,54.90028,29.134)" d="M 1.99252 0 L -1.19551 1.59401 L 0 0 L -1.19551 -1.59401 "/>
<path transform="matrix(1,0,0,-1,28.546,29.134)" stroke-width="1" stroke-linecap="butt" stroke-miterlimit="10" stroke-linejoin="miter" fill="none" stroke="#000000" d="M 0 -28.3468 L 0 26.35428 "/>
<path transform="matrix(0,-1,-1,-0,28.546,2.7797204)" d="M 1.99252 0 L -1.19551 1.59401 L 0 0 L -1.19551 -1.59401 "/>
<path transform="matrix(1,0,0,-1,28.546,29.134)" stroke-width="1.59404" stroke-linecap="butt" stroke-miterlimit="10" stroke-linejoin="miter" fill="none" stroke="#000080" d="M 28.3468 -28.3468 C 28.3468 -28.3468 25.02115 -23.49141 23.81943 -21.8345 C 22.6177 -20.1776 20.77815 -17.77502 19.68565 -16.40486 C 18.59317 -15.03468 16.92876 -13.06996 15.9455 -11.95923 C 14.96223 -10.8485 13.47293 -9.27797 12.59895 -8.39943 C 11.72498 -7.5209 10.41115 -6.30101 9.64645 -5.6273 C 8.88176 -4.9536 7.74307 -4.04002 7.08755 -3.54378 C 6.43202 -3.04752 5.46812 -2.39668 4.92183 -2.05064 C 4.37553 -1.70462 3.58717 -1.27281 3.15016 -1.04974 C 2.71315 -.82669 2.09987 -.57036 1.77208 -.4429 C 1.4443 -.31544 1.0062 -.19028 .78764 -.13104 C .56908 -.07182 .30606 -.03416 .19678 -.01599 C .08751 .00218 .00003 -.00441 0 0 C -.00003 .00441 .08725 -.00212 .19635 .01599 C .30547 .0341 .56796 .0715 .78635 .13062 C 1.00471 .18971 1.4427 .31462 1.77037 .44203 C 2.09804 .56944 2.71112 .82594 3.14801 1.04889 C 3.5849 1.27182 4.37312 1.70311 4.91925 2.04892 C 5.46536 2.39471 6.42876 3.04517 7.0841 3.54117 C 7.73944 4.03719 8.87799 4.95038 9.64256 5.62384 C 10.40714 6.2973 11.72083 7.51695 12.59462 8.39511 C 13.46841 9.27328 14.95728 10.84293 15.9403 11.95317 C 16.92332 13.06342 18.58728 15.02733 19.6796 16.39708 C 20.7719 17.76682 22.61134 20.16885 23.81293 21.82541 C 25.01453 23.48196 28.33987 28.33643 28.33987 28.33643 "/>
</svg>
