<?xml version="1.0" encoding="UTF-8" standalone="no"?>
<!DOCTYPE svg PUBLIC "-//W3C//DTD SVG 1.1//EN" "http://www.w3.org/Graphics/SVG/1.1/DTD/svg11.dtd">
<svg xmlns="http://www.w3.org/2000/svg" xmlns:xlink="http://www.w3.org/1999/xlink" version="1.1" width="179.059pt" height="176.862pt" viewBox="0 0 179.059 176.862">
<path transform="matrix(1,0,0,-1,5.118,174.484)" stroke-width="1" stroke-linecap="butt" stroke-miterlimit="10" stroke-linejoin="miter" fill="none" stroke="#bfbfbf" d="M 4.56743 0 L 4.56743 161.38268 M 19.7922 0 L 19.7922 161.38268 M 35.01698 0 L 35.01698 161.38268 M 50.24178 0 L 50.24178 161.38268 M 65.46655 0 L 65.46655 161.38268 M 95.91612 0 L 95.91612 161.38268 M 111.1409 0 L 111.1409 161.38268 M 126.36568 0 L 126.36568 161.38268 M 141.59046 0 L 141.59046 161.38268 M 156.81525 0 L 156.81525 161.38268 "/>
<path transform="matrix(1,0,0,-1,5.118,174.484)" stroke-width="1" stroke-linecap="butt" stroke-miterlimit="10" stroke-linejoin="miter" fill="none" stroke="#bfbfbf" d="M 0 4.56743 L 161.38268 4.56743 M 0 19.7922 L 161.38268 19.7922 M 0 35.01698 L 161.38268 35.01698 M 0 50.24178 L 161.38268 50.24178 M 0 65.46655 L 161.38268 65.46655 M 0 95.91612 L 161.38268 95.91612 M 0 111.1409 L 161.38268 111.1409 M 0 126.36568 L 161.38268 126.36568 M 0 141.59046 L 161.38268 141.59046 M 0 156.81525 L 161.38268 156.81525 "/>
<path transform="matrix(1,0,0,-1,5.118,174.484)" stroke-width="1" stroke-linecap="butt" stroke-miterlimit="10" stroke-linejoin="miter" fill="none" stroke="#808080" d="M 4.56743 78.56543 L 4.56743 82.81723 M 19.7922 78.56543 L 19.7922 82.81723 M 35.01698 78.56543 L 35.01698 82.81723 M 50.24178 78.56543 L 50.24178 82.81723 M 65.46655 78.56543 L 65.46655 82.81723 M 95.91612 78.56543 L 95.91612 82.81723 M 111.1409 78.56543 L 111.1409 82.81723 M 126.36568 78.56543 L 126.36568 82.81723 M 141.59046 78.56543 L 141.59046 82.81723 M 156.81525 78.56543 L 156.81525 82.81723 "/>
<path transform="matrix(1,0,0,-1,5.118,174.484)" stroke-width="1" stroke-linecap="butt" stroke-miterlimit="10" stroke-linejoin="miter" fill="none" stroke="#808080" d="M 78.56543 4.56743 L 82.81723 4.56743 M 78.56543 19.7922 L 82.81723 19.7922 M 78.56543 35.01698 L 82.81723 35.01698 M 78.56543 50.24178 L 82.81723 50.24178 M 78.56543 65.46655 L 82.81723 65.46655 M 78.56543 95.91612 L 82.81723 95.91612 M 78.56543 111.1409 L 82.81723 111.1409 M 78.56543 126.36568 L 82.81723 126.36568 M 78.56543 141.59046 L 82.81723 141.59046 M 78.56543 156.81525 L 82.81723 156.81525 "/>
<path transform="matrix(1,0,0,-1,5.118,174.484)" stroke-width="1" stroke-linecap="butt" stroke-miterlimit="10" stroke-linejoin="miter" fill="none" stroke="#000000" d="M 0 80.69133 L 159.39015 80.69133 "/>
<path transform="matrix(1,0,0,-1,164.50815,93.79266)" d="M 1.99252 0 L -1.19551 1.59401 L 0 0 L -1.19551 -1.59401 "/>
<path transform="matrix(1,0,0,-1,5.118,174.484)" stroke-width="1" stroke-linecap="butt" stroke-miterlimit="10" stroke-linejoin="miter" fill="none" stroke="#000000" d="M 80.69133 0 L 80.69133 159.39015 "/>
<path transform="matrix(0,-1,-1,-0,85.809329,15.093842)" d="M 1.99252 0 L -1.19551 1.59401 L 0 0 L -1.19551 -1.59401 "/>
<symbol id="font_0_1">
<path d="M .57600006 0 C .59300008 0 .611 0 .611 .019999996 C .611 .040000008 .59300008 .040000008 .57600006 .040000008 L .035000005 .040000008 C .018 .040000008 0 .040000008 0 .019999996 C 0 0 .018 0 .035000005 0 L .57600006 0 Z "/>
</symbol>
<use xlink:href="#font_0_1" transform="matrix(9.9626,0,0,-9.9626,4.147896,103.567607)"/>
<symbol id="font_1_5">
<path d="M .39900003 .223 C .39900003 .34200005 .317 .44200004 .209 .44200004 C .16100002 .44200004 .118000019 .42600004 .082 .39100004 L .082 .586 C .10200001 .58000007 .135 .573 .16700001 .573 C .29 .573 .36 .66400006 .36 .67700007 C .36 .683 .357 .688 .35 .688 C .349 .688 .347 .688 .342 .68500009 C .322 .67600008 .273 .656 .20600002 .656 C .16600001 .656 .120000008 .66300007 .073 .6840001 C .065 .68700006 .06300001 .68700006 .061000009 .68700006 C .051000004 .68700006 .051000004 .679 .051000004 .66300007 L .051000004 .36700005 C .051000004 .34900005 .051000004 .34100003 .065 .34100003 C .07200001 .34100003 .074 .34400005 .07800001 .35000003 C .08900002 .36600004 .12600002 .42000006 .207 .42000006 C .259 .42000006 .284 .37400005 .292 .35600005 C .308 .31900005 .31 .28000004 .31 .23 C .31 .19500001 .31 .135 .286 .093 C .262 .054000006 .22500001 .028 .17900002 .028 C .106000009 .028 .049000008 .08100001 .032 .14000002 C .035 .13900002 .038000008 .13800001 .049000008 .13800001 C .082 .13800001 .09900001 .163 .09900001 .187 C .09900001 .21100001 .082 .23600002 .049000008 .23600002 C .035 .23600002 0 .22900002 0 .18300002 C 0 .097 .069000009 0 .18100001 0 C .297 0 .39900003 .096 .39900003 .223 Z "/>
</symbol>
<use xlink:href="#font_1_5" transform="matrix(9.9626,0,0,-9.9626,11.56713,106.07818)"/>
<use xlink:href="#font_0_1" transform="matrix(9.9626,0,0,-9.9626,19.371897,103.567607)"/>
<symbol id="font_1_4">
<path d="M .266 .165 L .266 .078 C .266 .042000005 .26400004 .031000002 .19000001 .031000002 L .16900002 .031000002 L .16900002 0 C .21000001 .003 .26200003 .003 .30400003 .003 C .34600003 .003 .39900003 .003 .44000004 0 L .44000004 .031000002 L .41900004 .031000002 C .34500004 .031000002 .34300003 .042000005 .34300003 .078 L .34300003 .165 L .44300003 .165 L .44300003 .19600001 L .34300003 .19600001 L .34300003 .651 C .34300003 .671 .34300003 .67700007 .32700003 .67700007 C .31800003 .67700007 .31500004 .67700007 .307 .665 L 0 .19600001 L 0 .165 L .266 .165 M .272 .19600001 L .028 .19600001 L .272 .569 L .272 .19600001 Z "/>
</symbol>
<use xlink:href="#font_1_4" transform="matrix(9.9626,0,0,-9.9626,26.572955,105.859)"/>
<use xlink:href="#font_0_1" transform="matrix(9.9626,0,0,-9.9626,34.596899,103.567607)"/>
<symbol id="font_1_3">
<path d="M .24800003 .37400005 C .33 .40100003 .388 .47100006 .388 .55 C .388 .632 .3 .688 .204 .688 C .10300001 .688 .027000003 .628 .027000003 .55200007 C .027000003 .519 .049000004 .5 .078 .5 C .109000008 .5 .12900001 .522 .12900001 .55100008 C .12900001 .6010001 .082 .6010001 .067 .6010001 C .098 .65000006 .164 .66300007 .20000002 .66300007 C .24100003 .66300007 .29600004 .64100006 .29600004 .55100008 C .29600004 .53900006 .29400004 .48100005 .268 .43700005 C .238 .38900004 .204 .38600005 .17900002 .38500003 C .171 .38400004 .14700002 .38200004 .14000002 .38200004 C .132 .38100005 .125 .38000003 .125 .37000004 C .125 .35900004 .132 .35900004 .14900002 .35900004 L .19300002 .35900004 C .275 .35900004 .312 .29100005 .312 .193 C .312 .057000005 .24300003 .028 .199 .028 C .15600002 .028 .081 .045 .046000005 .104 C .081 .09900001 .11200001 .12100001 .11200001 .15900001 C .11200001 .19500001 .085 .215 .056 .215 C .031999999 .215 0 .201 0 .157 C 0 .06600001 .093 0 .20200002 0 C .32400004 0 .41500003 .091000009 .41500003 .193 C .41500003 .27500005 .35200004 .35300005 .24800003 .37400005 Z "/>
</symbol>
<use xlink:href="#font_1_3" transform="matrix(9.9626,0,0,-9.9626,41.93643,106.07818)"/>
<use xlink:href="#font_0_1" transform="matrix(9.9626,0,0,-9.9626,49.820898,103.567607)"/>
<symbol id="font_1_2">
<path d="M .07700001 .07700001 L .18300002 .18 C .33900003 .31800003 .39900003 .372 .39900003 .47200004 C .39900003 .586 .30900003 .666 .18700002 .666 C .074 .666 0 .574 0 .485 C 0 .42900003 .05 .42900003 .053000008 .42900003 C .07000001 .42900003 .105000007 .441 .105000007 .48200003 C .105000007 .508 .08700001 .53400006 .052000006 .53400006 C .044000005 .53400006 .042000008 .53400006 .039 .53300008 C .062000004 .59800007 .11600001 .63500007 .17400001 .63500007 C .26500003 .63500007 .308 .554 .308 .47200004 C .308 .39200003 .25800003 .31300003 .20300003 .25100003 L .011000004 .037 C 0 .026 0 .024 0 0 L .37100003 0 L .39900003 .17400001 L .374 .17400001 C .36900003 .14400001 .36200003 .1 .352 .085 C .345 .07700001 .279 .07700001 .257 .07700001 L .07700001 .07700001 Z "/>
</symbol>
<use xlink:href="#font_1_2" transform="matrix(9.9626,0,0,-9.9626,57.24113,105.859)"/>
<use xlink:href="#font_0_1" transform="matrix(9.9626,0,0,-9.9626,65.0459,103.567607)"/>
<symbol id="font_1_1">
<path d="M .205 .64000007 C .205 .66400006 .205 .666 .18200003 .666 C .120000008 .60200008 .032000007 .60200008 0 .60200008 L 0 .57100006 C .020000004 .57100006 .07900001 .57100006 .13100001 .597 L .13100001 .079 C .13100001 .043 .128 .031000002 .038000004 .031000002 L .0060000049 .031000002 L .0060000049 0 C .04100001 .003 .128 .003 .168 .003 C .20800002 .003 .29500003 .003 .33000005 0 L .33000005 .031000002 L .29800005 .031000002 C .20800002 .031000002 .205 .042000005 .205 .079 L .205 .64000007 Z "/>
</symbol>
<use xlink:href="#font_1_1" transform="matrix(9.9626,0,0,-9.9626,72.854679,105.859)"/>
<use xlink:href="#font_1_1" transform="matrix(9.9626,0,0,-9.9626,99.42868,105.859)"/>
<use xlink:href="#font_1_2" transform="matrix(9.9626,0,0,-9.9626,114.26513,105.859)"/>
<use xlink:href="#font_1_3" transform="matrix(9.9626,0,0,-9.9626,129.41043,106.07818)"/>
<use xlink:href="#font_1_4" transform="matrix(9.9626,0,0,-9.9626,144.49495,105.859)"/>
<use xlink:href="#font_1_5" transform="matrix(9.9626,0,0,-9.9626,159.93912,106.07818)"/>
<use xlink:href="#font_0_1" transform="matrix(9.9626,0,0,-9.9626,88.02889,170.4196)"/>
<use xlink:href="#font_1_5" transform="matrix(9.9626,0,0,-9.9626,95.44913,172.93018)"/>
<use xlink:href="#font_0_1" transform="matrix(9.9626,0,0,-9.9626,88.02889,155.1956)"/>
<use xlink:href="#font_1_4" transform="matrix(9.9626,0,0,-9.9626,95.22995,157.487)"/>
<use xlink:href="#font_0_1" transform="matrix(9.9626,0,0,-9.9626,88.02889,139.9706)"/>
<use xlink:href="#font_1_3" transform="matrix(9.9626,0,0,-9.9626,95.36942,142.48117)"/>
<use xlink:href="#font_0_1" transform="matrix(9.9626,0,0,-9.9626,88.02889,124.7466)"/>
<use xlink:href="#font_1_2" transform="matrix(9.9626,0,0,-9.9626,95.44913,127.037998)"/>
<use xlink:href="#font_0_1" transform="matrix(9.9626,0,0,-9.9626,88.02889,109.5216)"/>
<use xlink:href="#font_1_1" transform="matrix(9.9626,0,0,-9.9626,95.83767,111.812999)"/>
<use xlink:href="#font_1_1" transform="matrix(9.9626,0,0,-9.9626,88.08867,81.779)"/>
<use xlink:href="#font_1_2" transform="matrix(9.9626,0,0,-9.9626,87.70013,66.554)"/>
<use xlink:href="#font_1_3" transform="matrix(9.9626,0,0,-9.9626,87.62042,51.54918)"/>
<use xlink:href="#font_1_4" transform="matrix(9.9626,0,0,-9.9626,87.48095,36.104997)"/>
<use xlink:href="#font_1_5" transform="matrix(9.9626,0,0,-9.9626,87.70013,21.100174)"/>
<clipPath id="cp2">
<path transform="matrix(1,0,0,-1,5.118,174.484)" d="M 0 0 L 161.38268 0 L 161.38268 161.38268 L 0 161.38268 Z "/>
</clipPath>
<g clip-path="url(#cp2)">
<path transform="matrix(1,0,0,-1,5.118,174.484)" stroke-width="1.19553" stroke-linecap="butt" stroke-miterlimit="10" stroke-linejoin="miter" fill="none" stroke="#000080" d="M 0 65.18793 L .13121 65.18701 L .26244 65.18611 L .39366 65.1852 L .52489 65.18428 L .65611 65.18336 L .78734 65.18246 L .91856 65.18153 L 1.04977 65.18062 L 1.181 65.1794 L 1.31223 65.1785 L 1.44345 65.17758 L 1.57468 65.17667 L 1.7059 65.17545 L 1.83713 65.17453 L 1.96834 65.17363 L 2.09956 65.17271 L 2.23079 65.17148 L 2.36201 65.17056 L 2.49324 65.16936 L 2.62447 65.16844 L 2.75569 65.16737 L 2.8869 65.16646 L 3.01813 65.1654 L 3.14935 65.16434 L 3.28058 65.16312 L 3.4118 65.16222 L 3.54303 65.16098 L 3.67426 65.16006 L 3.80547 65.159 L 3.93669 65.15779 L 4.06792 65.15688 L 4.19914 65.15565 L 4.33037 65.15443 L 4.4616 65.15369 L 4.59282 65.15247 L 4.72404 65.15108 L 4.85526 65.15016 L 4.98648 65.14896 L 5.1177 65.14774 L 5.24893 65.14667 L 5.38016 65.14546 L 5.51138 65.1444 L 5.64261 65.14317 L 5.77382 65.14194 L 5.90504 65.14073 L 6.03627 65.13966 L 6.1675 65.13844 L 6.29872 65.13739 L 6.42995 65.13617 L 6.56117 65.1348 L 6.69238 65.13359 L 6.82361 65.13252 L 6.95483 65.1313 L 7.08606 65.12991 L 7.21729 65.12871 L 7.34851 65.12764 L 7.47974 65.12627 L 7.61095 65.12506 L 7.74217 65.12369 L 7.8734 65.12247 L 8.00462 65.1211 L 8.13585 65.11987 L 8.26707 65.1185 L 8.3983 65.11714 L 8.52953 65.11592 L 8.66074 65.11455 L 8.79196 65.11319 L 8.92319 65.11212 L 9.05441 65.11058 L 9.18564 65.1092 L 9.31686 65.10785 L 9.44809 65.10648 L 9.5793 65.1051 L 9.71053 65.10374 L 9.84175 65.10222 L 9.97298 65.10086 L 10.1042 65.09947 L 10.23543 65.0981 L 10.36665 65.09674 L 10.49786 65.09537 L 10.62909 65.09384 L 10.76031 65.09233 L 10.89154 65.09096 L 11.02277 65.08942 L 11.15399 65.0879 L 11.28522 65.08653 L 11.41643 65.08516 L 11.54765 65.0835 L 11.67888 65.08212 L 11.8101 65.08046 L 11.94133 65.07907 L 12.07256 65.0774 L 12.20378 65.07573 L 12.335 65.07436 L 12.46622 65.07283 L 12.59744 65.07117 L 12.72867 65.06947 L 12.8599 65.06796 L 12.99112 65.06628 L 13.12234 65.0646 L 13.25357 65.0631 L 13.38478 65.06142 L 13.516 65.05974 L 13.64723 65.05821 L 13.77846 65.05653 L 13.90968 65.05487 L 14.04091 65.05304 L 14.17213 65.05138 L 14.30334 65.04984 L 14.43457 65.04787 L 14.5658 65.04634 L 14.69702 65.04436 L 14.82825 65.04285 L 14.95947 65.04102 L 15.0907 65.03934 L 15.22191 65.0375 L 15.35313 65.03568 L 15.48436 65.0337 L 15.61559 65.03188 L 15.74681 65.03021 L 15.87804 65.02806 L 16.00928 65.02655 L 16.14049 65.02441 L 16.27171 65.0226 L 16.40294 65.02077 L 16.53416 65.01894 L 16.66539 65.01695 L 16.79662 65.01498 L 16.92784 65.013 L 17.05907 65.01103 L 17.19028 65.00919 L 17.3215 65.0072 L 17.45273 65.00523 L 17.58395 65.0031 L 17.71518 65.00098 L 17.8464 64.99913 L 17.97763 64.99701 L 18.10884 64.99487 L 18.24007 64.9929 L 18.37129 64.99077 L 18.50252 64.98863 L 18.63374 64.98665 L 18.76497 64.98453 L 18.8962 64.9824 L 19.0274 64.98012 L 19.15863 64.97798 L 19.28986 64.97585 L 19.42108 64.97357 L 19.5523 64.97128 L 19.68353 64.969 L 19.81476 64.96686 L 19.94597 64.96458 L 20.0772 64.96214 L 20.20842 64.95987 L 20.33965 64.95758 L 20.47087 64.95529 L 20.6021 64.95287 L 20.73332 64.95058 L 20.86455 64.94829 L 20.99576 64.94571 L 21.12698 64.94342 L 21.25821 64.94084 L 21.38943 64.93854 L 21.52066 64.93611 L 21.65189 64.93367 L 21.78311 64.93109 L 21.91432 64.92851 L 22.04555 64.92606 L 22.17677 64.92332 L 22.308 64.9209 L 22.43922 64.9183 L 22.57045 64.91571 L 22.70168 64.91298 L 22.83289 64.91039 L 22.96411 64.90779 L 23.09534 64.90504 L 23.22656 64.90231 L 23.35779 64.89943 L 23.48901 64.89668 L 23.62024 64.89409 L 23.75145 64.89136 L 23.88268 64.88863 L 24.0139 64.88556 L 24.14513 64.88268 L 24.27635 64.87994 L 24.40758 64.87688 L 24.5388 64.87415 L 24.67003 64.87111 L 24.80124 64.86823 L 24.93246 64.86516 L 25.06369 64.86212 L 25.19492 64.85909 L 25.32614 64.85602 L 25.45737 64.85298 L 25.5886 64.8498 L 25.7198 64.84674 L 25.85103 64.84355 L 25.98225 64.8405 L 26.11348 64.83714 L 26.2447 64.83395 L 26.37593 64.83076 L 26.50716 64.82741 L 26.63837 64.82405 L 26.76959 64.82071 L 26.90082 64.81752 L 27.03204 64.81401 L 27.16327 64.81067 L 27.2945 64.80731 L 27.42572 64.8038 L 27.55693 64.80031 L 27.68816 64.79666 L 27.81938 64.793 L 27.9506 64.78966 L 28.08183 64.78586 L 28.21306 64.78235 L 28.34428 64.77869 L 28.47551 64.77487 L 28.60672 64.77122 L 28.73795 64.76758 L 28.86917 64.76361 L 29.0004 64.75981 L 29.13162 64.75584 L 29.26285 64.75189 L 29.39407 64.74825 L 29.52528 64.74428 L 29.65651 64.74033 L 29.78773 64.73622 L 29.91896 64.73195 L 30.05019 64.728 L 30.18141 64.72388 L 30.31264 64.71947 L 30.44385 64.7152 L 30.57507 64.71109 L 30.7063 64.70683 L 30.83752 64.70241 L 30.96875 64.698 L 31.09998 64.69357 L 31.2312 64.68916 L 31.36241 64.68475 L 31.49364 64.68034 L 31.62486 64.67578 L 31.75609 64.67136 L 31.88731 64.66664 L 32.01855 64.66206 L 32.14978 64.6572 L 32.28099 64.65247 L 32.41222 64.64761 L 32.54344 64.64273 L 32.67467 64.63786 L 32.8059 64.63298 L 32.93712 64.62811 L 33.06834 64.6231 L 33.19957 64.61792 L 33.33078 64.61273 L 33.462 64.60771 L 33.59323 64.60254 L 33.72446 64.59721 L 33.85568 64.59187 L 33.98691 64.58655 L 34.11813 64.58122 L 34.24934 64.5759 L 34.38057 64.57025 L 34.5118 64.56479 L 34.64302 64.55914 L 34.77425 64.55353 L 34.90547 64.54773 L 35.0367 64.54193 L 35.16791 64.53616 L 35.29913 64.53006 L 35.43036 64.52429 L 35.56158 64.51819 L 35.69281 64.51225 L 35.82404 64.50586 L 35.95526 64.49992 L 36.08647 64.49368 L 36.2177 64.48729 L 36.34892 64.48088 L 36.48015 64.4745 L 36.61137 64.4681 L 36.7426 64.4614 L 36.87383 64.45486 L 37.00505 64.448 L 37.13626 64.44131 L 37.26749 64.43431 L 37.39871 64.42744 L 37.52994 64.42044 L 37.66116 64.4133 L 37.79239 64.4063 L 37.92361 64.39912 L 38.05482 64.39168 L 38.18605 64.38437 L 38.31728 64.37706 L 38.4485 64.3693 L 38.57973 64.36185 L 38.71095 64.35406 L 38.84218 64.3463 L 38.97339 64.33838 L 39.10461 64.33047 L 39.23584 64.3224 L 39.36707 64.31433 L 39.49829 64.3061 L 39.62952 64.29773 L 39.76074 64.28937 L 39.89195 64.28084 L 40.02318 64.27246 L 40.1544 64.26364 L 40.28563 64.2548 L 40.41685 64.24597 L 40.54808 64.23714 L 40.6793 64.22784 L 40.81053 64.21889 L 40.94174 64.20944 L 41.07297 64.2 L 41.2042 64.19041 L 41.33542 64.18097 L 41.46664 64.17122 L 41.59787 64.16118 L 41.7291 64.15112 L 41.8603 64.14124 L 41.99153 64.13103 L 42.12276 64.12053 L 42.25398 64.11002 L 42.38521 64.09967 L 42.51643 64.089 L 42.64766 64.07805 L 42.77887 64.0671 L 42.9101 64.05597 L 43.04132 64.04454 L 43.17255 64.03313 L 43.30377 64.02156 L 43.435 64.01 L 43.56622 63.99812 L 43.69743 63.9861 L 43.82866 63.9739 L 43.95988 63.96158 L 44.09111 63.9491 L 44.22234 63.93646 L 44.35356 63.92383 L 44.48479 63.91072 L 44.61601 63.89778 L 44.74722 63.88423 L 44.87845 63.87083 L 45.00967 63.85713 L 45.1409 63.84314 L 45.27213 63.82927 L 45.40335 63.8148 L 45.53458 63.80034 L 45.66579 63.78574 L 45.79701 63.77097 L 45.92824 63.75574 L 46.05946 63.74051 L 46.19069 63.72484 L 46.32191 63.70929 L 46.45314 63.69331 L 46.58435 63.67732 L 46.71558 63.66089 L 46.8468 63.64413 L 46.97803 63.62738 L 47.10925 63.6102 L 47.24048 63.59268 L 47.3717 63.57501 L 47.50291 63.5572 L 47.63414 63.53879 L 47.76537 63.52052 L 47.89659 63.50163 L 48.02783 63.4826 L 48.15906 63.46327 L 48.29028 63.44362 L 48.4215 63.42352 L 48.55272 63.40343 L 48.68394 63.38287 L 48.81517 63.36201 L 48.9464 63.34071 L 49.07762 63.31909 L 49.20885 63.29716 L 49.34007 63.27495 L 49.47128 63.25209 L 49.60251 63.22911 L 49.73373 63.20567 L 49.86496 63.18176 L 49.99619 63.15755 L 50.12741 63.13304 L 50.25864 63.10793 L 50.38985 63.08235 L 50.52107 63.0563 L 50.6523 63.02982 L 50.78352 63.00317 L 50.91475 62.97577 L 51.04597 62.94775 L 51.1772 62.9193 L 51.30841 62.89052 L 51.43964 62.86098 L 51.57086 62.83098 L 51.70209 62.80023 L 51.83331 62.76918 L 51.96454 62.73766 L 52.09576 62.70506 L 52.22697 62.67233 L 52.3582 62.63855 L 52.48943 62.60428 L 52.62065 62.56927 L 52.75188 62.53363 L 52.8831 62.4974 L 53.01433 62.46025 L 53.14555 62.42206 L 53.27676 62.38353 L 53.40799 62.34425 L 53.53922 62.30391 L 53.67044 62.2628 L 53.80167 62.22047 L 53.93289 62.17752 L 54.06412 62.13353 L 54.19533 62.08878 L 54.32655 62.04279 L 54.45778 61.99576 L 54.589 61.9478 L 54.72023 61.89877 L 54.85146 61.84822 L 54.98268 61.79692 L 55.11389 61.7441 L 55.24512 61.69003 L 55.37634 61.63507 L 55.50757 61.57813 L 55.6388 61.51999 L 55.77002 61.4606 L 55.90125 61.3994 L 56.03246 61.33667 L 56.16368 61.27257 L 56.2949 61.20665 L 56.42613 61.13875 L 56.55736 61.06917 L 56.68858 60.99806 L 56.81981 60.92407 L 56.95103 60.84872 L 57.08224 60.77107 L 57.21347 60.691 L 57.3447 60.60863 L 57.47592 60.52382 L 57.60715 60.43658 L 57.73837 60.3466 L 57.8696 60.25374 L 58.00081 60.15797 L 58.13203 60.05931 L 58.26326 59.9573 L 58.39449 59.85179 L 58.52571 59.7428 L 58.65694 59.63043 L 58.78816 59.51366 L 58.91937 59.39291 L 59.0506 59.26793 L 59.18182 59.1376 L 59.31305 59.00514 L 59.44427 58.86356 L 59.5755 58.71893 L 59.70673 58.56819 L 59.83794 58.4129 L 59.96916 58.24695 L 60.10039 58.07797 L 60.23161 57.90135 L 60.36284 57.7156 L 60.49406 57.52074 L 60.62529 57.31825 L 60.75652 57.10814 L 60.88773 56.88434 L 61.01895 56.64987 L 61.15018 56.40324 L 61.2814 56.14594 L 61.41263 55.8734 L 61.54385 55.58566 L 61.67508 55.28116 L 61.80629 54.96146 L 61.93752 54.61737 L 62.06874 54.2535 L 62.19997 53.86526 L 62.33119 53.45116 L 62.46242 53.00659 L 62.59364 52.53004 L 62.72485 52.01697 L 62.85608 51.46127 L 62.9873 50.85988 L 63.11853 50.20523 L 63.24976 49.48662 L 63.38098 48.69797 L 63.5122 47.82407 L 63.64342 46.85274 L 63.77464 45.76569 L 63.90587 44.534 L 64.03711 43.13179 L 64.16833 41.50731 L 64.29956 39.60725 L 64.43079 37.34027 L 64.562 34.58002 L 64.69322 31.12248 L 64.82445 26.62509 L 64.95567 20.45296 L 65.0869 11.24654 L 65.21812 -4.6131 L 65.34935 -42.71767 "/>
<path transform="matrix(1,0,0,-1,5.118,174.484)" stroke-width="1.19553" stroke-linecap="butt" stroke-miterlimit="10" stroke-linejoin="miter" fill="none" stroke="#000080" d="M 95.93134 421.42195 L 96.0625 191.27654 L 96.19366 161.5075 L 96.32483 147.71387 L 96.456 139.37068 L 96.58716 133.6492 L 96.71832 129.4228 L 96.84949 126.14491 L 96.98067 123.50798 L 97.11183 121.33237 L 97.243 119.4993 L 97.37415 117.9281 L 97.50531 116.567 L 97.63649 115.37033 L 97.76765 114.30917 L 97.89882 113.36066 L 98.02998 112.50807 L 98.16115 111.73465 L 98.29231 111.03432 L 98.42348 110.39032 L 98.55464 109.79807 L 98.6858 109.2515 L 98.81697 108.74756 L 98.94814 108.27863 L 99.07932 107.84167 L 99.21048 107.43213 L 99.34164 107.04999 L 99.4728 106.6922 L 99.60396 106.35422 L 99.73514 106.03603 L 99.8663 105.73457 L 99.99747 105.45139 L 100.12863 105.1819 L 100.2598 104.92613 L 100.39096 104.68254 L 100.52213 104.45265 L 100.65329 104.23189 L 100.78445 104.02026 L 100.91562 103.82082 L 101.04678 103.62746 L 101.17796 103.44324 L 101.30913 103.26968 L 101.44029 103.10068 L 101.57144 102.93777 L 101.7026 102.78249 L 101.83379 102.63327 L 101.96495 102.48865 L 102.09612 102.3501 L 102.22728 102.21764 L 102.35844 102.08916 L 102.48961 101.96521 L 102.62077 101.8451 L 102.75194 101.72954 L 102.8831 101.61778 L 103.01427 101.50955 L 103.14543 101.40494 L 103.27661 101.3037 L 103.40778 101.20535 L 103.53894 101.11034 L 103.67009 101.01808 L 103.80125 100.92886 L 103.93243 100.84178 L 104.0636 100.75774 L 104.19476 100.676 L 104.32593 100.5962 L 104.45709 100.51886 L 104.58826 100.44397 L 104.71942 100.37086 L 104.85059 100.29977 L 104.98175 100.23067 L 105.11292 100.16351 L 105.24408 100.09775 L 105.37526 100.0338 L 105.50642 99.97137 L 105.63759 99.91063 L 105.76874 99.85141 L 105.8999 99.79356 L 106.03108 99.73738 L 106.16225 99.68242 L 106.29341 99.62851 L 106.42458 99.57614 L 106.55574 99.52484 L 106.6869 99.4746 L 106.81807 99.42587 L 106.94923 99.37808 L 107.0804 99.33133 L 107.21156 99.28549 L 107.34273 99.24089 L 107.4739 99.19705 L 107.60507 99.15442 L 107.73624 99.11255 L 107.86739 99.07129 L 107.99855 99.0311 L 108.12973 98.99197 L 108.2609 98.95346 L 108.39206 98.9157 L 108.52322 98.87885 L 108.65439 98.84247 L 108.78555 98.80698 L 108.91673 98.77213 L 109.04788 98.73802 L 109.17905 98.70483 L 109.31021 98.6718 L 109.44138 98.63953 L 109.57256 98.60785 L 109.70372 98.5768 L 109.83488 98.54634 L 109.96605 98.51651 L 110.0972 98.48712 L 110.22838 98.45834 L 110.35954 98.43002 L 110.4907 98.40231 L 110.62187 98.37506 L 110.75304 98.34811 L 110.8842 98.32193 L 111.01538 98.2959 L 111.14653 98.27031 L 111.2777 98.2455 L 111.40886 98.22084 L 111.54002 98.19678 L 111.6712 98.17303 L 111.80237 98.1496 L 111.93353 98.12659 L 112.0647 98.10391 L 112.19585 98.08168 L 112.32703 98.0599 L 112.45819 98.03845 L 112.58936 98.01714 L 112.72052 97.99626 L 112.85168 97.97571 L 112.98285 97.95561 L 113.11403 97.93553 L 113.24518 97.91605 L 113.37634 97.89685 L 113.5075 97.87798 L 113.63867 97.8591 L 113.76985 97.84052 L 113.90102 97.8224 L 114.03218 97.80475 L 114.16335 97.78723 L 114.2945 97.76973 L 114.42567 97.75282 L 114.55684 97.73608 L 114.688 97.71933 L 114.81917 97.70288 L 114.95033 97.68675 L 115.0815 97.67091 L 115.21268 97.65524 L 115.34383 97.63954 L 115.47499 97.62448 L 115.60616 97.6094 L 115.73732 97.59448 L 115.8685 97.57986 L 115.99966 97.56557 L 116.13083 97.55125 L 116.262 97.53738 L 116.39314 97.52354 L 116.52432 97.50984 L 116.65549 97.49643 L 116.78665 97.48305 L 116.91782 97.47011 L 117.04898 97.457 L 117.18015 97.44421 L 117.31133 97.43143 L 117.44247 97.4191 L 117.57364 97.4069 L 117.7048 97.39473 L 117.83597 97.38286 L 117.96715 97.37114 L 118.09831 97.35927 L 118.22948 97.34785 L 118.36064 97.33643 L 118.49179 97.325 L 118.62297 97.31389 L 118.75414 97.30309 L 118.8853 97.29242 L 119.01646 97.28162 L 119.14763 97.27097 L 119.2788 97.26045 L 119.40997 97.25026 L 119.54112 97.24005 L 119.67229 97.22986 L 119.80345 97.2198 L 119.93462 97.21007 L 120.0658 97.20032 L 120.19696 97.19072 L 120.32813 97.18129 L 120.45929 97.172 L 120.59044 97.1627 L 120.72162 97.15341 L 120.85278 97.1443 L 120.98395 97.13562 L 121.11511 97.12648 L 121.24628 97.1178 L 121.37744 97.10927 L 121.50862 97.10059 L 121.63977 97.09207 L 121.77094 97.08371 L 121.9021 97.07533 L 122.03326 97.06711 L 122.16444 97.05904 L 122.29561 97.05096 L 122.42677 97.04305 L 122.55794 97.03543 L 122.68909 97.02751 L 122.82027 97.0199 L 122.95143 97.01228 L 123.0826 97.00468 L 123.21376 96.99722 L 123.34492 96.98991 L 123.47609 96.9826 L 123.60727 96.97545 L 123.73842 96.96844 L 123.86958 96.9613 L 124.00075 96.95428 L 124.13191 96.94728 L 124.26309 96.94058 L 124.39426 96.93388 L 124.52542 96.92703 L 124.65659 96.92064 L 124.78775 96.91394 L 124.91891 96.9074 L 125.05008 96.90115 L 125.18124 96.8946 L 125.31241 96.88835 L 125.44357 96.88213 L 125.57475 96.87572 L 125.70592 96.8698 L 125.83708 96.8637 L 125.96823 96.8576 L 126.0994 96.85182 L 126.23056 96.84589 L 126.36174 96.84026 L 126.4929 96.83417 L 126.62407 96.82867 L 126.75523 96.82289 L 126.8864 96.81726 L 127.01756 96.81194 L 127.14873 96.80629 L 127.27989 96.80067 L 127.41106 96.79533 L 127.54222 96.79001 L 127.6734 96.78468 L 127.80457 96.77966 L 127.93573 96.77432 L 128.06688 96.76917 L 128.19805 96.76413 L 128.32921 96.75894 L 128.46039 96.75407 L 128.59156 96.7492 L 128.72272 96.74403 L 128.85388 96.73917 L 128.98505 96.73428 L 129.11621 96.72972 L 129.24738 96.72484 L 129.37854 96.72014 L 129.5097 96.71541 L 129.64087 96.71085 L 129.77205 96.70627 L 129.90322 96.7017 L 130.03438 96.69745 L 130.16553 96.69272 L 130.29669 96.68861 L 130.42786 96.68419 L 130.55904 96.67978 L 130.6902 96.67552 L 130.82137 96.67111 L 130.95253 96.667 L 131.0837 96.66273 L 131.21486 96.65833 L 131.34603 96.6542 L 131.47719 96.64995 L 131.60836 96.64598 L 131.73952 96.64203 L 131.8707 96.63808 L 132.00186 96.63411 L 132.13303 96.63016 L 132.26418 96.62634 L 132.39534 96.62239 L 132.5265 96.61858 L 132.65769 96.61491 L 132.78885 96.61111 L 132.92002 96.60732 L 133.05118 96.6035 L 133.18235 96.6 L 133.3135 96.59636 L 133.44467 96.59285 L 133.57584 96.58905 L 133.707 96.5857 L 133.83817 96.58218 L 133.96935 96.57869 L 134.10051 96.57518 L 134.23168 96.57169 L 134.36283 96.56819 L 134.49399 96.56499 L 134.62516 96.56148 L 134.75634 96.55829 L 134.8875 96.55493 L 135.01866 96.55174 L 135.14983 96.5484 L 135.28099 96.5452 L 135.41216 96.54184 L 135.54332 96.5388 L 135.67449 96.53577 L 135.80565 96.53241 L 135.93682 96.52936 L 136.068 96.52632 L 136.19916 96.52342 L 136.33032 96.52039 L 136.46147 96.51733 L 136.59264 96.51428 L 136.7238 96.5114 L 136.85498 96.5085 L 136.98615 96.50546 L 137.11731 96.50241 L 137.24848 96.49968 L 137.37964 96.49693 L 137.5108 96.49388 L 137.64197 96.49115 L 137.77313 96.48825 L 137.9043 96.48552 L 138.03546 96.48293 L 138.16664 96.48018 L 138.2978 96.4776 L 138.42897 96.47487 L 138.56012 96.47195 L 138.69129 96.46953 L 138.82245 96.46695 L 138.95363 96.4642 L 139.0848 96.46161 L 139.21596 96.45903 L 139.34712 96.45644 L 139.47829 96.45384 L 139.60945 96.4514 L 139.74062 96.44882 L 139.87178 96.44655 L 140.00295 96.44394 L 140.13411 96.44167 L 140.26529 96.43922 L 140.39646 96.43695 L 140.52762 96.43422 L 140.65877 96.43176 L 140.78993 96.42949 L 140.9211 96.4272 L 141.05228 96.42493 L 141.18344 96.42247 L 141.3146 96.4202 L 141.44577 96.41792 L 141.57694 96.41548 L 141.70812 96.4135 L 141.83927 96.41121 L 141.97043 96.40878 L 142.1016 96.4068 L 142.23276 96.40437 L 142.36394 96.40237 L 142.4951 96.40025 L 142.62627 96.39812 L 142.75743 96.39584 L 142.88858 96.3937 L 143.01975 96.39157 L 143.15093 96.3896 L 143.28209 96.38747 L 143.41326 96.38535 L 143.54442 96.38351 L 143.67559 96.38138 L 143.80677 96.3794 L 143.93791 96.37743 L 144.06908 96.37544 L 144.20024 96.37332 L 144.3314 96.37132 L 144.46259 96.36935 L 144.59375 96.36752 L 144.72492 96.36569 L 144.85608 96.36372 L 144.98723 96.36172 L 145.1184 96.35976 L 145.24958 96.35793 L 145.38074 96.35611 L 145.5119 96.35428 L 145.64307 96.35245 L 145.77423 96.35046 L 145.90541 96.34865 L 146.03656 96.34697 L 146.16773 96.34514 L 146.29889 96.34332 L 146.43006 96.34163 L 146.56124 96.33981 L 146.6924 96.33829 L 146.82357 96.33632 L 146.95473 96.33449 L 147.08588 96.33281 L 147.21704 96.33128 L 147.34822 96.32945 L 147.47939 96.32779 L 147.61055 96.32611 L 147.74172 96.32445 L 147.87288 96.32292 L 148.00406 96.32123 L 148.13521 96.31956 L 148.26638 96.31804 L 148.39754 96.31636 L 148.5287 96.31454 L 148.65988 96.31317 L 148.79105 96.3115 L 148.92221 96.30981 L 149.05338 96.30829 L 149.18453 96.30663 L 149.31569 96.30525 L 149.44687 96.30359 L 149.57804 96.3022 L 149.7092 96.30052 L 149.84037 96.29916 L 149.97153 96.29749 L 150.1027 96.29611 L 150.23386 96.2946 L 150.36502 96.29323 L 150.49619 96.2917 L 150.62735 96.29018 L 150.75853 96.2888 L 150.8897 96.2873 L 151.02086 96.28592 L 151.15203 96.28455 L 151.28318 96.28304 L 151.41434 96.2815 L 151.54552 96.28012 L 151.67668 96.27876 L 151.80785 96.27739 L 151.93901 96.27602 L 152.07018 96.27481 L 152.20136 96.27344 L 152.3325 96.27206 L 152.46367 96.27054 L 152.59484 96.26932 L 152.726 96.2681 L 152.85718 96.26674 L 152.98834 96.26521 L 153.1195 96.26414 L 153.25067 96.26279 L 153.38182 96.26125 L 153.513 96.26018 L 153.64417 96.25897 L 153.77533 96.2576 L 153.9065 96.25638 L 154.03766 96.25502 L 154.16883 96.25395 L 154.3 96.25258 L 154.43115 96.25134 L 154.56232 96.25014 L 154.69348 96.24907 L 154.82465 96.24754 L 154.95583 96.24649 L 155.08699 96.24527 L 155.21816 96.2442 L 155.34932 96.24298 L 155.48047 96.24193 L 155.61165 96.2407 L 155.74282 96.23947 L 155.87398 96.23827 L 156.00514 96.2369 L 156.1363 96.23598 L 156.26747 96.23491 L 156.39865 96.2337 L 156.5298 96.23248 L 156.66097 96.23126 L 156.79213 96.2302 L 156.9233 96.22897 L 157.05448 96.22821 L 157.18564 96.22699 L 157.3168 96.22578 L 157.44797 96.22487 L 157.57913 96.22365 L 157.7103 96.22273 L 157.84146 96.22168 L 157.97263 96.22044 L 158.10379 96.21953 L 158.23496 96.2183 L 158.36612 96.2174 L 158.4973 96.21619 L 158.62847 96.21512 L 158.75962 96.2142 L 158.89078 96.2133 L 159.02194 96.21208 L 159.15312 96.21117 L 159.28429 96.20995 L 159.41545 96.20903 L 159.54662 96.20811 L 159.67778 96.2069 L 159.80895 96.206 L 159.94011 96.20508 L 160.07128 96.20416 L 160.20244 96.20294 L 160.3336 96.20203 L 160.46477 96.20113 L 160.59595 96.2002 L 160.72711 96.19928 L 160.85826 96.19836 L 160.98943 96.19746 L 161.12059 96.19655 L 161.25177 96.19563 L 161.38294 96.19472 "/>
<symbol id="font_3_1">
<path d="M .136 .11100001 C .101 .052 .067 .032 .019000002 .029000001 C .008000001 .028 0 .028 0 .010000001 C 0 .004 .004999999 0 .012000002 0 C .030000002 0 .075 .002 .093 .002 C .122 .002 .15400002 0 .18200001 0 C .18800003 0 .20000002 0 .20000002 .019000002 C .20000002 .028 .192 .029000001 .18600002 .029000001 C .16300002 .031000002 .144 .039 .144 .063 C .144 .07700001 .15 .08800001 .16300002 .11000001 L .239 .23600002 L .494 .23600002 C .49500004 .22700002 .49500004 .21900001 .49600003 .21000001 C .49900005 .18400002 .51100006 .080000009 .51100006 .061000006 C .51100006 .031000002 .46 .029000001 .444 .029000001 C .433 .029000001 .42200003 .029000001 .42200003 .011000001 C .42200003 0 .43100003 0 .437 0 C .45400004 0 .474 .002 .49100004 .002 L .54800006 .002 C .609 .002 .65300008 0 .65400007 0 C .6610001 0 .67200008 0 .67200008 .019000002 C .67200008 .029000001 .66300007 .029000001 .64800009 .029000001 C .59300008 .029000001 .59200009 .038000004 .58900007 .068 L .52800008 .69200006 C .526 .712 .5220001 .71400007 .51100006 .71400007 C .50100007 .71400007 .49500004 .712 .48600004 .697 L .136 .11100001 M .256 .26500003 L .45700003 .601 L .49100004 .26500003 L .256 .26500003 Z "/>
</symbol>
<use xlink:href="#font_3_1" transform="matrix(20.6625,0,0,-20.6625,116.98852,138.914)"/>
</g>
<symbol id="font_4_1">
<path d="M .305 .31300003 C .311 .33900003 .334 .43100003 .404 .43100003 C .409 .43100003 .433 .43100003 .454 .418 C .426 .41300003 .40600003 .388 .40600003 .36400003 C .40600003 .34800003 .417 .32900004 .444 .32900004 C .46600003 .32900004 .498 .34700004 .498 .38700003 C .498 .43900005 .439 .45300005 .405 .45300005 C .347 .45300005 .312 .40000005 .3 .37700004 C .275 .44300003 .221 .45300005 .19200002 .45300005 C .08800001 .45300005 .031000002 .32400004 .031000002 .29900003 C .031000002 .28900004 .041 .28900004 .043000007 .28900004 C .051000008 .28900004 .054000006 .291 .056 .3 C .09 .40600003 .156 .43100003 .19000001 .43100003 C .209 .43100003 .244 .42200003 .244 .36400003 C .244 .33300004 .22700002 .26600004 .19000001 .126 C .17400001 .064 .13900002 .022000002 .095000009 .022000002 C .08900001 .022000002 .06600001 .022000002 .045 .035 C .07000001 .040000004 .09200001 .061 .09200001 .089 C .09200001 .116000007 .07000001 .124000009 .055000009 .124000009 C .025 .124000009 0 .098000008 0 .06600001 C 0 .020000002 .050000006 0 .094000007 0 C .16000001 0 .19600001 .07000001 .19900002 .076000008 C .21100001 .039 .24700003 0 .307 0 C .41 0 .467 .12900001 .467 .15400002 C .467 .16400002 .458 .16400002 .455 .16400002 C .446 .16400002 .444 .16000001 .442 .15300001 C .409 .046 .341 .022000002 .30900003 .022000002 C .27 .022000002 .254 .054 .254 .08800001 C .254 .11000001 .26 .13200002 .271 .17600002 L .305 .31300003 Z "/>
</symbol>
<use xlink:href="#font_4_1" transform="matrix(9.9626,0,0,-9.9626,170.33391,96.03459)"/>
<symbol id="font_4_2">
<path d="M .45700003 .586 C .461 .6 .461 .602 .461 .609 C .461 .62700006 .447 .63600006 .432 .63600006 C .42200003 .63600006 .40600003 .63 .397 .615 C .395 .61 .387 .579 .38300003 .561 C .37600003 .535 .36900003 .508 .363 .48100005 L .318 .301 C .314 .286 .271 .21600002 .20500002 .21600002 C .15400002 .21600002 .143 .26000003 .143 .29700003 C .143 .34300003 .16000001 .40500004 .194 .49300004 C .21000001 .53400006 .21400002 .545 .21400002 .56500008 C .21400002 .61 .18200001 .6470001 .13200002 .6470001 C .037 .6470001 0 .50200006 0 .49300004 C 0 .48300005 .01 .48300005 .012 .48300005 C .022000002 .48300005 .023 .485 .028000003 .50100007 C .055000009 .595 .095000009 .625 .12900001 .625 C .13700001 .625 .15400002 .625 .15400002 .59300008 C .15400002 .568 .14400001 .54200008 .13700001 .523 C .097 .41700004 .079 .36 .079 .31300003 C .079 .224 .142 .194 .201 .194 C .24000003 .194 .274 .21100001 .30200003 .23900002 C .289 .187 .277 .13800001 .237 .08500001 C .21100001 .051 .17300001 .022 .127 .022 C .113000009 .022 .068 .025000006 .051000008 .06400001 C .067 .06400001 .080000009 .06400001 .094000007 .076000008 C .104 .08500001 .11400001 .098000008 .11400001 .117000009 C .11400001 .148 .087000008 .15200001 .07700001 .15200001 C .054000006 .15200001 .021 .136 .021 .087000008 C .021 .037 .065000008 0 .127 0 C .23 0 .333 .091000009 .361 .20400001 L .45700003 .586 Z "/>
</symbol>
<use xlink:href="#font_4_2" transform="matrix(9.9626,0,0,-9.9626,83.49392,9.652334)"/>
</svg>
