<?xml version="1.0" encoding="UTF-8" standalone="no"?>
<!DOCTYPE svg PUBLIC "-//W3C//DTD SVG 1.1//EN" "http://www.w3.org/Graphics/SVG/1.1/DTD/svg11.dtd">
<svg xmlns="http://www.w3.org/2000/svg" xmlns:xlink="http://www.w3.org/1999/xlink" version="1.1" width="166.091pt" height="174.687pt" viewBox="0 0 166.091 174.687">
<path transform="matrix(1,0,0,-1,6.177,174.48799)" stroke-width="1" stroke-linecap="butt" stroke-miterlimit="10" stroke-linejoin="miter" fill="none" stroke="#bfbfbf" d="M 3.50845 0 L 3.50845 161.39636 M 26.89822 0 L 26.89822 161.39636 M 73.67775 0 L 73.67775 161.39636 M 97.06752 0 L 97.06752 161.39636 M 120.45728 0 L 120.45728 161.39636 M 143.84705 0 L 143.84705 161.39636 "/>
<path transform="matrix(1,0,0,-1,6.177,174.48799)" stroke-width="1" stroke-linecap="butt" stroke-miterlimit="10" stroke-linejoin="miter" fill="none" stroke="#bfbfbf" d="M 0 10.52585 L 147.3555 10.52585 M 0 45.61201 L 147.3555 45.61201 M 0 115.78435 L 147.3555 115.78435 M 0 150.87052 L 147.3555 150.87052 "/>
<path transform="matrix(1,0,0,-1,6.177,174.48799)" stroke-width="1" stroke-linecap="butt" stroke-miterlimit="10" stroke-linejoin="miter" fill="none" stroke="#808080" d="M 3.50845 78.57211 L 3.50845 82.82422 M 26.89822 78.57211 L 26.89822 82.82422 M 73.67775 78.57211 L 73.67775 82.82422 M 97.06752 78.57211 L 97.06752 82.82422 M 120.45728 78.57211 L 120.45728 82.82422 M 143.84705 78.57211 L 143.84705 82.82422 "/>
<path transform="matrix(1,0,0,-1,6.177,174.48799)" stroke-width="1" stroke-linecap="butt" stroke-miterlimit="10" stroke-linejoin="miter" fill="none" stroke="#808080" d="M 48.16211 10.52585 L 52.41385 10.52585 M 48.16211 45.61201 L 52.41385 45.61201 M 48.16211 115.78435 L 52.41385 115.78435 M 48.16211 150.87052 L 52.41385 150.87052 "/>
<path transform="matrix(1,0,0,-1,6.177,174.48799)" stroke-width="1" stroke-linecap="butt" stroke-miterlimit="10" stroke-linejoin="miter" fill="none" stroke="#000000" d="M 0 80.69818 L 145.36298 80.69818 "/>
<path transform="matrix(1,0,0,-1,151.53998,93.78981)" d="M 1.99252 0 L -1.19551 1.59401 L 0 0 L -1.19551 -1.59401 "/>
<path transform="matrix(1,0,0,-1,6.177,174.48799)" stroke-width="1" stroke-linecap="butt" stroke-miterlimit="10" stroke-linejoin="miter" fill="none" stroke="#000000" d="M 50.28798 0 L 50.28798 159.40384 "/>
<path transform="matrix(0,-1,-1,-0,56.46498,15.084152)" d="M 1.99252 0 L -1.19551 1.59401 L 0 0 L -1.19551 -1.59401 "/>
<symbol id="font_0_1">
<path d="M .57600006 0 C .59300008 0 .611 0 .611 .019999996 C .611 .040000008 .59300008 .040000008 .57600006 .040000008 L .035000005 .040000008 C .018 .040000008 0 .040000008 0 .019999996 C 0 0 .018 0 .035000005 0 L .57600006 0 Z "/>
</symbol>
<use xlink:href="#font_0_1" transform="matrix(9.9626,0,0,-9.9626,4.147896,103.5656)"/>
<symbol id="font_1_3">
<path d="M .266 .165 L .266 .078 C .266 .042000005 .26400004 .031000002 .19000001 .031000002 L .16900002 .031000002 L .16900002 0 C .21000001 .003 .26200003 .003 .30400003 .003 C .34600003 .003 .39900003 .003 .44000004 0 L .44000004 .031000002 L .41900004 .031000002 C .34500004 .031000002 .34300003 .042000005 .34300003 .078 L .34300003 .165 L .44300003 .165 L .44300003 .19600001 L .34300003 .19600001 L .34300003 .651 C .34300003 .671 .34300003 .67700007 .32700003 .67700007 C .31800003 .67700007 .31500004 .67700007 .307 .665 L 0 .19600001 L 0 .165 L .266 .165 M .272 .19600001 L .028 .19600001 L .272 .569 L .272 .19600001 Z "/>
</symbol>
<use xlink:href="#font_1_3" transform="matrix(9.9626,0,0,-9.9626,11.347953,105.856998)"/>
<use xlink:href="#font_0_1" transform="matrix(9.9626,0,0,-9.9626,27.536898,103.5656)"/>
<symbol id="font_1_2">
<path d="M .07700001 .07700001 L .18300002 .18 C .33900003 .31800003 .39900003 .372 .39900003 .47200004 C .39900003 .586 .30900003 .666 .18700002 .666 C .074 .666 0 .574 0 .485 C 0 .42900003 .05 .42900003 .053000008 .42900003 C .07000001 .42900003 .105000007 .441 .105000007 .48200003 C .105000007 .508 .08700001 .53400006 .052000006 .53400006 C .044000005 .53400006 .042000008 .53400006 .039 .53300008 C .062000004 .59800007 .11600001 .63500007 .17400001 .63500007 C .26500003 .63500007 .308 .554 .308 .47200004 C .308 .39200003 .25800003 .31300003 .20300003 .25100003 L .011000004 .037 C 0 .026 0 .024 0 0 L .37100003 0 L .39900003 .17400001 L .374 .17400001 C .36900003 .14400001 .36200003 .1 .352 .085 C .345 .07700001 .279 .07700001 .257 .07700001 L .07700001 .07700001 Z "/>
</symbol>
<use xlink:href="#font_1_2" transform="matrix(9.9626,0,0,-9.9626,34.95713,105.856998)"/>
<use xlink:href="#font_1_2" transform="matrix(9.9626,0,0,-9.9626,77.86113,105.856998)"/>
<use xlink:href="#font_1_3" transform="matrix(9.9626,0,0,-9.9626,101.03195,105.856998)"/>
<symbol id="font_1_4">
<path d="M .089999999 .35000003 L .089999999 .37400005 C .089999999 .62700006 .21400002 .66300007 .26500003 .66300007 C .28900004 .66300007 .33100004 .65700009 .35300002 .623 C .33800004 .623 .298 .623 .298 .57800009 C .298 .54700008 .32200004 .53200009 .344 .53200009 C .36 .53200009 .39000003 .54100009 .39000003 .58000007 C .39000003 .64000007 .34600003 .688 .263 .688 C .13499999 .688 0 .559 0 .33800004 C 0 .071 .116000007 0 .20900002 0 C .32000003 0 .41500003 .094000007 .41500003 .22600001 C .41500003 .35300005 .32600004 .44900004 .215 .44900004 C .14700002 .44900004 .11000001 .39800004 .089999999 .35000003 M .20900002 .028 C .146 .028 .116000007 .088 .11000001 .103 C .092 .15 .092 .23 .092 .24800001 C .092 .32600004 .124000009 .42600004 .21400002 .42600004 C .23000002 .42600004 .27600003 .42600004 .307 .36400003 C .32500003 .32700003 .32500003 .27600003 .32500003 .22700002 C .32500003 .179 .32500003 .12900001 .30800004 .093 C .27800004 .033000005 .23200003 .028 .20900002 .028 Z "/>
</symbol>
<use xlink:href="#font_1_4" transform="matrix(9.9626,0,0,-9.9626,124.560428,106.07617)"/>
<symbol id="font_1_5">
<path d="M .121 .47900004 C .075 .509 .071 .54300007 .071 .56000009 C .071 .62100008 .136 .66300007 .20700002 .66300007 C .28000004 .66300007 .344 .61100009 .344 .53900006 C .344 .48200003 .305 .43400005 .245 .39900003 L .121 .47900004 M .26700003 .38400004 C .33900003 .42100004 .388 .47300006 .388 .53900006 C .388 .63100007 .29900003 .688 .208 .688 C .108 .688 .027000003 .614 .027000003 .521 C .027000003 .503 .029 .45800004 .071 .41100005 C .082 .39900003 .11900001 .37400005 .144 .35700003 C .086 .32800005 0 .272 0 .17300001 C 0 .067 .102000009 0 .20700002 0 C .32000003 0 .41500003 .083000008 .41500003 .19000001 C .41500003 .22600001 .404 .27100004 .36600004 .31300003 C .34700004 .33400003 .33100004 .34400005 .26700003 .38400004 M .167 .34200005 L .29000003 .26400004 C .31800003 .245 .365 .215 .365 .154 C .365 .080000009 .29000003 .028 .208 .028 C .122 .028 .050000006 .09 .050000006 .17300001 C .050000006 .231 .082 .29500003 .167 .34200005 Z "/>
</symbol>
<use xlink:href="#font_1_5" transform="matrix(9.9626,0,0,-9.9626,147.95043,106.07617)"/>
<use xlink:href="#font_0_1" transform="matrix(9.9626,0,0,-9.9626,58.6849,164.46559)"/>
<use xlink:href="#font_1_2" transform="matrix(9.9626,0,0,-9.9626,66.10513,166.75699)"/>
<use xlink:href="#font_0_1" transform="matrix(9.9626,0,0,-9.9626,58.6849,129.3796)"/>
<symbol id="font_1_1">
<path d="M .205 .64000007 C .205 .66400006 .205 .666 .18200003 .666 C .120000008 .60200008 .032000007 .60200008 0 .60200008 L 0 .57100006 C .020000004 .57100006 .07900001 .57100006 .13100001 .597 L .13100001 .079 C .13100001 .043 .128 .031000002 .038000004 .031000002 L .0060000049 .031000002 L .0060000049 0 C .04100001 .003 .128 .003 .168 .003 C .20800002 .003 .29500003 .003 .33000005 0 L .33000005 .031000002 L .29800005 .031000002 C .20800002 .031000002 .205 .042000005 .205 .079 L .205 .64000007 Z "/>
</symbol>
<use xlink:href="#font_1_1" transform="matrix(9.9626,0,0,-9.9626,66.493679,131.67099)"/>
<use xlink:href="#font_1_1" transform="matrix(9.9626,0,0,-9.9626,58.744676,61.914995)"/>
<use xlink:href="#font_1_2" transform="matrix(9.9626,0,0,-9.9626,58.356134,26.828995)"/>
<clipPath id="cp2">
<path transform="matrix(1,0,0,-1,6.177,174.48799)" d="M 0 0 L 147.3555 0 L 147.3555 161.39636 L 0 161.39636 Z "/>
</clipPath>
<g clip-path="url(#cp2)">
<path transform="matrix(1,0,0,-1,6.177,174.48799)" stroke-width="1.19553" stroke-linecap="butt" stroke-miterlimit="10" stroke-linejoin="miter" fill="none" stroke="#000080" d="M 35.08464 614.15579 L 37.37587 244.98155 L 39.66711 141.89453 L 41.95834 106.24242 L 44.24957 91.432 L 46.54082 84.42062 L 48.83206 81.24298 L 51.12329 80.87714 L 53.41454 83.1588 L 55.70576 87.51665 L 57.99701 92.14867 L 60.28824 94.42911 L 62.57948 92.83932 L 64.87073 88.5446 L 67.16196 84.3216 L 69.4532 81.85402 L 71.74443 80.9438 L 74.03568 80.7316 L 76.3269 80.70097 L 78.61815 80.69832 L 80.9094 80.69818 L 83.20062 80.69818 L 85.49187 80.69818 L 87.7831 80.69818 L 90.07433 80.69818 L 92.36557 80.69818 L 94.65681 80.69818 L 96.94804 80.69818 L 99.23929 80.69818 L 101.53052 80.69818 L 103.82176 80.69818 L 106.11299 80.69818 L 108.40424 80.69818 L 110.69548 80.69818 L 112.98671 80.69818 L 115.27795 80.69818 L 117.56918 80.69818 L 119.86041 80.69818 L 122.15166 80.69818 L 124.4429 80.69818 L 126.73413 80.69818 L 129.02538 80.69818 L 131.31662 80.69818 L 133.60785 80.69818 L 135.89908 80.69818 L 138.19033 80.69818 L 140.48157 80.69818 L 142.7728 80.69818 L 145.06404 80.69818 L 147.35527 80.69818 "/>
<symbol id="font_3_1">
<path d="M .31800003 .615 C .32700003 .652 .331 .65400007 .37 .65400007 L .50000008 .65400007 C .61300006 .65400007 .61300006 .558 .61300006 .549 C .61300006 .46800003 .53200009 .365 .4 .365 L .256 .365 L .31800003 .615 M .48700003 .35700003 C .5960001 .377 .69500008 .453 .69500008 .545 C .69500008 .623 .62600007 .683 .5130001 .683 L .192 .683 C .17300001 .683 .164 .683 .164 .66400006 C .164 .65400007 .17300001 .65400007 .18800003 .65400007 C .24900002 .65400007 .24900002 .646 .24900002 .63500007 C .24900002 .633 .24900002 .62700006 .245 .61200007 L .11000001 .074 C .101 .039 .099 .029000001 .029000007 .029000001 C .010000002 .029000001 0 .029000001 0 .011000001 C 0 0 .006000001 0 .026 0 L .36900003 0 C .5220001 0 .64000007 .116000007 .64000007 .21700001 C .64000007 .29900003 .5680001 .349 .48700003 .35700003 M .345 .029000001 L .21000001 .029000001 C .19600001 .029000001 .194 .029000001 .18800003 .030000002 C .17700002 .031000002 .176 .033 .176 .041 C .176 .048 .178 .054 .18 .063 L .25 .34500004 L .43800003 .34500004 C .55600008 .34500004 .55600008 .23500002 .55600008 .22700002 C .55600008 .13100001 .469 .029000001 .345 .029000001 Z "/>
</symbol>
<use xlink:href="#font_3_1" transform="matrix(20.6625,0,0,-20.6625,107.7238,153.47898)"/>
</g>
<symbol id="font_4_1">
<path d="M .305 .31300003 C .311 .33900003 .334 .43100003 .404 .43100003 C .409 .43100003 .433 .43100003 .454 .418 C .426 .41300003 .40600003 .388 .40600003 .36400003 C .40600003 .34800003 .417 .32900004 .444 .32900004 C .46600003 .32900004 .498 .34700004 .498 .38700003 C .498 .43900005 .439 .45300005 .405 .45300005 C .347 .45300005 .312 .40000005 .3 .37700004 C .275 .44300003 .221 .45300005 .19200002 .45300005 C .08800001 .45300005 .031000002 .32400004 .031000002 .29900003 C .031000002 .28900004 .041 .28900004 .043000007 .28900004 C .051000008 .28900004 .054000006 .291 .056 .3 C .09 .40600003 .156 .43100003 .19000001 .43100003 C .209 .43100003 .244 .42200003 .244 .36400003 C .244 .33300004 .22700002 .26600004 .19000001 .126 C .17400001 .064 .13900002 .022000002 .095000009 .022000002 C .08900001 .022000002 .06600001 .022000002 .045 .035 C .07000001 .040000004 .09200001 .061 .09200001 .089 C .09200001 .116000007 .07000001 .124000009 .055000009 .124000009 C .025 .124000009 0 .098000008 0 .06600001 C 0 .020000002 .050000006 0 .094000007 0 C .16000001 0 .19600001 .07000001 .19900002 .076000008 C .21100001 .039 .24700003 0 .307 0 C .41 0 .467 .12900001 .467 .15400002 C .467 .16400002 .458 .16400002 .455 .16400002 C .446 .16400002 .444 .16000001 .442 .15300001 C .409 .046 .341 .022000002 .30900003 .022000002 C .27 .022000002 .254 .054 .254 .08800001 C .254 .11000001 .26 .13200002 .271 .17600002 L .305 .31300003 Z "/>
</symbol>
<use xlink:href="#font_4_1" transform="matrix(9.9626,0,0,-9.9626,157.36492,96.03057)"/>
<symbol id="font_4_2">
<path d="M .45700003 .586 C .461 .6 .461 .602 .461 .609 C .461 .62700006 .447 .63600006 .432 .63600006 C .42200003 .63600006 .40600003 .63 .397 .615 C .395 .61 .387 .579 .38300003 .561 C .37600003 .535 .36900003 .508 .363 .48100005 L .318 .301 C .314 .286 .271 .21600002 .20500002 .21600002 C .15400002 .21600002 .143 .26000003 .143 .29700003 C .143 .34300003 .16000001 .40500004 .194 .49300004 C .21000001 .53400006 .21400002 .545 .21400002 .56500008 C .21400002 .61 .18200001 .6470001 .13200002 .6470001 C .037 .6470001 0 .50200006 0 .49300004 C 0 .48300005 .01 .48300005 .012 .48300005 C .022000002 .48300005 .023 .485 .028000003 .50100007 C .055000009 .595 .095000009 .625 .12900001 .625 C .13700001 .625 .15400002 .625 .15400002 .59300008 C .15400002 .568 .14400001 .54200008 .13700001 .523 C .097 .41700004 .079 .36 .079 .31300003 C .079 .224 .142 .194 .201 .194 C .24000003 .194 .274 .21100001 .30200003 .23900002 C .289 .187 .277 .13800001 .237 .08500001 C .21100001 .051 .17300001 .022 .127 .022 C .113000009 .022 .068 .025000006 .051000008 .06400001 C .067 .06400001 .080000009 .06400001 .094000007 .076000008 C .104 .08500001 .11400001 .098000008 .11400001 .117000009 C .11400001 .148 .087000008 .15200001 .07700001 .15200001 C .054000006 .15200001 .021 .136 .021 .087000008 C .021 .037 .065000008 0 .127 0 C .23 0 .333 .091000009 .361 .20400001 L .45700003 .586 Z "/>
</symbol>
<use xlink:href="#font_4_2" transform="matrix(9.9626,0,0,-9.9626,54.14191,9.653326)"/>
</svg>
