<?xml version="1.0" encoding="UTF-8" standalone="no"?>
<!DOCTYPE svg PUBLIC "-//W3C//DTD SVG 1.1//EN" "http://www.w3.org/Graphics/SVG/1.1/DTD/svg11.dtd">
<svg xmlns="http://www.w3.org/2000/svg" xmlns:xlink="http://www.w3.org/1999/xlink" version="1.1" width="207.031pt" height="177.251pt" viewBox="0 0 207.031 177.251">
<clipPath id="cp0">
<path transform="matrix(1,0,0,-1,.199,174.483)" d="M 0 0 L 194.26912 0 L 194.26912 161.39575 L 0 161.39575 Z "/>
</clipPath>
<g clip-path="url(#cp0)">
<path transform="matrix(1,0,0,-1,.199,174.483)" d="M 84.99274 13.44965 L 88.02818 18.49324 L 91.06364 23.53687 L 94.0991 28.58049 L 97.13455 33.62411 L 100.17001 38.66771 L 103.20546 43.71133 L 106.24092 48.75496 L 109.27637 53.79858 L 112.31183 58.84218 L 115.34729 63.8858 L 118.38274 68.92943 L 121.4182 73.97305 L 124.45364 79.01665 L 127.4891 84.06027 L 130.52455 89.1039 L 133.56002 94.14752 L 136.59548 99.19112 L 139.63092 104.23474 L 142.66638 109.27837 L 145.70183 114.32199 L 148.73729 119.36559 L 151.77275 124.40921 L 154.8082 129.45284 L 157.84366 134.49646 C 157.84366 141.92458 125.2277 147.9461 84.99274 147.9461 C 44.75777 147.9461 12.14182 141.92458 12.14182 134.49646 Z " fill="#cce6cc" fill-opacity=".5"/>
</g>
<clipPath id="cp1">
<path transform="matrix(1,0,0,-1,.199,174.483)" d="M 0 0 L 194.26912 0 L 194.26912 161.39575 L 0 161.39575 Z "/>
</clipPath>
<g clip-path="url(#cp1)">
<path transform="matrix(1,0,0,-1,.199,174.483)" d="M 12.14182 134.49646 L 15.18738 129.43602 L 18.23296 124.3756 L 21.27853 119.31511 L 24.32411 114.25468 L 27.36969 109.19426 L 30.41527 104.13383 L 33.46086 99.07341 L 36.50644 94.01292 L 39.55202 88.9525 L 42.5976 83.89206 L 45.64316 78.83165 L 48.68874 73.77122 L 51.73431 68.71072 L 54.77989 63.65031 L 57.82547 58.58987 L 60.87105 53.52945 L 63.91664 48.46901 L 66.96222 43.40857 L 70.0078 38.34813 L 73.05338 33.28769 L 76.09895 28.22725 L 79.14453 23.16681 L 82.19011 18.10638 L 85.23569 13.04593 L 157.84366 134.49646 C 157.84366 127.06833 125.2277 121.04681 84.99274 121.04681 C 44.75777 121.04681 12.14182 127.06833 12.14182 134.49646 Z " fill="#cce6cc" fill-opacity=".5"/>
</g>
<clipPath id="cp2">
<path transform="matrix(1,0,0,-1,.199,174.483)" d="M 0 0 L 194.26912 0 L 194.26912 161.39575 L 0 161.39575 Z "/>
</clipPath>
<g clip-path="url(#cp2)">
<path transform="matrix(1,0,0,-1,.199,174.483)" d="M 12.14182 134.49646 L 15.18738 129.43602 L 18.23296 124.3756 L 21.27853 119.31511 L 24.32411 114.25468 L 27.36969 109.19426 L 30.41527 104.13383 L 33.46086 99.07341 L 36.50644 94.01292 L 39.55202 88.9525 L 42.5976 83.89206 L 45.64316 78.83165 L 48.68874 73.77122 L 51.73431 68.71072 L 54.77989 63.65031 L 57.82547 58.58987 L 60.87105 53.52945 L 63.91664 48.46901 L 66.96222 43.40857 L 70.0078 38.34813 L 73.05338 33.28769 L 76.09895 28.22725 L 79.14453 23.16681 L 82.19011 18.10638 L 85.23569 13.04593 L 133.56002 94.14752 C 133.56002 99.10207 111.81604 103.11842 84.99274 103.11842 C 58.16942 103.11842 36.42545 99.10207 36.42545 94.14752 Z " fill="#0000ff" fill-opacity=".25"/>
</g>
<clipPath id="cp3">
<path transform="matrix(1,0,0,-1,.199,174.483)" d="M 0 0 L 194.26912 0 L 194.26912 161.39575 L 0 161.39575 Z "/>
</clipPath>
<g clip-path="url(#cp3)">
<path transform="matrix(1,0,0,-1,.199,174.483)" d="M 157.84366 134.49646 C 157.84366 141.92458 125.2277 147.9461 84.99274 147.9461 C 44.75777 147.9461 12.14182 141.92458 12.14182 134.49646 C 12.14182 127.06833 44.75777 121.04681 84.99274 121.04681 C 125.2277 121.04681 157.84366 127.06833 157.84366 134.49646 Z M 84.99274 134.49646 " fill="#cce6cc"/>
<path transform="matrix(1,0,0,-1,.199,174.483)" stroke-width="1.19553" stroke-linecap="butt" stroke-miterlimit="10" stroke-linejoin="miter" fill="none" stroke="#000080" d="M 157.84366 134.49646 C 157.84366 141.92458 125.2277 147.9461 84.99274 147.9461 C 44.75777 147.9461 12.14182 141.92458 12.14182 134.49646 C 12.14182 127.06833 44.75777 121.04681 84.99274 121.04681 C 125.2277 121.04681 157.84366 127.06833 157.84366 134.49646 Z M 84.99274 134.49646 "/>
<g>
<path transform="matrix(1,0,0,-1,.199,174.483)" d="M 133.56002 94.14752 C 133.56002 99.10207 111.81604 103.11842 84.99274 103.11842 C 58.16942 103.11842 36.42545 99.10207 36.42545 94.14752 C 36.42545 89.19296 58.16942 85.17662 84.99274 85.17662 C 111.81604 85.17662 133.56002 89.19296 133.56002 94.14752 Z M 84.99274 94.14752 " fill="#0000ff" fill-opacity=".25"/>
<path transform="matrix(1,0,0,-1,.199,174.483)" stroke-width="1.19553" stroke-linecap="butt" stroke-miterlimit="10" stroke-linejoin="miter" fill="none" stroke="#000080" stroke-opacity=".25" d="M 133.56002 94.14752 C 133.56002 99.10207 111.81604 103.11842 84.99274 103.11842 C 58.16942 103.11842 36.42545 99.10207 36.42545 94.14752 C 36.42545 89.19296 58.16942 85.17662 84.99274 85.17662 C 111.81604 85.17662 133.56002 89.19296 133.56002 94.14752 Z M 84.99274 94.14752 "/>
</g>
<path transform="matrix(1,0,0,-1,.199,174.483)" stroke-width="1.19553" stroke-linecap="butt" stroke-miterlimit="10" stroke-linejoin="miter" fill="none" stroke="#000080" d="M 133.56002 94.14752 C 133.56002 89.19296 111.81604 85.17662 84.99274 85.17662 C 58.16942 85.17662 36.42545 89.19296 36.42545 94.14752 "/>
<path transform="matrix(1,0,0,-1,.199,174.483)" stroke-width="1.19553" stroke-linecap="butt" stroke-dasharray="2.98883,2.98883" stroke-miterlimit="10" stroke-linejoin="miter" fill="none" stroke="#000080" d="M 133.56002 94.14752 C 133.56002 99.10207 111.81604 103.11842 84.99274 103.11842 C 58.16942 103.11842 36.42545 99.10207 36.42545 94.14752 "/>
<path transform="matrix(1,0,0,-1,.199,174.483)" stroke-width="1.19553" stroke-linecap="butt" stroke-miterlimit="10" stroke-linejoin="miter" fill="none" stroke="#000080" d="M 84.99274 13.44965 C 84.99274 13.44965 87.18587 17.09367 88.02818 18.49324 C 88.87051 19.89282 90.22131 22.13728 91.06364 23.53687 C 91.90598 24.93645 93.25677 27.18091 94.0991 28.58049 C 94.94142 29.98007 96.29222 32.22453 97.13455 33.62411 C 97.97688 35.02368 99.32768 37.26814 100.17001 38.66771 C 101.01233 40.06729 102.36314 42.31175 103.20546 43.71133 C 104.04779 45.11092 105.39859 47.35538 106.24092 48.75496 C 107.08325 50.15454 108.43405 52.399 109.27637 53.79858 C 110.1187 55.19815 111.4695 57.44261 112.31183 58.84218 C 113.15416 60.24176 114.50496 62.48622 115.34729 63.8858 C 116.1896 65.28539 117.5404 67.52985 118.38274 68.92943 C 119.22507 70.32901 120.57587 72.57347 121.4182 73.97305 C 122.26051 75.37262 123.61133 77.61708 124.45364 79.01665 C 125.29597 80.41623 126.64677 82.66069 127.4891 84.06027 C 128.33144 85.45985 129.68224 87.70432 130.52455 89.1039 C 131.36688 90.50348 132.71768 92.74794 133.56002 94.14752 C 134.40235 95.54709 135.75315 97.79155 136.59548 99.19112 C 137.43779 100.5907 138.7886 102.83516 139.63092 104.23474 C 140.47325 105.63432 141.82405 107.87878 142.66638 109.27837 C 143.50872 110.67795 144.85951 112.92241 145.70183 114.32199 C 146.54416 115.72156 147.89496 117.96602 148.73729 119.36559 C 149.57962 120.76517 150.93042 123.00963 151.77275 124.40921 C 152.61507 125.80879 153.96587 128.05326 154.8082 129.45284 C 155.65053 130.85242 157.84366 134.49646 157.84366 134.49646 "/>
<path transform="matrix(1,0,0,-1,.199,174.483)" stroke-width="1.19553" stroke-linecap="butt" stroke-miterlimit="10" stroke-linejoin="miter" fill="none" stroke="#000080" d="M 12.14182 134.49646 C 12.14182 134.49646 14.33495 130.85242 15.17726 129.45284 C 16.01959 128.05326 17.37039 125.80879 18.21272 124.40921 C 19.05505 123.00963 20.40585 120.76517 21.24818 119.36559 C 22.0905 117.96602 23.4413 115.72156 24.28363 114.32199 C 25.12596 112.92241 26.47676 110.67795 27.31909 109.27837 C 28.1614 107.87878 29.51222 105.63432 30.35454 104.23474 C 31.19687 102.83516 32.54767 100.5907 33.39 99.19112 C 34.23233 97.79155 35.58313 95.54709 36.42545 94.14752 C 37.26778 92.74794 38.61858 90.50348 39.4609 89.1039 C 40.30324 87.70432 41.65404 85.45985 42.49637 84.06027 C 43.33868 82.66069 44.6895 80.41623 45.53181 79.01665 C 46.37415 77.61708 47.72495 75.37262 48.56728 73.97305 C 49.4096 72.57347 50.7604 70.32901 51.60272 68.92943 C 52.44505 67.52985 53.79585 65.28539 54.63818 63.8858 C 55.48051 62.48622 56.83131 60.24176 57.67365 58.84218 C 58.51596 57.44261 59.86676 55.19815 60.70909 53.79858 C 61.55142 52.399 62.90222 50.15454 63.74455 48.75496 C 64.58687 47.35538 65.93768 45.11092 66.78 43.71133 C 67.62233 42.31175 68.97313 40.06729 69.81546 38.66771 C 70.65779 37.26814 72.00859 35.02368 72.8509 33.62411 C 73.69324 32.22453 75.04404 29.98007 75.88637 28.58049 C 76.7287 27.18091 78.0795 24.93645 78.92183 23.53687 C 79.76414 22.13728 81.11494 19.89282 81.95728 18.49324 C 82.7996 17.09367 84.99274 13.44965 84.99274 13.44965 "/>
<path transform="matrix(1,0,0,-1,.199,174.483)" stroke-width="1" stroke-linecap="butt" stroke-miterlimit="10" stroke-linejoin="miter" fill="none" stroke="#000000" d="M 136.39487 94.14752 C 137.14208 93.77393 137.64022 92.90218 137.64022 91.65683 L 137.64022 56.28928 C 137.64022 55.04393 138.13834 54.17216 138.88556 53.79858 C 138.13834 53.42499 137.64022 52.55324 137.64022 51.30789 L 137.64022 15.94034 C 137.64022 14.69499 137.14208 13.82323 136.39487 13.44965 "/>
<symbol id="font_4_6">
<path d="M .089999999 .35000003 L .089999999 .37400005 C .089999999 .62700006 .21400002 .66300007 .26500003 .66300007 C .28900004 .66300007 .33100004 .65700009 .35300002 .623 C .33800004 .623 .298 .623 .298 .57800009 C .298 .54700008 .32200004 .53200009 .344 .53200009 C .36 .53200009 .39000003 .54100009 .39000003 .58000007 C .39000003 .64000007 .34600003 .688 .263 .688 C .13499999 .688 0 .559 0 .33800004 C 0 .071 .116000007 0 .20900002 0 C .32000003 0 .41500003 .094000007 .41500003 .22600001 C .41500003 .35300005 .32600004 .44900004 .215 .44900004 C .14700002 .44900004 .11000001 .39800004 .089999999 .35000003 M .20900002 .028 C .146 .028 .116000007 .088 .11000001 .103 C .092 .15 .092 .23 .092 .24800001 C .092 .32600004 .124000009 .42600004 .21400002 .42600004 C .23000002 .42600004 .27600003 .42600004 .307 .36400003 C .32500003 .32700003 .32500003 .27600003 .32500003 .22700002 C .32500003 .179 .32500003 .12900001 .30800004 .093 C .27800004 .033000005 .23200003 .028 .20900002 .028 Z "/>
</symbol>
<symbol id="font_4_9">
<path d="M .07800001 .344 L .07800001 .076000008 C .07800001 .031000002 .067 .031000002 0 .031000002 L 0 0 C .035 .001 .08600001 .003 .113000009 .003 C .139 .003 .191 .001 .225 0 L .225 .031000002 C .158 .031000002 .147 .031000002 .147 .076000008 L .147 .26000003 C .147 .36400003 .218 .42000003 .282 .42000003 C .345 .42000003 .356 .36600004 .356 .30900003 L .356 .076000008 C .356 .031000002 .345 .031000002 .278 .031000002 L .278 0 C .31300003 .001 .36400003 .003 .391 .003 C .41700004 .003 .46900005 .001 .503 0 L .503 .031000002 C .43600003 .031000002 .425 .031000002 .425 .076000008 L .425 .26000003 C .425 .36400003 .496 .42000003 .56 .42000003 C .623 .42000003 .634 .36600004 .634 .30900003 L .634 .076000008 C .634 .031000002 .623 .031000002 .556 .031000002 L .556 0 C .591 .001 .642 .003 .669 .003 C .69500008 .003 .74700006 .001 .781 0 L .781 .031000002 C .72900006 .031000002 .70400008 .031000002 .703 .061000006 L .703 .252 C .703 .33800004 .703 .36900003 .67200008 .40500004 C .65800008 .42200003 .625 .44200004 .56700006 .44200004 C .48300005 .44200004 .439 .38200004 .42200003 .344 C .40800003 .43100003 .33400003 .44200004 .289 .44200004 C .216 .44200004 .169 .39900003 .141 .337 L .141 .44200004 L 0 .43100003 L 0 .4 C .07000001 .4 .07800001 .393 .07800001 .344 Z "/>
</symbol>
<use xlink:href="#font_4_6" transform="matrix(9.9626,0,0,-9.9626,142.55243,124.11517)"/>
<use xlink:href="#font_4_9" transform="matrix(9.9626,0,0,-9.9626,149.09786,123.895999)"/>
<path transform="matrix(1,0,0,-1,.199,174.483)" stroke-width="1" stroke-linecap="butt" stroke-miterlimit="10" stroke-linejoin="miter" fill="none" stroke="#000000" d="M 160.6785 134.49646 C 161.4257 134.12287 161.92385 133.25112 161.92385 132.00577 L 161.92385 76.46375 C 161.92385 75.2184 162.42197 74.34663 163.16919 73.97305 C 162.42197 73.59946 161.92385 72.7277 161.92385 71.48236 L 161.92385 15.94034 C 161.92385 14.69499 161.4257 13.82323 160.6785 13.44965 "/>
<symbol id="font_4_8">
<path d="M .32500003 .34000004 L .32500003 .30800004 C .32500003 .074 .22100002 .028 .16300002 .028 C .146 .028 .092 .030000002 .065000008 .064 C .109000008 .064 .117000009 .093 .117000009 .11000001 C .117000009 .141 .093 .156 .071 .156 C .055 .156 .024999999 .147 .024999999 .108 C .024999999 .041 .079 0 .164 0 C .293 0 .41500003 .136 .41500003 .35100005 C .41500003 .62000009 .3 .688 .21100003 .688 C .15600002 .688 .107 .67 .064 .62500008 C .023000002 .58000007 0 .53800007 0 .46300004 C 0 .33800004 .08800001 .24000001 .20000002 .24000001 C .261 .24000001 .30200003 .28200004 .32500003 .34000004 M .201 .263 C .185 .263 .139 .263 .108 .32600004 C .089999999 .36300005 .089999999 .41300006 .089999999 .46200005 C .089999999 .51600006 .089999999 .563 .11100001 .6 C .13800001 .65000006 .176 .66300007 .21100003 .66300007 C .25700004 .66300007 .29000003 .62900009 .307 .58400008 C .31900005 .55200007 .323 .48900003 .323 .44300006 C .323 .36000005 .28900004 .263 .201 .263 Z "/>
</symbol>
<use xlink:href="#font_4_8" transform="matrix(9.9626,0,0,-9.9626,166.83544,103.940189)"/>
<use xlink:href="#font_4_9" transform="matrix(9.9626,0,0,-9.9626,173.38086,103.72101)"/>
<path transform="matrix(1,0,0,-1,.199,174.483)" stroke-width="1" stroke-linecap="butt" stroke-miterlimit="10" stroke-linejoin="miter" fill="none" stroke="#000000" d="M 84.99274 94.14752 L 133.56002 94.14752 "/>
</g>
<symbol id="font_5_1">
<path d="M .57600006 0 C .59300008 0 .611 0 .611 .019999996 C .611 .040000008 .59300008 .040000008 .57600006 .040000008 L .035000005 .040000008 C .018 .040000008 0 .040000008 0 .019999996 C 0 0 .018 0 .035000005 0 L .57600006 0 Z "/>
</symbol>
<use xlink:href="#font_5_1" transform="matrix(9.9626,0,0,-9.9626,6.8028957,170.80861)"/>
<symbol id="font_4_4">
<path d="M .24800003 .37400005 C .33 .40100003 .388 .47100006 .388 .55 C .388 .632 .3 .688 .204 .688 C .10300001 .688 .027000003 .628 .027000003 .55200007 C .027000003 .519 .049000004 .5 .078 .5 C .109000008 .5 .12900001 .522 .12900001 .55100008 C .12900001 .6010001 .082 .6010001 .067 .6010001 C .098 .65000006 .164 .66300007 .20000002 .66300007 C .24100003 .66300007 .29600004 .64100006 .29600004 .55100008 C .29600004 .53900006 .29400004 .48100005 .268 .43700005 C .238 .38900004 .204 .38600005 .17900002 .38500003 C .171 .38400004 .14700002 .38200004 .14000002 .38200004 C .132 .38100005 .125 .38000003 .125 .37000004 C .125 .35900004 .132 .35900004 .14900002 .35900004 L .19300002 .35900004 C .275 .35900004 .312 .29100005 .312 .193 C .312 .057000005 .24300003 .028 .199 .028 C .15600002 .028 .081 .045 .046000005 .104 C .081 .09900001 .11200001 .12100001 .11200001 .15900001 C .11200001 .19500001 .085 .215 .056 .215 C .031999999 .215 0 .201 0 .157 C 0 .06600001 .093 0 .20200002 0 C .32400004 0 .41500003 .091000009 .41500003 .193 C .41500003 .27500005 .35200004 .35300005 .24800003 .37400005 Z "/>
</symbol>
<use xlink:href="#font_4_4" transform="matrix(9.9626,0,0,-9.9626,14.14343,173.31919)"/>
<use xlink:href="#font_5_1" transform="matrix(9.9626,0,0,-9.9626,31.085896,170.80861)"/>
<symbol id="font_4_3">
<path d="M .07700001 .07700001 L .18300002 .18 C .33900003 .31800003 .39900003 .372 .39900003 .47200004 C .39900003 .586 .30900003 .666 .18700002 .666 C .074 .666 0 .574 0 .485 C 0 .42900003 .05 .42900003 .053000008 .42900003 C .07000001 .42900003 .105000007 .441 .105000007 .48200003 C .105000007 .508 .08700001 .53400006 .052000006 .53400006 C .044000005 .53400006 .042000008 .53400006 .039 .53300008 C .062000004 .59800007 .11600001 .63500007 .17400001 .63500007 C .26500003 .63500007 .308 .554 .308 .47200004 C .308 .39200003 .25800003 .31300003 .20300003 .25100003 L .011000004 .037 C 0 .026 0 .024 0 0 L .37100003 0 L .39900003 .17400001 L .374 .17400001 C .36900003 .14400001 .36200003 .1 .352 .085 C .345 .07700001 .279 .07700001 .257 .07700001 L .07700001 .07700001 Z "/>
</symbol>
<use xlink:href="#font_4_3" transform="matrix(9.9626,0,0,-9.9626,38.506128,173.1)"/>
<use xlink:href="#font_5_1" transform="matrix(9.9626,0,0,-9.9626,55.3699,170.80861)"/>
<symbol id="font_4_2">
<path d="M .205 .64000007 C .205 .66400006 .205 .666 .18200003 .666 C .120000008 .60200008 .032000007 .60200008 0 .60200008 L 0 .57100006 C .020000004 .57100006 .07900001 .57100006 .13100001 .597 L .13100001 .079 C .13100001 .043 .128 .031000002 .038000004 .031000002 L .0060000049 .031000002 L .0060000049 0 C .04100001 .003 .128 .003 .168 .003 C .20800002 .003 .29500003 .003 .33000005 0 L .33000005 .031000002 L .29800005 .031000002 C .20800002 .031000002 .205 .042000005 .205 .079 L .205 .64000007 Z "/>
</symbol>
<use xlink:href="#font_4_2" transform="matrix(9.9626,0,0,-9.9626,63.177679,173.1)"/>
<use xlink:href="#font_4_2" transform="matrix(9.9626,0,0,-9.9626,107.870677,173.1)"/>
<use xlink:href="#font_4_3" transform="matrix(9.9626,0,0,-9.9626,131.76512,173.1)"/>
<use xlink:href="#font_4_4" transform="matrix(9.9626,0,0,-9.9626,155.96843,173.31919)"/>
<use xlink:href="#font_4_3" transform="matrix(9.9626,0,0,-9.9626,75.062129,137.345)"/>
<symbol id="font_4_5">
<path d="M .266 .165 L .266 .078 C .266 .042000005 .26400004 .031000002 .19000001 .031000002 L .16900002 .031000002 L .16900002 0 C .21000001 .003 .26200003 .003 .30400003 .003 C .34600003 .003 .39900003 .003 .44000004 0 L .44000004 .031000002 L .41900004 .031000002 C .34500004 .031000002 .34300003 .042000005 .34300003 .078 L .34300003 .165 L .44300003 .165 L .44300003 .19600001 L .34300003 .19600001 L .34300003 .651 C .34300003 .671 .34300003 .67700007 .32700003 .67700007 C .31800003 .67700007 .31500004 .67700007 .307 .665 L 0 .19600001 L 0 .165 L .266 .165 M .272 .19600001 L .028 .19600001 L .272 .569 L .272 .19600001 Z "/>
</symbol>
<use xlink:href="#font_4_5" transform="matrix(9.9626,0,0,-9.9626,74.84295,110.44601)"/>
<use xlink:href="#font_4_6" transform="matrix(9.9626,0,0,-9.9626,74.98242,83.76618)"/>
<symbol id="font_4_7">
<path d="M .121 .47900004 C .075 .509 .071 .54300007 .071 .56000009 C .071 .62100008 .136 .66300007 .20700002 .66300007 C .28000004 .66300007 .344 .61100009 .344 .53900006 C .344 .48200003 .305 .43400005 .245 .39900003 L .121 .47900004 M .26700003 .38400004 C .33900003 .42100004 .388 .47300006 .388 .53900006 C .388 .63100007 .29900003 .688 .208 .688 C .108 .688 .027000003 .614 .027000003 .521 C .027000003 .503 .029 .45800004 .071 .41100005 C .082 .39900003 .11900001 .37400005 .144 .35700003 C .086 .32800005 0 .272 0 .17300001 C 0 .067 .102000009 0 .20700002 0 C .32000003 0 .41500003 .083000008 .41500003 .19000001 C .41500003 .22600001 .404 .27100004 .36600004 .31300003 C .34700004 .33400003 .33100004 .34400005 .26700003 .38400004 M .167 .34200005 L .29000003 .26400004 C .31800003 .245 .365 .215 .365 .154 C .365 .080000009 .29000003 .028 .208 .028 C .122 .028 .050000006 .09 .050000006 .17300001 C .050000006 .231 .082 .29500003 .167 .34200005 Z "/>
</symbol>
<use xlink:href="#font_4_7" transform="matrix(9.9626,0,0,-9.9626,74.98242,56.867189)"/>
<symbol id="font_4_1">
<path d="M .421 .34200005 C .421 .42200003 .416 .50200006 .381 .57600006 C .335 .67200008 .25300003 .688 .211 .688 C .15100001 .688 .07800001 .66200008 .037000006 .56900009 C .0050000029 .5 0 .42200003 0 .34200005 C 0 .26700003 .0040000008 .177 .045000007 .101 C .088 .020000002 .161 0 .21000001 0 C .264 0 .34 .021000002 .384 .116000007 C .416 .185 .421 .263 .421 .34200005 M .21000001 .022000002 C .171 .022000002 .112 .047000003 .094 .143 C .083000008 .20300001 .083000008 .29500003 .083000008 .35400004 C .083000008 .41800005 .083000008 .48400004 .091000009 .53800007 C .11 .65700009 .185 .66600009 .21000001 .66600009 C .243 .66600009 .30900003 .64800009 .328 .549 C .338 .49300004 .338 .41700004 .338 .35400004 C .338 .279 .338 .21100001 .32700003 .147 C .312 .052 .255 .022000002 .21000001 .022000002 Z "/>
</symbol>
<use xlink:href="#font_4_2" transform="matrix(9.9626,0,0,-9.9626,70.46967,29.749009)"/>
<use xlink:href="#font_4_1" transform="matrix(9.9626,0,0,-9.9626,74.95284,29.968186)"/>
<symbol id="font_6_1">
<path d="M .305 .31300003 C .311 .33900003 .334 .43100003 .404 .43100003 C .409 .43100003 .433 .43100003 .454 .418 C .426 .41300003 .40600003 .388 .40600003 .36400003 C .40600003 .34800003 .417 .32900004 .444 .32900004 C .46600003 .32900004 .498 .34700004 .498 .38700003 C .498 .43900005 .439 .45300005 .405 .45300005 C .347 .45300005 .312 .40000005 .3 .37700004 C .275 .44300003 .221 .45300005 .19200002 .45300005 C .08800001 .45300005 .031000002 .32400004 .031000002 .29900003 C .031000002 .28900004 .041 .28900004 .043000007 .28900004 C .051000008 .28900004 .054000006 .291 .056 .3 C .09 .40600003 .156 .43100003 .19000001 .43100003 C .209 .43100003 .244 .42200003 .244 .36400003 C .244 .33300004 .22700002 .26600004 .19000001 .126 C .17400001 .064 .13900002 .022000002 .095000009 .022000002 C .08900001 .022000002 .06600001 .022000002 .045 .035 C .07000001 .040000004 .09200001 .061 .09200001 .089 C .09200001 .116000007 .07000001 .124000009 .055000009 .124000009 C .025 .124000009 0 .098000008 0 .06600001 C 0 .020000002 .050000006 0 .094000007 0 C .16000001 0 .19600001 .07000001 .19900002 .076000008 C .21100001 .039 .24700003 0 .307 0 C .41 0 .467 .12900001 .467 .15400002 C .467 .16400002 .458 .16400002 .455 .16400002 C .446 .16400002 .444 .16000001 .442 .15300001 C .409 .046 .341 .022000002 .30900003 .022000002 C .27 .022000002 .254 .054 .254 .08800001 C .254 .11000001 .26 .13200002 .271 .17600002 L .305 .31300003 Z "/>
</symbol>
<use xlink:href="#font_6_1" transform="matrix(9.9626,0,0,-9.9626,198.30591,163.28559)"/>
<symbol id="font_6_2">
<path d="M .45700003 .586 C .461 .6 .461 .602 .461 .609 C .461 .62700006 .447 .63600006 .432 .63600006 C .42200003 .63600006 .40600003 .63 .397 .615 C .395 .61 .387 .579 .38300003 .561 C .37600003 .535 .36900003 .508 .363 .48100005 L .318 .301 C .314 .286 .271 .21600002 .20500002 .21600002 C .15400002 .21600002 .143 .26000003 .143 .29700003 C .143 .34300003 .16000001 .40500004 .194 .49300004 C .21000001 .53400006 .21400002 .545 .21400002 .56500008 C .21400002 .61 .18200001 .6470001 .13200002 .6470001 C .037 .6470001 0 .50200006 0 .49300004 C 0 .48300005 .01 .48300005 .012 .48300005 C .022000002 .48300005 .023 .485 .028000003 .50100007 C .055000009 .595 .095000009 .625 .12900001 .625 C .13700001 .625 .15400002 .625 .15400002 .59300008 C .15400002 .568 .14400001 .54200008 .13700001 .523 C .097 .41700004 .079 .36 .079 .31300003 C .079 .224 .142 .194 .201 .194 C .24000003 .194 .274 .21100001 .30200003 .23900002 C .289 .187 .277 .13800001 .237 .08500001 C .21100001 .051 .17300001 .022 .127 .022 C .113000009 .022 .068 .025000006 .051000008 .06400001 C .067 .06400001 .080000009 .06400001 .094000007 .076000008 C .104 .08500001 .11400001 .098000008 .11400001 .117000009 C .11400001 .148 .087000008 .15200001 .07700001 .15200001 C .054000006 .15200001 .021 .136 .021 .087000008 C .021 .037 .065000008 0 .127 0 C .23 0 .333 .091000009 .361 .20400001 L .45700003 .586 Z "/>
</symbol>
<use xlink:href="#font_6_2" transform="matrix(9.9626,0,0,-9.9626,82.874919,9.652334)"/>
<path transform="matrix(1,0,0,-1,.199,174.483)" stroke-width="1" stroke-linecap="butt" stroke-miterlimit="10" stroke-linejoin="miter" fill="none" stroke="#808080" d="M 12.14182 11.32335 L 12.14182 15.57591 M 36.42545 11.32335 L 36.42545 15.57591 M 60.70909 11.32335 L 60.70909 15.57591 M 109.27637 11.32335 L 109.27637 15.57591 M 133.56002 11.32335 L 133.56002 15.57591 M 157.84366 11.32335 L 157.84366 15.57591 "/>
<path transform="matrix(1,0,0,-1,.199,174.483)" stroke-width="1" stroke-linecap="butt" stroke-miterlimit="10" stroke-linejoin="miter" fill="none" stroke="#808080" d="M 82.86678 40.34894 L 87.11867 40.34894 M 82.86678 67.24823 L 87.11867 67.24823 M 82.86678 94.14752 L 87.11867 94.14752 M 82.86678 121.04681 L 87.11867 121.04681 M 82.86678 147.9461 L 87.11867 147.9461 "/>
<path transform="matrix(1,0,0,-1,.199,174.483)" stroke-width="1" stroke-linecap="butt" stroke-miterlimit="10" stroke-linejoin="miter" fill="none" stroke="#000000" d="M 0 13.44965 L 192.2766 13.44965 "/>
<path transform="matrix(1,0,0,-1,192.4756,161.03336)" d="M 1.99252 0 L -1.19551 1.59401 L 0 0 L -1.19551 -1.59401 "/>
<path transform="matrix(1,0,0,-1,.199,174.483)" stroke-width="1" stroke-linecap="butt" stroke-miterlimit="10" stroke-linejoin="miter" fill="none" stroke="#000000" d="M 84.99274 0 L 84.99274 159.40323 "/>
<path transform="matrix(0,-1,-1,-0,85.191738,15.079773)" d="M 1.99252 0 L -1.19551 1.59401 L 0 0 L -1.19551 -1.59401 "/>
</svg>
