<?xml version="1.0" encoding="UTF-8" standalone="no"?>
<!DOCTYPE svg PUBLIC "-//W3C//DTD SVG 1.1//EN" "http://www.w3.org/Graphics/SVG/1.1/DTD/svg11.dtd">
<svg xmlns="http://www.w3.org/2000/svg" xmlns:xlink="http://www.w3.org/1999/xlink" version="1.1" width="207.031pt" height="177.251pt" viewBox="0 0 207.031 177.251">
<clipPath id="cp0">
<path transform="matrix(1,0,0,-1,.199,174.483)" d="M 0 0 L 194.26912 0 L 194.26912 161.39575 L 0 161.39575 Z "/>
</clipPath>
<g clip-path="url(#cp0)">
<path transform="matrix(1,0,0,-1,.199,174.483)" d="M 12.14182 134.49646 L 18.21272 115.16258 L 24.28363 97.50992 L 30.35454 81.53847 L 36.42545 67.24823 L 42.49637 54.63918 L 48.56728 43.71133 L 54.63818 34.4647 L 60.70909 26.89929 L 66.78 21.01506 L 72.8509 16.81204 L 78.92183 14.29024 L 84.99274 13.44965 L 91.06364 14.29024 L 97.13455 16.81204 L 103.20546 21.01506 L 109.27637 26.89929 L 115.34729 34.4647 L 121.4182 43.71133 L 127.4891 54.63918 L 133.56002 67.24823 L 139.63092 81.53847 L 145.70183 97.50992 L 151.77275 115.16258 L 157.84366 134.49646 C 157.84366 143.41022 125.2277 150.63603 84.99274 150.63603 C 44.75777 150.63603 12.14182 143.41022 12.14182 134.49646 Z " fill="#cce6cc" fill-opacity=".5"/>
</g>
<clipPath id="cp1">
<path transform="matrix(1,0,0,-1,.199,174.483)" d="M 0 0 L 194.26912 0 L 194.26912 161.39575 L 0 161.39575 Z "/>
</clipPath>
<g clip-path="url(#cp1)">
<path transform="matrix(1,0,0,-1,.199,174.483)" d="M 36.42545 67.24823 L 40.4727 58.65543 L 44.51996 50.80986 L 48.56721 43.7114 L 52.61447 37.36021 L 56.66171 31.7562 L 60.70898 26.89941 L 64.75624 22.78978 L 68.8035 19.42735 L 72.85075 16.81212 L 76.89801 14.9441 L 80.94527 13.82326 L 84.99252 13.44965 L 89.0398 13.82318 L 93.08704 14.94397 L 97.1343 16.8119 L 101.18155 19.42708 L 105.22882 22.7894 L 109.27606 26.89896 L 113.32332 31.75569 L 117.37057 37.35959 L 121.41785 43.71078 L 125.4651 50.8091 L 129.51235 58.6546 L 133.5596 67.24731 L 133.56002 67.24823 C 133.56002 73.19072 111.81604 78.00793 84.99274 78.00793 C 58.16942 78.00793 36.42545 73.19072 36.42545 67.24823 Z " fill="#0000ff" fill-opacity=".25"/>
</g>
<clipPath id="cp2">
<path transform="matrix(1,0,0,-1,.199,174.483)" d="M 0 0 L 194.26912 0 L 194.26912 161.39575 L 0 161.39575 Z "/>
</clipPath>
<g clip-path="url(#cp2)">
<path transform="matrix(1,0,0,-1,.199,174.483)" d="M 157.84366 134.49646 C 157.84366 143.41022 125.2277 150.63603 84.99274 150.63603 C 44.75777 150.63603 12.14182 143.41022 12.14182 134.49646 C 12.14182 125.5827 44.75777 118.35687 84.99274 118.35687 C 125.2277 118.35687 157.84366 125.5827 157.84366 134.49646 Z M 84.99274 134.49646 " fill="#cce6cc"/>
<path transform="matrix(1,0,0,-1,.199,174.483)" stroke-width="1.19553" stroke-linecap="butt" stroke-miterlimit="10" stroke-linejoin="miter" fill="none" stroke="#000080" d="M 157.84366 134.49646 C 157.84366 143.41022 125.2277 150.63603 84.99274 150.63603 C 44.75777 150.63603 12.14182 143.41022 12.14182 134.49646 C 12.14182 125.5827 44.75777 118.35687 84.99274 118.35687 C 125.2277 118.35687 157.84366 125.5827 157.84366 134.49646 Z M 84.99274 134.49646 "/>
<g>
<path transform="matrix(1,0,0,-1,.199,174.483)" d="M 133.56002 67.24823 C 133.56002 73.19072 111.81604 78.00793 84.99274 78.00793 C 58.16942 78.00793 36.42545 73.19072 36.42545 67.24823 C 36.42545 61.30573 58.16942 56.48851 84.99274 56.48851 C 111.81604 56.48851 133.56002 61.30573 133.56002 67.24823 Z M 84.99274 67.24823 " fill="#0000ff" fill-opacity=".25"/>
<path transform="matrix(1,0,0,-1,.199,174.483)" stroke-width="1.19553" stroke-linecap="butt" stroke-miterlimit="10" stroke-linejoin="miter" fill="none" stroke="#000080" stroke-opacity=".25" d="M 133.56002 67.24823 C 133.56002 73.19072 111.81604 78.00793 84.99274 78.00793 C 58.16942 78.00793 36.42545 73.19072 36.42545 67.24823 C 36.42545 61.30573 58.16942 56.48851 84.99274 56.48851 C 111.81604 56.48851 133.56002 61.30573 133.56002 67.24823 Z M 84.99274 67.24823 "/>
</g>
<path transform="matrix(1,0,0,-1,.199,174.483)" stroke-width="1.19553" stroke-linecap="butt" stroke-miterlimit="10" stroke-linejoin="miter" fill="none" stroke="#000080" d="M 133.56002 67.24823 C 133.56002 61.30573 111.81604 56.48851 84.99274 56.48851 C 58.16942 56.48851 36.42545 61.30573 36.42545 67.24823 "/>
<path transform="matrix(1,0,0,-1,.199,174.483)" stroke-width="1.19553" stroke-linecap="butt" stroke-dasharray="2.98883,2.98883" stroke-miterlimit="10" stroke-linejoin="miter" fill="none" stroke="#000080" d="M 133.56002 67.24823 C 133.56002 73.19072 111.81604 78.00793 84.99274 78.00793 C 58.16942 78.00793 36.42545 73.19072 36.42545 67.24823 "/>
<path transform="matrix(1,0,0,-1,.199,174.483)" stroke-width="1.19553" stroke-linecap="butt" stroke-miterlimit="10" stroke-linejoin="miter" fill="none" stroke="#000080" d="M 12.14182 134.49646 C 12.14182 134.49646 16.52808 120.29439 18.21272 115.16258 C 19.89737 110.03078 22.59898 102.1752 24.28363 97.50992 C 25.96829 92.84465 28.66989 85.7372 30.35454 81.53847 C 32.0392 77.33972 34.7408 70.98045 36.42545 67.24823 C 38.1101 63.516 40.8117 57.90486 42.49637 54.63918 C 44.18102 51.37349 46.88261 46.51051 48.56728 43.71133 C 50.25192 40.91217 52.95354 36.79733 54.63818 34.4647 C 56.32283 32.13206 59.02444 28.7654 60.70909 26.89929 C 62.39375 25.03319 65.09535 22.41464 66.78 21.01506 C 68.46466 19.61546 71.16626 17.7451 72.8509 16.81204 C 74.53557 15.879 77.23717 14.75674 78.92183 14.29024 C 80.60648 13.82372 83.30807 13.44965 84.99274 13.44965 C 86.67738 13.44965 89.379 13.82372 91.06364 14.29024 C 92.74829 14.75674 95.4499 15.879 97.13455 16.81204 C 98.81921 17.7451 101.52081 19.61546 103.20546 21.01506 C 104.89012 22.41464 107.59172 25.03319 109.27637 26.89929 C 110.96103 28.7654 113.66263 32.13206 115.34729 34.4647 C 117.03194 36.79733 119.73354 40.91217 121.4182 43.71133 C 123.10284 46.51051 125.80444 51.37349 127.4891 54.63918 C 129.17375 57.90486 131.87537 63.516 133.56002 67.24823 C 135.24466 70.98045 137.94628 77.33972 139.63092 81.53847 C 141.31558 85.7372 144.01718 92.84465 145.70183 97.50992 C 147.38649 102.1752 150.08809 110.03078 151.77275 115.16258 C 153.4574 120.29439 157.84366 134.49646 157.84366 134.49646 "/>
<path transform="matrix(1,0,0,-1,.199,174.483)" stroke-width="1" stroke-linecap="butt" stroke-miterlimit="10" stroke-linejoin="miter" fill="none" stroke="#000000" d="M 136.39487 67.24823 C 137.14208 66.87463 137.64022 66.00288 137.64022 64.75754 L 137.64022 42.83963 C 137.64022 41.59428 138.13834 40.72252 138.88556 40.34894 C 138.13834 39.97534 137.64022 39.10359 137.64022 37.85825 L 137.64022 15.94034 C 137.64022 14.69499 137.14208 13.82323 136.39487 13.44965 "/>
<symbol id="font_3_1">
<path d="M .232 .694 C .232 .695 .232 .705 .21900001 .705 C .19600001 .705 .122999999 .697 .097 .695 C .089 .694 .077999997 .693 .077999997 .675 C .077999997 .663 .087 .663 .102 .663 C .15 .663 .15200001 .656 .15200001 .646 L .149 .626 L .0040000008 .05 C 0 .036000004 0 .034 0 .028 C 0 .005000001 .02 0 .029000003 0 C .044999999 0 .061 .012000001 .066 .026 L .08499999 .102000009 L .10699999 .19200002 C .113000009 .21400002 .119 .23600002 .124 .259 C .126 .26500003 .134 .298 .135 .30400003 C .138 .31300003 .169 .36900003 .20300001 .39600004 C .225 .41200004 .256 .43100003 .299 .43100003 C .342 .43100003 .35300002 .397 .35300002 .36100004 C .35300002 .307 .315 .19800002 .291 .13700001 C .28300003 .11400001 .278 .102000009 .278 .082 C .278 .035 .31300003 0 .36 0 C .454 0 .491 .14600002 .491 .15400002 C .491 .16400002 .482 .16400002 .47900004 .16400002 C .46900005 .16400002 .46900005 .16100002 .46400006 .14600002 C .449 .093 .41700004 .022000002 .36200003 .022000002 C .345 .022000002 .338 .032 .338 .055000005 C .338 .080000009 .347 .104 .356 .126 C .372 .16900002 .41700004 .28800003 .41700004 .34600003 C .41700004 .411 .377 .45300005 .30200003 .45300005 C .239 .45300005 .191 .42200003 .154 .37600003 L .232 .694 Z "/>
</symbol>
<use xlink:href="#font_3_1" transform="matrix(9.9626,0,0,-9.9626,142.68195,137.70359)"/>
<path transform="matrix(1,0,0,-1,.199,174.483)" stroke-width="1" stroke-linecap="butt" stroke-miterlimit="10" stroke-linejoin="miter" fill="none" stroke="#800000" d="M 84.99274 134.49646 L 157.84366 134.49646 "/>
<path transform="matrix(1,0,0,-1,.199,174.483)" stroke-width="1" stroke-linecap="butt" stroke-dasharray="2.98883,2.98883" stroke-miterlimit="10" stroke-linejoin="miter" fill="none" stroke="#800000" d="M 157.84366 13.44965 L 157.84366 134.49646 "/>
<symbol id="font_3_2">
<path d="M .305 .31300003 C .311 .33900003 .334 .43100003 .404 .43100003 C .409 .43100003 .433 .43100003 .454 .418 C .426 .41300003 .40600003 .388 .40600003 .36400003 C .40600003 .34800003 .417 .32900004 .444 .32900004 C .46600003 .32900004 .498 .34700004 .498 .38700003 C .498 .43900005 .439 .45300005 .405 .45300005 C .347 .45300005 .312 .40000005 .3 .37700004 C .275 .44300003 .221 .45300005 .19200002 .45300005 C .08800001 .45300005 .031000002 .32400004 .031000002 .29900003 C .031000002 .28900004 .041 .28900004 .043000007 .28900004 C .051000008 .28900004 .054000006 .291 .056 .3 C .09 .40600003 .156 .43100003 .19000001 .43100003 C .209 .43100003 .244 .42200003 .244 .36400003 C .244 .33300004 .22700002 .26600004 .19000001 .126 C .17400001 .064 .13900002 .022000002 .095000009 .022000002 C .08900001 .022000002 .06600001 .022000002 .045 .035 C .07000001 .040000004 .09200001 .061 .09200001 .089 C .09200001 .116000007 .07000001 .124000009 .055000009 .124000009 C .025 .124000009 0 .098000008 0 .06600001 C 0 .020000002 .050000006 0 .094000007 0 C .16000001 0 .19600001 .07000001 .19900002 .076000008 C .21100001 .039 .24700003 0 .307 0 C .41 0 .467 .12900001 .467 .15400002 C .467 .16400002 .458 .16400002 .455 .16400002 C .446 .16400002 .444 .16000001 .442 .15300001 C .409 .046 .341 .022000002 .30900003 .022000002 C .27 .022000002 .254 .054 .254 .08800001 C .254 .11000001 .26 .13200002 .271 .17600002 L .305 .31300003 Z "/>
</symbol>
<use xlink:href="#font_3_2" transform="matrix(9.9626,0,0,-9.9626,166.70592,103.8306)" fill="#800000"/>
<symbol id="font_4_4">
<path d="M .63100007 .19400002 C .646 .19400002 .665 .19400002 .665 .214 C .665 .23400001 .646 .23400001 .632 .23400001 L .033 .23400001 C .019000002 .23400001 0 .23400001 0 .214 C 0 .19400002 .019000002 .19400002 .034 .19400002 L .63100007 .19400002 M .632 0 C .646 0 .665 0 .665 .02000001 C .665 .040000008 .646 .040000008 .63100007 .040000008 L .034 .040000008 C .019000002 .040000008 0 .040000008 0 .02000001 C 0 0 .019000002 0 .033 0 L .632 0 Z "/>
</symbol>
<symbol id="font_4_2">
<path d="M .24800003 .37400005 C .33 .40100003 .388 .47100006 .388 .55 C .388 .632 .3 .688 .204 .688 C .10300001 .688 .027000003 .628 .027000003 .55200007 C .027000003 .519 .049000004 .5 .078 .5 C .109000008 .5 .12900001 .522 .12900001 .55100008 C .12900001 .6010001 .082 .6010001 .067 .6010001 C .098 .65000006 .164 .66300007 .20000002 .66300007 C .24100003 .66300007 .29600004 .64100006 .29600004 .55100008 C .29600004 .53900006 .29400004 .48100005 .268 .43700005 C .238 .38900004 .204 .38600005 .17900002 .38500003 C .171 .38400004 .14700002 .38200004 .14000002 .38200004 C .132 .38100005 .125 .38000003 .125 .37000004 C .125 .35900004 .132 .35900004 .14900002 .35900004 L .19300002 .35900004 C .275 .35900004 .312 .29100005 .312 .193 C .312 .057000005 .24300003 .028 .199 .028 C .15600002 .028 .081 .045 .046000005 .104 C .081 .09900001 .11200001 .12100001 .11200001 .15900001 C .11200001 .19500001 .085 .215 .056 .215 C .031999999 .215 0 .201 0 .157 C 0 .06600001 .093 0 .20200002 0 C .32400004 0 .41500003 .091000009 .41500003 .193 C .41500003 .27500005 .35200004 .35300005 .24800003 .37400005 Z "/>
</symbol>
<use xlink:href="#font_4_4" transform="matrix(9.9626,0,0,-9.9626,175.43692,102.39598)" fill="#800000"/>
<use xlink:href="#font_4_2" transform="matrix(9.9626,0,0,-9.9626,185.81795,103.940189)" fill="#800000"/>
</g>
<symbol id="font_5_1">
<path d="M .57600006 0 C .59300008 0 .611 0 .611 .019999996 C .611 .040000008 .59300008 .040000008 .57600006 .040000008 L .035000005 .040000008 C .018 .040000008 0 .040000008 0 .019999996 C 0 0 .018 0 .035000005 0 L .57600006 0 Z "/>
</symbol>
<use xlink:href="#font_5_1" transform="matrix(9.9626,0,0,-9.9626,31.085896,170.80861)"/>
<symbol id="font_4_1">
<path d="M .07700001 .07700001 L .18300002 .18 C .33900003 .31800003 .39900003 .372 .39900003 .47200004 C .39900003 .586 .30900003 .666 .18700002 .666 C .074 .666 0 .574 0 .485 C 0 .42900003 .05 .42900003 .053000008 .42900003 C .07000001 .42900003 .105000007 .441 .105000007 .48200003 C .105000007 .508 .08700001 .53400006 .052000006 .53400006 C .044000005 .53400006 .042000008 .53400006 .039 .53300008 C .062000004 .59800007 .11600001 .63500007 .17400001 .63500007 C .26500003 .63500007 .308 .554 .308 .47200004 C .308 .39200003 .25800003 .31300003 .20300003 .25100003 L .011000004 .037 C 0 .026 0 .024 0 0 L .37100003 0 L .39900003 .17400001 L .374 .17400001 C .36900003 .14400001 .36200003 .1 .352 .085 C .345 .07700001 .279 .07700001 .257 .07700001 L .07700001 .07700001 Z "/>
</symbol>
<use xlink:href="#font_4_1" transform="matrix(9.9626,0,0,-9.9626,38.506128,173.1)"/>
<use xlink:href="#font_4_1" transform="matrix(9.9626,0,0,-9.9626,131.76512,173.1)"/>
<symbol id="font_4_3">
<path d="M .266 .165 L .266 .078 C .266 .042000005 .26400004 .031000002 .19000001 .031000002 L .16900002 .031000002 L .16900002 0 C .21000001 .003 .26200003 .003 .30400003 .003 C .34600003 .003 .39900003 .003 .44000004 0 L .44000004 .031000002 L .41900004 .031000002 C .34500004 .031000002 .34300003 .042000005 .34300003 .078 L .34300003 .165 L .44300003 .165 L .44300003 .19600001 L .34300003 .19600001 L .34300003 .651 C .34300003 .671 .34300003 .67700007 .32700003 .67700007 C .31800003 .67700007 .31500004 .67700007 .307 .665 L 0 .19600001 L 0 .165 L .266 .165 M .272 .19600001 L .028 .19600001 L .272 .569 L .272 .19600001 Z "/>
</symbol>
<use xlink:href="#font_4_3" transform="matrix(9.9626,0,0,-9.9626,180.11295,173.1)"/>
<use xlink:href="#font_3_2" transform="matrix(9.9626,0,0,-9.9626,198.30591,163.28559)"/>
<symbol id="font_3_3">
<path d="M .45700003 .586 C .461 .6 .461 .602 .461 .609 C .461 .62700006 .447 .63600006 .432 .63600006 C .42200003 .63600006 .40600003 .63 .397 .615 C .395 .61 .387 .579 .38300003 .561 C .37600003 .535 .36900003 .508 .363 .48100005 L .318 .301 C .314 .286 .271 .21600002 .20500002 .21600002 C .15400002 .21600002 .143 .26000003 .143 .29700003 C .143 .34300003 .16000001 .40500004 .194 .49300004 C .21000001 .53400006 .21400002 .545 .21400002 .56500008 C .21400002 .61 .18200001 .6470001 .13200002 .6470001 C .037 .6470001 0 .50200006 0 .49300004 C 0 .48300005 .01 .48300005 .012 .48300005 C .022000002 .48300005 .023 .485 .028000003 .50100007 C .055000009 .595 .095000009 .625 .12900001 .625 C .13700001 .625 .15400002 .625 .15400002 .59300008 C .15400002 .568 .14400001 .54200008 .13700001 .523 C .097 .41700004 .079 .36 .079 .31300003 C .079 .224 .142 .194 .201 .194 C .24000003 .194 .274 .21100001 .30200003 .23900002 C .289 .187 .277 .13800001 .237 .08500001 C .21100001 .051 .17300001 .022 .127 .022 C .113000009 .022 .068 .025000006 .051000008 .06400001 C .067 .06400001 .080000009 .06400001 .094000007 .076000008 C .104 .08500001 .11400001 .098000008 .11400001 .117000009 C .11400001 .148 .087000008 .15200001 .07700001 .15200001 C .054000006 .15200001 .021 .136 .021 .087000008 C .021 .037 .065000008 0 .127 0 C .23 0 .333 .091000009 .361 .20400001 L .45700003 .586 Z "/>
</symbol>
<use xlink:href="#font_3_3" transform="matrix(9.9626,0,0,-9.9626,82.874919,9.652334)"/>
<path transform="matrix(1,0,0,-1,.199,174.483)" stroke-width="1" stroke-linecap="butt" stroke-miterlimit="10" stroke-linejoin="miter" fill="none" stroke="#808080" d="M 36.42545 11.32335 L 36.42545 15.57591 M 133.56002 11.32335 L 133.56002 15.57591 M 182.12729 11.32335 L 182.12729 15.57591 "/>
<path transform="matrix(1,0,0,-1,.199,174.483)" stroke-width="1" stroke-linecap="butt" stroke-miterlimit="10" stroke-linejoin="miter" fill="none" stroke="#000000" d="M 0 13.44965 L 192.2766 13.44965 "/>
<path transform="matrix(1,0,0,-1,192.4756,161.03336)" d="M 1.99252 0 L -1.19551 1.59401 L 0 0 L -1.19551 -1.59401 "/>
<path transform="matrix(1,0,0,-1,.199,174.483)" stroke-width="1" stroke-linecap="butt" stroke-miterlimit="10" stroke-linejoin="miter" fill="none" stroke="#000000" d="M 84.99274 0 L 84.99274 159.40323 "/>
<path transform="matrix(0,-1,-1,-0,85.191738,15.079773)" d="M 1.99252 0 L -1.19551 1.59401 L 0 0 L -1.19551 -1.59401 "/>
</svg>
