<?xml version="1.0" encoding="UTF-8" standalone="no"?>
<!DOCTYPE svg PUBLIC "-//W3C//DTD SVG 1.1//EN" "http://www.w3.org/Graphics/SVG/1.1/DTD/svg11.dtd">
<svg xmlns="http://www.w3.org/2000/svg" xmlns:xlink="http://www.w3.org/1999/xlink" version="1.1" width="43.742pt" height="47.1pt" viewBox="0 0 43.742 47.1">
<path transform="matrix(1,0,0,-1,32.204,3.0339967)" d="M 11.33855 0 C 11.33855 1.56564 6.26218 2.83484 0 2.83484 C -6.26218 2.83484 -11.33855 1.56564 -11.33855 0 C -11.33855 -1.56564 -6.26218 -2.83484 0 -2.83484 C 6.26218 -2.83484 11.33855 -1.56564 11.33855 0 Z M 0 0 " fill="#0000ff" fill-opacity=".5"/>
<path transform="matrix(1,0,0,-1,32.204,3.0339967)" d="M -11.33855 0 L -11.33855 -28.3468 C -11.33855 -29.91246 -6.26218 -31.18166 0 -31.18166 C 6.26218 -31.18166 11.33855 -29.91246 11.33855 -28.3468 L 11.33855 0 C 11.33855 1.56564 6.26218 2.83484 0 2.83484 C -6.26218 2.83484 -11.33855 1.56564 -11.33855 0 " fill="#0000ff" fill-opacity=".5"/>
<path transform="matrix(1,0,0,-1,32.204,3.0339967)" stroke-width="1" stroke-linecap="butt" stroke-miterlimit="10" stroke-linejoin="miter" fill="none" stroke="#000000" d="M 11.33855 0 C 11.33855 1.56564 6.26218 2.83484 0 2.83484 C -6.26218 2.83484 -11.33855 1.56564 -11.33855 0 C -11.33855 -1.56564 -6.26218 -2.83484 0 -2.83484 C 6.26218 -2.83484 11.33855 -1.56564 11.33855 0 Z M 0 0 "/>
<path transform="matrix(1,0,0,-1,32.204,3.0339967)" stroke-width="1" stroke-linecap="butt" stroke-miterlimit="10" stroke-linejoin="miter" fill="none" stroke="#000000" d="M -11.33855 0 L -11.33855 -28.3468 "/>
<path transform="matrix(1,0,0,-1,32.204,3.0339967)" stroke-width="1" stroke-linecap="butt" stroke-miterlimit="10" stroke-linejoin="miter" fill="none" stroke="#000000" d="M -11.33855 -28.3468 C -11.33855 -29.91246 -6.26218 -31.18166 0 -31.18166 C 6.26218 -31.18166 11.33855 -29.91246 11.33855 -28.3468 "/>
<path transform="matrix(1,0,0,-1,32.204,3.0339967)" stroke-width="1" stroke-linecap="butt" stroke-dasharray="2.98883,2.98883" stroke-miterlimit="10" stroke-linejoin="miter" fill="none" stroke="#000000" stroke-opacity=".75" d="M -11.33855 -28.3468 C -11.33855 -26.78114 -6.26218 -25.51195 0 -25.51195 C 6.26218 -25.51195 11.33855 -26.78114 11.33855 -28.3468 "/>
<path transform="matrix(1,0,0,-1,32.204,3.0339967)" stroke-width="1" stroke-linecap="butt" stroke-miterlimit="10" stroke-linejoin="miter" fill="none" stroke="#000000" d="M 11.33855 -28.3468 L 11.33855 0 "/>
<path transform="matrix(1,0,0,-1,32.204,3.0339967)" stroke-width="1" stroke-linecap="butt" stroke-miterlimit="10" stroke-linejoin="miter" fill="none" stroke="#000000" d="M -14.17339 -28.3468 C -14.9206 -27.97322 -15.41873 -27.10146 -15.41873 -25.85611 L -15.41873 -16.6641 C -15.41873 -15.41875 -15.91685 -14.547 -16.66408 -14.1734 C -15.91685 -13.79982 -15.41873 -12.92805 -15.41873 -11.68271 L -15.41873 -2.49069 C -15.41873 -1.24535 -14.9206 -.37358 -14.17339 0 "/>
<symbol id="font_0_2">
<path d="M .25500003 .63600006 C .25500003 .666 .252 .666 .21900001 .666 C .148 .60200008 .037 .60200008 .017000005 .60200008 L 0 .60200008 L 0 .558 L .017000005 .558 C .040000008 .558 .105000007 .56100007 .16300002 .586 L .16300002 .086 C .16300002 .055000005 .16300002 .044000005 .056999998 .044000005 L .0069999995 .044000005 L .0069999995 0 C .062000008 .004 .151 .004 .20900002 .004 C .26700003 .004 .356 .004 .411 0 L .411 .044000005 L .361 .044000005 C .25500003 .044000005 .25500003 .055000005 .25500003 .086 L .25500003 .63600006 Z "/>
</symbol>
<symbol id="font_0_1">
<path d="M .522 .34200005 C .522 .41400004 .522 .688 .261 .688 C 0 .688 0 .41400004 0 .34200005 C 0 .26900003 0 0 .261 0 C .522 0 .522 .26900003 .522 .34200005 M .261 .033000005 C .224 .033000005 .14000002 .046000005 .115 .147 C .101 .201 .1 .272 .1 .35400004 C .1 .42800004 .1 .49700005 .116000007 .554 C .141 .6380001 .21800003 .65500006 .261 .65500006 C .33500005 .65500006 .388 .61700007 .40800003 .54700008 C .42200006 .49600006 .42200006 .41300006 .42200006 .35400004 C .42200006 .286 .42200006 .20500002 .40700004 .14500001 C .381 .048 .30100004 .033000005 .261 .033000005 Z "/>
</symbol>
<use xlink:href="#font_0_2" transform="matrix(4.9813,0,0,-4.9813,4.033325,18.811999)"/>
<use xlink:href="#font_0_1" transform="matrix(4.9813,0,0,-4.9813,7.106787,18.921587)"/>
<symbol id="font_1_1">
<path d="M .21900001 .441 L .08900001 .43100003 C .07300001 .43 .072000008 .42900003 .07000001 .42200003 C .069000009 .41700004 .06600001 .40100003 .06600001 .397 C .115 .397 .136 .39400003 .136 .36600004 C .136 .363 .13300002 .347 .13300002 .34600003 L .08800001 .072000008 C .082 .033 .064 .033 .0050000029 .033 L 0 0 C .043000007 .003 .08900001 .003 .114 .003 C .143 .003 .185 .003 .22800002 0 L .234 .033 C .185 .033 .16300002 .033 .16300002 .058000003 C .16300002 .061000006 .169 .101 .17300001 .123 L .185 .19900002 C .201 .29200004 .206 .32200004 .252 .36600004 C .28100003 .393 .324 .41300003 .36400003 .41300003 C .418 .41300003 .425 .38000003 .425 .34800003 C .425 .34 .425 .33200003 .42200003 .314 L .382 .072000008 C .37600003 .033 .358 .033 .299 .033 L .294 0 C .337 .003 .38300003 .003 .40800003 .003 C .437 .003 .47900004 .003 .522 0 L .528 .033 C .47900004 .033 .45700003 .033 .45700003 .058000003 C .45700003 .062000004 .49 .266 .495 .28300003 C .51600006 .35700003 .58900007 .41300003 .65800008 .41300003 C .712 .41300003 .71900007 .38000003 .71900007 .34800003 C .71900007 .34 .71900007 .33200003 .716 .314 L .676 .072000008 C .67 .033 .652 .033 .593 .033 L .588 0 C .63100007 .003 .67700007 .003 .702 .003 C .731 .003 .773 .003 .81600007 0 L .822 .033 C .773 .033 .75100007 .033 .75100007 .058000003 C .75100007 .065000008 .76900008 .17300001 .772 .19000001 C .77900007 .22800002 .78000006 .23400001 .786 .272 C .791 .30600003 .794 .323 .794 .337 C .794 .42400003 .727 .441 .66800007 .441 C .611 .441 .54800006 .41700004 .5 .349 C .49200005 .42900003 .42400003 .441 .374 .441 C .289 .441 .23300001 .38900004 .204 .34800003 L .20300001 .34800003 L .21900001 .441 Z "/>
</symbol>
<use xlink:href="#font_1_1" transform="matrix(4.9813,0,0,-4.9813,10.305232,18.811999)"/>
<path transform="matrix(1,0,0,-1,32.204,3.0339967)" stroke-width="1" stroke-linecap="butt" stroke-miterlimit="10" stroke-linejoin="miter" fill="none" stroke="#000000" d="M 11.33855 -34.0165 C 10.96495 -34.7637 10.0932 -35.26184 8.84785 -35.26184 L 2.49069 -35.26184 C 1.24535 -35.26184 .37358 -35.75996 0 -36.50719 C -.37358 -35.75996 -1.24535 -35.26184 -2.49069 -35.26184 L -8.84785 -35.26184 C -10.0932 -35.26184 -10.96495 -34.7637 -11.33855 -34.0165 "/>
<symbol id="font_0_3">
<path d="M .554 .163 L .554 .20700002 L .42900003 .20700002 L .42900003 .647 C .42900003 .671 .42800004 .67700007 .40200005 .67700007 C .38200004 .67700007 .38100005 .67600008 .37000004 .66200008 L 0 .20700002 L 0 .163 L .33300004 .163 L .33300004 .085 C .33300004 .054 .33300004 .044000005 .24600002 .044000005 L .21100003 .044000005 L .21100003 0 C .25800003 .002 .323 .004 .38100005 .004 C .43900005 .004 .503 .002 .551 0 L .551 .044000005 L .51600006 .044000005 C .42900003 .044000005 .42900003 .054 .42900003 .085 L .42900003 .163 L .554 .163 M .34100003 .569 L .34100003 .20700002 L .047000007 .20700002 L .34100003 .569 Z "/>
</symbol>
<use xlink:href="#font_0_3" transform="matrix(4.9813,0,0,-4.9813,28.61782,43.778997)"/>
<use xlink:href="#font_1_1" transform="matrix(4.9813,0,0,-4.9813,31.898232,43.778997)"/>
</svg>
