<?xml version="1.0" encoding="UTF-8" standalone="no"?>
<!DOCTYPE svg PUBLIC "-//W3C//DTD SVG 1.1//EN" "http://www.w3.org/Graphics/SVG/1.1/DTD/svg11.dtd">
<svg xmlns="http://www.w3.org/2000/svg" xmlns:xlink="http://www.w3.org/1999/xlink" version="1.1" width="221.082pt" height="174.833pt" viewBox="0 0 221.082 174.833">
<path transform="matrix(1,0,0,-1,14.095,174.63399)" stroke-width="1" stroke-linecap="butt" stroke-miterlimit="10" stroke-linejoin="miter" fill="none" stroke="#808080" d="M 48.56879 18.04855 L 48.56879 22.3005 M 97.13759 18.04855 L 97.13759 22.3005 M 145.70639 18.04855 L 145.70639 22.3005 M 194.27519 18.04855 L 194.27519 22.3005 "/>
<path transform="matrix(1,0,0,-1,14.095,174.63399)" stroke-width="1" stroke-linecap="butt" stroke-miterlimit="10" stroke-linejoin="miter" fill="none" stroke="#808080" d="M -2.12584 60.52364 L 2.12584 60.52364 M -2.12584 100.87273 L 2.12584 100.87273 M -2.12584 141.22182 L 2.12584 141.22182 "/>
<path transform="matrix(1,0,0,-1,14.095,174.63399)" stroke-width="1" stroke-linecap="butt" stroke-miterlimit="10" stroke-linejoin="miter" fill="none" stroke="#000000" d="M 0 20.17455 L 192.281 20.17455 "/>
<path transform="matrix(1,0,0,-1,206.376,154.45944)" d="M 1.99252 0 L -1.19551 1.59401 L 0 0 L -1.19551 -1.59401 "/>
<path transform="matrix(1,0,0,-1,14.095,174.63399)" stroke-width="1" stroke-linecap="butt" stroke-miterlimit="10" stroke-linejoin="miter" fill="none" stroke="#000000" d="M 0 0 L 0 159.40384 "/>
<path transform="matrix(0,-1,-1,-0,14.095,15.230148)" d="M 1.99252 0 L -1.19551 1.59401 L 0 0 L -1.19551 -1.59401 "/>
<symbol id="font_0_3">
<path d="M .205 .64000007 C .205 .66400006 .205 .666 .18200003 .666 C .120000008 .60200008 .032000007 .60200008 0 .60200008 L 0 .57100006 C .020000004 .57100006 .07900001 .57100006 .13100001 .597 L .13100001 .079 C .13100001 .043 .128 .031000002 .038000004 .031000002 L .0060000049 .031000002 L .0060000049 0 C .04100001 .003 .128 .003 .168 .003 C .20800002 .003 .29500003 .003 .33000005 0 L .33000005 .031000002 L .29800005 .031000002 C .20800002 .031000002 .205 .042000005 .205 .079 L .205 .64000007 Z "/>
</symbol>
<use xlink:href="#font_0_3" transform="matrix(9.9626,0,0,-9.9626,57.184675,166.59899)"/>
<symbol id="font_1_1">
<path d="M .106 .053000004 C .106 .082 .08200001 .106000009 .05300001 .106000009 C .024000004 .106000009 0 .082 0 .053000004 C 0 .024 .024000004 0 .05300001 0 C .08200001 0 .106 .024 .106 .053000004 Z "/>
</symbol>
<use xlink:href="#font_1_1" transform="matrix(9.9626,0,0,-9.9626,62.135786,166.59899)"/>
<symbol id="font_0_6">
<path d="M .39900003 .223 C .39900003 .34200005 .317 .44200004 .209 .44200004 C .16100002 .44200004 .118000019 .42600004 .082 .39100004 L .082 .586 C .10200001 .58000007 .135 .573 .16700001 .573 C .29 .573 .36 .66400006 .36 .67700007 C .36 .683 .357 .688 .35 .688 C .349 .688 .347 .688 .342 .68500009 C .322 .67600008 .273 .656 .20600002 .656 C .16600001 .656 .120000008 .66300007 .073 .6840001 C .065 .68700006 .06300001 .68700006 .061000009 .68700006 C .051000004 .68700006 .051000004 .679 .051000004 .66300007 L .051000004 .36700005 C .051000004 .34900005 .051000004 .34100003 .065 .34100003 C .07200001 .34100003 .074 .34400005 .07800001 .35000003 C .08900002 .36600004 .12600002 .42000006 .207 .42000006 C .259 .42000006 .284 .37400005 .292 .35600005 C .308 .31900005 .31 .28000004 .31 .23 C .31 .19500001 .31 .135 .286 .093 C .262 .054000006 .22500001 .028 .17900002 .028 C .106000009 .028 .049000008 .08100001 .032 .14000002 C .035 .13900002 .038000008 .13800001 .049000008 .13800001 C .082 .13800001 .09900001 .163 .09900001 .187 C .09900001 .21100001 .082 .23600002 .049000008 .23600002 C .035 .23600002 0 .22900002 0 .18300002 C 0 .097 .069000009 0 .18100001 0 C .297 0 .39900003 .096 .39900003 .223 Z "/>
</symbol>
<use xlink:href="#font_0_6" transform="matrix(9.9626,0,0,-9.9626,64.54513,166.81816)"/>
<symbol id="font_0_4">
<path d="M .07700001 .07700001 L .18300002 .18 C .33900003 .31800003 .39900003 .372 .39900003 .47200004 C .39900003 .586 .30900003 .666 .18700002 .666 C .074 .666 0 .574 0 .485 C 0 .42900003 .05 .42900003 .053000008 .42900003 C .07000001 .42900003 .105000007 .441 .105000007 .48200003 C .105000007 .508 .08700001 .53400006 .052000006 .53400006 C .044000005 .53400006 .042000008 .53400006 .039 .53300008 C .062000004 .59800007 .11600001 .63500007 .17400001 .63500007 C .26500003 .63500007 .308 .554 .308 .47200004 C .308 .39200003 .25800003 .31300003 .20300003 .25100003 L .011000004 .037 C 0 .026 0 .024 0 0 L .37100003 0 L .39900003 .17400001 L .374 .17400001 C .36900003 .14400001 .36200003 .1 .352 .085 C .345 .07700001 .279 .07700001 .257 .07700001 L .07700001 .07700001 Z "/>
</symbol>
<use xlink:href="#font_0_4" transform="matrix(9.9626,0,0,-9.9626,109.239139,166.59899)"/>
<use xlink:href="#font_0_4" transform="matrix(9.9626,0,0,-9.9626,153.93213,166.59899)"/>
<use xlink:href="#font_1_1" transform="matrix(9.9626,0,0,-9.9626,159.27278,166.59899)"/>
<use xlink:href="#font_0_6" transform="matrix(9.9626,0,0,-9.9626,161.68112,166.81816)"/>
<symbol id="font_0_5">
<path d="M .24800003 .37400005 C .33 .40100003 .388 .47100006 .388 .55 C .388 .632 .3 .688 .204 .688 C .10300001 .688 .027000003 .628 .027000003 .55200007 C .027000003 .519 .049000004 .5 .078 .5 C .109000008 .5 .12900001 .522 .12900001 .55100008 C .12900001 .6010001 .082 .6010001 .067 .6010001 C .098 .65000006 .164 .66300007 .20000002 .66300007 C .24100003 .66300007 .29600004 .64100006 .29600004 .55100008 C .29600004 .53900006 .29400004 .48100005 .268 .43700005 C .238 .38900004 .204 .38600005 .17900002 .38500003 C .171 .38400004 .14700002 .38200004 .14000002 .38200004 C .132 .38100005 .125 .38000003 .125 .37000004 C .125 .35900004 .132 .35900004 .14900002 .35900004 L .19300002 .35900004 C .275 .35900004 .312 .29100005 .312 .193 C .312 .057000005 .24300003 .028 .199 .028 C .15600002 .028 .081 .045 .046000005 .104 C .081 .09900001 .11200001 .12100001 .11200001 .15900001 C .11200001 .19500001 .085 .215 .056 .215 C .031999999 .215 0 .201 0 .157 C 0 .06600001 .093 0 .20200002 0 C .32400004 0 .41500003 .091000009 .41500003 .193 C .41500003 .27500005 .35200004 .35300005 .24800003 .37400005 Z "/>
</symbol>
<use xlink:href="#font_0_5" transform="matrix(9.9626,0,0,-9.9626,206.29543,166.81816)"/>
<use xlink:href="#font_0_3" transform="matrix(9.9626,0,0,-9.9626,4.2806718,117.32098)"/>
<use xlink:href="#font_0_4" transform="matrix(9.9626,0,0,-9.9626,3.8921302,76.97198)"/>
<use xlink:href="#font_0_5" transform="matrix(9.9626,0,0,-9.9626,3.8124293,36.84317)"/>
<clipPath id="cp2">
<path transform="matrix(1,0,0,-1,14.095,174.63399)" d="M 0 0 L 194.27353 0 L 194.27353 161.39636 L 0 161.39636 Z "/>
</clipPath>
<g clip-path="url(#cp2)">
<path transform="matrix(1,0,0,-1,14.095,174.63399)" stroke-width="1.19553" stroke-linecap="butt" stroke-miterlimit="10" stroke-linejoin="miter" fill="none" stroke="#000080" d="M 0 60.52364 L 4.04732 60.52364 L 8.09465 60.52364 L 12.14198 60.52364 L 16.18932 60.52364 L 20.23663 60.52364 L 24.28397 60.52364 L 28.3313 60.52364 L 32.37863 60.52364 L 36.42596 60.52364 L 40.4733 60.52364 L 44.52063 60.52364 L 48.56796 60.52364 L 52.61528 60.52364 L 56.66261 60.52364 L 60.70995 60.52364 L 64.75728 60.52364 L 68.8046 60.52364 L 72.85194 60.52364 L 76.89928 60.52364 L 80.94661 60.52364 L 84.99393 60.52364 L 89.04126 60.52364 L 93.0886 60.52364 L 97.13593 60.52364 "/>
<path transform="matrix(1,0,0,-1,14.095,174.63399)" stroke-width="1.19553" stroke-linecap="butt" stroke-miterlimit="10" stroke-linejoin="miter" fill="none" stroke="#000080" d="M 97.13759 100.87273 L 101.18492 100.87273 L 105.23225 100.87273 L 109.27959 100.87273 L 113.3269 100.87273 L 117.37424 100.87273 L 121.42157 100.87273 L 125.4689 100.87273 L 129.51622 100.87273 L 133.56357 100.87273 L 137.6109 100.87273 L 141.65824 100.87273 L 145.70555 100.87273 L 149.75289 100.87273 L 153.80022 100.87273 L 157.84755 100.87273 L 161.89488 100.87273 L 165.9422 100.87273 L 169.98955 100.87273 L 174.03688 100.87273 L 178.08422 100.87273 L 182.13153 100.87273 L 186.17887 100.87273 L 190.2262 100.87273 L 194.27353 100.87273 "/>
<path transform="matrix(1,0,0,-1,14.095,174.63399)" stroke-width="1.59404" stroke-linecap="butt" stroke-miterlimit="10" stroke-linejoin="miter" fill="none" stroke="#800000" d="M 73.9242 20.17455 L 120.351 20.17455 "/>
<path transform="matrix(-1,0,0,1,88.0192,154.45944)" stroke-width="1.59404" stroke-linecap="round" stroke-miterlimit="10" stroke-linejoin="miter" fill="none" stroke="#800000" d="M -2.1918 -4.38362 C 1.09589 -2.1918 1.09589 2.1918 -2.1918 4.38362 "/>
<path transform="matrix(1,0,0,-1,134.446,154.45944)" stroke-width="1.59404" stroke-linecap="round" stroke-miterlimit="10" stroke-linejoin="miter" fill="none" stroke="#800000" d="M -2.1918 -4.38362 C 1.09589 -2.1918 1.09589 2.1918 -2.1918 4.38362 "/>
<path transform="matrix(1,0,0,-1,14.095,174.63399)" stroke-width="1" stroke-linecap="butt" stroke-dasharray="2.98883,2.98883" stroke-miterlimit="10" stroke-linejoin="miter" fill="none" stroke="#000000" d="M 87.42383 20.17455 L 87.42383 60.52364 "/>
<path transform="matrix(1,0,0,-1,14.095,174.63399)" stroke-width="1" stroke-linecap="butt" stroke-miterlimit="10" stroke-linejoin="miter" fill="none" stroke="#000000" d="M 86.26929 20.17455 C 85.52208 20.54813 85.02394 21.41989 85.02394 22.66524 L 85.02394 37.8584 C 85.02394 39.10374 84.52582 39.9755 83.7786 40.34909 C 84.52582 40.72267 85.02394 41.59444 85.02394 42.83978 L 85.02394 58.03294 C 85.02394 59.27829 85.52208 60.15004 86.26929 60.52364 "/>
<symbol id="font_1_3">
<path d="M .305 .31300003 C .311 .33900003 .334 .43100003 .404 .43100003 C .409 .43100003 .433 .43100003 .454 .418 C .426 .41300003 .40600003 .388 .40600003 .36400003 C .40600003 .34800003 .417 .32900004 .444 .32900004 C .46600003 .32900004 .498 .34700004 .498 .38700003 C .498 .43900005 .439 .45300005 .405 .45300005 C .347 .45300005 .312 .40000005 .3 .37700004 C .275 .44300003 .221 .45300005 .19200002 .45300005 C .08800001 .45300005 .031000002 .32400004 .031000002 .29900003 C .031000002 .28900004 .041 .28900004 .043000007 .28900004 C .051000008 .28900004 .054000006 .291 .056 .3 C .09 .40600003 .156 .43100003 .19000001 .43100003 C .209 .43100003 .244 .42200003 .244 .36400003 C .244 .33300004 .22700002 .26600004 .19000001 .126 C .17400001 .064 .13900002 .022000002 .095000009 .022000002 C .08900001 .022000002 .06600001 .022000002 .045 .035 C .07000001 .040000004 .09200001 .061 .09200001 .089 C .09200001 .116000007 .07000001 .124000009 .055000009 .124000009 C .025 .124000009 0 .098000008 0 .06600001 C 0 .020000002 .050000006 0 .094000007 0 C .16000001 0 .19600001 .07000001 .19900002 .076000008 C .21100001 .039 .24700003 0 .307 0 C .41 0 .467 .12900001 .467 .15400002 C .467 .16400002 .458 .16400002 .455 .16400002 C .446 .16400002 .444 .16000001 .442 .15300001 C .409 .046 .341 .022000002 .30900003 .022000002 C .27 .022000002 .254 .054 .254 .08800001 C .254 .11000001 .26 .13200002 .271 .17600002 L .305 .31300003 Z "/>
</symbol>
<use xlink:href="#font_1_3" transform="matrix(9.9626,0,0,-9.9626,98.959918,162.76657)"/>
<symbol id="font_1_2">
<path d="M .314 .605 L .4 .605 C .42000003 .605 .43 .605 .43 .625 C .43 .63600006 .42000003 .63600006 .40300004 .63600006 L .32000003 .63600006 L .34100003 .75 C .34500004 .771 .35900004 .842 .365 .8540001 C .374 .873 .39100004 .888 .41200004 .888 C .416 .888 .44200004 .888 .461 .87 C .41700004 .86600008 .407 .8310001 .407 .816 C .407 .793 .425 .781 .444 .781 C .47 .781 .49900005 .8030001 .49900005 .8410001 C .49900005 .8870001 .45300005 .9100001 .41200004 .9100001 C .37800003 .9100001 .31500004 .8920001 .28500004 .793 C .279 .7720001 .27600003 .7620001 .252 .63600006 L .18300002 .63600006 C .164 .63600006 .15300001 .63600006 .15300001 .61700007 C .15300001 .605 .162 .605 .18100001 .605 L .24700001 .605 L .172 .21000001 C .15400002 .113000009 .13700001 .022 .08500001 .022 C .081 .022 .056 .022 .037 .040000008 C .083000008 .043000014 .09200001 .07900001 .09200001 .094000007 C .09200001 .117000009 .074 .12900001 .055 .12900001 C .029 .12900001 0 .10700001 0 .069000009 C 0 .024000004 .044 0 .08500001 0 C .14 0 .18 .059 .19800002 .09700001 C .23000002 .16000001 .25300003 .28100003 .254 .28800003 L .314 .605 Z "/>
</symbol>
<use xlink:href="#font_1_2" transform="matrix(9.9626,0,0,-9.9626,77.779018,138.8183)"/>
<symbol id="font_0_1">
<path d="M .23200003 .00999999 C .23200003 .012999982 .23200003 .014999986 .215 .03199999 C .09 .15799999 .058 .347 .058 .5 C .058 .674 .096 .84800007 .21900001 .97300007 C .23200003 .985 .23200003 .98700007 .23200003 .99 C .23200003 .99700006 .22800002 1 .222 1 C .21200001 1 .12200001 .93200007 .06299999 .805 C .012000002 .69500008 0 .584 0 .5 C 0 .422 .011 .301 .066 .188 C .126 .065 .21200001 0 .222 0 C .22800002 0 .23200003 .0029999912 .23200003 .00999999 Z "/>
</symbol>
<use xlink:href="#font_0_1" transform="matrix(9.9626,0,0,-9.9626,84.187297,139.26662)"/>
<use xlink:href="#font_1_3" transform="matrix(9.9626,0,0,-9.9626,87.363918,136.88556)"/>
<symbol id="font_0_2">
<path d="M .232 .5 C .232 .578 .22100002 .699 .16600001 .81200006 C .106 .93500009 .020000004 1 .009999998 1 C .0040000008 1 0 .99600008 0 .99 C 0 .98700007 0 .985 .019000002 .967 C .117000009 .86800006 .174 .709 .174 .5 C .174 .329 .137 .153 .012999997 .026999996 C 0 .014999986 0 .012999982 0 .00999999 C 0 .003999993 .0040000008 0 .009999998 0 C .020000004 0 .11000001 .06799999 .169 .195 C .22 .305 .232 .416 .232 .5 Z "/>
</symbol>
<use xlink:href="#font_0_2" transform="matrix(9.9626,0,0,-9.9626,93.33687,139.26662)"/>
</g>
<path transform="matrix(1,0,0,-1,14.095,174.63399)" d="M 99.13014 100.87273 C 99.13014 101.97319 98.23807 102.86528 97.13759 102.86528 C 96.03712 102.86528 95.14503 101.97319 95.14503 100.87273 C 95.14503 99.77225 96.03712 98.88017 97.13759 98.88017 C 98.23807 98.88017 99.13014 99.77225 99.13014 100.87273 Z M 97.13759 100.87273 " fill="#000080"/>
<path transform="matrix(1,0,0,-1,14.095,174.63399)" stroke-width="1" stroke-linecap="butt" stroke-miterlimit="10" stroke-linejoin="miter" fill="none" stroke="#000080" d="M 99.13014 100.87273 C 99.13014 101.97319 98.23807 102.86528 97.13759 102.86528 C 96.03712 102.86528 95.14503 101.97319 95.14503 100.87273 C 95.14503 99.77225 96.03712 98.88017 97.13759 98.88017 C 98.23807 98.88017 99.13014 99.77225 99.13014 100.87273 Z M 97.13759 100.87273 "/>
<path transform="matrix(1,0,0,-1,14.095,174.63399)" d="M 99.13014 60.52364 C 99.13014 61.6241 98.23807 62.51619 97.13759 62.51619 C 96.03712 62.51619 95.14503 61.6241 95.14503 60.52364 C 95.14503 59.42316 96.03712 58.53108 97.13759 58.53108 C 98.23807 58.53108 99.13014 59.42316 99.13014 60.52364 Z M 97.13759 60.52364 " fill="#ffffff"/>
<path transform="matrix(1,0,0,-1,14.095,174.63399)" stroke-width="1" stroke-linecap="butt" stroke-miterlimit="10" stroke-linejoin="miter" fill="none" stroke="#000080" d="M 99.13014 60.52364 C 99.13014 61.6241 98.23807 62.51619 97.13759 62.51619 C 96.03712 62.51619 95.14503 61.6241 95.14503 60.52364 C 95.14503 59.42316 96.03712 58.53108 97.13759 58.53108 C 98.23807 58.53108 99.13014 59.42316 99.13014 60.52364 Z M 97.13759 60.52364 "/>
<path transform="matrix(1,0,0,-1,14.095,174.63399)" d="M 89.41638 20.17455 C 89.41638 21.27501 88.5243 22.1671 87.42383 22.1671 C 86.32336 22.1671 85.43127 21.27501 85.43127 20.17455 C 85.43127 19.07407 86.32336 18.18199 87.42383 18.18199 C 88.5243 18.18199 89.41638 19.07407 89.41638 20.17455 Z M 87.42383 20.17455 " fill="#800000"/>
<path transform="matrix(1,0,0,-1,14.095,174.63399)" stroke-width="1" stroke-linecap="butt" stroke-miterlimit="10" stroke-linejoin="miter" fill="none" stroke="#000080" d="M 89.41638 20.17455 C 89.41638 21.27501 88.5243 22.1671 87.42383 22.1671 C 86.32336 22.1671 85.43127 21.27501 85.43127 20.17455 C 85.43127 19.07407 86.32336 18.18199 87.42383 18.18199 C 88.5243 18.18199 89.41638 19.07407 89.41638 20.17455 Z M 87.42383 20.17455 "/>
<path transform="matrix(1,0,0,-1,14.095,174.63399)" d="M 99.13014 20.17455 C 99.13014 21.27501 98.23807 22.1671 97.13759 22.1671 C 96.03712 22.1671 95.14503 21.27501 95.14503 20.17455 C 95.14503 19.07407 96.03712 18.18199 97.13759 18.18199 C 98.23807 18.18199 99.13014 19.07407 99.13014 20.17455 Z M 97.13759 20.17455 " fill="#ffffff"/>
<path transform="matrix(1,0,0,-1,14.095,174.63399)" stroke-width="1" stroke-linecap="butt" stroke-miterlimit="10" stroke-linejoin="miter" fill="none" stroke="#800000" d="M 99.13014 20.17455 C 99.13014 21.27501 98.23807 22.1671 97.13759 22.1671 C 96.03712 22.1671 95.14503 21.27501 95.14503 20.17455 C 95.14503 19.07407 96.03712 18.18199 97.13759 18.18199 C 98.23807 18.18199 99.13014 19.07407 99.13014 20.17455 Z M 97.13759 20.17455 "/>
<use xlink:href="#font_1_3" transform="matrix(9.9626,0,0,-9.9626,212.28292,156.71057)"/>
<symbol id="font_1_4">
<path d="M .45700003 .586 C .461 .6 .461 .602 .461 .609 C .461 .62700006 .447 .63600006 .432 .63600006 C .42200003 .63600006 .40600003 .63 .397 .615 C .395 .61 .387 .579 .38300003 .561 C .37600003 .535 .36900003 .508 .363 .48100005 L .318 .301 C .314 .286 .271 .21600002 .20500002 .21600002 C .15400002 .21600002 .143 .26000003 .143 .29700003 C .143 .34300003 .16000001 .40500004 .194 .49300004 C .21000001 .53400006 .21400002 .545 .21400002 .56500008 C .21400002 .61 .18200001 .6470001 .13200002 .6470001 C .037 .6470001 0 .50200006 0 .49300004 C 0 .48300005 .01 .48300005 .012 .48300005 C .022000002 .48300005 .023 .485 .028000003 .50100007 C .055000009 .595 .095000009 .625 .12900001 .625 C .13700001 .625 .15400002 .625 .15400002 .59300008 C .15400002 .568 .14400001 .54200008 .13700001 .523 C .097 .41700004 .079 .36 .079 .31300003 C .079 .224 .142 .194 .201 .194 C .24000003 .194 .274 .21100001 .30200003 .23900002 C .289 .187 .277 .13800001 .237 .08500001 C .21100001 .051 .17300001 .022 .127 .022 C .113000009 .022 .068 .025000006 .051000008 .06400001 C .067 .06400001 .080000009 .06400001 .094000007 .076000008 C .104 .08500001 .11400001 .098000008 .11400001 .117000009 C .11400001 .148 .087000008 .15200001 .07700001 .15200001 C .054000006 .15200001 .021 .136 .021 .087000008 C .021 .037 .065000008 0 .127 0 C .23 0 .333 .091000009 .361 .20400001 L .45700003 .586 Z "/>
</symbol>
<use xlink:href="#font_1_4" transform="matrix(9.9626,0,0,-9.9626,11.762916,9.725317)"/>
</svg>
