<?xml version="1.0" encoding="UTF-8" standalone="no"?>
<!DOCTYPE svg PUBLIC "-//W3C//DTD SVG 1.1//EN" "http://www.w3.org/Graphics/SVG/1.1/DTD/svg11.dtd">
<svg xmlns="http://www.w3.org/2000/svg" xmlns:xlink="http://www.w3.org/1999/xlink" version="1.1" width="163.298pt" height="154.266pt" viewBox="0 0 163.298 154.266">
<path transform="matrix(1,0,0,-1,57.291,77.133)" stroke-width="1.19553" stroke-linecap="butt" stroke-miterlimit="10" stroke-linejoin="miter" fill="none" stroke="#000080" d="M 56.69362 56.69362 C 56.69362 67.65256 31.31142 76.53629 0 76.53629 C -31.31142 76.53629 -56.69362 67.65256 -56.69362 56.69362 C -56.69362 45.73468 -31.31142 36.85094 0 36.85094 C 31.31142 36.85094 56.69362 45.73468 56.69362 56.69362 Z M 0 56.69362 "/>
<path transform="matrix(1,0,0,-1,57.291,77.133)" stroke-width="1.19553" stroke-linecap="butt" stroke-miterlimit="10" stroke-linejoin="miter" fill="none" stroke="#cccce6" d="M 56.69362 -56.69362 C 56.69362 -45.73468 31.31142 -36.85094 0 -36.85094 C -31.31142 -36.85094 -56.69362 -45.73468 -56.69362 -56.69362 "/>
<path transform="matrix(1,0,0,-1,57.291,77.133)" stroke-width="1.19553" stroke-linecap="butt" stroke-miterlimit="10" stroke-linejoin="miter" fill="none" stroke="#000080" d="M -56.69362 -56.69362 C -56.69362 -67.65256 -31.31142 -76.53629 0 -76.53629 C 31.31142 -76.53629 56.69362 -67.65256 56.69362 -56.69362 "/>
<path transform="matrix(1,0,0,-1,57.291,77.133)" stroke-width="1.19553" stroke-linecap="butt" stroke-miterlimit="10" stroke-linejoin="miter" fill="none" stroke="#000080" d="M 56.69362 56.69362 L 56.69362 -56.69362 "/>
<path transform="matrix(1,0,0,-1,57.291,77.133)" stroke-width="1.19553" stroke-linecap="butt" stroke-miterlimit="10" stroke-linejoin="miter" fill="none" stroke="#000080" d="M -56.69362 56.69362 L -56.69362 -56.69362 "/>
<path transform="matrix(1,0,0,-1,57.291,77.133)" stroke-width="1.19553" stroke-linecap="butt" stroke-dasharray="2.98883,2.98883" stroke-miterlimit="10" stroke-linejoin="miter" fill="none" stroke="#000080" d="M 0 56.69362 L 56.69362 56.69362 "/>
<path transform="matrix(1,0,0,-1,57.291,77.133)" stroke-width="1.19553" stroke-linecap="butt" stroke-dasharray="2.98883,2.98883" stroke-miterlimit="10" stroke-linejoin="miter" fill="none" stroke="#000080" d="M 0 56.69362 L 0 -56.69362 "/>
<symbol id="font_0_4">
<path d="M .059000009 .07000001 C .056 .055000005 .050000006 .032 .050000006 .027000003 C .050000006 .009000001 .064 0 .079 0 C .091000009 0 .10900001 .008000001 .11600001 .028 C .118 .032 .15200001 .16800002 .156 .18600002 C .164 .21900001 .18200001 .28900004 .18800001 .316 C .19200002 .32900004 .22000002 .37600003 .244 .39800004 C .252 .40500004 .281 .43100003 .324 .43100003 C .35 .43100003 .365 .41900004 .366 .41900004 C .336 .41400004 .314 .39000003 .314 .36400003 C .314 .34800003 .325 .32900004 .352 .32900004 C .379 .32900004 .407 .35200004 .407 .388 C .407 .42300005 .375 .45300005 .324 .45300005 C .259 .45300005 .21500002 .404 .19600001 .37600003 C .18800001 .42100004 .15200001 .45300005 .105000007 .45300005 C .059000009 .45300005 .040000008 .41400004 .031000002 .39600004 C .013000002 .36200003 0 .30200003 0 .29900003 C 0 .28900004 .01 .28900004 .012 .28900004 C .022000002 .28900004 .023 .29000003 .029000001 .31200005 C .046000005 .38300003 .06600001 .43100003 .10200001 .43100003 C .119 .43100003 .133 .42300005 .133 .38500003 C .133 .36400003 .13000001 .35300002 .11700001 .30100004 L .059000009 .07000001 Z "/>
</symbol>
<use xlink:href="#font_0_4" transform="matrix(9.9626,0,0,-9.9626,83.53992,16.956589)" fill="#000080"/>
<symbol id="font_0_3">
<path d="M .232 .694 C .232 .695 .232 .705 .21900001 .705 C .19600001 .705 .122999999 .697 .097 .695 C .089 .694 .077999997 .693 .077999997 .675 C .077999997 .663 .087 .663 .102 .663 C .15 .663 .15200001 .656 .15200001 .646 L .149 .626 L .0040000008 .05 C 0 .036000004 0 .034 0 .028 C 0 .005000001 .02 0 .029000003 0 C .044999999 0 .061 .012000001 .066 .026 L .08499999 .102000009 L .10699999 .19200002 C .113000009 .21400002 .119 .23600002 .124 .259 C .126 .26500003 .134 .298 .135 .30400003 C .138 .31300003 .169 .36900003 .20300001 .39600004 C .225 .41200004 .256 .43100003 .299 .43100003 C .342 .43100003 .35300002 .397 .35300002 .36100004 C .35300002 .307 .315 .19800002 .291 .13700001 C .28300003 .11400001 .278 .102000009 .278 .082 C .278 .035 .31300003 0 .36 0 C .454 0 .491 .14600002 .491 .15400002 C .491 .16400002 .482 .16400002 .47900004 .16400002 C .46900005 .16400002 .46900005 .16100002 .46400006 .14600002 C .449 .093 .41700004 .022000002 .36200003 .022000002 C .345 .022000002 .338 .032 .338 .055000005 C .338 .080000009 .347 .104 .356 .126 C .372 .16900002 .41700004 .28800003 .41700004 .34600003 C .41700004 .411 .377 .45300005 .30200003 .45300005 C .239 .45300005 .191 .42200003 .154 .37600003 L .232 .694 Z "/>
</symbol>
<use xlink:href="#font_0_3" transform="matrix(9.9626,0,0,-9.9626,48.504945,90.056598)" fill="#000080"/>
<symbol id="font_0_2">
<path d="M .572 .591 C .62100008 .669 .66300007 .67200008 .70000007 .674 C .712 .6750001 .71300008 .69200006 .71300008 .693 C .71300008 .70100006 .70800009 .70500007 .70000007 .70500007 C .674 .70500007 .64500007 .702 .61800006 .702 C .58500006 .702 .55100008 .70500007 .51900008 .70500007 C .513 .70500007 .50000008 .70500007 .50000008 .68600007 C .50000008 .6750001 .509 .674 .51600006 .674 C .54300007 .67200008 .56200006 .66200008 .56200006 .64100006 C .56200006 .62600007 .54700008 .60400006 .54700008 .60300007 L .24000001 .115 L .17200002 .64400008 C .17200002 .6610001 .19500003 .674 .24100003 .674 C .25500003 .674 .26600004 .674 .26600004 .69400009 C .26600004 .70300009 .25800003 .70500007 .25200004 .70500007 C .21200001 .70500007 .169 .702 .12800002 .702 C .11000001 .702 .091 .70300009 .07300001 .70300009 C .055000009 .70300009 .036000007 .70500007 .019000002 .70500007 C .012000002 .70500007 0 .70500007 0 .68600007 C 0 .674 .009000003 .674 .024999999 .674 C .08100001 .674 .08200001 .665 .085 .64000007 L .164 .023000002 C .167 .0030000006 .171 0 .18400002 0 C .20000002 0 .20400003 .005000001 .21200001 .018000002 L .572 .591 Z "/>
</symbol>
<use xlink:href="#font_0_2" transform="matrix(9.9626,0,0,-9.9626,118.1349,121.90819)" fill="#000080"/>
<symbol id="font_1_1">
<path d="M .63100007 .19400002 C .646 .19400002 .665 .19400002 .665 .214 C .665 .23400001 .646 .23400001 .632 .23400001 L .033 .23400001 C .019000002 .23400001 0 .23400001 0 .214 C 0 .19400002 .019000002 .19400002 .034 .19400002 L .63100007 .19400002 M .632 0 C .646 0 .665 0 .665 .02000001 C .665 .040000008 .646 .040000008 .63100007 .040000008 L .034 .040000008 C .019000002 .040000008 0 .040000008 0 .02000001 C 0 0 .019000002 0 .033 0 L .632 0 Z "/>
</symbol>
<use xlink:href="#font_1_1" transform="matrix(9.9626,0,0,-9.9626,128.9279,120.36398)" fill="#000080"/>
<symbol id="font_0_1">
<path d="M .23800002 .38400004 L .351 .38400004 C .31800003 .23600002 .30900003 .19300002 .30900003 .126 C .30900003 .111 .30900003 .08400001 .317 .05 C .327 .0060000007 .338 0 .35300002 0 C .373 0 .39400003 .018000002 .39400003 .038000004 C .39400003 .044 .39400003 .046 .388 .060000004 C .359 .13200002 .359 .19700001 .359 .22500003 C .359 .27800004 .366 .33200003 .377 .38400004 L .491 .38400004 C .504 .38400004 .54 .38400004 .54 .418 C .54 .44200004 .519 .44200004 .5 .44200004 L .165 .44200004 C .143 .44200004 .105 .44200004 .061000006 .395 C .026000003 .35600005 0 .31000004 0 .305 C 0 .30400003 0 .29500003 .012 .29500003 C .020000002 .29500003 .022000002 .29900003 .028000003 .307 C .077 .38400004 .135 .38400004 .15500002 .38400004 L .21200001 .38400004 C .18000002 .263 .12600002 .14200002 .08400001 .051000004 C .076000008 .036000004 .076000008 .034 .076000008 .027000003 C .076000008 .008000001 .092 0 .105 0 C .135 0 .143 .028 .15500002 .065000008 C .16900002 .111 .16900002 .113000009 .18200001 .16300002 L .23800002 .38400004 Z "/>
</symbol>
<use xlink:href="#font_0_1" transform="matrix(9.9626,0,0,-9.9626,139.15502,121.7986)" fill="#000080"/>
<use xlink:href="#font_0_4" transform="matrix(9.9626,0,0,-9.9626,145.21225,121.7986)" fill="#000080"/>
<symbol id="font_2_1">
<path d="M .442 .18200001 L .40800003 .18200001 C .40500004 .16000001 .39500005 .101 .38200004 .091000009 C .374 .085 .29700003 .085 .28300003 .085 L .099 .085 C .20400003 .178 .23900002 .20600002 .29900003 .25300003 C .37300004 .312 .442 .374 .442 .469 C .442 .59000006 .33600004 .66400006 .20800004 .66400006 C .084 .66400006 0 .577 0 .485 C 0 .43400003 .043000007 .42900003 .053000004 .42900003 C .077 .42900003 .10600001 .446 .10600001 .48200003 C .10600001 .5 .099 .535 .047000007 .535 C .078 .606 .146 .628 .19300002 .628 C .293 .628 .34500004 .55 .34500004 .469 C .34500004 .38200004 .28300003 .31300003 .25100003 .277 L .010000005 .039 C 0 .030000002 0 .028 0 0 L .41200004 0 L .442 .18200001 Z "/>
</symbol>
<use xlink:href="#font_2_1" transform="matrix(6.9738,0,0,-6.9738,150.13335,117.57501)" fill="#000080"/>
<use xlink:href="#font_0_3" transform="matrix(9.9626,0,0,-9.9626,154.71094,121.7986)" fill="#000080"/>
</svg>
