<?xml version="1.0" encoding="UTF-8" standalone="no"?>
<!DOCTYPE svg PUBLIC "-//W3C//DTD SVG 1.1//EN" "http://www.w3.org/Graphics/SVG/1.1/DTD/svg11.dtd">
<svg xmlns="http://www.w3.org/2000/svg" xmlns:xlink="http://www.w3.org/1999/xlink" version="1.1" width="358.065pt" height="56.55pt" viewBox="0 0 358.065 56.55">
<symbol id="font_0_2">
<path d="M .71700009 .578 C .72700008 .61800006 .74500009 .64900007 .82500007 .652 C .83000007 .652 .84200009 .65300008 .84200009 .67200008 C .84200009 .67300006 .84200009 .683 .82900008 .683 C .79600009 .683 .76100006 .68 .72800007 .68 C .69400009 .68 .65900006 .683 .62600007 .683 C .62000009 .683 .60800006 .683 .60800006 .66300007 C .60800006 .652 .61800006 .652 .62600007 .652 C .6830001 .651 .69400009 .63000008 .69400009 .60800006 C .69400009 .605 .69200006 .59000006 .69100007 .587 L .57900008 .142 L .358 .66400006 C .35000003 .68200007 .349 .683 .326 .683 L .192 .683 C .172 .683 .163 .683 .163 .66300007 C .163 .652 .172 .652 .191 .652 C .19600001 .652 .259 .652 .259 .643 L .125 .106000009 C .11500001 .066 .098000008 .034 .017 .031000002 C .011 .031000002 0 .030000002 0 .011000001 C 0 .004 .0050000029 0 .013 0 C .045000007 0 .08 .003 .113000009 .003 C .147 .003 .18300002 0 .21600002 0 C .22100002 0 .234 0 .234 .020000002 C .234 .030000002 .225 .031000002 .21400002 .031000002 C .156 .033 .148 .055000005 .148 .075 C .148 .082 .149 .087000008 .15200001 .098000008 L .284 .62600007 C .28800003 .62 .28800003 .61800006 .293 .60800006 L .54200008 .019000002 C .549 .002 .55200007 0 .56100007 0 C .572 0 .572 .003 .5770001 .021000002 L .71700009 .578 Z "/>
</symbol>
<use xlink:href="#font_0_2" transform="matrix(9.9626,0,0,-9.9626,8.996539,13.597)"/>
<symbol id="font_1_1">
<path d="M .421 .34200005 C .421 .42200003 .416 .50200006 .381 .57600006 C .335 .67200008 .25300003 .688 .211 .688 C .15100001 .688 .07800001 .66200008 .037000006 .56900009 C .0050000029 .5 0 .42200003 0 .34200005 C 0 .26700003 .0040000008 .177 .045000007 .101 C .088 .020000002 .161 0 .21000001 0 C .264 0 .34 .021000002 .384 .116000007 C .416 .185 .421 .263 .421 .34200005 M .21000001 .022000002 C .171 .022000002 .112 .047000003 .094 .143 C .083000008 .20300001 .083000008 .29500003 .083000008 .35400004 C .083000008 .41800005 .083000008 .48400004 .091000009 .53800007 C .11 .65700009 .185 .66600009 .21000001 .66600009 C .243 .66600009 .30900003 .64800009 .328 .549 C .338 .49300004 .338 .41700004 .338 .35400004 C .338 .279 .338 .21100001 .32700003 .147 C .312 .052 .255 .022000002 .21000001 .022000002 Z "/>
</symbol>
<use xlink:href="#font_1_1" transform="matrix(9.9626,0,0,-9.9626,36.755537,13.816177)"/>
<symbol id="font_1_2">
<path d="M .205 .64000007 C .205 .66400006 .205 .666 .18200003 .666 C .120000008 .60200008 .032000007 .60200008 0 .60200008 L 0 .57100006 C .020000004 .57100006 .07900001 .57100006 .13100001 .597 L .13100001 .079 C .13100001 .043 .128 .031000002 .038000004 .031000002 L .0060000049 .031000002 L .0060000049 0 C .04100001 .003 .128 .003 .168 .003 C .20800002 .003 .29500003 .003 .33000005 0 L .33000005 .031000002 L .29800005 .031000002 C .20800002 .031000002 .205 .042000005 .205 .079 L .205 .64000007 Z "/>
</symbol>
<use xlink:href="#font_1_2" transform="matrix(9.9626,0,0,-9.9626,70.429668,13.597)"/>
<symbol id="font_1_3">
<path d="M .07700001 .07700001 L .18300002 .18 C .33900003 .31800003 .39900003 .372 .39900003 .47200004 C .39900003 .586 .30900003 .666 .18700002 .666 C .074 .666 0 .574 0 .485 C 0 .42900003 .05 .42900003 .053000008 .42900003 C .07000001 .42900003 .105000007 .441 .105000007 .48200003 C .105000007 .508 .08700001 .53400006 .052000006 .53400006 C .044000005 .53400006 .042000008 .53400006 .039 .53300008 C .062000004 .59800007 .11600001 .63500007 .17400001 .63500007 C .26500003 .63500007 .308 .554 .308 .47200004 C .308 .39200003 .25800003 .31300003 .20300003 .25100003 L .011000004 .037 C 0 .026 0 .024 0 0 L .37100003 0 L .39900003 .17400001 L .374 .17400001 C .36900003 .14400001 .36200003 .1 .352 .085 C .345 .07700001 .279 .07700001 .257 .07700001 L .07700001 .07700001 Z "/>
</symbol>
<use xlink:href="#font_1_3" transform="matrix(9.9626,0,0,-9.9626,103.21612,13.597)"/>
<symbol id="font_1_4">
<path d="M .24800003 .37400005 C .33 .40100003 .388 .47100006 .388 .55 C .388 .632 .3 .688 .204 .688 C .10300001 .688 .027000003 .628 .027000003 .55200007 C .027000003 .519 .049000004 .5 .078 .5 C .109000008 .5 .12900001 .522 .12900001 .55100008 C .12900001 .6010001 .082 .6010001 .067 .6010001 C .098 .65000006 .164 .66300007 .20000002 .66300007 C .24100003 .66300007 .29600004 .64100006 .29600004 .55100008 C .29600004 .53900006 .29400004 .48100005 .268 .43700005 C .238 .38900004 .204 .38600005 .17900002 .38500003 C .171 .38400004 .14700002 .38200004 .14000002 .38200004 C .132 .38100005 .125 .38000003 .125 .37000004 C .125 .35900004 .132 .35900004 .14900002 .35900004 L .19300002 .35900004 C .275 .35900004 .312 .29100005 .312 .193 C .312 .057000005 .24300003 .028 .199 .028 C .15600002 .028 .081 .045 .046000005 .104 C .081 .09900001 .11200001 .12100001 .11200001 .15900001 C .11200001 .19500001 .085 .215 .056 .215 C .031999999 .215 0 .201 0 .157 C 0 .06600001 .093 0 .20200002 0 C .32400004 0 .41500003 .091000009 .41500003 .193 C .41500003 .27500005 .35200004 .35300005 .24800003 .37400005 Z "/>
</symbol>
<use xlink:href="#font_1_4" transform="matrix(9.9626,0,0,-9.9626,136.31241,13.816177)"/>
<symbol id="font_1_5">
<path d="M .266 .165 L .266 .078 C .266 .042000005 .26400004 .031000002 .19000001 .031000002 L .16900002 .031000002 L .16900002 0 C .21000001 .003 .26200003 .003 .30400003 .003 C .34600003 .003 .39900003 .003 .44000004 0 L .44000004 .031000002 L .41900004 .031000002 C .34500004 .031000002 .34300003 .042000005 .34300003 .078 L .34300003 .165 L .44300003 .165 L .44300003 .19600001 L .34300003 .19600001 L .34300003 .651 C .34300003 .671 .34300003 .67700007 .32700003 .67700007 C .31800003 .67700007 .31500004 .67700007 .307 .665 L 0 .19600001 L 0 .165 L .266 .165 M .272 .19600001 L .028 .19600001 L .272 .569 L .272 .19600001 Z "/>
</symbol>
<use xlink:href="#font_1_5" transform="matrix(9.9626,0,0,-9.9626,169.34893,13.597)"/>
<symbol id="font_1_6">
<path d="M .39900003 .223 C .39900003 .34200005 .317 .44200004 .209 .44200004 C .16100002 .44200004 .118000019 .42600004 .082 .39100004 L .082 .586 C .10200001 .58000007 .135 .573 .16700001 .573 C .29 .573 .36 .66400006 .36 .67700007 C .36 .683 .357 .688 .35 .688 C .349 .688 .347 .688 .342 .68500009 C .322 .67600008 .273 .656 .20600002 .656 C .16600001 .656 .120000008 .66300007 .073 .6840001 C .065 .68700006 .06300001 .68700006 .061000009 .68700006 C .051000004 .68700006 .051000004 .679 .051000004 .66300007 L .051000004 .36700005 C .051000004 .34900005 .051000004 .34100003 .065 .34100003 C .07200001 .34100003 .074 .34400005 .07800001 .35000003 C .08900002 .36600004 .12600002 .42000006 .207 .42000006 C .259 .42000006 .284 .37400005 .292 .35600005 C .308 .31900005 .31 .28000004 .31 .23 C .31 .19500001 .31 .135 .286 .093 C .262 .054000006 .22500001 .028 .17900002 .028 C .106000009 .028 .049000008 .08100001 .032 .14000002 C .035 .13900002 .038000008 .13800001 .049000008 .13800001 C .082 .13800001 .09900001 .163 .09900001 .187 C .09900001 .21100001 .082 .23600002 .049000008 .23600002 C .035 .23600002 0 .22900002 0 .18300002 C 0 .097 .069000009 0 .18100001 0 C .297 0 .39900003 .096 .39900003 .223 Z "/>
</symbol>
<use xlink:href="#font_1_6" transform="matrix(9.9626,0,0,-9.9626,202.7441,13.816177)"/>
<symbol id="font_1_7">
<path d="M .089999999 .35000003 L .089999999 .37400005 C .089999999 .62700006 .21400002 .66300007 .26500003 .66300007 C .28900004 .66300007 .33100004 .65700009 .35300002 .623 C .33800004 .623 .298 .623 .298 .57800009 C .298 .54700008 .32200004 .53200009 .344 .53200009 C .36 .53200009 .39000003 .54100009 .39000003 .58000007 C .39000003 .64000007 .34600003 .688 .263 .688 C .13499999 .688 0 .559 0 .33800004 C 0 .071 .116000007 0 .20900002 0 C .32000003 0 .41500003 .094000007 .41500003 .22600001 C .41500003 .35300005 .32600004 .44900004 .215 .44900004 C .14700002 .44900004 .11000001 .39800004 .089999999 .35000003 M .20900002 .028 C .146 .028 .116000007 .088 .11000001 .103 C .092 .15 .092 .23 .092 .24800001 C .092 .32600004 .124000009 .42600004 .21400002 .42600004 C .23000002 .42600004 .27600003 .42600004 .307 .36400003 C .32500003 .32700003 .32500003 .27600003 .32500003 .22700002 C .32500003 .179 .32500003 .12900001 .30800004 .093 C .27800004 .033000005 .23200003 .028 .20900002 .028 Z "/>
</symbol>
<use xlink:href="#font_1_7" transform="matrix(9.9626,0,0,-9.9626,235.8404,13.816177)"/>
<symbol id="font_1_8">
<path d="M .42000003 .63100007 C .42900003 .64300009 .42900003 .64500007 .42900003 .66600009 L .18600002 .66600009 C .064 .66600009 .062000008 .679 .058000007 .6980001 L .033 .6980001 L 0 .49200005 L .024999999 .49200005 C .028000005 .508 .037 .57100006 .050000006 .58300009 C .057000005 .58900007 .13500002 .58900007 .148 .58900007 L .35500003 .58900007 C .344 .573 .26500003 .46400006 .24300003 .43100003 C .153 .29600004 .12000001 .157 .12000001 .055 C .12000001 .045 .12000001 0 .16600001 0 C .21200001 0 .21200001 .045 .21200001 .055 L .21200001 .106000009 C .21200001 .16100002 .21500004 .216 .22300002 .27 C .22700003 .29300005 .24100003 .37900005 .28500004 .44100005 L .42000003 .63100007 Z "/>
</symbol>
<use xlink:href="#font_1_8" transform="matrix(9.9626,0,0,-9.9626,269.15489,13.816177)"/>
<symbol id="font_1_9">
<path d="M .121 .47900004 C .075 .509 .071 .54300007 .071 .56000009 C .071 .62100008 .136 .66300007 .20700002 .66300007 C .28000004 .66300007 .344 .61100009 .344 .53900006 C .344 .48200003 .305 .43400005 .245 .39900003 L .121 .47900004 M .26700003 .38400004 C .33900003 .42100004 .388 .47300006 .388 .53900006 C .388 .63100007 .29900003 .688 .208 .688 C .108 .688 .027000003 .614 .027000003 .521 C .027000003 .503 .029 .45800004 .071 .41100005 C .082 .39900003 .11900001 .37400005 .144 .35700003 C .086 .32800005 0 .272 0 .17300001 C 0 .067 .102000009 0 .20700002 0 C .32000003 0 .41500003 .083000008 .41500003 .19000001 C .41500003 .22600001 .404 .27100004 .36600004 .31300003 C .34700004 .33400003 .33100004 .34400005 .26700003 .38400004 M .167 .34200005 L .29000003 .26400004 C .31800003 .245 .365 .215 .365 .154 C .365 .080000009 .29000003 .028 .208 .028 C .122 .028 .050000006 .09 .050000006 .17300001 C .050000006 .231 .082 .29500003 .167 .34200005 Z "/>
</symbol>
<use xlink:href="#font_1_9" transform="matrix(9.9626,0,0,-9.9626,302.1914,13.816177)"/>
<symbol id="font_1_a">
<path d="M .32500003 .34000004 L .32500003 .30800004 C .32500003 .074 .22100002 .028 .16300002 .028 C .146 .028 .092 .030000002 .065000008 .064 C .109000008 .064 .117000009 .093 .117000009 .11000001 C .117000009 .141 .093 .156 .071 .156 C .055 .156 .024999999 .147 .024999999 .108 C .024999999 .041 .079 0 .164 0 C .293 0 .41500003 .136 .41500003 .35100005 C .41500003 .62000009 .3 .688 .21100003 .688 C .15600002 .688 .107 .67 .064 .62500008 C .023000002 .58000007 0 .53800007 0 .46300004 C 0 .33800004 .08800001 .24000001 .20000002 .24000001 C .261 .24000001 .30200003 .28200004 .32500003 .34000004 M .201 .263 C .185 .263 .139 .263 .108 .32600004 C .089999999 .36300005 .089999999 .41300006 .089999999 .46200005 C .089999999 .51600006 .089999999 .563 .11100001 .6 C .13800001 .65000006 .176 .66300007 .21100003 .66300007 C .25700004 .66300007 .29000003 .62900009 .307 .58400008 C .31900005 .55200007 .323 .48900003 .323 .44300006 C .323 .36000005 .28900004 .263 .201 .263 Z "/>
</symbol>
<use xlink:href="#font_1_a" transform="matrix(9.9626,0,0,-9.9626,335.3674,13.816177)"/>
<path transform="matrix(1,0,0,-1,3.393982,15.903)" stroke-width="1" stroke-linecap="butt" stroke-miterlimit="10" stroke-linejoin="miter" fill="none" stroke="#000000" d="M 0 0 L 351.277 0 "/>
<use xlink:href="#font_1_2" transform="matrix(9.9626,0,0,-9.9626,7.675633,25.917)"/>
<symbol id="font_0_1">
<path d="M .106 .053000004 C .106 .082 .08200001 .106000009 .05300001 .106000009 C .024000004 .106000009 0 .082 0 .053000004 C 0 .024 .024000004 0 .05300001 0 C .08200001 0 .106 .024 .106 .053000004 Z "/>
</symbol>
<use xlink:href="#font_0_1" transform="matrix(9.9626,0,0,-9.9626,12.626746,25.917)"/>
<use xlink:href="#font_1_4" transform="matrix(9.9626,0,0,-9.9626,14.955392,26.136178)"/>
<use xlink:href="#font_1_1" transform="matrix(9.9626,0,0,-9.9626,25.408503,26.136178)"/>
<use xlink:href="#font_0_1" transform="matrix(9.9626,0,0,-9.9626,30.858744,25.917)"/>
<use xlink:href="#font_1_2" transform="matrix(9.9626,0,0,-9.9626,33.655633,25.917)"/>
<use xlink:href="#font_1_2" transform="matrix(9.9626,0,0,-9.9626,38.636934,25.917)"/>
<use xlink:href="#font_1_4" transform="matrix(9.9626,0,0,-9.9626,43.14999,26.136178)"/>
<use xlink:href="#font_1_a" transform="matrix(9.9626,0,0,-9.9626,48.13129,26.136178)"/>
<use xlink:href="#font_1_1" transform="matrix(9.9626,0,0,-9.9626,58.584505,26.136178)"/>
<use xlink:href="#font_0_1" transform="matrix(9.9626,0,0,-9.9626,64.033748,25.917)"/>
<use xlink:href="#font_1_2" transform="matrix(9.9626,0,0,-9.9626,66.831638,25.917)"/>
<use xlink:href="#font_1_2" transform="matrix(9.9626,0,0,-9.9626,71.812938,25.917)"/>
<use xlink:href="#font_1_8" transform="matrix(9.9626,0,0,-9.9626,76.46547,26.136178)"/>
<use xlink:href="#font_1_4" transform="matrix(9.9626,0,0,-9.9626,81.30729,26.136178)"/>
<use xlink:href="#font_1_1" transform="matrix(9.9626,0,0,-9.9626,91.7605,26.136178)"/>
<use xlink:href="#font_0_1" transform="matrix(9.9626,0,0,-9.9626,97.20974,25.917)"/>
<use xlink:href="#font_1_2" transform="matrix(9.9626,0,0,-9.9626,100.00763,25.917)"/>
<use xlink:href="#font_1_3" transform="matrix(9.9626,0,0,-9.9626,104.60039,25.917)"/>
<use xlink:href="#font_1_1" transform="matrix(9.9626,0,0,-9.9626,109.4721,26.136178)"/>
<use xlink:href="#font_1_7" transform="matrix(9.9626,0,0,-9.9626,114.483287,26.136178)"/>
<use xlink:href="#font_1_1" transform="matrix(9.9626,0,0,-9.9626,124.93649,26.136178)"/>
<use xlink:href="#font_0_1" transform="matrix(9.9626,0,0,-9.9626,130.38573,25.917)"/>
<use xlink:href="#font_1_2" transform="matrix(9.9626,0,0,-9.9626,133.18363,25.917)"/>
<use xlink:href="#font_1_3" transform="matrix(9.9626,0,0,-9.9626,137.77637,25.917)"/>
<use xlink:href="#font_1_4" transform="matrix(9.9626,0,0,-9.9626,142.67797,26.136178)"/>
<use xlink:href="#font_1_a" transform="matrix(9.9626,0,0,-9.9626,147.65926,26.136178)"/>
<use xlink:href="#font_1_1" transform="matrix(9.9626,0,0,-9.9626,158.11248,26.136178)"/>
<use xlink:href="#font_0_1" transform="matrix(9.9626,0,0,-9.9626,163.56172,25.917)"/>
<use xlink:href="#font_1_2" transform="matrix(9.9626,0,0,-9.9626,166.35861,25.917)"/>
<use xlink:href="#font_1_3" transform="matrix(9.9626,0,0,-9.9626,170.95136,25.917)"/>
<use xlink:href="#font_1_8" transform="matrix(9.9626,0,0,-9.9626,175.99243,26.136178)"/>
<use xlink:href="#font_1_2" transform="matrix(9.9626,0,0,-9.9626,181.30249,25.917)"/>
<use xlink:href="#font_1_1" transform="matrix(9.9626,0,0,-9.9626,191.28748,26.136178)"/>
<use xlink:href="#font_0_1" transform="matrix(9.9626,0,0,-9.9626,196.73772,25.917)"/>
<use xlink:href="#font_1_2" transform="matrix(9.9626,0,0,-9.9626,199.5346,25.917)"/>
<use xlink:href="#font_1_4" transform="matrix(9.9626,0,0,-9.9626,204.04766,26.136178)"/>
<use xlink:href="#font_1_1" transform="matrix(9.9626,0,0,-9.9626,208.99906,26.136178)"/>
<use xlink:href="#font_1_4" transform="matrix(9.9626,0,0,-9.9626,214.01024,26.136178)"/>
<use xlink:href="#font_1_1" transform="matrix(9.9626,0,0,-9.9626,224.46347,26.136178)"/>
<use xlink:href="#font_0_1" transform="matrix(9.9626,0,0,-9.9626,229.91371,25.917)"/>
<use xlink:href="#font_1_2" transform="matrix(9.9626,0,0,-9.9626,232.7106,25.917)"/>
<use xlink:href="#font_1_4" transform="matrix(9.9626,0,0,-9.9626,237.22365,26.136178)"/>
<use xlink:href="#font_1_4" transform="matrix(9.9626,0,0,-9.9626,242.20494,26.136178)"/>
<use xlink:href="#font_1_6" transform="matrix(9.9626,0,0,-9.9626,247.26593,26.136178)"/>
<use xlink:href="#font_1_1" transform="matrix(9.9626,0,0,-9.9626,257.6395,26.136178)"/>
<use xlink:href="#font_0_1" transform="matrix(9.9626,0,0,-9.9626,263.0887,25.917)"/>
<use xlink:href="#font_1_2" transform="matrix(9.9626,0,0,-9.9626,265.8866,25.917)"/>
<use xlink:href="#font_1_4" transform="matrix(9.9626,0,0,-9.9626,270.39967,26.136178)"/>
<use xlink:href="#font_1_7" transform="matrix(9.9626,0,0,-9.9626,275.38096,26.136178)"/>
<use xlink:href="#font_1_8" transform="matrix(9.9626,0,0,-9.9626,280.5017,26.136178)"/>
<use xlink:href="#font_1_1" transform="matrix(9.9626,0,0,-9.9626,290.8155,26.136178)"/>
<use xlink:href="#font_0_1" transform="matrix(9.9626,0,0,-9.9626,296.2647,25.917)"/>
<use xlink:href="#font_1_2" transform="matrix(9.9626,0,0,-9.9626,299.0626,25.917)"/>
<use xlink:href="#font_1_4" transform="matrix(9.9626,0,0,-9.9626,303.57566,26.136178)"/>
<use xlink:href="#font_1_a" transform="matrix(9.9626,0,0,-9.9626,308.55696,26.136178)"/>
<use xlink:href="#font_1_a" transform="matrix(9.9626,0,0,-9.9626,313.53825,26.136178)"/>
<use xlink:href="#font_1_1" transform="matrix(9.9626,0,0,-9.9626,323.9915,26.136178)"/>
<use xlink:href="#font_0_1" transform="matrix(9.9626,0,0,-9.9626,329.4407,25.917)"/>
<use xlink:href="#font_1_2" transform="matrix(9.9626,0,0,-9.9626,332.23759,25.917)"/>
<use xlink:href="#font_1_5" transform="matrix(9.9626,0,0,-9.9626,336.61119,25.917)"/>
<use xlink:href="#font_1_4" transform="matrix(9.9626,0,0,-9.9626,341.73194,26.136178)"/>
<use xlink:href="#font_1_1" transform="matrix(9.9626,0,0,-9.9626,346.68336,26.136178)"/>
<use xlink:href="#font_1_3" transform="matrix(9.9626,0,0,-9.9626,7.2870609,37.839006)"/>
<use xlink:href="#font_0_1" transform="matrix(9.9626,0,0,-9.9626,12.626716,37.839006)"/>
<use xlink:href="#font_1_4" transform="matrix(9.9626,0,0,-9.9626,14.955361,38.05818)"/>
<use xlink:href="#font_1_1" transform="matrix(9.9626,0,0,-9.9626,25.408473,38.05818)"/>
<use xlink:href="#font_0_1" transform="matrix(9.9626,0,0,-9.9626,30.858714,37.839006)"/>
<use xlink:href="#font_1_4" transform="matrix(9.9626,0,0,-9.9626,33.18736,38.05818)"/>
<use xlink:href="#font_1_7" transform="matrix(9.9626,0,0,-9.9626,38.16866,38.05818)"/>
<use xlink:href="#font_1_2" transform="matrix(9.9626,0,0,-9.9626,43.618204,37.839006)"/>
<use xlink:href="#font_1_8" transform="matrix(9.9626,0,0,-9.9626,48.270738,38.05818)"/>
<use xlink:href="#font_1_1" transform="matrix(9.9626,0,0,-9.9626,58.584474,38.05818)"/>
<use xlink:href="#font_0_1" transform="matrix(9.9626,0,0,-9.9626,64.033718,37.839006)"/>
<use xlink:href="#font_1_4" transform="matrix(9.9626,0,0,-9.9626,66.36336,38.05818)"/>
<use xlink:href="#font_1_7" transform="matrix(9.9626,0,0,-9.9626,71.34466,38.05818)"/>
<use xlink:href="#font_1_4" transform="matrix(9.9626,0,0,-9.9626,76.32596,38.05818)"/>
<use xlink:href="#font_1_7" transform="matrix(9.9626,0,0,-9.9626,81.30726,38.05818)"/>
<use xlink:href="#font_1_1" transform="matrix(9.9626,0,0,-9.9626,91.76047,38.05818)"/>
<use xlink:href="#font_0_1" transform="matrix(9.9626,0,0,-9.9626,97.20971,37.839006)"/>
<use xlink:href="#font_1_4" transform="matrix(9.9626,0,0,-9.9626,99.53935,38.05818)"/>
<use xlink:href="#font_1_7" transform="matrix(9.9626,0,0,-9.9626,104.52065,38.05818)"/>
<use xlink:href="#font_1_6" transform="matrix(9.9626,0,0,-9.9626,109.58166,38.05818)"/>
<use xlink:href="#font_1_6" transform="matrix(9.9626,0,0,-9.9626,114.56296,38.05818)"/>
<use xlink:href="#font_1_1" transform="matrix(9.9626,0,0,-9.9626,124.93646,38.05818)"/>
<use xlink:href="#font_0_1" transform="matrix(9.9626,0,0,-9.9626,130.3857,37.839006)"/>
<use xlink:href="#font_1_4" transform="matrix(9.9626,0,0,-9.9626,132.71535,38.05818)"/>
<use xlink:href="#font_1_7" transform="matrix(9.9626,0,0,-9.9626,137.69664,38.05818)"/>
<use xlink:href="#font_1_8" transform="matrix(9.9626,0,0,-9.9626,142.81742,38.05818)"/>
<use xlink:href="#font_1_5" transform="matrix(9.9626,0,0,-9.9626,147.51975,37.839006)"/>
<use xlink:href="#font_1_1" transform="matrix(9.9626,0,0,-9.9626,158.11244,38.05818)"/>
<use xlink:href="#font_0_1" transform="matrix(9.9626,0,0,-9.9626,163.56169,37.839006)"/>
<use xlink:href="#font_1_4" transform="matrix(9.9626,0,0,-9.9626,165.89034,38.05818)"/>
<use xlink:href="#font_1_7" transform="matrix(9.9626,0,0,-9.9626,170.87163,38.05818)"/>
<use xlink:href="#font_1_a" transform="matrix(9.9626,0,0,-9.9626,175.85292,38.05818)"/>
<use xlink:href="#font_1_3" transform="matrix(9.9626,0,0,-9.9626,180.91391,37.839006)"/>
<use xlink:href="#font_1_1" transform="matrix(9.9626,0,0,-9.9626,191.28745,38.05818)"/>
<use xlink:href="#font_0_1" transform="matrix(9.9626,0,0,-9.9626,196.73769,37.839006)"/>
<use xlink:href="#font_1_4" transform="matrix(9.9626,0,0,-9.9626,199.06633,38.05818)"/>
<use xlink:href="#font_1_8" transform="matrix(9.9626,0,0,-9.9626,204.1871,38.05818)"/>
<use xlink:href="#font_1_2" transform="matrix(9.9626,0,0,-9.9626,209.49716,37.839006)"/>
<use xlink:href="#font_1_2" transform="matrix(9.9626,0,0,-9.9626,214.47846,37.839006)"/>
<use xlink:href="#font_1_1" transform="matrix(9.9626,0,0,-9.9626,224.46344,38.05818)"/>
<use xlink:href="#font_0_1" transform="matrix(9.9626,0,0,-9.9626,229.91368,37.839006)"/>
<use xlink:href="#font_1_4" transform="matrix(9.9626,0,0,-9.9626,232.24233,38.05818)"/>
<use xlink:href="#font_1_8" transform="matrix(9.9626,0,0,-9.9626,237.3631,38.05818)"/>
<use xlink:href="#font_1_3" transform="matrix(9.9626,0,0,-9.9626,242.2846,37.839006)"/>
<use xlink:href="#font_1_a" transform="matrix(9.9626,0,0,-9.9626,247.1862,38.05818)"/>
<use xlink:href="#font_1_1" transform="matrix(9.9626,0,0,-9.9626,257.63948,38.05818)"/>
<use xlink:href="#font_0_1" transform="matrix(9.9626,0,0,-9.9626,263.08869,37.839006)"/>
<use xlink:href="#font_1_4" transform="matrix(9.9626,0,0,-9.9626,265.41835,38.05818)"/>
<use xlink:href="#font_1_8" transform="matrix(9.9626,0,0,-9.9626,270.5391,38.05818)"/>
<use xlink:href="#font_1_5" transform="matrix(9.9626,0,0,-9.9626,275.24147,37.839006)"/>
<use xlink:href="#font_1_8" transform="matrix(9.9626,0,0,-9.9626,280.50169,38.05818)"/>
<use xlink:href="#font_1_1" transform="matrix(9.9626,0,0,-9.9626,290.81547,38.05818)"/>
<use xlink:href="#font_0_1" transform="matrix(9.9626,0,0,-9.9626,296.26469,37.839006)"/>
<use xlink:href="#font_1_4" transform="matrix(9.9626,0,0,-9.9626,298.59434,38.05818)"/>
<use xlink:href="#font_1_8" transform="matrix(9.9626,0,0,-9.9626,303.7151,38.05818)"/>
<use xlink:href="#font_1_7" transform="matrix(9.9626,0,0,-9.9626,308.55693,38.05818)"/>
<use xlink:href="#font_1_7" transform="matrix(9.9626,0,0,-9.9626,313.5382,38.05818)"/>
<use xlink:href="#font_1_1" transform="matrix(9.9626,0,0,-9.9626,323.99147,38.05818)"/>
<use xlink:href="#font_0_1" transform="matrix(9.9626,0,0,-9.9626,329.44068,37.839006)"/>
<use xlink:href="#font_1_4" transform="matrix(9.9626,0,0,-9.9626,331.76933,38.05818)"/>
<use xlink:href="#font_1_8" transform="matrix(9.9626,0,0,-9.9626,336.89009,38.05818)"/>
<use xlink:href="#font_1_9" transform="matrix(9.9626,0,0,-9.9626,341.7319,38.05818)"/>
<use xlink:href="#font_1_5" transform="matrix(9.9626,0,0,-9.9626,346.57374,37.839006)"/>
<use xlink:href="#font_1_4" transform="matrix(9.9626,0,0,-9.9626,7.2073299,49.98018)"/>
<use xlink:href="#font_0_1" transform="matrix(9.9626,0,0,-9.9626,12.626685,49.761)"/>
<use xlink:href="#font_1_3" transform="matrix(9.9626,0,0,-9.9626,15.035031,49.761)"/>
<use xlink:href="#font_1_1" transform="matrix(9.9626,0,0,-9.9626,25.408442,49.98018)"/>
<use xlink:href="#font_0_1" transform="matrix(9.9626,0,0,-9.9626,30.858683,49.761)"/>
<use xlink:href="#font_1_6" transform="matrix(9.9626,0,0,-9.9626,33.26703,49.98018)"/>
<use xlink:href="#font_1_1" transform="matrix(9.9626,0,0,-9.9626,38.13874,49.98018)"/>
<use xlink:href="#font_1_6" transform="matrix(9.9626,0,0,-9.9626,43.22963,49.98018)"/>
<use xlink:href="#font_1_3" transform="matrix(9.9626,0,0,-9.9626,48.21093,49.761)"/>
<use xlink:href="#font_1_1" transform="matrix(9.9626,0,0,-9.9626,58.584444,49.98018)"/>
<use xlink:href="#font_0_1" transform="matrix(9.9626,0,0,-9.9626,64.03368,49.761)"/>
<use xlink:href="#font_1_6" transform="matrix(9.9626,0,0,-9.9626,66.44303,49.98018)"/>
<use xlink:href="#font_1_1" transform="matrix(9.9626,0,0,-9.9626,71.31474,49.98018)"/>
<use xlink:href="#font_1_7" transform="matrix(9.9626,0,0,-9.9626,76.32593,49.98018)"/>
<use xlink:href="#font_1_6" transform="matrix(9.9626,0,0,-9.9626,81.38693,49.98018)"/>
<use xlink:href="#font_1_1" transform="matrix(9.9626,0,0,-9.9626,91.76044,49.98018)"/>
<use xlink:href="#font_0_1" transform="matrix(9.9626,0,0,-9.9626,97.20968,49.761)"/>
<use xlink:href="#font_1_6" transform="matrix(9.9626,0,0,-9.9626,99.619029,49.98018)"/>
<use xlink:href="#font_1_1" transform="matrix(9.9626,0,0,-9.9626,104.49074,49.98018)"/>
<use xlink:href="#font_1_8" transform="matrix(9.9626,0,0,-9.9626,109.6414,49.98018)"/>
<use xlink:href="#font_1_a" transform="matrix(9.9626,0,0,-9.9626,114.48322,49.98018)"/>
<use xlink:href="#font_1_1" transform="matrix(9.9626,0,0,-9.9626,124.93643,49.98018)"/>
<use xlink:href="#font_0_1" transform="matrix(9.9626,0,0,-9.9626,130.38567,49.761)"/>
<use xlink:href="#font_1_6" transform="matrix(9.9626,0,0,-9.9626,132.79502,49.98018)"/>
<use xlink:href="#font_1_1" transform="matrix(9.9626,0,0,-9.9626,137.66672,49.98018)"/>
<use xlink:href="#font_1_a" transform="matrix(9.9626,0,0,-9.9626,142.6779,49.98018)"/>
<use xlink:href="#font_1_3" transform="matrix(9.9626,0,0,-9.9626,147.73889,49.761)"/>
<use xlink:href="#font_1_1" transform="matrix(9.9626,0,0,-9.9626,158.11241,49.98018)"/>
<use xlink:href="#font_0_1" transform="matrix(9.9626,0,0,-9.9626,163.56166,49.761)"/>
<use xlink:href="#font_1_6" transform="matrix(9.9626,0,0,-9.9626,165.97,49.98018)"/>
<use xlink:href="#font_1_2" transform="matrix(9.9626,0,0,-9.9626,171.33985,49.761)"/>
<use xlink:href="#font_1_1" transform="matrix(9.9626,0,0,-9.9626,175.823,49.98018)"/>
<use xlink:href="#font_1_6" transform="matrix(9.9626,0,0,-9.9626,180.91388,49.98018)"/>
<use xlink:href="#font_1_1" transform="matrix(9.9626,0,0,-9.9626,191.28742,49.98018)"/>
<use xlink:href="#font_0_1" transform="matrix(9.9626,0,0,-9.9626,196.73766,49.761)"/>
<use xlink:href="#font_1_6" transform="matrix(9.9626,0,0,-9.9626,199.146,49.98018)"/>
<use xlink:href="#font_1_2" transform="matrix(9.9626,0,0,-9.9626,204.51584,49.761)"/>
<use xlink:href="#font_1_2" transform="matrix(9.9626,0,0,-9.9626,209.49713,49.761)"/>
<use xlink:href="#font_1_a" transform="matrix(9.9626,0,0,-9.9626,214.01018,49.98018)"/>
<use xlink:href="#font_1_1" transform="matrix(9.9626,0,0,-9.9626,224.46341,49.98018)"/>
<use xlink:href="#font_0_1" transform="matrix(9.9626,0,0,-9.9626,229.91365,49.761)"/>
<use xlink:href="#font_1_6" transform="matrix(9.9626,0,0,-9.9626,232.32199,49.98018)"/>
<use xlink:href="#font_1_2" transform="matrix(9.9626,0,0,-9.9626,237.69184,49.761)"/>
<use xlink:href="#font_1_4" transform="matrix(9.9626,0,0,-9.9626,242.20488,49.98018)"/>
<use xlink:href="#font_1_3" transform="matrix(9.9626,0,0,-9.9626,247.26587,49.761)"/>
<use xlink:href="#font_1_1" transform="matrix(9.9626,0,0,-9.9626,257.63945,49.98018)"/>
<use xlink:href="#font_0_1" transform="matrix(9.9626,0,0,-9.9626,263.08866,49.761)"/>
<use xlink:href="#font_1_6" transform="matrix(9.9626,0,0,-9.9626,265.49803,49.98018)"/>
<use xlink:href="#font_1_2" transform="matrix(9.9626,0,0,-9.9626,270.86784,49.761)"/>
<use xlink:href="#font_1_5" transform="matrix(9.9626,0,0,-9.9626,275.24143,49.761)"/>
<use xlink:href="#font_1_6" transform="matrix(9.9626,0,0,-9.9626,280.4419,49.98018)"/>
<use xlink:href="#font_1_1" transform="matrix(9.9626,0,0,-9.9626,290.81544,49.98018)"/>
<use xlink:href="#font_0_1" transform="matrix(9.9626,0,0,-9.9626,296.26466,49.761)"/>
<use xlink:href="#font_1_6" transform="matrix(9.9626,0,0,-9.9626,298.674,49.98018)"/>
<use xlink:href="#font_1_2" transform="matrix(9.9626,0,0,-9.9626,304.04383,49.761)"/>
<use xlink:href="#font_1_6" transform="matrix(9.9626,0,0,-9.9626,308.6366,49.98018)"/>
<use xlink:href="#font_1_a" transform="matrix(9.9626,0,0,-9.9626,313.53819,49.98018)"/>
<use xlink:href="#font_1_1" transform="matrix(9.9626,0,0,-9.9626,323.99143,49.98018)"/>
<use xlink:href="#font_0_1" transform="matrix(9.9626,0,0,-9.9626,329.44065,49.761)"/>
<use xlink:href="#font_1_6" transform="matrix(9.9626,0,0,-9.9626,331.849,49.98018)"/>
<use xlink:href="#font_1_2" transform="matrix(9.9626,0,0,-9.9626,337.2188,49.761)"/>
<use xlink:href="#font_1_8" transform="matrix(9.9626,0,0,-9.9626,341.87135,49.98018)"/>
<use xlink:href="#font_1_3" transform="matrix(9.9626,0,0,-9.9626,346.79289,49.761)"/>
</svg>
