<?xml version="1.0" encoding="UTF-8" standalone="no"?>
<!DOCTYPE svg PUBLIC "-//W3C//DTD SVG 1.1//EN" "http://www.w3.org/Graphics/SVG/1.1/DTD/svg11.dtd">
<svg xmlns="http://www.w3.org/2000/svg" xmlns:xlink="http://www.w3.org/1999/xlink" version="1.1" width="225.817pt" height="223.61pt" viewBox="0 0 225.817 223.61">
<path transform="matrix(1,0,0,-1,9.686,216.664)" stroke-width="1" stroke-linecap="butt" stroke-dasharray="2.98883,2.98883" stroke-miterlimit="10" stroke-linejoin="miter" fill="none" stroke="#bfbfbf" d="M 0 0 L 0 203.56969 M 20.35696 0 L 20.35696 203.56969 M 40.71393 0 L 40.71393 203.56969 M 61.0709 0 L 61.0709 203.56969 M 81.42787 0 L 81.42787 203.56969 M 122.14182 0 L 122.14182 203.56969 M 142.49878 0 L 142.49878 203.56969 M 162.85575 0 L 162.85575 203.56969 M 183.21273 0 L 183.21273 203.56969 M 203.56969 0 L 203.56969 203.56969 "/>
<path transform="matrix(1,0,0,-1,9.686,216.664)" stroke-width="1" stroke-linecap="butt" stroke-dasharray="2.98883,2.98883" stroke-miterlimit="10" stroke-linejoin="miter" fill="none" stroke="#bfbfbf" d="M 0 0 L 203.56969 0 M 0 20.35696 L 203.56969 20.35696 M 0 40.71393 L 203.56969 40.71393 M 0 61.0709 L 203.56969 61.0709 M 0 81.42787 L 203.56969 81.42787 M 0 122.14182 L 203.56969 122.14182 M 0 142.49878 L 203.56969 142.49878 M 0 162.85575 L 203.56969 162.85575 M 0 183.21273 L 203.56969 183.21273 M 0 203.56969 L 203.56969 203.56969 "/>
<path transform="matrix(1,0,0,-1,9.686,216.664)" stroke-width="1" stroke-linecap="butt" stroke-miterlimit="10" stroke-linejoin="miter" fill="none" stroke="#808080" d="M 0 99.65884 L 0 103.91083 M 20.35696 99.65884 L 20.35696 103.91083 M 40.71393 99.65884 L 40.71393 103.91083 M 61.0709 99.65884 L 61.0709 103.91083 M 81.42787 99.65884 L 81.42787 103.91083 M 122.14182 99.65884 L 122.14182 103.91083 M 142.49878 99.65884 L 142.49878 103.91083 M 162.85575 99.65884 L 162.85575 103.91083 M 183.21273 99.65884 L 183.21273 103.91083 M 203.56969 99.65884 L 203.56969 103.91083 "/>
<path transform="matrix(1,0,0,-1,9.686,216.664)" stroke-width="1" stroke-linecap="butt" stroke-miterlimit="10" stroke-linejoin="miter" fill="none" stroke="#808080" d="M 99.65884 0 L 103.91083 0 M 99.65884 20.35696 L 103.91083 20.35696 M 99.65884 40.71393 L 103.91083 40.71393 M 99.65884 61.0709 L 103.91083 61.0709 M 99.65884 81.42787 L 103.91083 81.42787 M 99.65884 122.14182 L 103.91083 122.14182 M 99.65884 142.49878 L 103.91083 142.49878 M 99.65884 162.85575 L 103.91083 162.85575 M 99.65884 183.21273 L 103.91083 183.21273 M 99.65884 203.56969 L 103.91083 203.56969 "/>
<path transform="matrix(1,0,0,-1,9.686,216.664)" stroke-width="1" stroke-linecap="butt" stroke-miterlimit="10" stroke-linejoin="miter" fill="none" stroke="#000000" d="M 0 101.78484 L 201.57717 101.78484 "/>
<path transform="matrix(1,0,0,-1,211.26317,114.87916)" d="M 1.99252 0 L -1.19551 1.59401 L 0 0 L -1.19551 -1.59401 "/>
<path transform="matrix(1,0,0,-1,9.686,216.664)" stroke-width="1" stroke-linecap="butt" stroke-miterlimit="10" stroke-linejoin="miter" fill="none" stroke="#000000" d="M 101.78484 0 L 101.78484 201.57717 "/>
<path transform="matrix(0,-1,-1,-0,111.47084,15.086838)" d="M 1.99252 0 L -1.19551 1.59401 L 0 0 L -1.19551 -1.59401 "/>
<symbol id="font_0_1">
<path d="M .57600006 0 C .59300008 0 .611 0 .611 .019999996 C .611 .040000008 .59300008 .040000008 .57600006 .040000008 L .035000005 .040000008 C .018 .040000008 0 .040000008 0 .019999996 C 0 0 .018 0 .035000005 0 L .57600006 0 Z "/>
</symbol>
<use xlink:href="#font_0_1" transform="matrix(9.9626,0,0,-9.9626,4.147896,124.6556)"/>
<symbol id="font_1_5">
<path d="M .39900003 .223 C .39900003 .34200005 .317 .44200004 .209 .44200004 C .16100002 .44200004 .118000019 .42600004 .082 .39100004 L .082 .586 C .10200001 .58000007 .135 .573 .16700001 .573 C .29 .573 .36 .66400006 .36 .67700007 C .36 .683 .357 .688 .35 .688 C .349 .688 .347 .688 .342 .68500009 C .322 .67600008 .273 .656 .20600002 .656 C .16600001 .656 .120000008 .66300007 .073 .6840001 C .065 .68700006 .06300001 .68700006 .061000009 .68700006 C .051000004 .68700006 .051000004 .679 .051000004 .66300007 L .051000004 .36700005 C .051000004 .34900005 .051000004 .34100003 .065 .34100003 C .07200001 .34100003 .074 .34400005 .07800001 .35000003 C .08900002 .36600004 .12600002 .42000006 .207 .42000006 C .259 .42000006 .284 .37400005 .292 .35600005 C .308 .31900005 .31 .28000004 .31 .23 C .31 .19500001 .31 .135 .286 .093 C .262 .054000006 .22500001 .028 .17900002 .028 C .106000009 .028 .049000008 .08100001 .032 .14000002 C .035 .13900002 .038000008 .13800001 .049000008 .13800001 C .082 .13800001 .09900001 .163 .09900001 .187 C .09900001 .21100001 .082 .23600002 .049000008 .23600002 C .035 .23600002 0 .22900002 0 .18300002 C 0 .097 .069000009 0 .18100001 0 C .297 0 .39900003 .096 .39900003 .223 Z "/>
</symbol>
<use xlink:href="#font_1_5" transform="matrix(9.9626,0,0,-9.9626,11.56713,127.166179)"/>
<use xlink:href="#font_0_1" transform="matrix(9.9626,0,0,-9.9626,24.503897,124.6556)"/>
<symbol id="font_1_4">
<path d="M .266 .165 L .266 .078 C .266 .042000005 .26400004 .031000002 .19000001 .031000002 L .16900002 .031000002 L .16900002 0 C .21000001 .003 .26200003 .003 .30400003 .003 C .34600003 .003 .39900003 .003 .44000004 0 L .44000004 .031000002 L .41900004 .031000002 C .34500004 .031000002 .34300003 .042000005 .34300003 .078 L .34300003 .165 L .44300003 .165 L .44300003 .19600001 L .34300003 .19600001 L .34300003 .651 C .34300003 .671 .34300003 .67700007 .32700003 .67700007 C .31800003 .67700007 .31500004 .67700007 .307 .665 L 0 .19600001 L 0 .165 L .266 .165 M .272 .19600001 L .028 .19600001 L .272 .569 L .272 .19600001 Z "/>
</symbol>
<use xlink:href="#font_1_4" transform="matrix(9.9626,0,0,-9.9626,31.704955,126.947)"/>
<use xlink:href="#font_0_1" transform="matrix(9.9626,0,0,-9.9626,44.860898,124.6556)"/>
<symbol id="font_1_3">
<path d="M .24800003 .37400005 C .33 .40100003 .388 .47100006 .388 .55 C .388 .632 .3 .688 .204 .688 C .10300001 .688 .027000003 .628 .027000003 .55200007 C .027000003 .519 .049000004 .5 .078 .5 C .109000008 .5 .12900001 .522 .12900001 .55100008 C .12900001 .6010001 .082 .6010001 .067 .6010001 C .098 .65000006 .164 .66300007 .20000002 .66300007 C .24100003 .66300007 .29600004 .64100006 .29600004 .55100008 C .29600004 .53900006 .29400004 .48100005 .268 .43700005 C .238 .38900004 .204 .38600005 .17900002 .38500003 C .171 .38400004 .14700002 .38200004 .14000002 .38200004 C .132 .38100005 .125 .38000003 .125 .37000004 C .125 .35900004 .132 .35900004 .14900002 .35900004 L .19300002 .35900004 C .275 .35900004 .312 .29100005 .312 .193 C .312 .057000005 .24300003 .028 .199 .028 C .15600002 .028 .081 .045 .046000005 .104 C .081 .09900001 .11200001 .12100001 .11200001 .15900001 C .11200001 .19500001 .085 .215 .056 .215 C .031999999 .215 0 .201 0 .157 C 0 .06600001 .093 0 .20200002 0 C .32400004 0 .41500003 .091000009 .41500003 .193 C .41500003 .27500005 .35200004 .35300005 .24800003 .37400005 Z "/>
</symbol>
<use xlink:href="#font_1_3" transform="matrix(9.9626,0,0,-9.9626,52.20143,127.166179)"/>
<use xlink:href="#font_0_1" transform="matrix(9.9626,0,0,-9.9626,65.217899,124.6556)"/>
<symbol id="font_1_2">
<path d="M .07700001 .07700001 L .18300002 .18 C .33900003 .31800003 .39900003 .372 .39900003 .47200004 C .39900003 .586 .30900003 .666 .18700002 .666 C .074 .666 0 .574 0 .485 C 0 .42900003 .05 .42900003 .053000008 .42900003 C .07000001 .42900003 .105000007 .441 .105000007 .48200003 C .105000007 .508 .08700001 .53400006 .052000006 .53400006 C .044000005 .53400006 .042000008 .53400006 .039 .53300008 C .062000004 .59800007 .11600001 .63500007 .17400001 .63500007 C .26500003 .63500007 .308 .554 .308 .47200004 C .308 .39200003 .25800003 .31300003 .20300003 .25100003 L .011000004 .037 C 0 .026 0 .024 0 0 L .37100003 0 L .39900003 .17400001 L .374 .17400001 C .36900003 .14400001 .36200003 .1 .352 .085 C .345 .07700001 .279 .07700001 .257 .07700001 L .07700001 .07700001 Z "/>
</symbol>
<use xlink:href="#font_1_2" transform="matrix(9.9626,0,0,-9.9626,72.63713,126.947)"/>
<use xlink:href="#font_0_1" transform="matrix(9.9626,0,0,-9.9626,85.57389,124.6556)"/>
<symbol id="font_1_1">
<path d="M .205 .64000007 C .205 .66400006 .205 .666 .18200003 .666 C .120000008 .60200008 .032000007 .60200008 0 .60200008 L 0 .57100006 C .020000004 .57100006 .07900001 .57100006 .13100001 .597 L .13100001 .079 C .13100001 .043 .128 .031000002 .038000004 .031000002 L .0060000049 .031000002 L .0060000049 0 C .04100001 .003 .128 .003 .168 .003 C .20800002 .003 .29500003 .003 .33000005 0 L .33000005 .031000002 L .29800005 .031000002 C .20800002 .031000002 .205 .042000005 .205 .079 L .205 .64000007 Z "/>
</symbol>
<use xlink:href="#font_1_1" transform="matrix(9.9626,0,0,-9.9626,93.38267,126.947)"/>
<use xlink:href="#font_1_1" transform="matrix(9.9626,0,0,-9.9626,130.22168,126.947)"/>
<use xlink:href="#font_1_2" transform="matrix(9.9626,0,0,-9.9626,150.19013,126.947)"/>
<use xlink:href="#font_1_3" transform="matrix(9.9626,0,0,-9.9626,170.46744,127.166179)"/>
<use xlink:href="#font_1_4" transform="matrix(9.9626,0,0,-9.9626,190.68395,126.947)"/>
<use xlink:href="#font_1_5" transform="matrix(9.9626,0,0,-9.9626,211.26013,127.166179)"/>
<use xlink:href="#font_0_1" transform="matrix(9.9626,0,0,-9.9626,93.91989,217.1676)"/>
<use xlink:href="#font_1_5" transform="matrix(9.9626,0,0,-9.9626,101.340129,219.67818)"/>
<use xlink:href="#font_0_1" transform="matrix(9.9626,0,0,-9.9626,93.91989,196.8116)"/>
<use xlink:href="#font_1_4" transform="matrix(9.9626,0,0,-9.9626,101.12095,199.103)"/>
<use xlink:href="#font_0_1" transform="matrix(9.9626,0,0,-9.9626,93.91989,176.4546)"/>
<use xlink:href="#font_1_3" transform="matrix(9.9626,0,0,-9.9626,101.26042,178.96518)"/>
<use xlink:href="#font_0_1" transform="matrix(9.9626,0,0,-9.9626,93.91989,156.09761)"/>
<use xlink:href="#font_1_2" transform="matrix(9.9626,0,0,-9.9626,101.340129,158.389)"/>
<use xlink:href="#font_0_1" transform="matrix(9.9626,0,0,-9.9626,93.91989,135.7406)"/>
<use xlink:href="#font_1_1" transform="matrix(9.9626,0,0,-9.9626,101.72867,138.032)"/>
<use xlink:href="#font_1_1" transform="matrix(9.9626,0,0,-9.9626,101.72867,97.734)"/>
<use xlink:href="#font_1_2" transform="matrix(9.9626,0,0,-9.9626,101.340129,77.377)"/>
<use xlink:href="#font_1_3" transform="matrix(9.9626,0,0,-9.9626,101.26042,57.240175)"/>
<use xlink:href="#font_1_4" transform="matrix(9.9626,0,0,-9.9626,101.12095,36.664)"/>
<use xlink:href="#font_1_5" transform="matrix(9.9626,0,0,-9.9626,101.340129,16.526185)"/>
<clipPath id="cp2">
<path transform="matrix(1,0,0,-1,9.686,216.664)" d="M 0 0 L 203.56969 0 L 203.56969 203.56969 L 0 203.56969 Z "/>
</clipPath>
<g clip-path="url(#cp2)">
<path transform="matrix(1,0,0,-1,9.686,216.664)" stroke-width="1.19553" stroke-linecap="butt" stroke-miterlimit="10" stroke-linejoin="miter" fill="none" stroke="#000080" d="M 81.42787 101.78484 C 81.42787 101.78484 82.65353 99.39641 83.12427 98.53339 C 83.59502 97.67035 84.34993 96.34923 84.82068 95.56467 C 85.29143 94.78009 86.04634 93.5848 86.51707 92.87868 C 86.98782 92.17256 87.74275 91.10309 88.2135 90.47543 C 88.68425 89.84778 89.43916 88.90413 89.9099 88.35492 C 90.38065 87.80573 91.13556 86.98788 91.60631 86.51714 C 92.07706 86.0464 92.83199 85.35437 93.30273 84.96208 C 93.77347 84.5698 94.52838 84.0036 94.99913 83.68977 C 95.46988 83.37595 96.22481 82.93558 96.69556 82.7002 C 97.16629 82.46483 97.9212 82.15027 98.39195 81.99335 C 98.8627 81.83644 99.61761 81.64769 100.08836 81.56923 C 100.5591 81.49077 101.31403 81.42787 101.78477 81.42787 C 102.25552 81.42787 103.01044 81.49077 103.48119 81.56921 C 103.95192 81.64766 104.70685 81.83641 105.17758 81.9933 C 105.64833 82.1502 106.40326 82.46478 106.87401 82.70013 C 107.34474 82.9355 108.09967 83.37589 108.5704 83.6897 C 109.04115 84.00351 109.79607 84.56972 110.26682 84.96199 C 110.73756 85.35426 111.4925 86.0463 111.96323 86.51701 C 112.43398 86.98775 113.18889 87.80559 113.65964 88.35477 C 114.13039 88.90396 114.8853 89.84763 115.35603 90.47527 C 115.82678 91.1029 116.58171 92.17238 117.05246 92.8785 C 117.52321 93.58463 118.27812 94.77989 118.74886 95.56447 C 119.2196 96.34903 119.97453 97.67014 120.44528 98.53317 C 120.91603 99.3962 122.1417 101.78459 122.1417 101.78459 "/>
<path transform="matrix(1,0,0,-1,9.686,216.664)" stroke-width="1.19553" stroke-linecap="butt" stroke-miterlimit="10" stroke-linejoin="miter" fill="none" stroke="#000080" d="M 122.14182 101.78484 L 142.49878 162.85575 L 162.85575 122.14182 "/>
<path transform="matrix(1,0,0,-1,9.686,216.664)" stroke-width="1.19553" stroke-linecap="butt" stroke-miterlimit="10" stroke-linejoin="miter" fill="none" stroke="#000080" d="M 0 0 L 20.35696 101.78484 L 40.71393 183.21273 L 61.0709 142.49878 L 81.42787 101.78484 "/>
</g>
<symbol id="font_3_1">
<path d="M .305 .31300003 C .311 .33900003 .334 .43100003 .404 .43100003 C .409 .43100003 .433 .43100003 .454 .418 C .426 .41300003 .40600003 .388 .40600003 .36400003 C .40600003 .34800003 .417 .32900004 .444 .32900004 C .46600003 .32900004 .498 .34700004 .498 .38700003 C .498 .43900005 .439 .45300005 .405 .45300005 C .347 .45300005 .312 .40000005 .3 .37700004 C .275 .44300003 .221 .45300005 .19200002 .45300005 C .08800001 .45300005 .031000002 .32400004 .031000002 .29900003 C .031000002 .28900004 .041 .28900004 .043000007 .28900004 C .051000008 .28900004 .054000006 .291 .056 .3 C .09 .40600003 .156 .43100003 .19000001 .43100003 C .209 .43100003 .244 .42200003 .244 .36400003 C .244 .33300004 .22700002 .26600004 .19000001 .126 C .17400001 .064 .13900002 .022000002 .095000009 .022000002 C .08900001 .022000002 .06600001 .022000002 .045 .035 C .07000001 .040000004 .09200001 .061 .09200001 .089 C .09200001 .116000007 .07000001 .124000009 .055000009 .124000009 C .025 .124000009 0 .098000008 0 .06600001 C 0 .020000002 .050000006 0 .094000007 0 C .16000001 0 .19600001 .07000001 .19900002 .076000008 C .21100001 .039 .24700003 0 .307 0 C .41 0 .467 .12900001 .467 .15400002 C .467 .16400002 .458 .16400002 .455 .16400002 C .446 .16400002 .444 .16000001 .442 .15300001 C .409 .046 .341 .022000002 .30900003 .022000002 C .27 .022000002 .254 .054 .254 .08800001 C .254 .11000001 .26 .13200002 .271 .17600002 L .305 .31300003 Z "/>
</symbol>
<use xlink:href="#font_3_1" transform="matrix(9.9626,0,0,-9.9626,217.09192,117.11959)"/>
<symbol id="font_3_2">
<path d="M .45700003 .586 C .461 .6 .461 .602 .461 .609 C .461 .62700006 .447 .63600006 .432 .63600006 C .42200003 .63600006 .40600003 .63 .397 .615 C .395 .61 .387 .579 .38300003 .561 C .37600003 .535 .36900003 .508 .363 .48100005 L .318 .301 C .314 .286 .271 .21600002 .20500002 .21600002 C .15400002 .21600002 .143 .26000003 .143 .29700003 C .143 .34300003 .16000001 .40500004 .194 .49300004 C .21000001 .53400006 .21400002 .545 .21400002 .56500008 C .21400002 .61 .18200001 .6470001 .13200002 .6470001 C .037 .6470001 0 .50200006 0 .49300004 C 0 .48300005 .01 .48300005 .012 .48300005 C .022000002 .48300005 .023 .485 .028000003 .50100007 C .055000009 .595 .095000009 .625 .12900001 .625 C .13700001 .625 .15400002 .625 .15400002 .59300008 C .15400002 .568 .14400001 .54200008 .13700001 .523 C .097 .41700004 .079 .36 .079 .31300003 C .079 .224 .142 .194 .201 .194 C .24000003 .194 .274 .21100001 .30200003 .23900002 C .289 .187 .277 .13800001 .237 .08500001 C .21100001 .051 .17300001 .022 .127 .022 C .113000009 .022 .068 .025000006 .051000008 .06400001 C .067 .06400001 .080000009 .06400001 .094000007 .076000008 C .104 .08500001 .11400001 .098000008 .11400001 .117000009 C .11400001 .148 .087000008 .15200001 .07700001 .15200001 C .054000006 .15200001 .021 .136 .021 .087000008 C .021 .037 .065000008 0 .127 0 C .23 0 .333 .091000009 .361 .20400001 L .45700003 .586 Z "/>
</symbol>
<use xlink:href="#font_3_2" transform="matrix(9.9626,0,0,-9.9626,109.15192,9.652334)"/>
</svg>
