<?xml version="1.0" encoding="UTF-8" standalone="no"?>
<!DOCTYPE svg PUBLIC "-//W3C//DTD SVG 1.1//EN" "http://www.w3.org/Graphics/SVG/1.1/DTD/svg11.dtd">
<svg xmlns="http://www.w3.org/2000/svg" xmlns:xlink="http://www.w3.org/1999/xlink" version="1.1" width="178.016pt" height="175.806pt" viewBox="0 0 178.016 175.806">
<path transform="matrix(1,0,0,-1,4.056,174.49)" stroke-width="1" stroke-linecap="butt" stroke-miterlimit="10" stroke-linejoin="miter" fill="none" stroke="#bfbfbf" d="M 5.63005 0 L 5.63005 161.39484 M 24.39688 0 L 24.39688 161.39484 M 43.16373 0 L 43.16373 161.39484 M 61.93057 0 L 61.93057 161.39484 M 99.46426 0 L 99.46426 161.39484 M 118.2311 0 L 118.2311 161.39484 M 136.99794 0 L 136.99794 161.39484 M 155.76479 0 L 155.76479 161.39484 "/>
<path transform="matrix(1,0,0,-1,4.056,174.49)" stroke-width="1" stroke-linecap="butt" stroke-miterlimit="10" stroke-linejoin="miter" fill="none" stroke="#bfbfbf" d="M 0 5.63005 L 161.39484 5.63005 M 0 24.39688 L 161.39484 24.39688 M 0 43.16373 L 161.39484 43.16373 M 0 61.93057 L 161.39484 61.93057 M 0 99.46426 L 161.39484 99.46426 M 0 118.2311 L 161.39484 118.2311 M 0 136.99794 L 161.39484 136.99794 M 0 155.76479 L 161.39484 155.76479 "/>
<path transform="matrix(1,0,0,-1,4.056,174.49)" stroke-width="1" stroke-linecap="butt" stroke-miterlimit="10" stroke-linejoin="miter" fill="none" stroke="#808080" d="M 5.63005 78.57146 L 5.63005 82.82335 M 24.39688 78.57146 L 24.39688 82.82335 M 43.16373 78.57146 L 43.16373 82.82335 M 61.93057 78.57146 L 61.93057 82.82335 M 99.46426 78.57146 L 99.46426 82.82335 M 118.2311 78.57146 L 118.2311 82.82335 M 136.99794 78.57146 L 136.99794 82.82335 M 155.76479 78.57146 L 155.76479 82.82335 "/>
<path transform="matrix(1,0,0,-1,4.056,174.49)" stroke-width="1" stroke-linecap="butt" stroke-miterlimit="10" stroke-linejoin="miter" fill="none" stroke="#808080" d="M 78.57146 5.63005 L 82.82335 5.63005 M 78.57146 24.39688 L 82.82335 24.39688 M 78.57146 43.16373 L 82.82335 43.16373 M 78.57146 61.93057 L 82.82335 61.93057 M 78.57146 99.46426 L 82.82335 99.46426 M 78.57146 118.2311 L 82.82335 118.2311 M 78.57146 136.99794 L 82.82335 136.99794 M 78.57146 155.76479 L 82.82335 155.76479 "/>
<path transform="matrix(1,0,0,-1,4.056,174.49)" stroke-width="1" stroke-linecap="butt" stroke-miterlimit="10" stroke-linejoin="miter" fill="none" stroke="#000000" d="M 0 80.69742 L 159.40232 80.69742 "/>
<path transform="matrix(1,0,0,-1,163.45832,93.79259)" d="M 1.99252 0 L -1.19551 1.59401 L 0 0 L -1.19551 -1.59401 "/>
<path transform="matrix(1,0,0,-1,4.056,174.49)" stroke-width="1" stroke-linecap="butt" stroke-miterlimit="10" stroke-linejoin="miter" fill="none" stroke="#000000" d="M 80.69742 0 L 80.69742 159.40232 "/>
<path transform="matrix(0,-1,-1,-0,84.75342,15.087692)" d="M 1.99252 0 L -1.19551 1.59401 L 0 0 L -1.19551 -1.59401 "/>
<symbol id="font_0_1">
<path d="M .57600006 0 C .59300008 0 .611 0 .611 .019999996 C .611 .040000008 .59300008 .040000008 .57600006 .040000008 L .035000005 .040000008 C .018 .040000008 0 .040000008 0 .019999996 C 0 0 .018 0 .035000005 0 L .57600006 0 Z "/>
</symbol>
<use xlink:href="#font_0_1" transform="matrix(9.9626,0,0,-9.9626,4.147896,103.5686)"/>
<symbol id="font_1_4">
<path d="M .266 .165 L .266 .078 C .266 .042000005 .26400004 .031000002 .19000001 .031000002 L .16900002 .031000002 L .16900002 0 C .21000001 .003 .26200003 .003 .30400003 .003 C .34600003 .003 .39900003 .003 .44000004 0 L .44000004 .031000002 L .41900004 .031000002 C .34500004 .031000002 .34300003 .042000005 .34300003 .078 L .34300003 .165 L .44300003 .165 L .44300003 .19600001 L .34300003 .19600001 L .34300003 .651 C .34300003 .671 .34300003 .67700007 .32700003 .67700007 C .31800003 .67700007 .31500004 .67700007 .307 .665 L 0 .19600001 L 0 .165 L .266 .165 M .272 .19600001 L .028 .19600001 L .272 .569 L .272 .19600001 Z "/>
</symbol>
<use xlink:href="#font_1_4" transform="matrix(9.9626,0,0,-9.9626,11.347953,105.86)"/>
<use xlink:href="#font_0_1" transform="matrix(9.9626,0,0,-9.9626,22.913897,103.5686)"/>
<symbol id="font_1_3">
<path d="M .24800003 .37400005 C .33 .40100003 .388 .47100006 .388 .55 C .388 .632 .3 .688 .204 .688 C .10300001 .688 .027000003 .628 .027000003 .55200007 C .027000003 .519 .049000004 .5 .078 .5 C .109000008 .5 .12900001 .522 .12900001 .55100008 C .12900001 .6010001 .082 .6010001 .067 .6010001 C .098 .65000006 .164 .66300007 .20000002 .66300007 C .24100003 .66300007 .29600004 .64100006 .29600004 .55100008 C .29600004 .53900006 .29400004 .48100005 .268 .43700005 C .238 .38900004 .204 .38600005 .17900002 .38500003 C .171 .38400004 .14700002 .38200004 .14000002 .38200004 C .132 .38100005 .125 .38000003 .125 .37000004 C .125 .35900004 .132 .35900004 .14900002 .35900004 L .19300002 .35900004 C .275 .35900004 .312 .29100005 .312 .193 C .312 .057000005 .24300003 .028 .199 .028 C .15600002 .028 .081 .045 .046000005 .104 C .081 .09900001 .11200001 .12100001 .11200001 .15900001 C .11200001 .19500001 .085 .215 .056 .215 C .031999999 .215 0 .201 0 .157 C 0 .06600001 .093 0 .20200002 0 C .32400004 0 .41500003 .091000009 .41500003 .193 C .41500003 .27500005 .35200004 .35300005 .24800003 .37400005 Z "/>
</symbol>
<use xlink:href="#font_1_3" transform="matrix(9.9626,0,0,-9.9626,30.254429,106.07918)"/>
<use xlink:href="#font_0_1" transform="matrix(9.9626,0,0,-9.9626,41.680898,103.5686)"/>
<symbol id="font_1_2">
<path d="M .07700001 .07700001 L .18300002 .18 C .33900003 .31800003 .39900003 .372 .39900003 .47200004 C .39900003 .586 .30900003 .666 .18700002 .666 C .074 .666 0 .574 0 .485 C 0 .42900003 .05 .42900003 .053000008 .42900003 C .07000001 .42900003 .105000007 .441 .105000007 .48200003 C .105000007 .508 .08700001 .53400006 .052000006 .53400006 C .044000005 .53400006 .042000008 .53400006 .039 .53300008 C .062000004 .59800007 .11600001 .63500007 .17400001 .63500007 C .26500003 .63500007 .308 .554 .308 .47200004 C .308 .39200003 .25800003 .31300003 .20300003 .25100003 L .011000004 .037 C 0 .026 0 .024 0 0 L .37100003 0 L .39900003 .17400001 L .374 .17400001 C .36900003 .14400001 .36200003 .1 .352 .085 C .345 .07700001 .279 .07700001 .257 .07700001 L .07700001 .07700001 Z "/>
</symbol>
<use xlink:href="#font_1_2" transform="matrix(9.9626,0,0,-9.9626,49.100133,105.86)"/>
<use xlink:href="#font_0_1" transform="matrix(9.9626,0,0,-9.9626,60.446897,103.5686)"/>
<symbol id="font_1_1">
<path d="M .205 .64000007 C .205 .66400006 .205 .666 .18200003 .666 C .120000008 .60200008 .032000007 .60200008 0 .60200008 L 0 .57100006 C .020000004 .57100006 .07900001 .57100006 .13100001 .597 L .13100001 .079 C .13100001 .043 .128 .031000002 .038000004 .031000002 L .0060000049 .031000002 L .0060000049 0 C .04100001 .003 .128 .003 .168 .003 C .20800002 .003 .29500003 .003 .33000005 0 L .33000005 .031000002 L .29800005 .031000002 C .20800002 .031000002 .205 .042000005 .205 .079 L .205 .64000007 Z "/>
</symbol>
<use xlink:href="#font_1_1" transform="matrix(9.9626,0,0,-9.9626,68.25567,105.86)"/>
<use xlink:href="#font_1_1" transform="matrix(9.9626,0,0,-9.9626,101.91467,105.86)"/>
<use xlink:href="#font_1_2" transform="matrix(9.9626,0,0,-9.9626,120.29313,105.86)"/>
<use xlink:href="#font_1_3" transform="matrix(9.9626,0,0,-9.9626,138.97943,106.07918)"/>
<use xlink:href="#font_1_4" transform="matrix(9.9626,0,0,-9.9626,157.60695,105.86)"/>
<use xlink:href="#font_0_1" transform="matrix(9.9626,0,0,-9.9626,67.202899,169.3636)"/>
<use xlink:href="#font_1_4" transform="matrix(9.9626,0,0,-9.9626,74.40395,171.655)"/>
<use xlink:href="#font_0_1" transform="matrix(9.9626,0,0,-9.9626,67.202899,150.59761)"/>
<use xlink:href="#font_1_3" transform="matrix(9.9626,0,0,-9.9626,74.54343,153.10819)"/>
<use xlink:href="#font_0_1" transform="matrix(9.9626,0,0,-9.9626,67.202899,131.83061)"/>
<use xlink:href="#font_1_2" transform="matrix(9.9626,0,0,-9.9626,74.62313,134.12201)"/>
<use xlink:href="#font_0_1" transform="matrix(9.9626,0,0,-9.9626,67.202899,113.063617)"/>
<use xlink:href="#font_1_1" transform="matrix(9.9626,0,0,-9.9626,75.01167,115.35501)"/>
<use xlink:href="#font_1_1" transform="matrix(9.9626,0,0,-9.9626,75.01167,78.237)"/>
<use xlink:href="#font_1_2" transform="matrix(9.9626,0,0,-9.9626,74.62313,59.471)"/>
<use xlink:href="#font_1_3" transform="matrix(9.9626,0,0,-9.9626,74.54343,40.923189)"/>
<use xlink:href="#font_1_4" transform="matrix(9.9626,0,0,-9.9626,74.40395,21.937012)"/>
<path transform="matrix(1,0,0,-1,4.056,174.49)" stroke-width="1.19553" stroke-linecap="butt" stroke-miterlimit="10" stroke-linejoin="miter" fill="none" stroke="#000080" d="M 0 97.89009 L 1.63022 97.17244 L 3.26047 96.33093 L 4.8907 95.37158 L 6.52094 94.30112 L 8.15117 93.12856 L 9.78142 91.8618 L 11.41165 90.51115 L 13.04189 89.08656 L 14.67212 87.59874 L 16.30237 86.05835 L 17.9326 84.47818 L 19.56284 82.86873 L 21.19307 81.24315 L 22.82332 79.61456 L 24.45355 77.99367 L 26.08379 76.39249 L 27.71402 74.82394 L 29.34427 73.29953 L 30.97449 71.83119 L 32.60474 70.4295 L 34.23497 69.10588 L 35.86522 67.86877 L 37.49545 66.72906 L 39.12569 65.69424 L 40.75594 64.77243 L 42.38617 63.97108 L 44.0164 63.29567 L 45.64664 62.75218 L 47.27689 62.34343 L 48.90712 62.0732 L 50.53735 61.94351 L 52.16759 61.95515 L 53.79784 62.1081 L 55.42807 62.40143 L 57.0583 62.8323 L 58.68854 63.3985 L 60.31879 64.09494 L 61.949 64.91637 L 63.57925 65.85677 L 65.20949 66.90941 L 66.83974 68.06581 L 68.46997 69.31776 L 70.1002 70.65527 L 71.73045 72.0684 L 73.36069 73.5465 L 74.99092 75.07861 L 76.62115 76.65372 L 78.2514 78.25885 L 79.88164 79.88217 L 81.51187 81.51132 L 83.14212 83.13484 L 84.77235 84.74017 L 86.40259 86.3147 L 88.03282 87.84702 L 89.66307 89.32509 L 91.2933 90.73878 L 92.92354 92.07613 L 94.55377 93.32787 L 96.18402 94.48447 L 97.81425 95.5371 L 99.44449 96.47789 L 101.07472 97.29932 L 102.70497 97.99574 L 104.33522 98.56195 L 105.96544 98.99283 L 107.59569 99.28633 L 109.22592 99.43967 L 110.85617 99.45168 L 112.48639 99.32199 L 114.11664 99.05157 L 115.74687 98.6432 L 117.3771 98.09953 L 119.00734 97.42392 L 120.63759 96.62276 L 122.26782 95.70169 L 123.89806 94.66687 L 125.52829 93.52718 L 127.15854 92.29044 L 128.78878 90.96625 L 130.419 89.56454 L 132.04924 88.09662 L 133.67949 86.57181 L 135.30973 85.00346 L 136.93996 83.40302 L 138.57019 81.78119 L 140.20044 80.15242 L 141.83068 78.52702 L 143.4609 76.9187 L 145.09116 75.33797 L 146.72139 73.79759 L 148.35163 72.30957 L 149.98186 70.88478 L 151.6121 69.53395 L 153.24234 68.26776 L 154.87258 67.09445 L 156.5028 66.02435 L 158.13306 65.06444 L 159.76329 64.22295 L 161.39353 63.50528 "/>
<symbol id="font_2_1">
<path d="M .14400001 .115 C .10400002 .048 .065 .034 .021000002 .031000002 C .009000003 .030000002 0 .030000002 0 .011000001 C 0 .0050000005 .0050000029 0 .013 0 C .040000004 0 .07100001 .003 .09900001 .003 C .13200002 .003 .16700001 0 .19900002 0 C .20500002 0 .21800003 0 .21800003 .019000002 C .21800003 .030000002 .20900002 .031000002 .20200002 .031000002 C .17900002 .033 .15500002 .041 .15500002 .066 C .15500002 .078 .16100002 .089 .16900002 .10300001 L .245 .231 L .49600003 .231 C .49800007 .21000001 .512 .074 .512 .064 C .512 .034 .46000005 .031000002 .44000004 .031000002 C .42600004 .031000002 .41600005 .031000002 .41600005 .011000001 C .41600005 0 .42800004 0 .43000005 0 C .47100006 0 .514 .003 .555 .003 C .58 .003 .643 0 .668 0 C .674 0 .686 0 .686 .020000002 C .686 .031000002 .676 .031000002 .663 .031000002 C .601 .031000002 .601 .038000004 .598 .067 L .537 .69200006 C .535 .712 .535 .716 .518 .716 C .502 .716 .49800007 .70900008 .492 .69900009 L .14400001 .115 M .26400004 .26200003 L .46100004 .592 L .493 .26200003 L .26400004 .26200003 Z "/>
</symbol>
<use xlink:href="#font_2_1" transform="matrix(9.9626,0,0,-9.9626,53.21469,144.11402)" fill="#000080"/>
<symbol id="font_2_2">
<path d="M .305 .31300003 C .311 .33900003 .334 .43100003 .404 .43100003 C .409 .43100003 .433 .43100003 .454 .418 C .426 .41300003 .40600003 .388 .40600003 .36400003 C .40600003 .34800003 .417 .32900004 .444 .32900004 C .46600003 .32900004 .498 .34700004 .498 .38700003 C .498 .43900005 .439 .45300005 .405 .45300005 C .347 .45300005 .312 .40000005 .3 .37700004 C .275 .44300003 .221 .45300005 .19200002 .45300005 C .08800001 .45300005 .031000002 .32400004 .031000002 .29900003 C .031000002 .28900004 .041 .28900004 .043000007 .28900004 C .051000008 .28900004 .054000006 .291 .056 .3 C .09 .40600003 .156 .43100003 .19000001 .43100003 C .209 .43100003 .244 .42200003 .244 .36400003 C .244 .33300004 .22700002 .26600004 .19000001 .126 C .17400001 .064 .13900002 .022000002 .095000009 .022000002 C .08900001 .022000002 .06600001 .022000002 .045 .035 C .07000001 .040000004 .09200001 .061 .09200001 .089 C .09200001 .116000007 .07000001 .124000009 .055000009 .124000009 C .025 .124000009 0 .098000008 0 .06600001 C 0 .020000002 .050000006 0 .094000007 0 C .16000001 0 .19600001 .07000001 .19900002 .076000008 C .21100001 .039 .24700003 0 .307 0 C .41 0 .467 .12900001 .467 .15400002 C .467 .16400002 .458 .16400002 .455 .16400002 C .446 .16400002 .444 .16000001 .442 .15300001 C .409 .046 .341 .022000002 .30900003 .022000002 C .27 .022000002 .254 .054 .254 .08800001 C .254 .11000001 .26 .13200002 .271 .17600002 L .305 .31300003 Z "/>
</symbol>
<use xlink:href="#font_2_2" transform="matrix(9.9626,0,0,-9.9626,169.29091,96.031589)"/>
<symbol id="font_2_3">
<path d="M .45700003 .586 C .461 .6 .461 .602 .461 .609 C .461 .62700006 .447 .63600006 .432 .63600006 C .42200003 .63600006 .40600003 .63 .397 .615 C .395 .61 .387 .579 .38300003 .561 C .37600003 .535 .36900003 .508 .363 .48100005 L .318 .301 C .314 .286 .271 .21600002 .20500002 .21600002 C .15400002 .21600002 .143 .26000003 .143 .29700003 C .143 .34300003 .16000001 .40500004 .194 .49300004 C .21000001 .53400006 .21400002 .545 .21400002 .56500008 C .21400002 .61 .18200001 .6470001 .13200002 .6470001 C .037 .6470001 0 .50200006 0 .49300004 C 0 .48300005 .01 .48300005 .012 .48300005 C .022000002 .48300005 .023 .485 .028000003 .50100007 C .055000009 .595 .095000009 .625 .12900001 .625 C .13700001 .625 .15400002 .625 .15400002 .59300008 C .15400002 .568 .14400001 .54200008 .13700001 .523 C .097 .41700004 .079 .36 .079 .31300003 C .079 .224 .142 .194 .201 .194 C .24000003 .194 .274 .21100001 .30200003 .23900002 C .289 .187 .277 .13800001 .237 .08500001 C .21100001 .051 .17300001 .022 .127 .022 C .113000009 .022 .068 .025000006 .051000008 .06400001 C .067 .06400001 .080000009 .06400001 .094000007 .076000008 C .104 .08500001 .11400001 .098000008 .11400001 .117000009 C .11400001 .148 .087000008 .15200001 .07700001 .15200001 C .054000006 .15200001 .021 .136 .021 .087000008 C .021 .037 .065000008 0 .127 0 C .23 0 .333 .091000009 .361 .20400001 L .45700003 .586 Z "/>
</symbol>
<use xlink:href="#font_2_3" transform="matrix(9.9626,0,0,-9.9626,82.43592,9.651342)"/>
</svg>
