<?xml version="1.0" encoding="UTF-8" standalone="no"?>
<!DOCTYPE svg PUBLIC "-//W3C//DTD SVG 1.1//EN" "http://www.w3.org/Graphics/SVG/1.1/DTD/svg11.dtd">
<svg xmlns="http://www.w3.org/2000/svg" xmlns:xlink="http://www.w3.org/1999/xlink" version="1.1" width="178.016pt" height="175.806pt" viewBox="0 0 178.016 175.806">
<path transform="matrix(1,0,0,-1,4.056,174.49)" stroke-width=".3985" stroke-linecap="butt" stroke-miterlimit="10" stroke-linejoin="miter" fill="none" stroke="#cbcbcb" d="M 5.63005 0 L 5.63005 161.39484 M 24.39688 0 L 24.39688 161.39484 M 43.16373 0 L 43.16373 161.39484 M 61.93057 0 L 61.93057 161.39484 M 99.46426 0 L 99.46426 161.39484 M 118.2311 0 L 118.2311 161.39484 M 136.99794 0 L 136.99794 161.39484 M 155.76479 0 L 155.76479 161.39484 "/>
<path transform="matrix(1,0,0,-1,4.056,174.49)" stroke-width=".3985" stroke-linecap="butt" stroke-miterlimit="10" stroke-linejoin="miter" fill="none" stroke="#cbcbcb" d="M 0 5.63005 L 161.39484 5.63005 M 0 24.39688 L 161.39484 24.39688 M 0 43.16373 L 161.39484 43.16373 M 0 61.93057 L 161.39484 61.93057 M 0 99.46426 L 161.39484 99.46426 M 0 118.2311 L 161.39484 118.2311 M 0 136.99794 L 161.39484 136.99794 M 0 155.76479 L 161.39484 155.76479 "/>
<path transform="matrix(1,0,0,-1,4.056,174.49)" stroke-width=".19925" stroke-linecap="butt" stroke-miterlimit="10" stroke-linejoin="miter" fill="none" stroke="#929292" d="M 5.63005 78.57146 L 5.63005 82.82335 M 24.39688 78.57146 L 24.39688 82.82335 M 43.16373 78.57146 L 43.16373 82.82335 M 61.93057 78.57146 L 61.93057 82.82335 M 99.46426 78.57146 L 99.46426 82.82335 M 118.2311 78.57146 L 118.2311 82.82335 M 136.99794 78.57146 L 136.99794 82.82335 M 155.76479 78.57146 L 155.76479 82.82335 "/>
<path transform="matrix(1,0,0,-1,4.056,174.49)" stroke-width=".19925" stroke-linecap="butt" stroke-miterlimit="10" stroke-linejoin="miter" fill="none" stroke="#929292" d="M 78.57146 5.63005 L 82.82335 5.63005 M 78.57146 24.39688 L 82.82335 24.39688 M 78.57146 43.16373 L 82.82335 43.16373 M 78.57146 61.93057 L 82.82335 61.93057 M 78.57146 99.46426 L 82.82335 99.46426 M 78.57146 118.2311 L 82.82335 118.2311 M 78.57146 136.99794 L 82.82335 136.99794 M 78.57146 155.76479 L 82.82335 155.76479 "/>
<path transform="matrix(1,0,0,-1,4.056,174.49)" stroke-width=".3985" stroke-linecap="butt" stroke-miterlimit="10" stroke-linejoin="miter" fill="none" stroke="#000000" d="M 0 80.69742 L 159.40232 80.69742 "/>
<path transform="matrix(1,0,0,-1,163.45832,93.79259)" d="M 1.99252 0 L -1.19551 1.59401 L 0 0 L -1.19551 -1.59401 "/>
<path transform="matrix(1,0,0,-1,4.056,174.49)" stroke-width=".3985" stroke-linecap="butt" stroke-miterlimit="10" stroke-linejoin="miter" fill="none" stroke="#000000" d="M 80.69742 0 L 80.69742 159.40232 "/>
<path transform="matrix(0,-1,-1,-0,84.75342,15.087692)" d="M 1.99252 0 L -1.19551 1.59401 L 0 0 L -1.19551 -1.59401 "/>
<symbol id="font_0_1">
<path d="M .57600006 0 C .59300008 0 .611 0 .611 .019999996 C .611 .040000008 .59300008 .040000008 .57600006 .040000008 L .035000005 .040000008 C .018 .040000008 0 .040000008 0 .019999996 C 0 0 .018 0 .035000005 0 L .57600006 0 Z "/>
</symbol>
<use xlink:href="#font_0_1" transform="matrix(9.9626,0,0,-9.9626,4.147896,103.5686)"/>
<symbol id="font_1_4">
<path d="M .266 .165 L .266 .078 C .266 .042000005 .26400004 .031000002 .19000001 .031000002 L .16900002 .031000002 L .16900002 0 C .21000001 .003 .26200003 .003 .30400003 .003 C .34600003 .003 .39900003 .003 .44000004 0 L .44000004 .031000002 L .41900004 .031000002 C .34500004 .031000002 .34300003 .042000005 .34300003 .078 L .34300003 .165 L .44300003 .165 L .44300003 .19600001 L .34300003 .19600001 L .34300003 .651 C .34300003 .671 .34300003 .67700007 .32700003 .67700007 C .31800003 .67700007 .31500004 .67700007 .307 .665 L 0 .19600001 L 0 .165 L .266 .165 M .272 .19600001 L .028 .19600001 L .272 .569 L .272 .19600001 Z "/>
</symbol>
<use xlink:href="#font_1_4" transform="matrix(9.9626,0,0,-9.9626,11.347953,105.86)"/>
<use xlink:href="#font_0_1" transform="matrix(9.9626,0,0,-9.9626,22.913897,103.5686)"/>
<symbol id="font_1_3">
<path d="M .24800003 .37400005 C .33 .40100003 .388 .47100006 .388 .55 C .388 .632 .3 .688 .204 .688 C .10300001 .688 .027000003 .628 .027000003 .55200007 C .027000003 .519 .049000004 .5 .078 .5 C .109000008 .5 .12900001 .522 .12900001 .55100008 C .12900001 .6010001 .082 .6010001 .067 .6010001 C .098 .65000006 .164 .66300007 .20000002 .66300007 C .24100003 .66300007 .29600004 .64100006 .29600004 .55100008 C .29600004 .53900006 .29400004 .48100005 .268 .43700005 C .238 .38900004 .204 .38600005 .17900002 .38500003 C .171 .38400004 .14700002 .38200004 .14000002 .38200004 C .132 .38100005 .125 .38000003 .125 .37000004 C .125 .35900004 .132 .35900004 .14900002 .35900004 L .19300002 .35900004 C .275 .35900004 .312 .29100005 .312 .193 C .312 .057000005 .24300003 .028 .199 .028 C .15600002 .028 .081 .045 .046000005 .104 C .081 .09900001 .11200001 .12100001 .11200001 .15900001 C .11200001 .19500001 .085 .215 .056 .215 C .031999999 .215 0 .201 0 .157 C 0 .06600001 .093 0 .20200002 0 C .32400004 0 .41500003 .091000009 .41500003 .193 C .41500003 .27500005 .35200004 .35300005 .24800003 .37400005 Z "/>
</symbol>
<use xlink:href="#font_1_3" transform="matrix(9.9626,0,0,-9.9626,30.254429,106.07918)"/>
<use xlink:href="#font_0_1" transform="matrix(9.9626,0,0,-9.9626,41.680898,103.5686)"/>
<symbol id="font_1_2">
<path d="M .07700001 .07700001 L .18300002 .18 C .33900003 .31800003 .39900003 .372 .39900003 .47200004 C .39900003 .586 .30900003 .666 .18700002 .666 C .074 .666 0 .574 0 .485 C 0 .42900003 .05 .42900003 .053000008 .42900003 C .07000001 .42900003 .105000007 .441 .105000007 .48200003 C .105000007 .508 .08700001 .53400006 .052000006 .53400006 C .044000005 .53400006 .042000008 .53400006 .039 .53300008 C .062000004 .59800007 .11600001 .63500007 .17400001 .63500007 C .26500003 .63500007 .308 .554 .308 .47200004 C .308 .39200003 .25800003 .31300003 .20300003 .25100003 L .011000004 .037 C 0 .026 0 .024 0 0 L .37100003 0 L .39900003 .17400001 L .374 .17400001 C .36900003 .14400001 .36200003 .1 .352 .085 C .345 .07700001 .279 .07700001 .257 .07700001 L .07700001 .07700001 Z "/>
</symbol>
<use xlink:href="#font_1_2" transform="matrix(9.9626,0,0,-9.9626,49.100133,105.86)"/>
<use xlink:href="#font_0_1" transform="matrix(9.9626,0,0,-9.9626,60.446897,103.5686)"/>
<symbol id="font_1_1">
<path d="M .205 .64000007 C .205 .66400006 .205 .666 .18200003 .666 C .120000008 .60200008 .032000007 .60200008 0 .60200008 L 0 .57100006 C .020000004 .57100006 .07900001 .57100006 .13100001 .597 L .13100001 .079 C .13100001 .043 .128 .031000002 .038000004 .031000002 L .0060000049 .031000002 L .0060000049 0 C .04100001 .003 .128 .003 .168 .003 C .20800002 .003 .29500003 .003 .33000005 0 L .33000005 .031000002 L .29800005 .031000002 C .20800002 .031000002 .205 .042000005 .205 .079 L .205 .64000007 Z "/>
</symbol>
<use xlink:href="#font_1_1" transform="matrix(9.9626,0,0,-9.9626,68.25567,105.86)"/>
<use xlink:href="#font_1_1" transform="matrix(9.9626,0,0,-9.9626,101.91467,105.86)"/>
<use xlink:href="#font_1_2" transform="matrix(9.9626,0,0,-9.9626,120.29313,105.86)"/>
<use xlink:href="#font_1_3" transform="matrix(9.9626,0,0,-9.9626,138.97943,106.07918)"/>
<use xlink:href="#font_1_4" transform="matrix(9.9626,0,0,-9.9626,157.60695,105.86)"/>
<use xlink:href="#font_0_1" transform="matrix(9.9626,0,0,-9.9626,67.202899,169.3636)"/>
<use xlink:href="#font_1_4" transform="matrix(9.9626,0,0,-9.9626,74.40395,171.655)"/>
<use xlink:href="#font_0_1" transform="matrix(9.9626,0,0,-9.9626,67.202899,150.59761)"/>
<use xlink:href="#font_1_3" transform="matrix(9.9626,0,0,-9.9626,74.54343,153.10819)"/>
<use xlink:href="#font_0_1" transform="matrix(9.9626,0,0,-9.9626,67.202899,131.83061)"/>
<use xlink:href="#font_1_2" transform="matrix(9.9626,0,0,-9.9626,74.62313,134.12201)"/>
<use xlink:href="#font_0_1" transform="matrix(9.9626,0,0,-9.9626,67.202899,113.063617)"/>
<use xlink:href="#font_1_1" transform="matrix(9.9626,0,0,-9.9626,75.01167,115.35501)"/>
<use xlink:href="#font_1_1" transform="matrix(9.9626,0,0,-9.9626,75.01167,78.237)"/>
<use xlink:href="#font_1_2" transform="matrix(9.9626,0,0,-9.9626,74.62313,59.471)"/>
<use xlink:href="#font_1_3" transform="matrix(9.9626,0,0,-9.9626,74.54343,40.923189)"/>
<use xlink:href="#font_1_4" transform="matrix(9.9626,0,0,-9.9626,74.40395,21.937012)"/>
<path transform="matrix(1,0,0,-1,4.056,174.49)" stroke-width="1.19553" stroke-linecap="butt" stroke-miterlimit="10" stroke-linejoin="miter" fill="none" stroke="#000080" d="M 0 80.95209 L 1.0916 80.96735 L 2.18321 80.98352 L 3.27481 81.00064 L 4.36642 81.0188 L 5.45804 81.03804 L 6.54964 81.05844 L 7.64125 81.08008 L 8.73286 81.10298 L 9.82448 81.12727 L 10.91609 81.15303 L 12.0077 81.18031 L 13.0993 81.20923 L 14.19092 81.2399 L 15.28253 81.27238 L 16.37413 81.30681 L 17.46574 81.34332 L 18.55736 81.382 L 19.64897 81.42299 L 20.74059 81.46645 L 21.8322 81.51251 L 22.9238 81.56133 L 24.01541 81.61307 L 25.10701 81.66791 L 26.19862 81.72601 L 27.29024 81.78763 L 28.38184 81.85292 L 29.47346 81.92212 L 30.56508 81.99547 L 31.65668 82.07323 L 32.74829 82.15561 L 33.8399 82.24292 L 34.9315 82.33551 L 36.02312 82.43361 L 37.11473 82.53758 L 38.20633 82.64746 L 39.29796 82.76402 L 40.38957 82.88768 L 41.48117 83.01924 L 42.57278 83.15811 L 43.6644 83.30638 L 44.756 83.46214 L 45.84761 83.62747 L 46.93922 83.80388 L 48.03084 83.98967 L 49.12245 84.1869 L 50.21405 84.39522 L 51.30566 84.61687 L 52.39728 84.85126 L 53.48888 85.10104 L 54.58049 85.36397 L 55.6721 85.6434 L 56.7637 85.94011 L 57.85533 86.2554 L 58.94695 86.58775 L 60.03854 86.94058 L 61.13016 87.31421 L 62.22177 87.71039 L 63.31337 88.13077 L 64.40498 88.57573 L 65.49661 89.04846 L 66.58821 89.54785 L 67.67982 90.07744 L 68.77144 90.64046 L 69.86304 91.23537 L 70.95465 91.8663 L 72.04626 92.53459 L 73.13788 93.24397 L 74.22949 93.99672 L 75.32109 94.79262 L 76.4127 95.63731 L 77.50432 96.53099 L 78.59592 97.47891 L 79.68753 98.4848 L 80.77916 99.5459 L 81.87076 100.67471 L 82.96237 101.8711 L 84.05399 103.13916 L 85.14558 104.48306 L 86.2372 105.90729 L 87.32883 107.4167 L 88.42043 109.01714 L 89.51204 110.71329 L 90.60365 112.51096 L 91.69525 114.41617 L 92.78687 116.43529 L 93.87848 118.57565 L 94.9701 120.84381 L 96.0617 123.24858 L 97.15332 125.79675 L 98.24492 128.4973 L 99.33653 131.36038 L 100.42813 134.39441 L 101.51974 137.60993 L 102.61137 141.01816 L 103.70297 144.63079 L 104.79459 148.4611 L 105.8862 152.51868 L 106.9778 156.81967 L 108.06941 161.37888 "/>
<symbol id="font_2_1">
<path d="M .119 .078 C .109 .039 .10699999 .031000002 .028 .031000002 C .011 .031000002 0 .031000002 0 .012 C 0 0 .009 0 .028 0 L .35900004 0 C .56700006 0 .764 .21100001 .764 .43 C .764 .57100006 .679 .683 .529 .683 L .193 .683 C .17400001 .683 .163 .683 .163 .66400006 C .163 .652 .172 .652 .192 .652 C .205 .652 .223 .651 .235 .65000006 C .25100003 .648 .25700004 .64500007 .25700004 .634 C .25700004 .63000008 .256 .62700006 .25300003 .615 L .119 .078 M .33500005 .614 C .344 .64900007 .34600003 .652 .38900004 .652 L .49600003 .652 C .594 .652 .677 .59900006 .677 .467 C .677 .418 .657 .254 .572 .14400001 C .543 .10700001 .46400003 .031000002 .34100003 .031000002 L .228 .031000002 C .214 .031000002 .212 .031000002 .206 .032 C .19600001 .033 .193 .034 .193 .042000005 C .193 .045 .193 .047000003 .198 .065000008 L .33500005 .614 Z "/>
</symbol>
<use xlink:href="#font_2_1" transform="matrix(9.9626,0,0,-9.9626,52.738504,144.11402)" fill="#000080"/>
<symbol id="font_2_2">
<path d="M .305 .31300003 C .311 .33900003 .334 .43100003 .404 .43100003 C .409 .43100003 .433 .43100003 .454 .418 C .426 .41300003 .40600003 .388 .40600003 .36400003 C .40600003 .34800003 .417 .32900004 .444 .32900004 C .46600003 .32900004 .498 .34700004 .498 .38700003 C .498 .43900005 .439 .45300005 .405 .45300005 C .347 .45300005 .312 .40000005 .3 .37700004 C .275 .44300003 .221 .45300005 .19200002 .45300005 C .08800001 .45300005 .031000002 .32400004 .031000002 .29900003 C .031000002 .28900004 .041 .28900004 .043000007 .28900004 C .051000008 .28900004 .054000006 .291 .056 .3 C .09 .40600003 .156 .43100003 .19000001 .43100003 C .209 .43100003 .244 .42200003 .244 .36400003 C .244 .33300004 .22700002 .26600004 .19000001 .126 C .17400001 .064 .13900002 .022000002 .095000009 .022000002 C .08900001 .022000002 .06600001 .022000002 .045 .035 C .07000001 .040000004 .09200001 .061 .09200001 .089 C .09200001 .116000007 .07000001 .124000009 .055000009 .124000009 C .025 .124000009 0 .098000008 0 .06600001 C 0 .020000002 .050000006 0 .094000007 0 C .16000001 0 .19600001 .07000001 .19900002 .076000008 C .21100001 .039 .24700003 0 .307 0 C .41 0 .467 .12900001 .467 .15400002 C .467 .16400002 .458 .16400002 .455 .16400002 C .446 .16400002 .444 .16000001 .442 .15300001 C .409 .046 .341 .022000002 .30900003 .022000002 C .27 .022000002 .254 .054 .254 .08800001 C .254 .11000001 .26 .13200002 .271 .17600002 L .305 .31300003 Z "/>
</symbol>
<use xlink:href="#font_2_2" transform="matrix(9.9626,0,0,-9.9626,169.29091,96.031589)"/>
<symbol id="font_2_3">
<path d="M .45700003 .586 C .461 .6 .461 .602 .461 .609 C .461 .62700006 .447 .63600006 .432 .63600006 C .42200003 .63600006 .40600003 .63 .397 .615 C .395 .61 .387 .579 .38300003 .561 C .37600003 .535 .36900003 .508 .363 .48100005 L .318 .301 C .314 .286 .271 .21600002 .20500002 .21600002 C .15400002 .21600002 .143 .26000003 .143 .29700003 C .143 .34300003 .16000001 .40500004 .194 .49300004 C .21000001 .53400006 .21400002 .545 .21400002 .56500008 C .21400002 .61 .18200001 .6470001 .13200002 .6470001 C .037 .6470001 0 .50200006 0 .49300004 C 0 .48300005 .01 .48300005 .012 .48300005 C .022000002 .48300005 .023 .485 .028000003 .50100007 C .055000009 .595 .095000009 .625 .12900001 .625 C .13700001 .625 .15400002 .625 .15400002 .59300008 C .15400002 .568 .14400001 .54200008 .13700001 .523 C .097 .41700004 .079 .36 .079 .31300003 C .079 .224 .142 .194 .201 .194 C .24000003 .194 .274 .21100001 .30200003 .23900002 C .289 .187 .277 .13800001 .237 .08500001 C .21100001 .051 .17300001 .022 .127 .022 C .113000009 .022 .068 .025000006 .051000008 .06400001 C .067 .06400001 .080000009 .06400001 .094000007 .076000008 C .104 .08500001 .11400001 .098000008 .11400001 .117000009 C .11400001 .148 .087000008 .15200001 .07700001 .15200001 C .054000006 .15200001 .021 .136 .021 .087000008 C .021 .037 .065000008 0 .127 0 C .23 0 .333 .091000009 .361 .20400001 L .45700003 .586 Z "/>
</symbol>
<use xlink:href="#font_2_3" transform="matrix(9.9626,0,0,-9.9626,82.43592,9.651342)"/>
</svg>
