<?xml version="1.0" encoding="UTF-8" standalone="no"?>
<!DOCTYPE svg PUBLIC "-//W3C//DTD SVG 1.1//EN" "http://www.w3.org/Graphics/SVG/1.1/DTD/svg11.dtd">
<svg xmlns="http://www.w3.org/2000/svg" xmlns:xlink="http://www.w3.org/1999/xlink" version="1.1" width="183.628pt" height="181.431pt" viewBox="0 0 183.628 181.431">
<path transform="matrix(1,0,0,-1,9.686,174.485)" stroke-width="1" stroke-linecap="butt" stroke-miterlimit="10" stroke-linejoin="miter" fill="none" stroke="#bfbfbf" d="M 0 0 L 0 161.3842 M 16.13841 0 L 16.13841 161.3842 M 32.27684 0 L 32.27684 161.3842 M 48.41525 0 L 48.41525 161.3842 M 64.55368 0 L 64.55368 161.3842 M 96.83052 0 L 96.83052 161.3842 M 112.96893 0 L 112.96893 161.3842 M 129.10736 0 L 129.10736 161.3842 M 145.24578 0 L 145.24578 161.3842 M 161.3842 0 L 161.3842 161.3842 "/>
<path transform="matrix(1,0,0,-1,9.686,174.485)" stroke-width="1" stroke-linecap="butt" stroke-miterlimit="10" stroke-linejoin="miter" fill="none" stroke="#bfbfbf" d="M 0 0 L 161.3842 0 M 0 16.13841 L 161.3842 16.13841 M 0 32.27684 L 161.3842 32.27684 M 0 48.41525 L 161.3842 48.41525 M 0 64.55368 L 161.3842 64.55368 M 0 96.83052 L 161.3842 96.83052 M 0 112.96893 L 161.3842 112.96893 M 0 129.10736 L 161.3842 129.10736 M 0 145.24578 L 161.3842 145.24578 M 0 161.3842 L 161.3842 161.3842 "/>
<path transform="matrix(1,0,0,-1,9.686,174.485)" stroke-width="1" stroke-linecap="butt" stroke-miterlimit="10" stroke-linejoin="miter" fill="none" stroke="#808080" d="M 0 78.56621 L 0 82.81796 M 16.13841 78.56621 L 16.13841 82.81796 M 32.27684 78.56621 L 32.27684 82.81796 M 48.41525 78.56621 L 48.41525 82.81796 M 64.55368 78.56621 L 64.55368 82.81796 M 96.83052 78.56621 L 96.83052 82.81796 M 112.96893 78.56621 L 112.96893 82.81796 M 129.10736 78.56621 L 129.10736 82.81796 M 145.24578 78.56621 L 145.24578 82.81796 M 161.3842 78.56621 L 161.3842 82.81796 "/>
<path transform="matrix(1,0,0,-1,9.686,174.485)" stroke-width="1" stroke-linecap="butt" stroke-miterlimit="10" stroke-linejoin="miter" fill="none" stroke="#808080" d="M 78.56621 0 L 82.81796 0 M 78.56621 16.13841 L 82.81796 16.13841 M 78.56621 32.27684 L 82.81796 32.27684 M 78.56621 48.41525 L 82.81796 48.41525 M 78.56621 64.55368 L 82.81796 64.55368 M 78.56621 96.83052 L 82.81796 96.83052 M 78.56621 112.96893 L 82.81796 112.96893 M 78.56621 129.10736 L 82.81796 129.10736 M 78.56621 145.24578 L 82.81796 145.24578 M 78.56621 161.3842 L 82.81796 161.3842 "/>
<path transform="matrix(1,0,0,-1,9.686,174.485)" stroke-width="1" stroke-linecap="butt" stroke-miterlimit="10" stroke-linejoin="miter" fill="none" stroke="#000000" d="M 0 80.6921 L 159.39168 80.6921 "/>
<path transform="matrix(1,0,0,-1,169.07769,93.7929)" d="M 1.99252 0 L -1.19551 1.59401 L 0 0 L -1.19551 -1.59401 "/>
<path transform="matrix(1,0,0,-1,9.686,174.485)" stroke-width="1" stroke-linecap="butt" stroke-miterlimit="10" stroke-linejoin="miter" fill="none" stroke="#000000" d="M 80.6921 0 L 80.6921 159.39168 "/>
<path transform="matrix(0,-1,-1,-0,90.3781,15.093323)" d="M 1.99252 0 L -1.19551 1.59401 L 0 0 L -1.19551 -1.59401 "/>
<symbol id="font_0_1">
<path d="M .57600006 0 C .59300008 0 .611 0 .611 .019999996 C .611 .040000008 .59300008 .040000008 .57600006 .040000008 L .035000005 .040000008 C .018 .040000008 0 .040000008 0 .019999996 C 0 0 .018 0 .035000005 0 L .57600006 0 Z "/>
</symbol>
<use xlink:href="#font_0_1" transform="matrix(9.9626,0,0,-9.9626,4.147896,103.5686)"/>
<symbol id="font_1_7">
<path d="M .39900003 .223 C .39900003 .34200005 .317 .44200004 .209 .44200004 C .16100002 .44200004 .118000019 .42600004 .082 .39100004 L .082 .586 C .10200001 .58000007 .135 .573 .16700001 .573 C .29 .573 .36 .66400006 .36 .67700007 C .36 .683 .357 .688 .35 .688 C .349 .688 .347 .688 .342 .68500009 C .322 .67600008 .273 .656 .20600002 .656 C .16600001 .656 .120000008 .66300007 .073 .6840001 C .065 .68700006 .06300001 .68700006 .061000009 .68700006 C .051000004 .68700006 .051000004 .679 .051000004 .66300007 L .051000004 .36700005 C .051000004 .34900005 .051000004 .34100003 .065 .34100003 C .07200001 .34100003 .074 .34400005 .07800001 .35000003 C .08900002 .36600004 .12600002 .42000006 .207 .42000006 C .259 .42000006 .284 .37400005 .292 .35600005 C .308 .31900005 .31 .28000004 .31 .23 C .31 .19500001 .31 .135 .286 .093 C .262 .054000006 .22500001 .028 .17900002 .028 C .106000009 .028 .049000008 .08100001 .032 .14000002 C .035 .13900002 .038000008 .13800001 .049000008 .13800001 C .082 .13800001 .09900001 .163 .09900001 .187 C .09900001 .21100001 .082 .23600002 .049000008 .23600002 C .035 .23600002 0 .22900002 0 .18300002 C 0 .097 .069000009 0 .18100001 0 C .297 0 .39900003 .096 .39900003 .223 Z "/>
</symbol>
<use xlink:href="#font_1_7" transform="matrix(9.9626,0,0,-9.9626,11.56713,106.07918)"/>
<use xlink:href="#font_0_1" transform="matrix(9.9626,0,0,-9.9626,20.285897,103.5686)"/>
<symbol id="font_1_6">
<path d="M .266 .165 L .266 .078 C .266 .042000005 .26400004 .031000002 .19000001 .031000002 L .16900002 .031000002 L .16900002 0 C .21000001 .003 .26200003 .003 .30400003 .003 C .34600003 .003 .39900003 .003 .44000004 0 L .44000004 .031000002 L .41900004 .031000002 C .34500004 .031000002 .34300003 .042000005 .34300003 .078 L .34300003 .165 L .44300003 .165 L .44300003 .19600001 L .34300003 .19600001 L .34300003 .651 C .34300003 .671 .34300003 .67700007 .32700003 .67700007 C .31800003 .67700007 .31500004 .67700007 .307 .665 L 0 .19600001 L 0 .165 L .266 .165 M .272 .19600001 L .028 .19600001 L .272 .569 L .272 .19600001 Z "/>
</symbol>
<use xlink:href="#font_1_6" transform="matrix(9.9626,0,0,-9.9626,27.486954,105.86)"/>
<use xlink:href="#font_0_1" transform="matrix(9.9626,0,0,-9.9626,36.423898,103.5686)"/>
<symbol id="font_1_5">
<path d="M .24800003 .37400005 C .33 .40100003 .388 .47100006 .388 .55 C .388 .632 .3 .688 .204 .688 C .10300001 .688 .027000003 .628 .027000003 .55200007 C .027000003 .519 .049000004 .5 .078 .5 C .109000008 .5 .12900001 .522 .12900001 .55100008 C .12900001 .6010001 .082 .6010001 .067 .6010001 C .098 .65000006 .164 .66300007 .20000002 .66300007 C .24100003 .66300007 .29600004 .64100006 .29600004 .55100008 C .29600004 .53900006 .29400004 .48100005 .268 .43700005 C .238 .38900004 .204 .38600005 .17900002 .38500003 C .171 .38400004 .14700002 .38200004 .14000002 .38200004 C .132 .38100005 .125 .38000003 .125 .37000004 C .125 .35900004 .132 .35900004 .14900002 .35900004 L .19300002 .35900004 C .275 .35900004 .312 .29100005 .312 .193 C .312 .057000005 .24300003 .028 .199 .028 C .15600002 .028 .081 .045 .046000005 .104 C .081 .09900001 .11200001 .12100001 .11200001 .15900001 C .11200001 .19500001 .085 .215 .056 .215 C .031999999 .215 0 .201 0 .157 C 0 .06600001 .093 0 .20200002 0 C .32400004 0 .41500003 .091000009 .41500003 .193 C .41500003 .27500005 .35200004 .35300005 .24800003 .37400005 Z "/>
</symbol>
<use xlink:href="#font_1_5" transform="matrix(9.9626,0,0,-9.9626,43.76443,106.07918)"/>
<use xlink:href="#font_0_1" transform="matrix(9.9626,0,0,-9.9626,52.561899,103.5686)"/>
<symbol id="font_1_4">
<path d="M .07700001 .07700001 L .18300002 .18 C .33900003 .31800003 .39900003 .372 .39900003 .47200004 C .39900003 .586 .30900003 .666 .18700002 .666 C .074 .666 0 .574 0 .485 C 0 .42900003 .05 .42900003 .053000008 .42900003 C .07000001 .42900003 .105000007 .441 .105000007 .48200003 C .105000007 .508 .08700001 .53400006 .052000006 .53400006 C .044000005 .53400006 .042000008 .53400006 .039 .53300008 C .062000004 .59800007 .11600001 .63500007 .17400001 .63500007 C .26500003 .63500007 .308 .554 .308 .47200004 C .308 .39200003 .25800003 .31300003 .20300003 .25100003 L .011000004 .037 C 0 .026 0 .024 0 0 L .37100003 0 L .39900003 .17400001 L .374 .17400001 C .36900003 .14400001 .36200003 .1 .352 .085 C .345 .07700001 .279 .07700001 .257 .07700001 L .07700001 .07700001 Z "/>
</symbol>
<use xlink:href="#font_1_4" transform="matrix(9.9626,0,0,-9.9626,59.982133,105.86)"/>
<use xlink:href="#font_0_1" transform="matrix(9.9626,0,0,-9.9626,68.6999,103.5686)"/>
<symbol id="font_1_3">
<path d="M .205 .64000007 C .205 .66400006 .205 .666 .18200003 .666 C .120000008 .60200008 .032000007 .60200008 0 .60200008 L 0 .57100006 C .020000004 .57100006 .07900001 .57100006 .13100001 .597 L .13100001 .079 C .13100001 .043 .128 .031000002 .038000004 .031000002 L .0060000049 .031000002 L .0060000049 0 C .04100001 .003 .128 .003 .168 .003 C .20800002 .003 .29500003 .003 .33000005 0 L .33000005 .031000002 L .29800005 .031000002 C .20800002 .031000002 .205 .042000005 .205 .079 L .205 .64000007 Z "/>
</symbol>
<use xlink:href="#font_1_3" transform="matrix(9.9626,0,0,-9.9626,76.508678,105.86)"/>
<use xlink:href="#font_1_3" transform="matrix(9.9626,0,0,-9.9626,104.91067,105.86)"/>
<use xlink:href="#font_1_4" transform="matrix(9.9626,0,0,-9.9626,120.660129,105.86)"/>
<use xlink:href="#font_1_5" transform="matrix(9.9626,0,0,-9.9626,136.71942,106.07918)"/>
<use xlink:href="#font_1_6" transform="matrix(9.9626,0,0,-9.9626,152.71796,105.86)"/>
<use xlink:href="#font_1_7" transform="matrix(9.9626,0,0,-9.9626,169.07514,106.07918)"/>
<use xlink:href="#font_0_1" transform="matrix(9.9626,0,0,-9.9626,72.827899,174.9886)"/>
<use xlink:href="#font_1_7" transform="matrix(9.9626,0,0,-9.9626,80.24813,177.49918)"/>
<use xlink:href="#font_0_1" transform="matrix(9.9626,0,0,-9.9626,72.827899,158.8506)"/>
<use xlink:href="#font_1_6" transform="matrix(9.9626,0,0,-9.9626,80.02895,161.142)"/>
<use xlink:href="#font_0_1" transform="matrix(9.9626,0,0,-9.9626,72.827899,142.7126)"/>
<use xlink:href="#font_1_5" transform="matrix(9.9626,0,0,-9.9626,80.16843,145.22318)"/>
<use xlink:href="#font_0_1" transform="matrix(9.9626,0,0,-9.9626,72.827899,126.5746)"/>
<use xlink:href="#font_1_4" transform="matrix(9.9626,0,0,-9.9626,80.24813,128.866)"/>
<use xlink:href="#font_0_1" transform="matrix(9.9626,0,0,-9.9626,72.827899,110.4356)"/>
<use xlink:href="#font_1_3" transform="matrix(9.9626,0,0,-9.9626,80.63667,112.727)"/>
<use xlink:href="#font_1_3" transform="matrix(9.9626,0,0,-9.9626,80.63667,80.866)"/>
<use xlink:href="#font_1_4" transform="matrix(9.9626,0,0,-9.9626,80.24813,64.728)"/>
<use xlink:href="#font_1_5" transform="matrix(9.9626,0,0,-9.9626,80.16843,48.809175)"/>
<use xlink:href="#font_1_6" transform="matrix(9.9626,0,0,-9.9626,80.02895,32.451005)"/>
<use xlink:href="#font_1_7" transform="matrix(9.9626,0,0,-9.9626,80.24813,16.53218)"/>
<path transform="matrix(1,0,0,-1,9.686,174.485)" stroke-width="1.19553" stroke-linecap="butt" stroke-miterlimit="10" stroke-linejoin="miter" fill="none" stroke="#000080" d="M 80.6921 145.24578 L 112.96893 129.10736 "/>
<path transform="matrix(1,0,0,-1,9.686,174.485)" stroke-width="1.19553" stroke-linecap="butt" stroke-miterlimit="10" stroke-linejoin="miter" fill="none" stroke="#000080" d="M 80.6921 16.13841 L 48.41525 32.27684 "/>
<path transform="matrix(1,0,0,-1,9.686,174.485)" stroke-width="1.19553" stroke-linecap="butt" stroke-miterlimit="10" stroke-linejoin="miter" fill="none" stroke="#000080" d="M 112.96893 112.96844 L 114.3138 112.28888 L 115.65865 111.59435 L 117.00351 110.88387 L 118.34839 110.15627 L 119.69324 109.41022 L 121.0381 108.64423 L 122.38297 107.85669 L 123.72783 107.04564 L 125.0727 106.20882 L 126.41754 105.3436 L 127.76242 104.44687 L 129.10729 103.51495 L 130.45214 102.54332 L 131.79701 101.52644 L 133.14186 100.45729 L 134.48673 99.32692 L 135.83159 98.12338 L 137.17646 96.83037 L 138.52132 95.4245 L 139.86618 93.8692 L 141.21105 92.10384 L 142.55591 90.00983 L 143.90076 87.28088 L 145.24562 80.75864 "/>
<path transform="matrix(1,0,0,-1,9.686,174.485)" stroke-width="1.19553" stroke-linecap="butt" stroke-miterlimit="10" stroke-linejoin="miter" fill="none" stroke="#000080" d="M 16.13841 80.6921 L 17.48328 74.10362 L 18.82813 71.37459 L 20.17299 69.28053 L 21.51787 67.51515 L 22.86272 65.95982 L 24.20758 64.55371 L 25.55244 63.26091 L 26.89731 62.05737 L 28.24217 60.92699 L 29.58702 59.85786 L 30.9319 58.84094 L 32.27676 57.86931 L 33.62161 56.93738 L 34.96649 56.04068 L 36.31134 55.17545 L 37.6562 54.33861 L 39.00107 53.52756 L 40.34593 52.74002 L 41.6908 51.97403 L 43.03566 51.22801 L 44.38052 50.50038 L 45.72539 49.7899 L 47.07024 49.09535 L 48.4151 48.41582 "/>
<symbol id="font_2_3">
<path d="M .45700003 .586 C .461 .6 .461 .602 .461 .609 C .461 .62700006 .447 .63600006 .432 .63600006 C .42200003 .63600006 .40600003 .63 .397 .615 C .395 .61 .387 .579 .38300003 .561 C .37600003 .535 .36900003 .508 .363 .48100005 L .318 .301 C .314 .286 .271 .21600002 .20500002 .21600002 C .15400002 .21600002 .143 .26000003 .143 .29700003 C .143 .34300003 .16000001 .40500004 .194 .49300004 C .21000001 .53400006 .21400002 .545 .21400002 .56500008 C .21400002 .61 .18200001 .6470001 .13200002 .6470001 C .037 .6470001 0 .50200006 0 .49300004 C 0 .48300005 .01 .48300005 .012 .48300005 C .022000002 .48300005 .023 .485 .028000003 .50100007 C .055000009 .595 .095000009 .625 .12900001 .625 C .13700001 .625 .15400002 .625 .15400002 .59300008 C .15400002 .568 .14400001 .54200008 .13700001 .523 C .097 .41700004 .079 .36 .079 .31300003 C .079 .224 .142 .194 .201 .194 C .24000003 .194 .274 .21100001 .30200003 .23900002 C .289 .187 .277 .13800001 .237 .08500001 C .21100001 .051 .17300001 .022 .127 .022 C .113000009 .022 .068 .025000006 .051000008 .06400001 C .067 .06400001 .080000009 .06400001 .094000007 .076000008 C .104 .08500001 .11400001 .098000008 .11400001 .117000009 C .11400001 .148 .087000008 .15200001 .07700001 .15200001 C .054000006 .15200001 .021 .136 .021 .087000008 C .021 .037 .065000008 0 .127 0 C .23 0 .333 .091000009 .361 .20400001 L .45700003 .586 Z "/>
</symbol>
<use xlink:href="#font_2_3" transform="matrix(9.9626,0,0,-9.9626,38.509916,66.05034)" fill="#000080"/>
<symbol id="font_1_8">
<path d="M .63100007 .19400002 C .646 .19400002 .665 .19400002 .665 .214 C .665 .23400001 .646 .23400001 .632 .23400001 L .033 .23400001 C .019000002 .23400001 0 .23400001 0 .214 C 0 .19400002 .019000002 .19400002 .034 .19400002 L .63100007 .19400002 M .632 0 C .646 0 .665 0 .665 .02000001 C .665 .040000008 .646 .040000008 .63100007 .040000008 L .034 .040000008 C .019000002 .040000008 0 .040000008 0 .02000001 C 0 0 .019000002 0 .033 0 L .632 0 Z "/>
</symbol>
<use xlink:href="#font_1_8" transform="matrix(9.9626,0,0,-9.9626,46.787908,62.682977)" fill="#000080"/>
<symbol id="font_2_1">
<path d="M .265 .32500003 L .362 .32500003 C .43700005 .32500003 .445 .30900003 .445 .28 C .445 .273 .445 .261 .43800003 .231 C .43600006 .22600001 .435 .22200002 .435 .22000002 C .435 .21200001 .44100005 .208 .44700004 .208 C .45700003 .208 .45700003 .21100001 .462 .22900002 L .517 .446 C .52000007 .45700003 .52000007 .45900003 .52000007 .462 C .52000007 .46400003 .51800009 .47300003 .508 .47300003 C .49800004 .47300003 .49700005 .46800003 .49300004 .45200003 C .47200007 .374 .449 .356 .36400003 .356 L .273 .356 L .337 .61 C .34600003 .64500007 .347 .64900007 .39100004 .64900007 L .52300009 .64900007 C .646 .64900007 .669 .61600008 .669 .53900006 C .669 .51600006 .669 .512 .66600009 .485 C .66400006 .47200004 .66400006 .47000004 .66400006 .467 C .66400006 .462 .66700008 .455 .67600008 .455 C .68700006 .455 .688 .46100004 .69000008 .48000003 L .71000006 .65300008 C .71300008 .68 .70800009 .68 .683 .68 L .193 .68 C .17300001 .68 .163 .68 .163 .66 C .163 .64900007 .172 .64900007 .19100002 .64900007 C .228 .64900007 .25599999 .64900007 .25599999 .63100007 C .25599999 .62700006 .25599999 .625 .251 .60700008 L .119 .078 C .109 .039 .10700001 .031000002 .027999998 .031000002 C .011 .031000002 0 .031000002 0 .012 C 0 0 .011999998 0 .015000001 0 C .044 0 .118 .003 .147 .003 C .18 .003 .263 0 .296 0 C .305 0 .31700004 0 .31700004 .019000002 C .31700004 .027 .311 .029000001 .311 .030000002 C .30800004 .031000002 .306 .031000002 .283 .031000002 C .26100005 .031000002 .25599999 .031000002 .23100002 .033 C .202 .036000004 .19900002 .040000004 .19900002 .053000004 C .19900002 .055000005 .19900002 .061000006 .20300001 .076000008 L .265 .32500003 Z "/>
</symbol>
<use xlink:href="#font_2_1" transform="matrix(9.9626,0,0,-9.9626,57.12558,64.008)" fill="#000080"/>
<symbol id="font_1_1">
<path d="M .23200003 .00999999 C .23200003 .012999982 .23200003 .014999986 .215 .03199999 C .09 .15799999 .058 .347 .058 .5 C .058 .674 .096 .84800007 .21900001 .97300007 C .23200003 .985 .23200003 .98700007 .23200003 .99 C .23200003 .99700006 .22800002 1 .222 1 C .21200001 1 .12200001 .93200007 .06299999 .805 C .012000002 .69500008 0 .584 0 .5 C 0 .422 .011 .301 .066 .188 C .126 .065 .21200001 0 .222 0 C .22800002 0 .23200003 .0029999912 .23200003 .00999999 Z "/>
</symbol>
<use xlink:href="#font_1_1" transform="matrix(9.9626,0,0,-9.9626,65.5233,66.49865)" fill="#000080"/>
<symbol id="font_2_2">
<path d="M .305 .31300003 C .311 .33900003 .334 .43100003 .404 .43100003 C .409 .43100003 .433 .43100003 .454 .418 C .426 .41300003 .40600003 .388 .40600003 .36400003 C .40600003 .34800003 .417 .32900004 .444 .32900004 C .46600003 .32900004 .498 .34700004 .498 .38700003 C .498 .43900005 .439 .45300005 .405 .45300005 C .347 .45300005 .312 .40000005 .3 .37700004 C .275 .44300003 .221 .45300005 .19200002 .45300005 C .08800001 .45300005 .031000002 .32400004 .031000002 .29900003 C .031000002 .28900004 .041 .28900004 .043000007 .28900004 C .051000008 .28900004 .054000006 .291 .056 .3 C .09 .40600003 .156 .43100003 .19000001 .43100003 C .209 .43100003 .244 .42200003 .244 .36400003 C .244 .33300004 .22700002 .26600004 .19000001 .126 C .17400001 .064 .13900002 .022000002 .095000009 .022000002 C .08900001 .022000002 .06600001 .022000002 .045 .035 C .07000001 .040000004 .09200001 .061 .09200001 .089 C .09200001 .116000007 .07000001 .124000009 .055000009 .124000009 C .025 .124000009 0 .098000008 0 .06600001 C 0 .020000002 .050000006 0 .094000007 0 C .16000001 0 .19600001 .07000001 .19900002 .076000008 C .21100001 .039 .24700003 0 .307 0 C .41 0 .467 .12900001 .467 .15400002 C .467 .16400002 .458 .16400002 .455 .16400002 C .446 .16400002 .444 .16000001 .442 .15300001 C .409 .046 .341 .022000002 .30900003 .022000002 C .27 .022000002 .254 .054 .254 .08800001 C .254 .11000001 .26 .13200002 .271 .17600002 L .305 .31300003 Z "/>
</symbol>
<use xlink:href="#font_2_2" transform="matrix(9.9626,0,0,-9.9626,68.69992,64.11759)" fill="#000080"/>
<symbol id="font_1_2">
<path d="M .232 .5 C .232 .578 .22100002 .699 .16600001 .81200006 C .106 .93500009 .020000004 1 .009999998 1 C .0040000008 1 0 .99600008 0 .99 C 0 .98700007 0 .985 .019000002 .967 C .117000009 .86800006 .174 .709 .174 .5 C .174 .329 .137 .153 .012999997 .026999996 C 0 .014999986 0 .012999982 0 .00999999 C 0 .003999993 .0040000008 0 .009999998 0 C .020000004 0 .11000001 .06799999 .169 .195 C .22 .305 .232 .416 .232 .5 Z "/>
</symbol>
<use xlink:href="#font_1_2" transform="matrix(9.9626,0,0,-9.9626,74.672878,66.49865)" fill="#000080"/>
<path transform="matrix(1,0,0,-1,9.686,174.485)" d="M 82.68465 145.24578 C 82.68465 146.34626 81.79257 147.23833 80.6921 147.23833 C 79.59163 147.23833 78.69954 146.34626 78.69954 145.24578 C 78.69954 144.14531 79.59163 143.25322 80.6921 143.25322 C 81.79257 143.25322 82.68465 144.14531 82.68465 145.24578 Z M 80.6921 145.24578 " fill="#ffffff"/>
<path transform="matrix(1,0,0,-1,9.686,174.485)" stroke-width="1" stroke-linecap="butt" stroke-miterlimit="10" stroke-linejoin="miter" fill="none" stroke="#000080" d="M 82.68465 145.24578 C 82.68465 146.34626 81.79257 147.23833 80.6921 147.23833 C 79.59163 147.23833 78.69954 146.34626 78.69954 145.24578 C 78.69954 144.14531 79.59163 143.25322 80.6921 143.25322 C 81.79257 143.25322 82.68465 144.14531 82.68465 145.24578 Z M 80.6921 145.24578 "/>
<path transform="matrix(1,0,0,-1,9.686,174.485)" d="M 114.96149 112.96893 C 114.96149 114.06941 114.06941 114.96149 112.96893 114.96149 C 111.86847 114.96149 110.97638 114.06941 110.97638 112.96893 C 110.97638 111.86847 111.86847 110.97638 112.96893 110.97638 C 114.06941 110.97638 114.96149 111.86847 114.96149 112.96893 Z M 112.96893 112.96893 " fill="#ffffff"/>
<path transform="matrix(1,0,0,-1,9.686,174.485)" stroke-width="1" stroke-linecap="butt" stroke-miterlimit="10" stroke-linejoin="miter" fill="none" stroke="#000080" d="M 114.96149 112.96893 C 114.96149 114.06941 114.06941 114.96149 112.96893 114.96149 C 111.86847 114.96149 110.97638 114.06941 110.97638 112.96893 C 110.97638 111.86847 111.86847 110.97638 112.96893 110.97638 C 114.06941 110.97638 114.96149 111.86847 114.96149 112.96893 Z M 112.96893 112.96893 "/>
<path transform="matrix(1,0,0,-1,9.686,174.485)" d="M 82.68465 16.13841 C 82.68465 17.23888 81.79257 18.13097 80.6921 18.13097 C 79.59163 18.13097 78.69954 17.23888 78.69954 16.13841 C 78.69954 15.03795 79.59163 14.14586 80.6921 14.14586 C 81.79257 14.14586 82.68465 15.03795 82.68465 16.13841 Z M 80.6921 16.13841 " fill="#ffffff"/>
<path transform="matrix(1,0,0,-1,9.686,174.485)" stroke-width="1" stroke-linecap="butt" stroke-miterlimit="10" stroke-linejoin="miter" fill="none" stroke="#000080" d="M 82.68465 16.13841 C 82.68465 17.23888 81.79257 18.13097 80.6921 18.13097 C 79.59163 18.13097 78.69954 17.23888 78.69954 16.13841 C 78.69954 15.03795 79.59163 14.14586 80.6921 14.14586 C 81.79257 14.14586 82.68465 15.03795 82.68465 16.13841 Z M 80.6921 16.13841 "/>
<path transform="matrix(1,0,0,-1,9.686,174.485)" d="M 50.4078 48.41525 C 50.4078 49.51573 49.51573 50.4078 48.41525 50.4078 C 47.31479 50.4078 46.4227 49.51573 46.4227 48.41525 C 46.4227 47.31479 47.31479 46.4227 48.41525 46.4227 C 49.51573 46.4227 50.4078 47.31479 50.4078 48.41525 Z M 48.41525 48.41525 " fill="#ffffff"/>
<path transform="matrix(1,0,0,-1,9.686,174.485)" stroke-width="1" stroke-linecap="butt" stroke-miterlimit="10" stroke-linejoin="miter" fill="none" stroke="#000080" d="M 50.4078 48.41525 C 50.4078 49.51573 49.51573 50.4078 48.41525 50.4078 C 47.31479 50.4078 46.4227 49.51573 46.4227 48.41525 C 46.4227 47.31479 47.31479 46.4227 48.41525 46.4227 C 49.51573 46.4227 50.4078 47.31479 50.4078 48.41525 Z M 48.41525 48.41525 "/>
<path transform="matrix(1,0,0,-1,9.686,174.485)" d="M 82.68465 80.6921 C 82.68465 81.79257 81.79257 82.68465 80.6921 82.68465 C 79.59163 82.68465 78.69954 81.79257 78.69954 80.6921 C 78.69954 79.59163 79.59163 78.69954 80.6921 78.69954 C 81.79257 78.69954 82.68465 79.59163 82.68465 80.6921 Z M 80.6921 80.6921 " fill="#000080"/>
<path transform="matrix(1,0,0,-1,9.686,174.485)" stroke-width="1" stroke-linecap="butt" stroke-miterlimit="10" stroke-linejoin="miter" fill="none" stroke="#000080" d="M 82.68465 80.6921 C 82.68465 81.79257 81.79257 82.68465 80.6921 82.68465 C 79.59163 82.68465 78.69954 81.79257 78.69954 80.6921 C 78.69954 79.59163 79.59163 78.69954 80.6921 78.69954 C 81.79257 78.69954 82.68465 79.59163 82.68465 80.6921 Z M 80.6921 80.6921 "/>
<path transform="matrix(1,0,0,-1,9.686,174.485)" d="M 147.23833 80.6921 C 147.23833 81.79257 146.34626 82.68465 145.24578 82.68465 C 144.14531 82.68465 143.25322 81.79257 143.25322 80.6921 C 143.25322 79.59163 144.14531 78.69954 145.24578 78.69954 C 146.34626 78.69954 147.23833 79.59163 147.23833 80.6921 Z M 145.24578 80.6921 " fill="#000080"/>
<path transform="matrix(1,0,0,-1,9.686,174.485)" stroke-width="1" stroke-linecap="butt" stroke-miterlimit="10" stroke-linejoin="miter" fill="none" stroke="#000080" d="M 147.23833 80.6921 C 147.23833 81.79257 146.34626 82.68465 145.24578 82.68465 C 144.14531 82.68465 143.25322 81.79257 143.25322 80.6921 C 143.25322 79.59163 144.14531 78.69954 145.24578 78.69954 C 146.34626 78.69954 147.23833 79.59163 147.23833 80.6921 Z M 145.24578 80.6921 "/>
<path transform="matrix(1,0,0,-1,9.686,174.485)" d="M 114.96149 129.10736 C 114.96149 130.20783 114.06941 131.09992 112.96893 131.09992 C 111.86847 131.09992 110.97638 130.20783 110.97638 129.10736 C 110.97638 128.00688 111.86847 127.1148 112.96893 127.1148 C 114.06941 127.1148 114.96149 128.00688 114.96149 129.10736 Z M 112.96893 129.10736 " fill="#000080"/>
<path transform="matrix(1,0,0,-1,9.686,174.485)" stroke-width="1" stroke-linecap="butt" stroke-miterlimit="10" stroke-linejoin="miter" fill="none" stroke="#000080" d="M 114.96149 129.10736 C 114.96149 130.20783 114.06941 131.09992 112.96893 131.09992 C 111.86847 131.09992 110.97638 130.20783 110.97638 129.10736 C 110.97638 128.00688 111.86847 127.1148 112.96893 127.1148 C 114.06941 127.1148 114.96149 128.00688 114.96149 129.10736 Z M 112.96893 129.10736 "/>
<path transform="matrix(1,0,0,-1,9.686,174.485)" d="M 18.13097 80.6921 C 18.13097 81.79257 17.23888 82.68465 16.13841 82.68465 C 15.03795 82.68465 14.14586 81.79257 14.14586 80.6921 C 14.14586 79.59163 15.03795 78.69954 16.13841 78.69954 C 17.23888 78.69954 18.13097 79.59163 18.13097 80.6921 Z M 16.13841 80.6921 " fill="#000080"/>
<path transform="matrix(1,0,0,-1,9.686,174.485)" stroke-width="1" stroke-linecap="butt" stroke-miterlimit="10" stroke-linejoin="miter" fill="none" stroke="#000080" d="M 18.13097 80.6921 C 18.13097 81.79257 17.23888 82.68465 16.13841 82.68465 C 15.03795 82.68465 14.14586 81.79257 14.14586 80.6921 C 14.14586 79.59163 15.03795 78.69954 16.13841 78.69954 C 17.23888 78.69954 18.13097 79.59163 18.13097 80.6921 Z M 16.13841 80.6921 "/>
<path transform="matrix(1,0,0,-1,9.686,174.485)" d="M 50.4078 32.27684 C 50.4078 33.3773 49.51573 34.2694 48.41525 34.2694 C 47.31479 34.2694 46.4227 33.3773 46.4227 32.27684 C 46.4227 31.17636 47.31479 30.28429 48.41525 30.28429 C 49.51573 30.28429 50.4078 31.17636 50.4078 32.27684 Z M 48.41525 32.27684 " fill="#000080"/>
<path transform="matrix(1,0,0,-1,9.686,174.485)" stroke-width="1" stroke-linecap="butt" stroke-miterlimit="10" stroke-linejoin="miter" fill="none" stroke="#000080" d="M 50.4078 32.27684 C 50.4078 33.3773 49.51573 34.2694 48.41525 34.2694 C 47.31479 34.2694 46.4227 33.3773 46.4227 32.27684 C 46.4227 31.17636 47.31479 30.28429 48.41525 30.28429 C 49.51573 30.28429 50.4078 31.17636 50.4078 32.27684 Z M 48.41525 32.27684 "/>
<use xlink:href="#font_2_2" transform="matrix(9.9626,0,0,-9.9626,174.90291,96.03559)"/>
<use xlink:href="#font_2_3" transform="matrix(9.9626,0,0,-9.9626,88.06291,9.652334)"/>
</svg>
