<?xml version="1.0" encoding="UTF-8" standalone="no"?>
<!DOCTYPE svg PUBLIC "-//W3C//DTD SVG 1.1//EN" "http://www.w3.org/Graphics/SVG/1.1/DTD/svg11.dtd">
<svg xmlns="http://www.w3.org/2000/svg" xmlns:xlink="http://www.w3.org/1999/xlink" version="1.1" width="183.628pt" height="181.431pt" viewBox="0 0 183.628 181.431">
<path transform="matrix(1,0,0,-1,9.686,174.485)" stroke-width="1" stroke-linecap="butt" stroke-miterlimit="10" stroke-linejoin="miter" fill="none" stroke="#bfbfbf" d="M 0 0 L 0 161.3842 M 16.13841 0 L 16.13841 161.3842 M 32.27684 0 L 32.27684 161.3842 M 48.41525 0 L 48.41525 161.3842 M 64.55368 0 L 64.55368 161.3842 M 96.83052 0 L 96.83052 161.3842 M 112.96893 0 L 112.96893 161.3842 M 129.10736 0 L 129.10736 161.3842 M 145.24578 0 L 145.24578 161.3842 M 161.3842 0 L 161.3842 161.3842 "/>
<path transform="matrix(1,0,0,-1,9.686,174.485)" stroke-width="1" stroke-linecap="butt" stroke-miterlimit="10" stroke-linejoin="miter" fill="none" stroke="#bfbfbf" d="M 0 0 L 161.3842 0 M 0 16.13841 L 161.3842 16.13841 M 0 32.27684 L 161.3842 32.27684 M 0 48.41525 L 161.3842 48.41525 M 0 64.55368 L 161.3842 64.55368 M 0 96.83052 L 161.3842 96.83052 M 0 112.96893 L 161.3842 112.96893 M 0 129.10736 L 161.3842 129.10736 M 0 145.24578 L 161.3842 145.24578 M 0 161.3842 L 161.3842 161.3842 "/>
<path transform="matrix(1,0,0,-1,9.686,174.485)" stroke-width="1" stroke-linecap="butt" stroke-miterlimit="10" stroke-linejoin="miter" fill="none" stroke="#808080" d="M 0 78.56621 L 0 82.81796 M 16.13841 78.56621 L 16.13841 82.81796 M 32.27684 78.56621 L 32.27684 82.81796 M 48.41525 78.56621 L 48.41525 82.81796 M 64.55368 78.56621 L 64.55368 82.81796 M 96.83052 78.56621 L 96.83052 82.81796 M 112.96893 78.56621 L 112.96893 82.81796 M 129.10736 78.56621 L 129.10736 82.81796 M 145.24578 78.56621 L 145.24578 82.81796 M 161.3842 78.56621 L 161.3842 82.81796 "/>
<path transform="matrix(1,0,0,-1,9.686,174.485)" stroke-width="1" stroke-linecap="butt" stroke-miterlimit="10" stroke-linejoin="miter" fill="none" stroke="#808080" d="M 78.56621 0 L 82.81796 0 M 78.56621 16.13841 L 82.81796 16.13841 M 78.56621 32.27684 L 82.81796 32.27684 M 78.56621 48.41525 L 82.81796 48.41525 M 78.56621 64.55368 L 82.81796 64.55368 M 78.56621 96.83052 L 82.81796 96.83052 M 78.56621 112.96893 L 82.81796 112.96893 M 78.56621 129.10736 L 82.81796 129.10736 M 78.56621 145.24578 L 82.81796 145.24578 M 78.56621 161.3842 L 82.81796 161.3842 "/>
<path transform="matrix(1,0,0,-1,9.686,174.485)" stroke-width="1" stroke-linecap="butt" stroke-miterlimit="10" stroke-linejoin="miter" fill="none" stroke="#000000" d="M 0 80.6921 L 159.39168 80.6921 "/>
<path transform="matrix(1,0,0,-1,169.07769,93.7929)" d="M 1.99252 0 L -1.19551 1.59401 L 0 0 L -1.19551 -1.59401 "/>
<path transform="matrix(1,0,0,-1,9.686,174.485)" stroke-width="1" stroke-linecap="butt" stroke-miterlimit="10" stroke-linejoin="miter" fill="none" stroke="#000000" d="M 80.6921 0 L 80.6921 159.39168 "/>
<path transform="matrix(0,-1,-1,-0,90.3781,15.093323)" d="M 1.99252 0 L -1.19551 1.59401 L 0 0 L -1.19551 -1.59401 "/>
<symbol id="font_0_1">
<path d="M .57600006 0 C .59300008 0 .611 0 .611 .019999996 C .611 .040000008 .59300008 .040000008 .57600006 .040000008 L .035000005 .040000008 C .018 .040000008 0 .040000008 0 .019999996 C 0 0 .018 0 .035000005 0 L .57600006 0 Z "/>
</symbol>
<use xlink:href="#font_0_1" transform="matrix(9.9626,0,0,-9.9626,4.147896,103.5686)"/>
<symbol id="font_1_7">
<path d="M .39900003 .223 C .39900003 .34200005 .317 .44200004 .209 .44200004 C .16100002 .44200004 .118000019 .42600004 .082 .39100004 L .082 .586 C .10200001 .58000007 .135 .573 .16700001 .573 C .29 .573 .36 .66400006 .36 .67700007 C .36 .683 .357 .688 .35 .688 C .349 .688 .347 .688 .342 .68500009 C .322 .67600008 .273 .656 .20600002 .656 C .16600001 .656 .120000008 .66300007 .073 .6840001 C .065 .68700006 .06300001 .68700006 .061000009 .68700006 C .051000004 .68700006 .051000004 .679 .051000004 .66300007 L .051000004 .36700005 C .051000004 .34900005 .051000004 .34100003 .065 .34100003 C .07200001 .34100003 .074 .34400005 .07800001 .35000003 C .08900002 .36600004 .12600002 .42000006 .207 .42000006 C .259 .42000006 .284 .37400005 .292 .35600005 C .308 .31900005 .31 .28000004 .31 .23 C .31 .19500001 .31 .135 .286 .093 C .262 .054000006 .22500001 .028 .17900002 .028 C .106000009 .028 .049000008 .08100001 .032 .14000002 C .035 .13900002 .038000008 .13800001 .049000008 .13800001 C .082 .13800001 .09900001 .163 .09900001 .187 C .09900001 .21100001 .082 .23600002 .049000008 .23600002 C .035 .23600002 0 .22900002 0 .18300002 C 0 .097 .069000009 0 .18100001 0 C .297 0 .39900003 .096 .39900003 .223 Z "/>
</symbol>
<use xlink:href="#font_1_7" transform="matrix(9.9626,0,0,-9.9626,11.56713,106.07918)"/>
<use xlink:href="#font_0_1" transform="matrix(9.9626,0,0,-9.9626,20.285897,103.5686)"/>
<symbol id="font_1_6">
<path d="M .266 .165 L .266 .078 C .266 .042000005 .26400004 .031000002 .19000001 .031000002 L .16900002 .031000002 L .16900002 0 C .21000001 .003 .26200003 .003 .30400003 .003 C .34600003 .003 .39900003 .003 .44000004 0 L .44000004 .031000002 L .41900004 .031000002 C .34500004 .031000002 .34300003 .042000005 .34300003 .078 L .34300003 .165 L .44300003 .165 L .44300003 .19600001 L .34300003 .19600001 L .34300003 .651 C .34300003 .671 .34300003 .67700007 .32700003 .67700007 C .31800003 .67700007 .31500004 .67700007 .307 .665 L 0 .19600001 L 0 .165 L .266 .165 M .272 .19600001 L .028 .19600001 L .272 .569 L .272 .19600001 Z "/>
</symbol>
<use xlink:href="#font_1_6" transform="matrix(9.9626,0,0,-9.9626,27.486954,105.86)"/>
<use xlink:href="#font_0_1" transform="matrix(9.9626,0,0,-9.9626,36.423898,103.5686)"/>
<symbol id="font_1_5">
<path d="M .24800003 .37400005 C .33 .40100003 .388 .47100006 .388 .55 C .388 .632 .3 .688 .204 .688 C .10300001 .688 .027000003 .628 .027000003 .55200007 C .027000003 .519 .049000004 .5 .078 .5 C .109000008 .5 .12900001 .522 .12900001 .55100008 C .12900001 .6010001 .082 .6010001 .067 .6010001 C .098 .65000006 .164 .66300007 .20000002 .66300007 C .24100003 .66300007 .29600004 .64100006 .29600004 .55100008 C .29600004 .53900006 .29400004 .48100005 .268 .43700005 C .238 .38900004 .204 .38600005 .17900002 .38500003 C .171 .38400004 .14700002 .38200004 .14000002 .38200004 C .132 .38100005 .125 .38000003 .125 .37000004 C .125 .35900004 .132 .35900004 .14900002 .35900004 L .19300002 .35900004 C .275 .35900004 .312 .29100005 .312 .193 C .312 .057000005 .24300003 .028 .199 .028 C .15600002 .028 .081 .045 .046000005 .104 C .081 .09900001 .11200001 .12100001 .11200001 .15900001 C .11200001 .19500001 .085 .215 .056 .215 C .031999999 .215 0 .201 0 .157 C 0 .06600001 .093 0 .20200002 0 C .32400004 0 .41500003 .091000009 .41500003 .193 C .41500003 .27500005 .35200004 .35300005 .24800003 .37400005 Z "/>
</symbol>
<use xlink:href="#font_1_5" transform="matrix(9.9626,0,0,-9.9626,43.76443,106.07918)"/>
<use xlink:href="#font_0_1" transform="matrix(9.9626,0,0,-9.9626,52.561899,103.5686)"/>
<symbol id="font_1_4">
<path d="M .07700001 .07700001 L .18300002 .18 C .33900003 .31800003 .39900003 .372 .39900003 .47200004 C .39900003 .586 .30900003 .666 .18700002 .666 C .074 .666 0 .574 0 .485 C 0 .42900003 .05 .42900003 .053000008 .42900003 C .07000001 .42900003 .105000007 .441 .105000007 .48200003 C .105000007 .508 .08700001 .53400006 .052000006 .53400006 C .044000005 .53400006 .042000008 .53400006 .039 .53300008 C .062000004 .59800007 .11600001 .63500007 .17400001 .63500007 C .26500003 .63500007 .308 .554 .308 .47200004 C .308 .39200003 .25800003 .31300003 .20300003 .25100003 L .011000004 .037 C 0 .026 0 .024 0 0 L .37100003 0 L .39900003 .17400001 L .374 .17400001 C .36900003 .14400001 .36200003 .1 .352 .085 C .345 .07700001 .279 .07700001 .257 .07700001 L .07700001 .07700001 Z "/>
</symbol>
<use xlink:href="#font_1_4" transform="matrix(9.9626,0,0,-9.9626,59.982133,105.86)"/>
<use xlink:href="#font_0_1" transform="matrix(9.9626,0,0,-9.9626,68.6999,103.5686)"/>
<symbol id="font_1_3">
<path d="M .205 .64000007 C .205 .66400006 .205 .666 .18200003 .666 C .120000008 .60200008 .032000007 .60200008 0 .60200008 L 0 .57100006 C .020000004 .57100006 .07900001 .57100006 .13100001 .597 L .13100001 .079 C .13100001 .043 .128 .031000002 .038000004 .031000002 L .0060000049 .031000002 L .0060000049 0 C .04100001 .003 .128 .003 .168 .003 C .20800002 .003 .29500003 .003 .33000005 0 L .33000005 .031000002 L .29800005 .031000002 C .20800002 .031000002 .205 .042000005 .205 .079 L .205 .64000007 Z "/>
</symbol>
<use xlink:href="#font_1_3" transform="matrix(9.9626,0,0,-9.9626,76.508678,105.86)"/>
<use xlink:href="#font_1_3" transform="matrix(9.9626,0,0,-9.9626,104.91067,105.86)"/>
<use xlink:href="#font_1_4" transform="matrix(9.9626,0,0,-9.9626,120.660129,105.86)"/>
<use xlink:href="#font_1_5" transform="matrix(9.9626,0,0,-9.9626,136.71942,106.07918)"/>
<use xlink:href="#font_1_6" transform="matrix(9.9626,0,0,-9.9626,152.71796,105.86)"/>
<use xlink:href="#font_1_7" transform="matrix(9.9626,0,0,-9.9626,169.07514,106.07918)"/>
<use xlink:href="#font_0_1" transform="matrix(9.9626,0,0,-9.9626,72.827899,174.9886)"/>
<use xlink:href="#font_1_7" transform="matrix(9.9626,0,0,-9.9626,80.24813,177.49918)"/>
<use xlink:href="#font_0_1" transform="matrix(9.9626,0,0,-9.9626,72.827899,158.8506)"/>
<use xlink:href="#font_1_6" transform="matrix(9.9626,0,0,-9.9626,80.02895,161.142)"/>
<use xlink:href="#font_0_1" transform="matrix(9.9626,0,0,-9.9626,72.827899,142.7126)"/>
<use xlink:href="#font_1_5" transform="matrix(9.9626,0,0,-9.9626,80.16843,145.22318)"/>
<use xlink:href="#font_0_1" transform="matrix(9.9626,0,0,-9.9626,72.827899,126.5746)"/>
<use xlink:href="#font_1_4" transform="matrix(9.9626,0,0,-9.9626,80.24813,128.866)"/>
<use xlink:href="#font_0_1" transform="matrix(9.9626,0,0,-9.9626,72.827899,110.4356)"/>
<use xlink:href="#font_1_3" transform="matrix(9.9626,0,0,-9.9626,80.63667,112.727)"/>
<use xlink:href="#font_1_3" transform="matrix(9.9626,0,0,-9.9626,80.63667,80.866)"/>
<use xlink:href="#font_1_4" transform="matrix(9.9626,0,0,-9.9626,80.24813,64.728)"/>
<use xlink:href="#font_1_5" transform="matrix(9.9626,0,0,-9.9626,80.16843,48.809175)"/>
<use xlink:href="#font_1_6" transform="matrix(9.9626,0,0,-9.9626,80.02895,32.451005)"/>
<use xlink:href="#font_1_7" transform="matrix(9.9626,0,0,-9.9626,80.24813,16.53218)"/>
<path transform="matrix(1,0,0,-1,9.686,174.485)" stroke-width="1.19553" stroke-linecap="butt" stroke-miterlimit="10" stroke-linejoin="miter" fill="none" stroke="#000080" d="M 48.41525 48.41525 L 80.6921 56.48447 "/>
<path transform="matrix(1,0,0,-1,9.686,174.485)" stroke-width="1.19553" stroke-linecap="butt" stroke-miterlimit="10" stroke-linejoin="miter" fill="none" stroke="#000080" d="M 80.6921 64.55399 L 82.03696 64.89369 L 83.3818 65.241 L 84.72667 65.5962 L 86.07155 65.95996 L 87.4164 66.3331 L 88.76126 66.71605 L 90.10612 67.10999 L 91.45099 67.51538 L 92.79585 67.9337 L 94.14072 68.36638 L 95.48558 68.81485 L 96.83044 69.28078 L 98.1753 69.76654 L 99.52017 70.27505 L 100.86502 70.80972 L 102.20988 71.3749 L 103.55476 71.97653 L 104.89961 72.62296 L 106.24448 73.3259 L 107.58934 74.10355 L 108.9342 74.9862 L 110.27907 76.03323 L 111.62392 77.39769 L 112.9688 80.65901 "/>
<symbol id="font_2_3">
<path d="M .45700003 .586 C .461 .6 .461 .602 .461 .609 C .461 .62700006 .447 .63600006 .432 .63600006 C .42200003 .63600006 .40600003 .63 .397 .615 C .395 .61 .387 .579 .38300003 .561 C .37600003 .535 .36900003 .508 .363 .48100005 L .318 .301 C .314 .286 .271 .21600002 .20500002 .21600002 C .15400002 .21600002 .143 .26000003 .143 .29700003 C .143 .34300003 .16000001 .40500004 .194 .49300004 C .21000001 .53400006 .21400002 .545 .21400002 .56500008 C .21400002 .61 .18200001 .6470001 .13200002 .6470001 C .037 .6470001 0 .50200006 0 .49300004 C 0 .48300005 .01 .48300005 .012 .48300005 C .022000002 .48300005 .023 .485 .028000003 .50100007 C .055000009 .595 .095000009 .625 .12900001 .625 C .13700001 .625 .15400002 .625 .15400002 .59300008 C .15400002 .568 .14400001 .54200008 .13700001 .523 C .097 .41700004 .079 .36 .079 .31300003 C .079 .224 .142 .194 .201 .194 C .24000003 .194 .274 .21100001 .30200003 .23900002 C .289 .187 .277 .13800001 .237 .08500001 C .21100001 .051 .17300001 .022 .127 .022 C .113000009 .022 .068 .025000006 .051000008 .06400001 C .067 .06400001 .080000009 .06400001 .094000007 .076000008 C .104 .08500001 .11400001 .098000008 .11400001 .117000009 C .11400001 .148 .087000008 .15200001 .07700001 .15200001 C .054000006 .15200001 .021 .136 .021 .087000008 C .021 .037 .065000008 0 .127 0 C .23 0 .333 .091000009 .361 .20400001 L .45700003 .586 Z "/>
</symbol>
<use xlink:href="#font_2_3" transform="matrix(9.9626,0,0,-9.9626,39.850915,66.05034)" fill="#000080"/>
<symbol id="font_1_8">
<path d="M .63100007 .19400002 C .646 .19400002 .665 .19400002 .665 .214 C .665 .23400001 .646 .23400001 .632 .23400001 L .033 .23400001 C .019000002 .23400001 0 .23400001 0 .214 C 0 .19400002 .019000002 .19400002 .034 .19400002 L .63100007 .19400002 M .632 0 C .646 0 .665 0 .665 .02000001 C .665 .040000008 .646 .040000008 .63100007 .040000008 L .034 .040000008 C .019000002 .040000008 0 .040000008 0 .02000001 C 0 0 .019000002 0 .033 0 L .632 0 Z "/>
</symbol>
<use xlink:href="#font_1_8" transform="matrix(9.9626,0,0,-9.9626,48.128908,62.682977)" fill="#000080"/>
<symbol id="font_2_1">
<path d="M .45600004 .582 C .45700003 .58800008 .45900006 .59300008 .45900006 .6 C .45900006 .61700007 .44700004 .62700006 .43 .62700006 C .42000003 .62700006 .393 .62 .389 .584 C .371 .62100008 .33600004 .6470001 .296 .6470001 C .18200001 .6470001 .058000007 .507 .058000007 .36300005 C .058000007 .26400004 .119 .20500002 .19100002 .20500002 C .25 .20500002 .297 .252 .30700005 .263 L .30800004 .26200003 C .287 .17300001 .27500005 .132 .27500005 .13000001 C .27100004 .12100001 .237 .022 .13100001 .022 C .112 .022 .079 .023000002 .051 .032000007 C .081 .04100001 .09200001 .067 .09200001 .08400001 C .09200001 .10000001 .081 .11900001 .054000006 .11900001 C .032 .11900001 0 .10100001 0 .061000006 C 0 .02000001 .037 0 .133 0 C .25800003 0 .33000005 .07800001 .34500004 .13800001 L .45600004 .582 M .32600004 .333 C .32 .307 .297 .282 .27500005 .263 C .254 .24500002 .223 .22700002 .194 .22700002 C .14400001 .22700002 .12900001 .279 .12900001 .319 C .12900001 .367 .158 .485 .185 .536 C .21200001 .58500006 .255 .625 .297 .625 C .36300005 .625 .37700004 .544 .37700004 .53900006 C .37700004 .53400006 .375 .528 .374 .52400007 L .32600004 .333 Z "/>
</symbol>
<use xlink:href="#font_2_1" transform="matrix(9.9626,0,0,-9.9626,58.23644,66.05034)" fill="#000080"/>
<symbol id="font_1_1">
<path d="M .23200003 .00999999 C .23200003 .012999982 .23200003 .014999986 .215 .03199999 C .09 .15799999 .058 .347 .058 .5 C .058 .674 .096 .84800007 .21900001 .97300007 C .23200003 .985 .23200003 .98700007 .23200003 .99 C .23200003 .99700006 .22800002 1 .222 1 C .21200001 1 .12200001 .93200007 .06299999 .805 C .012000002 .69500008 0 .584 0 .5 C 0 .422 .011 .301 .066 .188 C .126 .065 .21200001 0 .222 0 C .22800002 0 .23200003 .0029999912 .23200003 .00999999 Z "/>
</symbol>
<use xlink:href="#font_1_1" transform="matrix(9.9626,0,0,-9.9626,64.1823,66.49865)" fill="#000080"/>
<symbol id="font_2_2">
<path d="M .305 .31300003 C .311 .33900003 .334 .43100003 .404 .43100003 C .409 .43100003 .433 .43100003 .454 .418 C .426 .41300003 .40600003 .388 .40600003 .36400003 C .40600003 .34800003 .417 .32900004 .444 .32900004 C .46600003 .32900004 .498 .34700004 .498 .38700003 C .498 .43900005 .439 .45300005 .405 .45300005 C .347 .45300005 .312 .40000005 .3 .37700004 C .275 .44300003 .221 .45300005 .19200002 .45300005 C .08800001 .45300005 .031000002 .32400004 .031000002 .29900003 C .031000002 .28900004 .041 .28900004 .043000007 .28900004 C .051000008 .28900004 .054000006 .291 .056 .3 C .09 .40600003 .156 .43100003 .19000001 .43100003 C .209 .43100003 .244 .42200003 .244 .36400003 C .244 .33300004 .22700002 .26600004 .19000001 .126 C .17400001 .064 .13900002 .022000002 .095000009 .022000002 C .08900001 .022000002 .06600001 .022000002 .045 .035 C .07000001 .040000004 .09200001 .061 .09200001 .089 C .09200001 .116000007 .07000001 .124000009 .055000009 .124000009 C .025 .124000009 0 .098000008 0 .06600001 C 0 .020000002 .050000006 0 .094000007 0 C .16000001 0 .19600001 .07000001 .19900002 .076000008 C .21100001 .039 .24700003 0 .307 0 C .41 0 .467 .12900001 .467 .15400002 C .467 .16400002 .458 .16400002 .455 .16400002 C .446 .16400002 .444 .16000001 .442 .15300001 C .409 .046 .341 .022000002 .30900003 .022000002 C .27 .022000002 .254 .054 .254 .08800001 C .254 .11000001 .26 .13200002 .271 .17600002 L .305 .31300003 Z "/>
</symbol>
<use xlink:href="#font_2_2" transform="matrix(9.9626,0,0,-9.9626,67.35992,64.11759)" fill="#000080"/>
<symbol id="font_1_2">
<path d="M .232 .5 C .232 .578 .22100002 .699 .16600001 .81200006 C .106 .93500009 .020000004 1 .009999998 1 C .0040000008 1 0 .99600008 0 .99 C 0 .98700007 0 .985 .019000002 .967 C .117000009 .86800006 .174 .709 .174 .5 C .174 .329 .137 .153 .012999997 .026999996 C 0 .014999986 0 .012999982 0 .00999999 C 0 .003999993 .0040000008 0 .009999998 0 C .020000004 0 .11000001 .06799999 .169 .195 C .22 .305 .232 .416 .232 .5 Z "/>
</symbol>
<use xlink:href="#font_1_2" transform="matrix(9.9626,0,0,-9.9626,73.33287,66.49865)" fill="#000080"/>
<path transform="matrix(1,0,0,-1,9.686,174.485)" d="M 50.4078 48.41525 C 50.4078 49.51573 49.51573 50.4078 48.41525 50.4078 C 47.31479 50.4078 46.4227 49.51573 46.4227 48.41525 C 46.4227 47.31479 47.31479 46.4227 48.41525 46.4227 C 49.51573 46.4227 50.4078 47.31479 50.4078 48.41525 Z M 48.41525 48.41525 " fill="#ffffff"/>
<path transform="matrix(1,0,0,-1,9.686,174.485)" stroke-width="1" stroke-linecap="butt" stroke-miterlimit="10" stroke-linejoin="miter" fill="none" stroke="#000080" d="M 50.4078 48.41525 C 50.4078 49.51573 49.51573 50.4078 48.41525 50.4078 C 47.31479 50.4078 46.4227 49.51573 46.4227 48.41525 C 46.4227 47.31479 47.31479 46.4227 48.41525 46.4227 C 49.51573 46.4227 50.4078 47.31479 50.4078 48.41525 Z M 48.41525 48.41525 "/>
<path transform="matrix(1,0,0,-1,9.686,174.485)" d="M 82.68465 64.55368 C 82.68465 65.65414 81.79257 66.54623 80.6921 66.54623 C 79.59163 66.54623 78.69954 65.65414 78.69954 64.55368 C 78.69954 63.4532 79.59163 62.56113 80.6921 62.56113 C 81.79257 62.56113 82.68465 63.4532 82.68465 64.55368 Z M 80.6921 64.55368 " fill="#ffffff"/>
<path transform="matrix(1,0,0,-1,9.686,174.485)" stroke-width="1" stroke-linecap="butt" stroke-miterlimit="10" stroke-linejoin="miter" fill="none" stroke="#000080" d="M 82.68465 64.55368 C 82.68465 65.65414 81.79257 66.54623 80.6921 66.54623 C 79.59163 66.54623 78.69954 65.65414 78.69954 64.55368 C 78.69954 63.4532 79.59163 62.56113 80.6921 62.56113 C 81.79257 62.56113 82.68465 63.4532 82.68465 64.55368 Z M 80.6921 64.55368 "/>
<path transform="matrix(1,0,0,-1,9.686,174.485)" d="M 50.4078 80.6921 C 50.4078 81.79257 49.51573 82.68465 48.41525 82.68465 C 47.31479 82.68465 46.4227 81.79257 46.4227 80.6921 C 46.4227 79.59163 47.31479 78.69954 48.41525 78.69954 C 49.51573 78.69954 50.4078 79.59163 50.4078 80.6921 Z M 48.41525 80.6921 " fill="#000080"/>
<path transform="matrix(1,0,0,-1,9.686,174.485)" stroke-width="1" stroke-linecap="butt" stroke-miterlimit="10" stroke-linejoin="miter" fill="none" stroke="#000080" d="M 50.4078 80.6921 C 50.4078 81.79257 49.51573 82.68465 48.41525 82.68465 C 47.31479 82.68465 46.4227 81.79257 46.4227 80.6921 C 46.4227 79.59163 47.31479 78.69954 48.41525 78.69954 C 49.51573 78.69954 50.4078 79.59163 50.4078 80.6921 Z M 48.41525 80.6921 "/>
<path transform="matrix(1,0,0,-1,9.686,174.485)" d="M 82.68465 56.48447 C 82.68465 57.58493 81.79257 58.47702 80.6921 58.47702 C 79.59163 58.47702 78.69954 57.58493 78.69954 56.48447 C 78.69954 55.38399 79.59163 54.49191 80.6921 54.49191 C 81.79257 54.49191 82.68465 55.38399 82.68465 56.48447 Z M 80.6921 56.48447 " fill="#000080"/>
<path transform="matrix(1,0,0,-1,9.686,174.485)" stroke-width="1" stroke-linecap="butt" stroke-miterlimit="10" stroke-linejoin="miter" fill="none" stroke="#000080" d="M 82.68465 56.48447 C 82.68465 57.58493 81.79257 58.47702 80.6921 58.47702 C 79.59163 58.47702 78.69954 57.58493 78.69954 56.48447 C 78.69954 55.38399 79.59163 54.49191 80.6921 54.49191 C 81.79257 54.49191 82.68465 55.38399 82.68465 56.48447 Z M 80.6921 56.48447 "/>
<path transform="matrix(1,0,0,-1,9.686,174.485)" d="M 114.96149 80.6921 C 114.96149 81.79257 114.06941 82.68465 112.96893 82.68465 C 111.86847 82.68465 110.97638 81.79257 110.97638 80.6921 C 110.97638 79.59163 111.86847 78.69954 112.96893 78.69954 C 114.06941 78.69954 114.96149 79.59163 114.96149 80.6921 Z M 112.96893 80.6921 " fill="#000080"/>
<path transform="matrix(1,0,0,-1,9.686,174.485)" stroke-width="1" stroke-linecap="butt" stroke-miterlimit="10" stroke-linejoin="miter" fill="none" stroke="#000080" d="M 114.96149 80.6921 C 114.96149 81.79257 114.06941 82.68465 112.96893 82.68465 C 111.86847 82.68465 110.97638 81.79257 110.97638 80.6921 C 110.97638 79.59163 111.86847 78.69954 112.96893 78.69954 C 114.06941 78.69954 114.96149 79.59163 114.96149 80.6921 Z M 112.96893 80.6921 "/>
<use xlink:href="#font_2_2" transform="matrix(9.9626,0,0,-9.9626,174.90291,96.03559)"/>
<use xlink:href="#font_2_3" transform="matrix(9.9626,0,0,-9.9626,88.06291,9.652334)"/>
</svg>
