<?xml version="1.0" encoding="UTF-8" standalone="no"?>
<!DOCTYPE svg PUBLIC "-//W3C//DTD SVG 1.1//EN" "http://www.w3.org/Graphics/SVG/1.1/DTD/svg11.dtd">
<svg xmlns="http://www.w3.org/2000/svg" xmlns:xlink="http://www.w3.org/1999/xlink" version="1.1" width="312.944pt" height="110.66pt" viewBox="0 0 312.944 110.66">
<path transform="matrix(1,0,0,-1,44.863,110.461009)" stroke-width="1" stroke-linecap="butt" stroke-miterlimit="10" stroke-linejoin="miter" fill="none" stroke="#808080" d="M 48.63416 35.06252 L 48.63416 39.31435 M 97.26833 35.06252 L 97.26833 39.31435 M 145.9025 35.06252 L 145.9025 39.31435 M 194.53667 35.06252 L 194.53667 39.31435 "/>
<path transform="matrix(1,0,0,-1,44.863,110.461009)" stroke-width="1" stroke-linecap="butt" stroke-miterlimit="10" stroke-linejoin="miter" fill="none" stroke="#808080" d="M -2.1259 16.5282 L 2.1259 16.5282 M -2.1259 33.0564 L 2.1259 33.0564 M -2.1259 49.5846 L 2.1259 49.5846 M -2.1259 66.1128 L 2.1259 66.1128 M -2.1259 82.64099 L 2.1259 82.64099 "/>
<path transform="matrix(1,0,0,-1,44.863,110.461009)" stroke-width="1" stroke-linecap="butt" stroke-miterlimit="10" stroke-linejoin="miter" fill="none" stroke="#000000" d="M 0 37.18845 L 241.17832 37.18845 "/>
<path transform="matrix(1,0,0,-1,286.04133,73.27255)" d="M 1.99252 0 L -1.19551 1.59401 L 0 0 L -1.19551 -1.59401 "/>
<path transform="matrix(1,0,0,-1,44.863,110.461009)" stroke-width="1" stroke-linecap="butt" stroke-miterlimit="10" stroke-linejoin="miter" fill="none" stroke="#000000" d="M 0 0 L 0 97.17667 "/>
<path transform="matrix(0,-1,-1,-0,44.863,13.28434)" d="M 1.99252 0 L -1.19551 1.59401 L 0 0 L -1.19551 -1.59401 "/>
<symbol id="font_0_1">
<path d="M .205 .64000007 C .205 .66400006 .205 .666 .18200003 .666 C .120000008 .60200008 .032000007 .60200008 0 .60200008 L 0 .57100006 C .020000004 .57100006 .07900001 .57100006 .13100001 .597 L .13100001 .079 C .13100001 .043 .128 .031000002 .038000004 .031000002 L .0060000049 .031000002 L .0060000049 0 C .04100001 .003 .128 .003 .168 .003 C .20800002 .003 .29500003 .003 .33000005 0 L .33000005 .031000002 L .29800005 .031000002 C .20800002 .031000002 .205 .042000005 .205 .079 L .205 .64000007 Z "/>
</symbol>
<use xlink:href="#font_0_1" transform="matrix(9.9626,0,0,-9.9626,91.89267,85.41301)"/>
<symbol id="font_0_2">
<path d="M .07700001 .07700001 L .18300002 .18 C .33900003 .31800003 .39900003 .372 .39900003 .47200004 C .39900003 .586 .30900003 .666 .18700002 .666 C .074 .666 0 .574 0 .485 C 0 .42900003 .05 .42900003 .053000008 .42900003 C .07000001 .42900003 .105000007 .441 .105000007 .48200003 C .105000007 .508 .08700001 .53400006 .052000006 .53400006 C .044000005 .53400006 .042000008 .53400006 .039 .53300008 C .062000004 .59800007 .11600001 .63500007 .17400001 .63500007 C .26500003 .63500007 .308 .554 .308 .47200004 C .308 .39200003 .25800003 .31300003 .20300003 .25100003 L .011000004 .037 C 0 .026 0 .024 0 0 L .37100003 0 L .39900003 .17400001 L .374 .17400001 C .36900003 .14400001 .36200003 .1 .352 .085 C .345 .07700001 .279 .07700001 .257 .07700001 L .07700001 .07700001 Z "/>
</symbol>
<use xlink:href="#font_0_2" transform="matrix(9.9626,0,0,-9.9626,140.13713,85.41301)"/>
<symbol id="font_0_3">
<path d="M .24800003 .37400005 C .33 .40100003 .388 .47100006 .388 .55 C .388 .632 .3 .688 .204 .688 C .10300001 .688 .027000003 .628 .027000003 .55200007 C .027000003 .519 .049000004 .5 .078 .5 C .109000008 .5 .12900001 .522 .12900001 .55100008 C .12900001 .6010001 .082 .6010001 .067 .6010001 C .098 .65000006 .164 .66300007 .20000002 .66300007 C .24100003 .66300007 .29600004 .64100006 .29600004 .55100008 C .29600004 .53900006 .29400004 .48100005 .268 .43700005 C .238 .38900004 .204 .38600005 .17900002 .38500003 C .171 .38400004 .14700002 .38200004 .14000002 .38200004 C .132 .38100005 .125 .38000003 .125 .37000004 C .125 .35900004 .132 .35900004 .14900002 .35900004 L .19300002 .35900004 C .275 .35900004 .312 .29100005 .312 .193 C .312 .057000005 .24300003 .028 .199 .028 C .15600002 .028 .081 .045 .046000005 .104 C .081 .09900001 .11200001 .12100001 .11200001 .15900001 C .11200001 .19500001 .085 .215 .056 .215 C .031999999 .215 0 .201 0 .157 C 0 .06600001 .093 0 .20200002 0 C .32400004 0 .41500003 .091000009 .41500003 .193 C .41500003 .27500005 .35200004 .35300005 .24800003 .37400005 Z "/>
</symbol>
<use xlink:href="#font_0_3" transform="matrix(9.9626,0,0,-9.9626,188.69144,85.63219)"/>
<symbol id="font_0_4">
<path d="M .266 .165 L .266 .078 C .266 .042000005 .26400004 .031000002 .19000001 .031000002 L .16900002 .031000002 L .16900002 0 C .21000001 .003 .26200003 .003 .30400003 .003 C .34600003 .003 .39900003 .003 .44000004 0 L .44000004 .031000002 L .41900004 .031000002 C .34500004 .031000002 .34300003 .042000005 .34300003 .078 L .34300003 .165 L .44300003 .165 L .44300003 .19600001 L .34300003 .19600001 L .34300003 .651 C .34300003 .671 .34300003 .67700007 .32700003 .67700007 C .31800003 .67700007 .31500004 .67700007 .307 .665 L 0 .19600001 L 0 .165 L .266 .165 M .272 .19600001 L .028 .19600001 L .272 .569 L .272 .19600001 Z "/>
</symbol>
<use xlink:href="#font_0_4" transform="matrix(9.9626,0,0,-9.9626,237.18495,85.41301)"/>
<symbol id="font_1_1">
<path d="M .33300004 .38900004 C .31500004 .42600004 .286 .45300005 .24100001 .45300005 C .124 .45300005 0 .30600003 0 .16000001 C 0 .06600001 .055000005 0 .133 0 C .153 0 .20300001 .0040000008 .263 .075 C .27100004 .033000005 .30600003 0 .35400004 0 C .38900004 0 .41200004 .023000002 .42800004 .055000005 C .44500003 .091000009 .45800004 .15200001 .45800004 .15400002 C .45800004 .16400002 .44900004 .16400002 .44600005 .16400002 C .43600003 .16400002 .43500004 .16000001 .43200005 .14600002 C .41500003 .081 .397 .022000002 .35600005 .022000002 C .32900004 .022000002 .32600004 .048 .32600004 .068 C .32600004 .09 .32800005 .098000008 .33900003 .14200002 C .35000003 .18400002 .35200004 .19400002 .36100004 .23200003 L .397 .37200005 C .40400005 .40000005 .40400005 .40200005 .40400005 .40600003 C .40400005 .42300005 .39200003 .43300004 .37500004 .43300004 C .35100005 .43300004 .33600004 .411 .33300004 .38900004 M .26800005 .13000001 C .263 .112 .263 .11000001 .24800001 .093 C .20400001 .038000004 .163 .022000002 .135 .022000002 C .08499999 .022000002 .07100001 .077 .07100001 .116000007 C .07100001 .16600001 .103 .28900004 .126 .335 C .157 .39400003 .202 .43100003 .242 .43100003 C .307 .43100003 .32100005 .34900005 .32100005 .34300003 C .32100005 .337 .31900005 .33100004 .31800003 .32600004 L .26800005 .13000001 Z "/>
</symbol>
<use xlink:href="#font_1_1" transform="matrix(9.9626,0,0,-9.9626,3.7925013,96.50559)"/>
<symbol id="font_2_1">
<path d="M .46400006 .33900003 C .46400006 .44900004 .45100004 .528 .40500004 .598 C .374 .644 .31200005 .684 .23200001 .684 C 0 .684 0 .41100005 0 .33900003 C 0 .26700003 0 0 .23200001 0 C .46400006 0 .46400006 .26700003 .46400006 .33900003 M .23200001 .028 C .186 .028 .125 .055 .105000007 .13700001 C .091000009 .19600001 .091000009 .27800004 .091000009 .35200004 C .091000009 .42500005 .091000009 .50100007 .106000009 .556 C .127 .635 .19100002 .656 .23200001 .656 C .286 .656 .338 .623 .356 .565 C .37200005 .51100006 .37300004 .43900005 .37300004 .35200004 C .37300004 .27800004 .37300004 .20400001 .36 .141 C .34000004 .050000006 .272 .028 .23200001 .028 Z "/>
</symbol>
<use xlink:href="#font_2_1" transform="matrix(6.9738,0,0,-6.9738,9.0226349,98.02947)"/>
<symbol id="font_0_7">
<path d="M .63100007 .19400002 C .646 .19400002 .665 .19400002 .665 .214 C .665 .23400001 .646 .23400001 .632 .23400001 L .033 .23400001 C .019000002 .23400001 0 .23400001 0 .214 C 0 .19400002 .019000002 .19400002 .034 .19400002 L .63100007 .19400002 M .632 0 C .646 0 .665 0 .665 .02000001 C .665 .040000008 .646 .040000008 .63100007 .040000008 L .034 .040000008 C .019000002 .040000008 0 .040000008 0 .02000001 C 0 0 .019000002 0 .033 0 L .632 0 Z "/>
</symbol>
<use xlink:href="#font_0_7" transform="matrix(9.9626,0,0,-9.9626,16.454903,95.07098)"/>
<symbol id="font_3_1">
<path d="M .57600006 0 C .59300008 0 .611 0 .611 .019999996 C .611 .040000008 .59300008 .040000008 .57600006 .040000008 L .035000005 .040000008 C .018 .040000008 0 .040000008 0 .019999996 C 0 0 .018 0 .035000005 0 L .57600006 0 Z "/>
</symbol>
<use xlink:href="#font_3_1" transform="matrix(9.9626,0,0,-9.9626,27.239892,94.10461)"/>
<symbol id="font_0_5">
<path d="M .39900003 .223 C .39900003 .34200005 .317 .44200004 .209 .44200004 C .16100002 .44200004 .118000019 .42600004 .082 .39100004 L .082 .586 C .10200001 .58000007 .135 .573 .16700001 .573 C .29 .573 .36 .66400006 .36 .67700007 C .36 .683 .357 .688 .35 .688 C .349 .688 .347 .688 .342 .68500009 C .322 .67600008 .273 .656 .20600002 .656 C .16600001 .656 .120000008 .66300007 .073 .6840001 C .065 .68700006 .06300001 .68700006 .061000009 .68700006 C .051000004 .68700006 .051000004 .679 .051000004 .66300007 L .051000004 .36700005 C .051000004 .34900005 .051000004 .34100003 .065 .34100003 C .07200001 .34100003 .074 .34400005 .07800001 .35000003 C .08900002 .36600004 .12600002 .42000006 .207 .42000006 C .259 .42000006 .284 .37400005 .292 .35600005 C .308 .31900005 .31 .28000004 .31 .23 C .31 .19500001 .31 .135 .286 .093 C .262 .054000006 .22500001 .028 .17900002 .028 C .106000009 .028 .049000008 .08100001 .032 .14000002 C .035 .13900002 .038000008 .13800001 .049000008 .13800001 C .082 .13800001 .09900001 .163 .09900001 .187 C .09900001 .21100001 .082 .23600002 .049000008 .23600002 C .035 .23600002 0 .22900002 0 .18300002 C 0 .097 .069000009 0 .18100001 0 C .297 0 .39900003 .096 .39900003 .223 Z "/>
</symbol>
<use xlink:href="#font_0_5" transform="matrix(9.9626,0,0,-9.9626,34.660127,96.61518)"/>
<use xlink:href="#font_1_1" transform="matrix(9.9626,0,0,-9.9626,3.7925013,79.97759)"/>
<symbol id="font_2_2">
<path d="M .22600001 .63600006 C .22600001 .66300007 .224 .66400006 .19600001 .66400006 C .132 .601 .041 .6 0 .6 L 0 .564 C .023999997 .564 .09000001 .564 .14500001 .592 L .14500001 .082 C .14500001 .049000004 .14500001 .036000004 .04500001 .036000004 L .0069999995 .036000004 L .0069999995 0 C .024999999 .001 .148 .004 .185 .004 C .21600002 .004 .34200005 .001 .36400003 0 L .36400003 .036000004 L .32600004 .036000004 C .22600001 .036000004 .22600001 .049000004 .22600001 .082 L .22600001 .63600006 Z "/>
</symbol>
<use xlink:href="#font_2_2" transform="matrix(6.9738,0,0,-6.9738,9.420141,81.362)"/>
<use xlink:href="#font_0_7" transform="matrix(9.9626,0,0,-9.9626,16.454903,78.54298)"/>
<use xlink:href="#font_3_1" transform="matrix(9.9626,0,0,-9.9626,27.239892,77.57661)"/>
<use xlink:href="#font_0_1" transform="matrix(9.9626,0,0,-9.9626,35.048669,79.868007)"/>
<use xlink:href="#font_1_1" transform="matrix(9.9626,0,0,-9.9626,11.541502,63.449594)"/>
<symbol id="font_2_3">
<path d="M .442 .18200001 L .40800003 .18200001 C .40500004 .16000001 .39500005 .101 .38200004 .091000009 C .374 .085 .29700003 .085 .28300003 .085 L .099 .085 C .20400003 .178 .23900002 .20600002 .29900003 .25300003 C .37300004 .312 .442 .374 .442 .469 C .442 .59000006 .33600004 .66400006 .20800004 .66400006 C .084 .66400006 0 .577 0 .485 C 0 .43400003 .043000007 .42900003 .053000004 .42900003 C .077 .42900003 .10600001 .446 .10600001 .48200003 C .10600001 .5 .099 .535 .047000007 .535 C .078 .606 .146 .628 .19300002 .628 C .293 .628 .34500004 .55 .34500004 .469 C .34500004 .38200004 .28300003 .31300003 .25100003 .277 L .010000005 .039 C 0 .030000002 0 .028 0 0 L .41200004 0 L .442 .18200001 Z "/>
</symbol>
<use xlink:href="#font_2_3" transform="matrix(6.9738,0,0,-6.9738,16.848349,64.834)"/>
<use xlink:href="#font_0_7" transform="matrix(9.9626,0,0,-9.9626,24.203904,62.014978)"/>
<use xlink:href="#font_0_3" transform="matrix(9.9626,0,0,-9.9626,34.584936,63.55918)"/>
<use xlink:href="#font_1_1" transform="matrix(9.9626,0,0,-9.9626,11.541502,46.921594)"/>
<symbol id="font_2_4">
<path d="M .219 .35400004 C .29700003 .35400004 .35300002 .3 .35300002 .193 C .35300002 .069000009 .28100003 .032 .223 .032 C .18300002 .032 .095 .043000007 .053000008 .102000009 C .10000001 .10400001 .111 .13700001 .111 .158 C .111 .19 .087 .213 .056000007 .213 C .028 .213 0 .19600001 0 .155 C 0 .061000006 .104 0 .22500001 0 C .36400003 0 .46 .09300001 .46 .193 C .46 .27100004 .39600004 .34900005 .286 .37200005 C .39100004 .41000004 .42900003 .48500005 .42900003 .546 C .42900003 .625 .33800004 .684 .22700002 .684 C .116 .684 .031 .63 .031 .55 C .031 .51600006 .053000008 .49700005 .083000008 .49700005 C .11400001 .49700005 .134 .52 .134 .548 C .134 .577 .11400001 .598 .083000008 .6 C .118 .644 .187 .65500006 .22400002 .65500006 C .26900003 .65500006 .33200003 .633 .33200003 .546 C .33200003 .504 .31800003 .45800004 .29200004 .42700003 C .25900004 .38900004 .23100002 .38700003 .18100001 .38400004 C .156 .38200004 .154 .38200004 .149 .38100005 C .147 .38100005 .139 .37900005 .139 .36800004 C .139 .35400004 .148 .35400004 .165 .35400004 L .219 .35400004 Z "/>
</symbol>
<use xlink:href="#font_2_4" transform="matrix(6.9738,0,0,-6.9738,16.785584,48.44548)"/>
<symbol id="font_0_6">
<path d="M .42000003 .63100007 C .42900003 .64300009 .42900003 .64500007 .42900003 .66600009 L .18600002 .66600009 C .064 .66600009 .062000008 .679 .058000007 .6980001 L .033 .6980001 L 0 .49200005 L .024999999 .49200005 C .028000005 .508 .037 .57100006 .050000006 .58300009 C .057000005 .58900007 .13500002 .58900007 .148 .58900007 L .35500003 .58900007 C .344 .573 .26500003 .46400006 .24300003 .43100003 C .153 .29600004 .12000001 .157 .12000001 .055 C .12000001 .045 .12000001 0 .16600001 0 C .21200001 0 .21200001 .045 .21200001 .055 L .21200001 .106000009 C .21200001 .16100002 .21500004 .216 .22300002 .27 C .22700003 .29300005 .24100003 .37900005 .28500004 .44100005 L .42000003 .63100007 Z "/>
</symbol>
<use xlink:href="#font_0_7" transform="matrix(9.9626,0,0,-9.9626,24.203904,45.486978)"/>
<use xlink:href="#font_0_6" transform="matrix(9.9626,0,0,-9.9626,34.72441,47.03118)"/>
<use xlink:href="#font_1_1" transform="matrix(9.9626,0,0,-9.9626,6.560503,30.393593)"/>
<symbol id="font_2_5">
<path d="M .49000005 .164 L .49000005 .2 L .379 .2 L .379 .646 C .379 .66700008 .379 .674 .35700003 .674 C .345 .674 .34100003 .674 .331 .66 L 0 .2 L 0 .164 L .294 .164 L .294 .082 C .294 .048 .294 .036000004 .213 .036000004 L .186 .036000004 L .186 0 C .236 .002 .3 .004 .33600004 .004 C .37300004 .004 .437 .002 .48700003 0 L .48700003 .036000004 L .46 .036000004 C .379 .036000004 .379 .048 .379 .082 L .379 .164 L .49000005 .164 M .301 .56600007 L .301 .2 L .037000006 .2 L .301 .56600007 Z "/>
</symbol>
<use xlink:href="#font_2_5" transform="matrix(6.9738,0,0,-6.9738,11.699976,31.778008)"/>
<use xlink:href="#font_0_7" transform="matrix(9.9626,0,0,-9.9626,19.222903,28.958979)"/>
<use xlink:href="#font_0_1" transform="matrix(9.9626,0,0,-9.9626,30.072175,30.284005)"/>
<use xlink:href="#font_0_1" transform="matrix(9.9626,0,0,-9.9626,35.05348,30.284005)"/>
<path transform="matrix(1,0,0,-1,44.863,110.461009)" stroke-width="1.19553" stroke-linecap="butt" stroke-miterlimit="10" stroke-linejoin="miter" fill="none" stroke="#cc6600" d="M 0 16.5282 C 0 16.5282 8.0525 19.26482 11.14528 20.31589 C 14.23804 21.36694 19.19781 23.05252 22.29057 24.10358 C 25.38335 25.15465 30.34311 26.84023 33.43588 27.8913 C 36.52864 28.94235 41.4884 30.62791 44.58118 31.67899 C 47.67395 32.73006 52.63371 34.41562 55.72647 35.46667 C 58.81924 36.51775 63.77899 38.20332 66.87177 39.2544 C 69.96452 40.30545 74.9243 41.99101 78.01706 43.04208 C 81.10983 44.09315 86.0696 45.77873 89.16237 46.82979 C 92.25513 47.88086 97.21487 49.56642 100.30765 50.6175 C 103.40042 51.66855 108.36018 53.35411 111.45294 54.40518 C 114.54572 55.45625 119.50548 57.14182 122.59825 58.19287 C 125.69101 59.24394 130.65079 60.92952 133.74355 61.98059 C 136.83632 63.03165 141.79607 64.71722 144.88884 65.7683 C 147.9816 66.81937 152.94136 68.50493 156.03414 69.55598 C 159.12689 70.60706 164.08667 72.29262 167.17943 73.34369 C 170.2722 74.39474 175.23197 76.08032 178.32474 77.13138 C 181.4175 78.18245 186.37726 79.86804 189.47002 80.9191 C 192.56279 81.97017 197.52256 83.65573 200.61531 84.7068 C 203.70809 85.75786 208.66785 87.44344 211.76062 88.49449 C 214.85338 89.54556 219.81314 91.23112 222.9059 92.28218 C 225.99868 93.33325 230.95844 95.01881 234.05121 96.06989 C 237.14397 97.12094 242.10373 98.80655 245.1965 99.8576 C 248.28928 100.90868 253.24904 102.59424 256.3418 103.64531 C 259.43458 104.69637 267.4871 107.433 267.4871 107.433 "/>
<path transform="matrix(1,0,0,-1,44.863,110.461009)" d="M 1.99255 16.5282 C 1.99255 17.62866 1.10046 18.52075 0 18.52075 C -1.10046 18.52075 -1.99255 17.62866 -1.99255 16.5282 C -1.99255 15.42772 -1.10046 14.53564 0 14.53564 C 1.10046 14.53564 1.99255 15.42772 1.99255 16.5282 Z M 0 16.5282 " fill="#000080"/>
<path transform="matrix(1,0,0,-1,44.863,110.461009)" stroke-width="1" stroke-linecap="butt" stroke-miterlimit="10" stroke-linejoin="miter" fill="none" stroke="#000080" d="M 1.99255 16.5282 C 1.99255 17.62866 1.10046 18.52075 0 18.52075 C -1.10046 18.52075 -1.99255 17.62866 -1.99255 16.5282 C -1.99255 15.42772 -1.10046 14.53564 0 14.53564 C 1.10046 14.53564 1.99255 15.42772 1.99255 16.5282 Z M 0 16.5282 "/>
<path transform="matrix(1,0,0,-1,44.863,110.461009)" d="M 50.62671 33.0564 C 50.62671 34.15686 49.73463 35.04895 48.63416 35.04895 C 47.53369 35.04895 46.6416 34.15686 46.6416 33.0564 C 46.6416 31.95592 47.53369 31.06384 48.63416 31.06384 C 49.73463 31.06384 50.62671 31.95592 50.62671 33.0564 Z M 48.63416 33.0564 " fill="#000080"/>
<path transform="matrix(1,0,0,-1,44.863,110.461009)" stroke-width="1" stroke-linecap="butt" stroke-miterlimit="10" stroke-linejoin="miter" fill="none" stroke="#000080" d="M 50.62671 33.0564 C 50.62671 34.15686 49.73463 35.04895 48.63416 35.04895 C 47.53369 35.04895 46.6416 34.15686 46.6416 33.0564 C 46.6416 31.95592 47.53369 31.06384 48.63416 31.06384 C 49.73463 31.06384 50.62671 31.95592 50.62671 33.0564 Z M 48.63416 33.0564 "/>
<path transform="matrix(1,0,0,-1,44.863,110.461009)" d="M 99.26088 49.5846 C 99.26088 50.68506 98.3688 51.57715 97.26833 51.57715 C 96.16786 51.57715 95.27577 50.68506 95.27577 49.5846 C 95.27577 48.48412 96.16786 47.59204 97.26833 47.59204 C 98.3688 47.59204 99.26088 48.48412 99.26088 49.5846 Z M 97.26833 49.5846 " fill="#000080"/>
<path transform="matrix(1,0,0,-1,44.863,110.461009)" stroke-width="1" stroke-linecap="butt" stroke-miterlimit="10" stroke-linejoin="miter" fill="none" stroke="#000080" d="M 99.26088 49.5846 C 99.26088 50.68506 98.3688 51.57715 97.26833 51.57715 C 96.16786 51.57715 95.27577 50.68506 95.27577 49.5846 C 95.27577 48.48412 96.16786 47.59204 97.26833 47.59204 C 98.3688 47.59204 99.26088 48.48412 99.26088 49.5846 Z M 97.26833 49.5846 "/>
<path transform="matrix(1,0,0,-1,44.863,110.461009)" d="M 147.89505 66.1128 C 147.89505 67.21326 147.00298 68.10535 145.9025 68.10535 C 144.80204 68.10535 143.90995 67.21326 143.90995 66.1128 C 143.90995 65.01231 144.80204 64.12024 145.9025 64.12024 C 147.00298 64.12024 147.89505 65.01231 147.89505 66.1128 Z M 145.9025 66.1128 " fill="#000080"/>
<path transform="matrix(1,0,0,-1,44.863,110.461009)" stroke-width="1" stroke-linecap="butt" stroke-miterlimit="10" stroke-linejoin="miter" fill="none" stroke="#000080" d="M 147.89505 66.1128 C 147.89505 67.21326 147.00298 68.10535 145.9025 68.10535 C 144.80204 68.10535 143.90995 67.21326 143.90995 66.1128 C 143.90995 65.01231 144.80204 64.12024 145.9025 64.12024 C 147.00298 64.12024 147.89505 65.01231 147.89505 66.1128 Z M 145.9025 66.1128 "/>
<path transform="matrix(1,0,0,-1,44.863,110.461009)" d="M 196.52922 82.64099 C 196.52922 83.74146 195.63715 84.63354 194.53667 84.63354 C 193.4362 84.63354 192.54412 83.74146 192.54412 82.64099 C 192.54412 81.54051 193.4362 80.64844 194.53667 80.64844 C 195.63715 80.64844 196.52922 81.54051 196.52922 82.64099 Z M 194.53667 82.64099 " fill="#000080"/>
<path transform="matrix(1,0,0,-1,44.863,110.461009)" stroke-width="1" stroke-linecap="butt" stroke-miterlimit="10" stroke-linejoin="miter" fill="none" stroke="#000080" d="M 196.52922 82.64099 C 196.52922 83.74146 195.63715 84.63354 194.53667 84.63354 C 193.4362 84.63354 192.54412 83.74146 192.54412 82.64099 C 192.54412 81.54051 193.4362 80.64844 194.53667 80.64844 C 195.63715 80.64844 196.52922 81.54051 196.52922 82.64099 Z M 194.53667 82.64099 "/>
<symbol id="font_1_2">
<path d="M .059000009 .07000001 C .056 .055000005 .050000006 .032 .050000006 .027000003 C .050000006 .009000001 .064 0 .079 0 C .091000009 0 .10900001 .008000001 .11600001 .028 C .11700001 .030000002 .12900001 .077 .135 .102000009 L .157 .19200002 C .163 .21400002 .16900002 .23600002 .17400001 .259 C .17800002 .27600003 .186 .305 .187 .30900003 C .202 .34000004 .255 .43100003 .35 .43100003 C .395 .43100003 .404 .39400003 .404 .36100004 C .404 .29900003 .355 .17100002 .33900003 .128 C .33 .105000007 .329 .093 .329 .082 C .329 .035 .364 0 .411 0 C .50500008 0 .54200008 .14600002 .54200008 .15400002 C .54200008 .16400002 .53300008 .16400002 .53000006 .16400002 C .52000007 .16400002 .52000007 .16100002 .51500007 .14600002 C .49500004 .078 .462 .022000002 .41300003 .022000002 C .396 .022000002 .389 .032 .389 .055000005 C .389 .080000009 .398 .104 .407 .126 C .426 .17900002 .468 .28900004 .468 .34600003 C .468 .41300003 .425 .45300005 .35300002 .45300005 C .263 .45300005 .21400002 .38900004 .19700001 .36600004 C .19200002 .42200003 .15100001 .45300005 .105000007 .45300005 C .059000009 .45300005 .040000008 .41400004 .030000003 .39600004 C .014 .36200003 0 .30300004 0 .29900003 C 0 .28900004 .01 .28900004 .012 .28900004 C .022000002 .28900004 .023 .29000003 .029000001 .31200005 C .046000005 .38300003 .06600001 .43100003 .10200001 .43100003 C .12200001 .43100003 .133 .418 .133 .38500003 C .133 .36400003 .13000001 .35300002 .11700001 .30100004 L .059000009 .07000001 Z "/>
</symbol>
<use xlink:href="#font_1_2" transform="matrix(9.9626,0,0,-9.9626,291.94993,75.5206)"/>
<use xlink:href="#font_1_1" transform="matrix(9.9626,0,0,-9.9626,42.6285,7.7935945)"/>
</svg>
