<?xml version="1.0" encoding="UTF-8" standalone="no"?>
<!DOCTYPE svg PUBLIC "-//W3C//DTD SVG 1.1//EN" "http://www.w3.org/Graphics/SVG/1.1/DTD/svg11.dtd">
<svg xmlns="http://www.w3.org/2000/svg" xmlns:xlink="http://www.w3.org/1999/xlink" version="1.1" width="297.973pt" height="121.742pt" viewBox="0 0 297.973 121.742">
<path transform="matrix(1,0,0,-1,42.095,112.406)" stroke-width="1" stroke-linecap="butt" stroke-miterlimit="10" stroke-linejoin="miter" fill="none" stroke="#808080" d="M 37.41054 4.0719 L 37.41054 8.32407 M 74.82109 4.0719 L 74.82109 8.32407 M 112.23164 4.0719 L 112.23164 8.32407 M 149.64218 4.0719 L 149.64218 8.32407 M 187.05274 4.0719 L 187.05274 8.32407 M 224.46329 4.0719 L 224.46329 8.32407 "/>
<path transform="matrix(1,0,0,-1,42.095,112.406)" stroke-width="1" stroke-linecap="butt" stroke-miterlimit="10" stroke-linejoin="miter" fill="none" stroke="#808080" d="M -2.12604 24.79199 L 2.12604 24.79199 M -2.12604 37.18799 L 2.12604 37.18799 M -2.12604 49.58398 L 2.12604 49.58398 M -2.12604 61.97998 L 2.12604 61.97998 M -2.12604 74.37598 L 2.12604 74.37598 M -2.12604 86.77197 L 2.12604 86.77197 "/>
<path transform="matrix(1,0,0,-1,42.095,112.406)" stroke-width="1" stroke-linecap="butt" stroke-miterlimit="10" stroke-linejoin="miter" fill="none" stroke="#000000" d="M 0 6.198 L 241.17604 6.198 "/>
<path transform="matrix(1,0,0,-1,283.27107,106.208)" d="M 1.99252 0 L -1.19551 1.59401 L 0 0 L -1.19551 -1.59401 "/>
<path transform="matrix(1,0,0,-1,42.095,112.406)" stroke-width="1" stroke-linecap="butt" stroke-miterlimit="10" stroke-linejoin="miter" fill="none" stroke="#000000" d="M 0 0 L 0 97.17545 "/>
<path transform="matrix(0,-1,-1,-0,42.095,15.230545)" d="M 1.99252 0 L -1.19551 1.59401 L 0 0 L -1.19551 -1.59401 "/>
<symbol id="font_0_1">
<path d="M .205 .64000007 C .205 .66400006 .205 .666 .18200003 .666 C .120000008 .60200008 .032000007 .60200008 0 .60200008 L 0 .57100006 C .020000004 .57100006 .07900001 .57100006 .13100001 .597 L .13100001 .079 C .13100001 .043 .128 .031000002 .038000004 .031000002 L .0060000049 .031000002 L .0060000049 0 C .04100001 .003 .128 .003 .168 .003 C .20800002 .003 .29500003 .003 .33000005 0 L .33000005 .031000002 L .29800005 .031000002 C .20800002 .031000002 .205 .042000005 .205 .079 L .205 .64000007 Z "/>
</symbol>
<use xlink:href="#font_0_1" transform="matrix(9.9626,0,0,-9.9626,77.90167,118.348)"/>
<symbol id="font_0_2">
<path d="M .07700001 .07700001 L .18300002 .18 C .33900003 .31800003 .39900003 .372 .39900003 .47200004 C .39900003 .586 .30900003 .666 .18700002 .666 C .074 .666 0 .574 0 .485 C 0 .42900003 .05 .42900003 .053000008 .42900003 C .07000001 .42900003 .105000007 .441 .105000007 .48200003 C .105000007 .508 .08700001 .53400006 .052000006 .53400006 C .044000005 .53400006 .042000008 .53400006 .039 .53300008 C .062000004 .59800007 .11600001 .63500007 .17400001 .63500007 C .26500003 .63500007 .308 .554 .308 .47200004 C .308 .39200003 .25800003 .31300003 .20300003 .25100003 L .011000004 .037 C 0 .026 0 .024 0 0 L .37100003 0 L .39900003 .17400001 L .374 .17400001 C .36900003 .14400001 .36200003 .1 .352 .085 C .345 .07700001 .279 .07700001 .257 .07700001 L .07700001 .07700001 Z "/>
</symbol>
<use xlink:href="#font_0_2" transform="matrix(9.9626,0,0,-9.9626,114.923137,118.348)"/>
<symbol id="font_0_3">
<path d="M .24800003 .37400005 C .33 .40100003 .388 .47100006 .388 .55 C .388 .632 .3 .688 .204 .688 C .10300001 .688 .027000003 .628 .027000003 .55200007 C .027000003 .519 .049000004 .5 .078 .5 C .109000008 .5 .12900001 .522 .12900001 .55100008 C .12900001 .6010001 .082 .6010001 .067 .6010001 C .098 .65000006 .164 .66300007 .20000002 .66300007 C .24100003 .66300007 .29600004 .64100006 .29600004 .55100008 C .29600004 .53900006 .29400004 .48100005 .268 .43700005 C .238 .38900004 .204 .38600005 .17900002 .38500003 C .171 .38400004 .14700002 .38200004 .14000002 .38200004 C .132 .38100005 .125 .38000003 .125 .37000004 C .125 .35900004 .132 .35900004 .14900002 .35900004 L .19300002 .35900004 C .275 .35900004 .312 .29100005 .312 .193 C .312 .057000005 .24300003 .028 .199 .028 C .15600002 .028 .081 .045 .046000005 .104 C .081 .09900001 .11200001 .12100001 .11200001 .15900001 C .11200001 .19500001 .085 .215 .056 .215 C .031999999 .215 0 .201 0 .157 C 0 .06600001 .093 0 .20200002 0 C .32400004 0 .41500003 .091000009 .41500003 .193 C .41500003 .27500005 .35200004 .35300005 .24800003 .37400005 Z "/>
</symbol>
<use xlink:href="#font_0_3" transform="matrix(9.9626,0,0,-9.9626,152.25342,118.56718)"/>
<symbol id="font_0_4">
<path d="M .266 .165 L .266 .078 C .266 .042000005 .26400004 .031000002 .19000001 .031000002 L .16900002 .031000002 L .16900002 0 C .21000001 .003 .26200003 .003 .30400003 .003 C .34600003 .003 .39900003 .003 .44000004 0 L .44000004 .031000002 L .41900004 .031000002 C .34500004 .031000002 .34300003 .042000005 .34300003 .078 L .34300003 .165 L .44300003 .165 L .44300003 .19600001 L .34300003 .19600001 L .34300003 .651 C .34300003 .671 .34300003 .67700007 .32700003 .67700007 C .31800003 .67700007 .31500004 .67700007 .307 .665 L 0 .19600001 L 0 .165 L .266 .165 M .272 .19600001 L .028 .19600001 L .272 .569 L .272 .19600001 Z "/>
</symbol>
<use xlink:href="#font_0_4" transform="matrix(9.9626,0,0,-9.9626,189.52394,118.348)"/>
<symbol id="font_0_5">
<path d="M .39900003 .223 C .39900003 .34200005 .317 .44200004 .209 .44200004 C .16100002 .44200004 .118000019 .42600004 .082 .39100004 L .082 .586 C .10200001 .58000007 .135 .573 .16700001 .573 C .29 .573 .36 .66400006 .36 .67700007 C .36 .683 .357 .688 .35 .688 C .349 .688 .347 .688 .342 .68500009 C .322 .67600008 .273 .656 .20600002 .656 C .16600001 .656 .120000008 .66300007 .073 .6840001 C .065 .68700006 .06300001 .68700006 .061000009 .68700006 C .051000004 .68700006 .051000004 .679 .051000004 .66300007 L .051000004 .36700005 C .051000004 .34900005 .051000004 .34100003 .065 .34100003 C .07200001 .34100003 .074 .34400005 .07800001 .35000003 C .08900002 .36600004 .12600002 .42000006 .207 .42000006 C .259 .42000006 .284 .37400005 .292 .35600005 C .308 .31900005 .31 .28000004 .31 .23 C .31 .19500001 .31 .135 .286 .093 C .262 .054000006 .22500001 .028 .17900002 .028 C .106000009 .028 .049000008 .08100001 .032 .14000002 C .035 .13900002 .038000008 .13800001 .049000008 .13800001 C .082 .13800001 .09900001 .163 .09900001 .187 C .09900001 .21100001 .082 .23600002 .049000008 .23600002 C .035 .23600002 0 .22900002 0 .18300002 C 0 .097 .069000009 0 .18100001 0 C .297 0 .39900003 .096 .39900003 .223 Z "/>
</symbol>
<use xlink:href="#font_0_5" transform="matrix(9.9626,0,0,-9.9626,227.15312,118.56718)"/>
<symbol id="font_0_6">
<path d="M .089999999 .35000003 L .089999999 .37400005 C .089999999 .62700006 .21400002 .66300007 .26500003 .66300007 C .28900004 .66300007 .33100004 .65700009 .35300002 .623 C .33800004 .623 .298 .623 .298 .57800009 C .298 .54700008 .32200004 .53200009 .344 .53200009 C .36 .53200009 .39000003 .54100009 .39000003 .58000007 C .39000003 .64000007 .34600003 .688 .263 .688 C .13499999 .688 0 .559 0 .33800004 C 0 .071 .116000007 0 .20900002 0 C .32000003 0 .41500003 .094000007 .41500003 .22600001 C .41500003 .35300005 .32600004 .44900004 .215 .44900004 C .14700002 .44900004 .11000001 .39800004 .089999999 .35000003 M .20900002 .028 C .146 .028 .116000007 .088 .11000001 .103 C .092 .15 .092 .23 .092 .24800001 C .092 .32600004 .124000009 .42600004 .21400002 .42600004 C .23000002 .42600004 .27600003 .42600004 .307 .36400003 C .32500003 .32700003 .32500003 .27600003 .32500003 .22700002 C .32500003 .179 .32500003 .12900001 .30800004 .093 C .27800004 .033000005 .23200003 .028 .20900002 .028 Z "/>
</symbol>
<use xlink:href="#font_0_6" transform="matrix(9.9626,0,0,-9.9626,264.48344,118.56718)"/>
<symbol id="font_1_1">
<path d="M .33300004 .38900004 C .31500004 .42600004 .286 .45300005 .24100001 .45300005 C .124 .45300005 0 .30600003 0 .16000001 C 0 .06600001 .055000005 0 .133 0 C .153 0 .20300001 .0040000008 .263 .075 C .27100004 .033000005 .30600003 0 .35400004 0 C .38900004 0 .41200004 .023000002 .42800004 .055000005 C .44500003 .091000009 .45800004 .15200001 .45800004 .15400002 C .45800004 .16400002 .44900004 .16400002 .44600005 .16400002 C .43600003 .16400002 .43500004 .16000001 .43200005 .14600002 C .41500003 .081 .397 .022000002 .35600005 .022000002 C .32900004 .022000002 .32600004 .048 .32600004 .068 C .32600004 .09 .32800005 .098000008 .33900003 .14200002 C .35000003 .18400002 .35200004 .19400002 .36100004 .23200003 L .397 .37200005 C .40400005 .40000005 .40400005 .40200005 .40400005 .40600003 C .40400005 .42300005 .39200003 .43300004 .37500004 .43300004 C .35100005 .43300004 .33600004 .411 .33300004 .38900004 M .26800005 .13000001 C .263 .112 .263 .11000001 .24800001 .093 C .20400001 .038000004 .163 .022000002 .135 .022000002 C .08499999 .022000002 .07100001 .077 .07100001 .116000007 C .07100001 .16600001 .103 .28900004 .126 .335 C .157 .39400003 .202 .43100003 .242 .43100003 C .307 .43100003 .32100005 .34900005 .32100005 .34300003 C .32100005 .337 .31900005 .33100004 .31800003 .32600004 L .26800005 .13000001 Z "/>
</symbol>
<use xlink:href="#font_1_1" transform="matrix(9.9626,0,0,-9.9626,8.774504,90.186588)"/>
<symbol id="font_2_1">
<path d="M .22600001 .63600006 C .22600001 .66300007 .224 .66400006 .19600001 .66400006 C .132 .601 .041 .6 0 .6 L 0 .564 C .023999997 .564 .09000001 .564 .14500001 .592 L .14500001 .082 C .14500001 .049000004 .14500001 .036000004 .04500001 .036000004 L .0069999995 .036000004 L .0069999995 0 C .024999999 .001 .148 .004 .185 .004 C .21600002 .004 .34200005 .001 .36400003 0 L .36400003 .036000004 L .32600004 .036000004 C .22600001 .036000004 .22600001 .049000004 .22600001 .082 L .22600001 .63600006 Z "/>
</symbol>
<use xlink:href="#font_2_1" transform="matrix(6.9738,0,0,-6.9738,14.4021439,91.571)"/>
<symbol id="font_0_9">
<path d="M .63100007 .19400002 C .646 .19400002 .665 .19400002 .665 .214 C .665 .23400001 .646 .23400001 .632 .23400001 L .033 .23400001 C .019000002 .23400001 0 .23400001 0 .214 C 0 .19400002 .019000002 .19400002 .034 .19400002 L .63100007 .19400002 M .632 0 C .646 0 .665 0 .665 .02000001 C .665 .040000008 .646 .040000008 .63100007 .040000008 L .034 .040000008 C .019000002 .040000008 0 .040000008 0 .02000001 C 0 0 .019000002 0 .033 0 L .632 0 Z "/>
</symbol>
<use xlink:href="#font_0_9" transform="matrix(9.9626,0,0,-9.9626,21.435904,88.75197)"/>
<use xlink:href="#font_0_3" transform="matrix(9.9626,0,0,-9.9626,31.816935,90.29617)"/>
<use xlink:href="#font_1_1" transform="matrix(9.9626,0,0,-9.9626,8.774504,77.79059)"/>
<symbol id="font_2_2">
<path d="M .442 .18200001 L .40800003 .18200001 C .40500004 .16000001 .39500005 .101 .38200004 .091000009 C .374 .085 .29700003 .085 .28300003 .085 L .099 .085 C .20400003 .178 .23900002 .20600002 .29900003 .25300003 C .37300004 .312 .442 .374 .442 .469 C .442 .59000006 .33600004 .66400006 .20800004 .66400006 C .084 .66400006 0 .577 0 .485 C 0 .43400003 .043000007 .42900003 .053000004 .42900003 C .077 .42900003 .10600001 .446 .10600001 .48200003 C .10600001 .5 .099 .535 .047000007 .535 C .078 .606 .146 .628 .19300002 .628 C .293 .628 .34500004 .55 .34500004 .469 C .34500004 .38200004 .28300003 .31300003 .25100003 .277 L .010000005 .039 C 0 .030000002 0 .028 0 0 L .41200004 0 L .442 .18200001 Z "/>
</symbol>
<use xlink:href="#font_2_2" transform="matrix(6.9738,0,0,-6.9738,14.081348,79.176)"/>
<use xlink:href="#font_0_9" transform="matrix(9.9626,0,0,-9.9626,21.435904,76.35597)"/>
<use xlink:href="#font_0_5" transform="matrix(9.9626,0,0,-9.9626,31.896637,77.90018)"/>
<use xlink:href="#font_1_1" transform="matrix(9.9626,0,0,-9.9626,8.774504,65.39459)"/>
<symbol id="font_2_3">
<path d="M .219 .35400004 C .29700003 .35400004 .35300002 .3 .35300002 .193 C .35300002 .069000009 .28100003 .032 .223 .032 C .18300002 .032 .095 .043000007 .053000008 .102000009 C .10000001 .10400001 .111 .13700001 .111 .158 C .111 .19 .087 .213 .056000007 .213 C .028 .213 0 .19600001 0 .155 C 0 .061000006 .104 0 .22500001 0 C .36400003 0 .46 .09300001 .46 .193 C .46 .27100004 .39600004 .34900005 .286 .37200005 C .39100004 .41000004 .42900003 .48500005 .42900003 .546 C .42900003 .625 .33800004 .684 .22700002 .684 C .116 .684 .031 .63 .031 .55 C .031 .51600006 .053000008 .49700005 .083000008 .49700005 C .11400001 .49700005 .134 .52 .134 .548 C .134 .577 .11400001 .598 .083000008 .6 C .118 .644 .187 .65500006 .22400002 .65500006 C .26900003 .65500006 .33200003 .633 .33200003 .546 C .33200003 .504 .31800003 .45800004 .29200004 .42700003 C .25900004 .38900004 .23100002 .38700003 .18100001 .38400004 C .156 .38200004 .154 .38200004 .149 .38100005 C .147 .38100005 .139 .37900005 .139 .36800004 C .139 .35400004 .148 .35400004 .165 .35400004 L .219 .35400004 Z "/>
</symbol>
<use xlink:href="#font_2_3" transform="matrix(6.9738,0,0,-6.9738,14.018584,66.91947)"/>
<symbol id="font_0_7">
<path d="M .42000003 .63100007 C .42900003 .64300009 .42900003 .64500007 .42900003 .66600009 L .18600002 .66600009 C .064 .66600009 .062000008 .679 .058000007 .6980001 L .033 .6980001 L 0 .49200005 L .024999999 .49200005 C .028000005 .508 .037 .57100006 .050000006 .58300009 C .057000005 .58900007 .13500002 .58900007 .148 .58900007 L .35500003 .58900007 C .344 .573 .26500003 .46400006 .24300003 .43100003 C .153 .29600004 .12000001 .157 .12000001 .055 C .12000001 .045 .12000001 0 .16600001 0 C .21200001 0 .21200001 .045 .21200001 .055 L .21200001 .106000009 C .21200001 .16100002 .21500004 .216 .22300002 .27 C .22700003 .29300005 .24100003 .37900005 .28500004 .44100005 L .42000003 .63100007 Z "/>
</symbol>
<use xlink:href="#font_0_9" transform="matrix(9.9626,0,0,-9.9626,21.435904,63.959978)"/>
<use xlink:href="#font_0_7" transform="matrix(9.9626,0,0,-9.9626,31.956412,65.50418)"/>
<use xlink:href="#font_1_1" transform="matrix(9.9626,0,0,-9.9626,8.774504,52.999589)"/>
<symbol id="font_2_4">
<path d="M .49000005 .164 L .49000005 .2 L .379 .2 L .379 .646 C .379 .66700008 .379 .674 .35700003 .674 C .345 .674 .34100003 .674 .331 .66 L 0 .2 L 0 .164 L .294 .164 L .294 .082 C .294 .048 .294 .036000004 .213 .036000004 L .186 .036000004 L .186 0 C .236 .002 .3 .004 .33600004 .004 C .37300004 .004 .437 .002 .48700003 0 L .48700003 .036000004 L .46 .036000004 C .379 .036000004 .379 .048 .379 .082 L .379 .164 L .49000005 .164 M .301 .56600007 L .301 .2 L .037000006 .2 L .301 .56600007 Z "/>
</symbol>
<use xlink:href="#font_2_4" transform="matrix(6.9738,0,0,-6.9738,13.913978,54.384004)"/>
<symbol id="font_0_8">
<path d="M .32500003 .34000004 L .32500003 .30800004 C .32500003 .074 .22100002 .028 .16300002 .028 C .146 .028 .092 .030000002 .065000008 .064 C .109000008 .064 .117000009 .093 .117000009 .11000001 C .117000009 .141 .093 .156 .071 .156 C .055 .156 .024999999 .147 .024999999 .108 C .024999999 .041 .079 0 .164 0 C .293 0 .41500003 .136 .41500003 .35100005 C .41500003 .62000009 .3 .688 .21100003 .688 C .15600002 .688 .107 .67 .064 .62500008 C .023000002 .58000007 0 .53800007 0 .46300004 C 0 .33800004 .08800001 .24000001 .20000002 .24000001 C .261 .24000001 .30200003 .28200004 .32500003 .34000004 M .201 .263 C .185 .263 .139 .263 .108 .32600004 C .089999999 .36300005 .089999999 .41300006 .089999999 .46200005 C .089999999 .51600006 .089999999 .563 .11100001 .6 C .13800001 .65000006 .176 .66300007 .21100003 .66300007 C .25700004 .66300007 .29000003 .62900009 .307 .58400008 C .31900005 .55200007 .323 .48900003 .323 .44300006 C .323 .36000005 .28900004 .263 .201 .263 Z "/>
</symbol>
<use xlink:href="#font_0_9" transform="matrix(9.9626,0,0,-9.9626,21.435904,51.564973)"/>
<use xlink:href="#font_0_8" transform="matrix(9.9626,0,0,-9.9626,31.816935,53.109178)"/>
<use xlink:href="#font_1_1" transform="matrix(9.9626,0,0,-9.9626,3.792505,40.603586)"/>
<symbol id="font_2_5">
<path d="M .092 .578 C .143 .565 .17300001 .565 .18900001 .565 C .321 .565 .39900003 .65500006 .39900003 .67 C .39900003 .681 .39200003 .684 .38700003 .684 C .38500003 .684 .38300003 .684 .37900005 .681 C .35500003 .672 .30200003 .652 .22800002 .652 C .20000002 .652 .14700002 .654 .08200001 .679 C .072000008 .684 .07 .684 .069 .684 C .056 .684 .056 .67300006 .056 .657 L .056 .36200003 C .056 .34500004 .056 .33300004 .072000008 .33300004 C .08100001 .33300004 .08200001 .33500005 .092 .34700004 C .13500002 .40200005 .19600001 .41000004 .231 .41000004 C .291 .41000004 .31800003 .36200003 .323 .35400004 C .34100003 .32100005 .34700004 .28300003 .34700004 .22500001 C .34700004 .19500001 .34700004 .136 .31700004 .09200001 C .29200004 .056 .24900002 .032 .20000002 .032 C .13500002 .032 .06800001 .068 .043000007 .134 C .08100001 .13100001 .1 .156 .1 .183 C .1 .22600001 .063 .23400001 .050000006 .23400001 C .048000009 .23400001 0 .23400001 0 .18 C 0 .09 .08200001 0 .20200002 0 C .33 0 .442 .095000009 .442 .221 C .442 .33400003 .35600005 .43800003 .23200003 .43800003 C .18800003 .43800003 .136 .42700003 .092 .38900004 L .092 .578 Z "/>
</symbol>
<use xlink:href="#font_2_5" transform="matrix(6.9738,0,0,-6.9738,9.09935,42.127477)"/>
<use xlink:href="#font_0_9" transform="matrix(9.9626,0,0,-9.9626,16.454907,39.16897)"/>
<use xlink:href="#font_0_1" transform="matrix(9.9626,0,0,-9.9626,27.304179,40.493997)"/>
<use xlink:href="#font_0_1" transform="matrix(9.9626,0,0,-9.9626,32.28548,40.493997)"/>
<use xlink:href="#font_1_1" transform="matrix(9.9626,0,0,-9.9626,3.792505,28.207589)"/>
<symbol id="font_2_6">
<path d="M .096 .34700004 C .096 .42900003 .103 .503 .141 .564 C .17500001 .61800006 .22900002 .65500006 .293 .65500006 C .323 .65500006 .36300005 .647 .38300003 .62 C .35800005 .61800006 .33700005 .601 .33700005 .572 C .33700005 .547 .35400004 .525 .38400004 .525 C .41400004 .525 .43200005 .545 .43200005 .574 C .43200005 .632 .39000006 .684 .29100005 .684 C .147 .684 0 .552 0 .337 C 0 .078 .12200001 0 .23200001 0 C .35400004 0 .46 .09300001 .46 .224 C .46 .35100005 .35900004 .44500003 .242 .44500003 C .162 .44500003 .118 .39200003 .096 .34700004 M .23200001 .032 C .18200001 .032 .143 .061000006 .12200001 .105000007 C .10700001 .135 .09900001 .185 .09900001 .245 C .09900001 .34200005 .157 .41700004 .237 .41700004 C .28300003 .41700004 .31400005 .39900003 .33900003 .36200003 C .36300005 .32400004 .36400003 .28200004 .36400003 .224 C .36400003 .167 .36400003 .125 .33700005 .086 C .31300003 .051000004 .28100003 .032 .23200001 .032 Z "/>
</symbol>
<use xlink:href="#font_2_6" transform="matrix(6.9738,0,0,-6.9738,9.036586,29.73148)"/>
<use xlink:href="#font_0_9" transform="matrix(9.9626,0,0,-9.9626,16.454907,26.772974)"/>
<use xlink:href="#font_0_1" transform="matrix(9.9626,0,0,-9.9626,27.304179,28.098)"/>
<use xlink:href="#font_0_3" transform="matrix(9.9626,0,0,-9.9626,31.817236,28.317177)"/>
<path transform="matrix(1,0,0,-1,42.095,112.406)" stroke-width="1.19553" stroke-linecap="butt" stroke-miterlimit="10" stroke-linejoin="miter" fill="none" stroke="#cc6600" d="M 7.4821 14.87518 C 7.4821 14.87518 14.57729 17.22618 17.30237 18.12912 C 20.02745 19.03207 24.39755 20.48013 27.12263 21.38309 C 29.8477 22.28603 34.21782 23.73409 36.9429 24.63704 C 39.66797 25.53998 44.0381 26.98804 46.76318 27.89099 C 49.48825 28.79395 53.85837 30.24197 56.58345 31.14493 C 59.30852 32.04788 63.67863 33.49593 66.4037 34.39888 C 69.12878 35.30183 73.4989 36.74988 76.22397 37.65283 C 78.94905 38.55579 83.31918 40.00383 86.04425 40.90678 C 88.76933 41.80974 93.13945 43.25777 95.86452 44.16072 C 98.5896 45.06367 102.9597 46.51172 105.68478 47.41467 C 108.40987 48.31763 112.77997 49.76567 115.50505 50.66862 C 118.23013 51.57158 122.60025 53.01962 125.32533 53.92258 C 128.0504 54.82553 132.42052 56.27356 135.1456 57.17651 C 137.87067 58.07947 142.24079 59.52753 144.96587 60.43047 C 147.69094 61.33342 152.06105 62.78148 154.78614 63.68442 C 157.5112 64.58737 161.88134 66.03543 164.6064 66.93837 C 167.33148 67.84132 171.7016 69.28937 174.42667 70.19232 C 177.15175 71.09526 181.52187 72.54332 184.24694 73.44627 C 186.97202 74.34921 191.34214 75.79727 194.0672 76.70023 C 196.79228 77.60318 201.1624 79.05122 203.88748 79.95418 C 206.61257 80.85713 210.98267 82.30516 213.70775 83.20811 C 216.43283 84.11107 220.80294 85.55911 223.52802 86.46207 C 226.25308 87.36502 230.6232 88.81306 233.34828 89.71602 C 236.07335 90.61897 243.16857 92.96997 243.16857 92.96997 "/>
<path transform="matrix(1,0,0,-1,42.095,112.406)" stroke-width="1.19553" stroke-linecap="butt" stroke-miterlimit="10" stroke-linejoin="miter" fill="none" stroke="#bcb438" d="M 7.4821 16.9383 C 7.4821 16.9383 8.02449 17.2156 8.2328 17.316 C 8.44112 17.41637 8.77519 17.57076 8.9835 17.66182 C 9.19182 17.75288 9.52591 17.8915 9.73422 17.97234 C 9.94254 18.05318 10.27663 18.17464 10.48494 18.24452 C 10.69325 18.3144 11.02733 18.41772 11.23564 18.47607 C 11.44395 18.53444 11.77805 18.61876 11.98636 18.66525 C 12.19467 18.71176 12.52875 18.7768 12.73706 18.81131 C 12.94537 18.84584 13.27946 18.89151 13.48778 18.91414 C 13.69609 18.93678 14.03017 18.96342 14.23848 18.97446 C 14.4468 18.9855 14.78087 18.99374 14.98918 18.99373 C 15.1975 18.99371 15.5316 18.9846 15.73991 18.97433 C 15.94823 18.96408 16.2823 18.93918 16.49062 18.91966 C 16.69893 18.90015 17.033 18.86119 17.24132 18.83362 C 17.44963 18.80605 17.78372 18.7551 17.99203 18.72089 C 18.20035 18.68666 18.53442 18.62619 18.74274 18.58688 C 18.95105 18.54759 19.28513 18.48022 19.49344 18.43756 C 19.70175 18.39488 20.03584 18.3235 20.24416 18.27931 C 20.45247 18.23512 20.78656 18.16277 20.99487 18.119 C 21.20319 18.07524 21.53726 18.00513 21.74557 17.96379 C 21.95389 17.92245 22.28798 17.85796 22.49629 17.82106 C 22.7046 17.78416 23.03868 17.72835 23.247 17.69786 C 23.4553 17.66739 23.78938 17.62344 23.9977 17.60138 C 24.20601 17.5793 24.5401 17.5505 24.74841 17.53874 C 24.95673 17.52698 25.2908 17.51631 25.49911 17.51653 C 25.70743 17.51675 26.04153 17.52666 26.24985 17.54047 C 26.45816 17.55426 26.79224 17.58728 27.00055 17.61609 C 27.20886 17.6449 27.54294 17.70316 27.75125 17.74818 C 27.95956 17.79321 28.29366 17.87856 28.50197 17.9407 C 28.71028 18.00284 29.04436 18.11627 29.25267 18.19612 C 29.46098 18.27597 29.79506 18.4183 30.00337 18.51628 C 30.21169 18.61426 30.54578 18.7861 30.75409 18.90228 C 30.9624 19.01848 31.2965 19.21959 31.5048 19.35371 C 31.71312 19.48782 32.0472 19.71747 32.25551 19.86891 C 32.46382 20.02036 32.79791 20.2774 33.00623 20.4453 C 33.21454 20.61319 33.54861 20.8959 33.75693 21.07903 C 33.96524 21.26215 34.29932 21.56833 34.50763 21.76521 C 34.71594 21.9621 35.05003 22.28923 35.25835 22.4981 C 35.46666 22.70697 35.80074 23.05191 36.00905 23.27074 C 36.21736 23.48958 36.55145 23.84882 36.75977 24.0753 C 36.96808 24.3018 37.30217 24.67148 37.51048 24.90323 C 37.7188 25.135 38.05287 25.51122 38.26118 25.74564 C 38.4695 25.98007 38.80357 26.35854 39.01189 26.59294 C 39.2202 26.82733 39.55428 27.20352 39.76259 27.4351 C 39.9709 27.6667 40.30498 28.03613 40.51329 28.26215 C 40.7216 28.48814 41.05568 28.84644 41.26399 29.06406 C 41.4723 29.2817 41.8064 29.6242 42.01471 29.83076 C 42.22302 30.03731 42.5571 30.35986 42.76541 30.55281 C 42.97372 30.74574 43.30782 31.04448 43.51613 31.22145 C 43.72444 31.39842 44.05852 31.66956 44.26683 31.82831 C 44.47514 31.98706 44.80922 32.22713 45.01753 32.36575 C 45.22585 32.50438 45.55992 32.7106 45.76823 32.8275 C 45.97655 32.94438 46.31062 33.11436 46.51894 33.20822 C 46.72725 33.30208 47.06134 33.4341 47.26965 33.504 C 47.47797 33.5739 47.81204 33.66673 48.02036 33.71207 C 48.22867 33.7574 48.56274 33.81015 48.77106 33.83076 C 48.97937 33.85138 49.31345 33.86449 49.52176 33.86072 C 49.73007 33.85695 50.06415 33.83104 50.27246 33.80351 C 50.48077 33.77597 50.81487 33.7125 51.02318 33.66223 C 51.23149 33.61198 51.56557 33.51274 51.77388 33.44122 C 51.9822 33.36972 52.31628 33.23763 52.5246 33.14679 C 52.73291 33.05597 53.06699 32.89445 53.2753 32.78654 C 53.48361 32.67862 53.81769 32.49146 54.026 32.36896 C 54.23431 32.24646 54.56839 32.03786 54.7767 31.90366 C 54.98502 31.76945 55.31909 31.54442 55.5274 31.40164 C 55.73572 31.25887 56.0698 31.02263 56.2781 30.87456 C 56.48642 30.72649 56.8205 30.4844 57.02881 30.33446 C 57.23712 30.18452 57.57121 29.94211 57.77953 29.7939 C 57.98784 29.64568 58.32191 29.40903 58.53023 29.26617 C 58.73854 29.12332 59.07263 28.89815 59.28094 28.7642 C 59.48926 28.63026 59.82333 28.42227 60.03165 28.30069 C 60.23996 28.17912 60.57404 27.99379 60.78235 27.888 C 60.99066 27.78221 61.32474 27.62502 61.53305 27.53818 C 61.74136 27.45134 62.07544 27.3271 62.28375 27.26212 C 62.49207 27.19713 62.82616 27.11029 63.03447 27.0697 C 63.24278 27.02911 63.57686 26.98349 63.78517 26.96953 C 63.99348 26.95558 64.32756 26.9545 64.53587 26.96907 C 64.74419 26.98366 65.07826 27.03012 65.28658 27.07466 C 65.49489 27.11919 65.82896 27.21468 66.03728 27.29002 C 66.24559 27.36536 66.57968 27.51108 66.788 27.61768 C 66.9963 27.72426 67.33038 27.92052 67.5387 28.05838 C 67.74701 28.19623 68.0811 28.44275 68.28941 28.61128 C 68.49773 28.77983 68.8318 29.07513 69.04012 29.27322 C 69.24843 29.47133 69.5825 29.81308 69.79082 30.0391 C 69.99913 30.26509 70.3332 30.6503 70.54152 30.90218 C 70.74983 31.15405 71.08391 31.57927 71.29222 31.85452 C 71.50053 32.12978 71.83461 32.59045 72.04292 32.88605 C 72.25124 33.18166 72.58531 33.67245 72.79362 33.98506 C 73.00194 34.29768 73.33603 34.81323 73.54434 35.13916 C 73.75266 35.46507 74.08673 35.9989 74.29504 36.33412 C 74.50336 36.66934 74.83745 37.2148 75.04576 37.55522 C 75.25407 37.89563 75.58815 38.44641 75.79646 38.78772 C 76.00478 39.12903 76.33885 39.67747 76.54716 40.01523 C 76.75548 40.353 77.08955 40.89233 77.29787 41.22212 C 77.50618 41.5519 77.84026 42.07472 78.04857 42.39212 C 78.25688 42.70952 78.59097 43.20895 78.79929 43.50978 C 79.0076 43.81062 79.34167 44.28006 79.54999 44.56035 C 79.7583 44.84064 80.09238 45.27399 80.30069 45.52998 C 80.509 45.78596 80.84308 46.17715 81.05139 46.40536 C 81.2597 46.63358 81.59378 46.97739 81.8021 47.17485 C 82.0104 47.3723 82.3445 47.66434 82.55281 47.82854 C 82.76112 47.99274 83.0952 48.22939 83.30351 48.35829 C 83.51183 48.4872 83.84592 48.6656 84.05423 48.7577 C 84.26254 48.84982 84.59662 48.96783 84.80493 49.02219 C 85.01324 49.07655 85.34732 49.13318 85.55563 49.14954 C 85.76395 49.1659 86.09802 49.16145 86.30634 49.14012 C 86.51465 49.1188 86.84872 49.0539 87.05704 48.99576 C 87.26535 48.93762 87.59943 48.81454 87.80774 48.72115 C 88.01605 48.62775 88.35014 48.44905 88.55844 48.32251 C 88.76675 48.19597 89.10085 47.96602 89.30916 47.80905 C 89.51747 47.6521 89.85155 47.37532 90.05986 47.19118 C 90.26817 47.00703 90.60226 46.68942 90.81058 46.48181 C 91.01889 46.27419 91.35297 45.92169 91.56128 45.69476 C 91.76959 45.46785 92.10367 45.08803 92.31198 44.84631 C 92.5203 44.6046 92.85437 44.20438 93.06268 43.95267 C 93.271 43.70096 93.60509 43.28874 93.81339 43.03209 C 94.0217 42.77545 94.35579 42.3593 94.5641 42.10292 C 94.77242 41.84654 95.10649 41.43509 95.3148 41.18423 C 95.52312 40.93338 95.8572 40.53497 96.0655 40.2949 C 96.27382 40.05484 96.6079 39.6781 96.81621 39.4539 C 97.02452 39.2297 97.3586 38.88235 97.56691 38.679 C 97.77522 38.47563 98.10931 38.16594 98.31763 37.98814 C 98.52594 37.81033 98.86003 37.54543 99.06833 37.39745 C 99.27664 37.24948 99.61073 37.0359 99.81905 36.9216 C 100.02736 36.8073 100.36143 36.65079 100.56975 36.57355 C 100.77806 36.4963 101.11214 36.40213 101.32045 36.36485 C 101.52876 36.32758 101.86284 36.29994 102.07115 36.30481 C 102.27946 36.30968 102.61354 36.35141 102.82185 36.39995 C 103.03017 36.44849 103.36424 36.5616 103.57256 36.65466 C 103.78087 36.74774 104.11496 36.93295 104.32326 37.07074 C 104.53157 37.20854 104.86566 37.46585 105.07397 37.64786 C 105.28229 37.82988 105.61636 38.15775 105.82468 38.38264 C 106.03299 38.60754 106.36708 39.00313 106.5754 39.26888 C 106.7837 39.53462 107.11778 39.99408 107.3261 40.29796 C 107.53441 40.60184 107.86848 41.12018 108.0768 41.459 C 108.28511 41.79782 108.61919 42.37016 108.8275 42.73997 C 109.03581 43.10979 109.3699 43.7282 109.5782 44.12444 C 109.78651 44.52068 110.1206 45.1781 110.32892 45.59581 C 110.53723 46.0135 110.8713 46.70117 111.07962 47.13504 C 111.28793 47.5689 111.62201 48.27852 111.83032 48.72284 C 112.03864 49.16716 112.37271 49.88869 112.58102 50.33751 C 112.78934 50.78633 113.12341 51.51033 113.33173 51.95764 C 113.54004 52.40497 113.87413 53.1218 114.08244 53.56151 C 114.29076 54.0012 114.62485 54.70076 114.83315 55.12672 C 115.04146 55.5527 115.37555 56.22528 115.58386 56.63168 C 115.79218 57.03807 116.12625 57.67456 116.33456 58.05574 C 116.54288 58.43692 116.87695 59.02832 117.08527 59.37901 C 117.29358 59.7297 117.62766 60.26808 117.83597 60.58333 C 118.04428 60.89857 118.37836 61.37573 118.58667 61.65117 C 118.79498 61.92662 119.12906 62.33665 119.33737 62.56859 C 119.54568 62.80052 119.87978 63.13756 120.08809 63.32292 C 120.29639 63.50829 120.63048 63.76817 120.83879 63.9046 C 121.0471 64.04102 121.38118 64.22043 121.5895 64.30618 C 121.7978 64.39194 122.1319 64.48837 122.34021 64.52269 C 122.54852 64.55702 122.8826 64.5706 123.09091 64.55365 C 123.29922 64.53668 123.6333 64.46785 123.84161 64.40033 C 124.04993 64.33282 124.384 64.1835 124.59232 64.06705 C 124.80063 63.95058 125.13472 63.72383 125.34303 63.56091 C 125.55133 63.398 125.88542 63.09883 126.09373 62.89273 C 126.30205 62.68665 126.63612 62.32076 126.84444 62.07547 C 127.05275 61.8302 127.38683 61.40466 127.59514 61.12482 C 127.80345 60.84499 128.13753 60.36769 128.34584 60.0585 C 128.55416 59.74933 128.88823 59.22917 129.09654 58.89644 C 129.30486 58.56372 129.63895 58.01045 129.84726 57.66035 C 130.05558 57.31026 130.38967 56.73396 130.59798 56.37312 C 130.80628 56.01228 131.14037 55.4244 131.34868 55.05962 C 131.55699 54.69482 131.89107 54.10579 132.09938 53.7439 C 132.3077 53.382 132.64177 52.80319 132.85009 52.4512 C 133.0584 52.0992 133.39247 51.5421 133.60079 51.2068 C 133.8091 50.8715 134.14318 50.34653 134.35149 50.0346 C 134.5598 49.7227 134.89388 49.24083 135.10219 48.9587 C 135.3105 48.67656 135.64459 48.24763 135.8529 48.00116 C 136.0612 47.7547 136.3953 47.38774 136.6036 47.18231 C 136.81192 46.97688 137.146 46.68018 137.35431 46.52058 C 137.56262 46.361 137.89672 46.1416 138.10503 46.03207 C 138.31334 45.92255 138.64742 45.78726 138.85573 45.7311 C 139.06404 45.67494 139.39812 45.62767 139.60643 45.62729 C 139.81475 45.6269 140.14882 45.67123 140.35713 45.72833 C 140.56545 45.78543 140.89954 45.92348 141.10785 46.03882 C 141.31615 46.15416 141.65024 46.38628 141.85855 46.55968 C 142.06687 46.7331 142.40094 47.05835 142.60926 47.28867 C 142.81757 47.51898 143.15164 47.93446 143.35996 48.2196 C 143.56827 48.50475 143.90235 49.0068 144.11066 49.34381 C 144.31897 49.6808 144.65305 50.26344 144.86136 50.64851 C 145.06967 51.03358 145.40377 51.69063 145.61208 52.1192 C 145.82039 52.54778 146.15448 53.27078 146.3628 53.73743 C 146.5711 54.20406 146.90518 54.98375 147.1135 55.48242 C 147.32181 55.9811 147.65589 56.80737 147.8642 57.33153 C 148.07251 57.8557 148.40659 58.71774 148.6149 59.26031 C 148.82321 59.80289 149.15729 60.68858 149.3656 61.24205 C 149.57392 61.7955 149.90799 62.6925 150.1163 63.24927 C 150.32462 63.80603 150.65869 64.70242 150.867 65.2548 C 151.07532 65.80719 151.40941 66.69037 151.61772 67.23047 C 151.82604 67.77057 152.16011 68.6274 152.36843 69.14745 C 152.57674 69.66751 152.91082 70.48596 153.11913 70.97873 C 153.32744 71.4715 153.66153 72.24055 153.86985 72.69902 C 154.07816 73.15747 154.41223 73.86548 154.62055 74.28308 C 154.82886 74.70067 155.16294 75.33809 155.37125 75.70886 C 155.57956 76.07962 155.91364 76.63666 156.12195 76.95529 C 156.33026 77.27393 156.66436 77.74316 156.87267 78.00536 C 157.08098 78.26755 157.41506 78.64285 157.62337 78.84497 C 157.83168 79.0471 158.16576 79.32289 158.37407 79.46216 C 158.58238 79.60143 158.91646 79.77388 159.12477 79.84874 C 159.33309 79.92358 159.66716 79.99184 159.87548 80.00174 C 160.08379 80.01166 160.41786 79.9749 160.62618 79.92018 C 160.83449 79.86546 161.16857 79.7253 161.37688 79.60739 C 161.58519 79.48949 161.9193 79.249 162.12761 79.07033 C 162.33592 78.89166 162.67 78.55562 162.87831 78.31963 C 163.08663 78.08363 163.4207 77.6582 163.62902 77.36938 C 163.83733 77.08057 164.1714 76.5743 164.37972 76.23798 C 164.58803 75.90166 164.9221 75.32326 165.13042 74.94542 C 165.33873 74.5676 165.6728 73.92738 165.88112 73.51483 C 166.08943 73.10228 166.42351 72.41174 166.63182 71.97202 C 166.84014 71.53227 167.17423 70.80455 167.38254 70.34549 C 167.59085 69.88643 167.92493 69.13342 168.13324 68.66338 C 168.34156 68.19333 168.67563 67.43018 168.88394 66.95769 C 169.09226 66.48518 169.42635 65.7243 169.63466 65.25795 C 169.84297 64.7916 170.17705 64.04802 170.38536 63.59645 C 170.59368 63.14488 170.92775 62.4316 171.13607 62.00325 C 171.34438 61.5749 171.67845 60.9061 171.88677 60.50916 C 172.09508 60.11221 172.42917 59.50021 172.63748 59.14238 C 172.8458 58.78453 173.17987 58.24174 173.38819 57.93007 C 173.5965 57.61838 173.93058 57.15497 174.13889 56.89592 C 174.3472 56.63687 174.68128 56.2637 174.88959 56.06305 C 175.0979 55.8624 175.43198 55.58723 175.64029 55.44968 C 175.8486 55.31213 176.18268 55.14229 176.39099 55.07169 C 176.5993 55.00108 176.93338 54.94188 177.1417 54.94084 C 177.35 54.9398 177.68412 54.994 177.89243 55.06416 C 178.10074 55.13431 178.43482 55.30447 178.64313 55.44658 C 178.85144 55.58868 179.18552 55.8751 179.39383 56.08847 C 179.60214 56.30183 179.93622 56.70161 180.14453 56.98433 C 180.35285 57.26706 180.68692 57.77698 180.89524 58.1262 C 181.10355 58.47542 181.43762 59.08954 181.64594 59.50134 C 181.85425 59.91315 182.18833 60.62482 182.39664 61.09424 C 182.60495 61.56366 182.93904 62.36366 183.14736 62.88463 C 183.35567 63.40561 183.68975 64.28343 183.89806 64.8491 C 184.10637 65.4148 184.44045 66.35886 184.64876 66.96169 C 184.85707 67.5645 185.19116 68.56213 185.39948 69.19383 C 185.60779 69.82553 185.94187 70.86284 186.15018 71.51466 C 186.35849 72.16647 186.69257 73.22906 186.90088 73.8917 C 187.10919 74.5543 187.44327 75.62637 187.65158 76.29047 C 187.8599 76.95456 188.19399 78.0219 188.4023 78.67813 C 188.61061 79.33438 188.94469 80.38142 189.153 81.02022 C 189.36132 81.659 189.69539 82.67009 189.9037 83.28207 C 190.11202 83.89406 190.44609 84.8545 190.6544 85.43102 C 190.86272 86.00754 191.1968 86.90456 191.4051 87.43724 C 191.61342 87.96994 191.9475 88.78941 192.1558 89.27036 C 192.36412 89.7513 192.6982 90.48125 192.90651 90.90358 C 193.11483 91.32593 193.44893 91.95665 193.65724 92.31439 C 193.86556 92.67212 194.19963 93.19394 194.40795 93.48198 C 194.61626 93.77 194.95034 94.17618 195.15865 94.39041 C 195.36696 94.60466 195.70104 94.88847 195.90935 95.02612 C 196.11766 95.16379 196.45174 95.32306 196.66005 95.38257 C 196.86837 95.4421 197.20244 95.47414 197.41075 95.4551 C 197.61907 95.43607 197.95314 95.34209 198.16146 95.2453 C 198.36977 95.14851 198.70386 94.92993 198.91217 94.75746 C 199.12049 94.585 199.45456 94.24701 199.66287 94.00226 C 199.87119 93.7575 200.20526 93.30585 200.41358 92.99338 C 200.62189 92.68092 200.95598 92.12471 201.16429 91.75018 C 201.3726 91.37566 201.70668 90.72412 201.915 90.294 C 202.1233 89.8639 202.45738 89.12827 202.6657 88.65022 C 202.87401 88.17218 203.20809 87.36604 203.4164 86.84857 C 203.62471 86.33112 203.9588 85.46838 204.16712 84.92062 C 204.37543 84.37288 204.7095 83.46907 204.91782 82.90063 C 205.12613 82.3322 205.4602 81.40279 205.66852 80.82368 C 205.87683 80.24458 206.2109 79.3063 206.41922 78.7268 C 206.62754 78.14731 206.96161 77.21663 207.16992 76.647 C 207.37824 76.07736 207.71231 75.17061 207.92063 74.62122 C 208.12894 74.07181 208.46302 73.20638 208.67133 72.68726 C 208.87964 72.16812 209.21375 71.35889 209.42206 70.87961 C 209.63037 70.40034 209.96445 69.66336 210.17276 69.23297 C 210.38108 68.80257 210.71515 68.15091 210.92346 67.77757 C 211.13178 67.40424 211.46585 66.85097 211.67417 66.54224 C 211.88248 66.23349 212.21656 65.78993 212.42487 65.55235 C 212.63318 65.31477 212.96726 64.99101 213.17557 64.82985 C 213.38388 64.66867 213.71796 64.47128 213.92627 64.39064 C 214.13459 64.31001 214.46868 64.24583 214.67699 64.24867 C 214.8853 64.25153 215.21938 64.32324 215.42769 64.41113 C 215.636 64.49904 215.97008 64.70892 216.17839 64.88225 C 216.3867 65.05559 216.7208 65.40294 216.92911 65.66045 C 217.13742 65.91797 217.4715 66.39912 217.67981 66.7383 C 217.88813 67.07748 218.2222 67.68791 218.43051 68.10513 C 218.63883 68.52235 218.9729 69.25523 219.18122 69.74533 C 219.38953 70.23543 219.72362 71.08076 219.93193 71.63744 C 220.14025 72.19409 220.47432 73.14162 220.68264 73.75749 C 220.89095 74.37338 221.22502 75.40952 221.43334 76.07634 C 221.64165 76.74318 221.97573 77.85507 222.18404 78.56363 C 222.39235 79.2722 222.72643 80.44301 222.93474 81.18324 C 223.14305 81.92346 223.47713 83.13733 223.68544 83.89876 C 223.89376 84.66017 224.22783 85.89943 224.43614 86.67114 C 224.64446 87.44286 224.97856 88.68997 225.18688 89.4608 C 225.39519 90.23164 225.72927 91.46803 225.93758 92.22678 C 226.14589 92.98552 226.47997 94.19368 226.68828 94.92934 C 226.89659 95.665 227.23067 96.82718 227.43898 97.52887 C 227.6473 98.23055 227.98137 99.32909 228.18968 99.98656 C 228.398 100.64403 228.73207 101.66405 228.94039 102.26755 C 229.1487 102.87105 229.48278 103.79552 229.69109 104.33621 C 229.8994 104.87692 230.23349 105.69444 230.4418 106.16458 C 230.65012 106.6347 230.98419 107.33202 231.1925 107.72467 C 231.40082 108.11734 231.9432 108.99467 231.9432 108.99467 "/>
<path transform="matrix(1,0,0,-1,42.095,112.406)" d="M 39.40309 24.79199 C 39.40309 25.89246 38.51102 26.78455 37.41054 26.78455 C 36.31007 26.78455 35.41798 25.89246 35.41798 24.79199 C 35.41798 23.69151 36.31007 22.79944 37.41054 22.79944 C 38.51102 22.79944 39.40309 23.69151 39.40309 24.79199 Z M 37.41054 24.79199 " fill="#000080"/>
<path transform="matrix(1,0,0,-1,42.095,112.406)" stroke-width="1.59404" stroke-linecap="butt" stroke-miterlimit="10" stroke-linejoin="miter" fill="none" stroke="#000080" d="M 39.40309 24.79199 C 39.40309 25.89246 38.51102 26.78455 37.41054 26.78455 C 36.31007 26.78455 35.41798 25.89246 35.41798 24.79199 C 35.41798 23.69151 36.31007 22.79944 37.41054 22.79944 C 38.51102 22.79944 39.40309 23.69151 39.40309 24.79199 Z M 37.41054 24.79199 "/>
<path transform="matrix(1,0,0,-1,42.095,112.406)" d="M 76.81364 37.18799 C 76.81364 38.28845 75.92155 39.18054 74.82109 39.18054 C 73.72061 39.18054 72.82854 38.28845 72.82854 37.18799 C 72.82854 36.08751 73.72061 35.19543 74.82109 35.19543 C 75.92155 35.19543 76.81364 36.08751 76.81364 37.18799 Z M 74.82109 37.18799 " fill="#000080"/>
<path transform="matrix(1,0,0,-1,42.095,112.406)" stroke-width="1.59404" stroke-linecap="butt" stroke-miterlimit="10" stroke-linejoin="miter" fill="none" stroke="#000080" d="M 76.81364 37.18799 C 76.81364 38.28845 75.92155 39.18054 74.82109 39.18054 C 73.72061 39.18054 72.82854 38.28845 72.82854 37.18799 C 72.82854 36.08751 73.72061 35.19543 74.82109 35.19543 C 75.92155 35.19543 76.81364 36.08751 76.81364 37.18799 Z M 74.82109 37.18799 "/>
<path transform="matrix(1,0,0,-1,42.095,112.406)" d="M 114.2242 49.58398 C 114.2242 50.68445 113.3321 51.57654 112.23164 51.57654 C 111.13116 51.57654 110.23909 50.68445 110.23909 49.58398 C 110.23909 48.4835 111.13116 47.59143 112.23164 47.59143 C 113.3321 47.59143 114.2242 48.4835 114.2242 49.58398 Z M 112.23164 49.58398 " fill="#000080"/>
<path transform="matrix(1,0,0,-1,42.095,112.406)" stroke-width="1.59404" stroke-linecap="butt" stroke-miterlimit="10" stroke-linejoin="miter" fill="none" stroke="#000080" d="M 114.2242 49.58398 C 114.2242 50.68445 113.3321 51.57654 112.23164 51.57654 C 111.13116 51.57654 110.23909 50.68445 110.23909 49.58398 C 110.23909 48.4835 111.13116 47.59143 112.23164 47.59143 C 113.3321 47.59143 114.2242 48.4835 114.2242 49.58398 Z M 112.23164 49.58398 "/>
<path transform="matrix(1,0,0,-1,42.095,112.406)" d="M 151.63474 61.97998 C 151.63474 63.08044 150.74266 63.97253 149.64218 63.97253 C 148.54172 63.97253 147.64963 63.08044 147.64963 61.97998 C 147.64963 60.8795 148.54172 59.98743 149.64218 59.98743 C 150.74266 59.98743 151.63474 60.8795 151.63474 61.97998 Z M 149.64218 61.97998 " fill="#000080"/>
<path transform="matrix(1,0,0,-1,42.095,112.406)" stroke-width="1.59404" stroke-linecap="butt" stroke-miterlimit="10" stroke-linejoin="miter" fill="none" stroke="#000080" d="M 151.63474 61.97998 C 151.63474 63.08044 150.74266 63.97253 149.64218 63.97253 C 148.54172 63.97253 147.64963 63.08044 147.64963 61.97998 C 147.64963 60.8795 148.54172 59.98743 149.64218 59.98743 C 150.74266 59.98743 151.63474 60.8795 151.63474 61.97998 Z M 149.64218 61.97998 "/>
<path transform="matrix(1,0,0,-1,42.095,112.406)" d="M 189.04529 74.37598 C 189.04529 75.47644 188.15322 76.36853 187.05274 76.36853 C 185.95227 76.36853 185.06018 75.47644 185.06018 74.37598 C 185.06018 73.2755 185.95227 72.38342 187.05274 72.38342 C 188.15322 72.38342 189.04529 73.2755 189.04529 74.37598 Z M 187.05274 74.37598 " fill="#000080"/>
<path transform="matrix(1,0,0,-1,42.095,112.406)" stroke-width="1.59404" stroke-linecap="butt" stroke-miterlimit="10" stroke-linejoin="miter" fill="none" stroke="#000080" d="M 189.04529 74.37598 C 189.04529 75.47644 188.15322 76.36853 187.05274 76.36853 C 185.95227 76.36853 185.06018 75.47644 185.06018 74.37598 C 185.06018 73.2755 185.95227 72.38342 187.05274 72.38342 C 188.15322 72.38342 189.04529 73.2755 189.04529 74.37598 Z M 187.05274 74.37598 "/>
<path transform="matrix(1,0,0,-1,42.095,112.406)" d="M 226.45584 86.77197 C 226.45584 87.87244 225.56375 88.76453 224.46329 88.76453 C 223.36281 88.76453 222.47074 87.87244 222.47074 86.77197 C 222.47074 85.67151 223.36281 84.77942 224.46329 84.77942 C 225.56375 84.77942 226.45584 85.67151 226.45584 86.77197 Z M 224.46329 86.77197 " fill="#000080"/>
<path transform="matrix(1,0,0,-1,42.095,112.406)" stroke-width="1.59404" stroke-linecap="butt" stroke-miterlimit="10" stroke-linejoin="miter" fill="none" stroke="#000080" d="M 226.45584 86.77197 C 226.45584 87.87244 225.56375 88.76453 224.46329 88.76453 C 223.36281 88.76453 222.47074 87.87244 222.47074 86.77197 C 222.47074 85.67151 223.36281 84.77942 224.46329 84.77942 C 225.56375 84.77942 226.45584 85.67151 226.45584 86.77197 Z M 224.46329 86.77197 "/>
<symbol id="font_1_2">
<path d="M .305 .31300003 C .311 .33900003 .334 .43100003 .404 .43100003 C .409 .43100003 .433 .43100003 .454 .418 C .426 .41300003 .40600003 .388 .40600003 .36400003 C .40600003 .34800003 .417 .32900004 .444 .32900004 C .46600003 .32900004 .498 .34700004 .498 .38700003 C .498 .43900005 .439 .45300005 .405 .45300005 C .347 .45300005 .312 .40000005 .3 .37700004 C .275 .44300003 .221 .45300005 .19200002 .45300005 C .08800001 .45300005 .031000002 .32400004 .031000002 .29900003 C .031000002 .28900004 .041 .28900004 .043000007 .28900004 C .051000008 .28900004 .054000006 .291 .056 .3 C .09 .40600003 .156 .43100003 .19000001 .43100003 C .209 .43100003 .244 .42200003 .244 .36400003 C .244 .33300004 .22700002 .26600004 .19000001 .126 C .17400001 .064 .13900002 .022000002 .095000009 .022000002 C .08900001 .022000002 .06600001 .022000002 .045 .035 C .07000001 .040000004 .09200001 .061 .09200001 .089 C .09200001 .116000007 .07000001 .124000009 .055000009 .124000009 C .025 .124000009 0 .098000008 0 .06600001 C 0 .020000002 .050000006 0 .094000007 0 C .16000001 0 .19600001 .07000001 .19900002 .076000008 C .21100001 .039 .24700003 0 .307 0 C .41 0 .467 .12900001 .467 .15400002 C .467 .16400002 .458 .16400002 .455 .16400002 C .446 .16400002 .444 .16000001 .442 .15300001 C .409 .046 .341 .022000002 .30900003 .022000002 C .27 .022000002 .254 .054 .254 .08800001 C .254 .11000001 .26 .13200002 .271 .17600002 L .305 .31300003 Z "/>
</symbol>
<use xlink:href="#font_1_2" transform="matrix(9.9626,0,0,-9.9626,289.1729,108.461589)"/>
<symbol id="font_1_3">
<path d="M .45700003 .586 C .461 .6 .461 .602 .461 .609 C .461 .62700006 .447 .63600006 .432 .63600006 C .42200003 .63600006 .40600003 .63 .397 .615 C .395 .61 .387 .579 .38300003 .561 C .37600003 .535 .36900003 .508 .363 .48100005 L .318 .301 C .314 .286 .271 .21600002 .20500002 .21600002 C .15400002 .21600002 .143 .26000003 .143 .29700003 C .143 .34300003 .16000001 .40500004 .194 .49300004 C .21000001 .53400006 .21400002 .545 .21400002 .56500008 C .21400002 .61 .18200001 .6470001 .13200002 .6470001 C .037 .6470001 0 .50200006 0 .49300004 C 0 .48300005 .01 .48300005 .012 .48300005 C .022000002 .48300005 .023 .485 .028000003 .50100007 C .055000009 .595 .095000009 .625 .12900001 .625 C .13700001 .625 .15400002 .625 .15400002 .59300008 C .15400002 .568 .14400001 .54200008 .13700001 .523 C .097 .41700004 .079 .36 .079 .31300003 C .079 .224 .142 .194 .201 .194 C .24000003 .194 .274 .21100001 .30200003 .23900002 C .289 .187 .277 .13800001 .237 .08500001 C .21100001 .051 .17300001 .022 .127 .022 C .113000009 .022 .068 .025000006 .051000008 .06400001 C .067 .06400001 .080000009 .06400001 .094000007 .076000008 C .104 .08500001 .11400001 .098000008 .11400001 .117000009 C .11400001 .148 .087000008 .15200001 .07700001 .15200001 C .054000006 .15200001 .021 .136 .021 .087000008 C .021 .037 .065000008 0 .127 0 C .23 0 .333 .091000009 .361 .20400001 L .45700003 .586 Z "/>
</symbol>
<use xlink:href="#font_1_3" transform="matrix(9.9626,0,0,-9.9626,39.762918,9.726332)"/>
</svg>
