<?xml version="1.0" encoding="UTF-8" standalone="no"?>
<!DOCTYPE svg PUBLIC "-//W3C//DTD SVG 1.1//EN" "http://www.w3.org/Graphics/SVG/1.1/DTD/svg11.dtd">
<svg xmlns="http://www.w3.org/2000/svg" xmlns:xlink="http://www.w3.org/1999/xlink" version="1.1" width="66.866pt" height="66.866pt" viewBox="0 0 66.866 66.866">
<path transform="matrix(1,0,0,-1,33.433,33.433)" stroke-width="1" stroke-linecap="butt" stroke-miterlimit="10" stroke-linejoin="miter" fill="none" stroke="#000000" d="M -33.23422 -33.23422 L -33.23422 33.23422 L 33.23422 33.23422 L 33.23422 -33.23422 Z M 33.23422 33.23422 "/>
<path transform="matrix(1,0,0,-1,33.433,33.433)" stroke-width="1.19553" stroke-linecap="butt" stroke-miterlimit="10" stroke-linejoin="miter" fill="none" stroke="#000080" d="M 28.34695 0 C 28.34695 15.65578 15.65578 28.34695 0 28.34695 C -15.65578 28.34695 -28.34695 15.65578 -28.34695 0 C -28.34695 -15.65578 -15.65578 -28.34695 0 -28.34695 C 15.65578 -28.34695 28.34695 -15.65578 28.34695 0 Z M 0 0 "/>
<path transform="matrix(1,0,0,-1,33.433,33.433)" d="M 20.59483 22.67752 C 20.59483 24.65834 18.98907 26.2641 17.00824 26.2641 C 15.0274 26.2641 13.42165 24.65834 13.42165 22.67752 C 13.42165 20.69669 15.0274 19.09093 17.00824 19.09093 C 18.98907 19.09093 20.59483 20.69669 20.59483 22.67752 Z M 17.00824 22.67752 " fill="#000080"/>
<path transform="matrix(1,0,0,-1,33.433,33.433)" stroke-width="1" stroke-linecap="butt" stroke-miterlimit="10" stroke-linejoin="miter" fill="none" stroke="#000080" d="M 20.59483 22.67752 C 20.59483 24.65834 18.98907 26.2641 17.00824 26.2641 C 15.0274 26.2641 13.42165 24.65834 13.42165 22.67752 C 13.42165 20.69669 15.0274 19.09093 17.00824 19.09093 C 18.98907 19.09093 20.59483 20.69669 20.59483 22.67752 Z M 17.00824 22.67752 "/>
<path transform="matrix(1,0,0,-1,33.433,33.433)" d="M -13.42165 22.67752 C -13.42165 24.65834 -15.0274 26.2641 -17.00824 26.2641 C -18.98907 26.2641 -20.59483 24.65834 -20.59483 22.67752 C -20.59483 20.69669 -18.98907 19.09093 -17.00824 19.09093 C -15.0274 19.09093 -13.42165 20.69669 -13.42165 22.67752 Z M -17.00824 22.67752 " fill="#000080"/>
<path transform="matrix(1,0,0,-1,33.433,33.433)" stroke-width="1" stroke-linecap="butt" stroke-miterlimit="10" stroke-linejoin="miter" fill="none" stroke="#000080" d="M -13.42165 22.67752 C -13.42165 24.65834 -15.0274 26.2641 -17.00824 26.2641 C -18.98907 26.2641 -20.59483 24.65834 -20.59483 22.67752 C -20.59483 20.69669 -18.98907 19.09093 -17.00824 19.09093 C -15.0274 19.09093 -13.42165 20.69669 -13.42165 22.67752 Z M -17.00824 22.67752 "/>
<path transform="matrix(1,0,0,-1,33.433,33.433)" d="M -13.42165 -22.67752 C -13.42165 -20.69669 -15.0274 -19.09093 -17.00824 -19.09093 C -18.98907 -19.09093 -20.59483 -20.69669 -20.59483 -22.67752 C -20.59483 -24.65834 -18.98907 -26.2641 -17.00824 -26.2641 C -15.0274 -26.2641 -13.42165 -24.65834 -13.42165 -22.67752 Z M -17.00824 -22.67752 " fill="#000080"/>
<path transform="matrix(1,0,0,-1,33.433,33.433)" stroke-width="1" stroke-linecap="butt" stroke-miterlimit="10" stroke-linejoin="miter" fill="none" stroke="#000080" d="M -13.42165 -22.67752 C -13.42165 -20.69669 -15.0274 -19.09093 -17.00824 -19.09093 C -18.98907 -19.09093 -20.59483 -20.69669 -20.59483 -22.67752 C -20.59483 -24.65834 -18.98907 -26.2641 -17.00824 -26.2641 C -15.0274 -26.2641 -13.42165 -24.65834 -13.42165 -22.67752 Z M -17.00824 -22.67752 "/>
<path transform="matrix(1,0,0,-1,33.433,33.433)" d="M 20.59483 -22.67752 C 20.59483 -20.69669 18.98907 -19.09093 17.00824 -19.09093 C 15.0274 -19.09093 13.42165 -20.69669 13.42165 -22.67752 C 13.42165 -24.65834 15.0274 -26.2641 17.00824 -26.2641 C 18.98907 -26.2641 20.59483 -24.65834 20.59483 -22.67752 Z M 17.00824 -22.67752 " fill="#000080"/>
<path transform="matrix(1,0,0,-1,33.433,33.433)" stroke-width="1" stroke-linecap="butt" stroke-miterlimit="10" stroke-linejoin="miter" fill="none" stroke="#000080" d="M 20.59483 -22.67752 C 20.59483 -20.69669 18.98907 -19.09093 17.00824 -19.09093 C 15.0274 -19.09093 13.42165 -20.69669 13.42165 -22.67752 C 13.42165 -24.65834 15.0274 -26.2641 17.00824 -26.2641 C 18.98907 -26.2641 20.59483 -24.65834 20.59483 -22.67752 Z M 17.00824 -22.67752 "/>
<path transform="matrix(1,0,0,-1,33.433,33.433)" stroke-width="1" stroke-linecap="butt" stroke-miterlimit="10" stroke-linejoin="miter" fill="none" stroke="#000080" d="M 17.00824 22.67752 L -17.00824 22.67752 "/>
<path transform="matrix(1,0,0,-1,33.433,33.433)" stroke-width="1" stroke-linecap="butt" stroke-miterlimit="10" stroke-linejoin="miter" fill="none" stroke="#000080" d="M 17.00824 22.67752 L -17.00824 -22.67752 "/>
<path transform="matrix(1,0,0,-1,33.433,33.433)" stroke-width="1" stroke-linecap="butt" stroke-miterlimit="10" stroke-linejoin="miter" fill="none" stroke="#000080" d="M 17.00824 22.67752 L 17.00824 -22.67752 "/>
<path transform="matrix(1,0,0,-1,33.433,33.433)" stroke-width="1" stroke-linecap="butt" stroke-miterlimit="10" stroke-linejoin="miter" fill="none" stroke="#000080" d="M -17.00824 22.67752 L -17.00824 -22.67752 "/>
<path transform="matrix(1,0,0,-1,33.433,33.433)" stroke-width="1" stroke-linecap="butt" stroke-miterlimit="10" stroke-linejoin="miter" fill="none" stroke="#000080" d="M -17.00824 22.67752 L 17.00824 -22.67752 "/>
<path transform="matrix(1,0,0,-1,33.433,33.433)" stroke-width="1" stroke-linecap="butt" stroke-miterlimit="10" stroke-linejoin="miter" fill="none" stroke="#000080" d="M -17.00824 -22.67752 L 17.00824 -22.67752 "/>
</svg>
