<?xml version="1.0" encoding="UTF-8" standalone="no"?>
<!DOCTYPE svg PUBLIC "-//W3C//DTD SVG 1.1//EN" "http://www.w3.org/Graphics/SVG/1.1/DTD/svg11.dtd">
<svg xmlns="http://www.w3.org/2000/svg" xmlns:xlink="http://www.w3.org/1999/xlink" version="1.1" width="264.988pt" height="125.699pt" viewBox="0 0 264.988 125.699">
<path transform="matrix(1,0,0,-1,8.966,110.312999)" stroke-width="1" stroke-linecap="butt" stroke-miterlimit="10" stroke-linejoin="miter" fill="none" stroke="#808080" d="M 48.63416 -2.12584 L 48.63416 2.12584 M 97.26833 -2.12584 L 97.26833 2.12584 M 145.9025 -2.12584 L 145.9025 2.12584 M 194.53667 -2.12584 L 194.53667 2.12584 "/>
<path transform="matrix(1,0,0,-1,8.966,110.312999)" stroke-width="1" stroke-linecap="butt" stroke-miterlimit="10" stroke-linejoin="miter" fill="none" stroke="#808080" d="M -2.1259 69.418 L 2.1259 69.418 M -2.1259 34.709 L 2.1259 34.709 M -2.1259 17.35449 L 2.1259 17.35449 M -2.1259 8.67723 L 2.1259 8.67723 M -2.1259 4.33861 L 2.1259 4.33861 "/>
<path transform="matrix(1,0,0,-1,8.966,110.312999)" stroke-width="1" stroke-linecap="butt" stroke-miterlimit="10" stroke-linejoin="miter" fill="none" stroke="#000000" d="M 0 0 L 241.17832 0 "/>
<path transform="matrix(1,0,0,-1,250.14432,110.312999)" d="M 1.99252 0 L -1.19551 1.59401 L 0 0 L -1.19551 -1.59401 "/>
<path transform="matrix(1,0,0,-1,8.966,110.312999)" stroke-width="1" stroke-linecap="butt" stroke-miterlimit="10" stroke-linejoin="miter" fill="none" stroke="#000000" d="M 0 0 L 0 97.17606 "/>
<path transform="matrix(0,-1,-1,-0,8.966,13.136932)" d="M 1.99252 0 L -1.19551 1.59401 L 0 0 L -1.19551 -1.59401 "/>
<symbol id="font_0_1">
<path d="M .205 .64000007 C .205 .66400006 .205 .666 .18200003 .666 C .120000008 .60200008 .032000007 .60200008 0 .60200008 L 0 .57100006 C .020000004 .57100006 .07900001 .57100006 .13100001 .597 L .13100001 .079 C .13100001 .043 .128 .031000002 .038000004 .031000002 L .0060000049 .031000002 L .0060000049 0 C .04100001 .003 .128 .003 .168 .003 C .20800002 .003 .29500003 .003 .33000005 0 L .33000005 .031000002 L .29800005 .031000002 C .20800002 .031000002 .205 .042000005 .205 .079 L .205 .64000007 Z "/>
</symbol>
<use xlink:href="#font_0_1" transform="matrix(9.9626,0,0,-9.9626,55.995676,122.378)"/>
<symbol id="font_0_2">
<path d="M .07700001 .07700001 L .18300002 .18 C .33900003 .31800003 .39900003 .372 .39900003 .47200004 C .39900003 .586 .30900003 .666 .18700002 .666 C .074 .666 0 .574 0 .485 C 0 .42900003 .05 .42900003 .053000008 .42900003 C .07000001 .42900003 .105000007 .441 .105000007 .48200003 C .105000007 .508 .08700001 .53400006 .052000006 .53400006 C .044000005 .53400006 .042000008 .53400006 .039 .53300008 C .062000004 .59800007 .11600001 .63500007 .17400001 .63500007 C .26500003 .63500007 .308 .554 .308 .47200004 C .308 .39200003 .25800003 .31300003 .20300003 .25100003 L .011000004 .037 C 0 .026 0 .024 0 0 L .37100003 0 L .39900003 .17400001 L .374 .17400001 C .36900003 .14400001 .36200003 .1 .352 .085 C .345 .07700001 .279 .07700001 .257 .07700001 L .07700001 .07700001 Z "/>
</symbol>
<use xlink:href="#font_0_2" transform="matrix(9.9626,0,0,-9.9626,104.24113,122.378)"/>
<symbol id="font_0_3">
<path d="M .24800003 .37400005 C .33 .40100003 .388 .47100006 .388 .55 C .388 .632 .3 .688 .204 .688 C .10300001 .688 .027000003 .628 .027000003 .55200007 C .027000003 .519 .049000004 .5 .078 .5 C .109000008 .5 .12900001 .522 .12900001 .55100008 C .12900001 .6010001 .082 .6010001 .067 .6010001 C .098 .65000006 .164 .66300007 .20000002 .66300007 C .24100003 .66300007 .29600004 .64100006 .29600004 .55100008 C .29600004 .53900006 .29400004 .48100005 .268 .43700005 C .238 .38900004 .204 .38600005 .17900002 .38500003 C .171 .38400004 .14700002 .38200004 .14000002 .38200004 C .132 .38100005 .125 .38000003 .125 .37000004 C .125 .35900004 .132 .35900004 .14900002 .35900004 L .19300002 .35900004 C .275 .35900004 .312 .29100005 .312 .193 C .312 .057000005 .24300003 .028 .199 .028 C .15600002 .028 .081 .045 .046000005 .104 C .081 .09900001 .11200001 .12100001 .11200001 .15900001 C .11200001 .19500001 .085 .215 .056 .215 C .031999999 .215 0 .201 0 .157 C 0 .06600001 .093 0 .20200002 0 C .32400004 0 .41500003 .091000009 .41500003 .193 C .41500003 .27500005 .35200004 .35300005 .24800003 .37400005 Z "/>
</symbol>
<use xlink:href="#font_0_3" transform="matrix(9.9626,0,0,-9.9626,152.79444,122.597179)"/>
<symbol id="font_0_4">
<path d="M .266 .165 L .266 .078 C .266 .042000005 .26400004 .031000002 .19000001 .031000002 L .16900002 .031000002 L .16900002 0 C .21000001 .003 .26200003 .003 .30400003 .003 C .34600003 .003 .39900003 .003 .44000004 0 L .44000004 .031000002 L .41900004 .031000002 C .34500004 .031000002 .34300003 .042000005 .34300003 .078 L .34300003 .165 L .44300003 .165 L .44300003 .19600001 L .34300003 .19600001 L .34300003 .651 C .34300003 .671 .34300003 .67700007 .32700003 .67700007 C .31800003 .67700007 .31500004 .67700007 .307 .665 L 0 .19600001 L 0 .165 L .266 .165 M .272 .19600001 L .028 .19600001 L .272 .569 L .272 .19600001 Z "/>
</symbol>
<use xlink:href="#font_0_4" transform="matrix(9.9626,0,0,-9.9626,201.28896,122.378)"/>
<path transform="matrix(1,0,0,-1,8.966,110.312999)" stroke-width="1.19553" stroke-linecap="butt" stroke-miterlimit="10" stroke-linejoin="miter" fill="none" stroke="#cc6600" d="M 0 69.418 C 0 69.418 7.17404 62.64185 9.92943 60.2694 C 12.6848 57.89694 17.1035 54.38078 19.85887 52.31895 C 22.61424 50.25713 27.03294 47.19911 29.78831 45.40907 C 32.54369 43.61905 36.96239 40.9706 39.71776 39.41762 C 42.47313 37.86462 46.89183 35.56386 49.6472 34.21613 C 52.40257 32.86838 56.82126 30.87437 59.57663 29.70395 C 62.33202 28.53351 66.7507 26.79688 69.50609 25.78046 C 72.26146 24.76402 76.68016 23.25977 79.43553 22.37828 C 82.1909 21.4968 86.60959 20.1933 89.36496 19.4273 C 92.12033 18.6613 96.53903 17.52213 99.2944 16.85745 C 102.04977 16.19278 106.46848 15.21284 109.22385 14.63678 C 111.97922 14.06071 116.39792 13.20659 119.15329 12.70557 C 121.90868 12.20453 126.32735 11.46098 129.08274 11.02563 C 131.8381 10.5903 136.2568 9.94456 139.01218 9.56787 C 141.76755 9.19118 146.18625 8.6374 148.94162 8.31071 C 151.69699 7.98402 156.11569 7.49765 158.87107 7.21321 C 161.62644 6.92877 166.04512 6.5074 168.80049 6.2606 C 171.55587 6.01382 175.97457 5.6486 178.72994 5.4345 C 181.48532 5.22037 185.904 4.90321 188.6594 4.71733 C 191.41477 4.53146 195.83345 4.25613 198.58882 4.0948 C 201.3442 3.93346 205.7629 3.6945 208.51827 3.55446 C 211.27364 3.41441 215.69234 3.20695 218.44771 3.08539 C 221.20308 2.96382 225.62178 2.78372 228.37715 2.6782 C 231.13253 2.57268 238.30658 2.3248 238.30658 2.3248 "/>
<path transform="matrix(1,0,0,-1,8.966,110.312999)" d="M 1.99255 69.418 C 1.99255 70.51848 1.10046 71.41055 0 71.41055 C -1.10046 71.41055 -1.99255 70.51848 -1.99255 69.418 C -1.99255 68.31754 -1.10046 67.42545 0 67.42545 C 1.10046 67.42545 1.99255 68.31754 1.99255 69.418 Z M 0 69.418 " fill="#000080"/>
<path transform="matrix(1,0,0,-1,8.966,110.312999)" stroke-width="1" stroke-linecap="butt" stroke-miterlimit="10" stroke-linejoin="miter" fill="none" stroke="#000080" d="M 1.99255 69.418 C 1.99255 70.51848 1.10046 71.41055 0 71.41055 C -1.10046 71.41055 -1.99255 70.51848 -1.99255 69.418 C -1.99255 68.31754 -1.10046 67.42545 0 67.42545 C 1.10046 67.42545 1.99255 68.31754 1.99255 69.418 Z M 0 69.418 "/>
<path transform="matrix(1,0,0,-1,8.966,110.312999)" d="M 50.62671 34.709 C 50.62671 35.80946 49.73463 36.70155 48.63416 36.70155 C 47.53369 36.70155 46.6416 35.80946 46.6416 34.709 C 46.6416 33.60852 47.53369 32.71645 48.63416 32.71645 C 49.73463 32.71645 50.62671 33.60852 50.62671 34.709 Z M 48.63416 34.709 " fill="#000080"/>
<path transform="matrix(1,0,0,-1,8.966,110.312999)" stroke-width="1" stroke-linecap="butt" stroke-miterlimit="10" stroke-linejoin="miter" fill="none" stroke="#000080" d="M 50.62671 34.709 C 50.62671 35.80946 49.73463 36.70155 48.63416 36.70155 C 47.53369 36.70155 46.6416 35.80946 46.6416 34.709 C 46.6416 33.60852 47.53369 32.71645 48.63416 32.71645 C 49.73463 32.71645 50.62671 33.60852 50.62671 34.709 Z M 48.63416 34.709 "/>
<path transform="matrix(1,0,0,-1,8.966,110.312999)" d="M 99.26088 17.35449 C 99.26088 18.45497 98.3688 19.34705 97.26833 19.34705 C 96.16786 19.34705 95.27577 18.45497 95.27577 17.35449 C 95.27577 16.25403 96.16786 15.36194 97.26833 15.36194 C 98.3688 15.36194 99.26088 16.25403 99.26088 17.35449 Z M 97.26833 17.35449 " fill="#000080"/>
<path transform="matrix(1,0,0,-1,8.966,110.312999)" stroke-width="1" stroke-linecap="butt" stroke-miterlimit="10" stroke-linejoin="miter" fill="none" stroke="#000080" d="M 99.26088 17.35449 C 99.26088 18.45497 98.3688 19.34705 97.26833 19.34705 C 96.16786 19.34705 95.27577 18.45497 95.27577 17.35449 C 95.27577 16.25403 96.16786 15.36194 97.26833 15.36194 C 98.3688 15.36194 99.26088 16.25403 99.26088 17.35449 Z M 97.26833 17.35449 "/>
<path transform="matrix(1,0,0,-1,8.966,110.312999)" d="M 147.89505 8.67723 C 147.89505 9.77771 147.00298 10.66978 145.9025 10.66978 C 144.80204 10.66978 143.90995 9.77771 143.90995 8.67723 C 143.90995 7.57677 144.80204 6.68468 145.9025 6.68468 C 147.00298 6.68468 147.89505 7.57677 147.89505 8.67723 Z M 145.9025 8.67723 " fill="#000080"/>
<path transform="matrix(1,0,0,-1,8.966,110.312999)" stroke-width="1" stroke-linecap="butt" stroke-miterlimit="10" stroke-linejoin="miter" fill="none" stroke="#000080" d="M 147.89505 8.67723 C 147.89505 9.77771 147.00298 10.66978 145.9025 10.66978 C 144.80204 10.66978 143.90995 9.77771 143.90995 8.67723 C 143.90995 7.57677 144.80204 6.68468 145.9025 6.68468 C 147.00298 6.68468 147.89505 7.57677 147.89505 8.67723 Z M 145.9025 8.67723 "/>
<path transform="matrix(1,0,0,-1,8.966,110.312999)" d="M 196.52922 4.33861 C 196.52922 5.43907 195.63715 6.33116 194.53667 6.33116 C 193.4362 6.33116 192.54412 5.43907 192.54412 4.33861 C 192.54412 3.23813 193.4362 2.34605 194.53667 2.34605 C 195.63715 2.34605 196.52922 3.23813 196.52922 4.33861 Z M 194.53667 4.33861 " fill="#000080"/>
<path transform="matrix(1,0,0,-1,8.966,110.312999)" stroke-width="1" stroke-linecap="butt" stroke-miterlimit="10" stroke-linejoin="miter" fill="none" stroke="#000080" d="M 196.52922 4.33861 C 196.52922 5.43907 195.63715 6.33116 194.53667 6.33116 C 193.4362 6.33116 192.54412 5.43907 192.54412 4.33861 C 192.54412 3.23813 193.4362 2.34605 194.53667 2.34605 C 195.63715 2.34605 196.52922 3.23813 196.52922 4.33861 Z M 194.53667 4.33861 "/>
<symbol id="font_1_2">
<path d="M .059000009 .07000001 C .056 .055000005 .050000006 .032 .050000006 .027000003 C .050000006 .009000001 .064 0 .079 0 C .091000009 0 .10900001 .008000001 .11600001 .028 C .11700001 .030000002 .12900001 .077 .135 .102000009 L .157 .19200002 C .163 .21400002 .16900002 .23600002 .17400001 .259 C .17800002 .27600003 .186 .305 .187 .30900003 C .202 .34000004 .255 .43100003 .35 .43100003 C .395 .43100003 .404 .39400003 .404 .36100004 C .404 .29900003 .355 .17100002 .33900003 .128 C .33 .105000007 .329 .093 .329 .082 C .329 .035 .364 0 .411 0 C .50500008 0 .54200008 .14600002 .54200008 .15400002 C .54200008 .16400002 .53300008 .16400002 .53000006 .16400002 C .52000007 .16400002 .52000007 .16100002 .51500007 .14600002 C .49500004 .078 .462 .022000002 .41300003 .022000002 C .396 .022000002 .389 .032 .389 .055000005 C .389 .080000009 .398 .104 .407 .126 C .426 .17900002 .468 .28900004 .468 .34600003 C .468 .41300003 .425 .45300005 .35300002 .45300005 C .263 .45300005 .21400002 .38900004 .19700001 .36600004 C .19200002 .42200003 .15100001 .45300005 .105000007 .45300005 C .059000009 .45300005 .040000008 .41400004 .030000003 .39600004 C .014 .36200003 0 .30300004 0 .29900003 C 0 .28900004 .01 .28900004 .012 .28900004 C .022000002 .28900004 .023 .29000003 .029000001 .31200005 C .046000005 .38300003 .06600001 .43100003 .10200001 .43100003 C .12200001 .43100003 .133 .418 .133 .38500003 C .133 .36400003 .13000001 .35300002 .11700001 .30100004 L .059000009 .07000001 Z "/>
</symbol>
<use xlink:href="#font_1_2" transform="matrix(9.9626,0,0,-9.9626,255.97692,112.56658)"/>
<symbol id="font_1_1">
<path d="M .33300004 .38900004 C .31500004 .42600004 .286 .45300005 .24100001 .45300005 C .124 .45300005 0 .30600003 0 .16000001 C 0 .06600001 .055000005 0 .133 0 C .153 0 .20300001 .0040000008 .263 .075 C .27100004 .033000005 .30600003 0 .35400004 0 C .38900004 0 .41200004 .023000002 .42800004 .055000005 C .44500003 .091000009 .45800004 .15200001 .45800004 .15400002 C .45800004 .16400002 .44900004 .16400002 .44600005 .16400002 C .43600003 .16400002 .43500004 .16000001 .43200005 .14600002 C .41500003 .081 .397 .022000002 .35600005 .022000002 C .32900004 .022000002 .32600004 .048 .32600004 .068 C .32600004 .09 .32800005 .098000008 .33900003 .14200002 C .35000003 .18400002 .35200004 .19400002 .36100004 .23200003 L .397 .37200005 C .40400005 .40000005 .40400005 .40200005 .40400005 .40600003 C .40400005 .42300005 .39200003 .43300004 .37500004 .43300004 C .35100005 .43300004 .33600004 .411 .33300004 .38900004 M .26800005 .13000001 C .263 .112 .263 .11000001 .24800001 .093 C .20400001 .038000004 .163 .022000002 .135 .022000002 C .08499999 .022000002 .07100001 .077 .07100001 .116000007 C .07100001 .16600001 .103 .28900004 .126 .335 C .157 .39400003 .202 .43100003 .242 .43100003 C .307 .43100003 .32100005 .34900005 .32100005 .34300003 C .32100005 .337 .31900005 .33100004 .31800003 .32600004 L .26800005 .13000001 Z "/>
</symbol>
<use xlink:href="#font_1_1" transform="matrix(9.9626,0,0,-9.9626,6.7315037,7.7195818)"/>
</svg>
