<?xml version="1.0" encoding="UTF-8" standalone="no"?>
<!DOCTYPE svg PUBLIC "-//W3C//DTD SVG 1.1//EN" "http://www.w3.org/Graphics/SVG/1.1/DTD/svg11.dtd">
<svg xmlns="http://www.w3.org/2000/svg" xmlns:xlink="http://www.w3.org/1999/xlink" version="1.1" width="70.452pt" height="74.039pt" viewBox="0 0 70.452 74.039">
<path transform="matrix(1,0,0,-1,33.433,37.02)" stroke-width="1" stroke-linecap="butt" stroke-miterlimit="10" stroke-linejoin="miter" fill="none" stroke="#000000" d="M -33.23407 -36.82066 L -33.23407 36.82066 L 36.82066 36.82066 L 36.82066 -36.82066 Z M 36.82066 36.82066 "/>
<path transform="matrix(1,0,0,-1,33.433,37.02)" stroke-width="1.19553" stroke-linecap="butt" stroke-miterlimit="10" stroke-linejoin="miter" fill="none" stroke="#000080" d="M 28.3468 0 C 28.3468 15.6557 15.6557 28.3468 0 28.3468 C -15.6557 28.3468 -28.3468 15.6557 -28.3468 0 C -28.3468 -15.6557 -15.6557 -28.3468 0 -28.3468 C 15.6557 -28.3468 28.3468 -15.6557 28.3468 0 Z M 0 0 "/>
<path transform="matrix(1,0,0,-1,33.433,37.02)" d="M 31.9334 0 C 31.9334 1.98082 30.32764 3.58658 28.3468 3.58658 C 26.36597 3.58658 24.76021 1.98082 24.76021 0 C 24.76021 -1.98082 26.36597 -3.58658 28.3468 -3.58658 C 30.32764 -3.58658 31.9334 -1.98082 31.9334 0 Z M 28.3468 0 " fill="#000080"/>
<path transform="matrix(1,0,0,-1,33.433,37.02)" stroke-width="1" stroke-linecap="butt" stroke-miterlimit="10" stroke-linejoin="miter" fill="none" stroke="#000080" d="M 31.9334 0 C 31.9334 1.98082 30.32764 3.58658 28.3468 3.58658 C 26.36597 3.58658 24.76021 1.98082 24.76021 0 C 24.76021 -1.98082 26.36597 -3.58658 28.3468 -3.58658 C 30.32764 -3.58658 31.9334 -1.98082 31.9334 0 Z M 28.3468 0 "/>
<path transform="matrix(1,0,0,-1,33.433,37.02)" d="M 3.58658 28.3468 C 3.58658 30.32764 1.98082 31.9334 0 31.9334 C -1.98082 31.9334 -3.58658 30.32764 -3.58658 28.3468 C -3.58658 26.36597 -1.98082 24.76021 0 24.76021 C 1.98082 24.76021 3.58658 26.36597 3.58658 28.3468 Z M 0 28.3468 " fill="#000080"/>
<path transform="matrix(1,0,0,-1,33.433,37.02)" stroke-width="1" stroke-linecap="butt" stroke-miterlimit="10" stroke-linejoin="miter" fill="none" stroke="#000080" d="M 3.58658 28.3468 C 3.58658 30.32764 1.98082 31.9334 0 31.9334 C -1.98082 31.9334 -3.58658 30.32764 -3.58658 28.3468 C -3.58658 26.36597 -1.98082 24.76021 0 24.76021 C 1.98082 24.76021 3.58658 26.36597 3.58658 28.3468 Z M 0 28.3468 "/>
<path transform="matrix(1,0,0,-1,33.433,37.02)" d="M -19.09093 17.00824 C -19.09093 18.98907 -20.69669 20.59483 -22.67752 20.59483 C -24.65834 20.59483 -26.2641 18.98907 -26.2641 17.00824 C -26.2641 15.0274 -24.65834 13.42165 -22.67752 13.42165 C -20.69669 13.42165 -19.09093 15.0274 -19.09093 17.00824 Z M -22.67752 17.00824 " fill="#000080"/>
<path transform="matrix(1,0,0,-1,33.433,37.02)" stroke-width="1" stroke-linecap="butt" stroke-miterlimit="10" stroke-linejoin="miter" fill="none" stroke="#000080" d="M -19.09093 17.00824 C -19.09093 18.98907 -20.69669 20.59483 -22.67752 20.59483 C -24.65834 20.59483 -26.2641 18.98907 -26.2641 17.00824 C -26.2641 15.0274 -24.65834 13.42165 -22.67752 13.42165 C -20.69669 13.42165 -19.09093 15.0274 -19.09093 17.00824 Z M -22.67752 17.00824 "/>
<path transform="matrix(1,0,0,-1,33.433,37.02)" d="M -19.09093 -17.00824 C -19.09093 -15.0274 -20.69669 -13.42165 -22.67752 -13.42165 C -24.65834 -13.42165 -26.2641 -15.0274 -26.2641 -17.00824 C -26.2641 -18.98907 -24.65834 -20.59483 -22.67752 -20.59483 C -20.69669 -20.59483 -19.09093 -18.98907 -19.09093 -17.00824 Z M -22.67752 -17.00824 " fill="#000080"/>
<path transform="matrix(1,0,0,-1,33.433,37.02)" stroke-width="1" stroke-linecap="butt" stroke-miterlimit="10" stroke-linejoin="miter" fill="none" stroke="#000080" d="M -19.09093 -17.00824 C -19.09093 -15.0274 -20.69669 -13.42165 -22.67752 -13.42165 C -24.65834 -13.42165 -26.2641 -15.0274 -26.2641 -17.00824 C -26.2641 -18.98907 -24.65834 -20.59483 -22.67752 -20.59483 C -20.69669 -20.59483 -19.09093 -18.98907 -19.09093 -17.00824 Z M -22.67752 -17.00824 "/>
<path transform="matrix(1,0,0,-1,33.433,37.02)" d="M 3.58658 -28.3468 C 3.58658 -26.36597 1.98082 -24.76021 0 -24.76021 C -1.98082 -24.76021 -3.58658 -26.36597 -3.58658 -28.3468 C -3.58658 -30.32764 -1.98082 -31.9334 0 -31.9334 C 1.98082 -31.9334 3.58658 -30.32764 3.58658 -28.3468 Z M 0 -28.3468 " fill="#000080"/>
<path transform="matrix(1,0,0,-1,33.433,37.02)" stroke-width="1" stroke-linecap="butt" stroke-miterlimit="10" stroke-linejoin="miter" fill="none" stroke="#000080" d="M 3.58658 -28.3468 C 3.58658 -26.36597 1.98082 -24.76021 0 -24.76021 C -1.98082 -24.76021 -3.58658 -26.36597 -3.58658 -28.3468 C -3.58658 -30.32764 -1.98082 -31.9334 0 -31.9334 C 1.98082 -31.9334 3.58658 -30.32764 3.58658 -28.3468 Z M 0 -28.3468 "/>
<path transform="matrix(1,0,0,-1,33.433,37.02)" d="M 23.42924 -20.1264 C 23.42924 -18.14557 21.8235 -16.53983 19.84267 -16.53983 C 17.86183 -16.53983 16.25607 -18.14557 16.25607 -20.1264 C 16.25607 -22.10724 17.86183 -23.713 19.84267 -23.713 C 21.8235 -23.713 23.42924 -22.10724 23.42924 -20.1264 Z M 19.84267 -20.1264 " fill="#000080"/>
<path transform="matrix(1,0,0,-1,33.433,37.02)" stroke-width="1" stroke-linecap="butt" stroke-miterlimit="10" stroke-linejoin="miter" fill="none" stroke="#000080" d="M 23.42924 -20.1264 C 23.42924 -18.14557 21.8235 -16.53983 19.84267 -16.53983 C 17.86183 -16.53983 16.25607 -18.14557 16.25607 -20.1264 C 16.25607 -22.10724 17.86183 -23.713 19.84267 -23.713 C 21.8235 -23.713 23.42924 -22.10724 23.42924 -20.1264 Z M 19.84267 -20.1264 "/>
<path transform="matrix(1,0,0,-1,33.433,37.02)" stroke-width="1" stroke-linecap="butt" stroke-miterlimit="10" stroke-linejoin="miter" fill="none" stroke="#000080" d="M 28.3468 0 L 0 28.3468 "/>
<path transform="matrix(1,0,0,-1,33.433,37.02)" stroke-width="1" stroke-linecap="butt" stroke-miterlimit="10" stroke-linejoin="miter" fill="none" stroke="#000080" d="M 28.3468 0 L -22.67752 17.00824 "/>
<path transform="matrix(1,0,0,-1,33.433,37.02)" stroke-width="1" stroke-linecap="butt" stroke-miterlimit="10" stroke-linejoin="miter" fill="none" stroke="#000080" d="M 28.3468 0 L -22.67752 -17.00824 "/>
<path transform="matrix(1,0,0,-1,33.433,37.02)" stroke-width="1" stroke-linecap="butt" stroke-miterlimit="10" stroke-linejoin="miter" fill="none" stroke="#000080" d="M 28.3468 0 L 0 -28.3468 "/>
<path transform="matrix(1,0,0,-1,33.433,37.02)" stroke-width="1" stroke-linecap="butt" stroke-miterlimit="10" stroke-linejoin="miter" fill="none" stroke="#000080" d="M 28.3468 0 L 19.84267 -20.1264 "/>
<path transform="matrix(1,0,0,-1,33.433,37.02)" stroke-width="1" stroke-linecap="butt" stroke-miterlimit="10" stroke-linejoin="miter" fill="none" stroke="#000080" d="M 0 28.3468 L -22.67752 17.00824 "/>
<path transform="matrix(1,0,0,-1,33.433,37.02)" stroke-width="1" stroke-linecap="butt" stroke-miterlimit="10" stroke-linejoin="miter" fill="none" stroke="#000080" d="M 0 28.3468 L -22.67752 -17.00824 "/>
<path transform="matrix(1,0,0,-1,33.433,37.02)" stroke-width="1" stroke-linecap="butt" stroke-miterlimit="10" stroke-linejoin="miter" fill="none" stroke="#000080" d="M 0 28.3468 L 0 -28.3468 "/>
<path transform="matrix(1,0,0,-1,33.433,37.02)" stroke-width="1" stroke-linecap="butt" stroke-miterlimit="10" stroke-linejoin="miter" fill="none" stroke="#000080" d="M 0 28.3468 L 19.84267 -20.1264 "/>
<path transform="matrix(1,0,0,-1,33.433,37.02)" stroke-width="1" stroke-linecap="butt" stroke-miterlimit="10" stroke-linejoin="miter" fill="none" stroke="#000080" d="M -22.67752 17.00824 L -22.67752 -17.00824 "/>
<path transform="matrix(1,0,0,-1,33.433,37.02)" stroke-width="1" stroke-linecap="butt" stroke-miterlimit="10" stroke-linejoin="miter" fill="none" stroke="#000080" d="M -22.67752 17.00824 L 0 -28.3468 "/>
<path transform="matrix(1,0,0,-1,33.433,37.02)" stroke-width="1" stroke-linecap="butt" stroke-miterlimit="10" stroke-linejoin="miter" fill="none" stroke="#000080" d="M -22.67752 17.00824 L 19.84267 -20.1264 "/>
<path transform="matrix(1,0,0,-1,33.433,37.02)" stroke-width="1" stroke-linecap="butt" stroke-miterlimit="10" stroke-linejoin="miter" fill="none" stroke="#000080" d="M -22.67752 -17.00824 L 0 -28.3468 "/>
<path transform="matrix(1,0,0,-1,33.433,37.02)" stroke-width="1" stroke-linecap="butt" stroke-miterlimit="10" stroke-linejoin="miter" fill="none" stroke="#000080" d="M -22.67752 -17.00824 L 19.84267 -20.1264 "/>
<path transform="matrix(1,0,0,-1,33.433,37.02)" stroke-width="1" stroke-linecap="butt" stroke-miterlimit="10" stroke-linejoin="miter" fill="none" stroke="#000080" d="M 0 -28.3468 L 19.84267 -20.1264 "/>
</svg>
