<?xml version="1.0" encoding="UTF-8" standalone="no"?>
<!DOCTYPE svg PUBLIC "-//W3C//DTD SVG 1.1//EN" "http://www.w3.org/Graphics/SVG/1.1/DTD/svg11.dtd">
<svg xmlns="http://www.w3.org/2000/svg" xmlns:xlink="http://www.w3.org/1999/xlink" version="1.1" width="231.707pt" height="28.129pt" viewBox="0 0 231.707 28.129">
<symbol id="font_0_2">
<path d="M .205 .64000007 C .205 .66400006 .205 .666 .18200003 .666 C .120000008 .60200008 .032000007 .60200008 0 .60200008 L 0 .57100006 C .020000004 .57100006 .07900001 .57100006 .13100001 .597 L .13100001 .079 C .13100001 .043 .128 .031000002 .038000004 .031000002 L .0060000049 .031000002 L .0060000049 0 C .04100001 .003 .128 .003 .168 .003 C .20800002 .003 .29500003 .003 .33000005 0 L .33000005 .031000002 L .29800005 .031000002 C .20800002 .031000002 .205 .042000005 .205 .079 L .205 .64000007 Z "/>
</symbol>
<symbol id="font_0_1">
<path d="M .421 .34200005 C .421 .42200003 .416 .50200006 .381 .57600006 C .335 .67200008 .25300003 .688 .211 .688 C .15100001 .688 .07800001 .66200008 .037000006 .56900009 C .0050000029 .5 0 .42200003 0 .34200005 C 0 .26700003 .0040000008 .177 .045000007 .101 C .088 .020000002 .161 0 .21000001 0 C .264 0 .34 .021000002 .384 .116000007 C .416 .185 .421 .263 .421 .34200005 M .21000001 .022000002 C .171 .022000002 .112 .047000003 .094 .143 C .083000008 .20300001 .083000008 .29500003 .083000008 .35400004 C .083000008 .41800005 .083000008 .48400004 .091000009 .53800007 C .11 .65700009 .185 .66600009 .21000001 .66600009 C .243 .66600009 .30900003 .64800009 .328 .549 C .338 .49300004 .338 .41700004 .338 .35400004 C .338 .279 .338 .21100001 .32700003 .147 C .312 .052 .255 .022000002 .21000001 .022000002 Z "/>
</symbol>
<use xlink:href="#font_0_2" transform="matrix(9.9626,0,0,-9.9626,4.2806718,22.798)"/>
<use xlink:href="#font_0_1" transform="matrix(9.9626,0,0,-9.9626,8.763841,23.017178)"/>
<symbol id="font_1_1">
<path d="M .125 .208 C .11000001 .131 .059999996 .067 .012999997 .026999996 C .0009999946 .015000001 0 .013999999 0 .00999999 C 0 .0069999995 .0029999987 0 .009999998 0 C .027999998 0 .151 .121 .151 .24000001 C .151 .273 .137 .29900003 .105 .29900003 C .065000008 .29900003 .04 .264 .04 .23500002 C .04 .20300001 .063 .193 .084 .193 C .103999998 .193 .12 .20400001 .125 .208 Z "/>
</symbol>
<use xlink:href="#font_1_1" transform="matrix(9.9626,0,0,-9.9626,14.0842709,24.720782)"/>
<symbol id="font_0_4">
<path d="M .24800003 .37400005 C .33 .40100003 .388 .47100006 .388 .55 C .388 .632 .3 .688 .204 .688 C .10300001 .688 .027000003 .628 .027000003 .55200007 C .027000003 .519 .049000004 .5 .078 .5 C .109000008 .5 .12900001 .522 .12900001 .55100008 C .12900001 .6010001 .082 .6010001 .067 .6010001 C .098 .65000006 .164 .66300007 .20000002 .66300007 C .24100003 .66300007 .29600004 .64100006 .29600004 .55100008 C .29600004 .53900006 .29400004 .48100005 .268 .43700005 C .238 .38900004 .204 .38600005 .17900002 .38500003 C .171 .38400004 .14700002 .38200004 .14000002 .38200004 C .132 .38100005 .125 .38000003 .125 .37000004 C .125 .35900004 .132 .35900004 .14900002 .35900004 L .19300002 .35900004 C .275 .35900004 .312 .29100005 .312 .193 C .312 .057000005 .24300003 .028 .199 .028 C .15600002 .028 .081 .045 .046000005 .104 C .081 .09900001 .11200001 .12100001 .11200001 .15900001 C .11200001 .19500001 .085 .215 .056 .215 C .031999999 .215 0 .201 0 .157 C 0 .06600001 .093 0 .20200002 0 C .32400004 0 .41500003 .091000009 .41500003 .193 C .41500003 .27500005 .35200004 .35300005 .24800003 .37400005 Z "/>
</symbol>
<use xlink:href="#font_0_4" transform="matrix(9.9626,0,0,-9.9626,46.33243,23.017178)"/>
<use xlink:href="#font_0_1" transform="matrix(9.9626,0,0,-9.9626,51.283845,23.017178)"/>
<use xlink:href="#font_1_1" transform="matrix(9.9626,0,0,-9.9626,56.60427,24.720782)"/>
<symbol id="font_0_7">
<path d="M .32500003 .34000004 L .32500003 .30800004 C .32500003 .074 .22100002 .028 .16300002 .028 C .146 .028 .092 .030000002 .065000008 .064 C .109000008 .064 .117000009 .093 .117000009 .11000001 C .117000009 .141 .093 .156 .071 .156 C .055 .156 .024999999 .147 .024999999 .108 C .024999999 .041 .079 0 .164 0 C .293 0 .41500003 .136 .41500003 .35100005 C .41500003 .62000009 .3 .688 .21100003 .688 C .15600002 .688 .107 .67 .064 .62500008 C .023000002 .58000007 0 .53800007 0 .46300004 C 0 .33800004 .08800001 .24000001 .20000002 .24000001 C .261 .24000001 .30200003 .28200004 .32500003 .34000004 M .201 .263 C .185 .263 .139 .263 .108 .32600004 C .089999999 .36300005 .089999999 .41300006 .089999999 .46200005 C .089999999 .51600006 .089999999 .563 .11100001 .6 C .13800001 .65000006 .176 .66300007 .21100003 .66300007 C .25700004 .66300007 .29000003 .62900009 .307 .58400008 C .31900005 .55200007 .323 .48900003 .323 .44300006 C .323 .36000005 .28900004 .263 .201 .263 Z "/>
</symbol>
<use xlink:href="#font_0_7" transform="matrix(9.9626,0,0,-9.9626,88.852428,23.017178)"/>
<use xlink:href="#font_0_1" transform="matrix(9.9626,0,0,-9.9626,93.80384,23.017178)"/>
<use xlink:href="#font_1_1" transform="matrix(9.9626,0,0,-9.9626,99.12327,24.720782)"/>
<symbol id="font_0_3">
<path d="M .07700001 .07700001 L .18300002 .18 C .33900003 .31800003 .39900003 .372 .39900003 .47200004 C .39900003 .586 .30900003 .666 .18700002 .666 C .074 .666 0 .574 0 .485 C 0 .42900003 .05 .42900003 .053000008 .42900003 C .07000001 .42900003 .105000007 .441 .105000007 .48200003 C .105000007 .508 .08700001 .53400006 .052000006 .53400006 C .044000005 .53400006 .042000008 .53400006 .039 .53300008 C .062000004 .59800007 .11600001 .63500007 .17400001 .63500007 C .26500003 .63500007 .308 .554 .308 .47200004 C .308 .39200003 .25800003 .31300003 .20300003 .25100003 L .011000004 .037 C 0 .026 0 .024 0 0 L .37100003 0 L .39900003 .17400001 L .374 .17400001 C .36900003 .14400001 .36200003 .1 .352 .085 C .345 .07700001 .279 .07700001 .257 .07700001 L .07700001 .07700001 Z "/>
</symbol>
<symbol id="font_0_5">
<path d="M .42000003 .63100007 C .42900003 .64300009 .42900003 .64500007 .42900003 .66600009 L .18600002 .66600009 C .064 .66600009 .062000008 .679 .058000007 .6980001 L .033 .6980001 L 0 .49200005 L .024999999 .49200005 C .028000005 .508 .037 .57100006 .050000006 .58300009 C .057000005 .58900007 .13500002 .58900007 .148 .58900007 L .35500003 .58900007 C .344 .573 .26500003 .46400006 .24300003 .43100003 C .153 .29600004 .12000001 .157 .12000001 .055 C .12000001 .045 .12000001 0 .16600001 0 C .21200001 0 .21200001 .045 .21200001 .055 L .21200001 .106000009 C .21200001 .16100002 .21500004 .216 .22300002 .27 C .22700003 .29300005 .24100003 .37900005 .28500004 .44100005 L .42000003 .63100007 Z "/>
</symbol>
<use xlink:href="#font_0_3" transform="matrix(9.9626,0,0,-9.9626,128.96112,22.798)"/>
<use xlink:href="#font_0_5" transform="matrix(9.9626,0,0,-9.9626,134.0022,23.017178)"/>
<use xlink:href="#font_0_1" transform="matrix(9.9626,0,0,-9.9626,138.81412,23.017178)"/>
<use xlink:href="#font_1_1" transform="matrix(9.9626,0,0,-9.9626,144.13426,24.720782)"/>
<symbol id="font_0_6">
<path d="M .121 .47900004 C .075 .509 .071 .54300007 .071 .56000009 C .071 .62100008 .136 .66300007 .20700002 .66300007 C .28000004 .66300007 .344 .61100009 .344 .53900006 C .344 .48200003 .305 .43400005 .245 .39900003 L .121 .47900004 M .26700003 .38400004 C .33900003 .42100004 .388 .47300006 .388 .53900006 C .388 .63100007 .29900003 .688 .208 .688 C .108 .688 .027000003 .614 .027000003 .521 C .027000003 .503 .029 .45800004 .071 .41100005 C .082 .39900003 .11900001 .37400005 .144 .35700003 C .086 .32800005 0 .272 0 .17300001 C 0 .067 .102000009 0 .20700002 0 C .32000003 0 .41500003 .083000008 .41500003 .19000001 C .41500003 .22600001 .404 .27100004 .36600004 .31300003 C .34700004 .33400003 .33100004 .34400005 .26700003 .38400004 M .167 .34200005 L .29000003 .26400004 C .31800003 .245 .365 .215 .365 .154 C .365 .080000009 .29000003 .028 .208 .028 C .122 .028 .050000006 .09 .050000006 .17300001 C .050000006 .231 .082 .29500003 .167 .34200005 Z "/>
</symbol>
<use xlink:href="#font_0_6" transform="matrix(9.9626,0,0,-9.9626,171.40042,23.017178)"/>
<use xlink:href="#font_0_2" transform="matrix(9.9626,0,0,-9.9626,176.84996,22.798)"/>
<use xlink:href="#font_0_1" transform="matrix(9.9626,0,0,-9.9626,181.33312,23.017178)"/>
<use xlink:href="#font_1_1" transform="matrix(9.9626,0,0,-9.9626,186.65326,24.720782)"/>
<symbol id="font_2_1">
<path d="M .106 .053000004 C .106 .082 .08200001 .106000009 .05300001 .106000009 C .024000004 .106000009 0 .082 0 .053000004 C 0 .024 .024000004 0 .05300001 0 C .08200001 0 .106 .024 .106 .053000004 Z "/>
</symbol>
<use xlink:href="#font_2_1" transform="matrix(9.9626,0,0,-9.9626,217.54679,21.082)"/>
<use xlink:href="#font_2_1" transform="matrix(9.9626,0,0,-9.9626,221.98015,21.082)"/>
<use xlink:href="#font_2_1" transform="matrix(9.9626,0,0,-9.9626,226.40355,21.082)"/>
<path transform="matrix(1,0,0,-1,9.903,20.556)" stroke-width="1" stroke-linecap="butt" stroke-miterlimit="10" stroke-linejoin="miter" fill="none" stroke="#000000" d="M 10.10258 3.67685 C 18.27995 6.6532 24.24026 6.6532 30.54288 4.35922 "/>
<path transform="matrix(.94089,.34247,.34247,-.94089,40.445878,16.19678)" d="M 1.99252 0 L -1.19551 1.59401 L 0 0 L -1.19551 -1.59401 "/>
<symbol id="font_3_1">
<path d="M .24200003 .26900003 L .04200001 .46800003 C .030000002 .48000003 .028000012 .48200003 .02000001 .48200003 C .010000005 .48200003 0 .47300003 0 .462 C 0 .455 .002000004 .453 .013000011 .44200004 L .21300002 .241 L .013000011 .040000004 C .002000004 .029000003 0 .027000003 0 .02 C 0 .009000001 .010000005 0 .02000001 0 C .028000012 0 .030000002 .0020000004 .04200001 .014000001 L .24100001 .21300002 L .448 .006 C .45 .005 .45700003 0 .463 0 C .47500003 0 .48300005 .009000001 .48300005 .02 C .48300005 .022 .48300005 .026 .48000003 .031000004 C .47900004 .033000005 .32 .19000001 .27000005 .241 L .453 .42400003 C .458 .43 .473 .44300003 .478 .44900004 C .47900004 .451 .48300005 .455 .48300005 .462 C .48300005 .47300003 .47500003 .48200003 .463 .48200003 C .45500005 .48200003 .45100004 .47800002 .44 .467 L .24200003 .26900003 Z "/>
</symbol>
<use xlink:href="#font_3_1" transform="matrix(9.9626,0,0,-9.9626,26.262503,10.133336)"/>
<use xlink:href="#font_0_4" transform="matrix(9.9626,0,0,-9.9626,32.96543,10.442177)"/>
<path transform="matrix(1,0,0,-1,9.903,20.556)" stroke-width="1" stroke-linecap="butt" stroke-miterlimit="10" stroke-linejoin="miter" fill="none" stroke="#000000" d="M 52.62282 3.67685 C 60.80017 6.6532 66.76048 6.6532 73.0631 4.35922 "/>
<path transform="matrix(.94089,.34247,.34247,-.94089,82.9661,16.19678)" d="M 1.99252 0 L -1.19551 1.59401 L 0 0 L -1.19551 -1.59401 "/>
<use xlink:href="#font_3_1" transform="matrix(9.9626,0,0,-9.9626,68.7825,10.133336)"/>
<use xlink:href="#font_0_4" transform="matrix(9.9626,0,0,-9.9626,75.48443,10.442177)"/>
<path transform="matrix(1,0,0,-1,9.903,20.556)" stroke-width="1" stroke-linecap="butt" stroke-miterlimit="10" stroke-linejoin="miter" fill="none" stroke="#000000" d="M 95.14304 3.67685 C 102.30902 6.66226 107.55894 6.90263 113.06421 5.17912 "/>
<path transform="matrix(.95515,.29901,.29901,-.95515,122.96721,15.37686)" d="M 1.99252 0 L -1.19551 1.59401 L 0 0 L -1.19551 -1.59401 "/>
<use xlink:href="#font_3_1" transform="matrix(9.9626,0,0,-9.9626,109.9655,9.923335)"/>
<use xlink:href="#font_0_4" transform="matrix(9.9626,0,0,-9.9626,116.66843,10.232176)"/>
<path transform="matrix(1,0,0,-1,9.903,20.556)" stroke-width="1" stroke-linecap="butt" stroke-miterlimit="10" stroke-linejoin="miter" fill="none" stroke="#000000" d="M 140.15395 4.58334 C 146.50588 6.89528 151.13567 6.89528 155.61286 5.26569 "/>
<path transform="matrix(.94089,.34245,.34245,-.94089,165.51586,15.29031)" d="M 1.99252 0 L -1.19551 1.59401 L 0 0 L -1.19551 -1.59401 "/>
<use xlink:href="#font_3_1" transform="matrix(9.9626,0,0,-9.9626,153.8215,9.725335)"/>
<use xlink:href="#font_0_4" transform="matrix(9.9626,0,0,-9.9626,160.52442,10.034176)"/>
<path transform="matrix(1,0,0,-1,9.903,20.556)" stroke-width="1" stroke-linecap="butt" stroke-miterlimit="10" stroke-linejoin="miter" fill="none" stroke="#000000" d="M 182.67417 4.58334 C 190.36949 6.90152 195.8109 6.59367 201.35887 4.21178 "/>
<path transform="matrix(.92198,.39586,.39586,-.92198,211.26187,16.34422)" d="M 1.99252 0 L -1.19551 1.59401 L 0 0 L -1.19551 -1.59401 "/>
<use xlink:href="#font_3_1" transform="matrix(9.9626,0,0,-9.9626,198.05152,9.981338)"/>
<use xlink:href="#font_0_4" transform="matrix(9.9626,0,0,-9.9626,204.75443,10.290178)"/>
</svg>
