<?xml version="1.0" encoding="UTF-8" standalone="no"?>
<!DOCTYPE svg PUBLIC "-//W3C//DTD SVG 1.1//EN" "http://www.w3.org/Graphics/SVG/1.1/DTD/svg11.dtd">
<svg xmlns="http://www.w3.org/2000/svg" xmlns:xlink="http://www.w3.org/1999/xlink" version="1.1" width="265.294pt" height="116.072pt" viewBox="0 0 265.294 116.072">
<path transform="matrix(1,0,0,-1,9.114,110.453998)" stroke-width="1" stroke-linecap="butt" stroke-miterlimit="10" stroke-linejoin="miter" fill="none" stroke="#808080" d="M 48.63416 7.79027 L 48.63416 12.0422 M 97.26833 7.79027 L 97.26833 12.0422 M 145.9025 7.79027 L 145.9025 12.0422 M 194.53667 7.79027 L 194.53667 12.0422 "/>
<path transform="matrix(1,0,0,-1,9.114,110.453998)" stroke-width="1" stroke-linecap="butt" stroke-miterlimit="10" stroke-linejoin="miter" fill="none" stroke="#808080" d="M -2.1259 10.90787 L 2.1259 10.90787 M -2.1259 12.89111 L 2.1259 12.89111 M -2.1259 18.84087 L 2.1259 18.84087 M -2.1259 36.69012 L 2.1259 36.69012 M -2.1259 90.23787 L 2.1259 90.23787 "/>
<path transform="matrix(1,0,0,-1,9.114,110.453998)" stroke-width="1" stroke-linecap="butt" stroke-miterlimit="10" stroke-linejoin="miter" fill="none" stroke="#000000" d="M 0 9.91624 L 241.17832 9.91624 "/>
<path transform="matrix(1,0,0,-1,250.29232,100.53776)" d="M 1.99252 0 L -1.19551 1.59401 L 0 0 L -1.19551 -1.59401 "/>
<path transform="matrix(1,0,0,-1,9.114,110.453998)" stroke-width="1" stroke-linecap="butt" stroke-miterlimit="10" stroke-linejoin="miter" fill="none" stroke="#000000" d="M 0 0 L 0 97.16997 "/>
<path transform="matrix(0,-1,-1,-0,9.114,13.284027)" d="M 1.99252 0 L -1.19551 1.59401 L 0 0 L -1.19551 -1.59401 "/>
<symbol id="font_0_1">
<path d="M .205 .64000007 C .205 .66400006 .205 .666 .18200003 .666 C .120000008 .60200008 .032000007 .60200008 0 .60200008 L 0 .57100006 C .020000004 .57100006 .07900001 .57100006 .13100001 .597 L .13100001 .079 C .13100001 .043 .128 .031000002 .038000004 .031000002 L .0060000049 .031000002 L .0060000049 0 C .04100001 .003 .128 .003 .168 .003 C .20800002 .003 .29500003 .003 .33000005 0 L .33000005 .031000002 L .29800005 .031000002 C .20800002 .031000002 .205 .042000005 .205 .079 L .205 .64000007 Z "/>
</symbol>
<use xlink:href="#font_0_1" transform="matrix(9.9626,0,0,-9.9626,56.143678,112.67799)"/>
<symbol id="font_0_2">
<path d="M .07700001 .07700001 L .18300002 .18 C .33900003 .31800003 .39900003 .372 .39900003 .47200004 C .39900003 .586 .30900003 .666 .18700002 .666 C .074 .666 0 .574 0 .485 C 0 .42900003 .05 .42900003 .053000008 .42900003 C .07000001 .42900003 .105000007 .441 .105000007 .48200003 C .105000007 .508 .08700001 .53400006 .052000006 .53400006 C .044000005 .53400006 .042000008 .53400006 .039 .53300008 C .062000004 .59800007 .11600001 .63500007 .17400001 .63500007 C .26500003 .63500007 .308 .554 .308 .47200004 C .308 .39200003 .25800003 .31300003 .20300003 .25100003 L .011000004 .037 C 0 .026 0 .024 0 0 L .37100003 0 L .39900003 .17400001 L .374 .17400001 C .36900003 .14400001 .36200003 .1 .352 .085 C .345 .07700001 .279 .07700001 .257 .07700001 L .07700001 .07700001 Z "/>
</symbol>
<use xlink:href="#font_0_2" transform="matrix(9.9626,0,0,-9.9626,104.38813,112.67799)"/>
<symbol id="font_0_3">
<path d="M .24800003 .37400005 C .33 .40100003 .388 .47100006 .388 .55 C .388 .632 .3 .688 .204 .688 C .10300001 .688 .027000003 .628 .027000003 .55200007 C .027000003 .519 .049000004 .5 .078 .5 C .109000008 .5 .12900001 .522 .12900001 .55100008 C .12900001 .6010001 .082 .6010001 .067 .6010001 C .098 .65000006 .164 .66300007 .20000002 .66300007 C .24100003 .66300007 .29600004 .64100006 .29600004 .55100008 C .29600004 .53900006 .29400004 .48100005 .268 .43700005 C .238 .38900004 .204 .38600005 .17900002 .38500003 C .171 .38400004 .14700002 .38200004 .14000002 .38200004 C .132 .38100005 .125 .38000003 .125 .37000004 C .125 .35900004 .132 .35900004 .14900002 .35900004 L .19300002 .35900004 C .275 .35900004 .312 .29100005 .312 .193 C .312 .057000005 .24300003 .028 .199 .028 C .15600002 .028 .081 .045 .046000005 .104 C .081 .09900001 .11200001 .12100001 .11200001 .15900001 C .11200001 .19500001 .085 .215 .056 .215 C .031999999 .215 0 .201 0 .157 C 0 .06600001 .093 0 .20200002 0 C .32400004 0 .41500003 .091000009 .41500003 .193 C .41500003 .27500005 .35200004 .35300005 .24800003 .37400005 Z "/>
</symbol>
<use xlink:href="#font_0_3" transform="matrix(9.9626,0,0,-9.9626,152.94243,112.89717)"/>
<symbol id="font_0_4">
<path d="M .266 .165 L .266 .078 C .266 .042000005 .26400004 .031000002 .19000001 .031000002 L .16900002 .031000002 L .16900002 0 C .21000001 .003 .26200003 .003 .30400003 .003 C .34600003 .003 .39900003 .003 .44000004 0 L .44000004 .031000002 L .41900004 .031000002 C .34500004 .031000002 .34300003 .042000005 .34300003 .078 L .34300003 .165 L .44300003 .165 L .44300003 .19600001 L .34300003 .19600001 L .34300003 .651 C .34300003 .671 .34300003 .67700007 .32700003 .67700007 C .31800003 .67700007 .31500004 .67700007 .307 .665 L 0 .19600001 L 0 .165 L .266 .165 M .272 .19600001 L .028 .19600001 L .272 .569 L .272 .19600001 Z "/>
</symbol>
<use xlink:href="#font_0_4" transform="matrix(9.9626,0,0,-9.9626,201.43595,112.67799)"/>
<path transform="matrix(1,0,0,-1,9.114,110.453998)" stroke-width="1.19553" stroke-linecap="butt" stroke-miterlimit="10" stroke-linejoin="miter" fill="none" stroke="#cc6600" d="M 0 10.90787 C 0 10.90787 6.00278 11.04987 8.3083 11.11253 C 10.61382 11.1752 14.31111 11.2839 16.61662 11.3595 C 18.92213 11.4351 22.61943 11.56624 24.92494 11.65744 C 27.23045 11.74866 30.92775 11.90686 33.23326 12.01689 C 35.53879 12.12692 39.23607 12.31776 41.54158 12.4505 C 43.8471 12.58325 47.54439 12.81355 49.84991 12.97372 C 52.15543 13.1339 55.85272 13.41171 58.15823 13.60493 C 60.46375 13.79817 64.16104 14.13335 66.46655 14.36646 C 68.77206 14.59956 72.46936 15.00385 74.77487 15.2851 C 77.0804 15.56635 80.77768 16.05426 83.08319 16.39357 C 85.38872 16.73286 89.08598 17.3213 91.39151 17.73068 C 93.69702 18.14006 97.3943 18.85017 99.69983 19.34407 C 102.00534 19.83797 105.70264 20.69453 108.00815 21.29037 C 110.31366 21.88622 114.01096 22.91971 116.31647 23.63853 C 118.622 24.35736 122.31927 25.604 124.62479 26.4712 C 126.93031 27.33842 130.6276 28.84262 132.93312 29.88884 C 135.23863 30.93507 138.93592 32.74954 141.24144 34.01173 C 143.54695 35.27391 147.24423 37.46307 149.54975 38.98592 C 151.85526 40.50876 155.55255 43.15004 157.85807 44.98734 C 160.16359 46.82463 163.86087 50.01143 166.16638 52.22789 C 168.47191 54.44435 172.16919 58.28809 174.47472 60.96213 C 176.78023 63.63617 180.47751 68.27437 182.78304 71.50063 C 185.08855 74.72688 188.78585 80.32251 191.09136 84.21483 C 193.39687 88.10716 199.39968 99.5539 199.39968 99.5539 "/>
<path transform="matrix(1,0,0,-1,9.114,110.453998)" d="M 1.99255 10.90787 C 1.99255 12.00835 1.10046 12.90042 0 12.90042 C -1.10046 12.90042 -1.99255 12.00835 -1.99255 10.90787 C -1.99255 9.8074 -1.10046 8.91531 0 8.91531 C 1.10046 8.91531 1.99255 9.8074 1.99255 10.90787 Z M 0 10.90787 " fill="#000080"/>
<path transform="matrix(1,0,0,-1,9.114,110.453998)" stroke-width="1" stroke-linecap="butt" stroke-miterlimit="10" stroke-linejoin="miter" fill="none" stroke="#000080" d="M 1.99255 10.90787 C 1.99255 12.00835 1.10046 12.90042 0 12.90042 C -1.10046 12.90042 -1.99255 12.00835 -1.99255 10.90787 C -1.99255 9.8074 -1.10046 8.91531 0 8.91531 C 1.10046 8.91531 1.99255 9.8074 1.99255 10.90787 Z M 0 10.90787 "/>
<path transform="matrix(1,0,0,-1,9.114,110.453998)" d="M 50.62671 12.89111 C 50.62671 13.9916 49.73463 14.88367 48.63416 14.88367 C 47.53369 14.88367 46.6416 13.9916 46.6416 12.89111 C 46.6416 11.79065 47.53369 10.89856 48.63416 10.89856 C 49.73463 10.89856 50.62671 11.79065 50.62671 12.89111 Z M 48.63416 12.89111 " fill="#000080"/>
<path transform="matrix(1,0,0,-1,9.114,110.453998)" stroke-width="1" stroke-linecap="butt" stroke-miterlimit="10" stroke-linejoin="miter" fill="none" stroke="#000080" d="M 50.62671 12.89111 C 50.62671 13.9916 49.73463 14.88367 48.63416 14.88367 C 47.53369 14.88367 46.6416 13.9916 46.6416 12.89111 C 46.6416 11.79065 47.53369 10.89856 48.63416 10.89856 C 49.73463 10.89856 50.62671 11.79065 50.62671 12.89111 Z M 48.63416 12.89111 "/>
<path transform="matrix(1,0,0,-1,9.114,110.453998)" d="M 99.26088 18.84087 C 99.26088 19.94135 98.3688 20.83342 97.26833 20.83342 C 96.16786 20.83342 95.27577 19.94135 95.27577 18.84087 C 95.27577 17.7404 96.16786 16.84831 97.26833 16.84831 C 98.3688 16.84831 99.26088 17.7404 99.26088 18.84087 Z M 97.26833 18.84087 " fill="#000080"/>
<path transform="matrix(1,0,0,-1,9.114,110.453998)" stroke-width="1" stroke-linecap="butt" stroke-miterlimit="10" stroke-linejoin="miter" fill="none" stroke="#000080" d="M 99.26088 18.84087 C 99.26088 19.94135 98.3688 20.83342 97.26833 20.83342 C 96.16786 20.83342 95.27577 19.94135 95.27577 18.84087 C 95.27577 17.7404 96.16786 16.84831 97.26833 16.84831 C 98.3688 16.84831 99.26088 17.7404 99.26088 18.84087 Z M 97.26833 18.84087 "/>
<path transform="matrix(1,0,0,-1,9.114,110.453998)" d="M 147.89505 36.69012 C 147.89505 37.79059 147.00298 38.68268 145.9025 38.68268 C 144.80204 38.68268 143.90995 37.79059 143.90995 36.69012 C 143.90995 35.58965 144.80204 34.69757 145.9025 34.69757 C 147.00298 34.69757 147.89505 35.58965 147.89505 36.69012 Z M 145.9025 36.69012 " fill="#000080"/>
<path transform="matrix(1,0,0,-1,9.114,110.453998)" stroke-width="1" stroke-linecap="butt" stroke-miterlimit="10" stroke-linejoin="miter" fill="none" stroke="#000080" d="M 147.89505 36.69012 C 147.89505 37.79059 147.00298 38.68268 145.9025 38.68268 C 144.80204 38.68268 143.90995 37.79059 143.90995 36.69012 C 143.90995 35.58965 144.80204 34.69757 145.9025 34.69757 C 147.00298 34.69757 147.89505 35.58965 147.89505 36.69012 Z M 145.9025 36.69012 "/>
<path transform="matrix(1,0,0,-1,9.114,110.453998)" d="M 196.52922 90.23787 C 196.52922 91.33835 195.63715 92.23042 194.53667 92.23042 C 193.4362 92.23042 192.54412 91.33835 192.54412 90.23787 C 192.54412 89.1374 193.4362 88.24532 194.53667 88.24532 C 195.63715 88.24532 196.52922 89.1374 196.52922 90.23787 Z M 194.53667 90.23787 " fill="#000080"/>
<path transform="matrix(1,0,0,-1,9.114,110.453998)" stroke-width="1" stroke-linecap="butt" stroke-miterlimit="10" stroke-linejoin="miter" fill="none" stroke="#000080" d="M 196.52922 90.23787 C 196.52922 91.33835 195.63715 92.23042 194.53667 92.23042 C 193.4362 92.23042 192.54412 91.33835 192.54412 90.23787 C 192.54412 89.1374 193.4362 88.24532 194.53667 88.24532 C 195.63715 88.24532 196.52922 89.1374 196.52922 90.23787 Z M 194.53667 90.23787 "/>
<symbol id="font_1_2">
<path d="M .059000009 .07000001 C .056 .055000005 .050000006 .032 .050000006 .027000003 C .050000006 .009000001 .064 0 .079 0 C .091000009 0 .10900001 .008000001 .11600001 .028 C .11700001 .030000002 .12900001 .077 .135 .102000009 L .157 .19200002 C .163 .21400002 .16900002 .23600002 .17400001 .259 C .17800002 .27600003 .186 .305 .187 .30900003 C .202 .34000004 .255 .43100003 .35 .43100003 C .395 .43100003 .404 .39400003 .404 .36100004 C .404 .29900003 .355 .17100002 .33900003 .128 C .33 .105000007 .329 .093 .329 .082 C .329 .035 .364 0 .411 0 C .50500008 0 .54200008 .14600002 .54200008 .15400002 C .54200008 .16400002 .53300008 .16400002 .53000006 .16400002 C .52000007 .16400002 .52000007 .16100002 .51500007 .14600002 C .49500004 .078 .462 .022000002 .41300003 .022000002 C .396 .022000002 .389 .032 .389 .055000005 C .389 .080000009 .398 .104 .407 .126 C .426 .17900002 .468 .28900004 .468 .34600003 C .468 .41300003 .425 .45300005 .35300002 .45300005 C .263 .45300005 .21400002 .38900004 .19700001 .36600004 C .19200002 .42200003 .15100001 .45300005 .105000007 .45300005 C .059000009 .45300005 .040000008 .41400004 .030000003 .39600004 C .014 .36200003 0 .30300004 0 .29900003 C 0 .28900004 .01 .28900004 .012 .28900004 C .022000002 .28900004 .023 .29000003 .029000001 .31200005 C .046000005 .38300003 .06600001 .43100003 .10200001 .43100003 C .12200001 .43100003 .133 .418 .133 .38500003 C .133 .36400003 .13000001 .35300002 .11700001 .30100004 L .059000009 .07000001 Z "/>
</symbol>
<use xlink:href="#font_1_2" transform="matrix(9.9626,0,0,-9.9626,256.20893,102.79058)"/>
<symbol id="font_1_1">
<path d="M .33300004 .38900004 C .31500004 .42600004 .286 .45300005 .24100001 .45300005 C .124 .45300005 0 .30600003 0 .16000001 C 0 .06600001 .055000005 0 .133 0 C .153 0 .20300001 .0040000008 .263 .075 C .27100004 .033000005 .30600003 0 .35400004 0 C .38900004 0 .41200004 .023000002 .42800004 .055000005 C .44500003 .091000009 .45800004 .15200001 .45800004 .15400002 C .45800004 .16400002 .44900004 .16400002 .44600005 .16400002 C .43600003 .16400002 .43500004 .16000001 .43200005 .14600002 C .41500003 .081 .397 .022000002 .35600005 .022000002 C .32900004 .022000002 .32600004 .048 .32600004 .068 C .32600004 .09 .32800005 .098000008 .33900003 .14200002 C .35000003 .18400002 .35200004 .19400002 .36100004 .23200003 L .397 .37200005 C .40400005 .40000005 .40400005 .40200005 .40400005 .40600003 C .40400005 .42300005 .39200003 .43300004 .37500004 .43300004 C .35100005 .43300004 .33600004 .411 .33300004 .38900004 M .26800005 .13000001 C .263 .112 .263 .11000001 .24800001 .093 C .20400001 .038000004 .163 .022000002 .135 .022000002 C .08499999 .022000002 .07100001 .077 .07100001 .116000007 C .07100001 .16600001 .103 .28900004 .126 .335 C .157 .39400003 .202 .43100003 .242 .43100003 C .307 .43100003 .32100005 .34900005 .32100005 .34300003 C .32100005 .337 .31900005 .33100004 .31800003 .32600004 L .26800005 .13000001 Z "/>
</symbol>
<use xlink:href="#font_1_1" transform="matrix(9.9626,0,0,-9.9626,6.879504,7.7935869)"/>
</svg>
