<?xml version="1.0" encoding="UTF-8" standalone="no"?>
<!DOCTYPE svg PUBLIC "-//W3C//DTD SVG 1.1//EN" "http://www.w3.org/Graphics/SVG/1.1/DTD/svg11.dtd">
<svg xmlns="http://www.w3.org/2000/svg" xmlns:xlink="http://www.w3.org/1999/xlink" version="1.1" width="300.748pt" height="112.012pt" viewBox="0 0 300.748 112.012">
<path transform="matrix(1,0,0,-1,44.715,111.813)" stroke-width="1" stroke-linecap="butt" stroke-miterlimit="10" stroke-linejoin="miter" fill="none" stroke="#808080" d="M 54.03694 30.92935 L 54.03694 35.18098 M 108.0739 30.92935 L 108.0739 35.18098 M 162.11086 30.92935 L 162.11086 35.18098 M 216.1478 30.92935 L 216.1478 35.18098 "/>
<path transform="matrix(1,0,0,-1,44.715,111.813)" stroke-width="1" stroke-linecap="butt" stroke-miterlimit="10" stroke-linejoin="miter" fill="none" stroke="#808080" d="M -2.12602 90.90175 L 2.12602 90.90175 M -2.12602 41.31897 L 2.12602 41.31897 M -2.12602 24.79138 L 2.12602 24.79138 M -2.12602 16.52759 L 2.12602 16.52759 "/>
<path transform="matrix(1,0,0,-1,44.715,111.813)" stroke-width="1" stroke-linecap="butt" stroke-miterlimit="10" stroke-linejoin="miter" fill="none" stroke="#000000" d="M 0 33.05518 L 241.17375 33.05518 "/>
<path transform="matrix(1,0,0,-1,285.88877,78.75783)" d="M 1.99252 0 L -1.19551 1.59401 L 0 0 L -1.19551 -1.59401 "/>
<path transform="matrix(1,0,0,-1,44.715,111.813)" stroke-width="1" stroke-linecap="butt" stroke-miterlimit="10" stroke-linejoin="miter" fill="none" stroke="#000000" d="M 0 0 L 0 97.17302 "/>
<path transform="matrix(0,-1,-1,-0,44.715,14.639984)" d="M 1.99252 0 L -1.19551 1.59401 L 0 0 L -1.19551 -1.59401 "/>
<symbol id="font_0_1">
<path d="M .205 .64000007 C .205 .66400006 .205 .666 .18200003 .666 C .120000008 .60200008 .032000007 .60200008 0 .60200008 L 0 .57100006 C .020000004 .57100006 .07900001 .57100006 .13100001 .597 L .13100001 .079 C .13100001 .043 .128 .031000002 .038000004 .031000002 L .0060000049 .031000002 L .0060000049 0 C .04100001 .003 .128 .003 .168 .003 C .20800002 .003 .29500003 .003 .33000005 0 L .33000005 .031000002 L .29800005 .031000002 C .20800002 .031000002 .205 .042000005 .205 .079 L .205 .64000007 Z "/>
</symbol>
<use xlink:href="#font_0_1" transform="matrix(9.9626,0,0,-9.9626,97.147678,90.824008)"/>
<symbol id="font_0_2">
<path d="M .07700001 .07700001 L .18300002 .18 C .33900003 .31800003 .39900003 .372 .39900003 .47200004 C .39900003 .586 .30900003 .666 .18700002 .666 C .074 .666 0 .574 0 .485 C 0 .42900003 .05 .42900003 .053000008 .42900003 C .07000001 .42900003 .105000007 .441 .105000007 .48200003 C .105000007 .508 .08700001 .53400006 .052000006 .53400006 C .044000005 .53400006 .042000008 .53400006 .039 .53300008 C .062000004 .59800007 .11600001 .63500007 .17400001 .63500007 C .26500003 .63500007 .308 .554 .308 .47200004 C .308 .39200003 .25800003 .31300003 .20300003 .25100003 L .011000004 .037 C 0 .026 0 .024 0 0 L .37100003 0 L .39900003 .17400001 L .374 .17400001 C .36900003 .14400001 .36200003 .1 .352 .085 C .345 .07700001 .279 .07700001 .257 .07700001 L .07700001 .07700001 Z "/>
</symbol>
<use xlink:href="#font_0_2" transform="matrix(9.9626,0,0,-9.9626,150.79512,90.824008)"/>
<symbol id="font_0_3">
<path d="M .24800003 .37400005 C .33 .40100003 .388 .47100006 .388 .55 C .388 .632 .3 .688 .204 .688 C .10300001 .688 .027000003 .628 .027000003 .55200007 C .027000003 .519 .049000004 .5 .078 .5 C .109000008 .5 .12900001 .522 .12900001 .55100008 C .12900001 .6010001 .082 .6010001 .067 .6010001 C .098 .65000006 .164 .66300007 .20000002 .66300007 C .24100003 .66300007 .29600004 .64100006 .29600004 .55100008 C .29600004 .53900006 .29400004 .48100005 .268 .43700005 C .238 .38900004 .204 .38600005 .17900002 .38500003 C .171 .38400004 .14700002 .38200004 .14000002 .38200004 C .132 .38100005 .125 .38000003 .125 .37000004 C .125 .35900004 .132 .35900004 .14900002 .35900004 L .19300002 .35900004 C .275 .35900004 .312 .29100005 .312 .193 C .312 .057000005 .24300003 .028 .199 .028 C .15600002 .028 .081 .045 .046000005 .104 C .081 .09900001 .11200001 .12100001 .11200001 .15900001 C .11200001 .19500001 .085 .215 .056 .215 C .031999999 .215 0 .201 0 .157 C 0 .06600001 .093 0 .20200002 0 C .32400004 0 .41500003 .091000009 .41500003 .193 C .41500003 .27500005 .35200004 .35300005 .24800003 .37400005 Z "/>
</symbol>
<use xlink:href="#font_0_3" transform="matrix(9.9626,0,0,-9.9626,204.75142,91.04318)"/>
<symbol id="font_0_4">
<path d="M .266 .165 L .266 .078 C .266 .042000005 .26400004 .031000002 .19000001 .031000002 L .16900002 .031000002 L .16900002 0 C .21000001 .003 .26200003 .003 .30400003 .003 C .34600003 .003 .39900003 .003 .44000004 0 L .44000004 .031000002 L .41900004 .031000002 C .34500004 .031000002 .34300003 .042000005 .34300003 .078 L .34300003 .165 L .44300003 .165 L .44300003 .19600001 L .34300003 .19600001 L .34300003 .651 C .34300003 .671 .34300003 .67700007 .32700003 .67700007 C .31800003 .67700007 .31500004 .67700007 .307 .665 L 0 .19600001 L 0 .165 L .266 .165 M .272 .19600001 L .028 .19600001 L .272 .569 L .272 .19600001 Z "/>
</symbol>
<use xlink:href="#font_0_4" transform="matrix(9.9626,0,0,-9.9626,258.64897,90.824008)"/>
<symbol id="font_1_1">
<path d="M .33300004 .38900004 C .31500004 .42600004 .286 .45300005 .24100001 .45300005 C .124 .45300005 0 .30600003 0 .16000001 C 0 .06600001 .055000005 0 .133 0 C .153 0 .20300001 .0040000008 .263 .075 C .27100004 .033000005 .30600003 0 .35400004 0 C .38900004 0 .41200004 .023000002 .42800004 .055000005 C .44500003 .091000009 .45800004 .15200001 .45800004 .15400002 C .45800004 .16400002 .44900004 .16400002 .44600005 .16400002 C .43600003 .16400002 .43500004 .16000001 .43200005 .14600002 C .41500003 .081 .397 .022000002 .35600005 .022000002 C .32900004 .022000002 .32600004 .048 .32600004 .068 C .32600004 .09 .32800005 .098000008 .33900003 .14200002 C .35000003 .18400002 .35200004 .19400002 .36100004 .23200003 L .397 .37200005 C .40400005 .40000005 .40400005 .40200005 .40400005 .40600003 C .40400005 .42300005 .39200003 .43300004 .37500004 .43300004 C .35100005 .43300004 .33600004 .411 .33300004 .38900004 M .26800005 .13000001 C .263 .112 .263 .11000001 .24800001 .093 C .20400001 .038000004 .163 .022000002 .135 .022000002 C .08499999 .022000002 .07100001 .077 .07100001 .116000007 C .07100001 .16600001 .103 .28900004 .126 .335 C .157 .39400003 .202 .43100003 .242 .43100003 C .307 .43100003 .32100005 .34900005 .32100005 .34300003 C .32100005 .337 .31900005 .33100004 .31800003 .32600004 L .26800005 .13000001 Z "/>
</symbol>
<use xlink:href="#font_1_1" transform="matrix(9.9626,0,0,-9.9626,11.4675049,23.484589)"/>
<symbol id="font_2_1">
<path d="M .22600001 .63600006 C .22600001 .66300007 .224 .66400006 .19600001 .66400006 C .132 .601 .041 .6 0 .6 L 0 .564 C .023999997 .564 .09000001 .564 .14500001 .592 L .14500001 .082 C .14500001 .049000004 .14500001 .036000004 .04500001 .036000004 L .0069999995 .036000004 L .0069999995 0 C .024999999 .001 .148 .004 .185 .004 C .21600002 .004 .34200005 .001 .36400003 0 L .36400003 .036000004 L .32600004 .036000004 C .22600001 .036000004 .22600001 .049000004 .22600001 .082 L .22600001 .63600006 Z "/>
</symbol>
<use xlink:href="#font_2_1" transform="matrix(6.9738,0,0,-6.9738,17.095143,24.870003)"/>
<symbol id="font_0_6">
<path d="M .63100007 .19400002 C .646 .19400002 .665 .19400002 .665 .214 C .665 .23400001 .646 .23400001 .632 .23400001 L .033 .23400001 C .019000002 .23400001 0 .23400001 0 .214 C 0 .19400002 .019000002 .19400002 .034 .19400002 L .63100007 .19400002 M .632 0 C .646 0 .665 0 .665 .02000001 C .665 .040000008 .646 .040000008 .63100007 .040000008 L .034 .040000008 C .019000002 .040000008 0 .040000008 0 .02000001 C 0 0 .019000002 0 .033 0 L .632 0 Z "/>
</symbol>
<symbol id="font_0_5">
<path d="M .42000003 .63100007 C .42900003 .64300009 .42900003 .64500007 .42900003 .66600009 L .18600002 .66600009 C .064 .66600009 .062000008 .679 .058000007 .6980001 L .033 .6980001 L 0 .49200005 L .024999999 .49200005 C .028000005 .508 .037 .57100006 .050000006 .58300009 C .057000005 .58900007 .13500002 .58900007 .148 .58900007 L .35500003 .58900007 C .344 .573 .26500003 .46400006 .24300003 .43100003 C .153 .29600004 .12000001 .157 .12000001 .055 C .12000001 .045 .12000001 0 .16600001 0 C .21200001 0 .21200001 .045 .21200001 .055 L .21200001 .106000009 C .21200001 .16100002 .21500004 .216 .22300002 .27 C .22700003 .29300005 .24100003 .37900005 .28500004 .44100005 L .42000003 .63100007 Z "/>
</symbol>
<use xlink:href="#font_0_6" transform="matrix(9.9626,0,0,-9.9626,24.129904,22.049975)"/>
<use xlink:href="#font_0_5" transform="matrix(9.9626,0,0,-9.9626,34.650415,23.594178)"/>
<use xlink:href="#font_1_1" transform="matrix(9.9626,0,0,-9.9626,11.4675049,73.06659)"/>
<symbol id="font_2_2">
<path d="M .442 .18200001 L .40800003 .18200001 C .40500004 .16000001 .39500005 .101 .38200004 .091000009 C .374 .085 .29700003 .085 .28300003 .085 L .099 .085 C .20400003 .178 .23900002 .20600002 .29900003 .25300003 C .37300004 .312 .442 .374 .442 .469 C .442 .59000006 .33600004 .66400006 .20800004 .66400006 C .084 .66400006 0 .577 0 .485 C 0 .43400003 .043000007 .42900003 .053000004 .42900003 C .077 .42900003 .10600001 .446 .10600001 .48200003 C .10600001 .5 .099 .535 .047000007 .535 C .078 .606 .146 .628 .19300002 .628 C .293 .628 .34500004 .55 .34500004 .469 C .34500004 .38200004 .28300003 .31300003 .25100003 .277 L .010000005 .039 C 0 .030000002 0 .028 0 0 L .41200004 0 L .442 .18200001 Z "/>
</symbol>
<use xlink:href="#font_2_2" transform="matrix(6.9738,0,0,-6.9738,16.77435,74.451999)"/>
<use xlink:href="#font_0_6" transform="matrix(9.9626,0,0,-9.9626,24.129904,71.63197)"/>
<use xlink:href="#font_0_1" transform="matrix(9.9626,0,0,-9.9626,34.97918,72.957)"/>
<use xlink:href="#font_1_1" transform="matrix(9.9626,0,0,-9.9626,3.7185038,89.59459)"/>
<symbol id="font_2_3">
<path d="M .219 .35400004 C .29700003 .35400004 .35300002 .3 .35300002 .193 C .35300002 .069000009 .28100003 .032 .223 .032 C .18300002 .032 .095 .043000007 .053000008 .102000009 C .10000001 .10400001 .111 .13700001 .111 .158 C .111 .19 .087 .213 .056000007 .213 C .028 .213 0 .19600001 0 .155 C 0 .061000006 .104 0 .22500001 0 C .36400003 0 .46 .09300001 .46 .193 C .46 .27100004 .39600004 .34900005 .286 .37200005 C .39100004 .41000004 .42900003 .48500005 .42900003 .546 C .42900003 .625 .33800004 .684 .22700002 .684 C .116 .684 .031 .63 .031 .55 C .031 .51600006 .053000008 .49700005 .083000008 .49700005 C .11400001 .49700005 .134 .52 .134 .548 C .134 .577 .11400001 .598 .083000008 .6 C .118 .644 .187 .65500006 .22400002 .65500006 C .26900003 .65500006 .33200003 .633 .33200003 .546 C .33200003 .504 .31800003 .45800004 .29200004 .42700003 C .25900004 .38900004 .23100002 .38700003 .18100001 .38400004 C .156 .38200004 .154 .38200004 .149 .38100005 C .147 .38100005 .139 .37900005 .139 .36800004 C .139 .35400004 .148 .35400004 .165 .35400004 L .219 .35400004 Z "/>
</symbol>
<use xlink:href="#font_2_3" transform="matrix(6.9738,0,0,-6.9738,8.963585,91.11848)"/>
<use xlink:href="#font_0_6" transform="matrix(9.9626,0,0,-9.9626,16.380906,88.15997)"/>
<symbol id="font_3_1">
<path d="M .57600006 0 C .59300008 0 .611 0 .611 .019999996 C .611 .040000008 .59300008 .040000008 .57600006 .040000008 L .035000005 .040000008 C .018 .040000008 0 .040000008 0 .019999996 C 0 0 .018 0 .035000005 0 L .57600006 0 Z "/>
</symbol>
<use xlink:href="#font_3_1" transform="matrix(9.9626,0,0,-9.9626,27.165898,87.1936)"/>
<use xlink:href="#font_0_1" transform="matrix(9.9626,0,0,-9.9626,34.974676,89.485)"/>
<use xlink:href="#font_1_1" transform="matrix(9.9626,0,0,-9.9626,3.7185038,97.85759)"/>
<symbol id="font_2_4">
<path d="M .49000005 .164 L .49000005 .2 L .379 .2 L .379 .646 C .379 .66700008 .379 .674 .35700003 .674 C .345 .674 .34100003 .674 .331 .66 L 0 .2 L 0 .164 L .294 .164 L .294 .082 C .294 .048 .294 .036000004 .213 .036000004 L .186 .036000004 L .186 0 C .236 .002 .3 .004 .33600004 .004 C .37300004 .004 .437 .002 .48700003 0 L .48700003 .036000004 L .46 .036000004 C .379 .036000004 .379 .048 .379 .082 L .379 .164 L .49000005 .164 M .301 .56600007 L .301 .2 L .037000006 .2 L .301 .56600007 Z "/>
</symbol>
<use xlink:href="#font_2_4" transform="matrix(6.9738,0,0,-6.9738,8.858978,99.243007)"/>
<use xlink:href="#font_0_6" transform="matrix(9.9626,0,0,-9.9626,16.380906,96.42297)"/>
<use xlink:href="#font_3_1" transform="matrix(9.9626,0,0,-9.9626,27.165898,95.456607)"/>
<use xlink:href="#font_0_2" transform="matrix(9.9626,0,0,-9.9626,34.586133,97.748)"/>
<path transform="matrix(1,0,0,-1,44.715,111.813)" d="M 56.0295 90.90175 C 56.0295 92.00221 55.13742 92.8943 54.03694 92.8943 C 52.93648 92.8943 52.04439 92.00221 52.04439 90.90175 C 52.04439 89.80127 52.93648 88.9092 54.03694 88.9092 C 55.13742 88.9092 56.0295 89.80127 56.0295 90.90175 Z M 54.03694 90.90175 " fill="#000080"/>
<path transform="matrix(1,0,0,-1,44.715,111.813)" stroke-width="1.59404" stroke-linecap="butt" stroke-miterlimit="10" stroke-linejoin="miter" fill="none" stroke="#000080" d="M 56.0295 90.90175 C 56.0295 92.00221 55.13742 92.8943 54.03694 92.8943 C 52.93648 92.8943 52.04439 92.00221 52.04439 90.90175 C 52.04439 89.80127 52.93648 88.9092 54.03694 88.9092 C 55.13742 88.9092 56.0295 89.80127 56.0295 90.90175 Z M 54.03694 90.90175 "/>
<path transform="matrix(1,0,0,-1,44.715,111.813)" d="M 110.06645 41.31897 C 110.06645 42.41943 109.17436 43.31152 108.0739 43.31152 C 106.97342 43.31152 106.08134 42.41943 106.08134 41.31897 C 106.08134 40.2185 106.97342 39.32642 108.0739 39.32642 C 109.17436 39.32642 110.06645 40.2185 110.06645 41.31897 Z M 108.0739 41.31897 " fill="#000080"/>
<path transform="matrix(1,0,0,-1,44.715,111.813)" stroke-width="1.59404" stroke-linecap="butt" stroke-miterlimit="10" stroke-linejoin="miter" fill="none" stroke="#000080" d="M 110.06645 41.31897 C 110.06645 42.41943 109.17436 43.31152 108.0739 43.31152 C 106.97342 43.31152 106.08134 42.41943 106.08134 41.31897 C 106.08134 40.2185 106.97342 39.32642 108.0739 39.32642 C 109.17436 39.32642 110.06645 40.2185 110.06645 41.31897 Z M 108.0739 41.31897 "/>
<path transform="matrix(1,0,0,-1,44.715,111.813)" d="M 164.10341 24.79138 C 164.10341 25.89185 163.21132 26.78394 162.11086 26.78394 C 161.01038 26.78394 160.1183 25.89185 160.1183 24.79138 C 160.1183 23.6909 161.01038 22.79883 162.11086 22.79883 C 163.21132 22.79883 164.10341 23.6909 164.10341 24.79138 Z M 162.11086 24.79138 " fill="#000080"/>
<path transform="matrix(1,0,0,-1,44.715,111.813)" stroke-width="1.59404" stroke-linecap="butt" stroke-miterlimit="10" stroke-linejoin="miter" fill="none" stroke="#000080" d="M 164.10341 24.79138 C 164.10341 25.89185 163.21132 26.78394 162.11086 26.78394 C 161.01038 26.78394 160.1183 25.89185 160.1183 24.79138 C 160.1183 23.6909 161.01038 22.79883 162.11086 22.79883 C 163.21132 22.79883 164.10341 23.6909 164.10341 24.79138 Z M 162.11086 24.79138 "/>
<path transform="matrix(1,0,0,-1,44.715,111.813)" d="M 218.14035 16.52759 C 218.14035 17.62805 217.24828 18.52014 216.1478 18.52014 C 215.04734 18.52014 214.15525 17.62805 214.15525 16.52759 C 214.15525 15.42711 215.04734 14.53503 216.1478 14.53503 C 217.24828 14.53503 218.14035 15.42711 218.14035 16.52759 Z M 216.1478 16.52759 " fill="#000080"/>
<path transform="matrix(1,0,0,-1,44.715,111.813)" stroke-width="1.59404" stroke-linecap="butt" stroke-miterlimit="10" stroke-linejoin="miter" fill="none" stroke="#000080" d="M 218.14035 16.52759 C 218.14035 17.62805 217.24828 18.52014 216.1478 18.52014 C 215.04734 18.52014 214.15525 17.62805 214.15525 16.52759 C 214.15525 15.42711 215.04734 14.53503 216.1478 14.53503 C 217.24828 14.53503 218.14035 15.42711 218.14035 16.52759 Z M 216.1478 16.52759 "/>
<symbol id="font_1_2">
<path d="M .059000009 .07000001 C .056 .055000005 .050000006 .032 .050000006 .027000003 C .050000006 .009000001 .064 0 .079 0 C .091000009 0 .10900001 .008000001 .11600001 .028 C .11700001 .030000002 .12900001 .077 .135 .102000009 L .157 .19200002 C .163 .21400002 .16900002 .23600002 .17400001 .259 C .17800002 .27600003 .186 .305 .187 .30900003 C .202 .34000004 .255 .43100003 .35 .43100003 C .395 .43100003 .404 .39400003 .404 .36100004 C .404 .29900003 .355 .17100002 .33900003 .128 C .33 .105000007 .329 .093 .329 .082 C .329 .035 .364 0 .411 0 C .50500008 0 .54200008 .14600002 .54200008 .15400002 C .54200008 .16400002 .53300008 .16400002 .53000006 .16400002 C .52000007 .16400002 .52000007 .16100002 .51500007 .14600002 C .49500004 .078 .462 .022000002 .41300003 .022000002 C .396 .022000002 .389 .032 .389 .055000005 C .389 .080000009 .398 .104 .407 .126 C .426 .17900002 .468 .28900004 .468 .34600003 C .468 .41300003 .425 .45300005 .35300002 .45300005 C .263 .45300005 .21400002 .38900004 .19700001 .36600004 C .19200002 .42200003 .15100001 .45300005 .105000007 .45300005 C .059000009 .45300005 .040000008 .41400004 .030000003 .39600004 C .014 .36200003 0 .30300004 0 .29900003 C 0 .28900004 .01 .28900004 .012 .28900004 C .022000002 .28900004 .023 .29000003 .029000001 .31200005 C .046000005 .38300003 .06600001 .43100003 .10200001 .43100003 C .12200001 .43100003 .133 .418 .133 .38500003 C .133 .36400003 .13000001 .35300002 .11700001 .30100004 L .059000009 .07000001 Z "/>
</symbol>
<use xlink:href="#font_1_2" transform="matrix(9.9626,0,0,-9.9626,291.7359,81.00559)"/>
<use xlink:href="#font_1_1" transform="matrix(9.9626,0,0,-9.9626,39.769506,7.719589)"/>
<symbol id="font_4_1">
<path d="M .075 .073 C .07100001 .060000004 .065 .035 .065 .032 C .065 .010000001 .083000008 0 .09900001 0 C .117 0 .133 .013 .138 .022 C .143 .031000004 .15100001 .063 .156 .084 C .161 .103 .172 .14900002 .178 .17400001 C .184 .19600001 .19000001 .21800001 .19500001 .24100001 C .20600002 .282 .20800002 .29 .237 .331 C .26500003 .37100003 .31200005 .423 .38700003 .423 C .44500003 .423 .44600005 .372 .44600005 .35300002 C .44600005 .293 .40300004 .18200001 .38700003 .14000002 C .37600003 .112 .37200005 .103 .37200005 .086 C .37200005 .033000005 .41600005 0 .467 0 C .56700006 0 .61100009 .13800001 .61100009 .15300001 C .61100009 .16600001 .59800007 .16600001 .595 .16600001 C .58100005 .16600001 .58000007 .16000001 .57600006 .14900002 C .55300006 .069000009 .51000007 .028 .47000004 .028 C .44900004 .028 .44500003 .042000005 .44500003 .063 C .44500003 .086 .45000003 .099 .46800006 .14400001 C .48000003 .17500001 .521 .28100003 .521 .337 C .521 .43400003 .44400005 .451 .39100004 .451 C .30800004 .451 .25200004 .4 .22200002 .36 C .21500002 .42900003 .156 .451 .114999998 .451 C .072 .451 .049 .42000003 .036000004 .397 C .014000002 .36 0 .303 0 .298 C 0 .285 .014000002 .285 .017 .285 C .031 .285 .032 .28800003 .039 .315 C .054 .374 .073 .423 .112 .423 C .138 .423 .145 .40100003 .145 .374 C .145 .35500003 .136 .31800003 .12900001 .291 C .12200001 .264 .112 .22300002 .10700001 .20100002 L .075 .073 Z "/>
</symbol>
<use xlink:href="#font_4_1" transform="matrix(6.9738,0,0,-6.9738,44.96477,9.174742)"/>
</svg>
