<?xml version="1.0" encoding="UTF-8" standalone="no"?>
<!DOCTYPE svg PUBLIC "-//W3C//DTD SVG 1.1//EN" "http://www.w3.org/Graphics/SVG/1.1/DTD/svg11.dtd">
<svg xmlns="http://www.w3.org/2000/svg" xmlns:xlink="http://www.w3.org/1999/xlink" version="1.1" width="151.027pt" height="63.959pt" viewBox="0 0 151.027 63.959">
<symbol id="font_0_1">
<path d="M .056000007 .05100012 L .056000007 .052000047 C .100999999 .052000047 .120000008 .10000014 .096 .13100004 C .083000008 .148 .059000005 .15300012 .040000004 .14600015 C 0 .13199997 .0040000008 .08200002 .022999999 .052999975 C .047000003 .01699996 .096 0 .13700001 .0069999697 C .186 .016000033 .22000002 .059000017 .244 .10000014 C .29500003 .18900013 .32100005 .2930001 .34500004 .39200009 C .41300003 .66400006 .47500003 .9380001 .527 1.213 C .568 1.4260001 .59900006 1.6420002 .64300009 1.8500002 C .65900006 1.9290001 .67600008 2.009 .702 2.085 C .71300008 2.117 .7260001 2.15 .74600008 2.1780003 C .75500008 2.19 .76600006 2.203 .7810001 2.2050002 C .80700007 2.2100003 .82800009 2.1950002 .84900006 2.183 C .83300009 2.1790002 .81900009 2.1780003 .8090001 2.1640003 C .776 2.121 .82800009 2.065 .8740001 2.0920003 C .9060001 2.111 .89900007 2.1580003 .88000008 2.1840003 C .85400006 2.2200003 .8000001 2.2370003 .7580001 2.2240003 C .707 2.2100003 .674 2.1610003 .65200009 2.1160002 C .605 2.022 .57900008 1.9190002 .55300006 1.8170002 C .48700006 1.5530002 .42800004 1.2880001 .37800003 1.0210002 C .34800003 .8650001 .32400004 .70800009 .29500003 .55200007 C .27 .41400004 .246 .27300013 .2 .1400001 C .18900001 .11000013 .177 .078999999 .157 .05400014 C .149 .042999984 .13700001 .031000138 .122999999 .028000117 C .098000008 .025000096 .076000008 .039000036 .056000007 .05100012 M .41700004 .05100012 L .41700004 .052000047 C .42500005 .052000047 .43300004 .052999975 .44100005 .05700016 C .49300004 .08200002 .46000005 .16799999 .40100003 .14600015 C .36100004 .13199997 .36500005 .08200002 .38400004 .052999975 C .40700004 .01699996 .45700003 0 .49800004 .0069999697 C .54700008 .016000033 .58100005 .059000017 .605 .10000014 C .656 .18900013 .68200007 .29400004 .707 .39300014 C .77400007 .66100016 .83400008 .93000009 .88600006 1.2010001 C .91400006 1.3470001 .9380001 1.4940002 .963 1.6400001 C .989 1.7890002 1.016 1.9420002 1.064 2.0860003 C 1.074 2.1180003 1.087 2.1510003 1.107 2.1780003 C 1.116 2.19 1.128 2.203 1.143 2.206 C 1.168 2.209 1.19 2.1950002 1.21 2.183 C 1.195 2.18 1.1800001 2.177 1.17 2.1640003 C 1.137 2.121 1.19 2.065 1.235 2.0920003 C 1.268 2.111 1.2590001 2.1580003 1.241 2.1840003 C 1.215 2.2200003 1.1620001 2.236 1.12 2.2250002 C 1.07 2.2100003 1.036 2.1620002 1.014 2.1180003 C .966 2.0230003 .9380001 1.9180002 .91400006 1.8150002 C .85600009 1.5670002 .79700008 1.3190001 .748 1.0690001 C .71500006 .9000001 .69000008 .7290001 .65800008 .56000009 C .63100007 .42100013 .61 .27600003 .56200006 .14199996 C .55 .11199999 .53900006 .08000016 .51900008 .05400014 C .51000007 .042999984 .499 .031000138 .485 .029000044 C .45900006 .024000168 .43800003 .039000036 .41700004 .05100012 Z "/>
</symbol>
<use xlink:href="#font_0_1" transform="matrix(9.9626,0,0,-9.9626,.4682422,22.196675)"/>
<symbol id="font_1_2">
<path d="M .342 .633 C .349 .661 .351 .66400006 .37300004 .667 L .437 .667 C .53000006 .667 .64500007 .667 .64500007 .564 C .64500007 .523 .62600007 .46000005 .57900008 .42400003 C .53800007 .39200003 .47600005 .37600003 .407 .37600003 L .278 .37600003 L .342 .633 M .52300009 .36 C .6420001 .38800005 .7480001 .46000005 .7480001 .549 C .7480001 .635 .646 .703 .50100007 .703 L .194 .703 C .17500001 .703 .162 .703 .162 .681 C .162 .667 .174 .667 .194 .667 C .195 .667 .21400002 .667 .232 .665 C .253 .663 .255 .661 .255 .651 C .255 .649 .255 .644 .25100003 .629 L .11800001 .098000008 C .11000001 .064 .108 .056 .030000002 .056 C .013000004 .056 0 .056 0 .035000005 C 0 .025000003 .0069999995 .020000002 .016000003 .020000002 C .035000005 .020000002 .058000007 .023000002 .078 .023000002 C .09700001 .023000002 .12600002 .024000003 .144 .024000003 C .164 .024000003 .187 .023000002 .208 .023000002 C .229 .023000002 .254 .020000002 .275 .020000002 C .28 .020000002 .296 .020000002 .296 .041 C .296 .056 .286 .056 .263 .056 C .24700001 .056 .243 .056 .225 .058000007 C .20300001 .061000006 .20300001 .063 .20300001 .07300001 C .20300001 .074 .20300001 .080000009 .20700002 .095000009 L .27 .34800003 L .40600003 .34800003 C .492 .34800003 .52900007 .30500005 .52900007 .25800003 C .52900007 .245 .52000007 .21100001 .51500007 .18800001 C .503 .142 .49900005 .127 .49900005 .11000001 C .49900005 .031000004 .572 0 .646 0 C .73800006 0 .77800008 .098000008 .77800008 .116000007 C .77800008 .11900001 .7760001 .13000001 .76100006 .13000001 C .7480001 .13000001 .74600008 .12300001 .74300006 .113000009 C .72900006 .069000009 .69200006 .028 .65000006 .028 C .6240001 .028 .6050001 .039000006 .6050001 .09300001 C .6050001 .11800001 .61100009 .17 .61500009 .197 C .6190001 .224 .6190001 .23400001 .6190001 .244 C .6190001 .256 .6190001 .28800003 .5910001 .31800003 C .572 .33900003 .5450001 .35200004 .52300009 .36 Z "/>
</symbol>
<use xlink:href="#font_1_2" transform="matrix(6.9738,0,0,-6.9738,9.62714,22.776478)"/>
<symbol id="font_2_2">
<path d="M .8370001 .682 C .84400007 .695 .84400007 .697 .84400007 .699 C .84400007 .711 .83400008 .711 .81600007 .711 L .029 .711 C .006000001 .711 .0030000024 .711 0 .698 L .37700004 .027 C .38900004 .004999999 .39600004 0 .42200003 0 C .45200003 0 .45600004 .0069999995 .467 .026 L .8370001 .682 M .21800003 .593 L .7260001 .593 L .472 .142 L .21800003 .593 Z "/>
</symbol>
<symbol id="font_2_1">
<path d="M .237 .28000004 L .015000001 .058000003 C .0069999995 .050000006 0 .042000005 0 .031000002 C 0 .014 .013999999 0 .031000004 0 C .042999999 0 .048999996 .005999999 .060000004 .017 L .28000004 .23600002 L .51000007 .005999999 C .513 .0040000008 .517 0 .52900007 0 C .54300007 0 .559 .012 .559 .031000002 C .559 .036000004 .55700007 .042000005 .55500009 .046000005 C .55 .052 .52000007 .082 .50200006 .1 L .323 .279 C .374 .33100004 .54600009 .50100007 .55100008 .507 C .55600008 .514 .559 .52000007 .559 .528 C .559 .547 .54300007 .559 .52900007 .559 C .517 .559 .512 .554 .50200006 .544 L .28000004 .323 C .228 .37400005 .058 .546 .052 .551 C .045 .556 .039000006 .559 .031000004 .559 C .013999999 .559 0 .545 0 .528 C 0 .517 .004999995 .512 .015000001 .50200006 L .237 .28000004 Z "/>
</symbol>
<use xlink:href="#font_2_2" transform="matrix(9.9626,0,0,-9.9626,17.885905,13.809067)"/>
<use xlink:href="#font_2_1" transform="matrix(9.9626,0,0,-9.9626,30.74762,13.848917)"/>
<symbol id="font_3_1">
<path d="M 1.098 0 C 1.12 0 1.1350001 0 1.1350001 .029 C 1.1350001 .039000006 1.1350001 .049999983 1.1220001 .05700001 C 1.067 .083000008 .95300009 .137 .86800006 .28800003 C .85600009 .307 .855 .308 .82900008 .308 C .81200006 .308 .79300007 .308 .79300007 .28599999 C .79300007 .272 .8510001 .15599999 .9560001 .072999987 L .051000008 .072999987 C .036 .072999987 0 .072999987 0 .037 C 0 0 .035000005 0 .051000008 0 L 1.098 0 Z "/>
</symbol>
<use xlink:href="#font_3_1" transform="matrix(6.9738,0,0,-6.9738,40.765928,3.2396088)"/>
<symbol id="font_4_1">
<path d="M .6050001 .68 L 0 .68 L 0 .633 L .107999999 .633 L .107999999 .047000003 L 0 .047000003 L 0 0 C .038000008 .003 .139 .003 .18300002 .003 C .23200003 .003 .34100003 .003 .38500003 0 L .38500003 .047000003 L .25 .047000003 L .25 .317 L .3 .317 C .39600004 .317 .40500004 .27400003 .40500004 .2 L .45200003 .2 L .45200003 .48100005 L .40500004 .48100005 C .40500004 .407 .397 .36400003 .3 .36400003 L .25 .36400003 L .25 .633 L .39000003 .633 C .55100008 .633 .57400009 .55600008 .58900007 .439 L .63600006 .439 L .6050001 .68 Z "/>
</symbol>
<use xlink:href="#font_4_1" transform="matrix(9.9626,0,0,-9.9626,41.51254,13.560001)"/>
<symbol id="font_5_4">
<path d="M .47600005 .694 C .47600005 .695 .47600005 .705 .46300004 .705 C .44800005 .705 .35300002 .69600006 .33600004 .694 C .32800005 .693 .32200004 .688 .32200004 .675 C .32200004 .663 .33100004 .663 .34600003 .663 C .39400003 .663 .39600004 .656 .39600004 .646 L .39300005 .626 L .33300004 .38900004 C .31500004 .42600004 .286 .45300005 .24100001 .45300005 C .124 .45300005 0 .30600003 0 .16000001 C 0 .06600001 .055000005 0 .133 0 C .153 0 .20300001 .0040000008 .263 .075 C .27100004 .033000005 .30600003 0 .35400004 0 C .38900004 0 .41200004 .023000002 .42800004 .055000005 C .44500003 .091000009 .45800004 .15200001 .45800004 .15400002 C .45800004 .16400002 .44900004 .16400002 .44600005 .16400002 C .43600003 .16400002 .43500004 .16000001 .43200005 .14600002 C .41500003 .081 .397 .022000002 .35600005 .022000002 C .32900004 .022000002 .32600004 .048 .32600004 .068 C .32600004 .092 .32800005 .09900001 .33200003 .116000007 L .47600005 .694 M .26800005 .13000001 C .263 .112 .263 .11000001 .24800001 .093 C .20400001 .038000004 .163 .022000002 .135 .022000002 C .08499999 .022000002 .07100001 .077 .07100001 .116000007 C .07100001 .16600001 .103 .28900004 .126 .335 C .157 .39400003 .202 .43100003 .242 .43100003 C .307 .43100003 .32100005 .34900005 .32100005 .34300003 C .32100005 .337 .31900005 .33100004 .31800003 .32600004 L .26800005 .13000001 Z "/>
</symbol>
<symbol id="font_5_1">
<path d="M .14400001 .115 C .10400002 .048 .065 .034 .021000002 .031000002 C .009000003 .030000002 0 .030000002 0 .011000001 C 0 .0050000005 .0050000029 0 .013 0 C .040000004 0 .07100001 .003 .09900001 .003 C .13200002 .003 .16700001 0 .19900002 0 C .20500002 0 .21800003 0 .21800003 .019000002 C .21800003 .030000002 .20900002 .031000002 .20200002 .031000002 C .17900002 .033 .15500002 .041 .15500002 .066 C .15500002 .078 .16100002 .089 .16900002 .10300001 L .245 .231 L .49600003 .231 C .49800007 .21000001 .512 .074 .512 .064 C .512 .034 .46000005 .031000002 .44000004 .031000002 C .42600004 .031000002 .41600005 .031000002 .41600005 .011000001 C .41600005 0 .42800004 0 .43000005 0 C .47100006 0 .514 .003 .555 .003 C .58 .003 .643 0 .668 0 C .674 0 .686 0 .686 .020000002 C .686 .031000002 .676 .031000002 .663 .031000002 C .601 .031000002 .601 .038000004 .598 .067 L .537 .69200006 C .535 .712 .535 .716 .518 .716 C .502 .716 .49800007 .70900008 .492 .69900009 L .14400001 .115 M .26400004 .26200003 L .46100004 .592 L .493 .26200003 L .26400004 .26200003 Z "/>
</symbol>
<use xlink:href="#font_5_4" transform="matrix(9.9626,0,0,-9.9626,51.3005,13.66959)"/>
<use xlink:href="#font_5_1" transform="matrix(9.9626,0,0,-9.9626,56.4412,13.560001)"/>
<symbol id="font_6_4">
<path d="M .63100007 .19400002 C .646 .19400002 .665 .19400002 .665 .214 C .665 .23400001 .646 .23400001 .632 .23400001 L .033 .23400001 C .019000002 .23400001 0 .23400001 0 .214 C 0 .19400002 .019000002 .19400002 .034 .19400002 L .63100007 .19400002 M .632 0 C .646 0 .665 0 .665 .02000001 C .665 .040000008 .646 .040000008 .63100007 .040000008 L .034 .040000008 C .019000002 .040000008 0 .040000008 0 .02000001 C 0 0 .019000002 0 .033 0 L .632 0 Z "/>
</symbol>
<use xlink:href="#font_6_4" transform="matrix(9.9626,0,0,-9.9626,76.8479,12.234976)"/>
<symbol id="font_0_2">
<path d="M .477 1.4879999 C .43700005 1.495 .388 1.4849999 .35000003 1.474 C .205 1.4300001 .10100001 1.302 .08600001 1.152 C .071 .98599997 .17600002 .8219999 .33500005 .76899996 C .323 .71299996 .31600005 .6559999 .306 .5999999 C .28000004 .45599998 .254 .31099988 .212 .171 C .2 .13399983 .187 .095999959 .165 .06399989 C .156 .05099988 .14500001 .036000015 .12900001 .030999899 C .104 .02399993 .07300001 .038999797 .058000007 .0539999 C .102 .0539999 .12100001 .10399985 .096 .13399983 C .083000008 .14999986 .058000007 .15499997 .039000006 .14699984 C 0 .13199997 .006000001 .08099985 .026 .052999975 C .051 .016000033 .105000007 0 .148 .010999918 C .223 .031999828 .259 .12099981 .28500004 .18599987 C .32 .27399994 .34100003 .3679999 .36400003 .45999993 C .38700003 .556 .41300006 .653 .43200005 .75 C .472 .7429999 .521 .7529999 .559 .76399996 C .704 .80799999 .808 .936 .823 1.086 C .838 1.252 .73300006 1.416 .574 1.469 C .586 1.525 .593 1.582 .603 1.638 C .629 1.7820001 .65500006 1.927 .697 2.067 C .709 2.104 .722 2.142 .744 2.174 C .753 2.187 .764 2.202 .78000006 2.207 C .805 2.214 .836 2.1990002 .851 2.184 C .80700007 2.184 .78800007 2.134 .813 2.104 C .82600006 2.088 .851 2.083 .87 2.091 C .90900006 2.106 .90300008 2.157 .883 2.185 C .85800006 2.2220002 .804 2.238 .76100006 2.227 C .686 2.206 .65000006 2.117 .624 2.052 C .589 1.964 .568 1.87 .545 1.778 C .522 1.6819999 .496 1.585 .477 1.4879999 M .468 1.449 C .46100004 1.402 .448 1.355 .43800003 1.309 C .41400004 1.197 .39100004 1.084 .37 .97099998 C .36 .91699996 .348 .8629999 .342 .8089999 C .31200005 .81799998 .282 .83599999 .25700004 .8549999 C .12400001 .9549999 .08600001 1.1439999 .171 1.287 C .23400001 1.394 .34600003 1.449 .468 1.449 M .44100005 .7889999 C .448 .83599999 .46100004 .8829999 .47100003 .9289999 C .495 1.041 .518 1.1539999 .53900006 1.267 C .549 1.321 .561 1.375 .56700006 1.4289999 C .597 1.42 .62700006 1.402 .652 1.3829999 C .785 1.283 .823 1.094 .73800006 .951 C .675 .844 .563 .7889999 .44100005 .7889999 Z "/>
</symbol>
<use xlink:href="#font_0_2" transform="matrix(9.9626,0,0,-9.9626,97.21631,22.216599)"/>
<symbol id="font_1_1">
<path d="M .77300009 .71000006 C .77300009 .71500006 .77000007 .723 .76000007 .723 C .753 .723 .75100007 .721 .74200007 .711 L .669 .634 C .66 .646 .60400006 .723 .481 .723 C .23800004 .723 0 .508 0 .28200004 C 0 .11900001 .12800002 0 .307 0 C .36100004 0 .45700003 .011000001 .56000009 .098000008 C .63900008 .165 .661 .252 .661 .26000003 C .661 .27300004 .64900007 .27300004 .64400008 .27300004 C .63100007 .27300004 .62900009 .268 .62600007 .25700004 C .58500006 .120000008 .44500006 .036000004 .32400004 .036000004 C .21800003 .036000004 .1 .09300001 .1 .25100003 C .1 .28000004 .107 .43800003 .22200004 .564 C .29100005 .64100006 .39600004 .68700006 .49100007 .68700006 C .60700008 .68700006 .6750001 .603 .6750001 .49100004 C .6750001 .46300004 .67200008 .45600004 .67200008 .45000003 C .67200008 .43700005 .68500009 .43700005 .69000008 .43700005 C .70600005 .43700005 .70600005 .44000004 .711 .45900003 L .77300009 .71000006 Z "/>
</symbol>
<use xlink:href="#font_1_1" transform="matrix(6.9738,0,0,-6.9738,102.79116,22.776478)"/>
<use xlink:href="#font_3_1" transform="matrix(6.9738,0,0,-6.9738,111.21493,3.2396088)"/>
<use xlink:href="#font_4_1" transform="matrix(9.9626,0,0,-9.9626,111.96254,13.560001)"/>
<symbol id="font_7_1">
<path d="M .38900004 .194 C .38900004 .30100004 .3 .38800005 .195 .38800005 C .087 .38800005 0 .29900003 0 .194 C 0 .08800001 .087 0 .195 0 C .3 0 .38900004 .087000008 .38900004 .194 Z "/>
</symbol>
<use xlink:href="#font_7_1" transform="matrix(9.9626,0,0,-9.9626,122.45394,13.002096)"/>
<use xlink:href="#font_5_4" transform="matrix(9.9626,0,0,-9.9626,129.4995,13.66959)"/>
<use xlink:href="#font_3_1" transform="matrix(6.9738,0,0,-6.9738,134.83693,5.647606)"/>
<symbol id="font_4_2">
<path d="M .18300002 .523 C .18300002 .54200008 .18400002 .543 .19800002 .55700007 C .238 .59800007 .29000003 .60400006 .312 .60400006 C .379 .60400006 .43500004 .543 .43500004 .417 C .43500004 .27600003 .365 .224 .3 .224 C .286 .224 .23900002 .224 .194 .278 C .18300002 .291 .18300002 .292 .18300002 .31100003 L .18300002 .523 M .18300002 .23300001 C .22600001 .198 .27 .18800001 .31100003 .18800001 C .46100004 .18800001 .563 .278 .563 .417 C .563 .55 .472 .64400008 .328 .64400008 C .25300003 .64400008 .20000002 .61300006 .17700002 .595 L .17700002 .64400008 L 0 .63600006 L 0 .589 C .062000008 .589 .069000009 .589 .069000009 .551 L .069000009 .047000007 L 0 .047000007 L 0 0 C .028000005 .001000002 .088 .0029999912 .126 .0029999912 C .165 .0029999912 .224 .001000002 .252 0 L .252 .047000007 L .18300002 .047000007 L .18300002 .23300001 Z "/>
</symbol>
<use xlink:href="#font_4_2" transform="matrix(9.9626,0,0,-9.9626,135.98561,15.492742)"/>
<symbol id="font_8_3">
<path d="M .484 .09200001 C .484 .115 .484 .120000008 .47 .120000008 C .409 .12100001 .31 .12900001 .22000002 .17300001 C .112 .22700002 .071 .29000003 .046000005 .32900004 C .043 .33400003 .037 .33400003 .024 .33400003 C .0009999983 .33400003 0 .333 0 .30800004 L 0 .29200004 C .136 .047000003 .361 0 .463 0 C .484 0 .484 .001 .484 .028 L .484 .09200001 Z "/>
</symbol>
<use xlink:href="#font_8_3" transform="matrix(9.9626,0,0,-9.9626,6.173892,31.758999)"/>
<path transform="matrix(1,0,0,-1,10.895994,31.758999)" d="M 0 0 L 19.427 0 L 19.427 1.195 L 0 1.195 Z "/>
<symbol id="font_8_2">
<path d="M .48400004 .04200001 C .34800003 .28700004 .123 .33400003 .021000002 .33400003 C 0 .33400003 0 .333 0 .30600003 L 0 .24200002 C 0 .21900001 0 .21400002 .014 .21400002 C .075 .21300002 .17400001 .20500002 .264 .16100002 C .372 .10700001 .41300003 .044000016 .43800003 .00500001 C .441 0 .447 0 .46 0 C .483 0 .48400004 .001000002 .48400004 .026000008 L .48400004 .04200001 Z "/>
</symbol>
<symbol id="font_8_1">
<path d="M .484 .30600003 C .484 .333 .484 .33400003 .463 .33400003 C .361 .33400003 .136 .286 0 .04200001 L 0 .026000008 C 0 .001000002 .0009999983 0 .024 0 C .043 0 .044 .001000002 .049000004 .008000001 C .13100001 .13900002 .269 .21000003 .472 .21400002 C .484 .21400002 .484 .22100002 .484 .24200002 L .484 .30600003 Z "/>
</symbol>
<use xlink:href="#font_8_2" transform="matrix(9.9626,0,0,-9.9626,30.223368,33.890996)"/>
<use xlink:href="#font_8_1" transform="matrix(9.9626,0,0,-9.9626,34.567068,33.890996)"/>
<path transform="matrix(1,0,0,-1,39.289995,31.758999)" d="M 0 0 L 19.427 0 L 19.427 1.195 L 0 1.195 Z "/>
<symbol id="font_8_4">
<path d="M .48400004 .30800004 C .48400004 .333 .483 .33400003 .46 .33400003 C .441 .33400003 .44 .333 .435 .326 C .35300002 .19500001 .21500002 .124000009 .012000001 .120000008 C 0 .120000008 0 .113000009 0 .09200001 L 0 .028 C 0 .001 0 0 .021000002 0 C .123 0 .34800003 .048 .48400004 .29200004 L .48400004 .30800004 Z "/>
</symbol>
<use xlink:href="#font_8_4" transform="matrix(9.9626,0,0,-9.9626,58.61737,31.758999)"/>
<use xlink:href="#font_8_3" transform="matrix(9.9626,0,0,-9.9626,94.69989,31.758999)"/>
<path transform="matrix(1,0,0,-1,99.42199,31.758999)" d="M 0 0 L 15.94 0 L 15.94 1.195 L 0 1.195 Z "/>
<use xlink:href="#font_8_2" transform="matrix(9.9626,0,0,-9.9626,115.26237,33.890996)"/>
<use xlink:href="#font_8_1" transform="matrix(9.9626,0,0,-9.9626,119.60606,33.890996)"/>
<path transform="matrix(1,0,0,-1,124.328998,31.758999)" d="M 0 0 L 15.94 0 L 15.94 1.195 L 0 1.195 Z "/>
<use xlink:href="#font_8_4" transform="matrix(9.9626,0,0,-9.9626,140.16936,31.758999)"/>
<symbol id="font_6_5">
<path d="M .63 .67700007 L .019000002 .67700007 L 0 .45200003 L .025000003 .45200003 C .039 .61300006 .054 .646 .20500002 .646 C .223 .646 .24900003 .646 .259 .64400008 C .28 .64000007 .28 .629 .28 .606 L .28 .079 C .28 .045 .28 .031000002 .17500001 .031000002 L .135 .031000002 L .135 0 C .17600002 .003 .278 .003 .324 .003 C .37 .003 .473 .003 .514 0 L .514 .031000002 L .47400005 .031000002 C .36900003 .031000002 .36900003 .045 .36900003 .079 L .36900003 .606 C .36900003 .62600007 .36900003 .64000007 .387 .64400008 C .398 .646 .425 .646 .444 .646 C .595 .646 .61 .61300006 .624 .45200003 L .64900007 .45200003 L .63 .67700007 Z "/>
</symbol>
<symbol id="font_6_12">
<path d="M .44300003 .22500003 C .44300003 .35300002 .34300003 .45900003 .222 .45900003 C .097 .45900003 0 .35000003 0 .22500003 C 0 .096 .104 0 .22100002 0 C .342 0 .44300003 .098000008 .44300003 .22500003 M .222 .025000003 C .17900002 .025000003 .135 .046 .10800001 .092 C .083000008 .136 .083000008 .19700001 .083000008 .23300003 C .083000008 .272 .083000008 .32600004 .10700001 .37000004 C .134 .41600005 .18100001 .43700005 .22100002 .43700005 C .26500003 .43700005 .30800004 .41500003 .33400003 .37200005 C .36 .32900004 .36 .27100004 .36 .23300003 C .36 .19700001 .36 .143 .33800004 .09900001 C .316 .054 .272 .025000003 .222 .025000003 Z "/>
</symbol>
<symbol id="font_6_8">
<path d="M .083000008 .22900002 C .083000008 .39200003 .16500002 .43400003 .218 .43400003 C .227 .43400003 .29 .43300004 .32500003 .397 C .284 .39400003 .278 .36400003 .278 .351 C .278 .32500003 .296 .305 .324 .305 C .35 .305 .37 .32200004 .37 .35200004 C .37 .42000003 .294 .45900003 .21700001 .45900003 C .092 .45900003 0 .351 0 .22700002 C 0 .09900001 .099 0 .215 0 C .349 0 .381 .120000008 .381 .13000001 C .381 .14000002 .37100003 .14000002 .368 .14000002 C .359 .14000002 .35700003 .136 .35500003 .13000001 C .326 .037 .261 .025000003 .224 .025000003 C .171 .025000003 .083000008 .068 .083000008 .22900002 Z "/>
</symbol>
<symbol id="font_6_10">
<path d="M .07800001 .344 L .07800001 .076000008 C .07800001 .031000002 .067 .031000002 0 .031000002 L 0 0 C .035 .001 .08600001 .003 .113000009 .003 C .139 .003 .191 .001 .225 0 L .225 .031000002 C .158 .031000002 .147 .031000002 .147 .076000008 L .147 .26000003 C .147 .36400003 .218 .42000003 .282 .42000003 C .345 .42000003 .356 .36600004 .356 .30900003 L .356 .076000008 C .356 .031000002 .345 .031000002 .278 .031000002 L .278 0 C .31300003 .001 .36400003 .003 .391 .003 C .41700004 .003 .46900005 .001 .503 0 L .503 .031000002 C .43600003 .031000002 .425 .031000002 .425 .076000008 L .425 .26000003 C .425 .36400003 .496 .42000003 .56 .42000003 C .623 .42000003 .634 .36600004 .634 .30900003 L .634 .076000008 C .634 .031000002 .623 .031000002 .556 .031000002 L .556 0 C .591 .001 .642 .003 .669 .003 C .69500008 .003 .74700006 .001 .781 0 L .781 .031000002 C .72900006 .031000002 .70400008 .031000002 .703 .061000006 L .703 .252 C .703 .33800004 .703 .36900003 .67200008 .40500004 C .65800008 .42200003 .625 .44200004 .56700006 .44200004 C .48300005 .44200004 .439 .38200004 .42200003 .344 C .40800003 .43100003 .33400003 .44200004 .289 .44200004 C .216 .44200004 .169 .39900003 .141 .337 L .141 .44200004 L 0 .43100003 L 0 .4 C .07000001 .4 .07800001 .393 .07800001 .344 Z "/>
</symbol>
<symbol id="font_6_13">
<path d="M .14400001 .57000008 L .14400001 .63600006 L 0 .625 L 0 .594 C .07100001 .594 .07800001 .58800008 .07800001 .544 L .07800001 .076 C .07800001 .031000004 .067 .031000004 0 .031000004 L 0 0 C .034 .001000002 .08600001 .0029999912 .112 .0029999912 C .13900002 .0029999912 .19000001 .001000002 .22500003 0 L .22500003 .031000004 C .158 .031000004 .14700002 .031000004 .14700002 .076 L .14700002 .244 L .14700002 .25300003 C .15200001 .237 .19400002 .183 .27 .183 C .38900004 .183 .49300004 .28100003 .49300004 .41000004 C .49300004 .53700008 .39600004 .63600006 .284 .63600006 C .20600002 .63600006 .164 .592 .14400001 .57000008 M .14700002 .30800004 L .14700002 .531 C .17600002 .582 .22500003 .61100009 .27600003 .61100009 C .349 .61100009 .41000004 .523 .41000004 .41000004 C .41000004 .289 .34000004 .20500002 .266 .20500002 C .22600001 .20500002 .18800001 .22500001 .16100002 .266 C .14700002 .287 .14700002 .28800003 .14700002 .30800004 Z "/>
</symbol>
<symbol id="font_6_16">
<path d="M .35900004 .09 L .35900004 0 L .503 .011000001 L .503 .042000005 C .43300004 .042000005 .425 .049000004 .425 .098000008 L .425 .45300005 L .278 .44200004 L .278 .411 C .34800003 .411 .356 .404 .356 .35500003 L .356 .17700002 C .356 .09 .308 .022000002 .23500002 .022000002 C .15100001 .022000002 .147 .069000009 .147 .12100001 L .147 .45300005 L 0 .44200004 L 0 .411 C .07800001 .411 .07800001 .40800003 .07800001 .31900005 L .07800001 .16900002 C .07800001 .091000009 .07800001 0 .23000002 0 C .286 0 .33 .028 .35900004 .09 Z "/>
</symbol>
<symbol id="font_6_15">
<path d="M .15400002 .411 L .29700003 .411 L .29700003 .44200004 L .15400002 .44200004 L .15400002 .626 L .12900001 .626 C .12799999 .544 .098000008 .43700005 0 .43300004 L 0 .411 L .085 .411 L .085 .135 C .085 .012000001 .178 0 .21400002 0 C .28500004 0 .31300003 .071 .31300003 .135 L .31300003 .19200002 L .28800003 .19200002 L .28800003 .13700001 C .28800003 .063 .25800003 .025000003 .22100002 .025000003 C .15400002 .025000003 .15400002 .116000007 .15400002 .13300002 L .15400002 .411 Z "/>
</symbol>
<symbol id="font_6_a">
<path d="M .08400001 .263 C .09 .41200004 .17400001 .43700005 .20800002 .43700005 C .31100003 .43700005 .321 .30200003 .321 .263 L .08400001 .263 M .083000008 .24200002 L .36200003 .24200002 C .38400004 .24200002 .38700003 .24200002 .38700003 .263 C .38700003 .36200003 .33300004 .45900003 .20800002 .45900003 C .09200001 .45900003 0 .35600005 0 .23100002 C 0 .097 .105000007 0 .22000002 0 C .342 0 .38700003 .111 .38700003 .13000001 C .38700003 .14000002 .379 .14200002 .374 .14200002 C .365 .14200002 .36300005 .136 .36100004 .128 C .326 .025000003 .236 .025000003 .22600001 .025000003 C .17600002 .025000003 .136 .055000005 .113000009 .092 C .083000008 .14000002 .083000008 .20600002 .083000008 .24200002 Z "/>
</symbol>
<symbol id="font_6_d">
<path d="M .07800001 .076000008 C .07800001 .031000002 .067 .031000002 0 .031000002 L 0 0 C .035 .001 .08600001 .003 .113000009 .003 C .139 .003 .191 .001 .225 0 L .225 .031000002 C .158 .031000002 .147 .031000002 .147 .076000008 L .147 .26000003 C .147 .36400003 .218 .42000003 .282 .42000003 C .345 .42000003 .356 .36600004 .356 .30900003 L .356 .076000008 C .356 .031000002 .345 .031000002 .278 .031000002 L .278 0 C .31300003 .001 .36400003 .003 .391 .003 C .41700004 .003 .46900005 .001 .503 0 L .503 .031000002 C .451 .031000002 .42600004 .031000002 .425 .061000006 L .425 .252 C .425 .33800004 .425 .36900003 .39400003 .40500004 C .38000003 .42200003 .347 .44200004 .289 .44200004 C .20500002 .44200004 .161 .38200004 .14400001 .344 L .14400001 .694 L 0 .683 L 0 .652 C .07000001 .652 .07800001 .64500007 .07800001 .596 L .07800001 .076000008 Z "/>
</symbol>
<symbol id="font_6_9">
<path d="M .34600003 .06600001 L .34600003 0 L .493 .011000001 L .493 .042000005 C .423 .042000005 .41500003 .049000004 .41500003 .098000008 L .41500003 .705 L .271 .694 L .271 .663 C .34100003 .663 .349 .656 .349 .607 L .349 .39100004 C .32 .42700003 .277 .45300005 .22299999 .45300005 C .10500001 .45300005 0 .35500003 0 .22600001 C 0 .09900001 .098 0 .21200001 0 C .276 0 .321 .034 .34600003 .06600001 M .34600003 .33400003 L .34600003 .12900001 C .34600003 .111 .34600003 .109000008 .335 .092 C .305 .044 .26 .022000002 .21700001 .022000002 C .17200002 .022000002 .136 .048 .11200001 .086 C .086 .127 .083000008 .18400002 .083000008 .22500003 C .083000008 .26200003 .085 .32200004 .114 .367 C .13500002 .39800004 .17300001 .43100003 .227 .43100003 C .262 .43100003 .30400003 .41600005 .335 .37100003 C .34600003 .35400004 .34600003 .35200004 .34600003 .33400003 Z "/>
</symbol>
<symbol id="font_6_7">
<path d="M .14400001 .388 L .14400001 .705 L 0 .694 L 0 .663 C .07000001 .663 .07800001 .656 .07800001 .607 L .07800001 .011000001 L .103000018 .011000001 C .104 .012000001 .112 .026 .13900002 .07300001 C .15400002 .05 .19600001 0 .27 0 C .38900004 0 .49300004 .098000008 .49300004 .22700002 C .49300004 .35400004 .395 .45300005 .28100003 .45300005 C .20300001 .45300005 .16000001 .40600003 .14400001 .388 M .14700002 .12500002 L .14700002 .33100004 C .14700002 .35000003 .14700002 .351 .158 .367 C .19700001 .42300005 .252 .43100003 .27600003 .43100003 C .321 .43100003 .35700003 .40500004 .381 .367 C .40700004 .32600004 .41000004 .26900003 .41000004 .22800002 C .41000004 .19100002 .40800003 .13100001 .379 .086 C .358 .055000005 .32000003 .022000002 .266 .022000002 C .22100002 .022000002 .18500002 .046 .16100002 .083000008 C .14700002 .104 .14700002 .107 .14700002 .12500002 Z "/>
</symbol>
<symbol id="font_6_f">
<path d="M .144 .694 L 0 .683 L 0 .652 C .07000001 .652 .07800001 .64500007 .07800001 .596 L .07800001 .076000008 C .07800001 .031000002 .067 .031000002 0 .031000002 L 0 0 C .033 .001 .086 .003 .11100001 .003 C .136 .003 .185 .001 .22200004 0 L .22200004 .031000002 C .155 .031000002 .144 .031000002 .144 .076000008 L .144 .694 Z "/>
</symbol>
<symbol id="font_6_e">
<path d="M .144 .44200004 L .0040000008 .43100003 L .0040000008 .4 C .069000009 .4 .07800001 .39400003 .07800001 .34500004 L .07800001 .076000008 C .07800001 .031000002 .067 .031000002 0 .031000002 L 0 0 C .032000007 .001 .086 .003 .11000001 .003 C .14500001 .003 .18 .001 .21400002 0 L .21400002 .031000002 C .148 .031000002 .144 .036000004 .144 .075 L .144 .44200004 M .148 .61600008 C .148 .648 .123 .669 .095000009 .669 C .064 .669 .042000005 .642 .042000005 .61600008 C .042000005 .58900007 .064 .563 .095000009 .563 C .123 .563 .148 .58400008 .148 .61600008 Z "/>
</symbol>
<symbol id="font_6_11">
<path d="M .07800001 .344 L .07800001 .076000008 C .07800001 .031000002 .067 .031000002 0 .031000002 L 0 0 C .035 .001 .08600001 .003 .113000009 .003 C .139 .003 .191 .001 .225 0 L .225 .031000002 C .158 .031000002 .147 .031000002 .147 .076000008 L .147 .26000003 C .147 .36400003 .218 .42000003 .282 .42000003 C .345 .42000003 .356 .36600004 .356 .30900003 L .356 .076000008 C .356 .031000002 .345 .031000002 .278 .031000002 L .278 0 C .31300003 .001 .36400003 .003 .391 .003 C .41700004 .003 .46900005 .001 .503 0 L .503 .031000002 C .451 .031000002 .42600004 .031000002 .425 .061000006 L .425 .252 C .425 .33800004 .425 .36900003 .39400003 .40500004 C .38000003 .42200003 .347 .44200004 .289 .44200004 C .216 .44200004 .169 .39900003 .141 .337 L .141 .44200004 L 0 .43100003 L 0 .4 C .07000001 .4 .07800001 .393 .07800001 .344 Z "/>
</symbol>
<symbol id="font_6_c">
<path d="M .19400002 .37800003 C .10700001 .37800003 .10700001 .47800005 .10700001 .50100007 C .10700001 .52800008 .10800001 .56 .12300001 .58500006 C .13100001 .59700009 .15400002 .62500008 .19400002 .62500008 C .28100003 .62500008 .28100003 .52500006 .28100003 .50200006 C .28100003 .47500003 .28000004 .44300003 .26500003 .41800005 C .25700004 .40600003 .23400003 .37800003 .19400002 .37800003 M .07800001 .33900003 C .07800001 .34300003 .07800001 .36600004 .095 .38600005 C .134 .35800005 .17500001 .35500003 .19400002 .35500003 C .28700004 .35500003 .356 .42400003 .356 .50100007 C .356 .53800007 .34000004 .57500007 .31500004 .59800007 C .351 .632 .38700003 .637 .40500004 .637 C .40700004 .637 .41200004 .637 .41500003 .63600006 C .404 .632 .39900003 .62100008 .39900003 .609 C .39900003 .592 .41200004 .58000007 .42800004 .58000007 C .43800003 .58000007 .45700003 .587 .45700003 .61 C .45700003 .62700006 .44500003 .65900006 .40600003 .65900006 C .38600005 .65900006 .342 .65300008 .3 .61200007 C .25800003 .64500007 .21600002 .64800009 .19400002 .64800009 C .10100001 .64800009 .032 .57900008 .032 .50200006 C .032 .458 .054 .42000003 .07900001 .39900003 C .066 .384 .048000006 .351 .048000006 .316 C .048000006 .28500004 .061 .24700001 .09200001 .22700002 C .032 .21000001 0 .16700001 0 .127 C 0 .055000009 .09900001 0 .22100002 0 C .33900003 0 .44300003 .051000015 .44300003 .12900001 C .44300003 .164 .42900003 .21500002 .37800003 .24300002 C .32500003 .27100004 .26700003 .27100004 .20600002 .27100004 C .18100001 .27100004 .13800001 .27100004 .13100001 .272 C .09900001 .27600003 .07800001 .307 .07800001 .33900003 M .222 .023000002 C .12100001 .023000002 .052000006 .074000019 .052000006 .127 C .052000006 .17300001 .09 .21000001 .134 .21300002 L .19300002 .21300002 C .279 .21300002 .39100004 .21300002 .39100004 .127 C .39100004 .073000017 .32000003 .023000002 .222 .023000002 Z "/>
</symbol>
<symbol id="font_6_14">
<path d="M .13900002 .33200003 L .13900002 .44200004 L 0 .43100003 L 0 .4 C .07000001 .4 .07800001 .393 .07800001 .344 L .07800001 .076000008 C .07800001 .031000002 .067 .031000002 0 .031000002 L 0 0 C .039 .001 .08600001 .003 .11400001 .003 C .15400002 .003 .20100002 .003 .24100003 0 L .24100003 .031000002 L .22000002 .031000002 C .14600002 .031000002 .14400001 .042000005 .14400001 .078 L .14400001 .23200001 C .14400001 .33100004 .18600002 .42000003 .26200003 .42000003 C .26900003 .42000003 .27100004 .42000003 .27300004 .41900004 C .27 .418 .25000004 .40600003 .25000004 .38000003 C .25000004 .35200004 .27100004 .337 .293 .337 C .31100003 .337 .33600004 .349 .33600004 .381 C .33600004 .41300003 .305 .44200004 .26200003 .44200004 C .18900001 .44200004 .15300001 .37500004 .13900002 .33200003 Z "/>
</symbol>
<symbol id="font_6_6">
<path d="M .291 .087000008 C .29500003 .047000003 .32200004 .005000001 .36900003 .005000001 C .39000003 .005000001 .45100004 .019000002 .45100004 .1 L .45100004 .15600002 L .42600004 .15600002 L .42600004 .1 C .42600004 .042000005 .40100003 .036000004 .39000003 .036000004 C .35700003 .036000004 .35300002 .081 .35300002 .086 L .35300002 .286 C .35300002 .328 .35300002 .367 .31700004 .404 C .27800004 .44300003 .22800002 .45900003 .18 .45900003 C .098 .45900003 .029 .41200004 .029 .34600003 C .029 .316 .049000004 .29900003 .075 .29900003 C .10300001 .29900003 .121 .31900005 .121 .34500004 C .121 .35700003 .116000007 .39000003 .07 .39100004 C .09700001 .42600004 .146 .43700005 .178 .43700005 C .22700003 .43700005 .284 .39800004 .284 .30900003 L .284 .272 C .23300001 .26900003 .16300002 .26600004 .1 .23600002 C .024999999 .20200002 0 .15000002 0 .106000009 C 0 .025000003 .09700001 0 .16 0 C .22600001 0 .272 .040000004 .291 .087000008 M .284 .25100003 L .284 .15100001 C .284 .056 .21200001 .022000002 .167 .022000002 C .11800001 .022000002 .077 .057000005 .077 .107 C .077 .16200002 .11900001 .24500002 .284 .25100003 Z "/>
</symbol>
<symbol id="font_6_b">
<path d="M .14200002 .43100003 L .14200002 .54700008 C .14200002 .63500007 .19 .683 .23400003 .683 C .23700002 .683 .25200004 .683 .26700003 .67600008 C .25500003 .67200008 .23700002 .65900006 .23700002 .634 C .23700002 .611 .25300003 .591 .28000004 .591 C .30900003 .591 .32400004 .611 .32400004 .63500007 C .32400004 .67200008 .28700004 .70500007 .23400003 .70500007 C .164 .70500007 .079 .652 .079 .546 L .079 .43100003 L 0 .43100003 L 0 .4 L .079 .4 L .079 .076000008 C .079 .031000002 .068 .031000002 .001000002 .031000002 L .001000002 0 C .040000008 .001 .087000008 .003 .115 .003 C .155 .003 .20200002 .003 .24200002 0 L .24200002 .031000002 L .22100002 .031000002 C .14700002 .031000002 .14500001 .042000005 .14500001 .078 L .14500001 .4 L .25900004 .4 L .25900004 .43100003 L .14200002 .43100003 Z "/>
</symbol>
<use xlink:href="#font_6_5" transform="matrix(4.9813,0,0,-4.9813,6.639326,43.224)"/>
<use xlink:href="#font_6_12" transform="matrix(4.9813,0,0,-4.9813,9.782527,43.278795)"/>
<use xlink:href="#font_6_8" transform="matrix(4.9813,0,0,-4.9813,13.961837,43.278795)"/>
<use xlink:href="#font_6_12" transform="matrix(4.9813,0,0,-4.9813,16.143647,43.278795)"/>
<use xlink:href="#font_6_10" transform="matrix(4.9813,0,0,-4.9813,18.65422,43.224)"/>
<use xlink:href="#font_6_13" transform="matrix(4.9813,0,0,-4.9813,22.78372,44.190374)"/>
<use xlink:href="#font_6_16" transform="matrix(4.9813,0,0,-4.9813,25.573248,43.278795)"/>
<use xlink:href="#font_6_15" transform="matrix(4.9813,0,0,-4.9813,28.278096,43.278795)"/>
<use xlink:href="#font_6_a" transform="matrix(4.9813,0,0,-4.9813,30.260653,43.278795)"/>
<use xlink:href="#font_6_15" transform="matrix(4.9813,0,0,-4.9813,34.086294,43.278795)"/>
<use xlink:href="#font_6_d" transform="matrix(4.9813,0,0,-4.9813,36.08877,43.224)"/>
<use xlink:href="#font_6_a" transform="matrix(4.9813,0,0,-4.9813,38.83845,43.278795)"/>
<use xlink:href="#font_6_9" transform="matrix(4.9813,0,0,-4.9813,42.74379,43.278795)"/>
<use xlink:href="#font_6_12" transform="matrix(4.9813,0,0,-4.9813,45.483507,43.278795)"/>
<use xlink:href="#font_6_16" transform="matrix(4.9813,0,0,-4.9813,47.99408,43.278795)"/>
<use xlink:href="#font_6_7" transform="matrix(4.9813,0,0,-4.9813,50.74376,43.278795)"/>
<use xlink:href="#font_6_f" transform="matrix(4.9813,0,0,-4.9813,53.53827,43.224)"/>
<use xlink:href="#font_6_a" transform="matrix(4.9813,0,0,-4.9813,54.89318,43.278795)"/>
<use xlink:href="#font_6_e" transform="matrix(4.9813,0,0,-4.9813,6.624382,51.0355)"/>
<use xlink:href="#font_6_11" transform="matrix(4.9813,0,0,-4.9813,8.004202,51.0355)"/>
<use xlink:href="#font_6_15" transform="matrix(4.9813,0,0,-4.9813,10.5695719,51.090295)"/>
<use xlink:href="#font_6_a" transform="matrix(4.9813,0,0,-4.9813,12.55213,51.090295)"/>
<use xlink:href="#font_6_c" transform="matrix(4.9813,0,0,-4.9813,14.763826,52.061647)"/>
<use xlink:href="#font_6_14" transform="matrix(4.9813,0,0,-4.9813,17.254477,51.0355)"/>
<use xlink:href="#font_6_6" transform="matrix(4.9813,0,0,-4.9813,19.276886,51.090295)"/>
<use xlink:href="#font_6_f" transform="matrix(4.9813,0,0,-4.9813,21.722704,51.0355)"/>
<use xlink:href="#font_6_12" transform="matrix(4.9813,0,0,-4.9813,24.741374,51.090295)"/>
<use xlink:href="#font_6_b" transform="matrix(4.9813,0,0,-4.9813,27.25693,51.0355)"/>
<use xlink:href="#font_2_2" transform="matrix(4.9813,0,0,-4.9813,30.551953,51.16003)"/>
<use xlink:href="#font_2_1" transform="matrix(4.9813,0,0,-4.9813,37.296636,51.17996)"/>
<use xlink:href="#font_3_1" transform="matrix(3.4869,0,0,-3.4869,42.616968,45.8753)"/>
<use xlink:href="#font_4_1" transform="matrix(4.9813,0,0,-4.9813,42.99027,51.0355)"/>
<symbol id="font_6_17">
<path d="M .397 .344 C .40600003 .367 .42300005 .41000004 .48900003 .411 L .48900003 .44200004 C .46600003 .44000004 .43700005 .43900005 .41400004 .43900005 C .39000003 .43900005 .344 .441 .32700003 .44200004 L .32700003 .411 C .36400003 .41000004 .37500004 .38700003 .37500004 .36800004 C .37500004 .35900004 .37300004 .35500003 .36900003 .344 L .26700003 .089 L .155 .36800004 C .14900002 .381 .14900002 .38300003 .14900002 .38500003 C .14900002 .411 .18800003 .411 .206 .411 L .206 .44200004 C .176 .441 .12000001 .43900005 .097 .43900005 C .07 .43900005 .030000002 .44000004 0 .44200004 L 0 .411 C .063 .411 .067 .40500004 .080000009 .374 L .224 .019000002 C .23000002 .005000001 .23200003 0 .245 0 C .25800003 0 .26200003 .009000001 .26600004 .019000002 L .397 .344 Z "/>
</symbol>
<use xlink:href="#font_6_12" transform="matrix(4.9813,0,0,-4.9813,48.654977,51.090295)"/>
<use xlink:href="#font_6_17" transform="matrix(4.9813,0,0,-4.9813,50.96132,51.090295)"/>
<use xlink:href="#font_6_a" transform="matrix(4.9813,0,0,-4.9813,53.4968,51.090295)"/>
<use xlink:href="#font_6_14" transform="matrix(4.9813,0,0,-4.9813,55.708498,51.0355)"/>
<use xlink:href="#font_6_6" transform="matrix(4.9813,0,0,-4.9813,6.6692135,57.067796)"/>
<use xlink:href="#font_6_14" transform="matrix(4.9813,0,0,-4.9813,10.7488989,57.013)"/>
<use xlink:href="#font_6_a" transform="matrix(4.9813,0,0,-4.9813,12.701569,57.067796)"/>
<use xlink:href="#font_6_c" transform="matrix(4.9813,0,0,-4.9813,14.913265,58.039148)"/>
<use xlink:href="#font_6_e" transform="matrix(4.9813,0,0,-4.9813,17.428822,57.013)"/>
<use xlink:href="#font_6_12" transform="matrix(4.9813,0,0,-4.9813,18.788718,57.067796)"/>
<use xlink:href="#font_6_11" transform="matrix(4.9813,0,0,-4.9813,21.299292,57.013)"/>
<symbol id="font_5_3">
<path d="M .33400003 .63600006 C .34 .66 .343 .67 .36200003 .67300006 C .37100003 .674 .40300004 .674 .423 .674 C .49400003 .674 .605 .674 .605 .57500007 C .605 .54100009 .58900007 .47200004 .55 .43300004 C .524 .40700004 .47100003 .37500004 .381 .37500004 L .269 .37500004 L .33400003 .63600006 M .47800005 .36200003 C .579 .38400004 .698 .45400004 .698 .55500009 C .698 .64100006 .60800006 .70500007 .477 .70500007 L .192 .70500007 C .17200002 .70500007 .16300002 .70500007 .16300002 .68500009 C .16300002 .674 .17200002 .674 .19100002 .674 C .19300002 .674 .21200001 .674 .229 .67200008 C .24700001 .67 .256 .669 .256 .656 C .256 .65200009 .255 .64900007 .252 .637 L .11800001 .1 C .108 .061000006 .106 .053000004 .027000003 .053000004 C .009 .053000004 0 .053000004 0 .033000005 C 0 .022000002 .012000002 .022000002 .014000002 .022000002 C .042000005 .022000002 .11200001 .025000003 .14000002 .025000003 C .16800002 .025000003 .239 .022000002 .26700003 .022000002 C .275 .022000002 .287 .022000002 .287 .042000005 C .287 .053000004 .278 .053000004 .259 .053000004 C .222 .053000004 .194 .053000004 .194 .071 C .194 .07700001 .19600001 .082 .197 .088 L .263 .35300005 L .382 .35300005 C .473 .35300005 .491 .29700003 .491 .26200003 C .491 .24700001 .48300005 .216 .477 .193 C .47000004 .165 .46100004 .128 .46100004 .108 C .46100004 0 .58100005 0 .59400007 0 C .679 0 .71400007 .101 .71400007 .115 C .71400007 .127 .703 .127 .702 .127 C .693 .127 .69100007 .120000008 .689 .113000009 C .66400006 .039000006 .62100008 .022000002 .59800007 .022000002 C .565 .022000002 .558 .044000005 .558 .083000008 C .558 .11400001 .564 .165 .568 .19700001 C .57 .21100001 .572 .23 .572 .24400002 C .572 .32100005 .505 .35200004 .47800005 .36200003 Z "/>
</symbol>
<use xlink:href="#font_5_3" transform="matrix(4.9813,0,0,-4.9813,25.772732,57.12259)"/>
<symbol id="font_7_2">
<path d="M .57600006 .73300006 C .59300008 .73300006 .611 .73300006 .611 .7530001 C .611 .77300009 .59300008 .77300009 .57600006 .77300009 L .307 .77300009 C .135 .77300009 0 .642 0 .48400004 C 0 .323 .13800001 .194 .307 .194 L .57600006 .194 C .59300008 .194 .611 .194 .611 .21400002 C .611 .23400001 .59300008 .23400001 .57600006 .23400001 L .30900003 .23400001 C .15100001 .23400001 .04 .351 .04 .48300005 C .04 .619 .15400002 .73300006 .30900003 .73300006 L .57600006 .73300006 M .055000009 .040000008 C .038000004 .040000008 .020000004 .040000008 .020000004 .020000004 C .020000004 0 .038000004 0 .055000009 0 L .57600006 0 C .59300008 0 .611 0 .611 .020000004 C .611 .040000008 .59300008 .040000008 .57600006 .040000008 L .055000009 .040000008 Z "/>
</symbol>
<use xlink:href="#font_7_2" transform="matrix(4.9813,0,0,-4.9813,32.266946,57.69544)"/>
<symbol id="font_9_1">
<path d="M .252 .314 L .28800003 .314 L .43800003 .082 C .448 .066 .47200004 .027 .483 .012 C .49000005 0 .493 0 .51600006 0 L .65400007 0 C .67200008 0 .68700006 0 .68700006 .018000002 C .68700006 .026 .68100008 .033 .67200008 .035 C .63500007 .043 .5860001 .109000008 .56200006 .141 C .55500009 .15100001 .50500008 .21700001 .43800003 .32500003 C .52700009 .34100003 .61300006 .379 .61300006 .49800004 C .61300006 .637 .46600003 .68500009 .34800003 .68500009 L .034 .68500009 C .016 .68500009 0 .68500009 0 .66700008 C 0 .65000006 .019 .65000006 .027 .65000006 C .084 .65000006 .089 .643 .089 .59300008 L .089 .09200001 C .089 .042000005 .084 .035 .027 .035 C .019 .035 0 .035 0 .018000002 C 0 0 .016 0 .034 0 L .308 0 C .326 0 .34100003 0 .34100003 .018000002 C .34100003 .035 .324 .035 .31300003 .035 C .256 .035 .252 .043 .252 .09200001 L .252 .314 M .44500003 .363 C .47300003 .4 .476 .453 .476 .497 C .476 .545 .47000004 .59800007 .43800003 .63900008 C .47900004 .63000008 .57800009 .59900006 .57800009 .49800004 C .57800009 .43300004 .54800006 .38200004 .44500003 .363 M .252 .596 C .252 .61700007 .252 .65000006 .314 .65000006 C .39900003 .65000006 .441 .615 .441 .497 C .441 .36800004 .41000004 .349 .252 .349 L .252 .596 M .116 .035 C .124 .053000004 .124 .081 .124 .09 L .124 .595 C .124 .605 .124 .632 .116 .65000006 L .23 .65000006 C .21700001 .634 .21700001 .614 .21700001 .59900006 L .21700001 .09 C .21700001 .080000009 .21700001 .053000004 .22500001 .035 L .116 .035 M .32900004 .314 C .33600004 .31500004 .34 .316 .34800003 .316 C .363 .316 .38500003 .31800003 .4 .32000003 C .41500003 .296 .52300009 .11800001 .60600009 .035 L .50900009 .035 L .32900004 .314 Z "/>
</symbol>
<use xlink:href="#font_9_1" transform="matrix(4.9813,0,0,-4.9813,38.272199,57.013)"/>
<symbol id="font_a_1">
<path d="M .442 .18200001 L .40800003 .18200001 C .40500004 .16000001 .39500005 .101 .38200004 .091000009 C .374 .085 .29700003 .085 .28300003 .085 L .099 .085 C .20400003 .178 .23900002 .20600002 .29900003 .25300003 C .37300004 .312 .442 .374 .442 .469 C .442 .59000006 .33600004 .66400006 .20800004 .66400006 C .084 .66400006 0 .577 0 .485 C 0 .43400003 .043000007 .42900003 .053000004 .42900003 C .077 .42900003 .10600001 .446 .10600001 .48200003 C .10600001 .5 .099 .535 .047000007 .535 C .078 .606 .146 .628 .19300002 .628 C .293 .628 .34500004 .55 .34500004 .469 C .34500004 .38200004 .28300003 .31300003 .25100003 .277 L .010000005 .039 C 0 .030000002 0 .028 0 0 L .41200004 0 L .442 .18200001 Z "/>
</symbol>
<use xlink:href="#font_a_1" transform="matrix(3.4869,0,0,-3.4869,42.00967,54.955999)"/>
<symbol id="font_6_18">
<path d="M .601 .34700004 C .619 .397 .65000006 .41000004 .685 .411 L .685 .44200004 C .66300007 .44000004 .634 .43900005 .61200007 .43900005 C .583 .43900005 .53800007 .441 .519 .44200004 L .519 .411 C .555 .41000004 .577 .39200003 .577 .36300005 C .577 .35700003 .577 .35500003 .572 .34200005 L .481 .086 L .382 .365 C .37800003 .37700004 .377 .37900005 .377 .38400004 C .377 .411 .416 .411 .43600003 .411 L .43600003 .44200004 C .407 .441 .356 .43900005 .33200003 .43900005 C .30200003 .43900005 .273 .44000004 .243 .44200004 L .243 .411 C .28 .411 .296 .40900005 .306 .39600004 C .31100003 .39000003 .322 .36 .329 .34100003 L .243 .09900001 L .148 .36600004 C .143 .37800003 .143 .38000003 .143 .38400004 C .143 .411 .182 .411 .202 .411 L .202 .44200004 C .172 .441 .116000007 .43900005 .09300001 .43900005 C .08900001 .43900005 .036 .44000004 0 .44200004 L 0 .411 C .050000006 .411 .062000008 .40800003 .07400001 .37600003 L .2 .022000002 C .205 .008000001 .208 0 .221 0 C .234 0 .236 .0060000007 .241 .020000002 L .342 .30300004 L .444 .019000002 C .448 .008000001 .451 0 .46400003 0 C .47700004 0 .48000003 .009000001 .48400004 .019000002 L .601 .34700004 Z "/>
</symbol>
<symbol id="font_6_19">
<path d="M .39600004 .541 C .42200003 .60400006 .47300003 .605 .48900003 .605 L .48900003 .63600006 C .46600003 .63400009 .43700005 .633 .41400004 .633 C .39600004 .633 .34900005 .635 .32700003 .63600006 L .32700003 .605 C .358 .60400006 .374 .587 .374 .56200006 C .374 .55200007 .37300004 .5500001 .36800004 .538 L .26700003 .29200004 L .15600002 .561 C .15200001 .57100006 .15 .57500007 .15 .579 C .15 .605 .187 .605 .206 .605 L .206 .63600006 C .18 .635 .114 .633 .097 .633 C .07 .633 .030000002 .63400009 0 .63600006 L 0 .605 C .048 .605 .067 .605 .081 .57000008 L .231 .20500002 C .22600001 .19200002 .21200001 .15900001 .206 .14600002 C .18400002 .091000009 .15600002 .022 .09200001 .022 C .087000008 .022 .064 .022 .045 .040000008 C .076000008 .044 .08400001 .066 .08400001 .08200001 C .08400001 .10800001 .065000008 .12400001 .042000005 .12400001 C .022 .12400001 0 .11100001 0 .08100001 C 0 .036 .042000005 0 .09200001 0 C .155 0 .19600001 .05700001 .22 .11400001 L .39600004 .541 Z "/>
</symbol>
<use xlink:href="#font_6_18" transform="matrix(4.9813,0,0,-4.9813,45.774663,57.067796)"/>
<use xlink:href="#font_6_e" transform="matrix(4.9813,0,0,-4.9813,49.44588,57.013)"/>
<use xlink:href="#font_6_15" transform="matrix(4.9813,0,0,-4.9813,50.760946,57.067796)"/>
<use xlink:href="#font_6_d" transform="matrix(4.9813,0,0,-4.9813,52.763425,57.013)"/>
<use xlink:href="#font_6_7" transform="matrix(4.9813,0,0,-4.9813,6.599475,63.045297)"/>
<use xlink:href="#font_6_12" transform="matrix(4.9813,0,0,-4.9813,9.508554,63.045297)"/>
<use xlink:href="#font_6_16" transform="matrix(4.9813,0,0,-4.9813,12.01913,63.045297)"/>
<use xlink:href="#font_6_11" transform="matrix(4.9813,0,0,-4.9813,14.788732,62.9905)"/>
<use xlink:href="#font_6_9" transform="matrix(4.9813,0,0,-4.9813,17.568299,63.045297)"/>
<use xlink:href="#font_6_6" transform="matrix(4.9813,0,0,-4.9813,20.377753,63.045297)"/>
<use xlink:href="#font_6_14" transform="matrix(4.9813,0,0,-4.9813,22.798665,62.9905)"/>
<use xlink:href="#font_6_19" transform="matrix(4.9813,0,0,-4.9813,24.706501,64.011669)"/>
<symbol id="font_5_2">
<path d="M .71000006 .71700009 C .71000006 .72 .708 .72700008 .699 .72700008 C .69600006 .72700008 .69500008 .7260001 .684 .71500006 L .614 .6380001 C .605 .65200009 .559 .72700008 .448 .72700008 C .22500001 .72700008 0 .50600007 0 .27400003 C 0 .109000008 .118000019 0 .271 0 C .358 0 .43400003 .040000004 .487 .086 C .58000007 .16800002 .597 .25900004 .597 .26200003 C .597 .272 .587 .272 .58500006 .272 C .579 .272 .574 .27 .572 .26200003 C .563 .23300001 .54 .162 .47100003 .104 C .402 .048 .33900003 .031000004 .287 .031000004 C .19700001 .031000004 .091000009 .083000008 .091000009 .23900001 C .091000009 .29600004 .112 .45800004 .21200003 .57500007 C .273 .646 .367 .69600006 .45600004 .69600006 C .558 .69600006 .61700007 .619 .61700007 .503 C .61700007 .46300004 .614 .46200005 .614 .45200003 C .614 .44200004 .625 .44200004 .629 .44200004 C .642 .44200004 .642 .44400005 .647 .46200005 L .71000006 .71700009 Z "/>
</symbol>
<use xlink:href="#font_5_2" transform="matrix(4.9813,0,0,-4.9813,29.138566,63.10009)"/>
<symbol id="font_6_1">
<path d="M .117000009 .194 C .117000009 .25800003 .093 .29900003 .05300001 .29900003 C .018 .29900003 0 .272 0 .246 C 0 .22 .017000005 .193 .05300001 .193 C .069 .193 .08100001 .199 .091 .207 L .093 .209 C .094000007 .209 .095000009 .208 .095000009 .194 C .095000009 .13 .06700001 .069 .023000002 .022 C .017000005 .016000003 .016000003 .015000001 .016000003 .0109999929 C .016000003 .003999993 .021000006 0 .026 0 C .038000004 0 .117000009 .078999999 .117000009 .194 Z "/>
</symbol>
<use xlink:href="#font_6_1" transform="matrix(4.9813,0,0,-4.9813,33.23439,63.951894)"/>
<symbol id="font_6_2">
<path d="M .26500003 0 L .26500003 .058 L 0 .058 L 0 0 L .26500003 0 Z "/>
</symbol>
<use xlink:href="#font_6_18" transform="matrix(4.9813,0,0,-4.9813,94.42366,43.278795)"/>
<use xlink:href="#font_6_a" transform="matrix(4.9813,0,0,-4.9813,97.9305,43.278795)"/>
<use xlink:href="#font_6_8" transform="matrix(4.9813,0,0,-4.9813,101.83584,43.278795)"/>
<use xlink:href="#font_6_6" transform="matrix(4.9813,0,0,-4.9813,104.08739,43.278795)"/>
<use xlink:href="#font_6_11" transform="matrix(4.9813,0,0,-4.9813,106.52822,43.224)"/>
<use xlink:href="#font_6_8" transform="matrix(4.9813,0,0,-4.9813,110.96656,43.278795)"/>
<use xlink:href="#font_6_12" transform="matrix(4.9813,0,0,-4.9813,113.14837,43.278795)"/>
<use xlink:href="#font_6_10" transform="matrix(4.9813,0,0,-4.9813,115.65894,43.224)"/>
<use xlink:href="#font_6_13" transform="matrix(4.9813,0,0,-4.9813,119.78844,44.190374)"/>
<use xlink:href="#font_6_16" transform="matrix(4.9813,0,0,-4.9813,122.577968,43.278795)"/>
<use xlink:href="#font_6_15" transform="matrix(4.9813,0,0,-4.9813,125.28281,43.278795)"/>
<use xlink:href="#font_6_a" transform="matrix(4.9813,0,0,-4.9813,127.265369,43.278795)"/>
<use xlink:href="#font_6_15" transform="matrix(4.9813,0,0,-4.9813,131.09102,43.278795)"/>
<use xlink:href="#font_6_d" transform="matrix(4.9813,0,0,-4.9813,133.0935,43.224)"/>
<use xlink:href="#font_6_a" transform="matrix(4.9813,0,0,-4.9813,135.84319,43.278795)"/>
<use xlink:href="#font_6_6" transform="matrix(4.9813,0,0,-4.9813,139.78838,43.278795)"/>
<use xlink:href="#font_6_8" transform="matrix(4.9813,0,0,-4.9813,142.23915,43.278795)"/>
<use xlink:href="#font_6_2" transform="matrix(4.9813,0,0,-4.9813,144.33629,42.292497)"/>
<use xlink:href="#font_6_8" transform="matrix(4.9813,0,0,-4.9813,94.503368,51.090295)"/>
<use xlink:href="#font_6_16" transform="matrix(4.9813,0,0,-4.9813,96.7051,51.090295)"/>
<use xlink:href="#font_6_10" transform="matrix(4.9813,0,0,-4.9813,99.4747,51.0355)"/>
<use xlink:href="#font_6_16" transform="matrix(4.9813,0,0,-4.9813,103.48464,51.090295)"/>
<use xlink:href="#font_6_f" transform="matrix(4.9813,0,0,-4.9813,106.25923,51.0355)"/>
<use xlink:href="#font_6_6" transform="matrix(4.9813,0,0,-4.9813,107.68886,51.090295)"/>
<use xlink:href="#font_6_15" transform="matrix(4.9813,0,0,-4.9813,110.06494,51.090295)"/>
<use xlink:href="#font_6_e" transform="matrix(4.9813,0,0,-4.9813,112.07241,51.0355)"/>
<use xlink:href="#font_6_12" transform="matrix(4.9813,0,0,-4.9813,113.432308,51.090295)"/>
<use xlink:href="#font_6_11" transform="matrix(4.9813,0,0,-4.9813,115.94288,51.0355)"/>
<use xlink:href="#font_6_12" transform="matrix(4.9813,0,0,-4.9813,120.351329,51.090295)"/>
<use xlink:href="#font_6_b" transform="matrix(4.9813,0,0,-4.9813,122.86688,51.0355)"/>
<use xlink:href="#font_3_1" transform="matrix(3.4869,0,0,-3.4869,126.15746,45.8753)"/>
<use xlink:href="#font_4_1" transform="matrix(4.9813,0,0,-4.9813,126.53076,51.0355)"/>
<use xlink:href="#font_6_6" transform="matrix(4.9813,0,0,-4.9813,132.26522,51.090295)"/>
<use xlink:href="#font_6_f" transform="matrix(4.9813,0,0,-4.9813,134.71102,51.0355)"/>
<use xlink:href="#font_6_12" transform="matrix(4.9813,0,0,-4.9813,136.07093,51.090295)"/>
<use xlink:href="#font_6_11" transform="matrix(4.9813,0,0,-4.9813,138.5815,51.0355)"/>
<use xlink:href="#font_6_c" transform="matrix(4.9813,0,0,-4.9813,141.33116,52.061647)"/>
<use xlink:href="#font_6_6" transform="matrix(4.9813,0,0,-4.9813,145.55033,51.090295)"/>
<use xlink:href="#font_6_7" transform="matrix(4.9813,0,0,-4.9813,94.473468,57.067796)"/>
<use xlink:href="#font_6_12" transform="matrix(4.9813,0,0,-4.9813,97.382549,57.067796)"/>
<use xlink:href="#font_6_16" transform="matrix(4.9813,0,0,-4.9813,99.89312,57.067796)"/>
<use xlink:href="#font_6_11" transform="matrix(4.9813,0,0,-4.9813,102.66273,57.013)"/>
<use xlink:href="#font_6_9" transform="matrix(4.9813,0,0,-4.9813,105.4423,57.067796)"/>
<use xlink:href="#font_6_6" transform="matrix(4.9813,0,0,-4.9813,108.25175,57.067796)"/>
<use xlink:href="#font_6_14" transform="matrix(4.9813,0,0,-4.9813,110.67266,57.013)"/>
<use xlink:href="#font_6_19" transform="matrix(4.9813,0,0,-4.9813,112.5805,58.03417)"/>
<use xlink:href="#font_6_8" transform="matrix(4.9813,0,0,-4.9813,116.94412,57.067796)"/>
<use xlink:href="#font_6_16" transform="matrix(4.9813,0,0,-4.9813,119.14586,57.067796)"/>
<use xlink:href="#font_6_14" transform="matrix(4.9813,0,0,-4.9813,121.89553,57.013)"/>
<use xlink:href="#font_6_17" transform="matrix(4.9813,0,0,-4.9813,123.80337,57.067796)"/>
<use xlink:href="#font_6_a" transform="matrix(4.9813,0,0,-4.9813,126.33885,57.067796)"/>
<use xlink:href="#font_5_2" transform="matrix(4.9813,0,0,-4.9813,130.31008,57.12259)"/>
<symbol id="font_6_3">
<path d="M .106 .053000004 C .106 .082 .08200001 .106000009 .05300001 .106000009 C .024000004 .106000009 0 .082 0 .053000004 C 0 .024 .024000004 0 .05300001 0 C .08200001 0 .106 .024 .106 .053000004 Z "/>
</symbol>
<use xlink:href="#font_6_3" transform="matrix(4.9813,0,0,-4.9813,134.4059,57.013)"/>
</svg>
