<?xml version="1.0" encoding="UTF-8" standalone="no"?>
<!DOCTYPE svg PUBLIC "-//W3C//DTD SVG 1.1//EN" "http://www.w3.org/Graphics/SVG/1.1/DTD/svg11.dtd">
<svg xmlns="http://www.w3.org/2000/svg" xmlns:xlink="http://www.w3.org/1999/xlink" version="1.1" width="41.637pt" height="160.812pt" viewBox="0 0 41.637 160.812">
<symbol id="font_0_1">
<path d="M .305 .31300003 C .311 .33900003 .334 .43100003 .404 .43100003 C .409 .43100003 .433 .43100003 .454 .418 C .426 .41300003 .40600003 .388 .40600003 .36400003 C .40600003 .34800003 .417 .32900004 .444 .32900004 C .46600003 .32900004 .498 .34700004 .498 .38700003 C .498 .43900005 .439 .45300005 .405 .45300005 C .347 .45300005 .312 .40000005 .3 .37700004 C .275 .44300003 .221 .45300005 .19200002 .45300005 C .08800001 .45300005 .031000002 .32400004 .031000002 .29900003 C .031000002 .28900004 .041 .28900004 .043000007 .28900004 C .051000008 .28900004 .054000006 .291 .056 .3 C .09 .40600003 .156 .43100003 .19000001 .43100003 C .209 .43100003 .244 .42200003 .244 .36400003 C .244 .33300004 .22700002 .26600004 .19000001 .126 C .17400001 .064 .13900002 .022000002 .095000009 .022000002 C .08900001 .022000002 .06600001 .022000002 .045 .035 C .07000001 .040000004 .09200001 .061 .09200001 .089 C .09200001 .116000007 .07000001 .124000009 .055000009 .124000009 C .025 .124000009 0 .098000008 0 .06600001 C 0 .020000002 .050000006 0 .094000007 0 C .16000001 0 .19600001 .07000001 .19900002 .076000008 C .21100001 .039 .24700003 0 .307 0 C .41 0 .467 .12900001 .467 .15400002 C .467 .16400002 .458 .16400002 .455 .16400002 C .446 .16400002 .444 .16000001 .442 .15300001 C .409 .046 .341 .022000002 .30900003 .022000002 C .27 .022000002 .254 .054 .254 .08800001 C .254 .11000001 .26 .13200002 .271 .17600002 L .305 .31300003 Z "/>
</symbol>
<use xlink:href="#font_0_1" transform="matrix(9.9626,0,0,-9.9626,4.0859158,7.9415895)"/>
<symbol id="font_1_1">
<path d="M .22600001 .63600006 C .22600001 .66300007 .224 .66400006 .19600001 .66400006 C .132 .601 .041 .6 0 .6 L 0 .564 C .023999997 .564 .09000001 .564 .14500001 .592 L .14500001 .082 C .14500001 .049000004 .14500001 .036000004 .04500001 .036000004 L .0069999995 .036000004 L .0069999995 0 C .024999999 .001 .148 .004 .185 .004 C .21600002 .004 .34200005 .001 .36400003 0 L .36400003 .036000004 L .32600004 .036000004 C .22600001 .036000004 .22600001 .049000004 .22600001 .082 L .22600001 .63600006 Z "/>
</symbol>
<use xlink:href="#font_1_1" transform="matrix(6.9738,0,0,-6.9738,10.251143,9.326004)"/>
<symbol id="font_0_2">
<path d="M .45700003 .586 C .461 .6 .461 .602 .461 .609 C .461 .62700006 .447 .63600006 .432 .63600006 C .42200003 .63600006 .40600003 .63 .397 .615 C .395 .61 .387 .579 .38300003 .561 C .37600003 .535 .36900003 .508 .363 .48100005 L .318 .301 C .314 .286 .271 .21600002 .20500002 .21600002 C .15400002 .21600002 .143 .26000003 .143 .29700003 C .143 .34300003 .16000001 .40500004 .194 .49300004 C .21000001 .53400006 .21400002 .545 .21400002 .56500008 C .21400002 .61 .18200001 .6470001 .13200002 .6470001 C .037 .6470001 0 .50200006 0 .49300004 C 0 .48300005 .01 .48300005 .012 .48300005 C .022000002 .48300005 .023 .485 .028000003 .50100007 C .055000009 .595 .095000009 .625 .12900001 .625 C .13700001 .625 .15400002 .625 .15400002 .59300008 C .15400002 .568 .14400001 .54200008 .13700001 .523 C .097 .41700004 .079 .36 .079 .31300003 C .079 .224 .142 .194 .201 .194 C .24000003 .194 .274 .21100001 .30200003 .23900002 C .289 .187 .277 .13800001 .237 .08500001 C .21100001 .051 .17300001 .022 .127 .022 C .113000009 .022 .068 .025000006 .051000008 .06400001 C .067 .06400001 .080000009 .06400001 .094000007 .076000008 C .104 .08500001 .11400001 .098000008 .11400001 .117000009 C .11400001 .148 .087000008 .15200001 .07700001 .15200001 C .054000006 .15200001 .021 .136 .021 .087000008 C .021 .037 .065000008 0 .127 0 C .23 0 .333 .091000009 .361 .20400001 L .45700003 .586 Z "/>
</symbol>
<use xlink:href="#font_0_2" transform="matrix(9.9626,0,0,-9.9626,28.774916,9.652334)"/>
<use xlink:href="#font_1_1" transform="matrix(6.9738,0,0,-6.9738,34.130144,9.104996)"/>
<path transform="matrix(1,0,0,-1,8.879,167.828)" stroke-width="1.59404" stroke-linecap="butt" stroke-miterlimit="10" stroke-linejoin="miter" fill="none" stroke="#000080" d="M 3.80453 157.18187 L 17.93983 141.52429 "/>
<path transform="matrix(.671,.74329,.74329,-.671,26.818819,26.303696)" d="M 3.78581 0 L -2.27148 3.02866 L 0 0 L -2.27148 -3.02866 " fill="#000080"/>
<use xlink:href="#font_0_1" transform="matrix(9.9626,0,0,-9.9626,4.0859158,34.839586)"/>
<symbol id="font_1_2">
<path d="M .442 .18200001 L .40800003 .18200001 C .40500004 .16000001 .39500005 .101 .38200004 .091000009 C .374 .085 .29700003 .085 .28300003 .085 L .099 .085 C .20400003 .178 .23900002 .20600002 .29900003 .25300003 C .37300004 .312 .442 .374 .442 .469 C .442 .59000006 .33600004 .66400006 .20800004 .66400006 C .084 .66400006 0 .577 0 .485 C 0 .43400003 .043000007 .42900003 .053000004 .42900003 C .077 .42900003 .10600001 .446 .10600001 .48200003 C .10600001 .5 .099 .535 .047000007 .535 C .078 .606 .146 .628 .19300002 .628 C .293 .628 .34500004 .55 .34500004 .469 C .34500004 .38200004 .28300003 .31300003 .25100003 .277 L .010000005 .039 C 0 .030000002 0 .028 0 0 L .41200004 0 L .442 .18200001 Z "/>
</symbol>
<use xlink:href="#font_1_2" transform="matrix(6.9738,0,0,-6.9738,9.930348,36.225)"/>
<use xlink:href="#font_0_2" transform="matrix(9.9626,0,0,-9.9626,28.774916,36.551343)"/>
<use xlink:href="#font_1_2" transform="matrix(6.9738,0,0,-6.9738,33.80935,36.003015)"/>
<path transform="matrix(1,0,0,-1,8.879,167.828)" stroke-width="1.59404" stroke-linecap="butt" stroke-miterlimit="10" stroke-linejoin="miter" fill="none" stroke="#000080" d="M 3.80453 130.28258 L 17.93983 114.62498 "/>
<path transform="matrix(.671,.74329,.74329,-.671,26.818819,53.203004)" d="M 3.78581 0 L -2.27148 3.02866 L 0 0 L -2.27148 -3.02866 " fill="#000080"/>
<use xlink:href="#font_0_1" transform="matrix(9.9626,0,0,-9.9626,4.0859158,61.7386)"/>
<symbol id="font_1_3">
<path d="M .219 .35400004 C .29700003 .35400004 .35300002 .3 .35300002 .193 C .35300002 .069000009 .28100003 .032 .223 .032 C .18300002 .032 .095 .043000007 .053000008 .102000009 C .10000001 .10400001 .111 .13700001 .111 .158 C .111 .19 .087 .213 .056000007 .213 C .028 .213 0 .19600001 0 .155 C 0 .061000006 .104 0 .22500001 0 C .36400003 0 .46 .09300001 .46 .193 C .46 .27100004 .39600004 .34900005 .286 .37200005 C .39100004 .41000004 .42900003 .48500005 .42900003 .546 C .42900003 .625 .33800004 .684 .22700002 .684 C .116 .684 .031 .63 .031 .55 C .031 .51600006 .053000008 .49700005 .083000008 .49700005 C .11400001 .49700005 .134 .52 .134 .548 C .134 .577 .11400001 .598 .083000008 .6 C .118 .644 .187 .65500006 .22400002 .65500006 C .26900003 .65500006 .33200003 .633 .33200003 .546 C .33200003 .504 .31800003 .45800004 .29200004 .42700003 C .25900004 .38900004 .23100002 .38700003 .18100001 .38400004 C .156 .38200004 .154 .38200004 .149 .38100005 C .147 .38100005 .139 .37900005 .139 .36800004 C .139 .35400004 .148 .35400004 .165 .35400004 L .219 .35400004 Z "/>
</symbol>
<use xlink:href="#font_1_3" transform="matrix(6.9738,0,0,-6.9738,9.867584,63.263494)"/>
<use xlink:href="#font_0_2" transform="matrix(9.9626,0,0,-9.9626,28.774916,63.450345)"/>
<use xlink:href="#font_1_3" transform="matrix(6.9738,0,0,-6.9738,33.746587,63.041494)"/>
<path transform="matrix(1,0,0,-1,8.879,167.828)" stroke-width="1.59404" stroke-linecap="butt" stroke-miterlimit="10" stroke-linejoin="miter" fill="none" stroke="#000080" d="M 3.80453 103.38329 L 17.93983 87.7257 "/>
<path transform="matrix(.671,.74329,.74329,-.671,26.818819,80.102298)" d="M 3.78581 0 L -2.27148 3.02866 L 0 0 L -2.27148 -3.02866 " fill="#000080"/>
<use xlink:href="#font_0_1" transform="matrix(9.9626,0,0,-9.9626,4.0859158,88.63759)"/>
<symbol id="font_1_4">
<path d="M .49000005 .164 L .49000005 .2 L .379 .2 L .379 .646 C .379 .66700008 .379 .674 .35700003 .674 C .345 .674 .34100003 .674 .331 .66 L 0 .2 L 0 .164 L .294 .164 L .294 .082 C .294 .048 .294 .036000004 .213 .036000004 L .186 .036000004 L .186 0 C .236 .002 .3 .004 .33600004 .004 C .37300004 .004 .437 .002 .48700003 0 L .48700003 .036000004 L .46 .036000004 C .379 .036000004 .379 .048 .379 .082 L .379 .164 L .49000005 .164 M .301 .56600007 L .301 .2 L .037000006 .2 L .301 .56600007 Z "/>
</symbol>
<use xlink:href="#font_1_4" transform="matrix(6.9738,0,0,-6.9738,9.762978,90.023)"/>
<use xlink:href="#font_0_2" transform="matrix(9.9626,0,0,-9.9626,28.774916,90.349338)"/>
<use xlink:href="#font_1_4" transform="matrix(6.9738,0,0,-6.9738,33.641977,89.801)"/>
<symbol id="font_2_1">
<path d="M .106 .053000004 C .106 .082 .08200001 .106000009 .05300001 .106000009 C .024000004 .106000009 0 .082 0 .053000004 C 0 .024 .024000004 0 .05300001 0 C .08200001 0 .106 .024 .106 .053000004 Z "/>
</symbol>
<use xlink:href="#font_2_1" transform="matrix(9.9626,0,0,-9.9626,20.493784,103.472)"/>
<use xlink:href="#font_2_1" transform="matrix(9.9626,0,0,-9.9626,20.493784,107.457)"/>
<use xlink:href="#font_2_1" transform="matrix(9.9626,0,0,-9.9626,20.493784,111.442)"/>
<use xlink:href="#font_0_1" transform="matrix(9.9626,0,0,-9.9626,3.609915,128.98659)"/>
<symbol id="font_3_1">
<path d="M .075 .073 C .07100001 .060000004 .065 .035 .065 .032 C .065 .010000001 .083000008 0 .09900001 0 C .117 0 .133 .013 .138 .022 C .143 .031000004 .15100001 .063 .156 .084 C .161 .103 .172 .14900002 .178 .17400001 C .184 .19600001 .19000001 .21800001 .19500001 .24100001 C .20600002 .282 .20800002 .29 .237 .331 C .26500003 .37100003 .31200005 .423 .38700003 .423 C .44500003 .423 .44600005 .372 .44600005 .35300002 C .44600005 .293 .40300004 .18200001 .38700003 .14000002 C .37600003 .112 .37200005 .103 .37200005 .086 C .37200005 .033000005 .41600005 0 .467 0 C .56700006 0 .61100009 .13800001 .61100009 .15300001 C .61100009 .16600001 .59800007 .16600001 .595 .16600001 C .58100005 .16600001 .58000007 .16000001 .57600006 .14900002 C .55300006 .069000009 .51000007 .028 .47000004 .028 C .44900004 .028 .44500003 .042000005 .44500003 .063 C .44500003 .086 .45000003 .099 .46800006 .14400001 C .48000003 .17500001 .521 .28100003 .521 .337 C .521 .43400003 .44400005 .451 .39100004 .451 C .30800004 .451 .25200004 .4 .22200002 .36 C .21500002 .42900003 .156 .451 .114999998 .451 C .072 .451 .049 .42000003 .036000004 .397 C .014000002 .36 0 .303 0 .298 C 0 .285 .014000002 .285 .017 .285 C .031 .285 .032 .28800003 .039 .315 C .054 .374 .073 .423 .112 .423 C .138 .423 .145 .40100003 .145 .374 C .145 .35500003 .136 .31800003 .12900001 .291 C .12200001 .264 .112 .22300002 .10700001 .20100002 L .075 .073 Z "/>
</symbol>
<use xlink:href="#font_3_1" transform="matrix(6.9738,0,0,-6.9738,9.341768,130.44074)"/>
<use xlink:href="#font_0_2" transform="matrix(9.9626,0,0,-9.9626,28.297915,130.69733)"/>
<use xlink:href="#font_3_1" transform="matrix(6.9738,0,0,-6.9738,33.221769,130.21973)"/>
<path transform="matrix(1,0,0,-1,8.879,167.828)" stroke-width="1.59404" stroke-linecap="butt" stroke-miterlimit="10" stroke-linejoin="miter" fill="none" stroke="#000080" d="M 3.80453 36.13506 L 17.93983 20.47746 "/>
<path transform="matrix(.671,.74329,.74329,-.671,26.818819,147.35053)" d="M 3.78581 0 L -2.27148 3.02866 L 0 0 L -2.27148 -3.02866 " fill="#000080"/>
<use xlink:href="#font_0_1" transform="matrix(9.9626,0,0,-9.9626,4.0859158,155.88559)"/>
<use xlink:href="#font_1_1" transform="matrix(6.9738,0,0,-6.9738,10.251143,157.26999)"/>
<use xlink:href="#font_0_2" transform="matrix(9.9626,0,0,-9.9626,28.774916,157.59633)"/>
<use xlink:href="#font_1_1" transform="matrix(6.9738,0,0,-6.9738,34.130144,157.049)"/>
</svg>
