<?xml version="1.0" encoding="UTF-8" standalone="no"?>
<!DOCTYPE svg PUBLIC "-//W3C//DTD SVG 1.1//EN" "http://www.w3.org/Graphics/SVG/1.1/DTD/svg11.dtd">
<svg xmlns="http://www.w3.org/2000/svg" xmlns:xlink="http://www.w3.org/1999/xlink" version="1.1" width="207.037pt" height="181.419pt" viewBox="0 0 207.037 181.419">
<path transform="matrix(1,0,0,-1,.199,174.473)" stroke-width="1" stroke-linecap="butt" stroke-dasharray="2.98883,2.98883" stroke-miterlimit="10" stroke-linejoin="miter" fill="none" stroke="#bfbfbf" d="M 13.87636 0 L 13.87636 161.38571 M 41.62909 0 L 41.62909 161.38571 M 69.38182 0 L 69.38182 161.38571 M 124.88728 0 L 124.88728 161.38571 M 152.64002 0 L 152.64002 161.38571 M 180.39275 0 L 180.39275 161.38571 "/>
<path transform="matrix(1,0,0,-1,.199,174.473)" stroke-width="1" stroke-linecap="butt" stroke-dasharray="2.98883,2.98883" stroke-miterlimit="10" stroke-linejoin="miter" fill="none" stroke="#bfbfbf" d="M 0 0 L 194.26912 0 M 0 29.34285 L 194.26912 29.34285 M 0 88.02856 L 194.26912 88.02856 M 0 117.37143 L 194.26912 117.37143 M 0 146.71428 L 194.26912 146.71428 "/>
<path transform="matrix(1,0,0,-1,.199,174.473)" stroke-width="1" stroke-linecap="butt" stroke-miterlimit="10" stroke-linejoin="miter" fill="none" stroke="#808080" d="M 13.87636 56.5597 L 13.87636 60.8117 M 41.62909 56.5597 L 41.62909 60.8117 M 69.38182 56.5597 L 69.38182 60.8117 M 124.88728 56.5597 L 124.88728 60.8117 M 152.64002 56.5597 L 152.64002 60.8117 M 180.39275 56.5597 L 180.39275 60.8117 "/>
<path transform="matrix(1,0,0,-1,.199,174.473)" stroke-width="1" stroke-linecap="butt" stroke-miterlimit="10" stroke-linejoin="miter" fill="none" stroke="#808080" d="M 95.0086 0 L 99.26048 0 M 95.0086 29.34285 L 99.26048 29.34285 M 95.0086 88.02856 L 99.26048 88.02856 M 95.0086 117.37143 L 99.26048 117.37143 M 95.0086 146.71428 L 99.26048 146.71428 "/>
<path transform="matrix(1,0,0,-1,.199,174.473)" stroke-width="1" stroke-linecap="butt" stroke-miterlimit="10" stroke-linejoin="miter" fill="none" stroke="#000000" d="M 0 58.68571 L 192.2766 58.68571 "/>
<path transform="matrix(1,0,0,-1,192.4756,115.78729)" d="M 1.99252 0 L -1.19551 1.59401 L 0 0 L -1.19551 -1.59401 "/>
<path transform="matrix(1,0,0,-1,.199,174.473)" stroke-width="1" stroke-linecap="butt" stroke-miterlimit="10" stroke-linejoin="miter" fill="none" stroke="#000000" d="M 97.13455 0 L 97.13455 159.39319 "/>
<path transform="matrix(0,-1,-1,-0,97.33355,15.079819)" d="M 1.99252 0 L -1.19551 1.59401 L 0 0 L -1.19551 -1.59401 "/>
<symbol id="font_0_1">
<path d="M .57600006 0 C .59300008 0 .611 0 .611 .019999996 C .611 .040000008 .59300008 .040000008 .57600006 .040000008 L .035000005 .040000008 C .018 .040000008 0 .040000008 0 .019999996 C 0 0 .018 0 .035000005 0 L .57600006 0 Z "/>
</symbol>
<use xlink:href="#font_0_1" transform="matrix(9.9626,0,0,-9.9626,8.536896,125.56261)"/>
<symbol id="font_1_5">
<path d="M .089999999 .35000003 L .089999999 .37400005 C .089999999 .62700006 .21400002 .66300007 .26500003 .66300007 C .28900004 .66300007 .33100004 .65700009 .35300002 .623 C .33800004 .623 .298 .623 .298 .57800009 C .298 .54700008 .32200004 .53200009 .344 .53200009 C .36 .53200009 .39000003 .54100009 .39000003 .58000007 C .39000003 .64000007 .34600003 .688 .263 .688 C .13499999 .688 0 .559 0 .33800004 C 0 .071 .116000007 0 .20900002 0 C .32000003 0 .41500003 .094000007 .41500003 .22600001 C .41500003 .35300005 .32600004 .44900004 .215 .44900004 C .14700002 .44900004 .11000001 .39800004 .089999999 .35000003 M .20900002 .028 C .146 .028 .116000007 .088 .11000001 .103 C .092 .15 .092 .23 .092 .24800001 C .092 .32600004 .124000009 .42600004 .21400002 .42600004 C .23000002 .42600004 .27600003 .42600004 .307 .36400003 C .32500003 .32700003 .32500003 .27600003 .32500003 .22700002 C .32500003 .179 .32500003 .12900001 .30800004 .093 C .27800004 .033000005 .23200003 .028 .20900002 .028 Z "/>
</symbol>
<use xlink:href="#font_1_5" transform="matrix(9.9626,0,0,-9.9626,15.877429,128.07318)"/>
<use xlink:href="#font_0_1" transform="matrix(9.9626,0,0,-9.9626,36.289899,125.56261)"/>
<symbol id="font_1_4">
<path d="M .266 .165 L .266 .078 C .266 .042000005 .26400004 .031000002 .19000001 .031000002 L .16900002 .031000002 L .16900002 0 C .21000001 .003 .26200003 .003 .30400003 .003 C .34600003 .003 .39900003 .003 .44000004 0 L .44000004 .031000002 L .41900004 .031000002 C .34500004 .031000002 .34300003 .042000005 .34300003 .078 L .34300003 .165 L .44300003 .165 L .44300003 .19600001 L .34300003 .19600001 L .34300003 .651 C .34300003 .671 .34300003 .67700007 .32700003 .67700007 C .31800003 .67700007 .31500004 .67700007 .307 .665 L 0 .19600001 L 0 .165 L .266 .165 M .272 .19600001 L .028 .19600001 L .272 .569 L .272 .19600001 Z "/>
</symbol>
<use xlink:href="#font_1_4" transform="matrix(9.9626,0,0,-9.9626,43.490957,127.854007)"/>
<use xlink:href="#font_0_1" transform="matrix(9.9626,0,0,-9.9626,64.04189,125.56261)"/>
<symbol id="font_1_3">
<path d="M .07700001 .07700001 L .18300002 .18 C .33900003 .31800003 .39900003 .372 .39900003 .47200004 C .39900003 .586 .30900003 .666 .18700002 .666 C .074 .666 0 .574 0 .485 C 0 .42900003 .05 .42900003 .053000008 .42900003 C .07000001 .42900003 .105000007 .441 .105000007 .48200003 C .105000007 .508 .08700001 .53400006 .052000006 .53400006 C .044000005 .53400006 .042000008 .53400006 .039 .53300008 C .062000004 .59800007 .11600001 .63500007 .17400001 .63500007 C .26500003 .63500007 .308 .554 .308 .47200004 C .308 .39200003 .25800003 .31300003 .20300003 .25100003 L .011000004 .037 C 0 .026 0 .024 0 0 L .37100003 0 L .39900003 .17400001 L .374 .17400001 C .36900003 .14400001 .36200003 .1 .352 .085 C .345 .07700001 .279 .07700001 .257 .07700001 L .07700001 .07700001 Z "/>
</symbol>
<use xlink:href="#font_1_3" transform="matrix(9.9626,0,0,-9.9626,71.46213,127.854007)"/>
<use xlink:href="#font_1_3" transform="matrix(9.9626,0,0,-9.9626,123.092128,127.854007)"/>
<use xlink:href="#font_1_4" transform="matrix(9.9626,0,0,-9.9626,150.62595,127.854007)"/>
<use xlink:href="#font_1_5" transform="matrix(9.9626,0,0,-9.9626,178.51743,128.07318)"/>
<use xlink:href="#font_0_1" transform="matrix(9.9626,0,0,-9.9626,79.7839,174.97661)"/>
<use xlink:href="#font_1_4" transform="matrix(9.9626,0,0,-9.9626,86.984958,177.268)"/>
<use xlink:href="#font_0_1" transform="matrix(9.9626,0,0,-9.9626,79.7839,145.63462)"/>
<use xlink:href="#font_1_3" transform="matrix(9.9626,0,0,-9.9626,87.20413,147.92601)"/>
<use xlink:href="#font_1_3" transform="matrix(9.9626,0,0,-9.9626,87.20413,89.656009)"/>
<use xlink:href="#font_1_4" transform="matrix(9.9626,0,0,-9.9626,86.984958,60.313005)"/>
<use xlink:href="#font_1_5" transform="matrix(9.9626,0,0,-9.9626,87.12443,31.190186)"/>
<clipPath id="cp2">
<path transform="matrix(1,0,0,-1,.199,174.473)" d="M 0 0 L 194.26912 0 L 194.26912 161.38571 L 0 161.38571 Z "/>
</clipPath>
<g clip-path="url(#cp2)">
<path transform="matrix(1,0,0,-1,.199,174.473)" stroke-width="1.59404" stroke-linecap="butt" stroke-miterlimit="10" stroke-linejoin="miter" fill="none" stroke="#800000" d="M 97.13455 44.01428 C 97.13455 44.01428 117.186 27.30724 124.88728 29.34285 C 132.58856 31.37848 148.78939 50.54318 152.64002 58.68571 C 156.49065 66.82823 154.56534 81.92168 152.64002 88.02856 C 150.7147 94.13547 144.5396 98.62874 138.76366 102.7 C 132.9877 106.77126 118.71219 113.30017 111.01093 117.37143 C 103.30965 121.44269 90.95946 132.04286 83.2582 132.04286 C 75.55692 132.04286 61.2814 122.4605 55.50546 117.37143 C 49.7295 112.28235 43.55441 101.47118 41.62909 95.36429 C 39.70378 89.25739 37.77846 78.44621 41.62909 73.35713 C 45.47972 68.26807 61.68054 62.75697 69.38182 58.68571 C 77.0831 54.61446 97.13455 44.01428 97.13455 44.01428 "/>
<path transform="matrix(1,0,0,-1,.199,174.473)" d="M 113.50162 117.37143 C 113.50162 118.74701 112.3865 119.86212 111.01093 119.86212 C 109.63535 119.86212 108.52023 118.74701 108.52023 117.37143 C 108.52023 115.99585 109.63535 114.88074 111.01093 114.88074 C 112.3865 114.88074 113.50162 115.99585 113.50162 117.37143 Z M 111.01093 117.37143 "/>
<path transform="matrix(1,0,0,-1,.199,174.473)" stroke-width="1" stroke-linecap="butt" stroke-miterlimit="10" stroke-linejoin="miter" fill="none" stroke="#000000" d="M 113.50162 117.37143 C 113.50162 118.74701 112.3865 119.86212 111.01093 119.86212 C 109.63535 119.86212 108.52023 118.74701 108.52023 117.37143 C 108.52023 115.99585 109.63535 114.88074 111.01093 114.88074 C 112.3865 114.88074 113.50162 115.99585 113.50162 117.37143 Z M 111.01093 117.37143 "/>
<path transform="matrix(1,0,0,-1,.199,174.473)" d="M 71.87251 58.68571 C 71.87251 60.0613 70.7574 61.1764 69.38182 61.1764 C 68.00624 61.1764 66.89113 60.0613 66.89113 58.68571 C 66.89113 57.31013 68.00624 56.19502 69.38182 56.19502 C 70.7574 56.19502 71.87251 57.31013 71.87251 58.68571 Z M 69.38182 58.68571 "/>
<path transform="matrix(1,0,0,-1,.199,174.473)" stroke-width="1" stroke-linecap="butt" stroke-miterlimit="10" stroke-linejoin="miter" fill="none" stroke="#000000" d="M 71.87251 58.68571 C 71.87251 60.0613 70.7574 61.1764 69.38182 61.1764 C 68.00624 61.1764 66.89113 60.0613 66.89113 58.68571 C 66.89113 57.31013 68.00624 56.19502 69.38182 56.19502 C 70.7574 56.19502 71.87251 57.31013 71.87251 58.68571 Z M 69.38182 58.68571 "/>
<path transform="matrix(1,0,0,-1,.199,174.473)" d="M 155.1307 88.02856 C 155.1307 89.40414 154.0156 90.51926 152.64002 90.51926 C 151.26444 90.51926 150.14933 89.40414 150.14933 88.02856 C 150.14933 86.65298 151.26444 85.53787 152.64002 85.53787 C 154.0156 85.53787 155.1307 86.65298 155.1307 88.02856 Z M 152.64002 88.02856 "/>
<path transform="matrix(1,0,0,-1,.199,174.473)" stroke-width="1" stroke-linecap="butt" stroke-miterlimit="10" stroke-linejoin="miter" fill="none" stroke="#000000" d="M 155.1307 88.02856 C 155.1307 89.40414 154.0156 90.51926 152.64002 90.51926 C 151.26444 90.51926 150.14933 89.40414 150.14933 88.02856 C 150.14933 86.65298 151.26444 85.53787 152.64002 85.53787 C 154.0156 85.53787 155.1307 86.65298 155.1307 88.02856 Z M 152.64002 88.02856 "/>
<path transform="matrix(1,0,0,-1,.199,174.473)" d="M 44.11978 95.36429 C 44.11978 96.73987 43.00467 97.85498 41.62909 97.85498 C 40.25351 97.85498 39.1384 96.73987 39.1384 95.36429 C 39.1384 93.98871 40.25351 92.8736 41.62909 92.8736 C 43.00467 92.8736 44.11978 93.98871 44.11978 95.36429 Z M 41.62909 95.36429 "/>
<path transform="matrix(1,0,0,-1,.199,174.473)" stroke-width="1" stroke-linecap="butt" stroke-miterlimit="10" stroke-linejoin="miter" fill="none" stroke="#000000" d="M 44.11978 95.36429 C 44.11978 96.73987 43.00467 97.85498 41.62909 97.85498 C 40.25351 97.85498 39.1384 96.73987 39.1384 95.36429 C 39.1384 93.98871 40.25351 92.8736 41.62909 92.8736 C 43.00467 92.8736 44.11978 93.98871 44.11978 95.36429 Z M 41.62909 95.36429 "/>
<path transform="matrix(1,0,0,-1,.199,174.473)" stroke-width="1" stroke-linecap="butt" stroke-miterlimit="10" stroke-linejoin="miter" fill="none" stroke="#000080" d="M 111.01093 117.37143 L 71.61273 140.97615 "/>
<path transform="matrix(-.86127,-.51605,-.51605,.86127,71.811748,33.496858)" d="M 2.59026 0 L -1.55415 2.0722 L 0 0 L -1.55415 -2.0722 " fill="#000080"/>
<path transform="matrix(1,0,0,-1,.199,174.473)" stroke-width="1" stroke-linecap="butt" stroke-miterlimit="10" stroke-linejoin="miter" fill="none" stroke="#008000" d="M 111.01093 117.37143 L 133.37412 159.09703 "/>
<path transform="matrix(.47356,-.88358,-.88358,-.47356,133.57312,15.375977)" d="M 2.59026 0 L -1.55415 2.0722 L 0 0 L -1.55415 -2.0722 " fill="#008000"/>
<path transform="matrix(1,0,0,-1,.199,174.473)" stroke-width="1" stroke-linecap="butt" stroke-miterlimit="10" stroke-linejoin="miter" fill="none" stroke="#000080" d="M 152.64002 88.02856 L 139.8723 115.0272 "/>
<path transform="matrix(-.42801,-.90501,-.90501,.42801,140.0713,59.44581)" d="M 2.59026 0 L -1.55415 2.0722 L 0 0 L -1.55415 -2.0722 " fill="#000080"/>
<path transform="matrix(1,0,0,-1,.199,174.473)" stroke-width="1" stroke-linecap="butt" stroke-miterlimit="10" stroke-linejoin="miter" fill="none" stroke="#008000" d="M 152.64002 88.02856 L 178.09462 101.48503 "/>
<path transform="matrix(.88722,-.46906,-.46906,-.88722,178.29361,72.987979)" d="M 2.59026 0 L -1.55415 2.0722 L 0 0 L -1.55415 -2.0722 " fill="#008000"/>
<path transform="matrix(1,0,0,-1,.199,174.473)" stroke-width="1" stroke-linecap="butt" stroke-miterlimit="10" stroke-linejoin="miter" fill="none" stroke="#000080" d="M 41.62909 95.36429 L 31.4471 68.45074 "/>
<path transform="matrix(-.35483,.93787,.93787,.35483,31.6461,106.02227)" d="M 2.59026 0 L -1.55415 2.0722 L 0 0 L -1.55415 -2.0722 " fill="#000080"/>
<path transform="matrix(1,0,0,-1,.199,174.473)" stroke-width="1" stroke-linecap="butt" stroke-miterlimit="10" stroke-linejoin="miter" fill="none" stroke="#008000" d="M 41.62909 95.36429 L 16.26453 106.09138 "/>
<path transform="matrix(-.92198,-.38994,-.38994,.92198,16.46354,68.38164)" d="M 2.59026 0 L -1.55415 2.0722 L 0 0 L -1.55415 -2.0722 " fill="#008000"/>
<path transform="matrix(1,0,0,-1,.199,174.473)" stroke-width="1" stroke-linecap="butt" stroke-miterlimit="10" stroke-linejoin="miter" fill="none" stroke="#000080" d="M 69.38182 58.68571 L 94.83643 45.22925 "/>
<path transform="matrix(.88722,.46906,.46906,-.88722,95.03541,129.24376)" d="M 2.59026 0 L -1.55415 2.0722 L 0 0 L -1.55415 -2.0722 " fill="#000080"/>
<path transform="matrix(1,0,0,-1,.199,174.473)" stroke-width="1" stroke-linecap="butt" stroke-miterlimit="10" stroke-linejoin="miter" fill="none" stroke="#008000" d="M 69.38182 58.68571 L 56.6141 31.68707 "/>
<path transform="matrix(-.42801,.90501,.90501,.42801,56.813104,142.78594)" d="M 2.59026 0 L -1.55415 2.0722 L 0 0 L -1.55415 -2.0722 " fill="#008000"/>
<path transform="matrix(1,0,0,-1,.199,174.473)" d="M 113.50162 117.37143 C 113.50162 118.74701 112.3865 119.86212 111.01093 119.86212 C 109.63535 119.86212 108.52023 118.74701 108.52023 117.37143 C 108.52023 115.99585 109.63535 114.88074 111.01093 114.88074 C 112.3865 114.88074 113.50162 115.99585 113.50162 117.37143 Z M 111.01093 117.37143 "/>
<path transform="matrix(1,0,0,-1,.199,174.473)" stroke-width="1" stroke-linecap="butt" stroke-miterlimit="10" stroke-linejoin="miter" fill="none" stroke="#000000" d="M 113.50162 117.37143 C 113.50162 118.74701 112.3865 119.86212 111.01093 119.86212 C 109.63535 119.86212 108.52023 118.74701 108.52023 117.37143 C 108.52023 115.99585 109.63535 114.88074 111.01093 114.88074 C 112.3865 114.88074 113.50162 115.99585 113.50162 117.37143 Z M 111.01093 117.37143 "/>
<path transform="matrix(1,0,0,-1,.199,174.473)" d="M 71.87251 58.68571 C 71.87251 60.0613 70.7574 61.1764 69.38182 61.1764 C 68.00624 61.1764 66.89113 60.0613 66.89113 58.68571 C 66.89113 57.31013 68.00624 56.19502 69.38182 56.19502 C 70.7574 56.19502 71.87251 57.31013 71.87251 58.68571 Z M 69.38182 58.68571 "/>
<path transform="matrix(1,0,0,-1,.199,174.473)" stroke-width="1" stroke-linecap="butt" stroke-miterlimit="10" stroke-linejoin="miter" fill="none" stroke="#000000" d="M 71.87251 58.68571 C 71.87251 60.0613 70.7574 61.1764 69.38182 61.1764 C 68.00624 61.1764 66.89113 60.0613 66.89113 58.68571 C 66.89113 57.31013 68.00624 56.19502 69.38182 56.19502 C 70.7574 56.19502 71.87251 57.31013 71.87251 58.68571 Z M 69.38182 58.68571 "/>
<path transform="matrix(1,0,0,-1,.199,174.473)" d="M 155.1307 88.02856 C 155.1307 89.40414 154.0156 90.51926 152.64002 90.51926 C 151.26444 90.51926 150.14933 89.40414 150.14933 88.02856 C 150.14933 86.65298 151.26444 85.53787 152.64002 85.53787 C 154.0156 85.53787 155.1307 86.65298 155.1307 88.02856 Z M 152.64002 88.02856 "/>
<path transform="matrix(1,0,0,-1,.199,174.473)" stroke-width="1" stroke-linecap="butt" stroke-miterlimit="10" stroke-linejoin="miter" fill="none" stroke="#000000" d="M 155.1307 88.02856 C 155.1307 89.40414 154.0156 90.51926 152.64002 90.51926 C 151.26444 90.51926 150.14933 89.40414 150.14933 88.02856 C 150.14933 86.65298 151.26444 85.53787 152.64002 85.53787 C 154.0156 85.53787 155.1307 86.65298 155.1307 88.02856 Z M 152.64002 88.02856 "/>
<path transform="matrix(1,0,0,-1,.199,174.473)" d="M 44.11978 95.36429 C 44.11978 96.73987 43.00467 97.85498 41.62909 97.85498 C 40.25351 97.85498 39.1384 96.73987 39.1384 95.36429 C 39.1384 93.98871 40.25351 92.8736 41.62909 92.8736 C 43.00467 92.8736 44.11978 93.98871 44.11978 95.36429 Z M 41.62909 95.36429 "/>
<path transform="matrix(1,0,0,-1,.199,174.473)" stroke-width="1" stroke-linecap="butt" stroke-miterlimit="10" stroke-linejoin="miter" fill="none" stroke="#000000" d="M 44.11978 95.36429 C 44.11978 96.73987 43.00467 97.85498 41.62909 97.85498 C 40.25351 97.85498 39.1384 96.73987 39.1384 95.36429 C 39.1384 93.98871 40.25351 92.8736 41.62909 92.8736 C 43.00467 92.8736 44.11978 93.98871 44.11978 95.36429 Z M 41.62909 95.36429 "/>
<symbol id="font_3_1">
<path d="M 1.098 0 C 1.12 0 1.1350001 0 1.1350001 .029 C 1.1350001 .039000006 1.1350001 .049999983 1.1220001 .05700001 C 1.067 .083000008 .95300009 .137 .86800006 .28800003 C .85600009 .307 .855 .308 .82900008 .308 C .81200006 .308 .79300007 .308 .79300007 .28599999 C .79300007 .272 .8510001 .15599999 .9560001 .072999987 L .051000008 .072999987 C .036 .072999987 0 .072999987 0 .037 C 0 0 .035000005 0 .051000008 0 L 1.098 0 Z "/>
</symbol>
<use xlink:href="#font_3_1" transform="matrix(6.9738,0,0,-6.9738,30.79393,141.11362)" fill="#008000"/>
<symbol id="font_4_1">
<path d="M .069000009 .356 L .069000009 .047000003 L 0 .047000003 L 0 0 C .028000005 .001 .088 .003 .126 .003 C .165 .003 .22400002 .001 .25200004 0 L .25200004 .047000003 L .18300002 .047000003 L .18300002 .256 C .18300002 .365 .269 .41400004 .33200003 .41400004 C .366 .41400004 .38700003 .393 .38700003 .317 L .38700003 .047000003 L .31800003 .047000003 L .31800003 0 C .34600003 .001 .40600003 .003 .444 .003 C .48299999 .003 .542 .001 .57 0 L .57 .047000003 L .501 .047000003 L .501 .30600003 C .501 .411 .44700004 .45000003 .347 .45000003 C .251 .45000003 .19800002 .393 .172 .342 L .172 .45000003 L 0 .44200004 L 0 .395 C .062000008 .395 .069000009 .395 .069000009 .356 Z "/>
</symbol>
<use xlink:href="#font_4_1" transform="matrix(9.9626,0,0,-9.9626,32.02332,149.026)" fill="#008000"/>
<symbol id="font_5_1">
<path d="M .24200002 .43100003 C .25 .448 .25100003 .456 .25100003 .463 C .25100003 .49400003 .22300002 .518 .192 .518 C .15400002 .518 .14200002 .487 .137 .47100003 L .0050000029 .038000004 C .0040000008 .036000007 0 .023000002 0 .022 C 0 .010000002 .031000004 0 .039000006 0 C .046000005 0 .047000007 .0020000004 .054000006 .017 L .24200002 .43100003 Z "/>
</symbol>
<use xlink:href="#font_5_1" transform="matrix(6.9738,0,0,-6.9738,39.605745,144.62709)" fill="#008000"/>
<symbol id="font_1_1">
<path d="M .23200003 .00999999 C .23200003 .012999982 .23200003 .014999986 .215 .03199999 C .09 .15799999 .058 .347 .058 .5 C .058 .674 .096 .84800007 .21900001 .97300007 C .23200003 .985 .23200003 .98700007 .23200003 .99 C .23200003 .99700006 .22800002 1 .222 1 C .21200001 1 .12200001 .93200007 .06299999 .805 C .012000002 .69500008 0 .584 0 .5 C 0 .422 .011 .301 .066 .188 C .126 .065 .21200001 0 .222 0 C .22800002 0 .23200003 .0029999912 .23200003 .00999999 Z "/>
</symbol>
<use xlink:href="#font_1_1" transform="matrix(9.9626,0,0,-9.9626,43.0523,151.51665)" fill="#008000"/>
<symbol id="font_6_1">
<path d="M .18300002 .411 L .277 .411 C .29700003 .411 .307 .411 .307 .43100003 C .307 .44200004 .29700003 .44200004 .279 .44200004 L .19100002 .44200004 C .227 .584 .23200003 .60400006 .23200003 .61 C .23200003 .62700006 .22000002 .637 .20300001 .637 C .2 .637 .172 .636 .163 .601 L .124 .44200004 L .030000002 .44200004 C .009999998 .44200004 0 .44200004 0 .42300005 C 0 .411 .007999999 .411 .028 .411 L .11600001 .411 C .044 .127 .04 .11000001 .04 .092 C .04 .038000004 .078 0 .132 0 C .234 0 .291 .14600002 .291 .15400002 C .291 .16400002 .28300003 .16400002 .279 .16400002 C .27 .16400002 .26900003 .16100002 .264 .15000002 C .22100002 .046 .16800002 .022000002 .134 .022000002 C .113000009 .022000002 .103 .035 .103 .068 C .103 .092 .105000007 .09900001 .109 .116000007 L .18300002 .411 Z "/>
</symbol>
<use xlink:href="#font_6_1" transform="matrix(9.9626,0,0,-9.9626,46.169145,149.13559)" fill="#008000"/>
<symbol id="font_1_2">
<path d="M .232 .5 C .232 .578 .22100002 .699 .16600001 .81200006 C .106 .93500009 .020000004 1 .009999998 1 C .0040000008 1 0 .99600008 0 .99 C 0 .98700007 0 .985 .019000002 .967 C .117000009 .86800006 .174 .709 .174 .5 C .174 .329 .137 .153 .012999997 .026999996 C 0 .014999986 0 .012999982 0 .00999999 C 0 .003999993 .0040000008 0 .009999998 0 C .020000004 0 .11000001 .06799999 .169 .195 C .22 .305 .232 .416 .232 .5 Z "/>
</symbol>
<use xlink:href="#font_1_2" transform="matrix(9.9626,0,0,-9.9626,50.10587,151.51665)" fill="#008000"/>
<use xlink:href="#font_3_1" transform="matrix(6.9738,0,0,-6.9738,148.74195,60.421617)" fill="#000080"/>
<symbol id="font_4_2">
<path d="M .18300002 .523 C .18300002 .54200008 .18400002 .543 .19800002 .55700007 C .238 .59800007 .29000003 .60400006 .312 .60400006 C .379 .60400006 .43500004 .543 .43500004 .417 C .43500004 .27600003 .365 .224 .3 .224 C .286 .224 .23900002 .224 .194 .278 C .18300002 .291 .18300002 .292 .18300002 .31100003 L .18300002 .523 M .18300002 .23300001 C .22600001 .198 .27 .18800001 .31100003 .18800001 C .46100004 .18800001 .563 .278 .563 .417 C .563 .55 .472 .64400008 .328 .64400008 C .25300003 .64400008 .20000002 .61300006 .17700002 .595 L .17700002 .64400008 L 0 .63600006 L 0 .589 C .062000008 .589 .069000009 .589 .069000009 .551 L .069000009 .047000007 L 0 .047000007 L 0 0 C .028000005 .001000002 .088 .0029999912 .126 .0029999912 C .165 .0029999912 .224 .001000002 .252 0 L .252 .047000007 L .18300002 .047000007 L .18300002 .23300001 Z "/>
</symbol>
<use xlink:href="#font_4_2" transform="matrix(9.9626,0,0,-9.9626,149.89063,70.266757)" fill="#000080"/>
<use xlink:href="#font_5_1" transform="matrix(6.9738,0,0,-6.9738,157.55275,63.93508)" fill="#000080"/>
<use xlink:href="#font_1_1" transform="matrix(9.9626,0,0,-9.9626,160.9993,70.82465)" fill="#000080"/>
<use xlink:href="#font_6_1" transform="matrix(9.9626,0,0,-9.9626,164.11714,68.443599)" fill="#000080"/>
<use xlink:href="#font_1_2" transform="matrix(9.9626,0,0,-9.9626,168.05287,70.82465)" fill="#000080"/>
<use xlink:href="#font_3_1" transform="matrix(6.9738,0,0,-6.9738,143.20095,141.11362)" fill="#800000"/>
<use xlink:href="#font_4_2" transform="matrix(9.9626,0,0,-9.9626,144.35063,150.95874)" fill="#800000"/>
<use xlink:href="#font_1_1" transform="matrix(9.9626,0,0,-9.9626,152.6643,151.51665)" fill="#800000"/>
<use xlink:href="#font_6_1" transform="matrix(9.9626,0,0,-9.9626,155.78115,149.13559)" fill="#800000"/>
<use xlink:href="#font_1_2" transform="matrix(9.9626,0,0,-9.9626,159.71788,151.51665)" fill="#800000"/>
</g>
<symbol id="font_6_2">
<path d="M .305 .31300003 C .311 .33900003 .334 .43100003 .404 .43100003 C .409 .43100003 .433 .43100003 .454 .418 C .426 .41300003 .40600003 .388 .40600003 .36400003 C .40600003 .34800003 .417 .32900004 .444 .32900004 C .46600003 .32900004 .498 .34700004 .498 .38700003 C .498 .43900005 .439 .45300005 .405 .45300005 C .347 .45300005 .312 .40000005 .3 .37700004 C .275 .44300003 .221 .45300005 .19200002 .45300005 C .08800001 .45300005 .031000002 .32400004 .031000002 .29900003 C .031000002 .28900004 .041 .28900004 .043000007 .28900004 C .051000008 .28900004 .054000006 .291 .056 .3 C .09 .40600003 .156 .43100003 .19000001 .43100003 C .209 .43100003 .244 .42200003 .244 .36400003 C .244 .33300004 .22700002 .26600004 .19000001 .126 C .17400001 .064 .13900002 .022000002 .095000009 .022000002 C .08900001 .022000002 .06600001 .022000002 .045 .035 C .07000001 .040000004 .09200001 .061 .09200001 .089 C .09200001 .116000007 .07000001 .124000009 .055000009 .124000009 C .025 .124000009 0 .098000008 0 .06600001 C 0 .020000002 .050000006 0 .094000007 0 C .16000001 0 .19600001 .07000001 .19900002 .076000008 C .21100001 .039 .24700003 0 .307 0 C .41 0 .467 .12900001 .467 .15400002 C .467 .16400002 .458 .16400002 .455 .16400002 C .446 .16400002 .444 .16000001 .442 .15300001 C .409 .046 .341 .022000002 .30900003 .022000002 C .27 .022000002 .254 .054 .254 .08800001 C .254 .11000001 .26 .13200002 .271 .17600002 L .305 .31300003 Z "/>
</symbol>
<use xlink:href="#font_6_2" transform="matrix(9.9626,0,0,-9.9626,198.31192,118.03159)"/>
<symbol id="font_6_3">
<path d="M .45700003 .586 C .461 .6 .461 .602 .461 .609 C .461 .62700006 .447 .63600006 .432 .63600006 C .42200003 .63600006 .40600003 .63 .397 .615 C .395 .61 .387 .579 .38300003 .561 C .37600003 .535 .36900003 .508 .363 .48100005 L .318 .301 C .314 .286 .271 .21600002 .20500002 .21600002 C .15400002 .21600002 .143 .26000003 .143 .29700003 C .143 .34300003 .16000001 .40500004 .194 .49300004 C .21000001 .53400006 .21400002 .545 .21400002 .56500008 C .21400002 .61 .18200001 .6470001 .13200002 .6470001 C .037 .6470001 0 .50200006 0 .49300004 C 0 .48300005 .01 .48300005 .012 .48300005 C .022000002 .48300005 .023 .485 .028000003 .50100007 C .055000009 .595 .095000009 .625 .12900001 .625 C .13700001 .625 .15400002 .625 .15400002 .59300008 C .15400002 .568 .14400001 .54200008 .13700001 .523 C .097 .41700004 .079 .36 .079 .31300003 C .079 .224 .142 .194 .201 .194 C .24000003 .194 .274 .21100001 .30200003 .23900002 C .289 .187 .277 .13800001 .237 .08500001 C .21100001 .051 .17300001 .022 .127 .022 C .113000009 .022 .068 .025000006 .051000008 .06400001 C .067 .06400001 .080000009 .06400001 .094000007 .076000008 C .104 .08500001 .11400001 .098000008 .11400001 .117000009 C .11400001 .148 .087000008 .15200001 .07700001 .15200001 C .054000006 .15200001 .021 .136 .021 .087000008 C .021 .037 .065000008 0 .127 0 C .23 0 .333 .091000009 .361 .20400001 L .45700003 .586 Z "/>
</symbol>
<use xlink:href="#font_6_3" transform="matrix(9.9626,0,0,-9.9626,95.02392,9.652334)"/>
</svg>
