<?xml version="1.0" encoding="UTF-8" standalone="no"?>
<!DOCTYPE svg PUBLIC "-//W3C//DTD SVG 1.1//EN" "http://www.w3.org/Graphics/SVG/1.1/DTD/svg11.dtd">
<svg xmlns="http://www.w3.org/2000/svg" xmlns:xlink="http://www.w3.org/1999/xlink" version="1.1" width="150.236pt" height="63.592pt" viewBox="0 0 150.236 63.592">
<symbol id="font_0_1">
<path d="M .057000005 .05099988 C .065000008 .05099988 .073 .052999975 .08 .055999996 C .132 .08099985 .09900001 .16699982 .04 .14499998 C 0 .1309998 .003999997 .08099985 .023000002 .051999809 C .047 .015999794 .096 0 .13700001 .0059998037 C .18800001 .0149998669 .222 .058999778 .24600002 .10099983 C .29900003 .194 .324 .30299986 .35000003 .4059999 C .41500003 .6639999 .47300006 .9239999 .523 1.185 C .57100006 1.433 .605 1.686 .66 1.927 C .675 1.99 .69000008 2.053 .71400007 2.113 C .72300007 2.137 .734 2.161 .75000008 2.181 C .758 2.191 .768 2.201 .78000006 2.204 C .794 2.208 .81200006 2.203 .82500007 2.197 C .83400008 2.193 .84300008 2.188 .85 2.181 C .84200009 2.181 .83400008 2.179 .827 2.1759999 C .77500006 2.151 .808 2.065 .86700007 2.087 C .90700009 2.101 .90300008 2.151 .88400009 2.18 C .86 2.216 .81100007 2.232 .77000007 2.226 C .71900007 2.217 .685 2.173 .661 2.131 C .60800006 2.038 .583 1.929 .55700007 1.826 C .49200005 1.568 .43400003 1.308 .384 1.0469999 C .33600004 .7989999 .30200003 .5459999 .24700001 .30499996 C .23200003 .24199987 .21700001 .1789999 .193 .11899996 C .184 .09499979 .17300001 .07099986 .157 .05099988 C .149 .04099989 .139 .030999899 .127 .027999878 C .113000009 .02399993 .095 .028999806 .082 .034999849 C .073 .038999797 .064 .04399991 .057000005 .05099988 Z "/>
</symbol>
<use xlink:href="#font_0_1" transform="matrix(9.9626,0,0,-9.9626,9.238278,24.566708)"/>
<symbol id="font_1_2">
<path d="M .198 .674 C .19900002 .676 .202 .689 .202 .69 C .202 .69500008 .198 .704 .186 .704 C .16600001 .704 .083000008 .69600006 .058000007 .694 C .050000006 .693 .036000007 .69200006 .036000007 .671 C .036000007 .657 .050000006 .657 .062000008 .657 C .110000018 .657 .110000018 .65000006 .110000018 .642 C .110000018 .635 .10000001 .595 .09400001 .572 L .07100001 .48000003 C .062000008 .446 .0070000069 .22700002 .0050000029 .21400002 C 0 .19000001 0 .17700002 0 .165 C 0 .064 .06400001 0 .14700002 0 C .272 0 .40500004 .136 .40500004 .284 C .40500004 .40100003 .324 .451 .255 .451 C .20300003 .451 .15900001 .42200003 .12900001 .396 L .198 .674 M .14800002 .028 C .09900001 .028 .07100001 .071 .07100001 .13000001 C .07100001 .16700001 .08000001 .20100002 .10800001 .314 C .11400001 .333 .11400001 .335 .13300002 .357 C .17100002 .40100003 .216 .423 .25200004 .423 C .291 .423 .32500006 .394 .32500006 .326 C .32500006 .285 .30300004 .18300002 .273 .125 C .24900003 .076 .19900002 .028 .14800002 .028 Z "/>
</symbol>
<symbol id="font_1_1">
<path d="M .361 .39200003 C .34000004 .425 .306 .451 .25800003 .451 C .13000001 .451 0 .31 0 .16600001 C 0 .069000009 .065 0 .15100001 0 C .205 0 .25300003 .031000004 .29299999 .07 C .31200005 .010000001 .37 0 .39600004 0 C .43200005 0 .45700003 .022 .47500003 .053000004 C .49700005 .092 .51000007 .14900002 .51000007 .15300001 C .51000007 .16600001 .49700005 .16600001 .49400003 .16600001 C .48000003 .16600001 .47900004 .16200002 .47200007 .135 C .46000005 .087000008 .44100005 .028 .399 .028 C .37300004 .028 .366 .050000006 .366 .077 C .366 .094000007 .374 .13000001 .38100005 .15600002 C .388 .18300002 .398 .22400002 .403 .24600002 L .42300005 .322 C .42900003 .34800003 .44100005 .395 .44100005 .4 C .44100005 .42200003 .42300005 .432 .407 .432 C .39000006 .432 .36700005 .42000003 .361 .39200003 M .297 .135 C .29000003 .107 .268 .087000008 .246 .068 C .237 .060000004 .19700001 .028 .154 .028 C .117 .028 .081 .054000006 .081 .125 C .081 .17800002 .11 .28800003 .133 .328 C .179 .40800003 .23 .423 .25800003 .423 C .328 .423 .347 .347 .347 .336 C .347 .33200003 .34500004 .32500003 .34400005 .322 L .297 .135 Z "/>
</symbol>
<use xlink:href="#font_1_2" transform="matrix(6.9738,0,0,-6.9738,19.20227,4.9127366)"/>
<use xlink:href="#font_1_1" transform="matrix(6.9738,0,0,-6.9738,14.739402,25.086737)"/>
<symbol id="font_2_5">
<path d="M .314 .605 L .4 .605 C .42000003 .605 .43 .605 .43 .625 C .43 .63600006 .42000003 .63600006 .40300004 .63600006 L .32000003 .63600006 L .34100003 .75 C .34500004 .771 .35900004 .842 .365 .8540001 C .374 .873 .39100004 .888 .41200004 .888 C .416 .888 .44200004 .888 .461 .87 C .41700004 .86600008 .407 .8310001 .407 .816 C .407 .793 .425 .781 .444 .781 C .47 .781 .49900005 .8030001 .49900005 .8410001 C .49900005 .8870001 .45300005 .9100001 .41200004 .9100001 C .37800003 .9100001 .31500004 .8920001 .28500004 .793 C .279 .7720001 .27600003 .7620001 .252 .63600006 L .18300002 .63600006 C .164 .63600006 .15300001 .63600006 .15300001 .61700007 C .15300001 .605 .162 .605 .18100001 .605 L .24700001 .605 L .172 .21000001 C .15400002 .113000009 .13700001 .022 .08500001 .022 C .081 .022 .056 .022 .037 .040000008 C .083000008 .043000014 .09200001 .07900001 .09200001 .094000007 C .09200001 .117000009 .074 .12900001 .055 .12900001 C .029 .12900001 0 .10700001 0 .069000009 C 0 .024000004 .044 0 .08500001 0 C .14 0 .18 .059 .19800002 .09700001 C .23000002 .16000001 .25300003 .28100003 .254 .28800003 L .314 .605 Z "/>
</symbol>
<use xlink:href="#font_2_5" transform="matrix(9.9626,0,0,-9.9626,24.932017,17.982333)"/>
<symbol id="font_3_1">
<path d="M .24200002 .43100003 C .25 .448 .25100003 .456 .25100003 .463 C .25100003 .49400003 .22300002 .518 .192 .518 C .15400002 .518 .14200002 .487 .137 .47100003 L .0050000029 .038000004 C .0040000008 .036000007 0 .023000002 0 .022 C 0 .010000002 .031000004 0 .039000006 0 C .046000005 0 .047000007 .0020000004 .054000006 .017 L .24200002 .43100003 Z "/>
</symbol>
<use xlink:href="#font_3_1" transform="matrix(6.9738,0,0,-6.9738,30.688742,11.541074)"/>
<symbol id="font_4_1">
<path d="M .23200003 .00999999 C .23200003 .012999982 .23200003 .014999986 .215 .03199999 C .09 .15799999 .058 .347 .058 .5 C .058 .674 .096 .84800007 .21900001 .97300007 C .23200003 .985 .23200003 .98700007 .23200003 .99 C .23200003 .99700006 .22800002 1 .222 1 C .21200001 1 .12200001 .93200007 .06299999 .805 C .012000002 .69500008 0 .584 0 .5 C 0 .422 .011 .301 .066 .188 C .126 .065 .21200001 0 .222 0 C .22800002 0 .23200003 .0029999912 .23200003 .00999999 Z "/>
</symbol>
<use xlink:href="#font_4_1" transform="matrix(9.9626,0,0,-9.9626,34.1353,18.430649)"/>
<symbol id="font_2_6">
<path d="M .305 .31300003 C .311 .33900003 .334 .43100003 .404 .43100003 C .409 .43100003 .433 .43100003 .454 .418 C .426 .41300003 .40600003 .388 .40600003 .36400003 C .40600003 .34800003 .417 .32900004 .444 .32900004 C .46600003 .32900004 .498 .34700004 .498 .38700003 C .498 .43900005 .439 .45300005 .405 .45300005 C .347 .45300005 .312 .40000005 .3 .37700004 C .275 .44300003 .221 .45300005 .19200002 .45300005 C .08800001 .45300005 .031000002 .32400004 .031000002 .29900003 C .031000002 .28900004 .041 .28900004 .043000007 .28900004 C .051000008 .28900004 .054000006 .291 .056 .3 C .09 .40600003 .156 .43100003 .19000001 .43100003 C .209 .43100003 .244 .42200003 .244 .36400003 C .244 .33300004 .22700002 .26600004 .19000001 .126 C .17400001 .064 .13900002 .022000002 .095000009 .022000002 C .08900001 .022000002 .06600001 .022000002 .045 .035 C .07000001 .040000004 .09200001 .061 .09200001 .089 C .09200001 .116000007 .07000001 .124000009 .055000009 .124000009 C .025 .124000009 0 .098000008 0 .06600001 C 0 .020000002 .050000006 0 .094000007 0 C .16000001 0 .19600001 .07000001 .19900002 .076000008 C .21100001 .039 .24700003 0 .307 0 C .41 0 .467 .12900001 .467 .15400002 C .467 .16400002 .458 .16400002 .455 .16400002 C .446 .16400002 .444 .16000001 .442 .15300001 C .409 .046 .341 .022000002 .30900003 .022000002 C .27 .022000002 .254 .054 .254 .08800001 C .254 .11000001 .26 .13200002 .271 .17600002 L .305 .31300003 Z "/>
</symbol>
<use xlink:href="#font_2_6" transform="matrix(9.9626,0,0,-9.9626,37.312917,16.049588)"/>
<symbol id="font_4_2">
<path d="M .232 .5 C .232 .578 .22100002 .699 .16600001 .81200006 C .106 .93500009 .020000004 1 .009999998 1 C .0040000008 1 0 .99600008 0 .99 C 0 .98700007 0 .985 .019000002 .967 C .117000009 .86800006 .174 .709 .174 .5 C .174 .329 .137 .153 .012999997 .026999996 C 0 .014999986 0 .012999982 0 .00999999 C 0 .003999993 .0040000008 0 .009999998 0 C .020000004 0 .11000001 .06799999 .169 .195 C .22 .305 .232 .416 .232 .5 Z "/>
</symbol>
<use xlink:href="#font_4_2" transform="matrix(9.9626,0,0,-9.9626,43.28587,18.430649)"/>
<symbol id="font_2_4">
<path d="M .47600005 .694 C .47600005 .695 .47600005 .705 .46300004 .705 C .44800005 .705 .35300002 .69600006 .33600004 .694 C .32800005 .693 .32200004 .688 .32200004 .675 C .32200004 .663 .33100004 .663 .34600003 .663 C .39400003 .663 .39600004 .656 .39600004 .646 L .39300005 .626 L .33300004 .38900004 C .31500004 .42600004 .286 .45300005 .24100001 .45300005 C .124 .45300005 0 .30600003 0 .16000001 C 0 .06600001 .055000005 0 .133 0 C .153 0 .20300001 .0040000008 .263 .075 C .27100004 .033000005 .30600003 0 .35400004 0 C .38900004 0 .41200004 .023000002 .42800004 .055000005 C .44500003 .091000009 .45800004 .15200001 .45800004 .15400002 C .45800004 .16400002 .44900004 .16400002 .44600005 .16400002 C .43600003 .16400002 .43500004 .16000001 .43200005 .14600002 C .41500003 .081 .397 .022000002 .35600005 .022000002 C .32900004 .022000002 .32600004 .048 .32600004 .068 C .32600004 .092 .32800005 .09900001 .33200003 .116000007 L .47600005 .694 M .26800005 .13000001 C .263 .112 .263 .11000001 .24800001 .093 C .20400001 .038000004 .163 .022000002 .135 .022000002 C .08499999 .022000002 .07100001 .077 .07100001 .116000007 C .07100001 .16600001 .103 .28900004 .126 .335 C .157 .39400003 .202 .43100003 .242 .43100003 C .307 .43100003 .32100005 .34900005 .32100005 .34300003 C .32100005 .337 .31900005 .33100004 .31800003 .32600004 L .26800005 .13000001 Z "/>
</symbol>
<use xlink:href="#font_2_4" transform="matrix(9.9626,0,0,-9.9626,48.650506,16.049588)"/>
<use xlink:href="#font_2_6" transform="matrix(9.9626,0,0,-9.9626,53.73143,16.049588)"/>
<symbol id="font_4_6">
<path d="M .63100007 .19400002 C .646 .19400002 .665 .19400002 .665 .214 C .665 .23400001 .646 .23400001 .632 .23400001 L .033 .23400001 C .019000002 .23400001 0 .23400001 0 .214 C 0 .19400002 .019000002 .19400002 .034 .19400002 L .63100007 .19400002 M .632 0 C .646 0 .665 0 .665 .02000001 C .665 .040000008 .646 .040000008 .63100007 .040000008 L .034 .040000008 C .019000002 .040000008 0 .040000008 0 .02000001 C 0 0 .019000002 0 .033 0 L .632 0 Z "/>
</symbol>
<use xlink:href="#font_4_6" transform="matrix(9.9626,0,0,-9.9626,72.41991,14.614973)"/>
<use xlink:href="#font_2_5" transform="matrix(9.9626,0,0,-9.9626,92.86801,17.982333)"/>
<use xlink:href="#font_4_1" transform="matrix(9.9626,0,0,-9.9626,99.27629,18.430649)"/>
<symbol id="font_2_3">
<path d="M .192 .694 C .192 .695 .192 .705 .179 .705 C .156 .705 .083000008 .697 .057 .695 C .049 .694 .038 .693 .038 .675 C .038 .663 .047000003 .663 .062000004 .663 C .11 .663 .112 .656 .112 .646 C .112 .639 .103 .605 .098000008 .584 L .015999999 .25800003 C .0040000008 .20800002 0 .19200002 0 .15700002 C 0 .062000004 .053 0 .127 0 C .24500002 0 .36800004 .14900002 .36800004 .293 C .36800004 .38400004 .31500004 .45300005 .235 .45300005 C .18900001 .45300005 .148 .42400003 .118 .39300005 L .192 .694 M .098000008 .316 C .104 .33800004 .104 .34000004 .113000009 .351 C .162 .41600005 .207 .43100003 .233 .43100003 C .26900003 .43100003 .29600004 .40100003 .29600004 .337 C .29600004 .27800004 .263 .16300002 .24500002 .12500002 C .212 .058000003 .16600001 .022000002 .127 .022000002 C .092999998 .022000002 .060000007 .049000004 .060000007 .123 C .060000007 .14200002 .060000007 .16100002 .076000008 .22400002 L .098000008 .316 Z "/>
</symbol>
<use xlink:href="#font_2_3" transform="matrix(9.9626,0,0,-9.9626,102.63323,16.049588)"/>
<use xlink:href="#font_4_2" transform="matrix(9.9626,0,0,-9.9626,107.007869,18.430649)"/>
<symbol id="font_5_1">
<path d="M .57600006 0 C .59300008 0 .611 0 .611 .019999996 C .611 .040000008 .59300008 .040000008 .57600006 .040000008 L .035000005 .040000008 C .018 .040000008 0 .040000008 0 .019999996 C 0 0 .018 0 .035000005 0 L .57600006 0 Z "/>
</symbol>
<use xlink:href="#font_5_1" transform="matrix(9.9626,0,0,-9.9626,113.35589,13.648601)"/>
<use xlink:href="#font_2_5" transform="matrix(9.9626,0,0,-9.9626,123.019008,17.982333)"/>
<use xlink:href="#font_4_1" transform="matrix(9.9626,0,0,-9.9626,129.42729,18.430649)"/>
<symbol id="font_2_2">
<path d="M .33300004 .38900004 C .31500004 .42600004 .286 .45300005 .24100001 .45300005 C .124 .45300005 0 .30600003 0 .16000001 C 0 .06600001 .055000005 0 .133 0 C .153 0 .20300001 .0040000008 .263 .075 C .27100004 .033000005 .30600003 0 .35400004 0 C .38900004 0 .41200004 .023000002 .42800004 .055000005 C .44500003 .091000009 .45800004 .15200001 .45800004 .15400002 C .45800004 .16400002 .44900004 .16400002 .44600005 .16400002 C .43600003 .16400002 .43500004 .16000001 .43200005 .14600002 C .41500003 .081 .397 .022000002 .35600005 .022000002 C .32900004 .022000002 .32600004 .048 .32600004 .068 C .32600004 .09 .32800005 .098000008 .33900003 .14200002 C .35000003 .18400002 .35200004 .19400002 .36100004 .23200003 L .397 .37200005 C .40400005 .40000005 .40400005 .40200005 .40400005 .40600003 C .40400005 .42300005 .39200003 .43300004 .37500004 .43300004 C .35100005 .43300004 .33600004 .411 .33300004 .38900004 M .26800005 .13000001 C .263 .112 .263 .11000001 .24800001 .093 C .20400001 .038000004 .163 .022000002 .135 .022000002 C .08499999 .022000002 .07100001 .077 .07100001 .116000007 C .07100001 .16600001 .103 .28900004 .126 .335 C .157 .39400003 .202 .43100003 .242 .43100003 C .307 .43100003 .32100005 .34900005 .32100005 .34300003 C .32100005 .337 .31900005 .33100004 .31800003 .32600004 L .26800005 .13000001 Z "/>
</symbol>
<use xlink:href="#font_2_2" transform="matrix(9.9626,0,0,-9.9626,132.7145,16.049588)"/>
<use xlink:href="#font_4_2" transform="matrix(9.9626,0,0,-9.9626,138.14987,18.430649)"/>
<symbol id="font_6_3">
<path d="M .484 .09200001 C .484 .115 .484 .120000008 .47 .120000008 C .409 .12100001 .31 .12900001 .22000002 .17300001 C .112 .22700002 .071 .29000003 .046000005 .32900004 C .043 .33400003 .037 .33400003 .024 .33400003 C .0009999983 .33400003 0 .333 0 .30800004 L 0 .29200004 C .136 .047000003 .361 0 .463 0 C .484 0 .484 .001 .484 .028 L .484 .09200001 Z "/>
</symbol>
<use xlink:href="#font_6_3" transform="matrix(9.9626,0,0,-9.9626,3.4678908,32.948999)"/>
<path transform="matrix(1,0,0,-1,8.189993,32.948999)" d="M 0 0 L 19.925 0 L 19.925 1.195 L 0 1.195 Z "/>
<symbol id="font_6_2">
<path d="M .48400004 .04200001 C .34800003 .28700004 .123 .33400003 .021000002 .33400003 C 0 .33400003 0 .333 0 .30600003 L 0 .24200002 C 0 .21900001 0 .21400002 .014 .21400002 C .075 .21300002 .17400001 .20500002 .264 .16100002 C .372 .10700001 .41300003 .044000016 .43800003 .00500001 C .441 0 .447 0 .46 0 C .483 0 .48400004 .001000002 .48400004 .026000008 L .48400004 .04200001 Z "/>
</symbol>
<symbol id="font_6_1">
<path d="M .484 .30600003 C .484 .333 .484 .33400003 .463 .33400003 C .361 .33400003 .136 .286 0 .04200001 L 0 .026000008 C 0 .001000002 .0009999983 0 .024 0 C .043 0 .044 .001000002 .049000004 .008000001 C .13100001 .13900002 .269 .21000003 .472 .21400002 C .484 .21400002 .484 .22100002 .484 .24200002 L .484 .30600003 Z "/>
</symbol>
<use xlink:href="#font_6_2" transform="matrix(9.9626,0,0,-9.9626,28.015366,35.080995)"/>
<use xlink:href="#font_6_1" transform="matrix(9.9626,0,0,-9.9626,32.359064,35.080995)"/>
<path transform="matrix(1,0,0,-1,37.080995,32.948999)" d="M 0 0 L 19.925 0 L 19.925 1.195 L 0 1.195 Z "/>
<symbol id="font_6_4">
<path d="M .48400004 .30800004 C .48400004 .333 .483 .33400003 .46 .33400003 C .441 .33400003 .44 .333 .435 .326 C .35300002 .19500001 .21500002 .124000009 .012000001 .120000008 C 0 .120000008 0 .113000009 0 .09200001 L 0 .028 C 0 .001 0 0 .021000002 0 C .123 0 .34800003 .048 .48400004 .29200004 L .48400004 .30800004 Z "/>
</symbol>
<use xlink:href="#font_6_4" transform="matrix(9.9626,0,0,-9.9626,56.907369,32.948999)"/>
<use xlink:href="#font_6_3" transform="matrix(9.9626,0,0,-9.9626,90.00089,32.948999)"/>
<path transform="matrix(1,0,0,-1,94.724,32.948999)" d="M 0 0 L 18.431 0 L 18.431 1.195 L 0 1.195 Z "/>
<use xlink:href="#font_6_2" transform="matrix(9.9626,0,0,-9.9626,113.054378,35.080995)"/>
<use xlink:href="#font_6_1" transform="matrix(9.9626,0,0,-9.9626,117.39806,35.080995)"/>
<path transform="matrix(1,0,0,-1,122.121,32.948999)" d="M 0 0 L 18.431 0 L 18.431 1.195 L 0 1.195 Z "/>
<use xlink:href="#font_6_4" transform="matrix(9.9626,0,0,-9.9626,140.45238,32.948999)"/>
<symbol id="font_4_7">
<path d="M .63 .67700007 L .019000002 .67700007 L 0 .45200003 L .025000003 .45200003 C .039 .61300006 .054 .646 .20500002 .646 C .223 .646 .24900003 .646 .259 .64400008 C .28 .64000007 .28 .629 .28 .606 L .28 .079 C .28 .045 .28 .031000002 .17500001 .031000002 L .135 .031000002 L .135 0 C .17600002 .003 .278 .003 .324 .003 C .37 .003 .473 .003 .514 0 L .514 .031000002 L .47400005 .031000002 C .36900003 .031000002 .36900003 .045 .36900003 .079 L .36900003 .606 C .36900003 .62600007 .36900003 .64000007 .387 .64400008 C .398 .646 .425 .646 .444 .646 C .595 .646 .61 .61300006 .624 .45200003 L .64900007 .45200003 L .63 .67700007 Z "/>
</symbol>
<symbol id="font_4_16">
<path d="M .44300003 .22500003 C .44300003 .35300002 .34300003 .45900003 .222 .45900003 C .097 .45900003 0 .35000003 0 .22500003 C 0 .096 .104 0 .22100002 0 C .342 0 .44300003 .098000008 .44300003 .22500003 M .222 .025000003 C .17900002 .025000003 .135 .046 .10800001 .092 C .083000008 .136 .083000008 .19700001 .083000008 .23300003 C .083000008 .272 .083000008 .32600004 .10700001 .37000004 C .134 .41600005 .18100001 .43700005 .22100002 .43700005 C .26500003 .43700005 .30800004 .41500003 .33400003 .37200005 C .36 .32900004 .36 .27100004 .36 .23300003 C .36 .19700001 .36 .143 .33800004 .09900001 C .316 .054 .272 .025000003 .222 .025000003 Z "/>
</symbol>
<symbol id="font_4_c">
<path d="M .083000008 .22900002 C .083000008 .39200003 .16500002 .43400003 .218 .43400003 C .227 .43400003 .29 .43300004 .32500003 .397 C .284 .39400003 .278 .36400003 .278 .351 C .278 .32500003 .296 .305 .324 .305 C .35 .305 .37 .32200004 .37 .35200004 C .37 .42000003 .294 .45900003 .21700001 .45900003 C .092 .45900003 0 .351 0 .22700002 C 0 .09900001 .099 0 .215 0 C .349 0 .381 .120000008 .381 .13000001 C .381 .14000002 .37100003 .14000002 .368 .14000002 C .359 .14000002 .35700003 .136 .35500003 .13000001 C .326 .037 .261 .025000003 .224 .025000003 C .171 .025000003 .083000008 .068 .083000008 .22900002 Z "/>
</symbol>
<symbol id="font_4_14">
<path d="M .07800001 .344 L .07800001 .076000008 C .07800001 .031000002 .067 .031000002 0 .031000002 L 0 0 C .035 .001 .08600001 .003 .113000009 .003 C .139 .003 .191 .001 .225 0 L .225 .031000002 C .158 .031000002 .147 .031000002 .147 .076000008 L .147 .26000003 C .147 .36400003 .218 .42000003 .282 .42000003 C .345 .42000003 .356 .36600004 .356 .30900003 L .356 .076000008 C .356 .031000002 .345 .031000002 .278 .031000002 L .278 0 C .31300003 .001 .36400003 .003 .391 .003 C .41700004 .003 .46900005 .001 .503 0 L .503 .031000002 C .43600003 .031000002 .425 .031000002 .425 .076000008 L .425 .26000003 C .425 .36400003 .496 .42000003 .56 .42000003 C .623 .42000003 .634 .36600004 .634 .30900003 L .634 .076000008 C .634 .031000002 .623 .031000002 .556 .031000002 L .556 0 C .591 .001 .642 .003 .669 .003 C .69500008 .003 .74700006 .001 .781 0 L .781 .031000002 C .72900006 .031000002 .70400008 .031000002 .703 .061000006 L .703 .252 C .703 .33800004 .703 .36900003 .67200008 .40500004 C .65800008 .42200003 .625 .44200004 .56700006 .44200004 C .48300005 .44200004 .439 .38200004 .42200003 .344 C .40800003 .43100003 .33400003 .44200004 .289 .44200004 C .216 .44200004 .169 .39900003 .141 .337 L .141 .44200004 L 0 .43100003 L 0 .4 C .07000001 .4 .07800001 .393 .07800001 .344 Z "/>
</symbol>
<symbol id="font_4_17">
<path d="M .14400001 .57000008 L .14400001 .63600006 L 0 .625 L 0 .594 C .07100001 .594 .07800001 .58800008 .07800001 .544 L .07800001 .076 C .07800001 .031000004 .067 .031000004 0 .031000004 L 0 0 C .034 .001000002 .08600001 .0029999912 .112 .0029999912 C .13900002 .0029999912 .19000001 .001000002 .22500003 0 L .22500003 .031000004 C .158 .031000004 .14700002 .031000004 .14700002 .076 L .14700002 .244 L .14700002 .25300003 C .15200001 .237 .19400002 .183 .27 .183 C .38900004 .183 .49300004 .28100003 .49300004 .41000004 C .49300004 .53700008 .39600004 .63600006 .284 .63600006 C .20600002 .63600006 .164 .592 .14400001 .57000008 M .14700002 .30800004 L .14700002 .531 C .17600002 .582 .22500003 .61100009 .27600003 .61100009 C .349 .61100009 .41000004 .523 .41000004 .41000004 C .41000004 .289 .34000004 .20500002 .266 .20500002 C .22600001 .20500002 .18800001 .22500001 .16100002 .266 C .14700002 .287 .14700002 .28800003 .14700002 .30800004 Z "/>
</symbol>
<symbol id="font_4_1b">
<path d="M .35900004 .09 L .35900004 0 L .503 .011000001 L .503 .042000005 C .43300004 .042000005 .425 .049000004 .425 .098000008 L .425 .45300005 L .278 .44200004 L .278 .411 C .34800003 .411 .356 .404 .356 .35500003 L .356 .17700002 C .356 .09 .308 .022000002 .23500002 .022000002 C .15100001 .022000002 .147 .069000009 .147 .12100001 L .147 .45300005 L 0 .44200004 L 0 .411 C .07800001 .411 .07800001 .40800003 .07800001 .31900005 L .07800001 .16900002 C .07800001 .091000009 .07800001 0 .23000002 0 C .286 0 .33 .028 .35900004 .09 Z "/>
</symbol>
<symbol id="font_4_1a">
<path d="M .15400002 .411 L .29700003 .411 L .29700003 .44200004 L .15400002 .44200004 L .15400002 .626 L .12900001 .626 C .12799999 .544 .098000008 .43700005 0 .43300004 L 0 .411 L .085 .411 L .085 .135 C .085 .012000001 .178 0 .21400002 0 C .28500004 0 .31300003 .071 .31300003 .135 L .31300003 .19200002 L .28800003 .19200002 L .28800003 .13700001 C .28800003 .063 .25800003 .025000003 .22100002 .025000003 C .15400002 .025000003 .15400002 .116000007 .15400002 .13300002 L .15400002 .411 Z "/>
</symbol>
<symbol id="font_4_e">
<path d="M .08400001 .263 C .09 .41200004 .17400001 .43700005 .20800002 .43700005 C .31100003 .43700005 .321 .30200003 .321 .263 L .08400001 .263 M .083000008 .24200002 L .36200003 .24200002 C .38400004 .24200002 .38700003 .24200002 .38700003 .263 C .38700003 .36200003 .33300004 .45900003 .20800002 .45900003 C .09200001 .45900003 0 .35600005 0 .23100002 C 0 .097 .105000007 0 .22000002 0 C .342 0 .38700003 .111 .38700003 .13000001 C .38700003 .14000002 .379 .14200002 .374 .14200002 C .365 .14200002 .36300005 .136 .36100004 .128 C .326 .025000003 .236 .025000003 .22600001 .025000003 C .17600002 .025000003 .136 .055000005 .113000009 .092 C .083000008 .14000002 .083000008 .20600002 .083000008 .24200002 Z "/>
</symbol>
<symbol id="font_4_11">
<path d="M .07800001 .076000008 C .07800001 .031000002 .067 .031000002 0 .031000002 L 0 0 C .035 .001 .08600001 .003 .113000009 .003 C .139 .003 .191 .001 .225 0 L .225 .031000002 C .158 .031000002 .147 .031000002 .147 .076000008 L .147 .26000003 C .147 .36400003 .218 .42000003 .282 .42000003 C .345 .42000003 .356 .36600004 .356 .30900003 L .356 .076000008 C .356 .031000002 .345 .031000002 .278 .031000002 L .278 0 C .31300003 .001 .36400003 .003 .391 .003 C .41700004 .003 .46900005 .001 .503 0 L .503 .031000002 C .451 .031000002 .42600004 .031000002 .425 .061000006 L .425 .252 C .425 .33800004 .425 .36900003 .39400003 .40500004 C .38000003 .42200003 .347 .44200004 .289 .44200004 C .20500002 .44200004 .161 .38200004 .14400001 .344 L .14400001 .694 L 0 .683 L 0 .652 C .07000001 .652 .07800001 .64500007 .07800001 .596 L .07800001 .076000008 Z "/>
</symbol>
<symbol id="font_4_19">
<path d="M .17500001 .20500002 C .197 .20100002 .279 .18500002 .279 .113000009 C .279 .062000004 .24400002 .022000002 .16600001 .022000002 C .082 .022000002 .046000005 .079 .027000003 .16400002 C .024000004 .17700002 .023000002 .18100001 .013000004 .18100001 C 0 .18100001 0 .17400001 0 .15600002 L 0 .024 C 0 .0070000009 0 0 .011000004 0 C .016000003 0 .017 .0010000002 .036000007 .020000002 C .038000004 .022000002 .038000004 .024 .056 .043 C .1 .0010000002 .14500001 0 .16600001 0 C .28100003 0 .32700003 .067 .32700003 .13900002 C .32700003 .19200002 .29700003 .22200002 .28500004 .23400001 C .25200004 .26600004 .213 .27400003 .171 .28200004 C .115 .293 .048 .30600003 .048 .36400003 C .048 .39900003 .07400001 .44000004 .16 .44000004 C .27 .44000004 .27500005 .35000003 .277 .31900005 C .27800004 .31000004 .28700004 .31000004 .28900004 .31000004 C .30200003 .31000004 .30200003 .31500004 .30200003 .33400003 L .30200003 .43500004 C .30200003 .45200003 .30200003 .45900003 .291 .45900003 C .286 .45900003 .284 .45900003 .27100004 .44700004 C .26800005 .44300003 .25800003 .43400003 .254 .43100003 C .21600002 .45900003 .17500001 .45900003 .16 .45900003 C .038000004 .45900003 0 .39200003 0 .33600004 C 0 .30100004 .016000003 .27300004 .043000007 .25100003 C .075 .22500003 .10300001 .21900001 .17500001 .20500002 Z "/>
</symbol>
<symbol id="font_4_12">
<path d="M .144 .44200004 L .0040000008 .43100003 L .0040000008 .4 C .069000009 .4 .07800001 .39400003 .07800001 .34500004 L .07800001 .076000008 C .07800001 .031000002 .067 .031000002 0 .031000002 L 0 0 C .032000007 .001 .086 .003 .11000001 .003 C .14500001 .003 .18 .001 .21400002 0 L .21400002 .031000002 C .148 .031000002 .144 .036000004 .144 .075 L .144 .44200004 M .148 .61600008 C .148 .648 .123 .669 .095000009 .669 C .064 .669 .042000005 .642 .042000005 .61600008 C .042000005 .58900007 .064 .563 .095000009 .563 C .123 .563 .148 .58400008 .148 .61600008 Z "/>
</symbol>
<symbol id="font_4_10">
<path d="M .19400002 .37800003 C .10700001 .37800003 .10700001 .47800005 .10700001 .50100007 C .10700001 .52800008 .10800001 .56 .12300001 .58500006 C .13100001 .59700009 .15400002 .62500008 .19400002 .62500008 C .28100003 .62500008 .28100003 .52500006 .28100003 .50200006 C .28100003 .47500003 .28000004 .44300003 .26500003 .41800005 C .25700004 .40600003 .23400003 .37800003 .19400002 .37800003 M .07800001 .33900003 C .07800001 .34300003 .07800001 .36600004 .095 .38600005 C .134 .35800005 .17500001 .35500003 .19400002 .35500003 C .28700004 .35500003 .356 .42400003 .356 .50100007 C .356 .53800007 .34000004 .57500007 .31500004 .59800007 C .351 .632 .38700003 .637 .40500004 .637 C .40700004 .637 .41200004 .637 .41500003 .63600006 C .404 .632 .39900003 .62100008 .39900003 .609 C .39900003 .592 .41200004 .58000007 .42800004 .58000007 C .43800003 .58000007 .45700003 .587 .45700003 .61 C .45700003 .62700006 .44500003 .65900006 .40600003 .65900006 C .38600005 .65900006 .342 .65300008 .3 .61200007 C .25800003 .64500007 .21600002 .64800009 .19400002 .64800009 C .10100001 .64800009 .032 .57900008 .032 .50200006 C .032 .458 .054 .42000003 .07900001 .39900003 C .066 .384 .048000006 .351 .048000006 .316 C .048000006 .28500004 .061 .24700001 .09200001 .22700002 C .032 .21000001 0 .16700001 0 .127 C 0 .055000009 .09900001 0 .22100002 0 C .33900003 0 .44300003 .051000015 .44300003 .12900001 C .44300003 .164 .42900003 .21500002 .37800003 .24300002 C .32500003 .27100004 .26700003 .27100004 .20600002 .27100004 C .18100001 .27100004 .13800001 .27100004 .13100001 .272 C .09900001 .27600003 .07800001 .307 .07800001 .33900003 M .222 .023000002 C .12100001 .023000002 .052000006 .074000019 .052000006 .127 C .052000006 .17300001 .09 .21000001 .134 .21300002 L .19300002 .21300002 C .279 .21300002 .39100004 .21300002 .39100004 .127 C .39100004 .073000017 .32000003 .023000002 .222 .023000002 Z "/>
</symbol>
<symbol id="font_4_15">
<path d="M .07800001 .344 L .07800001 .076000008 C .07800001 .031000002 .067 .031000002 0 .031000002 L 0 0 C .035 .001 .08600001 .003 .113000009 .003 C .139 .003 .191 .001 .225 0 L .225 .031000002 C .158 .031000002 .147 .031000002 .147 .076000008 L .147 .26000003 C .147 .36400003 .218 .42000003 .282 .42000003 C .345 .42000003 .356 .36600004 .356 .30900003 L .356 .076000008 C .356 .031000002 .345 .031000002 .278 .031000002 L .278 0 C .31300003 .001 .36400003 .003 .391 .003 C .41700004 .003 .46900005 .001 .503 0 L .503 .031000002 C .451 .031000002 .42600004 .031000002 .425 .061000006 L .425 .252 C .425 .33800004 .425 .36900003 .39400003 .40500004 C .38000003 .42200003 .347 .44200004 .289 .44200004 C .216 .44200004 .169 .39900003 .141 .337 L .141 .44200004 L 0 .43100003 L 0 .4 C .07000001 .4 .07800001 .393 .07800001 .344 Z "/>
</symbol>
<symbol id="font_4_d">
<path d="M .34600003 .06600001 L .34600003 0 L .493 .011000001 L .493 .042000005 C .423 .042000005 .41500003 .049000004 .41500003 .098000008 L .41500003 .705 L .271 .694 L .271 .663 C .34100003 .663 .349 .656 .349 .607 L .349 .39100004 C .32 .42700003 .277 .45300005 .22299999 .45300005 C .10500001 .45300005 0 .35500003 0 .22600001 C 0 .09900001 .098 0 .21200001 0 C .276 0 .321 .034 .34600003 .06600001 M .34600003 .33400003 L .34600003 .12900001 C .34600003 .111 .34600003 .109000008 .335 .092 C .305 .044 .26 .022000002 .21700001 .022000002 C .17200002 .022000002 .136 .048 .11200001 .086 C .086 .127 .083000008 .18400002 .083000008 .22500003 C .083000008 .26200003 .085 .32200004 .114 .367 C .13500002 .39800004 .17300001 .43100003 .227 .43100003 C .262 .43100003 .30400003 .41600005 .335 .37100003 C .34600003 .35400004 .34600003 .35200004 .34600003 .33400003 Z "/>
</symbol>
<symbol id="font_4_a">
<path d="M .291 .087000008 C .29500003 .047000003 .32200004 .005000001 .36900003 .005000001 C .39000003 .005000001 .45100004 .019000002 .45100004 .1 L .45100004 .15600002 L .42600004 .15600002 L .42600004 .1 C .42600004 .042000005 .40100003 .036000004 .39000003 .036000004 C .35700003 .036000004 .35300002 .081 .35300002 .086 L .35300002 .286 C .35300002 .328 .35300002 .367 .31700004 .404 C .27800004 .44300003 .22800002 .45900003 .18 .45900003 C .098 .45900003 .029 .41200004 .029 .34600003 C .029 .316 .049000004 .29900003 .075 .29900003 C .10300001 .29900003 .121 .31900005 .121 .34500004 C .121 .35700003 .116000007 .39000003 .07 .39100004 C .09700001 .42600004 .146 .43700005 .178 .43700005 C .22700003 .43700005 .284 .39800004 .284 .30900003 L .284 .272 C .23300001 .26900003 .16300002 .26600004 .1 .23600002 C .024999999 .20200002 0 .15000002 0 .106000009 C 0 .025000003 .09700001 0 .16 0 C .22600001 0 .272 .040000004 .291 .087000008 M .284 .25100003 L .284 .15100001 C .284 .056 .21200001 .022000002 .167 .022000002 C .11800001 .022000002 .077 .057000005 .077 .107 C .077 .16200002 .11900001 .24500002 .284 .25100003 Z "/>
</symbol>
<symbol id="font_4_18">
<path d="M .13900002 .33200003 L .13900002 .44200004 L 0 .43100003 L 0 .4 C .07000001 .4 .07800001 .393 .07800001 .344 L .07800001 .076000008 C .07800001 .031000002 .067 .031000002 0 .031000002 L 0 0 C .039 .001 .08600001 .003 .11400001 .003 C .15400002 .003 .20100002 .003 .24100003 0 L .24100003 .031000002 L .22000002 .031000002 C .14600002 .031000002 .14400001 .042000005 .14400001 .078 L .14400001 .23200001 C .14400001 .33100004 .18600002 .42000003 .26200003 .42000003 C .26900003 .42000003 .27100004 .42000003 .27300004 .41900004 C .27 .418 .25000004 .40600003 .25000004 .38000003 C .25000004 .35200004 .27100004 .337 .293 .337 C .31100003 .337 .33600004 .349 .33600004 .381 C .33600004 .41300003 .305 .44200004 .26200003 .44200004 C .18900001 .44200004 .15300001 .37500004 .13900002 .33200003 Z "/>
</symbol>
<symbol id="font_4_b">
<path d="M .14400001 .388 L .14400001 .705 L 0 .694 L 0 .663 C .07000001 .663 .07800001 .656 .07800001 .607 L .07800001 .011000001 L .103000018 .011000001 C .104 .012000001 .112 .026 .13900002 .07300001 C .15400002 .05 .19600001 0 .27 0 C .38900004 0 .49300004 .098000008 .49300004 .22700002 C .49300004 .35400004 .395 .45300005 .28100003 .45300005 C .20300001 .45300005 .16000001 .40600003 .14400001 .388 M .14700002 .12500002 L .14700002 .33100004 C .14700002 .35000003 .14700002 .351 .158 .367 C .19700001 .42300005 .252 .43100003 .27600003 .43100003 C .321 .43100003 .35700003 .40500004 .381 .367 C .40700004 .32600004 .41000004 .26900003 .41000004 .22800002 C .41000004 .19100002 .40800003 .13100001 .379 .086 C .358 .055000005 .32000003 .022000002 .266 .022000002 C .22100002 .022000002 .18500002 .046 .16100002 .083000008 C .14700002 .104 .14700002 .107 .14700002 .12500002 Z "/>
</symbol>
<symbol id="font_4_1d">
<path d="M .601 .34700004 C .619 .397 .65000006 .41000004 .685 .411 L .685 .44200004 C .66300007 .44000004 .634 .43900005 .61200007 .43900005 C .583 .43900005 .53800007 .441 .519 .44200004 L .519 .411 C .555 .41000004 .577 .39200003 .577 .36300005 C .577 .35700003 .577 .35500003 .572 .34200005 L .481 .086 L .382 .365 C .37800003 .37700004 .377 .37900005 .377 .38400004 C .377 .411 .416 .411 .43600003 .411 L .43600003 .44200004 C .407 .441 .356 .43900005 .33200003 .43900005 C .30200003 .43900005 .273 .44000004 .243 .44200004 L .243 .411 C .28 .411 .296 .40900005 .306 .39600004 C .31100003 .39000003 .322 .36 .329 .34100003 L .243 .09900001 L .148 .36600004 C .143 .37800003 .143 .38000003 .143 .38400004 C .143 .411 .182 .411 .202 .411 L .202 .44200004 C .172 .441 .116000007 .43900005 .09300001 .43900005 C .08900001 .43900005 .036 .44000004 0 .44200004 L 0 .411 C .050000006 .411 .062000008 .40800003 .07400001 .37600003 L .2 .022000002 C .205 .008000001 .208 0 .221 0 C .234 0 .236 .0060000007 .241 .020000002 L .342 .30300004 L .444 .019000002 C .448 .008000001 .451 0 .46400003 0 C .47700004 0 .48000003 .009000001 .48400004 .019000002 L .601 .34700004 Z "/>
</symbol>
<use xlink:href="#font_4_7" transform="matrix(4.9813,0,0,-4.9813,.1793268,44.414)"/>
<use xlink:href="#font_4_16" transform="matrix(4.9813,0,0,-4.9813,3.3225272,44.468797)"/>
<use xlink:href="#font_4_c" transform="matrix(4.9813,0,0,-4.9813,7.5018379,44.468797)"/>
<use xlink:href="#font_4_16" transform="matrix(4.9813,0,0,-4.9813,9.683648,44.468797)"/>
<use xlink:href="#font_4_14" transform="matrix(4.9813,0,0,-4.9813,12.194223,44.414)"/>
<use xlink:href="#font_4_17" transform="matrix(4.9813,0,0,-4.9813,16.32372,45.380376)"/>
<use xlink:href="#font_4_1b" transform="matrix(4.9813,0,0,-4.9813,19.113249,44.468797)"/>
<use xlink:href="#font_4_1a" transform="matrix(4.9813,0,0,-4.9813,21.818097,44.468797)"/>
<use xlink:href="#font_4_e" transform="matrix(4.9813,0,0,-4.9813,23.800654,44.468797)"/>
<use xlink:href="#font_4_1a" transform="matrix(4.9813,0,0,-4.9813,27.626292,44.468797)"/>
<use xlink:href="#font_4_11" transform="matrix(4.9813,0,0,-4.9813,29.628773,44.414)"/>
<use xlink:href="#font_4_e" transform="matrix(4.9813,0,0,-4.9813,32.378454,44.468797)"/>
<use xlink:href="#font_4_19" transform="matrix(4.9813,0,0,-4.9813,36.27881,44.468797)"/>
<use xlink:href="#font_4_12" transform="matrix(4.9813,0,0,-4.9813,38.24144,44.414)"/>
<use xlink:href="#font_4_10" transform="matrix(4.9813,0,0,-4.9813,39.601335,45.440149)"/>
<use xlink:href="#font_4_15" transform="matrix(4.9813,0,0,-4.9813,42.111909,44.414)"/>
<use xlink:href="#font_4_e" transform="matrix(4.9813,0,0,-4.9813,44.861589,44.468797)"/>
<use xlink:href="#font_4_d" transform="matrix(4.9813,0,0,-4.9813,47.103174,44.468797)"/>
<use xlink:href="#font_4_a" transform="matrix(4.9813,0,0,-4.9813,.20921462,50.446298)"/>
<use xlink:href="#font_4_18" transform="matrix(4.9813,0,0,-4.9813,2.6301263,50.391504)"/>
<use xlink:href="#font_4_e" transform="matrix(4.9813,0,0,-4.9813,4.5827958,50.446298)"/>
<use xlink:href="#font_4_a" transform="matrix(4.9813,0,0,-4.9813,6.8642318,50.446298)"/>
<use xlink:href="#font_4_b" transform="matrix(4.9813,0,0,-4.9813,10.943916,50.446298)"/>
<use xlink:href="#font_4_e" transform="matrix(4.9813,0,0,-4.9813,13.852996,50.446298)"/>
<use xlink:href="#font_4_1a" transform="matrix(4.9813,0,0,-4.9813,16.019862,50.446298)"/>
<use xlink:href="#font_4_1d" transform="matrix(4.9813,0,0,-4.9813,17.813128,50.446298)"/>
<use xlink:href="#font_4_e" transform="matrix(4.9813,0,0,-4.9813,21.324946,50.446298)"/>
<use xlink:href="#font_4_e" transform="matrix(4.9813,0,0,-4.9813,23.536643,50.446298)"/>
<use xlink:href="#font_4_15" transform="matrix(4.9813,0,0,-4.9813,25.768263,50.391504)"/>
<use xlink:href="#font_2_5" transform="matrix(4.9813,0,0,-4.9813,30.30401,51.41267)"/>
<use xlink:href="#font_3_1" transform="matrix(3.4869,0,0,-3.4869,33.18237,48.19204)"/>
<use xlink:href="#font_4_a" transform="matrix(4.9813,0,0,-4.9813,36.28171,50.446298)"/>
<use xlink:href="#font_4_15" transform="matrix(4.9813,0,0,-4.9813,38.72255,50.391504)"/>
<use xlink:href="#font_4_d" transform="matrix(4.9813,0,0,-4.9813,41.502119,50.446298)"/>
<use xlink:href="#font_4_1a" transform="matrix(4.9813,0,0,-4.9813,45.855775,50.446298)"/>
<use xlink:href="#font_4_11" transform="matrix(4.9813,0,0,-4.9813,47.858255,50.391504)"/>
<use xlink:href="#font_4_e" transform="matrix(4.9813,0,0,-4.9813,50.607934,50.446298)"/>
<use xlink:href="#font_2_6" transform="matrix(4.9813,0,0,-4.9813,.1444577,56.423799)"/>
<symbol id="font_4_4">
<path d="M .26500003 0 L .26500003 .058 L 0 .058 L 0 0 L .26500003 0 Z "/>
</symbol>
<symbol id="font_4_1e">
<path d="M .275 .23500002 C .305 .273 .34300003 .32200004 .367 .34800003 C .39800004 .384 .43900005 .39900003 .48600004 .4 L .48600004 .43100003 C .46000005 .42900003 .43000005 .42800004 .404 .42800004 C .374 .42800004 .321 .43 .30800004 .43100003 L .30800004 .4 C .32900004 .39800004 .337 .38500003 .337 .36900003 C .337 .35300002 .32700003 .34 .32200004 .33400003 L .26000003 .256 L .18200001 .35700003 C .17300001 .367 .17300001 .36900003 .17300001 .37500004 C .17300001 .39000003 .18800001 .39900003 .20800002 .4 L .20800002 .43100003 C .18200001 .43 .116000007 .42800004 .1 .42800004 C .079 .42800004 .032000007 .42900003 .005000001 .43100003 L .005000001 .4 C .075 .4 .076000008 .39900003 .123 .33900003 L .22200002 .21000001 L .128 .091000009 C .080000009 .033 .021 .031000002 0 .031000002 L 0 0 C .026000003 .002 .057000005 .003 .083000008 .003 C .112 .003 .15400002 .001 .17800002 0 L .17800002 .031000002 C .15600002 .034 .14900002 .047000003 .14900002 .062000004 C .14900002 .08400001 .17800002 .117000009 .23900002 .18900001 L .31500004 .089 C .323 .078 .33600004 .062000004 .33600004 .056 C .33600004 .047000003 .32700003 .032 .3 .031000002 L .3 0 C .33 .001 .38600005 .003 .40800003 .003 C .43500004 .003 .47400005 .002 .504 0 L .504 .031000002 C .45000003 .031000002 .43200005 .033 .40900005 .062000004 L .275 .23500002 Z "/>
</symbol>
<symbol id="font_4_1c">
<path d="M .397 .344 C .40600003 .367 .42300005 .41000004 .48900003 .411 L .48900003 .44200004 C .46600003 .44000004 .43700005 .43900005 .41400004 .43900005 C .39000003 .43900005 .344 .441 .32700003 .44200004 L .32700003 .411 C .36400003 .41000004 .37500004 .38700003 .37500004 .36800004 C .37500004 .35900004 .37300004 .35500003 .36900003 .344 L .26700003 .089 L .155 .36800004 C .14900002 .381 .14900002 .38300003 .14900002 .38500003 C .14900002 .411 .18800003 .411 .206 .411 L .206 .44200004 C .176 .441 .12000001 .43900005 .097 .43900005 C .07 .43900005 .030000002 .44000004 0 .44200004 L 0 .411 C .063 .411 .067 .40500004 .080000009 .374 L .224 .019000002 C .23000002 .005000001 .23200003 0 .245 0 C .25800003 0 .26200003 .009000001 .26600004 .019000002 L .397 .344 Z "/>
</symbol>
<symbol id="font_4_13">
<path d="M .144 .694 L 0 .683 L 0 .652 C .07000001 .652 .07800001 .64500007 .07800001 .596 L .07800001 .076000008 C .07800001 .031000002 .067 .031000002 0 .031000002 L 0 0 C .033 .001 .086 .003 .11100001 .003 C .136 .003 .185 .001 .22200004 0 L .22200004 .031000002 C .155 .031000002 .144 .031000002 .144 .076000008 L .144 .694 Z "/>
</symbol>
<symbol id="font_4_8">
<path d="M .13700003 0 L .13700003 .03999999 L .04 .03999999 L .04 .96000006 L .13700003 .96000006 L .13700003 1 L 0 1 L 0 0 L .13700003 0 Z "/>
</symbol>
<use xlink:href="#font_4_4" transform="matrix(4.9813,0,0,-4.9813,2.9017943,55.4375)"/>
<use xlink:href="#font_4_a" transform="matrix(4.9813,0,0,-4.9813,4.7149875,56.423799)"/>
<use xlink:href="#font_4_1e" transform="matrix(4.9813,0,0,-4.9813,7.0561988,56.369005)"/>
<use xlink:href="#font_4_12" transform="matrix(4.9813,0,0,-4.9813,9.790932,56.369005)"/>
<use xlink:href="#font_4_19" transform="matrix(4.9813,0,0,-4.9813,11.175734,56.423799)"/>
<use xlink:href="#font_4_16" transform="matrix(4.9813,0,0,-4.9813,14.772232,56.423799)"/>
<use xlink:href="#font_4_15" transform="matrix(4.9813,0,0,-4.9813,17.282807,56.369005)"/>
<use xlink:href="#font_4_1a" transform="matrix(4.9813,0,0,-4.9813,21.651408,56.423799)"/>
<use xlink:href="#font_4_11" transform="matrix(4.9813,0,0,-4.9813,23.653889,56.369005)"/>
<use xlink:href="#font_4_e" transform="matrix(4.9813,0,0,-4.9813,26.403569,56.423799)"/>
<use xlink:href="#font_4_12" transform="matrix(4.9813,0,0,-4.9813,30.298945,56.369005)"/>
<use xlink:href="#font_4_15" transform="matrix(4.9813,0,0,-4.9813,31.678765,56.369005)"/>
<use xlink:href="#font_4_1a" transform="matrix(4.9813,0,0,-4.9813,34.244138,56.423799)"/>
<use xlink:href="#font_4_e" transform="matrix(4.9813,0,0,-4.9813,36.226694,56.423799)"/>
<use xlink:href="#font_4_18" transform="matrix(4.9813,0,0,-4.9813,38.43839,56.369005)"/>
<use xlink:href="#font_4_1c" transform="matrix(4.9813,0,0,-4.9813,40.34623,56.423799)"/>
<use xlink:href="#font_4_a" transform="matrix(4.9813,0,0,-4.9813,42.81197,56.423799)"/>
<use xlink:href="#font_4_13" transform="matrix(4.9813,0,0,-4.9813,45.25779,56.369005)"/>
<use xlink:href="#font_4_8" transform="matrix(4.9813,0,0,-4.9813,.5877934,63.591829)"/>
<symbol id="font_2_1">
<path d="M .117000009 .194 C .117000009 .26 .092 .29900003 .05300001 .29900003 C .020000004 .29900003 0 .274 0 .246 C 0 .21900001 .020000004 .193 .05300001 .193 C .065000008 .193 .078 .197 .08800001 .206 C .091 .208 .092 .209 .093 .209 C .094000007 .209 .095000009 .208 .095000009 .194 C .095000009 .12 .06000001 .060000004 .027000003 .026999996 C .016000003 .016000003 .016000003 .013999999 .016000003 .0109999929 C .016000003 .003999993 .021000006 0 .026 0 C .037 0 .117000009 .077 .117000009 .194 Z "/>
</symbol>
<use xlink:href="#font_2_2" transform="matrix(4.9813,0,0,-4.9813,1.582752,62.4013)"/>
<use xlink:href="#font_2_1" transform="matrix(4.9813,0,0,-4.9813,4.4469997,63.307897)"/>
<use xlink:href="#font_2_3" transform="matrix(4.9813,0,0,-4.9813,6.4694077,62.4013)"/>
<symbol id="font_4_9">
<path d="M .13700001 1 L 0 1 L 0 .96000006 L .097 .96000006 L .097 .03999999 L 0 .03999999 L 0 0 L .13700001 0 L .13700001 1 Z "/>
</symbol>
<symbol id="font_4_3">
<path d="M .117000009 .194 C .117000009 .25800003 .093 .29900003 .05300001 .29900003 C .018 .29900003 0 .272 0 .246 C 0 .22 .017000005 .193 .05300001 .193 C .069 .193 .08100001 .199 .091 .207 L .093 .209 C .094000007 .209 .095000009 .208 .095000009 .194 C .095000009 .13 .06700001 .069 .023000002 .022 C .017000005 .016000003 .016000003 .015000001 .016000003 .0109999929 C .016000003 .003999993 .021000006 0 .026 0 C .038000004 0 .117000009 .078999999 .117000009 .194 Z "/>
</symbol>
<use xlink:href="#font_4_9" transform="matrix(4.9813,0,0,-4.9813,8.478088,63.591829)"/>
<use xlink:href="#font_4_3" transform="matrix(4.9813,0,0,-4.9813,10.181693,63.307897)"/>
<symbol id="font_4_f">
<path d="M .14200002 .43100003 L .14200002 .54700008 C .14200002 .63500007 .19 .683 .23400003 .683 C .23700002 .683 .25200004 .683 .26700003 .67600008 C .25500003 .67200008 .23700002 .65900006 .23700002 .634 C .23700002 .611 .25300003 .591 .28000004 .591 C .30900003 .591 .32400004 .611 .32400004 .63500007 C .32400004 .67200008 .28700004 .70500007 .23400003 .70500007 C .164 .70500007 .079 .652 .079 .546 L .079 .43100003 L 0 .43100003 L 0 .4 L .079 .4 L .079 .076000008 C .079 .031000002 .068 .031000002 .001000002 .031000002 L .001000002 0 C .040000008 .001 .087000008 .003 .115 .003 C .155 .003 .20200002 .003 .24200002 0 L .24200002 .031000002 L .22100002 .031000002 C .14700002 .031000002 .14500001 .042000005 .14500001 .078 L .14500001 .4 L .25900004 .4 L .25900004 .43100003 L .14200002 .43100003 Z "/>
</symbol>
<use xlink:href="#font_4_1d" transform="matrix(4.9813,0,0,-4.9813,93.63266,44.468797)"/>
<use xlink:href="#font_4_e" transform="matrix(4.9813,0,0,-4.9813,97.139499,44.468797)"/>
<use xlink:href="#font_4_c" transform="matrix(4.9813,0,0,-4.9813,101.04484,44.468797)"/>
<use xlink:href="#font_4_a" transform="matrix(4.9813,0,0,-4.9813,103.29639,44.468797)"/>
<use xlink:href="#font_4_15" transform="matrix(4.9813,0,0,-4.9813,105.73722,44.414)"/>
<use xlink:href="#font_4_c" transform="matrix(4.9813,0,0,-4.9813,110.17556,44.468797)"/>
<use xlink:href="#font_4_16" transform="matrix(4.9813,0,0,-4.9813,112.35737,44.468797)"/>
<use xlink:href="#font_4_14" transform="matrix(4.9813,0,0,-4.9813,114.86794,44.414)"/>
<use xlink:href="#font_4_17" transform="matrix(4.9813,0,0,-4.9813,118.99744,45.380376)"/>
<use xlink:href="#font_4_1b" transform="matrix(4.9813,0,0,-4.9813,121.786968,44.468797)"/>
<use xlink:href="#font_4_1a" transform="matrix(4.9813,0,0,-4.9813,124.491809,44.468797)"/>
<use xlink:href="#font_4_e" transform="matrix(4.9813,0,0,-4.9813,126.474369,44.468797)"/>
<use xlink:href="#font_4_1a" transform="matrix(4.9813,0,0,-4.9813,130.30002,44.468797)"/>
<use xlink:href="#font_4_11" transform="matrix(4.9813,0,0,-4.9813,132.3025,44.414)"/>
<use xlink:href="#font_4_e" transform="matrix(4.9813,0,0,-4.9813,135.05217,44.468797)"/>
<use xlink:href="#font_4_d" transform="matrix(4.9813,0,0,-4.9813,138.9575,44.468797)"/>
<use xlink:href="#font_4_12" transform="matrix(4.9813,0,0,-4.9813,141.71715,44.414)"/>
<use xlink:href="#font_4_f" transform="matrix(4.9813,0,0,-4.9813,143.10196,44.414)"/>
<use xlink:href="#font_4_4" transform="matrix(4.9813,0,0,-4.9813,144.51665,43.4825)"/>
<use xlink:href="#font_4_f" transform="matrix(4.9813,0,0,-4.9813,93.70738,50.391504)"/>
<use xlink:href="#font_4_e" transform="matrix(4.9813,0,0,-4.9813,95.20675,50.446298)"/>
<use xlink:href="#font_4_18" transform="matrix(4.9813,0,0,-4.9813,97.41845,50.391504)"/>
<use xlink:href="#font_4_e" transform="matrix(4.9813,0,0,-4.9813,99.37112,50.446298)"/>
<use xlink:href="#font_4_15" transform="matrix(4.9813,0,0,-4.9813,101.602748,50.391504)"/>
<use xlink:href="#font_4_c" transform="matrix(4.9813,0,0,-4.9813,104.38231,50.446298)"/>
<use xlink:href="#font_4_e" transform="matrix(4.9813,0,0,-4.9813,106.56411,50.446298)"/>
<use xlink:href="#font_4_12" transform="matrix(4.9813,0,0,-4.9813,110.45949,50.391504)"/>
<use xlink:href="#font_4_15" transform="matrix(4.9813,0,0,-4.9813,111.83931,50.391504)"/>
<use xlink:href="#font_4_1a" transform="matrix(4.9813,0,0,-4.9813,116.20791,50.446298)"/>
<use xlink:href="#font_4_11" transform="matrix(4.9813,0,0,-4.9813,118.210399,50.391504)"/>
<use xlink:href="#font_4_e" transform="matrix(4.9813,0,0,-4.9813,120.96007,50.446298)"/>
<use xlink:href="#font_4_1c" transform="matrix(4.9813,0,0,-4.9813,124.78571,50.446298)"/>
<use xlink:href="#font_4_a" transform="matrix(4.9813,0,0,-4.9813,127.25146,50.446298)"/>
<use xlink:href="#font_4_13" transform="matrix(4.9813,0,0,-4.9813,129.69728,50.391504)"/>
<use xlink:href="#font_4_1b" transform="matrix(4.9813,0,0,-4.9813,131.0771,50.446298)"/>
<use xlink:href="#font_4_e" transform="matrix(4.9813,0,0,-4.9813,133.82677,50.446298)"/>
<use xlink:href="#font_4_19" transform="matrix(4.9813,0,0,-4.9813,136.06337,50.446298)"/>
<use xlink:href="#font_4_16" transform="matrix(4.9813,0,0,-4.9813,139.66487,50.446298)"/>
<use xlink:href="#font_4_f" transform="matrix(4.9813,0,0,-4.9813,142.1804,50.391504)"/>
<use xlink:href="#font_2_5" transform="matrix(4.9813,0,0,-4.9813,93.80701,57.39017)"/>
<symbol id="font_4_1f">
<path d="M .39600004 .541 C .42200003 .60400006 .47300003 .605 .48900003 .605 L .48900003 .63600006 C .46600003 .63400009 .43700005 .633 .41400004 .633 C .39600004 .633 .34900005 .635 .32700003 .63600006 L .32700003 .605 C .358 .60400006 .374 .587 .374 .56200006 C .374 .55200007 .37300004 .5500001 .36800004 .538 L .26700003 .29200004 L .15600002 .561 C .15200001 .57100006 .15 .57500007 .15 .579 C .15 .605 .187 .605 .206 .605 L .206 .63600006 C .18 .635 .114 .633 .097 .633 C .07 .633 .030000002 .63400009 0 .63600006 L 0 .605 C .048 .605 .067 .605 .081 .57000008 L .231 .20500002 C .22600001 .19200002 .21200001 .15900001 .206 .14600002 C .18400002 .091000009 .15600002 .022 .09200001 .022 C .087000008 .022 .064 .022 .045 .040000008 C .076000008 .044 .08400001 .066 .08400001 .08200001 C .08400001 .10800001 .065000008 .12400001 .042000005 .12400001 C .022 .12400001 0 .11100001 0 .08100001 C 0 .036 .042000005 0 .09200001 0 C .155 0 .19600001 .05700001 .22 .11400001 L .39600004 .541 Z "/>
</symbol>
<symbol id="font_4_5">
<path d="M .106 .053000004 C .106 .082 .08200001 .106000009 .05300001 .106000009 C .024000004 .106000009 0 .082 0 .053000004 C 0 .024 .024000004 0 .05300001 0 C .08200001 0 .106 .024 .106 .053000004 Z "/>
</symbol>
<use xlink:href="#font_4_1d" transform="matrix(4.9813,0,0,-4.9813,98.26766,56.423799)"/>
<use xlink:href="#font_4_11" transform="matrix(4.9813,0,0,-4.9813,101.93391,56.369005)"/>
<use xlink:href="#font_4_e" transform="matrix(4.9813,0,0,-4.9813,104.68358,56.423799)"/>
<use xlink:href="#font_4_15" transform="matrix(4.9813,0,0,-4.9813,106.9152,56.369005)"/>
<use xlink:href="#font_4_e" transform="matrix(4.9813,0,0,-4.9813,111.323657,56.423799)"/>
<use xlink:href="#font_4_1c" transform="matrix(4.9813,0,0,-4.9813,113.490528,56.423799)"/>
<use xlink:href="#font_4_a" transform="matrix(4.9813,0,0,-4.9813,115.96125,56.423799)"/>
<use xlink:href="#font_4_13" transform="matrix(4.9813,0,0,-4.9813,118.40707,56.369005)"/>
<use xlink:href="#font_4_1b" transform="matrix(4.9813,0,0,-4.9813,119.78689,56.423799)"/>
<use xlink:href="#font_4_a" transform="matrix(4.9813,0,0,-4.9813,122.6063,56.423799)"/>
<use xlink:href="#font_4_1a" transform="matrix(4.9813,0,0,-4.9813,124.982379,56.423799)"/>
<use xlink:href="#font_4_e" transform="matrix(4.9813,0,0,-4.9813,126.964939,56.423799)"/>
<use xlink:href="#font_4_d" transform="matrix(4.9813,0,0,-4.9813,129.20653,56.423799)"/>
<use xlink:href="#font_4_16" transform="matrix(4.9813,0,0,-4.9813,133.60503,56.423799)"/>
<use xlink:href="#font_4_15" transform="matrix(4.9813,0,0,-4.9813,136.11559,56.369005)"/>
<use xlink:href="#font_4_1a" transform="matrix(4.9813,0,0,-4.9813,140.4792,56.423799)"/>
<use xlink:href="#font_4_11" transform="matrix(4.9813,0,0,-4.9813,142.4817,56.369005)"/>
<use xlink:href="#font_4_e" transform="matrix(4.9813,0,0,-4.9813,145.23137,56.423799)"/>
<use xlink:href="#font_4_b" transform="matrix(4.9813,0,0,-4.9813,93.68247,62.4013)"/>
<use xlink:href="#font_4_16" transform="matrix(4.9813,0,0,-4.9813,96.59155,62.4013)"/>
<use xlink:href="#font_4_1b" transform="matrix(4.9813,0,0,-4.9813,99.102138,62.4013)"/>
<use xlink:href="#font_4_15" transform="matrix(4.9813,0,0,-4.9813,101.871738,62.346506)"/>
<use xlink:href="#font_4_d" transform="matrix(4.9813,0,0,-4.9813,104.6513,62.4013)"/>
<use xlink:href="#font_4_a" transform="matrix(4.9813,0,0,-4.9813,107.460758,62.4013)"/>
<use xlink:href="#font_4_18" transform="matrix(4.9813,0,0,-4.9813,109.88166,62.346506)"/>
<use xlink:href="#font_4_1f" transform="matrix(4.9813,0,0,-4.9813,111.789508,63.367673)"/>
<use xlink:href="#font_4_5" transform="matrix(4.9813,0,0,-4.9813,114.33495,62.346506)"/>
</svg>
