<?xml version="1.0" encoding="UTF-8" standalone="no"?>
<!DOCTYPE svg PUBLIC "-//W3C//DTD SVG 1.1//EN" "http://www.w3.org/Graphics/SVG/1.1/DTD/svg11.dtd">
<svg xmlns="http://www.w3.org/2000/svg" xmlns:xlink="http://www.w3.org/1999/xlink" version="1.1" width="207.031pt" height="174.706pt" viewBox="0 0 207.031 174.706">
<path transform="matrix(1,0,0,-1,.199,335.901)" stroke-width="1" stroke-linecap="butt" stroke-miterlimit="10" stroke-linejoin="miter" fill="none" stroke="#000000" d="M 0 242.09455 L 192.2766 242.09455 "/>
<path transform="matrix(1,0,0,-1,192.4756,93.80646)" d="M 1.99252 0 L -1.19551 1.59401 L 0 0 L -1.19551 -1.59401 "/>
<path transform="matrix(1,0,0,-1,.199,335.901)" stroke-width="1" stroke-linecap="butt" stroke-miterlimit="10" stroke-linejoin="miter" fill="none" stroke="#000000" d="M 97.13455 161.39636 L 97.13455 320.8002 "/>
<path transform="matrix(0,-1,-1,-0,97.33355,15.1008)" d="M 1.99252 0 L -1.19551 1.59401 L 0 0 L -1.19551 -1.59401 "/>
<clipPath id="cp0">
<path transform="matrix(1,0,0,-1,.199,335.901)" d="M 0 161.39636 L 194.26912 161.39636 L 194.26912 322.79273 L 0 322.79273 Z "/>
</clipPath>
<g clip-path="url(#cp0)">
<path transform="matrix(1,0,0,-1,.199,335.901)" stroke-width="1.19553" stroke-linecap="butt" stroke-miterlimit="10" stroke-linejoin="miter" fill="none" stroke="#000080" d="M 242.8364 0 C 242.8364 0 237.20059 12.78032 235.06649 17.54022 C 232.93238 22.30011 229.5452 29.75887 227.4551 34.30608 C 225.36499 38.85327 222.04848 45.97438 220.00237 50.3133 C 217.95626 54.65222 214.71027 61.44295 212.70816 65.57808 C 210.70604 69.7132 207.53063 76.1806 205.57247 80.1164 C 203.61432 84.05219 200.50928 90.2038 198.59514 93.9446 C 196.681 97.68541 193.64675 103.52744 191.77664 107.07764 C 189.90654 110.62782 186.94281 116.16792 185.11672 119.532 C 183.29062 122.89607 180.39749 128.14124 178.61539 131.32366 C 176.8333 134.50606 174.01068 139.4635 172.27259 142.46868 C 170.53449 145.47385 167.78246 150.15056 166.08835 152.98293 C 164.39426 155.81529 161.71274 160.21849 160.06266 162.88248 C 158.41257 165.54645 155.8017 169.68306 154.19562 172.18309 C 152.58956 174.68312 150.04918 178.56041 148.48709 180.90093 C 146.92502 183.24144 144.45528 186.86641 142.93715 189.05187 C 141.41904 191.23734 139.01963 194.61753 137.54552 196.65235 C 136.07141 198.68717 133.74285 201.82888 132.31278 203.7174 C 130.88269 205.60593 128.62456 208.51689 127.23846 210.26363 C 125.85239 212.01038 123.66489 214.6974 122.32281 216.30675 C 120.98076 217.9161 118.86383 220.38642 117.56577 221.86286 C 116.2677 223.33928 114.2213 225.59998 112.96722 226.94792 C 111.71317 228.29587 109.73727 230.35408 108.5272 231.57794 C 107.31714 232.80182 105.41191 234.66454 104.24585 235.76877 C 103.0798 236.87299 101.24509 238.54746 100.12302 239.53649 C 99.00095 240.52552 97.23674 242.01883 96.15868 242.89708 C 95.08061 243.77533 93.38704 245.0945 92.35298 245.8664 C 91.31892 246.63829 89.6959 247.79045 88.70584 248.46044 C 87.71579 249.13042 86.16333 250.12268 85.21729 250.69518 C 84.27122 251.26767 82.78934 252.10718 81.88728 252.58663 C 80.98523 253.06607 79.57391 253.7599 78.71587 254.15071 C 77.85782 254.54152 76.51707 255.0968 75.70302 255.40343 C 74.88896 255.71006 73.61877 256.13389 72.84874 256.36073 C 72.0787 256.5876 70.87907 256.88706 70.15303 257.03858 C 69.42699 257.19013 68.29793 257.3723 67.61589 257.45295 C 66.93385 257.53358 65.87535 257.60566 65.2373 257.6198 C 64.59926 257.634 63.61133 257.60298 63.0173 257.5551 C 62.42326 257.5073 61.5059 257.38035 60.95587 257.2749 C 60.40582 257.16944 59.55904 256.95368 59.05301 256.79505 C 58.54698 256.6364 57.77075 256.3389 57.30872 256.13157 C 56.84668 255.92418 56.141 255.55207 55.72298 255.30037 C 55.30496 255.04869 54.66985 254.60909 54.29584 254.31752 C 53.92181 254.02597 53.35727 253.52594 53.02724 253.19893 C 52.69722 252.87192 52.20323 252.31862 51.91722 251.96057 C 51.63121 251.60254 51.2078 251.00305 50.96577 250.61843 C 50.72377 250.2338 50.37091 249.59522 50.17291 249.18843 C 49.9749 248.78166 49.69261 248.1111 49.5386 247.6866 C 49.3846 247.2621 49.17285 246.56667 49.06285 246.12888 C 48.95285 245.69107 48.8117 244.97789 48.7457 244.53122 C 48.67969 244.08455 48.6091 243.3607 48.5871 242.9096 C 48.5651 242.45853 48.56508 241.73111 48.58707 241.28002 C 48.60905 240.82894 48.67961 240.10506 48.7456 239.65839 C 48.8116 239.21173 48.95273 238.49854 49.06271 238.06075 C 49.17271 237.62294 49.38441 236.9275 49.5384 236.50299 C 49.6924 236.07848 49.97466 235.40792 50.17265 235.00113 C 50.37064 234.59435 50.72348 233.95575 50.96547 233.57112 C 51.20747 233.1865 51.63087 232.58696 51.91687 232.22893 C 52.20287 231.8709 52.69682 231.31757 53.02684 230.99054 C 53.35684 230.66352 53.92137 230.16349 54.29536 229.8719 C 54.66936 229.58034 55.30446 229.14069 55.72246 228.88899 C 56.14047 228.6373 56.84612 228.26517 57.30814 228.05777 C 57.77016 227.85039 58.54637 227.55287 59.05238 227.39423 C 59.5584 227.23558 60.40517 227.01978 60.95518 226.91429 C 61.5052 226.80883 62.42255 226.68186 63.01657 226.63399 C 63.6106 226.58612 64.5985 226.55507 65.23651 226.56923 C 65.87454 226.58339 66.93301 226.6554 67.61504 226.73601 C 68.29706 226.81662 69.42609 226.99878 70.15211 227.1503 C 70.87816 227.30182 72.07776 227.60121 72.84778 227.82807 C 73.61781 228.0549 74.88799 228.47866 75.70201 228.78525 C 76.51605 229.09185 77.85678 229.64708 78.71481 230.03787 C 79.57285 230.42865 80.98415 231.12244 81.88618 231.60184 C 82.78822 232.08126 84.27008 232.9207 85.21611 233.49317 C 86.16214 234.06563 87.71457 235.05786 88.70462 235.72782 C 89.69466 236.39777 91.31766 237.54987 92.35168 238.32173 C 93.38573 239.0936 95.0793 240.4127 96.15733 241.2909 C 97.23537 242.16907 98.99939 243.66217 100.12146 244.65117 C 101.24352 245.64015 103.0783 247.31468 104.24437 248.4189 C 105.41043 249.5231 107.31567 251.38579 108.52573 252.60962 C 109.7358 253.83347 111.71162 255.89159 112.96568 257.2395 C 114.21974 258.58738 116.2661 260.848 117.56415 262.32438 C 118.8622 263.80079 120.97913 266.27104 122.3212 267.88035 C 123.66325 269.4897 125.85077 272.17668 127.23683 273.92338 C 128.62288 275.67008 130.88094 278.58085 132.31099 280.4693 C 133.74105 282.3578 136.06967 285.49955 137.54373 287.53428 C 139.01779 289.56898 141.41703 292.9488 142.93509 295.13417 C 144.45316 297.3195 146.92285 300.94438 148.48496 303.28489 C 150.04705 305.62538 152.58751 309.50288 154.19362 312.00288 C 155.79972 314.5029 158.41057 318.63945 160.06066 321.30339 C 161.71074 323.9673 164.39221 328.37037 166.08629 331.20268 C 167.78037 334.03498 170.53237 338.71159 172.27043 341.71669 C 174.00852 344.7218 176.83109 349.6791 178.61318 352.86149 C 180.39527 356.04383 183.28842 361.28895 185.1145 364.65299 C 186.94058 368.017 189.90427 373.55696 191.77436 377.10707 C 193.64444 380.65718 196.67871 386.49916 198.59279 390.23985 C 200.50687 393.9805 203.61173 400.13163 205.56981 404.06727 C 207.5279 408.0029 210.7033 414.47016 212.70542 418.60527 C 214.70755 422.7404 217.95372 429.5315 219.99985 433.87046 C 222.04598 438.2094 225.36249 445.33039 227.45258 449.8775 C 229.54267 454.4246 232.92972 461.88313 235.06383 466.64295 C 237.19792 471.40275 242.83373 484.18299 242.83373 484.18299 "/>
</g>
<symbol id="font_1_1">
<path d="M .305 .31300003 C .311 .33900003 .334 .43100003 .404 .43100003 C .409 .43100003 .433 .43100003 .454 .418 C .426 .41300003 .40600003 .388 .40600003 .36400003 C .40600003 .34800003 .417 .32900004 .444 .32900004 C .46600003 .32900004 .498 .34700004 .498 .38700003 C .498 .43900005 .439 .45300005 .405 .45300005 C .347 .45300005 .312 .40000005 .3 .37700004 C .275 .44300003 .221 .45300005 .19200002 .45300005 C .08800001 .45300005 .031000002 .32400004 .031000002 .29900003 C .031000002 .28900004 .041 .28900004 .043000007 .28900004 C .051000008 .28900004 .054000006 .291 .056 .3 C .09 .40600003 .156 .43100003 .19000001 .43100003 C .209 .43100003 .244 .42200003 .244 .36400003 C .244 .33300004 .22700002 .26600004 .19000001 .126 C .17400001 .064 .13900002 .022000002 .095000009 .022000002 C .08900001 .022000002 .06600001 .022000002 .045 .035 C .07000001 .040000004 .09200001 .061 .09200001 .089 C .09200001 .116000007 .07000001 .124000009 .055000009 .124000009 C .025 .124000009 0 .098000008 0 .06600001 C 0 .020000002 .050000006 0 .094000007 0 C .16000001 0 .19600001 .07000001 .19900002 .076000008 C .21100001 .039 .24700003 0 .307 0 C .41 0 .467 .12900001 .467 .15400002 C .467 .16400002 .458 .16400002 .455 .16400002 C .446 .16400002 .444 .16000001 .442 .15300001 C .409 .046 .341 .022000002 .30900003 .022000002 C .27 .022000002 .254 .054 .254 .08800001 C .254 .11000001 .26 .13200002 .271 .17600002 L .305 .31300003 Z "/>
</symbol>
<use xlink:href="#font_1_1" transform="matrix(9.9626,0,0,-9.9626,198.30591,96.02558)"/>
<symbol id="font_1_2">
<path d="M .45700003 .586 C .461 .6 .461 .602 .461 .609 C .461 .62700006 .447 .63600006 .432 .63600006 C .42200003 .63600006 .40600003 .63 .397 .615 C .395 .61 .387 .579 .38300003 .561 C .37600003 .535 .36900003 .508 .363 .48100005 L .318 .301 C .314 .286 .271 .21600002 .20500002 .21600002 C .15400002 .21600002 .143 .26000003 .143 .29700003 C .143 .34300003 .16000001 .40500004 .194 .49300004 C .21000001 .53400006 .21400002 .545 .21400002 .56500008 C .21400002 .61 .18200001 .6470001 .13200002 .6470001 C .037 .6470001 0 .50200006 0 .49300004 C 0 .48300005 .01 .48300005 .012 .48300005 C .022000002 .48300005 .023 .485 .028000003 .50100007 C .055000009 .595 .095000009 .625 .12900001 .625 C .13700001 .625 .15400002 .625 .15400002 .59300008 C .15400002 .568 .14400001 .54200008 .13700001 .523 C .097 .41700004 .079 .36 .079 .31300003 C .079 .224 .142 .194 .201 .194 C .24000003 .194 .274 .21100001 .30200003 .23900002 C .289 .187 .277 .13800001 .237 .08500001 C .21100001 .051 .17300001 .022 .127 .022 C .113000009 .022 .068 .025000006 .051000008 .06400001 C .067 .06400001 .080000009 .06400001 .094000007 .076000008 C .104 .08500001 .11400001 .098000008 .11400001 .117000009 C .11400001 .148 .087000008 .15200001 .07700001 .15200001 C .054000006 .15200001 .021 .136 .021 .087000008 C .021 .037 .065000008 0 .127 0 C .23 0 .333 .091000009 .361 .20400001 L .45700003 .586 Z "/>
</symbol>
<use xlink:href="#font_1_2" transform="matrix(9.9626,0,0,-9.9626,95.01891,9.652349)"/>
</svg>
