<?xml version="1.0" encoding="UTF-8" standalone="no"?>
<!DOCTYPE svg PUBLIC "-//W3C//DTD SVG 1.1//EN" "http://www.w3.org/Graphics/SVG/1.1/DTD/svg11.dtd">
<svg xmlns="http://www.w3.org/2000/svg" xmlns:xlink="http://www.w3.org/1999/xlink" version="1.1" width="265.428pt" height="263.218pt" viewBox="0 0 265.428 263.218">
<clipPath id="cp0">
<path transform="matrix(1,0,0,-1,9.686,256.27198)" d="M 0 0 L 243.17084 0 L 243.17084 243.17084 L 0 243.17084 Z "/>
</clipPath>
<g clip-path="url(#cp0)">
<path transform="matrix(1,0,0,-1,9.686,256.27198)" stroke-width="1.59404" stroke-linecap="butt" stroke-miterlimit="10" stroke-linejoin="miter" fill="none" stroke="#000080" d="M 41.1654 202.00542 C 41.1654 202.00542 41.37996 202.21302 41.46227 202.29265 C 41.54457 202.37227 41.67604 202.5001 41.75867 202.57939 C 41.84131 202.65869 41.97426 202.78609 42.05795 202.86421 C 42.14166 202.94234 42.27747 203.06513 42.36195 203.14247 C 42.44643 203.2198 42.58151 203.34479 42.66685 203.42165 C 42.7522 203.4985 42.8904 203.62117 42.97707 203.69646 C 43.06374 203.77173 43.20445 203.8895 43.2915 203.96425 C 43.37856 204.03902 43.5167 204.16123 43.60446 204.2354 C 43.69225 204.30957 43.83514 204.42609 43.9242 204.49884 C 44.01324 204.5716 44.15674 204.68766 44.24634 204.75984 C 44.33594 204.83205 44.47935 204.94818 44.57008 205.01927 C 44.66081 205.09035 44.8086 205.20224 44.90027 205.27227 C 44.99193 205.34229 45.1391 205.45438 45.2308 205.52397 C 45.3225 205.59357 45.46822 205.7055 45.5612 205.77394 C 45.65419 205.84238 45.80705 205.95009 45.90103 206.01728 C 45.99501 206.08448 46.14424 206.19168 46.23854 206.25829 C 46.33284 206.3249 46.48497 206.43189 46.58067 206.49747 C 46.67639 206.56305 46.83206 206.66635 46.92842 206.73104 C 47.0248 206.7957 47.17828 206.89972 47.27525 206.96367 C 47.37222 207.0276 47.52895 207.12943 47.62737 207.19193 C 47.72578 207.25441 47.88568 207.3524 47.98463 207.4141 C 48.0836 207.47579 48.24117 207.57572 48.34065 207.63661 C 48.44016 207.69751 48.6012 207.79325 48.70183 207.85303 C 48.80244 207.9128 48.96521 208.00789 49.06589 208.06749 C 49.16655 208.1271 49.32568 208.22449 49.42738 208.28267 C 49.52908 208.34084 49.69563 208.43027 49.79889 208.4869 C 49.90215 208.5435 50.06824 208.63445 50.17166 208.69078 C 50.27509 208.7471 50.43996 208.83768 50.54433 208.89293 C 50.64868 208.9482 50.81845 209.03504 50.92387 209.08913 C 51.02928 209.14322 51.19827 209.22939 51.30412 209.28278 C 51.40996 209.33617 51.58002 209.42177 51.68674 209.47403 C 51.79346 209.52629 51.96579 209.60826 52.07327 209.6595 C 52.18076 209.71076 52.35333 209.7929 52.46141 209.84339 C 52.5695 209.89389 52.74326 209.97455 52.85231 210.02358 C 52.96138 210.0726 53.13795 210.14818 53.24747 210.19675 C 53.35696 210.24532 53.53117 210.32605 53.64157 210.37374 C 53.75197 210.42144 53.9317 210.49422 54.04314 210.54048 C 54.15456 210.58673 54.33318 210.66132 54.44469 210.70723 C 54.55621 210.75315 54.73415 210.8269 54.84695 210.87143 C 54.95975 210.91594 55.14386 210.98497 55.25769 211.02805 C 55.37152 211.07114 55.55325 211.1395 55.6674 211.182 C 55.78156 211.2245 55.96548 211.29293 56.08046 211.33449 C 56.19543 211.37606 56.38055 211.441 56.49612 211.48157 C 56.6117 211.52214 56.79718 211.58736 56.9134 211.62703 C 57.02962 211.66669 57.2168 211.72911 57.33377 211.76752 C 57.45073 211.80594 57.6388 211.86615 57.75642 211.9039 C 57.87405 211.94164 58.06323 212.00286 58.18163 212.03957 C 58.30002 212.0763 58.49063 212.13314 58.60977 212.16858 C 58.72891 212.20403 58.92072 212.26009 59.04037 212.29517 C 59.16003 212.33023 59.35165 212.3879 59.4722 212.42142 C 59.59276 212.45494 59.78813 212.50446 59.90932 212.53684 C 60.0305 212.56922 60.22408 212.62264 60.34573 212.6548 C 60.46739 212.68697 60.66344 212.73816 60.78618 212.76874 C 60.90892 212.7993 61.10709 212.84584 61.23038 212.8752 C 61.35368 212.90456 61.55132 212.95159 61.67494 212.98036 C 61.79855 213.00914 61.9969 213.0552 62.12144 213.08267 C 62.246 213.11014 62.44757 213.15174 62.57266 213.17842 C 62.69774 213.2051 62.89725 213.24939 63.02303 213.27498 C 63.14882 213.30057 63.35287 213.33846 63.4793 213.36289 C 63.60571 213.38732 63.80756 213.42713 63.93425 213.45116 C 64.06094 213.47519 64.26468 213.51375 64.39246 213.5362 C 64.52023 213.55863 64.72662 213.5917 64.85522 213.61295 C 64.98381 213.63419 65.19049 213.66858 65.31927 213.68935 C 65.44806 213.71013 65.65404 213.7433 65.78351 213.76276 C 65.913 213.78223 66.12204 213.81124 66.25246 213.82962 C 66.38289 213.84803 66.59294 213.87747 66.7235 213.89534 C 66.85405 213.91321 67.0622 213.94203 67.19348 213.95839 C 67.32477 213.97475 67.53777 213.99777 67.66975 214.01328 C 67.80176 214.02878 68.01253 214.05547 68.1449 214.07022 C 68.27727 214.08499 68.4906 214.10654 68.62381 214.11969 C 68.757 214.13285 68.9714 214.15213 69.10501 214.16501 C 69.23862 214.17789 69.45256 214.2008 69.58679 214.21253 C 69.72102 214.22425 69.93755 214.23952 70.07257 214.24956 C 70.2076 214.25962 70.42485 214.27529 70.55997 214.28499 C 70.69507 214.29468 70.91034 214.31127 71.0464 214.31948 C 71.18248 214.32769 71.40388 214.33719 71.54077 214.3442 C 71.67767 214.3512 71.89627 214.36336 72.03308 214.37007 C 72.16988 214.37677 72.38942 214.38727 72.52686 214.39258 C 72.66428 214.3979 72.8853 214.40425 73.0236 214.40843 C 73.16191 214.41262 73.38503 214.41913 73.52371 214.42279 C 73.6624 214.42646 73.88414 214.43267 74.02321 214.43494 C 74.16228 214.4372 74.3865 214.43799 74.52603 214.43915 C 74.66556 214.4403 74.88858 214.44304 75.02882 214.44336 C 75.16907 214.44368 75.3956 214.44263 75.53682 214.44147 C 75.67802 214.44033 75.90536 214.43654 76.04662 214.43498 C 76.18785 214.43341 76.41318 214.43283 76.55481 214.4301 C 76.69646 214.42737 76.92522 214.41933 77.06746 214.41519 C 77.2097 214.41106 77.43787 214.40464 77.5801 214.40026 C 77.72232 214.39588 77.94936 214.38942 78.09262 214.38362 C 78.23589 214.37784 78.46867 214.36569 78.61272 214.35848 C 78.75677 214.35124 78.9871 214.33914 79.13095 214.33148 C 79.27481 214.32382 79.50502 214.31218 79.64954 214.30319 C 79.79407 214.2942 80.02777 214.27655 80.1727 214.26663 C 80.31764 214.25672 80.5487 214.24256 80.69424 214.23168 C 80.83977 214.22078 81.07538 214.20047 81.22163 214.18808 C 81.3679 214.17569 81.6022 214.15493 81.74844 214.1423 C 81.8947 214.12967 82.12901 214.11072 82.27571 214.09699 C 82.42241 214.08324 82.65863 214.0585 82.80582 214.04325 C 82.953 214.02799 83.1891 214.00257 83.33661 213.98697 C 83.48413 213.97136 83.72089 213.94789 83.86914 213.9308 C 84.0174 213.91371 84.25656 213.88222 84.4052 213.86373 C 84.55382 213.84522 84.79172 213.81627 84.94044 213.79743 C 85.08916 213.77858 85.32793 213.74791 85.47716 213.72779 C 85.6264 213.70766 85.8663 213.67345 86.01605 213.65229 C 86.1658 213.6311 86.4064 213.59725 86.55656 213.57514 C 86.70673 213.55304 86.94774 213.51633 87.09842 213.49295 C 87.2491 213.46956 87.49165 213.43062 87.64258 213.4066 C 87.7935 213.38259 88.03523 213.34482 88.18626 213.3198 C 88.3373 213.29477 88.57951 213.2526 88.73117 213.22618 C 88.88283 213.19976 89.12732 213.1561 89.27931 213.12935 C 89.4313 213.10259 89.67455 213.06131 89.82663 213.03331 C 89.97871 213.00531 90.2228 212.95696 90.37541 212.92749 C 90.52805 212.89803 90.77374 212.85092 90.92674 212.82096 C 91.07976 212.79099 91.32495 212.74265 91.47829 212.71146 C 91.63164 212.68027 91.87807 212.62847 92.03198 212.59606 C 92.18588 212.56365 92.43358 212.51096 92.58763 212.47777 C 92.74167 212.44458 92.98798 212.39113 93.14223 212.35684 C 93.29648 212.32254 93.54492 212.26544 93.69943 212.23052 C 93.85396 212.19557 94.10123 212.14067 94.25586 212.10495 C 94.41049 212.06925 94.65868 212.01035 94.81398 211.97307 C 94.96928 211.93579 95.21988 211.87416 95.37518 211.83623 C 95.53049 211.79831 95.77786 211.73867 95.9334 211.69962 C 96.08893 211.66056 96.33998 211.59506 96.49619 211.55469 C 96.6524 211.51432 96.90306 211.44933 97.05931 211.40853 C 97.21555 211.36772 97.46568 211.30281 97.62231 211.2606 C 97.77893 211.21842 98.03113 211.1474 98.18816 211.10428 C 98.3452 211.06114 98.5972 210.99337 98.75412 210.94968 C 98.91106 210.906 99.1621 210.83464 99.31926 210.78943 C 99.47644 210.74422 99.72948 210.66973 99.88701 210.62375 C 100.04454 210.57779 100.297 210.50492 100.45477 210.45809 C 100.61255 210.41124 100.86613 210.3344 101.02422 210.28609 C 101.18231 210.23778 101.43594 210.15857 101.59424 210.10979 C 101.75253 210.061 102.0066 209.98427 102.16519 209.93444 C 102.32378 209.8846 102.57846 209.80175 102.73724 209.75054 C 102.89603 209.69934 103.15111 209.6166 103.30965 209.56537 C 103.46819 209.51416 103.72104 209.43399 103.87996 209.38137 C 104.03888 209.32872 104.29549 209.24025 104.45506 209.18605 C 104.61464 209.13187 104.87067 209.04524 105.03017 208.99074 C 105.18967 208.93625 105.44522 208.84888 105.6047 208.79325 C 105.76419 208.7376 106.01971 208.64646 106.17966 208.5897 C 106.3396 208.53298 106.59743 208.44178 106.75748 208.38426 C 106.91754 208.32675 107.17325 208.23404 107.33333 208.17522 C 107.49342 208.1164 107.7509 208.01985 107.91136 207.96028 C 108.07181 207.9007 108.32936 207.80605 108.48984 207.74582 C 108.65031 207.6856 108.9074 207.58763 109.06793 207.52616 C 109.22849 207.46468 109.48636 207.3647 109.64706 207.3027 C 109.80775 207.24069 110.06526 207.14234 110.22618 207.07921 C 110.38708 207.0161 110.646 206.91219 110.80688 206.84769 C 110.96776 206.78319 111.22464 206.67925 111.38573 206.61428 C 111.5468 206.5493 111.80667 206.44554 111.9679 206.3794 C 112.12914 206.31325 112.38689 206.20455 112.54787 206.13747 C 112.70886 206.07039 112.96692 205.96356 113.12828 205.89598 C 113.28966 205.82842 113.54941 205.7193 113.71098 205.65036 C 113.87257 205.58142 114.13129 205.46892 114.29286 205.39908 C 114.45442 205.32924 114.71376 205.21752 114.87552 205.14699 C 115.0373 205.07645 115.29698 204.96248 115.45876 204.89063 C 115.62054 204.81879 115.8801 204.70143 116.04161 204.62908 C 116.20311 204.55673 116.46112 204.44235 116.62286 204.36913 C 116.78462 204.2959 117.04536 204.17592 117.20741 204.10123 C 117.36946 204.02652 117.62894 203.90569 117.79091 203.83068 C 117.95288 203.75566 118.21297 203.63654 118.37488 203.56058 C 118.53679 203.48462 118.79607 203.36025 118.95789 203.28308 C 119.11972 203.20592 119.37944 203.08197 119.54121 203.00432 C 119.703 202.92667 119.96191 202.8023 120.12398 202.72336 C 120.28603 202.64441 120.54701 202.51515 120.70923 202.43527 C 120.87146 202.35538 121.13116 202.22801 121.29321 202.1475 C 121.45528 202.067 121.71527 201.93665 121.8773 201.85501 C 122.03935 201.77338 122.29913 201.64116 122.46114 201.55904 C 122.62315 201.47692 122.8829 201.34603 123.04497 201.26308 C 123.20705 201.18012 123.46721 201.04544 123.62923 200.96112 C 123.79126 200.87679 124.05055 200.74 124.21278 200.65522 C 124.37503 200.5704 124.63643 200.43573 124.79852 200.34992 C 124.96062 200.2641 125.21924 200.12378 125.38112 200.03662 C 125.54301 199.94948 125.80347 199.80912 125.96532 199.72171 C 126.12717 199.63433 126.38603 199.49512 126.54776 199.4067 C 126.7095 199.31829 126.96927 199.1737 127.13101 199.0844 C 127.29274 198.99509 127.55171 198.85288 127.71344 198.76291 C 127.87517 198.67295 128.135 198.52718 128.29676 198.43589 C 128.45851 198.3446 128.718 198.1966 128.87938 198.10492 C 129.04077 198.01326 129.29842 197.86754 129.45992 197.7751 C 129.62143 197.68267 129.88196 197.5322 130.04343 197.4386 C 130.20491 197.34502 130.46268 197.19474 130.62381 197.10059 C 130.78496 197.00644 131.04369 196.85524 131.20488 196.76004 C 131.36606 196.66483 131.62454 196.51036 131.78556 196.41429 C 131.94655 196.31824 132.20429 196.16434 132.36531 196.06761 C 132.52632 195.9709 132.78533 195.81478 132.94609 195.71714 C 133.10688 195.61949 133.36333 195.46239 133.5241 195.36386 C 133.68485 195.26532 133.94399 195.10605 134.10483 195.00691 C 134.26566 194.90778 134.52313 194.74932 134.68338 194.64937 C 134.84363 194.54941 135.09952 194.38729 135.25983 194.2865 C 135.42014 194.18573 135.67867 194.02437 135.8388 193.92296 C 135.99895 193.82157 136.25438 193.65819 136.41408 193.5557 C 136.57378 193.45322 136.82993 193.28731 136.98989 193.18418 C 137.14984 193.08106 137.4073 192.91619 137.56697 192.8123 C 137.72664 192.70844 137.98122 192.54044 138.14069 192.43547 C 138.30016 192.33049 138.55687 192.1611 138.71637 192.05573 C 138.87587 191.95035 139.1314 191.78209 139.29029 191.67589 C 139.44918 191.56969 139.70288 191.39749 139.86165 191.29026 C 140.02042 191.18303 140.27594 191.01055 140.43462 190.903 C 140.5933 190.79546 140.84708 190.62372 141.0054 190.51515 C 141.16371 190.40659 141.41733 190.2303 141.57566 190.1204 C 141.73398 190.01052 141.98842 189.83312 142.14662 189.7231 C 142.30483 189.61309 142.55823 189.43811 142.71598 189.3274 C 142.8737 189.21668 143.12599 189.03667 143.28356 188.92511 C 143.4411 188.81354 143.69408 188.63556 143.8516 188.52329 C 144.0091 188.411 144.26177 188.22902 144.4188 188.11582 C 144.5758 188.0026 144.82634 187.82097 144.98332 187.70728 C 145.14032 187.59358 145.39366 187.41082 145.5503 187.29631 C 145.70691 187.18181 145.95607 186.99738 146.11228 186.882 C 146.26848 186.76663 146.52005 186.58046 146.67618 186.46479 C 146.8323 186.3491 147.0818 186.165 147.23757 186.04828 C 147.39333 185.93157 147.6433 185.74117 147.7988 185.62354 C 147.9543 185.5059 148.20339 185.3181 148.35842 185.20044 C 148.51345 185.08278 148.76148 184.89435 148.91619 184.77547 C 149.07089 184.65659 149.31882 184.46317 149.47347 184.34357 C 149.62812 184.22396 149.87651 184.03333 150.03084 183.91339 C 150.18517 183.79346 150.432 183.6001 150.58577 183.47917 C 150.73955 183.35826 150.98552 183.1633 151.1392 183.04183 C 151.29288 182.92037 151.54 182.72582 151.69344 182.60367 C 151.84688 182.48152 152.09224 182.28453 152.24521 182.16146 C 152.39817 182.03838 152.6431 181.83979 152.79595 181.71659 C 152.94879 181.59339 153.19448 181.39742 153.34679 181.27346 C 153.4991 181.1495 153.74217 180.9481 153.89369 180.82314 C 154.04521 180.69815 154.28737 180.4979 154.43888 180.3727 C 154.59037 180.2475 154.8342 180.04683 154.98563 179.92066 C 155.13706 179.79448 155.37967 179.59006 155.53028 179.46329 C 155.68088 179.33652 155.92058 179.13417 156.07115 179.00693 C 156.22173 178.87967 156.46529 178.67406 156.61556 178.54607 C 156.76584 178.41809 157.00464 178.2128 157.1543 178.08441 C 157.30394 177.95601 157.54496 177.74993 157.69419 177.62067 C 157.84343 177.49141 158.0811 177.28287 158.2299 177.15274 C 158.37873 177.02262 158.6178 176.81316 158.76677 176.68274 C 158.91573 176.55233 159.15561 176.34389 159.30364 176.21274 C 159.45166 176.08159 159.68662 175.8692 159.83364 175.7375 C 159.98065 175.60582 160.21598 175.39557 160.36333 175.26354 C 160.51068 175.13152 160.74881 174.9188 160.89575 174.78589 C 161.0427 174.653 161.27632 174.439 161.4224 174.3057 C 161.56847 174.1724 161.80243 173.95893 161.94858 173.82501 C 162.09474 173.69109 162.33025 173.47524 162.47579 173.34052 C 162.62134 173.2058 162.85274 172.98906 162.99765 172.85395 C 163.14258 172.71881 163.37546 172.50238 163.52033 172.36653 C 163.6652 172.23069 163.89768 172.01108 164.04186 171.87476 C 164.18602 171.73845 164.41597 171.52046 164.55954 171.38399 C 164.70311 171.2475 164.93343 171.0283 165.07665 170.891 C 165.21987 170.75373 165.44916 170.53256 165.59178 170.39446 C 165.7344 170.25635 165.96225 170.03353 166.1046 169.89559 C 166.24694 169.75765 166.47586 169.53887 166.61765 169.40016 C 166.75943 169.26146 166.98549 169.03568 167.1266 168.89585 C 167.26773 168.75601 167.49411 168.53194 167.63477 168.39232 C 167.7754 168.2527 168.00055 168.02971 168.1404 167.88948 C 168.28025 167.74927 168.50307 167.5228 168.64266 167.38167 C 168.78224 167.24053 169.00719 167.01363 169.14652 166.87224 C 169.28583 166.73084 169.5085 166.50444 169.6469 166.36255 C 169.7853 166.22068 170.00598 165.99207 170.14405 165.84963 C 170.2821 165.70719 170.5042 165.47884 170.64199 165.33589 C 170.77979 165.19295 171.00026 164.96297 171.13716 164.81937 C 171.27407 164.67577 171.49231 164.44449 171.62874 164.30086 C 171.76515 164.15723 171.98447 163.92842 172.12042 163.7841 C 172.25638 163.63977 172.4732 163.4057 172.60863 163.2606 C 172.74404 163.11553 172.96137 162.88355 173.09648 162.73839 C 173.2316 162.59322 173.44826 162.36014 173.58249 162.21431 C 173.71672 162.0685 173.93044 161.83364 174.06397 161.68733 C 174.1975 161.54105 174.41167 161.30661 174.54499 161.15988 C 174.67832 161.01314 174.89264 160.77663 175.02495 160.62976 C 175.15724 160.4829 175.36684 160.24857 175.49858 160.10137 C 175.63033 159.95417 175.84296 159.71668 175.97447 159.5688 C 176.10599 159.42093 176.31589 159.1839 176.44647 159.03556 C 176.57706 158.88719 176.7851 158.64809 176.91567 158.49948 C 177.04624 158.35088 177.25801 158.11347 177.38753 157.96448 C 177.51705 157.8155 177.7208 157.57537 177.84918 157.42572 C 177.97759 157.27608 178.1842 157.03582 178.31295 156.88582 C 178.44167 156.73584 178.64911 156.49501 178.77704 156.34467 C 178.90497 156.19432 179.10829 155.95288 179.235 155.80222 C 179.36171 155.65155 179.56403 155.40958 179.69029 155.2587 C 179.81656 155.10782 180.0193 154.86605 180.14513 154.7147 C 180.27095 154.56337 180.47199 154.31967 180.59717 154.16794 C 180.72235 154.0162 180.92304 153.77307 181.0475 153.62105 C 181.17195 153.46903 181.37052 153.22473 181.4942 153.07218 C 181.6179 152.91963 181.8157 152.67435 181.93907 152.52146 C 182.06246 152.36858 182.2608 152.1236 182.38349 151.97025 C 182.50617 151.81691 182.70178 151.56972 182.82338 151.41617 C 182.94498 151.2626 183.13869 151.017 183.25992 150.86353 C 183.38115 150.71007 183.57695 150.46404 183.69727 150.3101 C 183.81757 150.15616 184.00762 149.90851 184.1271 149.75399 C 184.24658 149.59946 184.43912 149.35112 184.55854 149.19628 C 184.67795 149.04141 184.8695 148.79279 184.98778 148.63793 C 185.10605 148.48307 185.29343 148.23514 185.41103 148.08005 C 185.52863 147.92496 185.71819 147.67557 185.83539 147.52008 C 185.9526 147.3646 186.13982 147.11537 186.25585 146.9594 C 186.37189 146.80344 186.55609 146.55237 186.67179 146.39583 C 186.78749 146.2393 186.97486 145.98752 187.08979 145.83112 C 187.20471 145.6747 187.38623 145.42514 187.50019 145.26842 C 187.61415 145.11168 187.79744 144.85845 187.91114 144.70145 C 188.02483 144.54447 188.20688 144.29415 188.31967 144.13692 C 188.43245 143.97968 188.61235 143.72588 188.72403 143.5682 C 188.8357 143.41054 189.0132 143.15799 189.12459 143.00049 C 189.23596 142.84299 189.41635 142.59085 189.52687 142.43292 C 189.63739 142.275 189.81157 142.02036 189.92119 141.86219 C 190.03079 141.70401 190.20757 141.45108 190.31688 141.29283 C 190.42618 141.13459 190.60094 140.87992 190.70897 140.72151 C 190.81699 140.56311 190.98813 140.30989 191.09554 140.15108 C 191.20294 139.99227 191.37628 139.736 191.48313 139.57683 C 191.58997 139.41768 191.75975 139.1632 191.86563 139.00397 C 191.97151 138.84474 192.14109 138.58867 192.24629 138.42923 C 192.3515 138.26978 192.51972 138.01422 192.62397 137.8547 C 192.7282 137.69519 192.89432 137.43901 192.99767 137.27948 C 193.10102 137.11995 193.26605 136.86455 193.36885 136.70493 C 193.47165 136.5453 193.63665 136.28897 193.73865 136.12899 C 193.84066 135.969 194.00304 135.71215 194.10405 135.55185 C 194.20507 135.39157 194.36624 135.134 194.46678 134.97368 C 194.56734 134.81336 194.72911 134.55687 194.82874 134.3963 C 194.92835 134.23575 195.08617 133.97718 195.18486 133.81636 C 195.28357 133.65557 195.44226 133.39792 195.5402 133.23723 C 195.63816 133.07654 195.79367 132.81923 195.89083 132.65819 C 195.98796 132.49713 196.14369 132.23773 196.24039 132.07646 C 196.33708 131.9152 196.4922 131.65688 196.58786 131.49591 C 196.6835 131.33493 196.83536 131.0773 196.92981 130.91625 C 197.02426 130.75518 197.17458 130.49649 197.26863 130.33506 C 197.36269 130.1736 197.5148 129.914 197.60779 129.75261 C 197.70078 129.5912 197.84708 129.3332 197.93888 129.17173 C 198.03066 129.01023 198.1777 128.75026 198.26937 128.58866 C 198.36103 128.42704 198.509 128.16849 198.59952 128.00684 C 198.69004 127.8452 198.83238 127.58543 198.92182 127.4236 C 199.01125 127.26176 199.15486 127.00215 199.24411 126.84036 C 199.33336 126.67856 199.47708 126.41934 199.56514 126.25748 C 199.65319 126.0956 199.79172 125.83537 199.87877 125.67361 C 199.96582 125.51184 200.10608 125.25342 200.19252 125.09149 C 200.27896 124.92957 200.41666 124.66861 200.50176 124.50645 C 200.58686 124.34431 200.72127 124.08473 200.80593 123.92278 C 200.89057 123.76083 201.02797 123.5013 201.11183 123.33923 C 201.19568 123.17719 201.32784 122.91658 201.41033 122.75471 C 201.49282 122.59286 201.62404 122.33461 201.7064 122.17262 C 201.78878 122.01064 201.923 121.74945 202.00397 121.58717 C 202.08495 121.42491 202.2103 121.16525 202.29001 121.00307 C 202.36974 120.8409 202.49904 120.58041 202.57859 120.41829 C 202.65811 120.25615 202.7849 119.99643 202.86333 119.83452 C 202.94176 119.67259 203.06659 119.41306 203.14383 119.25128 C 203.22107 119.08952 203.34354 118.83044 203.42006 118.66862 C 203.49657 118.50682 203.61975 118.24707 203.69535 118.08502 C 203.77095 117.92297 203.8898 117.66286 203.96497 117.5006 C 204.04013 117.33833 204.16304 117.07747 204.23714 116.9155 C 204.31125 116.75351 204.42675 116.49455 204.49916 116.3331 C 204.57158 116.17166 204.68712 115.91325 204.75913 115.75185 C 204.83112 115.59042 204.947 115.33151 205.01813 115.16968 C 205.08927 115.00784 205.20159 114.74724 205.27182 114.58539 C 205.34206 114.42355 205.45464 114.16466 205.52437 114.0032 C 205.5941 113.84174 205.706 113.58308 205.7744 113.42165 C 205.8428 113.26022 205.95032 113.00096 206.01747 112.83963 C 206.08464 112.67828 206.19197 112.41986 206.25849 112.25876 C 206.32501 112.09766 206.43141 111.83972 206.49697 111.67856 C 206.56252 111.51741 206.6663 111.25829 206.73105 111.09717 C 206.79578 110.93607 206.89983 110.67796 206.96352 110.51738 C 207.02719 110.35681 207.12758 110.10063 207.19011 109.93979 C 207.25264 109.77895 207.35237 109.51895 207.41425 109.35812 C 207.47612 109.19731 207.57524 108.94109 207.63613 108.78061 C 207.697 108.62013 207.79319 108.362 207.85312 108.20146 C 207.91304 108.04091 208.0087 107.78368 208.06804 107.62344 C 208.1274 107.46321 208.223 107.2065 208.28089 107.04659 C 208.33876 106.88666 208.42835 106.63086 208.4852 106.47083 C 208.54206 106.31078 208.63428 106.05284 208.69068 105.89299 C 208.74706 105.73314 208.83655 105.47806 208.89165 105.31871 C 208.94676 105.15936 209.03366 104.90387 209.08786 104.74452 C 209.14208 104.58517 209.22907 104.32932 209.2824 104.17021 C 209.33573 104.01111 209.4202 103.75674 209.47228 103.59773 C 209.52437 103.43872 209.60625 103.1832 209.65779 103.02408 C 209.70932 102.86496 209.79326 102.60945 209.84375 102.45087 C 209.89426 102.29228 209.97263 102.03914 210.02178 101.881 C 210.07093 101.72284 210.1492 101.4692 210.19806 101.31096 C 210.2469 101.15273 210.32637 100.89828 210.37387 100.7405 C 210.42139 100.5827 210.49422 100.33136 210.54048 100.17366 C 210.58673 100.01595 210.66162 99.76146 210.70729 99.60382 C 210.75296 99.4462 210.82518 99.19461 210.86963 99.03755 C 210.91408 98.8805 210.9844 98.62874 211.02767 98.47185 C 211.07094 98.31494 211.13875 98.06343 211.18149 97.90666 C 211.22422 97.7499 211.29433 97.49829 211.33573 97.34196 C 211.37712 97.18565 211.43923 96.93617 211.47985 96.77998 C 211.52046 96.6238 211.58856 96.37213 211.62854 96.21619 C 211.66852 96.06024 211.72982 95.8115 211.76804 95.65602 C 211.80626 95.50055 211.86637 95.25093 211.90407 95.09561 C 211.94176 94.94029 212.00307 94.69147 212.03977 94.53648 C 212.07646 94.3815 212.13336 94.13318 212.16866 93.97858 C 212.20395 93.82397 212.25925 93.57668 212.29419 93.42216 C 212.32915 93.26765 212.38701 93.01907 212.42055 92.86494 C 212.45409 92.71082 212.50359 92.46498 212.53595 92.31123 C 212.56832 92.1575 212.62175 91.91061 212.65387 91.75685 C 212.68599 91.6031 212.73705 91.35619 212.76753 91.20305 C 212.79804 91.0499 212.8443 90.80545 212.8737 90.653 C 212.9031 90.50053 212.9506 90.2567 212.97954 90.1042 C 213.00847 89.9517 213.05492 89.70596 213.08226 89.55391 C 213.1096 89.40184 213.15004 89.16005 213.17667 89.00818 C 213.2033 88.85632 213.24849 88.61082 213.27433 88.45924 C 213.30016 88.30766 213.33858 88.06659 213.36284 87.91568 C 213.3871 87.76477 213.42528 87.52235 213.44919 87.37154 C 213.4731 87.22072 213.51235 86.97893 213.5352 86.82864 C 213.55808 86.67836 213.59253 86.43813 213.61406 86.28827 C 213.63559 86.13843 213.6695 85.89818 213.69039 85.74858 C 213.71128 85.59897 213.74515 85.359 213.76464 85.21002 C 213.78412 85.06104 213.81267 84.82343 213.83094 84.67479 C 213.84918 84.52614 213.87856 84.28712 213.8963 84.13861 C 213.91403 83.9901 213.94255 83.75217 213.95879 83.60439 C 213.97502 83.4566 213.99787 83.22089 214.01334 83.07347 C 214.02881 82.92606 214.05547 82.68915 214.0704 82.54187 C 214.08535 82.39459 214.10787 82.15848 214.12114 82.01198 C 214.1344 81.86548 214.15361 81.63211 214.16614 81.48598 C 214.17867 81.33983 214.20008 81.10419 214.21146 80.9587 C 214.22283 80.81319 214.23804 80.58228 214.24814 80.43727 C 214.25823 80.29228 214.27457 80.05861 214.28424 79.91365 C 214.2939 79.76868 214.30942 79.53702 214.31793 79.39244 C 214.32643 79.24788 214.33826 79.0156 214.34561 78.87166 C 214.35297 78.72772 214.36457 78.49832 214.371 78.35504 C 214.37746 78.21178 214.38694 77.98192 214.39214 77.83897 C 214.39736 77.69603 214.4043 77.46718 214.40865 77.3247 C 214.413 77.18224 214.42024 76.95403 214.42357 76.81206 C 214.42688 76.6701 214.4305 76.44296 214.43259 76.30157 C 214.4347 76.1602 214.43723 75.9341 214.43875 75.79305 C 214.44028 75.65198 214.44335 75.42534 214.44365 75.28484 C 214.44396 75.14435 214.44222 74.92021 214.44104 74.78044 C 214.43988 74.64067 214.43628 74.41725 214.4351 74.27748 C 214.43393 74.13771 214.43518 73.91211 214.4325 73.77307 C 214.42983 73.63403 214.42018 73.41354 214.41573 73.27539 C 214.41126 73.13725 214.40464 72.91545 214.40023 72.77736 C 214.39582 72.63928 214.38996 72.4174 214.38393 72.28015 C 214.37792 72.14291 214.36403 71.92487 214.3568 71.78821 C 214.34957 71.65154 214.33931 71.43143 214.33174 71.29509 C 214.32418 71.15877 214.3113 70.94098 214.30217 70.80554 C 214.29306 70.67012 214.2759 70.4541 214.26596 70.31898 C 214.25605 70.18385 214.24129 69.96642 214.23055 69.83159 C 214.2198 69.69676 214.20059 69.48097 214.18842 69.34718 C 214.17624 69.21338 214.15544 69.00064 214.14276 68.86723 C 214.1301 68.73383 214.11106 68.51837 214.09699 68.38557 C 214.0829 68.25279 214.05673 68.04202 214.04129 67.9101 C 214.02585 67.77815 214.00112 67.56662 213.98561 67.43462 C 213.97011 67.30261 213.94641 67.08987 213.92948 66.95868 C 213.91252 66.82747 213.88169 66.61943 213.86342 66.4889 C 213.84514 66.35838 213.81655 66.14784 213.79772 66.01788 C 213.77889 65.88792 213.74777 65.68118 213.72763 65.55214 C 213.70749 65.4231 213.67365 65.2163 213.65247 65.08778 C 213.6313 64.95926 213.59679 64.7539 213.57492 64.62582 C 213.55307 64.49773 213.51813 64.29184 213.49483 64.16454 C 213.47153 64.03723 213.43108 63.83487 213.40692 63.70828 C 213.38277 63.5817 213.34568 63.3782 213.32073 63.25217 C 213.29578 63.12613 213.25331 62.92516 213.22705 62.7998 C 213.20078 62.67445 213.15805 62.47377 213.1313 62.34862 C 213.10457 62.22345 213.06252 62.02194 213.03429 61.89775 C 213.00606 61.77356 212.9572 61.57683 212.92784 61.45352 C 212.89849 61.33022 212.85234 61.13196 212.82266 61.00899 C 212.79297 60.88602 212.74504 60.68925 212.71379 60.56718 C 212.68256 60.44511 212.62978 60.2505 212.59745 60.12914 C 212.56511 60.00777 212.51369 59.81326 212.48075 59.69238 C 212.44782 59.57152 212.39424 59.37793 212.35991 59.25792 C 212.32558 59.1379 212.26857 58.9467 212.23334 58.82733 C 212.1981 58.70796 212.14225 58.51624 212.10593 58.39757 C 212.06961 58.2789 212.00897 58.08981 211.97151 57.97202 C 211.93405 57.85423 211.87358 57.6663 211.83596 57.54857 C 211.79834 57.43083 211.73921 57.24017 211.70029 57.12335 C 211.66135 57.00655 211.59569 56.82217 211.55529 56.70656 C 211.51488 56.59096 211.44977 56.4056 211.40901 56.29007 C 211.36826 56.17456 211.30356 55.98853 211.26149 55.87393 C 211.21942 55.75934 211.14896 55.578 211.10579 55.46411 C 211.06264 55.35022 210.99414 55.16635 210.95043 55.05301 C 210.90673 54.93968 210.836 54.75923 210.79071 54.64723 C 210.74542 54.53522 210.67023 54.35709 210.62397 54.24565 C 210.57772 54.13422 210.50412 53.95502 210.45723 53.84409 C 210.41036 53.73317 210.33402 53.5559 210.28601 53.44608 C 210.238 53.33626 210.15979 53.16203 210.11122 53.05254 C 210.06266 52.94304 209.98552 52.76563 209.93585 52.65681 C 209.88619 52.54802 209.8042 52.37598 209.75324 52.26834 C 209.70229 52.16072 209.6202 51.9882 209.56856 51.881 C 209.5169 51.77379 209.43395 51.6019 209.381 51.4956 C 209.32805 51.38931 209.24089 51.22026 209.18688 51.11491 C 209.13286 51.00957 209.04616 50.84126 208.99163 50.7363 C 208.93709 50.63132 208.84966 50.46216 208.79383 50.35835 C 208.738 50.25456 208.64603 50.0911 208.58925 49.98811 C 208.53246 49.88513 208.44202 49.71869 208.38455 49.61615 C 208.32709 49.51361 208.23375 49.35057 208.17504 49.24901 C 208.11632 49.14745 208.02051 48.985 207.96137 48.88414 C 207.90224 48.78328 207.80907 48.62177 207.74874 48.52196 C 207.68842 48.42213 207.58827 48.26364 207.52658 48.16467 C 207.46489 48.06572 207.36576 47.90762 207.30406 47.80867 C 207.24237 47.7097 207.14522 47.54907 207.0819 47.45137 C 207.01856 47.35367 206.91226 47.20087 206.84752 47.10445 C 206.78278 47.00803 206.68013 46.85248 206.61524 46.75633 C 206.55034 46.6602 206.44574 46.5065 206.37975 46.41147 C 206.31374 46.31644 206.20656 46.16556 206.13942 46.07141 C 206.07227 45.97726 205.96363 45.82639 205.89574 45.73285 C 205.82787 45.63931 205.71889 45.48982 205.6501 45.39716 C 205.58133 45.3045 205.46962 45.15672 205.40003 45.06503 C 205.33043 44.97333 205.21898 44.8271 205.1484 44.73624 C 205.07785 44.64537 204.96327 44.50003 204.8914 44.41008 C 204.81955 44.32013 204.70278 44.1775 204.6304 44.08794 C 204.55803 43.99837 204.44306 43.85324 204.36972 43.76451 C 204.29639 43.67578 204.1764 43.53568 204.1018 43.44833 C 204.02719 43.36101 203.9069 43.22186 203.83193 43.13504 C 203.75693 43.04822 203.63713 42.90848 203.56125 42.82256 C 203.48537 42.73663 203.36219 42.60052 203.28495 42.5157 C 203.2077 42.43088 203.08222 42.29532 203.00449 42.2111 C 202.92676 42.1269 202.80332 41.99187 202.72464 41.90874 C 202.64597 41.82559 202.51712 41.69424 202.43741 41.61186 C 202.35771 41.52948 202.23043 41.39656 202.15019 41.31499 C 202.06995 41.23341 201.9407 41.10419 201.85907 41.02388 C 201.77744 40.94359 201.64406 40.81606 201.56174 40.73619 C 201.4794 40.65631 201.3488 40.52684 201.26566 40.44817 C 201.18253 40.3695 201.0468 40.24673 200.96248 40.16911 C 200.87818 40.09149 200.74268 39.96584 200.65792 39.88866 C 200.57315 39.81148 200.43743 39.6887 200.3515 39.61282 C 200.26558 39.53693 200.12543 39.41673 200.03856 39.34167 C 199.95168 39.26663 199.81247 39.14653 199.72525 39.07181 C 199.63805 38.9971 199.49849 38.8763 199.4099 38.80309 C 199.32129 38.72987 199.17623 38.61635 199.08661 38.54414 C 198.997 38.47192 198.85395 38.3545 198.76399 38.28265 C 198.67404 38.21078 198.52915 38.09666 198.4383 38.02611 C 198.34743 37.95557 198.20064 37.84401 198.10904 37.77405 C 198.01746 37.70409 197.87078 37.59071 197.77805 37.52188 C 197.68534 37.45305 197.5344 37.3454 197.44075 37.27788 C 197.3471 37.21034 197.19698 37.10243 197.10312 37.03511 C 197.00926 36.9678 196.85926 36.85896 196.76422 36.79272 C 196.66918 36.72647 196.51427 36.6225 196.41806 36.55754 C 196.32187 36.49258 196.16696 36.38918 196.07077 36.32446 C 195.9746 36.25975 195.8222 36.15436 195.72475 36.09103 C 195.62729 36.02773 195.46736 35.92987 195.36827 35.86804 C 195.2692 35.80621 195.10984 35.70677 195.01053 35.64543 C 194.91123 35.58408 194.75273 35.48602 194.65258 35.42578 C 194.5524 35.36555 194.3894 35.27068 194.28853 35.2113 C 194.18766 35.15192 194.02683 35.05634 193.9254 34.99776 C 193.82398 34.93918 193.65988 34.84662 193.55745 34.78905 C 193.45502 34.73148 193.28995 34.63963 193.18709 34.58275 C 193.08423 34.52586 192.91973 34.43468 192.81606 34.37898 C 192.71237 34.32327 192.54482 34.23582 192.43985 34.18129 C 192.33487 34.12675 192.16501 34.03989 192.0595 33.98592 C 191.95398 33.93195 191.78553 33.84497 191.67926 33.79227 C 191.573 33.73956 191.40085 33.6575 191.29352 33.60597 C 191.1862 33.55444 191.01337 33.47203 190.90572 33.42082 C 190.79808 33.36963 190.62612 33.287 190.51758 33.23694 C 190.40906 33.18689 190.23296 33.10855 190.12346 33.05998 C 190.01396 33.01141 189.8382 32.9346 189.72834 32.88678 C 189.61847 32.83896 189.44252 32.76212 189.33159 32.71523 C 189.22066 32.66835 189.04036 32.59505 188.92877 32.54883 C 188.81717 32.50261 188.6393 32.42728 188.52718 32.3821 C 188.41504 32.33691 188.23368 32.26686 188.12059 32.22318 C 188.00749 32.17947 187.82553 32.11053 187.71204 32.06712 C 187.59853 32.02371 187.41709 31.9524 187.30254 31.91016 C 187.18799 31.86794 187.00203 31.80328 186.88642 31.76263 C 186.77079 31.72198 186.58496 31.65735 186.46912 31.61717 C 186.35327 31.577 186.16815 31.51198 186.0515 31.47299 C 185.93486 31.43402 185.74602 31.37392 185.62839 31.33617 C 185.51076 31.29842 185.32172 31.23824 185.20365 31.20094 C 185.08557 31.16365 184.89589 31.10358 184.7773 31.06732 C 184.6587 31.03107 184.4679 30.97498 184.34882 30.93959 C 184.22974 30.9042 184.03907 30.84676 183.91904 30.8122 C 183.799 30.77765 183.60475 30.72342 183.48363 30.69044 C 183.36252 30.65747 183.16754 30.60677 183.04605 30.57454 C 182.92458 30.54233 182.73012 30.48944 182.60805 30.4582 C 182.48598 30.42697 182.28911 30.37914 182.16625 30.34935 C 182.04338 30.31955 181.84597 30.27266 181.72249 30.24336 C 181.599 30.21405 181.40038 30.16628 181.2762 30.13805 C 181.15201 30.10982 180.95236 30.06642 180.82741 30.03987 C 180.70244 30.01334 180.50083 29.9729 180.37552 29.94669 C 180.25023 29.92049 180.05027 29.87622 179.92432 29.85094 C 179.79837 29.82564 179.5946 29.78825 179.46775 29.76427 C 179.34088 29.74028 179.13719 29.70126 179.00989 29.67796 C 178.88259 29.65466 178.67819 29.61826 178.5502 29.59627 C 178.42223 29.57428 178.21613 29.54065 178.08744 29.51952 C 177.95873 29.49838 177.75177 29.46414 177.6226 29.44388 C 177.49343 29.42361 177.2863 29.39212 177.1564 29.37337 C 177.0265 29.3546 176.81658 29.32684 176.6863 29.30858 C 176.55602 29.29033 176.34839 29.25897 176.21735 29.24173 C 176.0863 29.22449 175.8738 29.19989 175.74173 29.18433 C 175.60968 29.16876 175.39734 29.14482 175.26546 29.12943 C 175.13358 29.11404 174.92398 29.0874 174.79125 29.0734 C 174.65853 29.0594 174.44237 29.04105 174.30878 29.02841 C 174.17519 29.01578 173.96218 28.99445 173.82839 28.98228 C 173.6946 28.97012 173.4792 28.95134 173.34444 28.94066 C 173.20967 28.92996 172.99208 28.91528 172.85706 28.90523 C 172.72203 28.89519 172.50688 28.87727 172.37128 28.8682 C 172.23567 28.85913 172.01599 28.84737 171.87966 28.8398 C 171.74333 28.83223 171.52509 28.82063 171.38861 28.8136 C 171.25215 28.80655 171.03327 28.79483 170.89598 28.789 C 170.7587 28.78316 170.5372 28.7761 170.39911 28.77144 C 170.26102 28.76678 170.03885 28.75998 169.90064 28.75545 C 169.76242 28.75092 169.54189 28.74171 169.40294 28.7387 C 169.26399 28.73567 169.03897 28.73474 168.8992 28.73355 C 168.75943 28.73238 168.53539 28.7309 168.39559 28.73013 C 168.2558 28.72937 168.03199 28.72783 167.89162 28.72803 C 167.75124 28.72823 167.52481 28.73051 167.38378 28.73163 C 167.24275 28.73274 167.01679 28.73378 166.87512 28.73605 C 166.73346 28.73831 166.50455 28.74434 166.36267 28.74796 C 166.22081 28.75157 165.99481 28.75806 165.85257 28.76219 C 165.71033 28.76633 165.48047 28.77246 165.3374 28.77777 C 165.19434 28.7831 164.9649 28.79414 164.82144 28.80064 C 164.67798 28.80713 164.44707 28.8177 164.30342 28.82466 C 164.15976 28.83162 163.93019 28.84245 163.78597 28.85086 C 163.64176 28.85927 163.40904 28.87556 163.26396 28.88535 C 163.1189 28.89514 162.88552 28.91132 162.74034 28.92145 C 162.59519 28.9316 162.36339 28.94687 162.21765 28.95847 C 162.07193 28.97006 161.83623 28.99239 161.69005 29.00508 C 161.54386 29.01778 161.31043 29.03688 161.16405 29.05005 C 161.01766 29.06322 160.78214 29.08539 160.63495 29.09999 C 160.48777 29.11458 160.25063 29.13985 160.10321 29.15532 C 159.9558 29.17079 159.7201 29.19524 159.57244 29.2116 C 159.42478 29.22795 159.18752 29.25554 159.039 29.27328 C 158.89049 29.29103 158.65097 29.32104 158.50203 29.33948 C 158.3531 29.3579 158.11449 29.38661 157.96552 29.40611 C 157.81653 29.4256 157.57767 29.45918 157.42824 29.48 C 157.27883 29.50082 157.0384 29.53503 156.88855 29.55632 C 156.73868 29.5776 156.49852 29.61055 156.34806 29.63345 C 156.19759 29.65636 155.95478 29.69756 155.80402 29.72153 C 155.65326 29.7455 155.4124 29.78224 155.26148 29.80627 C 155.11055 29.83029 154.86759 29.8689 154.71619 29.89468 C 154.56479 29.92047 154.3221 29.96524 154.17024 29.99211 C 154.0184 30.01898 153.77393 30.06091 153.62165 30.08847 C 153.46935 30.11604 153.22516 30.16197 153.0726 30.19084 C 152.92006 30.21971 152.67464 30.26746 152.5221 30.29655 C 152.36956 30.32564 152.12599 30.37024 151.97319 30.40065 C 151.8204 30.43106 151.57445 30.48352 151.42076 30.5157 C 151.26706 30.54788 151.01949 30.60017 150.86547 30.6327 C 150.71143 30.66524 150.46475 30.71664 150.31063 30.75017 C 150.15648 30.7837 149.90904 30.83951 149.75453 30.87445 C 149.60002 30.9094 149.35163 30.9666 149.19696 31.00208 C 149.04232 31.03754 148.7947 31.09375 148.63988 31.13016 C 148.48506 31.16656 148.2364 31.2269 148.08107 31.26457 C 147.92574 31.30226 147.67589 31.3633 147.52033 31.40187 C 147.36476 31.44043 147.11544 31.50299 146.95983 31.54263 C 146.80422 31.58229 146.55481 31.64734 146.39879 31.68767 C 146.24275 31.728 145.99175 31.792 145.83519 31.83339 C 145.67862 31.87477 145.42728 31.94289 145.27036 31.98592 C 145.11344 32.02893 144.86109 32.10025 144.7042 32.14351 C 144.54729 32.18678 144.29656 32.25356 144.13948 32.29776 C 143.9824 32.34198 143.72954 32.41637 143.57205 32.46216 C 143.41457 32.50795 143.162 32.58159 143.0043 32.62785 C 142.8466 32.6741 142.5932 32.74806 142.4354 32.79556 C 142.2776 32.84308 142.02506 32.92146 141.867 32.97026 C 141.70894 33.01906 141.45462 33.09802 141.29618 33.14734 C 141.13774 33.19666 140.88384 33.27522 140.725 33.3257 C 140.56618 33.37616 140.31014 33.46 140.15135 33.5112 C 139.99257 33.56241 139.73923 33.64278 139.58057 33.69476 C 139.42189 33.74677 139.16709 33.83238 139.00775 33.88593 C 138.84842 33.93948 138.59159 34.02663 138.43218 34.08078 C 138.27277 34.13492 138.01807 34.22104 137.8588 34.27621 C 137.69953 34.33138 137.44403 34.42206 137.28418 34.47844 C 137.12433 34.53484 136.8668 34.62585 136.70668 34.68263 C 136.54657 34.73941 136.29019 34.82959 136.13013 34.88776 C 135.97005 34.94592 135.71297 35.04259 135.5529 35.1019 C 135.39284 35.1612 135.13678 35.25569 134.9765 35.3152 C 134.81623 35.37473 134.55841 35.47006 134.39769 35.53094 C 134.23697 35.59181 133.9789 35.69182 133.8181 35.75394 C 133.65729 35.81606 133.3994 35.91606 133.23863 35.97867 C 133.07785 36.04128 132.82018 36.14154 132.6593 36.20514 C 132.49842 36.26875 132.2401 36.37234 132.07907 36.43715 C 131.91803 36.50194 131.65953 36.60657 131.49861 36.67215 C 131.33769 36.73773 131.08042 36.84319 130.91922 36.90982 C 130.75801 36.97646 130.49829 37.08505 130.33672 37.15244 C 130.17516 37.21983 129.91593 37.32735 129.7547 37.39552 C 129.59349 37.4637 129.33615 37.57457 129.17478 37.64394 C 129.01342 37.7133 128.7535 37.82556 128.59165 37.89554 C 128.4298 37.96553 128.16986 38.07718 128.00817 38.14844 C 127.84645 38.21971 127.58763 38.33708 127.4261 38.4092 C 127.26459 38.4813 127.00584 38.5956 126.84395 38.66821 C 126.68205 38.74083 126.42091 38.85878 126.25914 38.93265 C 126.09738 39.00653 125.83984 39.12582 125.67804 39.20079 C 125.51625 39.27574 125.25493 39.39731 125.09294 39.47296 C 124.93094 39.54863 124.67241 39.66957 124.51048 39.74619 C 124.34857 39.8228 124.08786 39.94783 123.92589 40.02528 C 123.7639 40.10274 123.50494 40.22633 123.343 40.3045 C 123.18108 40.38269 122.92102 40.50938 122.75874 40.5888 C 122.59648 40.66821 122.33566 40.79695 122.17351 40.8769 C 122.01134 40.95688 121.75204 41.08397 121.58998 41.16513 C 121.4279 41.24629 121.16734 41.37978 121.00534 41.4619 C 120.84334 41.54402 120.58418 41.6748 120.42232 41.75706 C 120.26044 41.83932 120.00066 41.97092 119.83861 42.05478 C 119.67654 42.13863 119.41653 42.27649 119.25426 42.36147 C 119.09196 42.44643 118.83116 42.58195 118.66898 42.66724 C 118.50679 42.75252 118.24702 42.88982 118.0852 42.97614 C 117.92339 43.06245 117.66434 43.20255 117.50262 43.2894 C 117.3409 43.37627 117.08122 43.5144 116.91957 43.60225 C 116.7579 43.69008 116.49927 43.83347 116.33746 43.92247 C 116.17566 44.01149 115.91504 44.15453 115.75331 44.24384 C 115.5916 44.33315 115.33344 44.47551 115.17181 44.56627 C 115.01018 44.65701 114.75023 44.80615 114.58838 44.89803 C 114.42654 44.98991 114.16687 45.1368 114.00531 45.22852 C 113.84377 45.32022 113.58537 45.46614 113.42398 45.55914 C 113.26257 45.65213 113.00323 45.8045 112.84198 45.89876 C 112.68074 45.99301 112.42302 46.14407 112.26172 46.23851 C 112.10043 46.33295 111.84048 46.48387 111.6794 46.57939 C 111.5183 46.6749 111.26135 46.8305 111.10057 46.92702 C 110.93977 47.02351 110.68144 47.17773 110.52048 47.27493 C 110.3595 47.37215 110.10129 47.52934 109.94028 47.62762 C 109.77925 47.7259 109.52065 47.88478 109.35988 47.98332 C 109.19911 48.08186 108.94188 48.23845 108.78154 48.33786 C 108.62119 48.43727 108.36424 48.59923 108.20416 48.69978 C 108.04408 48.80035 107.78796 48.96179 107.62772 49.06264 C 107.46747 49.1635 107.20937 49.3246 107.04921 49.42665 C 106.88905 49.5287 106.63327 49.69498 106.47337 49.79817 C 106.31348 49.90138 106.0566 50.06723 105.89676 50.1705 C 105.73692 50.27377 105.4808 50.43839 105.3214 50.54251 C 105.16199 50.64665 104.90714 50.81575 104.74782 50.92108 C 104.5885 51.02643 104.33235 51.19592 104.17307 51.30174 C 104.01378 51.40756 103.7589 51.57697 103.59975 51.6838 C 103.4406 51.79063 103.18471 51.9644 103.02596 52.07185 C 102.8672 52.17932 102.61392 52.35037 102.45552 52.4584 C 102.29712 52.56642 102.04257 52.74136 101.88419 52.85052 C 101.7258 52.95969 101.4721 53.13568 101.31393 53.24529 C 101.15575 53.35489 100.90204 53.52998 100.74411 53.6405 C 100.58618 53.75102 100.33334 53.93025 100.1756 54.04187 C 100.01787 54.15349 99.76477 54.3334 99.60722 54.44496 C 99.44966 54.55653 99.19724 54.73344 99.03998 54.84598 C 98.88274 54.95853 98.63065 55.14247 98.47383 55.25613 C 98.31702 55.36978 98.06638 55.55128 97.90976 55.66512 C 97.75316 55.77896 97.50154 55.96185 97.345 56.07666 C 97.18845 56.19147 96.93782 56.37677 96.78142 56.4926 C 96.625 56.60841 96.37346 56.79536 96.21762 56.91153 C 96.06177 57.02771 95.81335 57.21292 95.6581 57.32993 C 95.50284 57.44691 95.25421 57.63678 95.0986 57.75476 C 94.943 57.87274 94.69165 58.06178 94.53656 58.18028 C 94.38147 58.29878 94.13512 58.48982 93.98077 58.60884 C 93.82645 58.72787 93.57892 58.91891 93.4242 59.03821 C 93.26947 59.15752 93.01982 59.34831 92.86554 59.46872 C 92.71124 59.58911 92.46556 59.78484 92.3121 59.90608 C 92.15866 60.02731 91.91286 60.22105 91.75949 60.3426 C 91.60611 60.46416 91.35988 60.65959 91.20665 60.78217 C 91.0534 60.90474 90.80785 61.10292 90.655 61.2261 C 90.50215 61.3493 90.2576 61.54622 90.10507 61.67017 C 89.95253 61.7941 89.70764 61.99461 89.55551 62.11943 C 89.4034 62.24423 89.16049 62.44467 89.00862 62.56973 C 88.85675 62.69481 88.61238 62.89519 88.46092 63.02087 C 88.30946 63.14656 88.06764 63.34924 87.91696 63.47571 C 87.76627 63.60217 87.52542 63.80563 87.37482 63.9324 C 87.22421 64.05917 86.98177 64.26192 86.83144 64.38943 C 86.68112 64.51695 86.44125 64.72299 86.29143 64.85144 C 86.14159 64.97987 85.90126 65.18646 85.75151 65.3152 C 85.60176 65.44395 85.36128 65.64966 85.21208 65.77939 C 85.0629 65.90913 84.82465 66.11989 84.67615 66.25034 C 84.52766 66.38078 84.2903 66.58896 84.14183 66.71965 C 83.99338 66.85034 83.7538 67.0609 83.60603 67.1923 C 83.45828 67.32372 83.22412 67.53488 83.07681 67.66673 C 82.9295 67.79858 82.69147 68.01025 82.54425 68.14265 C 82.39703 68.27504 82.16214 68.48778 82.01576 68.621 C 81.86938 68.75424 81.63531 68.96965 81.48924 69.10295 C 81.34317 69.23627 81.10864 69.44778 80.96294 69.5819 C 80.81721 69.716 80.58443 69.93437 80.43898 70.06964 C 80.29353 70.2049 80.05974 70.42178 79.91457 70.5569 C 79.76941 70.69202 79.53696 70.90747 79.39268 71.04349 C 79.24843 71.1795 79.01839 71.4006 78.87477 71.53726 C 78.73116 71.67393 78.50114 71.8916 78.35754 72.0285 C 78.21394 72.16539 77.98288 72.38615 77.83977 72.524 C 77.69666 72.66183 77.46823 72.88411 77.326 73.02196 C 77.18379 73.15979 76.95659 73.37909 76.81471 73.51749 C 76.67282 73.65588 76.4448 73.88016 76.3034 74.01949 C 76.16202 74.15881 75.93661 74.38225 75.79558 74.52173 C 75.65456 74.66121 75.42738 74.88474 75.28696 75.0248 C 75.14651 75.16486 74.92305 75.39044 74.78331 75.53122 C 74.64357 75.672 74.41951 75.89838 74.27979 76.0394 C 74.14008 76.1804 73.91512 76.40588 73.77629 76.54755 C 73.63747 76.68921 73.41708 76.91814 73.27914 77.06047 C 73.14119 77.20282 72.91997 77.43066 72.78198 77.57341 C 72.64401 77.71616 72.42201 77.94601 72.28462 78.08932 C 72.14723 78.23265 71.92838 78.46265 71.79167 78.60645 C 71.65495 78.75024 71.4355 78.98192 71.29927 79.12575 C 71.16306 79.26956 70.94519 79.49867 70.80978 79.64311 C 70.6744 79.78755 70.45854 80.02145 70.32332 80.16673 C 70.18811 80.312 69.96983 80.54466 69.83511 80.69022 C 69.7004 80.83575 69.48605 81.06978 69.35225 81.2158 C 69.21846 81.36183 69.00443 81.59662 68.87076 81.74278 C 68.73709 81.88895 68.52167 82.12254 68.38881 82.2693 C 68.25597 82.41606 68.04504 82.65346 67.91325 82.8006 C 67.78145 82.94774 67.57068 83.1825 67.43883 83.3298 C 67.30698 83.47711 67.09396 83.71428 66.96289 83.86237 C 66.83183 84.01044 66.62448 84.24843 66.49405 84.39716 C 66.36362 84.54587 66.15308 84.78525 66.0228 84.93434 C 65.89252 85.08345 65.68423 85.32233 65.55498 85.47179 C 65.42574 85.62126 65.21962 85.86205 65.09123 86.01169 C 64.96283 86.16135 64.75752 86.40057 64.62956 86.55043 C 64.5016 86.7003 64.29616 86.94147 64.16895 87.09186 C 64.04173 87.24225 63.8393 87.48364 63.7127 87.63445 C 63.58614 87.78525 63.38274 88.02753 63.2566 88.17876 C 63.13048 88.33 62.92906 88.57312 62.80362 88.7246 C 62.67818 88.87607 62.47737 89.11903 62.3524 89.27055 C 62.22742 89.42207 62.02705 89.66414 61.90288 89.81665 C 61.77869 89.96918 61.58069 90.2168 61.45732 90.36992 C 61.33395 90.52303 61.13675 90.7675 61.01373 90.9203 C 60.8907 91.0731 60.69286 91.31786 60.57059 91.47118 C 60.44832 91.62451 60.25385 91.87166 60.13243 92.02539 C 60.01103 92.17914 59.81616 92.42543 59.69554 92.5793 C 59.57494 92.73315 59.38298 92.98003 59.26305 93.13435 C 59.14313 93.28868 58.95064 93.53706 58.83115 93.6916 C 58.71165 93.84615 58.52054 94.09337 58.40178 94.2482 C 58.28302 94.40303 58.09305 94.6525 57.97522 94.80757 C 57.85739 94.96265 57.67015 95.21071 57.55244 95.3659 C 57.43474 95.5211 57.24356 95.77052 57.12677 95.92621 C 57.01 96.0819 56.8265 96.33183 56.71072 96.48807 C 56.59496 96.64432 56.40793 96.89597 56.29227 97.05232 C 56.1766 97.2087 55.99135 97.45863 55.87714 97.6151 C 55.76291 97.77158 55.58258 98.02316 55.46906 98.18011 C 55.35555 98.33707 55.17206 98.5892 55.05891 98.74628 C 54.94577 98.90337 54.76567 99.15495 54.65349 99.31235 C 54.54132 99.46973 54.36209 99.72304 54.25041 99.88072 C 54.13873 100.03839 53.95941 100.29115 53.84857 100.44876 C 53.73773 100.60638 53.56154 100.85875 53.4515 101.01671 C 53.34148 101.17468 53.16518 101.42903 53.05547 101.58733 C 52.94574 101.7456 52.7695 101.99905 52.66069 102.1576 C 52.5519 102.31613 52.379 102.57108 52.27126 102.72998 C 52.1635 102.88889 51.99124 103.14417 51.884 103.30293 C 51.77678 103.46172 51.60445 103.71527 51.49837 103.8743 C 51.39229 104.03334 51.22482 104.28967 51.11945 104.44917 C 51.01407 104.60867 50.84392 104.8644 50.73878 105.02391 C 50.63365 105.18343 50.46526 105.43945 50.3616 105.59889 C 50.25797 105.75833 50.0946 106.01337 49.99168 106.17308 C 49.88876 106.33281 49.72247 106.5902 49.61981 106.75018 C 49.51715 106.91017 49.35326 107.16599 49.25175 107.32625 C 49.15025 107.48651 48.98906 107.74498 48.88821 107.90523 C 48.78737 108.06548 48.62495 108.32083 48.52489 108.4812 C 48.42484 108.64157 48.26602 108.90031 48.167 109.06104 C 48.068 109.22177 47.90982 109.47925 47.8112 109.6397 C 47.71259 109.80016 47.55394 110.05669 47.45619 110.21758 C 47.35844 110.37846 47.20305 110.63818 47.10663 110.79927 C 47.0102 110.96037 46.8574 111.2176 46.76122 111.37872 C 46.66504 111.53983 46.50854 111.7993 46.41339 111.96054 C 46.31825 112.1218 46.16965 112.37967 46.0754 112.54092 C 45.98114 112.70216 45.82774 112.96143 45.73404 113.12277 C 45.64034 113.28413 45.49217 113.5426 45.39996 113.70387 C 45.30774 113.86516 45.16112 114.12373 45.06932 114.28523 C 44.97754 114.44672 44.82954 114.70618 44.73837 114.86783 C 44.64719 115.02948 44.50221 115.28851 44.41212 115.45036 C 44.32205 115.61223 44.17859 115.87245 44.08905 116.0344 C 43.9995 116.19635 43.85506 116.45602 43.76675 116.61763 C 43.67844 116.77925 43.5398 117.03754 43.45251 117.19928 C 43.36525 117.36102 43.22476 117.62137 43.13763 117.7835 C 43.05049 117.94562 42.90997 118.20587 42.82445 118.36781 C 42.73892 118.52974 42.60582 118.7888 42.52112 118.95067 C 42.4364 119.11253 42.29855 119.37238 42.21394 119.53456 C 42.12933 119.69675 41.99413 119.95755 41.91116 120.11963 C 41.8282 120.2817 41.69836 120.54068 41.616 120.70267 C 41.53363 120.86465 41.39938 121.12515 41.3175 121.28717 C 41.23563 121.44919 41.10619 121.70827 41.02582 121.87045 C 40.94543 122.03264 40.81778 122.2941 40.73817 122.45618 C 40.65858 122.61824 40.53093 122.87668 40.45203 123.03854 C 40.37314 123.20041 40.24738 123.46072 40.16946 123.62291 C 40.09154 123.7851 39.96776 124.04549 39.89037 124.20753 C 39.81297 124.36957 39.68774 124.62889 39.6116 124.79086 C 39.53546 124.95282 39.41621 125.21301 39.34149 125.37485 C 39.26678 125.53667 39.14757 125.79543 39.07303 125.95718 C 38.99849 126.11894 38.87766 126.37885 38.8042 126.54082 C 38.73074 126.70279 38.61578 126.96297 38.54356 127.1246 C 38.47133 127.28625 38.35538 127.5444 38.28362 127.70584 C 38.21187 127.86726 38.09686 128.12639 38.02632 128.28815 C 37.9558 128.44992 37.84477 128.71016 37.77518 128.87174 C 37.70558 129.03333 37.59354 129.29158 37.52469 129.4528 C 37.45584 129.61402 37.34676 129.87242 37.27893 130.03379 C 37.21112 130.19513 37.10318 130.45444 37.03586 130.61582 C 36.96852 130.7772 36.85966 131.03572 36.79358 131.19702 C 36.7275 131.3583 36.62424 131.61731 36.55951 131.7784 C 36.49477 131.9395 36.39183 132.19715 36.32704 132.35817 C 36.26224 132.51921 36.15582 132.77837 36.0925 132.93909 C 36.02919 133.09983 35.93251 133.35604 35.87062 133.51663 C 35.80875 133.67722 35.70805 133.93576 35.64635 134.09654 C 35.58464 134.25731 35.48628 134.51493 35.42589 134.67545 C 35.3655 134.83597 35.2702 135.09334 35.21097 135.25345 C 35.15172 135.41358 35.05745 135.6696 34.99892 135.82953 C 34.94038 135.98946 34.84639 136.24617 34.78906 136.40619 C 34.73174 136.56621 34.64246 136.82277 34.58568 136.98288 C 34.5289 137.14299 34.43578 137.40026 34.37975 137.56023 C 34.32373 137.72022 34.23647 137.97658 34.1819 138.13602 C 34.12733 138.29546 34.04063 138.55025 33.98647 138.70941 C 33.9323 138.86858 33.8442 139.12439 33.7915 139.28325 C 33.7388 139.44211 33.65797 139.69548 33.60667 139.85439 C 33.55536 140.01328 33.4726 140.26972 33.42163 140.42852 C 33.37068 140.58731 33.28903 140.84066 33.23935 140.99895 C 33.18967 141.15724 33.11237 141.4112 33.06352 141.56943 C 33.01468 141.72768 32.9355 141.98128 32.88725 142.13944 C 32.839 142.29759 32.76256 142.55159 32.7157 142.70937 C 32.66885 142.86716 32.59575 143.11914 32.54956 143.27666 C 32.50336 143.43419 32.42789 143.68741 32.38263 143.84476 C 32.33737 144.00212 32.2668 144.25394 32.2233 144.41083 C 32.17978 144.5677 32.1123 144.81862 32.06903 144.97551 C 32.02577 145.13242 31.95366 145.38507 31.91145 145.5417 C 31.86925 145.69832 31.80563 145.94795 31.76479 146.10437 C 31.72394 146.26079 31.65749 146.51277 31.617 146.6691 C 31.57652 146.82541 31.51178 147.07558 31.4729 147.23107 C 31.43404 147.38655 31.37456 147.63455 31.33675 147.78975 C 31.29892 147.94495 31.23778 148.19443 31.20026 148.3497 C 31.16273 148.50498 31.1024 148.75405 31.0663 148.90895 C 31.0302 149.06386 30.97476 149.31179 30.93994 149.46617 C 30.9051 149.62058 30.84932 149.86759 30.81519 150.02179 C 30.78107 150.17601 30.72694 150.42365 30.69394 150.57764 C 30.66093 150.73165 30.60982 150.9779 30.57727 151.1317 C 30.54472 151.28548 30.4907 151.53269 30.45934 151.68608 C 30.42795 151.83946 30.38075 152.08441 30.35107 152.23728 C 30.3214 152.39012 30.27472 152.63526 30.24538 152.78778 C 30.21603 152.9403 30.16771 153.18444 30.13954 153.33657 C 30.11137 153.48868 30.06929 153.7321 30.04225 153.88423 C 30.0152 154.03638 29.97089 154.2814 29.94461 154.43318 C 29.91832 154.58496 29.87769 154.82714 29.85272 154.97821 C 29.82776 155.1293 29.78883 155.37128 29.76465 155.52225 C 29.74046 155.67322 29.70145 155.91594 29.6783 156.06639 C 29.65515 156.21685 29.61958 156.4567 29.59772 156.60666 C 29.57584 156.7566 29.54192 156.99735 29.52058 157.14714 C 29.49924 157.29695 29.46426 157.5368 29.4438 157.68637 C 29.42334 157.83596 29.39182 158.07639 29.37303 158.22518 C 29.35423 158.37398 29.3266 158.61017 29.30835 158.75882 C 29.29008 158.90746 29.25858 159.14823 29.24136 159.2966 C 29.22415 159.44498 29.19981 159.68085 29.18428 159.8282 C 29.16875 159.97556 29.14436 160.2115 29.12927 160.35865 C 29.1142 160.50579 29.08951 160.74208 29.07555 160.88877 C 29.06157 161.03545 29.04146 161.26934 29.02849 161.41591 C 29.01552 161.56249 28.99423 161.79904 28.98201 161.94525 C 28.96979 162.09146 28.95105 162.32469 28.94037 162.46977 C 28.92967 162.61484 28.91476 162.84603 28.90495 162.99085 C 28.89516 163.13568 28.87894 163.36898 28.86966 163.51366 C 28.86038 163.65836 28.84569 163.88965 28.83804 164.03374 C 28.8304 164.17781 28.82137 164.40827 28.81448 164.55223 C 28.80762 164.69618 28.79456 164.92804 28.78842 165.0714 C 28.78227 165.21474 28.77477 165.44307 28.77017 165.58553 C 28.76558 165.72798 28.75935 165.9561 28.75526 166.09818 C 28.75117 166.24025 28.74342 166.46791 28.74069 166.60955 C 28.73795 166.75118 28.73686 166.97782 28.73547 167.119 C 28.73407 167.2602 28.73164 167.48633 28.73058 167.6272 C 28.7295 167.76805 28.72758 167.99413 28.72777 168.13423 C 28.72795 168.27436 28.73047 168.49762 28.73198 168.63706 C 28.73347 168.77649 28.73654 168.99977 28.73871 169.13919 C 28.74089 169.27861 28.74446 169.50302 28.74767 169.6419 C 28.75087 169.78079 28.7576 170.00208 28.76189 170.14026 C 28.76617 170.27845 28.77322 170.5004 28.77866 170.63796 C 28.7841 170.77553 28.79457 170.99481 28.80118 171.13173 C 28.80777 171.26866 28.81924 171.48819 28.82625 171.62485 C 28.83324 171.76149 28.84332 171.9807 28.85164 172.11667 C 28.85995 172.25264 28.87637 172.46956 28.88626 172.60486 C 28.89613 172.74015 28.9128 172.957 28.92296 173.0919 C 28.9331 173.2268 28.94821 173.44295 28.95952 173.57721 C 28.97083 173.71147 28.99191 173.92592 29.0045 174.05968 C 29.01709 174.19344 29.03708 174.40808 29.0503 174.54135 C 29.0635 174.67464 29.0851 174.88779 29.09976 175.02027 C 29.11441 175.15274 29.14047 175.36428 29.15591 175.4962 C 29.17136 175.62815 29.19476 175.83994 29.21112 175.97122 C 29.22748 176.10251 29.25597 176.3119 29.27383 176.44246 C 29.2917 176.57302 29.32144 176.78199 29.33989 176.91223 C 29.35832 177.04247 29.38716 177.25157 29.40674 177.38118 C 29.42633 177.51078 29.4603 177.71756 29.48108 177.84636 C 29.50186 177.97515 29.53539 178.18096 29.55656 178.30947 C 29.57774 178.43799 29.61133 178.64493 29.63377 178.7727 C 29.6562 178.90048 29.69455 179.1035 29.71837 179.23043 C 29.74219 179.35735 29.78098 179.56098 29.80548 179.68747 C 29.82999 179.81397 29.86919 180.01654 29.895 180.14212 C 29.92082 180.26769 29.96489 180.46743 29.99156 180.5925 C 30.01825 180.71759 30.06001 180.9191 30.08731 181.0437 C 30.1146 181.16829 30.1595 181.36687 30.18834 181.49056 C 30.21718 181.61426 30.26572 181.81198 30.29526 181.93523 C 30.3248 182.05849 30.37073 182.25632 30.40125 182.37899 C 30.43175 182.50165 30.48337 182.69766 30.51518 182.81941 C 30.547 182.94116 30.5983 183.13539 30.6306 183.25653 C 30.6629 183.37766 30.71445 183.57205 30.7481 183.69249 C 30.78174 183.81295 30.83813 184.00514 30.87308 184.12467 C 30.90804 184.24419 30.9645 184.43477 31 184.55397 C 31.03552 184.67317 31.09247 184.8653 31.12914 184.98387 C 31.1658 185.10245 31.22679 185.29094 31.26434 185.40862 C 31.30191 185.52629 31.36127 185.7151 31.3999 185.83208 C 31.43855 185.94905 31.50317 186.13567 31.54295 186.25176 C 31.58275 186.36786 31.64632 186.55313 31.68668 186.66892 C 31.72704 186.7847 31.79254 186.97112 31.83388 187.08632 C 31.87521 187.20153 31.94171 187.38536 31.98462 187.49924 C 32.02754 187.61312 32.09973 187.79355 32.1432 187.9071 C 32.18669 188.02066 32.25381 188.20496 32.29808 188.31774 C 32.34235 188.43053 32.41649 188.60836 32.4623 188.71999 C 32.5081 188.8316 32.58208 189.01084 32.62822 189.12236 C 32.67438 189.2339 32.74747 189.41349 32.79498 189.52393 C 32.84248 189.63437 32.9221 189.80889 32.97069 189.91838 C 33.01926 190.02788 33.09605 190.20404 33.14514 190.31317 C 33.19423 190.42229 33.27397 190.59697 33.32452 190.70488 C 33.37508 190.81278 33.45801 190.98361 33.50955 191.09095 C 33.56108 191.19828 33.6438 191.37134 33.69597 191.47841 C 33.74814 191.58548 33.83232 191.75672 33.8856 191.86267 C 33.93887 191.96863 34.02603 192.13675 34.08005 192.2421 C 34.13406 192.34745 34.22008 192.51753 34.27498 192.62198 C 34.3299 192.72644 34.41948 192.89174 34.47586 192.99498 C 34.53224 193.0982 34.62453 193.26309 34.68137 193.36614 C 34.7382 193.46918 34.82745 193.63578 34.88559 193.73764 C 34.94371 193.83951 35.04109 193.9996 35.1004 194.10042 C 35.15971 194.20124 35.25352 194.36368 35.31314 194.46434 C 35.37274 194.565 35.46901 194.72635 35.53003 194.82598 C 35.59105 194.92562 35.69102 195.08367 35.753 195.18247 C 35.81499 195.28127 35.91425 195.43988 35.97678 195.53813 C 36.03932 195.63639 36.14012 195.79346 36.20378 195.8906 C 36.26743 195.98772 36.37117 196.14186 36.43561 196.2382 C 36.50005 196.33457 36.60254 196.48943 36.66824 196.58502 C 36.73395 196.68064 36.84204 196.83296 36.90915 196.92729 C 36.97626 197.02162 37.08481 197.17084 37.1519 197.26493 C 37.21898 197.35901 37.3246 197.51235 37.3927 197.60544 C 37.46078 197.69852 37.57307 197.84415 37.64267 197.93585 C 37.71227 198.02754 37.82437 198.1747 37.8944 198.26638 C 37.96442 198.35803 38.07617 198.50594 38.14737 198.59656 C 38.21855 198.68718 38.33533 198.82984 38.4076 198.91951 C 38.47986 199.00919 38.59561 199.15375 38.66826 199.24292 C 38.7409 199.33208 38.85738 199.47425 38.93126 199.56217 C 39.00514 199.6501 39.12582 199.78974 39.20078 199.87673 C 39.27571 199.96373 39.39601 200.10286 39.47144 200.18924 C 39.54688 200.27562 39.66785 200.41393 39.74454 200.49932 C 39.82121 200.5847 39.9467 200.7201 40.02417 200.80469 C 40.10164 200.88928 40.22476 201.02544 40.30289 201.10913 C 40.38101 201.19284 40.50801 201.3254 40.58723 201.40796 C 40.66647 201.49054 40.79408 201.62223 40.874 201.70438 C 40.9539 201.78653 41.1633 202.00009 41.1633 202.00009 "/>
</g>
<path transform="matrix(1,0,0,-1,9.686,256.27198)" stroke-width="1" stroke-linecap="butt" stroke-miterlimit="10" stroke-linejoin="miter" fill="none" stroke="#808080" d="M 0 119.45946 L 0 123.71135 M 30.39635 119.45946 L 30.39635 123.71135 M 60.79271 119.45946 L 60.79271 123.71135 M 91.18906 119.45946 L 91.18906 123.71135 M 151.98177 119.45946 L 151.98177 123.71135 M 182.37813 119.45946 L 182.37813 123.71135 M 212.77449 119.45946 L 212.77449 123.71135 M 243.17084 119.45946 L 243.17084 123.71135 "/>
<path transform="matrix(1,0,0,-1,9.686,256.27198)" stroke-width="1" stroke-linecap="butt" stroke-miterlimit="10" stroke-linejoin="miter" fill="none" stroke="#808080" d="M 119.45946 0 L 123.71135 0 M 119.45946 30.39635 L 123.71135 30.39635 M 119.45946 60.79271 L 123.71135 60.79271 M 119.45946 91.18906 L 123.71135 91.18906 M 119.45946 151.98177 L 123.71135 151.98177 M 119.45946 182.37813 L 123.71135 182.37813 M 119.45946 212.77449 L 123.71135 212.77449 M 119.45946 243.17084 L 123.71135 243.17084 "/>
<path transform="matrix(1,0,0,-1,9.686,256.27198)" stroke-width="1" stroke-linecap="butt" stroke-miterlimit="10" stroke-linejoin="miter" fill="none" stroke="#000000" d="M 0 121.58542 L 241.17832 121.58542 "/>
<path transform="matrix(1,0,0,-1,250.86432,134.68656)" d="M 1.99252 0 L -1.19551 1.59401 L 0 0 L -1.19551 -1.59401 "/>
<path transform="matrix(1,0,0,-1,9.686,256.27198)" stroke-width="1" stroke-linecap="butt" stroke-miterlimit="10" stroke-linejoin="miter" fill="none" stroke="#000000" d="M 121.58542 0 L 121.58542 241.17832 "/>
<path transform="matrix(0,-1,-1,-0,131.27143,15.093658)" d="M 1.99252 0 L -1.19551 1.59401 L 0 0 L -1.19551 -1.59401 "/>
<symbol id="font_1_1">
<path d="M .57600006 0 C .59300008 0 .611 0 .611 .019999996 C .611 .040000008 .59300008 .040000008 .57600006 .040000008 L .035000005 .040000008 C .018 .040000008 0 .040000008 0 .019999996 C 0 0 .018 0 .035000005 0 L .57600006 0 Z "/>
</symbol>
<use xlink:href="#font_1_1" transform="matrix(9.9626,0,0,-9.9626,4.147896,144.46257)"/>
<symbol id="font_2_4">
<path d="M .266 .165 L .266 .078 C .266 .042000005 .26400004 .031000002 .19000001 .031000002 L .16900002 .031000002 L .16900002 0 C .21000001 .003 .26200003 .003 .30400003 .003 C .34600003 .003 .39900003 .003 .44000004 0 L .44000004 .031000002 L .41900004 .031000002 C .34500004 .031000002 .34300003 .042000005 .34300003 .078 L .34300003 .165 L .44300003 .165 L .44300003 .19600001 L .34300003 .19600001 L .34300003 .651 C .34300003 .671 .34300003 .67700007 .32700003 .67700007 C .31800003 .67700007 .31500004 .67700007 .307 .665 L 0 .19600001 L 0 .165 L .266 .165 M .272 .19600001 L .028 .19600001 L .272 .569 L .272 .19600001 Z "/>
</symbol>
<use xlink:href="#font_2_4" transform="matrix(9.9626,0,0,-9.9626,11.347953,146.75397)"/>
<use xlink:href="#font_1_1" transform="matrix(9.9626,0,0,-9.9626,34.543897,144.46257)"/>
<symbol id="font_2_3">
<path d="M .24800003 .37400005 C .33 .40100003 .388 .47100006 .388 .55 C .388 .632 .3 .688 .204 .688 C .10300001 .688 .027000003 .628 .027000003 .55200007 C .027000003 .519 .049000004 .5 .078 .5 C .109000008 .5 .12900001 .522 .12900001 .55100008 C .12900001 .6010001 .082 .6010001 .067 .6010001 C .098 .65000006 .164 .66300007 .20000002 .66300007 C .24100003 .66300007 .29600004 .64100006 .29600004 .55100008 C .29600004 .53900006 .29400004 .48100005 .268 .43700005 C .238 .38900004 .204 .38600005 .17900002 .38500003 C .171 .38400004 .14700002 .38200004 .14000002 .38200004 C .132 .38100005 .125 .38000003 .125 .37000004 C .125 .35900004 .132 .35900004 .14900002 .35900004 L .19300002 .35900004 C .275 .35900004 .312 .29100005 .312 .193 C .312 .057000005 .24300003 .028 .199 .028 C .15600002 .028 .081 .045 .046000005 .104 C .081 .09900001 .11200001 .12100001 .11200001 .15900001 C .11200001 .19500001 .085 .215 .056 .215 C .031999999 .215 0 .201 0 .157 C 0 .06600001 .093 0 .20200002 0 C .32400004 0 .41500003 .091000009 .41500003 .193 C .41500003 .27500005 .35200004 .35300005 .24800003 .37400005 Z "/>
</symbol>
<use xlink:href="#font_2_3" transform="matrix(9.9626,0,0,-9.9626,41.88343,146.97315)"/>
<use xlink:href="#font_1_1" transform="matrix(9.9626,0,0,-9.9626,64.938899,144.46257)"/>
<symbol id="font_2_2">
<path d="M .07700001 .07700001 L .18300002 .18 C .33900003 .31800003 .39900003 .372 .39900003 .47200004 C .39900003 .586 .30900003 .666 .18700002 .666 C .074 .666 0 .574 0 .485 C 0 .42900003 .05 .42900003 .053000008 .42900003 C .07000001 .42900003 .105000007 .441 .105000007 .48200003 C .105000007 .508 .08700001 .53400006 .052000006 .53400006 C .044000005 .53400006 .042000008 .53400006 .039 .53300008 C .062000004 .59800007 .11600001 .63500007 .17400001 .63500007 C .26500003 .63500007 .308 .554 .308 .47200004 C .308 .39200003 .25800003 .31300003 .20300003 .25100003 L .011000004 .037 C 0 .026 0 .024 0 0 L .37100003 0 L .39900003 .17400001 L .374 .17400001 C .36900003 .14400001 .36200003 .1 .352 .085 C .345 .07700001 .279 .07700001 .257 .07700001 L .07700001 .07700001 Z "/>
</symbol>
<use xlink:href="#font_2_2" transform="matrix(9.9626,0,0,-9.9626,72.35913,146.75397)"/>
<use xlink:href="#font_1_1" transform="matrix(9.9626,0,0,-9.9626,95.33489,144.46257)"/>
<symbol id="font_2_1">
<path d="M .205 .64000007 C .205 .66400006 .205 .666 .18200003 .666 C .120000008 .60200008 .032000007 .60200008 0 .60200008 L 0 .57100006 C .020000004 .57100006 .07900001 .57100006 .13100001 .597 L .13100001 .079 C .13100001 .043 .128 .031000002 .038000004 .031000002 L .0060000049 .031000002 L .0060000049 0 C .04100001 .003 .128 .003 .168 .003 C .20800002 .003 .29500003 .003 .33000005 0 L .33000005 .031000002 L .29800005 .031000002 C .20800002 .031000002 .205 .042000005 .205 .079 L .205 .64000007 Z "/>
</symbol>
<use xlink:href="#font_2_1" transform="matrix(9.9626,0,0,-9.9626,103.14367,146.75397)"/>
<use xlink:href="#font_2_1" transform="matrix(9.9626,0,0,-9.9626,160.06168,146.75397)"/>
<use xlink:href="#font_2_2" transform="matrix(9.9626,0,0,-9.9626,190.06912,146.75397)"/>
<use xlink:href="#font_2_3" transform="matrix(9.9626,0,0,-9.9626,220.38544,146.97315)"/>
<use xlink:href="#font_2_4" transform="matrix(9.9626,0,0,-9.9626,250.64196,146.75397)"/>
<use xlink:href="#font_1_1" transform="matrix(9.9626,0,0,-9.9626,113.720897,256.77558)"/>
<use xlink:href="#font_2_4" transform="matrix(9.9626,0,0,-9.9626,120.92095,259.067)"/>
<use xlink:href="#font_1_1" transform="matrix(9.9626,0,0,-9.9626,113.720897,226.3796)"/>
<use xlink:href="#font_2_3" transform="matrix(9.9626,0,0,-9.9626,121.060428,228.89017)"/>
<use xlink:href="#font_1_1" transform="matrix(9.9626,0,0,-9.9626,113.720897,195.98357)"/>
<use xlink:href="#font_2_2" transform="matrix(9.9626,0,0,-9.9626,121.14113,198.27497)"/>
<use xlink:href="#font_1_1" transform="matrix(9.9626,0,0,-9.9626,113.720897,165.58757)"/>
<use xlink:href="#font_2_1" transform="matrix(9.9626,0,0,-9.9626,121.52967,167.87897)"/>
<use xlink:href="#font_2_1" transform="matrix(9.9626,0,0,-9.9626,121.52967,107.50195)"/>
<use xlink:href="#font_2_2" transform="matrix(9.9626,0,0,-9.9626,121.14113,77.10596)"/>
<use xlink:href="#font_2_3" transform="matrix(9.9626,0,0,-9.9626,121.061428,46.92914)"/>
<use xlink:href="#font_2_4" transform="matrix(9.9626,0,0,-9.9626,120.92195,16.31398)"/>
<symbol id="font_3_1">
<path d="M .305 .31300003 C .311 .33900003 .334 .43100003 .404 .43100003 C .409 .43100003 .433 .43100003 .454 .418 C .426 .41300003 .40600003 .388 .40600003 .36400003 C .40600003 .34800003 .417 .32900004 .444 .32900004 C .46600003 .32900004 .498 .34700004 .498 .38700003 C .498 .43900005 .439 .45300005 .405 .45300005 C .347 .45300005 .312 .40000005 .3 .37700004 C .275 .44300003 .221 .45300005 .19200002 .45300005 C .08800001 .45300005 .031000002 .32400004 .031000002 .29900003 C .031000002 .28900004 .041 .28900004 .043000007 .28900004 C .051000008 .28900004 .054000006 .291 .056 .3 C .09 .40600003 .156 .43100003 .19000001 .43100003 C .209 .43100003 .244 .42200003 .244 .36400003 C .244 .33300004 .22700002 .26600004 .19000001 .126 C .17400001 .064 .13900002 .022000002 .095000009 .022000002 C .08900001 .022000002 .06600001 .022000002 .045 .035 C .07000001 .040000004 .09200001 .061 .09200001 .089 C .09200001 .116000007 .07000001 .124000009 .055000009 .124000009 C .025 .124000009 0 .098000008 0 .06600001 C 0 .020000002 .050000006 0 .094000007 0 C .16000001 0 .19600001 .07000001 .19900002 .076000008 C .21100001 .039 .24700003 0 .307 0 C .41 0 .467 .12900001 .467 .15400002 C .467 .16400002 .458 .16400002 .455 .16400002 C .446 .16400002 .444 .16000001 .442 .15300001 C .409 .046 .341 .022000002 .30900003 .022000002 C .27 .022000002 .254 .054 .254 .08800001 C .254 .11000001 .26 .13200002 .271 .17600002 L .305 .31300003 Z "/>
</symbol>
<use xlink:href="#font_3_1" transform="matrix(9.9626,0,0,-9.9626,256.7029,136.92157)"/>
<symbol id="font_3_2">
<path d="M .45700003 .586 C .461 .6 .461 .602 .461 .609 C .461 .62700006 .447 .63600006 .432 .63600006 C .42200003 .63600006 .40600003 .63 .397 .615 C .395 .61 .387 .579 .38300003 .561 C .37600003 .535 .36900003 .508 .363 .48100005 L .318 .301 C .314 .286 .271 .21600002 .20500002 .21600002 C .15400002 .21600002 .143 .26000003 .143 .29700003 C .143 .34300003 .16000001 .40500004 .194 .49300004 C .21000001 .53400006 .21400002 .545 .21400002 .56500008 C .21400002 .61 .18200001 .6470001 .13200002 .6470001 C .037 .6470001 0 .50200006 0 .49300004 C 0 .48300005 .01 .48300005 .012 .48300005 C .022000002 .48300005 .023 .485 .028000003 .50100007 C .055000009 .595 .095000009 .625 .12900001 .625 C .13700001 .625 .15400002 .625 .15400002 .59300008 C .15400002 .568 .14400001 .54200008 .13700001 .523 C .097 .41700004 .079 .36 .079 .31300003 C .079 .224 .142 .194 .201 .194 C .24000003 .194 .274 .21100001 .30200003 .23900002 C .289 .187 .277 .13800001 .237 .08500001 C .21100001 .051 .17300001 .022 .127 .022 C .113000009 .022 .068 .025000006 .051000008 .06400001 C .067 .06400001 .080000009 .06400001 .094000007 .076000008 C .104 .08500001 .11400001 .098000008 .11400001 .117000009 C .11400001 .148 .087000008 .15200001 .07700001 .15200001 C .054000006 .15200001 .021 .136 .021 .087000008 C .021 .037 .065000008 0 .127 0 C .23 0 .333 .091000009 .361 .20400001 L .45700003 .586 Z "/>
</symbol>
<use xlink:href="#font_3_2" transform="matrix(9.9626,0,0,-9.9626,128.95592,9.652288)"/>
</svg>
