<?xml version="1.0" encoding="UTF-8" standalone="no"?>
<!DOCTYPE svg PUBLIC "-//W3C//DTD SVG 1.1//EN" "http://www.w3.org/Graphics/SVG/1.1/DTD/svg11.dtd">
<svg xmlns="http://www.w3.org/2000/svg" xmlns:xlink="http://www.w3.org/1999/xlink" version="1.1" width="234.983pt" height="190.666pt" viewBox="0 0 234.983 190.666">
<clipPath id="cp0">
<path transform="matrix(1,0,0,-1,27.998,174.634)" d="M 0 0 L 194.27216 0 L 194.27216 161.3956 L 0 161.3956 Z "/>
</clipPath>
<g clip-path="url(#cp0)">
<path transform="matrix(1,0,0,-1,27.998,174.634)" d="M 32.3787 161.3956 L 37.7751 161.3956 L 43.17152 161.3956 L 48.56796 161.3956 L 53.96439 161.3956 L 59.36081 161.3956 L 64.75723 161.3956 L 70.15366 161.3956 L 75.55008 161.3956 L 80.94652 161.3956 L 86.34294 161.3956 L 91.73935 161.3956 L 97.13579 161.3956 L 102.53221 161.3956 L 107.92863 161.3956 L 113.32507 161.3956 L 118.7215 161.3956 L 124.11792 161.3956 L 129.51435 161.3956 L 134.91077 161.3956 L 140.3072 161.3956 L 145.70363 161.3956 L 151.10004 161.3956 L 156.49648 161.3956 L 161.8929 161.3956 L 161.8929 0 L 32.3787 0 Z " fill="#cccce6"/>
<path transform="matrix(1,0,0,-1,27.998,174.634)" stroke-width="1" stroke-linecap="butt" stroke-dasharray="2.98883,2.98883" stroke-miterlimit="10" stroke-linejoin="miter" fill="none" stroke="#000000" d="M 0 142.02812 L 64.75739 142.02812 "/>
<path transform="matrix(1,0,0,-1,27.998,174.634)" stroke-width="1" stroke-linecap="butt" stroke-dasharray="2.98883,2.98883" stroke-miterlimit="10" stroke-linejoin="miter" fill="none" stroke="#000000" d="M 0 12.91164 L 129.51477 12.91164 "/>
<path transform="matrix(1,0,0,-1,27.998,174.634)" stroke-width="1" stroke-linecap="butt" stroke-dasharray="2.98883,2.98883" stroke-miterlimit="10" stroke-linejoin="miter" fill="none" stroke="#000000" d="M 64.75739 0 L 64.75739 142.02812 "/>
<path transform="matrix(1,0,0,-1,27.998,174.634)" stroke-width="1" stroke-linecap="butt" stroke-dasharray="2.98883,2.98883" stroke-miterlimit="10" stroke-linejoin="miter" fill="none" stroke="#000000" d="M 129.51477 0 L 129.51477 12.91164 "/>
<path transform="matrix(1,0,0,-1,27.998,174.634)" stroke-width="1.19553" stroke-linecap="butt" stroke-miterlimit="10" stroke-linejoin="miter" fill="none" stroke="#cccce6" d="M 32.3787 0 L 32.3787 161.3956 "/>
<path transform="matrix(1,0,0,-1,27.998,174.634)" stroke-width="1.19553" stroke-linecap="butt" stroke-miterlimit="10" stroke-linejoin="miter" fill="none" stroke="#cccce6" d="M 161.89347 0 L 161.89347 161.3956 "/>
<path transform="matrix(1,0,0,-1,27.998,174.634)" stroke-width="1.19553" stroke-linecap="butt" stroke-miterlimit="10" stroke-linejoin="miter" fill="none" stroke="#000080" d="M 48.56804 123.09964 C 48.56804 123.09964 49.54276 125.21513 49.91711 125.98734 C 50.29149 126.75954 50.89183 127.95195 51.2662 128.6652 C 51.64056 129.37847 52.24092 130.47664 52.61528 131.12812 C 52.98965 131.77957 53.59003 132.77472 53.96439 133.36052 C 54.33875 133.9463 54.9391 134.83194 55.31348 135.3502 C 55.68784 135.86847 56.2882 136.64685 56.66255 137.09587 C 57.03691 137.54489 57.63728 138.20915 58.01166 138.58652 C 58.38602 138.96389 58.98637 139.51206 59.36073 139.8157 C 59.7351 140.11936 60.33546 140.5461 60.70982 140.77504 C 61.08418 141.00399 61.68456 141.31204 62.05893 141.46582 C 62.43329 141.6196 63.03365 141.80567 63.408 141.8835 C 63.78236 141.96132 64.38272 142.02594 64.7571 142.02681 C 65.13145 142.0277 65.73183 141.96572 66.10619 141.88996 C 66.48056 141.8142 67.08092 141.63248 67.45528 141.48065 C 67.82964 141.32883 68.43 141.02283 68.80435 140.79569 C 69.17873 140.56855 69.7791 140.1454 70.15346 139.84346 C 70.52782 139.54152 71.12817 138.9951 71.50255 138.61943 C 71.8769 138.24376 72.47726 137.58286 72.85162 137.13588 C 73.226 136.68892 73.82637 135.91454 74.20073 135.39798 C 74.57509 134.88141 75.17545 133.99718 75.5498 133.41281 C 75.92418 132.82845 76.52454 131.83586 76.8989 131.18619 C 77.27325 130.53653 77.87361 129.44216 78.24799 128.73041 C 78.62234 128.01866 79.22272 126.82736 79.59708 126.05641 C 79.97145 125.28546 80.94617 123.17389 80.94617 123.17389 "/>
<path transform="matrix(1,0,0,-1,27.998,174.634)" stroke-width="1.19553" stroke-linecap="butt" stroke-miterlimit="10" stroke-linejoin="miter" fill="none" stroke="#000080" d="M 113.32542 31.91307 C 113.32542 31.91307 114.30014 29.79457 114.6745 29.02086 C 115.04887 28.24713 115.64923 27.05139 116.02359 26.33652 C 116.39795 25.62164 116.9983 24.52126 117.37268 23.86845 C 117.74704 23.21565 118.34741 22.21893 118.72177 21.63152 C 119.09613 21.0441 119.69649 20.15479 120.07086 19.63474 C 120.44522 19.11467 121.04558 18.33398 121.41994 17.88327 C 121.79431 17.43254 122.39468 16.76514 122.76904 16.38615 C 123.1434 16.00719 123.74376 15.45734 124.11812 15.15181 C 124.4925 14.84627 125.09285 14.41507 125.46721 14.18408 C 125.84157 13.95308 126.44194 13.64252 126.81631 13.48685 C 127.19067 13.33119 127.79103 13.14159 128.16539 13.06204 C 128.53977 12.98251 129.14012 12.91615 129.51448 12.91357 C 129.88884 12.91098 130.48921 12.96935 130.86357 13.04333 C 131.23795 13.11732 131.8383 13.29716 132.21266 13.44682 C 132.58702 13.5965 133.18738 13.89674 133.56175 14.1221 C 133.93611 14.34746 134.53649 14.77069 134.91085 15.0711 C 135.28522 15.37154 135.88558 15.9136 136.25994 16.2874 C 136.6343 16.66118 137.23465 17.31996 137.60901 17.76514 C 137.98339 18.21031 138.58376 18.98108 138.95812 19.49594 C 139.33248 20.0108 139.93283 20.89291 140.3072 21.47594 C 140.68157 22.05896 141.28192 23.04987 141.65628 23.69803 C 142.03066 24.34618 142.631 25.43735 143.00537 26.14738 C 143.37973 26.85742 143.9801 28.04613 144.35446 28.81555 C 144.72884 29.58499 145.70355 31.69293 145.70355 31.69293 "/>
<path transform="matrix(1,0,0,-1,27.998,174.634)" stroke-width="1.19553" stroke-linecap="butt" stroke-dasharray="2.98883,2.98883" stroke-miterlimit="10" stroke-linejoin="miter" fill="none" stroke="#8080bf" d="M 80.94673 123.17259 C 80.94673 123.17259 81.92145 120.97397 82.2958 120.09445 C 82.67018 119.21494 83.27054 117.76193 83.6449 116.83362 C 84.01926 115.90529 84.61961 114.37648 84.99397 113.40364 C 85.36835 112.43079 85.96872 110.83528 86.34308 109.82195 C 86.71744 108.80861 87.3178 107.14986 87.69217 106.10016 C 88.06653 105.05046 88.66689 103.33751 89.04124 102.25636 C 89.41562 101.1752 90.01599 99.41626 90.39035 98.30798 C 90.76471 97.19969 91.36507 95.39925 91.73943 94.26857 C 92.1138 93.1379 92.71416 91.30693 93.08852 90.1588 C 93.46288 89.01065 94.06325 87.15417 94.43762 85.9935 C 94.81198 84.83281 95.41234 82.96164 95.7867 81.79333 C 96.16107 80.62503 96.76141 78.74423 97.13579 77.57317 C 97.51015 76.4021 98.11052 74.52145 98.48488 73.35298 C 98.85925 72.18452 99.45961 70.31267 99.83397 69.15154 C 100.20833 67.99042 100.80869 66.13318 101.18306 64.98431 C 101.55742 63.83545 102.15779 62.00288 102.53215 60.8713 C 102.90651 59.73975 103.50687 57.93813 103.88124 56.82866 C 104.2556 55.71921 104.85596 53.9578 105.23032 52.87512 C 105.60469 51.79245 106.20506 50.07692 106.57942 49.02553 C 106.95378 47.97412 107.55414 46.3125 107.92851 45.29729 C 108.30287 44.28206 108.90323 42.6833 109.27759 41.7085 C 109.65195 40.73367 110.2523 39.20207 110.62668 38.27141 C 111.00104 37.34074 111.60141 35.88281 111.97577 35.00089 C 112.35014 34.11896 113.32486 31.915 113.32486 31.915 "/>
<path transform="matrix(1,0,0,-1,27.998,174.634)" stroke-width="1.19553" stroke-linecap="butt" stroke-dasharray="2.98883,2.98883" stroke-miterlimit="10" stroke-linejoin="miter" fill="none" stroke="#8080bf" d="M 32.3787 77.46988 C 32.3787 77.46988 32.86604 78.99428 33.05322 79.57964 C 33.24042 80.16498 33.5406 81.10411 33.72778 81.68875 C 33.91496 82.27339 34.21516 83.21024 34.40234 83.79337 C 34.58952 84.37648 34.88972 85.31062 35.0769 85.8915 C 35.26408 86.47235 35.56427 87.40195 35.75146 87.97995 C 35.93864 88.55797 36.23882 89.48291 36.426 90.05742 C 36.61317 90.63194 36.91338 91.55016 37.10056 92.12073 C 37.28773 92.6913 37.58794 93.6039 37.77512 94.1698 C 37.9623 94.73572 38.2625 95.63887 38.44968 96.19951 C 38.63686 96.76015 38.93704 97.65578 39.12424 98.21051 C 39.31142 98.76523 39.61159 99.6495 39.79877 100.1976 C 39.98595 100.7457 40.28615 101.61954 40.47333 102.16081 C 40.6605 102.7021 40.96071 103.5651 41.14789 104.09885 C 41.33507 104.63261 41.63527 105.48233 41.82245 106.00784 C 42.00963 106.53336 42.30981 107.36957 42.497 107.88649 C 42.68419 108.4034 42.98436 109.22607 43.17154 109.73349 C 43.35872 110.24092 43.65892 111.04623 43.8461 111.54372 C 44.03328 112.0412 44.33348 112.83199 44.52066 113.31906 C 44.70784 113.80615 45.00803 114.57823 45.19522 115.05438 C 45.3824 115.53055 45.68259 116.2861 45.86977 116.75098 C 46.05696 117.21585 46.35713 117.95192 46.54431 118.40497 C 46.73149 118.85802 47.0317 119.57555 47.21887 120.01633 C 47.40605 120.4571 47.70625 121.15388 47.89343 121.58188 C 48.08061 122.00986 48.568 123.10094 48.568 123.10094 "/>
<path transform="matrix(1,0,0,-1,27.998,174.634)" stroke-width="1.19553" stroke-linecap="butt" stroke-dasharray="2.98883,2.98883" stroke-miterlimit="10" stroke-linejoin="miter" fill="none" stroke="#8080bf" d="M 145.70412 31.69485 C 145.70412 31.69485 146.19147 32.78148 146.37866 33.2081 C 146.56584 33.63474 146.86603 34.33032 147.0532 34.76976 C 147.2404 35.2092 147.54059 35.9237 147.72777 36.37534 C 147.91495 36.82695 148.21515 37.56108 148.40233 38.0248 C 148.58951 38.4885 148.88971 39.24232 149.07689 39.7175 C 149.26407 40.19269 149.56424 40.96358 149.75144 41.4496 C 149.93862 41.93562 150.2388 42.72377 150.42598 43.22044 C 150.61318 43.71713 150.91336 44.52264 151.10054 45.02936 C 151.28772 45.53607 151.58792 46.35675 151.7751 46.87251 C 151.96228 47.38828 152.26248 48.22191 152.44966 48.74663 C 152.63684 49.27133 152.93701 50.12119 153.1242 50.65433 C 153.31139 51.18745 153.61157 52.04875 153.79875 52.58914 C 153.98595 53.12952 154.28614 54.00183 154.47332 54.54912 C 154.66049 55.0964 154.9607 55.97945 155.14788 56.53365 C 155.33506 57.08783 155.63526 57.98308 155.82244 58.54335 C 156.00962 59.1036 156.30979 60.00629 156.49698 60.57176 C 156.68416 61.13722 156.98435 62.04869 157.17153 62.6189 C 157.3587 63.18912 157.6589 64.10721 157.84609 64.68153 C 158.03327 65.25587 158.33347 66.18073 158.52065 66.75838 C 158.70783 67.33601 159.00803 68.26447 159.1952 68.8449 C 159.38239 69.42531 159.68256 70.359 159.86975 70.94174 C 160.05693 71.52449 160.35712 72.4606 160.5443 73.04506 C 160.73148 73.62952 161.03168 74.56883 161.21886 75.15417 C 161.40604 75.73953 161.89342 77.26395 161.89342 77.26395 "/>
</g>
<path transform="matrix(1,0,0,-1,27.998,174.634)" stroke-width="1" stroke-linecap="butt" stroke-miterlimit="10" stroke-linejoin="miter" fill="none" stroke="#808080" d="M 32.3787 -2.12604 L 32.3787 2.12604 M 64.75739 -2.12604 L 64.75739 2.12604 M 129.51477 -2.12604 L 129.51477 2.12604 M 161.89347 -2.12604 L 161.89347 2.12604 "/>
<path transform="matrix(1,0,0,-1,27.998,174.634)" stroke-width="1" stroke-linecap="butt" stroke-miterlimit="10" stroke-linejoin="miter" fill="none" stroke="#808080" d="M -2.12587 12.91164 L 2.12587 12.91164 M -2.12587 142.02812 L 2.12587 142.02812 "/>
<path transform="matrix(1,0,0,-1,27.998,174.634)" stroke-width="1" stroke-linecap="butt" stroke-miterlimit="10" stroke-linejoin="miter" fill="none" stroke="#000000" d="M 0 0 L 192.27964 0 "/>
<path transform="matrix(1,0,0,-1,220.27764,174.634)" d="M 1.99252 0 L -1.19551 1.59401 L 0 0 L -1.19551 -1.59401 "/>
<path transform="matrix(1,0,0,-1,27.998,174.634)" stroke-width="1" stroke-linecap="butt" stroke-miterlimit="10" stroke-linejoin="miter" fill="none" stroke="#000000" d="M 0 0 L 0 159.40308 "/>
<path transform="matrix(0,-1,-1,-0,27.998,15.2309269)" d="M 1.99252 0 L -1.19551 1.59401 L 0 0 L -1.19551 -1.59401 "/>
<symbol id="font_1_1">
<path d="M .33300004 .38900004 C .31500004 .42600004 .286 .45300005 .24100001 .45300005 C .124 .45300005 0 .30600003 0 .16000001 C 0 .06600001 .055000005 0 .133 0 C .153 0 .20300001 .0040000008 .263 .075 C .27100004 .033000005 .30600003 0 .35400004 0 C .38900004 0 .41200004 .023000002 .42800004 .055000005 C .44500003 .091000009 .45800004 .15200001 .45800004 .15400002 C .45800004 .16400002 .44900004 .16400002 .44600005 .16400002 C .43600003 .16400002 .43500004 .16000001 .43200005 .14600002 C .41500003 .081 .397 .022000002 .35600005 .022000002 C .32900004 .022000002 .32600004 .048 .32600004 .068 C .32600004 .09 .32800005 .098000008 .33900003 .14200002 C .35000003 .18400002 .35200004 .19400002 .36100004 .23200003 L .397 .37200005 C .40400005 .40000005 .40400005 .40200005 .40400005 .40600003 C .40400005 .42300005 .39200003 .43300004 .37500004 .43300004 C .35100005 .43300004 .33600004 .411 .33300004 .38900004 M .26800005 .13000001 C .263 .112 .263 .11000001 .24800001 .093 C .20400001 .038000004 .163 .022000002 .135 .022000002 C .08499999 .022000002 .07100001 .077 .07100001 .116000007 C .07100001 .16600001 .103 .28900004 .126 .335 C .157 .39400003 .202 .43100003 .242 .43100003 C .307 .43100003 .32100005 .34900005 .32100005 .34300003 C .32100005 .337 .31900005 .33100004 .31800003 .32600004 L .26800005 .13000001 Z "/>
</symbol>
<use xlink:href="#font_1_1" transform="matrix(9.9626,0,0,-9.9626,58.141504,184.7526)"/>
<symbol id="font_1_3">
<path d="M .35500003 .39100004 C .33900003 .39100004 .32500003 .39100004 .31100003 .37700004 C .29500003 .36200003 .293 .34500004 .293 .33800004 C .293 .314 .31100003 .30300004 .33 .30300004 C .359 .30300004 .386 .32700003 .386 .367 C .386 .41600005 .33900003 .45300005 .268 .45300005 C .13300002 .45300005 0 .31000004 0 .16900002 C 0 .079 .058000007 0 .162 0 C .305 0 .389 .106000009 .389 .11800001 C .389 .124000009 .38300003 .13100001 .377 .13100001 C .372 .13100001 .37 .12900001 .36400003 .12100001 C .285 .022000002 .176 .022000002 .164 .022000002 C .101 .022000002 .074 .071 .074 .13100001 C .074 .17200002 .094000007 .26900003 .12800002 .33100004 C .15900001 .388 .21400002 .43100003 .269 .43100003 C .303 .43100003 .34100003 .418 .35500003 .39100004 Z "/>
</symbol>
<use xlink:href="#font_1_3" transform="matrix(9.9626,0,0,-9.9626,91.00747,184.7526)"/>
<symbol id="font_1_4">
<path d="M .47600005 .694 C .47600005 .695 .47600005 .705 .46300004 .705 C .44800005 .705 .35300002 .69600006 .33600004 .694 C .32800005 .693 .32200004 .688 .32200004 .675 C .32200004 .663 .33100004 .663 .34600003 .663 C .39400003 .663 .39600004 .656 .39600004 .646 L .39300005 .626 L .33300004 .38900004 C .31500004 .42600004 .286 .45300005 .24100001 .45300005 C .124 .45300005 0 .30600003 0 .16000001 C 0 .06600001 .055000005 0 .133 0 C .153 0 .20300001 .0040000008 .263 .075 C .27100004 .033000005 .30600003 0 .35400004 0 C .38900004 0 .41200004 .023000002 .42800004 .055000005 C .44500003 .091000009 .45800004 .15200001 .45800004 .15400002 C .45800004 .16400002 .44900004 .16400002 .44600005 .16400002 C .43600003 .16400002 .43500004 .16000001 .43200005 .14600002 C .41500003 .081 .397 .022000002 .35600005 .022000002 C .32900004 .022000002 .32600004 .048 .32600004 .068 C .32600004 .092 .32800005 .09900001 .33200003 .116000007 L .47600005 .694 M .26800005 .13000001 C .263 .112 .263 .11000001 .24800001 .093 C .20400001 .038000004 .163 .022000002 .135 .022000002 C .08499999 .022000002 .07100001 .077 .07100001 .116000007 C .07100001 .16600001 .103 .28900004 .126 .335 C .157 .39400003 .202 .43100003 .242 .43100003 C .307 .43100003 .32100005 .34900005 .32100005 .34300003 C .32100005 .337 .31900005 .33100004 .31800003 .32600004 L .26800005 .13000001 Z "/>
</symbol>
<use xlink:href="#font_1_4" transform="matrix(9.9626,0,0,-9.9626,155.3165,187.38159)"/>
<symbol id="font_1_2">
<path d="M .192 .694 C .192 .695 .192 .705 .179 .705 C .156 .705 .083000008 .697 .057 .695 C .049 .694 .038 .693 .038 .675 C .038 .663 .047000003 .663 .062000004 .663 C .11 .663 .112 .656 .112 .646 C .112 .639 .103 .605 .098000008 .584 L .015999999 .25800003 C .0040000008 .20800002 0 .19200002 0 .15700002 C 0 .062000004 .053 0 .127 0 C .24500002 0 .36800004 .14900002 .36800004 .293 C .36800004 .38400004 .31500004 .45300005 .235 .45300005 C .18900001 .45300005 .148 .42400003 .118 .39300005 L .192 .694 M .098000008 .316 C .104 .33800004 .104 .34000004 .113000009 .351 C .162 .41600005 .207 .43100003 .233 .43100003 C .26900003 .43100003 .29600004 .40100003 .29600004 .337 C .29600004 .27800004 .263 .16300002 .24500002 .12500002 C .212 .058000003 .16600001 .022000002 .127 .022000002 C .092999998 .022000002 .060000007 .049000004 .060000007 .123 C .060000007 .14200002 .060000007 .16100002 .076000008 .22400002 L .098000008 .316 Z "/>
</symbol>
<use xlink:href="#font_1_2" transform="matrix(9.9626,0,0,-9.9626,188.21926,187.38159)"/>
<symbol id="font_1_5">
<path d="M .314 .605 L .4 .605 C .42000003 .605 .43 .605 .43 .625 C .43 .63600006 .42000003 .63600006 .40300004 .63600006 L .32000003 .63600006 L .34100003 .75 C .34500004 .771 .35900004 .842 .365 .8540001 C .374 .873 .39100004 .888 .41200004 .888 C .416 .888 .44200004 .888 .461 .87 C .41700004 .86600008 .407 .8310001 .407 .816 C .407 .793 .425 .781 .444 .781 C .47 .781 .49900005 .8030001 .49900005 .8410001 C .49900005 .8870001 .45300005 .9100001 .41200004 .9100001 C .37800003 .9100001 .31500004 .8920001 .28500004 .793 C .279 .7720001 .27600003 .7620001 .252 .63600006 L .18300002 .63600006 C .164 .63600006 .15300001 .63600006 .15300001 .61700007 C .15300001 .605 .162 .605 .18100001 .605 L .24700001 .605 L .172 .21000001 C .15400002 .113000009 .13700001 .022 .08500001 .022 C .081 .022 .056 .022 .037 .040000008 C .083000008 .043000014 .09200001 .07900001 .09200001 .094000007 C .09200001 .117000009 .074 .12900001 .055 .12900001 C .029 .12900001 0 .10700001 0 .069000009 C 0 .024000004 .044 0 .08500001 0 C .14 0 .18 .059 .19800002 .09700001 C .23000002 .16000001 .25300003 .28100003 .254 .28800003 L .314 .605 Z "/>
</symbol>
<use xlink:href="#font_1_5" transform="matrix(9.9626,0,0,-9.9626,3.9220169,166.25533)"/>
<symbol id="font_2_1">
<path d="M .23200003 .00999999 C .23200003 .012999982 .23200003 .014999986 .215 .03199999 C .09 .15799999 .058 .347 .058 .5 C .058 .674 .096 .84800007 .21900001 .97300007 C .23200003 .985 .23200003 .98700007 .23200003 .99 C .23200003 .99700006 .22800002 1 .222 1 C .21200001 1 .12200001 .93200007 .06299999 .805 C .012000002 .69500008 0 .584 0 .5 C 0 .422 .011 .301 .066 .188 C .126 .065 .21200001 0 .222 0 C .22800002 0 .23200003 .0029999912 .23200003 .00999999 Z "/>
</symbol>
<use xlink:href="#font_2_1" transform="matrix(9.9626,0,0,-9.9626,10.3302969,166.70365)"/>
<use xlink:href="#font_1_4" transform="matrix(9.9626,0,0,-9.9626,13.617503,164.32259)"/>
<symbol id="font_2_2">
<path d="M .232 .5 C .232 .578 .22100002 .699 .16600001 .81200006 C .106 .93500009 .020000004 1 .009999998 1 C .0040000008 1 0 .99600008 0 .99 C 0 .98700007 0 .985 .019000002 .967 C .117000009 .86800006 .174 .709 .174 .5 C .174 .329 .137 .153 .012999997 .026999996 C 0 .014999986 0 .012999982 0 .00999999 C 0 .003999993 .0040000008 0 .009999998 0 C .020000004 0 .11000001 .06799999 .169 .195 C .22 .305 .232 .416 .232 .5 Z "/>
</symbol>
<use xlink:href="#font_2_2" transform="matrix(9.9626,0,0,-9.9626,18.971867,166.70365)"/>
<use xlink:href="#font_1_5" transform="matrix(9.9626,0,0,-9.9626,4.7960178,37.14034)"/>
<use xlink:href="#font_2_1" transform="matrix(9.9626,0,0,-9.9626,11.204298,37.588659)"/>
<use xlink:href="#font_1_3" transform="matrix(9.9626,0,0,-9.9626,14.501467,35.207597)"/>
<use xlink:href="#font_2_2" transform="matrix(9.9626,0,0,-9.9626,18.971867,37.588659)"/>
<path transform="matrix(1,0,0,-1,27.998,174.634)" d="M 66.74994 142.02812 C 66.74994 143.1286 65.85785 144.02068 64.75739 144.02068 C 63.6569 144.02068 62.76483 143.1286 62.76483 142.02812 C 62.76483 140.92766 63.6569 140.03557 64.75739 140.03557 C 65.85785 140.03557 66.74994 140.92766 66.74994 142.02812 Z M 64.75739 142.02812 " fill="#000080"/>
<path transform="matrix(1,0,0,-1,27.998,174.634)" stroke-width="1" stroke-linecap="butt" stroke-miterlimit="10" stroke-linejoin="miter" fill="none" stroke="#000080" d="M 66.74994 142.02812 C 66.74994 143.1286 65.85785 144.02068 64.75739 144.02068 C 63.6569 144.02068 62.76483 143.1286 62.76483 142.02812 C 62.76483 140.92766 63.6569 140.03557 64.75739 140.03557 C 65.85785 140.03557 66.74994 140.92766 66.74994 142.02812 Z M 64.75739 142.02812 "/>
<path transform="matrix(1,0,0,-1,27.998,174.634)" d="M 131.50733 12.91164 C 131.50733 14.01212 130.61524 14.90419 129.51477 14.90419 C 128.41429 14.90419 127.52222 14.01212 127.52222 12.91164 C 127.52222 11.81117 128.41429 10.91908 129.51477 10.91908 C 130.61524 10.91908 131.50733 11.81117 131.50733 12.91164 Z M 129.51477 12.91164 " fill="#000080"/>
<path transform="matrix(1,0,0,-1,27.998,174.634)" stroke-width="1" stroke-linecap="butt" stroke-miterlimit="10" stroke-linejoin="miter" fill="none" stroke="#000080" d="M 131.50733 12.91164 C 131.50733 14.01212 130.61524 14.90419 129.51477 14.90419 C 128.41429 14.90419 127.52222 14.01212 127.52222 12.91164 C 127.52222 11.81117 128.41429 10.91908 129.51477 10.91908 C 130.61524 10.91908 131.50733 11.81117 131.50733 12.91164 Z M 129.51477 12.91164 "/>
<symbol id="font_1_6">
<path d="M .305 .31300003 C .311 .33900003 .334 .43100003 .404 .43100003 C .409 .43100003 .433 .43100003 .454 .418 C .426 .41300003 .40600003 .388 .40600003 .36400003 C .40600003 .34800003 .417 .32900004 .444 .32900004 C .46600003 .32900004 .498 .34700004 .498 .38700003 C .498 .43900005 .439 .45300005 .405 .45300005 C .347 .45300005 .312 .40000005 .3 .37700004 C .275 .44300003 .221 .45300005 .19200002 .45300005 C .08800001 .45300005 .031000002 .32400004 .031000002 .29900003 C .031000002 .28900004 .041 .28900004 .043000007 .28900004 C .051000008 .28900004 .054000006 .291 .056 .3 C .09 .40600003 .156 .43100003 .19000001 .43100003 C .209 .43100003 .244 .42200003 .244 .36400003 C .244 .33300004 .22700002 .26600004 .19000001 .126 C .17400001 .064 .13900002 .022000002 .095000009 .022000002 C .08900001 .022000002 .06600001 .022000002 .045 .035 C .07000001 .040000004 .09200001 .061 .09200001 .089 C .09200001 .116000007 .07000001 .124000009 .055000009 .124000009 C .025 .124000009 0 .098000008 0 .06600001 C 0 .020000002 .050000006 0 .094000007 0 C .16000001 0 .19600001 .07000001 .19900002 .076000008 C .21100001 .039 .24700003 0 .307 0 C .41 0 .467 .12900001 .467 .15400002 C .467 .16400002 .458 .16400002 .455 .16400002 C .446 .16400002 .444 .16000001 .442 .15300001 C .409 .046 .341 .022000002 .30900003 .022000002 C .27 .022000002 .254 .054 .254 .08800001 C .254 .11000001 .26 .13200002 .271 .17600002 L .305 .31300003 Z "/>
</symbol>
<use xlink:href="#font_1_6" transform="matrix(9.9626,0,0,-9.9626,226.18392,176.88759)"/>
<symbol id="font_1_7">
<path d="M .45700003 .586 C .461 .6 .461 .602 .461 .609 C .461 .62700006 .447 .63600006 .432 .63600006 C .42200003 .63600006 .40600003 .63 .397 .615 C .395 .61 .387 .579 .38300003 .561 C .37600003 .535 .36900003 .508 .363 .48100005 L .318 .301 C .314 .286 .271 .21600002 .20500002 .21600002 C .15400002 .21600002 .143 .26000003 .143 .29700003 C .143 .34300003 .16000001 .40500004 .194 .49300004 C .21000001 .53400006 .21400002 .545 .21400002 .56500008 C .21400002 .61 .18200001 .6470001 .13200002 .6470001 C .037 .6470001 0 .50200006 0 .49300004 C 0 .48300005 .01 .48300005 .012 .48300005 C .022000002 .48300005 .023 .485 .028000003 .50100007 C .055000009 .595 .095000009 .625 .12900001 .625 C .13700001 .625 .15400002 .625 .15400002 .59300008 C .15400002 .568 .14400001 .54200008 .13700001 .523 C .097 .41700004 .079 .36 .079 .31300003 C .079 .224 .142 .194 .201 .194 C .24000003 .194 .274 .21100001 .30200003 .23900002 C .289 .187 .277 .13800001 .237 .08500001 C .21100001 .051 .17300001 .022 .127 .022 C .113000009 .022 .068 .025000006 .051000008 .06400001 C .067 .06400001 .080000009 .06400001 .094000007 .076000008 C .104 .08500001 .11400001 .098000008 .11400001 .117000009 C .11400001 .148 .087000008 .15200001 .07700001 .15200001 C .054000006 .15200001 .021 .136 .021 .087000008 C .021 .037 .065000008 0 .127 0 C .23 0 .333 .091000009 .361 .20400001 L .45700003 .586 Z "/>
</symbol>
<use xlink:href="#font_1_7" transform="matrix(9.9626,0,0,-9.9626,25.665915,9.726339)"/>
</svg>
