<?xml version="1.0" encoding="UTF-8" standalone="no"?>
<!DOCTYPE svg PUBLIC "-//W3C//DTD SVG 1.1//EN" "http://www.w3.org/Graphics/SVG/1.1/DTD/svg11.dtd">
<svg xmlns="http://www.w3.org/2000/svg" xmlns:xlink="http://www.w3.org/1999/xlink" version="1.1" width="209.674pt" height="172.963pt" viewBox="0 0 209.674 172.963">
<path transform="matrix(1,0,0,-1,3.868,172.76399)" stroke-width="1" stroke-linecap="butt" stroke-miterlimit="10" stroke-linejoin="miter" fill="none" stroke="#808080" d="M 97.13562 99.45526 L 97.13562 102.29018 "/>
<path transform="matrix(1,0,0,-1,3.868,172.76399)" stroke-width="1" stroke-linecap="butt" stroke-miterlimit="10" stroke-linejoin="miter" fill="none" stroke="#808080" d="M 4.6255 98.74673 L 4.6255 102.99869 M 189.64574 98.74673 L 189.64574 102.99869 "/>
<path transform="matrix(1,0,0,-1,3.868,172.76399)" stroke-width="1" stroke-linecap="butt" stroke-miterlimit="10" stroke-linejoin="miter" fill="none" stroke="#808080" d="M 95.00974 20.17455 L 99.26147 20.17455 M 95.00974 60.52364 L 99.26147 60.52364 M 95.00974 141.22182 L 99.26147 141.22182 "/>
<path transform="matrix(1,0,0,-1,3.868,172.76399)" stroke-width="1" stroke-linecap="butt" stroke-miterlimit="10" stroke-linejoin="miter" fill="none" stroke="#000000" d="M 0 100.87273 L 192.27872 100.87273 "/>
<path transform="matrix(1,0,0,-1,196.14672,71.891269)" d="M 1.99252 0 L -1.19551 1.59401 L 0 0 L -1.19551 -1.59401 "/>
<path transform="matrix(1,0,0,-1,3.868,172.76399)" stroke-width="1" stroke-linecap="butt" stroke-miterlimit="10" stroke-linejoin="miter" fill="none" stroke="#000000" d="M 97.13562 0 L 97.13562 159.40384 "/>
<path transform="matrix(0,-1,-1,-0,101.00362,13.360153)" d="M 1.99252 0 L -1.19551 1.59401 L 0 0 L -1.19551 -1.59401 "/>
<symbol id="font_0_1">
<path d="M .63600006 0 C .65200009 0 .67600008 0 .67600008 .023999989 C .67600008 .048999996 .65300008 .048999996 .63600006 .048999996 L .04 .048999996 C .023999997 .048999996 0 .048999996 0 .025000006 C 0 0 .02300001 0 .04 0 L .63600006 0 Z "/>
</symbol>
<use xlink:href="#font_0_1" transform="matrix(6.9738,0,0,-6.9738,4.1471707,80.529918)"/>
<symbol id="font_1_5">
<path d="M .442 .18200001 L .40800003 .18200001 C .40500004 .16000001 .39500005 .101 .38200004 .091000009 C .374 .085 .29700003 .085 .28300003 .085 L .099 .085 C .20400003 .178 .23900002 .20600002 .29900003 .25300003 C .37300004 .312 .442 .374 .442 .469 C .442 .59000006 .33600004 .66400006 .20800004 .66400006 C .084 .66400006 0 .577 0 .485 C 0 .43400003 .043000007 .42900003 .053000004 .42900003 C .077 .42900003 .10600001 .446 .10600001 .48200003 C .10600001 .5 .099 .535 .047000007 .535 C .078 .606 .146 .628 .19300002 .628 C .293 .628 .34500004 .55 .34500004 .469 C .34500004 .38200004 .28300003 .31300003 .25100003 .277 L .010000005 .039 C 0 .030000002 0 .028 0 0 L .41200004 0 L .442 .18200001 Z "/>
</symbol>
<use xlink:href="#font_1_5" transform="matrix(6.9738,0,0,-6.9738,10.060349,82.105998)"/>
<use xlink:href="#font_1_5" transform="matrix(6.9738,0,0,-6.9738,191.96434,82.105998)"/>
<use xlink:href="#font_0_1" transform="matrix(6.9738,0,0,-6.9738,85.83818,152.84491)"/>
<use xlink:href="#font_1_5" transform="matrix(6.9738,0,0,-6.9738,91.75135,154.42099)"/>
<use xlink:href="#font_0_1" transform="matrix(6.9738,0,0,-6.9738,85.83818,112.4969)"/>
<symbol id="font_1_4">
<path d="M .22600001 .63600006 C .22600001 .66300007 .224 .66400006 .19600001 .66400006 C .132 .601 .041 .6 0 .6 L 0 .564 C .023999997 .564 .09000001 .564 .14500001 .592 L .14500001 .082 C .14500001 .049000004 .14500001 .036000004 .04500001 .036000004 L .0069999995 .036000004 L .0069999995 0 C .024999999 .001 .148 .004 .185 .004 C .21600002 .004 .34200005 .001 .36400003 0 L .36400003 .036000004 L .32600004 .036000004 C .22600001 .036000004 .22600001 .049000004 .22600001 .082 L .22600001 .63600006 Z "/>
</symbol>
<use xlink:href="#font_1_4" transform="matrix(6.9738,0,0,-6.9738,92.07215,114.07298)"/>
<use xlink:href="#font_1_4" transform="matrix(6.9738,0,0,-6.9738,92.07214,33.790987)"/>
<path transform="matrix(1,0,0,-1,3.868,172.76399)" stroke-width="1" stroke-linecap="butt" stroke-miterlimit="10" stroke-linejoin="miter" fill="none" stroke="#808080" d="M 50.88055 98.74673 L 50.88055 102.99869 M 143.39067 98.74673 L 143.39067 102.99869 "/>
<use xlink:href="#font_0_1" transform="matrix(6.9738,0,0,-6.9738,50.40217,80.529918)"/>
<use xlink:href="#font_1_4" transform="matrix(6.9738,0,0,-6.9738,56.635145,82.105998)"/>
<use xlink:href="#font_1_4" transform="matrix(6.9738,0,0,-6.9738,146.03115,82.105998)"/>
<clipPath id="cp2">
<path transform="matrix(1,0,0,-1,3.868,172.76399)" d="M 0 0 L 194.27124 0 L 194.27124 161.39636 L 0 161.39636 Z "/>
</clipPath>
<g clip-path="url(#cp2)">
<path transform="matrix(1,0,0,-1,3.868,172.76399)" stroke-width="1" stroke-linecap="butt" stroke-miterlimit="10" stroke-linejoin="miter" fill="none" stroke="#000080" d="M 50.88055 20.17455 L 97.13562 141.22182 L 189.64574 20.17455 L 50.88055 20.17455 "/>
<symbol id="font_3_3">
<path d="M .50900009 .58100005 C .513 .595 .513 .597 .513 .60300007 C .513 .623 .49700005 .63500007 .48000003 .63500007 C .46900005 .63500007 .45000003 .63000008 .43900005 .611 C .43600003 .605 .42800004 .573 .42300005 .55300006 L .40200005 .47000004 C .39600004 .44600005 .36500005 .32000003 .36200003 .30900003 C .36100004 .30900003 .31700004 .22200002 .23900001 .22200002 C .171 .22200002 .171 .287 .171 .305 C .171 .35900004 .194 .42200003 .22400002 .499 C .23600002 .531 .24100001 .54300007 .24100001 .56 C .24100001 .60800006 .2 .64500007 .146 .64500007 C .045000007 .64500007 0 .509 0 .49200005 C 0 .47900004 .014000002 .47900004 .017 .47900004 C .031 .47900004 .032 .48400004 .035 .495 C .060000007 .578 .103 .61700007 .143 .61700007 C .16000001 .61700007 .168 .606 .168 .582 C .168 .559 .15900001 .537 .154 .52400007 C .106000009 .402 .096 .365 .096 .321 C .096 .30400003 .096 .25700004 .135 .22500001 C .16600001 .19900002 .20800002 .194 .235 .194 C .27500005 .194 .31100003 .209 .34400005 .23900001 C .33100004 .18400002 .32000003 .142 .27800004 .09200001 C .25100003 .061000006 .21100001 .027999998 .158 .027999998 C .15100001 .027999998 .104 .027999998 .083000008 .061000006 C .13700001 .067 .13700001 .11500001 .13700001 .116000007 C .13700001 .148 .107999999 .15400002 .098000008 .15400002 C .073 .15400002 .040000004 .134 .040000004 .08800001 C .040000004 .037 .088 0 .15900001 0 C .26000003 0 .38300003 .07800001 .41400004 .20300001 L .50900009 .58100005 Z "/>
</symbol>
<use xlink:href="#font_3_3" transform="matrix(2.491181,-6.518969,-6.518969,-2.491181,53.99795,144.1048)"/>
<symbol id="font_1_7">
<path d="M .698 .22000003 C .71300008 .22000003 .73600009 .22000003 .73600009 .24500004 C .73600009 .26900003 .7120001 .26900003 .69900009 .26900003 L .037000009 .26900003 C .024000004 .26900003 0 .26900003 0 .24500004 C 0 .22000003 .023000002 .22000003 .038000004 .22000003 L .698 .22000003 M .69900009 0 C .7120001 0 .73600009 0 .73600009 .023999997 C .73600009 .049000004 .71300008 .049000004 .698 .049000004 L .038000004 .049000004 C .023000002 .049000004 0 .049000004 0 .023999997 C 0 0 .024000004 0 .037000009 0 L .69900009 0 Z "/>
</symbol>
<symbol id="font_1_6">
<path d="M .219 .35400004 C .29700003 .35400004 .35300002 .3 .35300002 .193 C .35300002 .069000009 .28100003 .032 .223 .032 C .18300002 .032 .095 .043000007 .053000008 .102000009 C .10000001 .10400001 .111 .13700001 .111 .158 C .111 .19 .087 .213 .056000007 .213 C .028 .213 0 .19600001 0 .155 C 0 .061000006 .104 0 .22500001 0 C .36400003 0 .46 .09300001 .46 .193 C .46 .27100004 .39600004 .34900005 .286 .37200005 C .39100004 .41000004 .42900003 .48500005 .42900003 .546 C .42900003 .625 .33800004 .684 .22700002 .684 C .116 .684 .031 .63 .031 .55 C .031 .51600006 .053000008 .49700005 .083000008 .49700005 C .11400001 .49700005 .134 .52 .134 .548 C .134 .577 .11400001 .598 .083000008 .6 C .118 .644 .187 .65500006 .22400002 .65500006 C .26900003 .65500006 .33200003 .633 .33200003 .546 C .33200003 .504 .31800003 .45800004 .29200004 .42700003 C .25900004 .38900004 .23100002 .38700003 .18100001 .38400004 C .156 .38200004 .154 .38200004 .149 .38100005 C .147 .38100005 .139 .37900005 .139 .36800004 C .139 .35400004 .148 .35400004 .165 .35400004 L .219 .35400004 Z "/>
</symbol>
<use xlink:href="#font_1_7" transform="matrix(2.491181,-6.518969,-6.518969,-2.491181,54.31183,137.0274)"/>
<use xlink:href="#font_1_6" transform="matrix(2.491181,-6.518969,-6.518969,-2.491181,58.15295,129.63469)"/>
<symbol id="font_3_2">
<path d="M .201 .116000007 C .19100002 .082 .15800002 .028 .107 .028 C .10400001 .028 .07400001 .028 .053000004 .042000005 C .094000007 .055000005 .09700001 .091 .09700001 .097 C .09700001 .119 .080000009 .134 .057000005 .134 C .029000007 .134 0 .11 0 .073 C 0 .023000002 .056 0 .10500001 0 C .15100003 0 .192 .029000003 .21700001 .071 C .241 .018000002 .296 0 .336 0 C .451 0 .512 .125 .512 .15300001 C .512 .16600001 .49900005 .16600001 .49600003 .16600001 C .48200003 .16600001 .48100005 .16100002 .47700004 .14900002 C .456 .08 .39600004 .028 .34 .028 C .3 .028 .279 .055000005 .279 .093 C .279 .119 .303 .21000001 .331 .321 C .351 .398 .39600004 .423 .42900003 .423 C .43100003 .423 .46200005 .423 .483 .409 C .451 .4 .439 .372 .439 .354 C .439 .33200003 .456 .317 .479 .317 C .50200006 .317 .535 .336 .535 .37800003 C .535 .43400003 .47100006 .451 .43100003 .451 C .381 .451 .34100003 .418 .319 .38 C .301 .421 .255 .451 .199 .451 C .087000008 .451 .023000002 .328 .023000002 .298 C .023000002 .285 .037 .285 .040000008 .285 C .053000004 .285 .054000006 .289 .059000009 .30200003 C .084 .38 .14700002 .423 .19600001 .423 C .229 .423 .256 .405 .256 .357 C .256 .337 .24400002 .287 .23500002 .25300003 L .201 .116000007 Z "/>
</symbol>
<use xlink:href="#font_3_2" transform="matrix(2.491181,-6.518969,-6.518969,-2.491181,59.491865,125.93549)"/>
<symbol id="font_1_3">
<path d="M .39300005 .344 L .69900009 .344 C .7120001 .344 .73600009 .344 .73600009 .368 C .73600009 .393 .71300008 .393 .69900009 .393 L .39300005 .393 L .39300005 .70000007 C .39300005 .71300008 .39300005 .73700007 .36900003 .73700007 C .34400005 .73700007 .34400005 .71400007 .34400005 .70000007 L .34400005 .393 L .037000009 .393 C .024000004 .393 0 .393 0 .36900003 C 0 .344 .023000002 .344 .037000009 .344 L .34400005 .344 L .34400005 .037000009 C .34400005 .024000004 .34400005 0 .36800004 0 C .39300005 0 .39300005 .023000002 .39300005 .037000009 L .39300005 .344 Z "/>
</symbol>
<use xlink:href="#font_1_3" transform="matrix(2.491181,-6.518969,-6.518969,-2.491181,62.512639,120.1421)"/>
<use xlink:href="#font_1_4" transform="matrix(2.491181,-6.518969,-6.518969,-2.491181,64.67303,112.18183)"/>
<use xlink:href="#font_3_3" transform="matrix(4.2435576,5.5522606,5.5522606,-4.2435576,130.8498,87.83863)"/>
<symbol id="font_1_1">
<path d="M .24000001 .9990001 C .050000006 .86500009 0 .653 0 .5 C 0 .35900004 .042000005 .14000002 .24000001 0 C .248 0 .26000003 0 .26000003 .0119999949 C .26000003 .018000007 .257 .019999996 .25 .026999996 C .117000009 .14700002 .06800001 .31700004 .06800001 .499 C .06800001 .76900008 .171 .901 .25300003 .975 C .257 .97900006 .26000003 .98200008 .26000003 .98700007 C .26000003 .9990001 .248 .9990001 .24000001 .9990001 Z "/>
</symbol>
<use xlink:href="#font_1_7" transform="matrix(4.2435576,5.5522606,5.5522606,-4.2435576,136.71527,91.830417)"/>
<use xlink:href="#font_1_1" transform="matrix(4.2435576,5.5522606,5.5522606,-4.2435576,139.98041,100.30298)"/>
<use xlink:href="#font_0_1" transform="matrix(4.2435576,5.5522606,5.5522606,-4.2435576,144.48319,100.72806)"/>
<use xlink:href="#font_1_6" transform="matrix(4.2435576,5.5522606,5.5522606,-4.2435576,146.6767,106.42904)"/>
<symbol id="font_3_1">
<path d="M .42400003 .95600005 C .43 .96900007 .43 .971 .43 .975 C .43 .99100008 .417 1 .40600003 1 C .389 1 .384 .98800006 .379 .975 L .0059999974 .043999986 C 0 .030999989 0 .028999985 0 .024999991 C 0 .008999988 .012999997 0 .023999997 0 C .041 0 .045999998 .0119999949 .051 .024999991 L .42400003 .95600005 Z "/>
</symbol>
<use xlink:href="#font_3_1" transform="matrix(4.2435576,5.5522606,5.5522606,-4.2435576,147.91364,110.6943)"/>
<symbol id="font_1_2">
<path d="M .019000002 .9990001 C .012000002 .9990001 0 .9990001 0 .98700007 C 0 .98200008 .0029999987 .97900006 .009000003 .97200009 C .095000009 .89300009 .19100002 .758 .19100002 .5 C .19100002 .291 .12600002 .13300002 .018 .034999998 C .001000002 .018000007 0 .017000005 0 .0119999949 C 0 .0069999995 .0029999987 0 .013000004 0 C .024999999 0 .12000001 .066 .18599999 .19100002 C .23000002 .27400003 .259 .38200004 .259 .499 C .259 .64000007 .21700001 .859 .019000002 .9990001 Z "/>
</symbol>
<use xlink:href="#font_1_5" transform="matrix(4.2435576,5.5522606,5.5522606,-4.2435576,151.7262,112.80561)"/>
<use xlink:href="#font_1_2" transform="matrix(4.2435576,5.5522606,5.5522606,-4.2435576,152.79645,117.07146)"/>
<use xlink:href="#font_3_2" transform="matrix(4.2435576,5.5522606,5.5522606,-4.2435576,155.91823,118.405559)"/>
<use xlink:href="#font_1_3" transform="matrix(4.2435576,5.5522606,5.5522606,-4.2435576,159.26497,124.0273)"/>
<use xlink:href="#font_1_4" transform="matrix(4.2435576,5.5522606,5.5522606,-4.2435576,164.91057,130.05603)"/>
<use xlink:href="#font_3_3" transform="matrix(6.9738,0,0,-6.9738,111.88677,162.29865)"/>
<use xlink:href="#font_1_7" transform="matrix(6.9738,0,0,-6.9738,118.60617,160.06703)"/>
<use xlink:href="#font_0_1" transform="matrix(6.9738,0,0,-6.9738,127.25518,159.29991)"/>
<use xlink:href="#font_1_5" transform="matrix(6.9738,0,0,-6.9738,133.16735,160.87599)"/>
<path transform="matrix(1,0,0,-1,3.868,172.76399)" d="M 52.37497 20.17455 C 52.37497 20.99988 51.7059 21.66896 50.88055 21.66896 C 50.0552 21.66896 49.38614 20.99988 49.38614 20.17455 C 49.38614 19.3492 50.0552 18.68013 50.88055 18.68013 C 51.7059 18.68013 52.37497 19.3492 52.37497 20.17455 Z M 50.88055 20.17455 "/>
<path transform="matrix(1,0,0,-1,3.868,172.76399)" stroke-width="1" stroke-linecap="butt" stroke-miterlimit="10" stroke-linejoin="miter" fill="none" stroke="#000000" d="M 52.37497 20.17455 C 52.37497 20.99988 51.7059 21.66896 50.88055 21.66896 C 50.0552 21.66896 49.38614 20.99988 49.38614 20.17455 C 49.38614 19.3492 50.0552 18.68013 50.88055 18.68013 C 51.7059 18.68013 52.37497 19.3492 52.37497 20.17455 Z M 50.88055 20.17455 "/>
<path transform="matrix(1,0,0,-1,3.868,172.76399)" d="M 191.14015 20.17455 C 191.14015 20.99988 190.47109 21.66896 189.64574 21.66896 C 188.82039 21.66896 188.15132 20.99988 188.15132 20.17455 C 188.15132 19.3492 188.82039 18.68013 189.64574 18.68013 C 190.47109 18.68013 191.14015 19.3492 191.14015 20.17455 Z M 189.64574 20.17455 "/>
<path transform="matrix(1,0,0,-1,3.868,172.76399)" stroke-width="1" stroke-linecap="butt" stroke-miterlimit="10" stroke-linejoin="miter" fill="none" stroke="#000000" d="M 191.14015 20.17455 C 191.14015 20.99988 190.47109 21.66896 189.64574 21.66896 C 188.82039 21.66896 188.15132 20.99988 188.15132 20.17455 C 188.15132 19.3492 188.82039 18.68013 189.64574 18.68013 C 190.47109 18.68013 191.14015 19.3492 191.14015 20.17455 Z M 189.64574 20.17455 "/>
<path transform="matrix(1,0,0,-1,3.868,172.76399)" d="M 98.63004 141.22182 C 98.63004 142.04715 97.96097 142.71623 97.13562 142.71623 C 96.31027 142.71623 95.6412 142.04715 95.6412 141.22182 C 95.6412 140.39647 96.31027 139.7274 97.13562 139.7274 C 97.96097 139.7274 98.63004 140.39647 98.63004 141.22182 Z M 97.13562 141.22182 "/>
<path transform="matrix(1,0,0,-1,3.868,172.76399)" stroke-width="1" stroke-linecap="butt" stroke-miterlimit="10" stroke-linejoin="miter" fill="none" stroke="#000000" d="M 98.63004 141.22182 C 98.63004 142.04715 97.96097 142.71623 97.13562 142.71623 C 96.31027 142.71623 95.6412 142.04715 95.6412 141.22182 C 95.6412 140.39647 96.31027 139.7274 97.13562 139.7274 C 97.96097 139.7274 98.63004 140.39647 98.63004 141.22182 Z M 97.13562 141.22182 "/>
</g>
<use xlink:href="#font_3_2" transform="matrix(6.9738,0,0,-6.9738,202.09674,73.44772)"/>
<use xlink:href="#font_3_3" transform="matrix(6.9738,0,0,-6.9738,99.20377,7.819643)"/>
</svg>
