<?xml version="1.0" encoding="UTF-8" standalone="no"?>
<!DOCTYPE svg PUBLIC "-//W3C//DTD SVG 1.1//EN" "http://www.w3.org/Graphics/SVG/1.1/DTD/svg11.dtd">
<svg xmlns="http://www.w3.org/2000/svg" xmlns:xlink="http://www.w3.org/1999/xlink" version="1.1" width="1135.053pt" height="128.754pt" viewBox="0 0 1135.053 128.754">
<path transform="matrix(1,0,0,-1,822.645,128.15599)" d="M 0 0 L 0 85.04042 L 170.08086 85.04042 L 170.08086 0 Z M 170.08086 85.04042 " fill="#e6cccc"/>
<path transform="matrix(1,0,0,-1,822.645,128.15599)" stroke-width="1.19553" stroke-linecap="butt" stroke-miterlimit="10" stroke-linejoin="miter" fill="none" stroke="#000080" d="M 0 0 L 0 85.04042 L 170.08086 85.04042 L 170.08086 0 Z M 170.08086 85.04042 "/>
<path transform="matrix(1,0,0,-1,822.645,128.15599)" d="M -822.0575 0 L -822.0575 28.3468 L -311.8149 28.3468 L -311.8149 0 Z M -311.8149 28.3468 " fill="#e6cccc"/>
<path transform="matrix(1,0,0,-1,822.645,128.15599)" stroke-width="1.19553" stroke-linecap="butt" stroke-miterlimit="10" stroke-linejoin="miter" fill="none" stroke="#000080" d="M -822.0575 0 L -822.0575 28.3468 L -311.8149 28.3468 L -311.8149 0 Z M -311.8149 28.3468 "/>
<path transform="matrix(1,0,0,-1,822.645,128.15599)" d="M -283.4681 0 L -283.4681 56.69362 L -28.3468 56.69362 L -28.3468 0 Z M -28.3468 56.69362 " fill="#e6cccc"/>
<path transform="matrix(1,0,0,-1,822.645,128.15599)" stroke-width="1.19553" stroke-linecap="butt" stroke-miterlimit="10" stroke-linejoin="miter" fill="none" stroke="#000080" d="M -283.4681 0 L -283.4681 56.69362 L -28.3468 56.69362 L -28.3468 0 Z M -28.3468 56.69362 "/>
<path transform="matrix(1,0,0,-1,822.645,128.15599)" d="M 198.42766 0 L 198.42766 127.56062 L 311.8149 127.56062 L 311.8149 0 Z M 311.8149 127.56062 " fill="#e6cccc"/>
<path transform="matrix(1,0,0,-1,822.645,128.15599)" stroke-width="1.19553" stroke-linecap="butt" stroke-miterlimit="10" stroke-linejoin="miter" fill="none" stroke="#000080" d="M 198.42766 0 L 198.42766 127.56062 L 311.8149 127.56062 L 311.8149 0 Z M 311.8149 127.56062 "/>
</svg>
