<?xml version="1.0" encoding="UTF-8" standalone="no"?>
<!DOCTYPE svg PUBLIC "-//W3C//DTD SVG 1.1//EN" "http://www.w3.org/Graphics/SVG/1.1/DTD/svg11.dtd">
<svg xmlns="http://www.w3.org/2000/svg" xmlns:xlink="http://www.w3.org/1999/xlink" version="1.1" width="207.179pt" height="180.17pt" viewBox="0 0 207.179 180.17">
<clipPath id="cp0">
<path transform="matrix(1,0,0,-1,.199,174.631)" d="M 0 0 L 194.26912 0 L 194.26912 161.39575 L 0 161.39575 Z "/>
</clipPath>
<g clip-path="url(#cp0)">
<path transform="matrix(1,0,0,-1,.199,174.631)" d="M 60.70909 125.53003 L 63.74455 125.53003 L 66.78 125.53003 L 69.81546 125.53003 L 72.8509 125.53003 L 75.88637 125.53003 L 78.92183 125.53003 L 81.95728 125.53003 L 84.99274 125.53003 L 88.02818 125.53003 L 91.06364 125.53003 L 94.0991 125.53003 L 97.13455 125.53003 L 100.17001 125.53003 L 103.20546 125.53003 L 106.24092 125.53003 L 109.27637 125.53003 L 112.31183 125.53003 L 115.34729 125.53003 L 118.38274 125.53003 L 121.4182 125.53003 L 124.45364 125.53003 L 127.4891 125.53003 L 130.52455 125.53003 L 133.56002 125.53003 L 133.56002 0 L 60.70909 0 Z " fill="#e6cccc"/>
<path transform="matrix(1,0,0,-1,.199,174.631)" d="M 60.70909 40.34894 L 63.74455 40.34894 L 66.78 40.34894 L 69.81546 40.34894 L 72.8509 40.34894 L 75.88637 40.34894 L 78.92183 40.34894 L 81.95728 40.34894 L 84.99274 40.34894 L 88.02818 40.34894 L 91.06364 40.34894 L 94.0991 40.34894 L 97.13455 40.34894 L 100.17001 40.34894 L 103.20546 40.34894 L 106.24092 40.34894 L 109.27637 40.34894 L 112.31183 40.34894 L 115.34729 40.34894 L 118.38274 40.34894 L 121.4182 40.34894 L 124.45364 40.34894 L 127.4891 40.34894 L 130.52455 40.34894 L 133.56002 40.34894 L 133.56002 0 L 60.70909 0 Z " fill="#e6cccc"/>
<path transform="matrix(1,0,0,-1,.199,174.631)" d="M 84.99274 125.53003 L 86.00453 125.53003 L 87.01633 125.53003 L 88.02812 125.53003 L 89.03995 125.53003 L 90.05174 125.53003 L 91.06354 125.53003 L 92.07533 125.53003 L 93.08714 125.53003 L 94.09895 125.53003 L 95.11075 125.53003 L 96.12254 125.53003 L 97.13435 125.53003 L 98.14615 125.53003 L 99.15796 125.53003 L 100.16975 125.53003 L 101.18156 125.53003 L 102.19336 125.53003 L 103.20515 125.53003 L 104.21698 125.53003 L 105.22878 125.53003 L 106.24057 125.53003 L 107.25238 125.53003 L 108.26418 125.53003 L 109.27599 125.53003 L 109.27599 0 L 84.99274 0 Z " fill="#cce6cc"/>
<path transform="matrix(1,0,0,-1,.199,174.631)" d="M 84.99274 4.48322 L 86.00453 4.48322 L 87.01633 4.48322 L 88.02812 4.48322 L 89.03995 4.48322 L 90.05174 4.48322 L 91.06354 4.48322 L 92.07533 4.48322 L 93.08714 4.48322 L 94.09895 4.48322 L 95.11075 4.48322 L 96.12254 4.48322 L 97.13435 4.48322 L 98.14615 4.48322 L 99.15796 4.48322 L 100.16975 4.48322 L 101.18156 4.48322 L 102.19336 4.48322 L 103.20515 4.48322 L 104.21698 4.48322 L 105.22878 4.48322 L 106.24057 4.48322 L 107.25238 4.48322 L 108.26418 4.48322 L 109.27599 4.48322 L 109.27599 0 L 84.99274 0 Z " fill="#e6cccc"/>
<path transform="matrix(1,0,0,-1,.199,174.631)" d="M 36.42545 125.53003 L 41.48453 125.53003 L 46.54361 125.53003 L 51.60269 125.53003 L 56.66177 125.53003 L 61.72086 125.53003 L 66.77994 125.53003 L 71.83902 125.53003 L 76.8981 125.53003 L 81.95718 125.53003 L 87.01627 125.53003 L 92.07536 125.53003 L 97.13445 125.53003 L 102.19353 125.53003 L 107.25261 125.53003 L 112.31169 125.53003 L 117.37077 125.53003 L 122.42986 125.53003 L 127.48895 125.53003 L 132.54804 125.53003 L 137.60712 125.53003 L 142.6662 125.53003 L 147.72528 125.53003 L 152.78437 125.53003 L 157.84345 125.53003 L 157.84345 0 L 36.42545 0 Z " fill="#cce6cc"/>
<path transform="matrix(1,0,0,-1,.199,174.631)" d="M 36.42545 112.08038 L 41.48453 112.08038 L 46.54361 112.08038 L 51.60269 112.08038 L 56.66177 112.08038 L 61.72086 112.08038 L 66.77994 112.08038 L 71.83902 112.08038 L 76.8981 112.08038 L 81.95718 112.08038 L 87.01627 112.08038 L 92.07536 112.08038 L 97.13445 112.08038 L 102.19353 112.08038 L 107.25261 112.08038 L 112.31169 112.08038 L 117.37077 112.08038 L 122.42986 112.08038 L 127.48895 112.08038 L 132.54804 112.08038 L 137.60712 112.08038 L 142.6662 112.08038 L 147.72528 112.08038 L 152.78437 112.08038 L 157.84345 112.08038 L 157.84345 0 L 36.42545 0 Z " fill="#ffffff"/>
<path transform="matrix(1,0,0,-1,.199,174.631)" stroke-width="1.19553" stroke-linecap="butt" stroke-miterlimit="10" stroke-linejoin="miter" fill="none" stroke="#800000" d="M 0 286.92579 L 8.09453 241.09732 L 16.18907 199.25408 L 24.2836 161.3959 L 32.37814 127.52277 L 40.47267 97.63454 L 48.56721 71.73155 L 56.66174 49.81361 L 64.75629 31.88075 L 72.85081 17.93297 L 80.94536 7.97021 L 89.03992 1.99258 L 97.13445 0 L 105.22899 1.99248 L 113.32352 7.97005 L 121.41806 17.93266 L 129.51259 31.88037 L 137.60713 49.81316 L 145.70168 71.731 L 153.79622 97.63391 L 161.89076 127.52188 L 169.98529 161.39493 L 178.07984 199.25298 L 186.17436 241.09622 L 194.2689 286.9244 "/>
<path transform="matrix(1,0,0,-1,.199,174.631)" stroke-width="1.19553" stroke-linecap="butt" stroke-miterlimit="10" stroke-linejoin="miter" fill="none" stroke="#cc6600" d="M 0 125.53003 L 8.09453 125.53003 L 16.18907 125.53003 L 24.2836 125.53003 L 32.37814 125.53003 L 40.47267 125.53003 L 48.56721 125.53003 L 56.66174 125.53003 L 64.75629 125.53003 L 72.85081 125.53003 L 80.94536 125.53003 L 89.03992 125.53003 L 97.13445 125.53003 L 105.22899 125.53003 L 113.32352 125.53003 L 121.41806 125.53003 L 129.51259 125.53003 L 137.60713 125.53003 L 145.70168 125.53003 L 153.79622 125.53003 L 161.89076 125.53003 L 169.98529 125.53003 L 178.07984 125.53003 L 186.17436 125.53003 L 194.2689 125.53003 "/>
<path transform="matrix(1,0,0,-1,.199,174.631)" stroke-width="1.19553" stroke-linecap="butt" stroke-miterlimit="10" stroke-linejoin="miter" fill="none" stroke="#000080" d="M 133.56002 40.34894 L 60.70909 40.34894 "/>
<path transform="matrix(1,0,0,-1,.199,174.631)" stroke-width="1.19553" stroke-linecap="butt" stroke-miterlimit="10" stroke-linejoin="miter" fill="none" stroke="#000080" d="M 133.56002 40.34894 L 133.56002 125.53003 "/>
<path transform="matrix(1,0,0,-1,.199,174.631)" stroke-width="1.19553" stroke-linecap="butt" stroke-miterlimit="10" stroke-linejoin="miter" fill="none" stroke="#000080" d="M 133.56002 125.53003 L 60.70909 125.53003 "/>
<path transform="matrix(1,0,0,-1,.199,174.631)" stroke-width="1.19553" stroke-linecap="butt" stroke-miterlimit="10" stroke-linejoin="miter" fill="none" stroke="#000080" d="M 60.70909 125.53003 L 60.70909 40.34894 "/>
<path transform="matrix(1,0,0,-1,.199,174.631)" stroke-width="1.19553" stroke-linecap="butt" stroke-miterlimit="10" stroke-linejoin="miter" fill="none" stroke="#800080" d="M 109.27637 4.48322 L 84.99274 4.48322 "/>
<path transform="matrix(1,0,0,-1,.199,174.631)" stroke-width="1.19553" stroke-linecap="butt" stroke-miterlimit="10" stroke-linejoin="miter" fill="none" stroke="#800080" d="M 109.27637 4.48322 L 109.27637 125.53003 "/>
<path transform="matrix(1,0,0,-1,.199,174.631)" stroke-width="1.19553" stroke-linecap="butt" stroke-miterlimit="10" stroke-linejoin="miter" fill="none" stroke="#800080" d="M 109.27637 125.53003 L 84.99274 125.53003 "/>
<path transform="matrix(1,0,0,-1,.199,174.631)" stroke-width="1.19553" stroke-linecap="butt" stroke-miterlimit="10" stroke-linejoin="miter" fill="none" stroke="#800080" d="M 84.99274 125.53003 L 84.99274 4.48322 "/>
<path transform="matrix(1,0,0,-1,.199,174.631)" stroke-width="1.19553" stroke-linecap="butt" stroke-miterlimit="10" stroke-linejoin="miter" fill="none" stroke="#008000" d="M 157.84366 112.08038 L 36.42545 112.08038 "/>
<path transform="matrix(1,0,0,-1,.199,174.631)" stroke-width="1.19553" stroke-linecap="butt" stroke-miterlimit="10" stroke-linejoin="miter" fill="none" stroke="#008000" d="M 157.84366 112.08038 L 157.84366 125.53003 "/>
<path transform="matrix(1,0,0,-1,.199,174.631)" stroke-width="1.19553" stroke-linecap="butt" stroke-miterlimit="10" stroke-linejoin="miter" fill="none" stroke="#008000" d="M 157.84366 125.53003 L 36.42545 125.53003 "/>
<path transform="matrix(1,0,0,-1,.199,174.631)" stroke-width="1.19553" stroke-linecap="butt" stroke-miterlimit="10" stroke-linejoin="miter" fill="none" stroke="#008000" d="M 36.42545 125.53003 L 36.42545 112.08038 "/>
<symbol id="font_1_1">
<path d="M .23200003 .00999999 C .23200003 .012999982 .23200003 .014999986 .215 .03199999 C .09 .15799999 .058 .347 .058 .5 C .058 .674 .096 .84800007 .21900001 .97300007 C .23200003 .985 .23200003 .98700007 .23200003 .99 C .23200003 .99700006 .22800002 1 .222 1 C .21200001 1 .12200001 .93200007 .06299999 .805 C .012000002 .69500008 0 .584 0 .5 C 0 .422 .011 .301 .066 .188 C .126 .065 .21200001 0 .222 0 C .22800002 0 .23200003 .0029999912 .23200003 .00999999 Z "/>
</symbol>
<use xlink:href="#font_1_1" transform="matrix(9.9626,0,0,-9.9626,138.3373,139.83165)" fill="#000080"/>
<symbol id="font_2_3">
<path d="M .305 .31300003 C .311 .33900003 .334 .43100003 .404 .43100003 C .409 .43100003 .433 .43100003 .454 .418 C .426 .41300003 .40600003 .388 .40600003 .36400003 C .40600003 .34800003 .417 .32900004 .444 .32900004 C .46600003 .32900004 .498 .34700004 .498 .38700003 C .498 .43900005 .439 .45300005 .405 .45300005 C .347 .45300005 .312 .40000005 .3 .37700004 C .275 .44300003 .221 .45300005 .19200002 .45300005 C .08800001 .45300005 .031000002 .32400004 .031000002 .29900003 C .031000002 .28900004 .041 .28900004 .043000007 .28900004 C .051000008 .28900004 .054000006 .291 .056 .3 C .09 .40600003 .156 .43100003 .19000001 .43100003 C .209 .43100003 .244 .42200003 .244 .36400003 C .244 .33300004 .22700002 .26600004 .19000001 .126 C .17400001 .064 .13900002 .022000002 .095000009 .022000002 C .08900001 .022000002 .06600001 .022000002 .045 .035 C .07000001 .040000004 .09200001 .061 .09200001 .089 C .09200001 .116000007 .07000001 .124000009 .055000009 .124000009 C .025 .124000009 0 .098000008 0 .06600001 C 0 .020000002 .050000006 0 .094000007 0 C .16000001 0 .19600001 .07000001 .19900002 .076000008 C .21100001 .039 .24700003 0 .307 0 C .41 0 .467 .12900001 .467 .15400002 C .467 .16400002 .458 .16400002 .455 .16400002 C .446 .16400002 .444 .16000001 .442 .15300001 C .409 .046 .341 .022000002 .30900003 .022000002 C .27 .022000002 .254 .054 .254 .08800001 C .254 .11000001 .26 .13200002 .271 .17600002 L .305 .31300003 Z "/>
</symbol>
<symbol id="font_2_1">
<path d="M .117000009 .194 C .117000009 .26 .092 .29900003 .05300001 .29900003 C .020000004 .29900003 0 .274 0 .246 C 0 .21900001 .020000004 .193 .05300001 .193 C .065000008 .193 .078 .197 .08800001 .206 C .091 .208 .092 .209 .093 .209 C .094000007 .209 .095000009 .208 .095000009 .194 C .095000009 .12 .06000001 .060000004 .027000003 .026999996 C .016000003 .016000003 .016000003 .013999999 .016000003 .0109999929 C .016000003 .003999993 .021000006 0 .026 0 C .037 0 .117000009 .077 .117000009 .194 Z "/>
</symbol>
<use xlink:href="#font_2_3" transform="matrix(9.9626,0,0,-9.9626,141.5139,137.45059)" fill="#000080"/>
<use xlink:href="#font_2_1" transform="matrix(9.9626,0,0,-9.9626,147.78038,139.26378)" fill="#000080"/>
<use xlink:href="#font_2_3" transform="matrix(9.9626,0,0,-9.9626,151.64588,137.45059)" fill="#000080"/>
<symbol id="font_3_2">
<path d="M .442 .18200001 L .40800003 .18200001 C .40500004 .16000001 .39500005 .101 .38200004 .091000009 C .374 .085 .29700003 .085 .28300003 .085 L .099 .085 C .20400003 .178 .23900002 .20600002 .29900003 .25300003 C .37300004 .312 .442 .374 .442 .469 C .442 .59000006 .33600004 .66400006 .20800004 .66400006 C .084 .66400006 0 .577 0 .485 C 0 .43400003 .043000007 .42900003 .053000004 .42900003 C .077 .42900003 .10600001 .446 .10600001 .48200003 C .10600001 .5 .099 .535 .047000007 .535 C .078 .606 .146 .628 .19300002 .628 C .293 .628 .34500004 .55 .34500004 .469 C .34500004 .38200004 .28300003 .31300003 .25100003 .277 L .010000005 .039 C 0 .030000002 0 .028 0 0 L .41200004 0 L .442 .18200001 Z "/>
</symbol>
<use xlink:href="#font_3_2" transform="matrix(6.9738,0,0,-6.9738,157.48033,133.228)" fill="#000080"/>
<symbol id="font_1_2">
<path d="M .232 .5 C .232 .578 .22100002 .699 .16600001 .81200006 C .106 .93500009 .020000004 1 .009999998 1 C .0040000008 1 0 .99600008 0 .99 C 0 .98700007 0 .985 .019000002 .967 C .117000009 .86800006 .174 .709 .174 .5 C .174 .329 .137 .153 .012999997 .026999996 C 0 .014999986 0 .012999982 0 .00999999 C 0 .003999993 .0040000008 0 .009999998 0 C .020000004 0 .11000001 .06799999 .169 .195 C .22 .305 .232 .416 .232 .5 Z "/>
</symbol>
<use xlink:href="#font_1_2" transform="matrix(9.9626,0,0,-9.9626,162.07785,139.83165)" fill="#000080"/>
<use xlink:href="#font_1_1" transform="matrix(9.9626,0,0,-9.9626,114.0543,175.69664)" fill="#800080"/>
<use xlink:href="#font_2_3" transform="matrix(9.9626,0,0,-9.9626,117.23092,173.31558)" fill="#800080"/>
<symbol id="font_3_1">
<path d="M .22600001 .63600006 C .22600001 .66300007 .224 .66400006 .19600001 .66400006 C .132 .601 .041 .6 0 .6 L 0 .564 C .023999997 .564 .09000001 .564 .14500001 .592 L .14500001 .082 C .14500001 .049000004 .14500001 .036000004 .04500001 .036000004 L .0069999995 .036000004 L .0069999995 0 C .024999999 .001 .148 .004 .185 .004 C .21600002 .004 .34200005 .001 .36400003 0 L .36400003 .036000004 L .32600004 .036000004 C .22600001 .036000004 .22600001 .049000004 .22600001 .082 L .22600001 .63600006 Z "/>
</symbol>
<use xlink:href="#font_3_1" transform="matrix(6.9738,0,0,-6.9738,123.39615,174.701)" fill="#800080"/>
<use xlink:href="#font_2_1" transform="matrix(9.9626,0,0,-9.9626,127.961788,175.12877)" fill="#800080"/>
<use xlink:href="#font_2_3" transform="matrix(9.9626,0,0,-9.9626,131.82727,173.31558)" fill="#800080"/>
<use xlink:href="#font_3_2" transform="matrix(6.9738,0,0,-6.9738,137.66635,169.093)" fill="#800080"/>
<use xlink:href="#font_3_1" transform="matrix(6.9738,0,0,-6.9738,137.98715,175.669)" fill="#800080"/>
<use xlink:href="#font_1_2" transform="matrix(9.9626,0,0,-9.9626,142.26387,175.69664)" fill="#800080"/>
<use xlink:href="#font_1_1" transform="matrix(9.9626,0,0,-9.9626,162.6203,68.10165)" fill="#008000"/>
<use xlink:href="#font_2_3" transform="matrix(9.9626,0,0,-9.9626,165.79792,65.72059)" fill="#008000"/>
<use xlink:href="#font_3_2" transform="matrix(6.9738,0,0,-6.9738,171.64235,67.105)" fill="#008000"/>
<use xlink:href="#font_2_1" transform="matrix(9.9626,0,0,-9.9626,176.52878,67.53378)" fill="#008000"/>
<use xlink:href="#font_2_3" transform="matrix(9.9626,0,0,-9.9626,180.39427,65.72059)" fill="#008000"/>
<use xlink:href="#font_3_2" transform="matrix(6.9738,0,0,-6.9738,186.23334,61.497)" fill="#008000"/>
<use xlink:href="#font_3_2" transform="matrix(6.9738,0,0,-6.9738,186.23334,68.074008)" fill="#008000"/>
<use xlink:href="#font_1_2" transform="matrix(9.9626,0,0,-9.9626,190.83086,68.101657)" fill="#008000"/>
<symbol id="font_2_4">
<path d="M .45700003 .586 C .461 .6 .461 .602 .461 .609 C .461 .62700006 .447 .63600006 .432 .63600006 C .42200003 .63600006 .40600003 .63 .397 .615 C .395 .61 .387 .579 .38300003 .561 C .37600003 .535 .36900003 .508 .363 .48100005 L .318 .301 C .314 .286 .271 .21600002 .20500002 .21600002 C .15400002 .21600002 .143 .26000003 .143 .29700003 C .143 .34300003 .16000001 .40500004 .194 .49300004 C .21000001 .53400006 .21400002 .545 .21400002 .56500008 C .21400002 .61 .18200001 .6470001 .13200002 .6470001 C .037 .6470001 0 .50200006 0 .49300004 C 0 .48300005 .01 .48300005 .012 .48300005 C .022000002 .48300005 .023 .485 .028000003 .50100007 C .055000009 .595 .095000009 .625 .12900001 .625 C .13700001 .625 .15400002 .625 .15400002 .59300008 C .15400002 .568 .14400001 .54200008 .13700001 .523 C .097 .41700004 .079 .36 .079 .31300003 C .079 .224 .142 .194 .201 .194 C .24000003 .194 .274 .21100001 .30200003 .23900002 C .289 .187 .277 .13800001 .237 .08500001 C .21100001 .051 .17300001 .022 .127 .022 C .113000009 .022 .068 .025000006 .051000008 .06400001 C .067 .06400001 .080000009 .06400001 .094000007 .076000008 C .104 .08500001 .11400001 .098000008 .11400001 .117000009 C .11400001 .148 .087000008 .15200001 .07700001 .15200001 C .054000006 .15200001 .021 .136 .021 .087000008 C .021 .037 .065000008 0 .127 0 C .23 0 .333 .091000009 .361 .20400001 L .45700003 .586 Z "/>
</symbol>
<use xlink:href="#font_2_4" transform="matrix(9.9626,0,0,-9.9626,4.081916,48.734319)" fill="#cc6600"/>
<symbol id="font_1_3">
<path d="M .63100007 .19400002 C .646 .19400002 .665 .19400002 .665 .214 C .665 .23400001 .646 .23400001 .632 .23400001 L .033 .23400001 C .019000002 .23400001 0 .23400001 0 .214 C 0 .19400002 .019000002 .19400002 .034 .19400002 L .63100007 .19400002 M .632 0 C .646 0 .665 0 .665 .02000001 C .665 .040000008 .646 .040000008 .63100007 .040000008 L .034 .040000008 C .019000002 .040000008 0 .040000008 0 .02000001 C 0 0 .019000002 0 .033 0 L .632 0 Z "/>
</symbol>
<use xlink:href="#font_1_3" transform="matrix(9.9626,0,0,-9.9626,12.359905,45.36696)" fill="#cc6600"/>
<symbol id="font_2_2">
<path d="M .33300004 .38900004 C .31500004 .42600004 .286 .45300005 .24100001 .45300005 C .124 .45300005 0 .30600003 0 .16000001 C 0 .06600001 .055000005 0 .133 0 C .153 0 .20300001 .0040000008 .263 .075 C .27100004 .033000005 .30600003 0 .35400004 0 C .38900004 0 .41200004 .023000002 .42800004 .055000005 C .44500003 .091000009 .45800004 .15200001 .45800004 .15400002 C .45800004 .16400002 .44900004 .16400002 .44600005 .16400002 C .43600003 .16400002 .43500004 .16000001 .43200005 .14600002 C .41500003 .081 .397 .022000002 .35600005 .022000002 C .32900004 .022000002 .32600004 .048 .32600004 .068 C .32600004 .09 .32800005 .098000008 .33900003 .14200002 C .35000003 .18400002 .35200004 .19400002 .36100004 .23200003 L .397 .37200005 C .40400005 .40000005 .40400005 .40200005 .40400005 .40600003 C .40400005 .42300005 .39200003 .43300004 .37500004 .43300004 C .35100005 .43300004 .33600004 .411 .33300004 .38900004 M .26800005 .13000001 C .263 .112 .263 .11000001 .24800001 .093 C .20400001 .038000004 .163 .022000002 .135 .022000002 C .08499999 .022000002 .07100001 .077 .07100001 .116000007 C .07100001 .16600001 .103 .28900004 .126 .335 C .157 .39400003 .202 .43100003 .242 .43100003 C .307 .43100003 .32100005 .34900005 .32100005 .34300003 C .32100005 .337 .31900005 .33100004 .31800003 .32600004 L .26800005 .13000001 Z "/>
</symbol>
<use xlink:href="#font_2_2" transform="matrix(9.9626,0,0,-9.9626,22.716506,46.801576)" fill="#cc6600"/>
<use xlink:href="#font_2_4" transform="matrix(9.9626,0,0,-9.9626,30.792916,29.374335)" fill="#800000"/>
<use xlink:href="#font_1_3" transform="matrix(9.9626,0,0,-9.9626,39.071908,26.006976)" fill="#800000"/>
<use xlink:href="#font_2_3" transform="matrix(9.9626,0,0,-9.9626,49.318914,27.44159)" fill="#800000"/>
<use xlink:href="#font_3_2" transform="matrix(6.9738,0,0,-6.9738,55.16335,23.218995)" fill="#800000"/>
</g>
<path transform="matrix(1,0,0,-1,.199,174.631)" stroke-width="1" stroke-linecap="butt" stroke-miterlimit="10" stroke-linejoin="miter" fill="none" stroke="#000000" d="M 0 0 L 192.2766 0 "/>
<path transform="matrix(1,0,0,-1,192.4756,174.631)" d="M 1.99252 0 L -1.19551 1.59401 L 0 0 L -1.19551 -1.59401 "/>
<path transform="matrix(1,0,0,-1,.199,174.631)" stroke-width="1" stroke-linecap="butt" stroke-miterlimit="10" stroke-linejoin="miter" fill="none" stroke="#000000" d="M 97.13455 0 L 97.13455 159.40323 "/>
<path transform="matrix(0,-1,-1,-0,97.33355,15.227768)" d="M 1.99252 0 L -1.19551 1.59401 L 0 0 L -1.19551 -1.59401 "/>
<path transform="matrix(1,0,0,-1,.199,174.631)" d="M 135.55257 40.34894 C 135.55257 41.4494 134.66049 42.34149 133.56002 42.34149 C 132.45955 42.34149 131.56746 41.4494 131.56746 40.34894 C 131.56746 39.24846 132.45955 38.35638 133.56002 38.35638 C 134.66049 38.35638 135.55257 39.24846 135.55257 40.34894 Z M 133.56002 40.34894 " fill="#000080"/>
<path transform="matrix(1,0,0,-1,.199,174.631)" stroke-width="1" stroke-linecap="butt" stroke-miterlimit="10" stroke-linejoin="miter" fill="none" stroke="#000080" d="M 135.55257 40.34894 C 135.55257 41.4494 134.66049 42.34149 133.56002 42.34149 C 132.45955 42.34149 131.56746 41.4494 131.56746 40.34894 C 131.56746 39.24846 132.45955 38.35638 133.56002 38.35638 C 134.66049 38.35638 135.55257 39.24846 135.55257 40.34894 Z M 133.56002 40.34894 "/>
<path transform="matrix(1,0,0,-1,.199,174.631)" d="M 159.83621 112.08038 C 159.83621 113.18085 158.94412 114.07294 157.84366 114.07294 C 156.74318 114.07294 155.8511 113.18085 155.8511 112.08038 C 155.8511 110.9799 156.74318 110.08783 157.84366 110.08783 C 158.94412 110.08783 159.83621 110.9799 159.83621 112.08038 Z M 157.84366 112.08038 " fill="#000080"/>
<path transform="matrix(1,0,0,-1,.199,174.631)" stroke-width="1" stroke-linecap="butt" stroke-miterlimit="10" stroke-linejoin="miter" fill="none" stroke="#008000" d="M 159.83621 112.08038 C 159.83621 113.18085 158.94412 114.07294 157.84366 114.07294 C 156.74318 114.07294 155.8511 113.18085 155.8511 112.08038 C 155.8511 110.9799 156.74318 110.08783 157.84366 110.08783 C 158.94412 110.08783 159.83621 110.9799 159.83621 112.08038 Z M 157.84366 112.08038 "/>
<path transform="matrix(1,0,0,-1,.199,174.631)" d="M 111.26892 4.48322 C 111.26892 5.58368 110.37685 6.47577 109.27637 6.47577 C 108.1759 6.47577 107.28381 5.58368 107.28381 4.48322 C 107.28381 3.38274 108.1759 2.49066 109.27637 2.49066 C 110.37685 2.49066 111.26892 3.38274 111.26892 4.48322 Z M 109.27637 4.48322 " fill="#000080"/>
<path transform="matrix(1,0,0,-1,.199,174.631)" stroke-width="1" stroke-linecap="butt" stroke-miterlimit="10" stroke-linejoin="miter" fill="none" stroke="#800080" d="M 111.26892 4.48322 C 111.26892 5.58368 110.37685 6.47577 109.27637 6.47577 C 108.1759 6.47577 107.28381 5.58368 107.28381 4.48322 C 107.28381 3.38274 108.1759 2.49066 109.27637 2.49066 C 110.37685 2.49066 111.26892 3.38274 111.26892 4.48322 Z M 109.27637 4.48322 "/>
<use xlink:href="#font_2_3" transform="matrix(9.9626,0,0,-9.9626,198.37992,176.88559)"/>
<use xlink:href="#font_2_4" transform="matrix(9.9626,0,0,-9.9626,95.01891,9.726324)"/>
</svg>
