<?xml version="1.0" encoding="UTF-8" standalone="no"?>
<!DOCTYPE svg PUBLIC "-//W3C//DTD SVG 1.1//EN" "http://www.w3.org/Graphics/SVG/1.1/DTD/svg11.dtd">
<svg xmlns="http://www.w3.org/2000/svg" xmlns:xlink="http://www.w3.org/1999/xlink" version="1.1" width="964.975pt" height="142.928pt" viewBox="0 0 964.975 142.928">
<path transform="matrix(1,0,0,-1,765.952,142.32999)" stroke-width="1.19553" stroke-linecap="butt" stroke-miterlimit="10" stroke-linejoin="miter" fill="none" stroke="#000080" d="M 0 0 L 0 113.38724 "/>
<path transform="matrix(1,0,0,-1,765.952,142.32999)" stroke-width="1.19553" stroke-linecap="butt" stroke-miterlimit="10" stroke-linejoin="miter" fill="none" stroke="#000080" d="M -170.08086 0 L -170.08086 113.38724 "/>
<path transform="matrix(1,0,0,-1,765.952,142.32999)" stroke-width="1.19553" stroke-linecap="butt" stroke-miterlimit="10" stroke-linejoin="miter" fill="none" stroke="#000080" d="M -170.08086 0 L 0 0 "/>
<path transform="matrix(1,0,0,-1,765.952,142.32999)" stroke-width="1.19553" stroke-linecap="butt" stroke-miterlimit="10" stroke-linejoin="miter" fill="none" stroke="#000080" d="M -170.08086 113.38724 L 0 113.38724 "/>
<path transform="matrix(1,0,0,-1,765.952,142.32999)" stroke-width="1.19553" stroke-linecap="butt" stroke-miterlimit="10" stroke-linejoin="miter" fill="none" stroke="#000080" d="M -226.77448 0 L -226.77448 56.69362 "/>
<path transform="matrix(1,0,0,-1,765.952,142.32999)" stroke-width="1.19553" stroke-linecap="butt" stroke-miterlimit="10" stroke-linejoin="miter" fill="none" stroke="#000080" d="M -453.54896 0 L -453.54896 56.69362 "/>
<path transform="matrix(1,0,0,-1,765.952,142.32999)" stroke-width="1.19553" stroke-linecap="butt" stroke-miterlimit="10" stroke-linejoin="miter" fill="none" stroke="#000080" d="M -453.54896 0 L -226.77448 0 "/>
<path transform="matrix(1,0,0,-1,765.952,142.32999)" stroke-width="1.19553" stroke-linecap="butt" stroke-miterlimit="10" stroke-linejoin="miter" fill="none" stroke="#000080" d="M -453.54896 56.69362 L -226.77448 56.69362 "/>
<path transform="matrix(1,0,0,-1,765.952,142.32999)" stroke-width="1.19553" stroke-linecap="butt" stroke-miterlimit="10" stroke-linejoin="miter" fill="none" stroke="#000080" d="M 56.69362 0 L 198.42766 0 "/>
<path transform="matrix(1,0,0,-1,765.952,142.32999)" stroke-width="1.19553" stroke-linecap="butt" stroke-miterlimit="10" stroke-linejoin="miter" fill="none" stroke="#000080" d="M 56.69362 141.73404 L 198.42766 141.73404 "/>
<path transform="matrix(1,0,0,-1,765.952,142.32999)" stroke-width="1.19553" stroke-linecap="butt" stroke-miterlimit="10" stroke-linejoin="miter" fill="none" stroke="#000080" d="M 56.69362 0 L 56.69362 141.73404 "/>
<path transform="matrix(1,0,0,-1,765.952,142.32999)" stroke-width="1.19553" stroke-linecap="butt" stroke-miterlimit="10" stroke-linejoin="miter" fill="none" stroke="#000080" d="M 198.42766 0 L 198.42766 141.73404 "/>
<path transform="matrix(1,0,0,-1,765.952,142.32999)" stroke-width="1.19553" stroke-linecap="butt" stroke-miterlimit="10" stroke-linejoin="miter" fill="none" stroke="#000080" d="M -510.24259 0 L -510.24259 28.3468 "/>
<path transform="matrix(1,0,0,-1,765.952,142.32999)" stroke-width="1.19553" stroke-linecap="butt" stroke-miterlimit="10" stroke-linejoin="miter" fill="none" stroke="#000080" d="M -765.36386 0 L -510.24259 0 "/>
<path transform="matrix(1,0,0,-1,765.952,142.32999)" stroke-width="1.19553" stroke-linecap="butt" stroke-miterlimit="10" stroke-linejoin="miter" fill="none" stroke="#000080" d="M -765.36386 0 L -765.36386 28.3468 "/>
<path transform="matrix(1,0,0,-1,765.952,142.32999)" stroke-width="1.19553" stroke-linecap="butt" stroke-miterlimit="10" stroke-linejoin="miter" fill="none" stroke="#000080" d="M -765.36386 28.3468 L -510.24259 28.3468 "/>
</svg>
