<?xml version="1.0" encoding="UTF-8" standalone="no"?>
<!DOCTYPE svg PUBLIC "-//W3C//DTD SVG 1.1//EN" "http://www.w3.org/Graphics/SVG/1.1/DTD/svg11.dtd">
<svg xmlns="http://www.w3.org/2000/svg" xmlns:xlink="http://www.w3.org/1999/xlink" version="1.1" width="211.643pt" height="176.396pt" viewBox="0 0 211.643 176.396">
<path transform="matrix(1,0,0,-1,4.803,174.459)" stroke-width="1" stroke-linecap="butt" stroke-miterlimit="10" stroke-linejoin="miter" fill="none" stroke="#bfbfbf" d="M 59.12778 0 L 59.12778 161.39392 M 101.36192 0 L 101.36192 161.39392 M 143.59606 0 L 143.59606 161.39392 M 185.83019 0 L 185.83019 161.39392 "/>
<path transform="matrix(1,0,0,-1,4.803,174.459)" stroke-width="1" stroke-linecap="butt" stroke-miterlimit="10" stroke-linejoin="miter" fill="none" stroke="#bfbfbf" d="M 0 47.07323 L 194.27414 47.07323 M 0 80.69696 L 194.27414 80.69696 M 0 114.3207 L 194.27414 114.3207 M 0 147.94443 L 194.27414 147.94443 "/>
<path transform="matrix(1,0,0,-1,4.803,174.459)" stroke-width="1" stroke-linecap="butt" stroke-miterlimit="10" stroke-linejoin="miter" fill="none" stroke="#808080" d="M 59.12778 11.32341 L 59.12778 15.57555 M 101.36192 11.32341 L 101.36192 15.57555 M 143.59606 11.32341 L 143.59606 15.57555 M 185.83019 11.32341 L 185.83019 15.57555 "/>
<path transform="matrix(1,0,0,-1,4.803,174.459)" stroke-width="1" stroke-linecap="butt" stroke-miterlimit="10" stroke-linejoin="miter" fill="none" stroke="#808080" d="M 14.76778 47.07323 L 19.0195 47.07323 M 14.76778 80.69696 L 19.0195 80.69696 M 14.76778 114.3207 L 19.0195 114.3207 M 14.76778 147.94443 L 19.0195 147.94443 "/>
<path transform="matrix(1,0,0,-1,4.803,174.459)" stroke-width="1" stroke-linecap="butt" stroke-miterlimit="10" stroke-linejoin="miter" fill="none" stroke="#000000" d="M 0 13.4495 L 192.28162 13.4495 "/>
<path transform="matrix(1,0,0,-1,197.08461,161.0095)" d="M 1.99252 0 L -1.19551 1.59401 L 0 0 L -1.19551 -1.59401 "/>
<path transform="matrix(1,0,0,-1,4.803,174.459)" stroke-width="1" stroke-linecap="butt" stroke-miterlimit="10" stroke-linejoin="miter" fill="none" stroke="#000000" d="M 16.89365 0 L 16.89365 159.4014 "/>
<path transform="matrix(0,-1,-1,-0,21.69665,15.057602)" d="M 1.99252 0 L -1.19551 1.59401 L 0 0 L -1.19551 -1.59401 "/>
<symbol id="font_0_1">
<path d="M .421 .34200005 C .421 .42200003 .416 .50200006 .381 .57600006 C .335 .67200008 .25300003 .688 .211 .688 C .15100001 .688 .07800001 .66200008 .037000006 .56900009 C .0050000029 .5 0 .42200003 0 .34200005 C 0 .26700003 .0040000008 .177 .045000007 .101 C .088 .020000002 .161 0 .21000001 0 C .264 0 .34 .021000002 .384 .116000007 C .416 .185 .421 .263 .421 .34200005 M .21000001 .022000002 C .171 .022000002 .112 .047000003 .094 .143 C .083000008 .20300001 .083000008 .29500003 .083000008 .35400004 C .083000008 .41800005 .083000008 .48400004 .091000009 .53800007 C .11 .65700009 .185 .66600009 .21000001 .66600009 C .243 .66600009 .30900003 .64800009 .328 .549 C .338 .49300004 .338 .41700004 .338 .35400004 C .338 .279 .338 .21100001 .32700003 .147 C .312 .052 .255 .022000002 .21000001 .022000002 Z "/>
</symbol>
<use xlink:href="#font_0_1" transform="matrix(9.9626,0,0,-9.9626,57.953546,173.29418)"/>
<symbol id="font_1_1">
<path d="M .106 .053000004 C .106 .082 .08200001 .106000009 .05300001 .106000009 C .024000004 .106000009 0 .082 0 .053000004 C 0 .024 .024000004 0 .05300001 0 C .08200001 0 .106 .024 .106 .053000004 Z "/>
</symbol>
<use xlink:href="#font_1_1" transform="matrix(9.9626,0,0,-9.9626,63.402788,173.075)"/>
<symbol id="font_0_4">
<path d="M .39900003 .223 C .39900003 .34200005 .317 .44200004 .209 .44200004 C .16100002 .44200004 .118000019 .42600004 .082 .39100004 L .082 .586 C .10200001 .58000007 .135 .573 .16700001 .573 C .29 .573 .36 .66400006 .36 .67700007 C .36 .683 .357 .688 .35 .688 C .349 .688 .347 .688 .342 .68500009 C .322 .67600008 .273 .656 .20600002 .656 C .16600001 .656 .120000008 .66300007 .073 .6840001 C .065 .68700006 .06300001 .68700006 .061000009 .68700006 C .051000004 .68700006 .051000004 .679 .051000004 .66300007 L .051000004 .36700005 C .051000004 .34900005 .051000004 .34100003 .065 .34100003 C .07200001 .34100003 .074 .34400005 .07800001 .35000003 C .08900002 .36600004 .12600002 .42000006 .207 .42000006 C .259 .42000006 .284 .37400005 .292 .35600005 C .308 .31900005 .31 .28000004 .31 .23 C .31 .19500001 .31 .135 .286 .093 C .262 .054000006 .22500001 .028 .17900002 .028 C .106000009 .028 .049000008 .08100001 .032 .14000002 C .035 .13900002 .038000008 .13800001 .049000008 .13800001 C .082 .13800001 .09900001 .163 .09900001 .187 C .09900001 .21100001 .082 .23600002 .049000008 .23600002 C .035 .23600002 0 .22900002 0 .18300002 C 0 .097 .069000009 0 .18100001 0 C .297 0 .39900003 .096 .39900003 .223 Z "/>
</symbol>
<use xlink:href="#font_0_4" transform="matrix(9.9626,0,0,-9.9626,65.812129,173.29418)"/>
<symbol id="font_0_2">
<path d="M .205 .64000007 C .205 .66400006 .205 .666 .18200003 .666 C .120000008 .60200008 .032000007 .60200008 0 .60200008 L 0 .57100006 C .020000004 .57100006 .07900001 .57100006 .13100001 .597 L .13100001 .079 C .13100001 .043 .128 .031000002 .038000004 .031000002 L .0060000049 .031000002 L .0060000049 0 C .04100001 .003 .128 .003 .168 .003 C .20800002 .003 .29500003 .003 .33000005 0 L .33000005 .031000002 L .29800005 .031000002 C .20800002 .031000002 .205 .042000005 .205 .079 L .205 .64000007 Z "/>
</symbol>
<use xlink:href="#font_0_2" transform="matrix(9.9626,0,0,-9.9626,104.55968,173.075)"/>
<use xlink:href="#font_0_2" transform="matrix(9.9626,0,0,-9.9626,142.91867,173.075)"/>
<use xlink:href="#font_1_1" transform="matrix(9.9626,0,0,-9.9626,147.86978,173.075)"/>
<use xlink:href="#font_0_4" transform="matrix(9.9626,0,0,-9.9626,150.27913,173.29418)"/>
<symbol id="font_0_3">
<path d="M .07700001 .07700001 L .18300002 .18 C .33900003 .31800003 .39900003 .372 .39900003 .47200004 C .39900003 .586 .30900003 .666 .18700002 .666 C .074 .666 0 .574 0 .485 C 0 .42900003 .05 .42900003 .053000008 .42900003 C .07000001 .42900003 .105000007 .441 .105000007 .48200003 C .105000007 .508 .08700001 .53400006 .052000006 .53400006 C .044000005 .53400006 .042000008 .53400006 .039 .53300008 C .062000004 .59800007 .11600001 .63500007 .17400001 .63500007 C .26500003 .63500007 .308 .554 .308 .47200004 C .308 .39200003 .25800003 .31300003 .20300003 .25100003 L .011000004 .037 C 0 .026 0 .024 0 0 L .37100003 0 L .39900003 .17400001 L .374 .17400001 C .36900003 .14400001 .36200003 .1 .352 .085 C .345 .07700001 .279 .07700001 .257 .07700001 L .07700001 .07700001 Z "/>
</symbol>
<use xlink:href="#font_0_3" transform="matrix(9.9626,0,0,-9.9626,188.63813,173.075)"/>
<use xlink:href="#font_0_1" transform="matrix(9.9626,0,0,-9.9626,3.7095416,130.81519)"/>
<use xlink:href="#font_1_1" transform="matrix(9.9626,0,0,-9.9626,9.158784,130.59601)"/>
<use xlink:href="#font_0_4" transform="matrix(9.9626,0,0,-9.9626,11.56713,130.81519)"/>
<use xlink:href="#font_0_2" transform="matrix(9.9626,0,0,-9.9626,11.955671,96.973)"/>
<use xlink:href="#font_0_2" transform="matrix(9.9626,0,0,-9.9626,4.2076718,63.35)"/>
<use xlink:href="#font_1_1" transform="matrix(9.9626,0,0,-9.9626,9.158784,63.35)"/>
<use xlink:href="#font_0_4" transform="matrix(9.9626,0,0,-9.9626,11.56713,63.569177)"/>
<use xlink:href="#font_0_3" transform="matrix(9.9626,0,0,-9.9626,11.56713,29.725998)"/>
<clipPath id="cp2">
<path transform="matrix(1,0,0,-1,4.803,174.459)" d="M 0 0 L 194.27414 0 L 194.27414 161.39392 L 0 161.39392 Z "/>
</clipPath>
<g clip-path="url(#cp2)">
<path transform="matrix(1,0,0,-1,4.803,174.459)" stroke-width="1.19553" stroke-linecap="butt" stroke-miterlimit="10" stroke-linejoin="miter" fill="none" stroke="#000000" d="M 16.89365 80.69696 C 16.89365 80.69696 17.09741 80.85916 17.17567 80.92146 C 17.25394 80.98376 17.37946 81.08366 17.45772 81.14598 C 17.53598 81.2083 17.6615 81.30827 17.73976 81.37059 C 17.81802 81.4329 17.94354 81.5328 18.0218 81.59511 C 18.10007 81.65741 18.22557 81.75732 18.30383 81.81963 C 18.3821 81.88193 18.50763 81.98183 18.58589 82.04414 C 18.66414 82.10646 18.78966 82.20644 18.86792 82.26875 C 18.94617 82.33107 19.0717 82.43097 19.14995 82.49327 C 19.22821 82.55557 19.35374 82.65549 19.43199 82.71779 C 19.51025 82.78009 19.63577 82.87997 19.71404 82.94229 C 19.7923 83.00461 19.9178 83.1046 19.99606 83.16692 C 20.07433 83.22923 20.19986 83.32913 20.27812 83.39143 C 20.35638 83.45374 20.48189 83.55363 20.56015 83.61594 C 20.63841 83.67824 20.76393 83.77814 20.8422 83.84045 C 20.92046 83.90277 21.04597 84.00275 21.12424 84.06506 C 21.2025 84.12738 21.32802 84.22728 21.40628 84.28958 C 21.48454 84.35188 21.61005 84.4518 21.68831 84.5141 C 21.76657 84.5764 21.89209 84.6763 21.97035 84.73862 C 22.04861 84.80093 22.17413 84.90091 22.2524 84.96323 C 22.33064 85.02554 22.45618 85.12544 22.53444 85.18774 C 22.61269 85.25005 22.73822 85.34996 22.81647 85.41226 C 22.89473 85.47456 23.02025 85.57445 23.0985 85.63676 C 23.17676 85.69908 23.30229 85.79907 23.38055 85.86139 C 23.45882 85.9237 23.58432 86.0236 23.66258 86.0859 C 23.74084 86.14821 23.86636 86.24811 23.94463 86.31041 C 24.02289 86.37271 24.1484 86.47261 24.22667 86.53493 C 24.30493 86.59724 24.43045 86.69724 24.50871 86.75955 C 24.58698 86.82187 24.71248 86.92175 24.79074 86.98405 C 24.869 87.04636 24.99454 87.14627 25.0728 87.20857 C 25.15106 87.27087 25.27657 87.37077 25.35483 87.43309 C 25.43309 87.4954 25.55861 87.59538 25.63687 87.6577 C 25.71513 87.72002 25.84065 87.81992 25.91891 87.88222 C 25.99716 87.94452 26.12268 88.04443 26.20094 88.10674 C 26.27919 88.16904 26.40472 88.26892 26.48299 88.33124 C 26.56123 88.39355 26.68677 88.49355 26.76501 88.55586 C 26.84328 88.61818 26.9688 88.71808 27.04704 88.78038 C 27.1253 88.84268 27.25082 88.94258 27.32909 89.00488 C 27.40735 89.06718 27.53287 89.16708 27.61113 89.2294 C 27.68939 89.29172 27.81491 89.39171 27.89317 89.45403 C 27.97144 89.51634 28.09695 89.61623 28.17522 89.67853 C 28.25348 89.74083 28.37898 89.84074 28.45724 89.90305 C 28.5355 89.96535 28.66103 90.06526 28.73929 90.12756 C 28.81755 90.18987 28.94307 90.28976 29.02133 90.35208 C 29.0996 90.4144 29.22511 90.51437 29.30338 90.57669 C 29.38164 90.639 29.50714 90.7389 29.5854 90.80121 C 29.66367 90.86351 29.7892 90.96341 29.86746 91.02571 C 29.94571 91.08801 30.07123 91.18791 30.14949 91.25023 C 30.22774 91.31255 30.35327 91.41254 30.43152 91.47485 C 30.50978 91.53717 30.63531 91.63705 30.71356 91.69936 C 30.79182 91.76166 30.91733 91.86159 30.99559 91.92387 C 31.07385 91.98618 31.19937 92.08609 31.27763 92.14839 C 31.3559 92.21071 31.48141 92.3107 31.55968 92.373 C 31.63794 92.43532 31.76344 92.53523 31.8417 92.59752 C 31.91997 92.65982 32.0455 92.75975 32.12376 92.82204 C 32.20203 92.88434 32.32753 92.98425 32.40579 93.04655 C 32.48405 93.10887 32.60957 93.20886 32.68784 93.27116 C 32.7661 93.33348 32.89162 93.4334 32.96988 93.49568 C 33.04814 93.55798 33.17365 93.65791 33.2519 93.7202 C 33.33017 93.7825 33.45569 93.8824 33.53395 93.9447 C 33.6122 94.00702 33.73773 94.10703 33.816 94.16933 C 33.89424 94.23164 34.01978 94.33154 34.09802 94.39383 C 34.17628 94.45613 34.3018 94.55606 34.38005 94.61835 C 34.45831 94.68065 34.58385 94.78058 34.6621 94.84286 C 34.74036 94.90517 34.86588 95.00508 34.94414 95.06738 C 35.0224 95.1297 35.14792 95.22969 35.22618 95.29199 C 35.30444 95.35431 35.42995 95.45422 35.50821 95.51651 C 35.58647 95.57881 35.71199 95.67874 35.79025 95.74103 C 35.86852 95.80333 35.99403 95.90323 36.0723 95.96553 C 36.15056 96.02785 36.27608 96.12785 36.35434 96.19016 C 36.4326 96.25247 36.5581 96.35239 36.63637 96.41467 C 36.71463 96.47697 36.84016 96.57689 36.91843 96.63918 C 36.99669 96.70148 37.1222 96.80139 37.20045 96.8637 C 37.27872 96.92601 37.40422 97.02602 37.48248 97.08832 C 37.56073 97.15063 37.68628 97.25053 37.76454 97.31282 C 37.84279 97.37512 37.9683 97.47505 38.04655 97.53734 C 38.12482 97.59964 38.25035 97.69955 38.3286 97.76186 C 38.40686 97.82417 38.53238 97.92416 38.61064 97.98647 C 38.6889 98.04878 38.8144 98.1487 38.89267 98.21098 C 38.97093 98.27328 39.09647 98.37321 39.17473 98.4355 C 39.25299 98.4978 39.3785 98.5977 39.45676 98.66 C 39.53502 98.72232 39.66052 98.82233 39.73878 98.88463 C 39.81705 98.94695 39.94258 99.04686 40.02084 99.10915 C 40.0991 99.17145 40.22461 99.27136 40.30287 99.33366 C 40.38113 99.39595 40.50665 99.49586 40.58492 99.55818 C 40.66318 99.62048 40.7887 99.72049 40.86696 99.7828 C 40.94522 99.84511 41.07074 99.945 41.149 100.00731 C 41.22725 100.0696 41.35277 100.16953 41.43103 100.23183 C 41.50928 100.29411 41.63481 100.39403 41.71306 100.45634 C 41.79132 100.51865 41.91685 100.61864 41.9951 100.68095 C 42.07336 100.74326 42.19888 100.84317 42.27715 100.90547 C 42.35541 100.96776 42.48091 101.06769 42.55917 101.12999 C 42.63744 101.19228 42.76295 101.29218 42.84122 101.35449 C 42.91948 101.4168 43.045 101.5168 43.12326 101.57912 C 43.20152 101.64142 43.32704 101.74133 43.4053 101.80363 C 43.48357 101.86592 43.60907 101.96584 43.68733 102.02814 C 43.7656 102.09042 43.89113 102.19035 43.96939 102.25266 C 44.04765 102.31494 44.17316 102.41486 44.25142 102.47717 C 44.32968 102.53947 44.45518 102.63947 44.53345 102.70178 C 44.61171 102.76408 44.73724 102.864 44.8155 102.9263 C 44.89375 102.98859 45.01927 103.08852 45.09753 103.15082 C 45.17578 103.2131 45.30132 103.31302 45.37958 103.37534 C 45.45782 103.43764 45.58336 103.53763 45.6616 103.59995 C 45.73987 103.66225 45.86539 103.76216 45.94363 103.82446 C 46.0219 103.88675 46.14743 103.98666 46.2257 104.04897 C 46.30396 104.11125 46.42946 104.21117 46.50772 104.27348 C 46.58598 104.33578 46.71149 104.43579 46.78975 104.49811 C 46.86801 104.56041 46.99355 104.66031 47.07181 104.72261 C 47.15007 104.7849 47.27557 104.88483 47.35384 104.94713 C 47.4321 105.00941 47.55762 105.10933 47.63588 105.17165 C 47.71414 105.23395 47.83966 105.33394 47.91792 105.39626 C 47.99619 105.45856 48.1217 105.55847 48.19997 105.62077 C 48.27823 105.68306 48.40373 105.78299 48.482 105.84529 C 48.56026 105.90758 48.68578 106.00749 48.76404 106.06981 C 48.84229 106.13211 48.96782 106.2321 49.04608 106.29442 C 49.12433 106.35672 49.24986 106.45663 49.32811 106.51894 C 49.40637 106.58122 49.53189 106.68115 49.61014 106.74345 C 49.6884 106.80576 49.81392 106.90565 49.89218 106.96796 C 49.97044 107.03026 50.09596 107.13016 50.17422 107.19247 C 50.25249 107.25479 50.378 107.35477 50.45627 107.41708 C 50.53453 107.4794 50.66003 107.5793 50.7383 107.6416 C 50.81656 107.7039 50.94208 107.80382 51.02034 107.86612 C 51.0986 107.92842 51.22412 108.02832 51.30238 108.09064 C 51.38065 108.15295 51.50615 108.25293 51.58441 108.31525 C 51.66267 108.37756 51.78821 108.47746 51.86647 108.53976 C 51.94473 108.60207 52.07024 108.70198 52.1485 108.76428 C 52.22676 108.82658 52.35228 108.92647 52.43054 108.98878 C 52.50879 109.0511 52.63432 109.1511 52.71259 109.21341 C 52.79083 109.27573 52.91635 109.37563 52.9946 109.43793 C 53.07286 109.50023 53.19841 109.60013 53.27666 109.66243 C 53.35492 109.72473 53.48044 109.82463 53.55869 109.88695 C 53.63695 109.94926 53.76245 110.04926 53.84071 110.11157 C 53.91898 110.17389 54.04451 110.27377 54.12277 110.33607 C 54.20103 110.39838 54.32654 110.49829 54.4048 110.5606 C 54.48306 110.6229 54.60858 110.7228 54.68684 110.78511 C 54.7651 110.84743 54.89063 110.9474 54.96889 111.00972 C 55.04715 111.07204 55.17267 111.17194 55.25093 111.23424 C 55.3292 111.29654 55.4547 111.39645 55.53296 111.45876 C 55.61122 111.52106 55.73674 111.62096 55.815 111.68326 C 55.89326 111.74556 56.01878 111.84546 56.09705 111.90778 C 56.17531 111.9701 56.30083 112.07008 56.37909 112.1324 C 56.45734 112.19472 56.58286 112.2946 56.66112 112.3569 C 56.73936 112.4192 56.8649 112.51912 56.94315 112.58142 C 57.02141 112.64372 57.14694 112.74362 57.22519 112.80594 C 57.30345 112.86826 57.42897 112.96823 57.50723 113.03055 C 57.5855 113.09286 57.711 113.19276 57.78926 113.25507 C 57.86752 113.31737 57.99304 113.41728 58.0713 113.47958 C 58.14957 113.54189 58.27509 113.64177 58.35335 113.70409 C 58.43161 113.7664 58.55711 113.8664 58.63538 113.92871 C 58.71364 113.99103 58.83917 114.09093 58.91743 114.15323 C 58.9957 114.21553 59.1212 114.31543 59.19946 114.37773 C 59.27773 114.44003 59.40324 114.53993 59.4815 114.60225 C 59.55977 114.66457 59.68529 114.76456 59.76355 114.82687 C 59.84181 114.88919 59.96732 114.98907 60.04558 115.05138 C 60.12383 115.11368 60.24937 115.2136 60.32764 115.2759 C 60.40588 115.3382 60.5314 115.4381 60.60965 115.50041 C 60.68791 115.56273 60.81343 115.6627 60.89168 115.72502 C 60.96994 115.78734 61.09547 115.88724 61.17374 115.94954 C 61.252 116.01184 61.3775 116.11176 61.45576 116.17406 C 61.53403 116.23636 61.65955 116.33626 61.73781 116.39857 C 61.81607 116.46089 61.94159 116.56087 62.01985 116.62318 C 62.09811 116.6855 62.22362 116.7854 62.30188 116.8477 C 62.38014 116.91 62.50566 117.0099 62.58392 117.0722 C 62.66219 117.1345 62.7877 117.2344 62.86597 117.29672 C 62.94423 117.35904 63.06975 117.45903 63.14801 117.52135 C 63.22627 117.58366 63.35179 117.68355 63.43005 117.74585 C 63.50832 117.80815 63.63383 117.90807 63.7121 117.97037 C 63.79034 118.03267 63.91586 118.13257 63.99413 118.19489 C 64.07237 118.2572 64.1979 118.35718 64.27617 118.4195 C 64.35442 118.48181 64.47995 118.58171 64.5582 118.64401 C 64.63646 118.70631 64.76198 118.80623 64.84023 118.86853 C 64.91849 118.93083 65.044 119.03075 65.12227 119.09305 C 65.20053 119.15535 65.32605 119.25523 65.40431 119.31755 C 65.48257 119.37987 65.60808 119.47986 65.68634 119.54218 C 65.7646 119.60449 65.89014 119.70439 65.9684 119.7667 C 66.04666 119.829 66.17216 119.9289 66.25043 119.9912 C 66.32869 120.0535 66.45421 120.15341 66.53247 120.21571 C 66.61073 120.27803 66.73625 120.378 66.81451 120.44032 C 66.89278 120.50264 67.01828 120.60255 67.09654 120.66484 C 67.1748 120.72714 67.30034 120.82707 67.3786 120.88936 C 67.45686 120.95166 67.58237 121.05157 67.66063 121.11388 C 67.73888 121.1762 67.86441 121.27618 67.94267 121.33849 C 68.02092 121.4008 68.14645 121.50072 68.2247 121.563 C 68.30296 121.6253 68.42848 121.72523 68.50673 121.78752 C 68.58499 121.84982 68.71051 121.94972 68.78877 122.01202 C 68.86703 122.07434 68.99255 122.17435 69.07082 122.23665 C 69.14908 122.29897 69.27458 122.39888 69.35284 122.46117 C 69.4311 122.52347 69.55663 122.62338 69.63489 122.68567 C 69.71315 122.74797 69.83867 122.84789 69.91693 122.91019 C 69.9952 122.9725 70.12071 123.07251 70.19897 123.13481 C 70.27724 123.19713 70.40276 123.29703 70.48102 123.35931 C 70.55928 123.42162 70.6848 123.52155 70.76306 123.58383 C 70.84132 123.64613 70.96683 123.74606 71.04509 123.80835 C 71.12335 123.87065 71.24887 123.97055 71.32713 124.03285 C 71.40538 124.09517 71.53091 124.19518 71.60918 124.25748 C 71.68742 124.3198 71.81294 124.41971 71.89119 124.482 C 71.96945 124.5443 72.09499 124.64421 72.17323 124.7065 C 72.2515 124.7688 72.37703 124.86871 72.45528 124.93102 C 72.53354 124.99333 72.65904 125.09334 72.7373 125.15564 C 72.81557 125.21796 72.9411 125.31786 73.01936 125.38014 C 73.09763 125.44244 73.22313 125.54237 73.30139 125.60466 C 73.37965 125.66696 73.50517 125.76688 73.58344 125.82918 C 73.6617 125.8915 73.78722 125.99149 73.86548 126.05379 C 73.94374 126.1161 74.06924 126.21602 74.1475 126.2783 C 74.22577 126.3406 74.3513 126.44054 74.42957 126.50282 C 74.50783 126.56512 74.63333 126.66502 74.7116 126.72733 C 74.78986 126.78964 74.91536 126.88965 74.99362 126.95195 C 75.07188 127.01427 75.19742 127.11418 75.27568 127.17647 C 75.35393 127.23877 75.47945 127.33868 75.55771 127.40097 C 75.63596 127.46327 75.76149 127.56319 75.83974 127.6255 C 75.918 127.6878 76.04353 127.78781 76.12178 127.85011 C 76.20004 127.91243 76.32555 128.01233 76.40381 128.07463 C 76.48207 128.13692 76.60759 128.23685 76.68585 128.29915 C 76.76411 128.36144 76.88963 128.46137 76.9679 128.52367 C 77.04616 128.58596 77.17168 128.68587 77.24994 128.74819 C 77.3282 128.81049 77.45372 128.91048 77.53198 128.9728 C 77.61024 129.0351 77.73575 129.13501 77.81401 129.19731 C 77.89227 129.2596 78.01779 129.35951 78.09605 129.42183 C 78.17432 129.48413 78.29984 129.58412 78.3781 129.64644 C 78.45636 129.70874 78.58188 129.80866 78.66014 129.87096 C 78.7384 129.93325 78.8639 130.03316 78.94217 130.09546 C 79.02042 130.15775 79.14597 130.25768 79.22423 130.31998 C 79.30247 130.38227 79.428 130.48218 79.50624 130.5445 C 79.5845 130.6068 79.71002 130.70679 79.78827 130.7691 C 79.86653 130.8314 79.99207 130.93132 80.07033 130.99362 C 80.14859 131.05591 80.2741 131.15584 80.35236 131.21814 C 80.43062 131.28043 80.55614 131.38034 80.6344 131.44266 C 80.71266 131.50496 80.83818 131.60495 80.91644 131.66727 C 80.9947 131.72957 81.12021 131.82949 81.19847 131.89179 C 81.27673 131.95407 81.40227 132.054 81.48053 132.1163 C 81.55879 132.17859 81.6843 132.27849 81.76256 132.3408 C 81.84082 132.4031 81.96634 132.50312 82.0446 132.56543 C 82.12286 132.62773 82.24838 132.72765 82.32664 132.78995 C 82.4049 132.85224 82.53041 132.95215 82.60867 133.01445 C 82.68692 133.07674 82.81245 133.17665 82.89072 133.23897 C 82.96896 133.30127 83.0945 133.40126 83.17276 133.46358 C 83.251 133.52588 83.37654 133.6258 83.45479 133.6881 C 83.53305 133.75038 83.65857 133.85031 83.73682 133.91262 C 83.81508 133.9749 83.9406 134.07483 84.01886 134.13713 C 84.09712 134.19942 84.22264 134.29932 84.3009 134.36164 C 84.37917 134.42394 84.50468 134.52394 84.58295 134.58626 C 84.66121 134.64856 84.78671 134.74848 84.86497 134.81078 C 84.94324 134.87306 85.06876 134.97296 85.14702 135.03528 C 85.22528 135.09758 85.3508 135.19759 85.42906 135.2599 C 85.50732 135.3222 85.63284 135.42212 85.7111 135.48442 C 85.78937 135.54673 85.91487 135.64662 85.99313 135.70893 C 86.0714 135.77123 86.19693 135.87114 86.27519 135.93344 C 86.35345 135.99575 86.47896 136.09564 86.55722 136.15796 C 86.63547 136.22028 86.76099 136.32025 86.83925 136.38257 C 86.9175 136.44489 87.04305 136.54479 87.12129 136.60709 C 87.19955 136.66939 87.32507 136.7693 87.40332 136.8316 C 87.48158 136.8939 87.6071 136.99379 87.68536 137.0561 C 87.76363 137.11843 87.88914 137.21842 87.9674 137.28073 C 88.04567 137.34305 88.17117 137.44295 88.24944 137.50525 C 88.3277 137.56755 88.45323 137.66745 88.5315 137.72975 C 88.60976 137.79206 88.73526 137.89196 88.81352 137.95427 C 88.89178 138.01659 89.01729 138.11658 89.09555 138.1789 C 89.17381 138.24121 89.29935 138.3411 89.37761 138.4034 C 89.45587 138.4657 89.58138 138.56562 89.65964 138.62792 C 89.7379 138.69022 89.86342 138.79012 89.94168 138.85243 C 90.01994 138.91475 90.14546 139.01473 90.22372 139.07704 C 90.30197 139.13936 90.4275 139.23926 90.50577 139.30156 C 90.58401 139.36386 90.70953 139.46378 90.78778 139.52608 C 90.86604 139.58838 90.99158 139.68827 91.06982 139.75058 C 91.14809 139.8129 91.27362 139.91289 91.35187 139.9752 C 91.43013 140.03752 91.55565 140.13742 91.63391 140.19972 C 91.71217 140.26203 91.83768 140.36193 91.91594 140.42423 C 91.9942 140.48653 92.11972 140.58643 92.19798 140.64875 C 92.27625 140.71106 92.40176 140.81105 92.48003 140.87337 C 92.55829 140.93569 92.6838 141.03557 92.76207 141.09787 C 92.84033 141.16017 92.96584 141.26009 93.0441 141.32239 C 93.12236 141.38469 93.2479 141.4846 93.32616 141.5469 C 93.40442 141.6092 93.52992 141.7091 93.60818 141.77143 C 93.68645 141.83374 93.81195 141.93372 93.89021 141.99604 C 93.96848 142.05835 94.09401 142.15825 94.17227 142.22055 C 94.25052 142.28285 94.37604 142.38277 94.4543 142.44507 C 94.53255 142.50737 94.65808 142.60726 94.73633 142.66957 C 94.81459 142.73189 94.94012 142.83188 95.01837 142.8942 C 95.09663 142.95652 95.22214 143.0564 95.3004 143.1187 C 95.37866 143.181 95.5042 143.28092 95.58246 143.34322 C 95.66072 143.40552 95.78622 143.50542 95.86449 143.56774 C 95.94275 143.63005 96.06825 143.73003 96.14651 143.79235 C 96.22478 143.85466 96.35031 143.95456 96.42857 144.01686 C 96.50684 144.07917 96.63234 144.17908 96.7106 144.24138 C 96.78886 144.30368 96.91438 144.40358 96.99265 144.4659 C 97.0709 144.52822 97.19643 144.62819 97.27469 144.6905 C 97.35295 144.75283 97.47847 144.85272 97.55673 144.91503 C 97.635 144.97733 97.7605 145.07724 97.83876 145.13954 C 97.917 145.20185 98.04254 145.30175 98.1208 145.36405 C 98.19905 145.42635 98.32458 145.52625 98.40283 145.58856 C 98.4811 145.65088 98.60663 145.75087 98.68488 145.81319 C 98.76314 145.8755 98.88866 145.97539 98.96692 146.03769 C 99.04518 146.09999 99.17068 146.1999 99.24895 146.2622 C 99.32721 146.32451 99.45273 146.42441 99.53099 146.48673 C 99.60925 146.54904 99.73477 146.64902 99.81303 146.71134 C 99.8913 146.77365 100.0168 146.87355 100.09506 146.93585 C 100.17332 146.99816 100.29884 147.09807 100.3771 147.16037 C 100.45537 147.22267 100.58089 147.32256 100.65915 147.38488 C 100.73741 147.44719 100.86292 147.54718 100.94118 147.6095 C 101.01944 147.67182 101.14497 147.85083 101.22324 147.83402 C 101.3015 147.8172 101.427 147.66046 101.50526 147.48831 C 101.58351 147.31616 101.70905 146.84119 101.78731 146.59323 C 101.86555 146.34528 101.99107 145.94828 102.06934 145.70114 C 102.14758 145.454 102.2731 145.05832 102.35135 144.812 C 102.42961 144.56569 102.55515 144.17131 102.63339 143.92584 C 102.71165 143.68038 102.83716 143.28743 102.91542 143.04279 C 102.99368 142.79814 103.1192 142.40639 103.19746 142.16257 C 103.27573 141.91875 103.40123 141.52841 103.47949 141.28545 C 103.55775 141.0425 103.68327 140.65355 103.76154 140.4114 C 103.8398 140.16927 103.9653 139.78154 104.04356 139.54022 C 104.12183 139.29892 104.24733 138.9126 104.32559 138.67214 C 104.40385 138.43167 104.52937 138.04666 104.60764 137.80702 C 104.6859 137.56739 104.8114 137.18372 104.88966 136.94489 C 104.96793 136.70607 105.09344 136.3237 105.1717 136.08571 C 105.24997 135.84774 105.37547 135.46677 105.45374 135.22963 C 105.53198 134.9925 105.6575 134.61283 105.73576 134.37651 C 105.81401 134.1402 105.93954 133.76187 106.01779 133.52637 C 106.09605 133.29088 106.22157 132.91387 106.29982 132.67922 C 106.37808 132.44455 106.50362 132.06885 106.58186 131.83504 C 106.66013 131.60121 106.78563 131.2269 106.86389 130.99393 C 106.94215 130.76094 107.06767 130.38796 107.14594 130.15579 C 107.2242 129.92363 107.3497 129.55196 107.42796 129.32064 C 107.50623 129.08933 107.63173 128.71906 107.70999 128.48856 C 107.78825 128.25807 107.91377 127.88904 107.99203 127.65936 C 108.0703 127.42969 108.1958 127.06204 108.27406 126.83324 C 108.35233 126.60442 108.47784 126.23808 108.5561 126.01009 C 108.63437 125.78209 108.75987 125.41707 108.83813 125.18991 C 108.9164 124.96275 109.04192 124.59915 109.12018 124.37282 C 109.19844 124.1465 109.32394 123.78418 109.4022 123.5587 C 109.48045 123.3332 109.60597 122.97221 109.68423 122.74754 C 109.76248 122.52287 109.88802 122.16322 109.96626 121.93938 C 110.04453 121.71553 110.17004 121.3572 110.24829 121.13419 C 110.32655 120.9112 110.45207 120.55423 110.53033 120.33208 C 110.6086 120.10991 110.7341 119.75427 110.81236 119.53293 C 110.89063 119.3116 111.01613 118.95728 111.09439 118.73677 C 111.17265 118.51627 111.29817 118.16325 111.37643 117.94359 C 111.4547 117.72392 111.5802 117.37233 111.65846 117.15347 C 111.73672 116.93463 111.86224 116.58426 111.9405 116.36624 C 112.01877 116.14822 112.14427 115.79926 112.22253 115.58209 C 112.3008 115.36493 112.42632 115.01735 112.50458 114.80101 C 112.58284 114.58467 112.70834 114.23833 112.7866 114.02281 C 112.86487 113.8073 112.99037 113.46236 113.06863 113.24768 C 113.14688 113.03299 113.27242 112.68938 113.35068 112.47552 C 113.42892 112.26167 113.55444 111.91937 113.6327 111.70634 C 113.71095 111.49332 113.83649 111.15234 113.91473 110.94016 C 113.993 110.72797 114.11852 110.38838 114.19676 110.17703 C 114.27502 109.96568 114.40054 109.62729 114.4788 109.41678 C 114.55707 109.20627 114.68257 108.86938 114.76083 108.6597 C 114.8391 108.45003 114.9646 108.11438 115.04286 107.90552 C 115.12112 107.69666 115.24664 107.36232 115.3249 107.1543 C 115.40317 106.94627 115.52867 106.61336 115.60693 106.40616 C 115.6852 106.19897 115.81071 105.86736 115.88898 105.661 C 115.96724 105.45462 116.09274 105.12433 116.171 104.91881 C 116.24927 104.71327 116.37477 104.3843 116.45303 104.1796 C 116.5313 103.9749 116.65681 103.64731 116.73508 103.44345 C 116.81334 103.2396 116.93884 102.91333 117.0171 102.71031 C 117.09535 102.50728 117.22089 102.18231 117.29915 101.9801 C 117.3774 101.77791 117.50291 101.45427 117.58116 101.2529 C 117.65942 101.05154 117.78496 100.72932 117.8632 100.52878 C 117.94147 100.32823 118.06697 100.00723 118.14523 99.80751 C 118.2235 99.6078 118.349 99.28822 118.42726 99.08934 C 118.50552 98.89047 118.63104 98.57217 118.7093 98.37415 C 118.78757 98.1761 118.91307 97.85922 118.99133 97.66202 C 119.0696 97.46481 119.19511 97.14915 119.27338 96.95277 C 119.35164 96.7564 119.47714 96.44214 119.5554 96.2466 C 119.63367 96.05104 119.75919 95.73808 119.83745 95.5434 C 119.91571 95.3487 120.04121 95.03716 120.11948 94.84328 C 120.19774 94.64941 120.32324 94.3391 120.4015 94.14604 C 120.47977 93.95299 120.60529 93.64409 120.68355 93.45187 C 120.76181 93.25966 120.88731 92.95204 120.96558 92.76067 C 121.04382 92.56929 121.16936 92.26302 121.24762 92.07246 C 121.32587 91.88191 121.45139 91.57693 121.52963 91.38722 C 121.6079 91.1975 121.73341 90.89392 121.81166 90.70506 C 121.88992 90.51619 122.01544 90.21393 122.0937 90.02588 C 122.17197 89.83783 122.29747 89.5369 122.37573 89.34967 C 122.454 89.16245 122.57951 88.86282 122.65778 88.67644 C 122.73604 88.49004 122.86154 88.19182 122.9398 88.00629 C 123.01807 87.82074 123.14359 87.52382 123.22185 87.3391 C 123.30011 87.15437 123.42561 86.8588 123.50388 86.6749 C 123.58214 86.491 123.70764 86.19673 123.7859 86.01367 C 123.86417 85.83061 123.98969 85.53763 124.06795 85.35541 C 124.14621 85.17319 124.27171 84.88162 124.34998 84.70023 C 124.42824 84.51884 124.55376 84.22859 124.63202 84.04803 C 124.71027 83.86748 124.83578 83.57855 124.91405 83.39882 C 124.9923 83.21909 125.11783 82.93147 125.19608 82.75256 C 125.27434 82.57367 125.39986 82.28746 125.4781 82.1094 C 125.55637 81.93135 125.68188 81.64644 125.76013 81.46921 C 125.8384 81.29196 125.96391 81.00839 126.04218 80.83199 C 126.12044 80.65558 126.24594 80.3733 126.3242 80.19772 C 126.40247 80.02214 126.52798 79.74123 126.60625 79.5665 C 126.68451 79.39177 126.81001 79.1122 126.88828 78.9383 C 126.96654 78.76437 127.09204 78.48613 127.1703 78.31306 C 127.24857 78.13998 127.37408 77.86308 127.45235 77.69084 C 127.53061 77.5186 127.65611 77.24303 127.73438 77.07162 C 127.81264 76.90022 127.93816 76.62599 128.01642 76.45541 C 128.09468 76.28482 128.22019 76.01192 128.29845 75.84218 C 128.37671 75.67242 128.50223 75.40085 128.58049 75.23193 C 128.65874 75.06303 128.78426 74.7928 128.86252 74.62473 C 128.94077 74.45665 129.06629 74.18774 129.14453 74.0205 C 129.2228 73.85324 129.34833 73.58568 129.42658 73.41927 C 129.50484 73.25285 129.63034 72.9866 129.7086 72.82103 C 129.78687 72.65544 129.91239 72.39053 129.99065 72.2258 C 130.06891 72.06105 130.19441 71.79749 130.27268 71.63358 C 130.35094 71.46965 130.47646 71.20741 130.55472 71.04433 C 130.63298 70.88124 130.75849 70.62035 130.83675 70.45808 C 130.91501 70.29584 131.04051 70.03629 131.11878 69.87486 C 131.19704 69.71346 131.32256 69.45522 131.40082 69.29462 C 131.47908 69.13403 131.60459 68.87715 131.68285 68.71739 C 131.76111 68.55763 131.88663 68.30206 131.96489 68.14313 C 132.04315 67.9842 132.16866 67.73 132.24692 67.57188 C 132.32517 67.41379 132.45069 67.16092 132.52895 67.00366 C 132.6072 66.84639 132.73273 66.59483 132.81099 66.4384 C 132.88924 66.28197 133.01476 66.03175 133.093 65.87616 C 133.17127 65.72057 133.2968 65.4717 133.37505 65.31693 C 133.45331 65.16216 133.57881 64.9146 133.65708 64.76067 C 133.73534 64.60674 133.86086 64.36053 133.93912 64.20743 C 134.01738 64.05434 134.14289 63.80945 134.22115 63.65717 C 134.29941 63.50488 134.42491 63.26135 134.50318 63.10991 C 134.58144 62.95847 134.70696 62.71628 134.78522 62.56566 C 134.86348 62.41505 134.98899 62.17418 135.06725 62.02441 C 135.14551 61.87465 135.27103 61.63507 135.34929 61.48615 C 135.42755 61.3372 135.55306 61.09903 135.63132 60.95091 C 135.70958 60.8028 135.8351 60.56592 135.91336 60.41864 C 135.99163 60.27136 136.11713 60.03583 136.19539 59.88939 C 136.27364 59.74295 136.39916 59.50873 136.47742 59.36311 C 136.55567 59.21748 136.6812 58.98463 136.75945 58.83986 C 136.8377 58.69507 136.96323 58.46355 137.04148 58.3196 C 137.11974 58.17566 137.24527 57.94545 137.32352 57.80234 C 137.40178 57.65923 137.52729 57.43034 137.60555 57.28807 C 137.6838 57.1458 137.80931 56.91827 137.88758 56.77681 C 137.96584 56.63536 138.09136 56.40915 138.16962 56.26854 C 138.24788 56.12791 138.37339 55.90306 138.45165 55.76328 C 138.5299 55.6235 138.65543 55.39995 138.73369 55.26099 C 138.81195 55.12202 138.93746 54.89986 139.01572 54.76173 C 139.09398 54.62361 139.2195 54.40276 139.29776 54.26546 C 139.37602 54.12817 139.50153 53.90865 139.57979 53.77219 C 139.65805 53.63573 139.78356 53.41753 139.86182 53.2819 C 139.94008 53.14629 140.0656 52.92944 140.14386 52.79465 C 140.2221 52.65985 140.34763 52.44432 140.42589 52.31036 C 140.50414 52.1764 140.62967 51.96222 140.70792 51.8291 C 140.78618 51.69598 140.9117 51.48311 140.98995 51.3508 C 141.0682 51.21849 141.19371 51.00699 141.27198 50.87552 C 141.35024 50.74406 141.47576 50.53387 141.55402 50.40324 C 141.63228 50.27261 141.75778 50.06375 141.83605 49.93396 C 141.9143 49.80417 142.03983 49.59665 142.11809 49.46767 C 142.19635 49.3387 142.32186 49.13254 142.40012 49.00441 C 142.47838 48.87627 142.6039 48.6714 142.68216 48.5441 C 142.76042 48.41681 142.88593 48.21329 142.96419 48.08682 C 143.04245 47.96036 143.16796 47.75818 143.24622 47.63254 C 143.32448 47.50688 143.45 47.30606 143.52826 47.18124 C 143.60652 47.05644 143.73203 46.85693 143.81029 46.73296 C 143.88854 46.60898 144.01407 46.41081 144.09233 46.28766 C 144.17058 46.1645 144.2961 45.96767 144.37436 45.84535 C 144.4526 45.72304 144.57814 45.52756 144.65639 45.40608 C 144.73465 45.2846 144.86017 45.09042 144.93842 44.96979 C 145.01668 44.84914 145.14218 44.65633 145.22045 44.5365 C 145.2987 44.41667 145.42423 44.22516 145.50249 44.10617 C 145.58075 43.9872 145.70626 43.79704 145.78452 43.6789 C 145.86278 43.56075 145.9883 43.3719 146.06656 43.2546 C 146.14482 43.13728 146.27033 42.94978 146.34859 42.83328 C 146.42685 42.7168 146.55236 42.53064 146.63062 42.415 C 146.70888 42.29933 146.8344 42.11452 146.91266 41.9997 C 146.99092 41.88487 147.11643 41.70135 147.19469 41.58737 C 147.27295 41.47339 147.39847 41.29124 147.47673 41.17807 C 147.555 41.06491 147.6805 40.8841 147.75876 40.77176 C 147.837 40.65944 147.96254 40.47993 148.0408 40.36845 C 148.11905 40.25696 148.24457 40.07881 148.32282 39.96815 C 148.40108 39.8575 148.5266 39.68066 148.60485 39.57083 C 148.6831 39.461 148.80864 39.28552 148.88689 39.17653 C 148.96515 39.06752 149.09066 38.89339 149.16892 38.78523 C 149.24718 38.67706 149.3727 38.50423 149.45096 38.39691 C 149.52922 38.28958 149.65473 38.1181 149.73299 38.0116 C 149.81125 37.90509 149.93677 37.73494 150.01503 37.62927 C 150.09329 37.5236 150.2188 37.35478 150.29706 37.24995 C 150.37532 37.14511 150.50083 36.97763 150.57909 36.87364 C 150.65735 36.76964 150.78287 36.60349 150.86113 36.5003 C 150.93939 36.39713 151.0649 36.23233 151.14316 36.12999 C 151.22142 36.02765 151.34694 35.86418 151.4252 35.76268 C 151.50347 35.66118 151.62897 35.49902 151.70723 35.39835 C 151.78548 35.29767 151.911 35.13687 151.98926 35.03703 C 152.0675 34.93718 152.19304 34.7777 152.27129 34.67868 C 152.34955 34.57968 152.47507 34.42154 152.55332 34.32336 C 152.63158 34.22519 152.7571 34.06839 152.83536 33.97104 C 152.91362 33.87367 153.03913 33.71823 153.11739 33.6217 C 153.19565 33.52519 153.32117 33.37106 153.39943 33.27538 C 153.47769 33.17969 153.6032 33.0269 153.68146 32.93205 C 153.75972 32.8372 153.88523 32.68571 153.96349 32.5917 C 154.04175 32.4977 154.16727 32.34758 154.24553 32.2544 C 154.32379 32.16121 154.4493 32.01239 154.52756 31.92004 C 154.60582 31.8277 154.73134 31.68024 154.8096 31.58871 C 154.88787 31.4972 155.01337 31.35106 155.09163 31.26036 C 155.16989 31.16968 155.29541 31.02489 155.37368 30.93503 C 155.45192 30.84517 155.57744 30.7017 155.6557 30.61269 C 155.73395 30.52367 155.85947 30.38155 155.93773 30.29335 C 156.01598 30.20517 156.14151 30.06438 156.21976 29.97702 C 156.29802 29.88965 156.42354 29.7502 156.50179 29.66368 C 156.58005 29.57715 156.70557 29.43901 156.78383 29.35332 C 156.86209 29.26762 156.9876 29.13083 157.06586 29.04597 C 157.14412 28.96112 157.26963 28.82567 157.34789 28.74162 C 157.42615 28.6576 157.55167 28.52348 157.62993 28.44028 C 157.70819 28.35709 157.8337 28.22429 157.91196 28.14192 C 157.99022 28.05956 158.11574 27.9281 158.194 27.84657 C 158.27227 27.76505 158.39777 27.63493 158.47603 27.55423 C 158.55429 27.47353 158.67981 27.34473 158.75807 27.26486 C 158.83634 27.185 158.96184 27.05756 159.0401 26.97852 C 159.11837 26.89948 159.24387 26.77336 159.32213 26.69518 C 159.40038 26.61697 159.52591 26.49219 159.60417 26.41481 C 159.68242 26.33743 159.80794 26.21399 159.88619 26.13745 C 159.96445 26.06091 160.08998 25.9388 160.16823 25.86308 C 160.24649 25.78738 160.372 25.6666 160.45026 25.59174 C 160.52852 25.51686 160.65404 25.39742 160.7323 25.32338 C 160.81056 25.24933 160.93607 25.13123 161.01433 25.058 C 161.09259 24.98479 161.2181 24.86803 161.29636 24.79565 C 161.37462 24.72327 161.50014 24.60785 161.5784 24.53629 C 161.65666 24.46474 161.78217 24.35065 161.86043 24.27992 C 161.93869 24.2092 162.06421 24.09644 162.14247 24.02655 C 162.22074 23.95667 162.34624 23.84523 162.4245 23.77617 C 162.50276 23.70712 162.62827 23.59703 162.70653 23.52881 C 162.78479 23.46059 162.91031 23.35182 162.98857 23.28444 C 163.06684 23.21704 163.19234 23.10963 163.2706 23.04308 C 163.34885 22.97652 163.47438 22.8704 163.55265 22.80469 C 163.63089 22.73897 163.75641 22.63422 163.83466 22.56932 C 163.91292 22.50443 164.03845 22.401 164.1167 22.33694 C 164.19496 22.27289 164.32047 22.1708 164.39873 22.10757 C 164.47699 22.04436 164.6025 21.94359 164.68076 21.8812 C 164.75902 21.81879 164.88454 21.71938 164.9628 21.6578 C 165.04106 21.59624 165.16657 21.49815 165.24483 21.43742 C 165.32309 21.3767 165.44861 21.27994 165.52687 21.22003 C 165.60514 21.16014 165.73064 21.06471 165.8089 21.00566 C 165.88716 20.9466 166.01268 20.85251 166.09095 20.79428 C 166.1692 20.73604 166.29471 20.6433 166.37297 20.58589 C 166.45124 20.52849 166.57674 20.43707 166.655 20.38051 C 166.73326 20.32394 166.85878 20.23386 166.93704 20.17813 C 167.01529 20.12239 167.14081 20.03365 167.21907 19.97873 C 167.29732 19.92383 167.42285 19.83641 167.5011 19.78235 C 167.57936 19.72827 167.70488 19.6422 167.78313 19.58896 C 167.86139 19.53572 167.98691 19.45099 168.06516 19.39857 C 168.14342 19.34615 168.26894 19.26276 168.3472 19.21117 C 168.42546 19.15959 168.55097 19.07751 168.62923 19.02678 C 168.70749 18.97603 168.83301 18.8953 168.91127 18.84538 C 168.98954 18.79547 169.11504 18.71608 169.1933 18.66699 C 169.27156 18.6179 169.39708 18.53984 169.47534 18.4916 C 169.5536 18.44334 169.67911 18.3666 169.75737 18.31918 C 169.83563 18.27177 169.96114 18.19637 170.0394 18.14978 C 170.11766 18.10321 170.24318 18.02914 170.32144 17.98338 C 170.3997 17.93762 170.5252 17.8649 170.60347 17.81998 C 170.68173 17.77505 170.80725 17.70367 170.88552 17.65958 C 170.96376 17.6155 171.08928 17.54543 171.16754 17.50217 C 171.24579 17.45891 171.37133 17.39018 171.44957 17.34776 C 171.52783 17.30533 171.65335 17.23796 171.7316 17.19637 C 171.80986 17.15477 171.93537 17.0887 172.01363 17.04794 C 172.09189 17.00719 172.2174 16.94246 172.29567 16.90254 C 172.37393 16.86263 172.49944 16.79922 172.5777 16.76013 C 172.65596 16.72102 172.78148 16.659 172.85974 16.62073 C 172.938 16.58246 173.0635 16.52173 173.14177 16.4843 C 173.22003 16.44687 173.34554 16.38748 173.4238 16.35089 C 173.50206 16.3143 173.62758 16.25624 173.70584 16.22047 C 173.7841 16.18471 173.9096 16.128 173.98787 16.09306 C 174.06613 16.05814 174.19165 16.00273 174.26992 15.96864 C 174.34818 15.93454 174.47368 15.8805 174.55194 15.84721 C 174.63019 15.81393 174.75572 15.76123 174.83399 15.72879 C 174.91223 15.69635 175.03775 15.64499 175.11602 15.61339 C 175.19426 15.58177 175.31978 15.53172 175.39803 15.50095 C 175.47629 15.47018 175.60182 15.42146 175.68007 15.39153 C 175.75833 15.36159 175.88384 15.31422 175.9621 15.28511 C 176.04036 15.256 176.16588 15.20995 176.24414 15.18167 C 176.3224 15.1534 176.4479 15.10869 176.52617 15.08125 C 176.60443 15.05382 176.72995 15.01044 176.80821 14.98383 C 176.88648 14.9572 177.01198 14.91519 177.09024 14.8894 C 177.1685 14.86362 177.294 14.8229 177.37227 14.79796 C 177.45053 14.77301 177.57605 14.73364 177.65431 14.70953 C 177.73258 14.68542 177.85808 14.64738 177.93634 14.6241 C 178.0146 14.60081 178.14012 14.56412 178.21839 14.54166 C 178.29665 14.51921 178.42215 14.48384 178.50041 14.46223 C 178.57866 14.44061 178.70418 14.40657 178.78244 14.38579 C 178.86069 14.365 178.98622 14.3323 179.06447 14.31235 C 179.14273 14.29239 179.26825 14.26103 179.3465 14.2419 C 179.42476 14.22278 179.5503 14.19276 179.62854 14.17447 C 179.7068 14.15617 179.8323 14.12749 179.91057 14.11003 C 179.98883 14.09258 180.11435 14.06522 180.19261 14.04858 C 180.27088 14.03195 180.39638 14.00594 180.47464 13.99014 C 180.5529 13.97435 180.6784 13.94966 180.75667 13.93471 C 180.83493 13.91974 180.96045 13.8964 181.03871 13.88226 C 181.11698 13.86812 181.24248 13.8461 181.32074 13.83281 C 181.399 13.8195 181.52452 13.79881 181.60279 13.78635 C 181.68105 13.77388 181.80655 13.75453 181.88481 13.7429 C 181.96308 13.73128 182.0886 13.71324 182.16686 13.70245 C 182.24512 13.69165 182.37062 13.67497 182.44889 13.66501 C 182.52713 13.65503 182.65265 13.63968 182.73091 13.63054 C 182.80916 13.6214 182.9347 13.60739 183.01294 13.59909 C 183.0912 13.59079 183.21672 13.57811 183.29497 13.57063 C 183.37323 13.56316 183.49875 13.5518 183.57701 13.54517 C 183.65528 13.53853 183.78078 13.52853 183.85904 13.52274 C 183.9373 13.51692 184.0628 13.50824 184.14107 13.50325 C 184.21933 13.49828 184.34485 13.49094 184.42311 13.48679 C 184.50138 13.48264 184.62688 13.47665 184.70514 13.47334 C 184.7834 13.47003 184.90892 13.46536 184.98719 13.46288 C 185.06545 13.4604 185.19095 13.45706 185.26921 13.45541 C 185.34748 13.45378 185.47299 13.45177 185.55126 13.45094 C 185.62952 13.45012 185.83329 13.4495 185.83329 13.4495 "/>
<path transform="matrix(1,0,0,-1,4.803,174.459)" stroke-width="1" stroke-linecap="butt" stroke-miterlimit="10" stroke-linejoin="miter" fill="none" stroke="#000000" d="M 0 13.4495 C 0 13.4495 1.41782 13.4495 1.96236 13.4495 C 2.5069 13.4495 3.38017 13.4495 3.92471 13.4495 C 4.46927 13.4495 5.34254 13.4495 5.8871 13.4495 C 6.43164 13.4495 7.30492 13.4495 7.84946 13.4495 C 8.394 13.4495 9.26729 13.4495 9.81181 13.4495 C 10.35635 13.4495 11.22964 13.4495 11.77419 13.4495 C 12.31871 13.4495 13.192 13.4495 13.73654 13.4495 C 14.2811 13.4495 15.15437 13.4495 15.69893 13.4495 C 16.24347 13.4495 17.11674 13.4495 17.66129 13.4495 C 18.20583 13.4495 19.07912 13.4495 19.62364 13.4495 C 20.16818 13.4495 21.04146 13.4495 21.58601 13.4495 C 22.13055 13.4495 23.00385 13.4495 23.54839 13.4495 C 24.09294 13.4495 24.96622 13.4495 25.51076 13.4495 C 26.05528 13.4495 26.92857 13.4495 27.47311 13.4495 C 28.01765 13.4495 28.89093 13.4495 29.43547 13.4495 C 29.98003 13.4495 30.8533 13.4495 31.39786 13.4495 C 31.9424 13.4495 32.81569 13.4495 33.36021 13.4495 C 33.90475 13.4495 34.77803 13.4495 35.32259 13.4495 C 35.86713 13.4495 36.7404 13.4495 37.28496 13.4495 C 37.82951 13.4495 38.70279 13.4495 39.24731 13.4495 C 39.79185 13.4495 40.66513 13.4495 41.20969 13.4495 C 41.75423 13.4495 42.62752 13.4495 43.17206 13.4495 C 43.71661 13.4495 44.58989 13.4495 45.13443 13.4495 C 45.67896 13.4495 46.55225 13.4495 47.09679 13.4495 C 47.64133 13.4495 48.51462 13.4495 49.05914 13.4495 C 49.60368 13.4495 50.47696 13.4495 51.02151 13.4495 C 51.56606 13.4495 52.43933 13.4495 52.98389 13.4495 C 53.52844 13.4495 54.40172 13.4495 54.94626 13.4495 C 55.49078 13.4495 56.36407 13.4495 56.90862 13.4495 C 57.45316 13.4495 58.32643 13.4495 58.87097 13.4495 C 59.41553 13.4495 60.2888 13.4495 60.83336 13.4495 C 61.3779 13.4495 62.25117 13.4495 62.79572 13.4495 C 63.34026 13.4495 64.21355 13.4495 64.75807 13.4495 C 65.30261 13.4495 66.1759 13.4495 66.72044 13.4495 C 67.26498 13.4495 68.13826 13.4495 68.6828 13.4495 C 69.22736 13.4495 70.10063 13.4495 70.64519 13.4495 C 71.18973 13.4495 72.06299 13.4495 72.60754 13.4495 C 73.1521 13.4495 74.02538 13.4495 74.56992 13.4495 C 75.11447 13.4495 75.98775 13.4495 76.53229 13.4495 C 77.07681 13.4495 77.9501 13.4495 78.49464 13.4495 C 79.0392 13.4495 79.91248 13.4495 80.45703 13.4495 C 81.00157 13.4495 81.87485 13.4495 82.41939 13.4495 C 82.96393 13.4495 83.83722 13.4495 84.38174 13.4495 C 84.92628 13.4495 85.79958 13.4495 86.34412 13.4495 C 86.88864 13.4495 87.76193 13.4495 88.30647 13.4495 C 88.85103 13.4495 89.7243 13.4495 90.26886 13.4495 C 90.8134 13.4495 91.68668 13.4495 92.23122 13.4495 C 92.77576 13.4495 93.64905 13.4495 94.19357 13.4495 C 94.73811 13.4495 95.6114 13.4495 96.15594 13.4495 C 96.70047 13.4495 97.57378 13.4495 98.1183 13.4495 C 98.66284 13.4495 99.53612 13.4495 100.08067 13.4495 C 100.62521 13.4495 101.49849 13.4495 102.04305 13.4495 C 102.5876 13.4495 103.46088 13.4495 104.0054 13.4495 C 104.54994 13.4495 105.42322 13.4495 105.96777 13.4495 C 106.51231 13.4495 107.38559 13.4495 107.93015 13.4495 C 108.4747 13.4495 109.34798 13.4495 109.89252 13.4495 C 110.43704 13.4495 111.31033 13.4495 111.85487 13.4495 C 112.39941 13.4495 113.2727 13.4495 113.81723 13.4495 C 114.36177 13.4495 115.23506 13.4495 115.7796 13.4495 C 116.32413 13.4495 117.19742 13.4495 117.74196 13.4495 C 118.2865 13.4495 119.15979 13.4495 119.70432 13.4495 C 120.24886 13.4495 121.12215 13.4495 121.66669 13.4495 C 122.21123 13.4495 123.08452 13.4495 123.62904 13.4495 C 124.17358 13.4495 125.04688 13.4495 125.59142 13.4495 C 126.13594 13.4495 127.00923 13.4495 127.55377 13.4495 C 128.09832 13.4495 128.97159 13.4495 129.51613 13.4495 C 130.06069 13.4495 130.93396 13.4495 131.47852 13.4495 C 132.02306 13.4495 132.89635 13.4495 133.44087 13.4495 C 133.98542 13.4495 134.8587 13.4495 135.40325 13.4495 C 135.94777 13.4495 136.82106 13.4495 137.3656 13.4495 C 137.91014 13.4495 138.78343 13.4495 139.32796 13.4495 C 139.8725 13.4495 140.74579 13.4495 141.29033 13.4495 C 141.83486 13.4495 142.70816 13.4495 143.25269 13.4495 C 143.79723 13.4495 144.67052 13.4495 145.21506 13.4495 C 145.75959 13.4495 146.63288 13.4495 147.17742 13.4495 C 147.72196 13.4495 148.59525 13.4495 149.13977 13.4495 C 149.68431 13.4495 150.5576 13.4495 151.10214 13.4495 C 151.64667 13.4495 152.51996 13.4495 153.0645 13.4495 C 153.60906 13.4495 154.48233 13.4495 155.02689 13.4495 C 155.57143 13.4495 156.4447 13.4495 156.98925 13.4495 C 157.53379 13.4495 158.40708 13.4495 158.9516 13.4495 C 159.49614 13.4495 160.36943 13.4495 160.91397 13.4495 C 161.4585 13.4495 162.3318 13.4495 162.87633 13.4495 C 163.42087 13.4495 164.29416 13.4495 164.8387 13.4495 C 165.38323 13.4495 166.25652 13.4495 166.80106 13.4495 C 167.3456 13.4495 168.21889 13.4495 168.76342 13.4495 C 169.30796 13.4495 170.18125 13.4495 170.72579 13.4495 C 171.27031 13.4495 172.1436 13.4495 172.68814 13.4495 C 173.23268 13.4495 174.10596 13.4495 174.65052 13.4495 C 175.19506 13.4495 176.06833 13.4495 176.61289 13.4495 C 177.15744 13.4495 178.03072 13.4495 178.57524 13.4495 C 179.11978 13.4495 179.99308 13.4495 180.53762 13.4495 C 181.08214 13.4495 181.95543 13.4495 182.49997 13.4495 C 183.04451 13.4495 183.9178 13.4495 184.46233 13.4495 C 185.00687 13.4495 185.88016 13.4495 186.4247 13.4495 C 186.96924 13.4495 187.84253 13.4495 188.38706 13.4495 C 188.9316 13.4495 189.80489 13.4495 190.34943 13.4495 C 190.89395 13.4495 191.76725 13.4495 192.31179 13.4495 C 192.85633 13.4495 194.27414 13.4495 194.27414 13.4495 "/>
<path transform="matrix(1,0,0,-1,4.803,174.459)" stroke-width="1" stroke-linecap="butt" stroke-miterlimit="10" stroke-linejoin="miter" fill="none" stroke="#000000" d="M 16.89365 0 L 16.89365 147.94443 "/>
<path transform="matrix(1,0,0,-1,4.803,174.459)" d="M 18.8862 80.69696 C 18.8862 81.79742 17.99413 82.68951 16.89365 82.68951 C 15.79318 82.68951 14.9011 81.79742 14.9011 80.69696 C 14.9011 79.59648 15.79318 78.7044 16.89365 78.7044 C 17.99413 78.7044 18.8862 79.59648 18.8862 80.69696 Z M 16.89365 80.69696 "/>
<path transform="matrix(1,0,0,-1,4.803,174.459)" stroke-width="1" stroke-linecap="butt" stroke-miterlimit="10" stroke-linejoin="miter" fill="none" stroke="#000000" d="M 18.8862 80.69696 C 18.8862 81.79742 17.99413 82.68951 16.89365 82.68951 C 15.79318 82.68951 14.9011 81.79742 14.9011 80.69696 C 14.9011 79.59648 15.79318 78.7044 16.89365 78.7044 C 17.99413 78.7044 18.8862 79.59648 18.8862 80.69696 Z M 16.89365 80.69696 "/>
<path transform="matrix(1,0,0,-1,4.803,174.459)" d="M 187.82274 13.4495 C 187.82274 14.54996 186.93067 15.44205 185.83019 15.44205 C 184.72972 15.44205 183.83763 14.54996 183.83763 13.4495 C 183.83763 12.34901 184.72972 11.45694 185.83019 11.45694 C 186.93067 11.45694 187.82274 12.34901 187.82274 13.4495 Z M 185.83019 13.4495 "/>
<path transform="matrix(1,0,0,-1,4.803,174.459)" stroke-width="1" stroke-linecap="butt" stroke-miterlimit="10" stroke-linejoin="miter" fill="none" stroke="#000000" d="M 187.82274 13.4495 C 187.82274 14.54996 186.93067 15.44205 185.83019 15.44205 C 184.72972 15.44205 183.83763 14.54996 183.83763 13.4495 C 183.83763 12.34901 184.72972 11.45694 185.83019 11.45694 C 186.93067 11.45694 187.82274 12.34901 187.82274 13.4495 Z M 185.83019 13.4495 "/>
<path transform="matrix(1,0,0,-1,4.803,174.459)" d="M 103.35448 80.69696 C 103.35448 81.79742 102.46239 82.68951 101.36192 82.68951 C 100.26144 82.68951 99.36937 81.79742 99.36937 80.69696 C 99.36937 79.59648 100.26144 78.7044 101.36192 78.7044 C 102.46239 78.7044 103.35448 79.59648 103.35448 80.69696 Z M 101.36192 80.69696 "/>
<path transform="matrix(1,0,0,-1,4.803,174.459)" stroke-width="1" stroke-linecap="butt" stroke-miterlimit="10" stroke-linejoin="miter" fill="none" stroke="#000000" d="M 103.35448 80.69696 C 103.35448 81.79742 102.46239 82.68951 101.36192 82.68951 C 100.26144 82.68951 99.36937 81.79742 99.36937 80.69696 C 99.36937 79.59648 100.26144 78.7044 101.36192 78.7044 C 102.46239 78.7044 103.35448 79.59648 103.35448 80.69696 Z M 101.36192 80.69696 "/>
<path transform="matrix(1,0,0,-1,4.803,174.459)" d="M 103.35448 147.94443 C 103.35448 149.0449 102.46239 149.93698 101.36192 149.93698 C 100.26144 149.93698 99.36937 149.0449 99.36937 147.94443 C 99.36937 146.84397 100.26144 145.95188 101.36192 145.95188 C 102.46239 145.95188 103.35448 146.84397 103.35448 147.94443 Z M 101.36192 147.94443 " fill="#ffffff"/>
<path transform="matrix(1,0,0,-1,4.803,174.459)" stroke-width="1" stroke-linecap="butt" stroke-miterlimit="10" stroke-linejoin="miter" fill="none" stroke="#000000" d="M 103.35448 147.94443 C 103.35448 149.0449 102.46239 149.93698 101.36192 149.93698 C 100.26144 149.93698 99.36937 149.0449 99.36937 147.94443 C 99.36937 146.84397 100.26144 145.95188 101.36192 145.95188 C 102.46239 145.95188 103.35448 146.84397 103.35448 147.94443 Z M 101.36192 147.94443 "/>
</g>
<symbol id="font_1_2">
<path d="M .305 .31300003 C .311 .33900003 .334 .43100003 .404 .43100003 C .409 .43100003 .433 .43100003 .454 .418 C .426 .41300003 .40600003 .388 .40600003 .36400003 C .40600003 .34800003 .417 .32900004 .444 .32900004 C .46600003 .32900004 .498 .34700004 .498 .38700003 C .498 .43900005 .439 .45300005 .405 .45300005 C .347 .45300005 .312 .40000005 .3 .37700004 C .275 .44300003 .221 .45300005 .19200002 .45300005 C .08800001 .45300005 .031000002 .32400004 .031000002 .29900003 C .031000002 .28900004 .041 .28900004 .043000007 .28900004 C .051000008 .28900004 .054000006 .291 .056 .3 C .09 .40600003 .156 .43100003 .19000001 .43100003 C .209 .43100003 .244 .42200003 .244 .36400003 C .244 .33300004 .22700002 .26600004 .19000001 .126 C .17400001 .064 .13900002 .022000002 .095000009 .022000002 C .08900001 .022000002 .06600001 .022000002 .045 .035 C .07000001 .040000004 .09200001 .061 .09200001 .089 C .09200001 .116000007 .07000001 .124000009 .055000009 .124000009 C .025 .124000009 0 .098000008 0 .06600001 C 0 .020000002 .050000006 0 .094000007 0 C .16000001 0 .19600001 .07000001 .19900002 .076000008 C .21100001 .039 .24700003 0 .307 0 C .41 0 .467 .12900001 .467 .15400002 C .467 .16400002 .458 .16400002 .455 .16400002 C .446 .16400002 .444 .16000001 .442 .15300001 C .409 .046 .341 .022000002 .30900003 .022000002 C .27 .022000002 .254 .054 .254 .08800001 C .254 .11000001 .26 .13200002 .271 .17600002 L .305 .31300003 Z "/>
</symbol>
<use xlink:href="#font_1_2" transform="matrix(9.9626,0,0,-9.9626,202.91791,163.26158)"/>
<symbol id="font_1_3">
<path d="M .45700003 .586 C .461 .6 .461 .602 .461 .609 C .461 .62700006 .447 .63600006 .432 .63600006 C .42200003 .63600006 .40600003 .63 .397 .615 C .395 .61 .387 .579 .38300003 .561 C .37600003 .535 .36900003 .508 .363 .48100005 L .318 .301 C .314 .286 .271 .21600002 .20500002 .21600002 C .15400002 .21600002 .143 .26000003 .143 .29700003 C .143 .34300003 .16000001 .40500004 .194 .49300004 C .21000001 .53400006 .21400002 .545 .21400002 .56500008 C .21400002 .61 .18200001 .6470001 .13200002 .6470001 C .037 .6470001 0 .50200006 0 .49300004 C 0 .48300005 .01 .48300005 .012 .48300005 C .022000002 .48300005 .023 .485 .028000003 .50100007 C .055000009 .595 .095000009 .625 .12900001 .625 C .13700001 .625 .15400002 .625 .15400002 .59300008 C .15400002 .568 .14400001 .54200008 .13700001 .523 C .097 .41700004 .079 .36 .079 .31300003 C .079 .224 .142 .194 .201 .194 C .24000003 .194 .274 .21100001 .30200003 .23900002 C .289 .187 .277 .13800001 .237 .08500001 C .21100001 .051 .17300001 .022 .127 .022 C .113000009 .022 .068 .025000006 .051000008 .06400001 C .067 .06400001 .080000009 .06400001 .094000007 .076000008 C .104 .08500001 .11400001 .098000008 .11400001 .117000009 C .11400001 .148 .087000008 .15200001 .07700001 .15200001 C .054000006 .15200001 .021 .136 .021 .087000008 C .021 .037 .065000008 0 .127 0 C .23 0 .333 .091000009 .361 .20400001 L .45700003 .586 Z "/>
</symbol>
<use xlink:href="#font_1_3" transform="matrix(9.9626,0,0,-9.9626,19.366915,9.652334)"/>
</svg>
