<?xml version="1.0" encoding="UTF-8" standalone="no"?>
<!DOCTYPE svg PUBLIC "-//W3C//DTD SVG 1.1//EN" "http://www.w3.org/Graphics/SVG/1.1/DTD/svg11.dtd">
<svg xmlns="http://www.w3.org/2000/svg" xmlns:xlink="http://www.w3.org/1999/xlink" version="1.1" width="160.686pt" height="36.895pt" viewBox="0 0 160.686 36.895">
<symbol id="font_0_3">
<path d="M .33900006 .38500003 C .311 .38400004 .291 .36200003 .291 .34000004 C .291 .32600004 .3 .31100003 .32200004 .31100003 C .34400005 .31100003 .36800004 .328 .36800004 .367 C .36800004 .41200004 .325 .45300005 .24900003 .45300005 C .11700001 .45300005 .08 .351 .08 .307 C .08 .22900002 .15400002 .21400002 .18300002 .20800002 C .235 .19800002 .287 .18700002 .287 .13200002 C .287 .106000009 .264 .022000002 .14400001 .022000002 C .13000001 .022000002 .053000004 .022000002 .030000002 .075 C .068 .07000001 .09300001 .1 .09300001 .128 C .09300001 .15100001 .07700001 .16300002 .056 .16300002 C .030000002 .16300002 0 .14200002 0 .097 C 0 .040000004 .057000005 0 .143 0 C .305 0 .34400005 .12100001 .34400005 .16600001 C .34400005 .20200002 .325 .22700002 .31300003 .23900002 C .286 .26700003 .25700004 .272 .21300002 .28100003 C .17700002 .28900004 .13700001 .29600004 .13700001 .34100003 C .13700001 .37000004 .16100002 .43100003 .24900003 .43100003 C .274 .43100003 .324 .42400003 .33900006 .38500003 Z "/>
</symbol>
<use xlink:href="#font_0_3" transform="matrix(9.9626,0,0,-9.9626,3.91206,9.315586)"/>
<symbol id="font_1_1">
<path d="M .075 .073 C .07100001 .060000004 .065 .035 .065 .032 C .065 .010000001 .083000008 0 .09900001 0 C .117 0 .133 .013 .138 .022 C .143 .031000004 .15100001 .063 .156 .084 C .161 .103 .172 .14900002 .178 .17400001 C .184 .19600001 .19000001 .21800001 .19500001 .24100001 C .20600002 .282 .20800002 .29 .237 .331 C .26500003 .37100003 .31200005 .423 .38700003 .423 C .44500003 .423 .44600005 .372 .44600005 .35300002 C .44600005 .293 .40300004 .18200001 .38700003 .14000002 C .37600003 .112 .37200005 .103 .37200005 .086 C .37200005 .033000005 .41600005 0 .467 0 C .56700006 0 .61100009 .13800001 .61100009 .15300001 C .61100009 .16600001 .59800007 .16600001 .595 .16600001 C .58100005 .16600001 .58000007 .16000001 .57600006 .14900002 C .55300006 .069000009 .51000007 .028 .47000004 .028 C .44900004 .028 .44500003 .042000005 .44500003 .063 C .44500003 .086 .45000003 .099 .46800006 .14400001 C .48000003 .17500001 .521 .28100003 .521 .337 C .521 .43400003 .44400005 .451 .39100004 .451 C .30800004 .451 .25200004 .4 .22200002 .36 C .21500002 .42900003 .156 .451 .114999998 .451 C .072 .451 .049 .42000003 .036000004 .397 C .014000002 .36 0 .303 0 .298 C 0 .285 .014000002 .285 .017 .285 C .031 .285 .032 .28800003 .039 .315 C .054 .374 .073 .423 .112 .423 C .138 .423 .145 .40100003 .145 .374 C .145 .35500003 .136 .31800003 .12900001 .291 C .12200001 .264 .112 .22300002 .10700001 .20100002 L .075 .073 Z "/>
</symbol>
<use xlink:href="#font_1_1" transform="matrix(6.9738,0,0,-6.9738,8.391773,10.769735)"/>
<symbol id="font_2_2">
<path d="M .63100007 .19400002 C .646 .19400002 .665 .19400002 .665 .214 C .665 .23400001 .646 .23400001 .632 .23400001 L .033 .23400001 C .019000002 .23400001 0 .23400001 0 .214 C 0 .19400002 .019000002 .19400002 .034 .19400002 L .63100007 .19400002 M .632 0 C .646 0 .665 0 .665 .02000001 C .665 .040000008 .646 .040000008 .63100007 .040000008 L .034 .040000008 C .019000002 .040000008 0 .040000008 0 .02000001 C 0 0 .019000002 0 .033 0 L .632 0 Z "/>
</symbol>
<use xlink:href="#font_2_2" transform="matrix(9.9626,0,0,-9.9626,16.81291,7.880972)"/>
<symbol id="font_0_2">
<path d="M .33300004 .38900004 C .31500004 .42600004 .286 .45300005 .24100001 .45300005 C .124 .45300005 0 .30600003 0 .16000001 C 0 .06600001 .055000005 0 .133 0 C .153 0 .20300001 .0040000008 .263 .075 C .27100004 .033000005 .30600003 0 .35400004 0 C .38900004 0 .41200004 .023000002 .42800004 .055000005 C .44500003 .091000009 .45800004 .15200001 .45800004 .15400002 C .45800004 .16400002 .44900004 .16400002 .44600005 .16400002 C .43600003 .16400002 .43500004 .16000001 .43200005 .14600002 C .41500003 .081 .397 .022000002 .35600005 .022000002 C .32900004 .022000002 .32600004 .048 .32600004 .068 C .32600004 .09 .32800005 .098000008 .33900003 .14200002 C .35000003 .18400002 .35200004 .19400002 .36100004 .23200003 L .397 .37200005 C .40400005 .40000005 .40400005 .40200005 .40400005 .40600003 C .40400005 .42300005 .39200003 .43300004 .37500004 .43300004 C .35100005 .43300004 .33600004 .411 .33300004 .38900004 M .26800005 .13000001 C .263 .112 .263 .11000001 .24800001 .093 C .20400001 .038000004 .163 .022000002 .135 .022000002 C .08499999 .022000002 .07100001 .077 .07100001 .116000007 C .07100001 .16600001 .103 .28900004 .126 .335 C .157 .39400003 .202 .43100003 .242 .43100003 C .307 .43100003 .32100005 .34900005 .32100005 .34300003 C .32100005 .337 .31900005 .33100004 .31800003 .32600004 L .26800005 .13000001 Z "/>
</symbol>
<use xlink:href="#font_0_2" transform="matrix(9.9626,0,0,-9.9626,27.169508,9.315586)"/>
<symbol id="font_3_1">
<path d="M .22600001 .63600006 C .22600001 .66300007 .224 .66400006 .19600001 .66400006 C .132 .601 .041 .6 0 .6 L 0 .564 C .023999997 .564 .09000001 .564 .14500001 .592 L .14500001 .082 C .14500001 .049000004 .14500001 .036000004 .04500001 .036000004 L .0069999995 .036000004 L .0069999995 0 C .024999999 .001 .148 .004 .185 .004 C .21600002 .004 .34200005 .001 .36400003 0 L .36400003 .036000004 L .32600004 .036000004 C .22600001 .036000004 .22600001 .049000004 .22600001 .082 L .22600001 .63600006 Z "/>
</symbol>
<use xlink:href="#font_3_1" transform="matrix(6.9738,0,0,-6.9738,32.797147,10.699997)"/>
<symbol id="font_2_1">
<path d="M .35300002 .31300003 L .632 .31300003 C .646 .31300003 .665 .31300003 .665 .333 C .665 .35300002 .646 .35300002 .632 .35300002 L .35300002 .35300002 L .35300002 .633 C .35300002 .647 .35300002 .666 .33300004 .666 C .31300003 .666 .31300003 .647 .31300003 .633 L .31300003 .35300002 L .033 .35300002 C .019000002 .35300002 0 .35300002 0 .333 C 0 .31300003 .019000002 .31300003 .033 .31300003 L .31300003 .31300003 L .31300003 .033000005 C .31300003 .019000002 .31300003 0 .33300004 0 C .35300002 0 .35300002 .019000002 .35300002 .033000005 L .35300002 .31300003 Z "/>
</symbol>
<use xlink:href="#font_2_1" transform="matrix(9.9626,0,0,-9.9626,39.27791,10.032893)"/>
<use xlink:href="#font_0_2" transform="matrix(9.9626,0,0,-9.9626,49.081506,9.315586)"/>
<symbol id="font_3_2">
<path d="M .442 .18200001 L .40800003 .18200001 C .40500004 .16000001 .39500005 .101 .38200004 .091000009 C .374 .085 .29700003 .085 .28300003 .085 L .099 .085 C .20400003 .178 .23900002 .20600002 .29900003 .25300003 C .37300004 .312 .442 .374 .442 .469 C .442 .59000006 .33600004 .66400006 .20800004 .66400006 C .084 .66400006 0 .577 0 .485 C 0 .43400003 .043000007 .42900003 .053000004 .42900003 C .077 .42900003 .10600001 .446 .10600001 .48200003 C .10600001 .5 .099 .535 .047000007 .535 C .078 .606 .146 .628 .19300002 .628 C .293 .628 .34500004 .55 .34500004 .469 C .34500004 .38200004 .28300003 .31300003 .25100003 .277 L .010000005 .039 C 0 .030000002 0 .028 0 0 L .41200004 0 L .442 .18200001 Z "/>
</symbol>
<use xlink:href="#font_3_2" transform="matrix(6.9738,0,0,-6.9738,54.38835,10.699997)"/>
<use xlink:href="#font_2_1" transform="matrix(9.9626,0,0,-9.9626,61.189908,10.032893)"/>
<use xlink:href="#font_0_2" transform="matrix(9.9626,0,0,-9.9626,70.99351,9.315586)"/>
<symbol id="font_3_3">
<path d="M .219 .35400004 C .29700003 .35400004 .35300002 .3 .35300002 .193 C .35300002 .069000009 .28100003 .032 .223 .032 C .18300002 .032 .095 .043000007 .053000008 .102000009 C .10000001 .10400001 .111 .13700001 .111 .158 C .111 .19 .087 .213 .056000007 .213 C .028 .213 0 .19600001 0 .155 C 0 .061000006 .104 0 .22500001 0 C .36400003 0 .46 .09300001 .46 .193 C .46 .27100004 .39600004 .34900005 .286 .37200005 C .39100004 .41000004 .42900003 .48500005 .42900003 .546 C .42900003 .625 .33800004 .684 .22700002 .684 C .116 .684 .031 .63 .031 .55 C .031 .51600006 .053000008 .49700005 .083000008 .49700005 C .11400001 .49700005 .134 .52 .134 .548 C .134 .577 .11400001 .598 .083000008 .6 C .118 .644 .187 .65500006 .22400002 .65500006 C .26900003 .65500006 .33200003 .633 .33200003 .546 C .33200003 .504 .31800003 .45800004 .29200004 .42700003 C .25900004 .38900004 .23100002 .38700003 .18100001 .38400004 C .156 .38200004 .154 .38200004 .149 .38100005 C .147 .38100005 .139 .37900005 .139 .36800004 C .139 .35400004 .148 .35400004 .165 .35400004 L .219 .35400004 Z "/>
</symbol>
<use xlink:href="#font_3_3" transform="matrix(6.9738,0,0,-6.9738,76.23759,10.839473)"/>
<use xlink:href="#font_2_1" transform="matrix(9.9626,0,0,-9.9626,83.101909,10.032893)"/>
<symbol id="font_0_1">
<path d="M .106 .053000004 C .106 .082 .08200001 .106000009 .05300001 .106000009 C .024000004 .106000009 0 .082 0 .053000004 C 0 .024 .024000004 0 .05300001 0 C .08200001 0 .106 .024 .106 .053000004 Z "/>
</symbol>
<use xlink:href="#font_0_1" transform="matrix(9.9626,0,0,-9.9626,93.36378,9.205997)"/>
<use xlink:href="#font_0_1" transform="matrix(9.9626,0,0,-9.9626,97.797138,9.205997)"/>
<use xlink:href="#font_0_1" transform="matrix(9.9626,0,0,-9.9626,102.22053,9.205997)"/>
<use xlink:href="#font_2_1" transform="matrix(9.9626,0,0,-9.9626,106.9019,10.032893)"/>
<use xlink:href="#font_0_2" transform="matrix(9.9626,0,0,-9.9626,116.7045,9.315586)"/>
<use xlink:href="#font_1_1" transform="matrix(6.9738,0,0,-6.9738,121.89976,10.769735)"/>
<symbol id="font_4_1">
<path d="M .63600006 0 C .65200009 0 .67600008 0 .67600008 .023999989 C .67600008 .048999996 .65300008 .048999996 .63600006 .048999996 L .04 .048999996 C .023999997 .048999996 0 .048999996 0 .025000006 C 0 0 .02300001 0 .04 0 L .63600006 0 Z "/>
</symbol>
<use xlink:href="#font_4_1" transform="matrix(6.9738,0,0,-6.9738,127.25017,9.123919)"/>
<use xlink:href="#font_3_1" transform="matrix(6.9738,0,0,-6.9738,133.48413,10.699997)"/>
<symbol id="font_5_3">
<path d="M .484 .09200001 C .484 .115 .484 .120000008 .47 .120000008 C .409 .12100001 .31 .12900001 .22000002 .17300001 C .112 .22700002 .071 .29000003 .046000005 .32900004 C .043 .33400003 .037 .33400003 .024 .33400003 C .0009999983 .33400003 0 .333 0 .30800004 L 0 .29200004 C .136 .047000003 .361 0 .463 0 C .484 0 .484 .001 .484 .028 L .484 .09200001 Z "/>
</symbol>
<use xlink:href="#font_5_3" transform="matrix(9.9626,0,0,-9.9626,26.531882,15.714996)"/>
<path transform="matrix(1,0,0,-1,31.254006,15.714996)" d="M 0 0 L 46.245 0 L 46.245 1.195 L 0 1.195 Z "/>
<symbol id="font_5_2">
<path d="M .48400004 .04200001 C .34800003 .28700004 .123 .33400003 .021000002 .33400003 C 0 .33400003 0 .333 0 .30600003 L 0 .24200002 C 0 .21900001 0 .21400002 .014 .21400002 C .075 .21300002 .17400001 .20500002 .264 .16100002 C .372 .10700001 .41300003 .044000016 .43800003 .00500001 C .441 0 .447 0 .46 0 C .483 0 .48400004 .001000002 .48400004 .026000008 L .48400004 .04200001 Z "/>
</symbol>
<symbol id="font_5_1">
<path d="M .484 .30600003 C .484 .333 .484 .33400003 .463 .33400003 C .361 .33400003 .136 .286 0 .04200001 L 0 .026000008 C 0 .001000002 .0009999983 0 .024 0 C .043 0 .044 .001000002 .049000004 .008000001 C .13100001 .13900002 .269 .21000003 .472 .21400002 C .484 .21400002 .484 .22100002 .484 .24200002 L .484 .30600003 Z "/>
</symbol>
<use xlink:href="#font_5_2" transform="matrix(9.9626,0,0,-9.9626,77.39938,17.846993)"/>
<use xlink:href="#font_5_1" transform="matrix(9.9626,0,0,-9.9626,81.74307,17.846993)"/>
<path transform="matrix(1,0,0,-1,86.465007,15.714996)" d="M 0 0 L 46.245 0 L 46.245 1.195 L 0 1.195 Z "/>
<symbol id="font_5_4">
<path d="M .48400004 .30800004 C .48400004 .333 .483 .33400003 .46 .33400003 C .441 .33400003 .44 .333 .435 .326 C .35300002 .19500001 .21500002 .124000009 .012000001 .120000008 C 0 .120000008 0 .113000009 0 .09200001 L 0 .028 C 0 .001 0 0 .021000002 0 C .123 0 .34800003 .048 .48400004 .29200004 L .48400004 .30800004 Z "/>
</symbol>
<use xlink:href="#font_5_4" transform="matrix(9.9626,0,0,-9.9626,132.61038,15.714996)"/>
<use xlink:href="#font_2_1" transform="matrix(9.9626,0,0,-9.9626,139.41191,10.032893)"/>
<use xlink:href="#font_0_2" transform="matrix(9.9626,0,0,-9.9626,147.0005,9.315586)"/>
<use xlink:href="#font_1_1" transform="matrix(6.9738,0,0,-6.9738,152.19579,10.769735)"/>
<symbol id="font_6_1">
<path d="M .38300003 .611 C .39000006 .64000007 .397 .643 .40600003 .64400008 C .41300006 .646 .44200004 .646 .46000005 .646 C .55600008 .646 .591 .638 .591 .57000008 C .591 .544 .58400008 .49800004 .58300009 .49 C .5820001 .485 .57900008 .469 .57900008 .46500004 C .57900008 .45200003 .59300008 .45200003 .5960001 .45200003 C .60800006 .45200003 .61200007 .45400004 .61500009 .47300003 L .64300009 .651 C .64300009 .65300008 .64500007 .66200008 .64500007 .66300007 C .64500007 .67700007 .63500007 .67700007 .61800006 .67700007 L .09400003 .67700007 C .073 .67700007 .07000001 .67700007 .06400001 .65900006 L .004000008 .47900004 C .004000008 .47800002 0 .46600003 0 .46500004 C 0 .45200003 .012000009 .45200003 .016000003 .45200003 C .02000001 .45200003 .025000006 .45200003 .028000012 .455 C .031000004 .45700003 .031000004 .45900003 .040000008 .483 C .09000002 .62600007 .115000028 .646 .24900003 .646 C .268 .646 .291 .646 .30700005 .643 C .30700005 .632 .30700005 .63000008 .30300004 .615 L .16900002 .07700001 C .16000001 .042000005 .15300001 .031000002 .06300001 .031000002 L .04900001 .031000002 C .033000009 .031000002 .02000001 .031000002 .02000001 .013 C .02000001 0 .03400001 0 .037000017 0 C .087 0 .14 .003 .19100003 .003 C .24200003 .003 .296 0 .34600003 0 C .35400004 0 .36700005 0 .36700005 .018000002 C .36700005 .031000002 .35700006 .031000002 .34100003 .031000002 L .32600004 .031000002 C .31100006 .031000002 .291 .032 .27600003 .033 C .25300003 .036000004 .24500002 .037 .24500002 .053000004 C .24500002 .057000005 .24500002 .059000005 .24900003 .07300001 L .38300003 .611 Z "/>
</symbol>
<symbol id="font_6_2">
<path d="M .229 .67300006 C .23200003 .68700006 .23300001 .688 .23300001 .691 C .23300001 .704 .224 .70600005 .20700002 .704 L .103 .695 C .088 .694 .07800001 .693 .07800001 .676 C .07800001 .663 .088 .663 .105000007 .663 C .15200001 .663 .15200001 .65500006 .15200001 .646 C .15200001 .645 .15200001 .639 .148 .624 L .0040000008 .048 C 0 .034 0 .032 0 .028 C 0 .013000001 .011 0 .030000002 0 C .061000006 0 .067 .025000003 .074 .055000005 C .085999999 .098000008 .085999999 .1 .096 .14100002 C .10700001 .18400002 .120000008 .23600002 .128 .27100004 C .139 .31200005 .15900001 .35000003 .18900001 .38000003 C .204 .395 .23700002 .42800004 .291 .42800004 C .32900004 .42800004 .33800004 .395 .33800004 .36300005 C .33800004 .305 .29500003 .18700002 .278 .14200002 C .266 .109000008 .264 .10300001 .264 .082 C .264 .028 .30200003 0 .34300003 0 C .438 0 .475 .14700002 .475 .15400002 C .475 .16600001 .46200005 .16600001 .45800004 .16600001 C .44400005 .16600001 .44300006 .16300002 .437 .14200002 C .42700003 .106000009 .39900003 .025000003 .34500004 .025000003 C .337 .025000003 .324 .026 .324 .053000004 C .324 .077 .33600004 .109000008 .344 .13100001 C .36200003 .17900002 .40300004 .29000003 .40300004 .34700004 C .40300004 .41400004 .363 .45300005 .293 .45300005 C .238 .45300005 .194 .42800004 .15900001 .39100004 L .229 .67300006 Z "/>
</symbol>
<symbol id="font_6_3">
<path d="M .24800003 .634 C .24800003 .65000006 .236 .667 .215 .667 C .19100002 .667 .16700001 .646 .16700001 .621 C .16700001 .593 .19000003 .587 .201 .587 C .22600001 .587 .24800003 .61 .24800003 .634 M .26000003 .15400002 C .26000003 .16600001 .24700001 .16600001 .243 .16600001 C .229 .16600001 .22800002 .16300002 .222 .14200002 C .21200001 .106000009 .18400002 .025000003 .13000001 .025000003 C .12200001 .025000003 .10900001 .026 .10900001 .053000004 C .10900001 .07000001 .11500001 .093 .12600002 .124000009 C .14000002 .16100002 .14000002 .16300002 .157 .20500002 L .19100002 .29900003 C .20000002 .32200004 .21100003 .35200004 .21100003 .37100003 C .21100003 .42000003 .17700002 .45300005 .13200002 .45300005 C .037000009 .45300005 0 .30800004 0 .29900003 C 0 .28700004 .012000002 .28700004 .017000005 .28700004 C .031000004 .28700004 .032000007 .29200004 .036000007 .30400003 C .043000007 .33 .07000001 .42800004 .12900001 .42800004 C .13900002 .42800004 .15 .42600004 .15 .40000005 C .15 .37600003 .143 .35600005 .12600002 .30900003 L .091000009 .21600002 C .08500001 .19800002 .069000009 .15600002 .066 .14700002 C .058000015 .126 .04900001 .102000009 .04900001 .082 C .04900001 .028 .08700001 0 .128 0 C .22300002 0 .26000003 .14700002 .26000003 .15400002 Z "/>
</symbol>
<symbol id="font_6_4">
<path d="M .316 .381 C .279 .374 .279 .34300003 .279 .34100003 C .279 .33200003 .28500004 .31300003 .30900003 .31300003 C .331 .31300003 .35200004 .33 .35200004 .367 C .35200004 .41200004 .312 .45300005 .24000001 .45300005 C .12300001 .45300005 .078999999 .36 .078999999 .305 C .078999999 .22700002 .14600002 .21300002 .176 .20600002 C .22300002 .19600001 .268 .18600002 .268 .134 C .268 .105000007 .24400002 .025000003 .135 .025000003 C .109 .025000003 .053000004 .032 .037 .079 C .08400001 .08400001 .08400001 .12500002 .08400001 .126 C .08400001 .15300001 .061000006 .15900001 .049999998 .15900001 C .044 .15900001 0 .15600002 0 .097 C 0 .041 .053000004 0 .135 0 C .28800003 0 .32700003 .12200001 .32700003 .16700001 C .32700003 .19500003 .317 .22100002 .29700003 .24200002 C .271 .268 .248 .27300004 .20300001 .28200004 C .17300001 .28900004 .13700001 .29600004 .13700001 .33900003 C .13700001 .35700003 .15300001 .42800004 .24000001 .42800004 C .27 .42800004 .30600003 .41600005 .316 .381 Z "/>
</symbol>
<use xlink:href="#font_6_1" transform="matrix(8.9664,0,0,-8.9664,59.839056,31.674)"/>
<use xlink:href="#font_6_2" transform="matrix(8.9664,0,0,-8.9664,65.52375,31.77263)"/>
<use xlink:href="#font_6_3" transform="matrix(8.9664,0,0,-8.9664,70.27595,31.77263)"/>
<use xlink:href="#font_6_4" transform="matrix(8.9664,0,0,-8.9664,73.055538,31.77263)"/>
<use xlink:href="#font_6_3" transform="matrix(8.9664,0,0,-8.9664,80.15693,31.77263)"/>
<use xlink:href="#font_6_4" transform="matrix(8.9664,0,0,-8.9664,82.936519,31.77263)"/>
<symbol id="font_7_1">
<path d="M .344 .38500003 C .301 .381 .29700003 .34700004 .29700003 .34000004 C .29700003 .323 .31 .31000004 .32900004 .31000004 C .35700003 .31000004 .37600003 .33300004 .37600003 .36600004 C .37600003 .41600005 .32700003 .45300005 .25300003 .45300005 C .119 .45300005 .081 .35300002 .081 .307 C .081 .26900003 .10000001 .24900002 .113000009 .23700002 C .133 .21800003 .16000001 .21200001 .19600001 .20500002 C .241 .19600001 .25100003 .19400002 .26900003 .18100001 C .28500004 .16900002 .294 .15300001 .294 .13200002 C .294 .106000009 .27 .025000003 .149 .025000003 C .126 .025000003 .056 .028 .034 .074 C .08400001 .074 .094 .11400001 .094 .128 C .094 .158 .067 .16400002 .056 .16400002 C .038000004 .16400002 0 .15000002 0 .098000008 C 0 .036000004 .063 0 .148 0 C .316 0 .35300002 .123 .35300002 .16600001 C .35300002 .20400001 .33200003 .22800002 .32000003 .24000003 C .294 .26700003 .26200003 .27300004 .227 .28000004 C .215 .28300003 .193 .28700004 .19000001 .28800003 C .157 .29500003 .139 .31500004 .139 .34000004 C .139 .351 .14600002 .38300003 .17400001 .40500004 C .20200002 .42700003 .24000001 .42800004 .25300003 .42800004 C .28800003 .42800004 .32900004 .41700004 .344 .38500003 Z "/>
</symbol>
<use xlink:href="#font_7_1" transform="matrix(8.9664,0,0,-8.9664,89.77823,31.77263)"/>
<symbol id="font_8_1">
<path d="M .23200001 .356 C .22700002 .432 .157 .451 .119 .451 C .081 .451 .055 .428 .037 .396 C .012000002 .35500003 0 .30200003 0 .298 C 0 .287 .008999996 .283 .018 .283 C .034 .283 .034999998 .29 .04 .306 C .060000004 .386 .08400001 .418 .116 .418 C .15200001 .418 .15200001 .377 .15200001 .367 C .15200001 .351 .142 .31100003 .135 .283 C .128 .256 .118 .21500002 .113000009 .19300002 C .106000009 .16800002 .10000001 .142 .09300001 .117000009 C .085999999 .089 .074 .039 .074 .033000005 C .074 .011000001 .091000009 0 .109 0 C .127 0 .14400001 .012000001 .15200001 .027000003 C .154 .033000005 .163 .068 .16800002 .088 L .19000001 .17800002 C .19700001 .20400001 .20100002 .22200002 .207 .24500002 C .216 .279 .251 .33200003 .288 .36900003 C .30800004 .388 .351 .418 .40500004 .418 C .46900005 .418 .46900005 .367 .46900005 .34800003 C .46900005 .289 .426 .18200001 .408 .13700001 C .402 .120000008 .39500005 .104 .39500005 .087000008 C .39500005 .036000004 .44100005 0 .49600006 0 C .59700009 0 .647 .13200002 .647 .15400002 C .647 .15600002 .646 .16800002 .628 .16800002 C .614 .16800002 .61300006 .16300002 .60700008 .14400001 C .591 .091 .55 .033000005 .499 .033000005 C .48000003 .033000005 .47200007 .048000006 .47200007 .069000009 C .47200007 .089 .47900004 .106 .48800005 .127 C .503 .16600001 .54800006 .279 .54800006 .335 C .54800006 .417 .48600007 .451 .41000004 .451 C .36 .451 .296 .435 .23200001 .356 Z "/>
</symbol>
<use xlink:href="#font_8_1" transform="matrix(5.9776,0,0,-5.9776,93.95963,32.730779)"/>
<symbol id="font_9_1">
<path d="M .67100009 0 C .68700006 0 .712 0 .712 .025999994 C .712 .052000017 .68700006 .052000017 .67100009 .052000017 L .04100001 .052000017 C .025000006 .052000017 0 .052000017 0 .025999994 C 0 0 .025000006 0 .04100001 0 L .67100009 0 Z "/>
</symbol>
<use xlink:href="#font_9_1" transform="matrix(5.9776,0,0,-5.9776,98.9432,31.33202)"/>
<symbol id="font_a_1">
<path d="M .23800002 .63500007 C .23800002 .665 .23400001 .665 .20400001 .665 C .138 .601 .036 .601 0 .601 L 0 .56200006 C .025999994 .56200006 .09200001 .56200006 .152 .59000006 L .152 .085 C .152 .052 .152 .039 .048999996 .039 L .0059999974 .039 L .0059999974 0 C .061000006 .004 .13900002 .004 .19500001 .004 C .251 .004 .329 .004 .384 0 L .384 .039 L .34100003 .039 C .23800002 .039 .23800002 .052 .23800002 .085 L .23800002 .63500007 Z "/>
</symbol>
<use xlink:href="#font_a_1" transform="matrix(5.9776,0,0,-5.9776,104.675289,32.671)"/>
</svg>
