<?xml version="1.0" encoding="UTF-8" standalone="no"?>
<!DOCTYPE svg PUBLIC "-//W3C//DTD SVG 1.1//EN" "http://www.w3.org/Graphics/SVG/1.1/DTD/svg11.dtd">
<svg xmlns="http://www.w3.org/2000/svg" xmlns:xlink="http://www.w3.org/1999/xlink" version="1.1" width="270.26pt" height="113.808pt" viewBox="0 0 270.26 113.808">
<path transform="matrix(1,0,0,-1,14.095,111.951999)" stroke-width="1" stroke-linecap="butt" stroke-miterlimit="10" stroke-linejoin="miter" fill="none" stroke="#808080" d="M 14.73755 11.5521 L 14.73755 15.80414 M 29.47511 11.5521 L 29.47511 15.80414 M 44.21266 11.5521 L 44.21266 15.80414 M 58.95023 11.5521 L 58.95023 15.80414 M 73.68777 11.5521 L 73.68777 15.80414 M 88.42534 11.5521 L 88.42534 15.80414 M 103.1629 11.5521 L 103.1629 15.80414 M 117.90045 11.5521 L 117.90045 15.80414 M 132.63802 11.5521 L 132.63802 15.80414 M 147.37557 11.5521 L 147.37557 15.80414 M 162.11313 11.5521 L 162.11313 15.80414 M 176.8507 11.5521 L 176.8507 15.80414 M 191.58824 11.5521 L 191.58824 15.80414 M 206.3258 11.5521 L 206.3258 15.80414 M 221.06336 11.5521 L 221.06336 15.80414 M 235.80092 11.5521 L 235.80092 15.80414 "/>
<path transform="matrix(1,0,0,-1,14.095,111.951999)" stroke-width="1" stroke-linecap="butt" stroke-miterlimit="10" stroke-linejoin="miter" fill="none" stroke="#808080" d="M -2.12636 47.87346 L 2.12636 47.87346 M -2.12636 82.06879 L 2.12636 82.06879 "/>
<path transform="matrix(1,0,0,-1,14.095,111.951999)" stroke-width="1" stroke-linecap="butt" stroke-miterlimit="10" stroke-linejoin="miter" fill="none" stroke="#000000" d="M 0 13.67813 L 241.17717 13.67813 "/>
<path transform="matrix(1,0,0,-1,255.27217,98.273868)" d="M 1.99252 0 L -1.19551 1.59401 L 0 0 L -1.19551 -1.59401 "/>
<path transform="matrix(1,0,0,-1,14.095,111.951999)" stroke-width="1" stroke-linecap="butt" stroke-miterlimit="10" stroke-linejoin="miter" fill="none" stroke="#000000" d="M 0 0 L 0 97.17392 "/>
<path transform="matrix(0,-1,-1,-0,14.095,14.778076)" d="M 1.99252 0 L -1.19551 1.59401 L 0 0 L -1.19551 -1.59401 "/>
<symbol id="font_0_2">
<path d="M .205 .64000007 C .205 .66400006 .205 .666 .18200003 .666 C .120000008 .60200008 .032000007 .60200008 0 .60200008 L 0 .57100006 C .020000004 .57100006 .07900001 .57100006 .13100001 .597 L .13100001 .079 C .13100001 .043 .128 .031000002 .038000004 .031000002 L .0060000049 .031000002 L .0060000049 0 C .04100001 .003 .128 .003 .168 .003 C .20800002 .003 .29500003 .003 .33000005 0 L .33000005 .031000002 L .29800005 .031000002 C .20800002 .031000002 .205 .042000005 .205 .079 L .205 .64000007 Z "/>
</symbol>
<use xlink:href="#font_0_2" transform="matrix(9.9626,0,0,-9.9626,27.22867,110.413997)"/>
<symbol id="font_0_3">
<path d="M .07700001 .07700001 L .18300002 .18 C .33900003 .31800003 .39900003 .372 .39900003 .47200004 C .39900003 .586 .30900003 .666 .18700002 .666 C .074 .666 0 .574 0 .485 C 0 .42900003 .05 .42900003 .053000008 .42900003 C .07000001 .42900003 .105000007 .441 .105000007 .48200003 C .105000007 .508 .08700001 .53400006 .052000006 .53400006 C .044000005 .53400006 .042000008 .53400006 .039 .53300008 C .062000004 .59800007 .11600001 .63500007 .17400001 .63500007 C .26500003 .63500007 .308 .554 .308 .47200004 C .308 .39200003 .25800003 .31300003 .20300003 .25100003 L .011000004 .037 C 0 .026 0 .024 0 0 L .37100003 0 L .39900003 .17400001 L .374 .17400001 C .36900003 .14400001 .36200003 .1 .352 .085 C .345 .07700001 .279 .07700001 .257 .07700001 L .07700001 .07700001 Z "/>
</symbol>
<use xlink:href="#font_0_3" transform="matrix(9.9626,0,0,-9.9626,41.578134,110.413997)"/>
<symbol id="font_0_4">
<path d="M .24800003 .37400005 C .33 .40100003 .388 .47100006 .388 .55 C .388 .632 .3 .688 .204 .688 C .10300001 .688 .027000003 .628 .027000003 .55200007 C .027000003 .519 .049000004 .5 .078 .5 C .109000008 .5 .12900001 .522 .12900001 .55100008 C .12900001 .6010001 .082 .6010001 .067 .6010001 C .098 .65000006 .164 .66300007 .20000002 .66300007 C .24100003 .66300007 .29600004 .64100006 .29600004 .55100008 C .29600004 .53900006 .29400004 .48100005 .268 .43700005 C .238 .38900004 .204 .38600005 .17900002 .38500003 C .171 .38400004 .14700002 .38200004 .14000002 .38200004 C .132 .38100005 .125 .38000003 .125 .37000004 C .125 .35900004 .132 .35900004 .14900002 .35900004 L .19300002 .35900004 C .275 .35900004 .312 .29100005 .312 .193 C .312 .057000005 .24300003 .028 .199 .028 C .15600002 .028 .081 .045 .046000005 .104 C .081 .09900001 .11200001 .12100001 .11200001 .15900001 C .11200001 .19500001 .085 .215 .056 .215 C .031999999 .215 0 .201 0 .157 C 0 .06600001 .093 0 .20200002 0 C .32400004 0 .41500003 .091000009 .41500003 .193 C .41500003 .27500005 .35200004 .35300005 .24800003 .37400005 Z "/>
</symbol>
<use xlink:href="#font_0_4" transform="matrix(9.9626,0,0,-9.9626,56.23543,110.63317)"/>
<symbol id="font_0_5">
<path d="M .266 .165 L .266 .078 C .266 .042000005 .26400004 .031000002 .19000001 .031000002 L .16900002 .031000002 L .16900002 0 C .21000001 .003 .26200003 .003 .30400003 .003 C .34600003 .003 .39900003 .003 .44000004 0 L .44000004 .031000002 L .41900004 .031000002 C .34500004 .031000002 .34300003 .042000005 .34300003 .078 L .34300003 .165 L .44300003 .165 L .44300003 .19600001 L .34300003 .19600001 L .34300003 .651 C .34300003 .671 .34300003 .67700007 .32700003 .67700007 C .31800003 .67700007 .31500004 .67700007 .307 .665 L 0 .19600001 L 0 .165 L .266 .165 M .272 .19600001 L .028 .19600001 L .272 .569 L .272 .19600001 Z "/>
</symbol>
<use xlink:href="#font_0_5" transform="matrix(9.9626,0,0,-9.9626,70.832958,110.413997)"/>
<symbol id="font_0_6">
<path d="M .39900003 .223 C .39900003 .34200005 .317 .44200004 .209 .44200004 C .16100002 .44200004 .118000019 .42600004 .082 .39100004 L .082 .586 C .10200001 .58000007 .135 .573 .16700001 .573 C .29 .573 .36 .66400006 .36 .67700007 C .36 .683 .357 .688 .35 .688 C .349 .688 .347 .688 .342 .68500009 C .322 .67600008 .273 .656 .20600002 .656 C .16600001 .656 .120000008 .66300007 .073 .6840001 C .065 .68700006 .06300001 .68700006 .061000009 .68700006 C .051000004 .68700006 .051000004 .679 .051000004 .66300007 L .051000004 .36700005 C .051000004 .34900005 .051000004 .34100003 .065 .34100003 C .07200001 .34100003 .074 .34400005 .07800001 .35000003 C .08900002 .36600004 .12600002 .42000006 .207 .42000006 C .259 .42000006 .284 .37400005 .292 .35600005 C .308 .31900005 .31 .28000004 .31 .23 C .31 .19500001 .31 .135 .286 .093 C .262 .054000006 .22500001 .028 .17900002 .028 C .106000009 .028 .049000008 .08100001 .032 .14000002 C .035 .13900002 .038000008 .13800001 .049000008 .13800001 C .082 .13800001 .09900001 .163 .09900001 .187 C .09900001 .21100001 .082 .23600002 .049000008 .23600002 C .035 .23600002 0 .22900002 0 .18300002 C 0 .097 .069000009 0 .18100001 0 C .297 0 .39900003 .096 .39900003 .223 Z "/>
</symbol>
<use xlink:href="#font_0_6" transform="matrix(9.9626,0,0,-9.9626,85.79013,110.63317)"/>
<symbol id="font_0_7">
<path d="M .089999999 .35000003 L .089999999 .37400005 C .089999999 .62700006 .21400002 .66300007 .26500003 .66300007 C .28900004 .66300007 .33100004 .65700009 .35300002 .623 C .33800004 .623 .298 .623 .298 .57800009 C .298 .54700008 .32200004 .53200009 .344 .53200009 C .36 .53200009 .39000003 .54100009 .39000003 .58000007 C .39000003 .64000007 .34600003 .688 .263 .688 C .13499999 .688 0 .559 0 .33800004 C 0 .071 .116000007 0 .20900002 0 C .32000003 0 .41500003 .094000007 .41500003 .22600001 C .41500003 .35300005 .32600004 .44900004 .215 .44900004 C .14700002 .44900004 .11000001 .39800004 .089999999 .35000003 M .20900002 .028 C .146 .028 .116000007 .088 .11000001 .103 C .092 .15 .092 .23 .092 .24800001 C .092 .32600004 .124000009 .42600004 .21400002 .42600004 C .23000002 .42600004 .27600003 .42600004 .307 .36400003 C .32500003 .32700003 .32500003 .27600003 .32500003 .22700002 C .32500003 .179 .32500003 .12900001 .30800004 .093 C .27800004 .033000005 .23200003 .028 .20900002 .028 Z "/>
</symbol>
<use xlink:href="#font_0_7" transform="matrix(9.9626,0,0,-9.9626,100.447429,110.63317)"/>
<symbol id="font_0_8">
<path d="M .42000003 .63100007 C .42900003 .64300009 .42900003 .64500007 .42900003 .66600009 L .18600002 .66600009 C .064 .66600009 .062000008 .679 .058000007 .6980001 L .033 .6980001 L 0 .49200005 L .024999999 .49200005 C .028000005 .508 .037 .57100006 .050000006 .58300009 C .057000005 .58900007 .13500002 .58900007 .148 .58900007 L .35500003 .58900007 C .344 .573 .26500003 .46400006 .24300003 .43100003 C .153 .29600004 .12000001 .157 .12000001 .055 C .12000001 .045 .12000001 0 .16600001 0 C .21200001 0 .21200001 .045 .21200001 .055 L .21200001 .106000009 C .21200001 .16100002 .21500004 .216 .22300002 .27 C .22700003 .29300005 .24100003 .37900005 .28500004 .44100005 L .42000003 .63100007 Z "/>
</symbol>
<use xlink:href="#font_0_8" transform="matrix(9.9626,0,0,-9.9626,115.323909,110.63317)"/>
<symbol id="font_0_9">
<path d="M .121 .47900004 C .075 .509 .071 .54300007 .071 .56000009 C .071 .62100008 .136 .66300007 .20700002 .66300007 C .28000004 .66300007 .344 .61100009 .344 .53900006 C .344 .48200003 .305 .43400005 .245 .39900003 L .121 .47900004 M .26700003 .38400004 C .33900003 .42100004 .388 .47300006 .388 .53900006 C .388 .63100007 .29900003 .688 .208 .688 C .108 .688 .027000003 .614 .027000003 .521 C .027000003 .503 .029 .45800004 .071 .41100005 C .082 .39900003 .11900001 .37400005 .144 .35700003 C .086 .32800005 0 .272 0 .17300001 C 0 .067 .102000009 0 .20700002 0 C .32000003 0 .41500003 .083000008 .41500003 .19000001 C .41500003 .22600001 .404 .27100004 .36600004 .31300003 C .34700004 .33400003 .33100004 .34400005 .26700003 .38400004 M .167 .34200005 L .29000003 .26400004 C .31800003 .245 .365 .215 .365 .154 C .365 .080000009 .29000003 .028 .208 .028 C .122 .028 .050000006 .09 .050000006 .17300001 C .050000006 .231 .082 .29500003 .167 .34200005 Z "/>
</symbol>
<use xlink:href="#font_0_9" transform="matrix(9.9626,0,0,-9.9626,129.92243,110.63317)"/>
<symbol id="font_0_a">
<path d="M .32500003 .34000004 L .32500003 .30800004 C .32500003 .074 .22100002 .028 .16300002 .028 C .146 .028 .092 .030000002 .065000008 .064 C .109000008 .064 .117000009 .093 .117000009 .11000001 C .117000009 .141 .093 .156 .071 .156 C .055 .156 .024999999 .147 .024999999 .108 C .024999999 .041 .079 0 .164 0 C .293 0 .41500003 .136 .41500003 .35100005 C .41500003 .62000009 .3 .688 .21100003 .688 C .15600002 .688 .107 .67 .064 .62500008 C .023000002 .58000007 0 .53800007 0 .46300004 C 0 .33800004 .08800001 .24000001 .20000002 .24000001 C .261 .24000001 .30200003 .28200004 .32500003 .34000004 M .201 .263 C .185 .263 .139 .263 .108 .32600004 C .089999999 .36300005 .089999999 .41300006 .089999999 .46200005 C .089999999 .51600006 .089999999 .563 .11100001 .6 C .13800001 .65000006 .176 .66300007 .21100003 .66300007 C .25700004 .66300007 .29000003 .62900009 .307 .58400008 C .31900005 .55200007 .323 .48900003 .323 .44300006 C .323 .36000005 .28900004 .263 .201 .263 Z "/>
</symbol>
<use xlink:href="#font_0_a" transform="matrix(9.9626,0,0,-9.9626,144.65943,110.63317)"/>
<symbol id="font_0_1">
<path d="M .421 .34200005 C .421 .42200003 .416 .50200006 .381 .57600006 C .335 .67200008 .25300003 .688 .211 .688 C .15100001 .688 .07800001 .66200008 .037000006 .56900009 C .0050000029 .5 0 .42200003 0 .34200005 C 0 .26700003 .0040000008 .177 .045000007 .101 C .088 .020000002 .161 0 .21000001 0 C .264 0 .34 .021000002 .384 .116000007 C .416 .185 .421 .263 .421 .34200005 M .21000001 .022000002 C .171 .022000002 .112 .047000003 .094 .143 C .083000008 .20300001 .083000008 .29500003 .083000008 .35400004 C .083000008 .41800005 .083000008 .48400004 .091000009 .53800007 C .11 .65700009 .185 .66600009 .21000001 .66600009 C .243 .66600009 .30900003 .64800009 .328 .549 C .338 .49300004 .338 .41700004 .338 .35400004 C .338 .279 .338 .21100001 .32700003 .147 C .312 .052 .255 .022000002 .21000001 .022000002 Z "/>
</symbol>
<use xlink:href="#font_0_2" transform="matrix(9.9626,0,0,-9.9626,157.37468,110.413997)"/>
<use xlink:href="#font_0_1" transform="matrix(9.9626,0,0,-9.9626,161.85784,110.63317)"/>
<use xlink:href="#font_0_2" transform="matrix(9.9626,0,0,-9.9626,172.11168,110.413997)"/>
<use xlink:href="#font_0_2" transform="matrix(9.9626,0,0,-9.9626,177.09297,110.413997)"/>
<use xlink:href="#font_0_2" transform="matrix(9.9626,0,0,-9.9626,186.84967,110.413997)"/>
<use xlink:href="#font_0_3" transform="matrix(9.9626,0,0,-9.9626,191.44242,110.413997)"/>
<use xlink:href="#font_0_2" transform="matrix(9.9626,0,0,-9.9626,201.58667,110.413997)"/>
<use xlink:href="#font_0_4" transform="matrix(9.9626,0,0,-9.9626,206.09972,110.63317)"/>
<use xlink:href="#font_0_2" transform="matrix(9.9626,0,0,-9.9626,216.32367,110.413997)"/>
<use xlink:href="#font_0_5" transform="matrix(9.9626,0,0,-9.9626,220.69724,110.413997)"/>
<use xlink:href="#font_0_2" transform="matrix(9.9626,0,0,-9.9626,231.06168,110.413997)"/>
<use xlink:href="#font_0_6" transform="matrix(9.9626,0,0,-9.9626,235.65442,110.63317)"/>
<use xlink:href="#font_0_2" transform="matrix(9.9626,0,0,-9.9626,245.79868,110.413997)"/>
<use xlink:href="#font_0_7" transform="matrix(9.9626,0,0,-9.9626,250.31172,110.63317)"/>
<use xlink:href="#font_0_2" transform="matrix(9.9626,0,0,-9.9626,4.2806718,67.289)"/>
<use xlink:href="#font_0_3" transform="matrix(9.9626,0,0,-9.9626,3.8921302,33.093996)"/>
<path transform="matrix(1,0,0,-1,14.095,111.951999)" d="M 16.7301 42.4022 C 16.7301 43.50267 15.83803 44.39476 14.73755 44.39476 C 13.63708 44.39476 12.745 43.50267 12.745 42.4022 C 12.745 41.30173 13.63708 40.40965 14.73755 40.40965 C 15.83803 40.40965 16.7301 41.30173 16.7301 42.4022 Z M 14.73755 42.4022 " fill="#000080"/>
<path transform="matrix(1,0,0,-1,14.095,111.951999)" stroke-width="1.59404" stroke-linecap="butt" stroke-miterlimit="10" stroke-linejoin="miter" fill="none" stroke="#000080" d="M 16.7301 42.4022 C 16.7301 43.50267 15.83803 44.39476 14.73755 44.39476 C 13.63708 44.39476 12.745 43.50267 12.745 42.4022 C 12.745 41.30173 13.63708 40.40965 14.73755 40.40965 C 15.83803 40.40965 16.7301 41.30173 16.7301 42.4022 Z M 14.73755 42.4022 "/>
<path transform="matrix(1,0,0,-1,14.095,111.951999)" d="M 31.46767 73.51996 C 31.46767 74.62042 30.57558 75.51251 29.47511 75.51251 C 28.37463 75.51251 27.48256 74.62042 27.48256 73.51996 C 27.48256 72.41948 28.37463 71.5274 29.47511 71.5274 C 30.57558 71.5274 31.46767 72.41948 31.46767 73.51996 Z M 29.47511 73.51996 " fill="#000080"/>
<path transform="matrix(1,0,0,-1,14.095,111.951999)" stroke-width="1.59404" stroke-linecap="butt" stroke-miterlimit="10" stroke-linejoin="miter" fill="none" stroke="#000080" d="M 31.46767 73.51996 C 31.46767 74.62042 30.57558 75.51251 29.47511 75.51251 C 28.37463 75.51251 27.48256 74.62042 27.48256 73.51996 C 27.48256 72.41948 28.37463 71.5274 29.47511 71.5274 C 30.57558 71.5274 31.46767 72.41948 31.46767 73.51996 Z M 29.47511 73.51996 "/>
<path transform="matrix(1,0,0,-1,14.095,111.951999)" d="M 46.20522 78.3073 C 46.20522 79.40778 45.31314 80.29985 44.21266 80.29985 C 43.1122 80.29985 42.22011 79.40778 42.22011 78.3073 C 42.22011 77.20683 43.1122 76.31474 44.21266 76.31474 C 45.31314 76.31474 46.20522 77.20683 46.20522 78.3073 Z M 44.21266 78.3073 " fill="#000080"/>
<path transform="matrix(1,0,0,-1,14.095,111.951999)" stroke-width="1.59404" stroke-linecap="butt" stroke-miterlimit="10" stroke-linejoin="miter" fill="none" stroke="#000080" d="M 46.20522 78.3073 C 46.20522 79.40778 45.31314 80.29985 44.21266 80.29985 C 43.1122 80.29985 42.22011 79.40778 42.22011 78.3073 C 42.22011 77.20683 43.1122 76.31474 44.21266 76.31474 C 45.31314 76.31474 46.20522 77.20683 46.20522 78.3073 Z M 44.21266 78.3073 "/>
<path transform="matrix(1,0,0,-1,14.095,111.951999)" d="M 60.94278 52.6608 C 60.94278 53.76128 60.05069 54.65335 58.95023 54.65335 C 57.84975 54.65335 56.95767 53.76128 56.95767 52.6608 C 56.95767 51.56033 57.84975 50.66824 58.95023 50.66824 C 60.05069 50.66824 60.94278 51.56033 60.94278 52.6608 Z M 58.95023 52.6608 " fill="#000080"/>
<path transform="matrix(1,0,0,-1,14.095,111.951999)" stroke-width="1.59404" stroke-linecap="butt" stroke-miterlimit="10" stroke-linejoin="miter" fill="none" stroke="#000080" d="M 60.94278 52.6608 C 60.94278 53.76128 60.05069 54.65335 58.95023 54.65335 C 57.84975 54.65335 56.95767 53.76128 56.95767 52.6608 C 56.95767 51.56033 57.84975 50.66824 58.95023 50.66824 C 60.05069 50.66824 60.94278 51.56033 60.94278 52.6608 Z M 58.95023 52.6608 "/>
<path transform="matrix(1,0,0,-1,14.095,111.951999)" d="M 75.68033 19.83328 C 75.68033 20.93376 74.78825 21.82584 73.68777 21.82584 C 72.58731 21.82584 71.69522 20.93376 71.69522 19.83328 C 71.69522 18.73282 72.58731 17.84073 73.68777 17.84073 C 74.78825 17.84073 75.68033 18.73282 75.68033 19.83328 Z M 73.68777 19.83328 " fill="#000080"/>
<path transform="matrix(1,0,0,-1,14.095,111.951999)" stroke-width="1.59404" stroke-linecap="butt" stroke-miterlimit="10" stroke-linejoin="miter" fill="none" stroke="#000080" d="M 75.68033 19.83328 C 75.68033 20.93376 74.78825 21.82584 73.68777 21.82584 C 72.58731 21.82584 71.69522 20.93376 71.69522 19.83328 C 71.69522 18.73282 72.58731 17.84073 73.68777 17.84073 C 74.78825 17.84073 75.68033 18.73282 75.68033 19.83328 Z M 73.68777 19.83328 "/>
<path transform="matrix(1,0,0,-1,14.095,111.951999)" d="M 90.4179 10.25859 C 90.4179 11.35907 89.52582 12.25114 88.42534 12.25114 C 87.32487 12.25114 86.43279 11.35907 86.43279 10.25859 C 86.43279 9.15813 87.32487 8.26604 88.42534 8.26604 C 89.52582 8.26604 90.4179 9.15813 90.4179 10.25859 Z M 88.42534 10.25859 " fill="#000080"/>
<path transform="matrix(1,0,0,-1,14.095,111.951999)" stroke-width="1.59404" stroke-linecap="butt" stroke-miterlimit="10" stroke-linejoin="miter" fill="none" stroke="#000080" d="M 90.4179 10.25859 C 90.4179 11.35907 89.52582 12.25114 88.42534 12.25114 C 87.32487 12.25114 86.43279 11.35907 86.43279 10.25859 C 86.43279 9.15813 87.32487 8.26604 88.42534 8.26604 C 89.52582 8.26604 90.4179 9.15813 90.4179 10.25859 Z M 88.42534 10.25859 "/>
<path transform="matrix(1,0,0,-1,14.095,111.951999)" d="M 105.15546 32.48555 C 105.15546 33.58603 104.26337 34.4781 103.1629 34.4781 C 102.06242 34.4781 101.17035 33.58603 101.17035 32.48555 C 101.17035 31.38509 102.06242 30.493 103.1629 30.493 C 104.26337 30.493 105.15546 31.38509 105.15546 32.48555 Z M 103.1629 32.48555 " fill="#000080"/>
<path transform="matrix(1,0,0,-1,14.095,111.951999)" stroke-width="1.59404" stroke-linecap="butt" stroke-miterlimit="10" stroke-linejoin="miter" fill="none" stroke="#000080" d="M 105.15546 32.48555 C 105.15546 33.58603 104.26337 34.4781 103.1629 34.4781 C 102.06242 34.4781 101.17035 33.58603 101.17035 32.48555 C 101.17035 31.38509 102.06242 30.493 103.1629 30.493 C 104.26337 30.493 105.15546 31.38509 105.15546 32.48555 Z M 103.1629 32.48555 "/>
<path transform="matrix(1,0,0,-1,14.095,111.951999)" d="M 119.893 66.33893 C 119.893 67.4394 119.00093 68.33148 117.90045 68.33148 C 116.79999 68.33148 115.9079 67.4394 115.9079 66.33893 C 115.9079 65.23846 116.79999 64.34637 117.90045 64.34637 C 119.00093 64.34637 119.893 65.23846 119.893 66.33893 Z M 117.90045 66.33893 " fill="#000080"/>
<path transform="matrix(1,0,0,-1,14.095,111.951999)" stroke-width="1.59404" stroke-linecap="butt" stroke-miterlimit="10" stroke-linejoin="miter" fill="none" stroke="#000080" d="M 119.893 66.33893 C 119.893 67.4394 119.00093 68.33148 117.90045 68.33148 C 116.79999 68.33148 115.9079 67.4394 115.9079 66.33893 C 115.9079 65.23846 116.79999 64.34637 117.90045 64.34637 C 119.00093 64.34637 119.893 65.23846 119.893 66.33893 Z M 117.90045 66.33893 "/>
<path transform="matrix(1,0,0,-1,14.095,111.951999)" d="M 134.63057 80.70097 C 134.63057 81.80144 133.73848 82.69353 132.63802 82.69353 C 131.53754 82.69353 130.64546 81.80144 130.64546 80.70097 C 130.64546 79.6005 131.53754 78.70842 132.63802 78.70842 C 133.73848 78.70842 134.63057 79.6005 134.63057 80.70097 Z M 132.63802 80.70097 " fill="#000080"/>
<path transform="matrix(1,0,0,-1,14.095,111.951999)" stroke-width="1.59404" stroke-linecap="butt" stroke-miterlimit="10" stroke-linejoin="miter" fill="none" stroke="#000080" d="M 134.63057 80.70097 C 134.63057 81.80144 133.73848 82.69353 132.63802 82.69353 C 131.53754 82.69353 130.64546 81.80144 130.64546 80.70097 C 130.64546 79.6005 131.53754 78.70842 132.63802 78.70842 C 133.73848 78.70842 134.63057 79.6005 134.63057 80.70097 Z M 132.63802 80.70097 "/>
<path transform="matrix(1,0,0,-1,14.095,111.951999)" d="M 149.36812 61.89354 C 149.36812 62.99402 148.47605 63.8861 147.37557 63.8861 C 146.2751 63.8861 145.38301 62.99402 145.38301 61.89354 C 145.38301 60.79308 146.2751 59.90099 147.37557 59.90099 C 148.47605 59.90099 149.36812 60.79308 149.36812 61.89354 Z M 147.37557 61.89354 " fill="#000080"/>
<path transform="matrix(1,0,0,-1,14.095,111.951999)" stroke-width="1.59404" stroke-linecap="butt" stroke-miterlimit="10" stroke-linejoin="miter" fill="none" stroke="#000080" d="M 149.36812 61.89354 C 149.36812 62.99402 148.47605 63.8861 147.37557 63.8861 C 146.2751 63.8861 145.38301 62.99402 145.38301 61.89354 C 145.38301 60.79308 146.2751 59.90099 147.37557 59.90099 C 148.47605 59.90099 149.36812 60.79308 149.36812 61.89354 Z M 147.37557 61.89354 "/>
<path transform="matrix(1,0,0,-1,14.095,111.951999)" d="M 164.10569 27.69821 C 164.10569 28.79868 163.21361 29.69077 162.11313 29.69077 C 161.01267 29.69077 160.12058 28.79868 160.12058 27.69821 C 160.12058 26.59773 161.01267 25.70566 162.11313 25.70566 C 163.21361 25.70566 164.10569 26.59773 164.10569 27.69821 Z M 162.11313 27.69821 " fill="#000080"/>
<path transform="matrix(1,0,0,-1,14.095,111.951999)" stroke-width="1.59404" stroke-linecap="butt" stroke-miterlimit="10" stroke-linejoin="miter" fill="none" stroke="#000080" d="M 164.10569 27.69821 C 164.10569 28.79868 163.21361 29.69077 162.11313 29.69077 C 161.01267 29.69077 160.12058 28.79868 160.12058 27.69821 C 160.12058 26.59773 161.01267 25.70566 162.11313 25.70566 C 163.21361 25.70566 164.10569 26.59773 164.10569 27.69821 Z M 162.11313 27.69821 "/>
<path transform="matrix(1,0,0,-1,14.095,111.951999)" d="M 178.84325 9.23273 C 178.84325 10.3332 177.95116 11.22528 176.8507 11.22528 C 175.75022 11.22528 174.85814 10.3332 174.85814 9.23273 C 174.85814 8.13226 175.75022 7.24017 176.8507 7.24017 C 177.95116 7.24017 178.84325 8.13226 178.84325 9.23273 Z M 176.8507 9.23273 " fill="#000080"/>
<path transform="matrix(1,0,0,-1,14.095,111.951999)" stroke-width="1.59404" stroke-linecap="butt" stroke-miterlimit="10" stroke-linejoin="miter" fill="none" stroke="#000080" d="M 178.84325 9.23273 C 178.84325 10.3332 177.95116 11.22528 176.8507 11.22528 C 175.75022 11.22528 174.85814 10.3332 174.85814 9.23273 C 174.85814 8.13226 175.75022 7.24017 176.8507 7.24017 C 177.95116 7.24017 178.84325 8.13226 178.84325 9.23273 Z M 176.8507 9.23273 "/>
<path transform="matrix(1,0,0,-1,14.095,111.951999)" d="M 193.5808 23.59477 C 193.5808 24.69524 192.68872 25.58733 191.58824 25.58733 C 190.48778 25.58733 189.59569 24.69524 189.59569 23.59477 C 189.59569 22.4943 190.48778 21.60222 191.58824 21.60222 C 192.68872 21.60222 193.5808 22.4943 193.5808 23.59477 Z M 191.58824 23.59477 " fill="#000080"/>
<path transform="matrix(1,0,0,-1,14.095,111.951999)" stroke-width="1.59404" stroke-linecap="butt" stroke-miterlimit="10" stroke-linejoin="miter" fill="none" stroke="#000080" d="M 193.5808 23.59477 C 193.5808 24.69524 192.68872 25.58733 191.58824 25.58733 C 190.48778 25.58733 189.59569 24.69524 189.59569 23.59477 C 189.59569 22.4943 190.48778 21.60222 191.58824 21.60222 C 192.68872 21.60222 193.5808 22.4943 193.5808 23.59477 Z M 191.58824 23.59477 "/>
<path transform="matrix(1,0,0,-1,14.095,111.951999)" d="M 208.31836 57.7901 C 208.31836 58.89056 207.42627 59.78265 206.3258 59.78265 C 205.22533 59.78265 204.33325 58.89056 204.33325 57.7901 C 204.33325 56.68964 205.22533 55.79755 206.3258 55.79755 C 207.42627 55.79755 208.31836 56.68964 208.31836 57.7901 Z M 206.3258 57.7901 " fill="#000080"/>
<path transform="matrix(1,0,0,-1,14.095,111.951999)" stroke-width="1.59404" stroke-linecap="butt" stroke-miterlimit="10" stroke-linejoin="miter" fill="none" stroke="#000080" d="M 208.31836 57.7901 C 208.31836 58.89056 207.42627 59.78265 206.3258 59.78265 C 205.22533 59.78265 204.33325 58.89056 204.33325 57.7901 C 204.33325 56.68964 205.22533 55.79755 206.3258 55.79755 C 207.42627 55.79755 208.31836 56.68964 208.31836 57.7901 Z M 206.3258 57.7901 "/>
<path transform="matrix(1,0,0,-1,14.095,111.951999)" d="M 223.05591 80.01706 C 223.05591 81.11754 222.16384 82.00961 221.06336 82.00961 C 219.96289 82.00961 219.0708 81.11754 219.0708 80.01706 C 219.0708 78.9166 219.96289 78.0245 221.06336 78.0245 C 222.16384 78.0245 223.05591 78.9166 223.05591 80.01706 Z M 221.06336 80.01706 " fill="#000080"/>
<path transform="matrix(1,0,0,-1,14.095,111.951999)" stroke-width="1.59404" stroke-linecap="butt" stroke-miterlimit="10" stroke-linejoin="miter" fill="none" stroke="#000080" d="M 223.05591 80.01706 C 223.05591 81.11754 222.16384 82.00961 221.06336 82.00961 C 219.96289 82.00961 219.0708 81.11754 219.0708 80.01706 C 219.0708 78.9166 219.96289 78.0245 221.06336 78.0245 C 222.16384 78.0245 223.05591 78.9166 223.05591 80.01706 Z M 221.06336 80.01706 "/>
<path transform="matrix(1,0,0,-1,14.095,111.951999)" d="M 237.79347 70.10042 C 237.79347 71.2009 236.9014 72.09297 235.80092 72.09297 C 234.70046 72.09297 233.80837 71.2009 233.80837 70.10042 C 233.80837 68.99995 234.70046 68.10786 235.80092 68.10786 C 236.9014 68.10786 237.79347 68.99995 237.79347 70.10042 Z M 235.80092 70.10042 " fill="#000080"/>
<path transform="matrix(1,0,0,-1,14.095,111.951999)" stroke-width="1.59404" stroke-linecap="butt" stroke-miterlimit="10" stroke-linejoin="miter" fill="none" stroke="#000080" d="M 237.79347 70.10042 C 237.79347 71.2009 236.9014 72.09297 235.80092 72.09297 C 234.70046 72.09297 233.80837 71.2009 233.80837 70.10042 C 233.80837 68.99995 234.70046 68.10786 235.80092 68.10786 C 236.9014 68.10786 237.79347 68.99995 237.79347 70.10042 Z M 235.80092 70.10042 "/>
<symbol id="font_1_1">
<path d="M .059000009 .07000001 C .056 .055000005 .050000006 .032 .050000006 .027000003 C .050000006 .009000001 .064 0 .079 0 C .091000009 0 .10900001 .008000001 .11600001 .028 C .11700001 .030000002 .12900001 .077 .135 .102000009 L .157 .19200002 C .163 .21400002 .16900002 .23600002 .17400001 .259 C .17800002 .27600003 .186 .305 .187 .30900003 C .202 .34000004 .255 .43100003 .35 .43100003 C .395 .43100003 .404 .39400003 .404 .36100004 C .404 .29900003 .355 .17100002 .33900003 .128 C .33 .105000007 .329 .093 .329 .082 C .329 .035 .364 0 .411 0 C .50500008 0 .54200008 .14600002 .54200008 .15400002 C .54200008 .16400002 .53300008 .16400002 .53000006 .16400002 C .52000007 .16400002 .52000007 .16100002 .51500007 .14600002 C .49500004 .078 .462 .022000002 .41300003 .022000002 C .396 .022000002 .389 .032 .389 .055000005 C .389 .080000009 .398 .104 .407 .126 C .426 .17900002 .468 .28900004 .468 .34600003 C .468 .41300003 .425 .45300005 .35300002 .45300005 C .263 .45300005 .21400002 .38900004 .19700001 .36600004 C .19200002 .42200003 .15100001 .45300005 .105000007 .45300005 C .059000009 .45300005 .040000008 .41400004 .030000003 .39600004 C .014 .36200003 0 .30300004 0 .29900003 C 0 .28900004 .01 .28900004 .012 .28900004 C .022000002 .28900004 .023 .29000003 .029000001 .31200005 C .046000005 .38300003 .06600001 .43100003 .10200001 .43100003 C .12200001 .43100003 .133 .418 .133 .38500003 C .133 .36400003 .13000001 .35300002 .11700001 .30100004 L .059000009 .07000001 Z "/>
</symbol>
<use xlink:href="#font_1_1" transform="matrix(9.9626,0,0,-9.9626,261.1749,100.52658)"/>
<symbol id="font_1_2">
<path d="M .33900006 .38500003 C .311 .38400004 .291 .36200003 .291 .34000004 C .291 .32600004 .3 .31100003 .32200004 .31100003 C .34400005 .31100003 .36800004 .328 .36800004 .367 C .36800004 .41200004 .325 .45300005 .24900003 .45300005 C .11700001 .45300005 .08 .351 .08 .307 C .08 .22900002 .15400002 .21400002 .18300002 .20800002 C .235 .19800002 .287 .18700002 .287 .13200002 C .287 .106000009 .264 .022000002 .14400001 .022000002 C .13000001 .022000002 .053000004 .022000002 .030000002 .075 C .068 .07000001 .09300001 .1 .09300001 .128 C .09300001 .15100001 .07700001 .16300002 .056 .16300002 C .030000002 .16300002 0 .14200002 0 .097 C 0 .040000004 .057000005 0 .143 0 C .305 0 .34400005 .12100001 .34400005 .16600001 C .34400005 .20200002 .325 .22700002 .31300003 .23900002 C .286 .26700003 .25700004 .272 .21300002 .28100003 C .17700002 .28900004 .13700001 .29600004 .13700001 .34100003 C .13700001 .37000004 .16100002 .43100003 .24900003 .43100003 C .274 .43100003 .324 .42400003 .33900006 .38500003 Z "/>
</symbol>
<use xlink:href="#font_1_2" transform="matrix(9.9626,0,0,-9.9626,9.567055,7.7935869)"/>
<symbol id="font_2_1">
<path d="M .075 .073 C .07100001 .060000004 .065 .035 .065 .032 C .065 .010000001 .083000008 0 .09900001 0 C .117 0 .133 .013 .138 .022 C .143 .031000004 .15100001 .063 .156 .084 C .161 .103 .172 .14900002 .178 .17400001 C .184 .19600001 .19000001 .21800001 .19500001 .24100001 C .20600002 .282 .20800002 .29 .237 .331 C .26500003 .37100003 .31200005 .423 .38700003 .423 C .44500003 .423 .44600005 .372 .44600005 .35300002 C .44600005 .293 .40300004 .18200001 .38700003 .14000002 C .37600003 .112 .37200005 .103 .37200005 .086 C .37200005 .033000005 .41600005 0 .467 0 C .56700006 0 .61100009 .13800001 .61100009 .15300001 C .61100009 .16600001 .59800007 .16600001 .595 .16600001 C .58100005 .16600001 .58000007 .16000001 .57600006 .14900002 C .55300006 .069000009 .51000007 .028 .47000004 .028 C .44900004 .028 .44500003 .042000005 .44500003 .063 C .44500003 .086 .45000003 .099 .46800006 .14400001 C .48000003 .17500001 .521 .28100003 .521 .337 C .521 .43400003 .44400005 .451 .39100004 .451 C .30800004 .451 .25200004 .4 .22200002 .36 C .21500002 .42900003 .156 .451 .114999998 .451 C .072 .451 .049 .42000003 .036000004 .397 C .014000002 .36 0 .303 0 .298 C 0 .285 .014000002 .285 .017 .285 C .031 .285 .032 .28800003 .039 .315 C .054 .374 .073 .423 .112 .423 C .138 .423 .145 .40100003 .145 .374 C .145 .35500003 .136 .31800003 .12900001 .291 C .12200001 .264 .112 .22300002 .10700001 .20100002 L .075 .073 Z "/>
</symbol>
<use xlink:href="#font_2_1" transform="matrix(6.9738,0,0,-6.9738,14.046768,9.24774)"/>
</svg>
