<?xml version="1.0" encoding="UTF-8" standalone="no"?>
<!DOCTYPE svg PUBLIC "-//W3C//DTD SVG 1.1//EN" "http://www.w3.org/Graphics/SVG/1.1/DTD/svg11.dtd">
<svg xmlns="http://www.w3.org/2000/svg" xmlns:xlink="http://www.w3.org/1999/xlink" version="1.1" width="228.829pt" height="174.803pt" viewBox="0 0 228.829 174.803">
<clipPath id="cp0">
<path transform="matrix(1,0,0,-1,21.844,174.60399)" d="M 0 0 L 194.27399 0 L 194.27399 161.3918 L 0 161.3918 Z "/>
</clipPath>
<g clip-path="url(#cp0)">
<path transform="matrix(1,0,0,-1,21.844,174.60399)" d="M 129.51599 109.1768 L 58.2822 109.1768 L 58.2822 52.21498 L 129.51599 52.21498 " fill="#e6e6f2"/>
<path transform="matrix(1,0,0,-1,21.844,174.60399)" d="M 69.61484 80.69589 C 69.61484 96.42566 64.54112 109.1768 58.2822 109.1768 C 52.02325 109.1768 46.94954 96.42566 46.94954 80.69589 C 46.94954 64.96614 52.02325 52.21498 58.2822 52.21498 C 64.54112 52.21498 69.61484 64.96614 69.61484 80.69589 Z M 58.2822 80.69589 " fill="#e6e6f2"/>
<path transform="matrix(1,0,0,-1,21.844,174.60399)" stroke-width="1.19553" stroke-linecap="butt" stroke-dasharray="2.98883,2.98883" stroke-miterlimit="10" stroke-linejoin="miter" fill="none" stroke="#000080" d="M 69.61484 80.69589 C 69.61484 96.42566 64.54112 109.1768 58.2822 109.1768 C 52.02325 109.1768 46.94954 96.42566 46.94954 80.69589 C 46.94954 64.96614 52.02325 52.21498 58.2822 52.21498 C 64.54112 52.21498 69.61484 64.96614 69.61484 80.69589 Z M 58.2822 80.69589 "/>
<path transform="matrix(1,0,0,-1,21.844,174.60399)" d="M 66.37694 80.69589 C 66.37694 93.80403 62.75285 104.42998 58.2822 104.42998 C 53.81152 104.42998 50.18744 93.80403 50.18744 80.69589 C 50.18744 67.58775 53.81152 56.9618 58.2822 56.9618 C 62.75285 56.9618 66.37694 67.58775 66.37694 80.69589 Z M 58.2822 80.69589 " fill="#ffffff"/>
<path transform="matrix(1,0,0,-1,21.844,174.60399)" stroke-width="1.19553" stroke-linecap="butt" stroke-dasharray="2.98883,2.98883" stroke-miterlimit="10" stroke-linejoin="miter" fill="none" stroke="#000080" d="M 66.37694 80.69589 C 66.37694 93.80403 62.75285 104.42998 58.2822 104.42998 C 53.81152 104.42998 50.18744 93.80403 50.18744 80.69589 C 50.18744 67.58775 53.81152 56.9618 58.2822 56.9618 C 62.75285 56.9618 66.37694 67.58775 66.37694 80.69589 Z M 58.2822 80.69589 "/>
<path transform="matrix(1,0,0,-1,21.844,174.60399)" stroke-width="1.19553" stroke-linecap="butt" stroke-miterlimit="10" stroke-linejoin="miter" fill="none" stroke="#008000" d="M 129.51599 109.1768 L 58.2822 109.1768 "/>
<path transform="matrix(1,0,0,-1,21.844,174.60399)" stroke-width="1.19553" stroke-linecap="butt" stroke-miterlimit="10" stroke-linejoin="miter" fill="none" stroke="#008000" d="M 129.51599 52.21498 L 58.2822 52.21498 "/>
<path transform="matrix(1,0,0,-1,21.844,174.60399)" stroke-width="1.19553" stroke-linecap="butt" stroke-dasharray="2.98883,2.98883" stroke-miterlimit="10" stroke-linejoin="miter" fill="none" stroke="#008000" d="M 129.51599 104.42998 L 58.2822 104.42998 "/>
<path transform="matrix(1,0,0,-1,21.844,174.60399)" stroke-width="1.19553" stroke-linecap="butt" stroke-dasharray="2.98883,2.98883" stroke-miterlimit="10" stroke-linejoin="miter" fill="none" stroke="#008000" d="M 129.51599 56.9618 L 58.2822 56.9618 "/>
<path transform="matrix(1,0,0,-1,21.844,174.60399)" stroke-width="1.19553" stroke-linecap="butt" stroke-miterlimit="10" stroke-linejoin="miter" fill="none" stroke="#000080" d="M 0 80.69589 C 0 80.69589 1.41766 84.89622 1.96216 85.92162 C 2.50665 86.947 3.37982 87.55542 3.9243 88.0862 C 4.4688 88.61697 5.342 89.32239 5.88649 89.74712 C 6.43097 90.17184 7.30418 90.7819 7.84866 91.14734 C 8.39316 91.51279 9.26633 92.05508 9.81082 92.38098 C 10.3553 92.70688 11.22852 93.19925 11.773 93.49628 C 12.31749 93.7933 13.19066 94.24713 13.73515 94.52188 C 14.27963 94.79663 15.15283 95.21962 15.69733 95.4765 C 16.24182 95.73338 17.115 96.13124 17.65948 96.37334 C 18.20398 96.61542 19.07716 96.99179 19.62166 97.22136 C 20.16615 97.45093 21.03934 97.80911 21.58382 98.02794 C 22.12831 98.24678 23.00151 98.58916 23.546 98.79865 C 24.09048 99.00812 24.96367 99.33658 25.50815 99.53783 C 26.05264 99.73906 26.92584 100.05518 27.47034 100.24907 C 28.01482 100.44298 28.88799 100.74806 29.43248 100.93536 C 29.97697 101.12267 30.85017 101.41779 31.39467 101.59914 C 31.93915 101.78047 32.81232 102.06654 33.35681 102.24246 C 33.9013 102.41838 34.7745 102.69617 35.31898 102.86713 C 35.86348 103.03809 36.73666 103.30829 37.28116 103.47467 C 37.82565 103.64107 38.69884 103.90425 39.24332 104.06642 C 39.78781 104.2286 40.661 104.4853 41.20549 104.64357 C 41.74997 104.80183 42.62318 105.0525 43.16766 105.20712 C 43.71216 105.36174 44.58533 105.60678 45.12982 105.758 C 45.6743 105.90921 46.5475 106.14899 47.092 106.29703 C 47.63649 106.44507 48.50966 106.6799 49.05415 106.82495 C 49.59863 106.96999 50.47183 107.2002 51.01633 107.3424 C 51.56082 107.48462 52.43399 107.71045 52.97847 107.85 C 53.52296 107.98956 54.39616 108.21123 54.94066 108.34828 C 55.48515 108.48532 56.35834 108.7031 56.90282 108.83775 C 57.44731 108.97241 58.3205 109.18643 58.86499 109.31883 C 59.40947 109.45123 60.28267 109.66174 60.82715 109.79198 C 61.37164 109.92221 62.24484 110.12936 62.78934 110.25754 C 63.33382 110.38573 64.20699 110.58968 64.75148 110.7159 C 65.29597 110.84212 66.16917 111.043 66.71367 111.16734 C 67.25815 111.2917 68.13132 111.48964 68.67581 111.6122 C 69.2203 111.73476 70.0935 111.9299 70.63799 112.05075 C 71.18248 112.1716 72.05568 112.36406 72.60017 112.48326 C 73.14467 112.60246 74.01784 112.79233 74.56232 112.90996 C 75.10681 113.02757 75.98 113.21497 76.52449 113.33107 C 77.06897 113.44719 77.94217 113.63219 78.48665 113.74683 C 79.03114 113.86145 79.90433 114.04417 80.44882 114.15741 C 80.9933 114.27065 81.86647 114.45113 82.41096 114.56302 C 82.95546 114.6749 83.82866 114.85326 84.37315 114.96382 C 84.91763 115.0744 85.79083 115.2507 86.33533 115.36 C 86.87982 115.46931 87.75299 115.64362 88.29747 115.75171 C 88.84196 115.85979 89.71516 116.03217 90.25966 116.13907 C 90.80414 116.24596 91.67735 116.41649 92.22183 116.52225 C 92.76633 116.628 93.6395 116.79672 94.18399 116.90137 C 94.72847 117.00601 95.60167 117.17297 96.14615 117.27657 C 96.69064 117.38016 97.56383 117.54541 98.10832 117.64795 C 98.6528 117.75049 99.52599 117.91411 100.07048 118.01564 C 100.61497 118.11717 101.48814 118.2792 102.03262 118.37975 C 102.57712 118.48029 103.45032 118.6408 103.99481 118.74039 C 104.5393 118.83997 105.4125 118.99893 105.95699 119.0976 C 106.50148 119.19626 107.37465 119.35378 107.91914 119.45154 C 108.46362 119.5493 109.33684 119.7054 109.88132 119.80229 C 110.42581 119.89917 111.29901 120.05388 111.8435 120.1499 C 112.38799 120.24594 113.26115 120.39929 113.80565 120.49449 C 114.35014 120.58969 115.22333 120.74171 115.76782 120.8361 C 116.3123 120.9305 117.18549 121.08125 117.72998 121.17485 C 118.27448 121.26845 119.14766 121.41795 119.69214 121.51079 C 120.23663 121.60362 121.1098 121.75189 121.6543 121.84396 C 122.19879 121.93605 123.07199 122.08313 123.61647 122.17448 C 124.16096 122.26582 125.03416 122.41174 125.57866 122.50238 C 126.12314 122.59302 126.99632 122.73781 127.5408 122.82774 C 128.0853 122.91768 128.9585 123.06134 129.50299 123.15057 C 130.04747 123.23982 130.92067 123.38242 131.46517 123.471 C 132.00966 123.55957 132.88283 123.70111 133.42733 123.78903 C 133.9718 123.87697 134.84499 124.01746 135.38948 124.10475 C 135.93398 124.19203 136.80716 124.33151 137.35164 124.41817 C 137.89614 124.50482 138.76932 124.64333 139.31381 124.72937 C 139.8583 124.81541 140.7315 124.95291 141.27599 125.03836 C 141.82048 125.12381 142.69365 125.26039 143.23815 125.34525 C 143.78263 125.4301 144.65584 125.56575 145.20032 125.65002 C 145.74481 125.73431 146.61798 125.86903 147.16248 125.95274 C 147.70696 126.03647 148.58016 126.17029 149.12465 126.25346 C 149.66915 126.33662 150.54235 126.46959 151.08684 126.5522 C 151.63132 126.63483 152.50449 126.76692 153.04898 126.84901 C 153.59348 126.9311 154.46666 127.06233 155.01114 127.1439 C 155.55564 127.22548 156.42882 127.35591 156.97332 127.43697 C 157.5178 127.51802 158.39099 127.64763 158.93547 127.72818 C 159.47997 127.80875 160.35317 127.93767 160.89766 128.01763 C 161.44214 128.0976 162.31533 128.2251 162.8598 128.30457 C 163.4043 128.38405 164.27747 128.51137 164.82196 128.59047 C 165.36644 128.66959 166.23961 128.79611 166.7841 128.87476 C 167.3286 128.95339 168.20178 129.0791 168.74628 129.15729 C 169.29076 129.23548 170.16393 129.36054 170.70842 129.43827 C 171.25292 129.51599 172.12609 129.64028 172.67057 129.71756 C 173.21506 129.79485 174.08823 129.91849 174.63272 129.99533 C 175.17722 130.07218 176.05039 130.19509 176.59487 130.2715 C 177.13936 130.34793 178.01253 130.47017 178.55702 130.54616 C 179.1015 130.62216 179.97469 130.74372 180.51917 130.81929 C 181.06366 130.89488 181.93683 131.01581 182.48133 131.091 C 183.0258 131.16619 183.89899 131.28646 184.44348 131.36124 C 184.98798 131.436 185.86115 131.55562 186.40564 131.63 C 186.95012 131.70439 187.82329 131.82335 188.36779 131.89734 C 188.91228 131.97133 189.78545 132.08968 190.32993 132.1633 C 190.87442 132.23693 191.74759 132.35474 192.29209 132.42798 C 192.83658 132.50122 194.25423 132.69121 194.25423 132.69121 "/>
<path transform="matrix(1,0,0,-1,21.844,174.60399)" stroke-width="1.19553" stroke-linecap="butt" stroke-miterlimit="10" stroke-linejoin="miter" fill="none" stroke="#800000" d="M 80.9475 80.69589 L 87.69298 84.65149 L 94.43852 88.60713 L 101.18402 92.56274 L 107.92953 96.51836 L 114.67505 100.47397 L 121.42058 104.4296 L 128.16609 108.38522 L 134.9116 112.34082 L 141.65714 116.29645 L 148.40265 120.25206 L 155.14817 124.20769 L 161.89369 128.16332 L 168.6392 132.11893 L 175.38472 136.07451 L 182.13022 140.03009 L 188.87574 143.98583 L 195.62125 147.9414 L 202.36675 151.89699 L 209.11225 155.85257 L 215.85776 159.80817 L 222.60327 163.7639 L 229.34879 167.71949 L 236.09429 171.67507 L 242.8398 175.63065 "/>
<path transform="matrix(1,0,0,-1,21.844,174.60399)" stroke-width="1.19553" stroke-linecap="butt" stroke-miterlimit="10" stroke-linejoin="miter" fill="none" stroke="#000080" d="M 0 80.69589 C 0 80.69589 1.41766 76.49554 1.96216 75.47015 C 2.50665 74.44476 3.37982 73.83635 3.9243 73.30557 C 4.4688 72.7748 5.342 72.06938 5.88649 71.64465 C 6.43097 71.21992 7.30418 70.60986 7.84866 70.24443 C 8.39316 69.87898 9.26633 69.33669 9.81082 69.01079 C 10.3553 68.68489 11.22852 68.19252 11.773 67.8955 C 12.31749 67.59846 13.19066 67.14464 13.73515 66.86989 C 14.27963 66.59515 15.15283 66.17215 15.69733 65.91527 C 16.24182 65.65839 17.115 65.26053 17.65948 65.01845 C 18.20398 64.77635 19.07716 64.39998 19.62166 64.17041 C 20.16615 63.94086 21.03934 63.58266 21.58382 63.36383 C 22.12831 63.145 23.00151 62.80261 23.546 62.59314 C 24.09048 62.38365 24.96367 62.05519 25.50815 61.85396 C 26.05264 61.65271 26.92584 61.3366 27.47034 61.1427 C 28.01482 60.94879 28.88799 60.6437 29.43248 60.4564 C 29.97697 60.2691 30.85017 59.97398 31.39467 59.79265 C 31.93915 59.6113 32.81232 59.32523 33.35681 59.1493 C 33.9013 58.97339 34.7745 58.6956 35.31898 58.52464 C 35.86348 58.35368 36.73666 58.08348 37.28116 57.9171 C 37.82565 57.75072 38.69884 57.48752 39.24332 57.32535 C 39.78781 57.16318 40.661 56.90646 41.20549 56.7482 C 41.74997 56.58994 42.62318 56.33926 43.16766 56.18465 C 43.71216 56.03003 44.58533 55.78499 45.12982 55.63377 C 45.6743 55.48256 46.5475 55.24278 47.092 55.09474 C 47.63649 54.9467 48.50966 54.71187 49.05415 54.56682 C 49.59863 54.42178 50.47183 54.19157 51.01633 54.04936 C 51.56082 53.90715 52.43399 53.68132 52.97847 53.54176 C 53.52296 53.40222 54.39616 53.18054 54.94066 53.0435 C 55.48515 52.90645 56.35834 52.68867 56.90282 52.55402 C 57.44731 52.41936 58.3205 52.20534 58.86499 52.07294 C 59.40947 51.94055 60.28267 51.73003 60.82715 51.5998 C 61.37164 51.46956 62.24484 51.26242 62.78934 51.13423 C 63.33382 51.00606 64.20699 50.8021 64.75148 50.67587 C 65.29597 50.54965 66.16917 50.34877 66.71367 50.22443 C 67.25815 50.10007 68.13132 49.90213 68.67581 49.77957 C 69.2203 49.65701 70.0935 49.46188 70.63799 49.34102 C 71.18248 49.22017 72.05568 49.02771 72.60017 48.90851 C 73.14467 48.7893 74.01784 48.59944 74.56232 48.48183 C 75.10681 48.36421 75.98 48.1768 76.52449 48.0607 C 77.06897 47.94458 77.94217 47.7596 78.48665 47.64496 C 79.03114 47.53032 79.90433 47.34761 80.44882 47.23436 C 80.9933 47.12112 81.86647 46.94064 82.41096 46.82877 C 82.95546 46.71687 83.82866 46.53853 84.37315 46.42795 C 84.91763 46.31737 85.79083 46.14107 86.33533 46.03177 C 86.87982 45.92247 87.75299 45.74815 88.29747 45.64008 C 88.84196 45.53198 89.71516 45.3596 90.25966 45.25272 C 90.80414 45.14581 91.67735 44.9753 92.22183 44.86952 C 92.76633 44.76376 93.6395 44.59506 94.18399 44.4904 C 94.72847 44.38576 95.60167 44.2188 96.14615 44.1152 C 96.69064 44.01163 97.56383 43.84636 98.10832 43.74382 C 98.6528 43.64128 99.52599 43.47766 100.07048 43.37613 C 100.61497 43.2746 101.48814 43.11258 102.03262 43.01202 C 102.57712 42.91148 103.45032 42.75098 103.99481 42.6514 C 104.5393 42.5518 105.4125 42.39284 105.95699 42.29417 C 106.50148 42.19551 107.37465 42.038 107.91914 41.94023 C 108.46362 41.84247 109.33684 41.68637 109.88132 41.5895 C 110.42581 41.4926 111.29901 41.33789 111.8435 41.24187 C 112.38799 41.14583 113.26115 40.99248 113.80565 40.89728 C 114.35014 40.8021 115.22333 40.65005 115.76782 40.55566 C 116.3123 40.46127 117.18549 40.31052 117.72998 40.21692 C 118.27448 40.12332 119.14766 39.97382 119.69214 39.88098 C 120.23663 39.78815 121.1098 39.63988 121.6543 39.5478 C 122.19879 39.45572 123.07199 39.30864 123.61647 39.2173 C 124.16096 39.12595 125.03416 38.98003 125.57866 38.88939 C 126.12314 38.79875 126.99632 38.65398 127.5408 38.56404 C 128.0853 38.4741 128.9585 38.33043 129.50299 38.2412 C 130.04747 38.15196 130.92067 38.00937 131.46517 37.92078 C 132.00966 37.8322 132.88283 37.69067 133.42733 37.60274 C 133.9718 37.51482 134.84499 37.37431 135.38948 37.28702 C 135.93398 37.19974 136.80716 37.06026 137.35164 36.9736 C 137.89614 36.88695 138.76932 36.74844 139.31381 36.6624 C 139.8583 36.57637 140.7315 36.43886 141.27599 36.35341 C 141.82048 36.26796 142.69365 36.13138 143.23815 36.04652 C 143.78263 35.96167 144.65584 35.82602 145.20032 35.74174 C 145.74481 35.65747 146.61798 35.52275 147.16248 35.43903 C 147.70696 35.35532 148.58016 35.22148 149.12465 35.13832 C 149.66915 35.05515 150.54235 34.9222 151.08684 34.83957 C 151.63132 34.75694 152.50449 34.62485 153.04898 34.54277 C 153.59348 34.46068 154.46666 34.32944 155.01114 34.24786 C 155.55564 34.16629 156.42882 34.03587 156.97332 33.95482 C 157.5178 33.87375 158.39099 33.74414 158.93547 33.66359 C 159.47997 33.58304 160.35317 33.4541 160.89766 33.37415 C 161.44214 33.29417 162.31533 33.16669 162.8598 33.0872 C 163.4043 33.00774 164.27747 32.88042 164.82196 32.8013 C 165.36644 32.72218 166.23961 32.59566 166.7841 32.51703 C 167.3286 32.43839 168.20178 32.31267 168.74628 32.23448 C 169.29076 32.1563 170.16393 32.03125 170.70842 31.95352 C 171.25292 31.8758 172.12609 31.7515 172.67057 31.67421 C 173.21506 31.59692 174.08823 31.47328 174.63272 31.39644 C 175.17722 31.3196 176.05039 31.19669 176.59487 31.12027 C 177.13936 31.04384 178.01253 30.9216 178.55702 30.84561 C 179.1015 30.76962 179.97469 30.64806 180.51917 30.57248 C 181.06366 30.49689 181.93683 30.37596 182.48133 30.30077 C 183.0258 30.22559 183.89899 30.10532 184.44348 30.03055 C 184.98798 29.95576 185.86115 29.83615 186.40564 29.76176 C 186.95012 29.6874 187.82329 29.56842 188.36779 29.49443 C 188.91228 29.42044 189.78545 29.3021 190.32993 29.22847 C 190.87442 29.15485 191.74759 29.03703 192.29209 28.96379 C 192.83658 28.89055 194.25423 28.70056 194.25423 28.70056 "/>
<path transform="matrix(1,0,0,-1,21.844,174.60399)" stroke-width="1.19553" stroke-linecap="butt" stroke-miterlimit="10" stroke-linejoin="miter" fill="none" stroke="#800000" d="M 80.9475 80.69589 L 85.6694 77.92691 L 90.39133 75.15794 L 95.11327 72.38898 L 99.83519 69.62001 L 104.5571 66.85104 L 109.27904 64.08206 L 114.00095 61.3131 L 118.7229 58.54411 L 123.44481 55.77516 L 128.16674 53.0062 L 132.88866 50.23721 L 137.61058 47.46825 L 142.33254 44.69926 L 147.05445 41.9303 L 151.77637 39.16133 L 156.49828 36.39236 L 161.22022 33.6234 L 165.94216 30.85445 L 170.66408 28.08542 L 175.38599 25.31654 L 180.10791 22.54752 L 184.82984 19.7785 L 189.55176 17.00961 L 194.27368 14.24059 "/>
<path transform="matrix(1,0,0,-1,21.844,174.60399)" d="M 140.84864 80.69589 C 140.84864 96.42566 135.77492 109.1768 129.51599 109.1768 C 123.25705 109.1768 118.18333 96.42566 118.18333 80.69589 C 118.18333 64.96614 123.25705 52.21498 129.51599 52.21498 C 135.77492 52.21498 140.84864 64.96614 140.84864 80.69589 Z M 129.51599 80.69589 " fill="#cccce6"/>
<path transform="matrix(1,0,0,-1,21.844,174.60399)" stroke-width="1.19553" stroke-linecap="butt" stroke-miterlimit="10" stroke-linejoin="miter" fill="none" stroke="#000080" d="M 140.84864 80.69589 C 140.84864 96.42566 135.77492 109.1768 129.51599 109.1768 C 123.25705 109.1768 118.18333 96.42566 118.18333 80.69589 C 118.18333 64.96614 123.25705 52.21498 129.51599 52.21498 C 135.77492 52.21498 140.84864 64.96614 140.84864 80.69589 Z M 129.51599 80.69589 "/>
<path transform="matrix(1,0,0,-1,21.844,174.60399)" d="M 137.61074 80.69589 C 137.61074 93.80403 133.98665 104.42998 129.51599 104.42998 C 125.04532 104.42998 121.42123 93.80403 121.42123 80.69589 C 121.42123 67.58775 125.04532 56.9618 129.51599 56.9618 C 133.98665 56.9618 137.61074 67.58775 137.61074 80.69589 Z M 129.51599 80.69589 " fill="#ffffff"/>
<path transform="matrix(1,0,0,-1,21.844,174.60399)" stroke-width="1.19553" stroke-linecap="butt" stroke-miterlimit="10" stroke-linejoin="miter" fill="none" stroke="#000080" d="M 137.61074 80.69589 C 137.61074 93.80403 133.98665 104.42998 129.51599 104.42998 C 125.04532 104.42998 121.42123 93.80403 121.42123 80.69589 C 121.42123 67.58775 125.04532 56.9618 129.51599 56.9618 C 133.98665 56.9618 137.61074 67.58775 137.61074 80.69589 Z M 129.51599 80.69589 "/>
<path transform="matrix(1,0,0,-1,21.844,174.60399)" stroke-width="1" stroke-linecap="butt" stroke-miterlimit="10" stroke-linejoin="miter" fill="none" stroke="#000000" d="M 140.44559 111.55022 C 141.1928 111.17662 141.69094 110.30487 141.69094 109.05952 L 141.69094 109.29408 C 141.69094 108.04874 142.18906 107.17699 142.93628 106.80339 C 142.18906 106.42981 141.69094 105.55804 141.69094 104.3127 L 141.69094 104.54727 C 141.69094 103.30193 141.1928 102.43016 140.44559 102.05658 "/>
<symbol id="font_1_2">
<path d="M .47600005 .694 C .47600005 .695 .47600005 .705 .46300004 .705 C .44800005 .705 .35300002 .69600006 .33600004 .694 C .32800005 .693 .32200004 .688 .32200004 .675 C .32200004 .663 .33100004 .663 .34600003 .663 C .39400003 .663 .39600004 .656 .39600004 .646 L .39300005 .626 L .33300004 .38900004 C .31500004 .42600004 .286 .45300005 .24100001 .45300005 C .124 .45300005 0 .30600003 0 .16000001 C 0 .06600001 .055000005 0 .133 0 C .153 0 .20300001 .0040000008 .263 .075 C .27100004 .033000005 .30600003 0 .35400004 0 C .38900004 0 .41200004 .023000002 .42800004 .055000005 C .44500003 .091000009 .45800004 .15200001 .45800004 .15400002 C .45800004 .16400002 .44900004 .16400002 .44600005 .16400002 C .43600003 .16400002 .43500004 .16000001 .43200005 .14600002 C .41500003 .081 .397 .022000002 .35600005 .022000002 C .32900004 .022000002 .32600004 .048 .32600004 .068 C .32600004 .092 .32800005 .09900001 .33200003 .116000007 L .47600005 .694 M .26800005 .13000001 C .263 .112 .263 .11000001 .24800001 .093 C .20400001 .038000004 .163 .022000002 .135 .022000002 C .08499999 .022000002 .07100001 .077 .07100001 .116000007 C .07100001 .16600001 .103 .28900004 .126 .335 C .157 .39400003 .202 .43100003 .242 .43100003 C .307 .43100003 .32100005 .34900005 .32100005 .34300003 C .32100005 .337 .31900005 .33100004 .31800003 .32600004 L .26800005 .13000001 Z "/>
</symbol>
<symbol id="font_1_4">
<path d="M .45700003 .586 C .461 .6 .461 .602 .461 .609 C .461 .62700006 .447 .63600006 .432 .63600006 C .42200003 .63600006 .40600003 .63 .397 .615 C .395 .61 .387 .579 .38300003 .561 C .37600003 .535 .36900003 .508 .363 .48100005 L .318 .301 C .314 .286 .271 .21600002 .20500002 .21600002 C .15400002 .21600002 .143 .26000003 .143 .29700003 C .143 .34300003 .16000001 .40500004 .194 .49300004 C .21000001 .53400006 .21400002 .545 .21400002 .56500008 C .21400002 .61 .18200001 .6470001 .13200002 .6470001 C .037 .6470001 0 .50200006 0 .49300004 C 0 .48300005 .01 .48300005 .012 .48300005 C .022000002 .48300005 .023 .485 .028000003 .50100007 C .055000009 .595 .095000009 .625 .12900001 .625 C .13700001 .625 .15400002 .625 .15400002 .59300008 C .15400002 .568 .14400001 .54200008 .13700001 .523 C .097 .41700004 .079 .36 .079 .31300003 C .079 .224 .142 .194 .201 .194 C .24000003 .194 .274 .21100001 .30200003 .23900002 C .289 .187 .277 .13800001 .237 .08500001 C .21100001 .051 .17300001 .022 .127 .022 C .113000009 .022 .068 .025000006 .051000008 .06400001 C .067 .06400001 .080000009 .06400001 .094000007 .076000008 C .104 .08500001 .11400001 .098000008 .11400001 .117000009 C .11400001 .148 .087000008 .15200001 .07700001 .15200001 C .054000006 .15200001 .021 .136 .021 .087000008 C .021 .037 .065000008 0 .127 0 C .23 0 .333 .091000009 .361 .20400001 L .45700003 .586 Z "/>
</symbol>
<use xlink:href="#font_1_2" transform="matrix(9.9626,0,0,-9.9626,165.97049,70.40158)"/>
<use xlink:href="#font_1_4" transform="matrix(9.9626,0,0,-9.9626,171.05142,72.33433)"/>
<path transform="matrix(1,0,0,-1,21.844,174.60399)" stroke-width="1.19553" stroke-linecap="butt" stroke-miterlimit="10" stroke-linejoin="miter" fill="none" stroke="#000080" d="M 58.2822 109.1768 C 52.02325 109.1768 46.94954 96.42566 46.94954 80.69589 C 46.94954 64.96614 52.02325 52.21498 58.2822 52.21498 "/>
</g>
<path transform="matrix(1,0,0,-1,21.844,174.60399)" stroke-width="1" stroke-linecap="butt" stroke-miterlimit="10" stroke-linejoin="miter" fill="none" stroke="#808080" d="M 32.379 78.56999 L 32.379 82.82178 M 64.758 78.56999 L 64.758 82.82178 M 97.137 78.56999 L 97.137 82.82178 M 129.51599 78.56999 L 129.51599 82.82178 M 161.89499 78.56999 L 161.89499 82.82178 M 194.27399 78.56999 L 194.27399 82.82178 "/>
<path transform="matrix(1,0,0,-1,21.844,174.60399)" stroke-width="1" stroke-linecap="butt" stroke-miterlimit="10" stroke-linejoin="miter" fill="none" stroke="#808080" d="M -2.12611 33.22772 L 2.12611 33.22772 M -2.12611 128.16408 L 2.12611 128.16408 "/>
<path transform="matrix(1,0,0,-1,21.844,174.60399)" stroke-width="1" stroke-linecap="butt" stroke-miterlimit="10" stroke-linejoin="miter" fill="none" stroke="#000000" d="M 0 80.69589 L 192.28145 80.69589 "/>
<path transform="matrix(1,0,0,-1,214.12545,93.9081)" d="M 1.99252 0 L -1.19551 1.59401 L 0 0 L -1.19551 -1.59401 "/>
<path transform="matrix(1,0,0,-1,21.844,174.60399)" stroke-width="1" stroke-linecap="butt" stroke-miterlimit="10" stroke-linejoin="miter" fill="none" stroke="#000000" d="M 0 0 L 0 159.39928 "/>
<path transform="matrix(0,-1,-1,-0,21.844,15.204712)" d="M 1.99252 0 L -1.19551 1.59401 L 0 0 L -1.19551 -1.59401 "/>
<symbol id="font_2_1">
<path d="M .421 .34200005 C .421 .42200003 .416 .50200006 .381 .57600006 C .335 .67200008 .25300003 .688 .211 .688 C .15100001 .688 .07800001 .66200008 .037000006 .56900009 C .0050000029 .5 0 .42200003 0 .34200005 C 0 .26700003 .0040000008 .177 .045000007 .101 C .088 .020000002 .161 0 .21000001 0 C .264 0 .34 .021000002 .384 .116000007 C .416 .185 .421 .263 .421 .34200005 M .21000001 .022000002 C .171 .022000002 .112 .047000003 .094 .143 C .083000008 .20300001 .083000008 .29500003 .083000008 .35400004 C .083000008 .41800005 .083000008 .48400004 .091000009 .53800007 C .11 .65700009 .185 .66600009 .21000001 .66600009 C .243 .66600009 .30900003 .64800009 .328 .549 C .338 .49300004 .338 .41700004 .338 .35400004 C .338 .279 .338 .21100001 .32700003 .147 C .312 .052 .255 .022000002 .21000001 .022000002 Z "/>
</symbol>
<use xlink:href="#font_2_1" transform="matrix(9.9626,0,0,-9.9626,48.246545,106.26816)"/>
<symbol id="font_1_1">
<path d="M .106 .053000004 C .106 .082 .08200001 .106000009 .05300001 .106000009 C .024000004 .106000009 0 .082 0 .053000004 C 0 .024 .024000004 0 .05300001 0 C .08200001 0 .106 .024 .106 .053000004 Z "/>
</symbol>
<use xlink:href="#font_1_1" transform="matrix(9.9626,0,0,-9.9626,53.695787,106.04898)"/>
<symbol id="font_2_3">
<path d="M .07700001 .07700001 L .18300002 .18 C .33900003 .31800003 .39900003 .372 .39900003 .47200004 C .39900003 .586 .30900003 .666 .18700002 .666 C .074 .666 0 .574 0 .485 C 0 .42900003 .05 .42900003 .053000008 .42900003 C .07000001 .42900003 .105000007 .441 .105000007 .48200003 C .105000007 .508 .08700001 .53400006 .052000006 .53400006 C .044000005 .53400006 .042000008 .53400006 .039 .53300008 C .062000004 .59800007 .11600001 .63500007 .17400001 .63500007 C .26500003 .63500007 .308 .554 .308 .47200004 C .308 .39200003 .25800003 .31300003 .20300003 .25100003 L .011000004 .037 C 0 .026 0 .024 0 0 L .37100003 0 L .39900003 .17400001 L .374 .17400001 C .36900003 .14400001 .36200003 .1 .352 .085 C .345 .07700001 .279 .07700001 .257 .07700001 L .07700001 .07700001 Z "/>
</symbol>
<use xlink:href="#font_2_3" transform="matrix(9.9626,0,0,-9.9626,56.10413,106.04898)"/>
<use xlink:href="#font_2_1" transform="matrix(9.9626,0,0,-9.9626,80.62454,106.26816)"/>
<use xlink:href="#font_1_1" transform="matrix(9.9626,0,0,-9.9626,86.073787,106.04898)"/>
<symbol id="font_2_4">
<path d="M .266 .165 L .266 .078 C .266 .042000005 .26400004 .031000002 .19000001 .031000002 L .16900002 .031000002 L .16900002 0 C .21000001 .003 .26200003 .003 .30400003 .003 C .34600003 .003 .39900003 .003 .44000004 0 L .44000004 .031000002 L .41900004 .031000002 C .34500004 .031000002 .34300003 .042000005 .34300003 .078 L .34300003 .165 L .44300003 .165 L .44300003 .19600001 L .34300003 .19600001 L .34300003 .651 C .34300003 .671 .34300003 .67700007 .32700003 .67700007 C .31800003 .67700007 .31500004 .67700007 .307 .665 L 0 .19600001 L 0 .165 L .266 .165 M .272 .19600001 L .028 .19600001 L .272 .569 L .272 .19600001 Z "/>
</symbol>
<use xlink:href="#font_2_4" transform="matrix(9.9626,0,0,-9.9626,88.263957,106.04898)"/>
<use xlink:href="#font_2_1" transform="matrix(9.9626,0,0,-9.9626,113.00355,106.26816)"/>
<use xlink:href="#font_1_1" transform="matrix(9.9626,0,0,-9.9626,118.45279,106.04898)"/>
<symbol id="font_2_5">
<path d="M .089999999 .35000003 L .089999999 .37400005 C .089999999 .62700006 .21400002 .66300007 .26500003 .66300007 C .28900004 .66300007 .33100004 .65700009 .35300002 .623 C .33800004 .623 .298 .623 .298 .57800009 C .298 .54700008 .32200004 .53200009 .344 .53200009 C .36 .53200009 .39000003 .54100009 .39000003 .58000007 C .39000003 .64000007 .34600003 .688 .263 .688 C .13499999 .688 0 .559 0 .33800004 C 0 .071 .116000007 0 .20900002 0 C .32000003 0 .41500003 .094000007 .41500003 .22600001 C .41500003 .35300005 .32600004 .44900004 .215 .44900004 C .14700002 .44900004 .11000001 .39800004 .089999999 .35000003 M .20900002 .028 C .146 .028 .116000007 .088 .11000001 .103 C .092 .15 .092 .23 .092 .24800001 C .092 .32600004 .124000009 .42600004 .21400002 .42600004 C .23000002 .42600004 .27600003 .42600004 .307 .36400003 C .32500003 .32700003 .32500003 .27600003 .32500003 .22700002 C .32500003 .179 .32500003 .12900001 .30800004 .093 C .27800004 .033000005 .23200003 .028 .20900002 .028 Z "/>
</symbol>
<use xlink:href="#font_2_5" transform="matrix(9.9626,0,0,-9.9626,120.78143,106.26816)"/>
<use xlink:href="#font_2_1" transform="matrix(9.9626,0,0,-9.9626,145.38153,106.26816)"/>
<use xlink:href="#font_1_1" transform="matrix(9.9626,0,0,-9.9626,150.83177,106.04898)"/>
<symbol id="font_2_6">
<path d="M .121 .47900004 C .075 .509 .071 .54300007 .071 .56000009 C .071 .62100008 .136 .66300007 .20700002 .66300007 C .28000004 .66300007 .344 .61100009 .344 .53900006 C .344 .48200003 .305 .43400005 .245 .39900003 L .121 .47900004 M .26700003 .38400004 C .33900003 .42100004 .388 .47300006 .388 .53900006 C .388 .63100007 .29900003 .688 .208 .688 C .108 .688 .027000003 .614 .027000003 .521 C .027000003 .503 .029 .45800004 .071 .41100005 C .082 .39900003 .11900001 .37400005 .144 .35700003 C .086 .32800005 0 .272 0 .17300001 C 0 .067 .102000009 0 .20700002 0 C .32000003 0 .41500003 .083000008 .41500003 .19000001 C .41500003 .22600001 .404 .27100004 .36600004 .31300003 C .34700004 .33400003 .33100004 .34400005 .26700003 .38400004 M .167 .34200005 L .29000003 .26400004 C .31800003 .245 .365 .215 .365 .154 C .365 .080000009 .29000003 .028 .208 .028 C .122 .028 .050000006 .09 .050000006 .17300001 C .050000006 .231 .082 .29500003 .167 .34200005 Z "/>
</symbol>
<use xlink:href="#font_2_6" transform="matrix(9.9626,0,0,-9.9626,153.16042,106.26816)"/>
<symbol id="font_2_2">
<path d="M .205 .64000007 C .205 .66400006 .205 .666 .18200003 .666 C .120000008 .60200008 .032000007 .60200008 0 .60200008 L 0 .57100006 C .020000004 .57100006 .07900001 .57100006 .13100001 .597 L .13100001 .079 C .13100001 .043 .128 .031000002 .038000004 .031000002 L .0060000049 .031000002 L .0060000049 0 C .04100001 .003 .128 .003 .168 .003 C .20800002 .003 .29500003 .003 .33000005 0 L .33000005 .031000002 L .29800005 .031000002 C .20800002 .031000002 .205 .042000005 .205 .079 L .205 .64000007 Z "/>
</symbol>
<use xlink:href="#font_2_2" transform="matrix(9.9626,0,0,-9.9626,182.13266,106.04898)"/>
<use xlink:href="#font_2_2" transform="matrix(9.9626,0,0,-9.9626,210.63668,106.04898)"/>
<use xlink:href="#font_1_1" transform="matrix(9.9626,0,0,-9.9626,215.58878,106.04898)"/>
<use xlink:href="#font_2_3" transform="matrix(9.9626,0,0,-9.9626,217.99712,106.04898)"/>
<symbol id="font_3_1">
<path d="M .57600006 0 C .59300008 0 .611 0 .611 .019999996 C .611 .040000008 .59300008 .040000008 .57600006 .040000008 L .035000005 .040000008 C .018 .040000008 0 .040000008 0 .019999996 C 0 0 .018 0 .035000005 0 L .57600006 0 Z "/>
</symbol>
<use xlink:href="#font_3_1" transform="matrix(9.9626,0,0,-9.9626,4.220895,141.8806)"/>
<use xlink:href="#font_2_2" transform="matrix(9.9626,0,0,-9.9626,12.02967,144.172)"/>
<use xlink:href="#font_2_2" transform="matrix(9.9626,0,0,-9.9626,12.029671,49.651979)"/>
<symbol id="font_1_3">
<path d="M .305 .31300003 C .311 .33900003 .334 .43100003 .404 .43100003 C .409 .43100003 .433 .43100003 .454 .418 C .426 .41300003 .40600003 .388 .40600003 .36400003 C .40600003 .34800003 .417 .32900004 .444 .32900004 C .46600003 .32900004 .498 .34700004 .498 .38700003 C .498 .43900005 .439 .45300005 .405 .45300005 C .347 .45300005 .312 .40000005 .3 .37700004 C .275 .44300003 .221 .45300005 .19200002 .45300005 C .08800001 .45300005 .031000002 .32400004 .031000002 .29900003 C .031000002 .28900004 .041 .28900004 .043000007 .28900004 C .051000008 .28900004 .054000006 .291 .056 .3 C .09 .40600003 .156 .43100003 .19000001 .43100003 C .209 .43100003 .244 .42200003 .244 .36400003 C .244 .33300004 .22700002 .26600004 .19000001 .126 C .17400001 .064 .13900002 .022000002 .095000009 .022000002 C .08900001 .022000002 .06600001 .022000002 .045 .035 C .07000001 .040000004 .09200001 .061 .09200001 .089 C .09200001 .116000007 .07000001 .124000009 .055000009 .124000009 C .025 .124000009 0 .098000008 0 .06600001 C 0 .020000002 .050000006 0 .094000007 0 C .16000001 0 .19600001 .07000001 .19900002 .076000008 C .21100001 .039 .24700003 0 .307 0 C .41 0 .467 .12900001 .467 .15400002 C .467 .16400002 .458 .16400002 .455 .16400002 C .446 .16400002 .444 .16000001 .442 .15300001 C .409 .046 .341 .022000002 .30900003 .022000002 C .27 .022000002 .254 .054 .254 .08800001 C .254 .11000001 .26 .13200002 .271 .17600002 L .305 .31300003 Z "/>
</symbol>
<use xlink:href="#font_1_3" transform="matrix(9.9626,0,0,-9.9626,220.0289,96.150569)"/>
<use xlink:href="#font_1_4" transform="matrix(9.9626,0,0,-9.9626,19.511916,9.725317)"/>
</svg>
