<?xml version="1.0" encoding="UTF-8" standalone="no"?>
<!DOCTYPE svg PUBLIC "-//W3C//DTD SVG 1.1//EN" "http://www.w3.org/Graphics/SVG/1.1/DTD/svg11.dtd">
<svg xmlns="http://www.w3.org/2000/svg" xmlns:xlink="http://www.w3.org/1999/xlink" version="1.1" width="137.668pt" height="53.424pt" viewBox="0 0 137.668 53.424">
<symbol id="font_0_3">
<path d="M .47600005 .694 C .47600005 .695 .47600005 .705 .46300004 .705 C .44800005 .705 .35300002 .69600006 .33600004 .694 C .32800005 .693 .32200004 .688 .32200004 .675 C .32200004 .663 .33100004 .663 .34600003 .663 C .39400003 .663 .39600004 .656 .39600004 .646 L .39300005 .626 L .33300004 .38900004 C .31500004 .42600004 .286 .45300005 .24100001 .45300005 C .124 .45300005 0 .30600003 0 .16000001 C 0 .06600001 .055000005 0 .133 0 C .153 0 .20300001 .0040000008 .263 .075 C .27100004 .033000005 .30600003 0 .35400004 0 C .38900004 0 .41200004 .023000002 .42800004 .055000005 C .44500003 .091000009 .45800004 .15200001 .45800004 .15400002 C .45800004 .16400002 .44900004 .16400002 .44600005 .16400002 C .43600003 .16400002 .43500004 .16000001 .43200005 .14600002 C .41500003 .081 .397 .022000002 .35600005 .022000002 C .32900004 .022000002 .32600004 .048 .32600004 .068 C .32600004 .092 .32800005 .09900001 .33200003 .116000007 L .47600005 .694 M .26800005 .13000001 C .263 .112 .263 .11000001 .24800001 .093 C .20400001 .038000004 .163 .022000002 .135 .022000002 C .08499999 .022000002 .07100001 .077 .07100001 .116000007 C .07100001 .16600001 .103 .28900004 .126 .335 C .157 .39400003 .202 .43100003 .242 .43100003 C .307 .43100003 .32100005 .34900005 .32100005 .34300003 C .32100005 .337 .31900005 .33100004 .31800003 .32600004 L .26800005 .13000001 Z "/>
</symbol>
<symbol id="font_0_2">
<path d="M .572 .591 C .62100008 .669 .66300007 .67200008 .70000007 .674 C .712 .6750001 .71300008 .69200006 .71300008 .693 C .71300008 .70100006 .70800009 .70500007 .70000007 .70500007 C .674 .70500007 .64500007 .702 .61800006 .702 C .58500006 .702 .55100008 .70500007 .51900008 .70500007 C .513 .70500007 .50000008 .70500007 .50000008 .68600007 C .50000008 .6750001 .509 .674 .51600006 .674 C .54300007 .67200008 .56200006 .66200008 .56200006 .64100006 C .56200006 .62600007 .54700008 .60400006 .54700008 .60300007 L .24000001 .115 L .17200002 .64400008 C .17200002 .6610001 .19500003 .674 .24100003 .674 C .25500003 .674 .26600004 .674 .26600004 .69400009 C .26600004 .70300009 .25800003 .70500007 .25200004 .70500007 C .21200001 .70500007 .169 .702 .12800002 .702 C .11000001 .702 .091 .70300009 .07300001 .70300009 C .055000009 .70300009 .036000007 .70500007 .019000002 .70500007 C .012000002 .70500007 0 .70500007 0 .68600007 C 0 .674 .009000003 .674 .024999999 .674 C .08100001 .674 .08200001 .665 .085 .64000007 L .164 .023000002 C .167 .0030000006 .171 0 .18400002 0 C .20000002 0 .20400003 .005000001 .21200001 .018000002 L .572 .591 Z "/>
</symbol>
<use xlink:href="#font_0_3" transform="matrix(9.9626,0,0,-9.9626,3.7195032,30.993592)"/>
<use xlink:href="#font_0_2" transform="matrix(9.9626,0,0,-9.9626,9.069419,31.10318)"/>
<symbol id="font_1_4">
<path d="M .63100007 .19400002 C .646 .19400002 .665 .19400002 .665 .214 C .665 .23400001 .646 .23400001 .632 .23400001 L .033 .23400001 C .019000002 .23400001 0 .23400001 0 .214 C 0 .19400002 .019000002 .19400002 .034 .19400002 L .63100007 .19400002 M .632 0 C .646 0 .665 0 .665 .02000001 C .665 .040000008 .646 .040000008 .63100007 .040000008 L .034 .040000008 C .019000002 .040000008 0 .040000008 0 .02000001 C 0 0 .019000002 0 .033 0 L .632 0 Z "/>
</symbol>
<symbol id="font_1_3">
<path d="M .07700001 .07700001 L .18300002 .18 C .33900003 .31800003 .39900003 .372 .39900003 .47200004 C .39900003 .586 .30900003 .666 .18700002 .666 C .074 .666 0 .574 0 .485 C 0 .42900003 .05 .42900003 .053000008 .42900003 C .07000001 .42900003 .105000007 .441 .105000007 .48200003 C .105000007 .508 .08700001 .53400006 .052000006 .53400006 C .044000005 .53400006 .042000008 .53400006 .039 .53300008 C .062000004 .59800007 .11600001 .63500007 .17400001 .63500007 C .26500003 .63500007 .308 .554 .308 .47200004 C .308 .39200003 .25800003 .31300003 .20300003 .25100003 L .011000004 .037 C 0 .026 0 .024 0 0 L .37100003 0 L .39900003 .17400001 L .374 .17400001 C .36900003 .14400001 .36200003 .1 .352 .085 C .345 .07700001 .279 .07700001 .257 .07700001 L .07700001 .07700001 Z "/>
</symbol>
<use xlink:href="#font_1_4" transform="matrix(9.9626,0,0,-9.9626,19.856905,29.558978)"/>
<use xlink:href="#font_1_3" transform="matrix(9.9626,0,0,-9.9626,30.925354,30.884003)"/>
<symbol id="font_0_1">
<path d="M .23800002 .38400004 L .351 .38400004 C .31800003 .23600002 .30900003 .19300002 .30900003 .126 C .30900003 .111 .30900003 .08400001 .317 .05 C .327 .0060000007 .338 0 .35300002 0 C .373 0 .39400003 .018000002 .39400003 .038000004 C .39400003 .044 .39400003 .046 .388 .060000004 C .359 .13200002 .359 .19700001 .359 .22500003 C .359 .27800004 .366 .33200003 .377 .38400004 L .491 .38400004 C .504 .38400004 .54 .38400004 .54 .418 C .54 .44200004 .519 .44200004 .5 .44200004 L .165 .44200004 C .143 .44200004 .105 .44200004 .061000006 .395 C .026000003 .35600005 0 .31000004 0 .305 C 0 .30400003 0 .29500003 .012 .29500003 C .020000002 .29500003 .022000002 .29900003 .028000003 .307 C .077 .38400004 .135 .38400004 .15500002 .38400004 L .21200001 .38400004 C .18000002 .263 .12600002 .14200002 .08400001 .051000004 C .076000008 .036000004 .076000008 .034 .076000008 .027000003 C .076000008 .008000001 .092 0 .105 0 C .135 0 .143 .028 .15500002 .065000008 C .16900002 .111 .16900002 .113000009 .18200001 .16300002 L .23800002 .38400004 Z "/>
</symbol>
<symbol id="font_0_6">
<path d="M .305 .31300003 C .311 .33900003 .334 .43100003 .404 .43100003 C .409 .43100003 .433 .43100003 .454 .418 C .426 .41300003 .40600003 .388 .40600003 .36400003 C .40600003 .34800003 .417 .32900004 .444 .32900004 C .46600003 .32900004 .498 .34700004 .498 .38700003 C .498 .43900005 .439 .45300005 .405 .45300005 C .347 .45300005 .312 .40000005 .3 .37700004 C .275 .44300003 .221 .45300005 .19200002 .45300005 C .08800001 .45300005 .031000002 .32400004 .031000002 .29900003 C .031000002 .28900004 .041 .28900004 .043000007 .28900004 C .051000008 .28900004 .054000006 .291 .056 .3 C .09 .40600003 .156 .43100003 .19000001 .43100003 C .209 .43100003 .244 .42200003 .244 .36400003 C .244 .33300004 .22700002 .26600004 .19000001 .126 C .17400001 .064 .13900002 .022000002 .095000009 .022000002 C .08900001 .022000002 .06600001 .022000002 .045 .035 C .07000001 .040000004 .09200001 .061 .09200001 .089 C .09200001 .116000007 .07000001 .124000009 .055000009 .124000009 C .025 .124000009 0 .098000008 0 .06600001 C 0 .020000002 .050000006 0 .094000007 0 C .16000001 0 .19600001 .07000001 .19900002 .076000008 C .21100001 .039 .24700003 0 .307 0 C .41 0 .467 .12900001 .467 .15400002 C .467 .16400002 .458 .16400002 .455 .16400002 C .446 .16400002 .444 .16000001 .442 .15300001 C .409 .046 .341 .022000002 .30900003 .022000002 C .27 .022000002 .254 .054 .254 .08800001 C .254 .11000001 .26 .13200002 .271 .17600002 L .305 .31300003 Z "/>
</symbol>
<use xlink:href="#font_0_1" transform="matrix(9.9626,0,0,-9.9626,35.675989,30.993592)"/>
<use xlink:href="#font_0_6" transform="matrix(9.9626,0,0,-9.9626,41.733247,30.993592)"/>
<symbol id="font_2_3">
<path d="M .484 .09200001 C .484 .115 .484 .120000008 .47 .120000008 C .409 .12100001 .31 .12900001 .22000002 .17300001 C .112 .22700002 .071 .29000003 .046000005 .32900004 C .043 .33400003 .037 .33400003 .024 .33400003 C .0009999983 .33400003 0 .333 0 .30800004 L 0 .29200004 C .136 .047000003 .361 0 .463 0 C .484 0 .484 .001 .484 .028 L .484 .09200001 Z "/>
</symbol>
<symbol id="font_2_2">
<path d="M .48400004 .04200001 C .34800003 .28700004 .123 .33400003 .021000002 .33400003 C 0 .33400003 0 .333 0 .30600003 L 0 .24200002 C 0 .21900001 0 .21400002 .014 .21400002 C .075 .21300002 .17400001 .20500002 .264 .16100002 C .372 .10700001 .41300003 .044000016 .43800003 .00500001 C .441 0 .447 0 .46 0 C .483 0 .48400004 .001000002 .48400004 .026000008 L .48400004 .04200001 Z "/>
</symbol>
<symbol id="font_2_1">
<path d="M .484 .30600003 C .484 .333 .484 .33400003 .463 .33400003 C .361 .33400003 .136 .286 0 .04200001 L 0 .026000008 C 0 .001000002 .0009999983 0 .024 0 C .043 0 .044 .001000002 .049000004 .008000001 C .13100001 .13900002 .269 .21000003 .472 .21400002 C .484 .21400002 .484 .22100002 .484 .24200002 L .484 .30600003 Z "/>
</symbol>
<symbol id="font_2_4">
<path d="M .48400004 .30800004 C .48400004 .333 .483 .33400003 .46 .33400003 C .441 .33400003 .44 .333 .435 .326 C .35300002 .19500001 .21500002 .124000009 .012000001 .120000008 C 0 .120000008 0 .113000009 0 .09200001 L 0 .028 C 0 .001 0 0 .021000002 0 C .123 0 .34800003 .048 .48400004 .29200004 L .48400004 .30800004 Z "/>
</symbol>
<use xlink:href="#font_2_3" transform="matrix(9.9626,0,0,-9.9626,29.575896,35.068)"/>
<use xlink:href="#font_2_2" transform="matrix(9.9626,0,0,-9.9626,34.198545,37.199998)"/>
<use xlink:href="#font_2_1" transform="matrix(9.9626,0,0,-9.9626,38.542238,37.199998)"/>
<use xlink:href="#font_2_4" transform="matrix(9.9626,0,0,-9.9626,43.164884,35.068)"/>
<use xlink:href="#font_2_1" transform="matrix(9.9626,0,0,-9.9626,49.168897,22.555)"/>
<path transform="matrix(1,0,0,-1,53.891,20.423005)" d="M 0 0 L 19.968 0 L 19.968 1.195 L 0 1.195 Z "/>
<use xlink:href="#font_2_4" transform="matrix(9.9626,0,0,-9.9626,73.760379,20.423005)"/>
<use xlink:href="#font_2_3" transform="matrix(9.9626,0,0,-9.9626,78.104068,20.423005)"/>
<path transform="matrix(1,0,0,-1,82.826,20.423005)" d="M 0 0 L 19.968 0 L 19.968 1.195 L 0 1.195 Z "/>
<use xlink:href="#font_2_2" transform="matrix(9.9626,0,0,-9.9626,102.69537,22.555)"/>
<symbol id="font_1_1">
<path d="M .23200003 .00999999 C .23200003 .012999982 .23200003 .014999986 .215 .03199999 C .09 .15799999 .058 .347 .058 .5 C .058 .674 .096 .84800007 .21900001 .97300007 C .23200003 .985 .23200003 .98700007 .23200003 .99 C .23200003 .99700006 .22800002 1 .222 1 C .21200001 1 .12200001 .93200007 .06299999 .805 C .012000002 .69500008 0 .584 0 .5 C 0 .422 .011 .301 .066 .188 C .126 .065 .21200001 0 .222 0 C .22800002 0 .23200003 .0029999912 .23200003 .00999999 Z "/>
</symbol>
<use xlink:href="#font_1_1" transform="matrix(9.9626,0,0,-9.9626,50.394296,33.374654)"/>
<symbol id="font_0_4">
<path d="M .314 .605 L .4 .605 C .42000003 .605 .43 .605 .43 .625 C .43 .63600006 .42000003 .63600006 .40300004 .63600006 L .32000003 .63600006 L .34100003 .75 C .34500004 .771 .35900004 .842 .365 .8540001 C .374 .873 .39100004 .888 .41200004 .888 C .416 .888 .44200004 .888 .461 .87 C .41700004 .86600008 .407 .8310001 .407 .816 C .407 .793 .425 .781 .444 .781 C .47 .781 .49900005 .8030001 .49900005 .8410001 C .49900005 .8870001 .45300005 .9100001 .41200004 .9100001 C .37800003 .9100001 .31500004 .8920001 .28500004 .793 C .279 .7720001 .27600003 .7620001 .252 .63600006 L .18300002 .63600006 C .164 .63600006 .15300001 .63600006 .15300001 .61700007 C .15300001 .605 .162 .605 .18100001 .605 L .24700001 .605 L .172 .21000001 C .15400002 .113000009 .13700001 .022 .08500001 .022 C .081 .022 .056 .022 .037 .040000008 C .083000008 .043000014 .09200001 .07900001 .09200001 .094000007 C .09200001 .117000009 .074 .12900001 .055 .12900001 C .029 .12900001 0 .10700001 0 .069000009 C 0 .024000004 .044 0 .08500001 0 C .14 0 .18 .059 .19800002 .09700001 C .23000002 .16000001 .25300003 .28100003 .254 .28800003 L .314 .605 Z "/>
</symbol>
<use xlink:href="#font_0_4" transform="matrix(9.9626,0,0,-9.9626,53.811017,32.92634)"/>
<use xlink:href="#font_1_1" transform="matrix(9.9626,0,0,-9.9626,60.218297,33.374654)"/>
<use xlink:href="#font_0_6" transform="matrix(9.9626,0,0,-9.9626,63.395914,30.993594)"/>
<symbol id="font_1_2">
<path d="M .232 .5 C .232 .578 .22100002 .699 .16600001 .81200006 C .106 .93500009 .020000004 1 .009999998 1 C .0040000008 1 0 .99600008 0 .99 C 0 .98700007 0 .985 .019000002 .967 C .117000009 .86800006 .174 .709 .174 .5 C .174 .329 .137 .153 .012999997 .026999996 C 0 .014999986 0 .012999982 0 .00999999 C 0 .003999993 .0040000008 0 .009999998 0 C .020000004 0 .11000001 .06799999 .169 .195 C .22 .305 .232 .416 .232 .5 Z "/>
</symbol>
<use xlink:href="#font_1_2" transform="matrix(9.9626,0,0,-9.9626,69.368869,33.374654)"/>
<symbol id="font_3_1">
<path d="M .57600006 0 C .59300008 0 .611 0 .611 .019999996 C .611 .040000008 .59300008 .040000008 .57600006 .040000008 L .035000005 .040000008 C .018 .040000008 0 .040000008 0 .019999996 C 0 0 .018 0 .035000005 0 L .57600006 0 Z "/>
</symbol>
<use xlink:href="#font_3_1" transform="matrix(9.9626,0,0,-9.9626,75.71589,28.592606)"/>
<symbol id="font_0_5">
<path d="M .45600004 .582 C .45700003 .58800008 .45900006 .59300008 .45900006 .6 C .45900006 .61700007 .44700004 .62700006 .43 .62700006 C .42000003 .62700006 .393 .62 .389 .584 C .371 .62100008 .33600004 .6470001 .296 .6470001 C .18200001 .6470001 .058000007 .507 .058000007 .36300005 C .058000007 .26400004 .119 .20500002 .19100002 .20500002 C .25 .20500002 .297 .252 .30700005 .263 L .30800004 .26200003 C .287 .17300001 .27500005 .132 .27500005 .13000001 C .27100004 .12100001 .237 .022 .13100001 .022 C .112 .022 .079 .023000002 .051 .032000007 C .081 .04100001 .09200001 .067 .09200001 .08400001 C .09200001 .10000001 .081 .11900001 .054000006 .11900001 C .032 .11900001 0 .10100001 0 .061000006 C 0 .02000001 .037 0 .133 0 C .25800003 0 .33000005 .07800001 .34500004 .13800001 L .45600004 .582 M .32600004 .333 C .32 .307 .297 .282 .27500005 .263 C .254 .24500002 .223 .22700002 .194 .22700002 C .14400001 .22700002 .12900001 .279 .12900001 .319 C .12900001 .367 .158 .485 .185 .536 C .21200001 .58500006 .255 .625 .297 .625 C .36300005 .625 .37700004 .544 .37700004 .53900006 C .37700004 .53400006 .375 .528 .374 .52400007 L .32600004 .333 Z "/>
</symbol>
<use xlink:href="#font_0_5" transform="matrix(9.9626,0,0,-9.9626,85.00143,32.92634)"/>
<use xlink:href="#font_1_1" transform="matrix(9.9626,0,0,-9.9626,90.94729,33.374654)"/>
<use xlink:href="#font_0_6" transform="matrix(9.9626,0,0,-9.9626,94.12391,30.993594)"/>
<use xlink:href="#font_1_2" transform="matrix(9.9626,0,0,-9.9626,100.09686,33.374654)"/>
<use xlink:href="#font_1_2" transform="matrix(9.9626,0,0,-9.9626,103.97231,33.374654)"/>
<use xlink:href="#font_0_3" transform="matrix(9.9626,0,0,-9.9626,112.863498,30.993594)"/>
<use xlink:href="#font_0_6" transform="matrix(9.9626,0,0,-9.9626,117.94442,30.993594)"/>
<use xlink:href="#font_2_3" transform="matrix(9.9626,0,0,-9.9626,108.69888,35.068006)"/>
<use xlink:href="#font_2_2" transform="matrix(9.9626,0,0,-9.9626,113.32153,37.2)"/>
<use xlink:href="#font_2_1" transform="matrix(9.9626,0,0,-9.9626,117.66522,37.2)"/>
<use xlink:href="#font_2_4" transform="matrix(9.9626,0,0,-9.9626,122.28787,35.068006)"/>
<symbol id="font_4_1">
<path d="M .33 .404 C .30900003 .40000005 .289 .38600005 .289 .35700003 C .289 .33100004 .30900003 .31100003 .335 .31100003 C .361 .31100003 .382 .328 .382 .35900004 C .382 .42100004 .312 .45900003 .224 .45900003 C .09600001 .45900003 0 .35200004 0 .22700002 C 0 .098000008 .10400001 0 .222 0 C .361 0 .393 .12100001 .393 .13000001 C .393 .14200002 .382 .14200002 .379 .14200002 C .368 .14200002 .368 .14000002 .36200003 .123 C .33900003 .054 .283 .028 .232 .028 C .16800002 .028 .086 .080000009 .086 .22800002 C .086 .38400004 .16600001 .43100003 .22600001 .43100003 C .239 .43100003 .293 .42900003 .33 .404 Z "/>
</symbol>
<symbol id="font_4_6">
<path d="M .14800002 .44200004 L .0040000008 .43100003 L .0040000008 .4 C .068 .4 .07700001 .39400003 .07700001 .34500004 L .07700001 .07700001 C .07700001 .031000002 .066 .031000002 0 .031000002 L 0 0 C .044999999 .002 .066 .003 .110000018 .003 C .126 .003 .16800002 .003 .21700002 0 L .21700002 .031000002 C .15200001 .031000002 .14800002 .036000004 .14800002 .075 L .14800002 .44200004 M .15100001 .61600008 C .15100001 .646 .127 .67 .097 .67 C .066 .67 .043 .64500007 .043 .61600008 C .043 .587 .066 .56200006 .097 .56200006 C .127 .56200006 .15100001 .586 .15100001 .61600008 Z "/>
</symbol>
<symbol id="font_4_a">
<path d="M .148 .22900002 C .148 .27 .15900001 .41700004 .273 .41700004 L .273 .416 C .27100004 .41500003 .25500003 .40300004 .25500003 .379 C .25500003 .35200004 .27600003 .335 .29900003 .335 C .32000003 .335 .34300003 .35000003 .34300003 .38000003 C .34300003 .41200004 .31300003 .44200004 .268 .44200004 C .208 .44200004 .16600001 .4 .143 .33800004 L .142 .33800004 L .142 .44200004 L 0 .43100003 L 0 .4 C .068 .4 .07700001 .393 .07700001 .344 L .07700001 .07700001 C .07700001 .031000002 .066 .031000002 0 .031000002 L 0 0 C .053000004 .002 .066 .003 .117 .003 C .157 .003 .18100001 .002 .24400002 0 L .24400002 .031000002 L .224 .031000002 C .15100001 .031000002 .148 .042000005 .148 .079 L .148 .22900002 Z "/>
</symbol>
<symbol id="font_4_d">
<path d="M .36100004 .17800002 C .36100004 .089 .31100003 .025000003 .23900002 .025000003 C .15600002 .025000003 .15100001 .068 .15100001 .12200001 L .15100001 .45300005 L 0 .44200004 L 0 .411 C .07700001 .411 .07700001 .40800003 .07700001 .31900005 L .07700001 .16900002 C .07700001 .104 .07700001 .062000004 .12300001 .027000003 C .15200001 .0070000009 .19300002 0 .23300001 0 C .28500004 0 .33400003 .023000002 .36300005 .083000008 L .36400003 .083000008 L .36400003 0 L .512 .011000001 L .512 .042000005 C .44400005 .042000005 .43500004 .049000004 .43500004 .098000008 L .43500004 .45300005 L .284 .44200004 L .284 .411 C .35200004 .411 .36100004 .404 .36100004 .35500003 L .36100004 .17800002 Z "/>
</symbol>
<symbol id="font_4_8">
<path d="M .15100001 .259 C .15100001 .367 .229 .41700004 .289 .41700004 C .344 .41700004 .36200003 .37800003 .36200003 .30800004 L .36200003 .07700001 C .36200003 .031000002 .351 .031000002 .28500004 .031000002 L .28500004 0 C .33200003 .002 .351 .003 .39900003 .003 C .44700004 .003 .46000005 .002 .513 0 L .513 .031000002 C .44700004 .031000002 .43600003 .031000002 .43600003 .07700001 L .43600003 .259 C .43600003 .367 .514 .41700004 .574 .41700004 C .629 .41700004 .647 .37800003 .647 .30800004 L .647 .07700001 C .647 .031000002 .636 .031000002 .57 .031000002 L .57 0 C .617 .002 .636 .003 .684 .003 C .732 .003 .745 .002 .79800006 0 L .79800006 .031000002 C .74700006 .031000002 .722 .031000002 .721 .062000004 L .721 .254 C .721 .34100003 .721 .36900003 .688 .40600003 C .667 .43 .62700006 .44200004 .58100005 .44200004 C .509 .44200004 .46000005 .4 .432 .347 C .42000003 .40600003 .38000003 .44200004 .29600004 .44200004 C .21600002 .44200004 .16700001 .39000003 .14600002 .344 L .14500001 .344 L .14500001 .44200004 L 0 .43100003 L 0 .4 C .068 .4 .07700001 .393 .07700001 .344 L .07700001 .07700001 C .07700001 .031000002 .066 .031000002 0 .031000002 L 0 0 C .047000003 .002 .066 .003 .11400001 .003 C .16200002 .003 .17500001 .002 .22800002 0 L .22800002 .031000002 C .16200002 .031000002 .15100001 .031000002 .15100001 .07700001 L .15100001 .259 Z "/>
</symbol>
<symbol id="font_4_3">
<path d="M .266 .4 L .266 .43100003 L .14700002 .43100003 L .14700002 .544 C .14700002 .63500007 .19600001 .68 .239 .68 C .24900002 .68 .259 .67800006 .269 .674 C .259 .67 .243 .65800008 .243 .633 C .243 .60700008 .262 .58900007 .287 .58900007 C .314 .58900007 .33200003 .60800006 .33200003 .634 C .33200003 .67200008 .294 .70500007 .239 .70500007 C .16100002 .70500007 .079 .646 .079 .546 L .079 .43100003 L 0 .43100003 L 0 .4 L .079 .4 L .079 .07700001 C .079 .031000002 .068 .031000002 .0020000004 .031000002 L .0020000004 0 C .055 .002 .068 .003 .11900001 .003 C .15900001 .003 .183 .002 .24599999 0 L .24599999 .031000002 L .22600001 .031000002 C .153 .031000002 .15 .042000005 .15 .079 L .15 .4 L .266 .4 Z "/>
</symbol>
<symbol id="font_4_2">
<path d="M .371 .24000003 C .393 .24000003 .398 .24000003 .398 .261 C .398 .36400003 .342 .45900003 .21400002 .45900003 C .094000007 .45900003 0 .35500003 0 .23100002 C 0 .1 .105000007 0 .22700002 0 C .349 0 .398 .107 .398 .13000001 C .398 .13700001 .393 .143 .384 .143 C .374 .143 .371 .136 .37 .13200002 C .336 .030000002 .24700003 .028 .23200001 .028 C .18400002 .028 .143 .055000005 .120000008 .089 C .087000008 .13800001 .086 .19800002 .086 .24000003 L .371 .24000003 M .087000008 .26400004 C .096 .418 .186 .43400003 .21400002 .43400003 C .269 .43400003 .329 .39200003 .33 .26400004 L .087000008 .26400004 Z "/>
</symbol>
<symbol id="font_4_9">
<path d="M .15100001 .259 C .15100001 .365 .22600001 .41700004 .289 .41700004 C .34800003 .41700004 .36100004 .36800004 .36100004 .30800004 L .36100004 .07700001 C .36100004 .031000002 .35000003 .031000002 .284 .031000002 L .284 0 C .33100004 .002 .35000003 .003 .39800004 .003 C .44600005 .003 .45900003 .002 .512 0 L .512 .031000002 C .46100004 .031000002 .43600003 .031000002 .43500004 .062000004 L .43500004 .254 C .43500004 .337 .43500004 .36600004 .40700004 .40100003 C .38400004 .42900003 .34600003 .44200004 .29600004 .44200004 C .20300001 .44200004 .16000001 .37300004 .14600002 .34500004 L .14500001 .34500004 L .14500001 .44200004 L 0 .43100003 L 0 .4 C .068 .4 .07700001 .393 .07700001 .344 L .07700001 .07700001 C .07700001 .031000002 .066 .031000002 0 .031000002 L 0 0 C .047000003 .002 .066 .003 .11400001 .003 C .16200002 .003 .17500001 .002 .22800002 0 L .22800002 .031000002 C .16200002 .031000002 .15100001 .031000002 .15100001 .07700001 L .15100001 .259 Z "/>
</symbol>
<use xlink:href="#font_4_1" transform="matrix(8.9664,0,0,-8.9664,9.509859,50.20163)"/>
<use xlink:href="#font_4_6" transform="matrix(8.9664,0,0,-8.9664,13.625437,50.103)"/>
<use xlink:href="#font_4_a" transform="matrix(8.9664,0,0,-8.9664,16.136029,50.103)"/>
<use xlink:href="#font_4_1" transform="matrix(8.9664,0,0,-8.9664,19.776387,50.20163)"/>
<use xlink:href="#font_4_d" transform="matrix(8.9664,0,0,-8.9664,23.882998,50.20163)"/>
<use xlink:href="#font_4_8" transform="matrix(8.9664,0,0,-8.9664,29.002814,50.103)"/>
<use xlink:href="#font_4_3" transform="matrix(8.9664,0,0,-8.9664,36.67805,50.103)"/>
<use xlink:href="#font_4_2" transform="matrix(8.9664,0,0,-8.9664,39.44867,50.20163)"/>
<use xlink:href="#font_4_a" transform="matrix(8.9664,0,0,-8.9664,43.55528,50.103)"/>
<use xlink:href="#font_4_2" transform="matrix(8.9664,0,0,-8.9664,47.150804,50.20163)"/>
<use xlink:href="#font_4_9" transform="matrix(8.9664,0,0,-8.9664,51.30225,50.103)"/>
<use xlink:href="#font_4_1" transform="matrix(8.9664,0,0,-8.9664,56.413099,50.20163)"/>
<use xlink:href="#font_4_2" transform="matrix(8.9664,0,0,-8.9664,60.46591,50.20163)"/>
<symbol id="font_4_5">
<path d="M .14800002 .694 L 0 .683 L 0 .652 C .068 .652 .07700001 .64500007 .07700001 .596 L .07700001 .07700001 C .07700001 .031000002 .066 .031000002 0 .031000002 L 0 0 C .047000003 .002 .066 .003 .11400001 .003 C .16200002 .003 .17500001 .002 .22800002 0 L .22800002 .031000002 C .16200002 .031000002 .15100001 .031000002 .15100001 .07700001 L .15100001 .259 C .15100001 .365 .22600001 .41700004 .289 .41700004 C .34800003 .41700004 .36100004 .36800004 .36100004 .30800004 L .36100004 .07700001 C .36100004 .031000002 .35000003 .031000002 .284 .031000002 L .284 0 C .33100004 .002 .35000003 .003 .39800004 .003 C .44600005 .003 .45900003 .002 .512 0 L .512 .031000002 C .46100004 .031000002 .43600003 .031000002 .43500004 .062000004 L .43500004 .254 C .43500004 .337 .43500004 .36600004 .40700004 .40100003 C .38400004 .42900003 .34600003 .44200004 .29600004 .44200004 C .229 .44200004 .18 .407 .14900002 .351 L .14800002 .351 L .14800002 .694 Z "/>
</symbol>
<symbol id="font_4_4">
<path d="M .096 .38500003 C .12100001 .36900003 .15200001 .35400004 .19800002 .35400004 C .293 .35400004 .365 .42200003 .365 .50100007 C .365 .55 .337 .58400008 .324 .59800007 C .364 .63400009 .411 .63400009 .423 .63400009 C .418 .63100007 .41 .62600007 .41 .60800006 C .41 .59700009 .417 .578 .44 .578 C .454 .578 .47 .58800008 .47 .609 C .47 .628 .456 .65900006 .416 .65900006 C .387 .65900006 .342 .64800009 .307 .61200007 C .28 .63400009 .24100001 .64800009 .19900002 .64800009 C .104 .64800009 .032000007 .58000007 .032000007 .50100007 C .032000007 .45000006 .062000008 .41400004 .07800001 .39900003 C .076000008 .397 .048000009 .36200003 .048000009 .316 C .048000009 .282 .064 .24600002 .091000009 .22800002 C .040000008 .21200001 0 .17500001 0 .12800002 C 0 .05700001 .09900001 0 .22700002 0 C .35 0 .455 .053000004 .455 .13000001 C .455 .17100002 .43600003 .21500002 .39900003 .23900002 C .343 .27400003 .285 .27400003 .19000001 .27400003 C .17000002 .27400003 .13800001 .27400003 .13000001 .27600003 C .10100001 .282 .08200001 .30900003 .08200001 .34100003 C .08200001 .35700003 .087000008 .37200005 .096 .38500003 M .19800002 .38100005 C .10900001 .38100005 .10900001 .47900004 .10900001 .50100007 C .10900001 .52800008 .111 .56200006 .128 .586 C .143 .606 .17000002 .62100008 .19800002 .62100008 C .288 .62100008 .288 .52400007 .288 .50100007 C .288 .47800005 .288 .38100005 .19800002 .38100005 M .244 .21100001 C .276 .21100001 .39900003 .21000001 .39900003 .12900001 C .39900003 .07200001 .322 .02700001 .228 .02700001 C .13000001 .02700001 .056 .074000019 .056 .12900001 C .056 .14500001 .06600001 .21100001 .15200001 .21100001 L .244 .21100001 Z "/>
</symbol>
<symbol id="font_4_c">
<path d="M .30600003 .411 L .30600003 .44200004 L .16100002 .44200004 L .16100002 .626 L .13300002 .626 C .132 .542 .097 .43900005 0 .43600003 L 0 .411 L .087000008 .411 L .087000008 .135 C .087000008 .023000002 .16800002 0 .22100002 0 C .28800003 0 .323 .064 .323 .135 L .323 .19200002 L .29500003 .19200002 L .29500003 .13800001 C .29500003 .064 .26400004 .028 .22800002 .028 C .16100002 .028 .16100002 .116000007 .16100002 .134 L .16100002 .411 L .30600003 .411 Z "/>
</symbol>
<use xlink:href="#font_4_5" transform="matrix(8.9664,0,0,-8.9664,67.165828,9.547001)"/>
<use xlink:href="#font_4_2" transform="matrix(8.9664,0,0,-8.9664,72.231838,9.645631)"/>
<use xlink:href="#font_4_6" transform="matrix(8.9664,0,0,-8.9664,76.39225,9.547001)"/>
<use xlink:href="#font_4_4" transform="matrix(8.9664,0,0,-8.9664,78.893878,11.394079)"/>
<use xlink:href="#font_4_5" transform="matrix(8.9664,0,0,-8.9664,83.556407,9.547001)"/>
<use xlink:href="#font_4_c" transform="matrix(8.9664,0,0,-8.9664,88.27273,9.645631)"/>
<symbol id="font_4_7">
<path d="M .148 .21700001 L .148 .694 L 0 .683 L 0 .652 C .068 .652 .07700001 .64500007 .07700001 .596 L .07700001 .07700001 C .07700001 .031000002 .066 .031000002 0 .031000002 L 0 0 C .044 .002 .069000009 .003 .111 .003 C .15200001 .003 .17700002 .002 .222 0 L .222 .031000002 C .156 .031000002 .14500001 .031000002 .14500001 .07700001 L .14500001 .178 L .209 .23200001 L .30600003 .101 C .32200004 .079 .33 .067 .33 .053000004 C .33 .043 .32700003 .031000002 .296 .031000002 L .296 0 C .34100003 .002 .365 .003 .404 .003 C .43300004 .003 .46500004 .003 .49400006 0 L .49400006 .031000002 C .46100004 .031000002 .437 .032 .40100003 .080000009 L .259 .273 C .35700003 .358 .40300004 .397 .47100006 .4 L .47100006 .43100003 C .43600003 .42800004 .43400003 .42800004 .397 .42800004 C .367 .42800004 .34100003 .42900003 .287 .43100003 L .287 .4 C .30200003 .39900003 .314 .39200003 .314 .37600003 C .314 .35700003 .298 .344 .289 .33600004 L .148 .21700001 Z "/>
</symbol>
<symbol id="font_4_b">
<path d="M .31 .43300004 C .31 .45000003 .31 .45900003 .298 .45900003 C .293 .45900003 .291 .45900003 .278 .44700004 C .276 .44500003 .26700003 .43600003 .261 .43100003 C .22999999 .45300005 .199 .45900003 .16500002 .45900003 C .033 .45900003 0 .38600005 0 .335 C 0 .30300004 .013999999 .277 .037 .25500003 C .071 .22400002 .109000008 .21700002 .16 .20800002 C .211 .19800002 .22800002 .19500003 .25 .17800002 C .26 .17000002 .285 .15100001 .285 .113000009 C .285 .025000003 .18400002 .025000003 .17000002 .025000003 C .068 .025000003 .042000005 .11000001 .030000002 .16400002 C .027000003 .17400001 .026 .18000002 .013999999 .18000002 C 0 .18000002 0 .17200002 0 .15400002 L 0 .026 C 0 .009000001 0 0 .012000002 0 C .018 0 .019000002 .0010000002 .037 .020000002 C .041 .026 .052 .039 .057000005 .044 C .099 .0030000006 .14500001 0 .17000002 0 C .293 0 .336 .072000008 .336 .13900002 C .336 .18400002 .316 .21100001 .294 .23400001 C .26 .26700003 .224 .27400003 .15 .28800003 C .124000009 .293 .051 .30600003 .051 .36300005 C .051 .395 .074 .43700005 .16500002 .43700005 C .273 .43700005 .28 .35400004 .282 .32900004 C .283 .31700004 .283 .31100003 .296 .31100003 C .31 .31100003 .31 .31800003 .31 .337 L .31 .43300004 Z "/>
</symbol>
<use xlink:href="#font_4_c" transform="matrix(8.9664,0,0,-8.9664,98.06236,50.20163)"/>
<use xlink:href="#font_4_5" transform="matrix(8.9664,0,0,-8.9664,101.79239,50.103)"/>
<use xlink:href="#font_4_6" transform="matrix(8.9664,0,0,-8.9664,106.921169,50.103)"/>
<use xlink:href="#font_4_1" transform="matrix(8.9664,0,0,-8.9664,109.46762,50.20163)"/>
<use xlink:href="#font_4_7" transform="matrix(8.9664,0,0,-8.9664,113.26937,50.103)"/>
<use xlink:href="#font_4_9" transform="matrix(8.9664,0,0,-8.9664,118.173999,50.103)"/>
<use xlink:href="#font_4_2" transform="matrix(8.9664,0,0,-8.9664,123.240009,50.20163)"/>
<use xlink:href="#font_4_b" transform="matrix(8.9664,0,0,-8.9664,127.38248,50.20163)"/>
<use xlink:href="#font_4_b" transform="matrix(8.9664,0,0,-8.9664,131.01387,50.20163)"/>
</svg>
