<?xml version="1.0" encoding="UTF-8" standalone="no"?>
<!DOCTYPE svg PUBLIC "-//W3C//DTD SVG 1.1//EN" "http://www.w3.org/Graphics/SVG/1.1/DTD/svg11.dtd">
<svg xmlns="http://www.w3.org/2000/svg" xmlns:xlink="http://www.w3.org/1999/xlink" version="1.1" width="228.829pt" height="174.802pt" viewBox="0 0 228.829 174.802">
<clipPath id="cp0">
<path transform="matrix(1,0,0,-1,21.844,174.603)" d="M 0 0 L 194.27399 0 L 194.27399 161.39028 L 0 161.39028 Z "/>
</clipPath>
<g clip-path="url(#cp0)">
<path transform="matrix(1,0,0,-1,21.844,174.603)" d="M 129.51599 128.51448 L 58.2822 128.51448 L 58.2822 32.8758 L 129.51599 32.8758 " fill="#e6e6f2"/>
<path transform="matrix(1,0,0,-1,21.844,174.603)" d="M 69.61484 80.69513 C 69.61484 107.10536 64.54112 128.51448 58.2822 128.51448 C 52.02325 128.51448 46.94954 107.10536 46.94954 80.69513 C 46.94954 54.2849 52.02325 32.8758 58.2822 32.8758 C 64.54112 32.8758 69.61484 54.2849 69.61484 80.69513 Z M 58.2822 80.69513 " fill="#e6e6f2"/>
<path transform="matrix(1,0,0,-1,21.844,174.603)" stroke-width="1.19553" stroke-linecap="butt" stroke-dasharray="2.98883,2.98883" stroke-miterlimit="10" stroke-linejoin="miter" fill="none" stroke="#000080" d="M 69.61484 80.69513 C 69.61484 107.10536 64.54112 128.51448 58.2822 128.51448 C 52.02325 128.51448 46.94954 107.10536 46.94954 80.69513 C 46.94954 54.2849 52.02325 32.8758 58.2822 32.8758 C 64.54112 32.8758 69.61484 54.2849 69.61484 80.69513 Z M 58.2822 80.69513 "/>
<path transform="matrix(1,0,0,-1,21.844,174.603)" d="M 66.37694 80.69513 C 66.37694 105.45471 62.75285 125.52577 58.2822 125.52577 C 53.81152 125.52577 50.18744 105.45471 50.18744 80.69513 C 50.18744 55.93555 53.81152 35.8645 58.2822 35.8645 C 62.75285 35.8645 66.37694 55.93555 66.37694 80.69513 Z M 58.2822 80.69513 " fill="#ffffff"/>
<path transform="matrix(1,0,0,-1,21.844,174.603)" stroke-width="1.19553" stroke-linecap="butt" stroke-dasharray="2.98883,2.98883" stroke-miterlimit="10" stroke-linejoin="miter" fill="none" stroke="#000080" d="M 66.37694 80.69513 C 66.37694 105.45471 62.75285 125.52577 58.2822 125.52577 C 53.81152 125.52577 50.18744 105.45471 50.18744 80.69513 C 50.18744 55.93555 53.81152 35.8645 58.2822 35.8645 C 62.75285 35.8645 66.37694 55.93555 66.37694 80.69513 Z M 58.2822 80.69513 "/>
<path transform="matrix(1,0,0,-1,21.844,174.603)" stroke-width="1.19553" stroke-linecap="butt" stroke-miterlimit="10" stroke-linejoin="miter" fill="none" stroke="#008000" d="M 129.51599 128.51448 L 58.2822 128.51448 "/>
<path transform="matrix(1,0,0,-1,21.844,174.603)" stroke-width="1.19553" stroke-linecap="butt" stroke-miterlimit="10" stroke-linejoin="miter" fill="none" stroke="#008000" d="M 129.51599 32.8758 L 58.2822 32.8758 "/>
<path transform="matrix(1,0,0,-1,21.844,174.603)" stroke-width="1.19553" stroke-linecap="butt" stroke-dasharray="2.98883,2.98883" stroke-miterlimit="10" stroke-linejoin="miter" fill="none" stroke="#008000" d="M 129.51599 125.52577 L 58.2822 125.52577 "/>
<path transform="matrix(1,0,0,-1,21.844,174.603)" stroke-width="1.19553" stroke-linecap="butt" stroke-dasharray="2.98883,2.98883" stroke-miterlimit="10" stroke-linejoin="miter" fill="none" stroke="#008000" d="M 129.51599 35.8645 L 58.2822 35.8645 "/>
<path transform="matrix(1,0,0,-1,21.844,174.603)" stroke-width="1.19553" stroke-linecap="butt" stroke-miterlimit="10" stroke-linejoin="miter" fill="none" stroke="#000080" d="M 0 110.58223 C 0 110.58223 1.41766 113.22687 1.96216 113.87247 C 2.50665 114.51807 3.37982 114.90114 3.9243 115.23532 C 4.4688 115.5695 5.342 116.01367 5.88649 116.2811 C 6.43097 116.54851 7.30418 116.93262 7.84866 117.1627 C 8.39316 117.39279 9.26633 117.73424 9.81082 117.93944 C 10.3553 118.14462 11.22852 118.45464 11.773 118.64165 C 12.31749 118.82866 13.19066 119.11441 13.73515 119.2874 C 14.27963 119.46037 15.15283 119.7267 15.69733 119.88843 C 16.24182 120.05017 17.115 120.30067 17.65948 120.45311 C 18.20398 120.60555 19.07716 120.84251 19.62166 120.98705 C 20.16615 121.13159 21.03934 121.35712 21.58382 121.49489 C 22.12831 121.63266 23.00151 121.84824 23.546 121.98013 C 24.09048 122.11203 24.96367 122.31883 25.50815 122.44554 C 26.05264 122.57225 26.92584 122.77127 27.47034 122.89336 C 28.01482 123.01546 28.88799 123.20755 29.43248 123.32549 C 29.97697 123.44342 30.85017 123.62921 31.39467 123.7434 C 31.93915 123.85757 32.81232 124.03769 33.35681 124.14845 C 33.9013 124.25922 34.7745 124.43411 35.31898 124.54176 C 35.86348 124.6494 36.73666 124.81953 37.28116 124.92429 C 37.82565 125.02904 38.69884 125.19475 39.24332 125.29686 C 39.78781 125.39897 40.661 125.5606 41.20549 125.66025 C 41.74997 125.75989 42.62318 125.91772 43.16766 126.01508 C 43.71216 126.11243 44.58533 126.26671 45.12982 126.36192 C 45.6743 126.45714 46.5475 126.60811 47.092 126.70131 C 47.63649 126.79451 48.50966 126.94238 49.05415 127.03369 C 49.59863 127.12502 50.47183 127.26996 51.01633 127.3595 C 51.56082 127.44904 52.43399 127.59122 52.97847 127.67908 C 53.52296 127.76695 54.39616 127.90654 54.94066 127.99283 C 55.48515 128.0791 56.35834 128.21622 56.90282 128.301 C 57.44731 128.38578 58.3205 128.52056 58.86499 128.60391 C 59.40947 128.68726 60.28267 128.81981 60.82715 128.90181 C 61.37164 128.98381 62.24484 129.11423 62.78934 129.19493 C 63.33382 129.27564 64.20699 129.40406 64.75148 129.48352 C 65.29597 129.563 66.16917 129.68947 66.71367 129.76776 C 67.25815 129.84606 68.13132 129.97069 68.67581 130.04785 C 69.2203 130.12502 70.0935 130.2479 70.63799 130.32399 C 71.18248 130.40007 72.05568 130.52124 72.60017 130.5963 C 73.14467 130.67136 74.01784 130.7909 74.56232 130.86496 C 75.10681 130.93903 75.98 131.05699 76.52449 131.1301 C 77.06897 131.2032 77.94217 131.31969 78.48665 131.39186 C 79.03114 131.46404 79.90433 131.57909 80.44882 131.65039 C 80.9933 131.72168 81.86647 131.83531 82.41096 131.90576 C 82.95546 131.97621 83.82866 132.08852 84.37315 132.15813 C 84.91763 132.22774 85.79083 132.33875 86.33533 132.40756 C 86.87982 132.47638 87.75299 132.58615 88.29747 132.65419 C 88.84196 132.72223 89.71516 132.83077 90.25966 132.89807 C 90.80414 132.9654 91.67735 133.07276 92.22183 133.13935 C 92.76633 133.20594 93.6395 133.31217 94.18399 133.37805 C 94.72847 133.44393 95.60167 133.54907 96.14615 133.61429 C 96.69064 133.6795 97.56383 133.78354 98.10832 133.84812 C 98.6528 133.91268 99.52599 134.01569 100.07048 134.07962 C 100.61497 134.14354 101.48814 134.24556 102.03262 134.30887 C 102.57712 134.37216 103.45032 134.4732 103.99481 134.53592 C 104.5393 134.59864 105.4125 134.69873 105.95699 134.76085 C 106.50148 134.82297 107.37465 134.92214 107.91914 134.98369 C 108.46362 135.04524 109.33684 135.14353 109.88132 135.20453 C 110.42581 135.26554 111.29901 135.36295 111.8435 135.4234 C 112.38799 135.48386 113.26115 135.58042 113.80565 135.64037 C 114.35014 135.7003 115.22333 135.79602 115.76782 135.85546 C 116.3123 135.91487 117.18549 136.0098 117.72998 136.06874 C 118.27448 136.12767 119.14766 136.22179 119.69214 136.28025 C 120.23663 136.3387 121.1098 136.43206 121.6543 136.49002 C 122.19879 136.548 123.07199 136.64063 123.61647 136.69814 C 124.16096 136.75563 125.03416 136.84752 125.57866 136.90457 C 126.12314 136.96163 126.99632 137.05281 127.5408 137.10942 C 128.0853 137.16603 128.9585 137.25652 129.50299 137.3127 C 130.04747 137.36888 130.92067 137.45868 131.46517 137.51445 C 132.00966 137.5702 132.88283 137.65933 133.42733 137.71469 C 133.9718 137.77004 134.84499 137.8585 135.38948 137.91347 C 135.93398 137.96842 136.80716 138.05625 137.35164 138.11081 C 137.89614 138.16536 138.76932 138.25257 139.31381 138.30675 C 139.8583 138.36092 140.7315 138.4475 141.27599 138.5013 C 141.82048 138.5551 142.69365 138.6411 143.23815 138.69452 C 143.78263 138.74793 144.65584 138.83335 145.20032 138.88642 C 145.74481 138.93949 146.61798 139.0243 147.16248 139.07701 C 147.70696 139.12972 148.58016 139.21399 149.12465 139.26636 C 149.66915 139.31871 150.54235 139.40242 151.08684 139.45444 C 151.63132 139.50647 152.50449 139.58962 153.04898 139.64131 C 153.59348 139.693 154.46666 139.77565 155.01114 139.827 C 155.55564 139.87836 156.42882 139.96048 156.97332 140.0115 C 157.5178 140.06255 158.39099 140.14417 158.93547 140.19487 C 159.47997 140.24559 160.35317 140.32675 160.89766 140.37709 C 161.44214 140.42745 162.31533 140.50774 162.8598 140.55777 C 163.4043 140.6078 164.27747 140.68798 164.82196 140.73778 C 165.36644 140.78759 166.23961 140.86725 166.7841 140.91677 C 167.3286 140.96628 168.20178 141.04544 168.74628 141.09467 C 169.29076 141.14389 170.16393 141.22263 170.70842 141.27156 C 171.25292 141.3205 172.12609 141.39876 172.67057 141.44742 C 173.21506 141.49608 174.08823 141.57393 174.63272 141.62233 C 175.17722 141.67072 176.05039 141.7481 176.59487 141.7962 C 177.13936 141.84432 178.01253 141.92128 178.55702 141.96913 C 179.1015 142.01697 179.97469 142.09352 180.51917 142.1411 C 181.06366 142.18869 181.93683 142.26483 182.48133 142.31218 C 183.0258 142.35951 183.89899 142.43523 184.44348 142.48232 C 184.98798 142.52939 185.86115 142.60472 186.40564 142.65154 C 186.95012 142.69837 187.82329 142.7733 188.36779 142.81987 C 188.91228 142.86646 189.78545 142.94098 190.32993 142.98732 C 190.87442 143.03368 191.74759 143.10787 192.29209 143.15396 C 192.83658 143.20008 194.25423 143.3197 194.25423 143.3197 "/>
<path transform="matrix(1,0,0,-1,21.844,174.603)" stroke-width="1.19553" stroke-linecap="butt" stroke-miterlimit="10" stroke-linejoin="miter" fill="none" stroke="#800000" d="M 80.9475 110.58223 L 87.69298 113.07277 L 94.43852 115.56332 L 101.18402 118.05388 L 107.92953 120.54442 L 114.67505 123.03497 L 121.42058 125.52553 L 128.16609 128.01607 L 134.9116 130.50662 L 141.65714 132.99718 L 148.40265 135.48773 L 155.14817 137.97827 L 161.89369 140.46883 L 168.6392 142.95938 L 175.38472 145.4499 L 182.13022 147.94045 L 188.87574 150.43106 L 195.62125 152.92159 L 202.36675 155.41213 L 209.11225 157.90265 L 215.85776 160.39318 L 222.60327 162.8838 L 229.34879 165.37433 L 236.09429 167.86486 L 242.8398 170.3554 "/>
<path transform="matrix(1,0,0,-1,21.844,174.603)" stroke-width="1.19553" stroke-linecap="butt" stroke-miterlimit="10" stroke-linejoin="miter" fill="none" stroke="#000080" d="M 0 50.80804 C 0 50.80804 1.41766 48.16339 1.96216 47.51779 C 2.50665 46.8722 3.37982 46.48912 3.9243 46.15494 C 4.4688 45.82074 5.342 45.37657 5.88649 45.10916 C 6.43097 44.84174 7.30418 44.45763 7.84866 44.22755 C 8.39316 43.99747 9.26633 43.65602 9.81082 43.45082 C 10.3553 43.24562 11.22852 42.93562 11.773 42.74861 C 12.31749 42.5616 13.19066 42.27585 13.73515 42.10286 C 14.27963 41.92987 15.15283 41.66356 15.69733 41.50182 C 16.24182 41.34009 17.115 41.08957 17.65948 40.93716 C 18.20398 40.78474 19.07716 40.54776 19.62166 40.40321 C 20.16615 40.25868 21.03934 40.03316 21.58382 39.89537 C 22.12831 39.75757 23.00151 39.542 23.546 39.41011 C 24.09048 39.27823 24.96367 39.07141 25.50815 38.9447 C 26.05264 38.81801 26.92584 38.61897 27.47034 38.49689 C 28.01482 38.3748 28.88799 38.18271 29.43248 38.06477 C 29.97697 37.94684 30.85017 37.76103 31.39467 37.64685 C 31.93915 37.53267 32.81232 37.35255 33.35681 37.2418 C 33.9013 37.13104 34.7745 36.95615 35.31898 36.8485 C 35.86348 36.74084 36.73666 36.57072 37.28116 36.46597 C 37.82565 36.3612 38.69884 36.19551 39.24332 36.0934 C 39.78781 35.99129 40.661 35.82965 41.20549 35.73001 C 41.74997 35.63036 42.62318 35.47255 43.16766 35.3752 C 43.71216 35.27785 44.58533 35.12354 45.12982 35.02834 C 45.6743 34.93312 46.5475 34.78215 47.092 34.68895 C 47.63649 34.59575 48.50966 34.44789 49.05415 34.35657 C 49.59863 34.26526 50.47183 34.1203 51.01633 34.03076 C 51.56082 33.94122 52.43399 33.79904 52.97847 33.71117 C 53.52296 33.6233 54.39616 33.48372 54.94066 33.39743 C 55.48515 33.31114 56.35834 33.17404 56.90282 33.08926 C 57.44731 33.00447 58.3205 32.86969 58.86499 32.78635 C 59.40947 32.70299 60.28267 32.57045 60.82715 32.48845 C 61.37164 32.40645 62.24484 32.27603 62.78934 32.19531 C 63.33382 32.11461 64.20699 31.9862 64.75148 31.90672 C 65.29597 31.82726 66.16917 31.70079 66.71367 31.6225 C 67.25815 31.5442 68.13132 31.41956 68.67581 31.34239 C 69.2203 31.26523 70.0935 31.14235 70.63799 31.06627 C 71.18248 30.99019 72.05568 30.869 72.60017 30.79396 C 73.14467 30.7189 74.01784 30.59935 74.56232 30.52528 C 75.10681 30.45123 75.98 30.33327 76.52449 30.26015 C 77.06897 30.18704 77.94217 30.07057 78.48665 29.9984 C 79.03114 29.92621 79.90433 29.81116 80.44882 29.73987 C 80.9933 29.66856 81.86647 29.55493 82.41096 29.48448 C 82.95546 29.41405 83.82866 29.30174 84.37315 29.23213 C 84.91763 29.16252 85.79083 29.0515 86.33533 28.98268 C 86.87982 28.91386 87.75299 28.80411 88.29747 28.73607 C 88.84196 28.66801 89.71516 28.5595 90.25966 28.49217 C 90.80414 28.42487 91.67735 28.31749 92.22183 28.25092 C 92.76633 28.18433 93.6395 28.0781 94.18399 28.0122 C 94.72847 27.94632 95.60167 27.84119 96.14615 27.77597 C 96.69064 27.71075 97.56383 27.6067 98.10832 27.54214 C 98.6528 27.47758 99.52599 27.37456 100.07048 27.31064 C 100.61497 27.2467 101.48814 27.14468 102.03262 27.08139 C 102.57712 27.01808 103.45032 26.91704 103.99481 26.85434 C 104.5393 26.79163 105.4125 26.69151 105.95699 26.62941 C 106.50148 26.56729 107.37465 26.46811 107.91914 26.40656 C 108.46362 26.345 109.33684 26.24672 109.88132 26.18571 C 110.42581 26.12471 111.29901 26.02731 111.8435 25.96686 C 112.38799 25.9064 113.26115 25.80983 113.80565 25.7499 C 114.35014 25.68996 115.22333 25.59422 115.76782 25.5348 C 116.3123 25.47537 117.18549 25.38048 117.72998 25.32153 C 118.27448 25.26259 119.14766 25.16846 119.69214 25.11002 C 120.23663 25.05156 121.1098 24.9582 121.6543 24.90022 C 122.19879 24.84224 123.07199 24.74963 123.61647 24.69212 C 124.16096 24.63461 125.03416 24.54274 125.57866 24.48569 C 126.12314 24.42863 126.99632 24.33745 127.5408 24.28084 C 128.0853 24.22423 128.9585 24.13374 129.50299 24.07756 C 130.04747 24.02136 130.92067 23.93156 131.46517 23.87581 C 132.00966 23.82005 132.88283 23.73093 133.42733 23.67557 C 133.9718 23.62022 134.84499 23.53175 135.38948 23.4768 C 135.93398 23.42184 136.80716 23.33401 137.35164 23.27945 C 137.89614 23.22488 138.76932 23.13771 139.31381 23.08353 C 139.8583 23.02934 140.7315 22.94276 141.27599 22.88896 C 141.82048 22.83516 142.69365 22.74918 143.23815 22.69576 C 143.78263 22.64233 144.65584 22.55692 145.20032 22.50385 C 145.74481 22.45078 146.61798 22.36595 147.16248 22.31325 C 147.70696 22.26054 148.58016 22.17627 149.12465 22.12392 C 149.66915 22.07156 150.54235 21.98782 151.08684 21.9358 C 151.63132 21.88379 152.50449 21.80063 153.04898 21.74895 C 153.59348 21.69727 154.46666 21.61461 155.01114 21.56325 C 155.55564 21.5119 156.42882 21.42978 156.97332 21.37875 C 157.5178 21.32771 158.39099 21.2461 158.93547 21.19537 C 159.47997 21.14467 160.35317 21.0635 160.89766 21.01315 C 161.44214 20.9628 162.31533 20.8825 162.8598 20.83247 C 163.4043 20.78246 164.27747 20.70227 164.82196 20.65247 C 165.36644 20.60268 166.23961 20.523 166.7841 20.47348 C 167.3286 20.42397 168.20178 20.34482 168.74628 20.2956 C 169.29076 20.24637 170.16393 20.16762 170.70842 20.11868 C 171.25292 20.06975 172.12609 19.99149 172.67057 19.94283 C 173.21506 19.89417 174.08823 19.81631 174.63272 19.76793 C 175.17722 19.71954 176.05039 19.64217 176.59487 19.59406 C 177.13936 19.54593 178.01253 19.46896 178.55702 19.42113 C 179.1015 19.37329 179.97469 19.29674 180.51917 19.24915 C 181.06366 19.20157 181.93683 19.12541 182.48133 19.07808 C 183.0258 19.03075 183.89899 18.95502 184.44348 18.90794 C 184.98798 18.86086 185.86115 18.78554 186.40564 18.73871 C 186.95012 18.6919 187.82329 18.61696 188.36779 18.57037 C 188.91228 18.5238 189.78545 18.44928 190.32993 18.40292 C 190.87442 18.35658 191.74759 18.2824 192.29209 18.23628 C 192.83658 18.19019 194.25423 18.07056 194.25423 18.07056 "/>
<path transform="matrix(1,0,0,-1,21.844,174.603)" stroke-width="1.19553" stroke-linecap="butt" stroke-miterlimit="10" stroke-linejoin="miter" fill="none" stroke="#800000" d="M 80.9475 50.80804 L 85.6694 49.06464 L 90.39133 47.32123 L 95.11327 45.5778 L 99.83519 43.8344 L 104.5571 42.09099 L 109.27904 40.34758 L 114.00095 38.60419 L 118.7229 36.86076 L 123.44481 35.11736 L 128.16674 33.37395 L 132.88866 31.63054 L 137.61058 29.88713 L 142.33254 28.14372 L 147.05445 26.40031 L 151.77637 24.6569 L 156.49828 22.9135 L 161.22022 21.17009 L 165.94216 19.42668 L 170.66408 17.68324 L 175.38599 15.9399 L 180.10791 14.19644 L 184.82984 12.453 L 189.55176 10.70966 L 194.27368 8.9662 "/>
<path transform="matrix(1,0,0,-1,21.844,174.603)" d="M 140.84864 80.69513 C 140.84864 107.10536 135.77492 128.51448 129.51599 128.51448 C 123.25705 128.51448 118.18333 107.10536 118.18333 80.69513 C 118.18333 54.2849 123.25705 32.8758 129.51599 32.8758 C 135.77492 32.8758 140.84864 54.2849 140.84864 80.69513 Z M 129.51599 80.69513 " fill="#cccce6"/>
<path transform="matrix(1,0,0,-1,21.844,174.603)" stroke-width="1.19553" stroke-linecap="butt" stroke-miterlimit="10" stroke-linejoin="miter" fill="none" stroke="#000080" d="M 140.84864 80.69513 C 140.84864 107.10536 135.77492 128.51448 129.51599 128.51448 C 123.25705 128.51448 118.18333 107.10536 118.18333 80.69513 C 118.18333 54.2849 123.25705 32.8758 129.51599 32.8758 C 135.77492 32.8758 140.84864 54.2849 140.84864 80.69513 Z M 129.51599 80.69513 "/>
<path transform="matrix(1,0,0,-1,21.844,174.603)" d="M 137.61074 80.69513 C 137.61074 105.45471 133.98665 125.52577 129.51599 125.52577 C 125.04532 125.52577 121.42123 105.45471 121.42123 80.69513 C 121.42123 55.93555 125.04532 35.8645 129.51599 35.8645 C 133.98665 35.8645 137.61074 55.93555 137.61074 80.69513 Z M 129.51599 80.69513 " fill="#ffffff"/>
<path transform="matrix(1,0,0,-1,21.844,174.603)" stroke-width="1.19553" stroke-linecap="butt" stroke-miterlimit="10" stroke-linejoin="miter" fill="none" stroke="#000080" d="M 137.61074 80.69513 C 137.61074 105.45471 133.98665 125.52577 129.51599 125.52577 C 125.04532 125.52577 121.42123 105.45471 121.42123 80.69513 C 121.42123 55.93555 125.04532 35.8645 129.51599 35.8645 C 133.98665 35.8645 137.61074 55.93555 137.61074 80.69513 Z M 129.51599 80.69513 "/>
<path transform="matrix(1,0,0,-1,21.844,174.603)" stroke-width="1" stroke-linecap="butt" stroke-miterlimit="10" stroke-linejoin="miter" fill="none" stroke="#000000" d="M 140.44559 130.00884 C 141.1928 129.63524 141.69094 128.76349 141.69094 127.51814 L 141.69094 129.51082 C 141.69094 128.26548 142.18906 127.3937 142.93628 127.02013 C 142.18906 126.64653 141.69094 125.77478 141.69094 124.52943 L 141.69094 126.52211 C 141.69094 125.27676 141.1928 124.405 140.44559 124.03142 "/>
<symbol id="font_1_2">
<path d="M .47600005 .694 C .47600005 .695 .47600005 .705 .46300004 .705 C .44800005 .705 .35300002 .69600006 .33600004 .694 C .32800005 .693 .32200004 .688 .32200004 .675 C .32200004 .663 .33100004 .663 .34600003 .663 C .39400003 .663 .39600004 .656 .39600004 .646 L .39300005 .626 L .33300004 .38900004 C .31500004 .42600004 .286 .45300005 .24100001 .45300005 C .124 .45300005 0 .30600003 0 .16000001 C 0 .06600001 .055000005 0 .133 0 C .153 0 .20300001 .0040000008 .263 .075 C .27100004 .033000005 .30600003 0 .35400004 0 C .38900004 0 .41200004 .023000002 .42800004 .055000005 C .44500003 .091000009 .45800004 .15200001 .45800004 .15400002 C .45800004 .16400002 .44900004 .16400002 .44600005 .16400002 C .43600003 .16400002 .43500004 .16000001 .43200005 .14600002 C .41500003 .081 .397 .022000002 .35600005 .022000002 C .32900004 .022000002 .32600004 .048 .32600004 .068 C .32600004 .092 .32800005 .09900001 .33200003 .116000007 L .47600005 .694 M .26800005 .13000001 C .263 .112 .263 .11000001 .24800001 .093 C .20400001 .038000004 .163 .022000002 .135 .022000002 C .08499999 .022000002 .07100001 .077 .07100001 .116000007 C .07100001 .16600001 .103 .28900004 .126 .335 C .157 .39400003 .202 .43100003 .242 .43100003 C .307 .43100003 .32100005 .34900005 .32100005 .34300003 C .32100005 .337 .31900005 .33100004 .31800003 .32600004 L .26800005 .13000001 Z "/>
</symbol>
<symbol id="font_1_4">
<path d="M .45700003 .586 C .461 .6 .461 .602 .461 .609 C .461 .62700006 .447 .63600006 .432 .63600006 C .42200003 .63600006 .40600003 .63 .397 .615 C .395 .61 .387 .579 .38300003 .561 C .37600003 .535 .36900003 .508 .363 .48100005 L .318 .301 C .314 .286 .271 .21600002 .20500002 .21600002 C .15400002 .21600002 .143 .26000003 .143 .29700003 C .143 .34300003 .16000001 .40500004 .194 .49300004 C .21000001 .53400006 .21400002 .545 .21400002 .56500008 C .21400002 .61 .18200001 .6470001 .13200002 .6470001 C .037 .6470001 0 .50200006 0 .49300004 C 0 .48300005 .01 .48300005 .012 .48300005 C .022000002 .48300005 .023 .485 .028000003 .50100007 C .055000009 .595 .095000009 .625 .12900001 .625 C .13700001 .625 .15400002 .625 .15400002 .59300008 C .15400002 .568 .14400001 .54200008 .13700001 .523 C .097 .41700004 .079 .36 .079 .31300003 C .079 .224 .142 .194 .201 .194 C .24000003 .194 .274 .21100001 .30200003 .23900002 C .289 .187 .277 .13800001 .237 .08500001 C .21100001 .051 .17300001 .022 .127 .022 C .113000009 .022 .068 .025000006 .051000008 .06400001 C .067 .06400001 .080000009 .06400001 .094000007 .076000008 C .104 .08500001 .11400001 .098000008 .11400001 .117000009 C .11400001 .148 .087000008 .15200001 .07700001 .15200001 C .054000006 .15200001 .021 .136 .021 .087000008 C .021 .037 .065000008 0 .127 0 C .23 0 .333 .091000009 .361 .20400001 L .45700003 .586 Z "/>
</symbol>
<use xlink:href="#font_1_2" transform="matrix(9.9626,0,0,-9.9626,165.97049,50.184595)"/>
<use xlink:href="#font_1_4" transform="matrix(9.9626,0,0,-9.9626,171.05142,52.117338)"/>
<path transform="matrix(1,0,0,-1,21.844,174.603)" stroke-width="1.19553" stroke-linecap="butt" stroke-miterlimit="10" stroke-linejoin="miter" fill="none" stroke="#000080" d="M 58.2822 128.51448 C 52.02325 128.51448 46.94954 107.10536 46.94954 80.69513 C 46.94954 54.2849 52.02325 32.8758 58.2822 32.8758 "/>
</g>
<path transform="matrix(1,0,0,-1,21.844,174.603)" stroke-width="1" stroke-linecap="butt" stroke-miterlimit="10" stroke-linejoin="miter" fill="none" stroke="#808080" d="M 32.379 108.4563 L 32.379 112.70813 M 64.758 108.4563 L 64.758 112.70813 M 97.137 108.4563 L 97.137 112.70813 M 129.51599 108.4563 L 129.51599 112.70813 M 161.89499 108.4563 L 161.89499 112.70813 M 194.27399 108.4563 L 194.27399 112.70813 "/>
<path transform="matrix(1,0,0,-1,21.844,174.603)" stroke-width="1" stroke-linecap="butt" stroke-miterlimit="10" stroke-linejoin="miter" fill="none" stroke="#808080" d="M -2.12611 20.92096 L 2.12611 20.92096 M -2.12611 50.80804 L 2.12611 50.80804 M -2.12611 80.69513 L 2.12611 80.69513 M -2.12611 140.46932 L 2.12611 140.46932 "/>
<path transform="matrix(1,0,0,-1,21.844,174.603)" stroke-width="1" stroke-linecap="butt" stroke-miterlimit="10" stroke-linejoin="miter" fill="none" stroke="#000000" d="M 0 110.58223 L 192.28145 110.58223 "/>
<path transform="matrix(1,0,0,-1,214.12545,64.02077)" d="M 1.99252 0 L -1.19551 1.59401 L 0 0 L -1.19551 -1.59401 "/>
<path transform="matrix(1,0,0,-1,21.844,174.603)" stroke-width="1" stroke-linecap="butt" stroke-miterlimit="10" stroke-linejoin="miter" fill="none" stroke="#000000" d="M 0 0 L 0 159.39775 "/>
<path transform="matrix(0,-1,-1,-0,21.844,15.205246)" d="M 1.99252 0 L -1.19551 1.59401 L 0 0 L -1.19551 -1.59401 "/>
<symbol id="font_2_1">
<path d="M .421 .34200005 C .421 .42200003 .416 .50200006 .381 .57600006 C .335 .67200008 .25300003 .688 .211 .688 C .15100001 .688 .07800001 .66200008 .037000006 .56900009 C .0050000029 .5 0 .42200003 0 .34200005 C 0 .26700003 .0040000008 .177 .045000007 .101 C .088 .020000002 .161 0 .21000001 0 C .264 0 .34 .021000002 .384 .116000007 C .416 .185 .421 .263 .421 .34200005 M .21000001 .022000002 C .171 .022000002 .112 .047000003 .094 .143 C .083000008 .20300001 .083000008 .29500003 .083000008 .35400004 C .083000008 .41800005 .083000008 .48400004 .091000009 .53800007 C .11 .65700009 .185 .66600009 .21000001 .66600009 C .243 .66600009 .30900003 .64800009 .328 .549 C .338 .49300004 .338 .41700004 .338 .35400004 C .338 .279 .338 .21100001 .32700003 .147 C .312 .052 .255 .022000002 .21000001 .022000002 Z "/>
</symbol>
<use xlink:href="#font_2_1" transform="matrix(9.9626,0,0,-9.9626,48.246545,76.38118)"/>
<symbol id="font_1_1">
<path d="M .106 .053000004 C .106 .082 .08200001 .106000009 .05300001 .106000009 C .024000004 .106000009 0 .082 0 .053000004 C 0 .024 .024000004 0 .05300001 0 C .08200001 0 .106 .024 .106 .053000004 Z "/>
</symbol>
<use xlink:href="#font_1_1" transform="matrix(9.9626,0,0,-9.9626,53.695787,76.162)"/>
<symbol id="font_2_3">
<path d="M .07700001 .07700001 L .18300002 .18 C .33900003 .31800003 .39900003 .372 .39900003 .47200004 C .39900003 .586 .30900003 .666 .18700002 .666 C .074 .666 0 .574 0 .485 C 0 .42900003 .05 .42900003 .053000008 .42900003 C .07000001 .42900003 .105000007 .441 .105000007 .48200003 C .105000007 .508 .08700001 .53400006 .052000006 .53400006 C .044000005 .53400006 .042000008 .53400006 .039 .53300008 C .062000004 .59800007 .11600001 .63500007 .17400001 .63500007 C .26500003 .63500007 .308 .554 .308 .47200004 C .308 .39200003 .25800003 .31300003 .20300003 .25100003 L .011000004 .037 C 0 .026 0 .024 0 0 L .37100003 0 L .39900003 .17400001 L .374 .17400001 C .36900003 .14400001 .36200003 .1 .352 .085 C .345 .07700001 .279 .07700001 .257 .07700001 L .07700001 .07700001 Z "/>
</symbol>
<use xlink:href="#font_2_3" transform="matrix(9.9626,0,0,-9.9626,56.10413,76.162)"/>
<use xlink:href="#font_2_1" transform="matrix(9.9626,0,0,-9.9626,80.62454,76.38118)"/>
<use xlink:href="#font_1_1" transform="matrix(9.9626,0,0,-9.9626,86.073787,76.162)"/>
<symbol id="font_2_5">
<path d="M .266 .165 L .266 .078 C .266 .042000005 .26400004 .031000002 .19000001 .031000002 L .16900002 .031000002 L .16900002 0 C .21000001 .003 .26200003 .003 .30400003 .003 C .34600003 .003 .39900003 .003 .44000004 0 L .44000004 .031000002 L .41900004 .031000002 C .34500004 .031000002 .34300003 .042000005 .34300003 .078 L .34300003 .165 L .44300003 .165 L .44300003 .19600001 L .34300003 .19600001 L .34300003 .651 C .34300003 .671 .34300003 .67700007 .32700003 .67700007 C .31800003 .67700007 .31500004 .67700007 .307 .665 L 0 .19600001 L 0 .165 L .266 .165 M .272 .19600001 L .028 .19600001 L .272 .569 L .272 .19600001 Z "/>
</symbol>
<use xlink:href="#font_2_5" transform="matrix(9.9626,0,0,-9.9626,88.263957,76.162)"/>
<use xlink:href="#font_2_1" transform="matrix(9.9626,0,0,-9.9626,113.00355,76.38118)"/>
<use xlink:href="#font_1_1" transform="matrix(9.9626,0,0,-9.9626,118.45279,76.162)"/>
<symbol id="font_2_6">
<path d="M .089999999 .35000003 L .089999999 .37400005 C .089999999 .62700006 .21400002 .66300007 .26500003 .66300007 C .28900004 .66300007 .33100004 .65700009 .35300002 .623 C .33800004 .623 .298 .623 .298 .57800009 C .298 .54700008 .32200004 .53200009 .344 .53200009 C .36 .53200009 .39000003 .54100009 .39000003 .58000007 C .39000003 .64000007 .34600003 .688 .263 .688 C .13499999 .688 0 .559 0 .33800004 C 0 .071 .116000007 0 .20900002 0 C .32000003 0 .41500003 .094000007 .41500003 .22600001 C .41500003 .35300005 .32600004 .44900004 .215 .44900004 C .14700002 .44900004 .11000001 .39800004 .089999999 .35000003 M .20900002 .028 C .146 .028 .116000007 .088 .11000001 .103 C .092 .15 .092 .23 .092 .24800001 C .092 .32600004 .124000009 .42600004 .21400002 .42600004 C .23000002 .42600004 .27600003 .42600004 .307 .36400003 C .32500003 .32700003 .32500003 .27600003 .32500003 .22700002 C .32500003 .179 .32500003 .12900001 .30800004 .093 C .27800004 .033000005 .23200003 .028 .20900002 .028 Z "/>
</symbol>
<use xlink:href="#font_2_6" transform="matrix(9.9626,0,0,-9.9626,120.78143,76.38118)"/>
<use xlink:href="#font_2_1" transform="matrix(9.9626,0,0,-9.9626,145.38153,76.38118)"/>
<use xlink:href="#font_1_1" transform="matrix(9.9626,0,0,-9.9626,150.83177,76.162)"/>
<symbol id="font_2_7">
<path d="M .121 .47900004 C .075 .509 .071 .54300007 .071 .56000009 C .071 .62100008 .136 .66300007 .20700002 .66300007 C .28000004 .66300007 .344 .61100009 .344 .53900006 C .344 .48200003 .305 .43400005 .245 .39900003 L .121 .47900004 M .26700003 .38400004 C .33900003 .42100004 .388 .47300006 .388 .53900006 C .388 .63100007 .29900003 .688 .208 .688 C .108 .688 .027000003 .614 .027000003 .521 C .027000003 .503 .029 .45800004 .071 .41100005 C .082 .39900003 .11900001 .37400005 .144 .35700003 C .086 .32800005 0 .272 0 .17300001 C 0 .067 .102000009 0 .20700002 0 C .32000003 0 .41500003 .083000008 .41500003 .19000001 C .41500003 .22600001 .404 .27100004 .36600004 .31300003 C .34700004 .33400003 .33100004 .34400005 .26700003 .38400004 M .167 .34200005 L .29000003 .26400004 C .31800003 .245 .365 .215 .365 .154 C .365 .080000009 .29000003 .028 .208 .028 C .122 .028 .050000006 .09 .050000006 .17300001 C .050000006 .231 .082 .29500003 .167 .34200005 Z "/>
</symbol>
<use xlink:href="#font_2_7" transform="matrix(9.9626,0,0,-9.9626,153.16042,76.38118)"/>
<symbol id="font_2_2">
<path d="M .205 .64000007 C .205 .66400006 .205 .666 .18200003 .666 C .120000008 .60200008 .032000007 .60200008 0 .60200008 L 0 .57100006 C .020000004 .57100006 .07900001 .57100006 .13100001 .597 L .13100001 .079 C .13100001 .043 .128 .031000002 .038000004 .031000002 L .0060000049 .031000002 L .0060000049 0 C .04100001 .003 .128 .003 .168 .003 C .20800002 .003 .29500003 .003 .33000005 0 L .33000005 .031000002 L .29800005 .031000002 C .20800002 .031000002 .205 .042000005 .205 .079 L .205 .64000007 Z "/>
</symbol>
<use xlink:href="#font_2_2" transform="matrix(9.9626,0,0,-9.9626,182.13266,76.162)"/>
<use xlink:href="#font_2_2" transform="matrix(9.9626,0,0,-9.9626,210.63668,76.162)"/>
<use xlink:href="#font_1_1" transform="matrix(9.9626,0,0,-9.9626,215.58878,76.162)"/>
<use xlink:href="#font_2_3" transform="matrix(9.9626,0,0,-9.9626,217.99712,76.162)"/>
<symbol id="font_3_1">
<path d="M .57600006 0 C .59300008 0 .611 0 .611 .019999996 C .611 .040000008 .59300008 .040000008 .57600006 .040000008 L .035000005 .040000008 C .018 .040000008 0 .040000008 0 .019999996 C 0 0 .018 0 .035000005 0 L .57600006 0 Z "/>
</symbol>
<use xlink:href="#font_3_1" transform="matrix(9.9626,0,0,-9.9626,4.220895,154.1856)"/>
<symbol id="font_2_4">
<path d="M .24800003 .37400005 C .33 .40100003 .388 .47100006 .388 .55 C .388 .632 .3 .688 .204 .688 C .10300001 .688 .027000003 .628 .027000003 .55200007 C .027000003 .519 .049000004 .5 .078 .5 C .109000008 .5 .12900001 .522 .12900001 .55100008 C .12900001 .6010001 .082 .6010001 .067 .6010001 C .098 .65000006 .164 .66300007 .20000002 .66300007 C .24100003 .66300007 .29600004 .64100006 .29600004 .55100008 C .29600004 .53900006 .29400004 .48100005 .268 .43700005 C .238 .38900004 .204 .38600005 .17900002 .38500003 C .171 .38400004 .14700002 .38200004 .14000002 .38200004 C .132 .38100005 .125 .38000003 .125 .37000004 C .125 .35900004 .132 .35900004 .14900002 .35900004 L .19300002 .35900004 C .275 .35900004 .312 .29100005 .312 .193 C .312 .057000005 .24300003 .028 .199 .028 C .15600002 .028 .081 .045 .046000005 .104 C .081 .09900001 .11200001 .12100001 .11200001 .15900001 C .11200001 .19500001 .085 .215 .056 .215 C .031999999 .215 0 .201 0 .157 C 0 .06600001 .093 0 .20200002 0 C .32400004 0 .41500003 .091000009 .41500003 .193 C .41500003 .27500005 .35200004 .35300005 .24800003 .37400005 Z "/>
</symbol>
<use xlink:href="#font_2_4" transform="matrix(9.9626,0,0,-9.9626,11.561428,156.69617)"/>
<use xlink:href="#font_3_1" transform="matrix(9.9626,0,0,-9.9626,4.220895,124.29961)"/>
<use xlink:href="#font_2_3" transform="matrix(9.9626,0,0,-9.9626,11.641129,126.591)"/>
<use xlink:href="#font_3_1" transform="matrix(9.9626,0,0,-9.9626,4.220895,94.412609)"/>
<use xlink:href="#font_2_2" transform="matrix(9.9626,0,0,-9.9626,12.02967,96.704)"/>
<use xlink:href="#font_2_2" transform="matrix(9.9626,0,0,-9.9626,12.029671,37.345994)"/>
<symbol id="font_1_3">
<path d="M .305 .31300003 C .311 .33900003 .334 .43100003 .404 .43100003 C .409 .43100003 .433 .43100003 .454 .418 C .426 .41300003 .40600003 .388 .40600003 .36400003 C .40600003 .34800003 .417 .32900004 .444 .32900004 C .46600003 .32900004 .498 .34700004 .498 .38700003 C .498 .43900005 .439 .45300005 .405 .45300005 C .347 .45300005 .312 .40000005 .3 .37700004 C .275 .44300003 .221 .45300005 .19200002 .45300005 C .08800001 .45300005 .031000002 .32400004 .031000002 .29900003 C .031000002 .28900004 .041 .28900004 .043000007 .28900004 C .051000008 .28900004 .054000006 .291 .056 .3 C .09 .40600003 .156 .43100003 .19000001 .43100003 C .209 .43100003 .244 .42200003 .244 .36400003 C .244 .33300004 .22700002 .26600004 .19000001 .126 C .17400001 .064 .13900002 .022000002 .095000009 .022000002 C .08900001 .022000002 .06600001 .022000002 .045 .035 C .07000001 .040000004 .09200001 .061 .09200001 .089 C .09200001 .116000007 .07000001 .124000009 .055000009 .124000009 C .025 .124000009 0 .098000008 0 .06600001 C 0 .020000002 .050000006 0 .094000007 0 C .16000001 0 .19600001 .07000001 .19900002 .076000008 C .21100001 .039 .24700003 0 .307 0 C .41 0 .467 .12900001 .467 .15400002 C .467 .16400002 .458 .16400002 .455 .16400002 C .446 .16400002 .444 .16000001 .442 .15300001 C .409 .046 .341 .022000002 .30900003 .022000002 C .27 .022000002 .254 .054 .254 .08800001 C .254 .11000001 .26 .13200002 .271 .17600002 L .305 .31300003 Z "/>
</symbol>
<use xlink:href="#font_1_3" transform="matrix(9.9626,0,0,-9.9626,220.0289,66.25959)"/>
<use xlink:href="#font_1_4" transform="matrix(9.9626,0,0,-9.9626,19.511916,9.726324)"/>
</svg>
