<?xml version="1.0" encoding="UTF-8" standalone="no"?>
<!DOCTYPE svg PUBLIC "-//W3C//DTD SVG 1.1//EN" "http://www.w3.org/Graphics/SVG/1.1/DTD/svg11.dtd">
<svg xmlns="http://www.w3.org/2000/svg" xmlns:xlink="http://www.w3.org/1999/xlink" version="1.1" width="135.478pt" height="54.444pt" viewBox="0 0 135.478 54.444">
<symbol id="font_0_3">
<path d="M .47600005 .694 C .47600005 .695 .47600005 .705 .46300004 .705 C .44800005 .705 .35300002 .69600006 .33600004 .694 C .32800005 .693 .32200004 .688 .32200004 .675 C .32200004 .663 .33100004 .663 .34600003 .663 C .39400003 .663 .39600004 .656 .39600004 .646 L .39300005 .626 L .33300004 .38900004 C .31500004 .42600004 .286 .45300005 .24100001 .45300005 C .124 .45300005 0 .30600003 0 .16000001 C 0 .06600001 .055000005 0 .133 0 C .153 0 .20300001 .0040000008 .263 .075 C .27100004 .033000005 .30600003 0 .35400004 0 C .38900004 0 .41200004 .023000002 .42800004 .055000005 C .44500003 .091000009 .45800004 .15200001 .45800004 .15400002 C .45800004 .16400002 .44900004 .16400002 .44600005 .16400002 C .43600003 .16400002 .43500004 .16000001 .43200005 .14600002 C .41500003 .081 .397 .022000002 .35600005 .022000002 C .32900004 .022000002 .32600004 .048 .32600004 .068 C .32600004 .092 .32800005 .09900001 .33200003 .116000007 L .47600005 .694 M .26800005 .13000001 C .263 .112 .263 .11000001 .24800001 .093 C .20400001 .038000004 .163 .022000002 .135 .022000002 C .08499999 .022000002 .07100001 .077 .07100001 .116000007 C .07100001 .16600001 .103 .28900004 .126 .335 C .157 .39400003 .202 .43100003 .242 .43100003 C .307 .43100003 .32100005 .34900005 .32100005 .34300003 C .32100005 .337 .31900005 .33100004 .31800003 .32600004 L .26800005 .13000001 Z "/>
</symbol>
<symbol id="font_0_2">
<path d="M .572 .591 C .62100008 .669 .66300007 .67200008 .70000007 .674 C .712 .6750001 .71300008 .69200006 .71300008 .693 C .71300008 .70100006 .70800009 .70500007 .70000007 .70500007 C .674 .70500007 .64500007 .702 .61800006 .702 C .58500006 .702 .55100008 .70500007 .51900008 .70500007 C .513 .70500007 .50000008 .70500007 .50000008 .68600007 C .50000008 .6750001 .509 .674 .51600006 .674 C .54300007 .67200008 .56200006 .66200008 .56200006 .64100006 C .56200006 .62600007 .54700008 .60400006 .54700008 .60300007 L .24000001 .115 L .17200002 .64400008 C .17200002 .6610001 .19500003 .674 .24100003 .674 C .25500003 .674 .26600004 .674 .26600004 .69400009 C .26600004 .70300009 .25800003 .70500007 .25200004 .70500007 C .21200001 .70500007 .169 .702 .12800002 .702 C .11000001 .702 .091 .70300009 .07300001 .70300009 C .055000009 .70300009 .036000007 .70500007 .019000002 .70500007 C .012000002 .70500007 0 .70500007 0 .68600007 C 0 .674 .009000003 .674 .024999999 .674 C .08100001 .674 .08200001 .665 .085 .64000007 L .164 .023000002 C .167 .0030000006 .171 0 .18400002 0 C .20000002 0 .20400003 .005000001 .21200001 .018000002 L .572 .591 Z "/>
</symbol>
<use xlink:href="#font_0_3" transform="matrix(9.9626,0,0,-9.9626,3.7925013,30.099589)"/>
<use xlink:href="#font_0_2" transform="matrix(9.9626,0,0,-9.9626,9.142417,30.209177)"/>
<symbol id="font_1_4">
<path d="M .63100007 .19400002 C .646 .19400002 .665 .19400002 .665 .214 C .665 .23400001 .646 .23400001 .632 .23400001 L .033 .23400001 C .019000002 .23400001 0 .23400001 0 .214 C 0 .19400002 .019000002 .19400002 .034 .19400002 L .63100007 .19400002 M .632 0 C .646 0 .665 0 .665 .02000001 C .665 .040000008 .646 .040000008 .63100007 .040000008 L .034 .040000008 C .019000002 .040000008 0 .040000008 0 .02000001 C 0 0 .019000002 0 .033 0 L .632 0 Z "/>
</symbol>
<symbol id="font_1_3">
<path d="M .07700001 .07700001 L .18300002 .18 C .33900003 .31800003 .39900003 .372 .39900003 .47200004 C .39900003 .586 .30900003 .666 .18700002 .666 C .074 .666 0 .574 0 .485 C 0 .42900003 .05 .42900003 .053000008 .42900003 C .07000001 .42900003 .105000007 .441 .105000007 .48200003 C .105000007 .508 .08700001 .53400006 .052000006 .53400006 C .044000005 .53400006 .042000008 .53400006 .039 .53300008 C .062000004 .59800007 .11600001 .63500007 .17400001 .63500007 C .26500003 .63500007 .308 .554 .308 .47200004 C .308 .39200003 .25800003 .31300003 .20300003 .25100003 L .011000004 .037 C 0 .026 0 .024 0 0 L .37100003 0 L .39900003 .17400001 L .374 .17400001 C .36900003 .14400001 .36200003 .1 .352 .085 C .345 .07700001 .279 .07700001 .257 .07700001 L .07700001 .07700001 Z "/>
</symbol>
<use xlink:href="#font_1_4" transform="matrix(9.9626,0,0,-9.9626,19.929903,28.664975)"/>
<use xlink:href="#font_1_3" transform="matrix(9.9626,0,0,-9.9626,31.22749,29.99)"/>
<symbol id="font_0_1">
<path d="M .23800002 .38400004 L .351 .38400004 C .31800003 .23600002 .30900003 .19300002 .30900003 .126 C .30900003 .111 .30900003 .08400001 .317 .05 C .327 .0060000007 .338 0 .35300002 0 C .373 0 .39400003 .018000002 .39400003 .038000004 C .39400003 .044 .39400003 .046 .388 .060000004 C .359 .13200002 .359 .19700001 .359 .22500003 C .359 .27800004 .366 .33200003 .377 .38400004 L .491 .38400004 C .504 .38400004 .54 .38400004 .54 .418 C .54 .44200004 .519 .44200004 .5 .44200004 L .165 .44200004 C .143 .44200004 .105 .44200004 .061000006 .395 C .026000003 .35600005 0 .31000004 0 .305 C 0 .30400003 0 .29500003 .012 .29500003 C .020000002 .29500003 .022000002 .29900003 .028000003 .307 C .077 .38400004 .135 .38400004 .15500002 .38400004 L .21200001 .38400004 C .18000002 .263 .12600002 .14200002 .08400001 .051000004 C .076000008 .036000004 .076000008 .034 .076000008 .027000003 C .076000008 .008000001 .092 0 .105 0 C .135 0 .143 .028 .15500002 .065000008 C .16900002 .111 .16900002 .113000009 .18200001 .16300002 L .23800002 .38400004 Z "/>
</symbol>
<symbol id="font_0_4">
<path d="M .45700003 .586 C .461 .6 .461 .602 .461 .609 C .461 .62700006 .447 .63600006 .432 .63600006 C .42200003 .63600006 .40600003 .63 .397 .615 C .395 .61 .387 .579 .38300003 .561 C .37600003 .535 .36900003 .508 .363 .48100005 L .318 .301 C .314 .286 .271 .21600002 .20500002 .21600002 C .15400002 .21600002 .143 .26000003 .143 .29700003 C .143 .34300003 .16000001 .40500004 .194 .49300004 C .21000001 .53400006 .21400002 .545 .21400002 .56500008 C .21400002 .61 .18200001 .6470001 .13200002 .6470001 C .037 .6470001 0 .50200006 0 .49300004 C 0 .48300005 .01 .48300005 .012 .48300005 C .022000002 .48300005 .023 .485 .028000003 .50100007 C .055000009 .595 .095000009 .625 .12900001 .625 C .13700001 .625 .15400002 .625 .15400002 .59300008 C .15400002 .568 .14400001 .54200008 .13700001 .523 C .097 .41700004 .079 .36 .079 .31300003 C .079 .224 .142 .194 .201 .194 C .24000003 .194 .274 .21100001 .30200003 .23900002 C .289 .187 .277 .13800001 .237 .08500001 C .21100001 .051 .17300001 .022 .127 .022 C .113000009 .022 .068 .025000006 .051000008 .06400001 C .067 .06400001 .080000009 .06400001 .094000007 .076000008 C .104 .08500001 .11400001 .098000008 .11400001 .117000009 C .11400001 .148 .087000008 .15200001 .07700001 .15200001 C .054000006 .15200001 .021 .136 .021 .087000008 C .021 .037 .065000008 0 .127 0 C .23 0 .333 .091000009 .361 .20400001 L .45700003 .586 Z "/>
</symbol>
<use xlink:href="#font_0_1" transform="matrix(9.9626,0,0,-9.9626,35.975988,30.099589)"/>
<use xlink:href="#font_0_4" transform="matrix(9.9626,0,0,-9.9626,42.033246,32.032335)"/>
<symbol id="font_2_3">
<path d="M .484 .09200001 C .484 .115 .484 .120000008 .47 .120000008 C .409 .12100001 .31 .12900001 .22000002 .17300001 C .112 .22700002 .071 .29000003 .046000005 .32900004 C .043 .33400003 .037 .33400003 .024 .33400003 C .0009999983 .33400003 0 .333 0 .30800004 L 0 .29200004 C .136 .047000003 .361 0 .463 0 C .484 0 .484 .001 .484 .028 L .484 .09200001 Z "/>
</symbol>
<symbol id="font_2_2">
<path d="M .48400004 .04200001 C .34800003 .28700004 .123 .33400003 .021000002 .33400003 C 0 .33400003 0 .333 0 .30600003 L 0 .24200002 C 0 .21900001 0 .21400002 .014 .21400002 C .075 .21300002 .17400001 .20500002 .264 .16100002 C .372 .10700001 .41300003 .044000016 .43800003 .00500001 C .441 0 .447 0 .46 0 C .483 0 .48400004 .001000002 .48400004 .026000008 L .48400004 .04200001 Z "/>
</symbol>
<symbol id="font_2_1">
<path d="M .484 .30600003 C .484 .333 .484 .33400003 .463 .33400003 C .361 .33400003 .136 .286 0 .04200001 L 0 .026000008 C 0 .001000002 .0009999983 0 .024 0 C .043 0 .044 .001000002 .049000004 .008000001 C .13100001 .13900002 .269 .21000003 .472 .21400002 C .484 .21400002 .484 .22100002 .484 .24200002 L .484 .30600003 Z "/>
</symbol>
<symbol id="font_2_4">
<path d="M .48400004 .30800004 C .48400004 .333 .483 .33400003 .46 .33400003 C .441 .33400003 .44 .333 .435 .326 C .35300002 .19500001 .21500002 .124000009 .012000001 .120000008 C 0 .120000008 0 .113000009 0 .09200001 L 0 .028 C 0 .001 0 0 .021000002 0 C .123 0 .34800003 .048 .48400004 .29200004 L .48400004 .30800004 Z "/>
</symbol>
<use xlink:href="#font_2_3" transform="matrix(9.9626,0,0,-9.9626,29.649893,36.111)"/>
<use xlink:href="#font_2_2" transform="matrix(9.9626,0,0,-9.9626,34.27254,38.242998)"/>
<use xlink:href="#font_2_1" transform="matrix(9.9626,0,0,-9.9626,38.616235,38.242998)"/>
<use xlink:href="#font_2_4" transform="matrix(9.9626,0,0,-9.9626,43.23888,36.111)"/>
<use xlink:href="#font_2_1" transform="matrix(9.9626,0,0,-9.9626,49.242898,21.660996)"/>
<path transform="matrix(1,0,0,-1,53.964998,19.529)" d="M 0 0 L 17.863 0 L 17.863 1.195 L 0 1.195 Z "/>
<use xlink:href="#font_2_4" transform="matrix(9.9626,0,0,-9.9626,71.72838,19.529)"/>
<use xlink:href="#font_2_3" transform="matrix(9.9626,0,0,-9.9626,76.07207,19.529)"/>
<path transform="matrix(1,0,0,-1,80.795,19.529)" d="M 0 0 L 17.863 0 L 17.863 1.195 L 0 1.195 Z "/>
<use xlink:href="#font_2_2" transform="matrix(9.9626,0,0,-9.9626,98.55837,21.660996)"/>
<symbol id="font_1_1">
<path d="M .23200003 .00999999 C .23200003 .012999982 .23200003 .014999986 .215 .03199999 C .09 .15799999 .058 .347 .058 .5 C .058 .674 .096 .84800007 .21900001 .97300007 C .23200003 .985 .23200003 .98700007 .23200003 .99 C .23200003 .99700006 .22800002 1 .222 1 C .21200001 1 .12200001 .93200007 .06299999 .805 C .012000002 .69500008 0 .584 0 .5 C 0 .422 .011 .301 .066 .188 C .126 .065 .21200001 0 .222 0 C .22800002 0 .23200003 .0029999912 .23200003 .00999999 Z "/>
</symbol>
<use xlink:href="#font_1_1" transform="matrix(9.9626,0,0,-9.9626,50.468294,32.480649)"/>
<symbol id="font_3_7">
<path d="M .17500001 .29900003 C .176 .30200003 .22100002 .43100003 .307 .43100003 C .312 .43100003 .34 .43100003 .36 .41700004 C .32500003 .40600003 .32200004 .374 .32200004 .36900003 C .32200004 .35600005 .33100004 .337 .35700003 .337 C .37500004 .337 .40600003 .351 .40600003 .39000003 C .40600003 .44200004 .34100003 .45300005 .30800004 .45300005 C .23900002 .45300005 .20300001 .40300004 .187 .381 C .176 .43400003 .13700001 .45300005 .104 .45300005 C .068 .45300005 .048000009 .43000005 .031999999 .40000005 C .012999997 .36 0 .30100004 0 .29900003 C 0 .28900004 .009999998 .28900004 .015000001 .28900004 C .028000005 .28900004 .029 .29000003 .034 .31200005 C .052 .38200004 .07100001 .43100003 .102 .43100003 C .128 .43100003 .128 .40200005 .128 .39100004 C .128 .37500004 .125 .35600005 .12100001 .34000004 L .046000005 .040000004 C .044 .034 .042999999 .029000003 .042999999 .026 C .042999999 .015000001 .051 0 .07100001 0 C .10100001 0 .10800001 .029000003 .11 .037 L .17500001 .29900003 Z "/>
</symbol>
<symbol id="font_3_5">
<path d="M .24800003 .15400002 C .24800003 .16400002 .24000001 .16400002 .23300001 .16400002 C .22 .16400002 .22 .16200002 .21600002 .14700002 C .208 .11800001 .181 .022000002 .12300001 .022000002 C .11500001 .022000002 .10100001 .023000002 .10100001 .05 C .10100001 .076000008 .11400001 .109000008 .127 .14600002 L .19100002 .31700004 C .201 .34600003 .20300001 .35400004 .20300001 .37300004 C .20300001 .42800004 .165 .45300005 .128 .45300005 C .034 .45300005 0 .30400003 0 .29900003 C 0 .28900004 .009999998 .28900004 .015000001 .28900004 C .028000005 .28900004 .029 .291 .033 .305 C .041999997 .33800004 .068 .43100003 .126 .43100003 C .13700001 .43100003 .148 .42600004 .148 .40300004 C .148 .37900005 .13700001 .35000003 .13000001 .33100004 L .10000001 .24800003 C .087 .21500002 .075 .18200001 .06300001 .14900002 C .048999996 .111 .045 .1 .045 .080000009 C .045 .041 .069000009 0 .12100001 0 C .215 0 .24800003 .15000002 .24800003 .15400002 M .243 .634 C .243 .659 .22300002 .667 .20900002 .667 C .18800003 .667 .16100002 .647 .16100002 .619 C .16100002 .594 .181 .586 .19500003 .586 C .215 .586 .243 .605 .243 .634 Z "/>
</symbol>
<symbol id="font_3_3">
<path d="M .28500004 .25800003 L .264 .17400001 C .252 .12400001 .24600002 .10300001 .21800003 .069000009 C .178 .022 .13800001 .022 .12300001 .022 C .11 .022 .078999999 .022 .052 .033000009 C .072 .04100001 .08400001 .062000008 .08400001 .07900001 C .08400001 .09200001 .075 .11100001 .049000004 .11100001 C .031000004 .11100001 0 .09700001 0 .058000015 C 0 .018000007 .037 0 .12100001 0 C .22600001 0 .30200003 .066 .321 .14200002 L .43 .58000007 C .43400003 .595 .43400003 .597 .43400003 .6010001 C .43400003 .62200006 .41700004 .62700006 .407 .62700006 C .395 .62700006 .372 .6190001 .36800004 .59000006 C .354 .6190001 .32700003 .6470001 .284 .6470001 C .172 .6470001 .057000005 .499 .057000005 .35800005 C .057000005 .273 .104 .20500002 .179 .20500002 C .23000002 .20500002 .273 .24600002 .28500004 .25800003 M .35000003 .51900008 L .305 .337 C .29700003 .305 .236 .22700002 .18100001 .22700002 C .127 .22700002 .125 .30300004 .125 .314 C .125 .36200003 .155 .47900004 .17600002 .526 C .201 .58000007 .245 .625 .284 .625 C .344 .625 .35300002 .541 .35300002 .533 L .35000003 .51900008 Z "/>
</symbol>
<symbol id="font_3_4">
<path d="M .228 .68 C .22900002 .683 .23100002 .691 .23100002 .693 C .23100002 .702 .22500001 .705 .21700002 .705 C .214 .705 .20400001 .704 .20100002 .703 L .102 .695 C .09 .694 .07900001 .693 .07900001 .674 C .07900001 .663 .089 .663 .103 .663 C .15100001 .663 .15300001 .656 .15300001 .646 C .15300001 .643 .15 .63 .15 .629 L .002000004 .039 C .001000002 .037 0 .028 0 .026 C 0 .015000001 .009000003 0 .028000005 0 C .049000004 0 .062000008 .017 .065 .028 C .069000009 .043 .10100001 .17300001 .10800001 .20100002 C .113000009 .22300002 .119 .24400002 .12400001 .26600004 C .133 .30200003 .134 .30400003 .15200001 .33600004 C .172 .36800004 .21500002 .43100003 .28500004 .43100003 C .329 .43100003 .33100004 .38600005 .33100004 .365 C .33100004 .30300004 .287 .18400002 .273 .14400001 C .26 .11000001 .25700004 .101 .25700004 .080000009 C .25700004 .036000004 .28500004 0 .333 0 C .42600007 0 .46000005 .14900002 .46000005 .15400002 C .46000005 .16400002 .45200003 .16400002 .44500006 .16400002 C .43200005 .16400002 .43200005 .16200002 .42800004 .14700002 C .42000003 .120000008 .393 .022000002 .33500005 .022000002 C .314 .022000002 .31300003 .037 .31300003 .051000004 C .31300003 .076000008 .323 .102000009 .33100004 .126 C .351 .17900002 .39200003 .291 .39200003 .34900005 C .39200003 .43100003 .337 .45300005 .288 .45300005 C .221 .45300005 .186 .418 .155 .388 L .228 .68 Z "/>
</symbol>
<symbol id="font_3_8">
<path d="M .16900002 .411 L .254 .411 C .27100004 .411 .282 .411 .282 .43000005 C .282 .44200004 .273 .44200004 .25700004 .44200004 L .177 .44200004 L .214 .59000006 C .21800001 .60400006 .21800001 .606 .21800001 .611 C .21800001 .632 .20100002 .637 .191 .637 C .166 .637 .156 .616 .15200001 .601 L .113000009 .44200004 L .027999998 .44200004 C .011 .44200004 0 .44200004 0 .42300005 C 0 .411 .008999996 .411 .024999999 .411 L .105000007 .411 L .033 .124000009 C .031999999 .120000008 .027999998 .104 .027999998 .09 C .027999998 .040000004 .061000006 0 .113000009 0 C .214 0 .265 .14900002 .265 .15400002 C .265 .16400002 .25700004 .16400002 .25 .16400002 C .23800002 .16400002 .23800002 .16300002 .23 .14500001 C .212 .097 .172 .022000002 .11500001 .022000002 C .088 .022000002 .088 .047000003 .088 .063 C .088 .07000001 .088 .086 .095 .11400001 L .16900002 .411 Z "/>
</symbol>
<use xlink:href="#font_3_7" transform="matrix(9.9626,0,0,-9.9626,54.18289,30.099589)"/>
<use xlink:href="#font_3_5" transform="matrix(9.9626,0,0,-9.9626,58.387109,30.099589)"/>
<use xlink:href="#font_3_3" transform="matrix(9.9626,0,0,-9.9626,61.146749,32.032335)"/>
<use xlink:href="#font_3_4" transform="matrix(9.9626,0,0,-9.9626,65.94872,30.099589)"/>
<use xlink:href="#font_3_8" transform="matrix(9.9626,0,0,-9.9626,71.19901,30.099589)"/>
<symbol id="font_4_1">
<path d="M .57600006 0 C .59300008 0 .611 0 .611 .019999996 C .611 .040000008 .59300008 .040000008 .57600006 .040000008 L .035000005 .040000008 C .018 .040000008 0 .040000008 0 .019999996 C 0 0 .018 0 .035000005 0 L .57600006 0 Z "/>
</symbol>
<use xlink:href="#font_4_1" transform="matrix(9.9626,0,0,-9.9626,76.63789,27.6986)"/>
<symbol id="font_3_6">
<path d="M .20899999 .68 C .21000001 .683 .21200001 .691 .21200001 .693 C .21200001 .702 .206 .705 .19800002 .705 C .195 .705 .185 .704 .18200001 .703 L .083 .695 C .071 .694 .06000001 .693 .06000001 .674 C .06000001 .663 .07 .663 .084 .663 C .132 .663 .134 .656 .134 .646 C .134 .643 .13100001 .63 .13100001 .629 L .0059999974 .12900001 C .0050000029 .12500002 0 .105000007 0 .09 C 0 .037 .036000007 0 .084 0 C .122 0 .14200002 .027000003 .155 .052 C .17199999 .087000008 .18599999 .15100001 .18599999 .15400002 C .18599999 .16400002 .178 .16400002 .171 .16400002 C .16600001 .16400002 .16 .16400002 .157 .15900001 L .15 .134 C .13300002 .064 .114 .022000002 .086 .022000002 C .06000001 .022000002 .06000001 .049000004 .06000001 .063 C .06000001 .07000001 .06000001 .085 .06600001 .109000008 L .20899999 .68 Z "/>
</symbol>
<symbol id="font_3_1">
<path d="M .125 .24200002 C .15500002 .24200002 .22200002 .24500002 .26999999 .26400004 C .34900005 .29600004 .34900005 .36100004 .34900005 .36800004 C .34900005 .41400004 .31200005 .45300005 .24800001 .45300005 C .14299999 .45300005 0 .35200004 0 .17500001 C 0 .085 .047999994 0 .14299999 0 C .27100004 0 .35400004 .1 .35400004 .115 C .35400004 .120000008 .34600003 .13100001 .338 .13100001 C .334 .13100001 .333 .13000001 .325 .120000008 C .251 .026 .16200002 .022000002 .145 .022000002 C .08 .022000002 .069000009 .093 .069000009 .13200002 C .069000009 .17000002 .078999999 .21500002 .085999999 .24200002 L .125 .24200002 M .09200001 .26400004 C .135 .42800004 .23800002 .43100003 .24800001 .43100003 C .288 .43100003 .311 .404 .311 .37000004 C .311 .26400004 .14600002 .26400004 .113000009 .26400004 L .09200001 .26400004 Z "/>
</symbol>
<symbol id="font_3_2">
<path d="M .30200003 .605 L .38400004 .605 C .40100003 .605 .411 .605 .411 .623 C .411 .63600006 .40300004 .63600006 .38600005 .63600006 L .30800004 .63600006 C .32200004 .71000006 .32500003 .72800007 .34000004 .7980001 C .34800003 .83500006 .35900004 .888 .395 .888 C .40300004 .888 .42400003 .88600006 .43700005 .87 C .40700004 .865 .39300005 .8410001 .39300005 .8210001 C .39300005 .799 .411 .78900006 .42700003 .78900006 C .45200003 .78900006 .47700004 .809 .47700004 .8440001 C .47700004 .8870001 .43600003 .9100001 .395 .9100001 C .29700003 .9100001 .272 .7800001 .26500003 .74600008 L .24400002 .63600006 L .17800002 .63600006 C .16200002 .63600006 .15100001 .63600006 .15100001 .61600008 C .15100001 .605 .16100002 .605 .17600002 .605 L .23800002 .605 L .165 .23200001 C .15300001 .17000002 .143 .12900001 .13700001 .10800001 C .12900001 .074 .116000007 .022 .080000009 .022 C .07 .022 .051 .025000006 .04 .040000008 C .07 .045 .08400001 .069000009 .08400001 .08900001 C .08400001 .11100001 .066 .12100001 .05 .12100001 C .025 .12100001 0 .10100001 0 .066 C 0 .020999998 .043 0 .080000009 0 C .18400002 0 .22500001 .21000001 .23200003 .24600002 L .30200003 .605 Z "/>
</symbol>
<use xlink:href="#font_3_6" transform="matrix(9.9626,0,0,-9.9626,86.70948,30.099589)"/>
<use xlink:href="#font_3_1" transform="matrix(9.9626,0,0,-9.9626,89.45915,30.099589)"/>
<use xlink:href="#font_3_2" transform="matrix(9.9626,0,0,-9.9626,92.65715,32.032335)"/>
<use xlink:href="#font_3_8" transform="matrix(9.9626,0,0,-9.9626,96.87132,30.099589)"/>
<symbol id="font_1_2">
<path d="M .232 .5 C .232 .578 .22100002 .699 .16600001 .81200006 C .106 .93500009 .020000004 1 .009999998 1 C .0040000008 1 0 .99600008 0 .99 C 0 .98700007 0 .985 .019000002 .967 C .117000009 .86800006 .174 .709 .174 .5 C .174 .329 .137 .153 .012999997 .026999996 C 0 .014999986 0 .012999982 0 .00999999 C 0 .003999993 .0040000008 0 .009999998 0 C .020000004 0 .11000001 .06799999 .169 .195 C .22 .305 .232 .416 .232 .5 Z "/>
</symbol>
<use xlink:href="#font_1_2" transform="matrix(9.9626,0,0,-9.9626,99.83487,32.480649)"/>
<use xlink:href="#font_0_3" transform="matrix(9.9626,0,0,-9.9626,108.95351,30.099589)"/>
<use xlink:href="#font_0_4" transform="matrix(9.9626,0,0,-9.9626,114.03443,32.032335)"/>
<use xlink:href="#font_2_3" transform="matrix(9.9626,0,0,-9.9626,104.5629,36.111)"/>
<use xlink:href="#font_2_2" transform="matrix(9.9626,0,0,-9.9626,109.18555,38.242998)"/>
<use xlink:href="#font_2_1" transform="matrix(9.9626,0,0,-9.9626,113.529239,38.242998)"/>
<use xlink:href="#font_2_4" transform="matrix(9.9626,0,0,-9.9626,118.151889,36.111)"/>
<symbol id="font_5_1">
<path d="M .37100003 .112 C .367 .12500002 .358 .13100001 .35200004 .13100001 C .34700004 .13100001 .34500004 .12900001 .33800004 .120000008 C .28100003 .047000003 .20000002 .025000003 .15400002 .025000003 C .103999998 .025000003 .07300001 .063 .07300001 .12900001 C .07300001 .17100002 .093 .27100004 .12900001 .335 C .15800002 .38600005 .20900002 .42800004 .259 .42800004 C .27100004 .42800004 .314 .42600004 .33100004 .38700003 C .28700004 .38200004 .28500004 .344 .28500004 .34000004 C .28500004 .31100003 .312 .307 .319 .307 C .33800004 .307 .36900003 .32200004 .36900003 .367 C .36900003 .41400004 .326 .45300005 .25800003 .45300005 C .13 .45300005 0 .31100003 0 .16600001 C 0 .078 .052999997 0 .153 0 C .245 0 .33300004 .05 .37100003 .112 Z "/>
</symbol>
<symbol id="font_5_6">
<path d="M .24800003 .634 C .24800003 .65000006 .236 .667 .215 .667 C .19100002 .667 .16700001 .646 .16700001 .621 C .16700001 .593 .19000003 .587 .201 .587 C .22600001 .587 .24800003 .61 .24800003 .634 M .26000003 .15400002 C .26000003 .16600001 .24700001 .16600001 .243 .16600001 C .229 .16600001 .22800002 .16300002 .222 .14200002 C .21200001 .106000009 .18400002 .025000003 .13000001 .025000003 C .12200001 .025000003 .10900001 .026 .10900001 .053000004 C .10900001 .07000001 .11500001 .093 .12600002 .124000009 C .14000002 .16100002 .14000002 .16300002 .157 .20500002 L .19100002 .29900003 C .20000002 .32200004 .21100003 .35200004 .21100003 .37100003 C .21100003 .42000003 .17700002 .45300005 .13200002 .45300005 C .037000009 .45300005 0 .30800004 0 .29900003 C 0 .28700004 .012000002 .28700004 .017000005 .28700004 C .031000004 .28700004 .032000007 .29200004 .036000007 .30400003 C .043000007 .33 .07000001 .42800004 .12900001 .42800004 C .13900002 .42800004 .15 .42600004 .15 .40000005 C .15 .37600003 .143 .35600005 .12600002 .30900003 L .091000009 .21600002 C .08500001 .19800002 .069000009 .15600002 .066 .14700002 C .058000015 .126 .04900001 .102000009 .04900001 .082 C .04900001 .028 .08700001 0 .128 0 C .22300002 0 .26000003 .14700002 .26000003 .15400002 Z "/>
</symbol>
<symbol id="font_5_b">
<path d="M .18200001 .298 C .18400002 .305 .22800002 .42800004 .31500004 .42800004 C .321 .42800004 .349 .42800004 .37000004 .41300003 C .34000004 .40300004 .335 .37900005 .335 .367 C .335 .34700004 .35000003 .335 .36900003 .335 C .395 .335 .418 .35700003 .418 .388 C .418 .43000005 .37100003 .45300005 .31700004 .45300005 C .25700004 .45300005 .21700001 .41700004 .19300002 .38300003 C .18200001 .42800004 .14700002 .45300005 .106000009 .45300005 C .073000017 .45300005 .048000009 .43300004 .030000009 .395 C .014000006 .36 0 .30400003 0 .3 C 0 .28700004 .011000007 .28700004 .017000005 .28700004 C .032000007 .28700004 .032000007 .291 .037000009 .31100003 C .05700001 .39100004 .076000008 .42800004 .104 .42800004 C .120000008 .42800004 .13000001 .41900004 .13000001 .388 C .13000001 .367 .12400001 .34100003 .12300001 .337 L .051 .049000004 C .047000007 .035 .047000007 .033000005 .047000007 .028 C .047000007 .010000001 .061000006 0 .076000008 0 C .09 0 .10900001 .0060000007 .11700001 .037 L .18200001 .298 Z "/>
</symbol>
<symbol id="font_5_e">
<path d="M .442 .39300005 C .446 .40700004 .446 .40900005 .446 .41400004 C .446 .43200005 .432 .44200004 .41700004 .44200004 C .38500003 .44200004 .37700004 .411 .37500004 .40200005 L .30400003 .115 C .29700003 .08800001 .256 .025000003 .19600001 .025000003 C .14500001 .025000003 .14100002 .077 .14100002 .102000009 C .14100002 .15500002 .164 .22400002 .19800002 .31700004 C .20700002 .34000004 .21100003 .351 .21100003 .37100003 C .21100003 .42000003 .17700002 .45300005 .13200002 .45300005 C .037000009 .45300005 0 .30800004 0 .29900003 C 0 .28700004 .012000002 .28700004 .017000005 .28700004 C .031000004 .28700004 .032000007 .29200004 .036000007 .30400003 C .043000007 .33 .07000001 .42800004 .12900001 .42800004 C .13900002 .42800004 .15 .42600004 .15 .40000005 C .15 .37500004 .13900002 .34500004 .13200002 .32600004 C .08600001 .20300001 .076000008 .16200002 .076000008 .11800001 C .076000008 .020000002 .14700002 0 .19300002 0 C .23500002 0 .272 .019000002 .30600003 .060000004 C .321 .016 .35700003 0 .39000003 0 C .43600003 0 .45700006 .040000004 .465 .057000005 C .483 .094000007 .49600003 .15100001 .49600003 .15400002 C .49600003 .16600001 .483 .16600001 .479 .16600001 C .46400003 .16600001 .46300004 .16200002 .45900003 .143 C .442 .077 .424 .025000003 .39100004 .025000003 C .372 .025000003 .365 .041 .365 .06600001 C .365 .075 .36800004 .097 .37300004 .117000009 L .442 .39300005 Z "/>
</symbol>
<symbol id="font_5_9">
<path d="M .314 .049000004 C .31000004 .035 .31000004 .033000005 .31000004 .028 C .31000004 .010000001 .32400004 0 .33900003 0 C .37100003 0 .37600003 .020000002 .38900004 .075 C .39400003 .094000007 .40800003 .14700002 .411 .16100002 C .419 .19400002 .437 .26400004 .44300006 .291 C .447 .30400003 .47500006 .35600005 .49900005 .38000003 C .51400008 .395 .54700008 .42800004 .6010001 .42800004 C .63900008 .42800004 .648 .395 .648 .36300005 C .648 .305 .605 .18700002 .58800008 .14200002 C .576 .109000008 .574 .10300001 .574 .082 C .574 .028 .612 0 .653 0 C .748 0 .7850001 .14700002 .7850001 .15400002 C .7850001 .16600001 .7720001 .16600001 .768 .16600001 C .75400009 .16600001 .753 .16300002 .7470001 .14200002 C .737 .106000009 .709 .025000003 .6550001 .025000003 C .6470001 .025000003 .63400009 .026 .63400009 .053000004 C .63400009 .077 .646 .109000008 .65400007 .13100001 C .67200008 .17900002 .71300008 .29000003 .71300008 .34700004 C .71300008 .41400004 .673 .45300005 .60300007 .45300005 C .53400006 .45300005 .48500005 .41500003 .45000003 .367 C .442 .42500005 .39900003 .45300005 .34100003 .45300005 C .286 .45300005 .236 .42900003 .194 .37600003 C .185 .42800004 .14700002 .45300005 .106000009 .45300005 C .073000017 .45300005 .048000009 .43300004 .030000009 .395 C .014000006 .36 0 .30400003 0 .3 C 0 .28700004 .011000007 .28700004 .017000005 .28700004 C .032000007 .28700004 .032000007 .291 .037000009 .31100003 C .05700001 .39100004 .076000008 .42800004 .104 .42800004 C .120000008 .42800004 .13000001 .41900004 .13000001 .388 C .13000001 .367 .12400001 .34100003 .12300001 .337 L .051 .049000004 C .047000007 .035 .047000007 .033000005 .047000007 .028 C .047000007 .010000001 .061000006 0 .076000008 0 C .10800001 0 .113000009 .020000002 .12600002 .075 C .13100001 .094000007 .14500001 .14700002 .14800002 .16100002 C .15600002 .19400002 .17400003 .26400004 .18 .291 C .18200001 .298 .20700002 .35300002 .24600002 .39000003 C .27400003 .41600005 .30800004 .42800004 .33800004 .42800004 C .36800004 .42800004 .386 .40800003 .386 .36200003 C .386 .344 .38000003 .314 .37700004 .30100004 L .314 .049000004 Z "/>
</symbol>
<symbol id="font_5_3">
<path d="M .30800004 .605 L .39200003 .605 C .409 .605 .42000003 .605 .42000003 .623 C .42000003 .63600006 .409 .63600006 .39300005 .63600006 L .314 .63600006 C .33300004 .742 .34100003 .77900007 .344 .794 C .35400004 .839 .36400003 .885 .39900003 .885 C .40100003 .885 .42400003 .885 .44000004 .8690001 C .404 .8590001 .40100003 .82800009 .40100003 .822 C .40100003 .80200007 .41700004 .7900001 .43500004 .7900001 C .45700003 .7900001 .48400004 .80700007 .48400004 .8440001 C .48400004 .88900008 .43800003 .9100001 .39900003 .9100001 C .34800003 .9100001 .314 .86800006 .307 .85800006 C .28100003 .8230001 .26700003 .7520001 .26700003 .75100007 L .24500002 .63600006 L .17700002 .63600006 C .16000001 .63600006 .149 .63600006 .149 .61800006 C .149 .605 .16000001 .605 .17600002 .605 L .23900002 .605 L .16900002 .24100001 C .157 .17700002 .157 .17500001 .13900002 .106000009 C .13200002 .07900001 .118 .025000006 .083000008 .025000006 C .080000009 .025000006 .058 .025000006 .044 .04100001 C .080000009 .051 .083000008 .08200001 .083000008 .08800001 C .083000008 .10800001 .067 .12000001 .049000004 .12000001 C .027 .12000001 0 .10300001 0 .066 C 0 .022 .042000005 0 .082 0 C .17600002 0 .22000002 .15 .24500002 .27800004 L .30800004 .605 Z "/>
</symbol>
<symbol id="font_5_2">
<path d="M .116000007 .24000003 C .19100002 .24000003 .24300003 .24800003 .279 .26200003 C .34900005 .29000003 .35800005 .34600003 .35800005 .367 C .35800005 .41200004 .32000003 .45300005 .25200004 .45300005 C .15 .45300005 0 .35900004 0 .17800002 C 0 .06600001 .063 0 .148 0 C .24000001 0 .32800005 .05 .36600004 .112 C .36200003 .12500002 .35300002 .13100001 .34700004 .13100001 C .34200005 .13100001 .34000004 .12900001 .33300004 .120000008 C .27600003 .047000003 .19500003 .025000003 .14900002 .025000003 C .08100001 .025000003 .071 .101 .071 .136 C .071 .14400001 .071 .17600002 .087000008 .24000003 L .116000007 .24000003 M .093 .26500003 C .13900003 .42500005 .238 .42800004 .25200004 .42800004 C .29600004 .42800004 .31700004 .39800004 .31700004 .36800004 C .31700004 .26500003 .15800002 .26500003 .093 .26500003 Z "/>
</symbol>
<symbol id="font_5_a">
<path d="M .051 .049000004 C .047000007 .035 .047000007 .033000005 .047000007 .028 C .047000007 .010000001 .061000006 0 .076000008 0 C .10800001 0 .113000009 .020000002 .12600002 .075 C .13100001 .094000007 .14500001 .14700002 .14800002 .16100002 C .15600002 .19400002 .17400003 .26400004 .18 .291 C .18400002 .30400003 .21200001 .35600005 .236 .38000003 C .25100003 .395 .284 .42800004 .33800004 .42800004 C .37600003 .42800004 .38500003 .395 .38500003 .36300005 C .38500003 .305 .342 .18700002 .32500003 .14200002 C .31300003 .109000008 .31100003 .10300001 .31100003 .082 C .31100003 .028 .349 0 .39000003 0 C .48500005 0 .5220001 .14700002 .5220001 .15400002 C .5220001 .16600001 .50900009 .16600001 .505 .16600001 C .49100004 .16600001 .49000005 .16300002 .484 .14200002 C .474 .106000009 .446 .025000003 .39200003 .025000003 C .38400004 .025000003 .37100003 .026 .37100003 .053000004 C .37100003 .077 .38300003 .109000008 .39100004 .13100001 C .409 .17900002 .45000003 .29000003 .45000003 .34700004 C .45000003 .41400004 .41000004 .45300005 .34000004 .45300005 C .268 .45300005 .22000003 .40900005 .194 .37700004 C .185 .42700003 .14800002 .45300005 .106000009 .45300005 C .073000017 .45300005 .048000009 .43300004 .030000009 .395 C .014000006 .36 0 .30400003 0 .3 C 0 .28700004 .011000007 .28700004 .017000005 .28700004 C .032000007 .28700004 .032000007 .291 .037000009 .31100003 C .05700001 .39100004 .076000008 .42800004 .104 .42800004 C .120000008 .42800004 .13000001 .41900004 .13000001 .388 C .13000001 .367 .12400001 .34100003 .12300001 .337 L .051 .049000004 Z "/>
</symbol>
<use xlink:href="#font_5_1" transform="matrix(8.9664,0,0,-8.9664,8.19127,49.40463)"/>
<use xlink:href="#font_5_6" transform="matrix(8.9664,0,0,-8.9664,12.154418,49.40463)"/>
<use xlink:href="#font_5_b" transform="matrix(8.9664,0,0,-8.9664,14.978834,49.40463)"/>
<use xlink:href="#font_5_1" transform="matrix(8.9664,0,0,-8.9664,18.664025,49.40463)"/>
<use xlink:href="#font_5_e" transform="matrix(8.9664,0,0,-8.9664,22.627173,49.40463)"/>
<use xlink:href="#font_5_9" transform="matrix(8.9664,0,0,-8.9664,27.56766,49.40463)"/>
<use xlink:href="#font_5_3" transform="matrix(8.9664,0,0,-8.9664,34.149003,51.14411)"/>
<use xlink:href="#font_5_2" transform="matrix(8.9664,0,0,-8.9664,38.237684,49.40463)"/>
<use xlink:href="#font_5_b" transform="matrix(8.9664,0,0,-8.9664,42.156,49.40463)"/>
<use xlink:href="#font_5_2" transform="matrix(8.9664,0,0,-8.9664,45.877054,49.40463)"/>
<use xlink:href="#font_5_a" transform="matrix(8.9664,0,0,-8.9664,49.79537,49.40463)"/>
<use xlink:href="#font_5_1" transform="matrix(8.9664,0,0,-8.9664,55.237974,49.40463)"/>
<use xlink:href="#font_5_2" transform="matrix(8.9664,0,0,-8.9664,59.048696,49.40463)"/>
<symbol id="font_5_8">
<path d="M .211 .67300006 C .21400002 .686 .215 .688 .215 .691 C .215 .704 .206 .70600005 .18900001 .704 L .085 .695 C .07 .694 .06000001 .693 .06000001 .676 C .06000001 .663 .07 .663 .087000008 .663 C .134 .663 .134 .65500006 .134 .646 C .134 .645 .134 .639 .13 .624 L .0050000029 .12500002 C .0050000029 .124000009 0 .106000009 0 .091000009 C 0 .043 .034 0 .08900001 0 C .134 0 .15400002 .037 .16299999 .056 C .181 .092 .194 .15100001 .194 .15400002 C .194 .16600001 .181 .16600001 .17700002 .16600001 C .162 .16600001 .16100002 .16200002 .157 .143 C .134 .051000004 .115 .025000003 .09000001 .025000003 C .071 .025000003 .064 .041 .064 .06600001 C .064 .075 .06700001 .097 .072000008 .117000009 L .211 .67300006 Z "/>
</symbol>
<symbol id="font_5_4">
<path d="M .43800003 .579 C .44200004 .59300008 .44200004 .595 .44200004 .59900006 C .44200004 .61600008 .42900003 .62700006 .41300003 .62700006 C .39300005 .62700006 .37700004 .612 .37200005 .59300008 C .36 .61600008 .33400003 .6470001 .286 .6470001 C .178 .6470001 .056 .50900009 .056 .36 C .056 .25300003 .121 .20500002 .18100003 .20500002 C .22100002 .20500002 .25800003 .22700002 .28800003 .25500003 L .26700003 .171 C .25500003 .12200001 .25000004 .102000009 .21800003 .068 C .19 .036 .15900001 .025000006 .124000009 .025000006 C .093 .025000006 .067 .030000002 .054000006 .03400001 C .057000005 .03500001 .08200001 .04900001 .08200001 .07800001 C .08200001 .09900001 .067 .11000001 .048 .11000001 C .030000002 .11000001 0 .09600001 0 .058000015 C 0 .016000003 .042000005 0 .123 0 C .23700002 0 .31100003 .07100001 .328 .13900002 L .43800003 .579 M .30900003 .338 C .3 .30400003 .238 .23000002 .18400002 .23000002 C .12900001 .23000002 .12600002 .30300004 .12600002 .31800003 C .12600002 .365 .155 .47600005 .17200002 .515 C .20200002 .58300009 .24900002 .62200006 .286 .62200006 C .34900005 .62200006 .35700003 .53700008 .35700003 .533 C .35700003 .53000006 .35600005 .52700009 .35400004 .51900008 L .30900003 .338 Z "/>
</symbol>
<symbol id="font_5_d">
<path d="M .17400001 .411 L .26 .411 C .277 .411 .288 .411 .288 .42900003 C .288 .44200004 .278 .44200004 .26200003 .44200004 L .182 .44200004 L .219 .589 C .223 .603 .223 .605 .223 .609 C .223 .626 .21000003 .637 .19400002 .637 C .16700001 .637 .156 .615 .15200001 .598 L .113000009 .44200004 L .027999998 .44200004 C .011 .44200004 0 .44200004 0 .42400003 C 0 .411 .009999998 .411 .026 .411 L .105000007 .411 L .033999996 .12500002 C .033999996 .124000009 .029 .106000009 .029 .091000009 C .029 .046 .060000004 0 .119 0 C .22000002 0 .27500005 .14500001 .27500005 .15500002 C .27500005 .16600001 .26200003 .16600001 .259 .16600001 C .246 .16600001 .24500002 .16300002 .23900001 .14900002 C .21100001 .079 .16900002 .025000003 .12100001 .025000003 C .11 .025000003 .09300001 .027000003 .09300001 .06600001 C .09300001 .075 .096 .097 .100999999 .117000009 L .17400001 .411 Z "/>
</symbol>
<symbol id="font_5_5">
<path d="M .229 .67300006 C .23200003 .68700006 .23300001 .688 .23300001 .691 C .23300001 .704 .224 .70600005 .20700002 .704 L .103 .695 C .088 .694 .07800001 .693 .07800001 .676 C .07800001 .663 .088 .663 .105000007 .663 C .15200001 .663 .15200001 .65500006 .15200001 .646 C .15200001 .645 .15200001 .639 .148 .624 L .0040000008 .048 C 0 .034 0 .032 0 .028 C 0 .013000001 .011 0 .030000002 0 C .061000006 0 .067 .025000003 .074 .055000005 C .085999999 .098000008 .085999999 .1 .096 .14100002 C .10700001 .18400002 .120000008 .23600002 .128 .27100004 C .139 .31200005 .15900001 .35000003 .18900001 .38000003 C .204 .395 .23700002 .42800004 .291 .42800004 C .32900004 .42800004 .33800004 .395 .33800004 .36300005 C .33800004 .305 .29500003 .18700002 .278 .14200002 C .266 .109000008 .264 .10300001 .264 .082 C .264 .028 .30200003 0 .34300003 0 C .438 0 .475 .14700002 .475 .15400002 C .475 .16600001 .46200005 .16600001 .45800004 .16600001 C .44400005 .16600001 .44300006 .16300002 .437 .14200002 C .42700003 .106000009 .39900003 .025000003 .34500004 .025000003 C .337 .025000003 .324 .026 .324 .053000004 C .324 .077 .33600004 .109000008 .344 .13100001 C .36200003 .17900002 .40300004 .29000003 .40300004 .34700004 C .40300004 .41400004 .363 .45300005 .293 .45300005 C .238 .45300005 .194 .42800004 .15900001 .39100004 L .229 .67300006 Z "/>
</symbol>
<use xlink:href="#font_5_8" transform="matrix(8.9664,0,0,-8.9664,66.20184,9.719628)"/>
<use xlink:href="#font_5_2" transform="matrix(8.9664,0,0,-8.9664,68.7483,9.719628)"/>
<use xlink:href="#font_5_a" transform="matrix(8.9664,0,0,-8.9664,72.66662,9.719628)"/>
<use xlink:href="#font_5_4" transform="matrix(8.9664,0,0,-8.9664,77.61607,11.45911)"/>
<use xlink:href="#font_5_d" transform="matrix(8.9664,0,0,-8.9664,82.16203,9.719628)"/>
<use xlink:href="#font_5_5" transform="matrix(8.9664,0,0,-8.9664,85.08508,9.719628)"/>
<symbol id="font_5_7">
<path d="M .229 .67300006 C .23200003 .686 .23300001 .688 .23300001 .691 C .23300001 .704 .224 .70600005 .20700002 .704 L .103 .695 C .088 .694 .07800001 .693 .07800001 .676 C .07800001 .663 .088 .663 .105000007 .663 C .15200001 .663 .15200001 .65500006 .15200001 .646 C .15200001 .645 .15200001 .639 .148 .624 L .0040000008 .048 C 0 .034 0 .032 0 .028 C 0 .013000001 .011 0 .030000002 0 C .046000005 0 .058 .010000001 .063999999 .020000002 C .068 .028 .075 .055000005 .120000008 .23800002 C .17500001 .23100002 .224 .20600002 .224 .15500002 C .224 .15000002 .224 .14600002 .22100002 .13200002 C .21700001 .115 .21700001 .107 .21700001 .098000008 C .21700001 .034 .259 0 .305 0 C .34100003 0 .365 .022000002 .384 .052 C .407 .09 .42200003 .14900002 .42200003 .15400002 C .42200003 .16600001 .409 .16600001 .40500004 .16600001 C .39000003 .16600001 .38900004 .16200002 .38500003 .143 C .37100003 .087000008 .351 .025000003 .308 .025000003 C .29500003 .025000003 .279 .029000003 .279 .06600001 C .279 .08800001 .279 .09 .28800003 .12500002 C .29200004 .14100002 .29200004 .14500001 .29200004 .15600002 C .29200004 .23100002 .20900002 .25300003 .157 .261 C .18200001 .27800004 .20500002 .3 .26900003 .37000004 C .275 .37700004 .321 .42800004 .36900003 .42800004 C .38000003 .42800004 .39000003 .42500005 .39600004 .41500003 C .36600004 .41000004 .35300002 .38600005 .35300002 .367 C .35300002 .34700004 .36800004 .335 .38700003 .335 C .40600003 .335 .43600003 .34900005 .43600003 .39100004 C .43600003 .42600004 .411 .45300005 .37100003 .45300005 C .31100003 .45300005 .268 .40500004 .22100002 .35300002 C .172 .3 .154 .286 .13000001 .275 L .229 .67300006 Z "/>
</symbol>
<symbol id="font_5_c">
<path d="M .316 .381 C .279 .374 .279 .34300003 .279 .34100003 C .279 .33200003 .28500004 .31300003 .30900003 .31300003 C .331 .31300003 .35200004 .33 .35200004 .367 C .35200004 .41200004 .312 .45300005 .24000001 .45300005 C .12300001 .45300005 .078999999 .36 .078999999 .305 C .078999999 .22700002 .14600002 .21300002 .176 .20600002 C .22300002 .19600001 .268 .18600002 .268 .134 C .268 .105000007 .24400002 .025000003 .135 .025000003 C .109 .025000003 .053000004 .032 .037 .079 C .08400001 .08400001 .08400001 .12500002 .08400001 .126 C .08400001 .15300001 .061000006 .15900001 .049999998 .15900001 C .044 .15900001 0 .15600002 0 .097 C 0 .041 .053000004 0 .135 0 C .28800003 0 .32700003 .12200001 .32700003 .16700001 C .32700003 .19500003 .317 .22100002 .29700003 .24200002 C .271 .268 .248 .27300004 .20300001 .28200004 C .17300001 .28900004 .13700001 .29600004 .13700001 .33900003 C .13700001 .35700003 .15300001 .42800004 .24000001 .42800004 C .27 .42800004 .30600003 .41600005 .316 .381 Z "/>
</symbol>
<use xlink:href="#font_5_d" transform="matrix(8.9664,0,0,-8.9664,96.90894,50.27663)"/>
<use xlink:href="#font_5_5" transform="matrix(8.9664,0,0,-8.9664,99.83199,50.27663)"/>
<use xlink:href="#font_5_6" transform="matrix(8.9664,0,0,-8.9664,104.58418,50.27663)"/>
<use xlink:href="#font_5_1" transform="matrix(8.9664,0,0,-8.9664,107.67759,50.27663)"/>
<use xlink:href="#font_5_7" transform="matrix(8.9664,0,0,-8.9664,111.59591,50.27663)"/>
<use xlink:href="#font_5_a" transform="matrix(8.9664,0,0,-8.9664,115.87288,50.27663)"/>
<use xlink:href="#font_5_2" transform="matrix(8.9664,0,0,-8.9664,121.36031,50.27663)"/>
<use xlink:href="#font_5_c" transform="matrix(8.9664,0,0,-8.9664,125.2338,50.27663)"/>
<use xlink:href="#font_5_c" transform="matrix(8.9664,0,0,-8.9664,128.99968,50.27663)"/>
</svg>
