<?xml version="1.0" encoding="UTF-8" standalone="no"?>
<!DOCTYPE svg PUBLIC "-//W3C//DTD SVG 1.1//EN" "http://www.w3.org/Graphics/SVG/1.1/DTD/svg11.dtd">
<svg xmlns="http://www.w3.org/2000/svg" xmlns:xlink="http://www.w3.org/1999/xlink" version="1.1" width="343.707pt" height="85.039pt" viewBox="0 0 343.707 85.039">
<clipPath id="cp0">
<path transform="matrix(1,0,0,-1,28.644,85.039)" d="M -28.64407 0 L 315.0676 0 L 315.0676 85.03986 L -28.64407 85.03986 Z "/>
</clipPath>
<g clip-path="url(#cp0)">
<path transform="matrix(1,0,0,-1,28.644,85.039)" d="M 23.86862 85.03986 L 26.85219 85.03986 L 29.83577 85.03986 L 32.81935 85.03986 L 35.80293 85.03986 L 38.7865 85.03986 L 41.7701 85.03986 L 44.75366 85.03986 L 47.73724 85.03986 L 50.72081 85.03986 L 53.7044 85.03986 L 56.68797 85.03986 L 59.67155 85.03986 L 62.65514 85.03986 L 65.63872 85.03986 L 68.62228 85.03986 L 71.60587 85.03986 L 74.58945 85.03986 L 77.57303 85.03986 L 80.5566 85.03986 L 83.54019 85.03986 L 86.52376 85.03986 L 89.50734 85.03986 L 92.4909 85.03986 L 95.4745 85.03986 L 95.4745 42.51993 L 23.86862 42.51993 Z " fill="#cccce6"/>
<path transform="matrix(1,0,0,-1,28.644,85.039)" d="M 95.4745 85.03986 L 97.46352 85.03986 L 99.45253 85.03986 L 101.44154 85.03986 L 103.43057 85.03986 L 105.41959 85.03986 L 107.40862 85.03986 L 109.39763 85.03986 L 111.38666 85.03986 L 113.37567 85.03986 L 115.36469 85.03986 L 117.35371 85.03986 L 119.34274 85.03986 L 121.33176 85.03986 L 123.32077 85.03986 L 125.3098 85.03986 L 127.29883 85.03986 L 129.28783 85.03986 L 131.27686 85.03986 L 133.26589 85.03986 L 135.2549 85.03986 L 137.24391 85.03986 L 139.23294 85.03986 L 141.22197 85.03986 L 143.21097 85.03986 L 143.21097 42.51993 L 95.4745 42.51993 Z " fill="#e6cccc"/>
<path transform="matrix(1,0,0,-1,28.644,85.039)" d="M 143.21175 85.03986 L 147.18984 85.03986 L 151.16793 85.03986 L 155.146 85.03986 L 159.12409 85.03986 L 163.10219 85.03986 L 167.08028 85.03986 L 171.05835 85.03986 L 175.03644 85.03986 L 179.01453 85.03986 L 182.99262 85.03986 L 186.9707 85.03986 L 190.94879 85.03986 L 194.92688 85.03986 L 198.90497 85.03986 L 202.88306 85.03986 L 206.86115 85.03986 L 210.83922 85.03986 L 214.8173 85.03986 L 218.79541 85.03986 L 222.7735 85.03986 L 226.75157 85.03986 L 230.72966 85.03986 L 234.70775 85.03986 L 238.68585 85.03986 L 238.68585 42.51993 L 143.21175 42.51993 Z " fill="#cccce6"/>
<path transform="matrix(1,0,0,-1,28.644,85.039)" stroke-width=".3985" stroke-linecap="butt" stroke-miterlimit="10" stroke-linejoin="miter" fill="none" stroke="#000000" d="M 0 42.51993 L 284.43098 42.51993 "/>
<path transform="matrix(1,0,0,-1,313.07499,42.51907)" d="M 1.99252 0 L -1.19551 1.59401 L 0 0 L -1.19551 -1.59401 "/>
<path transform="matrix(1,0,0,-1,28.644,85.039)" stroke-width=".3985" stroke-linecap="butt" stroke-dasharray="2.98883,2.98883" stroke-miterlimit="10" stroke-linejoin="miter" fill="none" stroke="#000000" d="M 95.4745 42.51993 L 95.4745 85.03986 "/>
<path transform="matrix(1,0,0,-1,28.644,85.039)" stroke-width=".3985" stroke-linecap="butt" stroke-dasharray="2.98883,2.98883" stroke-miterlimit="10" stroke-linejoin="miter" fill="none" stroke="#000000" d="M 143.21175 42.51993 L 143.21175 85.03986 "/>
<symbol id="font_1_1">
<path d="M .61100009 0 C .62700006 0 .64900007 0 .64900007 .022999987 C .64900007 .04599999 .62700006 .04599999 .61100009 .04599999 L .037999996 .04599999 C .022 .04599999 0 .04599999 0 .022999987 C 0 0 .022 0 .037999996 0 L .61100009 0 Z "/>
</symbol>
<use xlink:href="#font_1_1" transform="matrix(7.9701,0,0,-7.9701,44.50937,49.36679)"/>
<symbol id="font_2_4">
<path d="M .21800001 .637 C .21800001 .66400006 .216 .665 .18900003 .665 C .14800002 .625 .09500001 .601 0 .601 L 0 .568 C .027000003 .568 .081 .568 .13900002 .595 L .13900002 .082 C .13900002 .045 .136 .033 .04100001 .033 L .0060000049 .033 L .0060000049 0 C .047000007 .003 .13300002 .003 .17800002 .003 C .223 .003 .31 .003 .351 0 L .351 .033 L .31600005 .033 C .221 .033 .21800001 .045 .21800001 .082 L .21800001 .637 Z "/>
</symbol>
<use xlink:href="#font_2_4" transform="matrix(7.9701,0,0,-7.9701,51.160127,51.176004)"/>
<symbol id="font_3_1">
<path d="M .111 .055000005 C .111 .089 .083000008 .11100001 .055999996 .11100001 C .023999997 .11100001 0 .085 0 .056 C 0 .022000002 .027999998 0 .054999994 0 C .087 0 .111 .026 .111 .055000005 Z "/>
</symbol>
<use xlink:href="#font_3_1" transform="matrix(7.9701,0,0,-7.9701,55.362249,51.176004)"/>
<symbol id="font_2_6">
<path d="M .087 .58300009 C .10000001 .57900008 .14 .56900009 .18200001 .56900009 C .307 .56900009 .38300003 .65700009 .38300003 .67200008 C .38300003 .6830001 .37600003 .68600007 .37100003 .68600007 C .36900003 .68600007 .367 .68600007 .358 .68100008 C .319 .66600009 .273 .65400007 .21900001 .65400007 C .16000001 .65400007 .111 .669 .08 .68100008 C .07 .68600007 .068 .68600007 .067 .68600007 C .054000006 .68600007 .054000006 .6750001 .054000006 .65700009 L .054000006 .36400003 C .054000006 .34600003 .054000006 .33400003 .07 .33400003 C .07800001 .33400003 .081 .338 .08600001 .34600003 C .098000008 .361 .136 .41200004 .22100002 .41200004 C .277 .41200004 .30400003 .36600004 .31300003 .347 C .33 .31100003 .33200003 .26500003 .33200003 .22600001 C .33200003 .18900001 .331 .135 .303 .091000009 C .284 .061000006 .24400002 .030000002 .19100002 .030000002 C .126 .030000002 .062 .071 .039000006 .136 C .042000005 .135 .048 .135 .049000004 .135 C .07700001 .135 .09900001 .153 .09900001 .184 C .09900001 .221 .07 .23400001 .050000006 .23400001 C .031999999 .23400001 0 .224 0 .18100001 C 0 .091000009 .07800001 0 .193 0 C .31800003 0 .42400003 .097 .42400003 .221 C .42400003 .337 .34 .44000004 .222 .44000004 C .172 .44000004 .125 .42400003 .087 .39000003 L .087 .58300009 Z "/>
</symbol>
<use xlink:href="#font_2_6" transform="matrix(7.9701,0,0,-7.9701,57.403417,51.343378)"/>
<symbol id="font_2_3">
<path d="M .448 .34 C .448 .44700004 .437 .512 .404 .57600006 C .36 .66400006 .279 .68600007 .224 .68600007 C .09800001 .68600007 .052 .59200009 .038000004 .56400009 C .0020000004 .49100004 0 .39200003 0 .34 C 0 .27400003 .0030000024 .17300001 .051000008 .09300001 C .09700001 .019000002 .171 0 .224 0 C .272 0 .358 .0150000019 .40800003 .11400001 C .44500003 .186 .448 .275 .448 .34 M .224 .028 C .19 .028 .121 .044000005 .1 .149 C .08900001 .206 .08900001 .3 .08900001 .35200004 C .08900001 .421 .08900001 .49100004 .1 .54600009 C .121 .64800009 .199 .65800008 .224 .65800008 C .25800003 .65800008 .32700003 .64100006 .347 .5500001 C .359 .49500004 .359 .42000003 .359 .35200004 C .359 .293 .359 .20300001 .347 .147 C .326 .042000005 .257 .028 .224 .028 Z "/>
</symbol>
<use xlink:href="#font_2_3" transform="matrix(7.9701,0,0,-7.9701,122.326778,51.343378)"/>
<use xlink:href="#font_2_4" transform="matrix(7.9701,0,0,-7.9701,170.50214,51.176004)"/>
<symbol id="font_2_5">
<path d="M .20900002 .35500003 C .28800003 .35500003 .33800004 .29700003 .33800004 .192 C .33800004 .067 .26700003 .030000002 .21400002 .030000002 C .15900001 .030000002 .08400001 .050000006 .049 .103 C .08500001 .103 .110000018 .126 .110000018 .15900001 C .110000018 .191 .08700001 .214 .055000005 .214 C .028 .214 0 .19700001 0 .157 C 0 .062000004 .10200001 0 .21600002 0 C .349 0 .44200004 .09200001 .44200004 .192 C .44200004 .275 .37600003 .351 .27400003 .37300004 C .35300002 .40100003 .41200004 .469 .41200004 .549 C .41200004 .62900009 .32200004 .68600007 .21800003 .68600007 C .111 .68600007 .029999998 .6280001 .029999998 .55200007 C .029999998 .51500007 .055000005 .499 .081 .499 C .112 .499 .13200002 .521 .13200002 .5500001 C .13200002 .5870001 .10000001 .6010001 .07800001 .60200008 C .120000008 .65700009 .19700001 .6600001 .215 .6600001 C .24100003 .6600001 .31700004 .65200009 .31700004 .549 C .31700004 .47900004 .28800003 .437 .27400003 .421 C .24400002 .39000003 .22100002 .388 .16000001 .384 C .141 .38300003 .133 .38200004 .133 .36900003 C .133 .35500003 .142 .35500003 .15900001 .35500003 L .20900002 .35500003 Z "/>
</symbol>
<use xlink:href="#font_2_5" transform="matrix(7.9701,0,0,-7.9701,265.56068,51.343378)"/>
<symbol id="font_3_4">
<path d="M .328 .60200008 L .421 .60200008 C .441 .60200008 .453 .60200008 .453 .62100008 C .453 .63500007 .44000004 .63500007 .423 .63500007 L .33400003 .63500007 C .35000003 .725 .36 .782 .37 .827 C .374 .84400007 .377 .855 .39200003 .86700007 C .405 .878 .41300003 .88000008 .42400003 .88000008 C .439 .88000008 .45500005 .87700006 .468 .869 C .463 .86700007 .45700003 .864 .45200003 .861 C .435 .852 .423 .83400008 .423 .814 C .423 .791 .441 .777 .463 .777 C .49200005 .777 .519 .80200007 .519 .837 C .519 .884 .47100003 .90800008 .423 .90800008 C .38900004 .90800008 .326 .892 .294 .8 C .285 .777 .285 .77500006 .25800003 .63500007 L .183 .63500007 C .163 .63500007 .15100001 .63500007 .15100001 .61600008 C .15100001 .60200008 .164 .60200008 .18100001 .60200008 L .252 .60200008 L .18 .21400002 C .161 .113000009 .146 .027999998 .092999998 .027999998 C .09 .027999998 .069000009 .027999998 .05 .040000008 C .096 .051 .096 .093 .096 .094000007 C .096 .117000009 .077999997 .13100001 .056000007 .13100001 C .029000003 .13100001 0 .10800001 0 .07000001 C 0 .027999998 .043 0 .092999998 0 C .154 0 .19600001 .06400001 .20899999 .08900001 C .245 .155 .268 .28000004 .27 .29000003 L .328 .60200008 Z "/>
</symbol>
<use xlink:href="#font_3_4" transform="matrix(7.9701,0,0,-7.9701,71.49835,25.205903)"/>
<symbol id="font_4_1">
<path d="M .25300003 .43100003 C .26 .446 .26200003 .45700003 .26200003 .46300004 C .26200003 .49400006 .23400001 .52000007 .20100002 .52000007 C .16100002 .52000007 .149 .48500005 .14500001 .47100006 L .004999995 .043 C .0029999987 .037000006 0 .029000003 0 .025000003 C 0 .008000001 .04 0 .041 0 C .050000006 0 .053999999 .009 .058 .017 L .25300003 .43100003 Z "/>
</symbol>
<use xlink:href="#font_4_1" transform="matrix(5.9776,0,0,-5.9776,76.37063,20.03588)"/>
<symbol id="font_2_1">
<path d="M .22999999 0 C .238 0 .25 0 .25 .0119999949 C .25 .015999988 .24900002 .01699999 .236 .029999987 C .099 .159 .065000008 .345 .065000008 .5 C .065000008 .78800007 .18399999 .92300006 .23500002 .96900007 C .24900002 .98200008 .25 .98300006 .25 .98800006 C .25 .99300006 .24599999 1 .236 1 C .22 1 .16999999 .94900009 .162 .94000008 C .028000005 .8 0 .62 0 .5 C 0 .276 .094000007 .095999989 .22999999 0 Z "/>
</symbol>
<use xlink:href="#font_2_1" transform="matrix(7.9701,0,0,-7.9701,79.51192,25.57253)"/>
<symbol id="font_3_5">
<path d="M .46900005 .409 C .425 .398 .423 .359 .423 .35500003 C .423 .333 .44000004 .31800003 .462 .31800003 C .48400004 .31800003 .518 .335 .518 .37800003 C .518 .435 .455 .451 .418 .451 C .37100003 .451 .333 .418 .31 .379 C .28800003 .432 .236 .451 .19500001 .451 C .08600001 .451 .025000003 .326 .025000003 .298 C .025000003 .289 .032 .285 .040000004 .285 C .052000006 .285 .054 .29 .057 .30200003 C .08 .375 .14 .423 .192 .423 C .231 .423 .25 .395 .25 .359 C .25 .33900003 .238 .293 .23000002 .261 C .22300002 .23200003 .201 .143 .19600001 .124000009 C .18200001 .07 .146 .028 .100999999 .028 C .097 .028 .07100001 .028 .05 .042000005 C .096 .053000004 .096 .095 .096 .096 C .096 .119 .07800001 .133 .056000007 .133 C .029000003 .133 0 .11 0 .072000008 C 0 .026 .049 0 .099999997 0 C .153 0 .19000001 .040000004 .208 .072000008 C .23000002 .023000002 .27600003 0 .324 0 C .43300004 0 .49300004 .125 .49300004 .15300001 C .49300004 .16300002 .485 .16600001 .47800005 .16600001 C .46600003 .16600001 .46400003 .15900001 .46100004 .14900002 C .441 .082 .384 .028 .326 .028 C .293 .028 .26900003 .050000006 .26900003 .092 C .26900003 .112 .275 .135 .289 .19100002 C .296 .22100002 .31800003 .30900003 .323 .328 C .337 .38 .372 .423 .41700004 .423 C .42200003 .423 .448 .423 .46900005 .409 Z "/>
</symbol>
<use xlink:href="#font_3_5" transform="matrix(7.9701,0,0,-7.9701,82.23904,23.659707)"/>
<symbol id="font_2_2">
<path d="M .24900002 .5 C .24900002 .595 .23300001 .709 .171 .827 C .12200001 .919 .031000004 1 .013000004 1 C .0029999987 1 0 .99300006 0 .98800006 C 0 .984 0 .98200008 .012000002 .97 C .15200001 .837 .18400002 .65400007 .18400002 .5 C .18400002 .213 .065 .07699999 .013999999 .030999989 C .001000002 .017999992 0 .01699999 0 .0119999949 C 0 .0069999846 .0029999987 0 .013000004 0 C .029 0 .07900001 .050999986 .087 .059999989 C .22100002 .2 .24900002 .38 .24900002 .5 Z "/>
</symbol>
<use xlink:href="#font_2_2" transform="matrix(7.9701,0,0,-7.9701,87.229198,25.57253)"/>
<symbol id="font_3_3">
<path d="M .628 .289 C .64000007 .29500003 .64900007 .30100004 .64900007 .314 C .64900007 .32700003 .64000007 .33300004 .628 .33900003 L .041 .62100008 C .027999998 .628 .026 .628 .023000002 .628 C .009999998 .628 0 .61800006 0 .605 C 0 .592 .008999996 .586 .020999998 .58000007 L .573 .314 L .020999998 .048 C .008999996 .042000005 0 .036000004 0 .023000002 C 0 .010000002 .009999998 0 .023000002 0 C .026 0 .027999998 0 .041 .0069999995 L .628 .289 Z "/>
</symbol>
<use xlink:href="#font_3_3" transform="matrix(7.9701,0,0,-7.9701,93.09736,24.090092)"/>
<use xlink:href="#font_2_3" transform="matrix(7.9701,0,0,-7.9701,101.661769,23.747378)"/>
<use xlink:href="#font_3_4" transform="matrix(7.9701,0,0,-7.9701,131.16835,25.205903)"/>
<use xlink:href="#font_4_1" transform="matrix(5.9776,0,0,-5.9776,136.04164,20.03588)"/>
<use xlink:href="#font_2_1" transform="matrix(7.9701,0,0,-7.9701,139.18292,25.57253)"/>
<use xlink:href="#font_3_5" transform="matrix(7.9701,0,0,-7.9701,141.91005,23.659707)"/>
<use xlink:href="#font_2_2" transform="matrix(7.9701,0,0,-7.9701,146.9002,25.57253)"/>
<symbol id="font_3_2">
<path d="M .628 .58000007 C .64000007 .586 .64900007 .592 .64900007 .605 C .64900007 .61800006 .63900008 .628 .62600007 .628 C .623 .628 .62100008 .628 .60800006 .62100008 L .020999998 .33900003 C .008999996 .33300004 0 .32700003 0 .314 C 0 .30100004 .008999996 .29500003 .020999998 .289 L .60800006 .0069999995 C .62100008 0 .623 0 .62600007 0 C .63900008 0 .64900007 .010000002 .64900007 .023000002 C .64900007 .036000004 .64000007 .042000005 .628 .048 L .076 .314 L .628 .58000007 Z "/>
</symbol>
<use xlink:href="#font_3_2" transform="matrix(7.9701,0,0,-7.9701,152.76837,24.090092)"/>
<use xlink:href="#font_2_3" transform="matrix(7.9701,0,0,-7.9701,161.33277,23.747378)"/>
<use xlink:href="#font_3_4" transform="matrix(7.9701,0,0,-7.9701,202.77335,25.205903)"/>
<use xlink:href="#font_4_1" transform="matrix(5.9776,0,0,-5.9776,207.64664,20.03588)"/>
<use xlink:href="#font_2_1" transform="matrix(7.9701,0,0,-7.9701,210.78693,25.57253)"/>
<use xlink:href="#font_3_5" transform="matrix(7.9701,0,0,-7.9701,213.51506,23.659707)"/>
<use xlink:href="#font_2_2" transform="matrix(7.9701,0,0,-7.9701,218.50522,25.57253)"/>
<use xlink:href="#font_3_3" transform="matrix(7.9701,0,0,-7.9701,224.37339,24.090092)"/>
<use xlink:href="#font_2_3" transform="matrix(7.9701,0,0,-7.9701,232.93778,23.747378)"/>
</g>
</svg>
