<?xml version="1.0" encoding="UTF-8" standalone="no"?>
<!DOCTYPE svg PUBLIC "-//W3C//DTD SVG 1.1//EN" "http://www.w3.org/Graphics/SVG/1.1/DTD/svg11.dtd">
<svg xmlns="http://www.w3.org/2000/svg" xmlns:xlink="http://www.w3.org/1999/xlink" version="1.1" width="183.628pt" height="181.431pt" viewBox="0 0 183.628 181.431">
<path transform="matrix(1,0,0,-1,9.686,174.485)" stroke-width=".3985" stroke-linecap="butt" stroke-miterlimit="10" stroke-linejoin="miter" fill="none" stroke="#cbcbcb" d="M 0 0 L 0 161.3842 M 10.0865 0 L 10.0865 161.3842 M 20.17302 0 L 20.17302 161.3842 M 30.25954 0 L 30.25954 161.3842 M 40.34604 0 L 40.34604 161.3842 M 50.43256 0 L 50.43256 161.3842 M 60.51907 0 L 60.51907 161.3842 M 70.60558 0 L 70.60558 161.3842 M 90.77861 0 L 90.77861 161.3842 M 100.86511 0 L 100.86511 161.3842 M 110.95163 0 L 110.95163 161.3842 M 121.03815 0 L 121.03815 161.3842 M 131.12467 0 L 131.12467 161.3842 M 141.21117 0 L 141.21117 161.3842 M 151.29769 0 L 151.29769 161.3842 M 161.3842 0 L 161.3842 161.3842 "/>
<path transform="matrix(1,0,0,-1,9.686,174.485)" stroke-width=".3985" stroke-linecap="butt" stroke-miterlimit="10" stroke-linejoin="miter" fill="none" stroke="#cbcbcb" d="M 0 0 L 161.3842 0 M 0 10.0865 L 161.3842 10.0865 M 0 20.17302 L 161.3842 20.17302 M 0 30.25954 L 161.3842 30.25954 M 0 40.34604 L 161.3842 40.34604 M 0 50.43256 L 161.3842 50.43256 M 0 60.51907 L 161.3842 60.51907 M 0 70.60558 L 161.3842 70.60558 M 0 90.77861 L 161.3842 90.77861 M 0 100.86511 L 161.3842 100.86511 M 0 110.95163 L 161.3842 110.95163 M 0 121.03815 L 161.3842 121.03815 M 0 131.12467 L 161.3842 131.12467 M 0 141.21117 L 161.3842 141.21117 M 0 151.29769 L 161.3842 151.29769 M 0 161.3842 L 161.3842 161.3842 "/>
<path transform="matrix(1,0,0,-1,9.686,174.485)" stroke-width=".19925" stroke-linecap="butt" stroke-miterlimit="10" stroke-linejoin="miter" fill="none" stroke="#929292" d="M 0 78.56609 L 0 82.81808 M 10.0865 78.56609 L 10.0865 82.81808 M 20.17302 78.56609 L 20.17302 82.81808 M 30.25954 78.56609 L 30.25954 82.81808 M 40.34604 78.56609 L 40.34604 82.81808 M 50.43256 78.56609 L 50.43256 82.81808 M 60.51907 78.56609 L 60.51907 82.81808 M 70.60558 78.56609 L 70.60558 82.81808 M 90.77861 78.56609 L 90.77861 82.81808 M 100.86511 78.56609 L 100.86511 82.81808 M 110.95163 78.56609 L 110.95163 82.81808 M 121.03815 78.56609 L 121.03815 82.81808 M 131.12467 78.56609 L 131.12467 82.81808 M 141.21117 78.56609 L 141.21117 82.81808 M 151.29769 78.56609 L 151.29769 82.81808 M 161.3842 78.56609 L 161.3842 82.81808 "/>
<path transform="matrix(1,0,0,-1,9.686,174.485)" stroke-width=".19925" stroke-linecap="butt" stroke-miterlimit="10" stroke-linejoin="miter" fill="none" stroke="#929292" d="M 78.56609 0 L 82.81808 0 M 78.56609 10.0865 L 82.81808 10.0865 M 78.56609 20.17302 L 82.81808 20.17302 M 78.56609 30.25954 L 82.81808 30.25954 M 78.56609 40.34604 L 82.81808 40.34604 M 78.56609 50.43256 L 82.81808 50.43256 M 78.56609 60.51907 L 82.81808 60.51907 M 78.56609 70.60558 L 82.81808 70.60558 M 78.56609 90.77861 L 82.81808 90.77861 M 78.56609 100.86511 L 82.81808 100.86511 M 78.56609 110.95163 L 82.81808 110.95163 M 78.56609 121.03815 L 82.81808 121.03815 M 78.56609 131.12467 L 82.81808 131.12467 M 78.56609 141.21117 L 82.81808 141.21117 M 78.56609 151.29769 L 82.81808 151.29769 M 78.56609 161.3842 L 82.81808 161.3842 "/>
<path transform="matrix(1,0,0,-1,9.686,174.485)" stroke-width=".3985" stroke-linecap="butt" stroke-miterlimit="10" stroke-linejoin="miter" fill="none" stroke="#000000" d="M 0 80.6921 L 159.39168 80.6921 "/>
<path transform="matrix(1,0,0,-1,169.07769,93.7929)" d="M 1.99252 0 L -1.19551 1.59401 L 0 0 L -1.19551 -1.59401 "/>
<path transform="matrix(1,0,0,-1,9.686,174.485)" stroke-width=".3985" stroke-linecap="butt" stroke-miterlimit="10" stroke-linejoin="miter" fill="none" stroke="#000000" d="M 80.6921 0 L 80.6921 159.39168 "/>
<path transform="matrix(0,-1,-1,-0,90.3781,15.093323)" d="M 1.99252 0 L -1.19551 1.59401 L 0 0 L -1.19551 -1.59401 "/>
<symbol id="font_0_1">
<path d="M .57600006 0 C .59300008 0 .611 0 .611 .019999996 C .611 .040000008 .59300008 .040000008 .57600006 .040000008 L .035000005 .040000008 C .018 .040000008 0 .040000008 0 .019999996 C 0 0 .018 0 .035000005 0 L .57600006 0 Z "/>
</symbol>
<use xlink:href="#font_0_1" transform="matrix(9.9626,0,0,-9.9626,4.147896,103.5686)"/>
<symbol id="font_1_a">
<path d="M .121 .47900004 C .075 .509 .071 .54300007 .071 .56000009 C .071 .62100008 .136 .66300007 .20700002 .66300007 C .28000004 .66300007 .344 .61100009 .344 .53900006 C .344 .48200003 .305 .43400005 .245 .39900003 L .121 .47900004 M .26700003 .38400004 C .33900003 .42100004 .388 .47300006 .388 .53900006 C .388 .63100007 .29900003 .688 .208 .688 C .108 .688 .027000003 .614 .027000003 .521 C .027000003 .503 .029 .45800004 .071 .41100005 C .082 .39900003 .11900001 .37400005 .144 .35700003 C .086 .32800005 0 .272 0 .17300001 C 0 .067 .102000009 0 .20700002 0 C .32000003 0 .41500003 .083000008 .41500003 .19000001 C .41500003 .22600001 .404 .27100004 .36600004 .31300003 C .34700004 .33400003 .33100004 .34400005 .26700003 .38400004 M .167 .34200005 L .29000003 .26400004 C .31800003 .245 .365 .215 .365 .154 C .365 .080000009 .29000003 .028 .208 .028 C .122 .028 .050000006 .09 .050000006 .17300001 C .050000006 .231 .082 .29500003 .167 .34200005 Z "/>
</symbol>
<use xlink:href="#font_1_a" transform="matrix(9.9626,0,0,-9.9626,11.48743,106.07918)"/>
<use xlink:href="#font_0_1" transform="matrix(9.9626,0,0,-9.9626,14.233895,103.5686)"/>
<symbol id="font_1_9">
<path d="M .42000003 .63100007 C .42900003 .64300009 .42900003 .64500007 .42900003 .66600009 L .18600002 .66600009 C .064 .66600009 .062000008 .679 .058000007 .6980001 L .033 .6980001 L 0 .49200005 L .024999999 .49200005 C .028000005 .508 .037 .57100006 .050000006 .58300009 C .057000005 .58900007 .13500002 .58900007 .148 .58900007 L .35500003 .58900007 C .344 .573 .26500003 .46400006 .24300003 .43100003 C .153 .29600004 .12000001 .157 .12000001 .055 C .12000001 .045 .12000001 0 .16600001 0 C .21200001 0 .21200001 .045 .21200001 .055 L .21200001 .106000009 C .21200001 .16100002 .21500004 .216 .22300002 .27 C .22700003 .29300005 .24100003 .37900005 .28500004 .44100005 L .42000003 .63100007 Z "/>
</symbol>
<use xlink:href="#font_1_9" transform="matrix(9.9626,0,0,-9.9626,21.713906,106.07918)"/>
<use xlink:href="#font_0_1" transform="matrix(9.9626,0,0,-9.9626,24.319897,103.5686)"/>
<symbol id="font_1_8">
<path d="M .089999999 .35000003 L .089999999 .37400005 C .089999999 .62700006 .21400002 .66300007 .26500003 .66300007 C .28900004 .66300007 .33100004 .65700009 .35300002 .623 C .33800004 .623 .298 .623 .298 .57800009 C .298 .54700008 .32200004 .53200009 .344 .53200009 C .36 .53200009 .39000003 .54100009 .39000003 .58000007 C .39000003 .64000007 .34600003 .688 .263 .688 C .13499999 .688 0 .559 0 .33800004 C 0 .071 .116000007 0 .20900002 0 C .32000003 0 .41500003 .094000007 .41500003 .22600001 C .41500003 .35300005 .32600004 .44900004 .215 .44900004 C .14700002 .44900004 .11000001 .39800004 .089999999 .35000003 M .20900002 .028 C .146 .028 .116000007 .088 .11000001 .103 C .092 .15 .092 .23 .092 .24800001 C .092 .32600004 .124000009 .42600004 .21400002 .42600004 C .23000002 .42600004 .27600003 .42600004 .307 .36400003 C .32500003 .32700003 .32500003 .27600003 .32500003 .22700002 C .32500003 .179 .32500003 .12900001 .30800004 .093 C .27800004 .033000005 .23200003 .028 .20900002 .028 Z "/>
</symbol>
<use xlink:href="#font_1_8" transform="matrix(9.9626,0,0,-9.9626,31.660429,106.07918)"/>
<use xlink:href="#font_0_1" transform="matrix(9.9626,0,0,-9.9626,34.406896,103.5686)"/>
<symbol id="font_1_7">
<path d="M .39900003 .223 C .39900003 .34200005 .317 .44200004 .209 .44200004 C .16100002 .44200004 .118000019 .42600004 .082 .39100004 L .082 .586 C .10200001 .58000007 .135 .573 .16700001 .573 C .29 .573 .36 .66400006 .36 .67700007 C .36 .683 .357 .688 .35 .688 C .349 .688 .347 .688 .342 .68500009 C .322 .67600008 .273 .656 .20600002 .656 C .16600001 .656 .120000008 .66300007 .073 .6840001 C .065 .68700006 .06300001 .68700006 .061000009 .68700006 C .051000004 .68700006 .051000004 .679 .051000004 .66300007 L .051000004 .36700005 C .051000004 .34900005 .051000004 .34100003 .065 .34100003 C .07200001 .34100003 .074 .34400005 .07800001 .35000003 C .08900002 .36600004 .12600002 .42000006 .207 .42000006 C .259 .42000006 .284 .37400005 .292 .35600005 C .308 .31900005 .31 .28000004 .31 .23 C .31 .19500001 .31 .135 .286 .093 C .262 .054000006 .22500001 .028 .17900002 .028 C .106000009 .028 .049000008 .08100001 .032 .14000002 C .035 .13900002 .038000008 .13800001 .049000008 .13800001 C .082 .13800001 .09900001 .163 .09900001 .187 C .09900001 .21100001 .082 .23600002 .049000008 .23600002 C .035 .23600002 0 .22900002 0 .18300002 C 0 .097 .069000009 0 .18100001 0 C .297 0 .39900003 .096 .39900003 .223 Z "/>
</symbol>
<use xlink:href="#font_1_7" transform="matrix(9.9626,0,0,-9.9626,41.82613,106.07918)"/>
<use xlink:href="#font_0_1" transform="matrix(9.9626,0,0,-9.9626,44.492898,103.5686)"/>
<symbol id="font_1_6">
<path d="M .266 .165 L .266 .078 C .266 .042000005 .26400004 .031000002 .19000001 .031000002 L .16900002 .031000002 L .16900002 0 C .21000001 .003 .26200003 .003 .30400003 .003 C .34600003 .003 .39900003 .003 .44000004 0 L .44000004 .031000002 L .41900004 .031000002 C .34500004 .031000002 .34300003 .042000005 .34300003 .078 L .34300003 .165 L .44300003 .165 L .44300003 .19600001 L .34300003 .19600001 L .34300003 .651 C .34300003 .671 .34300003 .67700007 .32700003 .67700007 C .31800003 .67700007 .31500004 .67700007 .307 .665 L 0 .19600001 L 0 .165 L .266 .165 M .272 .19600001 L .028 .19600001 L .272 .569 L .272 .19600001 Z "/>
</symbol>
<use xlink:href="#font_1_6" transform="matrix(9.9626,0,0,-9.9626,51.693956,105.86)"/>
<use xlink:href="#font_0_1" transform="matrix(9.9626,0,0,-9.9626,54.5789,103.5686)"/>
<symbol id="font_1_5">
<path d="M .24800003 .37400005 C .33 .40100003 .388 .47100006 .388 .55 C .388 .632 .3 .688 .204 .688 C .10300001 .688 .027000003 .628 .027000003 .55200007 C .027000003 .519 .049000004 .5 .078 .5 C .109000008 .5 .12900001 .522 .12900001 .55100008 C .12900001 .6010001 .082 .6010001 .067 .6010001 C .098 .65000006 .164 .66300007 .20000002 .66300007 C .24100003 .66300007 .29600004 .64100006 .29600004 .55100008 C .29600004 .53900006 .29400004 .48100005 .268 .43700005 C .238 .38900004 .204 .38600005 .17900002 .38500003 C .171 .38400004 .14700002 .38200004 .14000002 .38200004 C .132 .38100005 .125 .38000003 .125 .37000004 C .125 .35900004 .132 .35900004 .14900002 .35900004 L .19300002 .35900004 C .275 .35900004 .312 .29100005 .312 .193 C .312 .057000005 .24300003 .028 .199 .028 C .15600002 .028 .081 .045 .046000005 .104 C .081 .09900001 .11200001 .12100001 .11200001 .15900001 C .11200001 .19500001 .085 .215 .056 .215 C .031999999 .215 0 .201 0 .157 C 0 .06600001 .093 0 .20200002 0 C .32400004 0 .41500003 .091000009 .41500003 .193 C .41500003 .27500005 .35200004 .35300005 .24800003 .37400005 Z "/>
</symbol>
<use xlink:href="#font_1_5" transform="matrix(9.9626,0,0,-9.9626,61.919435,106.07918)"/>
<use xlink:href="#font_0_1" transform="matrix(9.9626,0,0,-9.9626,64.66589,103.5686)"/>
<symbol id="font_1_4">
<path d="M .07700001 .07700001 L .18300002 .18 C .33900003 .31800003 .39900003 .372 .39900003 .47200004 C .39900003 .586 .30900003 .666 .18700002 .666 C .074 .666 0 .574 0 .485 C 0 .42900003 .05 .42900003 .053000008 .42900003 C .07000001 .42900003 .105000007 .441 .105000007 .48200003 C .105000007 .508 .08700001 .53400006 .052000006 .53400006 C .044000005 .53400006 .042000008 .53400006 .039 .53300008 C .062000004 .59800007 .11600001 .63500007 .17400001 .63500007 C .26500003 .63500007 .308 .554 .308 .47200004 C .308 .39200003 .25800003 .31300003 .20300003 .25100003 L .011000004 .037 C 0 .026 0 .024 0 0 L .37100003 0 L .39900003 .17400001 L .374 .17400001 C .36900003 .14400001 .36200003 .1 .352 .085 C .345 .07700001 .279 .07700001 .257 .07700001 L .07700001 .07700001 Z "/>
</symbol>
<use xlink:href="#font_1_4" transform="matrix(9.9626,0,0,-9.9626,72.08613,105.86)"/>
<use xlink:href="#font_0_1" transform="matrix(9.9626,0,0,-9.9626,74.75189,103.5686)"/>
<symbol id="font_1_3">
<path d="M .205 .64000007 C .205 .66400006 .205 .666 .18200003 .666 C .120000008 .60200008 .032000007 .60200008 0 .60200008 L 0 .57100006 C .020000004 .57100006 .07900001 .57100006 .13100001 .597 L .13100001 .079 C .13100001 .043 .128 .031000002 .038000004 .031000002 L .0060000049 .031000002 L .0060000049 0 C .04100001 .003 .128 .003 .168 .003 C .20800002 .003 .29500003 .003 .33000005 0 L .33000005 .031000002 L .29800005 .031000002 C .20800002 .031000002 .205 .042000005 .205 .079 L .205 .64000007 Z "/>
</symbol>
<use xlink:href="#font_1_3" transform="matrix(9.9626,0,0,-9.9626,82.56067,105.86)"/>
<use xlink:href="#font_1_3" transform="matrix(9.9626,0,0,-9.9626,98.85867,105.86)"/>
<use xlink:href="#font_1_4" transform="matrix(9.9626,0,0,-9.9626,108.55713,105.86)"/>
<use xlink:href="#font_1_5" transform="matrix(9.9626,0,0,-9.9626,118.56342,106.07918)"/>
<use xlink:href="#font_1_6" transform="matrix(9.9626,0,0,-9.9626,128.50995,105.86)"/>
<use xlink:href="#font_1_7" transform="matrix(9.9626,0,0,-9.9626,138.81613,106.07918)"/>
<use xlink:href="#font_1_8" transform="matrix(9.9626,0,0,-9.9626,148.82244,106.07918)"/>
<use xlink:href="#font_1_9" transform="matrix(9.9626,0,0,-9.9626,159.0489,106.07918)"/>
<use xlink:href="#font_1_a" transform="matrix(9.9626,0,0,-9.9626,168.99544,106.07918)"/>
<use xlink:href="#font_0_1" transform="matrix(9.9626,0,0,-9.9626,72.827899,174.9886)"/>
<use xlink:href="#font_1_a" transform="matrix(9.9626,0,0,-9.9626,80.16843,177.49918)"/>
<use xlink:href="#font_0_1" transform="matrix(9.9626,0,0,-9.9626,72.827899,164.9026)"/>
<use xlink:href="#font_1_9" transform="matrix(9.9626,0,0,-9.9626,80.30791,167.41318)"/>
<use xlink:href="#font_0_1" transform="matrix(9.9626,0,0,-9.9626,72.827899,154.8156)"/>
<use xlink:href="#font_1_8" transform="matrix(9.9626,0,0,-9.9626,80.16843,157.32617)"/>
<use xlink:href="#font_0_1" transform="matrix(9.9626,0,0,-9.9626,72.827899,144.7296)"/>
<use xlink:href="#font_1_7" transform="matrix(9.9626,0,0,-9.9626,80.24813,147.24018)"/>
<use xlink:href="#font_0_1" transform="matrix(9.9626,0,0,-9.9626,72.827899,134.6436)"/>
<use xlink:href="#font_1_6" transform="matrix(9.9626,0,0,-9.9626,80.02895,136.935)"/>
<use xlink:href="#font_0_1" transform="matrix(9.9626,0,0,-9.9626,72.827899,124.5566)"/>
<use xlink:href="#font_1_5" transform="matrix(9.9626,0,0,-9.9626,80.16843,127.06718)"/>
<use xlink:href="#font_0_1" transform="matrix(9.9626,0,0,-9.9626,72.827899,114.470607)"/>
<use xlink:href="#font_1_4" transform="matrix(9.9626,0,0,-9.9626,80.24813,116.762)"/>
<use xlink:href="#font_0_1" transform="matrix(9.9626,0,0,-9.9626,72.827899,104.383609)"/>
<use xlink:href="#font_1_3" transform="matrix(9.9626,0,0,-9.9626,80.63667,106.675)"/>
<use xlink:href="#font_1_3" transform="matrix(9.9626,0,0,-9.9626,80.63667,86.918)"/>
<use xlink:href="#font_1_4" transform="matrix(9.9626,0,0,-9.9626,80.24813,76.831)"/>
<use xlink:href="#font_1_5" transform="matrix(9.9626,0,0,-9.9626,80.16843,66.96418)"/>
<use xlink:href="#font_1_6" transform="matrix(9.9626,0,0,-9.9626,80.02895,56.658998)"/>
<use xlink:href="#font_1_7" transform="matrix(9.9626,0,0,-9.9626,80.24813,46.791185)"/>
<use xlink:href="#font_1_8" transform="matrix(9.9626,0,0,-9.9626,80.16843,36.705186)"/>
<use xlink:href="#font_1_9" transform="matrix(9.9626,0,0,-9.9626,80.30791,26.61818)"/>
<use xlink:href="#font_1_a" transform="matrix(9.9626,0,0,-9.9626,80.16843,16.53218)"/>
<path transform="matrix(1,0,0,-1,9.686,174.485)" stroke-width="1.19553" stroke-linecap="butt" stroke-miterlimit="10" stroke-linejoin="miter" fill="none" stroke="#000080" d="M 60.51907 40.34604 L 61.3596 43.63814 L 62.20013 46.79016 L 63.04068 49.8021 L 63.88121 52.67392 L 64.72176 55.40573 L 65.5623 57.99738 L 66.40285 60.44896 L 67.24338 62.76044 L 68.08391 64.93184 L 68.92445 66.96313 L 69.76498 68.85435 L 70.60553 70.60547 L 71.44608 72.21654 L 72.28662 73.68748 L 73.12715 75.01834 L 73.96768 76.20912 L 74.80823 77.2598 L 75.64876 78.1704 L 76.4893 78.9409 L 77.32985 79.57132 L 78.1704 80.06163 L 79.01093 80.41188 L 79.85147 80.62202 L 80.692 80.6921 "/>
<path transform="matrix(1,0,0,-1,9.686,174.485)" stroke-width="1.19553" stroke-linecap="butt" stroke-miterlimit="10" stroke-linejoin="miter" fill="none" stroke="#000080" d="M 80.6921 80.6921 L 81.53262 80.76213 L 82.37315 80.97226 L 83.2137 81.3225 L 84.05424 81.8128 L 84.89479 82.4432 L 85.73532 83.21368 L 86.57587 84.12427 L 87.4164 85.17494 L 88.25693 86.3657 L 89.09747 87.69656 L 89.93802 89.16748 L 90.77856 90.77852 L 91.6191 92.52962 L 92.45964 94.42082 L 93.30017 96.45215 L 94.1407 98.6235 L 94.98125 100.935 L 95.8218 103.38655 L 96.66234 105.9782 L 97.50287 108.70993 L 98.34341 111.58177 L 99.18394 114.59367 L 100.02449 117.74567 L 100.86502 121.03777 "/>
<path transform="matrix(1,0,0,-1,9.686,174.485)" stroke-width="1.19553" stroke-linecap="butt" stroke-miterlimit="10" stroke-linejoin="miter" fill="none" stroke="#000080" d="M 121.03815 80.6921 L 122.71921 71.02585 L 124.40028 62.20018 L 126.08138 54.21504 L 127.76245 47.07051 L 129.44353 40.76654 L 131.12462 35.30292 L 132.8057 30.67987 L 134.48676 26.89755 L 136.16783 23.95563 L 137.84893 21.85402 L 139.53 20.59332 L 141.21108 20.17302 L 142.89217 20.59302 L 144.57324 21.85402 L 146.2543 23.95526 L 147.93538 26.89708 L 149.61647 30.67953 L 151.29755 35.30228 L 152.97863 40.76573 L 154.65972 47.06981 L 156.34079 54.21419 L 158.02185 62.19926 L 159.70293 71.02518 L 161.38402 80.69107 "/>
<path transform="matrix(1,0,0,-1,9.686,174.485)" stroke-width="1.19553" stroke-linecap="butt" stroke-miterlimit="10" stroke-linejoin="miter" fill="none" stroke="#000080" d="M 100.86511 121.03752 L 101.70566 120.18806 L 102.54619 119.31992 L 103.38673 118.4318 L 104.22726 117.5223 L 105.06781 116.58974 L 105.90834 115.63228 L 106.74889 114.64784 L 107.58943 113.63402 L 108.42996 112.588 L 109.27051 111.50645 L 110.11104 110.38559 L 110.95158 109.22069 L 111.79211 108.00613 L 112.63266 106.73505 L 113.4732 105.39859 L 114.31374 103.98563 L 115.15428 102.48122 L 115.99481 100.86493 L 116.83536 99.1076 L 117.67589 97.16347 L 118.51643 94.95677 L 119.35698 92.33926 L 120.19751 88.9281 L 121.03806 80.77527 "/>
<path transform="matrix(1,0,0,-1,9.686,174.485)" stroke-width="1.19553" stroke-linecap="butt" stroke-miterlimit="10" stroke-linejoin="miter" fill="none" stroke="#000080" d="M 40.34604 80.6921 L 41.18657 72.4565 L 42.02711 69.04521 L 42.86766 66.42764 L 43.70819 64.22092 L 44.54874 62.27675 L 45.38927 60.5191 L 46.22981 58.9031 L 47.07034 57.3987 L 47.91089 55.9857 L 48.75143 54.64928 L 49.59196 53.37817 L 50.43251 52.16362 L 51.27304 50.9987 L 52.11359 49.87784 L 52.95412 48.7963 L 53.79466 47.75024 L 54.63521 46.73642 L 55.47574 45.75198 L 56.31628 44.79454 L 57.15681 43.862 L 57.99736 42.95247 L 58.83789 42.06435 L 59.67844 41.1962 L 60.51898 40.34674 "/>
<path transform="matrix(1,0,0,-1,9.686,174.485)" stroke-width="1.19553" stroke-linecap="butt" stroke-miterlimit="10" stroke-linejoin="miter" fill="none" stroke="#000080" d="M 0 23.63501 L 1.68106 24.83633 L 3.36214 26.06409 L 5.04321 27.32005 L 6.7243 28.60632 L 8.40538 29.92514 L 10.08646 31.27916 L 11.76753 32.67136 L 13.44861 34.10513 L 15.12968 35.58446 L 16.81076 37.11397 L 18.49185 38.69913 L 20.17293 40.34656 L 21.854 42.06416 L 23.53508 43.86182 L 25.21616 45.75177 L 26.89723 47.75003 L 28.57831 49.8776 L 30.2594 52.16336 L 31.94048 54.649 L 33.62155 57.39839 L 35.30263 60.51907 L 36.9837 64.22049 L 38.66478 69.04462 L 40.34586 80.57411 "/>
<symbol id="font_2_3">
<path d="M .45700003 .586 C .461 .6 .461 .602 .461 .609 C .461 .62700006 .447 .63600006 .432 .63600006 C .42200003 .63600006 .40600003 .63 .397 .615 C .395 .61 .387 .579 .38300003 .561 C .37600003 .535 .36900003 .508 .363 .48100005 L .318 .301 C .314 .286 .271 .21600002 .20500002 .21600002 C .15400002 .21600002 .143 .26000003 .143 .29700003 C .143 .34300003 .16000001 .40500004 .194 .49300004 C .21000001 .53400006 .21400002 .545 .21400002 .56500008 C .21400002 .61 .18200001 .6470001 .13200002 .6470001 C .037 .6470001 0 .50200006 0 .49300004 C 0 .48300005 .01 .48300005 .012 .48300005 C .022000002 .48300005 .023 .485 .028000003 .50100007 C .055000009 .595 .095000009 .625 .12900001 .625 C .13700001 .625 .15400002 .625 .15400002 .59300008 C .15400002 .568 .14400001 .54200008 .13700001 .523 C .097 .41700004 .079 .36 .079 .31300003 C .079 .224 .142 .194 .201 .194 C .24000003 .194 .274 .21100001 .30200003 .23900002 C .289 .187 .277 .13800001 .237 .08500001 C .21100001 .051 .17300001 .022 .127 .022 C .113000009 .022 .068 .025000006 .051000008 .06400001 C .067 .06400001 .080000009 .06400001 .094000007 .076000008 C .104 .08500001 .11400001 .098000008 .11400001 .117000009 C .11400001 .148 .087000008 .15200001 .07700001 .15200001 C .054000006 .15200001 .021 .136 .021 .087000008 C .021 .037 .065000008 0 .127 0 C .23 0 .333 .091000009 .361 .20400001 L .45700003 .586 Z "/>
</symbol>
<use xlink:href="#font_2_3" transform="matrix(9.9626,0,0,-9.9626,112.05192,37.80834)" fill="#000080"/>
<symbol id="font_1_b">
<path d="M .63100007 .19400002 C .646 .19400002 .665 .19400002 .665 .214 C .665 .23400001 .646 .23400001 .632 .23400001 L .033 .23400001 C .019000002 .23400001 0 .23400001 0 .214 C 0 .19400002 .019000002 .19400002 .034 .19400002 L .63100007 .19400002 M .632 0 C .646 0 .665 0 .665 .02000001 C .665 .040000008 .646 .040000008 .63100007 .040000008 L .034 .040000008 C .019000002 .040000008 0 .040000008 0 .02000001 C 0 0 .019000002 0 .033 0 L .632 0 Z "/>
</symbol>
<use xlink:href="#font_1_b" transform="matrix(9.9626,0,0,-9.9626,120.33091,34.44098)" fill="#000080"/>
<symbol id="font_2_1">
<path d="M .314 .605 L .4 .605 C .42000003 .605 .43 .605 .43 .625 C .43 .63600006 .42000003 .63600006 .40300004 .63600006 L .32000003 .63600006 L .34100003 .75 C .34500004 .771 .35900004 .842 .365 .8540001 C .374 .873 .39100004 .888 .41200004 .888 C .416 .888 .44200004 .888 .461 .87 C .41700004 .86600008 .407 .8310001 .407 .816 C .407 .793 .425 .781 .444 .781 C .47 .781 .49900005 .8030001 .49900005 .8410001 C .49900005 .8870001 .45300005 .9100001 .41200004 .9100001 C .37800003 .9100001 .31500004 .8920001 .28500004 .793 C .279 .7720001 .27600003 .7620001 .252 .63600006 L .18300002 .63600006 C .164 .63600006 .15300001 .63600006 .15300001 .61700007 C .15300001 .605 .162 .605 .18100001 .605 L .24700001 .605 L .172 .21000001 C .15400002 .113000009 .13700001 .022 .08500001 .022 C .081 .022 .056 .022 .037 .040000008 C .083000008 .043000014 .09200001 .07900001 .09200001 .094000007 C .09200001 .117000009 .074 .12900001 .055 .12900001 C .029 .12900001 0 .10700001 0 .069000009 C 0 .024000004 .044 0 .08500001 0 C .14 0 .18 .059 .19800002 .09700001 C .23000002 .16000001 .25300003 .28100003 .254 .28800003 L .314 .605 Z "/>
</symbol>
<use xlink:href="#font_2_1" transform="matrix(9.9626,0,0,-9.9626,130.81702,37.80834)" fill="#000080"/>
<symbol id="font_1_1">
<path d="M .23200003 .00999999 C .23200003 .012999982 .23200003 .014999986 .215 .03199999 C .09 .15799999 .058 .347 .058 .5 C .058 .674 .096 .84800007 .21900001 .97300007 C .23200003 .985 .23200003 .98700007 .23200003 .99 C .23200003 .99700006 .22800002 1 .222 1 C .21200001 1 .12200001 .93200007 .06299999 .805 C .012000002 .69500008 0 .584 0 .5 C 0 .422 .011 .301 .066 .188 C .126 .065 .21200001 0 .222 0 C .22800002 0 .23200003 .0029999912 .23200003 .00999999 Z "/>
</symbol>
<use xlink:href="#font_1_1" transform="matrix(9.9626,0,0,-9.9626,137.2253,38.256658)" fill="#000080"/>
<symbol id="font_2_2">
<path d="M .305 .31300003 C .311 .33900003 .334 .43100003 .404 .43100003 C .409 .43100003 .433 .43100003 .454 .418 C .426 .41300003 .40600003 .388 .40600003 .36400003 C .40600003 .34800003 .417 .32900004 .444 .32900004 C .46600003 .32900004 .498 .34700004 .498 .38700003 C .498 .43900005 .439 .45300005 .405 .45300005 C .347 .45300005 .312 .40000005 .3 .37700004 C .275 .44300003 .221 .45300005 .19200002 .45300005 C .08800001 .45300005 .031000002 .32400004 .031000002 .29900003 C .031000002 .28900004 .041 .28900004 .043000007 .28900004 C .051000008 .28900004 .054000006 .291 .056 .3 C .09 .40600003 .156 .43100003 .19000001 .43100003 C .209 .43100003 .244 .42200003 .244 .36400003 C .244 .33300004 .22700002 .26600004 .19000001 .126 C .17400001 .064 .13900002 .022000002 .095000009 .022000002 C .08900001 .022000002 .06600001 .022000002 .045 .035 C .07000001 .040000004 .09200001 .061 .09200001 .089 C .09200001 .116000007 .07000001 .124000009 .055000009 .124000009 C .025 .124000009 0 .098000008 0 .06600001 C 0 .020000002 .050000006 0 .094000007 0 C .16000001 0 .19600001 .07000001 .19900002 .076000008 C .21100001 .039 .24700003 0 .307 0 C .41 0 .467 .12900001 .467 .15400002 C .467 .16400002 .458 .16400002 .455 .16400002 C .446 .16400002 .444 .16000001 .442 .15300001 C .409 .046 .341 .022000002 .30900003 .022000002 C .27 .022000002 .254 .054 .254 .08800001 C .254 .11000001 .26 .13200002 .271 .17600002 L .305 .31300003 Z "/>
</symbol>
<use xlink:href="#font_2_2" transform="matrix(9.9626,0,0,-9.9626,140.4019,35.875597)" fill="#000080"/>
<symbol id="font_1_2">
<path d="M .232 .5 C .232 .578 .22100002 .699 .16600001 .81200006 C .106 .93500009 .020000004 1 .009999998 1 C .0040000008 1 0 .99600008 0 .99 C 0 .98700007 0 .985 .019000002 .967 C .117000009 .86800006 .174 .709 .174 .5 C .174 .329 .137 .153 .012999997 .026999996 C 0 .014999986 0 .012999982 0 .00999999 C 0 .003999993 .0040000008 0 .009999998 0 C .020000004 0 .11000001 .06799999 .169 .195 C .22 .305 .232 .416 .232 .5 Z "/>
</symbol>
<use xlink:href="#font_1_2" transform="matrix(9.9626,0,0,-9.9626,146.37487,38.256658)" fill="#000080"/>
<path transform="matrix(1,0,0,-1,9.686,174.485)" d="M 62.51163 40.34604 C 62.51163 41.44652 61.61954 42.3386 60.51907 42.3386 C 59.4186 42.3386 58.52652 41.44652 58.52652 40.34604 C 58.52652 39.24557 59.4186 38.35349 60.51907 38.35349 C 61.61954 38.35349 62.51163 39.24557 62.51163 40.34604 Z M 60.51907 40.34604 " fill="#ffffff"/>
<path transform="matrix(1,0,0,-1,9.686,174.485)" stroke-width=".3985" stroke-linecap="butt" stroke-miterlimit="10" stroke-linejoin="miter" fill="none" stroke="#000080" d="M 62.51163 40.34604 C 62.51163 41.44652 61.61954 42.3386 60.51907 42.3386 C 59.4186 42.3386 58.52652 41.44652 58.52652 40.34604 C 58.52652 39.24557 59.4186 38.35349 60.51907 38.35349 C 61.61954 38.35349 62.51163 39.24557 62.51163 40.34604 Z M 60.51907 40.34604 "/>
<path transform="matrix(1,0,0,-1,9.686,174.485)" d="M 1.99255 24.20763 C 1.99255 25.30809 1.10046 26.20018 0 26.20018 C -1.10046 26.20018 -1.99255 25.30809 -1.99255 24.20763 C -1.99255 23.10715 -1.10046 22.21507 0 22.21507 C 1.10046 22.21507 1.99255 23.10715 1.99255 24.20763 Z M 0 24.20763 " fill="#ffffff"/>
<path transform="matrix(1,0,0,-1,9.686,174.485)" stroke-width=".3985" stroke-linecap="butt" stroke-miterlimit="10" stroke-linejoin="miter" fill="none" stroke="#000080" d="M 1.99255 24.20763 C 1.99255 25.30809 1.10046 26.20018 0 26.20018 C -1.10046 26.20018 -1.99255 25.30809 -1.99255 24.20763 C -1.99255 23.10715 -1.10046 22.21507 0 22.21507 C 1.10046 22.21507 1.99255 23.10715 1.99255 24.20763 Z M 0 24.20763 "/>
<path transform="matrix(1,0,0,-1,9.686,174.485)" d="M 163.37676 80.6921 C 163.37676 81.79257 162.48467 82.68465 161.3842 82.68465 C 160.28372 82.68465 159.39165 81.79257 159.39165 80.6921 C 159.39165 79.59163 160.28372 78.69954 161.3842 78.69954 C 162.48467 78.69954 163.37676 79.59163 163.37676 80.6921 Z M 161.3842 80.6921 " fill="#ffffff"/>
<path transform="matrix(1,0,0,-1,9.686,174.485)" stroke-width=".3985" stroke-linecap="butt" stroke-miterlimit="10" stroke-linejoin="miter" fill="none" stroke="#000080" d="M 163.37676 80.6921 C 163.37676 81.79257 162.48467 82.68465 161.3842 82.68465 C 160.28372 82.68465 159.39165 81.79257 159.39165 80.6921 C 159.39165 79.59163 160.28372 78.69954 161.3842 78.69954 C 162.48467 78.69954 163.37676 79.59163 163.37676 80.6921 Z M 161.3842 80.6921 "/>
<path transform="matrix(1,0,0,-1,9.686,174.485)" d="M 62.51163 80.6921 C 62.51163 81.79257 61.61954 82.68465 60.51907 82.68465 C 59.4186 82.68465 58.52652 81.79257 58.52652 80.6921 C 58.52652 79.59163 59.4186 78.69954 60.51907 78.69954 C 61.61954 78.69954 62.51163 79.59163 62.51163 80.6921 Z M 60.51907 80.6921 " fill="#000080"/>
<path transform="matrix(1,0,0,-1,9.686,174.485)" stroke-width=".3985" stroke-linecap="butt" stroke-miterlimit="10" stroke-linejoin="miter" fill="none" stroke="#000080" d="M 62.51163 80.6921 C 62.51163 81.79257 61.61954 82.68465 60.51907 82.68465 C 59.4186 82.68465 58.52652 81.79257 58.52652 80.6921 C 58.52652 79.59163 59.4186 78.69954 60.51907 78.69954 C 61.61954 78.69954 62.51163 79.59163 62.51163 80.6921 Z M 60.51907 80.6921 "/>
<use xlink:href="#font_2_2" transform="matrix(9.9626,0,0,-9.9626,174.90291,96.03559)"/>
<use xlink:href="#font_2_3" transform="matrix(9.9626,0,0,-9.9626,88.06291,9.652334)"/>
</svg>
