<?xml version="1.0" encoding="UTF-8" standalone="no"?>
<!DOCTYPE svg PUBLIC "-//W3C//DTD SVG 1.1//EN" "http://www.w3.org/Graphics/SVG/1.1/DTD/svg11.dtd">
<svg xmlns="http://www.w3.org/2000/svg" xmlns:xlink="http://www.w3.org/1999/xlink" version="1.1" width="213pt" height="190.663pt" viewBox="0 0 213 190.663">
<clipPath id="cp0">
<path transform="matrix(1,0,0,-1,6.015,174.631)" d="M 0 0 L 194.27368 0 L 194.27368 161.39286 L 0 161.39286 Z "/>
</clipPath>
<g clip-path="url(#cp0)">
<path transform="matrix(1,0,0,-1,6.015,174.631)" d="M 19.42737 161.39286 L 25.90312 161.39286 L 32.37889 161.39286 L 38.85464 161.39286 L 45.33041 161.39286 L 51.80617 161.39286 L 58.28194 161.39286 L 64.75769 161.39286 L 71.23346 161.39286 L 77.70921 161.39286 L 84.18498 161.39286 L 90.66074 161.39286 L 97.1365 161.39286 L 103.61226 161.39286 L 110.08803 161.39286 L 116.56378 161.39286 L 123.03955 161.39286 L 129.5153 161.39286 L 135.99108 161.39286 L 142.46683 161.39286 L 148.9426 161.39286 L 155.41835 161.39286 L 161.89412 161.39286 L 168.36988 161.39286 L 174.84564 161.39286 L 174.84564 0 L 19.42737 0 Z " fill="#cccce6"/>
<path transform="matrix(1,0,0,-1,6.015,174.631)" stroke-width="1.19553" stroke-linecap="butt" stroke-dasharray="2.98883,2.98883" stroke-miterlimit="10" stroke-linejoin="miter" fill="none" stroke="#cc9999" d="M 19.42737 121.82558 L 174.84632 28.11359 "/>
<path transform="matrix(1,0,0,-1,6.015,174.631)" stroke-width=".3985" stroke-linecap="butt" stroke-dasharray="2.98883,2.98883" stroke-miterlimit="10" stroke-linejoin="miter" fill="none" stroke="#000000" d="M 59.83629 0 L 59.83629 124.42868 "/>
<path transform="matrix(1,0,0,-1,6.015,174.631)" stroke-width="1.19553" stroke-linecap="butt" stroke-miterlimit="10" stroke-linejoin="miter" fill="none" stroke="#000080" d="M 19.42737 121.90001 C 19.42737 121.90001 24.10612 125.01685 25.90312 125.9593 C 27.7001 126.90175 30.5819 128.12863 32.37889 128.69257 C 34.17587 129.2565 37.05765 129.85436 38.85464 130.0238 C 40.65163 130.19327 43.53342 130.14337 45.33041 129.91396 C 47.1274 129.68454 50.00917 128.99227 51.80617 128.37032 C 53.60315 127.74837 56.48494 126.42874 58.28194 125.4314 C 60.07892 124.43405 62.9607 122.52716 64.75769 121.18208 C 66.55467 119.83699 69.43646 117.39246 71.23346 115.7369 C 73.03044 114.08134 75.91222 111.16988 77.70921 109.24994 C 79.5062 107.33 82.38799 104.03064 84.18498 101.89928 C 85.98196 99.76791 88.86374 96.17218 90.66074 93.88846 C 92.45773 91.60474 95.33951 87.8123 97.1365 85.4398 C 98.9335 83.0673 101.81526 79.1849 103.61226 76.78915 C 105.40926 74.3934 108.29103 70.52548 110.08803 68.17285 C 111.88503 65.82022 114.76678 62.07736 116.56378 59.83302 C 118.36078 57.58867 121.24255 54.07092 123.03955 51.99713 C 124.83655 49.92334 127.7183 46.73221 129.5153 44.88646 C 131.3123 43.04071 134.19408 40.26076 135.99108 38.6942 C 137.78807 37.12764 140.66983 34.83963 142.46683 33.59575 C 144.26383 32.35185 147.1456 30.61612 148.9426 29.72906 C 150.7396 28.84203 153.62136 27.70763 155.41835 27.20248 C 157.21535 26.69736 160.09712 26.198 161.89412 26.08836 C 163.69112 25.97873 166.57288 26.12312 168.36988 26.4122 C 170.16687 26.70128 174.84564 28.17189 174.84564 28.17189 "/>
<path transform="matrix(1,0,0,-1,6.015,174.631)" stroke-width="1.19553" stroke-linecap="butt" stroke-miterlimit="10" stroke-linejoin="miter" fill="none" stroke="#800000" d="M 0 160.50778 L 8.09471 155.62697 L 16.18944 150.74614 L 24.28415 145.86531 L 32.37889 140.9845 L 40.4736 136.10367 L 48.56833 131.22284 L 56.66304 126.34203 L 64.75778 121.4612 L 72.8525 116.58038 L 80.94722 111.69955 L 89.04193 106.81873 L 97.13667 101.9379 L 105.23138 97.05707 L 113.32611 92.17624 L 121.42082 87.29544 L 129.51557 82.41461 L 137.61028 77.5338 L 145.705 72.65297 L 153.79972 67.77211 L 161.89446 62.89131 L 169.98917 58.01048 L 178.0839 53.12965 L 186.1786 48.24884 L 194.27335 43.36801 "/>
</g>
<path transform="matrix(1,0,0,-1,6.015,174.631)" stroke-width=".19925" stroke-linecap="butt" stroke-miterlimit="10" stroke-linejoin="miter" fill="none" stroke="#929292" d="M 19.42737 -2.12611 L 19.42737 2.12611 M 59.83629 -2.12611 L 59.83629 2.12611 M 174.84632 -2.12611 L 174.84632 2.12611 "/>
<path transform="matrix(1,0,0,-1,6.015,174.631)" stroke-width=".3985" stroke-linecap="butt" stroke-miterlimit="10" stroke-linejoin="miter" fill="none" stroke="#000000" d="M 0 0 L 192.28116 0 "/>
<path transform="matrix(1,0,0,-1,198.29616,174.631)" d="M 1.99252 0 L -1.19551 1.59401 L 0 0 L -1.19551 -1.59401 "/>
<path transform="matrix(1,0,0,-1,6.015,174.631)" stroke-width=".3985" stroke-linecap="butt" stroke-miterlimit="10" stroke-linejoin="miter" fill="none" stroke="#000000" d="M 0 0 L 0 159.40033 "/>
<path transform="matrix(0,-1,-1,-0,6.015,15.230667)" d="M 1.99252 0 L -1.19551 1.59401 L 0 0 L -1.19551 -1.59401 "/>
<symbol id="font_1_1">
<path d="M .33300004 .38900004 C .31500004 .42600004 .286 .45300005 .24100001 .45300005 C .124 .45300005 0 .30600003 0 .16000001 C 0 .06600001 .055000005 0 .133 0 C .153 0 .20300001 .0040000008 .263 .075 C .27100004 .033000005 .30600003 0 .35400004 0 C .38900004 0 .41200004 .023000002 .42800004 .055000005 C .44500003 .091000009 .45800004 .15200001 .45800004 .15400002 C .45800004 .16400002 .44900004 .16400002 .44600005 .16400002 C .43600003 .16400002 .43500004 .16000001 .43200005 .14600002 C .41500003 .081 .397 .022000002 .35600005 .022000002 C .32900004 .022000002 .32600004 .048 .32600004 .068 C .32600004 .09 .32800005 .098000008 .33900003 .14200002 C .35000003 .18400002 .35200004 .19400002 .36100004 .23200003 L .397 .37200005 C .40400005 .40000005 .40400005 .40200005 .40400005 .40600003 C .40400005 .42300005 .39200003 .43300004 .37500004 .43300004 C .35100005 .43300004 .33600004 .411 .33300004 .38900004 M .26800005 .13000001 C .263 .112 .263 .11000001 .24800001 .093 C .20400001 .038000004 .163 .022000002 .135 .022000002 C .08499999 .022000002 .07100001 .077 .07100001 .116000007 C .07100001 .16600001 .103 .28900004 .126 .335 C .157 .39400003 .202 .43100003 .242 .43100003 C .307 .43100003 .32100005 .34900005 .32100005 .34300003 C .32100005 .337 .31900005 .33100004 .31800003 .32600004 L .26800005 .13000001 Z "/>
</symbol>
<use xlink:href="#font_1_1" transform="matrix(9.9626,0,0,-9.9626,23.207505,184.74959)"/>
<symbol id="font_1_3">
<path d="M .35500003 .39100004 C .33900003 .39100004 .32500003 .39100004 .31100003 .37700004 C .29500003 .36200003 .293 .34500004 .293 .33800004 C .293 .314 .31100003 .30300004 .33 .30300004 C .359 .30300004 .386 .32700003 .386 .367 C .386 .41600005 .33900003 .45300005 .268 .45300005 C .13300002 .45300005 0 .31000004 0 .16900002 C 0 .079 .058000007 0 .162 0 C .305 0 .389 .106000009 .389 .11800001 C .389 .124000009 .38300003 .13100001 .377 .13100001 C .372 .13100001 .37 .12900001 .36400003 .12100001 C .285 .022000002 .176 .022000002 .164 .022000002 C .101 .022000002 .074 .071 .074 .13100001 C .074 .17200002 .094000007 .26900003 .12800002 .33100004 C .15900001 .388 .21400002 .43100003 .269 .43100003 C .303 .43100003 .34100003 .418 .35500003 .39100004 Z "/>
</symbol>
<use xlink:href="#font_1_3" transform="matrix(9.9626,0,0,-9.9626,64.10347,184.74959)"/>
<symbol id="font_1_2">
<path d="M .192 .694 C .192 .695 .192 .705 .179 .705 C .156 .705 .083000008 .697 .057 .695 C .049 .694 .038 .693 .038 .675 C .038 .663 .047000003 .663 .062000004 .663 C .11 .663 .112 .656 .112 .646 C .112 .639 .103 .605 .098000008 .584 L .015999999 .25800003 C .0040000008 .20800002 0 .19200002 0 .15700002 C 0 .062000004 .053 0 .127 0 C .24500002 0 .36800004 .14900002 .36800004 .293 C .36800004 .38400004 .31500004 .45300005 .235 .45300005 C .18900001 .45300005 .148 .42400003 .118 .39300005 L .192 .694 M .098000008 .316 C .104 .33800004 .104 .34000004 .113000009 .351 C .162 .41600005 .207 .43100003 .233 .43100003 C .26900003 .43100003 .29600004 .40100003 .29600004 .337 C .29600004 .27800004 .263 .16300002 .24500002 .12500002 C .212 .058000003 .16600001 .022000002 .127 .022000002 C .092999998 .022000002 .060000007 .049000004 .060000007 .123 C .060000007 .14200002 .060000007 .16100002 .076000008 .22400002 L .098000008 .316 Z "/>
</symbol>
<use xlink:href="#font_1_2" transform="matrix(9.9626,0,0,-9.9626,179.18924,187.37859)"/>
<path transform="matrix(1,0,0,-1,6.015,174.631)" d="M 21.41992 121.82558 C 21.41992 122.92604 20.52783 123.81813 19.42737 123.81813 C 18.32689 123.81813 17.43481 122.92604 17.43481 121.82558 C 17.43481 120.7251 18.32689 119.83302 19.42737 119.83302 C 20.52783 119.83302 21.41992 120.7251 21.41992 121.82558 Z M 19.42737 121.82558 " fill="#000080"/>
<path transform="matrix(1,0,0,-1,6.015,174.631)" stroke-width=".3985" stroke-linecap="butt" stroke-miterlimit="10" stroke-linejoin="miter" fill="none" stroke="#000080" d="M 21.41992 121.82558 C 21.41992 122.92604 20.52783 123.81813 19.42737 123.81813 C 18.32689 123.81813 17.43481 122.92604 17.43481 121.82558 C 17.43481 120.7251 18.32689 119.83302 19.42737 119.83302 C 20.52783 119.83302 21.41992 120.7251 21.41992 121.82558 Z M 19.42737 121.82558 "/>
<path transform="matrix(1,0,0,-1,6.015,174.631)" d="M 176.83887 28.11359 C 176.83887 29.21407 175.94678 30.10614 174.84632 30.10614 C 173.74584 30.10614 172.85376 29.21407 172.85376 28.11359 C 172.85376 27.01312 173.74584 26.12103 174.84632 26.12103 C 175.94678 26.12103 176.83887 27.01312 176.83887 28.11359 Z M 174.84632 28.11359 " fill="#000080"/>
<path transform="matrix(1,0,0,-1,6.015,174.631)" stroke-width=".3985" stroke-linecap="butt" stroke-miterlimit="10" stroke-linejoin="miter" fill="none" stroke="#000080" d="M 176.83887 28.11359 C 176.83887 29.21407 175.94678 30.10614 174.84632 30.10614 C 173.74584 30.10614 172.85376 29.21407 172.85376 28.11359 C 172.85376 27.01312 173.74584 26.12103 174.84632 26.12103 C 175.94678 26.12103 176.83887 27.01312 176.83887 28.11359 Z M 174.84632 28.11359 "/>
<path transform="matrix(1,0,0,-1,6.015,174.631)" d="M 61.82884 124.42868 C 61.82884 125.52916 60.93675 126.42123 59.83629 126.42123 C 58.73581 126.42123 57.84373 125.52916 57.84373 124.42868 C 57.84373 123.32822 58.73581 122.43613 59.83629 122.43613 C 60.93675 122.43613 61.82884 123.32822 61.82884 124.42868 Z M 59.83629 124.42868 " fill="#800080"/>
<path transform="matrix(1,0,0,-1,6.015,174.631)" stroke-width=".3985" stroke-linecap="butt" stroke-miterlimit="10" stroke-linejoin="miter" fill="none" stroke="#800080" d="M 61.82884 124.42868 C 61.82884 125.52916 60.93675 126.42123 59.83629 126.42123 C 58.73581 126.42123 57.84373 125.52916 57.84373 124.42868 C 57.84373 123.32822 58.73581 122.43613 59.83629 122.43613 C 60.93675 122.43613 61.82884 123.32822 61.82884 124.42868 Z M 59.83629 124.42868 "/>
<symbol id="font_1_4">
<path d="M .305 .31300003 C .311 .33900003 .334 .43100003 .404 .43100003 C .409 .43100003 .433 .43100003 .454 .418 C .426 .41300003 .40600003 .388 .40600003 .36400003 C .40600003 .34800003 .417 .32900004 .444 .32900004 C .46600003 .32900004 .498 .34700004 .498 .38700003 C .498 .43900005 .439 .45300005 .405 .45300005 C .347 .45300005 .312 .40000005 .3 .37700004 C .275 .44300003 .221 .45300005 .19200002 .45300005 C .08800001 .45300005 .031000002 .32400004 .031000002 .29900003 C .031000002 .28900004 .041 .28900004 .043000007 .28900004 C .051000008 .28900004 .054000006 .291 .056 .3 C .09 .40600003 .156 .43100003 .19000001 .43100003 C .209 .43100003 .244 .42200003 .244 .36400003 C .244 .33300004 .22700002 .26600004 .19000001 .126 C .17400001 .064 .13900002 .022000002 .095000009 .022000002 C .08900001 .022000002 .06600001 .022000002 .045 .035 C .07000001 .040000004 .09200001 .061 .09200001 .089 C .09200001 .116000007 .07000001 .124000009 .055000009 .124000009 C .025 .124000009 0 .098000008 0 .06600001 C 0 .020000002 .050000006 0 .094000007 0 C .16000001 0 .19600001 .07000001 .19900002 .076000008 C .21100001 .039 .24700003 0 .307 0 C .41 0 .467 .12900001 .467 .15400002 C .467 .16400002 .458 .16400002 .455 .16400002 C .446 .16400002 .444 .16000001 .442 .15300001 C .409 .046 .341 .022000002 .30900003 .022000002 C .27 .022000002 .254 .054 .254 .08800001 C .254 .11000001 .26 .13200002 .271 .17600002 L .305 .31300003 Z "/>
</symbol>
<use xlink:href="#font_1_4" transform="matrix(9.9626,0,0,-9.9626,204.1999,176.88459)"/>
<symbol id="font_1_5">
<path d="M .45700003 .586 C .461 .6 .461 .602 .461 .609 C .461 .62700006 .447 .63600006 .432 .63600006 C .42200003 .63600006 .40600003 .63 .397 .615 C .395 .61 .387 .579 .38300003 .561 C .37600003 .535 .36900003 .508 .363 .48100005 L .318 .301 C .314 .286 .271 .21600002 .20500002 .21600002 C .15400002 .21600002 .143 .26000003 .143 .29700003 C .143 .34300003 .16000001 .40500004 .194 .49300004 C .21000001 .53400006 .21400002 .545 .21400002 .56500008 C .21400002 .61 .18200001 .6470001 .13200002 .6470001 C .037 .6470001 0 .50200006 0 .49300004 C 0 .48300005 .01 .48300005 .012 .48300005 C .022000002 .48300005 .023 .485 .028000003 .50100007 C .055000009 .595 .095000009 .625 .12900001 .625 C .13700001 .625 .15400002 .625 .15400002 .59300008 C .15400002 .568 .14400001 .54200008 .13700001 .523 C .097 .41700004 .079 .36 .079 .31300003 C .079 .224 .142 .194 .201 .194 C .24000003 .194 .274 .21100001 .30200003 .23900002 C .289 .187 .277 .13800001 .237 .08500001 C .21100001 .051 .17300001 .022 .127 .022 C .113000009 .022 .068 .025000006 .051000008 .06400001 C .067 .06400001 .080000009 .06400001 .094000007 .076000008 C .104 .08500001 .11400001 .098000008 .11400001 .117000009 C .11400001 .148 .087000008 .15200001 .07700001 .15200001 C .054000006 .15200001 .021 .136 .021 .087000008 C .021 .037 .065000008 0 .127 0 C .23 0 .333 .091000009 .361 .20400001 L .45700003 .586 Z "/>
</symbol>
<use xlink:href="#font_1_5" transform="matrix(9.9626,0,0,-9.9626,3.6829153,9.726324)"/>
</svg>
