<?xml version="1.0" encoding="UTF-8" standalone="no"?>
<!DOCTYPE svg PUBLIC "-//W3C//DTD SVG 1.1//EN" "http://www.w3.org/Graphics/SVG/1.1/DTD/svg11.dtd">
<svg xmlns="http://www.w3.org/2000/svg" xmlns:xlink="http://www.w3.org/1999/xlink" version="1.1" width="135.165pt" height="110.414pt" viewBox="0 0 135.165 110.414">
<clipPath id="cp0">
<path transform="matrix(1,0,0,-1,0,110.414)" d="M 0 0 L 135.16687 0 L 135.16687 110.41501 L 0 110.41501 Z "/>
</clipPath>
<g clip-path="url(#cp0)">
<path transform="matrix(1,0,0,-1,0,110.414)" d="M 127.57178 70.98106 L 126.42928 72.8739 L 125.25461 74.75095 L 124.04778 76.61223 L 122.80873 78.45773 L 121.53754 80.2717 L 120.23413 82.05411 L 118.89856 83.83653 L 117.53079 85.57162 L 116.13086 87.30672 L 114.69873 88.99449 L 113.25052 90.66647 L 111.75403 92.32271 L 110.24144 93.94739 L 108.69667 95.54051 L 107.11974 97.11787 L 84.36664 74.81404 L 85.5413 73.63101 L 86.69989 72.43224 L 87.84236 71.21767 L 88.95267 69.97156 L 90.04688 68.72545 L 91.12498 67.44778 L 92.17093 66.15436 L 93.20076 64.84514 L 94.19841 63.52017 L 95.18 62.16364 L 96.12936 60.80711 L 97.06267 59.4348 L 97.96379 58.04674 L 98.8488 56.62712 L 99.70164 55.2075 L 127.57178 70.98106 " fill="#cccce6"/>
<path transform="matrix(1,0,0,-1,0,110.414)" stroke-width="1" stroke-linecap="butt" stroke-miterlimit="10" stroke-linejoin="miter" fill="none" stroke="#cccce6" d="M 127.57178 70.98106 L 126.42928 72.8739 L 125.25461 74.75095 L 124.04778 76.61223 L 122.80873 78.45773 L 121.53754 80.2717 L 120.23413 82.05411 L 118.89856 83.83653 L 117.53079 85.57162 L 116.13086 87.30672 L 114.69873 88.99449 L 113.25052 90.66647 L 111.75403 92.32271 L 110.24144 93.94739 L 108.69667 95.54051 L 107.11974 97.11787 L 84.36664 74.81404 L 85.5413 73.63101 L 86.69989 72.43224 L 87.84236 71.21767 L 88.95267 69.97156 L 90.04688 68.72545 L 91.12498 67.44778 L 92.17093 66.15436 L 93.20076 64.84514 L 94.19841 63.52017 L 95.18 62.16364 L 96.12936 60.80711 L 97.06267 59.4348 L 97.96379 58.04674 L 98.8488 56.62712 L 99.70164 55.2075 L 127.57178 70.98106 "/>
<path transform="matrix(1,0,0,-1,0,110.414)" stroke-width="1" stroke-linecap="butt" stroke-miterlimit="10" stroke-linejoin="miter" fill="none" stroke="#000080" d="M 127.57562 70.98106 C 127.57562 70.98106 127.14778 71.68929 126.98347 71.96153 C 126.81915 72.2338 126.5574 72.67242 126.39131 72.94328 C 126.2252 73.21413 125.9547 73.64478 125.78627 73.9137 C 125.61784 74.18262 125.34885 74.6137 125.17738 74.88156 C 125.00592 75.14944 124.72443 75.57774 124.55048 75.84438 C 124.37651 76.11102 124.09966 76.5385 123.92355 76.80339 C 123.74745 77.0683 123.45961 77.49065 123.28117 77.75362 C 123.10275 78.01657 122.8181 78.43735 122.63753 78.69875 C 122.45695 78.96014 122.16348 79.37778 121.9797 79.63759 C 121.79593 79.89742 121.49864 80.31299 121.31291 80.57141 C 121.12717 80.82982 120.82901 81.24312 120.64093 81.50014 C 120.45285 81.75716 120.14775 82.16838 119.95737 82.42383 C 119.76697 82.67926 119.46118 83.08789 119.26865 83.34123 C 119.07611 83.59457 118.76486 83.99855 118.56964 84.2498 C 118.37444 84.50104 118.05954 84.9022 117.86165 85.15204 C 117.66374 85.40187 117.34335 85.80225 117.14331 86.0505 C 116.94327 86.29877 116.62184 86.69522 116.41985 86.94139 C 116.21783 87.18755 115.89151 87.5803 115.68736 87.82472 C 115.48322 88.06914 115.15494 88.46016 114.94847 88.70299 C 114.74202 88.94583 114.40788 89.3337 114.19926 89.57495 C 113.99065 89.8162 113.65602 90.20271 113.4449 90.44186 C 113.2338 90.68103 112.89091 91.06161 112.67766 91.29868 C 112.46442 91.53574 112.12308 91.91533 111.90787 92.15047 C 111.69266 92.38559 111.34381 92.75986 111.12645 92.9934 C 110.9091 93.22694 110.56088 93.60217 110.3412 93.8338 C 110.1215 94.06544 109.76472 94.43352 109.54308 94.66286 C 109.32143 94.89221 108.96745 95.25963 108.74367 95.4869 C 108.51988 95.71414 108.15584 96.07513 107.93008 96.3008 C 107.70433 96.52647 107.11652 97.11345 107.11652 97.11345 "/>
<path transform="matrix(1,0,0,-1,0,110.414)" stroke-width="1" stroke-linecap="butt" stroke-miterlimit="10" stroke-linejoin="miter" fill="none" stroke="#000080" d="M 127.57562 70.98106 C 127.57562 70.98106 127.14778 71.68929 126.98347 71.96153 C 126.81915 72.2338 126.5574 72.67242 126.39131 72.94328 C 126.2252 73.21413 125.9547 73.64478 125.78627 73.9137 C 125.61784 74.18262 125.34885 74.6137 125.17738 74.88156 C 125.00592 75.14944 124.72443 75.57774 124.55048 75.84438 C 124.37651 76.11102 124.09966 76.5385 123.92355 76.80339 C 123.74745 77.0683 123.45961 77.49065 123.28117 77.75362 C 123.10275 78.01657 122.8181 78.43735 122.63753 78.69875 C 122.45695 78.96014 122.16348 79.37778 121.9797 79.63759 C 121.79593 79.89742 121.49864 80.31299 121.31291 80.57141 C 121.12717 80.82982 120.82901 81.24312 120.64093 81.50014 C 120.45285 81.75716 120.14775 82.16838 119.95737 82.42383 C 119.76697 82.67926 119.46118 83.08789 119.26865 83.34123 C 119.07611 83.59457 118.76486 83.99855 118.56964 84.2498 C 118.37444 84.50104 118.05954 84.9022 117.86165 85.15204 C 117.66374 85.40187 117.34335 85.80225 117.14331 86.0505 C 116.94327 86.29877 116.62184 86.69522 116.41985 86.94139 C 116.21783 87.18755 115.89151 87.5803 115.68736 87.82472 C 115.48322 88.06914 115.15494 88.46016 114.94847 88.70299 C 114.74202 88.94583 114.40788 89.3337 114.19926 89.57495 C 113.99065 89.8162 113.65602 90.20271 113.4449 90.44186 C 113.2338 90.68103 112.89091 91.06161 112.67766 91.29868 C 112.46442 91.53574 112.12308 91.91533 111.90787 92.15047 C 111.69266 92.38559 111.34381 92.75986 111.12645 92.9934 C 110.9091 93.22694 110.56088 93.60217 110.3412 93.8338 C 110.1215 94.06544 109.76472 94.43352 109.54308 94.66286 C 109.32143 94.89221 108.96745 95.25963 108.74367 95.4869 C 108.51988 95.71414 108.15584 96.07513 107.93008 96.3008 C 107.70433 96.52647 107.11652 97.11345 107.11652 97.11345 "/>
<path transform="matrix(1,0,0,-1,0,110.414)" stroke-width="1" stroke-linecap="butt" stroke-miterlimit="10" stroke-linejoin="miter" fill="none" stroke="#000080" d="M 99.70454 55.2075 C 99.70454 55.2075 99.38365 55.73866 99.26042 55.94284 C 99.1372 56.14702 98.94089 56.47603 98.8163 56.67915 C 98.69173 56.88228 98.48883 57.20528 98.36252 57.40697 C 98.2362 57.60864 98.03445 57.93196 97.90585 58.13286 C 97.77727 58.33376 97.56613 58.65498 97.43567 58.85497 C 97.3052 59.05495 97.09756 59.37558 96.9655 59.57425 C 96.83342 59.77292 96.61754 60.08968 96.4837 60.28691 C 96.34988 60.48413 96.1364 60.79971 96.00098 60.99576 C 95.86555 61.1918 95.64545 61.50504 95.50761 61.69989 C 95.36977 61.89476 95.1468 62.20642 95.00749 62.40024 C 94.86818 62.59404 94.64456 62.90404 94.50351 63.09679 C 94.36247 63.28955 94.13364 63.59799 93.99084 63.78957 C 93.84805 63.98114 93.61871 64.28761 93.47432 64.47762 C 93.32991 64.66763 93.09647 64.9706 92.95006 65.15903 C 92.80365 65.34746 92.56747 65.64833 92.41905 65.83572 C 92.27063 66.0231 92.03033 66.32338 91.88031 66.50958 C 91.73029 66.69577 91.48921 66.99312 91.3377 67.17773 C 91.1862 67.36235 90.94145 67.65694 90.78835 67.84024 C 90.63525 68.02354 90.38902 68.31682 90.23418 68.49893 C 90.07933 68.68106 89.82872 68.97197 89.67227 69.15291 C 89.51581 69.33385 89.26482 69.62372 89.10649 69.80309 C 88.94817 69.98245 88.69101 70.26791 88.53107 70.44571 C 88.37112 70.62349 88.11513 70.90819 87.95372 71.08453 C 87.7923 71.26088 87.53069 71.54156 87.36766 71.71674 C 87.20464 71.8919 86.94348 72.17334 86.77872 72.34706 C 86.61397 72.52077 86.34636 72.79684 86.18013 72.96886 C 86.0139 73.14085 85.74841 73.41643 85.58057 73.58685 C 85.41272 73.75728 85.13971 74.02803 84.97038 74.1973 C 84.80107 74.36655 84.36021 74.80678 84.36021 74.80678 "/>
<path transform="matrix(1,0,0,-1,0,110.414)" stroke-width="1" stroke-linecap="butt" stroke-miterlimit="10" stroke-linejoin="miter" fill="none" stroke="#808080" d="M 16.0913 7.88678 C 16.0913 7.88678 99.70454 55.2075 97.4445 53.92847 "/>
<path transform="matrix(.87251,-.49379,-.49379,-.87251,97.4445,56.48553)" d="M 2.59026 0 L -1.55415 2.0722 L 0 0 L -1.55415 -2.0722 " fill="#808080"/>
<path transform="matrix(1,0,0,-1,0,110.414)" stroke-width="1" stroke-linecap="butt" stroke-miterlimit="10" stroke-linejoin="miter" fill="none" stroke="#808080" d="M 16.0913 7.88678 L 84.36021 74.80774 "/>
<path transform="matrix(1,0,0,-1,0,110.414)" stroke-width="1" stroke-linecap="butt" stroke-miterlimit="10" stroke-linejoin="miter" fill="none" stroke="#000080" d="M 99.70454 55.2075 L 127.57562 70.98106 "/>
<path transform="matrix(1,0,0,-1,0,110.414)" stroke-width="1" stroke-linecap="butt" stroke-miterlimit="10" stroke-linejoin="miter" fill="none" stroke="#000080" d="M 84.36021 74.80774 L 107.11652 97.11473 "/>
<symbol id="font_1_3">
<path d="M .484 .09200001 C .484 .115 .484 .120000008 .47 .120000008 C .409 .12100001 .31 .12900001 .22000002 .17300001 C .112 .22700002 .071 .29000003 .046000005 .32900004 C .043 .33400003 .037 .33400003 .024 .33400003 C .0009999983 .33400003 0 .333 0 .30800004 L 0 .29200004 C .136 .047000003 .361 0 .463 0 C .484 0 .484 .001 .484 .028 L .484 .09200001 Z "/>
</symbol>
<use xlink:href="#font_1_3" transform="matrix(8.62791,-4.9813,-4.9813,-8.62791,21.31493,107.52102)"/>
<path transform="matrix(.86603,-.5,-.5,-.86603,25.405278,105.15947)" d="M 0 0 L 36.862 0 L 36.862 1.195 L 0 1.195 Z "/>
<symbol id="font_1_2">
<path d="M .48400004 .04200001 C .34800003 .28700004 .123 .33400003 .021000002 .33400003 C 0 .33400003 0 .333 0 .30600003 L 0 .24200002 C 0 .21900001 0 .21400002 .014 .21400002 C .075 .21300002 .17400001 .20500002 .264 .16100002 C .372 .10700001 .41300003 .044000016 .43800003 .00500001 C .441 0 .447 0 .46 0 C .483 0 .48400004 .001000002 .48400004 .026000008 L .48400004 .04200001 Z "/>
</symbol>
<symbol id="font_1_1">
<path d="M .484 .30600003 C .484 .333 .484 .33400003 .463 .33400003 C .361 .33400003 .136 .286 0 .04200001 L 0 .026000008 C 0 .001000002 .0009999983 0 .024 0 C .043 0 .044 .001000002 .049000004 .008000001 C .13100001 .13900002 .269 .21000003 .472 .21400002 C .484 .21400002 .484 .22100002 .484 .24200002 L .484 .30600003 Z "/>
</symbol>
<use xlink:href="#font_1_2" transform="matrix(8.62791,-4.9813,-4.9813,-8.62791,58.307725,88.62516)"/>
<use xlink:href="#font_1_1" transform="matrix(8.62791,-4.9813,-4.9813,-8.62791,62.069498,86.45331)"/>
<path transform="matrix(.86603,-.5,-.5,-.86603,65.0937,82.24547)" d="M 0 0 L 36.862 0 L 36.862 1.195 L 0 1.195 Z "/>
<symbol id="font_1_4">
<path d="M .48400004 .30800004 C .48400004 .333 .483 .33400003 .46 .33400003 C .441 .33400003 .44 .333 .435 .326 C .35300002 .19500001 .21500002 .124000009 .012000001 .120000008 C 0 .120000008 0 .113000009 0 .09200001 L 0 .028 C 0 .001 0 0 .021000002 0 C .123 0 .34800003 .048 .48400004 .29200004 L .48400004 .30800004 Z "/>
</symbol>
<use xlink:href="#font_1_4" transform="matrix(8.62791,-4.9813,-4.9813,-8.62791,96.930149,63.864786)"/>
<symbol id="font_2_3">
<path d="M .18800001 .21200001 C .18900001 .21800001 .212 .308 .214 .313 C .216 .321 .24500002 .37100003 .277 .395 C .28800003 .403 .31500004 .423 .35800005 .423 C .36800004 .423 .39300005 .42200003 .41300003 .409 C .38100005 .4 .36900003 .372 .36900003 .354 C .36900003 .33200003 .38600005 .317 .40900005 .317 C .43200005 .317 .46500004 .336 .46500004 .37800003 C .46500004 .43 .41000004 .451 .35900004 .451 C .307 .451 .26200003 .43 .21800001 .38 C .2 .441 .139 .451 .114999998 .451 C .077999997 .451 .053 .428 .037000006 .4 C .014000002 .361 0 .303 0 .298 C 0 .285 .014000002 .285 .017 .285 C .031 .285 .032 .28800003 .039 .315 C .054 .37600003 .073 .423 .112 .423 C .138 .423 .145 .40100003 .145 .374 C .145 .35500003 .136 .31800003 .12900001 .291 C .12200001 .264 .112 .22300002 .10700001 .20100002 L .075 .073 C .07100001 .060000004 .065 .035 .065 .032 C .065 .010000001 .083000008 0 .09900001 0 C .11400001 0 .134 .009000001 .142 .029000003 C .14400001 .035 .155 .079 .161 .104 L .18800001 .21200001 Z "/>
</symbol>
<use xlink:href="#font_2_3" transform="matrix(6.03952,-3.4869,-3.4869,-6.03952,64.31819,93.1268)"/>
<use xlink:href="#font_1_3" transform="matrix(8.62791,-4.9813,-4.9813,-8.62791,103.67193,59.66903)"/>
<path transform="matrix(.86603,-.5,-.5,-.86603,107.76141,57.307985)" d="M 0 0 L 5.977 0 L 5.977 1.195 L 0 1.195 Z "/>
<use xlink:href="#font_1_2" transform="matrix(8.62791,-4.9813,-4.9813,-8.62791,113.91739,56.21566)"/>
<use xlink:href="#font_1_1" transform="matrix(8.62791,-4.9813,-4.9813,-8.62791,117.67916,54.04382)"/>
<path transform="matrix(.86603,-.5,-.5,-.86603,120.703357,49.835985)" d="M 0 0 L 5.977 0 L 5.977 1.195 L 0 1.195 Z "/>
<use xlink:href="#font_1_4" transform="matrix(8.62791,-4.9813,-4.9813,-8.62791,125.79334,46.897287)"/>
<symbol id="font_2_2">
<path d="M .51000007 .674 C .51100006 .676 .51400008 .689 .51400008 .69 C .51400008 .69500008 .51000007 .704 .49800004 .704 C .47800005 .704 .39500005 .69600006 .37 .694 C .362 .693 .348 .69200006 .348 .671 C .348 .657 .362 .657 .374 .657 C .422 .657 .422 .65000006 .422 .642 C .422 .635 .42000003 .629 .41800005 .62 L .361 .39200003 C .34000004 .425 .306 .451 .25800003 .451 C .13000001 .451 0 .31 0 .16600001 C 0 .069000009 .065 0 .15100001 0 C .205 0 .25300003 .031000004 .29299999 .07 C .31200005 .010000001 .37 0 .39600004 0 C .43200005 0 .45700003 .022 .47500003 .053000004 C .49700005 .092 .51000007 .14900002 .51000007 .15300001 C .51000007 .16600001 .49700005 .16600001 .49400003 .16600001 C .48000003 .16600001 .47900004 .16200002 .47200007 .135 C .46000005 .087000008 .44100005 .028 .399 .028 C .37300004 .028 .366 .050000006 .366 .077 C .366 .096 .36800004 .105000007 .371 .118 L .51000007 .674 M .297 .135 C .29000003 .107 .268 .087000008 .246 .068 C .237 .060000004 .19700001 .028 .154 .028 C .117 .028 .081 .054000006 .081 .125 C .081 .17800002 .11 .28800003 .133 .328 C .179 .40800003 .23 .423 .25800003 .423 C .328 .423 .347 .347 .347 .336 C .347 .33200003 .34500004 .32500003 .34400005 .322 L .297 .135 Z "/>
</symbol>
<use xlink:href="#font_2_2" transform="matrix(6.03952,-3.4869,-3.4869,-6.03952,118.47927,62.161027)"/>
<use xlink:href="#font_2_3" transform="matrix(6.03952,-3.4869,-3.4869,-6.03952,121.988239,60.135137)"/>
<path transform="matrix(1,0,0,-1,0,110.414)" stroke-width="1" stroke-linecap="butt" stroke-miterlimit="10" stroke-linejoin="miter" fill="none" stroke="#808080" d="M 77.6427 43.2021 C 75.1897 48.71161 72.11339 53.93314 70.0454 56.67741 "/>
<path transform="matrix(-.60281,-.8,-.8,.60281,70.0454,53.736604)" d="M 2.59026 0 L -1.55415 2.0722 L 0 0 L -1.55415 -2.0722 " fill="#808080"/>
<symbol id="font_2_1">
<path d="M .44800005 .497 C .44800005 .602 .40800003 .71400007 .31000004 .71400007 C .16 .71400007 0 .446 0 .21700002 C 0 .098000008 .046000005 0 .13800001 0 C .29000003 0 .44800005 .273 .44800005 .497 M .11300001 .375 C .164 .591 .25000004 .68600007 .30900003 .68600007 C .37300004 .68600007 .37300004 .575 .37300004 .556 C .37300004 .517 .36500005 .45900003 .344 .375 L .11300001 .375 M .33500005 .33900003 C .307 .23000002 .284 .17600002 .254 .127 C .22300002 .075 .183 .028 .139 .028 C .084 .028 .07500001 .104 .07500001 .158 C .07500001 .22400002 .094000007 .30200003 .10400001 .33900003 L .33500005 .33900003 Z "/>
</symbol>
<use xlink:href="#font_2_2" transform="matrix(6.9738,0,0,-6.9738,76.8024,57.69874)"/>
<use xlink:href="#font_2_1" transform="matrix(6.9738,0,0,-6.9738,80.96576,57.69874)"/>
<symbol id="font_3_2">
<path d="M .47600005 .694 C .47600005 .695 .47600005 .705 .46300004 .705 C .44800005 .705 .35300002 .69600006 .33600004 .694 C .32800005 .693 .32200004 .688 .32200004 .675 C .32200004 .663 .33100004 .663 .34600003 .663 C .39400003 .663 .39600004 .656 .39600004 .646 L .39300005 .626 L .33300004 .38900004 C .31500004 .42600004 .286 .45300005 .24100001 .45300005 C .124 .45300005 0 .30600003 0 .16000001 C 0 .06600001 .055000005 0 .133 0 C .153 0 .20300001 .0040000008 .263 .075 C .27100004 .033000005 .30600003 0 .35400004 0 C .38900004 0 .41200004 .023000002 .42800004 .055000005 C .44500003 .091000009 .45800004 .15200001 .45800004 .15400002 C .45800004 .16400002 .44900004 .16400002 .44600005 .16400002 C .43600003 .16400002 .43500004 .16000001 .43200005 .14600002 C .41500003 .081 .397 .022000002 .35600005 .022000002 C .32900004 .022000002 .32600004 .048 .32600004 .068 C .32600004 .092 .32800005 .09900001 .33200003 .116000007 L .47600005 .694 M .26800005 .13000001 C .263 .112 .263 .11000001 .24800001 .093 C .20400001 .038000004 .163 .022000002 .135 .022000002 C .08499999 .022000002 .07100001 .077 .07100001 .116000007 C .07100001 .16600001 .103 .28900004 .126 .335 C .157 .39400003 .202 .43100003 .242 .43100003 C .307 .43100003 .32100005 .34900005 .32100005 .34300003 C .32100005 .337 .31900005 .33100004 .31800003 .32600004 L .26800005 .13000001 Z "/>
</symbol>
<symbol id="font_3_1">
<path d="M .14400001 .115 C .10400002 .048 .065 .034 .021000002 .031000002 C .009000003 .030000002 0 .030000002 0 .011000001 C 0 .0050000005 .0050000029 0 .013 0 C .040000004 0 .07100001 .003 .09900001 .003 C .13200002 .003 .16700001 0 .19900002 0 C .20500002 0 .21800003 0 .21800003 .019000002 C .21800003 .030000002 .20900002 .031000002 .20200002 .031000002 C .17900002 .033 .15500002 .041 .15500002 .066 C .15500002 .078 .16100002 .089 .16900002 .10300001 L .245 .231 L .49600003 .231 C .49800007 .21000001 .512 .074 .512 .064 C .512 .034 .46000005 .031000002 .44000004 .031000002 C .42600004 .031000002 .41600005 .031000002 .41600005 .011000001 C .41600005 0 .42800004 0 .43000005 0 C .47100006 0 .514 .003 .555 .003 C .58 .003 .643 0 .668 0 C .674 0 .686 0 .686 .020000002 C .686 .031000002 .676 .031000002 .663 .031000002 C .601 .031000002 .601 .038000004 .598 .067 L .537 .69200006 C .535 .712 .535 .716 .518 .716 C .502 .716 .49800007 .70900008 .492 .69900009 L .14400001 .115 M .26400004 .26200003 L .46100004 .592 L .493 .26200003 L .26400004 .26200003 Z "/>
</symbol>
<use xlink:href="#font_3_2" transform="matrix(9.9626,0,0,-9.9626,98.66151,41.030595)"/>
<use xlink:href="#font_3_1" transform="matrix(9.9626,0,0,-9.9626,103.80221,40.921007)"/>
</g>
</svg>
