<?xml version="1.0" encoding="UTF-8" standalone="no"?>
<!DOCTYPE svg PUBLIC "-//W3C//DTD SVG 1.1//EN" "http://www.w3.org/Graphics/SVG/1.1/DTD/svg11.dtd">
<svg xmlns="http://www.w3.org/2000/svg" xmlns:xlink="http://www.w3.org/1999/xlink" version="1.1" width="216.706pt" height="176.075pt" viewBox="0 0 216.706 176.075">
<path transform="matrix(1,0,0,-1,11.588,175.233)" stroke-width="1" stroke-linecap="butt" stroke-miterlimit="10" stroke-linejoin="miter" fill="none" stroke="#808080" d="M 0 11.32335 L 0 15.57591 M 53.96458 11.32335 L 53.96458 15.57591 M 80.94688 11.32335 L 80.94688 15.57591 M 107.92917 11.32335 L 107.92917 15.57591 M 134.91147 11.32335 L 134.91147 15.57591 M 161.89377 11.32335 L 161.89377 15.57591 M 188.87607 11.32335 L 188.87607 15.57591 "/>
<path transform="matrix(1,0,0,-1,11.588,175.233)" stroke-width="1" stroke-linecap="butt" stroke-miterlimit="10" stroke-linejoin="miter" fill="none" stroke="#808080" d="M 24.85606 40.34894 L 29.10849 40.34894 M 24.85606 67.24823 L 29.10849 67.24823 M 24.85606 94.14752 L 29.10849 94.14752 M 24.85606 121.04681 L 29.10849 121.04681 M 24.85606 147.9461 L 29.10849 147.9461 "/>
<path transform="matrix(1,0,0,-1,11.588,175.233)" stroke-width="1" stroke-linecap="butt" stroke-miterlimit="10" stroke-linejoin="miter" fill="none" stroke="#000000" d="M 0 13.44965 L 192.28 13.44965 "/>
<path transform="matrix(1,0,0,-1,203.868,161.78336)" d="M 1.99252 0 L -1.19551 1.59401 L 0 0 L -1.19551 -1.59401 "/>
<path transform="matrix(1,0,0,-1,11.588,175.233)" stroke-width="1" stroke-linecap="butt" stroke-miterlimit="10" stroke-linejoin="miter" fill="none" stroke="#000000" d="M 26.98228 0 L 26.98228 159.40323 "/>
<path transform="matrix(0,-1,-1,-0,38.570283,15.829773)" d="M 1.99252 0 L -1.19551 1.59401 L 0 0 L -1.19551 -1.59401 "/>
<symbol id="font_0_1">
<path d="M .63600006 0 C .65200009 0 .67600008 0 .67600008 .023999989 C .67600008 .048999996 .65300008 .048999996 .63600006 .048999996 L .04 .048999996 C .023999997 .048999996 0 .048999996 0 .025000006 C 0 0 .02300001 0 .04 0 L .63600006 0 Z "/>
</symbol>
<use xlink:href="#font_0_1" transform="matrix(6.9738,0,0,-6.9738,4.0741708,170.34792)"/>
<symbol id="font_1_1">
<path d="M .46400006 .33900003 C .46400006 .44900004 .45100004 .528 .40500004 .598 C .374 .644 .31200005 .684 .23200001 .684 C 0 .684 0 .41100005 0 .33900003 C 0 .26700003 0 0 .23200001 0 C .46400006 0 .46400006 .26700003 .46400006 .33900003 M .23200001 .028 C .186 .028 .125 .055 .105000007 .13700001 C .091000009 .19600001 .091000009 .27800004 .091000009 .35200004 C .091000009 .42500005 .091000009 .50100007 .106000009 .556 C .127 .635 .19100002 .656 .23200001 .656 C .286 .656 .338 .623 .356 .565 C .37200005 .51100006 .37300004 .43900005 .37300004 .35200004 C .37300004 .27800004 .37300004 .20400001 .36 .141 C .34000004 .050000006 .272 .028 .23200001 .028 Z "/>
</symbol>
<use xlink:href="#font_1_1" transform="matrix(6.9738,0,0,-6.9738,9.909637,172.06348)"/>
<symbol id="font_2_2">
<path d="M .11500001 .057000005 C .11500001 .093 .08500001 .115 .058 .115 C .025000006 .115 0 .08800001 0 .058000003 C 0 .022000002 .030000002 0 .05700001 0 C .09 0 .11500001 .027 .11500001 .057000005 Z "/>
</symbol>
<use xlink:href="#font_2_2" transform="matrix(6.9738,0,0,-6.9738,14.299066,171.924)"/>
<symbol id="font_1_3">
<path d="M .442 .18200001 L .40800003 .18200001 C .40500004 .16000001 .39500005 .101 .38200004 .091000009 C .374 .085 .29700003 .085 .28300003 .085 L .099 .085 C .20400003 .178 .23900002 .20600002 .29900003 .25300003 C .37300004 .312 .442 .374 .442 .469 C .442 .59000006 .33600004 .66400006 .20800004 .66400006 C .084 .66400006 0 .577 0 .485 C 0 .43400003 .043000007 .42900003 .053000004 .42900003 C .077 .42900003 .10600001 .446 .10600001 .48200003 C .10600001 .5 .099 .535 .047000007 .535 C .078 .606 .146 .628 .19300002 .628 C .293 .628 .34500004 .55 .34500004 .469 C .34500004 .38200004 .28300003 .31300003 .25100003 .277 L .010000005 .039 C 0 .030000002 0 .028 0 0 L .41200004 0 L .442 .18200001 Z "/>
</symbol>
<use xlink:href="#font_1_3" transform="matrix(6.9738,0,0,-6.9738,16.32435,171.924)"/>
<use xlink:href="#font_1_1" transform="matrix(6.9738,0,0,-6.9738,60.76064,172.06348)"/>
<use xlink:href="#font_2_2" transform="matrix(6.9738,0,0,-6.9738,65.15007,171.924)"/>
<use xlink:href="#font_1_3" transform="matrix(6.9738,0,0,-6.9738,67.17435,171.924)"/>
<use xlink:href="#font_1_1" transform="matrix(6.9738,0,0,-6.9738,87.74264,172.06348)"/>
<use xlink:href="#font_2_2" transform="matrix(6.9738,0,0,-6.9738,92.132068,171.924)"/>
<symbol id="font_1_4">
<path d="M .49000005 .164 L .49000005 .2 L .379 .2 L .379 .646 C .379 .66700008 .379 .674 .35700003 .674 C .345 .674 .34100003 .674 .331 .66 L 0 .2 L 0 .164 L .294 .164 L .294 .082 C .294 .048 .294 .036000004 .213 .036000004 L .186 .036000004 L .186 0 C .236 .002 .3 .004 .33600004 .004 C .37300004 .004 .437 .002 .48700003 0 L .48700003 .036000004 L .46 .036000004 C .379 .036000004 .379 .048 .379 .082 L .379 .164 L .49000005 .164 M .301 .56600007 L .301 .2 L .037000006 .2 L .301 .56600007 Z "/>
</symbol>
<use xlink:href="#font_1_4" transform="matrix(6.9738,0,0,-6.9738,93.988979,171.924)"/>
<use xlink:href="#font_1_1" transform="matrix(6.9738,0,0,-6.9738,114.72464,172.06348)"/>
<use xlink:href="#font_2_2" transform="matrix(6.9738,0,0,-6.9738,119.11407,171.924)"/>
<symbol id="font_1_5">
<path d="M .096 .34700004 C .096 .42900003 .103 .503 .141 .564 C .17500001 .61800006 .22900002 .65500006 .293 .65500006 C .323 .65500006 .36300005 .647 .38300003 .62 C .35800005 .61800006 .33700005 .601 .33700005 .572 C .33700005 .547 .35400004 .525 .38400004 .525 C .41400004 .525 .43200005 .545 .43200005 .574 C .43200005 .632 .39000006 .684 .29100005 .684 C .147 .684 0 .552 0 .337 C 0 .078 .12200001 0 .23200001 0 C .35400004 0 .46 .09300001 .46 .224 C .46 .35100005 .35900004 .44500003 .242 .44500003 C .162 .44500003 .118 .39200003 .096 .34700004 M .23200001 .032 C .18200001 .032 .143 .061000006 .12200001 .105000007 C .10700001 .135 .09900001 .185 .09900001 .245 C .09900001 .34200005 .157 .41700004 .237 .41700004 C .28300003 .41700004 .31400005 .39900003 .33900003 .36200003 C .36300005 .32400004 .36400003 .28200004 .36400003 .224 C .36400003 .167 .36400003 .125 .33700005 .086 C .31300003 .051000004 .28100003 .032 .23200001 .032 Z "/>
</symbol>
<use xlink:href="#font_1_5" transform="matrix(6.9738,0,0,-6.9738,121.075588,172.06348)"/>
<use xlink:href="#font_1_1" transform="matrix(6.9738,0,0,-6.9738,141.70664,172.06348)"/>
<use xlink:href="#font_2_2" transform="matrix(6.9738,0,0,-6.9738,146.09606,171.924)"/>
<symbol id="font_1_6">
<path d="M .30100004 .38100005 C .37900005 .41900004 .42900003 .46600003 .42900003 .535 C .42900003 .632 .32800005 .684 .23100002 .684 C .12100001 .684 .031 .612 .031 .517 C .031 .47000004 .053000008 .43600003 .070999998 .41600005 C .089 .39500005 .096 .39100004 .155 .35600005 C .09900001 .33200003 0 .27800004 0 .17300001 C 0 .062000008 .11500001 0 .22900002 0 C .35600005 0 .46 .08100001 .46 .18900001 C .46 .25500003 .42100004 .31100003 .36300005 .34500004 C .35000003 .35300002 .31500004 .37300004 .30100004 .38100005 M .138 .47600005 C .112 .49100004 .08400001 .518 .08400001 .555 C .08400001 .61800006 .157 .65500006 .22900002 .65500006 C .30700005 .65500006 .37600003 .606 .37600003 .535 C .37600003 .44600005 .272 .40100003 .27 .40100003 C .26800005 .40100003 .26600004 .40200005 .25900004 .40600003 L .138 .47600005 M .187 .337 L .32400004 .25800003 C .35000003 .243 .40000005 .213 .40000005 .154 C .40000005 .079 .31700004 .032 .23100002 .032 C .139 .032 .060000007 .091000009 .060000007 .17300001 C .060000007 .24700001 .11500001 .30400003 .187 .337 Z "/>
</symbol>
<use xlink:href="#font_1_6" transform="matrix(6.9738,0,0,-6.9738,148.05757,172.06348)"/>
<symbol id="font_1_2">
<path d="M .22600001 .63600006 C .22600001 .66300007 .224 .66400006 .19600001 .66400006 C .132 .601 .041 .6 0 .6 L 0 .564 C .023999997 .564 .09000001 .564 .14500001 .592 L .14500001 .082 C .14500001 .049000004 .14500001 .036000004 .04500001 .036000004 L .0069999995 .036000004 L .0069999995 0 C .024999999 .001 .148 .004 .185 .004 C .21600002 .004 .34200005 .001 .36400003 0 L .36400003 .036000004 L .32600004 .036000004 C .22600001 .036000004 .22600001 .049000004 .22600001 .082 L .22600001 .63600006 Z "/>
</symbol>
<use xlink:href="#font_1_2" transform="matrix(6.9738,0,0,-6.9738,172.25415,171.924)"/>
<use xlink:href="#font_1_2" transform="matrix(6.9738,0,0,-6.9738,196.06714,171.924)"/>
<use xlink:href="#font_2_2" transform="matrix(6.9738,0,0,-6.9738,200.06006,171.924)"/>
<use xlink:href="#font_1_3" transform="matrix(6.9738,0,0,-6.9738,202.08434,171.924)"/>
<use xlink:href="#font_1_1" transform="matrix(6.9738,0,0,-6.9738,22.97764,137.2715)"/>
<use xlink:href="#font_2_2" transform="matrix(6.9738,0,0,-6.9738,27.368067,137.13202)"/>
<use xlink:href="#font_1_3" transform="matrix(6.9738,0,0,-6.9738,29.392352,137.13202)"/>
<use xlink:href="#font_1_1" transform="matrix(6.9738,0,0,-6.9738,22.97764,110.37248)"/>
<use xlink:href="#font_2_2" transform="matrix(6.9738,0,0,-6.9738,27.368067,110.23301)"/>
<use xlink:href="#font_1_4" transform="matrix(6.9738,0,0,-6.9738,29.22498,110.23301)"/>
<use xlink:href="#font_1_1" transform="matrix(6.9738,0,0,-6.9738,22.97764,83.47347)"/>
<use xlink:href="#font_2_2" transform="matrix(6.9738,0,0,-6.9738,27.368067,83.334)"/>
<use xlink:href="#font_1_5" transform="matrix(6.9738,0,0,-6.9738,29.329586,83.47347)"/>
<use xlink:href="#font_1_1" transform="matrix(6.9738,0,0,-6.9738,22.97764,56.57449)"/>
<use xlink:href="#font_2_2" transform="matrix(6.9738,0,0,-6.9738,27.368067,56.435014)"/>
<use xlink:href="#font_1_6" transform="matrix(6.9738,0,0,-6.9738,29.329586,56.57449)"/>
<use xlink:href="#font_1_2" transform="matrix(6.9738,0,0,-6.9738,29.713143,29.535996)"/>
<clipPath id="cp3">
<path transform="matrix(1,0,0,-1,11.588,175.233)" d="M 0 0 L 194.27252 0 L 194.27252 161.39575 L 0 161.39575 Z "/>
</clipPath>
<g clip-path="url(#cp3)">
<path transform="matrix(1,0,0,-1,11.588,175.233)" d="M 120.44894 67.24823 L 119.49109 68.86217 L 118.50623 70.46268 L 117.49438 72.04976 L 116.45558 73.62335 L 115.38977 75.17004 L 114.297 76.68987 L 113.17722 78.20967 L 112.03047 79.68915 L 110.85674 81.16861 L 109.65602 82.60771 L 108.44183 84.03337 L 107.18715 85.44559 L 105.91898 86.8309 L 104.62384 88.18933 L 103.30171 89.53429 L 84.22522 70.51646 L 85.21008 69.50774 L 86.18144 68.48558 L 87.1393 67.44995 L 88.07019 66.38744 L 88.9876 65.32494 L 89.89151 64.23547 L 90.76842 63.13263 L 91.63187 62.01631 L 92.4683 60.88655 L 93.29126 59.72987 L 94.08725 58.5732 L 94.86975 57.40306 L 95.62524 56.21951 L 96.36725 55.00903 L 97.08229 53.79858 L 120.44894 67.24823 " fill="#cccce6"/>
<path transform="matrix(1,0,0,-1,11.588,175.233)" stroke-width="1" stroke-linecap="butt" stroke-miterlimit="10" stroke-linejoin="miter" fill="none" stroke="#cccce6" d="M 120.44894 67.24823 L 119.49109 68.86217 L 118.50623 70.46268 L 117.49438 72.04976 L 116.45558 73.62335 L 115.38977 75.17004 L 114.297 76.68987 L 113.17722 78.20967 L 112.03047 79.68915 L 110.85674 81.16861 L 109.65602 82.60771 L 108.44183 84.03337 L 107.18715 85.44559 L 105.91898 86.8309 L 104.62384 88.18933 L 103.30171 89.53429 L 84.22522 70.51646 L 85.21008 69.50774 L 86.18144 68.48558 L 87.1393 67.44995 L 88.07019 66.38744 L 88.9876 65.32494 L 89.89151 64.23547 L 90.76842 63.13263 L 91.63187 62.01631 L 92.4683 60.88655 L 93.29126 59.72987 L 94.08725 58.5732 L 94.86975 57.40306 L 95.62524 56.21951 L 96.36725 55.00903 L 97.08229 53.79858 L 120.44894 67.24823 "/>
<path transform="matrix(1,0,0,-1,11.588,175.233)" stroke-width="1.59404" stroke-linecap="butt" stroke-miterlimit="10" stroke-linejoin="miter" fill="none" stroke="#000080" d="M 168.63935 13.44965 C 168.63935 13.44965 168.16616 18.97627 167.64208 21.05013 C 167.118 23.12398 165.80715 26.41624 164.86215 28.39662 C 163.91715 30.377 162.01999 33.46024 160.8311 35.32333 C 159.64221 37.18645 157.51667 40.05797 156.29343 41.82466 C 155.0702 43.59135 153.08449 46.32645 152.01491 48.05647 C 150.94533 49.7865 149.3821 52.52109 148.58457 54.29356 C 147.78705 56.06604 146.76741 58.9477 146.26686 60.83131 C 145.76631 62.71495 145.25377 65.84273 144.97686 67.86955 C 144.69994 69.8964 144.47405 73.29147 144.271 75.43936 C 144.06795 77.58723 143.82523 81.16228 143.51332 83.35004 C 143.20143 85.5378 142.61386 89.10098 142.02298 91.20724 C 141.43212 93.3135 140.23819 96.63591 139.25464 98.53058 C 138.2711 100.42525 136.34043 103.28506 134.93427 104.8627 C 133.52812 106.44035 130.8944 108.68835 129.12 109.90123 C 127.34561 111.1141 124.1667 112.72624 122.14566 113.60426 C 120.12462 114.4823 116.66753 115.5821 114.55363 116.22955 C 112.43974 116.87698 108.97435 117.70062 106.91011 118.2706 C 104.84587 118.84056 101.59143 119.68076 99.67589 120.33755 C 97.76035 120.99437 94.83824 122.12938 93.10422 123.00444 C 91.3702 123.87952 88.7634 125.49147 87.17813 126.64453 C 85.59285 127.79758 83.19511 129.91732 81.67854 131.31493 C 80.16199 132.71254 77.79585 135.19745 76.24779 136.71753 C 74.6997 138.2376 72.18718 140.81189 70.52101 142.27066 C 68.85484 143.72942 66.06963 146.03488 64.2392 147.23134 C 62.40875 148.4278 59.31929 150.12638 57.3284 150.89394 C 55.33752 151.6615 51.99332 152.51486 49.89029 152.76348 C 47.78726 153.01209 44.31245 152.94583 42.17117 152.68585 C 40.0299 152.42588 36.56488 151.54763 34.45746 150.88965 C 32.35005 150.23168 26.98228 147.9436 26.98228 147.9436 "/>
<path transform="matrix(1,0,0,-1,11.588,175.233)" stroke-width="1" stroke-linecap="butt" stroke-miterlimit="10" stroke-linejoin="miter" fill="none" stroke="#000000" d="M 168.63935 13.44965 C 168.63935 13.44965 168.6301 14.36996 168.62657 14.72345 C 168.62305 15.07692 168.6205 15.64398 168.61383 15.99727 C 168.60717 16.35054 168.58844 16.916 168.57843 17.26967 C 168.5684 17.62334 168.55417 18.19263 168.5416 18.5463 C 168.52902 18.89998 168.50368 19.46544 168.48777 19.81873 C 168.47185 20.172 168.44629 20.73904 168.42685 21.09253 C 168.40741 21.446 168.36992 22.01326 168.34752 22.36635 C 168.32514 22.71942 168.2909 23.28487 168.26535 23.63734 C 168.23983 23.98984 168.19205 24.55443 168.16336 24.90692 C 168.13468 25.2594 168.09015 25.82542 168.05852 26.1779 C 168.02689 26.5304 167.97048 27.09538 167.93529 27.44746 C 167.90012 27.79956 167.84348 28.36394 167.80496 28.71565 C 167.76647 29.06737 167.69931 29.6309 167.65766 29.9824 C 167.616 30.33392 167.54909 30.89825 167.50467 31.24918 C 167.46025 31.6001 167.38585 32.16135 167.33751 32.51167 C 167.28916 32.862 167.20748 33.42444 167.15619 33.7742 C 167.1049 34.12395 167.02162 34.68292 166.96778 35.03249 C 166.91393 35.38203 166.82523 35.94443 166.76804 36.2936 C 166.71085 36.64275 166.61629 37.2005 166.55558 37.54906 C 166.49486 37.89763 166.39382 38.45753 166.33032 38.80591 C 166.26685 39.1543 166.16481 39.71257 166.09799 40.05997 C 166.03118 40.40736 165.91866 40.96317 165.8487 41.30977 C 165.77873 41.65637 165.66683 42.21193 165.59372 42.55817 C 165.52062 42.90439 165.3982 43.45992 165.32173 43.80515 C 165.24529 44.15039 165.12226 44.7018 165.04267 45.04646 C 164.96306 45.39113 164.83019 45.94476 164.74803 46.28923 C 164.66588 46.63368 164.53623 47.18607 164.45053 47.52916 C 164.36484 47.87225 164.21921 48.41951 164.13039 48.76201 C 164.04157 49.1045 163.81023 49.99771 163.81023 49.99771 "/>
<path transform="matrix(1,0,0,-1,11.588,175.233)" stroke-width="1" stroke-linecap="butt" stroke-miterlimit="10" stroke-linejoin="miter" fill="none" stroke="#000000" d="M 150.78157 46.51949 C 150.78157 46.51949 150.55529 47.32045 150.46886 47.62856 C 150.38243 47.93665 150.24742 48.43259 150.15869 48.74014 C 150.06996 49.04771 149.9207 49.5387 149.82932 49.84538 C 149.73792 50.15207 149.5938 50.64447 149.49991 50.95062 C 149.40602 51.25677 149.24967 51.74692 149.15259 52.052 C 149.05551 52.3571 148.89969 52.84554 148.80013 53.14957 C 148.70055 53.45358 148.5371 53.93962 148.43485 54.2433 C 148.3326 54.54697 148.16843 55.03586 148.06317 55.33827 C 147.95792 55.6407 147.7844 56.12186 147.67612 56.42305 C 147.56783 56.72424 147.39362 57.20882 147.28266 57.50912 C 147.17169 57.80942 146.98998 58.28825 146.87636 58.58751 C 146.76274 58.88675 146.57959 59.36757 146.46367 59.66592 C 146.34774 59.96428 146.15967 60.44063 146.04071 60.73792 C 145.92177 61.0352 145.72786 61.51242 145.60623 61.80865 C 145.4846 62.10487 145.28801 62.57762 145.16407 62.87297 C 145.04012 63.16832 144.83989 63.64307 144.71294 63.93733 C 144.58597 64.23161 144.37859 64.70131 144.24897 64.994 C 144.11934 65.28668 143.91034 65.75485 143.77857 66.04683 C 143.6468 66.33879 143.43422 66.80785 143.29926 67.0984 C 143.16429 67.38896 142.94345 67.85223 142.80582 68.141 C 142.66817 68.42978 142.44719 68.89207 142.30725 69.17981 C 142.1673 69.46753 141.93956 69.92773 141.79714 70.21475 C 141.65471 70.50177 141.4259 70.963 141.28063 71.24841 C 141.13536 71.53383 140.89763 71.98788 140.75005 72.27187 C 140.60247 72.55586 140.36713 73.01254 140.21688 73.2953 C 140.06662 73.57805 139.81996 74.02812 139.66703 74.30981 C 139.5141 74.5915 139.27042 75.04532 139.11464 75.32559 C 138.95886 75.60588 138.70238 76.05139 138.54428 76.32988 C 138.3862 76.60838 137.97524 77.33292 137.97524 77.33292 "/>
<path transform="matrix(1,0,0,-1,11.588,175.233)" stroke-width="1" stroke-linecap="butt" stroke-miterlimit="10" stroke-linejoin="miter" fill="none" stroke="#000000" d="M 149.66155 84.06027 C 149.66155 84.06027 149.19072 84.85287 149.0099 85.15755 C 148.82909 85.46223 148.54106 85.95314 148.35829 86.25624 C 148.17552 86.55936 147.87783 87.04129 147.6925 87.34225 C 147.50717 87.64323 147.21115 88.12564 147.02248 88.42543 C 146.8338 88.72522 146.52402 89.20453 146.3326 89.50294 C 146.14118 89.80136 145.83652 90.27977 145.64273 90.57622 C 145.44893 90.87268 145.1322 91.34534 144.93585 91.63963 C 144.7395 91.93393 144.42629 92.40483 144.22757 92.69737 C 144.02887 92.9899 143.70592 93.45729 143.5037 93.74805 C 143.30146 94.03882 142.97432 94.5039 142.76993 94.79312 C 142.56555 95.08232 142.23744 95.54483 142.03049 95.83247 C 141.82352 96.12012 141.48778 96.58034 141.27828 96.86621 C 141.06876 97.15208 140.73227 97.60938 140.5204 97.89288 C 140.30854 98.1764 139.96602 98.62854 139.7512 98.9097 C 139.53638 99.19086 139.18987 99.63982 138.9721 99.9194 C 138.75434 100.199 138.40177 100.64706 138.18164 100.92491 C 137.96152 101.20276 137.60782 101.64644 137.38553 101.92194 C 137.16326 102.19742 136.80414 102.63696 136.5795 102.91049 C 136.35486 103.18404 135.9936 103.62163 135.76642 103.8934 C 135.53922 104.16516 135.17153 104.59924 134.94197 104.86925 C 134.7124 105.13925 134.34416 105.57178 134.11185 105.83942 C 133.87953 106.10707 133.50223 106.533 133.26757 106.79831 C 133.03289 107.06361 132.6573 107.48842 132.42047 107.75157 C 132.18364 108.01471 131.79979 108.43353 131.56061 108.69492 C 131.32141 108.9563 130.93824 109.37624 130.69649 109.63545 C 130.45476 109.89468 130.06212 110.30661 129.8182 110.56328 C 129.57431 110.81995 129.1848 111.23111 128.93852 111.48543 C 128.69225 111.73976 128.29166 112.14377 128.04323 112.39633 C 127.7948 112.6489 127.14798 113.30579 127.14798 113.30579 "/>
<path transform="matrix(1,0,0,-1,11.588,175.233)" stroke-width="1" stroke-linecap="butt" stroke-miterlimit="10" stroke-linejoin="miter" fill="none" stroke="#000000" d="M 119.51631 105.699 C 119.51631 105.699 118.90646 106.29474 118.67224 106.52353 C 118.43803 106.75232 118.06421 107.12086 117.82817 107.34804 C 117.59213 107.5752 117.20886 107.93619 116.97101 108.16081 C 116.73315 108.38544 116.3535 108.74496 116.11385 108.96706 C 115.87419 109.18916 115.48582 109.5413 115.2436 109.7616 C 115.00139 109.98189 114.61214 110.3365 114.3681 110.5548 C 114.12408 110.7731 113.73062 111.11882 113.48477 111.33495 C 113.23892 111.55107 112.84387 111.89854 112.5962 112.1125 C 112.34856 112.32645 111.94963 112.66577 111.6998 112.87701 C 111.44997 113.08824 111.04771 113.42575 110.79552 113.635 C 110.54333 113.84424 110.13594 114.17805 109.88211 114.38512 C 109.62828 114.5922 109.22133 114.92274 108.96603 115.12746 C 108.71075 115.33218 108.2996 115.6581 108.04214 115.86066 C 107.78468 116.0632 107.36946 116.38715 107.11038 116.58734 C 106.85129 116.78754 106.43562 117.1059 106.17471 117.30354 C 105.9138 117.5012 105.49258 117.81613 105.22986 118.01198 C 104.96715 118.20782 104.54565 118.52203 104.28111 118.71516 C 104.01657 118.90828 103.58972 119.2134 103.32318 119.40399 C 103.05666 119.59459 102.62804 119.90086 102.36003 120.08893 C 102.09204 120.277 101.66109 120.57361 101.39163 120.75949 C 101.12218 120.94539 100.68907 121.24539 100.41798 121.42874 C 100.1469 121.61209 99.71072 121.90042 99.43784 122.08105 C 99.16495 122.2617 98.72581 122.55229 98.45111 122.73076 C 98.17639 122.90924 97.73383 123.1913 97.45786 123.36742 C 97.18188 123.54353 96.7396 123.82675 96.46198 124.00015 C 96.18436 124.17357 95.73619 124.44618 95.45694 124.61723 C 95.17769 124.78828 94.73035 125.0645 94.44928 125.233 C 94.16821 125.40152 93.71347 125.66566 93.43114 125.83183 C 93.1488 125.99799 92.41435 126.43066 92.41435 126.43066 "/>
<path transform="matrix(1,0,0,-1,11.588,175.233)" stroke-width="1" stroke-linecap="butt" stroke-miterlimit="10" stroke-linejoin="miter" fill="none" stroke="#000000" d="M 94.43803 129.9276 C 94.43803 129.9276 93.6705 130.35657 93.37627 130.52208 C 93.08202 130.6876 92.61295 130.95714 92.3172 131.1206 C 92.02144 131.28406 91.54228 131.54018 91.24466 131.70029 C 90.94702 131.86038 90.47047 132.11692 90.1721 132.27458 C 89.87373 132.43225 89.39404 132.68152 89.09418 132.83676 C 88.79433 132.992 88.3122 133.24149 88.01083 133.39357 C 87.70946 133.54566 87.22478 133.78343 86.9221 133.9329 C 86.61943 134.08237 86.1335 134.32367 85.82933 134.4709 C 85.52515 134.61814 85.03508 134.85002 84.72978 134.99408 C 84.42448 135.13814 83.93571 135.36757 83.62892 135.50922 C 83.32213 135.65085 82.82649 135.87627 82.51859 136.01491 C 82.21066 136.15355 81.71886 136.37248 81.40962 136.50852 C 81.1004 136.64455 80.60057 136.86215 80.28986 136.99539 C 79.97913 137.12862 79.48138 137.33878 79.17009 137.46883 C 78.8588 137.59888 78.35905 137.80518 78.04628 137.93282 C 77.7335 138.06046 77.23 138.26393 76.91571 138.38877 C 76.60143 138.51361 76.09616 138.71096 75.78113 138.83261 C 75.4661 138.95427 74.9613 139.14646 74.64514 139.2657 C 74.32898 139.38494 73.81953 139.57599 73.50246 139.69205 C 73.18538 139.80812 72.6776 139.989 72.35976 140.10227 C 72.04192 140.21553 71.53099 140.3976 71.21165 140.50844 C 70.89232 140.61928 70.37881 140.7935 70.05817 140.90116 C 69.73753 141.00882 69.22202 141.17998 68.90062 141.28447 C 68.57922 141.38898 68.0635 141.55266 67.74174 141.65436 C 67.41998 141.75606 66.90479 141.91896 66.58151 142.01749 C 66.25824 142.11602 65.73582 142.2684 65.4118 142.3645 C 65.0878 142.46059 64.57094 142.61704 64.24619 142.71015 C 63.92142 142.80326 63.39699 142.94532 63.0711 143.03562 C 62.74521 143.12593 61.89737 143.36112 61.89737 143.36112 "/>
<path transform="matrix(1,0,0,-1,11.588,175.233)" stroke-width="1" stroke-linecap="butt" stroke-miterlimit="10" stroke-linejoin="miter" fill="none" stroke="#000000" d="M 63.64597 149.85951 C 63.64597 149.85951 62.74937 150.08748 62.40504 150.17586 C 62.0607 150.26422 61.50867 150.41101 61.16414 150.49643 C 60.8196 150.58185 60.26672 150.70989 59.9218 150.79158 C 59.57686 150.87328 59.02356 151.00634 58.67804 151.0853 C 58.3325 151.16426 57.77776 151.28447 57.43146 151.36069 C 57.08516 151.43692 56.52936 151.56159 56.18207 151.63466 C 55.83478 151.70774 55.27628 151.81809 54.92839 151.88744 C 54.5805 151.95679 54.02321 152.06777 53.67473 152.13459 C 53.32625 152.2014 52.76587 152.30533 52.41681 152.36902 C 52.06775 152.4327 51.50853 152.53302 51.15889 152.59357 C 50.80925 152.6541 50.24696 152.74839 49.89673 152.80539 C 49.5465 152.8624 48.9852 152.95044 48.63457 153.00452 C 48.28394 153.0586 47.7204 153.14423 47.36957 153.19516 C 47.01874 153.24611 46.45741 153.32427 46.10599 153.37168 C 45.75456 153.41909 45.18893 153.49205 44.83673 153.53691 C 44.48454 153.58179 43.91988 153.65337 43.56747 153.6951 C 43.21509 153.73683 42.64983 153.79972 42.29684 153.83773 C 41.94385 153.87574 41.37671 153.93379 41.02332 153.96906 C 40.66994 154.0043 40.10303 154.06035 39.74983 154.0919 C 39.39665 154.12345 38.83093 154.16782 38.47775 154.19641 C 38.12456 154.225 37.55783 154.27262 37.20425 154.29808 C 36.85066 154.32355 36.28352 154.35767 35.92935 154.38 C 35.57518 154.40235 35.00653 154.43968 34.65158 154.45909 C 34.29663 154.47849 33.72578 154.50395 33.37103 154.51982 C 33.01627 154.53569 32.44904 154.56096 32.09467 154.57349 C 31.7403 154.58602 31.17148 154.6002 30.81693 154.6102 C 30.46237 154.62018 29.89374 154.63884 29.53918 154.6455 C 29.18463 154.65215 28.6162 154.65508 28.26144 154.6582 C 27.9067 154.66133 26.98228 154.66808 26.98228 154.66808 "/>
<path transform="matrix(1,0,0,-1,11.588,175.233)" stroke-width="1" stroke-linecap="butt" stroke-miterlimit="10" stroke-linejoin="miter" fill="none" stroke="#000000" d="M 134.91147 13.44965 C 134.91147 13.44965 134.83777 17.659 134.74958 19.2728 C 134.66136 20.88661 134.45111 23.47394 134.27576 25.08089 C 134.1004 26.68782 133.74852 29.25941 133.48572 30.85455 C 133.22293 32.44969 132.73052 34.99907 132.3816 36.57764 C 132.03269 38.15622 131.40433 40.67448 130.97097 42.23186 C 130.5376 43.78925 129.7758 46.27017 129.25814 47.80217 C 128.74045 49.33417 127.83989 51.77179 127.23985 53.27348 C 126.63982 54.77518 125.61386 57.15846 124.93341 58.62537 C 124.25294 60.09229 123.09508 62.41745 122.33556 63.846 C 121.57603 65.27454 120.29498 67.53624 119.45924 68.92134 C 118.62349 70.30644 117.22188 72.4915 116.31201 73.82884 C 115.40215 75.16617 113.88306 77.2732 112.90146 78.5599 C 111.91985 79.84662 110.28702 81.87042 109.23727 83.10266 C 108.18753 84.33488 106.45082 86.26756 105.33565 87.44096 C 104.22046 88.61438 102.3771 90.44836 101.19977 91.5598 C 100.02245 92.67125 98.08565 94.40479 96.85023 95.45158 C 95.6148 96.4984 93.58632 98.12592 92.29562 99.1045 C 91.00493 100.08308 88.88956 101.5975 87.5478 102.50458 C 86.20605 103.41165 84.01451 104.80894 82.62515 105.6421 C 81.23578 106.47528 78.9671 107.7524 77.53413 108.50958 C 76.10118 109.26678 73.76884 110.42079 72.29741 111.09946 C 70.82597 111.77812 68.43504 112.80275 66.92902 113.40094 C 65.42299 113.99915 62.9797 114.89491 61.44298 115.41086 C 59.90627 115.9268 57.4158 116.68747 55.85332 117.11952 C 54.29085 117.55156 51.76512 118.17734 50.18166 118.52472 C 48.5982 118.8721 46.04082 119.36145 44.44089 119.62329 C 42.84097 119.88513 40.2621 120.23686 38.65051 120.41197 C 37.03891 120.58708 34.44452 120.79764 32.82558 120.8854 C 31.20665 120.97319 26.98228 121.04465 26.98228 121.04465 "/>
<path transform="matrix(1,0,0,-1,11.588,175.233)" stroke-width="1" stroke-linecap="butt" stroke-miterlimit="10" stroke-linejoin="miter" fill="none" stroke="#000000" d="M 107.92917 13.44965 C 107.92917 13.44965 107.8739 16.60663 107.80775 17.81699 C 107.74161 19.02733 107.5839 20.96785 107.45238 22.17307 C 107.32086 23.37828 107.05695 25.30696 106.85985 26.50333 C 106.66277 27.69969 106.29344 29.61171 106.03177 30.79564 C 105.7701 31.97957 105.29883 33.86829 104.9738 35.03632 C 104.64879 36.20435 104.07742 38.06505 103.68916 39.21405 C 103.3009 40.36304 102.62547 42.19125 102.17546 43.31754 C 101.72543 44.4438 100.95596 46.23125 100.44563 47.33142 C 99.9353 48.43161 99.06688 50.17549 98.49724 51.2469 C 97.92761 52.3183 96.96681 54.0146 96.34001 55.05342 C 95.7132 56.09225 94.662 57.73105 93.9796 58.73405 C 93.2972 59.73705 92.15785 61.3173 91.42165 62.28235 C 90.68546 63.24738 89.46082 64.76526 88.67352 65.6894 C 87.88623 66.61357 86.58366 68.06308 85.74728 68.94315 C 84.9109 69.8232 83.5284 71.19868 82.64542 72.03227 C 81.76242 72.86586 80.30981 74.16599 79.38326 74.9511 C 78.4567 75.7362 76.93532 76.95685 75.9673 77.69078 C 74.99928 78.42471 73.41275 79.56055 72.40643 80.24086 C 71.40013 80.92116 69.75647 81.96912 68.71445 82.594 C 67.67241 83.21887 65.97087 84.17671 64.89618 84.7446 C 63.82147 85.31247 62.07219 86.178 60.96863 86.687 C 59.86505 87.19598 58.07187 87.96448 56.94235 88.41312 C 55.81282 88.86176 53.98035 89.5336 52.8278 89.92055 C 51.67528 90.3075 49.80743 90.87799 48.63557 91.20203 C 47.46371 91.52606 45.5694 91.9954 44.38182 92.25595 C 43.19424 92.5165 41.27617 92.8835 40.07623 93.07988 C 38.8763 93.27626 36.94215 93.54005 35.73346 93.67139 C 34.52477 93.80272 32.57895 93.96063 31.36475 94.02646 C 30.15054 94.09229 26.98228 94.14589 26.98228 94.14589 "/>
<path transform="matrix(1,0,0,-1,11.588,175.233)" stroke-width="1" stroke-linecap="butt" stroke-miterlimit="10" stroke-linejoin="miter" fill="none" stroke="#000000" d="M 80.94688 13.44965 C 80.94688 13.44965 80.91003 15.55429 80.86592 16.36119 C 80.82182 17.1681 80.71669 18.46179 80.62901 19.26526 C 80.54135 20.06873 80.36539 21.35452 80.234 22.15208 C 80.1026 22.94966 79.8564 24.22435 79.68195 25.01363 C 79.5075 25.80292 79.19331 27.06206 78.97662 27.84074 C 78.75993 28.61943 78.37904 29.8599 78.12021 30.6259 C 77.86137 31.39189 77.41109 32.61072 77.11107 33.36156 C 76.81107 34.1124 76.29807 35.30406 75.95786 36.0375 C 75.61763 36.77097 75.03868 37.93355 74.65892 38.64781 C 74.27916 39.36208 73.63863 40.49294 73.22075 41.18549 C 72.80287 41.87802 72.10208 42.97057 71.64714 43.63924 C 71.19221 44.30789 70.43268 45.36142 69.94188 46.00476 C 69.45108 46.64812 68.63464 47.66003 68.10979 48.27614 C 67.58492 48.89224 66.71655 49.85861 66.15895 50.44531 C 65.60136 51.03201 64.6797 51.94899 64.09103 52.5047 C 63.50237 53.06042 62.53397 53.9272 61.91624 54.4506 C 61.29854 54.97401 60.28429 55.78778 59.63895 56.27708 C 58.9936 56.76637 57.93591 57.52356 57.26505 57.9771 C 56.59416 58.43063 55.4984 59.12929 54.80371 59.54587 C 54.10904 59.96245 52.97467 60.60103 52.25821 60.97961 C 51.54173 61.3582 50.37558 61.93523 49.63986 62.27455 C 48.90414 62.61388 47.70866 63.12617 46.95566 63.42528 C 46.20264 63.72438 44.98099 64.17229 44.21263 64.43025 C 43.44427 64.68822 42.19904 65.06856 41.4178 65.28459 C 40.63655 65.50061 39.37367 65.8135 38.58195 65.98718 C 37.79024 66.16087 36.51154 66.40553 35.71158 66.53645 C 34.91162 66.66737 33.6222 66.84328 32.81639 66.93082 C 32.0106 67.01837 30.71338 67.12363 29.90393 67.16751 C 29.09447 67.21141 26.98228 67.24715 26.98228 67.24715 "/>
<path transform="matrix(1,0,0,-1,11.588,175.233)" stroke-width="1" stroke-linecap="butt" stroke-miterlimit="10" stroke-linejoin="miter" fill="none" stroke="#000000" d="M 53.96458 13.44965 C 53.96458 13.44965 53.94614 14.50197 53.9241 14.90541 C 53.90205 15.30885 53.84947 15.95572 53.80565 16.35744 C 53.76183 16.75917 53.67381 17.40208 53.60812 17.80086 C 53.54243 18.19963 53.41933 18.83699 53.33212 19.23163 C 53.2449 19.62628 53.08781 20.25587 52.97946 20.6452 C 52.87112 21.03455 52.68065 21.65479 52.55124 22.03778 C 52.42183 22.42078 52.19667 23.03018 52.04668 23.4056 C 51.89667 23.781 51.64017 24.37685 51.47006 24.74358 C 51.29996 25.11029 51.01047 25.69159 50.8206 26.04872 C 50.63072 26.40584 50.31046 26.9713 50.10152 27.31757 C 49.89258 27.66383 49.54219 28.21013 49.31473 28.54445 C 49.08725 28.87877 48.70746 29.40553 48.46208 29.7272 C 48.21669 30.04887 47.80847 30.55484 47.54604 30.8629 C 47.2836 31.17094 46.84941 31.65413 46.57062 31.94746 C 46.29182 32.2408 45.831 32.69931 45.53667 32.97717 C 45.24234 33.25504 44.75815 33.68842 44.44928 33.95012 C 44.14043 34.21182 43.63327 34.61871 43.31061 34.86336 C 42.98795 35.108 42.4591 35.4866 42.12367 35.71338 C 41.78824 35.94014 41.24034 36.28947 40.893 36.49776 C 40.54567 36.70604 39.97847 37.02533 39.62024 37.21461 C 39.26201 37.40392 38.67894 37.69243 38.31108 37.86209 C 37.94322 38.03174 37.34547 38.2879 36.96896 38.43745 C 36.59247 38.58699 35.98163 38.81094 35.59746 38.93994 C 35.21329 39.06892 34.59067 39.2591 34.20006 39.36711 C 33.80943 39.47513 33.17798 39.63158 32.78212 39.71841 C 32.38626 39.80525 31.7469 39.92758 31.34692 39.99304 C 30.94695 40.0585 30.30223 40.14645 29.89934 40.19022 C 29.49643 40.234 28.84781 40.28664 28.44308 40.30856 C 28.03838 40.3305 26.98228 40.34839 26.98228 40.34839 "/>
<path transform="matrix(1,0,0,-1,11.588,175.233)" stroke-width="1" stroke-linecap="butt" stroke-miterlimit="10" stroke-linejoin="miter" fill="none" stroke="#000000" d="M 26.98228 13.44965 L 163.81168 50.00015 "/>
<path transform="matrix(1,0,0,-1,11.588,175.233)" stroke-width="1" stroke-linecap="butt" stroke-miterlimit="10" stroke-linejoin="miter" fill="none" stroke="#000000" d="M 26.98228 13.44965 L 149.66028 84.05956 "/>
<path transform="matrix(1,0,0,-1,11.588,175.233)" stroke-width="1" stroke-linecap="butt" stroke-miterlimit="10" stroke-linejoin="miter" fill="none" stroke="#000000" d="M 26.98228 13.44965 L 127.14697 113.30618 "/>
<path transform="matrix(1,0,0,-1,11.588,175.233)" stroke-width="1" stroke-linecap="butt" stroke-miterlimit="10" stroke-linejoin="miter" fill="none" stroke="#000000" d="M 26.98228 13.44965 L 94.43803 129.9276 "/>
<path transform="matrix(1,0,0,-1,11.588,175.233)" stroke-width="1" stroke-linecap="butt" stroke-miterlimit="10" stroke-linejoin="miter" fill="none" stroke="#000000" d="M 26.98228 13.44965 L 63.64558 149.85811 "/>
<path transform="matrix(1,0,0,-1,11.588,175.233)" stroke-width="1.59404" stroke-linecap="butt" stroke-miterlimit="10" stroke-linejoin="miter" fill="none" stroke="#000080" d="M 168.63935 13.44965 C 168.63935 13.44965 168.16616 18.97627 167.64208 21.05013 C 167.118 23.12398 165.80715 26.41624 164.86215 28.39662 C 163.91715 30.377 162.01999 33.46024 160.8311 35.32333 C 159.64221 37.18645 157.51667 40.05797 156.29343 41.82466 C 155.0702 43.59135 153.08449 46.32645 152.01491 48.05647 C 150.94533 49.7865 149.3821 52.52109 148.58457 54.29356 C 147.78705 56.06604 146.76741 58.9477 146.26686 60.83131 C 145.76631 62.71495 145.25377 65.84273 144.97686 67.86955 C 144.69994 69.8964 144.47405 73.29147 144.271 75.43936 C 144.06795 77.58723 143.82523 81.16228 143.51332 83.35004 C 143.20143 85.5378 142.61386 89.10098 142.02298 91.20724 C 141.43212 93.3135 140.23819 96.63591 139.25464 98.53058 C 138.2711 100.42525 136.34043 103.28506 134.93427 104.8627 C 133.52812 106.44035 130.8944 108.68835 129.12 109.90123 C 127.34561 111.1141 124.1667 112.72624 122.14566 113.60426 C 120.12462 114.4823 116.66753 115.5821 114.55363 116.22955 C 112.43974 116.87698 108.97435 117.70062 106.91011 118.2706 C 104.84587 118.84056 101.59143 119.68076 99.67589 120.33755 C 97.76035 120.99437 94.83824 122.12938 93.10422 123.00444 C 91.3702 123.87952 88.7634 125.49147 87.17813 126.64453 C 85.59285 127.79758 83.19511 129.91732 81.67854 131.31493 C 80.16199 132.71254 77.79585 135.19745 76.24779 136.71753 C 74.6997 138.2376 72.18718 140.81189 70.52101 142.27066 C 68.85484 143.72942 66.06963 146.03488 64.2392 147.23134 C 62.40875 148.4278 59.31929 150.12638 57.3284 150.89394 C 55.33752 151.6615 51.99332 152.51486 49.89029 152.76348 C 47.78726 153.01209 44.31245 152.94583 42.17117 152.68585 C 40.0299 152.42588 36.56488 151.54763 34.45746 150.88965 C 32.35005 150.23168 26.98228 147.9436 26.98228 147.9436 "/>
</g>
<use xlink:href="#font_1_1" transform="matrix(6.9738,0,0,-6.9738,209.77664,164.16748)"/>
<symbol id="font_2_1">
<path d="M .26600004 .373 L .385 .373 C .37 .313 .348 .22200002 .348 .143 C .348 .103 .35300005 .076 .35900004 .054000006 C .375 .0040000008 .388 0 .40400005 0 C .42700006 0 .45100004 .021000002 .45100004 .045 C .45100004 .053000004 .449 .057000005 .44300003 .067 C .42400003 .104 .40600003 .16100002 .40600003 .24300002 C .40600003 .262 .40600003 .30200003 .42000003 .373 L .545 .373 C .563 .373 .57100006 .373 .582 .381 C .596 .391 .59900006 .407 .59900006 .412 C .59900006 .441 .573 .441 .556 .441 L .179 .441 C .13800001 .441 .11 .432 .065000008 .39000003 C .039000006 .367 0 .313 0 .304 C 0 .292 .013 .292 .017 .292 C .028000005 .292 .029 .294 .035000005 .303 C .08600001 .373 .148 .373 .17 .373 L .23100002 .373 C .2 .263 .14600002 .14500001 .11600001 .085 C .11 .072000008 .10000001 .051000004 .097 .047000003 C .096 .043 .09400001 .039 .09400001 .032 C .09400001 .016 .106000009 0 .12900001 0 C .16900002 0 .18 .045 .20400001 .135 L .26600004 .373 Z "/>
</symbol>
<symbol id="font_2_3">
<path d="M .42400003 .95600005 C .43 .96900007 .43 .971 .43 .975 C .43 .99100008 .417 1 .40600003 1 C .389 1 .384 .98800006 .379 .975 L .0059999974 .043999986 C 0 .030999989 0 .028999985 0 .024999991 C 0 .008999988 .012999997 0 .023999997 0 C .041 0 .045999998 .0119999949 .051 .024999991 L .42400003 .95600005 Z "/>
</symbol>
<use xlink:href="#font_2_1" transform="matrix(6.9738,0,0,-6.9738,32.40982,8.620733)"/>
<use xlink:href="#font_2_3" transform="matrix(6.9738,0,0,-6.9738,37.54254,10.294445)"/>
<use xlink:href="#font_1_3" transform="matrix(6.9738,0,0,-6.9738,41.526353,8.550995)"/>
</svg>
