<?xml version="1.0" encoding="UTF-8" standalone="no"?>
<!DOCTYPE svg PUBLIC "-//W3C//DTD SVG 1.1//EN" "http://www.w3.org/Graphics/SVG/1.1/DTD/svg11.dtd">
<svg xmlns="http://www.w3.org/2000/svg" xmlns:xlink="http://www.w3.org/1999/xlink" version="1.1" width="127.547pt" height="77.695pt" viewBox="0 0 127.547 77.695">
<path transform="matrix(1,0,0,-1,7.332,63.589)" stroke-width="1" stroke-linecap="butt" stroke-miterlimit="10" stroke-linejoin="miter" fill="none" stroke="#000000" d="M 0 0 L 82.45015 0 "/>
<path transform="matrix(1,0,0,-1,89.78215,63.589)" d="M 2.59026 0 L -1.55415 2.0722 L 0 0 L -1.55415 -2.0722 "/>
<symbol id="font_0_3">
<path d="M .691 .45800004 C .691 .619 .585 .72700008 .43600003 .72700008 C .22000003 .72700008 0 .5 0 .26700003 C 0 .101 .11200001 0 .256 0 C .46800003 0 .691 .21900001 .691 .45800004 M .26200003 .026000003 C .16300002 .026000003 .093 .107 .093 .23900001 C .093 .28300003 .107 .42900003 .18400002 .54600009 C .25300003 .65000006 .351 .702 .43000005 .702 C .512 .702 .602 .646 .602 .49700005 C .602 .42500005 .575 .26900003 .47600005 .14600002 C .42800004 .085 .34600003 .026000003 .26200003 .026000003 Z "/>
</symbol>
<use xlink:href="#font_0_3" transform="matrix(9.9626,0,0,-9.9626,3.8821674,74.40918)"/>
<symbol id="font_1_2">
<path d="M .228 .68 C .22900002 .683 .23100002 .691 .23100002 .693 C .23100002 .702 .22500001 .705 .21700002 .705 C .214 .705 .20400001 .704 .20100002 .703 L .102 .695 C .09 .694 .07900001 .693 .07900001 .674 C .07900001 .663 .089 .663 .103 .663 C .15100001 .663 .15300001 .656 .15300001 .646 C .15300001 .643 .15 .63 .15 .629 L .002000004 .039 C .001000002 .037 0 .028 0 .026 C 0 .015000001 .009000003 0 .028000005 0 C .049000004 0 .062000008 .017 .065 .028 C .069000009 .043 .10100001 .17300001 .10800001 .20100002 C .113000009 .22300002 .119 .24400002 .12400001 .26600004 C .133 .30200003 .134 .30400003 .15200001 .33600004 C .172 .36800004 .21500002 .43100003 .28500004 .43100003 C .329 .43100003 .33100004 .38600005 .33100004 .365 C .33100004 .30300004 .287 .18400002 .273 .14400001 C .26 .11000001 .25700004 .101 .25700004 .080000009 C .25700004 .036000004 .28500004 0 .333 0 C .42600007 0 .46000005 .14900002 .46000005 .15400002 C .46000005 .16400002 .45200003 .16400002 .44500006 .16400002 C .43200005 .16400002 .43200005 .16200002 .42800004 .14700002 C .42000003 .120000008 .393 .022000002 .33500005 .022000002 C .314 .022000002 .31300003 .037 .31300003 .051000004 C .31300003 .076000008 .323 .102000009 .33100004 .126 C .351 .17900002 .39200003 .291 .39200003 .34900005 C .39200003 .43100003 .337 .45300005 .288 .45300005 C .221 .45300005 .186 .418 .155 .388 L .228 .68 Z "/>
</symbol>
<symbol id="font_1_6">
<path d="M .399 .28900004 C .399 .38400004 .34 .45300005 .253 .45300005 C .12900001 .45300005 0 .31100003 0 .16500002 C 0 .062000004 .063 0 .146 0 C .27 0 .399 .14200002 .399 .28900004 M .146 .022000002 C .107 .022000002 .07 .053000004 .07 .12500002 C .07 .17500001 .09600001 .286 .12799999 .34000004 C .16499999 .40100003 .213 .43100003 .252 .43100003 C .301 .43100003 .329 .38700003 .329 .328 C .329 .28500004 .307 .18200001 .275 .12200001 C .24599999 .067 .195 .022000002 .146 .022000002 Z "/>
</symbol>
<symbol id="font_1_7">
<path d="M .17500001 .29900003 C .176 .30200003 .22100002 .43100003 .307 .43100003 C .312 .43100003 .34 .43100003 .36 .41700004 C .32500003 .40600003 .32200004 .374 .32200004 .36900003 C .32200004 .35600005 .33100004 .337 .35700003 .337 C .37500004 .337 .40600003 .351 .40600003 .39000003 C .40600003 .44200004 .34100003 .45300005 .30800004 .45300005 C .23900002 .45300005 .20300001 .40300004 .187 .381 C .176 .43400003 .13700001 .45300005 .104 .45300005 C .068 .45300005 .048000009 .43000005 .031999999 .40000005 C .012999997 .36 0 .30100004 0 .29900003 C 0 .28900004 .009999998 .28900004 .015000001 .28900004 C .028000005 .28900004 .029 .29000003 .034 .31200005 C .052 .38200004 .07100001 .43100003 .102 .43100003 C .128 .43100003 .128 .40200005 .128 .39100004 C .128 .37500004 .125 .35600005 .12100001 .34000004 L .046000005 .040000004 C .044 .034 .042999999 .029000003 .042999999 .026 C .042999999 .015000001 .051 0 .07100001 0 C .10100001 0 .10800001 .029000003 .11 .037 L .17500001 .29900003 Z "/>
</symbol>
<symbol id="font_1_3">
<path d="M .24800003 .15400002 C .24800003 .16400002 .24000001 .16400002 .23300001 .16400002 C .22 .16400002 .22 .16200002 .21600002 .14700002 C .208 .11800001 .181 .022000002 .12300001 .022000002 C .11500001 .022000002 .10100001 .023000002 .10100001 .05 C .10100001 .076000008 .11400001 .109000008 .127 .14600002 L .19100002 .31700004 C .201 .34600003 .20300001 .35400004 .20300001 .37300004 C .20300001 .42800004 .165 .45300005 .128 .45300005 C .034 .45300005 0 .30400003 0 .29900003 C 0 .28900004 .009999998 .28900004 .015000001 .28900004 C .028000005 .28900004 .029 .291 .033 .305 C .041999997 .33800004 .068 .43100003 .126 .43100003 C .13700001 .43100003 .148 .42600004 .148 .40300004 C .148 .37900005 .13700001 .35000003 .13000001 .33100004 L .10000001 .24800003 C .087 .21500002 .075 .18200001 .06300001 .14900002 C .048999996 .111 .045 .1 .045 .080000009 C .045 .041 .069000009 0 .12100001 0 C .215 0 .24800003 .15000002 .24800003 .15400002 M .243 .634 C .243 .659 .22300002 .667 .20900002 .667 C .18800003 .667 .16100002 .647 .16100002 .619 C .16100002 .594 .181 .586 .19500003 .586 C .215 .586 .243 .605 .243 .634 Z "/>
</symbol>
<symbol id="font_1_b">
<path d="M .29500003 .3 C .354 .358 .402 .43400003 .402 .44300003 C .402 .45300005 .39400003 .45300005 .388 .45300005 C .37600003 .45300005 .375 .45200003 .36900003 .44000004 C .33600004 .38300003 .323 .37800003 .307 .37800003 C .289 .37800003 .279 .388 .26000003 .41400004 C .248 .43000005 .231 .45300005 .199 .45300005 C .125 .45300005 .082 .35900004 .082 .33900003 C .082 .33 .089 .328 .097 .328 C .109 .328 .11 .33 .114999998 .34200005 C .122999999 .36400003 .15200001 .38900004 .18900001 .38900004 C .20900002 .38900004 .227 .381 .24900002 .37100003 C .282 .35600005 .293 .35600005 .308 .35600005 C .293 .33900003 .284 .328 .268 .31200005 L .104 .14900002 C .048000006 .094000007 0 .020000002 0 .010000001 C 0 0 .009 0 .015000004 0 C .026000005 0 .026999999 .0020000004 .031 .009000001 C .045000007 .030000002 .072 .075 .11 .075 C .132 .075 .14 .064 .158 .039 C .17400001 .019000002 .18900001 0 .22 0 C .317 0 .37100003 .13000001 .37100003 .15400002 C .37100003 .16400002 .35900004 .16400002 .356 .16400002 C .344 .16400002 .34300003 .16100002 .33900003 .14800002 C .321 .098000008 .273 .064 .23000002 .064 C .21000001 .064 .194 .071 .17400001 .080000009 C .14400001 .093 .132 .097 .112 .097 C .10700001 .097 .09900001 .097 .094 .096 C .100999999 .104 .12200001 .12900001 .15 .15700002 L .29500003 .3 Z "/>
</symbol>
<symbol id="font_1_5">
<path d="M .147 .18600002 C .15200001 .20800002 .158 .22900002 .163 .25100003 C .176 .30200003 .176 .30300004 .19300002 .33200003 C .20700002 .35600005 .252 .43100003 .328 .43100003 C .372 .43100003 .374 .38600005 .374 .365 C .374 .30300004 .33 .18400002 .316 .14400001 C .303 .11000001 .3 .101 .3 .080000009 C .3 .036000004 .328 0 .37600003 0 C .46900005 0 .503 .14900002 .503 .15400002 C .503 .16400002 .495 .16400002 .48800005 .16400002 C .47500003 .16400002 .47500003 .16200002 .47100003 .14700002 C .463 .120000008 .43600006 .022000002 .37800003 .022000002 C .35700003 .022000002 .356 .037 .356 .051000004 C .356 .076000008 .36600004 .102000009 .374 .126 C .39400003 .17900002 .435 .291 .435 .34900005 C .435 .43100003 .38000003 .45300005 .33100004 .45300005 C .24900002 .45300005 .201 .39300005 .18800003 .374 C .181 .42300005 .147 .45300005 .104 .45300005 C .068 .45300005 .048000009 .43000005 .031999999 .40000005 C .012999997 .36 0 .30100004 0 .29900003 C 0 .28900004 .009999998 .28900004 .015000001 .28900004 C .028000005 .28900004 .029 .29000003 .034 .31200005 C .052 .38200004 .07100001 .43100003 .102 .43100003 C .128 .43100003 .128 .40200005 .128 .39100004 C .128 .37500004 .125 .35600005 .12100001 .34000004 L .046000005 .040000004 C .044 .034 .042999999 .029000003 .042999999 .026 C .042999999 .015000001 .051 0 .07100001 0 C .083000008 0 .10000001 .0070000009 .10700001 .026 L .147 .18600002 Z "/>
</symbol>
<symbol id="font_1_9">
<path d="M .16900002 .411 L .254 .411 C .27100004 .411 .282 .411 .282 .43000005 C .282 .44200004 .273 .44200004 .25700004 .44200004 L .177 .44200004 L .214 .59000006 C .21800001 .60400006 .21800001 .606 .21800001 .611 C .21800001 .632 .20100002 .637 .191 .637 C .166 .637 .156 .616 .15200001 .601 L .113000009 .44200004 L .027999998 .44200004 C .011 .44200004 0 .44200004 0 .42300005 C 0 .411 .008999996 .411 .024999999 .411 L .105000007 .411 L .033 .124000009 C .031999999 .120000008 .027999998 .104 .027999998 .09 C .027999998 .040000004 .061000006 0 .113000009 0 C .214 0 .265 .14900002 .265 .15400002 C .265 .16400002 .25700004 .16400002 .25 .16400002 C .23800002 .16400002 .23800002 .16300002 .23 .14500001 C .212 .097 .172 .022000002 .11500001 .022000002 C .088 .022000002 .088 .047000003 .088 .063 C .088 .07000001 .088 .086 .095 .11400001 L .16900002 .411 Z "/>
</symbol>
<symbol id="font_1_1">
<path d="M .241 .07000001 C .252 .021000002 .289 0 .324 0 C .361 0 .382 .025000003 .39699999 .056 C .415 .094000007 .42700003 .15200001 .42700003 .15400002 C .42700003 .16400002 .419 .16400002 .41200004 .16400002 C .4 .16400002 .39900003 .16300002 .39300005 .14100002 C .379 .085 .36 .022000002 .326 .022000002 C .3 .022000002 .3 .049000004 .3 .063 C .3 .07000001 .3 .086 .307 .11400001 L .375 .38600005 C .379 .40000005 .379 .40200005 .379 .40700004 C .379 .42800004 .36200003 .43300004 .352 .43300004 C .32000003 .43300004 .31300003 .39900003 .312 .39400003 C .293 .43700005 .261 .45300005 .229 .45300005 C .11800001 .45300005 0 .30100004 0 .15500002 C 0 .07000001 .04600001 0 .121000017 0 C .157 0 .201 .021000002 .241 .07000001 M .29500003 .32400004 L .248 .135 C .24000001 .10300001 .178 .022000002 .123 .022000002 C .07600001 .022000002 .06800001 .081 .06800001 .111 C .06800001 .16100002 .099000018 .27800004 .117000009 .32000003 C .14199999 .381 .188 .43100003 .229 .43100003 C .273 .43100003 .298 .37900005 .298 .337 C .298 .335 .29700003 .33 .29500003 .32400004 Z "/>
</symbol>
<symbol id="font_1_4">
<path d="M .20899999 .68 C .21000001 .683 .21200001 .691 .21200001 .693 C .21200001 .702 .206 .705 .19800002 .705 C .195 .705 .185 .704 .18200001 .703 L .083 .695 C .071 .694 .06000001 .693 .06000001 .674 C .06000001 .663 .07 .663 .084 .663 C .132 .663 .134 .656 .134 .646 C .134 .643 .13100001 .63 .13100001 .629 L .0059999974 .12900001 C .0050000029 .12500002 0 .105000007 0 .09 C 0 .037 .036000007 0 .084 0 C .122 0 .14200002 .027000003 .155 .052 C .17199999 .087000008 .18599999 .15100001 .18599999 .15400002 C .18599999 .16400002 .178 .16400002 .171 .16400002 C .16600001 .16400002 .16 .16400002 .157 .15900001 L .15 .134 C .13300002 .064 .114 .022000002 .086 .022000002 C .06000001 .022000002 .06000001 .049000004 .06000001 .063 C .06000001 .07000001 .06000001 .085 .06600001 .109000008 L .20899999 .68 Z "/>
</symbol>
<symbol id="font_1_a">
<path d="M .42100004 .41700004 C .381 .40700004 .381 .37000004 .381 .36900003 C .381 .35600005 .39000003 .337 .416 .337 C .43400003 .337 .465 .351 .465 .39000003 C .465 .441 .407 .45300005 .37800003 .45300005 C .323 .45300005 .29000003 .404 .28 .38500003 C .25800003 .44500003 .20900002 .45300005 .18400002 .45300005 C .08400001 .45300005 .030000002 .32200004 .030000002 .29900003 C .030000002 .28900004 .04 .28900004 .045 .28900004 C .058000007 .28900004 .058000007 .29000003 .063 .30600003 C .09 .39200003 .142 .43100003 .18200001 .43100003 C .211 .43100003 .23000002 .40800003 .23000002 .36800004 C .23000002 .344 .21800003 .29500003 .20900002 .25800003 C .19800002 .21700002 .197 .21300002 .186 .16700001 C .17 .102000009 .149 .022000002 .089 .022000002 C .08600001 .022000002 .062 .022000002 .045 .036000004 C .075 .044 .08400001 .069000009 .08400001 .08400001 C .08400001 .11000001 .063 .116000007 .050000006 .116000007 C .024999999 .116000007 0 .095000009 0 .062000004 C 0 .023000002 .042000005 0 .088 0 C .136 0 .16900002 .038000004 .186 .068 C .206 .011000001 .25500003 0 .28100003 0 C .384 0 .43500004 .134 .43500004 .15400002 C .43500004 .16400002 .42700003 .16400002 .42000003 .16400002 C .40800003 .16400002 .407 .16300002 .402 .14700002 C .37500004 .061 .32500003 .022000002 .28300003 .022000002 C .263 .022000002 .236 .034 .236 .086 C .236 .11000001 .24700001 .15300001 .25500003 .18700002 C .266 .22900002 .28100003 .291 .289 .32400004 C .303 .37600003 .33 .43100003 .377 .43100003 C .38000003 .43100003 .40500004 .43100003 .42100004 .41700004 Z "/>
</symbol>
<symbol id="font_1_8">
<path d="M .171 .20800002 C .215 .19800002 .26000003 .18800001 .26000003 .134 C .26000003 .102000009 .23300001 .022000002 .13000001 .022000002 C .10800001 .022000002 .049999998 .027000003 .034 .078 C .08500001 .083000008 .08500001 .12500002 .08500001 .127 C .08500001 .14600002 .072 .15900001 .051 .15900001 C .027999998 .15900001 0 .14200002 0 .097 C 0 .036000004 .058 0 .12900001 0 C .279 0 .317 .12200001 .317 .16800002 C .317 .25500003 .23900002 .27300004 .19800002 .28200004 C .17 .28800003 .134 .29600004 .134 .33900003 C .134 .36300005 .155 .43100003 .23500002 .43100003 C .26200003 .43100003 .29900003 .42100004 .31 .38200004 C .278 .37800003 .27 .351 .27 .34100003 C .27 .33 .27600003 .31300003 .3 .31300003 C .317 .31300003 .34300003 .32500003 .34300003 .36800004 C .34300003 .41400004 .30200003 .45300005 .236 .45300005 C .119 .45300005 .07800001 .35700003 .07800001 .305 C .07800001 .22800002 .143 .21400002 .171 .20800002 Z "/>
</symbol>
<use xlink:href="#font_1_2" transform="matrix(9.9626,0,0,-9.9626,61.338197,74.41059)"/>
<use xlink:href="#font_1_6" transform="matrix(9.9626,0,0,-9.9626,66.77777,74.41059)"/>
<use xlink:href="#font_1_7" transform="matrix(9.9626,0,0,-9.9626,71.59967,74.41059)"/>
<use xlink:href="#font_1_3" transform="matrix(9.9626,0,0,-9.9626,75.80389,74.41059)"/>
<use xlink:href="#font_1_b" transform="matrix(9.9626,0,0,-9.9626,78.65319,74.41059)"/>
<use xlink:href="#font_1_6" transform="matrix(9.9626,0,0,-9.9626,83.2061,74.41059)"/>
<use xlink:href="#font_1_5" transform="matrix(9.9626,0,0,-9.9626,88.028,74.41059)"/>
<use xlink:href="#font_1_9" transform="matrix(9.9626,0,0,-9.9626,93.70668,74.41059)"/>
<use xlink:href="#font_1_1" transform="matrix(9.9626,0,0,-9.9626,97.18363,74.41059)"/>
<use xlink:href="#font_1_4" transform="matrix(9.9626,0,0,-9.9626,102.13505,74.41059)"/>
<use xlink:href="#font_1_1" transform="matrix(9.9626,0,0,-9.9626,108.391559,74.41059)"/>
<use xlink:href="#font_1_a" transform="matrix(9.9626,0,0,-9.9626,112.9345,74.41059)"/>
<use xlink:href="#font_1_3" transform="matrix(9.9626,0,0,-9.9626,117.856029,74.41059)"/>
<use xlink:href="#font_1_8" transform="matrix(9.9626,0,0,-9.9626,120.8448,74.41059)"/>
<path transform="matrix(1,0,0,-1,7.332,63.589)" stroke-width="1" stroke-linecap="butt" stroke-miterlimit="10" stroke-linejoin="miter" fill="none" stroke="#808080" d="M 0 0 L 32.51819 46.44073 "/>
<symbol id="font_0_4">
<path d="M .059000009 .07000001 C .056 .055000005 .050000006 .032 .050000006 .027000003 C .050000006 .009000001 .064 0 .079 0 C .091000009 0 .10900001 .008000001 .11600001 .028 C .118 .032 .15200001 .16800002 .156 .18600002 C .164 .21900001 .18200001 .28900004 .18800001 .316 C .19200002 .32900004 .22000002 .37600003 .244 .39800004 C .252 .40500004 .281 .43100003 .324 .43100003 C .35 .43100003 .365 .41900004 .366 .41900004 C .336 .41400004 .314 .39000003 .314 .36400003 C .314 .34800003 .325 .32900004 .352 .32900004 C .379 .32900004 .407 .35200004 .407 .388 C .407 .42300005 .375 .45300005 .324 .45300005 C .259 .45300005 .21500002 .404 .19600001 .37600003 C .18800001 .42100004 .15200001 .45300005 .105000007 .45300005 C .059000009 .45300005 .040000008 .41400004 .031000002 .39600004 C .013000002 .36200003 0 .30200003 0 .29900003 C 0 .28900004 .01 .28900004 .012 .28900004 C .022000002 .28900004 .023 .29000003 .029000001 .31200005 C .046000005 .38300003 .06600001 .43100003 .10200001 .43100003 C .119 .43100003 .133 .42300005 .133 .38500003 C .133 .36400003 .13000001 .35300002 .11700001 .30100004 L .059000009 .07000001 Z "/>
</symbol>
<use xlink:href="#font_0_4" transform="matrix(5.7143485,-8.160863,-8.160863,-5.7143485,19.371487,39.97419)"/>
<symbol id="font_2_1">
<path d="M .23200003 .00999999 C .23200003 .012999982 .23200003 .014999986 .215 .03199999 C .09 .15799999 .058 .347 .058 .5 C .058 .674 .096 .84800007 .21900001 .97300007 C .23200003 .985 .23200003 .98700007 .23200003 .99 C .23200003 .99700006 .22800002 1 .222 1 C .21200001 1 .12200001 .93200007 .06299999 .805 C .012000002 .69500008 0 .584 0 .5 C 0 .422 .011 .301 .066 .188 C .126 .065 .21200001 0 .222 0 C .22800002 0 .23200003 .0029999912 .23200003 .00999999 Z "/>
</symbol>
<use xlink:href="#font_2_1" transform="matrix(9.9626,0,0,-9.9626,30.162297,13.356655)"/>
<symbol id="font_0_2">
<path d="M .117000009 .194 C .117000009 .26 .092 .29900003 .05300001 .29900003 C .020000004 .29900003 0 .274 0 .246 C 0 .21900001 .020000004 .193 .05300001 .193 C .065000008 .193 .078 .197 .08800001 .206 C .091 .208 .092 .209 .093 .209 C .094000007 .209 .095000009 .208 .095000009 .194 C .095000009 .12 .06000001 .060000004 .027000003 .026999996 C .016000003 .016000003 .016000003 .013999999 .016000003 .0109999929 C .016000003 .003999993 .021000006 0 .026 0 C .037 0 .117000009 .077 .117000009 .194 Z "/>
</symbol>
<symbol id="font_0_1">
<path d="M .41300003 .511 C .41300003 .577 .395 .716 .293 .716 C .15400002 .716 0 .43400003 0 .20500002 C 0 .111 .029 0 .12 0 C .261 0 .41300003 .28700004 .41300003 .511 M .106 .374 C .123 .43800003 .143 .518 .183 .589 C .21000001 .638 .24700001 .694 .29200004 .694 C .34100003 .694 .34700004 .63 .34700004 .573 C .34700004 .524 .33900003 .47300003 .31500004 .374 L .106 .374 M .30600003 .34200005 C .29500003 .29600004 .27400003 .21100001 .23600003 .13900002 C .201 .071 .16300002 .022000002 .12 .022000002 C .087000008 .022000002 .066 .051000004 .066 .14400001 C .066 .18600002 .072000008 .24400002 .098 .34200005 L .30600003 .34200005 Z "/>
</symbol>
<use xlink:href="#font_0_4" transform="matrix(9.9626,0,0,-9.9626,33.33891,10.975594)"/>
<use xlink:href="#font_0_2" transform="matrix(9.9626,0,0,-9.9626,38.12096,12.788787)"/>
<use xlink:href="#font_0_1" transform="matrix(9.9626,0,0,-9.9626,42.115964,10.975594)"/>
<symbol id="font_2_2">
<path d="M .232 .5 C .232 .578 .22100002 .699 .16600001 .81200006 C .106 .93500009 .020000004 1 .009999998 1 C .0040000008 1 0 .99600008 0 .99 C 0 .98700007 0 .985 .019000002 .967 C .117000009 .86800006 .174 .709 .174 .5 C .174 .329 .137 .153 .012999997 .026999996 C 0 .014999986 0 .012999982 0 .00999999 C 0 .003999993 .0040000008 0 .009999998 0 C .020000004 0 .11000001 .06799999 .169 .195 C .22 .305 .232 .416 .232 .5 Z "/>
</symbol>
<use xlink:href="#font_2_2" transform="matrix(9.9626,0,0,-9.9626,47.21787,13.356655)"/>
<path transform="matrix(1,0,0,-1,7.332,63.589)" stroke-width="1" stroke-linecap="butt" stroke-miterlimit="10" stroke-linejoin="miter" fill="none" stroke="#808080" d="M 21.2601 0 C 21.2601 6.93507 17.87492 13.43774 13.82663 16.27228 "/>
<path transform="matrix(-.81923,-.57364,-.57364,.81923,21.15864,47.31672)" d="M 1.99252 0 L -1.19551 1.59401 L 0 0 L -1.19551 -1.59401 " fill="#808080"/>
<use xlink:href="#font_0_1" transform="matrix(9.9626,0,0,-9.9626,30.41643,54.070589)"/>
<path transform="matrix(1,0,0,-1,7.332,63.589)" d="M 1.49442 0 C 1.49442 .82533 .82533 1.49442 0 1.49442 C -.82533 1.49442 -1.49442 .82533 -1.49442 0 C -1.49442 -.82533 -.82533 -1.49442 0 -1.49442 C .82533 -1.49442 1.49442 -.82533 1.49442 0 Z M 0 0 "/>
<path transform="matrix(1,0,0,-1,7.332,63.589)" stroke-width="1" stroke-linecap="butt" stroke-miterlimit="10" stroke-linejoin="miter" fill="none" stroke="#000000" d="M 1.49442 0 C 1.49442 .82533 .82533 1.49442 0 1.49442 C -.82533 1.49442 -1.49442 .82533 -1.49442 0 C -1.49442 -.82533 -.82533 -1.49442 0 -1.49442 C .82533 -1.49442 1.49442 -.82533 1.49442 0 Z M 0 0 "/>
<path transform="matrix(1,0,0,-1,7.332,63.589)" d="M 33.37535 47.66489 C 32.69928 48.13828 31.76743 47.97397 31.29404 47.2979 C 30.82065 46.62181 30.98495 45.68996 31.66103 45.21657 C 32.33711 44.74318 33.26897 44.90749 33.74236 45.58357 C 34.21574 46.25964 34.05144 47.1915 33.37535 47.66489 Z M 32.51819 46.44073 "/>
<path transform="matrix(1,0,0,-1,7.332,63.589)" stroke-width="1" stroke-linecap="butt" stroke-miterlimit="10" stroke-linejoin="miter" fill="none" stroke="#000000" d="M 33.37535 47.66489 C 32.69928 48.13828 31.76743 47.97397 31.29404 47.2979 C 30.82065 46.62181 30.98495 45.68996 31.66103 45.21657 C 32.33711 44.74318 33.26897 44.90749 33.74236 45.58357 C 34.21574 46.25964 34.05144 47.1915 33.37535 47.66489 Z M 32.51819 46.44073 "/>
</svg>
