<?xml version="1.0" encoding="UTF-8" standalone="no"?>
<!DOCTYPE svg PUBLIC "-//W3C//DTD SVG 1.1//EN" "http://www.w3.org/Graphics/SVG/1.1/DTD/svg11.dtd">
<svg xmlns="http://www.w3.org/2000/svg" xmlns:xlink="http://www.w3.org/1999/xlink" version="1.1" width="191.301pt" height="142.512pt" viewBox="0 0 191.301 142.512">
<path transform="matrix(1,0,0,-1,66.544,100.349)" d="M 49.57262 29.63733 L 69.64693 35.33177 L 86.10841 43.60066 L 65.0904 59.77707 L 46.37428 54.46793 L 37.71777 44.06442 " fill="#cccce6"/>
<path transform="matrix(1,0,0,-1,66.544,100.349)" stroke-width="1" stroke-linecap="butt" stroke-miterlimit="10" stroke-linejoin="miter" fill="none" stroke="#000000" d="M 49.57262 29.63733 L 69.64693 35.33177 L 86.10841 43.60066 L 65.0904 59.77707 L 46.37428 54.46793 L 37.71777 44.06442 "/>
<path transform="matrix(1,0,0,-1,66.544,100.349)" stroke-width="1" stroke-linecap="butt" stroke-miterlimit="10" stroke-linejoin="miter" fill="none" stroke="#000000" d="M 18.06049 -11.3968 L 18.3494 -11.32462 L 18.6383 -11.25243 L 18.92693 -11.1794 L 19.21426 -11.10533 L 19.50038 -11.03143 L 19.78543 -10.95613 L 20.07074 -10.88069 L 20.3541 -10.80408 L 20.63611 -10.72723 L 20.91858 -10.64986 L 21.19817 -10.57135 L 21.47934 -10.49295 L 21.75655 -10.413 L 22.03499 -10.3329 L 22.31107 -10.25233 L 22.58653 -10.17087 L 22.8615 -10.08891 L 23.13434 -10.00616 L 23.4077 -9.92311 L 23.6773 -9.83916 L 23.94797 -9.7546 L 24.21635 -9.66982 L 24.48438 -9.58398 L 22.8541 -10.10672 "/>
<path transform="matrix(.95242,-.30539,-.30539,-.95242,89.3981,110.45572)" d="M 1.99252 0 L -1.19551 1.59401 L 0 0 L -1.19551 -1.59401 "/>
<path transform="matrix(1,0,0,-1,66.544,100.349)" stroke-width="1" stroke-linecap="butt" stroke-dasharray="2.98883,2.98883" stroke-miterlimit="10" stroke-linejoin="miter" fill="none" stroke="#000000" d="M 44.32056 -32.89908 L 45.09097 -32.70657 L 45.86137 -32.51407 L 46.63101 -32.31934 L 47.39726 -32.1218 L 48.16026 -31.92474 L 48.92038 -31.72395 L 49.68121 -31.52278 L 50.43681 -31.3185 L 51.18886 -31.11353 L 51.94212 -30.90724 L 52.68767 -30.69788 L 53.43752 -30.48878 L 54.17674 -30.27562 L 54.9192 -30.06197 L 55.6554 -29.84717 L 56.38995 -29.62993 L 57.12325 -29.41136 L 57.85078 -29.19069 L 58.57979 -28.96924 L 59.29869 -28.74535 L 60.02046 -28.51988 L 60.73615 -28.2938 L 61.45091 -28.06488 L 62.1641 -27.83621 "/>
<path transform="matrix(1,0,0,-1,66.544,100.349)" stroke-width="1" stroke-linecap="butt" stroke-miterlimit="10" stroke-linejoin="miter" fill="none" stroke="#000000" d="M 54.82458 -41.49998 L 55.78758 -41.25938 L 56.7506 -41.01875 L 57.71265 -40.7753 L 58.67046 -40.52841 L 59.62422 -40.28207 L 60.57436 -40.03108 L 61.52539 -39.77962 L 62.46991 -39.52426 L 63.40996 -39.26807 L 64.35153 -39.01016 L 65.28346 -38.7485 L 66.22078 -38.48715 L 67.1448 -38.22067 L 68.0729 -37.95361 L 68.99313 -37.68509 L 69.91132 -37.41353 L 70.82794 -37.14037 L 71.73737 -36.86452 L 72.64859 -36.58768 L 73.54724 -36.30782 L 74.44948 -36.02599 L 75.34409 -35.7434 L 76.23753 -35.45726 L 77.129 -35.1714 "/>
<path transform="matrix(1,0,0,-1,66.544,100.349)" stroke-width="1" stroke-linecap="butt" stroke-miterlimit="10" stroke-linejoin="miter" fill="none" stroke="#000000" d="M 8.2067 8.59787 L 8.29114 8.49977 L 8.37604 8.40154 L 8.46082 8.30371 L 8.5448 8.20499 L 8.6286 8.10648 L 8.71307 8.00761 L 8.79625 7.90839 L 8.87962 7.809 L 8.96327 7.70976 L 9.04584 7.60988 L 9.12839 7.50998 L 9.21144 7.40984 L 9.29321 7.30931 L 9.37546 7.20865 L 9.45738 7.10812 L 9.53867 7.00694 L 9.61998 6.9059 L 9.70113 6.80486 L 9.78166 6.70331 L 9.86232 6.60149 L 9.94298 6.49968 L 10.02289 6.39735 L 10.10258 6.29529 L 8.9556 7.76443 "/>
<path transform="matrix(.61559,.7885,.7885,-.61559,75.49958,92.58457)" d="M 1.99252 0 L -1.19551 1.59401 L 0 0 L -1.19551 -1.59401 "/>
<path transform="matrix(1,0,0,-1,66.544,100.349)" stroke-width="1" stroke-linecap="butt" stroke-miterlimit="10" stroke-linejoin="miter" fill="none" stroke="#000000" d="M 2.30446 1.50453 L 4.14067 3.71132 L 5.97691 5.91808 L 7.8131 8.12488 L 9.64932 10.33163 L 11.48557 12.53842 L 13.32176 14.7452 L 15.15799 16.95198 L 16.99419 19.15875 L 18.83041 21.36552 L 20.66664 23.57231 L 22.50285 25.7791 L 24.33908 27.98587 L 26.17534 30.19264 L 28.0115 32.39941 L 29.84775 34.6062 L 31.68393 36.81299 L 33.52017 39.01974 L 35.35634 41.22653 L 37.19261 43.4333 L 39.02884 45.64008 L 40.865 47.84685 L 42.70128 50.05365 L 44.53741 52.26038 L 46.3737 54.4672 "/>
<path transform="matrix(1,0,0,-1,66.544,100.349)" stroke-width="1" stroke-linecap="butt" stroke-dasharray="2.98883,2.98883" stroke-miterlimit="10" stroke-linejoin="miter" fill="none" stroke="#000000" d="M 2.30446 1.50453 L 4.92052 3.93253 L 7.53654 6.36052 L 10.15259 8.7885 L 12.76863 11.21648 L 15.38467 13.64449 L 18.00072 16.07248 L 20.61676 18.50046 L 23.23283 20.92845 L 25.84886 23.35643 L 28.4649 25.78444 L 31.08096 28.21242 L 33.69699 30.64041 L 36.31305 33.06839 L 38.9291 35.49637 L 41.5451 37.92438 L 44.16116 40.35236 L 46.77724 42.78032 L 49.39325 45.20831 L 52.0093 47.63632 L 54.62535 50.06429 L 57.24135 52.49228 L 59.85742 54.92027 L 62.47348 57.34825 L 65.08954 59.77623 "/>
<path transform="matrix(1,0,0,-1,66.544,100.349)" stroke-width="1" stroke-linecap="butt" stroke-miterlimit="10" stroke-linejoin="miter" fill="none" stroke="#000000" d="M 2.30446 1.50453 L 4.75537 2.96326 L 7.20627 4.422 L 9.65717 5.88069 L 12.10806 7.33942 L 14.55899 8.79813 L 17.00989 10.25685 L 19.4608 11.71556 L 21.91168 13.17429 L 24.3626 14.633 L 26.8135 16.09169 L 29.26442 17.55043 L 31.71532 19.00914 L 34.16628 20.46785 L 36.61713 21.92657 L 39.06805 23.3853 L 41.5189 24.84402 L 43.96985 26.30273 L 46.42072 27.76144 L 48.87163 29.22015 L 51.32259 30.67888 L 53.77342 32.1376 L 56.2244 33.59633 L 58.67519 35.05502 L 61.12619 36.51376 "/>
<path transform="matrix(1,0,0,-1,66.544,100.349)" stroke-width="1" stroke-linecap="butt" stroke-miterlimit="10" stroke-linejoin="miter" fill="none" stroke="#000000" d="M 2.30446 1.50453 L 5.79625 3.25851 L 9.28802 5.01251 L 12.77983 6.76648 L 16.27158 8.52046 L 19.76338 10.27444 L 23.25517 12.02844 L 26.74695 13.78241 L 30.23872 15.53638 L 33.7305 17.29036 L 37.2223 19.04433 L 40.71407 20.79832 L 44.20586 22.5523 L 47.69766 24.30629 L 51.18947 26.06026 L 54.68117 27.81424 L 58.17299 29.56822 L 61.6648 31.32219 L 65.15651 33.07619 L 68.64833 34.83015 L 72.14014 36.58415 L 75.63184 38.33812 L 79.12366 40.09209 L 82.61546 41.84607 L 86.10727 43.60004 "/>
<path transform="matrix(1,0,0,-1,66.544,100.349)" stroke-width="1" stroke-linecap="butt" stroke-miterlimit="10" stroke-linejoin="miter" fill="none" stroke="#000000" d="M 37.71777 44.06442 L 38.22447 43.47586 L 38.73402 42.88654 L 39.24263 42.29951 L 39.74652 41.7071 L 40.24944 41.11627 L 40.75615 40.52307 L 41.25531 39.9276 L 41.75542 39.33134 L 42.2574 38.73584 L 42.75276 38.1365 L 43.24815 37.53719 L 43.74635 36.9363 L 44.237 36.33311 L 44.73047 35.72914 L 45.22205 35.12599 L 45.70988 34.51895 L 46.19766 33.9127 L 46.68456 33.30643 L 47.1676 32.69713 L 47.65166 32.08621 L 48.13568 31.47534 L 48.61496 30.86139 L 49.0933 30.24898 L 49.57074 29.63734 "/>
<path transform="matrix(1,0,0,-1,66.544,100.349)" stroke-width="1" stroke-linecap="butt" stroke-dasharray="2.98883,2.98883" stroke-miterlimit="10" stroke-linejoin="miter" fill="none" stroke="#000000" d="M 52.75746 48.33069 L 53.47937 47.8032 L 54.20532 47.27525 L 54.92992 46.74951 L 55.6478 46.21779 L 56.36432 45.68753 L 57.0862 45.1554 L 57.79733 44.62007 L 58.50984 44.08403 L 59.22499 43.54903 L 59.93077 43.00937 L 60.6365 42.46971 L 61.34631 41.92886 L 62.0453 41.38478 L 62.74838 40.84026 L 63.44872 40.29631 L 64.14372 39.74806 L 64.83867 39.20056 L 65.5323 38.65295 L 66.22054 38.10184 L 66.91013 37.54924 L 67.59972 36.9967 L 68.28256 36.44048 L 68.96407 35.8857 L 69.64424 35.33157 "/>
<path transform="matrix(1,0,0,-1,66.544,100.349)" stroke-width="1" stroke-linecap="butt" stroke-miterlimit="10" stroke-linejoin="miter" fill="none" stroke="#000000" d="M 46.37428 54.46793 L 47.00485 53.73552 L 47.63898 53.00212 L 48.2719 52.27164 L 48.89897 51.5344 L 49.52481 50.79912 L 50.15541 50.06093 L 50.77657 49.31987 L 51.39891 48.57787 L 52.02359 47.83684 L 52.64005 47.09099 L 53.25652 46.34515 L 53.87653 45.5974 L 54.48709 44.84677 L 55.10121 44.09517 L 55.71295 43.34456 L 56.32 42.58916 L 56.92703 41.8347 L 57.53293 41.08022 L 58.1341 40.32198 L 58.73643 39.56175 L 59.33876 38.80156 L 59.93523 38.0375 L 60.53052 37.2754 L 61.12462 36.51425 "/>
<path transform="matrix(1,0,0,-1,66.544,100.349)" stroke-width="1" stroke-linecap="butt" stroke-miterlimit="10" stroke-linejoin="miter" fill="none" stroke="#000000" d="M 65.0904 59.77707 L 65.98875 59.12064 L 66.89218 58.46362 L 67.79388 57.80936 L 68.68724 57.14769 L 69.57892 56.48781 L 70.4773 55.82559 L 71.36226 55.15938 L 72.2489 54.49234 L 73.13889 53.82655 L 74.01717 53.15498 L 74.89543 52.48341 L 75.77873 51.81035 L 76.64862 51.13327 L 77.52354 50.45566 L 78.39508 49.77873 L 79.25996 49.09645 L 80.12479 48.41513 L 80.988 47.73366 L 81.84445 47.04784 L 82.70262 46.36018 L 83.56076 45.67253 L 84.41052 44.98035 L 85.25864 44.28995 L 86.10504 43.60039 "/>
<path transform="matrix(1,0,0,-1,66.544,100.349)" stroke-width="1" stroke-linecap="butt" stroke-miterlimit="10" stroke-linejoin="miter" fill="none" stroke="#000000" d="M 46.37428 54.46793 L 47.18234 54.66982 L 47.99043 54.87173 L 48.7977 55.076 L 49.60138 55.28317 L 50.40172 55.48988 L 51.19897 55.70047 L 51.997 55.9115 L 52.78952 56.12578 L 53.57831 56.34073 L 54.3684 56.55713 L 55.1504 56.7767 L 55.9369 56.99602 L 56.71227 57.21962 L 57.491 57.44371 L 58.2632 57.669 L 59.03365 57.89687 L 59.80278 58.12611 L 60.56589 58.35756 L 61.33052 58.58986 L 62.08453 58.82469 L 62.84163 59.06119 L 63.59229 59.29831 L 64.34196 59.53842 L 65.09001 59.77826 "/>
<path transform="matrix(1,0,0,-1,66.544,100.349)" stroke-width="1" stroke-linecap="butt" stroke-miterlimit="10" stroke-linejoin="miter" fill="none" stroke="#000000" d="M 61.12697 36.51425 L 62.20552 36.7837 L 63.2841 37.05322 L 64.36163 37.32588 L 65.43433 37.6024 L 66.50258 37.87831 L 67.56674 38.15938 L 68.63191 38.44106 L 69.68973 38.72708 L 70.74257 39.01399 L 71.79716 39.30283 L 72.84096 39.5959 L 73.89072 39.88861 L 74.92566 40.18707 L 75.96507 40.48618 L 76.99576 40.7869 L 78.02412 41.09105 L 79.05072 41.39702 L 80.0693 41.70595 L 81.0899 42.01602 L 82.09633 42.32947 L 83.10687 42.64511 L 84.10878 42.96164 L 85.10945 43.28209 L 86.10793 43.60223 "/>
<path transform="matrix(1,0,0,-1,66.544,100.349)" stroke-width="1" stroke-linecap="butt" stroke-miterlimit="10" stroke-linejoin="miter" fill="none" stroke="#000000" d="M 49.57262 29.63733 L 50.43927 29.8539 L 51.30594 30.07045 L 52.1718 30.28957 L 53.03384 30.51176 L 53.89224 30.73346 L 54.7474 30.95932 L 55.60329 31.18568 L 56.45338 31.41547 L 57.29941 31.64606 L 58.1468 31.87816 L 58.98555 32.11368 L 59.82915 32.3489 L 60.66078 32.58873 L 61.496 32.82907 L 62.32423 33.07074 L 63.1506 33.31514 L 63.9756 33.561 L 64.79407 33.80927 L 65.61414 34.05841 L 66.42296 34.3103 L 67.235 34.56393 L 68.04016 34.81828 L 68.8442 35.07579 L 69.64656 35.33305 "/>
<path transform="matrix(1,0,0,-1,66.544,100.349)" stroke-width="1" stroke-linecap="butt" stroke-dasharray="2.98883,2.98883" stroke-miterlimit="10" stroke-linejoin="miter" fill="none" stroke="#000000" d="M 37.71777 44.06442 L 38.36708 44.22665 L 39.01639 44.3889 L 39.66508 44.55305 L 40.31093 44.71953 L 40.95401 44.8856 L 41.59473 45.05486 L 42.23595 45.22443 L 42.87285 45.39659 L 43.50668 45.56935 L 44.14154 45.74323 L 44.76994 45.9197 L 45.40195 46.09592 L 46.02504 46.27559 L 46.65077 46.45566 L 47.27127 46.63672 L 47.89041 46.81982 L 48.50848 47.00403 L 49.12167 47.19002 L 49.73608 47.37668 L 50.34204 47.56537 L 50.95042 47.75543 L 51.55365 47.94595 L 52.15604 48.13892 L 52.75717 48.33163 "/>
<path transform="matrix(1,0,0,-1,66.544,100.349)" stroke-width="1" stroke-linecap="butt" stroke-miterlimit="10" stroke-linejoin="miter" fill="none" stroke="#000000" d="M 2.30446 1.50453 L 4.49277 -.28726 L 6.68106 -2.07909 L 8.86935 -3.87091 L 11.05766 -5.66275 L 13.24596 -7.45457 L 15.43428 -9.2464 L 17.6226 -11.03822 L 19.8109 -12.83005 L 21.99919 -14.62187 L 24.1875 -16.41373 L 26.37581 -18.20554 L 28.56412 -19.99738 L 30.75241 -21.78918 L 32.94072 -23.58101 L 35.12903 -25.37283 L 37.31732 -27.16467 L 39.50562 -28.9565 L 41.69392 -30.74832 L 43.88223 -32.54016 L 46.07054 -34.33199 L 48.25885 -36.12381 L 50.44714 -37.91565 L 52.63544 -39.70746 L 54.82375 -41.49928 "/>
<path transform="matrix(1,0,0,-1,66.544,100.349)" stroke-width="1" stroke-linecap="butt" stroke-miterlimit="10" stroke-linejoin="miter" fill="none" stroke="#000000" d="M 2.30446 1.50453 L 5.42213 -.02365 L 8.53978 -1.55183 L 11.65742 -3.08005 L 14.77509 -4.60825 L 17.89275 -6.13644 L 21.01042 -7.66464 L 24.12807 -9.19284 L 27.24573 -10.72104 L 30.36337 -12.24925 L 33.48105 -13.77744 L 36.5987 -15.30563 L 39.71635 -16.83385 L 42.83403 -18.36203 L 45.95168 -19.89023 L 49.06932 -21.41844 L 52.187 -22.94664 L 55.30466 -24.47482 L 58.4223 -26.00304 L 61.53998 -27.53123 L 64.65762 -29.05943 L 67.77528 -30.58763 L 70.89296 -32.11583 L 74.01059 -33.64404 L 77.12825 -35.17223 "/>
<symbol id="font_0_5">
<path d="M .47600005 .694 C .47600005 .695 .47600005 .705 .46300004 .705 C .44800005 .705 .35300002 .69600006 .33600004 .694 C .32800005 .693 .32200004 .688 .32200004 .675 C .32200004 .663 .33100004 .663 .34600003 .663 C .39400003 .663 .39600004 .656 .39600004 .646 L .39300005 .626 L .33300004 .38900004 C .31500004 .42600004 .286 .45300005 .24100001 .45300005 C .124 .45300005 0 .30600003 0 .16000001 C 0 .06600001 .055000005 0 .133 0 C .153 0 .20300001 .0040000008 .263 .075 C .27100004 .033000005 .30600003 0 .35400004 0 C .38900004 0 .41200004 .023000002 .42800004 .055000005 C .44500003 .091000009 .45800004 .15200001 .45800004 .15400002 C .45800004 .16400002 .44900004 .16400002 .44600005 .16400002 C .43600003 .16400002 .43500004 .16000001 .43200005 .14600002 C .41500003 .081 .397 .022000002 .35600005 .022000002 C .32900004 .022000002 .32600004 .048 .32600004 .068 C .32600004 .092 .32800005 .09900001 .33200003 .116000007 L .47600005 .694 M .26800005 .13000001 C .263 .112 .263 .11000001 .24800001 .093 C .20400001 .038000004 .163 .022000002 .135 .022000002 C .08499999 .022000002 .07100001 .077 .07100001 .116000007 C .07100001 .16600001 .103 .28900004 .126 .335 C .157 .39400003 .202 .43100003 .242 .43100003 C .307 .43100003 .32100005 .34900005 .32100005 .34300003 C .32100005 .337 .31900005 .33100004 .31800003 .32600004 L .26800005 .13000001 Z "/>
</symbol>
<symbol id="font_0_1">
<path d="M .41300003 .511 C .41300003 .577 .395 .716 .293 .716 C .15400002 .716 0 .43400003 0 .20500002 C 0 .111 .029 0 .12 0 C .261 0 .41300003 .28700004 .41300003 .511 M .106 .374 C .123 .43800003 .143 .518 .183 .589 C .21000001 .638 .24700001 .694 .29200004 .694 C .34100003 .694 .34700004 .63 .34700004 .573 C .34700004 .524 .33900003 .47300003 .31500004 .374 L .106 .374 M .30600003 .34200005 C .29500003 .29600004 .27400003 .21100001 .23600003 .13900002 C .201 .071 .16300002 .022000002 .12 .022000002 C .087000008 .022000002 .066 .051000004 .066 .14400001 C .066 .18600002 .072000008 .24400002 .098 .34200005 L .30600003 .34200005 Z "/>
</symbol>
<use xlink:href="#font_0_5" transform="matrix(9.9626,0,0,-9.9626,71.343509,115.31458)"/>
<use xlink:href="#font_0_1" transform="matrix(9.9626,0,0,-9.9626,76.55394,115.31458)"/>
<symbol id="font_0_2">
<path d="M .0029999987 .042999999 C 0 .031000004 0 .029 0 .026999996 C 0 .0119999949 .011 0 .028 0 C .049000004 0 .061000006 .017999992 .063 .020999998 C .068 .030000002 .10000001 .164 .127 .272 C .147 .23200001 .179 .205 .22600001 .205 C .34300003 .205 .47200004 .34600003 .47200004 .495 C .47200004 .601 .40600003 .65800008 .333 .65800008 C .236 .65800008 .13100001 .558 .10100001 .43600003 L .0029999987 .042999999 M .22500003 .22700002 C .155 .22700002 .13900002 .307 .13900002 .316 C .13900002 .32 .14400001 .34 .147 .35300002 C .17500001 .46500004 .185 .50100007 .20700002 .541 C .25 .614 .3 .63600006 .33100004 .63600006 C .36800004 .63600006 .4 .60700008 .4 .53800007 C .4 .48300005 .37100003 .371 .344 .32200004 C .31100003 .259 .263 .22700002 .22500003 .22700002 Z "/>
</symbol>
<use xlink:href="#font_0_2" transform="matrix(9.9626,0,0,-9.9626,112.58088,90.05991)"/>
<symbol id="font_1_5">
<path d="M .17500001 .20500002 C .197 .20100002 .279 .18500002 .279 .113000009 C .279 .062000004 .24400002 .022000002 .16600001 .022000002 C .082 .022000002 .046000005 .079 .027000003 .16400002 C .024000004 .17700002 .023000002 .18100001 .013000004 .18100001 C 0 .18100001 0 .17400001 0 .15600002 L 0 .024 C 0 .0070000009 0 0 .011000004 0 C .016000003 0 .017 .0010000002 .036000007 .020000002 C .038000004 .022000002 .038000004 .024 .056 .043 C .1 .0010000002 .14500001 0 .16600001 0 C .28100003 0 .32700003 .067 .32700003 .13900002 C .32700003 .19200002 .29700003 .22200002 .28500004 .23400001 C .25200004 .26600004 .213 .27400003 .171 .28200004 C .115 .293 .048 .30600003 .048 .36400003 C .048 .39900003 .07400001 .44000004 .16 .44000004 C .27 .44000004 .27500005 .35000003 .277 .31900005 C .27800004 .31000004 .28700004 .31000004 .28900004 .31000004 C .30200003 .31000004 .30200003 .31500004 .30200003 .33400003 L .30200003 .43500004 C .30200003 .45200003 .30200003 .45900003 .291 .45900003 C .286 .45900003 .284 .45900003 .27100004 .44700004 C .26800005 .44300003 .25800003 .43400003 .254 .43100003 C .21600002 .45900003 .17500001 .45900003 .16 .45900003 C .038000004 .45900003 0 .39200003 0 .33600004 C 0 .30100004 .016000003 .27300004 .043000007 .25100003 C .075 .22500003 .10300001 .21900001 .17500001 .20500002 Z "/>
</symbol>
<symbol id="font_1_3">
<path d="M .144 .44200004 L .0040000008 .43100003 L .0040000008 .4 C .069000009 .4 .07800001 .39400003 .07800001 .34500004 L .07800001 .076000008 C .07800001 .031000002 .067 .031000002 0 .031000002 L 0 0 C .032000007 .001 .086 .003 .11000001 .003 C .14500001 .003 .18 .001 .21400002 0 L .21400002 .031000002 C .148 .031000002 .144 .036000004 .144 .075 L .144 .44200004 M .148 .61600008 C .148 .648 .123 .669 .095000009 .669 C .064 .669 .042000005 .642 .042000005 .61600008 C .042000005 .58900007 .064 .563 .095000009 .563 C .123 .563 .148 .58400008 .148 .61600008 Z "/>
</symbol>
<symbol id="font_1_4">
<path d="M .07800001 .344 L .07800001 .076000008 C .07800001 .031000002 .067 .031000002 0 .031000002 L 0 0 C .035 .001 .08600001 .003 .113000009 .003 C .139 .003 .191 .001 .225 0 L .225 .031000002 C .158 .031000002 .147 .031000002 .147 .076000008 L .147 .26000003 C .147 .36400003 .218 .42000003 .282 .42000003 C .345 .42000003 .356 .36600004 .356 .30900003 L .356 .076000008 C .356 .031000002 .345 .031000002 .278 .031000002 L .278 0 C .31300003 .001 .36400003 .003 .391 .003 C .41700004 .003 .46900005 .001 .503 0 L .503 .031000002 C .451 .031000002 .42600004 .031000002 .425 .061000006 L .425 .252 C .425 .33800004 .425 .36900003 .39400003 .40500004 C .38000003 .42200003 .347 .44200004 .289 .44200004 C .216 .44200004 .169 .39900003 .141 .337 L .141 .44200004 L 0 .43100003 L 0 .4 C .07000001 .4 .07800001 .393 .07800001 .344 Z "/>
</symbol>
<symbol id="font_1_1">
<path d="M .23200003 .00999999 C .23200003 .012999982 .23200003 .014999986 .215 .03199999 C .09 .15799999 .058 .347 .058 .5 C .058 .674 .096 .84800007 .21900001 .97300007 C .23200003 .985 .23200003 .98700007 .23200003 .99 C .23200003 .99700006 .22800002 1 .222 1 C .21200001 1 .12200001 .93200007 .06299999 .805 C .012000002 .69500008 0 .584 0 .5 C 0 .422 .011 .301 .066 .188 C .126 .065 .21200001 0 .222 0 C .22800002 0 .23200003 .0029999912 .23200003 .00999999 Z "/>
</symbol>
<use xlink:href="#font_1_5" transform="matrix(9.9626,0,0,-9.9626,119.42276,88.01758)"/>
<use xlink:href="#font_1_3" transform="matrix(9.9626,0,0,-9.9626,123.34802,87.90799)"/>
<use xlink:href="#font_1_4" transform="matrix(9.9626,0,0,-9.9626,126.10766,87.90799)"/>
<use xlink:href="#font_1_1" transform="matrix(9.9626,0,0,-9.9626,132.31436,90.398639)"/>
<symbol id="font_0_3">
<path d="M .120000008 .048000009 C .11600001 .034999998 .11500001 .033000009 .11500001 .027999998 C .11500001 .0059999974 .13400002 0 .14400001 0 C .14900002 0 .17100002 .003000006 .18100001 .026000008 C .18400002 .033999996 .18900001 .067 .216 .209 C .22500001 .208 .23200001 .207 .24900003 .207 C .41500003 .207 .569 .36400003 .569 .522 C .569 .6 .53000006 .66 .45499999 .66 C .31 .66 .25 .46600003 .19000001 .27100004 C .082 .291 .026000005 .347 .026000005 .41900004 C .026000005 .44700004 .049000008 .55700007 .10900001 .62600007 C .11700001 .63500007 .11700001 .637 .11700001 .63900008 C .11700001 .643 .11500001 .64900007 .105000007 .64900007 C .07700001 .64900007 0 .504 0 .40800003 C 0 .314 .066 .24100001 .17300001 .216 L .120000008 .048000009 M .25800003 .26500003 C .25 .26500003 .24800001 .26500003 .24000003 .266 C .22800003 .266 .22700002 .26700003 .22700002 .27 C .22700002 .272 .244 .36300005 .24700003 .37800003 C .278 .50600007 .356 .602 .44500003 .602 C .514 .602 .541 .54800006 .541 .5 C .541 .38700003 .412 .26500003 .25800003 .26500003 Z "/>
</symbol>
<use xlink:href="#font_0_3" transform="matrix(9.9626,0,0,-9.9626,135.69812,90.079837)"/>
<symbol id="font_1_2">
<path d="M .232 .5 C .232 .578 .22100002 .699 .16600001 .81200006 C .106 .93500009 .020000004 1 .009999998 1 C .0040000008 1 0 .99600008 0 .99 C 0 .98700007 0 .985 .019000002 .967 C .117000009 .86800006 .174 .709 .174 .5 C .174 .329 .137 .153 .012999997 .026999996 C 0 .014999986 0 .012999982 0 .00999999 C 0 .003999993 .0040000008 0 .009999998 0 C .020000004 0 .11000001 .06799999 .169 .195 C .22 .305 .232 .416 .232 .5 Z "/>
</symbol>
<use xlink:href="#font_1_2" transform="matrix(9.9626,0,0,-9.9626,142.28487,90.398639)"/>
<use xlink:href="#font_0_5" transform="matrix(9.9626,0,0,-9.9626,147.6505,88.01758)"/>
<use xlink:href="#font_0_1" transform="matrix(9.9626,0,0,-9.9626,152.86095,88.01758)"/>
<use xlink:href="#font_0_5" transform="matrix(9.9626,0,0,-9.9626,147.5905,71.80658)"/>
<use xlink:href="#font_0_2" transform="matrix(9.9626,0,0,-9.9626,152.6814,73.848918)"/>
<use xlink:href="#font_0_2" transform="matrix(9.9626,0,0,-9.9626,150.25988,45.89091)"/>
<use xlink:href="#font_0_5" transform="matrix(9.9626,0,0,-9.9626,157.17392,43.84858)"/>
<use xlink:href="#font_0_3" transform="matrix(9.9626,0,0,-9.9626,162.46407,45.91084)"/>
<symbol id="font_0_4">
<path d="M .572 .591 C .62100008 .669 .66300007 .67200008 .70000007 .674 C .712 .6750001 .71300008 .69200006 .71300008 .693 C .71300008 .70100006 .70800009 .70500007 .70000007 .70500007 C .674 .70500007 .64500007 .702 .61800006 .702 C .58500006 .702 .55100008 .70500007 .51900008 .70500007 C .513 .70500007 .50000008 .70500007 .50000008 .68600007 C .50000008 .6750001 .509 .674 .51600006 .674 C .54300007 .67200008 .56200006 .66200008 .56200006 .64100006 C .56200006 .62600007 .54700008 .60400006 .54700008 .60300007 L .24000001 .115 L .17200002 .64400008 C .17200002 .6610001 .19500003 .674 .24100003 .674 C .25500003 .674 .26600004 .674 .26600004 .69400009 C .26600004 .70300009 .25800003 .70500007 .25200004 .70500007 C .21200001 .70500007 .169 .702 .12800002 .702 C .11000001 .702 .091 .70300009 .07300001 .70300009 C .055000009 .70300009 .036000007 .70500007 .019000002 .70500007 C .012000002 .70500007 0 .70500007 0 .68600007 C 0 .674 .009000003 .674 .024999999 .674 C .08100001 .674 .08200001 .665 .085 .64000007 L .164 .023000002 C .167 .0030000006 .171 0 .18400002 0 C .20000002 0 .20400003 .005000001 .21200001 .018000002 L .572 .591 Z "/>
</symbol>
<use xlink:href="#font_0_5" transform="matrix(9.9626,0,0,-9.9626,116.27251,39.94458)" fill="#000080"/>
<use xlink:href="#font_0_4" transform="matrix(9.9626,0,0,-9.9626,121.62242,40.05417)" fill="#000080"/>
<path transform="matrix(1,0,0,-1,66.544,100.349)" stroke-width="1" stroke-linecap="butt" stroke-miterlimit="10" stroke-linejoin="miter" fill="none" stroke="#000000" d="M 56.5286 20.32361 L 59.30067 30.42418 "/>
<path transform="matrix(.26494,-.96542,-.96542,-.26494,125.844669,69.92482)" d="M 1.99252 0 L -1.19551 1.59401 L 0 0 L -1.19551 -1.59401 "/>
<path transform="matrix(1,0,0,-1,66.544,100.349)" stroke-width="1" stroke-linecap="butt" stroke-miterlimit="10" stroke-linejoin="miter" fill="none" stroke="#000000" d="M 81.60701 35.35378 L 78.66269 37.81087 "/>
<path transform="matrix(-.76949,-.64215,-.64215,.76949,145.2067,62.538129)" d="M 1.99252 0 L -1.19551 1.59401 L 0 0 L -1.19551 -1.59401 "/>
<path transform="matrix(1,0,0,-1,66.544,100.349)" stroke-width="1" stroke-linecap="butt" stroke-miterlimit="10" stroke-linejoin="miter" fill="none" stroke="#000000" d="M 81.94261 53.89809 L 77.6709 52.45119 "/>
<path transform="matrix(-.94963,.32162,.32162,.94963,144.2149,47.897809)" d="M 1.99252 0 L -1.19551 1.59401 L 0 0 L -1.19551 -1.59401 "/>
<path transform="matrix(1,0,0,-1,66.544,100.349)" stroke-width="1" stroke-linecap="butt" stroke-miterlimit="10" stroke-linejoin="miter" fill="none" stroke="#000000" d="M 11.20065 6.4847 L -58.22302 -32.3793 "/>
<path transform="matrix(-.87622,.4905,.4905,.87622,8.32098,132.7283)" d="M 1.99252 0 L -1.19551 1.59401 L 0 0 L -1.19551 -1.59401 "/>
<path transform="matrix(1,0,0,-1,66.544,100.349)" stroke-width="1" stroke-linecap="butt" stroke-miterlimit="10" stroke-linejoin="miter" fill="none" stroke="#000000" d="M -8.8962 3.59496 L 112.35013 -19.03374 "/>
<path transform="matrix(.98418,.18367,.18367,-.98418,178.89414,119.38274)" d="M 1.99252 0 L -1.19551 1.59401 L 0 0 L -1.19551 -1.59401 "/>
<path transform="matrix(1,0,0,-1,66.544,100.349)" stroke-width="1" stroke-linecap="butt" stroke-miterlimit="10" stroke-linejoin="miter" fill="none" stroke="#000000" d="M 2.30446 -7.07059 L 2.30446 89.55089 "/>
<path transform="matrix(0,-1,-1,-0,68.84846,10.798111)" d="M 1.99252 0 L -1.19551 1.59401 L 0 0 L -1.19551 -1.59401 "/>
<symbol id="font_2_1">
<path d="M .201 .116000007 C .19100002 .082 .15800002 .028 .107 .028 C .10400001 .028 .07400001 .028 .053000004 .042000005 C .094000007 .055000005 .09700001 .091 .09700001 .097 C .09700001 .119 .080000009 .134 .057000005 .134 C .029000007 .134 0 .11 0 .073 C 0 .023000002 .056 0 .10500001 0 C .15100003 0 .192 .029000003 .21700001 .071 C .241 .018000002 .296 0 .336 0 C .451 0 .512 .125 .512 .15300001 C .512 .16600001 .49900005 .16600001 .49600003 .16600001 C .48200003 .16600001 .48100005 .16100002 .47700004 .14900002 C .456 .08 .39600004 .028 .34 .028 C .3 .028 .279 .055000005 .279 .093 C .279 .119 .303 .21000001 .331 .321 C .351 .398 .39600004 .423 .42900003 .423 C .43100003 .423 .46200005 .423 .483 .409 C .451 .4 .439 .372 .439 .354 C .439 .33200003 .456 .317 .479 .317 C .50200006 .317 .535 .336 .535 .37800003 C .535 .43400003 .47100006 .451 .43100003 .451 C .381 .451 .34100003 .418 .319 .38 C .301 .421 .255 .451 .199 .451 C .087000008 .451 .023000002 .328 .023000002 .298 C .023000002 .285 .037 .285 .040000008 .285 C .053000004 .285 .054000006 .289 .059000009 .30200003 C .084 .38 .14700002 .423 .19600001 .423 C .229 .423 .256 .405 .256 .357 C .256 .337 .24400002 .287 .23500002 .25300003 L .201 .116000007 Z "/>
</symbol>
<use xlink:href="#font_2_1" transform="matrix(6.9738,0,0,-6.9738,3.6557415,139.26174)"/>
<symbol id="font_2_2">
<path d="M .50900009 .58100005 C .513 .595 .513 .597 .513 .60300007 C .513 .623 .49700005 .63500007 .48000003 .63500007 C .46900005 .63500007 .45000003 .63000008 .43900005 .611 C .43600003 .605 .42800004 .573 .42300005 .55300006 L .40200005 .47000004 C .39600004 .44600005 .36500005 .32000003 .36200003 .30900003 C .36100004 .30900003 .31700004 .22200002 .23900001 .22200002 C .171 .22200002 .171 .287 .171 .305 C .171 .35900004 .194 .42200003 .22400002 .499 C .23600002 .531 .24100001 .54300007 .24100001 .56 C .24100001 .60800006 .2 .64500007 .146 .64500007 C .045000007 .64500007 0 .509 0 .49200005 C 0 .47900004 .014000002 .47900004 .017 .47900004 C .031 .47900004 .032 .48400004 .035 .495 C .060000007 .578 .103 .61700007 .143 .61700007 C .16000001 .61700007 .168 .606 .168 .582 C .168 .559 .15900001 .537 .154 .52400007 C .106000009 .402 .096 .365 .096 .321 C .096 .30400003 .096 .25700004 .135 .22500001 C .16600001 .19900002 .20800002 .194 .235 .194 C .27500005 .194 .31100003 .209 .34400005 .23900001 C .33100004 .18400002 .32000003 .142 .27800004 .09200001 C .25100003 .061000006 .21100001 .027999998 .158 .027999998 C .15100001 .027999998 .104 .027999998 .083000008 .061000006 C .13700001 .067 .13700001 .11500001 .13700001 .116000007 C .13700001 .148 .107999999 .15400002 .098000008 .15400002 C .073 .15400002 .040000004 .134 .040000004 .08800001 C .040000004 .037 .088 0 .15900001 0 C .26000003 0 .38300003 .07800001 .41400004 .20300001 L .50900009 .58100005 Z "/>
</symbol>
<use xlink:href="#font_2_2" transform="matrix(6.9738,0,0,-6.9738,184.01778,124.98364)"/>
<symbol id="font_2_3">
<path d="M .10700001 .098000008 C .133 .124000009 .15100001 .143 .23600002 .21100001 C .25700004 .22800002 .33200003 .28800003 .361 .316 C .422 .37600003 .46000005 .42700003 .46000005 .439 C .46000005 .451 .44700004 .451 .44300003 .451 C .43400003 .451 .431 .449 .426 .441 C .39500005 .395 .374 .38 .35000003 .38 C .338 .38 .323 .381 .29299999 .41 C .259 .444 .237 .451 .214 .451 C .134 .451 .08 .364 .08 .334 C .08 .32500003 .09 .322 .097 .322 C .109 .322 .111 .32500003 .11500001 .336 C .13000001 .37100003 .186 .373 .202 .373 C .22500001 .373 .251 .367 .265 .364 C .32 .352 .32700003 .352 .352 .352 C .32600004 .32500003 .30800004 .307 .21300002 .23100002 C .135 .16900002 .10800001 .14400001 .089 .124000009 C .029 .065000008 0 .021000002 0 .012000001 C 0 0 .012999997 0 .016999998 0 C .027000003 0 .029 .0020000004 .034 .010000001 C .061000006 .048000006 .09200001 .071 .126 .071 C .13800001 .071 .15300001 .07 .18 .045 C .21100001 .015000001 .23100002 0 .263 0 C .37 0 .43700005 .12100001 .43700005 .15500002 C .43700005 .16700001 .426 .16800002 .42000003 .16800002 C .408 .16800002 .40600003 .16300002 .402 .15200001 C .38300003 .102000009 .324 .078 .27500005 .078 C .25200004 .078 .22700002 .083000008 .202 .089 C .156 .099 .148 .099 .13000001 .099 C .128 .099 .113000009 .099 .10700001 .098000008 Z "/>
</symbol>
<use xlink:href="#font_2_3" transform="matrix(6.9738,0,0,-6.9738,67.2274,6.392736)"/>
</svg>
