<?xml version="1.0" encoding="UTF-8" standalone="no"?>
<!DOCTYPE svg PUBLIC "-//W3C//DTD SVG 1.1//EN" "http://www.w3.org/Graphics/SVG/1.1/DTD/svg11.dtd">
<svg xmlns="http://www.w3.org/2000/svg" xmlns:xlink="http://www.w3.org/1999/xlink" version="1.1" width="399.964pt" height="184.465pt" viewBox="0 0 399.964 184.465">
<clipPath id="cp0">
<path transform="matrix(1,0,0,-1,.199,184.26599)" d="M 0 0 L 387.1725 0 L 387.1725 171.16226 L 0 171.16226 Z "/>
</clipPath>
<g clip-path="url(#cp0)">
<path transform="matrix(1,0,0,-1,.199,184.26599)" d="M 64.52875 85.83847 L 118.3027 85.83847 L 118.3027 21.01991 L 64.52875 21.01991 Z " fill="#cccce6"/>
<path transform="matrix(1,0,0,-1,.199,184.26599)" stroke-width=".3985" stroke-linecap="butt" stroke-miterlimit="10" stroke-linejoin="miter" fill="none" stroke="#000080" d="M 64.52875 85.83847 L 118.3027 85.83847 L 118.3027 21.01991 L 64.52875 21.01991 Z "/>
<path transform="matrix(1,0,0,-1,.199,184.26599)" stroke-width=".3985" stroke-linecap="butt" stroke-miterlimit="10" stroke-linejoin="miter" fill="none" stroke="#000000" d="M 69.90614 15.35065 C 70.27972 14.60344 71.15149 14.1053 72.39684 14.1053 L 88.92503 14.1053 C 90.17038 14.1053 91.04213 13.60718 91.41573 12.85995 C 91.7893 13.60718 92.66107 14.1053 93.90642 14.1053 L 110.43462 14.1053 C 111.67996 14.1053 112.55171 14.60344 112.92531 15.35065 "/>
<path transform="matrix(1,0,0,-1,.199,184.26599)" d="M 118.3027 83.80223 L 172.07128 83.80223 L 172.07128 21.01991 L 118.3027 21.01991 Z " fill="#cccce6"/>
<path transform="matrix(1,0,0,-1,.199,184.26599)" stroke-width=".3985" stroke-linecap="butt" stroke-miterlimit="10" stroke-linejoin="miter" fill="none" stroke="#000080" d="M 118.3027 83.80223 L 172.07128 83.80223 L 172.07128 21.01991 L 118.3027 21.01991 Z "/>
<path transform="matrix(1,0,0,-1,.199,184.26599)" stroke-width=".3985" stroke-linecap="butt" stroke-miterlimit="10" stroke-linejoin="miter" fill="none" stroke="#000000" d="M 123.6801 15.35065 C 124.05368 14.60344 124.92545 14.1053 126.17079 14.1053 L 142.69899 14.1053 C 143.94434 14.1053 144.81609 13.60718 145.18968 12.85995 C 145.56327 13.60718 146.43503 14.1053 147.68038 14.1053 L 164.20858 14.1053 C 165.45392 14.1053 166.32567 14.60344 166.69927 15.35065 "/>
<path transform="matrix(1,0,0,-1,.199,184.26599)" d="M 172.07128 106.868 L 225.85062 106.868 L 225.85062 21.01991 L 172.07128 21.01991 Z " fill="#cccce6"/>
<path transform="matrix(1,0,0,-1,.199,184.26599)" stroke-width=".3985" stroke-linecap="butt" stroke-miterlimit="10" stroke-linejoin="miter" fill="none" stroke="#000080" d="M 172.07128 106.868 L 225.85062 106.868 L 225.85062 21.01991 L 172.07128 21.01991 Z "/>
<path transform="matrix(1,0,0,-1,.199,184.26599)" stroke-width=".3985" stroke-linecap="butt" stroke-miterlimit="10" stroke-linejoin="miter" fill="none" stroke="#000000" d="M 177.45406 15.35065 C 177.82764 14.60344 178.6994 14.1053 179.94475 14.1053 L 196.47295 14.1053 C 197.71829 14.1053 198.59004 13.60718 198.96364 12.85995 C 199.33722 13.60718 200.20899 14.1053 201.45433 14.1053 L 217.98253 14.1053 C 219.22788 14.1053 220.09963 14.60344 220.47322 15.35065 "/>
<path transform="matrix(1,0,0,-1,.199,184.26599)" d="M 225.85062 133.82785 L 279.62458 133.82785 L 279.62458 21.01991 L 225.85062 21.01991 Z " fill="#cccce6"/>
<path transform="matrix(1,0,0,-1,.199,184.26599)" stroke-width=".3985" stroke-linecap="butt" stroke-miterlimit="10" stroke-linejoin="miter" fill="none" stroke="#000080" d="M 225.85062 133.82785 L 279.62458 133.82785 L 279.62458 21.01991 L 225.85062 21.01991 Z "/>
<path transform="matrix(1,0,0,-1,.199,184.26599)" stroke-width=".3985" stroke-linecap="butt" stroke-miterlimit="10" stroke-linejoin="miter" fill="none" stroke="#000000" d="M 231.22801 15.35065 C 231.60161 14.60344 232.47336 14.1053 233.7187 14.1053 L 250.2469 14.1053 C 251.49225 14.1053 252.36402 13.60718 252.7376 12.85995 C 253.11119 13.60718 253.98294 14.1053 255.22829 14.1053 L 271.75648 14.1053 C 273.00184 14.1053 273.8736 14.60344 274.2472 15.35065 "/>
<path transform="matrix(1,0,0,-1,.199,184.26599)" d="M 279.62458 139.8984 L 333.39317 139.8984 L 333.39317 21.01991 L 279.62458 21.01991 Z " fill="#cccce6"/>
<path transform="matrix(1,0,0,-1,.199,184.26599)" stroke-width=".3985" stroke-linecap="butt" stroke-miterlimit="10" stroke-linejoin="miter" fill="none" stroke="#000080" d="M 279.62458 139.8984 L 333.39317 139.8984 L 333.39317 21.01991 L 279.62458 21.01991 Z "/>
<path transform="matrix(1,0,0,-1,.199,184.26599)" stroke-width=".3985" stroke-linecap="butt" stroke-miterlimit="10" stroke-linejoin="miter" fill="none" stroke="#000000" d="M 285.00199 15.35065 C 285.37556 14.60344 286.2473 14.1053 287.49266 14.1053 L 304.02088 14.1053 C 305.2662 14.1053 306.13798 13.60718 306.51155 12.85995 C 306.88517 13.60718 307.7569 14.1053 309.00224 14.1053 L 325.53044 14.1053 C 326.7758 14.1053 327.64756 14.60344 328.02113 15.35065 "/>
<path transform="matrix(1,0,0,-1,.199,184.26599)" stroke-width="1.59404" stroke-linecap="butt" stroke-miterlimit="10" stroke-linejoin="miter" fill="none" stroke="#000080" d="M 0 117.07048 C 0 117.07048 11.65556 110.55821 16.13219 108.10818 C 20.6088 105.65814 27.78775 101.68037 32.26437 99.41223 C 36.74098 97.1441 43.91994 93.6443 48.39656 91.76097 C 52.87317 89.87764 60.05212 87.16887 64.52875 85.83847 C 69.00536 84.50806 76.18431 82.831 80.66093 82.1723 C 85.13754 81.5136 92.3165 81.0191 96.79312 81.09096 C 101.26973 81.16283 108.44868 81.89426 112.92531 82.69028 C 117.40192 83.4863 124.58087 85.37906 129.0575 86.8282 C 133.5341 88.27734 140.71306 91.16203 145.18968 93.13478 C 149.66629 95.10753 156.84525 98.72612 161.32187 101.04639 C 165.79848 103.36665 172.97743 107.3974 177.45406 109.85764 C 181.93068 112.31789 189.10962 116.3976 193.58625 118.77818 C 198.06287 121.15877 205.2418 124.92688 209.71843 127.01529 C 214.19506 129.10369 221.374 132.22061 225.85062 133.82996 C 230.32724 135.4393 237.50618 137.62752 241.9828 138.6144 C 246.45943 139.60128 253.63837 140.6666 258.115 140.94281 C 262.5916 141.21903 269.77055 141.0644 274.2472 140.60529 C 278.7238 140.14615 285.90278 138.78725 290.37937 137.63365 C 294.856 136.48007 302.03495 134.03617 306.51155 132.291 C 310.98817 130.54582 318.16716 127.23625 322.64375 125.05565 C 327.12037 122.87505 334.29933 118.99577 338.7759 116.57469 C 343.25257 114.15361 350.4315 110.05165 354.9081 107.6061 C 359.38475 105.16055 366.5637 101.20056 371.0403 98.9489 C 375.5169 96.69722 387.1725 91.37752 387.1725 91.37752 "/>
<path transform="matrix(1,0,0,-1,.199,184.26599)" stroke-width=".3985" stroke-linecap="butt" stroke-miterlimit="10" stroke-linejoin="miter" fill="none" stroke="#000000" d="M 56.17078 24.02277 C 55.42357 24.39636 54.92543 25.26811 54.92543 26.51346 L 54.92543 50.93849 C 54.92543 52.18384 54.4273 53.0556 53.68008 53.42918 C 54.4273 53.80278 54.92543 54.67453 54.92543 55.91988 L 54.92543 80.34492 C 54.92543 81.59027 55.42357 82.46204 56.17078 82.83562 "/>
<path transform="matrix(1,0,0,-1,.199,184.26599)" stroke-width=".3985" stroke-linecap="butt" stroke-miterlimit="10" stroke-linejoin="miter" fill="none" stroke="#000000" d="M 341.7565 24.02277 C 342.50373 24.39636 343.00187 25.26811 343.00187 26.51346 L 343.00187 77.96846 C 343.00187 79.2138 343.49998 80.08557 344.2472 80.45915 C 343.49998 80.83275 343.00187 81.7045 343.00187 82.94984 L 343.00187 134.40486 C 343.00187 135.6502 342.50373 136.52198 341.7565 136.89556 "/>
<symbol id="font_1_1">
<path d="M .39500005 .698 C .38800005 .711 .38600005 .716 .36900003 .716 C .35200004 .716 .35000003 .711 .34300003 .698 L .004999999 .020000002 C 0 .011000001 0 .009000001 0 .008 C 0 0 .006000001 0 .022000004 0 L .716 0 C .73200008 0 .73800006 0 .73800006 .008 C .73800006 .009000001 .73800006 .011000001 .73300006 .020000002 L .39500005 .698 M .337 .61600008 L .60600009 .076000008 L .067 .076000008 L .337 .61600008 Z "/>
</symbol>
<use xlink:href="#font_1_1" transform="matrix(9.9626,0,0,-9.9626,85.084239,181.66399)"/>
<symbol id="font_2_2">
<path d="M .305 .31300003 C .311 .33900003 .334 .43100003 .404 .43100003 C .409 .43100003 .433 .43100003 .454 .418 C .426 .41300003 .40600003 .388 .40600003 .36400003 C .40600003 .34800003 .417 .32900004 .444 .32900004 C .46600003 .32900004 .498 .34700004 .498 .38700003 C .498 .43900005 .439 .45300005 .405 .45300005 C .347 .45300005 .312 .40000005 .3 .37700004 C .275 .44300003 .221 .45300005 .19200002 .45300005 C .08800001 .45300005 .031000002 .32400004 .031000002 .29900003 C .031000002 .28900004 .041 .28900004 .043000007 .28900004 C .051000008 .28900004 .054000006 .291 .056 .3 C .09 .40600003 .156 .43100003 .19000001 .43100003 C .209 .43100003 .244 .42200003 .244 .36400003 C .244 .33300004 .22700002 .26600004 .19000001 .126 C .17400001 .064 .13900002 .022000002 .095000009 .022000002 C .08900001 .022000002 .06600001 .022000002 .045 .035 C .07000001 .040000004 .09200001 .061 .09200001 .089 C .09200001 .116000007 .07000001 .124000009 .055000009 .124000009 C .025 .124000009 0 .098000008 0 .06600001 C 0 .020000002 .050000006 0 .094000007 0 C .16000001 0 .19600001 .07000001 .19900002 .076000008 C .21100001 .039 .24700003 0 .307 0 C .41 0 .467 .12900001 .467 .15400002 C .467 .16400002 .458 .16400002 .455 .16400002 C .446 .16400002 .444 .16000001 .442 .15300001 C .409 .046 .341 .022000002 .30900003 .022000002 C .27 .022000002 .254 .054 .254 .08800001 C .254 .11000001 .26 .13200002 .271 .17600002 L .305 .31300003 Z "/>
</symbol>
<use xlink:href="#font_2_2" transform="matrix(9.9626,0,0,-9.9626,93.20692,181.77358)"/>
<use xlink:href="#font_1_1" transform="matrix(9.9626,0,0,-9.9626,138.85726,181.66399)"/>
<use xlink:href="#font_2_2" transform="matrix(9.9626,0,0,-9.9626,146.97992,181.77358)"/>
<use xlink:href="#font_1_1" transform="matrix(9.9626,0,0,-9.9626,192.63025,181.66399)"/>
<use xlink:href="#font_2_2" transform="matrix(9.9626,0,0,-9.9626,200.75292,181.77358)"/>
<use xlink:href="#font_1_1" transform="matrix(9.9626,0,0,-9.9626,246.40425,181.66399)"/>
<use xlink:href="#font_2_2" transform="matrix(9.9626,0,0,-9.9626,254.52692,181.77358)"/>
<use xlink:href="#font_1_1" transform="matrix(9.9626,0,0,-9.9626,300.17726,181.66399)"/>
<use xlink:href="#font_2_2" transform="matrix(9.9626,0,0,-9.9626,308.29994,181.77358)"/>
<symbol id="font_3_1">
<path d="M .395 .606 C .41500003 .606 .42300005 .606 .42300005 .62500008 C .42300005 .63500007 .41500003 .63500007 .397 .63500007 L .316 .63500007 C .335 .73800006 .349 .809 .35700003 .841 C .36300005 .865 .38400004 .888 .41000004 .888 C .43100003 .888 .45200003 .879 .462 .87 C .42300005 .86600008 .411 .837 .411 .82000008 C .411 .8 .42600004 .78800007 .44500003 .78800007 C .46500004 .78800007 .495 .805 .495 .84300008 C .495 .88500007 .453 .90800008 .409 .90800008 C .36600004 .90800008 .32400004 .87600007 .30400003 .837 C .286 .80200007 .27600003 .76600006 .25300003 .63500007 L .18600002 .63500007 C .16700001 .63500007 .157 .63500007 .157 .61700007 C .157 .606 .16300002 .606 .18300002 .606 L .24700001 .606 C .229 .513 .18800001 .287 .165 .18 C .14800002 .093 .13300002 .019999996 .083000008 .019999996 C .08000001 .019999996 .051000004 .019999996 .033000005 .039000006 C .08400001 .042999999 .08400001 .087000008 .08400001 .08800001 C .08400001 .10800001 .069000009 .120000008 .05 .120000008 C .029999998 .120000008 0 .10300001 0 .065 C 0 .022 .044000005 0 .083000008 0 C .18500002 0 .22700003 .18300002 .238 .23300001 C .256 .31 .305 .57600006 .31000004 .606 L .395 .606 Z "/>
</symbol>
<use xlink:href="#font_3_1" transform="matrix(11.9552,0,0,-11.9552,70.252719,138.64586)"/>
<symbol id="font_4_2">
<path d="M .22700002 .008000001 C .22700002 .011000007 .22700002 .013000011 .21000003 .030000002 C .11 .13100001 .054000006 .296 .054000006 .5 C .054000006 .694 .10100001 .86100009 .21700002 .9790001 C .22700002 .98800006 .22700002 .99 .22700002 .99300006 C .22700002 .9990001 .22200002 1.001 .21800001 1.001 C .205 1.001 .12300001 .929 .074 .8310001 C .023000002 .73 0 .623 0 .5 C 0 .411 .013999999 .29200004 .066 .18500002 C .125 .06500001 .207 0 .21800001 0 C .22200002 0 .22700002 .002000004 .22700002 .008000001 Z "/>
</symbol>
<use xlink:href="#font_4_2" transform="matrix(11.9552,0,0,-11.9552,77.8606,139.20777)"/>
<symbol id="font_3_2">
<path d="M .44600005 .418 C .41400004 .412 .402 .388 .402 .36900003 C .402 .345 .42100004 .337 .43500004 .337 C .46500004 .337 .486 .363 .486 .39000003 C .486 .432 .43800003 .451 .39600004 .451 C .335 .451 .30100004 .391 .29200004 .372 C .26900003 .447 .20700002 .451 .18900001 .451 C .087 .451 .033000005 .32 .033000005 .298 C .033000005 .294 .037000006 .289 .044000005 .289 C .052000006 .289 .054 .29500003 .056000007 .299 C .09 .41 .157 .43100003 .18600002 .43100003 C .231 .43100003 .24000001 .389 .24000001 .365 C .24000001 .343 .23400003 .32 .222 .272 L .18800001 .135 C .17300001 .075 .14400001 .020000002 .091000009 .020000002 C .08600001 .020000002 .061 .020000002 .040000004 .033000005 C .076000008 .040000004 .08400001 .07 .08400001 .082 C .08400001 .102000009 .069000009 .114 .05 .114 C .026 .114 0 .093 0 .061000006 C 0 .019000002 .047000003 0 .09 0 C .13800001 0 .172 .038000004 .19300002 .079 C .20900002 .020000002 .259 0 .296 0 C .39800004 0 .45200003 .13100001 .45200003 .15300001 C .45200003 .158 .448 .16200002 .44200004 .16200002 C .43300004 .16200002 .432 .157 .42900003 .14900002 C .402 .061000006 .344 .020000002 .29900003 .020000002 C .26400004 .020000002 .245 .046000005 .245 .087000008 C .245 .109000008 .24900002 .125 .26500003 .19100002 L .3 .327 C .31500004 .387 .349 .43100003 .395 .43100003 C .397 .43100003 .425 .43100003 .44600005 .418 Z "/>
</symbol>
<use xlink:href="#font_3_2" transform="matrix(11.9552,0,0,-11.9552,81.575748,136.32656)"/>
<symbol id="font_5_1">
<path d="M .34300003 .098 C .35200004 .092 .35500003 .092 .36 .092 C .37600003 .092 .39000003 .10500001 .39000003 .123 C .39000003 .14200002 .38000003 .146 .36500005 .153 C .29800005 .18400002 .27400003 .19500003 .22500003 .215 L .34200005 .268 C .35000003 .271 .36900003 .28 .37700004 .283 C .38700003 .289 .39000003 .299 .39000003 .308 C .39000003 .32 .38400004 .33900003 .35400004 .33900003 L .21000001 .241 L .224 .389 C .22600001 .40600003 .224 .43100003 .19500003 .43100003 C .17700002 .43100003 .16300002 .416 .16600001 .402 L .16600001 .39000003 L .18 .241 L .047000007 .333 C .038000004 .33900003 .035000005 .33900003 .030000002 .33900003 C .014000006 .33900003 0 .326 0 .308 C 0 .289 .010000005 .285 .025000006 .278 C .092 .24700001 .116000007 .236 .16500002 .21599999 L .048000009 .16300002 C .040000008 .16 .021000006 .151 .013000004 .148 C .003000006 .14200002 0 .132 0 .123 C 0 .10500001 .014000006 .092 .030000002 .092 C .038000004 .092 .040000008 .092 .065000008 .11000001 L .18 .19 L .16500002 .029 C .16500002 .009 .18200001 0 .19500003 0 C .20800004 0 .22500003 .009 .22500003 .029 C .22500003 .039000006 .22100002 .071 .22000003 .083000008 C .21600002 .117000009 .21300003 .155 .21000001 .19 L .34300003 .098 Z "/>
</symbol>
<use xlink:href="#font_5_1" transform="matrix(7.9701,0,0,-7.9701,88.450908,131.00002)"/>
<symbol id="font_6_1">
<path d="M .21800001 .637 C .21800001 .66400006 .216 .665 .18900003 .665 C .14800002 .625 .09500001 .601 0 .601 L 0 .568 C .027000003 .568 .081 .568 .13900002 .595 L .13900002 .082 C .13900002 .045 .136 .033 .04100001 .033 L .0060000049 .033 L .0060000049 0 C .047000007 .003 .13300002 .003 .17800002 .003 C .223 .003 .31 .003 .351 0 L .351 .033 L .31600005 .033 C .221 .033 .21800001 .045 .21800001 .082 L .21800001 .637 Z "/>
</symbol>
<use xlink:href="#font_6_1" transform="matrix(7.9701,0,0,-7.9701,88.65813,139.16199)"/>
<symbol id="font_4_3">
<path d="M .227 .5 C .227 .57600006 .21700001 .70000007 .161 .816 C .102 .9360001 .02 1.001 .009 1.001 C .004999999 1.001 0 .9990001 0 .99300006 C 0 .99 0 .98800006 .017 .9710001 C .117 .87 .17300001 .70500007 .17300001 .50100007 C .17300001 .307 .126 .14000002 .010000002 .022 C 0 .013000011 0 .011000007 0 .008000001 C 0 .002000004 .004999999 0 .009 0 C .022000004 0 .104 .07200001 .153 .17000002 C .204 .272 .227 .38000003 .227 .5 Z "/>
</symbol>
<symbol id="font_4_1">
<path d="M .38500003 .69600006 C .37800003 .71000006 .37600003 .71400007 .36200003 .71400007 C .347 .71400007 .34500004 .71000006 .338 .69600006 L .003999997 .020000002 C .0019999967 .017 0 .011000001 0 .007 C 0 .001 .0009999983 0 .020999998 0 L .702 0 C .722 0 .72300007 .001 .72300007 .007 C .72300007 .011000001 .721 .017 .71900007 .020000002 L .38500003 .69600006 M .331 .62200006 L .60400006 .069000009 L .059 .069000009 L .331 .62200006 Z "/>
</symbol>
<use xlink:href="#font_4_3" transform="matrix(11.9552,0,0,-11.9552,93.28354,139.20777)"/>
<use xlink:href="#font_4_1" transform="matrix(11.9552,0,0,-11.9552,97.73087,136.207)"/>
<use xlink:href="#font_3_2" transform="matrix(11.9552,0,0,-11.9552,107.267749,136.32656)"/>
<use xlink:href="#font_3_1" transform="matrix(11.9552,0,0,-11.9552,124.02572,138.64586)"/>
<use xlink:href="#font_4_2" transform="matrix(11.9552,0,0,-11.9552,131.63362,139.20777)"/>
<use xlink:href="#font_3_2" transform="matrix(11.9552,0,0,-11.9552,135.34975,136.32656)"/>
<use xlink:href="#font_5_1" transform="matrix(7.9701,0,0,-7.9701,142.2249,131.00002)"/>
<symbol id="font_6_2">
<path d="M .229 .20400001 C .245 .21900001 .287 .252 .303 .266 C .365 .323 .42400003 .37800003 .42400003 .469 C .42400003 .588 .324 .665 .199 .665 C .078999999 .665 0 .574 0 .485 C 0 .43600003 .039000006 .42900003 .053000004 .42900003 C .074 .42900003 .105000007 .44400005 .105000007 .48200003 C .105000007 .53400006 .055 .53400006 .042999999 .53400006 C .072 .60700008 .139 .632 .18800001 .632 C .28100003 .632 .32900004 .55300006 .32900004 .469 C .32900004 .365 .256 .289 .13800001 .16800002 L .012000002 .038000004 C 0 .027 0 .025 0 0 L .395 0 L .42400003 .179 L .393 .179 C .39000003 .15900001 .38200004 .109000008 .37 .09 C .36400003 .082 .28800003 .082 .272 .082 L .094 .082 L .229 .20400001 Z "/>
</symbol>
<use xlink:href="#font_6_2" transform="matrix(7.9701,0,0,-7.9701,142.0894,139.16199)"/>
<use xlink:href="#font_4_3" transform="matrix(11.9552,0,0,-11.9552,147.05652,139.20777)"/>
<use xlink:href="#font_4_1" transform="matrix(11.9552,0,0,-11.9552,151.50386,136.207)"/>
<use xlink:href="#font_3_2" transform="matrix(11.9552,0,0,-11.9552,161.04074,136.32656)"/>
<use xlink:href="#font_3_1" transform="matrix(11.9552,0,0,-11.9552,177.79872,138.64586)"/>
<use xlink:href="#font_4_2" transform="matrix(11.9552,0,0,-11.9552,185.40663,139.20777)"/>
<use xlink:href="#font_3_2" transform="matrix(11.9552,0,0,-11.9552,189.12276,136.32656)"/>
<use xlink:href="#font_5_1" transform="matrix(7.9701,0,0,-7.9701,195.99791,131.00002)"/>
<symbol id="font_6_3">
<path d="M .20900002 .35500003 C .28800003 .35500003 .33800004 .29700003 .33800004 .192 C .33800004 .067 .26700003 .030000002 .21400002 .030000002 C .15900001 .030000002 .08400001 .050000006 .049 .103 C .08500001 .103 .110000018 .126 .110000018 .15900001 C .110000018 .191 .08700001 .214 .055000005 .214 C .028 .214 0 .19700001 0 .157 C 0 .062000004 .10200001 0 .21600002 0 C .349 0 .44200004 .09200001 .44200004 .192 C .44200004 .275 .37600003 .351 .27400003 .37300004 C .35300002 .40100003 .41200004 .469 .41200004 .549 C .41200004 .62900009 .32200004 .68600007 .21800003 .68600007 C .111 .68600007 .029999998 .6280001 .029999998 .55200007 C .029999998 .51500007 .055000005 .499 .081 .499 C .112 .499 .13200002 .521 .13200002 .5500001 C .13200002 .5870001 .10000001 .6010001 .07800001 .60200008 C .120000008 .65700009 .19700001 .6600001 .215 .6600001 C .24100003 .6600001 .31700004 .65200009 .31700004 .549 C .31700004 .47900004 .28800003 .437 .27400003 .421 C .24400002 .39000003 .22100002 .388 .16000001 .384 C .141 .38300003 .133 .38200004 .133 .36900003 C .133 .35500003 .142 .35500003 .15900001 .35500003 L .20900002 .35500003 Z "/>
</symbol>
<use xlink:href="#font_6_3" transform="matrix(7.9701,0,0,-7.9701,195.79068,139.32936)"/>
<use xlink:href="#font_4_3" transform="matrix(11.9552,0,0,-11.9552,200.82953,139.20777)"/>
<use xlink:href="#font_4_1" transform="matrix(11.9552,0,0,-11.9552,205.27687,136.207)"/>
<use xlink:href="#font_3_2" transform="matrix(11.9552,0,0,-11.9552,214.81475,136.32656)"/>
<use xlink:href="#font_3_1" transform="matrix(11.9552,0,0,-11.9552,231.57172,138.64586)"/>
<use xlink:href="#font_4_2" transform="matrix(11.9552,0,0,-11.9552,239.18062,139.20777)"/>
<use xlink:href="#font_3_2" transform="matrix(11.9552,0,0,-11.9552,242.89575,136.32656)"/>
<use xlink:href="#font_5_1" transform="matrix(7.9701,0,0,-7.9701,249.7709,131.00002)"/>
<symbol id="font_6_4">
<path d="M .36400003 .647 C .36400003 .66700008 .36400003 .675 .34300003 .675 C .33 .675 .32900004 .674 .319 .66 L 0 .19700001 L 0 .164 L .282 .164 L .282 .081 C .282 .044000005 .279 .033 .202 .033 L .179 .033 L .179 0 C .264 .003 .266 .003 .323 .003 C .38000003 .003 .38200004 .003 .467 0 L .467 .033 L .44400005 .033 C .367 .033 .36400003 .044000005 .36400003 .081 L .36400003 .164 L .47 .164 L .47 .19700001 L .36400003 .19700001 L .36400003 .647 M .289 .56600007 L .289 .19700001 L .035000005 .19700001 L .289 .56600007 Z "/>
</symbol>
<use xlink:href="#font_6_4" transform="matrix(7.9701,0,0,-7.9701,249.4521,139.16199)"/>
<use xlink:href="#font_4_3" transform="matrix(11.9552,0,0,-11.9552,254.60253,139.20777)"/>
<use xlink:href="#font_4_1" transform="matrix(11.9552,0,0,-11.9552,259.04988,136.207)"/>
<use xlink:href="#font_3_2" transform="matrix(11.9552,0,0,-11.9552,268.58775,136.32656)"/>
<use xlink:href="#font_3_1" transform="matrix(11.9552,0,0,-11.9552,285.3457,138.64586)"/>
<use xlink:href="#font_4_2" transform="matrix(11.9552,0,0,-11.9552,292.95359,139.20777)"/>
<use xlink:href="#font_3_2" transform="matrix(11.9552,0,0,-11.9552,296.66874,136.32656)"/>
<use xlink:href="#font_5_1" transform="matrix(7.9701,0,0,-7.9701,303.54389,131.00002)"/>
<symbol id="font_6_5">
<path d="M .087 .58300009 C .10000001 .57900008 .14 .56900009 .18200001 .56900009 C .307 .56900009 .38300003 .65700009 .38300003 .67200008 C .38300003 .6830001 .37600003 .68600007 .37100003 .68600007 C .36900003 .68600007 .367 .68600007 .358 .68100008 C .319 .66600009 .273 .65400007 .21900001 .65400007 C .16000001 .65400007 .111 .669 .08 .68100008 C .07 .68600007 .068 .68600007 .067 .68600007 C .054000006 .68600007 .054000006 .6750001 .054000006 .65700009 L .054000006 .36400003 C .054000006 .34600003 .054000006 .33400003 .07 .33400003 C .07800001 .33400003 .081 .338 .08600001 .34600003 C .098000008 .361 .136 .41200004 .22100002 .41200004 C .277 .41200004 .30400003 .36600004 .31300003 .347 C .33 .31100003 .33200003 .26500003 .33200003 .22600001 C .33200003 .18900001 .331 .135 .303 .091000009 C .284 .061000006 .24400002 .030000002 .19100002 .030000002 C .126 .030000002 .062 .071 .039000006 .136 C .042000005 .135 .048 .135 .049000004 .135 C .07700001 .135 .09900001 .153 .09900001 .184 C .09900001 .221 .07 .23400001 .050000006 .23400001 C .031999999 .23400001 0 .224 0 .18100001 C 0 .091000009 .07800001 0 .193 0 C .31800003 0 .42400003 .097 .42400003 .221 C .42400003 .337 .34 .44000004 .222 .44000004 C .172 .44000004 .125 .42400003 .087 .39000003 L .087 .58300009 Z "/>
</symbol>
<use xlink:href="#font_6_5" transform="matrix(7.9701,0,0,-7.9701,303.40843,139.32936)"/>
<use xlink:href="#font_4_3" transform="matrix(11.9552,0,0,-11.9552,308.37654,139.20777)"/>
<use xlink:href="#font_4_1" transform="matrix(11.9552,0,0,-11.9552,312.82386,136.207)"/>
<use xlink:href="#font_3_2" transform="matrix(11.9552,0,0,-11.9552,322.36076,136.32656)"/>
<symbol id="font_2_1">
<path d="M .314 .605 L .4 .605 C .42000003 .605 .43 .605 .43 .625 C .43 .63600006 .42000003 .63600006 .40300004 .63600006 L .32000003 .63600006 L .34100003 .75 C .34500004 .771 .35900004 .842 .365 .8540001 C .374 .873 .39100004 .888 .41200004 .888 C .416 .888 .44200004 .888 .461 .87 C .41700004 .86600008 .407 .8310001 .407 .816 C .407 .793 .425 .781 .444 .781 C .47 .781 .49900005 .8030001 .49900005 .8410001 C .49900005 .8870001 .45300005 .9100001 .41200004 .9100001 C .37800003 .9100001 .31500004 .8920001 .28500004 .793 C .279 .7720001 .27600003 .7620001 .252 .63600006 L .18300002 .63600006 C .164 .63600006 .15300001 .63600006 .15300001 .61700007 C .15300001 .605 .162 .605 .18100001 .605 L .24700001 .605 L .172 .21000001 C .15400002 .113000009 .13700001 .022 .08500001 .022 C .081 .022 .056 .022 .037 .040000008 C .083000008 .043000014 .09200001 .07900001 .09200001 .094000007 C .09200001 .117000009 .074 .12900001 .055 .12900001 C .029 .12900001 0 .10700001 0 .069000009 C 0 .024000004 .044 0 .08500001 0 C .14 0 .18 .059 .19800002 .09700001 C .23000002 .16000001 .25300003 .28100003 .254 .28800003 L .314 .605 Z "/>
</symbol>
<use xlink:href="#font_2_1" transform="matrix(9.9626,0,0,-9.9626,27.008017,135.37033)"/>
<symbol id="font_1_2">
<path d="M .23200003 .00999999 C .23200003 .012999982 .23200003 .014999986 .215 .03199999 C .09 .15799999 .058 .347 .058 .5 C .058 .674 .096 .84800007 .21900001 .97300007 C .23200003 .985 .23200003 .98700007 .23200003 .99 C .23200003 .99700006 .22800002 1 .222 1 C .21200001 1 .12200001 .93200007 .06299999 .805 C .012000002 .69500008 0 .584 0 .5 C 0 .422 .011 .301 .066 .188 C .126 .065 .21200001 0 .222 0 C .22800002 0 .23200003 .0029999912 .23200003 .00999999 Z "/>
</symbol>
<use xlink:href="#font_1_2" transform="matrix(9.9626,0,0,-9.9626,33.416299,135.81865)"/>
<use xlink:href="#font_2_2" transform="matrix(9.9626,0,0,-9.9626,36.592916,133.43759)"/>
<symbol id="font_7_1">
<path d="M .23400001 .215 C .31600005 .25100003 .35300005 .26500003 .37800003 .277 C .397 .285 .40600003 .289 .40600003 .308 C .40600003 .32500003 .393 .34 .375 .34 C .36800004 .34 .366 .34 .35400004 .331 L .21800001 .24000001 L .23300003 .388 C .235 .40600003 .23300003 .43100003 .20300003 .43100003 C .191 .43100003 .172 .423 .172 .40100003 C .172 .39200003 .17600002 .36200003 .177 .352 C .179 .335 .186 .263 .18800001 .24000001 L .053000004 .331 C .042999999 .337 .040000008 .34 .031000004 .34 C .013000004 .34 0 .32500003 0 .308 C 0 .28800003 .012000002 .283 .021000006 .279 L .172 .21599999 C .09 .18 .053000004 .16600001 .028000005 .15400002 C .009000003 .146 0 .14200002 0 .123 C 0 .106 .013000004 .091 .031000004 .091 C .038000004 .091 .040000008 .091 .052 .1 L .18800001 .19100002 L .172 .030000002 C .172 .008000001 .191 0 .20300003 0 C .21500002 0 .23400001 .008000001 .23400001 .030000002 C .23400001 .039000006 .23 .069000009 .22900002 .079 C .22700002 .09600001 .22000002 .16800002 .21800001 .19100002 L .338 .11100001 C .36400003 .091 .366 .091 .375 .091 C .393 .091 .40600003 .106 .40600003 .123 C .40600003 .143 .394 .148 .38500006 .15200001 L .23400001 .215 Z "/>
</symbol>
<use xlink:href="#font_7_1" transform="matrix(6.9738,0,0,-6.9738,42.618669,128.97789)"/>
<symbol id="font_8_1">
<path d="M .22600001 .63600006 C .22600001 .66300007 .224 .66400006 .19600001 .66400006 C .132 .601 .041 .6 0 .6 L 0 .564 C .023999997 .564 .09000001 .564 .14500001 .592 L .14500001 .082 C .14500001 .049000004 .14500001 .036000004 .04500001 .036000004 L .0069999995 .036000004 L .0069999995 0 C .024999999 .001 .148 .004 .185 .004 C .21600002 .004 .34200005 .001 .36400003 0 L .36400003 .036000004 L .32600004 .036000004 C .22600001 .036000004 .22600001 .049000004 .22600001 .082 L .22600001 .63600006 Z "/>
</symbol>
<use xlink:href="#font_8_1" transform="matrix(6.9738,0,0,-6.9738,42.758146,135.791)"/>
<symbol id="font_1_3">
<path d="M .232 .5 C .232 .578 .22100002 .699 .16600001 .81200006 C .106 .93500009 .020000004 1 .009999998 1 C .0040000008 1 0 .99600008 0 .99 C 0 .98700007 0 .985 .019000002 .967 C .117000009 .86800006 .174 .709 .174 .5 C .174 .329 .137 .153 .012999997 .026999996 C 0 .014999986 0 .012999982 0 .00999999 C 0 .003999993 .0040000008 0 .009999998 0 C .020000004 0 .11000001 .06799999 .169 .195 C .22 .305 .232 .416 .232 .5 Z "/>
</symbol>
<use xlink:href="#font_1_3" transform="matrix(9.9626,0,0,-9.9626,47.14587,135.81865)"/>
<use xlink:href="#font_2_1" transform="matrix(9.9626,0,0,-9.9626,348.39604,108.34133)"/>
<use xlink:href="#font_1_2" transform="matrix(9.9626,0,0,-9.9626,354.80433,108.78964)"/>
<use xlink:href="#font_2_2" transform="matrix(9.9626,0,0,-9.9626,357.98094,106.408588)"/>
<use xlink:href="#font_7_1" transform="matrix(6.9738,0,0,-6.9738,364.00669,101.94789)"/>
<symbol id="font_8_5">
<path d="M .092 .578 C .143 .565 .17300001 .565 .18900001 .565 C .321 .565 .39900003 .65500006 .39900003 .67 C .39900003 .681 .39200003 .684 .38700003 .684 C .38500003 .684 .38300003 .684 .37900005 .681 C .35500003 .672 .30200003 .652 .22800002 .652 C .20000002 .652 .14700002 .654 .08200001 .679 C .072000008 .684 .07 .684 .069 .684 C .056 .684 .056 .67300006 .056 .657 L .056 .36200003 C .056 .34500004 .056 .33300004 .072000008 .33300004 C .08100001 .33300004 .08200001 .33500005 .092 .34700004 C .13500002 .40200005 .19600001 .41000004 .231 .41000004 C .291 .41000004 .31800003 .36200003 .323 .35400004 C .34100003 .32100005 .34700004 .28300003 .34700004 .22500001 C .34700004 .19500001 .34700004 .136 .31700004 .09200001 C .29200004 .056 .24900002 .032 .20000002 .032 C .13500002 .032 .06800001 .068 .043000007 .134 C .08100001 .13100001 .1 .156 .1 .183 C .1 .22600001 .063 .23400001 .050000006 .23400001 C .048000009 .23400001 0 .23400001 0 .18 C 0 .09 .08200001 0 .20200002 0 C .33 0 .442 .095000009 .442 .221 C .442 .33400003 .35600005 .43800003 .23200003 .43800003 C .18800003 .43800003 .136 .42700003 .092 .38900004 L .092 .578 Z "/>
</symbol>
<use xlink:href="#font_8_5" transform="matrix(6.9738,0,0,-6.9738,363.82539,108.901477)"/>
<use xlink:href="#font_1_3" transform="matrix(9.9626,0,0,-9.9626,368.53388,108.78965)"/>
<use xlink:href="#font_2_1" transform="matrix(9.9626,0,0,-9.9626,53.26902,94.460338)"/>
<use xlink:href="#font_1_2" transform="matrix(9.9626,0,0,-9.9626,59.6773,94.908649)"/>
<use xlink:href="#font_2_2" transform="matrix(9.9626,0,0,-9.9626,62.853918,92.52759)"/>
<use xlink:href="#font_7_1" transform="matrix(6.9738,0,0,-6.9738,68.87967,88.067897)"/>
<use xlink:href="#font_8_1" transform="matrix(6.9738,0,0,-6.9738,69.01915,94.881)"/>
<use xlink:href="#font_1_3" transform="matrix(9.9626,0,0,-9.9626,73.406879,94.908649)"/>
<use xlink:href="#font_2_1" transform="matrix(9.9626,0,0,-9.9626,107.042018,96.49633)"/>
<use xlink:href="#font_1_2" transform="matrix(9.9626,0,0,-9.9626,113.450298,96.94464)"/>
<use xlink:href="#font_2_2" transform="matrix(9.9626,0,0,-9.9626,116.626918,94.56358)"/>
<use xlink:href="#font_7_1" transform="matrix(6.9738,0,0,-6.9738,122.652667,90.10389)"/>
<symbol id="font_8_2">
<path d="M .442 .18200001 L .40800003 .18200001 C .40500004 .16000001 .39500005 .101 .38200004 .091000009 C .374 .085 .29700003 .085 .28300003 .085 L .099 .085 C .20400003 .178 .23900002 .20600002 .29900003 .25300003 C .37300004 .312 .442 .374 .442 .469 C .442 .59000006 .33600004 .66400006 .20800004 .66400006 C .084 .66400006 0 .577 0 .485 C 0 .43400003 .043000007 .42900003 .053000004 .42900003 C .077 .42900003 .10600001 .446 .10600001 .48200003 C .10600001 .5 .099 .535 .047000007 .535 C .078 .606 .146 .628 .19300002 .628 C .293 .628 .34500004 .55 .34500004 .469 C .34500004 .38200004 .28300003 .31300003 .25100003 .277 L .010000005 .039 C 0 .030000002 0 .028 0 0 L .41200004 0 L .442 .18200001 Z "/>
</symbol>
<use xlink:href="#font_8_2" transform="matrix(6.9738,0,0,-6.9738,122.471347,96.91699)"/>
<use xlink:href="#font_1_3" transform="matrix(9.9626,0,0,-9.9626,127.17987,96.94464)"/>
<use xlink:href="#font_2_1" transform="matrix(9.9626,0,0,-9.9626,160.81502,73.431339)"/>
<use xlink:href="#font_1_2" transform="matrix(9.9626,0,0,-9.9626,167.2233,73.87965)"/>
<use xlink:href="#font_2_2" transform="matrix(9.9626,0,0,-9.9626,170.40091,71.49859)"/>
<use xlink:href="#font_7_1" transform="matrix(6.9738,0,0,-6.9738,176.42667,67.037899)"/>
<symbol id="font_8_3">
<path d="M .219 .35400004 C .29700003 .35400004 .35300002 .3 .35300002 .193 C .35300002 .069000009 .28100003 .032 .223 .032 C .18300002 .032 .095 .043000007 .053000008 .102000009 C .10000001 .10400001 .111 .13700001 .111 .158 C .111 .19 .087 .213 .056000007 .213 C .028 .213 0 .19600001 0 .155 C 0 .061000006 .104 0 .22500001 0 C .36400003 0 .46 .09300001 .46 .193 C .46 .27100004 .39600004 .34900005 .286 .37200005 C .39100004 .41000004 .42900003 .48500005 .42900003 .546 C .42900003 .625 .33800004 .684 .22700002 .684 C .116 .684 .031 .63 .031 .55 C .031 .51600006 .053000008 .49700005 .083000008 .49700005 C .11400001 .49700005 .134 .52 .134 .548 C .134 .577 .11400001 .598 .083000008 .6 C .118 .644 .187 .65500006 .22400002 .65500006 C .26900003 .65500006 .33200003 .633 .33200003 .546 C .33200003 .504 .31800003 .45800004 .29200004 .42700003 C .25900004 .38900004 .23100002 .38700003 .18100001 .38400004 C .156 .38200004 .154 .38200004 .149 .38100005 C .147 .38100005 .139 .37900005 .139 .36800004 C .139 .35400004 .148 .35400004 .165 .35400004 L .219 .35400004 Z "/>
</symbol>
<use xlink:href="#font_8_3" transform="matrix(6.9738,0,0,-6.9738,176.18259,73.99148)"/>
<use xlink:href="#font_1_3" transform="matrix(9.9626,0,0,-9.9626,180.95388,73.879657)"/>
<use xlink:href="#font_2_1" transform="matrix(9.9626,0,0,-9.9626,214.58902,46.46932)"/>
<use xlink:href="#font_1_2" transform="matrix(9.9626,0,0,-9.9626,220.9973,46.917638)"/>
<use xlink:href="#font_2_2" transform="matrix(9.9626,0,0,-9.9626,224.1739,44.536577)"/>
<use xlink:href="#font_7_1" transform="matrix(6.9738,0,0,-6.9738,230.19966,40.07687)"/>
<symbol id="font_8_4">
<path d="M .49000005 .164 L .49000005 .2 L .379 .2 L .379 .646 C .379 .66700008 .379 .674 .35700003 .674 C .345 .674 .34100003 .674 .331 .66 L 0 .2 L 0 .164 L .294 .164 L .294 .082 C .294 .048 .294 .036000004 .213 .036000004 L .186 .036000004 L .186 0 C .236 .002 .3 .004 .33600004 .004 C .37300004 .004 .437 .002 .48700003 0 L .48700003 .036000004 L .46 .036000004 C .379 .036000004 .379 .048 .379 .082 L .379 .164 L .49000005 .164 M .301 .56600007 L .301 .2 L .037000006 .2 L .301 .56600007 Z "/>
</symbol>
<use xlink:href="#font_8_4" transform="matrix(6.9738,0,0,-6.9738,229.85097,46.889986)"/>
<use xlink:href="#font_1_3" transform="matrix(9.9626,0,0,-9.9626,234.72687,46.917638)"/>
<use xlink:href="#font_2_1" transform="matrix(9.9626,0,0,-9.9626,268.36204,40.401327)"/>
<use xlink:href="#font_1_2" transform="matrix(9.9626,0,0,-9.9626,274.77033,40.849645)"/>
<use xlink:href="#font_2_2" transform="matrix(9.9626,0,0,-9.9626,277.94694,38.468584)"/>
<use xlink:href="#font_7_1" transform="matrix(6.9738,0,0,-6.9738,283.9727,34.007886)"/>
<use xlink:href="#font_8_5" transform="matrix(6.9738,0,0,-6.9738,283.79139,40.961469)"/>
<use xlink:href="#font_1_3" transform="matrix(9.9626,0,0,-9.9626,288.49989,40.849645)"/>
</g>
<path transform="matrix(1,0,0,-1,.199,184.26599)" stroke-width=".3985" stroke-linecap="butt" stroke-miterlimit="10" stroke-linejoin="miter" fill="none" stroke="#000000" d="M 0 21.01991 L 385.17997 21.01991 "/>
<path transform="matrix(1,0,0,-1,385.37898,163.24608)" d="M 1.99252 0 L -1.19551 1.59401 L 0 0 L -1.19551 -1.59401 "/>
<path transform="matrix(1,0,0,-1,.199,184.26599)" stroke-width=".3985" stroke-linecap="butt" stroke-miterlimit="10" stroke-linejoin="miter" fill="none" stroke="#000000" d="M 10.75479 0 L 10.75479 169.16974 "/>
<path transform="matrix(0,-1,-1,-0,10.953791,15.096252)" d="M 1.99252 0 L -1.19551 1.59401 L 0 0 L -1.19551 -1.59401 "/>
<use xlink:href="#font_2_2" transform="matrix(9.9626,0,0,-9.9626,391.2379,165.49758)"/>
<symbol id="font_2_3">
<path d="M .45700003 .586 C .461 .6 .461 .602 .461 .609 C .461 .62700006 .447 .63600006 .432 .63600006 C .42200003 .63600006 .40600003 .63 .397 .615 C .395 .61 .387 .579 .38300003 .561 C .37600003 .535 .36900003 .508 .363 .48100005 L .318 .301 C .314 .286 .271 .21600002 .20500002 .21600002 C .15400002 .21600002 .143 .26000003 .143 .29700003 C .143 .34300003 .16000001 .40500004 .194 .49300004 C .21000001 .53400006 .21400002 .545 .21400002 .56500008 C .21400002 .61 .18200001 .6470001 .13200002 .6470001 C .037 .6470001 0 .50200006 0 .49300004 C 0 .48300005 .01 .48300005 .012 .48300005 C .022000002 .48300005 .023 .485 .028000003 .50100007 C .055000009 .595 .095000009 .625 .12900001 .625 C .13700001 .625 .15400002 .625 .15400002 .59300008 C .15400002 .568 .14400001 .54200008 .13700001 .523 C .097 .41700004 .079 .36 .079 .31300003 C .079 .224 .142 .194 .201 .194 C .24000003 .194 .274 .21100001 .30200003 .23900002 C .289 .187 .277 .13800001 .237 .08500001 C .21100001 .051 .17300001 .022 .127 .022 C .113000009 .022 .068 .025000006 .051000008 .06400001 C .067 .06400001 .080000009 .06400001 .094000007 .076000008 C .104 .08500001 .11400001 .098000008 .11400001 .117000009 C .11400001 .148 .087000008 .15200001 .07700001 .15200001 C .054000006 .15200001 .021 .136 .021 .087000008 C .021 .037 .065000008 0 .127 0 C .23 0 .333 .091000009 .361 .20400001 L .45700003 .586 Z "/>
</symbol>
<use xlink:href="#font_2_3" transform="matrix(9.9626,0,0,-9.9626,8.623916,9.652319)"/>
</svg>
