<?xml version="1.0" encoding="UTF-8" standalone="no"?>
<!DOCTYPE svg PUBLIC "-//W3C//DTD SVG 1.1//EN" "http://www.w3.org/Graphics/SVG/1.1/DTD/svg11.dtd">
<svg xmlns="http://www.w3.org/2000/svg" xmlns:xlink="http://www.w3.org/1999/xlink" version="1.1" width="399.964pt" height="184.465pt" viewBox="0 0 399.964 184.465">
<clipPath id="cp0">
<path transform="matrix(1,0,0,-1,.199,184.26599)" d="M 0 0 L 387.1725 0 L 387.1725 171.16226 L 0 171.16226 Z "/>
</clipPath>
<g clip-path="url(#cp0)">
<path transform="matrix(1,0,0,-1,.199,184.26599)" d="M 64.52875 83.80223 L 118.3027 83.80223 L 118.3027 21.01991 L 64.52875 21.01991 Z " fill="#cccce6"/>
<path transform="matrix(1,0,0,-1,.199,184.26599)" stroke-width=".3985" stroke-linecap="butt" stroke-miterlimit="10" stroke-linejoin="miter" fill="none" stroke="#000080" d="M 64.52875 83.80223 L 118.3027 83.80223 L 118.3027 21.01991 L 64.52875 21.01991 Z "/>
<path transform="matrix(1,0,0,-1,.199,184.26599)" d="M 118.3027 106.868 L 172.07128 106.868 L 172.07128 21.01991 L 118.3027 21.01991 Z " fill="#cccce6"/>
<path transform="matrix(1,0,0,-1,.199,184.26599)" stroke-width=".3985" stroke-linecap="butt" stroke-miterlimit="10" stroke-linejoin="miter" fill="none" stroke="#000080" d="M 118.3027 106.868 L 172.07128 106.868 L 172.07128 21.01991 L 118.3027 21.01991 Z "/>
<path transform="matrix(1,0,0,-1,.199,184.26599)" d="M 172.07128 133.82785 L 225.85062 133.82785 L 225.85062 21.01991 L 172.07128 21.01991 Z " fill="#cccce6"/>
<path transform="matrix(1,0,0,-1,.199,184.26599)" stroke-width=".3985" stroke-linecap="butt" stroke-miterlimit="10" stroke-linejoin="miter" fill="none" stroke="#000080" d="M 172.07128 133.82785 L 225.85062 133.82785 L 225.85062 21.01991 L 172.07128 21.01991 Z "/>
<path transform="matrix(1,0,0,-1,.199,184.26599)" d="M 225.85062 139.8984 L 279.62458 139.8984 L 279.62458 21.01991 L 225.85062 21.01991 Z " fill="#cccce6"/>
<path transform="matrix(1,0,0,-1,.199,184.26599)" stroke-width=".3985" stroke-linecap="butt" stroke-miterlimit="10" stroke-linejoin="miter" fill="none" stroke="#000080" d="M 225.85062 139.8984 L 279.62458 139.8984 L 279.62458 21.01991 L 225.85062 21.01991 Z "/>
<path transform="matrix(1,0,0,-1,.199,184.26599)" d="M 279.62458 119.49496 L 333.39317 119.49496 L 333.39317 21.01991 L 279.62458 21.01991 Z " fill="#cccce6"/>
<path transform="matrix(1,0,0,-1,.199,184.26599)" stroke-width=".3985" stroke-linecap="butt" stroke-miterlimit="10" stroke-linejoin="miter" fill="none" stroke="#000080" d="M 279.62458 119.49496 L 333.39317 119.49496 L 333.39317 21.01991 L 279.62458 21.01991 Z "/>
<path transform="matrix(1,0,0,-1,.199,184.26599)" stroke-width="1.59404" stroke-linecap="butt" stroke-miterlimit="10" stroke-linejoin="miter" fill="none" stroke="#000080" d="M 0 117.07048 C 0 117.07048 11.65556 110.55821 16.13219 108.10818 C 20.6088 105.65814 27.78775 101.68037 32.26437 99.41223 C 36.74098 97.1441 43.91994 93.6443 48.39656 91.76097 C 52.87317 89.87764 60.05212 87.16887 64.52875 85.83847 C 69.00536 84.50806 76.18431 82.831 80.66093 82.1723 C 85.13754 81.5136 92.3165 81.0191 96.79312 81.09096 C 101.26973 81.16283 108.44868 81.89426 112.92531 82.69028 C 117.40192 83.4863 124.58087 85.37906 129.0575 86.8282 C 133.5341 88.27734 140.71306 91.16203 145.18968 93.13478 C 149.66629 95.10753 156.84525 98.72612 161.32187 101.04639 C 165.79848 103.36665 172.97743 107.3974 177.45406 109.85764 C 181.93068 112.31789 189.10962 116.3976 193.58625 118.77818 C 198.06287 121.15877 205.2418 124.92688 209.71843 127.01529 C 214.19506 129.10369 221.374 132.22061 225.85062 133.82996 C 230.32724 135.4393 237.50618 137.62752 241.9828 138.6144 C 246.45943 139.60128 253.63837 140.6666 258.115 140.94281 C 262.5916 141.21903 269.77055 141.0644 274.2472 140.60529 C 278.7238 140.14615 285.90278 138.78725 290.37937 137.63365 C 294.856 136.48007 302.03495 134.03617 306.51155 132.291 C 310.98817 130.54582 318.16716 127.23625 322.64375 125.05565 C 327.12037 122.87505 334.29933 118.99577 338.7759 116.57469 C 343.25257 114.15361 350.4315 110.05165 354.9081 107.6061 C 359.38475 105.16055 366.5637 101.20056 371.0403 98.9489 C 375.5169 96.69722 387.1725 91.37752 387.1725 91.37752 "/>
<symbol id="font_1_1">
<path d="M .2 .67200008 L .18100001 .67200008 C .127 .61600008 .063999999 .60800006 0 .606 L 0 .54800006 C .029 .549 .076000008 .551 .12300001 .572 L .12300001 .058000003 L .004999995 .058000003 L .004999995 0 L .31800003 0 L .31800003 .058000003 L .2 .058000003 L .2 .67200008 Z "/>
</symbol>
<use xlink:href="#font_1_1" transform="matrix(20.6625,0,0,-20.6625,88.491649,139.99399)" fill="#666673"/>
<symbol id="font_1_2">
<path d="M .21900001 .21200001 C .24700001 .24100001 .289 .27600003 .31800003 .31100003 C .34600003 .34500004 .38300003 .393 .38300003 .46300004 C .38300003 .573 .30900003 .67200008 .18300002 .67200008 C .08400001 .67200008 .026999999 .61 0 .513 L .039 .45900003 C .061 .55 .09200001 .60800006 .17 .60800006 C .256 .60800006 .30400003 .53800007 .30400003 .46100004 C .30400003 .36900003 .234 .298 .18100001 .245 C .12200001 .186 .06400001 .126 .008000001 .064 L .008000001 0 L .38300003 0 L .38300003 .068 L .213 .068 C .201 .068 .18900001 .067 .177 .067 L .07700001 .067 L .07700001 .068 L .21900001 .21200001 Z "/>
</symbol>
<use xlink:href="#font_1_2" transform="matrix(20.6625,0,0,-20.6625,141.33484,139.99399)" fill="#666673"/>
<symbol id="font_1_3">
<path d="M .118 .34 L .186 .34 C .28 .34 .307 .25800003 .307 .201 C .307 .12300001 .263 .062000008 .191 .062000008 C .135 .062000008 .056000007 .09 .011 .164 C .0040000008 .12900001 .0040000008 .127 0 .10300001 C .047000003 .034 .122999999 0 .193 0 C .307 0 .391 .095000009 .391 .20000002 C .391 .279 .33600004 .34500004 .261 .37 C .321 .40300004 .365 .46500004 .365 .537 C .365 .621 .28800003 .688 .194 .688 C .107999999 .688 .041000006 .635 .013 .578 C .020000004 .568 .038000008 .539 .047000003 .524 C .069000009 .583 .126 .627 .193 .627 C .24900002 .627 .286 .59 .286 .537 C .286 .48200003 .25100003 .42200003 .192 .40800003 C .18800001 .40800003 .126 .402 .118 .40100003 L .118 .34 Z "/>
</symbol>
<use xlink:href="#font_1_3" transform="matrix(20.6625,0,0,-20.6625,195.10884,140.32459)" fill="#666673"/>
<symbol id="font_1_4">
<path d="M .32600004 .171 L .41700004 .171 L .41700004 .23200001 L .32600004 .23200001 L .32600004 .656 L .238 .656 L 0 .23200001 L 0 .171 L .24700001 .171 L .24700001 0 L .32600004 0 L .32600004 .171 M .07700001 .23200001 C .13500002 .33400003 .25000004 .54 .25000004 .61 L .25000004 .23200001 L .07700001 .23200001 Z "/>
</symbol>
<use xlink:href="#font_1_4" transform="matrix(20.6625,0,0,-20.6625,248.61324,139.99399)" fill="#666673"/>
<symbol id="font_1_5">
<path d="M .11200001 .608 L .35700003 .608 L .35700003 .672 L .039000006 .672 L .039000006 .303 L .106 .303 C .124000009 .34500004 .16100002 .37600003 .20900002 .37600003 C .254 .37600003 .30400003 .33600004 .30400003 .22100002 C .30400003 .098000008 .23300001 .062000008 .181 .062000008 C .117000009 .062000008 .058000007 .101 .031999999 .15500002 L 0 .09900001 C .046000005 .028 .121 0 .181 0 C .29700003 0 .388 .09900001 .388 .21900001 C .388 .342 .307 .43700005 .21000001 .43700005 C .17500001 .43700005 .141 .425 .11200001 .40100003 L .11200001 .608 Z "/>
</symbol>
<use xlink:href="#font_1_5" transform="matrix(20.6625,0,0,-20.6625,302.5515,140.32459)" fill="#666673"/>
</g>
<path transform="matrix(1,0,0,-1,.199,184.26599)" stroke-width=".19925" stroke-linecap="butt" stroke-miterlimit="10" stroke-linejoin="miter" fill="none" stroke="#929292" d="M 118.3027 18.89394 L 118.3027 23.14589 M 172.07666 18.89394 L 172.07666 23.14589 M 225.85062 18.89394 L 225.85062 23.14589 M 279.62458 18.89394 L 279.62458 23.14589 M 333.39854 18.89394 L 333.39854 23.14589 "/>
<path transform="matrix(1,0,0,-1,.199,184.26599)" stroke-width=".3985" stroke-linecap="butt" stroke-miterlimit="10" stroke-linejoin="miter" fill="none" stroke="#000000" d="M 0 21.01991 L 385.17997 21.01991 "/>
<path transform="matrix(1,0,0,-1,385.37898,163.24608)" d="M 1.99252 0 L -1.19551 1.59401 L 0 0 L -1.19551 -1.59401 "/>
<path transform="matrix(1,0,0,-1,.199,184.26599)" stroke-width=".3985" stroke-linecap="butt" stroke-miterlimit="10" stroke-linejoin="miter" fill="none" stroke="#000000" d="M 10.75479 0 L 10.75479 169.16974 "/>
<path transform="matrix(0,-1,-1,-0,10.953791,15.096252)" d="M 1.99252 0 L -1.19551 1.59401 L 0 0 L -1.19551 -1.59401 "/>
<symbol id="font_2_1">
<path d="M .305 .31300003 C .311 .33900003 .334 .43100003 .404 .43100003 C .409 .43100003 .433 .43100003 .454 .418 C .426 .41300003 .40600003 .388 .40600003 .36400003 C .40600003 .34800003 .417 .32900004 .444 .32900004 C .46600003 .32900004 .498 .34700004 .498 .38700003 C .498 .43900005 .439 .45300005 .405 .45300005 C .347 .45300005 .312 .40000005 .3 .37700004 C .275 .44300003 .221 .45300005 .19200002 .45300005 C .08800001 .45300005 .031000002 .32400004 .031000002 .29900003 C .031000002 .28900004 .041 .28900004 .043000007 .28900004 C .051000008 .28900004 .054000006 .291 .056 .3 C .09 .40600003 .156 .43100003 .19000001 .43100003 C .209 .43100003 .244 .42200003 .244 .36400003 C .244 .33300004 .22700002 .26600004 .19000001 .126 C .17400001 .064 .13900002 .022000002 .095000009 .022000002 C .08900001 .022000002 .06600001 .022000002 .045 .035 C .07000001 .040000004 .09200001 .061 .09200001 .089 C .09200001 .116000007 .07000001 .124000009 .055000009 .124000009 C .025 .124000009 0 .098000008 0 .06600001 C 0 .020000002 .050000006 0 .094000007 0 C .16000001 0 .19600001 .07000001 .19900002 .076000008 C .21100001 .039 .24700003 0 .307 0 C .41 0 .467 .12900001 .467 .15400002 C .467 .16400002 .458 .16400002 .455 .16400002 C .446 .16400002 .444 .16000001 .442 .15300001 C .409 .046 .341 .022000002 .30900003 .022000002 C .27 .022000002 .254 .054 .254 .08800001 C .254 .11000001 .26 .13200002 .271 .17600002 L .305 .31300003 Z "/>
</symbol>
<use xlink:href="#font_2_1" transform="matrix(9.9626,0,0,-9.9626,113.65192,176.35958)"/>
<symbol id="font_3_1">
<path d="M .23400001 .215 C .31600005 .25100003 .35300005 .26500003 .37800003 .277 C .397 .285 .40600003 .289 .40600003 .308 C .40600003 .32500003 .393 .34 .375 .34 C .36800004 .34 .366 .34 .35400004 .331 L .21800001 .24000001 L .23300003 .388 C .235 .40600003 .23300003 .43100003 .20300003 .43100003 C .191 .43100003 .172 .423 .172 .40100003 C .172 .39200003 .17600002 .36200003 .177 .352 C .179 .335 .186 .263 .18800001 .24000001 L .053000004 .331 C .042999999 .337 .040000008 .34 .031000004 .34 C .013000004 .34 0 .32500003 0 .308 C 0 .28800003 .012000002 .283 .021000006 .279 L .172 .21599999 C .09 .18 .053000004 .16600001 .028000005 .15400002 C .009000003 .146 0 .14200002 0 .123 C 0 .106 .013000004 .091 .031000004 .091 C .038000004 .091 .040000008 .091 .052 .1 L .18800001 .19100002 L .172 .030000002 C .172 .008000001 .191 0 .20300003 0 C .21500002 0 .23400001 .008000001 .23400001 .030000002 C .23400001 .039000006 .23 .069000009 .22900002 .079 C .22700002 .09600001 .22000002 .16800002 .21800001 .19100002 L .338 .11100001 C .36400003 .091 .366 .091 .375 .091 C .393 .091 .40600003 .106 .40600003 .123 C .40600003 .143 .394 .148 .38500006 .15200001 L .23400001 .215 Z "/>
</symbol>
<use xlink:href="#font_3_1" transform="matrix(6.9738,0,0,-6.9738,119.677669,171.89987)"/>
<symbol id="font_4_1">
<path d="M .22600001 .63600006 C .22600001 .66300007 .224 .66400006 .19600001 .66400006 C .132 .601 .041 .6 0 .6 L 0 .564 C .023999997 .564 .09000001 .564 .14500001 .592 L .14500001 .082 C .14500001 .049000004 .14500001 .036000004 .04500001 .036000004 L .0069999995 .036000004 L .0069999995 0 C .024999999 .001 .148 .004 .185 .004 C .21600002 .004 .34200005 .001 .36400003 0 L .36400003 .036000004 L .32600004 .036000004 C .22600001 .036000004 .22600001 .049000004 .22600001 .082 L .22600001 .63600006 Z "/>
</symbol>
<use xlink:href="#font_4_1" transform="matrix(6.9738,0,0,-6.9738,119.81715,178.71298)"/>
<use xlink:href="#font_2_1" transform="matrix(9.9626,0,0,-9.9626,167.42592,176.35958)"/>
<use xlink:href="#font_3_1" transform="matrix(6.9738,0,0,-6.9738,173.45168,171.89987)"/>
<symbol id="font_4_2">
<path d="M .442 .18200001 L .40800003 .18200001 C .40500004 .16000001 .39500005 .101 .38200004 .091000009 C .374 .085 .29700003 .085 .28300003 .085 L .099 .085 C .20400003 .178 .23900002 .20600002 .29900003 .25300003 C .37300004 .312 .442 .374 .442 .469 C .442 .59000006 .33600004 .66400006 .20800004 .66400006 C .084 .66400006 0 .577 0 .485 C 0 .43400003 .043000007 .42900003 .053000004 .42900003 C .077 .42900003 .10600001 .446 .10600001 .48200003 C .10600001 .5 .099 .535 .047000007 .535 C .078 .606 .146 .628 .19300002 .628 C .293 .628 .34500004 .55 .34500004 .469 C .34500004 .38200004 .28300003 .31300003 .25100003 .277 L .010000005 .039 C 0 .030000002 0 .028 0 0 L .41200004 0 L .442 .18200001 Z "/>
</symbol>
<use xlink:href="#font_4_2" transform="matrix(6.9738,0,0,-6.9738,173.27036,178.71298)"/>
<use xlink:href="#font_2_1" transform="matrix(9.9626,0,0,-9.9626,221.19892,176.35958)"/>
<use xlink:href="#font_3_1" transform="matrix(6.9738,0,0,-6.9738,227.22467,171.89987)"/>
<symbol id="font_4_3">
<path d="M .219 .35400004 C .29700003 .35400004 .35300002 .3 .35300002 .193 C .35300002 .069000009 .28100003 .032 .223 .032 C .18300002 .032 .095 .043000007 .053000008 .102000009 C .10000001 .10400001 .111 .13700001 .111 .158 C .111 .19 .087 .213 .056000007 .213 C .028 .213 0 .19600001 0 .155 C 0 .061000006 .104 0 .22500001 0 C .36400003 0 .46 .09300001 .46 .193 C .46 .27100004 .39600004 .34900005 .286 .37200005 C .39100004 .41000004 .42900003 .48500005 .42900003 .546 C .42900003 .625 .33800004 .684 .22700002 .684 C .116 .684 .031 .63 .031 .55 C .031 .51600006 .053000008 .49700005 .083000008 .49700005 C .11400001 .49700005 .134 .52 .134 .548 C .134 .577 .11400001 .598 .083000008 .6 C .118 .644 .187 .65500006 .22400002 .65500006 C .26900003 .65500006 .33200003 .633 .33200003 .546 C .33200003 .504 .31800003 .45800004 .29200004 .42700003 C .25900004 .38900004 .23100002 .38700003 .18100001 .38400004 C .156 .38200004 .154 .38200004 .149 .38100005 C .147 .38100005 .139 .37900005 .139 .36800004 C .139 .35400004 .148 .35400004 .165 .35400004 L .219 .35400004 Z "/>
</symbol>
<use xlink:href="#font_4_3" transform="matrix(6.9738,0,0,-6.9738,226.98059,178.85247)"/>
<use xlink:href="#font_2_1" transform="matrix(9.9626,0,0,-9.9626,274.97193,176.35958)"/>
<use xlink:href="#font_3_1" transform="matrix(6.9738,0,0,-6.9738,280.99769,171.89987)"/>
<symbol id="font_4_4">
<path d="M .49000005 .164 L .49000005 .2 L .379 .2 L .379 .646 C .379 .66700008 .379 .674 .35700003 .674 C .345 .674 .34100003 .674 .331 .66 L 0 .2 L 0 .164 L .294 .164 L .294 .082 C .294 .048 .294 .036000004 .213 .036000004 L .186 .036000004 L .186 0 C .236 .002 .3 .004 .33600004 .004 C .37300004 .004 .437 .002 .48700003 0 L .48700003 .036000004 L .46 .036000004 C .379 .036000004 .379 .048 .379 .082 L .379 .164 L .49000005 .164 M .301 .56600007 L .301 .2 L .037000006 .2 L .301 .56600007 Z "/>
</symbol>
<use xlink:href="#font_4_4" transform="matrix(6.9738,0,0,-6.9738,280.649,178.71298)"/>
<use xlink:href="#font_2_1" transform="matrix(9.9626,0,0,-9.9626,328.7449,176.35958)"/>
<use xlink:href="#font_3_1" transform="matrix(6.9738,0,0,-6.9738,334.77067,171.89987)"/>
<symbol id="font_4_5">
<path d="M .092 .578 C .143 .565 .17300001 .565 .18900001 .565 C .321 .565 .39900003 .65500006 .39900003 .67 C .39900003 .681 .39200003 .684 .38700003 .684 C .38500003 .684 .38300003 .684 .37900005 .681 C .35500003 .672 .30200003 .652 .22800002 .652 C .20000002 .652 .14700002 .654 .08200001 .679 C .072000008 .684 .07 .684 .069 .684 C .056 .684 .056 .67300006 .056 .657 L .056 .36200003 C .056 .34500004 .056 .33300004 .072000008 .33300004 C .08100001 .33300004 .08200001 .33500005 .092 .34700004 C .13500002 .40200005 .19600001 .41000004 .231 .41000004 C .291 .41000004 .31800003 .36200003 .323 .35400004 C .34100003 .32100005 .34700004 .28300003 .34700004 .22500001 C .34700004 .19500001 .34700004 .136 .31700004 .09200001 C .29200004 .056 .24900002 .032 .20000002 .032 C .13500002 .032 .06800001 .068 .043000007 .134 C .08100001 .13100001 .1 .156 .1 .183 C .1 .22600001 .063 .23400001 .050000006 .23400001 C .048000009 .23400001 0 .23400001 0 .18 C 0 .09 .08200001 0 .20200002 0 C .33 0 .442 .095000009 .442 .221 C .442 .33400003 .35600005 .43800003 .23200003 .43800003 C .18800003 .43800003 .136 .42700003 .092 .38900004 L .092 .578 Z "/>
</symbol>
<use xlink:href="#font_4_5" transform="matrix(6.9738,0,0,-6.9738,334.58937,178.85247)"/>
<use xlink:href="#font_2_1" transform="matrix(9.9626,0,0,-9.9626,391.2379,165.49658)"/>
<symbol id="font_2_2">
<path d="M .45700003 .586 C .461 .6 .461 .602 .461 .609 C .461 .62700006 .447 .63600006 .432 .63600006 C .42200003 .63600006 .40600003 .63 .397 .615 C .395 .61 .387 .579 .38300003 .561 C .37600003 .535 .36900003 .508 .363 .48100005 L .318 .301 C .314 .286 .271 .21600002 .20500002 .21600002 C .15400002 .21600002 .143 .26000003 .143 .29700003 C .143 .34300003 .16000001 .40500004 .194 .49300004 C .21000001 .53400006 .21400002 .545 .21400002 .56500008 C .21400002 .61 .18200001 .6470001 .13200002 .6470001 C .037 .6470001 0 .50200006 0 .49300004 C 0 .48300005 .01 .48300005 .012 .48300005 C .022000002 .48300005 .023 .485 .028000003 .50100007 C .055000009 .595 .095000009 .625 .12900001 .625 C .13700001 .625 .15400002 .625 .15400002 .59300008 C .15400002 .568 .14400001 .54200008 .13700001 .523 C .097 .41700004 .079 .36 .079 .31300003 C .079 .224 .142 .194 .201 .194 C .24000003 .194 .274 .21100001 .30200003 .23900002 C .289 .187 .277 .13800001 .237 .08500001 C .21100001 .051 .17300001 .022 .127 .022 C .113000009 .022 .068 .025000006 .051000008 .06400001 C .067 .06400001 .080000009 .06400001 .094000007 .076000008 C .104 .08500001 .11400001 .098000008 .11400001 .117000009 C .11400001 .148 .087000008 .15200001 .07700001 .15200001 C .054000006 .15200001 .021 .136 .021 .087000008 C .021 .037 .065000008 0 .127 0 C .23 0 .333 .091000009 .361 .20400001 L .45700003 .586 Z "/>
</symbol>
<use xlink:href="#font_2_2" transform="matrix(9.9626,0,0,-9.9626,8.623916,9.652319)"/>
</svg>
