<?xml version="1.0" encoding="UTF-8" standalone="no"?>
<!DOCTYPE svg PUBLIC "-//W3C//DTD SVG 1.1//EN" "http://www.w3.org/Graphics/SVG/1.1/DTD/svg11.dtd">
<svg xmlns="http://www.w3.org/2000/svg" xmlns:xlink="http://www.w3.org/1999/xlink" version="1.1" width="399.964pt" height="184.465pt" viewBox="0 0 399.964 184.465">
<clipPath id="cp0">
<path transform="matrix(1,0,0,-1,.199,184.26599)" d="M 0 0 L 387.1725 0 L 387.1725 171.16226 L 0 171.16226 Z "/>
</clipPath>
<g clip-path="url(#cp0)">
<path transform="matrix(1,0,0,-1,.199,184.26599)" d="M 64.52875 83.80223 L 118.3027 83.80223 L 118.3027 21.01991 L 64.52875 21.01991 Z " fill="#cccce6"/>
<path transform="matrix(1,0,0,-1,.199,184.26599)" stroke-width="1" stroke-linecap="butt" stroke-miterlimit="10" stroke-linejoin="miter" fill="none" stroke="#000080" d="M 64.52875 83.80223 L 118.3027 83.80223 L 118.3027 21.01991 L 64.52875 21.01991 Z "/>
<path transform="matrix(1,0,0,-1,.199,184.26599)" stroke-width="1" stroke-linecap="butt" stroke-miterlimit="10" stroke-linejoin="miter" fill="none" stroke="#000000" d="M 69.90614 15.35065 C 70.27972 14.60344 71.15149 14.1053 72.39684 14.1053 L 88.92503 14.1053 C 90.17038 14.1053 91.04213 13.60718 91.41573 12.85995 C 91.7893 13.60718 92.66107 14.1053 93.90642 14.1053 L 110.43462 14.1053 C 111.67996 14.1053 112.55171 14.60344 112.92531 15.35065 "/>
<path transform="matrix(1,0,0,-1,.199,184.26599)" d="M 118.3027 106.868 L 172.07666 106.868 L 172.07666 21.01991 L 118.3027 21.01991 Z " fill="#cccce6"/>
<path transform="matrix(1,0,0,-1,.199,184.26599)" stroke-width="1" stroke-linecap="butt" stroke-miterlimit="10" stroke-linejoin="miter" fill="none" stroke="#000080" d="M 118.3027 106.868 L 172.07666 106.868 L 172.07666 21.01991 L 118.3027 21.01991 Z "/>
<path transform="matrix(1,0,0,-1,.199,184.26599)" stroke-width="1" stroke-linecap="butt" stroke-miterlimit="10" stroke-linejoin="miter" fill="none" stroke="#000000" d="M 123.6801 15.35065 C 124.05368 14.60344 124.92545 14.1053 126.17079 14.1053 L 142.69899 14.1053 C 143.94434 14.1053 144.81609 13.60718 145.18968 12.85995 C 145.56327 13.60718 146.43503 14.1053 147.68038 14.1053 L 164.20858 14.1053 C 165.45392 14.1053 166.32567 14.60344 166.69927 15.35065 "/>
<path transform="matrix(1,0,0,-1,.199,184.26599)" d="M 172.07666 133.82996 L 225.85062 133.82996 L 225.85062 21.01991 L 172.07666 21.01991 Z " fill="#cccce6"/>
<path transform="matrix(1,0,0,-1,.199,184.26599)" stroke-width="1" stroke-linecap="butt" stroke-miterlimit="10" stroke-linejoin="miter" fill="none" stroke="#000080" d="M 172.07666 133.82996 L 225.85062 133.82996 L 225.85062 21.01991 L 172.07666 21.01991 Z "/>
<path transform="matrix(1,0,0,-1,.199,184.26599)" stroke-width="1" stroke-linecap="butt" stroke-miterlimit="10" stroke-linejoin="miter" fill="none" stroke="#000000" d="M 177.45406 15.35065 C 177.82764 14.60344 178.6994 14.1053 179.94475 14.1053 L 196.47295 14.1053 C 197.71829 14.1053 198.59004 13.60718 198.96364 12.85995 C 199.33722 13.60718 200.20899 14.1053 201.45433 14.1053 L 217.98253 14.1053 C 219.22788 14.1053 220.09963 14.60344 220.47322 15.35065 "/>
<path transform="matrix(1,0,0,-1,.199,184.26599)" d="M 225.85062 139.8984 L 279.62458 139.8984 L 279.62458 21.01991 L 225.85062 21.01991 Z " fill="#cccce6"/>
<path transform="matrix(1,0,0,-1,.199,184.26599)" stroke-width="1" stroke-linecap="butt" stroke-miterlimit="10" stroke-linejoin="miter" fill="none" stroke="#000080" d="M 225.85062 139.8984 L 279.62458 139.8984 L 279.62458 21.01991 L 225.85062 21.01991 Z "/>
<path transform="matrix(1,0,0,-1,.199,184.26599)" stroke-width="1" stroke-linecap="butt" stroke-miterlimit="10" stroke-linejoin="miter" fill="none" stroke="#000000" d="M 231.22801 15.35065 C 231.60161 14.60344 232.47336 14.1053 233.7187 14.1053 L 250.2469 14.1053 C 251.49225 14.1053 252.36402 13.60718 252.7376 12.85995 C 253.11119 13.60718 253.98294 14.1053 255.22829 14.1053 L 271.75648 14.1053 C 273.00184 14.1053 273.8736 14.60344 274.2472 15.35065 "/>
<path transform="matrix(1,0,0,-1,.199,184.26599)" d="M 279.62458 119.49496 L 333.39854 119.49496 L 333.39854 21.01991 L 279.62458 21.01991 Z " fill="#cccce6"/>
<path transform="matrix(1,0,0,-1,.199,184.26599)" stroke-width="1" stroke-linecap="butt" stroke-miterlimit="10" stroke-linejoin="miter" fill="none" stroke="#000080" d="M 279.62458 119.49496 L 333.39854 119.49496 L 333.39854 21.01991 L 279.62458 21.01991 Z "/>
<path transform="matrix(1,0,0,-1,.199,184.26599)" stroke-width="1" stroke-linecap="butt" stroke-miterlimit="10" stroke-linejoin="miter" fill="none" stroke="#000000" d="M 285.00199 15.35065 C 285.37556 14.60344 286.2473 14.1053 287.49266 14.1053 L 304.02088 14.1053 C 305.2662 14.1053 306.13798 13.60718 306.51155 12.85995 C 306.88517 13.60718 307.7569 14.1053 309.00224 14.1053 L 325.53044 14.1053 C 326.7758 14.1053 327.64756 14.60344 328.02113 15.35065 "/>
<path transform="matrix(1,0,0,-1,.199,184.26599)" stroke-width="1.59404" stroke-linecap="butt" stroke-miterlimit="10" stroke-linejoin="miter" fill="none" stroke="#000080" d="M 0 117.07048 C 0 117.07048 11.65556 110.55821 16.13219 108.10818 C 20.6088 105.65814 27.78775 101.68037 32.26437 99.41223 C 36.74098 97.1441 43.91994 93.6443 48.39656 91.76097 C 52.87317 89.87764 60.05212 87.16887 64.52875 85.83847 C 69.00536 84.50806 76.18431 82.831 80.66093 82.1723 C 85.13754 81.5136 92.3165 81.0191 96.79312 81.09096 C 101.26973 81.16283 108.44868 81.89426 112.92531 82.69028 C 117.40192 83.4863 124.58087 85.37906 129.0575 86.8282 C 133.5341 88.27734 140.71306 91.16203 145.18968 93.13478 C 149.66629 95.10753 156.84525 98.72612 161.32187 101.04639 C 165.79848 103.36665 172.97743 107.3974 177.45406 109.85764 C 181.93068 112.31789 189.10962 116.3976 193.58625 118.77818 C 198.06287 121.15877 205.2418 124.92688 209.71843 127.01529 C 214.19506 129.10369 221.374 132.22061 225.85062 133.82996 C 230.32724 135.4393 237.50618 137.62752 241.9828 138.6144 C 246.45943 139.60128 253.63837 140.6666 258.115 140.94281 C 262.5916 141.21903 269.77055 141.0644 274.2472 140.60529 C 278.7238 140.14615 285.90278 138.78725 290.37937 137.63365 C 294.856 136.48007 302.03495 134.03617 306.51155 132.291 C 310.98817 130.54582 318.16716 127.23625 322.64375 125.05565 C 327.12037 122.87505 334.29933 118.99577 338.7759 116.57469 C 343.25257 114.15361 350.4315 110.05165 354.9081 107.6061 C 359.38475 105.16055 366.5637 101.20056 371.0403 98.9489 C 375.5169 96.69722 387.1725 91.37752 387.1725 91.37752 "/>
<symbol id="font_1_1">
<path d="M .39500005 .698 C .38800005 .711 .38600005 .716 .36900003 .716 C .35200004 .716 .35000003 .711 .34300003 .698 L .004999999 .020000002 C 0 .011000001 0 .009000001 0 .008 C 0 0 .006000001 0 .022000004 0 L .716 0 C .73200008 0 .73800006 0 .73800006 .008 C .73800006 .009000001 .73800006 .011000001 .73300006 .020000002 L .39500005 .698 M .337 .61600008 L .60600009 .076000008 L .067 .076000008 L .337 .61600008 Z "/>
</symbol>
<use xlink:href="#font_1_1" transform="matrix(9.9626,0,0,-9.9626,85.084239,181.66399)"/>
<symbol id="font_2_3">
<path d="M .305 .31300003 C .311 .33900003 .334 .43100003 .404 .43100003 C .409 .43100003 .433 .43100003 .454 .418 C .426 .41300003 .40600003 .388 .40600003 .36400003 C .40600003 .34800003 .417 .32900004 .444 .32900004 C .46600003 .32900004 .498 .34700004 .498 .38700003 C .498 .43900005 .439 .45300005 .405 .45300005 C .347 .45300005 .312 .40000005 .3 .37700004 C .275 .44300003 .221 .45300005 .19200002 .45300005 C .08800001 .45300005 .031000002 .32400004 .031000002 .29900003 C .031000002 .28900004 .041 .28900004 .043000007 .28900004 C .051000008 .28900004 .054000006 .291 .056 .3 C .09 .40600003 .156 .43100003 .19000001 .43100003 C .209 .43100003 .244 .42200003 .244 .36400003 C .244 .33300004 .22700002 .26600004 .19000001 .126 C .17400001 .064 .13900002 .022000002 .095000009 .022000002 C .08900001 .022000002 .06600001 .022000002 .045 .035 C .07000001 .040000004 .09200001 .061 .09200001 .089 C .09200001 .116000007 .07000001 .124000009 .055000009 .124000009 C .025 .124000009 0 .098000008 0 .06600001 C 0 .020000002 .050000006 0 .094000007 0 C .16000001 0 .19600001 .07000001 .19900002 .076000008 C .21100001 .039 .24700003 0 .307 0 C .41 0 .467 .12900001 .467 .15400002 C .467 .16400002 .458 .16400002 .455 .16400002 C .446 .16400002 .444 .16000001 .442 .15300001 C .409 .046 .341 .022000002 .30900003 .022000002 C .27 .022000002 .254 .054 .254 .08800001 C .254 .11000001 .26 .13200002 .271 .17600002 L .305 .31300003 Z "/>
</symbol>
<use xlink:href="#font_2_3" transform="matrix(9.9626,0,0,-9.9626,93.20692,181.77358)"/>
<use xlink:href="#font_1_1" transform="matrix(9.9626,0,0,-9.9626,138.85726,181.66399)"/>
<use xlink:href="#font_2_3" transform="matrix(9.9626,0,0,-9.9626,146.97992,181.77358)"/>
<use xlink:href="#font_1_1" transform="matrix(9.9626,0,0,-9.9626,192.63025,181.66399)"/>
<use xlink:href="#font_2_3" transform="matrix(9.9626,0,0,-9.9626,200.75292,181.77358)"/>
<use xlink:href="#font_1_1" transform="matrix(9.9626,0,0,-9.9626,246.40425,181.66399)"/>
<use xlink:href="#font_2_3" transform="matrix(9.9626,0,0,-9.9626,254.52692,181.77358)"/>
<use xlink:href="#font_1_1" transform="matrix(9.9626,0,0,-9.9626,300.17726,181.66399)"/>
<use xlink:href="#font_2_3" transform="matrix(9.9626,0,0,-9.9626,308.29994,181.77358)"/>
</g>
<path transform="matrix(1,0,0,-1,.199,184.26599)" stroke-width="1" stroke-linecap="butt" stroke-miterlimit="10" stroke-linejoin="miter" fill="none" stroke="#808080" d="M 64.52875 18.89394 L 64.52875 23.14589 M 333.39854 18.89394 L 333.39854 23.14589 "/>
<path transform="matrix(1,0,0,-1,.199,184.26599)" stroke-width="1" stroke-linecap="butt" stroke-miterlimit="10" stroke-linejoin="miter" fill="none" stroke="#000000" d="M 0 21.01991 L 385.17997 21.01991 "/>
<path transform="matrix(1,0,0,-1,385.37898,163.24608)" d="M 1.99252 0 L -1.19551 1.59401 L 0 0 L -1.19551 -1.59401 "/>
<path transform="matrix(1,0,0,-1,.199,184.26599)" stroke-width="1" stroke-linecap="butt" stroke-miterlimit="10" stroke-linejoin="miter" fill="none" stroke="#000000" d="M 10.75479 0 L 10.75479 169.16974 "/>
<path transform="matrix(0,-1,-1,-0,10.953791,15.096252)" d="M 1.99252 0 L -1.19551 1.59401 L 0 0 L -1.19551 -1.59401 "/>
<symbol id="font_2_1">
<path d="M .33300004 .38900004 C .31500004 .42600004 .286 .45300005 .24100001 .45300005 C .124 .45300005 0 .30600003 0 .16000001 C 0 .06600001 .055000005 0 .133 0 C .153 0 .20300001 .0040000008 .263 .075 C .27100004 .033000005 .30600003 0 .35400004 0 C .38900004 0 .41200004 .023000002 .42800004 .055000005 C .44500003 .091000009 .45800004 .15200001 .45800004 .15400002 C .45800004 .16400002 .44900004 .16400002 .44600005 .16400002 C .43600003 .16400002 .43500004 .16000001 .43200005 .14600002 C .41500003 .081 .397 .022000002 .35600005 .022000002 C .32900004 .022000002 .32600004 .048 .32600004 .068 C .32600004 .09 .32800005 .098000008 .33900003 .14200002 C .35000003 .18400002 .35200004 .19400002 .36100004 .23200003 L .397 .37200005 C .40400005 .40000005 .40400005 .40200005 .40400005 .40600003 C .40400005 .42300005 .39200003 .43300004 .37500004 .43300004 C .35100005 .43300004 .33600004 .411 .33300004 .38900004 M .26800005 .13000001 C .263 .112 .263 .11000001 .24800001 .093 C .20400001 .038000004 .163 .022000002 .135 .022000002 C .08499999 .022000002 .07100001 .077 .07100001 .116000007 C .07100001 .16600001 .103 .28900004 .126 .335 C .157 .39400003 .202 .43100003 .242 .43100003 C .307 .43100003 .32100005 .34900005 .32100005 .34300003 C .32100005 .337 .31900005 .33100004 .31800003 .32600004 L .26800005 .13000001 Z "/>
</symbol>
<use xlink:href="#font_2_1" transform="matrix(9.9626,0,0,-9.9626,62.492506,173.29058)"/>
<symbol id="font_2_2">
<path d="M .192 .694 C .192 .695 .192 .705 .179 .705 C .156 .705 .083000008 .697 .057 .695 C .049 .694 .038 .693 .038 .675 C .038 .663 .047000003 .663 .062000004 .663 C .11 .663 .112 .656 .112 .646 C .112 .639 .103 .605 .098000008 .584 L .015999999 .25800003 C .0040000008 .20800002 0 .19200002 0 .15700002 C 0 .062000004 .053 0 .127 0 C .24500002 0 .36800004 .14900002 .36800004 .293 C .36800004 .38400004 .31500004 .45300005 .235 .45300005 C .18900001 .45300005 .148 .42400003 .118 .39300005 L .192 .694 M .098000008 .316 C .104 .33800004 .104 .34000004 .113000009 .351 C .162 .41600005 .207 .43100003 .233 .43100003 C .26900003 .43100003 .29600004 .40100003 .29600004 .337 C .29600004 .27800004 .263 .16300002 .24500002 .12500002 C .212 .058000003 .16600001 .022000002 .127 .022000002 C .092999998 .022000002 .060000007 .049000004 .060000007 .123 C .060000007 .14200002 .060000007 .16100002 .076000008 .22400002 L .098000008 .316 Z "/>
</symbol>
<use xlink:href="#font_2_2" transform="matrix(9.9626,0,0,-9.9626,331.92424,175.91959)"/>
<use xlink:href="#font_2_3" transform="matrix(9.9626,0,0,-9.9626,391.2379,165.49658)"/>
<symbol id="font_2_4">
<path d="M .45700003 .586 C .461 .6 .461 .602 .461 .609 C .461 .62700006 .447 .63600006 .432 .63600006 C .42200003 .63600006 .40600003 .63 .397 .615 C .395 .61 .387 .579 .38300003 .561 C .37600003 .535 .36900003 .508 .363 .48100005 L .318 .301 C .314 .286 .271 .21600002 .20500002 .21600002 C .15400002 .21600002 .143 .26000003 .143 .29700003 C .143 .34300003 .16000001 .40500004 .194 .49300004 C .21000001 .53400006 .21400002 .545 .21400002 .56500008 C .21400002 .61 .18200001 .6470001 .13200002 .6470001 C .037 .6470001 0 .50200006 0 .49300004 C 0 .48300005 .01 .48300005 .012 .48300005 C .022000002 .48300005 .023 .485 .028000003 .50100007 C .055000009 .595 .095000009 .625 .12900001 .625 C .13700001 .625 .15400002 .625 .15400002 .59300008 C .15400002 .568 .14400001 .54200008 .13700001 .523 C .097 .41700004 .079 .36 .079 .31300003 C .079 .224 .142 .194 .201 .194 C .24000003 .194 .274 .21100001 .30200003 .23900002 C .289 .187 .277 .13800001 .237 .08500001 C .21100001 .051 .17300001 .022 .127 .022 C .113000009 .022 .068 .025000006 .051000008 .06400001 C .067 .06400001 .080000009 .06400001 .094000007 .076000008 C .104 .08500001 .11400001 .098000008 .11400001 .117000009 C .11400001 .148 .087000008 .15200001 .07700001 .15200001 C .054000006 .15200001 .021 .136 .021 .087000008 C .021 .037 .065000008 0 .127 0 C .23 0 .333 .091000009 .361 .20400001 L .45700003 .586 Z "/>
</symbol>
<use xlink:href="#font_2_4" transform="matrix(9.9626,0,0,-9.9626,8.623916,9.652319)"/>
</svg>
