<?xml version="1.0" encoding="UTF-8" standalone="no"?>
<!DOCTYPE svg PUBLIC "-//W3C//DTD SVG 1.1//EN" "http://www.w3.org/Graphics/SVG/1.1/DTD/svg11.dtd">
<svg xmlns="http://www.w3.org/2000/svg" xmlns:xlink="http://www.w3.org/1999/xlink" version="1.1" width="399.964pt" height="184.465pt" viewBox="0 0 399.964 184.465">
<clipPath id="cp0">
<path transform="matrix(1,0,0,-1,.199,184.26599)" d="M 0 0 L 387.1725 0 L 387.1725 171.16226 L 0 171.16226 Z "/>
</clipPath>
<g clip-path="url(#cp0)">
<path transform="matrix(1,0,0,-1,.199,184.26599)" d="M 172.07666 118.77518 L 225.84523 118.77518 L 225.84523 21.01991 L 172.07666 21.01991 Z " fill="#cccce6"/>
<path transform="matrix(1,0,0,-1,.199,184.26599)" stroke-width=".3985" stroke-linecap="butt" stroke-miterlimit="10" stroke-linejoin="miter" fill="none" stroke="#000080" d="M 172.07666 118.77518 L 225.84523 118.77518 L 225.84523 21.01991 L 172.07666 21.01991 Z "/>
<path transform="matrix(1,0,0,-1,.199,184.26599)" stroke-width="1.59404" stroke-linecap="butt" stroke-miterlimit="10" stroke-linejoin="miter" fill="none" stroke="#000080" d="M 0 117.07048 C 0 117.07048 11.65556 110.55821 16.13219 108.10818 C 20.6088 105.65814 27.78775 101.68037 32.26437 99.41223 C 36.74098 97.1441 43.91994 93.6443 48.39656 91.76097 C 52.87317 89.87764 60.05212 87.16887 64.52875 85.83847 C 69.00536 84.50806 76.18431 82.831 80.66093 82.1723 C 85.13754 81.5136 92.3165 81.0191 96.79312 81.09096 C 101.26973 81.16283 108.44868 81.89426 112.92531 82.69028 C 117.40192 83.4863 124.58087 85.37906 129.0575 86.8282 C 133.5341 88.27734 140.71306 91.16203 145.18968 93.13478 C 149.66629 95.10753 156.84525 98.72612 161.32187 101.04639 C 165.79848 103.36665 172.97743 107.3974 177.45406 109.85764 C 181.93068 112.31789 189.10962 116.3976 193.58625 118.77818 C 198.06287 121.15877 205.2418 124.92688 209.71843 127.01529 C 214.19506 129.10369 221.374 132.22061 225.85062 133.82996 C 230.32724 135.4393 237.50618 137.62752 241.9828 138.6144 C 246.45943 139.60128 253.63837 140.6666 258.115 140.94281 C 262.5916 141.21903 269.77055 141.0644 274.2472 140.60529 C 278.7238 140.14615 285.90278 138.78725 290.37937 137.63365 C 294.856 136.48007 302.03495 134.03617 306.51155 132.291 C 310.98817 130.54582 318.16716 127.23625 322.64375 125.05565 C 327.12037 122.87505 334.29933 118.99577 338.7759 116.57469 C 343.25257 114.15361 350.4315 110.05165 354.9081 107.6061 C 359.38475 105.16055 366.5637 101.20056 371.0403 98.9489 C 375.5169 96.69722 387.1725 91.37752 387.1725 91.37752 "/>
<path transform="matrix(1,0,0,-1,.199,184.26599)" stroke-width="1.59404" stroke-linecap="butt" stroke-miterlimit="10" stroke-linejoin="miter" fill="none" stroke="#800000" d="M 193.58625 21.01991 L 193.58625 119.51329 "/>
<symbol id="font_1_1">
<path d="M .19000001 .26500003 L .34500004 .43 L .249 .43 L .074 .24400002 L .074 .694 L 0 .694 L 0 0 L .073 0 L .073 .14 L .14 .21100001 L .28100003 0 L .366 0 L .19000001 .26500003 Z "/>
</symbol>
<use xlink:href="#font_1_1" transform="matrix(20.6625,0,0,-20.6625,212.11269,125.37799)" fill="#666673"/>
<symbol id="font_2_3">
<path d="M .314 .605 L .4 .605 C .42000003 .605 .43 .605 .43 .625 C .43 .63600006 .42000003 .63600006 .40300004 .63600006 L .32000003 .63600006 L .34100003 .75 C .34500004 .771 .35900004 .842 .365 .8540001 C .374 .873 .39100004 .888 .41200004 .888 C .416 .888 .44200004 .888 .461 .87 C .41700004 .86600008 .407 .8310001 .407 .816 C .407 .793 .425 .781 .444 .781 C .47 .781 .49900005 .8030001 .49900005 .8410001 C .49900005 .8870001 .45300005 .9100001 .41200004 .9100001 C .37800003 .9100001 .31500004 .8920001 .28500004 .793 C .279 .7720001 .27600003 .7620001 .252 .63600006 L .18300002 .63600006 C .164 .63600006 .15300001 .63600006 .15300001 .61700007 C .15300001 .605 .162 .605 .18100001 .605 L .24700001 .605 L .172 .21000001 C .15400002 .113000009 .13700001 .022 .08500001 .022 C .081 .022 .056 .022 .037 .040000008 C .083000008 .043000014 .09200001 .07900001 .09200001 .094000007 C .09200001 .117000009 .074 .12900001 .055 .12900001 C .029 .12900001 0 .10700001 0 .069000009 C 0 .024000004 .044 0 .08500001 0 C .14 0 .18 .059 .19800002 .09700001 C .23000002 .16000001 .25300003 .28100003 .254 .28800003 L .314 .605 Z "/>
</symbol>
<use xlink:href="#font_2_3" transform="matrix(9.9626,0,0,-9.9626,133.76802,122.73733)" fill="#666673"/>
<symbol id="font_3_2">
<path d="M .23200003 .00999999 C .23200003 .012999982 .23200003 .014999986 .215 .03199999 C .09 .15799999 .058 .347 .058 .5 C .058 .674 .096 .84800007 .21900001 .97300007 C .23200003 .985 .23200003 .98700007 .23200003 .99 C .23200003 .99700006 .22800002 1 .222 1 C .21200001 1 .12200001 .93200007 .06299999 .805 C .012000002 .69500008 0 .584 0 .5 C 0 .422 .011 .301 .066 .188 C .126 .065 .21200001 0 .222 0 C .22800002 0 .23200003 .0029999912 .23200003 .00999999 Z "/>
</symbol>
<use xlink:href="#font_3_2" transform="matrix(9.9626,0,0,-9.9626,140.1763,123.18564)" fill="#666673"/>
<symbol id="font_2_4">
<path d="M .305 .31300003 C .311 .33900003 .334 .43100003 .404 .43100003 C .409 .43100003 .433 .43100003 .454 .418 C .426 .41300003 .40600003 .388 .40600003 .36400003 C .40600003 .34800003 .417 .32900004 .444 .32900004 C .46600003 .32900004 .498 .34700004 .498 .38700003 C .498 .43900005 .439 .45300005 .405 .45300005 C .347 .45300005 .312 .40000005 .3 .37700004 C .275 .44300003 .221 .45300005 .19200002 .45300005 C .08800001 .45300005 .031000002 .32400004 .031000002 .29900003 C .031000002 .28900004 .041 .28900004 .043000007 .28900004 C .051000008 .28900004 .054000006 .291 .056 .3 C .09 .40600003 .156 .43100003 .19000001 .43100003 C .209 .43100003 .244 .42200003 .244 .36400003 C .244 .33300004 .22700002 .26600004 .19000001 .126 C .17400001 .064 .13900002 .022000002 .095000009 .022000002 C .08900001 .022000002 .06600001 .022000002 .045 .035 C .07000001 .040000004 .09200001 .061 .09200001 .089 C .09200001 .116000007 .07000001 .124000009 .055000009 .124000009 C .025 .124000009 0 .098000008 0 .06600001 C 0 .020000002 .050000006 0 .094000007 0 C .16000001 0 .19600001 .07000001 .19900002 .076000008 C .21100001 .039 .24700003 0 .307 0 C .41 0 .467 .12900001 .467 .15400002 C .467 .16400002 .458 .16400002 .455 .16400002 C .446 .16400002 .444 .16000001 .442 .15300001 C .409 .046 .341 .022000002 .30900003 .022000002 C .27 .022000002 .254 .054 .254 .08800001 C .254 .11000001 .26 .13200002 .271 .17600002 L .305 .31300003 Z "/>
</symbol>
<use xlink:href="#font_2_4" transform="matrix(9.9626,0,0,-9.9626,143.3529,120.80458)" fill="#666673"/>
<symbol id="font_4_2">
<path d="M .23400001 .215 C .31600005 .25100003 .35300005 .26500003 .37800003 .277 C .397 .285 .40600003 .289 .40600003 .308 C .40600003 .32500003 .393 .34 .375 .34 C .36800004 .34 .366 .34 .35400004 .331 L .21800001 .24000001 L .23300003 .388 C .235 .40600003 .23300003 .43100003 .20300003 .43100003 C .191 .43100003 .172 .423 .172 .40100003 C .172 .39200003 .17600002 .36200003 .177 .352 C .179 .335 .186 .263 .18800001 .24000001 L .053000004 .331 C .042999999 .337 .040000008 .34 .031000004 .34 C .013000004 .34 0 .32500003 0 .308 C 0 .28800003 .012000002 .283 .021000006 .279 L .172 .21599999 C .09 .18 .053000004 .16600001 .028000005 .15400002 C .009000003 .146 0 .14200002 0 .123 C 0 .106 .013000004 .091 .031000004 .091 C .038000004 .091 .040000008 .091 .052 .1 L .18800001 .19100002 L .172 .030000002 C .172 .008000001 .191 0 .20300003 0 C .21500002 0 .23400001 .008000001 .23400001 .030000002 C .23400001 .039000006 .23 .069000009 .22900002 .079 C .22700002 .09600001 .22000002 .16800002 .21800001 .19100002 L .338 .11100001 C .36400003 .091 .366 .091 .375 .091 C .393 .091 .40600003 .106 .40600003 .123 C .40600003 .143 .394 .148 .38500006 .15200001 L .23400001 .215 Z "/>
</symbol>
<use xlink:href="#font_4_2" transform="matrix(6.9738,0,0,-6.9738,149.37866,116.34389)" fill="#666673"/>
<symbol id="font_5_1">
<path d="M .23800002 .674 C .23900001 .676 .242 .689 .242 .69 C .242 .69500008 .23800002 .704 .22600003 .704 C .20600002 .704 .12300001 .69600006 .098000008 .694 C .09 .693 .076000008 .69200006 .076000008 .671 C .076000008 .657 .09 .657 .102 .657 C .15 .657 .15 .65000006 .15 .642 C .15 .635 .148 .629 .14600002 .62 L .0050000029 .054000006 C 0 .036000004 0 .034 0 .032 C 0 .017 .012000002 0 .034 0 C .061000006 0 .074 .020000002 .08 .042000005 C .082 .046000005 .125 .22200002 .12900001 .23600002 C .2 .22900002 .25700004 .20600002 .25700004 .15400002 C .25700004 .14900002 .25700004 .14400001 .255 .134 C .251 .119 .251 .114 .251 .103 C .251 .032 .30900003 0 .357 0 C .45400007 0 .48400004 .15200001 .48400004 .15300001 C .48400004 .16600001 .47100003 .16600001 .46800006 .16600001 C .45400007 .16600001 .453 .16100002 .448 .142 C .43600006 .099 .40900005 .028 .36 .028 C .333 .028 .325 .053000004 .325 .08 C .325 .097 .325 .099 .33100004 .125 C .33200003 .128 .33600004 .14500001 .33600004 .15600002 C .33600004 .24500002 .216 .259 .17400001 .262 C .20300003 .28 .24000003 .313 .25700004 .328 C .30800004 .37600003 .35800005 .423 .41400004 .423 C .42600007 .423 .439 .42000003 .44700004 .41 C .40400005 .403 .39500005 .36900003 .39500005 .354 C .39500005 .33200003 .412 .317 .43500007 .317 C .462 .317 .49200005 .33900003 .49200005 .381 C .49200005 .414 .46800006 .451 .41500003 .451 C .35800005 .451 .306 .41 .255 .363 C .21300002 .323 .18000002 .292 .13900002 .275 L .23800002 .674 Z "/>
</symbol>
<use xlink:href="#font_5_1" transform="matrix(6.9738,0,0,-6.9738,149.28104,123.22773)" fill="#666673"/>
<symbol id="font_3_3">
<path d="M .232 .5 C .232 .578 .22100002 .699 .16600001 .81200006 C .106 .93500009 .020000004 1 .009999998 1 C .0040000008 1 0 .99600008 0 .99 C 0 .98700007 0 .985 .019000002 .967 C .117000009 .86800006 .174 .709 .174 .5 C .174 .329 .137 .153 .012999997 .026999996 C 0 .014999986 0 .012999982 0 .00999999 C 0 .003999993 .0040000008 0 .009999998 0 C .020000004 0 .11000001 .06799999 .169 .195 C .22 .305 .232 .416 .232 .5 Z "/>
</symbol>
<use xlink:href="#font_3_3" transform="matrix(9.9626,0,0,-9.9626,154.22786,123.18564)" fill="#666673"/>
<symbol id="font_3_1">
<path d="M .39500005 .698 C .38800005 .711 .38600005 .716 .36900003 .716 C .35200004 .716 .35000003 .711 .34300003 .698 L .004999999 .020000002 C 0 .011000001 0 .009000001 0 .008 C 0 0 .006000001 0 .022000004 0 L .716 0 C .73200008 0 .73800006 0 .73800006 .008 C .73800006 .009000001 .73800006 .011000001 .73300006 .020000002 L .39500005 .698 M .337 .61600008 L .60600009 .076000008 L .067 .076000008 L .337 .61600008 Z "/>
</symbol>
<use xlink:href="#font_3_1" transform="matrix(9.9626,0,0,-9.9626,192.63025,52.542985)" fill="#666673"/>
<use xlink:href="#font_2_4" transform="matrix(9.9626,0,0,-9.9626,200.75292,52.652574)" fill="#666673"/>
<symbol id="font_6_3">
<path d="M .23600002 .09200001 C .20900002 .054000006 .17000002 .019999996 .121 .019999996 C .109000008 .019999996 .061000006 .022 .046000005 .068 C .049000004 .067 .053999999 .067 .056 .067 C .086 .067 .106 .093 .106 .116000007 C .106 .139 .087000008 .14700002 .072000008 .14700002 C .056 .14700002 .021 .135 .021 .086 C .021 .034999998 .064 0 .121 0 C .22100002 0 .322 .09200001 .35 .20300001 L .448 .59300008 C .449 .59800007 .451 .60400006 .451 .61 C .451 .62500008 .439 .63500007 .42400003 .63500007 C .41500003 .63500007 .39400003 .63100007 .386 .601 L .312 .307 C .307 .289 .307 .287 .299 .27600003 C .279 .24800001 .246 .21400002 .19800002 .21400002 C .14200002 .21400002 .13700001 .26900003 .13700001 .296 C .13700001 .35300002 .16400002 .43 .19100002 .50200006 C .20200002 .531 .20800002 .545 .20800002 .56500008 C .20800002 .60700008 .17800002 .64500007 .12900001 .64500007 C .037 .64500007 0 .5 0 .49200005 C 0 .48800005 .0040000008 .48300005 .011000002 .48300005 C .020000002 .48300005 .021 .48700006 .025 .50100007 C .049000004 .58500006 .087000008 .62500008 .12600002 .62500008 C .135 .62500008 .15200001 .62500008 .15200001 .592 C .15200001 .56600007 .14100002 .537 .12600002 .499 C .077 .36800004 .077 .33500005 .077 .31100003 C .077 .216 .14500001 .194 .19500003 .194 C .22400002 .194 .26 .20300001 .29500003 .24000001 L .296 .23900001 C .28100003 .18 .271 .141 .23600002 .09200001 Z "/>
</symbol>
<use xlink:href="#font_6_3" transform="matrix(20.6625,0,0,-20.6625,54.53689,58.519136)" fill="#666673"/>
<symbol id="font_7_3">
<path d="M .597 .178 C .61200007 .178 .62700006 .178 .62700006 .19500003 C .62700006 .213 .61 .213 .59300008 .213 L .034 .213 C .016999998 .213 0 .213 0 .19500003 C 0 .178 .015000001 .178 .030000002 .178 L .597 .178 M .59300008 0 C .61 0 .62700006 0 .62700006 .018000007 C .62700006 .034999998 .61200007 .034999998 .597 .034999998 L .030000002 .034999998 C .015000001 .034999998 0 .034999998 0 .018000007 C 0 0 .016999998 0 .034 0 L .59300008 0 Z "/>
</symbol>
<use xlink:href="#font_7_3" transform="matrix(20.6625,0,0,-20.6625,71.275478,51.349248)" fill="#666673"/>
<symbol id="font_6_1">
<path d="M .395 .606 C .41500003 .606 .42300005 .606 .42300005 .62500008 C .42300005 .63500007 .41500003 .63500007 .397 .63500007 L .316 .63500007 C .335 .73800006 .349 .809 .35700003 .841 C .36300005 .865 .38400004 .888 .41000004 .888 C .43100003 .888 .45200003 .879 .462 .87 C .42300005 .86600008 .411 .837 .411 .82000008 C .411 .8 .42600004 .78800007 .44500003 .78800007 C .46500004 .78800007 .495 .805 .495 .84300008 C .495 .88500007 .453 .90800008 .409 .90800008 C .36600004 .90800008 .32400004 .87600007 .30400003 .837 C .286 .80200007 .27600003 .76600006 .25300003 .63500007 L .18600002 .63500007 C .16700001 .63500007 .157 .63500007 .157 .61700007 C .157 .606 .16300002 .606 .18300002 .606 L .24700001 .606 C .229 .513 .18800001 .287 .165 .18 C .14800002 .093 .13300002 .019999996 .083000008 .019999996 C .08000001 .019999996 .051000004 .019999996 .033000005 .039000006 C .08400001 .042999999 .08400001 .087000008 .08400001 .08800001 C .08400001 .10800001 .069000009 .120000008 .05 .120000008 C .029999998 .120000008 0 .10300001 0 .065 C 0 .022 .044000005 0 .083000008 0 C .18500002 0 .22700003 .18300002 .238 .23300001 C .256 .31 .305 .57600006 .31000004 .606 L .395 .606 Z "/>
</symbol>
<use xlink:href="#font_6_1" transform="matrix(20.6625,0,0,-20.6625,91.99178,58.519136)" fill="#666673"/>
<symbol id="font_7_1">
<path d="M .21600002 .0059999825 C .21600002 .0069999846 .21600002 .008999988 .213 .0119999949 C .167 .058999987 .044 .187 .044 .499 C .044 .81100007 .16500002 .938 .21400002 .98800006 C .21400002 .989 .21600002 .99100008 .21600002 .994 C .21600002 .99700006 .213 .999 .20900002 .999 C .19800002 .999 .113000009 .925 .06400001 .815 C .013999999 .704 0 .596 0 .5 C 0 .428 .0069999995 .306 .067 .17699999 C .11500001 .073 .197 0 .20900002 0 C .21400002 0 .21600002 .0019999892 .21600002 .0059999825 Z "/>
</symbol>
<use xlink:href="#font_7_1" transform="matrix(20.6625,0,0,-20.6625,104.97662,59.469614)" fill="#666673"/>
<symbol id="font_6_2">
<path d="M .44600005 .418 C .41400004 .412 .402 .388 .402 .36900003 C .402 .345 .42100004 .337 .43500004 .337 C .46500004 .337 .486 .363 .486 .39000003 C .486 .432 .43800003 .451 .39600004 .451 C .335 .451 .30100004 .391 .29200004 .372 C .26900003 .447 .20700002 .451 .18900001 .451 C .087 .451 .033000005 .32 .033000005 .298 C .033000005 .294 .037000006 .289 .044000005 .289 C .052000006 .289 .054 .29500003 .056000007 .299 C .09 .41 .157 .43100003 .18600002 .43100003 C .231 .43100003 .24000001 .389 .24000001 .365 C .24000001 .343 .23400003 .32 .222 .272 L .18800001 .135 C .17300001 .075 .14400001 .020000002 .091000009 .020000002 C .08600001 .020000002 .061 .020000002 .040000004 .033000005 C .076000008 .040000004 .08400001 .07 .08400001 .082 C .08400001 .102000009 .069000009 .114 .05 .114 C .026 .114 0 .093 0 .061000006 C 0 .019000002 .047000003 0 .09 0 C .13800001 0 .172 .038000004 .19300002 .079 C .20900002 .020000002 .259 0 .296 0 C .39800004 0 .45200003 .13100001 .45200003 .15300001 C .45200003 .158 .448 .16200002 .44200004 .16200002 C .43300004 .16200002 .432 .157 .42900003 .14900002 C .402 .061000006 .344 .020000002 .29900003 .020000002 C .26400004 .020000002 .245 .046000005 .245 .087000008 C .245 .109000008 .24900002 .125 .26500003 .19100002 L .3 .327 C .31500004 .387 .349 .43100003 .395 .43100003 C .397 .43100003 .425 .43100003 .44600005 .418 Z "/>
</symbol>
<use xlink:href="#font_6_2" transform="matrix(20.6625,0,0,-20.6625,111.01255,54.510614)" fill="#666673"/>
<symbol id="font_7_2">
<path d="M .216 .499 C .216 .571 .209 .693 .149 .822 C .100999999 .92600008 .018999998 .999 .0069999995 .999 C .0040000008 .999 0 .998 0 .99300006 C 0 .99100008 .0009999983 .99 .0020000004 .98800006 C .05 .938 .172 .81100007 .172 .5 C .172 .188 .051000004 .06099999 .0020000004 .0109999929 C .0009999983 .008999988 0 .007999986 0 .0059999825 C 0 .0009999871 .0040000008 0 .0069999995 0 C .018000003 0 .103 .073999989 .15200001 .184 C .202 .29500003 .216 .403 .216 .499 Z "/>
</symbol>
<use xlink:href="#font_7_2" transform="matrix(20.6625,0,0,-20.6625,122.90214,59.469614)" fill="#666673"/>
<path transform="matrix(1,0,0,-1,.199,184.26599)" stroke-width=".3985" stroke-linecap="butt" stroke-miterlimit="10" stroke-linejoin="miter" fill="none" stroke="#000000" d="M 163.71869 24.02277 C 162.97148 24.39636 162.47335 25.26811 162.47335 26.51346 L 162.47335 67.40836 C 162.47335 68.6537 161.97522 69.52547 161.228 69.89905 C 161.97522 70.27264 162.47335 71.1444 162.47335 72.38974 L 162.47335 113.28465 C 162.47335 114.53 162.97148 115.40175 163.71869 115.77534 "/>
<path transform="matrix(1,0,0,-1,.199,184.26599)" stroke-width=".3985" stroke-linecap="butt" stroke-miterlimit="10" stroke-linejoin="miter" fill="none" stroke="#000000" d="M 172.07666 127.28456 C 172.45024 128.03177 173.322 128.5299 174.56735 128.5299 L 196.47295 128.5299 C 197.71829 128.5299 198.59004 129.02803 198.96364 129.77526 C 199.33722 129.02803 200.20899 128.5299 201.45433 128.5299 L 223.35993 128.5299 C 224.60527 128.5299 225.47704 128.03177 225.85062 127.28456 "/>
</g>
<path transform="matrix(1,0,0,-1,.199,184.26599)" stroke-width=".19925" stroke-linecap="butt" stroke-miterlimit="10" stroke-linejoin="miter" fill="none" stroke="#929292" d="M 64.52875 18.89394 L 64.52875 23.14589 M 172.07666 18.89394 L 172.07666 23.14589 M 193.58625 18.89394 L 193.58625 23.14589 M 225.85062 18.89394 L 225.85062 23.14589 M 333.39854 18.89394 L 333.39854 23.14589 "/>
<path transform="matrix(1,0,0,-1,.199,184.26599)" stroke-width=".3985" stroke-linecap="butt" stroke-miterlimit="10" stroke-linejoin="miter" fill="none" stroke="#000000" d="M 0 21.01991 L 385.17997 21.01991 "/>
<path transform="matrix(1,0,0,-1,385.37898,163.24608)" d="M 1.99252 0 L -1.19551 1.59401 L 0 0 L -1.19551 -1.59401 "/>
<path transform="matrix(1,0,0,-1,.199,184.26599)" stroke-width=".3985" stroke-linecap="butt" stroke-miterlimit="10" stroke-linejoin="miter" fill="none" stroke="#000000" d="M 10.75479 0 L 10.75479 169.16974 "/>
<path transform="matrix(0,-1,-1,-0,10.953791,15.096252)" d="M 1.99252 0 L -1.19551 1.59401 L 0 0 L -1.19551 -1.59401 "/>
<use xlink:href="#font_2_4" transform="matrix(9.9626,0,0,-9.9626,50.659917,173.29058)"/>
<symbol id="font_8_1">
<path d="M .46400006 .33900003 C .46400006 .44900004 .45100004 .528 .40500004 .598 C .374 .644 .31200005 .684 .23200001 .684 C 0 .684 0 .41100005 0 .33900003 C 0 .26700003 0 0 .23200001 0 C .46400006 0 .46400006 .26700003 .46400006 .33900003 M .23200001 .028 C .186 .028 .125 .055 .105000007 .13700001 C .091000009 .19600001 .091000009 .27800004 .091000009 .35200004 C .091000009 .42500005 .091000009 .50100007 .106000009 .556 C .127 .635 .19100002 .656 .23200001 .656 C .286 .656 .338 .623 .356 .565 C .37200005 .51100006 .37300004 .43900005 .37300004 .35200004 C .37300004 .27800004 .37300004 .20400001 .36 .141 C .34000004 .050000006 .272 .028 .23200001 .028 Z "/>
</symbol>
<use xlink:href="#font_8_1" transform="matrix(6.9738,0,0,-6.9738,56.42764,174.81546)"/>
<symbol id="font_3_4">
<path d="M .63100007 .19400002 C .646 .19400002 .665 .19400002 .665 .214 C .665 .23400001 .646 .23400001 .632 .23400001 L .033 .23400001 C .019000002 .23400001 0 .23400001 0 .214 C 0 .19400002 .019000002 .19400002 .034 .19400002 L .63100007 .19400002 M .632 0 C .646 0 .665 0 .665 .02000001 C .665 .040000008 .646 .040000008 .63100007 .040000008 L .034 .040000008 C .019000002 .040000008 0 .040000008 0 .02000001 C 0 0 .019000002 0 .033 0 L .632 0 Z "/>
</symbol>
<use xlink:href="#font_3_4" transform="matrix(9.9626,0,0,-9.9626,63.85891,171.85596)"/>
<symbol id="font_2_1">
<path d="M .33300004 .38900004 C .31500004 .42600004 .286 .45300005 .24100001 .45300005 C .124 .45300005 0 .30600003 0 .16000001 C 0 .06600001 .055000005 0 .133 0 C .153 0 .20300001 .0040000008 .263 .075 C .27100004 .033000005 .30600003 0 .35400004 0 C .38900004 0 .41200004 .023000002 .42800004 .055000005 C .44500003 .091000009 .45800004 .15200001 .45800004 .15400002 C .45800004 .16400002 .44900004 .16400002 .44600005 .16400002 C .43600003 .16400002 .43500004 .16000001 .43200005 .14600002 C .41500003 .081 .397 .022000002 .35600005 .022000002 C .32900004 .022000002 .32600004 .048 .32600004 .068 C .32600004 .09 .32800005 .098000008 .33900003 .14200002 C .35000003 .18400002 .35200004 .19400002 .36100004 .23200003 L .397 .37200005 C .40400005 .40000005 .40400005 .40200005 .40400005 .40600003 C .40400005 .42300005 .39200003 .43300004 .37500004 .43300004 C .35100005 .43300004 .33600004 .411 .33300004 .38900004 M .26800005 .13000001 C .263 .112 .263 .11000001 .24800001 .093 C .20400001 .038000004 .163 .022000002 .135 .022000002 C .08499999 .022000002 .07100001 .077 .07100001 .116000007 C .07100001 .16600001 .103 .28900004 .126 .335 C .157 .39400003 .202 .43100003 .242 .43100003 C .307 .43100003 .32100005 .34900005 .32100005 .34300003 C .32100005 .337 .31900005 .33100004 .31800003 .32600004 L .26800005 .13000001 Z "/>
</symbol>
<use xlink:href="#font_2_1" transform="matrix(9.9626,0,0,-9.9626,74.21551,173.29058)"/>
<use xlink:href="#font_2_4" transform="matrix(9.9626,0,0,-9.9626,162.16591,173.29058)"/>
<use xlink:href="#font_5_1" transform="matrix(6.9738,0,0,-6.9738,168.09404,174.74571)"/>
<symbol id="font_4_1">
<path d="M .63600006 0 C .65200009 0 .67600008 0 .67600008 .023999989 C .67600008 .048999996 .65300008 .048999996 .63600006 .048999996 L .04 .048999996 C .023999997 .048999996 0 .048999996 0 .025000006 C 0 0 .02300001 0 .04 0 L .63600006 0 Z "/>
</symbol>
<use xlink:href="#font_4_1" transform="matrix(6.9738,0,0,-6.9738,172.72718,173.0999)"/>
<symbol id="font_8_2">
<path d="M .22600001 .63600006 C .22600001 .66300007 .224 .66400006 .19600001 .66400006 C .132 .601 .041 .6 0 .6 L 0 .564 C .023999997 .564 .09000001 .564 .14500001 .592 L .14500001 .082 C .14500001 .049000004 .14500001 .036000004 .04500001 .036000004 L .0069999995 .036000004 L .0069999995 0 C .024999999 .001 .148 .004 .185 .004 C .21600002 .004 .34200005 .001 .36400003 0 L .36400003 .036000004 L .32600004 .036000004 C .22600001 .036000004 .22600001 .049000004 .22600001 .082 L .22600001 .63600006 Z "/>
</symbol>
<use xlink:href="#font_8_2" transform="matrix(6.9738,0,0,-6.9738,178.96115,174.67598)"/>
<use xlink:href="#font_2_4" transform="matrix(9.9626,0,0,-9.9626,188.77391,176.35958)"/>
<use xlink:href="#font_4_2" transform="matrix(6.9738,0,0,-6.9738,194.79967,171.89987)"/>
<use xlink:href="#font_5_1" transform="matrix(6.9738,0,0,-6.9738,194.70204,178.78272)"/>
<use xlink:href="#font_2_4" transform="matrix(9.9626,0,0,-9.9626,221.03792,173.29058)"/>
<use xlink:href="#font_5_1" transform="matrix(6.9738,0,0,-6.9738,226.96605,174.74571)"/>
<use xlink:href="#font_2_4" transform="matrix(9.9626,0,0,-9.9626,319.5439,175.91959)"/>
<symbol id="font_5_2">
<path d="M .075 .073 C .07100001 .060000004 .065 .035 .065 .032 C .065 .010000001 .083000008 0 .09900001 0 C .117 0 .133 .013 .138 .022 C .143 .031000004 .15100001 .063 .156 .084 C .161 .103 .172 .14900002 .178 .17400001 C .184 .19600001 .19000001 .21800001 .19500001 .24100001 C .20600002 .282 .20800002 .29 .237 .331 C .26500003 .37100003 .31200005 .423 .38700003 .423 C .44500003 .423 .44600005 .372 .44600005 .35300002 C .44600005 .293 .40300004 .18200001 .38700003 .14000002 C .37600003 .112 .37200005 .103 .37200005 .086 C .37200005 .033000005 .41600005 0 .467 0 C .56700006 0 .61100009 .13800001 .61100009 .15300001 C .61100009 .16600001 .59800007 .16600001 .595 .16600001 C .58100005 .16600001 .58000007 .16000001 .57600006 .14900002 C .55300006 .069000009 .51000007 .028 .47000004 .028 C .44900004 .028 .44500003 .042000005 .44500003 .063 C .44500003 .086 .45000003 .099 .46800006 .14400001 C .48000003 .17500001 .521 .28100003 .521 .337 C .521 .43400003 .44400005 .451 .39100004 .451 C .30800004 .451 .25200004 .4 .22200002 .36 C .21500002 .42900003 .156 .451 .114999998 .451 C .072 .451 .049 .42000003 .036000004 .397 C .014000002 .36 0 .303 0 .298 C 0 .285 .014000002 .285 .017 .285 C .031 .285 .032 .28800003 .039 .315 C .054 .374 .073 .423 .112 .423 C .138 .423 .145 .40100003 .145 .374 C .145 .35500003 .136 .31800003 .12900001 .291 C .12200001 .264 .112 .22300002 .10700001 .20100002 L .075 .073 Z "/>
</symbol>
<use xlink:href="#font_5_2" transform="matrix(6.9738,0,0,-6.9738,325.27677,177.37473)"/>
<use xlink:href="#font_3_4" transform="matrix(9.9626,0,0,-9.9626,333.6979,174.48497)"/>
<symbol id="font_2_2">
<path d="M .192 .694 C .192 .695 .192 .705 .179 .705 C .156 .705 .083000008 .697 .057 .695 C .049 .694 .038 .693 .038 .675 C .038 .663 .047000003 .663 .062000004 .663 C .11 .663 .112 .656 .112 .646 C .112 .639 .103 .605 .098000008 .584 L .015999999 .25800003 C .0040000008 .20800002 0 .19200002 0 .15700002 C 0 .062000004 .053 0 .127 0 C .24500002 0 .36800004 .14900002 .36800004 .293 C .36800004 .38400004 .31500004 .45300005 .235 .45300005 C .18900001 .45300005 .148 .42400003 .118 .39300005 L .192 .694 M .098000008 .316 C .104 .33800004 .104 .34000004 .113000009 .351 C .162 .41600005 .207 .43100003 .233 .43100003 C .26900003 .43100003 .29600004 .40100003 .29600004 .337 C .29600004 .27800004 .263 .16300002 .24500002 .12500002 C .212 .058000003 .16600001 .022000002 .127 .022000002 C .092999998 .022000002 .060000007 .049000004 .060000007 .123 C .060000007 .14200002 .060000007 .16100002 .076000008 .22400002 L .098000008 .316 Z "/>
</symbol>
<use xlink:href="#font_2_2" transform="matrix(9.9626,0,0,-9.9626,344.12425,175.91959)"/>
<use xlink:href="#font_2_4" transform="matrix(9.9626,0,0,-9.9626,391.2379,165.49658)"/>
<symbol id="font_2_5">
<path d="M .45700003 .586 C .461 .6 .461 .602 .461 .609 C .461 .62700006 .447 .63600006 .432 .63600006 C .42200003 .63600006 .40600003 .63 .397 .615 C .395 .61 .387 .579 .38300003 .561 C .37600003 .535 .36900003 .508 .363 .48100005 L .318 .301 C .314 .286 .271 .21600002 .20500002 .21600002 C .15400002 .21600002 .143 .26000003 .143 .29700003 C .143 .34300003 .16000001 .40500004 .194 .49300004 C .21000001 .53400006 .21400002 .545 .21400002 .56500008 C .21400002 .61 .18200001 .6470001 .13200002 .6470001 C .037 .6470001 0 .50200006 0 .49300004 C 0 .48300005 .01 .48300005 .012 .48300005 C .022000002 .48300005 .023 .485 .028000003 .50100007 C .055000009 .595 .095000009 .625 .12900001 .625 C .13700001 .625 .15400002 .625 .15400002 .59300008 C .15400002 .568 .14400001 .54200008 .13700001 .523 C .097 .41700004 .079 .36 .079 .31300003 C .079 .224 .142 .194 .201 .194 C .24000003 .194 .274 .21100001 .30200003 .23900002 C .289 .187 .277 .13800001 .237 .08500001 C .21100001 .051 .17300001 .022 .127 .022 C .113000009 .022 .068 .025000006 .051000008 .06400001 C .067 .06400001 .080000009 .06400001 .094000007 .076000008 C .104 .08500001 .11400001 .098000008 .11400001 .117000009 C .11400001 .148 .087000008 .15200001 .07700001 .15200001 C .054000006 .15200001 .021 .136 .021 .087000008 C .021 .037 .065000008 0 .127 0 C .23 0 .333 .091000009 .361 .20400001 L .45700003 .586 Z "/>
</symbol>
<use xlink:href="#font_2_5" transform="matrix(9.9626,0,0,-9.9626,8.623916,9.652319)"/>
</svg>
