<?xml version="1.0" encoding="UTF-8" standalone="no"?>
<!DOCTYPE svg PUBLIC "-//W3C//DTD SVG 1.1//EN" "http://www.w3.org/Graphics/SVG/1.1/DTD/svg11.dtd">
<svg xmlns="http://www.w3.org/2000/svg" xmlns:xlink="http://www.w3.org/1999/xlink" version="1.1" width="410.158pt" height="362.538pt" viewBox="0 0 410.158 362.538">
<path transform="matrix(1,0,0,-1,69.801,362.339)" stroke-width=".3985" stroke-linecap="butt" stroke-miterlimit="10" stroke-linejoin="miter" fill="none" stroke="#000000" d="M 0 0 L 0 340.1617 "/>
<path transform="matrix(1,0,0,-1,69.801,362.339)" stroke-width=".3985" stroke-linecap="butt" stroke-miterlimit="10" stroke-linejoin="miter" fill="none" stroke="#000000" d="M 0 0 L 340.1617 0 "/>
<path transform="matrix(1,0,0,-1,69.801,362.339)" stroke-width=".3985" stroke-linecap="butt" stroke-miterlimit="10" stroke-linejoin="miter" fill="none" stroke="#000000" d="M 170.08086 0 L 170.08086 340.1617 "/>
<path transform="matrix(1,0,0,-1,69.801,362.339)" stroke-width=".3985" stroke-linecap="butt" stroke-miterlimit="10" stroke-linejoin="miter" fill="none" stroke="#000000" d="M 0 170.08086 L 340.1617 170.08086 "/>
<path transform="matrix(1,0,0,-1,69.801,362.339)" stroke-width=".3985" stroke-linecap="butt" stroke-miterlimit="10" stroke-linejoin="miter" fill="none" stroke="#000000" d="M 340.1617 0 L 340.1617 340.1617 "/>
<path transform="matrix(1,0,0,-1,69.801,362.339)" stroke-width=".3985" stroke-linecap="butt" stroke-miterlimit="10" stroke-linejoin="miter" fill="none" stroke="#000000" d="M 0 340.1617 L 340.1617 340.1617 "/>
<symbol id="font_0_6">
<path d="M .407 .34100003 C .407 .42400003 .402 .50500008 .366 .58100005 C .32500003 .66400006 .253 .68600007 .204 .68600007 C .146 .68600007 .075 .65700009 .038000004 .57400009 C .010000002 .51100006 0 .44900004 0 .34100003 C 0 .244 .0069999995 .171 .043000007 .10000001 C .082 .024000003 .151 0 .20300001 0 C .29000003 0 .34 .052 .36900003 .11 C .405 .185 .407 .28300003 .407 .34100003 M .20300001 .020000002 C .171 .020000002 .106 .038000004 .087000008 .147 C .076000008 .207 .076000008 .28300003 .076000008 .35300002 C .076000008 .43500004 .076000008 .50900009 .092 .5680001 C .109000008 .63500007 .16 .66600009 .20300001 .66600009 C .241 .66600009 .299 .64300009 .31800003 .55700007 C .331 .50000008 .331 .421 .331 .35300002 C .331 .286 .331 .21000001 .32000003 .149 C .301 .039000006 .238 .020000002 .20300001 .020000002 Z "/>
</symbol>
<use xlink:href="#font_0_6" transform="matrix(14.3462,0,0,-14.3462,3.9091933,111.45824)"/>
<symbol id="font_1_1">
<path d="M .577 .51500007 C .595 .52300009 .597 .53000006 .597 .536 C .597 .54700008 .589 .555 .578 .555 C .57600006 .555 .575 .554 .561 .54800006 L .020000004 .29900003 C .002000004 .291 0 .284 0 .278 C 0 .27100004 .001000002 .26500003 .020000004 .256 L .561 .0069999995 C .574 .0010000002 .57600006 0 .578 0 C .589 0 .597 .007999999 .597 .019000002 C .597 .025 .595 .032 .577 .04 L .062000008 .277 L .577 .51500007 Z "/>
</symbol>
<symbol id="font_1_2">
<path d="M .395 .606 C .41500003 .606 .42300005 .606 .42300005 .62500008 C .42300005 .63500007 .41500003 .63500007 .397 .63500007 L .316 .63500007 C .335 .73800006 .349 .809 .35700003 .841 C .36300005 .865 .38400004 .888 .41000004 .888 C .43100003 .888 .45200003 .879 .462 .87 C .42300005 .86600008 .411 .837 .411 .82000008 C .411 .8 .42600004 .78800007 .44500003 .78800007 C .46500004 .78800007 .495 .805 .495 .84300008 C .495 .88500007 .453 .90800008 .409 .90800008 C .36600004 .90800008 .32400004 .87600007 .30400003 .837 C .286 .80200007 .27600003 .76600006 .25300003 .63500007 L .18600002 .63500007 C .16700001 .63500007 .157 .63500007 .157 .61700007 C .157 .606 .16300002 .606 .18300002 .606 L .24700001 .606 C .229 .513 .18800001 .287 .165 .18 C .14800002 .093 .13300002 .019999996 .083000008 .019999996 C .08000001 .019999996 .051000004 .019999996 .033000005 .039000006 C .08400001 .042999999 .08400001 .087000008 .08400001 .08800001 C .08400001 .10800001 .069000009 .120000008 .05 .120000008 C .029999998 .120000008 0 .10300001 0 .065 C 0 .022 .044000005 0 .083000008 0 C .18500002 0 .22700003 .18300002 .238 .23300001 C .256 .31 .305 .57600006 .31000004 .606 L .395 .606 Z "/>
</symbol>
<use xlink:href="#font_1_1" transform="matrix(14.3462,0,0,-14.3462,15.505388,111.55866)"/>
<use xlink:href="#font_1_2" transform="matrix(14.3462,0,0,-14.3462,29.980704,114.083599)"/>
<symbol id="font_2_1">
<path d="M .22400002 .43 C .22900002 .44200004 .23300003 .45100004 .23300003 .46100004 C .23300003 .49 .20700002 .514 .17600002 .514 C .148 .514 .13000001 .495 .12300001 .46899999 L .003999999 .032000007 C .003999999 .030000002 0 .019000002 0 .018 C 0 .0069999995 .026000003 0 .034 0 C .040000008 0 .041 .0029999987 .047000007 .016000003 L .22400002 .43 Z "/>
</symbol>
<use xlink:href="#font_2_1" transform="matrix(9.9626,0,0,-9.9626,37.983915,104.78465)"/>
<use xlink:href="#font_2_1" transform="matrix(9.9626,0,0,-9.9626,40.72363,104.78465)"/>
<symbol id="font_0_1">
<path d="M .22700002 .008000001 C .22700002 .011000007 .22700002 .013000011 .21000003 .030000002 C .11 .13100001 .054000006 .296 .054000006 .5 C .054000006 .694 .10100001 .86100009 .21700002 .9790001 C .22700002 .98800006 .22700002 .99 .22700002 .99300006 C .22700002 .9990001 .22200002 1.001 .21800001 1.001 C .205 1.001 .12300001 .929 .074 .8310001 C .023000002 .73 0 .623 0 .5 C 0 .411 .013999999 .29200004 .066 .18500002 C .125 .06500001 .207 0 .21800001 0 C .22200002 0 .22700002 .002000004 .22700002 .008000001 Z "/>
</symbol>
<use xlink:href="#font_0_1" transform="matrix(14.3462,0,0,-14.3462,45.078927,114.757869)"/>
<symbol id="font_1_3">
<path d="M .44600005 .418 C .41400004 .412 .402 .388 .402 .36900003 C .402 .345 .42100004 .337 .43500004 .337 C .46500004 .337 .486 .363 .486 .39000003 C .486 .432 .43800003 .451 .39600004 .451 C .335 .451 .30100004 .391 .29200004 .372 C .26900003 .447 .20700002 .451 .18900001 .451 C .087 .451 .033000005 .32 .033000005 .298 C .033000005 .294 .037000006 .289 .044000005 .289 C .052000006 .289 .054 .29500003 .056000007 .299 C .09 .41 .157 .43100003 .18600002 .43100003 C .231 .43100003 .24000001 .389 .24000001 .365 C .24000001 .343 .23400003 .32 .222 .272 L .18800001 .135 C .17300001 .075 .14400001 .020000002 .091000009 .020000002 C .08600001 .020000002 .061 .020000002 .040000004 .033000005 C .076000008 .040000004 .08400001 .07 .08400001 .082 C .08400001 .102000009 .069000009 .114 .05 .114 C .026 .114 0 .093 0 .061000006 C 0 .019000002 .047000003 0 .09 0 C .13800001 0 .172 .038000004 .19300002 .079 C .20900002 .020000002 .259 0 .296 0 C .39800004 0 .45200003 .13100001 .45200003 .15300001 C .45200003 .158 .448 .16200002 .44200004 .16200002 C .43300004 .16200002 .432 .157 .42900003 .14900002 C .402 .061000006 .344 .020000002 .29900003 .020000002 C .26400004 .020000002 .245 .046000005 .245 .087000008 C .245 .109000008 .24900002 .125 .26500003 .19100002 L .3 .327 C .31500004 .387 .349 .43100003 .395 .43100003 C .397 .43100003 .425 .43100003 .44600005 .418 Z "/>
</symbol>
<use xlink:href="#font_1_3" transform="matrix(14.3462,0,0,-14.3462,49.537698,111.30043)"/>
<symbol id="font_0_2">
<path d="M .227 .5 C .227 .57600006 .21700001 .70000007 .161 .816 C .102 .9360001 .02 1.001 .009 1.001 C .004999999 1.001 0 .9990001 0 .99300006 C 0 .99 0 .98800006 .017 .9710001 C .117 .87 .17300001 .70500007 .17300001 .50100007 C .17300001 .307 .126 .14000002 .010000002 .022 C 0 .013000011 0 .011000007 0 .008000001 C 0 .002000004 .004999999 0 .009 0 C .022000004 0 .104 .07200001 .153 .17000002 C .204 .272 .227 .38000003 .227 .5 Z "/>
</symbol>
<use xlink:href="#font_0_2" transform="matrix(14.3462,0,0,-14.3462,57.90704,114.757869)"/>
<use xlink:href="#font_1_2" transform="matrix(14.3462,0,0,-14.3462,4.052655,284.16163)"/>
<use xlink:href="#font_2_1" transform="matrix(9.9626,0,0,-9.9626,12.064915,274.8637)"/>
<use xlink:href="#font_2_1" transform="matrix(9.9626,0,0,-9.9626,14.804629,274.8637)"/>
<use xlink:href="#font_0_1" transform="matrix(14.3462,0,0,-14.3462,19.159926,284.83589)"/>
<use xlink:href="#font_1_3" transform="matrix(14.3462,0,0,-14.3462,23.618693,281.37846)"/>
<use xlink:href="#font_0_2" transform="matrix(14.3462,0,0,-14.3462,31.988039,284.83589)"/>
<use xlink:href="#font_1_1" transform="matrix(14.3462,0,0,-14.3462,41.823389,281.6367)"/>
<use xlink:href="#font_0_6" transform="matrix(14.3462,0,0,-14.3462,56.145196,281.53627)"/>
<use xlink:href="#font_1_2" transform="matrix(14.3462,0,0,-14.3462,127.31166,17.705616)"/>
<use xlink:href="#font_2_1" transform="matrix(9.9626,0,0,-9.9626,135.3249,8.406664)"/>
<use xlink:href="#font_0_1" transform="matrix(14.3462,0,0,-14.3462,139.67993,18.379889)"/>
<use xlink:href="#font_1_3" transform="matrix(14.3462,0,0,-14.3462,144.1377,14.922454)"/>
<use xlink:href="#font_0_2" transform="matrix(14.3462,0,0,-14.3462,152.50806,18.379889)"/>
<use xlink:href="#font_1_1" transform="matrix(14.3462,0,0,-14.3462,162.3434,15.180685)"/>
<use xlink:href="#font_0_6" transform="matrix(14.3462,0,0,-14.3462,176.6652,15.080262)"/>
<use xlink:href="#font_0_6" transform="matrix(14.3462,0,0,-14.3462,297.2472,15.080262)"/>
<use xlink:href="#font_1_1" transform="matrix(14.3462,0,0,-14.3462,308.84339,15.180685)"/>
<use xlink:href="#font_1_2" transform="matrix(14.3462,0,0,-14.3462,323.3187,17.705616)"/>
<use xlink:href="#font_2_1" transform="matrix(9.9626,0,0,-9.9626,331.3229,8.406664)"/>
<use xlink:href="#font_0_1" transform="matrix(14.3462,0,0,-14.3462,335.67793,18.379889)"/>
<use xlink:href="#font_1_3" transform="matrix(14.3462,0,0,-14.3462,340.1357,14.922454)"/>
<use xlink:href="#font_0_2" transform="matrix(14.3462,0,0,-14.3462,348.50605,18.379889)"/>
<path transform="matrix(1,0,0,-1,69.801,362.339)" stroke-width="1.59404" stroke-linecap="butt" stroke-miterlimit="10" stroke-linejoin="miter" fill="none" stroke="#000080" d="M 56.69362 311.8149 L 56.8173 308.10719 L 57.18063 304.4159 L 57.78445 300.75578 L 58.6253 297.14149 L 59.70407 293.59208 L 61.0112 290.12055 L 62.54237 286.74153 L 64.28897 283.4681 L 66.25009 280.3192 L 68.41106 277.30357 L 70.76492 274.43495 L 73.29874 271.7264 L 76.00728 269.1926 L 78.87589 266.83876 L 81.89154 264.67778 L 85.04042 262.71665 L 88.31386 260.97007 L 91.69286 259.43888 L 95.1644 258.13175 L 98.7138 257.05299 L 102.3281 256.21214 L 105.98824 255.6083 L 109.67952 255.24498 L 113.38724 255.12128 "/>
<path transform="matrix(1,0,0,-1,69.801,362.339)" stroke-width="1.59404" stroke-linecap="butt" stroke-miterlimit="10" stroke-linejoin="miter" fill="none" stroke="#000080" d="M 226.77448 255.12128 L 230.48218 255.24498 L 234.17346 255.6083 L 237.83359 256.21214 L 241.44788 257.05299 L 244.9973 258.13175 L 248.46884 259.43888 L 251.84783 260.97007 L 255.12128 262.71665 L 258.27015 264.67778 L 261.2858 266.83876 L 264.1544 269.1926 L 266.86296 271.7264 L 269.39677 274.43495 L 271.75065 277.30357 L 273.9116 280.3192 L 275.8727 283.4681 L 277.61933 286.74153 L 279.15049 290.12055 L 280.4576 293.59208 L 281.53639 297.14149 L 282.37724 300.75578 L 282.98106 304.4159 L 283.3444 308.10719 L 283.4681 311.8149 "/>
<path transform="matrix(1,0,0,-1,69.801,362.339)" stroke-width="1.59404" stroke-linecap="butt" stroke-miterlimit="10" stroke-linejoin="miter" fill="none" stroke="#000080" d="M 113.38724 85.04042 L 113.26352 88.74812 L 112.90019 92.4394 L 112.29637 96.09955 L 111.45552 99.71382 L 110.37675 103.26324 L 109.06963 106.73479 L 107.53845 110.11377 L 105.79185 113.38724 L 103.83073 116.53609 L 101.66977 119.55176 L 99.3159 122.42035 L 96.78209 125.1289 L 94.07355 127.6627 L 91.20494 130.01659 L 88.18929 132.17755 L 85.04042 134.13866 L 81.76697 135.88527 L 78.38797 137.41645 L 74.91644 138.72356 L 71.36702 139.80233 L 67.75273 140.64318 L 64.09259 141.247 L 60.40132 141.61032 L 56.69362 141.73404 "/>
<path transform="matrix(1,0,0,-1,69.801,362.339)" stroke-width="1.59404" stroke-linecap="butt" stroke-miterlimit="10" stroke-linejoin="miter" fill="none" stroke="#000080" d="M 226.77448 85.04042 L 226.89817 88.74812 L 227.26149 92.4394 L 227.86533 96.09955 L 228.70618 99.71382 L 229.78493 103.26324 L 231.09206 106.73479 L 232.62323 110.11377 L 234.36985 113.38724 L 236.33095 116.53609 L 238.49192 119.55176 L 240.8458 122.42035 L 243.3796 125.1289 L 246.08815 127.6627 L 248.95674 130.01659 L 251.9724 132.17755 L 255.12128 134.13866 L 258.39476 135.88527 L 261.7737 137.41645 L 265.24525 138.72356 L 268.79469 139.80233 L 272.40895 140.64318 L 276.0691 141.247 L 279.76039 141.61032 L 283.4681 141.73404 "/>
<symbol id="font_0_9">
<path d="M .61800006 .67800006 L .018000003 .67800006 L 0 .455 L .022000004 .455 C .036000004 .61300006 .045000007 .64900007 .20300001 .64900007 C .22100002 .64900007 .24900002 .64900007 .25700004 .647 C .277 .64400008 .27800004 .632 .27800004 .609 L .27800004 .07700001 C .27800004 .043 .27800004 .029000001 .18 .029000001 L .14400001 .029000001 L .14400001 0 C .17600002 .002 .279 .002 .31800003 .002 C .35700003 .002 .46100004 .002 .493 0 L .493 .029000001 L .45700003 .029000001 C .35900004 .029000001 .35900004 .043 .35900004 .07700001 L .35900004 .609 C .35900004 .634 .36100004 .643 .37700004 .647 C .38500003 .64900007 .41400004 .64900007 .43300004 .64900007 C .591 .64900007 .6 .61300006 .614 .455 L .636 .455 L .61800006 .67800006 Z "/>
</symbol>
<symbol id="font_0_10">
<path d="M .41300003 .24300002 C .41300003 .33600004 .41300003 .36400003 .39000003 .39600004 C .361 .43500004 .314 .441 .28 .441 C .194 .441 .154 .37600003 .14 .34500004 L .139 .34500004 L .139 .694 L 0 .683 L 0 .65400007 C .068 .65400007 .076000008 .647 .076000008 .59800007 L .076000008 .074 C .076000008 .029000001 .065 .029000001 0 .029000001 L 0 0 C .026 .002 .08 .002 .107999999 .002 C .13700001 .002 .191 .002 .21700001 0 L .21700001 .029000001 C .153 .029000001 .141 .029000001 .141 .074 L .141 .26000003 C .141 .365 .21000001 .42100004 .272 .42100004 C .33400003 .42100004 .34800003 .37 .34800003 .30900003 L .34800003 .074 C .34800003 .029000001 .337 .029000001 .272 .029000001 L .272 0 C .298 .002 .352 .002 .38000003 .002 C .409 .002 .46300004 .002 .48900003 0 L .48900003 .029000001 C .439 .029000001 .414 .029000001 .41300003 .059000005 L .41300003 .24300002 Z "/>
</symbol>
<symbol id="font_0_d">
<path d="M .35300002 .24200002 C .37500004 .24200002 .377 .24200002 .377 .261 C .377 .36200003 .323 .456 .202 .456 C .08800001 .456 0 .35300002 0 .22900002 C 0 .097 .102 0 .21300002 0 C .33200003 0 .377 .108 .377 .12900001 C .377 .135 .372 .13900002 .36600004 .13900002 C .358 .13900002 .356 .134 .354 .12900001 C .328 .045 .261 .022 .21900001 .022 C .17700002 .022 .076000008 .050000006 .076000008 .22300002 L .076000008 .24200002 L .35300002 .24200002 M .07700001 .261 C .085 .418 .17300001 .43600003 .201 .43600003 C .30800004 .43600003 .314 .29500003 .31500004 .261 L .07700001 .261 Z "/>
</symbol>
<symbol id="font_0_e">
<path d="M .141 .402 L .25400005 .402 L .25400005 .43100003 L .139 .43100003 L .139 .54800006 C .139 .638 .185 .684 .226 .684 C .23400001 .684 .249 .68200007 .26100005 .67600008 C .25700004 .675 .23200001 .666 .23200001 .637 C .23200001 .614 .24800001 .59800007 .27100004 .59800007 C .29500003 .59800007 .31100003 .614 .31100003 .638 C .31100003 .675 .27500005 .70400008 .22700002 .70400008 C .157 .70400008 .078 .65000006 .078 .54800006 L .078 .43100003 L 0 .43100003 L 0 .402 L .078 .402 L .078 .074 C .078 .029000001 .067 .029000001 .0019999985 .029000001 L .0019999985 0 C .030000003 .002 .085 .002 .11500001 .002 C .142 .002 .21300002 .002 .23600002 0 L .23600002 .029000001 L .216 .029000001 C .143 .029000001 .141 .040000004 .141 .076000008 L .141 .402 Z "/>
</symbol>
<symbol id="font_0_18">
<path d="M .272 .44 L .272 .411 C .34 .411 .34800003 .404 .34800003 .35500003 L .34800003 .17600002 C .34800003 .091 .303 .020000002 .22800002 .020000002 C .146 .020000002 .141 .067 .141 .120000008 L .141 .451 L 0 .44 L 0 .411 C .076000008 .411 .076000008 .40800003 .076000008 .319 L .076000008 .16900002 C .076000008 .107 .076000008 .071 .106000009 .038000004 C .13 .012000001 .171 0 .222 0 C .23900002 0 .271 0 .305 .029000003 C .33400003 .052000006 .35000003 .09 .35000003 .09 L .35000003 0 L .48900003 .010000001 L .48900003 .039 C .421 .039 .41300003 .046000005 .41300003 .095 L .41300003 .451 L .272 .44 Z "/>
</symbol>
<symbol id="font_0_13">
<path d="M .41300003 .24300002 C .41300003 .33600004 .41300003 .36400003 .39000003 .39600004 C .361 .43500004 .314 .441 .28 .441 C .183 .441 .145 .358 .13700001 .33800004 L .136 .33800004 L .136 .441 L 0 .43 L 0 .40100003 C .068 .40100003 .076000008 .39400003 .076000008 .34500004 L .076000008 .074 C .076000008 .029000001 .065 .029000001 0 .029000001 L 0 0 C .026 .002 .08 .002 .107999999 .002 C .13700001 .002 .191 .002 .21700001 0 L .21700001 .029000001 C .153 .029000001 .141 .029000001 .141 .074 L .141 .26000003 C .141 .365 .21000001 .42100004 .272 .42100004 C .33400003 .42100004 .34800003 .37 .34800003 .30900003 L .34800003 .074 C .34800003 .029000001 .337 .029000001 .272 .029000001 L .272 0 C .298 .002 .352 .002 .38000003 .002 C .409 .002 .46300004 .002 .48900003 0 L .48900003 .029000001 C .439 .029000001 .414 .029000001 .41300003 .059000005 L .41300003 .24300002 Z "/>
</symbol>
<symbol id="font_0_b">
<path d="M .32700003 .38 C .31500004 .38 .27800004 .38 .27800004 .33900003 C .27800004 .315 .29500003 .298 .319 .298 C .342 .298 .36100004 .312 .36100004 .34100003 C .36100004 .40800003 .291 .456 .21000001 .456 C .09300001 .456 0 .352 0 .22600001 C 0 .098000008 .096000019 0 .20900002 0 C .34100003 0 .37100003 .120000008 .37100003 .12900001 C .37100003 .13800001 .36400003 .13800001 .36100004 .13800001 C .35200004 .13800001 .351 .135 .34800003 .123 C .32600004 .052000006 .272 .022 .21800003 .022 C .157 .022 .076000008 .075 .076000008 .22700002 C .076000008 .393 .16100002 .43400003 .21100001 .43400003 C .24900002 .43400003 .30400003 .419 .32700003 .38 Z "/>
</symbol>
<symbol id="font_0_17">
<path d="M .15 .412 L .291 .412 L .291 .441 L .15 .441 L .15 .625 L .128 .625 C .127 .531 .091000009 .435 0 .432 L 0 .412 L .08500001 .412 L .08500001 .134 C .08500001 .023000002 .159 0 .212 0 C .275 0 .308 .062000004 .308 .134 L .308 .19100002 L .286 .19100002 L .286 .136 C .286 .064 .257 .022 .21800001 .022 C .15 .022 .15 .115 .15 .13200002 L .15 .412 Z "/>
</symbol>
<symbol id="font_0_11">
<path d="M .141 .61600008 C .141 .642 .12000001 .665 .092 .665 C .06600001 .665 .044000009 .64400008 .044000009 .61700007 C .044000009 .587 .068 .568 .092 .568 C .123 .568 .141 .59400007 .141 .61600008 M .0030000024 .43 L .0030000024 .40100003 C .067 .40100003 .076000008 .395 .076000008 .34600003 L .076000008 .074 C .076000008 .029000001 .065000008 .029000001 0 .029000001 L 0 0 C .028000005 .002 .076000008 .002 .10500001 .002 C .116000007 .002 .17400003 .002 .208 0 L .208 .029000001 C .143 .029000001 .139 .034 .139 .07300001 L .139 .441 L .0030000024 .43 Z "/>
</symbol>
<symbol id="font_0_14">
<path d="M .42900003 .22400002 C .42900003 .35300002 .33100004 .456 .215 .456 C .095 .456 0 .35 0 .22400002 C 0 .096 .10000001 0 .21400002 0 C .33200003 0 .42900003 .098000008 .42900003 .22400002 M .215 .022 C .178 .022 .133 .038000004 .104 .087000008 C .07700001 .13200002 .076000008 .19100002 .076000008 .23300001 C .076000008 .271 .076000008 .33200003 .10700001 .377 C .135 .42000003 .179 .43600003 .21400002 .43600003 C .25300003 .43600003 .29500003 .418 .32200004 .379 C .35300002 .333 .35300002 .27 .35300002 .23300001 C .35300002 .19800002 .35300002 .136 .32700003 .089 C .29900003 .041 .25300003 .022 .215 .022 Z "/>
</symbol>
<use xlink:href="#font_0_9" transform="matrix(11.9552,0,0,-11.9552,84.39243,128.81897)"/>
<use xlink:href="#font_0_10" transform="matrix(11.9552,0,0,-11.9552,92.80889,128.81897)"/>
<use xlink:href="#font_0_d" transform="matrix(11.9552,0,0,-11.9552,99.28861,128.93852)"/>
<use xlink:href="#font_0_e" transform="matrix(11.9552,0,0,-11.9552,107.82463,128.81897)"/>
<use xlink:href="#font_0_18" transform="matrix(11.9552,0,0,-11.9552,111.411197,128.93852)"/>
<use xlink:href="#font_0_13" transform="matrix(11.9552,0,0,-11.9552,117.914829,128.81897)"/>
<use xlink:href="#font_0_b" transform="matrix(11.9552,0,0,-11.9552,124.45432,128.93852)"/>
<use xlink:href="#font_0_17" transform="matrix(11.9552,0,0,-11.9552,129.4516,128.93852)"/>
<use xlink:href="#font_0_11" transform="matrix(11.9552,0,0,-11.9552,134.18585,128.81897)"/>
<use xlink:href="#font_0_14" transform="matrix(11.9552,0,0,-11.9552,137.40181,128.93852)"/>
<use xlink:href="#font_0_13" transform="matrix(11.9552,0,0,-11.9552,143.28377,128.81897)"/>
<use xlink:href="#font_1_2" transform="matrix(11.9552,0,0,-11.9552,153.33171,131.25783)"/>
<symbol id="font_0_16">
<path d="M .29500003 .433 C .29500003 .451 .29500003 .456 .28500004 .456 C .277 .456 .25800003 .43400003 .25100003 .425 C .22000003 .45000003 .18900001 .456 .157 .456 C .036000007 .456 0 .39000003 0 .335 C 0 .324 0 .289 .038000004 .254 C .07000001 .22600001 .10400001 .21900001 .15 .21000001 C .20500002 .19900002 .21800003 .19600001 .24300003 .17600002 C .261 .16100002 .27400003 .13900002 .27400003 .111 C .27400003 .068 .24900002 .020000002 .16100002 .020000002 C .095000009 .020000002 .047000007 .058000003 .025000003 .158 C .021000002 .17600002 .021000002 .17700002 .020000004 .17800002 C .018000003 .18200001 .014000002 .18200001 .011000004 .18200001 C 0 .18200001 0 .17700002 0 .15900001 L 0 .023000002 C 0 .0050000005 0 0 .010000002 0 C .015000001 0 .016000003 .0010000002 .033 .022 C .038000004 .029000003 .038000004 .031000004 .053000004 .047000003 C .091000009 0 .14500001 0 .162 0 C .26700003 0 .31900005 .058000003 .31900005 .13700001 C .31900005 .19100002 .286 .22300002 .277 .23200003 C .24100003 .263 .21400002 .269 .148 .28100003 C .11800001 .287 .045 .301 .045 .361 C .045 .39200003 .06600001 .43800003 .15600002 .43800003 C .26500003 .43800003 .27100004 .345 .27300004 .314 C .27400003 .306 .28100003 .306 .284 .306 C .29500003 .306 .29500003 .31100003 .29500003 .329 L .29500003 .433 Z "/>
</symbol>
<symbol id="font_0_c">
<path d="M .26500003 .693 L .26500003 .66400006 C .33300004 .66400006 .34100003 .657 .34100003 .60800006 L .34100003 .387 C .32000003 .416 .277 .451 .21600002 .451 C .10000001 .451 0 .35300002 0 .22500001 C 0 .098000008 .09500001 0 .20500002 0 C .28100003 0 .32500003 .050000006 .33900003 .069000009 L .33900003 0 L .48000006 .010000001 L .48000006 .039 C .41200004 .039 .404 .046000005 .404 .095 L .404 .704 L .26500003 .693 M .33900003 .127 C .33900003 .109000008 .33900003 .106 .32500003 .084 C .30100004 .049000004 .26000003 .020000002 .21000001 .020000002 C .18400002 .020000002 .076000008 .030000002 .076000008 .22400002 C .076000008 .296 .088 .336 .110000018 .36900003 C .13000001 .4 .17000002 .43100003 .22000003 .43100003 C .282 .43100003 .31700004 .386 .32700003 .37 C .33900003 .35300002 .33900003 .351 .33900003 .333 L .33900003 .127 Z "/>
</symbol>
<symbol id="font_0_15">
<path d="M .13900002 .23300001 C .13900002 .33 .17900002 .42100004 .256 .42100004 C .26400004 .42100004 .266 .42100004 .27 .42000003 C .26200003 .416 .24600002 .41000004 .24600002 .38300003 C .24600002 .354 .26900003 .34300003 .28500004 .34300003 C .305 .34300003 .32500003 .356 .32500003 .38300003 C .32500003 .41300003 .298 .441 .25500003 .441 C .17000002 .441 .14100002 .349 .135 .33 L .134 .33 L .134 .441 L 0 .43 L 0 .40100003 C .068 .40100003 .076000008 .39400003 .076000008 .34500004 L .076000008 .074 C .076000008 .029000001 .065 .029000001 0 .029000001 L 0 0 C .028 .002 .083000008 .002 .113000009 .002 C .14000002 .002 .21100001 .002 .23400003 0 L .23400003 .029000001 L .21400002 .029000001 C .14100002 .029000001 .13900002 .040000004 .13900002 .076000008 L .13900002 .23300001 Z "/>
</symbol>
<symbol id="font_0_a">
<path d="M .342 .277 C .342 .331 .342 .37100003 .298 .41 C .263 .442 .21800003 .456 .17400001 .456 C .09200001 .456 .029000003 .402 .029000003 .337 C .029000003 .308 .048000006 .294 .070999998 .294 C .09500001 .294 .112 .31100003 .112 .335 C .112 .37600003 .076000008 .37600003 .061 .37600003 C .08400001 .418 .13200002 .43600003 .172 .43600003 C .21800003 .43600003 .277 .398 .277 .308 L .277 .268 C .076000008 .26500003 0 .18100001 0 .104 C 0 .025000003 .09200001 0 .15300001 0 C .21900001 0 .26400004 .040000004 .28300003 .088 C .28700004 .041 .31800003 .0050000005 .36100004 .0050000005 C .38200004 .0050000005 .44000004 .019000002 .44000004 .099 L .44000004 .15500002 L .418 .15500002 L .418 .099 C .418 .042000005 .39400003 .034 .38000003 .034 C .342 .034 .342 .087000008 .342 .102000009 L .342 .277 M .277 .15100001 C .277 .053000004 .20400001 .020000002 .16100002 .020000002 C .112 .020000002 .070999998 .056000007 .070999998 .104 C .070999998 .23600002 .24100003 .24800001 .277 .25 L .277 .15100001 Z "/>
</symbol>
<symbol id="font_0_4">
<path d="M .26000003 0 L .26000003 .054000006 L 0 .054000006 L 0 0 L .26000003 0 Z "/>
</symbol>
<symbol id="font_0_f">
<path d="M .092 .38600005 C .13900002 .35500003 .17900002 .35500003 .19000001 .35500003 C .28 .35500003 .347 .42300005 .347 .5 C .347 .52700009 .33900003 .56500008 .307 .597 C .34600003 .637 .393 .637 .398 .637 C .402 .637 .407 .637 .411 .635 C .40100003 .63100007 .396 .62100008 .396 .61 C .396 .5960001 .40600003 .584 .42200003 .584 C .43 .584 .448 .589 .448 .61100009 C .448 .62900009 .43400003 .65700009 .39900003 .65700009 C .347 .65700009 .308 .625 .294 .61 C .264 .633 .22900002 .646 .19100002 .646 C .101 .646 .034 .57800009 .034 .50100007 C .034 .444 .069 .407 .079 .398 C .067 .38300003 .049000004 .35400004 .049000004 .31500004 C .049000004 .25700004 .08400001 .23200001 .092 .22700002 C .046000005 .21400002 0 .17800002 0 .12600002 C 0 .05700001 .094000007 0 .21700002 0 C .336 0 .435 .053000004 .435 .128 C .435 .15300001 .428 .21200001 .368 .24300002 C .317 .26900003 .267 .26900003 .18100001 .26900003 C .12 .26900003 .113 .26900003 .095000009 .28800003 C .085 .298 .076000008 .31700004 .076000008 .338 C .076000008 .35500003 .082 .37200005 .092 .38600005 M .19100002 .37600003 C .10300001 .37600003 .10300001 .47700004 .10300001 .5 C .10300001 .518 .10300001 .559 .12 .586 C .13900002 .615 .16900002 .625 .19000001 .625 C .278 .625 .278 .52400007 .278 .50100007 C .278 .48300005 .278 .44200004 .261 .41500003 C .24200003 .38600005 .21200001 .37600003 .19100002 .37600003 M .21800001 .020999998 C .122 .020999998 .049000004 .07000001 .049000004 .127 C .049000004 .13500002 .051 .17400001 .089 .20000002 C .11100001 .21400002 .12 .21400002 .19000001 .21400002 C .273 .21400002 .386 .21400002 .386 .127 C .386 .068 .31 .020999998 .21800001 .020999998 Z "/>
</symbol>
<symbol id="font_0_3">
<path d="M .108 .18900001 C .108 .25100003 .087000008 .29000003 .048 .29000003 C .019000002 .29000003 0 .268 0 .24200002 C 0 .215 .019000002 .193 .049000004 .193 C .064 .193 .074999999 .2 .08100001 .205 C .084 .208 .085 .208 .086 .208 C .08800001 .208 .08800001 .194 .08800001 .18900001 C .08800001 .125 .062 .065 .018 .018999994 C .013999999 .016000003 .012999997 .013999999 .012999997 .00999999 C .012999997 .004999995 .018 0 .023000002 0 C .031999999 0 .108 .074 .108 .18900001 Z "/>
</symbol>
<symbol id="font_0_1a">
<path d="M .587 .34600003 C .609 .409 .653 .411 .67 .412 L .67 .441 C .64500007 .439 .62700006 .439 .596 .439 C .56700006 .439 .565 .439 .51100006 .441 L .51100006 .412 C .556 .41 .568 .38300003 .568 .364 C .568 .363 .568 .356 .564 .34600003 L .472 .084 L .372 .367 C .367 .379 .367 .381 .367 .384 C .367 .412 .404 .412 .425 .412 L .425 .441 C .397 .439 .356 .439 .32700003 .439 C .29500003 .439 .293 .439 .23700002 .441 L .23700002 .412 C .275 .412 .28800003 .41 .299 .397 C .30400003 .391 .316 .358 .323 .338 L .238 .094000007 L .142 .366 C .137 .379 .137 .381 .137 .38500003 C .137 .412 .176 .412 .19500001 .412 L .19500001 .441 C .17 .439 .12000001 .439 .09300001 .439 C .065000008 .439 .063 .439 0 .441 L 0 .412 C .051000008 .412 .061000006 .40800003 .072000008 .37600003 L .198 .018000002 C .202 .0070000009 .205 0 .216 0 C .22500001 0 .23 .0030000006 .23500002 .019000002 L .335 .304 L .435 .019000002 C .44000004 .0030000006 .44500003 0 .45400004 0 C .465 0 .46800003 .0070000009 .472 .018000002 L .587 .34600003 Z "/>
</symbol>
<symbol id="font_0_12">
<path d="M .139 .694 L 0 .683 L 0 .65400007 C .068 .65400007 .076000008 .647 .076000008 .59800007 L .076000008 .074 C .076000008 .029000001 .065000008 .029000001 0 .029000001 L 0 0 C .028000005 .002 .07700001 .002 .107 .002 C .137 .002 .187 .002 .215 0 L .215 .029000001 C .15100003 .029000001 .139 .029000001 .139 .074 L .139 .694 Z "/>
</symbol>
<symbol id="font_0_5">
<path d="M .09700001 .049000004 C .09700001 .076000008 .07400001 .097 .049000004 .097 C .020000004 .097 0 .074 0 .049000004 C 0 .019000002 .024999999 0 .048 0 C .074999999 0 .09700001 .021000002 .09700001 .049000004 Z "/>
</symbol>
<symbol id="font_0_8">
<path d="M .18100001 .60700008 C .18100001 .64400008 .18400002 .65400007 .259 .65400007 L .281 .65400007 L .281 .683 C .257 .68100008 .17100002 .68100008 .141 .68100008 C .111 .68100008 .024 .68100008 0 .683 L 0 .65400007 L .022 .65400007 C .097 .65400007 .10000001 .64400008 .10000001 .60700008 L .10000001 .076000008 C .10000001 .039 .097 .029000001 .022 .029000001 L 0 .029000001 L 0 0 C .024 .002 .110000018 .002 .14000002 .002 C .17000002 .002 .257 .002 .281 0 L .281 .029000001 L .259 .029000001 C .18400002 .029000001 .18100001 .039 .18100001 .076000008 L .18100001 .60700008 Z "/>
</symbol>
<symbol id="font_0_19">
<path d="M .39000003 .34600003 C .39900003 .368 .416 .411 .48000003 .412 L .48000003 .441 C .451 .439 .437 .439 .40600003 .439 C .38500003 .439 .37 .439 .324 .441 L .324 .412 C .366 .41 .37100003 .38 .37100003 .36900003 C .37100003 .36 .36900003 .35500003 .36400003 .343 L .262 .085 L .15 .367 C .145 .381 .144 .381 .144 .386 C .144 .412 .182 .412 .2 .412 L .2 .441 C .175 .439 .123 .439 .09600001 .439 C .063 .439 .061000006 .439 0 .441 L 0 .412 C .056 .412 .06600001 .40800003 .078 .377 L .221 .019000002 C .22600001 .0050000005 .228 0 .24000001 0 C .24700001 0 .25300003 .0020000004 .26000003 .019000002 L .39000003 .34600003 Z "/>
</symbol>
<use xlink:href="#font_0_11" transform="matrix(11.9552,0,0,-11.9552,163.48352,128.81897)"/>
<use xlink:href="#font_0_16" transform="matrix(11.9552,0,0,-11.9552,166.73534,128.93852)"/>
<use xlink:href="#font_0_c" transform="matrix(11.9552,0,0,-11.9552,174.6975,128.93852)"/>
<use xlink:href="#font_0_d" transform="matrix(11.9552,0,0,-11.9552,181.14136,128.93852)"/>
<use xlink:href="#font_0_b" transform="matrix(11.9552,0,0,-11.9552,186.40164,128.93852)"/>
<use xlink:href="#font_0_15" transform="matrix(11.9552,0,0,-11.9552,191.51848,128.81897)"/>
<use xlink:href="#font_0_d" transform="matrix(11.9552,0,0,-11.9552,196.09732,128.93852)"/>
<use xlink:href="#font_0_a" transform="matrix(11.9552,0,0,-11.9552,201.46521,128.93852)"/>
<use xlink:href="#font_0_16" transform="matrix(11.9552,0,0,-11.9552,207.19174,128.93852)"/>
<use xlink:href="#font_0_4" transform="matrix(11.9552,0,0,-11.9552,211.54343,126.55943)"/>
<use xlink:href="#font_0_11" transform="matrix(11.9552,0,0,-11.9552,84.36853,140.77397)"/>
<use xlink:href="#font_0_13" transform="matrix(11.9552,0,0,-11.9552,87.60839,140.77397)"/>
<use xlink:href="#font_0_f" transform="matrix(11.9552,0,0,-11.9552,94.052249,143.2248)"/>
<use xlink:href="#font_0_3" transform="matrix(11.9552,0,0,-11.9552,100.6276,143.08133)"/>
<use xlink:href="#font_0_1a" transform="matrix(11.9552,0,0,-11.9552,106.37806,140.89353)"/>
<use xlink:href="#font_0_10" transform="matrix(11.9552,0,0,-11.9552,114.99776,140.77397)"/>
<use xlink:href="#font_0_11" transform="matrix(11.9552,0,0,-11.9552,121.51334,140.77397)"/>
<use xlink:href="#font_0_12" transform="matrix(11.9552,0,0,-11.9552,124.76516,140.77397)"/>
<use xlink:href="#font_0_d" transform="matrix(11.9552,0,0,-11.9552,127.98111,140.89353)"/>
<use xlink:href="#font_0_17" transform="matrix(11.9552,0,0,-11.9552,136.34975,140.89353)"/>
<use xlink:href="#font_0_10" transform="matrix(11.9552,0,0,-11.9552,141.07205,140.77397)"/>
<use xlink:href="#font_0_d" transform="matrix(11.9552,0,0,-11.9552,147.55178,140.89353)"/>
<use xlink:href="#font_0_15" transform="matrix(11.9552,0,0,-11.9552,156.05193,140.77397)"/>
<use xlink:href="#font_0_a" transform="matrix(11.9552,0,0,-11.9552,160.79814,140.89353)"/>
<use xlink:href="#font_0_17" transform="matrix(11.9552,0,0,-11.9552,166.34535,140.89353)"/>
<use xlink:href="#font_0_d" transform="matrix(11.9552,0,0,-11.9552,171.04375,140.89353)"/>
<use xlink:href="#font_0_11" transform="matrix(11.9552,0,0,-11.9552,179.60367,140.77397)"/>
<use xlink:href="#font_0_17" transform="matrix(11.9552,0,0,-11.9552,182.67617,140.89353)"/>
<use xlink:href="#font_0_16" transform="matrix(11.9552,0,0,-11.9552,187.41042,140.89353)"/>
<use xlink:href="#font_0_d" transform="matrix(11.9552,0,0,-11.9552,191.98926,140.89353)"/>
<use xlink:href="#font_0_12" transform="matrix(11.9552,0,0,-11.9552,197.22563,140.77397)"/>
<use xlink:href="#font_0_e" transform="matrix(11.9552,0,0,-11.9552,200.45354,140.77397)"/>
<use xlink:href="#font_0_11" transform="matrix(11.9552,0,0,-11.9552,207.36363,140.77397)"/>
<use xlink:href="#font_0_16" transform="matrix(11.9552,0,0,-11.9552,210.61545,140.89353)"/>
<use xlink:href="#font_0_11" transform="matrix(11.9552,0,0,-11.9552,84.36853,152.72898)"/>
<use xlink:href="#font_0_13" transform="matrix(11.9552,0,0,-11.9552,87.60839,152.72898)"/>
<use xlink:href="#font_0_b" transform="matrix(11.9552,0,0,-11.9552,94.14789,152.84853)"/>
<use xlink:href="#font_0_15" transform="matrix(11.9552,0,0,-11.9552,99.26472,152.72898)"/>
<use xlink:href="#font_0_d" transform="matrix(11.9552,0,0,-11.9552,103.84356,152.84853)"/>
<use xlink:href="#font_0_a" transform="matrix(11.9552,0,0,-11.9552,109.21145,152.84853)"/>
<use xlink:href="#font_0_16" transform="matrix(11.9552,0,0,-11.9552,114.93799,152.84853)"/>
<use xlink:href="#font_0_11" transform="matrix(11.9552,0,0,-11.9552,119.5527,152.72898)"/>
<use xlink:href="#font_0_13" transform="matrix(11.9552,0,0,-11.9552,122.79256,152.72898)"/>
<use xlink:href="#font_0_f" transform="matrix(11.9552,0,0,-11.9552,129.2364,155.1798)"/>
<use xlink:href="#font_0_5" transform="matrix(11.9552,0,0,-11.9552,135.81177,152.72898)"/>
<use xlink:href="#font_0_8" transform="matrix(11.9552,0,0,-11.9552,143.4392,152.72898)"/>
<use xlink:href="#font_0_13" transform="matrix(11.9552,0,0,-11.9552,147.61156,152.72898)"/>
<use xlink:href="#font_0_17" transform="matrix(11.9552,0,0,-11.9552,157.2594,152.84853)"/>
<use xlink:href="#font_0_10" transform="matrix(11.9552,0,0,-11.9552,161.9817,152.72898)"/>
<use xlink:href="#font_0_11" transform="matrix(11.9552,0,0,-11.9552,168.49729,152.72898)"/>
<use xlink:href="#font_0_16" transform="matrix(11.9552,0,0,-11.9552,171.7491,152.84853)"/>
<use xlink:href="#font_0_b" transform="matrix(11.9552,0,0,-11.9552,179.71126,152.84853)"/>
<use xlink:href="#font_0_a" transform="matrix(11.9552,0,0,-11.9552,185.01938,152.84853)"/>
<use xlink:href="#font_0_16" transform="matrix(11.9552,0,0,-11.9552,190.74591,152.84853)"/>
<use xlink:href="#font_0_d" transform="matrix(11.9552,0,0,-11.9552,195.32476,152.84853)"/>
<use xlink:href="#font_0_17" transform="matrix(11.9552,0,0,-11.9552,203.70536,152.84853)"/>
<use xlink:href="#font_0_10" transform="matrix(11.9552,0,0,-11.9552,208.42766,152.72898)"/>
<use xlink:href="#font_0_d" transform="matrix(11.9552,0,0,-11.9552,214.90738,152.84853)"/>
<use xlink:href="#font_0_b" transform="matrix(11.9552,0,0,-11.9552,84.39244,164.80353)"/>
<use xlink:href="#font_0_18" transform="matrix(11.9552,0,0,-11.9552,89.55709,164.80353)"/>
<use xlink:href="#font_0_15" transform="matrix(11.9552,0,0,-11.9552,96.0129,164.68398)"/>
<use xlink:href="#font_0_19" transform="matrix(11.9552,0,0,-11.9552,100.44828,164.80353)"/>
<use xlink:href="#font_0_d" transform="matrix(11.9552,0,0,-11.9552,106.44979,164.80353)"/>
<symbol id="font_1_4">
<path d="M .23600002 .09200001 C .20900002 .054000006 .17000002 .019999996 .121 .019999996 C .109000008 .019999996 .061000006 .022 .046000005 .068 C .049000004 .067 .053999999 .067 .056 .067 C .086 .067 .106 .093 .106 .116000007 C .106 .139 .087000008 .14700002 .072000008 .14700002 C .056 .14700002 .021 .135 .021 .086 C .021 .034999998 .064 0 .121 0 C .22100002 0 .322 .09200001 .35 .20300001 L .448 .59300008 C .449 .59800007 .451 .60400006 .451 .61 C .451 .62500008 .439 .63500007 .42400003 .63500007 C .41500003 .63500007 .39400003 .63100007 .386 .601 L .312 .307 C .307 .289 .307 .287 .299 .27600003 C .279 .24800001 .246 .21400002 .19800002 .21400002 C .14200002 .21400002 .13700001 .26900003 .13700001 .296 C .13700001 .35300002 .16400002 .43 .19100002 .50200006 C .20200002 .531 .20800002 .545 .20800002 .56500008 C .20800002 .60700008 .17800002 .64500007 .12900001 .64500007 C .037 .64500007 0 .5 0 .49200005 C 0 .48800005 .0040000008 .48300005 .011000002 .48300005 C .020000002 .48300005 .021 .48700006 .025 .50100007 C .049000004 .58500006 .087000008 .62500008 .12600002 .62500008 C .135 .62500008 .15200001 .62500008 .15200001 .592 C .15200001 .56600007 .14100002 .537 .12600002 .499 C .077 .36800004 .077 .33500005 .077 .31100003 C .077 .216 .14500001 .194 .19500003 .194 C .22400002 .194 .26 .20300001 .29500003 .24000001 L .296 .23900001 C .28100003 .18 .271 .141 .23600002 .09200001 Z "/>
</symbol>
<use xlink:href="#font_1_4" transform="matrix(11.9552,0,0,-11.9552,114.9318,167.12284)"/>
<symbol id="font_0_7">
<path d="M .621 .18599999 C .635 .18599999 .653 .18599999 .653 .204 C .653 .22300002 .63600006 .22300002 .621 .22300002 L .032 .22300002 C .018000003 .22300002 0 .22300002 0 .20500002 C 0 .18599999 .017 .18599999 .032 .18599999 L .621 .18599999 M .621 0 C .635 0 .653 0 .653 .017999992 C .653 .037 .63600006 .037 .621 .037 L .032 .037 C .018000003 .037 0 .037 0 .018999994 C 0 0 .017 0 .032 0 L .621 0 Z "/>
</symbol>
<use xlink:href="#font_0_7" transform="matrix(11.9552,0,0,-11.9552,125.5526,163.03417)"/>
<use xlink:href="#font_1_2" transform="matrix(11.9552,0,0,-11.9552,138.78273,167.12284)"/>
<use xlink:href="#font_0_1" transform="matrix(11.9552,0,0,-11.9552,146.39064,167.68474)"/>
<use xlink:href="#font_1_3" transform="matrix(11.9552,0,0,-11.9552,150.10578,164.80353)"/>
<use xlink:href="#font_0_2" transform="matrix(11.9552,0,0,-11.9552,157.08156,167.68474)"/>
<use xlink:href="#font_0_11" transform="matrix(11.9552,0,0,-11.9552,164.69702,164.68398)"/>
<use xlink:href="#font_0_16" transform="matrix(11.9552,0,0,-11.9552,167.94884,164.80353)"/>
<symbol id="font_3_2">
<path d="M .43 .123 C .43 .135 .41900004 .135 .40900005 .135 C .393 .135 .39200003 .134 .38700003 .122 C .38 .103 .35300005 .036000004 .26100005 .036000004 C .120000008 .036000004 .120000008 .18800001 .120000008 .23300001 C .120000008 .29200004 .12100001 .42300005 .25200004 .42300005 C .259 .42300005 .31800003 .42100004 .31800003 .41600005 C .31800003 .41500003 .31700004 .41400004 .315 .41300003 C .31200005 .41000004 .29900003 .39500005 .29900003 .37000004 C .29900003 .32800005 .333 .31100003 .35800005 .31100003 C .379 .31100003 .417 .32400004 .417 .37100003 C .417 .45300005 .302 .45900003 .24800001 .45900003 C .07 .45900003 0 .34300003 0 .22800002 C 0 .092 .095 0 .242 0 C .399 0 .43 .116000007 .43 .123 Z "/>
</symbol>
<symbol id="font_3_6">
<path d="M .49900005 .22500001 C .49900005 .36 .40700004 .45900003 .25000004 .45900003 C .087000008 .45900003 0 .35500003 0 .22500001 C 0 .094000007 .092 0 .249 0 C .41200004 0 .49900005 .099 .49900005 .22500001 M .25000004 .036000004 C .120000008 .036000004 .120000008 .153 .120000008 .23500002 C .120000008 .28200004 .120000008 .33200003 .139 .36800004 C .161 .40800003 .20600002 .42600004 .249 .42600004 C .30600003 .42600004 .34200005 .39900003 .35900004 .37100003 C .37900005 .33500005 .37900005 .28300003 .37900005 .23500002 C .37900005 .15200001 .37900005 .036000004 .25000004 .036000004 Z "/>
</symbol>
<symbol id="font_3_5">
<path d="M .48900003 .30600003 C .48900003 .40100003 .448 .45000003 .33800004 .45000003 C .26600004 .45000003 .204 .41500003 .17000002 .34 L .169 .34 L .169 .45000003 L 0 .44200004 L 0 .39900003 C .062 .39900003 .069000009 .39900003 .069000009 .36 L .069000009 .043 L 0 .043 L 0 0 C .023000002 .002 .095000009 .002 .123 .002 C .151 .002 .224 .002 .24700001 0 L .24700001 .043 L .178 .043 L .178 .256 C .178 .36400003 .25800003 .41700004 .32200004 .41700004 C .35900004 .41700004 .38000003 .393 .38000003 .317 L .38000003 .043 L .31100003 .043 L .31100003 0 C .33400003 .002 .40600003 .002 .43400003 .002 C .462 .002 .535 .002 .558 0 L .558 .043 L .48900003 .043 L .48900003 .30600003 Z "/>
</symbol>
<symbol id="font_3_1">
<path d="M .426 .30500005 C .426 .39700005 .35300002 .45900003 .21200001 .45900003 C .15600002 .45900003 .038000004 .45400004 .038000004 .37000004 C .038000004 .32800005 .07 .31000004 .09700001 .31000004 C .127 .31000004 .15600002 .33100004 .15600002 .36900003 C .15600002 .38800005 .14900002 .40600003 .132 .41700004 C .16500002 .42600004 .18900001 .42600004 .208 .42600004 C .276 .42600004 .317 .38800005 .317 .30600003 L .317 .26600004 C .15900001 .26600004 0 .222 0 .111 C 0 .02 .116000007 0 .185 0 C .262 0 .31100003 .042000005 .331 .086 C .331 .049000004 .331 .006 .432 .006 L .483 .006 C .50400009 .006 .512 .006 .512 .028 C .512 .049000004 .503 .049000004 .489 .049000004 C .426 .050000006 .426 .066 .426 .089 L .426 .30500005 M .317 .14500001 C .317 .051000004 .23300001 .033 .201 .033 C .15200001 .033 .11100001 .066 .11100001 .112 C .11100001 .20300001 .21900001 .23400001 .317 .23900001 L .317 .14500001 Z "/>
</symbol>
<symbol id="font_3_9">
<path d="M .47100006 .38300003 C .47800005 .398 .48200006 .40600003 .545 .40600003 L .545 .44900004 C .50900009 .44700004 .507 .44700004 .46600003 .44700004 C .43900005 .44700004 .43700005 .44700004 .38000003 .44900004 L .38000003 .40600003 C .40700004 .40600003 .42900003 .40100003 .42900003 .39400003 C .42900003 .393 .42900003 .39200003 .42400003 .382 L .30700005 .125 L .178 .40600003 L .233 .40600003 L .233 .44900004 C .21000001 .44700004 .14 .44700004 .113000009 .44700004 C .08400001 .44700004 .026 .44700004 0 .44900004 L 0 .40600003 L .06300001 .40600003 L .23900001 .024000003 C .24800001 .0050000005 .25000004 0 .27300004 0 C .28900004 0 .29700003 .0020000004 .30600003 .022000002 L .47100006 .38300003 Z "/>
</symbol>
<symbol id="font_3_4">
<path d="M .42100004 .22700002 C .44400005 .22700002 .45000006 .22700002 .45000006 .252 C .45000006 .28200004 .44300006 .35700003 .39700005 .40400005 C .35500003 .44600005 .29900003 .45900003 .24100001 .45900003 C .085 .45900003 0 .35700003 0 .231 C 0 .091 .103 0 .25400005 0 C .40500004 0 .45000006 .106 .45000006 .123 C .45000006 .138 .43500004 .138 .42900003 .138 C .41300006 .138 .41200004 .135 .40600003 .122 C .38000003 .057000005 .31400005 .036000004 .26600004 .036000004 C .12100001 .036000004 .120000008 .171 .120000008 .22700002 L .42100004 .22700002 M .120000008 .256 C .12200001 .29700003 .12300001 .33600004 .14400001 .37200005 C .163 .40400005 .19800002 .42600004 .24100001 .42600004 C .34800003 .42600004 .35700003 .30600003 .35800005 .256 L .120000008 .256 Z "/>
</symbol>
<symbol id="font_3_8">
<path d="M .31100003 .44800005 L .31100003 .40500004 C .37300004 .40500004 .38000003 .40500004 .38000003 .36600004 L .38000003 .17 C .38000003 .094000007 .335 .033 .25700004 .033 C .18200001 .033 .178 .058000003 .178 .113000009 L .178 .45600004 L 0 .44800005 L 0 .40500004 C .062 .40500004 .069000009 .40500004 .069000009 .36600004 L .069000009 .12900001 C .069000009 .029000003 .136 0 .24300003 0 C .26700003 0 .34100003 0 .38400004 .081 L .38500003 .081 L .38500003 0 L .558 .006 L .558 .049000004 C .49600006 .049000004 .48900003 .049000004 .48900003 .088 L .48900003 .45600004 L .31100003 .44800005 Z "/>
</symbol>
<symbol id="font_3_7">
<path d="M .24700001 .042999999 L .17800002 .042999999 L .17800002 .23500002 C .20300001 .213 .24700001 .18800001 .307 .18800001 C .44400005 .18800001 .551 .27100004 .551 .417 C .551 .55500009 .45800004 .64400008 .323 .64400008 C .26400004 .64400008 .21300002 .624 .17300001 .592 L .17300001 .64400008 L 0 .63600006 L 0 .59300008 C .062000004 .59300008 .069000009 .59300008 .069000009 .554 L .069000009 .042999999 L 0 .042999999 L 0 0 C .023000002 .002000004 .09500001 .002000004 .12300001 .002000004 C .15100001 .002000004 .224 .002000004 .24700001 0 L .24700001 .042999999 M .17800002 .544 C .215 .592 .268 .60800006 .307 .60800006 C .372 .60800006 .43100003 .549 .43100003 .417 C .43100003 .272 .35900004 .221 .29500003 .221 C .252 .221 .20900002 .243 .17800002 .29000003 L .17800002 .544 Z "/>
</symbol>
<use xlink:href="#font_3_2" transform="matrix(11.9552,0,0,-11.9552,175.94033,164.7557)"/>
<use xlink:href="#font_3_6" transform="matrix(11.9552,0,0,-11.9552,181.83423,164.7557)"/>
<use xlink:href="#font_3_5" transform="matrix(11.9552,0,0,-11.9552,188.69652,164.68398)"/>
<use xlink:href="#font_3_2" transform="matrix(11.9552,0,0,-11.9552,196.1207,164.7557)"/>
<use xlink:href="#font_3_1" transform="matrix(11.9552,0,0,-11.9552,202.05048,164.7557)"/>
<use xlink:href="#font_3_9" transform="matrix(11.9552,0,0,-11.9552,208.09981,164.74375)"/>
<use xlink:href="#font_3_4" transform="matrix(11.9552,0,0,-11.9552,214.91428,164.7557)"/>
<use xlink:href="#font_3_8" transform="matrix(11.9552,0,0,-11.9552,84.47614,176.7117)"/>
<use xlink:href="#font_3_7" transform="matrix(11.9552,0,0,-11.9552,91.864459,178.95928)"/>
<use xlink:href="#font_0_5" transform="matrix(11.9552,0,0,-11.9552,99.95812,176.63997)"/>
<use xlink:href="#font_0_9" transform="matrix(11.9552,0,0,-11.9552,254.47144,128.81897)"/>
<use xlink:href="#font_0_10" transform="matrix(11.9552,0,0,-11.9552,262.88789,128.81897)"/>
<use xlink:href="#font_0_d" transform="matrix(11.9552,0,0,-11.9552,269.3676,128.93852)"/>
<use xlink:href="#font_0_e" transform="matrix(11.9552,0,0,-11.9552,277.90364,128.81897)"/>
<use xlink:href="#font_0_18" transform="matrix(11.9552,0,0,-11.9552,281.49018,128.93852)"/>
<use xlink:href="#font_0_13" transform="matrix(11.9552,0,0,-11.9552,287.99385,128.81897)"/>
<use xlink:href="#font_0_b" transform="matrix(11.9552,0,0,-11.9552,294.5333,128.93852)"/>
<use xlink:href="#font_0_17" transform="matrix(11.9552,0,0,-11.9552,299.53056,128.93852)"/>
<use xlink:href="#font_0_11" transform="matrix(11.9552,0,0,-11.9552,304.26484,128.81897)"/>
<use xlink:href="#font_0_14" transform="matrix(11.9552,0,0,-11.9552,307.48078,128.93852)"/>
<use xlink:href="#font_0_13" transform="matrix(11.9552,0,0,-11.9552,313.36274,128.81897)"/>
<use xlink:href="#font_1_2" transform="matrix(11.9552,0,0,-11.9552,323.41075,131.25783)"/>
<use xlink:href="#font_0_11" transform="matrix(11.9552,0,0,-11.9552,333.56257,128.81897)"/>
<use xlink:href="#font_0_16" transform="matrix(11.9552,0,0,-11.9552,336.81434,128.93852)"/>
<use xlink:href="#font_0_11" transform="matrix(11.9552,0,0,-11.9552,344.75263,128.81897)"/>
<use xlink:href="#font_0_13" transform="matrix(11.9552,0,0,-11.9552,347.99244,128.81897)"/>
<use xlink:href="#font_0_b" transform="matrix(11.9552,0,0,-11.9552,354.53196,128.93852)"/>
<use xlink:href="#font_0_15" transform="matrix(11.9552,0,0,-11.9552,359.64878,128.81897)"/>
<use xlink:href="#font_0_d" transform="matrix(11.9552,0,0,-11.9552,364.2276,128.93852)"/>
<use xlink:href="#font_0_a" transform="matrix(11.9552,0,0,-11.9552,369.5955,128.93852)"/>
<use xlink:href="#font_0_16" transform="matrix(11.9552,0,0,-11.9552,375.32203,128.93852)"/>
<use xlink:href="#font_0_4" transform="matrix(11.9552,0,0,-11.9552,379.67375,126.55943)"/>
<use xlink:href="#font_0_11" transform="matrix(11.9552,0,0,-11.9552,254.44754,140.77397)"/>
<use xlink:href="#font_0_13" transform="matrix(11.9552,0,0,-11.9552,257.68739,140.77397)"/>
<use xlink:href="#font_0_f" transform="matrix(11.9552,0,0,-11.9552,264.13127,143.2248)"/>
<use xlink:href="#font_0_3" transform="matrix(11.9552,0,0,-11.9552,270.7066,143.08133)"/>
<use xlink:href="#font_0_1a" transform="matrix(11.9552,0,0,-11.9552,276.45707,140.89353)"/>
<use xlink:href="#font_0_10" transform="matrix(11.9552,0,0,-11.9552,285.07679,140.77397)"/>
<use xlink:href="#font_0_11" transform="matrix(11.9552,0,0,-11.9552,291.59236,140.77397)"/>
<use xlink:href="#font_0_12" transform="matrix(11.9552,0,0,-11.9552,294.84419,140.77397)"/>
<use xlink:href="#font_0_d" transform="matrix(11.9552,0,0,-11.9552,298.06007,140.89353)"/>
<use xlink:href="#font_0_17" transform="matrix(11.9552,0,0,-11.9552,306.42869,140.89353)"/>
<use xlink:href="#font_0_10" transform="matrix(11.9552,0,0,-11.9552,311.151,140.77397)"/>
<use xlink:href="#font_0_d" transform="matrix(11.9552,0,0,-11.9552,317.63075,140.89353)"/>
<use xlink:href="#font_0_15" transform="matrix(11.9552,0,0,-11.9552,326.1309,140.77397)"/>
<use xlink:href="#font_0_a" transform="matrix(11.9552,0,0,-11.9552,330.8771,140.89353)"/>
<use xlink:href="#font_0_17" transform="matrix(11.9552,0,0,-11.9552,336.4243,140.89353)"/>
<use xlink:href="#font_0_d" transform="matrix(11.9552,0,0,-11.9552,341.12269,140.89353)"/>
<use xlink:href="#font_0_11" transform="matrix(11.9552,0,0,-11.9552,349.68263,140.77397)"/>
<use xlink:href="#font_0_17" transform="matrix(11.9552,0,0,-11.9552,352.7551,140.89353)"/>
<use xlink:href="#font_0_16" transform="matrix(11.9552,0,0,-11.9552,357.48939,140.89353)"/>
<use xlink:href="#font_0_d" transform="matrix(11.9552,0,0,-11.9552,362.06819,140.89353)"/>
<use xlink:href="#font_0_12" transform="matrix(11.9552,0,0,-11.9552,367.30458,140.77397)"/>
<use xlink:href="#font_0_e" transform="matrix(11.9552,0,0,-11.9552,370.53248,140.77397)"/>
<use xlink:href="#font_0_11" transform="matrix(11.9552,0,0,-11.9552,377.44258,140.77397)"/>
<use xlink:href="#font_0_16" transform="matrix(11.9552,0,0,-11.9552,380.6944,140.89353)"/>
<use xlink:href="#font_0_11" transform="matrix(11.9552,0,0,-11.9552,254.44754,152.72898)"/>
<use xlink:href="#font_0_13" transform="matrix(11.9552,0,0,-11.9552,257.68739,152.72898)"/>
<use xlink:href="#font_0_b" transform="matrix(11.9552,0,0,-11.9552,264.2269,152.84853)"/>
<use xlink:href="#font_0_15" transform="matrix(11.9552,0,0,-11.9552,269.34373,152.72898)"/>
<use xlink:href="#font_0_d" transform="matrix(11.9552,0,0,-11.9552,273.92256,152.84853)"/>
<use xlink:href="#font_0_a" transform="matrix(11.9552,0,0,-11.9552,279.29045,152.84853)"/>
<use xlink:href="#font_0_16" transform="matrix(11.9552,0,0,-11.9552,285.01698,152.84853)"/>
<use xlink:href="#font_0_11" transform="matrix(11.9552,0,0,-11.9552,289.6317,152.72898)"/>
<use xlink:href="#font_0_13" transform="matrix(11.9552,0,0,-11.9552,292.87153,152.72898)"/>
<use xlink:href="#font_0_f" transform="matrix(11.9552,0,0,-11.9552,299.3154,155.1798)"/>
<use xlink:href="#font_0_5" transform="matrix(11.9552,0,0,-11.9552,305.89076,152.72898)"/>
<use xlink:href="#font_0_8" transform="matrix(11.9552,0,0,-11.9552,313.5062,152.72898)"/>
<use xlink:href="#font_0_13" transform="matrix(11.9552,0,0,-11.9552,317.69056,152.72898)"/>
<use xlink:href="#font_0_17" transform="matrix(11.9552,0,0,-11.9552,327.33836,152.84853)"/>
<use xlink:href="#font_0_10" transform="matrix(11.9552,0,0,-11.9552,332.06068,152.72898)"/>
<use xlink:href="#font_0_11" transform="matrix(11.9552,0,0,-11.9552,338.5763,152.72898)"/>
<use xlink:href="#font_0_16" transform="matrix(11.9552,0,0,-11.9552,341.82807,152.84853)"/>
<use xlink:href="#font_0_b" transform="matrix(11.9552,0,0,-11.9552,349.79026,152.84853)"/>
<use xlink:href="#font_0_a" transform="matrix(11.9552,0,0,-11.9552,355.09837,152.84853)"/>
<use xlink:href="#font_0_16" transform="matrix(11.9552,0,0,-11.9552,360.8249,152.84853)"/>
<use xlink:href="#font_0_d" transform="matrix(11.9552,0,0,-11.9552,365.40376,152.84853)"/>
<use xlink:href="#font_0_17" transform="matrix(11.9552,0,0,-11.9552,373.78434,152.84853)"/>
<use xlink:href="#font_0_10" transform="matrix(11.9552,0,0,-11.9552,378.50666,152.72898)"/>
<use xlink:href="#font_0_d" transform="matrix(11.9552,0,0,-11.9552,384.98634,152.84853)"/>
<use xlink:href="#font_0_b" transform="matrix(11.9552,0,0,-11.9552,254.47145,164.80353)"/>
<use xlink:href="#font_0_18" transform="matrix(11.9552,0,0,-11.9552,259.6361,164.80353)"/>
<use xlink:href="#font_0_15" transform="matrix(11.9552,0,0,-11.9552,266.0919,164.68398)"/>
<use xlink:href="#font_0_19" transform="matrix(11.9552,0,0,-11.9552,270.52726,164.80353)"/>
<use xlink:href="#font_0_d" transform="matrix(11.9552,0,0,-11.9552,276.5288,164.80353)"/>
<use xlink:href="#font_1_4" transform="matrix(11.9552,0,0,-11.9552,285.01084,167.12284)"/>
<use xlink:href="#font_0_7" transform="matrix(11.9552,0,0,-11.9552,295.6306,163.03417)"/>
<use xlink:href="#font_1_2" transform="matrix(11.9552,0,0,-11.9552,308.86076,167.12284)"/>
<use xlink:href="#font_0_1" transform="matrix(11.9552,0,0,-11.9552,316.46965,167.68474)"/>
<use xlink:href="#font_1_3" transform="matrix(11.9552,0,0,-11.9552,320.18479,164.80353)"/>
<use xlink:href="#font_0_2" transform="matrix(11.9552,0,0,-11.9552,327.15956,167.68474)"/>
<use xlink:href="#font_0_11" transform="matrix(11.9552,0,0,-11.9552,334.77503,164.68398)"/>
<use xlink:href="#font_0_16" transform="matrix(11.9552,0,0,-11.9552,338.02687,164.80353)"/>
<use xlink:href="#font_3_2" transform="matrix(11.9552,0,0,-11.9552,346.0193,164.7557)"/>
<use xlink:href="#font_3_6" transform="matrix(11.9552,0,0,-11.9552,351.9132,164.7557)"/>
<use xlink:href="#font_3_5" transform="matrix(11.9552,0,0,-11.9552,358.77549,164.68398)"/>
<use xlink:href="#font_3_2" transform="matrix(11.9552,0,0,-11.9552,366.19966,164.7557)"/>
<use xlink:href="#font_3_1" transform="matrix(11.9552,0,0,-11.9552,372.12944,164.7557)"/>
<use xlink:href="#font_3_9" transform="matrix(11.9552,0,0,-11.9552,378.17878,164.74375)"/>
<use xlink:href="#font_3_4" transform="matrix(11.9552,0,0,-11.9552,384.98127,164.7557)"/>
<use xlink:href="#font_3_8" transform="matrix(11.9552,0,0,-11.9552,254.55515,176.7117)"/>
<use xlink:href="#font_3_7" transform="matrix(11.9552,0,0,-11.9552,261.94346,178.95928)"/>
<use xlink:href="#font_0_5" transform="matrix(11.9552,0,0,-11.9552,270.0371,176.63997)"/>
<use xlink:href="#font_0_9" transform="matrix(11.9552,0,0,-11.9552,84.39243,300.06)"/>
<use xlink:href="#font_0_10" transform="matrix(11.9552,0,0,-11.9552,92.80889,300.06)"/>
<use xlink:href="#font_0_d" transform="matrix(11.9552,0,0,-11.9552,99.28861,300.17955)"/>
<use xlink:href="#font_0_e" transform="matrix(11.9552,0,0,-11.9552,107.82463,300.06)"/>
<use xlink:href="#font_0_18" transform="matrix(11.9552,0,0,-11.9552,111.411197,300.17955)"/>
<use xlink:href="#font_0_13" transform="matrix(11.9552,0,0,-11.9552,117.914829,300.06)"/>
<use xlink:href="#font_0_b" transform="matrix(11.9552,0,0,-11.9552,124.45432,300.17955)"/>
<use xlink:href="#font_0_17" transform="matrix(11.9552,0,0,-11.9552,129.4516,300.17955)"/>
<use xlink:href="#font_0_11" transform="matrix(11.9552,0,0,-11.9552,134.18585,300.06)"/>
<use xlink:href="#font_0_14" transform="matrix(11.9552,0,0,-11.9552,137.40181,300.17955)"/>
<use xlink:href="#font_0_13" transform="matrix(11.9552,0,0,-11.9552,143.28377,300.06)"/>
<use xlink:href="#font_1_2" transform="matrix(11.9552,0,0,-11.9552,153.33171,302.49888)"/>
<use xlink:href="#font_0_11" transform="matrix(11.9552,0,0,-11.9552,163.48352,300.06)"/>
<use xlink:href="#font_0_16" transform="matrix(11.9552,0,0,-11.9552,166.73534,300.17955)"/>
<use xlink:href="#font_0_c" transform="matrix(11.9552,0,0,-11.9552,174.6975,300.17955)"/>
<use xlink:href="#font_0_d" transform="matrix(11.9552,0,0,-11.9552,181.14136,300.17955)"/>
<use xlink:href="#font_0_b" transform="matrix(11.9552,0,0,-11.9552,186.40164,300.17955)"/>
<use xlink:href="#font_0_15" transform="matrix(11.9552,0,0,-11.9552,191.51848,300.06)"/>
<use xlink:href="#font_0_d" transform="matrix(11.9552,0,0,-11.9552,196.09732,300.17955)"/>
<use xlink:href="#font_0_a" transform="matrix(11.9552,0,0,-11.9552,201.46521,300.17955)"/>
<use xlink:href="#font_0_16" transform="matrix(11.9552,0,0,-11.9552,207.19174,300.17955)"/>
<use xlink:href="#font_0_4" transform="matrix(11.9552,0,0,-11.9552,211.54343,297.80049)"/>
<use xlink:href="#font_0_11" transform="matrix(11.9552,0,0,-11.9552,84.36853,312.01499)"/>
<use xlink:href="#font_0_13" transform="matrix(11.9552,0,0,-11.9552,87.60839,312.01499)"/>
<use xlink:href="#font_0_f" transform="matrix(11.9552,0,0,-11.9552,94.052249,314.4658)"/>
<use xlink:href="#font_0_3" transform="matrix(11.9552,0,0,-11.9552,100.6276,314.32234)"/>
<use xlink:href="#font_0_1a" transform="matrix(11.9552,0,0,-11.9552,106.37806,312.13453)"/>
<use xlink:href="#font_0_10" transform="matrix(11.9552,0,0,-11.9552,114.99776,312.01499)"/>
<use xlink:href="#font_0_11" transform="matrix(11.9552,0,0,-11.9552,121.51334,312.01499)"/>
<use xlink:href="#font_0_12" transform="matrix(11.9552,0,0,-11.9552,124.76516,312.01499)"/>
<use xlink:href="#font_0_d" transform="matrix(11.9552,0,0,-11.9552,127.98111,312.13453)"/>
<use xlink:href="#font_0_17" transform="matrix(11.9552,0,0,-11.9552,136.34975,312.13453)"/>
<use xlink:href="#font_0_10" transform="matrix(11.9552,0,0,-11.9552,141.07205,312.01499)"/>
<use xlink:href="#font_0_d" transform="matrix(11.9552,0,0,-11.9552,147.55178,312.13453)"/>
<use xlink:href="#font_0_15" transform="matrix(11.9552,0,0,-11.9552,156.05193,312.01499)"/>
<use xlink:href="#font_0_a" transform="matrix(11.9552,0,0,-11.9552,160.79814,312.13453)"/>
<use xlink:href="#font_0_17" transform="matrix(11.9552,0,0,-11.9552,166.34535,312.13453)"/>
<use xlink:href="#font_0_d" transform="matrix(11.9552,0,0,-11.9552,171.04375,312.13453)"/>
<use xlink:href="#font_0_11" transform="matrix(11.9552,0,0,-11.9552,179.60367,312.01499)"/>
<use xlink:href="#font_0_17" transform="matrix(11.9552,0,0,-11.9552,182.67617,312.13453)"/>
<use xlink:href="#font_0_16" transform="matrix(11.9552,0,0,-11.9552,187.41042,312.13453)"/>
<use xlink:href="#font_0_d" transform="matrix(11.9552,0,0,-11.9552,191.98926,312.13453)"/>
<use xlink:href="#font_0_12" transform="matrix(11.9552,0,0,-11.9552,197.22563,312.01499)"/>
<use xlink:href="#font_0_e" transform="matrix(11.9552,0,0,-11.9552,200.45354,312.01499)"/>
<use xlink:href="#font_0_11" transform="matrix(11.9552,0,0,-11.9552,207.36363,312.01499)"/>
<use xlink:href="#font_0_16" transform="matrix(11.9552,0,0,-11.9552,210.61545,312.13453)"/>
<use xlink:href="#font_0_c" transform="matrix(11.9552,0,0,-11.9552,84.39244,324.08955)"/>
<use xlink:href="#font_0_d" transform="matrix(11.9552,0,0,-11.9552,90.836299,324.08955)"/>
<use xlink:href="#font_0_b" transform="matrix(11.9552,0,0,-11.9552,96.09659,324.08955)"/>
<use xlink:href="#font_0_15" transform="matrix(11.9552,0,0,-11.9552,101.21342,323.97)"/>
<use xlink:href="#font_0_d" transform="matrix(11.9552,0,0,-11.9552,105.79226,324.08955)"/>
<use xlink:href="#font_0_a" transform="matrix(11.9552,0,0,-11.9552,111.16015,324.08955)"/>
<use xlink:href="#font_0_16" transform="matrix(11.9552,0,0,-11.9552,116.88669,324.08955)"/>
<use xlink:href="#font_0_11" transform="matrix(11.9552,0,0,-11.9552,121.501399,323.97)"/>
<use xlink:href="#font_0_13" transform="matrix(11.9552,0,0,-11.9552,124.74126,323.97)"/>
<use xlink:href="#font_0_f" transform="matrix(11.9552,0,0,-11.9552,131.1851,326.4208)"/>
<use xlink:href="#font_0_5" transform="matrix(11.9552,0,0,-11.9552,137.76047,323.97)"/>
<use xlink:href="#font_0_8" transform="matrix(11.9552,0,0,-11.9552,145.3879,323.97)"/>
<use xlink:href="#font_0_13" transform="matrix(11.9552,0,0,-11.9552,149.56026,323.97)"/>
<use xlink:href="#font_0_17" transform="matrix(11.9552,0,0,-11.9552,159.2081,324.08955)"/>
<use xlink:href="#font_0_10" transform="matrix(11.9552,0,0,-11.9552,163.9304,323.97)"/>
<use xlink:href="#font_0_11" transform="matrix(11.9552,0,0,-11.9552,170.44599,323.97)"/>
<use xlink:href="#font_0_16" transform="matrix(11.9552,0,0,-11.9552,173.6978,324.08955)"/>
<use xlink:href="#font_0_b" transform="matrix(11.9552,0,0,-11.9552,181.65996,324.08955)"/>
<use xlink:href="#font_0_a" transform="matrix(11.9552,0,0,-11.9552,186.96808,324.08955)"/>
<use xlink:href="#font_0_16" transform="matrix(11.9552,0,0,-11.9552,192.69461,324.08955)"/>
<use xlink:href="#font_0_d" transform="matrix(11.9552,0,0,-11.9552,197.27346,324.08955)"/>
<use xlink:href="#font_0_17" transform="matrix(11.9552,0,0,-11.9552,205.65406,324.08955)"/>
<use xlink:href="#font_0_10" transform="matrix(11.9552,0,0,-11.9552,210.37636,323.97)"/>
<use xlink:href="#font_0_d" transform="matrix(11.9552,0,0,-11.9552,216.85608,324.08955)"/>
<use xlink:href="#font_0_b" transform="matrix(11.9552,0,0,-11.9552,84.39244,336.04454)"/>
<use xlink:href="#font_0_18" transform="matrix(11.9552,0,0,-11.9552,89.55709,336.04454)"/>
<use xlink:href="#font_0_15" transform="matrix(11.9552,0,0,-11.9552,96.0129,335.925)"/>
<use xlink:href="#font_0_19" transform="matrix(11.9552,0,0,-11.9552,100.44828,336.04454)"/>
<use xlink:href="#font_0_d" transform="matrix(11.9552,0,0,-11.9552,106.44979,336.04454)"/>
<use xlink:href="#font_1_4" transform="matrix(11.9552,0,0,-11.9552,114.9318,338.36387)"/>
<use xlink:href="#font_0_7" transform="matrix(11.9552,0,0,-11.9552,125.5526,334.27519)"/>
<use xlink:href="#font_1_2" transform="matrix(11.9552,0,0,-11.9552,138.78273,338.36387)"/>
<use xlink:href="#font_0_1" transform="matrix(11.9552,0,0,-11.9552,146.39064,338.92576)"/>
<use xlink:href="#font_1_3" transform="matrix(11.9552,0,0,-11.9552,150.10578,336.04454)"/>
<use xlink:href="#font_0_2" transform="matrix(11.9552,0,0,-11.9552,157.08156,338.92576)"/>
<use xlink:href="#font_0_11" transform="matrix(11.9552,0,0,-11.9552,164.69702,335.925)"/>
<use xlink:href="#font_0_16" transform="matrix(11.9552,0,0,-11.9552,167.94884,336.04454)"/>
<symbol id="font_3_3">
<path d="M .30900003 .69200006 L .30900003 .649 C .371 .649 .37800003 .649 .37800003 .61 L .37800003 .40800003 C .356 .42700006 .31200005 .45600004 .24300002 .45600004 C .10100001 .45600004 0 .36800004 0 .22800002 C 0 .085 .09900001 0 .23200001 0 C .287 0 .334 .019000002 .37300004 .052000006 L .37300004 0 L .55100008 .006 L .55100008 .049000004 C .48900003 .049000004 .48200006 .049000004 .48200006 .088 L .48200006 .7 L .30900003 .69200006 M .37300004 .107 C .33100004 .046000005 .28000004 .033 .244 .033 C .120000008 .033 .120000008 .16000001 .120000008 .22600001 C .120000008 .27300004 .120000008 .323 .142 .36100004 C .17300001 .41700004 .23200001 .42300005 .255 .42300005 C .296 .42300005 .34000004 .40500004 .37300004 .36100004 L .37300004 .107 Z "/>
</symbol>
<symbol id="font_3_a">
<path d="M .697 .382 C .70400008 .39900003 .707 .40600003 .76500007 .40600003 L .76500007 .44900004 C .73600009 .44700004 .72300007 .44700004 .68700006 .44700004 C .646 .44700004 .633 .44700004 .597 .44900004 L .597 .40600003 C .606 .40600003 .65500006 .40600003 .65500006 .393 C .65500006 .39200003 .65500006 .391 .651 .381 L .546 .12100001 L .43100003 .40600003 L .48800005 .40600003 L .48800005 .44900004 C .46400003 .44700004 .40500004 .44700004 .37800003 .44700004 C .32700003 .44700004 .32500003 .44700004 .275 .44900004 L .275 .40600003 L .33400003 .40600003 C .337 .398 .342 .38500003 .34600003 .37600003 C .349 .37 .35900004 .34600003 .35900004 .34100003 C .35900004 .33900003 .356 .33200003 .35500003 .329 L .279 .14 L .171 .40600003 L .22800002 .40600003 L .22800002 .44900004 C .20500002 .44700004 .13700001 .44700004 .11 .44700004 C .078 .44700004 .030000002 .44700004 0 .44900004 L 0 .40600003 L .059 .40600003 L .21200001 .025000003 C .21900001 .007 .223 0 .245 0 C .256 0 .268 0 .27600003 .020000002 L .38200004 .285 L .48800005 .022000002 C .49700005 0 .508 0 .52000007 0 C .542 0 .545 .0060000007 .55200007 .024000003 L .697 .382 Z "/>
</symbol>
<use xlink:href="#font_3_2" transform="matrix(11.9552,0,0,-11.9552,175.94033,335.9967)"/>
<use xlink:href="#font_3_6" transform="matrix(11.9552,0,0,-11.9552,181.83423,335.9967)"/>
<use xlink:href="#font_3_5" transform="matrix(11.9552,0,0,-11.9552,188.69652,335.925)"/>
<use xlink:href="#font_3_2" transform="matrix(11.9552,0,0,-11.9552,196.1207,335.9967)"/>
<use xlink:href="#font_3_1" transform="matrix(11.9552,0,0,-11.9552,202.05048,335.9967)"/>
<use xlink:href="#font_3_9" transform="matrix(11.9552,0,0,-11.9552,208.09981,335.98478)"/>
<use xlink:href="#font_3_4" transform="matrix(11.9552,0,0,-11.9552,214.91428,335.9967)"/>
<use xlink:href="#font_3_3" transform="matrix(11.9552,0,0,-11.9552,84.42832,347.9527)"/>
<use xlink:href="#font_3_6" transform="matrix(11.9552,0,0,-11.9552,91.816638,347.9527)"/>
<use xlink:href="#font_3_a" transform="matrix(11.9552,0,0,-11.9552,98.08116,347.94078)"/>
<use xlink:href="#font_3_5" transform="matrix(11.9552,0,0,-11.9552,108.02789,347.88099)"/>
<use xlink:href="#font_0_5" transform="matrix(11.9552,0,0,-11.9552,116.023128,347.88099)"/>
<use xlink:href="#font_0_9" transform="matrix(11.9552,0,0,-11.9552,254.47144,300.06)"/>
<use xlink:href="#font_0_10" transform="matrix(11.9552,0,0,-11.9552,262.88789,300.06)"/>
<use xlink:href="#font_0_d" transform="matrix(11.9552,0,0,-11.9552,269.3676,300.17955)"/>
<use xlink:href="#font_0_e" transform="matrix(11.9552,0,0,-11.9552,277.90364,300.06)"/>
<use xlink:href="#font_0_18" transform="matrix(11.9552,0,0,-11.9552,281.49018,300.17955)"/>
<use xlink:href="#font_0_13" transform="matrix(11.9552,0,0,-11.9552,287.99385,300.06)"/>
<use xlink:href="#font_0_b" transform="matrix(11.9552,0,0,-11.9552,294.5333,300.17955)"/>
<use xlink:href="#font_0_17" transform="matrix(11.9552,0,0,-11.9552,299.53056,300.17955)"/>
<use xlink:href="#font_0_11" transform="matrix(11.9552,0,0,-11.9552,304.26484,300.06)"/>
<use xlink:href="#font_0_14" transform="matrix(11.9552,0,0,-11.9552,307.48078,300.17955)"/>
<use xlink:href="#font_0_13" transform="matrix(11.9552,0,0,-11.9552,313.36274,300.06)"/>
<use xlink:href="#font_1_2" transform="matrix(11.9552,0,0,-11.9552,323.41075,302.49888)"/>
<use xlink:href="#font_0_11" transform="matrix(11.9552,0,0,-11.9552,333.56257,300.06)"/>
<use xlink:href="#font_0_16" transform="matrix(11.9552,0,0,-11.9552,336.81434,300.17955)"/>
<use xlink:href="#font_0_11" transform="matrix(11.9552,0,0,-11.9552,344.75263,300.06)"/>
<use xlink:href="#font_0_13" transform="matrix(11.9552,0,0,-11.9552,347.99244,300.06)"/>
<use xlink:href="#font_0_b" transform="matrix(11.9552,0,0,-11.9552,354.53196,300.17955)"/>
<use xlink:href="#font_0_15" transform="matrix(11.9552,0,0,-11.9552,359.64878,300.06)"/>
<use xlink:href="#font_0_d" transform="matrix(11.9552,0,0,-11.9552,364.2276,300.17955)"/>
<use xlink:href="#font_0_a" transform="matrix(11.9552,0,0,-11.9552,369.5955,300.17955)"/>
<use xlink:href="#font_0_16" transform="matrix(11.9552,0,0,-11.9552,375.32203,300.17955)"/>
<use xlink:href="#font_0_4" transform="matrix(11.9552,0,0,-11.9552,379.67375,297.80049)"/>
<use xlink:href="#font_0_11" transform="matrix(11.9552,0,0,-11.9552,254.44754,312.01499)"/>
<use xlink:href="#font_0_13" transform="matrix(11.9552,0,0,-11.9552,257.68739,312.01499)"/>
<use xlink:href="#font_0_f" transform="matrix(11.9552,0,0,-11.9552,264.13127,314.4658)"/>
<use xlink:href="#font_0_3" transform="matrix(11.9552,0,0,-11.9552,270.7066,314.32234)"/>
<use xlink:href="#font_0_1a" transform="matrix(11.9552,0,0,-11.9552,276.45707,312.13453)"/>
<use xlink:href="#font_0_10" transform="matrix(11.9552,0,0,-11.9552,285.07679,312.01499)"/>
<use xlink:href="#font_0_11" transform="matrix(11.9552,0,0,-11.9552,291.59236,312.01499)"/>
<use xlink:href="#font_0_12" transform="matrix(11.9552,0,0,-11.9552,294.84419,312.01499)"/>
<use xlink:href="#font_0_d" transform="matrix(11.9552,0,0,-11.9552,298.06007,312.13453)"/>
<use xlink:href="#font_0_17" transform="matrix(11.9552,0,0,-11.9552,306.42869,312.13453)"/>
<use xlink:href="#font_0_10" transform="matrix(11.9552,0,0,-11.9552,311.151,312.01499)"/>
<use xlink:href="#font_0_d" transform="matrix(11.9552,0,0,-11.9552,317.63075,312.13453)"/>
<use xlink:href="#font_0_15" transform="matrix(11.9552,0,0,-11.9552,326.1309,312.01499)"/>
<use xlink:href="#font_0_a" transform="matrix(11.9552,0,0,-11.9552,330.8771,312.13453)"/>
<use xlink:href="#font_0_17" transform="matrix(11.9552,0,0,-11.9552,336.4243,312.13453)"/>
<use xlink:href="#font_0_d" transform="matrix(11.9552,0,0,-11.9552,341.12269,312.13453)"/>
<use xlink:href="#font_0_11" transform="matrix(11.9552,0,0,-11.9552,349.68263,312.01499)"/>
<use xlink:href="#font_0_17" transform="matrix(11.9552,0,0,-11.9552,352.7551,312.13453)"/>
<use xlink:href="#font_0_16" transform="matrix(11.9552,0,0,-11.9552,357.48939,312.13453)"/>
<use xlink:href="#font_0_d" transform="matrix(11.9552,0,0,-11.9552,362.06819,312.13453)"/>
<use xlink:href="#font_0_12" transform="matrix(11.9552,0,0,-11.9552,367.30458,312.01499)"/>
<use xlink:href="#font_0_e" transform="matrix(11.9552,0,0,-11.9552,370.53248,312.01499)"/>
<use xlink:href="#font_0_11" transform="matrix(11.9552,0,0,-11.9552,377.44258,312.01499)"/>
<use xlink:href="#font_0_16" transform="matrix(11.9552,0,0,-11.9552,380.6944,312.13453)"/>
<use xlink:href="#font_0_c" transform="matrix(11.9552,0,0,-11.9552,254.47145,324.08955)"/>
<use xlink:href="#font_0_d" transform="matrix(11.9552,0,0,-11.9552,260.91529,324.08955)"/>
<use xlink:href="#font_0_b" transform="matrix(11.9552,0,0,-11.9552,266.17558,324.08955)"/>
<use xlink:href="#font_0_15" transform="matrix(11.9552,0,0,-11.9552,271.2924,323.97)"/>
<use xlink:href="#font_0_d" transform="matrix(11.9552,0,0,-11.9552,275.87123,324.08955)"/>
<use xlink:href="#font_0_a" transform="matrix(11.9552,0,0,-11.9552,281.2391,324.08955)"/>
<use xlink:href="#font_0_16" transform="matrix(11.9552,0,0,-11.9552,286.9657,324.08955)"/>
<use xlink:href="#font_0_11" transform="matrix(11.9552,0,0,-11.9552,291.58039,323.97)"/>
<use xlink:href="#font_0_13" transform="matrix(11.9552,0,0,-11.9552,294.82026,323.97)"/>
<use xlink:href="#font_0_f" transform="matrix(11.9552,0,0,-11.9552,301.26408,326.4208)"/>
<use xlink:href="#font_0_5" transform="matrix(11.9552,0,0,-11.9552,307.83949,323.97)"/>
<use xlink:href="#font_0_8" transform="matrix(11.9552,0,0,-11.9552,315.45494,323.97)"/>
<use xlink:href="#font_0_13" transform="matrix(11.9552,0,0,-11.9552,319.63923,323.97)"/>
<use xlink:href="#font_0_17" transform="matrix(11.9552,0,0,-11.9552,329.28709,324.08955)"/>
<use xlink:href="#font_0_10" transform="matrix(11.9552,0,0,-11.9552,334.0094,323.97)"/>
<use xlink:href="#font_0_11" transform="matrix(11.9552,0,0,-11.9552,340.52497,323.97)"/>
<use xlink:href="#font_0_16" transform="matrix(11.9552,0,0,-11.9552,343.7768,324.08955)"/>
<use xlink:href="#font_0_b" transform="matrix(11.9552,0,0,-11.9552,351.73893,324.08955)"/>
<use xlink:href="#font_0_a" transform="matrix(11.9552,0,0,-11.9552,357.04704,324.08955)"/>
<use xlink:href="#font_0_16" transform="matrix(11.9552,0,0,-11.9552,362.77363,324.08955)"/>
<use xlink:href="#font_0_d" transform="matrix(11.9552,0,0,-11.9552,367.35243,324.08955)"/>
<use xlink:href="#font_0_17" transform="matrix(11.9552,0,0,-11.9552,375.733,324.08955)"/>
<use xlink:href="#font_0_10" transform="matrix(11.9552,0,0,-11.9552,380.45533,323.97)"/>
<use xlink:href="#font_0_d" transform="matrix(11.9552,0,0,-11.9552,386.93507,324.08955)"/>
<use xlink:href="#font_0_b" transform="matrix(11.9552,0,0,-11.9552,254.47145,336.04454)"/>
<use xlink:href="#font_0_18" transform="matrix(11.9552,0,0,-11.9552,259.6361,336.04454)"/>
<use xlink:href="#font_0_15" transform="matrix(11.9552,0,0,-11.9552,266.0919,335.925)"/>
<use xlink:href="#font_0_19" transform="matrix(11.9552,0,0,-11.9552,270.52726,336.04454)"/>
<use xlink:href="#font_0_d" transform="matrix(11.9552,0,0,-11.9552,276.5288,336.04454)"/>
<use xlink:href="#font_1_4" transform="matrix(11.9552,0,0,-11.9552,285.0098,338.36387)"/>
<use xlink:href="#font_0_7" transform="matrix(11.9552,0,0,-11.9552,295.6306,334.27519)"/>
<use xlink:href="#font_1_2" transform="matrix(11.9552,0,0,-11.9552,308.86076,338.36387)"/>
<use xlink:href="#font_0_1" transform="matrix(11.9552,0,0,-11.9552,316.46965,338.92576)"/>
<use xlink:href="#font_1_3" transform="matrix(11.9552,0,0,-11.9552,320.18479,336.04454)"/>
<use xlink:href="#font_0_2" transform="matrix(11.9552,0,0,-11.9552,327.15956,338.92576)"/>
<use xlink:href="#font_0_11" transform="matrix(11.9552,0,0,-11.9552,334.77503,335.925)"/>
<use xlink:href="#font_0_16" transform="matrix(11.9552,0,0,-11.9552,338.02687,336.04454)"/>
<use xlink:href="#font_3_2" transform="matrix(11.9552,0,0,-11.9552,346.0193,335.9967)"/>
<use xlink:href="#font_3_6" transform="matrix(11.9552,0,0,-11.9552,351.9132,335.9967)"/>
<use xlink:href="#font_3_5" transform="matrix(11.9552,0,0,-11.9552,358.77549,335.925)"/>
<use xlink:href="#font_3_2" transform="matrix(11.9552,0,0,-11.9552,366.19966,335.9967)"/>
<use xlink:href="#font_3_1" transform="matrix(11.9552,0,0,-11.9552,372.12944,335.9967)"/>
<use xlink:href="#font_3_9" transform="matrix(11.9552,0,0,-11.9552,378.17878,335.98478)"/>
<use xlink:href="#font_3_4" transform="matrix(11.9552,0,0,-11.9552,384.98127,335.9967)"/>
<use xlink:href="#font_3_3" transform="matrix(11.9552,0,0,-11.9552,254.50733,347.9527)"/>
<use xlink:href="#font_3_6" transform="matrix(11.9552,0,0,-11.9552,261.89564,347.9527)"/>
<use xlink:href="#font_3_a" transform="matrix(11.9552,0,0,-11.9552,268.16017,347.94078)"/>
<use xlink:href="#font_3_5" transform="matrix(11.9552,0,0,-11.9552,278.1069,347.88099)"/>
<use xlink:href="#font_0_5" transform="matrix(11.9552,0,0,-11.9552,286.1021,347.88099)"/>
</svg>
