<?xml version="1.0" encoding="UTF-8" standalone="no"?>
<!DOCTYPE svg PUBLIC "-//W3C//DTD SVG 1.1//EN" "http://www.w3.org/Graphics/SVG/1.1/DTD/svg11.dtd">
<svg xmlns="http://www.w3.org/2000/svg" xmlns:xlink="http://www.w3.org/1999/xlink" version="1.1" width="402.662pt" height="171.558pt" viewBox="0 0 402.662 171.558">
<path transform="matrix(1,0,0,-1,9.686,171.359)" stroke-width="1" stroke-linecap="butt" stroke-miterlimit="10" stroke-linejoin="miter" fill="none" stroke="#808080" d="M 0 83.45518 L 0 87.7069 M 48.39626 83.45518 L 48.39626 87.7069 M 96.79251 83.45518 L 96.79251 87.7069 M 145.18877 83.45518 L 145.18877 87.7069 M 241.98128 83.45518 L 241.98128 87.7069 M 290.37757 83.45518 L 290.37757 87.7069 M 338.7738 83.45518 L 338.7738 87.7069 M 387.17008 83.45518 L 387.17008 87.7069 "/>
<path transform="matrix(1,0,0,-1,9.686,171.359)" stroke-width="1" stroke-linecap="butt" stroke-miterlimit="10" stroke-linejoin="miter" fill="none" stroke="#808080" d="M 191.45928 32.0929 L 195.71077 32.0929 M 191.45928 139.06922 L 195.71077 139.06922 "/>
<path transform="matrix(1,0,0,-1,9.686,171.359)" stroke-width="1" stroke-linecap="butt" stroke-miterlimit="10" stroke-linejoin="miter" fill="none" stroke="#000000" d="M 0 85.58105 L 385.17756 85.58105 "/>
<path transform="matrix(1,0,0,-1,394.86357,85.77795)" d="M 1.99252 0 L -1.19551 1.59401 L 0 0 L -1.19551 -1.59401 "/>
<path transform="matrix(1,0,0,-1,9.686,171.359)" stroke-width="1" stroke-linecap="butt" stroke-miterlimit="10" stroke-linejoin="miter" fill="none" stroke="#000000" d="M 193.58502 0 L 193.58502 169.16959 "/>
<path transform="matrix(0,-1,-1,-0,203.27103,2.1894074)" d="M 1.99252 0 L -1.19551 1.59401 L 0 0 L -1.19551 -1.59401 "/>
<symbol id="font_0_1">
<path d="M .57600006 0 C .59300008 0 .611 0 .611 .019999996 C .611 .040000008 .59300008 .040000008 .57600006 .040000008 L .035000005 .040000008 C .018 .040000008 0 .040000008 0 .019999996 C 0 0 .018 0 .035000005 0 L .57600006 0 Z "/>
</symbol>
<use xlink:href="#font_0_1" transform="matrix(9.9626,0,0,-9.9626,4.147896,95.55359)"/>
<symbol id="font_1_3">
<path d="M .07700001 .07700001 L .18300002 .18 C .33900003 .31800003 .39900003 .372 .39900003 .47200004 C .39900003 .586 .30900003 .666 .18700002 .666 C .074 .666 0 .574 0 .485 C 0 .42900003 .05 .42900003 .053000008 .42900003 C .07000001 .42900003 .105000007 .441 .105000007 .48200003 C .105000007 .508 .08700001 .53400006 .052000006 .53400006 C .044000005 .53400006 .042000008 .53400006 .039 .53300008 C .062000004 .59800007 .11600001 .63500007 .17400001 .63500007 C .26500003 .63500007 .308 .554 .308 .47200004 C .308 .39200003 .25800003 .31300003 .20300003 .25100003 L .011000004 .037 C 0 .026 0 .024 0 0 L .37100003 0 L .39900003 .17400001 L .374 .17400001 C .36900003 .14400001 .36200003 .1 .352 .085 C .345 .07700001 .279 .07700001 .257 .07700001 L .07700001 .07700001 Z "/>
</symbol>
<use xlink:href="#font_1_3" transform="matrix(9.9626,0,0,-9.9626,11.56713,97.844989)"/>
<use xlink:href="#font_0_1" transform="matrix(9.9626,0,0,-9.9626,48.668897,95.55359)"/>
<symbol id="font_1_2">
<path d="M .205 .64000007 C .205 .66400006 .205 .666 .18200003 .666 C .120000008 .60200008 .032000007 .60200008 0 .60200008 L 0 .57100006 C .020000004 .57100006 .07900001 .57100006 .13100001 .597 L .13100001 .079 C .13100001 .043 .128 .031000002 .038000004 .031000002 L .0060000049 .031000002 L .0060000049 0 C .04100001 .003 .128 .003 .168 .003 C .20800002 .003 .29500003 .003 .33000005 0 L .33000005 .031000002 L .29800005 .031000002 C .20800002 .031000002 .205 .042000005 .205 .079 L .205 .64000007 Z "/>
</symbol>
<use xlink:href="#font_1_2" transform="matrix(9.9626,0,0,-9.9626,56.477674,97.844989)"/>
<symbol id="font_2_1">
<path d="M .106 .053000004 C .106 .082 .08200001 .106000009 .05300001 .106000009 C .024000004 .106000009 0 .082 0 .053000004 C 0 .024 .024000004 0 .05300001 0 C .08200001 0 .106 .024 .106 .053000004 Z "/>
</symbol>
<use xlink:href="#font_2_1" transform="matrix(9.9626,0,0,-9.9626,61.428785,97.844989)"/>
<symbol id="font_1_4">
<path d="M .39900003 .223 C .39900003 .34200005 .317 .44200004 .209 .44200004 C .16100002 .44200004 .118000019 .42600004 .082 .39100004 L .082 .586 C .10200001 .58000007 .135 .573 .16700001 .573 C .29 .573 .36 .66400006 .36 .67700007 C .36 .683 .357 .688 .35 .688 C .349 .688 .347 .688 .342 .68500009 C .322 .67600008 .273 .656 .20600002 .656 C .16600001 .656 .120000008 .66300007 .073 .6840001 C .065 .68700006 .06300001 .68700006 .061000009 .68700006 C .051000004 .68700006 .051000004 .679 .051000004 .66300007 L .051000004 .36700005 C .051000004 .34900005 .051000004 .34100003 .065 .34100003 C .07200001 .34100003 .074 .34400005 .07800001 .35000003 C .08900002 .36600004 .12600002 .42000006 .207 .42000006 C .259 .42000006 .284 .37400005 .292 .35600005 C .308 .31900005 .31 .28000004 .31 .23 C .31 .19500001 .31 .135 .286 .093 C .262 .054000006 .22500001 .028 .17900002 .028 C .106000009 .028 .049000008 .08100001 .032 .14000002 C .035 .13900002 .038000008 .13800001 .049000008 .13800001 C .082 .13800001 .09900001 .163 .09900001 .187 C .09900001 .21100001 .082 .23600002 .049000008 .23600002 C .035 .23600002 0 .22900002 0 .18300002 C 0 .097 .069000009 0 .18100001 0 C .297 0 .39900003 .096 .39900003 .223 Z "/>
</symbol>
<use xlink:href="#font_1_4" transform="matrix(9.9626,0,0,-9.9626,63.837129,98.06416)"/>
<use xlink:href="#font_0_1" transform="matrix(9.9626,0,0,-9.9626,100.938899,95.55359)"/>
<use xlink:href="#font_1_2" transform="matrix(9.9626,0,0,-9.9626,108.74767,97.844989)"/>
<use xlink:href="#font_0_1" transform="matrix(9.9626,0,0,-9.9626,145.4599,95.55359)"/>
<symbol id="font_1_1">
<path d="M .421 .34200005 C .421 .42200003 .416 .50200006 .381 .57600006 C .335 .67200008 .25300003 .688 .211 .688 C .15100001 .688 .07800001 .66200008 .037000006 .56900009 C .0050000029 .5 0 .42200003 0 .34200005 C 0 .26700003 .0040000008 .177 .045000007 .101 C .088 .020000002 .161 0 .21000001 0 C .264 0 .34 .021000002 .384 .116000007 C .416 .185 .421 .263 .421 .34200005 M .21000001 .022000002 C .171 .022000002 .112 .047000003 .094 .143 C .083000008 .20300001 .083000008 .29500003 .083000008 .35400004 C .083000008 .41800005 .083000008 .48400004 .091000009 .53800007 C .11 .65700009 .185 .66600009 .21000001 .66600009 C .243 .66600009 .30900003 .64800009 .328 .549 C .338 .49300004 .338 .41700004 .338 .35400004 C .338 .279 .338 .21100001 .32700003 .147 C .312 .052 .255 .022000002 .21000001 .022000002 Z "/>
</symbol>
<use xlink:href="#font_1_1" transform="matrix(9.9626,0,0,-9.9626,152.77054,98.06416)"/>
<use xlink:href="#font_2_1" transform="matrix(9.9626,0,0,-9.9626,158.21979,97.844989)"/>
<use xlink:href="#font_1_4" transform="matrix(9.9626,0,0,-9.9626,160.62914,98.06416)"/>
<use xlink:href="#font_1_1" transform="matrix(9.9626,0,0,-9.9626,245.68755,98.06416)"/>
<use xlink:href="#font_2_1" transform="matrix(9.9626,0,0,-9.9626,251.1368,97.844989)"/>
<use xlink:href="#font_1_4" transform="matrix(9.9626,0,0,-9.9626,253.54514,98.06416)"/>
<use xlink:href="#font_1_2" transform="matrix(9.9626,0,0,-9.9626,298.45567,97.844989)"/>
<use xlink:href="#font_1_2" transform="matrix(9.9626,0,0,-9.9626,342.97666,97.844989)"/>
<use xlink:href="#font_2_1" transform="matrix(9.9626,0,0,-9.9626,347.92778,97.844989)"/>
<use xlink:href="#font_1_4" transform="matrix(9.9626,0,0,-9.9626,350.33714,98.06416)"/>
<use xlink:href="#font_1_3" transform="matrix(9.9626,0,0,-9.9626,394.85816,97.844989)"/>
<use xlink:href="#font_0_1" transform="matrix(9.9626,0,0,-9.9626,185.7199,139.76959)"/>
<use xlink:href="#font_1_4" transform="matrix(9.9626,0,0,-9.9626,193.13913,142.28017)"/>
<use xlink:href="#font_1_4" transform="matrix(9.9626,0,0,-9.9626,193.13913,35.721178)"/>
<clipPath id="cp3">
<path transform="matrix(1,0,0,-1,9.686,171.359)" d="M 0 0 L 387.17008 0 L 387.17008 171.16211 L 0 171.16211 Z "/>
</clipPath>
<g clip-path="url(#cp3)">
<path transform="matrix(1,0,0,-1,9.686,171.359)" stroke-width="1.19553" stroke-linecap="butt" stroke-miterlimit="10" stroke-linejoin="miter" fill="none" stroke="#000080" d="M 0 85.58105 C 0 85.58105 11.65543 92.64346 16.132 94.84236 C 20.60857 97.04128 27.78745 99.9313 32.26402 101.42932 C 36.74059 102.92734 43.91946 104.7595 48.39604 105.63907 C 52.8726 106.51865 60.05148 107.42513 64.52806 107.7687 C 69.00462 108.11229 76.18349 108.22534 80.66006 108.11542 C 85.13664 108.0055 92.3155 107.45735 96.79208 106.97636 C 101.26866 106.49538 108.44753 105.41827 112.9241 104.64867 C 117.40068 103.87904 124.57954 102.40526 129.05612 101.4295 C 133.5327 100.45375 140.7116 98.71548 145.18816 97.61603 C 149.66474 96.51657 156.8436 94.64607 161.32016 93.50539 C 165.79674 92.3647 172.97562 90.49419 177.45218 89.39474 C 181.92876 88.29529 189.10765 86.55699 193.58422 85.58122 C 198.06079 84.60545 205.23967 83.13164 209.71625 82.362 C 214.19281 81.59238 221.37169 80.51524 225.84827 80.03423 C 230.32483 79.5532 237.50371 79.00502 241.98029 78.89505 C 246.45685 78.78508 253.63573 78.89809 258.1123 79.24162 C 262.58888 79.58516 269.76777 80.49158 274.24433 81.37111 C 278.7209 82.25063 285.89979 84.0827 290.37638 85.58066 C 294.85295 87.07861 302.0318 89.96855 306.5084 92.1674 C 310.98497 94.36624 318.1638 98.44623 322.64039 101.42844 C 327.11698 104.41066 334.2958 109.81316 338.7724 113.6612 C 343.249 117.50922 350.42787 124.36617 354.90443 129.16245 C 359.381 133.95873 366.55989 142.40251 371.03645 148.22954 C 375.51304 154.05657 387.16847 171.15958 387.16847 171.15958 "/>
</g>
</svg>
