<?xml version="1.0" encoding="UTF-8" standalone="no"?>
<!DOCTYPE svg PUBLIC "-//W3C//DTD SVG 1.1//EN" "http://www.w3.org/Graphics/SVG/1.1/DTD/svg11.dtd">
<svg xmlns="http://www.w3.org/2000/svg" xmlns:xlink="http://www.w3.org/1999/xlink" version="1.1" width="216.335pt" height="216.874pt" viewBox="0 0 216.335 216.874">
<path transform="matrix(1,0,0,-1,.199,216.67499)" stroke-width="1" stroke-linecap="butt" stroke-miterlimit="10" stroke-linejoin="miter" fill="none" stroke="#808080" d="M 46.97638 13.53291 L 46.97638 17.78465 M 78.29398 13.53291 L 78.29398 17.78465 M 109.61157 13.53291 L 109.61157 17.78465 M 140.92917 13.53291 L 140.92917 17.78465 M 172.24677 13.53291 L 172.24677 17.78465 M 203.56436 13.53291 L 203.56436 17.78465 "/>
<path transform="matrix(1,0,0,-1,.199,216.67499)" stroke-width="1" stroke-linecap="butt" stroke-miterlimit="10" stroke-linejoin="miter" fill="none" stroke="#808080" d="M 13.53291 46.97638 L 17.78465 46.97638 M 13.53291 78.29398 L 17.78465 78.29398 M 13.53291 109.61157 L 17.78465 109.61157 M 13.53291 140.92917 L 17.78465 140.92917 M 13.53291 172.24677 L 17.78465 172.24677 M 13.53291 203.56436 L 17.78465 203.56436 "/>
<path transform="matrix(1,0,0,-1,.199,216.67499)" stroke-width="1" stroke-linecap="butt" stroke-miterlimit="10" stroke-linejoin="miter" fill="none" stroke="#000000" d="M 0 15.65878 L 201.57184 15.65878 "/>
<path transform="matrix(1,0,0,-1,201.77085,201.0162)" d="M 1.99252 0 L -1.19551 1.59401 L 0 0 L -1.19551 -1.59401 "/>
<path transform="matrix(1,0,0,-1,.199,216.67499)" stroke-width="1" stroke-linecap="butt" stroke-miterlimit="10" stroke-linejoin="miter" fill="none" stroke="#000000" d="M 15.65878 0 L 15.65878 201.57184 "/>
<path transform="matrix(0,-1,-1,-0,15.85778,15.103149)" d="M 1.99252 0 L -1.19551 1.59401 L 0 0 L -1.19551 -1.59401 "/>
<symbol id="font_0_2">
<path d="M .205 .64000007 C .205 .66400006 .205 .666 .18200003 .666 C .120000008 .60200008 .032000007 .60200008 0 .60200008 L 0 .57100006 C .020000004 .57100006 .07900001 .57100006 .13100001 .597 L .13100001 .079 C .13100001 .043 .128 .031000002 .038000004 .031000002 L .0060000049 .031000002 L .0060000049 0 C .04100001 .003 .128 .003 .168 .003 C .20800002 .003 .29500003 .003 .33000005 0 L .33000005 .031000002 L .29800005 .031000002 C .20800002 .031000002 .205 .042000005 .205 .079 L .205 .64000007 Z "/>
</symbol>
<use xlink:href="#font_0_2" transform="matrix(9.9626,0,0,-9.9626,45.570676,213.08199)"/>
<symbol id="font_0_3">
<path d="M .07700001 .07700001 L .18300002 .18 C .33900003 .31800003 .39900003 .372 .39900003 .47200004 C .39900003 .586 .30900003 .666 .18700002 .666 C .074 .666 0 .574 0 .485 C 0 .42900003 .05 .42900003 .053000008 .42900003 C .07000001 .42900003 .105000007 .441 .105000007 .48200003 C .105000007 .508 .08700001 .53400006 .052000006 .53400006 C .044000005 .53400006 .042000008 .53400006 .039 .53300008 C .062000004 .59800007 .11600001 .63500007 .17400001 .63500007 C .26500003 .63500007 .308 .554 .308 .47200004 C .308 .39200003 .25800003 .31300003 .20300003 .25100003 L .011000004 .037 C 0 .026 0 .024 0 0 L .37100003 0 L .39900003 .17400001 L .374 .17400001 C .36900003 .14400001 .36200003 .1 .352 .085 C .345 .07700001 .279 .07700001 .257 .07700001 L .07700001 .07700001 Z "/>
</symbol>
<use xlink:href="#font_0_3" transform="matrix(9.9626,0,0,-9.9626,76.50013,213.08199)"/>
<symbol id="font_0_4">
<path d="M .24800003 .37400005 C .33 .40100003 .388 .47100006 .388 .55 C .388 .632 .3 .688 .204 .688 C .10300001 .688 .027000003 .628 .027000003 .55200007 C .027000003 .519 .049000004 .5 .078 .5 C .109000008 .5 .12900001 .522 .12900001 .55100008 C .12900001 .6010001 .082 .6010001 .067 .6010001 C .098 .65000006 .164 .66300007 .20000002 .66300007 C .24100003 .66300007 .29600004 .64100006 .29600004 .55100008 C .29600004 .53900006 .29400004 .48100005 .268 .43700005 C .238 .38900004 .204 .38600005 .17900002 .38500003 C .171 .38400004 .14700002 .38200004 .14000002 .38200004 C .132 .38100005 .125 .38000003 .125 .37000004 C .125 .35900004 .132 .35900004 .14900002 .35900004 L .19300002 .35900004 C .275 .35900004 .312 .29100005 .312 .193 C .312 .057000005 .24300003 .028 .199 .028 C .15600002 .028 .081 .045 .046000005 .104 C .081 .09900001 .11200001 .12100001 .11200001 .15900001 C .11200001 .19500001 .085 .215 .056 .215 C .031999999 .215 0 .201 0 .157 C 0 .06600001 .093 0 .20200002 0 C .32400004 0 .41500003 .091000009 .41500003 .193 C .41500003 .27500005 .35200004 .35300005 .24800003 .37400005 Z "/>
</symbol>
<use xlink:href="#font_0_4" transform="matrix(9.9626,0,0,-9.9626,107.73743,213.30117)"/>
<symbol id="font_0_5">
<path d="M .266 .165 L .266 .078 C .266 .042000005 .26400004 .031000002 .19000001 .031000002 L .16900002 .031000002 L .16900002 0 C .21000001 .003 .26200003 .003 .30400003 .003 C .34600003 .003 .39900003 .003 .44000004 0 L .44000004 .031000002 L .41900004 .031000002 C .34500004 .031000002 .34300003 .042000005 .34300003 .078 L .34300003 .165 L .44300003 .165 L .44300003 .19600001 L .34300003 .19600001 L .34300003 .651 C .34300003 .671 .34300003 .67700007 .32700003 .67700007 C .31800003 .67700007 .31500004 .67700007 .307 .665 L 0 .19600001 L 0 .165 L .266 .165 M .272 .19600001 L .028 .19600001 L .272 .569 L .272 .19600001 Z "/>
</symbol>
<use xlink:href="#font_0_5" transform="matrix(9.9626,0,0,-9.9626,138.91495,213.08199)"/>
<symbol id="font_0_6">
<path d="M .39900003 .223 C .39900003 .34200005 .317 .44200004 .209 .44200004 C .16100002 .44200004 .118000019 .42600004 .082 .39100004 L .082 .586 C .10200001 .58000007 .135 .573 .16700001 .573 C .29 .573 .36 .66400006 .36 .67700007 C .36 .683 .357 .688 .35 .688 C .349 .688 .347 .688 .342 .68500009 C .322 .67600008 .273 .656 .20600002 .656 C .16600001 .656 .120000008 .66300007 .073 .6840001 C .065 .68700006 .06300001 .68700006 .061000009 .68700006 C .051000004 .68700006 .051000004 .679 .051000004 .66300007 L .051000004 .36700005 C .051000004 .34900005 .051000004 .34100003 .065 .34100003 C .07200001 .34100003 .074 .34400005 .07800001 .35000003 C .08900002 .36600004 .12600002 .42000006 .207 .42000006 C .259 .42000006 .284 .37400005 .292 .35600005 C .308 .31900005 .31 .28000004 .31 .23 C .31 .19500001 .31 .135 .286 .093 C .262 .054000006 .22500001 .028 .17900002 .028 C .106000009 .028 .049000008 .08100001 .032 .14000002 C .035 .13900002 .038000008 .13800001 .049000008 .13800001 C .082 .13800001 .09900001 .163 .09900001 .187 C .09900001 .21100001 .082 .23600002 .049000008 .23600002 C .035 .23600002 0 .22900002 0 .18300002 C 0 .097 .069000009 0 .18100001 0 C .297 0 .39900003 .096 .39900003 .223 Z "/>
</symbol>
<use xlink:href="#font_0_6" transform="matrix(9.9626,0,0,-9.9626,170.45113,213.30117)"/>
<symbol id="font_0_7">
<path d="M .089999999 .35000003 L .089999999 .37400005 C .089999999 .62700006 .21400002 .66300007 .26500003 .66300007 C .28900004 .66300007 .33100004 .65700009 .35300002 .623 C .33800004 .623 .298 .623 .298 .57800009 C .298 .54700008 .32200004 .53200009 .344 .53200009 C .36 .53200009 .39000003 .54100009 .39000003 .58000007 C .39000003 .64000007 .34600003 .688 .263 .688 C .13499999 .688 0 .559 0 .33800004 C 0 .071 .116000007 0 .20900002 0 C .32000003 0 .41500003 .094000007 .41500003 .22600001 C .41500003 .35300005 .32600004 .44900004 .215 .44900004 C .14700002 .44900004 .11000001 .39800004 .089999999 .35000003 M .20900002 .028 C .146 .028 .116000007 .088 .11000001 .103 C .092 .15 .092 .23 .092 .24800001 C .092 .32600004 .124000009 .42600004 .21400002 .42600004 C .23000002 .42600004 .27600003 .42600004 .307 .36400003 C .32500003 .32700003 .32500003 .27600003 .32500003 .22700002 C .32500003 .179 .32500003 .12900001 .30800004 .093 C .27800004 .033000005 .23200003 .028 .20900002 .028 Z "/>
</symbol>
<use xlink:href="#font_0_7" transform="matrix(9.9626,0,0,-9.9626,201.68843,213.30117)"/>
<use xlink:href="#font_0_2" transform="matrix(9.9626,0,0,-9.9626,6.1176717,172.909)"/>
<use xlink:href="#font_0_3" transform="matrix(9.9626,0,0,-9.9626,5.72913,141.59198)"/>
<use xlink:href="#font_0_4" transform="matrix(9.9626,0,0,-9.9626,5.6494295,110.49417)"/>
<use xlink:href="#font_0_5" transform="matrix(9.9626,0,0,-9.9626,5.5099527,78.95799)"/>
<use xlink:href="#font_0_6" transform="matrix(9.9626,0,0,-9.9626,5.72913,47.85916)"/>
<use xlink:href="#font_0_7" transform="matrix(9.9626,0,0,-9.9626,5.6494295,16.54216)"/>
<clipPath id="cp1">
<path transform="matrix(1,0,0,-1,.199,216.67499)" d="M 0 0 L 203.56436 0 L 203.56436 203.56436 L 0 203.56436 Z "/>
</clipPath>
<g clip-path="url(#cp1)">
<path transform="matrix(1,0,0,-1,.199,216.67499)" stroke-width="1.19553" stroke-linecap="butt" stroke-miterlimit="10" stroke-linejoin="miter" fill="none" stroke="#000080" d="M 0 34.6573 C 0 34.6573 5.18535 38.0174 7.17691 39.55034 C 9.16847 41.0833 12.36227 43.77957 14.35384 45.70583 C 16.3454 47.63206 19.5392 51.01154 21.53076 53.43344 C 23.52234 55.85535 26.71613 60.11424 28.7077 63.16132 C 30.69926 66.20837 33.89307 71.56274 35.88463 75.39459 C 37.87619 79.22646 41.06999 85.95981 43.06155 90.77873 C 45.05312 95.59766 48.24692 104.06644 50.23848 110.12611 C 52.23006 116.18579 55.42384 126.83243 57.4154 134.45269 C 59.40697 142.07295 62.60077 155.46457 64.59233 165.04778 C 66.5839 174.63098 69.7777 191.47055 71.76926 203.52178 C 73.76083 215.57299 76.95462 236.74982 78.9462 251.90464 C 80.93776 267.05946 84.13156 293.68913 86.12312 312.74723 C 88.11469 331.80528 91.30847 365.29713 93.30003 389.26206 C 95.2916 413.22694 98.4854 455.33229 100.47696 485.4697 C 102.46854 515.6071 105.66234 568.5717 107.6539 606.4715 C 109.64546 644.3713 112.83926 710.967 114.83083 758.6249 C 116.82239 806.28286 120.01617 890.0268 122.00774 949.9566 C 123.99931 1009.8864 127.1931 1115.1887 129.18468 1190.5571 C 131.17624 1265.9257 134.37004 1398.3803 136.3616 1493.1603 C 138.35317 1587.9404 141.54697 1754.479 143.53853 1873.666 C 145.53009 1992.8529 148.72389 2202.295 150.71546 2352.177 C 152.70703 2502.0589 155.90082 2765.418 157.89238 2953.9102 C 159.88394 3142.402 163.07775 3473.6719 165.0693 3710.6966 C 167.06087 3947.7215 172.24623 4662.219 172.24623 4662.219 "/>
<path transform="matrix(1,0,0,-1,.199,216.67499)" stroke-width="1.19553" stroke-linecap="butt" stroke-miterlimit="10" stroke-linejoin="miter" fill="none" stroke="#800000" d="M 15.72142 -178.97034 C 15.72142 -178.97034 17.09229 -89.0343 17.61879 -71.12976 C 18.1453 -53.22522 18.98967 -54.60657 19.51617 -49.92682 C 20.04268 -45.24707 20.88704 -40.37775 21.41354 -37.40132 C 21.94005 -34.42491 22.78441 -30.67584 23.31091 -28.47488 C 23.83742 -26.27393 24.6818 -23.28844 25.2083 -21.53836 C 25.7348 -19.78827 26.57918 -17.31541 27.10568 -15.8614 C 27.63219 -14.4074 28.47655 -12.30289 29.00305 -11.05885 C 29.52956 -9.81482 30.37393 -7.98262 30.90044 -6.89519 C 31.42694 -5.80774 32.2713 -4.18712 32.7978 -3.22131 C 33.32431 -2.2555 34.16867 -.80327 34.69518 .06575 C 35.22168 .9348 36.06604 2.2527 36.59256 3.04218 C 37.11906 3.83167 37.96342 5.03262 38.48993 5.75584 C 39.01643 6.47906 39.86081 7.586 40.38731 8.25468 C 40.91382 8.92337 41.75818 9.95425 42.28468 10.5753 C 42.8112 11.19637 43.65556 12.15195 44.18207 12.73091 C 44.70857 13.30986 45.55293 14.20517 46.07944 14.74808 C 46.60594 15.29097 47.4503 16.13295 47.9768 16.64372 C 48.50331 17.1545 49.34769 17.9471 49.87419 18.42946 C 50.4007 18.91182 51.24506 19.66322 51.77156 20.12029 C 52.29807 20.57735 53.14243 21.28961 53.66893 21.72374 C 54.19543 22.15787 55.03981 22.83583 55.56631 23.24922 C 56.09282 23.66263 56.93718 24.30867 57.46368 24.7033 C 57.99019 25.09793 58.83453 25.71593 59.36104 26.09349 C 59.88754 26.47104 60.73192 27.06291 61.25842 27.42448 C 61.78493 27.78604 62.62929 28.3523 63.15579 28.69943 C 63.6823 29.04657 64.52666 29.59232 65.05316 29.92645 C 65.57967 30.26059 66.42403 30.78592 66.95055 31.10776 C 67.47705 31.4296 68.32141 31.93633 68.84792 32.24614 C 69.37442 32.55595 70.21878 33.04175 70.74529 33.3407 C 71.27179 33.63965 72.11615 34.11089 72.64265 34.40079 C 73.16917 34.69069 74.01353 35.15047 74.54004 35.4302 C 75.06654 35.70996 75.91089 36.14558 76.4374 36.41704 C 76.9639 36.68848 77.80826 37.12256 78.33476 37.38661 C 78.86127 37.65067 79.70564 38.06488 80.23215 38.32019 C 80.75865 38.57552 81.60301 38.97878 82.12952 39.22684 C 82.65602 39.47491 83.50038 39.86688 84.02689 40.10812 C 84.55339 40.34935 85.39777 40.73079 85.92427 40.9656 C 86.45078 41.20041 87.29514 41.57184 87.82164 41.80052 C 88.34814 42.0292 89.1925 42.39111 89.71901 42.61385 C 90.24551 42.83656 91.08989 43.1889 91.6164 43.40585 C 92.1429 43.6228 92.98726 43.96565 93.51376 44.17752 C 94.04027 44.38939 94.88461 44.726 95.41112 44.9329 C 95.93762 45.13982 96.78198 45.46707 97.30849 45.66887 C 97.835 45.87065 98.67937 46.18999 99.20587 46.3873 C 99.73238 46.5846 100.57674 46.89795 101.10324 47.09099 C 101.62975 47.28404 102.4741 47.5901 103.00061 47.77873 C 103.52711 47.96736 104.37149 48.2657 104.898 48.45049 C 105.4245 48.63528 106.26886 48.92973 106.79536 49.11067 C 107.32187 49.2916 108.16623 49.57736 108.69273 49.75456 C 109.21924 49.93176 110.06361 50.21396 110.59012 50.3878 C 111.11662 50.56165 111.96097 50.83751 112.48747 51.00757 C 113.01398 51.17763 113.85834 51.44656 114.38484 51.61359 C 114.91135 51.78061 115.75572 52.04753 116.28223 52.21143 C 116.80873 52.37532 117.65309 52.63411 118.1796 52.79486 C 118.7061 52.95563 119.55046 53.21207 120.07697 53.3702 C 120.60347 53.5283 121.44783 53.7795 121.97435 53.93452 C 122.50085 54.08955 123.34521 54.33556 123.87172 54.4876 C 124.39822 54.63963 125.24258 54.88051 125.76909 55.03032 C 126.2956 55.18013 127.13995 55.42029 127.66646 55.56741 C 128.19298 55.71454 129.03733 55.9457 129.56383 56.09073 C 130.09033 56.23578 130.9347 56.47011 131.4612 56.6128 C 131.9877 56.75548 132.83206 56.97968 133.35857 57.1192 C 133.88507 57.25873 134.72945 57.48064 135.25595 57.61841 C 135.78246 57.75618 136.62682 57.9768 137.15332 58.11229 C 137.67983 58.24777 138.52419 58.46082 139.05069 58.5949 C 139.5772 58.72897 140.42157 58.94635 140.94808 59.07874 C 141.47458 59.21114 142.31894 59.41957 142.84545 59.54913 C 143.37195 59.6787 144.21631 59.88495 144.74282 60.01265 C 145.26932 60.14034 146.11368 60.34375 146.64019 60.46957 C 147.16669 60.5954 148.01105 60.7955 148.53755 60.9196 C 149.06406 61.04369 149.90842 61.24168 150.43492 61.364 C 150.96143 61.48631 151.80579 61.68053 152.3323 61.8012 C 152.85881 61.92184 153.70317 62.11467 154.22968 62.23369 C 154.75618 62.3527 155.60054 62.54161 156.12705 62.65898 C 156.65355 62.77634 157.49791 62.96364 158.02442 63.07957 C 158.55092 63.1955 159.3953 63.38022 159.9218 63.49454 C 160.4483 63.60886 161.29267 63.79074 161.81917 63.90355 C 162.34568 64.01634 163.19002 64.19618 163.71652 64.30754 C 164.24303 64.4189 165.0874 64.59628 165.6139 64.7062 C 166.14041 64.81613 166.98477 64.9912 167.51128 65.09987 C 168.03778 65.20853 168.88214 65.38214 169.40865 65.48946 C 169.93515 65.59679 170.77953 65.76758 171.30603 65.87341 C 171.83254 65.97925 172.6769 66.14778 173.2034 66.25237 C 173.7299 66.35693 174.57427 66.52382 175.10077 66.62723 C 175.62728 66.73062 176.47165 66.89548 176.99816 66.99771 C 177.52466 67.09995 178.36902 67.26312 178.89553 67.36414 C 179.42203 67.46515 180.26638 67.62605 180.79288 67.72586 C 181.31938 67.82565 182.16374 67.98477 182.69025 68.0835 C 183.21677 68.18222 184.06113 68.33987 184.58763 68.43738 C 185.11414 68.53488 185.9585 68.68982 186.485 68.78627 C 187.0115 68.88272 187.85587 69.03705 188.38237 69.13263 C 188.90888 69.22823 189.75325 69.38087 190.27976 69.47525 C 190.80626 69.56963 191.65062 69.71948 192.17713 69.81287 C 192.70363 69.90623 193.54799 70.05573 194.0745 70.14827 C 194.601 70.24083 195.44538 70.38867 195.97188 70.47992 C 196.49839 70.57117 197.34273 70.71552 197.86923 70.80594 C 198.39574 70.89636 199.2401 71.04189 199.7666 71.13165 C 200.2931 71.22142 201.13748 71.36449 201.66399 71.45296 C 202.19049 71.54141 203.56136 71.76926 203.56136 71.76926 "/>
<path transform="matrix(1,0,0,-1,.199,216.67499)" stroke-width="1" stroke-linecap="butt" stroke-dasharray="2.98883,2.98883" stroke-miterlimit="10" stroke-linejoin="miter" fill="none" stroke="#000000" d="M 0 0 L 8.48183 8.48183 L 16.96367 16.96367 L 25.44551 25.44551 L 33.92734 33.92734 L 42.40918 42.40918 L 50.89102 50.89102 L 59.37285 59.37285 L 67.85469 67.85469 L 76.33653 76.33653 L 84.81836 84.81836 L 93.3002 93.3002 L 101.78204 101.78204 L 110.26389 110.26389 L 118.74571 118.74571 L 127.22755 127.22755 L 135.7094 135.7094 L 144.19123 144.19123 L 152.67307 152.67307 L 161.1549 161.1549 L 169.63674 169.63674 L 178.11858 178.11858 L 186.60042 186.60042 L 195.08226 195.08226 L 203.56409 203.56409 "/>
<symbol id="font_2_1">
<path d="M .314 .605 L .4 .605 C .42000003 .605 .43 .605 .43 .625 C .43 .63600006 .42000003 .63600006 .40300004 .63600006 L .32000003 .63600006 L .34100003 .75 C .34500004 .771 .35900004 .842 .365 .8540001 C .374 .873 .39100004 .888 .41200004 .888 C .416 .888 .44200004 .888 .461 .87 C .41700004 .86600008 .407 .8310001 .407 .816 C .407 .793 .425 .781 .444 .781 C .47 .781 .49900005 .8030001 .49900005 .8410001 C .49900005 .8870001 .45300005 .9100001 .41200004 .9100001 C .37800003 .9100001 .31500004 .8920001 .28500004 .793 C .279 .7720001 .27600003 .7620001 .252 .63600006 L .18300002 .63600006 C .164 .63600006 .15300001 .63600006 .15300001 .61700007 C .15300001 .605 .162 .605 .18100001 .605 L .24700001 .605 L .172 .21000001 C .15400002 .113000009 .13700001 .022 .08500001 .022 C .081 .022 .056 .022 .037 .040000008 C .083000008 .043000014 .09200001 .07900001 .09200001 .094000007 C .09200001 .117000009 .074 .12900001 .055 .12900001 C .029 .12900001 0 .10700001 0 .069000009 C 0 .024000004 .044 0 .08500001 0 C .14 0 .18 .059 .19800002 .09700001 C .23000002 .16000001 .25300003 .28100003 .254 .28800003 L .314 .605 Z "/>
</symbol>
<use xlink:href="#font_2_1" transform="matrix(9.9626,0,0,-9.9626,50.99102,80.28033)" fill="#000080"/>
<use xlink:href="#font_2_1" transform="matrix(9.9626,0,0,-9.9626,133.33202,156.28632)" fill="#800000"/>
<symbol id="font_3_1">
<path d="M .63600006 0 C .65200009 0 .67600008 0 .67600008 .023999989 C .67600008 .048999996 .65300008 .048999996 .63600006 .048999996 L .04 .048999996 C .023999997 .048999996 0 .048999996 0 .025000006 C 0 0 .02300001 0 .04 0 L .63600006 0 Z "/>
</symbol>
<use xlink:href="#font_3_1" transform="matrix(6.9738,0,0,-6.9738,139.50717,148.55391)" fill="#800000"/>
<symbol id="font_4_1">
<path d="M .22600001 .63600006 C .22600001 .66300007 .224 .66400006 .19600001 .66400006 C .132 .601 .041 .6 0 .6 L 0 .564 C .023999997 .564 .09000001 .564 .14500001 .592 L .14500001 .082 C .14500001 .049000004 .14500001 .036000004 .04500001 .036000004 L .0069999995 .036000004 L .0069999995 0 C .024999999 .001 .148 .004 .185 .004 C .21600002 .004 .34200005 .001 .36400003 0 L .36400003 .036000004 L .32600004 .036000004 C .22600001 .036000004 .22600001 .049000004 .22600001 .082 L .22600001 .63600006 Z "/>
</symbol>
<use xlink:href="#font_4_1" transform="matrix(6.9738,0,0,-6.9738,145.74015,150.12999)" fill="#800000"/>
<path transform="matrix(1,0,0,-1,.199,216.67499)" stroke-width="1" stroke-linecap="butt" stroke-miterlimit="10" stroke-linejoin="miter" fill="none" stroke="#000000" d="M 46.97638 100.78883 L 63.77441 100.78883 "/>
<path transform="matrix(1,0,0,-1,63.97341,115.886157)" d="M 1.99252 0 L -1.19551 1.59401 L 0 0 L -1.19551 -1.59401 "/>
<path transform="matrix(1,0,0,-1,.199,216.67499)" stroke-width="1" stroke-linecap="butt" stroke-miterlimit="10" stroke-linejoin="miter" fill="none" stroke="#000000" d="M 65.76694 100.78883 L 65.76694 166.90035 "/>
<path transform="matrix(0,-1,-1,-0,65.965938,49.774644)" d="M 1.99252 0 L -1.19551 1.59401 L 0 0 L -1.19551 -1.59401 "/>
<symbol id="font_0_1">
<path d="M .39500005 .698 C .38800005 .711 .38600005 .716 .36900003 .716 C .35200004 .716 .35000003 .711 .34300003 .698 L .004999999 .020000002 C 0 .011000001 0 .009000001 0 .008 C 0 0 .006000001 0 .022000004 0 L .716 0 C .73200008 0 .73800006 0 .73800006 .008 C .73800006 .009000001 .73800006 .011000001 .73300006 .020000002 L .39500005 .698 M .337 .61600008 L .60600009 .076000008 L .067 .076000008 L .337 .61600008 Z "/>
</symbol>
<use xlink:href="#font_0_1" transform="matrix(9.9626,0,0,-9.9626,48.474245,126.215)"/>
<symbol id="font_2_2">
<path d="M .305 .31300003 C .311 .33900003 .334 .43100003 .404 .43100003 C .409 .43100003 .433 .43100003 .454 .418 C .426 .41300003 .40600003 .388 .40600003 .36400003 C .40600003 .34800003 .417 .32900004 .444 .32900004 C .46600003 .32900004 .498 .34700004 .498 .38700003 C .498 .43900005 .439 .45300005 .405 .45300005 C .347 .45300005 .312 .40000005 .3 .37700004 C .275 .44300003 .221 .45300005 .19200002 .45300005 C .08800001 .45300005 .031000002 .32400004 .031000002 .29900003 C .031000002 .28900004 .041 .28900004 .043000007 .28900004 C .051000008 .28900004 .054000006 .291 .056 .3 C .09 .40600003 .156 .43100003 .19000001 .43100003 C .209 .43100003 .244 .42200003 .244 .36400003 C .244 .33300004 .22700002 .26600004 .19000001 .126 C .17400001 .064 .13900002 .022000002 .095000009 .022000002 C .08900001 .022000002 .06600001 .022000002 .045 .035 C .07000001 .040000004 .09200001 .061 .09200001 .089 C .09200001 .116000007 .07000001 .124000009 .055000009 .124000009 C .025 .124000009 0 .098000008 0 .06600001 C 0 .020000002 .050000006 0 .094000007 0 C .16000001 0 .19600001 .07000001 .19900002 .076000008 C .21100001 .039 .24700003 0 .307 0 C .41 0 .467 .12900001 .467 .15400002 C .467 .16400002 .458 .16400002 .455 .16400002 C .446 .16400002 .444 .16000001 .442 .15300001 C .409 .046 .341 .022000002 .30900003 .022000002 C .27 .022000002 .254 .054 .254 .08800001 C .254 .11000001 .26 .13200002 .271 .17600002 L .305 .31300003 Z "/>
</symbol>
<use xlink:href="#font_2_2" transform="matrix(9.9626,0,0,-9.9626,56.596914,126.324588)"/>
<use xlink:href="#font_0_1" transform="matrix(9.9626,0,0,-9.9626,68.074237,84.50198)"/>
<use xlink:href="#font_2_1" transform="matrix(9.9626,0,0,-9.9626,76.43601,86.54432)"/>
<path transform="matrix(1,0,0,-1,.199,216.67499)" stroke-width="1" stroke-linecap="butt" stroke-miterlimit="10" stroke-linejoin="miter" fill="none" stroke="#000000" d="M 168.89287 46.97638 L 168.89287 63.77441 "/>
<path transform="matrix(0,-1,-1,-0,169.09188,152.90058)" d="M 1.99252 0 L -1.19551 1.59401 L 0 0 L -1.19551 -1.59401 "/>
<path transform="matrix(1,0,0,-1,.199,216.67499)" stroke-width="1" stroke-linecap="butt" stroke-miterlimit="10" stroke-linejoin="miter" fill="none" stroke="#000000" d="M 100.78883 46.97638 L 166.90035 46.97638 "/>
<path transform="matrix(1,0,0,-1,167.09935,169.69861)" d="M 1.99252 0 L -1.19551 1.59401 L 0 0 L -1.19551 -1.59401 "/>
<use xlink:href="#font_0_1" transform="matrix(9.9626,0,0,-9.9626,172.62926,163.63899)"/>
<use xlink:href="#font_2_1" transform="matrix(9.9626,0,0,-9.9626,180.99103,165.68132)"/>
<use xlink:href="#font_3_1" transform="matrix(6.9738,0,0,-6.9738,187.16619,157.94992)"/>
<use xlink:href="#font_4_1" transform="matrix(6.9738,0,0,-6.9738,193.40016,159.526)"/>
<use xlink:href="#font_0_1" transform="matrix(9.9626,0,0,-9.9626,128.33324,178.706)"/>
<use xlink:href="#font_2_2" transform="matrix(9.9626,0,0,-9.9626,136.4559,178.81558)"/>
</g>
<path transform="matrix(1,0,0,-1,.199,216.67499)" d="M 48.96893 100.78883 C 48.96893 101.88931 48.07686 102.78139 46.97638 102.78139 C 45.87592 102.78139 44.98383 101.88931 44.98383 100.78883 C 44.98383 99.68837 45.87592 98.79628 46.97638 98.79628 C 48.07686 98.79628 48.96893 99.68837 48.96893 100.78883 Z M 46.97638 100.78883 " fill="#800080"/>
<path transform="matrix(1,0,0,-1,.199,216.67499)" stroke-width="1" stroke-linecap="butt" stroke-miterlimit="10" stroke-linejoin="miter" fill="none" stroke="#800080" d="M 48.96893 100.78883 C 48.96893 101.88931 48.07686 102.78139 46.97638 102.78139 C 45.87592 102.78139 44.98383 101.88931 44.98383 100.78883 C 44.98383 99.68837 45.87592 98.79628 46.97638 98.79628 C 48.07686 98.79628 48.96893 99.68837 48.96893 100.78883 Z M 46.97638 100.78883 "/>
<path transform="matrix(1,0,0,-1,.199,216.67499)" d="M 102.78139 46.97638 C 102.78139 48.07686 101.88931 48.96893 100.78883 48.96893 C 99.68837 48.96893 98.79628 48.07686 98.79628 46.97638 C 98.79628 45.87592 99.68837 44.98383 100.78883 44.98383 C 101.88931 44.98383 102.78139 45.87592 102.78139 46.97638 Z M 100.78883 46.97638 " fill="#800080"/>
<path transform="matrix(1,0,0,-1,.199,216.67499)" stroke-width="1" stroke-linecap="butt" stroke-miterlimit="10" stroke-linejoin="miter" fill="none" stroke="#800080" d="M 102.78139 46.97638 C 102.78139 48.07686 101.88931 48.96893 100.78883 48.96893 C 99.68837 48.96893 98.79628 48.07686 98.79628 46.97638 C 98.79628 45.87592 99.68837 44.98383 100.78883 44.98383 C 101.88931 44.98383 102.78139 45.87592 102.78139 46.97638 Z M 100.78883 46.97638 "/>
<use xlink:href="#font_2_2" transform="matrix(9.9626,0,0,-9.9626,207.60991,203.26758)"/>
<symbol id="font_2_3">
<path d="M .45700003 .586 C .461 .6 .461 .602 .461 .609 C .461 .62700006 .447 .63600006 .432 .63600006 C .42200003 .63600006 .40600003 .63 .397 .615 C .395 .61 .387 .579 .38300003 .561 C .37600003 .535 .36900003 .508 .363 .48100005 L .318 .301 C .314 .286 .271 .21600002 .20500002 .21600002 C .15400002 .21600002 .143 .26000003 .143 .29700003 C .143 .34300003 .16000001 .40500004 .194 .49300004 C .21000001 .53400006 .21400002 .545 .21400002 .56500008 C .21400002 .61 .18200001 .6470001 .13200002 .6470001 C .037 .6470001 0 .50200006 0 .49300004 C 0 .48300005 .01 .48300005 .012 .48300005 C .022000002 .48300005 .023 .485 .028000003 .50100007 C .055000009 .595 .095000009 .625 .12900001 .625 C .13700001 .625 .15400002 .625 .15400002 .59300008 C .15400002 .568 .14400001 .54200008 .13700001 .523 C .097 .41700004 .079 .36 .079 .31300003 C .079 .224 .142 .194 .201 .194 C .24000003 .194 .274 .21100001 .30200003 .23900002 C .289 .187 .277 .13800001 .237 .08500001 C .21100001 .051 .17300001 .022 .127 .022 C .113000009 .022 .068 .025000006 .051000008 .06400001 C .067 .06400001 .080000009 .06400001 .094000007 .076000008 C .104 .08500001 .11400001 .098000008 .11400001 .117000009 C .11400001 .148 .087000008 .15200001 .07700001 .15200001 C .054000006 .15200001 .021 .136 .021 .087000008 C .021 .037 .065000008 0 .127 0 C .23 0 .333 .091000009 .361 .20400001 L .45700003 .586 Z "/>
</symbol>
<use xlink:href="#font_2_3" transform="matrix(9.9626,0,0,-9.9626,13.528916,9.652319)"/>
</svg>
