<?xml version="1.0" encoding="UTF-8" standalone="no"?>
<!DOCTYPE svg PUBLIC "-//W3C//DTD SVG 1.1//EN" "http://www.w3.org/Graphics/SVG/1.1/DTD/svg11.dtd">
<svg xmlns="http://www.w3.org/2000/svg" xmlns:xlink="http://www.w3.org/1999/xlink" version="1.1" width="215.422pt" height="174.889pt" viewBox="0 0 215.422 174.889">
<clipPath id="cp0">
<path transform="matrix(1,0,0,-1,8.446,174.69)" d="M 0 0 L 194.2682 0 L 194.2682 161.3966 L 0 161.3966 Z "/>
</clipPath>
<g clip-path="url(#cp0)">
<path transform="matrix(1,0,0,-1,8.446,174.69)" d="M 13.3978 23.05666 L 13.73442 28.83514 L 14.07104 31.22873 L 14.40767 33.06529 L 14.7443 34.61372 L 15.08093 35.97781 L 15.41756 37.2111 L 15.75418 38.34518 L 16.0908 39.40082 L 16.42743 40.39223 L 16.76407 41.33026 L 17.10068 42.22212 L 17.43732 43.07431 L 17.77393 43.89175 L 18.11057 44.67824 L 18.44719 45.4371 L 18.78381 46.1711 L 19.12045 46.88245 L 19.45706 47.57324 L 19.7937 48.24506 L 20.13031 48.89934 L 20.46695 49.53754 L 20.80357 50.16078 L 21.1402 50.76985 L 21.47682 51.36592 L 21.81345 51.94968 L 22.15009 52.5219 L 22.4867 53.08324 L 22.82333 53.63417 L 23.15994 54.17545 L 23.49658 54.7074 L 23.8332 55.23064 L 24.16983 55.74542 L 24.50647 56.25223 L 24.8431 56.75143 L 25.17972 57.24338 L 25.51633 57.72835 L 25.85297 58.20656 L 26.18959 58.67842 L 26.52621 59.14406 L 26.86284 59.6038 L 27.19946 60.05783 L 27.5361 60.5063 L 27.87273 60.9495 L 28.20935 61.3876 L 28.54597 61.82077 L 28.8826 62.24911 L 29.21922 62.67278 L 29.55585 63.09207 L 29.89247 63.50694 L 30.22911 63.9176 L 30.56573 64.32422 L 30.90236 64.72678 L 31.23898 65.12555 L 31.5756 65.52057 L 31.91223 65.91196 L 32.24886 66.29984 L 32.5855 66.6842 L 32.9221 67.06522 L 33.25874 67.44298 L 33.59537 67.81757 L 33.93199 68.18901 L 34.26863 68.55745 L 34.60524 68.92297 L 34.94186 69.28554 L 35.27849 69.64526 L 35.61513 70.00227 L 35.95174 70.35663 L 36.28838 70.70827 L 36.625 71.05737 L 36.96162 71.40399 L 37.29826 71.74808 L 37.63487 72.08978 L 37.97151 72.42911 L 38.30812 72.76614 L 38.64476 73.10089 L 38.98137 73.43336 L 39.31801 73.76372 L 39.65465 74.09196 L 39.99126 74.4181 L 40.3279 74.74211 L 40.6645 75.06412 L 41.00114 75.38419 L 41.33777 75.70232 L 41.6744 76.01851 L 42.01103 76.33278 L 42.34764 76.64526 L 42.68428 76.95593 L 43.02089 77.26482 L 43.35753 77.57196 L 43.69415 77.87733 L 44.03078 78.18105 L 44.3674 78.48317 L 44.70403 78.78352 L 45.04066 79.0824 L 45.37727 79.37958 L 45.71391 79.6752 L 46.05054 79.96933 L 46.38716 80.26195 L 46.72379 80.55307 L 47.06041 80.84183 L 47.39703 81.13007 L 47.73366 81.41689 L 48.07028 81.70221 L 48.40689 81.9862 L 48.74353 82.2688 L 49.08014 82.55017 L 49.41676 82.83011 L 49.75339 83.10876 L 50.09001 83.38617 L 50.42662 83.66226 L 50.76324 83.9371 L 51.09988 84.21074 L 51.4365 84.48314 L 51.77312 84.75429 L 52.10973 85.0243 L 52.44637 85.29318 L 52.78297 85.56084 L 53.1196 85.82742 L 53.45622 86.09277 L 53.79285 86.35709 L 54.12947 86.62033 L 54.46608 86.88243 L 54.80272 87.14348 L 55.13933 87.40347 L 55.47595 87.66241 L 55.81256 87.9203 L 56.1492 88.17722 L 56.48581 88.43306 L 56.82243 88.68796 L 57.15907 88.9418 L 57.49568 89.19475 L 57.8323 89.44666 L 58.16891 89.69766 L 58.50555 89.94772 L 58.84216 90.1969 L 59.17879 90.4451 L 59.5154 90.69235 L 59.85204 90.9388 L 60.18866 91.18427 L 60.52527 91.42886 L 60.86191 91.67268 L 61.19852 91.91551 L 61.53514 92.15758 L 61.87175 92.39874 L 62.20839 92.63911 L 62.545 92.87862 L 62.88162 93.11732 L 63.21825 93.35526 L 63.55487 93.59238 L 63.8915 93.82861 L 64.2281 94.06415 L 64.56474 94.29892 L 64.90135 94.53285 L 65.23798 94.76602 L 65.5746 94.99849 L 65.91122 95.23018 L 66.24785 95.46114 L 66.58446 95.69131 L 66.92108 95.92087 L 67.2577 96.14963 L 67.59433 96.3777 L 67.93094 96.60507 L 68.26758 96.83171 L 68.6042 97.05768 L 68.94081 97.28293 L 69.27744 97.50748 L 69.61406 97.7314 L 69.95068 97.95464 L 70.2873 98.17725 L 70.62392 98.39915 L 70.96054 98.62044 L 71.29716 98.84103 L 71.63379 99.061 L 71.97041 99.28038 L 72.30704 99.49911 L 72.64365 99.71715 L 72.98027 99.93465 L 73.3169 100.15155 L 73.65352 100.36774 L 73.99013 100.5834 L 74.32675 100.79846 L 74.66339 101.01288 L 75 101.22679 L 75.33662 101.4401 L 75.67325 101.65276 L 76.00987 101.8649 L 76.34648 102.07652 L 76.6831 102.28752 L 77.01973 102.49791 L 77.35635 102.70786 L 77.69298 102.91719 L 78.02959 103.1259 L 78.36623 103.33418 L 78.70284 103.54193 L 79.03946 103.74905 L 79.37608 103.95566 L 79.7127 104.16182 L 80.04932 104.36737 L 80.38594 104.57248 L 80.38655 23.05666 L 77.59534 23.05666 L 74.80415 23.05666 L 72.01295 23.05666 L 69.22176 23.05666 L 66.43056 23.05666 L 63.63936 23.05666 L 60.84816 23.05666 L 58.05698 23.05666 L 55.26576 23.05666 L 52.47458 23.05666 L 49.68336 23.05666 L 46.89217 23.05666 L 44.10098 23.05666 L 41.30977 23.05666 L 38.51859 23.05666 L 35.72737 23.05666 L 32.93619 23.05666 L 30.14499 23.05666 L 27.35379 23.05666 L 24.56259 23.05666 L 21.77138 23.05666 L 18.9802 23.05666 L 16.189 23.05666 L 13.3978 23.05666 Z " fill="#cccce6"/>
</g>
<clipPath id="cp1">
<path transform="matrix(1,0,0,-1,8.446,174.69)" d="M 0 0 L 194.2682 0 L 194.2682 161.3966 L 0 161.3966 Z "/>
</clipPath>
<g clip-path="url(#cp1)">
<path transform="matrix(1,0,0,-1,8.446,174.69)" stroke-width="1.19553" stroke-linecap="butt" stroke-miterlimit="10" stroke-linejoin="miter" fill="none" stroke="#000080" d="M 0 23.05666 C 0 23.05666 5.84828 23.05666 8.09447 23.05666 C 10.34065 23.05666 13.94278 23.05666 16.18896 23.05666 C 18.43515 23.05666 22.03726 23.05666 24.28345 23.05666 C 26.52963 23.05666 30.13174 23.05666 32.37793 23.05666 C 34.62411 23.05666 38.22623 23.05666 40.47241 23.05666 C 42.7186 23.05666 46.32072 23.05666 48.56691 23.05666 C 50.8131 23.05666 54.4152 23.05666 56.66138 23.05666 C 58.90756 23.05666 62.50969 23.05666 64.75587 23.05666 C 67.00206 23.05666 70.60419 23.05666 72.85037 23.05666 C 75.09654 23.05666 78.69865 23.05666 80.94484 23.05666 C 83.19102 23.05666 86.79315 23.05666 89.03934 23.05666 C 91.28552 23.05666 94.88762 23.05666 97.1338 23.05666 C 99.37999 23.05666 102.98212 23.05666 105.2283 23.05666 C 107.47449 23.05666 111.07661 23.05666 113.32278 23.05666 C 115.56897 23.05666 119.17108 23.05666 121.41727 23.05666 C 123.66345 23.05666 127.26558 23.05666 129.51177 23.05666 C 131.75794 23.05666 135.36005 23.05666 137.60623 23.05666 C 139.85242 23.05666 143.45455 23.05666 145.70073 23.05666 C 147.94692 23.05666 151.54903 23.05666 153.79521 23.05666 C 156.0414 23.05666 159.64351 23.05666 161.8897 23.05666 C 164.13588 23.05666 167.73799 23.05666 169.98418 23.05666 C 172.23036 23.05666 175.83248 23.05666 178.07866 23.05666 C 180.32485 23.05666 183.92697 23.05666 186.17314 23.05666 C 188.41933 23.05666 194.26764 23.05666 194.26764 23.05666 "/>
<path transform="matrix(1,0,0,-1,8.446,174.69)" stroke-width="1.19553" stroke-linecap="butt" stroke-miterlimit="10" stroke-linejoin="miter" fill="none" stroke="#800000" d="M 13.66707 28.225 C 13.66707 28.225 14.37242 32.82912 14.6433 34.17175 C 14.91418 35.5144 15.34862 36.97292 15.6195 37.9019 C 15.8904 38.83087 16.32484 40.10371 16.59573 40.86728 C 16.86662 41.63084 17.30107 42.74025 17.57196 43.4052 C 17.84285 44.07014 18.2773 45.06265 18.54819 45.6598 C 18.81906 46.25696 19.25351 47.1623 19.5244 47.70906 C 19.79527 48.25583 20.22974 49.09322 20.50063 49.6006 C 20.7715 50.10797 21.20595 50.89046 21.47684 51.36592 C 21.74771 51.8414 22.18217 52.57858 22.45305 53.02754 C 22.72394 53.4765 23.1584 54.17532 23.42928 54.60176 C 23.70016 55.02818 24.13461 55.69402 24.40549 56.10103 C 24.67638 56.50803 25.11084 57.14519 25.38171 57.5352 C 25.6526 57.92523 26.08705 58.53705 26.35794 58.91203 C 26.62883 59.28702 27.06326 59.87637 27.33415 60.23796 C 27.60504 60.59953 28.03949 61.16862 28.31038 61.51813 C 28.58127 61.86763 29.01572 62.41844 29.2866 62.75705 C 29.5575 63.09564 29.99193 63.62987 30.26282 63.9585 C 30.53369 64.28714 30.96815 64.80617 31.23904 65.12564 C 31.50992 65.44513 31.94438 65.95015 32.21527 66.26122 C 32.48615 66.5723 32.9206 67.06447 33.19148 67.36777 C 33.46236 67.67108 33.89682 68.15123 34.1677 68.44733 C 34.43858 68.74341 34.87305 69.21245 35.14392 69.50182 C 35.41481 69.79118 35.84926 70.24983 36.12013 70.5329 C 36.39102 70.81596 36.82549 71.26483 37.09636 71.54199 C 37.36725 71.81915 37.8017 72.25888 38.07259 72.53052 C 38.34348 72.80214 38.77792 73.23337 39.04881 73.49977 C 39.3197 73.76616 39.75414 74.18918 40.02502 74.45064 C 40.29591 74.7121 40.73036 75.12747 41.00125 75.38428 C 41.27213 75.64108 41.70657 76.04918 41.97746 76.30154 C 42.24834 76.55392 42.6828 76.95508 42.95369 77.20326 C 43.22456 77.45143 43.65903 77.8461 43.92992 78.09027 C 44.20079 78.33444 44.63524 78.72276 44.90611 78.96312 C 45.177 79.20349 45.61147 79.5859 45.88234 79.82262 C 46.15323 80.05933 46.58769 80.43616 46.85857 80.66927 C 47.12946 80.90237 47.56392 81.27295 47.8348 81.50273 C 48.10568 81.7325 48.54012 82.09865 48.811 82.32535 C 49.0819 82.55206 49.51634 82.91307 49.78723 83.13672 C 50.05812 83.36038 50.49255 83.71658 50.76344 83.93729 C 51.03433 84.15799 51.46878 84.5096 51.73967 84.72748 C 52.01054 84.94534 52.445 85.29248 52.7159 85.50763 C 52.98677 85.72276 53.42122 86.0656 53.69211 86.2781 C 53.96298 86.49062 54.39745 86.82935 54.66833 87.03935 C 54.93921 87.24934 55.37367 87.58414 55.64455 87.7917 C 55.91544 87.99927 56.34988 88.33015 56.62076 88.53535 C 56.89165 88.74055 57.32611 89.06773 57.59698 89.27066 C 57.86787 89.47359 58.30234 89.79724 58.57321 89.99796 C 58.8441 90.19867 59.27853 90.51875 59.54942 90.71733 C 59.82031 90.9159 60.25476 91.23265 60.52565 91.42914 C 60.79654 91.62564 61.23097 91.93915 61.50186 92.13365 C 61.77275 92.32816 62.2072 92.63857 62.47809 92.83113 C 62.74898 93.0237 63.18343 93.3309 63.45432 93.52156 C 63.72519 93.71222 64.15964 94.01657 64.43053 94.2054 C 64.7014 94.39424 65.13586 94.69559 65.40675 94.88266 C 65.67763 95.06972 66.11209 95.36833 66.38298 95.55365 C 66.65385 95.73898 67.0883 96.03477 67.35918 96.21841 C 67.63007 96.40205 68.06453 96.69527 68.3354 96.87727 C 68.6063 97.0593 69.04074 97.34985 69.31161 97.53026 C 69.5825 97.71066 70.01697 97.99873 70.28784 98.1776 C 70.55873 98.35645 70.99318 98.64198 71.26407 98.8193 C 71.53496 98.99664 71.96939 99.27988 72.24028 99.45575 C 72.51117 99.63162 72.94562 99.91248 73.2165 100.0869 C 73.4874 100.26132 73.92184 100.53995 74.19273 100.71297 C 74.46361 100.88597 74.89806 101.1623 75.16895 101.33392 C 75.43982 101.50555 75.87428 101.77974 76.14517 101.95004 C 76.41605 102.12033 76.85051 102.39233 77.1214 102.56133 C 77.39227 102.73032 77.82672 103.00032 78.0976 103.16801 C 78.36848 103.33572 78.80295 103.6037 79.07382 103.77016 C 79.34471 103.93661 79.77916 104.20256 80.05003 104.36781 C 80.32092 104.53305 80.75539 104.7971 81.02626 104.96115 C 81.29715 105.1252 81.7316 105.38733 82.00249 105.55019 C 82.27338 105.71304 82.70781 105.97327 82.9787 106.135 C 83.24959 106.2967 83.68404 106.55516 83.95493 106.71576 C 84.22581 106.87634 84.66026 107.13304 84.93115 107.29254 C 85.20204 107.45204 85.63647 107.70699 85.90736 107.8654 C 86.17824 108.02382 86.6127 108.27701 86.88359 108.43437 C 87.15446 108.59172 87.58893 108.84323 87.85982 108.99956 C 88.13069 109.1559 88.56514 109.40584 88.83603 109.56116 C 89.1069 109.71648 89.54137 109.96474 89.81224 110.11905 C 90.08313 110.27336 90.51758 110.52008 90.78845 110.67342 C 91.05934 110.82677 91.4938 111.0719 91.76468 111.22427 C 92.03557 111.37666 92.47002 111.62025 92.7409 111.7717 C 93.0118 111.92314 93.44623 112.16527 93.71712 112.3158 C 93.988 112.46632 94.42245 112.707 94.69334 112.85663 C 94.96423 113.00624 95.39868 113.24547 95.66957 113.3942 C 95.94046 113.54291 96.3749 113.78075 96.64578 113.9286 C 96.91666 114.07646 97.35112 114.31287 97.62201 114.45985 C 97.89288 114.60684 98.32735 114.84187 98.59824 114.98802 C 98.86911 115.13416 99.30356 115.36787 99.57445 115.51318 C 99.84532 115.6585 100.27979 115.89087 100.55066 116.03537 C 100.82155 116.17987 101.256 116.41095 101.52687 116.55466 C 101.79776 116.69836 102.23222 116.9282 102.5031 117.07112 C 102.77399 117.21404 103.20845 117.44255 103.47932 117.58469 C 103.75021 117.7268 104.18465 117.95415 104.45554 118.09554 C 104.72643 118.23691 105.16087 118.46303 105.43176 118.60364 C 105.70265 118.74426 106.1371 118.96915 106.40799 119.10901 C 106.67888 119.24889 107.11331 119.47261 107.3842 119.61176 C 107.65508 119.7509 108.08954 119.97354 108.36043 120.11197 C 108.6313 120.2504 109.06575 120.4718 109.33664 120.60951 C 109.60751 120.74722 110.04198 120.96758 110.31287 121.10461 C 110.58374 121.24164 111.0182 121.4608 111.28908 121.59715 C 111.55997 121.7335 111.99442 121.95164 112.26529 122.08733 C 112.53618 122.223 112.97064 122.44003 113.24152 122.57503 C 113.5124 122.71002 113.94687 122.92601 114.21774 123.06036 C 114.48863 123.1947 114.92307 123.4096 115.19395 123.5433 C 115.46484 123.67702 115.89929 123.89099 116.17018 124.02408 C 116.44107 124.15715 116.87552 124.37004 117.14641 124.50246 C 117.4173 124.63489 117.85173 124.84674 118.12262 124.97856 C 118.39351 125.11037 118.82796 125.32133 119.09885 125.45255 C 119.36972 125.58376 119.80417 125.79372 120.07506 125.92432 C 120.34593 126.05492 120.7804 126.2639 121.05128 126.3939 C 121.32216 126.52391 121.75662 126.73195 122.02751 126.86139 C 122.29839 126.99081 122.73283 127.19789 123.00371 127.32675 C 123.2746 127.4556 123.70906 127.6618 123.97993 127.79008 C 124.25082 127.91838 124.68529 128.1237 124.95616 128.25142 C 125.22705 128.37914 125.6615 128.58348 125.93237 128.71063 C 126.20326 128.83779 126.63771 129.04129 126.9086 129.16791 C 127.17949 129.29453 127.61394 129.49716 127.88483 129.62323 C 128.15572 129.7493 128.59015 129.9511 128.86104 130.07663 C 129.13193 130.20217 129.56638 130.40309 129.83727 130.5281 C 130.10814 130.6531 130.54259 130.85317 130.81348 130.97765 C 131.08435 131.10211 131.51882 131.30133 131.7897 131.42533 C 132.06058 131.54932 132.49504 131.74779 132.76593 131.87126 C 133.0368 131.99472 133.47126 132.19228 133.74213 132.31525 C 134.01302 132.43822 134.44748 132.6351 134.71836 132.75759 C 134.98925 132.88007 135.4237 133.07607 135.69458 133.19805 C 135.96547 133.32003 136.39992 133.51526 136.67079 133.63675 C 136.94168 133.75826 137.37613 133.95272 137.64702 134.07372 C 137.91791 134.19474 138.35234 134.38846 138.62323 134.509 C 138.89412 134.62953 139.32857 134.82245 139.59946 134.94252 C 139.87035 135.0626 140.3048 135.25485 140.57569 135.37448 C 140.84658 135.4941 141.281 135.68558 141.5519 135.80474 C 141.82277 135.92389 142.25724 136.11463 142.52812 136.23334 C 142.799 136.35205 143.23346 136.5421 143.50435 136.66037 C 143.77523 136.77864 144.20967 136.96797 144.48055 137.0858 C 144.75144 137.20362 145.1859 137.3922 145.45677 137.50957 C 145.72766 137.62694 146.16213 137.81488 146.433 137.93183 C 146.70389 138.04878 147.13834 138.236 147.40921 138.35251 C 147.6801 138.46904 148.11455 138.6556 148.38544 138.77172 C 148.65633 138.88782 149.09076 139.07372 149.36165 139.18939 C 149.63254 139.30509 150.06699 139.49034 150.33788 139.60559 C 150.60877 139.72086 151.04322 139.90535 151.3141 140.02022 C 151.58499 140.13509 152.01943 140.31906 152.29032 140.43352 C 152.56119 140.54798 152.99565 140.73117 153.26654 140.84523 C 153.53742 140.95929 153.97188 141.14196 154.24277 141.25562 C 154.51364 141.36928 154.94809 141.55124 155.21898 141.6645 C 155.48986 141.77777 155.92432 141.95912 156.19519 142.072 C 156.46608 142.1849 156.90055 142.36566 157.17142 142.47818 C 157.4423 142.59069 157.87676 142.77083 158.14763 142.88295 C 158.41852 142.99506 158.85298 143.17456 159.12386 143.2863 C 159.39475 143.39804 159.82918 143.57697 160.10007 143.68834 C 160.37096 143.7997 160.8054 143.97806 161.0763 144.08905 C 161.34719 144.20006 161.78163 144.37784 162.05252 144.48847 C 162.32341 144.59908 162.75785 144.77619 163.02873 144.88645 C 163.2996 144.9967 163.73407 145.1733 164.00496 145.28322 C 164.27584 145.39315 164.7103 145.56919 164.98119 145.67874 C 165.25206 145.7883 165.68651 145.96375 165.9574 146.07297 C 166.22827 146.18218 166.66274 146.35707 166.93361 146.46593 C 167.2045 146.5748 167.63895 146.74909 167.90982 146.85759 C 168.18071 146.96611 168.61518 147.13991 168.88605 147.24811 C 169.15694 147.3563 169.5914 147.52956 169.86228 147.63739 C 170.13317 147.74524 170.5676 147.91794 170.83849 148.02544 C 171.10938 148.13295 171.54383 148.3051 171.81472 148.41228 C 172.0856 148.51944 172.52005 148.6911 172.79094 148.79795 C 173.06183 148.90479 173.49626 149.07588 173.76715 149.1824 C 174.03804 149.28893 174.47249 149.45952 174.74338 149.5657 C 175.01425 149.67189 175.44872 149.8419 175.7196 149.94779 C 175.99048 150.05365 176.42493 150.22322 176.69582 150.32878 C 176.96669 150.43434 177.40116 150.60343 177.67205 150.70867 C 177.94292 150.8139 178.37737 150.98247 178.64824 151.08739 C 178.91913 151.19232 179.35359 151.36037 179.62447 151.46498 C 179.89536 151.5696 180.32982 151.7372 180.6007 151.84152 C 180.87158 151.94583 181.30603 152.11289 181.5769 152.2169 C 181.8478 152.3209 182.28224 152.48752 182.55313 152.59123 C 182.82402 152.69496 183.25847 152.8611 183.52936 152.96453 C 183.80025 153.06793 184.23468 153.23352 184.50557 153.33666 C 184.77646 153.43978 185.2109 153.605 185.4818 153.70783 C 185.75267 153.81064 186.18714 153.9753 186.45803 154.07784 C 186.7289 154.18038 187.16335 154.34464 187.43424 154.4469 C 187.70511 154.54917 188.13957 154.71292 188.41046 154.81488 C 188.68134 154.91686 189.11579 155.08017 189.38666 155.18184 C 189.65755 155.28351 190.09201 155.44632 190.36289 155.54773 C 190.63378 155.64914 191.06824 155.81162 191.33911 155.91275 C 191.61 156.01387 192.04445 156.17577 192.31533 156.27661 C 192.58621 156.37744 193.02066 156.53902 193.29155 156.6396 C 193.56244 156.74018 194.26778 157.00153 194.26778 157.00153 "/>
<path transform="matrix(1,0,0,-1,8.446,174.69)" stroke-width="1.19553" stroke-linecap="butt" stroke-miterlimit="10" stroke-linejoin="miter" fill="none" stroke="#008000" d="M 80.38684 -207.50992 L 80.38684 714.7564 "/>
<path transform="matrix(1,0,0,-1,8.446,174.69)" stroke-width="1.19553" stroke-linecap="butt" stroke-dasharray="1.19553,1.99255" stroke-miterlimit="10" stroke-linejoin="miter" fill="none" stroke="#cc6600" d="M 147.37587 -207.50992 L 147.37587 714.7564 "/>
<symbol id="font_2_4">
<path d="M .305 .31300003 C .311 .33900003 .334 .43100003 .404 .43100003 C .409 .43100003 .433 .43100003 .454 .418 C .426 .41300003 .40600003 .388 .40600003 .36400003 C .40600003 .34800003 .417 .32900004 .444 .32900004 C .46600003 .32900004 .498 .34700004 .498 .38700003 C .498 .43900005 .439 .45300005 .405 .45300005 C .347 .45300005 .312 .40000005 .3 .37700004 C .275 .44300003 .221 .45300005 .19200002 .45300005 C .08800001 .45300005 .031000002 .32400004 .031000002 .29900003 C .031000002 .28900004 .041 .28900004 .043000007 .28900004 C .051000008 .28900004 .054000006 .291 .056 .3 C .09 .40600003 .156 .43100003 .19000001 .43100003 C .209 .43100003 .244 .42200003 .244 .36400003 C .244 .33300004 .22700002 .26600004 .19000001 .126 C .17400001 .064 .13900002 .022000002 .095000009 .022000002 C .08900001 .022000002 .06600001 .022000002 .045 .035 C .07000001 .040000004 .09200001 .061 .09200001 .089 C .09200001 .116000007 .07000001 .124000009 .055000009 .124000009 C .025 .124000009 0 .098000008 0 .06600001 C 0 .020000002 .050000006 0 .094000007 0 C .16000001 0 .19600001 .07000001 .19900002 .076000008 C .21100001 .039 .24700003 0 .307 0 C .41 0 .467 .12900001 .467 .15400002 C .467 .16400002 .458 .16400002 .455 .16400002 C .446 .16400002 .444 .16000001 .442 .15300001 C .409 .046 .341 .022000002 .30900003 .022000002 C .27 .022000002 .254 .054 .254 .08800001 C .254 .11000001 .26 .13200002 .271 .17600002 L .305 .31300003 Z "/>
</symbol>
<use xlink:href="#font_2_4" transform="matrix(9.9626,0,0,-9.9626,41.282915,74.3806)" fill="#800000"/>
<symbol id="font_3_7">
<path d="M .63100007 .19400002 C .646 .19400002 .665 .19400002 .665 .214 C .665 .23400001 .646 .23400001 .632 .23400001 L .033 .23400001 C .019000002 .23400001 0 .23400001 0 .214 C 0 .19400002 .019000002 .19400002 .034 .19400002 L .63100007 .19400002 M .632 0 C .646 0 .665 0 .665 .02000001 C .665 .040000008 .646 .040000008 .63100007 .040000008 L .034 .040000008 C .019000002 .040000008 0 .040000008 0 .02000001 C 0 0 .019000002 0 .033 0 L .632 0 Z "/>
</symbol>
<use xlink:href="#font_3_7" transform="matrix(9.9626,0,0,-9.9626,50.01291,72.945987)" fill="#800000"/>
<symbol id="font_2_5">
<path d="M .45700003 .586 C .461 .6 .461 .602 .461 .609 C .461 .62700006 .447 .63600006 .432 .63600006 C .42200003 .63600006 .40600003 .63 .397 .615 C .395 .61 .387 .579 .38300003 .561 C .37600003 .535 .36900003 .508 .363 .48100005 L .318 .301 C .314 .286 .271 .21600002 .20500002 .21600002 C .15400002 .21600002 .143 .26000003 .143 .29700003 C .143 .34300003 .16000001 .40500004 .194 .49300004 C .21000001 .53400006 .21400002 .545 .21400002 .56500008 C .21400002 .61 .18200001 .6470001 .13200002 .6470001 C .037 .6470001 0 .50200006 0 .49300004 C 0 .48300005 .01 .48300005 .012 .48300005 C .022000002 .48300005 .023 .485 .028000003 .50100007 C .055000009 .595 .095000009 .625 .12900001 .625 C .13700001 .625 .15400002 .625 .15400002 .59300008 C .15400002 .568 .14400001 .54200008 .13700001 .523 C .097 .41700004 .079 .36 .079 .31300003 C .079 .224 .142 .194 .201 .194 C .24000003 .194 .274 .21100001 .30200003 .23900002 C .289 .187 .277 .13800001 .237 .08500001 C .21100001 .051 .17300001 .022 .127 .022 C .113000009 .022 .068 .025000006 .051000008 .06400001 C .067 .06400001 .080000009 .06400001 .094000007 .076000008 C .104 .08500001 .11400001 .098000008 .11400001 .117000009 C .11400001 .148 .087000008 .15200001 .07700001 .15200001 C .054000006 .15200001 .021 .136 .021 .087000008 C .021 .037 .065000008 0 .127 0 C .23 0 .333 .091000009 .361 .20400001 L .45700003 .586 Z "/>
</symbol>
<use xlink:href="#font_2_5" transform="matrix(9.9626,0,0,-9.9626,60.259916,76.31335)" fill="#800000"/>
<symbol id="font_4_1">
<path d="M .442 .18200001 L .40800003 .18200001 C .40500004 .16000001 .39500005 .101 .38200004 .091000009 C .374 .085 .29700003 .085 .28300003 .085 L .099 .085 C .20400003 .178 .23900002 .20600002 .29900003 .25300003 C .37300004 .312 .442 .374 .442 .469 C .442 .59000006 .33600004 .66400006 .20800004 .66400006 C .084 .66400006 0 .577 0 .485 C 0 .43400003 .043000007 .42900003 .053000004 .42900003 C .077 .42900003 .10600001 .446 .10600001 .48200003 C .10600001 .5 .099 .535 .047000007 .535 C .078 .606 .146 .628 .19300002 .628 C .293 .628 .34500004 .55 .34500004 .469 C .34500004 .38200004 .28300003 .31300003 .25100003 .277 L .010000005 .039 C 0 .030000002 0 .028 0 0 L .41200004 0 L .442 .18200001 Z "/>
</symbol>
<use xlink:href="#font_4_1" transform="matrix(6.9738,0,0,-6.9738,65.65234,70.15801)" fill="#800000"/>
<use xlink:href="#font_2_4" transform="matrix(9.9626,0,0,-9.9626,160.8769,85.7836)" fill="#cc6600"/>
<symbol id="font_3_5">
<path d="M .266 .165 L .266 .078 C .266 .042000005 .26400004 .031000002 .19000001 .031000002 L .16900002 .031000002 L .16900002 0 C .21000001 .003 .26200003 .003 .30400003 .003 C .34600003 .003 .39900003 .003 .44000004 0 L .44000004 .031000002 L .41900004 .031000002 C .34500004 .031000002 .34300003 .042000005 .34300003 .078 L .34300003 .165 L .44300003 .165 L .44300003 .19600001 L .34300003 .19600001 L .34300003 .651 C .34300003 .671 .34300003 .67700007 .32700003 .67700007 C .31800003 .67700007 .31500004 .67700007 .307 .665 L 0 .19600001 L 0 .165 L .266 .165 M .272 .19600001 L .028 .19600001 L .272 .569 L .272 .19600001 Z "/>
</symbol>
<use xlink:href="#font_3_7" transform="matrix(9.9626,0,0,-9.9626,169.6069,84.34898)" fill="#cc6600"/>
<use xlink:href="#font_3_5" transform="matrix(9.9626,0,0,-9.9626,179.84845,85.67401)" fill="#cc6600"/>
<use xlink:href="#font_2_5" transform="matrix(9.9626,0,0,-9.9626,110.861919,147.27133)" fill="#000080"/>
<symbol id="font_3_1">
<path d="M .421 .34200005 C .421 .42200003 .416 .50200006 .381 .57600006 C .335 .67200008 .25300003 .688 .211 .688 C .15100001 .688 .07800001 .66200008 .037000006 .56900009 C .0050000029 .5 0 .42200003 0 .34200005 C 0 .26700003 .0040000008 .177 .045000007 .101 C .088 .020000002 .161 0 .21000001 0 C .264 0 .34 .021000002 .384 .116000007 C .416 .185 .421 .263 .421 .34200005 M .21000001 .022000002 C .171 .022000002 .112 .047000003 .094 .143 C .083000008 .20300001 .083000008 .29500003 .083000008 .35400004 C .083000008 .41800005 .083000008 .48400004 .091000009 .53800007 C .11 .65700009 .185 .66600009 .21000001 .66600009 C .243 .66600009 .30900003 .64800009 .328 .549 C .338 .49300004 .338 .41700004 .338 .35400004 C .338 .279 .338 .21100001 .32700003 .147 C .312 .052 .255 .022000002 .21000001 .022000002 Z "/>
</symbol>
<use xlink:href="#font_3_7" transform="matrix(9.9626,0,0,-9.9626,119.13991,143.90398)" fill="#000080"/>
<use xlink:href="#font_3_1" transform="matrix(9.9626,0,0,-9.9626,129.49105,145.44818)" fill="#000080"/>
<use xlink:href="#font_2_4" transform="matrix(9.9626,0,0,-9.9626,57.044916,22.379593)" fill="#008000"/>
<symbol id="font_3_3">
<path d="M .07700001 .07700001 L .18300002 .18 C .33900003 .31800003 .39900003 .372 .39900003 .47200004 C .39900003 .586 .30900003 .666 .18700002 .666 C .074 .666 0 .574 0 .485 C 0 .42900003 .05 .42900003 .053000008 .42900003 C .07000001 .42900003 .105000007 .441 .105000007 .48200003 C .105000007 .508 .08700001 .53400006 .052000006 .53400006 C .044000005 .53400006 .042000008 .53400006 .039 .53300008 C .062000004 .59800007 .11600001 .63500007 .17400001 .63500007 C .26500003 .63500007 .308 .554 .308 .47200004 C .308 .39200003 .25800003 .31300003 .20300003 .25100003 L .011000004 .037 C 0 .026 0 .024 0 0 L .37100003 0 L .39900003 .17400001 L .374 .17400001 C .36900003 .14400001 .36200003 .1 .352 .085 C .345 .07700001 .279 .07700001 .257 .07700001 L .07700001 .07700001 Z "/>
</symbol>
<use xlink:href="#font_3_7" transform="matrix(9.9626,0,0,-9.9626,65.77591,20.944979)" fill="#008000"/>
<use xlink:href="#font_3_3" transform="matrix(9.9626,0,0,-9.9626,76.23663,22.270005)" fill="#008000"/>
<path transform="matrix(1,0,0,-1,8.446,174.69)" stroke-width="1.19553" stroke-linecap="butt" stroke-miterlimit="10" stroke-linejoin="miter" fill="none" stroke="#800080" d="M 46.89232 80.6983 L 147.37587 80.6983 "/>
<path transform="matrix(1,0,0,-1,8.446,174.69)" stroke-width="1.19553" stroke-linecap="butt" stroke-miterlimit="10" stroke-linejoin="miter" fill="none" stroke="#800080" d="M 80.38684 57.64163 L 147.37587 57.64163 "/>
<symbol id="font_2_2">
<path d="M .33400003 .63600006 C .34 .66 .343 .67 .36200003 .67300006 C .37100003 .674 .40300004 .674 .423 .674 C .49400003 .674 .605 .674 .605 .57500007 C .605 .54100009 .58900007 .47200004 .55 .43300004 C .524 .40700004 .47100003 .37500004 .381 .37500004 L .269 .37500004 L .33400003 .63600006 M .47800005 .36200003 C .579 .38400004 .698 .45400004 .698 .55500009 C .698 .64100006 .60800006 .70500007 .477 .70500007 L .192 .70500007 C .17200002 .70500007 .16300002 .70500007 .16300002 .68500009 C .16300002 .674 .17200002 .674 .19100002 .674 C .19300002 .674 .21200001 .674 .229 .67200008 C .24700001 .67 .256 .669 .256 .656 C .256 .65200009 .255 .64900007 .252 .637 L .11800001 .1 C .108 .061000006 .106 .053000004 .027000003 .053000004 C .009 .053000004 0 .053000004 0 .033000005 C 0 .022000002 .012000002 .022000002 .014000002 .022000002 C .042000005 .022000002 .11200001 .025000003 .14000002 .025000003 C .16800002 .025000003 .239 .022000002 .26700003 .022000002 C .275 .022000002 .287 .022000002 .287 .042000005 C .287 .053000004 .278 .053000004 .259 .053000004 C .222 .053000004 .194 .053000004 .194 .071 C .194 .07700001 .19600001 .082 .197 .088 L .263 .35300005 L .382 .35300005 C .473 .35300005 .491 .29700003 .491 .26200003 C .491 .24700001 .48300005 .216 .477 .193 C .47000004 .165 .46100004 .128 .46100004 .108 C .46100004 0 .58100005 0 .59400007 0 C .679 0 .71400007 .101 .71400007 .115 C .71400007 .127 .703 .127 .702 .127 C .693 .127 .69100007 .120000008 .689 .113000009 C .66400006 .039000006 .62100008 .022000002 .59800007 .022000002 C .565 .022000002 .558 .044000005 .558 .083000008 C .558 .11400001 .564 .165 .568 .19700001 C .57 .21100001 .572 .23 .572 .24400002 C .572 .32100005 .505 .35200004 .47800005 .36200003 Z "/>
</symbol>
<use xlink:href="#font_2_2" transform="matrix(9.9626,0,0,-9.9626,102.166469,88.969188)" fill="#800080"/>
<symbol id="font_2_3">
<path d="M .059000009 .07000001 C .056 .055000005 .050000006 .032 .050000006 .027000003 C .050000006 .009000001 .064 0 .079 0 C .091000009 0 .10900001 .008000001 .11600001 .028 C .118 .032 .15200001 .16800002 .156 .18600002 C .164 .21900001 .18200001 .28900004 .18800001 .316 C .19200002 .32900004 .22000002 .37600003 .244 .39800004 C .252 .40500004 .281 .43100003 .324 .43100003 C .35 .43100003 .365 .41900004 .366 .41900004 C .336 .41400004 .314 .39000003 .314 .36400003 C .314 .34800003 .325 .32900004 .352 .32900004 C .379 .32900004 .407 .35200004 .407 .388 C .407 .42300005 .375 .45300005 .324 .45300005 C .259 .45300005 .21500002 .404 .19600001 .37600003 C .18800001 .42100004 .15200001 .45300005 .105000007 .45300005 C .059000009 .45300005 .040000008 .41400004 .031000002 .39600004 C .013000002 .36200003 0 .30200003 0 .29900003 C 0 .28900004 .01 .28900004 .012 .28900004 C .022000002 .28900004 .023 .29000003 .029000001 .31200005 C .046000005 .38300003 .06600001 .43100003 .10200001 .43100003 C .119 .43100003 .133 .42300005 .133 .38500003 C .133 .36400003 .13000001 .35300002 .11700001 .30100004 L .059000009 .07000001 Z "/>
</symbol>
<use xlink:href="#font_2_3" transform="matrix(9.9626,0,0,-9.9626,120.22892,113.5396)" fill="#800080"/>
</g>
<symbol id="font_3_2">
<path d="M .205 .64000007 C .205 .66400006 .205 .666 .18200003 .666 C .120000008 .60200008 .032000007 .60200008 0 .60200008 L 0 .57100006 C .020000004 .57100006 .07900001 .57100006 .13100001 .597 L .13100001 .079 C .13100001 .043 .128 .031000002 .038000004 .031000002 L .0060000049 .031000002 L .0060000049 0 C .04100001 .003 .128 .003 .168 .003 C .20800002 .003 .29500003 .003 .33000005 0 L .33000005 .031000002 L .29800005 .031000002 C .20800002 .031000002 .205 .042000005 .205 .079 L .205 .64000007 Z "/>
</symbol>
<use xlink:href="#font_3_2" transform="matrix(9.9626,0,0,-9.9626,53.733675,163.77301)"/>
<use xlink:href="#font_3_3" transform="matrix(9.9626,0,0,-9.9626,86.83913,163.77301)"/>
<symbol id="font_3_4">
<path d="M .24800003 .37400005 C .33 .40100003 .388 .47100006 .388 .55 C .388 .632 .3 .688 .204 .688 C .10300001 .688 .027000003 .628 .027000003 .55200007 C .027000003 .519 .049000004 .5 .078 .5 C .109000008 .5 .12900001 .522 .12900001 .55100008 C .12900001 .6010001 .082 .6010001 .067 .6010001 C .098 .65000006 .164 .66300007 .20000002 .66300007 C .24100003 .66300007 .29600004 .64100006 .29600004 .55100008 C .29600004 .53900006 .29400004 .48100005 .268 .43700005 C .238 .38900004 .204 .38600005 .17900002 .38500003 C .171 .38400004 .14700002 .38200004 .14000002 .38200004 C .132 .38100005 .125 .38000003 .125 .37000004 C .125 .35900004 .132 .35900004 .14900002 .35900004 L .19300002 .35900004 C .275 .35900004 .312 .29100005 .312 .193 C .312 .057000005 .24300003 .028 .199 .028 C .15600002 .028 .081 .045 .046000005 .104 C .081 .09900001 .11200001 .12100001 .11200001 .15900001 C .11200001 .19500001 .085 .215 .056 .215 C .031999999 .215 0 .201 0 .157 C 0 .06600001 .093 0 .20200002 0 C .32400004 0 .41500003 .091000009 .41500003 .193 C .41500003 .27500005 .35200004 .35300005 .24800003 .37400005 Z "/>
</symbol>
<use xlink:href="#font_3_4" transform="matrix(9.9626,0,0,-9.9626,120.253429,163.99219)"/>
<use xlink:href="#font_3_5" transform="matrix(9.9626,0,0,-9.9626,153.60895,163.77301)"/>
<symbol id="font_3_6">
<path d="M .39900003 .223 C .39900003 .34200005 .317 .44200004 .209 .44200004 C .16100002 .44200004 .118000019 .42600004 .082 .39100004 L .082 .586 C .10200001 .58000007 .135 .573 .16700001 .573 C .29 .573 .36 .66400006 .36 .67700007 C .36 .683 .357 .688 .35 .688 C .349 .688 .347 .688 .342 .68500009 C .322 .67600008 .273 .656 .20600002 .656 C .16600001 .656 .120000008 .66300007 .073 .6840001 C .065 .68700006 .06300001 .68700006 .061000009 .68700006 C .051000004 .68700006 .051000004 .679 .051000004 .66300007 L .051000004 .36700005 C .051000004 .34900005 .051000004 .34100003 .065 .34100003 C .07200001 .34100003 .074 .34400005 .07800001 .35000003 C .08900002 .36600004 .12600002 .42000006 .207 .42000006 C .259 .42000006 .284 .37400005 .292 .35600005 C .308 .31900005 .31 .28000004 .31 .23 C .31 .19500001 .31 .135 .286 .093 C .262 .054000006 .22500001 .028 .17900002 .028 C .106000009 .028 .049000008 .08100001 .032 .14000002 C .035 .13900002 .038000008 .13800001 .049000008 .13800001 C .082 .13800001 .09900001 .163 .09900001 .187 C .09900001 .21100001 .082 .23600002 .049000008 .23600002 C .035 .23600002 0 .22900002 0 .18300002 C 0 .097 .069000009 0 .18100001 0 C .297 0 .39900003 .096 .39900003 .223 Z "/>
</symbol>
<use xlink:href="#font_3_6" transform="matrix(9.9626,0,0,-9.9626,187.32213,163.99219)"/>
<use xlink:href="#font_3_1" transform="matrix(9.9626,0,0,-9.9626,3.7825416,126.24219)"/>
<symbol id="font_2_1">
<path d="M .106 .053000004 C .106 .082 .08200001 .106000009 .05300001 .106000009 C .024000004 .106000009 0 .082 0 .053000004 C 0 .024 .024000004 0 .05300001 0 C .08200001 0 .106 .024 .106 .053000004 Z "/>
</symbol>
<use xlink:href="#font_2_1" transform="matrix(9.9626,0,0,-9.9626,9.232783,126.02301)"/>
<use xlink:href="#font_3_6" transform="matrix(9.9626,0,0,-9.9626,11.6411299,126.24219)"/>
<use xlink:href="#font_3_2" transform="matrix(9.9626,0,0,-9.9626,12.029671,97.20301)"/>
<use xlink:href="#font_3_2" transform="matrix(9.9626,0,0,-9.9626,4.2806718,68.382)"/>
<use xlink:href="#font_2_1" transform="matrix(9.9626,0,0,-9.9626,9.232783,68.382)"/>
<use xlink:href="#font_3_6" transform="matrix(9.9626,0,0,-9.9626,11.6411299,68.60118)"/>
<use xlink:href="#font_3_3" transform="matrix(9.9626,0,0,-9.9626,11.6411299,39.561998)"/>
<use xlink:href="#font_2_4" transform="matrix(9.9626,0,0,-9.9626,206.62291,153.85459)"/>
<use xlink:href="#font_2_5" transform="matrix(9.9626,0,0,-9.9626,19.513916,9.726339)"/>
<path transform="matrix(1,0,0,-1,8.446,174.69)" stroke-width="1" stroke-linecap="butt" stroke-miterlimit="10" stroke-linejoin="miter" fill="none" stroke="#808080" d="M 46.89232 20.93079 L 46.89232 25.1825 M 80.38684 20.93079 L 80.38684 25.1825 M 113.88136 20.93079 L 113.88136 25.1825 M 147.37587 20.93079 L 147.37587 25.1825 M 180.87039 20.93079 L 180.87039 25.1825 "/>
<path transform="matrix(1,0,0,-1,8.446,174.69)" stroke-width="1" stroke-linecap="butt" stroke-miterlimit="10" stroke-linejoin="miter" fill="none" stroke="#808080" d="M 11.27174 51.87747 L 15.52385 51.87747 M 11.27174 80.6983 L 15.52385 80.6983 M 11.27174 109.51912 L 15.52385 109.51912 M 11.27174 138.33994 L 15.52385 138.33994 "/>
<path transform="matrix(1,0,0,-1,8.446,174.69)" stroke-width="1" stroke-linecap="butt" stroke-miterlimit="10" stroke-linejoin="miter" fill="none" stroke="#000000" d="M 0 23.05666 L 192.27568 23.05666 "/>
<path transform="matrix(1,0,0,-1,200.72168,151.63335)" d="M 1.99252 0 L -1.19551 1.59401 L 0 0 L -1.19551 -1.59401 "/>
<path transform="matrix(1,0,0,-1,8.446,174.69)" stroke-width="1" stroke-linecap="butt" stroke-miterlimit="10" stroke-linejoin="miter" fill="none" stroke="#000000" d="M 13.3978 0 L 13.3978 159.40409 "/>
<path transform="matrix(0,-1,-1,-0,21.8438,15.285919)" d="M 1.99252 0 L -1.19551 1.59401 L 0 0 L -1.19551 -1.59401 "/>
</svg>
