<?xml version="1.0" encoding="UTF-8" standalone="no"?>
<!DOCTYPE svg PUBLIC "-//W3C//DTD SVG 1.1//EN" "http://www.w3.org/Graphics/SVG/1.1/DTD/svg11.dtd">
<svg xmlns="http://www.w3.org/2000/svg" xmlns:xlink="http://www.w3.org/1999/xlink" version="1.1" width="207.043pt" height="174.679pt" viewBox="0 0 207.043 174.679">
<clipPath id="cp0">
<path transform="matrix(1,0,0,-1,.199,174.48)" d="M 0 0 L 194.26912 0 L 194.26912 161.3915 L 0 161.3915 Z "/>
</clipPath>
<g clip-path="url(#cp0)">
<path transform="matrix(1,0,0,-1,.199,174.48)" d="M 97.13455 138.33556 L 100.01099 133.55629 L 102.8874 128.77703 L 105.76384 123.99777 L 108.64027 119.21849 L 111.51671 114.43924 L 114.39313 109.65997 L 117.26958 104.8807 L 120.146 100.10144 L 123.02243 95.32219 L 125.89886 90.54291 L 128.7753 85.76366 L 131.65172 80.98439 L 134.52817 76.20511 L 137.40459 71.42583 L 140.28102 66.64664 L 143.15746 61.86736 L 146.03388 57.08809 L 148.91033 52.3088 L 151.78675 47.52953 L 154.66318 42.75034 L 157.5396 37.97107 L 160.41603 33.19177 L 163.29247 28.4125 L 166.1689 23.63322 L 166.16588 21.60936 L 164.77127 19.8444 L 163.37667 18.77017 L 161.98206 17.93213 L 160.58745 17.22745 L 159.19283 16.61221 L 157.79824 16.06282 L 156.40361 15.56471 L 155.00902 15.10828 L 153.61441 14.6867 L 152.2198 14.29492 L 150.8252 13.92897 L 149.43058 13.58612 L 148.03598 13.26382 L 146.64136 12.9601 L 145.24677 12.67336 L 143.85214 12.40216 L 142.45754 12.1454 L 141.06295 11.90207 L 139.66832 11.6713 L 138.27373 11.45233 L 136.8791 11.24454 L 135.48451 11.0473 L 134.08989 10.86014 L 132.69528 10.68259 L 131.30066 10.51422 L 129.90607 10.35472 L 128.51146 10.20369 L 127.11685 10.06088 L 125.72224 9.92601 L 124.32762 9.79886 L 122.93303 9.67917 L 121.5384 9.56674 L 120.1438 9.46144 L 118.74919 9.36305 L 117.35458 9.27147 L 115.95998 9.18654 L 114.56537 9.10812 L 113.17076 9.03613 L 111.77614 8.97049 L 110.38155 8.91104 L 108.98692 8.85777 L 107.59232 8.8106 L 106.19771 8.76944 L 104.8031 8.73424 L 103.4085 8.705 L 102.01389 8.68163 L 100.61928 8.66415 L 99.22467 8.6525 L 97.83006 8.64668 L 96.43544 8.6467 L 95.04083 8.65251 L 93.64622 8.66418 L 92.25162 8.68169 L 90.85701 8.70506 L 89.4624 8.73433 L 88.0678 8.76953 L 86.67319 8.8107 L 85.27858 8.8579 L 83.88396 8.9112 L 82.48935 8.97063 L 81.09474 9.03632 L 79.70013 9.10832 L 78.30554 9.18675 L 76.91092 9.2717 L 75.51631 9.3633 L 74.1217 9.4617 L 72.7271 9.56702 L 71.33247 9.67946 L 69.93787 9.79918 L 68.54326 9.92635 L 67.14865 10.06123 L 65.75406 10.20407 L 64.35944 10.3551 L 62.96483 10.51465 L 61.57022 10.68303 L 60.17561 10.86061 L 58.78099 11.0478 L 57.3864 11.24504 L 55.99178 11.45288 L 54.59718 11.67188 L 53.20258 11.90268 L 51.80795 12.14606 L 50.41336 12.40285 L 49.01874 12.67406 L 47.62415 12.96086 L 46.22952 13.26463 L 44.83493 13.58698 L 43.4403 13.92989 L 42.0457 14.29588 L 40.65111 14.68774 L 39.25648 15.1094 L 37.8619 15.56593 L 36.46727 16.06415 L 35.07266 16.61372 L 33.67805 17.22913 L 32.28345 17.9341 L 30.88884 18.77258 L 29.49423 19.84766 L 28.09964 21.61665 Z " fill="#cccce6"/>
</g>
<clipPath id="cp1">
<path transform="matrix(1,0,0,-1,.199,174.48)" d="M 0 0 L 194.26912 0 L 194.26912 161.3915 L 0 161.3915 Z "/>
</clipPath>
<g clip-path="url(#cp1)">
<path transform="matrix(1,0,0,-1,.199,174.48)" d="M 28.09964 23.63235 L 30.97606 28.41153 L 33.8525 33.19083 L 36.72891 37.9701 L 39.60535 42.74937 L 42.48178 47.52864 L 45.35822 52.30785 L 48.23463 57.08711 L 51.11107 61.86641 L 53.98749 66.64568 L 56.86394 71.42496 L 59.74036 76.20415 L 62.61679 80.98344 L 65.49323 85.76271 L 68.36966 90.54198 L 71.24608 95.32123 L 74.12251 100.1005 L 76.99896 104.87976 L 79.87538 109.65903 L 82.75182 114.43828 L 85.62825 119.21756 L 88.50468 123.99681 L 91.3811 128.77608 L 94.25755 133.55535 L 97.13397 138.33461 L 166.16588 21.60936 L 164.77127 19.8444 L 163.37667 18.77017 L 161.98206 17.93213 L 160.58745 17.22745 L 159.19283 16.61221 L 157.79824 16.06282 L 156.40361 15.56471 L 155.00902 15.10828 L 153.61441 14.6867 L 152.2198 14.29492 L 150.8252 13.92897 L 149.43058 13.58612 L 148.03598 13.26382 L 146.64136 12.9601 L 145.24677 12.67336 L 143.85214 12.40216 L 142.45754 12.1454 L 141.06295 11.90207 L 139.66832 11.6713 L 138.27373 11.45233 L 136.8791 11.24454 L 135.48451 11.0473 L 134.08989 10.86014 L 132.69528 10.68259 L 131.30066 10.51422 L 129.90607 10.35472 L 128.51146 10.20369 L 127.11685 10.06088 L 125.72224 9.92601 L 124.32762 9.79886 L 122.93303 9.67917 L 121.5384 9.56674 L 120.1438 9.46144 L 118.74919 9.36305 L 117.35458 9.27147 L 115.95998 9.18654 L 114.56537 9.10812 L 113.17076 9.03613 L 111.77614 8.97049 L 110.38155 8.91104 L 108.98692 8.85777 L 107.59232 8.8106 L 106.19771 8.76944 L 104.8031 8.73424 L 103.4085 8.705 L 102.01389 8.68163 L 100.61928 8.66415 L 99.22467 8.6525 L 97.83006 8.64668 L 96.43544 8.6467 L 95.04083 8.65251 L 93.64622 8.66418 L 92.25162 8.68169 L 90.85701 8.70506 L 89.4624 8.73433 L 88.0678 8.76953 L 86.67319 8.8107 L 85.27858 8.8579 L 83.88396 8.9112 L 82.48935 8.97063 L 81.09474 9.03632 L 79.70013 9.10832 L 78.30554 9.18675 L 76.91092 9.2717 L 75.51631 9.3633 L 74.1217 9.4617 L 72.7271 9.56702 L 71.33247 9.67946 L 69.93787 9.79918 L 68.54326 9.92635 L 67.14865 10.06123 L 65.75406 10.20407 L 64.35944 10.3551 L 62.96483 10.51465 L 61.57022 10.68303 L 60.17561 10.86061 L 58.78099 11.0478 L 57.3864 11.24504 L 55.99178 11.45288 L 54.59718 11.67188 L 53.20258 11.90268 L 51.80795 12.14606 L 50.41336 12.40285 L 49.01874 12.67406 L 47.62415 12.96086 L 46.22952 13.26463 L 44.83493 13.58698 L 43.4403 13.92989 L 42.0457 14.29588 L 40.65111 14.68774 L 39.25648 15.1094 L 37.8619 15.56593 L 36.46727 16.06415 L 35.07266 16.61372 L 33.67805 17.22913 L 32.28345 17.9341 L 30.88884 18.77258 L 29.49423 19.84766 L 28.09964 21.61665 Z " fill="#cccce6"/>
</g>
<clipPath id="cp2">
<path transform="matrix(1,0,0,-1,.199,174.48)" d="M 0 0 L 194.26912 0 L 194.26912 161.3915 L 0 161.3915 Z "/>
</clipPath>
<g clip-path="url(#cp2)">
<path transform="matrix(1,0,0,-1,.199,174.48)" d="M 54.67287 65.9667 L 58.2113 62.63185 L 61.74974 61.2411 L 65.28818 60.25304 L 68.82661 59.48967 L 72.36504 58.88118 L 75.90349 58.39166 L 79.44191 58.00002 L 82.98036 57.69284 L 86.51878 57.46132 L 90.05722 57.29959 L 93.59566 57.20393 L 97.1341 57.17212 L 100.67253 57.20392 L 104.21097 57.29955 L 107.74939 57.46127 L 111.28784 57.69276 L 114.82626 57.99992 L 118.36472 58.39156 L 121.90314 58.88103 L 125.44156 59.48949 L 128.98001 60.25282 L 132.51844 61.2408 L 136.05689 62.63136 L 139.5953 65.96095 L 139.59493 22.72888 L 138.73712 21.2053 L 137.87932 20.47237 L 137.02153 19.91637 L 136.16373 19.45433 L 135.30593 19.05363 L 134.44814 18.69731 L 133.59035 18.37523 L 132.73255 18.08072 L 131.87474 17.80914 L 131.01696 17.55711 L 130.15915 17.32202 L 129.30135 17.1019 L 128.44355 16.89511 L 127.58574 16.70036 L 126.72795 16.51659 L 125.87015 16.34288 L 125.01234 16.17847 L 124.15456 16.02272 L 123.29675 15.87506 L 122.43896 15.73499 L 121.58116 15.6021 L 120.72336 15.47598 L 119.86555 15.35635 L 119.00777 15.24286 L 118.14996 15.13528 L 117.29216 15.03337 L 116.43436 14.93689 L 115.57655 14.84567 L 114.71878 14.75954 L 113.86098 14.67833 L 113.00317 14.60188 L 112.14537 14.53012 L 111.28757 14.46288 L 110.42978 14.40009 L 109.57198 14.34161 L 108.71417 14.28738 L 107.85637 14.23735 L 106.99858 14.1914 L 106.14078 14.14949 L 105.28297 14.11156 L 104.42519 14.07758 L 103.56738 14.04745 L 102.7096 14.0212 L 101.85179 13.99873 L 100.99399 13.98007 L 100.13618 13.96516 L 99.27838 13.95401 L 98.4206 13.94656 L 97.56279 13.94286 L 96.70499 13.94286 L 95.84718 13.94658 L 94.9894 13.95401 L 94.1316 13.96518 L 93.2738 13.9801 L 92.416 13.99876 L 91.5582 14.02124 L 90.70041 14.0475 L 89.8426 14.07762 L 88.9848 14.11162 L 88.127 14.14955 L 87.2692 14.19147 L 86.4114 14.23743 L 85.5536 14.28746 L 84.6958 14.34169 L 83.83803 14.40018 L 82.98022 14.46297 L 82.12242 14.53023 L 81.26462 14.602 L 80.40681 14.67845 L 79.54903 14.75966 L 78.69122 14.84581 L 77.83342 14.93703 L 76.97562 15.03352 L 76.11781 15.13545 L 75.26003 15.24303 L 74.40224 15.35654 L 73.54443 15.47618 L 72.68663 15.6023 L 71.82884 15.7352 L 70.97104 15.87527 L 70.11324 16.02295 L 69.25543 16.17873 L 68.39763 16.34314 L 67.53984 16.51686 L 66.68204 16.70065 L 65.82423 16.89542 L 64.96643 17.10222 L 64.10864 17.32237 L 63.25085 17.55746 L 62.39305 17.80956 L 61.53525 18.08115 L 60.67746 18.3757 L 59.81966 18.69785 L 58.96185 19.05421 L 58.10405 19.45499 L 57.24626 19.91713 L 56.38846 20.47331 L 55.53065 21.20668 L 54.67287 22.73685 Z " fill="#808080"/>
</g>
<clipPath id="cp3">
<path transform="matrix(1,0,0,-1,.199,174.48)" d="M 0 0 L 194.26912 0 L 194.26912 161.3915 L 0 161.3915 Z "/>
</clipPath>
<g clip-path="url(#cp3)">
<path transform="matrix(1,0,0,-1,.199,174.48)" d="M 54.67287 66.60484 L 58.2113 69.9397 L 61.74974 71.33046 L 65.28818 72.31853 L 68.82661 73.0819 L 72.36504 73.69038 L 75.90349 74.1799 L 79.44191 74.57155 L 82.98036 74.87872 L 86.51878 75.11024 L 90.05722 75.27197 L 93.59566 75.36763 L 97.1341 75.39943 L 100.67253 75.36765 L 104.21097 75.272 L 107.74939 75.11029 L 111.28784 74.8788 L 114.82626 74.57164 L 118.36472 74.18001 L 121.90314 73.69054 L 125.44156 73.08208 L 128.98001 72.31874 L 132.51844 71.33076 L 136.05689 69.94019 L 139.5953 66.61061 L 139.59493 65.95874 L 138.73712 64.43518 L 137.87932 63.70222 L 137.02153 63.14622 L 136.16373 62.68419 L 135.30593 62.28351 L 134.44814 61.92719 L 133.59035 61.6051 L 132.73255 61.3106 L 131.87474 61.03902 L 131.01696 60.78697 L 130.15915 60.5519 L 129.30135 60.33177 L 128.44355 60.12497 L 127.58574 59.93024 L 126.72795 59.74646 L 125.87015 59.57274 L 125.01234 59.40834 L 124.15456 59.2526 L 123.29675 59.10492 L 122.43896 58.96486 L 121.58116 58.83197 L 120.72336 58.70586 L 119.86555 58.58621 L 119.00777 58.47273 L 118.14996 58.36516 L 117.29216 58.26323 L 116.43436 58.16676 L 115.57655 58.07553 L 114.71878 57.9894 L 113.86098 57.90819 L 113.00317 57.83176 L 112.14537 57.75998 L 111.28757 57.69275 L 110.42978 57.62994 L 109.57198 57.57149 L 108.71417 57.51726 L 107.85637 57.46721 L 106.99858 57.42126 L 106.14078 57.37936 L 105.28297 57.34143 L 104.42519 57.30743 L 103.56738 57.27733 L 102.7096 57.25105 L 101.85179 57.2286 L 100.99399 57.20993 L 100.13618 57.19504 L 99.27838 57.18387 L 98.4206 57.17642 L 97.56279 57.17271 L 96.70499 57.17271 L 95.84718 57.17644 L 94.9894 57.18387 L 94.1316 57.19505 L 93.2738 57.20996 L 92.416 57.22864 L 91.5582 57.2511 L 90.70041 57.27737 L 89.8426 57.30748 L 88.9848 57.34149 L 88.127 57.37943 L 87.2692 57.42133 L 86.4114 57.46729 L 85.5536 57.51735 L 84.6958 57.57158 L 83.83803 57.63004 L 82.98022 57.69286 L 82.12242 57.76009 L 81.26462 57.83188 L 80.40681 57.90831 L 79.54903 57.98952 L 78.69122 58.07567 L 77.83342 58.1669 L 76.97562 58.26338 L 76.11781 58.36531 L 75.26003 58.4729 L 74.40224 58.5864 L 73.54443 58.70605 L 72.68663 58.83217 L 71.82884 58.96506 L 70.97104 59.10515 L 70.11324 59.25282 L 69.25543 59.4086 L 68.39763 59.573 L 67.53984 59.74673 L 66.68204 59.93053 L 65.82423 60.12527 L 64.96643 60.33208 L 64.10864 60.55225 L 63.25085 60.78734 L 62.39305 61.03941 L 61.53525 61.31102 L 60.67746 61.60558 L 59.81966 61.92772 L 58.96185 62.28407 L 58.10405 62.68484 L 57.24626 63.14699 L 56.38846 63.70319 L 55.53065 64.43654 L 54.67287 65.9667 Z " fill="#9f9f9f"/>
</g>
<clipPath id="cp4">
<path transform="matrix(1,0,0,-1,.199,174.48)" d="M 0 0 L 194.26912 0 L 194.26912 161.3915 L 0 161.3915 Z "/>
</clipPath>
<g clip-path="url(#cp4)">
<path transform="matrix(1,0,0,-1,.199,174.48)" d="M 59.148 66.4698 L 62.3135 68.86678 L 65.47902 69.85123 L 68.64453 70.55045 L 71.81003 71.09058 L 74.97554 71.52107 L 78.14107 71.86737 L 81.30658 72.14444 L 84.47208 72.36174 L 87.63759 72.52553 L 90.8031 72.63994 L 93.96861 72.70761 L 97.13412 72.73001 L 100.29964 72.70763 L 103.46515 72.63997 L 106.63066 72.52557 L 109.79617 72.3618 L 112.96169 72.1445 L 116.1272 71.86746 L 119.2927 71.52118 L 122.4582 71.0907 L 125.62373 70.55061 L 128.78923 69.85144 L 131.95475 68.8671 L 135.12026 66.47462 L 135.11652 66.0765 L 134.34917 64.98071 L 133.5818 64.46133 L 132.81446 64.06761 L 132.0471 63.7406 L 131.27974 63.45702 L 130.51238 63.20494 L 129.74501 62.97705 L 128.97766 62.76869 L 128.2103 62.57655 L 127.44293 62.39824 L 126.67558 62.23195 L 125.90822 62.07623 L 125.14087 61.92995 L 124.3735 61.7922 L 123.60614 61.66222 L 122.83879 61.53934 L 122.07143 61.42303 L 121.30408 61.31287 L 120.53671 61.20844 L 119.76936 61.10934 L 119.002 61.01535 L 118.23462 60.92616 L 117.46727 60.84154 L 116.6999 60.76126 L 115.93256 60.68518 L 115.16519 60.6131 L 114.39783 60.54486 L 113.63048 60.48033 L 112.86311 60.41942 L 112.09576 60.36197 L 111.3284 60.30792 L 110.56105 60.25717 L 109.79369 60.2096 L 109.02632 60.16519 L 108.25897 60.12384 L 107.49161 60.0855 L 106.72423 60.05011 L 105.95688 60.01761 L 105.18953 59.98799 L 104.42216 59.96115 L 103.6548 59.93712 L 102.88745 59.91582 L 102.12009 59.89725 L 101.35272 59.88138 L 100.58537 59.86818 L 99.81801 59.85764 L 99.05066 59.84975 L 98.2833 59.8445 L 97.51593 59.84189 L 96.74858 59.84189 L 95.98122 59.84453 L 95.21385 59.8498 L 94.44649 59.8577 L 93.67912 59.86824 L 92.91177 59.88147 L 92.14441 59.89735 L 91.37706 59.91594 L 90.6097 59.93724 L 89.84235 59.9613 L 89.07498 59.98816 L 88.30762 60.01779 L 87.54027 60.0503 L 86.7729 60.08572 L 86.00554 60.12408 L 85.23819 60.16545 L 84.47083 60.20987 L 83.70348 60.25746 L 82.9361 60.30824 L 82.16875 60.3623 L 81.40138 60.41977 L 80.63402 60.48071 L 79.86667 60.54524 L 79.0993 60.61351 L 78.33195 60.68562 L 77.56459 60.76173 L 76.79723 60.84204 L 76.02988 60.92668 L 75.26251 61.0159 L 74.49516 61.10992 L 73.7278 61.20903 L 72.96045 61.31352 L 72.19308 61.42372 L 71.4257 61.54005 L 70.65836 61.66296 L 69.89099 61.793 L 69.12363 61.9308 L 68.35628 62.07713 L 67.58893 62.23291 L 66.82156 62.39928 L 66.0542 62.57765 L 65.28685 62.76988 L 64.51949 62.97835 L 63.75212 63.20638 L 62.98477 63.45862 L 62.21742 63.7424 L 61.45006 64.06975 L 60.68271 64.46394 L 59.91536 64.9845 L 59.148 66.10175 Z " fill="#cccce6"/>
</g>
<clipPath id="cp5">
<path transform="matrix(1,0,0,-1,.199,174.48)" d="M 0 0 L 194.26912 0 L 194.26912 161.3915 L 0 161.3915 Z "/>
</clipPath>
<g clip-path="url(#cp5)">
<path transform="matrix(1,0,0,-1,.199,174.48)" stroke-width="1.19553" stroke-linecap="butt" stroke-miterlimit="10" stroke-linejoin="miter" fill="none" stroke="#000080" d="M 97.13455 138.33556 C 97.13455 138.33556 99.22324 134.86515 100.02544 133.53226 C 100.82765 132.19936 102.11414 130.06186 102.91634 128.72896 C 103.71855 127.39607 105.00504 125.25856 105.80724 123.92567 C 106.60945 122.59277 107.89594 120.45526 108.69814 119.12236 C 109.50035 117.78946 110.78682 115.65195 111.58904 114.31905 C 112.39125 112.98616 113.67772 110.84865 114.47993 109.51576 C 115.28215 108.18286 116.56862 106.04536 117.37083 104.71246 C 118.17305 103.37958 119.45952 101.24205 120.26173 99.90916 C 121.06395 98.57626 122.35042 96.43877 123.15263 95.10587 C 123.95483 93.77296 125.2413 91.63547 126.04352 90.30257 C 126.84572 88.96968 128.1322 86.83215 128.93442 85.49927 C 129.73662 84.16637 131.0231 82.02885 131.82532 80.69597 C 132.62752 79.3631 133.914 77.22559 134.71622 75.8927 C 135.51842 74.55983 136.8049 72.4223 137.60712 71.08942 C 138.40932 69.75652 139.6958 67.61894 140.49802 66.28604 C 141.30022 64.95316 142.5867 62.81564 143.38892 61.48276 C 144.19112 60.14986 145.47759 58.01234 146.2798 56.67946 C 147.082 55.34657 148.36849 53.20906 149.1707 51.87617 C 149.9729 50.5433 151.25939 48.40578 152.0616 47.07289 C 152.8638 45.73999 154.15029 43.6025 154.9525 42.26959 C 155.7547 40.9367 157.04119 38.79918 157.8434 37.46631 C 158.6456 36.13342 159.93209 33.9959 160.7343 32.66302 C 161.5365 31.33014 162.82297 29.19263 163.62519 27.85973 C 164.42739 26.52684 166.51609 23.05644 166.51609 23.05644 "/>
<path transform="matrix(1,0,0,-1,.199,174.48)" stroke-width="1.19553" stroke-linecap="butt" stroke-miterlimit="10" stroke-linejoin="miter" fill="none" stroke="#000080" d="M 27.75273 23.05592 C 27.75273 23.05592 29.8414 26.52632 30.64362 27.85919 C 31.44582 29.19208 32.7323 31.3296 33.53452 32.66249 C 34.33672 33.99539 35.6232 36.1329 36.4254 37.46579 C 37.22762 38.79866 38.5141 40.93617 39.3163 42.26906 C 40.11852 43.60196 41.405 45.73955 42.2072 47.07245 C 43.00941 48.40533 44.2959 50.54286 45.0981 51.87575 C 45.90031 53.20862 47.18678 55.34615 47.98898 56.67902 C 48.7912 58.0119 50.07768 60.14941 50.87988 61.48232 C 51.6821 62.8152 52.96858 64.95271 53.77078 66.2856 C 54.573 67.6185 55.85948 69.75601 56.66168 71.0889 C 57.4639 72.42178 58.75038 74.5593 59.55258 75.89218 C 60.3548 77.22505 61.64128 79.36258 62.44348 80.69547 C 63.2457 82.02837 64.53218 84.1659 65.33438 85.4988 C 66.1366 86.83168 67.42307 88.9692 68.22527 90.30208 C 69.02748 91.63498 70.31396 93.77249 71.11617 95.10538 C 71.91838 96.43828 73.20486 98.57579 74.00706 99.90869 C 74.80928 101.24158 76.09576 103.37909 76.89796 104.71198 C 77.70018 106.04488 78.98666 108.18239 79.78886 109.51529 C 80.59108 110.84818 81.87756 112.98569 82.67976 114.31859 C 83.48198 115.65147 84.76846 117.78899 85.57066 119.12187 C 86.37288 120.45477 87.65936 122.59229 88.46156 123.92519 C 89.26378 125.25807 90.55026 127.39558 91.35246 128.72847 C 92.15468 130.06137 93.44115 132.19887 94.24335 133.53177 C 95.04556 134.86467 97.13425 138.33509 97.13425 138.33509 "/>
<path transform="matrix(1,0,0,-1,.199,174.48)" stroke-width="1.19553" stroke-linecap="butt" stroke-dasharray="2.98883,2.98883" stroke-miterlimit="10" stroke-linejoin="miter" fill="none" stroke="#000080" d="M 28.09964 24.49516 C 28.09964 24.49516 29.10724 25.86958 29.49423 26.26418 C 29.88123 26.65877 30.50185 27.07376 30.88884 27.33925 C 31.27585 27.60474 31.89645 27.96358 32.28345 28.17772 C 32.67044 28.39188 33.29106 28.69951 33.67805 28.8827 C 34.06506 29.0659 34.68567 29.33649 35.07266 29.49811 C 35.45966 29.65973 36.08028 29.9023 36.46727 30.04767 C 36.85426 30.19305 37.47488 30.41344 37.8619 30.54588 C 38.24889 30.67834 38.86949 30.88057 39.25648 31.00243 C 39.64348 31.12427 40.2641 31.31122 40.65111 31.42407 C 41.0381 31.53694 41.6587 31.71078 42.0457 31.81593 C 42.4327 31.9211 43.05331 32.08359 43.4403 32.18195 C 43.82732 32.2803 44.44794 32.43256 44.83493 32.52486 C 45.22192 32.61714 45.84253 32.76033 46.22952 32.8472 C 46.61653 32.93407 47.23715 33.06903 47.62415 33.15096 C 48.01114 33.2329 48.63174 33.36034 49.01874 33.43776 C 49.40573 33.51518 50.02635 33.63573 50.41336 33.70898 C 50.80035 33.78224 51.42096 33.8964 51.80795 33.96577 C 52.19495 34.03516 52.81557 34.14336 53.20258 34.20914 C 53.58957 34.27492 54.21019 34.37755 54.59718 34.43996 C 54.98418 34.50235 55.60478 34.59975 55.99178 34.65895 C 56.37878 34.71817 56.9994 34.81058 57.3864 34.86678 C 57.77339 34.92297 58.394 35.0107 58.78099 35.06403 C 59.168 35.11736 59.78862 35.2006 60.17561 35.25122 C 60.5626 35.30183 61.18323 35.3808 61.57022 35.4288 C 61.95721 35.47679 62.57782 35.55168 62.96483 35.59717 C 63.35182 35.64265 63.97244 35.71364 64.35944 35.75671 C 64.74643 35.7998 65.36705 35.86697 65.75406 35.90775 C 66.14105 35.94852 66.76166 36.01207 67.14865 36.05058 C 67.53564 36.08911 68.15627 36.14912 68.54326 36.18547 C 68.93027 36.22182 69.55087 36.2784 69.93787 36.31265 C 70.32486 36.34691 70.94548 36.40018 71.33247 36.43237 C 71.71948 36.46457 72.3401 36.5146 72.7271 36.5448 C 73.11409 36.57501 73.73471 36.62186 74.1217 36.65012 C 74.5087 36.67839 75.1293 36.72217 75.51631 36.74852 C 75.9033 36.77489 76.52393 36.81564 76.91092 36.84013 C 77.29791 36.86462 77.91853 36.90242 78.30554 36.92508 C 78.69254 36.94775 79.31314 36.98265 79.70013 37.00351 C 80.08713 37.02437 80.70775 37.05641 81.09474 37.0755 C 81.48175 37.0946 82.10236 37.12383 82.48935 37.14119 C 82.87634 37.15855 83.49696 37.185 83.88396 37.20064 C 84.27097 37.21626 84.89159 37.23999 85.27858 37.25394 C 85.66557 37.26787 86.2862 37.28888 86.67319 37.30113 C 87.06018 37.31339 87.68079 37.33173 88.0678 37.3423 C 88.45479 37.35287 89.07541 37.36855 89.4624 37.37749 C 89.8494 37.38643 90.47 37.39948 90.85701 37.40677 C 91.244 37.41406 91.86462 37.42447 92.25162 37.43013 C 92.63861 37.4358 93.25923 37.4436 93.64622 37.44765 C 94.03323 37.45169 94.65384 37.4569 95.04083 37.4593 C 95.42783 37.46173 96.04845 37.46432 96.43544 37.46513 C 96.82245 37.46594 97.44307 37.46596 97.83006 37.46515 C 98.21706 37.46434 98.83768 37.46175 99.22467 37.45932 C 99.61166 37.45691 100.23227 37.4517 100.61928 37.44768 C 101.00627 37.44365 101.62689 37.43585 102.01389 37.43019 C 102.40088 37.42455 103.02148 37.41412 103.4085 37.40683 C 103.79549 37.39954 104.4161 37.38652 104.8031 37.37758 C 105.1901 37.36864 105.81071 37.35297 106.19771 37.34239 C 106.58472 37.3318 107.20532 37.31349 107.59232 37.30124 C 107.97931 37.28899 108.59993 37.26797 108.98692 37.25406 C 109.37393 37.24013 109.99455 37.21642 110.38155 37.20079 C 110.76854 37.18515 111.38914 37.15869 111.77614 37.14134 C 112.16313 37.124 112.78375 37.09479 113.17076 37.07568 C 113.55775 37.0566 114.17838 37.02457 114.56537 37.00371 C 114.95236 36.98285 115.57297 36.94795 115.95998 36.9253 C 116.34697 36.90265 116.96759 36.86485 117.35458 36.84036 C 117.74158 36.81587 118.3622 36.77512 118.74919 36.74876 C 119.1362 36.72243 119.7568 36.67863 120.1438 36.65038 C 120.53079 36.62212 121.15141 36.57529 121.5384 36.54507 C 121.92542 36.51488 122.54604 36.46486 122.93303 36.43266 C 123.32002 36.40047 123.94063 36.34721 124.32762 36.31297 C 124.71461 36.27873 125.33524 36.22215 125.72224 36.1858 C 126.10924 36.14946 126.72986 36.08946 127.11685 36.05093 C 127.50385 36.01242 128.12445 35.94888 128.51146 35.90813 C 128.89846 35.86737 129.51908 35.8002 129.90607 35.75711 C 130.29306 35.71404 130.91367 35.64308 131.30066 35.5976 C 131.68767 35.55211 132.30829 35.47723 132.69528 35.42923 C 133.08228 35.38124 133.7029 35.30229 134.08989 35.2517 C 134.4769 35.2011 135.09752 35.11786 135.48451 35.06453 C 135.8715 35.0112 136.49211 34.92348 136.8791 34.8673 C 137.2661 34.81111 137.88672 34.7187 138.27373 34.6595 C 138.66072 34.60028 139.28133 34.50291 139.66832 34.44054 C 140.05532 34.37814 140.67594 34.27554 141.06295 34.20976 C 141.44994 34.14398 142.07054 34.03581 142.45754 33.96643 C 142.84453 33.89705 143.46515 33.78291 143.85214 33.70967 C 144.23915 33.63643 144.85977 33.51588 145.24677 33.43848 C 145.63376 33.36107 146.25437 33.23364 146.64136 33.15172 C 147.02837 33.0698 147.64899 32.93484 148.03598 32.848 C 148.42298 32.76115 149.04358 32.61798 149.43058 32.52571 C 149.81757 32.43343 150.43819 32.28119 150.8252 32.18286 C 151.21219 32.08452 151.83281 31.92203 152.2198 31.81691 C 152.6068 31.71179 153.2274 31.53796 153.61441 31.42513 C 154.0014 31.31229 154.62203 31.12537 155.00902 31.00354 C 155.39601 30.88173 156.01662 30.67955 156.40361 30.54712 C 156.79062 30.4147 157.41124 30.19435 157.79824 30.04901 C 158.18523 29.90369 158.80583 29.6612 159.19283 29.49962 C 159.57984 29.33803 160.20046 29.0675 160.58745 28.88437 C 160.97444 28.70125 161.59506 28.39375 161.98206 28.1797 C 162.36905 27.96565 162.98966 27.60696 163.37667 27.34164 C 163.76366 27.07632 164.38428 26.66135 164.77127 26.26741 C 165.15827 25.87349 166.16588 24.50247 166.16588 24.50247 "/>
<path transform="matrix(1,0,0,-1,.199,174.48)" stroke-width="1.19553" stroke-linecap="butt" stroke-miterlimit="10" stroke-linejoin="miter" fill="none" stroke="#000080" d="M 28.09964 21.61665 C 28.09964 21.61665 29.10724 20.24225 29.49423 19.84766 C 29.88123 19.45305 30.50185 19.03807 30.88884 18.77258 C 31.27585 18.5071 31.89645 18.14825 32.28345 17.9341 C 32.67044 17.71996 33.29106 17.41232 33.67805 17.22913 C 34.06506 17.04593 34.68567 16.77534 35.07266 16.61372 C 35.45966 16.45209 36.08028 16.20953 36.46727 16.06415 C 36.85426 15.91878 37.47488 15.6984 37.8619 15.56593 C 38.24889 15.43349 38.86949 15.23125 39.25648 15.1094 C 39.64348 14.98756 40.2641 14.80061 40.65111 14.68774 C 41.0381 14.57489 41.6587 14.40105 42.0457 14.29588 C 42.4327 14.19073 43.05331 14.02824 43.4403 13.92989 C 43.82732 13.83153 44.44794 13.67926 44.83493 13.58698 C 45.22192 13.49467 45.84253 13.3515 46.22952 13.26463 C 46.61653 13.17776 47.23715 13.0428 47.62415 12.96086 C 48.01114 12.87892 48.63174 12.7515 49.01874 12.67406 C 49.40573 12.59663 50.02635 12.4761 50.41336 12.40285 C 50.80035 12.32959 51.42096 12.21544 51.80795 12.14606 C 52.19495 12.07668 52.81557 11.96846 53.20258 11.90268 C 53.58957 11.8369 54.21019 11.73428 54.59718 11.67188 C 54.98418 11.60947 55.60478 11.51208 55.99178 11.45288 C 56.37878 11.39366 56.9994 11.30125 57.3864 11.24504 C 57.77339 11.18884 58.394 11.10114 58.78099 11.0478 C 59.168 10.99448 59.78862 10.91121 60.17561 10.86061 C 60.5626 10.81 61.18323 10.73102 61.57022 10.68303 C 61.95721 10.63504 62.57782 10.56013 62.96483 10.51465 C 63.35182 10.46916 63.97244 10.3982 64.35944 10.3551 C 64.74643 10.31203 65.36705 10.24484 65.75406 10.20407 C 66.14105 10.1633 66.76166 10.09976 67.14865 10.06123 C 67.53564 10.02272 68.15627 9.9627 68.54326 9.92635 C 68.93027 9.89 69.55087 9.83342 69.93787 9.79918 C 70.32486 9.76492 70.94548 9.71165 71.33247 9.67946 C 71.71948 9.64726 72.3401 9.59723 72.7271 9.56702 C 73.11409 9.53682 73.73471 9.48996 74.1217 9.4617 C 74.5087 9.43344 75.1293 9.38966 75.51631 9.3633 C 75.9033 9.33694 76.52393 9.29619 76.91092 9.2717 C 77.29791 9.24721 77.91853 9.20941 78.30554 9.18675 C 78.69254 9.16408 79.31314 9.12918 79.70013 9.10832 C 80.08713 9.08746 80.70775 9.05542 81.09474 9.03632 C 81.48175 9.01723 82.10236 8.98799 82.48935 8.97063 C 82.87634 8.95328 83.49696 8.92682 83.88396 8.9112 C 84.27097 8.89557 84.89159 8.87184 85.27858 8.8579 C 85.66557 8.84396 86.2862 8.82295 86.67319 8.8107 C 87.06018 8.79845 87.68079 8.7801 88.0678 8.76953 C 88.45479 8.75894 89.07541 8.74327 89.4624 8.73433 C 89.8494 8.7254 90.47 8.71236 90.85701 8.70506 C 91.244 8.69775 91.86462 8.68736 92.25162 8.68169 C 92.63861 8.67603 93.25923 8.66823 93.64622 8.66418 C 94.03323 8.66014 94.65384 8.65494 95.04083 8.65251 C 95.42783 8.6501 96.04845 8.6475 96.43544 8.6467 C 96.82245 8.64589 97.44307 8.64587 97.83006 8.64668 C 98.21706 8.64749 98.83768 8.65009 99.22467 8.6525 C 99.61166 8.65492 100.23227 8.66013 100.61928 8.66415 C 101.00627 8.66818 101.62689 8.67598 102.01389 8.68163 C 102.40088 8.68729 103.02148 8.6977 103.4085 8.705 C 103.79549 8.7123 104.4161 8.72531 104.8031 8.73424 C 105.1901 8.74318 105.81071 8.75885 106.19771 8.76944 C 106.58472 8.78001 107.20532 8.79834 107.59232 8.8106 C 107.97931 8.82285 108.59993 8.84386 108.98692 8.85777 C 109.37393 8.8717 109.99455 8.89542 110.38155 8.91104 C 110.76854 8.92667 111.38914 8.95314 111.77614 8.97049 C 112.16313 8.98782 112.78375 9.01704 113.17076 9.03613 C 113.55775 9.05524 114.17838 9.08727 114.56537 9.10812 C 114.95236 9.12898 115.57297 9.16388 115.95998 9.18654 C 116.34697 9.20918 116.96759 9.24698 117.35458 9.27147 C 117.74158 9.29596 118.3622 9.33672 118.74919 9.36305 C 119.1362 9.3894 119.7568 9.43318 120.1438 9.46144 C 120.53079 9.4897 121.15141 9.53654 121.5384 9.56674 C 121.92542 9.59695 122.54604 9.64697 122.93303 9.67917 C 123.32002 9.71136 123.94063 9.76462 124.32762 9.79886 C 124.71461 9.83308 125.33524 9.88966 125.72224 9.92601 C 126.10924 9.96237 126.72986 10.02237 127.11685 10.06088 C 127.50385 10.09941 128.12445 10.16293 128.51146 10.20369 C 128.89846 10.24446 129.51908 10.31163 129.90607 10.35472 C 130.29306 10.3978 130.91367 10.46875 131.30066 10.51422 C 131.68767 10.55971 132.30829 10.6346 132.69528 10.68259 C 133.08228 10.73058 133.7029 10.80954 134.08989 10.86014 C 134.4769 10.91072 135.09752 10.99397 135.48451 11.0473 C 135.8715 11.10063 136.49211 11.18834 136.8791 11.24454 C 137.2661 11.30072 137.88672 11.39311 138.27373 11.45233 C 138.66072 11.51154 139.28133 11.6089 139.66832 11.6713 C 140.05532 11.73369 140.67594 11.83629 141.06295 11.90207 C 141.44994 11.96783 142.07054 12.07602 142.45754 12.1454 C 142.84453 12.21478 143.46515 12.32892 143.85214 12.40216 C 144.23915 12.4754 144.85977 12.59595 145.24677 12.67336 C 145.63376 12.75076 146.25437 12.87817 146.64136 12.9601 C 147.02837 13.04202 147.64899 13.17697 148.03598 13.26382 C 148.42298 13.35068 149.04358 13.49385 149.43058 13.58612 C 149.81757 13.67839 150.43819 13.83063 150.8252 13.92897 C 151.21219 14.02731 151.83281 14.18979 152.2198 14.29492 C 152.6068 14.40004 153.2274 14.57385 153.61441 14.6867 C 154.0014 14.79955 154.62203 14.98647 155.00902 15.10828 C 155.39601 15.23009 156.01662 15.43228 156.40361 15.56471 C 156.79062 15.69713 157.41124 15.91748 157.79824 16.06282 C 158.18523 16.20815 158.80583 16.45064 159.19283 16.61221 C 159.57984 16.77379 160.20046 17.04433 160.58745 17.22745 C 160.97444 17.41057 161.59506 17.71808 161.98206 17.93213 C 162.36905 18.14616 162.98966 18.50485 163.37667 18.77017 C 163.76366 19.03549 164.38428 19.45049 164.77127 19.8444 C 165.15827 20.23834 166.16588 21.60936 166.16588 21.60936 "/>
<path transform="matrix(1,0,0,-1,.199,174.48)" stroke-width="1.19553" stroke-linecap="butt" stroke-miterlimit="10" stroke-linejoin="miter" fill="none" stroke="#000080" d="M 54.67287 66.60484 C 54.67287 66.60484 55.29263 67.82095 55.53065 68.13501 C 55.76869 68.44908 56.15044 68.68947 56.38846 68.86838 C 56.6265 69.04729 57.00824 69.28328 57.24626 69.42458 C 57.4843 69.56586 57.86601 69.767 58.10405 69.8867 C 58.34209 70.00642 58.72382 70.18243 58.96185 70.28748 C 59.19989 70.39253 59.58162 70.54971 59.81966 70.64384 C 60.0577 70.73798 60.43942 70.88043 60.67746 70.96599 C 60.9155 71.05154 61.29721 71.18199 61.53525 71.26054 C 61.77327 71.3391 62.15501 71.45949 62.39305 71.53214 C 62.63107 71.6048 63.01282 71.71663 63.25085 71.78423 C 63.48888 71.8518 63.8706 71.95616 64.10864 72.01932 C 64.34666 72.08249 64.72841 72.18025 64.96643 72.23947 C 65.20447 72.2987 65.58621 72.39056 65.82423 72.44629 C 66.06227 72.502 66.44402 72.58853 66.68204 72.64104 C 66.92007 72.69354 67.3018 72.77522 67.53984 72.82483 C 67.77788 72.87444 68.15959 72.95164 68.39763 72.99855 C 68.63567 73.04547 69.0174 73.11855 69.25543 73.16296 C 69.49347 73.20738 69.8752 73.27664 70.11324 73.31874 C 70.35127 73.36084 70.733 73.42648 70.97104 73.46642 C 71.20908 73.50633 71.5908 73.56863 71.82884 73.60649 C 72.06686 73.64436 72.4486 73.70348 72.68663 73.7394 C 72.92465 73.77531 73.3064 73.8314 73.54443 73.86551 C 73.78246 73.89961 74.1642 73.95284 74.40224 73.98517 C 74.64026 74.0175 75.022 74.068 75.26003 74.09866 C 75.49806 74.12932 75.87979 74.17719 76.11781 74.20625 C 76.35585 74.2353 76.7376 74.28065 76.97562 74.30818 C 77.21365 74.3357 77.59538 74.37862 77.83342 74.40466 C 78.07146 74.43071 78.45319 74.4713 78.69122 74.4959 C 78.92926 74.5205 79.31099 74.55882 79.54903 74.58203 C 79.78706 74.60526 80.16878 74.64139 80.40681 74.66325 C 80.64485 74.6851 81.02658 74.71913 81.26462 74.73969 C 81.50266 74.76024 81.88438 74.79219 82.12242 74.81146 C 82.36044 74.83075 82.74219 74.86067 82.98022 74.87871 C 83.21825 74.89673 83.59999 74.92471 83.83803 74.94151 C 84.07605 74.95833 84.45778 74.98436 84.6958 74.99998 C 84.93384 75.01561 85.31558 75.03975 85.5536 75.05421 C 85.79164 75.06866 86.17339 75.09096 86.4114 75.10428 C 86.64944 75.11758 87.03117 75.13805 87.2692 75.15022 C 87.50723 75.1624 87.88896 75.18108 88.127 75.19214 C 88.36504 75.2032 88.74677 75.2201 88.9848 75.23007 C 89.22284 75.24004 89.60457 75.25519 89.8426 75.26407 C 90.08064 75.27296 90.46237 75.28638 90.70041 75.29419 C 90.93845 75.302 91.32016 75.3137 91.5582 75.32047 C 91.79623 75.32721 92.17796 75.33723 92.416 75.34293 C 92.65402 75.34863 93.03577 75.35695 93.2738 75.3616 C 93.51183 75.36624 93.89357 75.3729 94.1316 75.37651 C 94.36963 75.38013 94.75137 75.38512 94.9894 75.38768 C 95.22743 75.39026 95.60916 75.39359 95.84718 75.39511 C 96.08522 75.39665 96.46696 75.39835 96.70499 75.39883 C 96.94302 75.39934 97.32477 75.39934 97.56279 75.39883 C 97.80083 75.39835 98.18256 75.39667 98.4206 75.39513 C 98.65863 75.3936 99.04034 75.39026 99.27838 75.38768 C 99.51642 75.38512 99.89815 75.38013 100.13618 75.37653 C 100.37422 75.37292 100.75595 75.36627 100.99399 75.36163 C 101.23203 75.35698 101.61375 75.34866 101.85179 75.34296 C 102.08981 75.33727 102.47156 75.32726 102.7096 75.32051 C 102.94762 75.31375 103.32935 75.30205 103.56738 75.29424 C 103.8054 75.28642 104.18715 75.27301 104.42519 75.26411 C 104.66321 75.25523 105.04495 75.2401 105.28297 75.23013 C 105.52101 75.22015 105.90276 75.20326 106.14078 75.1922 C 106.37881 75.18114 106.76056 75.16246 106.99858 75.15028 C 107.23662 75.1381 107.61833 75.11766 107.85637 75.10435 C 108.0944 75.09103 108.47614 75.06876 108.71417 75.0543 C 108.95221 75.03984 109.33394 75.0157 109.57198 75.00008 C 109.81001 74.98445 110.19174 74.95842 110.42978 74.9416 C 110.66782 74.9248 111.04953 74.89684 111.28757 74.87881 C 111.5256 74.86078 111.90733 74.83086 112.14537 74.81157 C 112.38339 74.7923 112.76514 74.76036 113.00317 74.7398 C 113.2412 74.71925 113.62294 74.68523 113.86098 74.66338 C 114.099 74.64151 114.48074 74.60538 114.71878 74.58215 C 114.9568 74.55894 115.33853 74.52063 115.57655 74.49603 C 115.81459 74.47144 116.19633 74.43085 116.43436 74.4048 C 116.6724 74.37875 117.05414 74.33585 117.29216 74.30833 C 117.5302 74.2808 117.91193 74.23546 118.14996 74.20639 C 118.388 74.17734 118.76973 74.12949 119.00777 74.09883 C 119.2458 74.06816 119.62752 74.01768 119.86555 73.98535 C 120.10359 73.95302 120.48532 73.89981 120.72336 73.8657 C 120.9614 73.8316 121.34312 73.77551 121.58116 73.7396 C 121.8192 73.70367 122.20093 73.64456 122.43896 73.60669 C 122.67699 73.56883 123.05872 73.50656 123.29675 73.46664 C 123.53477 73.42671 123.91652 73.36107 124.15456 73.31897 C 124.39258 73.27687 124.77432 73.20764 125.01234 73.16322 C 125.25038 73.1188 125.63213 73.04573 125.87015 72.99881 C 126.10818 72.9519 126.48993 72.8747 126.72795 72.8251 C 126.96599 72.77551 127.34772 72.69383 127.58574 72.64133 C 127.82378 72.58882 128.2055 72.50229 128.44355 72.44658 C 128.68158 72.39088 129.06331 72.29903 129.30135 72.23979 C 129.53939 72.18057 129.92111 72.08282 130.15915 72.01967 C 130.39719 71.95651 130.77892 71.85217 131.01696 71.78459 C 131.25499 71.717 131.6367 71.6052 131.87474 71.53253 C 132.11278 71.45988 132.4945 71.33951 132.73255 71.26097 C 132.97057 71.18243 133.35231 71.052 133.59035 70.96646 C 133.82837 70.88092 134.2101 70.7385 134.44814 70.64438 C 134.68616 70.55026 135.0679 70.39308 135.30593 70.28806 C 135.54396 70.18303 135.9257 70.00706 136.16373 69.88736 C 136.40177 69.76767 136.78351 69.56657 137.02153 69.42532 C 137.25957 69.28409 137.6413 69.04817 137.87932 68.86934 C 138.11736 68.69049 138.49909 68.44946 138.73712 68.13638 C 138.97516 67.8233 139.59493 66.61281 139.59493 66.61281 "/>
<path transform="matrix(1,0,0,-1,.199,174.48)" stroke-width="1.19553" stroke-linecap="butt" stroke-miterlimit="10" stroke-linejoin="miter" fill="none" stroke="#000080" d="M 54.67287 65.9667 C 54.67287 65.9667 55.29263 64.7506 55.53065 64.43654 C 55.76869 64.12248 56.15044 63.8821 56.38846 63.70319 C 56.6265 63.52428 57.00824 63.28827 57.24626 63.14699 C 57.4843 63.0057 57.86601 62.80457 58.10405 62.68484 C 58.34209 62.56514 58.72382 62.38913 58.96185 62.28407 C 59.19989 62.17903 59.58162 62.02185 59.81966 61.92772 C 60.0577 61.83359 60.43942 61.69113 60.67746 61.60558 C 60.9155 61.52002 61.29721 61.38956 61.53525 61.31102 C 61.77327 61.23247 62.15501 61.11206 62.39305 61.03941 C 62.63107 60.96677 63.01282 60.85492 63.25085 60.78734 C 63.48888 60.71976 63.8706 60.6154 64.10864 60.55225 C 64.34666 60.48907 64.72841 60.39131 64.96643 60.33208 C 65.20447 60.27286 65.58621 60.18098 65.82423 60.12527 C 66.06227 60.06956 66.44402 59.98303 66.68204 59.93053 C 66.92007 59.87802 67.3018 59.79634 67.53984 59.74673 C 67.77788 59.69713 68.15959 59.61992 68.39763 59.573 C 68.63567 59.5261 69.0174 59.45302 69.25543 59.4086 C 69.49347 59.36418 69.8752 59.2949 70.11324 59.25282 C 70.35127 59.21072 70.733 59.14507 70.97104 59.10515 C 71.20908 59.06523 71.5908 59.00293 71.82884 58.96506 C 72.06686 58.9272 72.4486 58.86809 72.68663 58.83217 C 72.92465 58.79625 73.3064 58.74014 73.54443 58.70605 C 73.78246 58.67195 74.1642 58.61873 74.40224 58.5864 C 74.64026 58.55406 75.022 58.50356 75.26003 58.4729 C 75.49806 58.44223 75.87979 58.39438 76.11781 58.36531 C 76.35585 58.33624 76.7376 58.2909 76.97562 58.26338 C 77.21365 58.23587 77.59538 58.19293 77.83342 58.1669 C 78.07146 58.14085 78.45319 58.10027 78.69122 58.07567 C 78.92926 58.05107 79.31099 58.01273 79.54903 57.98952 C 79.78706 57.96631 80.16878 57.93018 80.40681 57.90831 C 80.64485 57.88644 81.02658 57.85243 81.26462 57.83188 C 81.50266 57.81133 81.88438 57.77937 82.12242 57.76009 C 82.36044 57.74081 82.74219 57.71088 82.98022 57.69286 C 83.21825 57.67482 83.59999 57.64685 83.83803 57.63004 C 84.07605 57.61322 84.45778 57.5872 84.6958 57.57158 C 84.93384 57.55594 85.31558 57.5318 85.5536 57.51735 C 85.79164 57.50288 86.17339 57.4806 86.4114 57.46729 C 86.64944 57.45396 87.03117 57.4335 87.2692 57.42133 C 87.50723 57.40915 87.88896 57.39049 88.127 57.37943 C 88.36504 57.36835 88.74677 57.35146 88.9848 57.34149 C 89.22284 57.33151 89.60457 57.31638 89.8426 57.30748 C 90.08064 57.29858 90.46237 57.28519 90.70041 57.27737 C 90.93845 57.26956 91.32016 57.25784 91.5582 57.2511 C 91.79623 57.24435 92.17796 57.23433 92.416 57.22864 C 92.65402 57.22293 93.03577 57.21461 93.2738 57.20996 C 93.51183 57.2053 93.89357 57.19867 94.1316 57.19505 C 94.36963 57.19144 94.75137 57.18645 94.9894 57.18387 C 95.22743 57.1813 95.60916 57.17798 95.84718 57.17644 C 96.08522 57.17491 96.46696 57.17322 96.70499 57.17271 C 96.94302 57.17221 97.32477 57.17221 97.56279 57.17271 C 97.80083 57.17322 98.18256 57.1749 98.4206 57.17642 C 98.65863 57.17796 99.04034 57.1813 99.27838 57.18387 C 99.51642 57.18645 99.89815 57.19144 100.13618 57.19504 C 100.37422 57.19864 100.75595 57.20528 100.99399 57.20993 C 101.23203 57.21458 101.61375 57.2229 101.85179 57.2286 C 102.08981 57.2343 102.47156 57.24431 102.7096 57.25105 C 102.94762 57.2578 103.32935 57.26952 103.56738 57.27733 C 103.8054 57.28514 104.18715 57.29854 104.42519 57.30743 C 104.66321 57.31633 105.04495 57.33145 105.28297 57.34143 C 105.52101 57.3514 105.90276 57.36829 106.14078 57.37936 C 106.37881 57.39043 106.76056 57.40909 106.99858 57.42126 C 107.23662 57.43344 107.61833 57.45389 107.85637 57.46721 C 108.0944 57.48053 108.47614 57.50279 108.71417 57.51726 C 108.95221 57.53171 109.33394 57.55585 109.57198 57.57149 C 109.81001 57.58711 110.19174 57.61313 110.42978 57.62994 C 110.66782 57.64676 111.04953 57.67471 111.28757 57.69275 C 111.5256 57.71077 111.90733 57.7407 112.14537 57.75998 C 112.38339 57.77927 112.76514 57.8112 113.00317 57.83176 C 113.2412 57.85231 113.62294 57.88632 113.86098 57.90819 C 114.099 57.93005 114.48074 57.96619 114.71878 57.9894 C 114.9568 58.01262 115.33853 58.05093 115.57655 58.07553 C 115.81459 58.10013 116.19633 58.14072 116.43436 58.16676 C 116.6724 58.1928 117.05414 58.23572 117.29216 58.26323 C 117.5302 58.29074 117.91193 58.33609 118.14996 58.36516 C 118.388 58.39423 118.76973 58.44206 119.00777 58.47273 C 119.2458 58.50339 119.62752 58.55388 119.86555 58.58621 C 120.10359 58.61855 120.48532 58.67175 120.72336 58.70586 C 120.9614 58.73994 121.34312 58.79605 121.58116 58.83197 C 121.8192 58.86789 122.20093 58.927 122.43896 58.96486 C 122.67699 59.00273 123.05872 59.065 123.29675 59.10492 C 123.53477 59.14484 123.91652 59.2105 124.15456 59.2526 C 124.39258 59.2947 124.77432 59.36392 125.01234 59.40834 C 125.25038 59.45276 125.63213 59.52583 125.87015 59.57274 C 126.10818 59.61966 126.48993 59.69687 126.72795 59.74646 C 126.96599 59.79605 127.34772 59.87773 127.58574 59.93024 C 127.82378 59.98274 128.2055 60.06927 128.44355 60.12497 C 128.68158 60.18068 129.06331 60.27254 129.30135 60.33177 C 129.53939 60.39099 129.92111 60.48874 130.15915 60.5519 C 130.39719 60.61504 130.77892 60.71939 131.01696 60.78697 C 131.25499 60.85455 131.6367 60.96637 131.87474 61.03902 C 132.11278 61.11168 132.4945 61.23206 132.73255 61.3106 C 132.97057 61.38913 133.35231 61.51956 133.59035 61.6051 C 133.82837 61.69064 134.2101 61.83307 134.44814 61.92719 C 134.68616 62.0213 135.0679 62.17847 135.30593 62.28351 C 135.54396 62.38853 135.9257 62.5645 136.16373 62.68419 C 136.40177 62.8039 136.78351 63.00499 137.02153 63.14622 C 137.25957 63.28748 137.6413 63.52339 137.87932 63.70222 C 138.11736 63.88106 138.49909 64.12209 138.73712 64.43518 C 138.97516 64.74826 139.59493 65.95874 139.59493 65.95874 "/>
<path transform="matrix(1,0,0,-1,.199,174.48)" stroke-width="1.19553" stroke-linecap="butt" stroke-miterlimit="10" stroke-linejoin="miter" fill="none" stroke="#000080" d="M 60.70909 68.12271 C 60.70909 68.12271 61.24074 68.40344 61.44492 68.49944 C 61.6491 68.59544 61.97656 68.73282 62.18074 68.81464 C 62.38492 68.89645 62.71239 69.01707 62.91656 69.08913 C 63.12074 69.16116 63.44821 69.26918 63.65239 69.33391 C 63.85657 69.39864 64.18405 69.49675 64.38823 69.5557 C 64.5924 69.61465 64.91988 69.70468 65.12405 69.75891 C 65.32823 69.81313 65.6557 69.89636 65.85988 69.94661 C 66.06406 69.99684 66.39153 70.07426 66.5957 70.1211 C 66.79988 70.16792 67.12735 70.24026 67.33153 70.28407 C 67.5357 70.32788 67.86319 70.3958 68.06737 70.43695 C 68.27155 70.4781 68.59901 70.54198 68.80319 70.58073 C 69.00737 70.6195 69.33485 70.67976 69.53903 70.71635 C 69.74321 70.75294 70.07068 70.8099 70.27486 70.84453 C 70.47903 70.87914 70.8065 70.93309 71.01068 70.96588 C 71.21486 70.99867 71.54234 71.04982 71.74652 71.08092 C 71.9507 71.11201 72.27817 71.16055 72.48235 71.19008 C 72.68652 71.2196 73.014 71.26572 73.21817 71.29376 C 73.42235 71.32181 73.74982 71.36562 73.954 71.39229 C 74.15817 71.41895 74.48564 71.46062 74.68982 71.48596 C 74.894 71.5113 75.22148 71.55093 75.42566 71.57503 C 75.62984 71.59912 75.9573 71.63681 76.16148 71.65971 C 76.36566 71.68263 76.69313 71.71846 76.89731 71.74023 C 77.10149 71.76202 77.42897 71.79608 77.63315 71.81679 C 77.83733 71.8375 78.1648 71.86986 78.36897 71.88951 C 78.57315 71.90916 78.90063 71.93991 79.10481 71.95856 C 79.30899 71.9772 79.63646 72.00635 79.84064 72.02405 C 80.04482 72.04175 80.37227 72.06938 80.57645 72.08614 C 80.78062 72.10289 81.10811 72.12903 81.31229 72.14488 C 81.51646 72.16074 81.84393 72.18546 82.04811 72.20044 C 82.25229 72.21541 82.57977 72.23874 82.78395 72.25287 C 82.98813 72.26698 83.3156 72.28896 83.51978 72.30225 C 83.72395 72.31554 84.05142 72.3362 84.2556 72.34865 C 84.45978 72.36111 84.78726 72.3805 84.99144 72.39217 C 85.19562 72.40384 85.52309 72.42195 85.72726 72.43283 C 85.93144 72.44371 86.25893 72.46059 86.4631 72.47072 C 86.66728 72.48083 86.99474 72.49648 87.19891 72.50586 C 87.40309 72.51524 87.73058 72.52968 87.93475 72.53831 C 88.13893 72.54695 88.4664 72.56024 88.67058 72.56815 C 88.87476 72.57605 89.20222 72.58817 89.4064 72.59535 C 89.61058 72.60254 89.93806 72.61351 90.14224 72.61998 C 90.34642 72.62645 90.67387 72.63629 90.87805 72.64207 C 91.08223 72.64784 91.40971 72.65657 91.61389 72.66165 C 91.81807 72.66673 92.14555 72.67433 92.34973 72.67873 C 92.55391 72.68312 92.88138 72.68962 93.08556 72.69333 C 93.28973 72.69704 93.61722 72.70245 93.8214 72.70547 C 94.02557 72.7085 94.35303 72.71281 94.5572 72.71516 C 94.76138 72.7175 95.08887 72.72076 95.29305 72.72244 C 95.49722 72.72412 95.82469 72.72627 96.02887 72.72728 C 96.23305 72.72827 96.56052 72.72937 96.7647 72.7297 C 96.96887 72.73004 97.29634 72.73003 97.50052 72.7297 C 97.7047 72.72939 98.03217 72.7283 98.23634 72.72731 C 98.44052 72.7263 98.768 72.72414 98.97218 72.72247 C 99.17636 72.7208 99.50385 72.71756 99.70802 72.71523 C 99.9122 72.71288 100.23967 72.70854 100.44385 72.70552 C 100.64803 72.7025 100.9755 72.69708 101.17967 72.69339 C 101.38385 72.6897 101.71132 72.6832 101.9155 72.67882 C 102.11967 72.67444 102.44716 72.66682 102.65134 72.66174 C 102.85551 72.65666 103.18298 72.64795 103.38716 72.64218 C 103.59134 72.6364 103.91881 72.62657 104.12299 72.6201 C 104.32716 72.61363 104.65463 72.60266 104.85881 72.59549 C 105.06299 72.58832 105.39046 72.5762 105.59464 72.5683 C 105.79881 72.5604 106.1263 72.54712 106.33047 72.53848 C 106.53465 72.52985 106.86212 72.51541 107.0663 72.50604 C 107.27048 72.49667 107.59795 72.48103 107.80212 72.47092 C 108.0063 72.46078 108.33379 72.44392 108.53796 72.43304 C 108.74214 72.42215 109.06961 72.40405 109.27379 72.39238 C 109.47797 72.3807 109.80545 72.36134 110.00963 72.34888 C 110.2138 72.33641 110.54128 72.31577 110.74545 72.30249 C 110.94963 72.28922 111.27708 72.26723 111.48126 72.25313 C 111.68544 72.23901 112.01292 72.2157 112.2171 72.20073 C 112.42128 72.18575 112.74875 72.16103 112.95293 72.14519 C 113.1571 72.12935 113.48459 72.10321 113.68877 72.08646 C 113.89294 72.0697 114.22041 72.04208 114.42459 72.02438 C 114.62877 72.00668 114.95624 71.97755 115.16042 71.95891 C 115.3646 71.94025 115.69208 71.90953 115.89626 71.88988 C 116.10043 71.87022 116.4279 71.83788 116.63208 71.81718 C 116.83626 71.7965 117.16374 71.76244 117.36792 71.74065 C 117.5721 71.71887 117.89955 71.68306 118.10373 71.66016 C 118.3079 71.63725 118.63538 71.59956 118.83955 71.57547 C 119.04373 71.55138 119.37122 71.51176 119.5754 71.48643 C 119.77957 71.46109 120.10704 71.41943 120.31122 71.39279 C 120.5154 71.36613 120.84288 71.32233 121.04706 71.2943 C 121.25124 71.26627 121.57869 71.22017 121.78287 71.19064 C 121.98705 71.16112 122.31453 71.1126 122.5187 71.08151 C 122.72289 71.05042 123.05037 70.99928 123.25455 70.9665 C 123.45872 70.93373 123.7862 70.87979 123.99037 70.8452 C 124.19455 70.8106 124.52203 70.75363 124.72621 70.71704 C 124.93039 70.68045 125.25784 70.62022 125.46202 70.58147 C 125.6662 70.54272 125.99367 70.47885 126.19785 70.43771 C 126.40202 70.39659 126.7295 70.3287 126.93369 70.28491 C 127.13786 70.24112 127.46533 70.16876 127.66951 70.12198 C 127.87369 70.07518 128.20117 69.99779 128.40535 69.94757 C 128.60953 69.89734 128.93698 69.81413 129.14116 69.75992 C 129.34534 69.70572 129.67282 69.61575 129.877 69.55681 C 130.08118 69.49788 130.40866 69.39983 130.61284 69.33513 C 130.81702 69.27042 131.14449 69.16249 131.34867 69.09048 C 131.55284 69.0185 131.88031 68.89793 132.08449 68.81618 C 132.28867 68.73442 132.61614 68.59714 132.82032 68.50124 C 133.02449 68.40532 133.55614 68.12491 133.55614 68.12491 "/>
<path transform="matrix(1,0,0,-1,.199,174.48)" stroke-width="1.19553" stroke-linecap="butt" stroke-miterlimit="10" stroke-linejoin="miter" fill="none" stroke="#000080" d="M 60.70909 64.44884 C 60.70909 64.44884 61.24074 64.16812 61.44492 64.07211 C 61.6491 63.97612 61.97656 63.83875 62.18074 63.75693 C 62.38492 63.67511 62.71239 63.55447 62.91656 63.48244 C 63.12074 63.4104 63.44821 63.30238 63.65239 63.23766 C 63.85657 63.17293 64.18405 63.07481 64.38823 63.01585 C 64.5924 62.95691 64.91988 62.86688 65.12405 62.81265 C 65.32823 62.75842 65.6557 62.6752 65.85988 62.62495 C 66.06406 62.5747 66.39153 62.49728 66.5957 62.45047 C 66.79988 62.40364 67.12735 62.3313 67.33153 62.28749 C 67.5357 62.24367 67.86319 62.17577 68.06737 62.13461 C 68.27155 62.09346 68.59901 62.02959 68.80319 61.99081 C 69.00737 61.95206 69.33485 61.89178 69.53903 61.8552 C 69.74321 61.8186 70.07068 61.76164 70.27486 61.72704 C 70.47903 61.69241 70.8065 61.63847 71.01068 61.60568 C 71.21486 61.57289 71.54234 61.52174 71.74652 61.49065 C 71.9507 61.45953 72.27817 61.411 72.48235 61.38147 C 72.68652 61.35196 73.014 61.30585 73.21817 61.2778 C 73.42235 61.24976 73.74982 61.20593 73.954 61.17928 C 74.15817 61.1526 74.48564 61.11095 74.68982 61.0856 C 74.894 61.06026 75.22148 61.02063 75.42566 60.99654 C 75.62984 60.97244 75.9573 60.93475 76.16148 60.91183 C 76.36566 60.88893 76.69313 60.8531 76.89731 60.83131 C 77.10149 60.80954 77.42897 60.77548 77.63315 60.75478 C 77.83733 60.73407 78.1648 60.7017 78.36897 60.68205 C 78.57315 60.6624 78.90063 60.63165 79.10481 60.613 C 79.30899 60.59435 79.63646 60.5652 79.84064 60.54752 C 80.04482 60.52982 80.37227 60.50218 80.57645 60.48543 C 80.78062 60.46867 81.10811 60.44252 81.31229 60.42667 C 81.51646 60.41081 81.84393 60.3861 82.04811 60.37112 C 82.25229 60.35616 82.57977 60.33281 82.78395 60.3187 C 82.98813 60.30457 83.3156 60.28261 83.51978 60.26932 C 83.72395 60.25603 84.05142 60.23537 84.2556 60.2229 C 84.45978 60.21043 84.78726 60.19107 84.99144 60.1794 C 85.19562 60.16772 85.52309 60.14961 85.72726 60.13873 C 85.93144 60.12784 86.25893 60.11098 86.4631 60.10085 C 86.66728 60.09073 86.99474 60.07507 87.19891 60.0657 C 87.40309 60.05632 87.73058 60.04189 87.93475 60.03325 C 88.13893 60.02461 88.4664 60.01132 88.67058 60.00342 C 88.87476 59.99551 89.20222 59.9834 89.4064 59.97621 C 89.61058 59.96901 89.93806 59.95805 90.14224 59.95158 C 90.34642 59.9451 90.67387 59.93527 90.87805 59.92949 C 91.08223 59.9237 91.40971 59.915 91.61389 59.90991 C 91.81807 59.90483 92.14555 59.89723 92.34973 59.89284 C 92.55391 59.88844 92.88138 59.88194 93.08556 59.87823 C 93.28973 59.87453 93.61722 59.86911 93.8214 59.86609 C 94.02557 59.86305 94.35303 59.85873 94.5572 59.8564 C 94.76138 59.85406 95.08887 59.85078 95.29305 59.84912 C 95.49722 59.84744 95.82469 59.84529 96.02887 59.84428 C 96.23305 59.84328 96.56052 59.84218 96.7647 59.84186 C 96.96887 59.84152 97.29634 59.84154 97.50052 59.84186 C 97.7047 59.84216 98.03217 59.84325 98.23634 59.84425 C 98.44052 59.84526 98.768 59.84741 98.97218 59.84909 C 99.17636 59.85075 99.50385 59.854 99.70802 59.85634 C 99.9122 59.85867 100.23967 59.863 100.44385 59.86604 C 100.64803 59.86906 100.9755 59.87448 101.17967 59.87817 C 101.38385 59.88187 101.71132 59.88837 101.9155 59.89275 C 102.11967 59.89713 102.44716 59.90474 102.65134 59.90982 C 102.85551 59.9149 103.18298 59.9236 103.38716 59.92938 C 103.59134 59.93517 103.91881 59.94498 104.12299 59.95146 C 104.32716 59.95793 104.65463 59.96889 104.85881 59.97607 C 105.06299 59.98325 105.39046 59.99536 105.59464 60.00327 C 105.79881 60.01117 106.1263 60.02444 106.33047 60.03308 C 106.53465 60.04172 106.86212 60.05615 107.0663 60.06552 C 107.27048 60.07487 107.59795 60.09053 107.80212 60.10065 C 108.0063 60.11078 108.33379 60.12764 108.53796 60.13852 C 108.74214 60.1494 109.06961 60.16751 109.27379 60.17918 C 109.47797 60.19086 109.80545 60.2102 110.00963 60.22267 C 110.2138 60.23514 110.54128 60.2558 110.74545 60.26907 C 110.94963 60.28235 111.27708 60.30432 111.48126 60.31844 C 111.68544 60.33253 112.01292 60.35587 112.2171 60.37083 C 112.42128 60.3858 112.74875 60.41052 112.95293 60.42636 C 113.1571 60.4422 113.48459 60.46835 113.68877 60.4851 C 113.89294 60.50186 114.22041 60.52948 114.42459 60.54718 C 114.62877 60.56487 114.95624 60.594 115.16042 60.61266 C 115.3646 60.6313 115.69208 60.66203 115.89626 60.68169 C 116.10043 60.70134 116.4279 60.73369 116.63208 60.75438 C 116.83626 60.77507 117.16374 60.80913 117.36792 60.8309 C 117.5721 60.85269 117.89955 60.88849 118.10373 60.9114 C 118.3079 60.93431 118.63538 60.972 118.83955 60.9961 C 119.04373 61.02019 119.37122 61.05978 119.5754 61.08513 C 119.77957 61.11047 120.10704 61.15213 120.31122 61.17877 C 120.5154 61.20543 120.84288 61.24924 121.04706 61.27727 C 121.25124 61.3053 121.57869 61.3514 121.78287 61.38092 C 121.98705 61.41043 122.31453 61.45895 122.5187 61.49005 C 122.72289 61.52113 123.05037 61.57228 123.25455 61.60506 C 123.45872 61.63783 123.7862 61.69176 123.99037 61.72636 C 124.19455 61.76097 124.52203 61.81793 124.72621 61.85452 C 124.93039 61.89111 125.25784 61.95134 125.46202 61.99008 C 125.6662 62.02884 125.99367 62.0927 126.19785 62.13383 C 126.40202 62.17497 126.7295 62.24284 126.93369 62.28665 C 127.13786 62.33044 127.46533 62.40279 127.66951 62.44958 C 127.87369 62.49637 128.20117 62.57376 128.40535 62.624 C 128.60953 62.67422 128.93698 62.75742 129.14116 62.81163 C 129.34534 62.86584 129.67282 62.95581 129.877 63.01474 C 130.08118 63.07368 130.40866 63.17174 130.61284 63.23643 C 130.81702 63.30113 131.14449 63.40907 131.34867 63.48106 C 131.55284 63.55307 131.88031 63.67363 132.08449 63.75539 C 132.28867 63.83714 132.61614 63.97441 132.82032 64.07033 C 133.02449 64.16623 133.55614 64.44666 133.55614 64.44666 "/>
<path transform="matrix(1,0,0,-1,.199,174.48)" stroke-width="1.19553" stroke-linecap="butt" stroke-miterlimit="10" stroke-linejoin="miter" fill="none" stroke="#000080" d="M 59.13412 66.34541 C 59.13412 66.34541 59.14561 66.45218 59.15002 66.48135 C 59.15443 66.51054 59.16151 66.53748 59.16592 66.55586 C 59.17033 66.57426 59.17741 66.59908 59.18182 66.61394 C 59.18623 66.6288 59.19331 66.65025 59.19772 66.66312 C 59.20213 66.67598 59.20921 66.69516 59.21362 66.70663 C 59.21803 66.71811 59.22513 66.73543 59.22952 66.74591 C 59.23393 66.75638 59.24103 66.7725 59.24544 66.78223 C 59.24985 66.79193 59.25693 66.80687 59.26134 66.81592 C 59.26575 66.82498 59.27283 66.83904 59.27724 66.8476 C 59.28165 66.85616 59.28873 66.86954 59.29314 66.87766 C 59.29755 66.88577 59.30463 66.8984 59.30904 66.90614 C 59.31345 66.91388 59.32053 66.92612 59.32494 66.93352 C 59.32935 66.94092 59.33643 66.9525 59.34084 66.9596 C 59.34525 66.9667 59.35233 66.9779 59.35674 66.98476 C 59.36115 66.99161 59.36824 67.00246 59.37263 67.00908 C 59.37704 67.01572 59.38414 67.02614 59.38855 67.03253 C 59.39294 67.03894 59.40004 67.04906 59.40445 67.05528 C 59.40886 67.0615 59.41594 67.0714 59.42035 67.07742 C 59.42476 67.08347 59.43184 67.093 59.43625 67.09888 C 59.44066 67.10477 59.44774 67.11412 59.45215 67.11986 C 59.45656 67.1256 59.46364 67.13461 59.46805 67.14021 C 59.47246 67.14581 59.47954 67.15474 59.48395 67.16019 C 59.48836 67.16565 59.49544 67.17429 59.49985 67.17961 C 59.50426 67.18495 59.51134 67.19344 59.51575 67.19867 C 59.52016 67.20389 59.52725 67.2122 59.53165 67.21733 C 59.53606 67.22246 59.54315 67.23059 59.54756 67.23561 C 59.55197 67.24062 59.55905 67.24866 59.56346 67.25356 C 59.56787 67.25847 59.57495 67.26628 59.57936 67.2711 C 59.58377 67.27592 59.59085 67.28363 59.59526 67.28838 C 59.59967 67.29312 59.60675 67.30072 59.61116 67.30539 C 59.61557 67.31004 59.62265 67.31747 59.62706 67.32205 C 59.63147 67.32661 59.63855 67.33394 59.64296 67.33846 C 59.64737 67.34296 59.65445 67.3502 59.65886 67.35464 C 59.66327 67.35907 59.67036 67.36615 59.67476 67.37053 C 59.67917 67.37491 59.68626 67.38191 59.69067 67.38623 C 59.69507 67.39055 59.70216 67.3974 59.70657 67.40164 C 59.71098 67.40588 59.71806 67.41267 59.72247 67.41687 C 59.72688 67.42107 59.73396 67.4278 59.73837 67.43193 C 59.74278 67.43607 59.74986 67.44264 59.75427 67.44672 C 59.75868 67.45079 59.76576 67.45734 59.77017 67.46136 C 59.77458 67.4654 59.78166 67.47182 59.78607 67.4758 C 59.79048 67.47978 59.79756 67.48616 59.80197 67.49008 C 59.80638 67.494 59.81346 67.50029 59.81787 67.50417 C 59.82228 67.50804 59.82938 67.51424 59.83377 67.51808 C 59.83818 67.52191 59.84528 67.52806 59.84969 67.53185 C 59.8541 67.53563 59.86118 67.54172 59.86559 67.54546 C 59.87 67.5492 59.87708 67.55516 59.88148 67.55888 C 59.8859 67.56259 59.89297 67.56854 59.89738 67.5722 C 59.9018 67.57587 59.90887 67.58173 59.91328 67.58536 C 59.9177 67.58899 59.92477 67.59483 59.92918 67.59842 C 59.9336 67.602 59.94067 67.60777 59.94508 67.61131 C 59.9495 67.61485 59.95657 67.62053 59.96098 67.62405 C 59.9654 67.62756 59.97249 67.63322 59.97688 67.6367 C 59.9813 67.6402 59.98839 67.64575 59.9928 67.6492 C 59.9972 67.65266 60.00429 67.6582 60.0087 67.66162 C 60.0131 67.66505 60.02019 67.67049 60.0246 67.67387 C 60.029 67.67728 60.03609 67.68272 60.0405 67.68608 C 60.0449 67.68945 60.05199 67.69482 60.0564 67.69814 C 60.0608 67.70146 60.06789 67.70677 60.0723 67.71007 C 60.0767 67.71338 60.08379 67.71867 60.0882 67.72195 C 60.0926 67.72522 60.09969 67.73042 60.1041 67.73366 C 60.1085 67.7369 60.11559 67.74214 60.12 67.74535 C 60.1244 67.74855 60.1315 67.7537 60.13591 67.75687 C 60.1403 67.76004 60.1474 67.76515 60.15181 67.76831 C 60.15622 67.77147 60.1633 67.77655 60.16771 67.77968 C 60.17212 67.78282 60.1792 67.78784 60.18361 67.79095 C 60.18802 67.79405 60.1951 67.79903 60.19951 67.80211 C 60.20392 67.80519 60.21101 67.81017 60.21542 67.81322 C 60.21983 67.81627 60.22691 67.82118 60.23132 67.82423 C 60.23573 67.82727 60.24281 67.83217 60.24722 67.83517 C 60.25163 67.83818 60.25871 67.84302 60.26312 67.84601 C 60.26753 67.849 60.27463 67.85382 60.27902 67.8568 C 60.28343 67.85976 60.29053 67.86453 60.29494 67.86748 C 60.29933 67.87042 60.30643 67.87514 60.31084 67.87807 C 60.31525 67.88101 60.32233 67.88573 60.32674 67.88864 C 60.33115 67.89154 60.33823 67.8962 60.34264 67.89908 C 60.34705 67.90198 60.35413 67.90662 60.35854 67.90948 C 60.36295 67.91234 60.37003 67.91695 60.37444 67.91978 C 60.37885 67.92262 60.38593 67.9272 60.39034 67.93004 C 60.39474 67.93286 60.40182 67.93744 60.40623 67.94025 C 60.41064 67.94305 60.41772 67.94757 60.42213 67.95036 C 60.42654 67.95314 60.43364 67.95761 60.43805 67.96037 C 60.44244 67.96315 60.44954 67.96764 60.45395 67.9704 C 60.45836 67.97314 60.46544 67.97757 60.46985 67.9803 C 60.47426 67.98305 60.48134 67.98749 60.48575 67.9902 C 60.49016 67.99292 60.49724 67.99727 60.50165 67.99997 C 60.50606 68.00269 60.51314 68.00703 60.51755 68.00972 C 60.52196 68.0124 60.52904 68.01672 60.53345 68.01941 C 60.53786 68.02208 60.54494 68.02637 60.54935 68.02902 C 60.55376 68.0317 60.56084 68.03598 60.56525 68.03862 C 60.56966 68.04126 60.57675 68.04547 60.58115 68.04811 C 60.58556 68.05074 60.59265 68.05498 60.59706 68.05759 C 60.60146 68.06021 60.60855 68.06439 60.61296 68.06697 C 60.61737 68.06955 60.62445 68.07373 60.62886 68.07632 C 60.63327 68.0789 60.64035 68.08305 60.64476 68.08563 C 60.64917 68.0882 60.65625 68.09232 60.66066 68.09486 C 60.66507 68.09743 60.67215 68.10152 60.67656 68.10405 C 60.68097 68.10658 60.68805 68.11067 60.69246 68.1132 C 60.69687 68.11572 60.70836 68.12228 60.70836 68.12228 "/>
<path transform="matrix(1,0,0,-1,.199,174.48)" stroke-width="1.19553" stroke-linecap="butt" stroke-miterlimit="10" stroke-linejoin="miter" fill="none" stroke="#000080" d="M 59.13412 66.22615 C 59.13412 66.22615 59.14561 66.11938 59.15002 66.0902 C 59.15443 66.061 59.16151 66.03409 59.16592 66.01569 C 59.17033 65.9973 59.17741 65.97249 59.18182 65.95763 C 59.18623 65.94275 59.19331 65.92131 59.19772 65.90845 C 59.20213 65.89558 59.20921 65.8764 59.21362 65.86491 C 59.21803 65.85344 59.22513 65.83612 59.22952 65.82565 C 59.23393 65.81519 59.24103 65.79906 59.24544 65.78934 C 59.24985 65.77962 59.25693 65.7647 59.26134 65.75563 C 59.26575 65.74657 59.27283 65.73253 59.27724 65.72397 C 59.28165 65.71541 59.28873 65.70201 59.29314 65.6939 C 59.29755 65.68578 59.30463 65.67314 59.30904 65.6654 C 59.31345 65.65767 59.32053 65.64545 59.32494 65.63805 C 59.32935 65.63065 59.33643 65.61906 59.34084 65.61195 C 59.34525 65.60486 59.35233 65.59366 59.35674 65.5868 C 59.36115 65.57994 59.36824 65.5691 59.37263 65.56247 C 59.37704 65.55585 59.38414 65.54543 59.38855 65.53902 C 59.39294 65.53262 59.40004 65.52249 59.40445 65.51628 C 59.40886 65.51006 59.41594 65.50017 59.42035 65.49413 C 59.42476 65.4881 59.43184 65.47856 59.43625 65.47267 C 59.44066 65.4668 59.44774 65.45743 59.45215 65.4517 C 59.45656 65.44597 59.46364 65.43694 59.46805 65.43135 C 59.47246 65.42575 59.47954 65.41682 59.48395 65.41136 C 59.48836 65.40591 59.49544 65.39728 59.49985 65.39194 C 59.50426 65.38661 59.51134 65.37813 59.51575 65.3729 C 59.52016 65.36766 59.52725 65.35934 59.53165 65.35422 C 59.53606 65.3491 59.54315 65.34097 59.54756 65.33595 C 59.55197 65.33093 59.55905 65.3229 59.56346 65.318 C 59.56787 65.3131 59.57495 65.30527 59.57936 65.30046 C 59.58377 65.29564 59.59085 65.28793 59.59526 65.28319 C 59.59967 65.27844 59.60675 65.27084 59.61116 65.26617 C 59.61557 65.2615 59.62265 65.25409 59.62706 65.24951 C 59.63147 65.24493 59.63855 65.23763 59.64296 65.23311 C 59.64737 65.22859 59.65445 65.22136 59.65886 65.21692 C 59.66327 65.21248 59.67036 65.20541 59.67476 65.20103 C 59.67917 65.19666 59.68626 65.18965 59.69067 65.18533 C 59.69507 65.18102 59.70216 65.17416 59.70657 65.16992 C 59.71098 65.16568 59.71806 65.15887 59.72247 65.15468 C 59.72688 65.15048 59.73396 65.14377 59.73837 65.13963 C 59.74278 65.1355 59.74986 65.12892 59.75427 65.12485 C 59.75868 65.12077 59.76576 65.11421 59.77017 65.11018 C 59.77458 65.10616 59.78166 65.09975 59.78607 65.09576 C 59.79048 65.09178 59.79756 65.08539 59.80197 65.08147 C 59.80638 65.07755 59.81346 65.07127 59.81787 65.0674 C 59.82228 65.06352 59.82938 65.05731 59.83377 65.05348 C 59.83818 65.04965 59.84528 65.0435 59.84969 65.03972 C 59.8541 65.03592 59.86118 65.02985 59.86559 65.02611 C 59.87 65.02237 59.87708 65.01639 59.88148 65.01268 C 59.8859 65.00897 59.89297 65.003 59.89738 64.99934 C 59.9018 64.99568 59.90887 64.98984 59.91328 64.9862 C 59.9177 64.98256 59.92477 64.97673 59.92918 64.97314 C 59.9336 64.96956 59.94067 64.96379 59.94508 64.96025 C 59.9495 64.95671 59.95657 64.95102 59.96098 64.94751 C 59.9654 64.944 59.97249 64.93832 59.97688 64.93484 C 59.9813 64.93137 59.98839 64.9258 59.9928 64.92235 C 59.9972 64.9189 60.00429 64.91335 60.0087 64.90993 C 60.0131 64.90651 60.02019 64.90106 60.0246 64.89767 C 60.029 64.89429 60.03609 64.88882 60.0405 64.88547 C 60.0449 64.88211 60.05199 64.87672 60.0564 64.87341 C 60.0608 64.8701 60.06789 64.86478 60.0723 64.86148 C 60.0767 64.85818 60.08379 64.85287 60.0882 64.84961 C 60.0926 64.84634 60.09969 64.84114 60.1041 64.8379 C 60.1085 64.83467 60.11559 64.82942 60.12 64.82622 C 60.1244 64.82301 60.1315 64.81787 60.13591 64.8147 C 60.1403 64.81151 60.1474 64.80641 60.15181 64.80324 C 60.15622 64.80008 60.1633 64.795 60.16771 64.79187 C 60.17212 64.78874 60.1792 64.7837 60.18361 64.78061 C 60.18802 64.77751 60.1951 64.77254 60.19951 64.76945 C 60.20392 64.76636 60.21101 64.7614 60.21542 64.75833 C 60.21983 64.75528 60.22691 64.75037 60.23132 64.74733 C 60.23573 64.7443 60.24281 64.7394 60.24722 64.73639 C 60.25163 64.73338 60.25871 64.72855 60.26312 64.72554 C 60.26753 64.72255 60.27463 64.71773 60.27902 64.71477 C 60.28343 64.7118 60.29053 64.70703 60.29494 64.70409 C 60.29933 64.70113 60.30643 64.69643 60.31084 64.69348 C 60.31525 64.69055 60.32233 64.68582 60.32674 64.68292 C 60.33115 64.68002 60.33823 64.67537 60.34264 64.67247 C 60.34705 64.66959 60.35413 64.66493 60.35854 64.66208 C 60.36295 64.65923 60.37003 64.65462 60.37444 64.65178 C 60.37885 64.64893 60.38593 64.64435 60.39034 64.64153 C 60.39474 64.6387 60.40182 64.63412 60.40623 64.63132 C 60.41064 64.6285 60.41772 64.62398 60.42213 64.6212 C 60.42654 64.61842 60.43364 64.61395 60.43805 64.61118 C 60.44244 64.60841 60.44954 64.60391 60.45395 64.60117 C 60.45836 64.59842 60.46544 64.594 60.46985 64.59125 C 60.47426 64.58852 60.48134 64.58408 60.48575 64.58136 C 60.49016 64.57863 60.49724 64.57428 60.50165 64.57158 C 60.50606 64.56888 60.51314 64.56453 60.51755 64.56184 C 60.52196 64.55914 60.52904 64.55482 60.53345 64.55215 C 60.53786 64.54948 60.54494 64.5452 60.54935 64.54253 C 60.55376 64.53987 60.56084 64.53558 60.56525 64.53294 C 60.56966 64.53029 60.57675 64.52608 60.58115 64.52345 C 60.58556 64.52083 60.59265 64.51659 60.59706 64.51396 C 60.60146 64.51135 60.60855 64.50717 60.61296 64.5046 C 60.61737 64.502 60.62445 64.49782 60.62886 64.49524 C 60.63327 64.49265 60.64035 64.48851 60.64476 64.48593 C 60.64917 64.48337 60.65625 64.47925 60.66066 64.47668 C 60.66507 64.47414 60.67215 64.47005 60.67656 64.46751 C 60.68097 64.46497 60.68805 64.46088 60.69246 64.45836 C 60.69687 64.45584 60.70836 64.44928 60.70836 64.44928 "/>
<path transform="matrix(1,0,0,-1,.199,174.48)" stroke-width="1.19553" stroke-linecap="butt" stroke-miterlimit="10" stroke-linejoin="miter" fill="none" stroke="#000080" d="M 133.56002 68.12271 C 133.56002 68.12271 133.5715 68.11615 133.57592 68.11363 C 133.58032 68.1111 133.5874 68.10701 133.59181 68.10448 C 133.59622 68.10194 133.6033 68.09785 133.60771 68.09529 C 133.61212 68.09274 133.61922 68.08861 133.62361 68.08603 C 133.62802 68.08347 133.63512 68.07932 133.63953 68.07675 C 133.64394 68.07417 133.65102 68.07002 133.65543 68.06743 C 133.65984 68.06483 133.66692 68.06062 133.67133 68.058 C 133.67574 68.05539 133.68282 68.05118 133.68723 68.04855 C 133.69164 68.04591 133.69872 68.04167 133.70313 68.03903 C 133.70754 68.03639 133.71462 68.03212 133.71903 68.02946 C 133.72344 68.02682 133.73052 68.02254 133.73493 68.01987 C 133.73934 68.01718 133.74642 68.01285 133.75083 68.01016 C 133.75524 68.00748 133.76233 68.00314 133.76673 68.00043 C 133.77114 67.99773 133.77823 67.99333 133.78264 67.99062 C 133.78704 67.98788 133.79413 67.98352 133.79854 67.98077 C 133.80295 67.97804 133.81003 67.97362 133.81444 67.97087 C 133.81885 67.96811 133.82593 67.96362 133.83034 67.96085 C 133.83475 67.95807 133.84183 67.95361 133.84624 67.95082 C 133.85065 67.94801 133.85773 67.94348 133.86214 67.94067 C 133.86655 67.93787 133.87363 67.93335 133.87804 67.93053 C 133.88245 67.92769 133.88953 67.92311 133.89394 67.92027 C 133.89835 67.91743 133.90543 67.9128 133.90984 67.90994 C 133.91425 67.90707 133.92134 67.90245 133.92574 67.89957 C 133.93015 67.89668 133.93724 67.89198 133.94165 67.88908 C 133.94606 67.88617 133.95314 67.8815 133.95755 67.87857 C 133.96196 67.87566 133.96904 67.87093 133.97345 67.86798 C 133.97786 67.86504 133.98494 67.86023 133.98935 67.85725 C 133.99376 67.8543 134.00084 67.8495 134.00525 67.84651 C 134.00966 67.84352 134.01674 67.83867 134.02115 67.83566 C 134.02556 67.83264 134.03264 67.82779 134.03705 67.82474 C 134.04146 67.8217 134.04854 67.81679 134.05295 67.81374 C 134.05736 67.81068 134.06446 67.80571 134.06885 67.80263 C 134.07326 67.79955 134.08036 67.79457 134.08477 67.79147 C 134.08916 67.78836 134.09626 67.78331 134.10066 67.78017 C 134.10507 67.77704 134.11215 67.77199 134.11656 67.76884 C 134.12097 67.7657 134.12805 67.76059 134.13246 67.75742 C 134.13687 67.75424 134.14395 67.74905 134.14836 67.74585 C 134.15277 67.74265 134.15985 67.73744 134.16426 67.7342 C 134.16867 67.73096 134.17575 67.72572 134.18016 67.72244 C 134.18457 67.71918 134.19165 67.71391 134.19606 67.71062 C 134.20047 67.70734 134.20755 67.70201 134.21196 67.69868 C 134.21637 67.69536 134.22347 67.68997 134.22788 67.68661 C 134.23227 67.68326 134.23937 67.67784 134.24378 67.67445 C 134.24819 67.67107 134.25527 67.66557 134.25968 67.66216 C 134.26409 67.65874 134.27117 67.65321 134.27558 67.64978 C 134.27999 67.64635 134.28707 67.64078 134.29148 67.6373 C 134.29589 67.63382 134.30297 67.62816 134.30738 67.62463 C 134.31179 67.62112 134.31887 67.61545 134.32328 67.6119 C 134.32769 67.60832 134.33477 67.60257 134.33917 67.59898 C 134.34358 67.5954 134.35066 67.58958 134.35507 67.58597 C 134.35948 67.58235 134.36658 67.57648 134.37097 67.57281 C 134.37538 67.56915 134.38248 67.5632 134.38689 67.5595 C 134.39128 67.55579 134.39838 67.54982 134.40279 67.54608 C 134.4072 67.54234 134.41428 67.53622 134.41869 67.53244 C 134.4231 67.52866 134.43018 67.52254 134.43459 67.5187 C 134.439 67.51488 134.44608 67.5087 134.45049 67.50482 C 134.4549 67.50095 134.46198 67.49463 134.46639 67.4907 C 134.4708 67.48679 134.47788 67.48044 134.48229 67.47647 C 134.4867 67.4725 134.49378 67.46603 134.49819 67.462 C 134.5026 67.45798 134.50968 67.45149 134.51409 67.44742 C 134.5185 67.44334 134.52559 67.43674 134.53 67.4326 C 134.5344 67.42847 134.54149 67.42175 134.5459 67.41757 C 134.55031 67.41339 134.55739 67.40662 134.5618 67.40237 C 134.56621 67.39813 134.57329 67.39122 134.5777 67.3869 C 134.5821 67.38258 134.58919 67.37561 134.5936 67.37125 C 134.598 67.3669 134.60509 67.3598 134.6095 67.35536 C 134.6139 67.35092 134.62099 67.34372 134.6254 67.3392 C 134.6298 67.33469 134.63689 67.3274 134.6413 67.3228 C 134.6457 67.3182 134.65279 67.31076 134.6572 67.30609 C 134.6616 67.30144 134.6687 67.29388 134.6731 67.28917 C 134.6775 67.28444 134.6846 67.27678 134.68901 67.27194 C 134.6934 67.2671 134.7005 67.25923 134.70491 67.25432 C 134.70932 67.2494 134.7164 67.24146 134.72081 67.23643 C 134.72522 67.23143 134.7323 67.22327 134.73671 67.21815 C 134.74112 67.21304 134.7482 67.20474 134.75261 67.19954 C 134.75702 67.19432 134.7641 67.18585 134.76851 67.18051 C 134.77292 67.17519 134.78 67.16649 134.78441 67.16103 C 134.78882 67.15556 134.7959 67.14674 134.80031 67.14117 C 134.80472 67.13559 134.8118 67.12645 134.81621 67.12074 C 134.82062 67.11502 134.82772 67.10574 134.83213 67.09987 C 134.83652 67.094 134.84362 67.08447 134.84803 67.07843 C 134.85243 67.0724 134.85951 67.06255 134.86392 67.05635 C 134.86833 67.05014 134.87541 67.04004 134.87982 67.03363 C 134.88423 67.02724 134.89131 67.01674 134.89572 67.01013 C 134.90013 67.00352 134.90721 66.99272 134.91162 66.98589 C 134.91603 66.97905 134.92311 66.96791 134.92752 66.96082 C 134.93193 66.95372 134.93901 66.94205 134.94342 66.93465 C 134.94783 66.92726 134.95491 66.91519 134.95932 66.90747 C 134.96373 66.89975 134.97083 66.88701 134.97522 66.8789 C 134.97963 66.8708 134.98673 66.85756 134.99114 66.84904 C 134.99553 66.84053 135.00263 66.82652 135.00704 66.81746 C 135.01145 66.8084 135.01853 66.79338 135.02294 66.7837 C 135.02735 66.77405 135.03443 66.75813 135.03884 66.74768 C 135.04325 66.73724 135.05033 66.71983 135.05474 66.7084 C 135.05915 66.69698 135.06623 66.67796 135.07064 66.6652 C 135.07505 66.65247 135.08213 66.6312 135.08654 66.61642 C 135.09095 66.60167 135.09803 66.57695 135.10243 66.55876 C 135.10684 66.54059 135.11392 66.51338 135.11833 66.48535 C 135.12274 66.45734 135.13425 66.35674 135.13425 66.35674 "/>
<path transform="matrix(1,0,0,-1,.199,174.48)" stroke-width="1.19553" stroke-linecap="butt" stroke-miterlimit="10" stroke-linejoin="miter" fill="none" stroke="#000080" d="M 133.56002 64.44884 C 133.56002 64.44884 133.5715 64.45541 133.57592 64.45793 C 133.58032 64.46045 133.5874 64.46454 133.59181 64.46709 C 133.59622 64.46962 133.6033 64.47371 133.60771 64.47626 C 133.61212 64.47882 133.61922 64.48296 133.62361 64.48552 C 133.62802 64.4881 133.63512 64.49225 133.63953 64.49481 C 133.64394 64.49738 133.65102 64.50153 133.65543 64.50414 C 133.65984 64.50673 133.66692 64.51094 133.67133 64.51355 C 133.67574 64.51617 133.68282 64.52039 133.68723 64.52301 C 133.69164 64.52563 133.69872 64.52988 133.70313 64.53253 C 133.70754 64.53517 133.71462 64.53944 133.71903 64.54208 C 133.72344 64.54474 133.73052 64.54903 133.73493 64.5517 C 133.73934 64.55437 133.74642 64.5587 133.75083 64.5614 C 133.75524 64.56409 133.76233 64.56842 133.76673 64.57112 C 133.77114 64.57384 133.77823 64.57823 133.78264 64.58095 C 133.78704 64.58366 133.79413 64.58804 133.79854 64.59077 C 133.80295 64.59352 133.81003 64.59795 133.81444 64.6007 C 133.81885 64.60344 133.82593 64.60793 133.83034 64.61072 C 133.83475 64.6135 133.84183 64.61795 133.84624 64.62074 C 133.85065 64.62354 133.85773 64.62807 133.86214 64.63089 C 133.86655 64.6337 133.87363 64.63821 133.87804 64.64104 C 133.88245 64.64386 133.88953 64.64844 133.89394 64.65129 C 133.89835 64.65413 133.90543 64.65877 133.90984 64.66162 C 133.91425 64.66447 133.92134 64.6691 133.92574 64.672 C 133.93015 64.67488 133.93724 64.67958 133.94165 64.68248 C 133.94606 64.68538 133.95314 64.69006 133.95755 64.69298 C 133.96196 64.6959 133.96904 64.70064 133.97345 64.70358 C 133.97786 64.70653 133.98494 64.71133 133.98935 64.7143 C 133.99376 64.71725 134.00084 64.72205 134.00525 64.72505 C 134.00966 64.72804 134.01674 64.7329 134.02115 64.7359 C 134.02556 64.7389 134.03264 64.74377 134.03705 64.74681 C 134.04146 64.74985 134.04854 64.75476 134.05295 64.75783 C 134.05736 64.76088 134.06446 64.76585 134.06885 64.76894 C 134.07326 64.77202 134.08036 64.777 134.08477 64.78009 C 134.08916 64.78319 134.09626 64.78825 134.10066 64.79138 C 134.10507 64.79453 134.11215 64.79956 134.11656 64.80272 C 134.12097 64.80586 134.12805 64.81097 134.13246 64.81415 C 134.13687 64.81732 134.14395 64.82251 134.14836 64.82571 C 134.15277 64.82892 134.15985 64.83412 134.16426 64.83736 C 134.16867 64.84059 134.17575 64.84584 134.18016 64.8491 C 134.18457 64.85237 134.19165 64.85765 134.19606 64.86093 C 134.20047 64.86421 134.20755 64.86954 134.21196 64.87286 C 134.21637 64.8762 134.22347 64.88158 134.22788 64.88493 C 134.23227 64.8883 134.23937 64.8937 134.24378 64.8971 C 134.24819 64.9005 134.25527 64.90598 134.25968 64.9094 C 134.26409 64.91283 134.27117 64.91833 134.27558 64.92177 C 134.27999 64.92522 134.28707 64.93077 134.29148 64.93425 C 134.29589 64.93773 134.30297 64.9434 134.30738 64.94691 C 134.31179 64.95042 134.31887 64.95612 134.32328 64.95967 C 134.32769 64.96323 134.33477 64.969 134.33917 64.97258 C 134.34358 64.97617 134.35066 64.98198 134.35507 64.9856 C 134.35948 64.98921 134.36658 64.99507 134.37097 64.99875 C 134.37538 65.00241 134.38248 65.00835 134.38689 65.01205 C 134.39128 65.01576 134.39838 65.02174 134.40279 65.02548 C 134.4072 65.02922 134.41428 65.03534 134.41869 65.03912 C 134.4231 65.04291 134.43018 65.04901 134.43459 65.05284 C 134.439 65.05667 134.44608 65.06287 134.45049 65.06674 C 134.4549 65.07062 134.46198 65.07692 134.46639 65.08084 C 134.4708 65.08476 134.47788 65.09113 134.48229 65.0951 C 134.4867 65.09906 134.49378 65.10551 134.49819 65.10954 C 134.5026 65.11357 134.50968 65.12007 134.51409 65.12415 C 134.5185 65.12822 134.52559 65.13481 134.53 65.13895 C 134.5344 65.14308 134.54149 65.14981 134.5459 65.15399 C 134.55031 65.15816 134.55739 65.16495 134.5618 65.16919 C 134.56621 65.17343 134.57329 65.18034 134.5777 65.18466 C 134.5821 65.18898 134.58919 65.19594 134.5936 65.2003 C 134.598 65.20467 134.60509 65.21175 134.6095 65.21619 C 134.6139 65.22063 134.62099 65.22783 134.6254 65.23235 C 134.6298 65.23686 134.63689 65.24416 134.6413 65.24875 C 134.6457 65.25334 134.65279 65.26079 134.6572 65.26546 C 134.6616 65.27013 134.6687 65.27766 134.6731 65.2824 C 134.6775 65.28712 134.6846 65.29478 134.68901 65.29962 C 134.6934 65.30446 134.7005 65.31233 134.70491 65.31725 C 134.70932 65.32214 134.7164 65.3301 134.72081 65.33511 C 134.72522 65.34013 134.7323 65.3483 134.73671 65.35341 C 134.74112 65.3585 134.7482 65.3668 134.75261 65.37202 C 134.75702 65.37724 134.7641 65.38571 134.76851 65.39104 C 134.77292 65.39638 134.78 65.40508 134.78441 65.41054 C 134.78882 65.41599 134.7959 65.4248 134.80031 65.43039 C 134.80472 65.43596 134.8118 65.4451 134.81621 65.45082 C 134.82062 65.45653 134.82772 65.46582 134.83213 65.4717 C 134.83652 65.47755 134.84362 65.48709 134.84803 65.49312 C 134.85243 65.49916 134.85951 65.50902 134.86392 65.51521 C 134.86833 65.52142 134.87541 65.53152 134.87982 65.53792 C 134.88423 65.54433 134.89131 65.55481 134.89572 65.56143 C 134.90013 65.56804 134.90721 65.57883 134.91162 65.58568 C 134.91603 65.59251 134.92311 65.60364 134.92752 65.61075 C 134.93193 65.61784 134.93901 65.62952 134.94342 65.6369 C 134.94783 65.64429 134.95491 65.65636 134.95932 65.6641 C 134.96373 65.67181 134.97083 65.68456 134.97522 65.69266 C 134.97963 65.70076 134.98673 65.71399 134.99114 65.7225 C 134.99553 65.73102 135.00263 65.74504 135.00704 65.7541 C 135.01145 65.76315 135.01853 65.77818 135.02294 65.78784 C 135.02735 65.79752 135.03443 65.81343 135.03884 65.82387 C 135.04325 65.83432 135.05033 65.85173 135.05474 65.86316 C 135.05915 65.87459 135.06623 65.89359 135.07064 65.90634 C 135.07505 65.9191 135.08213 65.94037 135.08654 65.95512 C 135.09095 65.9699 135.09803 65.99461 135.10243 66.01279 C 135.10684 66.03098 135.11392 66.05818 135.11833 66.0862 C 135.12274 66.11421 135.13425 66.21483 135.13425 66.21483 "/>
<path transform="matrix(1,0,0,-1,.199,174.48)" stroke-width="1.19553" stroke-linecap="butt" stroke-miterlimit="10" stroke-linejoin="miter" fill="none" stroke="#000080" d="M 54.67287 22.73685 C 54.67287 22.73685 55.29263 21.52074 55.53065 21.20668 C 55.76869 20.89262 56.15044 20.65224 56.38846 20.47331 C 56.6265 20.2944 57.00824 20.05841 57.24626 19.91713 C 57.4843 19.77583 57.86601 19.57469 58.10405 19.45499 C 58.34209 19.33527 58.72382 19.15926 58.96185 19.05421 C 59.19989 18.94917 59.58162 18.79198 59.81966 18.69785 C 60.0577 18.60371 60.43942 18.46126 60.67746 18.3757 C 60.9155 18.29015 61.29721 18.1597 61.53525 18.08115 C 61.77327 18.0026 62.15501 17.8822 62.39305 17.80956 C 62.63107 17.73691 63.01282 17.62506 63.25085 17.55746 C 63.48888 17.48988 63.8706 17.38554 64.10864 17.32237 C 64.34666 17.25922 64.72841 17.16144 64.96643 17.10222 C 65.20447 17.04298 65.58621 16.95113 65.82423 16.89542 C 66.06227 16.83969 66.44402 16.75316 66.68204 16.70065 C 66.92007 16.64815 67.3018 16.56647 67.53984 16.51686 C 67.77788 16.46725 68.15959 16.39005 68.39763 16.34314 C 68.63567 16.29622 69.0174 16.22314 69.25543 16.17873 C 69.49347 16.13431 69.8752 16.06505 70.11324 16.02295 C 70.35127 15.98087 70.733 15.9152 70.97104 15.87527 C 71.20908 15.83536 71.5908 15.77306 71.82884 15.7352 C 72.06686 15.69733 72.4486 15.63823 72.68663 15.6023 C 72.92465 15.56638 73.3064 15.51028 73.54443 15.47618 C 73.78246 15.4421 74.1642 15.38887 74.40224 15.35654 C 74.64026 15.32419 75.022 15.2737 75.26003 15.24303 C 75.49806 15.21237 75.87979 15.16452 76.11781 15.13545 C 76.35585 15.10638 76.7376 15.06104 76.97562 15.03352 C 77.21365 15.006 77.59538 14.96307 77.83342 14.93703 C 78.07146 14.911 78.45319 14.8704 78.69122 14.84581 C 78.92926 14.82121 79.31099 14.78287 79.54903 14.75966 C 79.78706 14.73643 80.16878 14.7003 80.40681 14.67845 C 80.64485 14.65659 81.02658 14.62256 81.26462 14.602 C 81.50266 14.58145 81.88438 14.5495 82.12242 14.53023 C 82.36044 14.51096 82.74219 14.481 82.98022 14.46297 C 83.21825 14.44495 83.59999 14.41699 83.83803 14.40018 C 84.07605 14.38336 84.45778 14.35732 84.6958 14.34169 C 84.93384 14.32607 85.31558 14.30193 85.5536 14.28746 C 85.79164 14.27301 86.17339 14.25073 86.4114 14.23743 C 86.64944 14.2241 87.03117 14.20364 87.2692 14.19147 C 87.50723 14.17929 87.88896 14.16061 88.127 14.14955 C 88.36504 14.13849 88.74677 14.1216 88.9848 14.11162 C 89.22284 14.10165 89.60457 14.08652 89.8426 14.07762 C 90.08064 14.06873 90.46237 14.05531 90.70041 14.0475 C 90.93845 14.03969 91.32016 14.02798 91.5582 14.02124 C 91.79623 14.01448 92.17796 14.00447 92.416 13.99876 C 92.65402 13.99306 93.03577 13.98474 93.2738 13.9801 C 93.51183 13.97545 93.89357 13.9688 94.1316 13.96518 C 94.36963 13.96156 94.75137 13.95657 94.9894 13.95401 C 95.22743 13.95145 95.60916 13.9481 95.84718 13.94658 C 96.08522 13.94504 96.46696 13.94336 96.70499 13.94286 C 96.94302 13.94235 97.32477 13.94235 97.56279 13.94286 C 97.80083 13.94336 98.18256 13.94502 98.4206 13.94656 C 98.65863 13.94809 99.04034 13.95145 99.27838 13.95401 C 99.51642 13.95657 99.89815 13.96156 100.13618 13.96516 C 100.37422 13.96877 100.75595 13.97542 100.99399 13.98007 C 101.23203 13.98471 101.61375 13.99303 101.85179 13.99873 C 102.08981 14.00444 102.47156 14.01443 102.7096 14.0212 C 102.94762 14.02794 103.32935 14.03964 103.56738 14.04745 C 103.8054 14.05527 104.18715 14.06868 104.42519 14.07758 C 104.66321 14.08647 105.04495 14.1016 105.28297 14.11156 C 105.52101 14.12154 105.90276 14.13843 106.14078 14.14949 C 106.37881 14.16055 106.76056 14.17923 106.99858 14.1914 C 107.23662 14.20358 107.61833 14.22403 107.85637 14.23735 C 108.0944 14.25066 108.47614 14.27293 108.71417 14.28738 C 108.95221 14.30185 109.33394 14.32599 109.57198 14.34161 C 109.81001 14.35724 110.19174 14.38327 110.42978 14.40009 C 110.66782 14.4169 111.04953 14.44485 111.28757 14.46288 C 111.5256 14.48091 111.90733 14.51085 112.14537 14.53012 C 112.38339 14.5494 112.76514 14.58133 113.00317 14.60188 C 113.2412 14.62244 113.62294 14.65646 113.86098 14.67833 C 114.099 14.70018 114.48074 14.73631 114.71878 14.75954 C 114.9568 14.78275 115.33853 14.82108 115.57655 14.84567 C 115.81459 14.87027 116.19633 14.91086 116.43436 14.93689 C 116.6724 14.96294 117.05414 15.00584 117.29216 15.03337 C 117.5302 15.06088 117.91193 15.10622 118.14996 15.13528 C 118.388 15.16435 118.76973 15.2122 119.00777 15.24286 C 119.2458 15.27353 119.62752 15.324 119.86555 15.35635 C 120.10359 15.38869 120.48532 15.4419 120.72336 15.47598 C 120.9614 15.51009 121.34312 15.56618 121.58116 15.6021 C 121.8192 15.63803 122.20093 15.69711 122.43896 15.73499 C 122.67699 15.77286 123.05872 15.83513 123.29675 15.87506 C 123.53477 15.91498 123.91652 15.98064 124.15456 16.02272 C 124.39258 16.06482 124.77432 16.13405 125.01234 16.17847 C 125.25038 16.22289 125.63213 16.29596 125.87015 16.34288 C 126.10818 16.38979 126.48993 16.46701 126.72795 16.51659 C 126.96599 16.56618 127.34772 16.64786 127.58574 16.70036 C 127.82378 16.75288 128.2055 16.8394 128.44355 16.89511 C 128.68158 16.9508 129.06331 17.04268 129.30135 17.1019 C 129.53939 17.16113 129.92111 17.25888 130.15915 17.32202 C 130.39719 17.38518 130.77892 17.48953 131.01696 17.55711 C 131.25499 17.62468 131.6367 17.7365 131.87474 17.80914 C 132.11278 17.88179 132.4945 18.0022 132.73255 18.08072 C 132.97057 18.15926 133.35231 18.28969 133.59035 18.37523 C 133.82837 18.46077 134.2101 18.6032 134.44814 18.69731 C 134.68616 18.79143 135.0679 18.94861 135.30593 19.05363 C 135.54396 19.15866 135.9257 19.33463 136.16373 19.45433 C 136.40177 19.57404 136.78351 19.77512 137.02153 19.91637 C 137.25957 20.0576 137.6413 20.29352 137.87932 20.47237 C 138.11736 20.6512 138.49909 20.89223 138.73712 21.2053 C 138.97516 21.51839 139.59493 22.72888 139.59493 22.72888 "/>
<path transform="matrix(1,0,0,-1,.199,174.48)" stroke-width="1.19553" stroke-linecap="butt" stroke-miterlimit="10" stroke-linejoin="miter" fill="none" stroke="#000080" d="M 54.81163 21.61493 L 54.81163 67.72678 "/>
<path transform="matrix(1,0,0,-1,.199,174.48)" stroke-width="1.19553" stroke-linecap="butt" stroke-miterlimit="10" stroke-linejoin="miter" fill="none" stroke="#000080" d="M 139.45748 21.61493 L 139.45748 67.72678 "/>
</g>
<symbol id="font_6_1">
<path d="M .57600006 0 C .59300008 0 .611 0 .611 .019999996 C .611 .040000008 .59300008 .040000008 .57600006 .040000008 L .035000005 .040000008 C .018 .040000008 0 .040000008 0 .019999996 C 0 0 .018 0 .035000005 0 L .57600006 0 Z "/>
</symbol>
<use xlink:href="#font_6_1" transform="matrix(9.9626,0,0,-9.9626,22.413897,161.1986)"/>
<symbol id="font_7_2">
<path d="M .07700001 .07700001 L .18300002 .18 C .33900003 .31800003 .39900003 .372 .39900003 .47200004 C .39900003 .586 .30900003 .666 .18700002 .666 C .074 .666 0 .574 0 .485 C 0 .42900003 .05 .42900003 .053000008 .42900003 C .07000001 .42900003 .105000007 .441 .105000007 .48200003 C .105000007 .508 .08700001 .53400006 .052000006 .53400006 C .044000005 .53400006 .042000008 .53400006 .039 .53300008 C .062000004 .59800007 .11600001 .63500007 .17400001 .63500007 C .26500003 .63500007 .308 .554 .308 .47200004 C .308 .39200003 .25800003 .31300003 .20300003 .25100003 L .011000004 .037 C 0 .026 0 .024 0 0 L .37100003 0 L .39900003 .17400001 L .374 .17400001 C .36900003 .14400001 .36200003 .1 .352 .085 C .345 .07700001 .279 .07700001 .257 .07700001 L .07700001 .07700001 Z "/>
</symbol>
<use xlink:href="#font_7_2" transform="matrix(9.9626,0,0,-9.9626,29.83313,163.48999)"/>
<use xlink:href="#font_6_1" transform="matrix(9.9626,0,0,-9.9626,57.103899,161.1986)"/>
<symbol id="font_7_1">
<path d="M .205 .64000007 C .205 .66400006 .205 .666 .18200003 .666 C .120000008 .60200008 .032000007 .60200008 0 .60200008 L 0 .57100006 C .020000004 .57100006 .07900001 .57100006 .13100001 .597 L .13100001 .079 C .13100001 .043 .128 .031000002 .038000004 .031000002 L .0060000049 .031000002 L .0060000049 0 C .04100001 .003 .128 .003 .168 .003 C .20800002 .003 .29500003 .003 .33000005 0 L .33000005 .031000002 L .29800005 .031000002 C .20800002 .031000002 .205 .042000005 .205 .079 L .205 .64000007 Z "/>
</symbol>
<use xlink:href="#font_7_1" transform="matrix(9.9626,0,0,-9.9626,64.912677,163.48999)"/>
<use xlink:href="#font_7_1" transform="matrix(9.9626,0,0,-9.9626,130.41867,163.48999)"/>
<use xlink:href="#font_7_2" transform="matrix(9.9626,0,0,-9.9626,164.72113,163.48999)"/>
<use xlink:href="#font_7_1" transform="matrix(9.9626,0,0,-9.9626,87.59167,125.81499)"/>
<use xlink:href="#font_7_2" transform="matrix(9.9626,0,0,-9.9626,87.203128,96.99499)"/>
<symbol id="font_7_3">
<path d="M .24800003 .37400005 C .33 .40100003 .388 .47100006 .388 .55 C .388 .632 .3 .688 .204 .688 C .10300001 .688 .027000003 .628 .027000003 .55200007 C .027000003 .519 .049000004 .5 .078 .5 C .109000008 .5 .12900001 .522 .12900001 .55100008 C .12900001 .6010001 .082 .6010001 .067 .6010001 C .098 .65000006 .164 .66300007 .20000002 .66300007 C .24100003 .66300007 .29600004 .64100006 .29600004 .55100008 C .29600004 .53900006 .29400004 .48100005 .268 .43700005 C .238 .38900004 .204 .38600005 .17900002 .38500003 C .171 .38400004 .14700002 .38200004 .14000002 .38200004 C .132 .38100005 .125 .38000003 .125 .37000004 C .125 .35900004 .132 .35900004 .14900002 .35900004 L .19300002 .35900004 C .275 .35900004 .312 .29100005 .312 .193 C .312 .057000005 .24300003 .028 .199 .028 C .15600002 .028 .081 .045 .046000005 .104 C .081 .09900001 .11200001 .12100001 .11200001 .15900001 C .11200001 .19500001 .085 .215 .056 .215 C .031999999 .215 0 .201 0 .157 C 0 .06600001 .093 0 .20200002 0 C .32400004 0 .41500003 .091000009 .41500003 .193 C .41500003 .27500005 .35200004 .35300005 .24800003 .37400005 Z "/>
</symbol>
<use xlink:href="#font_7_3" transform="matrix(9.9626,0,0,-9.9626,87.12342,68.395168)"/>
<symbol id="font_7_4">
<path d="M .266 .165 L .266 .078 C .266 .042000005 .26400004 .031000002 .19000001 .031000002 L .16900002 .031000002 L .16900002 0 C .21000001 .003 .26200003 .003 .30400003 .003 C .34600003 .003 .39900003 .003 .44000004 0 L .44000004 .031000002 L .41900004 .031000002 C .34500004 .031000002 .34300003 .042000005 .34300003 .078 L .34300003 .165 L .44300003 .165 L .44300003 .19600001 L .34300003 .19600001 L .34300003 .651 C .34300003 .671 .34300003 .67700007 .32700003 .67700007 C .31800003 .67700007 .31500004 .67700007 .307 .665 L 0 .19600001 L 0 .165 L .266 .165 M .272 .19600001 L .028 .19600001 L .272 .569 L .272 .19600001 Z "/>
</symbol>
<use xlink:href="#font_7_4" transform="matrix(9.9626,0,0,-9.9626,86.98395,39.356004)"/>
<symbol id="font_8_1">
<path d="M .305 .31300003 C .311 .33900003 .334 .43100003 .404 .43100003 C .409 .43100003 .433 .43100003 .454 .418 C .426 .41300003 .40600003 .388 .40600003 .36400003 C .40600003 .34800003 .417 .32900004 .444 .32900004 C .46600003 .32900004 .498 .34700004 .498 .38700003 C .498 .43900005 .439 .45300005 .405 .45300005 C .347 .45300005 .312 .40000005 .3 .37700004 C .275 .44300003 .221 .45300005 .19200002 .45300005 C .08800001 .45300005 .031000002 .32400004 .031000002 .29900003 C .031000002 .28900004 .041 .28900004 .043000007 .28900004 C .051000008 .28900004 .054000006 .291 .056 .3 C .09 .40600003 .156 .43100003 .19000001 .43100003 C .209 .43100003 .244 .42200003 .244 .36400003 C .244 .33300004 .22700002 .26600004 .19000001 .126 C .17400001 .064 .13900002 .022000002 .095000009 .022000002 C .08900001 .022000002 .06600001 .022000002 .045 .035 C .07000001 .040000004 .09200001 .061 .09200001 .089 C .09200001 .116000007 .07000001 .124000009 .055000009 .124000009 C .025 .124000009 0 .098000008 0 .06600001 C 0 .020000002 .050000006 0 .094000007 0 C .16000001 0 .19600001 .07000001 .19900002 .076000008 C .21100001 .039 .24700003 0 .307 0 C .41 0 .467 .12900001 .467 .15400002 C .467 .16400002 .458 .16400002 .455 .16400002 C .446 .16400002 .444 .16000001 .442 .15300001 C .409 .046 .341 .022000002 .30900003 .022000002 C .27 .022000002 .254 .054 .254 .08800001 C .254 .11000001 .26 .13200002 .271 .17600002 L .305 .31300003 Z "/>
</symbol>
<use xlink:href="#font_8_1" transform="matrix(9.9626,0,0,-9.9626,198.31792,153.67359)"/>
<symbol id="font_8_2">
<path d="M .45700003 .586 C .461 .6 .461 .602 .461 .609 C .461 .62700006 .447 .63600006 .432 .63600006 C .42200003 .63600006 .40600003 .63 .397 .615 C .395 .61 .387 .579 .38300003 .561 C .37600003 .535 .36900003 .508 .363 .48100005 L .318 .301 C .314 .286 .271 .21600002 .20500002 .21600002 C .15400002 .21600002 .143 .26000003 .143 .29700003 C .143 .34300003 .16000001 .40500004 .194 .49300004 C .21000001 .53400006 .21400002 .545 .21400002 .56500008 C .21400002 .61 .18200001 .6470001 .13200002 .6470001 C .037 .6470001 0 .50200006 0 .49300004 C 0 .48300005 .01 .48300005 .012 .48300005 C .022000002 .48300005 .023 .485 .028000003 .50100007 C .055000009 .595 .095000009 .625 .12900001 .625 C .13700001 .625 .15400002 .625 .15400002 .59300008 C .15400002 .568 .14400001 .54200008 .13700001 .523 C .097 .41700004 .079 .36 .079 .31300003 C .079 .224 .142 .194 .201 .194 C .24000003 .194 .274 .21100001 .30200003 .23900002 C .289 .187 .277 .13800001 .237 .08500001 C .21100001 .051 .17300001 .022 .127 .022 C .113000009 .022 .068 .025000006 .051000008 .06400001 C .067 .06400001 .080000009 .06400001 .094000007 .076000008 C .104 .08500001 .11400001 .098000008 .11400001 .117000009 C .11400001 .148 .087000008 .15200001 .07700001 .15200001 C .054000006 .15200001 .021 .136 .021 .087000008 C .021 .037 .065000008 0 .127 0 C .23 0 .333 .091000009 .361 .20400001 L .45700003 .586 Z "/>
</symbol>
<use xlink:href="#font_8_2" transform="matrix(9.9626,0,0,-9.9626,95.015918,9.652334)"/>
<path transform="matrix(1,0,0,-1,.199,174.48)" stroke-width="1" stroke-linecap="butt" stroke-miterlimit="10" stroke-linejoin="miter" fill="none" stroke="#808080" d="M 27.75273 20.92998 L 27.75273 25.18184 M 62.44363 20.92998 L 62.44363 25.18184 M 131.82547 20.92998 L 131.82547 25.18184 M 166.51639 20.92998 L 166.51639 25.18184 "/>
<path transform="matrix(1,0,0,-1,.199,174.48)" stroke-width="1" stroke-linecap="butt" stroke-miterlimit="10" stroke-linejoin="miter" fill="none" stroke="#808080" d="M 95.00845 51.87582 L 99.26064 51.87582 M 95.00845 80.69574 L 99.26064 80.69574 M 95.00845 109.51566 L 99.26064 109.51566 M 95.00845 138.33556 L 99.26064 138.33556 "/>
<path transform="matrix(1,0,0,-1,.199,174.48)" stroke-width="1" stroke-linecap="butt" stroke-miterlimit="10" stroke-linejoin="miter" fill="none" stroke="#000000" d="M 0 23.05592 L 192.2766 23.05592 "/>
<path transform="matrix(1,0,0,-1,192.4756,151.42407)" d="M 1.99252 0 L -1.19551 1.59401 L 0 0 L -1.19551 -1.59401 "/>
<path transform="matrix(1,0,0,-1,.199,174.48)" stroke-width="1" stroke-linecap="butt" stroke-miterlimit="10" stroke-linejoin="miter" fill="none" stroke="#000000" d="M 97.13455 0 L 97.13455 159.39897 "/>
<path transform="matrix(0,-1,-1,-0,97.33355,15.081024)" d="M 1.99252 0 L -1.19551 1.59401 L 0 0 L -1.19551 -1.59401 "/>
</svg>
