<?xml version="1.0" encoding="UTF-8" standalone="no"?>
<!DOCTYPE svg PUBLIC "-//W3C//DTD SVG 1.1//EN" "http://www.w3.org/Graphics/SVG/1.1/DTD/svg11.dtd">
<svg xmlns="http://www.w3.org/2000/svg" xmlns:xlink="http://www.w3.org/1999/xlink" version="1.1" width="207.25pt" height="174.864pt" viewBox="0 0 207.25 174.864">
<clipPath id="cp0">
<path transform="matrix(1,0,0,-1,.199,174.665)" d="M 0 0 L 194.27368 0 L 194.27368 161.39667 L 0 161.39667 Z "/>
</clipPath>
<g clip-path="url(#cp0)">
<path transform="matrix(1,0,0,-1,.199,174.665)" d="M 69.93852 123.17113 L 70.72342 123.17113 L 71.50833 123.17113 L 72.29324 123.17113 L 73.07816 123.17113 L 73.86307 123.17113 L 74.6479 123.17113 L 75.43282 123.17113 L 76.21773 123.17113 L 77.00264 123.17113 L 77.78754 123.17113 L 78.57245 123.17113 L 79.35736 123.17113 L 80.14227 123.17113 L 80.92717 123.17113 L 81.71208 123.17113 L 82.49693 123.17113 L 83.28185 123.17113 L 84.06676 123.17113 L 84.85165 123.17113 L 85.63657 123.17113 L 86.42148 123.17113 L 87.20639 123.17113 L 87.99129 123.17113 L 88.7762 123.17113 L 89.56111 123.17113 L 90.34596 123.17113 L 91.13086 123.17113 L 91.91577 123.17113 L 92.70068 123.17113 L 93.4856 123.17113 L 94.27051 123.17113 L 95.0554 123.17113 L 95.84032 123.17113 L 96.62523 123.17113 L 97.4101 123.17113 L 98.19499 123.17113 L 98.9799 123.17113 L 99.76482 123.17113 L 100.54973 123.17113 L 101.33463 123.17113 L 102.11954 123.17113 L 102.90445 123.17113 L 103.68936 123.17113 L 104.47427 123.17113 L 105.25911 123.17113 L 106.04402 123.17113 L 106.82893 123.17113 L 107.61385 123.17113 L 108.39874 123.17113 L 109.18365 123.17113 L 109.96857 123.17113 L 110.75348 123.17113 L 111.53838 123.17113 L 112.32329 123.17113 L 113.10814 123.17113 L 113.89305 123.17113 L 114.67796 123.17113 L 115.46286 123.17113 L 116.24777 123.17113 L 117.03268 123.17113 L 117.8176 123.17113 L 118.6025 123.17113 L 119.3874 123.17113 L 120.17232 123.17113 L 120.95723 123.17113 L 121.74207 123.17113 L 122.52698 123.17113 L 123.3119 123.17113 L 124.09682 123.17113 L 124.88171 123.17113 L 125.66663 123.17113 L 126.45154 123.17113 L 127.23645 123.17113 L 128.02136 123.17113 L 128.80626 123.17113 L 129.59111 123.17113 L 130.37602 123.17113 L 131.16094 123.17113 L 131.94583 123.17113 L 132.73075 123.17113 L 133.51566 123.17113 L 134.30057 123.17113 L 135.08547 123.17113 L 135.87038 123.17113 L 136.65529 123.17113 L 137.44014 123.17113 L 138.22505 123.17113 L 139.00995 123.17113 L 139.79486 123.17113 L 140.57978 123.17113 L 141.36469 123.17113 L 142.14958 123.17113 L 142.9345 123.17113 L 143.7194 123.17113 L 144.50426 123.17113 L 145.28916 123.17113 L 146.07407 123.17113 L 146.85898 123.17113 L 147.64389 123.17113 L 108.78915 16.98912 L 108.39673 16.98912 L 108.0043 16.98912 L 107.61188 16.98912 L 107.21945 16.98912 L 106.82697 16.98912 L 106.43454 16.98912 L 106.04213 16.98912 L 105.6497 16.98912 L 105.25728 16.98912 L 104.86485 16.98912 L 104.47243 16.98912 L 104.08 16.98912 L 103.68758 16.98912 L 103.29509 16.98912 L 102.90266 16.98912 L 102.51025 16.98912 L 102.11783 16.98912 L 101.7254 16.98912 L 101.33296 16.98912 L 100.94054 16.98912 L 100.54811 16.98912 L 100.15569 16.98912 L 99.76326 16.98912 L 99.37083 16.98912 L 98.97836 16.98912 L 98.58594 16.98912 L 98.19351 16.98912 L 97.80109 16.98912 L 97.40866 16.98912 L 97.01624 16.98912 L 96.62381 16.98912 L 96.23138 16.98912 L 95.83896 16.98912 L 95.44649 16.98912 L 95.05406 16.98912 L 94.66164 16.98912 L 94.26921 16.98912 L 93.87679 16.98912 L 93.48434 16.98912 L 93.09192 16.98912 L 92.6995 16.98912 L 92.30707 16.98912 L 91.91466 16.98912 L 91.52223 16.98912 L 91.12975 16.98912 L 90.73732 16.98912 L 90.3449 16.98912 L 89.95247 16.98912 L 89.56004 16.98912 L 89.16762 16.98912 L 88.77519 16.98912 L 88.38278 16.98912 L 87.99036 16.98912 L 87.59787 16.98912 L 87.20544 16.98912 L 86.81302 16.98912 L 86.4206 16.98912 L 86.02817 16.98912 L 85.63573 16.98912 L 85.2433 16.98912 L 84.85089 16.98912 L 84.45847 16.98912 L 84.06604 16.98912 L 83.67361 16.98912 L 83.28113 16.98912 L 82.8887 16.98912 L 82.49628 16.98912 L 82.10385 16.98912 L 81.71143 16.98912 L 81.31902 16.98912 L 80.92659 16.98912 L 80.53416 16.98912 L 80.14174 16.98912 L 79.74925 16.98912 L 79.35683 16.98912 L 78.9644 16.98912 L 78.57198 16.98912 L 78.17955 16.98912 L 77.78712 16.98912 L 77.3947 16.98912 L 77.00227 16.98912 L 76.60985 16.98912 L 76.21742 16.98912 L 75.825 16.98912 L 75.43251 16.98912 L 75.04008 16.98912 L 74.64766 16.98912 L 74.25525 16.98912 L 73.86282 16.98912 L 73.4704 16.98912 L 73.07797 16.98912 L 72.68555 16.98912 L 72.29312 16.98912 L 71.90063 16.98912 L 71.50821 16.98912 L 71.11578 16.98912 L 70.72337 16.98912 L 70.33095 16.98912 L 69.93852 16.98912 Z " fill="#cccce6"/>
</g>
<clipPath id="cp1">
<path transform="matrix(1,0,0,-1,.199,174.665)" d="M 0 0 L 194.27368 0 L 194.27368 161.39667 L 0 161.39667 Z "/>
</clipPath>
<g clip-path="url(#cp1)">
<path transform="matrix(1,0,0,-1,.199,174.665)" d="M 108.79326 16.98912 L 110.41216 20.5653 L 112.03107 24.21521 L 113.65002 27.939 L 115.26894 31.73639 L 116.88785 35.60748 L 118.50676 39.55234 L 120.12566 43.57092 L 121.74463 47.66339 L 123.36353 51.82947 L 124.98245 56.06926 L 126.60135 60.38278 L 128.22026 64.77005 L 129.83922 69.23119 L 131.45813 73.76593 L 133.07704 78.37439 L 134.69596 83.0566 L 136.31485 87.81253 L 137.93383 92.64236 L 139.55274 97.54576 L 141.17165 102.52292 L 142.79055 107.57379 L 144.40946 112.69838 L 146.02841 117.89693 L 147.64734 123.16899 L 147.64389 123.17113 L 146.85898 123.17113 L 146.07407 123.17113 L 145.28916 123.17113 L 144.50426 123.17113 L 143.7194 123.17113 L 142.9345 123.17113 L 142.14958 123.17113 L 141.36469 123.17113 L 140.57978 123.17113 L 139.79486 123.17113 L 139.00995 123.17113 L 138.22505 123.17113 L 137.44014 123.17113 L 136.65529 123.17113 L 135.87038 123.17113 L 135.08547 123.17113 L 134.30057 123.17113 L 133.51566 123.17113 L 132.73075 123.17113 L 131.94583 123.17113 L 131.16094 123.17113 L 130.37602 123.17113 L 129.59111 123.17113 L 128.80626 123.17113 L 128.02136 123.17113 L 127.23645 123.17113 L 126.45154 123.17113 L 125.66663 123.17113 L 124.88171 123.17113 L 124.09682 123.17113 L 123.3119 123.17113 L 122.52698 123.17113 L 121.74207 123.17113 L 120.95723 123.17113 L 120.17232 123.17113 L 119.3874 123.17113 L 118.6025 123.17113 L 117.8176 123.17113 L 117.03268 123.17113 L 116.24777 123.17113 L 115.46286 123.17113 L 114.67796 123.17113 L 113.89305 123.17113 L 113.10814 123.17113 L 112.32329 123.17113 L 111.53838 123.17113 L 110.75348 123.17113 L 109.96857 123.17113 L 109.18365 123.17113 L 108.39874 123.17113 L 107.61385 123.17113 L 106.82893 123.17113 L 106.04402 123.17113 L 105.25911 123.17113 L 104.47427 123.17113 L 103.68936 123.17113 L 102.90445 123.17113 L 102.11954 123.17113 L 101.33463 123.17113 L 100.54973 123.17113 L 99.76482 123.17113 L 98.9799 123.17113 L 98.19499 123.17113 L 97.4101 123.17113 L 96.62523 123.17113 L 95.84032 123.17113 L 95.0554 123.17113 L 94.27051 123.17113 L 93.4856 123.17113 L 92.70068 123.17113 L 91.91577 123.17113 L 91.13086 123.17113 L 90.34596 123.17113 L 89.56111 123.17113 L 88.7762 123.17113 L 87.99129 123.17113 L 87.20639 123.17113 L 86.42148 123.17113 L 85.63657 123.17113 L 84.85165 123.17113 L 84.06676 123.17113 L 83.28185 123.17113 L 82.49693 123.17113 L 81.71208 123.17113 L 80.92717 123.17113 L 80.14227 123.17113 L 79.35736 123.17113 L 78.57245 123.17113 L 77.78754 123.17113 L 77.00264 123.17113 L 76.21773 123.17113 L 75.43282 123.17113 L 74.6479 123.17113 L 73.86307 123.17113 L 73.07816 123.17113 L 72.29324 123.17113 L 71.50833 123.17113 L 70.72342 123.17113 L 69.93852 123.17113 Z " fill="#cccce6"/>
</g>
<clipPath id="cp2">
<path transform="matrix(1,0,0,-1,.199,174.665)" d="M 0 0 L 194.27368 0 L 194.27368 161.39667 L 0 161.39667 Z "/>
</clipPath>
<g clip-path="url(#cp2)">
<path transform="matrix(1,0,0,-1,.199,174.665)" stroke-width="1.19553" stroke-linecap="butt" stroke-miterlimit="10" stroke-linejoin="miter" fill="none" stroke="#000080" d="M 31.08379 -67.95648 C 31.08379 -67.95648 41.61104 -66.62753 45.6543 -64.97012 C 49.69756 -63.3127 56.18158 -59.32584 60.22484 -56.01102 C 64.26808 -52.6962 70.75209 -46.0514 74.79535 -41.07918 C 78.83861 -36.10693 85.32263 -26.80423 89.36589 -20.17459 C 93.40913 -13.54494 99.89314 -1.5843 103.9364 6.70273 C 107.97966 14.98978 114.46368 29.60832 118.50694 39.5528 C 122.5502 49.49725 129.0342 66.7737 133.07746 78.37558 C 137.12071 89.97748 143.60474 109.91183 147.648 123.17113 C 151.69126 136.43044 158.17527 159.02269 162.2185 173.9394 C 166.26177 188.85611 172.74579 214.1063 176.78905 230.68042 C 180.8323 247.25455 187.31632 275.16264 191.35956 293.39418 C 195.40282 311.62574 201.88684 342.19175 205.9301 362.08067 C 209.97336 381.96965 216.45737 415.19355 220.50061 436.7399 C 224.54387 458.28627 231.0279 494.1681 235.07115 517.3719 C 239.11441 540.5756 245.59842 579.1154 249.64167 603.97659 C 253.68492 628.83779 260.16896 670.0354 264.2122 696.554 C 268.25547 723.07266 274.73948 766.9282 278.7827 795.10427 C 282.82597 823.2802 289.31 869.7937 293.35328 899.62716 C 297.3965 929.4606 303.88053 978.63198 307.92378 1010.1228 C 311.96705 1041.6137 318.45106 1093.443 322.49433 1126.5912 C 326.53758 1159.7395 333.02159 1214.2267 337.06483 1249.0324 C 341.1081 1283.838 347.5921 1340.9832 351.63536 1377.4463 C 355.67863 1413.9093 362.16264 1473.7123 366.20588 1511.8329 C 370.2491 1549.9534 380.7764 1652.1923 380.7764 1652.1923 "/>
<path transform="matrix(1,0,0,-1,.199,174.665)" stroke-width="1.19553" stroke-linecap="butt" stroke-miterlimit="10" stroke-linejoin="miter" fill="none" stroke="#cc6600" d="M -357.46357 123.17113 C -357.46357 123.17113 -334.0698 123.17113 -325.08476 123.17113 C -316.09977 123.17113 -301.6909 123.17113 -292.7059 123.17113 C -283.7209 123.17113 -269.31205 123.17113 -260.32704 123.17113 C -251.34203 123.17113 -236.93323 123.17113 -227.94821 123.17113 C -218.96321 123.17113 -204.55437 123.17113 -195.56935 123.17113 C -186.58435 123.17113 -172.17549 123.17113 -163.19048 123.17113 C -154.20548 123.17113 -139.79663 123.17113 -130.81162 123.17113 C -121.82661 123.17113 -107.41777 123.17113 -98.43275 123.17113 C -89.44775 123.17113 -75.0389 123.17113 -66.05388 123.17113 C -57.06888 123.17113 -42.6601 123.17113 -33.67508 123.17113 C -24.69008 123.17113 -10.28122 123.17113 -1.2962 123.17113 C 7.68878 123.17113 22.09764 123.17113 31.08264 123.17113 C 40.06764 123.17113 54.47652 123.17113 63.46152 123.17113 C 72.44652 123.17113 86.85538 123.17113 95.84038 123.17113 C 104.8254 123.17113 119.23419 123.17113 128.2192 123.17113 C 137.20421 123.17113 151.61305 123.17113 160.59806 123.17113 C 169.58307 123.17113 183.99193 123.17113 192.97693 123.17113 C 201.96195 123.17113 216.37079 123.17113 225.35579 123.17113 C 234.3408 123.17113 248.7496 123.17113 257.7346 123.17113 C 266.71965 123.17113 281.12846 123.17113 290.11347 123.17113 C 299.09849 123.17113 313.50736 123.17113 322.49235 123.17113 C 331.47737 123.17113 345.8862 123.17113 354.8712 123.17113 C 363.85624 123.17113 378.26509 123.17113 387.2501 123.17113 C 396.23509 123.17113 419.62895 123.17113 419.62895 123.17113 "/>
<path transform="matrix(1,0,0,-1,.199,174.665)" stroke-width="1.19553" stroke-linecap="butt" stroke-miterlimit="10" stroke-linejoin="miter" fill="none" stroke="#800000" d="M 69.93852 -195.37491 L 69.93852 229.35315 "/>
<path transform="matrix(1,0,0,-1,.199,174.665)" stroke-width="1.19553" stroke-linecap="butt" stroke-dasharray="2.98883,2.98883" stroke-miterlimit="10" stroke-linejoin="miter" fill="none" stroke="#800000" d="M 31.08379 -195.37491 L 31.08379 229.35315 "/>
<path transform="matrix(1,0,0,-1,.199,174.665)" d="M 69.93852 59.46193 L 126.2779 59.46193 L 126.2779 65.83284 L 69.93852 65.83284 L 69.93852 59.46193 " fill="#bfbfbf"/>
<path transform="matrix(1,0,0,-1,.199,174.665)" stroke-width="1" stroke-linecap="butt" stroke-miterlimit="10" stroke-linejoin="miter" fill="none" stroke="#000000" d="M 69.93852 59.46193 L 126.2779 59.46193 L 126.2779 65.83284 L 69.93852 65.83284 L 69.93852 59.46193 "/>
<symbol id="font_3_1">
<path d="M .39500005 .698 C .38800005 .711 .38600005 .716 .36900003 .716 C .35200004 .716 .35000003 .711 .34300003 .698 L .004999999 .020000002 C 0 .011000001 0 .009000001 0 .008 C 0 0 .006000001 0 .022000004 0 L .716 0 C .73200008 0 .73800006 0 .73800006 .008 C .73800006 .009000001 .73800006 .011000001 .73300006 .020000002 L .39500005 .698 M .337 .61600008 L .60600009 .076000008 L .067 .076000008 L .337 .61600008 Z "/>
</symbol>
<use xlink:href="#font_3_1" transform="matrix(9.9626,0,0,-9.9626,133.77025,115.514987)"/>
<symbol id="font_4_4">
<path d="M .45700003 .586 C .461 .6 .461 .602 .461 .609 C .461 .62700006 .447 .63600006 .432 .63600006 C .42200003 .63600006 .40600003 .63 .397 .615 C .395 .61 .387 .579 .38300003 .561 C .37600003 .535 .36900003 .508 .363 .48100005 L .318 .301 C .314 .286 .271 .21600002 .20500002 .21600002 C .15400002 .21600002 .143 .26000003 .143 .29700003 C .143 .34300003 .16000001 .40500004 .194 .49300004 C .21000001 .53400006 .21400002 .545 .21400002 .56500008 C .21400002 .61 .18200001 .6470001 .13200002 .6470001 C .037 .6470001 0 .50200006 0 .49300004 C 0 .48300005 .01 .48300005 .012 .48300005 C .022000002 .48300005 .023 .485 .028000003 .50100007 C .055000009 .595 .095000009 .625 .12900001 .625 C .13700001 .625 .15400002 .625 .15400002 .59300008 C .15400002 .568 .14400001 .54200008 .13700001 .523 C .097 .41700004 .079 .36 .079 .31300003 C .079 .224 .142 .194 .201 .194 C .24000003 .194 .274 .21100001 .30200003 .23900002 C .289 .187 .277 .13800001 .237 .08500001 C .21100001 .051 .17300001 .022 .127 .022 C .113000009 .022 .068 .025000006 .051000008 .06400001 C .067 .06400001 .080000009 .06400001 .094000007 .076000008 C .104 .08500001 .11400001 .098000008 .11400001 .117000009 C .11400001 .148 .087000008 .15200001 .07700001 .15200001 C .054000006 .15200001 .021 .136 .021 .087000008 C .021 .037 .065000008 0 .127 0 C .23 0 .333 .091000009 .361 .20400001 L .45700003 .586 Z "/>
</symbol>
<use xlink:href="#font_4_4" transform="matrix(9.9626,0,0,-9.9626,141.8939,117.55732)"/>
<path transform="matrix(1,0,0,-1,.199,174.665)" stroke-width="1" stroke-linecap="butt" stroke-miterlimit="10" stroke-linejoin="miter" fill="none" stroke="#000080" d="M 31.08379 80.69833 L 133.66027 80.69833 "/>
<symbol id="font_4_1">
<path d="M .33400003 .63600006 C .34 .66 .343 .67 .36200003 .67300006 C .37100003 .674 .40300004 .674 .423 .674 C .49400003 .674 .605 .674 .605 .57500007 C .605 .54100009 .58900007 .47200004 .55 .43300004 C .524 .40700004 .47100003 .37500004 .381 .37500004 L .269 .37500004 L .33400003 .63600006 M .47800005 .36200003 C .579 .38400004 .698 .45400004 .698 .55500009 C .698 .64100006 .60800006 .70500007 .477 .70500007 L .192 .70500007 C .17200002 .70500007 .16300002 .70500007 .16300002 .68500009 C .16300002 .674 .17200002 .674 .19100002 .674 C .19300002 .674 .21200001 .674 .229 .67200008 C .24700001 .67 .256 .669 .256 .656 C .256 .65200009 .255 .64900007 .252 .637 L .11800001 .1 C .108 .061000006 .106 .053000004 .027000003 .053000004 C .009 .053000004 0 .053000004 0 .033000005 C 0 .022000002 .012000002 .022000002 .014000002 .022000002 C .042000005 .022000002 .11200001 .025000003 .14000002 .025000003 C .16800002 .025000003 .239 .022000002 .26700003 .022000002 C .275 .022000002 .287 .022000002 .287 .042000005 C .287 .053000004 .278 .053000004 .259 .053000004 C .222 .053000004 .194 .053000004 .194 .071 C .194 .07700001 .19600001 .082 .197 .088 L .263 .35300005 L .382 .35300005 C .473 .35300005 .491 .29700003 .491 .26200003 C .491 .24700001 .48300005 .216 .477 .193 C .47000004 .165 .46100004 .128 .46100004 .108 C .46100004 0 .58100005 0 .59400007 0 C .679 0 .71400007 .101 .71400007 .115 C .71400007 .127 .703 .127 .702 .127 C .693 .127 .69100007 .120000008 .689 .113000009 C .66400006 .039000006 .62100008 .022000002 .59800007 .022000002 C .565 .022000002 .558 .044000005 .558 .083000008 C .558 .11400001 .564 .165 .568 .19700001 C .57 .21100001 .572 .23 .572 .24400002 C .572 .32100005 .505 .35200004 .47800005 .36200003 Z "/>
</symbol>
<use xlink:href="#font_4_1" transform="matrix(9.9626,0,0,-9.9626,97.807468,91.22016)" fill="#000080"/>
<path transform="matrix(1,0,0,-1,.199,174.665)" stroke-width="1" stroke-linecap="butt" stroke-miterlimit="10" stroke-linejoin="miter" fill="none" stroke="#000080" d="M 31.08379 70.08012 L 69.93852 70.08012 "/>
<symbol id="font_4_2">
<path d="M .059000009 .07000001 C .056 .055000005 .050000006 .032 .050000006 .027000003 C .050000006 .009000001 .064 0 .079 0 C .091000009 0 .10900001 .008000001 .11600001 .028 C .118 .032 .15200001 .16800002 .156 .18600002 C .164 .21900001 .18200001 .28900004 .18800001 .316 C .19200002 .32900004 .22000002 .37600003 .244 .39800004 C .252 .40500004 .281 .43100003 .324 .43100003 C .35 .43100003 .365 .41900004 .366 .41900004 C .336 .41400004 .314 .39000003 .314 .36400003 C .314 .34800003 .325 .32900004 .352 .32900004 C .379 .32900004 .407 .35200004 .407 .388 C .407 .42300005 .375 .45300005 .324 .45300005 C .259 .45300005 .21500002 .404 .19600001 .37600003 C .18800001 .42100004 .15200001 .45300005 .105000007 .45300005 C .059000009 .45300005 .040000008 .41400004 .031000002 .39600004 C .013000002 .36200003 0 .30200003 0 .29900003 C 0 .28900004 .01 .28900004 .012 .28900004 C .022000002 .28900004 .023 .29000003 .029000001 .31200005 C .046000005 .38300003 .06600001 .43100003 .10200001 .43100003 C .119 .43100003 .133 .42300005 .133 .38500003 C .133 .36400003 .13000001 .35300002 .11700001 .30100004 L .059000009 .07000001 Z "/>
</symbol>
<use xlink:href="#font_4_2" transform="matrix(9.9626,0,0,-9.9626,87.46691,102.592578)" fill="#000080"/>
<symbol id="font_4_3">
<path d="M .305 .31300003 C .311 .33900003 .334 .43100003 .404 .43100003 C .409 .43100003 .433 .43100003 .454 .418 C .426 .41300003 .40600003 .388 .40600003 .36400003 C .40600003 .34800003 .417 .32900004 .444 .32900004 C .46600003 .32900004 .498 .34700004 .498 .38700003 C .498 .43900005 .439 .45300005 .405 .45300005 C .347 .45300005 .312 .40000005 .3 .37700004 C .275 .44300003 .221 .45300005 .19200002 .45300005 C .08800001 .45300005 .031000002 .32400004 .031000002 .29900003 C .031000002 .28900004 .041 .28900004 .043000007 .28900004 C .051000008 .28900004 .054000006 .291 .056 .3 C .09 .40600003 .156 .43100003 .19000001 .43100003 C .209 .43100003 .244 .42200003 .244 .36400003 C .244 .33300004 .22700002 .26600004 .19000001 .126 C .17400001 .064 .13900002 .022000002 .095000009 .022000002 C .08900001 .022000002 .06600001 .022000002 .045 .035 C .07000001 .040000004 .09200001 .061 .09200001 .089 C .09200001 .116000007 .07000001 .124000009 .055000009 .124000009 C .025 .124000009 0 .098000008 0 .06600001 C 0 .020000002 .050000006 0 .094000007 0 C .16000001 0 .19600001 .07000001 .19900002 .076000008 C .21100001 .039 .24700003 0 .307 0 C .41 0 .467 .12900001 .467 .15400002 C .467 .16400002 .458 .16400002 .455 .16400002 C .446 .16400002 .444 .16000001 .442 .15300001 C .409 .046 .341 .022000002 .30900003 .022000002 C .27 .022000002 .254 .054 .254 .08800001 C .254 .11000001 .26 .13200002 .271 .17600002 L .305 .31300003 Z "/>
</symbol>
<use xlink:href="#font_4_3" transform="matrix(9.9626,0,0,-9.9626,122.46391,139.92459)" fill="#000080"/>
<symbol id="font_3_9">
<path d="M .63100007 .19400002 C .646 .19400002 .665 .19400002 .665 .214 C .665 .23400001 .646 .23400001 .632 .23400001 L .033 .23400001 C .019000002 .23400001 0 .23400001 0 .214 C 0 .19400002 .019000002 .19400002 .034 .19400002 L .63100007 .19400002 M .632 0 C .646 0 .665 0 .665 .02000001 C .665 .040000008 .646 .040000008 .63100007 .040000008 L .034 .040000008 C .019000002 .040000008 0 .040000008 0 .02000001 C 0 0 .019000002 0 .033 0 L .632 0 Z "/>
</symbol>
<use xlink:href="#font_3_9" transform="matrix(9.9626,0,0,-9.9626,131.1949,138.48998)" fill="#000080"/>
<symbol id="font_5_1">
<path d="M .314 0 C .345 0 .34600003 .0010000467 .356 .01999998 L .903 1.1620001 C .9100001 1.1750001 .9100001 1.177 .9100001 1.1800001 C .9100001 1.1910001 .90200009 1.2 .89 1.2 C .87700006 1.2 .873 1.1910001 .86800006 1.1800001 L .352 .10400009 L .139 .6000001 L 0 .49300004 L .014999993 .47700007 L .086 .5310001 L .314 0 Z "/>
</symbol>
<use xlink:href="#font_5_1" transform="matrix(9.9626,0,0,-9.9626,142.2489,142.61661)" fill="#000080"/>
<path transform="matrix(1,0,0,-1,151.11499,130.861)" stroke-width="1" stroke-linecap="butt" stroke-miterlimit="10" stroke-linejoin="miter" fill="none" stroke="#000080" d="M 0 0 L 22.4 0 "/>
<use xlink:href="#font_4_4" transform="matrix(9.9626,0,0,-9.9626,151.4039,141.85733)" fill="#000080"/>
<symbol id="font_3_2">
<path d="M .35300002 .31300003 L .632 .31300003 C .646 .31300003 .665 .31300003 .665 .333 C .665 .35300002 .646 .35300002 .632 .35300002 L .35300002 .35300002 L .35300002 .633 C .35300002 .647 .35300002 .666 .33300004 .666 C .31300003 .666 .31300003 .647 .31300003 .633 L .31300003 .35300002 L .033 .35300002 C .019000002 .35300002 0 .35300002 0 .333 C 0 .31300003 .019000002 .31300003 .033 .31300003 L .31300003 .31300003 L .31300003 .033000005 C .31300003 .019000002 .31300003 0 .33300004 0 C .35300002 0 .35300002 .019000002 .35300002 .033000005 L .35300002 .31300003 Z "/>
</symbol>
<symbol id="font_3_6">
<path d="M .266 .165 L .266 .078 C .266 .042000005 .26400004 .031000002 .19000001 .031000002 L .16900002 .031000002 L .16900002 0 C .21000001 .003 .26200003 .003 .30400003 .003 C .34600003 .003 .39900003 .003 .44000004 0 L .44000004 .031000002 L .41900004 .031000002 C .34500004 .031000002 .34300003 .042000005 .34300003 .078 L .34300003 .165 L .44300003 .165 L .44300003 .19600001 L .34300003 .19600001 L .34300003 .651 C .34300003 .671 .34300003 .67700007 .32700003 .67700007 C .31800003 .67700007 .31500004 .67700007 .307 .665 L 0 .19600001 L 0 .165 L .266 .165 M .272 .19600001 L .028 .19600001 L .272 .569 L .272 .19600001 Z "/>
</symbol>
<use xlink:href="#font_3_2" transform="matrix(9.9626,0,0,-9.9626,159.12889,140.64189)" fill="#000080"/>
<use xlink:href="#font_3_6" transform="matrix(9.9626,0,0,-9.9626,168.81255,139.815)" fill="#000080"/>
<use xlink:href="#font_4_4" transform="matrix(9.9626,0,0,-9.9626,155.80792,64.27333)" fill="#cc6600"/>
<symbol id="font_3_7">
<path d="M .39900003 .223 C .39900003 .34200005 .317 .44200004 .209 .44200004 C .16100002 .44200004 .118000019 .42600004 .082 .39100004 L .082 .586 C .10200001 .58000007 .135 .573 .16700001 .573 C .29 .573 .36 .66400006 .36 .67700007 C .36 .683 .357 .688 .35 .688 C .349 .688 .347 .688 .342 .68500009 C .322 .67600008 .273 .656 .20600002 .656 C .16600001 .656 .120000008 .66300007 .073 .6840001 C .065 .68700006 .06300001 .68700006 .061000009 .68700006 C .051000004 .68700006 .051000004 .679 .051000004 .66300007 L .051000004 .36700005 C .051000004 .34900005 .051000004 .34100003 .065 .34100003 C .07200001 .34100003 .074 .34400005 .07800001 .35000003 C .08900002 .36600004 .12600002 .42000006 .207 .42000006 C .259 .42000006 .284 .37400005 .292 .35600005 C .308 .31900005 .31 .28000004 .31 .23 C .31 .19500001 .31 .135 .286 .093 C .262 .054000006 .22500001 .028 .17900002 .028 C .106000009 .028 .049000008 .08100001 .032 .14000002 C .035 .13900002 .038000008 .13800001 .049000008 .13800001 C .082 .13800001 .09900001 .163 .09900001 .187 C .09900001 .21100001 .082 .23600002 .049000008 .23600002 C .035 .23600002 0 .22900002 0 .18300002 C 0 .097 .069000009 0 .18100001 0 C .297 0 .39900003 .096 .39900003 .223 Z "/>
</symbol>
<use xlink:href="#font_3_9" transform="matrix(9.9626,0,0,-9.9626,164.08592,60.905969)" fill="#cc6600"/>
<use xlink:href="#font_3_7" transform="matrix(9.9626,0,0,-9.9626,174.54665,62.450174)" fill="#cc6600"/>
<use xlink:href="#font_4_3" transform="matrix(9.9626,0,0,-9.9626,77.87392,46.320589)" fill="#800000"/>
<symbol id="font_3_3">
<path d="M .205 .64000007 C .205 .66400006 .205 .666 .18200003 .666 C .120000008 .60200008 .032000007 .60200008 0 .60200008 L 0 .57100006 C .020000004 .57100006 .07900001 .57100006 .13100001 .597 L .13100001 .079 C .13100001 .043 .128 .031000002 .038000004 .031000002 L .0060000049 .031000002 L .0060000049 0 C .04100001 .003 .128 .003 .168 .003 C .20800002 .003 .29500003 .003 .33000005 0 L .33000005 .031000002 L .29800005 .031000002 C .20800002 .031000002 .205 .042000005 .205 .079 L .205 .64000007 Z "/>
</symbol>
<use xlink:href="#font_3_9" transform="matrix(9.9626,0,0,-9.9626,86.603908,44.88597)" fill="#800000"/>
<use xlink:href="#font_3_3" transform="matrix(9.9626,0,0,-9.9626,97.45317,46.211)" fill="#800000"/>
</g>
<use xlink:href="#font_3_3" transform="matrix(9.9626,0,0,-9.9626,68.53267,169.816)"/>
<symbol id="font_3_4">
<path d="M .07700001 .07700001 L .18300002 .18 C .33900003 .31800003 .39900003 .372 .39900003 .47200004 C .39900003 .586 .30900003 .666 .18700002 .666 C .074 .666 0 .574 0 .485 C 0 .42900003 .05 .42900003 .053000008 .42900003 C .07000001 .42900003 .105000007 .441 .105000007 .48200003 C .105000007 .508 .08700001 .53400006 .052000006 .53400006 C .044000005 .53400006 .042000008 .53400006 .039 .53300008 C .062000004 .59800007 .11600001 .63500007 .17400001 .63500007 C .26500003 .63500007 .308 .554 .308 .47200004 C .308 .39200003 .25800003 .31300003 .20300003 .25100003 L .011000004 .037 C 0 .026 0 .024 0 0 L .37100003 0 L .39900003 .17400001 L .374 .17400001 C .36900003 .14400001 .36200003 .1 .352 .085 C .345 .07700001 .279 .07700001 .257 .07700001 L .07700001 .07700001 Z "/>
</symbol>
<use xlink:href="#font_3_4" transform="matrix(9.9626,0,0,-9.9626,106.99813,169.816)"/>
<symbol id="font_3_5">
<path d="M .24800003 .37400005 C .33 .40100003 .388 .47100006 .388 .55 C .388 .632 .3 .688 .204 .688 C .10300001 .688 .027000003 .628 .027000003 .55200007 C .027000003 .519 .049000004 .5 .078 .5 C .109000008 .5 .12900001 .522 .12900001 .55100008 C .12900001 .6010001 .082 .6010001 .067 .6010001 C .098 .65000006 .164 .66300007 .20000002 .66300007 C .24100003 .66300007 .29600004 .64100006 .29600004 .55100008 C .29600004 .53900006 .29400004 .48100005 .268 .43700005 C .238 .38900004 .204 .38600005 .17900002 .38500003 C .171 .38400004 .14700002 .38200004 .14000002 .38200004 C .132 .38100005 .125 .38000003 .125 .37000004 C .125 .35900004 .132 .35900004 .14900002 .35900004 L .19300002 .35900004 C .275 .35900004 .312 .29100005 .312 .193 C .312 .057000005 .24300003 .028 .199 .028 C .15600002 .028 .081 .045 .046000005 .104 C .081 .09900001 .11200001 .12100001 .11200001 .15900001 C .11200001 .19500001 .085 .215 .056 .215 C .031999999 .215 0 .201 0 .157 C 0 .06600001 .093 0 .20200002 0 C .32400004 0 .41500003 .091000009 .41500003 .193 C .41500003 .27500005 .35200004 .35300005 .24800003 .37400005 Z "/>
</symbol>
<use xlink:href="#font_3_5" transform="matrix(9.9626,0,0,-9.9626,145.77344,170.03517)"/>
<use xlink:href="#font_3_6" transform="matrix(9.9626,0,0,-9.9626,184.48795,169.816)"/>
<use xlink:href="#font_3_4" transform="matrix(9.9626,0,0,-9.9626,21.07913,118.414)"/>
<use xlink:href="#font_3_6" transform="matrix(9.9626,0,0,-9.9626,20.859953,75.941989)"/>
<symbol id="font_3_8">
<path d="M .089999999 .35000003 L .089999999 .37400005 C .089999999 .62700006 .21400002 .66300007 .26500003 .66300007 C .28900004 .66300007 .33100004 .65700009 .35300002 .623 C .33800004 .623 .298 .623 .298 .57800009 C .298 .54700008 .32200004 .53200009 .344 .53200009 C .36 .53200009 .39000003 .54100009 .39000003 .58000007 C .39000003 .64000007 .34600003 .688 .263 .688 C .13499999 .688 0 .559 0 .33800004 C 0 .071 .116000007 0 .20900002 0 C .32000003 0 .41500003 .094000007 .41500003 .22600001 C .41500003 .35300005 .32600004 .44900004 .215 .44900004 C .14700002 .44900004 .11000001 .39800004 .089999999 .35000003 M .20900002 .028 C .146 .028 .116000007 .088 .11000001 .103 C .092 .15 .092 .23 .092 .24800001 C .092 .32600004 .124000009 .42600004 .21400002 .42600004 C .23000002 .42600004 .27600003 .42600004 .307 .36400003 C .32500003 .32700003 .32500003 .27600003 .32500003 .22700002 C .32500003 .179 .32500003 .12900001 .30800004 .093 C .27800004 .033000005 .23200003 .028 .20900002 .028 Z "/>
</symbol>
<use xlink:href="#font_3_8" transform="matrix(9.9626,0,0,-9.9626,20.999428,33.68817)"/>
<use xlink:href="#font_4_3" transform="matrix(9.9626,0,0,-9.9626,198.44992,159.89359)"/>
<use xlink:href="#font_4_4" transform="matrix(9.9626,0,0,-9.9626,29.024916,9.725332)"/>
<path transform="matrix(1,0,0,-1,.199,174.665)" stroke-width="1" stroke-linecap="butt" stroke-miterlimit="10" stroke-linejoin="miter" fill="none" stroke="#808080" d="M 69.93852 14.86287 L 69.93852 19.11534 M 108.79326 14.86287 L 108.79326 19.11534 M 147.648 14.86287 L 147.648 19.11534 M 186.50273 14.86287 L 186.50273 19.11534 "/>
<path transform="matrix(1,0,0,-1,.199,174.665)" stroke-width="1" stroke-linecap="butt" stroke-miterlimit="10" stroke-linejoin="miter" fill="none" stroke="#808080" d="M 28.95753 59.46193 L 33.21 59.46193 M 28.95753 101.93472 L 33.21 101.93472 M 28.95753 144.40753 L 33.21 144.40753 "/>
<path transform="matrix(1,0,0,-1,.199,174.665)" stroke-width="1" stroke-linecap="butt" stroke-miterlimit="10" stroke-linejoin="miter" fill="none" stroke="#000000" d="M 0 16.98912 L 192.28116 16.98912 "/>
<path transform="matrix(1,0,0,-1,192.48017,157.67588)" d="M 1.99252 0 L -1.19551 1.59401 L 0 0 L -1.19551 -1.59401 "/>
<path transform="matrix(1,0,0,-1,.199,174.665)" stroke-width="1" stroke-linecap="butt" stroke-miterlimit="10" stroke-linejoin="miter" fill="none" stroke="#000000" d="M 31.08379 0 L 31.08379 159.40415 "/>
<path transform="matrix(0,-1,-1,-0,31.28279,15.260849)" d="M 1.99252 0 L -1.19551 1.59401 L 0 0 L -1.19551 -1.59401 "/>
</svg>
