<?xml version="1.0" encoding="UTF-8" standalone="no"?>
<!DOCTYPE svg PUBLIC "-//W3C//DTD SVG 1.1//EN" "http://www.w3.org/Graphics/SVG/1.1/DTD/svg11.dtd">
<svg xmlns="http://www.w3.org/2000/svg" xmlns:xlink="http://www.w3.org/1999/xlink" version="1.1" width="207.191pt" height="174.826pt" viewBox="0 0 207.191 174.826">
<clipPath id="cp0">
<path transform="matrix(1,0,0,-1,.199,174.627)" d="M 0 0 L 194.26912 0 L 194.26912 161.3915 L 0 161.3915 Z "/>
</clipPath>
<g clip-path="url(#cp0)">
<path transform="matrix(1,0,0,-1,.199,174.627)" d="M 97.13455 138.33556 L 100.02544 133.53226 L 102.91634 128.72896 L 105.80724 123.92567 L 108.69814 119.12236 L 111.58904 114.31905 L 114.47993 109.51576 L 117.37083 104.71246 L 120.26173 99.90916 L 123.15263 95.10587 L 126.04352 90.30257 L 128.93442 85.49927 L 131.82532 80.69597 L 134.71622 75.8927 L 137.60712 71.08942 L 140.49802 66.28604 L 143.38892 61.48276 L 146.2798 56.67946 L 149.1707 51.87617 L 152.0616 47.07289 L 154.9525 42.26959 L 157.8434 37.46631 L 160.7343 32.66302 L 163.62519 27.85973 L 166.51609 23.05644 L 166.16739 21.6124 C 166.16739 21.6124 164.81934 19.9194 164.3016 19.44415 C 163.78388 18.96892 162.95357 18.49577 162.43584 18.18707 C 161.9181 17.87839 161.08779 17.46542 160.57006 17.2193 C 160.05233 16.97319 159.222 16.62183 158.70427 16.41313 C 158.18654 16.20444 157.35622 15.8978 156.83849 15.71518 C 156.32076 15.53255 155.49045 15.2598 154.97272 15.09688 C 154.45499 14.93396 153.62467 14.68813 153.10694 14.5409 C 152.5892 14.39366 151.75888 14.16998 151.24115 14.03569 C 150.72342 13.9014 149.89311 13.69627 149.37538 13.57298 C 148.85764 13.4497 148.02733 13.26082 147.5096 13.14711 C 146.99185 13.03339 146.16155 12.85864 145.64382 12.75336 C 145.12607 12.64807 144.29576 12.48595 143.77803 12.38817 C 143.26029 12.2904 142.43 12.13965 141.91226 12.04872 C 141.39452 11.95778 140.56421 11.81737 140.04647 11.73267 C 139.52873 11.64796 138.69843 11.51709 138.18068 11.43813 C 137.66295 11.35918 136.83266 11.2371 136.31491 11.16348 C 135.79718 11.08986 134.96688 10.97604 134.44913 10.90741 C 133.9314 10.83878 133.10108 10.73268 132.58335 10.66875 C 132.06562 10.6048 131.23529 10.506 130.71756 10.44649 C 130.19983 10.38698 129.3695 10.29506 128.85178 10.23978 C 128.33405 10.18448 127.50374 10.09917 126.98601 10.0479 C 126.46828 9.99661 125.63795 9.91762 125.12022 9.8702 C 124.6025 9.82278 123.77217 9.7498 123.25444 9.70609 C 122.73671 9.66238 121.90639 9.59525 121.38866 9.5551 C 120.87093 9.51497 120.0406 9.45346 119.52287 9.4168 C 119.00514 9.38013 118.17484 9.32408 117.6571 9.29077 C 117.13937 9.25746 116.30905 9.20674 115.79132 9.17671 C 115.27359 9.14668 114.44327 9.10115 113.92554 9.07431 C 113.4078 9.04749 112.57748 9.00702 112.05975 8.98332 C 111.54202 8.95964 110.71172 8.92413 110.19398 8.90352 C 109.67624 8.8829 108.84593 8.8523 108.3282 8.83473 C 107.81046 8.81715 106.98015 8.79135 106.46242 8.77678 C 105.94467 8.7622 105.11436 8.74118 104.59663 8.72955 C 104.07889 8.71791 103.24858 8.7016 102.73083 8.69292 C 102.2131 8.68422 101.38281 8.67259 100.86507 8.66681 C 100.34734 8.66101 99.51703 8.65405 98.99928 8.65117 C 98.48155 8.64827 97.65125 8.64597 97.1335 8.64597 C 96.61577 8.64597 95.78546 8.64828 95.26772 8.65118 C 94.74998 8.65407 93.91966 8.66103 93.40193 8.66682 C 92.8842 8.6726 92.0539 8.68425 91.53616 8.69293 C 91.01843 8.70163 90.18811 8.71796 89.67038 8.7296 C 89.15265 8.74123 88.32233 8.76225 87.8046 8.77684 C 87.28687 8.79143 86.45654 8.81721 85.93881 8.83481 C 85.42108 8.85239 84.59077 8.883 84.07304 8.90361 C 83.55531 8.92422 82.72499 8.95973 82.20726 8.98341 C 81.68953 9.00711 80.8592 9.04759 80.34148 9.07442 C 79.82375 9.10124 78.99342 9.1468 78.4757 9.17683 C 77.95796 9.20686 77.12764 9.25758 76.60991 9.2909 C 76.09218 9.3242 75.26187 9.38026 74.74414 9.41693 C 74.22641 9.4536 73.39609 9.51514 72.87836 9.55527 C 72.36063 9.5954 71.5303 9.66257 71.01257 9.70627 C 70.49483 9.74998 69.66452 9.82297 69.14679 9.87038 C 68.62904 9.9178 67.79874 9.99683 67.281 10.04811 C 66.76326 10.09938 65.93297 10.1847 65.41524 10.24 C 64.89749 10.2953 64.06718 10.3872 63.54944 10.44672 C 63.03171 10.50623 62.2014 10.60504 61.68365 10.669 C 61.16592 10.73296 60.33563 10.83905 59.81789 10.90768 C 59.30016 10.97632 58.46985 11.09015 57.9521 11.16379 C 57.43437 11.23743 56.60405 11.35947 56.08632 11.43845 C 55.56859 11.51743 54.73827 11.6483 54.22054 11.73302 C 53.7028 11.81773 52.8725 11.95813 52.35477 12.04909 C 51.83704 12.14003 51.00671 12.29079 50.48898 12.38855 C 49.97125 12.48631 49.14093 12.64847 48.6232 12.75377 C 48.10547 12.85907 47.27516 13.03383 46.75743 13.14757 C 46.2397 13.26129 45.40938 13.4502 44.89165 13.57349 C 44.37392 13.69678 43.5436 13.90195 43.02586 14.03624 C 42.50813 14.17053 41.67781 14.39424 41.16008 14.54149 C 40.64235 14.68874 39.81204 14.9346 39.29431 15.09753 C 38.77658 15.26047 37.94626 15.53323 37.42853 15.71588 C 36.9108 15.89854 36.08047 16.20525 35.56274 16.41397 C 35.04501 16.62268 34.2147 16.97409 33.69698 17.22026 C 33.17924 17.46643 32.34892 17.87949 31.83119 18.18826 C 31.31345 18.49704 30.48314 18.97014 29.96541 19.44582 C 29.44766 19.92148 28.09964 21.61665 28.09964 21.61665 Z " fill="#cccce6"/>
</g>
<clipPath id="cp1">
<path transform="matrix(1,0,0,-1,.199,174.627)" d="M 0 0 L 194.26912 0 L 194.26912 161.3915 L 0 161.3915 Z "/>
</clipPath>
<g clip-path="url(#cp1)">
<path transform="matrix(1,0,0,-1,.199,174.627)" d="M 27.75273 23.05592 L 30.64362 27.85919 L 33.53452 32.66249 L 36.4254 37.46579 L 39.3163 42.26906 L 42.2072 47.07245 L 45.0981 51.87575 L 47.98898 56.67902 L 50.87988 61.48232 L 53.77078 66.2856 L 56.66168 71.0889 L 59.55258 75.89218 L 62.44348 80.69547 L 65.33438 85.4988 L 68.22527 90.30208 L 71.11617 95.10538 L 74.00706 99.90869 L 76.89796 104.71198 L 79.78886 109.51529 L 82.67976 114.31859 L 85.57066 119.12187 L 88.46156 123.92519 L 91.35246 128.72847 L 94.24335 133.53177 L 97.13425 138.33509 L 166.16739 21.6124 C 166.16739 21.6124 164.81934 19.9194 164.3016 19.44415 C 163.78388 18.96892 162.95357 18.49577 162.43584 18.18707 C 161.9181 17.87839 161.08779 17.46542 160.57006 17.2193 C 160.05233 16.97319 159.222 16.62183 158.70427 16.41313 C 158.18654 16.20444 157.35622 15.8978 156.83849 15.71518 C 156.32076 15.53255 155.49045 15.2598 154.97272 15.09688 C 154.45499 14.93396 153.62467 14.68813 153.10694 14.5409 C 152.5892 14.39366 151.75888 14.16998 151.24115 14.03569 C 150.72342 13.9014 149.89311 13.69627 149.37538 13.57298 C 148.85764 13.4497 148.02733 13.26082 147.5096 13.14711 C 146.99185 13.03339 146.16155 12.85864 145.64382 12.75336 C 145.12607 12.64807 144.29576 12.48595 143.77803 12.38817 C 143.26029 12.2904 142.43 12.13965 141.91226 12.04872 C 141.39452 11.95778 140.56421 11.81737 140.04647 11.73267 C 139.52873 11.64796 138.69843 11.51709 138.18068 11.43813 C 137.66295 11.35918 136.83266 11.2371 136.31491 11.16348 C 135.79718 11.08986 134.96688 10.97604 134.44913 10.90741 C 133.9314 10.83878 133.10108 10.73268 132.58335 10.66875 C 132.06562 10.6048 131.23529 10.506 130.71756 10.44649 C 130.19983 10.38698 129.3695 10.29506 128.85178 10.23978 C 128.33405 10.18448 127.50374 10.09917 126.98601 10.0479 C 126.46828 9.99661 125.63795 9.91762 125.12022 9.8702 C 124.6025 9.82278 123.77217 9.7498 123.25444 9.70609 C 122.73671 9.66238 121.90639 9.59525 121.38866 9.5551 C 120.87093 9.51497 120.0406 9.45346 119.52287 9.4168 C 119.00514 9.38013 118.17484 9.32408 117.6571 9.29077 C 117.13937 9.25746 116.30905 9.20674 115.79132 9.17671 C 115.27359 9.14668 114.44327 9.10115 113.92554 9.07431 C 113.4078 9.04749 112.57748 9.00702 112.05975 8.98332 C 111.54202 8.95964 110.71172 8.92413 110.19398 8.90352 C 109.67624 8.8829 108.84593 8.8523 108.3282 8.83473 C 107.81046 8.81715 106.98015 8.79135 106.46242 8.77678 C 105.94467 8.7622 105.11436 8.74118 104.59663 8.72955 C 104.07889 8.71791 103.24858 8.7016 102.73083 8.69292 C 102.2131 8.68422 101.38281 8.67259 100.86507 8.66681 C 100.34734 8.66101 99.51703 8.65405 98.99928 8.65117 C 98.48155 8.64827 97.65125 8.64597 97.1335 8.64597 C 96.61577 8.64597 95.78546 8.64828 95.26772 8.65118 C 94.74998 8.65407 93.91966 8.66103 93.40193 8.66682 C 92.8842 8.6726 92.0539 8.68425 91.53616 8.69293 C 91.01843 8.70163 90.18811 8.71796 89.67038 8.7296 C 89.15265 8.74123 88.32233 8.76225 87.8046 8.77684 C 87.28687 8.79143 86.45654 8.81721 85.93881 8.83481 C 85.42108 8.85239 84.59077 8.883 84.07304 8.90361 C 83.55531 8.92422 82.72499 8.95973 82.20726 8.98341 C 81.68953 9.00711 80.8592 9.04759 80.34148 9.07442 C 79.82375 9.10124 78.99342 9.1468 78.4757 9.17683 C 77.95796 9.20686 77.12764 9.25758 76.60991 9.2909 C 76.09218 9.3242 75.26187 9.38026 74.74414 9.41693 C 74.22641 9.4536 73.39609 9.51514 72.87836 9.55527 C 72.36063 9.5954 71.5303 9.66257 71.01257 9.70627 C 70.49483 9.74998 69.66452 9.82297 69.14679 9.87038 C 68.62904 9.9178 67.79874 9.99683 67.281 10.04811 C 66.76326 10.09938 65.93297 10.1847 65.41524 10.24 C 64.89749 10.2953 64.06718 10.3872 63.54944 10.44672 C 63.03171 10.50623 62.2014 10.60504 61.68365 10.669 C 61.16592 10.73296 60.33563 10.83905 59.81789 10.90768 C 59.30016 10.97632 58.46985 11.09015 57.9521 11.16379 C 57.43437 11.23743 56.60405 11.35947 56.08632 11.43845 C 55.56859 11.51743 54.73827 11.6483 54.22054 11.73302 C 53.7028 11.81773 52.8725 11.95813 52.35477 12.04909 C 51.83704 12.14003 51.00671 12.29079 50.48898 12.38855 C 49.97125 12.48631 49.14093 12.64847 48.6232 12.75377 C 48.10547 12.85907 47.27516 13.03383 46.75743 13.14757 C 46.2397 13.26129 45.40938 13.4502 44.89165 13.57349 C 44.37392 13.69678 43.5436 13.90195 43.02586 14.03624 C 42.50813 14.17053 41.67781 14.39424 41.16008 14.54149 C 40.64235 14.68874 39.81204 14.9346 39.29431 15.09753 C 38.77658 15.26047 37.94626 15.53323 37.42853 15.71588 C 36.9108 15.89854 36.08047 16.20525 35.56274 16.41397 C 35.04501 16.62268 34.2147 16.97409 33.69698 17.22026 C 33.17924 17.46643 32.34892 17.87949 31.83119 18.18826 C 31.31345 18.49704 30.48314 18.97014 29.96541 19.44582 C 29.44766 19.92148 28.09964 21.61665 28.09964 21.61665 Z " fill="#cccce6"/>
</g>
<clipPath id="cp2">
<path transform="matrix(1,0,0,-1,.199,174.627)" d="M 0 0 L 194.26912 0 L 194.26912 161.3915 L 0 161.3915 Z "/>
</clipPath>
<g clip-path="url(#cp2)">
<path transform="matrix(1,0,0,-1,.199,174.627)" stroke-width="1.19553" stroke-linecap="butt" stroke-miterlimit="10" stroke-linejoin="miter" fill="none" stroke="#000080" d="M 97.13455 138.33556 C 97.13455 138.33556 99.22324 134.86515 100.02544 133.53226 C 100.82765 132.19936 102.11414 130.06186 102.91634 128.72896 C 103.71855 127.39607 105.00504 125.25856 105.80724 123.92567 C 106.60945 122.59277 107.89594 120.45526 108.69814 119.12236 C 109.50035 117.78946 110.78682 115.65195 111.58904 114.31905 C 112.39125 112.98616 113.67772 110.84865 114.47993 109.51576 C 115.28215 108.18286 116.56862 106.04536 117.37083 104.71246 C 118.17305 103.37958 119.45952 101.24205 120.26173 99.90916 C 121.06395 98.57626 122.35042 96.43877 123.15263 95.10587 C 123.95483 93.77296 125.2413 91.63547 126.04352 90.30257 C 126.84572 88.96968 128.1322 86.83215 128.93442 85.49927 C 129.73662 84.16637 131.0231 82.02885 131.82532 80.69597 C 132.62752 79.3631 133.914 77.22559 134.71622 75.8927 C 135.51842 74.55983 136.8049 72.4223 137.60712 71.08942 C 138.40932 69.75652 139.6958 67.61894 140.49802 66.28604 C 141.30022 64.95316 142.5867 62.81564 143.38892 61.48276 C 144.19112 60.14986 145.47759 58.01234 146.2798 56.67946 C 147.082 55.34657 148.36849 53.20906 149.1707 51.87617 C 149.9729 50.5433 151.25939 48.40578 152.0616 47.07289 C 152.8638 45.73999 154.15029 43.6025 154.9525 42.26959 C 155.7547 40.9367 157.04119 38.79918 157.8434 37.46631 C 158.6456 36.13342 159.93209 33.9959 160.7343 32.66302 C 161.5365 31.33014 162.82297 29.19263 163.62519 27.85973 C 164.42739 26.52684 166.51609 23.05644 166.51609 23.05644 "/>
<path transform="matrix(1,0,0,-1,.199,174.627)" stroke-width="1.19553" stroke-linecap="butt" stroke-miterlimit="10" stroke-linejoin="miter" fill="none" stroke="#000080" d="M 27.75273 23.05592 C 27.75273 23.05592 29.8414 26.52632 30.64362 27.85919 C 31.44582 29.19208 32.7323 31.3296 33.53452 32.66249 C 34.33672 33.99539 35.6232 36.1329 36.4254 37.46579 C 37.22762 38.79866 38.5141 40.93617 39.3163 42.26906 C 40.11852 43.60196 41.405 45.73955 42.2072 47.07245 C 43.00941 48.40533 44.2959 50.54286 45.0981 51.87575 C 45.90031 53.20862 47.18678 55.34615 47.98898 56.67902 C 48.7912 58.0119 50.07768 60.14941 50.87988 61.48232 C 51.6821 62.8152 52.96858 64.95271 53.77078 66.2856 C 54.573 67.6185 55.85948 69.75601 56.66168 71.0889 C 57.4639 72.42178 58.75038 74.5593 59.55258 75.89218 C 60.3548 77.22505 61.64128 79.36258 62.44348 80.69547 C 63.2457 82.02837 64.53218 84.1659 65.33438 85.4988 C 66.1366 86.83168 67.42307 88.9692 68.22527 90.30208 C 69.02748 91.63498 70.31396 93.77249 71.11617 95.10538 C 71.91838 96.43828 73.20486 98.57579 74.00706 99.90869 C 74.80928 101.24158 76.09576 103.37909 76.89796 104.71198 C 77.70018 106.04488 78.98666 108.18239 79.78886 109.51529 C 80.59108 110.84818 81.87756 112.98569 82.67976 114.31859 C 83.48198 115.65147 84.76846 117.78899 85.57066 119.12187 C 86.37288 120.45477 87.65936 122.59229 88.46156 123.92519 C 89.26378 125.25807 90.55026 127.39558 91.35246 128.72847 C 92.15468 130.06137 93.44115 132.19887 94.24335 133.53177 C 95.04556 134.86467 97.13425 138.33509 97.13425 138.33509 "/>
<path transform="matrix(1,0,0,-1,.199,174.627)" stroke-width="1.19553" stroke-linecap="butt" stroke-dasharray="2.98883,2.98883" stroke-miterlimit="10" stroke-linejoin="miter" fill="none" stroke="#000080" d="M 28.09964 24.49516 C 28.09964 24.49516 29.10724 25.86958 29.49423 26.26418 C 29.88123 26.65877 30.50185 27.07376 30.88884 27.33925 C 31.27585 27.60474 31.89645 27.96358 32.28345 28.17772 C 32.67044 28.39188 33.29106 28.69951 33.67805 28.8827 C 34.06506 29.0659 34.68567 29.33649 35.07266 29.49811 C 35.45966 29.65973 36.08028 29.9023 36.46727 30.04767 C 36.85426 30.19305 37.47488 30.41344 37.8619 30.54588 C 38.24889 30.67834 38.86949 30.88057 39.25648 31.00243 C 39.64348 31.12427 40.2641 31.31122 40.65111 31.42407 C 41.0381 31.53694 41.6587 31.71078 42.0457 31.81593 C 42.4327 31.9211 43.05331 32.08359 43.4403 32.18195 C 43.82732 32.2803 44.44794 32.43256 44.83493 32.52486 C 45.22192 32.61714 45.84253 32.76033 46.22952 32.8472 C 46.61653 32.93407 47.23715 33.06903 47.62415 33.15096 C 48.01114 33.2329 48.63174 33.36034 49.01874 33.43776 C 49.40573 33.51518 50.02635 33.63573 50.41336 33.70898 C 50.80035 33.78224 51.42096 33.8964 51.80795 33.96577 C 52.19495 34.03516 52.81557 34.14336 53.20258 34.20914 C 53.58957 34.27492 54.21019 34.37755 54.59718 34.43996 C 54.98418 34.50235 55.60478 34.59975 55.99178 34.65895 C 56.37878 34.71817 56.9994 34.81058 57.3864 34.86678 C 57.77339 34.92297 58.394 35.0107 58.78099 35.06403 C 59.168 35.11736 59.78862 35.2006 60.17561 35.25122 C 60.5626 35.30183 61.18323 35.3808 61.57022 35.4288 C 61.95721 35.47679 62.57782 35.55168 62.96483 35.59717 C 63.35182 35.64265 63.97244 35.71364 64.35944 35.75671 C 64.74643 35.7998 65.36705 35.86697 65.75406 35.90775 C 66.14105 35.94852 66.76166 36.01207 67.14865 36.05058 C 67.53564 36.08911 68.15627 36.14912 68.54326 36.18547 C 68.93027 36.22182 69.55087 36.2784 69.93787 36.31265 C 70.32486 36.34691 70.94548 36.40018 71.33247 36.43237 C 71.71948 36.46457 72.3401 36.5146 72.7271 36.5448 C 73.11409 36.57501 73.73471 36.62186 74.1217 36.65012 C 74.5087 36.67839 75.1293 36.72217 75.51631 36.74852 C 75.9033 36.77489 76.52393 36.81564 76.91092 36.84013 C 77.29791 36.86462 77.91853 36.90242 78.30554 36.92508 C 78.69254 36.94775 79.31314 36.98265 79.70013 37.00351 C 80.08713 37.02437 80.70775 37.05641 81.09474 37.0755 C 81.48175 37.0946 82.10236 37.12383 82.48935 37.14119 C 82.87634 37.15855 83.49696 37.185 83.88396 37.20064 C 84.27097 37.21626 84.89159 37.23999 85.27858 37.25394 C 85.66557 37.26787 86.2862 37.28888 86.67319 37.30113 C 87.06018 37.31339 87.68079 37.33173 88.0678 37.3423 C 88.45479 37.35287 89.07541 37.36855 89.4624 37.37749 C 89.8494 37.38643 90.47 37.39948 90.85701 37.40677 C 91.244 37.41406 91.86462 37.42447 92.25162 37.43013 C 92.63861 37.4358 93.25923 37.4436 93.64622 37.44765 C 94.03323 37.45169 94.65384 37.4569 95.04083 37.4593 C 95.42783 37.46173 96.04845 37.46432 96.43544 37.46513 C 96.82245 37.46594 97.44307 37.46596 97.83006 37.46515 C 98.21706 37.46434 98.83768 37.46175 99.22467 37.45932 C 99.61166 37.45691 100.23227 37.4517 100.61928 37.44768 C 101.00627 37.44365 101.62689 37.43585 102.01389 37.43019 C 102.40088 37.42455 103.02148 37.41412 103.4085 37.40683 C 103.79549 37.39954 104.4161 37.38652 104.8031 37.37758 C 105.1901 37.36864 105.81071 37.35297 106.19771 37.34239 C 106.58472 37.3318 107.20532 37.31349 107.59232 37.30124 C 107.97931 37.28899 108.59993 37.26797 108.98692 37.25406 C 109.37393 37.24013 109.99455 37.21642 110.38155 37.20079 C 110.76854 37.18515 111.38914 37.15869 111.77614 37.14134 C 112.16313 37.124 112.78375 37.09479 113.17076 37.07568 C 113.55775 37.0566 114.17838 37.02457 114.56537 37.00371 C 114.95236 36.98285 115.57297 36.94795 115.95998 36.9253 C 116.34697 36.90265 116.96759 36.86485 117.35458 36.84036 C 117.74158 36.81587 118.3622 36.77512 118.74919 36.74876 C 119.1362 36.72243 119.7568 36.67863 120.1438 36.65038 C 120.53079 36.62212 121.15141 36.57529 121.5384 36.54507 C 121.92542 36.51488 122.54604 36.46486 122.93303 36.43266 C 123.32002 36.40047 123.94063 36.34721 124.32762 36.31297 C 124.71461 36.27873 125.33524 36.22215 125.72224 36.1858 C 126.10924 36.14946 126.72986 36.08946 127.11685 36.05093 C 127.50385 36.01242 128.12445 35.94888 128.51146 35.90813 C 128.89846 35.86737 129.51908 35.8002 129.90607 35.75711 C 130.29306 35.71404 130.91367 35.64308 131.30066 35.5976 C 131.68767 35.55211 132.30829 35.47723 132.69528 35.42923 C 133.08228 35.38124 133.7029 35.30229 134.08989 35.2517 C 134.4769 35.2011 135.09752 35.11786 135.48451 35.06453 C 135.8715 35.0112 136.49211 34.92348 136.8791 34.8673 C 137.2661 34.81111 137.88672 34.7187 138.27373 34.6595 C 138.66072 34.60028 139.28133 34.50291 139.66832 34.44054 C 140.05532 34.37814 140.67594 34.27554 141.06295 34.20976 C 141.44994 34.14398 142.07054 34.03581 142.45754 33.96643 C 142.84453 33.89705 143.46515 33.78291 143.85214 33.70967 C 144.23915 33.63643 144.85977 33.51588 145.24677 33.43848 C 145.63376 33.36107 146.25437 33.23364 146.64136 33.15172 C 147.02837 33.0698 147.64899 32.93484 148.03598 32.848 C 148.42298 32.76115 149.04358 32.61798 149.43058 32.52571 C 149.81757 32.43343 150.43819 32.28119 150.8252 32.18286 C 151.21219 32.08452 151.83281 31.92203 152.2198 31.81691 C 152.6068 31.71179 153.2274 31.53796 153.61441 31.42513 C 154.0014 31.31229 154.62203 31.12537 155.00902 31.00354 C 155.39601 30.88173 156.01662 30.67955 156.40361 30.54712 C 156.79062 30.4147 157.41124 30.19435 157.79824 30.04901 C 158.18523 29.90369 158.80583 29.6612 159.19283 29.49962 C 159.57984 29.33803 160.20046 29.0675 160.58745 28.88437 C 160.97444 28.70125 161.59506 28.39375 161.98206 28.1797 C 162.36905 27.96565 162.98966 27.60696 163.37667 27.34164 C 163.76366 27.07632 164.38428 26.66135 164.77127 26.26741 C 165.15827 25.87349 166.16588 24.50247 166.16588 24.50247 "/>
<path transform="matrix(1,0,0,-1,.199,174.627)" stroke-width="1.19553" stroke-linecap="butt" stroke-miterlimit="10" stroke-linejoin="miter" fill="none" stroke="#000080" d="M 28.09964 21.61665 C 28.09964 21.61665 29.10724 20.24225 29.49423 19.84766 C 29.88123 19.45305 30.50185 19.03807 30.88884 18.77258 C 31.27585 18.5071 31.89645 18.14825 32.28345 17.9341 C 32.67044 17.71996 33.29106 17.41232 33.67805 17.22913 C 34.06506 17.04593 34.68567 16.77534 35.07266 16.61372 C 35.45966 16.45209 36.08028 16.20953 36.46727 16.06415 C 36.85426 15.91878 37.47488 15.6984 37.8619 15.56593 C 38.24889 15.43349 38.86949 15.23125 39.25648 15.1094 C 39.64348 14.98756 40.2641 14.80061 40.65111 14.68774 C 41.0381 14.57489 41.6587 14.40105 42.0457 14.29588 C 42.4327 14.19073 43.05331 14.02824 43.4403 13.92989 C 43.82732 13.83153 44.44794 13.67926 44.83493 13.58698 C 45.22192 13.49467 45.84253 13.3515 46.22952 13.26463 C 46.61653 13.17776 47.23715 13.0428 47.62415 12.96086 C 48.01114 12.87892 48.63174 12.7515 49.01874 12.67406 C 49.40573 12.59663 50.02635 12.4761 50.41336 12.40285 C 50.80035 12.32959 51.42096 12.21544 51.80795 12.14606 C 52.19495 12.07668 52.81557 11.96846 53.20258 11.90268 C 53.58957 11.8369 54.21019 11.73428 54.59718 11.67188 C 54.98418 11.60947 55.60478 11.51208 55.99178 11.45288 C 56.37878 11.39366 56.9994 11.30125 57.3864 11.24504 C 57.77339 11.18884 58.394 11.10114 58.78099 11.0478 C 59.168 10.99448 59.78862 10.91121 60.17561 10.86061 C 60.5626 10.81 61.18323 10.73102 61.57022 10.68303 C 61.95721 10.63504 62.57782 10.56013 62.96483 10.51465 C 63.35182 10.46916 63.97244 10.3982 64.35944 10.3551 C 64.74643 10.31203 65.36705 10.24484 65.75406 10.20407 C 66.14105 10.1633 66.76166 10.09976 67.14865 10.06123 C 67.53564 10.02272 68.15627 9.9627 68.54326 9.92635 C 68.93027 9.89 69.55087 9.83342 69.93787 9.79918 C 70.32486 9.76492 70.94548 9.71165 71.33247 9.67946 C 71.71948 9.64726 72.3401 9.59723 72.7271 9.56702 C 73.11409 9.53682 73.73471 9.48996 74.1217 9.4617 C 74.5087 9.43344 75.1293 9.38966 75.51631 9.3633 C 75.9033 9.33694 76.52393 9.29619 76.91092 9.2717 C 77.29791 9.24721 77.91853 9.20941 78.30554 9.18675 C 78.69254 9.16408 79.31314 9.12918 79.70013 9.10832 C 80.08713 9.08746 80.70775 9.05542 81.09474 9.03632 C 81.48175 9.01723 82.10236 8.98799 82.48935 8.97063 C 82.87634 8.95328 83.49696 8.92682 83.88396 8.9112 C 84.27097 8.89557 84.89159 8.87184 85.27858 8.8579 C 85.66557 8.84396 86.2862 8.82295 86.67319 8.8107 C 87.06018 8.79845 87.68079 8.7801 88.0678 8.76953 C 88.45479 8.75894 89.07541 8.74327 89.4624 8.73433 C 89.8494 8.7254 90.47 8.71236 90.85701 8.70506 C 91.244 8.69775 91.86462 8.68736 92.25162 8.68169 C 92.63861 8.67603 93.25923 8.66823 93.64622 8.66418 C 94.03323 8.66014 94.65384 8.65494 95.04083 8.65251 C 95.42783 8.6501 96.04845 8.6475 96.43544 8.6467 C 96.82245 8.64589 97.44307 8.64587 97.83006 8.64668 C 98.21706 8.64749 98.83768 8.65009 99.22467 8.6525 C 99.61166 8.65492 100.23227 8.66013 100.61928 8.66415 C 101.00627 8.66818 101.62689 8.67598 102.01389 8.68163 C 102.40088 8.68729 103.02148 8.6977 103.4085 8.705 C 103.79549 8.7123 104.4161 8.72531 104.8031 8.73424 C 105.1901 8.74318 105.81071 8.75885 106.19771 8.76944 C 106.58472 8.78001 107.20532 8.79834 107.59232 8.8106 C 107.97931 8.82285 108.59993 8.84386 108.98692 8.85777 C 109.37393 8.8717 109.99455 8.89542 110.38155 8.91104 C 110.76854 8.92667 111.38914 8.95314 111.77614 8.97049 C 112.16313 8.98782 112.78375 9.01704 113.17076 9.03613 C 113.55775 9.05524 114.17838 9.08727 114.56537 9.10812 C 114.95236 9.12898 115.57297 9.16388 115.95998 9.18654 C 116.34697 9.20918 116.96759 9.24698 117.35458 9.27147 C 117.74158 9.29596 118.3622 9.33672 118.74919 9.36305 C 119.1362 9.3894 119.7568 9.43318 120.1438 9.46144 C 120.53079 9.4897 121.15141 9.53654 121.5384 9.56674 C 121.92542 9.59695 122.54604 9.64697 122.93303 9.67917 C 123.32002 9.71136 123.94063 9.76462 124.32762 9.79886 C 124.71461 9.83308 125.33524 9.88966 125.72224 9.92601 C 126.10924 9.96237 126.72986 10.02237 127.11685 10.06088 C 127.50385 10.09941 128.12445 10.16293 128.51146 10.20369 C 128.89846 10.24446 129.51908 10.31163 129.90607 10.35472 C 130.29306 10.3978 130.91367 10.46875 131.30066 10.51422 C 131.68767 10.55971 132.30829 10.6346 132.69528 10.68259 C 133.08228 10.73058 133.7029 10.80954 134.08989 10.86014 C 134.4769 10.91072 135.09752 10.99397 135.48451 11.0473 C 135.8715 11.10063 136.49211 11.18834 136.8791 11.24454 C 137.2661 11.30072 137.88672 11.39311 138.27373 11.45233 C 138.66072 11.51154 139.28133 11.6089 139.66832 11.6713 C 140.05532 11.73369 140.67594 11.83629 141.06295 11.90207 C 141.44994 11.96783 142.07054 12.07602 142.45754 12.1454 C 142.84453 12.21478 143.46515 12.32892 143.85214 12.40216 C 144.23915 12.4754 144.85977 12.59595 145.24677 12.67336 C 145.63376 12.75076 146.25437 12.87817 146.64136 12.9601 C 147.02837 13.04202 147.64899 13.17697 148.03598 13.26382 C 148.42298 13.35068 149.04358 13.49385 149.43058 13.58612 C 149.81757 13.67839 150.43819 13.83063 150.8252 13.92897 C 151.21219 14.02731 151.83281 14.18979 152.2198 14.29492 C 152.6068 14.40004 153.2274 14.57385 153.61441 14.6867 C 154.0014 14.79955 154.62203 14.98647 155.00902 15.10828 C 155.39601 15.23009 156.01662 15.43228 156.40361 15.56471 C 156.79062 15.69713 157.41124 15.91748 157.79824 16.06282 C 158.18523 16.20815 158.80583 16.45064 159.19283 16.61221 C 159.57984 16.77379 160.20046 17.04433 160.58745 17.22745 C 160.97444 17.41057 161.59506 17.71808 161.98206 17.93213 C 162.36905 18.14616 162.98966 18.50485 163.37667 18.77017 C 163.76366 19.03549 164.38428 19.45049 164.77127 19.8444 C 165.15827 20.23834 166.16588 21.60936 166.16588 21.60936 "/>
</g>
<symbol id="font_3_1">
<path d="M .57600006 0 C .59300008 0 .611 0 .611 .019999996 C .611 .040000008 .59300008 .040000008 .57600006 .040000008 L .035000005 .040000008 C .018 .040000008 0 .040000008 0 .019999996 C 0 0 .018 0 .035000005 0 L .57600006 0 Z "/>
</symbol>
<use xlink:href="#font_3_1" transform="matrix(9.9626,0,0,-9.9626,22.413897,161.4196)"/>
<symbol id="font_4_2">
<path d="M .07700001 .07700001 L .18300002 .18 C .33900003 .31800003 .39900003 .372 .39900003 .47200004 C .39900003 .586 .30900003 .666 .18700002 .666 C .074 .666 0 .574 0 .485 C 0 .42900003 .05 .42900003 .053000008 .42900003 C .07000001 .42900003 .105000007 .441 .105000007 .48200003 C .105000007 .508 .08700001 .53400006 .052000006 .53400006 C .044000005 .53400006 .042000008 .53400006 .039 .53300008 C .062000004 .59800007 .11600001 .63500007 .17400001 .63500007 C .26500003 .63500007 .308 .554 .308 .47200004 C .308 .39200003 .25800003 .31300003 .20300003 .25100003 L .011000004 .037 C 0 .026 0 .024 0 0 L .37100003 0 L .39900003 .17400001 L .374 .17400001 C .36900003 .14400001 .36200003 .1 .352 .085 C .345 .07700001 .279 .07700001 .257 .07700001 L .07700001 .07700001 Z "/>
</symbol>
<use xlink:href="#font_4_2" transform="matrix(9.9626,0,0,-9.9626,29.83313,163.711)"/>
<use xlink:href="#font_3_1" transform="matrix(9.9626,0,0,-9.9626,57.103899,161.4196)"/>
<symbol id="font_4_1">
<path d="M .205 .64000007 C .205 .66400006 .205 .666 .18200003 .666 C .120000008 .60200008 .032000007 .60200008 0 .60200008 L 0 .57100006 C .020000004 .57100006 .07900001 .57100006 .13100001 .597 L .13100001 .079 C .13100001 .043 .128 .031000002 .038000004 .031000002 L .0060000049 .031000002 L .0060000049 0 C .04100001 .003 .128 .003 .168 .003 C .20800002 .003 .29500003 .003 .33000005 0 L .33000005 .031000002 L .29800005 .031000002 C .20800002 .031000002 .205 .042000005 .205 .079 L .205 .64000007 Z "/>
</symbol>
<use xlink:href="#font_4_1" transform="matrix(9.9626,0,0,-9.9626,64.912677,163.711)"/>
<use xlink:href="#font_4_1" transform="matrix(9.9626,0,0,-9.9626,130.41867,163.711)"/>
<use xlink:href="#font_4_2" transform="matrix(9.9626,0,0,-9.9626,164.72113,163.711)"/>
<use xlink:href="#font_4_1" transform="matrix(9.9626,0,0,-9.9626,87.51867,125.96199)"/>
<use xlink:href="#font_4_2" transform="matrix(9.9626,0,0,-9.9626,87.13013,97.14199)"/>
<symbol id="font_4_3">
<path d="M .24800003 .37400005 C .33 .40100003 .388 .47100006 .388 .55 C .388 .632 .3 .688 .204 .688 C .10300001 .688 .027000003 .628 .027000003 .55200007 C .027000003 .519 .049000004 .5 .078 .5 C .109000008 .5 .12900001 .522 .12900001 .55100008 C .12900001 .6010001 .082 .6010001 .067 .6010001 C .098 .65000006 .164 .66300007 .20000002 .66300007 C .24100003 .66300007 .29600004 .64100006 .29600004 .55100008 C .29600004 .53900006 .29400004 .48100005 .268 .43700005 C .238 .38900004 .204 .38600005 .17900002 .38500003 C .171 .38400004 .14700002 .38200004 .14000002 .38200004 C .132 .38100005 .125 .38000003 .125 .37000004 C .125 .35900004 .132 .35900004 .14900002 .35900004 L .19300002 .35900004 C .275 .35900004 .312 .29100005 .312 .193 C .312 .057000005 .24300003 .028 .199 .028 C .15600002 .028 .081 .045 .046000005 .104 C .081 .09900001 .11200001 .12100001 .11200001 .15900001 C .11200001 .19500001 .085 .215 .056 .215 C .031999999 .215 0 .201 0 .157 C 0 .06600001 .093 0 .20200002 0 C .32400004 0 .41500003 .091000009 .41500003 .193 C .41500003 .27500005 .35200004 .35300005 .24800003 .37400005 Z "/>
</symbol>
<use xlink:href="#font_4_3" transform="matrix(9.9626,0,0,-9.9626,87.05042,68.54217)"/>
<symbol id="font_4_4">
<path d="M .266 .165 L .266 .078 C .266 .042000005 .26400004 .031000002 .19000001 .031000002 L .16900002 .031000002 L .16900002 0 C .21000001 .003 .26200003 .003 .30400003 .003 C .34600003 .003 .39900003 .003 .44000004 0 L .44000004 .031000002 L .41900004 .031000002 C .34500004 .031000002 .34300003 .042000005 .34300003 .078 L .34300003 .165 L .44300003 .165 L .44300003 .19600001 L .34300003 .19600001 L .34300003 .651 C .34300003 .671 .34300003 .67700007 .32700003 .67700007 C .31800003 .67700007 .31500004 .67700007 .307 .665 L 0 .19600001 L 0 .165 L .266 .165 M .272 .19600001 L .028 .19600001 L .272 .569 L .272 .19600001 Z "/>
</symbol>
<use xlink:href="#font_4_4" transform="matrix(9.9626,0,0,-9.9626,86.91095,39.503007)"/>
<symbol id="font_5_1">
<path d="M .305 .31300003 C .311 .33900003 .334 .43100003 .404 .43100003 C .409 .43100003 .433 .43100003 .454 .418 C .426 .41300003 .40600003 .388 .40600003 .36400003 C .40600003 .34800003 .417 .32900004 .444 .32900004 C .46600003 .32900004 .498 .34700004 .498 .38700003 C .498 .43900005 .439 .45300005 .405 .45300005 C .347 .45300005 .312 .40000005 .3 .37700004 C .275 .44300003 .221 .45300005 .19200002 .45300005 C .08800001 .45300005 .031000002 .32400004 .031000002 .29900003 C .031000002 .28900004 .041 .28900004 .043000007 .28900004 C .051000008 .28900004 .054000006 .291 .056 .3 C .09 .40600003 .156 .43100003 .19000001 .43100003 C .209 .43100003 .244 .42200003 .244 .36400003 C .244 .33300004 .22700002 .26600004 .19000001 .126 C .17400001 .064 .13900002 .022000002 .095000009 .022000002 C .08900001 .022000002 .06600001 .022000002 .045 .035 C .07000001 .040000004 .09200001 .061 .09200001 .089 C .09200001 .116000007 .07000001 .124000009 .055000009 .124000009 C .025 .124000009 0 .098000008 0 .06600001 C 0 .020000002 .050000006 0 .094000007 0 C .16000001 0 .19600001 .07000001 .19900002 .076000008 C .21100001 .039 .24700003 0 .307 0 C .41 0 .467 .12900001 .467 .15400002 C .467 .16400002 .458 .16400002 .455 .16400002 C .446 .16400002 .444 .16000001 .442 .15300001 C .409 .046 .341 .022000002 .30900003 .022000002 C .27 .022000002 .254 .054 .254 .08800001 C .254 .11000001 .26 .13200002 .271 .17600002 L .305 .31300003 Z "/>
</symbol>
<use xlink:href="#font_5_1" transform="matrix(9.9626,0,0,-9.9626,198.39192,153.82059)"/>
<symbol id="font_5_2">
<path d="M .45700003 .586 C .461 .6 .461 .602 .461 .609 C .461 .62700006 .447 .63600006 .432 .63600006 C .42200003 .63600006 .40600003 .63 .397 .615 C .395 .61 .387 .579 .38300003 .561 C .37600003 .535 .36900003 .508 .363 .48100005 L .318 .301 C .314 .286 .271 .21600002 .20500002 .21600002 C .15400002 .21600002 .143 .26000003 .143 .29700003 C .143 .34300003 .16000001 .40500004 .194 .49300004 C .21000001 .53400006 .21400002 .545 .21400002 .56500008 C .21400002 .61 .18200001 .6470001 .13200002 .6470001 C .037 .6470001 0 .50200006 0 .49300004 C 0 .48300005 .01 .48300005 .012 .48300005 C .022000002 .48300005 .023 .485 .028000003 .50100007 C .055000009 .595 .095000009 .625 .12900001 .625 C .13700001 .625 .15400002 .625 .15400002 .59300008 C .15400002 .568 .14400001 .54200008 .13700001 .523 C .097 .41700004 .079 .36 .079 .31300003 C .079 .224 .142 .194 .201 .194 C .24000003 .194 .274 .21100001 .30200003 .23900002 C .289 .187 .277 .13800001 .237 .08500001 C .21100001 .051 .17300001 .022 .127 .022 C .113000009 .022 .068 .025000006 .051000008 .06400001 C .067 .06400001 .080000009 .06400001 .094000007 .076000008 C .104 .08500001 .11400001 .098000008 .11400001 .117000009 C .11400001 .148 .087000008 .15200001 .07700001 .15200001 C .054000006 .15200001 .021 .136 .021 .087000008 C .021 .037 .065000008 0 .127 0 C .23 0 .333 .091000009 .361 .20400001 L .45700003 .586 Z "/>
</symbol>
<use xlink:href="#font_5_2" transform="matrix(9.9626,0,0,-9.9626,95.015918,9.726339)"/>
<path transform="matrix(1,0,0,-1,.199,174.627)" stroke-width="1" stroke-linecap="butt" stroke-miterlimit="10" stroke-linejoin="miter" fill="none" stroke="#808080" d="M 27.75273 20.92998 L 27.75273 25.18184 M 62.44363 20.92998 L 62.44363 25.18184 M 131.82547 20.92998 L 131.82547 25.18184 M 166.51639 20.92998 L 166.51639 25.18184 "/>
<path transform="matrix(1,0,0,-1,.199,174.627)" stroke-width="1" stroke-linecap="butt" stroke-miterlimit="10" stroke-linejoin="miter" fill="none" stroke="#808080" d="M 95.00845 51.87582 L 99.26064 51.87582 M 95.00845 80.69574 L 99.26064 80.69574 M 95.00845 109.51566 L 99.26064 109.51566 M 95.00845 138.33556 L 99.26064 138.33556 "/>
<path transform="matrix(1,0,0,-1,.199,174.627)" stroke-width="1" stroke-linecap="butt" stroke-miterlimit="10" stroke-linejoin="miter" fill="none" stroke="#000000" d="M 0 23.05592 L 192.2766 23.05592 "/>
<path transform="matrix(1,0,0,-1,192.4756,151.57108)" d="M 1.99252 0 L -1.19551 1.59401 L 0 0 L -1.19551 -1.59401 "/>
<path transform="matrix(1,0,0,-1,.199,174.627)" stroke-width="1" stroke-linecap="butt" stroke-miterlimit="10" stroke-linejoin="miter" fill="none" stroke="#000000" d="M 97.13455 0 L 97.13455 159.39897 "/>
<path transform="matrix(0,-1,-1,-0,97.33355,15.228027)" d="M 1.99252 0 L -1.19551 1.59401 L 0 0 L -1.19551 -1.59401 "/>
</svg>
