<?xml version="1.0" encoding="UTF-8" standalone="no"?>
<!DOCTYPE svg PUBLIC "-//W3C//DTD SVG 1.1//EN" "http://www.w3.org/Graphics/SVG/1.1/DTD/svg11.dtd">
<svg xmlns="http://www.w3.org/2000/svg" xmlns:xlink="http://www.w3.org/1999/xlink" version="1.1" width="208.468pt" height="174.851pt" viewBox="0 0 208.468 174.851">
<clipPath id="cp0">
<path transform="matrix(1,0,0,-1,1.394,174.652)" d="M 0 0 L 194.2739 0 L 194.2739 161.39667 L 0 161.39667 Z "/>
</clipPath>
<g clip-path="url(#cp0)">
<path transform="matrix(1,0,0,-1,1.394,174.652)" d="M 20.44987 59.46193 L 21.48264 65.49849 L 22.51541 67.99893 L 23.54819 69.91759 L 24.58096 71.53506 L 25.61374 72.96034 L 26.64651 74.24866 L 27.67923 75.43341 L 28.712 76.5362 L 29.74478 77.5719 L 30.77756 78.55154 L 31.81033 79.48329 L 32.84311 80.37357 L 33.87589 81.22742 L 34.90866 82.04906 L 35.94142 82.84186 L 36.9742 83.60861 L 38.00697 84.35176 L 39.03975 85.07333 L 40.07253 85.77515 L 41.10522 86.45876 L 42.138 87.12543 L 43.17078 87.77637 L 44.20357 88.41278 L 45.23634 89.0354 L 46.26912 89.64523 L 47.3019 90.24304 L 48.33467 90.82935 L 49.36745 91.40498 L 50.40022 91.97037 L 51.43298 92.52611 L 52.46576 93.07263 L 53.49846 93.61047 L 54.53123 94.13997 L 55.56401 94.6614 L 56.59679 95.17534 L 57.62956 95.68195 L 58.66234 96.18155 L 59.69511 96.67442 L 60.7279 97.16087 L 61.76068 97.64117 L 62.79346 98.11543 L 63.82623 98.584 L 64.85901 99.047 L 65.89178 99.50467 L 66.92447 99.95709 L 67.95724 100.40459 L 68.99002 100.84724 L 70.0228 101.28516 L 71.05557 101.71858 L 72.08835 102.14691 L 73.12112 102.57166 L 74.1539 102.99226 L 75.18668 103.40884 L 76.21945 103.82149 L 77.25217 104.23036 L 78.28494 104.63548 L 79.31772 105.03703 L 80.35048 105.43509 L 81.38326 105.82971 L 82.41603 106.22102 L 83.4488 106.6091 L 84.48158 106.99391 L 85.51436 107.37572 L 86.54713 107.75452 L 87.57983 108.13034 L 88.61261 108.50325 L 89.64539 108.87343 L 90.67816 109.24077 L 91.71094 109.60544 L 92.74371 109.96753 L 93.7765 110.32701 L 94.80928 110.68399 L 95.84204 111.03842 L 96.87482 111.39046 L 97.9076 111.74016 L 98.94029 112.08754 L 99.97307 112.43263 L 101.00584 112.77547 L 102.03862 113.11618 L 103.0714 113.45467 L 104.10417 113.79109 L 105.13695 114.12544 L 106.16972 114.4577 L 107.2025 114.78804 L 108.23528 115.11635 L 109.26796 115.4428 L 110.30075 115.76736 L 111.33353 116.08998 L 112.3663 116.41083 L 113.39908 116.72989 L 114.43185 117.04712 L 115.46463 117.36267 L 116.4974 117.67654 L 117.53018 117.98866 L 118.56296 118.29916 L 119.59566 118.60803 L 120.62843 118.9153 L 121.66121 119.22093 L 122.69398 119.52507 L 122.69882 59.46193 L 118.43846 59.46193 L 114.17809 59.46193 L 109.91771 59.46193 L 105.65736 59.46193 L 101.39699 59.46193 L 97.13663 59.46193 L 92.87625 59.46193 L 88.61588 59.46193 L 84.35553 59.46193 L 80.09508 59.46193 L 75.83472 59.46193 L 71.57434 59.46193 L 67.31398 59.46193 L 63.05362 59.46193 L 58.79324 59.46193 L 54.53288 59.46193 L 50.2725 59.46193 L 46.01215 59.46193 L 41.75179 59.46193 L 37.49133 59.46193 L 33.23097 59.46193 L 28.9706 59.46193 L 24.71024 59.46193 L 20.44987 59.46193 Z " fill="#cccce6"/>
</g>
<clipPath id="cp1">
<path transform="matrix(1,0,0,-1,1.394,174.652)" d="M 0 0 L 194.2739 0 L 194.2739 161.39667 L 0 161.39667 Z "/>
</clipPath>
<g clip-path="url(#cp1)">
<path transform="matrix(1,0,0,-1,1.394,174.652)" stroke-width="1.19553" stroke-linecap="butt" stroke-miterlimit="10" stroke-linejoin="miter" fill="none" stroke="#000080" d="M 0 59.46193 C 0 59.46193 8.92657 59.46193 12.35507 59.46193 C 15.78355 59.46193 21.28165 59.46193 24.71016 59.46193 C 28.13866 59.46193 33.63681 59.46193 37.06532 59.46193 C 40.49382 59.46193 45.99193 59.46193 49.42041 59.46193 C 52.84889 59.46193 58.34702 59.46193 61.7755 59.46193 C 65.20398 59.46193 70.70209 59.46193 74.13058 59.46193 C 77.55908 59.46193 83.05727 59.46193 86.48575 59.46193 C 89.91423 59.46193 95.41234 59.46193 98.84082 59.46193 C 102.26932 59.46193 107.76743 59.46193 111.1959 59.46193 C 114.6244 59.46193 120.12251 59.46193 123.551 59.46193 C 126.97949 59.46193 132.47759 59.46193 135.90608 59.46193 C 139.3346 59.46193 144.83275 59.46193 148.26126 59.46193 C 151.68976 59.46193 157.18785 59.46193 160.61635 59.46193 C 164.04483 59.46193 169.54294 59.46193 172.97144 59.46193 C 176.39992 59.46193 181.89803 59.46193 185.3265 59.46193 C 188.75499 59.46193 194.2531 59.46193 197.6816 59.46193 C 201.11009 59.46193 206.60826 59.46193 210.03676 59.46193 C 213.46526 59.46193 218.96337 59.46193 222.39185 59.46193 C 225.82033 59.46193 231.31845 59.46193 234.74694 59.46193 C 238.17543 59.46193 243.67354 59.46193 247.10202 59.46193 C 250.53052 59.46193 256.0286 59.46193 259.4571 59.46193 C 262.8856 59.46193 268.38377 59.46193 271.81227 59.46193 C 275.24079 59.46193 280.73887 59.46193 284.16737 59.46193 C 287.59584 59.46193 296.52247 59.46193 296.52247 59.46193 "/>
<path transform="matrix(1,0,0,-1,1.394,174.652)" stroke-width="1.19553" stroke-linecap="butt" stroke-miterlimit="10" stroke-linejoin="miter" fill="none" stroke="#800000" d="M 20.96599 63.72922 C 20.96599 63.72922 23.12999 69.08235 23.9611 70.59256 C 24.79224 72.10275 26.12509 73.61758 26.95624 74.61372 C 27.78737 75.60986 29.12029 76.96086 29.95142 77.7721 C 30.78255 78.58334 32.11542 79.75716 32.94655 80.4606 C 33.77766 81.16403 35.11055 82.2119 35.94167 82.84204 C 36.77278 83.4722 38.10565 84.42628 38.93678 85.0023 C 39.76793 85.57832 41.10085 86.45976 41.93199 86.99368 C 42.76312 87.52759 44.09598 88.3505 44.9271 88.85037 C 45.75822 89.35025 47.0911 90.12485 47.92223 90.5965 C 48.75334 91.06816 50.08621 91.80206 50.91734 92.24982 C 51.74849 92.69759 53.0814 93.39655 53.91255 93.8237 C 54.74368 94.25085 56.07654 94.91939 56.90765 95.32854 C 57.73878 95.7377 59.07166 96.37944 59.90279 96.77274 C 60.7339 97.16602 62.06677 97.78401 62.8979 98.16313 C 63.72905 98.54225 65.06197 99.13887 65.8931 99.50525 C 66.72424 99.87164 68.05711 100.44905 68.88823 100.8038 C 69.71935 101.15857 71.05222 101.7179 71.88333 102.06213 C 72.71446 102.40639 74.04733 102.95023 74.87846 103.28494 C 75.70958 103.61966 77.04245 104.1487 77.87358 104.47455 C 78.70473 104.80042 80.03764 105.31586 80.86879 105.63353 C 81.69992 105.95119 83.03278 106.45406 83.86389 106.76411 C 84.69502 107.07417 86.0279 107.56532 86.85902 107.86832 C 87.69014 108.17131 89.02303 108.65152 89.85414 108.94789 C 90.68527 109.24425 92.01813 109.71423 92.84927 110.0044 C 93.6804 110.29456 95.01334 110.75491 95.84447 111.03926 C 96.6756 111.3236 98.00845 111.77492 98.83958 112.05377 C 99.6707 112.33263 101.00359 112.77536 101.8347 113.04903 C 102.66582 113.3227 103.9987 113.75745 104.82982 114.02621 C 105.66095 114.29498 106.9938 114.72205 107.82495 114.98616 C 108.65608 115.25027 109.989 115.67014 110.82013 115.92982 C 111.65128 116.18951 112.98413 116.60245 113.81526 116.85796 C 114.64638 117.11345 115.97926 117.51982 116.81038 117.7713 C 117.64151 118.02278 118.97438 118.4229 119.80551 118.67058 C 120.63663 118.91824 121.96948 119.31235 122.80061 119.55638 C 123.63176 119.8004 124.96468 120.18883 125.79582 120.42935 C 126.62695 120.66988 127.95982 121.05276 128.79094 121.28993 C 129.62207 121.5271 130.95494 121.90477 131.78607 122.13872 C 132.61719 122.37268 133.95008 122.74538 134.78119 122.97624 C 135.6123 123.20712 136.94516 123.57484 137.77629 123.80275 C 138.60744 124.03065 139.94036 124.39383 140.7715 124.61888 C 141.60263 124.84393 142.9355 125.20255 143.76662 125.42484 C 144.59775 125.64714 145.93062 126.00142 146.76175 126.22107 C 147.59287 126.44073 148.92574 126.7909 149.75685 127.00798 C 150.58798 127.22507 151.92084 127.57112 152.75199 127.78574 C 153.58312 128.00037 154.91605 128.34259 155.74718 128.55483 C 156.57833 128.76706 157.91118 129.10549 158.74231 129.31542 C 159.57343 129.52533 160.90631 129.86016 161.73743 130.06783 C 162.56856 130.2755 163.90142 130.60678 164.73255 130.81229 C 165.56366 131.01779 166.89653 131.34563 167.72766 131.54904 C 168.55879 131.75244 169.89173 132.07695 170.72286 132.27832 C 171.554 132.47969 172.88686 132.80101 173.71799 133.00041 C 174.5491 133.19982 175.88198 133.51804 176.71309 133.71552 C 177.54422 133.913 178.87709 134.22814 179.70822 134.42375 C 180.53934 134.61936 181.87221 134.93155 182.70334 135.12535 C 183.53449 135.31914 184.8674 135.62845 185.69855 135.82048 C 186.52968 136.01251 187.86255 136.31908 188.69367 136.5094 C 189.5248 136.6997 190.85765 137.00353 191.68878 137.19217 C 192.5199 137.3808 193.85279 137.682 194.6839 137.86902 C 195.51503 138.05603 196.84789 138.35468 197.67903 138.5401 C 198.51016 138.72554 199.8431 139.02162 200.67423 139.20549 C 201.50536 139.38936 202.83821 139.683 203.66933 139.86537 C 204.50046 140.04773 205.83333 140.33905 206.66446 140.51995 C 207.49558 140.70082 208.82846 140.98972 209.65958 141.16918 C 210.4907 141.34865 211.82357 141.63533 212.65471 141.81339 C 213.48584 141.99143 214.81877 142.27584 215.6499 142.45252 C 216.48105 142.6292 217.81389 142.91147 218.64502 143.0868 C 219.47614 143.26215 220.80902 143.54225 221.64014 143.7163 C 222.47127 143.89032 223.80414 144.16843 224.63527 144.34117 C 225.46639 144.5139 226.79926 144.78989 227.63039 144.96138 C 228.46154 145.13288 229.79444 145.40694 230.62558 145.5772 C 231.45671 145.74745 232.78958 146.01952 233.6207 146.18859 C 234.45182 146.35767 235.7847 146.62789 236.61582 146.79578 C 237.44695 146.96369 238.77982 147.23203 239.61095 147.39876 C 240.44207 147.56549 241.77492 147.83199 242.60605 147.99759 C 243.4372 148.16321 244.77011 148.42789 245.60126 148.59239 C 246.43239 148.75691 247.76526 149.01992 248.59638 149.18334 C 249.4275 149.34676 250.76038 149.60794 251.5915 149.7703 C 252.42263 149.93265 253.75551 150.19219 254.58663 150.3535 C 255.41776 150.51483 256.7506 150.7727 257.58174 150.93302 C 258.41288 151.09333 259.7458 151.3496 260.57695 151.5089 C 261.40809 151.6682 262.74095 151.92285 263.57209 152.08116 C 264.40318 152.23947 265.73609 152.49259 266.56718 152.64994 C 267.3983 152.80727 268.73118 153.05886 269.5623 153.21524 C 270.39344 153.37165 271.7263 153.62174 272.55744 153.7772 C 273.38856 153.93268 274.72148 154.18125 275.5526 154.33579 C 276.38377 154.49033 277.7166 154.73741 278.54774 154.89107 C 279.37886 155.04471 280.71177 155.29047 281.54286 155.44324 C 282.374 155.596 283.70686 155.84026 284.538 155.99216 C 285.3691 156.14406 286.70198 156.38698 287.5331 156.53803 C 288.36424 156.68907 289.69718 156.9306 290.5283 157.08081 C 291.35945 157.231 292.6923 157.47122 293.5234 157.62059 C 294.35456 157.76998 296.51856 158.15747 296.51856 158.15747 "/>
<path transform="matrix(1,0,0,-1,1.394,174.652)" stroke-width="1.19553" stroke-linecap="butt" stroke-miterlimit="10" stroke-linejoin="miter" fill="none" stroke="#008000" d="M 122.6993 -110.42929 L 122.6993 569.1356 "/>
<symbol id="font_2_4">
<path d="M .45700003 .586 C .461 .6 .461 .602 .461 .609 C .461 .62700006 .447 .63600006 .432 .63600006 C .42200003 .63600006 .40600003 .63 .397 .615 C .395 .61 .387 .579 .38300003 .561 C .37600003 .535 .36900003 .508 .363 .48100005 L .318 .301 C .314 .286 .271 .21600002 .20500002 .21600002 C .15400002 .21600002 .143 .26000003 .143 .29700003 C .143 .34300003 .16000001 .40500004 .194 .49300004 C .21000001 .53400006 .21400002 .545 .21400002 .56500008 C .21400002 .61 .18200001 .6470001 .13200002 .6470001 C .037 .6470001 0 .50200006 0 .49300004 C 0 .48300005 .01 .48300005 .012 .48300005 C .022000002 .48300005 .023 .485 .028000003 .50100007 C .055000009 .595 .095000009 .625 .12900001 .625 C .13700001 .625 .15400002 .625 .15400002 .59300008 C .15400002 .568 .14400001 .54200008 .13700001 .523 C .097 .41700004 .079 .36 .079 .31300003 C .079 .224 .142 .194 .201 .194 C .24000003 .194 .274 .21100001 .30200003 .23900002 C .289 .187 .277 .13800001 .237 .08500001 C .21100001 .051 .17300001 .022 .127 .022 C .113000009 .022 .068 .025000006 .051000008 .06400001 C .067 .06400001 .080000009 .06400001 .094000007 .076000008 C .104 .08500001 .11400001 .098000008 .11400001 .117000009 C .11400001 .148 .087000008 .15200001 .07700001 .15200001 C .054000006 .15200001 .021 .136 .021 .087000008 C .021 .037 .065000008 0 .127 0 C .23 0 .333 .091000009 .361 .20400001 L .45700003 .586 Z "/>
</symbol>
<use xlink:href="#font_2_4" transform="matrix(9.9626,0,0,-9.9626,56.995916,61.032316)" fill="#800000"/>
<symbol id="font_3_5">
<path d="M .63100007 .19400002 C .646 .19400002 .665 .19400002 .665 .214 C .665 .23400001 .646 .23400001 .632 .23400001 L .033 .23400001 C .019000002 .23400001 0 .23400001 0 .214 C 0 .19400002 .019000002 .19400002 .034 .19400002 L .63100007 .19400002 M .632 0 C .646 0 .665 0 .665 .02000001 C .665 .040000008 .646 .040000008 .63100007 .040000008 L .034 .040000008 C .019000002 .040000008 0 .040000008 0 .02000001 C 0 0 .019000002 0 .033 0 L .632 0 Z "/>
</symbol>
<use xlink:href="#font_3_5" transform="matrix(9.9626,0,0,-9.9626,65.27391,57.664957)" fill="#800000"/>
<symbol id="font_4_2">
<path d="M .316 .10500002 L .14000002 .49400003 C .13300002 .51 .12799999 .51 .125 .51 C .124000009 .51 .118999999 .51 .108 .502 L .012999997 .43 C 0 .42000003 0 .417 0 .41400004 C 0 .40900005 .0029999987 .403 .009999998 .403 C .015999996 .403 .033 .417 .044 .425 C .049999998 .43 .065000008 .44099999 .076 .449 L .273 .015999973 C .28 0 .285 0 .294 0 C .30900003 0 .312 .0059999825 .319 .01999998 L .773 .96000006 C .78000006 .97400006 .78000006 .97800007 .78000006 .98 C .78000006 .99 .772 1 .76000007 1 C .75200006 1 .745 .99500009 .73700007 .97900006 L .316 .10500002 Z "/>
</symbol>
<use xlink:href="#font_4_2" transform="matrix(9.9626,0,0,-9.9626,75.959278,60.892076)" fill="#800000"/>
<path transform="matrix(1,0,0,-1,83.534,51.128984)" stroke-width="1" stroke-linecap="butt" stroke-miterlimit="10" stroke-linejoin="miter" fill="none" stroke="#800000" d="M 0 0 L 5.694 0 "/>
<symbol id="font_2_3">
<path d="M .305 .31300003 C .311 .33900003 .334 .43100003 .404 .43100003 C .409 .43100003 .433 .43100003 .454 .418 C .426 .41300003 .40600003 .388 .40600003 .36400003 C .40600003 .34800003 .417 .32900004 .444 .32900004 C .46600003 .32900004 .498 .34700004 .498 .38700003 C .498 .43900005 .439 .45300005 .405 .45300005 C .347 .45300005 .312 .40000005 .3 .37700004 C .275 .44300003 .221 .45300005 .19200002 .45300005 C .08800001 .45300005 .031000002 .32400004 .031000002 .29900003 C .031000002 .28900004 .041 .28900004 .043000007 .28900004 C .051000008 .28900004 .054000006 .291 .056 .3 C .09 .40600003 .156 .43100003 .19000001 .43100003 C .209 .43100003 .244 .42200003 .244 .36400003 C .244 .33300004 .22700002 .26600004 .19000001 .126 C .17400001 .064 .13900002 .022000002 .095000009 .022000002 C .08900001 .022000002 .06600001 .022000002 .045 .035 C .07000001 .040000004 .09200001 .061 .09200001 .089 C .09200001 .116000007 .07000001 .124000009 .055000009 .124000009 C .025 .124000009 0 .098000008 0 .06600001 C 0 .020000002 .050000006 0 .094000007 0 C .16000001 0 .19600001 .07000001 .19900002 .076000008 C .21100001 .039 .24700003 0 .307 0 C .41 0 .467 .12900001 .467 .15400002 C .467 .16400002 .458 .16400002 .455 .16400002 C .446 .16400002 .444 .16000001 .442 .15300001 C .409 .046 .341 .022000002 .30900003 .022000002 C .27 .022000002 .254 .054 .254 .08800001 C .254 .11000001 .26 .13200002 .271 .17600002 L .305 .31300003 Z "/>
</symbol>
<use xlink:href="#font_2_3" transform="matrix(9.9626,0,0,-9.9626,83.822917,59.09957)" fill="#800000"/>
<use xlink:href="#font_2_4" transform="matrix(9.9626,0,0,-9.9626,163.7509,110.98033)" fill="#000080"/>
<symbol id="font_3_1">
<path d="M .421 .34200005 C .421 .42200003 .416 .50200006 .381 .57600006 C .335 .67200008 .25300003 .688 .211 .688 C .15100001 .688 .07800001 .66200008 .037000006 .56900009 C .0050000029 .5 0 .42200003 0 .34200005 C 0 .26700003 .0040000008 .177 .045000007 .101 C .088 .020000002 .161 0 .21000001 0 C .264 0 .34 .021000002 .384 .116000007 C .416 .185 .421 .263 .421 .34200005 M .21000001 .022000002 C .171 .022000002 .112 .047000003 .094 .143 C .083000008 .20300001 .083000008 .29500003 .083000008 .35400004 C .083000008 .41800005 .083000008 .48400004 .091000009 .53800007 C .11 .65700009 .185 .66600009 .21000001 .66600009 C .243 .66600009 .30900003 .64800009 .328 .549 C .338 .49300004 .338 .41700004 .338 .35400004 C .338 .279 .338 .21100001 .32700003 .147 C .312 .052 .255 .022000002 .21000001 .022000002 Z "/>
</symbol>
<use xlink:href="#font_3_5" transform="matrix(9.9626,0,0,-9.9626,172.02989,107.61297)" fill="#000080"/>
<use xlink:href="#font_3_1" transform="matrix(9.9626,0,0,-9.9626,182.38103,109.15717)" fill="#000080"/>
<use xlink:href="#font_2_3" transform="matrix(9.9626,0,0,-9.9626,91.95191,33.565584)" fill="#008000"/>
<symbol id="font_3_3">
<path d="M .07700001 .07700001 L .18300002 .18 C .33900003 .31800003 .39900003 .372 .39900003 .47200004 C .39900003 .586 .30900003 .666 .18700002 .666 C .074 .666 0 .574 0 .485 C 0 .42900003 .05 .42900003 .053000008 .42900003 C .07000001 .42900003 .105000007 .441 .105000007 .48200003 C .105000007 .508 .08700001 .53400006 .052000006 .53400006 C .044000005 .53400006 .042000008 .53400006 .039 .53300008 C .062000004 .59800007 .11600001 .63500007 .17400001 .63500007 C .26500003 .63500007 .308 .554 .308 .47200004 C .308 .39200003 .25800003 .31300003 .20300003 .25100003 L .011000004 .037 C 0 .026 0 .024 0 0 L .37100003 0 L .39900003 .17400001 L .374 .17400001 C .36900003 .14400001 .36200003 .1 .352 .085 C .345 .07700001 .279 .07700001 .257 .07700001 L .07700001 .07700001 Z "/>
</symbol>
<use xlink:href="#font_3_5" transform="matrix(9.9626,0,0,-9.9626,100.6819,32.130968)" fill="#008000"/>
<use xlink:href="#font_3_3" transform="matrix(9.9626,0,0,-9.9626,111.142627,33.455995)" fill="#008000"/>
<path transform="matrix(1,0,0,-1,1.394,174.652)" stroke-width="1.19553" stroke-linecap="butt" stroke-dasharray="1.19553,1.99255" stroke-miterlimit="10" stroke-linejoin="miter" fill="none" stroke="#cc6600" d="M -490.7972 16.98912 L 531.69699 16.98912 "/>
<use xlink:href="#font_2_4" transform="matrix(9.9626,0,0,-9.9626,134.31491,170.44132)" fill="#cc6600"/>
<use xlink:href="#font_3_5" transform="matrix(9.9626,0,0,-9.9626,142.59291,167.07396)" fill="#cc6600"/>
<symbol id="font_4_1">
<path d="M .57600006 0 C .59300008 0 .611 0 .611 .019999996 C .611 .040000008 .59300008 .040000008 .57600006 .040000008 L .035000005 .040000008 C .018 .040000008 0 .040000008 0 .019999996 C 0 0 .018 0 .035000005 0 L .57600006 0 Z "/>
</symbol>
<use xlink:href="#font_4_1" transform="matrix(9.9626,0,0,-9.9626,153.3779,166.10759)" fill="#cc6600"/>
<symbol id="font_3_2">
<path d="M .205 .64000007 C .205 .66400006 .205 .666 .18200003 .666 C .120000008 .60200008 .032000007 .60200008 0 .60200008 L 0 .57100006 C .020000004 .57100006 .07900001 .57100006 .13100001 .597 L .13100001 .079 C .13100001 .043 .128 .031000002 .038000004 .031000002 L .0060000049 .031000002 L .0060000049 0 C .04100001 .003 .128 .003 .168 .003 C .20800002 .003 .29500003 .003 .33000005 0 L .33000005 .031000002 L .29800005 .031000002 C .20800002 .031000002 .205 .042000005 .205 .079 L .205 .64000007 Z "/>
</symbol>
<use xlink:href="#font_3_2" transform="matrix(9.9626,0,0,-9.9626,161.18668,168.39899)" fill="#cc6600"/>
<path transform="matrix(1,0,0,-1,1.394,174.652)" stroke-width="1.19553" stroke-linecap="butt" stroke-miterlimit="10" stroke-linejoin="miter" fill="none" stroke="#800080" d="M 71.57458 16.98912 L 71.57458 101.93472 "/>
<path transform="matrix(1,0,0,-1,1.394,174.652)" stroke-width="1.19553" stroke-linecap="butt" stroke-miterlimit="10" stroke-linejoin="miter" fill="none" stroke="#800080" d="M 51.1247 16.98912 L 51.1247 59.46193 "/>
<symbol id="font_2_1">
<path d="M .33400003 .63600006 C .34 .66 .343 .67 .36200003 .67300006 C .37100003 .674 .40300004 .674 .423 .674 C .49400003 .674 .605 .674 .605 .57500007 C .605 .54100009 .58900007 .47200004 .55 .43300004 C .524 .40700004 .47100003 .37500004 .381 .37500004 L .269 .37500004 L .33400003 .63600006 M .47800005 .36200003 C .579 .38400004 .698 .45400004 .698 .55500009 C .698 .64100006 .60800006 .70500007 .477 .70500007 L .192 .70500007 C .17200002 .70500007 .16300002 .70500007 .16300002 .68500009 C .16300002 .674 .17200002 .674 .19100002 .674 C .19300002 .674 .21200001 .674 .229 .67200008 C .24700001 .67 .256 .669 .256 .656 C .256 .65200009 .255 .64900007 .252 .637 L .11800001 .1 C .108 .061000006 .106 .053000004 .027000003 .053000004 C .009 .053000004 0 .053000004 0 .033000005 C 0 .022000002 .012000002 .022000002 .014000002 .022000002 C .042000005 .022000002 .11200001 .025000003 .14000002 .025000003 C .16800002 .025000003 .239 .022000002 .26700003 .022000002 C .275 .022000002 .287 .022000002 .287 .042000005 C .287 .053000004 .278 .053000004 .259 .053000004 C .222 .053000004 .194 .053000004 .194 .071 C .194 .07700001 .19600001 .082 .197 .088 L .263 .35300005 L .382 .35300005 C .473 .35300005 .491 .29700003 .491 .26200003 C .491 .24700001 .48300005 .216 .477 .193 C .47000004 .165 .46100004 .128 .46100004 .108 C .46100004 0 .58100005 0 .59400007 0 C .679 0 .71400007 .101 .71400007 .115 C .71400007 .127 .703 .127 .702 .127 C .693 .127 .69100007 .120000008 .689 .113000009 C .66400006 .039000006 .62100008 .022000002 .59800007 .022000002 C .565 .022000002 .558 .044000005 .558 .083000008 C .558 .11400001 .564 .165 .568 .19700001 C .57 .21100001 .572 .23 .572 .24400002 C .572 .32100005 .505 .35200004 .47800005 .36200003 Z "/>
</symbol>
<use xlink:href="#font_2_1" transform="matrix(9.9626,0,0,-9.9626,79.780467,101.82517)" fill="#800080"/>
<symbol id="font_2_2">
<path d="M .059000009 .07000001 C .056 .055000005 .050000006 .032 .050000006 .027000003 C .050000006 .009000001 .064 0 .079 0 C .091000009 0 .10900001 .008000001 .11600001 .028 C .118 .032 .15200001 .16800002 .156 .18600002 C .164 .21900001 .18200001 .28900004 .18800001 .316 C .19200002 .32900004 .22000002 .37600003 .244 .39800004 C .252 .40500004 .281 .43100003 .324 .43100003 C .35 .43100003 .365 .41900004 .366 .41900004 C .336 .41400004 .314 .39000003 .314 .36400003 C .314 .34800003 .325 .32900004 .352 .32900004 C .379 .32900004 .407 .35200004 .407 .388 C .407 .42300005 .375 .45300005 .324 .45300005 C .259 .45300005 .21500002 .404 .19600001 .37600003 C .18800001 .42100004 .15200001 .45300005 .105000007 .45300005 C .059000009 .45300005 .040000008 .41400004 .031000002 .39600004 C .013000002 .36200003 0 .30200003 0 .29900003 C 0 .28900004 .01 .28900004 .012 .28900004 C .022000002 .28900004 .023 .29000003 .029000001 .31200005 C .046000005 .38300003 .06600001 .43100003 .10200001 .43100003 C .119 .43100003 .133 .42300005 .133 .38500003 C .133 .36400003 .13000001 .35300002 .11700001 .30100004 L .059000009 .07000001 Z "/>
</symbol>
<use xlink:href="#font_2_2" transform="matrix(9.9626,0,0,-9.9626,55.533918,138.68058)" fill="#800080"/>
</g>
<use xlink:href="#font_3_2" transform="matrix(9.9626,0,0,-9.9626,71.36367,127.33)"/>
<use xlink:href="#font_3_3" transform="matrix(9.9626,0,0,-9.9626,122.09913,127.33)"/>
<symbol id="font_3_4">
<path d="M .24800003 .37400005 C .33 .40100003 .388 .47100006 .388 .55 C .388 .632 .3 .688 .204 .688 C .10300001 .688 .027000003 .628 .027000003 .55200007 C .027000003 .519 .049000004 .5 .078 .5 C .109000008 .5 .12900001 .522 .12900001 .55100008 C .12900001 .6010001 .082 .6010001 .067 .6010001 C .098 .65000006 .164 .66300007 .20000002 .66300007 C .24100003 .66300007 .29600004 .64100006 .29600004 .55100008 C .29600004 .53900006 .29400004 .48100005 .268 .43700005 C .238 .38900004 .204 .38600005 .17900002 .38500003 C .171 .38400004 .14700002 .38200004 .14000002 .38200004 C .132 .38100005 .125 .38000003 .125 .37000004 C .125 .35900004 .132 .35900004 .14900002 .35900004 L .19300002 .35900004 C .275 .35900004 .312 .29100005 .312 .193 C .312 .057000005 .24300003 .028 .199 .028 C .15600002 .028 .081 .045 .046000005 .104 C .081 .09900001 .11200001 .12100001 .11200001 .15900001 C .11200001 .19500001 .085 .215 .056 .215 C .031999999 .215 0 .201 0 .157 C 0 .06600001 .093 0 .20200002 0 C .32400004 0 .41500003 .091000009 .41500003 .193 C .41500003 .27500005 .35200004 .35300005 .24800003 .37400005 Z "/>
</symbol>
<use xlink:href="#font_3_4" transform="matrix(9.9626,0,0,-9.9626,173.14342,127.54918)"/>
<use xlink:href="#font_4_1" transform="matrix(9.9626,0,0,-9.9626,4.220896,158.1666)"/>
<use xlink:href="#font_3_2" transform="matrix(9.9626,0,0,-9.9626,12.029671,160.458)"/>
<use xlink:href="#font_3_2" transform="matrix(9.9626,0,0,-9.9626,12.029671,75.928989)"/>
<use xlink:href="#font_3_3" transform="matrix(9.9626,0,0,-9.9626,11.6411299,33.455995)"/>
<use xlink:href="#font_2_3" transform="matrix(9.9626,0,0,-9.9626,199.6689,117.41557)"/>
<use xlink:href="#font_2_4" transform="matrix(9.9626,0,0,-9.9626,19.609915,9.726324)"/>
<path transform="matrix(1,0,0,-1,1.394,174.652)" stroke-width="1" stroke-linecap="butt" stroke-miterlimit="10" stroke-linejoin="miter" fill="none" stroke="#808080" d="M 71.57458 57.33626 L 71.57458 61.58757 M 122.6993 57.33626 L 122.6993 61.58757 M 173.824 57.33626 L 173.824 61.58757 "/>
<path transform="matrix(1,0,0,-1,1.394,174.652)" stroke-width="1" stroke-linecap="butt" stroke-miterlimit="10" stroke-linejoin="miter" fill="none" stroke="#808080" d="M 18.32433 16.98912 L 22.57542 16.98912 M 18.32433 101.93472 L 22.57542 101.93472 M 18.32433 144.40753 L 22.57542 144.40753 "/>
<path transform="matrix(1,0,0,-1,1.394,174.652)" stroke-width="1" stroke-linecap="butt" stroke-miterlimit="10" stroke-linejoin="miter" fill="none" stroke="#000000" d="M 0 59.46193 L 192.28137 59.46193 "/>
<path transform="matrix(1,0,0,-1,193.67537,115.19006)" d="M 1.99252 0 L -1.19551 1.59401 L 0 0 L -1.19551 -1.59401 "/>
<path transform="matrix(1,0,0,-1,1.394,174.652)" stroke-width="1" stroke-linecap="butt" stroke-miterlimit="10" stroke-linejoin="miter" fill="none" stroke="#000000" d="M 20.44987 0 L 20.44987 159.40415 "/>
<path transform="matrix(0,-1,-1,-0,21.843869,15.2478489)" d="M 1.99252 0 L -1.19551 1.59401 L 0 0 L -1.19551 -1.59401 "/>
</svg>
