<?xml version="1.0" encoding="UTF-8" standalone="no"?>
<!DOCTYPE svg PUBLIC "-//W3C//DTD SVG 1.1//EN" "http://www.w3.org/Graphics/SVG/1.1/DTD/svg11.dtd">
<svg xmlns="http://www.w3.org/2000/svg" xmlns:xlink="http://www.w3.org/1999/xlink" version="1.1" width="207.22pt" height="174.864pt" viewBox="0 0 207.22 174.864">
<clipPath id="cp0">
<path transform="matrix(1,0,0,-1,.199,174.665)" d="M 0 0 L 194.27387 0 L 194.27387 161.39667 L 0 161.39667 Z "/>
</clipPath>
<g clip-path="url(#cp0)">
<path transform="matrix(1,0,0,-1,.199,174.665)" d="M 125.7066 123.17113 L 128.08739 123.17113 L 130.46819 123.17113 L 132.84899 123.17113 L 135.22977 123.17113 L 137.61061 123.17113 L 139.99141 123.17113 L 142.3722 123.17113 L 144.75299 123.17113 L 147.13379 123.17113 L 149.51457 123.17113 L 151.89537 123.17113 L 154.27616 123.17113 L 156.65695 123.17113 L 159.03774 123.17113 L 161.41858 123.17113 L 163.79938 123.17113 L 166.18016 123.17113 L 168.56096 123.17113 L 170.94176 123.17113 L 173.32254 123.17113 L 175.70334 123.17113 L 178.08414 123.17113 L 180.46494 123.17113 L 182.8457 123.17113 L 154.27582 16.98912 L 153.08544 16.98912 L 151.89502 16.98912 L 150.70464 16.98912 L 149.51427 16.98912 L 148.32389 16.98912 L 147.13353 16.98912 L 145.9431 16.98912 L 144.75273 16.98912 L 143.56235 16.98912 L 142.37198 16.98912 L 141.1816 16.98912 L 139.99118 16.98912 L 138.80081 16.98912 L 137.61043 16.98912 L 136.42008 16.98912 L 135.22969 16.98912 L 134.03928 16.98912 L 132.84889 16.98912 L 131.65853 16.98912 L 130.46814 16.98912 L 129.27777 16.98912 L 128.08734 16.98912 L 126.89697 16.98912 L 125.7066 16.98912 Z " fill="#cccce6"/>
</g>
<clipPath id="cp1">
<path transform="matrix(1,0,0,-1,.199,174.665)" d="M 0 0 L 194.27387 0 L 194.27387 161.39667 L 0 161.39667 Z "/>
</clipPath>
<g clip-path="url(#cp1)">
<path transform="matrix(1,0,0,-1,.199,174.665)" d="M 154.27629 16.98912 L 155.46666 20.5653 L 156.65703 24.21521 L 157.84746 27.939 L 159.03783 31.73639 L 160.22821 35.60748 L 161.41858 39.55234 L 162.60897 43.57092 L 163.79938 47.66339 L 164.98976 51.82947 L 166.18012 56.06926 L 167.37049 60.38278 L 168.56087 64.77005 L 169.75128 69.23119 L 170.94167 73.76593 L 172.13204 78.37439 L 173.32242 83.0566 L 174.51279 87.81253 L 175.70322 92.64236 L 176.89357 97.54576 L 178.08396 102.52292 L 179.27433 107.57379 L 180.4647 112.69838 L 181.65512 117.89693 L 182.84549 123.16899 L 182.8457 123.17113 L 180.46494 123.17113 L 178.08414 123.17113 L 175.70334 123.17113 L 173.32254 123.17113 L 170.94176 123.17113 L 168.56096 123.17113 L 166.18016 123.17113 L 163.79938 123.17113 L 161.41858 123.17113 L 159.03774 123.17113 L 156.65695 123.17113 L 154.27616 123.17113 L 151.89537 123.17113 L 149.51457 123.17113 L 147.13379 123.17113 L 144.75299 123.17113 L 142.3722 123.17113 L 139.99141 123.17113 L 137.61061 123.17113 L 135.22977 123.17113 L 132.84899 123.17113 L 130.46819 123.17113 L 128.08739 123.17113 L 125.7066 123.17113 Z " fill="#cccce6"/>
</g>
<clipPath id="cp2">
<path transform="matrix(1,0,0,-1,.199,174.665)" d="M 0 0 L 194.27387 0 L 194.27387 161.39667 L 0 161.39667 Z "/>
</clipPath>
<g clip-path="url(#cp2)">
<path transform="matrix(1,0,0,-1,.199,174.665)" stroke-width="1.19553" stroke-linecap="butt" stroke-miterlimit="10" stroke-linejoin="miter" fill="none" stroke="#000080" d="M 97.13693 -67.95648 C 97.13693 -67.95648 99.80313 -67.79881 100.82715 -67.60219 C 101.85117 -67.40556 103.49335 -66.93253 104.51736 -66.53926 C 105.54138 -66.14601 107.18361 -65.35767 108.20763 -64.76776 C 109.23164 -64.17787 110.87383 -63.07414 111.89784 -62.28761 C 112.92188 -61.50107 114.56404 -60.08205 115.58807 -59.09886 C 116.61209 -58.11569 118.25427 -56.3813 119.27829 -55.20149 C 120.3023 -54.02168 121.94453 -51.97198 122.96855 -50.59554 C 123.99257 -49.21909 125.63477 -46.85403 126.65878 -45.28096 C 127.6828 -43.70787 129.32498 -41.02751 130.349 -39.2578 C 131.37303 -37.48807 133.0152 -34.49239 134.03923 -32.52602 C 135.06325 -30.55966 136.70543 -27.24863 137.72945 -25.08563 C 138.75347 -22.92262 140.39569 -19.29617 141.41971 -16.93654 C 142.44373 -14.57689 144.0859 -10.63521 145.10993 -8.07895 C 146.13396 -5.52269 147.77614 -1.26561 148.80017 1.48727 C 149.82419 4.24017 151.46637 8.81255 152.49039 11.76208 C 153.5144 14.71161 155.15659 19.59932 156.1806 22.74551 C 157.20462 25.8917 158.84685 31.09486 159.87087 34.43768 C 160.89488 37.78052 162.53707 43.29887 163.56108 46.83832 C 164.58512 50.37776 166.22728 56.21147 167.25131 59.94756 C 168.27533 63.68364 169.91751 69.8327 170.94153 73.76541 C 171.96555 77.69814 173.60774 84.1625 174.63176 88.29189 C 175.65578 92.42125 177.298 99.20111 178.32202 103.52711 C 179.34606 107.85313 180.98822 114.94821 182.01226 119.47084 C 183.03627 123.99345 185.70247 136.12311 185.70247 136.12311 "/>
<path transform="matrix(1,0,0,-1,.199,174.665)" stroke-width="1.19553" stroke-linecap="butt" stroke-miterlimit="10" stroke-linejoin="miter" fill="none" stroke="#cc6600" d="M -188.55992 123.17113 C -188.55992 123.17113 -171.3586 123.17113 -164.75197 123.17113 C -158.14534 123.17113 -147.55059 123.17113 -140.94396 123.17113 C -134.33733 123.17113 -123.74255 123.17113 -117.13594 123.17113 C -110.52931 123.17113 -99.93459 123.17113 -93.32796 123.17113 C -86.72133 123.17113 -76.12657 123.17113 -69.51994 123.17113 C -62.91331 123.17113 -52.31856 123.17113 -45.71193 123.17113 C -39.1053 123.17113 -28.51054 123.17113 -21.90392 123.17113 C -15.29729 123.17113 -4.70253 123.17113 1.90408 123.17113 C 8.51071 123.17113 19.10545 123.17113 25.71208 123.17113 C 32.31871 123.17113 42.91342 123.17113 49.52005 123.17113 C 56.12668 123.17113 66.72145 123.17113 73.32808 123.17113 C 79.93471 123.17113 90.52946 123.17113 97.1361 123.17113 C 103.74272 123.17113 114.33748 123.17113 120.9441 123.17113 C 127.55074 123.17113 138.1455 123.17113 144.75212 123.17113 C 151.35875 123.17113 161.95346 123.17113 168.56009 123.17113 C 175.16672 123.17113 185.76148 123.17113 192.3681 123.17113 C 198.97473 123.17113 209.56948 123.17113 216.1761 123.17113 C 222.78273 123.17113 233.3775 123.17113 239.98413 123.17113 C 246.59076 123.17113 257.18547 123.17113 263.7921 123.17113 C 270.39875 123.17113 280.99348 123.17113 287.6001 123.17113 C 294.20674 123.17113 304.8015 123.17113 311.40815 123.17113 C 318.01478 123.17113 328.6095 123.17113 335.21614 123.17113 C 341.82279 123.17113 352.41755 123.17113 359.02415 123.17113 C 365.63078 123.17113 382.83216 123.17113 382.83216 123.17113 "/>
<path transform="matrix(1,0,0,-1,.199,174.665)" stroke-width="1.19553" stroke-linecap="butt" stroke-miterlimit="10" stroke-linejoin="miter" fill="none" stroke="#800000" d="M 125.7066 -195.37491 L 125.7066 229.35315 "/>
<path transform="matrix(1,0,0,-1,.199,174.665)" stroke-width="1.19553" stroke-linecap="butt" stroke-dasharray="2.98883,2.98883" stroke-miterlimit="10" stroke-linejoin="miter" fill="none" stroke="#800000" d="M 97.13693 -195.37491 L 97.13693 229.35315 "/>
<path transform="matrix(1,0,0,-1,.199,174.665)" d="M 125.7066 59.46193 L 167.13266 59.46193 L 167.13266 65.83284 L 125.7066 65.83284 L 125.7066 59.46193 " fill="#bfbfbf"/>
<path transform="matrix(1,0,0,-1,.199,174.665)" stroke-width="1" stroke-linecap="butt" stroke-miterlimit="10" stroke-linejoin="miter" fill="none" stroke="#000000" d="M 125.7066 59.46193 L 167.13266 59.46193 L 167.13266 65.83284 L 125.7066 65.83284 L 125.7066 59.46193 "/>
<symbol id="font_3_1">
<path d="M .39500005 .698 C .38800005 .711 .38600005 .716 .36900003 .716 C .35200004 .716 .35000003 .711 .34300003 .698 L .004999999 .020000002 C 0 .011000001 0 .009000001 0 .008 C 0 0 .006000001 0 .022000004 0 L .716 0 C .73200008 0 .73800006 0 .73800006 .008 C .73800006 .009000001 .73800006 .011000001 .73300006 .020000002 L .39500005 .698 M .337 .61600008 L .60600009 .076000008 L .067 .076000008 L .337 .61600008 Z "/>
</symbol>
<use xlink:href="#font_3_1" transform="matrix(9.9626,0,0,-9.9626,171.02526,115.514987)"/>
<symbol id="font_4_2">
<path d="M .45700003 .586 C .461 .6 .461 .602 .461 .609 C .461 .62700006 .447 .63600006 .432 .63600006 C .42200003 .63600006 .40600003 .63 .397 .615 C .395 .61 .387 .579 .38300003 .561 C .37600003 .535 .36900003 .508 .363 .48100005 L .318 .301 C .314 .286 .271 .21600002 .20500002 .21600002 C .15400002 .21600002 .143 .26000003 .143 .29700003 C .143 .34300003 .16000001 .40500004 .194 .49300004 C .21000001 .53400006 .21400002 .545 .21400002 .56500008 C .21400002 .61 .18200001 .6470001 .13200002 .6470001 C .037 .6470001 0 .50200006 0 .49300004 C 0 .48300005 .01 .48300005 .012 .48300005 C .022000002 .48300005 .023 .485 .028000003 .50100007 C .055000009 .595 .095000009 .625 .12900001 .625 C .13700001 .625 .15400002 .625 .15400002 .59300008 C .15400002 .568 .14400001 .54200008 .13700001 .523 C .097 .41700004 .079 .36 .079 .31300003 C .079 .224 .142 .194 .201 .194 C .24000003 .194 .274 .21100001 .30200003 .23900002 C .289 .187 .277 .13800001 .237 .08500001 C .21100001 .051 .17300001 .022 .127 .022 C .113000009 .022 .068 .025000006 .051000008 .06400001 C .067 .06400001 .080000009 .06400001 .094000007 .076000008 C .104 .08500001 .11400001 .098000008 .11400001 .117000009 C .11400001 .148 .087000008 .15200001 .07700001 .15200001 C .054000006 .15200001 .021 .136 .021 .087000008 C .021 .037 .065000008 0 .127 0 C .23 0 .333 .091000009 .361 .20400001 L .45700003 .586 Z "/>
</symbol>
<use xlink:href="#font_4_2" transform="matrix(9.9626,0,0,-9.9626,179.14792,117.55732)"/>
<symbol id="font_4_1">
<path d="M .305 .31300003 C .311 .33900003 .334 .43100003 .404 .43100003 C .409 .43100003 .433 .43100003 .454 .418 C .426 .41300003 .40600003 .388 .40600003 .36400003 C .40600003 .34800003 .417 .32900004 .444 .32900004 C .46600003 .32900004 .498 .34700004 .498 .38700003 C .498 .43900005 .439 .45300005 .405 .45300005 C .347 .45300005 .312 .40000005 .3 .37700004 C .275 .44300003 .221 .45300005 .19200002 .45300005 C .08800001 .45300005 .031000002 .32400004 .031000002 .29900003 C .031000002 .28900004 .041 .28900004 .043000007 .28900004 C .051000008 .28900004 .054000006 .291 .056 .3 C .09 .40600003 .156 .43100003 .19000001 .43100003 C .209 .43100003 .244 .42200003 .244 .36400003 C .244 .33300004 .22700002 .26600004 .19000001 .126 C .17400001 .064 .13900002 .022000002 .095000009 .022000002 C .08900001 .022000002 .06600001 .022000002 .045 .035 C .07000001 .040000004 .09200001 .061 .09200001 .089 C .09200001 .116000007 .07000001 .124000009 .055000009 .124000009 C .025 .124000009 0 .098000008 0 .06600001 C 0 .020000002 .050000006 0 .094000007 0 C .16000001 0 .19600001 .07000001 .19900002 .076000008 C .21100001 .039 .24700003 0 .307 0 C .41 0 .467 .12900001 .467 .15400002 C .467 .16400002 .458 .16400002 .455 .16400002 C .446 .16400002 .444 .16000001 .442 .15300001 C .409 .046 .341 .022000002 .30900003 .022000002 C .27 .022000002 .254 .054 .254 .08800001 C .254 .11000001 .26 .13200002 .271 .17600002 L .305 .31300003 Z "/>
</symbol>
<use xlink:href="#font_4_1" transform="matrix(9.9626,0,0,-9.9626,143.37693,27.37358)" fill="#000080"/>
<symbol id="font_3_9">
<path d="M .63100007 .19400002 C .646 .19400002 .665 .19400002 .665 .214 C .665 .23400001 .646 .23400001 .632 .23400001 L .033 .23400001 C .019000002 .23400001 0 .23400001 0 .214 C 0 .19400002 .019000002 .19400002 .034 .19400002 L .63100007 .19400002 M .632 0 C .646 0 .665 0 .665 .02000001 C .665 .040000008 .646 .040000008 .63100007 .040000008 L .034 .040000008 C .019000002 .040000008 0 .040000008 0 .02000001 C 0 0 .019000002 0 .033 0 L .632 0 Z "/>
</symbol>
<use xlink:href="#font_3_9" transform="matrix(9.9626,0,0,-9.9626,152.10793,25.938967)" fill="#000080"/>
<symbol id="font_5_1">
<path d="M .314 0 C .345 0 .34600003 .0010000467 .356 .01999998 L .903 1.1620001 C .9100001 1.1750001 .9100001 1.177 .9100001 1.1800001 C .9100001 1.1910001 .90200009 1.2 .89 1.2 C .87700006 1.2 .873 1.1910001 .86800006 1.1800001 L .352 .10400009 L .139 .6000001 L 0 .49300004 L .014999993 .47700007 L .086 .5310001 L .314 0 Z "/>
</symbol>
<use xlink:href="#font_5_1" transform="matrix(9.9626,0,0,-9.9626,163.16191,30.064614)" fill="#000080"/>
<path transform="matrix(1,0,0,-1,172.02802,18.309006)" stroke-width="1" stroke-linecap="butt" stroke-miterlimit="10" stroke-linejoin="miter" fill="none" stroke="#000080" d="M 0 0 L 22.4 0 "/>
<use xlink:href="#font_4_2" transform="matrix(9.9626,0,0,-9.9626,172.31693,29.306326)" fill="#000080"/>
<symbol id="font_3_2">
<path d="M .35300002 .31300003 L .632 .31300003 C .646 .31300003 .665 .31300003 .665 .333 C .665 .35300002 .646 .35300002 .632 .35300002 L .35300002 .35300002 L .35300002 .633 C .35300002 .647 .35300002 .666 .33300004 .666 C .31300003 .666 .31300003 .647 .31300003 .633 L .31300003 .35300002 L .033 .35300002 C .019000002 .35300002 0 .35300002 0 .333 C 0 .31300003 .019000002 .31300003 .033 .31300003 L .31300003 .31300003 L .31300003 .033000005 C .31300003 .019000002 .31300003 0 .33300004 0 C .35300002 0 .35300002 .019000002 .35300002 .033000005 L .35300002 .31300003 Z "/>
</symbol>
<symbol id="font_3_6">
<path d="M .266 .165 L .266 .078 C .266 .042000005 .26400004 .031000002 .19000001 .031000002 L .16900002 .031000002 L .16900002 0 C .21000001 .003 .26200003 .003 .30400003 .003 C .34600003 .003 .39900003 .003 .44000004 0 L .44000004 .031000002 L .41900004 .031000002 C .34500004 .031000002 .34300003 .042000005 .34300003 .078 L .34300003 .165 L .44300003 .165 L .44300003 .19600001 L .34300003 .19600001 L .34300003 .651 C .34300003 .671 .34300003 .67700007 .32700003 .67700007 C .31800003 .67700007 .31500004 .67700007 .307 .665 L 0 .19600001 L 0 .165 L .266 .165 M .272 .19600001 L .028 .19600001 L .272 .569 L .272 .19600001 Z "/>
</symbol>
<use xlink:href="#font_3_2" transform="matrix(9.9626,0,0,-9.9626,180.04192,28.090889)" fill="#000080"/>
<use xlink:href="#font_3_6" transform="matrix(9.9626,0,0,-9.9626,189.72556,27.263993)" fill="#000080"/>
<use xlink:href="#font_4_2" transform="matrix(9.9626,0,0,-9.9626,43.016916,45.16132)" fill="#cc6600"/>
<symbol id="font_3_7">
<path d="M .39900003 .223 C .39900003 .34200005 .317 .44200004 .209 .44200004 C .16100002 .44200004 .118000019 .42600004 .082 .39100004 L .082 .586 C .10200001 .58000007 .135 .573 .16700001 .573 C .29 .573 .36 .66400006 .36 .67700007 C .36 .683 .357 .688 .35 .688 C .349 .688 .347 .688 .342 .68500009 C .322 .67600008 .273 .656 .20600002 .656 C .16600001 .656 .120000008 .66300007 .073 .6840001 C .065 .68700006 .06300001 .68700006 .061000009 .68700006 C .051000004 .68700006 .051000004 .679 .051000004 .66300007 L .051000004 .36700005 C .051000004 .34900005 .051000004 .34100003 .065 .34100003 C .07200001 .34100003 .074 .34400005 .07800001 .35000003 C .08900002 .36600004 .12600002 .42000006 .207 .42000006 C .259 .42000006 .284 .37400005 .292 .35600005 C .308 .31900005 .31 .28000004 .31 .23 C .31 .19500001 .31 .135 .286 .093 C .262 .054000006 .22500001 .028 .17900002 .028 C .106000009 .028 .049000008 .08100001 .032 .14000002 C .035 .13900002 .038000008 .13800001 .049000008 .13800001 C .082 .13800001 .09900001 .163 .09900001 .187 C .09900001 .21100001 .082 .23600002 .049000008 .23600002 C .035 .23600002 0 .22900002 0 .18300002 C 0 .097 .069000009 0 .18100001 0 C .297 0 .39900003 .096 .39900003 .223 Z "/>
</symbol>
<use xlink:href="#font_3_9" transform="matrix(9.9626,0,0,-9.9626,51.294908,41.79396)" fill="#cc6600"/>
<use xlink:href="#font_3_7" transform="matrix(9.9626,0,0,-9.9626,61.75564,43.338167)" fill="#cc6600"/>
<use xlink:href="#font_4_1" transform="matrix(9.9626,0,0,-9.9626,129.92691,44.19658)" fill="#800000"/>
<symbol id="font_3_3">
<path d="M .205 .64000007 C .205 .66400006 .205 .666 .18200003 .666 C .120000008 .60200008 .032000007 .60200008 0 .60200008 L 0 .57100006 C .020000004 .57100006 .07900001 .57100006 .13100001 .597 L .13100001 .079 C .13100001 .043 .128 .031000002 .038000004 .031000002 L .0060000049 .031000002 L .0060000049 0 C .04100001 .003 .128 .003 .168 .003 C .20800002 .003 .29500003 .003 .33000005 0 L .33000005 .031000002 L .29800005 .031000002 C .20800002 .031000002 .205 .042000005 .205 .079 L .205 .64000007 Z "/>
</symbol>
<use xlink:href="#font_3_9" transform="matrix(9.9626,0,0,-9.9626,138.6569,42.761964)" fill="#800000"/>
<use xlink:href="#font_3_3" transform="matrix(9.9626,0,0,-9.9626,149.50618,44.08699)" fill="#800000"/>
</g>
<symbol id="font_6_1">
<path d="M .57600006 0 C .59300008 0 .611 0 .611 .019999996 C .611 .040000008 .59300008 .040000008 .57600006 .040000008 L .035000005 .040000008 C .018 .040000008 0 .040000008 0 .019999996 C 0 0 .018 0 .035000005 0 L .57600006 0 Z "/>
</symbol>
<use xlink:href="#font_6_1" transform="matrix(9.9626,0,0,-9.9626,6.088896,167.5246)"/>
<symbol id="font_3_5">
<path d="M .24800003 .37400005 C .33 .40100003 .388 .47100006 .388 .55 C .388 .632 .3 .688 .204 .688 C .10300001 .688 .027000003 .628 .027000003 .55200007 C .027000003 .519 .049000004 .5 .078 .5 C .109000008 .5 .12900001 .522 .12900001 .55100008 C .12900001 .6010001 .082 .6010001 .067 .6010001 C .098 .65000006 .164 .66300007 .20000002 .66300007 C .24100003 .66300007 .29600004 .64100006 .29600004 .55100008 C .29600004 .53900006 .29400004 .48100005 .268 .43700005 C .238 .38900004 .204 .38600005 .17900002 .38500003 C .171 .38400004 .14700002 .38200004 .14000002 .38200004 C .132 .38100005 .125 .38000003 .125 .37000004 C .125 .35900004 .132 .35900004 .14900002 .35900004 L .19300002 .35900004 C .275 .35900004 .312 .29100005 .312 .193 C .312 .057000005 .24300003 .028 .199 .028 C .15600002 .028 .081 .045 .046000005 .104 C .081 .09900001 .11200001 .12100001 .11200001 .15900001 C .11200001 .19500001 .085 .215 .056 .215 C .031999999 .215 0 .201 0 .157 C 0 .06600001 .093 0 .20200002 0 C .32400004 0 .41500003 .091000009 .41500003 .193 C .41500003 .27500005 .35200004 .35300005 .24800003 .37400005 Z "/>
</symbol>
<use xlink:href="#font_3_5" transform="matrix(9.9626,0,0,-9.9626,13.429429,170.03517)"/>
<use xlink:href="#font_6_1" transform="matrix(9.9626,0,0,-9.9626,34.657899,167.5246)"/>
<symbol id="font_3_4">
<path d="M .07700001 .07700001 L .18300002 .18 C .33900003 .31800003 .39900003 .372 .39900003 .47200004 C .39900003 .586 .30900003 .666 .18700002 .666 C .074 .666 0 .574 0 .485 C 0 .42900003 .05 .42900003 .053000008 .42900003 C .07000001 .42900003 .105000007 .441 .105000007 .48200003 C .105000007 .508 .08700001 .53400006 .052000006 .53400006 C .044000005 .53400006 .042000008 .53400006 .039 .53300008 C .062000004 .59800007 .11600001 .63500007 .17400001 .63500007 C .26500003 .63500007 .308 .554 .308 .47200004 C .308 .39200003 .25800003 .31300003 .20300003 .25100003 L .011000004 .037 C 0 .026 0 .024 0 0 L .37100003 0 L .39900003 .17400001 L .374 .17400001 C .36900003 .14400001 .36200003 .1 .352 .085 C .345 .07700001 .279 .07700001 .257 .07700001 L .07700001 .07700001 Z "/>
</symbol>
<use xlink:href="#font_3_4" transform="matrix(9.9626,0,0,-9.9626,42.078134,169.816)"/>
<use xlink:href="#font_6_1" transform="matrix(9.9626,0,0,-9.9626,63.227899,167.5246)"/>
<use xlink:href="#font_3_3" transform="matrix(9.9626,0,0,-9.9626,71.035678,169.816)"/>
<use xlink:href="#font_3_3" transform="matrix(9.9626,0,0,-9.9626,124.30067,169.816)"/>
<use xlink:href="#font_3_4" transform="matrix(9.9626,0,0,-9.9626,152.48113,169.816)"/>
<use xlink:href="#font_3_5" transform="matrix(9.9626,0,0,-9.9626,180.97043,170.03517)"/>
<use xlink:href="#font_3_4" transform="matrix(9.9626,0,0,-9.9626,87.132129,118.414)"/>
<use xlink:href="#font_3_6" transform="matrix(9.9626,0,0,-9.9626,86.91295,75.941989)"/>
<symbol id="font_3_8">
<path d="M .089999999 .35000003 L .089999999 .37400005 C .089999999 .62700006 .21400002 .66300007 .26500003 .66300007 C .28900004 .66300007 .33100004 .65700009 .35300002 .623 C .33800004 .623 .298 .623 .298 .57800009 C .298 .54700008 .32200004 .53200009 .344 .53200009 C .36 .53200009 .39000003 .54100009 .39000003 .58000007 C .39000003 .64000007 .34600003 .688 .263 .688 C .13499999 .688 0 .559 0 .33800004 C 0 .071 .116000007 0 .20900002 0 C .32000003 0 .41500003 .094000007 .41500003 .22600001 C .41500003 .35300005 .32600004 .44900004 .215 .44900004 C .14700002 .44900004 .11000001 .39800004 .089999999 .35000003 M .20900002 .028 C .146 .028 .116000007 .088 .11000001 .103 C .092 .15 .092 .23 .092 .24800001 C .092 .32600004 .124000009 .42600004 .21400002 .42600004 C .23000002 .42600004 .27600003 .42600004 .307 .36400003 C .32500003 .32700003 .32500003 .27600003 .32500003 .22700002 C .32500003 .179 .32500003 .12900001 .30800004 .093 C .27800004 .033000005 .23200003 .028 .20900002 .028 Z "/>
</symbol>
<use xlink:href="#font_3_8" transform="matrix(9.9626,0,0,-9.9626,87.05242,33.68817)"/>
<use xlink:href="#font_4_1" transform="matrix(9.9626,0,0,-9.9626,198.42092,159.89359)"/>
<use xlink:href="#font_4_2" transform="matrix(9.9626,0,0,-9.9626,95.057918,9.725332)"/>
<path transform="matrix(1,0,0,-1,.199,174.665)" stroke-width="1" stroke-linecap="butt" stroke-miterlimit="10" stroke-linejoin="miter" fill="none" stroke="#808080" d="M 11.42787 14.86287 L 11.42787 19.11534 M 39.99756 14.86287 L 39.99756 19.11534 M 68.56725 14.86287 L 68.56725 19.11534 M 125.7066 14.86287 L 125.7066 19.11534 M 154.27629 14.86287 L 154.27629 19.11534 M 182.84598 14.86287 L 182.84598 19.11534 "/>
<path transform="matrix(1,0,0,-1,.199,174.665)" stroke-width="1" stroke-linecap="butt" stroke-miterlimit="10" stroke-linejoin="miter" fill="none" stroke="#808080" d="M 95.01071 59.46193 L 99.26312 59.46193 M 95.01071 101.93472 L 99.26312 101.93472 M 95.01071 144.40753 L 99.26312 144.40753 "/>
<path transform="matrix(1,0,0,-1,.199,174.665)" stroke-width="1" stroke-linecap="butt" stroke-miterlimit="10" stroke-linejoin="miter" fill="none" stroke="#000000" d="M 0 16.98912 L 192.28134 16.98912 "/>
<path transform="matrix(1,0,0,-1,192.48035,157.67588)" d="M 1.99252 0 L -1.19551 1.59401 L 0 0 L -1.19551 -1.59401 "/>
<path transform="matrix(1,0,0,-1,.199,174.665)" stroke-width="1" stroke-linecap="butt" stroke-miterlimit="10" stroke-linejoin="miter" fill="none" stroke="#000000" d="M 97.13693 0 L 97.13693 159.40415 "/>
<path transform="matrix(0,-1,-1,-0,97.33593,15.260849)" d="M 1.99252 0 L -1.19551 1.59401 L 0 0 L -1.19551 -1.59401 "/>
</svg>
