<?xml version="1.0" encoding="UTF-8" standalone="no"?>
<!DOCTYPE svg PUBLIC "-//W3C//DTD SVG 1.1//EN" "http://www.w3.org/Graphics/SVG/1.1/DTD/svg11.dtd">
<svg xmlns="http://www.w3.org/2000/svg" xmlns:xlink="http://www.w3.org/1999/xlink" version="1.1" width="207.043pt" height="174.679pt" viewBox="0 0 207.043 174.679">
<clipPath id="cp0">
<path transform="matrix(1,0,0,-1,.199,174.48)" d="M 0 0 L 194.26912 0 L 194.26912 161.3915 L 0 161.3915 Z "/>
</clipPath>
<g clip-path="url(#cp0)">
<path transform="matrix(1,0,0,-1,.199,174.48)" d="M 97.13455 138.33556 L 100.01099 133.55629 L 102.8874 128.77703 L 105.76384 123.99777 L 108.64027 119.21849 L 111.51671 114.43924 L 114.39313 109.65997 L 117.26958 104.8807 L 120.146 100.10144 L 123.02243 95.32219 L 125.89886 90.54291 L 128.7753 85.76366 L 131.65172 80.98439 L 134.52817 76.20511 L 137.40459 71.42583 L 140.28102 66.64664 L 143.15746 61.86736 L 146.03388 57.08809 L 148.91033 52.3088 L 151.78675 47.52953 L 154.66318 42.75034 L 157.5396 37.97107 L 160.41603 33.19177 L 163.29247 28.4125 L 166.1689 23.63322 L 166.16588 21.60936 L 164.77127 19.8444 L 163.37667 18.77017 L 161.98206 17.93213 L 160.58745 17.22745 L 159.19283 16.61221 L 157.79824 16.06282 L 156.40361 15.56471 L 155.00902 15.10828 L 153.61441 14.6867 L 152.2198 14.29492 L 150.8252 13.92897 L 149.43058 13.58612 L 148.03598 13.26382 L 146.64136 12.9601 L 145.24677 12.67336 L 143.85214 12.40216 L 142.45754 12.1454 L 141.06295 11.90207 L 139.66832 11.6713 L 138.27373 11.45233 L 136.8791 11.24454 L 135.48451 11.0473 L 134.08989 10.86014 L 132.69528 10.68259 L 131.30066 10.51422 L 129.90607 10.35472 L 128.51146 10.20369 L 127.11685 10.06088 L 125.72224 9.92601 L 124.32762 9.79886 L 122.93303 9.67917 L 121.5384 9.56674 L 120.1438 9.46144 L 118.74919 9.36305 L 117.35458 9.27147 L 115.95998 9.18654 L 114.56537 9.10812 L 113.17076 9.03613 L 111.77614 8.97049 L 110.38155 8.91104 L 108.98692 8.85777 L 107.59232 8.8106 L 106.19771 8.76944 L 104.8031 8.73424 L 103.4085 8.705 L 102.01389 8.68163 L 100.61928 8.66415 L 99.22467 8.6525 L 97.83006 8.64668 L 96.43544 8.6467 L 95.04083 8.65251 L 93.64622 8.66418 L 92.25162 8.68169 L 90.85701 8.70506 L 89.4624 8.73433 L 88.0678 8.76953 L 86.67319 8.8107 L 85.27858 8.8579 L 83.88396 8.9112 L 82.48935 8.97063 L 81.09474 9.03632 L 79.70013 9.10832 L 78.30554 9.18675 L 76.91092 9.2717 L 75.51631 9.3633 L 74.1217 9.4617 L 72.7271 9.56702 L 71.33247 9.67946 L 69.93787 9.79918 L 68.54326 9.92635 L 67.14865 10.06123 L 65.75406 10.20407 L 64.35944 10.3551 L 62.96483 10.51465 L 61.57022 10.68303 L 60.17561 10.86061 L 58.78099 11.0478 L 57.3864 11.24504 L 55.99178 11.45288 L 54.59718 11.67188 L 53.20258 11.90268 L 51.80795 12.14606 L 50.41336 12.40285 L 49.01874 12.67406 L 47.62415 12.96086 L 46.22952 13.26463 L 44.83493 13.58698 L 43.4403 13.92989 L 42.0457 14.29588 L 40.65111 14.68774 L 39.25648 15.1094 L 37.8619 15.56593 L 36.46727 16.06415 L 35.07266 16.61372 L 33.67805 17.22913 L 32.28345 17.9341 L 30.88884 18.77258 L 29.49423 19.84766 L 28.09964 21.61665 Z " fill="#cccce6"/>
</g>
<clipPath id="cp1">
<path transform="matrix(1,0,0,-1,.199,174.48)" d="M 0 0 L 194.26912 0 L 194.26912 161.3915 L 0 161.3915 Z "/>
</clipPath>
<g clip-path="url(#cp1)">
<path transform="matrix(1,0,0,-1,.199,174.48)" d="M 28.09964 23.63235 L 30.97606 28.41153 L 33.8525 33.19083 L 36.72891 37.9701 L 39.60535 42.74937 L 42.48178 47.52864 L 45.35822 52.30785 L 48.23463 57.08711 L 51.11107 61.86641 L 53.98749 66.64568 L 56.86394 71.42496 L 59.74036 76.20415 L 62.61679 80.98344 L 65.49323 85.76271 L 68.36966 90.54198 L 71.24608 95.32123 L 74.12251 100.1005 L 76.99896 104.87976 L 79.87538 109.65903 L 82.75182 114.43828 L 85.62825 119.21756 L 88.50468 123.99681 L 91.3811 128.77608 L 94.25755 133.55535 L 97.13397 138.33461 L 166.16588 21.60936 L 164.77127 19.8444 L 163.37667 18.77017 L 161.98206 17.93213 L 160.58745 17.22745 L 159.19283 16.61221 L 157.79824 16.06282 L 156.40361 15.56471 L 155.00902 15.10828 L 153.61441 14.6867 L 152.2198 14.29492 L 150.8252 13.92897 L 149.43058 13.58612 L 148.03598 13.26382 L 146.64136 12.9601 L 145.24677 12.67336 L 143.85214 12.40216 L 142.45754 12.1454 L 141.06295 11.90207 L 139.66832 11.6713 L 138.27373 11.45233 L 136.8791 11.24454 L 135.48451 11.0473 L 134.08989 10.86014 L 132.69528 10.68259 L 131.30066 10.51422 L 129.90607 10.35472 L 128.51146 10.20369 L 127.11685 10.06088 L 125.72224 9.92601 L 124.32762 9.79886 L 122.93303 9.67917 L 121.5384 9.56674 L 120.1438 9.46144 L 118.74919 9.36305 L 117.35458 9.27147 L 115.95998 9.18654 L 114.56537 9.10812 L 113.17076 9.03613 L 111.77614 8.97049 L 110.38155 8.91104 L 108.98692 8.85777 L 107.59232 8.8106 L 106.19771 8.76944 L 104.8031 8.73424 L 103.4085 8.705 L 102.01389 8.68163 L 100.61928 8.66415 L 99.22467 8.6525 L 97.83006 8.64668 L 96.43544 8.6467 L 95.04083 8.65251 L 93.64622 8.66418 L 92.25162 8.68169 L 90.85701 8.70506 L 89.4624 8.73433 L 88.0678 8.76953 L 86.67319 8.8107 L 85.27858 8.8579 L 83.88396 8.9112 L 82.48935 8.97063 L 81.09474 9.03632 L 79.70013 9.10832 L 78.30554 9.18675 L 76.91092 9.2717 L 75.51631 9.3633 L 74.1217 9.4617 L 72.7271 9.56702 L 71.33247 9.67946 L 69.93787 9.79918 L 68.54326 9.92635 L 67.14865 10.06123 L 65.75406 10.20407 L 64.35944 10.3551 L 62.96483 10.51465 L 61.57022 10.68303 L 60.17561 10.86061 L 58.78099 11.0478 L 57.3864 11.24504 L 55.99178 11.45288 L 54.59718 11.67188 L 53.20258 11.90268 L 51.80795 12.14606 L 50.41336 12.40285 L 49.01874 12.67406 L 47.62415 12.96086 L 46.22952 13.26463 L 44.83493 13.58698 L 43.4403 13.92989 L 42.0457 14.29588 L 40.65111 14.68774 L 39.25648 15.1094 L 37.8619 15.56593 L 36.46727 16.06415 L 35.07266 16.61372 L 33.67805 17.22913 L 32.28345 17.9341 L 30.88884 18.77258 L 29.49423 19.84766 L 28.09964 21.61665 Z " fill="#cccce6"/>
</g>
<clipPath id="cp2">
<path transform="matrix(1,0,0,-1,.199,174.48)" d="M 0 0 L 194.26912 0 L 194.26912 161.3915 L 0 161.3915 Z "/>
</clipPath>
<g clip-path="url(#cp2)">
<path transform="matrix(1,0,0,-1,.199,174.48)" d="M 53.28523 65.93994 L 56.93932 62.62979 L 60.59341 61.23987 L 64.24753 60.2522 L 67.90163 59.48906 L 71.55573 58.88074 L 75.20982 58.39136 L 78.8639 57.99982 L 82.518 57.6927 L 86.1721 57.46124 L 89.8262 57.29955 L 93.4803 57.20392 L 97.1344 57.17212 L 100.7885 57.20392 L 104.4426 57.29953 L 108.0967 57.46123 L 111.7508 57.69269 L 115.40488 57.99977 L 119.059 58.39133 L 122.71309 58.88069 L 126.36719 59.48901 L 130.02129 60.25212 L 133.67539 61.23979 L 137.32949 62.62965 L 140.98358 65.93845 L 143.61757 60.05765 L 142.67848 58.64328 L 141.73941 57.91895 L 140.80033 57.36702 L 139.86125 56.90749 L 138.92218 56.50856 L 137.9831 56.15358 L 137.04402 55.83255 L 136.10494 55.53891 L 135.16587 55.2681 L 134.22679 55.01668 L 133.2877 54.78217 L 132.34864 54.5625 L 131.40955 54.35617 L 130.47048 54.16183 L 129.53139 53.97842 L 128.59232 53.80502 L 127.65323 53.64093 L 126.71416 53.48544 L 125.77507 53.33803 L 124.836 53.19821 L 123.89691 53.06554 L 122.95784 52.93964 L 122.01875 52.82018 L 121.07968 52.70688 L 120.1406 52.59944 L 119.20152 52.49768 L 118.26244 52.40135 L 117.32335 52.31027 L 116.38428 52.22426 L 115.4452 52.14317 L 114.50612 52.06685 L 113.56703 51.99516 L 112.62796 51.92804 L 111.68887 51.86531 L 110.7498 51.80692 L 109.81071 51.75279 L 108.87164 51.70282 L 107.93256 51.65694 L 106.99348 51.61507 L 106.0544 51.57721 L 105.11533 51.54326 L 104.17624 51.51318 L 103.23715 51.48697 L 102.29807 51.46452 L 101.359 51.44589 L 100.4199 51.431 L 99.48083 51.41986 L 98.54175 51.41245 L 97.60268 51.40874 L 96.66359 51.40875 L 95.72452 51.41246 L 94.78543 51.41989 L 93.84636 51.43105 L 92.90727 51.44595 L 91.9682 51.46458 L 91.02911 51.48703 L 90.09004 51.51326 L 89.15096 51.54335 L 88.21188 51.57732 L 87.2728 51.61519 L 86.33371 51.65706 L 85.39464 51.70296 L 84.45557 51.75294 L 83.51648 51.8071 L 82.5774 51.8655 L 81.63832 51.92824 L 80.69925 51.99538 L 79.76016 52.06708 L 78.82108 52.1434 L 77.882 52.2245 L 76.94292 52.31055 L 76.00385 52.40164 L 75.06477 52.49799 L 74.12569 52.59976 L 73.1866 52.70721 L 72.24753 52.82053 L 71.30846 52.94 L 70.36937 53.06592 L 69.43028 53.19862 L 68.49121 53.33846 L 67.55212 53.4859 L 66.61305 53.6414 L 65.67397 53.80554 L 64.7349 53.97894 L 63.7958 54.16238 L 62.85674 54.35677 L 61.91765 54.56314 L 60.97858 54.78284 L 60.0395 55.01741 L 59.10042 55.26886 L 58.16135 55.53976 L 57.22226 55.83347 L 56.28319 56.15459 L 55.34412 56.50969 L 54.40503 56.90877 L 53.46596 57.3685 L 52.52687 57.92079 L 51.5878 58.64587 L 50.64873 60.06854 Z " fill="#808080"/>
</g>
<clipPath id="cp3">
<path transform="matrix(1,0,0,-1,.199,174.48)" d="M 0 0 L 194.26912 0 L 194.26912 161.3915 L 0 161.3915 Z "/>
</clipPath>
<g clip-path="url(#cp3)">
<path transform="matrix(1,0,0,-1,.199,174.48)" d="M 53.28523 65.93994 L 56.93932 62.62979 L 60.59341 61.23987 L 64.24753 60.2522 L 67.90163 59.48906 L 71.55573 58.88074 L 75.20982 58.39136 L 78.8639 57.99982 L 82.518 57.6927 L 86.1721 57.46124 L 89.8262 57.29955 L 93.4803 57.20392 L 97.1344 57.17212 L 100.7885 57.20392 L 104.4426 57.29953 L 108.0967 57.46123 L 111.7508 57.69269 L 115.40488 57.99977 L 119.059 58.39133 L 122.71309 58.88069 L 126.36719 59.48901 L 130.02129 60.25212 L 133.67539 61.23979 L 137.32949 62.62965 L 140.98358 65.93845 L 55.50542 69.1677 L 55.21631 68.68738 L 54.92723 68.20708 L 54.63814 67.72668 L 54.34906 67.24638 L 54.05997 66.76608 L 53.77086 66.28569 L 53.48178 65.80539 L 53.19269 65.32509 L 52.90361 64.8447 L 52.61452 64.3644 L 52.32542 63.8841 L 52.03633 63.4038 L 51.74725 62.9234 L 51.45816 62.44308 L 51.16907 61.9628 L 50.87997 61.4824 L 50.59088 61.00209 L 50.3018 60.5218 L 50.01271 60.04141 L 49.72363 59.5611 L 49.43452 59.08081 L 49.14545 58.60051 L 48.85635 58.1201 L 48.56728 57.63982 Z " fill="#808080"/>
</g>
<clipPath id="cp4">
<path transform="matrix(1,0,0,-1,.199,174.48)" d="M 0 0 L 194.26912 0 L 194.26912 161.3915 L 0 161.3915 Z "/>
</clipPath>
<g clip-path="url(#cp4)">
<path transform="matrix(1,0,0,-1,.199,174.48)" d="M 53.28523 65.93994 L 56.93932 62.62979 L 60.59341 61.23987 L 64.24753 60.2522 L 67.90163 59.48906 L 71.55573 58.88074 L 75.20982 58.39136 L 78.8639 57.99982 L 82.518 57.6927 L 86.1721 57.46124 L 89.8262 57.29955 L 93.4803 57.20392 L 97.1344 57.17212 L 100.7885 57.20392 L 104.4426 57.29953 L 108.0967 57.46123 L 111.7508 57.69269 L 115.40488 57.99977 L 119.059 58.39133 L 122.71309 58.88069 L 126.36719 59.48901 L 130.02129 60.25212 L 133.67539 61.23979 L 137.32949 62.62965 L 140.98358 65.93845 L 145.70178 57.6399 L 145.41269 58.1202 L 145.12361 58.60051 L 144.83452 59.08089 L 144.54544 59.56119 L 144.25634 60.0415 L 143.96724 60.52188 L 143.67816 61.00218 L 143.38907 61.4825 L 143.09999 61.96288 L 142.81089 62.44318 L 142.5218 62.9235 L 142.23271 63.4038 L 141.94364 63.88419 L 141.65454 64.36449 L 141.36544 64.84479 L 141.07636 65.32518 L 140.78726 65.80548 L 140.49819 66.28578 L 140.20909 66.76617 L 139.92 67.24648 L 139.6309 67.72678 L 139.34183 68.20708 L 139.05274 68.68747 L 138.76366 69.16777 Z " fill="#808080"/>
</g>
<clipPath id="cp5">
<path transform="matrix(1,0,0,-1,.199,174.48)" d="M 0 0 L 194.26912 0 L 194.26912 161.3915 L 0 161.3915 Z "/>
</clipPath>
<g clip-path="url(#cp5)">
<path transform="matrix(1,0,0,-1,.199,174.48)" d="M 54.81163 67.08777 L 58.33852 70.00145 L 61.8654 71.36758 L 65.39229 72.34372 L 68.91917 73.0996 L 72.44606 73.70284 L 75.97295 74.18848 L 79.49983 74.57724 L 83.02672 74.88223 L 86.5536 75.11218 L 90.08049 75.27281 L 93.60738 75.36784 L 97.13426 75.39943 L 100.66115 75.36784 L 104.18805 75.27283 L 107.71494 75.11221 L 111.2418 74.88228 L 114.76869 74.57729 L 118.2956 74.18855 L 121.82248 73.70291 L 125.34935 73.0997 L 128.87624 72.34386 L 132.40312 71.36777 L 135.93003 70.00172 L 139.45691 67.08905 L 139.45586 65.47995 L 138.60086 64.29947 L 137.74587 63.6073 L 136.89087 63.07089 L 136.03589 62.62112 L 135.1809 62.2291 L 134.3259 61.8794 L 133.47092 61.56256 L 132.6159 61.2724 L 131.76093 61.00452 L 130.90593 60.75565 L 130.05094 60.52335 L 129.19596 60.30566 L 128.34096 60.10107 L 127.48596 59.90831 L 126.63097 59.72633 L 125.77597 59.55426 L 124.92099 59.39136 L 124.066 59.23698 L 123.21101 59.09059 L 122.356 58.9517 L 121.501 58.8199 L 120.64603 58.69481 L 119.79103 58.57613 L 118.93605 58.46352 L 118.08105 58.35675 L 117.22604 58.2556 L 116.37106 58.15984 L 115.51607 58.0693 L 114.66109 57.9838 L 113.80609 57.90315 L 112.9511 57.82727 L 112.0961 57.756 L 111.2411 57.68924 L 110.38612 57.62686 L 109.53113 57.5688 L 108.67613 57.51494 L 107.82115 57.46526 L 106.96614 57.41962 L 106.11116 57.37799 L 105.25616 57.3403 L 104.40117 57.30653 L 103.54619 57.27663 L 102.6912 57.25053 L 101.8362 57.22824 L 100.9812 57.20969 L 100.1262 57.19489 L 99.27122 57.18379 L 98.41623 57.1764 L 97.56125 57.17271 L 96.70624 57.17271 L 95.85124 57.1764 L 94.99626 57.18382 L 94.14127 57.19492 L 93.28629 57.20972 L 92.43129 57.22827 L 91.5763 57.25058 L 90.7213 57.27669 L 89.8663 57.3066 L 89.01132 57.34038 L 88.15633 57.37805 L 87.30133 57.4197 L 86.44635 57.46533 L 85.59134 57.51505 L 84.73636 57.56891 L 83.88136 57.62698 L 83.02637 57.68936 L 82.17139 57.75613 L 81.31639 57.82741 L 80.4614 57.9033 L 79.6064 57.98395 L 78.7514 58.06947 L 77.89642 58.16002 L 77.04143 58.25578 L 76.18645 58.35695 L 75.33144 58.46371 L 74.47644 58.57632 L 73.62146 58.69504 L 72.76646 58.82014 L 71.91148 58.95195 L 71.05649 59.09085 L 70.20148 59.23727 L 69.3465 59.39166 L 68.4915 59.55458 L 67.63652 59.72667 L 66.78152 59.90866 L 65.92653 60.10146 L 65.07153 60.30606 L 64.21654 60.52377 L 63.36156 60.7561 L 62.50656 61.005 L 61.65157 61.27293 L 60.79659 61.56313 L 59.94157 61.87999 L 59.08658 62.22978 L 58.2316 62.6219 L 57.3766 63.07178 L 56.52162 63.6084 L 55.66663 64.30098 L 54.81163 65.4838 Z " fill="#bfbfbf"/>
</g>
<clipPath id="cp6">
<path transform="matrix(1,0,0,-1,.199,174.48)" d="M 0 0 L 194.26912 0 L 194.26912 161.3915 L 0 161.3915 Z "/>
</clipPath>
<g clip-path="url(#cp6)">
<path transform="matrix(1,0,0,-1,.199,174.48)" stroke-width="1.19553" stroke-linecap="butt" stroke-miterlimit="10" stroke-linejoin="miter" fill="none" stroke="#000080" d="M 97.13455 138.33556 C 97.13455 138.33556 99.22324 134.86515 100.02544 133.53226 C 100.82765 132.19936 102.11414 130.06186 102.91634 128.72896 C 103.71855 127.39607 105.00504 125.25856 105.80724 123.92567 C 106.60945 122.59277 107.89594 120.45526 108.69814 119.12236 C 109.50035 117.78946 110.78682 115.65195 111.58904 114.31905 C 112.39125 112.98616 113.67772 110.84865 114.47993 109.51576 C 115.28215 108.18286 116.56862 106.04536 117.37083 104.71246 C 118.17305 103.37958 119.45952 101.24205 120.26173 99.90916 C 121.06395 98.57626 122.35042 96.43877 123.15263 95.10587 C 123.95483 93.77296 125.2413 91.63547 126.04352 90.30257 C 126.84572 88.96968 128.1322 86.83215 128.93442 85.49927 C 129.73662 84.16637 131.0231 82.02885 131.82532 80.69597 C 132.62752 79.3631 133.914 77.22559 134.71622 75.8927 C 135.51842 74.55983 136.8049 72.4223 137.60712 71.08942 C 138.40932 69.75652 139.6958 67.61894 140.49802 66.28604 C 141.30022 64.95316 142.5867 62.81564 143.38892 61.48276 C 144.19112 60.14986 145.47759 58.01234 146.2798 56.67946 C 147.082 55.34657 148.36849 53.20906 149.1707 51.87617 C 149.9729 50.5433 151.25939 48.40578 152.0616 47.07289 C 152.8638 45.73999 154.15029 43.6025 154.9525 42.26959 C 155.7547 40.9367 157.04119 38.79918 157.8434 37.46631 C 158.6456 36.13342 159.93209 33.9959 160.7343 32.66302 C 161.5365 31.33014 162.82297 29.19263 163.62519 27.85973 C 164.42739 26.52684 166.51609 23.05644 166.51609 23.05644 "/>
<path transform="matrix(1,0,0,-1,.199,174.48)" stroke-width="1.19553" stroke-linecap="butt" stroke-miterlimit="10" stroke-linejoin="miter" fill="none" stroke="#000080" d="M 27.75273 23.05592 C 27.75273 23.05592 29.8414 26.52632 30.64362 27.85919 C 31.44582 29.19208 32.7323 31.3296 33.53452 32.66249 C 34.33672 33.99539 35.6232 36.1329 36.4254 37.46579 C 37.22762 38.79866 38.5141 40.93617 39.3163 42.26906 C 40.11852 43.60196 41.405 45.73955 42.2072 47.07245 C 43.00941 48.40533 44.2959 50.54286 45.0981 51.87575 C 45.90031 53.20862 47.18678 55.34615 47.98898 56.67902 C 48.7912 58.0119 50.07768 60.14941 50.87988 61.48232 C 51.6821 62.8152 52.96858 64.95271 53.77078 66.2856 C 54.573 67.6185 55.85948 69.75601 56.66168 71.0889 C 57.4639 72.42178 58.75038 74.5593 59.55258 75.89218 C 60.3548 77.22505 61.64128 79.36258 62.44348 80.69547 C 63.2457 82.02837 64.53218 84.1659 65.33438 85.4988 C 66.1366 86.83168 67.42307 88.9692 68.22527 90.30208 C 69.02748 91.63498 70.31396 93.77249 71.11617 95.10538 C 71.91838 96.43828 73.20486 98.57579 74.00706 99.90869 C 74.80928 101.24158 76.09576 103.37909 76.89796 104.71198 C 77.70018 106.04488 78.98666 108.18239 79.78886 109.51529 C 80.59108 110.84818 81.87756 112.98569 82.67976 114.31859 C 83.48198 115.65147 84.76846 117.78899 85.57066 119.12187 C 86.37288 120.45477 87.65936 122.59229 88.46156 123.92519 C 89.26378 125.25807 90.55026 127.39558 91.35246 128.72847 C 92.15468 130.06137 93.44115 132.19887 94.24335 133.53177 C 95.04556 134.86467 97.13425 138.33509 97.13425 138.33509 "/>
<path transform="matrix(1,0,0,-1,.199,174.48)" stroke-width="1.19553" stroke-linecap="butt" stroke-dasharray="2.98883,2.98883" stroke-miterlimit="10" stroke-linejoin="miter" fill="none" stroke="#000080" d="M 28.09964 24.49516 C 28.09964 24.49516 29.10724 25.86958 29.49423 26.26418 C 29.88123 26.65877 30.50185 27.07376 30.88884 27.33925 C 31.27585 27.60474 31.89645 27.96358 32.28345 28.17772 C 32.67044 28.39188 33.29106 28.69951 33.67805 28.8827 C 34.06506 29.0659 34.68567 29.33649 35.07266 29.49811 C 35.45966 29.65973 36.08028 29.9023 36.46727 30.04767 C 36.85426 30.19305 37.47488 30.41344 37.8619 30.54588 C 38.24889 30.67834 38.86949 30.88057 39.25648 31.00243 C 39.64348 31.12427 40.2641 31.31122 40.65111 31.42407 C 41.0381 31.53694 41.6587 31.71078 42.0457 31.81593 C 42.4327 31.9211 43.05331 32.08359 43.4403 32.18195 C 43.82732 32.2803 44.44794 32.43256 44.83493 32.52486 C 45.22192 32.61714 45.84253 32.76033 46.22952 32.8472 C 46.61653 32.93407 47.23715 33.06903 47.62415 33.15096 C 48.01114 33.2329 48.63174 33.36034 49.01874 33.43776 C 49.40573 33.51518 50.02635 33.63573 50.41336 33.70898 C 50.80035 33.78224 51.42096 33.8964 51.80795 33.96577 C 52.19495 34.03516 52.81557 34.14336 53.20258 34.20914 C 53.58957 34.27492 54.21019 34.37755 54.59718 34.43996 C 54.98418 34.50235 55.60478 34.59975 55.99178 34.65895 C 56.37878 34.71817 56.9994 34.81058 57.3864 34.86678 C 57.77339 34.92297 58.394 35.0107 58.78099 35.06403 C 59.168 35.11736 59.78862 35.2006 60.17561 35.25122 C 60.5626 35.30183 61.18323 35.3808 61.57022 35.4288 C 61.95721 35.47679 62.57782 35.55168 62.96483 35.59717 C 63.35182 35.64265 63.97244 35.71364 64.35944 35.75671 C 64.74643 35.7998 65.36705 35.86697 65.75406 35.90775 C 66.14105 35.94852 66.76166 36.01207 67.14865 36.05058 C 67.53564 36.08911 68.15627 36.14912 68.54326 36.18547 C 68.93027 36.22182 69.55087 36.2784 69.93787 36.31265 C 70.32486 36.34691 70.94548 36.40018 71.33247 36.43237 C 71.71948 36.46457 72.3401 36.5146 72.7271 36.5448 C 73.11409 36.57501 73.73471 36.62186 74.1217 36.65012 C 74.5087 36.67839 75.1293 36.72217 75.51631 36.74852 C 75.9033 36.77489 76.52393 36.81564 76.91092 36.84013 C 77.29791 36.86462 77.91853 36.90242 78.30554 36.92508 C 78.69254 36.94775 79.31314 36.98265 79.70013 37.00351 C 80.08713 37.02437 80.70775 37.05641 81.09474 37.0755 C 81.48175 37.0946 82.10236 37.12383 82.48935 37.14119 C 82.87634 37.15855 83.49696 37.185 83.88396 37.20064 C 84.27097 37.21626 84.89159 37.23999 85.27858 37.25394 C 85.66557 37.26787 86.2862 37.28888 86.67319 37.30113 C 87.06018 37.31339 87.68079 37.33173 88.0678 37.3423 C 88.45479 37.35287 89.07541 37.36855 89.4624 37.37749 C 89.8494 37.38643 90.47 37.39948 90.85701 37.40677 C 91.244 37.41406 91.86462 37.42447 92.25162 37.43013 C 92.63861 37.4358 93.25923 37.4436 93.64622 37.44765 C 94.03323 37.45169 94.65384 37.4569 95.04083 37.4593 C 95.42783 37.46173 96.04845 37.46432 96.43544 37.46513 C 96.82245 37.46594 97.44307 37.46596 97.83006 37.46515 C 98.21706 37.46434 98.83768 37.46175 99.22467 37.45932 C 99.61166 37.45691 100.23227 37.4517 100.61928 37.44768 C 101.00627 37.44365 101.62689 37.43585 102.01389 37.43019 C 102.40088 37.42455 103.02148 37.41412 103.4085 37.40683 C 103.79549 37.39954 104.4161 37.38652 104.8031 37.37758 C 105.1901 37.36864 105.81071 37.35297 106.19771 37.34239 C 106.58472 37.3318 107.20532 37.31349 107.59232 37.30124 C 107.97931 37.28899 108.59993 37.26797 108.98692 37.25406 C 109.37393 37.24013 109.99455 37.21642 110.38155 37.20079 C 110.76854 37.18515 111.38914 37.15869 111.77614 37.14134 C 112.16313 37.124 112.78375 37.09479 113.17076 37.07568 C 113.55775 37.0566 114.17838 37.02457 114.56537 37.00371 C 114.95236 36.98285 115.57297 36.94795 115.95998 36.9253 C 116.34697 36.90265 116.96759 36.86485 117.35458 36.84036 C 117.74158 36.81587 118.3622 36.77512 118.74919 36.74876 C 119.1362 36.72243 119.7568 36.67863 120.1438 36.65038 C 120.53079 36.62212 121.15141 36.57529 121.5384 36.54507 C 121.92542 36.51488 122.54604 36.46486 122.93303 36.43266 C 123.32002 36.40047 123.94063 36.34721 124.32762 36.31297 C 124.71461 36.27873 125.33524 36.22215 125.72224 36.1858 C 126.10924 36.14946 126.72986 36.08946 127.11685 36.05093 C 127.50385 36.01242 128.12445 35.94888 128.51146 35.90813 C 128.89846 35.86737 129.51908 35.8002 129.90607 35.75711 C 130.29306 35.71404 130.91367 35.64308 131.30066 35.5976 C 131.68767 35.55211 132.30829 35.47723 132.69528 35.42923 C 133.08228 35.38124 133.7029 35.30229 134.08989 35.2517 C 134.4769 35.2011 135.09752 35.11786 135.48451 35.06453 C 135.8715 35.0112 136.49211 34.92348 136.8791 34.8673 C 137.2661 34.81111 137.88672 34.7187 138.27373 34.6595 C 138.66072 34.60028 139.28133 34.50291 139.66832 34.44054 C 140.05532 34.37814 140.67594 34.27554 141.06295 34.20976 C 141.44994 34.14398 142.07054 34.03581 142.45754 33.96643 C 142.84453 33.89705 143.46515 33.78291 143.85214 33.70967 C 144.23915 33.63643 144.85977 33.51588 145.24677 33.43848 C 145.63376 33.36107 146.25437 33.23364 146.64136 33.15172 C 147.02837 33.0698 147.64899 32.93484 148.03598 32.848 C 148.42298 32.76115 149.04358 32.61798 149.43058 32.52571 C 149.81757 32.43343 150.43819 32.28119 150.8252 32.18286 C 151.21219 32.08452 151.83281 31.92203 152.2198 31.81691 C 152.6068 31.71179 153.2274 31.53796 153.61441 31.42513 C 154.0014 31.31229 154.62203 31.12537 155.00902 31.00354 C 155.39601 30.88173 156.01662 30.67955 156.40361 30.54712 C 156.79062 30.4147 157.41124 30.19435 157.79824 30.04901 C 158.18523 29.90369 158.80583 29.6612 159.19283 29.49962 C 159.57984 29.33803 160.20046 29.0675 160.58745 28.88437 C 160.97444 28.70125 161.59506 28.39375 161.98206 28.1797 C 162.36905 27.96565 162.98966 27.60696 163.37667 27.34164 C 163.76366 27.07632 164.38428 26.66135 164.77127 26.26741 C 165.15827 25.87349 166.16588 24.50247 166.16588 24.50247 "/>
<path transform="matrix(1,0,0,-1,.199,174.48)" stroke-width="1.19553" stroke-linecap="butt" stroke-miterlimit="10" stroke-linejoin="miter" fill="none" stroke="#000080" d="M 28.09964 21.61665 C 28.09964 21.61665 29.10724 20.24225 29.49423 19.84766 C 29.88123 19.45305 30.50185 19.03807 30.88884 18.77258 C 31.27585 18.5071 31.89645 18.14825 32.28345 17.9341 C 32.67044 17.71996 33.29106 17.41232 33.67805 17.22913 C 34.06506 17.04593 34.68567 16.77534 35.07266 16.61372 C 35.45966 16.45209 36.08028 16.20953 36.46727 16.06415 C 36.85426 15.91878 37.47488 15.6984 37.8619 15.56593 C 38.24889 15.43349 38.86949 15.23125 39.25648 15.1094 C 39.64348 14.98756 40.2641 14.80061 40.65111 14.68774 C 41.0381 14.57489 41.6587 14.40105 42.0457 14.29588 C 42.4327 14.19073 43.05331 14.02824 43.4403 13.92989 C 43.82732 13.83153 44.44794 13.67926 44.83493 13.58698 C 45.22192 13.49467 45.84253 13.3515 46.22952 13.26463 C 46.61653 13.17776 47.23715 13.0428 47.62415 12.96086 C 48.01114 12.87892 48.63174 12.7515 49.01874 12.67406 C 49.40573 12.59663 50.02635 12.4761 50.41336 12.40285 C 50.80035 12.32959 51.42096 12.21544 51.80795 12.14606 C 52.19495 12.07668 52.81557 11.96846 53.20258 11.90268 C 53.58957 11.8369 54.21019 11.73428 54.59718 11.67188 C 54.98418 11.60947 55.60478 11.51208 55.99178 11.45288 C 56.37878 11.39366 56.9994 11.30125 57.3864 11.24504 C 57.77339 11.18884 58.394 11.10114 58.78099 11.0478 C 59.168 10.99448 59.78862 10.91121 60.17561 10.86061 C 60.5626 10.81 61.18323 10.73102 61.57022 10.68303 C 61.95721 10.63504 62.57782 10.56013 62.96483 10.51465 C 63.35182 10.46916 63.97244 10.3982 64.35944 10.3551 C 64.74643 10.31203 65.36705 10.24484 65.75406 10.20407 C 66.14105 10.1633 66.76166 10.09976 67.14865 10.06123 C 67.53564 10.02272 68.15627 9.9627 68.54326 9.92635 C 68.93027 9.89 69.55087 9.83342 69.93787 9.79918 C 70.32486 9.76492 70.94548 9.71165 71.33247 9.67946 C 71.71948 9.64726 72.3401 9.59723 72.7271 9.56702 C 73.11409 9.53682 73.73471 9.48996 74.1217 9.4617 C 74.5087 9.43344 75.1293 9.38966 75.51631 9.3633 C 75.9033 9.33694 76.52393 9.29619 76.91092 9.2717 C 77.29791 9.24721 77.91853 9.20941 78.30554 9.18675 C 78.69254 9.16408 79.31314 9.12918 79.70013 9.10832 C 80.08713 9.08746 80.70775 9.05542 81.09474 9.03632 C 81.48175 9.01723 82.10236 8.98799 82.48935 8.97063 C 82.87634 8.95328 83.49696 8.92682 83.88396 8.9112 C 84.27097 8.89557 84.89159 8.87184 85.27858 8.8579 C 85.66557 8.84396 86.2862 8.82295 86.67319 8.8107 C 87.06018 8.79845 87.68079 8.7801 88.0678 8.76953 C 88.45479 8.75894 89.07541 8.74327 89.4624 8.73433 C 89.8494 8.7254 90.47 8.71236 90.85701 8.70506 C 91.244 8.69775 91.86462 8.68736 92.25162 8.68169 C 92.63861 8.67603 93.25923 8.66823 93.64622 8.66418 C 94.03323 8.66014 94.65384 8.65494 95.04083 8.65251 C 95.42783 8.6501 96.04845 8.6475 96.43544 8.6467 C 96.82245 8.64589 97.44307 8.64587 97.83006 8.64668 C 98.21706 8.64749 98.83768 8.65009 99.22467 8.6525 C 99.61166 8.65492 100.23227 8.66013 100.61928 8.66415 C 101.00627 8.66818 101.62689 8.67598 102.01389 8.68163 C 102.40088 8.68729 103.02148 8.6977 103.4085 8.705 C 103.79549 8.7123 104.4161 8.72531 104.8031 8.73424 C 105.1901 8.74318 105.81071 8.75885 106.19771 8.76944 C 106.58472 8.78001 107.20532 8.79834 107.59232 8.8106 C 107.97931 8.82285 108.59993 8.84386 108.98692 8.85777 C 109.37393 8.8717 109.99455 8.89542 110.38155 8.91104 C 110.76854 8.92667 111.38914 8.95314 111.77614 8.97049 C 112.16313 8.98782 112.78375 9.01704 113.17076 9.03613 C 113.55775 9.05524 114.17838 9.08727 114.56537 9.10812 C 114.95236 9.12898 115.57297 9.16388 115.95998 9.18654 C 116.34697 9.20918 116.96759 9.24698 117.35458 9.27147 C 117.74158 9.29596 118.3622 9.33672 118.74919 9.36305 C 119.1362 9.3894 119.7568 9.43318 120.1438 9.46144 C 120.53079 9.4897 121.15141 9.53654 121.5384 9.56674 C 121.92542 9.59695 122.54604 9.64697 122.93303 9.67917 C 123.32002 9.71136 123.94063 9.76462 124.32762 9.79886 C 124.71461 9.83308 125.33524 9.88966 125.72224 9.92601 C 126.10924 9.96237 126.72986 10.02237 127.11685 10.06088 C 127.50385 10.09941 128.12445 10.16293 128.51146 10.20369 C 128.89846 10.24446 129.51908 10.31163 129.90607 10.35472 C 130.29306 10.3978 130.91367 10.46875 131.30066 10.51422 C 131.68767 10.55971 132.30829 10.6346 132.69528 10.68259 C 133.08228 10.73058 133.7029 10.80954 134.08989 10.86014 C 134.4769 10.91072 135.09752 10.99397 135.48451 11.0473 C 135.8715 11.10063 136.49211 11.18834 136.8791 11.24454 C 137.2661 11.30072 137.88672 11.39311 138.27373 11.45233 C 138.66072 11.51154 139.28133 11.6089 139.66832 11.6713 C 140.05532 11.73369 140.67594 11.83629 141.06295 11.90207 C 141.44994 11.96783 142.07054 12.07602 142.45754 12.1454 C 142.84453 12.21478 143.46515 12.32892 143.85214 12.40216 C 144.23915 12.4754 144.85977 12.59595 145.24677 12.67336 C 145.63376 12.75076 146.25437 12.87817 146.64136 12.9601 C 147.02837 13.04202 147.64899 13.17697 148.03598 13.26382 C 148.42298 13.35068 149.04358 13.49385 149.43058 13.58612 C 149.81757 13.67839 150.43819 13.83063 150.8252 13.92897 C 151.21219 14.02731 151.83281 14.18979 152.2198 14.29492 C 152.6068 14.40004 153.2274 14.57385 153.61441 14.6867 C 154.0014 14.79955 154.62203 14.98647 155.00902 15.10828 C 155.39601 15.23009 156.01662 15.43228 156.40361 15.56471 C 156.79062 15.69713 157.41124 15.91748 157.79824 16.06282 C 158.18523 16.20815 158.80583 16.45064 159.19283 16.61221 C 159.57984 16.77379 160.20046 17.04433 160.58745 17.22745 C 160.97444 17.41057 161.59506 17.71808 161.98206 17.93213 C 162.36905 18.14616 162.98966 18.50485 163.37667 18.77017 C 163.76366 19.03549 164.38428 19.45049 164.77127 19.8444 C 165.15827 20.23834 166.16588 21.60936 166.16588 21.60936 "/>
<path transform="matrix(1,0,0,-1,.199,174.48)" stroke-width="1.19553" stroke-linecap="butt" stroke-miterlimit="10" stroke-linejoin="miter" fill="none" stroke="#000080" d="M 54.67287 66.60484 C 54.67287 66.60484 55.29263 67.82095 55.53065 68.13501 C 55.76869 68.44908 56.15044 68.68947 56.38846 68.86838 C 56.6265 69.04729 57.00824 69.28328 57.24626 69.42458 C 57.4843 69.56586 57.86601 69.767 58.10405 69.8867 C 58.34209 70.00642 58.72382 70.18243 58.96185 70.28748 C 59.19989 70.39253 59.58162 70.54971 59.81966 70.64384 C 60.0577 70.73798 60.43942 70.88043 60.67746 70.96599 C 60.9155 71.05154 61.29721 71.18199 61.53525 71.26054 C 61.77327 71.3391 62.15501 71.45949 62.39305 71.53214 C 62.63107 71.6048 63.01282 71.71663 63.25085 71.78423 C 63.48888 71.8518 63.8706 71.95616 64.10864 72.01932 C 64.34666 72.08249 64.72841 72.18025 64.96643 72.23947 C 65.20447 72.2987 65.58621 72.39056 65.82423 72.44629 C 66.06227 72.502 66.44402 72.58853 66.68204 72.64104 C 66.92007 72.69354 67.3018 72.77522 67.53984 72.82483 C 67.77788 72.87444 68.15959 72.95164 68.39763 72.99855 C 68.63567 73.04547 69.0174 73.11855 69.25543 73.16296 C 69.49347 73.20738 69.8752 73.27664 70.11324 73.31874 C 70.35127 73.36084 70.733 73.42648 70.97104 73.46642 C 71.20908 73.50633 71.5908 73.56863 71.82884 73.60649 C 72.06686 73.64436 72.4486 73.70348 72.68663 73.7394 C 72.92465 73.77531 73.3064 73.8314 73.54443 73.86551 C 73.78246 73.89961 74.1642 73.95284 74.40224 73.98517 C 74.64026 74.0175 75.022 74.068 75.26003 74.09866 C 75.49806 74.12932 75.87979 74.17719 76.11781 74.20625 C 76.35585 74.2353 76.7376 74.28065 76.97562 74.30818 C 77.21365 74.3357 77.59538 74.37862 77.83342 74.40466 C 78.07146 74.43071 78.45319 74.4713 78.69122 74.4959 C 78.92926 74.5205 79.31099 74.55882 79.54903 74.58203 C 79.78706 74.60526 80.16878 74.64139 80.40681 74.66325 C 80.64485 74.6851 81.02658 74.71913 81.26462 74.73969 C 81.50266 74.76024 81.88438 74.79219 82.12242 74.81146 C 82.36044 74.83075 82.74219 74.86067 82.98022 74.87871 C 83.21825 74.89673 83.59999 74.92471 83.83803 74.94151 C 84.07605 74.95833 84.45778 74.98436 84.6958 74.99998 C 84.93384 75.01561 85.31558 75.03975 85.5536 75.05421 C 85.79164 75.06866 86.17339 75.09096 86.4114 75.10428 C 86.64944 75.11758 87.03117 75.13805 87.2692 75.15022 C 87.50723 75.1624 87.88896 75.18108 88.127 75.19214 C 88.36504 75.2032 88.74677 75.2201 88.9848 75.23007 C 89.22284 75.24004 89.60457 75.25519 89.8426 75.26407 C 90.08064 75.27296 90.46237 75.28638 90.70041 75.29419 C 90.93845 75.302 91.32016 75.3137 91.5582 75.32047 C 91.79623 75.32721 92.17796 75.33723 92.416 75.34293 C 92.65402 75.34863 93.03577 75.35695 93.2738 75.3616 C 93.51183 75.36624 93.89357 75.3729 94.1316 75.37651 C 94.36963 75.38013 94.75137 75.38512 94.9894 75.38768 C 95.22743 75.39026 95.60916 75.39359 95.84718 75.39511 C 96.08522 75.39665 96.46696 75.39835 96.70499 75.39883 C 96.94302 75.39934 97.32477 75.39934 97.56279 75.39883 C 97.80083 75.39835 98.18256 75.39667 98.4206 75.39513 C 98.65863 75.3936 99.04034 75.39026 99.27838 75.38768 C 99.51642 75.38512 99.89815 75.38013 100.13618 75.37653 C 100.37422 75.37292 100.75595 75.36627 100.99399 75.36163 C 101.23203 75.35698 101.61375 75.34866 101.85179 75.34296 C 102.08981 75.33727 102.47156 75.32726 102.7096 75.32051 C 102.94762 75.31375 103.32935 75.30205 103.56738 75.29424 C 103.8054 75.28642 104.18715 75.27301 104.42519 75.26411 C 104.66321 75.25523 105.04495 75.2401 105.28297 75.23013 C 105.52101 75.22015 105.90276 75.20326 106.14078 75.1922 C 106.37881 75.18114 106.76056 75.16246 106.99858 75.15028 C 107.23662 75.1381 107.61833 75.11766 107.85637 75.10435 C 108.0944 75.09103 108.47614 75.06876 108.71417 75.0543 C 108.95221 75.03984 109.33394 75.0157 109.57198 75.00008 C 109.81001 74.98445 110.19174 74.95842 110.42978 74.9416 C 110.66782 74.9248 111.04953 74.89684 111.28757 74.87881 C 111.5256 74.86078 111.90733 74.83086 112.14537 74.81157 C 112.38339 74.7923 112.76514 74.76036 113.00317 74.7398 C 113.2412 74.71925 113.62294 74.68523 113.86098 74.66338 C 114.099 74.64151 114.48074 74.60538 114.71878 74.58215 C 114.9568 74.55894 115.33853 74.52063 115.57655 74.49603 C 115.81459 74.47144 116.19633 74.43085 116.43436 74.4048 C 116.6724 74.37875 117.05414 74.33585 117.29216 74.30833 C 117.5302 74.2808 117.91193 74.23546 118.14996 74.20639 C 118.388 74.17734 118.76973 74.12949 119.00777 74.09883 C 119.2458 74.06816 119.62752 74.01768 119.86555 73.98535 C 120.10359 73.95302 120.48532 73.89981 120.72336 73.8657 C 120.9614 73.8316 121.34312 73.77551 121.58116 73.7396 C 121.8192 73.70367 122.20093 73.64456 122.43896 73.60669 C 122.67699 73.56883 123.05872 73.50656 123.29675 73.46664 C 123.53477 73.42671 123.91652 73.36107 124.15456 73.31897 C 124.39258 73.27687 124.77432 73.20764 125.01234 73.16322 C 125.25038 73.1188 125.63213 73.04573 125.87015 72.99881 C 126.10818 72.9519 126.48993 72.8747 126.72795 72.8251 C 126.96599 72.77551 127.34772 72.69383 127.58574 72.64133 C 127.82378 72.58882 128.2055 72.50229 128.44355 72.44658 C 128.68158 72.39088 129.06331 72.29903 129.30135 72.23979 C 129.53939 72.18057 129.92111 72.08282 130.15915 72.01967 C 130.39719 71.95651 130.77892 71.85217 131.01696 71.78459 C 131.25499 71.717 131.6367 71.6052 131.87474 71.53253 C 132.11278 71.45988 132.4945 71.33951 132.73255 71.26097 C 132.97057 71.18243 133.35231 71.052 133.59035 70.96646 C 133.82837 70.88092 134.2101 70.7385 134.44814 70.64438 C 134.68616 70.55026 135.0679 70.39308 135.30593 70.28806 C 135.54396 70.18303 135.9257 70.00706 136.16373 69.88736 C 136.40177 69.76767 136.78351 69.56657 137.02153 69.42532 C 137.25957 69.28409 137.6413 69.04817 137.87932 68.86934 C 138.11736 68.69049 138.49909 68.44946 138.73712 68.13638 C 138.97516 67.8233 139.59493 66.61281 139.59493 66.61281 "/>
<path transform="matrix(1,0,0,-1,.199,174.48)" stroke-width="1.19553" stroke-linecap="butt" stroke-miterlimit="10" stroke-linejoin="miter" fill="none" stroke="#000080" d="M 53.25401 66.24799 C 53.25401 66.24799 53.89445 64.81339 54.14043 64.46281 C 54.3864 64.11224 54.78087 63.90178 55.02684 63.72119 C 55.27281 63.54062 55.66728 63.30334 55.91325 63.16121 C 56.15921 63.01906 56.5537 62.817 56.79967 62.69673 C 57.04562 62.57648 57.44011 62.39978 57.68607 62.29434 C 57.93204 62.1889 58.32652 62.03114 58.57248 61.93669 C 58.81845 61.84225 59.21294 61.6994 59.4589 61.6136 C 59.70486 61.5278 60.09933 61.39699 60.3453 61.31824 C 60.59128 61.23949 60.98576 61.11877 61.23174 61.04594 C 61.4777 60.9731 61.87218 60.86104 62.11815 60.79329 C 62.36412 60.72556 62.75859 60.62096 63.00456 60.55766 C 63.25053 60.49438 63.645 60.39642 63.89098 60.33707 C 64.13695 60.27773 64.53143 60.18567 64.7774 60.12985 C 65.02338 60.07404 65.41785 59.98734 65.66382 59.93472 C 65.90977 59.88211 66.30428 59.80028 66.55025 59.7506 C 66.7962 59.70091 67.19069 59.62357 67.43665 59.57657 C 67.68262 59.52959 68.07712 59.45638 68.32307 59.41188 C 68.56905 59.36739 68.96353 59.298 69.20949 59.25584 C 69.45546 59.21368 69.84993 59.14792 70.0959 59.10794 C 70.34187 59.06796 70.73636 59.00557 70.98233 58.96765 C 71.2283 58.92972 71.62277 58.87051 71.86874 58.83453 C 72.11472 58.79855 72.5092 58.74237 72.75517 58.70822 C 73.00114 58.67409 73.39561 58.6208 73.64159 58.58841 C 73.88756 58.556 74.28203 58.50545 74.528 58.47473 C 74.77396 58.44403 75.16846 58.39612 75.41443 58.367 C 75.66039 58.33789 76.05487 58.29248 76.30084 58.26492 C 76.5468 58.23735 76.9413 58.19438 77.18726 58.1683 C 77.43323 58.14224 77.82771 58.1016 78.07367 58.07695 C 78.31964 58.0523 78.71411 58.01393 78.96008 57.99069 C 79.20605 57.96745 79.60054 57.93124 79.84651 57.90936 C 80.09248 57.88747 80.48695 57.85341 80.73293 57.83282 C 80.9789 57.81224 81.37338 57.78024 81.61935 57.76094 C 81.86533 57.74164 82.2598 57.71165 82.50577 57.6936 C 82.75174 57.67554 83.14622 57.64755 83.3922 57.6307 C 83.63817 57.61386 84.03264 57.58781 84.27861 57.57216 C 84.52457 57.55652 84.91907 57.53235 85.16504 57.51787 C 85.411 57.50337 85.80548 57.48108 86.05144 57.46774 C 86.29741 57.4544 86.6919 57.43393 86.93785 57.42172 C 87.18382 57.40952 87.57832 57.39084 87.82428 57.37976 C 88.07025 57.36867 88.46472 57.35175 88.7107 57.34177 C 88.95667 57.33177 89.35115 57.31662 89.59712 57.30771 C 89.8431 57.2988 90.23756 57.28539 90.48354 57.27756 C 90.7295 57.26971 91.12398 57.25801 91.36995 57.25125 C 91.61592 57.24449 92.0104 57.23447 92.25638 57.22874 C 92.50235 57.22304 92.89682 57.2147 93.14279 57.21004 C 93.38875 57.20537 93.78325 57.19873 94.02922 57.19511 C 94.27518 57.1915 94.66966 57.18651 94.91563 57.18391 C 95.16159 57.18134 95.55608 57.17801 95.80203 57.17645 C 96.048 57.17491 96.4425 57.17325 96.68846 57.17273 C 96.93443 57.17221 97.3289 57.17221 97.57487 57.17271 C 97.82085 57.17322 98.21533 57.1749 98.4613 57.17642 C 98.70728 57.17796 99.10175 57.18129 99.34772 57.18385 C 99.59369 57.18643 99.98817 57.19142 100.23415 57.19502 C 100.48012 57.19862 100.87459 57.20528 101.12056 57.20993 C 101.36653 57.21458 101.76102 57.22292 102.00699 57.22862 C 102.25296 57.23431 102.64743 57.24434 102.8934 57.25108 C 103.13936 57.25783 103.53386 57.26956 103.77983 57.27737 C 104.02579 57.28519 104.42027 57.2986 104.66623 57.3075 C 104.9122 57.31639 105.30669 57.33154 105.55264 57.34154 C 105.79861 57.35152 106.19312 57.36841 106.43907 57.3795 C 106.68504 57.39058 107.07951 57.40924 107.32549 57.42143 C 107.57146 57.43362 107.96593 57.4541 108.2119 57.46742 C 108.45787 57.48074 108.85236 57.50304 109.09833 57.51752 C 109.3443 57.53198 109.73877 57.55614 109.98474 57.57178 C 110.23071 57.58743 110.6252 57.61346 110.87117 57.63031 C 111.11714 57.64716 111.51161 57.67513 111.75758 57.69319 C 112.00356 57.71124 112.39804 57.74118 112.64401 57.76048 C 112.88997 57.7798 113.28445 57.81177 113.53043 57.83235 C 113.77638 57.85294 114.17088 57.88695 114.41684 57.90884 C 114.66281 57.93074 115.0573 57.9669 115.30325 57.99014 C 115.54922 58.01338 115.94371 58.05176 116.18967 58.07639 C 116.43564 58.10101 116.83012 58.14163 117.0761 58.1677 C 117.32207 58.19374 117.71654 58.23674 117.96251 58.26428 C 118.20848 58.29182 118.60297 58.33722 118.84894 58.36632 C 119.09491 58.39542 119.48938 58.44331 119.73535 58.47403 C 119.98132 58.50473 120.37581 58.55527 120.62178 58.58765 C 120.86775 58.62003 121.26222 58.67331 121.5082 58.70743 C 121.75415 58.74156 122.14864 58.79771 122.3946 58.83368 C 122.64056 58.86966 123.03506 58.92885 123.28104 58.96677 C 123.527 59.00468 123.92148 59.06703 124.16743 59.107 C 124.4134 59.14697 124.8079 59.21272 125.05386 59.25487 C 125.29984 59.29703 125.6943 59.36636 125.94028 59.41084 C 126.18625 59.45532 126.58072 59.5285 126.82669 59.57549 C 127.07266 59.62245 127.46715 59.69977 127.71312 59.74944 C 127.95909 59.7991 128.35356 59.8809 128.59954 59.9335 C 128.8455 59.9861 129.23999 60.07277 129.48596 60.12856 C 129.73194 60.18436 130.1264 60.27634 130.37238 60.33568 C 130.61835 60.395 131.01284 60.49294 131.2588 60.55621 C 131.50476 60.61948 131.89925 60.72401 132.14522 60.79173 C 132.39118 60.85944 132.78566 60.97147 133.03162 61.04425 C 133.27759 61.11703 133.67208 61.2377 133.91803 61.3164 C 134.164 61.39513 134.5585 61.52583 134.80446 61.61159 C 135.05043 61.69734 135.4449 61.84013 135.69087 61.93451 C 135.93685 62.02888 136.33132 62.18651 136.57729 62.29187 C 136.82326 62.39725 137.21773 62.57378 137.4637 62.69394 C 137.70967 62.8141 138.10414 63.01599 138.35012 63.15794 C 138.59609 63.29991 138.99056 63.53688 139.23653 63.7171 C 139.4825 63.89734 139.87697 64.12167 140.12294 64.457 C 140.3689 64.79233 141.00936 66.13394 141.00936 66.13394 "/>
<path transform="matrix(1,0,0,-1,.199,174.48)" stroke-width="1.19553" stroke-linecap="butt" stroke-miterlimit="10" stroke-linejoin="miter" fill="none" stroke="#000080" d="M 50.61403 60.23613 C 50.61403 60.23613 51.29303 58.99602 51.5538 58.67783 C 51.81458 58.35963 52.2328 58.12204 52.49358 57.9428 C 52.75435 57.76355 53.17258 57.52733 53.43335 57.38588 C 53.69412 57.24443 54.11237 57.0431 54.37314 56.92326 C 54.63391 56.80344 55.05214 56.62729 55.31291 56.52217 C 55.57368 56.41704 55.99191 56.25974 56.2527 56.16554 C 56.51347 56.07135 56.93169 55.92882 57.19246 55.84322 C 57.45325 55.75761 57.87146 55.62708 58.13223 55.5485 C 58.393 55.46991 58.81125 55.34946 59.07202 55.27678 C 59.3328 55.20409 59.75102 55.0922 60.0118 55.02457 C 60.27257 54.95695 60.6908 54.85254 60.95157 54.78937 C 61.21234 54.72618 61.63057 54.62837 61.89136 54.56912 C 62.15213 54.50986 62.57034 54.41797 62.83112 54.36224 C 63.0919 54.3065 63.51013 54.21994 63.7709 54.1674 C 64.03168 54.11487 64.4499 54.03317 64.71068 53.98355 C 64.97145 53.93393 65.38968 53.85669 65.65045 53.80977 C 65.91122 53.76283 66.32947 53.68971 66.59024 53.64528 C 66.85101 53.60085 67.26923 53.53157 67.53001 53.48946 C 67.79079 53.44736 68.209 53.38168 68.46977 53.34174 C 68.73056 53.3018 69.14879 53.23952 69.40956 53.20163 C 69.67033 53.16374 70.08856 53.10463 70.34933 53.06868 C 70.6101 53.03275 71.02835 52.97662 71.28912 52.94252 C 71.5499 52.90843 71.96812 52.8552 72.2289 52.82285 C 72.48967 52.79048 72.90788 52.73999 73.16867 52.7093 C 73.42944 52.67863 73.84767 52.63077 74.10844 52.6017 C 74.36923 52.57263 74.78745 52.52727 75.04822 52.49974 C 75.30899 52.4722 75.72722 52.42926 75.98799 52.40321 C 76.24876 52.37718 76.667 52.33658 76.92778 52.31197 C 77.18855 52.28735 77.60678 52.24901 77.86755 52.2258 C 78.12833 52.20258 78.54657 52.16643 78.80734 52.14456 C 79.06812 52.12268 79.48633 52.08865 79.7471 52.06808 C 80.00789 52.04752 80.4261 52.01558 80.68687 51.99629 C 80.94765 51.977 81.36589 51.94708 81.62666 51.92903 C 81.88744 51.911 82.30566 51.88304 82.56644 51.86621 C 82.82721 51.84938 83.24544 51.82333 83.50621 51.80771 C 83.76698 51.79208 84.18523 51.76793 84.446 51.75346 C 84.70677 51.73901 85.12498 51.71672 85.38577 51.70341 C 85.64655 51.6901 86.06476 51.66963 86.32553 51.65744 C 86.5863 51.64525 87.00455 51.62659 87.26532 51.61551 C 87.5261 51.60445 87.94432 51.58755 88.2051 51.57759 C 88.46587 51.56761 88.88411 51.55246 89.14488 51.54356 C 89.40565 51.53467 89.82388 51.52124 90.08466 51.51343 C 90.34543 51.50562 90.76364 51.4939 91.02443 51.48715 C 91.2852 51.4804 91.70343 51.47038 91.9642 51.46468 C 92.22499 51.45898 92.6432 51.45065 92.90398 51.446 C 93.16475 51.44135 93.58298 51.43471 93.84375 51.43108 C 94.10452 51.42746 94.52277 51.42249 94.78354 51.4199 C 95.04431 51.41734 95.46254 51.41402 95.72331 51.41248 C 95.98409 51.41093 96.40231 51.40927 96.6631 51.40875 C 96.92387 51.40823 97.34209 51.40823 97.60286 51.40874 C 97.86365 51.40924 98.28186 51.4109 98.54263 51.41245 C 98.8034 51.41399 99.22165 51.41731 99.48242 51.41988 C 99.7432 51.42245 100.16142 51.42743 100.4222 51.43103 C 100.68297 51.43465 101.1012 51.4413 101.36197 51.44595 C 101.62274 51.4506 102.04097 51.45892 102.30176 51.46461 C 102.56253 51.47032 102.98074 51.48032 103.24152 51.48708 C 103.5023 51.49382 103.92053 51.50552 104.1813 51.51334 C 104.44208 51.52115 104.8603 51.53456 105.12108 51.54346 C 105.38185 51.55235 105.80008 51.56747 106.06085 51.57745 C 106.32162 51.58742 106.73987 51.60431 107.00064 51.61537 C 107.26141 51.62645 107.67963 51.64513 107.94041 51.6573 C 108.20119 51.66948 108.6194 51.68993 108.88017 51.70325 C 109.14096 51.71657 109.55919 51.73885 109.81996 51.75331 C 110.08073 51.76776 110.49896 51.7919 110.75974 51.80753 C 111.02051 51.82315 111.43875 51.84918 111.69952 51.86601 C 111.9603 51.88284 112.37852 51.9108 112.6393 51.92883 C 112.90007 51.94685 113.3183 51.97679 113.57907 51.99606 C 113.83984 52.01534 114.25807 52.04729 114.51884 52.06784 C 114.77963 52.0884 115.19785 52.12244 115.45862 52.1443 C 115.71939 52.16615 116.13762 52.2023 116.39839 52.22551 C 116.65916 52.24872 117.07741 52.28706 117.33818 52.31168 C 117.59895 52.33629 118.01718 52.37686 118.27795 52.4029 C 118.53873 52.42894 118.95695 52.47188 119.21773 52.4994 C 119.4785 52.52693 119.89673 52.57228 120.15752 52.60135 C 120.41829 52.63042 120.8365 52.67828 121.09727 52.70894 C 121.35805 52.73961 121.77629 52.7901 122.03706 52.82245 C 122.29784 52.8548 122.71606 52.90802 122.97684 52.94211 C 123.23761 52.97621 123.65584 53.0323 123.91661 53.06824 C 124.17738 53.10419 124.59563 53.1633 124.8564 53.20117 C 125.11717 53.23904 125.53539 53.30135 125.79617 53.34128 C 126.05695 53.3812 126.47516 53.44687 126.73593 53.48895 C 126.9967 53.53105 127.41495 53.60033 127.67572 53.64474 C 127.9365 53.68916 128.35472 53.76227 128.6155 53.80919 C 128.87627 53.85611 129.29451 53.93335 129.55529 53.98294 C 129.81606 54.03255 130.23429 54.11424 130.49506 54.16676 C 130.75583 54.2193 131.17404 54.30585 131.43483 54.36157 C 131.6956 54.41728 132.11383 54.50917 132.3746 54.5684 C 132.63539 54.62766 133.0536 54.72545 133.31438 54.7886 C 133.57515 54.85178 133.99338 54.95615 134.25415 55.02376 C 134.51493 55.09135 134.93317 55.20323 135.19394 55.2759 C 135.45471 55.34856 135.87294 55.469 136.13372 55.54756 C 136.39449 55.62613 136.81272 55.7566 137.0735 55.84218 C 137.33428 55.92775 137.75249 56.07024 138.01326 56.1644 C 138.27405 56.25856 138.69226 56.41582 138.95304 56.5209 C 139.2138 56.62599 139.63205 56.80206 139.89282 56.92184 C 140.1536 57.04161 140.57183 57.24281 140.8326 57.38417 C 141.09337 57.52554 141.5116 57.76166 141.77237 57.94072 C 142.03314 58.11978 142.45137 58.359 142.71216 58.67485 C 142.97293 58.99072 143.65192 60.21729 143.65192 60.21729 "/>
</g>
<symbol id="font_7_1">
<path d="M .57600006 0 C .59300008 0 .611 0 .611 .019999996 C .611 .040000008 .59300008 .040000008 .57600006 .040000008 L .035000005 .040000008 C .018 .040000008 0 .040000008 0 .019999996 C 0 0 .018 0 .035000005 0 L .57600006 0 Z "/>
</symbol>
<use xlink:href="#font_7_1" transform="matrix(9.9626,0,0,-9.9626,22.413897,161.1986)"/>
<symbol id="font_8_2">
<path d="M .07700001 .07700001 L .18300002 .18 C .33900003 .31800003 .39900003 .372 .39900003 .47200004 C .39900003 .586 .30900003 .666 .18700002 .666 C .074 .666 0 .574 0 .485 C 0 .42900003 .05 .42900003 .053000008 .42900003 C .07000001 .42900003 .105000007 .441 .105000007 .48200003 C .105000007 .508 .08700001 .53400006 .052000006 .53400006 C .044000005 .53400006 .042000008 .53400006 .039 .53300008 C .062000004 .59800007 .11600001 .63500007 .17400001 .63500007 C .26500003 .63500007 .308 .554 .308 .47200004 C .308 .39200003 .25800003 .31300003 .20300003 .25100003 L .011000004 .037 C 0 .026 0 .024 0 0 L .37100003 0 L .39900003 .17400001 L .374 .17400001 C .36900003 .14400001 .36200003 .1 .352 .085 C .345 .07700001 .279 .07700001 .257 .07700001 L .07700001 .07700001 Z "/>
</symbol>
<use xlink:href="#font_8_2" transform="matrix(9.9626,0,0,-9.9626,29.83313,163.48999)"/>
<use xlink:href="#font_7_1" transform="matrix(9.9626,0,0,-9.9626,57.103899,161.1986)"/>
<symbol id="font_8_1">
<path d="M .205 .64000007 C .205 .66400006 .205 .666 .18200003 .666 C .120000008 .60200008 .032000007 .60200008 0 .60200008 L 0 .57100006 C .020000004 .57100006 .07900001 .57100006 .13100001 .597 L .13100001 .079 C .13100001 .043 .128 .031000002 .038000004 .031000002 L .0060000049 .031000002 L .0060000049 0 C .04100001 .003 .128 .003 .168 .003 C .20800002 .003 .29500003 .003 .33000005 0 L .33000005 .031000002 L .29800005 .031000002 C .20800002 .031000002 .205 .042000005 .205 .079 L .205 .64000007 Z "/>
</symbol>
<use xlink:href="#font_8_1" transform="matrix(9.9626,0,0,-9.9626,64.912677,163.48999)"/>
<use xlink:href="#font_8_1" transform="matrix(9.9626,0,0,-9.9626,130.41867,163.48999)"/>
<use xlink:href="#font_8_2" transform="matrix(9.9626,0,0,-9.9626,164.72113,163.48999)"/>
<use xlink:href="#font_8_1" transform="matrix(9.9626,0,0,-9.9626,87.59167,125.81499)"/>
<use xlink:href="#font_8_2" transform="matrix(9.9626,0,0,-9.9626,87.203128,96.99499)"/>
<symbol id="font_8_3">
<path d="M .24800003 .37400005 C .33 .40100003 .388 .47100006 .388 .55 C .388 .632 .3 .688 .204 .688 C .10300001 .688 .027000003 .628 .027000003 .55200007 C .027000003 .519 .049000004 .5 .078 .5 C .109000008 .5 .12900001 .522 .12900001 .55100008 C .12900001 .6010001 .082 .6010001 .067 .6010001 C .098 .65000006 .164 .66300007 .20000002 .66300007 C .24100003 .66300007 .29600004 .64100006 .29600004 .55100008 C .29600004 .53900006 .29400004 .48100005 .268 .43700005 C .238 .38900004 .204 .38600005 .17900002 .38500003 C .171 .38400004 .14700002 .38200004 .14000002 .38200004 C .132 .38100005 .125 .38000003 .125 .37000004 C .125 .35900004 .132 .35900004 .14900002 .35900004 L .19300002 .35900004 C .275 .35900004 .312 .29100005 .312 .193 C .312 .057000005 .24300003 .028 .199 .028 C .15600002 .028 .081 .045 .046000005 .104 C .081 .09900001 .11200001 .12100001 .11200001 .15900001 C .11200001 .19500001 .085 .215 .056 .215 C .031999999 .215 0 .201 0 .157 C 0 .06600001 .093 0 .20200002 0 C .32400004 0 .41500003 .091000009 .41500003 .193 C .41500003 .27500005 .35200004 .35300005 .24800003 .37400005 Z "/>
</symbol>
<use xlink:href="#font_8_3" transform="matrix(9.9626,0,0,-9.9626,87.12342,68.395168)"/>
<symbol id="font_8_4">
<path d="M .266 .165 L .266 .078 C .266 .042000005 .26400004 .031000002 .19000001 .031000002 L .16900002 .031000002 L .16900002 0 C .21000001 .003 .26200003 .003 .30400003 .003 C .34600003 .003 .39900003 .003 .44000004 0 L .44000004 .031000002 L .41900004 .031000002 C .34500004 .031000002 .34300003 .042000005 .34300003 .078 L .34300003 .165 L .44300003 .165 L .44300003 .19600001 L .34300003 .19600001 L .34300003 .651 C .34300003 .671 .34300003 .67700007 .32700003 .67700007 C .31800003 .67700007 .31500004 .67700007 .307 .665 L 0 .19600001 L 0 .165 L .266 .165 M .272 .19600001 L .028 .19600001 L .272 .569 L .272 .19600001 Z "/>
</symbol>
<use xlink:href="#font_8_4" transform="matrix(9.9626,0,0,-9.9626,86.98395,39.356004)"/>
<symbol id="font_9_1">
<path d="M .305 .31300003 C .311 .33900003 .334 .43100003 .404 .43100003 C .409 .43100003 .433 .43100003 .454 .418 C .426 .41300003 .40600003 .388 .40600003 .36400003 C .40600003 .34800003 .417 .32900004 .444 .32900004 C .46600003 .32900004 .498 .34700004 .498 .38700003 C .498 .43900005 .439 .45300005 .405 .45300005 C .347 .45300005 .312 .40000005 .3 .37700004 C .275 .44300003 .221 .45300005 .19200002 .45300005 C .08800001 .45300005 .031000002 .32400004 .031000002 .29900003 C .031000002 .28900004 .041 .28900004 .043000007 .28900004 C .051000008 .28900004 .054000006 .291 .056 .3 C .09 .40600003 .156 .43100003 .19000001 .43100003 C .209 .43100003 .244 .42200003 .244 .36400003 C .244 .33300004 .22700002 .26600004 .19000001 .126 C .17400001 .064 .13900002 .022000002 .095000009 .022000002 C .08900001 .022000002 .06600001 .022000002 .045 .035 C .07000001 .040000004 .09200001 .061 .09200001 .089 C .09200001 .116000007 .07000001 .124000009 .055000009 .124000009 C .025 .124000009 0 .098000008 0 .06600001 C 0 .020000002 .050000006 0 .094000007 0 C .16000001 0 .19600001 .07000001 .19900002 .076000008 C .21100001 .039 .24700003 0 .307 0 C .41 0 .467 .12900001 .467 .15400002 C .467 .16400002 .458 .16400002 .455 .16400002 C .446 .16400002 .444 .16000001 .442 .15300001 C .409 .046 .341 .022000002 .30900003 .022000002 C .27 .022000002 .254 .054 .254 .08800001 C .254 .11000001 .26 .13200002 .271 .17600002 L .305 .31300003 Z "/>
</symbol>
<use xlink:href="#font_9_1" transform="matrix(9.9626,0,0,-9.9626,198.31792,153.67359)"/>
<symbol id="font_9_2">
<path d="M .45700003 .586 C .461 .6 .461 .602 .461 .609 C .461 .62700006 .447 .63600006 .432 .63600006 C .42200003 .63600006 .40600003 .63 .397 .615 C .395 .61 .387 .579 .38300003 .561 C .37600003 .535 .36900003 .508 .363 .48100005 L .318 .301 C .314 .286 .271 .21600002 .20500002 .21600002 C .15400002 .21600002 .143 .26000003 .143 .29700003 C .143 .34300003 .16000001 .40500004 .194 .49300004 C .21000001 .53400006 .21400002 .545 .21400002 .56500008 C .21400002 .61 .18200001 .6470001 .13200002 .6470001 C .037 .6470001 0 .50200006 0 .49300004 C 0 .48300005 .01 .48300005 .012 .48300005 C .022000002 .48300005 .023 .485 .028000003 .50100007 C .055000009 .595 .095000009 .625 .12900001 .625 C .13700001 .625 .15400002 .625 .15400002 .59300008 C .15400002 .568 .14400001 .54200008 .13700001 .523 C .097 .41700004 .079 .36 .079 .31300003 C .079 .224 .142 .194 .201 .194 C .24000003 .194 .274 .21100001 .30200003 .23900002 C .289 .187 .277 .13800001 .237 .08500001 C .21100001 .051 .17300001 .022 .127 .022 C .113000009 .022 .068 .025000006 .051000008 .06400001 C .067 .06400001 .080000009 .06400001 .094000007 .076000008 C .104 .08500001 .11400001 .098000008 .11400001 .117000009 C .11400001 .148 .087000008 .15200001 .07700001 .15200001 C .054000006 .15200001 .021 .136 .021 .087000008 C .021 .037 .065000008 0 .127 0 C .23 0 .333 .091000009 .361 .20400001 L .45700003 .586 Z "/>
</symbol>
<use xlink:href="#font_9_2" transform="matrix(9.9626,0,0,-9.9626,95.015918,9.652334)"/>
<path transform="matrix(1,0,0,-1,.199,174.48)" stroke-width="1" stroke-linecap="butt" stroke-miterlimit="10" stroke-linejoin="miter" fill="none" stroke="#808080" d="M 27.75273 20.92998 L 27.75273 25.18184 M 62.44363 20.92998 L 62.44363 25.18184 M 131.82547 20.92998 L 131.82547 25.18184 M 166.51639 20.92998 L 166.51639 25.18184 "/>
<path transform="matrix(1,0,0,-1,.199,174.48)" stroke-width="1" stroke-linecap="butt" stroke-miterlimit="10" stroke-linejoin="miter" fill="none" stroke="#808080" d="M 95.00845 51.87582 L 99.26064 51.87582 M 95.00845 80.69574 L 99.26064 80.69574 M 95.00845 109.51566 L 99.26064 109.51566 M 95.00845 138.33556 L 99.26064 138.33556 "/>
<path transform="matrix(1,0,0,-1,.199,174.48)" stroke-width="1" stroke-linecap="butt" stroke-miterlimit="10" stroke-linejoin="miter" fill="none" stroke="#000000" d="M 0 23.05592 L 192.2766 23.05592 "/>
<path transform="matrix(1,0,0,-1,192.4756,151.42407)" d="M 1.99252 0 L -1.19551 1.59401 L 0 0 L -1.19551 -1.59401 "/>
<path transform="matrix(1,0,0,-1,.199,174.48)" stroke-width="1" stroke-linecap="butt" stroke-miterlimit="10" stroke-linejoin="miter" fill="none" stroke="#000000" d="M 97.13455 0 L 97.13455 159.39897 "/>
<path transform="matrix(0,-1,-1,-0,97.33355,15.081024)" d="M 1.99252 0 L -1.19551 1.59401 L 0 0 L -1.19551 -1.59401 "/>
</svg>
