<?xml version="1.0" encoding="UTF-8" standalone="no"?>
<!DOCTYPE svg PUBLIC "-//W3C//DTD SVG 1.1//EN" "http://www.w3.org/Graphics/SVG/1.1/DTD/svg11.dtd">
<svg xmlns="http://www.w3.org/2000/svg" xmlns:xlink="http://www.w3.org/1999/xlink" version="1.1" width="129.621pt" height="105.5pt" viewBox="0 0 129.621 105.5">
<clipPath id="cp0">
<path transform="matrix(1,0,0,-1,41.352,65.024)" d="M -41.35242 -27.64632 L -41.35242 37.37862 L 0 65.02493 L 88.27028 52.19446 L 88.27028 -12.83046 L 46.91786 -40.47678 Z "/>
</clipPath>
<g clip-path="url(#cp0)">
<path transform="matrix(1,0,0,-1,41.352,65.024)" stroke-width="1" stroke-linecap="butt" stroke-miterlimit="10" stroke-linejoin="miter" fill="none" stroke="#000080" d="M 70.58202 15.04083 C 70.58202 15.04083 63.10548 22.45692 60.36295 24.9635 C 57.6204 27.47008 53.37172 31.2841 50.81558 33.10652 C 48.25945 34.92896 44.30981 37.26228 41.94008 38.09836 C 39.57034 38.93443 35.91951 39.40761 33.73618 39.13245 C 31.55284 38.8573 28.20094 37.4261 26.20401 36.11514 C 24.20708 34.8042 21.15413 31.76877 19.34358 29.68398 C 17.53304 27.59917 14.77898 23.54782 13.15485 21.0893 C 11.5307 18.63078 9.07565 14.3328 7.63792 11.96458 C 6.2002 9.59637 4.04399 5.85643 2.79266 4.02083 C 1.54132 2.18521 -.3159 -.30118 -1.38083 -1.26526 C -2.44577 -2.22934 -4.00412 -3.0078 -4.88264 -2.92758 C -5.76117 -2.84735 -7.02058 -1.7864 -7.71272 -.68698 C -8.40485 .41241 -9.36533 3.09634 -9.87105 4.99634 C -10.37677 6.89633 -11.03836 10.67818 -11.35768 13.0068 C -11.677 15.33543 -12.03964 19.47786 -12.17256 21.77948 C -12.3055 24.08112 -12.3692 27.77649 -12.31573 29.59534 C -12.26227 31.4142 -12.02705 33.92445 -11.78719 34.88855 C -11.5473 35.85265 -11.01315 36.65315 -10.5869 36.54396 C -10.16063 36.43478 -9.32755 35.3093 -8.71487 34.1016 C -8.1022 32.89388 -6.97021 29.97308 -6.17114 27.83955 C -5.37207 25.70604 -3.94115 21.44495 -2.95569 18.72461 C -1.97021 16.00426 -.24037 11.09813 .93149 8.23314 C 2.10336 5.36815 4.13216 .62114 5.49043 -1.92436 C 6.8487 -4.4699 9.17635 -8.28741 10.72102 -10.11328 C 12.26569 -11.93913 14.89232 -14.23961 16.6234 -15.08395 C 18.35448 -15.9283 21.28001 -16.41144 23.1975 -16.19878 C 25.11499 -15.98611 28.33945 -14.696 30.44334 -13.55115 C 32.54723 -12.40628 36.07062 -9.72227 38.36089 -7.94734 C 40.65117 -6.17241 46.95009 -.75858 46.95009 -.75858 "/>
<path transform="matrix(1,0,0,-1,41.352,65.024)" stroke-width="1" stroke-linecap="butt" stroke-miterlimit="10" stroke-linejoin="miter" fill="none" stroke="#000000" d="M -.1026 10.89069 L -.7314 12.54059 "/>
<path transform="matrix(.35626,.93478,.93478,-.35626,40.6206,52.483404)" d="M 2.59026 0 L -1.55415 2.0722 L 0 0 L -1.55415 -2.0722 "/>
</g>
<path transform="matrix(1,0,0,-1,41.352,65.024)" stroke-width="1" stroke-linecap="butt" stroke-miterlimit="10" stroke-linejoin="miter" fill="none" stroke="#808080" d="M -2.1382 25.61104 L 2.06978 24.99939 M -25.76816 9.81314 L -21.56017 9.20149 "/>
<path transform="matrix(1,0,0,-1,41.352,65.024)" stroke-width="1" stroke-linecap="butt" stroke-miterlimit="10" stroke-linejoin="miter" fill="none" stroke="#808080" d="M 25.22643 13.45575 L 21.69144 11.0924 M 60.53455 8.32356 L 56.99956 5.96022 "/>
<path transform="matrix(1,0,0,-1,41.352,65.024)" stroke-width="1" stroke-linecap="butt" stroke-miterlimit="10" stroke-linejoin="miter" fill="none" stroke="#000000" d="M 8.82703 31.22942 L -30.86241 4.69489 "/>
<path transform="matrix(-.83461,.55798,.55798,.83461,10.489592,60.3291)" d="M 1.99252 0 L -1.19551 1.59401 L 0 0 L -1.19551 -1.59401 "/>
<path transform="matrix(1,0,0,-1,41.352,65.024)" stroke-width="1" stroke-linecap="butt" stroke-miterlimit="10" stroke-linejoin="miter" fill="none" stroke="#000000" d="M -20.67621 18.6893 L 65.62079 6.14558 "/>
<path transform="matrix(.99034,.14392,.14392,-.99034,106.97279,58.87842)" d="M 1.99252 0 L -1.19551 1.59401 L 0 0 L -1.19551 -1.59401 "/>
<symbol id="font_1_1">
<path d="M .63600006 0 C .65200009 0 .67600008 0 .67600008 .023999989 C .67600008 .048999996 .65300008 .048999996 .63600006 .048999996 L .04 .048999996 C .023999997 .048999996 0 .048999996 0 .025000006 C 0 0 .02300001 0 .04 0 L .63600006 0 Z "/>
</symbol>
<use xlink:href="#font_1_1" transform="matrix(6.9738,0,0,-6.9738,41.48217,47.31392)"/>
<symbol id="font_2_2">
<path d="M .442 .18200001 L .40800003 .18200001 C .40500004 .16000001 .39500005 .101 .38200004 .091000009 C .374 .085 .29700003 .085 .28300003 .085 L .099 .085 C .20400003 .178 .23900002 .20600002 .29900003 .25300003 C .37300004 .312 .442 .374 .442 .469 C .442 .59000006 .33600004 .66400006 .20800004 .66400006 C .084 .66400006 0 .577 0 .485 C 0 .43400003 .043000007 .42900003 .053000004 .42900003 C .077 .42900003 .10600001 .446 .10600001 .48200003 C .10600001 .5 .099 .535 .047000007 .535 C .078 .606 .146 .628 .19300002 .628 C .293 .628 .34500004 .55 .34500004 .469 C .34500004 .38200004 .28300003 .31300003 .25100003 .277 L .010000005 .039 C 0 .030000002 0 .028 0 0 L .41200004 0 L .442 .18200001 Z "/>
</symbol>
<use xlink:href="#font_2_2" transform="matrix(6.9738,0,0,-6.9738,47.39535,48.89)"/>
<use xlink:href="#font_2_2" transform="matrix(6.9738,0,0,-6.9738,19.284352,63.521)"/>
<use xlink:href="#font_2_2" transform="matrix(6.9738,0,0,-6.9738,61.73335,59.987)"/>
<symbol id="font_2_3">
<path d="M .49000005 .164 L .49000005 .2 L .379 .2 L .379 .646 C .379 .66700008 .379 .674 .35700003 .674 C .345 .674 .34100003 .674 .331 .66 L 0 .2 L 0 .164 L .294 .164 L .294 .082 C .294 .048 .294 .036000004 .213 .036000004 L .186 .036000004 L .186 0 C .236 .002 .3 .004 .33600004 .004 C .37300004 .004 .437 .002 .48700003 0 L .48700003 .036000004 L .46 .036000004 C .379 .036000004 .379 .048 .379 .082 L .379 .164 L .49000005 .164 M .301 .56600007 L .301 .2 L .037000006 .2 L .301 .56600007 Z "/>
</symbol>
<use xlink:href="#font_2_3" transform="matrix(6.9738,0,0,-6.9738,96.873989,65.119)"/>
<path transform="matrix(1,0,0,-1,41.352,65.024)" stroke-width="1" stroke-linecap="butt" stroke-miterlimit="10" stroke-linejoin="miter" fill="none" stroke="#808080" d="M 23.45892 10.14809 L 23.45892 14.40004 M 58.76704 5.0159 L 58.76704 9.26785 "/>
<path transform="matrix(1,0,0,-1,41.352,65.024)" stroke-width="1" stroke-linecap="butt" stroke-miterlimit="10" stroke-linejoin="miter" fill="none" stroke="#808080" d="M -13.95317 -3.96288 L -9.7452 -4.57452 M -13.95317 39.38707 L -9.7452 38.77542 "/>
<path transform="matrix(1,0,0,-1,41.352,65.024)" stroke-width="1" stroke-linecap="butt" stroke-miterlimit="10" stroke-linejoin="miter" fill="none" stroke="#000000" d="M -11.84917 -15.1062 L -11.84917 47.92621 "/>
<path transform="matrix(0,-1,-1,-0,29.50283,17.097794)" d="M 1.99252 0 L -1.19551 1.59401 L 0 0 L -1.19551 -1.59401 "/>
<use xlink:href="#font_1_1" transform="matrix(6.9738,0,0,-6.9738,14.361172,71.20892)"/>
<symbol id="font_2_1">
<path d="M .22600001 .63600006 C .22600001 .66300007 .224 .66400006 .19600001 .66400006 C .132 .601 .041 .6 0 .6 L 0 .564 C .023999997 .564 .09000001 .564 .14500001 .592 L .14500001 .082 C .14500001 .049000004 .14500001 .036000004 .04500001 .036000004 L .0069999995 .036000004 L .0069999995 0 C .024999999 .001 .148 .004 .185 .004 C .21600002 .004 .34200005 .001 .36400003 0 L .36400003 .036000004 L .32600004 .036000004 C .22600001 .036000004 .22600001 .049000004 .22600001 .082 L .22600001 .63600006 Z "/>
</symbol>
<use xlink:href="#font_2_1" transform="matrix(6.9738,0,0,-6.9738,20.594147,72.785)"/>
<use xlink:href="#font_2_1" transform="matrix(6.9738,0,0,-6.9738,20.594147,29.146004)"/>
<path transform="matrix(1,0,0,-1,41.352,65.024)" stroke-width="1" stroke-linecap="butt" stroke-miterlimit="10" stroke-linejoin="miter" fill="none" stroke="#808080" d="M -.0342 23.17923 L -.0342 27.43117 M -23.66415 7.38133 L -23.66415 11.63327 "/>
<path transform="matrix(1,0,0,-1,41.352,65.024)" stroke-width="1" stroke-linecap="butt" stroke-miterlimit="10" stroke-linejoin="miter" fill="none" stroke="#808080" d="M -10.08167 -3.08702 L -13.61667 -5.45038 M -10.08167 40.26292 L -13.61667 37.89957 "/>
<symbol id="font_3_1">
<path d="M .201 .116000007 C .19100002 .082 .15800002 .028 .107 .028 C .10400001 .028 .07400001 .028 .053000004 .042000005 C .094000007 .055000005 .09700001 .091 .09700001 .097 C .09700001 .119 .080000009 .134 .057000005 .134 C .029000007 .134 0 .11 0 .073 C 0 .023000002 .056 0 .10500001 0 C .15100003 0 .192 .029000003 .21700001 .071 C .241 .018000002 .296 0 .336 0 C .451 0 .512 .125 .512 .15300001 C .512 .16600001 .49900005 .16600001 .49600003 .16600001 C .48200003 .16600001 .48100005 .16100002 .47700004 .14900002 C .456 .08 .39600004 .028 .34 .028 C .3 .028 .279 .055000005 .279 .093 C .279 .119 .303 .21000001 .331 .321 C .351 .398 .39600004 .423 .42900003 .423 C .43100003 .423 .46200005 .423 .483 .409 C .451 .4 .439 .372 .439 .354 C .439 .33200003 .456 .317 .479 .317 C .50200006 .317 .535 .336 .535 .37800003 C .535 .43400003 .47100006 .451 .43100003 .451 C .381 .451 .34100003 .418 .319 .38 C .301 .421 .255 .451 .199 .451 C .087000008 .451 .023000002 .328 .023000002 .298 C .023000002 .285 .037 .285 .040000008 .285 C .053000004 .285 .054000006 .289 .059000009 .30200003 C .084 .38 .14700002 .423 .19600001 .423 C .229 .423 .256 .405 .256 .357 C .256 .337 .24400002 .287 .23500002 .25300003 L .201 .116000007 Z "/>
</symbol>
<use xlink:href="#font_3_1" transform="matrix(6.9738,0,0,-6.9738,3.9137448,66.00074)"/>
<symbol id="font_3_2">
<path d="M .50900009 .58100005 C .513 .595 .513 .597 .513 .60300007 C .513 .623 .49700005 .63500007 .48000003 .63500007 C .46900005 .63500007 .45000003 .63000008 .43900005 .611 C .43600003 .605 .42800004 .573 .42300005 .55300006 L .40200005 .47000004 C .39600004 .44600005 .36500005 .32000003 .36200003 .30900003 C .36100004 .30900003 .31700004 .22200002 .23900001 .22200002 C .171 .22200002 .171 .287 .171 .305 C .171 .35900004 .194 .42200003 .22400002 .499 C .23600002 .531 .24100001 .54300007 .24100001 .56 C .24100001 .60800006 .2 .64500007 .146 .64500007 C .045000007 .64500007 0 .509 0 .49200005 C 0 .47900004 .014000002 .47900004 .017 .47900004 C .031 .47900004 .032 .48400004 .035 .495 C .060000007 .578 .103 .61700007 .143 .61700007 C .16000001 .61700007 .168 .606 .168 .582 C .168 .559 .15900001 .537 .154 .52400007 C .106000009 .402 .096 .365 .096 .321 C .096 .30400003 .096 .25700004 .135 .22500001 C .16600001 .19900002 .20800002 .194 .235 .194 C .27500005 .194 .31100003 .209 .34400005 .23900001 C .33100004 .18400002 .32000003 .142 .27800004 .09200001 C .25100003 .061000006 .21100001 .027999998 .158 .027999998 C .15100001 .027999998 .104 .027999998 .083000008 .061000006 C .13700001 .067 .13700001 .11500001 .13700001 .116000007 C .13700001 .148 .107999999 .15400002 .098000008 .15400002 C .073 .15400002 .040000004 .134 .040000004 .08800001 C .040000004 .037 .088 0 .15900001 0 C .26000003 0 .38300003 .07800001 .41400004 .20300001 L .50900009 .58100005 Z "/>
</symbol>
<use xlink:href="#font_3_2" transform="matrix(6.9738,0,0,-6.9738,107.12777,66.392658)"/>
<symbol id="font_3_3">
<path d="M .10700001 .098000008 C .133 .124000009 .15100001 .143 .23600002 .21100001 C .25700004 .22800002 .33200003 .28800003 .361 .316 C .422 .37600003 .46000005 .42700003 .46000005 .439 C .46000005 .451 .44700004 .451 .44300003 .451 C .43400003 .451 .431 .449 .426 .441 C .39500005 .395 .374 .38 .35000003 .38 C .338 .38 .323 .381 .29299999 .41 C .259 .444 .237 .451 .214 .451 C .134 .451 .08 .364 .08 .334 C .08 .32500003 .09 .322 .097 .322 C .109 .322 .111 .32500003 .11500001 .336 C .13000001 .37100003 .186 .373 .202 .373 C .22500001 .373 .251 .367 .265 .364 C .32 .352 .32700003 .352 .352 .352 C .32600004 .32500003 .30800004 .307 .21300002 .23100002 C .135 .16900002 .10800001 .14400001 .089 .124000009 C .029 .065000008 0 .021000002 0 .012000001 C 0 0 .012999997 0 .016999998 0 C .027000003 0 .029 .0020000004 .034 .010000001 C .061000006 .048000006 .09200001 .071 .126 .071 C .13800001 .071 .15300001 .07 .18 .045 C .21100001 .015000001 .23100002 0 .263 0 C .37 0 .43700005 .12100001 .43700005 .15500002 C .43700005 .16700001 .426 .16800002 .42000003 .16800002 C .408 .16800002 .40600003 .16300002 .402 .15200001 C .38300003 .102000009 .324 .078 .27500005 .078 C .25200004 .078 .22700002 .083000008 .202 .089 C .156 .099 .148 .099 .13000001 .099 C .128 .099 .113000009 .099 .10700001 .098000008 Z "/>
</symbol>
<use xlink:href="#font_3_3" transform="matrix(6.9738,0,0,-6.9738,27.882403,12.69174)"/>
</svg>
