<?xml version="1.0" encoding="UTF-8" standalone="no"?>
<!DOCTYPE svg PUBLIC "-//W3C//DTD SVG 1.1//EN" "http://www.w3.org/Graphics/SVG/1.1/DTD/svg11.dtd">
<svg xmlns="http://www.w3.org/2000/svg" xmlns:xlink="http://www.w3.org/1999/xlink" version="1.1" width="216.521pt" height="181.418pt" viewBox="0 0 216.521 181.418">
<path transform="matrix(1,0,0,-1,9.686,174.472)" stroke-width="1" stroke-linecap="butt" stroke-miterlimit="10" stroke-linejoin="miter" fill="none" stroke="#bfbfbf" d="M 0 0 L 0 161.3842 M 13.87636 0 L 13.87636 161.3842 M 27.75273 0 L 27.75273 161.3842 M 41.62909 0 L 41.62909 161.3842 M 55.50546 0 L 55.50546 161.3842 M 69.38182 0 L 69.38182 161.3842 M 83.2582 0 L 83.2582 161.3842 M 111.01093 0 L 111.01093 161.3842 M 124.88728 0 L 124.88728 161.3842 M 138.76366 0 L 138.76366 161.3842 M 152.64002 0 L 152.64002 161.3842 M 166.51639 0 L 166.51639 161.3842 M 180.39275 0 L 180.39275 161.3842 M 194.26912 0 L 194.26912 161.3842 "/>
<path transform="matrix(1,0,0,-1,9.686,174.472)" stroke-width="1" stroke-linecap="butt" stroke-miterlimit="10" stroke-linejoin="miter" fill="none" stroke="#bfbfbf" d="M 0 0 L 194.26912 0 M 0 16.13841 L 194.26912 16.13841 M 0 32.27684 L 194.26912 32.27684 M 0 48.41525 L 194.26912 48.41525 M 0 64.55368 L 194.26912 64.55368 M 0 96.83052 L 194.26912 96.83052 M 0 112.96893 L 194.26912 112.96893 M 0 129.10736 L 194.26912 129.10736 M 0 145.24578 L 194.26912 145.24578 M 0 161.3842 L 194.26912 161.3842 "/>
<path transform="matrix(1,0,0,-1,9.686,174.472)" stroke-width="1" stroke-linecap="butt" stroke-miterlimit="10" stroke-linejoin="miter" fill="none" stroke="#808080" d="M 0 78.56621 L 0 82.81796 M 13.87636 78.56621 L 13.87636 82.81796 M 27.75273 78.56621 L 27.75273 82.81796 M 41.62909 78.56621 L 41.62909 82.81796 M 55.50546 78.56621 L 55.50546 82.81796 M 69.38182 78.56621 L 69.38182 82.81796 M 83.2582 78.56621 L 83.2582 82.81796 M 111.01093 78.56621 L 111.01093 82.81796 M 124.88728 78.56621 L 124.88728 82.81796 M 138.76366 78.56621 L 138.76366 82.81796 M 152.64002 78.56621 L 152.64002 82.81796 M 166.51639 78.56621 L 166.51639 82.81796 M 180.39275 78.56621 L 180.39275 82.81796 M 194.26912 78.56621 L 194.26912 82.81796 "/>
<path transform="matrix(1,0,0,-1,9.686,174.472)" stroke-width="1" stroke-linecap="butt" stroke-miterlimit="10" stroke-linejoin="miter" fill="none" stroke="#808080" d="M 95.0086 0 L 99.26048 0 M 95.0086 16.13841 L 99.26048 16.13841 M 95.0086 32.27684 L 99.26048 32.27684 M 95.0086 48.41525 L 99.26048 48.41525 M 95.0086 64.55368 L 99.26048 64.55368 M 95.0086 96.83052 L 99.26048 96.83052 M 95.0086 112.96893 L 99.26048 112.96893 M 95.0086 129.10736 L 99.26048 129.10736 M 95.0086 145.24578 L 99.26048 145.24578 M 95.0086 161.3842 L 99.26048 161.3842 "/>
<path transform="matrix(1,0,0,-1,9.686,174.472)" stroke-width="1" stroke-linecap="butt" stroke-miterlimit="10" stroke-linejoin="miter" fill="none" stroke="#000000" d="M 0 80.6921 L 192.2766 80.6921 "/>
<path transform="matrix(1,0,0,-1,201.9626,93.7799)" d="M 1.99252 0 L -1.19551 1.59401 L 0 0 L -1.19551 -1.59401 "/>
<path transform="matrix(1,0,0,-1,9.686,174.472)" stroke-width="1" stroke-linecap="butt" stroke-miterlimit="10" stroke-linejoin="miter" fill="none" stroke="#000000" d="M 97.13455 0 L 97.13455 159.39168 "/>
<path transform="matrix(0,-1,-1,-0,106.82055,15.080322)" d="M 1.99252 0 L -1.19551 1.59401 L 0 0 L -1.19551 -1.59401 "/>
<symbol id="font_0_1">
<path d="M .57600006 0 C .59300008 0 .611 0 .611 .019999996 C .611 .040000008 .59300008 .040000008 .57600006 .040000008 L .035000005 .040000008 C .018 .040000008 0 .040000008 0 .019999996 C 0 0 .018 0 .035000005 0 L .57600006 0 Z "/>
</symbol>
<use xlink:href="#font_0_1" transform="matrix(9.9626,0,0,-9.9626,4.147896,103.5556)"/>
<symbol id="font_1_7">
<path d="M .42000003 .63100007 C .42900003 .64300009 .42900003 .64500007 .42900003 .66600009 L .18600002 .66600009 C .064 .66600009 .062000008 .679 .058000007 .6980001 L .033 .6980001 L 0 .49200005 L .024999999 .49200005 C .028000005 .508 .037 .57100006 .050000006 .58300009 C .057000005 .58900007 .13500002 .58900007 .148 .58900007 L .35500003 .58900007 C .344 .573 .26500003 .46400006 .24300003 .43100003 C .153 .29600004 .12000001 .157 .12000001 .055 C .12000001 .045 .12000001 0 .16600001 0 C .21200001 0 .21200001 .045 .21200001 .055 L .21200001 .106000009 C .21200001 .16100002 .21500004 .216 .22300002 .27 C .22700003 .29300005 .24100003 .37900005 .28500004 .44100005 L .42000003 .63100007 Z "/>
</symbol>
<use xlink:href="#font_1_7" transform="matrix(9.9626,0,0,-9.9626,11.626905,106.06618)"/>
<use xlink:href="#font_0_1" transform="matrix(9.9626,0,0,-9.9626,18.023898,103.5556)"/>
<symbol id="font_1_6">
<path d="M .089999999 .35000003 L .089999999 .37400005 C .089999999 .62700006 .21400002 .66300007 .26500003 .66300007 C .28900004 .66300007 .33100004 .65700009 .35300002 .623 C .33800004 .623 .298 .623 .298 .57800009 C .298 .54700008 .32200004 .53200009 .344 .53200009 C .36 .53200009 .39000003 .54100009 .39000003 .58000007 C .39000003 .64000007 .34600003 .688 .263 .688 C .13499999 .688 0 .559 0 .33800004 C 0 .071 .116000007 0 .20900002 0 C .32000003 0 .41500003 .094000007 .41500003 .22600001 C .41500003 .35300005 .32600004 .44900004 .215 .44900004 C .14700002 .44900004 .11000001 .39800004 .089999999 .35000003 M .20900002 .028 C .146 .028 .116000007 .088 .11000001 .103 C .092 .15 .092 .23 .092 .24800001 C .092 .32600004 .124000009 .42600004 .21400002 .42600004 C .23000002 .42600004 .27600003 .42600004 .307 .36400003 C .32500003 .32700003 .32500003 .27600003 .32500003 .22700002 C .32500003 .179 .32500003 .12900001 .30800004 .093 C .27800004 .033000005 .23200003 .028 .20900002 .028 Z "/>
</symbol>
<use xlink:href="#font_1_6" transform="matrix(9.9626,0,0,-9.9626,25.363429,106.06618)"/>
<use xlink:href="#font_0_1" transform="matrix(9.9626,0,0,-9.9626,31.899895,103.5556)"/>
<symbol id="font_1_5">
<path d="M .39900003 .223 C .39900003 .34200005 .317 .44200004 .209 .44200004 C .16100002 .44200004 .118000019 .42600004 .082 .39100004 L .082 .586 C .10200001 .58000007 .135 .573 .16700001 .573 C .29 .573 .36 .66400006 .36 .67700007 C .36 .683 .357 .688 .35 .688 C .349 .688 .347 .688 .342 .68500009 C .322 .67600008 .273 .656 .20600002 .656 C .16600001 .656 .120000008 .66300007 .073 .6840001 C .065 .68700006 .06300001 .68700006 .061000009 .68700006 C .051000004 .68700006 .051000004 .679 .051000004 .66300007 L .051000004 .36700005 C .051000004 .34900005 .051000004 .34100003 .065 .34100003 C .07200001 .34100003 .074 .34400005 .07800001 .35000003 C .08900002 .36600004 .12600002 .42000006 .207 .42000006 C .259 .42000006 .284 .37400005 .292 .35600005 C .308 .31900005 .31 .28000004 .31 .23 C .31 .19500001 .31 .135 .286 .093 C .262 .054000006 .22500001 .028 .17900002 .028 C .106000009 .028 .049000008 .08100001 .032 .14000002 C .035 .13900002 .038000008 .13800001 .049000008 .13800001 C .082 .13800001 .09900001 .163 .09900001 .187 C .09900001 .21100001 .082 .23600002 .049000008 .23600002 C .035 .23600002 0 .22900002 0 .18300002 C 0 .097 .069000009 0 .18100001 0 C .297 0 .39900003 .096 .39900003 .223 Z "/>
</symbol>
<use xlink:href="#font_1_5" transform="matrix(9.9626,0,0,-9.9626,39.32013,106.06618)"/>
<use xlink:href="#font_0_1" transform="matrix(9.9626,0,0,-9.9626,45.775899,103.5556)"/>
<symbol id="font_1_4">
<path d="M .266 .165 L .266 .078 C .266 .042000005 .26400004 .031000002 .19000001 .031000002 L .16900002 .031000002 L .16900002 0 C .21000001 .003 .26200003 .003 .30400003 .003 C .34600003 .003 .39900003 .003 .44000004 0 L .44000004 .031000002 L .41900004 .031000002 C .34500004 .031000002 .34300003 .042000005 .34300003 .078 L .34300003 .165 L .44300003 .165 L .44300003 .19600001 L .34300003 .19600001 L .34300003 .651 C .34300003 .671 .34300003 .67700007 .32700003 .67700007 C .31800003 .67700007 .31500004 .67700007 .307 .665 L 0 .19600001 L 0 .165 L .266 .165 M .272 .19600001 L .028 .19600001 L .272 .569 L .272 .19600001 Z "/>
</symbol>
<use xlink:href="#font_1_4" transform="matrix(9.9626,0,0,-9.9626,52.976957,105.847)"/>
<use xlink:href="#font_0_1" transform="matrix(9.9626,0,0,-9.9626,59.651899,103.5556)"/>
<symbol id="font_1_3">
<path d="M .24800003 .37400005 C .33 .40100003 .388 .47100006 .388 .55 C .388 .632 .3 .688 .204 .688 C .10300001 .688 .027000003 .628 .027000003 .55200007 C .027000003 .519 .049000004 .5 .078 .5 C .109000008 .5 .12900001 .522 .12900001 .55100008 C .12900001 .6010001 .082 .6010001 .067 .6010001 C .098 .65000006 .164 .66300007 .20000002 .66300007 C .24100003 .66300007 .29600004 .64100006 .29600004 .55100008 C .29600004 .53900006 .29400004 .48100005 .268 .43700005 C .238 .38900004 .204 .38600005 .17900002 .38500003 C .171 .38400004 .14700002 .38200004 .14000002 .38200004 C .132 .38100005 .125 .38000003 .125 .37000004 C .125 .35900004 .132 .35900004 .14900002 .35900004 L .19300002 .35900004 C .275 .35900004 .312 .29100005 .312 .193 C .312 .057000005 .24300003 .028 .199 .028 C .15600002 .028 .081 .045 .046000005 .104 C .081 .09900001 .11200001 .12100001 .11200001 .15900001 C .11200001 .19500001 .085 .215 .056 .215 C .031999999 .215 0 .201 0 .157 C 0 .06600001 .093 0 .20200002 0 C .32400004 0 .41500003 .091000009 .41500003 .193 C .41500003 .27500005 .35200004 .35300005 .24800003 .37400005 Z "/>
</symbol>
<use xlink:href="#font_1_3" transform="matrix(9.9626,0,0,-9.9626,66.992427,106.06618)"/>
<use xlink:href="#font_0_1" transform="matrix(9.9626,0,0,-9.9626,73.52789,103.5556)"/>
<symbol id="font_1_2">
<path d="M .07700001 .07700001 L .18300002 .18 C .33900003 .31800003 .39900003 .372 .39900003 .47200004 C .39900003 .586 .30900003 .666 .18700002 .666 C .074 .666 0 .574 0 .485 C 0 .42900003 .05 .42900003 .053000008 .42900003 C .07000001 .42900003 .105000007 .441 .105000007 .48200003 C .105000007 .508 .08700001 .53400006 .052000006 .53400006 C .044000005 .53400006 .042000008 .53400006 .039 .53300008 C .062000004 .59800007 .11600001 .63500007 .17400001 .63500007 C .26500003 .63500007 .308 .554 .308 .47200004 C .308 .39200003 .25800003 .31300003 .20300003 .25100003 L .011000004 .037 C 0 .026 0 .024 0 0 L .37100003 0 L .39900003 .17400001 L .374 .17400001 C .36900003 .14400001 .36200003 .1 .352 .085 C .345 .07700001 .279 .07700001 .257 .07700001 L .07700001 .07700001 Z "/>
</symbol>
<use xlink:href="#font_1_2" transform="matrix(9.9626,0,0,-9.9626,80.94813,105.847)"/>
<use xlink:href="#font_0_1" transform="matrix(9.9626,0,0,-9.9626,87.40489,103.5556)"/>
<symbol id="font_1_1">
<path d="M .205 .64000007 C .205 .66400006 .205 .666 .18200003 .666 C .120000008 .60200008 .032000007 .60200008 0 .60200008 L 0 .57100006 C .020000004 .57100006 .07900001 .57100006 .13100001 .597 L .13100001 .079 C .13100001 .043 .128 .031000002 .038000004 .031000002 L .0060000049 .031000002 L .0060000049 0 C .04100001 .003 .128 .003 .168 .003 C .20800002 .003 .29500003 .003 .33000005 0 L .33000005 .031000002 L .29800005 .031000002 C .20800002 .031000002 .205 .042000005 .205 .079 L .205 .64000007 Z "/>
</symbol>
<use xlink:href="#font_1_1" transform="matrix(9.9626,0,0,-9.9626,95.21267,105.847)"/>
<use xlink:href="#font_1_1" transform="matrix(9.9626,0,0,-9.9626,119.09067,105.847)"/>
<use xlink:href="#font_1_2" transform="matrix(9.9626,0,0,-9.9626,132.57912,105.847)"/>
<use xlink:href="#font_1_3" transform="matrix(9.9626,0,0,-9.9626,146.37543,106.06618)"/>
<use xlink:href="#font_1_4" transform="matrix(9.9626,0,0,-9.9626,160.11196,105.847)"/>
<use xlink:href="#font_1_5" transform="matrix(9.9626,0,0,-9.9626,174.20713,106.06618)"/>
<use xlink:href="#font_1_6" transform="matrix(9.9626,0,0,-9.9626,188.00344,106.06618)"/>
<use xlink:href="#font_1_7" transform="matrix(9.9626,0,0,-9.9626,202.01992,106.06618)"/>
<use xlink:href="#font_0_1" transform="matrix(9.9626,0,0,-9.9626,89.2699,174.9756)"/>
<use xlink:href="#font_1_5" transform="matrix(9.9626,0,0,-9.9626,96.69013,177.48618)"/>
<use xlink:href="#font_0_1" transform="matrix(9.9626,0,0,-9.9626,89.2699,158.8376)"/>
<use xlink:href="#font_1_4" transform="matrix(9.9626,0,0,-9.9626,96.470958,161.129)"/>
<use xlink:href="#font_0_1" transform="matrix(9.9626,0,0,-9.9626,89.2699,142.6996)"/>
<use xlink:href="#font_1_3" transform="matrix(9.9626,0,0,-9.9626,96.61043,145.21018)"/>
<use xlink:href="#font_0_1" transform="matrix(9.9626,0,0,-9.9626,89.2699,126.5616)"/>
<use xlink:href="#font_1_2" transform="matrix(9.9626,0,0,-9.9626,96.69013,128.853)"/>
<use xlink:href="#font_0_1" transform="matrix(9.9626,0,0,-9.9626,89.2699,110.4226)"/>
<use xlink:href="#font_1_1" transform="matrix(9.9626,0,0,-9.9626,97.078678,112.714)"/>
<use xlink:href="#font_1_1" transform="matrix(9.9626,0,0,-9.9626,97.07867,80.853)"/>
<use xlink:href="#font_1_2" transform="matrix(9.9626,0,0,-9.9626,96.690128,64.715)"/>
<use xlink:href="#font_1_3" transform="matrix(9.9626,0,0,-9.9626,96.61042,48.796175)"/>
<use xlink:href="#font_1_4" transform="matrix(9.9626,0,0,-9.9626,96.47095,32.438005)"/>
<use xlink:href="#font_1_5" transform="matrix(9.9626,0,0,-9.9626,96.690128,16.51918)"/>
<path transform="matrix(1,0,0,-1,9.686,174.472)" stroke-width="1.59404" stroke-linecap="butt" stroke-miterlimit="10" stroke-linejoin="miter" fill="none" stroke="#000080" d="M 180.39275 129.10736 C 180.39275 129.10736 62.8076 156.44165 41.62909 145.24578 C 20.45058 134.0499 16.20082 66.32866 27.75273 48.41525 C 39.30463 30.50185 124.88728 16.13841 124.88728 16.13841 "/>
<symbol id="font_2_1">
<path d="M .14400001 .115 C .10400002 .048 .065 .034 .021000002 .031000002 C .009000003 .030000002 0 .030000002 0 .011000001 C 0 .0050000005 .0050000029 0 .013 0 C .040000004 0 .07100001 .003 .09900001 .003 C .13200002 .003 .16700001 0 .19900002 0 C .20500002 0 .21800003 0 .21800003 .019000002 C .21800003 .030000002 .20900002 .031000002 .20200002 .031000002 C .17900002 .033 .15500002 .041 .15500002 .066 C .15500002 .078 .16100002 .089 .16900002 .10300001 L .245 .231 L .49600003 .231 C .49800007 .21000001 .512 .074 .512 .064 C .512 .034 .46000005 .031000002 .44000004 .031000002 C .42600004 .031000002 .41600005 .031000002 .41600005 .011000001 C .41600005 0 .42800004 0 .43000005 0 C .47100006 0 .514 .003 .555 .003 C .58 .003 .643 0 .668 0 C .674 0 .686 0 .686 .020000002 C .686 .031000002 .676 .031000002 .663 .031000002 C .601 .031000002 .601 .038000004 .598 .067 L .537 .69200006 C .535 .712 .535 .716 .518 .716 C .502 .716 .49800007 .70900008 .492 .69900009 L .14400001 .115 M .26400004 .26200003 L .46100004 .592 L .493 .26200003 L .26400004 .26200003 Z "/>
</symbol>
<use xlink:href="#font_2_1" transform="matrix(9.9626,0,0,-9.9626,138.4397,161.738)"/>
<symbol id="font_2_2">
<path d="M .11800001 .078 C .108 .039 .106 .031000002 .027000003 .031000002 C .009999998 .031000002 0 .031000002 0 .011000001 C 0 0 .009 0 .027000003 0 L .38400004 0 C .54200008 0 .66 .11800001 .66 .216 C .66 .28800003 .60200008 .34600003 .50500008 .35700003 C .609 .37600003 .71400007 .45000003 .71400007 .545 C .71400007 .619 .64800009 .683 .52800008 .683 L .192 .683 C .17300001 .683 .16300002 .683 .16300002 .66300007 C .16300002 .652 .17200002 .652 .19100002 .652 C .19300002 .652 .21200001 .652 .22900003 .65000006 C .24700001 .648 .256 .647 .256 .634 C .256 .63000008 .25500003 .62700006 .252 .615 L .11800001 .078 M .26900003 .36600004 L .33100004 .614 C .34000004 .64900007 .342 .652 .38500003 .652 L .51400008 .652 C .60200008 .652 .623 .59300008 .623 .549 C .623 .46100004 .53700008 .36600004 .41500003 .36600004 L .26900003 .36600004 M .224 .031000002 C .21000001 .031000002 .208 .031000002 .20200002 .032 C .192 .033 .18900001 .034 .18900001 .042000005 C .18900001 .045 .18900001 .047000003 .194 .065000008 L .263 .344 L .45200003 .344 C .54800006 .344 .56700006 .27 .56700006 .22700002 C .56700006 .128 .47800005 .031000002 .36 .031000002 L .224 .031000002 Z "/>
</symbol>
<use xlink:href="#font_2_2" transform="matrix(9.9626,0,0,-9.9626,194.01444,48.770006)"/>
<path transform="matrix(1,0,0,-1,9.686,174.472)" d="M 126.87984 16.13841 C 126.87984 17.23888 125.98776 18.13097 124.88728 18.13097 C 123.78682 18.13097 122.89473 17.23888 122.89473 16.13841 C 122.89473 15.03795 123.78682 14.14586 124.88728 14.14586 C 125.98776 14.14586 126.87984 15.03795 126.87984 16.13841 Z M 124.88728 16.13841 " fill="#000080"/>
<path transform="matrix(1,0,0,-1,9.686,174.472)" stroke-width="1" stroke-linecap="butt" stroke-miterlimit="10" stroke-linejoin="miter" fill="none" stroke="#000080" d="M 126.87984 16.13841 C 126.87984 17.23888 125.98776 18.13097 124.88728 18.13097 C 123.78682 18.13097 122.89473 17.23888 122.89473 16.13841 C 122.89473 15.03795 123.78682 14.14586 124.88728 14.14586 C 125.98776 14.14586 126.87984 15.03795 126.87984 16.13841 Z M 124.88728 16.13841 "/>
<path transform="matrix(1,0,0,-1,9.686,174.472)" d="M 182.3853 129.10736 C 182.3853 130.20783 181.49323 131.09992 180.39275 131.09992 C 179.29228 131.09992 178.40019 130.20783 178.40019 129.10736 C 178.40019 128.00688 179.29228 127.1148 180.39275 127.1148 C 181.49323 127.1148 182.3853 128.00688 182.3853 129.10736 Z M 180.39275 129.10736 " fill="#000080"/>
<path transform="matrix(1,0,0,-1,9.686,174.472)" stroke-width="1" stroke-linecap="butt" stroke-miterlimit="10" stroke-linejoin="miter" fill="none" stroke="#000080" d="M 182.3853 129.10736 C 182.3853 130.20783 181.49323 131.09992 180.39275 131.09992 C 179.29228 131.09992 178.40019 130.20783 178.40019 129.10736 C 178.40019 128.00688 179.29228 127.1148 180.39275 127.1148 C 181.49323 127.1148 182.3853 128.00688 182.3853 129.10736 Z M 180.39275 129.10736 "/>
<symbol id="font_2_3">
<path d="M .305 .31300003 C .311 .33900003 .334 .43100003 .404 .43100003 C .409 .43100003 .433 .43100003 .454 .418 C .426 .41300003 .40600003 .388 .40600003 .36400003 C .40600003 .34800003 .417 .32900004 .444 .32900004 C .46600003 .32900004 .498 .34700004 .498 .38700003 C .498 .43900005 .439 .45300005 .405 .45300005 C .347 .45300005 .312 .40000005 .3 .37700004 C .275 .44300003 .221 .45300005 .19200002 .45300005 C .08800001 .45300005 .031000002 .32400004 .031000002 .29900003 C .031000002 .28900004 .041 .28900004 .043000007 .28900004 C .051000008 .28900004 .054000006 .291 .056 .3 C .09 .40600003 .156 .43100003 .19000001 .43100003 C .209 .43100003 .244 .42200003 .244 .36400003 C .244 .33300004 .22700002 .26600004 .19000001 .126 C .17400001 .064 .13900002 .022000002 .095000009 .022000002 C .08900001 .022000002 .06600001 .022000002 .045 .035 C .07000001 .040000004 .09200001 .061 .09200001 .089 C .09200001 .116000007 .07000001 .124000009 .055000009 .124000009 C .025 .124000009 0 .098000008 0 .06600001 C 0 .020000002 .050000006 0 .094000007 0 C .16000001 0 .19600001 .07000001 .19900002 .076000008 C .21100001 .039 .24700003 0 .307 0 C .41 0 .467 .12900001 .467 .15400002 C .467 .16400002 .458 .16400002 .455 .16400002 C .446 .16400002 .444 .16000001 .442 .15300001 C .409 .046 .341 .022000002 .30900003 .022000002 C .27 .022000002 .254 .054 .254 .08800001 C .254 .11000001 .26 .13200002 .271 .17600002 L .305 .31300003 Z "/>
</symbol>
<use xlink:href="#font_2_3" transform="matrix(9.9626,0,0,-9.9626,207.79592,96.02159)"/>
<symbol id="font_2_4">
<path d="M .45700003 .586 C .461 .6 .461 .602 .461 .609 C .461 .62700006 .447 .63600006 .432 .63600006 C .42200003 .63600006 .40600003 .63 .397 .615 C .395 .61 .387 .579 .38300003 .561 C .37600003 .535 .36900003 .508 .363 .48100005 L .318 .301 C .314 .286 .271 .21600002 .20500002 .21600002 C .15400002 .21600002 .143 .26000003 .143 .29700003 C .143 .34300003 .16000001 .40500004 .194 .49300004 C .21000001 .53400006 .21400002 .545 .21400002 .56500008 C .21400002 .61 .18200001 .6470001 .13200002 .6470001 C .037 .6470001 0 .50200006 0 .49300004 C 0 .48300005 .01 .48300005 .012 .48300005 C .022000002 .48300005 .023 .485 .028000003 .50100007 C .055000009 .595 .095000009 .625 .12900001 .625 C .13700001 .625 .15400002 .625 .15400002 .59300008 C .15400002 .568 .14400001 .54200008 .13700001 .523 C .097 .41700004 .079 .36 .079 .31300003 C .079 .224 .142 .194 .201 .194 C .24000003 .194 .274 .21100001 .30200003 .23900002 C .289 .187 .277 .13800001 .237 .08500001 C .21100001 .051 .17300001 .022 .127 .022 C .113000009 .022 .068 .025000006 .051000008 .06400001 C .067 .06400001 .080000009 .06400001 .094000007 .076000008 C .104 .08500001 .11400001 .098000008 .11400001 .117000009 C .11400001 .148 .087000008 .15200001 .07700001 .15200001 C .054000006 .15200001 .021 .136 .021 .087000008 C .021 .037 .065000008 0 .127 0 C .23 0 .333 .091000009 .361 .20400001 L .45700003 .586 Z "/>
</symbol>
<use xlink:href="#font_2_4" transform="matrix(9.9626,0,0,-9.9626,104.50891,9.652334)"/>
</svg>
