<?xml version="1.0" encoding="UTF-8" standalone="no"?>
<!DOCTYPE svg PUBLIC "-//W3C//DTD SVG 1.1//EN" "http://www.w3.org/Graphics/SVG/1.1/DTD/svg11.dtd">
<svg xmlns="http://www.w3.org/2000/svg" xmlns:xlink="http://www.w3.org/1999/xlink" version="1.1" width="256.712pt" height="80.964pt" viewBox="0 0 256.712 80.964">
<path transform="matrix(1,0,0,-1,.797,80.167)" stroke-width="1" stroke-linecap="butt" stroke-miterlimit="10" stroke-linejoin="miter" fill="none" stroke="#000000" d="M 0 0 L 28.3468 0 M 0 19.84268 L 28.3468 19.84268 M 0 39.68536 L 28.3468 39.68536 M 0 59.52805 L 28.3468 59.52805 M 0 79.36078 L 28.3468 79.36078 M 0 0 L 0 79.37074 M 28.33684 0 L 28.33684 79.37074 "/>
<path transform="matrix(1,0,0,-1,.797,80.167)" stroke-width="1" stroke-linecap="butt" stroke-miterlimit="10" stroke-linejoin="miter" fill="none" stroke="#000000" d="M 85.04042 79.37074 L 85.04042 0 "/>
<path transform="matrix(1,0,0,-1,.797,80.167)" stroke-width="1" stroke-linecap="butt" stroke-miterlimit="10" stroke-linejoin="miter" fill="none" stroke="#000000" d="M 141.73404 79.37074 L 141.73404 0 "/>
<path transform="matrix(1,0,0,-1,.797,80.167)" stroke-width="1" stroke-linecap="butt" stroke-miterlimit="10" stroke-linejoin="miter" fill="none" stroke="#000000" d="M 198.42766 79.37074 L 198.42766 0 "/>
<path transform="matrix(1,0,0,-1,.797,80.167)" stroke-width="1" stroke-linecap="butt" stroke-miterlimit="10" stroke-linejoin="miter" fill="none" stroke="#000000" d="M 255.12128 79.37074 L 255.12128 0 "/>
<path transform="matrix(1,0,0,-1,.797,80.167)" stroke-width="1" stroke-linecap="butt" stroke-miterlimit="10" stroke-linejoin="miter" fill="none" stroke="#000000" d="M 0 0 L 255.12128 0 "/>
<path transform="matrix(1,0,0,-1,.797,80.167)" stroke-width="1" stroke-linecap="butt" stroke-miterlimit="10" stroke-linejoin="miter" fill="none" stroke="#000000" d="M 0 19.84268 L 255.12128 19.84268 "/>
<path transform="matrix(1,0,0,-1,.797,80.167)" stroke-width="1" stroke-linecap="butt" stroke-miterlimit="10" stroke-linejoin="miter" fill="none" stroke="#000000" d="M 0 39.68536 L 255.12128 39.68536 "/>
<path transform="matrix(1,0,0,-1,.797,80.167)" stroke-width="1" stroke-linecap="butt" stroke-miterlimit="10" stroke-linejoin="miter" fill="none" stroke="#000000" d="M 0 59.52805 L 255.12128 59.52805 "/>
<path transform="matrix(1,0,0,-1,.797,80.167)" stroke-width="1" stroke-linecap="butt" stroke-miterlimit="10" stroke-linejoin="miter" fill="none" stroke="#000000" d="M 0 79.37074 L 255.12128 79.37074 "/>
<path transform="matrix(1,0,0,-1,.797,80.167)" stroke-width="1.59404" stroke-linecap="butt" stroke-miterlimit="10" stroke-linejoin="miter" fill="none" stroke="#000000" d="M 0 19.84268 L 255.12128 19.84268 "/>
<path transform="matrix(1,0,0,-1,.797,80.167)" stroke-width="1.59404" stroke-linecap="butt" stroke-miterlimit="10" stroke-linejoin="miter" fill="none" stroke="#000000" d="M 28.3468 79.37074 L 28.3468 0 "/>
<path transform="matrix(1,0,0,-1,.797,80.167)" stroke-width="1" stroke-linecap="butt" stroke-miterlimit="10" stroke-linejoin="miter" fill="none" stroke="#000000" d="M 0 0 L 28.3468 19.84268 "/>
<symbol id="font_0_2">
<path d="M .47300003 .59000006 C .474 .595 .47599999 .6010001 .47599999 .607 C .47599999 .62 .467 .63600006 .44500003 .63600006 C .432 .63600006 .414 .628 .40600003 .609 C .405 .605 .395 .564 .389 .54200008 L .33900003 .342 C .331 .31300003 .331 .31100003 .329 .30200003 C .328 .298 .286 .21900001 .21400002 .21900001 C .15200001 .21900001 .15200001 .282 .15200001 .301 C .15200001 .34600003 .165 .39500005 .20800002 .507 C .216 .53000006 .22200002 .544 .22200002 .563 C .22200002 .612 .18500002 .6470001 .136 .6470001 C .040000008 .6470001 0 .505 0 .49300004 C 0 .48400004 .007000001 .48100005 .014 .48100005 C .025 .48100005 .026000003 .48700003 .030000003 .5 C .051000008 .574 .091000009 .62200006 .133 .62200006 C .157 .62200006 .157 .60300007 .157 .589 C .157 .572 .15300001 .554 .14400001 .53000006 C .097 .40600003 .08400001 .36400003 .08400001 .316 C .08400001 .20500002 .17400001 .194 .21100001 .194 C .26 .194 .295 .22000002 .313 .238 C .3 .187 .289 .14200002 .25 .09200001 C .22000002 .052 .18 .025000006 .136 .025000006 C .10800001 .025000006 .075 .03500001 .061000006 .06300001 C .11400001 .06300001 .12100001 .10700001 .12100001 .117000009 C .12100001 .13900002 .105000007 .15300001 .083000008 .15300001 C .059000009 .15300001 .027 .134 .027 .08800001 C .027 .036 .07300001 0 .136 0 C .23800002 0 .347 .087000008 .37600003 .20400001 L .47300003 .59000006 Z "/>
</symbol>
<use xlink:href="#font_0_2" transform="matrix(8.9664,0,0,-8.9664,5.0870258,69.20311)"/>
<symbol id="font_0_1">
<path d="M .462 .41500003 C .425 .40800003 .41400004 .37600003 .41400004 .36100004 C .41400004 .34200005 .42800004 .32500003 .453 .32500003 C .48100005 .32500003 .508 .34900005 .508 .38400004 C .508 .43000005 .45800004 .45300005 .411 .45300005 C .351 .45300005 .316 .40000005 .30400003 .37900005 C .28500004 .42800004 .24100003 .45300005 .193 .45300005 C .086 .45300005 .028 .32500003 .028 .29900003 C .028 .29000003 .035000005 .28700004 .042000005 .28700004 C .051 .28700004 .054000006 .29200004 .056 .298 C .087000008 .397 .15300001 .42800004 .19100002 .42800004 C .22 .42800004 .24600002 .40900005 .24600002 .36200003 C .24600002 .32600004 .20300001 .16600001 .19000001 .11800001 C .18200001 .087000008 .15200001 .025000003 .097 .025000003 C .07700001 .025000003 .056 .032 .046000005 .038000004 C .07300001 .043 .093 .06600001 .093 .092 C .093 .117000009 .074 .128 .055 .128 C .026 .128 0 .10300001 0 .069000009 C 0 .020000002 .054000006 0 .096 0 C .15400002 0 .18800001 .048 .20300001 .075 C .22800002 .009000001 .287 0 .314 0 C .42200003 0 .479 .13000001 .479 .15400002 C .479 .15900001 .47600005 .16600001 .46600003 .16600001 C .455 .16600001 .45400004 .16200002 .44900004 .14700002 C .42700003 .075 .36900003 .025000003 .317 .025000003 C .28800003 .025000003 .261 .043 .261 .091000009 C .261 .113000009 .275 .16800002 .284 .20600002 C .28800003 .22400002 .31500004 .33200003 .317 .33900003 C .32900004 .37500004 .35900004 .42800004 .41000004 .42800004 C .42800004 .42800004 .44700004 .42500005 .462 .41500003 Z "/>
</symbol>
<use xlink:href="#font_0_1" transform="matrix(8.9664,0,0,-8.9664,20.158993,77.08563)"/>
<symbol id="font_1_1">
<path d="M .57600006 0 C .59300008 0 .611 0 .611 .019999996 C .611 .040000008 .59300008 .040000008 .57600006 .040000008 L .035000005 .040000008 C .018 .040000008 0 .040000008 0 .019999996 C 0 0 .018 0 .035000005 0 L .57600006 0 Z "/>
</symbol>
<use xlink:href="#font_1_1" transform="matrix(9.9626,0,0,-9.9626,51.951898,70.7496)"/>
<symbol id="font_2_4">
<path d="M .07700001 .07700001 L .18300002 .18 C .33900003 .31800003 .39900003 .372 .39900003 .47200004 C .39900003 .586 .30900003 .666 .18700002 .666 C .074 .666 0 .574 0 .485 C 0 .42900003 .05 .42900003 .053000008 .42900003 C .07000001 .42900003 .105000007 .441 .105000007 .48200003 C .105000007 .508 .08700001 .53400006 .052000006 .53400006 C .044000005 .53400006 .042000008 .53400006 .039 .53300008 C .062000004 .59800007 .11600001 .63500007 .17400001 .63500007 C .26500003 .63500007 .308 .554 .308 .47200004 C .308 .39200003 .25800003 .31300003 .20300003 .25100003 L .011000004 .037 C 0 .026 0 .024 0 0 L .37100003 0 L .39900003 .17400001 L .374 .17400001 C .36900003 .14400001 .36200003 .1 .352 .085 C .345 .07700001 .279 .07700001 .257 .07700001 L .07700001 .07700001 Z "/>
</symbol>
<use xlink:href="#font_2_4" transform="matrix(9.9626,0,0,-9.9626,59.37213,73.041)"/>
<use xlink:href="#font_1_1" transform="matrix(9.9626,0,0,-9.9626,108.6449,70.7496)"/>
<symbol id="font_2_3">
<path d="M .205 .64000007 C .205 .66400006 .205 .666 .18200003 .666 C .120000008 .60200008 .032000007 .60200008 0 .60200008 L 0 .57100006 C .020000004 .57100006 .07900001 .57100006 .13100001 .597 L .13100001 .079 C .13100001 .043 .128 .031000002 .038000004 .031000002 L .0060000049 .031000002 L .0060000049 0 C .04100001 .003 .128 .003 .168 .003 C .20800002 .003 .29500003 .003 .33000005 0 L .33000005 .031000002 L .29800005 .031000002 C .20800002 .031000002 .205 .042000005 .205 .079 L .205 .64000007 Z "/>
</symbol>
<use xlink:href="#font_2_3" transform="matrix(9.9626,0,0,-9.9626,116.453678,73.041)"/>
<symbol id="font_2_2">
<path d="M .421 .34200005 C .421 .42200003 .416 .50200006 .381 .57600006 C .335 .67200008 .25300003 .688 .211 .688 C .15100001 .688 .07800001 .66200008 .037000006 .56900009 C .0050000029 .5 0 .42200003 0 .34200005 C 0 .26700003 .0040000008 .177 .045000007 .101 C .088 .020000002 .161 0 .21000001 0 C .264 0 .34 .021000002 .384 .116000007 C .416 .185 .421 .263 .421 .34200005 M .21000001 .022000002 C .171 .022000002 .112 .047000003 .094 .143 C .083000008 .20300001 .083000008 .29500003 .083000008 .35400004 C .083000008 .41800005 .083000008 .48400004 .091000009 .53800007 C .11 .65700009 .185 .66600009 .21000001 .66600009 C .243 .66600009 .30900003 .64800009 .328 .549 C .338 .49300004 .338 .41700004 .338 .35400004 C .338 .279 .338 .21100001 .32700003 .147 C .312 .052 .255 .022000002 .21000001 .022000002 Z "/>
</symbol>
<use xlink:href="#font_2_2" transform="matrix(9.9626,0,0,-9.9626,168.77353,73.67518)"/>
<use xlink:href="#font_2_3" transform="matrix(9.9626,0,0,-9.9626,225.96468,73.456)"/>
<use xlink:href="#font_1_1" transform="matrix(9.9626,0,0,-9.9626,9.431896,50.9066)"/>
<use xlink:href="#font_2_3" transform="matrix(9.9626,0,0,-9.9626,17.240672,53.197999)"/>
<use xlink:href="#font_2_2" transform="matrix(9.9626,0,0,-9.9626,12.868541,33.99018)"/>
<use xlink:href="#font_2_3" transform="matrix(9.9626,0,0,-9.9626,13.366671,13.929001)"/>
<use xlink:href="#font_1_1" transform="matrix(9.9626,0,0,-9.9626,39.2259,50.6026)"/>
<use xlink:href="#font_2_4" transform="matrix(9.9626,0,0,-9.9626,46.646135,52.893999)"/>
<symbol id="font_3_2">
<path d="M .15699999 .16499996 L 0 .038999976 L .027999998 0 L .15699999 .083000008 L .286 .0009999871 L .314 .037999989 L .15699999 .16499996 Z "/>
</symbol>
<use xlink:href="#font_3_2" transform="matrix(9.9626,0,0,-9.9626,51.83914,47.623785)"/>
<symbol id="font_4_1">
<path d="M .32700003 .156 C .32700003 .17 .312 .17 .303 .17 C .291 .17 .284 .17 .28 .157 C .24900002 .052000006 .198 .036000004 .177 .036000004 C .16700001 .036000004 .161 .039 .161 .058000003 C .161 .08100001 .17 .10300001 .194 .163 L .261 .336 C .266 .349 .26900003 .361 .26900003 .37 C .26900003 .423 .21700001 .46 .155 .46 C .051000004 .46 0 .326 0 .304 C 0 .29 .015000001 .29 .024 .29 C .036000004 .29 .043 .29 .047000003 .303 C .07800001 .408 .12900001 .424 .15 .424 C .16 .424 .16600001 .421 .16600001 .402 C .16600001 .379 .157 .357 .133 .297 L .066 .124000009 C .061 .11100001 .058000003 .09900001 .058000003 .09 C .058000003 .037 .11 0 .172 0 C .27600003 0 .32700003 .134 .32700003 .156 Z "/>
</symbol>
<use xlink:href="#font_4_1" transform="matrix(9.9626,0,0,-9.9626,51.448804,52.973699)"/>
<symbol id="font_2_1">
<path d="M .35300002 .31300003 L .632 .31300003 C .646 .31300003 .665 .31300003 .665 .333 C .665 .35300002 .646 .35300002 .632 .35300002 L .35300002 .35300002 L .35300002 .633 C .35300002 .647 .35300002 .666 .33300004 .666 C .31300003 .666 .31300003 .647 .31300003 .633 L .31300003 .35300002 L .033 .35300002 C .019000002 .35300002 0 .35300002 0 .333 C 0 .31300003 .019000002 .31300003 .033 .31300003 L .31300003 .31300003 L .31300003 .033000005 C .31300003 .019000002 .31300003 0 .33300004 0 C .35300002 0 .35300002 .019000002 .35300002 .033000005 L .35300002 .31300003 Z "/>
</symbol>
<symbol id="font_2_5">
<path d="M .24800003 .37400005 C .33 .40100003 .388 .47100006 .388 .55 C .388 .632 .3 .688 .204 .688 C .10300001 .688 .027000003 .628 .027000003 .55200007 C .027000003 .519 .049000004 .5 .078 .5 C .109000008 .5 .12900001 .522 .12900001 .55100008 C .12900001 .6010001 .082 .6010001 .067 .6010001 C .098 .65000006 .164 .66300007 .20000002 .66300007 C .24100003 .66300007 .29600004 .64100006 .29600004 .55100008 C .29600004 .53900006 .29400004 .48100005 .268 .43700005 C .238 .38900004 .204 .38600005 .17900002 .38500003 C .171 .38400004 .14700002 .38200004 .14000002 .38200004 C .132 .38100005 .125 .38000003 .125 .37000004 C .125 .35900004 .132 .35900004 .14900002 .35900004 L .19300002 .35900004 C .275 .35900004 .312 .29100005 .312 .193 C .312 .057000005 .24300003 .028 .199 .028 C .15600002 .028 .081 .045 .046000005 .104 C .081 .09900001 .11200001 .12100001 .11200001 .15900001 C .11200001 .19500001 .085 .215 .056 .215 C .031999999 .215 0 .201 0 .157 C 0 .06600001 .093 0 .20200002 0 C .32400004 0 .41500003 .091000009 .41500003 .193 C .41500003 .27500005 .35200004 .35300005 .24800003 .37400005 Z "/>
</symbol>
<use xlink:href="#font_2_1" transform="matrix(9.9626,0,0,-9.9626,57.821908,53.720895)"/>
<use xlink:href="#font_2_5" transform="matrix(9.9626,0,0,-9.9626,67.645038,53.113176)"/>
<use xlink:href="#font_3_2" transform="matrix(9.9626,0,0,-9.9626,73.780139,47.623785)"/>
<symbol id="font_4_2">
<path d="M .42200003 .522 C .425 .53300008 .42700003 .542 .42700003 .556 C .42700003 .62100008 .363 .65400007 .301 .65400007 C .18200001 .65400007 .114 .51500007 .114 .49800004 C .114 .48400004 .12900001 .48400004 .13800001 .48400004 C .155 .48400004 .156 .485 .163 .5 C .201 .586 .25700004 .61800006 .296 .61800006 C .305 .61800006 .32000003 .61800006 .32000003 .58100005 C .32000003 .56200006 .317 .551 .314 .53800007 L .21800001 .157 C .201 .089 .162 .036 .111 .036 C .102000009 .036 .1 .036 .087000008 .038000004 C .119 .060000004 .12100001 .093 .12100001 .098000008 C .12100001 .120000008 .104 .14400001 .071 .14400001 C .034 .14400001 0 .111 0 .072 C 0 .025000006 .048 0 .112 0 C .176 0 .3 .034999998 .33 .156 L .42200003 .522 Z "/>
</symbol>
<use xlink:href="#font_4_2" transform="matrix(9.9626,0,0,-9.9626,72.06852,54.90644)"/>
<use xlink:href="#font_1_1" transform="matrix(9.9626,0,0,-9.9626,98.4099,50.6026)"/>
<use xlink:href="#font_3_2" transform="matrix(9.9626,0,0,-9.9626,106.04114,47.623785)"/>
<use xlink:href="#font_4_1" transform="matrix(9.9626,0,0,-9.9626,105.6508,52.973699)"/>
<use xlink:href="#font_2_1" transform="matrix(9.9626,0,0,-9.9626,112.02391,53.720895)"/>
<use xlink:href="#font_2_5" transform="matrix(9.9626,0,0,-9.9626,121.84703,53.113176)"/>
<use xlink:href="#font_3_2" transform="matrix(9.9626,0,0,-9.9626,127.98214,47.623785)"/>
<use xlink:href="#font_4_2" transform="matrix(9.9626,0,0,-9.9626,126.27053,54.90644)"/>
<use xlink:href="#font_2_4" transform="matrix(9.9626,0,0,-9.9626,166.69712,52.893999)"/>
<use xlink:href="#font_3_2" transform="matrix(9.9626,0,0,-9.9626,172.75212,47.623785)"/>
<use xlink:href="#font_4_2" transform="matrix(9.9626,0,0,-9.9626,171.04051,54.90644)"/>
<use xlink:href="#font_3_2" transform="matrix(9.9626,0,0,-9.9626,215.55214,47.623785)"/>
<use xlink:href="#font_4_1" transform="matrix(9.9626,0,0,-9.9626,215.1618,52.973699)"/>
<use xlink:href="#font_2_1" transform="matrix(9.9626,0,0,-9.9626,221.5359,53.720895)"/>
<use xlink:href="#font_2_4" transform="matrix(9.9626,0,0,-9.9626,231.43872,52.893999)"/>
<use xlink:href="#font_3_2" transform="matrix(9.9626,0,0,-9.9626,237.49314,47.623785)"/>
<use xlink:href="#font_4_2" transform="matrix(9.9626,0,0,-9.9626,235.78153,54.90644)"/>
<use xlink:href="#font_1_1" transform="matrix(9.9626,0,0,-9.9626,41.716897,30.760601)"/>
<use xlink:href="#font_3_2" transform="matrix(9.9626,0,0,-9.9626,49.34814,27.781783)"/>
<use xlink:href="#font_4_1" transform="matrix(9.9626,0,0,-9.9626,48.9578,33.1317)"/>
<use xlink:href="#font_2_1" transform="matrix(9.9626,0,0,-9.9626,55.330907,33.878896)"/>
<use xlink:href="#font_2_4" transform="matrix(9.9626,0,0,-9.9626,65.233737,33.052)"/>
<use xlink:href="#font_3_2" transform="matrix(9.9626,0,0,-9.9626,71.28913,27.781783)"/>
<use xlink:href="#font_4_2" transform="matrix(9.9626,0,0,-9.9626,69.57752,35.06444)"/>
<use xlink:href="#font_3_2" transform="matrix(9.9626,0,0,-9.9626,113.56813,27.781783)"/>
<use xlink:href="#font_4_2" transform="matrix(9.9626,0,0,-9.9626,111.85752,35.06444)"/>
<use xlink:href="#font_1_1" transform="matrix(9.9626,0,0,-9.9626,157.59389,30.760601)"/>
<use xlink:href="#font_3_2" transform="matrix(9.9626,0,0,-9.9626,165.22513,27.781783)"/>
<use xlink:href="#font_4_1" transform="matrix(9.9626,0,0,-9.9626,164.8338,33.1317)"/>
<use xlink:href="#font_2_1" transform="matrix(9.9626,0,0,-9.9626,171.2079,33.878896)"/>
<use xlink:href="#font_3_2" transform="matrix(9.9626,0,0,-9.9626,182.18413,27.781783)"/>
<use xlink:href="#font_4_2" transform="matrix(9.9626,0,0,-9.9626,180.47252,35.06444)"/>
<symbol id="font_5_1">
<path d="M 1.098 0 C 1.12 0 1.1350001 0 1.1350001 .029 C 1.1350001 .039000006 1.1350001 .049999983 1.1220001 .05700001 C 1.067 .083000008 .95300009 .137 .86800006 .28800003 C .85600009 .307 .855 .308 .82900008 .308 C .81200006 .308 .79300007 .308 .79300007 .28599999 C .79300007 .272 .8510001 .15599999 .9560001 .072999987 L .051000008 .072999987 C .036 .072999987 0 .072999987 0 .037 C 0 0 .035000005 0 .051000008 0 L 1.098 0 Z "/>
</symbol>
<use xlink:href="#font_5_1" transform="matrix(6.9738,0,0,-6.9738,223.60593,26.792603)"/>
<symbol id="font_3_1">
<path d="M .48400004 .33 C .48400004 .42700003 .48299999 .666 .242 .666 C .001000002 .666 0 .42800004 0 .33 C 0 .23100002 .001000002 0 .242 0 C .482 0 .48400004 .23000002 .48400004 .33 M .242 .036000004 C .20600002 .036000004 .15 .058000003 .13700001 .13100001 C .128 .18300002 .128 .28700004 .128 .34200005 C .128 .41400004 .128 .47900004 .136 .531 C .148 .62 .21800001 .63 .242 .63 C .27899999 .63 .32 .611 .339 .56700006 C .356 .53000006 .356 .42400003 .356 .34200005 C .356 .286 .356 .19500003 .34900005 .143 C .33500005 .05 .272 .036000004 .242 .036000004 Z "/>
</symbol>
<use xlink:href="#font_3_1" transform="matrix(9.9626,0,0,-9.9626,225.15232,36.807588)"/>
<use xlink:href="#font_1_1" transform="matrix(9.9626,0,0,-9.9626,44.207899,10.917602)"/>
<use xlink:href="#font_3_2" transform="matrix(9.9626,0,0,-9.9626,51.839139,7.938784)"/>
<use xlink:href="#font_4_1" transform="matrix(9.9626,0,0,-9.9626,51.4488,13.2887)"/>
<use xlink:href="#font_1_1" transform="matrix(9.9626,0,0,-9.9626,58.090894,10.917602)"/>
<use xlink:href="#font_3_2" transform="matrix(9.9626,0,0,-9.9626,68.798137,7.938784)"/>
<use xlink:href="#font_4_2" transform="matrix(9.9626,0,0,-9.9626,67.087528,15.221445)"/>
<use xlink:href="#font_3_2" transform="matrix(9.9626,0,0,-9.9626,102.16714,7.938784)"/>
<use xlink:href="#font_4_1" transform="matrix(9.9626,0,0,-9.9626,101.7758,13.2887)"/>
<use xlink:href="#font_1_1" transform="matrix(9.9626,0,0,-9.9626,108.4189,10.917602)"/>
<use xlink:href="#font_2_5" transform="matrix(9.9626,0,0,-9.9626,117.97243,13.428177)"/>
<use xlink:href="#font_3_2" transform="matrix(9.9626,0,0,-9.9626,124.10714,7.938784)"/>
<use xlink:href="#font_4_2" transform="matrix(9.9626,0,0,-9.9626,122.39653,15.221445)"/>
<use xlink:href="#font_1_1" transform="matrix(9.9626,0,0,-9.9626,155.10289,10.917602)"/>
<use xlink:href="#font_3_2" transform="matrix(9.9626,0,0,-9.9626,162.73413,7.938784)"/>
<use xlink:href="#font_4_1" transform="matrix(9.9626,0,0,-9.9626,162.3438,13.2887)"/>
<use xlink:href="#font_2_1" transform="matrix(9.9626,0,0,-9.9626,168.7169,14.035895)"/>
<use xlink:href="#font_2_4" transform="matrix(9.9626,0,0,-9.9626,178.61972,13.209)"/>
<use xlink:href="#font_3_2" transform="matrix(9.9626,0,0,-9.9626,184.67513,7.938784)"/>
<use xlink:href="#font_4_2" transform="matrix(9.9626,0,0,-9.9626,182.96352,15.221445)"/>
<use xlink:href="#font_2_4" transform="matrix(9.9626,0,0,-9.9626,212.85112,13.209)"/>
<use xlink:href="#font_3_2" transform="matrix(9.9626,0,0,-9.9626,218.04314,7.938784)"/>
<use xlink:href="#font_4_1" transform="matrix(9.9626,0,0,-9.9626,217.6528,13.2887)"/>
<use xlink:href="#font_1_1" transform="matrix(9.9626,0,0,-9.9626,224.29489,10.917602)"/>
<use xlink:href="#font_2_5" transform="matrix(9.9626,0,0,-9.9626,233.84943,13.428177)"/>
<use xlink:href="#font_3_2" transform="matrix(9.9626,0,0,-9.9626,239.98413,7.938784)"/>
<use xlink:href="#font_4_2" transform="matrix(9.9626,0,0,-9.9626,238.27252,15.221445)"/>
</svg>
