<?xml version="1.0" encoding="UTF-8" standalone="no"?>
<!DOCTYPE svg PUBLIC "-//W3C//DTD SVG 1.1//EN" "http://www.w3.org/Graphics/SVG/1.1/DTD/svg11.dtd">
<svg xmlns="http://www.w3.org/2000/svg" xmlns:xlink="http://www.w3.org/1999/xlink" version="1.1" width="174.156pt" height="174.677pt" viewBox="0 0 174.156 174.677">
<path transform="matrix(1,0,0,-1,.199,174.478)" stroke-width="1" stroke-linecap="butt" stroke-miterlimit="10" stroke-linejoin="miter" fill="none" stroke="#808080" d="M 30.26044 78.56848 L 30.26044 82.82056 M 131.12862 78.56848 L 131.12862 82.82056 "/>
<path transform="matrix(1,0,0,-1,.199,174.478)" stroke-width="1" stroke-linecap="butt" stroke-miterlimit="10" stroke-linejoin="miter" fill="none" stroke="#808080" d="M 78.56848 30.26044 L 82.82056 30.26044 M 78.56848 131.12862 L 82.82056 131.12862 "/>
<path transform="matrix(1,0,0,-1,.199,174.478)" stroke-width="1" stroke-linecap="butt" stroke-miterlimit="10" stroke-linejoin="miter" fill="none" stroke="#000000" d="M 0 80.69452 L 159.39653 80.69452 "/>
<path transform="matrix(1,0,0,-1,159.59554,93.78348)" d="M 1.99252 0 L -1.19551 1.59401 L 0 0 L -1.19551 -1.59401 "/>
<path transform="matrix(1,0,0,-1,.199,174.478)" stroke-width="1" stroke-linecap="butt" stroke-miterlimit="10" stroke-linejoin="miter" fill="none" stroke="#000000" d="M 80.69452 0 L 80.69452 159.39653 "/>
<path transform="matrix(0,-1,-1,-0,80.89352,15.081467)" d="M 1.99252 0 L -1.19551 1.59401 L 0 0 L -1.19551 -1.59401 "/>
<symbol id="font_0_1">
<path d="M .57600006 0 C .59300008 0 .611 0 .611 .019999996 C .611 .040000008 .59300008 .040000008 .57600006 .040000008 L .035000005 .040000008 C .018 .040000008 0 .040000008 0 .019999996 C 0 0 .018 0 .035000005 0 L .57600006 0 Z "/>
</symbol>
<use xlink:href="#font_0_1" transform="matrix(9.9626,0,0,-9.9626,24.920897,103.5586)"/>
<symbol id="font_1_1">
<path d="M .07700001 .07700001 L .18300002 .18 C .33900003 .31800003 .39900003 .372 .39900003 .47200004 C .39900003 .586 .30900003 .666 .18700002 .666 C .074 .666 0 .574 0 .485 C 0 .42900003 .05 .42900003 .053000008 .42900003 C .07000001 .42900003 .105000007 .441 .105000007 .48200003 C .105000007 .508 .08700001 .53400006 .052000006 .53400006 C .044000005 .53400006 .042000008 .53400006 .039 .53300008 C .062000004 .59800007 .11600001 .63500007 .17400001 .63500007 C .26500003 .63500007 .308 .554 .308 .47200004 C .308 .39200003 .25800003 .31300003 .20300003 .25100003 L .011000004 .037 C 0 .026 0 .024 0 0 L .37100003 0 L .39900003 .17400001 L .374 .17400001 C .36900003 .14400001 .36200003 .1 .352 .085 C .345 .07700001 .279 .07700001 .257 .07700001 L .07700001 .07700001 Z "/>
</symbol>
<use xlink:href="#font_1_1" transform="matrix(9.9626,0,0,-9.9626,32.34113,105.85)"/>
<use xlink:href="#font_1_1" transform="matrix(9.9626,0,0,-9.9626,129.33412,105.85)"/>
<use xlink:href="#font_0_1" transform="matrix(9.9626,0,0,-9.9626,63.3439,144.7216)"/>
<use xlink:href="#font_1_1" transform="matrix(9.9626,0,0,-9.9626,70.76414,147.013)"/>
<use xlink:href="#font_1_1" transform="matrix(9.9626,0,0,-9.9626,70.76413,46.561006)"/>
<clipPath id="cp2">
<path transform="matrix(1,0,0,-1,.199,174.478)" d="M 0 0 L 161.38906 0 L 161.38906 161.38906 L 0 161.38906 Z "/>
</clipPath>
<g clip-path="url(#cp2)">
<path transform="matrix(1,0,0,-1,.199,174.478)" stroke-width="1.19553" stroke-linecap="butt" stroke-miterlimit="10" stroke-linejoin="miter" fill="none" stroke="#000080" d="M 105.91158 80.69452 C 105.91158 80.69452 106.75967 80.67062 107.5716 81.13936 C 108.38351 81.60808 110.54456 82.68536 111.76343 84.07285 C 112.98232 85.46033 115.419 88.5781 116.35646 91.13942 C 117.29393 93.70076 118.62689 98.97264 118.5201 102.53323 C 118.41328 106.09383 117.33598 112.83424 115.58658 116.80179 C 113.83717 120.76935 109.53381 127.62979 105.91158 131.12862 C 102.28932 134.62743 94.7281 139.92624 89.47989 142.01883 C 84.23166 144.11144 74.25298 146.27245 68.086 146.21067 C 61.91904 146.14888 51.09273 144.13484 45.03256 141.5735 C 38.97241 139.01218 29.24983 132.63657 24.40857 127.75027 C 19.56729 122.86398 12.82689 112.88528 10.14001 106.3564 C 7.45314 99.82751 5.0434 87.81558 5.0434 80.69452 C 5.0434 73.57346 7.45314 61.56154 10.14001 55.03264 C 12.82689 48.50374 19.56729 38.52505 24.40857 33.63876 C 29.24983 28.75247 38.97241 22.37686 45.03256 19.81552 C 51.09273 17.2542 61.91904 15.24016 68.086 15.17838 C 74.25298 15.1166 84.23166 17.2776 89.47989 19.37021 C 94.7281 21.4628 102.28932 26.76163 105.91158 30.26044 C 109.53381 33.75925 113.83717 40.61969 115.58658 44.58725 C 117.33598 48.5548 118.41328 55.29521 118.5201 58.8558 C 118.62689 62.4164 117.29393 67.68828 116.35646 70.24962 C 115.419 72.81094 112.98232 75.92871 111.76343 77.3162 C 110.54456 78.70367 108.38351 79.78094 107.5716 80.24968 C 106.75967 80.71843 105.91158 80.69452 105.91158 80.69452 "/>
</g>
<symbol id="font_3_1">
<path d="M .305 .31300003 C .311 .33900003 .334 .43100003 .404 .43100003 C .409 .43100003 .433 .43100003 .454 .418 C .426 .41300003 .40600003 .388 .40600003 .36400003 C .40600003 .34800003 .417 .32900004 .444 .32900004 C .46600003 .32900004 .498 .34700004 .498 .38700003 C .498 .43900005 .439 .45300005 .405 .45300005 C .347 .45300005 .312 .40000005 .3 .37700004 C .275 .44300003 .221 .45300005 .19200002 .45300005 C .08800001 .45300005 .031000002 .32400004 .031000002 .29900003 C .031000002 .28900004 .041 .28900004 .043000007 .28900004 C .051000008 .28900004 .054000006 .291 .056 .3 C .09 .40600003 .156 .43100003 .19000001 .43100003 C .209 .43100003 .244 .42200003 .244 .36400003 C .244 .33300004 .22700002 .26600004 .19000001 .126 C .17400001 .064 .13900002 .022000002 .095000009 .022000002 C .08900001 .022000002 .06600001 .022000002 .045 .035 C .07000001 .040000004 .09200001 .061 .09200001 .089 C .09200001 .116000007 .07000001 .124000009 .055000009 .124000009 C .025 .124000009 0 .098000008 0 .06600001 C 0 .020000002 .050000006 0 .094000007 0 C .16000001 0 .19600001 .07000001 .19900002 .076000008 C .21100001 .039 .24700003 0 .307 0 C .41 0 .467 .12900001 .467 .15400002 C .467 .16400002 .458 .16400002 .455 .16400002 C .446 .16400002 .444 .16000001 .442 .15300001 C .409 .046 .341 .022000002 .30900003 .022000002 C .27 .022000002 .254 .054 .254 .08800001 C .254 .11000001 .26 .13200002 .271 .17600002 L .305 .31300003 Z "/>
</symbol>
<use xlink:href="#font_3_1" transform="matrix(9.9626,0,0,-9.9626,165.43091,96.02059)"/>
<symbol id="font_3_2">
<path d="M .45700003 .586 C .461 .6 .461 .602 .461 .609 C .461 .62700006 .447 .63600006 .432 .63600006 C .42200003 .63600006 .40600003 .63 .397 .615 C .395 .61 .387 .579 .38300003 .561 C .37600003 .535 .36900003 .508 .363 .48100005 L .318 .301 C .314 .286 .271 .21600002 .20500002 .21600002 C .15400002 .21600002 .143 .26000003 .143 .29700003 C .143 .34300003 .16000001 .40500004 .194 .49300004 C .21000001 .53400006 .21400002 .545 .21400002 .56500008 C .21400002 .61 .18200001 .6470001 .13200002 .6470001 C .037 .6470001 0 .50200006 0 .49300004 C 0 .48300005 .01 .48300005 .012 .48300005 C .022000002 .48300005 .023 .485 .028000003 .50100007 C .055000009 .595 .095000009 .625 .12900001 .625 C .13700001 .625 .15400002 .625 .15400002 .59300008 C .15400002 .568 .14400001 .54200008 .13700001 .523 C .097 .41700004 .079 .36 .079 .31300003 C .079 .224 .142 .194 .201 .194 C .24000003 .194 .274 .21100001 .30200003 .23900002 C .289 .187 .277 .13800001 .237 .08500001 C .21100001 .051 .17300001 .022 .127 .022 C .113000009 .022 .068 .025000006 .051000008 .06400001 C .067 .06400001 .080000009 .06400001 .094000007 .076000008 C .104 .08500001 .11400001 .098000008 .11400001 .117000009 C .11400001 .148 .087000008 .15200001 .07700001 .15200001 C .054000006 .15200001 .021 .136 .021 .087000008 C .021 .037 .065000008 0 .127 0 C .23 0 .333 .091000009 .361 .20400001 L .45700003 .586 Z "/>
</symbol>
<use xlink:href="#font_3_2" transform="matrix(9.9626,0,0,-9.9626,78.572917,9.652334)"/>
</svg>
