<?xml version="1.0" encoding="UTF-8" standalone="no"?>
<!DOCTYPE svg PUBLIC "-//W3C//DTD SVG 1.1//EN" "http://www.w3.org/Graphics/SVG/1.1/DTD/svg11.dtd">
<svg xmlns="http://www.w3.org/2000/svg" xmlns:xlink="http://www.w3.org/1999/xlink" version="1.1" width="161.781pt" height="161.781pt" viewBox="0 0 161.781 161.781">
<path transform="matrix(1,0,0,-1,.199,161.582)" stroke-width="1" stroke-linecap="butt" stroke-miterlimit="10" stroke-linejoin="miter" fill="none" stroke="#bfbfbf" d="M 0 0 L 0 161.3842 M 16.13841 0 L 16.13841 161.3842 M 32.27684 0 L 32.27684 161.3842 M 48.41525 0 L 48.41525 161.3842 M 64.55368 0 L 64.55368 161.3842 M 80.6921 0 L 80.6921 161.3842 M 96.83052 0 L 96.83052 161.3842 M 112.96893 0 L 112.96893 161.3842 M 129.10736 0 L 129.10736 161.3842 M 145.24578 0 L 145.24578 161.3842 M 161.3842 0 L 161.3842 161.3842 "/>
<path transform="matrix(1,0,0,-1,.199,161.582)" stroke-width="1" stroke-linecap="butt" stroke-miterlimit="10" stroke-linejoin="miter" fill="none" stroke="#bfbfbf" d="M 0 0 L 161.3842 0 M 0 16.13841 L 161.3842 16.13841 M 0 32.27684 L 161.3842 32.27684 M 0 48.41525 L 161.3842 48.41525 M 0 64.55368 L 161.3842 64.55368 M 0 80.6921 L 161.3842 80.6921 M 0 96.83052 L 161.3842 96.83052 M 0 112.96893 L 161.3842 112.96893 M 0 129.10736 L 161.3842 129.10736 M 0 145.24578 L 161.3842 145.24578 M 0 161.3842 L 161.3842 161.3842 "/>
<path transform="matrix(1,0,0,-1,.199,161.582)" stroke-width="1" stroke-linecap="butt" stroke-miterlimit="10" stroke-linejoin="miter" fill="none" stroke="#000000" d="M 0 0 L 0 161.3842 L 161.3842 161.3842 L 161.3842 0 L 0 0 Z "/>
<path transform="matrix(1,0,0,-1,.199,161.582)" stroke-width="1.19553" stroke-linecap="butt" stroke-miterlimit="10" stroke-linejoin="miter" fill="none" stroke="#000080" d="M 80.6921 80.6921 L 34.53128 126.85304 "/>
<path transform="matrix(-.70715,-.7071,-.7071,.70715,34.7303,34.72896)" d="M 3.18808 0 L -1.91284 2.55046 L 0 0 L -1.91284 -2.55046 " fill="#000080"/>
<path transform="matrix(1,0,0,-1,.199,161.582)" stroke-width="1.19553" stroke-linecap="butt" stroke-miterlimit="10" stroke-linejoin="miter" fill="none" stroke="#800000" d="M 80.6921 80.6921 L 111.53743 142.38289 "/>
<path transform="matrix(.44902,-.898,-.898,-.44902,111.736408,19.199112)" d="M 3.18808 0 L -1.91284 2.55046 L 0 0 L -1.91284 -2.55046 " fill="#800000"/>
<symbol id="font_0_1">
<path d="M 1.098 0 C 1.12 0 1.1350001 0 1.1350001 .029 C 1.1350001 .039000006 1.1350001 .049999983 1.1220001 .05700001 C 1.067 .083000008 .95300009 .137 .86800006 .28800003 C .85600009 .307 .855 .308 .82900008 .308 C .81200006 .308 .79300007 .308 .79300007 .28599999 C .79300007 .272 .8510001 .15599999 .9560001 .072999987 L .051000008 .072999987 C .036 .072999987 0 .072999987 0 .037 C 0 0 .035000005 0 .051000008 0 L 1.098 0 Z "/>
</symbol>
<use xlink:href="#font_0_1" transform="matrix(6.9738,0,0,-6.9738,44.68693,53.911615)" fill="#000080"/>
<symbol id="font_1_1">
<path d="M .48000006 .38000003 C .48600004 .39400003 .49000005 .40100003 .554 .40100003 L .554 .44800005 C .529 .44600005 .5 .44500003 .47500006 .44500003 C .45000003 .44500003 .40500004 .44700004 .38400004 .44800005 L .38400004 .40100003 C .40300004 .40100003 .43200005 .39800004 .43200005 .39000003 C .43200005 .38900004 .43100003 .38700003 .42700003 .37800003 L .31100003 .128 L .18400002 .40100003 L .238 .40100003 L .238 .44800005 C .20500002 .44600005 .115 .44500003 .114 .44500003 C .086 .44500003 .041 .44700004 0 .44800005 L 0 .40100003 L .064 .40100003 L .23900002 .025000003 C .25100003 0 .26400004 0 .277 0 C .29400004 0 .30400003 .003 .314 .024000003 L .48000006 .38000003 Z "/>
</symbol>
<use xlink:href="#font_1_1" transform="matrix(9.9626,0,0,-9.9626,45.80603,61.863859)" fill="#000080"/>
<use xlink:href="#font_0_1" transform="matrix(6.9738,0,0,-6.9738,101.09893,45.842615)" fill="#800000"/>
<symbol id="font_1_2">
<path d="M .7120001 .38000003 C .71700009 .39300005 .7210001 .40100003 .7800001 .40100003 L .7800001 .44800005 C .7570001 .44600005 .72700008 .44500003 .70300009 .44500003 C .67600008 .44500003 .62900009 .44700004 .60700008 .44800005 L .60700008 .40100003 C .61600008 .40100003 .6650001 .40000005 .6650001 .38900004 C .6650001 .38600005 .66200008 .38000003 .6610001 .37700004 L .55600008 .12100001 L .442 .40100003 L .498 .40100003 L .498 .44800005 C .46600003 .44700004 .414 .44500003 .384 .44500003 C .342 .44500003 .3 .44700004 .284 .44800005 L .284 .40100003 L .34300003 .40100003 C .36400003 .351 .36400003 .34900005 .36400003 .34800003 C .36400003 .344 .361 .33800004 .36 .33500005 L .28100003 .143 L .176 .40100003 L .232 .40100003 L .232 .44800005 C .191 .44600005 .15 .44500003 .109000008 .44500003 C .07800001 .44500003 .034 .44700004 0 .44800005 L 0 .40100003 L .059000009 .40100003 L .21200001 .027000003 C .21900001 .01 .223 0 .248 0 C .273 0 .277 .01 .284 .027000003 L .39000003 .286 L .49600003 .027000003 C .503 .01 .507 0 .53200009 0 C .55700007 0 .56100007 .01 .5680001 .027000003 L .7120001 .38000003 Z "/>
</symbol>
<use xlink:href="#font_1_2" transform="matrix(9.9626,0,0,-9.9626,101.094058,53.794858)" fill="#800000"/>
</svg>
