<?xml version="1.0" encoding="UTF-8" standalone="no"?>
<!DOCTYPE svg PUBLIC "-//W3C//DTD SVG 1.1//EN" "http://www.w3.org/Graphics/SVG/1.1/DTD/svg11.dtd">
<svg xmlns="http://www.w3.org/2000/svg" xmlns:xlink="http://www.w3.org/1999/xlink" version="1.1" width="207.191pt" height="174.825pt" viewBox="0 0 207.191 174.825">
<clipPath id="cp0">
<path transform="matrix(1,0,0,-1,.199,174.62599)" d="M 0 0 L 194.26912 0 L 194.26912 161.39073 L 0 161.39073 Z "/>
</clipPath>
<g clip-path="url(#cp0)">
<path transform="matrix(1,0,0,-1,.199,174.62599)" d="M 24.28363 45.67662 L 28.33089 40.81291 L 32.37814 36.37216 L 36.42538 32.35431 L 40.47266 28.75938 L 44.51991 25.58742 L 48.56717 22.83835 L 52.61443 20.51224 L 56.66168 18.60904 L 60.70894 17.12875 L 64.7562 16.07141 L 68.80345 15.43701 L 72.8507 15.22554 L 76.89796 15.43695 L 80.94522 16.07132 L 84.99248 17.12866 L 89.03973 18.60886 L 93.08698 20.51204 L 97.13425 22.8381 L 101.1815 25.5871 L 105.22876 28.75905 L 109.27602 32.35394 L 113.32326 36.37169 L 117.37051 40.81241 L 121.41779 45.67606 L 121.41779 45.67662 L 117.37051 45.67662 L 113.32326 45.67662 L 109.27602 45.67662 L 105.22876 45.67662 L 101.1815 45.67662 L 97.13425 45.67662 L 93.08698 45.67662 L 89.03973 45.67662 L 84.99248 45.67662 L 80.94522 45.67662 L 76.89796 45.67662 L 72.8507 45.67662 L 68.80345 45.67662 L 64.7562 45.67662 L 60.70894 45.67662 L 56.66168 45.67662 L 52.61443 45.67662 L 48.56717 45.67662 L 44.51991 45.67662 L 40.47266 45.67662 L 36.42538 45.67662 L 32.37814 45.67662 L 28.33089 45.67662 L 24.28363 45.67662 Z " fill="#d9b3b3"/>
</g>
<clipPath id="cp1">
<path transform="matrix(1,0,0,-1,.199,174.62599)" d="M 0 0 L 194.26912 0 L 194.26912 161.39073 L 0 161.39073 Z "/>
</clipPath>
<g clip-path="url(#cp1)">
<path transform="matrix(1,0,0,-1,.199,174.62599)" d="M 121.4182 45.67662 L 123.44179 48.26701 L 125.4654 50.96312 L 127.489 53.76509 L 129.51259 56.67267 L 131.5362 59.68594 L 133.5598 62.80498 L 135.5834 66.02975 L 137.60701 69.36034 L 139.6306 72.7966 L 141.6542 76.33855 L 143.67781 79.9862 L 145.7014 83.73962 L 147.72502 87.59888 L 149.74861 91.56375 L 151.77222 95.63435 L 153.79582 99.81068 L 155.81941 104.09273 L 157.84304 108.48067 L 159.86663 112.97418 L 161.89023 117.57343 L 163.91384 122.2784 L 165.93743 127.08907 L 167.96105 132.00569 L 169.98464 137.02782 L 169.98464 45.67662 L 167.96105 45.67662 L 165.93743 45.67662 L 163.91384 45.67662 L 161.89023 45.67662 L 159.86663 45.67662 L 157.84304 45.67662 L 155.81941 45.67662 L 153.79582 45.67662 L 151.77222 45.67662 L 149.74861 45.67662 L 147.72502 45.67662 L 145.7014 45.67662 L 143.67781 45.67662 L 141.6542 45.67662 L 139.6306 45.67662 L 137.60701 45.67662 L 135.5834 45.67662 L 133.5598 45.67662 L 131.5362 45.67662 L 129.51259 45.67662 L 127.489 45.67662 L 125.4654 45.67662 L 123.44179 45.67662 L 121.4182 45.67662 Z " fill="#b3b3d9"/>
</g>
<clipPath id="cp2">
<path transform="matrix(1,0,0,-1,.199,174.62599)" d="M 0 0 L 194.26912 0 L 194.26912 161.39073 L 0 161.39073 Z "/>
</clipPath>
<g clip-path="url(#cp2)">
<path transform="matrix(1,0,0,-1,.199,174.62599)" stroke-width="1.19553" stroke-linecap="butt" stroke-miterlimit="10" stroke-linejoin="miter" fill="none" stroke="#000080" d="M 0 83.74046 C 0 83.74046 5.84831 73.1164 8.0945 69.36084 C 10.34068 65.60529 13.94284 59.95905 16.18903 56.67293 C 18.4352 53.3868 22.03734 48.4934 24.28352 45.67673 C 26.52971 42.86006 30.13187 38.71948 32.37805 36.37225 C 34.62424 34.02501 38.22636 30.63727 40.47255 28.75948 C 42.71873 26.88168 46.32089 24.24675 48.56708 22.83841 C 50.81326 21.43007 54.4154 19.54796 56.66158 18.60907 C 58.90776 17.67018 62.50992 16.5409 64.7561 16.07144 C 67.00229 15.60199 70.60443 15.22556 72.85062 15.22554 C 75.09679 15.22552 78.69894 15.6019 80.94513 16.07132 C 83.19131 16.54074 86.79346 17.67 89.03964 18.60886 C 91.28583 19.54771 94.88797 21.42975 97.13416 22.83806 C 99.38034 24.24637 102.98248 26.88126 105.22867 28.759 C 107.47485 30.63675 111.07698 34.02446 113.32317 36.37164 C 115.56935 38.71883 119.17151 42.85933 121.4177 45.67596 C 123.66388 48.4926 127.26602 53.38593 129.51219 56.67201 C 131.75838 59.9581 135.36054 65.60434 137.60672 69.35988 C 139.8529 73.11543 143.45505 79.51437 145.70124 83.73935 C 147.9474 87.96431 151.54955 95.11612 153.79573 99.81055 C 156.04192 104.50496 159.64408 112.40959 161.89026 117.57343 C 164.13645 122.73727 167.73857 131.3947 169.98476 137.028 C 172.23094 142.66129 175.8331 152.07158 178.07929 158.17436 C 180.32547 164.27713 183.9276 174.4404 186.17378 181.01258 C 188.41997 187.58477 194.2683 205.54209 194.2683 205.54209 "/>
<symbol id="font_3_2">
<path d="M .45700003 .586 C .461 .6 .461 .602 .461 .609 C .461 .62700006 .447 .63600006 .432 .63600006 C .42200003 .63600006 .40600003 .63 .397 .615 C .395 .61 .387 .579 .38300003 .561 C .37600003 .535 .36900003 .508 .363 .48100005 L .318 .301 C .314 .286 .271 .21600002 .20500002 .21600002 C .15400002 .21600002 .143 .26000003 .143 .29700003 C .143 .34300003 .16000001 .40500004 .194 .49300004 C .21000001 .53400006 .21400002 .545 .21400002 .56500008 C .21400002 .61 .18200001 .6470001 .13200002 .6470001 C .037 .6470001 0 .50200006 0 .49300004 C 0 .48300005 .01 .48300005 .012 .48300005 C .022000002 .48300005 .023 .485 .028000003 .50100007 C .055000009 .595 .095000009 .625 .12900001 .625 C .13700001 .625 .15400002 .625 .15400002 .59300008 C .15400002 .568 .14400001 .54200008 .13700001 .523 C .097 .41700004 .079 .36 .079 .31300003 C .079 .224 .142 .194 .201 .194 C .24000003 .194 .274 .21100001 .30200003 .23900002 C .289 .187 .277 .13800001 .237 .08500001 C .21100001 .051 .17300001 .022 .127 .022 C .113000009 .022 .068 .025000006 .051000008 .06400001 C .067 .06400001 .080000009 .06400001 .094000007 .076000008 C .104 .08500001 .11400001 .098000008 .11400001 .117000009 C .11400001 .148 .087000008 .15200001 .07700001 .15200001 C .054000006 .15200001 .021 .136 .021 .087000008 C .021 .037 .065000008 0 .127 0 C .23 0 .333 .091000009 .361 .20400001 L .45700003 .586 Z "/>
</symbol>
<use xlink:href="#font_3_2" transform="matrix(9.9626,0,0,-9.9626,86.42091,88.65133)" fill="#000080"/>
<symbol id="font_4_4">
<path d="M .63100007 .19400002 C .646 .19400002 .665 .19400002 .665 .214 C .665 .23400001 .646 .23400001 .632 .23400001 L .033 .23400001 C .019000002 .23400001 0 .23400001 0 .214 C 0 .19400002 .019000002 .19400002 .034 .19400002 L .63100007 .19400002 M .632 0 C .646 0 .665 0 .665 .02000001 C .665 .040000008 .646 .040000008 .63100007 .040000008 L .034 .040000008 C .019000002 .040000008 0 .040000008 0 .02000001 C 0 0 .019000002 0 .033 0 L .632 0 Z "/>
</symbol>
<use xlink:href="#font_4_4" transform="matrix(9.9626,0,0,-9.9626,94.699909,85.283969)" fill="#000080"/>
<symbol id="font_3_1">
<path d="M .305 .31300003 C .311 .33900003 .334 .43100003 .404 .43100003 C .409 .43100003 .433 .43100003 .454 .418 C .426 .41300003 .40600003 .388 .40600003 .36400003 C .40600003 .34800003 .417 .32900004 .444 .32900004 C .46600003 .32900004 .498 .34700004 .498 .38700003 C .498 .43900005 .439 .45300005 .405 .45300005 C .347 .45300005 .312 .40000005 .3 .37700004 C .275 .44300003 .221 .45300005 .19200002 .45300005 C .08800001 .45300005 .031000002 .32400004 .031000002 .29900003 C .031000002 .28900004 .041 .28900004 .043000007 .28900004 C .051000008 .28900004 .054000006 .291 .056 .3 C .09 .40600003 .156 .43100003 .19000001 .43100003 C .209 .43100003 .244 .42200003 .244 .36400003 C .244 .33300004 .22700002 .26600004 .19000001 .126 C .17400001 .064 .13900002 .022000002 .095000009 .022000002 C .08900001 .022000002 .06600001 .022000002 .045 .035 C .07000001 .040000004 .09200001 .061 .09200001 .089 C .09200001 .116000007 .07000001 .124000009 .055000009 .124000009 C .025 .124000009 0 .098000008 0 .06600001 C 0 .020000002 .050000006 0 .094000007 0 C .16000001 0 .19600001 .07000001 .19900002 .076000008 C .21100001 .039 .24700003 0 .307 0 C .41 0 .467 .12900001 .467 .15400002 C .467 .16400002 .458 .16400002 .455 .16400002 C .446 .16400002 .444 .16000001 .442 .15300001 C .409 .046 .341 .022000002 .30900003 .022000002 C .27 .022000002 .254 .054 .254 .08800001 C .254 .11000001 .26 .13200002 .271 .17600002 L .305 .31300003 Z "/>
</symbol>
<use xlink:href="#font_3_1" transform="matrix(9.9626,0,0,-9.9626,104.946918,86.71858)" fill="#000080"/>
<symbol id="font_5_1">
<path d="M .442 .18200001 L .40800003 .18200001 C .40500004 .16000001 .39500005 .101 .38200004 .091000009 C .374 .085 .29700003 .085 .28300003 .085 L .099 .085 C .20400003 .178 .23900002 .20600002 .29900003 .25300003 C .37300004 .312 .442 .374 .442 .469 C .442 .59000006 .33600004 .66400006 .20800004 .66400006 C .084 .66400006 0 .577 0 .485 C 0 .43400003 .043000007 .42900003 .053000004 .42900003 C .077 .42900003 .10600001 .446 .10600001 .48200003 C .10600001 .5 .099 .535 .047000007 .535 C .078 .606 .146 .628 .19300002 .628 C .293 .628 .34500004 .55 .34500004 .469 C .34500004 .38200004 .28300003 .31300003 .25100003 .277 L .010000005 .039 C 0 .030000002 0 .028 0 0 L .41200004 0 L .442 .18200001 Z "/>
</symbol>
<use xlink:href="#font_5_1" transform="matrix(6.9738,0,0,-6.9738,110.79134,82.494998)" fill="#000080"/>
<symbol id="font_6_1">
<path d="M .57600006 0 C .59300008 0 .611 0 .611 .019999996 C .611 .040000008 .59300008 .040000008 .57600006 .040000008 L .035000005 .040000008 C .018 .040000008 0 .040000008 0 .019999996 C 0 0 .018 0 .035000005 0 L .57600006 0 Z "/>
</symbol>
<use xlink:href="#font_6_1" transform="matrix(9.9626,0,0,-9.9626,117.86189,84.3176)" fill="#000080"/>
<symbol id="font_4_2">
<path d="M .07700001 .07700001 L .18300002 .18 C .33900003 .31800003 .39900003 .372 .39900003 .47200004 C .39900003 .586 .30900003 .666 .18700002 .666 C .074 .666 0 .574 0 .485 C 0 .42900003 .05 .42900003 .053000008 .42900003 C .07000001 .42900003 .105000007 .441 .105000007 .48200003 C .105000007 .508 .08700001 .53400006 .052000006 .53400006 C .044000005 .53400006 .042000008 .53400006 .039 .53300008 C .062000004 .59800007 .11600001 .63500007 .17400001 .63500007 C .26500003 .63500007 .308 .554 .308 .47200004 C .308 .39200003 .25800003 .31300003 .20300003 .25100003 L .011000004 .037 C 0 .026 0 .024 0 0 L .37100003 0 L .39900003 .17400001 L .374 .17400001 C .36900003 .14400001 .36200003 .1 .352 .085 C .345 .07700001 .279 .07700001 .257 .07700001 L .07700001 .07700001 Z "/>
</symbol>
<use xlink:href="#font_4_2" transform="matrix(9.9626,0,0,-9.9626,127.496128,86.60899)" fill="#000080"/>
<use xlink:href="#font_3_1" transform="matrix(9.9626,0,0,-9.9626,132.26792,86.71858)" fill="#000080"/>
<path transform="matrix(1,0,0,-1,.199,174.62599)" stroke-width="1" stroke-linecap="butt" stroke-miterlimit="10" stroke-linejoin="miter" fill="none" stroke="#000080" d="M 24.28363 45.67662 L 28.33089 45.67662 L 32.37814 45.67662 L 36.42538 45.67662 L 40.47266 45.67662 L 44.51991 45.67662 L 48.56717 45.67662 L 52.61443 45.67662 L 56.66168 45.67662 L 60.70894 45.67662 L 64.7562 45.67662 L 68.80345 45.67662 L 72.8507 45.67662 L 76.89796 45.67662 L 80.94522 45.67662 L 84.99248 45.67662 L 89.03973 45.67662 L 93.08698 45.67662 L 97.13425 45.67662 L 101.1815 45.67662 L 105.22876 45.67662 L 109.27602 45.67662 L 113.32326 45.67662 L 117.37051 45.67662 L 121.41779 45.67662 "/>
<path transform="matrix(1,0,0,-1,.199,174.62599)" stroke-width="1" stroke-linecap="butt" stroke-miterlimit="10" stroke-linejoin="miter" fill="none" stroke="#000080" d="M 121.4182 45.67662 L 123.44179 45.67662 L 125.4654 45.67662 L 127.489 45.67662 L 129.51259 45.67662 L 131.5362 45.67662 L 133.5598 45.67662 L 135.5834 45.67662 L 137.60701 45.67662 L 139.6306 45.67662 L 141.6542 45.67662 L 143.67781 45.67662 L 145.7014 45.67662 L 147.72502 45.67662 L 149.74861 45.67662 L 151.77222 45.67662 L 153.79582 45.67662 L 155.81941 45.67662 L 157.84304 45.67662 L 159.86663 45.67662 L 161.89023 45.67662 L 163.91384 45.67662 L 165.93743 45.67662 L 167.96105 45.67662 L 169.98464 45.67662 "/>
</g>
<symbol id="font_4_1">
<path d="M .205 .64000007 C .205 .66400006 .205 .666 .18200003 .666 C .120000008 .60200008 .032000007 .60200008 0 .60200008 L 0 .57100006 C .020000004 .57100006 .07900001 .57100006 .13100001 .597 L .13100001 .079 C .13100001 .043 .128 .031000002 .038000004 .031000002 L .0060000049 .031000002 L .0060000049 0 C .04100001 .003 .128 .003 .168 .003 C .20800002 .003 .29500003 .003 .33000005 0 L .33000005 .031000002 L .29800005 .031000002 C .20800002 .031000002 .205 .042000005 .205 .079 L .205 .64000007 Z "/>
</symbol>
<use xlink:href="#font_4_1" transform="matrix(9.9626,0,0,-9.9626,71.44567,143.038)"/>
<use xlink:href="#font_4_2" transform="matrix(9.9626,0,0,-9.9626,119.62313,143.038)"/>
<symbol id="font_4_3">
<path d="M .24800003 .37400005 C .33 .40100003 .388 .47100006 .388 .55 C .388 .632 .3 .688 .204 .688 C .10300001 .688 .027000003 .628 .027000003 .55200007 C .027000003 .519 .049000004 .5 .078 .5 C .109000008 .5 .12900001 .522 .12900001 .55100008 C .12900001 .6010001 .082 .6010001 .067 .6010001 C .098 .65000006 .164 .66300007 .20000002 .66300007 C .24100003 .66300007 .29600004 .64100006 .29600004 .55100008 C .29600004 .53900006 .29400004 .48100005 .268 .43700005 C .238 .38900004 .204 .38600005 .17900002 .38500003 C .171 .38400004 .14700002 .38200004 .14000002 .38200004 C .132 .38100005 .125 .38000003 .125 .37000004 C .125 .35900004 .132 .35900004 .14900002 .35900004 L .19300002 .35900004 C .275 .35900004 .312 .29100005 .312 .193 C .312 .057000005 .24300003 .028 .199 .028 C .15600002 .028 .081 .045 .046000005 .104 C .081 .09900001 .11200001 .12100001 .11200001 .15900001 C .11200001 .19500001 .085 .215 .056 .215 C .031999999 .215 0 .201 0 .157 C 0 .06600001 .093 0 .20200002 0 C .32400004 0 .41500003 .091000009 .41500003 .193 C .41500003 .27500005 .35200004 .35300005 .24800003 .37400005 Z "/>
</symbol>
<use xlink:href="#font_4_3" transform="matrix(9.9626,0,0,-9.9626,168.11043,143.25717)"/>
<use xlink:href="#font_6_1" transform="matrix(9.9626,0,0,-9.9626,6.8598959,159.49959)"/>
<use xlink:href="#font_4_1" transform="matrix(9.9626,0,0,-9.9626,14.668671,161.79099)"/>
<use xlink:href="#font_4_1" transform="matrix(9.9626,0,0,-9.9626,14.668672,100.889987)"/>
<use xlink:href="#font_4_2" transform="matrix(9.9626,0,0,-9.9626,14.28013,70.438999)"/>
<use xlink:href="#font_4_3" transform="matrix(9.9626,0,0,-9.9626,14.20043,40.208177)"/>
<use xlink:href="#font_3_1" transform="matrix(9.9626,0,0,-9.9626,198.39192,131.19358)"/>
<use xlink:href="#font_3_2" transform="matrix(9.9626,0,0,-9.9626,22.154915,9.725332)"/>
<path transform="matrix(1,0,0,-1,.199,174.62599)" stroke-width="1" stroke-linecap="butt" stroke-miterlimit="10" stroke-linejoin="miter" fill="none" stroke="#808080" d="M 72.8509 43.55066 L 72.8509 47.80255 M 121.4182 43.55066 L 121.4182 47.80255 M 169.98548 43.55066 L 169.98548 47.80255 "/>
<path transform="matrix(1,0,0,-1,.199,174.62599)" stroke-width="1" stroke-linecap="butt" stroke-miterlimit="10" stroke-linejoin="miter" fill="none" stroke="#808080" d="M 22.15775 15.22554 L 26.4095 15.22554 M 22.15775 76.1277 L 26.4095 76.1277 M 22.15775 106.57878 L 26.4095 106.57878 M 22.15775 137.02986 L 26.4095 137.02986 "/>
<path transform="matrix(1,0,0,-1,.199,174.62599)" stroke-width="1" stroke-linecap="butt" stroke-miterlimit="10" stroke-linejoin="miter" fill="none" stroke="#000000" d="M 0 45.67662 L 192.2766 45.67662 "/>
<path transform="matrix(1,0,0,-1,192.4756,128.94937)" d="M 1.99252 0 L -1.19551 1.59401 L 0 0 L -1.19551 -1.59401 "/>
<path transform="matrix(1,0,0,-1,.199,174.62599)" stroke-width="1" stroke-linecap="butt" stroke-miterlimit="10" stroke-linejoin="miter" fill="none" stroke="#000000" d="M 24.28363 0 L 24.28363 159.39821 "/>
<path transform="matrix(0,-1,-1,-0,24.48263,15.227783)" d="M 1.99252 0 L -1.19551 1.59401 L 0 0 L -1.19551 -1.59401 "/>
</svg>
