<?xml version="1.0" encoding="UTF-8" standalone="no"?>
<!DOCTYPE svg PUBLIC "-//W3C//DTD SVG 1.1//EN" "http://www.w3.org/Graphics/SVG/1.1/DTD/svg11.dtd">
<svg xmlns="http://www.w3.org/2000/svg" xmlns:xlink="http://www.w3.org/1999/xlink" version="1.1" width="197.855pt" height="58.37pt" viewBox="0 0 197.855 58.37">
<symbol id="font_0_1">
<path d="M .057000005 .05099988 C .065000008 .05099988 .073 .052999975 .08 .055999996 C .132 .08099985 .09900001 .16699982 .04 .14499998 C 0 .1309998 .003999997 .08099985 .023000002 .051999809 C .047 .015999794 .096 0 .13700001 .0059998037 C .18800001 .0149998669 .222 .058999778 .24600002 .10099983 C .29900003 .194 .324 .30299986 .35000003 .4059999 C .41500003 .6639999 .47300006 .9239999 .523 1.185 C .57100006 1.433 .605 1.686 .66 1.927 C .675 1.99 .69000008 2.053 .71400007 2.113 C .72300007 2.137 .734 2.161 .75000008 2.181 C .758 2.191 .768 2.201 .78000006 2.204 C .794 2.208 .81200006 2.203 .82500007 2.197 C .83400008 2.193 .84300008 2.188 .85 2.181 C .84200009 2.181 .83400008 2.179 .827 2.1759999 C .77500006 2.151 .808 2.065 .86700007 2.087 C .90700009 2.101 .90300008 2.151 .88400009 2.18 C .86 2.216 .81100007 2.232 .77000007 2.226 C .71900007 2.217 .685 2.173 .661 2.131 C .60800006 2.038 .583 1.929 .55700007 1.826 C .49200005 1.568 .43400003 1.308 .384 1.0469999 C .33600004 .7989999 .30200003 .5459999 .24700001 .30499996 C .23200003 .24199987 .21700001 .1789999 .193 .11899996 C .184 .09499979 .17300001 .07099986 .157 .05099988 C .149 .04099989 .139 .030999899 .127 .027999878 C .113000009 .02399993 .095 .028999806 .082 .034999849 C .073 .038999797 .064 .04399991 .057000005 .05099988 Z "/>
</symbol>
<use xlink:href="#font_0_1" transform="matrix(9.9626,0,0,-9.9626,3.8522845,43.468709)"/>
<symbol id="font_1_3">
<path d="M .07700001 .07700001 L .18300002 .18 C .33900003 .31800003 .39900003 .372 .39900003 .47200004 C .39900003 .586 .30900003 .666 .18700002 .666 C .074 .666 0 .574 0 .485 C 0 .42900003 .05 .42900003 .053000008 .42900003 C .07000001 .42900003 .105000007 .441 .105000007 .48200003 C .105000007 .508 .08700001 .53400006 .052000006 .53400006 C .044000005 .53400006 .042000008 .53400006 .039 .53300008 C .062000004 .59800007 .11600001 .63500007 .17400001 .63500007 C .26500003 .63500007 .308 .554 .308 .47200004 C .308 .39200003 .25800003 .31300003 .20300003 .25100003 L .011000004 .037 C 0 .026 0 .024 0 0 L .37100003 0 L .39900003 .17400001 L .374 .17400001 C .36900003 .14400001 .36200003 .1 .352 .085 C .345 .07700001 .279 .07700001 .257 .07700001 L .07700001 .07700001 Z "/>
</symbol>
<use xlink:href="#font_1_3" transform="matrix(9.9626,0,0,-9.9626,15.515135,34.843)"/>
<symbol id="font_2_4">
<path d="M .305 .31300003 C .311 .33900003 .334 .43100003 .404 .43100003 C .409 .43100003 .433 .43100003 .454 .418 C .426 .41300003 .40600003 .388 .40600003 .36400003 C .40600003 .34800003 .417 .32900004 .444 .32900004 C .46600003 .32900004 .498 .34700004 .498 .38700003 C .498 .43900005 .439 .45300005 .405 .45300005 C .347 .45300005 .312 .40000005 .3 .37700004 C .275 .44300003 .221 .45300005 .19200002 .45300005 C .08800001 .45300005 .031000002 .32400004 .031000002 .29900003 C .031000002 .28900004 .041 .28900004 .043000007 .28900004 C .051000008 .28900004 .054000006 .291 .056 .3 C .09 .40600003 .156 .43100003 .19000001 .43100003 C .209 .43100003 .244 .42200003 .244 .36400003 C .244 .33300004 .22700002 .26600004 .19000001 .126 C .17400001 .064 .13900002 .022000002 .095000009 .022000002 C .08900001 .022000002 .06600001 .022000002 .045 .035 C .07000001 .040000004 .09200001 .061 .09200001 .089 C .09200001 .116000007 .07000001 .124000009 .055000009 .124000009 C .025 .124000009 0 .098000008 0 .06600001 C 0 .020000002 .050000006 0 .094000007 0 C .16000001 0 .19600001 .07000001 .19900002 .076000008 C .21100001 .039 .24700003 0 .307 0 C .41 0 .467 .12900001 .467 .15400002 C .467 .16400002 .458 .16400002 .455 .16400002 C .446 .16400002 .444 .16000001 .442 .15300001 C .409 .046 .341 .022000002 .30900003 .022000002 C .27 .022000002 .254 .054 .254 .08800001 C .254 .11000001 .26 .13200002 .271 .17600002 L .305 .31300003 Z "/>
</symbol>
<symbol id="font_2_2">
<path d="M .141 .24200002 C .17 .24200002 .24400002 .24400002 .294 .26500003 C .36400003 .29500003 .36900003 .35400004 .36900003 .36800004 C .36900003 .41200004 .331 .45300005 .26200003 .45300005 C .15100001 .45300005 0 .35600005 0 .18100001 C 0 .079 .059 0 .157 0 C .3 0 .384 .106000009 .384 .11800001 C .384 .124000009 .37800003 .13100001 .372 .13100001 C .367 .13100001 .365 .12900001 .35900004 .12100001 C .28 .022000002 .171 .022000002 .15900001 .022000002 C .081 .022000002 .072000008 .106000009 .072000008 .13800001 C .072000008 .15000002 .073 .18100001 .088 .24200002 L .141 .24200002 M .094 .26400004 C .133 .41600005 .236 .43100003 .26200003 .43100003 C .30900003 .43100003 .33600004 .40200005 .33600004 .36800004 C .33600004 .26400004 .17600002 .26400004 .135 .26400004 L .094 .26400004 Z "/>
</symbol>
<use xlink:href="#font_2_4" transform="matrix(9.9626,0,0,-9.9626,20.28792,34.952589)"/>
<use xlink:href="#font_2_2" transform="matrix(9.9626,0,0,-9.9626,26.155894,34.952589)"/>
<symbol id="font_3_2">
<path d="M .201 .116000007 C .19100002 .082 .15800002 .028 .107 .028 C .10400001 .028 .07400001 .028 .053000004 .042000005 C .094000007 .055000005 .09700001 .091 .09700001 .097 C .09700001 .119 .080000009 .134 .057000005 .134 C .029000007 .134 0 .11 0 .073 C 0 .023000002 .056 0 .10500001 0 C .15100003 0 .192 .029000003 .21700001 .071 C .241 .018000002 .296 0 .336 0 C .451 0 .512 .125 .512 .15300001 C .512 .16600001 .49900005 .16600001 .49600003 .16600001 C .48200003 .16600001 .48100005 .16100002 .47700004 .14900002 C .456 .08 .39600004 .028 .34 .028 C .3 .028 .279 .055000005 .279 .093 C .279 .119 .303 .21000001 .331 .321 C .351 .398 .39600004 .423 .42900003 .423 C .43100003 .423 .46200005 .423 .483 .409 C .451 .4 .439 .372 .439 .354 C .439 .33200003 .456 .317 .479 .317 C .50200006 .317 .535 .336 .535 .37800003 C .535 .43400003 .47100006 .451 .43100003 .451 C .381 .451 .34100003 .418 .319 .38 C .301 .421 .255 .451 .199 .451 C .087000008 .451 .023000002 .328 .023000002 .298 C .023000002 .285 .037 .285 .040000008 .285 C .053000004 .285 .054000006 .289 .059000009 .30200003 C .084 .38 .14700002 .423 .19600001 .423 C .229 .423 .256 .405 .256 .357 C .256 .337 .24400002 .287 .23500002 .25300003 L .201 .116000007 Z "/>
</symbol>
<use xlink:href="#font_3_2" transform="matrix(6.9738,0,0,-6.9738,30.665747,30.798737)"/>
<symbol id="font_4_1">
<path d="M .49800004 .193 L .45600004 .193 C .453 .17400001 .44300003 .112 .427 .102000009 C .41900004 .096 .33500005 .096 .32 .096 L .124 .096 C .19000001 .14500001 .264 .201 .324 .24100001 C .41399998 .303 .49800004 .36100004 .49800004 .467 C .49800004 .595 .37700004 .666 .23400001 .666 C .09900001 .666 0 .588 0 .49 C 0 .43800003 .044 .42900003 .058 .42900003 C .08500001 .42900003 .117 .44700004 .117 .48800005 C .117 .52400007 .091000009 .544 .060000004 .54700008 C .088 .592 .14600002 .62200006 .21300002 .62200006 C .31 .62200006 .39100004 .564 .39100004 .46600003 C .39100004 .38200004 .333 .31800003 .25599999 .25300003 L .012000002 .046000005 C .0019999967 .037 .001000002 .037 0 .030000002 L 0 0 L .46500004 0 L .49800004 .193 Z "/>
</symbol>
<use xlink:href="#font_4_1" transform="matrix(4.9813,0,0,-4.9813,35.302305,27.722998)"/>
<symbol id="font_5_1">
<path d="M .39300005 .344 L .69900009 .344 C .7120001 .344 .73600009 .344 .73600009 .368 C .73600009 .393 .71300008 .393 .69900009 .393 L .39300005 .393 L .39300005 .70000007 C .39300005 .71300008 .39300005 .73700007 .36900003 .73700007 C .34400005 .73700007 .34400005 .71400007 .34400005 .70000007 L .34400005 .393 L .037000009 .393 C .024000004 .393 0 .393 0 .36900003 C 0 .344 .023000002 .344 .037000009 .344 L .34400005 .344 L .34400005 .037000009 C .34400005 .024000004 .34400005 0 .36800004 0 C .39300005 0 .39300005 .023000002 .39300005 .037000009 L .39300005 .344 Z "/>
</symbol>
<symbol id="font_5_2">
<path d="M .22600001 .63600006 C .22600001 .66300007 .224 .66400006 .19600001 .66400006 C .132 .601 .041 .6 0 .6 L 0 .564 C .023999997 .564 .09000001 .564 .14500001 .592 L .14500001 .082 C .14500001 .049000004 .14500001 .036000004 .04500001 .036000004 L .0069999995 .036000004 L .0069999995 0 C .024999999 .001 .148 .004 .185 .004 C .21600002 .004 .34200005 .001 .36400003 0 L .36400003 .036000004 L .32600004 .036000004 C .22600001 .036000004 .22600001 .049000004 .22600001 .082 L .22600001 .63600006 Z "/>
</symbol>
<use xlink:href="#font_5_1" transform="matrix(6.9738,0,0,-6.9738,39.225175,31.551907)"/>
<use xlink:href="#font_5_2" transform="matrix(6.9738,0,0,-6.9738,45.613176,30.728999)"/>
<symbol id="font_2_1">
<path d="M .47600005 .694 C .47600005 .695 .47600005 .705 .46300004 .705 C .44800005 .705 .35300002 .69600006 .33600004 .694 C .32800005 .693 .32200004 .688 .32200004 .675 C .32200004 .663 .33100004 .663 .34600003 .663 C .39400003 .663 .39600004 .656 .39600004 .646 L .39300005 .626 L .33300004 .38900004 C .31500004 .42600004 .286 .45300005 .24100001 .45300005 C .124 .45300005 0 .30600003 0 .16000001 C 0 .06600001 .055000005 0 .133 0 C .153 0 .20300001 .0040000008 .263 .075 C .27100004 .033000005 .30600003 0 .35400004 0 C .38900004 0 .41200004 .023000002 .42800004 .055000005 C .44500003 .091000009 .45800004 .15200001 .45800004 .15400002 C .45800004 .16400002 .44900004 .16400002 .44600005 .16400002 C .43600003 .16400002 .43500004 .16000001 .43200005 .14600002 C .41500003 .081 .397 .022000002 .35600005 .022000002 C .32900004 .022000002 .32600004 .048 .32600004 .068 C .32600004 .092 .32800005 .09900001 .33200003 .116000007 L .47600005 .694 M .26800005 .13000001 C .263 .112 .263 .11000001 .24800001 .093 C .20400001 .038000004 .163 .022000002 .135 .022000002 C .08499999 .022000002 .07100001 .077 .07100001 .116000007 C .07100001 .16600001 .103 .28900004 .126 .335 C .157 .39400003 .202 .43100003 .242 .43100003 C .307 .43100003 .32100005 .34900005 .32100005 .34300003 C .32100005 .337 .31900005 .33100004 .31800003 .32600004 L .26800005 .13000001 Z "/>
</symbol>
<use xlink:href="#font_2_1" transform="matrix(9.9626,0,0,-9.9626,51.381509,34.952589)"/>
<use xlink:href="#font_2_4" transform="matrix(9.9626,0,0,-9.9626,56.462434,34.952589)"/>
<symbol id="font_1_4">
<path d="M .63100007 .19400002 C .646 .19400002 .665 .19400002 .665 .214 C .665 .23400001 .646 .23400001 .632 .23400001 L .033 .23400001 C .019000002 .23400001 0 .23400001 0 .214 C 0 .19400002 .019000002 .19400002 .034 .19400002 L .63100007 .19400002 M .632 0 C .646 0 .665 0 .665 .02000001 C .665 .040000008 .646 .040000008 .63100007 .040000008 L .034 .040000008 C .019000002 .040000008 0 .040000008 0 .02000001 C 0 0 .019000002 0 .033 0 L .632 0 Z "/>
</symbol>
<use xlink:href="#font_1_4" transform="matrix(9.9626,0,0,-9.9626,65.18792,33.51797)"/>
<use xlink:href="#font_0_1" transform="matrix(9.9626,0,0,-9.9626,75.604297,43.468709)"/>
<use xlink:href="#font_2_2" transform="matrix(9.9626,0,0,-9.9626,87.227298,34.952589)"/>
<symbol id="font_6_1">
<path d="M .484 .30600003 C .484 .333 .484 .33400003 .463 .33400003 C .361 .33400003 .136 .286 0 .04200001 L 0 .026000008 C 0 .001000002 .0009999983 0 .024 0 C .043 0 .044 .001000002 .049000004 .008000001 C .13100001 .13900002 .269 .21000003 .472 .21400002 C .484 .21400002 .484 .22100002 .484 .24200002 L .484 .30600003 Z "/>
</symbol>
<use xlink:href="#font_6_1" transform="matrix(9.9626,0,0,-9.9626,91.16891,21.264996)"/>
<path transform="matrix(1,0,0,-1,95.89101,19.133)" d="M 0 0 L 4.694 0 L 4.694 1.195 L 0 1.195 Z "/>
<symbol id="font_6_4">
<path d="M .48400004 .30800004 C .48400004 .333 .483 .33400003 .46 .33400003 C .441 .33400003 .44 .333 .435 .326 C .35300002 .19500001 .21500002 .124000009 .012000001 .120000008 C 0 .120000008 0 .113000009 0 .09200001 L 0 .028 C 0 .001 0 0 .021000002 0 C .123 0 .34800003 .048 .48400004 .29200004 L .48400004 .30800004 Z "/>
</symbol>
<symbol id="font_6_3">
<path d="M .484 .09200001 C .484 .115 .484 .120000008 .47 .120000008 C .409 .12100001 .31 .12900001 .22000002 .17300001 C .112 .22700002 .071 .29000003 .046000005 .32900004 C .043 .33400003 .037 .33400003 .024 .33400003 C .0009999983 .33400003 0 .333 0 .30800004 L 0 .29200004 C .136 .047000003 .361 0 .463 0 C .484 0 .484 .001 .484 .028 L .484 .09200001 Z "/>
</symbol>
<use xlink:href="#font_6_4" transform="matrix(9.9626,0,0,-9.9626,100.48538,19.133)"/>
<use xlink:href="#font_6_3" transform="matrix(9.9626,0,0,-9.9626,104.82907,19.133)"/>
<path transform="matrix(1,0,0,-1,109.55201,19.133)" d="M 0 0 L 4.694 0 L 4.694 1.195 L 0 1.195 Z "/>
<symbol id="font_6_2">
<path d="M .48400004 .04200001 C .34800003 .28700004 .123 .33400003 .021000002 .33400003 C 0 .33400003 0 .333 0 .30600003 L 0 .24200002 C 0 .21900001 0 .21400002 .014 .21400002 C .075 .21300002 .17400001 .20500002 .264 .16100002 C .372 .10700001 .41300003 .044000016 .43800003 .00500001 C .441 0 .447 0 .46 0 C .483 0 .48400004 .001000002 .48400004 .026000008 L .48400004 .04200001 Z "/>
</symbol>
<use xlink:href="#font_6_2" transform="matrix(9.9626,0,0,-9.9626,114.146389,21.264996)"/>
<use xlink:href="#font_2_4" transform="matrix(9.9626,0,0,-9.9626,91.69693,30.838589)"/>
<symbol id="font_5_3">
<path d="M .442 .18200001 L .40800003 .18200001 C .40500004 .16000001 .39500005 .101 .38200004 .091000009 C .374 .085 .29700003 .085 .28300003 .085 L .099 .085 C .20400003 .178 .23900002 .20600002 .29900003 .25300003 C .37300004 .312 .442 .374 .442 .469 C .442 .59000006 .33600004 .66400006 .20800004 .66400006 C .084 .66400006 0 .577 0 .485 C 0 .43400003 .043000007 .42900003 .053000004 .42900003 C .077 .42900003 .10600001 .446 .10600001 .48200003 C .10600001 .5 .099 .535 .047000007 .535 C .078 .606 .146 .628 .19300002 .628 C .293 .628 .34500004 .55 .34500004 .469 C .34500004 .38200004 .28300003 .31300003 .25100003 .277 L .010000005 .039 C 0 .030000002 0 .028 0 0 L .41200004 0 L .442 .18200001 Z "/>
</symbol>
<use xlink:href="#font_5_3" transform="matrix(6.9738,0,0,-6.9738,97.54136,26.616002)"/>
<symbol id="font_1_1">
<path d="M .35300002 .31300003 L .632 .31300003 C .646 .31300003 .665 .31300003 .665 .333 C .665 .35300002 .646 .35300002 .632 .35300002 L .35300002 .35300002 L .35300002 .633 C .35300002 .647 .35300002 .666 .33300004 .666 C .31300003 .666 .31300003 .647 .31300003 .633 L .31300003 .35300002 L .033 .35300002 C .019000002 .35300002 0 .35300002 0 .333 C 0 .31300003 .019000002 .31300003 .033 .31300003 L .31300003 .31300003 L .31300003 .033000005 C .31300003 .019000002 .31300003 0 .33300004 0 C .35300002 0 .35300002 .019000002 .35300002 .033000005 L .35300002 .31300003 Z "/>
</symbol>
<symbol id="font_1_2">
<path d="M .205 .64000007 C .205 .66400006 .205 .666 .18200003 .666 C .120000008 .60200008 .032000007 .60200008 0 .60200008 L 0 .57100006 C .020000004 .57100006 .07900001 .57100006 .13100001 .597 L .13100001 .079 C .13100001 .043 .128 .031000002 .038000004 .031000002 L .0060000049 .031000002 L .0060000049 0 C .04100001 .003 .128 .003 .168 .003 C .20800002 .003 .29500003 .003 .33000005 0 L .33000005 .031000002 L .29800005 .031000002 C .20800002 .031000002 .205 .042000005 .205 .079 L .205 .64000007 Z "/>
</symbol>
<use xlink:href="#font_1_1" transform="matrix(9.9626,0,0,-9.9626,104.34292,31.555897)"/>
<use xlink:href="#font_1_2" transform="matrix(9.9626,0,0,-9.9626,114.634288,30.729)"/>
<use xlink:href="#font_1_3" transform="matrix(9.9626,0,0,-9.9626,121.38614,34.843004)"/>
<use xlink:href="#font_2_4" transform="matrix(9.9626,0,0,-9.9626,126.15793,34.95259)"/>
<use xlink:href="#font_2_1" transform="matrix(9.9626,0,0,-9.9626,133.62987,34.95259)"/>
<use xlink:href="#font_2_4" transform="matrix(9.9626,0,0,-9.9626,138.7108,34.95259)"/>
<use xlink:href="#font_6_3" transform="matrix(9.9626,0,0,-9.9626,120.6489,39.027)"/>
<path transform="matrix(1,0,0,-1,125.37101,39.027)" d="M 0 0 L 2.641 0 L 2.641 1.195 L 0 1.195 Z "/>
<use xlink:href="#font_6_2" transform="matrix(9.9626,0,0,-9.9626,127.91237,41.158998)"/>
<use xlink:href="#font_6_1" transform="matrix(9.9626,0,0,-9.9626,132.25606,41.158998)"/>
<path transform="matrix(1,0,0,-1,136.978,39.027)" d="M 0 0 L 2.641 0 L 2.641 1.195 L 0 1.195 Z "/>
<use xlink:href="#font_6_4" transform="matrix(9.9626,0,0,-9.9626,139.51938,39.027)"/>
<use xlink:href="#font_1_4" transform="matrix(9.9626,0,0,-9.9626,147.42792,33.51797)"/>
<use xlink:href="#font_0_1" transform="matrix(9.9626,0,0,-9.9626,157.8443,43.468709)"/>
<use xlink:href="#font_2_2" transform="matrix(9.9626,0,0,-9.9626,169.4673,34.952589)"/>
<symbol id="font_3_1">
<path d="M .37600003 .172 C .37100003 .15200001 .36200003 .114 .36 .113000009 C .34100003 .082 .30100004 .028 .23900001 .028 C .17 .028 .17 .093 .17 .111 C .17 .17000002 .198 .24100001 .226 .314 C .23400001 .334 .24 .349 .24 .365 C .24 .417 .19600001 .451 .145 .451 C .045000007 .451 0 .314 0 .298 C 0 .285 .014000002 .285 .017 .285 C .031 .285 .032 .29 .035 .301 C .059000005 .38300003 .103 .423 .142 .423 C .15900001 .423 .16700001 .412 .16700001 .388 C .16700001 .365 .15900001 .344 .149 .321 C .095 .18300002 .095 .15400002 .095 .127 C .095 .11 .095 .064 .132 .032 C .161 .008 .2 0 .235 0 C .29800005 0 .33200003 .034 .36500005 .066 C .38700003 .0020000004 .45400007 0 .46600003 0 C .50000008 0 .526 .020000002 .545 .053000004 C .56700006 .092 .58100005 .15 .58100005 .15300001 C .58100005 .16600001 .56700006 .16600001 .564 .16600001 C .55 .16600001 .549 .16200002 .54200008 .135 C .53000006 .088 .51100006 .028 .46900005 .028 C .44300003 .028 .43600003 .051000004 .43600003 .077 C .43600003 .094000007 .44400005 .13000001 .45100004 .15600002 C .458 .18300002 .46800006 .22400002 .47300006 .24600002 L .49600006 .335 C .50200006 .36 .513 .404 .513 .409 C .513 .42900003 .49700005 .441 .48000003 .441 C .44300003 .441 .43600003 .412 .42800004 .38 L .37600003 .172 Z "/>
</symbol>
<use xlink:href="#font_3_1" transform="matrix(6.9738,0,0,-6.9738,173.97579,30.798737)"/>
<symbol id="font_2_3">
<path d="M .321 .067 C .33200003 .026 .367 0 .41 0 C .44500003 0 .468 .023000002 .484 .055000005 C .50100007 .091000009 .51400008 .15200001 .51400008 .15400002 C .51400008 .16400002 .50500008 .16400002 .50200006 .16400002 C .492 .16400002 .49100004 .16000001 .488 .14600002 C .474 .09 .455 .022000002 .41300003 .022000002 C .39200003 .022000002 .382 .035 .382 .068 C .382 .09 .394 .13700001 .402 .17200002 L .43 .28000004 C .433 .29500003 .44300003 .33300004 .447 .34800003 C .45200003 .37100003 .462 .40900005 .462 .41500003 C .462 .43300004 .448 .44200004 .433 .44200004 C .428 .44200004 .402 .441 .394 .40700004 C .375 .33400003 .331 .15900001 .319 .106000009 C .318 .102000009 .278 .022000002 .20500002 .022000002 C .15300001 .022000002 .143 .067 .143 .104 C .143 .16000001 .171 .23900002 .19700001 .30800004 C .209 .33800004 .21400002 .35200004 .21400002 .37100003 C .21400002 .41600005 .18200001 .45300005 .13200002 .45300005 C .037 .45300005 0 .30800004 0 .29900003 C 0 .28900004 .01 .28900004 .012 .28900004 C .022000002 .28900004 .023 .291 .028000003 .307 C .053000004 .39400003 .091000009 .43100003 .12900001 .43100003 C .13800001 .43100003 .15400002 .43000005 .15400002 .39800004 C .15400002 .374 .143 .34500004 .13700001 .33 C .10000001 .23100002 .079 .16900002 .079 .120000008 C .079 .025000003 .148 0 .202 0 C .268 0 .304 .045 .321 .067 Z "/>
</symbol>
<use xlink:href="#font_2_1" transform="matrix(9.9626,0,0,-9.9626,180.91551,34.952589)"/>
<use xlink:href="#font_2_3" transform="matrix(9.9626,0,0,-9.9626,185.99645,34.952589)"/>
<symbol id="font_7_1">
<path d="M .10900001 .063 C .10900001 .085 .09300001 .106000009 .065 .106000009 C .033000009 .106000009 0 .076000008 0 .043 C 0 .017 .018000007 0 .044 0 C .07800001 0 .10900001 .033 .10900001 .063 Z "/>
</symbol>
<use xlink:href="#font_7_1" transform="matrix(9.9626,0,0,-9.9626,192.53079,34.843)"/>
<symbol id="font_8_2">
<path d="M .38300003 .611 C .39000006 .64000007 .397 .643 .40600003 .64400008 C .41300006 .646 .44200004 .646 .46000005 .646 C .55600008 .646 .591 .638 .591 .57000008 C .591 .544 .58400008 .49800004 .58300009 .49 C .5820001 .485 .57900008 .469 .57900008 .46500004 C .57900008 .45200003 .59300008 .45200003 .5960001 .45200003 C .60800006 .45200003 .61200007 .45400004 .61500009 .47300003 L .64300009 .651 C .64300009 .65300008 .64500007 .66200008 .64500007 .66300007 C .64500007 .67700007 .63500007 .67700007 .61800006 .67700007 L .09400003 .67700007 C .073 .67700007 .07000001 .67700007 .06400001 .65900006 L .004000008 .47900004 C .004000008 .47800002 0 .46600003 0 .46500004 C 0 .45200003 .012000009 .45200003 .016000003 .45200003 C .02000001 .45200003 .025000006 .45200003 .028000012 .455 C .031000004 .45700003 .031000004 .45900003 .040000008 .483 C .09000002 .62600007 .115000028 .646 .24900003 .646 C .268 .646 .291 .646 .30700005 .643 C .30700005 .632 .30700005 .63000008 .30300004 .615 L .16900002 .07700001 C .16000001 .042000005 .15300001 .031000002 .06300001 .031000002 L .04900001 .031000002 C .033000009 .031000002 .02000001 .031000002 .02000001 .013 C .02000001 0 .03400001 0 .037000017 0 C .087 0 .14 .003 .19100003 .003 C .24200003 .003 .296 0 .34600003 0 C .35400004 0 .36700005 0 .36700005 .018000002 C .36700005 .031000002 .35700006 .031000002 .34100003 .031000002 L .32600004 .031000002 C .31100006 .031000002 .291 .032 .27600003 .033 C .25300003 .036000004 .24500002 .037 .24500002 .053000004 C .24500002 .057000005 .24500002 .059000005 .24900003 .07300001 L .38300003 .611 Z "/>
</symbol>
<symbol id="font_8_3">
<path d="M .229 .67300006 C .23200003 .68700006 .23300001 .688 .23300001 .691 C .23300001 .704 .224 .70600005 .20700002 .704 L .103 .695 C .088 .694 .07800001 .693 .07800001 .676 C .07800001 .663 .088 .663 .105000007 .663 C .15200001 .663 .15200001 .65500006 .15200001 .646 C .15200001 .645 .15200001 .639 .148 .624 L .0040000008 .048 C 0 .034 0 .032 0 .028 C 0 .013000001 .011 0 .030000002 0 C .061000006 0 .067 .025000003 .074 .055000005 C .085999999 .098000008 .085999999 .1 .096 .14100002 C .10700001 .18400002 .120000008 .23600002 .128 .27100004 C .139 .31200005 .15900001 .35000003 .18900001 .38000003 C .204 .395 .23700002 .42800004 .291 .42800004 C .32900004 .42800004 .33800004 .395 .33800004 .36300005 C .33800004 .305 .29500003 .18700002 .278 .14200002 C .266 .109000008 .264 .10300001 .264 .082 C .264 .028 .30200003 0 .34300003 0 C .438 0 .475 .14700002 .475 .15400002 C .475 .16600001 .46200005 .16600001 .45800004 .16600001 C .44400005 .16600001 .44300006 .16300002 .437 .14200002 C .42700003 .106000009 .39900003 .025000003 .34500004 .025000003 C .337 .025000003 .324 .026 .324 .053000004 C .324 .077 .33600004 .109000008 .344 .13100001 C .36200003 .17900002 .40300004 .29000003 .40300004 .34700004 C .40300004 .41400004 .363 .45300005 .293 .45300005 C .238 .45300005 .194 .42800004 .15900001 .39100004 L .229 .67300006 Z "/>
</symbol>
<symbol id="font_8_4">
<path d="M .24800003 .634 C .24800003 .65000006 .236 .667 .215 .667 C .19100002 .667 .16700001 .646 .16700001 .621 C .16700001 .593 .19000003 .587 .201 .587 C .22600001 .587 .24800003 .61 .24800003 .634 M .26000003 .15400002 C .26000003 .16600001 .24700001 .16600001 .243 .16600001 C .229 .16600001 .22800002 .16300002 .222 .14200002 C .21200001 .106000009 .18400002 .025000003 .13000001 .025000003 C .12200001 .025000003 .10900001 .026 .10900001 .053000004 C .10900001 .07000001 .11500001 .093 .12600002 .124000009 C .14000002 .16100002 .14000002 .16300002 .157 .20500002 L .19100002 .29900003 C .20000002 .32200004 .21100003 .35200004 .21100003 .37100003 C .21100003 .42000003 .17700002 .45300005 .13200002 .45300005 C .037000009 .45300005 0 .30800004 0 .29900003 C 0 .28700004 .012000002 .28700004 .017000005 .28700004 C .031000004 .28700004 .032000007 .29200004 .036000007 .30400003 C .043000007 .33 .07000001 .42800004 .12900001 .42800004 C .13900002 .42800004 .15 .42600004 .15 .40000005 C .15 .37600003 .143 .35600005 .12600002 .30900003 L .091000009 .21600002 C .08500001 .19800002 .069000009 .15600002 .066 .14700002 C .058000015 .126 .04900001 .102000009 .04900001 .082 C .04900001 .028 .08700001 0 .128 0 C .22300002 0 .26000003 .14700002 .26000003 .15400002 Z "/>
</symbol>
<symbol id="font_8_5">
<path d="M .316 .381 C .279 .374 .279 .34300003 .279 .34100003 C .279 .33200003 .28500004 .31300003 .30900003 .31300003 C .331 .31300003 .35200004 .33 .35200004 .367 C .35200004 .41200004 .312 .45300005 .24000001 .45300005 C .12300001 .45300005 .078999999 .36 .078999999 .305 C .078999999 .22700002 .14600002 .21300002 .176 .20600002 C .22300002 .19600001 .268 .18600002 .268 .134 C .268 .105000007 .24400002 .025000003 .135 .025000003 C .109 .025000003 .053000004 .032 .037 .079 C .08400001 .08400001 .08400001 .12500002 .08400001 .126 C .08400001 .15300001 .061000006 .15900001 .049999998 .15900001 C .044 .15900001 0 .15600002 0 .097 C 0 .041 .053000004 0 .135 0 C .28800003 0 .32700003 .12200001 .32700003 .16700001 C .32700003 .19500003 .317 .22100002 .29700003 .24200002 C .271 .268 .248 .27300004 .20300001 .28200004 C .17300001 .28900004 .13700001 .29600004 .13700001 .33900003 C .13700001 .35700003 .15300001 .42800004 .24000001 .42800004 C .27 .42800004 .30600003 .41600005 .316 .381 Z "/>
</symbol>
<use xlink:href="#font_8_2" transform="matrix(8.9664,0,0,-8.9664,118.22405,54.975999)"/>
<use xlink:href="#font_8_3" transform="matrix(8.9664,0,0,-8.9664,123.90875,55.074628)"/>
<use xlink:href="#font_8_4" transform="matrix(8.9664,0,0,-8.9664,128.66094,55.074628)"/>
<use xlink:href="#font_8_5" transform="matrix(8.9664,0,0,-8.9664,131.44052,55.074628)"/>
<use xlink:href="#font_8_4" transform="matrix(8.9664,0,0,-8.9664,138.5419,55.074628)"/>
<use xlink:href="#font_8_5" transform="matrix(8.9664,0,0,-8.9664,141.32149,55.074628)"/>
<symbol id="font_9_1">
<path d="M .48200006 .671 C .486 .685 .486 .68700006 .486 .691 C .486 .7 .48000003 .705 .47100003 .705 C .45700003 .705 .36900003 .697 .34900005 .695 C .33900003 .694 .328 .693 .328 .676 C .328 .663 .33900003 .663 .35500003 .663 C .40200005 .663 .40200005 .656 .40200005 .647 C .40200005 .64 .39300005 .605 .388 .584 L .36900003 .507 C .35900004 .46900005 .34900005 .43000005 .34000004 .39100004 C .321 .42700003 .29000003 .45300005 .245 .45300005 C .12900001 .45300005 0 .31500004 0 .16200002 C 0 .052 .07 0 .137 0 C .20200002 0 .25500003 .054 .27100004 .07300001 C .282 .018000002 .33200003 0 .36400003 0 C .39300005 0 .418 .013000001 .44000004 .055000005 C .458 .08800001 .472 .15000002 .472 .15400002 C .472 .15900001 .46900005 .16600001 .45900006 .16600001 C .44700004 .16600001 .44600005 .16100002 .44200004 .14200002 C .42000003 .055000005 .39800004 .025000003 .367 .025000003 C .342 .025000003 .33600004 .049000004 .33600004 .071 C .33600004 .08400001 .34100003 .112 .342 .115 L .48200006 .671 M .275 .13200002 C .27100004 .116000007 .27 .11400001 .254 .094000007 C .21800003 .051000004 .17700002 .025000003 .14000002 .025000003 C .091 .025000003 .074 .076000008 .074 .119 C .074 .16800002 .10300001 .28300003 .127 .33100004 C .15900001 .39100004 .20500002 .42800004 .245 .42800004 C .312 .42800004 .32700003 .34700004 .32700003 .34200005 C .32700003 .337 .32500003 .33100004 .32400004 .32700003 L .275 .13200002 Z "/>
</symbol>
<symbol id="font_9_2">
<path d="M .458 .337 C .46400003 .36300005 .47599999 .40900005 .47599999 .41300003 C .47599999 .42600004 .467 .44200004 .44500003 .44200004 C .431 .44200004 .416 .43300004 .409 .42100004 C .404 .411 .336 .14000002 .33 .107 C .30900003 .071 .269 .025000003 .21400002 .025000003 C .15200001 .025000003 .15200001 .08800001 .15200001 .107 C .15200001 .15200001 .165 .20100002 .20800002 .31300003 C .216 .33600004 .22200002 .35000003 .22200002 .36900003 C .22200002 .418 .18500002 .45300005 .136 .45300005 C .040000008 .45300005 0 .31100003 0 .29900003 C 0 .29000003 .007000001 .28700004 .014 .28700004 C .025 .28700004 .026000003 .293 .030000003 .30600003 C .051000008 .37800003 .09 .42800004 .133 .42800004 C .15400002 .42800004 .157 .41300003 .157 .395 C .157 .37800003 .15300001 .36 .14400001 .33600004 C .097 .21200001 .08400001 .17000002 .08400001 .12200001 C .08400001 .011000001 .17400001 0 .21100001 0 C .268 0 .30900003 .035 .333 .06600001 C .352 0 .418 0 .424 0 C .453 0 .47800002 .014 .49899999 .053000004 C .517 .086 .53200009 .15000002 .53200009 .15400002 C .53200009 .15900001 .52900007 .16600001 .51900008 .16600001 C .507 .16600001 .50600007 .16100002 .50200006 .14200002 C .48200003 .063 .461 .025000003 .42700003 .025000003 C .403 .025000003 .396 .046 .396 .071 C .396 .09 .401 .11000001 .41 .14500001 L .435 .24800003 L .458 .337 Z "/>
</symbol>
<use xlink:href="#font_9_1" transform="matrix(8.9664,0,0,-8.9664,148.06359,55.074628)"/>
<use xlink:href="#font_9_2" transform="matrix(8.9664,0,0,-8.9664,152.72612,55.074628)"/>
<symbol id="font_8_1">
<path d="M .11100001 .064 C .11100001 .087000008 .094000007 .108 .06600001 .108 C .030000009 .108 0 .074 0 .044000005 C 0 .021000002 .016999998 0 .04500001 0 C .08100001 0 .11100001 .034 .11100001 .064 Z "/>
</symbol>
<use xlink:href="#font_8_1" transform="matrix(8.9664,0,0,-8.9664,158.79615,54.975999)"/>
<use xlink:href="#font_8_2" transform="matrix(8.9664,0,0,-8.9664,83.761058,9.621002)"/>
<use xlink:href="#font_8_3" transform="matrix(8.9664,0,0,-8.9664,89.445758,9.719632)"/>
<use xlink:href="#font_8_4" transform="matrix(8.9664,0,0,-8.9664,94.197948,9.719632)"/>
<use xlink:href="#font_8_5" transform="matrix(8.9664,0,0,-8.9664,96.97753,9.719632)"/>
<use xlink:href="#font_8_4" transform="matrix(8.9664,0,0,-8.9664,104.07892,9.719632)"/>
<use xlink:href="#font_8_5" transform="matrix(8.9664,0,0,-8.9664,106.858509,9.719632)"/>
<use xlink:href="#font_9_2" transform="matrix(8.9664,0,0,-8.9664,113.48503,9.719632)"/>
<use xlink:href="#font_8_1" transform="matrix(8.9664,0,0,-8.9664,119.55914,9.621002)"/>
</svg>
