<?xml version="1.0" encoding="UTF-8" standalone="no"?>
<!DOCTYPE svg PUBLIC "-//W3C//DTD SVG 1.1//EN" "http://www.w3.org/Graphics/SVG/1.1/DTD/svg11.dtd">
<svg xmlns="http://www.w3.org/2000/svg" xmlns:xlink="http://www.w3.org/1999/xlink" version="1.1" width="221.077pt" height="192.101pt" viewBox="0 0 221.077 192.101">
<path transform="matrix(1,0,0,-1,12.133,174.63)" stroke-width=".19925" stroke-linecap="butt" stroke-miterlimit="10" stroke-linejoin="miter" fill="none" stroke="#929292" d="M 52.98378 -2.12592 L 52.98378 2.12592 M 78.49449 -2.12592 L 78.49449 2.12592 M 98.11812 -2.12592 L 98.11812 2.12592 M 125.5912 -2.12592 L 125.5912 2.12592 M 156.989 -2.12592 L 156.989 2.12592 M 176.61263 -2.12592 L 176.61263 2.12592 M 196.23625 -2.12592 L 196.23625 2.12592 "/>
<path transform="matrix(1,0,0,-1,12.133,174.63)" stroke-width=".19925" stroke-linecap="butt" stroke-miterlimit="10" stroke-linejoin="miter" fill="none" stroke="#929292" d="M -.16365 32.27835 L 4.08838 32.27835 M -.16365 64.55672 L 4.08838 64.55672 M -.16365 96.83507 L 4.08838 96.83507 M -.16365 129.11344 L 4.08838 129.11344 M -.16365 161.3918 L 4.08838 161.3918 "/>
<path transform="matrix(1,0,0,-1,12.133,174.63)" stroke-width=".3985" stroke-linecap="butt" stroke-miterlimit="10" stroke-linejoin="miter" fill="none" stroke="#000000" d="M 1.96236 0 L 194.24373 0 "/>
<path transform="matrix(1,0,0,-1,206.37673,174.63)" d="M 1.99252 0 L -1.19551 1.59401 L 0 0 L -1.19551 -1.59401 "/>
<path transform="matrix(1,0,0,-1,12.133,174.63)" stroke-width=".3985" stroke-linecap="butt" stroke-miterlimit="10" stroke-linejoin="miter" fill="none" stroke="#000000" d="M 1.96236 0 L 1.96236 159.39928 "/>
<path transform="matrix(0,-1,-1,-0,14.095361,15.230728)" d="M 1.99252 0 L -1.19551 1.59401 L 0 0 L -1.19551 -1.59401 "/>
<symbol id="font_0_3">
<path d="M .068 .096 C .118 .18200001 .191 .223 .22200002 .24100001 C .376 .32800005 .467 .39000006 .467 .519 C .467 .63400009 .389 .688 .311 .688 C .163 .688 .081 .48600004 .081 .42100004 C .081 .40100003 .087 .35800005 .132 .35800005 C .21100001 .35800005 .25300003 .47800005 .25300003 .51600006 C .25300003 .53400006 .244 .56900009 .23100002 .56900009 C .22500001 .56900009 .22000002 .56400009 .22000002 .558 C .22000002 .55600008 .22000002 .554 .221 .55200007 C .22700002 .54 .23100002 .527 .23100002 .51500007 C .23100002 .48600004 .19400002 .38000003 .133 .38000003 C .12100001 .38000003 .111 .38500003 .111 .41300006 C .111 .47800005 .186 .66600009 .30800004 .66600009 C .34900005 .66600009 .39600004 .63900008 .39600004 .55600008 C .39600004 .41100005 .30900003 .32700003 .21 .268 C .165 .24100001 .12300001 .21700001 .081 .165 C .011 .08100001 0 .011000001 0 .010000002 C 0 0 .009999998 0 .015000001 0 C .027000003 0 .029 .0020000004 .031999999 .013000001 C .04 .041 .058 .07700001 .088 .07700001 C .120000008 .07700001 .148 .057000005 .173 .040000004 C .19900002 .022000002 .23 0 .26999999 0 C .385 0 .43100006 .17400001 .43100006 .185 C .43100006 .19500001 .42300005 .19500001 .416 .19500001 C .40400005 .19500001 .403 .194 .399 .178 C .385 .13700001 .34600003 .07 .27899999 .07 C .251 .07 .212 .078 .196 .082 C .16000001 .09 .12100001 .09900001 .09 .09900001 C .078999999 .09900001 .07000001 .097 .068 .096 Z "/>
</symbol>
<symbol id="font_0_7">
<path d="M .0059999974 .46900005 C 0 .45700006 0 .45500005 0 .45400004 C 0 .44400005 .008000001 .44400005 .015000001 .44400005 C .025999994 .44400005 .026999996 .44500003 .031000004 .45200003 C .10599999 .59700009 .198 .61800006 .23400001 .61800006 C .25300003 .61800006 .25800003 .61100009 .27500005 .58300009 C .291 .554 .30700005 .549 .324 .549 C .34000004 .549 .35500003 .55300006 .36900003 .56000009 C .268 .39400003 .26700003 .39200003 .23400001 .32600004 C .14299999 .14400001 .124 .037 .124 .033000005 C .124 .011000001 .142 0 .159 0 C .198 0 .207 .032 .21500002 .06600001 C .246 .186 .288 .31300003 .34600003 .43700005 C .39800007 .549 .444 .61800006 .47200007 .6610001 C .481 .674 .481 .67600008 .481 .67800006 C .481 .688 .47300006 .688 .467 .688 C .462 .688 .45800007 .688 .45400007 .68500009 L .439 .665 C .402 .61100009 .365 .57100006 .324 .57100006 C .302 .57100006 .29900003 .586 .296 .62000009 C .292 .65800008 .288 .688 .24700003 .688 C .22000002 .688 .17100002 .68000009 .11299999 .62500008 C .13599999 .6750001 .13599999 .67700007 .13599999 .67800006 C .13599999 .688 .126 .688 .12100001 .688 C .11 .688 .10900001 .68700006 .102 .67300006 L .0059999974 .46900005 Z "/>
</symbol>
<use xlink:href="#font_0_3" transform="matrix(9.9626,0,0,-9.9626,60.860857,186.98918)"/>
<use xlink:href="#font_0_7" transform="matrix(9.9626,0,0,-9.9626,66.5495,186.98918)"/>
<symbol id="font_0_4">
<path d="M .36900003 .389 C .37300004 .404 .37300004 .40600003 .37300004 .409 C .37300004 .435 .349 .43600003 .34600003 .43600003 C .316 .43600003 .31 .41000004 .30600003 .393 C .303 .38300003 .26500003 .23300001 .26400004 .227 C .19100002 .25300003 .23200003 .24000001 .20300001 .25 C .16600001 .261 .149 .261 .127 .261 C .11500001 .261 .113000009 .261 .10000001 .26 C .37000004 .51 .42800004 .83300009 .42800004 .83400008 C .42800004 .855 .411 .86 .40100003 .86 C .372 .86 .36600004 .837 .35900004 .81000009 C .326 .68500009 .282 .56500008 .21100003 .44900004 C .13200002 .321 .043 .25100003 .039 .24800001 C .032 .245 0 .22800002 0 .21200001 C 0 .208 .0069999995 .19500001 .015000001 .19500001 C .021000002 .19500001 .036000004 .207 .047000003 .215 C .055999999 .223 .065 .23 .12400001 .23 C .142 .23 .16200002 .23 .19700001 .21900001 C .21000001 .214 .23400003 .20400001 .256 .19600001 L .21900001 .047000007 C .215 .032000007 .215 .030000002 .215 .025999994 C .215 .004999995 .23200003 0 .24200002 0 C .261 0 .27400003 .0109999929 .28 .033999996 L .31700004 .18 C .323 .179 .33100004 .179 .337 .179 C .365 .179 .43000005 .192 .43000005 .208 C .43000005 .213 .42400003 .22500001 .41500003 .22500001 C .41300003 .22500001 .411 .22500001 .40100003 .221 C .38300003 .214 .358 .21000001 .34100003 .21000001 C .33400003 .21000001 .33 .21000001 .32500003 .21100001 L .36900003 .389 Z "/>
</symbol>
<symbol id="font_0_1">
<path d="M .438 .518 C .438 .558 .433 .688 .30400003 .688 C .232 .688 .15200001 .64100006 .092 .527 C .043000007 .43400005 0 .25900004 0 .17 C 0 .13900002 0 0 .134 0 C .19999999 0 .294 .041 .359 .186 C .4 .279 .438 .43700005 .438 .518 M .139 .022000002 C .107 .022000002 .064 .042000005 .064 .120000008 C .064 .202 .139 .49700005 .174 .56900009 C .211 .64400008 .26500003 .66600009 .299 .66600009 C .34 .66600009 .37600003 .63600006 .37600003 .572 C .37600003 .49800004 .306 .215 .263 .120000008 C .241 .07300001 .19100002 .022000002 .139 .022000002 Z "/>
</symbol>
<use xlink:href="#font_0_4" transform="matrix(9.9626,0,0,-9.9626,85.97236,188.70275)"/>
<use xlink:href="#font_0_1" transform="matrix(9.9626,0,0,-9.9626,91.79052,186.98918)"/>
<symbol id="font_0_5">
<path d="M .182 .58000007 C .18500002 .591 .186 .59200009 .18699999 .59200009 C .18800001 .59200009 .19000001 .59200009 .2 .58900007 C .219 .582 .242 .58000007 .26200003 .58000007 C .37200005 .58000007 .46000005 .66300007 .46000005 .67800006 C .46000005 .68500009 .45400007 .68700006 .45100004 .68700006 C .448 .68700006 .444 .68600007 .439 .6840001 C .39400006 .66400006 .34900005 .656 .31 .656 C .26600004 .656 .22700002 .66600009 .198 .68200007 C .19200002 .68500009 .18800001 .68700006 .184 .68700006 C .177 .68700006 .175 .68100008 .172 .67 L .096 .36600004 C .095 .36300005 .094 .35500003 .094 .35300005 C .094 .34300003 .100999999 .34100003 .10700001 .34100003 C .11400001 .34100003 .116 .34400005 .122999999 .35100005 C .17400001 .41100005 .22900002 .42000006 .25800003 .42000006 C .29900003 .42000006 .319 .38500003 .319 .33100004 C .319 .27600003 .29000003 .171 .269 .13100001 C .22500001 .050000006 .166 .028 .12900001 .028 C .092999998 .028 .032000007 .048 .031000004 .14500001 C .033999996 .14400001 .036 .14400001 .040999995 .14400001 C .075 .14400001 .094 .17300001 .094 .19600001 C .094 .216 .081 .23 .058 .23 C .0059999974 .23 0 .171 0 .13900002 C 0 .06600001 .042999999 0 .12900001 0 C .25700004 0 .39100004 .135 .39100004 .28700004 C .39100004 .36600004 .347 .44200004 .26 .44200004 C .214 .44200004 .173 .42500005 .136 .39600004 L .182 .58000007 Z "/>
</symbol>
<use xlink:href="#font_0_5" transform="matrix(9.9626,0,0,-9.9626,106.22401,186.98918)"/>
<use xlink:href="#font_0_1" transform="matrix(9.9626,0,0,-9.9626,111.41452,186.98918)"/>
<symbol id="font_0_6">
<path d="M .136 .028 C .07700001 .028 .065 .09 .065 .119 C .065 .19800002 .111 .42600004 .24400002 .42600004 C .25800003 .42600004 .28 .42600004 .29700003 .40200005 C .30600003 .39000006 .31500004 .37000004 .31500004 .33900003 C .31500004 .29300005 .28 .157 .26000003 .118 C .234 .071 .192 .028 .136 .028 M .112 .36100004 C .13500002 .45100004 .15900001 .517 .20500002 .57600006 C .236 .61500009 .289 .66300007 .35000003 .66300007 C .372 .66300007 .40500004 .65900006 .41500003 .623 C .367 .623 .36200003 .582 .36200003 .57500007 C .36200003 .56100007 .37 .54300007 .39600004 .54300007 C .43 .54300007 .448 .57100006 .448 .609 C .448 .65900006 .411 .688 .351 .688 C .26900003 .688 .17900002 .63100007 .10700001 .52900007 C .022 .40900005 0 .25000004 0 .18 C 0 .15300001 0 0 .134 0 C .26000003 0 .38700003 .142 .38700003 .29200004 C .38700003 .34200005 .36 .44800005 .24700001 .44800005 C .18600002 .44800005 .14200002 .40500004 .112 .36100004 Z "/>
</symbol>
<use xlink:href="#font_0_6" transform="matrix(9.9626,0,0,-9.9626,133.82552,186.98918)"/>
<use xlink:href="#font_0_4" transform="matrix(9.9626,0,0,-9.9626,138.15924,188.70275)"/>
<symbol id="font_0_8">
<path d="M .3 .38200004 C .39900003 .43000005 .45700003 .49600006 .45700003 .57000008 C .45700003 .646 .393 .688 .323 .688 C .213 .688 .113000009 .58500006 .113000009 .48500005 C .113000009 .44900004 .127 .42100004 .13700001 .40800003 C .143 .40000005 .14400001 .39900003 .18900001 .35900004 C .019000002 .28000004 0 .18200001 0 .13700001 C 0 .053000004 .07000001 0 .155 0 C .28100003 0 .397 .115 .397 .23 C .397 .26200003 .388 .29400004 .36800004 .32100005 C .36200003 .32800005 .323 .36200003 .3 .38200004 M .19600001 .47000004 C .178 .48500005 .16800002 .507 .16800002 .531 C .16800002 .59700009 .243 .66300007 .32000003 .66300007 C .37300004 .66300007 .412 .63000008 .412 .572 C .412 .46700005 .287 .39900003 .28100003 .39900003 C .28 .39900003 .279 .40000005 .272 .40600003 L .19600001 .47000004 M .29000003 .27400003 C .31500004 .252 .33800004 .23300001 .33800004 .18800001 C .33800004 .108 .25 .028 .15800002 .028 C .09400001 .028 .049999998 .071 .049999998 .135 C .049999998 .208 .10900001 .29600004 .208 .34300003 L .29000003 .27400003 Z "/>
</symbol>
<use xlink:href="#font_0_8" transform="matrix(9.9626,0,0,-9.9626,164.99437,186.98918)"/>
<use xlink:href="#font_0_1" transform="matrix(9.9626,0,0,-9.9626,170.28452,186.98918)"/>
<symbol id="font_0_9">
<path d="M .33600004 .32800005 C .31000004 .222 .28500004 .162 .24100003 .106000009 C .22 .080000009 .17200002 .028 .110000018 .028 C .082 .028 .048000009 .035000005 .03500001 .064 C .083000008 .068 .08600001 .108 .08600001 .113000009 C .08600001 .127 .07800001 .14500001 .052 .14500001 C .018000007 .14500001 0 .116000007 0 .080000009 C 0 .027000003 .046000005 0 .10800001 0 C .20400003 0 .28800003 .08100001 .335 .148 C .43500004 .28900004 .44900004 .46600006 .44900004 .51000007 C .44900004 .53700008 .44900004 .688 .319 .688 C .18800003 .688 .061000006 .54600009 .061000006 .39800004 C .061000006 .35300005 .08600001 .24100001 .201 .24100001 C .261 .24100001 .305 .28100003 .33600004 .32800005 M .20400003 .263 C .13300002 .263 .13300002 .33600004 .13300002 .35000003 C .13300002 .38800005 .16300002 .52300009 .19100002 .573 C .20300001 .595 .24600002 .66300007 .31700004 .66300007 C .36800004 .66300007 .38400004 .61500009 .38400004 .572 C .38400004 .5 .34100003 .263 .20400003 .263 Z "/>
</symbol>
<use xlink:href="#font_0_9" transform="matrix(9.9626,0,0,-9.9626,184.68712,186.98918)"/>
<use xlink:href="#font_0_1" transform="matrix(9.9626,0,0,-9.9626,189.9075,186.98918)"/>
<symbol id="font_0_2">
<path d="M .34100003 .64100006 C .342 .64400008 .344 .652 .344 .65400007 C .344 .66200008 .338 .666 .33200003 .666 C .326 .666 .32500003 .665 .313 .65000006 C .236 .54700008 .16600001 .54 .137 .537 C .132 .536 .121 .535 .121 .518 C .121 .50600007 .13299999 .50600007 .137 .50600007 C .15200001 .50600007 .201 .512 .248 .54700008 L .13 .07300001 C .122 .041 .114 .031000002 .036000007 .031000002 L .028000005 .031000002 C .011 .031000002 0 .031000002 0 .012 C 0 0 .011 0 .014999993 0 C .058000007 0 .10300001 .003 .146 .003 C .19 .003 .236 0 .28 0 C .287 0 .3 0 .3 .019000002 C .3 .031000002 .29 .031000002 .27400003 .031000002 L .266 .031000002 C .253 .031000002 .236 .032 .22299999 .033 C .201 .036000004 .195 .037 .195 .051000004 C .195 .057000005 .197 .066 .19800002 .07 L .34100003 .64100006 Z "/>
</symbol>
<use xlink:href="#font_0_2" transform="matrix(9.9626,0,0,-9.9626,201.8946,186.77)"/>
<use xlink:href="#font_0_1" transform="matrix(9.9626,0,0,-9.9626,206.98549,186.98918)"/>
<use xlink:href="#font_0_1" transform="matrix(9.9626,0,0,-9.9626,212.07637,186.98918)"/>
<symbol id="font_1_1">
<path d="M .205 .64000007 C .205 .66400006 .205 .666 .18200003 .666 C .120000008 .60200008 .032000007 .60200008 0 .60200008 L 0 .57100006 C .020000004 .57100006 .07900001 .57100006 .13100001 .597 L .13100001 .079 C .13100001 .043 .128 .031000002 .038000004 .031000002 L .0060000049 .031000002 L .0060000049 0 C .04100001 .003 .128 .003 .168 .003 C .20800002 .003 .29500003 .003 .33000005 0 L .33000005 .031000002 L .29800005 .031000002 C .20800002 .031000002 .205 .042000005 .205 .079 L .205 .64000007 Z "/>
</symbol>
<use xlink:href="#font_1_1" transform="matrix(9.9626,0,0,-9.9626,4.2806718,145.56201)"/>
<symbol id="font_1_2">
<path d="M .07700001 .07700001 L .18300002 .18 C .33900003 .31800003 .39900003 .372 .39900003 .47200004 C .39900003 .586 .30900003 .666 .18700002 .666 C .074 .666 0 .574 0 .485 C 0 .42900003 .05 .42900003 .053000008 .42900003 C .07000001 .42900003 .105000007 .441 .105000007 .48200003 C .105000007 .508 .08700001 .53400006 .052000006 .53400006 C .044000005 .53400006 .042000008 .53400006 .039 .53300008 C .062000004 .59800007 .11600001 .63500007 .17400001 .63500007 C .26500003 .63500007 .308 .554 .308 .47200004 C .308 .39200003 .25800003 .31300003 .20300003 .25100003 L .011000004 .037 C 0 .026 0 .024 0 0 L .37100003 0 L .39900003 .17400001 L .374 .17400001 C .36900003 .14400001 .36200003 .1 .352 .085 C .345 .07700001 .279 .07700001 .257 .07700001 L .07700001 .07700001 Z "/>
</symbol>
<use xlink:href="#font_1_2" transform="matrix(9.9626,0,0,-9.9626,3.8921302,113.28401)"/>
<symbol id="font_1_3">
<path d="M .24800003 .37400005 C .33 .40100003 .388 .47100006 .388 .55 C .388 .632 .3 .688 .204 .688 C .10300001 .688 .027000003 .628 .027000003 .55200007 C .027000003 .519 .049000004 .5 .078 .5 C .109000008 .5 .12900001 .522 .12900001 .55100008 C .12900001 .6010001 .082 .6010001 .067 .6010001 C .098 .65000006 .164 .66300007 .20000002 .66300007 C .24100003 .66300007 .29600004 .64100006 .29600004 .55100008 C .29600004 .53900006 .29400004 .48100005 .268 .43700005 C .238 .38900004 .204 .38600005 .17900002 .38500003 C .171 .38400004 .14700002 .38200004 .14000002 .38200004 C .132 .38100005 .125 .38000003 .125 .37000004 C .125 .35900004 .132 .35900004 .14900002 .35900004 L .19300002 .35900004 C .275 .35900004 .312 .29100005 .312 .193 C .312 .057000005 .24300003 .028 .199 .028 C .15600002 .028 .081 .045 .046000005 .104 C .081 .09900001 .11200001 .12100001 .11200001 .15900001 C .11200001 .19500001 .085 .215 .056 .215 C .031999999 .215 0 .201 0 .157 C 0 .06600001 .093 0 .20200002 0 C .32400004 0 .41500003 .091000009 .41500003 .193 C .41500003 .27500005 .35200004 .35300005 .24800003 .37400005 Z "/>
</symbol>
<use xlink:href="#font_1_3" transform="matrix(9.9626,0,0,-9.9626,3.8124293,81.22519)"/>
<symbol id="font_1_4">
<path d="M .266 .165 L .266 .078 C .266 .042000005 .26400004 .031000002 .19000001 .031000002 L .16900002 .031000002 L .16900002 0 C .21000001 .003 .26200003 .003 .30400003 .003 C .34600003 .003 .39900003 .003 .44000004 0 L .44000004 .031000002 L .41900004 .031000002 C .34500004 .031000002 .34300003 .042000005 .34300003 .078 L .34300003 .165 L .44300003 .165 L .44300003 .19600001 L .34300003 .19600001 L .34300003 .651 C .34300003 .671 .34300003 .67700007 .32700003 .67700007 C .31800003 .67700007 .31500004 .67700007 .307 .665 L 0 .19600001 L 0 .165 L .266 .165 M .272 .19600001 L .028 .19600001 L .272 .569 L .272 .19600001 Z "/>
</symbol>
<use xlink:href="#font_1_4" transform="matrix(9.9626,0,0,-9.9626,3.672953,48.728013)"/>
<symbol id="font_1_5">
<path d="M .39900003 .223 C .39900003 .34200005 .317 .44200004 .209 .44200004 C .16100002 .44200004 .118000019 .42600004 .082 .39100004 L .082 .586 C .10200001 .58000007 .135 .573 .16700001 .573 C .29 .573 .36 .66400006 .36 .67700007 C .36 .683 .357 .688 .35 .688 C .349 .688 .347 .688 .342 .68500009 C .322 .67600008 .273 .656 .20600002 .656 C .16600001 .656 .120000008 .66300007 .073 .6840001 C .065 .68700006 .06300001 .68700006 .061000009 .68700006 C .051000004 .68700006 .051000004 .679 .051000004 .66300007 L .051000004 .36700005 C .051000004 .34900005 .051000004 .34100003 .065 .34100003 C .07200001 .34100003 .074 .34400005 .07800001 .35000003 C .08900002 .36600004 .12600002 .42000006 .207 .42000006 C .259 .42000006 .284 .37400005 .292 .35600005 C .308 .31900005 .31 .28000004 .31 .23 C .31 .19500001 .31 .135 .286 .093 C .262 .054000006 .22500001 .028 .17900002 .028 C .106000009 .028 .049000008 .08100001 .032 .14000002 C .035 .13900002 .038000008 .13800001 .049000008 .13800001 C .082 .13800001 .09900001 .163 .09900001 .187 C .09900001 .21100001 .082 .23600002 .049000008 .23600002 C .035 .23600002 0 .22900002 0 .18300002 C 0 .097 .069000009 0 .18100001 0 C .297 0 .39900003 .096 .39900003 .223 Z "/>
</symbol>
<use xlink:href="#font_1_5" transform="matrix(9.9626,0,0,-9.9626,3.8921302,16.66919)"/>
<clipPath id="cp2">
<path transform="matrix(1,0,0,-1,12.133,174.63)" d="M 1.96236 0 L 196.23625 0 L 196.23625 161.3918 L 1.96236 161.3918 Z "/>
</clipPath>
<g clip-path="url(#cp2)">
<path transform="matrix(1,0,0,-1,12.133,174.63)" stroke-width="1.19553" stroke-linecap="butt" stroke-miterlimit="10" stroke-linejoin="miter" fill="none" stroke="#000080" d="M 0 0 C 0 0 .95152 23.32599 1.31699 28.26614 C 1.68243 33.2063 2.26852 33.87225 2.63397 35.60527 C 2.99944 37.3383 3.58554 39.47263 3.951 40.75659 C 4.31645 42.04054 4.90254 43.80939 5.26799 44.85916 C 5.63345 45.90894 6.21953 47.42204 6.58499 48.32263 C 6.95044 49.2232 7.53653 50.55426 7.90198 51.35 C 8.26744 52.14575 8.85352 53.34079 9.21898 54.05785 C 9.58443 54.7749 10.17053 55.86281 10.53598 56.51811 C 10.90144 57.1734 11.48755 58.17537 11.85301 58.7808 C 12.21846 59.38626 12.80455 60.31789 13.17 60.88182 C 13.53546 61.44576 14.12154 62.31604 14.48698 62.8453 C 14.85245 63.37457 15.43852 64.1968 15.80399 64.69647 C 16.16943 65.19614 16.75552 65.97328 17.12097 66.44661 C 17.48643 66.91994 18.07251 67.65742 18.43797 68.10797 C 18.80342 68.55852 19.38956 69.26375 19.755 69.69382 C 20.12047 70.12387 20.70654 70.79582 21.072 71.20766 C 21.43745 71.61949 22.02354 72.26636 22.38899 72.66212 C 22.75446 73.05789 23.34053 73.67926 23.706 74.0601 C 24.07144 74.44096 24.65753 75.0398 25.02298 75.40707 C 25.38844 75.77435 25.97452 76.3526 26.33998 76.70724 C 26.70543 77.06189 27.2915 77.62001 27.65697 77.9632 C 28.02242 78.30638 28.60852 78.84773 28.97397 79.18074 C 29.33943 79.51376 29.9255 80.0399 30.29097 80.36343 C 30.65642 80.68695 31.24251 81.19804 31.60796 81.51253 C 31.97342 81.82701 32.55952 82.32436 32.92499 82.63 C 33.29044 82.93567 33.87653 83.41783 34.24197 83.71553 C 34.60744 84.01321 35.19351 84.48517 35.55898 84.77556 C 35.92442 85.06595 36.51051 85.52547 36.87596 85.80846 C 37.24142 86.09145 37.8275 86.53796 38.19296 86.81522 C 38.55841 87.09248 39.14452 87.53514 39.50996 87.80681 C 39.87543 88.07846 40.4615 88.50833 40.82695 88.77322 C 41.19241 89.03812 41.77849 89.45695 42.14395 89.71608 C 42.5094 89.9752 43.09549 90.38666 43.46094 90.64084 C 43.8264 90.89503 44.4125 91.2991 44.77797 91.54819 C 45.14342 91.79727 45.7295 92.19188 46.09496 92.43617 C 46.46042 92.68047 47.0465 93.06915 47.41196 93.30898 C 47.7774 93.5488 48.36351 93.9292 48.72896 94.16467 C 49.09442 94.40016 49.6805 94.77495 50.04596 95.00616 C 50.4114 95.2374 50.9975 95.60388 51.36295 95.8312 C 51.72841 96.05855 52.31448 96.42111 52.67995 96.64462 C 53.0454 96.86813 53.63148 97.22287 53.99693 97.44223 C 54.3624 97.66158 54.94847 98.00912 55.31392 98.22562 C 55.67938 98.44211 56.26546 98.78943 56.63092 99.00256 C 56.99637 99.21568 57.5825 99.55229 57.94795 99.76175 C 58.31342 99.97119 58.89949 100.30585 59.26495 100.51222 C 59.6304 100.71858 60.21649 101.04541 60.58194 101.24913 C 60.9474 101.45285 61.53348 101.77979 61.89894 101.98056 C 62.26439 102.18134 62.85048 102.49875 63.21593 102.69617 C 63.58139 102.89359 64.16747 103.20773 64.53293 103.4034 C 64.89838 103.59906 65.48447 103.91357 65.84991 104.10641 C 66.21538 104.29924 66.80147 104.60341 67.16693 104.79329 C 67.53238 104.98318 68.11845 105.28741 68.48392 105.475 C 68.84937 105.6626 69.43546 105.96017 69.8009 106.14543 C 70.16637 106.3307 70.75244 106.62766 71.1179 106.81036 C 71.48335 106.99309 72.06947 107.28229 72.43492 107.4624 C 72.80038 107.64252 73.38646 107.92982 73.75192 108.1086 C 74.11737 108.28738 74.70346 108.57463 75.06891 108.75095 C 75.43437 108.92726 76.02045 109.20471 76.38591 109.37941 C 76.75136 109.55411 77.33746 109.83678 77.70291 110.01013 C 78.06837 110.18347 78.65445 110.4584 79.01991 110.62889 C 79.38536 110.79938 79.97145 111.07039 80.3369 111.23897 C 80.70236 111.40753 81.28844 111.67683 81.65388 111.84387 C 82.01935 112.01091 82.60542 112.27795 82.97089 112.44295 C 83.33633 112.60793 83.92245 112.86948 84.2879 113.03299 C 84.65337 113.1965 85.23944 113.45976 85.6049 113.62143 C 85.97035 113.78311 86.55646 114.0384 86.9219 114.19824 C 87.28737 114.35808 87.87344 114.61441 88.2389 114.77344 C 88.60435 114.93246 89.19044 115.18758 89.5559 115.34444 C 89.92136 115.50131 90.50743 115.74905 90.8729 115.90414 C 91.23834 116.05923 91.82443 116.30832 92.18988 116.46225 C 92.55534 116.61617 93.14142 116.86116 93.50688 117.01355 C 93.87233 117.16595 94.45842 117.4096 94.82387 117.56067 C 95.18933 117.71173 95.77542 117.95238 96.14087 118.10231 C 96.50633 118.25224 97.0924 118.49289 97.45787 118.64136 C 97.82332 118.78981 98.40944 119.02557 98.77489 119.17233 C 99.14035 119.31909 99.72643 119.5533 100.09189 119.69913 C 100.45734 119.84494 101.04343 120.07907 101.40887 120.22331 C 101.77434 120.36757 102.36041 120.59595 102.72588 120.7388 C 103.09132 120.88165 103.67741 121.11063 104.04286 121.25299 C 104.40833 121.39536 104.99442 121.62436 105.35988 121.76494 C 105.72533 121.9055 106.31142 122.12675 106.67686 122.26622 C 107.04233 122.40569 107.6284 122.63113 107.99387 122.7701 C 108.35931 122.90906 108.94539 123.13109 109.31085 123.26782 C 109.6763 123.40454 110.26242 123.61995 110.62787 123.75554 C 110.99333 123.89114 111.5794 124.10956 111.94487 124.2452 C 112.31032 124.38084 112.89641 124.59879 113.26186 124.73326 C 113.62732 124.86774 114.2134 125.08167 114.57886 125.21452 C 114.9443 125.34738 115.53041 125.55911 115.89586 125.69095 C 116.26132 125.8228 116.8474 126.03345 117.21286 126.1648 C 117.57831 126.29614 118.1644 126.50717 118.52985 126.63766 C 118.89531 126.76816 119.48138 126.97672 119.84685 127.1054 C 120.2123 127.23405 120.79839 127.43669 121.16383 127.56503 C 121.5293 127.69339 122.11537 127.90256 122.48082 128.03049 C 122.84628 128.15843 123.43236 128.36124 123.79782 128.48722 C 124.16327 128.6132 124.7494 128.8131 125.11485 128.93848 C 125.48032 129.06386 126.06639 129.26599 126.43185 129.39102 C 126.7973 129.51605 127.38339 129.71645 127.74884 129.83969 C 128.1143 129.96294 128.70038 130.1565 129.06584 130.27933 C 129.43129 130.40215 130.01738 130.60216 130.38283 130.72509 C 130.74829 130.848 131.33437 131.04445 131.69983 131.16538 C 132.06528 131.28629 132.65137 131.47676 133.01682 131.5966 C 133.38228 131.71645 133.96837 131.90933 134.33383 132.02913 C 134.69928 132.14893 135.28537 132.34053 135.65082 132.46004 C 136.01628 132.57956 136.60239 132.77219 136.96784 132.89064 C 137.3333 133.0091 137.91938 133.19672 138.28484 133.31381 C 138.65029 133.43093 139.23638 133.61753 139.60182 133.73471 C 139.96729 133.85192 140.55336 134.04236 140.91883 134.15853 C 141.28427 134.2747 141.87036 134.4576 142.23581 134.57202 C 142.60128 134.68645 143.18737 134.86905 143.55283 134.98326 C 143.91828 135.09746 144.50437 135.28066 144.86981 135.39513 C 145.23528 135.5096 145.82135 135.6956 146.18682 135.80828 C 146.55226 135.92096 147.13835 136.0955 147.5038 136.20725 C 147.86927 136.31897 148.45534 136.50072 148.8208 136.61362 C 149.18625 136.72653 149.77233 136.90953 150.13779 137.02098 C 150.50324 137.13245 151.08936 137.30764 151.4548 137.41704 C 151.82027 137.52646 152.40634 137.70027 152.7718 137.80954 C 153.13726 137.91883 153.72336 138.09496 154.0888 138.20464 C 154.45427 138.3143 155.04035 138.49108 155.4058 138.60004 C 155.77126 138.70899 156.35735 138.88132 156.7228 138.98996 C 157.08826 139.09862 157.67433 139.27519 158.0398 139.38312 C 158.40525 139.49103 158.99134 139.66106 159.35678 139.76787 C 159.72225 139.87468 160.30832 140.04636 160.67378 140.15294 C 161.03923 140.25952 161.62532 140.43036 161.99077 140.5361 C 162.35623 140.64183 162.94235 140.81006 163.3078 140.91504 C 163.67327 141.02 164.25934 141.18822 164.6248 141.2927 C 164.99025 141.39719 165.57634 141.56412 165.94179 141.66809 C 166.30725 141.77208 166.89333 141.93889 167.25879 142.0422 C 167.62424 142.14551 168.21033 142.30948 168.57578 142.41275 C 168.94124 142.51602 169.52732 142.68376 169.89278 142.78653 C 170.25823 142.88932 170.84432 143.05228 171.20977 143.15355 C 171.57523 143.2548 172.16132 143.41536 172.52678 143.51636 C 172.89223 143.61734 173.47832 143.78014 173.84377 143.88143 C 174.20923 143.98271 174.7953 144.14612 175.16077 144.24649 C 175.52622 144.34685 176.1123 144.5051 176.47776 144.60478 C 176.84322 144.70447 177.42932 144.86573 177.79477 144.96501 C 178.16024 145.0643 178.7463 145.22174 179.11177 145.3204 C 179.47722 145.41907 180.06331 145.57753 180.42876 145.6761 C 180.79422 145.77468 181.38031 145.93264 181.74578 146.03084 C 182.11122 146.12905 182.69731 146.28647 183.06276 146.38396 C 183.42823 146.48145 184.0143 146.6367 184.37976 146.73354 C 184.74521 146.83036 185.3313 146.98558 185.69675 147.08182 C 186.06221 147.17807 186.64829 147.3314 187.01375 147.4272 C 187.3792 147.52298 187.96529 147.67633 188.33074 147.77225 C 188.6962 147.86818 189.28227 148.02353 189.64774 148.11859 C 190.01319 148.21367 190.59929 148.36331 190.96475 148.45752 C 191.3302 148.55175 191.9163 148.70299 192.28176 148.79775 C 192.64722 148.8925 193.23329 149.0465 193.59876 149.14054 C 193.9642 149.23458 194.5503 149.38236 194.91574 149.47559 C 195.2812 149.56882 196.23274 149.81258 196.23274 149.81258 "/>
<path transform="matrix(1,0,0,-1,12.133,174.63)" stroke-width="1.19553" stroke-linecap="butt" stroke-miterlimit="10" stroke-linejoin="miter" fill="none" stroke="#800000" d="M 0 86.07541 L 8.17636 88.87724 L 16.35277 91.67914 L 24.52913 94.48068 L 32.7055 97.28278 L 40.88187 100.08421 L 49.05827 102.88628 L 57.23463 105.68837 L 65.41103 108.49046 L 73.58742 111.29222 L 81.7638 114.094 L 89.94016 116.89574 L 98.11656 119.69783 L 106.29292 122.49992 L 114.4693 125.302 L 122.64568 128.10343 L 130.82209 130.9052 L 138.99845 133.70728 L 147.17482 136.50937 L 155.35121 139.31145 L 163.52759 142.11289 L 171.70395 144.91498 L 179.88036 147.71674 L 188.05673 150.51883 L 196.23311 153.3209 "/>
<path transform="matrix(1,0,0,-1,12.133,174.63)" stroke-width="1.19553" stroke-linecap="butt" stroke-miterlimit="10" stroke-linejoin="miter" fill="none" stroke="#008000" d="M 0 64.55672 L 8.17636 69.53824 L 16.35277 74.5191 L 24.52913 79.50063 L 32.7055 84.48149 L 40.88187 89.46246 L 49.05827 94.44362 L 57.23463 99.42471 L 65.41103 104.40585 L 73.58742 109.3865 L 81.7638 114.36801 L 89.94016 119.34921 L 98.11656 124.33043 L 106.29292 129.3113 L 114.4693 134.2925 L 122.64568 139.2737 L 130.82209 144.25489 L 138.99845 149.23609 L 147.17482 154.21729 L 155.35121 159.19815 L 163.52759 164.17935 L 171.70395 169.16054 L 179.88036 174.14174 L 188.05673 179.12294 L 196.23311 184.10413 "/>
<path transform="matrix(1,0,0,-1,12.133,174.63)" stroke-width=".3985" stroke-linecap="butt" stroke-dasharray="2.98883,2.98883" stroke-miterlimit="10" stroke-linejoin="miter" fill="none" stroke="#000000" d="M 98.11812 0 L 98.11812 118.78436 "/>
<symbol id="font_3_2">
<path d="M .314 .605 L .4 .605 C .42000003 .605 .43 .605 .43 .625 C .43 .63600006 .42000003 .63600006 .40300004 .63600006 L .32000003 .63600006 L .34100003 .75 C .34500004 .771 .35900004 .842 .365 .8540001 C .374 .873 .39100004 .888 .41200004 .888 C .416 .888 .44200004 .888 .461 .87 C .41700004 .86600008 .407 .8310001 .407 .816 C .407 .793 .425 .781 .444 .781 C .47 .781 .49900005 .8030001 .49900005 .8410001 C .49900005 .8870001 .45300005 .9100001 .41200004 .9100001 C .37800003 .9100001 .31500004 .8920001 .28500004 .793 C .279 .7720001 .27600003 .7620001 .252 .63600006 L .18300002 .63600006 C .164 .63600006 .15300001 .63600006 .15300001 .61700007 C .15300001 .605 .162 .605 .18100001 .605 L .24700001 .605 L .172 .21000001 C .15400002 .113000009 .13700001 .022 .08500001 .022 C .081 .022 .056 .022 .037 .040000008 C .083000008 .043000014 .09200001 .07900001 .09200001 .094000007 C .09200001 .117000009 .074 .12900001 .055 .12900001 C .029 .12900001 0 .10700001 0 .069000009 C 0 .024000004 .044 0 .08500001 0 C .14 0 .18 .059 .19800002 .09700001 C .23000002 .16000001 .25300003 .28100003 .254 .28800003 L .314 .605 Z "/>
</symbol>
<use xlink:href="#font_3_2" transform="matrix(9.9626,0,0,-9.9626,21.460017,137.20133)" fill="#000080"/>
<symbol id="font_3_1">
<path d="M .335 .605 C .344 .64100006 .347 .652 .441 .652 C .47100006 .652 .479 .652 .479 .671 C .479 .683 .46800003 .683 .46300004 .683 C .43 .683 .34800003 .68 .315 .68 C .285 .68 .21200001 .683 .18200001 .683 C .17500001 .683 .163 .683 .163 .66300007 C .163 .652 .172 .652 .191 .652 C .193 .652 .21200001 .652 .229 .65000006 C .24700001 .648 .256 .647 .256 .634 C .256 .63000008 .255 .62700006 .252 .615 L .118 .078 C .107999999 .039 .106000009 .031000002 .026999999 .031000002 C .010000002 .031000002 0 .031000002 0 .011000001 C 0 0 .009 0 .026999999 0 L .49000005 0 C .51400008 0 .51500007 0 .521 .017 L .6000001 .23300001 C .60400006 .24400002 .60400006 .246 .60400006 .24700001 C .60400006 .25100003 .6010001 .25800003 .59200009 .25800003 C .58300009 .25800003 .5820001 .25300003 .57500007 .23700002 C .54100009 .14500001 .497 .031000002 .324 .031000002 L .23000002 .031000002 C .21600002 .031000002 .21400002 .031000002 .208 .032 C .19800002 .033 .19500001 .034 .19500001 .042000005 C .19500001 .045 .19500001 .047000003 .2 .065000008 L .335 .605 Z "/>
</symbol>
<use xlink:href="#font_3_1" transform="matrix(9.9626,0,0,-9.9626,44.157545,70.76901)" fill="#800000"/>
<symbol id="font_4_3">
<path d="M .096 .34700004 C .096 .42900003 .103 .503 .141 .564 C .17500001 .61800006 .22900002 .65500006 .293 .65500006 C .323 .65500006 .36300005 .647 .38300003 .62 C .35800005 .61800006 .33700005 .601 .33700005 .572 C .33700005 .547 .35400004 .525 .38400004 .525 C .41400004 .525 .43200005 .545 .43200005 .574 C .43200005 .632 .39000006 .684 .29100005 .684 C .147 .684 0 .552 0 .337 C 0 .078 .12200001 0 .23200001 0 C .35400004 0 .46 .09300001 .46 .224 C .46 .35100005 .35900004 .44500003 .242 .44500003 C .162 .44500003 .118 .39200003 .096 .34700004 M .23200001 .032 C .18200001 .032 .143 .061000006 .12200001 .105000007 C .10700001 .135 .09900001 .185 .09900001 .245 C .09900001 .34200005 .157 .41700004 .237 .41700004 C .28300003 .41700004 .31400005 .39900003 .33900003 .36200003 C .36300005 .32400004 .36400003 .28200004 .36400003 .224 C .36400003 .167 .36400003 .125 .33700005 .086 C .31300003 .051000004 .28100003 .032 .23200001 .032 Z "/>
</symbol>
<symbol id="font_4_2">
<path d="M .49000005 .164 L .49000005 .2 L .379 .2 L .379 .646 C .379 .66700008 .379 .674 .35700003 .674 C .345 .674 .34100003 .674 .331 .66 L 0 .2 L 0 .164 L .294 .164 L .294 .082 C .294 .048 .294 .036000004 .213 .036000004 L .186 .036000004 L .186 0 C .236 .002 .3 .004 .33600004 .004 C .37300004 .004 .437 .002 .48700003 0 L .48700003 .036000004 L .46 .036000004 C .379 .036000004 .379 .048 .379 .082 L .379 .164 L .49000005 .164 M .301 .56600007 L .301 .2 L .037000006 .2 L .301 .56600007 Z "/>
</symbol>
<use xlink:href="#font_4_3" transform="matrix(6.9738,0,0,-6.9738,50.925588,72.40349)" fill="#800000"/>
<use xlink:href="#font_4_2" transform="matrix(6.9738,0,0,-6.9738,54.796045,72.264019)" fill="#800000"/>
<use xlink:href="#font_3_1" transform="matrix(9.9626,0,0,-9.9626,16.684544,96.59201)" fill="#008000"/>
<symbol id="font_4_1">
<path d="M .442 .18200001 L .40800003 .18200001 C .40500004 .16000001 .39500005 .101 .38200004 .091000009 C .374 .085 .29700003 .085 .28300003 .085 L .099 .085 C .20400003 .178 .23900002 .20600002 .29900003 .25300003 C .37300004 .312 .442 .374 .442 .469 C .442 .59000006 .33600004 .66400006 .20800004 .66400006 C .084 .66400006 0 .577 0 .485 C 0 .43400003 .043000007 .42900003 .053000004 .42900003 C .077 .42900003 .10600001 .446 .10600001 .48200003 C .10600001 .5 .099 .535 .047000007 .535 C .078 .606 .146 .628 .19300002 .628 C .293 .628 .34500004 .55 .34500004 .469 C .34500004 .38200004 .28300003 .31300003 .25100003 .277 L .010000005 .039 C 0 .030000002 0 .028 0 0 L .41200004 0 L .442 .18200001 Z "/>
</symbol>
<symbol id="font_4_4">
<path d="M .46500004 .624 C .47500003 .63600006 .47500003 .638 .47500003 .66400006 L .21300003 .66400006 C .17300001 .66400006 .162 .665 .12600002 .668 C .07400001 .672 .072000008 .679 .06900001 .69600006 L .035000005 .69600006 L 0 .48200003 L .034 .48200003 C .036000007 .49700005 .046000005 .563 .062 .573 C .07 .579 .15100003 .579 .16600001 .579 L .38400004 .579 C .35200004 .537 .30100004 .47500003 .28000004 .44700004 C .14900002 .27500005 .13700003 .116000007 .13700003 .057000005 C .13700003 .046000005 .13700003 0 .18400002 0 C .23200003 0 .23200003 .045 .23200003 .058000007 L .23200003 .098000008 C .23200003 .29200004 .272 .38100005 .31500004 .43500004 L .46500004 .624 Z "/>
</symbol>
<use xlink:href="#font_4_1" transform="matrix(6.9738,0,0,-6.9738,23.516352,98.08601)" fill="#008000"/>
<use xlink:href="#font_4_4" transform="matrix(6.9738,0,0,-6.9738,27.540236,98.22549)" fill="#008000"/>
</g>
<path transform="matrix(1,0,0,-1,12.133,174.63)" d="M 127.58376 129.11344 C 127.58376 130.21392 126.69167 131.10599 125.5912 131.10599 C 124.49072 131.10599 123.59865 130.21392 123.59865 129.11344 C 123.59865 128.01297 124.49072 127.12088 125.5912 127.12088 C 126.69167 127.12088 127.58376 128.01297 127.58376 129.11344 Z M 125.5912 129.11344 " fill="#800080"/>
<path transform="matrix(1,0,0,-1,12.133,174.63)" stroke-width=".3985" stroke-linecap="butt" stroke-miterlimit="10" stroke-linejoin="miter" fill="none" stroke="#800080" d="M 127.58376 129.11344 C 127.58376 130.21392 126.69167 131.10599 125.5912 131.10599 C 124.49072 131.10599 123.59865 130.21392 123.59865 129.11344 C 123.59865 128.01297 124.49072 127.12088 125.5912 127.12088 C 126.69167 127.12088 127.58376 128.01297 127.58376 129.11344 Z M 125.5912 129.11344 "/>
<path transform="matrix(1,0,0,-1,12.133,174.63)" d="M 54.97633 96.83507 C 54.97633 97.93555 54.08426 98.82762 52.98378 98.82762 C 51.88332 98.82762 50.99123 97.93555 50.99123 96.83507 C 50.99123 95.7346 51.88332 94.84251 52.98378 94.84251 C 54.08426 94.84251 54.97633 95.7346 54.97633 96.83507 Z M 52.98378 96.83507 " fill="#008000"/>
<path transform="matrix(1,0,0,-1,12.133,174.63)" stroke-width=".3985" stroke-linecap="butt" stroke-miterlimit="10" stroke-linejoin="miter" fill="none" stroke="#800080" d="M 54.97633 96.83507 C 54.97633 97.93555 54.08426 98.82762 52.98378 98.82762 C 51.88332 98.82762 50.99123 97.93555 50.99123 96.83507 C 50.99123 95.7346 51.88332 94.84251 52.98378 94.84251 C 54.08426 94.84251 54.97633 95.7346 54.97633 96.83507 Z M 52.98378 96.83507 "/>
<path transform="matrix(1,0,0,-1,12.133,174.63)" d="M 100.11067 0 C 100.11067 1.10046 99.2186 1.99255 98.11812 1.99255 C 97.01765 1.99255 96.12556 1.10046 96.12556 0 C 96.12556 -1.10046 97.01765 -1.99255 98.11812 -1.99255 C 99.2186 -1.99255 100.11067 -1.10046 100.11067 0 Z M 98.11812 0 " fill="#000080"/>
<path transform="matrix(1,0,0,-1,12.133,174.63)" stroke-width=".3985" stroke-linecap="butt" stroke-miterlimit="10" stroke-linejoin="miter" fill="none" stroke="#800080" d="M 100.11067 0 C 100.11067 1.10046 99.2186 1.99255 98.11812 1.99255 C 97.01765 1.99255 96.12556 1.10046 96.12556 0 C 96.12556 -1.10046 97.01765 -1.99255 98.11812 -1.99255 C 99.2186 -1.99255 100.11067 -1.10046 100.11067 0 Z M 98.11812 0 "/>
<symbol id="font_3_3">
<path d="M .305 .31300003 C .311 .33900003 .334 .43100003 .404 .43100003 C .409 .43100003 .433 .43100003 .454 .418 C .426 .41300003 .40600003 .388 .40600003 .36400003 C .40600003 .34800003 .417 .32900004 .444 .32900004 C .46600003 .32900004 .498 .34700004 .498 .38700003 C .498 .43900005 .439 .45300005 .405 .45300005 C .347 .45300005 .312 .40000005 .3 .37700004 C .275 .44300003 .221 .45300005 .19200002 .45300005 C .08800001 .45300005 .031000002 .32400004 .031000002 .29900003 C .031000002 .28900004 .041 .28900004 .043000007 .28900004 C .051000008 .28900004 .054000006 .291 .056 .3 C .09 .40600003 .156 .43100003 .19000001 .43100003 C .209 .43100003 .244 .42200003 .244 .36400003 C .244 .33300004 .22700002 .26600004 .19000001 .126 C .17400001 .064 .13900002 .022000002 .095000009 .022000002 C .08900001 .022000002 .06600001 .022000002 .045 .035 C .07000001 .040000004 .09200001 .061 .09200001 .089 C .09200001 .116000007 .07000001 .124000009 .055000009 .124000009 C .025 .124000009 0 .098000008 0 .06600001 C 0 .020000002 .050000006 0 .094000007 0 C .16000001 0 .19600001 .07000001 .19900002 .076000008 C .21100001 .039 .24700003 0 .307 0 C .41 0 .467 .12900001 .467 .15400002 C .467 .16400002 .458 .16400002 .455 .16400002 C .446 .16400002 .444 .16000001 .442 .15300001 C .409 .046 .341 .022000002 .30900003 .022000002 C .27 .022000002 .254 .054 .254 .08800001 C .254 .11000001 .26 .13200002 .271 .17600002 L .305 .31300003 Z "/>
</symbol>
<use xlink:href="#font_3_3" transform="matrix(9.9626,0,0,-9.9626,212.27791,176.8846)"/>
<symbol id="font_3_4">
<path d="M .45700003 .586 C .461 .6 .461 .602 .461 .609 C .461 .62700006 .447 .63600006 .432 .63600006 C .42200003 .63600006 .40600003 .63 .397 .615 C .395 .61 .387 .579 .38300003 .561 C .37600003 .535 .36900003 .508 .363 .48100005 L .318 .301 C .314 .286 .271 .21600002 .20500002 .21600002 C .15400002 .21600002 .143 .26000003 .143 .29700003 C .143 .34300003 .16000001 .40500004 .194 .49300004 C .21000001 .53400006 .21400002 .545 .21400002 .56500008 C .21400002 .61 .18200001 .6470001 .13200002 .6470001 C .037 .6470001 0 .50200006 0 .49300004 C 0 .48300005 .01 .48300005 .012 .48300005 C .022000002 .48300005 .023 .485 .028000003 .50100007 C .055000009 .595 .095000009 .625 .12900001 .625 C .13700001 .625 .15400002 .625 .15400002 .59300008 C .15400002 .568 .14400001 .54200008 .13700001 .523 C .097 .41700004 .079 .36 .079 .31300003 C .079 .224 .142 .194 .201 .194 C .24000003 .194 .274 .21100001 .30200003 .23900002 C .289 .187 .277 .13800001 .237 .08500001 C .21100001 .051 .17300001 .022 .127 .022 C .113000009 .022 .068 .025000006 .051000008 .06400001 C .067 .06400001 .080000009 .06400001 .094000007 .076000008 C .104 .08500001 .11400001 .098000008 .11400001 .117000009 C .11400001 .148 .087000008 .15200001 .07700001 .15200001 C .054000006 .15200001 .021 .136 .021 .087000008 C .021 .037 .065000008 0 .127 0 C .23 0 .333 .091000009 .361 .20400001 L .45700003 .586 Z "/>
</symbol>
<use xlink:href="#font_3_4" transform="matrix(9.9626,0,0,-9.9626,11.762916,9.726339)"/>
</svg>
