<?xml version="1.0" encoding="UTF-8" standalone="no"?>
<!DOCTYPE svg PUBLIC "-//W3C//DTD SVG 1.1//EN" "http://www.w3.org/Graphics/SVG/1.1/DTD/svg11.dtd">
<svg xmlns="http://www.w3.org/2000/svg" xmlns:xlink="http://www.w3.org/1999/xlink" version="1.1" width="174.376pt" height="181.659pt" viewBox="0 0 174.376 181.659">
<path transform="matrix(1,0,0,-1,-322.589,174.63899)" stroke-width=".19925" stroke-linecap="butt" stroke-miterlimit="10" stroke-linejoin="miter" fill="none" stroke="#929292" d="M 401.36503 0 L 405.61677 0 M 401.36503 161.39636 L 405.61677 161.39636 "/>
<path transform="matrix(1,0,0,-1,-322.589,174.63899)" stroke-width=".3985" stroke-linecap="butt" stroke-miterlimit="10" stroke-linejoin="miter" fill="none" stroke="#000000" d="M 322.79273 80.69818 L 482.19657 80.69818 "/>
<path transform="matrix(1,0,0,-1,159.60758,93.94081)" d="M 1.99252 0 L -1.19551 1.59401 L 0 0 L -1.19551 -1.59401 "/>
<path transform="matrix(1,0,0,-1,-322.589,174.63899)" stroke-width=".3985" stroke-linecap="butt" stroke-miterlimit="10" stroke-linejoin="miter" fill="none" stroke="#000000" d="M 403.4909 0 L 403.4909 159.40384 "/>
<path transform="matrix(0,-1,-1,-0,80.90192,15.235153)" d="M 1.99252 0 L -1.19551 1.59401 L 0 0 L -1.19551 -1.59401 "/>
<symbol id="font_0_1">
<path d="M .57600006 0 C .59300008 0 .611 0 .611 .019999996 C .611 .040000008 .59300008 .040000008 .57600006 .040000008 L .035000005 .040000008 C .018 .040000008 0 .040000008 0 .019999996 C 0 0 .018 0 .035000005 0 L .57600006 0 Z "/>
</symbol>
<use xlink:href="#font_0_1" transform="matrix(9.9626,0,0,-9.9626,63.27392,175.1426)"/>
<symbol id="font_1_4">
<path d="M .205 .64000007 C .205 .66400006 .205 .666 .18200003 .666 C .120000008 .60200008 .032000007 .60200008 0 .60200008 L 0 .57100006 C .020000004 .57100006 .07900001 .57100006 .13100001 .597 L .13100001 .079 C .13100001 .043 .128 .031000002 .038000004 .031000002 L .0060000049 .031000002 L .0060000049 0 C .04100001 .003 .128 .003 .168 .003 C .20800002 .003 .29500003 .003 .33000005 0 L .33000005 .031000002 L .29800005 .031000002 C .20800002 .031000002 .205 .042000005 .205 .079 L .205 .64000007 Z "/>
</symbol>
<use xlink:href="#font_1_4" transform="matrix(9.9626,0,0,-9.9626,71.082698,177.43399)"/>
<use xlink:href="#font_1_4" transform="matrix(9.9626,0,0,-9.9626,71.08269,16.454987)"/>
<clipPath id="cp2">
<path transform="matrix(1,0,0,-1,-322.589,174.63899)" d="M 322.79273 0 L 484.1891 0 L 484.1891 161.39636 L 322.79273 161.39636 Z "/>
</clipPath>
<g clip-path="url(#cp2)">
<path transform="matrix(1,0,0,-1,-322.589,174.63899)" stroke-width="1.19553" stroke-linecap="butt" stroke-miterlimit="10" stroke-linejoin="miter" fill="none" stroke="#000080" d="M 274.3738 .0379 C 274.3738 .0379 276.2584 .0005 276.9822 .00241 C 277.70603 .0043 278.8668 .0259 279.5906 .05164 C 280.31443 .07738 281.47523 .13864 282.19905 .188 C 282.92286 .23738 284.08363 .33507 284.80744 .40752 C 285.53126 .47995 286.69203 .61441 287.41587 .71014 C 288.13966 .80586 289.3004 .9787 290.02427 1.09749 C 290.74806 1.21628 291.90885 1.42493 292.63264 1.56633 C 293.35646 1.70773 294.51728 1.95267 295.24107 2.1167 C 295.96488 2.28073 297.12568 2.56137 297.84947 2.74857 C 298.57328 2.93576 299.73408 3.25581 300.4579 3.46597 C 301.1817 3.67612 302.34248 4.03128 303.06629 4.26328 C 303.7901 4.49529 304.95088 4.884 305.67469 5.13805 C 306.3985 5.39209 307.5593 5.81854 308.2831 6.09431 C 309.0069 6.37007 310.1677 6.82858 310.8915 7.12563 C 311.6153 7.42268 312.77613 7.91714 313.4999 8.23524 C 314.22373 8.55333 315.3845 9.07903 316.1083 9.41827 C 316.83216 9.75752 317.9929 10.32019 318.7167 10.68039 C 319.44056 11.04059 320.60133 11.6342 321.32514 12.01433 C 322.04896 12.39445 323.20973 13.02028 323.93354 13.4201 C 324.65736 13.81993 325.81816 14.47743 326.54197 14.89606 C 327.26576 15.3147 328.42655 16.00008 329.15037 16.43741 C 329.87416 16.87474 331.03495 17.5921 331.75877 18.04813 C 332.48258 18.50417 333.64338 19.25006 334.36717 19.72424 C 335.091 20.19843 336.25175 20.97408 336.97557 21.4657 C 337.6994 21.95734 338.86018 22.75935 339.58399 23.26768 C 340.3078 23.776 341.46858 24.60474 342.1924 25.1294 C 342.9162 25.65407 344.07698 26.50864 344.8008 27.04921 C 345.5246 27.58977 346.6854 28.46971 347.4092 29.02551 C 348.13304 29.58131 349.2938 30.48459 350.0176 31.05507 C 350.74143 31.62553 351.9022 32.55229 352.626 33.13708 C 353.34986 33.72188 354.51063 34.6718 355.2344 35.26991 C 355.95826 35.86804 357.11903 36.8372 357.84284 37.44797 C 358.56666 38.05873 359.72743 39.04881 360.45127 39.67201 C 361.17506 40.29523 362.33583 41.3049 363.05967 41.93964 C 363.78346 42.57437 364.94425 43.60143 365.66807 44.2468 C 366.39189 44.89217 367.55268 45.93529 368.27647 46.59108 C 369.00028 47.24686 370.16108 48.30765 370.88487 48.97328 C 371.60868 49.63892 372.76948 50.7142 373.4933 51.38858 C 374.2171 52.06296 375.37788 53.1513 376.10169 53.83374 C 376.8255 54.51617 377.98628 55.61742 378.7101 56.30713 C 379.4339 56.99684 380.59468 58.1083 381.3185 58.80475 C 382.0423 59.50117 383.2031 60.6241 383.9269 61.32657 C 384.6507 62.02904 385.81153 63.1599 386.5353 63.86775 C 387.25914 64.57559 388.4199 65.71587 389.1437 66.4283 C 389.86753 67.14075 391.02833 68.28654 391.75215 69.00258 C 392.47596 69.71861 393.63673 70.86981 394.36054 71.58897 C 395.08436 72.30812 396.24513 73.46452 396.96894 74.18582 C 397.69276 74.9071 398.85356 76.06502 399.57737 76.78754 C 400.30116 77.51006 401.46195 78.66997 402.18577 79.39326 C 402.90956 80.11656 404.07038 81.27711 404.79417 82.00064 C 405.51799 82.72415 406.67878 83.88525 407.40257 84.608 C 408.1264 85.33075 409.28718 86.48863 410.01097 87.2097 C 410.7348 87.93076 411.89558 89.0859 412.6194 89.80496 C 413.3432 90.52402 414.50398 91.67613 415.22779 92.39215 C 415.9516 93.10815 417.1124 94.25327 417.8362 94.96559 C 418.56 95.67793 419.7208 96.81831 420.4446 97.52615 C 421.1684 98.23401 422.3292 99.36488 423.053 100.06735 C 423.77684 100.76982 424.9376 101.89262 425.6614 102.58916 C 426.38526 103.2857 427.546 104.39764 428.2698 105.08759 C 428.99366 105.77753 430.15443 106.87946 430.87825 107.56178 C 431.60206 108.24411 432.76283 109.33118 433.48664 110.00533 C 434.21046 110.67947 435.37123 111.75497 436.09507 112.42061 C 436.81886 113.08624 437.97966 114.14693 438.70347 114.80283 C 439.42729 115.45872 440.58805 116.50246 441.31187 117.14793 C 442.03569 117.7934 443.19648 118.82022 443.92027 119.45508 C 444.6441 120.08992 445.80488 121.10042 446.52867 121.72351 C 447.2525 122.3466 448.41328 123.33516 449.1371 123.94594 C 449.8609 124.5567 451.02168 125.52724 451.7455 126.1256 C 452.4693 126.72394 453.63008 127.67365 454.3539 128.25844 C 455.0777 128.84325 456.2385 129.77011 456.9623 130.34047 C 457.68614 130.91082 458.8469 131.81342 459.5707 132.36922 C 460.29454 132.92502 461.45533 133.80576 462.1791 134.34632 C 462.90296 134.88689 464.06373 135.74077 464.78755 136.26534 C 465.51136 136.78989 466.67213 137.6187 467.39595 138.12703 C 468.11976 138.63535 469.28053 139.4375 470.00437 139.92902 C 470.72816 140.42055 471.88893 141.19539 472.61277 141.66968 C 473.33656 142.14397 474.49736 142.89115 475.22117 143.3474 C 475.94499 143.80365 477.10578 144.52069 477.82957 144.95815 C 478.55339 145.39559 479.71418 146.08174 480.43797 146.50028 C 481.16178 146.9188 482.32258 147.57514 483.0464 147.97463 C 483.7702 148.37412 484.93098 148.99945 485.6548 149.37958 C 486.3786 149.7597 487.53938 150.35414 488.2632 150.71434 C 488.987 151.07454 490.1478 151.6364 490.8716 151.97565 C 491.5954 152.3149 492.7562 152.84128 493.48 153.15949 C 494.2038 153.47769 495.36463 153.97194 496.0884 154.26909 C 496.81224 154.56624 497.973 155.02545 498.6968 155.30121 C 499.42063 155.57698 500.58143 156.00252 501.30525 156.25667 C 502.02906 156.51084 503.18983 156.90106 503.91365 157.13306 C 504.63746 157.36505 505.79823 157.7187 506.52204 157.92876 C 507.24586 158.1388 508.40666 158.45954 509.13047 158.64696 C 509.85426 158.83438 511.01506 159.1155 511.73887 159.27964 C 512.46267 159.44377 513.6235 159.6886 514.3473 159.83 C 515.0711 159.97142 516.2319 160.18029 516.9557 160.29885 C 517.6795 160.4174 518.8403 160.58908 519.5641 160.68459 C 520.2879 160.78009 521.44869 160.91455 522.1725 160.98722 C 522.8963 161.05988 524.05709 161.15874 524.7809 161.20833 C 525.5047 161.25792 526.6655 161.31897 527.3893 161.3447 C 528.1131 161.37044 529.2739 161.39203 529.9977 161.39392 C 530.72158 161.39583 532.60617 161.35843 532.60617 161.35843 "/>
<path transform="matrix(1,0,0,-1,-322.589,174.63899)" stroke-width=".3985" stroke-linecap="butt" stroke-dasharray="2.98883,2.98883" stroke-miterlimit="10" stroke-linejoin="miter" fill="none" stroke="#000000" d="M 403.4909 80.69818 L 426.7041 80.69818 "/>
<path transform="matrix(1,0,0,-1,104.11511,93.94081)" d="M .797 0 C -.19925 .19925 -1.19551 .59775 -2.39102 1.29512 C -1.19551 .3985 -1.19551 -.3985 -2.39102 -1.29512 C -1.19551 -.59775 -.19925 -.19925 .797 0 Z "/>
<path transform="matrix(1,0,0,-1,104.11511,93.94081)" stroke-width=".3985" stroke-linecap="butt" stroke-linejoin="round" fill="none" stroke="#000000" d="M .797 0 C -.19925 .19925 -1.19551 .59775 -2.39102 1.29512 C -1.19551 .3985 -1.19551 -.3985 -2.39102 -1.29512 C -1.19551 -.59775 -.19925 -.19925 .797 0 Z "/>
<path transform="matrix(1,0,0,-1,-322.589,174.63899)" stroke-width=".3985" stroke-linecap="butt" stroke-dasharray="2.98883,2.98883" stroke-miterlimit="10" stroke-linejoin="miter" fill="none" stroke="#000000" d="M 427.70036 80.69818 L 427.70036 103.91136 "/>
<path transform="matrix(0,-1,-1,-0,105.11136,70.72763)" d="M .797 0 C -.19925 .19925 -1.19551 .59775 -2.39102 1.29512 C -1.19551 .3985 -1.19551 -.3985 -2.39102 -1.29512 C -1.19551 -.59775 -.19925 -.19925 .797 0 Z "/>
<path transform="matrix(0,-1,-1,-0,105.11136,70.72763)" stroke-width=".3985" stroke-linecap="butt" stroke-linejoin="round" fill="none" stroke="#000000" d="M .797 0 C -.19925 .19925 -1.19551 .59775 -2.39102 1.29512 C -1.19551 .3985 -1.19551 -.3985 -2.39102 -1.29512 C -1.19551 -.59775 -.19925 -.19925 .797 0 Z "/>
<path transform="matrix(1,0,0,-1,-322.589,174.63899)" stroke-width=".79701" stroke-linecap="butt" stroke-miterlimit="10" stroke-linejoin="miter" fill="none" stroke="#800000" d="M 0 -322.79273 C 0 -322.79273 24.29324 -298.49946 33.62369 -289.169 C 42.95413 -279.8386 57.91695 -264.87577 67.24739 -255.5453 C 76.57784 -246.21488 91.54065 -231.25205 100.8711 -221.9216 C 110.20154 -212.59116 125.16435 -197.62834 134.4948 -188.2979 C 143.82524 -178.96746 158.78806 -164.00464 168.1185 -154.6742 C 177.44895 -145.34375 192.41178 -130.38094 201.7422 -121.05049 C 211.07265 -111.72005 226.03548 -96.75723 235.36592 -87.42679 C 244.69635 -78.09634 259.65919 -63.13351 268.98963 -53.80307 C 278.32008 -44.47264 293.28288 -29.50981 302.61335 -20.17937 C 311.94377 -10.84892 326.9066 4.11386 336.23704 13.4443 C 345.56748 22.77475 360.5303 37.73756 369.86073 47.06801 C 379.1912 56.39845 394.154 71.36127 403.48445 80.69171 C 412.81489 90.02216 427.7777 104.98497 437.10816 114.31541 C 446.43858 123.64586 461.4014 138.60869 470.73188 147.93912 C 480.0623 157.26956 495.02513 172.23239 504.35557 181.56284 C 513.686 190.89327 528.6488 205.8561 537.97927 215.18654 C 547.3097 224.51699 562.2725 239.4798 571.60299 248.81024 C 580.9334 258.1407 595.89627 273.1035 605.2267 282.43394 C 614.5571 291.7644 629.51998 306.7272 638.85037 316.05766 C 648.18087 325.3881 663.1437 340.35093 672.47409 349.68135 C 681.8045 359.0118 696.76736 373.9746 706.0978 383.30509 C 715.4282 392.6355 730.39108 407.59834 739.7215 416.92878 C 749.05197 426.25923 764.0148 441.22203 773.3452 450.55247 C 782.67568 459.88294 806.9689 484.17619 806.9689 484.17619 "/>
<symbol id="font_3_4">
<path d="M .314 .605 L .4 .605 C .42000003 .605 .43 .605 .43 .625 C .43 .63600006 .42000003 .63600006 .40300004 .63600006 L .32000003 .63600006 L .34100003 .75 C .34500004 .771 .35900004 .842 .365 .8540001 C .374 .873 .39100004 .888 .41200004 .888 C .416 .888 .44200004 .888 .461 .87 C .41700004 .86600008 .407 .8310001 .407 .816 C .407 .793 .425 .781 .444 .781 C .47 .781 .49900005 .8030001 .49900005 .8410001 C .49900005 .8870001 .45300005 .9100001 .41200004 .9100001 C .37800003 .9100001 .31500004 .8920001 .28500004 .793 C .279 .7720001 .27600003 .7620001 .252 .63600006 L .18300002 .63600006 C .164 .63600006 .15300001 .63600006 .15300001 .61700007 C .15300001 .605 .162 .605 .18100001 .605 L .24700001 .605 L .172 .21000001 C .15400002 .113000009 .13700001 .022 .08500001 .022 C .081 .022 .056 .022 .037 .040000008 C .083000008 .043000014 .09200001 .07900001 .09200001 .094000007 C .09200001 .117000009 .074 .12900001 .055 .12900001 C .029 .12900001 0 .10700001 0 .069000009 C 0 .024000004 .044 0 .08500001 0 C .14 0 .18 .059 .19800002 .09700001 C .23000002 .16000001 .25300003 .28100003 .254 .28800003 L .314 .605 Z "/>
</symbol>
<use xlink:href="#font_3_4" transform="matrix(9.9626,0,0,-9.9626,147.84903,44.40833)" fill="#000080"/>
<symbol id="font_3_2">
<path d="M .335 .605 C .344 .64100006 .347 .652 .441 .652 C .47100006 .652 .479 .652 .479 .671 C .479 .683 .46800003 .683 .46300004 .683 C .43 .683 .34800003 .68 .315 .68 C .285 .68 .21200001 .683 .18200001 .683 C .17500001 .683 .163 .683 .163 .66300007 C .163 .652 .172 .652 .191 .652 C .193 .652 .21200001 .652 .229 .65000006 C .24700001 .648 .256 .647 .256 .634 C .256 .63000008 .255 .62700006 .252 .615 L .118 .078 C .107999999 .039 .106000009 .031000002 .026999999 .031000002 C .010000002 .031000002 0 .031000002 0 .011000001 C 0 0 .009 0 .026999999 0 L .49000005 0 C .51400008 0 .51500007 0 .521 .017 L .6000001 .23300001 C .60400006 .24400002 .60400006 .246 .60400006 .24700001 C .60400006 .25100003 .6010001 .25800003 .59200009 .25800003 C .58300009 .25800003 .5820001 .25300003 .57500007 .23700002 C .54100009 .14500001 .497 .031000002 .324 .031000002 L .23000002 .031000002 C .21600002 .031000002 .21400002 .031000002 .208 .032 C .19800002 .033 .19500001 .034 .19500001 .042000005 C .19500001 .045 .19500001 .047000003 .2 .065000008 L .335 .605 Z "/>
</symbol>
<use xlink:href="#font_3_2" transform="matrix(9.9626,0,0,-9.9626,147.29454,20.279999)" fill="#800000"/>
<symbol id="font_3_3">
<path d="M .47600005 .694 C .47600005 .695 .47600005 .705 .46300004 .705 C .44800005 .705 .35300002 .69600006 .33600004 .694 C .32800005 .693 .32200004 .688 .32200004 .675 C .32200004 .663 .33100004 .663 .34600003 .663 C .39400003 .663 .39600004 .656 .39600004 .646 L .39300005 .626 L .33300004 .38900004 C .31500004 .42600004 .286 .45300005 .24100001 .45300005 C .124 .45300005 0 .30600003 0 .16000001 C 0 .06600001 .055000005 0 .133 0 C .153 0 .20300001 .0040000008 .263 .075 C .27100004 .033000005 .30600003 0 .35400004 0 C .38900004 0 .41200004 .023000002 .42800004 .055000005 C .44500003 .091000009 .45800004 .15200001 .45800004 .15400002 C .45800004 .16400002 .44900004 .16400002 .44600005 .16400002 C .43600003 .16400002 .43500004 .16000001 .43200005 .14600002 C .41500003 .081 .397 .022000002 .35600005 .022000002 C .32900004 .022000002 .32600004 .048 .32600004 .068 C .32600004 .092 .32800005 .09900001 .33200003 .116000007 L .47600005 .694 M .26800005 .13000001 C .263 .112 .263 .11000001 .24800001 .093 C .20400001 .038000004 .163 .022000002 .135 .022000002 C .08499999 .022000002 .07100001 .077 .07100001 .116000007 C .07100001 .16600001 .103 .28900004 .126 .335 C .157 .39400003 .202 .43100003 .242 .43100003 C .307 .43100003 .32100005 .34900005 .32100005 .34300003 C .32100005 .337 .31900005 .33100004 .31800003 .32600004 L .26800005 .13000001 Z "/>
</symbol>
<symbol id="font_3_5">
<path d="M .305 .31300003 C .311 .33900003 .334 .43100003 .404 .43100003 C .409 .43100003 .433 .43100003 .454 .418 C .426 .41300003 .40600003 .388 .40600003 .36400003 C .40600003 .34800003 .417 .32900004 .444 .32900004 C .46600003 .32900004 .498 .34700004 .498 .38700003 C .498 .43900005 .439 .45300005 .405 .45300005 C .347 .45300005 .312 .40000005 .3 .37700004 C .275 .44300003 .221 .45300005 .19200002 .45300005 C .08800001 .45300005 .031000002 .32400004 .031000002 .29900003 C .031000002 .28900004 .041 .28900004 .043000007 .28900004 C .051000008 .28900004 .054000006 .291 .056 .3 C .09 .40600003 .156 .43100003 .19000001 .43100003 C .209 .43100003 .244 .42200003 .244 .36400003 C .244 .33300004 .22700002 .26600004 .19000001 .126 C .17400001 .064 .13900002 .022000002 .095000009 .022000002 C .08900001 .022000002 .06600001 .022000002 .045 .035 C .07000001 .040000004 .09200001 .061 .09200001 .089 C .09200001 .116000007 .07000001 .124000009 .055000009 .124000009 C .025 .124000009 0 .098000008 0 .06600001 C 0 .020000002 .050000006 0 .094000007 0 C .16000001 0 .19600001 .07000001 .19900002 .076000008 C .21100001 .039 .24700003 0 .307 0 C .41 0 .467 .12900001 .467 .15400002 C .467 .16400002 .458 .16400002 .455 .16400002 C .446 .16400002 .444 .16000001 .442 .15300001 C .409 .046 .341 .022000002 .30900003 .022000002 C .27 .022000002 .254 .054 .254 .08800001 C .254 .11000001 .26 .13200002 .271 .17600002 L .305 .31300003 Z "/>
</symbol>
<use xlink:href="#font_3_3" transform="matrix(9.9626,0,0,-9.9626,87.95951,104.56358)"/>
<use xlink:href="#font_3_5" transform="matrix(9.9626,0,0,-9.9626,93.040439,104.56358)"/>
<symbol id="font_3_6">
<path d="M .45700003 .586 C .461 .6 .461 .602 .461 .609 C .461 .62700006 .447 .63600006 .432 .63600006 C .42200003 .63600006 .40600003 .63 .397 .615 C .395 .61 .387 .579 .38300003 .561 C .37600003 .535 .36900003 .508 .363 .48100005 L .318 .301 C .314 .286 .271 .21600002 .20500002 .21600002 C .15400002 .21600002 .143 .26000003 .143 .29700003 C .143 .34300003 .16000001 .40500004 .194 .49300004 C .21000001 .53400006 .21400002 .545 .21400002 .56500008 C .21400002 .61 .18200001 .6470001 .13200002 .6470001 C .037 .6470001 0 .50200006 0 .49300004 C 0 .48300005 .01 .48300005 .012 .48300005 C .022000002 .48300005 .023 .485 .028000003 .50100007 C .055000009 .595 .095000009 .625 .12900001 .625 C .13700001 .625 .15400002 .625 .15400002 .59300008 C .15400002 .568 .14400001 .54200008 .13700001 .523 C .097 .41700004 .079 .36 .079 .31300003 C .079 .224 .142 .194 .201 .194 C .24000003 .194 .274 .21100001 .30200003 .23900002 C .289 .187 .277 .13800001 .237 .08500001 C .21100001 .051 .17300001 .022 .127 .022 C .113000009 .022 .068 .025000006 .051000008 .06400001 C .067 .06400001 .080000009 .06400001 .094000007 .076000008 C .104 .08500001 .11400001 .098000008 .11400001 .117000009 C .11400001 .148 .087000008 .15200001 .07700001 .15200001 C .054000006 .15200001 .021 .136 .021 .087000008 C .021 .037 .065000008 0 .127 0 C .23 0 .333 .091000009 .361 .20400001 L .45700003 .586 Z "/>
</symbol>
<use xlink:href="#font_3_3" transform="matrix(9.9626,0,0,-9.9626,109.09751,84.437587)"/>
<use xlink:href="#font_3_6" transform="matrix(9.9626,0,0,-9.9626,114.17844,86.37033)"/>
<symbol id="font_1_1">
<path d="M .23200003 .00999999 C .23200003 .012999982 .23200003 .014999986 .215 .03199999 C .09 .15799999 .058 .347 .058 .5 C .058 .674 .096 .84800007 .21900001 .97300007 C .23200003 .985 .23200003 .98700007 .23200003 .99 C .23200003 .99700006 .22800002 1 .222 1 C .21200001 1 .12200001 .93200007 .06299999 .805 C .012000002 .69500008 0 .584 0 .5 C 0 .422 .011 .301 .066 .188 C .126 .065 .21200001 0 .222 0 C .22800002 0 .23200003 .0029999912 .23200003 .00999999 Z "/>
</symbol>
<symbol id="font_1_3">
<path d="M .421 .34200005 C .421 .42200003 .416 .50200006 .381 .57600006 C .335 .67200008 .25300003 .688 .211 .688 C .15100001 .688 .07800001 .66200008 .037000006 .56900009 C .0050000029 .5 0 .42200003 0 .34200005 C 0 .26700003 .0040000008 .177 .045000007 .101 C .088 .020000002 .161 0 .21000001 0 C .264 0 .34 .021000002 .384 .116000007 C .416 .185 .421 .263 .421 .34200005 M .21000001 .022000002 C .171 .022000002 .112 .047000003 .094 .143 C .083000008 .20300001 .083000008 .29500003 .083000008 .35400004 C .083000008 .41800005 .083000008 .48400004 .091000009 .53800007 C .11 .65700009 .185 .66600009 .21000001 .66600009 C .243 .66600009 .30900003 .64800009 .328 .549 C .338 .49300004 .338 .41700004 .338 .35400004 C .338 .279 .338 .21100001 .32700003 .147 C .312 .052 .255 .022000002 .21000001 .022000002 Z "/>
</symbol>
<use xlink:href="#font_1_1" transform="matrix(9.9626,0,0,-9.9626,56.1503,90.34864)" fill="#800080"/>
<use xlink:href="#font_1_3" transform="matrix(9.9626,0,0,-9.9626,59.427995,88.07717)" fill="#800080"/>
<symbol id="font_3_1">
<path d="M .117000009 .194 C .117000009 .26 .092 .29900003 .05300001 .29900003 C .020000004 .29900003 0 .274 0 .246 C 0 .21900001 .020000004 .193 .05300001 .193 C .065000008 .193 .078 .197 .08800001 .206 C .091 .208 .092 .209 .093 .209 C .094000007 .209 .095000009 .208 .095000009 .194 C .095000009 .12 .06000001 .060000004 .027000003 .026999996 C .016000003 .016000003 .016000003 .013999999 .016000003 .0109999929 C .016000003 .003999993 .021000006 0 .026 0 C .037 0 .117000009 .077 .117000009 .194 Z "/>
</symbol>
<use xlink:href="#font_3_1" transform="matrix(9.9626,0,0,-9.9626,64.87578,89.78078)" fill="#800080"/>
<symbol id="font_1_2">
<path d="M .232 .5 C .232 .578 .22100002 .699 .16600001 .81200006 C .106 .93500009 .020000004 1 .009999998 1 C .0040000008 1 0 .99600008 0 .99 C 0 .98700007 0 .985 .019000002 .967 C .117000009 .86800006 .174 .709 .174 .5 C .174 .329 .137 .153 .012999997 .026999996 C 0 .014999986 0 .012999982 0 .00999999 C 0 .003999993 .0040000008 0 .009999998 0 C .020000004 0 .11000001 .06799999 .169 .195 C .22 .305 .232 .416 .232 .5 Z "/>
</symbol>
<use xlink:href="#font_1_3" transform="matrix(9.9626,0,0,-9.9626,68.83554,88.07717)" fill="#800080"/>
<use xlink:href="#font_1_2" transform="matrix(9.9626,0,0,-9.9626,73.99617,90.34864)" fill="#800080"/>
</g>
<path transform="matrix(1,0,0,-1,-322.589,174.63899)" d="M 405.48347 80.69818 C 405.48347 81.79865 404.59138 82.69073 403.4909 82.69073 C 402.39045 82.69073 401.49836 81.79865 401.49836 80.69818 C 401.49836 79.5977 402.39045 78.70563 403.4909 78.70563 C 404.59138 78.70563 405.48347 79.5977 405.48347 80.69818 Z M 403.4909 80.69818 " fill="#800080"/>
<path transform="matrix(1,0,0,-1,-322.589,174.63899)" stroke-width=".3985" stroke-linecap="butt" stroke-miterlimit="10" stroke-linejoin="miter" fill="none" stroke="#800080" d="M 405.48347 80.69818 C 405.48347 81.79865 404.59138 82.69073 403.4909 82.69073 C 402.39045 82.69073 401.49836 81.79865 401.49836 80.69818 C 401.49836 79.5977 402.39045 78.70563 403.4909 78.70563 C 404.59138 78.70563 405.48347 79.5977 405.48347 80.69818 Z M 403.4909 80.69818 "/>
<use xlink:href="#font_3_5" transform="matrix(9.9626,0,0,-9.9626,165.57593,96.17959)"/>
<use xlink:href="#font_3_6" transform="matrix(9.9626,0,0,-9.9626,78.641918,9.725332)"/>
</svg>
