<?xml version="1.0" encoding="UTF-8" standalone="no"?>
<!DOCTYPE svg PUBLIC "-//W3C//DTD SVG 1.1//EN" "http://www.w3.org/Graphics/SVG/1.1/DTD/svg11.dtd">
<svg xmlns="http://www.w3.org/2000/svg" xmlns:xlink="http://www.w3.org/1999/xlink" version="1.1" width="180.131pt" height="180.179pt" viewBox="0 0 180.131 180.179">
<path transform="matrix(1,0,0,-1,-397.548,174.64)" stroke-width=".3985" stroke-linecap="butt" stroke-miterlimit="10" stroke-linejoin="miter" fill="none" stroke="#000000" d="M 403.4909 0 L 562.8947 0 "/>
<path transform="matrix(1,0,0,-1,165.34671,174.64)" d="M 1.99252 0 L -1.19551 1.59401 L 0 0 L -1.19551 -1.59401 "/>
<path transform="matrix(1,0,0,-1,-397.548,174.64)" stroke-width=".3985" stroke-linecap="butt" stroke-miterlimit="10" stroke-linejoin="miter" fill="none" stroke="#000000" d="M 403.4909 0 L 403.4909 159.40384 "/>
<path transform="matrix(0,-1,-1,-0,5.9429018,15.23616)" d="M 1.99252 0 L -1.19551 1.59401 L 0 0 L -1.19551 -1.59401 "/>
<clipPath id="cp0">
<path transform="matrix(1,0,0,-1,-397.548,174.64)" d="M 403.4909 0 L 564.88729 0 L 564.88729 161.39636 L 403.4909 161.39636 Z "/>
</clipPath>
<g clip-path="url(#cp0)">
<path transform="matrix(1,0,0,-1,-397.548,174.64)" stroke-width=".79701" stroke-linecap="butt" stroke-miterlimit="10" stroke-linejoin="miter" fill="none" stroke="#000080" d="M 403.4909 -161.39636 C 403.4909 -161.39636 410.779 -92.5981 413.57817 -75.80301 C 416.37736 -59.00793 420.86628 -49.04285 423.66545 -40.34909 C 426.4646 -31.65532 430.95356 -20.10107 433.75273 -13.14432 C 436.5519 -6.18758 441.04084 3.80463 443.84 9.79028 C 446.63917 15.77594 451.1281 24.65807 453.92726 29.99617 C 456.72645 35.33427 461.21537 43.39828 464.01454 48.26364 C 466.8137 53.12901 471.30265 60.56259 474.1018 65.06232 C 476.901 69.56204 481.38993 76.48805 484.1891 80.69453 C 486.98826 84.90103 491.4772 91.4152 494.27635 95.37988 C 497.07554 99.34456 501.56446 105.50908 504.36363 109.26921 C 507.1628 113.02934 511.65174 118.89592 514.4509 122.48032 C 517.25009 126.0647 521.739 131.67179 524.5382 135.10295 C 527.33737 138.53414 531.8263 143.91371 534.6254 147.20989 C 537.4246 150.50606 541.9135 155.68354 544.7127 158.85951 C 547.5119 162.03549 552.0008 167.03215 554.8 170.10019 C 557.5992 173.16823 562.0881 178.00145 564.88729 180.97183 C 567.6864 183.94223 572.17538 188.62728 574.97457 191.5088 C 577.7737 194.39032 582.26266 198.93972 585.0618 201.7399 C 587.86099 204.54009 592.3499 208.96515 595.1491 211.69062 C 597.94827 214.41606 602.4372 218.72676 605.2364 221.38312 C 608.0355 224.03949 612.5245 228.24367 615.3236 230.83586 C 618.1228 233.42806 622.61178 237.53334 625.4109 240.06587 C 628.2101 242.59839 632.699 246.61176 635.49819 249.08864 C 638.29739 251.5655 645.58547 257.91746 645.58547 257.91746 "/>
<path transform="matrix(1,0,0,-1,-397.548,174.64)" stroke-width=".79701" stroke-linecap="butt" stroke-miterlimit="10" stroke-linejoin="miter" fill="none" stroke="#800000" d="M 0 -645.58547 C 0 -645.58547 24.29324 -609.1456 33.62369 -595.1499 C 42.95413 -581.15426 57.91695 -558.70999 67.24739 -544.71426 C 76.57784 -530.71859 91.54065 -508.2744 100.8711 -494.27876 C 110.20154 -480.28309 125.16435 -457.8389 134.4948 -443.84327 C 143.82524 -429.8476 158.78806 -407.40345 168.1185 -393.40776 C 177.44895 -379.41206 192.41178 -356.96775 201.7422 -342.97206 C 211.07265 -328.97636 226.03548 -306.5322 235.36592 -292.53657 C 244.69635 -278.54093 259.65919 -256.09675 268.98963 -242.10106 C 278.32008 -228.10538 293.28288 -205.66106 302.61335 -191.66536 C 311.94377 -177.66968 326.9066 -155.22556 336.23704 -141.22989 C 345.56748 -127.2342 360.5303 -104.79 369.86073 -90.79433 C 379.1912 -76.79866 394.154 -54.35442 403.48445 -40.35875 C 412.81489 -26.36308 427.7777 -3.9189 437.10816 10.07677 C 446.43858 24.07243 461.4014 46.51666 470.73188 60.51233 C 480.0623 74.50801 495.02513 96.95212 504.35557 110.9478 C 513.686 124.94348 528.6488 147.38779 537.97927 161.38349 C 547.3097 175.37917 562.2725 197.82332 571.60299 211.81899 C 580.9334 225.81464 595.89627 248.2588 605.2267 262.2545 C 614.5571 276.25019 629.51998 298.6945 638.85037 312.69017 C 648.18087 326.68586 663.1437 349.13 672.47409 363.12568 C 681.8045 377.1213 696.76736 399.5655 706.0978 413.56117 C 715.4282 427.5569 730.39108 450.00117 739.7215 463.99687 C 749.05197 477.99256 764.0148 500.4367 773.3452 514.4324 C 782.67568 528.42807 806.9689 564.86788 806.9689 564.86788 "/>
<symbol id="font_1_6">
<path d="M .45700003 .586 C .461 .6 .461 .602 .461 .609 C .461 .62700006 .447 .63600006 .432 .63600006 C .42200003 .63600006 .40600003 .63 .397 .615 C .395 .61 .387 .579 .38300003 .561 C .37600003 .535 .36900003 .508 .363 .48100005 L .318 .301 C .314 .286 .271 .21600002 .20500002 .21600002 C .15400002 .21600002 .143 .26000003 .143 .29700003 C .143 .34300003 .16000001 .40500004 .194 .49300004 C .21000001 .53400006 .21400002 .545 .21400002 .56500008 C .21400002 .61 .18200001 .6470001 .13200002 .6470001 C .037 .6470001 0 .50200006 0 .49300004 C 0 .48300005 .01 .48300005 .012 .48300005 C .022000002 .48300005 .023 .485 .028000003 .50100007 C .055000009 .595 .095000009 .625 .12900001 .625 C .13700001 .625 .15400002 .625 .15400002 .59300008 C .15400002 .568 .14400001 .54200008 .13700001 .523 C .097 .41700004 .079 .36 .079 .31300003 C .079 .224 .142 .194 .201 .194 C .24000003 .194 .274 .21100001 .30200003 .23900002 C .289 .187 .277 .13800001 .237 .08500001 C .21100001 .051 .17300001 .022 .127 .022 C .113000009 .022 .068 .025000006 .051000008 .06400001 C .067 .06400001 .080000009 .06400001 .094000007 .076000008 C .104 .08500001 .11400001 .098000008 .11400001 .117000009 C .11400001 .148 .087000008 .15200001 .07700001 .15200001 C .054000006 .15200001 .021 .136 .021 .087000008 C .021 .037 .065000008 0 .127 0 C .23 0 .333 .091000009 .361 .20400001 L .45700003 .586 Z "/>
</symbol>
<use xlink:href="#font_1_6" transform="matrix(9.9626,0,0,-9.9626,124.45289,58.12733)" fill="#000080"/>
<symbol id="font_2_3">
<path d="M .63100007 .19400002 C .646 .19400002 .665 .19400002 .665 .214 C .665 .23400001 .646 .23400001 .632 .23400001 L .033 .23400001 C .019000002 .23400001 0 .23400001 0 .214 C 0 .19400002 .019000002 .19400002 .034 .19400002 L .63100007 .19400002 M .632 0 C .646 0 .665 0 .665 .02000001 C .665 .040000008 .646 .040000008 .63100007 .040000008 L .034 .040000008 C .019000002 .040000008 0 .040000008 0 .02000001 C 0 0 .019000002 0 .033 0 L .632 0 Z "/>
</symbol>
<use xlink:href="#font_2_3" transform="matrix(9.9626,0,0,-9.9626,132.73088,54.75997)" fill="#000080"/>
<symbol id="font_1_4">
<path d="M .314 .605 L .4 .605 C .42000003 .605 .43 .605 .43 .625 C .43 .63600006 .42000003 .63600006 .40300004 .63600006 L .32000003 .63600006 L .34100003 .75 C .34500004 .771 .35900004 .842 .365 .8540001 C .374 .873 .39100004 .888 .41200004 .888 C .416 .888 .44200004 .888 .461 .87 C .41700004 .86600008 .407 .8310001 .407 .816 C .407 .793 .425 .781 .444 .781 C .47 .781 .49900005 .8030001 .49900005 .8410001 C .49900005 .8870001 .45300005 .9100001 .41200004 .9100001 C .37800003 .9100001 .31500004 .8920001 .28500004 .793 C .279 .7720001 .27600003 .7620001 .252 .63600006 L .18300002 .63600006 C .164 .63600006 .15300001 .63600006 .15300001 .61700007 C .15300001 .605 .162 .605 .18100001 .605 L .24700001 .605 L .172 .21000001 C .15400002 .113000009 .13700001 .022 .08500001 .022 C .081 .022 .056 .022 .037 .040000008 C .083000008 .043000014 .09200001 .07900001 .09200001 .094000007 C .09200001 .117000009 .074 .12900001 .055 .12900001 C .029 .12900001 0 .10700001 0 .069000009 C 0 .024000004 .044 0 .08500001 0 C .14 0 .18 .059 .19800002 .09700001 C .23000002 .16000001 .25300003 .28100003 .254 .28800003 L .314 .605 Z "/>
</symbol>
<use xlink:href="#font_1_4" transform="matrix(9.9626,0,0,-9.9626,143.217,58.12733)" fill="#000080"/>
<symbol id="font_2_1">
<path d="M .23200003 .00999999 C .23200003 .012999982 .23200003 .014999986 .215 .03199999 C .09 .15799999 .058 .347 .058 .5 C .058 .674 .096 .84800007 .21900001 .97300007 C .23200003 .985 .23200003 .98700007 .23200003 .99 C .23200003 .99700006 .22800002 1 .222 1 C .21200001 1 .12200001 .93200007 .06299999 .805 C .012000002 .69500008 0 .584 0 .5 C 0 .422 .011 .301 .066 .188 C .126 .065 .21200001 0 .222 0 C .22800002 0 .23200003 .0029999912 .23200003 .00999999 Z "/>
</symbol>
<use xlink:href="#font_2_1" transform="matrix(9.9626,0,0,-9.9626,149.62528,58.57565)" fill="#000080"/>
<symbol id="font_1_5">
<path d="M .305 .31300003 C .311 .33900003 .334 .43100003 .404 .43100003 C .409 .43100003 .433 .43100003 .454 .418 C .426 .41300003 .40600003 .388 .40600003 .36400003 C .40600003 .34800003 .417 .32900004 .444 .32900004 C .46600003 .32900004 .498 .34700004 .498 .38700003 C .498 .43900005 .439 .45300005 .405 .45300005 C .347 .45300005 .312 .40000005 .3 .37700004 C .275 .44300003 .221 .45300005 .19200002 .45300005 C .08800001 .45300005 .031000002 .32400004 .031000002 .29900003 C .031000002 .28900004 .041 .28900004 .043000007 .28900004 C .051000008 .28900004 .054000006 .291 .056 .3 C .09 .40600003 .156 .43100003 .19000001 .43100003 C .209 .43100003 .244 .42200003 .244 .36400003 C .244 .33300004 .22700002 .26600004 .19000001 .126 C .17400001 .064 .13900002 .022000002 .095000009 .022000002 C .08900001 .022000002 .06600001 .022000002 .045 .035 C .07000001 .040000004 .09200001 .061 .09200001 .089 C .09200001 .116000007 .07000001 .124000009 .055000009 .124000009 C .025 .124000009 0 .098000008 0 .06600001 C 0 .020000002 .050000006 0 .094000007 0 C .16000001 0 .19600001 .07000001 .19900002 .076000008 C .21100001 .039 .24700003 0 .307 0 C .41 0 .467 .12900001 .467 .15400002 C .467 .16400002 .458 .16400002 .455 .16400002 C .446 .16400002 .444 .16000001 .442 .15300001 C .409 .046 .341 .022000002 .30900003 .022000002 C .27 .022000002 .254 .054 .254 .08800001 C .254 .11000001 .26 .13200002 .271 .17600002 L .305 .31300003 Z "/>
</symbol>
<use xlink:href="#font_1_5" transform="matrix(9.9626,0,0,-9.9626,152.80289,56.194589)" fill="#000080"/>
<symbol id="font_2_2">
<path d="M .232 .5 C .232 .578 .22100002 .699 .16600001 .81200006 C .106 .93500009 .020000004 1 .009999998 1 C .0040000008 1 0 .99600008 0 .99 C 0 .98700007 0 .985 .019000002 .967 C .117000009 .86800006 .174 .709 .174 .5 C .174 .329 .137 .153 .012999997 .026999996 C 0 .014999986 0 .012999982 0 .00999999 C 0 .003999993 .0040000008 0 .009999998 0 C .020000004 0 .11000001 .06799999 .169 .195 C .22 .305 .232 .416 .232 .5 Z "/>
</symbol>
<use xlink:href="#font_2_2" transform="matrix(9.9626,0,0,-9.9626,158.77585,58.57565)" fill="#000080"/>
<use xlink:href="#font_1_6" transform="matrix(9.9626,0,0,-9.9626,67.549907,58.12733)" fill="#800000"/>
<use xlink:href="#font_2_3" transform="matrix(9.9626,0,0,-9.9626,75.827899,54.75997)" fill="#800000"/>
<symbol id="font_1_2">
<path d="M .335 .605 C .344 .64100006 .347 .652 .441 .652 C .47100006 .652 .479 .652 .479 .671 C .479 .683 .46800003 .683 .46300004 .683 C .43 .683 .34800003 .68 .315 .68 C .285 .68 .21200001 .683 .18200001 .683 C .17500001 .683 .163 .683 .163 .66300007 C .163 .652 .172 .652 .191 .652 C .193 .652 .21200001 .652 .229 .65000006 C .24700001 .648 .256 .647 .256 .634 C .256 .63000008 .255 .62700006 .252 .615 L .118 .078 C .107999999 .039 .106000009 .031000002 .026999999 .031000002 C .010000002 .031000002 0 .031000002 0 .011000001 C 0 0 .009 0 .026999999 0 L .49000005 0 C .51400008 0 .51500007 0 .521 .017 L .6000001 .23300001 C .60400006 .24400002 .60400006 .246 .60400006 .24700001 C .60400006 .25100003 .6010001 .25800003 .59200009 .25800003 C .58300009 .25800003 .5820001 .25300003 .57500007 .23700002 C .54100009 .14500001 .497 .031000002 .324 .031000002 L .23000002 .031000002 C .21600002 .031000002 .21400002 .031000002 .208 .032 C .19800002 .033 .19500001 .034 .19500001 .042000005 C .19500001 .045 .19500001 .047000003 .2 .065000008 L .335 .605 Z "/>
</symbol>
<use xlink:href="#font_1_2" transform="matrix(9.9626,0,0,-9.9626,86.17453,56.085)" fill="#800000"/>
<use xlink:href="#font_2_1" transform="matrix(9.9626,0,0,-9.9626,93.552288,58.57565)" fill="#800000"/>
<use xlink:href="#font_1_5" transform="matrix(9.9626,0,0,-9.9626,96.729907,56.194589)" fill="#800000"/>
<use xlink:href="#font_2_2" transform="matrix(9.9626,0,0,-9.9626,102.70286,58.57565)" fill="#800000"/>
<use xlink:href="#font_2_1" transform="matrix(9.9626,0,0,-9.9626,93.62628,98.924648)" fill="#800000"/>
<symbol id="font_1_3">
<path d="M .33300004 .38900004 C .31500004 .42600004 .286 .45300005 .24100001 .45300005 C .124 .45300005 0 .30600003 0 .16000001 C 0 .06600001 .055000005 0 .133 0 C .153 0 .20300001 .0040000008 .263 .075 C .27100004 .033000005 .30600003 0 .35400004 0 C .38900004 0 .41200004 .023000002 .42800004 .055000005 C .44500003 .091000009 .45800004 .15200001 .45800004 .15400002 C .45800004 .16400002 .44900004 .16400002 .44600005 .16400002 C .43600003 .16400002 .43500004 .16000001 .43200005 .14600002 C .41500003 .081 .397 .022000002 .35600005 .022000002 C .32900004 .022000002 .32600004 .048 .32600004 .068 C .32600004 .09 .32800005 .098000008 .33900003 .14200002 C .35000003 .18400002 .35200004 .19400002 .36100004 .23200003 L .397 .37200005 C .40400005 .40000005 .40400005 .40200005 .40400005 .40600003 C .40400005 .42300005 .39200003 .43300004 .37500004 .43300004 C .35100005 .43300004 .33600004 .411 .33300004 .38900004 M .26800005 .13000001 C .263 .112 .263 .11000001 .24800001 .093 C .20400001 .038000004 .163 .022000002 .135 .022000002 C .08499999 .022000002 .07100001 .077 .07100001 .116000007 C .07100001 .16600001 .103 .28900004 .126 .335 C .157 .39400003 .202 .43100003 .242 .43100003 C .307 .43100003 .32100005 .34900005 .32100005 .34300003 C .32100005 .337 .31900005 .33100004 .31800003 .32600004 L .26800005 .13000001 Z "/>
</symbol>
<symbol id="font_1_1">
<path d="M .117000009 .194 C .117000009 .26 .092 .29900003 .05300001 .29900003 C .020000004 .29900003 0 .274 0 .246 C 0 .21900001 .020000004 .193 .05300001 .193 C .065000008 .193 .078 .197 .08800001 .206 C .091 .208 .092 .209 .093 .209 C .094000007 .209 .095000009 .208 .095000009 .194 C .095000009 .12 .06000001 .060000004 .027000003 .026999996 C .016000003 .016000003 .016000003 .013999999 .016000003 .0109999929 C .016000003 .003999993 .021000006 0 .026 0 C .037 0 .117000009 .077 .117000009 .194 Z "/>
</symbol>
<use xlink:href="#font_1_3" transform="matrix(9.9626,0,0,-9.9626,96.91349,96.54359)" fill="#800000"/>
<use xlink:href="#font_1_1" transform="matrix(9.9626,0,0,-9.9626,102.64198,98.35678)" fill="#800000"/>
<use xlink:href="#font_1_4" transform="matrix(9.9626,0,0,-9.9626,106.746578,98.47633)" fill="#800000"/>
<use xlink:href="#font_2_1" transform="matrix(9.9626,0,0,-9.9626,113.14528,98.924648)" fill="#800000"/>
<use xlink:href="#font_1_3" transform="matrix(9.9626,0,0,-9.9626,116.43149,96.54359)" fill="#800000"/>
<use xlink:href="#font_2_2" transform="matrix(9.9626,0,0,-9.9626,121.86685,98.924648)" fill="#800000"/>
<use xlink:href="#font_2_2" transform="matrix(9.9626,0,0,-9.9626,125.7423,98.924648)" fill="#800000"/>
</g>
<path transform="matrix(1,0,0,-1,-397.548,174.64)" d="M 486.18165 80.69818 C 486.18165 81.79865 485.28956 82.69073 484.1891 82.69073 C 483.08863 82.69073 482.19654 81.79865 482.19654 80.69818 C 482.19654 79.5977 483.08863 78.70563 484.1891 78.70563 C 485.28956 78.70563 486.18165 79.5977 486.18165 80.69818 Z M 484.1891 80.69818 " fill="#800080"/>
<path transform="matrix(1,0,0,-1,-397.548,174.64)" stroke-width=".3985" stroke-linecap="butt" stroke-miterlimit="10" stroke-linejoin="miter" fill="none" stroke="#800080" d="M 486.18165 80.69818 C 486.18165 81.79865 485.28956 82.69073 484.1891 82.69073 C 483.08863 82.69073 482.19654 81.79865 482.19654 80.69818 C 482.19654 79.5977 483.08863 78.70563 484.1891 78.70563 C 485.28956 78.70563 486.18165 79.5977 486.18165 80.69818 Z M 484.1891 80.69818 "/>
<use xlink:href="#font_1_5" transform="matrix(9.9626,0,0,-9.9626,171.33191,176.89459)"/>
<use xlink:href="#font_1_6" transform="matrix(9.9626,0,0,-9.9626,3.6828974,9.726339)"/>
</svg>
