<?xml version="1.0" encoding="UTF-8" standalone="no"?>
<!DOCTYPE svg PUBLIC "-//W3C//DTD SVG 1.1//EN" "http://www.w3.org/Graphics/SVG/1.1/DTD/svg11.dtd">
<svg xmlns="http://www.w3.org/2000/svg" xmlns:xlink="http://www.w3.org/1999/xlink" version="1.1" width="52.519pt" height="50.937pt" viewBox="0 0 52.519 50.937">
<path transform="matrix(1,0,0,-1,.493,46.151)" stroke-width="1" stroke-linecap="butt" stroke-miterlimit="10" stroke-linejoin="miter" fill="none" stroke="#000000" d="M -.29364 -4.58705 L -.29364 45.95221 L 51.82802 45.95221 L 51.82802 -4.58705 Z M 51.82802 45.95221 "/>
<path transform="matrix(.5,0,0,-.5,4.7875,46.1505)" stroke-width="1.19553" stroke-linecap="butt" stroke-miterlimit="10" stroke-linejoin="miter" fill="none" stroke="#000080" d="M 0 82.72765 C 0 82.72765 2.58563 82.66371 3.57872 82.58401 C 4.57181 82.5043 6.16438 82.31256 7.15747 82.15315 C 8.15054 81.99374 9.74312 81.67418 10.7362 81.43506 C 11.7293 81.19595 13.32187 80.74855 14.31496 80.42972 C 15.30803 80.11089 16.9006 79.53568 17.89369 79.13715 C 18.88678 78.7386 20.47935 78.03557 21.47244 77.55733 C 22.46552 77.07909 24.05809 76.2482 25.05118 75.69026 C 26.04427 75.13232 27.63684 74.17363 28.62993 73.53598 C 29.623 72.89832 31.21558 71.81178 32.20866 71.09442 C 33.20175 70.37704 34.79433 69.16273 35.78741 68.36566 C 36.7805 67.56859 38.37305 66.22641 39.36613 65.34964 C 40.35922 64.47285 41.9518 63.00287 42.94489 62.04639 C 43.93797 61.08989 45.53055 59.49208 46.52362 58.45589 C 47.51671 57.4197 49.10928 55.69405 50.10237 54.57816 C 51.09546 53.46225 52.68803 51.6088 53.6811 50.4132 C 54.6742 49.21759 56.26677 47.2363 57.25986 45.96097 C 58.25294 44.68564 59.84552 42.57655 60.8386 41.22153 C 61.83168 39.8665 63.42426 37.62958 64.41734 36.19484 C 65.41043 34.7601 67.003 32.39532 67.99608 30.88087 C 68.98917 29.36642 70.58174 26.87387 71.57483 25.27971 C 72.56792 23.68556 74.16048 21.06517 75.15356 19.39131 C 76.14664 17.71745 77.73921 14.96921 78.7323 13.21565 C 79.72539 11.46208 81.31796 8.58603 82.31105 6.75276 C 83.30412 4.9195 85.88979 .00264 85.88979 .00264 "/>
</svg>
