<?xml version="1.0" encoding="UTF-8" standalone="no"?>
<!DOCTYPE svg PUBLIC "-//W3C//DTD SVG 1.1//EN" "http://www.w3.org/Graphics/SVG/1.1/DTD/svg11.dtd">
<svg xmlns="http://www.w3.org/2000/svg" xmlns:xlink="http://www.w3.org/1999/xlink" version="1.1" width="52.519pt" height="50.938pt" viewBox="0 0 52.519 50.938">
<path transform="matrix(1,0,0,-1,.493,46.15)" stroke-width=".3985" stroke-linecap="butt" stroke-miterlimit="10" stroke-linejoin="miter" fill="none" stroke="#000000" d="M -.29364 -4.58838 L -.29364 45.95221 L 51.82802 45.95221 L 51.82802 -4.58838 Z M 51.82802 45.95221 "/>
<path transform="matrix(.5,0,0,-.5,4.7875,46.1505)" stroke-width="1.19553" stroke-linecap="butt" stroke-miterlimit="10" stroke-linejoin="miter" fill="none" stroke="#000080" d="M 0 0 C 0 0 2.58563 4.91692 3.57872 6.75021 C 4.57181 8.58351 6.16438 11.45961 7.15747 13.2132 C 8.15054 14.9668 9.74312 17.71509 10.7362 19.38898 C 11.7293 21.06287 13.32187 23.6833 14.31496 25.2775 C 15.30803 26.87167 16.9006 29.36432 17.89369 30.87878 C 18.88678 32.39325 20.47935 34.75806 21.47244 36.19281 C 22.46552 37.62758 24.05809 39.86458 25.05118 41.21964 C 26.04427 42.57469 27.63684 44.68384 28.62993 45.9592 C 29.623 47.23454 31.21558 49.21587 32.20866 50.41151 C 33.20175 51.60716 34.79433 53.46068 35.78741 54.57661 C 36.7805 55.69255 38.37305 57.41821 39.36613 58.45444 C 40.35922 59.49068 41.9518 61.08852 42.94489 62.04504 C 43.93797 63.00157 45.53055 64.4716 46.52362 65.34842 C 47.51671 66.22523 49.10928 67.56744 50.10237 68.36455 C 51.09546 69.16165 52.68803 70.37605 53.6811 71.09344 C 54.6742 71.81084 56.26677 72.89738 57.25986 73.53508 C 58.25294 74.17278 59.84552 75.13152 60.8386 75.68948 C 61.83168 76.24747 63.42426 77.07838 64.41734 77.55666 C 65.41043 78.03493 67.003 78.73802 67.99608 79.13658 C 68.98917 79.53514 70.58174 80.11043 71.57483 80.42928 C 72.56792 80.74814 74.16048 81.19559 75.15356 81.43472 C 76.14664 81.67387 77.73921 81.99348 78.7323 82.15292 C 79.72539 82.31236 81.31796 82.50417 82.31105 82.58391 C 83.30412 82.66364 85.88979 82.72765 85.88979 82.72765 "/>
</svg>
