<?xml version="1.0" encoding="UTF-8" standalone="no"?>
<!DOCTYPE svg PUBLIC "-//W3C//DTD SVG 1.1//EN" "http://www.w3.org/Graphics/SVG/1.1/DTD/svg11.dtd">
<svg xmlns="http://www.w3.org/2000/svg" xmlns:xlink="http://www.w3.org/1999/xlink" version="1.1" width="206.064pt" height="174.045pt" viewBox="0 0 206.064 174.045">
<path transform="matrix(1,0,0,-1,.199,3218.625)" stroke-width="1" stroke-linecap="butt" stroke-miterlimit="10" stroke-linejoin="miter" fill="none" stroke="#000000" d="M 0 3125.5174 L 192.27986 3125.5174 "/>
<path transform="matrix(1,0,0,-1,192.47887,93.107669)" d="M 1.99252 0 L -1.19551 1.59401 L 0 0 L -1.19551 -1.59401 "/>
<path transform="matrix(1,0,0,-1,.199,3218.625)" stroke-width="1" stroke-linecap="butt" stroke-miterlimit="10" stroke-linejoin="miter" fill="none" stroke="#000000" d="M 38.85474 3044.8189 L 38.85474 3204.2232 "/>
<path transform="matrix(0,-1,-1,-0,39.05374,14.401855)" d="M 1.99252 0 L -1.19551 1.59401 L 0 0 L -1.19551 -1.59401 "/>
<clipPath id="cp0">
<path transform="matrix(1,0,0,-1,.199,3218.625)" d="M 0 3044.8189 L 194.27239 3044.8189 L 194.27239 3206.2159 L 0 3206.2159 Z "/>
</clipPath>
<g clip-path="url(#cp0)">
<path transform="matrix(1,0,0,-1,.199,3218.625)" stroke-width="1" stroke-linecap="butt" stroke-miterlimit="10" stroke-linejoin="miter" fill="none" stroke="#000000" d="M 0 3125.5174 C 0 3125.5174 5.84842 3125.5174 8.09467 3125.5174 C 10.34091 3125.5174 13.94312 3125.5174 16.18936 3125.5174 C 18.4356 3125.5174 22.0378 3125.5174 24.28404 3125.5174 C 26.53029 3125.5174 30.13248 3125.5174 32.37872 3125.5174 C 34.62495 3125.5174 38.22716 3125.5174 40.4734 3125.5174 C 42.71965 3125.5174 46.32185 3125.5174 48.5681 3125.5174 C 50.81433 3125.5174 54.41653 3125.5174 56.66278 3125.5174 C 58.90903 3125.5174 62.51122 3125.5174 64.75746 3125.5174 C 67.0037 3125.5174 70.60591 3125.5174 72.85216 3125.5174 C 75.0984 3125.5174 78.70059 3125.5174 80.94684 3125.5174 C 83.19308 3125.5174 86.79527 3125.5174 89.04152 3125.5174 C 91.28777 3125.5174 94.88997 3125.5174 97.13622 3125.5174 C 99.38246 3125.5174 102.98463 3125.5174 105.23088 3125.5174 C 107.47713 3125.5174 111.07933 3125.5174 113.32558 3125.5174 C 115.57182 3125.5174 119.17401 3125.5174 121.42026 3125.5174 C 123.6665 3125.5174 127.26869 3125.5174 129.51494 3125.5174 C 131.76119 3125.5174 135.36338 3125.5174 137.60962 3125.5174 C 139.85587 3125.5174 143.45806 3125.5174 145.7043 3125.5174 C 147.95055 3125.5174 151.55274 3125.5174 153.79898 3125.5174 C 156.04523 3125.5174 159.64742 3125.5174 161.89366 3125.5174 C 164.13991 3125.5174 167.7421 3125.5174 169.98834 3125.5174 C 172.23459 3125.5174 175.83678 3125.5174 178.08303 3125.5174 C 180.32927 3125.5174 183.93148 3125.5174 186.1777 3125.5174 C 188.42395 3125.5174 194.27239 3125.5174 194.27239 3125.5174 "/>
<path transform="matrix(1,0,0,-1,.199,3218.625)" stroke-width="1" stroke-linecap="butt" stroke-dasharray="2.98883,2.98883" stroke-miterlimit="10" stroke-linejoin="miter" fill="none" stroke="#000000" d="M 116.56421 3044.8189 L 116.56421 3206.2159 "/>
<path transform="matrix(1,0,0,-1,.199,3218.625)" stroke-width="1" stroke-linecap="butt" stroke-miterlimit="10" stroke-linejoin="miter" fill="none" stroke="#000000" stroke-opacity=".1" d="M 87.81169 3044.8189 L 87.81169 3206.2159 "/>
<path transform="matrix(1,0,0,-1,.199,3218.625)" stroke-width="1" stroke-linecap="butt" stroke-miterlimit="10" stroke-linejoin="miter" fill="none" stroke="#000000" stroke-opacity=".1" d="M 147.648 3044.8189 L 147.648 3206.2159 "/>
<path transform="matrix(1,0,0,-1,.199,3218.625)" stroke-width="1" stroke-linecap="butt" stroke-miterlimit="10" stroke-linejoin="miter" fill="none" stroke="#000000" stroke-opacity=".1" d="M 71.10416 3044.8189 L 71.10416 3206.2159 "/>
<path transform="matrix(1,0,0,-1,.199,3218.625)" stroke-width="1.19553" stroke-linecap="butt" stroke-miterlimit="10" stroke-linejoin="miter" fill="none" stroke="#800000" d="M 104.90778 3085.0284 C 104.90778 3085.0284 104.98718 3083.819 105.01765 3083.347 C 105.04814 3082.875 105.09705 3082.109 105.12753 3081.6256 C 105.158 3081.1419 105.20692 3080.3575 105.23741 3079.862 C 105.26788 3079.367 105.31682 3078.5638 105.3473 3078.0567 C 105.37778 3077.5496 105.42668 3076.7266 105.45717 3076.207 C 105.48764 3075.6876 105.53656 3074.8446 105.56705 3074.312 C 105.59752 3073.7799 105.64645 3072.9163 105.67694 3072.3707 C 105.70741 3071.8253 105.75635 3070.9393 105.78682 3070.3802 C 105.8173 3069.8209 105.86621 3068.9136 105.89668 3068.3404 C 105.92717 3067.7674 105.9761 3066.8367 106.00658 3066.249 C 106.03706 3065.6614 106.08598 3064.7069 106.11646 3064.1046 C 106.14694 3063.502 106.19585 3062.5247 106.22632 3061.9068 C 106.2568 3061.2889 106.30574 3060.2847 106.33621 3059.6507 C 106.3667 3059.0167 106.41562 3057.9876 106.4461 3057.3372 C 106.47658 3056.6868 106.5255 3055.6302 106.55598 3054.9627 C 106.58646 3054.2955 106.63538 3053.2125 106.66586 3052.5277 C 106.69633 3051.8428 106.74525 3050.7298 106.77574 3050.0267 C 106.80621 3049.3233 106.85513 3048.181 106.88562 3047.459 C 106.91609 3046.737 106.96501 3045.5643 106.9955 3044.8228 C 107.02599 3044.0816 107.0749 3042.8778 107.10538 3042.1163 C 107.13586 3041.3546 107.18478 3040.1165 107.21526 3039.334 C 107.24574 3038.5518 107.29466 3037.2813 107.32513 3036.4774 C 107.35562 3035.6734 107.40454 3034.3663 107.43501 3033.5399 C 107.4655 3032.7135 107.51442 3031.3709 107.54489 3030.5213 C 107.57538 3029.6715 107.6243 3028.2896 107.65479 3027.4156 C 107.68526 3026.5416 107.73418 3025.12 107.76466 3024.2213 C 107.79514 3023.3223 107.84406 3021.8616 107.87454 3020.9368 C 107.90501 3020.012 107.95393 3018.5076 107.98442 3017.5557 C 108.0149 3016.6038 108.06381 3015.056 108.0943 3014.0762 C 108.12477 3013.0963 108.17369 3011.5025 108.20418 3010.4932 C 108.23466 3009.484 108.28358 3007.8416 108.31406 3006.8018 C 108.34454 3005.7623 108.39346 3004.0716 108.42393 3003.0003 C 108.45442 3001.929 108.50334 3000.185 108.53381 2999.081 C 108.5643 2997.9769 108.61322 2996.1805 108.64369 2995.042 C 108.67418 2993.9036 108.7231 2992.0506 108.75357 2990.876 C 108.78406 2989.7015 108.83298 2987.7886 108.86346 2986.5767 C 108.89394 2985.365 108.94286 2983.3924 108.97334 2982.1417 C 109.00381 2980.8909 109.05273 2978.8536 109.08322 2977.562 C 109.1137 2976.2708 109.16261 2974.1688 109.1931 2972.8345 C 109.22357 2971.5006 109.27249 2969.3255 109.30298 2967.9468 C 109.33345 2966.5684 109.38237 2964.3238 109.41286 2962.8985 C 109.44334 2961.4735 109.49226 2959.1483 109.52274 2957.6746 C 109.55322 2956.2012 109.60214 2953.803 109.63261 2952.2779 C 109.6631 2950.753 109.71202 2948.2625 109.7425 2946.6829 C 109.77298 2945.1033 109.82191 2942.5277 109.85239 2940.8929 C 109.88287 2939.258 109.93178 2936.5953 109.96225 2934.901 C 109.99274 2933.2064 110.04166 2930.4373 110.07214 2928.6805 C 110.10262 2926.9234 110.15155 2924.061 110.18204 2922.238 C 110.21251 2920.4149 110.26141 2917.433 110.2919 2915.54 C 110.32237 2913.6468 110.37129 2910.558 110.40178 2908.5933 C 110.43225 2906.6282 110.48117 2903.4163 110.51166 2901.3775 C 110.54213 2899.3387 110.59105 2896.0194 110.62154 2893.8995 C 110.65202 2891.7796 110.70094 2888.3052 110.73141 2886.0985 C 110.7619 2883.8919 110.81082 2880.2904 110.8413 2877.9949 C 110.87178 2875.6998 110.9207 2871.9505 110.95117 2869.5555 C 110.98166 2867.1602 111.03058 2863.2313 111.06105 2860.7325 C 111.09154 2858.2337 111.14046 2854.1502 111.17093 2851.5462 C 111.20142 2848.942 111.25035 2844.6822 111.28084 2841.9632 C 111.31131 2839.2445 111.36021 2834.793 111.3907 2831.9498 C 111.42117 2829.1068 111.4701 2824.445 111.50058 2821.4725 C 111.53105 2818.4998 111.57999 2813.6334 111.61047 2810.5245 C 111.64095 2807.4156 111.68985 2802.3255 111.72034 2799.0653 C 111.75081 2795.8052 111.79973 2790.4493 111.83022 2787.0279 C 111.86069 2783.6063 111.90964 2777.9976 111.94011 2774.4053 C 111.9706 2770.813 112.0195 2764.9102 112.04997 2761.137 C 112.08046 2757.3636 112.12938 2751.181 112.15985 2747.2098 C 112.19034 2743.2388 112.23927 2736.7027 112.26974 2732.5159 C 112.30023 2728.3294 112.34915 2721.4495 112.37962 2717.0352 C 112.41011 2712.6209 112.45901 2705.3604 112.48949 2700.7005 C 112.51997 2696.0408 112.56891 2688.3836 112.5994 2683.4515 C 112.62987 2678.5194 112.67879 2670.3839 112.70927 2665.1529 C 112.73975 2659.922 112.78865 2651.296 112.81914 2645.7518 C 112.84961 2640.2076 112.89853 2631.0889 112.92902 2625.1939 C 112.95949 2619.2987 113.00842 2609.5445 113.03891 2603.264 C 113.06938 2596.9835 113.1183 2586.6273 113.14879 2579.9288 C 113.17928 2573.2303 113.22818 2562.1475 113.25865 2554.986 C 113.28914 2547.825 113.33807 2535.985 113.36855 2528.3155 C 113.39903 2520.6456 113.44795 2507.9476 113.47842 2499.7078 C 113.50891 2491.4678 113.55782 2477.7977 113.58829 2468.928 C 113.61877 2460.0584 113.66771 2445.3533 113.69818 2435.781 C 113.72867 2426.2088 113.77759 2410.304 113.80807 2399.9376 C 113.83855 2389.5714 113.88745 2372.3233 113.91794 2361.0679 C 113.94841 2349.8123 113.99734 2331.0797 114.02783 2318.8155 C 114.0583 2306.5513 114.10722 2286.0926 114.13771 2272.676 C 114.16818 2259.2596 114.2171 2236.8582 114.24759 2222.1185 C 114.27806 2207.379 114.32698 2182.7039 114.35747 2166.4434 C 114.38795 2150.1829 114.43687 2122.952 114.46735 2104.9244 C 114.49783 2086.8966 114.54675 2056.616 114.57722 2036.5122 C 114.60771 2016.4085 114.65663 1982.5796 114.6871 1960.0303 C 114.71759 1937.481 114.76651 1899.4556 114.79698 1873.9923 C 114.82747 1848.5289 114.87639 1805.4942 114.90686 1776.5086 C 114.93735 1747.523 114.98627 1698.3796 115.01675 1665.0842 C 115.04723 1631.7888 115.09615 1575.1775 115.12663 1536.5385 C 115.1571 1497.8993 115.20602 1431.9625 115.23651 1386.6007 C 115.26698 1341.2389 115.3159 1263.6172 115.34639 1209.6022 C 115.37686 1155.5872 115.42578 1062.7058 115.45627 997.29806 C 115.48674 931.8903 115.53566 819.0108 115.56615 738.18887 C 115.59663 657.36697 115.64555 517.2123 115.67603 414.78996 C 115.70651 312.3676 115.7859 0 115.7859 0 "/>
<path transform="matrix(1,0,0,-1,.199,3218.625)" stroke-width="1.19553" stroke-linecap="butt" stroke-miterlimit="10" stroke-linejoin="miter" fill="none" stroke="#800000" d="M 117.3413 4067.4227 C 117.3413 4067.4227 117.78577 3722.2027 117.95648 3639.9625 C 118.12718 3557.7222 118.40097 3509.7703 118.57167 3474.692 C 118.74237 3439.6136 119.01616 3406.7994 119.18686 3387.1417 C 119.35756 3367.484 119.63135 3345.6187 119.80206 3333.0133 C 119.97276 3320.4075 120.24655 3305.0604 120.41725 3296.2886 C 120.58795 3287.5169 120.86174 3276.2432 121.03244 3269.792 C 121.20314 3263.3406 121.47693 3254.731 121.64764 3249.7923 C 121.81834 3244.8536 122.09213 3238.0889 122.26283 3234.1973 C 122.43353 3230.3055 122.70732 3224.887 122.87802 3221.7435 C 123.04872 3218.6 123.3225 3214.1285 123.49321 3211.541 C 123.66391 3208.9539 123.9377 3205.2559 124.1084 3203.0955 C 124.2791 3200.9349 124.55289 3197.7994 124.72359 3195.9698 C 124.89429 3194.1402 125.16808 3191.474 125.33879 3189.9093 C 125.50949 3188.3446 125.78328 3186.0433 125.95398 3184.6915 C 126.12468 3183.3397 126.39847 3181.3416 126.56917 3180.1663 C 126.73987 3178.991 127.01366 3177.2498 127.18437 3176.2208 C 127.35507 3175.1917 127.62886 3173.6556 127.79956 3172.7496 C 127.97026 3171.8433 128.24405 3170.492 128.41475 3169.6895 C 128.58545 3168.8873 128.85924 3167.6805 129.02996 3166.966 C 129.20066 3166.2515 129.47443 3165.1766 129.64513 3164.5404 C 129.81583 3163.904 130.08962 3162.9498 130.26032 3162.3804 C 130.43102 3161.811 130.7048 3160.9483 130.87552 3160.4368 C 131.04622 3159.9254 131.32 3159.1544 131.4907 3158.6944 C 131.6614 3158.2347 132.1059 3157.1224 132.1059 3157.1224 "/>
<symbol id="font_1_2">
<path d="M .21100003 .63900008 C .21100003 .66400006 .21000001 .666 .18500003 .666 C .123 .60200008 .031000004 .60200008 0 .60200008 L 0 .57100006 C .019000002 .57100006 .080000009 .57100006 .134 .597 L .134 .080000009 C .134 .043 .13100001 .031000002 .03800001 .031000002 L .0060000049 .031000002 L .0060000049 0 C .042000005 .003 .13100001 .003 .17200002 .003 C .21300003 .003 .30300004 .003 .33900003 0 L .33900003 .031000002 L .307 .031000002 C .21400002 .031000002 .21100003 .043 .21100003 .080000009 L .21100003 .63900008 Z "/>
</symbol>
<symbol id="font_1_1">
<path d="M .43300004 .34200005 C .43300004 .40900005 .43000005 .49500004 .39500005 .57000008 C .35100005 .66400006 .27500005 .688 .217 .688 C .157 .688 .081 .66400006 .037000006 .568 C .004999999 .49900005 0 .41800005 0 .34200005 C 0 .27700005 .0020000004 .18 .044999999 .101 C .09199999 .016000003 .17 0 .216 0 C .28100003 0 .35500003 .028 .397 .120000008 C .42700003 .187 .43300004 .26200003 .43300004 .34200005 M .217 .025000003 C .187 .025000003 .114999998 .039000006 .096 .15200001 C .085999999 .21100001 .085999999 .29700003 .085999999 .35400004 C .085999999 .42200003 .085999999 .50100007 .098000008 .55600008 C .118 .64500007 .18200001 .66300007 .216 .66300007 C .254 .66300007 .31700004 .64300009 .33600004 .55 C .34700004 .49500004 .34700004 .41700004 .34700004 .35400004 C .34700004 .29200004 .34700004 .208 .337 .149 C .316 .035000005 .242 .025000003 .217 .025000003 Z "/>
</symbol>
<use xlink:href="#font_1_2" transform="matrix(8.9664,0,0,-8.9664,120.866878,100.74512)"/>
<use xlink:href="#font_1_1" transform="matrix(8.9664,0,0,-8.9664,125.00038,100.942378)"/>
<symbol id="font_1_3">
<path d="M 0 .19600001 L 0 .165 L .273 .165 L .273 .079 C .273 .042000005 .27 .031000002 .19500001 .031000002 L .17300001 .031000002 L .17300001 0 C .23600002 .003 .306 .003 .313 .003 C .318 .003 .39000003 .003 .453 0 L .453 .031000002 L .431 .031000002 C .356 .031000002 .35300002 .042000005 .35300002 .079 L .35300002 .165 L .455 .165 L .455 .19600001 L .35300002 .19600001 L .35300002 .65000006 C .35300002 .67 .35300002 .67700007 .334 .67700007 C .322 .67700007 .321 .67600008 .312 .66200008 L 0 .19600001 M .032000007 .19600001 L .279 .56600007 L .279 .19600001 L .032000007 .19600001 Z "/>
</symbol>
<use xlink:href="#font_1_3" transform="matrix(8.9664,0,0,-8.9664,74.83302,100.74512)"/>
<symbol id="font_1_4">
<path d="M .091000009 .35300005 C .091000009 .45500005 .10200001 .512 .12900001 .56400009 C .149 .605 .19800002 .66300007 .272 .66300007 C .292 .66300007 .338 .65900006 .361 .623 C .324 .623 .308 .60400006 .308 .577 C .308 .55100008 .326 .531 .354 .531 C .382 .531 .40100003 .549 .40100003 .57900008 C .40100003 .63500007 .361 .688 .27 .688 C .14100002 .688 0 .56100007 0 .33800004 C 0 .067 .12200001 0 .216 0 C .327 0 .42700003 .093 .42700003 .22500001 C .42700003 .35200004 .335 .44800005 .22200002 .44800005 C .16200002 .44800005 .119 .41300006 .091000009 .35300005 M .21500002 .028 C .158 .028 .12500002 .075 .113000009 .104 C .09400001 .149 .09300001 .23200001 .09300001 .24800001 C .09300001 .31500004 .12400001 .42300005 .22000002 .42300005 C .23600002 .42300005 .285 .42300005 .317 .36100004 C .336 .32300005 .336 .27400003 .336 .22600001 C .336 .178 .336 .12900001 .317 .092 C .286 .035000005 .24200003 .028 .21500002 .028 Z "/>
</symbol>
<use xlink:href="#font_1_4" transform="matrix(8.9664,0,0,-8.9664,91.66655,100.942378)"/>
<use xlink:href="#font_1_2" transform="matrix(8.9664,0,0,-8.9664,151.94989,100.74512)"/>
<use xlink:href="#font_1_3" transform="matrix(8.9664,0,0,-8.9664,155.98477,100.74512)"/>
</g>
<path transform="matrix(1,0,0,-1,.199,3218.625)" d="M 40.84729 3125.5174 C 40.84729 3126.6177 39.9552 3127.5098 38.85474 3127.5098 C 37.75426 3127.5098 36.86218 3126.6177 36.86218 3125.5174 C 36.86218 3124.4168 37.75426 3123.5247 38.85474 3123.5247 C 39.9552 3123.5247 40.84729 3124.4168 40.84729 3125.5174 Z M 38.85474 3125.5174 " fill="#800000"/>
<path transform="matrix(1,0,0,-1,.199,3218.625)" stroke-width="1" stroke-linecap="butt" stroke-miterlimit="10" stroke-linejoin="miter" fill="none" stroke="#800000" d="M 40.84729 3125.5174 C 40.84729 3126.6177 39.9552 3127.5098 38.85474 3127.5098 C 37.75426 3127.5098 36.86218 3126.6177 36.86218 3125.5174 C 36.86218 3124.4168 37.75426 3123.5247 38.85474 3123.5247 C 39.9552 3123.5247 40.84729 3124.4168 40.84729 3125.5174 Z M 38.85474 3125.5174 "/>
<symbol id="font_2_1">
<path d="M .462 .41500003 C .425 .40800003 .41400004 .37600003 .41400004 .36100004 C .41400004 .34200005 .42800004 .32500003 .453 .32500003 C .48100005 .32500003 .508 .34900005 .508 .38400004 C .508 .43000005 .45800004 .45300005 .411 .45300005 C .351 .45300005 .316 .40000005 .30400003 .37900005 C .28500004 .42800004 .24100003 .45300005 .193 .45300005 C .086 .45300005 .028 .32500003 .028 .29900003 C .028 .29000003 .035000005 .28700004 .042000005 .28700004 C .051 .28700004 .054000006 .29200004 .056 .298 C .087000008 .397 .15300001 .42800004 .19100002 .42800004 C .22 .42800004 .24600002 .40900005 .24600002 .36200003 C .24600002 .32600004 .20300001 .16600001 .19000001 .11800001 C .18200001 .087000008 .15200001 .025000003 .097 .025000003 C .07700001 .025000003 .056 .032 .046000005 .038000004 C .07300001 .043 .093 .06600001 .093 .092 C .093 .117000009 .074 .128 .055 .128 C .026 .128 0 .10300001 0 .069000009 C 0 .020000002 .054000006 0 .096 0 C .15400002 0 .18800001 .048 .20300001 .075 C .22800002 .009000001 .287 0 .314 0 C .42200003 0 .479 .13000001 .479 .15400002 C .479 .15900001 .47600005 .16600001 .46600003 .16600001 C .455 .16600001 .45400004 .16200002 .44900004 .14700002 C .42700003 .075 .36900003 .025000003 .317 .025000003 C .28800003 .025000003 .261 .043 .261 .091000009 C .261 .113000009 .275 .16800002 .284 .20600002 C .28800003 .22400002 .31500004 .33200003 .317 .33900003 C .32900004 .37500004 .35900004 .42800004 .41000004 .42800004 C .42800004 .42800004 .44700004 .42500005 .462 .41500003 Z "/>
</symbol>
<use xlink:href="#font_2_1" transform="matrix(8.9664,0,0,-8.9664,198.03801,94.68457)"/>
<symbol id="font_2_2">
<path d="M .47300003 .59000006 C .474 .595 .47599999 .6010001 .47599999 .607 C .47599999 .62 .467 .63600006 .44500003 .63600006 C .432 .63600006 .414 .628 .40600003 .609 C .405 .605 .395 .564 .389 .54200008 L .33900003 .342 C .331 .31300003 .331 .31100003 .329 .30200003 C .328 .298 .286 .21900001 .21400002 .21900001 C .15200001 .21900001 .15200001 .282 .15200001 .301 C .15200001 .34600003 .165 .39500005 .20800002 .507 C .216 .53000006 .22200002 .544 .22200002 .563 C .22200002 .612 .18500002 .6470001 .136 .6470001 C .040000008 .6470001 0 .505 0 .49300004 C 0 .48400004 .007000001 .48100005 .014 .48100005 C .025 .48100005 .026000003 .48700003 .030000003 .5 C .051000008 .574 .091000009 .62200006 .133 .62200006 C .157 .62200006 .157 .60300007 .157 .589 C .157 .572 .15300001 .554 .14400001 .53000006 C .097 .40600003 .08400001 .36400003 .08400001 .316 C .08400001 .20500002 .17400001 .194 .21100001 .194 C .26 .194 .295 .22000002 .313 .238 C .3 .187 .289 .14200002 .25 .09200001 C .22000002 .052 .18 .025000006 .136 .025000006 C .10800001 .025000006 .075 .03500001 .061000006 .06300001 C .11400001 .06300001 .12100001 .10700001 .12100001 .117000009 C .12100001 .13900002 .105000007 .15300001 .083000008 .15300001 C .059000009 .15300001 .027 .134 .027 .08800001 C .027 .036 .07300001 0 .136 0 C .23800002 0 .347 .087000008 .37600003 .20400001 L .47300003 .59000006 Z "/>
</symbol>
<use xlink:href="#font_2_2" transform="matrix(8.9664,0,0,-8.9664,36.883028,8.769997)"/>
</svg>
