<?xml version="1.0" encoding="UTF-8" standalone="no"?>
<!DOCTYPE svg PUBLIC "-//W3C//DTD SVG 1.1//EN" "http://www.w3.org/Graphics/SVG/1.1/DTD/svg11.dtd">
<svg xmlns="http://www.w3.org/2000/svg" xmlns:xlink="http://www.w3.org/1999/xlink" version="1.1" width="206.066pt" height="174.044pt" viewBox="0 0 206.066 174.044">
<path transform="matrix(1,0,0,-1,.199,3206.721)" stroke-width="1" stroke-linecap="butt" stroke-miterlimit="10" stroke-linejoin="miter" fill="none" stroke="#000000" d="M 0 3113.6143 L 192.28116 3113.6143 "/>
<path transform="matrix(1,0,0,-1,192.48017,93.10669)" d="M 1.99252 0 L -1.19551 1.59401 L 0 0 L -1.19551 -1.59401 "/>
<path transform="matrix(1,0,0,-1,.199,3206.721)" stroke-width="1" stroke-linecap="butt" stroke-miterlimit="10" stroke-linejoin="miter" fill="none" stroke="#000000" d="M 38.85474 3032.9158 L 38.85474 3192.32 "/>
<path transform="matrix(0,-1,-1,-0,39.05374,14.400879)" d="M 1.99252 0 L -1.19551 1.59401 L 0 0 L -1.19551 -1.59401 "/>
<clipPath id="cp0">
<path transform="matrix(1,0,0,-1,.199,3206.721)" d="M 0 3032.9158 L 194.27368 3032.9158 L 194.27368 3194.3128 L 0 3194.3128 Z "/>
</clipPath>
<g clip-path="url(#cp0)">
<path transform="matrix(1,0,0,-1,.199,3206.721)" stroke-width="1" stroke-linecap="butt" stroke-miterlimit="10" stroke-linejoin="miter" fill="none" stroke="#000000" d="M 0 3113.6143 C 0 3113.6143 5.84842 3113.6143 8.09467 3113.6143 C 10.34091 3113.6143 13.94312 3113.6143 16.18936 3113.6143 C 18.4356 3113.6143 22.0378 3113.6143 24.28404 3113.6143 C 26.53029 3113.6143 30.13248 3113.6143 32.37872 3113.6143 C 34.62495 3113.6143 38.22716 3113.6143 40.4734 3113.6143 C 42.71965 3113.6143 46.32185 3113.6143 48.5681 3113.6143 C 50.81433 3113.6143 54.41653 3113.6143 56.66278 3113.6143 C 58.90903 3113.6143 62.51122 3113.6143 64.75746 3113.6143 C 67.0037 3113.6143 70.60591 3113.6143 72.85216 3113.6143 C 75.0984 3113.6143 78.70059 3113.6143 80.94684 3113.6143 C 83.19308 3113.6143 86.79527 3113.6143 89.04152 3113.6143 C 91.28777 3113.6143 94.88997 3113.6143 97.13622 3113.6143 C 99.38246 3113.6143 102.98463 3113.6143 105.23088 3113.6143 C 107.47713 3113.6143 111.07933 3113.6143 113.32558 3113.6143 C 115.57182 3113.6143 119.17401 3113.6143 121.42026 3113.6143 C 123.6665 3113.6143 127.26869 3113.6143 129.51494 3113.6143 C 131.76119 3113.6143 135.36338 3113.6143 137.60962 3113.6143 C 139.85587 3113.6143 143.45806 3113.6143 145.7043 3113.6143 C 147.95055 3113.6143 151.55274 3113.6143 153.79898 3113.6143 C 156.04523 3113.6143 159.64742 3113.6143 161.89366 3113.6143 C 164.13991 3113.6143 167.7421 3113.6143 169.98834 3113.6143 C 172.23459 3113.6143 175.83678 3113.6143 178.08303 3113.6143 C 180.32927 3113.6143 183.93148 3113.6143 186.1777 3113.6143 C 188.42395 3113.6143 194.27239 3113.6143 194.27239 3113.6143 "/>
<path transform="matrix(1,0,0,-1,.199,3206.721)" stroke-width="1" stroke-linecap="butt" stroke-dasharray="2.98883,2.98883" stroke-miterlimit="10" stroke-linejoin="miter" fill="none" stroke="#000000" d="M 116.56421 3032.9158 L 116.56421 3194.3128 "/>
<path transform="matrix(1,0,0,-1,.199,3206.721)" stroke-width="1" stroke-linecap="butt" stroke-miterlimit="10" stroke-linejoin="miter" fill="none" stroke="#000000" stroke-opacity=".1" d="M 87.81169 3032.9158 L 87.81169 3194.3128 "/>
<path transform="matrix(1,0,0,-1,.199,3206.721)" stroke-width="1" stroke-linecap="butt" stroke-miterlimit="10" stroke-linejoin="miter" fill="none" stroke="#000000" stroke-opacity=".1" d="M 147.648 3032.9158 L 147.648 3194.3128 "/>
<path transform="matrix(1,0,0,-1,.199,3206.721)" stroke-width="1" stroke-linecap="butt" stroke-miterlimit="10" stroke-linejoin="miter" fill="none" stroke="#000000" stroke-opacity=".1" d="M 71.10416 3032.9158 L 71.10416 3194.3128 "/>
<path transform="matrix(1,0,0,-1,.199,3206.721)" stroke-width="1.19553" stroke-linecap="butt" stroke-miterlimit="10" stroke-linejoin="miter" fill="none" stroke="#800000" d="M 0 3150.04 C 0 3150.04 .84499 3148.4307 1.16951 3147.8265 C 1.49405 3147.2222 2.0145 3146.2696 2.33904 3145.685 C 2.66356 3145.1007 3.18404 3144.1785 3.50856 3143.6138 C 3.8331 3143.0494 4.35355 3142.1602 4.67809 3141.6153 C 5.00261 3141.0706 5.52309 3140.2125 5.84761 3139.6873 C 6.17215 3139.162 6.69261 3138.3355 7.01715 3137.8299 C 7.34167 3137.3243 7.86214 3136.5296 8.18666 3136.0438 C 8.5112 3135.5577 9.03168 3134.794 9.3562 3134.3275 C 9.68074 3133.861 10.20119 3133.1287 10.52573 3132.682 C 10.85025 3132.235 11.37073 3131.5345 11.69525 3131.107 C 12.01979 3130.6795 12.54025 3130.0093 12.86479 3129.601 C 13.18932 3129.1929 13.70978 3128.554 14.0343 3128.1654 C 14.35884 3127.7767 14.8793 3127.1688 15.20384 3126.7994 C 15.52837 3126.43 16.04883 3125.8526 16.37335 3125.5023 C 16.69789 3125.152 17.21835 3124.6055 17.54288 3124.2745 C 17.86742 3123.9434 18.38788 3123.4276 18.71242 3123.1156 C 19.03694 3122.8033 19.5574 3122.318 19.88193 3122.025 C 20.20647 3121.7318 20.72693 3121.2769 21.05147 3121.0025 C 21.37599 3120.7283 21.89645 3120.3035 22.22098 3120.048 C 22.54552 3119.7928 23.06598 3119.3983 23.39052 3119.1614 C 23.71504 3118.9249 24.23552 3118.56 24.56004 3118.342 C 24.88458 3118.124 25.40504 3117.789 25.72957 3117.5897 C 26.05411 3117.3902 26.57457 3117.085 26.89911 3116.9039 C 27.22363 3116.7227 27.7441 3116.447 28.06862 3116.2845 C 28.39316 3116.1217 28.91362 3115.8753 29.23816 3115.7308 C 29.56268 3115.5863 30.08316 3115.3687 30.40768 3115.2423 C 30.73222 3115.1158 31.25267 3114.9276 31.57721 3114.819 C 31.90173 3114.7105 32.4222 3114.551 32.74672 3114.4603 C 33.07126 3114.3697 33.5917 3114.2386 33.91624 3114.1656 C 34.24078 3114.0926 34.76125 3113.9898 35.08578 3113.9344 C 35.41031 3113.879 35.93079 3113.804 36.25531 3113.7659 C 36.57985 3113.7279 37.1003 3113.681 37.42484 3113.66 C 37.74936 3113.6392 38.26984 3113.6197 38.59436 3113.6158 C 38.9189 3113.612 39.43935 3113.6197 39.76389 3113.6326 C 40.08841 3113.6458 40.60889 3113.6802 40.93341 3113.7098 C 41.25795 3113.7396 41.77841 3113.8006 42.10295 3113.8468 C 42.42749 3113.8929 42.94794 3113.98 43.27248 3114.0423 C 43.597 3114.1048 44.11748 3114.2178 44.442 3114.296 C 44.76654 3114.3743 45.287 3114.5128 45.61154 3114.6068 C 45.93607 3114.701 46.45653 3114.8643 46.78105 3114.9737 C 47.10559 3115.0833 47.62604 3115.2713 47.95058 3115.3958 C 48.2751 3115.5206 48.79558 3115.7327 49.1201 3115.872 C 49.44464 3116.0115 49.96509 3116.247 50.28963 3116.401 C 50.61415 3116.555 51.13463 3116.8135 51.45917 3116.9815 C 51.78369 3117.1497 52.30415 3117.4305 52.62868 3117.6124 C 52.95322 3117.794 53.47368 3118.0968 53.79822 3118.2918 C 54.12274 3118.487 54.6432 3118.8109 54.96773 3119.0189 C 55.29227 3119.2266 55.81273 3119.5706 56.13727 3119.791 C 56.46179 3120.0113 56.98227 3120.3748 57.3068 3120.607 C 57.63133 3120.8394 58.15178 3121.2218 58.47632 3121.465 C 58.80084 3121.7088 59.32132 3122.1085 59.64586 3122.3629 C 59.97038 3122.617 60.49084 3123.0333 60.81537 3123.2974 C 61.13991 3123.5618 61.66037 3123.994 61.98491 3124.2677 C 62.30943 3124.5413 62.8299 3124.9876 63.15442 3125.2696 C 63.47896 3125.5518 63.99942 3126.011 64.32396 3126.3009 C 64.64848 3126.5906 65.16895 3127.0618 65.49347 3127.3582 C 65.81801 3127.6549 66.33846 3128.1358 66.663 3128.438 C 66.98752 3128.7403 67.508 3129.2296 67.83253 3129.5362 C 68.15706 3129.8428 68.67754 3130.3385 69.00206 3130.6485 C 69.3266 3130.9586 69.84705 3131.4588 70.17159 3131.7708 C 70.49611 3132.0828 71.01659 3132.5845 71.34111 3132.8973 C 71.66565 3133.2098 72.1861 3133.713 72.51064 3134.0242 C 72.83516 3134.3358 73.35564 3134.833 73.68016 3135.141 C 74.0047 3135.4495 74.52515 3135.9422 74.84969 3136.2454 C 75.17421 3136.5489 75.69469 3137.0318 76.01921 3137.3275 C 76.34375 3137.6234 76.86423 3138.0916 77.18875 3138.3773 C 77.51329 3138.6629 78.03374 3139.1138 78.35828 3139.3868 C 78.6828 3139.6595 79.20328 3140.0863 79.5278 3140.3428 C 79.85234 3140.5994 80.37279 3140.9996 80.69733 3141.236 C 81.02185 3141.4727 81.54231 3141.836 81.86684 3142.0484 C 82.19138 3142.2608 82.71184 3142.583 83.03638 3142.7667 C 83.3609 3142.9503 83.88136 3143.2227 84.20589 3143.3719 C 84.53043 3143.5208 85.0509 3143.733 85.37543 3143.841 C 85.69997 3143.9493 86.22041 3144.0914 86.54495 3144.1512 C 86.86948 3144.211 87.38995 3144.2696 87.71448 3144.2723 C 88.03902 3144.275 88.55948 3144.2359 88.88402 3144.1715 C 89.20854 3144.107 89.729 3143.9515 90.05353 3143.808 C 90.37807 3143.6649 90.89853 3143.375 91.22307 3143.1385 C 91.54759 3142.902 92.06805 3142.4512 92.39258 3142.104 C 92.71712 3141.757 93.2376 3141.1156 93.56212 3140.6375 C 93.88666 3140.1595 94.40712 3139.293 94.73166 3138.659 C 95.05618 3138.0252 95.57664 3136.8897 95.90117 3136.0687 C 96.22571 3135.2474 96.74615 3133.7877 97.0707 3132.7406 C 97.39522 3131.6934 97.9157 3129.8433 98.24022 3128.521 C 98.56476 3127.1988 99.0852 3124.8709 99.40974 3123.2105 C 99.73427 3121.55 100.25475 3118.6346 100.57927 3116.554 C 100.90381 3114.4732 101.42426 3110.8245 101.7488 3108.214 C 102.07333 3105.6036 102.5938 3101.028 102.91833 3097.7386 C 103.24286 3094.449 103.76334 3088.682 104.08786 3084.505 C 104.4124 3080.3282 104.93285 3072.9993 105.25739 3067.635 C 105.58191 3062.2706 106.10239 3052.844 106.42691 3045.8424 C 106.75145 3038.8409 107.2719 3026.5167 107.59644 3017.172 C 107.92096 3007.828 108.44144 2991.356 108.76596 2978.4949 C 109.0905 2965.6336 109.61096 2942.9703 109.9355 2924.4774 C 110.26004 2905.9844 110.78049 2873.5877 111.10503 2845.2113 C 111.42955 2816.835 111.95001 2768.2784 112.27454 2719.9605 C 112.59908 2671.6429 113.11954 2596.8262 113.44408 2496.9708 C 113.7686 2397.1153 114.28906 2346.722 114.61359 2000.2719 C 114.93813 1653.8218 115.78311 0 115.78311 0 "/>
<path transform="matrix(1,0,0,-1,.199,3206.721)" stroke-width="1.19553" stroke-linecap="butt" stroke-miterlimit="10" stroke-linejoin="miter" fill="none" stroke="#800000" d="M 117.3413 4055.5196 C 117.3413 4055.5196 119.65729 3397.3878 120.5468 3278.118 C 121.43631 3158.8485 122.86281 3211.5032 123.75232 3195.9066 C 124.64183 3180.3096 126.06833 3171.965 126.95784 3165.707 C 127.84735 3159.4493 129.27385 3154.029 130.16336 3150.8035 C 131.05287 3147.578 132.47936 3144.298 133.36887 3142.46 C 134.25838 3140.6217 135.68488 3138.632 136.57439 3137.5543 C 137.4639 3136.4764 138.8904 3135.3033 139.7799 3134.6915 C 140.66942 3134.0797 142.09592 3133.4483 142.98543 3133.1446 C 143.87494 3132.8409 145.3014 3132.5889 146.19094 3132.5025 C 147.08045 3132.416 148.50693 3132.447 149.39646 3132.522 C 150.28597 3132.5968 151.71245 3132.8446 152.60196 3133.0426 C 153.49149 3133.2403 154.91797 3133.6529 155.80748 3133.9483 C 156.697 3134.2437 158.12348 3134.7957 159.01299 3135.1715 C 159.9025 3135.547 161.329 3136.2144 162.2185 3136.6563 C 163.10802 3137.0985 164.53452 3137.8587 165.42403 3138.3577 C 166.31354 3138.8568 167.74004 3139.7037 168.62955 3140.2528 C 169.51906 3140.8018 170.94554 3141.7222 171.83506 3142.3153 C 172.72457 3142.9085 174.15106 3143.895 175.04058 3144.5279 C 175.93009 3145.1605 177.35659 3146.2083 178.2461 3146.8756 C 179.1356 3147.5426 180.5621 3148.6356 181.45162 3149.3363 C 182.34113 3150.0367 183.76761 3151.1937 184.65712 3151.925 C 185.54663 3152.6568 186.97313 3153.848 187.86264 3154.6085 C 188.75215 3155.369 190.17864 3156.619 191.06816 3157.4066 C 191.95767 3158.194 194.27368 3160.285 194.27368 3160.285 "/>
<symbol id="font_1_2">
<path d="M .21100003 .63900008 C .21100003 .66400006 .21000001 .666 .18500003 .666 C .123 .60200008 .031000004 .60200008 0 .60200008 L 0 .57100006 C .019000002 .57100006 .080000009 .57100006 .134 .597 L .134 .080000009 C .134 .043 .13100001 .031000002 .03800001 .031000002 L .0060000049 .031000002 L .0060000049 0 C .042000005 .003 .13100001 .003 .17200002 .003 C .21300003 .003 .30300004 .003 .33900003 0 L .33900003 .031000002 L .307 .031000002 C .21400002 .031000002 .21100003 .043 .21100003 .080000009 L .21100003 .63900008 Z "/>
</symbol>
<symbol id="font_1_1">
<path d="M .43300004 .34200005 C .43300004 .40900005 .43000005 .49500004 .39500005 .57000008 C .35100005 .66400006 .27500005 .688 .217 .688 C .157 .688 .081 .66400006 .037000006 .568 C .004999999 .49900005 0 .41800005 0 .34200005 C 0 .27700005 .0020000004 .18 .044999999 .101 C .09199999 .016000003 .17 0 .216 0 C .28100003 0 .35500003 .028 .397 .120000008 C .42700003 .187 .43300004 .26200003 .43300004 .34200005 M .217 .025000003 C .187 .025000003 .114999998 .039000006 .096 .15200001 C .085999999 .21100001 .085999999 .29700003 .085999999 .35400004 C .085999999 .42200003 .085999999 .50100007 .098000008 .55600008 C .118 .64500007 .18200001 .66300007 .216 .66300007 C .254 .66300007 .31700004 .64300009 .33600004 .55 C .34700004 .49500004 .34700004 .41700004 .34700004 .35400004 C .34700004 .29200004 .34700004 .208 .337 .149 C .316 .035000005 .242 .025000003 .217 .025000003 Z "/>
</symbol>
<use xlink:href="#font_1_2" transform="matrix(8.9664,0,0,-8.9664,120.866878,100.7439)"/>
<use xlink:href="#font_1_1" transform="matrix(8.9664,0,0,-8.9664,125.00038,100.941158)"/>
<symbol id="font_1_3">
<path d="M 0 .19600001 L 0 .165 L .273 .165 L .273 .079 C .273 .042000005 .27 .031000002 .19500001 .031000002 L .17300001 .031000002 L .17300001 0 C .23600002 .003 .306 .003 .313 .003 C .318 .003 .39000003 .003 .453 0 L .453 .031000002 L .431 .031000002 C .356 .031000002 .35300002 .042000005 .35300002 .079 L .35300002 .165 L .455 .165 L .455 .19600001 L .35300002 .19600001 L .35300002 .65000006 C .35300002 .67 .35300002 .67700007 .334 .67700007 C .322 .67700007 .321 .67600008 .312 .66200008 L 0 .19600001 M .032000007 .19600001 L .279 .56600007 L .279 .19600001 L .032000007 .19600001 Z "/>
</symbol>
<use xlink:href="#font_1_3" transform="matrix(8.9664,0,0,-8.9664,74.83302,100.7439)"/>
<symbol id="font_1_4">
<path d="M .091000009 .35300005 C .091000009 .45500005 .10200001 .512 .12900001 .56400009 C .149 .605 .19800002 .66300007 .272 .66300007 C .292 .66300007 .338 .65900006 .361 .623 C .324 .623 .308 .60400006 .308 .577 C .308 .55100008 .326 .531 .354 .531 C .382 .531 .40100003 .549 .40100003 .57900008 C .40100003 .63500007 .361 .688 .27 .688 C .14100002 .688 0 .56100007 0 .33800004 C 0 .067 .12200001 0 .216 0 C .327 0 .42700003 .093 .42700003 .22500001 C .42700003 .35200004 .335 .44800005 .22200002 .44800005 C .16200002 .44800005 .119 .41300006 .091000009 .35300005 M .21500002 .028 C .158 .028 .12500002 .075 .113000009 .104 C .09400001 .149 .09300001 .23200001 .09300001 .24800001 C .09300001 .31500004 .12400001 .42300005 .22000002 .42300005 C .23600002 .42300005 .285 .42300005 .317 .36100004 C .336 .32300005 .336 .27400003 .336 .22600001 C .336 .178 .336 .12900001 .317 .092 C .286 .035000005 .24200003 .028 .21500002 .028 Z "/>
</symbol>
<use xlink:href="#font_1_4" transform="matrix(8.9664,0,0,-8.9664,91.66655,100.941158)"/>
<use xlink:href="#font_1_2" transform="matrix(8.9664,0,0,-8.9664,151.94989,100.7439)"/>
<use xlink:href="#font_1_3" transform="matrix(8.9664,0,0,-8.9664,155.98477,100.7439)"/>
</g>
<path transform="matrix(1,0,0,-1,.199,3206.721)" d="M 40.84729 3113.6143 C 40.84729 3114.7147 39.9552 3115.6068 38.85474 3115.6068 C 37.75426 3115.6068 36.86218 3114.7147 36.86218 3113.6143 C 36.86218 3112.5137 37.75426 3111.6217 38.85474 3111.6217 C 39.9552 3111.6217 40.84729 3112.5137 40.84729 3113.6143 Z M 38.85474 3113.6143 " fill="#800000"/>
<path transform="matrix(1,0,0,-1,.199,3206.721)" stroke-width="1" stroke-linecap="butt" stroke-miterlimit="10" stroke-linejoin="miter" fill="none" stroke="#800000" d="M 40.84729 3113.6143 C 40.84729 3114.7147 39.9552 3115.6068 38.85474 3115.6068 C 37.75426 3115.6068 36.86218 3114.7147 36.86218 3113.6143 C 36.86218 3112.5137 37.75426 3111.6217 38.85474 3111.6217 C 39.9552 3111.6217 40.84729 3112.5137 40.84729 3113.6143 Z M 38.85474 3113.6143 "/>
<symbol id="font_2_1">
<path d="M .462 .41500003 C .425 .40800003 .41400004 .37600003 .41400004 .36100004 C .41400004 .34200005 .42800004 .32500003 .453 .32500003 C .48100005 .32500003 .508 .34900005 .508 .38400004 C .508 .43000005 .45800004 .45300005 .411 .45300005 C .351 .45300005 .316 .40000005 .30400003 .37900005 C .28500004 .42800004 .24100003 .45300005 .193 .45300005 C .086 .45300005 .028 .32500003 .028 .29900003 C .028 .29000003 .035000005 .28700004 .042000005 .28700004 C .051 .28700004 .054000006 .29200004 .056 .298 C .087000008 .397 .15300001 .42800004 .19100002 .42800004 C .22 .42800004 .24600002 .40900005 .24600002 .36200003 C .24600002 .32600004 .20300001 .16600001 .19000001 .11800001 C .18200001 .087000008 .15200001 .025000003 .097 .025000003 C .07700001 .025000003 .056 .032 .046000005 .038000004 C .07300001 .043 .093 .06600001 .093 .092 C .093 .117000009 .074 .128 .055 .128 C .026 .128 0 .10300001 0 .069000009 C 0 .020000002 .054000006 0 .096 0 C .15400002 0 .18800001 .048 .20300001 .075 C .22800002 .009000001 .287 0 .314 0 C .42200003 0 .479 .13000001 .479 .15400002 C .479 .15900001 .47600005 .16600001 .46600003 .16600001 C .455 .16600001 .45400004 .16200002 .44900004 .14700002 C .42700003 .075 .36900003 .025000003 .317 .025000003 C .28800003 .025000003 .261 .043 .261 .091000009 C .261 .113000009 .275 .16800002 .284 .20600002 C .28800003 .22400002 .31500004 .33200003 .317 .33900003 C .32900004 .37500004 .35900004 .42800004 .41000004 .42800004 C .42800004 .42800004 .44700004 .42500005 .462 .41500003 Z "/>
</symbol>
<use xlink:href="#font_2_1" transform="matrix(8.9664,0,0,-8.9664,198.04001,94.68555)"/>
<symbol id="font_2_2">
<path d="M .47300003 .59000006 C .474 .595 .47599999 .6010001 .47599999 .607 C .47599999 .62 .467 .63600006 .44500003 .63600006 C .432 .63600006 .414 .628 .40600003 .609 C .405 .605 .395 .564 .389 .54200008 L .33900003 .342 C .331 .31300003 .331 .31100003 .329 .30200003 C .328 .298 .286 .21900001 .21400002 .21900001 C .15200001 .21900001 .15200001 .282 .15200001 .301 C .15200001 .34600003 .165 .39500005 .20800002 .507 C .216 .53000006 .22200002 .544 .22200002 .563 C .22200002 .612 .18500002 .6470001 .136 .6470001 C .040000008 .6470001 0 .505 0 .49300004 C 0 .48400004 .007000001 .48100005 .014 .48100005 C .025 .48100005 .026000003 .48700003 .030000003 .5 C .051000008 .574 .091000009 .62200006 .133 .62200006 C .157 .62200006 .157 .60300007 .157 .589 C .157 .572 .15300001 .554 .14400001 .53000006 C .097 .40600003 .08400001 .36400003 .08400001 .316 C .08400001 .20500002 .17400001 .194 .21100001 .194 C .26 .194 .295 .22000002 .313 .238 C .3 .187 .289 .14200002 .25 .09200001 C .22000002 .052 .18 .025000006 .136 .025000006 C .10800001 .025000006 .075 .03500001 .061000006 .06300001 C .11400001 .06300001 .12100001 .10700001 .12100001 .117000009 C .12100001 .13900002 .105000007 .15300001 .083000008 .15300001 C .059000009 .15300001 .027 .134 .027 .08800001 C .027 .036 .07300001 0 .136 0 C .23800002 0 .347 .087000008 .37600003 .20400001 L .47300003 .59000006 Z "/>
</symbol>
<use xlink:href="#font_2_2" transform="matrix(8.9664,0,0,-8.9664,36.883028,8.769997)"/>
</svg>
