<?xml version="1.0" encoding="UTF-8" standalone="no"?>
<!DOCTYPE svg PUBLIC "-//W3C//DTD SVG 1.1//EN" "http://www.w3.org/Graphics/SVG/1.1/DTD/svg11.dtd">
<svg xmlns="http://www.w3.org/2000/svg" xmlns:xlink="http://www.w3.org/1999/xlink" version="1.1" width="206.067pt" height="173.566pt" viewBox="0 0 206.067 173.566">
<path transform="matrix(1,0,0,-1,.199,173.36699)" stroke-width="1" stroke-linecap="butt" stroke-miterlimit="10" stroke-linejoin="miter" fill="none" stroke="#000000" d="M 0 69.16595 L 192.27507 69.16595 "/>
<path transform="matrix(1,0,0,-1,192.47408,104.20104)" d="M 1.99252 0 L -1.19551 1.59401 L 0 0 L -1.19551 -1.59401 "/>
<path transform="matrix(1,0,0,-1,.199,173.36699)" stroke-width="1" stroke-linecap="butt" stroke-miterlimit="10" stroke-linejoin="miter" fill="none" stroke="#000000" d="M 21.58528 0 L 21.58528 159.39472 "/>
<path transform="matrix(0,-1,-1,-0,21.784279,13.972275)" d="M 1.99252 0 L -1.19551 1.59401 L 0 0 L -1.19551 -1.59401 "/>
<clipPath id="cp0">
<path transform="matrix(1,0,0,-1,.199,173.36699)" d="M 0 0 L 194.2676 0 L 194.2676 161.38724 L 0 161.38724 Z "/>
</clipPath>
<g clip-path="url(#cp0)">
<path transform="matrix(1,0,0,-1,.199,173.36699)" stroke-width="1" stroke-linecap="butt" stroke-miterlimit="10" stroke-linejoin="miter" fill="none" stroke="#000000" d="M 0 69.16595 C 0 69.16595 5.84828 69.16595 8.09447 69.16595 C 10.34065 69.16595 13.94278 69.16595 16.18896 69.16595 C 18.43515 69.16595 22.03725 69.16595 24.28343 69.16595 C 26.52962 69.16595 30.13174 69.16595 32.37793 69.16595 C 34.62411 69.16595 38.22621 69.16595 40.4724 69.16595 C 42.71858 69.16595 46.32071 69.16595 48.5669 69.16595 C 50.81308 69.16595 54.41519 69.16595 56.66136 69.16595 C 58.90755 69.16595 62.50967 69.16595 64.75586 69.16595 C 67.00204 69.16595 70.60416 69.16595 72.85034 69.16595 C 75.09651 69.16595 78.69864 69.16595 80.94482 69.16595 C 83.19101 69.16595 86.79312 69.16595 89.0393 69.16595 C 91.28549 69.16595 94.8876 69.16595 97.13379 69.16595 C 99.37997 69.16595 102.98209 69.16595 105.22827 69.16595 C 107.47446 69.16595 111.07658 69.16595 113.32275 69.16595 C 115.56894 69.16595 119.17105 69.16595 121.41724 69.16595 C 123.66342 69.16595 127.26555 69.16595 129.51174 69.16595 C 131.7579 69.16595 135.36002 69.16595 137.6062 69.16595 C 139.85239 69.16595 143.45452 69.16595 145.7007 69.16595 C 147.94689 69.16595 151.54898 69.16595 153.79517 69.16595 C 156.04135 69.16595 159.64348 69.16595 161.88967 69.16595 C 164.13585 69.16595 167.73795 69.16595 169.98413 69.16595 C 172.23032 69.16595 175.83245 69.16595 178.07863 69.16595 C 180.32482 69.16595 183.92693 69.16595 186.17311 69.16595 C 188.41928 69.16595 194.2676 69.16595 194.2676 69.16595 "/>
<path transform="matrix(1,0,0,-1,.199,173.36699)" stroke-width="1" stroke-linecap="butt" stroke-miterlimit="10" stroke-linejoin="miter" fill="none" stroke="#000000" stroke-opacity=".1" d="M 183.47495 96.83234 L 151.09702 96.83234 "/>
<path transform="matrix(1,0,0,-1,.199,173.36699)" stroke-width="1" stroke-linecap="butt" stroke-miterlimit="10" stroke-linejoin="miter" fill="none" stroke="#000000" stroke-opacity=".1" d="M 183.47495 138.33191 L 151.09702 138.33191 "/>
<path transform="matrix(1,0,0,-1,.199,173.36699)" stroke-width="1" stroke-linecap="butt" stroke-miterlimit="10" stroke-linejoin="miter" fill="none" stroke="#000000" stroke-opacity=".1" d="M 183.47495 115.2766 L 151.09702 115.2766 "/>
<path transform="matrix(1,0,0,-1,.199,173.36699)" stroke-width="1" stroke-linecap="butt" stroke-miterlimit="10" stroke-linejoin="miter" fill="none" stroke="#000000" stroke-opacity=".1" d="M 47.48763 0 L 47.48763 138.33191 "/>
<path transform="matrix(1,0,0,-1,.199,173.36699)" stroke-width="1" stroke-linecap="butt" stroke-miterlimit="10" stroke-linejoin="miter" fill="none" stroke="#000000" stroke-opacity=".1" d="M 75.54851 0 L 75.54851 138.33191 "/>
<path transform="matrix(1,0,0,-1,.199,173.36699)" stroke-width="1" stroke-linecap="butt" stroke-miterlimit="10" stroke-linejoin="miter" fill="none" stroke="#000000" stroke-opacity=".1" d="M 129.51174 0 L 129.51174 138.33191 "/>
<path transform="matrix(1,0,0,-1,.199,173.36699)" stroke-width="1" stroke-linecap="butt" stroke-miterlimit="10" stroke-linejoin="miter" fill="none" stroke="#000000" stroke-opacity=".1" d="M 151.09702 0 L 151.09702 138.33191 "/>
<path transform="matrix(1,0,0,-1,.199,173.36699)" stroke-width="1.19553" stroke-linecap="butt" stroke-miterlimit="10" stroke-linejoin="miter" fill="none" stroke="#800000" d="M 0 291.41923 C 0 291.41923 1.10268 276.414 1.5262 270.86695 C 1.9497 265.31986 2.62889 256.67955 3.0524 251.4397 C 3.4759 246.19988 4.1551 238.04457 4.57861 233.10187 C 5.00212 228.15918 5.6813 220.47165 6.10481 215.8162 C 6.52834 211.16072 7.2075 203.92633 7.63103 199.54848 C 8.05453 195.17063 8.73373 188.37352 9.15724 184.26369 C 9.58075 180.15387 10.25993 173.77883 10.68344 169.92768 C 11.10695 166.07653 11.78615 160.10897 12.20966 156.5072 C 12.63316 152.90544 13.31235 147.33014 13.73586 143.9687 C 14.15938 140.60727 14.83856 135.41036 15.26208 132.28032 C 15.6856 129.1503 16.36478 124.31708 16.78828 121.40965 C 17.21179 118.50223 17.89099 114.01904 18.3145 111.32564 C 18.738 108.63222 19.41719 104.48523 19.8407 101.99733 C 20.26422 99.50943 20.9434 95.68521 21.36691 93.39452 C 21.79044 91.10382 22.4696 87.58919 22.89313 85.48753 C 23.31664 83.38586 23.99582 80.16783 24.41933 78.24721 C 24.84283 76.32657 25.52203 73.39236 25.94554 71.64491 C 26.36905 69.89746 27.04823 67.23474 27.47174 65.65276 C 27.89526 64.07079 28.57445 61.66708 28.99797 60.24304 C 29.42148 58.819 30.10065 56.66261 30.52417 55.38913 C 30.94768 54.11565 31.62688 52.19478 32.05038 51.06454 C 32.47389 49.93431 33.15308 48.23717 33.57658 47.24312 C 34.00009 46.24908 34.67929 44.76491 35.1028 43.90015 C 35.52632 43.03539 36.20549 41.75276 36.62901 41.0105 C 37.05252 40.26822 37.73172 39.17679 38.15523 38.55034 C 38.57874 37.92389 39.25792 37.01254 39.68143 36.49547 C 40.10493 35.97841 40.78412 35.23761 41.20763 34.82364 C 41.63115 34.40965 42.31033 33.82927 42.73384 33.51172 C 43.15736 33.19417 43.83653 32.76128 44.26006 32.53487 C 44.68356 32.30847 45.36275 32.02086 45.78625 31.87987 C 46.20976 31.73886 46.88896 31.58023 47.31247 31.51857 C 47.73598 31.45691 48.41516 31.42365 48.83867 31.4354 C 49.26219 31.44713 49.94136 31.52344 50.36488 31.6032 C 50.78839 31.68294 51.46758 31.86668 51.8911 32.01022 C 52.3146 32.15376 52.99379 32.43625 53.4173 32.6378 C 53.8408 32.83936 54.51999 33.20897 54.9435 33.46289 C 55.367 33.71681 56.04619 34.16539 56.4697 34.46796 C 56.89322 34.77052 57.5724 35.29707 57.99593 35.64365 C 58.41943 35.99022 59.09862 36.58015 59.52213 36.9659 C 59.94563 37.35165 60.62482 38.00368 61.04832 38.42392 C 61.47183 38.84416 62.15102 39.54422 62.57452 39.99478 C 62.99805 40.44536 63.67723 41.19345 64.10074 41.67139 C 64.52426 42.14932 65.20343 42.9387 65.62695 43.43942 C 66.05046 43.94012 66.72964 44.76111 67.15315 45.28023 C 67.57666 45.79935 68.25586 46.6459 68.67937 47.1809 C 69.10287 47.71588 69.78206 48.58868 70.20557 49.13612 C 70.62909 49.68358 71.30826 50.57028 71.73178 51.12657 C 72.15529 51.68286 72.83446 52.58405 73.25798 53.1455 C 73.68149 53.70692 74.36069 54.60884 74.7842 55.1731 C 75.2077 55.73735 75.88689 56.64711 76.3104 57.21233 C 76.7339 57.77753 77.41309 58.68446 77.8366 59.24677 C 78.26012 59.80908 78.93929 60.70837 79.36281 61.26503 C 79.78632 61.82169 80.46552 62.70947 80.88902 63.25873 C 81.31253 63.80797 81.99171 64.68349 82.41522 65.22365 C 82.83873 65.76382 83.51791 66.62346 83.94142 67.15201 C 84.36494 67.68057 85.04411 68.5186 85.46762 69.0332 C 85.89114 69.5478 86.57033 70.36134 86.99385 70.86098 C 87.41736 71.3606 88.09654 72.15112 88.52005 72.63422 C 88.94356 73.1173 89.62274 73.8779 90.04625 74.34279 C 90.46976 74.80768 91.14896 75.53963 91.57246 75.98491 C 91.99599 76.43019 92.67516 77.12753 93.09868 77.55208 C 93.52219 77.97662 94.20135 78.6414 94.62488 79.04483 C 95.04839 79.44827 95.72757 80.07863 96.15108 80.45978 C 96.57458 80.84093 97.25378 81.434 97.67729 81.79195 C 98.1008 82.14987 98.77998 82.70502 99.20349 83.03955 C 99.62701 83.37408 100.30618 83.89207 100.7297 84.20314 C 101.15321 84.5142 101.8324 84.99431 102.2559 85.28156 C 102.67941 85.5688 103.35861 86.0103 103.78212 86.27345 C 104.20563 86.53662 104.88481 86.93918 105.30832 87.17831 C 105.73184 87.41747 106.41101 87.78143 106.83452 87.99713 C 107.25804 88.21283 107.93721 88.54028 108.36073 88.73296 C 108.78424 88.92563 109.46344 89.21576 109.88695 89.38582 C 110.31046 89.55588 110.98964 89.81046 111.41315 89.95876 C 111.83665 90.10704 112.51584 90.32724 112.93935 90.45464 C 113.36287 90.58203 114.04205 90.76941 114.46558 90.87701 C 114.88908 90.9846 115.56825 91.1412 115.99178 91.23015 C 116.41528 91.31909 117.09447 91.44652 117.51797 91.51813 C 117.94148 91.58972 118.62067 91.69041 119.04417 91.74625 C 119.46768 91.80206 120.14688 91.87878 120.57039 91.92053 C 120.99391 91.96228 121.67308 92.01772 122.0966 92.04715 C 122.52011 92.07658 123.1993 92.11365 123.6228 92.13272 C 124.04631 92.1518 124.7255 92.17381 125.149 92.18468 C 125.57251 92.19556 126.25171 92.20615 126.67522 92.21107 C 127.09874 92.216 127.77791 92.21883 128.20142 92.22025 C 128.62494 92.22165 129.30411 92.22081 129.72763 92.22127 C 130.15114 92.22174 130.83032 92.22144 131.25383 92.22372 C 131.67734 92.226 132.35654 92.23076 132.78005 92.23773 C 133.20355 92.24472 133.88274 92.25932 134.30625 92.27402 C 134.72977 92.28873 135.40894 92.31816 135.83246 92.34378 C 136.25597 92.36942 136.93515 92.41893 137.35868 92.45883 C 137.78218 92.49873 138.46137 92.5738 138.88488 92.6315 C 139.30838 92.6892 139.98757 92.79555 140.41107 92.8747 C 140.83458 92.95386 141.51377 93.09773 141.93727 93.2021 C 142.3608 93.30649 143.03998 93.49344 143.4635 93.62698 C 143.88701 93.76053 144.5662 93.99768 144.9897 94.16466 C 145.41321 94.33165 146.09239 94.62589 146.5159 94.83046 C 146.9394 95.03503 147.61859 95.39275 148.0421 95.63918 C 148.46562 95.88562 149.1448 96.31355 149.56832 96.60669 C 149.99184 96.89984 151.09453 97.75194 151.09453 97.75194 "/>
<path transform="matrix(1,0,0,-1,.199,173.36699)" stroke-width="1.19553" stroke-linecap="butt" stroke-miterlimit="10" stroke-linejoin="miter" fill="none" stroke="#800000" d="M 151.09702 138.33191 C 151.09702 138.33191 152.39664 135.55565 152.89579 134.48937 C 153.39492 133.4231 154.19539 131.7131 154.69454 130.64684 C 155.19368 129.58055 155.99417 127.87057 156.4933 126.8043 C 156.99245 125.73802 157.79293 124.02805 158.29207 122.96176 C 158.79122 121.89548 159.5917 120.18552 160.09084 119.11923 C 160.58998 118.05295 161.39046 116.34297 161.8896 115.27669 C 162.38875 114.2104 163.18924 112.50043 163.68837 111.43414 C 164.18752 110.36786 164.98799 108.6579 165.48714 107.59161 C 165.98627 106.52533 166.78676 104.81535 167.2859 103.74907 C 167.78505 102.68279 168.58553 100.97282 169.08467 99.90654 C 169.5838 98.84026 170.3843 97.13028 170.88344 96.064 C 171.38259 94.99771 172.18306 93.28773 172.6822 92.22145 C 173.18134 91.15518 173.98183 89.44522 174.48097 88.37894 C 174.98012 87.31267 175.7806 85.6027 176.27974 84.53642 C 176.77887 83.47012 177.57936 81.7601 178.0785 80.69382 C 178.57765 79.62752 179.37813 77.91757 179.87726 76.85129 C 180.3764 75.785 181.1769 74.07504 181.67604 73.00876 C 182.17519 71.94247 182.97566 70.23251 183.4748 69.16623 C 183.97394 68.09995 184.77443 66.38998 185.27358 65.3237 C 185.77272 64.25742 186.5732 62.54745 187.07233 61.48117 C 187.57147 60.41489 188.37197 58.70493 188.87111 57.63864 C 189.37024 56.57236 190.17072 54.8624 190.66986 53.79611 C 191.169 52.72983 191.9695 51.01985 192.46865 49.95357 C 192.96778 48.88728 194.2674 46.11104 194.2674 46.11104 "/>
<symbol id="font_1_1">
<path d="M .21100003 .63900008 C .21100003 .66400006 .21000001 .666 .18500003 .666 C .123 .60200008 .031000004 .60200008 0 .60200008 L 0 .57100006 C .019000002 .57100006 .080000009 .57100006 .134 .597 L .134 .080000009 C .134 .043 .13100001 .031000002 .03800001 .031000002 L .0060000049 .031000002 L .0060000049 0 C .042000005 .003 .13100001 .003 .17200002 .003 C .21300003 .003 .30300004 .003 .33900003 0 L .33900003 .031000002 L .307 .031000002 C .21400002 .031000002 .21100003 .043 .21100003 .080000009 L .21100003 .63900008 Z "/>
</symbol>
<use xlink:href="#font_1_1" transform="matrix(8.9664,0,0,-8.9664,51.790876,123.22899)"/>
<symbol id="font_1_2">
<path d="M .411 .177 L .38300003 .177 C .381 .164 .37300004 .105000007 .36 .089 C .35400004 .080000009 .28500004 .080000009 .26500003 .080000009 L .08700001 .080000009 L .18600002 .17400001 C .35000003 .316 .411 .36900003 .411 .47100003 C .411 .586 .316 .666 .19300002 .666 C .07800001 .666 0 .57500007 0 .48400004 C 0 .43400003 .043 .42900003 .052000006 .42900003 C .074 .42900003 .104 .44500003 .104 .48100005 C .104 .51100006 .083000008 .53300008 .052000006 .53300008 C .047000003 .53300008 .044000005 .53300008 .040000004 .532 C .063999999 .60300007 .128 .63500007 .18200001 .63500007 C .284 .63500007 .319 .54 .319 .47100003 C .319 .36900003 .24200002 .286 .194 .23400001 L .011 .036000004 C 0 .025 0 .023000002 0 0 L .38300003 0 L .411 .177 Z "/>
</symbol>
<use xlink:href="#font_1_2" transform="matrix(8.9664,0,0,-8.9664,79.47428,123.22899)"/>
<symbol id="font_2_1">
<path d="M .108 .054 C .108 .083000008 .085 .108 .053999999 .108 C .023000002 .108 0 .083000008 0 .054 C 0 .025 .023000002 0 .053999999 0 C .085 0 .108 .025 .108 .054 Z "/>
</symbol>
<use xlink:href="#font_2_1" transform="matrix(8.9664,0,0,-8.9664,84.41404,123.22899)"/>
<symbol id="font_1_4">
<path d="M .053 .36700005 C .053 .34900005 .053 .33800004 .067 .33800004 C .075 .33800004 .07800001 .34200005 .08400001 .35100005 C .11400001 .39300005 .16200002 .41700004 .21400002 .41700004 C .321 .41700004 .321 .263 .321 .22700002 C .321 .19600001 .321 .134 .293 .089 C .266 .047000003 .224 .028 .18500002 .028 C .126 .028 .059000005 .065000008 .035 .13900002 C .036000004 .13900002 .042 .13700001 .049 .13700001 C .069000009 .13700001 .098000008 .15 .098000008 .186 C .098000008 .21700001 .076000008 .23500002 .049 .23500002 C .028 .23500002 0 .223 0 .18300002 C 0 .092 .076000008 0 .187 0 C .30800004 0 .411 .098000008 .411 .222 C .411 .34300003 .32500003 .44200004 .21600002 .44200004 C .16800002 .44200004 .119 .42600004 .08400001 .39000006 L .08400001 .587 C .11400001 .57800009 .14500001 .573 .17600002 .573 C .29900003 .573 .37100003 .66200008 .37100003 .6750001 C .37100003 .6840001 .365 .688 .36 .688 C .358 .688 .356 .688 .34700004 .683 C .3 .66400006 .254 .656 .21200001 .656 C .16900002 .656 .12400001 .66400006 .07800001 .683 C .068 .688 .066 .688 .065 .688 C .053 .688 .053 .67800006 .053 .6610001 L .053 .36700005 Z "/>
</symbol>
<use xlink:href="#font_1_4" transform="matrix(8.9664,0,0,-8.9664,86.64228,123.42625)"/>
<use xlink:href="#font_1_4" transform="matrix(8.9664,0,0,-8.9664,133.4373,123.42625)"/>
<symbol id="font_1_5">
<path d="M .091000009 .35300005 C .091000009 .45500005 .10200001 .512 .12900001 .56400009 C .149 .605 .19800002 .66300007 .272 .66300007 C .292 .66300007 .338 .65900006 .361 .623 C .324 .623 .308 .60400006 .308 .577 C .308 .55100008 .326 .531 .354 .531 C .382 .531 .40100003 .549 .40100003 .57900008 C .40100003 .63500007 .361 .688 .27 .688 C .14100002 .688 0 .56100007 0 .33800004 C 0 .067 .12200001 0 .216 0 C .327 0 .42700003 .093 .42700003 .22500001 C .42700003 .35200004 .335 .44800005 .22200002 .44800005 C .16200002 .44800005 .119 .41300006 .091000009 .35300005 M .21500002 .028 C .158 .028 .12500002 .075 .113000009 .104 C .09400001 .149 .09300001 .23200001 .09300001 .24800001 C .09300001 .31500004 .12400001 .42300005 .22000002 .42300005 C .23600002 .42300005 .285 .42300005 .317 .36100004 C .336 .32300005 .336 .27400003 .336 .22600001 C .336 .178 .336 .12900001 .317 .092 C .286 .035000005 .24200003 .028 .21500002 .028 Z "/>
</symbol>
<use xlink:href="#font_1_5" transform="matrix(8.9664,0,0,-8.9664,154.95056,123.42625)"/>
<symbol id="font_1_3">
<path d="M .262 .37400005 C .35500003 .40900005 .39900003 .48200003 .39900003 .55100008 C .39900003 .628 .314 .688 .21000003 .688 C .106000009 .688 .028 .62900009 .028 .55300006 C .028 .52000007 .05 .50100007 .07900001 .50100007 C .10800001 .50100007 .12900001 .522 .12900001 .55100008 C .12900001 .586 .105000007 .6010001 .07100001 .6010001 C .097 .64300009 .158 .66300007 .207 .66300007 C .29 .66300007 .306 .59700009 .306 .55 C .306 .52000007 .3 .47200004 .275 .43400005 C .244 .38900004 .209 .38700003 .18 .38500003 C .15500002 .38300006 .15300001 .38300006 .14500001 .38300006 C .136 .38200004 .128 .38100005 .128 .37000004 C .128 .35700003 .136 .35700003 .15300001 .35700003 L .20000002 .35700003 C .287 .35700003 .32500003 .28700004 .32500003 .192 C .32500003 .064 .257 .028 .20600002 .028 C .187 .028 .09 .033000005 .045000007 .107 C .081 .102000009 .10900001 .127 .10900001 .16100002 C .10900001 .194 .08400001 .215 .055000005 .215 C .030000005 .215 0 .2 0 .158 C 0 .069000009 .09300001 0 .209 0 C .334 0 .42700003 .09 .42700003 .192 C .42700003 .279 .358 .35300005 .262 .37400005 Z "/>
</symbol>
<use xlink:href="#font_1_3" transform="matrix(8.9664,0,0,-8.9664,187.32857,38.123258)"/>
<use xlink:href="#font_1_2" transform="matrix(8.9664,0,0,-8.9664,187.4003,60.98098)"/>
<use xlink:href="#font_1_1" transform="matrix(8.9664,0,0,-8.9664,187.77689,79.42498)"/>
</g>
<path transform="matrix(1,0,0,-1,.199,173.36699)" d="M 153.08957 115.2766 C 153.08957 116.37706 152.1975 117.26915 151.09702 117.26915 C 149.99655 117.26915 149.10446 116.37706 149.10446 115.2766 C 149.10446 114.17612 149.99655 113.28404 151.09702 113.28404 C 152.1975 113.28404 153.08957 114.17612 153.08957 115.2766 Z M 151.09702 115.2766 " fill="#800000"/>
<path transform="matrix(1,0,0,-1,.199,173.36699)" stroke-width="1" stroke-linecap="butt" stroke-miterlimit="10" stroke-linejoin="miter" fill="none" stroke="#800000" d="M 153.08957 115.2766 C 153.08957 116.37706 152.1975 117.26915 151.09702 117.26915 C 149.99655 117.26915 149.10446 116.37706 149.10446 115.2766 C 149.10446 114.17612 149.99655 113.28404 151.09702 113.28404 C 152.1975 113.28404 153.08957 114.17612 153.08957 115.2766 Z M 151.09702 115.2766 "/>
<path transform="matrix(1,0,0,-1,.199,173.36699)" d="M 153.08957 138.33191 C 153.08957 139.43239 152.1975 140.32447 151.09702 140.32447 C 149.99655 140.32447 149.10446 139.43239 149.10446 138.33191 C 149.10446 137.23145 149.99655 136.33936 151.09702 136.33936 C 152.1975 136.33936 153.08957 137.23145 153.08957 138.33191 Z M 151.09702 138.33191 " fill="#ffffff"/>
<path transform="matrix(1,0,0,-1,.199,173.36699)" stroke-width="1" stroke-linecap="butt" stroke-miterlimit="10" stroke-linejoin="miter" fill="none" stroke="#800000" d="M 153.08957 138.33191 C 153.08957 139.43239 152.1975 140.32447 151.09702 140.32447 C 149.99655 140.32447 149.10446 139.43239 149.10446 138.33191 C 149.10446 137.23145 149.99655 136.33936 151.09702 136.33936 C 152.1975 136.33936 153.08957 137.23145 153.08957 138.33191 Z M 151.09702 138.33191 "/>
<path transform="matrix(1,0,0,-1,.199,173.36699)" d="M 153.08957 96.83234 C 153.08957 97.93282 152.1975 98.82489 151.09702 98.82489 C 149.99655 98.82489 149.10446 97.93282 149.10446 96.83234 C 149.10446 95.73187 149.99655 94.83978 151.09702 94.83978 C 152.1975 94.83978 153.08957 95.73187 153.08957 96.83234 Z M 151.09702 96.83234 " fill="#ffffff"/>
<path transform="matrix(1,0,0,-1,.199,173.36699)" stroke-width="1" stroke-linecap="butt" stroke-miterlimit="10" stroke-linejoin="miter" fill="none" stroke="#800000" d="M 153.08957 96.83234 C 153.08957 97.93282 152.1975 98.82489 151.09702 98.82489 C 149.99655 98.82489 149.10446 97.93282 149.10446 96.83234 C 149.10446 95.73187 149.99655 94.83978 151.09702 94.83978 C 152.1975 94.83978 153.08957 95.73187 153.08957 96.83234 Z M 151.09702 96.83234 "/>
<symbol id="font_2_2">
<path d="M .462 .41500003 C .425 .40800003 .41400004 .37600003 .41400004 .36100004 C .41400004 .34200005 .42800004 .32500003 .453 .32500003 C .48100005 .32500003 .508 .34900005 .508 .38400004 C .508 .43000005 .45800004 .45300005 .411 .45300005 C .351 .45300005 .316 .40000005 .30400003 .37900005 C .28500004 .42800004 .24100003 .45300005 .193 .45300005 C .086 .45300005 .028 .32500003 .028 .29900003 C .028 .29000003 .035000005 .28700004 .042000005 .28700004 C .051 .28700004 .054000006 .29200004 .056 .298 C .087000008 .397 .15300001 .42800004 .19100002 .42800004 C .22 .42800004 .24600002 .40900005 .24600002 .36200003 C .24600002 .32600004 .20300001 .16600001 .19000001 .11800001 C .18200001 .087000008 .15200001 .025000003 .097 .025000003 C .07700001 .025000003 .056 .032 .046000005 .038000004 C .07300001 .043 .093 .06600001 .093 .092 C .093 .117000009 .074 .128 .055 .128 C .026 .128 0 .10300001 0 .069000009 C 0 .020000002 .054000006 0 .096 0 C .15400002 0 .18800001 .048 .20300001 .075 C .22800002 .009000001 .287 0 .314 0 C .42200003 0 .479 .13000001 .479 .15400002 C .479 .15900001 .47600005 .16600001 .46600003 .16600001 C .455 .16600001 .45400004 .16200002 .44900004 .14700002 C .42700003 .075 .36900003 .025000003 .317 .025000003 C .28800003 .025000003 .261 .043 .261 .091000009 C .261 .113000009 .275 .16800002 .284 .20600002 C .28800003 .22400002 .31500004 .33200003 .317 .33900003 C .32900004 .37500004 .35900004 .42800004 .41000004 .42800004 C .42800004 .42800004 .44700004 .42500005 .462 .41500003 Z "/>
</symbol>
<use xlink:href="#font_2_2" transform="matrix(8.9664,0,0,-8.9664,198.041,106.21761)"/>
<symbol id="font_2_3">
<path d="M .47300003 .59000006 C .474 .595 .47599999 .6010001 .47599999 .607 C .47599999 .62 .467 .63600006 .44500003 .63600006 C .432 .63600006 .414 .628 .40600003 .609 C .405 .605 .395 .564 .389 .54200008 L .33900003 .342 C .331 .31300003 .331 .31100003 .329 .30200003 C .328 .298 .286 .21900001 .21400002 .21900001 C .15200001 .21900001 .15200001 .282 .15200001 .301 C .15200001 .34600003 .165 .39500005 .20800002 .507 C .216 .53000006 .22200002 .544 .22200002 .563 C .22200002 .612 .18500002 .6470001 .136 .6470001 C .040000008 .6470001 0 .505 0 .49300004 C 0 .48400004 .007000001 .48100005 .014 .48100005 C .025 .48100005 .026000003 .48700003 .030000003 .5 C .051000008 .574 .091000009 .62200006 .133 .62200006 C .157 .62200006 .157 .60300007 .157 .589 C .157 .572 .15300001 .554 .14400001 .53000006 C .097 .40600003 .08400001 .36400003 .08400001 .316 C .08400001 .20500002 .17400001 .194 .21100001 .194 C .26 .194 .295 .22000002 .313 .238 C .3 .187 .289 .14200002 .25 .09200001 C .22000002 .052 .18 .025000006 .136 .025000006 C .10800001 .025000006 .075 .03500001 .061000006 .06300001 C .11400001 .06300001 .12100001 .10700001 .12100001 .117000009 C .12100001 .13900002 .105000007 .15300001 .083000008 .15300001 C .059000009 .15300001 .027 .134 .027 .08800001 C .027 .036 .07300001 0 .136 0 C .23800002 0 .347 .087000008 .37600003 .20400001 L .47300003 .59000006 Z "/>
</symbol>
<use xlink:href="#font_2_3" transform="matrix(8.9664,0,0,-8.9664,19.617026,8.770103)"/>
</svg>
