<?xml version="1.0" encoding="UTF-8" standalone="no"?>
<!DOCTYPE svg PUBLIC "-//W3C//DTD SVG 1.1//EN" "http://www.w3.org/Graphics/SVG/1.1/DTD/svg11.dtd">
<svg xmlns="http://www.w3.org/2000/svg" xmlns:xlink="http://www.w3.org/1999/xlink" version="1.1" width="207.037pt" height="174.685pt" viewBox="0 0 207.037 174.685">
<path transform="matrix(1,0,0,-1,.199,174.486)" stroke-width="1" stroke-linecap="butt" stroke-miterlimit="10" stroke-linejoin="miter" fill="none" stroke="#000080" d="M 38.85443 80.69788 C 38.85443 80.69788 42.75333 80.69727 44.25078 80.70341 C 45.74823 80.70958 48.14967 80.72229 49.64714 80.74234 C 51.14462 80.76239 53.54605 80.80476 55.04352 80.84796 C 56.54097 80.89114 58.94241 80.97807 60.43987 81.05365 C 61.93732 81.12924 64.33875 81.27553 65.83621 81.39276 C 67.3337 81.51001 69.73514 81.73051 71.2326 81.89867 C 72.73007 82.0668 75.1315 82.3764 76.62895 82.6047 C 78.1264 82.83301 80.52783 83.24648 82.02531 83.54422 C 83.52278 83.84195 85.92422 84.37418 87.42169 84.75058 C 88.91916 85.12698 91.32059 85.79282 92.81804 86.25714 C 94.3155 86.72147 96.71692 87.53572 98.2144 88.09724 C 99.71187 88.65878 102.11331 89.63632 103.61078 90.30429 C 105.10825 90.97226 107.50967 92.12791 109.00713 92.91159 C 110.5046 93.69527 112.90602 95.0439 114.40349 95.95253 C 115.90094 96.86115 118.30238 98.41757 119.79985 99.4604 C 121.29732 100.50325 123.69875 102.28233 125.19621 103.46866 C 126.6937 104.65497 129.09514 106.67154 130.59259 108.01057 C 132.09004 109.34961 134.49149 111.61852 135.98894 113.11954 C 137.48639 114.62057 139.88784 117.15668 141.38532 118.82895 C 142.88278 120.5012 145.28423 123.31934 146.78168 125.17207 C 148.27913 127.02483 150.68058 130.13982 152.17803 132.18231 C 153.67549 134.22483 156.07692 137.65155 157.5744 139.89305 C 159.07187 142.13455 161.47332 145.88782 162.97077 148.33759 C 164.46822 150.78736 168.36711 157.5493 168.36711 157.5493 "/>
<path transform="matrix(1,0,0,-1,.199,174.486)" stroke-width="1" stroke-linecap="butt" stroke-miterlimit="10" stroke-linejoin="miter" fill="none" stroke="#800000" d="M 90.66034 85.6166 L 116.5633 97.606 "/>
<path transform="matrix(1,0,0,-1,.199,174.486)" stroke-width="1" stroke-linecap="butt" stroke-miterlimit="10" stroke-linejoin="miter" fill="none" stroke="#800000" d="M 90.66034 75.77913 L 116.5633 63.78975 "/>
<symbol id="font_0_1">
<path d="M .47600005 .694 C .47600005 .695 .47600005 .705 .46300004 .705 C .44800005 .705 .35300002 .69600006 .33600004 .694 C .32800005 .693 .32200004 .688 .32200004 .675 C .32200004 .663 .33100004 .663 .34600003 .663 C .39400003 .663 .39600004 .656 .39600004 .646 L .39300005 .626 L .33300004 .38900004 C .31500004 .42600004 .286 .45300005 .24100001 .45300005 C .124 .45300005 0 .30600003 0 .16000001 C 0 .06600001 .055000005 0 .133 0 C .153 0 .20300001 .0040000008 .263 .075 C .27100004 .033000005 .30600003 0 .35400004 0 C .38900004 0 .41200004 .023000002 .42800004 .055000005 C .44500003 .091000009 .45800004 .15200001 .45800004 .15400002 C .45800004 .16400002 .44900004 .16400002 .44600005 .16400002 C .43600003 .16400002 .43500004 .16000001 .43200005 .14600002 C .41500003 .081 .397 .022000002 .35600005 .022000002 C .32900004 .022000002 .32600004 .048 .32600004 .068 C .32600004 .092 .32800005 .09900001 .33200003 .116000007 L .47600005 .694 M .26800005 .13000001 C .263 .112 .263 .11000001 .24800001 .093 C .20400001 .038000004 .163 .022000002 .135 .022000002 C .08499999 .022000002 .07100001 .077 .07100001 .116000007 C .07100001 .16600001 .103 .28900004 .126 .335 C .157 .39400003 .202 .43100003 .242 .43100003 C .307 .43100003 .32100005 .34900005 .32100005 .34300003 C .32100005 .337 .31900005 .33100004 .31800003 .32600004 L .26800005 .13000001 Z "/>
</symbol>
<symbol id="font_0_2">
<path d="M .33900006 .38500003 C .311 .38400004 .291 .36200003 .291 .34000004 C .291 .32600004 .3 .31100003 .32200004 .31100003 C .34400005 .31100003 .36800004 .328 .36800004 .367 C .36800004 .41200004 .325 .45300005 .24900003 .45300005 C .11700001 .45300005 .08 .351 .08 .307 C .08 .22900002 .15400002 .21400002 .18300002 .20800002 C .235 .19800002 .287 .18700002 .287 .13200002 C .287 .106000009 .264 .022000002 .14400001 .022000002 C .13000001 .022000002 .053000004 .022000002 .030000002 .075 C .068 .07000001 .09300001 .1 .09300001 .128 C .09300001 .15100001 .07700001 .16300002 .056 .16300002 C .030000002 .16300002 0 .14200002 0 .097 C 0 .040000004 .057000005 0 .143 0 C .305 0 .34400005 .12100001 .34400005 .16600001 C .34400005 .20200002 .325 .22700002 .31300003 .23900002 C .286 .26700003 .25700004 .272 .21300002 .28100003 C .17700002 .28900004 .13700001 .29600004 .13700001 .34100003 C .13700001 .37000004 .16100002 .43100003 .24900003 .43100003 C .274 .43100003 .324 .42400003 .33900006 .38500003 Z "/>
</symbol>
<use xlink:href="#font_0_1" transform="matrix(9.9626,0,0,-9.9626,92.804508,81.28059)" fill="#800000"/>
<use xlink:href="#font_0_2" transform="matrix(9.9626,0,0,-9.9626,98.11457,81.28059)" fill="#800000"/>
<symbol id="font_0_4">
<path d="M .45700003 .586 C .461 .6 .461 .602 .461 .609 C .461 .62700006 .447 .63600006 .432 .63600006 C .42200003 .63600006 .40600003 .63 .397 .615 C .395 .61 .387 .579 .38300003 .561 C .37600003 .535 .36900003 .508 .363 .48100005 L .318 .301 C .314 .286 .271 .21600002 .20500002 .21600002 C .15400002 .21600002 .143 .26000003 .143 .29700003 C .143 .34300003 .16000001 .40500004 .194 .49300004 C .21000001 .53400006 .21400002 .545 .21400002 .56500008 C .21400002 .61 .18200001 .6470001 .13200002 .6470001 C .037 .6470001 0 .50200006 0 .49300004 C 0 .48300005 .01 .48300005 .012 .48300005 C .022000002 .48300005 .023 .485 .028000003 .50100007 C .055000009 .595 .095000009 .625 .12900001 .625 C .13700001 .625 .15400002 .625 .15400002 .59300008 C .15400002 .568 .14400001 .54200008 .13700001 .523 C .097 .41700004 .079 .36 .079 .31300003 C .079 .224 .142 .194 .201 .194 C .24000003 .194 .274 .21100001 .30200003 .23900002 C .289 .187 .277 .13800001 .237 .08500001 C .21100001 .051 .17300001 .022 .127 .022 C .113000009 .022 .068 .025000006 .051000008 .06400001 C .067 .06400001 .080000009 .06400001 .094000007 .076000008 C .104 .08500001 .11400001 .098000008 .11400001 .117000009 C .11400001 .148 .087000008 .15200001 .07700001 .15200001 C .054000006 .15200001 .021 .136 .021 .087000008 C .021 .037 .065000008 0 .127 0 C .23 0 .333 .091000009 .361 .20400001 L .45700003 .586 Z "/>
</symbol>
<use xlink:href="#font_0_4" transform="matrix(9.9626,0,0,-9.9626,100.21491,45.36832)" fill="#000080"/>
<symbol id="font_1_3">
<path d="M .63100007 .19400002 C .646 .19400002 .665 .19400002 .665 .214 C .665 .23400001 .646 .23400001 .632 .23400001 L .033 .23400001 C .019000002 .23400001 0 .23400001 0 .214 C 0 .19400002 .019000002 .19400002 .034 .19400002 L .63100007 .19400002 M .632 0 C .646 0 .665 0 .665 .02000001 C .665 .040000008 .646 .040000008 .63100007 .040000008 L .034 .040000008 C .019000002 .040000008 0 .040000008 0 .02000001 C 0 0 .019000002 0 .033 0 L .632 0 Z "/>
</symbol>
<symbol id="font_1_2">
<path d="M .07700001 .07700001 L .18300002 .18 C .33900003 .31800003 .39900003 .372 .39900003 .47200004 C .39900003 .586 .30900003 .666 .18700002 .666 C .074 .666 0 .574 0 .485 C 0 .42900003 .05 .42900003 .053000008 .42900003 C .07000001 .42900003 .105000007 .441 .105000007 .48200003 C .105000007 .508 .08700001 .53400006 .052000006 .53400006 C .044000005 .53400006 .042000008 .53400006 .039 .53300008 C .062000004 .59800007 .11600001 .63500007 .17400001 .63500007 C .26500003 .63500007 .308 .554 .308 .47200004 C .308 .39200003 .25800003 .31300003 .20300003 .25100003 L .011000004 .037 C 0 .026 0 .024 0 0 L .37100003 0 L .39900003 .17400001 L .374 .17400001 C .36900003 .14400001 .36200003 .1 .352 .085 C .345 .07700001 .279 .07700001 .257 .07700001 L .07700001 .07700001 Z "/>
</symbol>
<use xlink:href="#font_1_3" transform="matrix(9.9626,0,0,-9.9626,108.492908,42.00096)" fill="#000080"/>
<use xlink:href="#font_1_2" transform="matrix(9.9626,0,0,-9.9626,118.95363,43.32599)" fill="#000080"/>
<symbol id="font_0_3">
<path d="M .305 .31300003 C .311 .33900003 .334 .43100003 .404 .43100003 C .409 .43100003 .433 .43100003 .454 .418 C .426 .41300003 .40600003 .388 .40600003 .36400003 C .40600003 .34800003 .417 .32900004 .444 .32900004 C .46600003 .32900004 .498 .34700004 .498 .38700003 C .498 .43900005 .439 .45300005 .405 .45300005 C .347 .45300005 .312 .40000005 .3 .37700004 C .275 .44300003 .221 .45300005 .19200002 .45300005 C .08800001 .45300005 .031000002 .32400004 .031000002 .29900003 C .031000002 .28900004 .041 .28900004 .043000007 .28900004 C .051000008 .28900004 .054000006 .291 .056 .3 C .09 .40600003 .156 .43100003 .19000001 .43100003 C .209 .43100003 .244 .42200003 .244 .36400003 C .244 .33300004 .22700002 .26600004 .19000001 .126 C .17400001 .064 .13900002 .022000002 .095000009 .022000002 C .08900001 .022000002 .06600001 .022000002 .045 .035 C .07000001 .040000004 .09200001 .061 .09200001 .089 C .09200001 .116000007 .07000001 .124000009 .055000009 .124000009 C .025 .124000009 0 .098000008 0 .06600001 C 0 .020000002 .050000006 0 .094000007 0 C .16000001 0 .19600001 .07000001 .19900002 .076000008 C .21100001 .039 .24700003 0 .307 0 C .41 0 .467 .12900001 .467 .15400002 C .467 .16400002 .458 .16400002 .455 .16400002 C .446 .16400002 .444 .16000001 .442 .15300001 C .409 .046 .341 .022000002 .30900003 .022000002 C .27 .022000002 .254 .054 .254 .08800001 C .254 .11000001 .26 .13200002 .271 .17600002 L .305 .31300003 Z "/>
</symbol>
<use xlink:href="#font_0_3" transform="matrix(9.9626,0,0,-9.9626,123.72192,43.435579)" fill="#000080"/>
<symbol id="font_2_1">
<path d="M .219 .35400004 C .29700003 .35400004 .35300002 .3 .35300002 .193 C .35300002 .069000009 .28100003 .032 .223 .032 C .18300002 .032 .095 .043000007 .053000008 .102000009 C .10000001 .10400001 .111 .13700001 .111 .158 C .111 .19 .087 .213 .056000007 .213 C .028 .213 0 .19600001 0 .155 C 0 .061000006 .104 0 .22500001 0 C .36400003 0 .46 .09300001 .46 .193 C .46 .27100004 .39600004 .34900005 .286 .37200005 C .39100004 .41000004 .42900003 .48500005 .42900003 .546 C .42900003 .625 .33800004 .684 .22700002 .684 C .116 .684 .031 .63 .031 .55 C .031 .51600006 .053000008 .49700005 .083000008 .49700005 C .11400001 .49700005 .134 .52 .134 .548 C .134 .577 .11400001 .598 .083000008 .6 C .118 .644 .187 .65500006 .22400002 .65500006 C .26900003 .65500006 .33200003 .633 .33200003 .546 C .33200003 .504 .31800003 .45800004 .29200004 .42700003 C .25900004 .38900004 .23100002 .38700003 .18100001 .38400004 C .156 .38200004 .154 .38200004 .149 .38100005 C .147 .38100005 .139 .37900005 .139 .36800004 C .139 .35400004 .148 .35400004 .165 .35400004 L .219 .35400004 Z "/>
</symbol>
<use xlink:href="#font_2_1" transform="matrix(6.9738,0,0,-6.9738,129.50357,39.35246)" fill="#000080"/>
<path transform="matrix(1,0,0,-1,.199,174.486)" stroke-width="1" stroke-linecap="butt" stroke-miterlimit="10" stroke-linejoin="miter" fill="none" stroke="#800000" d="M 89.36519 80.71043 C 89.36519 80.71043 89.37465 81.25392 89.37827 81.38705 C 89.38188 81.52017 89.38773 81.60083 89.39134 81.66998 C 89.39497 81.73912 89.4008 81.83049 89.40442 81.88538 C 89.40804 81.94025 89.4139 82.01872 89.41751 82.06557 C 89.42113 82.1124 89.42697 82.1816 89.43059 82.22304 C 89.4342 82.26448 89.44005 82.32681 89.44366 82.36427 C 89.44728 82.40172 89.45311 82.45871 89.45673 82.49309 C 89.46036 82.52747 89.4662 82.58014 89.46982 82.612 C 89.47343 82.64386 89.4793 82.69298 89.48291 82.72275 C 89.48653 82.7525 89.49237 82.79863 89.49599 82.82663 C 89.4996 82.85463 89.50546 82.89813 89.50908 82.92458 C 89.5127 82.95103 89.51852 82.99228 89.52214 83.01738 C 89.52577 83.04247 89.53162 83.08168 89.53523 83.10558 C 89.53885 83.12947 89.5447 83.16687 89.54831 83.1897 C 89.55193 83.21254 89.55779 83.2483 89.5614 83.27016 C 89.56502 83.29199 89.57085 83.32628 89.57446 83.34724 C 89.57808 83.36821 89.58392 83.40112 89.58754 83.42126 C 89.59117 83.4414 89.59702 83.47307 89.60063 83.49245 C 89.60425 83.51183 89.61009 83.54236 89.61371 83.56105 C 89.61732 83.57976 89.62318 83.60919 89.6268 83.62721 C 89.63042 83.64525 89.63626 83.67369 89.63988 83.69112 C 89.6435 83.70853 89.64934 83.73602 89.65295 83.75287 C 89.65659 83.76973 89.66243 83.79634 89.66605 83.81267 C 89.66966 83.829 89.6755 83.85474 89.67912 83.87056 C 89.68274 83.88637 89.6886 83.91133 89.69221 83.92665 C 89.69583 83.94197 89.70166 83.9662 89.70528 83.98108 C 89.7089 83.99594 89.71474 84.01944 89.71835 84.03387 C 89.72198 84.0483 89.72781 84.07112 89.73143 84.08514 C 89.73505 84.09917 89.7409 84.12132 89.74452 84.13495 C 89.74814 84.14857 89.75398 84.1701 89.7576 84.18335 C 89.76122 84.1966 89.76706 84.21753 89.77069 84.2304 C 89.7743 84.24327 89.78015 84.26363 89.78377 84.27615 C 89.7874 84.28868 89.79323 84.3085 89.79684 84.32068 C 89.80046 84.33286 89.80632 84.35216 89.80994 84.36401 C 89.81355 84.37587 89.8194 84.39464 89.82301 84.40617 C 89.82663 84.41772 89.83246 84.43599 89.83609 84.44722 C 89.8397 84.45847 89.84554 84.47626 89.84915 84.4872 C 89.85277 84.49812 89.85863 84.51547 89.86224 84.52611 C 89.86586 84.53674 89.8717 84.55359 89.87532 84.56396 C 89.87894 84.57433 89.8848 84.59077 89.88841 84.60089 C 89.89203 84.611 89.89787 84.627 89.9015 84.63684 C 89.90512 84.64668 89.91095 84.6623 89.91457 84.67188 C 89.91818 84.68147 89.92404 84.69666 89.92766 84.706 C 89.93127 84.71533 89.93712 84.73015 89.94073 84.73924 C 89.94435 84.74834 89.9502 84.76276 89.95381 84.77162 C 89.95743 84.78049 89.96326 84.79451 89.96689 84.80315 C 89.9705 84.81178 89.97635 84.82547 89.97997 84.83388 C 89.98358 84.84229 89.98943 84.85559 89.99304 84.86377 C 89.99666 84.87195 90.00252 84.88492 90.00613 84.89288 C 90.00975 84.90085 90.01561 84.91348 90.01923 84.92123 C 90.02284 84.92899 90.02867 84.94128 90.0323 84.94884 C 90.03592 84.95638 90.04176 84.96835 90.04538 84.9757 C 90.049 84.98303 90.05484 84.99466 90.05846 85.00182 C 90.06207 85.00896 90.06793 85.02026 90.07155 85.0272 C 90.07516 85.03416 90.08102 85.04518 90.08464 85.05193 C 90.08826 85.05869 90.09407 85.06937 90.0977 85.07593 C 90.10132 85.0825 90.10715 85.09291 90.11076 85.09929 C 90.11438 85.10565 90.12024 85.11577 90.12386 85.12195 C 90.12747 85.12814 90.13333 85.13795 90.13695 85.14397 C 90.14056 85.14996 90.14641 85.1595 90.15002 85.16533 C 90.15364 85.17117 90.15948 85.1804 90.1631 85.18605 C 90.16673 85.19171 90.17256 85.20067 90.17618 85.20616 C 90.1798 85.21164 90.18565 85.22032 90.18927 85.22563 C 90.19289 85.23093 90.19875 85.23935 90.20236 85.24449 C 90.20598 85.24963 90.21182 85.25778 90.21544 85.26276 C 90.21906 85.26772 90.22487 85.2756 90.22849 85.28041 C 90.23212 85.28522 90.23796 85.29282 90.24158 85.29747 C 90.2452 85.30212 90.25105 85.30946 90.25467 85.31395 C 90.25829 85.31844 90.26413 85.32553 90.26775 85.32986 C 90.27136 85.3342 90.27722 85.34102 90.28084 85.34518 C 90.28445 85.34935 90.29028 85.35594 90.2939 85.35995 C 90.29753 85.36397 90.30338 85.37029 90.30699 85.37415 C 90.31061 85.378 90.31647 85.3841 90.32008 85.3878 C 90.3237 85.39151 90.32954 85.39735 90.33316 85.4009 C 90.33678 85.40443 90.3426 85.41005 90.34622 85.41344 C 90.34984 85.41682 90.35568 85.42218 90.3593 85.42543 C 90.36293 85.42868 90.36877 85.43379 90.37239 85.43689 C 90.376 85.43999 90.38185 85.44487 90.38547 85.44781 C 90.38908 85.45078 90.39494 85.45541 90.39856 85.45822 C 90.40218 85.46101 90.40802 85.46542 90.41164 85.46808 C 90.41525 85.47075 90.4211 85.47493 90.42471 85.47743 C 90.42834 85.47993 90.43419 85.48387 90.4378 85.48625 C 90.44142 85.48862 90.44727 85.49232 90.45088 85.49455 C 90.4545 85.49677 90.46036 85.50024 90.46397 85.50233 C 90.46759 85.50441 90.4734 85.50768 90.47704 85.50961 C 90.48065 85.51157 90.4865 85.51459 90.49011 85.51639 C 90.49374 85.51817 90.49957 85.52097 90.50319 85.52263 C 90.5068 85.52429 90.51266 85.52686 90.51628 85.52838 C 90.5199 85.52989 90.52574 85.53224 90.52936 85.53362 C 90.53297 85.535 90.53882 85.53711 90.54245 85.53835 C 90.54607 85.53958 90.55191 85.54149 90.55553 85.54259 C 90.55914 85.54369 90.56499 85.54536 90.5686 85.54633 C 90.57222 85.54729 90.57808 85.54875 90.5817 85.54956 C 90.58531 85.55038 90.59116 85.55162 90.59477 85.5523 C 90.59839 85.553 90.60422 85.55399 90.60785 85.55453 C 90.61147 85.55508 90.6173 85.55588 90.62091 85.55629 C 90.62453 85.5567 90.63039 85.55727 90.634 85.55753 C 90.63762 85.5578 90.64348 85.55814 90.6471 85.55827 C 90.65071 85.55841 90.66017 85.55853 90.66017 85.55853 "/>
<path transform="matrix(1,0,0,-1,.199,174.486)" stroke-width="1" stroke-linecap="butt" stroke-miterlimit="10" stroke-linejoin="miter" fill="none" stroke="#800000" d="M 89.36519 80.6853 C 89.36519 80.6853 89.37465 80.1418 89.37827 80.00867 C 89.38188 79.87555 89.38773 79.79489 89.39134 79.72575 C 89.39497 79.65662 89.4008 79.56523 89.40442 79.51035 C 89.40804 79.45547 89.4139 79.377 89.41751 79.33017 C 89.42113 79.28333 89.42697 79.21413 89.43059 79.17268 C 89.4342 79.13124 89.44005 79.06892 89.44366 79.03146 C 89.44728 78.994 89.45311 78.93701 89.45673 78.90263 C 89.46036 78.86827 89.4662 78.8156 89.46982 78.78372 C 89.47343 78.75186 89.4793 78.70274 89.48291 78.67299 C 89.48653 78.64322 89.49237 78.59709 89.49599 78.56909 C 89.4996 78.54109 89.50546 78.4976 89.50908 78.47115 C 89.5127 78.44469 89.51852 78.40346 89.52214 78.37836 C 89.52577 78.35326 89.53162 78.31404 89.53523 78.29015 C 89.53885 78.26625 89.5447 78.22885 89.54831 78.20602 C 89.55193 78.1832 89.55779 78.14742 89.5614 78.12558 C 89.56502 78.10373 89.57085 78.06944 89.57446 78.04848 C 89.57808 78.02753 89.58392 77.99461 89.58754 77.97447 C 89.59117 77.95433 89.59702 77.92265 89.60063 77.90327 C 89.60425 77.8839 89.61009 77.85336 89.61371 77.83467 C 89.61732 77.81596 89.62318 77.78654 89.6268 77.76851 C 89.63042 77.75047 89.63626 77.72203 89.63988 77.70462 C 89.6435 77.6872 89.64934 77.65971 89.65295 77.64285 C 89.65659 77.62599 89.66243 77.59938 89.66605 77.58305 C 89.66966 77.56673 89.6755 77.54099 89.67912 77.52518 C 89.68274 77.50937 89.6886 77.4844 89.69221 77.46907 C 89.69583 77.45375 89.70166 77.42952 89.70528 77.41466 C 89.7089 77.39978 89.71474 77.37628 89.71835 77.36186 C 89.72198 77.34743 89.72781 77.3246 89.73143 77.31058 C 89.73505 77.29657 89.7409 77.2744 89.74452 77.26077 C 89.74814 77.24716 89.75398 77.22562 89.7576 77.21237 C 89.76122 77.19914 89.76706 77.1782 89.77069 77.16533 C 89.7743 77.15245 89.78015 77.1321 89.78377 77.11957 C 89.7874 77.10704 89.79323 77.08722 89.79684 77.07504 C 89.80046 77.06287 89.80632 77.04358 89.80994 77.03172 C 89.81355 77.01985 89.8194 77.00108 89.82301 76.98955 C 89.82663 76.97801 89.83246 76.95973 89.83609 76.9485 C 89.8397 76.93727 89.84554 76.91946 89.84915 76.90854 C 89.85277 76.8976 89.85863 76.88026 89.86224 76.86961 C 89.86586 76.85898 89.8717 76.84213 89.87532 76.83176 C 89.87894 76.8214 89.8848 76.80495 89.88841 76.79485 C 89.89203 76.78473 89.89787 76.76872 89.9015 76.75888 C 89.90512 76.74905 89.91095 76.73344 89.91457 76.72385 C 89.91818 76.71425 89.92404 76.69907 89.92766 76.68973 C 89.93127 76.6804 89.93712 76.66557 89.94073 76.65648 C 89.94435 76.6474 89.9502 76.63297 89.95381 76.6241 C 89.95743 76.61525 89.96326 76.60121 89.96689 76.59258 C 89.9705 76.58394 89.97635 76.57027 89.97997 76.56186 C 89.98358 76.55345 89.98943 76.54013 89.99304 76.53195 C 89.99666 76.52377 90.00252 76.5108 90.00613 76.50284 C 90.00975 76.49487 90.01561 76.48224 90.01923 76.47449 C 90.02284 76.46674 90.02867 76.45444 90.0323 76.4469 C 90.03592 76.43936 90.04176 76.42738 90.04538 76.42003 C 90.049 76.41269 90.05484 76.40106 90.05846 76.39392 C 90.06207 76.38676 90.06793 76.37546 90.07155 76.36852 C 90.07516 76.36157 90.08102 76.35054 90.08464 76.3438 C 90.08826 76.33705 90.09407 76.32635 90.0977 76.3198 C 90.10132 76.31322 90.10715 76.30281 90.11076 76.29645 C 90.11438 76.29007 90.12024 76.27997 90.12386 76.27377 C 90.12747 76.2676 90.13333 76.25777 90.13695 76.25177 C 90.14056 76.24576 90.14641 76.23622 90.15002 76.2304 C 90.15364 76.22455 90.15948 76.21532 90.1631 76.20967 C 90.16673 76.20401 90.17256 76.19505 90.17618 76.18958 C 90.1798 76.18408 90.18565 76.1754 90.18927 76.1701 C 90.19289 76.1648 90.19875 76.15637 90.20236 76.15123 C 90.20598 76.14609 90.21182 76.13794 90.21544 76.13298 C 90.21906 76.128 90.22487 76.12012 90.22849 76.11531 C 90.23212 76.1105 90.23796 76.1029 90.24158 76.09825 C 90.2452 76.0936 90.25105 76.08626 90.25467 76.08177 C 90.25829 76.07729 90.26413 76.07019 90.26775 76.06586 C 90.27136 76.06152 90.27722 76.0547 90.28084 76.05054 C 90.28445 76.04637 90.29028 76.03978 90.2939 76.03577 C 90.29753 76.03175 90.30338 76.02544 90.30699 76.02158 C 90.31061 76.01772 90.31647 76.01163 90.32008 76.00792 C 90.3237 76.00421 90.32954 75.99838 90.33316 75.99483 C 90.33678 75.99129 90.3426 75.98569 90.34622 75.9823 C 90.34984 75.9789 90.35568 75.97356 90.3593 75.97029 C 90.36293 75.96704 90.36877 75.96194 90.37239 75.95883 C 90.376 75.95573 90.38185 75.95085 90.38547 75.9479 C 90.38908 75.94496 90.39494 75.9403 90.39856 75.93752 C 90.40218 75.93471 90.40802 75.9303 90.41164 75.92764 C 90.41525 75.92499 90.4211 75.9208 90.42471 75.91829 C 90.42834 75.91579 90.43419 75.91185 90.4378 75.90947 C 90.44142 75.9071 90.44727 75.9034 90.45088 75.90117 C 90.4545 75.89896 90.46036 75.89548 90.46397 75.89339 C 90.46759 75.89131 90.4734 75.88806 90.47704 75.88611 C 90.48065 75.88417 90.4865 75.88113 90.49011 75.87935 C 90.49374 75.87755 90.49957 75.87476 90.50319 75.8731 C 90.5068 75.87144 90.51266 75.86887 90.51628 75.86736 C 90.5199 75.86583 90.52574 75.8635 90.52936 75.8621 C 90.53297 75.86072 90.53882 75.85861 90.54245 75.85738 C 90.54607 75.85614 90.55191 75.85423 90.55553 75.85313 C 90.55914 75.85204 90.56499 75.85036 90.5686 75.8494 C 90.57222 75.84843 90.57808 75.84698 90.5817 75.84616 C 90.58531 75.84534 90.59116 75.8441 90.59477 75.84343 C 90.59839 75.84274 90.60422 75.84174 90.60785 75.84119 C 90.61147 75.84064 90.6173 75.83984 90.62091 75.83945 C 90.62453 75.83904 90.63039 75.83847 90.634 75.8382 C 90.63762 75.83792 90.64348 75.83759 90.6471 75.83745 C 90.65071 75.83731 90.66017 75.83719 90.66017 75.83719 "/>
<path transform="matrix(1,0,0,-1,.199,174.486)" stroke-width="1" stroke-linecap="butt" stroke-miterlimit="10" stroke-linejoin="miter" fill="none" stroke="#800000" d="M 115.26814 80.7359 C 115.26814 80.7359 115.28705 83.42737 115.29431 84.08286 C 115.30156 84.73833 115.31322 85.12477 115.32047 85.46019 C 115.32771 85.79561 115.33937 86.23633 115.34662 86.50034 C 115.35387 86.76433 115.36552 87.13954 115.37277 87.36292 C 115.38004 87.5863 115.3917 87.91444 115.39894 88.11029 C 115.40619 88.30614 115.41785 88.59908 115.42511 88.77448 C 115.43236 88.94987 115.44402 89.21518 115.45126 89.37454 C 115.45851 89.5339 115.47015 89.77682 115.47742 89.92308 C 115.48466 90.06934 115.49634 90.29352 115.50359 90.42876 C 115.51085 90.56401 115.5225 90.77217 115.52975 90.898 C 115.537 91.0238 115.54866 91.21802 115.55591 91.33557 C 115.56317 91.45314 115.57483 91.63506 115.58208 91.74529 C 115.58932 91.85551 115.60097 92.02646 115.60823 92.13013 C 115.61548 92.23378 115.62714 92.39479 115.63438 92.49251 C 115.64163 92.59023 115.6533 92.74216 115.66055 92.83446 C 115.6678 92.92677 115.67947 93.07053 115.68672 93.15784 C 115.69398 93.24515 115.70564 93.38107 115.71289 93.46371 C 115.72014 93.54636 115.73178 93.67519 115.73904 93.7535 C 115.74629 93.8318 115.75795 93.95393 115.7652 94.0282 C 115.77245 94.10246 115.78412 94.2183 115.79137 94.28876 C 115.79861 94.3592 115.81027 94.46913 115.81752 94.53598 C 115.82478 94.60281 115.83644 94.70714 115.84369 94.77055 C 115.85094 94.83398 115.86258 94.93294 115.86984 94.9931 C 115.87709 95.05325 115.88875 95.14716 115.896 95.2042 C 115.90324 95.26123 115.91493 95.35023 115.92218 95.4043 C 115.92943 95.45836 115.94109 95.54268 115.94833 95.59387 C 115.9556 95.64508 115.96725 95.72488 115.9745 95.77332 C 115.98175 95.82176 115.9934 95.89722 116.00066 95.94298 C 116.0079 95.98874 116.01956 96.06001 116.02681 96.10321 C 116.03406 96.1464 116.04573 96.2136 116.05298 96.25427 C 116.06023 96.29495 116.07188 96.35818 116.07913 96.39642 C 116.0864 96.43466 116.09807 96.49406 116.10532 96.52992 C 116.11256 96.56578 116.12419 96.62143 116.13145 96.65498 C 116.1387 96.68852 116.15038 96.74052 116.15762 96.7718 C 116.16487 96.80309 116.17653 96.85147 116.18379 96.88054 C 116.19104 96.9096 116.2027 96.95448 116.20995 96.9814 C 116.21721 97.0083 116.22887 97.04973 116.23611 97.0745 C 116.24336 97.09926 116.255 97.1373 116.26225 97.15997 C 116.26952 97.18263 116.28117 97.21733 116.28842 97.23793 C 116.29567 97.25853 116.30733 97.28993 116.31459 97.30849 C 116.32184 97.32706 116.33351 97.35521 116.34076 97.37175 C 116.348 97.38829 116.35968 97.41324 116.36693 97.42778 C 116.37418 97.44234 116.38582 97.46407 116.39307 97.47664 C 116.40033 97.48921 116.41199 97.50783 116.41924 97.51843 C 116.42648 97.52904 116.43814 97.54453 116.4454 97.55319 C 116.45265 97.56184 116.46431 97.57422 116.47156 97.58096 C 116.4788 97.58769 116.49048 97.59694 116.49773 97.60175 C 116.50497 97.60654 116.51662 97.61272 116.52386 97.6156 C 116.53113 97.6185 116.5428 97.62161 116.55005 97.62257 C 116.5573 97.62352 116.56895 97.62354 116.57622 97.6226 C 116.58347 97.62166 116.59512 97.6186 116.60237 97.61574 C 116.60962 97.61288 116.62129 97.60672 116.62854 97.60196 C 116.63579 97.59718 116.64743 97.58794 116.65468 97.58124 C 116.66194 97.57452 116.6736 97.5622 116.68085 97.55356 C 116.6881 97.54494 116.69975 97.5295 116.70702 97.5189 C 116.71426 97.50832 116.72592 97.48975 116.73317 97.47719 C 116.74042 97.46463 116.7521 97.44292 116.75935 97.42839 C 116.7666 97.41388 116.77824 97.38898 116.78549 97.37245 C 116.79276 97.35593 116.80441 97.32782 116.81166 97.30928 C 116.81891 97.29076 116.83057 97.25938 116.83783 97.23882 C 116.84508 97.21825 116.85674 97.18358 116.86398 97.16095 C 116.87123 97.1383 116.88289 97.10031 116.89015 97.07558 C 116.8974 97.05083 116.90904 97.00945 116.91629 96.98256 C 116.92355 96.95569 116.93521 96.91086 116.94246 96.8818 C 116.9497 96.85275 116.96138 96.80441 116.96863 96.77315 C 116.97589 96.74187 116.98755 96.68994 116.9948 96.65642 C 117.00204 96.6229 117.0137 96.5673 117.02097 96.53146 C 117.02821 96.49562 117.03986 96.43626 117.0471 96.39806 C 117.05435 96.35986 117.06602 96.29666 117.07327 96.25601 C 117.08052 96.21536 117.09218 96.14822 117.09943 96.10506 C 117.10669 96.0619 117.11835 95.99068 117.1256 95.94495 C 117.13284 95.89923 117.14452 95.8238 117.15178 95.7754 C 117.15903 95.727 117.17065 95.64723 117.1779 95.59608 C 117.18515 95.54492 117.19684 95.46065 117.20409 95.40662 C 117.21133 95.3526 117.22299 95.26364 117.23024 95.20663 C 117.2375 95.14963 117.24916 95.0558 117.25641 94.99568 C 117.26366 94.93556 117.27531 94.83665 117.28258 94.77327 C 117.28983 94.7099 117.30147 94.60564 117.30872 94.53885 C 117.31596 94.47205 117.32764 94.36218 117.33488 94.29178 C 117.34213 94.22139 117.35379 94.1056 117.36104 94.03139 C 117.3683 93.95717 117.37997 93.83511 117.38722 93.75685 C 117.39447 93.6786 117.40613 93.54987 117.41339 93.46727 C 117.42064 93.38467 117.43228 93.24883 117.43953 93.16158 C 117.44678 93.07433 117.45845 92.93068 117.4657 92.83842 C 117.47295 92.74619 117.4846 92.59436 117.49185 92.4967 C 117.49911 92.39905 117.51077 92.23817 117.51802 92.13458 C 117.52527 92.03098 117.53693 91.86017 117.54419 91.75002 C 117.55144 91.63986 117.56308 91.4581 117.57033 91.34064 C 117.57758 91.22318 117.58925 91.0291 117.5965 90.9034 C 117.60374 90.7777 117.61542 90.5697 117.62267 90.43456 C 117.62993 90.29941 117.64159 90.07547 117.64883 89.92935 C 117.65608 89.78323 117.66774 89.54057 117.67499 89.38138 C 117.68225 89.22218 117.6939 88.95717 117.70114 88.78198 C 117.70839 88.6068 117.72005 88.31422 117.72731 88.11867 C 117.73456 87.92311 117.74622 87.59544 117.75346 87.37247 C 117.76073 87.14949 117.77238 86.77487 117.77963 86.51149 C 117.78688 86.2481 117.79855 85.80829 117.8058 85.47408 C 117.81306 85.13986 117.8247 84.71355 117.83195 84.10269 C 117.8392 83.49182 117.85812 81.07137 117.85812 81.07137 "/>
<path transform="matrix(1,0,0,-1,.199,174.486)" stroke-width="1" stroke-linecap="butt" stroke-miterlimit="10" stroke-linejoin="miter" fill="none" stroke="#800000" d="M 115.26814 80.65982 C 115.26814 80.65982 115.28705 77.96835 115.29431 77.31288 C 115.30156 76.6574 115.31322 76.27095 115.32047 75.93553 C 115.32771 75.60011 115.33937 75.1594 115.34662 74.8954 C 115.35387 74.6314 115.36552 74.25618 115.37277 74.0328 C 115.38004 73.80943 115.3917 73.48128 115.39894 73.28543 C 115.40619 73.08958 115.41785 72.79666 115.42511 72.62126 C 115.43236 72.44586 115.44402 72.18056 115.45126 72.0212 C 115.45851 71.86183 115.47015 71.6189 115.47742 71.47264 C 115.48466 71.32639 115.49634 71.10222 115.50359 70.96696 C 115.51085 70.83171 115.5225 70.62355 115.52975 70.49774 C 115.537 70.37193 115.54866 70.1777 115.55591 70.06015 C 115.56317 69.9426 115.57483 69.76067 115.58208 69.65044 C 115.58932 69.5402 115.60097 69.36926 115.60823 69.26561 C 115.61548 69.16194 115.62714 69.00093 115.63438 68.90321 C 115.64163 68.8055 115.6533 68.65356 115.66055 68.56126 C 115.6678 68.46896 115.67947 68.3252 115.68672 68.23788 C 115.69398 68.15059 115.70564 68.01465 115.71289 67.932 C 115.72014 67.84937 115.73178 67.72054 115.73904 67.64223 C 115.74629 67.56392 115.75795 67.44179 115.7652 67.36752 C 115.77245 67.29327 115.78412 67.17741 115.79137 67.10696 C 115.79861 67.03651 115.81027 66.92659 115.81752 66.85976 C 115.82478 66.79291 115.83644 66.6886 115.84369 66.62517 C 115.85094 66.56175 115.86258 66.46278 115.86984 66.40263 C 115.87709 66.34247 115.88875 66.24857 115.896 66.19153 C 115.90324 66.13449 115.91493 66.04549 115.92218 65.99142 C 115.92943 65.93738 115.94109 65.85304 115.94833 65.80185 C 115.9556 65.75064 115.96725 65.67084 115.9745 65.6224 C 115.98175 65.57397 115.9934 65.4985 116.00066 65.45274 C 116.0079 65.407 116.01956 65.33571 116.02681 65.29253 C 116.03406 65.24933 116.04573 65.18214 116.05298 65.14146 C 116.06023 65.10078 116.07188 65.03754 116.07913 64.9993 C 116.0864 64.96107 116.09807 64.90166 116.10532 64.8658 C 116.11256 64.82994 116.12419 64.7743 116.13145 64.74075 C 116.1387 64.7072 116.15038 64.65521 116.15762 64.62392 C 116.16487 64.59264 116.17653 64.54425 116.18379 64.51518 C 116.19104 64.48611 116.2027 64.44124 116.20995 64.41434 C 116.21721 64.38742 116.22887 64.346 116.23611 64.32123 C 116.24336 64.29648 116.255 64.25842 116.26225 64.23575 C 116.26952 64.21309 116.28117 64.17839 116.28842 64.15779 C 116.29567 64.1372 116.30733 64.10579 116.31459 64.08723 C 116.32184 64.06866 116.33351 64.04051 116.34076 64.02397 C 116.348 64.00743 116.35968 63.98248 116.36693 63.96794 C 116.37418 63.9534 116.38582 63.93166 116.39307 63.91908 C 116.40033 63.90651 116.41199 63.88791 116.41924 63.87729 C 116.42648 63.86668 116.43814 63.85121 116.4454 63.84254 C 116.45265 63.83388 116.46431 63.8215 116.47156 63.81477 C 116.4788 63.80803 116.49048 63.79878 116.49773 63.79399 C 116.50497 63.78918 116.51662 63.783 116.52386 63.78012 C 116.53113 63.77724 116.5428 63.77411 116.55005 63.77316 C 116.5573 63.7722 116.56895 63.77219 116.57622 63.77313 C 116.58347 63.77406 116.59512 63.77713 116.60237 63.77998 C 116.60962 63.78284 116.62129 63.789 116.62854 63.79378 C 116.63579 63.79854 116.64743 63.80779 116.65468 63.8145 C 116.66194 63.8212 116.6736 63.83353 116.68085 63.84216 C 116.6881 63.8508 116.69975 63.86623 116.70702 63.87682 C 116.71426 63.88742 116.72592 63.90598 116.73317 63.91853 C 116.74042 63.93109 116.7521 63.95282 116.75935 63.96733 C 116.7666 63.98186 116.77824 64.00674 116.78549 64.02327 C 116.79276 64.0398 116.80441 64.06792 116.81166 64.08644 C 116.81891 64.10497 116.83057 64.13635 116.83783 64.15692 C 116.84508 64.17749 116.85674 64.21214 116.86398 64.23479 C 116.87123 64.25742 116.88289 64.29541 116.89015 64.32016 C 116.8974 64.34491 116.90904 64.38629 116.91629 64.41316 C 116.92355 64.44003 116.93521 64.48486 116.94246 64.51392 C 116.9497 64.54297 116.96138 64.59131 116.96863 64.62259 C 116.97589 64.65385 116.98755 64.70578 116.9948 64.7393 C 117.00204 64.77283 117.0137 64.82841 117.02097 64.86426 C 117.02821 64.90012 117.03986 64.95946 117.0471 64.99767 C 117.05435 65.03586 117.06602 65.09906 117.07327 65.13971 C 117.08052 65.18036 117.09218 65.24751 117.09943 65.29066 C 117.10669 65.33382 117.11835 65.40504 117.1256 65.45078 C 117.13284 65.4965 117.14452 65.57191 117.15178 65.62032 C 117.15903 65.66872 117.17065 65.74849 117.1779 65.79964 C 117.18515 65.8508 117.19684 65.93507 117.20409 65.9891 C 117.21133 66.04314 117.22299 66.13208 117.23024 66.18909 C 117.2375 66.2461 117.24916 66.33992 117.25641 66.40004 C 117.26366 66.46017 117.27531 66.55907 117.28258 66.62245 C 117.28983 66.68582 117.30147 66.79008 117.30872 66.85687 C 117.31596 66.92368 117.32764 67.03354 117.33488 67.10394 C 117.34213 67.17435 117.35379 67.29012 117.36104 67.36433 C 117.3683 67.43855 117.37997 67.56061 117.38722 67.63887 C 117.39447 67.71713 117.40613 67.84586 117.41339 67.92845 C 117.42064 68.01105 117.43228 68.14691 117.43953 68.23415 C 117.44678 68.3214 117.45845 68.46506 117.4657 68.5573 C 117.47295 68.64954 117.4846 68.80136 117.49185 68.89902 C 117.49911 68.99667 117.51077 69.15755 117.51802 69.26115 C 117.52527 69.36475 117.53693 69.53555 117.54419 69.6457 C 117.55144 69.75586 117.56308 69.93762 117.57033 70.05508 C 117.57758 70.17255 117.58925 70.36662 117.5965 70.49232 C 117.60374 70.61803 117.61542 70.82602 117.62267 70.96117 C 117.62993 71.09631 117.64159 71.32025 117.64883 71.46638 C 117.65608 71.6125 117.66774 71.85515 117.67499 72.01434 C 117.68225 72.17354 117.6939 72.43855 117.70114 72.61375 C 117.70839 72.78894 117.72005 73.0815 117.72731 73.27705 C 117.73456 73.47261 117.74622 73.80028 117.75346 74.02325 C 117.76073 74.24625 117.77238 74.62085 117.77963 74.88423 C 117.78688 75.14763 117.79855 75.58743 117.8058 75.92165 C 117.81306 76.25587 117.8247 76.68217 117.83195 77.29305 C 117.8392 77.9039 117.85812 80.32436 117.85812 80.32436 "/>
<path transform="matrix(1,0,0,-1,.199,174.486)" stroke-width="1" stroke-linecap="butt" stroke-miterlimit="10" stroke-linejoin="miter" fill="none" stroke="#808080" d="M 168.3692 78.57182 L 168.3692 82.8239 "/>
<path transform="matrix(1,0,0,-1,.199,174.486)" stroke-width="1" stroke-linecap="butt" stroke-miterlimit="10" stroke-linejoin="miter" fill="none" stroke="#808080" d="M 36.72812 42.27031 L 40.98071 42.27031 M 36.72812 119.12543 L 40.98071 119.12543 M 36.72812 157.553 L 40.98071 157.553 "/>
<path transform="matrix(1,0,0,-1,.199,174.486)" stroke-width="1" stroke-linecap="butt" stroke-miterlimit="10" stroke-linejoin="miter" fill="none" stroke="#000000" d="M 0 80.69788 L 192.27964 80.69788 "/>
<path transform="matrix(1,0,0,-1,192.47864,93.78811)" d="M 1.99252 0 L -1.19551 1.59401 L 0 0 L -1.19551 -1.59401 "/>
<path transform="matrix(1,0,0,-1,.199,174.486)" stroke-width="1" stroke-linecap="butt" stroke-miterlimit="10" stroke-linejoin="miter" fill="none" stroke="#000000" d="M 38.85443 0 L 38.85443 159.40323 "/>
<path transform="matrix(0,-1,-1,-0,39.053434,15.082764)" d="M 1.99252 0 L -1.19551 1.59401 L 0 0 L -1.19551 -1.59401 "/>
<symbol id="font_1_1">
<path d="M .205 .64000007 C .205 .66400006 .205 .666 .18200003 .666 C .120000008 .60200008 .032000007 .60200008 0 .60200008 L 0 .57100006 C .020000004 .57100006 .07900001 .57100006 .13100001 .597 L .13100001 .079 C .13100001 .043 .128 .031000002 .038000004 .031000002 L .0060000049 .031000002 L .0060000049 0 C .04100001 .003 .128 .003 .168 .003 C .20800002 .003 .29500003 .003 .33000005 0 L .33000005 .031000002 L .29800005 .031000002 C .20800002 .031000002 .205 .042000005 .205 .079 L .205 .64000007 Z "/>
</symbol>
<use xlink:href="#font_1_1" transform="matrix(9.9626,0,0,-9.9626,166.96268,105.854999)"/>
<symbol id="font_3_1">
<path d="M .57600006 0 C .59300008 0 .611 0 .611 .019999996 C .611 .040000008 .59300008 .040000008 .57600006 .040000008 L .035000005 .040000008 C .018 .040000008 0 .040000008 0 .019999996 C 0 0 .018 0 .035000005 0 L .57600006 0 Z "/>
</symbol>
<use xlink:href="#font_3_1" transform="matrix(9.9626,0,0,-9.9626,21.503897,132.71959)"/>
<use xlink:href="#font_1_1" transform="matrix(9.9626,0,0,-9.9626,29.312672,135.01099)"/>
<use xlink:href="#font_1_1" transform="matrix(9.9626,0,0,-9.9626,29.31267,58.572)"/>
<use xlink:href="#font_1_2" transform="matrix(9.9626,0,0,-9.9626,28.92413,20.144989)"/>
<path transform="matrix(1,0,0,-1,.199,174.486)" d="M 92.6529 85.6166 C 92.6529 86.71706 91.7608 87.60915 90.66034 87.60915 C 89.55986 87.60915 88.66779 86.71706 88.66779 85.6166 C 88.66779 84.51611 89.55986 83.62404 90.66034 83.62404 C 91.7608 83.62404 92.6529 84.51611 92.6529 85.6166 Z M 90.66034 85.6166 " fill="#800000"/>
<path transform="matrix(1,0,0,-1,.199,174.486)" stroke-width="1" stroke-linecap="butt" stroke-miterlimit="10" stroke-linejoin="miter" fill="none" stroke="#800000" d="M 92.6529 85.6166 C 92.6529 86.71706 91.7608 87.60915 90.66034 87.60915 C 89.55986 87.60915 88.66779 86.71706 88.66779 85.6166 C 88.66779 84.51611 89.55986 83.62404 90.66034 83.62404 C 91.7608 83.62404 92.6529 84.51611 92.6529 85.6166 Z M 90.66034 85.6166 "/>
<path transform="matrix(1,0,0,-1,.199,174.486)" d="M 118.55585 97.606 C 118.55585 98.70647 117.66376 99.59856 116.5633 99.59856 C 115.46281 99.59856 114.57074 98.70647 114.57074 97.606 C 114.57074 96.50552 115.46281 95.61345 116.5633 95.61345 C 117.66376 95.61345 118.55585 96.50552 118.55585 97.606 Z M 116.5633 97.606 " fill="#800000"/>
<path transform="matrix(1,0,0,-1,.199,174.486)" stroke-width="1" stroke-linecap="butt" stroke-miterlimit="10" stroke-linejoin="miter" fill="none" stroke="#800000" d="M 118.55585 97.606 C 118.55585 98.70647 117.66376 99.59856 116.5633 99.59856 C 115.46281 99.59856 114.57074 98.70647 114.57074 97.606 C 114.57074 96.50552 115.46281 95.61345 116.5633 95.61345 C 117.66376 95.61345 118.55585 96.50552 118.55585 97.606 Z M 116.5633 97.606 "/>
<path transform="matrix(1,0,0,-1,.199,174.486)" d="M 40.84698 80.69788 C 40.84698 81.79834 39.9549 82.69043 38.85443 82.69043 C 37.75395 82.69043 36.86188 81.79834 36.86188 80.69788 C 36.86188 79.5974 37.75395 78.70532 38.85443 78.70532 C 39.9549 78.70532 40.84698 79.5974 40.84698 80.69788 Z M 38.85443 80.69788 " fill="#000080"/>
<path transform="matrix(1,0,0,-1,.199,174.486)" stroke-width="1" stroke-linecap="butt" stroke-miterlimit="10" stroke-linejoin="miter" fill="none" stroke="#000080" d="M 40.84698 80.69788 C 40.84698 81.79834 39.9549 82.69043 38.85443 82.69043 C 37.75395 82.69043 36.86188 81.79834 36.86188 80.69788 C 36.86188 79.5974 37.75395 78.70532 38.85443 78.70532 C 39.9549 78.70532 40.84698 79.5974 40.84698 80.69788 Z M 38.85443 80.69788 "/>
<path transform="matrix(1,0,0,-1,.199,174.486)" d="M 170.36176 157.553 C 170.36176 158.65346 169.46967 159.54555 168.3692 159.54555 C 167.26873 159.54555 166.37665 158.65346 166.37665 157.553 C 166.37665 156.45252 167.26873 155.56044 168.3692 155.56044 C 169.46967 155.56044 170.36176 156.45252 170.36176 157.553 Z M 168.3692 157.553 " fill="#000080"/>
<path transform="matrix(1,0,0,-1,.199,174.486)" stroke-width="1" stroke-linecap="butt" stroke-miterlimit="10" stroke-linejoin="miter" fill="none" stroke="#000080" d="M 170.36176 157.553 C 170.36176 158.65346 169.46967 159.54555 168.3692 159.54555 C 167.26873 159.54555 166.37665 158.65346 166.37665 157.553 C 166.37665 156.45252 167.26873 155.56044 168.3692 155.56044 C 169.46967 155.56044 170.36176 156.45252 170.36176 157.553 Z M 168.3692 157.553 "/>
<use xlink:href="#font_0_3" transform="matrix(9.9626,0,0,-9.9626,198.31192,96.02959)"/>
<use xlink:href="#font_0_4" transform="matrix(9.9626,0,0,-9.9626,36.728918,9.652319)"/>
</svg>
