<?xml version="1.0" encoding="UTF-8" standalone="no"?>
<!DOCTYPE svg PUBLIC "-//W3C//DTD SVG 1.1//EN" "http://www.w3.org/Graphics/SVG/1.1/DTD/svg11.dtd">
<svg xmlns="http://www.w3.org/2000/svg" xmlns:xlink="http://www.w3.org/1999/xlink" version="1.1" width="207.036pt" height="174.655pt" viewBox="0 0 207.036 174.655">
<path transform="matrix(1,0,0,-1,.199,174.456)" stroke-width="1" stroke-linecap="butt" stroke-miterlimit="10" stroke-linejoin="miter" fill="none" stroke="#000080" d="M 14.94415 9.13531 C 14.94415 9.13531 19.59293 9.24835 21.3784 9.38933 C 23.16386 9.53029 26.02718 9.86943 27.81265 10.15138 C 29.59813 10.43333 32.46143 10.99857 34.2469 11.4215 C 36.03238 11.84444 38.89568 12.63573 40.68115 13.19965 C 42.46663 13.76357 45.32994 14.78093 47.1154 15.48582 C 48.90088 16.1907 51.7642 17.43419 53.54968 18.28004 C 55.33514 19.12592 58.19846 20.59546 59.98393 21.58232 C 61.7694 22.56917 64.6327 24.26482 66.41818 25.39265 C 68.20366 26.52048 71.06696 28.44218 72.85243 29.71098 C 74.63791 30.97978 77.50122 33.12756 79.28668 34.53735 C 81.07216 35.94714 83.93547 38.321 85.72093 39.87177 C 87.50641 41.42255 90.36972 44.02257 92.1552 45.71432 C 93.94066 47.40607 96.80397 50.23209 98.58945 52.0648 C 100.37491 53.89752 103.23822 56.94966 105.0237 58.92336 C 106.80917 60.89706 109.67247 64.17525 111.45795 66.28993 C 113.24342 68.40462 116.10674 71.90889 117.8922 74.16457 C 119.67767 76.42023 122.54099 80.15067 124.32645 82.54732 C 126.11192 84.94397 128.97524 88.90039 130.76071 91.438 C 132.54618 93.97563 135.40949 98.15813 137.19496 100.83673 C 138.98044 103.51534 141.84374 107.92395 143.62921 110.74352 C 145.41469 113.5631 148.27799 118.19777 150.06346 121.15834 C 151.84894 124.11891 154.71225 128.97977 156.49771 132.08132 C 158.28319 135.18288 161.1465 140.26972 162.93198 143.51224 C 164.71744 146.75476 169.36623 155.45117 169.36623 155.45117 "/>
<path transform="matrix(1,0,0,-1,.199,174.456)" stroke-width="1.59404" stroke-linecap="butt" stroke-miterlimit="10" stroke-linejoin="miter" fill="none" stroke="#800000" d="M 114.57184 70.03748 L 119.55322 76.27995 "/>
<symbol id="font_0_1">
<path d="M .39500005 .698 C .38800005 .711 .38600005 .716 .36900003 .716 C .35200004 .716 .35000003 .711 .34300003 .698 L .004999999 .020000002 C 0 .011000001 0 .009000001 0 .008 C 0 0 .006000001 0 .022000004 0 L .716 0 C .73200008 0 .73800006 0 .73800006 .008 C .73800006 .009000001 .73800006 .011000001 .73300006 .020000002 L .39500005 .698 M .337 .61600008 L .60600009 .076000008 L .067 .076000008 L .337 .61600008 Z "/>
</symbol>
<use xlink:href="#font_0_1" transform="matrix(9.9626,0,0,-9.9626,118.71423,108.657)" fill="#800000"/>
<symbol id="font_1_2">
<path d="M .33900006 .38500003 C .311 .38400004 .291 .36200003 .291 .34000004 C .291 .32600004 .3 .31100003 .32200004 .31100003 C .34400005 .31100003 .36800004 .328 .36800004 .367 C .36800004 .41200004 .325 .45300005 .24900003 .45300005 C .11700001 .45300005 .08 .351 .08 .307 C .08 .22900002 .15400002 .21400002 .18300002 .20800002 C .235 .19800002 .287 .18700002 .287 .13200002 C .287 .106000009 .264 .022000002 .14400001 .022000002 C .13000001 .022000002 .053000004 .022000002 .030000002 .075 C .068 .07000001 .09300001 .1 .09300001 .128 C .09300001 .15100001 .07700001 .16300002 .056 .16300002 C .030000002 .16300002 0 .14200002 0 .097 C 0 .040000004 .057000005 0 .143 0 C .305 0 .34400005 .12100001 .34400005 .16600001 C .34400005 .20200002 .325 .22700002 .31300003 .23900002 C .286 .26700003 .25700004 .272 .21300002 .28100003 C .17700002 .28900004 .13700001 .29600004 .13700001 .34100003 C .13700001 .37000004 .16100002 .43100003 .24900003 .43100003 C .274 .43100003 .324 .42400003 .33900006 .38500003 Z "/>
</symbol>
<use xlink:href="#font_1_2" transform="matrix(9.9626,0,0,-9.9626,127.066059,108.76659)" fill="#800000"/>
<path transform="matrix(1,0,0,-1,.199,174.456)" stroke-width="1" stroke-linecap="butt" stroke-miterlimit="10" stroke-linejoin="miter" fill="none" stroke="#800000" d="M 14.94415 73.0826 L 117.06253 74.60515 "/>
<symbol id="font_1_1">
<path d="M .059000009 .07000001 C .056 .055000005 .050000006 .032 .050000006 .027000003 C .050000006 .009000001 .064 0 .079 0 C .091000009 0 .10900001 .008000001 .11600001 .028 C .118 .032 .15200001 .16800002 .156 .18600002 C .164 .21900001 .18200001 .28900004 .18800001 .316 C .19200002 .32900004 .22000002 .37600003 .244 .39800004 C .252 .40500004 .281 .43100003 .324 .43100003 C .35 .43100003 .365 .41900004 .366 .41900004 C .336 .41400004 .314 .39000003 .314 .36400003 C .314 .34800003 .325 .32900004 .352 .32900004 C .379 .32900004 .407 .35200004 .407 .388 C .407 .42300005 .375 .45300005 .324 .45300005 C .259 .45300005 .21500002 .404 .19600001 .37600003 C .18800001 .42100004 .15200001 .45300005 .105000007 .45300005 C .059000009 .45300005 .040000008 .41400004 .031000002 .39600004 C .013000002 .36200003 0 .30200003 0 .29900003 C 0 .28900004 .01 .28900004 .012 .28900004 C .022000002 .28900004 .023 .29000003 .029000001 .31200005 C .046000005 .38300003 .06600001 .43100003 .10200001 .43100003 C .119 .43100003 .133 .42300005 .133 .38500003 C .133 .36400003 .13000001 .35300002 .11700001 .30100004 L .059000009 .07000001 Z "/>
</symbol>
<use xlink:href="#font_1_1" transform="matrix(9.9626,0,0,-9.9626,62.859918,112.337589)" fill="#800000"/>
<symbol id="font_1_3">
<path d="M .305 .31300003 C .311 .33900003 .334 .43100003 .404 .43100003 C .409 .43100003 .433 .43100003 .454 .418 C .426 .41300003 .40600003 .388 .40600003 .36400003 C .40600003 .34800003 .417 .32900004 .444 .32900004 C .46600003 .32900004 .498 .34700004 .498 .38700003 C .498 .43900005 .439 .45300005 .405 .45300005 C .347 .45300005 .312 .40000005 .3 .37700004 C .275 .44300003 .221 .45300005 .19200002 .45300005 C .08800001 .45300005 .031000002 .32400004 .031000002 .29900003 C .031000002 .28900004 .041 .28900004 .043000007 .28900004 C .051000008 .28900004 .054000006 .291 .056 .3 C .09 .40600003 .156 .43100003 .19000001 .43100003 C .209 .43100003 .244 .42200003 .244 .36400003 C .244 .33300004 .22700002 .26600004 .19000001 .126 C .17400001 .064 .13900002 .022000002 .095000009 .022000002 C .08900001 .022000002 .06600001 .022000002 .045 .035 C .07000001 .040000004 .09200001 .061 .09200001 .089 C .09200001 .116000007 .07000001 .124000009 .055000009 .124000009 C .025 .124000009 0 .098000008 0 .06600001 C 0 .020000002 .050000006 0 .094000007 0 C .16000001 0 .19600001 .07000001 .19900002 .076000008 C .21100001 .039 .24700003 0 .307 0 C .41 0 .467 .12900001 .467 .15400002 C .467 .16400002 .458 .16400002 .455 .16400002 C .446 .16400002 .444 .16000001 .442 .15300001 C .409 .046 .341 .022000002 .30900003 .022000002 C .27 .022000002 .254 .054 .254 .08800001 C .254 .11000001 .26 .13200002 .271 .17600002 L .305 .31300003 Z "/>
</symbol>
<use xlink:href="#font_1_3" transform="matrix(9.9626,0,0,-9.9626,76.93491,62.228586)" fill="#000080"/>
<symbol id="font_0_7">
<path d="M .63100007 .19400002 C .646 .19400002 .665 .19400002 .665 .214 C .665 .23400001 .646 .23400001 .632 .23400001 L .033 .23400001 C .019000002 .23400001 0 .23400001 0 .214 C 0 .19400002 .019000002 .19400002 .034 .19400002 L .63100007 .19400002 M .632 0 C .646 0 .665 0 .665 .02000001 C .665 .040000008 .646 .040000008 .63100007 .040000008 L .034 .040000008 C .019000002 .040000008 0 .040000008 0 .02000001 C 0 0 .019000002 0 .033 0 L .632 0 Z "/>
</symbol>
<use xlink:href="#font_0_7" transform="matrix(9.9626,0,0,-9.9626,85.6659,60.79397)" fill="#000080"/>
<symbol id="font_2_1">
<path d="M .314 0 C .345 0 .34600003 .0010000467 .356 .01999998 L .903 1.1620001 C .9100001 1.1750001 .9100001 1.177 .9100001 1.1800001 C .9100001 1.1910001 .90200009 1.2 .89 1.2 C .87700006 1.2 .873 1.1910001 .86800006 1.1800001 L .352 .10400009 L .139 .6000001 L 0 .49300004 L .014999993 .47700007 L .086 .5310001 L .314 0 Z "/>
</symbol>
<use xlink:href="#font_2_1" transform="matrix(9.9626,0,0,-9.9626,96.71988,64.91962)" fill="#000080"/>
<path transform="matrix(1,0,0,-1,105.58599,53.164)" stroke-width="1" stroke-linecap="butt" stroke-miterlimit="10" stroke-linejoin="miter" fill="none" stroke="#000080" d="M 0 0 L 27.381 0 "/>
<symbol id="font_0_4">
<path d="M .07700001 .07700001 L .18300002 .18 C .33900003 .31800003 .39900003 .372 .39900003 .47200004 C .39900003 .586 .30900003 .666 .18700002 .666 C .074 .666 0 .574 0 .485 C 0 .42900003 .05 .42900003 .053000008 .42900003 C .07000001 .42900003 .105000007 .441 .105000007 .48200003 C .105000007 .508 .08700001 .53400006 .052000006 .53400006 C .044000005 .53400006 .042000008 .53400006 .039 .53300008 C .062000004 .59800007 .11600001 .63500007 .17400001 .63500007 C .26500003 .63500007 .308 .554 .308 .47200004 C .308 .39200003 .25800003 .31300003 .20300003 .25100003 L .011000004 .037 C 0 .026 0 .024 0 0 L .37100003 0 L .39900003 .17400001 L .374 .17400001 C .36900003 .14400001 .36200003 .1 .352 .085 C .345 .07700001 .279 .07700001 .257 .07700001 L .07700001 .07700001 Z "/>
</symbol>
<use xlink:href="#font_0_4" transform="matrix(9.9626,0,0,-9.9626,106.08412,62.118997)" fill="#000080"/>
<symbol id="font_1_4">
<path d="M .45700003 .586 C .461 .6 .461 .602 .461 .609 C .461 .62700006 .447 .63600006 .432 .63600006 C .42200003 .63600006 .40600003 .63 .397 .615 C .395 .61 .387 .579 .38300003 .561 C .37600003 .535 .36900003 .508 .363 .48100005 L .318 .301 C .314 .286 .271 .21600002 .20500002 .21600002 C .15400002 .21600002 .143 .26000003 .143 .29700003 C .143 .34300003 .16000001 .40500004 .194 .49300004 C .21000001 .53400006 .21400002 .545 .21400002 .56500008 C .21400002 .61 .18200001 .6470001 .13200002 .6470001 C .037 .6470001 0 .50200006 0 .49300004 C 0 .48300005 .01 .48300005 .012 .48300005 C .022000002 .48300005 .023 .485 .028000003 .50100007 C .055000009 .595 .095000009 .625 .12900001 .625 C .13700001 .625 .15400002 .625 .15400002 .59300008 C .15400002 .568 .14400001 .54200008 .13700001 .523 C .097 .41700004 .079 .36 .079 .31300003 C .079 .224 .142 .194 .201 .194 C .24000003 .194 .274 .21100001 .30200003 .23900002 C .289 .187 .277 .13800001 .237 .08500001 C .21100001 .051 .17300001 .022 .127 .022 C .113000009 .022 .068 .025000006 .051000008 .06400001 C .067 .06400001 .080000009 .06400001 .094000007 .076000008 C .104 .08500001 .11400001 .098000008 .11400001 .117000009 C .11400001 .148 .087000008 .15200001 .07700001 .15200001 C .054000006 .15200001 .021 .136 .021 .087000008 C .021 .037 .065000008 0 .127 0 C .23 0 .333 .091000009 .361 .20400001 L .45700003 .586 Z "/>
</symbol>
<use xlink:href="#font_1_4" transform="matrix(9.9626,0,0,-9.9626,110.85691,64.16133)" fill="#000080"/>
<symbol id="font_0_2">
<path d="M .35300002 .31300003 L .632 .31300003 C .646 .31300003 .665 .31300003 .665 .333 C .665 .35300002 .646 .35300002 .632 .35300002 L .35300002 .35300002 L .35300002 .633 C .35300002 .647 .35300002 .666 .33300004 .666 C .31300003 .666 .31300003 .647 .31300003 .633 L .31300003 .35300002 L .033 .35300002 C .019000002 .35300002 0 .35300002 0 .333 C 0 .31300003 .019000002 .31300003 .033 .31300003 L .31300003 .31300003 L .31300003 .033000005 C .31300003 .019000002 .31300003 0 .33300004 0 C .35300002 0 .35300002 .019000002 .35300002 .033000005 L .35300002 .31300003 Z "/>
</symbol>
<symbol id="font_0_3">
<path d="M .205 .64000007 C .205 .66400006 .205 .666 .18200003 .666 C .120000008 .60200008 .032000007 .60200008 0 .60200008 L 0 .57100006 C .020000004 .57100006 .07900001 .57100006 .13100001 .597 L .13100001 .079 C .13100001 .043 .128 .031000002 .038000004 .031000002 L .0060000049 .031000002 L .0060000049 0 C .04100001 .003 .128 .003 .168 .003 C .20800002 .003 .29500003 .003 .33000005 0 L .33000005 .031000002 L .29800005 .031000002 C .20800002 .031000002 .205 .042000005 .205 .079 L .205 .64000007 Z "/>
</symbol>
<use xlink:href="#font_0_2" transform="matrix(9.9626,0,0,-9.9626,118.5819,62.945894)" fill="#000080"/>
<use xlink:href="#font_0_3" transform="matrix(9.9626,0,0,-9.9626,128.87326,62.118997)" fill="#000080"/>
<path transform="matrix(1,0,0,-1,.199,174.456)" stroke-width="1" stroke-linecap="butt" stroke-miterlimit="10" stroke-linejoin="miter" fill="none" stroke="#808080" d="M 64.758 22.23491 L 64.758 26.4868 M 114.57184 22.23491 L 114.57184 26.4868 M 164.38568 22.23491 L 164.38568 26.4868 "/>
<path transform="matrix(1,0,0,-1,.199,174.456)" stroke-width="1" stroke-linecap="butt" stroke-miterlimit="10" stroke-linejoin="miter" fill="none" stroke="#808080" d="M 12.81822 54.81194 L 17.07007 54.81194 M 12.81822 85.26303 L 17.07007 85.26303 M 12.81822 115.71411 L 17.07007 115.71411 M 12.81822 146.16519 L 17.07007 146.16519 "/>
<path transform="matrix(1,0,0,-1,.199,174.456)" stroke-width="1" stroke-linecap="butt" stroke-miterlimit="10" stroke-linejoin="miter" fill="none" stroke="#000000" d="M 0 24.36086 L 192.28145 24.36086 "/>
<path transform="matrix(1,0,0,-1,192.48046,150.09514)" d="M 1.99252 0 L -1.19551 1.59401 L 0 0 L -1.19551 -1.59401 "/>
<path transform="matrix(1,0,0,-1,.199,174.456)" stroke-width="1" stroke-linecap="butt" stroke-miterlimit="10" stroke-linejoin="miter" fill="none" stroke="#000000" d="M 14.94415 0 L 14.94415 159.39821 "/>
<path transform="matrix(0,-1,-1,-0,15.14315,15.057785)" d="M 1.99252 0 L -1.19551 1.59401 L 0 0 L -1.19551 -1.59401 "/>
<use xlink:href="#font_0_3" transform="matrix(9.9626,0,0,-9.9626,63.352674,162.161)"/>
<use xlink:href="#font_0_4" transform="matrix(9.9626,0,0,-9.9626,112.77713,162.161)"/>
<symbol id="font_0_5">
<path d="M .24800003 .37400005 C .33 .40100003 .388 .47100006 .388 .55 C .388 .632 .3 .688 .204 .688 C .10300001 .688 .027000003 .628 .027000003 .55200007 C .027000003 .519 .049000004 .5 .078 .5 C .109000008 .5 .12900001 .522 .12900001 .55100008 C .12900001 .6010001 .082 .6010001 .067 .6010001 C .098 .65000006 .164 .66300007 .20000002 .66300007 C .24100003 .66300007 .29600004 .64100006 .29600004 .55100008 C .29600004 .53900006 .29400004 .48100005 .268 .43700005 C .238 .38900004 .204 .38600005 .17900002 .38500003 C .171 .38400004 .14700002 .38200004 .14000002 .38200004 C .132 .38100005 .125 .38000003 .125 .37000004 C .125 .35900004 .132 .35900004 .14900002 .35900004 L .19300002 .35900004 C .275 .35900004 .312 .29100005 .312 .193 C .312 .057000005 .24300003 .028 .199 .028 C .15600002 .028 .081 .045 .046000005 .104 C .081 .09900001 .11200001 .12100001 .11200001 .15900001 C .11200001 .19500001 .085 .215 .056 .215 C .031999999 .215 0 .201 0 .157 C 0 .06600001 .093 0 .20200002 0 C .32400004 0 .41500003 .091000009 .41500003 .193 C .41500003 .27500005 .35200004 .35300005 .24800003 .37400005 Z "/>
</symbol>
<use xlink:href="#font_0_5" transform="matrix(9.9626,0,0,-9.9626,162.51044,162.38018)"/>
<use xlink:href="#font_0_3" transform="matrix(9.9626,0,0,-9.9626,5.4026715,122.854999)"/>
<use xlink:href="#font_0_4" transform="matrix(9.9626,0,0,-9.9626,5.0141298,92.404)"/>
<use xlink:href="#font_0_5" transform="matrix(9.9626,0,0,-9.9626,4.934429,62.172174)"/>
<symbol id="font_0_6">
<path d="M .266 .165 L .266 .078 C .266 .042000005 .26400004 .031000002 .19000001 .031000002 L .16900002 .031000002 L .16900002 0 C .21000001 .003 .26200003 .003 .30400003 .003 C .34600003 .003 .39900003 .003 .44000004 0 L .44000004 .031000002 L .41900004 .031000002 C .34500004 .031000002 .34300003 .042000005 .34300003 .078 L .34300003 .165 L .44300003 .165 L .44300003 .19600001 L .34300003 .19600001 L .34300003 .651 C .34300003 .671 .34300003 .67700007 .32700003 .67700007 C .31800003 .67700007 .31500004 .67700007 .307 .665 L 0 .19600001 L 0 .165 L .266 .165 M .272 .19600001 L .028 .19600001 L .272 .569 L .272 .19600001 Z "/>
</symbol>
<use xlink:href="#font_0_6" transform="matrix(9.9626,0,0,-9.9626,4.7949526,31.50299)"/>
<path transform="matrix(1,0,0,-1,.199,174.456)" d="M 116.56439 70.03748 C 116.56439 71.13795 115.6723 72.03003 114.57184 72.03003 C 113.47136 72.03003 112.57928 71.13795 112.57928 70.03748 C 112.57928 68.93701 113.47136 68.04492 114.57184 68.04492 C 115.6723 68.04492 116.56439 68.93701 116.56439 70.03748 Z M 114.57184 70.03748 " fill="#800000"/>
<path transform="matrix(1,0,0,-1,.199,174.456)" stroke-width="1" stroke-linecap="butt" stroke-miterlimit="10" stroke-linejoin="miter" fill="none" stroke="#800000" d="M 116.56439 70.03748 C 116.56439 71.13795 115.6723 72.03003 114.57184 72.03003 C 113.47136 72.03003 112.57928 71.13795 112.57928 70.03748 C 112.57928 68.93701 113.47136 68.04492 114.57184 68.04492 C 115.6723 68.04492 116.56439 68.93701 116.56439 70.03748 Z M 114.57184 70.03748 "/>
<path transform="matrix(1,0,0,-1,.199,174.456)" d="M 121.54578 76.27995 C 121.54578 77.38042 120.65369 78.2725 119.55322 78.2725 C 118.45274 78.2725 117.56067 77.38042 117.56067 76.27995 C 117.56067 75.17947 118.45274 74.2874 119.55322 74.2874 C 120.65369 74.2874 121.54578 75.17947 121.54578 76.27995 Z M 119.55322 76.27995 " fill="#800000"/>
<path transform="matrix(1,0,0,-1,.199,174.456)" stroke-width="1" stroke-linecap="butt" stroke-miterlimit="10" stroke-linejoin="miter" fill="none" stroke="#800000" d="M 121.54578 76.27995 C 121.54578 77.38042 120.65369 78.2725 119.55322 78.2725 C 118.45274 78.2725 117.56067 77.38042 117.56067 76.27995 C 117.56067 75.17947 118.45274 74.2874 119.55322 74.2874 C 120.65369 74.2874 121.54578 75.17947 121.54578 76.27995 Z M 119.55322 76.27995 "/>
<path transform="matrix(1,0,0,-1,.199,174.456)" d="M 66.75055 24.36086 C 66.75055 25.46133 65.85846 26.35341 64.758 26.35341 C 63.65752 26.35341 62.76544 25.46133 62.76544 24.36086 C 62.76544 23.26039 63.65752 22.3683 64.758 22.3683 C 65.85846 22.3683 66.75055 23.26039 66.75055 24.36086 Z M 64.758 24.36086 " fill="#000080"/>
<path transform="matrix(1,0,0,-1,.199,174.456)" stroke-width="1" stroke-linecap="butt" stroke-miterlimit="10" stroke-linejoin="miter" fill="none" stroke="#000080" d="M 66.75055 24.36086 C 66.75055 25.46133 65.85846 26.35341 64.758 26.35341 C 63.65752 26.35341 62.76544 25.46133 62.76544 24.36086 C 62.76544 23.26039 63.65752 22.3683 64.758 22.3683 C 65.85846 22.3683 66.75055 23.26039 66.75055 24.36086 Z M 64.758 24.36086 "/>
<path transform="matrix(1,0,0,-1,.199,174.456)" d="M 166.37824 146.16519 C 166.37824 147.26566 165.48615 148.15775 164.38568 148.15775 C 163.2852 148.15775 162.39313 147.26566 162.39313 146.16519 C 162.39313 145.06472 163.2852 144.17264 164.38568 144.17264 C 165.48615 144.17264 166.37824 145.06472 166.37824 146.16519 Z M 164.38568 146.16519 " fill="#000080"/>
<path transform="matrix(1,0,0,-1,.199,174.456)" stroke-width="1" stroke-linecap="butt" stroke-miterlimit="10" stroke-linejoin="miter" fill="none" stroke="#000080" d="M 166.37824 146.16519 C 166.37824 147.26566 165.48615 148.15775 164.38568 148.15775 C 163.2852 148.15775 162.39313 147.26566 162.39313 146.16519 C 162.39313 145.06472 163.2852 144.17264 164.38568 144.17264 C 165.48615 144.17264 166.37824 145.06472 166.37824 146.16519 Z M 164.38568 146.16519 "/>
<use xlink:href="#font_1_3" transform="matrix(9.9626,0,0,-9.9626,198.31092,152.34558)"/>
<use xlink:href="#font_1_4" transform="matrix(9.9626,0,0,-9.9626,12.813916,9.652334)"/>
</svg>
