<?xml version="1.0" encoding="UTF-8" standalone="no"?>
<!DOCTYPE svg PUBLIC "-//W3C//DTD SVG 1.1//EN" "http://www.w3.org/Graphics/SVG/1.1/DTD/svg11.dtd">
<svg xmlns="http://www.w3.org/2000/svg" xmlns:xlink="http://www.w3.org/1999/xlink" version="1.1" width="207.037pt" height="174.685pt" viewBox="0 0 207.037 174.685">
<path transform="matrix(1,0,0,-1,.199,174.486)" stroke-width="1" stroke-linecap="butt" stroke-miterlimit="10" stroke-linejoin="miter" fill="none" stroke="#000080" d="M 38.85443 74.93373 C 38.85443 74.93373 43.14323 74.98761 44.79047 75.05481 C 46.43768 75.122 49.07928 75.28366 50.72652 75.41806 C 52.37375 75.55246 55.01534 75.8219 56.66255 76.02348 C 58.30978 76.22508 60.9514 76.6023 62.59862 76.8711 C 64.24585 77.1399 66.88745 77.62485 68.53468 77.96085 C 70.1819 78.29684 72.8235 78.88959 74.47073 79.29279 C 76.11795 79.69598 78.75954 80.39648 80.40677 80.8669 C 82.054 81.33731 84.6956 82.14557 86.34282 82.68317 C 87.99005 83.22078 90.63165 84.1368 92.27887 84.74161 C 93.9261 85.34642 96.56769 86.37022 98.21492 87.04224 C 99.86214 87.71423 102.50374 88.84581 104.15097 89.58502 C 105.79819 90.32423 108.43977 91.56355 110.087 92.36996 C 111.73422 93.17638 114.37584 94.5235 116.02306 95.39711 C 117.67029 96.27072 120.31189 97.72559 121.9591 98.6664 C 123.60634 99.60721 126.24796 101.16986 127.89517 102.17787 C 129.5424 103.18588 132.18399 104.85631 133.83123 105.93152 C 135.47844 107.00671 138.12004 108.7849 139.76728 109.9273 C 141.41449 111.06972 144.05609 112.95566 145.70333 114.16528 C 147.35056 115.37491 149.99214 117.36862 151.63936 118.64543 C 153.28659 119.92224 155.92819 122.02373 157.57541 123.36775 C 159.22264 124.71178 161.86423 126.92104 163.51146 128.33223 C 165.15868 129.74344 167.80028 132.06035 169.44751 133.53878 C 171.09473 135.0172 173.73633 137.44213 175.38356 138.98778 C 177.03079 140.53342 181.3196 144.67882 181.3196 144.67882 "/>
<path transform="matrix(1,0,0,-1,.199,174.486)" stroke-width="1.59404" stroke-linecap="butt" stroke-miterlimit="10" stroke-linejoin="miter" fill="none" stroke="#800000" d="M 90.66034 84.15636 L 103.61182 89.34407 "/>
<symbol id="font_0_1">
<path d="M .39500005 .698 C .38800005 .711 .38600005 .716 .36900003 .716 C .35200004 .716 .35000003 .711 .34300003 .698 L .004999999 .020000002 C 0 .011000001 0 .009000001 0 .008 C 0 0 .006000001 0 .022000004 0 L .716 0 C .73200008 0 .73800006 0 .73800006 .008 C .73800006 .009000001 .73800006 .011000001 .73300006 .020000002 L .39500005 .698 M .337 .61600008 L .60600009 .076000008 L .067 .076000008 L .337 .61600008 Z "/>
</symbol>
<use xlink:href="#font_0_1" transform="matrix(9.9626,0,0,-9.9626,95.20123,98.352)" fill="#800000"/>
<symbol id="font_1_2">
<path d="M .33900006 .38500003 C .311 .38400004 .291 .36200003 .291 .34000004 C .291 .32600004 .3 .31100003 .32200004 .31100003 C .34400005 .31100003 .36800004 .328 .36800004 .367 C .36800004 .41200004 .325 .45300005 .24900003 .45300005 C .11700001 .45300005 .08 .351 .08 .307 C .08 .22900002 .15400002 .21400002 .18300002 .20800002 C .235 .19800002 .287 .18700002 .287 .13200002 C .287 .106000009 .264 .022000002 .14400001 .022000002 C .13000001 .022000002 .053000004 .022000002 .030000002 .075 C .068 .07000001 .09300001 .1 .09300001 .128 C .09300001 .15100001 .07700001 .16300002 .056 .16300002 C .030000002 .16300002 0 .14200002 0 .097 C 0 .040000004 .057000005 0 .143 0 C .305 0 .34400005 .12100001 .34400005 .16600001 C .34400005 .20200002 .325 .22700002 .31300003 .23900002 C .286 .26700003 .25700004 .272 .21300002 .28100003 C .17700002 .28900004 .13700001 .29600004 .13700001 .34100003 C .13700001 .37000004 .16100002 .43100003 .24900003 .43100003 C .274 .43100003 .324 .42400003 .33900006 .38500003 Z "/>
</symbol>
<use xlink:href="#font_1_2" transform="matrix(9.9626,0,0,-9.9626,103.554058,98.461589)" fill="#800000"/>
<path transform="matrix(1,0,0,-1,.199,174.486)" stroke-width="1" stroke-linecap="butt" stroke-miterlimit="10" stroke-linejoin="miter" fill="none" stroke="#800000" d="M 38.85443 86.462 L 97.13608 86.60611 "/>
<symbol id="font_1_1">
<path d="M .059000009 .07000001 C .056 .055000005 .050000006 .032 .050000006 .027000003 C .050000006 .009000001 .064 0 .079 0 C .091000009 0 .10900001 .008000001 .11600001 .028 C .118 .032 .15200001 .16800002 .156 .18600002 C .164 .21900001 .18200001 .28900004 .18800001 .316 C .19200002 .32900004 .22000002 .37600003 .244 .39800004 C .252 .40500004 .281 .43100003 .324 .43100003 C .35 .43100003 .365 .41900004 .366 .41900004 C .336 .41400004 .314 .39000003 .314 .36400003 C .314 .34800003 .325 .32900004 .352 .32900004 C .379 .32900004 .407 .35200004 .407 .388 C .407 .42300005 .375 .45300005 .324 .45300005 C .259 .45300005 .21500002 .404 .19600001 .37600003 C .18800001 .42100004 .15200001 .45300005 .105000007 .45300005 C .059000009 .45300005 .040000008 .41400004 .031000002 .39600004 C .013000002 .36200003 0 .30200003 0 .29900003 C 0 .28900004 .01 .28900004 .012 .28900004 C .022000002 .28900004 .023 .29000003 .029000001 .31200005 C .046000005 .38300003 .06600001 .43100003 .10200001 .43100003 C .119 .43100003 .133 .42300005 .133 .38500003 C .133 .36400003 .13000001 .35300002 .11700001 .30100004 L .059000009 .07000001 Z "/>
</symbol>
<use xlink:href="#font_1_1" transform="matrix(9.9626,0,0,-9.9626,62.858915,81.533588)" fill="#800000"/>
<symbol id="font_1_4">
<path d="M .45700003 .586 C .461 .6 .461 .602 .461 .609 C .461 .62700006 .447 .63600006 .432 .63600006 C .42200003 .63600006 .40600003 .63 .397 .615 C .395 .61 .387 .579 .38300003 .561 C .37600003 .535 .36900003 .508 .363 .48100005 L .318 .301 C .314 .286 .271 .21600002 .20500002 .21600002 C .15400002 .21600002 .143 .26000003 .143 .29700003 C .143 .34300003 .16000001 .40500004 .194 .49300004 C .21000001 .53400006 .21400002 .545 .21400002 .56500008 C .21400002 .61 .18200001 .6470001 .13200002 .6470001 C .037 .6470001 0 .50200006 0 .49300004 C 0 .48300005 .01 .48300005 .012 .48300005 C .022000002 .48300005 .023 .485 .028000003 .50100007 C .055000009 .595 .095000009 .625 .12900001 .625 C .13700001 .625 .15400002 .625 .15400002 .59300008 C .15400002 .568 .14400001 .54200008 .13700001 .523 C .097 .41700004 .079 .36 .079 .31300003 C .079 .224 .142 .194 .201 .194 C .24000003 .194 .274 .21100001 .30200003 .23900002 C .289 .187 .277 .13800001 .237 .08500001 C .21100001 .051 .17300001 .022 .127 .022 C .113000009 .022 .068 .025000006 .051000008 .06400001 C .067 .06400001 .080000009 .06400001 .094000007 .076000008 C .104 .08500001 .11400001 .098000008 .11400001 .117000009 C .11400001 .148 .087000008 .15200001 .07700001 .15200001 C .054000006 .15200001 .021 .136 .021 .087000008 C .021 .037 .065000008 0 .127 0 C .23 0 .333 .091000009 .361 .20400001 L .45700003 .586 Z "/>
</symbol>
<use xlink:href="#font_1_4" transform="matrix(9.9626,0,0,-9.9626,94.126918,64.58234)" fill="#000080"/>
<symbol id="font_0_5">
<path d="M .63100007 .19400002 C .646 .19400002 .665 .19400002 .665 .214 C .665 .23400001 .646 .23400001 .632 .23400001 L .033 .23400001 C .019000002 .23400001 0 .23400001 0 .214 C 0 .19400002 .019000002 .19400002 .034 .19400002 L .63100007 .19400002 M .632 0 C .646 0 .665 0 .665 .02000001 C .665 .040000008 .646 .040000008 .63100007 .040000008 L .034 .040000008 C .019000002 .040000008 0 .040000008 0 .02000001 C 0 0 .019000002 0 .033 0 L .632 0 Z "/>
</symbol>
<symbol id="font_0_3">
<path d="M .205 .64000007 C .205 .66400006 .205 .666 .18200003 .666 C .120000008 .60200008 .032000007 .60200008 0 .60200008 L 0 .57100006 C .020000004 .57100006 .07900001 .57100006 .13100001 .597 L .13100001 .079 C .13100001 .043 .128 .031000002 .038000004 .031000002 L .0060000049 .031000002 L .0060000049 0 C .04100001 .003 .128 .003 .168 .003 C .20800002 .003 .29500003 .003 .33000005 0 L .33000005 .031000002 L .29800005 .031000002 C .20800002 .031000002 .205 .042000005 .205 .079 L .205 .64000007 Z "/>
</symbol>
<symbol id="font_0_2">
<path d="M .35300002 .31300003 L .632 .31300003 C .646 .31300003 .665 .31300003 .665 .333 C .665 .35300002 .646 .35300002 .632 .35300002 L .35300002 .35300002 L .35300002 .633 C .35300002 .647 .35300002 .666 .33300004 .666 C .31300003 .666 .31300003 .647 .31300003 .633 L .31300003 .35300002 L .033 .35300002 C .019000002 .35300002 0 .35300002 0 .333 C 0 .31300003 .019000002 .31300003 .033 .31300003 L .31300003 .31300003 L .31300003 .033000005 C .31300003 .019000002 .31300003 0 .33300004 0 C .35300002 0 .35300002 .019000002 .35300002 .033000005 L .35300002 .31300003 Z "/>
</symbol>
<use xlink:href="#font_0_5" transform="matrix(9.9626,0,0,-9.9626,102.40491,61.214975)" fill="#000080"/>
<use xlink:href="#font_0_3" transform="matrix(9.9626,0,0,-9.9626,113.25417,62.54)" fill="#000080"/>
<use xlink:href="#font_0_2" transform="matrix(9.9626,0,0,-9.9626,120.11841,63.366899)" fill="#000080"/>
<symbol id="font_1_3">
<path d="M .305 .31300003 C .311 .33900003 .334 .43100003 .404 .43100003 C .409 .43100003 .433 .43100003 .454 .418 C .426 .41300003 .40600003 .388 .40600003 .36400003 C .40600003 .34800003 .417 .32900004 .444 .32900004 C .46600003 .32900004 .498 .34700004 .498 .38700003 C .498 .43900005 .439 .45300005 .405 .45300005 C .347 .45300005 .312 .40000005 .3 .37700004 C .275 .44300003 .221 .45300005 .19200002 .45300005 C .08800001 .45300005 .031000002 .32400004 .031000002 .29900003 C .031000002 .28900004 .041 .28900004 .043000007 .28900004 C .051000008 .28900004 .054000006 .291 .056 .3 C .09 .40600003 .156 .43100003 .19000001 .43100003 C .209 .43100003 .244 .42200003 .244 .36400003 C .244 .33300004 .22700002 .26600004 .19000001 .126 C .17400001 .064 .13900002 .022000002 .095000009 .022000002 C .08900001 .022000002 .06600001 .022000002 .045 .035 C .07000001 .040000004 .09200001 .061 .09200001 .089 C .09200001 .116000007 .07000001 .124000009 .055000009 .124000009 C .025 .124000009 0 .098000008 0 .06600001 C 0 .020000002 .050000006 0 .094000007 0 C .16000001 0 .19600001 .07000001 .19900002 .076000008 C .21100001 .039 .24700003 0 .307 0 C .41 0 .467 .12900001 .467 .15400002 C .467 .16400002 .458 .16400002 .455 .16400002 C .446 .16400002 .444 .16000001 .442 .15300001 C .409 .046 .341 .022000002 .30900003 .022000002 C .27 .022000002 .254 .054 .254 .08800001 C .254 .11000001 .26 .13200002 .271 .17600002 L .305 .31300003 Z "/>
</symbol>
<use xlink:href="#font_1_3" transform="matrix(9.9626,0,0,-9.9626,129.8099,62.64959)" fill="#000080"/>
<symbol id="font_2_1">
<path d="M .442 .18200001 L .40800003 .18200001 C .40500004 .16000001 .39500005 .101 .38200004 .091000009 C .374 .085 .29700003 .085 .28300003 .085 L .099 .085 C .20400003 .178 .23900002 .20600002 .29900003 .25300003 C .37300004 .312 .442 .374 .442 .469 C .442 .59000006 .33600004 .66400006 .20800004 .66400006 C .084 .66400006 0 .577 0 .485 C 0 .43400003 .043000007 .42900003 .053000004 .42900003 C .077 .42900003 .10600001 .446 .10600001 .48200003 C .10600001 .5 .099 .535 .047000007 .535 C .078 .606 .146 .628 .19300002 .628 C .293 .628 .34500004 .55 .34500004 .469 C .34500004 .38200004 .28300003 .31300003 .25100003 .277 L .010000005 .039 C 0 .030000002 0 .028 0 0 L .41200004 0 L .442 .18200001 Z "/>
</symbol>
<use xlink:href="#font_2_1" transform="matrix(6.9738,0,0,-6.9738,135.65435,58.426004)" fill="#000080"/>
<path transform="matrix(1,0,0,-1,.199,174.486)" stroke-width="1" stroke-linecap="butt" stroke-miterlimit="10" stroke-linejoin="miter" fill="none" stroke="#808080" d="M 168.3692 15.1664 L 168.3692 19.41838 "/>
<path transform="matrix(1,0,0,-1,.199,174.486)" stroke-width="1" stroke-linecap="butt" stroke-miterlimit="10" stroke-linejoin="miter" fill="none" stroke="#808080" d="M 36.72812 74.93373 L 40.98071 74.93373 M 36.72812 132.57508 L 40.98071 132.57508 "/>
<path transform="matrix(1,0,0,-1,.199,174.486)" stroke-width="1" stroke-linecap="butt" stroke-miterlimit="10" stroke-linejoin="miter" fill="none" stroke="#000000" d="M 0 17.29239 L 192.27964 17.29239 "/>
<path transform="matrix(1,0,0,-1,192.47864,157.1936)" d="M 1.99252 0 L -1.19551 1.59401 L 0 0 L -1.19551 -1.59401 "/>
<path transform="matrix(1,0,0,-1,.199,174.486)" stroke-width="1" stroke-linecap="butt" stroke-miterlimit="10" stroke-linejoin="miter" fill="none" stroke="#000000" d="M 38.85443 0 L 38.85443 159.40323 "/>
<path transform="matrix(0,-1,-1,-0,39.053434,15.082764)" d="M 1.99252 0 L -1.19551 1.59401 L 0 0 L -1.19551 -1.59401 "/>
<use xlink:href="#font_0_3" transform="matrix(9.9626,0,0,-9.9626,166.96268,169.26)"/>
<use xlink:href="#font_0_3" transform="matrix(9.9626,0,0,-9.9626,29.31267,102.763)"/>
<symbol id="font_0_4">
<path d="M .07700001 .07700001 L .18300002 .18 C .33900003 .31800003 .39900003 .372 .39900003 .47200004 C .39900003 .586 .30900003 .666 .18700002 .666 C .074 .666 0 .574 0 .485 C 0 .42900003 .05 .42900003 .053000008 .42900003 C .07000001 .42900003 .105000007 .441 .105000007 .48200003 C .105000007 .508 .08700001 .53400006 .052000006 .53400006 C .044000005 .53400006 .042000008 .53400006 .039 .53300008 C .062000004 .59800007 .11600001 .63500007 .17400001 .63500007 C .26500003 .63500007 .308 .554 .308 .47200004 C .308 .39200003 .25800003 .31300003 .20300003 .25100003 L .011000004 .037 C 0 .026 0 .024 0 0 L .37100003 0 L .39900003 .17400001 L .374 .17400001 C .36900003 .14400001 .36200003 .1 .352 .085 C .345 .07700001 .279 .07700001 .257 .07700001 L .07700001 .07700001 Z "/>
</symbol>
<use xlink:href="#font_0_4" transform="matrix(9.9626,0,0,-9.9626,28.92413,45.122987)"/>
<path transform="matrix(1,0,0,-1,.199,174.486)" d="M 92.6529 84.15636 C 92.6529 85.25682 91.7608 86.14891 90.66034 86.14891 C 89.55986 86.14891 88.66779 85.25682 88.66779 84.15636 C 88.66779 83.05588 89.55986 82.1638 90.66034 82.1638 C 91.7608 82.1638 92.6529 83.05588 92.6529 84.15636 Z M 90.66034 84.15636 " fill="#800000"/>
<path transform="matrix(1,0,0,-1,.199,174.486)" stroke-width="1" stroke-linecap="butt" stroke-miterlimit="10" stroke-linejoin="miter" fill="none" stroke="#800000" d="M 92.6529 84.15636 C 92.6529 85.25682 91.7608 86.14891 90.66034 86.14891 C 89.55986 86.14891 88.66779 85.25682 88.66779 84.15636 C 88.66779 83.05588 89.55986 82.1638 90.66034 82.1638 C 91.7608 82.1638 92.6529 83.05588 92.6529 84.15636 Z M 90.66034 84.15636 "/>
<path transform="matrix(1,0,0,-1,.199,174.486)" d="M 105.60437 89.34407 C 105.60437 90.44455 104.71228 91.33662 103.61182 91.33662 C 102.51134 91.33662 101.61926 90.44455 101.61926 89.34407 C 101.61926 88.2436 102.51134 87.35152 103.61182 87.35152 C 104.71228 87.35152 105.60437 88.2436 105.60437 89.34407 Z M 103.61182 89.34407 " fill="#800000"/>
<path transform="matrix(1,0,0,-1,.199,174.486)" stroke-width="1" stroke-linecap="butt" stroke-miterlimit="10" stroke-linejoin="miter" fill="none" stroke="#800000" d="M 105.60437 89.34407 C 105.60437 90.44455 104.71228 91.33662 103.61182 91.33662 C 102.51134 91.33662 101.61926 90.44455 101.61926 89.34407 C 101.61926 88.2436 102.51134 87.35152 103.61182 87.35152 C 104.71228 87.35152 105.60437 88.2436 105.60437 89.34407 Z M 103.61182 89.34407 "/>
<path transform="matrix(1,0,0,-1,.199,174.486)" d="M 40.84698 74.93373 C 40.84698 76.03421 39.9549 76.92628 38.85443 76.92628 C 37.75395 76.92628 36.86188 76.03421 36.86188 74.93373 C 36.86188 73.83327 37.75395 72.94118 38.85443 72.94118 C 39.9549 72.94118 40.84698 73.83327 40.84698 74.93373 Z M 38.85443 74.93373 " fill="#000080"/>
<path transform="matrix(1,0,0,-1,.199,174.486)" stroke-width="1" stroke-linecap="butt" stroke-miterlimit="10" stroke-linejoin="miter" fill="none" stroke="#000080" d="M 40.84698 74.93373 C 40.84698 76.03421 39.9549 76.92628 38.85443 76.92628 C 37.75395 76.92628 36.86188 76.03421 36.86188 74.93373 C 36.86188 73.83327 37.75395 72.94118 38.85443 72.94118 C 39.9549 72.94118 40.84698 73.83327 40.84698 74.93373 Z M 38.85443 74.93373 "/>
<path transform="matrix(1,0,0,-1,.199,174.486)" d="M 170.36176 132.57508 C 170.36176 133.67555 169.46967 134.56763 168.3692 134.56763 C 167.26873 134.56763 166.37665 133.67555 166.37665 132.57508 C 166.37665 131.47461 167.26873 130.58252 168.3692 130.58252 C 169.46967 130.58252 170.36176 131.47461 170.36176 132.57508 Z M 168.3692 132.57508 " fill="#000080"/>
<path transform="matrix(1,0,0,-1,.199,174.486)" stroke-width="1" stroke-linecap="butt" stroke-miterlimit="10" stroke-linejoin="miter" fill="none" stroke="#000080" d="M 170.36176 132.57508 C 170.36176 133.67555 169.46967 134.56763 168.3692 134.56763 C 167.26873 134.56763 166.37665 133.67555 166.37665 132.57508 C 166.37665 131.47461 167.26873 130.58252 168.3692 130.58252 C 169.46967 130.58252 170.36176 131.47461 170.36176 132.57508 Z M 168.3692 132.57508 "/>
<use xlink:href="#font_1_3" transform="matrix(9.9626,0,0,-9.9626,198.31192,159.44458)"/>
<use xlink:href="#font_1_4" transform="matrix(9.9626,0,0,-9.9626,36.728918,9.652319)"/>
</svg>
