<?xml version="1.0" encoding="UTF-8" standalone="no"?>
<!DOCTYPE svg PUBLIC "-//W3C//DTD SVG 1.1//EN" "http://www.w3.org/Graphics/SVG/1.1/DTD/svg11.dtd">
<svg xmlns="http://www.w3.org/2000/svg" xmlns:xlink="http://www.w3.org/1999/xlink" version="1.1" width="129.478pt" height="154.711pt" viewBox="0 0 129.478 154.711">
<clipPath id="cp0">
<path transform="matrix(1,0,0,-1,41.176,80.066)" d="M -41.17668 -50.74663 L -41.17668 29.32036 L 0 80.06699 L 88.30312 56.40329 L 88.30312 -23.6637 L 47.12643 -74.41034 Z "/>
</clipPath>
<g clip-path="url(#cp0)">
<path transform="matrix(1,0,0,-1,41.176,80.066)" stroke-width="1" stroke-linecap="butt" stroke-miterlimit="10" stroke-linejoin="miter" fill="none" stroke="#f2f8ff" d="M 73.00232 -17.13338 L 58.50438 -13.81064 L 58.50438 -8.60829 L 73.00232 -17.13338 Z "/>
<path transform="matrix(1,0,0,-1,41.176,80.066)" stroke-width="1" stroke-linecap="butt" stroke-miterlimit="10" stroke-linejoin="miter" fill="none" stroke="#d8ebff" d="M 58.50438 -13.81064 L 43.89093 -11.5577 L 43.89093 -1.38068 L 58.50438 -8.60829 Z "/>
<path transform="matrix(1,0,0,-1,41.176,80.066)" stroke-width="1" stroke-linecap="butt" stroke-miterlimit="10" stroke-linejoin="miter" fill="none" stroke="#d7ebff" d="M 73.00232 -17.13338 L 58.50438 -8.60829 L 58.50438 -3.40593 L 73.00232 -17.13338 Z "/>
<path transform="matrix(1,0,0,-1,41.176,80.066)" stroke-width="1" stroke-linecap="butt" stroke-miterlimit="10" stroke-linejoin="miter" fill="none" stroke="#bfdfff" d="M 43.89093 -11.5577 L 29.80045 -10.47227 L 29.80045 4.23451 L 43.89093 -1.38068 Z "/>
<path transform="matrix(1,0,0,-1,41.176,80.066)" stroke-width="1" stroke-linecap="butt" stroke-miterlimit="10" stroke-linejoin="miter" fill="none" stroke="#89c4ff" d="M 58.50438 -8.60829 L 43.89093 -1.38068 L 43.89093 8.79631 L 58.50438 -3.40593 Z "/>
<path transform="matrix(1,0,0,-1,41.176,80.066)" stroke-width="1" stroke-linecap="butt" stroke-miterlimit="10" stroke-linejoin="miter" fill="none" stroke="#aad5ff" d="M 29.80045 -10.47227 L 16.84814 -10.60236 L 16.84814 7.99142 L 29.80045 4.23451 Z "/>
<path transform="matrix(1,0,0,-1,41.176,80.066)" stroke-width="1" stroke-linecap="butt" stroke-miterlimit="10" stroke-linejoin="miter" fill="none" stroke="#40a0ff" d="M 43.89093 -1.38068 L 29.80045 4.23451 L 29.80045 18.94133 L 43.89093 8.79631 Z "/>
<path transform="matrix(1,0,0,-1,41.176,80.066)" stroke-width="1" stroke-linecap="butt" stroke-miterlimit="10" stroke-linejoin="miter" fill="none" stroke="#98ccff" d="M 16.84814 -10.60236 L 5.59833 -11.94138 L 5.59833 9.72748 L 16.84814 7.99142 Z "/>
<path transform="matrix(1,0,0,-1,41.176,80.066)" stroke-width="1" stroke-linecap="butt" stroke-miterlimit="10" stroke-linejoin="miter" fill="none" stroke="#0180ff" d="M 29.80045 4.23451 L 16.84814 7.99142 L 16.84814 26.58524 L 29.80045 18.94133 Z "/>
<path transform="matrix(1,0,0,-1,41.176,80.066)" stroke-width="1" stroke-linecap="butt" stroke-miterlimit="10" stroke-linejoin="miter" fill="none" stroke="#8bc5ff" d="M 5.59833 -11.94138 L -3.45465 -14.43156 L -3.45465 9.36508 L 5.59833 9.72748 Z "/>
<path transform="matrix(1,0,0,-1,41.176,80.066)" stroke-width="1" stroke-linecap="butt" stroke-miterlimit="10" stroke-linejoin="miter" fill="none" stroke="#3665ff" d="M 16.84814 7.99142 L 5.59833 9.72748 L 5.59833 31.39636 L 16.84814 26.58524 Z "/>
<path transform="matrix(1,0,0,-1,41.176,80.066)" stroke-width="1" stroke-linecap="butt" stroke-miterlimit="10" stroke-linejoin="miter" fill="none" stroke="#82c1ff" d="M -3.45465 -14.43156 L -9.91461 -17.96469 L -9.91461 6.91911 L -3.45465 9.36508 Z "/>
<path transform="matrix(1,0,0,-1,41.176,80.066)" stroke-width="1" stroke-linecap="butt" stroke-miterlimit="10" stroke-linejoin="miter" fill="none" stroke="#5e51ff" d="M 5.59833 9.72748 L -3.45465 9.36508 L -3.45465 33.16174 L 5.59833 31.39636 Z "/>
<path transform="matrix(1,0,0,-1,41.176,80.066)" stroke-width="1" stroke-linecap="butt" stroke-miterlimit="10" stroke-linejoin="miter" fill="none" stroke="#80c0ff" d="M -9.91461 -17.96469 L -13.50111 -22.3847 L -13.50111 2.49908 L -9.91461 6.91911 Z "/>
<path transform="matrix(1,0,0,-1,41.176,80.066)" stroke-width="1" stroke-linecap="butt" stroke-miterlimit="10" stroke-linejoin="miter" fill="none" stroke="#7744ff" d="M -3.45465 9.36508 L -9.91461 6.91911 L -9.91461 31.80293 L -3.45465 33.16174 Z "/>
<path transform="matrix(1,0,0,-1,41.176,80.066)" stroke-width="1" stroke-linecap="butt" stroke-miterlimit="10" stroke-linejoin="miter" fill="none" stroke="#82c1ff" d="M -13.50111 -22.3847 L -14.05832 -27.49966 L -14.05832 -3.703 L -13.50111 2.49908 Z "/>
<path transform="matrix(1,0,0,-1,41.176,80.066)" stroke-width="1" stroke-linecap="butt" stroke-miterlimit="10" stroke-linejoin="miter" fill="none" stroke="#7f40ff" d="M -9.91461 6.91911 L -13.50111 2.49908 L -13.50111 27.3829 L -9.91461 31.80293 Z "/>
<path transform="matrix(1,0,0,-1,41.176,80.066)" stroke-width="1" stroke-linecap="butt" stroke-miterlimit="10" stroke-linejoin="miter" fill="none" stroke="#8bc5ff" d="M -14.05832 -27.49966 L -11.55861 -33.0858 L -11.55861 -11.41693 L -14.05832 -3.703 Z "/>
<path transform="matrix(1,0,0,-1,41.176,80.066)" stroke-width="1" stroke-linecap="butt" stroke-miterlimit="10" stroke-linejoin="miter" fill="none" stroke="#7744ff" d="M -13.50111 2.49908 L -14.05832 -3.703 L -14.05832 20.09364 L -13.50111 27.3829 Z "/>
<path transform="matrix(1,0,0,-1,41.176,80.066)" stroke-width="1" stroke-linecap="butt" stroke-miterlimit="10" stroke-linejoin="miter" fill="none" stroke="#98ccff" d="M -11.55861 -33.0858 L -6.11232 -38.8991 L -6.11232 -20.30528 L -11.55861 -11.41693 Z "/>
<path transform="matrix(1,0,0,-1,41.176,80.066)" stroke-width="1" stroke-linecap="butt" stroke-miterlimit="10" stroke-linejoin="miter" fill="none" stroke="#5e51ff" d="M -14.05832 -3.703 L -11.55861 -11.41693 L -11.55861 10.25194 L -14.05832 20.09364 Z "/>
<path transform="matrix(1,0,0,-1,41.176,80.066)" stroke-width="1" stroke-linecap="butt" stroke-miterlimit="10" stroke-linejoin="miter" fill="none" stroke="#aad5ff" d="M -6.11232 -38.8991 L 2.03983 -44.6848 L 2.03983 -29.978 L -6.11232 -20.30528 Z "/>
<path transform="matrix(1,0,0,-1,41.176,80.066)" stroke-width="1" stroke-linecap="butt" stroke-miterlimit="10" stroke-linejoin="miter" fill="none" stroke="#3665ff" d="M -11.55861 -11.41693 L -6.11232 -20.30528 L -6.11232 -1.71147 L -11.55861 10.25194 Z "/>
<path transform="matrix(1,0,0,-1,41.176,80.066)" stroke-width="1" stroke-linecap="butt" stroke-miterlimit="10" stroke-linejoin="miter" fill="none" stroke="#bfdfff" d="M 2.03983 -44.6848 L 12.5438 -50.19025 L 12.5438 -40.01324 L 2.03983 -29.978 Z "/>
<path transform="matrix(1,0,0,-1,41.176,80.066)" stroke-width="1" stroke-linecap="butt" stroke-miterlimit="10" stroke-linejoin="miter" fill="none" stroke="#0180ff" d="M -6.11232 -20.30528 L 2.03983 -29.978 L 2.03983 -15.27118 L -6.11232 -1.71147 Z "/>
<path transform="matrix(1,0,0,-1,41.176,80.066)" stroke-width="1" stroke-linecap="butt" stroke-miterlimit="10" stroke-linejoin="miter" fill="none" stroke="#d8ebff" d="M 12.5438 -50.19025 L 24.94022 -55.17548 L 24.94022 -49.97313 L 12.5438 -40.01324 Z "/>
<path transform="matrix(1,0,0,-1,41.176,80.066)" stroke-width="1" stroke-linecap="butt" stroke-miterlimit="10" stroke-linejoin="miter" fill="none" stroke="#40a0ff" d="M 2.03983 -29.978 L 12.5438 -40.01324 L 12.5438 -29.83623 L 2.03983 -15.27118 Z "/>
<path transform="matrix(1,0,0,-1,41.176,80.066)" stroke-width="1" stroke-linecap="butt" stroke-miterlimit="10" stroke-linejoin="miter" fill="none" stroke="#f2f8ff" d="M 24.94022 -55.17548 L 38.68842 -59.42224 L 24.94022 -49.97313 Z "/>
<path transform="matrix(1,0,0,-1,41.176,80.066)" stroke-width="1" stroke-linecap="butt" stroke-miterlimit="10" stroke-linejoin="miter" fill="none" stroke="#89c4ff" d="M 12.5438 -40.01324 L 24.94022 -49.97313 L 24.94022 -44.77078 L 12.5438 -29.83623 Z "/>
<path transform="matrix(1,0,0,-1,41.176,80.066)" stroke-width="1" stroke-linecap="butt" stroke-miterlimit="10" stroke-linejoin="miter" fill="none" stroke="#d7ebff" d="M 24.94022 -49.97313 L 38.68842 -59.42224 L 24.94022 -44.77078 Z "/>
<path transform="matrix(1,0,0,-1,41.176,80.066)" stroke-width="1.19553" stroke-linecap="butt" stroke-miterlimit="10" stroke-linejoin="miter" fill="none" stroke="#000080" d="M 73.00232 -17.13338 C 73.00232 -17.13338 62.54353 -14.58426 58.50438 -13.81064 C 54.46523 -13.03703 47.87355 -12.02087 43.89093 -11.5577 C 39.90831 -11.0945 33.55257 -10.60481 29.80045 -10.47227 C 26.04832 -10.33972 20.20615 -10.39853 16.84814 -10.60236 C 13.49016 -10.80618 8.4153 -11.41008 5.59833 -11.94138 C 2.78136 -12.47267 -1.30228 -13.59586 -3.45465 -14.43156 C -5.60704 -15.26727 -8.5207 -16.8612 -9.91461 -17.96469 C -11.30853 -19.06816 -12.9262 -21.06175 -13.50111 -22.3847 C -14.07603 -23.70766 -14.32784 -26.01491 -14.05832 -27.49966 C -13.7888 -28.9844 -12.6611 -31.50417 -11.55861 -33.0858 C -10.45612 -34.66745 -7.99905 -37.28976 -6.11232 -38.8991 C -4.22557 -40.50842 -.54866 -43.11816 2.03983 -44.6848 C 4.62833 -46.25142 9.36642 -48.7347 12.5438 -50.19025 C 15.72118 -51.64581 21.31271 -53.89456 24.94022 -55.17548 C 28.56773 -56.4564 38.68842 -59.42224 38.68842 -59.42224 "/>
<path transform="matrix(1,0,0,-1,41.176,80.066)" stroke-width="1" stroke-linecap="butt" stroke-miterlimit="10" stroke-linejoin="miter" fill="none" stroke="#d0e8ff" d="M 68.71309 -22.4195 L 57.83963 -12.1239 L 58.50438 -3.40593 L 73.00232 -17.13338 Z "/>
<path transform="matrix(1,0,0,-1,41.176,80.066)" stroke-width="1" stroke-linecap="butt" stroke-miterlimit="10" stroke-linejoin="miter" fill="none" stroke="#75baff" d="M 57.83963 -12.1239 L 46.87953 -2.97221 L 43.89093 8.79631 L 58.50438 -3.40593 Z "/>
<path transform="matrix(1,0,0,-1,41.176,80.066)" stroke-width="1" stroke-linecap="butt" stroke-miterlimit="10" stroke-linejoin="miter" fill="none" stroke="#2090ff" d="M 46.87953 -2.97221 L 36.31168 4.63654 L 29.80045 18.94133 L 43.89093 8.79631 Z "/>
<path transform="matrix(1,0,0,-1,41.176,80.066)" stroke-width="1" stroke-linecap="butt" stroke-miterlimit="10" stroke-linejoin="miter" fill="none" stroke="#deeeff" d="M 64.42384 -27.7056 L 57.1749 -20.84187 L 57.83963 -12.1239 L 68.71309 -22.4195 Z "/>
<path transform="matrix(1,0,0,-1,41.176,80.066)" stroke-width="1" stroke-linecap="butt" stroke-miterlimit="10" stroke-linejoin="miter" fill="none" stroke="#9dceff" d="M 57.1749 -20.84187 L 49.86813 -14.74072 L 46.87953 -2.97221 L 57.83963 -12.1239 Z "/>
<path transform="matrix(1,0,0,-1,41.176,80.066)" stroke-width="1" stroke-linecap="butt" stroke-miterlimit="10" stroke-linejoin="miter" fill="none" stroke="#2b6aff" d="M 36.31168 4.63654 L 26.59744 10.36948 L 16.84814 26.58524 L 29.80045 18.94133 Z "/>
<path transform="matrix(1,0,0,-1,41.176,80.066)" stroke-width="1" stroke-linecap="butt" stroke-miterlimit="10" stroke-linejoin="miter" fill="none" stroke="#60b0ff" d="M 49.86813 -14.74072 L 42.82292 -9.66823 L 36.31168 4.63654 L 46.87953 -2.97221 Z "/>
<path transform="matrix(1,0,0,-1,41.176,80.066)" stroke-width="1" stroke-linecap="butt" stroke-miterlimit="10" stroke-linejoin="miter" fill="none" stroke="#ebf5ff" d="M 60.13461 -32.9917 L 56.51013 -29.55984 L 57.1749 -20.84187 L 64.42384 -27.7056 Z "/>
<path transform="matrix(1,0,0,-1,41.176,80.066)" stroke-width="1" stroke-linecap="butt" stroke-miterlimit="10" stroke-linejoin="miter" fill="none" stroke="#2a95ff" d="M 42.82292 -9.66823 L 36.34676 -5.84627 L 26.59744 10.36948 L 36.31168 4.63654 Z "/>
<path transform="matrix(1,0,0,-1,41.176,80.066)" stroke-width="1" stroke-linecap="butt" stroke-miterlimit="10" stroke-linejoin="miter" fill="none" stroke="#6a4bff" d="M 26.59744 10.36948 L 18.16011 13.97781 L 5.59833 31.39636 L 16.84814 26.58524 Z "/>
<path transform="matrix(1,0,0,-1,41.176,80.066)" stroke-width="1" stroke-linecap="butt" stroke-miterlimit="10" stroke-linejoin="miter" fill="none" stroke="#c4e2ff" d="M 56.51013 -29.55984 L 52.85675 -26.50928 L 49.86813 -14.74072 L 57.1749 -20.84187 Z "/>
<path transform="matrix(1,0,0,-1,41.176,80.066)" stroke-width="1" stroke-linecap="butt" stroke-miterlimit="10" stroke-linejoin="miter" fill="none" stroke="#9fcfff" d="M 52.85675 -26.50928 L 49.33414 -23.97302 L 42.82292 -9.66823 L 49.86813 -14.74072 Z "/>
<path transform="matrix(1,0,0,-1,41.176,80.066)" stroke-width="1" stroke-linecap="butt" stroke-miterlimit="10" stroke-linejoin="miter" fill="none" stroke="#037fff" d="M 36.34676 -5.84627 L 30.72185 -3.44072 L 18.16011 13.97781 L 26.59744 10.36948 Z "/>
<path transform="matrix(1,0,0,-1,41.176,80.066)" stroke-width="1" stroke-linecap="butt" stroke-miterlimit="10" stroke-linejoin="miter" fill="none" stroke="#7fbfff" d="M 49.33414 -23.97302 L 46.09607 -22.06204 L 36.34676 -5.84627 L 42.82292 -9.66823 Z "/>
<path transform="matrix(1,0,0,-1,41.176,80.066)" stroke-width="1" stroke-linecap="butt" stroke-miterlimit="10" stroke-linejoin="miter" fill="none" stroke="#9833ff" d="M 18.16011 13.97781 L 11.37033 15.30185 L -3.45465 33.16174 L 5.59833 31.39636 Z "/>
<path transform="matrix(1,0,0,-1,41.176,80.066)" stroke-width="1" stroke-linecap="butt" stroke-miterlimit="10" stroke-linejoin="miter" fill="none" stroke="#64b2ff" d="M 46.09607 -22.06204 L 43.28362 -20.85927 L 30.72185 -3.44072 L 36.34676 -5.84627 Z "/>
<path transform="matrix(1,0,0,-1,41.176,80.066)" stroke-width="1" stroke-linecap="butt" stroke-miterlimit="10" stroke-linejoin="miter" fill="none" stroke="#f8fcff" d="M 55.84537 -38.27782 L 55.84537 -38.27782 L 56.51013 -29.55984 L 60.13461 -32.9917 Z "/>
<path transform="matrix(1,0,0,-1,41.176,80.066)" stroke-width="1" stroke-linecap="butt" stroke-miterlimit="10" stroke-linejoin="miter" fill="none" stroke="#ebf5ff" d="M 55.84537 -38.27782 L 55.84537 -38.27782 L 52.85675 -26.50928 L 56.51013 -29.55984 Z "/>
<path transform="matrix(1,0,0,-1,41.176,80.066)" stroke-width="1" stroke-linecap="butt" stroke-miterlimit="10" stroke-linejoin="miter" fill="none" stroke="#246eff" d="M 30.72185 -3.44072 L 26.19536 -2.55801 L 11.37033 15.30185 L 18.16011 13.97781 Z "/>
<path transform="matrix(1,0,0,-1,41.176,80.066)" stroke-width="1" stroke-linecap="butt" stroke-miterlimit="10" stroke-linejoin="miter" fill="none" stroke="#dfefff" d="M 55.84537 -38.27782 L 55.84537 -38.27782 L 49.33414 -23.97302 L 52.85675 -26.50928 Z "/>
<path transform="matrix(1,0,0,-1,41.176,80.066)" stroke-width="1" stroke-linecap="butt" stroke-miterlimit="10" stroke-linejoin="miter" fill="none" stroke="#d4eaff" d="M 55.84537 -38.27782 L 55.84537 -38.27782 L 46.09607 -22.06204 L 49.33414 -23.97302 Z "/>
<path transform="matrix(1,0,0,-1,41.176,80.066)" stroke-width="1" stroke-linecap="butt" stroke-miterlimit="10" stroke-linejoin="miter" fill="none" stroke="#50a8ff" d="M 43.28362 -20.85927 L 41.02036 -20.41792 L 26.19536 -2.55801 L 30.72185 -3.44072 Z "/>
<path transform="matrix(1,0,0,-1,41.176,80.066)" stroke-width="1" stroke-linecap="butt" stroke-miterlimit="10" stroke-linejoin="miter" fill="none" stroke="#cbe5ff" d="M 55.84537 -38.27782 L 55.84537 -38.27782 L 43.28362 -20.85927 L 46.09607 -22.06204 Z "/>
<path transform="matrix(1,0,0,-1,41.176,80.066)" stroke-width="1" stroke-linecap="butt" stroke-miterlimit="10" stroke-linejoin="miter" fill="none" stroke="#c5e2ff" d="M 55.84537 -38.27782 L 55.84537 -38.27782 L 41.02036 -20.41792 L 43.28362 -20.85927 Z "/>
<path transform="matrix(1,0,0,-1,41.176,80.066)" stroke-width="1" stroke-linecap="butt" stroke-miterlimit="10" stroke-linejoin="miter" fill="none" stroke="#c1e0ff" d="M 55.84537 -38.27782 L 55.84537 -38.27782 L 39.40538 -20.75761 L 41.02036 -20.41792 Z "/>
<path transform="matrix(1,0,0,-1,41.176,80.066)" stroke-width="1" stroke-linecap="butt" stroke-miterlimit="10" stroke-linejoin="miter" fill="none" stroke="#44a2ff" d="M 41.02036 -20.41792 L 39.40538 -20.75761 L 22.96536 -3.23743 L 26.19536 -2.55801 Z "/>
<path transform="matrix(1,0,0,-1,41.176,80.066)" stroke-width="1" stroke-linecap="butt" stroke-miterlimit="10" stroke-linejoin="miter" fill="none" stroke="#3964ff" d="M 26.19536 -2.55801 L 22.96536 -3.23743 L 6.52538 14.28273 L 11.37033 15.30185 Z "/>
<path transform="matrix(1,0,0,-1,41.176,80.066)" stroke-width="1" stroke-linecap="butt" stroke-miterlimit="10" stroke-linejoin="miter" fill="none" stroke="#bfdfff" d="M 55.84537 -38.27782 L 55.84537 -38.27782 L 38.50874 -21.86263 L 39.40538 -20.75761 Z "/>
<path transform="matrix(1,0,0,-1,41.176,80.066)" stroke-width="1" stroke-linecap="butt" stroke-miterlimit="10" stroke-linejoin="miter" fill="none" stroke="#b525ff" d="M 11.37033 15.30185 L 6.52538 14.28273 L -9.91461 31.80293 L -3.45465 33.16174 Z "/>
<path transform="matrix(1,0,0,-1,41.176,80.066)" stroke-width="1" stroke-linecap="butt" stroke-miterlimit="10" stroke-linejoin="miter" fill="none" stroke="#c1e0ff" d="M 55.84537 -38.27782 L 55.84537 -38.27782 L 38.36945 -23.68494 L 38.50874 -21.86263 Z "/>
<path transform="matrix(1,0,0,-1,41.176,80.066)" stroke-width="1" stroke-linecap="butt" stroke-miterlimit="10" stroke-linejoin="miter" fill="none" stroke="#c5e2ff" d="M 55.84537 -38.27782 L 55.84537 -38.27782 L 38.99437 -26.14537 L 38.36945 -23.68494 Z "/>
<path transform="matrix(1,0,0,-1,41.176,80.066)" stroke-width="1" stroke-linecap="butt" stroke-miterlimit="10" stroke-linejoin="miter" fill="none" stroke="#40a0ff" d="M 39.40538 -20.75761 L 38.50874 -21.86263 L 21.17212 -5.44743 L 22.96536 -3.23743 Z "/>
<path transform="matrix(1,0,0,-1,41.176,80.066)" stroke-width="1" stroke-linecap="butt" stroke-miterlimit="10" stroke-linejoin="miter" fill="none" stroke="#cbe5ff" d="M 55.84537 -38.27782 L 55.84537 -38.27782 L 40.35594 -29.13625 L 38.99437 -26.14537 Z "/>
<path transform="matrix(1,0,0,-1,41.176,80.066)" stroke-width="1" stroke-linecap="butt" stroke-miterlimit="10" stroke-linejoin="miter" fill="none" stroke="#d4eaff" d="M 55.84537 -38.27782 L 55.84537 -38.27782 L 42.394 -32.52615 L 40.35594 -29.13625 Z "/>
<path transform="matrix(1,0,0,-1,41.176,80.066)" stroke-width="1" stroke-linecap="butt" stroke-miterlimit="10" stroke-linejoin="miter" fill="none" stroke="#dfefff" d="M 55.84537 -38.27782 L 55.84537 -38.27782 L 45.01997 -36.16742 L 42.394 -32.52615 Z "/>
<path transform="matrix(1,0,0,-1,41.176,80.066)" stroke-width="1" stroke-linecap="butt" stroke-miterlimit="10" stroke-linejoin="miter" fill="none" stroke="#f8fcff" d="M 55.84537 -38.27782 L 55.84537 -38.27782 L 51.55614 -43.56392 L 48.1191 -39.90106 Z "/>
<path transform="matrix(1,0,0,-1,41.176,80.066)" stroke-width="1" stroke-linecap="butt" stroke-miterlimit="10" stroke-linejoin="miter" fill="none" stroke="#ebf5ff" d="M 55.84537 -38.27782 L 55.84537 -38.27782 L 48.1191 -39.90106 L 45.01997 -36.16742 Z "/>
<path transform="matrix(1,0,0,-1,41.176,80.066)" stroke-width="1" stroke-linecap="butt" stroke-miterlimit="10" stroke-linejoin="miter" fill="none" stroke="#4060ff" d="M 22.96536 -3.23743 L 21.17212 -5.44743 L 3.8355 10.96771 L 6.52538 14.28273 Z "/>
<path transform="matrix(1,0,0,-1,41.176,80.066)" stroke-width="1" stroke-linecap="butt" stroke-miterlimit="10" stroke-linejoin="miter" fill="none" stroke="#44a2ff" d="M 38.50874 -21.86263 L 38.36945 -23.68494 L 20.8935 -9.09209 L 21.17212 -5.44743 Z "/>
<path transform="matrix(1,0,0,-1,41.176,80.066)" stroke-width="1" stroke-linecap="butt" stroke-miterlimit="10" stroke-linejoin="miter" fill="none" stroke="#bf20ff" d="M 6.52538 14.28273 L 3.8355 10.96771 L -13.50111 27.3829 L -9.91461 31.80293 Z "/>
<path transform="matrix(1,0,0,-1,41.176,80.066)" stroke-width="1" stroke-linecap="butt" stroke-miterlimit="10" stroke-linejoin="miter" fill="none" stroke="#50a8ff" d="M 38.36945 -23.68494 L 38.99437 -26.14537 L 22.14337 -14.01294 L 20.8935 -9.09209 Z "/>
<path transform="matrix(1,0,0,-1,41.176,80.066)" stroke-width="1" stroke-linecap="butt" stroke-miterlimit="10" stroke-linejoin="miter" fill="none" stroke="#3964ff" d="M 21.17212 -5.44743 L 20.8935 -9.09209 L 3.41757 5.50078 L 3.8355 10.96771 Z "/>
<path transform="matrix(1,0,0,-1,41.176,80.066)" stroke-width="1" stroke-linecap="butt" stroke-miterlimit="10" stroke-linejoin="miter" fill="none" stroke="#64b2ff" d="M 38.99437 -26.14537 L 40.35594 -29.13625 L 24.8665 -19.99464 L 22.14337 -14.01294 Z "/>
<path transform="matrix(1,0,0,-1,41.176,80.066)" stroke-width="1" stroke-linecap="butt" stroke-miterlimit="10" stroke-linejoin="miter" fill="none" stroke="#7fbfff" d="M 40.35594 -29.13625 L 42.394 -32.52615 L 28.94258 -26.7745 L 24.8665 -19.99464 Z "/>
<path transform="matrix(1,0,0,-1,41.176,80.066)" stroke-width="1" stroke-linecap="butt" stroke-miterlimit="10" stroke-linejoin="miter" fill="none" stroke="#9fcfff" d="M 42.394 -32.52615 L 45.01997 -36.16742 L 34.19458 -34.05702 L 28.94258 -26.7745 Z "/>
<path transform="matrix(1,0,0,-1,41.176,80.066)" stroke-width="1" stroke-linecap="butt" stroke-miterlimit="10" stroke-linejoin="miter" fill="none" stroke="#ebf5ff" d="M 48.1191 -39.90106 L 51.55614 -43.56392 L 47.26689 -48.85004 L 40.3928 -41.5243 Z "/>
<path transform="matrix(1,0,0,-1,41.176,80.066)" stroke-width="1" stroke-linecap="butt" stroke-miterlimit="10" stroke-linejoin="miter" fill="none" stroke="#c4e2ff" d="M 45.01997 -36.16742 L 48.1191 -39.90106 L 40.3928 -41.5243 L 34.19458 -34.05702 Z "/>
<path transform="matrix(1,0,0,-1,41.176,80.066)" stroke-width="1" stroke-linecap="butt" stroke-miterlimit="10" stroke-linejoin="miter" fill="none" stroke="#246eff" d="M 20.8935 -9.09209 L 22.14337 -14.01294 L 5.29239 -1.8805 L 3.41757 5.50078 Z "/>
<path transform="matrix(1,0,0,-1,41.176,80.066)" stroke-width="1" stroke-linecap="butt" stroke-miterlimit="10" stroke-linejoin="miter" fill="none" stroke="#b525ff" d="M 3.8355 10.96771 L 3.41757 5.50078 L -14.05832 20.09364 L -13.50111 27.3829 Z "/>
<path transform="matrix(1,0,0,-1,41.176,80.066)" stroke-width="1" stroke-linecap="butt" stroke-miterlimit="10" stroke-linejoin="miter" fill="none" stroke="#037fff" d="M 22.14337 -14.01294 L 24.8665 -19.99464 L 9.37709 -10.85306 L 5.29239 -1.8805 Z "/>
<path transform="matrix(1,0,0,-1,41.176,80.066)" stroke-width="1" stroke-linecap="butt" stroke-miterlimit="10" stroke-linejoin="miter" fill="none" stroke="#9833ff" d="M 3.41757 5.50078 L 5.29239 -1.8805 L -11.55861 10.25194 L -14.05832 20.09364 Z "/>
<path transform="matrix(1,0,0,-1,41.176,80.066)" stroke-width="1" stroke-linecap="butt" stroke-miterlimit="10" stroke-linejoin="miter" fill="none" stroke="#2a95ff" d="M 24.8665 -19.99464 L 28.94258 -26.7745 L 15.49123 -21.02286 L 9.37709 -10.85306 Z "/>
<path transform="matrix(1,0,0,-1,41.176,80.066)" stroke-width="1" stroke-linecap="butt" stroke-miterlimit="10" stroke-linejoin="miter" fill="none" stroke="#60b0ff" d="M 28.94258 -26.7745 L 34.19458 -34.05702 L 23.3692 -31.94664 L 15.49123 -21.02286 Z "/>
<path transform="matrix(1,0,0,-1,41.176,80.066)" stroke-width="1" stroke-linecap="butt" stroke-miterlimit="10" stroke-linejoin="miter" fill="none" stroke="#deeeff" d="M 40.3928 -41.5243 L 47.26689 -48.85004 L 42.97766 -54.13614 L 32.6665 -43.14754 Z "/>
<path transform="matrix(1,0,0,-1,41.176,80.066)" stroke-width="1" stroke-linecap="butt" stroke-miterlimit="10" stroke-linejoin="miter" fill="none" stroke="#9dceff" d="M 34.19458 -34.05702 L 40.3928 -41.5243 L 32.6665 -43.14754 L 23.3692 -31.94664 Z "/>
<path transform="matrix(1,0,0,-1,41.176,80.066)" stroke-width="1" stroke-linecap="butt" stroke-miterlimit="10" stroke-linejoin="miter" fill="none" stroke="#6a4bff" d="M 5.29239 -1.8805 L 9.37709 -10.85306 L -6.11232 -1.71147 L -11.55861 10.25194 Z "/>
<path transform="matrix(1,0,0,-1,41.176,80.066)" stroke-width="1" stroke-linecap="butt" stroke-miterlimit="10" stroke-linejoin="miter" fill="none" stroke="#2b6aff" d="M 9.37709 -10.85306 L 15.49123 -21.02286 L 2.03983 -15.27118 L -6.11232 -1.71147 Z "/>
<path transform="matrix(1,0,0,-1,41.176,80.066)" stroke-width="1" stroke-linecap="butt" stroke-miterlimit="10" stroke-linejoin="miter" fill="none" stroke="#2090ff" d="M 15.49123 -21.02286 L 23.3692 -31.94664 L 12.5438 -29.83623 L 2.03983 -15.27118 Z "/>
<path transform="matrix(1,0,0,-1,41.176,80.066)" stroke-width="1" stroke-linecap="butt" stroke-miterlimit="10" stroke-linejoin="miter" fill="none" stroke="#d0e8ff" d="M 32.6665 -43.14754 L 42.97766 -54.13614 L 38.68842 -59.42224 L 24.94022 -44.77078 Z "/>
<path transform="matrix(1,0,0,-1,41.176,80.066)" stroke-width="1" stroke-linecap="butt" stroke-miterlimit="10" stroke-linejoin="miter" fill="none" stroke="#75baff" d="M 23.3692 -31.94664 L 32.6665 -43.14754 L 24.94022 -44.77078 L 12.5438 -29.83623 Z "/>
<path transform="matrix(1,0,0,-1,41.176,80.066)" stroke-width="1.19553" stroke-linecap="butt" stroke-miterlimit="10" stroke-linejoin="miter" fill="none" stroke="#000080" d="M 73.00232 -17.13338 C 73.00232 -17.13338 62.54353 -7.00362 58.50438 -3.40593 C 54.46523 .19174 47.87355 5.69568 43.89093 8.79631 C 39.90831 11.89696 33.55257 16.47314 29.80045 18.94133 C 26.04832 21.4095 20.20615 24.85715 16.84814 26.58524 C 13.49016 28.31334 8.4153 30.4839 5.59833 31.39636 C 2.78136 32.30884 -1.30228 33.10535 -3.45465 33.16174 C -5.60704 33.21814 -8.5207 32.60472 -9.91461 31.80293 C -11.30853 31.00113 -12.9262 29.00754 -13.50111 27.3829 C -14.07603 25.75827 -14.32784 22.47054 -14.05832 20.09364 C -13.7888 17.71675 -12.6611 13.27736 -11.55861 10.25194 C -10.45612 7.22652 -7.99905 1.82979 -6.11232 -1.71147 C -4.22557 -5.25276 -.54866 -11.36893 2.03983 -15.27118 C 4.62833 -19.17345 9.36642 -25.74323 12.5438 -29.83623 C 15.72118 -33.92924 21.31271 -40.66579 24.94022 -44.77078 C 28.56773 -48.87576 38.68842 -59.42224 38.68842 -59.42224 "/>
<path transform="matrix(1,0,0,-1,41.176,80.066)" stroke-width="1" stroke-linecap="butt" stroke-miterlimit="10" stroke-linejoin="miter" fill="none" stroke="#000000" d="M -2.06685 -48.50053 L 2.48119 -34.052 "/>
<path transform="matrix(.30064,-.95515,-.95515,-.30064,43.65719,114.118)" d="M 1.99252 0 L -1.19551 1.59401 L 0 0 L -1.19551 -1.59401 "/>
<symbol id="font_1_2">
<path d="M .201 .116000007 C .19100002 .082 .15800002 .028 .107 .028 C .10400001 .028 .07400001 .028 .053000004 .042000005 C .094000007 .055000005 .09700001 .091 .09700001 .097 C .09700001 .119 .080000009 .134 .057000005 .134 C .029000007 .134 0 .11 0 .073 C 0 .023000002 .056 0 .10500001 0 C .15100003 0 .192 .029000003 .21700001 .071 C .241 .018000002 .296 0 .336 0 C .451 0 .512 .125 .512 .15300001 C .512 .16600001 .49900005 .16600001 .49600003 .16600001 C .48200003 .16600001 .48100005 .16100002 .47700004 .14900002 C .456 .08 .39600004 .028 .34 .028 C .3 .028 .279 .055000005 .279 .093 C .279 .119 .303 .21000001 .331 .321 C .351 .398 .39600004 .423 .42900003 .423 C .43100003 .423 .46200005 .423 .483 .409 C .451 .4 .439 .372 .439 .354 C .439 .33200003 .456 .317 .479 .317 C .50200006 .317 .535 .336 .535 .37800003 C .535 .43400003 .47100006 .451 .43100003 .451 C .381 .451 .34100003 .418 .319 .38 C .301 .421 .255 .451 .199 .451 C .087000008 .451 .023000002 .328 .023000002 .298 C .023000002 .285 .037 .285 .040000008 .285 C .053000004 .285 .054000006 .289 .059000009 .30200003 C .084 .38 .14700002 .423 .19600001 .423 C .229 .423 .256 .405 .256 .357 C .256 .337 .24400002 .287 .23500002 .25300003 L .201 .116000007 Z "/>
</symbol>
<use xlink:href="#font_1_2" transform="matrix(6.7362029,1.8049589,1.8049589,-6.7362029,16.968287,133.37702)"/>
<symbol id="font_2_1">
<path d="M .49800004 .193 L .45600004 .193 C .453 .17400001 .44300003 .112 .427 .102000009 C .41900004 .096 .33500005 .096 .32 .096 L .124 .096 C .19000001 .14500001 .264 .201 .324 .24100001 C .41399998 .303 .49800004 .36100004 .49800004 .467 C .49800004 .595 .37700004 .666 .23400001 .666 C .09900001 .666 0 .588 0 .49 C 0 .43800003 .044 .42900003 .058 .42900003 C .08500001 .42900003 .117 .44700004 .117 .48800005 C .117 .52400007 .091000009 .544 .060000004 .54700008 C .088 .592 .14600002 .62200006 .21300002 .62200006 C .31 .62200006 .39100004 .564 .39100004 .46600003 C .39100004 .38200004 .333 .31800003 .25599999 .25300003 L .012000002 .046000005 C .0019999967 .037 .001000002 .037 0 .030000002 L 0 0 L .46500004 0 L .49800004 .193 Z "/>
</symbol>
<use xlink:href="#font_2_1" transform="matrix(4.811587,1.28926,1.28926,-4.811587,22.37209,131.1241)"/>
<symbol id="font_3_1">
<path d="M .39300005 .344 L .69900009 .344 C .7120001 .344 .73600009 .344 .73600009 .368 C .73600009 .393 .71300008 .393 .69900009 .393 L .39300005 .393 L .39300005 .70000007 C .39300005 .71300008 .39300005 .73700007 .36900003 .73700007 C .34400005 .73700007 .34400005 .71400007 .34400005 .70000007 L .34400005 .393 L .037000009 .393 C .024000004 .393 0 .393 0 .36900003 C 0 .344 .023000002 .344 .037000009 .344 L .34400005 .344 L .34400005 .037000009 C .34400005 .024000004 .34400005 0 .36800004 0 C .39300005 0 .39300005 .023000002 .39300005 .037000009 L .39300005 .344 Z "/>
</symbol>
<use xlink:href="#font_3_1" transform="matrix(6.7362029,1.8049589,1.8049589,-6.7362029,26.79335,136.78937)"/>
<symbol id="font_1_3">
<path d="M .50900009 .58100005 C .513 .595 .513 .597 .513 .60300007 C .513 .623 .49700005 .63500007 .48000003 .63500007 C .46900005 .63500007 .45000003 .63000008 .43900005 .611 C .43600003 .605 .42800004 .573 .42300005 .55300006 L .40200005 .47000004 C .39600004 .44600005 .36500005 .32000003 .36200003 .30900003 C .36100004 .30900003 .31700004 .22200002 .23900001 .22200002 C .171 .22200002 .171 .287 .171 .305 C .171 .35900004 .194 .42200003 .22400002 .499 C .23600002 .531 .24100001 .54300007 .24100001 .56 C .24100001 .60800006 .2 .64500007 .146 .64500007 C .045000007 .64500007 0 .509 0 .49200005 C 0 .47900004 .014000002 .47900004 .017 .47900004 C .031 .47900004 .032 .48400004 .035 .495 C .060000007 .578 .103 .61700007 .143 .61700007 C .16000001 .61700007 .168 .606 .168 .582 C .168 .559 .15900001 .537 .154 .52400007 C .106000009 .402 .096 .365 .096 .321 C .096 .30400003 .096 .25700004 .135 .22500001 C .16600001 .19900002 .20800002 .194 .235 .194 C .27500005 .194 .31100003 .209 .34400005 .23900001 C .33100004 .18400002 .32000003 .142 .27800004 .09200001 C .25100003 .061000006 .21100001 .027999998 .158 .027999998 C .15100001 .027999998 .104 .027999998 .083000008 .061000006 C .13700001 .067 .13700001 .11500001 .13700001 .116000007 C .13700001 .148 .107999999 .15400002 .098000008 .15400002 C .073 .15400002 .040000004 .134 .040000004 .08800001 C .040000004 .037 .088 0 .15900001 0 C .26000003 0 .38300003 .07800001 .41400004 .20300001 L .50900009 .58100005 Z "/>
</symbol>
<use xlink:href="#font_1_3" transform="matrix(6.7362029,1.8049589,1.8049589,-6.7362029,34.143018,139.37961)"/>
<use xlink:href="#font_2_1" transform="matrix(4.811587,1.28926,1.28926,-4.811587,39.684453,135.76293)"/>
<symbol id="font_3_5">
<path d="M .698 .22000003 C .71300008 .22000003 .73600009 .22000003 .73600009 .24500004 C .73600009 .26900003 .7120001 .26900003 .69900009 .26900003 L .037000009 .26900003 C .024000004 .26900003 0 .26900003 0 .24500004 C 0 .22000003 .023000002 .22000003 .038000004 .22000003 L .698 .22000003 M .69900009 0 C .7120001 0 .73600009 0 .73600009 .023999997 C .73600009 .049000004 .71300008 .049000004 .698 .049000004 L .038000004 .049000004 C .023000002 .049000004 0 .049000004 0 .023999997 C 0 0 .024000004 0 .037000009 0 L .69900009 0 Z "/>
</symbol>
<symbol id="font_3_3">
<path d="M .22600001 .63600006 C .22600001 .66300007 .224 .66400006 .19600001 .66400006 C .132 .601 .041 .6 0 .6 L 0 .564 C .023999997 .564 .09000001 .564 .14500001 .592 L .14500001 .082 C .14500001 .049000004 .14500001 .036000004 .04500001 .036000004 L .0069999995 .036000004 L .0069999995 0 C .024999999 .001 .148 .004 .185 .004 C .21600002 .004 .34200005 .001 .36400003 0 L .36400003 .036000004 L .32600004 .036000004 C .22600001 .036000004 .22600001 .049000004 .22600001 .082 L .22600001 .63600006 Z "/>
</symbol>
<use xlink:href="#font_3_5" transform="matrix(6.7362029,1.8049589,1.8049589,-6.7362029,44.96661,139.96942)"/>
<use xlink:href="#font_3_3" transform="matrix(6.7362029,1.8049589,1.8049589,-6.7362029,53.11686,142.9908)"/>
<path transform="matrix(1,0,0,-1,41.176,80.066)" stroke-width="1" stroke-linecap="butt" stroke-miterlimit="10" stroke-linejoin="miter" fill="none" stroke="#000000" d="M 28.67519 29.05356 L 28.67519 1.02095 "/>
<path transform="matrix(0,1,1,0,69.85119,79.04505)" d="M 1.99252 0 L -1.19551 1.59401 L 0 0 L -1.19551 -1.59401 "/>
<symbol id="font_1_4">
<path d="M .10700001 .098000008 C .133 .124000009 .15100001 .143 .23600002 .21100001 C .25700004 .22800002 .33200003 .28800003 .361 .316 C .422 .37600003 .46000005 .42700003 .46000005 .439 C .46000005 .451 .44700004 .451 .44300003 .451 C .43400003 .451 .431 .449 .426 .441 C .39500005 .395 .374 .38 .35000003 .38 C .338 .38 .323 .381 .29299999 .41 C .259 .444 .237 .451 .214 .451 C .134 .451 .08 .364 .08 .334 C .08 .32500003 .09 .322 .097 .322 C .109 .322 .111 .32500003 .11500001 .336 C .13000001 .37100003 .186 .373 .202 .373 C .22500001 .373 .251 .367 .265 .364 C .32 .352 .32700003 .352 .352 .352 C .32600004 .32500003 .30800004 .307 .21300002 .23100002 C .135 .16900002 .10800001 .14400001 .089 .124000009 C .029 .065000008 0 .021000002 0 .012000001 C 0 0 .012999997 0 .016999998 0 C .027000003 0 .029 .0020000004 .034 .010000001 C .061000006 .048000006 .09200001 .071 .126 .071 C .13800001 .071 .15300001 .07 .18 .045 C .21100001 .015000001 .23100002 0 .263 0 C .37 0 .43700005 .12100001 .43700005 .15500002 C .43700005 .16700001 .426 .16800002 .42000003 .16800002 C .408 .16800002 .40600003 .16300002 .402 .15200001 C .38300003 .102000009 .324 .078 .27500005 .078 C .25200004 .078 .22700002 .083000008 .202 .089 C .156 .099 .148 .099 .13000001 .099 C .128 .099 .113000009 .099 .10700001 .098000008 Z "/>
</symbol>
<use xlink:href="#font_1_4" transform="matrix(6.9738,0,0,-6.9738,57.645406,46.132734)"/>
<use xlink:href="#font_3_5" transform="matrix(6.9738,0,0,-6.9738,64.06817,45.254037)"/>
<symbol id="font_4_1">
<path d="M .63600006 0 C .65200009 0 .67600008 0 .67600008 .023999989 C .67600008 .048999996 .65300008 .048999996 .63600006 .048999996 L .04 .048999996 C .023999997 .048999996 0 .048999996 0 .025000006 C 0 0 .02300001 0 .04 0 L .63600006 0 Z "/>
</symbol>
<use xlink:href="#font_4_1" transform="matrix(6.9738,0,0,-6.9738,72.71718,44.486917)"/>
<use xlink:href="#font_1_3" transform="matrix(6.9738,0,0,-6.9738,78.51877,47.485654)"/>
</g>
<path transform="matrix(1,0,0,-1,41.176,80.066)" stroke-width="1" stroke-linecap="butt" stroke-miterlimit="10" stroke-linejoin="miter" fill="none" stroke="#808080" d="M 70.94876 -16.58305 L 75.05586 -17.6837 M 36.63486 -58.87192 L 40.74196 -59.97256 "/>
<path transform="matrix(1,0,0,-1,41.176,80.066)" stroke-width="1" stroke-linecap="butt" stroke-miterlimit="10" stroke-linejoin="miter" fill="none" stroke="#808080" d="M -10.74048 -18.42401 L -13.4197 -21.7259 M 23.22224 -27.52544 L 20.54303 -30.82733 "/>
<path transform="matrix(1,0,0,-1,41.176,80.066)" stroke-width="1" stroke-linecap="butt" stroke-miterlimit="10" stroke-linejoin="miter" fill="none" stroke="#000000" d="M 74.71802 -15.01894 L 34.79765 -64.21729 "/>
<path transform="matrix(-.63052,.77705,.77705,.63052,75.97366,144.2833)" d="M 1.99252 0 L -1.19551 1.59401 L 0 0 L -1.19551 -1.59401 "/>
<path transform="matrix(1,0,0,-1,41.176,80.066)" stroke-width="1" stroke-linecap="butt" stroke-miterlimit="10" stroke-linejoin="miter" fill="none" stroke="#000000" d="M -18.87263 -18.25468 L 67.50206 -41.40163 "/>
<path transform="matrix(.96782,.25935,.25935,-.96782,108.678058,121.467639)" d="M 1.99252 0 L -1.19551 1.59401 L 0 0 L -1.19551 -1.59401 "/>
<use xlink:href="#font_4_1" transform="matrix(6.9738,0,0,-6.9738,112.79918,107.68492)"/>
<use xlink:href="#font_3_3" transform="matrix(6.9738,0,0,-6.9738,119.03315,109.261)"/>
<use xlink:href="#font_3_3" transform="matrix(6.9738,0,0,-6.9738,80.348148,149.263)"/>
<use xlink:href="#font_4_1" transform="matrix(6.9738,0,0,-6.9738,21.217169,106.02392)"/>
<use xlink:href="#font_3_3" transform="matrix(6.9738,0,0,-6.9738,27.450142,107.6)"/>
<use xlink:href="#font_4_1" transform="matrix(6.9738,0,0,-6.9738,51.528169,115.84592)"/>
<symbol id="font_3_2">
<path d="M .46400006 .33900003 C .46400006 .44900004 .45100004 .528 .40500004 .598 C .374 .644 .31200005 .684 .23200001 .684 C 0 .684 0 .41100005 0 .33900003 C 0 .26700003 0 0 .23200001 0 C .46400006 0 .46400006 .26700003 .46400006 .33900003 M .23200001 .028 C .186 .028 .125 .055 .105000007 .13700001 C .091000009 .19600001 .091000009 .27800004 .091000009 .35200004 C .091000009 .42500005 .091000009 .50100007 .106000009 .556 C .127 .635 .19100002 .656 .23200001 .656 C .286 .656 .338 .623 .356 .565 C .37200005 .51100006 .37300004 .43900005 .37300004 .35200004 C .37300004 .27800004 .37300004 .20400001 .36 .141 C .34000004 .050000006 .272 .028 .23200001 .028 Z "/>
</symbol>
<use xlink:href="#font_3_2" transform="matrix(6.9738,0,0,-6.9738,57.364637,117.56147)"/>
<symbol id="font_1_1">
<path d="M .11500001 .057000005 C .11500001 .093 .08500001 .115 .058 .115 C .025000006 .115 0 .08800001 0 .058000003 C 0 .022000002 .030000002 0 .05700001 0 C .09 0 .11500001 .027 .11500001 .057000005 Z "/>
</symbol>
<use xlink:href="#font_1_1" transform="matrix(6.9738,0,0,-6.9738,61.754068,117.422)"/>
<symbol id="font_3_4">
<path d="M .092 .578 C .143 .565 .17300001 .565 .18900001 .565 C .321 .565 .39900003 .65500006 .39900003 .67 C .39900003 .681 .39200003 .684 .38700003 .684 C .38500003 .684 .38300003 .684 .37900005 .681 C .35500003 .672 .30200003 .652 .22800002 .652 C .20000002 .652 .14700002 .654 .08200001 .679 C .072000008 .684 .07 .684 .069 .684 C .056 .684 .056 .67300006 .056 .657 L .056 .36200003 C .056 .34500004 .056 .33300004 .072000008 .33300004 C .08100001 .33300004 .08200001 .33500005 .092 .34700004 C .13500002 .40200005 .19600001 .41000004 .231 .41000004 C .291 .41000004 .31800003 .36200003 .323 .35400004 C .34100003 .32100005 .34700004 .28300003 .34700004 .22500001 C .34700004 .19500001 .34700004 .136 .31700004 .09200001 C .29200004 .056 .24900002 .032 .20000002 .032 C .13500002 .032 .06800001 .068 .043000007 .134 C .08100001 .13100001 .1 .156 .1 .183 C .1 .22600001 .063 .23400001 .050000006 .23400001 C .048000009 .23400001 0 .23400001 0 .18 C 0 .09 .08200001 0 .20200002 0 C .33 0 .442 .095000009 .442 .221 C .442 .33400003 .35600005 .43800003 .23200003 .43800003 C .18800003 .43800003 .136 .42700003 .092 .38900004 L .092 .578 Z "/>
</symbol>
<use xlink:href="#font_3_4" transform="matrix(6.9738,0,0,-6.9738,63.77835,117.56147)"/>
<path transform="matrix(1,0,0,-1,41.176,80.066)" stroke-width="1" stroke-linecap="butt" stroke-miterlimit="10" stroke-linejoin="miter" fill="none" stroke="#808080" d="M -12.0801 -22.20103 L -12.0801 -17.94891 M 21.88263 -31.30246 L 21.88263 -27.05034 "/>
<path transform="matrix(1,0,0,-1,41.176,80.066)" stroke-width="1" stroke-linecap="butt" stroke-miterlimit="10" stroke-linejoin="miter" fill="none" stroke="#808080" d="M 53.79181 12.31438 L 57.89891 11.21373 "/>
<path transform="matrix(1,0,0,-1,41.176,80.066)" stroke-width="1" stroke-linecap="butt" stroke-miterlimit="10" stroke-linejoin="miter" fill="none" stroke="#000000" d="M 55.84537 -43.282 L 55.84537 34.79245 "/>
<path transform="matrix(0,-1,-1,-0,97.02137,45.273553)" d="M 1.99252 0 L -1.19551 1.59401 L 0 0 L -1.19551 -1.59401 "/>
<use xlink:href="#font_3_3" transform="matrix(6.9738,0,0,-6.9738,88.16315,69.131999)"/>
<path transform="matrix(1,0,0,-1,41.176,80.066)" stroke-width="1" stroke-linecap="butt" stroke-miterlimit="10" stroke-linejoin="miter" fill="none" stroke="#808080" d="M 73.00232 -19.25946 L 73.00232 -15.00732 M 38.68842 -61.54832 L 38.68842 -57.29619 "/>
<path transform="matrix(1,0,0,-1,41.176,80.066)" stroke-width="1" stroke-linecap="butt" stroke-miterlimit="10" stroke-linejoin="miter" fill="none" stroke="#808080" d="M 57.18498 13.415 L 54.50577 10.11311 "/>
<use xlink:href="#font_1_2" transform="matrix(6.9738,0,0,-6.9738,71.79674,151.38674)"/>
<use xlink:href="#font_1_3" transform="matrix(6.9738,0,0,-6.9738,113.76977,127.21865)"/>
<use xlink:href="#font_1_4" transform="matrix(6.9738,0,0,-6.9738,95.4004,40.866735)"/>
</svg>
