<?xml version="1.0" encoding="UTF-8" standalone="no"?>
<!DOCTYPE svg PUBLIC "-//W3C//DTD SVG 1.1//EN" "http://www.w3.org/Graphics/SVG/1.1/DTD/svg11.dtd">
<svg xmlns="http://www.w3.org/2000/svg" xmlns:xlink="http://www.w3.org/1999/xlink" version="1.1" width="315.156pt" height="164.581pt" viewBox="0 0 315.156 164.581">
<clipPath id="cp0">
<path transform="matrix(1,0,0,-1,-17.509,164.581)" d="M 17.50887 0 L 332.6687 0 L 332.6687 164.58345 L 17.50887 164.58345 Z "/>
</clipPath>
<g clip-path="url(#cp0)">
<path transform="matrix(1,0,0,-1,-17.509,164.581)" stroke-width="1.59404" stroke-linecap="butt" stroke-miterlimit="10" stroke-linejoin="miter" fill="none" stroke="#000080" d="M 210.10654 7.00354 C 210.10654 7.00354 209.97127 10.3162 209.80574 11.5737 C 209.6402 12.8312 209.24176 14.84174 208.91347 16.06683 C 208.58519 17.29193 207.92494 19.23163 207.43958 20.40343 C 206.95421 21.57523 206.04936 23.41403 205.4152 24.51242 C 204.78105 25.61081 203.64124 27.31367 202.86905 28.3199 C 202.09688 29.32611 200.74669 30.86775 199.84984 31.7646 C 198.95299 32.66145 197.41135 34.01164 196.40514 34.78383 C 195.39891 35.556 193.69605 36.69582 192.59766 37.32997 C 191.49927 37.96413 189.66046 38.86897 188.48867 39.35434 C 187.31687 39.8397 185.37715 40.49995 184.15206 40.82823 C 182.92697 41.15652 180.91645 41.55496 179.65894 41.7205 C 178.40143 41.88603 176.35698 42.0213 175.08878 42.0213 C 173.82059 42.0213 171.77611 41.88603 170.5186 41.7205 C 169.2611 41.55496 167.25058 41.15652 166.02548 40.82823 C 164.80039 40.49995 162.86067 39.8397 161.68888 39.35434 C 160.51708 38.86897 158.67829 37.96413 157.5799 37.32997 C 156.4815 36.69582 154.77863 35.556 153.77242 34.78383 C 152.76619 34.01164 151.22457 32.66145 150.3277 31.7646 C 149.43085 30.86775 148.08068 29.32611 147.30849 28.3199 C 146.5363 27.31367 145.39649 25.61081 144.76233 24.51242 C 144.12819 23.41403 143.22333 21.57523 142.73796 20.40343 C 142.2526 19.23163 141.59236 17.29193 141.26407 16.06683 C 140.93579 14.84174 140.53733 12.8312 140.37181 11.5737 C 140.20629 10.3162 140.07102 7.00354 140.07102 7.00354 "/>
<path transform="matrix(1,0,0,-1,-17.509,164.581)" stroke-width="1.59404" stroke-linecap="butt" stroke-miterlimit="10" stroke-linejoin="miter" fill="none" stroke="#000080" d="M 245.1243 7.00354 C 245.1243 7.00354 244.85376 13.62886 244.52269 16.14388 C 244.19162 18.65889 243.39476 22.67992 242.73818 25.13013 C 242.08159 27.58034 240.76114 31.45972 239.79039 33.80333 C 238.81964 36.14694 237.00994 39.82452 235.74164 42.0213 C 234.47333 44.21808 232.19373 47.62381 230.64936 49.63626 C 229.10498 51.64871 226.4046 54.73195 224.6109 56.52567 C 222.81719 58.31937 219.73395 61.01974 217.7215 62.56412 C 215.70905 64.10849 212.30332 66.38809 210.10654 67.6564 C 207.90976 68.9247 204.23218 70.7344 201.88857 71.70515 C 199.54496 72.6759 195.66558 73.99635 193.21537 74.65294 C 190.76515 75.30952 186.74413 76.10638 184.22911 76.43745 C 181.7141 76.76852 177.62519 77.03906 175.08878 77.03906 C 172.55237 77.03906 168.46347 76.76852 165.94844 76.43745 C 163.43341 76.10638 159.4124 75.30952 156.96219 74.65294 C 154.51198 73.99635 150.6326 72.6759 148.28899 71.70515 C 145.94538 70.7344 142.26779 68.9247 140.07102 67.6564 C 137.87424 66.38809 134.4685 64.10849 132.45604 62.56412 C 130.44359 61.01974 127.36035 58.31937 125.56665 56.52567 C 123.77293 54.73195 121.07256 51.64871 119.5282 49.63626 C 117.98383 47.62381 115.70421 44.21808 114.43591 42.0213 C 113.1676 39.82452 111.35791 36.14694 110.38715 33.80333 C 109.4164 31.45972 108.09596 27.58034 107.43936 25.13013 C 106.78278 22.67992 105.9859 18.65889 105.65485 16.14388 C 105.32379 13.62886 105.05327 7.00354 105.05327 7.00354 "/>
<path transform="matrix(1,0,0,-1,-17.509,164.581)" stroke-width="1.59404" stroke-linecap="butt" stroke-miterlimit="10" stroke-linejoin="miter" fill="none" stroke="#000080" d="M 280.14204 7.00354 C 280.14204 7.00354 279.73625 16.9415 279.23966 20.71404 C 278.74305 24.48657 277.5478 30.5181 276.56288 34.19342 C 275.578 37.86874 273.59733 43.6878 272.1412 47.20323 C 270.68507 50.71866 267.9705 56.235 266.06806 59.53018 C 264.1656 62.82536 260.7462 67.93394 258.42964 70.9526 C 256.11308 73.97128 252.06252 78.59615 249.37195 81.28671 C 246.68138 83.97728 242.05652 88.02783 239.03784 90.34439 C 236.01918 92.66095 230.9106 96.08037 227.61542 97.98282 C 224.32024 99.88527 218.8039 102.59982 215.28847 104.05595 C 211.77304 105.51208 205.95398 107.49275 202.27866 108.47765 C 198.60334 109.46254 192.57181 110.6578 188.79927 111.1544 C 185.02674 111.65102 178.89339 112.05681 175.08878 112.05681 C 171.28417 112.05681 165.1508 111.65102 161.37827 111.1544 C 157.60573 110.6578 151.5742 109.46254 147.89888 108.47765 C 144.22356 107.49275 138.4045 105.51208 134.88909 104.05595 C 131.37368 102.59982 125.85733 99.88527 122.56215 97.98282 C 119.26697 96.08037 114.15837 92.66095 111.1397 90.34439 C 108.12102 88.02783 103.49615 83.97728 100.80559 81.28671 C 98.11502 78.59615 94.06447 73.97128 91.74791 70.9526 C 89.43137 67.93394 86.01193 62.82536 84.10948 59.53018 C 82.20703 56.235 79.4925 50.71866 78.03635 47.20323 C 76.58022 43.6878 74.59955 37.86874 73.61465 34.19342 C 72.62978 30.5181 71.43448 24.48657 70.9379 20.71404 C 70.44131 16.9415 70.0355 7.00354 70.0355 7.00354 "/>
<path transform="matrix(1,0,0,-1,-17.509,164.581)" stroke-width="1.59404" stroke-linecap="butt" stroke-miterlimit="10" stroke-linejoin="miter" fill="none" stroke="#000080" d="M 315.1598 7.00354 C 315.1598 7.00354 314.61875 20.25414 313.9566 25.2842 C 313.2945 30.31425 311.70079 38.3563 310.3876 43.25671 C 309.0744 48.15715 306.4335 55.9159 304.492 60.60312 C 302.55049 65.29034 298.9311 72.6455 296.3945 77.03906 C 293.85789 81.43263 289.29866 88.24406 286.20994 92.26898 C 283.1212 96.29388 277.72044 102.46036 274.133 106.04778 C 270.5456 109.63521 264.37913 115.03595 260.35423 118.12468 C 256.3293 121.21342 249.51787 125.77264 245.1243 128.30925 C 240.73073 130.84586 233.37558 134.46526 228.68836 136.40677 C 224.00113 138.34827 216.24239 140.98917 211.34195 142.30236 C 206.44153 143.61554 198.39949 145.20925 193.36943 145.87137 C 188.33937 146.5335 180.16159 147.07457 175.08878 147.07457 C 170.01598 147.07457 161.83817 146.5335 156.8081 145.87137 C 151.77805 145.20925 143.73603 143.61554 138.83559 142.30236 C 133.93515 140.98917 126.1764 138.34827 121.48918 136.40677 C 116.80196 134.46526 109.44684 130.84586 105.05327 128.30925 C 100.6597 125.77264 93.84824 121.21342 89.82333 118.12468 C 85.79842 115.03595 79.63196 109.63521 76.04453 106.04778 C 72.4571 102.46036 67.05637 96.29388 63.96762 92.26898 C 60.87889 88.24406 56.31966 81.43263 53.78305 77.03906 C 51.24646 72.6455 47.62704 65.29034 45.68555 60.60312 C 43.74403 55.9159 41.10315 48.15715 39.78995 43.25671 C 38.47676 38.3563 36.88306 30.31425 36.22095 25.2842 C 35.55882 20.25414 35.01775 7.00354 35.01775 7.00354 "/>
<path transform="matrix(1,0,0,-1,-17.509,164.581)" stroke-width="1.59404" stroke-linecap="butt" stroke-miterlimit="10" stroke-linejoin="miter" fill="none" stroke="#008000" d="M 0 917.4652 C 0 917.4652 10.54169 814.7536 14.59048 777.63949 C 18.6393 740.5253 25.13217 683.71249 29.18098 649.9723 C 33.22978 616.2322 39.72267 564.8301 43.77147 534.46389 C 47.82028 504.0977 54.31319 458.10633 58.36198 431.11405 C 62.41078 404.12178 68.90367 363.54075 72.95248 339.92237 C 77.00128 316.304 83.49417 281.1336 87.54297 260.88923 C 91.59178 240.64484 98.08467 210.8853 102.13348 194.01491 C 106.18228 177.14452 112.67517 152.79558 116.72397 139.29912 C 120.77278 125.80267 127.26567 106.86429 131.31447 96.74178 C 135.36327 86.61926 141.85617 73.09161 145.90499 66.34306 C 149.95378 59.59451 156.44667 51.4775 160.49547 48.1029 C 164.54428 44.7283 171.03716 42.02194 175.08597 42.0213 C 179.13477 42.02066 185.62767 44.72495 189.67647 48.09825 C 193.72528 51.47156 200.21817 59.58649 204.26697 66.33374 C 208.31577 73.08098 214.80866 86.6065 218.85747 96.72772 C 222.90627 106.84894 229.39917 125.78525 233.44797 139.28043 C 237.49678 152.7756 243.98967 177.12245 248.03847 193.99156 C 252.08727 210.86066 258.58015 240.61808 262.62898 260.86119 C 266.67778 281.10426 273.1707 316.27259 277.21949 339.88966 C 281.26829 363.5067 287.76115 404.0857 291.80998 431.07664 C 295.85877 458.06758 302.35166 504.05674 306.40046 534.42166 C 310.44926 564.78659 316.94218 616.18698 320.99098 649.92587 C 325.03977 683.66476 331.53266 740.47537 335.58149 777.58816 C 339.63026 814.701 350.17195 917.4091 350.17195 917.4091 "/>
<path transform="matrix(1,0,0,-1,-17.509,164.581)" d="M 144.76509 24.98518 L 156.3876 24.98518 L 156.3876 38.04675 L 144.76509 38.04675 Z " fill="#ffffff"/>
<symbol id="font_1_4">
<path d="M .42000003 .63100007 C .42900003 .64300009 .42900003 .64500007 .42900003 .66600009 L .18600002 .66600009 C .064 .66600009 .062000008 .679 .058000007 .6980001 L .033 .6980001 L 0 .49200005 L .024999999 .49200005 C .028000005 .508 .037 .57100006 .050000006 .58300009 C .057000005 .58900007 .13500002 .58900007 .148 .58900007 L .35500003 .58900007 C .344 .573 .26500003 .46400006 .24300003 .43100003 C .153 .29600004 .12000001 .157 .12000001 .055 C .12000001 .045 .12000001 0 .16600001 0 C .21200001 0 .21200001 .045 .21200001 .055 L .21200001 .106000009 C .21200001 .16100002 .21500004 .216 .22300002 .27 C .22700003 .29300005 .24100003 .37900005 .28500004 .44100005 L .42000003 .63100007 Z "/>
</symbol>
<use xlink:href="#font_1_4" transform="matrix(9.9626,0,0,-9.9626,131.1329,136.49518)" fill="#000080"/>
<path transform="matrix(1,0,0,-1,-17.509,164.581)" d="M 120.25266 49.49762 L 131.87517 49.49762 L 131.87517 62.55919 L 120.25266 62.55919 Z " fill="#ffffff"/>
<symbol id="font_1_3">
<path d="M .089999999 .35000003 L .089999999 .37400005 C .089999999 .62700006 .21400002 .66300007 .26500003 .66300007 C .28900004 .66300007 .33100004 .65700009 .35300002 .623 C .33800004 .623 .298 .623 .298 .57800009 C .298 .54700008 .32200004 .53200009 .344 .53200009 C .36 .53200009 .39000003 .54100009 .39000003 .58000007 C .39000003 .64000007 .34600003 .688 .263 .688 C .13499999 .688 0 .559 0 .33800004 C 0 .071 .116000007 0 .20900002 0 C .32000003 0 .41500003 .094000007 .41500003 .22600001 C .41500003 .35300005 .32600004 .44900004 .215 .44900004 C .14700002 .44900004 .11000001 .39800004 .089999999 .35000003 M .20900002 .028 C .146 .028 .116000007 .088 .11000001 .103 C .092 .15 .092 .23 .092 .24800001 C .092 .32600004 .124000009 .42600004 .21400002 .42600004 C .23000002 .42600004 .27600003 .42600004 .307 .36400003 C .32500003 .32700003 .32500003 .27600003 .32500003 .22700002 C .32500003 .179 .32500003 .12900001 .30800004 .093 C .27800004 .033000005 .23200003 .028 .20900002 .028 Z "/>
</symbol>
<use xlink:href="#font_1_3" transform="matrix(9.9626,0,0,-9.9626,106.48142,111.98217)" fill="#000080"/>
<path transform="matrix(1,0,0,-1,-17.509,164.581)" d="M 95.74023 74.01006 L 107.36274 74.01006 L 107.36274 87.07163 L 95.74023 87.07163 Z " fill="#ffffff"/>
<symbol id="font_1_2">
<path d="M .39900003 .223 C .39900003 .34200005 .317 .44200004 .209 .44200004 C .16100002 .44200004 .118000019 .42600004 .082 .39100004 L .082 .586 C .10200001 .58000007 .135 .573 .16700001 .573 C .29 .573 .36 .66400006 .36 .67700007 C .36 .683 .357 .688 .35 .688 C .349 .688 .347 .688 .342 .68500009 C .322 .67600008 .273 .656 .20600002 .656 C .16600001 .656 .120000008 .66300007 .073 .6840001 C .065 .68700006 .06300001 .68700006 .061000009 .68700006 C .051000004 .68700006 .051000004 .679 .051000004 .66300007 L .051000004 .36700005 C .051000004 .34900005 .051000004 .34100003 .065 .34100003 C .07200001 .34100003 .074 .34400005 .07800001 .35000003 C .08900002 .36600004 .12600002 .42000006 .207 .42000006 C .259 .42000006 .284 .37400005 .292 .35600005 C .308 .31900005 .31 .28000004 .31 .23 C .31 .19500001 .31 .135 .286 .093 C .262 .054000006 .22500001 .028 .17900002 .028 C .106000009 .028 .049000008 .08100001 .032 .14000002 C .035 .13900002 .038000008 .13800001 .049000008 .13800001 C .082 .13800001 .09900001 .163 .09900001 .187 C .09900001 .21100001 .082 .23600002 .049000008 .23600002 C .035 .23600002 0 .22900002 0 .18300002 C 0 .097 .069000009 0 .18100001 0 C .297 0 .39900003 .096 .39900003 .223 Z "/>
</symbol>
<use xlink:href="#font_1_2" transform="matrix(9.9626,0,0,-9.9626,82.049129,87.47017)" fill="#000080"/>
<path transform="matrix(1,0,0,-1,-17.509,164.581)" d="M 71.2278 98.52248 L 82.85031 98.52248 L 82.85031 111.584049 L 71.2278 111.584049 Z " fill="#ffffff"/>
<symbol id="font_1_1">
<path d="M .266 .165 L .266 .078 C .266 .042000005 .26400004 .031000002 .19000001 .031000002 L .16900002 .031000002 L .16900002 0 C .21000001 .003 .26200003 .003 .30400003 .003 C .34600003 .003 .39900003 .003 .44000004 0 L .44000004 .031000002 L .41900004 .031000002 C .34500004 .031000002 .34300003 .042000005 .34300003 .078 L .34300003 .165 L .44300003 .165 L .44300003 .19600001 L .34300003 .19600001 L .34300003 .651 C .34300003 .671 .34300003 .67700007 .32700003 .67700007 C .31800003 .67700007 .31500004 .67700007 .307 .665 L 0 .19600001 L 0 .165 L .266 .165 M .272 .19600001 L .028 .19600001 L .272 .569 L .272 .19600001 Z "/>
</symbol>
<use xlink:href="#font_1_1" transform="matrix(9.9626,0,0,-9.9626,57.317949,62.73899)" fill="#000080"/>
<symbol id="font_2_2">
<path d="M .59300008 .71700009 C .59300008 .72 .591 .72700008 .582 .72700008 C .577 .72700008 .57600006 .7260001 .56400009 .7120001 L .51600006 .65500006 C .49000008 .702 .43800003 .72700008 .37300004 .72700008 C .246 .72700008 .126 .61200007 .126 .49100004 C .126 .41000004 .179 .36400003 .23 .34900005 L .337 .32100005 C .374 .31200005 .42900003 .29700003 .42900003 .215 C .42900003 .12500002 .347 .031000004 .24900003 .031000004 C .18500002 .031000004 .074 .053000004 .074 .177 C .074 .201 .07900001 .22500001 .08 .231 C .081 .23500002 .082 .23600002 .082 .238 C .082 .24800001 .075 .24900002 .07000001 .24900002 C .065000008 .24900002 .063 .24800001 .060000004 .245 C .056 .24100001 0 .013000001 0 .010000002 C 0 .0040000008 .0050000029 0 .011 0 C .016000003 0 .017000005 .0010000002 .029 .0150000019 L .07800001 .072000008 C .12100001 .014000001 .18900001 0 .24700003 0 C .38300003 0 .50100007 .13300002 .50100007 .25700004 C .50100007 .32600004 .46700008 .36000005 .45200003 .37400005 C .42900003 .39700005 .41400004 .40100003 .325 .42400003 C .30300004 .43000005 .26700003 .44000004 .25800003 .44200004 C .23100002 .45100004 .19700001 .48000006 .19700001 .53300008 C .19700001 .614 .277 .69900009 .37200005 .69900009 C .45500005 .69900009 .51600006 .656 .51600006 .544 C .51600006 .512 .512 .49400006 .512 .48800005 C .512 .48700006 .512 .47800005 .52400007 .47800005 C .53400006 .47800005 .535 .48100005 .53900006 .49800004 L .59300008 .71700009 Z "/>
</symbol>
<use xlink:href="#font_2_2" transform="matrix(9.9626,0,0,-9.9626,224.78905,21.131165)" fill="#008000"/>
<symbol id="font_2_1">
<path d="M .265 .32500003 L .362 .32500003 C .43700005 .32500003 .445 .30900003 .445 .28 C .445 .273 .445 .261 .43800003 .231 C .43600006 .22600001 .435 .22200002 .435 .22000002 C .435 .21200001 .44100005 .208 .44700004 .208 C .45700003 .208 .45700003 .21100001 .462 .22900002 L .517 .446 C .52000007 .45700003 .52000007 .45900003 .52000007 .462 C .52000007 .46400003 .51800009 .47300003 .508 .47300003 C .49800004 .47300003 .49700005 .46800003 .49300004 .45200003 C .47200007 .374 .449 .356 .36400003 .356 L .273 .356 L .337 .61 C .34600003 .64500007 .347 .64900007 .39100004 .64900007 L .52300009 .64900007 C .646 .64900007 .669 .61600008 .669 .53900006 C .669 .51600006 .669 .512 .66600009 .485 C .66400006 .47200004 .66400006 .47000004 .66400006 .467 C .66400006 .462 .66700008 .455 .67600008 .455 C .68700006 .455 .688 .46100004 .69000008 .48000003 L .71000006 .65300008 C .71300008 .68 .70800009 .68 .683 .68 L .193 .68 C .17300001 .68 .163 .68 .163 .66 C .163 .64900007 .172 .64900007 .19100002 .64900007 C .228 .64900007 .25599999 .64900007 .25599999 .63100007 C .25599999 .62700006 .25599999 .625 .251 .60700008 L .119 .078 C .109 .039 .10700001 .031000002 .027999998 .031000002 C .011 .031000002 0 .031000002 0 .012 C 0 0 .011999998 0 .015000001 0 C .044 0 .118 .003 .147 .003 C .18 .003 .263 0 .296 0 C .305 0 .31700004 0 .31700004 .019000002 C .31700004 .027 .311 .029000001 .311 .030000002 C .30800004 .031000002 .306 .031000002 .283 .031000002 C .26100005 .031000002 .25599999 .031000002 .23100002 .033 C .202 .036000004 .19900002 .040000004 .19900002 .053000004 C .19900002 .055000005 .19900002 .061000006 .20300001 .076000008 L .265 .32500003 Z "/>
</symbol>
<use xlink:href="#font_2_1" transform="matrix(9.9626,0,0,-9.9626,20.995577,90.94699)" fill="#000080"/>
</g>
</svg>
