<?xml version="1.0" encoding="UTF-8" standalone="no"?>
<!DOCTYPE svg PUBLIC "-//W3C//DTD SVG 1.1//EN" "http://www.w3.org/Graphics/SVG/1.1/DTD/svg11.dtd">
<svg xmlns="http://www.w3.org/2000/svg" xmlns:xlink="http://www.w3.org/1999/xlink" version="1.1" width="206.07pt" height="179.742pt" viewBox="0 0 206.07 179.742">
<clipPath id="cp0">
<path transform="matrix(1,0,0,-1,.199,173.366)" d="M 0 0 L 194.27368 0 L 194.27368 161.39636 L 0 161.39636 Z "/>
</clipPath>
<g clip-path="url(#cp0)">
<path transform="matrix(1,0,0,-1,.199,173.366)" d="M 97.13684 80.69818 C 97.13684 80.69818 99.47621 80.69437 100.37471 80.73402 C 101.2732 80.77367 102.7141 80.85587 103.6126 80.98398 C 104.51108 81.11208 105.95198 81.38441 106.85048 81.6574 C 107.74896 81.93036 109.18987 82.4813 110.08836 82.9514 C 110.98686 83.42151 112.42775 84.33255 113.32625 85.04567 C 114.22475 85.75877 115.66562 87.09851 116.56412 88.09105 C 117.46262 89.08359 118.9035 90.90407 119.802 92.19926 C 120.7005 93.49446 122.14139 95.82167 123.03989 97.42601 C 123.93839 99.03035 125.37927 101.86426 126.27777 103.7623 C 127.17627 105.66034 128.61714 108.95493 129.51564 111.10585 C 130.41414 113.25679 131.85503 116.93079 132.75353 119.26474 C 133.65203 121.59871 135.09291 125.5131 135.99141 127.92743 C 136.88991 130.34174 138.3308 134.30445 139.2293 136.66548 C 140.12779 139.0265 141.56867 142.79956 142.46717 144.94416 C 143.36566 147.08875 144.80655 150.37906 145.70505 152.12221 C 146.60355 153.86536 148.04444 156.35846 148.94293 157.50757 C 149.84143 158.65668 151.28232 160.03589 152.18082 160.40416 C 153.07932 160.77242 154.5202 160.7343 155.4187 160.16185 C 156.3172 159.5894 157.75807 157.8971 158.65657 156.27829 C 159.55507 154.6595 160.99596 151.18767 161.89446 148.49462 C 162.79296 145.80158 164.23384 140.56707 165.13234 136.86862 C 166.03084 133.17018 167.47173 126.36116 168.37023 121.83875 C 169.26873 117.31631 170.7096 109.32413 171.6081 104.27414 C 172.50659 99.22414 174.84598 85.44191 174.84598 85.44191 L 174.84598 80.69818 L 97.13684 80.69818 Z " fill="#cccce6"/>
<path transform="matrix(1,0,0,-1,.199,173.366)" d="M 19.42737 75.95674 C 19.42737 75.95674 21.76674 62.1762 22.66524 57.12599 C 23.56372 52.07579 25.00462 44.08119 25.90312 39.55836 C 26.8016 35.03554 28.24251 28.22694 29.141 24.52849 C 30.03949 20.83003 31.4804 15.59543 32.37889 12.90239 C 33.27737 10.20934 34.71826 6.73753 35.61676 5.11887 C 36.51524 3.50018 37.95615 1.80864 38.85464 1.23607 C 39.75313 .6635 41.19403 .62436 42.09253 .99219 C 42.99101 1.36 44.43192 2.73842 45.33041 3.88719 C 46.2289 5.03598 47.66978 7.52869 48.56828 9.27185 C 49.46677 11.01501 50.90767 14.30608 51.80617 16.45079 C 52.70467 18.59549 54.14555 22.36836 55.04405 24.72952 C 55.94255 27.09068 57.38344 31.05403 58.28194 33.46835 C 59.18044 35.88266 60.6213 39.79637 61.5198 42.13031 C 62.4183 44.46426 63.85919 48.13878 64.75769 50.28989 C 65.65619 52.441 67.09708 55.7359 67.99557 57.63403 C 68.89407 59.53217 70.33496 62.36598 71.23346 63.97032 C 72.13196 65.57466 73.57283 67.902 74.47133 69.19707 C 75.36983 70.49214 76.81073 72.31195 77.70923 73.30435 C 78.60773 74.29675 80.0486 75.6365 80.9471 76.34969 C 81.8456 77.06285 83.28648 77.97412 84.18498 78.44443 C 85.08348 78.91472 86.52437 79.46631 87.42287 79.73933 C 88.32137 80.01237 89.76225 80.2842 90.66075 80.41225 C 91.55925 80.54028 93.00012 80.62263 93.89862 80.6623 C 94.79712 80.70197 97.1365 80.69818 97.1365 80.69818 L 19.42737 80.69818 Z " fill="#e6cccc"/>
<path transform="matrix(1,0,0,-1,.199,173.366)" stroke-width="1.59404" stroke-linecap="butt" stroke-miterlimit="10" stroke-linejoin="miter" fill="none" stroke="#000080" d="M 11.65642 116.53041 C 11.65642 116.53041 16.80305 90.41905 18.77975 79.73932 C 20.75645 69.0596 23.92642 49.09186 25.90312 39.55836 C 27.8798 30.02487 31.04977 16.41664 33.02647 11.02844 C 35.00317 5.64023 38.17313 1.30139 40.14983 .72389 C 42.12653 .14641 45.29648 3.77307 47.27318 6.86617 C 49.24988 9.95924 52.41983 18.1241 54.39653 23.01678 C 56.37323 27.90948 59.5432 37.1385 61.5199 42.12935 C 63.49658 47.12018 66.66655 54.9854 68.64325 58.98737 C 70.61995 62.98933 73.78989 68.37479 75.76659 70.97282 C 77.74329 73.57088 80.91325 76.41571 82.88995 77.71236 C 84.86665 79.00899 88.0366 79.9039 90.0133 80.31818 C 91.99 80.73244 95.15997 80.59273 97.13667 80.69818 C 99.11336 80.80362 102.28331 80.66391 104.26001 81.07813 C 106.23671 81.49232 109.40668 82.387 111.38336 83.68352 C 113.36006 84.98006 116.53003 87.82469 118.50673 90.42265 C 120.48343 93.02061 123.65338 98.40594 125.63008 102.4079 C 127.60678 106.40984 130.77675 114.27502 132.75345 119.26602 C 134.73014 124.257 137.9001 133.48671 139.8768 138.37955 C 141.8535 143.27237 145.02346 151.43743 147.00014 154.53017 C 148.97684 157.62293 152.1468 161.24753 154.1235 160.67005 C 156.1002 160.09255 159.27016 155.75566 161.24686 150.3679 C 163.22356 144.98014 166.39353 131.37195 168.37023 121.83875 C 170.34693 112.30554 173.51686 92.33897 175.49356 81.6592 C 177.47026 70.97943 182.61692 44.86635 182.61692 44.86635 "/>
</g>
<path transform="matrix(1,0,0,-1,.199,173.366)" stroke-width=".19925" stroke-linecap="butt" stroke-miterlimit="10" stroke-linejoin="miter" fill="none" stroke="#929292" d="M 19.42737 78.5723 L 19.42737 82.82404 M 58.2821 78.5723 L 58.2821 82.82404 M 135.99158 78.5723 L 135.99158 82.82404 M 174.84632 78.5723 L 174.84632 82.82404 "/>
<path transform="matrix(1,0,0,-1,.199,173.366)" stroke-width=".19925" stroke-linecap="butt" stroke-miterlimit="10" stroke-linejoin="miter" fill="none" stroke="#929292" d="M 95.0108 0 L 99.26285 0 M 95.0108 40.34909 L 99.26285 40.34909 M 95.0108 121.04727 L 99.26285 121.04727 M 95.0108 161.39636 L 99.26285 161.39636 "/>
<path transform="matrix(1,0,0,-1,.199,173.366)" stroke-width=".3985" stroke-linecap="butt" stroke-miterlimit="10" stroke-linejoin="miter" fill="none" stroke="#000000" d="M 0 80.69818 L 192.28116 80.69818 "/>
<path transform="matrix(1,0,0,-1,192.48017,92.667819)" d="M 1.99252 0 L -1.19551 1.59401 L 0 0 L -1.19551 -1.59401 "/>
<path transform="matrix(1,0,0,-1,.199,173.366)" stroke-width=".3985" stroke-linecap="butt" stroke-miterlimit="10" stroke-linejoin="miter" fill="none" stroke="#000000" d="M 97.13684 0 L 97.13684 159.40384 "/>
<path transform="matrix(0,-1,-1,-0,97.33584,13.962158)" d="M 1.99252 0 L -1.19551 1.59401 L 0 0 L -1.19551 -1.59401 "/>
<symbol id="font_1_1">
<path d="M .589 0 C .607 0 .626 0 .626 .022 C .626 .042999999 .606 .042999999 .589 .042999999 L .037 .042999999 C .020000004 .042999999 0 .042999999 0 .022 C 0 0 .019000002 0 .037 0 L .589 0 Z "/>
</symbol>
<use xlink:href="#font_1_1" transform="matrix(8.9664,0,0,-8.9664,14.510111,101.790699)"/>
<symbol id="font_2_3">
<path d="M .411 .177 L .38300003 .177 C .381 .164 .37300004 .105000007 .36 .089 C .35400004 .080000009 .28500004 .080000009 .26500003 .080000009 L .08700001 .080000009 L .18600002 .17400001 C .35000003 .316 .411 .36900003 .411 .47100003 C .411 .586 .316 .666 .19300002 .666 C .07800001 .666 0 .57500007 0 .48400004 C 0 .43400003 .043 .42900003 .052000006 .42900003 C .074 .42900003 .104 .44500003 .104 .48100005 C .104 .51100006 .083000008 .53300008 .052000006 .53300008 C .047000003 .53300008 .044000005 .53300008 .040000004 .532 C .063999999 .60300007 .128 .63500007 .18200001 .63500007 C .284 .63500007 .319 .54 .319 .47100003 C .319 .36900003 .24200002 .286 .194 .23400001 L .011 .036000004 C 0 .025 0 .023000002 0 0 L .38300003 0 L .411 .177 Z "/>
</symbol>
<use xlink:href="#font_2_3" transform="matrix(8.9664,0,0,-8.9664,21.363287,103.844)"/>
<use xlink:href="#font_1_1" transform="matrix(8.9664,0,0,-8.9664,53.364114,101.790699)"/>
<symbol id="font_2_2">
<path d="M .21100003 .63900008 C .21100003 .66400006 .21000001 .666 .18500003 .666 C .123 .60200008 .031000004 .60200008 0 .60200008 L 0 .57100006 C .019000002 .57100006 .080000009 .57100006 .134 .597 L .134 .080000009 C .134 .043 .13100001 .031000002 .03800001 .031000002 L .0060000049 .031000002 L .0060000049 0 C .042000005 .003 .13100001 .003 .17200002 .003 C .21300003 .003 .30300004 .003 .33900003 0 L .33900003 .031000002 L .307 .031000002 C .21400002 .031000002 .21100003 .043 .21100003 .080000009 L .21100003 .63900008 Z "/>
</symbol>
<use xlink:href="#font_2_2" transform="matrix(8.9664,0,0,-8.9664,60.594877,103.844)"/>
<use xlink:href="#font_2_2" transform="matrix(8.9664,0,0,-8.9664,134.71889,103.844)"/>
<use xlink:href="#font_2_3" transform="matrix(8.9664,0,0,-8.9664,173.19629,103.844)"/>
<use xlink:href="#font_1_1" transform="matrix(8.9664,0,0,-8.9664,80.934108,173.7867)"/>
<use xlink:href="#font_2_2" transform="matrix(8.9664,0,0,-8.9664,88.16387,175.84)"/>
<use xlink:href="#font_1_1" transform="matrix(8.9664,0,0,-8.9664,73.766109,133.4387)"/>
<symbol id="font_2_1">
<path d="M .43300004 .34200005 C .43300004 .40900005 .43000005 .49500004 .39500005 .57000008 C .35100005 .66400006 .27500005 .688 .217 .688 C .157 .688 .081 .66400006 .037000006 .568 C .004999999 .49900005 0 .41800005 0 .34200005 C 0 .27700005 .0020000004 .18 .044999999 .101 C .09199999 .016000003 .17 0 .216 0 C .28100003 0 .35500003 .028 .397 .120000008 C .42700003 .187 .43300004 .26200003 .43300004 .34200005 M .217 .025000003 C .187 .025000003 .114999998 .039000006 .096 .15200001 C .085999999 .21100001 .085999999 .29700003 .085999999 .35400004 C .085999999 .42200003 .085999999 .50100007 .098000008 .55600008 C .118 .64500007 .18200001 .66300007 .216 .66300007 C .254 .66300007 .31700004 .64300009 .33600004 .55 C .34700004 .49500004 .34700004 .41700004 .34700004 .35400004 C .34700004 .29200004 .34700004 .208 .337 .149 C .316 .035000005 .242 .025000003 .217 .025000003 Z "/>
</symbol>
<use xlink:href="#font_2_1" transform="matrix(8.9664,0,0,-8.9664,80.52165,135.68927)"/>
<symbol id="font_3_1">
<path d="M .108 .054 C .108 .083000008 .085 .108 .053999999 .108 C .023000002 .108 0 .083000008 0 .054 C 0 .025 .023000002 0 .053999999 0 C .085 0 .108 .025 .108 .054 Z "/>
</symbol>
<use xlink:href="#font_3_1" transform="matrix(8.9664,0,0,-8.9664,85.560039,135.492)"/>
<symbol id="font_2_4">
<path d="M .053 .36700005 C .053 .34900005 .053 .33800004 .067 .33800004 C .075 .33800004 .07800001 .34200005 .08400001 .35100005 C .11400001 .39300005 .16200002 .41700004 .21400002 .41700004 C .321 .41700004 .321 .263 .321 .22700002 C .321 .19600001 .321 .134 .293 .089 C .266 .047000003 .224 .028 .18500002 .028 C .126 .028 .059000005 .065000008 .035 .13900002 C .036000004 .13900002 .042 .13700001 .049 .13700001 C .069000009 .13700001 .098000008 .15 .098000008 .186 C .098000008 .21700001 .076000008 .23500002 .049 .23500002 C .028 .23500002 0 .223 0 .18300002 C 0 .092 .076000008 0 .187 0 C .30800004 0 .411 .098000008 .411 .222 C .411 .34300003 .32500003 .44200004 .21600002 .44200004 C .16800002 .44200004 .119 .42600004 .08400001 .39000006 L .08400001 .587 C .11400001 .57800009 .14500001 .573 .17600002 .573 C .29900003 .573 .37100003 .66200008 .37100003 .6750001 C .37100003 .6840001 .365 .688 .36 .688 C .358 .688 .356 .688 .34700004 .683 C .3 .66400006 .254 .656 .21200001 .656 C .16900002 .656 .12400001 .66400006 .07800001 .683 C .068 .688 .066 .688 .065 .688 C .053 .688 .053 .67800006 .053 .6610001 L .053 .36700005 Z "/>
</symbol>
<use xlink:href="#font_2_4" transform="matrix(8.9664,0,0,-8.9664,87.78728,135.68927)"/>
<use xlink:href="#font_2_1" transform="matrix(8.9664,0,0,-8.9664,80.52165,55.40727)"/>
<use xlink:href="#font_3_1" transform="matrix(8.9664,0,0,-8.9664,85.560039,55.210008)"/>
<use xlink:href="#font_2_4" transform="matrix(8.9664,0,0,-8.9664,87.78728,55.40727)"/>
<use xlink:href="#font_2_2" transform="matrix(8.9664,0,0,-8.9664,88.16387,14.860992)"/>
<symbol id="font_3_2">
<path d="M .462 .41500003 C .425 .40800003 .41400004 .37600003 .41400004 .36100004 C .41400004 .34200005 .42800004 .32500003 .453 .32500003 C .48100005 .32500003 .508 .34900005 .508 .38400004 C .508 .43000005 .45800004 .45300005 .411 .45300005 C .351 .45300005 .316 .40000005 .30400003 .37900005 C .28500004 .42800004 .24100003 .45300005 .193 .45300005 C .086 .45300005 .028 .32500003 .028 .29900003 C .028 .29000003 .035000005 .28700004 .042000005 .28700004 C .051 .28700004 .054000006 .29200004 .056 .298 C .087000008 .397 .15300001 .42800004 .19100002 .42800004 C .22 .42800004 .24600002 .40900005 .24600002 .36200003 C .24600002 .32600004 .20300001 .16600001 .19000001 .11800001 C .18200001 .087000008 .15200001 .025000003 .097 .025000003 C .07700001 .025000003 .056 .032 .046000005 .038000004 C .07300001 .043 .093 .06600001 .093 .092 C .093 .117000009 .074 .128 .055 .128 C .026 .128 0 .10300001 0 .069000009 C 0 .020000002 .054000006 0 .096 0 C .15400002 0 .18800001 .048 .20300001 .075 C .22800002 .009000001 .287 0 .314 0 C .42200003 0 .479 .13000001 .479 .15400002 C .479 .15900001 .47600005 .16600001 .46600003 .16600001 C .455 .16600001 .45400004 .16200002 .44900004 .14700002 C .42700003 .075 .36900003 .025000003 .317 .025000003 C .28800003 .025000003 .261 .043 .261 .091000009 C .261 .113000009 .275 .16800002 .284 .20600002 C .28800003 .22400002 .31500004 .33200003 .317 .33900003 C .32900004 .37500004 .35900004 .42800004 .41000004 .42800004 C .42800004 .42800004 .44700004 .42500005 .462 .41500003 Z "/>
</symbol>
<use xlink:href="#font_3_2" transform="matrix(8.9664,0,0,-8.9664,198.044,94.68364)"/>
<symbol id="font_3_3">
<path d="M .47300003 .59000006 C .474 .595 .47599999 .6010001 .47599999 .607 C .47599999 .62 .467 .63600006 .44500003 .63600006 C .432 .63600006 .414 .628 .40600003 .609 C .405 .605 .395 .564 .389 .54200008 L .33900003 .342 C .331 .31300003 .331 .31100003 .329 .30200003 C .328 .298 .286 .21900001 .21400002 .21900001 C .15200001 .21900001 .15200001 .282 .15200001 .301 C .15200001 .34600003 .165 .39500005 .20800002 .507 C .216 .53000006 .22200002 .544 .22200002 .563 C .22200002 .612 .18500002 .6470001 .136 .6470001 C .040000008 .6470001 0 .505 0 .49300004 C 0 .48400004 .007000001 .48100005 .014 .48100005 C .025 .48100005 .026000003 .48700003 .030000003 .5 C .051000008 .574 .091000009 .62200006 .133 .62200006 C .157 .62200006 .157 .60300007 .157 .589 C .157 .572 .15300001 .554 .14400001 .53000006 C .097 .40600003 .08400001 .36400003 .08400001 .316 C .08400001 .20500002 .17400001 .194 .21100001 .194 C .26 .194 .295 .22000002 .313 .238 C .3 .187 .289 .14200002 .25 .09200001 C .22000002 .052 .18 .025000006 .136 .025000006 C .10800001 .025000006 .075 .03500001 .061000006 .06300001 C .11400001 .06300001 .12100001 .10700001 .12100001 .117000009 C .12100001 .13900002 .105000007 .15300001 .083000008 .15300001 C .059000009 .15300001 .027 .134 .027 .08800001 C .027 .036 .07300001 0 .136 0 C .23800002 0 .347 .087000008 .37600003 .20400001 L .47300003 .59000006 Z "/>
</symbol>
<use xlink:href="#font_3_3" transform="matrix(8.9664,0,0,-8.9664,95.18302,8.770103)"/>
</svg>
