<?xml version="1.0" encoding="UTF-8" standalone="no"?>
<!DOCTYPE svg PUBLIC "-//W3C//DTD SVG 1.1//EN" "http://www.w3.org/Graphics/SVG/1.1/DTD/svg11.dtd">
<svg xmlns="http://www.w3.org/2000/svg" xmlns:xlink="http://www.w3.org/1999/xlink" version="1.1" width="153.763pt" height="95.573pt" viewBox="0 0 153.763 95.573">
<path transform="matrix(1,0,0,-1,.598,50.433)" stroke-width="1" stroke-linecap="butt" stroke-miterlimit="10" stroke-linejoin="miter" fill="none" stroke="#000000" d="M 141.73404 35.43349 L 141.73404 0 "/>
<symbol id="font_0_5">
<path d="M .092 .578 C .143 .565 .17300001 .565 .18900001 .565 C .321 .565 .39900003 .65500006 .39900003 .67 C .39900003 .681 .39200003 .684 .38700003 .684 C .38500003 .684 .38300003 .684 .37900005 .681 C .35500003 .672 .30200003 .652 .22800002 .652 C .20000002 .652 .14700002 .654 .08200001 .679 C .072000008 .684 .07 .684 .069 .684 C .056 .684 .056 .67300006 .056 .657 L .056 .36200003 C .056 .34500004 .056 .33300004 .072000008 .33300004 C .08100001 .33300004 .08200001 .33500005 .092 .34700004 C .13500002 .40200005 .19600001 .41000004 .231 .41000004 C .291 .41000004 .31800003 .36200003 .323 .35400004 C .34100003 .32100005 .34700004 .28300003 .34700004 .22500001 C .34700004 .19500001 .34700004 .136 .31700004 .09200001 C .29200004 .056 .24900002 .032 .20000002 .032 C .13500002 .032 .06800001 .068 .043000007 .134 C .08100001 .13100001 .1 .156 .1 .183 C .1 .22600001 .063 .23400001 .050000006 .23400001 C .048000009 .23400001 0 .23400001 0 .18 C 0 .09 .08200001 0 .20200002 0 C .33 0 .442 .095000009 .442 .221 C .442 .33400003 .35600005 .43800003 .23200003 .43800003 C .18800003 .43800003 .136 .42700003 .092 .38900004 L .092 .578 Z "/>
</symbol>
<use xlink:href="#font_0_5" transform="matrix(6.9738,0,0,-6.9738,146.36336,35.103475)"/>
<path transform="matrix(1,0,0,-1,.598,50.433)" stroke-width="1.19553" stroke-linecap="butt" stroke-miterlimit="10" stroke-linejoin="miter" fill="none" stroke="#000080" d="M 0 0 L 138.634 34.65857 "/>
<path transform="matrix(.97238,-.24307,-.24307,-.97238,139.23201,15.774448)" d="M 3.18808 0 L -1.91284 2.55046 L 0 0 L -1.91284 -2.55046 " fill="#000080"/>
<symbol id="font_1_1">
<path d="M 1.2490001 0 C 1.273 0 1.289 0 1.289 .033999996 C 1.289 .044999988 1.289 .060000004 1.273 .065999988 C 1.229 .08500001 1.176 .10699999 1.1060001 .164 C 1.041 .21700001 1.008 .266 .985 .301 C .97300007 .31800003 .969 .31800003 .94200006 .31800003 C .9250001 .31800003 .89900007 .31800003 .89900007 .29299999 C .89900007 .275 .972 .15900001 1.069 .085999999 L .05600001 .085999999 C .042999999 .085999999 0 .085999999 0 .042999984 C 0 0 .042999999 0 .05600001 0 L 1.2490001 0 Z "/>
</symbol>
<use xlink:href="#font_1_1" transform="matrix(4.9813,0,0,-4.9813,139.11589,5.482871)" fill="#000080"/>
<symbol id="font_2_6">
<path d="M .187 .21000001 C .187 .3 .22800002 .39900003 .31800003 .404 C .317 .40300004 .30400003 .386 .30400003 .36100004 C .30400003 .32200004 .33200003 .293 .372 .293 C .412 .293 .44000004 .32200004 .44000004 .36100004 C .44000004 .416 .384 .45000003 .322 .45000003 C .25 .45000003 .20199999 .402 .175 .34 L .17400001 .34 L .17400001 .45000003 L 0 .44200004 L 0 .386 C .059000005 .386 .067 .386 .067 .347 L .067 .056 L 0 .056 L 0 0 C .0040000008 0 .081 .004 .128 .004 C .16700001 .004 .264 0 .271 0 L .271 .056 L .187 .056 L .187 .21000001 Z "/>
</symbol>
<use xlink:href="#font_2_6" transform="matrix(6.9738,0,0,-6.9738,140.84957,11.008003)" fill="#000080"/>
<path transform="matrix(1,0,0,-1,.598,50.433)" stroke-width="1" stroke-linecap="butt" stroke-miterlimit="10" stroke-linejoin="miter" fill="none" stroke="#000000" d="M 0 0 L 141.73404 0 "/>
<path transform="matrix(1,0,0,-1,.598,50.433)" stroke-width="1" stroke-linecap="butt" stroke-miterlimit="10" stroke-linejoin="miter" fill="none" stroke="#000000" d="M 35.43349 0 L 70.867 0 "/>
<symbol id="font_0_4">
<path d="M .442 .18200001 L .40800003 .18200001 C .40500004 .16000001 .39500005 .101 .38200004 .091000009 C .374 .085 .29700003 .085 .28300003 .085 L .099 .085 C .20400003 .178 .23900002 .20600002 .29900003 .25300003 C .37300004 .312 .442 .374 .442 .469 C .442 .59000006 .33600004 .66400006 .20800004 .66400006 C .084 .66400006 0 .577 0 .485 C 0 .43400003 .043000007 .42900003 .053000004 .42900003 C .077 .42900003 .10600001 .446 .10600001 .48200003 C .10600001 .5 .099 .535 .047000007 .535 C .078 .606 .146 .628 .19300002 .628 C .293 .628 .34500004 .55 .34500004 .469 C .34500004 .38200004 .28300003 .31300003 .25100003 .277 L .010000005 .039 C 0 .030000002 0 .028 0 0 L .41200004 0 L .442 .18200001 Z "/>
</symbol>
<symbol id="font_0_3">
<path d="M .46400006 .33900003 C .46400006 .44900004 .45100004 .528 .40500004 .598 C .374 .644 .31200005 .684 .23200001 .684 C 0 .684 0 .41100005 0 .33900003 C 0 .26700003 0 0 .23200001 0 C .46400006 0 .46400006 .26700003 .46400006 .33900003 M .23200001 .028 C .186 .028 .125 .055 .105000007 .13700001 C .091000009 .19600001 .091000009 .27800004 .091000009 .35200004 C .091000009 .42500005 .091000009 .50100007 .106000009 .556 C .127 .635 .19100002 .656 .23200001 .656 C .286 .656 .338 .623 .356 .565 C .37200005 .51100006 .37300004 .43900005 .37300004 .35200004 C .37300004 .27800004 .37300004 .20400001 .36 .141 C .34000004 .050000006 .272 .028 .23200001 .028 Z "/>
</symbol>
<use xlink:href="#font_0_4" transform="matrix(6.9738,0,0,-6.9738,53.75935,58.521)"/>
<use xlink:href="#font_0_3" transform="matrix(6.9738,0,0,-6.9738,57.657705,58.660478)"/>
<path transform="matrix(1,0,0,-1,.598,50.433)" stroke-width="1" stroke-linecap="butt" stroke-miterlimit="10" stroke-linejoin="miter" fill="none" stroke="#000000" d="M 70.867 17.71674 L 65.55199 38.97685 L 86.81209 44.29187 L 92.1271 23.03177 "/>
<path transform="matrix(1,0,0,-1,.598,50.433)" stroke-width="1.19553" stroke-linecap="butt" stroke-miterlimit="10" stroke-linejoin="miter" fill="none" stroke="#800000" d="M 78.83955 31.0043 L 78.83955 -22.5012 "/>
<path transform="matrix(0,1,1,0,79.437549,72.9342)" d="M 3.18808 0 L -1.91284 2.55046 L 0 0 L -1.91284 -2.55046 " fill="#800000"/>
<use xlink:href="#font_1_1" transform="matrix(4.9813,0,0,-4.9813,68.45189,73.72587)" fill="#800000"/>
<symbol id="font_2_2">
<path d="M .198 .29000003 C .163 .29000003 .149 .29000003 .132 .30400003 C .121999997 .312 .109 .32700003 .109 .351 C .109 .357 .109 .36800004 .116 .37700004 C .168 .352 .226 .352 .247 .352 C .41600005 .352 .46600006 .44 .46600006 .50100007 C .46600006 .55200007 .43500004 .586 .42600004 .594 C .44200004 .6 .465 .607 .48600004 .609 C .48400007 .60400006 .483 .596 .483 .59000006 C .483 .554 .513 .53900006 .533 .53900006 C .556 .53900006 .584 .556 .584 .59000006 C .584 .62100008 .559 .65700009 .509 .65700009 C .46800003 .65700009 .42300005 .64100006 .39300005 .619 C .33400003 .651 .27100004 .651 .247 .651 C .08400001 .651 .029000003 .566 .029000003 .50200006 C .029000003 .44500003 .063999999 .41300003 .082 .398 C .059000005 .37 .05 .34100003 .05 .31 C .05 .273 .063999999 .24000001 .09 .214 C .055000005 .206 0 .18100001 0 .12900001 C 0 .069000009 .07000001 0 .28300003 0 C .46700005 0 .566 .053000004 .566 .132 C .566 .15200001 .563 .224 .48000006 .263 C .42000003 .29000003 .35400004 .29000003 .25200004 .29000003 L .198 .29000003 M .247 .398 C .148 .398 .148 .462 .148 .50100007 C .148 .541 .148 .605 .247 .605 C .34700004 .605 .34700004 .54200008 .34700004 .50200006 C .34700004 .46100004 .34700004 .398 .247 .398 M .31300003 .18200001 C .33800004 .18200001 .46800003 .18200001 .46800003 .12900001 C .46800003 .096 .42600004 .046000005 .28300003 .046000005 C .146 .046000005 .098000008 .093 .098000008 .13 C .098000008 .18200001 .16700001 .18200001 .18 .18200001 L .31300003 .18200001 Z "/>
</symbol>
<use xlink:href="#font_2_2" transform="matrix(6.9738,0,0,-6.9738,69.62695,80.65273)" fill="#800000"/>
<path transform="matrix(1,0,0,-1,.598,50.433)" stroke-width="1.19553" stroke-linecap="butt" stroke-miterlimit="10" stroke-linejoin="miter" fill="none" stroke="#800080" d="M 78.83955 31.0043 L 91.35472 -19.22302 "/>
<path transform="matrix(.24228,.97238,.97238,-.24228,91.9527,69.65602)" d="M 3.18808 0 L -1.91284 2.55046 L 0 0 L -1.91284 -2.55046 " fill="#800080"/>
<use xlink:href="#font_1_1" transform="matrix(4.9813,0,0,-4.9813,90.53689,37.18587)" fill="#800080"/>
<symbol id="font_2_1">
<path d="M .66 .679 L 0 .679 L 0 .623 L .107 .623 L .107 .056 L 0 .056 L 0 0 C .026 .002 .17700002 .004 .185 .004 C .222 .004 .259 .003 .296 .003 C .322 .002 .366 .002 .39200003 0 L .39200003 .056 L .25800003 .056 L .25800003 .312 L .32 .312 C .40800003 .312 .43100003 .284 .43100003 .202 L .494 .202 L .494 .47800002 L .43100003 .47800002 C .43100003 .397 .409 .36800004 .32 .36800004 L .25800003 .36800004 L .25800003 .623 L .421 .623 C .563 .623 .61200007 .577 .63100007 .44000004 L .69400009 .44000004 L .66 .679 Z "/>
</symbol>
<use xlink:href="#font_2_1" transform="matrix(6.9738,0,0,-6.9738,89.1405,44.396)" fill="#800080"/>
<symbol id="font_3_1">
<path d="M .234 .29400004 C .183 .29400004 .174 .29400004 .15400002 .30800004 C .14000002 .319 .13100001 .337 .13100001 .35400004 C .13100001 .366 .132 .36800004 .13499999 .374 C .181 .35300002 .238 .34800003 .28100003 .34800003 C .47300003 .34800003 .52500006 .441 .52500006 .50100007 C .52500006 .55200007 .492 .586 .48500005 .592 C .50500008 .59900006 .53400006 .605 .55100008 .607 C .54700008 .596 .54700008 .59400007 .54700008 .586 C .54700008 .549 .57600006 .527 .60600009 .527 C .63000008 .527 .66400006 .545 .66400006 .586 C .66400006 .623 .6330001 .66400006 .57400009 .66400006 C .5500001 .66400006 .497 .65900006 .441 .623 C .384 .653 .31800003 .65500006 .282 .65500006 C .089999999 .65500006 .038000004 .56200006 .038000004 .50200006 C .038000004 .44500003 .074999999 .41400004 .093 .398 C .077 .37800003 .064 .35000003 .064 .315 C .064 .27400003 .080000009 .24300002 .101 .22000002 C .053000004 .208 0 .18300002 0 .13100001 C 0 .058 .10300001 0 .322 0 C .469 0 .64400008 .029 .64400008 .134 C .64400008 .164 .6330001 .23700002 .53400006 .27100004 C .465 .29400004 .403 .29400004 .292 .29400004 L .234 .29400004 M .282 .404 C .17200002 .404 .16300002 .45600004 .16300002 .50100007 C .16300002 .545 .17000002 .59900006 .28100003 .59900006 C .391 .59900006 .4 .54700008 .4 .50200006 C .4 .45800004 .393 .404 .282 .404 M .282 .179 C .395 .179 .53900006 .179 .53900006 .132 C .53900006 .098000008 .47600005 .05600001 .322 .05600001 C .16800002 .05600001 .105 .098000008 .105 .132 C .105 .179 .188 .179 .225 .179 L .282 .179 Z "/>
</symbol>
<use xlink:href="#font_3_1" transform="matrix(4.9813,0,0,-4.9813,94.66893,46.404207)" fill="#800080"/>
<symbol id="font_4_1">
<path d="M .102 .208 C .102 .112 .049999998 .056999998 .023000002 .034999998 C .012999997 .026999996 .0109999929 .024999991 .0109999929 .017999992 C .0109999929 .0119999949 .019999996 0 .029 0 C .041999997 0 .136 .078 .136 .20300001 C .136 .27100004 .106000009 .316 .061000006 .316 C .023000002 .316 0 .286 0 .255 C 0 .223 .023000002 .194 .061000006 .194 C .076000008 .194 .09099999 .198 .102 .208 Z "/>
</symbol>
<use xlink:href="#font_4_1" transform="matrix(4.9813,0,0,-4.9813,99.596858,46.420377)" fill="#800080"/>
<symbol id="font_5_1">
<path d="M .44500006 .651 C .44500006 .66700008 .44500006 .694 .41700007 .694 C .389 .694 .389 .666 .389 .651 L .389 .056 L .043000014 .056 C .028000012 .056 0 .056 0 .028 C 0 0 .028000012 0 .043000014 0 L .79100009 0 C .80700007 0 .83400008 0 .83400008 .028 C .83400008 .056 .80700007 .056 .79100009 .056 L .44500006 .056 L .44500006 .651 Z "/>
</symbol>
<use xlink:href="#font_5_1" transform="matrix(4.9813,0,0,-4.9813,101.66666,45.454004)" fill="#800080"/>
<path transform="matrix(1,0,0,-1,.598,50.433)" stroke-width="1.19553" stroke-linecap="butt" stroke-miterlimit="10" stroke-linejoin="miter" fill="none" stroke="#008000" d="M 92.1271 -22.32304 L 81.93242 -24.90575 "/>
<path transform="matrix(-.97014,.24577,.24577,.97014,82.530429,75.338748)" d="M 3.18808 0 L -1.91284 2.55046 L 0 0 L -1.91284 -2.55046 " fill="#008000"/>
<use xlink:href="#font_1_1" transform="matrix(4.9813,0,0,-4.9813,86.68589,81.324878)" fill="#008000"/>
<use xlink:href="#font_2_1" transform="matrix(6.9738,0,0,-6.9738,85.289508,88.535)" fill="#008000"/>
<use xlink:href="#font_3_1" transform="matrix(4.9813,0,0,-4.9813,90.81693,90.54321)" fill="#008000"/>
<use xlink:href="#font_4_1" transform="matrix(4.9813,0,0,-4.9813,95.74586,90.83537)" fill="#008000"/>
<symbol id="font_5_2">
<path d="M .055999996 .95900008 C .055999996 .97400006 .055999996 1 .027999998 1 C 0 1 0 .97 0 .95400008 L 0 .04599999 C 0 .029999987 0 0 .027999998 0 C .055999996 0 .055999996 .025999994 .055999996 .040999995 L .055999996 .95900008 M .29400004 .95400008 C .29400004 .97 .29400004 1 .266 1 C .238 1 .238 .97400006 .238 .95900008 L .238 .040999995 C .238 .025999994 .238 0 .266 0 C .29400004 0 .29400004 .029999987 .29400004 .04599999 L .29400004 .95400008 Z "/>
</symbol>
<use xlink:href="#font_5_2" transform="matrix(4.9813,0,0,-4.9813,98.29286,91.11433)" fill="#008000"/>
<symbol id="font_0_6">
<path d="M .698 .22000003 C .71300008 .22000003 .73600009 .22000003 .73600009 .24500004 C .73600009 .26900003 .7120001 .26900003 .69900009 .26900003 L .037000009 .26900003 C .024000004 .26900003 0 .26900003 0 .24500004 C 0 .22000003 .023000002 .22000003 .038000004 .22000003 L .698 .22000003 M .69900009 0 C .7120001 0 .73600009 0 .73600009 .023999997 C .73600009 .049000004 .71300008 .049000004 .698 .049000004 L .038000004 .049000004 C .023000002 .049000004 0 .049000004 0 .023999997 C 0 0 .024000004 0 .037000009 0 L .69900009 0 Z "/>
</symbol>
<use xlink:href="#font_0_6" transform="matrix(6.9738,0,0,-6.9738,104.11316,87.72604)" fill="#008000"/>
<symbol id="font_2_5">
<path d="M .261 .055999996 L .194 .055999996 L .194 .231 C .21900001 .214 .268 .18800001 .338 .18800001 C .51 .18800001 .615 .28500004 .615 .417 C .615 .538 .528 .64400008 .358 .64400008 C .30600003 .64400008 .245 .63400009 .187 .59800007 L .187 .64400008 L 0 .63600006 L 0 .58000007 C .017 .58000007 .037000006 .58000007 .05 .578 C .067 .57500007 .067 .564 .067 .545 L .067 .055999996 L 0 .055999996 L 0 0 C .0009999983 0 .082 .003999993 .13 .003999993 C .179 .003999993 .26000003 0 .261 0 L .261 .055999996 M .194 .51400008 C .194 .533 .195 .53400006 .20899999 .54700008 C .257 .589 .316 .59300008 .337 .59300008 C .42200003 .59300008 .476 .52500006 .476 .417 C .476 .287 .40100003 .23400001 .32500003 .23400001 C .24900002 .23400001 .206 .28800003 .194 .305 L .194 .51400008 Z "/>
</symbol>
<symbol id="font_2_4">
<path d="M .566 .224 C .566 .34300003 .47900007 .45900003 .28300003 .45900003 C .08499999 .45900003 0 .34200005 0 .224 C 0 .107 .089 0 .28300003 0 C .47800002 0 .566 .108 .566 .224 M .28300003 .051000004 C .139 .051000004 .139 .15 .139 .236 C .139 .316 .139 .41300003 .28300003 .41300003 C .42700003 .41300003 .42700003 .316 .42700003 .236 C .42700003 .15 .42700003 .051000004 .28300003 .051000004 Z "/>
</symbol>
<symbol id="font_2_3">
<path d="M .35900004 .813 C .35900004 .861 .32000003 .89500007 .278 .89500007 C .23000002 .89500007 .19600001 .856 .19600001 .814 C .19600001 .76600006 .23500002 .732 .277 .732 C .32500003 .732 .35900004 .771 .35900004 .813 M .165 .642 L .165 .586 C .23100002 .586 .23900002 .586 .23900002 .546 L .23900002 .164 C .23900002 .096999999 .21000001 .04599999 .157 .04599999 C .15300001 .04599999 .12300001 .047999994 .12300001 .051 C .12300001 .053000004 .125 .055999996 .127 .059 C .13000001 .06199999 .13900002 .077 .13900002 .099 C .13900002 .14 .10800001 .168 .07000001 .168 C .028000003 .168 0 .137 0 .099 C 0 .030000002 .07300001 0 .158 0 C .24800001 0 .35900004 .047999994 .35900004 .162 L .35900004 .65000006 L .165 .642 Z "/>
</symbol>
<use xlink:href="#font_2_5" transform="matrix(6.9738,0,0,-6.9738,112.392559,89.887928)" fill="#008000"/>
<use xlink:href="#font_2_6" transform="matrix(6.9738,0,0,-6.9738,117.39974,88.535)" fill="#008000"/>
<use xlink:href="#font_2_4" transform="matrix(6.9738,0,0,-6.9738,121.026119,88.57684)" fill="#008000"/>
<use xlink:href="#font_2_3" transform="matrix(6.9738,0,0,-6.9738,125.37079,89.92976)" fill="#008000"/>
<use xlink:href="#font_1_1" transform="matrix(4.9813,0,0,-4.9813,129.09688,87.937877)" fill="#008000"/>
<symbol id="font_3_2">
<path d="M .19700001 .19700001 C .19700001 .305 .26 .38900004 .34500004 .39600004 C .339 .386 .33500005 .38000003 .33500005 .35700003 C .33500005 .314 .36700005 .284 .408 .284 C .44900007 .284 .481 .31300003 .481 .35700003 C .481 .41500003 .42300005 .45200003 .35500003 .45200003 C .26700003 .45200003 .20800002 .39000003 .18100001 .33100004 L .17999999 .33100004 L .17999999 .45200003 L 0 .44400005 L 0 .377 C .063999999 .377 .072 .377 .072 .33800004 L .072 .067 L 0 .067 L 0 0 C .046000005 .003 .09200001 .004 .13800001 .004 C .19400002 .004 .25200004 .002 .287 0 L .287 .067 L .19700001 .067 L .19700001 .19700001 Z "/>
</symbol>
<use xlink:href="#font_3_2" transform="matrix(4.9813,0,0,-4.9813,131.18042,92.17901)" fill="#008000"/>
<symbol id="font_0_1">
<path d="M .24000001 .9990001 C .050000006 .86500009 0 .653 0 .5 C 0 .35900004 .042000005 .14000002 .24000001 0 C .248 0 .26000003 0 .26000003 .0119999949 C .26000003 .018000007 .257 .019999996 .25 .026999996 C .117000009 .14700002 .06800001 .31700004 .06800001 .499 C .06800001 .76900008 .171 .901 .25300003 .975 C .257 .97900006 .26000003 .98200008 .26000003 .98700007 C .26000003 .9990001 .248 .9990001 .24000001 .9990001 Z "/>
</symbol>
<use xlink:href="#font_0_1" transform="matrix(6.9738,0,0,-6.9738,137.38898,90.27148)" fill="#008000"/>
<use xlink:href="#font_1_1" transform="matrix(4.9813,0,0,-4.9813,140.26387,83.00988)" fill="#008000"/>
<use xlink:href="#font_2_2" transform="matrix(6.9738,0,0,-6.9738,141.43793,89.93674)" fill="#008000"/>
<symbol id="font_0_2">
<path d="M .019000002 .9990001 C .012000002 .9990001 0 .9990001 0 .98700007 C 0 .98200008 .0029999987 .97900006 .009000003 .97200009 C .095000009 .89300009 .19100002 .758 .19100002 .5 C .19100002 .291 .12600002 .13300002 .018 .034999998 C .001000002 .018000007 0 .017000005 0 .0119999949 C 0 .0069999995 .0029999987 0 .013000004 0 C .024999999 0 .12000001 .066 .18599999 .19100002 C .23000002 .27400003 .259 .38200004 .259 .499 C .259 .64000007 .21700001 .859 .019000002 .9990001 Z "/>
</symbol>
<use xlink:href="#font_0_2" transform="matrix(6.9738,0,0,-6.9738,147.7501,90.27148)" fill="#008000"/>
</svg>
