<?xml version="1.0" encoding="UTF-8" standalone="no"?>
<!DOCTYPE svg PUBLIC "-//W3C//DTD SVG 1.1//EN" "http://www.w3.org/Graphics/SVG/1.1/DTD/svg11.dtd">
<svg xmlns="http://www.w3.org/2000/svg" xmlns:xlink="http://www.w3.org/1999/xlink" version="1.1" width="153.289pt" height="92.479pt" viewBox="0 0 153.289 92.479">
<path transform="matrix(1,0,0,-1,.598,50.434)" stroke-width="1" stroke-linecap="butt" stroke-miterlimit="10" stroke-linejoin="miter" fill="none" stroke="#000000" d="M 141.73404 35.43349 L 141.73404 0 "/>
<symbol id="font_0_3">
<path d="M .092 .578 C .143 .565 .17300001 .565 .18900001 .565 C .321 .565 .39900003 .65500006 .39900003 .67 C .39900003 .681 .39200003 .684 .38700003 .684 C .38500003 .684 .38300003 .684 .37900005 .681 C .35500003 .672 .30200003 .652 .22800002 .652 C .20000002 .652 .14700002 .654 .08200001 .679 C .072000008 .684 .07 .684 .069 .684 C .056 .684 .056 .67300006 .056 .657 L .056 .36200003 C .056 .34500004 .056 .33300004 .072000008 .33300004 C .08100001 .33300004 .08200001 .33500005 .092 .34700004 C .13500002 .40200005 .19600001 .41000004 .231 .41000004 C .291 .41000004 .31800003 .36200003 .323 .35400004 C .34100003 .32100005 .34700004 .28300003 .34700004 .22500001 C .34700004 .19500001 .34700004 .136 .31700004 .09200001 C .29200004 .056 .24900002 .032 .20000002 .032 C .13500002 .032 .06800001 .068 .043000007 .134 C .08100001 .13100001 .1 .156 .1 .183 C .1 .22600001 .063 .23400001 .050000006 .23400001 C .048000009 .23400001 0 .23400001 0 .18 C 0 .09 .08200001 0 .20200002 0 C .33 0 .442 .095000009 .442 .221 C .442 .33400003 .35600005 .43800003 .23200003 .43800003 C .18800003 .43800003 .136 .42700003 .092 .38900004 L .092 .578 Z "/>
</symbol>
<use xlink:href="#font_0_3" transform="matrix(6.9738,0,0,-6.9738,146.36336,35.103475)"/>
<path transform="matrix(1,0,0,-1,.598,50.434)" stroke-width="1.19553" stroke-linecap="butt" stroke-miterlimit="10" stroke-linejoin="miter" fill="none" stroke="#000080" d="M 0 0 L 138.634 34.65857 "/>
<path transform="matrix(.97238,-.24307,-.24307,-.97238,139.23201,15.775448)" d="M 3.18808 0 L -1.91284 2.55046 L 0 0 L -1.91284 -2.55046 " fill="#000080"/>
<symbol id="font_1_1">
<path d="M 1.2490001 0 C 1.273 0 1.289 0 1.289 .033999996 C 1.289 .044999988 1.289 .060000004 1.273 .065999988 C 1.229 .08500001 1.176 .10699999 1.1060001 .164 C 1.041 .21700001 1.008 .266 .985 .301 C .97300007 .31800003 .969 .31800003 .94200006 .31800003 C .9250001 .31800003 .89900007 .31800003 .89900007 .29299999 C .89900007 .275 .972 .15900001 1.069 .085999999 L .05600001 .085999999 C .042999999 .085999999 0 .085999999 0 .042999984 C 0 0 .042999999 0 .05600001 0 L 1.2490001 0 Z "/>
</symbol>
<use xlink:href="#font_1_1" transform="matrix(4.9813,0,0,-4.9813,139.11589,5.4828789)" fill="#000080"/>
<symbol id="font_2_2">
<path d="M .187 .21000001 C .187 .3 .22800002 .39900003 .31800003 .404 C .317 .40300004 .30400003 .386 .30400003 .36100004 C .30400003 .32200004 .33200003 .293 .372 .293 C .412 .293 .44000004 .32200004 .44000004 .36100004 C .44000004 .416 .384 .45000003 .322 .45000003 C .25 .45000003 .20199999 .402 .175 .34 L .17400001 .34 L .17400001 .45000003 L 0 .44200004 L 0 .386 C .059000005 .386 .067 .386 .067 .347 L .067 .056 L 0 .056 L 0 0 C .0040000008 0 .081 .004 .128 .004 C .16700001 .004 .264 0 .271 0 L .271 .056 L .187 .056 L .187 .21000001 Z "/>
</symbol>
<use xlink:href="#font_2_2" transform="matrix(6.9738,0,0,-6.9738,140.84957,11.008011)" fill="#000080"/>
<path transform="matrix(1,0,0,-1,.598,50.434)" stroke-width="1" stroke-linecap="butt" stroke-miterlimit="10" stroke-linejoin="miter" fill="none" stroke="#000000" d="M 0 0 L 141.73404 0 "/>
<symbol id="font_0_2">
<path d="M .442 .18200001 L .40800003 .18200001 C .40500004 .16000001 .39500005 .101 .38200004 .091000009 C .374 .085 .29700003 .085 .28300003 .085 L .099 .085 C .20400003 .178 .23900002 .20600002 .29900003 .25300003 C .37300004 .312 .442 .374 .442 .469 C .442 .59000006 .33600004 .66400006 .20800004 .66400006 C .084 .66400006 0 .577 0 .485 C 0 .43400003 .043000007 .42900003 .053000004 .42900003 C .077 .42900003 .10600001 .446 .10600001 .48200003 C .10600001 .5 .099 .535 .047000007 .535 C .078 .606 .146 .628 .19300002 .628 C .293 .628 .34500004 .55 .34500004 .469 C .34500004 .38200004 .28300003 .31300003 .25100003 .277 L .010000005 .039 C 0 .030000002 0 .028 0 0 L .41200004 0 L .442 .18200001 Z "/>
</symbol>
<symbol id="font_0_1">
<path d="M .46400006 .33900003 C .46400006 .44900004 .45100004 .528 .40500004 .598 C .374 .644 .31200005 .684 .23200001 .684 C 0 .684 0 .41100005 0 .33900003 C 0 .26700003 0 0 .23200001 0 C .46400006 0 .46400006 .26700003 .46400006 .33900003 M .23200001 .028 C .186 .028 .125 .055 .105000007 .13700001 C .091000009 .19600001 .091000009 .27800004 .091000009 .35200004 C .091000009 .42500005 .091000009 .50100007 .106000009 .556 C .127 .635 .19100002 .656 .23200001 .656 C .286 .656 .338 .623 .356 .565 C .37200005 .51100006 .37300004 .43900005 .37300004 .35200004 C .37300004 .27800004 .37300004 .20400001 .36 .141 C .34000004 .050000006 .272 .028 .23200001 .028 Z "/>
</symbol>
<use xlink:href="#font_0_2" transform="matrix(6.9738,0,0,-6.9738,82.106349,58.520998)"/>
<use xlink:href="#font_0_1" transform="matrix(6.9738,0,0,-6.9738,86.00471,58.660474)"/>
<path transform="matrix(1,0,0,-1,.598,50.434)" stroke-width="1" stroke-linecap="butt" stroke-miterlimit="10" stroke-linejoin="miter" fill="none" stroke="#000000" d="M 70.867 17.71674 L 65.55199 38.97685 L 86.81209 44.29187 L 92.1271 23.03177 "/>
<path transform="matrix(1,0,0,-1,.598,50.434)" stroke-width="1.19553" stroke-linecap="butt" stroke-miterlimit="10" stroke-linejoin="miter" fill="none" stroke="#800000" d="M 78.83955 31.0043 L 78.83955 -22.5012 "/>
<path transform="matrix(0,1,1,0,79.437549,72.935199)" d="M 3.18808 0 L -1.91284 2.55046 L 0 0 L -1.91284 -2.55046 " fill="#800000"/>
<use xlink:href="#font_1_1" transform="matrix(4.9813,0,0,-4.9813,76.221889,82.202869)" fill="#800000"/>
<symbol id="font_2_1">
<path d="M .198 .29000003 C .163 .29000003 .149 .29000003 .132 .30400003 C .121999997 .312 .109 .32700003 .109 .351 C .109 .357 .109 .36800004 .116 .37700004 C .168 .352 .226 .352 .247 .352 C .41600005 .352 .46600006 .44 .46600006 .50100007 C .46600006 .55200007 .43500004 .586 .42600004 .594 C .44200004 .6 .465 .607 .48600004 .609 C .48400007 .60400006 .483 .596 .483 .59000006 C .483 .554 .513 .53900006 .533 .53900006 C .556 .53900006 .584 .556 .584 .59000006 C .584 .62100008 .559 .65700009 .509 .65700009 C .46800003 .65700009 .42300005 .64100006 .39300005 .619 C .33400003 .651 .27100004 .651 .247 .651 C .08400001 .651 .029000003 .566 .029000003 .50200006 C .029000003 .44500003 .063999999 .41300003 .082 .398 C .059000005 .37 .05 .34100003 .05 .31 C .05 .273 .063999999 .24000001 .09 .214 C .055000005 .206 0 .18100001 0 .12900001 C 0 .069000009 .07000001 0 .28300003 0 C .46700005 0 .566 .053000004 .566 .132 C .566 .15200001 .563 .224 .48000006 .263 C .42000003 .29000003 .35400004 .29000003 .25200004 .29000003 L .198 .29000003 M .247 .398 C .148 .398 .148 .462 .148 .50100007 C .148 .541 .148 .605 .247 .605 C .34700004 .605 .34700004 .54200008 .34700004 .50200006 C .34700004 .46100004 .34700004 .398 .247 .398 M .31300003 .18200001 C .33800004 .18200001 .46800003 .18200001 .46800003 .12900001 C .46800003 .096 .42600004 .046000005 .28300003 .046000005 C .146 .046000005 .098000008 .093 .098000008 .13 C .098000008 .18200001 .16700001 .18200001 .18 .18200001 L .31300003 .18200001 Z "/>
</symbol>
<use xlink:href="#font_2_1" transform="matrix(6.9738,0,0,-6.9738,77.39695,89.13073)" fill="#800000"/>
</svg>
