<?xml version="1.0" encoding="UTF-8" standalone="no"?>
<!DOCTYPE svg PUBLIC "-//W3C//DTD SVG 1.1//EN" "http://www.w3.org/Graphics/SVG/1.1/DTD/svg11.dtd">
<svg xmlns="http://www.w3.org/2000/svg" xmlns:xlink="http://www.w3.org/1999/xlink" version="1.1" width="113.784pt" height="113.784pt" viewBox="0 0 113.784 113.784">
<path transform="matrix(1,0,0,-1,14.372,99.411998)" stroke-width="1" stroke-linecap="butt" stroke-dasharray="2.98883,2.98883" stroke-miterlimit="10" stroke-linejoin="miter" fill="none" stroke="#000000" d="M -14.17339 -14.17339 L 99.21382 99.21382 "/>
<path transform="matrix(1,0,0,-1,14.372,99.411998)" stroke-width="1.59404" stroke-linecap="butt" stroke-miterlimit="10" stroke-linejoin="miter" fill="none" stroke="#008000" d="M 0 0 L 81.4453 27.14844 "/>
<path transform="matrix(.94963,-.31654,-.31654,-.94963,95.81728,72.26356)" d="M 3.78581 0 L -2.27148 3.02866 L 0 0 L -2.27148 -3.02866 " fill="#008000"/>
<path transform="matrix(1,0,0,-1,14.372,99.411998)" stroke-width="1.59404" stroke-linecap="butt" stroke-miterlimit="10" stroke-linejoin="miter" fill="none" stroke="#800000" d="M 0 0 L 17.3641 17.36423 "/>
<path transform="matrix(.70714,-.7071,-.7071,-.70714,31.7361,82.04778)" d="M 3.78581 0 L -2.27148 3.02866 L 0 0 L -2.27148 -3.02866 " fill="#800000"/>
<symbol id="font_0_1">
<path d="M 1.098 0 C 1.12 0 1.1350001 0 1.1350001 .029 C 1.1350001 .039000006 1.1350001 .049999983 1.1220001 .05700001 C 1.067 .083000008 .95300009 .137 .86800006 .28800003 C .85600009 .307 .855 .308 .82900008 .308 C .81200006 .308 .79300007 .308 .79300007 .28599999 C .79300007 .272 .8510001 .15599999 .9560001 .072999987 L .051000008 .072999987 C .036 .072999987 0 .072999987 0 .037 C 0 0 .035000005 0 .051000008 0 L 1.098 0 Z "/>
</symbol>
<use xlink:href="#font_0_1" transform="matrix(6.9738,0,0,-6.9738,52.92893,91.2006)" fill="#008000"/>
<symbol id="font_1_1">
<path d="M .48000006 .38000003 C .48600004 .39400003 .49000005 .40100003 .554 .40100003 L .554 .44800005 C .529 .44600005 .5 .44500003 .47500006 .44500003 C .45000003 .44500003 .40500004 .44700004 .38400004 .44800005 L .38400004 .40100003 C .40300004 .40100003 .43200005 .39800004 .43200005 .39000003 C .43200005 .38900004 .43100003 .38700003 .42700003 .37800003 L .31100003 .128 L .18400002 .40100003 L .238 .40100003 L .238 .44800005 C .20500002 .44600005 .115 .44500003 .114 .44500003 C .086 .44500003 .041 .44700004 0 .44800005 L 0 .40100003 L .064 .40100003 L .23900002 .025000003 C .25100003 0 .26400004 0 .277 0 C .29400004 0 .30400003 .003 .314 .024000003 L .48000006 .38000003 Z "/>
</symbol>
<use xlink:href="#font_1_1" transform="matrix(9.9626,0,0,-9.9626,54.048028,99.15385)" fill="#008000"/>
<use xlink:href="#font_0_1" transform="matrix(6.9738,0,0,-6.9738,16.07893,82.466609)" fill="#800000"/>
<symbol id="font_1_2">
<path d="M .7120001 .38000003 C .71700009 .39300005 .7210001 .40100003 .7800001 .40100003 L .7800001 .44800005 C .7570001 .44600005 .72700008 .44500003 .70300009 .44500003 C .67600008 .44500003 .62900009 .44700004 .60700008 .44800005 L .60700008 .40100003 C .61600008 .40100003 .6650001 .40000005 .6650001 .38900004 C .6650001 .38600005 .66200008 .38000003 .6610001 .37700004 L .55600008 .12100001 L .442 .40100003 L .498 .40100003 L .498 .44800005 C .46600003 .44700004 .414 .44500003 .384 .44500003 C .342 .44500003 .3 .44700004 .284 .44800005 L .284 .40100003 L .34300003 .40100003 C .36400003 .351 .36400003 .34900005 .36400003 .34800003 C .36400003 .344 .361 .33800004 .36 .33500005 L .28100003 .143 L .176 .40100003 L .232 .40100003 L .232 .44800005 C .191 .44600005 .15 .44500003 .109000008 .44500003 C .07800001 .44500003 .034 .44700004 0 .44800005 L 0 .40100003 L .059000009 .40100003 L .21200001 .027000003 C .21900001 .01 .223 0 .248 0 C .273 0 .277 .01 .284 .027000003 L .39000003 .286 L .49600003 .027000003 C .503 .01 .507 0 .53200009 0 C .55700007 0 .56100007 .01 .5680001 .027000003 L .7120001 .38000003 Z "/>
</symbol>
<use xlink:href="#font_1_2" transform="matrix(9.9626,0,0,-9.9626,16.074065,90.418849)" fill="#800000"/>
</svg>
