<?xml version="1.0" encoding="UTF-8" standalone="no"?>
<!DOCTYPE svg PUBLIC "-//W3C//DTD SVG 1.1//EN" "http://www.w3.org/Graphics/SVG/1.1/DTD/svg11.dtd">
<svg xmlns="http://www.w3.org/2000/svg" xmlns:xlink="http://www.w3.org/1999/xlink" version="1.1" width="187.909pt" height="189.879pt" viewBox="0 0 187.909 189.879">
<path transform="matrix(1,0,0,-1,13.948,174.492)" stroke-width="1" stroke-linecap="butt" stroke-miterlimit="10" stroke-linejoin="miter" fill="none" stroke="#bfbfbf" d="M 40.34909 0 L 40.34909 161.39636 M 80.69818 0 L 80.69818 161.39636 M 121.04727 0 L 121.04727 161.39636 M 161.39636 0 L 161.39636 161.39636 "/>
<path transform="matrix(1,0,0,-1,13.948,174.492)" stroke-width="1" stroke-linecap="butt" stroke-miterlimit="10" stroke-linejoin="miter" fill="none" stroke="#bfbfbf" d="M 0 40.34909 L 161.39636 40.34909 M 0 80.69818 L 161.39636 80.69818 M 0 121.04727 L 161.39636 121.04727 M 0 161.39636 L 161.39636 161.39636 "/>
<path transform="matrix(1,0,0,-1,13.948,174.492)" stroke-width="1" stroke-linecap="butt" stroke-miterlimit="10" stroke-linejoin="miter" fill="none" stroke="#808080" d="M 40.34909 -2.12596 L 40.34909 2.12596 M 80.69818 -2.12596 L 80.69818 2.12596 M 121.04727 -2.12596 L 121.04727 2.12596 M 161.39636 -2.12596 L 161.39636 2.12596 "/>
<path transform="matrix(1,0,0,-1,13.948,174.492)" stroke-width="1" stroke-linecap="butt" stroke-miterlimit="10" stroke-linejoin="miter" fill="none" stroke="#808080" d="M -2.12596 40.34909 L 2.12596 40.34909 M -2.12596 80.69818 L 2.12596 80.69818 M -2.12596 121.04727 L 2.12596 121.04727 M -2.12596 161.39636 L 2.12596 161.39636 "/>
<path transform="matrix(1,0,0,-1,13.948,174.492)" stroke-width="1" stroke-linecap="butt" stroke-miterlimit="10" stroke-linejoin="miter" fill="none" stroke="#000000" d="M 0 0 L 159.40384 0 "/>
<path transform="matrix(1,0,0,-1,173.35184,174.492)" d="M 1.99252 0 L -1.19551 1.59401 L 0 0 L -1.19551 -1.59401 "/>
<path transform="matrix(1,0,0,-1,13.948,174.492)" stroke-width="1" stroke-linecap="butt" stroke-miterlimit="10" stroke-linejoin="miter" fill="none" stroke="#000000" d="M 0 0 L 0 159.40384 "/>
<path transform="matrix(0,-1,-1,-0,13.948,15.088165)" d="M 1.99252 0 L -1.19551 1.59401 L 0 0 L -1.19551 -1.59401 "/>
<symbol id="font_0_3">
<path d="M .205 .64000007 C .205 .66400006 .205 .666 .18200003 .666 C .120000008 .60200008 .032000007 .60200008 0 .60200008 L 0 .57100006 C .020000004 .57100006 .07900001 .57100006 .13100001 .597 L .13100001 .079 C .13100001 .043 .128 .031000002 .038000004 .031000002 L .0060000049 .031000002 L .0060000049 0 C .04100001 .003 .128 .003 .168 .003 C .20800002 .003 .29500003 .003 .33000005 0 L .33000005 .031000002 L .29800005 .031000002 C .20800002 .031000002 .205 .042000005 .205 .079 L .205 .64000007 Z "/>
</symbol>
<use xlink:href="#font_0_3" transform="matrix(9.9626,0,0,-9.9626,52.691675,186.558)"/>
<symbol id="font_0_4">
<path d="M .07700001 .07700001 L .18300002 .18 C .33900003 .31800003 .39900003 .372 .39900003 .47200004 C .39900003 .586 .30900003 .666 .18700002 .666 C .074 .666 0 .574 0 .485 C 0 .42900003 .05 .42900003 .053000008 .42900003 C .07000001 .42900003 .105000007 .441 .105000007 .48200003 C .105000007 .508 .08700001 .53400006 .052000006 .53400006 C .044000005 .53400006 .042000008 .53400006 .039 .53300008 C .062000004 .59800007 .11600001 .63500007 .17400001 .63500007 C .26500003 .63500007 .308 .554 .308 .47200004 C .308 .39200003 .25800003 .31300003 .20300003 .25100003 L .011000004 .037 C 0 .026 0 .024 0 0 L .37100003 0 L .39900003 .17400001 L .374 .17400001 C .36900003 .14400001 .36200003 .1 .352 .085 C .345 .07700001 .279 .07700001 .257 .07700001 L .07700001 .07700001 Z "/>
</symbol>
<use xlink:href="#font_0_4" transform="matrix(9.9626,0,0,-9.9626,92.65213,186.558)"/>
<symbol id="font_0_5">
<path d="M .24800003 .37400005 C .33 .40100003 .388 .47100006 .388 .55 C .388 .632 .3 .688 .204 .688 C .10300001 .688 .027000003 .628 .027000003 .55200007 C .027000003 .519 .049000004 .5 .078 .5 C .109000008 .5 .12900001 .522 .12900001 .55100008 C .12900001 .6010001 .082 .6010001 .067 .6010001 C .098 .65000006 .164 .66300007 .20000002 .66300007 C .24100003 .66300007 .29600004 .64100006 .29600004 .55100008 C .29600004 .53900006 .29400004 .48100005 .268 .43700005 C .238 .38900004 .204 .38600005 .17900002 .38500003 C .171 .38400004 .14700002 .38200004 .14000002 .38200004 C .132 .38100005 .125 .38000003 .125 .37000004 C .125 .35900004 .132 .35900004 .14900002 .35900004 L .19300002 .35900004 C .275 .35900004 .312 .29100005 .312 .193 C .312 .057000005 .24300003 .028 .199 .028 C .15600002 .028 .081 .045 .046000005 .104 C .081 .09900001 .11200001 .12100001 .11200001 .15900001 C .11200001 .19500001 .085 .215 .056 .215 C .031999999 .215 0 .201 0 .157 C 0 .06600001 .093 0 .20200002 0 C .32400004 0 .41500003 .091000009 .41500003 .193 C .41500003 .27500005 .35200004 .35300005 .24800003 .37400005 Z "/>
</symbol>
<use xlink:href="#font_0_5" transform="matrix(9.9626,0,0,-9.9626,132.92144,186.77718)"/>
<symbol id="font_0_6">
<path d="M .266 .165 L .266 .078 C .266 .042000005 .26400004 .031000002 .19000001 .031000002 L .16900002 .031000002 L .16900002 0 C .21000001 .003 .26200003 .003 .30400003 .003 C .34600003 .003 .39900003 .003 .44000004 0 L .44000004 .031000002 L .41900004 .031000002 C .34500004 .031000002 .34300003 .042000005 .34300003 .078 L .34300003 .165 L .44300003 .165 L .44300003 .19600001 L .34300003 .19600001 L .34300003 .651 C .34300003 .671 .34300003 .67700007 .32700003 .67700007 C .31800003 .67700007 .31500004 .67700007 .307 .665 L 0 .19600001 L 0 .165 L .266 .165 M .272 .19600001 L .028 .19600001 L .272 .569 L .272 .19600001 Z "/>
</symbol>
<use xlink:href="#font_0_6" transform="matrix(9.9626,0,0,-9.9626,173.12995,186.558)"/>
<use xlink:href="#font_0_3" transform="matrix(9.9626,0,0,-9.9626,4.2076718,137.354)"/>
<use xlink:href="#font_0_4" transform="matrix(9.9626,0,0,-9.9626,3.8191303,97.005)"/>
<use xlink:href="#font_0_5" transform="matrix(9.9626,0,0,-9.9626,3.7394293,56.876176)"/>
<use xlink:href="#font_0_6" transform="matrix(9.9626,0,0,-9.9626,3.599953,16.307999)"/>
<path transform="matrix(1,0,0,-1,13.948,174.492)" stroke-width="1.19553" stroke-linecap="butt" stroke-miterlimit="10" stroke-linejoin="miter" fill="none" stroke="#000080" d="M 0 0 L 6.72481 .28018 L 13.44963 1.12079 L 20.17445 2.52179 L 26.89928 4.48318 L 33.6241 7.00497 L 40.34892 10.08717 L 47.07375 13.72978 L 53.79857 17.93277 L 60.52338 22.69617 L 67.2482 28.01994 L 73.97302 33.90413 L 80.69785 40.34877 L 87.42265 47.35374 L 94.14748 54.91913 L 100.8723 63.0449 L 107.59712 71.73108 L 114.32195 80.97772 L 121.04675 90.7847 L 127.77158 101.15207 L 134.4964 112.07991 L 141.22122 123.568 L 147.94603 135.61667 L 154.67086 148.2256 L 161.39568 161.39496 "/>
<symbol id="font_1_3">
<path d="M .45700003 .586 C .461 .6 .461 .602 .461 .609 C .461 .62700006 .447 .63600006 .432 .63600006 C .42200003 .63600006 .40600003 .63 .397 .615 C .395 .61 .387 .579 .38300003 .561 C .37600003 .535 .36900003 .508 .363 .48100005 L .318 .301 C .314 .286 .271 .21600002 .20500002 .21600002 C .15400002 .21600002 .143 .26000003 .143 .29700003 C .143 .34300003 .16000001 .40500004 .194 .49300004 C .21000001 .53400006 .21400002 .545 .21400002 .56500008 C .21400002 .61 .18200001 .6470001 .13200002 .6470001 C .037 .6470001 0 .50200006 0 .49300004 C 0 .48300005 .01 .48300005 .012 .48300005 C .022000002 .48300005 .023 .485 .028000003 .50100007 C .055000009 .595 .095000009 .625 .12900001 .625 C .13700001 .625 .15400002 .625 .15400002 .59300008 C .15400002 .568 .14400001 .54200008 .13700001 .523 C .097 .41700004 .079 .36 .079 .31300003 C .079 .224 .142 .194 .201 .194 C .24000003 .194 .274 .21100001 .30200003 .23900002 C .289 .187 .277 .13800001 .237 .08500001 C .21100001 .051 .17300001 .022 .127 .022 C .113000009 .022 .068 .025000006 .051000008 .06400001 C .067 .06400001 .080000009 .06400001 .094000007 .076000008 C .104 .08500001 .11400001 .098000008 .11400001 .117000009 C .11400001 .148 .087000008 .15200001 .07700001 .15200001 C .054000006 .15200001 .021 .136 .021 .087000008 C .021 .037 .065000008 0 .127 0 C .23 0 .333 .091000009 .361 .20400001 L .45700003 .586 Z "/>
</symbol>
<use xlink:href="#font_1_3" transform="matrix(9.9626,0,0,-9.9626,35.62591,57.97933)" fill="#000080"/>
<symbol id="font_0_7">
<path d="M .63100007 .19400002 C .646 .19400002 .665 .19400002 .665 .214 C .665 .23400001 .646 .23400001 .632 .23400001 L .033 .23400001 C .019000002 .23400001 0 .23400001 0 .214 C 0 .19400002 .019000002 .19400002 .034 .19400002 L .63100007 .19400002 M .632 0 C .646 0 .665 0 .665 .02000001 C .665 .040000008 .646 .040000008 .63100007 .040000008 L .034 .040000008 C .019000002 .040000008 0 .040000008 0 .02000001 C 0 0 .019000002 0 .033 0 L .632 0 Z "/>
</symbol>
<use xlink:href="#font_0_7" transform="matrix(9.9626,0,0,-9.9626,43.903905,54.61197)" fill="#000080"/>
<symbol id="font_1_1">
<path d="M .314 .605 L .4 .605 C .42000003 .605 .43 .605 .43 .625 C .43 .63600006 .42000003 .63600006 .40300004 .63600006 L .32000003 .63600006 L .34100003 .75 C .34500004 .771 .35900004 .842 .365 .8540001 C .374 .873 .39100004 .888 .41200004 .888 C .416 .888 .44200004 .888 .461 .87 C .41700004 .86600008 .407 .8310001 .407 .816 C .407 .793 .425 .781 .444 .781 C .47 .781 .49900005 .8030001 .49900005 .8410001 C .49900005 .8870001 .45300005 .9100001 .41200004 .9100001 C .37800003 .9100001 .31500004 .8920001 .28500004 .793 C .279 .7720001 .27600003 .7620001 .252 .63600006 L .18300002 .63600006 C .164 .63600006 .15300001 .63600006 .15300001 .61700007 C .15300001 .605 .162 .605 .18100001 .605 L .24700001 .605 L .172 .21000001 C .15400002 .113000009 .13700001 .022 .08500001 .022 C .081 .022 .056 .022 .037 .040000008 C .083000008 .043000014 .09200001 .07900001 .09200001 .094000007 C .09200001 .117000009 .074 .12900001 .055 .12900001 C .029 .12900001 0 .10700001 0 .069000009 C 0 .024000004 .044 0 .08500001 0 C .14 0 .18 .059 .19800002 .09700001 C .23000002 .16000001 .25300003 .28100003 .254 .28800003 L .314 .605 Z "/>
</symbol>
<use xlink:href="#font_1_1" transform="matrix(9.9626,0,0,-9.9626,54.391016,57.97933)" fill="#000080"/>
<symbol id="font_0_1">
<path d="M .23200003 .00999999 C .23200003 .012999982 .23200003 .014999986 .215 .03199999 C .09 .15799999 .058 .347 .058 .5 C .058 .674 .096 .84800007 .21900001 .97300007 C .23200003 .985 .23200003 .98700007 .23200003 .99 C .23200003 .99700006 .22800002 1 .222 1 C .21200001 1 .12200001 .93200007 .06299999 .805 C .012000002 .69500008 0 .584 0 .5 C 0 .422 .011 .301 .066 .188 C .126 .065 .21200001 0 .222 0 C .22800002 0 .23200003 .0029999912 .23200003 .00999999 Z "/>
</symbol>
<use xlink:href="#font_0_1" transform="matrix(9.9626,0,0,-9.9626,60.798295,58.427648)" fill="#000080"/>
<symbol id="font_1_2">
<path d="M .305 .31300003 C .311 .33900003 .334 .43100003 .404 .43100003 C .409 .43100003 .433 .43100003 .454 .418 C .426 .41300003 .40600003 .388 .40600003 .36400003 C .40600003 .34800003 .417 .32900004 .444 .32900004 C .46600003 .32900004 .498 .34700004 .498 .38700003 C .498 .43900005 .439 .45300005 .405 .45300005 C .347 .45300005 .312 .40000005 .3 .37700004 C .275 .44300003 .221 .45300005 .19200002 .45300005 C .08800001 .45300005 .031000002 .32400004 .031000002 .29900003 C .031000002 .28900004 .041 .28900004 .043000007 .28900004 C .051000008 .28900004 .054000006 .291 .056 .3 C .09 .40600003 .156 .43100003 .19000001 .43100003 C .209 .43100003 .244 .42200003 .244 .36400003 C .244 .33300004 .22700002 .26600004 .19000001 .126 C .17400001 .064 .13900002 .022000002 .095000009 .022000002 C .08900001 .022000002 .06600001 .022000002 .045 .035 C .07000001 .040000004 .09200001 .061 .09200001 .089 C .09200001 .116000007 .07000001 .124000009 .055000009 .124000009 C .025 .124000009 0 .098000008 0 .06600001 C 0 .020000002 .050000006 0 .094000007 0 C .16000001 0 .19600001 .07000001 .19900002 .076000008 C .21100001 .039 .24700003 0 .307 0 C .41 0 .467 .12900001 .467 .15400002 C .467 .16400002 .458 .16400002 .455 .16400002 C .446 .16400002 .444 .16000001 .442 .15300001 C .409 .046 .341 .022000002 .30900003 .022000002 C .27 .022000002 .254 .054 .254 .08800001 C .254 .11000001 .26 .13200002 .271 .17600002 L .305 .31300003 Z "/>
</symbol>
<use xlink:href="#font_1_2" transform="matrix(9.9626,0,0,-9.9626,63.97591,56.046586)" fill="#000080"/>
<symbol id="font_0_2">
<path d="M .232 .5 C .232 .578 .22100002 .699 .16600001 .81200006 C .106 .93500009 .020000004 1 .009999998 1 C .0040000008 1 0 .99600008 0 .99 C 0 .98700007 0 .985 .019000002 .967 C .117000009 .86800006 .174 .709 .174 .5 C .174 .329 .137 .153 .012999997 .026999996 C 0 .014999986 0 .012999982 0 .00999999 C 0 .003999993 .0040000008 0 .009999998 0 C .020000004 0 .11000001 .06799999 .169 .195 C .22 .305 .232 .416 .232 .5 Z "/>
</symbol>
<use xlink:href="#font_0_2" transform="matrix(9.9626,0,0,-9.9626,69.94887,58.427648)" fill="#000080"/>
<path transform="matrix(1,0,0,-1,13.948,174.492)" d="M 1.99255 0 C 1.99255 1.10046 1.10046 1.99255 0 1.99255 C -1.10046 1.99255 -1.99255 1.10046 -1.99255 0 C -1.99255 -1.10046 -1.10046 -1.99255 0 -1.99255 C 1.10046 -1.99255 1.99255 -1.10046 1.99255 0 Z M 0 0 " fill="#000080"/>
<path transform="matrix(1,0,0,-1,13.948,174.492)" stroke-width="1" stroke-linecap="butt" stroke-miterlimit="10" stroke-linejoin="miter" fill="none" stroke="#000080" d="M 1.99255 0 C 1.99255 1.10046 1.10046 1.99255 0 1.99255 C -1.10046 1.99255 -1.99255 1.10046 -1.99255 0 C -1.99255 -1.10046 -1.10046 -1.99255 0 -1.99255 C 1.10046 -1.99255 1.99255 -1.10046 1.99255 0 Z M 0 0 "/>
<path transform="matrix(1,0,0,-1,13.948,174.492)" d="M 163.38892 161.39636 C 163.38892 162.49683 162.49683 163.38892 161.39636 163.38892 C 160.29589 163.38892 159.40381 162.49683 159.40381 161.39636 C 159.40381 160.29589 160.29589 159.40381 161.39636 159.40381 C 162.49683 159.40381 163.38892 160.29589 163.38892 161.39636 Z M 161.39636 161.39636 " fill="#000080"/>
<path transform="matrix(1,0,0,-1,13.948,174.492)" stroke-width="1" stroke-linecap="butt" stroke-miterlimit="10" stroke-linejoin="miter" fill="none" stroke="#000080" d="M 163.38892 161.39636 C 163.38892 162.49683 162.49683 163.38892 161.39636 163.38892 C 160.29589 163.38892 159.40381 162.49683 159.40381 161.39636 C 159.40381 160.29589 160.29589 159.40381 161.39636 159.40381 C 162.49683 159.40381 163.38892 160.29589 163.38892 161.39636 Z M 161.39636 161.39636 "/>
<use xlink:href="#font_1_2" transform="matrix(9.9626,0,0,-9.9626,179.18392,176.7466)"/>
<use xlink:href="#font_1_3" transform="matrix(9.9626,0,0,-9.9626,11.615915,9.652334)"/>
</svg>
