<?xml version="1.0" encoding="UTF-8" standalone="no"?>
<!DOCTYPE svg PUBLIC "-//W3C//DTD SVG 1.1//EN" "http://www.w3.org/Graphics/SVG/1.1/DTD/svg11.dtd">
<svg xmlns="http://www.w3.org/2000/svg" xmlns:xlink="http://www.w3.org/1999/xlink" version="1.1" width="265.283pt" height="125.993pt" viewBox="0 0 265.283 125.993">
<clipPath id="cp0">
<path transform="matrix(1,0,0,-1,9.114,110.459)" d="M 0 0 L 243.17084 0 L 243.17084 99.16782 L 0 99.16782 Z "/>
</clipPath>
<g clip-path="url(#cp0)">
<path transform="matrix(1,0,0,-1,9.114,110.459)" d="M 40.52847 0 L 81.05695 0 L 81.05695 66.11188 L 40.52847 66.11188 L 40.52847 0 " fill="#cccce6"/>
<path transform="matrix(1,0,0,-1,9.114,110.459)" stroke-width="1" stroke-linecap="butt" stroke-miterlimit="10" stroke-linejoin="miter" fill="none" stroke="#000080" d="M 40.52847 0 L 81.05695 0 L 81.05695 66.11188 L 40.52847 66.11188 L 40.52847 0 "/>
<path transform="matrix(1,0,0,-1,9.114,110.459)" d="M 81.05695 0 L 121.58542 0 L 121.58542 33.05594 L 81.05695 33.05594 L 81.05695 0 " fill="#cccce6"/>
<path transform="matrix(1,0,0,-1,9.114,110.459)" stroke-width="1" stroke-linecap="butt" stroke-miterlimit="10" stroke-linejoin="miter" fill="none" stroke="#000080" d="M 81.05695 0 L 121.58542 0 L 121.58542 33.05594 L 81.05695 33.05594 L 81.05695 0 "/>
<path transform="matrix(1,0,0,-1,9.114,110.459)" d="M 121.58542 0 L 162.11389 0 L 162.11389 22.01524 L 121.58542 22.01524 L 121.58542 0 " fill="#cccce6"/>
<path transform="matrix(1,0,0,-1,9.114,110.459)" stroke-width="1" stroke-linecap="butt" stroke-miterlimit="10" stroke-linejoin="miter" fill="none" stroke="#000080" d="M 121.58542 0 L 162.11389 0 L 162.11389 22.01524 L 121.58542 22.01524 L 121.58542 0 "/>
<path transform="matrix(1,0,0,-1,9.114,110.459)" d="M 162.11389 0 L 202.64237 0 L 202.64237 16.52797 L 162.11389 16.52797 L 162.11389 0 " fill="#cccce6"/>
<path transform="matrix(1,0,0,-1,9.114,110.459)" stroke-width="1" stroke-linecap="butt" stroke-miterlimit="10" stroke-linejoin="miter" fill="none" stroke="#000080" d="M 162.11389 0 L 202.64237 0 L 202.64237 16.52797 L 162.11389 16.52797 L 162.11389 0 "/>
<path transform="matrix(1,0,0,-1,9.114,110.459)" d="M 202.64237 0 L 243.17084 0 L 243.17084 13.22237 L 202.64237 13.22237 L 202.64237 0 " fill="#cccce6"/>
<path transform="matrix(1,0,0,-1,9.114,110.459)" stroke-width="1" stroke-linecap="butt" stroke-miterlimit="10" stroke-linejoin="miter" fill="none" stroke="#000080" d="M 202.64237 0 L 243.17084 0 L 243.17084 13.22237 L 202.64237 13.22237 L 202.64237 0 "/>
</g>
<path transform="matrix(1,0,0,-1,9.114,110.459)" stroke-width="1" stroke-linecap="butt" stroke-miterlimit="10" stroke-linejoin="miter" fill="none" stroke="#808080" d="M 40.52847 -2.12599 L 40.52847 2.12599 M 81.05695 -2.12599 L 81.05695 2.12599 M 121.58542 -2.12599 L 121.58542 2.12599 M 162.11389 -2.12599 L 162.11389 2.12599 M 202.64237 -2.12599 L 202.64237 2.12599 "/>
<path transform="matrix(1,0,0,-1,9.114,110.459)" stroke-width="1" stroke-linecap="butt" stroke-miterlimit="10" stroke-linejoin="miter" fill="none" stroke="#808080" d="M -2.12598 66.11188 L 2.12598 66.11188 M -2.12598 33.05594 L 2.12598 33.05594 M -2.12598 22.01524 L 2.12598 22.01524 M -2.12598 16.52797 L 2.12598 16.52797 M -2.12598 13.22237 L 2.12598 13.22237 "/>
<path transform="matrix(1,0,0,-1,9.114,110.459)" stroke-width="1" stroke-linecap="butt" stroke-miterlimit="10" stroke-linejoin="miter" fill="none" stroke="#000000" d="M 0 0 L 241.17832 0 "/>
<path transform="matrix(1,0,0,-1,250.29232,110.459)" d="M 1.99252 0 L -1.19551 1.59401 L 0 0 L -1.19551 -1.59401 "/>
<path transform="matrix(1,0,0,-1,9.114,110.459)" stroke-width="1" stroke-linecap="butt" stroke-miterlimit="10" stroke-linejoin="miter" fill="none" stroke="#000000" d="M 0 0 L 0 97.1753 "/>
<path transform="matrix(0,-1,-1,-0,9.114,13.283699)" d="M 1.99252 0 L -1.19551 1.59401 L 0 0 L -1.19551 -1.59401 "/>
<symbol id="font_1_1">
<path d="M .205 .64000007 C .205 .66400006 .205 .666 .18200003 .666 C .120000008 .60200008 .032000007 .60200008 0 .60200008 L 0 .57100006 C .020000004 .57100006 .07900001 .57100006 .13100001 .597 L .13100001 .079 C .13100001 .043 .128 .031000002 .038000004 .031000002 L .0060000049 .031000002 L .0060000049 0 C .04100001 .003 .128 .003 .168 .003 C .20800002 .003 .29500003 .003 .33000005 0 L .33000005 .031000002 L .29800005 .031000002 C .20800002 .031000002 .205 .042000005 .205 .079 L .205 .64000007 Z "/>
</symbol>
<use xlink:href="#font_1_1" transform="matrix(9.9626,0,0,-9.9626,48.037675,122.599)"/>
<symbol id="font_1_2">
<path d="M .07700001 .07700001 L .18300002 .18 C .33900003 .31800003 .39900003 .372 .39900003 .47200004 C .39900003 .586 .30900003 .666 .18700002 .666 C .074 .666 0 .574 0 .485 C 0 .42900003 .05 .42900003 .053000008 .42900003 C .07000001 .42900003 .105000007 .441 .105000007 .48200003 C .105000007 .508 .08700001 .53400006 .052000006 .53400006 C .044000005 .53400006 .042000008 .53400006 .039 .53300008 C .062000004 .59800007 .11600001 .63500007 .17400001 .63500007 C .26500003 .63500007 .308 .554 .308 .47200004 C .308 .39200003 .25800003 .31300003 .20300003 .25100003 L .011000004 .037 C 0 .026 0 .024 0 0 L .37100003 0 L .39900003 .17400001 L .374 .17400001 C .36900003 .14400001 .36200003 .1 .352 .085 C .345 .07700001 .279 .07700001 .257 .07700001 L .07700001 .07700001 Z "/>
</symbol>
<use xlink:href="#font_1_2" transform="matrix(9.9626,0,0,-9.9626,88.17713,122.599)"/>
<symbol id="font_1_3">
<path d="M .24800003 .37400005 C .33 .40100003 .388 .47100006 .388 .55 C .388 .632 .3 .688 .204 .688 C .10300001 .688 .027000003 .628 .027000003 .55200007 C .027000003 .519 .049000004 .5 .078 .5 C .109000008 .5 .12900001 .522 .12900001 .55100008 C .12900001 .6010001 .082 .6010001 .067 .6010001 C .098 .65000006 .164 .66300007 .20000002 .66300007 C .24100003 .66300007 .29600004 .64100006 .29600004 .55100008 C .29600004 .53900006 .29400004 .48100005 .268 .43700005 C .238 .38900004 .204 .38600005 .17900002 .38500003 C .171 .38400004 .14700002 .38200004 .14000002 .38200004 C .132 .38100005 .125 .38000003 .125 .37000004 C .125 .35900004 .132 .35900004 .14900002 .35900004 L .19300002 .35900004 C .275 .35900004 .312 .29100005 .312 .193 C .312 .057000005 .24300003 .028 .199 .028 C .15600002 .028 .081 .045 .046000005 .104 C .081 .09900001 .11200001 .12100001 .11200001 .15900001 C .11200001 .19500001 .085 .215 .056 .215 C .031999999 .215 0 .201 0 .157 C 0 .06600001 .093 0 .20200002 0 C .32400004 0 .41500003 .091000009 .41500003 .193 C .41500003 .27500005 .35200004 .35300005 .24800003 .37400005 Z "/>
</symbol>
<use xlink:href="#font_1_3" transform="matrix(9.9626,0,0,-9.9626,128.62543,122.81818)"/>
<symbol id="font_1_4">
<path d="M .266 .165 L .266 .078 C .266 .042000005 .26400004 .031000002 .19000001 .031000002 L .16900002 .031000002 L .16900002 0 C .21000001 .003 .26200003 .003 .30400003 .003 C .34600003 .003 .39900003 .003 .44000004 0 L .44000004 .031000002 L .41900004 .031000002 C .34500004 .031000002 .34300003 .042000005 .34300003 .078 L .34300003 .165 L .44300003 .165 L .44300003 .19600001 L .34300003 .19600001 L .34300003 .651 C .34300003 .671 .34300003 .67700007 .32700003 .67700007 C .31800003 .67700007 .31500004 .67700007 .307 .665 L 0 .19600001 L 0 .165 L .266 .165 M .272 .19600001 L .028 .19600001 L .272 .569 L .272 .19600001 Z "/>
</symbol>
<use xlink:href="#font_1_4" transform="matrix(9.9626,0,0,-9.9626,169.01395,122.599)"/>
<symbol id="font_1_5">
<path d="M .39900003 .223 C .39900003 .34200005 .317 .44200004 .209 .44200004 C .16100002 .44200004 .118000019 .42600004 .082 .39100004 L .082 .586 C .10200001 .58000007 .135 .573 .16700001 .573 C .29 .573 .36 .66400006 .36 .67700007 C .36 .683 .357 .688 .35 .688 C .349 .688 .347 .688 .342 .68500009 C .322 .67600008 .273 .656 .20600002 .656 C .16600001 .656 .120000008 .66300007 .073 .6840001 C .065 .68700006 .06300001 .68700006 .061000009 .68700006 C .051000004 .68700006 .051000004 .679 .051000004 .66300007 L .051000004 .36700005 C .051000004 .34900005 .051000004 .34100003 .065 .34100003 C .07200001 .34100003 .074 .34400005 .07800001 .35000003 C .08900002 .36600004 .12600002 .42000006 .207 .42000006 C .259 .42000006 .284 .37400005 .292 .35600005 C .308 .31900005 .31 .28000004 .31 .23 C .31 .19500001 .31 .135 .286 .093 C .262 .054000006 .22500001 .028 .17900002 .028 C .106000009 .028 .049000008 .08100001 .032 .14000002 C .035 .13900002 .038000008 .13800001 .049000008 .13800001 C .082 .13800001 .09900001 .163 .09900001 .187 C .09900001 .21100001 .082 .23600002 .049000008 .23600002 C .035 .23600002 0 .22900002 0 .18300002 C 0 .097 .069000009 0 .18100001 0 C .297 0 .39900003 .096 .39900003 .223 Z "/>
</symbol>
<use xlink:href="#font_1_5" transform="matrix(9.9626,0,0,-9.9626,209.76113,122.81818)"/>
<path transform="matrix(1,0,0,-1,9.114,110.459)" d="M 42.52103 66.11188 C 42.52103 67.21234 41.62894 68.10443 40.52847 68.10443 C 39.428 68.10443 38.53592 67.21234 38.53592 66.11188 C 38.53592 65.0114 39.428 64.11932 40.52847 64.11932 C 41.62894 64.11932 42.52103 65.0114 42.52103 66.11188 Z M 40.52847 66.11188 " fill="#000080"/>
<path transform="matrix(1,0,0,-1,9.114,110.459)" stroke-width="1" stroke-linecap="butt" stroke-miterlimit="10" stroke-linejoin="miter" fill="none" stroke="#000080" d="M 42.52103 66.11188 C 42.52103 67.21234 41.62894 68.10443 40.52847 68.10443 C 39.428 68.10443 38.53592 67.21234 38.53592 66.11188 C 38.53592 65.0114 39.428 64.11932 40.52847 64.11932 C 41.62894 64.11932 42.52103 65.0114 42.52103 66.11188 Z M 40.52847 66.11188 "/>
<path transform="matrix(1,0,0,-1,9.114,110.459)" d="M 83.0495 33.05594 C 83.0495 34.1564 82.15741 35.0485 81.05695 35.0485 C 79.95647 35.0485 79.06439 34.1564 79.06439 33.05594 C 79.06439 31.95546 79.95647 31.06339 81.05695 31.06339 C 82.15741 31.06339 83.0495 31.95546 83.0495 33.05594 Z M 81.05695 33.05594 " fill="#000080"/>
<path transform="matrix(1,0,0,-1,9.114,110.459)" stroke-width="1" stroke-linecap="butt" stroke-miterlimit="10" stroke-linejoin="miter" fill="none" stroke="#000080" d="M 83.0495 33.05594 C 83.0495 34.1564 82.15741 35.0485 81.05695 35.0485 C 79.95647 35.0485 79.06439 34.1564 79.06439 33.05594 C 79.06439 31.95546 79.95647 31.06339 81.05695 31.06339 C 82.15741 31.06339 83.0495 31.95546 83.0495 33.05594 Z M 81.05695 33.05594 "/>
<path transform="matrix(1,0,0,-1,9.114,110.459)" d="M 123.57797 22.01524 C 123.57797 23.1157 122.68588 24.0078 121.58542 24.0078 C 120.48494 24.0078 119.59286 23.1157 119.59286 22.01524 C 119.59286 20.91476 120.48494 20.02269 121.58542 20.02269 C 122.68588 20.02269 123.57797 20.91476 123.57797 22.01524 Z M 121.58542 22.01524 " fill="#000080"/>
<path transform="matrix(1,0,0,-1,9.114,110.459)" stroke-width="1" stroke-linecap="butt" stroke-miterlimit="10" stroke-linejoin="miter" fill="none" stroke="#000080" d="M 123.57797 22.01524 C 123.57797 23.1157 122.68588 24.0078 121.58542 24.0078 C 120.48494 24.0078 119.59286 23.1157 119.59286 22.01524 C 119.59286 20.91476 120.48494 20.02269 121.58542 20.02269 C 122.68588 20.02269 123.57797 20.91476 123.57797 22.01524 Z M 121.58542 22.01524 "/>
<path transform="matrix(1,0,0,-1,9.114,110.459)" d="M 164.10645 16.52797 C 164.10645 17.62843 163.21436 18.52052 162.11389 18.52052 C 161.01342 18.52052 160.12134 17.62843 160.12134 16.52797 C 160.12134 15.42749 161.01342 14.53542 162.11389 14.53542 C 163.21436 14.53542 164.10645 15.42749 164.10645 16.52797 Z M 162.11389 16.52797 " fill="#000080"/>
<path transform="matrix(1,0,0,-1,9.114,110.459)" stroke-width="1" stroke-linecap="butt" stroke-miterlimit="10" stroke-linejoin="miter" fill="none" stroke="#000080" d="M 164.10645 16.52797 C 164.10645 17.62843 163.21436 18.52052 162.11389 18.52052 C 161.01342 18.52052 160.12134 17.62843 160.12134 16.52797 C 160.12134 15.42749 161.01342 14.53542 162.11389 14.53542 C 163.21436 14.53542 164.10645 15.42749 164.10645 16.52797 Z M 162.11389 16.52797 "/>
<path transform="matrix(1,0,0,-1,9.114,110.459)" d="M 204.63492 13.22237 C 204.63492 14.32285 203.74283 15.21492 202.64237 15.21492 C 201.5419 15.21492 200.64981 14.32285 200.64981 13.22237 C 200.64981 12.1219 201.5419 11.22981 202.64237 11.22981 C 203.74283 11.22981 204.63492 12.1219 204.63492 13.22237 Z M 202.64237 13.22237 " fill="#000080"/>
<path transform="matrix(1,0,0,-1,9.114,110.459)" stroke-width="1" stroke-linecap="butt" stroke-miterlimit="10" stroke-linejoin="miter" fill="none" stroke="#000080" d="M 204.63492 13.22237 C 204.63492 14.32285 203.74283 15.21492 202.64237 15.21492 C 201.5419 15.21492 200.64981 14.32285 200.64981 13.22237 C 200.64981 12.1219 201.5419 11.22981 202.64237 11.22981 C 203.74283 11.22981 204.63492 12.1219 204.63492 13.22237 Z M 202.64237 13.22237 "/>
<symbol id="font_2_2">
<path d="M .059000009 .07000001 C .056 .055000005 .050000006 .032 .050000006 .027000003 C .050000006 .009000001 .064 0 .079 0 C .091000009 0 .10900001 .008000001 .11600001 .028 C .11700001 .030000002 .12900001 .077 .135 .102000009 L .157 .19200002 C .163 .21400002 .16900002 .23600002 .17400001 .259 C .17800002 .27600003 .186 .305 .187 .30900003 C .202 .34000004 .255 .43100003 .35 .43100003 C .395 .43100003 .404 .39400003 .404 .36100004 C .404 .29900003 .355 .17100002 .33900003 .128 C .33 .105000007 .329 .093 .329 .082 C .329 .035 .364 0 .411 0 C .50500008 0 .54200008 .14600002 .54200008 .15400002 C .54200008 .16400002 .53300008 .16400002 .53000006 .16400002 C .52000007 .16400002 .52000007 .16100002 .51500007 .14600002 C .49500004 .078 .462 .022000002 .41300003 .022000002 C .396 .022000002 .389 .032 .389 .055000005 C .389 .080000009 .398 .104 .407 .126 C .426 .17900002 .468 .28900004 .468 .34600003 C .468 .41300003 .425 .45300005 .35300002 .45300005 C .263 .45300005 .21400002 .38900004 .19700001 .36600004 C .19200002 .42200003 .15100001 .45300005 .105000007 .45300005 C .059000009 .45300005 .040000008 .41400004 .030000003 .39600004 C .014 .36200003 0 .30300004 0 .29900003 C 0 .28900004 .01 .28900004 .012 .28900004 C .022000002 .28900004 .023 .29000003 .029000001 .31200005 C .046000005 .38300003 .06600001 .43100003 .10200001 .43100003 C .12200001 .43100003 .133 .418 .133 .38500003 C .133 .36400003 .13000001 .35300002 .11700001 .30100004 L .059000009 .07000001 Z "/>
</symbol>
<use xlink:href="#font_2_2" transform="matrix(9.9626,0,0,-9.9626,256.1979,112.713588)"/>
<symbol id="font_2_1">
<path d="M .33300004 .38900004 C .31500004 .42600004 .286 .45300005 .24100001 .45300005 C .124 .45300005 0 .30600003 0 .16000001 C 0 .06600001 .055000005 0 .133 0 C .153 0 .20300001 .0040000008 .263 .075 C .27100004 .033000005 .30600003 0 .35400004 0 C .38900004 0 .41200004 .023000002 .42800004 .055000005 C .44500003 .091000009 .45800004 .15200001 .45800004 .15400002 C .45800004 .16400002 .44900004 .16400002 .44600005 .16400002 C .43600003 .16400002 .43500004 .16000001 .43200005 .14600002 C .41500003 .081 .397 .022000002 .35600005 .022000002 C .32900004 .022000002 .32600004 .048 .32600004 .068 C .32600004 .09 .32800005 .098000008 .33900003 .14200002 C .35000003 .18400002 .35200004 .19400002 .36100004 .23200003 L .397 .37200005 C .40400005 .40000005 .40400005 .40200005 .40400005 .40600003 C .40400005 .42300005 .39200003 .43300004 .37500004 .43300004 C .35100005 .43300004 .33600004 .411 .33300004 .38900004 M .26800005 .13000001 C .263 .112 .263 .11000001 .24800001 .093 C .20400001 .038000004 .163 .022000002 .135 .022000002 C .08499999 .022000002 .07100001 .077 .07100001 .116000007 C .07100001 .16600001 .103 .28900004 .126 .335 C .157 .39400003 .202 .43100003 .242 .43100003 C .307 .43100003 .32100005 .34900005 .32100005 .34300003 C .32100005 .337 .31900005 .33100004 .31800003 .32600004 L .26800005 .13000001 Z "/>
</symbol>
<use xlink:href="#font_2_1" transform="matrix(9.9626,0,0,-9.9626,6.879504,7.7935869)"/>
</svg>
