<?xml version="1.0" encoding="UTF-8" standalone="no"?>
<!DOCTYPE svg PUBLIC "-//W3C//DTD SVG 1.1//EN" "http://www.w3.org/Graphics/SVG/1.1/DTD/svg11.dtd">
<svg xmlns="http://www.w3.org/2000/svg" xmlns:xlink="http://www.w3.org/1999/xlink" version="1.1" width="219.263pt" height="246.103pt" viewBox="0 0 219.263 246.103">
<path transform="matrix(1,0,0,-1,110.159,121.986)" stroke-width="1" stroke-linecap="butt" stroke-miterlimit="10" stroke-linejoin="miter" fill="none" stroke="#bfbfbf" d="M 0 0 L 97.1363 0 M 0 0 L 68.6858 68.6858 M 0 0 L 0 97.1363 M 0 0 L -68.6858 68.6858 M 0 0 L -97.1363 0 M 0 0 L -68.6858 -68.6858 M 0 0 L 0 -97.1363 M 0 0 L 68.6858 -68.6858 "/>
<path transform="matrix(1,0,0,-1,110.159,121.986)" stroke-width="1" stroke-linecap="butt" stroke-miterlimit="10" stroke-linejoin="miter" fill="none" stroke="#bfbfbf" d="M 22.07631 0 C 22.07631 12.19255 12.19255 22.07631 0 22.07631 C -12.19255 22.07631 -22.07631 12.19255 -22.07631 0 C -22.07631 -12.19255 -12.19255 -22.07631 0 -22.07631 C 12.19255 -22.07631 22.07631 -12.19255 22.07631 0 M 44.15262 0 C 44.15262 24.38512 24.38512 44.15262 0 44.15262 C -24.38512 44.15262 -44.15262 24.38512 -44.15262 0 C -44.15262 -24.38512 -24.38512 -44.15262 0 -44.15262 C 24.38512 -44.15262 44.15262 -24.38512 44.15262 0 M 66.22893 0 C 66.22893 36.57768 36.57768 66.22893 0 66.22893 C -36.57768 66.22893 -66.22893 36.57768 -66.22893 0 C -66.22893 -36.57768 -36.57768 -66.22893 0 -66.22893 C 36.57768 -66.22893 66.22893 -36.57768 66.22893 0 M 88.30524 0 C 88.30524 48.77026 48.77026 88.30524 0 88.30524 C -48.77026 88.30524 -88.30524 48.77026 -88.30524 0 C -88.30524 -48.77026 -48.77026 -88.30524 0 -88.30524 C 48.77026 -88.30524 88.30524 -48.77026 88.30524 0 "/>
<path transform="matrix(1,0,0,-1,110.159,121.986)" stroke-width="1" stroke-linecap="butt" stroke-miterlimit="10" stroke-linejoin="miter" fill="none" stroke="#808080" d="M 97.1363 0 L 101.38814 0 M 68.6858 68.6858 L 71.69229 71.69229 M 0 97.1363 L 0 101.38814 M -68.6858 68.6858 L -71.69229 71.69229 M -97.1363 0 L -101.38814 0 M -68.6858 -68.6858 L -71.69229 -71.69229 M 0 -97.1363 L 0 -101.38814 M 68.6858 -68.6858 L 71.69229 -71.69229 "/>
<path transform="matrix(1,0,0,-1,110.159,121.986)" stroke-width="1" stroke-linecap="butt" stroke-miterlimit="10" stroke-linejoin="miter" fill="none" stroke="#808080" d="M 22.07631 0 L 22.07631 4.25183 M 44.15262 0 L 44.15262 4.25183 M 66.22893 0 L 66.22893 4.25183 M 88.30524 0 L 88.30524 4.25183 "/>
<path transform="matrix(1,0,0,-1,110.159,121.986)" stroke-width="1" stroke-linecap="butt" stroke-miterlimit="10" stroke-linejoin="miter" fill="none" stroke="#000000" d="M 0 0 L 0 0 "/>
<path transform="matrix(1,0,0,-1,110.159,121.986)" stroke-width="1" stroke-linecap="butt" stroke-miterlimit="10" stroke-linejoin="miter" fill="none" stroke="#000000" d="M 97.1363 0 C 97.1363 53.64758 53.64758 97.1363 0 97.1363 C -53.64758 97.1363 -97.1363 53.64758 -97.1363 0 C -97.1363 -53.64758 -53.64758 -97.1363 0 -97.1363 C 53.64758 -97.1363 97.1363 -53.64758 97.1363 0 "/>
<path transform="matrix(1,0,0,-1,110.159,121.986)" stroke-width="1" stroke-linecap="butt" stroke-miterlimit="10" stroke-linejoin="miter" fill="none" stroke="#000000" d="M 0 0 L 97.1363 0 "/>
<path transform="matrix(1,0,0,-1,110.159,121.986)" stroke-width="1" stroke-linecap="butt" stroke-miterlimit="10" stroke-linejoin="miter" fill="none" stroke="#000000" d="M 0 0 L 97.1363 0 "/>
<symbol id="font_0_1">
<path d="M .421 .34200005 C .421 .42200003 .416 .50200006 .381 .57600006 C .335 .67200008 .25300003 .688 .211 .688 C .15100001 .688 .07800001 .66200008 .037000006 .56900009 C .0050000029 .5 0 .42200003 0 .34200005 C 0 .26700003 .0040000008 .177 .045000007 .101 C .088 .020000002 .161 0 .21000001 0 C .264 0 .34 .021000002 .384 .116000007 C .416 .185 .421 .263 .421 .34200005 M .21000001 .022000002 C .171 .022000002 .112 .047000003 .094 .143 C .083000008 .20300001 .083000008 .29500003 .083000008 .35400004 C .083000008 .41800005 .083000008 .48400004 .091000009 .53800007 C .11 .65700009 .185 .66600009 .21000001 .66600009 C .243 .66600009 .30900003 .64800009 .328 .549 C .338 .49300004 .338 .41700004 .338 .35400004 C .338 .279 .338 .21100001 .32700003 .147 C .312 .052 .255 .022000002 .21000001 .022000002 Z "/>
</symbol>
<use xlink:href="#font_0_1" transform="matrix(9.9626,0,0,-9.9626,211.27654,125.41518)"/>
<symbol id="font_1_1">
<path d="M .23800002 .38400004 L .351 .38400004 C .31800003 .23600002 .30900003 .19300002 .30900003 .126 C .30900003 .111 .30900003 .08400001 .317 .05 C .327 .0060000007 .338 0 .35300002 0 C .373 0 .39400003 .018000002 .39400003 .038000004 C .39400003 .044 .39400003 .046 .388 .060000004 C .359 .13200002 .359 .19700001 .359 .22500003 C .359 .27800004 .366 .33200003 .377 .38400004 L .491 .38400004 C .504 .38400004 .54 .38400004 .54 .418 C .54 .44200004 .519 .44200004 .5 .44200004 L .165 .44200004 C .143 .44200004 .105 .44200004 .061000006 .395 C .026000003 .35600005 0 .31000004 0 .305 C 0 .30400003 0 .29500003 .012 .29500003 C .020000002 .29500003 .022000002 .29900003 .028000003 .307 C .077 .38400004 .135 .38400004 .15500002 .38400004 L .21200001 .38400004 C .18000002 .263 .12600002 .14200002 .08400001 .051000004 C .076000008 .036000004 .076000008 .034 .076000008 .027000003 C .076000008 .008000001 .092 0 .105 0 C .135 0 .143 .028 .15500002 .065000008 C .16900002 .111 .16900002 .113000009 .18200001 .16300002 L .23800002 .38400004 Z "/>
</symbol>
<use xlink:href="#font_1_1" transform="matrix(9.9626,0,0,-9.9626,186.262,38.601594)"/>
<path transform="matrix(1,0,0,-1,185.993,42.742006)" stroke-width="1" stroke-linecap="butt" stroke-miterlimit="10" stroke-linejoin="miter" fill="none" stroke="#000000" d="M 0 0 L 6.036 0 "/>
<symbol id="font_0_5">
<path d="M .266 .165 L .266 .078 C .266 .042000005 .26400004 .031000002 .19000001 .031000002 L .16900002 .031000002 L .16900002 0 C .21000001 .003 .26200003 .003 .30400003 .003 C .34600003 .003 .39900003 .003 .44000004 0 L .44000004 .031000002 L .41900004 .031000002 C .34500004 .031000002 .34300003 .042000005 .34300003 .078 L .34300003 .165 L .44300003 .165 L .44300003 .19600001 L .34300003 .19600001 L .34300003 .651 C .34300003 .671 .34300003 .67700007 .32700003 .67700007 C .31800003 .67700007 .31500004 .67700007 .307 .665 L 0 .19600001 L 0 .165 L .266 .165 M .272 .19600001 L .028 .19600001 L .272 .569 L .272 .19600001 Z "/>
</symbol>
<use xlink:href="#font_0_5" transform="matrix(9.9626,0,0,-9.9626,186.79895,52.065996)"/>
<use xlink:href="#font_1_1" transform="matrix(9.9626,0,0,-9.9626,107.40999,7.793579)"/>
<path transform="matrix(1,0,0,-1,107.141,11.932999)" stroke-width="1" stroke-linecap="butt" stroke-miterlimit="10" stroke-linejoin="miter" fill="none" stroke="#000000" d="M 0 0 L 6.036 0 "/>
<symbol id="font_0_3">
<path d="M .07700001 .07700001 L .18300002 .18 C .33900003 .31800003 .39900003 .372 .39900003 .47200004 C .39900003 .586 .30900003 .666 .18700002 .666 C .074 .666 0 .574 0 .485 C 0 .42900003 .05 .42900003 .053000008 .42900003 C .07000001 .42900003 .105000007 .441 .105000007 .48200003 C .105000007 .508 .08700001 .53400006 .052000006 .53400006 C .044000005 .53400006 .042000008 .53400006 .039 .53300008 C .062000004 .59800007 .11600001 .63500007 .17400001 .63500007 C .26500003 .63500007 .308 .554 .308 .47200004 C .308 .39200003 .25800003 .31300003 .20300003 .25100003 L .011000004 .037 C 0 .026 0 .024 0 0 L .37100003 0 L .39900003 .17400001 L .374 .17400001 C .36900003 .14400001 .36200003 .1 .352 .085 C .345 .07700001 .279 .07700001 .257 .07700001 L .07700001 .07700001 Z "/>
</symbol>
<use xlink:href="#font_0_3" transform="matrix(9.9626,0,0,-9.9626,108.16713,21.257004)"/>
<symbol id="font_0_4">
<path d="M .24800003 .37400005 C .33 .40100003 .388 .47100006 .388 .55 C .388 .632 .3 .688 .204 .688 C .10300001 .688 .027000003 .628 .027000003 .55200007 C .027000003 .519 .049000004 .5 .078 .5 C .109000008 .5 .12900001 .522 .12900001 .55100008 C .12900001 .6010001 .082 .6010001 .067 .6010001 C .098 .65000006 .164 .66300007 .20000002 .66300007 C .24100003 .66300007 .29600004 .64100006 .29600004 .55100008 C .29600004 .53900006 .29400004 .48100005 .268 .43700005 C .238 .38900004 .204 .38600005 .17900002 .38500003 C .171 .38400004 .14700002 .38200004 .14000002 .38200004 C .132 .38100005 .125 .38000003 .125 .37000004 C .125 .35900004 .132 .35900004 .14900002 .35900004 L .19300002 .35900004 C .275 .35900004 .312 .29100005 .312 .193 C .312 .057000005 .24300003 .028 .199 .028 C .15600002 .028 .081 .045 .046000005 .104 C .081 .09900001 .11200001 .12100001 .11200001 .15900001 C .11200001 .19500001 .085 .215 .056 .215 C .031999999 .215 0 .201 0 .157 C 0 .06600001 .093 0 .20200002 0 C .32400004 0 .41500003 .091000009 .41500003 .193 C .41500003 .27500005 .35200004 .35300005 .24800003 .37400005 Z "/>
</symbol>
<use xlink:href="#font_0_4" transform="matrix(9.9626,0,0,-9.9626,24.439425,37.999177)"/>
<use xlink:href="#font_1_1" transform="matrix(9.9626,0,0,-9.9626,29.270985,37.889589)"/>
<path transform="matrix(1,0,0,-1,24.020997,42.02899)" stroke-width="1" stroke-linecap="butt" stroke-miterlimit="10" stroke-linejoin="miter" fill="none" stroke="#000000" d="M 0 0 L 11.018 0 "/>
<use xlink:href="#font_0_5" transform="matrix(9.9626,0,0,-9.9626,27.31795,51.352998)"/>
<use xlink:href="#font_1_1" transform="matrix(9.9626,0,0,-9.9626,3.6629875,124.240589)"/>
<symbol id="font_0_6">
<path d="M .39900003 .223 C .39900003 .34200005 .317 .44200004 .209 .44200004 C .16100002 .44200004 .118000019 .42600004 .082 .39100004 L .082 .586 C .10200001 .58000007 .135 .573 .16700001 .573 C .29 .573 .36 .66400006 .36 .67700007 C .36 .683 .357 .688 .35 .688 C .349 .688 .347 .688 .342 .68500009 C .322 .67600008 .273 .656 .20600002 .656 C .16600001 .656 .120000008 .66300007 .073 .6840001 C .065 .68700006 .06300001 .68700006 .061000009 .68700006 C .051000004 .68700006 .051000004 .679 .051000004 .66300007 L .051000004 .36700005 C .051000004 .34900005 .051000004 .34100003 .065 .34100003 C .07200001 .34100003 .074 .34400005 .07800001 .35000003 C .08900002 .36600004 .12600002 .42000006 .207 .42000006 C .259 .42000006 .284 .37400005 .292 .35600005 C .308 .31900005 .31 .28000004 .31 .23 C .31 .19500001 .31 .135 .286 .093 C .262 .054000006 .22500001 .028 .17900002 .028 C .106000009 .028 .049000008 .08100001 .032 .14000002 C .035 .13900002 .038000008 .13800001 .049000008 .13800001 C .082 .13800001 .09900001 .163 .09900001 .187 C .09900001 .21100001 .082 .23600002 .049000008 .23600002 C .035 .23600002 0 .22900002 0 .18300002 C 0 .097 .069000009 0 .18100001 0 C .297 0 .39900003 .096 .39900003 .223 Z "/>
</symbol>
<use xlink:href="#font_0_6" transform="matrix(9.9626,0,0,-9.9626,24.519127,199.25818)"/>
<use xlink:href="#font_1_1" transform="matrix(9.9626,0,0,-9.9626,29.270985,199.14859)"/>
<path transform="matrix(1,0,0,-1,24.020997,203.288)" stroke-width="1" stroke-linecap="butt" stroke-miterlimit="10" stroke-linejoin="miter" fill="none" stroke="#000000" d="M 0 0 L 11.018 0 "/>
<use xlink:href="#font_0_5" transform="matrix(9.9626,0,0,-9.9626,27.31795,212.61299)"/>
<use xlink:href="#font_0_4" transform="matrix(9.9626,0,0,-9.9626,105.06842,229.35417)"/>
<use xlink:href="#font_1_1" transform="matrix(9.9626,0,0,-9.9626,109.900989,229.24459)"/>
<path transform="matrix(1,0,0,-1,104.649997,233.384)" stroke-width="1" stroke-linecap="butt" stroke-miterlimit="10" stroke-linejoin="miter" fill="none" stroke="#000000" d="M 0 0 L 11.018 0 "/>
<use xlink:href="#font_0_3" transform="matrix(9.9626,0,0,-9.9626,108.16712,242.709)"/>
<symbol id="font_0_7">
<path d="M .42000003 .63100007 C .42900003 .64300009 .42900003 .64500007 .42900003 .66600009 L .18600002 .66600009 C .064 .66600009 .062000008 .679 .058000007 .6980001 L .033 .6980001 L 0 .49200005 L .024999999 .49200005 C .028000005 .508 .037 .57100006 .050000006 .58300009 C .057000005 .58900007 .13500002 .58900007 .148 .58900007 L .35500003 .58900007 C .344 .573 .26500003 .46400006 .24300003 .43100003 C .153 .29600004 .12000001 .157 .12000001 .055 C .12000001 .045 .12000001 0 .16600001 0 C .21200001 0 .21200001 .045 .21200001 .055 L .21200001 .106000009 C .21200001 .16100002 .21500004 .216 .22300002 .27 C .22700003 .29300005 .24100003 .37900005 .28500004 .44100005 L .42000003 .63100007 Z "/>
</symbol>
<use xlink:href="#font_0_7" transform="matrix(9.9626,0,0,-9.9626,185.8379,199.25818)"/>
<use xlink:href="#font_1_1" transform="matrix(9.9626,0,0,-9.9626,190.53,199.14859)"/>
<path transform="matrix(1,0,0,-1,185.28,203.288)" stroke-width="1" stroke-linecap="butt" stroke-miterlimit="10" stroke-linejoin="miter" fill="none" stroke="#000000" d="M 0 0 L 11.018 0 "/>
<use xlink:href="#font_0_5" transform="matrix(9.9626,0,0,-9.9626,188.57695,212.61299)"/>
<use xlink:href="#font_0_1" transform="matrix(9.9626,0,0,-9.9626,123.76854,118.612178)"/>
<symbol id="font_1_2">
<path d="M .106 .053000004 C .106 .082 .08200001 .106000009 .05300001 .106000009 C .024000004 .106000009 0 .082 0 .053000004 C 0 .024 .024000004 0 .05300001 0 C .08200001 0 .106 .024 .106 .053000004 Z "/>
</symbol>
<use xlink:href="#font_1_2" transform="matrix(9.9626,0,0,-9.9626,129.21778,118.393)"/>
<use xlink:href="#font_0_3" transform="matrix(9.9626,0,0,-9.9626,131.62612,118.393)"/>
<use xlink:href="#font_0_6" transform="matrix(9.9626,0,0,-9.9626,136.6074,118.612178)"/>
<use xlink:href="#font_0_1" transform="matrix(9.9626,0,0,-9.9626,148.33454,118.612178)"/>
<use xlink:href="#font_1_2" transform="matrix(9.9626,0,0,-9.9626,153.78478,118.393)"/>
<use xlink:href="#font_0_6" transform="matrix(9.9626,0,0,-9.9626,156.19312,118.612178)"/>
<use xlink:href="#font_0_1" transform="matrix(9.9626,0,0,-9.9626,167.92053,118.612178)"/>
<use xlink:href="#font_1_2" transform="matrix(9.9626,0,0,-9.9626,173.36978,118.393)"/>
<use xlink:href="#font_0_7" transform="matrix(9.9626,0,0,-9.9626,175.8379,118.612178)"/>
<use xlink:href="#font_0_6" transform="matrix(9.9626,0,0,-9.9626,180.75942,118.612178)"/>
<symbol id="font_0_2">
<path d="M .205 .64000007 C .205 .66400006 .205 .666 .18200003 .666 C .120000008 .60200008 .032000007 .60200008 0 .60200008 L 0 .57100006 C .020000004 .57100006 .07900001 .57100006 .13100001 .597 L .13100001 .079 C .13100001 .043 .128 .031000002 .038000004 .031000002 L .0060000049 .031000002 L .0060000049 0 C .04100001 .003 .128 .003 .168 .003 C .20800002 .003 .29500003 .003 .33000005 0 L .33000005 .031000002 L .29800005 .031000002 C .20800002 .031000002 .205 .042000005 .205 .079 L .205 .64000007 Z "/>
</symbol>
<use xlink:href="#font_0_2" transform="matrix(9.9626,0,0,-9.9626,196.85967,118.393)"/>
<clipPath id="cp2">
<path transform="matrix(1,0,0,-1,110.159,121.986)" d="M 97.1363 0 C 97.1363 53.64758 53.64758 97.1363 0 97.1363 C -53.64758 97.1363 -97.1363 53.64758 -97.1363 0 C -97.1363 -53.64758 -53.64758 -97.1363 0 -97.1363 C 53.64758 -97.1363 97.1363 -53.64758 97.1363 0 "/>
</clipPath>
<g clip-path="url(#cp2)">
<path transform="matrix(1,0,0,-1,110.159,121.986)" stroke-width="1.19553" stroke-linecap="butt" stroke-miterlimit="10" stroke-linejoin="miter" fill="none" stroke="#000080" d="M 88.30524 0 C 88.30524 0 88.24274 1.51811 88.1723 2.09818 C 88.10187 2.67824 87.93556 3.60692 87.79753 4.1807 C 87.6595 4.75446 87.38373 5.6705 87.17735 6.23352 C 86.97096 6.79654 86.58385 7.69022 86.30998 8.23857 C 86.03612 8.78691 85.54355 9.65617 85.2035 10.18575 C 84.86346 10.71532 84.26355 11.54916 83.85915 12.0554 C 83.45474 12.56165 82.75554 13.35501 82.28883 13.83447 C 81.82213 14.31395 81.02367 15.06221 80.49547 15.51115 C 79.96729 15.9601 79.06804 16.65564 78.4819 17.07027 C 77.89578 17.48488 76.91086 18.12212 76.271 18.49947 C 75.63113 18.8768 74.5633 19.45343 73.87012 19.78995 C 73.17694 20.12645 72.01816 20.63239 71.27498 20.92488 C 70.5318 21.21736 69.30174 21.65169 68.51376 21.898 C 67.72578 22.14432 66.42606 22.503 65.59575 22.70023 C 64.76546 22.89745 63.39856 23.17395 62.52942 23.31943 C 61.66028 23.46492 60.23486 23.65645 59.33151 23.74876 C 58.42815 23.8411 56.9522 23.94725 56.0186 23.98483 C 55.085 24.02243 53.56224 24.03862 52.60266 24.01979 C 51.64308 24.00095 50.08391 23.92542 49.1026 23.84909 C 48.12128 23.77275 46.52864 23.60416 45.53001 23.46965 C 44.53137 23.33513 42.91595 23.07277 41.90506 22.87956 C 40.89418 22.68636 39.2638 22.32948 38.24417 22.07713 C 37.22455 21.82477 35.57993 21.37206 34.55621 21.06076 C 33.53252 20.74948 31.88855 20.20305 30.86604 19.8335 C 29.84354 19.46396 28.20398 18.82425 27.18674 18.39731 C 26.1695 17.97035 24.54218 17.23982 23.53445 16.75635 C 22.52672 16.27286 20.91759 15.45143 19.92377 14.91263 C 18.92995 14.37383 17.34685 13.465 16.3717 12.873 C 15.39656 12.281 13.84811 11.2893 12.89557 10.64594 C 11.94304 10.00258 10.4327 8.92877 9.50636 8.236 C 8.58003 7.54323 7.11507 6.39232 6.21913 5.65292 C 5.32321 4.91353 3.91072 3.68994 3.04913 2.90692 C 2.18755 2.12389 .83318 .83295 .00935 .00935 C -.81445 -.81421 -2.10521 -2.16753 -2.88849 -3.02888 C -3.67177 -3.89024 -4.8962 -5.30301 -5.63599 -6.19876 C -6.37578 -7.09453 -7.52748 -8.55911 -8.22038 -9.48502 C -8.9133 -10.4109 -9.98647 -11.91974 -10.62999 -12.87201 C -11.27351 -13.82428 -12.2661 -15.3731 -12.8586 -16.3483 C -13.4511 -17.32349 -14.36124 -18.90701 -14.90031 -19.90062 C -15.43939 -20.89421 -16.26015 -22.50194 -16.74399 -23.5095 C -17.22781 -24.51707 -17.96002 -26.14537 -18.38747 -27.16252 C -18.81493 -28.17967 -19.45494 -29.81802 -19.82477 -30.84041 C -20.19461 -31.86281 -20.74124 -33.50732 -21.05298 -34.53125 C -21.36473 -35.55519 -21.8191 -37.20067 -22.0717 -38.22025 C -22.3243 -39.23982 -22.68011 -40.86888 -22.87354 -41.87973 C -23.06694 -42.89056 -23.3306 -44.50674 -23.46574 -45.50569 C -23.6009 -46.50462 -23.7709 -48.09789 -23.84776 -49.0794 C -23.92462 -50.06094 -24.00056 -51.62021 -24.01982 -52.57988 C -24.03906 -53.53955 -24.0237 -55.0624 -23.9865 -55.9961 C -23.9493 -56.92981 -23.84367 -58.4059 -23.75163 -59.3094 C -23.6596 -60.2129 -23.4684 -61.63878 -23.32314 -62.50798 C -23.17789 -63.37717 -22.90166 -64.7434 -22.70474 -65.574 C -22.50783 -66.4046 -22.14983 -67.70598 -21.90387 -68.49449 C -21.65791 -69.28302 -21.22412 -70.51376 -20.93198 -71.25719 C -20.63983 -72.00061 -20.1344 -73.15916 -19.79817 -73.85265 C -19.46193 -74.54613 -18.88562 -75.61487 -18.50853 -76.25539 C -18.13142 -76.8959 -17.49457 -77.88284 -17.08028 -78.4691 C -16.666 -79.05537 -15.97116 -79.95241 -15.52257 -80.48083 C -15.07397 -81.00925 -14.32648 -81.81038 -13.84702 -82.2776 C -13.36757 -82.74481 -12.5732 -83.44337 -12.06694 -83.84824 C -11.56068 -84.2531 -10.7274 -84.85493 -10.19821 -85.19563 C -9.669 -85.53635 -8.80104 -86.02943 -8.25278 -86.30383 C -7.70453 -86.57822 -6.8098 -86.9667 -6.24666 -87.1734 C -5.68352 -87.38008 -4.7679 -87.6553 -4.19397 -87.79352 C -3.62006 -87.93173 -2.69025 -88.09909 -2.11021 -88.16966 C -1.53018 -88.24022 -.59529 -88.30164 -.01344 -88.30212 C .56837 -88.30261 1.50348 -88.24295 2.08337 -88.17319 C 2.66327 -88.10342 3.59203 -87.93678 4.16602 -87.79929 C 4.74002 -87.6618 5.65715 -87.38792 6.22043 -87.18222 C 6.7837 -86.9765 7.67755 -86.58998 8.22585 -86.3166 C 8.77414 -86.04321 9.64252 -85.55157 10.17218 -85.21182 C 10.70184 -84.87207 11.53676 -84.27173 12.04335 -83.86786 C 12.54994 -83.46399 13.34372 -82.76744 13.82335 -82.30096 C 14.30298 -81.83449 15.05098 -81.03346 15.50014 -80.50578 C 15.9493 -79.97809 16.64574 -79.08311 17.06064 -78.49767 C 17.47556 -77.91223 18.11295 -76.92633 18.49062 -76.28625 C 18.86827 -75.64618 19.44588 -74.57721 19.78262 -73.88437 C 20.11938 -73.19154 20.62495 -72.0354 20.91776 -71.2928 C 21.21057 -70.5502 21.64641 -69.31999 21.89297 -68.53221 C 22.13953 -67.74443 22.49748 -66.44516 22.69482 -65.61502 C 22.89218 -64.78487 23.16936 -63.41782 23.31541 -62.54903 C 23.46149 -61.68022 23.6549 -60.2565 23.74754 -59.35329 C 23.8402 -58.45007 23.94539 -56.97247 23.9832 -56.03925 C 24.021 -55.106 24.03844 -53.58629 24.02014 -52.62717 C 24.00183 -51.66806 23.92705 -50.10785 23.85123 -49.12663 C 23.7754 -48.1454 23.6079 -46.5539 23.47354 -45.55511 C 23.33917 -44.55632 23.07578 -42.93912 22.88284 -41.92809 C 22.68991 -40.91704 22.33482 -39.28777 22.08298 -38.26819 C 21.83113 -37.24861 21.37856 -35.6035 21.06761 -34.57965 C 20.75667 -33.55579 20.21083 -31.91116 19.8419 -30.8889 C 19.47298 -29.86665 18.83525 -28.22906 18.40865 -27.21191 C 17.98204 -26.19476 17.25047 -24.56581 16.76721 -23.55797 C 16.28395 -22.55013 15.46385 -20.94165 14.92561 -19.94797 C 14.38737 -18.95428 13.47964 -17.37157 12.88791 -16.39615 C 12.29617 -15.42073 11.3039 -13.87067 10.66077 -12.9178 C 10.01762 -11.96492 8.9449 -10.45479 8.25256 -9.5284 C 7.56024 -8.602 6.40994 -7.13704 5.6709 -6.24095 C 4.93185 -5.34486 3.70871 -3.93188 2.92596 -3.07004 C 2.14322 -2.20819 .02931 -.02933 .02931 -.02933 "/>
</g>
</svg>
