<?xml version="1.0" encoding="UTF-8" standalone="no"?>
<!DOCTYPE svg PUBLIC "-//W3C//DTD SVG 1.1//EN" "http://www.w3.org/Graphics/SVG/1.1/DTD/svg11.dtd">
<svg xmlns="http://www.w3.org/2000/svg" xmlns:xlink="http://www.w3.org/1999/xlink" version="1.1" width="219.263pt" height="246.103pt" viewBox="0 0 219.263 246.103">
<path transform="matrix(1,0,0,-1,110.159,121.986)" stroke-width="1" stroke-linecap="butt" stroke-miterlimit="10" stroke-linejoin="miter" fill="none" stroke="#bfbfbf" d="M 0 0 L 97.1363 0 M 0 0 L 68.6858 68.6858 M 0 0 L 0 97.1363 M 0 0 L -68.6858 68.6858 M 0 0 L -97.1363 0 M 0 0 L -68.6858 -68.6858 M 0 0 L 0 -97.1363 M 0 0 L 68.6858 -68.6858 "/>
<path transform="matrix(1,0,0,-1,110.159,121.986)" stroke-width="1" stroke-linecap="butt" stroke-miterlimit="10" stroke-linejoin="miter" fill="none" stroke="#bfbfbf" d="M 22.07631 0 C 22.07631 12.19255 12.19255 22.07631 0 22.07631 C -12.19255 22.07631 -22.07631 12.19255 -22.07631 0 C -22.07631 -12.19255 -12.19255 -22.07631 0 -22.07631 C 12.19255 -22.07631 22.07631 -12.19255 22.07631 0 M 44.15262 0 C 44.15262 24.38512 24.38512 44.15262 0 44.15262 C -24.38512 44.15262 -44.15262 24.38512 -44.15262 0 C -44.15262 -24.38512 -24.38512 -44.15262 0 -44.15262 C 24.38512 -44.15262 44.15262 -24.38512 44.15262 0 M 66.22893 0 C 66.22893 36.57768 36.57768 66.22893 0 66.22893 C -36.57768 66.22893 -66.22893 36.57768 -66.22893 0 C -66.22893 -36.57768 -36.57768 -66.22893 0 -66.22893 C 36.57768 -66.22893 66.22893 -36.57768 66.22893 0 M 88.30524 0 C 88.30524 48.77026 48.77026 88.30524 0 88.30524 C -48.77026 88.30524 -88.30524 48.77026 -88.30524 0 C -88.30524 -48.77026 -48.77026 -88.30524 0 -88.30524 C 48.77026 -88.30524 88.30524 -48.77026 88.30524 0 "/>
<path transform="matrix(1,0,0,-1,110.159,121.986)" stroke-width="1" stroke-linecap="butt" stroke-miterlimit="10" stroke-linejoin="miter" fill="none" stroke="#808080" d="M 97.1363 0 L 101.38814 0 M 68.6858 68.6858 L 71.69229 71.69229 M 0 97.1363 L 0 101.38814 M -68.6858 68.6858 L -71.69229 71.69229 M -97.1363 0 L -101.38814 0 M -68.6858 -68.6858 L -71.69229 -71.69229 M 0 -97.1363 L 0 -101.38814 M 68.6858 -68.6858 L 71.69229 -71.69229 "/>
<path transform="matrix(1,0,0,-1,110.159,121.986)" stroke-width="1" stroke-linecap="butt" stroke-miterlimit="10" stroke-linejoin="miter" fill="none" stroke="#808080" d="M 22.07631 0 L 22.07631 4.25183 M 44.15262 0 L 44.15262 4.25183 M 66.22893 0 L 66.22893 4.25183 M 88.30524 0 L 88.30524 4.25183 "/>
<path transform="matrix(1,0,0,-1,110.159,121.986)" stroke-width="1" stroke-linecap="butt" stroke-miterlimit="10" stroke-linejoin="miter" fill="none" stroke="#000000" d="M 0 0 L 0 0 "/>
<path transform="matrix(1,0,0,-1,110.159,121.986)" stroke-width="1" stroke-linecap="butt" stroke-miterlimit="10" stroke-linejoin="miter" fill="none" stroke="#000000" d="M 97.1363 0 C 97.1363 53.64758 53.64758 97.1363 0 97.1363 C -53.64758 97.1363 -97.1363 53.64758 -97.1363 0 C -97.1363 -53.64758 -53.64758 -97.1363 0 -97.1363 C 53.64758 -97.1363 97.1363 -53.64758 97.1363 0 "/>
<path transform="matrix(1,0,0,-1,110.159,121.986)" stroke-width="1" stroke-linecap="butt" stroke-miterlimit="10" stroke-linejoin="miter" fill="none" stroke="#000000" d="M 0 0 L 97.1363 0 "/>
<path transform="matrix(1,0,0,-1,110.159,121.986)" stroke-width="1" stroke-linecap="butt" stroke-miterlimit="10" stroke-linejoin="miter" fill="none" stroke="#000000" d="M 0 0 L 97.1363 0 "/>
<symbol id="font_0_1">
<path d="M .421 .34200005 C .421 .42200003 .416 .50200006 .381 .57600006 C .335 .67200008 .25300003 .688 .211 .688 C .15100001 .688 .07800001 .66200008 .037000006 .56900009 C .0050000029 .5 0 .42200003 0 .34200005 C 0 .26700003 .0040000008 .177 .045000007 .101 C .088 .020000002 .161 0 .21000001 0 C .264 0 .34 .021000002 .384 .116000007 C .416 .185 .421 .263 .421 .34200005 M .21000001 .022000002 C .171 .022000002 .112 .047000003 .094 .143 C .083000008 .20300001 .083000008 .29500003 .083000008 .35400004 C .083000008 .41800005 .083000008 .48400004 .091000009 .53800007 C .11 .65700009 .185 .66600009 .21000001 .66600009 C .243 .66600009 .30900003 .64800009 .328 .549 C .338 .49300004 .338 .41700004 .338 .35400004 C .338 .279 .338 .21100001 .32700003 .147 C .312 .052 .255 .022000002 .21000001 .022000002 Z "/>
</symbol>
<use xlink:href="#font_0_1" transform="matrix(9.9626,0,0,-9.9626,211.27654,125.41518)"/>
<symbol id="font_1_1">
<path d="M .23800002 .38400004 L .351 .38400004 C .31800003 .23600002 .30900003 .19300002 .30900003 .126 C .30900003 .111 .30900003 .08400001 .317 .05 C .327 .0060000007 .338 0 .35300002 0 C .373 0 .39400003 .018000002 .39400003 .038000004 C .39400003 .044 .39400003 .046 .388 .060000004 C .359 .13200002 .359 .19700001 .359 .22500003 C .359 .27800004 .366 .33200003 .377 .38400004 L .491 .38400004 C .504 .38400004 .54 .38400004 .54 .418 C .54 .44200004 .519 .44200004 .5 .44200004 L .165 .44200004 C .143 .44200004 .105 .44200004 .061000006 .395 C .026000003 .35600005 0 .31000004 0 .305 C 0 .30400003 0 .29500003 .012 .29500003 C .020000002 .29500003 .022000002 .29900003 .028000003 .307 C .077 .38400004 .135 .38400004 .15500002 .38400004 L .21200001 .38400004 C .18000002 .263 .12600002 .14200002 .08400001 .051000004 C .076000008 .036000004 .076000008 .034 .076000008 .027000003 C .076000008 .008000001 .092 0 .105 0 C .135 0 .143 .028 .15500002 .065000008 C .16900002 .111 .16900002 .113000009 .18200001 .16300002 L .23800002 .38400004 Z "/>
</symbol>
<use xlink:href="#font_1_1" transform="matrix(9.9626,0,0,-9.9626,186.262,38.601594)"/>
<path transform="matrix(1,0,0,-1,185.993,42.742006)" stroke-width="1" stroke-linecap="butt" stroke-miterlimit="10" stroke-linejoin="miter" fill="none" stroke="#000000" d="M 0 0 L 6.036 0 "/>
<symbol id="font_0_5">
<path d="M .266 .165 L .266 .078 C .266 .042000005 .26400004 .031000002 .19000001 .031000002 L .16900002 .031000002 L .16900002 0 C .21000001 .003 .26200003 .003 .30400003 .003 C .34600003 .003 .39900003 .003 .44000004 0 L .44000004 .031000002 L .41900004 .031000002 C .34500004 .031000002 .34300003 .042000005 .34300003 .078 L .34300003 .165 L .44300003 .165 L .44300003 .19600001 L .34300003 .19600001 L .34300003 .651 C .34300003 .671 .34300003 .67700007 .32700003 .67700007 C .31800003 .67700007 .31500004 .67700007 .307 .665 L 0 .19600001 L 0 .165 L .266 .165 M .272 .19600001 L .028 .19600001 L .272 .569 L .272 .19600001 Z "/>
</symbol>
<use xlink:href="#font_0_5" transform="matrix(9.9626,0,0,-9.9626,186.79895,52.065996)"/>
<use xlink:href="#font_1_1" transform="matrix(9.9626,0,0,-9.9626,107.40999,7.793579)"/>
<path transform="matrix(1,0,0,-1,107.141,11.932999)" stroke-width="1" stroke-linecap="butt" stroke-miterlimit="10" stroke-linejoin="miter" fill="none" stroke="#000000" d="M 0 0 L 6.036 0 "/>
<symbol id="font_0_3">
<path d="M .07700001 .07700001 L .18300002 .18 C .33900003 .31800003 .39900003 .372 .39900003 .47200004 C .39900003 .586 .30900003 .666 .18700002 .666 C .074 .666 0 .574 0 .485 C 0 .42900003 .05 .42900003 .053000008 .42900003 C .07000001 .42900003 .105000007 .441 .105000007 .48200003 C .105000007 .508 .08700001 .53400006 .052000006 .53400006 C .044000005 .53400006 .042000008 .53400006 .039 .53300008 C .062000004 .59800007 .11600001 .63500007 .17400001 .63500007 C .26500003 .63500007 .308 .554 .308 .47200004 C .308 .39200003 .25800003 .31300003 .20300003 .25100003 L .011000004 .037 C 0 .026 0 .024 0 0 L .37100003 0 L .39900003 .17400001 L .374 .17400001 C .36900003 .14400001 .36200003 .1 .352 .085 C .345 .07700001 .279 .07700001 .257 .07700001 L .07700001 .07700001 Z "/>
</symbol>
<use xlink:href="#font_0_3" transform="matrix(9.9626,0,0,-9.9626,108.16713,21.257004)"/>
<symbol id="font_0_4">
<path d="M .24800003 .37400005 C .33 .40100003 .388 .47100006 .388 .55 C .388 .632 .3 .688 .204 .688 C .10300001 .688 .027000003 .628 .027000003 .55200007 C .027000003 .519 .049000004 .5 .078 .5 C .109000008 .5 .12900001 .522 .12900001 .55100008 C .12900001 .6010001 .082 .6010001 .067 .6010001 C .098 .65000006 .164 .66300007 .20000002 .66300007 C .24100003 .66300007 .29600004 .64100006 .29600004 .55100008 C .29600004 .53900006 .29400004 .48100005 .268 .43700005 C .238 .38900004 .204 .38600005 .17900002 .38500003 C .171 .38400004 .14700002 .38200004 .14000002 .38200004 C .132 .38100005 .125 .38000003 .125 .37000004 C .125 .35900004 .132 .35900004 .14900002 .35900004 L .19300002 .35900004 C .275 .35900004 .312 .29100005 .312 .193 C .312 .057000005 .24300003 .028 .199 .028 C .15600002 .028 .081 .045 .046000005 .104 C .081 .09900001 .11200001 .12100001 .11200001 .15900001 C .11200001 .19500001 .085 .215 .056 .215 C .031999999 .215 0 .201 0 .157 C 0 .06600001 .093 0 .20200002 0 C .32400004 0 .41500003 .091000009 .41500003 .193 C .41500003 .27500005 .35200004 .35300005 .24800003 .37400005 Z "/>
</symbol>
<use xlink:href="#font_0_4" transform="matrix(9.9626,0,0,-9.9626,24.439425,37.999177)"/>
<use xlink:href="#font_1_1" transform="matrix(9.9626,0,0,-9.9626,29.270985,37.889589)"/>
<path transform="matrix(1,0,0,-1,24.020997,42.02899)" stroke-width="1" stroke-linecap="butt" stroke-miterlimit="10" stroke-linejoin="miter" fill="none" stroke="#000000" d="M 0 0 L 11.018 0 "/>
<use xlink:href="#font_0_5" transform="matrix(9.9626,0,0,-9.9626,27.31795,51.352998)"/>
<use xlink:href="#font_1_1" transform="matrix(9.9626,0,0,-9.9626,3.6629875,124.240589)"/>
<symbol id="font_0_6">
<path d="M .39900003 .223 C .39900003 .34200005 .317 .44200004 .209 .44200004 C .16100002 .44200004 .118000019 .42600004 .082 .39100004 L .082 .586 C .10200001 .58000007 .135 .573 .16700001 .573 C .29 .573 .36 .66400006 .36 .67700007 C .36 .683 .357 .688 .35 .688 C .349 .688 .347 .688 .342 .68500009 C .322 .67600008 .273 .656 .20600002 .656 C .16600001 .656 .120000008 .66300007 .073 .6840001 C .065 .68700006 .06300001 .68700006 .061000009 .68700006 C .051000004 .68700006 .051000004 .679 .051000004 .66300007 L .051000004 .36700005 C .051000004 .34900005 .051000004 .34100003 .065 .34100003 C .07200001 .34100003 .074 .34400005 .07800001 .35000003 C .08900002 .36600004 .12600002 .42000006 .207 .42000006 C .259 .42000006 .284 .37400005 .292 .35600005 C .308 .31900005 .31 .28000004 .31 .23 C .31 .19500001 .31 .135 .286 .093 C .262 .054000006 .22500001 .028 .17900002 .028 C .106000009 .028 .049000008 .08100001 .032 .14000002 C .035 .13900002 .038000008 .13800001 .049000008 .13800001 C .082 .13800001 .09900001 .163 .09900001 .187 C .09900001 .21100001 .082 .23600002 .049000008 .23600002 C .035 .23600002 0 .22900002 0 .18300002 C 0 .097 .069000009 0 .18100001 0 C .297 0 .39900003 .096 .39900003 .223 Z "/>
</symbol>
<use xlink:href="#font_0_6" transform="matrix(9.9626,0,0,-9.9626,24.519127,199.25818)"/>
<use xlink:href="#font_1_1" transform="matrix(9.9626,0,0,-9.9626,29.270985,199.14859)"/>
<path transform="matrix(1,0,0,-1,24.020997,203.288)" stroke-width="1" stroke-linecap="butt" stroke-miterlimit="10" stroke-linejoin="miter" fill="none" stroke="#000000" d="M 0 0 L 11.018 0 "/>
<use xlink:href="#font_0_5" transform="matrix(9.9626,0,0,-9.9626,27.31795,212.61299)"/>
<use xlink:href="#font_0_4" transform="matrix(9.9626,0,0,-9.9626,105.06842,229.35417)"/>
<use xlink:href="#font_1_1" transform="matrix(9.9626,0,0,-9.9626,109.900989,229.24459)"/>
<path transform="matrix(1,0,0,-1,104.649997,233.384)" stroke-width="1" stroke-linecap="butt" stroke-miterlimit="10" stroke-linejoin="miter" fill="none" stroke="#000000" d="M 0 0 L 11.018 0 "/>
<use xlink:href="#font_0_3" transform="matrix(9.9626,0,0,-9.9626,108.16712,242.709)"/>
<symbol id="font_0_7">
<path d="M .42000003 .63100007 C .42900003 .64300009 .42900003 .64500007 .42900003 .66600009 L .18600002 .66600009 C .064 .66600009 .062000008 .679 .058000007 .6980001 L .033 .6980001 L 0 .49200005 L .024999999 .49200005 C .028000005 .508 .037 .57100006 .050000006 .58300009 C .057000005 .58900007 .13500002 .58900007 .148 .58900007 L .35500003 .58900007 C .344 .573 .26500003 .46400006 .24300003 .43100003 C .153 .29600004 .12000001 .157 .12000001 .055 C .12000001 .045 .12000001 0 .16600001 0 C .21200001 0 .21200001 .045 .21200001 .055 L .21200001 .106000009 C .21200001 .16100002 .21500004 .216 .22300002 .27 C .22700003 .29300005 .24100003 .37900005 .28500004 .44100005 L .42000003 .63100007 Z "/>
</symbol>
<use xlink:href="#font_0_7" transform="matrix(9.9626,0,0,-9.9626,185.8379,199.25818)"/>
<use xlink:href="#font_1_1" transform="matrix(9.9626,0,0,-9.9626,190.53,199.14859)"/>
<path transform="matrix(1,0,0,-1,185.28,203.288)" stroke-width="1" stroke-linecap="butt" stroke-miterlimit="10" stroke-linejoin="miter" fill="none" stroke="#000000" d="M 0 0 L 11.018 0 "/>
<use xlink:href="#font_0_5" transform="matrix(9.9626,0,0,-9.9626,188.57695,212.61299)"/>
<use xlink:href="#font_0_1" transform="matrix(9.9626,0,0,-9.9626,126.25854,118.612178)"/>
<symbol id="font_1_2">
<path d="M .106 .053000004 C .106 .082 .08200001 .106000009 .05300001 .106000009 C .024000004 .106000009 0 .082 0 .053000004 C 0 .024 .024000004 0 .05300001 0 C .08200001 0 .106 .024 .106 .053000004 Z "/>
</symbol>
<use xlink:href="#font_1_2" transform="matrix(9.9626,0,0,-9.9626,131.70877,118.393)"/>
<use xlink:href="#font_0_6" transform="matrix(9.9626,0,0,-9.9626,134.11711,118.612178)"/>
<symbol id="font_0_2">
<path d="M .205 .64000007 C .205 .66400006 .205 .666 .18200003 .666 C .120000008 .60200008 .032000007 .60200008 0 .60200008 L 0 .57100006 C .020000004 .57100006 .07900001 .57100006 .13100001 .597 L .13100001 .079 C .13100001 .043 .128 .031000002 .038000004 .031000002 L .0060000049 .031000002 L .0060000049 0 C .04100001 .003 .128 .003 .168 .003 C .20800002 .003 .29500003 .003 .33000005 0 L .33000005 .031000002 L .29800005 .031000002 C .20800002 .031000002 .205 .042000005 .205 .079 L .205 .64000007 Z "/>
</symbol>
<use xlink:href="#font_0_2" transform="matrix(9.9626,0,0,-9.9626,152.70767,118.393)"/>
<use xlink:href="#font_0_2" transform="matrix(9.9626,0,0,-9.9626,170.90868,118.393)"/>
<use xlink:href="#font_1_2" transform="matrix(9.9626,0,0,-9.9626,175.86078,118.393)"/>
<use xlink:href="#font_0_6" transform="matrix(9.9626,0,0,-9.9626,178.26912,118.612178)"/>
<use xlink:href="#font_0_3" transform="matrix(9.9626,0,0,-9.9626,196.47112,118.393)"/>
<clipPath id="cp2">
<path transform="matrix(1,0,0,-1,110.159,121.986)" d="M 97.1363 0 C 97.1363 53.64758 53.64758 97.1363 0 97.1363 C -53.64758 97.1363 -97.1363 53.64758 -97.1363 0 C -97.1363 -53.64758 -53.64758 -97.1363 0 -97.1363 C 53.64758 -97.1363 97.1363 -53.64758 97.1363 0 "/>
</clipPath>
<g clip-path="url(#cp2)">
<path transform="matrix(1,0,0,-1,110.159,121.986)" stroke-width="1.19553" stroke-linecap="butt" stroke-miterlimit="10" stroke-linejoin="miter" fill="none" stroke="#000080" d="M 88.30524 0 C 88.30524 0 88.2089 3.54308 88.095 4.89668 C 87.98111 6.2503 87.7092 8.41808 87.48434 9.75598 C 87.25948 11.09389 86.809 13.22728 86.4743 14.53949 C 86.1396 15.85168 85.51335 17.93694 85.07196 19.21349 C 84.63057 20.49004 83.83679 22.50893 83.29298 23.74002 C 82.74918 24.97113 81.79506 26.91032 81.15251 28.08646 C 80.50998 29.26259 79.39664 31.10394 78.66193 32.21683 C 77.92722 33.32973 76.67625 35.06529 75.8572 36.1075 C 75.03815 37.14972 73.65541 38.76428 72.75871 39.72842 C 71.86201 40.69255 70.36078 42.17679 69.3943 43.05644 C 68.42783 43.93611 66.82132 45.27927 65.79295 46.06842 C 64.76459 46.85757 63.06313 48.04993 61.98245 48.74416 C 60.9018 49.4384 59.12723 50.47617 58.00427 51.07214 C 56.88132 51.66812 55.04474 52.54436 53.88887 53.03964 C 52.73302 53.53494 50.85239 54.24861 49.67354 54.64192 C 48.49469 55.03523 46.58452 55.58427 45.39247 55.87442 C 44.20042 56.16457 42.27779 56.54633 41.08203 56.7331 C 39.88628 56.91986 37.9639 57.13527 36.77419 57.22057 C 35.58447 57.30585 33.68158 57.3612 32.50745 57.34775 C 31.33331 57.3343 29.46144 57.23259 28.31174 57.12354 C 27.16202 57.0145 25.33748 56.7622 24.22104 56.56181 C 23.10461 56.36142 21.34064 55.96674 20.26521 55.6792 C 19.1898 55.39166 17.49738 54.85844 16.47017 54.48944 C 15.44295 54.12045 13.83385 53.46294 12.86176 53.01968 C 11.88965 52.57645 10.37482 51.80554 9.4638 51.29483 C 8.5528 50.78412 7.14058 49.90953 6.29579 49.33875 C 5.45099 48.76796 4.14981 47.8042 3.37505 47.18091 C 2.60028 46.55763 1.41318 45.51434 .71176 44.84647 C .01035 44.17859 -1.05476 43.071 -1.68028 42.36725 C -2.3058 41.66351 -3.24808 40.50565 -3.79659 39.7743 C -4.34508 39.04297 -5.16266 37.84673 -5.63351 37.09625 C -6.10435 36.34578 -6.79678 35.12646 -7.19023 34.36537 C -7.58366 33.60428 -8.15187 32.37465 -8.46921 31.61078 C -8.78656 30.84691 -9.23396 29.61894 -9.4775 28.8599 C -9.72104 28.10085 -10.05177 26.88667 -10.22444 26.14001 C -10.39713 25.39334 -10.61658 24.20557 -10.72206 23.47842 C -10.82753 22.75128 -10.94196 21.60065 -10.98465 20.89928 C -11.02736 20.1979 -11.0448 19.09328 -11.02983 18.42336 C -11.01486 17.75343 -10.9438 16.70428 -10.87671 16.07092 C -10.8096 15.43755 -10.65938 14.45113 -10.54616 13.85834 C -10.43292 13.26556 -10.21355 12.34706 -10.06061 11.7985 C -9.90765 11.24992 -9.62978 10.40619 -9.44377 9.90466 C -9.25775 9.40314 -8.93214 8.63658 -8.71992 8.18378 C -8.5077 7.73097 -8.14568 7.0442 -7.91414 6.64113 C -7.68262 6.23805 -7.2951 5.63179 -7.05121 5.27866 C -6.8073 4.9255 -6.40567 4.39967 -6.1562 4.09584 C -5.90674 3.79202 -5.50185 3.34497 -5.25316 3.08884 C -5.00447 2.8327 -4.60532 2.46034 -4.36377 2.24968 C -4.12222 2.039 -3.74057 1.73854 -3.51216 1.57047 C -3.28375 1.40239 -2.92749 1.16748 -2.71751 1.03824 C -2.50754 .90901 -2.18552 .73364 -1.99881 .63898 C -1.8121 .54431 -1.53111 .42084 -1.3718 .35591 C -1.21248 .29099 -.97891 .21141 -.85054 .17094 C -.72218 .13048 -.54124 .08586 -.44661 .06421 C -.35197 .04254 -.22716 .02353 -.16844 .01472 C -.10974 .00592 -.04466 .0028 -.02338 .00072 C -.00209 -.00134 .00127 .00128 -.015 -.00034 C -.03128 -.00198 -.08755 -.00374 -.14082 -.01118 C -.19409 -.01863 -.30978 -.03471 -.39899 -.05411 C -.48819 -.0735 -.66037 -.11366 -.78384 -.15103 C -.9073 -.18839 -1.13368 -.26234 -1.28897 -.32347 C -1.44426 -.3846 -1.71976 -.5015 -1.90308 -.59167 C -2.08641 -.68185 -2.40334 -.8495 -2.61023 -.9735 C -2.81714 -1.09749 -3.16829 -1.32309 -3.3943 -1.48535 C -3.62033 -1.6476 -3.99948 -1.9387 -4.23927 -2.14294 C -4.47908 -2.34718 -4.8747 -2.70793 -5.12265 -2.95737 C -5.3706 -3.2068 -5.77654 -3.6437 -6.02649 -3.94069 C -6.27643 -4.23769 -6.67899 -4.75189 -6.92413 -5.09787 C -7.16928 -5.44385 -7.55959 -6.03847 -7.79335 -6.43437 C -8.02711 -6.83028 -8.39357 -7.50566 -8.60892 -7.95135 C -8.82426 -8.39705 -9.15546 -9.15211 -9.34555 -9.64662 C -9.53563 -10.14113 -9.82085 -10.97353 -9.97897 -11.51541 C -10.13708 -12.05731 -10.36577 -12.96548 -10.48517 -13.55219 C -10.60455 -14.1389 -10.76544 -15.11604 -10.8396 -15.74399 C -10.91376 -16.37192 -10.99689 -17.41278 -11.01971 -18.0779 C -11.04253 -18.74301 -11.03825 -19.84058 -11.00415 -20.53778 C -10.97006 -21.23497 -10.87 -22.3791 -10.77385 -23.10284 C -10.67769 -23.8266 -10.47386 -25.00993 -10.31111 -25.75409 C -10.14836 -26.49825 -9.83392 -27.70865 -9.60074 -28.46622 C -9.36755 -29.22377 -8.93709 -30.45038 -8.63042 -31.21413 C -8.32375 -31.97787 -7.77281 -33.20866 -7.39043 -33.97081 C -7.00806 -34.73294 -6.33405 -35.9546 -5.87448 -36.70708 C -5.4149 -37.45953 -4.61539 -38.6595 -4.0781 -39.39409 C -3.54079 -40.1287 -2.61644 -41.29344 -2.0019 -42.00154 C -1.38739 -42.70963 -.33951 -43.82433 .35104 -44.49757 C 1.0416 -45.1708 2.21071 -46.22336 2.97523 -46.85384 C 3.73976 -47.48433 5.02596 -48.46233 5.86124 -49.04175 C 6.69652 -49.62117 8.09366 -50.51009 8.99545 -51.03 C 9.89726 -51.5499 11.39728 -52.3359 12.36081 -52.78894 C 13.32434 -53.24197 14.9205 -53.9158 15.93997 -54.29523 C 16.95943 -54.67465 18.63963 -55.22424 19.70844 -55.52364 C 20.77722 -55.82303 22.53192 -56.23927 23.64314 -56.4531 C 24.75436 -56.66693 26.57178 -56.94197 27.71733 -57.0649 C 28.8629 -57.18782 30.72847 -57.31178 31.89957 -57.33913 C 33.07066 -57.36649 34.97003 -57.33345 36.1578 -57.26201 C 37.34558 -57.19058 39.26494 -56.99669 40.46025 -56.82426 C 41.65558 -56.65182 43.5791 -56.29395 44.77283 -56.01912 C 45.96655 -55.74428 47.88176 -55.22104 49.06377 -54.84332 C 50.24579 -54.46559 53.29207 -53.29668 53.29207 -53.29668 "/>
</g>
</svg>
