<?xml version="1.0" encoding="UTF-8" standalone="no"?>
<!DOCTYPE svg PUBLIC "-//W3C//DTD SVG 1.1//EN" "http://www.w3.org/Graphics/SVG/1.1/DTD/svg11.dtd">
<svg xmlns="http://www.w3.org/2000/svg" xmlns:xlink="http://www.w3.org/1999/xlink" version="1.1" width="219.263pt" height="246.103pt" viewBox="0 0 219.263 246.103">
<path transform="matrix(1,0,0,-1,110.159,121.986)" stroke-width="1" stroke-linecap="butt" stroke-miterlimit="10" stroke-linejoin="miter" fill="none" stroke="#bfbfbf" d="M 0 0 L 97.1363 0 M 0 0 L 68.6858 68.6858 M 0 0 L 0 97.1363 M 0 0 L -68.6858 68.6858 M 0 0 L -97.1363 0 M 0 0 L -68.6858 -68.6858 M 0 0 L 0 -97.1363 M 0 0 L 68.6858 -68.6858 "/>
<path transform="matrix(1,0,0,-1,110.159,121.986)" stroke-width="1" stroke-linecap="butt" stroke-miterlimit="10" stroke-linejoin="miter" fill="none" stroke="#bfbfbf" d="M 22.07631 0 C 22.07631 12.19255 12.19255 22.07631 0 22.07631 C -12.19255 22.07631 -22.07631 12.19255 -22.07631 0 C -22.07631 -12.19255 -12.19255 -22.07631 0 -22.07631 C 12.19255 -22.07631 22.07631 -12.19255 22.07631 0 M 44.15262 0 C 44.15262 24.38512 24.38512 44.15262 0 44.15262 C -24.38512 44.15262 -44.15262 24.38512 -44.15262 0 C -44.15262 -24.38512 -24.38512 -44.15262 0 -44.15262 C 24.38512 -44.15262 44.15262 -24.38512 44.15262 0 M 66.22893 0 C 66.22893 36.57768 36.57768 66.22893 0 66.22893 C -36.57768 66.22893 -66.22893 36.57768 -66.22893 0 C -66.22893 -36.57768 -36.57768 -66.22893 0 -66.22893 C 36.57768 -66.22893 66.22893 -36.57768 66.22893 0 M 88.30524 0 C 88.30524 48.77026 48.77026 88.30524 0 88.30524 C -48.77026 88.30524 -88.30524 48.77026 -88.30524 0 C -88.30524 -48.77026 -48.77026 -88.30524 0 -88.30524 C 48.77026 -88.30524 88.30524 -48.77026 88.30524 0 "/>
<path transform="matrix(1,0,0,-1,110.159,121.986)" stroke-width="1" stroke-linecap="butt" stroke-miterlimit="10" stroke-linejoin="miter" fill="none" stroke="#808080" d="M 97.1363 0 L 101.38814 0 M 68.6858 68.6858 L 71.69229 71.69229 M 0 97.1363 L 0 101.38814 M -68.6858 68.6858 L -71.69229 71.69229 M -97.1363 0 L -101.38814 0 M -68.6858 -68.6858 L -71.69229 -71.69229 M 0 -97.1363 L 0 -101.38814 M 68.6858 -68.6858 L 71.69229 -71.69229 "/>
<path transform="matrix(1,0,0,-1,110.159,121.986)" stroke-width="1" stroke-linecap="butt" stroke-miterlimit="10" stroke-linejoin="miter" fill="none" stroke="#808080" d="M 22.07631 0 L 22.07631 4.25183 M 44.15262 0 L 44.15262 4.25183 M 66.22893 0 L 66.22893 4.25183 M 88.30524 0 L 88.30524 4.25183 "/>
<path transform="matrix(1,0,0,-1,110.159,121.986)" stroke-width="1" stroke-linecap="butt" stroke-miterlimit="10" stroke-linejoin="miter" fill="none" stroke="#000000" d="M 0 0 L 0 0 "/>
<path transform="matrix(1,0,0,-1,110.159,121.986)" stroke-width="1" stroke-linecap="butt" stroke-miterlimit="10" stroke-linejoin="miter" fill="none" stroke="#000000" d="M 97.1363 0 C 97.1363 53.64758 53.64758 97.1363 0 97.1363 C -53.64758 97.1363 -97.1363 53.64758 -97.1363 0 C -97.1363 -53.64758 -53.64758 -97.1363 0 -97.1363 C 53.64758 -97.1363 97.1363 -53.64758 97.1363 0 "/>
<path transform="matrix(1,0,0,-1,110.159,121.986)" stroke-width="1" stroke-linecap="butt" stroke-miterlimit="10" stroke-linejoin="miter" fill="none" stroke="#000000" d="M 0 0 L 97.1363 0 "/>
<path transform="matrix(1,0,0,-1,110.159,121.986)" stroke-width="1" stroke-linecap="butt" stroke-miterlimit="10" stroke-linejoin="miter" fill="none" stroke="#000000" d="M 0 0 L 97.1363 0 "/>
<symbol id="font_0_1">
<path d="M .421 .34200005 C .421 .42200003 .416 .50200006 .381 .57600006 C .335 .67200008 .25300003 .688 .211 .688 C .15100001 .688 .07800001 .66200008 .037000006 .56900009 C .0050000029 .5 0 .42200003 0 .34200005 C 0 .26700003 .0040000008 .177 .045000007 .101 C .088 .020000002 .161 0 .21000001 0 C .264 0 .34 .021000002 .384 .116000007 C .416 .185 .421 .263 .421 .34200005 M .21000001 .022000002 C .171 .022000002 .112 .047000003 .094 .143 C .083000008 .20300001 .083000008 .29500003 .083000008 .35400004 C .083000008 .41800005 .083000008 .48400004 .091000009 .53800007 C .11 .65700009 .185 .66600009 .21000001 .66600009 C .243 .66600009 .30900003 .64800009 .328 .549 C .338 .49300004 .338 .41700004 .338 .35400004 C .338 .279 .338 .21100001 .32700003 .147 C .312 .052 .255 .022000002 .21000001 .022000002 Z "/>
</symbol>
<use xlink:href="#font_0_1" transform="matrix(9.9626,0,0,-9.9626,211.27654,125.41518)"/>
<symbol id="font_1_1">
<path d="M .23800002 .38400004 L .351 .38400004 C .31800003 .23600002 .30900003 .19300002 .30900003 .126 C .30900003 .111 .30900003 .08400001 .317 .05 C .327 .0060000007 .338 0 .35300002 0 C .373 0 .39400003 .018000002 .39400003 .038000004 C .39400003 .044 .39400003 .046 .388 .060000004 C .359 .13200002 .359 .19700001 .359 .22500003 C .359 .27800004 .366 .33200003 .377 .38400004 L .491 .38400004 C .504 .38400004 .54 .38400004 .54 .418 C .54 .44200004 .519 .44200004 .5 .44200004 L .165 .44200004 C .143 .44200004 .105 .44200004 .061000006 .395 C .026000003 .35600005 0 .31000004 0 .305 C 0 .30400003 0 .29500003 .012 .29500003 C .020000002 .29500003 .022000002 .29900003 .028000003 .307 C .077 .38400004 .135 .38400004 .15500002 .38400004 L .21200001 .38400004 C .18000002 .263 .12600002 .14200002 .08400001 .051000004 C .076000008 .036000004 .076000008 .034 .076000008 .027000003 C .076000008 .008000001 .092 0 .105 0 C .135 0 .143 .028 .15500002 .065000008 C .16900002 .111 .16900002 .113000009 .18200001 .16300002 L .23800002 .38400004 Z "/>
</symbol>
<use xlink:href="#font_1_1" transform="matrix(9.9626,0,0,-9.9626,186.262,38.601594)"/>
<path transform="matrix(1,0,0,-1,185.993,42.742006)" stroke-width="1" stroke-linecap="butt" stroke-miterlimit="10" stroke-linejoin="miter" fill="none" stroke="#000000" d="M 0 0 L 6.036 0 "/>
<symbol id="font_0_5">
<path d="M .266 .165 L .266 .078 C .266 .042000005 .26400004 .031000002 .19000001 .031000002 L .16900002 .031000002 L .16900002 0 C .21000001 .003 .26200003 .003 .30400003 .003 C .34600003 .003 .39900003 .003 .44000004 0 L .44000004 .031000002 L .41900004 .031000002 C .34500004 .031000002 .34300003 .042000005 .34300003 .078 L .34300003 .165 L .44300003 .165 L .44300003 .19600001 L .34300003 .19600001 L .34300003 .651 C .34300003 .671 .34300003 .67700007 .32700003 .67700007 C .31800003 .67700007 .31500004 .67700007 .307 .665 L 0 .19600001 L 0 .165 L .266 .165 M .272 .19600001 L .028 .19600001 L .272 .569 L .272 .19600001 Z "/>
</symbol>
<use xlink:href="#font_0_5" transform="matrix(9.9626,0,0,-9.9626,186.79895,52.065996)"/>
<use xlink:href="#font_1_1" transform="matrix(9.9626,0,0,-9.9626,107.40999,7.793579)"/>
<path transform="matrix(1,0,0,-1,107.141,11.932999)" stroke-width="1" stroke-linecap="butt" stroke-miterlimit="10" stroke-linejoin="miter" fill="none" stroke="#000000" d="M 0 0 L 6.036 0 "/>
<symbol id="font_0_3">
<path d="M .07700001 .07700001 L .18300002 .18 C .33900003 .31800003 .39900003 .372 .39900003 .47200004 C .39900003 .586 .30900003 .666 .18700002 .666 C .074 .666 0 .574 0 .485 C 0 .42900003 .05 .42900003 .053000008 .42900003 C .07000001 .42900003 .105000007 .441 .105000007 .48200003 C .105000007 .508 .08700001 .53400006 .052000006 .53400006 C .044000005 .53400006 .042000008 .53400006 .039 .53300008 C .062000004 .59800007 .11600001 .63500007 .17400001 .63500007 C .26500003 .63500007 .308 .554 .308 .47200004 C .308 .39200003 .25800003 .31300003 .20300003 .25100003 L .011000004 .037 C 0 .026 0 .024 0 0 L .37100003 0 L .39900003 .17400001 L .374 .17400001 C .36900003 .14400001 .36200003 .1 .352 .085 C .345 .07700001 .279 .07700001 .257 .07700001 L .07700001 .07700001 Z "/>
</symbol>
<use xlink:href="#font_0_3" transform="matrix(9.9626,0,0,-9.9626,108.16713,21.257004)"/>
<symbol id="font_0_4">
<path d="M .24800003 .37400005 C .33 .40100003 .388 .47100006 .388 .55 C .388 .632 .3 .688 .204 .688 C .10300001 .688 .027000003 .628 .027000003 .55200007 C .027000003 .519 .049000004 .5 .078 .5 C .109000008 .5 .12900001 .522 .12900001 .55100008 C .12900001 .6010001 .082 .6010001 .067 .6010001 C .098 .65000006 .164 .66300007 .20000002 .66300007 C .24100003 .66300007 .29600004 .64100006 .29600004 .55100008 C .29600004 .53900006 .29400004 .48100005 .268 .43700005 C .238 .38900004 .204 .38600005 .17900002 .38500003 C .171 .38400004 .14700002 .38200004 .14000002 .38200004 C .132 .38100005 .125 .38000003 .125 .37000004 C .125 .35900004 .132 .35900004 .14900002 .35900004 L .19300002 .35900004 C .275 .35900004 .312 .29100005 .312 .193 C .312 .057000005 .24300003 .028 .199 .028 C .15600002 .028 .081 .045 .046000005 .104 C .081 .09900001 .11200001 .12100001 .11200001 .15900001 C .11200001 .19500001 .085 .215 .056 .215 C .031999999 .215 0 .201 0 .157 C 0 .06600001 .093 0 .20200002 0 C .32400004 0 .41500003 .091000009 .41500003 .193 C .41500003 .27500005 .35200004 .35300005 .24800003 .37400005 Z "/>
</symbol>
<use xlink:href="#font_0_4" transform="matrix(9.9626,0,0,-9.9626,24.439425,37.999177)"/>
<use xlink:href="#font_1_1" transform="matrix(9.9626,0,0,-9.9626,29.270985,37.889589)"/>
<path transform="matrix(1,0,0,-1,24.020997,42.02899)" stroke-width="1" stroke-linecap="butt" stroke-miterlimit="10" stroke-linejoin="miter" fill="none" stroke="#000000" d="M 0 0 L 11.018 0 "/>
<use xlink:href="#font_0_5" transform="matrix(9.9626,0,0,-9.9626,27.31795,51.352998)"/>
<use xlink:href="#font_1_1" transform="matrix(9.9626,0,0,-9.9626,3.6629875,124.240589)"/>
<symbol id="font_0_6">
<path d="M .39900003 .223 C .39900003 .34200005 .317 .44200004 .209 .44200004 C .16100002 .44200004 .118000019 .42600004 .082 .39100004 L .082 .586 C .10200001 .58000007 .135 .573 .16700001 .573 C .29 .573 .36 .66400006 .36 .67700007 C .36 .683 .357 .688 .35 .688 C .349 .688 .347 .688 .342 .68500009 C .322 .67600008 .273 .656 .20600002 .656 C .16600001 .656 .120000008 .66300007 .073 .6840001 C .065 .68700006 .06300001 .68700006 .061000009 .68700006 C .051000004 .68700006 .051000004 .679 .051000004 .66300007 L .051000004 .36700005 C .051000004 .34900005 .051000004 .34100003 .065 .34100003 C .07200001 .34100003 .074 .34400005 .07800001 .35000003 C .08900002 .36600004 .12600002 .42000006 .207 .42000006 C .259 .42000006 .284 .37400005 .292 .35600005 C .308 .31900005 .31 .28000004 .31 .23 C .31 .19500001 .31 .135 .286 .093 C .262 .054000006 .22500001 .028 .17900002 .028 C .106000009 .028 .049000008 .08100001 .032 .14000002 C .035 .13900002 .038000008 .13800001 .049000008 .13800001 C .082 .13800001 .09900001 .163 .09900001 .187 C .09900001 .21100001 .082 .23600002 .049000008 .23600002 C .035 .23600002 0 .22900002 0 .18300002 C 0 .097 .069000009 0 .18100001 0 C .297 0 .39900003 .096 .39900003 .223 Z "/>
</symbol>
<use xlink:href="#font_0_6" transform="matrix(9.9626,0,0,-9.9626,24.519127,199.25818)"/>
<use xlink:href="#font_1_1" transform="matrix(9.9626,0,0,-9.9626,29.270985,199.14859)"/>
<path transform="matrix(1,0,0,-1,24.020997,203.288)" stroke-width="1" stroke-linecap="butt" stroke-miterlimit="10" stroke-linejoin="miter" fill="none" stroke="#000000" d="M 0 0 L 11.018 0 "/>
<use xlink:href="#font_0_5" transform="matrix(9.9626,0,0,-9.9626,27.31795,212.61299)"/>
<use xlink:href="#font_0_4" transform="matrix(9.9626,0,0,-9.9626,105.06842,229.35417)"/>
<use xlink:href="#font_1_1" transform="matrix(9.9626,0,0,-9.9626,109.900989,229.24459)"/>
<path transform="matrix(1,0,0,-1,104.649997,233.384)" stroke-width="1" stroke-linecap="butt" stroke-miterlimit="10" stroke-linejoin="miter" fill="none" stroke="#000000" d="M 0 0 L 11.018 0 "/>
<use xlink:href="#font_0_3" transform="matrix(9.9626,0,0,-9.9626,108.16712,242.709)"/>
<symbol id="font_0_7">
<path d="M .42000003 .63100007 C .42900003 .64300009 .42900003 .64500007 .42900003 .66600009 L .18600002 .66600009 C .064 .66600009 .062000008 .679 .058000007 .6980001 L .033 .6980001 L 0 .49200005 L .024999999 .49200005 C .028000005 .508 .037 .57100006 .050000006 .58300009 C .057000005 .58900007 .13500002 .58900007 .148 .58900007 L .35500003 .58900007 C .344 .573 .26500003 .46400006 .24300003 .43100003 C .153 .29600004 .12000001 .157 .12000001 .055 C .12000001 .045 .12000001 0 .16600001 0 C .21200001 0 .21200001 .045 .21200001 .055 L .21200001 .106000009 C .21200001 .16100002 .21500004 .216 .22300002 .27 C .22700003 .29300005 .24100003 .37900005 .28500004 .44100005 L .42000003 .63100007 Z "/>
</symbol>
<use xlink:href="#font_0_7" transform="matrix(9.9626,0,0,-9.9626,185.8379,199.25818)"/>
<use xlink:href="#font_1_1" transform="matrix(9.9626,0,0,-9.9626,190.53,199.14859)"/>
<path transform="matrix(1,0,0,-1,185.28,203.288)" stroke-width="1" stroke-linecap="butt" stroke-miterlimit="10" stroke-linejoin="miter" fill="none" stroke="#000000" d="M 0 0 L 11.018 0 "/>
<use xlink:href="#font_0_5" transform="matrix(9.9626,0,0,-9.9626,188.57695,212.61299)"/>
<use xlink:href="#font_0_1" transform="matrix(9.9626,0,0,-9.9626,123.76854,118.612178)"/>
<symbol id="font_1_2">
<path d="M .106 .053000004 C .106 .082 .08200001 .106000009 .05300001 .106000009 C .024000004 .106000009 0 .082 0 .053000004 C 0 .024 .024000004 0 .05300001 0 C .08200001 0 .106 .024 .106 .053000004 Z "/>
</symbol>
<use xlink:href="#font_1_2" transform="matrix(9.9626,0,0,-9.9626,129.21778,118.393)"/>
<use xlink:href="#font_0_3" transform="matrix(9.9626,0,0,-9.9626,131.62612,118.393)"/>
<use xlink:href="#font_0_6" transform="matrix(9.9626,0,0,-9.9626,136.6074,118.612178)"/>
<use xlink:href="#font_0_1" transform="matrix(9.9626,0,0,-9.9626,148.33454,118.612178)"/>
<use xlink:href="#font_1_2" transform="matrix(9.9626,0,0,-9.9626,153.78478,118.393)"/>
<use xlink:href="#font_0_6" transform="matrix(9.9626,0,0,-9.9626,156.19312,118.612178)"/>
<use xlink:href="#font_0_1" transform="matrix(9.9626,0,0,-9.9626,167.92053,118.612178)"/>
<use xlink:href="#font_1_2" transform="matrix(9.9626,0,0,-9.9626,173.36978,118.393)"/>
<use xlink:href="#font_0_7" transform="matrix(9.9626,0,0,-9.9626,175.8379,118.612178)"/>
<use xlink:href="#font_0_6" transform="matrix(9.9626,0,0,-9.9626,180.75942,118.612178)"/>
<symbol id="font_0_2">
<path d="M .205 .64000007 C .205 .66400006 .205 .666 .18200003 .666 C .120000008 .60200008 .032000007 .60200008 0 .60200008 L 0 .57100006 C .020000004 .57100006 .07900001 .57100006 .13100001 .597 L .13100001 .079 C .13100001 .043 .128 .031000002 .038000004 .031000002 L .0060000049 .031000002 L .0060000049 0 C .04100001 .003 .128 .003 .168 .003 C .20800002 .003 .29500003 .003 .33000005 0 L .33000005 .031000002 L .29800005 .031000002 C .20800002 .031000002 .205 .042000005 .205 .079 L .205 .64000007 Z "/>
</symbol>
<use xlink:href="#font_0_2" transform="matrix(9.9626,0,0,-9.9626,196.85967,118.393)"/>
<clipPath id="cp2">
<path transform="matrix(1,0,0,-1,110.159,121.986)" d="M 97.1363 0 C 97.1363 53.64758 53.64758 97.1363 0 97.1363 C -53.64758 97.1363 -97.1363 53.64758 -97.1363 0 C -97.1363 -53.64758 -53.64758 -97.1363 0 -97.1363 C 53.64758 -97.1363 97.1363 -53.64758 97.1363 0 "/>
</clipPath>
<g clip-path="url(#cp2)">
<path transform="matrix(1,0,0,-1,110.159,121.986)" stroke-width="1.19553" stroke-linecap="butt" stroke-miterlimit="10" stroke-linejoin="miter" fill="none" stroke="#000080" d="M 88.30524 0 C 88.30524 0 88.1418 2.53078 87.94878 3.4894 C 87.75575 4.44801 87.29514 5.98 86.91406 6.90909 C 86.533 7.8382 85.76782 9.30554 85.2022 10.18575 C 84.63658 11.06593 83.58052 12.44002 82.8374 13.253 C 82.09428 14.066 80.75731 15.31735 79.84624 16.04529 C 78.93517 16.77322 77.33748 17.87231 76.271 18.49947 C 75.20451 19.1266 73.36903 20.05397 72.15977 20.56538 C 70.95052 21.0768 68.8921 21.80324 67.55542 22.18536 C 66.21875 22.56749 63.97209 23.07768 62.52591 23.31953 C 61.07973 23.5614 58.66986 23.8359 57.13234 23.92856 C 55.59483 24.02121 53.05478 24.0512 51.44455 23.98741 C 49.83432 23.92361 47.18915 23.69353 45.52686 23.46881 C 43.86458 23.2441 41.15723 22.75565 39.46382 22.3678 C 37.77043 21.97995 35.0261 21.2246 33.322 20.67343 C 31.6179 20.12227 28.87527 19.10669 27.18184 18.39534 C 25.48842 17.68399 22.77937 16.41315 21.11693 15.54648 C 19.45448 14.67981 16.81174 13.16391 15.20001 12.149 C 13.58829 11.13411 11.04237 9.38512 9.50064 8.23175 C 7.9589 7.0784 5.54196 5.11621 4.08815 3.8363 C 2.63434 2.55638 .3722 .39992 -.97745 -.993 C -2.32712 -2.38593 -4.40817 -4.71202 -5.6393 -6.20293 C -6.87044 -7.69383 -8.75117 -10.16673 -9.85068 -11.7384 C -10.95018 -13.31007 -12.60675 -15.89627 -13.56377 -17.53055 C -14.52077 -19.16483 -15.94247 -21.8399 -16.74823 -23.51715 C -17.55397 -25.1944 -18.72311 -27.91913 -19.37105 -29.61903 C -20.019 -31.31895 -20.93184 -34.06677 -21.41812 -35.76898 C -21.9044 -37.47119 -22.55315 -40.20396 -22.87589 -41.88742 C -23.19862 -43.57086 -23.58391 -46.25797 -23.74426 -47.90219 C -23.90463 -49.5464 -24.03087 -52.15408 -24.0318 -53.73787 C -24.03273 -55.32167 -23.904 -57.81361 -23.751 -59.3171 C -23.59799 -60.82057 -23.22786 -63.16951 -22.92892 -64.57391 C -22.62999 -65.97832 -22.0312 -68.1508 -21.5965 -69.43912 C -21.1618 -70.72745 -20.35468 -72.70486 -19.7958 -73.85924 C -19.23694 -75.01363 -18.23798 -76.75348 -17.5685 -77.7591 C -16.89902 -78.76472 -15.73477 -80.26167 -14.97064 -81.10713 C -14.20651 -81.95259 -12.90297 -83.17874 -12.06111 -83.85263 C -11.21924 -84.52652 -9.80486 -85.47102 -8.903 -85.9641 C -8.00114 -86.45717 -6.50417 -87.1003 -5.56113 -87.40643 C -4.61807 -87.71257 -3.07098 -88.0542 -2.1062 -88.17053 C -1.1414 -88.28688 .42564 -88.32156 1.39249 -88.24496 C 2.35934 -88.16838 3.91318 -87.88658 4.86217 -87.61848 C 5.81114 -87.35037 7.32022 -86.76794 8.2322 -86.31264 C 9.14418 -85.85732 10.57922 -84.97342 11.4351 -84.33678 C 12.29099 -83.70013 13.61966 -82.53511 14.40088 -81.72404 C 15.18208 -80.913 16.37595 -79.46614 17.06564 -78.49126 C 17.75534 -77.51637 18.78917 -75.82301 19.3718 -74.69768 C 19.95442 -73.57236 20.8034 -71.64238 21.26494 -70.38058 C 21.72647 -69.11879 22.3708 -66.98564 22.69829 -65.6035 C 23.02579 -64.22137 23.44211 -61.90428 23.6253 -60.41908 C 23.80852 -58.93388 23.98749 -56.46797 24.0187 -54.89917 C 24.04993 -53.33037 23.9778 -50.74532 23.85045 -49.1122 C 23.7231 -47.47908 23.39023 -44.8057 23.1008 -43.1287 C 22.81137 -41.45168 22.21729 -38.72572 21.76439 -37.02551 C 21.3115 -35.32529 20.45175 -32.57668 19.83658 -30.87459 C 19.22142 -29.1725 18.10454 -26.4413 17.33072 -24.75793 C 16.5569 -23.07457 15.18619 -20.3869 14.25937 -18.74203 C 13.33255 -17.09718 11.72206 -14.48906 10.6508 -12.90288 C 9.57954 -11.31671 7.74371 -8.81883 6.53844 -7.30994 C 5.33316 -5.80106 3.29051 -3.44205 1.96396 -2.02786 C .63742 -.61366 -1.5887 1.5785 -3.0224 2.88258 C -4.4561 4.18665 -6.8438 6.1906 -8.36913 7.371 C -9.89444 8.5514 -12.41716 10.3461 -14.01595 11.39012 C -15.61472 12.43414 -18.23851 13.9981 -19.89207 14.89563 C -21.54564 15.79318 -24.24493 17.11545 -25.93369 17.859 C -27.62244 18.60254 -30.35968 19.67036 -32.06348 20.25465 C -33.76726 20.83894 -36.51613 21.64883 -38.21347 22.07019 C -39.9108 22.49155 -42.62668 23.03383 -44.29668 23.29156 C -45.96667 23.5493 -48.62721 23.83139 -50.24968 23.92776 C -51.87213 24.02415 -54.43617 24.04741 -55.9903 23.98627 C -57.5444 23.92513 -59.9843 23.69897 -61.45065 23.48706 C -62.91699 23.27515 -65.19872 22.81319 -66.55882 22.4589 C -67.91895 22.1046 -70.01646 21.41948 -71.25351 20.9335 C -72.49055 20.44753 -74.37767 19.56068 -75.47469 18.95622 C -76.5717 18.35176 -78.21666 17.28568 -79.16013 16.57693 C -80.10359 15.86818 -81.49625 14.64516 -82.27457 13.848 C -83.0529 13.05086 -84.16643 11.69955 -84.76979 10.8316 C -85.37317 9.96364 -86.2039 8.5131 -86.6233 7.59233 C -87.04272 6.67157 -87.56207 5.14941 -87.79265 4.19527 C -88.02324 3.24112 -88.24567 1.68289 -88.28525 .71536 C -88.32484 -.25215 -88.23102 -1.81613 -88.07803 -2.77809 C -87.92506 -3.74007 -87.52582 -5.281 -87.18263 -6.21788 C -86.83945 -7.15474 -86.13338 -8.63872 -85.6046 -9.53044 C -85.0758 -10.42218 -84.07872 -11.81659 -83.3715 -12.64493 C -82.66429 -13.47325 -81.38487 -14.75351 -80.5075 -15.50047 C -79.63014 -16.24744 -78.08427 -17.37965 -77.048 -18.02856 C -76.01172 -18.67747 -74.22025 -19.64136 -73.0387 -20.17738 C -71.85716 -20.71341 -69.8433 -21.4823 -68.53221 -21.89186 C -67.22112 -22.30142 -65.0143 -22.85785 -63.58916 -23.12923 C -62.16402 -23.40059 -59.78166 -23.72408 -58.26073 -23.84781 C -56.73978 -23.97154 -54.22403 -24.0524 -52.62717 -24.02101 C -51.03032 -23.98964 -48.40474 -23.813 -46.7516 -23.62158 C -45.09848 -23.43016 -42.40146 -22.99571 -40.71254 -22.64128 C -39.0236 -22.28687 -36.2827 -21.58514 -34.57892 -21.06715 C -32.87512 -20.54916 -30.1297 -19.58664 -28.43272 -18.9079 C -26.73575 -18.22914 -24.01852 -17.01054 -22.34814 -16.17511 C -20.67776 -15.33968 -18.01738 -13.87184 -16.39374 -12.8866 C -14.77011 -11.90137 -12.20341 -10.19994 -10.64607 -9.07416 C -9.08875 -7.94838 -6.64293 -6.028 -5.16953 -4.77272 C -3.69614 -3.51743 -.02684 -.02682 -.02684 -.02682 "/>
</g>
</svg>
