<?xml version="1.0" encoding="UTF-8" standalone="no"?>
<!DOCTYPE svg PUBLIC "-//W3C//DTD SVG 1.1//EN" "http://www.w3.org/Graphics/SVG/1.1/DTD/svg11.dtd">
<svg xmlns="http://www.w3.org/2000/svg" xmlns:xlink="http://www.w3.org/1999/xlink" version="1.1" width="212.269pt" height="174.828pt" viewBox="0 0 212.269 174.828">
<path transform="matrix(1,0,0,-1,5.291,174.629)" stroke-width="1" stroke-linecap="butt" stroke-miterlimit="10" stroke-linejoin="miter" fill="none" stroke="#808080" d="M 31.84029 78.5705 L 31.84029 82.8225 M 54.87683 78.5705 L 54.87683 82.8225 M 77.91365 78.5705 L 77.91365 82.8225 M 100.95018 78.5705 L 100.95018 82.8225 M 123.987 78.5705 L 123.987 82.8225 M 147.02353 78.5705 L 147.02353 82.8225 M 170.06037 78.5705 L 170.06037 82.8225 "/>
<path transform="matrix(1,0,0,-1,5.291,174.629)" stroke-width="1" stroke-linecap="butt" stroke-miterlimit="10" stroke-linejoin="miter" fill="none" stroke="#808080" d="M 6.67787 142.77074 L 10.92964 142.77074 "/>
<path transform="matrix(1,0,0,-1,5.291,174.629)" stroke-width="1" stroke-linecap="butt" stroke-miterlimit="10" stroke-linejoin="miter" fill="none" stroke="#000000" d="M 0 80.6965 L 192.27733 80.6965 "/>
<path transform="matrix(1,0,0,-1,197.56833,93.932498)" d="M 1.99252 0 L -1.19551 1.59401 L 0 0 L -1.19551 -1.59401 "/>
<path transform="matrix(1,0,0,-1,5.291,174.629)" stroke-width="1" stroke-linecap="butt" stroke-miterlimit="10" stroke-linejoin="miter" fill="none" stroke="#000000" d="M 8.80376 0 L 8.80376 159.40048 "/>
<path transform="matrix(0,-1,-1,-0,14.094759,15.228516)" d="M 1.99252 0 L -1.19551 1.59401 L 0 0 L -1.19551 -1.59401 "/>
<symbol id="font_0_1">
<path d="M .23800002 .38400004 L .351 .38400004 C .31800003 .23600002 .30900003 .19300002 .30900003 .126 C .30900003 .111 .30900003 .08400001 .317 .05 C .327 .0060000007 .338 0 .35300002 0 C .373 0 .39400003 .018000002 .39400003 .038000004 C .39400003 .044 .39400003 .046 .388 .060000004 C .359 .13200002 .359 .19700001 .359 .22500003 C .359 .27800004 .366 .33200003 .377 .38400004 L .491 .38400004 C .504 .38400004 .54 .38400004 .54 .418 C .54 .44200004 .519 .44200004 .5 .44200004 L .165 .44200004 C .143 .44200004 .105 .44200004 .061000006 .395 C .026000003 .35600005 0 .31000004 0 .305 C 0 .30400003 0 .29500003 .012 .29500003 C .020000002 .29500003 .022000002 .29900003 .028000003 .307 C .077 .38400004 .135 .38400004 .15500002 .38400004 L .21200001 .38400004 C .18000002 .263 .12600002 .14200002 .08400001 .051000004 C .076000008 .036000004 .076000008 .034 .076000008 .027000003 C .076000008 .008000001 .092 0 .105 0 C .135 0 .143 .028 .15500002 .065000008 C .16900002 .111 .16900002 .113000009 .18200001 .16300002 L .23800002 .38400004 Z "/>
</symbol>
<use xlink:href="#font_0_1" transform="matrix(9.9626,0,0,-9.9626,34.38199,104.05159)"/>
<path transform="matrix(1,0,0,-1,34.113,108.191)" stroke-width="1" stroke-linecap="butt" stroke-miterlimit="10" stroke-linejoin="miter" fill="none" stroke="#000000" d="M 0 0 L 6.036 0 "/>
<symbol id="font_1_4">
<path d="M .266 .165 L .266 .078 C .266 .042000005 .26400004 .031000002 .19000001 .031000002 L .16900002 .031000002 L .16900002 0 C .21000001 .003 .26200003 .003 .30400003 .003 C .34600003 .003 .39900003 .003 .44000004 0 L .44000004 .031000002 L .41900004 .031000002 C .34500004 .031000002 .34300003 .042000005 .34300003 .078 L .34300003 .165 L .44300003 .165 L .44300003 .19600001 L .34300003 .19600001 L .34300003 .651 C .34300003 .671 .34300003 .67700007 .32700003 .67700007 C .31800003 .67700007 .31500004 .67700007 .307 .665 L 0 .19600001 L 0 .165 L .266 .165 M .272 .19600001 L .028 .19600001 L .272 .569 L .272 .19600001 Z "/>
</symbol>
<use xlink:href="#font_1_4" transform="matrix(9.9626,0,0,-9.9626,34.919954,117.51601)"/>
<use xlink:href="#font_0_1" transform="matrix(9.9626,0,0,-9.9626,57.417989,104.05159)"/>
<path transform="matrix(1,0,0,-1,57.149,108.191)" stroke-width="1" stroke-linecap="butt" stroke-miterlimit="10" stroke-linejoin="miter" fill="none" stroke="#000000" d="M 0 0 L 6.036 0 "/>
<symbol id="font_1_2">
<path d="M .07700001 .07700001 L .18300002 .18 C .33900003 .31800003 .39900003 .372 .39900003 .47200004 C .39900003 .586 .30900003 .666 .18700002 .666 C .074 .666 0 .574 0 .485 C 0 .42900003 .05 .42900003 .053000008 .42900003 C .07000001 .42900003 .105000007 .441 .105000007 .48200003 C .105000007 .508 .08700001 .53400006 .052000006 .53400006 C .044000005 .53400006 .042000008 .53400006 .039 .53300008 C .062000004 .59800007 .11600001 .63500007 .17400001 .63500007 C .26500003 .63500007 .308 .554 .308 .47200004 C .308 .39200003 .25800003 .31300003 .20300003 .25100003 L .011000004 .037 C 0 .026 0 .024 0 0 L .37100003 0 L .39900003 .17400001 L .374 .17400001 C .36900003 .14400001 .36200003 .1 .352 .085 C .345 .07700001 .279 .07700001 .257 .07700001 L .07700001 .07700001 Z "/>
</symbol>
<use xlink:href="#font_1_2" transform="matrix(9.9626,0,0,-9.9626,58.17513,117.51601)"/>
<symbol id="font_1_3">
<path d="M .24800003 .37400005 C .33 .40100003 .388 .47100006 .388 .55 C .388 .632 .3 .688 .204 .688 C .10300001 .688 .027000003 .628 .027000003 .55200007 C .027000003 .519 .049000004 .5 .078 .5 C .109000008 .5 .12900001 .522 .12900001 .55100008 C .12900001 .6010001 .082 .6010001 .067 .6010001 C .098 .65000006 .164 .66300007 .20000002 .66300007 C .24100003 .66300007 .29600004 .64100006 .29600004 .55100008 C .29600004 .53900006 .29400004 .48100005 .268 .43700005 C .238 .38900004 .204 .38600005 .17900002 .38500003 C .171 .38400004 .14700002 .38200004 .14000002 .38200004 C .132 .38100005 .125 .38000003 .125 .37000004 C .125 .35900004 .132 .35900004 .14900002 .35900004 L .19300002 .35900004 C .275 .35900004 .312 .29100005 .312 .193 C .312 .057000005 .24300003 .028 .199 .028 C .15600002 .028 .081 .045 .046000005 .104 C .081 .09900001 .11200001 .12100001 .11200001 .15900001 C .11200001 .19500001 .085 .215 .056 .215 C .031999999 .215 0 .201 0 .157 C 0 .06600001 .093 0 .20200002 0 C .32400004 0 .41500003 .091000009 .41500003 .193 C .41500003 .27500005 .35200004 .35300005 .24800003 .37400005 Z "/>
</symbol>
<use xlink:href="#font_1_3" transform="matrix(9.9626,0,0,-9.9626,78.11343,106.29218)"/>
<use xlink:href="#font_0_1" transform="matrix(9.9626,0,0,-9.9626,82.94499,106.182598)"/>
<path transform="matrix(1,0,0,-1,77.695,110.32201)" stroke-width="1" stroke-linecap="butt" stroke-miterlimit="10" stroke-linejoin="miter" fill="none" stroke="#000000" d="M 0 0 L 11.018 0 "/>
<use xlink:href="#font_1_4" transform="matrix(9.9626,0,0,-9.9626,80.99195,119.647)"/>
<use xlink:href="#font_0_1" transform="matrix(9.9626,0,0,-9.9626,103.49099,104.05159)"/>
<symbol id="font_1_5">
<path d="M .39900003 .223 C .39900003 .34200005 .317 .44200004 .209 .44200004 C .16100002 .44200004 .118000019 .42600004 .082 .39100004 L .082 .586 C .10200001 .58000007 .135 .573 .16700001 .573 C .29 .573 .36 .66400006 .36 .67700007 C .36 .683 .357 .688 .35 .688 C .349 .688 .347 .688 .342 .68500009 C .322 .67600008 .273 .656 .20600002 .656 C .16600001 .656 .120000008 .66300007 .073 .6840001 C .065 .68700006 .06300001 .68700006 .061000009 .68700006 C .051000004 .68700006 .051000004 .679 .051000004 .66300007 L .051000004 .36700005 C .051000004 .34900005 .051000004 .34100003 .065 .34100003 C .07200001 .34100003 .074 .34400005 .07800001 .35000003 C .08900002 .36600004 .12600002 .42000006 .207 .42000006 C .259 .42000006 .284 .37400005 .292 .35600005 C .308 .31900005 .31 .28000004 .31 .23 C .31 .19500001 .31 .135 .286 .093 C .262 .054000006 .22500001 .028 .17900002 .028 C .106000009 .028 .049000008 .08100001 .032 .14000002 C .035 .13900002 .038000008 .13800001 .049000008 .13800001 C .082 .13800001 .09900001 .163 .09900001 .187 C .09900001 .21100001 .082 .23600002 .049000008 .23600002 C .035 .23600002 0 .22900002 0 .18300002 C 0 .097 .069000009 0 .18100001 0 C .297 0 .39900003 .096 .39900003 .223 Z "/>
</symbol>
<use xlink:href="#font_1_5" transform="matrix(9.9626,0,0,-9.9626,124.26613,106.29218)"/>
<use xlink:href="#font_0_1" transform="matrix(9.9626,0,0,-9.9626,129.01799,106.182598)"/>
<path transform="matrix(1,0,0,-1,123.768,110.32201)" stroke-width="1" stroke-linecap="butt" stroke-miterlimit="10" stroke-linejoin="miter" fill="none" stroke="#000000" d="M 0 0 L 11.018 0 "/>
<use xlink:href="#font_1_4" transform="matrix(9.9626,0,0,-9.9626,127.06496,119.647)"/>
<use xlink:href="#font_1_3" transform="matrix(9.9626,0,0,-9.9626,147.22243,106.29218)"/>
<use xlink:href="#font_0_1" transform="matrix(9.9626,0,0,-9.9626,152.054,106.182598)"/>
<path transform="matrix(1,0,0,-1,146.804,110.32201)" stroke-width="1" stroke-linecap="butt" stroke-miterlimit="10" stroke-linejoin="miter" fill="none" stroke="#000000" d="M 0 0 L 11.018 0 "/>
<use xlink:href="#font_1_2" transform="matrix(9.9626,0,0,-9.9626,150.32013,119.647)"/>
<symbol id="font_1_6">
<path d="M .42000003 .63100007 C .42900003 .64300009 .42900003 .64500007 .42900003 .66600009 L .18600002 .66600009 C .064 .66600009 .062000008 .679 .058000007 .6980001 L .033 .6980001 L 0 .49200005 L .024999999 .49200005 C .028000005 .508 .037 .57100006 .050000006 .58300009 C .057000005 .58900007 .13500002 .58900007 .148 .58900007 L .35500003 .58900007 C .344 .573 .26500003 .46400006 .24300003 .43100003 C .153 .29600004 .12000001 .157 .12000001 .055 C .12000001 .045 .12000001 0 .16600001 0 C .21200001 0 .21200001 .045 .21200001 .055 L .21200001 .106000009 C .21200001 .16100002 .21500004 .216 .22300002 .27 C .22700003 .29300005 .24100003 .37900005 .28500004 .44100005 L .42000003 .63100007 Z "/>
</symbol>
<use xlink:href="#font_1_6" transform="matrix(9.9626,0,0,-9.9626,170.39891,106.29218)"/>
<use xlink:href="#font_0_1" transform="matrix(9.9626,0,0,-9.9626,175.091,106.182598)"/>
<path transform="matrix(1,0,0,-1,169.841,110.32201)" stroke-width="1" stroke-linecap="butt" stroke-miterlimit="10" stroke-linejoin="miter" fill="none" stroke="#000000" d="M 0 0 L 11.018 0 "/>
<use xlink:href="#font_1_4" transform="matrix(9.9626,0,0,-9.9626,173.13794,119.647)"/>
<symbol id="font_1_1">
<path d="M .205 .64000007 C .205 .66400006 .205 .666 .18200003 .666 C .120000008 .60200008 .032000007 .60200008 0 .60200008 L 0 .57100006 C .020000004 .57100006 .07900001 .57100006 .13100001 .597 L .13100001 .079 C .13100001 .043 .128 .031000002 .038000004 .031000002 L .0060000049 .031000002 L .0060000049 0 C .04100001 .003 .128 .003 .168 .003 C .20800002 .003 .29500003 .003 .33000005 0 L .33000005 .031000002 L .29800005 .031000002 C .20800002 .031000002 .205 .042000005 .205 .079 L .205 .64000007 Z "/>
</symbol>
<use xlink:href="#font_1_1" transform="matrix(9.9626,0,0,-9.9626,4.2806718,35.069993)"/>
<clipPath id="cp2">
<path transform="matrix(1,0,0,-1,5.291,174.629)" d="M 0 0 L 194.26985 0 L 194.26985 161.393 L 0 161.393 Z "/>
</clipPath>
<g clip-path="url(#cp2)">
<path transform="matrix(1,0,0,-1,5.291,174.629)" stroke-width="1" stroke-linecap="butt" stroke-dasharray="2.98883,2.98883" stroke-miterlimit="10" stroke-linejoin="miter" fill="none" stroke="#000000" d="M 8.80376 142.77074 C 8.80376 142.77074 14.35454 138.75975 16.48645 134.4534 C 18.61836 130.14707 22.03723 119.19229 24.16914 111.73363 C 26.30106 104.27495 29.71994 89.30902 31.85185 80.6965 C 33.98375 72.08398 37.40263 57.11919 39.53455 49.66061 C 41.66646 42.20204 45.08534 31.24654 47.21724 26.9402 C 49.34915 22.63385 52.76804 18.62357 54.89995 18.62349 C 57.03186 18.62341 60.45071 22.63359 62.58263 26.93959 C 64.71454 31.24557 68.13342 42.19965 70.26534 49.65814 C 72.39725 57.11662 75.81612 72.08267 77.94803 80.69525 C 80.07994 89.30785 83.49883 104.273 85.63074 111.73175 C 87.76263 119.1905 91.1815 130.14638 93.31342 134.45279 C 95.44533 138.75922 98.8642 142.76926 100.99611 142.7695 C 103.12802 142.76973 106.5469 138.76055 108.67882 134.45465 C 110.81073 130.14876 114.2296 119.19405 116.36151 111.73547 C 118.49342 104.2769 121.9123 89.31087 124.0442 80.69836 C 126.1761 72.08585 129.59499 57.12132 131.7269 49.66249 C 133.85881 42.20364 137.2777 31.2468 139.40959 26.9402 C 141.5415 22.63359 144.96039 18.62373 147.0923 18.62349 C 149.22422 18.62325 152.64307 22.63261 154.77498 26.93834 C 156.90689 31.24406 160.32578 42.19786 162.45769 49.65627 C 164.5896 57.11467 168.00847 72.0808 170.14038 80.69339 C 172.2723 89.30597 175.69118 104.27106 177.82309 111.7299 C 179.95499 119.18874 183.37386 130.14487 185.50577 134.45156 C 187.63768 138.75823 193.18846 142.7695 193.18846 142.7695 "/>
<path transform="matrix(1,0,0,-1,5.291,174.629)" stroke-width="1.19553" stroke-linecap="butt" stroke-miterlimit="10" stroke-linejoin="miter" fill="none" stroke="#000080" d="M 8.80376 142.77074 C 8.80376 142.77074 14.35173 138.76447 16.48256 134.4621 C 18.61339 130.15973 22.03052 119.21515 24.16135 111.76218 C 26.29218 104.30919 29.7093 89.3546 31.84013 80.74615 C 33.97098 72.1377 37.3881 57.17813 39.51894 49.71835 C 41.64977 42.25858 45.0669 31.29553 47.19772 26.98117 C 49.32855 22.66682 52.74568 18.63727 54.87653 18.62349 C 57.00735 18.60973 60.42448 22.59163 62.55531 26.88185 C 64.68614 31.17207 68.10327 42.09862 70.2341 49.54453 C 72.36493 56.99045 75.78206 71.93852 77.91289 80.5469 C 80.04372 89.15527 83.46085 104.12115 85.59167 111.58774 C 87.7225 119.05434 91.13963 130.03459 93.27046 134.36092 C 95.4013 138.68723 98.81844 142.74115 100.94926 142.76888 C 103.0801 142.7966 106.49722 138.83905 108.62805 134.56079 C 110.75888 130.28253 114.17601 119.37297 116.30685 111.93411 C 118.43768 104.49524 121.85481 89.55484 123.98564 80.94666 C 126.11647 72.33846 129.5336 57.36563 131.66443 49.89215 C 133.79526 42.41869 137.2124 31.42117 139.34323 27.08298 C 141.47406 22.74477 144.89119 18.66696 147.02202 18.62537 C 149.15285 18.58377 152.56996 22.51704 154.70079 26.78316 C 156.83164 31.04927 160.24877 41.94087 162.3796 49.37259 C 164.51042 56.80429 167.92755 71.73775 170.05838 80.34578 C 172.18921 88.95381 175.60634 103.93301 177.73719 111.4133 C 179.86801 118.89359 183.28514 129.90824 185.41597 134.2585 C 187.5468 138.60877 193.09476 142.76702 193.09476 142.76702 "/>
</g>
<symbol id="font_0_2">
<path d="M .305 .31300003 C .311 .33900003 .334 .43100003 .404 .43100003 C .409 .43100003 .433 .43100003 .454 .418 C .426 .41300003 .40600003 .388 .40600003 .36400003 C .40600003 .34800003 .417 .32900004 .444 .32900004 C .46600003 .32900004 .498 .34700004 .498 .38700003 C .498 .43900005 .439 .45300005 .405 .45300005 C .347 .45300005 .312 .40000005 .3 .37700004 C .275 .44300003 .221 .45300005 .19200002 .45300005 C .08800001 .45300005 .031000002 .32400004 .031000002 .29900003 C .031000002 .28900004 .041 .28900004 .043000007 .28900004 C .051000008 .28900004 .054000006 .291 .056 .3 C .09 .40600003 .156 .43100003 .19000001 .43100003 C .209 .43100003 .244 .42200003 .244 .36400003 C .244 .33300004 .22700002 .26600004 .19000001 .126 C .17400001 .064 .13900002 .022000002 .095000009 .022000002 C .08900001 .022000002 .06600001 .022000002 .045 .035 C .07000001 .040000004 .09200001 .061 .09200001 .089 C .09200001 .116000007 .07000001 .124000009 .055000009 .124000009 C .025 .124000009 0 .098000008 0 .06600001 C 0 .020000002 .050000006 0 .094000007 0 C .16000001 0 .19600001 .07000001 .19900002 .076000008 C .21100001 .039 .24700003 0 .307 0 C .41 0 .467 .12900001 .467 .15400002 C .467 .16400002 .458 .16400002 .455 .16400002 C .446 .16400002 .444 .16000001 .442 .15300001 C .409 .046 .341 .022000002 .30900003 .022000002 C .27 .022000002 .254 .054 .254 .08800001 C .254 .11000001 .26 .13200002 .271 .17600002 L .305 .31300003 Z "/>
</symbol>
<use xlink:href="#font_0_2" transform="matrix(9.9626,0,0,-9.9626,203.46991,96.17659)"/>
<symbol id="font_0_3">
<path d="M .45700003 .586 C .461 .6 .461 .602 .461 .609 C .461 .62700006 .447 .63600006 .432 .63600006 C .42200003 .63600006 .40600003 .63 .397 .615 C .395 .61 .387 .579 .38300003 .561 C .37600003 .535 .36900003 .508 .363 .48100005 L .318 .301 C .314 .286 .271 .21600002 .20500002 .21600002 C .15400002 .21600002 .143 .26000003 .143 .29700003 C .143 .34300003 .16000001 .40500004 .194 .49300004 C .21000001 .53400006 .21400002 .545 .21400002 .56500008 C .21400002 .61 .18200001 .6470001 .13200002 .6470001 C .037 .6470001 0 .50200006 0 .49300004 C 0 .48300005 .01 .48300005 .012 .48300005 C .022000002 .48300005 .023 .485 .028000003 .50100007 C .055000009 .595 .095000009 .625 .12900001 .625 C .13700001 .625 .15400002 .625 .15400002 .59300008 C .15400002 .568 .14400001 .54200008 .13700001 .523 C .097 .41700004 .079 .36 .079 .31300003 C .079 .224 .142 .194 .201 .194 C .24000003 .194 .274 .21100001 .30200003 .23900002 C .289 .187 .277 .13800001 .237 .08500001 C .21100001 .051 .17300001 .022 .127 .022 C .113000009 .022 .068 .025000006 .051000008 .06400001 C .067 .06400001 .080000009 .06400001 .094000007 .076000008 C .104 .08500001 .11400001 .098000008 .11400001 .117000009 C .11400001 .148 .087000008 .15200001 .07700001 .15200001 C .054000006 .15200001 .021 .136 .021 .087000008 C .021 .037 .065000008 0 .127 0 C .23 0 .333 .091000009 .361 .20400001 L .45700003 .586 Z "/>
</symbol>
<use xlink:href="#font_0_3" transform="matrix(9.9626,0,0,-9.9626,11.764915,9.726324)"/>
</svg>
