<?xml version="1.0" encoding="UTF-8" standalone="no"?>
<!DOCTYPE svg PUBLIC "-//W3C//DTD SVG 1.1//EN" "http://www.w3.org/Graphics/SVG/1.1/DTD/svg11.dtd">
<svg xmlns="http://www.w3.org/2000/svg" xmlns:xlink="http://www.w3.org/1999/xlink" version="1.1" width="219.01pt" height="240.353pt" viewBox="0 0 219.01 240.353">
<path transform="matrix(1,0,0,-1,109.073,119.217998)" stroke-width="1" stroke-linecap="butt" stroke-miterlimit="10" stroke-linejoin="miter" fill="none" stroke="#bfbfbf" d="M 0 0 L 97.13608 0 M 0 0 L 84.12254 48.56804 M 0 0 L 68.68565 68.68565 M 0 0 L 48.56804 84.12254 M 0 0 L 0 97.13608 M 0 0 L -48.56804 84.12254 M 0 0 L -68.68565 68.68565 M 0 0 L -84.12254 48.56804 M 0 0 L -97.13608 0 M 0 0 L -84.12254 -48.56804 M 0 0 L -68.68565 -68.68565 M 0 0 L -48.56804 -84.12254 M 0 0 L 0 -97.13608 M 0 0 L 48.56804 -84.12254 M 0 0 L 68.68565 -68.68565 M 0 0 L 84.12254 -48.56804 "/>
<path transform="matrix(1,0,0,-1,109.073,119.217998)" stroke-width="1" stroke-linecap="butt" stroke-miterlimit="10" stroke-linejoin="miter" fill="none" stroke="#bfbfbf" d="M 16.18935 0 C 16.18935 8.94124 8.94124 16.18935 0 16.18935 C -8.94124 16.18935 -16.18935 8.94124 -16.18935 0 C -16.18935 -8.94124 -8.94124 -16.18935 0 -16.18935 C 8.94124 -16.18935 16.18935 -8.94124 16.18935 0 M 32.3787 0 C 32.3787 17.88248 17.88248 32.3787 0 32.3787 C -17.88248 32.3787 -32.3787 17.88248 -32.3787 0 C -32.3787 -17.88248 -17.88248 -32.3787 0 -32.3787 C 17.88248 -32.3787 32.3787 -17.88248 32.3787 0 M 48.56804 0 C 48.56804 26.82372 26.82372 48.56804 0 48.56804 C -26.82372 48.56804 -48.56804 26.82372 -48.56804 0 C -48.56804 -26.82372 -26.82372 -48.56804 0 -48.56804 C 26.82372 -48.56804 48.56804 -26.82372 48.56804 0 M 64.75739 0 C 64.75739 35.76495 35.76495 64.75739 0 64.75739 C -35.76495 64.75739 -64.75739 35.76495 -64.75739 0 C -64.75739 -35.76495 -35.76495 -64.75739 0 -64.75739 C 35.76495 -64.75739 64.75739 -35.76495 64.75739 0 M 80.94673 0 C 80.94673 44.7062 44.7062 80.94673 0 80.94673 C -44.7062 80.94673 -80.94673 44.7062 -80.94673 0 C -80.94673 -44.7062 -44.7062 -80.94673 0 -80.94673 C 44.7062 -80.94673 80.94673 -44.7062 80.94673 0 "/>
<path transform="matrix(1,0,0,-1,109.073,119.217998)" stroke-width="1" stroke-linecap="butt" stroke-miterlimit="10" stroke-linejoin="miter" fill="none" stroke="#808080" d="M 97.13608 0 L 101.38791 0 M 84.12254 48.56804 L 87.80475 50.69395 M 68.68565 68.68565 L 71.69214 71.69214 M 48.56804 84.12254 L 50.69395 87.80475 M 0 97.13608 L 0 101.38791 M -48.56804 84.12254 L -50.69395 87.80475 M -68.68565 68.68565 L -71.69214 71.69214 M -84.12254 48.56804 L -87.80475 50.69395 M -97.13608 0 L -101.38791 0 M -84.12254 -48.56804 L -87.80475 -50.69395 M -68.68565 -68.68565 L -71.69214 -71.69214 M -48.56804 -84.12254 L -50.69395 -87.80475 M 0 -97.13608 L 0 -101.38791 M 48.56804 -84.12254 L 50.69395 -87.80475 M 68.68565 -68.68565 L 71.69214 -71.69214 M 84.12254 -48.56804 L 87.80475 -50.69395 "/>
<path transform="matrix(1,0,0,-1,109.073,119.217998)" stroke-width="1" stroke-linecap="butt" stroke-miterlimit="10" stroke-linejoin="miter" fill="none" stroke="#808080" d="M 16.18935 0 L 16.18935 4.25183 M 32.3787 0 L 32.3787 4.25183 M 48.56804 0 L 48.56804 4.25183 M 64.75739 0 L 64.75739 4.25183 M 80.94673 0 L 80.94673 4.25183 "/>
<path transform="matrix(1,0,0,-1,109.073,119.217998)" stroke-width="1" stroke-linecap="butt" stroke-miterlimit="10" stroke-linejoin="miter" fill="none" stroke="#000000" d="M 0 0 L 0 0 "/>
<path transform="matrix(1,0,0,-1,109.073,119.217998)" stroke-width="1" stroke-linecap="butt" stroke-miterlimit="10" stroke-linejoin="miter" fill="none" stroke="#000000" d="M 97.13608 0 C 97.13608 53.64746 53.64746 97.13608 0 97.13608 C -53.64746 97.13608 -97.13608 53.64746 -97.13608 0 C -97.13608 -53.64746 -53.64746 -97.13608 0 -97.13608 C 53.64746 -97.13608 97.13608 -53.64746 97.13608 0 "/>
<path transform="matrix(1,0,0,-1,109.073,119.217998)" stroke-width="1" stroke-linecap="butt" stroke-miterlimit="10" stroke-linejoin="miter" fill="none" stroke="#000000" d="M 0 0 L 97.13608 0 "/>
<path transform="matrix(1,0,0,-1,109.073,119.217998)" stroke-width="1" stroke-linecap="butt" stroke-miterlimit="10" stroke-linejoin="miter" fill="none" stroke="#000000" d="M 0 0 L 97.13608 0 "/>
<symbol id="font_0_1">
<path d="M .43300004 .34200005 C .43300004 .40900005 .43000005 .49500004 .39500005 .57000008 C .35100005 .66400006 .27500005 .688 .217 .688 C .157 .688 .081 .66400006 .037000006 .568 C .004999999 .49900005 0 .41800005 0 .34200005 C 0 .27700005 .0020000004 .18 .044999999 .101 C .09199999 .016000003 .17 0 .216 0 C .28100003 0 .35500003 .028 .397 .120000008 C .42700003 .187 .43300004 .26200003 .43300004 .34200005 M .217 .025000003 C .187 .025000003 .114999998 .039000006 .096 .15200001 C .085999999 .21100001 .085999999 .29700003 .085999999 .35400004 C .085999999 .42200003 .085999999 .50100007 .098000008 .55600008 C .118 .64500007 .18200001 .66300007 .216 .66300007 C .254 .66300007 .31700004 .64300009 .33600004 .55 C .34700004 .49500004 .34700004 .41700004 .34700004 .35400004 C .34700004 .29200004 .34700004 .208 .337 .149 C .316 .035000005 .242 .025000003 .217 .025000003 Z "/>
</symbol>
<use xlink:href="#font_0_1" transform="matrix(8.9664,0,0,-8.9664,209.83766,122.30425)"/>
<symbol id="font_1_1">
<path d="M .246 .38000003 L .36 .38000003 C .345 .31700004 .319 .21300002 .319 .13000001 C .319 .123 .319 .086 .328 .05 C .338 .012000001 .347 0 .367 0 C .388 0 .41 .018000002 .41 .041 C .41 .048 .409 .051000004 .403 .064 C .372 .134 .372 .20800002 .372 .23100002 C .372 .256 .372 .3 .389 .38000003 L .50600007 .38000003 C .519 .38000003 .556 .38000003 .556 .41600005 C .556 .44200004 .53400006 .44200004 .51500007 .44200004 L .16900002 .44200004 C .14500001 .44200004 .11000001 .44200004 .063 .395 C .036 .36800004 0 .31300003 0 .305 C 0 .29400004 .011000002 .29400004 .014 .29400004 C .022000002 .29400004 .024000003 .29600004 .030000003 .30600003 C .079 .38000003 .14000002 .38000003 .16000001 .38000003 L .21700002 .38000003 C .17400001 .22900002 .105 .087000008 .098 .072000008 C .091000009 .058000003 .081 .037 .081 .029000003 C .081 .016 .09 0 .11200001 0 C .14800002 0 .15700002 .036000004 .17800002 .117000009 L .246 .38000003 Z "/>
</symbol>
<use xlink:href="#font_1_1" transform="matrix(8.9664,0,0,-8.9664,200.91008,60.80862)"/>
<path transform="matrix(1,0,0,-1,200.66799,64.267)" stroke-width="1" stroke-linecap="butt" stroke-miterlimit="10" stroke-linejoin="miter" fill="none" stroke="#000000" d="M 0 0 L 5.596 0 "/>
<symbol id="font_0_7">
<path d="M .091000009 .35300005 C .091000009 .45500005 .10200001 .512 .12900001 .56400009 C .149 .605 .19800002 .66300007 .272 .66300007 C .292 .66300007 .338 .65900006 .361 .623 C .324 .623 .308 .60400006 .308 .577 C .308 .55100008 .326 .531 .354 .531 C .382 .531 .40100003 .549 .40100003 .57900008 C .40100003 .63500007 .361 .688 .27 .688 C .14100002 .688 0 .56100007 0 .33800004 C 0 .067 .12200001 0 .216 0 C .327 0 .42700003 .093 .42700003 .22500001 C .42700003 .35200004 .335 .44800005 .22200002 .44800005 C .16200002 .44800005 .119 .41300006 .091000009 .35300005 M .21500002 .028 C .158 .028 .12500002 .075 .113000009 .104 C .09400001 .149 .09300001 .23200001 .09300001 .24800001 C .09300001 .31500004 .12400001 .42300005 .22000002 .42300005 C .23600002 .42300005 .285 .42300005 .317 .36100004 C .336 .32300005 .336 .27400003 .336 .22600001 C .336 .178 .336 .12900001 .317 .092 C .286 .035000005 .24200003 .028 .21500002 .028 Z "/>
</symbol>
<use xlink:href="#font_0_7" transform="matrix(8.9664,0,0,-8.9664,201.54755,72.787258)"/>
<use xlink:href="#font_1_1" transform="matrix(8.9664,0,0,-8.9664,184.40509,37.41862)"/>
<path transform="matrix(1,0,0,-1,184.163,40.877)" stroke-width="1" stroke-linecap="butt" stroke-miterlimit="10" stroke-linejoin="miter" fill="none" stroke="#000000" d="M 0 0 L 5.596 0 "/>
<symbol id="font_0_5">
<path d="M 0 .19600001 L 0 .165 L .273 .165 L .273 .079 C .273 .042000005 .27 .031000002 .19500001 .031000002 L .17300001 .031000002 L .17300001 0 C .23600002 .003 .306 .003 .313 .003 C .318 .003 .39000003 .003 .453 0 L .453 .031000002 L .431 .031000002 C .356 .031000002 .35300002 .042000005 .35300002 .079 L .35300002 .165 L .455 .165 L .455 .19600001 L .35300002 .19600001 L .35300002 .65000006 C .35300002 .67 .35300002 .67700007 .334 .67700007 C .322 .67700007 .321 .67600008 .312 .66200008 L 0 .19600001 M .032000007 .19600001 L .279 .56600007 L .279 .19600001 L .032000007 .19600001 Z "/>
</symbol>
<use xlink:href="#font_0_5" transform="matrix(8.9664,0,0,-8.9664,184.91703,49.199998)"/>
<use xlink:href="#font_1_1" transform="matrix(8.9664,0,0,-8.9664,161.72409,19.68463)"/>
<path transform="matrix(1,0,0,-1,161.482,23.14299)" stroke-width="1" stroke-linecap="butt" stroke-miterlimit="10" stroke-linejoin="miter" fill="none" stroke="#000000" d="M 0 0 L 5.596 0 "/>
<symbol id="font_0_4">
<path d="M .262 .37400005 C .35500003 .40900005 .39900003 .48200003 .39900003 .55100008 C .39900003 .628 .314 .688 .21000003 .688 C .106000009 .688 .028 .62900009 .028 .55300006 C .028 .52000007 .05 .50100007 .07900001 .50100007 C .10800001 .50100007 .12900001 .522 .12900001 .55100008 C .12900001 .586 .105000007 .6010001 .07100001 .6010001 C .097 .64300009 .158 .66300007 .207 .66300007 C .29 .66300007 .306 .59700009 .306 .55 C .306 .52000007 .3 .47200004 .275 .43400005 C .244 .38900004 .209 .38700003 .18 .38500003 C .15500002 .38300006 .15300001 .38300006 .14500001 .38300006 C .136 .38200004 .128 .38100005 .128 .37000004 C .128 .35700003 .136 .35700003 .15300001 .35700003 L .20000002 .35700003 C .287 .35700003 .32500003 .28700004 .32500003 .192 C .32500003 .064 .257 .028 .20600002 .028 C .187 .028 .09 .033000005 .045000007 .107 C .081 .102000009 .10900001 .127 .10900001 .16100002 C .10900001 .194 .08400001 .215 .055000005 .215 C .030000005 .215 0 .2 0 .158 C 0 .069000009 .09300001 0 .209 0 C .334 0 .42700003 .09 .42700003 .192 C .42700003 .279 .358 .35300005 .262 .37400005 Z "/>
</symbol>
<use xlink:href="#font_0_4" transform="matrix(8.9664,0,0,-8.9664,162.36156,31.663264)"/>
<use xlink:href="#font_1_1" transform="matrix(8.9664,0,0,-8.9664,106.5171,7.030622)"/>
<path transform="matrix(1,0,0,-1,106.275,10.488998)" stroke-width="1" stroke-linecap="butt" stroke-miterlimit="10" stroke-linejoin="miter" fill="none" stroke="#000000" d="M 0 0 L 5.596 0 "/>
<symbol id="font_0_3">
<path d="M .411 .177 L .38300003 .177 C .381 .164 .37300004 .105000007 .36 .089 C .35400004 .080000009 .28500004 .080000009 .26500003 .080000009 L .08700001 .080000009 L .18600002 .17400001 C .35000003 .316 .411 .36900003 .411 .47100003 C .411 .586 .316 .666 .19300002 .666 C .07800001 .666 0 .57500007 0 .48400004 C 0 .43400003 .043 .42900003 .052000006 .42900003 C .074 .42900003 .104 .44500003 .104 .48100005 C .104 .51100006 .083000008 .53300008 .052000006 .53300008 C .047000003 .53300008 .044000005 .53300008 .040000004 .532 C .063999999 .60300007 .128 .63500007 .18200001 .63500007 C .284 .63500007 .319 .54 .319 .47100003 C .319 .36900003 .24200002 .286 .194 .23400001 L .011 .036000004 C 0 .025 0 .023000002 0 0 L .38300003 0 L .411 .177 Z "/>
</symbol>
<use xlink:href="#font_0_3" transform="matrix(8.9664,0,0,-8.9664,107.22628,18.811997)"/>
<use xlink:href="#font_0_3" transform="matrix(8.9664,0,0,-8.9664,48.230287,18.828003)"/>
<use xlink:href="#font_1_1" transform="matrix(8.9664,0,0,-8.9664,52.62209,18.926634)"/>
<path transform="matrix(1,0,0,-1,47.773,22.384995)" stroke-width="1" stroke-linecap="butt" stroke-miterlimit="10" stroke-linejoin="miter" fill="none" stroke="#000000" d="M 0 0 L 10.204 0 "/>
<use xlink:href="#font_0_4" transform="matrix(8.9664,0,0,-8.9664,50.956556,30.905253)"/>
<use xlink:href="#font_0_4" transform="matrix(8.9664,0,0,-8.9664,24.837552,36.845258)"/>
<use xlink:href="#font_1_1" transform="matrix(8.9664,0,0,-8.9664,29.302088,36.746625)"/>
<path transform="matrix(1,0,0,-1,24.451996,40.205)" stroke-width="1" stroke-linecap="butt" stroke-miterlimit="10" stroke-linejoin="miter" fill="none" stroke="#000000" d="M 0 0 L 10.204 0 "/>
<use xlink:href="#font_0_5" transform="matrix(8.9664,0,0,-8.9664,27.510022,48.528)"/>
<symbol id="font_0_6">
<path d="M .053 .36700005 C .053 .34900005 .053 .33800004 .067 .33800004 C .075 .33800004 .07800001 .34200005 .08400001 .35100005 C .11400001 .39300005 .16200002 .41700004 .21400002 .41700004 C .321 .41700004 .321 .263 .321 .22700002 C .321 .19600001 .321 .134 .293 .089 C .266 .047000003 .224 .028 .18500002 .028 C .126 .028 .059000005 .065000008 .035 .13900002 C .036000004 .13900002 .042 .13700001 .049 .13700001 C .069000009 .13700001 .098000008 .15 .098000008 .186 C .098000008 .21700001 .076000008 .23500002 .049 .23500002 C .028 .23500002 0 .223 0 .18300002 C 0 .092 .076000008 0 .187 0 C .30800004 0 .411 .098000008 .411 .222 C .411 .34300003 .32500003 .44200004 .21600002 .44200004 C .16800002 .44200004 .119 .42600004 .08400001 .39000006 L .08400001 .587 C .11400001 .57800009 .14500001 .573 .17600002 .573 C .29900003 .573 .37100003 .66200008 .37100003 .6750001 C .37100003 .6840001 .365 .688 .36 .688 C .358 .688 .356 .688 .34700004 .683 C .3 .66400006 .254 .656 .21200001 .656 C .16900002 .656 .12400001 .66400006 .07800001 .683 C .068 .688 .066 .688 .065 .688 C .053 .688 .053 .67800006 .053 .6610001 L .053 .36700005 Z "/>
</symbol>
<use xlink:href="#font_0_6" transform="matrix(8.9664,0,0,-8.9664,7.892285,60.629255)"/>
<use xlink:href="#font_1_1" transform="matrix(8.9664,0,0,-8.9664,12.284091,60.53062)"/>
<path transform="matrix(1,0,0,-1,7.4349987,63.989)" stroke-width="1" stroke-linecap="butt" stroke-miterlimit="10" stroke-linejoin="miter" fill="none" stroke="#000000" d="M 0 0 L 10.204 0 "/>
<use xlink:href="#font_0_7" transform="matrix(8.9664,0,0,-8.9664,10.618553,72.509258)"/>
<use xlink:href="#font_1_1" transform="matrix(8.9664,0,0,-8.9664,3.313092,121.24663)"/>
<symbol id="font_0_8">
<path d="M .433 .632 C .442 .64300009 .442 .64500007 .442 .66600009 L .19299999 .66600009 C .067 .66600009 .064 .679 .061000006 .6980001 L .033 .6980001 L 0 .48900003 L .027999998 .48900003 C .031999999 .512 .04 .568 .053000004 .58000007 C .060000004 .586 .139 .586 .153 .586 L .363 .586 L .267 .45500005 C .137 .27600003 .125 .113000009 .125 .056 C .125 .045 .125 0 .171 0 C .218 0 .218 .044000005 .218 .057000005 L .218 .106000009 C .218 .25300003 .24000001 .36900003 .293 .44100005 L .433 .632 Z "/>
</symbol>
<use xlink:href="#font_0_8" transform="matrix(8.9664,0,0,-8.9664,7.9460837,172.09928)"/>
<use xlink:href="#font_1_1" transform="matrix(8.9664,0,0,-8.9664,12.284091,172.00064)"/>
<path transform="matrix(1,0,0,-1,7.4349987,175.459)" stroke-width="1" stroke-linecap="butt" stroke-miterlimit="10" stroke-linejoin="miter" fill="none" stroke="#000000" d="M 0 0 L 10.204 0 "/>
<use xlink:href="#font_0_7" transform="matrix(8.9664,0,0,-8.9664,10.618553,183.97927)"/>
<use xlink:href="#font_0_6" transform="matrix(8.9664,0,0,-8.9664,24.909283,195.88324)"/>
<use xlink:href="#font_1_1" transform="matrix(8.9664,0,0,-8.9664,29.302088,195.7846)"/>
<path transform="matrix(1,0,0,-1,24.451996,199.24298)" stroke-width="1" stroke-linecap="butt" stroke-miterlimit="10" stroke-linejoin="miter" fill="none" stroke="#000000" d="M 0 0 L 10.204 0 "/>
<use xlink:href="#font_0_5" transform="matrix(8.9664,0,0,-8.9664,27.510022,207.56598)"/>
<use xlink:href="#font_0_5" transform="matrix(8.9664,0,0,-8.9664,48.033025,213.506)"/>
<use xlink:href="#font_1_1" transform="matrix(8.9664,0,0,-8.9664,52.62209,213.60463)"/>
<path transform="matrix(1,0,0,-1,47.773,217.06299)" stroke-width="1" stroke-linecap="butt" stroke-miterlimit="10" stroke-linejoin="miter" fill="none" stroke="#000000" d="M 0 0 L 10.204 0 "/>
<use xlink:href="#font_0_4" transform="matrix(8.9664,0,0,-8.9664,50.956556,225.58327)"/>
<use xlink:href="#font_0_4" transform="matrix(8.9664,0,0,-8.9664,104.35655,225.59827)"/>
<use xlink:href="#font_1_1" transform="matrix(8.9664,0,0,-8.9664,108.8211,225.49964)"/>
<path transform="matrix(1,0,0,-1,103.971,228.959)" stroke-width="1" stroke-linecap="butt" stroke-miterlimit="10" stroke-linejoin="miter" fill="none" stroke="#000000" d="M 0 0 L 10.204 0 "/>
<use xlink:href="#font_0_3" transform="matrix(8.9664,0,0,-8.9664,107.22628,237.282)"/>
<use xlink:href="#font_0_6" transform="matrix(8.9664,0,0,-8.9664,160.62729,213.70326)"/>
<use xlink:href="#font_1_1" transform="matrix(8.9664,0,0,-8.9664,165.01909,213.60463)"/>
<path transform="matrix(1,0,0,-1,160.17,217.06299)" stroke-width="1" stroke-linecap="butt" stroke-miterlimit="10" stroke-linejoin="miter" fill="none" stroke="#000000" d="M 0 0 L 10.204 0 "/>
<use xlink:href="#font_0_4" transform="matrix(8.9664,0,0,-8.9664,163.35356,225.58327)"/>
<use xlink:href="#font_0_8" transform="matrix(8.9664,0,0,-8.9664,184.00109,195.88324)"/>
<use xlink:href="#font_1_1" transform="matrix(8.9664,0,0,-8.9664,188.3401,195.7846)"/>
<path transform="matrix(1,0,0,-1,183.49,199.24298)" stroke-width="1" stroke-linecap="butt" stroke-miterlimit="10" stroke-linejoin="miter" fill="none" stroke="#000000" d="M 0 0 L 10.204 0 "/>
<use xlink:href="#font_0_5" transform="matrix(8.9664,0,0,-8.9664,186.54802,207.56598)"/>
<symbol id="font_0_2">
<path d="M .21100003 .63900008 C .21100003 .66400006 .21000001 .666 .18500003 .666 C .123 .60200008 .031000004 .60200008 0 .60200008 L 0 .57100006 C .019000002 .57100006 .080000009 .57100006 .134 .597 L .134 .080000009 C .134 .043 .13100001 .031000002 .03800001 .031000002 L .0060000049 .031000002 L .0060000049 0 C .042000005 .003 .13100001 .003 .17200002 .003 C .21300003 .003 .30300004 .003 .33900003 0 L .33900003 .031000002 L .307 .031000002 C .21400002 .031000002 .21100003 .043 .21100003 .080000009 L .21100003 .63900008 Z "/>
</symbol>
<use xlink:href="#font_0_2" transform="matrix(8.9664,0,0,-8.9664,200.76488,172.89899)"/>
<use xlink:href="#font_0_2" transform="matrix(8.9664,0,0,-8.9664,205.37361,172.89899)"/>
<use xlink:href="#font_1_1" transform="matrix(8.9664,0,0,-8.9664,209.3891,172.99762)"/>
<path transform="matrix(1,0,0,-1,199.931,176.457)" stroke-width="1" stroke-linecap="butt" stroke-miterlimit="10" stroke-linejoin="miter" fill="none" stroke="#000000" d="M 0 0 L 14.811 0 "/>
<use xlink:href="#font_0_7" transform="matrix(8.9664,0,0,-8.9664,205.41857,184.97727)"/>
<use xlink:href="#font_0_1" transform="matrix(8.9664,0,0,-8.9664,119.73366,116.14426)"/>
<symbol id="font_1_2">
<path d="M .108 .054 C .108 .083000008 .085 .108 .053999999 .108 C .023000002 .108 0 .083000008 0 .054 C 0 .025 .023000002 0 .053999999 0 C .085 0 .108 .025 .108 .054 Z "/>
</symbol>
<use xlink:href="#font_1_2" transform="matrix(8.9664,0,0,-8.9664,124.77104,115.947)"/>
<use xlink:href="#font_0_6" transform="matrix(8.9664,0,0,-8.9664,126.99928,116.14426)"/>
<use xlink:href="#font_0_2" transform="matrix(8.9664,0,0,-8.9664,139.98088,115.947)"/>
<use xlink:href="#font_0_2" transform="matrix(8.9664,0,0,-8.9664,152.58687,115.947)"/>
<use xlink:href="#font_1_2" transform="matrix(8.9664,0,0,-8.9664,157.14904,115.947)"/>
<use xlink:href="#font_0_6" transform="matrix(8.9664,0,0,-8.9664,159.37728,116.14426)"/>
<use xlink:href="#font_0_3" transform="matrix(8.9664,0,0,-8.9664,171.98329,115.947)"/>
<use xlink:href="#font_0_3" transform="matrix(8.9664,0,0,-8.9664,184.58829,115.947)"/>
<use xlink:href="#font_1_2" transform="matrix(8.9664,0,0,-8.9664,189.52805,115.947)"/>
<use xlink:href="#font_0_6" transform="matrix(8.9664,0,0,-8.9664,191.75629,116.14426)"/>
<clipPath id="cp2">
<path transform="matrix(1,0,0,-1,109.073,119.217998)" d="M 97.13608 0 C 97.13608 53.64746 53.64746 97.13608 0 97.13608 C -53.64746 97.13608 -97.13608 53.64746 -97.13608 0 C -97.13608 -53.64746 -53.64746 -97.13608 0 -97.13608 C 53.64746 -97.13608 97.13608 -53.64746 97.13608 0 "/>
</clipPath>
<g clip-path="url(#cp2)">
<path transform="matrix(1,0,0,-1,109.073,119.217998)" d="M 23.9519 23.9519 C 23.3683 24.5355 22.4221 24.5355 21.8385 23.9519 C 21.2549 23.3683 21.2549 22.4221 21.8385 21.8385 C 22.4221 21.2549 23.3683 21.2549 23.9519 21.8385 C 24.5355 22.4221 24.5355 23.3683 23.9519 23.9519 Z M 22.8952 22.8952 "/>
<path transform="matrix(1,0,0,-1,109.073,119.217998)" stroke-width="1" stroke-linecap="butt" stroke-miterlimit="10" stroke-linejoin="miter" fill="none" stroke="#000000" d="M 23.9519 23.9519 C 23.3683 24.5355 22.4221 24.5355 21.8385 23.9519 C 21.2549 23.3683 21.2549 22.4221 21.8385 21.8385 C 22.4221 21.2549 23.3683 21.2549 23.9519 21.8385 C 24.5355 22.4221 24.5355 23.3683 23.9519 23.9519 Z M 22.8952 22.8952 "/>
<symbol id="font_1_3">
<path d="M .14500001 .117000009 C .096 .037 .052 .034 .012000002 .031000002 C .0050000029 .030000002 0 .022000002 0 .013 C 0 .007 .0040000008 0 .014000002 0 C .033 0 .080000009 .003 .09900001 .003 C .12100001 .003 .17500001 0 .19700001 0 C .20300001 0 .21600002 0 .21600002 .018000002 C .21600002 .030000002 .20400001 .031000002 .201 .031000002 C .19200002 .032 .15400002 .034 .15400002 .064 C .15400002 .078 .165 .097 .16800002 .102000009 L .24700001 .231 L .508 .231 C .51100006 .208 .514 .17400001 .517 .149 C .521 .11000001 .527 .066 .527 .063 C .527 .048 .513 .031000002 .455 .031000002 C .44500003 .031000002 .432 .031000002 .432 .013 C .432 .002 .44000004 0 .44700004 0 C .46600003 0 .49 .002 .51000007 .002 C .53000006 .002 .554 .003 .57000008 .003 C .60300007 .003 .605 .003 .629 .002 C .64500007 .001 .66800007 0 .684 0 C .69000008 0 .703 0 .703 .018000002 C .703 .031000002 .69200006 .031000002 .68 .031000002 C .62 .031000002 .619 .038000004 .61600008 .067 L .546 .689 C .544 .711 .54300007 .716 .526 .716 C .512 .716 .50600007 .70900008 .49800004 .69600006 L .14500001 .117000009 M .266 .26200003 L .468 .592 L .50500008 .26200003 L .266 .26200003 Z "/>
</symbol>
<use xlink:href="#font_1_3" transform="matrix(8.9664,0,0,-8.9664,135.57076,93.052)"/>
<path transform="matrix(1,0,0,-1,109.073,119.217998)" d="M -50.06245 0 C -50.06245 -.82533 -49.39337 -1.49442 -48.56804 -1.49442 C -47.74269 -1.49442 -47.07362 -.82533 -47.07362 0 C -47.07362 .82533 -47.74269 1.49442 -48.56804 1.49442 C -49.39337 1.49442 -50.06245 .82533 -50.06245 0 Z M -48.56804 0 "/>
<path transform="matrix(1,0,0,-1,109.073,119.217998)" stroke-width="1" stroke-linecap="butt" stroke-miterlimit="10" stroke-linejoin="miter" fill="none" stroke="#000000" d="M -50.06245 0 C -50.06245 -.82533 -49.39337 -1.49442 -48.56804 -1.49442 C -47.74269 -1.49442 -47.07362 -.82533 -47.07362 0 C -47.07362 .82533 -47.74269 1.49442 -48.56804 1.49442 C -49.39337 1.49442 -50.06245 .82533 -50.06245 0 Z M -48.56804 0 "/>
<symbol id="font_1_4">
<path d="M .116 .076000008 C .10700001 .040000004 .105000007 .031000002 .030000005 .031000002 C .011 .031000002 0 .031000002 0 .013 C 0 0 .010000002 0 .028 0 L .39200003 0 C .554 0 .67300006 .11800001 .67300006 .215 C .67300006 .286 .614 .34600003 .51500007 .35700003 C .62900009 .379 .7260001 .455 .7260001 .544 C .7260001 .62200006 .65400007 .683 .535 .683 L .193 .683 C .17500001 .683 .163 .683 .163 .665 C .163 .652 .172 .652 .193 .652 C .19700001 .652 .21500002 .652 .23100002 .65000006 C .24800001 .648 .25500003 .646 .25500003 .63500007 C .25500003 .63000008 .25400005 .62600007 .25100003 .615 L .116 .076000008 M .272 .36800004 L .33300004 .61300006 C .34200005 .64900007 .34400005 .652 .38600005 .652 L .521 .652 C .62500008 .652 .63400009 .573 .63400009 .54800006 C .63400009 .45900003 .541 .36800004 .42800004 .36800004 L .272 .36800004 M .22400002 .031000002 C .21 .031000002 .20800002 .031000002 .20400001 .032 C .194 .033 .191 .034 .191 .041 C .191 .044000005 .191 .046000005 .19600001 .064 L .26500003 .34300003 L .453 .34300003 C .51500007 .34300003 .578 .316 .578 .22500001 C .578 .126 .48700006 .031000002 .36700005 .031000002 L .22400002 .031000002 Z "/>
</symbol>
<use xlink:href="#font_1_4" transform="matrix(8.9664,0,0,-8.9664,57.21742,115.947)"/>
<path transform="matrix(1,0,0,-1,109.073,119.217998)" d="M 33.1259 -57.37589 C 33.84067 -56.96323 34.08557 -56.04924 33.6729 -55.33447 C 33.26022 -54.6197 32.34625 -54.3748 31.63148 -54.78748 C 30.91672 -55.20015 30.67181 -56.11412 31.08449 -56.82889 C 31.49715 -57.54366 32.41113 -57.78856 33.1259 -57.37589 Z M 32.3787 -56.08168 "/>
<path transform="matrix(1,0,0,-1,109.073,119.217998)" stroke-width="1" stroke-linecap="butt" stroke-miterlimit="10" stroke-linejoin="miter" fill="none" stroke="#000000" d="M 33.1259 -57.37589 C 33.84067 -56.96323 34.08557 -56.04924 33.6729 -55.33447 C 33.26022 -54.6197 32.34625 -54.3748 31.63148 -54.78748 C 30.91672 -55.20015 30.67181 -56.11412 31.08449 -56.82889 C 31.49715 -57.54366 32.41113 -57.78856 33.1259 -57.37589 Z M 32.3787 -56.08168 "/>
<symbol id="font_1_5">
<path d="M .72300007 .70000007 C .726 .7120001 .726 .71400007 .726 .716 C .726 .71700009 .725 .72700008 .71400007 .72700008 C .70800009 .72700008 .70500007 .72400006 .698 .716 L .637 .64900007 C .633 .64400008 .629 .64000007 .628 .64000007 C .62700006 .64000007 .62600007 .64100006 .62 .64800009 C .605 .66800007 .56 .72700008 .45600004 .72700008 C .22700003 .72700008 0 .505 0 .27700005 C 0 .11400001 .119 0 .28000004 0 C .38400004 0 .46600003 .054000006 .50500008 .089 C .596 .17 .61300006 .25800003 .61300006 .26200003 C .61300006 .26600004 .61100009 .27300004 .59900006 .27300004 C .58800008 .27300004 .586 .26700003 .58500006 .263 C .536 .102000009 .39300005 .031000004 .293 .031000004 C .19600001 .031000004 .09300001 .09 .09300001 .24100001 C .09300001 .286 .10800001 .44400005 .20900002 .56700006 C .26900003 .63900008 .367 .69600006 .463 .69600006 C .574 .69600006 .633 .61100009 .633 .50100007 C .633 .46700005 .63000008 .46000005 .63000008 .45200003 C .63000008 .44100005 .642 .44100005 .64500007 .44100005 C .65800008 .44100005 .65800008 .44300006 .66300007 .46200005 L .72300007 .70000007 Z "/>
</symbol>
<use xlink:href="#font_1_5" transform="matrix(8.9664,0,0,-8.9664,145.17929,184.89325)"/>
<path transform="matrix(1,0,0,-1,109.073,119.217998)" d="M -21.8385 -21.8385 C -22.4221 -21.2549 -23.3683 -21.2549 -23.9519 -21.8385 C -24.5355 -22.4221 -24.5355 -23.3683 -23.9519 -23.9519 C -23.3683 -24.5355 -22.4221 -24.5355 -21.8385 -23.9519 C -21.2549 -23.3683 -21.2549 -22.4221 -21.8385 -21.8385 Z M -22.8952 -22.8952 "/>
<path transform="matrix(1,0,0,-1,109.073,119.217998)" stroke-width="1" stroke-linecap="butt" stroke-miterlimit="10" stroke-linejoin="miter" fill="none" stroke="#000000" d="M -21.8385 -21.8385 C -22.4221 -21.2549 -23.3683 -21.2549 -23.9519 -21.8385 C -24.5355 -22.4221 -24.5355 -23.3683 -23.9519 -23.9519 C -23.3683 -24.5355 -22.4221 -24.5355 -21.8385 -23.9519 C -21.2549 -23.3683 -21.2549 -22.4221 -21.8385 -21.8385 Z M -22.8952 -22.8952 "/>
<symbol id="font_1_6">
<path d="M .11600001 .076000008 C .10700001 .040000004 .105000007 .031000002 .030000002 .031000002 C .011 .031000002 0 .031000002 0 .013 C 0 0 .010000002 0 .028000005 0 L .365 0 C .579 0 .778 .21200001 .778 .42800004 C .778 .565 .69200006 .683 .536 .683 L .193 .683 C .17500001 .683 .163 .683 .163 .665 C .163 .652 .172 .652 .193 .652 C .19700001 .652 .21500002 .652 .23100002 .65000006 C .24800001 .648 .255 .646 .255 .63500007 C .255 .63000008 .254 .62600007 .251 .615 L .11600001 .076000008 M .33600004 .61300006 C .34500004 .64900007 .347 .652 .389 .652 L .50200006 .652 C .606 .652 .689 .59400007 .689 .46500004 C .689 .407 .66400006 .24700001 .586 .148 C .54 .091000009 .45700003 .031000002 .347 .031000002 L .22700002 .031000002 C .21300002 .031000002 .21100001 .031000002 .207 .032 C .19700001 .033 .194 .034 .194 .041 C .194 .044000005 .194 .046000005 .19900002 .064 L .33600004 .61300006 Z "/>
</symbol>
<use xlink:href="#font_1_6" transform="matrix(8.9664,0,0,-8.9664,82.65449,151.51)"/>
</g>
</svg>
