<?xml version="1.0" encoding="UTF-8" standalone="no"?>
<!DOCTYPE svg PUBLIC "-//W3C//DTD SVG 1.1//EN" "http://www.w3.org/Graphics/SVG/1.1/DTD/svg11.dtd">
<svg xmlns="http://www.w3.org/2000/svg" xmlns:xlink="http://www.w3.org/1999/xlink" version="1.1" width="219.263pt" height="246.103pt" viewBox="0 0 219.263 246.103">
<path transform="matrix(1,0,0,-1,110.159,121.986)" stroke-width="1" stroke-linecap="butt" stroke-miterlimit="10" stroke-linejoin="miter" fill="none" stroke="#bfbfbf" d="M 0 0 L 97.1363 0 M 0 0 L 68.6858 68.6858 M 0 0 L 0 97.1363 M 0 0 L -68.6858 68.6858 M 0 0 L -97.1363 0 M 0 0 L -68.6858 -68.6858 M 0 0 L 0 -97.1363 M 0 0 L 68.6858 -68.6858 "/>
<path transform="matrix(1,0,0,-1,110.159,121.986)" stroke-width="1" stroke-linecap="butt" stroke-miterlimit="10" stroke-linejoin="miter" fill="none" stroke="#bfbfbf" d="M 22.07631 0 C 22.07631 12.19255 12.19255 22.07631 0 22.07631 C -12.19255 22.07631 -22.07631 12.19255 -22.07631 0 C -22.07631 -12.19255 -12.19255 -22.07631 0 -22.07631 C 12.19255 -22.07631 22.07631 -12.19255 22.07631 0 M 44.15262 0 C 44.15262 24.38512 24.38512 44.15262 0 44.15262 C -24.38512 44.15262 -44.15262 24.38512 -44.15262 0 C -44.15262 -24.38512 -24.38512 -44.15262 0 -44.15262 C 24.38512 -44.15262 44.15262 -24.38512 44.15262 0 M 66.22893 0 C 66.22893 36.57768 36.57768 66.22893 0 66.22893 C -36.57768 66.22893 -66.22893 36.57768 -66.22893 0 C -66.22893 -36.57768 -36.57768 -66.22893 0 -66.22893 C 36.57768 -66.22893 66.22893 -36.57768 66.22893 0 M 88.30524 0 C 88.30524 48.77026 48.77026 88.30524 0 88.30524 C -48.77026 88.30524 -88.30524 48.77026 -88.30524 0 C -88.30524 -48.77026 -48.77026 -88.30524 0 -88.30524 C 48.77026 -88.30524 88.30524 -48.77026 88.30524 0 "/>
<path transform="matrix(1,0,0,-1,110.159,121.986)" stroke-width="1" stroke-linecap="butt" stroke-miterlimit="10" stroke-linejoin="miter" fill="none" stroke="#808080" d="M 97.1363 0 L 101.38814 0 M 68.6858 68.6858 L 71.69229 71.69229 M 0 97.1363 L 0 101.38814 M -68.6858 68.6858 L -71.69229 71.69229 M -97.1363 0 L -101.38814 0 M -68.6858 -68.6858 L -71.69229 -71.69229 M 0 -97.1363 L 0 -101.38814 M 68.6858 -68.6858 L 71.69229 -71.69229 "/>
<path transform="matrix(1,0,0,-1,110.159,121.986)" stroke-width="1" stroke-linecap="butt" stroke-miterlimit="10" stroke-linejoin="miter" fill="none" stroke="#808080" d="M 22.07631 0 L 22.07631 4.25183 M 44.15262 0 L 44.15262 4.25183 M 66.22893 0 L 66.22893 4.25183 M 88.30524 0 L 88.30524 4.25183 "/>
<path transform="matrix(1,0,0,-1,110.159,121.986)" stroke-width="1" stroke-linecap="butt" stroke-miterlimit="10" stroke-linejoin="miter" fill="none" stroke="#000000" d="M 0 0 L 0 0 "/>
<path transform="matrix(1,0,0,-1,110.159,121.986)" stroke-width="1" stroke-linecap="butt" stroke-miterlimit="10" stroke-linejoin="miter" fill="none" stroke="#000000" d="M 97.1363 0 C 97.1363 53.64758 53.64758 97.1363 0 97.1363 C -53.64758 97.1363 -97.1363 53.64758 -97.1363 0 C -97.1363 -53.64758 -53.64758 -97.1363 0 -97.1363 C 53.64758 -97.1363 97.1363 -53.64758 97.1363 0 "/>
<path transform="matrix(1,0,0,-1,110.159,121.986)" stroke-width="1" stroke-linecap="butt" stroke-miterlimit="10" stroke-linejoin="miter" fill="none" stroke="#000000" d="M 0 0 L 97.1363 0 "/>
<path transform="matrix(1,0,0,-1,110.159,121.986)" stroke-width="1" stroke-linecap="butt" stroke-miterlimit="10" stroke-linejoin="miter" fill="none" stroke="#000000" d="M 0 0 L 97.1363 0 "/>
<symbol id="font_0_1">
<path d="M .421 .34200005 C .421 .42200003 .416 .50200006 .381 .57600006 C .335 .67200008 .25300003 .688 .211 .688 C .15100001 .688 .07800001 .66200008 .037000006 .56900009 C .0050000029 .5 0 .42200003 0 .34200005 C 0 .26700003 .0040000008 .177 .045000007 .101 C .088 .020000002 .161 0 .21000001 0 C .264 0 .34 .021000002 .384 .116000007 C .416 .185 .421 .263 .421 .34200005 M .21000001 .022000002 C .171 .022000002 .112 .047000003 .094 .143 C .083000008 .20300001 .083000008 .29500003 .083000008 .35400004 C .083000008 .41800005 .083000008 .48400004 .091000009 .53800007 C .11 .65700009 .185 .66600009 .21000001 .66600009 C .243 .66600009 .30900003 .64800009 .328 .549 C .338 .49300004 .338 .41700004 .338 .35400004 C .338 .279 .338 .21100001 .32700003 .147 C .312 .052 .255 .022000002 .21000001 .022000002 Z "/>
</symbol>
<use xlink:href="#font_0_1" transform="matrix(9.9626,0,0,-9.9626,211.27654,125.41518)"/>
<symbol id="font_1_1">
<path d="M .23800002 .38400004 L .351 .38400004 C .31800003 .23600002 .30900003 .19300002 .30900003 .126 C .30900003 .111 .30900003 .08400001 .317 .05 C .327 .0060000007 .338 0 .35300002 0 C .373 0 .39400003 .018000002 .39400003 .038000004 C .39400003 .044 .39400003 .046 .388 .060000004 C .359 .13200002 .359 .19700001 .359 .22500003 C .359 .27800004 .366 .33200003 .377 .38400004 L .491 .38400004 C .504 .38400004 .54 .38400004 .54 .418 C .54 .44200004 .519 .44200004 .5 .44200004 L .165 .44200004 C .143 .44200004 .105 .44200004 .061000006 .395 C .026000003 .35600005 0 .31000004 0 .305 C 0 .30400003 0 .29500003 .012 .29500003 C .020000002 .29500003 .022000002 .29900003 .028000003 .307 C .077 .38400004 .135 .38400004 .15500002 .38400004 L .21200001 .38400004 C .18000002 .263 .12600002 .14200002 .08400001 .051000004 C .076000008 .036000004 .076000008 .034 .076000008 .027000003 C .076000008 .008000001 .092 0 .105 0 C .135 0 .143 .028 .15500002 .065000008 C .16900002 .111 .16900002 .113000009 .18200001 .16300002 L .23800002 .38400004 Z "/>
</symbol>
<use xlink:href="#font_1_1" transform="matrix(9.9626,0,0,-9.9626,186.262,38.601594)"/>
<path transform="matrix(1,0,0,-1,185.993,42.742006)" stroke-width="1" stroke-linecap="butt" stroke-miterlimit="10" stroke-linejoin="miter" fill="none" stroke="#000000" d="M 0 0 L 6.036 0 "/>
<symbol id="font_0_5">
<path d="M .266 .165 L .266 .078 C .266 .042000005 .26400004 .031000002 .19000001 .031000002 L .16900002 .031000002 L .16900002 0 C .21000001 .003 .26200003 .003 .30400003 .003 C .34600003 .003 .39900003 .003 .44000004 0 L .44000004 .031000002 L .41900004 .031000002 C .34500004 .031000002 .34300003 .042000005 .34300003 .078 L .34300003 .165 L .44300003 .165 L .44300003 .19600001 L .34300003 .19600001 L .34300003 .651 C .34300003 .671 .34300003 .67700007 .32700003 .67700007 C .31800003 .67700007 .31500004 .67700007 .307 .665 L 0 .19600001 L 0 .165 L .266 .165 M .272 .19600001 L .028 .19600001 L .272 .569 L .272 .19600001 Z "/>
</symbol>
<use xlink:href="#font_0_5" transform="matrix(9.9626,0,0,-9.9626,186.79895,52.065996)"/>
<use xlink:href="#font_1_1" transform="matrix(9.9626,0,0,-9.9626,107.40999,7.793579)"/>
<path transform="matrix(1,0,0,-1,107.141,11.932999)" stroke-width="1" stroke-linecap="butt" stroke-miterlimit="10" stroke-linejoin="miter" fill="none" stroke="#000000" d="M 0 0 L 6.036 0 "/>
<symbol id="font_0_3">
<path d="M .07700001 .07700001 L .18300002 .18 C .33900003 .31800003 .39900003 .372 .39900003 .47200004 C .39900003 .586 .30900003 .666 .18700002 .666 C .074 .666 0 .574 0 .485 C 0 .42900003 .05 .42900003 .053000008 .42900003 C .07000001 .42900003 .105000007 .441 .105000007 .48200003 C .105000007 .508 .08700001 .53400006 .052000006 .53400006 C .044000005 .53400006 .042000008 .53400006 .039 .53300008 C .062000004 .59800007 .11600001 .63500007 .17400001 .63500007 C .26500003 .63500007 .308 .554 .308 .47200004 C .308 .39200003 .25800003 .31300003 .20300003 .25100003 L .011000004 .037 C 0 .026 0 .024 0 0 L .37100003 0 L .39900003 .17400001 L .374 .17400001 C .36900003 .14400001 .36200003 .1 .352 .085 C .345 .07700001 .279 .07700001 .257 .07700001 L .07700001 .07700001 Z "/>
</symbol>
<use xlink:href="#font_0_3" transform="matrix(9.9626,0,0,-9.9626,108.16713,21.257004)"/>
<symbol id="font_0_4">
<path d="M .24800003 .37400005 C .33 .40100003 .388 .47100006 .388 .55 C .388 .632 .3 .688 .204 .688 C .10300001 .688 .027000003 .628 .027000003 .55200007 C .027000003 .519 .049000004 .5 .078 .5 C .109000008 .5 .12900001 .522 .12900001 .55100008 C .12900001 .6010001 .082 .6010001 .067 .6010001 C .098 .65000006 .164 .66300007 .20000002 .66300007 C .24100003 .66300007 .29600004 .64100006 .29600004 .55100008 C .29600004 .53900006 .29400004 .48100005 .268 .43700005 C .238 .38900004 .204 .38600005 .17900002 .38500003 C .171 .38400004 .14700002 .38200004 .14000002 .38200004 C .132 .38100005 .125 .38000003 .125 .37000004 C .125 .35900004 .132 .35900004 .14900002 .35900004 L .19300002 .35900004 C .275 .35900004 .312 .29100005 .312 .193 C .312 .057000005 .24300003 .028 .199 .028 C .15600002 .028 .081 .045 .046000005 .104 C .081 .09900001 .11200001 .12100001 .11200001 .15900001 C .11200001 .19500001 .085 .215 .056 .215 C .031999999 .215 0 .201 0 .157 C 0 .06600001 .093 0 .20200002 0 C .32400004 0 .41500003 .091000009 .41500003 .193 C .41500003 .27500005 .35200004 .35300005 .24800003 .37400005 Z "/>
</symbol>
<use xlink:href="#font_0_4" transform="matrix(9.9626,0,0,-9.9626,24.439425,37.999177)"/>
<use xlink:href="#font_1_1" transform="matrix(9.9626,0,0,-9.9626,29.270985,37.889589)"/>
<path transform="matrix(1,0,0,-1,24.020997,42.02899)" stroke-width="1" stroke-linecap="butt" stroke-miterlimit="10" stroke-linejoin="miter" fill="none" stroke="#000000" d="M 0 0 L 11.018 0 "/>
<use xlink:href="#font_0_5" transform="matrix(9.9626,0,0,-9.9626,27.31795,51.352998)"/>
<use xlink:href="#font_1_1" transform="matrix(9.9626,0,0,-9.9626,3.6629875,124.240589)"/>
<symbol id="font_0_6">
<path d="M .39900003 .223 C .39900003 .34200005 .317 .44200004 .209 .44200004 C .16100002 .44200004 .118000019 .42600004 .082 .39100004 L .082 .586 C .10200001 .58000007 .135 .573 .16700001 .573 C .29 .573 .36 .66400006 .36 .67700007 C .36 .683 .357 .688 .35 .688 C .349 .688 .347 .688 .342 .68500009 C .322 .67600008 .273 .656 .20600002 .656 C .16600001 .656 .120000008 .66300007 .073 .6840001 C .065 .68700006 .06300001 .68700006 .061000009 .68700006 C .051000004 .68700006 .051000004 .679 .051000004 .66300007 L .051000004 .36700005 C .051000004 .34900005 .051000004 .34100003 .065 .34100003 C .07200001 .34100003 .074 .34400005 .07800001 .35000003 C .08900002 .36600004 .12600002 .42000006 .207 .42000006 C .259 .42000006 .284 .37400005 .292 .35600005 C .308 .31900005 .31 .28000004 .31 .23 C .31 .19500001 .31 .135 .286 .093 C .262 .054000006 .22500001 .028 .17900002 .028 C .106000009 .028 .049000008 .08100001 .032 .14000002 C .035 .13900002 .038000008 .13800001 .049000008 .13800001 C .082 .13800001 .09900001 .163 .09900001 .187 C .09900001 .21100001 .082 .23600002 .049000008 .23600002 C .035 .23600002 0 .22900002 0 .18300002 C 0 .097 .069000009 0 .18100001 0 C .297 0 .39900003 .096 .39900003 .223 Z "/>
</symbol>
<use xlink:href="#font_0_6" transform="matrix(9.9626,0,0,-9.9626,24.519127,199.25818)"/>
<use xlink:href="#font_1_1" transform="matrix(9.9626,0,0,-9.9626,29.270985,199.14859)"/>
<path transform="matrix(1,0,0,-1,24.020997,203.288)" stroke-width="1" stroke-linecap="butt" stroke-miterlimit="10" stroke-linejoin="miter" fill="none" stroke="#000000" d="M 0 0 L 11.018 0 "/>
<use xlink:href="#font_0_5" transform="matrix(9.9626,0,0,-9.9626,27.31795,212.61299)"/>
<use xlink:href="#font_0_4" transform="matrix(9.9626,0,0,-9.9626,105.06842,229.35417)"/>
<use xlink:href="#font_1_1" transform="matrix(9.9626,0,0,-9.9626,109.900989,229.24459)"/>
<path transform="matrix(1,0,0,-1,104.649997,233.384)" stroke-width="1" stroke-linecap="butt" stroke-miterlimit="10" stroke-linejoin="miter" fill="none" stroke="#000000" d="M 0 0 L 11.018 0 "/>
<use xlink:href="#font_0_3" transform="matrix(9.9626,0,0,-9.9626,108.16712,242.709)"/>
<symbol id="font_0_7">
<path d="M .42000003 .63100007 C .42900003 .64300009 .42900003 .64500007 .42900003 .66600009 L .18600002 .66600009 C .064 .66600009 .062000008 .679 .058000007 .6980001 L .033 .6980001 L 0 .49200005 L .024999999 .49200005 C .028000005 .508 .037 .57100006 .050000006 .58300009 C .057000005 .58900007 .13500002 .58900007 .148 .58900007 L .35500003 .58900007 C .344 .573 .26500003 .46400006 .24300003 .43100003 C .153 .29600004 .12000001 .157 .12000001 .055 C .12000001 .045 .12000001 0 .16600001 0 C .21200001 0 .21200001 .045 .21200001 .055 L .21200001 .106000009 C .21200001 .16100002 .21500004 .216 .22300002 .27 C .22700003 .29300005 .24100003 .37900005 .28500004 .44100005 L .42000003 .63100007 Z "/>
</symbol>
<use xlink:href="#font_0_7" transform="matrix(9.9626,0,0,-9.9626,185.8379,199.25818)"/>
<use xlink:href="#font_1_1" transform="matrix(9.9626,0,0,-9.9626,190.53,199.14859)"/>
<path transform="matrix(1,0,0,-1,185.28,203.288)" stroke-width="1" stroke-linecap="butt" stroke-miterlimit="10" stroke-linejoin="miter" fill="none" stroke="#000000" d="M 0 0 L 11.018 0 "/>
<use xlink:href="#font_0_5" transform="matrix(9.9626,0,0,-9.9626,188.57695,212.61299)"/>
<use xlink:href="#font_0_1" transform="matrix(9.9626,0,0,-9.9626,123.76854,118.612178)"/>
<symbol id="font_1_2">
<path d="M .106 .053000004 C .106 .082 .08200001 .106000009 .05300001 .106000009 C .024000004 .106000009 0 .082 0 .053000004 C 0 .024 .024000004 0 .05300001 0 C .08200001 0 .106 .024 .106 .053000004 Z "/>
</symbol>
<use xlink:href="#font_1_2" transform="matrix(9.9626,0,0,-9.9626,129.21778,118.393)"/>
<use xlink:href="#font_0_3" transform="matrix(9.9626,0,0,-9.9626,131.62612,118.393)"/>
<use xlink:href="#font_0_6" transform="matrix(9.9626,0,0,-9.9626,136.6074,118.612178)"/>
<use xlink:href="#font_0_1" transform="matrix(9.9626,0,0,-9.9626,148.33454,118.612178)"/>
<use xlink:href="#font_1_2" transform="matrix(9.9626,0,0,-9.9626,153.78478,118.393)"/>
<use xlink:href="#font_0_6" transform="matrix(9.9626,0,0,-9.9626,156.19312,118.612178)"/>
<use xlink:href="#font_0_1" transform="matrix(9.9626,0,0,-9.9626,167.92053,118.612178)"/>
<use xlink:href="#font_1_2" transform="matrix(9.9626,0,0,-9.9626,173.36978,118.393)"/>
<use xlink:href="#font_0_7" transform="matrix(9.9626,0,0,-9.9626,175.8379,118.612178)"/>
<use xlink:href="#font_0_6" transform="matrix(9.9626,0,0,-9.9626,180.75942,118.612178)"/>
<symbol id="font_0_2">
<path d="M .205 .64000007 C .205 .66400006 .205 .666 .18200003 .666 C .120000008 .60200008 .032000007 .60200008 0 .60200008 L 0 .57100006 C .020000004 .57100006 .07900001 .57100006 .13100001 .597 L .13100001 .079 C .13100001 .043 .128 .031000002 .038000004 .031000002 L .0060000049 .031000002 L .0060000049 0 C .04100001 .003 .128 .003 .168 .003 C .20800002 .003 .29500003 .003 .33000005 0 L .33000005 .031000002 L .29800005 .031000002 C .20800002 .031000002 .205 .042000005 .205 .079 L .205 .64000007 Z "/>
</symbol>
<use xlink:href="#font_0_2" transform="matrix(9.9626,0,0,-9.9626,196.85967,118.393)"/>
<clipPath id="cp2">
<path transform="matrix(1,0,0,-1,110.159,121.986)" d="M 97.1363 0 C 97.1363 53.64758 53.64758 97.1363 0 97.1363 C -53.64758 97.1363 -97.1363 53.64758 -97.1363 0 C -97.1363 -53.64758 -53.64758 -97.1363 0 -97.1363 C 53.64758 -97.1363 97.1363 -53.64758 97.1363 0 "/>
</clipPath>
<g clip-path="url(#cp2)">
<path transform="matrix(1,0,0,-1,110.159,121.986)" stroke-width="1.19553" stroke-linecap="butt" stroke-miterlimit="10" stroke-linejoin="miter" fill="none" stroke="#000080" d="M 88.30524 0 C 88.30524 0 88.29361 .50507 88.28525 .69919 C 88.27689 .89333 88.26062 1.20511 88.24496 1.39922 C 88.22931 1.5933 88.1957 1.90443 88.1723 2.09818 C 88.14891 2.2919 88.10728 2.6025 88.07628 2.79552 C 88.04526 2.98854 87.98769 3.29723 87.94878 3.4894 C 87.90985 3.68156 87.84169 3.98904 87.79575 4.18062 C 87.74982 4.3722 87.6708 4.6795 87.61758 4.87016 C 87.56436 5.0608 87.47324 5.36537 87.41216 5.55472 C 87.35107 5.74406 87.24646 6.04694 87.17735 6.23485 C 87.10825 6.42274 86.99002 6.72272 86.91406 6.90909 C 86.83812 7.09547 86.71391 7.39355 86.62993 7.5782 C 86.54593 7.76283 86.40048 8.05714 86.30865 8.23988 C 86.21684 8.42264 86.06677 8.7144 85.96805 8.89537 C 85.86932 9.07634 85.70352 9.36502 85.59714 9.54422 C 85.49075 9.72342 85.31445 10.0102 85.20131 10.18697 C 85.08815 10.36372 84.90233 10.64409 84.78159 10.81825 C 84.66086 10.99242 84.45934 11.27069 84.33112 11.4423 C 84.20288 11.61392 83.99242 11.88635 83.8574 12.05515 C 83.7224 12.22394 83.49953 12.49254 83.35802 12.6589 C 83.2165 12.82527 82.98586 13.09102 82.8374 13.25427 C 82.68893 13.41753 82.44333 13.67561 82.28796 13.83562 C 82.1326 13.99562 81.8805 14.25081 81.71756 14.40755 C 81.55463 14.56429 81.28351 14.81192 81.1136 14.9653 C 80.94368 15.1187 80.66888 15.36333 80.49287 15.51315 C 80.31686 15.66298 80.028 15.89926 79.845 16.04529 C 79.66199 16.19131 79.3629 16.42336 79.17383 16.5657 C 78.98476 16.70805 78.67749 16.93286 78.48227 17.07132 C 78.28705 17.20976 77.96835 17.42926 77.76671 17.56358 C 77.56505 17.6979 77.2367 17.90929 77.02888 18.03943 C 76.82108 18.16959 76.48247 18.37582 76.26894 18.50165 C 76.05542 18.62747 75.70917 18.82492 75.4899 18.94638 C 75.27063 19.06786 74.91373 19.26 74.68848 19.3771 C 74.46324 19.4942 74.09799 19.67809 73.86638 19.79042 C 73.63475 19.90274 73.25626 20.07916 73.01907 20.18678 C 72.78189 20.29439 72.39941 20.4636 72.15692 20.56606 C 71.91444 20.66852 71.51949 20.82765 71.2713 20.92528 C 71.02313 21.0229 70.62103 21.17705 70.36818 21.26973 C 70.11534 21.36243 69.7067 21.506 69.44894 21.59332 C 69.1912 21.68065 68.77324 21.81688 68.5104 21.89912 C 68.24759 21.98137 67.8223 22.10938 67.5546 22.18617 C 67.28688 22.26297 66.85332 22.38129 66.58093 22.45274 C 66.30855 22.52419 65.8685 22.63548 65.59135 22.70119 C 65.31422 22.76689 64.86472 22.8662 64.5835 22.92636 C 64.30228 22.98651 63.85007 23.08015 63.56447 23.13481 C 63.27887 23.18945 62.81555 23.27187 62.52509 23.32025 C 62.23463 23.36864 61.76517 23.4411 61.47098 23.48363 C 61.17677 23.52615 60.70215 23.58989 60.40459 23.62675 C 60.10703 23.66362 59.62743 23.71846 59.32628 23.74942 C 59.02513 23.78038 58.53876 23.825 58.23401 23.84996 C 57.92928 23.87492 57.43811 23.91069 57.12991 23.92943 C 56.8217 23.94815 56.32402 23.97246 56.01268 23.98497 C 55.70135 23.99748 55.20018 24.01318 54.88591 24.0196 C 54.57164 24.02602 54.0651 24.03127 53.74763 24.03128 C 53.43018 24.0313 52.91754 24.02573 52.59778 24.01973 C 52.278 24.01372 51.76556 24.00046 51.4429 23.98792 C 51.12024 23.97536 50.5978 23.94861 50.2722 23.92921 C 49.94661 23.90982 49.42372 23.87357 49.0962 23.84805 C 48.76869 23.82254 48.24095 23.77695 47.9117 23.74532 C 47.58246 23.71368 47.0546 23.65848 46.72316 23.62001 C 46.39174 23.58153 45.85638 23.51312 45.52295 23.46799 C 45.18953 23.42285 44.6546 23.34586 44.32005 23.2946 C 43.9855 23.24336 43.44771 23.15631 43.11168 23.09853 C 42.77565 23.04076 42.2355 22.94254 41.89818 22.87804 C 41.56087 22.81355 41.01868 22.70453 40.6805 22.63365 C 40.34233 22.56279 39.7999 22.44463 39.46083 22.3672 C 39.12177 22.28976 38.57698 22.15988 38.23671 22.07562 C 37.89644 21.99136 37.34937 21.85065 37.00842 21.75983 C 36.66747 21.66902 36.1208 21.51846 35.77936 21.421 C 35.4379 21.32355 34.8889 21.16129 34.54744 21.05739 C 34.206 20.9535 33.65974 20.78235 33.31839 20.67216 C 32.97705 20.56198 32.42888 20.38 32.08727 20.26324 C 31.74565 20.14647 31.19727 19.95369 30.85619 19.83049 C 30.51512 19.70729 29.96968 19.50499 29.62898 19.37521 C 29.28828 19.24544 28.74081 19.03128 28.40063 18.89505 C 28.06046 18.75882 27.5164 18.53577 27.17719 18.39337 C 26.83798 18.25098 26.29375 18.0171 25.95572 17.86864 C 25.61768 17.72018 25.07813 17.4783 24.74089 17.32332 C 24.40367 17.16833 23.86145 16.91298 23.52522 16.75159 C 23.189 16.59018 22.65248 16.32767 22.3176 16.16006 C 21.98271 15.99246 21.445 15.7174 21.11154 15.54362 C 20.77808 15.36983 20.24548 15.08704 19.91414 14.90741 C 19.5828 14.7278 19.05283 14.43471 18.72337 14.24905 C 18.39392 14.06339 17.86705 13.76085 17.53961 13.56923 C 17.21217 13.37761 16.6887 13.06548 16.36343 12.86794 C 16.03816 12.6704 15.5179 12.34854 15.19518 12.14545 C 14.87245 11.94235 14.35782 11.61299 14.03748 11.40405 C 13.71712 11.1951 13.20412 10.85411 12.88623 10.6394 C 12.56833 10.42468 12.06131 10.07666 11.74632 9.85645 C 11.43134 9.63622 10.92792 9.27794 10.61595 9.05223 C 10.30397 8.82654 9.80661 8.46062 9.49777 8.22963 C 9.18895 7.99864 8.69597 7.62389 8.39003 7.38733 C 8.08409 7.15077 7.59506 6.76619 7.29272 6.52463 C 6.99039 6.28305 6.50949 5.89264 6.21089 5.64616 C 5.91231 5.39967 5.43562 4.99962 5.14056 4.74803 C 4.84549 4.49643 4.37549 4.08919 4.08421 3.83276 C 3.79295 3.57634 3.3288 3.16118 3.04126 2.8998 C 2.75371 2.63841 2.29503 2.21468 2.01173 1.9488 C 1.72842 1.68294 1.27827 1.25378 .99934 .98358 C .7204 .71336 .00122 .00122 .00122 .00122 "/>
</g>
</svg>
