<?xml version="1.0" encoding="UTF-8" standalone="no"?>
<!DOCTYPE svg PUBLIC "-//W3C//DTD SVG 1.1//EN" "http://www.w3.org/Graphics/SVG/1.1/DTD/svg11.dtd">
<svg xmlns="http://www.w3.org/2000/svg" xmlns:xlink="http://www.w3.org/1999/xlink" version="1.1" width="219.263pt" height="246.103pt" viewBox="0 0 219.263 246.103">
<path transform="matrix(1,0,0,-1,110.159,121.986)" stroke-width="1" stroke-linecap="butt" stroke-miterlimit="10" stroke-linejoin="miter" fill="none" stroke="#bfbfbf" d="M 0 0 L 97.1363 0 M 0 0 L 68.6858 68.6858 M 0 0 L 0 97.1363 M 0 0 L -68.6858 68.6858 M 0 0 L -97.1363 0 M 0 0 L -68.6858 -68.6858 M 0 0 L 0 -97.1363 M 0 0 L 68.6858 -68.6858 "/>
<path transform="matrix(1,0,0,-1,110.159,121.986)" stroke-width="1" stroke-linecap="butt" stroke-miterlimit="10" stroke-linejoin="miter" fill="none" stroke="#bfbfbf" d="M 22.07631 0 C 22.07631 12.19255 12.19255 22.07631 0 22.07631 C -12.19255 22.07631 -22.07631 12.19255 -22.07631 0 C -22.07631 -12.19255 -12.19255 -22.07631 0 -22.07631 C 12.19255 -22.07631 22.07631 -12.19255 22.07631 0 M 44.15262 0 C 44.15262 24.38512 24.38512 44.15262 0 44.15262 C -24.38512 44.15262 -44.15262 24.38512 -44.15262 0 C -44.15262 -24.38512 -24.38512 -44.15262 0 -44.15262 C 24.38512 -44.15262 44.15262 -24.38512 44.15262 0 M 66.22893 0 C 66.22893 36.57768 36.57768 66.22893 0 66.22893 C -36.57768 66.22893 -66.22893 36.57768 -66.22893 0 C -66.22893 -36.57768 -36.57768 -66.22893 0 -66.22893 C 36.57768 -66.22893 66.22893 -36.57768 66.22893 0 M 88.30524 0 C 88.30524 48.77026 48.77026 88.30524 0 88.30524 C -48.77026 88.30524 -88.30524 48.77026 -88.30524 0 C -88.30524 -48.77026 -48.77026 -88.30524 0 -88.30524 C 48.77026 -88.30524 88.30524 -48.77026 88.30524 0 "/>
<path transform="matrix(1,0,0,-1,110.159,121.986)" stroke-width="1" stroke-linecap="butt" stroke-miterlimit="10" stroke-linejoin="miter" fill="none" stroke="#808080" d="M 97.1363 0 L 101.38814 0 M 68.6858 68.6858 L 71.69229 71.69229 M 0 97.1363 L 0 101.38814 M -68.6858 68.6858 L -71.69229 71.69229 M -97.1363 0 L -101.38814 0 M -68.6858 -68.6858 L -71.69229 -71.69229 M 0 -97.1363 L 0 -101.38814 M 68.6858 -68.6858 L 71.69229 -71.69229 "/>
<path transform="matrix(1,0,0,-1,110.159,121.986)" stroke-width="1" stroke-linecap="butt" stroke-miterlimit="10" stroke-linejoin="miter" fill="none" stroke="#808080" d="M 22.07631 0 L 22.07631 4.25183 M 44.15262 0 L 44.15262 4.25183 M 66.22893 0 L 66.22893 4.25183 M 88.30524 0 L 88.30524 4.25183 "/>
<path transform="matrix(1,0,0,-1,110.159,121.986)" stroke-width="1" stroke-linecap="butt" stroke-miterlimit="10" stroke-linejoin="miter" fill="none" stroke="#000000" d="M 0 0 L 0 0 "/>
<path transform="matrix(1,0,0,-1,110.159,121.986)" stroke-width="1" stroke-linecap="butt" stroke-miterlimit="10" stroke-linejoin="miter" fill="none" stroke="#000000" d="M 97.1363 0 C 97.1363 53.64758 53.64758 97.1363 0 97.1363 C -53.64758 97.1363 -97.1363 53.64758 -97.1363 0 C -97.1363 -53.64758 -53.64758 -97.1363 0 -97.1363 C 53.64758 -97.1363 97.1363 -53.64758 97.1363 0 "/>
<path transform="matrix(1,0,0,-1,110.159,121.986)" stroke-width="1" stroke-linecap="butt" stroke-miterlimit="10" stroke-linejoin="miter" fill="none" stroke="#000000" d="M 0 0 L 97.1363 0 "/>
<path transform="matrix(1,0,0,-1,110.159,121.986)" stroke-width="1" stroke-linecap="butt" stroke-miterlimit="10" stroke-linejoin="miter" fill="none" stroke="#000000" d="M 0 0 L 97.1363 0 "/>
<symbol id="font_0_1">
<path d="M .421 .34200005 C .421 .42200003 .416 .50200006 .381 .57600006 C .335 .67200008 .25300003 .688 .211 .688 C .15100001 .688 .07800001 .66200008 .037000006 .56900009 C .0050000029 .5 0 .42200003 0 .34200005 C 0 .26700003 .0040000008 .177 .045000007 .101 C .088 .020000002 .161 0 .21000001 0 C .264 0 .34 .021000002 .384 .116000007 C .416 .185 .421 .263 .421 .34200005 M .21000001 .022000002 C .171 .022000002 .112 .047000003 .094 .143 C .083000008 .20300001 .083000008 .29500003 .083000008 .35400004 C .083000008 .41800005 .083000008 .48400004 .091000009 .53800007 C .11 .65700009 .185 .66600009 .21000001 .66600009 C .243 .66600009 .30900003 .64800009 .328 .549 C .338 .49300004 .338 .41700004 .338 .35400004 C .338 .279 .338 .21100001 .32700003 .147 C .312 .052 .255 .022000002 .21000001 .022000002 Z "/>
</symbol>
<use xlink:href="#font_0_1" transform="matrix(9.9626,0,0,-9.9626,211.27654,125.41518)"/>
<symbol id="font_1_1">
<path d="M .23800002 .38400004 L .351 .38400004 C .31800003 .23600002 .30900003 .19300002 .30900003 .126 C .30900003 .111 .30900003 .08400001 .317 .05 C .327 .0060000007 .338 0 .35300002 0 C .373 0 .39400003 .018000002 .39400003 .038000004 C .39400003 .044 .39400003 .046 .388 .060000004 C .359 .13200002 .359 .19700001 .359 .22500003 C .359 .27800004 .366 .33200003 .377 .38400004 L .491 .38400004 C .504 .38400004 .54 .38400004 .54 .418 C .54 .44200004 .519 .44200004 .5 .44200004 L .165 .44200004 C .143 .44200004 .105 .44200004 .061000006 .395 C .026000003 .35600005 0 .31000004 0 .305 C 0 .30400003 0 .29500003 .012 .29500003 C .020000002 .29500003 .022000002 .29900003 .028000003 .307 C .077 .38400004 .135 .38400004 .15500002 .38400004 L .21200001 .38400004 C .18000002 .263 .12600002 .14200002 .08400001 .051000004 C .076000008 .036000004 .076000008 .034 .076000008 .027000003 C .076000008 .008000001 .092 0 .105 0 C .135 0 .143 .028 .15500002 .065000008 C .16900002 .111 .16900002 .113000009 .18200001 .16300002 L .23800002 .38400004 Z "/>
</symbol>
<use xlink:href="#font_1_1" transform="matrix(9.9626,0,0,-9.9626,186.262,38.601594)"/>
<path transform="matrix(1,0,0,-1,185.993,42.742006)" stroke-width="1" stroke-linecap="butt" stroke-miterlimit="10" stroke-linejoin="miter" fill="none" stroke="#000000" d="M 0 0 L 6.036 0 "/>
<symbol id="font_0_5">
<path d="M .266 .165 L .266 .078 C .266 .042000005 .26400004 .031000002 .19000001 .031000002 L .16900002 .031000002 L .16900002 0 C .21000001 .003 .26200003 .003 .30400003 .003 C .34600003 .003 .39900003 .003 .44000004 0 L .44000004 .031000002 L .41900004 .031000002 C .34500004 .031000002 .34300003 .042000005 .34300003 .078 L .34300003 .165 L .44300003 .165 L .44300003 .19600001 L .34300003 .19600001 L .34300003 .651 C .34300003 .671 .34300003 .67700007 .32700003 .67700007 C .31800003 .67700007 .31500004 .67700007 .307 .665 L 0 .19600001 L 0 .165 L .266 .165 M .272 .19600001 L .028 .19600001 L .272 .569 L .272 .19600001 Z "/>
</symbol>
<use xlink:href="#font_0_5" transform="matrix(9.9626,0,0,-9.9626,186.79895,52.065996)"/>
<use xlink:href="#font_1_1" transform="matrix(9.9626,0,0,-9.9626,107.40999,7.793579)"/>
<path transform="matrix(1,0,0,-1,107.141,11.932999)" stroke-width="1" stroke-linecap="butt" stroke-miterlimit="10" stroke-linejoin="miter" fill="none" stroke="#000000" d="M 0 0 L 6.036 0 "/>
<symbol id="font_0_3">
<path d="M .07700001 .07700001 L .18300002 .18 C .33900003 .31800003 .39900003 .372 .39900003 .47200004 C .39900003 .586 .30900003 .666 .18700002 .666 C .074 .666 0 .574 0 .485 C 0 .42900003 .05 .42900003 .053000008 .42900003 C .07000001 .42900003 .105000007 .441 .105000007 .48200003 C .105000007 .508 .08700001 .53400006 .052000006 .53400006 C .044000005 .53400006 .042000008 .53400006 .039 .53300008 C .062000004 .59800007 .11600001 .63500007 .17400001 .63500007 C .26500003 .63500007 .308 .554 .308 .47200004 C .308 .39200003 .25800003 .31300003 .20300003 .25100003 L .011000004 .037 C 0 .026 0 .024 0 0 L .37100003 0 L .39900003 .17400001 L .374 .17400001 C .36900003 .14400001 .36200003 .1 .352 .085 C .345 .07700001 .279 .07700001 .257 .07700001 L .07700001 .07700001 Z "/>
</symbol>
<use xlink:href="#font_0_3" transform="matrix(9.9626,0,0,-9.9626,108.16713,21.257004)"/>
<symbol id="font_0_4">
<path d="M .24800003 .37400005 C .33 .40100003 .388 .47100006 .388 .55 C .388 .632 .3 .688 .204 .688 C .10300001 .688 .027000003 .628 .027000003 .55200007 C .027000003 .519 .049000004 .5 .078 .5 C .109000008 .5 .12900001 .522 .12900001 .55100008 C .12900001 .6010001 .082 .6010001 .067 .6010001 C .098 .65000006 .164 .66300007 .20000002 .66300007 C .24100003 .66300007 .29600004 .64100006 .29600004 .55100008 C .29600004 .53900006 .29400004 .48100005 .268 .43700005 C .238 .38900004 .204 .38600005 .17900002 .38500003 C .171 .38400004 .14700002 .38200004 .14000002 .38200004 C .132 .38100005 .125 .38000003 .125 .37000004 C .125 .35900004 .132 .35900004 .14900002 .35900004 L .19300002 .35900004 C .275 .35900004 .312 .29100005 .312 .193 C .312 .057000005 .24300003 .028 .199 .028 C .15600002 .028 .081 .045 .046000005 .104 C .081 .09900001 .11200001 .12100001 .11200001 .15900001 C .11200001 .19500001 .085 .215 .056 .215 C .031999999 .215 0 .201 0 .157 C 0 .06600001 .093 0 .20200002 0 C .32400004 0 .41500003 .091000009 .41500003 .193 C .41500003 .27500005 .35200004 .35300005 .24800003 .37400005 Z "/>
</symbol>
<use xlink:href="#font_0_4" transform="matrix(9.9626,0,0,-9.9626,24.439425,37.999177)"/>
<use xlink:href="#font_1_1" transform="matrix(9.9626,0,0,-9.9626,29.270985,37.889589)"/>
<path transform="matrix(1,0,0,-1,24.020997,42.02899)" stroke-width="1" stroke-linecap="butt" stroke-miterlimit="10" stroke-linejoin="miter" fill="none" stroke="#000000" d="M 0 0 L 11.018 0 "/>
<use xlink:href="#font_0_5" transform="matrix(9.9626,0,0,-9.9626,27.31795,51.352998)"/>
<use xlink:href="#font_1_1" transform="matrix(9.9626,0,0,-9.9626,3.6629875,124.240589)"/>
<symbol id="font_0_6">
<path d="M .39900003 .223 C .39900003 .34200005 .317 .44200004 .209 .44200004 C .16100002 .44200004 .118000019 .42600004 .082 .39100004 L .082 .586 C .10200001 .58000007 .135 .573 .16700001 .573 C .29 .573 .36 .66400006 .36 .67700007 C .36 .683 .357 .688 .35 .688 C .349 .688 .347 .688 .342 .68500009 C .322 .67600008 .273 .656 .20600002 .656 C .16600001 .656 .120000008 .66300007 .073 .6840001 C .065 .68700006 .06300001 .68700006 .061000009 .68700006 C .051000004 .68700006 .051000004 .679 .051000004 .66300007 L .051000004 .36700005 C .051000004 .34900005 .051000004 .34100003 .065 .34100003 C .07200001 .34100003 .074 .34400005 .07800001 .35000003 C .08900002 .36600004 .12600002 .42000006 .207 .42000006 C .259 .42000006 .284 .37400005 .292 .35600005 C .308 .31900005 .31 .28000004 .31 .23 C .31 .19500001 .31 .135 .286 .093 C .262 .054000006 .22500001 .028 .17900002 .028 C .106000009 .028 .049000008 .08100001 .032 .14000002 C .035 .13900002 .038000008 .13800001 .049000008 .13800001 C .082 .13800001 .09900001 .163 .09900001 .187 C .09900001 .21100001 .082 .23600002 .049000008 .23600002 C .035 .23600002 0 .22900002 0 .18300002 C 0 .097 .069000009 0 .18100001 0 C .297 0 .39900003 .096 .39900003 .223 Z "/>
</symbol>
<use xlink:href="#font_0_6" transform="matrix(9.9626,0,0,-9.9626,24.519127,199.25818)"/>
<use xlink:href="#font_1_1" transform="matrix(9.9626,0,0,-9.9626,29.270985,199.14859)"/>
<path transform="matrix(1,0,0,-1,24.020997,203.288)" stroke-width="1" stroke-linecap="butt" stroke-miterlimit="10" stroke-linejoin="miter" fill="none" stroke="#000000" d="M 0 0 L 11.018 0 "/>
<use xlink:href="#font_0_5" transform="matrix(9.9626,0,0,-9.9626,27.31795,212.61299)"/>
<use xlink:href="#font_0_4" transform="matrix(9.9626,0,0,-9.9626,105.06842,229.35417)"/>
<use xlink:href="#font_1_1" transform="matrix(9.9626,0,0,-9.9626,109.900989,229.24459)"/>
<path transform="matrix(1,0,0,-1,104.649997,233.384)" stroke-width="1" stroke-linecap="butt" stroke-miterlimit="10" stroke-linejoin="miter" fill="none" stroke="#000000" d="M 0 0 L 11.018 0 "/>
<use xlink:href="#font_0_3" transform="matrix(9.9626,0,0,-9.9626,108.16712,242.709)"/>
<symbol id="font_0_7">
<path d="M .42000003 .63100007 C .42900003 .64300009 .42900003 .64500007 .42900003 .66600009 L .18600002 .66600009 C .064 .66600009 .062000008 .679 .058000007 .6980001 L .033 .6980001 L 0 .49200005 L .024999999 .49200005 C .028000005 .508 .037 .57100006 .050000006 .58300009 C .057000005 .58900007 .13500002 .58900007 .148 .58900007 L .35500003 .58900007 C .344 .573 .26500003 .46400006 .24300003 .43100003 C .153 .29600004 .12000001 .157 .12000001 .055 C .12000001 .045 .12000001 0 .16600001 0 C .21200001 0 .21200001 .045 .21200001 .055 L .21200001 .106000009 C .21200001 .16100002 .21500004 .216 .22300002 .27 C .22700003 .29300005 .24100003 .37900005 .28500004 .44100005 L .42000003 .63100007 Z "/>
</symbol>
<use xlink:href="#font_0_7" transform="matrix(9.9626,0,0,-9.9626,185.8379,199.25818)"/>
<use xlink:href="#font_1_1" transform="matrix(9.9626,0,0,-9.9626,190.53,199.14859)"/>
<path transform="matrix(1,0,0,-1,185.28,203.288)" stroke-width="1" stroke-linecap="butt" stroke-miterlimit="10" stroke-linejoin="miter" fill="none" stroke="#000000" d="M 0 0 L 11.018 0 "/>
<use xlink:href="#font_0_5" transform="matrix(9.9626,0,0,-9.9626,188.57695,212.61299)"/>
<use xlink:href="#font_0_1" transform="matrix(9.9626,0,0,-9.9626,126.25854,118.612178)"/>
<symbol id="font_1_2">
<path d="M .106 .053000004 C .106 .082 .08200001 .106000009 .05300001 .106000009 C .024000004 .106000009 0 .082 0 .053000004 C 0 .024 .024000004 0 .05300001 0 C .08200001 0 .106 .024 .106 .053000004 Z "/>
</symbol>
<use xlink:href="#font_1_2" transform="matrix(9.9626,0,0,-9.9626,131.70877,118.393)"/>
<use xlink:href="#font_0_6" transform="matrix(9.9626,0,0,-9.9626,134.11711,118.612178)"/>
<symbol id="font_0_2">
<path d="M .205 .64000007 C .205 .66400006 .205 .666 .18200003 .666 C .120000008 .60200008 .032000007 .60200008 0 .60200008 L 0 .57100006 C .020000004 .57100006 .07900001 .57100006 .13100001 .597 L .13100001 .079 C .13100001 .043 .128 .031000002 .038000004 .031000002 L .0060000049 .031000002 L .0060000049 0 C .04100001 .003 .128 .003 .168 .003 C .20800002 .003 .29500003 .003 .33000005 0 L .33000005 .031000002 L .29800005 .031000002 C .20800002 .031000002 .205 .042000005 .205 .079 L .205 .64000007 Z "/>
</symbol>
<use xlink:href="#font_0_2" transform="matrix(9.9626,0,0,-9.9626,152.70767,118.393)"/>
<use xlink:href="#font_0_2" transform="matrix(9.9626,0,0,-9.9626,170.90868,118.393)"/>
<use xlink:href="#font_1_2" transform="matrix(9.9626,0,0,-9.9626,175.86078,118.393)"/>
<use xlink:href="#font_0_6" transform="matrix(9.9626,0,0,-9.9626,178.26912,118.612178)"/>
<use xlink:href="#font_0_3" transform="matrix(9.9626,0,0,-9.9626,196.47112,118.393)"/>
<clipPath id="cp2">
<path transform="matrix(1,0,0,-1,110.159,121.986)" d="M 97.1363 0 C 97.1363 53.64758 53.64758 97.1363 0 97.1363 C -53.64758 97.1363 -97.1363 53.64758 -97.1363 0 C -97.1363 -53.64758 -53.64758 -97.1363 0 -97.1363 C 53.64758 -97.1363 97.1363 -53.64758 97.1363 0 "/>
</clipPath>
<g clip-path="url(#cp2)">
<path transform="matrix(1,0,0,-1,110.159,121.986)" stroke-width="1.19553" stroke-linecap="butt" stroke-miterlimit="10" stroke-linejoin="miter" fill="none" stroke="#000080" d="M 88.30524 0 C 88.30524 0 88.18048 4.04962 88.03255 5.59413 C 87.88463 7.13866 87.53177 9.61058 87.23901 11.13182 C 86.94624 12.65308 86.3582 15.07547 85.92247 16.55826 C 85.48674 18.04105 84.67038 20.38882 84.09843 21.81876 C 83.52649 23.24869 82.50224 25.50151 81.80023 26.86427 C 81.09822 28.22704 79.8633 30.35837 79.03873 31.64067 C 78.21416 32.92297 76.7928 34.91537 75.8572 36.10623 C 74.92159 37.29707 73.33203 39.13544 72.29547 40.22348 C 71.25893 41.31154 69.51215 42.97261 68.38646 43.9482 C 67.26077 44.92378 65.38329 46.39876 64.18225 47.25491 C 62.9812 48.11108 60.99316 49.38898 59.73009 50.11891 C 58.46701 50.84885 56.3895 51.91672 55.07881 52.51585 C 53.76813 53.11497 51.62724 53.97115 50.28352 54.43707 C 48.93982 54.903 46.7565 55.54305 45.39413 55.87401 C 44.03177 56.20497 41.83018 56.62535 40.46446 56.8225 C 39.09875 57.01964 36.9059 57.22922 35.55095 57.29494 C 34.19598 57.36066 32.0295 57.35893 30.6988 57.29619 C 29.36812 57.23344 27.25296 57.02768 25.96017 56.8427 C 24.66737 56.65771 22.6241 56.26338 21.38123 55.9629 C 20.13835 55.66241 18.1843 55.0851 17.00238 54.67696 C 15.82048 54.26883 13.97333 53.52707 12.86278 53.02138 C 11.75223 52.51569 10.02861 51.62593 8.99821 51.03217 C 7.9678 50.43842 6.37935 49.4124 5.4363 48.74188 C 4.49324 48.07137 3.05106 46.93419 2.2013 46.19948 C 1.35153 45.46477 .064 44.23383 -.68822 43.4466 C -1.44044 42.65936 -2.56816 41.35294 -3.22023 40.52562 C -3.8723 39.69832 -4.8373 38.33846 -5.388 37.48384 C -5.9387 36.62924 -6.73976 35.23557 -7.18942 34.36613 C -7.63908 33.4967 -8.27818 32.08984 -8.62888 31.21751 C -8.97957 30.34518 -9.46198 28.94269 -9.71706 28.07892 C -9.97212 27.21513 -10.3032 25.83607 -10.46729 24.99194 C -10.63136 24.1478 -10.82047 22.8095 -10.89967 21.99492 C -10.97888 21.18033 -11.03679 19.89719 -11.03822 19.12094 C -11.03966 18.34468 -10.97835 17.1302 -10.91006 16.40013 C -10.8418 15.67006 -10.67523 14.53633 -10.54617 13.85896 C -10.4171 13.1816 -10.15999 12.13731 -9.97977 11.51811 C -9.79955 10.8989 -9.4687 9.95345 -9.24724 9.3961 C -9.02576 8.83878 -8.63608 7.99443 -8.38347 7.50113 C -8.13086 7.00784 -7.6998 6.26881 -7.42659 5.8408 C -7.15338 5.4128 -6.69806 4.7796 -6.41432 4.41632 C -6.13057 4.05304 -5.66594 3.52295 -5.38153 3.22241 C -5.09714 2.92189 -4.63992 2.49109 -4.36447 2.25023 C -4.089 2.00937 -3.65442 1.67226 -3.39616 1.48645 C -3.1379 1.30066 -2.73564 1.0473 -2.50299 .91112 C -2.27036 .77495 -1.91945 .59808 -1.71939 .50493 C -1.51933 .41177 -1.22343 .29756 -1.0611 .2397 C -.89874 .18184 -.66847 .11847 -.5493 .0879 C -.43013 .05733 -.27512 .03139 -.20215 .0193 C -.12918 .00722 -.04817 .0035 -.02338 .00072 C .0014 -.00203 .00128 .00201 -.02338 -.00072 C -.04805 -.00348 -.1285 -.00714 -.20128 -.0192 C -.27406 -.03125 -.42894 -.05713 -.548 -.08763 C -.66707 -.11815 -.89719 -.1814 -1.05942 -.23918 C -1.22165 -.29697 -1.51724 -.41098 -1.71736 -.5041 C -1.91748 -.59723 -2.26923 -.7743 -2.50185 -.9104 C -2.73447 -1.04648 -3.13573 -1.29929 -3.39395 -1.48502 C -3.65219 -1.67073 -4.08762 -2.00821 -4.36313 -2.24898 C -4.63863 -2.48975 -5.0953 -2.92 -5.37965 -3.22038 C -5.664 -3.52075 -6.12881 -4.05072 -6.41261 -4.41397 C -6.6964 -4.77722 -7.15184 -5.41052 -7.42508 -5.83846 C -7.69832 -6.26637 -8.12944 -7.00517 -8.38203 -7.49821 C -8.63463 -7.99126 -9.0241 -8.83485 -9.24565 -9.39206 C -9.46721 -9.94928 -9.79852 -10.89513 -9.97885 -11.51428 C -10.15916 -12.13342 -10.4162 -13.1772 -10.54535 -13.85446 C -10.67448 -14.53174 -10.84131 -15.66573 -10.90968 -16.39561 C -10.97804 -17.1255 -11.03946 -18.33891 -11.03816 -19.11504 C -11.03687 -19.89116 -10.97942 -21.17485 -10.90034 -21.98946 C -10.82127 -22.80408 -10.63225 -24.1421 -10.4683 -24.98622 C -10.30437 -25.83034 -9.97366 -27.2097 -9.71878 -28.07336 C -9.46391 -28.93703 -8.98181 -30.33868 -8.63132 -31.211 C -8.2808 -32.0833 -7.64209 -33.49086 -7.19263 -34.36041 C -6.74316 -35.22997 -5.94234 -36.62358 -5.39182 -37.47816 C -4.8413 -38.33273 -3.87672 -39.69229 -3.22476 -40.51973 C -2.57278 -41.34715 -1.44482 -42.65443 -.6928 -43.44174 C .05922 -44.22905 1.34581 -45.45938 2.1954 -46.1942 C 3.045 -46.92902 4.48752 -48.06711 5.43051 -48.73781 C 6.37349 -49.40851 7.96161 -50.43439 8.99184 -51.02817 C 10.02208 -51.62196 11.74542 -52.51164 12.85582 -53.0175 C 13.96622 -53.52336 15.8131 -54.2658 16.99483 -54.67407 C 18.17657 -55.08235 20.13036 -55.65947 21.3731 -55.96019 C 22.61583 -56.26093 24.65901 -56.65652 25.95166 -56.84155 C 27.2443 -57.0266 29.35904 -57.231 30.68956 -57.2939 C 32.02008 -57.35678 34.18616 -57.36003 35.54118 -57.29492 C 36.89621 -57.22981 39.08997 -57.0214 40.45576 -56.82458 C 41.82158 -56.62779 44.02283 -56.20718 45.38504 -55.87642 C 46.74727 -55.54565 48.93013 -54.9063 50.27376 -54.44061 C 51.61739 -53.97493 53.75789 -53.11894 55.06897 -52.52008 C 56.38007 -51.9212 58.46008 -50.85416 59.7233 -50.12434 C 60.9865 -49.39455 62.97234 -48.11604 64.17334 -47.26013 C 65.37434 -46.40422 67.25314 -44.93068 68.37929 -43.95544 C 69.50542 -42.98021 71.25304 -41.319 72.28976 -40.23123 C 73.32649 -39.14348 74.91579 -37.3063 75.85136 -36.11552 C 76.78693 -34.92476 78.2082 -32.93137 79.03276 -31.64896 C 79.85732 -30.36655 81.09164 -28.23526 81.79419 -26.87279 C 82.49673 -25.51031 83.52373 -23.25859 84.09625 -21.82913 C 84.6688 -20.39967 85.48521 -18.05295 85.9207 -16.57019 C 86.3562 -15.08743 86.9423 -12.66399 87.23502 -11.1424 C 87.52771 -9.62079 87.88216 -7.14818 88.03033 -5.6035 C 88.17851 -4.05882 88.303 -.00941 88.303 -.00941 "/>
</g>
</svg>
