<?xml version="1.0" encoding="UTF-8" standalone="no"?>
<!DOCTYPE svg PUBLIC "-//W3C//DTD SVG 1.1//EN" "http://www.w3.org/Graphics/SVG/1.1/DTD/svg11.dtd">
<svg xmlns="http://www.w3.org/2000/svg" xmlns:xlink="http://www.w3.org/1999/xlink" version="1.1" width="219.263pt" height="246.103pt" viewBox="0 0 219.263 246.103">
<path transform="matrix(1,0,0,-1,110.159,121.986)" stroke-width="1" stroke-linecap="butt" stroke-miterlimit="10" stroke-linejoin="miter" fill="none" stroke="#bfbfbf" d="M 0 0 L 97.1363 0 M 0 0 L 68.6858 68.6858 M 0 0 L 0 97.1363 M 0 0 L -68.6858 68.6858 M 0 0 L -97.1363 0 M 0 0 L -68.6858 -68.6858 M 0 0 L 0 -97.1363 M 0 0 L 68.6858 -68.6858 "/>
<path transform="matrix(1,0,0,-1,110.159,121.986)" stroke-width="1" stroke-linecap="butt" stroke-miterlimit="10" stroke-linejoin="miter" fill="none" stroke="#bfbfbf" d="M 22.07631 0 C 22.07631 12.19255 12.19255 22.07631 0 22.07631 C -12.19255 22.07631 -22.07631 12.19255 -22.07631 0 C -22.07631 -12.19255 -12.19255 -22.07631 0 -22.07631 C 12.19255 -22.07631 22.07631 -12.19255 22.07631 0 M 44.15262 0 C 44.15262 24.38512 24.38512 44.15262 0 44.15262 C -24.38512 44.15262 -44.15262 24.38512 -44.15262 0 C -44.15262 -24.38512 -24.38512 -44.15262 0 -44.15262 C 24.38512 -44.15262 44.15262 -24.38512 44.15262 0 M 66.22893 0 C 66.22893 36.57768 36.57768 66.22893 0 66.22893 C -36.57768 66.22893 -66.22893 36.57768 -66.22893 0 C -66.22893 -36.57768 -36.57768 -66.22893 0 -66.22893 C 36.57768 -66.22893 66.22893 -36.57768 66.22893 0 M 88.30524 0 C 88.30524 48.77026 48.77026 88.30524 0 88.30524 C -48.77026 88.30524 -88.30524 48.77026 -88.30524 0 C -88.30524 -48.77026 -48.77026 -88.30524 0 -88.30524 C 48.77026 -88.30524 88.30524 -48.77026 88.30524 0 "/>
<path transform="matrix(1,0,0,-1,110.159,121.986)" stroke-width="1" stroke-linecap="butt" stroke-miterlimit="10" stroke-linejoin="miter" fill="none" stroke="#808080" d="M 97.1363 0 L 101.38814 0 M 68.6858 68.6858 L 71.69229 71.69229 M 0 97.1363 L 0 101.38814 M -68.6858 68.6858 L -71.69229 71.69229 M -97.1363 0 L -101.38814 0 M -68.6858 -68.6858 L -71.69229 -71.69229 M 0 -97.1363 L 0 -101.38814 M 68.6858 -68.6858 L 71.69229 -71.69229 "/>
<path transform="matrix(1,0,0,-1,110.159,121.986)" stroke-width="1" stroke-linecap="butt" stroke-miterlimit="10" stroke-linejoin="miter" fill="none" stroke="#808080" d="M 22.07631 0 L 22.07631 4.25183 M 44.15262 0 L 44.15262 4.25183 M 66.22893 0 L 66.22893 4.25183 M 88.30524 0 L 88.30524 4.25183 "/>
<path transform="matrix(1,0,0,-1,110.159,121.986)" stroke-width="1" stroke-linecap="butt" stroke-miterlimit="10" stroke-linejoin="miter" fill="none" stroke="#000000" d="M 0 0 L 0 0 "/>
<path transform="matrix(1,0,0,-1,110.159,121.986)" stroke-width="1" stroke-linecap="butt" stroke-miterlimit="10" stroke-linejoin="miter" fill="none" stroke="#000000" d="M 97.1363 0 C 97.1363 53.64758 53.64758 97.1363 0 97.1363 C -53.64758 97.1363 -97.1363 53.64758 -97.1363 0 C -97.1363 -53.64758 -53.64758 -97.1363 0 -97.1363 C 53.64758 -97.1363 97.1363 -53.64758 97.1363 0 "/>
<path transform="matrix(1,0,0,-1,110.159,121.986)" stroke-width="1" stroke-linecap="butt" stroke-miterlimit="10" stroke-linejoin="miter" fill="none" stroke="#000000" d="M 0 0 L 97.1363 0 "/>
<path transform="matrix(1,0,0,-1,110.159,121.986)" stroke-width="1" stroke-linecap="butt" stroke-miterlimit="10" stroke-linejoin="miter" fill="none" stroke="#000000" d="M 0 0 L 97.1363 0 "/>
<symbol id="font_0_1">
<path d="M .421 .34200005 C .421 .42200003 .416 .50200006 .381 .57600006 C .335 .67200008 .25300003 .688 .211 .688 C .15100001 .688 .07800001 .66200008 .037000006 .56900009 C .0050000029 .5 0 .42200003 0 .34200005 C 0 .26700003 .0040000008 .177 .045000007 .101 C .088 .020000002 .161 0 .21000001 0 C .264 0 .34 .021000002 .384 .116000007 C .416 .185 .421 .263 .421 .34200005 M .21000001 .022000002 C .171 .022000002 .112 .047000003 .094 .143 C .083000008 .20300001 .083000008 .29500003 .083000008 .35400004 C .083000008 .41800005 .083000008 .48400004 .091000009 .53800007 C .11 .65700009 .185 .66600009 .21000001 .66600009 C .243 .66600009 .30900003 .64800009 .328 .549 C .338 .49300004 .338 .41700004 .338 .35400004 C .338 .279 .338 .21100001 .32700003 .147 C .312 .052 .255 .022000002 .21000001 .022000002 Z "/>
</symbol>
<use xlink:href="#font_0_1" transform="matrix(9.9626,0,0,-9.9626,211.27654,125.41518)"/>
<symbol id="font_1_1">
<path d="M .23800002 .38400004 L .351 .38400004 C .31800003 .23600002 .30900003 .19300002 .30900003 .126 C .30900003 .111 .30900003 .08400001 .317 .05 C .327 .0060000007 .338 0 .35300002 0 C .373 0 .39400003 .018000002 .39400003 .038000004 C .39400003 .044 .39400003 .046 .388 .060000004 C .359 .13200002 .359 .19700001 .359 .22500003 C .359 .27800004 .366 .33200003 .377 .38400004 L .491 .38400004 C .504 .38400004 .54 .38400004 .54 .418 C .54 .44200004 .519 .44200004 .5 .44200004 L .165 .44200004 C .143 .44200004 .105 .44200004 .061000006 .395 C .026000003 .35600005 0 .31000004 0 .305 C 0 .30400003 0 .29500003 .012 .29500003 C .020000002 .29500003 .022000002 .29900003 .028000003 .307 C .077 .38400004 .135 .38400004 .15500002 .38400004 L .21200001 .38400004 C .18000002 .263 .12600002 .14200002 .08400001 .051000004 C .076000008 .036000004 .076000008 .034 .076000008 .027000003 C .076000008 .008000001 .092 0 .105 0 C .135 0 .143 .028 .15500002 .065000008 C .16900002 .111 .16900002 .113000009 .18200001 .16300002 L .23800002 .38400004 Z "/>
</symbol>
<use xlink:href="#font_1_1" transform="matrix(9.9626,0,0,-9.9626,186.262,38.601594)"/>
<path transform="matrix(1,0,0,-1,185.993,42.742006)" stroke-width="1" stroke-linecap="butt" stroke-miterlimit="10" stroke-linejoin="miter" fill="none" stroke="#000000" d="M 0 0 L 6.036 0 "/>
<symbol id="font_0_5">
<path d="M .266 .165 L .266 .078 C .266 .042000005 .26400004 .031000002 .19000001 .031000002 L .16900002 .031000002 L .16900002 0 C .21000001 .003 .26200003 .003 .30400003 .003 C .34600003 .003 .39900003 .003 .44000004 0 L .44000004 .031000002 L .41900004 .031000002 C .34500004 .031000002 .34300003 .042000005 .34300003 .078 L .34300003 .165 L .44300003 .165 L .44300003 .19600001 L .34300003 .19600001 L .34300003 .651 C .34300003 .671 .34300003 .67700007 .32700003 .67700007 C .31800003 .67700007 .31500004 .67700007 .307 .665 L 0 .19600001 L 0 .165 L .266 .165 M .272 .19600001 L .028 .19600001 L .272 .569 L .272 .19600001 Z "/>
</symbol>
<use xlink:href="#font_0_5" transform="matrix(9.9626,0,0,-9.9626,186.79895,52.065996)"/>
<use xlink:href="#font_1_1" transform="matrix(9.9626,0,0,-9.9626,107.40999,7.793579)"/>
<path transform="matrix(1,0,0,-1,107.141,11.932999)" stroke-width="1" stroke-linecap="butt" stroke-miterlimit="10" stroke-linejoin="miter" fill="none" stroke="#000000" d="M 0 0 L 6.036 0 "/>
<symbol id="font_0_3">
<path d="M .07700001 .07700001 L .18300002 .18 C .33900003 .31800003 .39900003 .372 .39900003 .47200004 C .39900003 .586 .30900003 .666 .18700002 .666 C .074 .666 0 .574 0 .485 C 0 .42900003 .05 .42900003 .053000008 .42900003 C .07000001 .42900003 .105000007 .441 .105000007 .48200003 C .105000007 .508 .08700001 .53400006 .052000006 .53400006 C .044000005 .53400006 .042000008 .53400006 .039 .53300008 C .062000004 .59800007 .11600001 .63500007 .17400001 .63500007 C .26500003 .63500007 .308 .554 .308 .47200004 C .308 .39200003 .25800003 .31300003 .20300003 .25100003 L .011000004 .037 C 0 .026 0 .024 0 0 L .37100003 0 L .39900003 .17400001 L .374 .17400001 C .36900003 .14400001 .36200003 .1 .352 .085 C .345 .07700001 .279 .07700001 .257 .07700001 L .07700001 .07700001 Z "/>
</symbol>
<use xlink:href="#font_0_3" transform="matrix(9.9626,0,0,-9.9626,108.16713,21.257004)"/>
<symbol id="font_0_4">
<path d="M .24800003 .37400005 C .33 .40100003 .388 .47100006 .388 .55 C .388 .632 .3 .688 .204 .688 C .10300001 .688 .027000003 .628 .027000003 .55200007 C .027000003 .519 .049000004 .5 .078 .5 C .109000008 .5 .12900001 .522 .12900001 .55100008 C .12900001 .6010001 .082 .6010001 .067 .6010001 C .098 .65000006 .164 .66300007 .20000002 .66300007 C .24100003 .66300007 .29600004 .64100006 .29600004 .55100008 C .29600004 .53900006 .29400004 .48100005 .268 .43700005 C .238 .38900004 .204 .38600005 .17900002 .38500003 C .171 .38400004 .14700002 .38200004 .14000002 .38200004 C .132 .38100005 .125 .38000003 .125 .37000004 C .125 .35900004 .132 .35900004 .14900002 .35900004 L .19300002 .35900004 C .275 .35900004 .312 .29100005 .312 .193 C .312 .057000005 .24300003 .028 .199 .028 C .15600002 .028 .081 .045 .046000005 .104 C .081 .09900001 .11200001 .12100001 .11200001 .15900001 C .11200001 .19500001 .085 .215 .056 .215 C .031999999 .215 0 .201 0 .157 C 0 .06600001 .093 0 .20200002 0 C .32400004 0 .41500003 .091000009 .41500003 .193 C .41500003 .27500005 .35200004 .35300005 .24800003 .37400005 Z "/>
</symbol>
<use xlink:href="#font_0_4" transform="matrix(9.9626,0,0,-9.9626,24.439425,37.999177)"/>
<use xlink:href="#font_1_1" transform="matrix(9.9626,0,0,-9.9626,29.270985,37.889589)"/>
<path transform="matrix(1,0,0,-1,24.020997,42.02899)" stroke-width="1" stroke-linecap="butt" stroke-miterlimit="10" stroke-linejoin="miter" fill="none" stroke="#000000" d="M 0 0 L 11.018 0 "/>
<use xlink:href="#font_0_5" transform="matrix(9.9626,0,0,-9.9626,27.31795,51.352998)"/>
<use xlink:href="#font_1_1" transform="matrix(9.9626,0,0,-9.9626,3.6629875,124.240589)"/>
<symbol id="font_0_6">
<path d="M .39900003 .223 C .39900003 .34200005 .317 .44200004 .209 .44200004 C .16100002 .44200004 .118000019 .42600004 .082 .39100004 L .082 .586 C .10200001 .58000007 .135 .573 .16700001 .573 C .29 .573 .36 .66400006 .36 .67700007 C .36 .683 .357 .688 .35 .688 C .349 .688 .347 .688 .342 .68500009 C .322 .67600008 .273 .656 .20600002 .656 C .16600001 .656 .120000008 .66300007 .073 .6840001 C .065 .68700006 .06300001 .68700006 .061000009 .68700006 C .051000004 .68700006 .051000004 .679 .051000004 .66300007 L .051000004 .36700005 C .051000004 .34900005 .051000004 .34100003 .065 .34100003 C .07200001 .34100003 .074 .34400005 .07800001 .35000003 C .08900002 .36600004 .12600002 .42000006 .207 .42000006 C .259 .42000006 .284 .37400005 .292 .35600005 C .308 .31900005 .31 .28000004 .31 .23 C .31 .19500001 .31 .135 .286 .093 C .262 .054000006 .22500001 .028 .17900002 .028 C .106000009 .028 .049000008 .08100001 .032 .14000002 C .035 .13900002 .038000008 .13800001 .049000008 .13800001 C .082 .13800001 .09900001 .163 .09900001 .187 C .09900001 .21100001 .082 .23600002 .049000008 .23600002 C .035 .23600002 0 .22900002 0 .18300002 C 0 .097 .069000009 0 .18100001 0 C .297 0 .39900003 .096 .39900003 .223 Z "/>
</symbol>
<use xlink:href="#font_0_6" transform="matrix(9.9626,0,0,-9.9626,24.519127,199.25818)"/>
<use xlink:href="#font_1_1" transform="matrix(9.9626,0,0,-9.9626,29.270985,199.14859)"/>
<path transform="matrix(1,0,0,-1,24.020997,203.288)" stroke-width="1" stroke-linecap="butt" stroke-miterlimit="10" stroke-linejoin="miter" fill="none" stroke="#000000" d="M 0 0 L 11.018 0 "/>
<use xlink:href="#font_0_5" transform="matrix(9.9626,0,0,-9.9626,27.31795,212.61299)"/>
<use xlink:href="#font_0_4" transform="matrix(9.9626,0,0,-9.9626,105.06842,229.35417)"/>
<use xlink:href="#font_1_1" transform="matrix(9.9626,0,0,-9.9626,109.900989,229.24459)"/>
<path transform="matrix(1,0,0,-1,104.649997,233.384)" stroke-width="1" stroke-linecap="butt" stroke-miterlimit="10" stroke-linejoin="miter" fill="none" stroke="#000000" d="M 0 0 L 11.018 0 "/>
<use xlink:href="#font_0_3" transform="matrix(9.9626,0,0,-9.9626,108.16712,242.709)"/>
<symbol id="font_0_7">
<path d="M .42000003 .63100007 C .42900003 .64300009 .42900003 .64500007 .42900003 .66600009 L .18600002 .66600009 C .064 .66600009 .062000008 .679 .058000007 .6980001 L .033 .6980001 L 0 .49200005 L .024999999 .49200005 C .028000005 .508 .037 .57100006 .050000006 .58300009 C .057000005 .58900007 .13500002 .58900007 .148 .58900007 L .35500003 .58900007 C .344 .573 .26500003 .46400006 .24300003 .43100003 C .153 .29600004 .12000001 .157 .12000001 .055 C .12000001 .045 .12000001 0 .16600001 0 C .21200001 0 .21200001 .045 .21200001 .055 L .21200001 .106000009 C .21200001 .16100002 .21500004 .216 .22300002 .27 C .22700003 .29300005 .24100003 .37900005 .28500004 .44100005 L .42000003 .63100007 Z "/>
</symbol>
<use xlink:href="#font_0_7" transform="matrix(9.9626,0,0,-9.9626,185.8379,199.25818)"/>
<use xlink:href="#font_1_1" transform="matrix(9.9626,0,0,-9.9626,190.53,199.14859)"/>
<path transform="matrix(1,0,0,-1,185.28,203.288)" stroke-width="1" stroke-linecap="butt" stroke-miterlimit="10" stroke-linejoin="miter" fill="none" stroke="#000000" d="M 0 0 L 11.018 0 "/>
<use xlink:href="#font_0_5" transform="matrix(9.9626,0,0,-9.9626,188.57695,212.61299)"/>
<use xlink:href="#font_0_1" transform="matrix(9.9626,0,0,-9.9626,123.76854,118.612178)"/>
<symbol id="font_1_2">
<path d="M .106 .053000004 C .106 .082 .08200001 .106000009 .05300001 .106000009 C .024000004 .106000009 0 .082 0 .053000004 C 0 .024 .024000004 0 .05300001 0 C .08200001 0 .106 .024 .106 .053000004 Z "/>
</symbol>
<use xlink:href="#font_1_2" transform="matrix(9.9626,0,0,-9.9626,129.21778,118.393)"/>
<use xlink:href="#font_0_3" transform="matrix(9.9626,0,0,-9.9626,131.62612,118.393)"/>
<use xlink:href="#font_0_6" transform="matrix(9.9626,0,0,-9.9626,136.6074,118.612178)"/>
<use xlink:href="#font_0_1" transform="matrix(9.9626,0,0,-9.9626,148.33454,118.612178)"/>
<use xlink:href="#font_1_2" transform="matrix(9.9626,0,0,-9.9626,153.78478,118.393)"/>
<use xlink:href="#font_0_6" transform="matrix(9.9626,0,0,-9.9626,156.19312,118.612178)"/>
<use xlink:href="#font_0_1" transform="matrix(9.9626,0,0,-9.9626,167.92053,118.612178)"/>
<use xlink:href="#font_1_2" transform="matrix(9.9626,0,0,-9.9626,173.36978,118.393)"/>
<use xlink:href="#font_0_7" transform="matrix(9.9626,0,0,-9.9626,175.8379,118.612178)"/>
<use xlink:href="#font_0_6" transform="matrix(9.9626,0,0,-9.9626,180.75942,118.612178)"/>
<symbol id="font_0_2">
<path d="M .205 .64000007 C .205 .66400006 .205 .666 .18200003 .666 C .120000008 .60200008 .032000007 .60200008 0 .60200008 L 0 .57100006 C .020000004 .57100006 .07900001 .57100006 .13100001 .597 L .13100001 .079 C .13100001 .043 .128 .031000002 .038000004 .031000002 L .0060000049 .031000002 L .0060000049 0 C .04100001 .003 .128 .003 .168 .003 C .20800002 .003 .29500003 .003 .33000005 0 L .33000005 .031000002 L .29800005 .031000002 C .20800002 .031000002 .205 .042000005 .205 .079 L .205 .64000007 Z "/>
</symbol>
<use xlink:href="#font_0_2" transform="matrix(9.9626,0,0,-9.9626,196.85967,118.393)"/>
<clipPath id="cp2">
<path transform="matrix(1,0,0,-1,110.159,121.986)" d="M 97.1363 0 C 97.1363 53.64758 53.64758 97.1363 0 97.1363 C -53.64758 97.1363 -97.1363 53.64758 -97.1363 0 C -97.1363 -53.64758 -53.64758 -97.1363 0 -97.1363 C 53.64758 -97.1363 97.1363 -53.64758 97.1363 0 "/>
</clipPath>
<g clip-path="url(#cp2)">
<path transform="matrix(1,0,0,-1,110.159,121.986)" stroke-width="1.19553" stroke-linecap="butt" stroke-miterlimit="10" stroke-linejoin="miter" fill="none" stroke="#000080" d="M 88.30524 0 C 88.30524 0 87.99332 3.54575 87.61758 4.87016 C 87.24185 6.19456 86.33649 8.30157 85.59714 9.54553 C 84.85779 10.78947 83.37529 12.72327 82.28883 13.83575 C 81.20238 14.94823 79.17247 16.62978 77.76671 17.56358 C 76.36093 18.49739 73.84608 19.85323 72.15692 20.56606 C 70.46777 21.27887 67.52444 22.24559 65.59242 22.70119 C 63.6604 23.15677 60.3581 23.67935 58.23224 23.84962 C 56.10637 24.01991 52.53696 24.06332 50.27063 23.92847 C 48.0043 23.79361 44.25021 23.32935 41.89813 22.87762 C 39.54605 22.42592 35.69899 21.44342 33.31839 20.67276 C 30.93779 19.90211 27.09312 18.40633 24.74042 17.32332 C 22.38771 16.24031 18.6304 14.24585 16.36172 12.86717 C 14.09306 11.48851 10.52095 9.03566 8.38936 7.38673 C 6.25777 5.73782 2.94576 2.86923 .99869 .98296 C -.94836 -.9033 -3.92332 -4.1247 -5.64378 -6.20828 C -7.36426 -8.29187 -9.9424 -11.79938 -11.40128 -14.03404 C -12.86015 -16.26872 -14.98903 -19.98048 -16.15842 -22.3143 C -17.32782 -24.64813 -18.96819 -28.47609 -19.82954 -30.85472 C -20.6909 -33.23334 -21.82321 -37.09131 -22.36658 -39.45782 C -22.90994 -41.82433 -23.52116 -45.61418 -23.74574 -47.91092 C -23.97032 -50.20764 -24.07004 -53.83955 -23.9852 -56.01108 C -23.90036 -58.1826 -23.51096 -61.56976 -23.1342 -63.56178 C -22.75743 -65.55382 -21.91249 -68.6051 -21.26973 -70.36818 C -20.62698 -72.13127 -19.37637 -74.77803 -18.50165 -76.26894 C -17.62692 -77.75984 -16.03137 -79.9328 -14.9653 -81.1136 C -13.89923 -82.2944 -12.02927 -83.9381 -10.81813 -84.77942 C -9.607 -85.62074 -7.54283 -86.6965 -6.23618 -87.17735 C -4.92952 -87.65819 -2.74979 -88.13794 -1.40056 -88.24496 C -.05135 -88.35199 2.15065 -88.21724 3.48805 -87.94878 C 4.82547 -87.68031 6.96613 -86.94693 8.23857 -86.30998 C 9.511 -85.67303 11.50351 -84.34785 12.6589 -83.35802 C 13.8143 -82.3682 15.57642 -80.49289 16.56589 -79.17593 C 17.55537 -77.859 19.01074 -75.47855 19.79042 -73.86638 C 20.5701 -72.25421 21.65303 -69.42418 22.18536 -67.5565 C 22.7177 -65.68884 23.3723 -62.48044 23.62709 -60.40541 C 23.88188 -58.3304 24.06784 -54.83287 24.02171 -52.60107 C 23.9756 -50.36926 23.65544 -46.65393 23.2946 -44.32005 C 22.93378 -41.98618 22.10083 -38.1582 21.421 -35.77998 C 20.7412 -33.40175 19.38985 -29.5457 18.39485 -27.17938 C 17.39987 -24.81305 15.54587 -21.02309 14.24977 -18.72513 C 12.95366 -16.42719 10.6281 -12.79329 9.05339 -10.61728 C 7.4787 -8.44127 4.72284 -5.04657 2.9004 -3.04195 C 1.07797 -1.03734 -2.04977 2.04128 -4.08148 3.83052 C -6.11317 5.61978 -9.5463 8.31712 -11.7427 9.85384 C -13.9391 11.39056 -17.6007 13.6519 -19.91164 14.90622 C -22.22258 16.16054 -26.02678 17.94333 -28.3984 18.89409 C -30.77005 19.84485 -34.62906 21.12413 -37.00473 21.75868 C -39.38039 22.39322 -43.19823 23.1522 -45.52058 23.46753 C -47.84294 23.78285 -51.52986 24.02887 -53.7427 24.03128 C -55.95555 24.03369 -59.42085 23.78064 -61.46933 23.48502 C -63.5178 23.18938 -66.67319 22.4704 -68.50679 21.90051 C -70.3404 21.33061 -73.11185 20.18971 -74.68474 19.37761 C -76.25764 18.5655 -78.57071 17.06305 -79.84326 16.04741 C -81.11581 15.03178 -82.91492 13.23233 -83.85654 12.0576 C -84.79816 10.88289 -86.0447 8.86595 -86.62993 7.58086 C -87.21515 6.29576 -87.86075 4.13802 -88.07451 2.79546 C -88.28827 1.4529 -88.3313 -.7493 -88.17053 -2.09543 C -88.00978 -3.44157 -87.4484 -5.61006 -86.91582 -6.90657 C -86.38322 -8.20308 -85.22284 -10.24602 -84.33199 -11.43983 C -83.44112 -12.63364 -81.72133 -14.46935 -80.49498 -15.51082 C -79.26865 -16.55229 -77.02559 -18.10217 -75.49332 -18.94606 C -73.96106 -19.78996 -71.25043 -20.98611 -69.45146 -21.593 C -67.6525 -22.19989 -64.54826 -22.98355 -62.52757 -23.32014 C -60.50688 -23.65675 -57.08011 -23.9775 -54.88762 -24.01904 C -52.69513 -24.0606 -49.03519 -23.88905 -46.72554 -23.61963 C -44.4159 -23.3502 -40.61282 -22.66583 -38.24121 -22.07715 C -35.8696 -21.48845 -32.00865 -20.28276 -29.63249 -19.37662 C -27.25633 -18.47047 -23.43863 -16.75822 -21.1155 -15.54623 C -18.79236 -14.33424 -15.10516 -12.13937 -12.88895 -10.64139 C -10.67273 -9.1434 -7.20071 -6.50476 -5.1425 -4.74971 C -3.08429 -2.99466 .09042 .03188 1.94522 2.00789 C 3.80002 3.9839 6.61322 7.33778 8.22559 9.49207 C 9.83795 11.64633 12.22847 15.25082 13.56613 17.53438 C 14.9038 19.81793 16.82738 23.59048 17.86662 25.9504 C 18.90585 28.3103 20.33072 32.1627 21.05634 34.54305 C 21.78194 36.9234 22.68968 40.7622 23.09634 43.10623 C 23.503 45.45026 23.89662 49.1873 23.98741 51.43723 C 24.07819 53.68715 23.96344 57.22168 23.7507 59.32219 C 23.53796 61.42268 22.9483 64.67624 22.45404 66.57628 C 21.95978 68.47633 20.93494 71.36499 20.18839 73.01651 C 19.44183 74.66801 18.03513 77.117 17.07338 78.47932 C 16.11163 79.84164 14.39082 81.7964 13.2567 82.83525 C 12.12257 83.87411 10.15805 85.27847 8.89932 85.96672 C 7.6406 86.65498 5.51604 87.47406 4.18463 87.79575 C 2.85323 88.11743 .65424 88.33847 -.6965 88.28525 C -2.04726 88.23203 -4.23442 87.83951 -5.5507 87.41216 C -6.86699 86.98482 -8.95479 85.99512 -10.18333 85.20526 C -11.4119 84.41539 -13.31555 82.85323 -14.4053 81.7193 C -15.49507 80.58539 -17.13304 78.48181 -18.03761 77.03268 C -18.94217 75.58356 -20.24667 73.00171 -20.92488 71.27498 C -21.60309 69.54826 -22.50908 66.54982 -22.92575 64.58766 C -23.34242 62.62552 -23.79985 59.28192 -23.92795 57.13318 C -24.05606 54.98444 -24.0285 51.38293 -23.84915 49.10101 C -23.66978 46.81909 -23.13254 43.04645 -22.63524 40.68661 C -22.13794 38.32678 -21.08095 34.4734 -20.2649 32.09293 C -19.44885 29.71245 -17.87996 25.8737 -16.75371 23.5297 C -15.62746 21.18568 -13.56625 17.45099 -12.14761 15.19891 C -10.72899 12.94685 -8.21394 9.40642 -6.52917 7.2983 C -4.84442 5.19017 -.00496 .00496 -.00496 .00496 "/>
</g>
</svg>
