<?xml version="1.0" encoding="UTF-8" standalone="no"?>
<!DOCTYPE svg PUBLIC "-//W3C//DTD SVG 1.1//EN" "http://www.w3.org/Graphics/SVG/1.1/DTD/svg11.dtd">
<svg xmlns="http://www.w3.org/2000/svg" xmlns:xlink="http://www.w3.org/1999/xlink" version="1.1" width="222.345pt" height="246.102pt" viewBox="0 0 222.345 246.102">
<path transform="matrix(1,0,0,-1,110.159,121.98501)" stroke-width="1" stroke-linecap="butt" stroke-miterlimit="10" stroke-linejoin="miter" fill="none" stroke="#bfbfbf" d="M 0 0 L 97.13608 0 M 0 0 L 84.12254 48.56804 M 0 0 L 68.68565 68.68565 M 0 0 L 48.56804 84.12254 M 0 0 L 0 97.13608 M 0 0 L -48.56804 84.12254 M 0 0 L -68.68565 68.68565 M 0 0 L -84.12254 48.56804 M 0 0 L -97.13608 0 M 0 0 L -84.12254 -48.56804 M 0 0 L -68.68565 -68.68565 M 0 0 L -48.56804 -84.12254 M 0 0 L 0 -97.13608 M 0 0 L 48.56804 -84.12254 M 0 0 L 68.68565 -68.68565 M 0 0 L 84.12254 -48.56804 "/>
<path transform="matrix(1,0,0,-1,110.159,121.98501)" stroke-width="1" stroke-linecap="butt" stroke-miterlimit="10" stroke-linejoin="miter" fill="none" stroke="#bfbfbf" d="M 16.18935 0 C 16.18935 8.94124 8.94124 16.18935 0 16.18935 C -8.94124 16.18935 -16.18935 8.94124 -16.18935 0 C -16.18935 -8.94124 -8.94124 -16.18935 0 -16.18935 C 8.94124 -16.18935 16.18935 -8.94124 16.18935 0 M 32.3787 0 C 32.3787 17.88248 17.88248 32.3787 0 32.3787 C -17.88248 32.3787 -32.3787 17.88248 -32.3787 0 C -32.3787 -17.88248 -17.88248 -32.3787 0 -32.3787 C 17.88248 -32.3787 32.3787 -17.88248 32.3787 0 M 48.56804 0 C 48.56804 26.82372 26.82372 48.56804 0 48.56804 C -26.82372 48.56804 -48.56804 26.82372 -48.56804 0 C -48.56804 -26.82372 -26.82372 -48.56804 0 -48.56804 C 26.82372 -48.56804 48.56804 -26.82372 48.56804 0 M 64.75739 0 C 64.75739 35.76495 35.76495 64.75739 0 64.75739 C -35.76495 64.75739 -64.75739 35.76495 -64.75739 0 C -64.75739 -35.76495 -35.76495 -64.75739 0 -64.75739 C 35.76495 -64.75739 64.75739 -35.76495 64.75739 0 M 80.94673 0 C 80.94673 44.7062 44.7062 80.94673 0 80.94673 C -44.7062 80.94673 -80.94673 44.7062 -80.94673 0 C -80.94673 -44.7062 -44.7062 -80.94673 0 -80.94673 C 44.7062 -80.94673 80.94673 -44.7062 80.94673 0 "/>
<path transform="matrix(1,0,0,-1,110.159,121.98501)" stroke-width="1" stroke-linecap="butt" stroke-miterlimit="10" stroke-linejoin="miter" fill="none" stroke="#808080" d="M 97.13608 0 L 101.38791 0 M 84.12254 48.56804 L 87.80475 50.69395 M 68.68565 68.68565 L 71.69214 71.69214 M 48.56804 84.12254 L 50.69395 87.80475 M 0 97.13608 L 0 101.38791 M -48.56804 84.12254 L -50.69395 87.80475 M -68.68565 68.68565 L -71.69214 71.69214 M -84.12254 48.56804 L -87.80475 50.69395 M -97.13608 0 L -101.38791 0 M -84.12254 -48.56804 L -87.80475 -50.69395 M -68.68565 -68.68565 L -71.69214 -71.69214 M -48.56804 -84.12254 L -50.69395 -87.80475 M 0 -97.13608 L 0 -101.38791 M 48.56804 -84.12254 L 50.69395 -87.80475 M 68.68565 -68.68565 L 71.69214 -71.69214 M 84.12254 -48.56804 L 87.80475 -50.69395 "/>
<path transform="matrix(1,0,0,-1,110.159,121.98501)" stroke-width="1" stroke-linecap="butt" stroke-miterlimit="10" stroke-linejoin="miter" fill="none" stroke="#808080" d="M 16.18935 0 L 16.18935 4.25183 M 32.3787 0 L 32.3787 4.25183 M 48.56804 0 L 48.56804 4.25183 M 64.75739 0 L 64.75739 4.25183 M 80.94673 0 L 80.94673 4.25183 "/>
<path transform="matrix(1,0,0,-1,110.159,121.98501)" stroke-width="1" stroke-linecap="butt" stroke-miterlimit="10" stroke-linejoin="miter" fill="none" stroke="#000000" d="M 0 0 L 0 0 "/>
<path transform="matrix(1,0,0,-1,110.159,121.98501)" stroke-width="1" stroke-linecap="butt" stroke-miterlimit="10" stroke-linejoin="miter" fill="none" stroke="#000000" d="M 97.13608 0 C 97.13608 53.64746 53.64746 97.13608 0 97.13608 C -53.64746 97.13608 -97.13608 53.64746 -97.13608 0 C -97.13608 -53.64746 -53.64746 -97.13608 0 -97.13608 C 53.64746 -97.13608 97.13608 -53.64746 97.13608 0 "/>
<path transform="matrix(1,0,0,-1,110.159,121.98501)" stroke-width="1" stroke-linecap="butt" stroke-miterlimit="10" stroke-linejoin="miter" fill="none" stroke="#000000" d="M 0 0 L 97.13608 0 "/>
<path transform="matrix(1,0,0,-1,110.159,121.98501)" stroke-width="1" stroke-linecap="butt" stroke-miterlimit="10" stroke-linejoin="miter" fill="none" stroke="#000000" d="M 0 0 L 97.13608 0 "/>
<symbol id="font_0_1">
<path d="M .421 .34200005 C .421 .42200003 .416 .50200006 .381 .57600006 C .335 .67200008 .25300003 .688 .211 .688 C .15100001 .688 .07800001 .66200008 .037000006 .56900009 C .0050000029 .5 0 .42200003 0 .34200005 C 0 .26700003 .0040000008 .177 .045000007 .101 C .088 .020000002 .161 0 .21000001 0 C .264 0 .34 .021000002 .384 .116000007 C .416 .185 .421 .263 .421 .34200005 M .21000001 .022000002 C .171 .022000002 .112 .047000003 .094 .143 C .083000008 .20300001 .083000008 .29500003 .083000008 .35400004 C .083000008 .41800005 .083000008 .48400004 .091000009 .53800007 C .11 .65700009 .185 .66600009 .21000001 .66600009 C .243 .66600009 .30900003 .64800009 .328 .549 C .338 .49300004 .338 .41700004 .338 .35400004 C .338 .279 .338 .21100001 .32700003 .147 C .312 .052 .255 .022000002 .21000001 .022000002 Z "/>
</symbol>
<use xlink:href="#font_0_1" transform="matrix(9.9626,0,0,-9.9626,211.27553,125.414188)"/>
<symbol id="font_1_1">
<path d="M .23800002 .38400004 L .351 .38400004 C .31800003 .23600002 .30900003 .19300002 .30900003 .126 C .30900003 .111 .30900003 .08400001 .317 .05 C .327 .0060000007 .338 0 .35300002 0 C .373 0 .39400003 .018000002 .39400003 .038000004 C .39400003 .044 .39400003 .046 .388 .060000004 C .359 .13200002 .359 .19700001 .359 .22500003 C .359 .27800004 .366 .33200003 .377 .38400004 L .491 .38400004 C .504 .38400004 .54 .38400004 .54 .418 C .54 .44200004 .519 .44200004 .5 .44200004 L .165 .44200004 C .143 .44200004 .105 .44200004 .061000006 .395 C .026000003 .35600005 0 .31000004 0 .305 C 0 .30400003 0 .29500003 .012 .29500003 C .020000002 .29500003 .022000002 .29900003 .028000003 .307 C .077 .38400004 .135 .38400004 .15500002 .38400004 L .21200001 .38400004 C .18000002 .263 .12600002 .14200002 .08400001 .051000004 C .076000008 .036000004 .076000008 .034 .076000008 .027000003 C .076000008 .008000001 .092 0 .105 0 C .135 0 .143 .028 .15500002 .065000008 C .16900002 .111 .16900002 .113000009 .18200001 .16300002 L .23800002 .38400004 Z "/>
</symbol>
<use xlink:href="#font_1_1" transform="matrix(9.9626,0,0,-9.9626,202.81,62.37361)"/>
<path transform="matrix(1,0,0,-1,202.541,66.513019)" stroke-width="1" stroke-linecap="butt" stroke-miterlimit="10" stroke-linejoin="miter" fill="none" stroke="#000000" d="M 0 0 L 6.036 0 "/>
<symbol id="font_0_7">
<path d="M .089999999 .35000003 L .089999999 .37400005 C .089999999 .62700006 .21400002 .66300007 .26500003 .66300007 C .28900004 .66300007 .33100004 .65700009 .35300002 .623 C .33800004 .623 .298 .623 .298 .57800009 C .298 .54700008 .32200004 .53200009 .344 .53200009 C .36 .53200009 .39000003 .54100009 .39000003 .58000007 C .39000003 .64000007 .34600003 .688 .263 .688 C .13499999 .688 0 .559 0 .33800004 C 0 .071 .116000007 0 .20900002 0 C .32000003 0 .41500003 .094000007 .41500003 .22600001 C .41500003 .35300005 .32600004 .44900004 .215 .44900004 C .14700002 .44900004 .11000001 .39800004 .089999999 .35000003 M .20900002 .028 C .146 .028 .116000007 .088 .11000001 .103 C .092 .15 .092 .23 .092 .24800001 C .092 .32600004 .124000009 .42600004 .21400002 .42600004 C .23000002 .42600004 .27600003 .42600004 .307 .36400003 C .32500003 .32700003 .32500003 .27600003 .32500003 .22700002 C .32500003 .179 .32500003 .12900001 .30800004 .093 C .27800004 .033000005 .23200003 .028 .20900002 .028 Z "/>
</symbol>
<use xlink:href="#font_0_7" transform="matrix(9.9626,0,0,-9.9626,203.48642,76.05719)"/>
<use xlink:href="#font_1_1" transform="matrix(9.9626,0,0,-9.9626,186.261,38.601594)"/>
<path transform="matrix(1,0,0,-1,185.992,42.741014)" stroke-width="1" stroke-linecap="butt" stroke-miterlimit="10" stroke-linejoin="miter" fill="none" stroke="#000000" d="M 0 0 L 6.036 0 "/>
<symbol id="font_0_5">
<path d="M .266 .165 L .266 .078 C .266 .042000005 .26400004 .031000002 .19000001 .031000002 L .16900002 .031000002 L .16900002 0 C .21000001 .003 .26200003 .003 .30400003 .003 C .34600003 .003 .39900003 .003 .44000004 0 L .44000004 .031000002 L .41900004 .031000002 C .34500004 .031000002 .34300003 .042000005 .34300003 .078 L .34300003 .165 L .44300003 .165 L .44300003 .19600001 L .34300003 .19600001 L .34300003 .651 C .34300003 .671 .34300003 .67700007 .32700003 .67700007 C .31800003 .67700007 .31500004 .67700007 .307 .665 L 0 .19600001 L 0 .165 L .266 .165 M .272 .19600001 L .028 .19600001 L .272 .569 L .272 .19600001 Z "/>
</symbol>
<use xlink:href="#font_0_5" transform="matrix(9.9626,0,0,-9.9626,186.79895,52.06601)"/>
<use xlink:href="#font_1_1" transform="matrix(9.9626,0,0,-9.9626,163.35199,20.557602)"/>
<path transform="matrix(1,0,0,-1,163.083,24.697022)" stroke-width="1" stroke-linecap="butt" stroke-miterlimit="10" stroke-linejoin="miter" fill="none" stroke="#000000" d="M 0 0 L 6.036 0 "/>
<symbol id="font_0_4">
<path d="M .24800003 .37400005 C .33 .40100003 .388 .47100006 .388 .55 C .388 .632 .3 .688 .204 .688 C .10300001 .688 .027000003 .628 .027000003 .55200007 C .027000003 .519 .049000004 .5 .078 .5 C .109000008 .5 .12900001 .522 .12900001 .55100008 C .12900001 .6010001 .082 .6010001 .067 .6010001 C .098 .65000006 .164 .66300007 .20000002 .66300007 C .24100003 .66300007 .29600004 .64100006 .29600004 .55100008 C .29600004 .53900006 .29400004 .48100005 .268 .43700005 C .238 .38900004 .204 .38600005 .17900002 .38500003 C .171 .38400004 .14700002 .38200004 .14000002 .38200004 C .132 .38100005 .125 .38000003 .125 .37000004 C .125 .35900004 .132 .35900004 .14900002 .35900004 L .19300002 .35900004 C .275 .35900004 .312 .29100005 .312 .193 C .312 .057000005 .24300003 .028 .199 .028 C .15600002 .028 .081 .045 .046000005 .104 C .081 .09900001 .11200001 .12100001 .11200001 .15900001 C .11200001 .19500001 .085 .215 .056 .215 C .031999999 .215 0 .201 0 .157 C 0 .06600001 .093 0 .20200002 0 C .32400004 0 .41500003 .091000009 .41500003 .193 C .41500003 .27500005 .35200004 .35300005 .24800003 .37400005 Z "/>
</symbol>
<use xlink:href="#font_0_4" transform="matrix(9.9626,0,0,-9.9626,164.02942,34.240205)"/>
<use xlink:href="#font_1_1" transform="matrix(9.9626,0,0,-9.9626,107.40999,7.7926027)"/>
<path transform="matrix(1,0,0,-1,107.141,11.932022)" stroke-width="1" stroke-linecap="butt" stroke-miterlimit="10" stroke-linejoin="miter" fill="none" stroke="#000000" d="M 0 0 L 6.036 0 "/>
<symbol id="font_0_3">
<path d="M .07700001 .07700001 L .18300002 .18 C .33900003 .31800003 .39900003 .372 .39900003 .47200004 C .39900003 .586 .30900003 .666 .18700002 .666 C .074 .666 0 .574 0 .485 C 0 .42900003 .05 .42900003 .053000008 .42900003 C .07000001 .42900003 .105000007 .441 .105000007 .48200003 C .105000007 .508 .08700001 .53400006 .052000006 .53400006 C .044000005 .53400006 .042000008 .53400006 .039 .53300008 C .062000004 .59800007 .11600001 .63500007 .17400001 .63500007 C .26500003 .63500007 .308 .554 .308 .47200004 C .308 .39200003 .25800003 .31300003 .20300003 .25100003 L .011000004 .037 C 0 .026 0 .024 0 0 L .37100003 0 L .39900003 .17400001 L .374 .17400001 C .36900003 .14400001 .36200003 .1 .352 .085 C .345 .07700001 .279 .07700001 .257 .07700001 L .07700001 .07700001 Z "/>
</symbol>
<use xlink:href="#font_0_3" transform="matrix(9.9626,0,0,-9.9626,108.16613,21.257019)"/>
<use xlink:href="#font_0_3" transform="matrix(9.9626,0,0,-9.9626,48.122129,19.636002)"/>
<use xlink:href="#font_1_1" transform="matrix(9.9626,0,0,-9.9626,52.873987,19.74559)"/>
<path transform="matrix(1,0,0,-1,47.623998,23.88501)" stroke-width="1" stroke-linecap="butt" stroke-miterlimit="10" stroke-linejoin="miter" fill="none" stroke="#000000" d="M 0 0 L 11.018 0 "/>
<use xlink:href="#font_0_4" transform="matrix(9.9626,0,0,-9.9626,51.060426,33.428178)"/>
<use xlink:href="#font_0_4" transform="matrix(9.9626,0,0,-9.9626,24.439425,37.99817)"/>
<use xlink:href="#font_1_1" transform="matrix(9.9626,0,0,-9.9626,29.270985,37.88858)"/>
<path transform="matrix(1,0,0,-1,24.020997,42.027986)" stroke-width="1" stroke-linecap="butt" stroke-miterlimit="10" stroke-linejoin="miter" fill="none" stroke="#000000" d="M 0 0 L 11.018 0 "/>
<use xlink:href="#font_0_5" transform="matrix(9.9626,0,0,-9.9626,27.31795,51.352998)"/>
<symbol id="font_0_6">
<path d="M .39900003 .223 C .39900003 .34200005 .317 .44200004 .209 .44200004 C .16100002 .44200004 .118000019 .42600004 .082 .39100004 L .082 .586 C .10200001 .58000007 .135 .573 .16700001 .573 C .29 .573 .36 .66400006 .36 .67700007 C .36 .683 .357 .688 .35 .688 C .349 .688 .347 .688 .342 .68500009 C .322 .67600008 .273 .656 .20600002 .656 C .16600001 .656 .120000008 .66300007 .073 .6840001 C .065 .68700006 .06300001 .68700006 .061000009 .68700006 C .051000004 .68700006 .051000004 .679 .051000004 .66300007 L .051000004 .36700005 C .051000004 .34900005 .051000004 .34100003 .065 .34100003 C .07200001 .34100003 .074 .34400005 .07800001 .35000003 C .08900002 .36600004 .12600002 .42000006 .207 .42000006 C .259 .42000006 .284 .37400005 .292 .35600005 C .308 .31900005 .31 .28000004 .31 .23 C .31 .19500001 .31 .135 .286 .093 C .262 .054000006 .22500001 .028 .17900002 .028 C .106000009 .028 .049000008 .08100001 .032 .14000002 C .035 .13900002 .038000008 .13800001 .049000008 .13800001 C .082 .13800001 .09900001 .163 .09900001 .187 C .09900001 .21100001 .082 .23600002 .049000008 .23600002 C .035 .23600002 0 .22900002 0 .18300002 C 0 .097 .069000009 0 .18100001 0 C .297 0 .39900003 .096 .39900003 .223 Z "/>
</symbol>
<use xlink:href="#font_0_6" transform="matrix(9.9626,0,0,-9.9626,7.4191286,62.204179)"/>
<use xlink:href="#font_1_1" transform="matrix(9.9626,0,0,-9.9626,12.170989,62.09459)"/>
<path transform="matrix(1,0,0,-1,6.9209988,66.23401)" stroke-width="1" stroke-linecap="butt" stroke-miterlimit="10" stroke-linejoin="miter" fill="none" stroke="#000000" d="M 0 0 L 11.018 0 "/>
<use xlink:href="#font_0_7" transform="matrix(9.9626,0,0,-9.9626,10.357429,75.777179)"/>
<use xlink:href="#font_1_1" transform="matrix(9.9626,0,0,-9.9626,3.6629875,124.23959)"/>
<symbol id="font_0_8">
<path d="M .42000003 .63100007 C .42900003 .64300009 .42900003 .64500007 .42900003 .66600009 L .18600002 .66600009 C .064 .66600009 .062000008 .679 .058000007 .6980001 L .033 .6980001 L 0 .49200005 L .024999999 .49200005 C .028000005 .508 .037 .57100006 .050000006 .58300009 C .057000005 .58900007 .13500002 .58900007 .148 .58900007 L .35500003 .58900007 C .344 .573 .26500003 .46400006 .24300003 .43100003 C .153 .29600004 .12000001 .157 .12000001 .055 C .12000001 .045 .12000001 0 .16600001 0 C .21200001 0 .21200001 .045 .21200001 .055 L .21200001 .106000009 C .21200001 .16100002 .21500004 .216 .22300002 .27 C .22700003 .29300005 .24100003 .37900005 .28500004 .44100005 L .42000003 .63100007 Z "/>
</symbol>
<use xlink:href="#font_0_8" transform="matrix(9.9626,0,0,-9.9626,7.4789044,175.05118)"/>
<use xlink:href="#font_1_1" transform="matrix(9.9626,0,0,-9.9626,12.170989,174.94159)"/>
<path transform="matrix(1,0,0,-1,6.9209988,179.082)" stroke-width="1" stroke-linecap="butt" stroke-miterlimit="10" stroke-linejoin="miter" fill="none" stroke="#000000" d="M 0 0 L 11.018 0 "/>
<use xlink:href="#font_0_7" transform="matrix(9.9626,0,0,-9.9626,10.357429,188.62519)"/>
<use xlink:href="#font_0_6" transform="matrix(9.9626,0,0,-9.9626,24.519127,199.2572)"/>
<use xlink:href="#font_1_1" transform="matrix(9.9626,0,0,-9.9626,29.270985,199.14762)"/>
<path transform="matrix(1,0,0,-1,24.020997,203.28702)" stroke-width="1" stroke-linecap="butt" stroke-miterlimit="10" stroke-linejoin="miter" fill="none" stroke="#000000" d="M 0 0 L 11.018 0 "/>
<use xlink:href="#font_0_5" transform="matrix(9.9626,0,0,-9.9626,27.31795,212.61202)"/>
<use xlink:href="#font_0_5" transform="matrix(9.9626,0,0,-9.9626,47.90295,217.181)"/>
<use xlink:href="#font_1_1" transform="matrix(9.9626,0,0,-9.9626,52.873987,217.29059)"/>
<path transform="matrix(1,0,0,-1,47.623998,221.431)" stroke-width="1" stroke-linecap="butt" stroke-miterlimit="10" stroke-linejoin="miter" fill="none" stroke="#000000" d="M 0 0 L 11.018 0 "/>
<use xlink:href="#font_0_4" transform="matrix(9.9626,0,0,-9.9626,51.060426,230.97418)"/>
<use xlink:href="#font_0_4" transform="matrix(9.9626,0,0,-9.9626,105.06842,229.35318)"/>
<use xlink:href="#font_1_1" transform="matrix(9.9626,0,0,-9.9626,109.89999,229.24359)"/>
<path transform="matrix(1,0,0,-1,104.649997,233.38301)" stroke-width="1" stroke-linecap="butt" stroke-miterlimit="10" stroke-linejoin="miter" fill="none" stroke="#000000" d="M 0 0 L 11.018 0 "/>
<use xlink:href="#font_0_3" transform="matrix(9.9626,0,0,-9.9626,108.16612,242.70801)"/>
<use xlink:href="#font_0_6" transform="matrix(9.9626,0,0,-9.9626,162.17511,217.40018)"/>
<use xlink:href="#font_1_1" transform="matrix(9.9626,0,0,-9.9626,166.92699,217.29059)"/>
<path transform="matrix(1,0,0,-1,161.67699,221.431)" stroke-width="1" stroke-linecap="butt" stroke-miterlimit="10" stroke-linejoin="miter" fill="none" stroke="#000000" d="M 0 0 L 11.018 0 "/>
<use xlink:href="#font_0_4" transform="matrix(9.9626,0,0,-9.9626,165.11342,230.97418)"/>
<use xlink:href="#font_0_8" transform="matrix(9.9626,0,0,-9.9626,185.8379,199.2572)"/>
<use xlink:href="#font_1_1" transform="matrix(9.9626,0,0,-9.9626,190.53,199.14762)"/>
<path transform="matrix(1,0,0,-1,185.28,203.28702)" stroke-width="1" stroke-linecap="butt" stroke-miterlimit="10" stroke-linejoin="miter" fill="none" stroke="#000000" d="M 0 0 L 11.018 0 "/>
<use xlink:href="#font_0_5" transform="matrix(9.9626,0,0,-9.9626,188.57695,212.61202)"/>
<symbol id="font_0_2">
<path d="M .205 .64000007 C .205 .66400006 .205 .666 .18200003 .666 C .120000008 .60200008 .032000007 .60200008 0 .60200008 L 0 .57100006 C .020000004 .57100006 .07900001 .57100006 .13100001 .597 L .13100001 .079 C .13100001 .043 .128 .031000002 .038000004 .031000002 L .0060000049 .031000002 L .0060000049 0 C .04100001 .003 .128 .003 .168 .003 C .20800002 .003 .29500003 .003 .33000005 0 L .33000005 .031000002 L .29800005 .031000002 C .20800002 .031000002 .205 .042000005 .205 .079 L .205 .64000007 Z "/>
</symbol>
<use xlink:href="#font_0_2" transform="matrix(9.9626,0,0,-9.9626,202.64368,175.91101)"/>
<use xlink:href="#font_0_2" transform="matrix(9.9626,0,0,-9.9626,207.62497,175.91101)"/>
<use xlink:href="#font_1_1" transform="matrix(9.9626,0,0,-9.9626,211.988,176.0206)"/>
<path transform="matrix(1,0,0,-1,201.757,180.16)" stroke-width="1" stroke-linecap="butt" stroke-miterlimit="10" stroke-linejoin="miter" fill="none" stroke="#000000" d="M 0 0 L 15.999 0 "/>
<use xlink:href="#font_0_7" transform="matrix(9.9626,0,0,-9.9626,207.68343,189.70418)"/>
<use xlink:href="#font_0_1" transform="matrix(9.9626,0,0,-9.9626,120.37154,118.61118)"/>
<symbol id="font_1_2">
<path d="M .106 .053000004 C .106 .082 .08200001 .106000009 .05300001 .106000009 C .024000004 .106000009 0 .082 0 .053000004 C 0 .024 .024000004 0 .05300001 0 C .08200001 0 .106 .024 .106 .053000004 Z "/>
</symbol>
<use xlink:href="#font_1_2" transform="matrix(9.9626,0,0,-9.9626,125.82078,118.392009)"/>
<use xlink:href="#font_0_6" transform="matrix(9.9626,0,0,-9.9626,128.23012,118.61118)"/>
<use xlink:href="#font_0_2" transform="matrix(9.9626,0,0,-9.9626,140.93367,118.392009)"/>
<use xlink:href="#font_0_2" transform="matrix(9.9626,0,0,-9.9626,153.24767,118.392009)"/>
<use xlink:href="#font_1_2" transform="matrix(9.9626,0,0,-9.9626,158.19977,118.392009)"/>
<use xlink:href="#font_0_6" transform="matrix(9.9626,0,0,-9.9626,160.60811,118.61118)"/>
<use xlink:href="#font_0_3" transform="matrix(9.9626,0,0,-9.9626,172.92311,118.392009)"/>
<use xlink:href="#font_0_3" transform="matrix(9.9626,0,0,-9.9626,185.23812,118.392009)"/>
<use xlink:href="#font_1_2" transform="matrix(9.9626,0,0,-9.9626,190.57778,118.392009)"/>
<use xlink:href="#font_0_6" transform="matrix(9.9626,0,0,-9.9626,192.98612,118.61118)"/>
</svg>
