<?xml version="1.0" encoding="UTF-8" standalone="no"?>
<!DOCTYPE svg PUBLIC "-//W3C//DTD SVG 1.1//EN" "http://www.w3.org/Graphics/SVG/1.1/DTD/svg11.dtd">
<svg xmlns="http://www.w3.org/2000/svg" xmlns:xlink="http://www.w3.org/1999/xlink" version="1.1" width="219.263pt" height="246.103pt" viewBox="0 0 219.263 246.103">
<path transform="matrix(1,0,0,-1,110.159,121.986)" stroke-width="1" stroke-linecap="butt" stroke-miterlimit="10" stroke-linejoin="miter" fill="none" stroke="#bfbfbf" d="M 0 0 L 97.1363 0 M 0 0 L 68.6858 68.6858 M 0 0 L 0 97.1363 M 0 0 L -68.6858 68.6858 M 0 0 L -97.1363 0 M 0 0 L -68.6858 -68.6858 M 0 0 L 0 -97.1363 M 0 0 L 68.6858 -68.6858 "/>
<path transform="matrix(1,0,0,-1,110.159,121.986)" stroke-width="1" stroke-linecap="butt" stroke-miterlimit="10" stroke-linejoin="miter" fill="none" stroke="#bfbfbf" d="M 22.07631 0 C 22.07631 12.19255 12.19255 22.07631 0 22.07631 C -12.19255 22.07631 -22.07631 12.19255 -22.07631 0 C -22.07631 -12.19255 -12.19255 -22.07631 0 -22.07631 C 12.19255 -22.07631 22.07631 -12.19255 22.07631 0 M 44.15262 0 C 44.15262 24.38512 24.38512 44.15262 0 44.15262 C -24.38512 44.15262 -44.15262 24.38512 -44.15262 0 C -44.15262 -24.38512 -24.38512 -44.15262 0 -44.15262 C 24.38512 -44.15262 44.15262 -24.38512 44.15262 0 M 66.22893 0 C 66.22893 36.57768 36.57768 66.22893 0 66.22893 C -36.57768 66.22893 -66.22893 36.57768 -66.22893 0 C -66.22893 -36.57768 -36.57768 -66.22893 0 -66.22893 C 36.57768 -66.22893 66.22893 -36.57768 66.22893 0 M 88.30524 0 C 88.30524 48.77026 48.77026 88.30524 0 88.30524 C -48.77026 88.30524 -88.30524 48.77026 -88.30524 0 C -88.30524 -48.77026 -48.77026 -88.30524 0 -88.30524 C 48.77026 -88.30524 88.30524 -48.77026 88.30524 0 "/>
<path transform="matrix(1,0,0,-1,110.159,121.986)" stroke-width="1" stroke-linecap="butt" stroke-miterlimit="10" stroke-linejoin="miter" fill="none" stroke="#808080" d="M 97.1363 0 L 101.38814 0 M 68.6858 68.6858 L 71.69229 71.69229 M 0 97.1363 L 0 101.38814 M -68.6858 68.6858 L -71.69229 71.69229 M -97.1363 0 L -101.38814 0 M -68.6858 -68.6858 L -71.69229 -71.69229 M 0 -97.1363 L 0 -101.38814 M 68.6858 -68.6858 L 71.69229 -71.69229 "/>
<path transform="matrix(1,0,0,-1,110.159,121.986)" stroke-width="1" stroke-linecap="butt" stroke-miterlimit="10" stroke-linejoin="miter" fill="none" stroke="#808080" d="M 22.07631 0 L 22.07631 4.25183 M 44.15262 0 L 44.15262 4.25183 M 66.22893 0 L 66.22893 4.25183 M 88.30524 0 L 88.30524 4.25183 "/>
<path transform="matrix(1,0,0,-1,110.159,121.986)" stroke-width="1" stroke-linecap="butt" stroke-miterlimit="10" stroke-linejoin="miter" fill="none" stroke="#000000" d="M 0 0 L 0 0 "/>
<path transform="matrix(1,0,0,-1,110.159,121.986)" stroke-width="1" stroke-linecap="butt" stroke-miterlimit="10" stroke-linejoin="miter" fill="none" stroke="#000000" d="M 97.1363 0 C 97.1363 53.64758 53.64758 97.1363 0 97.1363 C -53.64758 97.1363 -97.1363 53.64758 -97.1363 0 C -97.1363 -53.64758 -53.64758 -97.1363 0 -97.1363 C 53.64758 -97.1363 97.1363 -53.64758 97.1363 0 "/>
<path transform="matrix(1,0,0,-1,110.159,121.986)" stroke-width="1" stroke-linecap="butt" stroke-miterlimit="10" stroke-linejoin="miter" fill="none" stroke="#000000" d="M 0 0 L 97.1363 0 "/>
<path transform="matrix(1,0,0,-1,110.159,121.986)" stroke-width="1" stroke-linecap="butt" stroke-miterlimit="10" stroke-linejoin="miter" fill="none" stroke="#000000" d="M 0 0 L 97.1363 0 "/>
<symbol id="font_0_1">
<path d="M .421 .34200005 C .421 .42200003 .416 .50200006 .381 .57600006 C .335 .67200008 .25300003 .688 .211 .688 C .15100001 .688 .07800001 .66200008 .037000006 .56900009 C .0050000029 .5 0 .42200003 0 .34200005 C 0 .26700003 .0040000008 .177 .045000007 .101 C .088 .020000002 .161 0 .21000001 0 C .264 0 .34 .021000002 .384 .116000007 C .416 .185 .421 .263 .421 .34200005 M .21000001 .022000002 C .171 .022000002 .112 .047000003 .094 .143 C .083000008 .20300001 .083000008 .29500003 .083000008 .35400004 C .083000008 .41800005 .083000008 .48400004 .091000009 .53800007 C .11 .65700009 .185 .66600009 .21000001 .66600009 C .243 .66600009 .30900003 .64800009 .328 .549 C .338 .49300004 .338 .41700004 .338 .35400004 C .338 .279 .338 .21100001 .32700003 .147 C .312 .052 .255 .022000002 .21000001 .022000002 Z "/>
</symbol>
<use xlink:href="#font_0_1" transform="matrix(9.9626,0,0,-9.9626,211.27654,125.41518)"/>
<symbol id="font_1_1">
<path d="M .23800002 .38400004 L .351 .38400004 C .31800003 .23600002 .30900003 .19300002 .30900003 .126 C .30900003 .111 .30900003 .08400001 .317 .05 C .327 .0060000007 .338 0 .35300002 0 C .373 0 .39400003 .018000002 .39400003 .038000004 C .39400003 .044 .39400003 .046 .388 .060000004 C .359 .13200002 .359 .19700001 .359 .22500003 C .359 .27800004 .366 .33200003 .377 .38400004 L .491 .38400004 C .504 .38400004 .54 .38400004 .54 .418 C .54 .44200004 .519 .44200004 .5 .44200004 L .165 .44200004 C .143 .44200004 .105 .44200004 .061000006 .395 C .026000003 .35600005 0 .31000004 0 .305 C 0 .30400003 0 .29500003 .012 .29500003 C .020000002 .29500003 .022000002 .29900003 .028000003 .307 C .077 .38400004 .135 .38400004 .15500002 .38400004 L .21200001 .38400004 C .18000002 .263 .12600002 .14200002 .08400001 .051000004 C .076000008 .036000004 .076000008 .034 .076000008 .027000003 C .076000008 .008000001 .092 0 .105 0 C .135 0 .143 .028 .15500002 .065000008 C .16900002 .111 .16900002 .113000009 .18200001 .16300002 L .23800002 .38400004 Z "/>
</symbol>
<use xlink:href="#font_1_1" transform="matrix(9.9626,0,0,-9.9626,186.262,38.601594)"/>
<path transform="matrix(1,0,0,-1,185.993,42.742006)" stroke-width="1" stroke-linecap="butt" stroke-miterlimit="10" stroke-linejoin="miter" fill="none" stroke="#000000" d="M 0 0 L 6.036 0 "/>
<symbol id="font_0_5">
<path d="M .266 .165 L .266 .078 C .266 .042000005 .26400004 .031000002 .19000001 .031000002 L .16900002 .031000002 L .16900002 0 C .21000001 .003 .26200003 .003 .30400003 .003 C .34600003 .003 .39900003 .003 .44000004 0 L .44000004 .031000002 L .41900004 .031000002 C .34500004 .031000002 .34300003 .042000005 .34300003 .078 L .34300003 .165 L .44300003 .165 L .44300003 .19600001 L .34300003 .19600001 L .34300003 .651 C .34300003 .671 .34300003 .67700007 .32700003 .67700007 C .31800003 .67700007 .31500004 .67700007 .307 .665 L 0 .19600001 L 0 .165 L .266 .165 M .272 .19600001 L .028 .19600001 L .272 .569 L .272 .19600001 Z "/>
</symbol>
<use xlink:href="#font_0_5" transform="matrix(9.9626,0,0,-9.9626,186.79895,52.065996)"/>
<use xlink:href="#font_1_1" transform="matrix(9.9626,0,0,-9.9626,107.40999,7.793579)"/>
<path transform="matrix(1,0,0,-1,107.141,11.932999)" stroke-width="1" stroke-linecap="butt" stroke-miterlimit="10" stroke-linejoin="miter" fill="none" stroke="#000000" d="M 0 0 L 6.036 0 "/>
<symbol id="font_0_3">
<path d="M .07700001 .07700001 L .18300002 .18 C .33900003 .31800003 .39900003 .372 .39900003 .47200004 C .39900003 .586 .30900003 .666 .18700002 .666 C .074 .666 0 .574 0 .485 C 0 .42900003 .05 .42900003 .053000008 .42900003 C .07000001 .42900003 .105000007 .441 .105000007 .48200003 C .105000007 .508 .08700001 .53400006 .052000006 .53400006 C .044000005 .53400006 .042000008 .53400006 .039 .53300008 C .062000004 .59800007 .11600001 .63500007 .17400001 .63500007 C .26500003 .63500007 .308 .554 .308 .47200004 C .308 .39200003 .25800003 .31300003 .20300003 .25100003 L .011000004 .037 C 0 .026 0 .024 0 0 L .37100003 0 L .39900003 .17400001 L .374 .17400001 C .36900003 .14400001 .36200003 .1 .352 .085 C .345 .07700001 .279 .07700001 .257 .07700001 L .07700001 .07700001 Z "/>
</symbol>
<use xlink:href="#font_0_3" transform="matrix(9.9626,0,0,-9.9626,108.16713,21.257004)"/>
<symbol id="font_0_4">
<path d="M .24800003 .37400005 C .33 .40100003 .388 .47100006 .388 .55 C .388 .632 .3 .688 .204 .688 C .10300001 .688 .027000003 .628 .027000003 .55200007 C .027000003 .519 .049000004 .5 .078 .5 C .109000008 .5 .12900001 .522 .12900001 .55100008 C .12900001 .6010001 .082 .6010001 .067 .6010001 C .098 .65000006 .164 .66300007 .20000002 .66300007 C .24100003 .66300007 .29600004 .64100006 .29600004 .55100008 C .29600004 .53900006 .29400004 .48100005 .268 .43700005 C .238 .38900004 .204 .38600005 .17900002 .38500003 C .171 .38400004 .14700002 .38200004 .14000002 .38200004 C .132 .38100005 .125 .38000003 .125 .37000004 C .125 .35900004 .132 .35900004 .14900002 .35900004 L .19300002 .35900004 C .275 .35900004 .312 .29100005 .312 .193 C .312 .057000005 .24300003 .028 .199 .028 C .15600002 .028 .081 .045 .046000005 .104 C .081 .09900001 .11200001 .12100001 .11200001 .15900001 C .11200001 .19500001 .085 .215 .056 .215 C .031999999 .215 0 .201 0 .157 C 0 .06600001 .093 0 .20200002 0 C .32400004 0 .41500003 .091000009 .41500003 .193 C .41500003 .27500005 .35200004 .35300005 .24800003 .37400005 Z "/>
</symbol>
<use xlink:href="#font_0_4" transform="matrix(9.9626,0,0,-9.9626,24.439425,37.999177)"/>
<use xlink:href="#font_1_1" transform="matrix(9.9626,0,0,-9.9626,29.270985,37.889589)"/>
<path transform="matrix(1,0,0,-1,24.020997,42.02899)" stroke-width="1" stroke-linecap="butt" stroke-miterlimit="10" stroke-linejoin="miter" fill="none" stroke="#000000" d="M 0 0 L 11.018 0 "/>
<use xlink:href="#font_0_5" transform="matrix(9.9626,0,0,-9.9626,27.31795,51.352998)"/>
<use xlink:href="#font_1_1" transform="matrix(9.9626,0,0,-9.9626,3.6629875,124.240589)"/>
<symbol id="font_0_6">
<path d="M .39900003 .223 C .39900003 .34200005 .317 .44200004 .209 .44200004 C .16100002 .44200004 .118000019 .42600004 .082 .39100004 L .082 .586 C .10200001 .58000007 .135 .573 .16700001 .573 C .29 .573 .36 .66400006 .36 .67700007 C .36 .683 .357 .688 .35 .688 C .349 .688 .347 .688 .342 .68500009 C .322 .67600008 .273 .656 .20600002 .656 C .16600001 .656 .120000008 .66300007 .073 .6840001 C .065 .68700006 .06300001 .68700006 .061000009 .68700006 C .051000004 .68700006 .051000004 .679 .051000004 .66300007 L .051000004 .36700005 C .051000004 .34900005 .051000004 .34100003 .065 .34100003 C .07200001 .34100003 .074 .34400005 .07800001 .35000003 C .08900002 .36600004 .12600002 .42000006 .207 .42000006 C .259 .42000006 .284 .37400005 .292 .35600005 C .308 .31900005 .31 .28000004 .31 .23 C .31 .19500001 .31 .135 .286 .093 C .262 .054000006 .22500001 .028 .17900002 .028 C .106000009 .028 .049000008 .08100001 .032 .14000002 C .035 .13900002 .038000008 .13800001 .049000008 .13800001 C .082 .13800001 .09900001 .163 .09900001 .187 C .09900001 .21100001 .082 .23600002 .049000008 .23600002 C .035 .23600002 0 .22900002 0 .18300002 C 0 .097 .069000009 0 .18100001 0 C .297 0 .39900003 .096 .39900003 .223 Z "/>
</symbol>
<use xlink:href="#font_0_6" transform="matrix(9.9626,0,0,-9.9626,24.519127,199.25818)"/>
<use xlink:href="#font_1_1" transform="matrix(9.9626,0,0,-9.9626,29.270985,199.14859)"/>
<path transform="matrix(1,0,0,-1,24.020997,203.288)" stroke-width="1" stroke-linecap="butt" stroke-miterlimit="10" stroke-linejoin="miter" fill="none" stroke="#000000" d="M 0 0 L 11.018 0 "/>
<use xlink:href="#font_0_5" transform="matrix(9.9626,0,0,-9.9626,27.31795,212.61299)"/>
<use xlink:href="#font_0_4" transform="matrix(9.9626,0,0,-9.9626,105.06842,229.35417)"/>
<use xlink:href="#font_1_1" transform="matrix(9.9626,0,0,-9.9626,109.900989,229.24459)"/>
<path transform="matrix(1,0,0,-1,104.649997,233.384)" stroke-width="1" stroke-linecap="butt" stroke-miterlimit="10" stroke-linejoin="miter" fill="none" stroke="#000000" d="M 0 0 L 11.018 0 "/>
<use xlink:href="#font_0_3" transform="matrix(9.9626,0,0,-9.9626,108.16712,242.709)"/>
<symbol id="font_0_7">
<path d="M .42000003 .63100007 C .42900003 .64300009 .42900003 .64500007 .42900003 .66600009 L .18600002 .66600009 C .064 .66600009 .062000008 .679 .058000007 .6980001 L .033 .6980001 L 0 .49200005 L .024999999 .49200005 C .028000005 .508 .037 .57100006 .050000006 .58300009 C .057000005 .58900007 .13500002 .58900007 .148 .58900007 L .35500003 .58900007 C .344 .573 .26500003 .46400006 .24300003 .43100003 C .153 .29600004 .12000001 .157 .12000001 .055 C .12000001 .045 .12000001 0 .16600001 0 C .21200001 0 .21200001 .045 .21200001 .055 L .21200001 .106000009 C .21200001 .16100002 .21500004 .216 .22300002 .27 C .22700003 .29300005 .24100003 .37900005 .28500004 .44100005 L .42000003 .63100007 Z "/>
</symbol>
<use xlink:href="#font_0_7" transform="matrix(9.9626,0,0,-9.9626,185.8379,199.25818)"/>
<use xlink:href="#font_1_1" transform="matrix(9.9626,0,0,-9.9626,190.53,199.14859)"/>
<path transform="matrix(1,0,0,-1,185.28,203.288)" stroke-width="1" stroke-linecap="butt" stroke-miterlimit="10" stroke-linejoin="miter" fill="none" stroke="#000000" d="M 0 0 L 11.018 0 "/>
<use xlink:href="#font_0_5" transform="matrix(9.9626,0,0,-9.9626,188.57695,212.61299)"/>
<use xlink:href="#font_0_1" transform="matrix(9.9626,0,0,-9.9626,123.76854,118.612178)"/>
<symbol id="font_1_2">
<path d="M .106 .053000004 C .106 .082 .08200001 .106000009 .05300001 .106000009 C .024000004 .106000009 0 .082 0 .053000004 C 0 .024 .024000004 0 .05300001 0 C .08200001 0 .106 .024 .106 .053000004 Z "/>
</symbol>
<use xlink:href="#font_1_2" transform="matrix(9.9626,0,0,-9.9626,129.21778,118.393)"/>
<use xlink:href="#font_0_3" transform="matrix(9.9626,0,0,-9.9626,131.62612,118.393)"/>
<use xlink:href="#font_0_6" transform="matrix(9.9626,0,0,-9.9626,136.6074,118.612178)"/>
<use xlink:href="#font_0_1" transform="matrix(9.9626,0,0,-9.9626,148.33454,118.612178)"/>
<use xlink:href="#font_1_2" transform="matrix(9.9626,0,0,-9.9626,153.78478,118.393)"/>
<use xlink:href="#font_0_6" transform="matrix(9.9626,0,0,-9.9626,156.19312,118.612178)"/>
<use xlink:href="#font_0_1" transform="matrix(9.9626,0,0,-9.9626,167.92053,118.612178)"/>
<use xlink:href="#font_1_2" transform="matrix(9.9626,0,0,-9.9626,173.36978,118.393)"/>
<use xlink:href="#font_0_7" transform="matrix(9.9626,0,0,-9.9626,175.8379,118.612178)"/>
<use xlink:href="#font_0_6" transform="matrix(9.9626,0,0,-9.9626,180.75942,118.612178)"/>
<symbol id="font_0_2">
<path d="M .205 .64000007 C .205 .66400006 .205 .666 .18200003 .666 C .120000008 .60200008 .032000007 .60200008 0 .60200008 L 0 .57100006 C .020000004 .57100006 .07900001 .57100006 .13100001 .597 L .13100001 .079 C .13100001 .043 .128 .031000002 .038000004 .031000002 L .0060000049 .031000002 L .0060000049 0 C .04100001 .003 .128 .003 .168 .003 C .20800002 .003 .29500003 .003 .33000005 0 L .33000005 .031000002 L .29800005 .031000002 C .20800002 .031000002 .205 .042000005 .205 .079 L .205 .64000007 Z "/>
</symbol>
<use xlink:href="#font_0_2" transform="matrix(9.9626,0,0,-9.9626,196.85967,118.393)"/>
<clipPath id="cp2">
<path transform="matrix(1,0,0,-1,110.159,121.986)" d="M 97.1363 0 C 97.1363 53.64758 53.64758 97.1363 0 97.1363 C -53.64758 97.1363 -97.1363 53.64758 -97.1363 0 C -97.1363 -53.64758 -53.64758 -97.1363 0 -97.1363 C 53.64758 -97.1363 97.1363 -53.64758 97.1363 0 "/>
</clipPath>
<g clip-path="url(#cp2)">
<path transform="matrix(1,0,0,-1,110.159,121.986)" stroke-width="1.19553" stroke-linecap="butt" stroke-miterlimit="10" stroke-linejoin="miter" fill="none" stroke="#000080" d="M 88.30524 0 C 88.30524 0 88.20042 2.02367 88.07628 2.79416 C 87.95212 3.56465 87.65541 4.79765 87.41042 5.55325 C 87.16542 6.30885 86.67535 7.50955 86.31042 8.24005 C 85.9455 8.97057 85.26216 10.12271 84.78029 10.81825 C 84.29842 11.5138 83.43196 12.60158 82.8374 13.253 C 82.24283 13.90442 81.19853 14.91542 80.49498 15.51332 C 79.79144 16.11124 78.57233 17.02646 77.76671 17.56236 C 76.96107 18.09828 75.58958 18.90929 74.68848 19.37592 C 73.78738 19.84254 72.26187 20.53572 71.27217 20.92552 C 70.28247 21.3153 68.62476 21.87889 67.55542 22.18536 C 66.48608 22.49184 64.70651 22.91728 63.56511 23.13437 C 62.42369 23.35144 60.53299 23.62732 59.32889 23.75006 C 58.12479 23.8728 56.14296 23.99416 54.8867 24.01904 C 53.63045 24.04393 51.57327 24.00574 50.27461 23.92952 C 48.97595 23.8533 46.8575 23.64915 45.52686 23.4696 C 44.19623 23.29004 42.03632 22.9195 40.68428 22.63538 C 39.33226 22.35124 37.1452 21.81073 35.78226 21.42174 C 34.41931 21.03275 32.22394 20.32446 30.86104 19.83176 C 29.49814 19.33907 27.31152 18.46533 25.95935 17.87068 C 24.60718 17.27602 22.44638 16.23961 21.1155 15.54584 C 19.7846 14.85207 17.66669 13.65938 16.36723 12.87035 C 15.06778 12.08133 13.0083 10.73894 11.74992 9.85904 C 10.49155 8.97913 8.50548 7.49374 7.29764 6.5286 C 6.0898 5.56343 4.1929 3.94656 3.04459 2.9028 C 1.89627 1.85902 .1018 .1209 -.97868 -.99425 C -2.05917 -2.1094 -3.7377 -3.95576 -4.74295 -5.1345 C -5.7482 -6.31325 -7.30037 -8.25572 -8.22383 -9.48985 C -9.14731 -10.724 -10.56334 -12.74916 -11.39876 -14.02937 C -12.23416 -15.30957 -13.50267 -17.40012 -14.24496 -18.71669 C -14.98726 -20.03325 -16.1038 -22.17546 -16.74875 -23.51831 C -17.39368 -24.86115 -18.34921 -27.03642 -18.89317 -28.39496 C -19.43715 -29.75351 -20.22803 -31.94534 -20.66931 -33.30972 C -21.1106 -34.67409 -21.7369 -36.86957 -22.07365 -38.22849 C -22.41043 -39.5874 -22.8648 -41.76138 -23.09659 -43.10391 C -23.32837 -44.44644 -23.61618 -46.58855 -23.74423 -47.90457 C -23.8723 -49.2206 -23.99399 -51.31027 -24.01959 -52.58887 C -24.0452 -53.86746 -24.00291 -55.8882 -23.92885 -57.11987 C -23.85478 -58.35156 -23.65582 -60.2917 -23.48576 -61.46603 C -23.31569 -62.64035 -22.96535 -64.47726 -22.70311 -65.58362 C -22.44087 -66.68997 -21.94435 -68.4092 -21.59566 -69.43997 C -21.24698 -70.47073 -20.61876 -72.06607 -20.19 -73.0128 C -19.76125 -73.95953 -19.00764 -75.40898 -18.5054 -76.26346 C -18.00316 -77.11792 -17.13786 -78.41518 -16.5701 -79.17126 C -16.00233 -79.92734 -15.03886 -81.06311 -14.41327 -81.71281 C -13.78766 -82.36252 -12.7358 -83.31554 -12.06111 -83.85393 C -11.38641 -84.39232 -10.26462 -85.16916 -9.55049 -85.59319 C -8.83638 -86.01721 -7.65834 -86.60464 -6.9142 -86.91011 C -6.17006 -87.21558 -4.95152 -87.60991 -4.18726 -87.79486 C -3.42299 -87.97983 -2.18028 -88.18076 -1.40591 -88.24321 C -.63156 -88.30565 .61945 -88.30699 1.39383 -88.24496 C 2.16821 -88.18294 3.411 -87.98045 4.17532 -87.79617 C 4.93965 -87.6119 6.1586 -87.22145 6.90265 -86.91672 C 7.6467 -86.61197 8.82388 -86.02368 9.53795 -85.59976 C 10.252 -85.17584 11.37419 -84.39919 12.04907 -83.86133 C 12.72394 -83.32347 13.776 -82.37254 14.40198 -81.72319 C 15.02797 -81.07382 15.99278 -79.93672 16.5608 -79.18112 C 17.12881 -78.42552 17.99341 -77.1313 18.49593 -76.27731 C 18.99844 -75.42332 19.75334 -73.9724 20.18265 -73.02618 C 20.61194 -72.07996 21.24106 -70.4877 21.59013 -69.45764 C 21.9392 -68.42757 22.43591 -66.7084 22.69849 -65.60205 C 22.96107 -64.4957 23.312 -62.65756 23.4827 -61.48369 C 23.6534 -60.30983 23.85425 -58.37267 23.9288 -57.14159 C 24.00336 -55.91049 24.04535 -53.8896 24.0201 -52.61086 C 23.99484 -51.33212 23.87433 -49.24127 23.74673 -47.92522 C 23.61913 -46.60916 23.3317 -44.46799 23.1003 -43.12561 C 22.8689 -41.78322 22.41513 -39.60913 22.07887 -38.25021 C 21.74261 -36.89128 21.11772 -34.69603 20.67677 -33.33145 C 20.23582 -31.96687 19.44438 -29.77386 18.90074 -28.4152 C 18.35712 -27.05656 17.40292 -24.88208 16.75853 -23.5392 C 16.11414 -22.19633 14.99814 -20.05331 14.25635 -18.73676 C 13.51456 -17.42018 12.24701 -15.33034 11.41214 -14.05022 C 10.57726 -12.77011 9.16211 -10.7449 8.23909 -9.51057 C 7.31607 -8.27626 5.76465 -6.33319 4.75958 -5.15396 C 3.75452 -3.97473 2.07541 -2.12686 .99524 -1.0114 C -.08493 .10405 -1.87776 1.84155 -3.02559 2.8855 C -4.17343 3.92943 -6.06999 5.547 -7.27765 6.51254 C -8.4853 7.4781 -10.4714 8.9642 -11.7296 9.84456 C -12.9878 10.72493 -15.04645 12.06801 -16.34589 12.8576 C -17.64532 13.64719 -19.76413 14.84122 -21.09502 15.53543 C -22.4259 16.22964 -24.5861 17.26602 -25.93805 17.86102 C -27.29 18.45602 -29.47623 19.33072 -30.83893 19.82382 C -32.20161 20.31694 -34.39642 21.0257 -35.75938 21.41505 C -37.12233 21.8044 -39.30994 22.34541 -40.66222 22.63004 C -42.0145 22.91466 -44.17502 23.28651 -45.50569 23.46654 C -46.83636 23.64656 -48.95401 23.85081 -50.25287 23.92757 C -51.55173 24.00433 -53.61041 24.04424 -54.86697 24.01984 C -56.12354 23.99544 -58.10518 23.874 -59.3094 23.75163 C -60.51363 23.62927 -62.40456 23.35454 -63.54623 23.13792 C -64.68793 22.92131 -66.46844 22.49658 -67.53792 22.19044 C -68.60739 21.88431 -70.26451 21.3208 -71.25435 20.93147 C -72.2442 20.54214 -73.77032 19.85063 -74.67212 19.38437 C -75.57393 18.9181 -76.94757 18.1069 -77.75394 17.57097 C -78.56029 17.03503 -79.77994 16.11916 -80.48381 15.52165 C -81.18768 14.92415 -82.23203 13.9156 -82.827 13.26454 C -83.42197 12.61346 -84.2896 11.52466 -84.77199 10.8291 C -85.25438 10.13356 -85.93861 8.98164 -86.30383 8.25146 C -86.66904 7.52127 -87.15884 6.3219 -87.4042 5.56639 C -87.64957 4.81088 -87.94768 3.57683 -88.07227 2.80618 C -88.19684 2.03554 -88.30212 .0121 -88.30212 .0121 "/>
</g>
</svg>
