<?xml version="1.0" encoding="UTF-8" standalone="no"?>
<!DOCTYPE svg PUBLIC "-//W3C//DTD SVG 1.1//EN" "http://www.w3.org/Graphics/SVG/1.1/DTD/svg11.dtd">
<svg xmlns="http://www.w3.org/2000/svg" xmlns:xlink="http://www.w3.org/1999/xlink" version="1.1" width="219.263pt" height="246.103pt" viewBox="0 0 219.263 246.103">
<path transform="matrix(1,0,0,-1,110.159,121.986)" stroke-width="1" stroke-linecap="butt" stroke-miterlimit="10" stroke-linejoin="miter" fill="none" stroke="#bfbfbf" d="M 0 0 L 97.1363 0 M 0 0 L 68.6858 68.6858 M 0 0 L 0 97.1363 M 0 0 L -68.6858 68.6858 M 0 0 L -97.1363 0 M 0 0 L -68.6858 -68.6858 M 0 0 L 0 -97.1363 M 0 0 L 68.6858 -68.6858 "/>
<path transform="matrix(1,0,0,-1,110.159,121.986)" stroke-width="1" stroke-linecap="butt" stroke-miterlimit="10" stroke-linejoin="miter" fill="none" stroke="#bfbfbf" d="M 22.07631 0 C 22.07631 12.19255 12.19255 22.07631 0 22.07631 C -12.19255 22.07631 -22.07631 12.19255 -22.07631 0 C -22.07631 -12.19255 -12.19255 -22.07631 0 -22.07631 C 12.19255 -22.07631 22.07631 -12.19255 22.07631 0 M 44.15262 0 C 44.15262 24.38512 24.38512 44.15262 0 44.15262 C -24.38512 44.15262 -44.15262 24.38512 -44.15262 0 C -44.15262 -24.38512 -24.38512 -44.15262 0 -44.15262 C 24.38512 -44.15262 44.15262 -24.38512 44.15262 0 M 66.22893 0 C 66.22893 36.57768 36.57768 66.22893 0 66.22893 C -36.57768 66.22893 -66.22893 36.57768 -66.22893 0 C -66.22893 -36.57768 -36.57768 -66.22893 0 -66.22893 C 36.57768 -66.22893 66.22893 -36.57768 66.22893 0 M 88.30524 0 C 88.30524 48.77026 48.77026 88.30524 0 88.30524 C -48.77026 88.30524 -88.30524 48.77026 -88.30524 0 C -88.30524 -48.77026 -48.77026 -88.30524 0 -88.30524 C 48.77026 -88.30524 88.30524 -48.77026 88.30524 0 "/>
<path transform="matrix(1,0,0,-1,110.159,121.986)" stroke-width="1" stroke-linecap="butt" stroke-miterlimit="10" stroke-linejoin="miter" fill="none" stroke="#808080" d="M 97.1363 0 L 101.38814 0 M 68.6858 68.6858 L 71.69229 71.69229 M 0 97.1363 L 0 101.38814 M -68.6858 68.6858 L -71.69229 71.69229 M -97.1363 0 L -101.38814 0 M -68.6858 -68.6858 L -71.69229 -71.69229 M 0 -97.1363 L 0 -101.38814 M 68.6858 -68.6858 L 71.69229 -71.69229 "/>
<path transform="matrix(1,0,0,-1,110.159,121.986)" stroke-width="1" stroke-linecap="butt" stroke-miterlimit="10" stroke-linejoin="miter" fill="none" stroke="#808080" d="M 22.07631 0 L 22.07631 4.25183 M 44.15262 0 L 44.15262 4.25183 M 66.22893 0 L 66.22893 4.25183 M 88.30524 0 L 88.30524 4.25183 "/>
<path transform="matrix(1,0,0,-1,110.159,121.986)" stroke-width="1" stroke-linecap="butt" stroke-miterlimit="10" stroke-linejoin="miter" fill="none" stroke="#000000" d="M 0 0 L 0 0 "/>
<path transform="matrix(1,0,0,-1,110.159,121.986)" stroke-width="1" stroke-linecap="butt" stroke-miterlimit="10" stroke-linejoin="miter" fill="none" stroke="#000000" d="M 97.1363 0 C 97.1363 53.64758 53.64758 97.1363 0 97.1363 C -53.64758 97.1363 -97.1363 53.64758 -97.1363 0 C -97.1363 -53.64758 -53.64758 -97.1363 0 -97.1363 C 53.64758 -97.1363 97.1363 -53.64758 97.1363 0 "/>
<path transform="matrix(1,0,0,-1,110.159,121.986)" stroke-width="1" stroke-linecap="butt" stroke-miterlimit="10" stroke-linejoin="miter" fill="none" stroke="#000000" d="M 0 0 L 97.1363 0 "/>
<path transform="matrix(1,0,0,-1,110.159,121.986)" stroke-width="1" stroke-linecap="butt" stroke-miterlimit="10" stroke-linejoin="miter" fill="none" stroke="#000000" d="M 0 0 L 97.1363 0 "/>
<symbol id="font_0_1">
<path d="M .421 .34200005 C .421 .42200003 .416 .50200006 .381 .57600006 C .335 .67200008 .25300003 .688 .211 .688 C .15100001 .688 .07800001 .66200008 .037000006 .56900009 C .0050000029 .5 0 .42200003 0 .34200005 C 0 .26700003 .0040000008 .177 .045000007 .101 C .088 .020000002 .161 0 .21000001 0 C .264 0 .34 .021000002 .384 .116000007 C .416 .185 .421 .263 .421 .34200005 M .21000001 .022000002 C .171 .022000002 .112 .047000003 .094 .143 C .083000008 .20300001 .083000008 .29500003 .083000008 .35400004 C .083000008 .41800005 .083000008 .48400004 .091000009 .53800007 C .11 .65700009 .185 .66600009 .21000001 .66600009 C .243 .66600009 .30900003 .64800009 .328 .549 C .338 .49300004 .338 .41700004 .338 .35400004 C .338 .279 .338 .21100001 .32700003 .147 C .312 .052 .255 .022000002 .21000001 .022000002 Z "/>
</symbol>
<use xlink:href="#font_0_1" transform="matrix(9.9626,0,0,-9.9626,211.27654,125.41518)"/>
<symbol id="font_1_1">
<path d="M .23800002 .38400004 L .351 .38400004 C .31800003 .23600002 .30900003 .19300002 .30900003 .126 C .30900003 .111 .30900003 .08400001 .317 .05 C .327 .0060000007 .338 0 .35300002 0 C .373 0 .39400003 .018000002 .39400003 .038000004 C .39400003 .044 .39400003 .046 .388 .060000004 C .359 .13200002 .359 .19700001 .359 .22500003 C .359 .27800004 .366 .33200003 .377 .38400004 L .491 .38400004 C .504 .38400004 .54 .38400004 .54 .418 C .54 .44200004 .519 .44200004 .5 .44200004 L .165 .44200004 C .143 .44200004 .105 .44200004 .061000006 .395 C .026000003 .35600005 0 .31000004 0 .305 C 0 .30400003 0 .29500003 .012 .29500003 C .020000002 .29500003 .022000002 .29900003 .028000003 .307 C .077 .38400004 .135 .38400004 .15500002 .38400004 L .21200001 .38400004 C .18000002 .263 .12600002 .14200002 .08400001 .051000004 C .076000008 .036000004 .076000008 .034 .076000008 .027000003 C .076000008 .008000001 .092 0 .105 0 C .135 0 .143 .028 .15500002 .065000008 C .16900002 .111 .16900002 .113000009 .18200001 .16300002 L .23800002 .38400004 Z "/>
</symbol>
<use xlink:href="#font_1_1" transform="matrix(9.9626,0,0,-9.9626,186.262,38.601594)"/>
<path transform="matrix(1,0,0,-1,185.993,42.742006)" stroke-width="1" stroke-linecap="butt" stroke-miterlimit="10" stroke-linejoin="miter" fill="none" stroke="#000000" d="M 0 0 L 6.036 0 "/>
<symbol id="font_0_5">
<path d="M .266 .165 L .266 .078 C .266 .042000005 .26400004 .031000002 .19000001 .031000002 L .16900002 .031000002 L .16900002 0 C .21000001 .003 .26200003 .003 .30400003 .003 C .34600003 .003 .39900003 .003 .44000004 0 L .44000004 .031000002 L .41900004 .031000002 C .34500004 .031000002 .34300003 .042000005 .34300003 .078 L .34300003 .165 L .44300003 .165 L .44300003 .19600001 L .34300003 .19600001 L .34300003 .651 C .34300003 .671 .34300003 .67700007 .32700003 .67700007 C .31800003 .67700007 .31500004 .67700007 .307 .665 L 0 .19600001 L 0 .165 L .266 .165 M .272 .19600001 L .028 .19600001 L .272 .569 L .272 .19600001 Z "/>
</symbol>
<use xlink:href="#font_0_5" transform="matrix(9.9626,0,0,-9.9626,186.79895,52.065996)"/>
<use xlink:href="#font_1_1" transform="matrix(9.9626,0,0,-9.9626,107.40999,7.793579)"/>
<path transform="matrix(1,0,0,-1,107.141,11.932999)" stroke-width="1" stroke-linecap="butt" stroke-miterlimit="10" stroke-linejoin="miter" fill="none" stroke="#000000" d="M 0 0 L 6.036 0 "/>
<symbol id="font_0_3">
<path d="M .07700001 .07700001 L .18300002 .18 C .33900003 .31800003 .39900003 .372 .39900003 .47200004 C .39900003 .586 .30900003 .666 .18700002 .666 C .074 .666 0 .574 0 .485 C 0 .42900003 .05 .42900003 .053000008 .42900003 C .07000001 .42900003 .105000007 .441 .105000007 .48200003 C .105000007 .508 .08700001 .53400006 .052000006 .53400006 C .044000005 .53400006 .042000008 .53400006 .039 .53300008 C .062000004 .59800007 .11600001 .63500007 .17400001 .63500007 C .26500003 .63500007 .308 .554 .308 .47200004 C .308 .39200003 .25800003 .31300003 .20300003 .25100003 L .011000004 .037 C 0 .026 0 .024 0 0 L .37100003 0 L .39900003 .17400001 L .374 .17400001 C .36900003 .14400001 .36200003 .1 .352 .085 C .345 .07700001 .279 .07700001 .257 .07700001 L .07700001 .07700001 Z "/>
</symbol>
<use xlink:href="#font_0_3" transform="matrix(9.9626,0,0,-9.9626,108.16713,21.257004)"/>
<symbol id="font_0_4">
<path d="M .24800003 .37400005 C .33 .40100003 .388 .47100006 .388 .55 C .388 .632 .3 .688 .204 .688 C .10300001 .688 .027000003 .628 .027000003 .55200007 C .027000003 .519 .049000004 .5 .078 .5 C .109000008 .5 .12900001 .522 .12900001 .55100008 C .12900001 .6010001 .082 .6010001 .067 .6010001 C .098 .65000006 .164 .66300007 .20000002 .66300007 C .24100003 .66300007 .29600004 .64100006 .29600004 .55100008 C .29600004 .53900006 .29400004 .48100005 .268 .43700005 C .238 .38900004 .204 .38600005 .17900002 .38500003 C .171 .38400004 .14700002 .38200004 .14000002 .38200004 C .132 .38100005 .125 .38000003 .125 .37000004 C .125 .35900004 .132 .35900004 .14900002 .35900004 L .19300002 .35900004 C .275 .35900004 .312 .29100005 .312 .193 C .312 .057000005 .24300003 .028 .199 .028 C .15600002 .028 .081 .045 .046000005 .104 C .081 .09900001 .11200001 .12100001 .11200001 .15900001 C .11200001 .19500001 .085 .215 .056 .215 C .031999999 .215 0 .201 0 .157 C 0 .06600001 .093 0 .20200002 0 C .32400004 0 .41500003 .091000009 .41500003 .193 C .41500003 .27500005 .35200004 .35300005 .24800003 .37400005 Z "/>
</symbol>
<use xlink:href="#font_0_4" transform="matrix(9.9626,0,0,-9.9626,24.439425,37.999177)"/>
<use xlink:href="#font_1_1" transform="matrix(9.9626,0,0,-9.9626,29.270985,37.889589)"/>
<path transform="matrix(1,0,0,-1,24.020997,42.02899)" stroke-width="1" stroke-linecap="butt" stroke-miterlimit="10" stroke-linejoin="miter" fill="none" stroke="#000000" d="M 0 0 L 11.018 0 "/>
<use xlink:href="#font_0_5" transform="matrix(9.9626,0,0,-9.9626,27.31795,51.352998)"/>
<use xlink:href="#font_1_1" transform="matrix(9.9626,0,0,-9.9626,3.6629875,124.240589)"/>
<symbol id="font_0_6">
<path d="M .39900003 .223 C .39900003 .34200005 .317 .44200004 .209 .44200004 C .16100002 .44200004 .118000019 .42600004 .082 .39100004 L .082 .586 C .10200001 .58000007 .135 .573 .16700001 .573 C .29 .573 .36 .66400006 .36 .67700007 C .36 .683 .357 .688 .35 .688 C .349 .688 .347 .688 .342 .68500009 C .322 .67600008 .273 .656 .20600002 .656 C .16600001 .656 .120000008 .66300007 .073 .6840001 C .065 .68700006 .06300001 .68700006 .061000009 .68700006 C .051000004 .68700006 .051000004 .679 .051000004 .66300007 L .051000004 .36700005 C .051000004 .34900005 .051000004 .34100003 .065 .34100003 C .07200001 .34100003 .074 .34400005 .07800001 .35000003 C .08900002 .36600004 .12600002 .42000006 .207 .42000006 C .259 .42000006 .284 .37400005 .292 .35600005 C .308 .31900005 .31 .28000004 .31 .23 C .31 .19500001 .31 .135 .286 .093 C .262 .054000006 .22500001 .028 .17900002 .028 C .106000009 .028 .049000008 .08100001 .032 .14000002 C .035 .13900002 .038000008 .13800001 .049000008 .13800001 C .082 .13800001 .09900001 .163 .09900001 .187 C .09900001 .21100001 .082 .23600002 .049000008 .23600002 C .035 .23600002 0 .22900002 0 .18300002 C 0 .097 .069000009 0 .18100001 0 C .297 0 .39900003 .096 .39900003 .223 Z "/>
</symbol>
<use xlink:href="#font_0_6" transform="matrix(9.9626,0,0,-9.9626,24.519127,199.25818)"/>
<use xlink:href="#font_1_1" transform="matrix(9.9626,0,0,-9.9626,29.270985,199.14859)"/>
<path transform="matrix(1,0,0,-1,24.020997,203.288)" stroke-width="1" stroke-linecap="butt" stroke-miterlimit="10" stroke-linejoin="miter" fill="none" stroke="#000000" d="M 0 0 L 11.018 0 "/>
<use xlink:href="#font_0_5" transform="matrix(9.9626,0,0,-9.9626,27.31795,212.61299)"/>
<use xlink:href="#font_0_4" transform="matrix(9.9626,0,0,-9.9626,105.06842,229.35417)"/>
<use xlink:href="#font_1_1" transform="matrix(9.9626,0,0,-9.9626,109.900989,229.24459)"/>
<path transform="matrix(1,0,0,-1,104.649997,233.384)" stroke-width="1" stroke-linecap="butt" stroke-miterlimit="10" stroke-linejoin="miter" fill="none" stroke="#000000" d="M 0 0 L 11.018 0 "/>
<use xlink:href="#font_0_3" transform="matrix(9.9626,0,0,-9.9626,108.16712,242.709)"/>
<symbol id="font_0_7">
<path d="M .42000003 .63100007 C .42900003 .64300009 .42900003 .64500007 .42900003 .66600009 L .18600002 .66600009 C .064 .66600009 .062000008 .679 .058000007 .6980001 L .033 .6980001 L 0 .49200005 L .024999999 .49200005 C .028000005 .508 .037 .57100006 .050000006 .58300009 C .057000005 .58900007 .13500002 .58900007 .148 .58900007 L .35500003 .58900007 C .344 .573 .26500003 .46400006 .24300003 .43100003 C .153 .29600004 .12000001 .157 .12000001 .055 C .12000001 .045 .12000001 0 .16600001 0 C .21200001 0 .21200001 .045 .21200001 .055 L .21200001 .106000009 C .21200001 .16100002 .21500004 .216 .22300002 .27 C .22700003 .29300005 .24100003 .37900005 .28500004 .44100005 L .42000003 .63100007 Z "/>
</symbol>
<use xlink:href="#font_0_7" transform="matrix(9.9626,0,0,-9.9626,185.8379,199.25818)"/>
<use xlink:href="#font_1_1" transform="matrix(9.9626,0,0,-9.9626,190.53,199.14859)"/>
<path transform="matrix(1,0,0,-1,185.28,203.288)" stroke-width="1" stroke-linecap="butt" stroke-miterlimit="10" stroke-linejoin="miter" fill="none" stroke="#000000" d="M 0 0 L 11.018 0 "/>
<use xlink:href="#font_0_5" transform="matrix(9.9626,0,0,-9.9626,188.57695,212.61299)"/>
<use xlink:href="#font_0_1" transform="matrix(9.9626,0,0,-9.9626,126.25854,118.612178)"/>
<symbol id="font_1_2">
<path d="M .106 .053000004 C .106 .082 .08200001 .106000009 .05300001 .106000009 C .024000004 .106000009 0 .082 0 .053000004 C 0 .024 .024000004 0 .05300001 0 C .08200001 0 .106 .024 .106 .053000004 Z "/>
</symbol>
<use xlink:href="#font_1_2" transform="matrix(9.9626,0,0,-9.9626,131.70877,118.393)"/>
<use xlink:href="#font_0_6" transform="matrix(9.9626,0,0,-9.9626,134.11711,118.612178)"/>
<symbol id="font_0_2">
<path d="M .205 .64000007 C .205 .66400006 .205 .666 .18200003 .666 C .120000008 .60200008 .032000007 .60200008 0 .60200008 L 0 .57100006 C .020000004 .57100006 .07900001 .57100006 .13100001 .597 L .13100001 .079 C .13100001 .043 .128 .031000002 .038000004 .031000002 L .0060000049 .031000002 L .0060000049 0 C .04100001 .003 .128 .003 .168 .003 C .20800002 .003 .29500003 .003 .33000005 0 L .33000005 .031000002 L .29800005 .031000002 C .20800002 .031000002 .205 .042000005 .205 .079 L .205 .64000007 Z "/>
</symbol>
<use xlink:href="#font_0_2" transform="matrix(9.9626,0,0,-9.9626,152.70767,118.393)"/>
<use xlink:href="#font_0_2" transform="matrix(9.9626,0,0,-9.9626,170.90868,118.393)"/>
<use xlink:href="#font_1_2" transform="matrix(9.9626,0,0,-9.9626,175.86078,118.393)"/>
<use xlink:href="#font_0_6" transform="matrix(9.9626,0,0,-9.9626,178.26912,118.612178)"/>
<use xlink:href="#font_0_3" transform="matrix(9.9626,0,0,-9.9626,196.47112,118.393)"/>
<clipPath id="cp2">
<path transform="matrix(1,0,0,-1,110.159,121.986)" d="M 97.1363 0 C 97.1363 53.64758 53.64758 97.1363 0 97.1363 C -53.64758 97.1363 -97.1363 53.64758 -97.1363 0 C -97.1363 -53.64758 -53.64758 -97.1363 0 -97.1363 C 53.64758 -97.1363 97.1363 -53.64758 97.1363 0 "/>
</clipPath>
<g clip-path="url(#cp2)">
<path transform="matrix(1,0,0,-1,110.159,121.986)" stroke-width="1.19553" stroke-linecap="butt" stroke-miterlimit="10" stroke-linejoin="miter" fill="none" stroke="#000080" d="M 88.30524 0 C 88.30524 0 88.2342 3.03581 88.14989 4.19746 C 88.06555 5.35913 87.86316 7.22044 87.69748 8.37248 C 87.53181 9.52452 87.2021 11.3648 86.95583 12.50056 C 86.70955 13.63632 86.24916 15.44522 85.92247 16.55826 C 85.59578 17.67131 85.00595 19.43852 84.60124 20.52261 C 84.19653 21.60672 83.4843 23.32234 83.00555 24.37178 C 82.52682 25.42122 81.70117 27.07794 81.15079 28.0863 C 80.6004 29.09467 79.65778 30.67714 79.03873 31.63939 C 78.41968 32.60162 77.37132 34.10966 76.68906 35.02145 C 76.0068 35.93326 74.86186 37.35481 74.12137 38.21103 C 73.38089 39.06725 72.14783 40.3965 71.35213 41.19252 C 70.55641 41.98854 69.23213 43.2163 68.38646 43.9482 C 67.54079 44.6801 66.1453 45.80223 65.25702 46.46756 C 64.36876 47.13289 62.90985 48.1475 61.98436 48.7435 C 61.05885 49.3395 59.54477 50.2397 58.58665 50.7631 C 57.62854 51.28651 56.06325 52.06662 55.07881 52.51585 C 54.09438 52.96509 52.49469 53.62608 51.49149 54.00098 C 50.48827 54.37587 48.86504 54.91875 47.84836 55.21788 C 46.83168 55.51701 45.18825 55.93425 44.16397 56.15697 C 43.1397 56.37968 41.49118 56.67561 40.46605 56.82323 C 39.44092 56.97084 37.79527 57.14717 36.77547 57.22092 C 35.75566 57.29466 34.12505 57.3545 33.1159 57.35483 C 32.10677 57.35515 30.49487 57.29425 29.50221 57.22333 C 28.50955 57.15239 26.93184 56.9826 25.96147 56.84352 C 24.99112 56.70444 23.45142 56.42528 22.5085 56.2209 C 21.56558 56.01653 20.0763 55.6375 19.16551 55.37044 C 18.25473 55.10336 16.81851 54.62202 15.94417 54.29605 C 15.06981 53.97008 13.697 53.40082 12.86372 53.02097 C 12.03044 52.64111 10.72719 51.98839 9.93843 51.5583 C 9.14969 51.12823 7.91997 50.39708 7.17886 49.9212 C 6.43777 49.44534 5.28757 48.6449 4.59705 48.12857 C 3.90652 47.61226 2.83966 46.7515 2.20203 46.19994 C 1.56439 45.64838 .58409 44.73537 .00133 44.15326 C -.58142 43.57114 -1.47144 42.6119 -1.99823 42.00443 C -2.52502 41.39696 -3.3253 40.402 -3.79549 39.77502 C -4.26567 39.14807 -4.97398 38.12717 -5.38704 37.48573 C -5.8001 36.8443 -6.41644 35.80289 -6.77254 35.15195 C -7.12863 34.50102 -7.65376 33.4493 -7.95357 32.79417 C -8.25336 32.13904 -8.6887 31.08434 -8.93335 30.43022 C -9.178 29.77611 -9.52586 28.72792 -9.71689 28.07974 C -9.9079 27.43158 -10.17064 26.39671 -10.31004 25.75862 C -10.44946 25.12053 -10.63153 24.10445 -10.7218 23.48083 C -10.81206 22.85721 -10.91681 21.86882 -10.9607 21.26395 C -11.00458 20.65907 -11.03745 19.70395 -11.03812 19.1213 C -11.03879 18.53868 -11.00468 17.6218 -10.96553 17.06473 C -10.92638 16.50768 -10.83116 15.63496 -10.7558 15.10635 C -10.68045 14.57773 -10.53001 13.75244 -10.4224 13.25471 C -10.31477 12.75699 -10.1158 11.98358 -9.9801 11.519 C -9.8444 11.05443 -9.60397 10.33629 -9.44435 9.90634 C -9.28474 9.47641 -9.009 8.81454 -8.82964 8.42021 C -8.65027 8.0259 -8.34615 7.42204 -8.15157 7.06425 C -7.95699 6.70648 -7.63248 6.16237 -7.42715 5.84149 C -7.22182 5.5206 -6.88362 5.0359 -6.67159 4.75151 C -6.45953 4.4671 -6.1136 4.04034 -5.89893 3.79164 C -5.68423 3.54294 -5.33708 3.1727 -5.12428 2.95892 C -4.9115 2.74513 -4.57217 2.4311 -4.36517 2.25078 C -4.15819 2.07045 -3.8303 1.80824 -3.63235 1.6592 C -3.43439 1.51016 -3.12367 1.29648 -2.93839 1.17659 C -2.75308 1.05672 -2.46602 .88834 -2.29677 .79512 C -2.12752 .7019 -1.86913 .57425 -1.71858 .50473 C -1.56802 .43521 -1.34114 .34303 -1.21164 .294 C -1.08212 .24498 -.89124 .18324 -.7851 .15135 C -.67896 .11948 -.52748 .08255 -.44661 .06424 C -.36574 .04591 -.25696 .02788 -.20215 .0193 C -.14734 .01073 -.0795 .00511 -.05157 .00244 C -.02365 -.00021 -.00087 .00066 -.00087 0 C -.00087 -.00066 -.02377 .0002 -.05157 -.00244 C -.07938 -.0051 -.14655 -.01064 -.20128 -.01918 C -.25603 -.02773 -.36542 -.0458 -.44618 -.06409 C -.52695 -.08235 -.6774 -.11906 -.78342 -.1509 C -.88943 -.18271 -1.08081 -.24448 -1.21039 -.29347 C -1.33997 -.34247 -1.56691 -.43462 -1.71736 -.50406 C -1.86781 -.5735 -2.12581 -.70093 -2.29483 -.79399 C -2.46387 -.88705 -2.75049 -1.0551 -2.93571 -1.17487 C -3.12093 -1.29462 -3.4319 -1.50822 -3.62985 -1.65718 C -3.82779 -1.80612 -4.15543 -2.06818 -4.36241 -2.24841 C -4.5694 -2.42865 -4.90897 -2.74268 -5.12169 -2.95625 C -5.33441 -3.16985 -5.68097 -3.5393 -5.89558 -3.78784 C -6.11018 -4.03638 -6.45639 -4.46323 -6.66849 -4.74757 C -6.88058 -5.0319 -7.21893 -5.51645 -7.42433 -5.8372 C -7.62973 -6.15794 -7.95424 -6.70166 -8.1489 -7.05931 C -8.34354 -7.41695 -8.64784 -8.02069 -8.82729 -8.4149 C -9.00673 -8.8091 -9.28255 -9.47067 -9.44228 -9.90054 C -9.602 -10.3304 -9.84274 -11.0487 -9.97852 -11.51315 C -10.11427 -11.9776 -10.31317 -12.75056 -10.42087 -13.24808 C -10.52858 -13.74559 -10.67929 -14.57043 -10.75479 -15.09897 C -10.83028 -15.62749 -10.92567 -16.50034 -10.96498 -17.05736 C -11.00429 -17.61438 -11.03867 -18.53099 -11.03818 -19.11356 C -11.03769 -19.69614 -11.00522 -20.65143 -10.96147 -21.25621 C -10.91772 -21.86098 -10.81291 -22.849 -10.7228 -23.47243 C -10.63268 -24.09586 -10.45111 -25.11153 -10.3119 -25.74954 C -10.1727 -26.38756 -9.91022 -27.42255 -9.7194 -28.07085 C -9.5286 -28.71913 -9.18102 -29.768 -8.93655 -30.42206 C -8.6921 -31.07611 -8.25699 -32.12973 -7.95746 -32.78482 C -7.65791 -33.43993 -7.13336 -34.49275 -6.7776 -35.1436 C -6.42183 -35.79446 -5.80606 -36.8344 -5.3933 -37.47583 C -4.98053 -38.11726 -4.27264 -39.13947 -3.80261 -39.76668 C -3.33258 -40.3939 -2.53232 -41.38892 -2.00555 -41.99649 C -1.47879 -42.60406 -.00604 -44.14577 -.00604 -44.14577 "/>
</g>
</svg>
