<?xml version="1.0" encoding="UTF-8" standalone="no"?>
<!DOCTYPE svg PUBLIC "-//W3C//DTD SVG 1.1//EN" "http://www.w3.org/Graphics/SVG/1.1/DTD/svg11.dtd">
<svg xmlns="http://www.w3.org/2000/svg" xmlns:xlink="http://www.w3.org/1999/xlink" version="1.1" width="216.752pt" height="174.826pt" viewBox="0 0 216.752 174.826">
<clipPath id="cp0">
<path transform="matrix(1,0,0,-1,9.759,174.627)" d="M 0 0 L 194.26988 0 L 194.26988 161.39104 L 0 161.39104 Z "/>
</clipPath>
<g clip-path="url(#cp0)">
<path transform="matrix(1,0,0,-1,9.759,174.627)" d="M 35.3218 124.1462 L 38.20514 123.63687 L 41.08849 123.12222 L 43.97183 122.60207 L 46.8552 122.07625 L 49.73854 121.54451 L 52.6219 121.00673 L 55.50526 120.46266 L 58.3886 119.91205 L 61.27196 119.35469 L 64.15532 118.79034 L 67.03867 118.21867 L 69.92203 117.63945 L 72.80539 117.0523 L 75.68872 116.45703 L 78.57207 115.85313 L 81.45543 115.24031 L 84.33878 114.61812 L 87.22212 113.98616 L 90.10547 113.34387 L 92.98882 112.69081 L 95.87216 112.0264 L 98.75551 111.35 L 101.63887 110.66095 L 104.52222 109.95853 L 107.40556 109.24191 L 110.28891 108.51021 L 113.17226 107.76239 L 116.0556 106.99744 L 118.93896 106.21397 L 121.82231 105.4107 L 124.70566 104.586 L 127.58899 103.73805 L 130.47235 102.8648 L 133.3557 101.96379 L 136.23905 101.0322 L 139.1224 100.06668 L 142.00576 99.06369 L 144.88909 98.01753 L 147.77245 96.92264 L 150.65579 95.7715 L 153.53914 94.55444 L 156.42249 93.25862 L 159.30585 91.86644 L 162.18918 90.35257 L 165.07253 88.67809 L 167.95589 86.77754 L 170.83924 84.52328 L 173.72258 81.58582 L 176.60594 74.71841 L 176.60594 74.2579 L 173.72258 67.3905 L 170.83924 64.45303 L 167.95589 62.19878 L 165.07253 60.29823 L 162.18918 58.62375 L 159.30585 57.10988 L 156.42249 55.7177 L 153.53914 54.42188 L 150.65579 53.20482 L 147.77245 52.05368 L 144.88909 50.95879 L 142.00576 49.91263 L 139.1224 48.90964 L 136.23905 47.94412 L 133.3557 47.01253 L 130.47235 46.11151 L 127.58899 45.23827 L 124.70566 44.39032 L 121.82231 43.56561 L 118.93896 42.76233 L 116.0556 41.97888 L 113.17226 41.21393 L 110.28891 40.46611 L 107.40556 39.7344 L 104.52222 39.01779 L 101.63887 38.31537 L 98.75551 37.62631 L 95.87216 36.94992 L 92.98882 36.2855 L 90.10547 35.63245 L 87.22212 34.99016 L 84.33878 34.3582 L 81.45543 33.73601 L 78.57207 33.12318 L 75.68872 32.51929 L 72.80539 31.92401 L 69.92203 31.33687 L 67.03867 30.75764 L 64.15532 30.18597 L 61.27196 29.62163 L 58.3886 29.06427 L 55.50526 28.51366 L 52.6219 27.96959 L 49.73854 27.43181 L 46.8552 26.90007 L 43.97183 26.37425 L 41.08849 25.8541 L 38.20514 25.33945 L 35.3218 24.83012 Z " fill="#cccce6"/>
</g>
<clipPath id="cp1">
<path transform="matrix(1,0,0,-1,9.759,174.627)" d="M 0 0 L 194.26988 0 L 194.26988 161.39104 L 0 161.39104 Z "/>
</clipPath>
<g clip-path="url(#cp1)">
<path transform="matrix(1,0,0,-1,9.759,174.627)" stroke-width="1.19553" stroke-linecap="butt" stroke-miterlimit="10" stroke-linejoin="miter" fill="none" stroke="#800000" d="M 0 130.00753 C 0 130.00753 .85637 129.8728 1.18527 129.82094 C 1.51419 129.76908 2.04166 129.6857 2.37057 129.63365 C 2.69948 129.58159 3.22696 129.498 3.55588 129.44579 C 3.88478 129.39356 4.41226 129.30965 4.74117 129.25725 C 5.07008 129.20485 5.59756 129.1206 5.92647 129.06803 C 6.25537 129.01544 6.78285 128.93096 7.11177 128.87819 C 7.44067 128.82543 7.96815 128.74063 8.29706 128.68769 C 8.62598 128.63474 9.15346 128.54967 9.48236 128.49652 C 9.81128 128.44338 10.33875 128.35797 10.66766 128.30464 C 10.99657 128.25131 11.52403 128.16565 11.85295 128.11212 C 12.18185 128.0586 12.70934 127.97256 13.03824 127.91885 C 13.36716 127.86513 13.89464 127.77881 14.22354 127.7249 C 14.55244 127.67099 15.07993 127.58441 15.40884 127.5303 C 15.73775 127.4762 16.26523 127.38922 16.59413 127.33492 C 16.92305 127.2806 17.45053 127.19331 17.77943 127.13881 C 18.10835 127.08429 18.63582 126.9967 18.96474 126.94199 C 19.29364 126.88727 19.82112 126.79935 20.15004 126.74442 C 20.47894 126.6895 21.00642 126.60124 21.33533 126.54611 C 21.66425 126.49097 22.19171 126.40237 22.52063 126.34703 C 22.84953 126.29167 23.37701 126.20271 23.70593 126.14717 C 24.03484 126.09161 24.5623 126.00235 24.8912 125.94658 C 25.22012 125.8908 25.7476 125.80115 26.0765 125.74516 C 26.40541 125.68918 26.93289 125.59917 27.26181 125.54295 C 27.59071 125.48672 28.1182 125.39638 28.4471 125.33994 C 28.77602 125.2835 29.3035 125.19278 29.6324 125.13612 C 29.96132 125.07947 30.48878 124.98839 30.8177 124.9315 C 31.1466 124.87462 31.67409 124.78317 32.003 124.72604 C 32.33191 124.66891 32.85939 124.57706 33.1883 124.5197 C 33.51721 124.46234 34.0447 124.37016 34.3736 124.31256 C 34.7025 124.25496 35.22998 124.16235 35.5589 124.1045 C 35.8878 124.04666 36.41528 123.95369 36.74419 123.8956 C 37.0731 123.83751 37.60059 123.74411 37.92949 123.68578 C 38.2584 123.62746 38.78587 123.5337 39.11479 123.47511 C 39.4437 123.41652 39.97118 123.32236 40.3001 123.26352 C 40.629 123.20467 41.15646 123.11008 41.48537 123.05098 C 41.81429 122.99187 42.34177 122.89688 42.67067 122.83751 C 42.99957 122.77815 43.52705 122.68268 43.85597 122.62306 C 44.18488 122.56343 44.71236 122.4676 45.04126 122.40771 C 45.37018 122.34784 45.89766 122.25156 46.22656 122.19138 C 46.55548 122.13121 47.08295 122.03447 47.41187 121.97403 C 47.74077 121.91357 48.26825 121.8164 48.59715 121.75569 C 48.92607 121.69498 49.45355 121.59737 49.78246 121.53638 C 50.11137 121.47539 50.63884 121.3773 50.96776 121.31602 C 51.29666 121.25475 51.82414 121.1562 52.15306 121.09462 C 52.48196 121.03304 53.00943 120.934 53.33833 120.87213 C 53.66725 120.81027 54.19473 120.71078 54.52364 120.6486 C 54.85254 120.58643 55.38002 120.48645 55.70894 120.42397 C 56.03784 120.3615 56.56532 120.26103 56.89423 120.19826 C 57.22314 120.13547 57.75063 120.03448 58.07953 119.97137 C 58.40845 119.90828 58.93591 119.8068 59.26483 119.74338 C 59.59373 119.67995 60.12122 119.57799 60.45013 119.51425 C 60.77904 119.45052 61.30652 119.34799 61.63542 119.28392 C 61.96434 119.21986 62.49182 119.11684 62.82072 119.05244 C 63.14963 118.98805 63.67711 118.88449 64.00603 118.81975 C 64.33493 118.755 64.86241 118.65085 65.19131 118.58577 C 65.52023 118.52069 66.04771 118.41603 66.37662 118.3506 C 66.70554 118.28517 67.233 118.17995 67.56192 118.11415 C 67.89082 118.04836 68.4183 117.94249 68.74721 117.87634 C 69.07613 117.8102 69.6036 117.70384 69.93251 117.63734 C 70.26143 117.57083 70.78888 117.46384 71.1178 117.39696 C 71.4467 117.33006 71.97418 117.22244 72.3031 117.15518 C 72.632 117.0879 73.15948 116.97974 73.48839 116.91208 C 73.8173 116.84444 74.34477 116.73561 74.67368 116.66756 C 75.00258 116.59952 75.53006 116.49007 75.85898 116.42162 C 76.18788 116.35318 76.71535 116.24307 77.04425 116.17422 C 77.37317 116.10538 77.90065 115.99461 78.22955 115.92535 C 78.55847 115.8561 79.08594 115.74463 79.41486 115.67494 C 79.74376 115.60526 80.27122 115.49318 80.60014 115.42307 C 80.92905 115.35295 81.45653 115.24013 81.78543 115.16957 C 82.11435 115.09901 82.64183 114.98552 82.97073 114.91454 C 83.29964 114.84354 83.8271 114.7293 84.15602 114.65784 C 84.48492 114.5864 85.0124 114.47145 85.34131 114.39955 C 85.67023 114.32764 86.1977 114.21193 86.5266 114.13953 C 86.85551 114.06714 87.38298 113.95062 87.7119 113.87775 C 88.0408 113.80489 88.56828 113.68767 88.8972 113.61432 C 89.2261 113.54097 89.75357 113.42287 90.08247 113.34901 C 90.41139 113.27516 90.93886 113.15634 91.26778 113.08197 C 91.59668 113.00761 92.12416 112.88788 92.45308 112.81299 C 92.78198 112.73811 93.30945 112.61757 93.63835 112.54216 C 93.96727 112.46674 94.49475 112.34532 94.82365 112.26935 C 95.15257 112.19339 95.68004 112.07109 96.00896 111.99457 C 96.33786 111.91803 96.86533 111.79486 97.19423 111.71776 C 97.52315 111.64067 98.05063 111.51656 98.37953 111.43889 C 98.70845 111.36122 99.2359 111.23615 99.56482 111.1579 C 99.89372 111.07964 100.4212 110.95364 100.75012 110.87476 C 101.07903 110.79587 101.6065 110.66885 101.93541 110.58936 C 102.26433 110.50984 102.7918 110.38182 103.1207 110.30167 C 103.4496 110.22153 103.97708 110.0925 104.306 110.01169 C 104.6349 109.9309 105.16238 109.8008 105.49129 109.71933 C 105.8202 109.63786 106.34767 109.50665 106.67657 109.4245 C 107.0055 109.34235 107.53296 109.21 107.86188 109.12715 C 108.19078 109.0443 108.71826 108.91084 109.04718 108.82726 C 109.37608 108.74368 109.90355 108.60901 110.23245 108.52469 C 110.56137 108.44035 111.08885 108.30452 111.41776 108.21944 C 111.74666 108.13435 112.27412 107.99725 112.60304 107.91138 C 112.93195 107.8255 113.45943 107.68712 113.78833 107.60043 C 114.11725 107.51375 114.64473 107.37408 114.97363 107.28659 C 115.30255 107.19908 115.83 107.05809 116.15892 106.96971 C 116.48782 106.88135 117.0153 106.73892 117.34422 106.64967 C 117.67313 106.56042 118.2006 106.41656 118.52951 106.32642 C 118.85843 106.23627 119.38588 106.09096 119.7148 105.99988 C 120.0437 105.9088 120.57118 105.76195 120.9001 105.6699 C 121.229 105.57785 121.75648 105.42943 122.08539 105.33636 C 122.4143 105.24332 122.94177 105.09328 123.27068 104.9992 C 123.59958 104.90514 124.12706 104.75346 124.45598 104.65833 C 124.78488 104.5632 125.31235 104.40976 125.64125 104.31352 C 125.97017 104.21727 126.49765 104.06201 126.82655 103.96463 C 127.15547 103.86725 127.68294 103.71017 128.01186 103.61162 C 128.34076 103.51306 128.86823 103.35406 129.19715 103.25427 C 129.52605 103.1545 130.05353 102.99345 130.38243 102.89241 C 130.71135 102.79137 131.23883 102.62828 131.56774 102.52591 C 131.89664 102.42354 132.4241 102.2583 132.75302 102.15456 C 133.08193 102.0508 133.6094 101.88327 133.93831 101.77809 C 134.26723 101.67291 134.7947 101.50307 135.1236 101.3964 C 135.45252 101.28972 135.97998 101.11748 136.3089 101.00923 C 136.6378 100.901 137.16529 100.72615 137.4942 100.61629 C 137.8231 100.50642 138.35057 100.32893 138.67948 100.21736 C 139.00839 100.10579 139.53588 99.9255 139.86478 99.81215 C 140.19368 99.6988 140.72116 99.51555 141.05008 99.40038 C 141.37899 99.2852 141.90645 99.09917 142.23535 98.98203 C 142.56427 98.86487 143.09175 98.67528 143.42066 98.556 C 143.74958 98.43672 144.27704 98.24377 144.60596 98.12231 C 144.93486 98.00085 145.46233 97.80429 145.79123 97.68051 C 146.12015 97.55675 146.64763 97.35638 146.97653 97.23015 C 147.30545 97.10391 147.8329 96.8995 148.16182 96.77066 C 148.49073 96.64183 149.0182 96.43314 149.34712 96.30151 C 149.67603 96.16989 150.2035 95.9566 150.53241 95.82204 C 150.86133 95.68747 151.3888 95.46928 151.7177 95.33154 C 152.0466 95.19379 152.57408 94.97037 152.903 94.82922 C 153.2319 94.68806 153.75939 94.459 154.08829 94.31418 C 154.4172 94.16934 154.94467 93.93419 155.27358 93.78539 C 155.6025 93.6366 156.12996 93.3948 156.45888 93.2417 C 156.78778 93.08858 157.31526 92.83961 157.64418 92.68178 C 157.97309 92.52393 158.50055 92.26707 158.82946 92.10405 C 159.15837 91.94102 159.68585 91.67548 160.01476 91.50671 C 160.34366 91.33797 160.87113 91.06282 161.20005 90.88766 C 161.52895 90.71251 162.05643 90.42664 162.38533 90.24431 C 162.71425 90.06197 163.24173 89.76398 163.57064 89.57352 C 163.89955 89.38306 164.427 89.07129 164.75592 88.87149 C 165.08483 88.67169 165.6123 88.34407 165.94123 88.1334 C 166.27013 87.92273 166.7976 87.57657 167.12651 87.35303 C 167.45543 87.12947 167.98288 86.76128 168.3118 86.52214 C 168.6407 86.28302 169.16819 85.88803 169.4971 85.62949 C 169.826 85.37094 170.35349 84.94241 170.68239 84.65877 C 171.0113 84.3751 171.53878 83.9031 171.86768 83.58505 C 172.1966 83.26698 172.72406 82.73601 173.05298 82.36633 C 173.38188 81.99666 173.90935 81.38258 174.23825 80.92061 C 174.56717 80.45863 175.09465 79.92284 175.42356 79.0367 C 175.75247 78.15056 176.60886 74.53394 176.60886 74.53394 "/>
<path transform="matrix(1,0,0,-1,9.759,174.627)" stroke-width="1.19553" stroke-linecap="butt" stroke-miterlimit="10" stroke-linejoin="miter" fill="none" stroke="#000080" d="M 0 18.9688 C 0 18.9688 .85637 19.10352 1.18527 19.15538 C 1.51419 19.20724 2.04166 19.29062 2.37057 19.34267 C 2.69948 19.39473 3.22696 19.47832 3.55588 19.53053 C 3.88478 19.58275 4.41226 19.66667 4.74117 19.71907 C 5.07008 19.77147 5.59756 19.85571 5.92647 19.9083 C 6.25537 19.96088 6.78285 20.04536 7.11177 20.09813 C 7.44067 20.1509 7.96815 20.23569 8.29706 20.28864 C 8.62598 20.34158 9.15346 20.42665 9.48236 20.4798 C 9.81128 20.53294 10.33875 20.61835 10.66766 20.67168 C 10.99657 20.725 11.52403 20.81067 11.85295 20.8642 C 12.18185 20.91772 12.70934 21.00374 13.03824 21.05746 C 13.36716 21.11119 13.89464 21.19751 14.22354 21.25142 C 14.55244 21.30533 15.07993 21.3919 15.40884 21.44601 C 15.73775 21.50012 16.26523 21.5871 16.59413 21.6414 C 16.92305 21.69572 17.45053 21.783 17.77943 21.83751 C 18.10835 21.89203 18.63582 21.97961 18.96474 22.03433 C 19.29364 22.08905 19.82112 22.17697 20.15004 22.2319 C 20.47894 22.28682 21.00642 22.37508 21.33533 22.4302 C 21.66425 22.48535 22.19171 22.57394 22.52063 22.62929 C 22.84953 22.68465 23.37701 22.7736 23.70593 22.82915 C 24.03484 22.8847 24.5623 22.97397 24.8912 23.02974 C 25.22012 23.08553 25.7476 23.17517 26.0765 23.23116 C 26.40541 23.28714 26.93289 23.37715 27.26181 23.43336 C 27.59071 23.4896 28.1182 23.57993 28.4471 23.63638 C 28.77602 23.69283 29.3035 23.78354 29.6324 23.8402 C 29.96132 23.89685 30.48878 23.98793 30.8177 24.04482 C 31.1466 24.1017 31.67409 24.19315 32.003 24.25027 C 32.33191 24.3074 32.85939 24.39926 33.1883 24.45662 C 33.51721 24.51398 34.0447 24.60616 34.3736 24.66376 C 34.7025 24.72136 35.22998 24.81396 35.5589 24.87181 C 35.8878 24.92966 36.41528 25.02263 36.74419 25.08072 C 37.0731 25.13881 37.60059 25.23221 37.92949 25.29054 C 38.2584 25.34886 38.78587 25.44261 39.11479 25.5012 C 39.4437 25.5598 39.97118 25.65396 40.3001 25.7128 C 40.629 25.77165 41.15646 25.86624 41.48537 25.92534 C 41.81429 25.98445 42.34177 26.07944 42.67067 26.13881 C 42.99957 26.19817 43.52705 26.29364 43.85597 26.35326 C 44.18488 26.41289 44.71236 26.50871 45.04126 26.5686 C 45.37018 26.62848 45.89766 26.72476 46.22656 26.78494 C 46.55548 26.84511 47.08295 26.94185 47.41187 27.00229 C 47.74077 27.06274 48.26825 27.15991 48.59715 27.22063 C 48.92607 27.28134 49.45355 27.37895 49.78246 27.43994 C 50.11137 27.50093 50.63884 27.59901 50.96776 27.6603 C 51.29666 27.72157 51.82414 27.82011 52.15306 27.8817 C 52.48196 27.94328 53.00943 28.04231 53.33833 28.10417 C 53.66725 28.16605 54.19473 28.26553 54.52364 28.32771 C 54.85254 28.38988 55.38002 28.48987 55.70894 28.55235 C 56.03784 28.61482 56.56532 28.71529 56.89423 28.77806 C 57.22314 28.84085 57.75063 28.94183 58.07953 29.00494 C 58.40845 29.06804 58.93591 29.16953 59.26483 29.23294 C 59.59373 29.29636 60.12122 29.39833 60.45013 29.46207 C 60.77904 29.5258 61.30652 29.62833 61.63542 29.69238 C 61.96434 29.75645 62.49182 29.85948 62.82072 29.92387 C 63.14963 29.98827 63.67711 30.09183 64.00603 30.15657 C 64.33493 30.22131 64.86241 30.32545 65.19131 30.39053 C 65.52023 30.45563 66.04771 30.56029 66.37662 30.62572 C 66.70554 30.69115 67.233 30.79637 67.56192 30.86217 C 67.89082 30.92796 68.4183 31.03383 68.74721 31.09998 C 69.07613 31.16612 69.6036 31.27248 69.93251 31.33897 C 70.26143 31.40549 70.78888 31.51248 71.1178 31.57936 C 71.4467 31.64626 71.97418 31.75388 72.3031 31.82114 C 72.632 31.88841 73.15948 31.99658 73.48839 32.06424 C 73.8173 32.13188 74.34477 32.2407 74.67368 32.30876 C 75.00258 32.3768 75.53006 32.48625 75.85898 32.55469 C 76.18788 32.62314 76.71535 32.73325 77.04425 32.8021 C 77.37317 32.87094 77.90065 32.9817 78.22955 33.05096 C 78.55847 33.12022 79.08594 33.23169 79.41486 33.30138 C 79.74376 33.37106 80.27122 33.48314 80.60014 33.55325 C 80.92905 33.62337 81.45653 33.73619 81.78543 33.80675 C 82.11435 33.8773 82.64183 33.9908 82.97073 34.06178 C 83.29964 34.13278 83.8271 34.24702 84.15602 34.31847 C 84.48492 34.38992 85.0124 34.50487 85.34131 34.57677 C 85.67023 34.64868 86.1977 34.76439 86.5266 34.83679 C 86.85551 34.90918 87.38298 35.0257 87.7119 35.09856 C 88.0408 35.17143 88.56828 35.28865 88.8972 35.362 C 89.2261 35.43535 89.75357 35.55345 90.08247 35.6273 C 90.41139 35.70116 90.93886 35.81998 91.26778 35.89435 C 91.59668 35.9687 92.12416 36.08844 92.45308 36.16333 C 92.78198 36.2382 93.30945 36.35875 93.63835 36.43416 C 93.96727 36.50958 94.49475 36.631 94.82365 36.70697 C 95.15257 36.78293 95.68004 36.90523 96.00896 36.98175 C 96.33786 37.05827 96.86533 37.18146 97.19423 37.25854 C 97.52315 37.33565 98.05063 37.45976 98.37953 37.53743 C 98.70845 37.6151 99.2359 37.74016 99.56482 37.81842 C 99.89372 37.89668 100.4212 38.02267 100.75012 38.10156 C 101.07903 38.18045 101.6065 38.30746 101.93541 38.38696 C 102.26433 38.46648 102.7918 38.5945 103.1207 38.67465 C 103.4496 38.75479 103.97708 38.88382 104.306 38.96463 C 104.6349 39.04543 105.16238 39.17552 105.49129 39.25699 C 105.8202 39.33846 106.34767 39.46967 106.67657 39.55182 C 107.0055 39.63397 107.53296 39.76631 107.86188 39.84917 C 108.19078 39.93202 108.71826 40.06548 109.04718 40.14906 C 109.37608 40.23264 109.90355 40.36731 110.23245 40.45163 C 110.56137 40.53596 111.08885 40.67178 111.41776 40.75688 C 111.74666 40.84196 112.27412 40.97906 112.60304 41.06494 C 112.93195 41.15082 113.45943 41.2892 113.78833 41.37589 C 114.11725 41.46257 114.64473 41.60223 114.97363 41.68973 C 115.30255 41.77724 115.83 41.91823 116.15892 42.0066 C 116.48782 42.09497 117.0153 42.2374 117.34422 42.32664 C 117.67313 42.4159 118.2006 42.55975 118.52951 42.6499 C 118.85843 42.74005 119.38588 42.88536 119.7148 42.97644 C 120.0437 43.06752 120.57118 43.21437 120.9001 43.30641 C 121.229 43.39847 121.75648 43.54689 122.08539 43.63995 C 122.4143 43.733 122.94177 43.88304 123.27068 43.97711 C 123.59958 44.07118 124.12706 44.22285 124.45598 44.31798 C 124.78488 44.41312 125.31235 44.56656 125.64125 44.6628 C 125.97017 44.75903 126.49765 44.91429 126.82655 45.01169 C 127.15547 45.10907 127.68294 45.26614 128.01186 45.3647 C 128.34076 45.46326 128.86823 45.62225 129.19715 45.72205 C 129.52605 45.82182 130.05353 45.98286 130.38243 46.08391 C 130.71135 46.18495 131.23883 46.34804 131.56774 46.45041 C 131.89664 46.55278 132.4241 46.71802 132.75302 46.82176 C 133.08193 46.92552 133.6094 47.09305 133.93831 47.19823 C 134.26723 47.3034 134.7947 47.47325 135.1236 47.57993 C 135.45252 47.68658 135.97998 47.85884 136.3089 47.96709 C 136.6378 48.07532 137.16529 48.25015 137.4942 48.36003 C 137.8231 48.4699 138.35057 48.64738 138.67948 48.75896 C 139.00839 48.87053 139.53588 49.05081 139.86478 49.16417 C 140.19368 49.27751 140.72116 49.46077 141.05008 49.57594 C 141.37899 49.69112 141.90645 49.87715 142.23535 49.9943 C 142.56427 50.11145 143.09175 50.30104 143.42066 50.42032 C 143.74958 50.5396 144.27704 50.73253 144.60596 50.854 C 144.93486 50.97546 145.46233 51.17203 145.79123 51.2958 C 146.12015 51.41957 146.64763 51.61993 146.97653 51.74617 C 147.30545 51.8724 147.8329 52.07681 148.16182 52.20566 C 148.49073 52.33449 149.0182 52.54318 149.34712 52.6748 C 149.67603 52.80643 150.2035 53.01971 150.53241 53.15428 C 150.86133 53.28885 151.3888 53.50703 151.7177 53.64478 C 152.0466 53.78253 152.57408 54.00595 152.903 54.1471 C 153.2319 54.28825 153.75939 54.51732 154.08829 54.66214 C 154.4172 54.80698 154.94467 55.04213 155.27358 55.19093 C 155.6025 55.33972 156.12996 55.58151 156.45888 55.73462 C 156.78778 55.88774 157.31526 56.1367 157.64418 56.29454 C 157.97309 56.4524 158.50055 56.70924 158.82946 56.87227 C 159.15837 57.0353 159.68585 57.30084 160.01476 57.4696 C 160.34366 57.63835 160.87113 57.9135 161.20005 58.08865 C 161.52895 58.26381 162.05643 58.54968 162.38533 58.73201 C 162.71425 58.91435 163.24173 59.21234 163.57064 59.4028 C 163.89955 59.59326 164.427 59.90503 164.75592 60.10483 C 165.08483 60.30463 165.6123 60.63225 165.94123 60.84291 C 166.27013 61.05359 166.7976 61.39975 167.12651 61.62329 C 167.45543 61.84683 167.98288 62.21504 168.3118 62.45418 C 168.6407 62.6933 169.16819 63.08829 169.4971 63.34683 C 169.826 63.60538 170.35349 64.0339 170.68239 64.31755 C 171.0113 64.60121 171.53878 65.07321 171.86768 65.39127 C 172.1966 65.70934 172.72406 66.2403 173.05298 66.60999 C 173.38188 66.97966 173.90935 67.59373 174.23825 68.05571 C 174.56717 68.51768 175.09465 69.05347 175.42356 69.9396 C 175.75247 70.82574 176.60886 74.44238 176.60886 74.44238 "/>
<path transform="matrix(1,0,0,-1,9.759,174.627)" d="M 70.64359 39.72702 L 105.96538 39.72702 L 105.96538 109.24931 L 70.64359 109.24931 L 70.64359 39.72702 " fill="#bfbfbf"/>
<path transform="matrix(1,0,0,-1,9.759,174.627)" stroke-width="1.19553" stroke-linecap="butt" stroke-miterlimit="10" stroke-linejoin="miter" fill="none" stroke="#000000" d="M 70.64359 39.72702 L 105.96538 39.72702 L 105.96538 109.24931 L 70.64359 109.24931 L 70.64359 39.72702 "/>
<path transform="matrix(1,0,0,-1,9.759,174.627)" stroke-width="1" stroke-linecap="butt" stroke-miterlimit="10" stroke-linejoin="miter" fill="none" stroke="#000000" d="M 70.64359 29.80547 C 71.01718 29.05826 71.88893 28.56012 73.13428 28.56012 L 85.8138 28.56012 C 87.05914 28.56012 87.9309 28.062 88.30449 27.31477 C 88.67807 28.062 89.54984 28.56012 90.79518 28.56012 L 103.47469 28.56012 C 104.72003 28.56012 105.5918 29.05826 105.96538 29.80547 "/>
<symbol id="font_2_1">
<path d="M .39500005 .698 C .38800005 .711 .38600005 .716 .36900003 .716 C .35200004 .716 .35000003 .711 .34300003 .698 L .004999999 .020000002 C 0 .011000001 0 .009000001 0 .008 C 0 0 .006000001 0 .022000004 0 L .716 0 C .73200008 0 .73800006 0 .73800006 .008 C .73800006 .009000001 .73800006 .011000001 .73300006 .020000002 L .39500005 .698 M .337 .61600008 L .60600009 .076000008 L .067 .076000008 L .337 .61600008 Z "/>
</symbol>
<use xlink:href="#font_2_1" transform="matrix(9.9626,0,0,-9.9626,91.53324,156.475)"/>
<symbol id="font_3_2">
<path d="M .305 .31300003 C .311 .33900003 .334 .43100003 .404 .43100003 C .409 .43100003 .433 .43100003 .454 .418 C .426 .41300003 .40600003 .388 .40600003 .36400003 C .40600003 .34800003 .417 .32900004 .444 .32900004 C .46600003 .32900004 .498 .34700004 .498 .38700003 C .498 .43900005 .439 .45300005 .405 .45300005 C .347 .45300005 .312 .40000005 .3 .37700004 C .275 .44300003 .221 .45300005 .19200002 .45300005 C .08800001 .45300005 .031000002 .32400004 .031000002 .29900003 C .031000002 .28900004 .041 .28900004 .043000007 .28900004 C .051000008 .28900004 .054000006 .291 .056 .3 C .09 .40600003 .156 .43100003 .19000001 .43100003 C .209 .43100003 .244 .42200003 .244 .36400003 C .244 .33300004 .22700002 .26600004 .19000001 .126 C .17400001 .064 .13900002 .022000002 .095000009 .022000002 C .08900001 .022000002 .06600001 .022000002 .045 .035 C .07000001 .040000004 .09200001 .061 .09200001 .089 C .09200001 .116000007 .07000001 .124000009 .055000009 .124000009 C .025 .124000009 0 .098000008 0 .06600001 C 0 .020000002 .050000006 0 .094000007 0 C .16000001 0 .19600001 .07000001 .19900002 .076000008 C .21100001 .039 .24700003 0 .307 0 C .41 0 .467 .12900001 .467 .15400002 C .467 .16400002 .458 .16400002 .455 .16400002 C .446 .16400002 .444 .16000001 .442 .15300001 C .409 .046 .341 .022000002 .30900003 .022000002 C .27 .022000002 .254 .054 .254 .08800001 C .254 .11000001 .26 .13200002 .271 .17600002 L .305 .31300003 Z "/>
</symbol>
<use xlink:href="#font_3_2" transform="matrix(9.9626,0,0,-9.9626,99.65592,156.5846)"/>
<path transform="matrix(1,0,0,-1,9.759,174.627)" stroke-width="1" stroke-linecap="butt" stroke-miterlimit="10" stroke-linejoin="miter" fill="none" stroke="#000000" d="M 108.80023 39.72702 C 109.54744 40.1006 110.04558 40.97237 110.04558 42.21771 L 110.04558 71.99747 C 110.04558 73.24281 110.5437 74.11458 111.29092 74.48816 C 110.5437 74.86176 110.04558 75.7335 110.04558 76.97885 L 110.04558 106.75862 C 110.04558 108.00397 109.54744 108.87573 108.80023 109.24931 "/>
<symbol id="font_3_1">
<path d="M .33900006 .38500003 C .311 .38400004 .291 .36200003 .291 .34000004 C .291 .32600004 .3 .31100003 .32200004 .31100003 C .34400005 .31100003 .36800004 .328 .36800004 .367 C .36800004 .41200004 .325 .45300005 .24900003 .45300005 C .11700001 .45300005 .08 .351 .08 .307 C .08 .22900002 .15400002 .21400002 .18300002 .20800002 C .235 .19800002 .287 .18700002 .287 .13200002 C .287 .106000009 .264 .022000002 .14400001 .022000002 C .13000001 .022000002 .053000004 .022000002 .030000002 .075 C .068 .07000001 .09300001 .1 .09300001 .128 C .09300001 .15100001 .07700001 .16300002 .056 .16300002 C .030000002 .16300002 0 .14200002 0 .097 C 0 .040000004 .057000005 0 .143 0 C .305 0 .34400005 .12100001 .34400005 .16600001 C .34400005 .20200002 .325 .22700002 .31300003 .23900002 C .286 .26700003 .25700004 .272 .21300002 .28100003 C .17700002 .28900004 .13700001 .29600004 .13700001 .34100003 C .13700001 .37000004 .16100002 .43100003 .24900003 .43100003 C .274 .43100003 .324 .42400003 .33900006 .38500003 Z "/>
</symbol>
<use xlink:href="#font_3_1" transform="matrix(9.9626,0,0,-9.9626,122.73706,95.71759)"/>
<symbol id="font_3_3">
<path d="M .45700003 .586 C .461 .6 .461 .602 .461 .609 C .461 .62700006 .447 .63600006 .432 .63600006 C .42200003 .63600006 .40600003 .63 .397 .615 C .395 .61 .387 .579 .38300003 .561 C .37600003 .535 .36900003 .508 .363 .48100005 L .318 .301 C .314 .286 .271 .21600002 .20500002 .21600002 C .15400002 .21600002 .143 .26000003 .143 .29700003 C .143 .34300003 .16000001 .40500004 .194 .49300004 C .21000001 .53400006 .21400002 .545 .21400002 .56500008 C .21400002 .61 .18200001 .6470001 .13200002 .6470001 C .037 .6470001 0 .50200006 0 .49300004 C 0 .48300005 .01 .48300005 .012 .48300005 C .022000002 .48300005 .023 .485 .028000003 .50100007 C .055000009 .595 .095000009 .625 .12900001 .625 C .13700001 .625 .15400002 .625 .15400002 .59300008 C .15400002 .568 .14400001 .54200008 .13700001 .523 C .097 .41700004 .079 .36 .079 .31300003 C .079 .224 .142 .194 .201 .194 C .24000003 .194 .274 .21100001 .30200003 .23900002 C .289 .187 .277 .13800001 .237 .08500001 C .21100001 .051 .17300001 .022 .127 .022 C .113000009 .022 .068 .025000006 .051000008 .06400001 C .067 .06400001 .080000009 .06400001 .094000007 .076000008 C .104 .08500001 .11400001 .098000008 .11400001 .117000009 C .11400001 .148 .087000008 .15200001 .07700001 .15200001 C .054000006 .15200001 .021 .136 .021 .087000008 C .021 .037 .065000008 0 .127 0 C .23 0 .333 .091000009 .361 .20400001 L .45700003 .586 Z "/>
</symbol>
<use xlink:href="#font_3_3" transform="matrix(9.9626,0,0,-9.9626,126.49392,62.317335)" fill="#800000"/>
<symbol id="font_2_6">
<path d="M .63100007 .19400002 C .646 .19400002 .665 .19400002 .665 .214 C .665 .23400001 .646 .23400001 .632 .23400001 L .033 .23400001 C .019000002 .23400001 0 .23400001 0 .214 C 0 .19400002 .019000002 .19400002 .034 .19400002 L .63100007 .19400002 M .632 0 C .646 0 .665 0 .665 .02000001 C .665 .040000008 .646 .040000008 .63100007 .040000008 L .034 .040000008 C .019000002 .040000008 0 .040000008 0 .02000001 C 0 0 .019000002 0 .033 0 L .632 0 Z "/>
</symbol>
<use xlink:href="#font_2_6" transform="matrix(9.9626,0,0,-9.9626,134.77191,58.949975)" fill="#800000"/>
<symbol id="font_4_2">
<path d="M .316 .10500002 L .14000002 .49400003 C .13300002 .51 .12799999 .51 .125 .51 C .124000009 .51 .118999999 .51 .108 .502 L .012999997 .43 C 0 .42000003 0 .417 0 .41400004 C 0 .40900005 .0029999987 .403 .009999998 .403 C .015999996 .403 .033 .417 .044 .425 C .049999998 .43 .065000008 .44099999 .076 .449 L .273 .015999973 C .28 0 .285 0 .294 0 C .30900003 0 .312 .0059999825 .319 .01999998 L .773 .96000006 C .78000006 .97400006 .78000006 .97800007 .78000006 .98 C .78000006 .99 .772 1 .76000007 1 C .75200006 1 .745 .99500009 .73700007 .97900006 L .316 .10500002 Z "/>
</symbol>
<use xlink:href="#font_4_2" transform="matrix(9.9626,0,0,-9.9626,145.45728,61.5261)" fill="#800000"/>
<path transform="matrix(1,0,0,-1,153.033,51.763)" stroke-width="1" stroke-linecap="butt" stroke-miterlimit="10" stroke-linejoin="miter" fill="none" stroke="#800000" d="M 0 0 L 22.852 0 "/>
<symbol id="font_2_5">
<path d="M .266 .165 L .266 .078 C .266 .042000005 .26400004 .031000002 .19000001 .031000002 L .16900002 .031000002 L .16900002 0 C .21000001 .003 .26200003 .003 .30400003 .003 C .34600003 .003 .39900003 .003 .44000004 0 L .44000004 .031000002 L .41900004 .031000002 C .34500004 .031000002 .34300003 .042000005 .34300003 .078 L .34300003 .165 L .44300003 .165 L .44300003 .19600001 L .34300003 .19600001 L .34300003 .651 C .34300003 .671 .34300003 .67700007 .32700003 .67700007 C .31800003 .67700007 .31500004 .67700007 .307 .665 L 0 .19600001 L 0 .165 L .266 .165 M .272 .19600001 L .028 .19600001 L .272 .569 L .272 .19600001 Z "/>
</symbol>
<use xlink:href="#font_2_5" transform="matrix(9.9626,0,0,-9.9626,153.31195,60.275)" fill="#800000"/>
<symbol id="font_4_1">
<path d="M .57600006 0 C .59300008 0 .611 0 .611 .019999996 C .611 .040000008 .59300008 .040000008 .57600006 .040000008 L .035000005 .040000008 C .018 .040000008 0 .040000008 0 .019999996 C 0 0 .018 0 .035000005 0 L .57600006 0 Z "/>
</symbol>
<use xlink:href="#font_4_1" transform="matrix(9.9626,0,0,-9.9626,161.0549,57.983606)" fill="#800000"/>
<use xlink:href="#font_3_2" transform="matrix(9.9626,0,0,-9.9626,170.47893,60.38459)" fill="#800000"/>
<use xlink:href="#font_3_3" transform="matrix(9.9626,0,0,-9.9626,122.61992,149.21933)" fill="#000080"/>
<use xlink:href="#font_2_6" transform="matrix(9.9626,0,0,-9.9626,130.8979,145.85198)" fill="#000080"/>
<use xlink:href="#font_4_1" transform="matrix(9.9626,0,0,-9.9626,141.68289,144.8856)" fill="#000080"/>
<use xlink:href="#font_4_2" transform="matrix(9.9626,0,0,-9.9626,149.33226,148.42812)" fill="#000080"/>
<path transform="matrix(1,0,0,-1,156.907,138.66501)" stroke-width="1" stroke-linecap="butt" stroke-miterlimit="10" stroke-linejoin="miter" fill="none" stroke="#000080" d="M 0 0 L 22.852 0 "/>
<use xlink:href="#font_2_5" transform="matrix(9.9626,0,0,-9.9626,157.18595,147.177)" fill="#000080"/>
<use xlink:href="#font_4_1" transform="matrix(9.9626,0,0,-9.9626,164.9289,144.8856)" fill="#000080"/>
<use xlink:href="#font_3_2" transform="matrix(9.9626,0,0,-9.9626,174.35391,147.28659)" fill="#000080"/>
</g>
<use xlink:href="#font_4_1" transform="matrix(9.9626,0,0,-9.9626,4.220896,109.98761)"/>
<symbol id="font_2_2">
<path d="M .205 .64000007 C .205 .66400006 .205 .666 .18200003 .666 C .120000008 .60200008 .032000007 .60200008 0 .60200008 L 0 .57100006 C .020000004 .57100006 .07900001 .57100006 .13100001 .597 L .13100001 .079 C .13100001 .043 .128 .031000002 .038000004 .031000002 L .0060000049 .031000002 L .0060000049 0 C .04100001 .003 .128 .003 .168 .003 C .20800002 .003 .29500003 .003 .33000005 0 L .33000005 .031000002 L .29800005 .031000002 C .20800002 .031000002 .205 .042000005 .205 .079 L .205 .64000007 Z "/>
</symbol>
<use xlink:href="#font_2_2" transform="matrix(9.9626,0,0,-9.9626,12.029671,112.27901)"/>
<use xlink:href="#font_2_2" transform="matrix(9.9626,0,0,-9.9626,78.797679,112.27901)"/>
<symbol id="font_2_3">
<path d="M .07700001 .07700001 L .18300002 .18 C .33900003 .31800003 .39900003 .372 .39900003 .47200004 C .39900003 .586 .30900003 .666 .18700002 .666 C .074 .666 0 .574 0 .485 C 0 .42900003 .05 .42900003 .053000008 .42900003 C .07000001 .42900003 .105000007 .441 .105000007 .48200003 C .105000007 .508 .08700001 .53400006 .052000006 .53400006 C .044000005 .53400006 .042000008 .53400006 .039 .53300008 C .062000004 .59800007 .11600001 .63500007 .17400001 .63500007 C .26500003 .63500007 .308 .554 .308 .47200004 C .308 .39200003 .25800003 .31300003 .20300003 .25100003 L .011000004 .037 C 0 .026 0 .024 0 0 L .37100003 0 L .39900003 .17400001 L .374 .17400001 C .36900003 .14400001 .36200003 .1 .352 .085 C .345 .07700001 .279 .07700001 .257 .07700001 L .07700001 .07700001 Z "/>
</symbol>
<use xlink:href="#font_2_3" transform="matrix(9.9626,0,0,-9.9626,113.73113,112.27901)"/>
<symbol id="font_2_4">
<path d="M .24800003 .37400005 C .33 .40100003 .388 .47100006 .388 .55 C .388 .632 .3 .688 .204 .688 C .10300001 .688 .027000003 .628 .027000003 .55200007 C .027000003 .519 .049000004 .5 .078 .5 C .109000008 .5 .12900001 .522 .12900001 .55100008 C .12900001 .6010001 .082 .6010001 .067 .6010001 C .098 .65000006 .164 .66300007 .20000002 .66300007 C .24100003 .66300007 .29600004 .64100006 .29600004 .55100008 C .29600004 .53900006 .29400004 .48100005 .268 .43700005 C .238 .38900004 .204 .38600005 .17900002 .38500003 C .171 .38400004 .14700002 .38200004 .14000002 .38200004 C .132 .38100005 .125 .38000003 .125 .37000004 C .125 .35900004 .132 .35900004 .14900002 .35900004 L .19300002 .35900004 C .275 .35900004 .312 .29100005 .312 .193 C .312 .057000005 .24300003 .028 .199 .028 C .15600002 .028 .081 .045 .046000005 .104 C .081 .09900001 .11200001 .12100001 .11200001 .15900001 C .11200001 .19500001 .085 .215 .056 .215 C .031999999 .215 0 .201 0 .157 C 0 .06600001 .093 0 .20200002 0 C .32400004 0 .41500003 .091000009 .41500003 .193 C .41500003 .27500005 .35200004 .35300005 .24800003 .37400005 Z "/>
</symbol>
<use xlink:href="#font_2_4" transform="matrix(9.9626,0,0,-9.9626,148.97243,112.498188)"/>
<use xlink:href="#font_2_5" transform="matrix(9.9626,0,0,-9.9626,184.15395,112.27901)"/>
<use xlink:href="#font_4_1" transform="matrix(9.9626,0,0,-9.9626,27.457898,150.3016)"/>
<use xlink:href="#font_2_3" transform="matrix(9.9626,0,0,-9.9626,34.87813,152.593)"/>
<use xlink:href="#font_2_3" transform="matrix(9.9626,0,0,-9.9626,34.87813,53.692)"/>
<use xlink:href="#font_3_2" transform="matrix(9.9626,0,0,-9.9626,207.95192,102.37758)"/>
<use xlink:href="#font_3_3" transform="matrix(9.9626,0,0,-9.9626,42.753915,9.726339)"/>
<path transform="matrix(1,0,0,-1,9.759,174.627)" stroke-width="1" stroke-linecap="butt" stroke-miterlimit="10" stroke-linejoin="miter" fill="none" stroke="#808080" d="M 0 72.36223 L 0 76.61409 M 70.64359 72.36223 L 70.64359 76.61409 M 105.96538 72.36223 L 105.96538 76.61409 M 141.28719 72.36223 L 141.28719 76.61409 M 176.60898 72.36223 L 176.60898 76.61409 "/>
<path transform="matrix(1,0,0,-1,9.759,174.627)" stroke-width="1" stroke-linecap="butt" stroke-miterlimit="10" stroke-linejoin="miter" fill="none" stroke="#808080" d="M 33.19577 24.82938 L 37.44778 24.82938 M 33.19577 124.14694 L 37.44778 124.14694 "/>
<path transform="matrix(1,0,0,-1,9.759,174.627)" stroke-width="1" stroke-linecap="butt" stroke-miterlimit="10" stroke-linejoin="miter" fill="none" stroke="#000000" d="M 0 74.48816 L 192.27735 74.48816 "/>
<path transform="matrix(1,0,0,-1,202.03635,100.13884)" d="M 1.99252 0 L -1.19551 1.59401 L 0 0 L -1.19551 -1.59401 "/>
<path transform="matrix(1,0,0,-1,9.759,174.627)" stroke-width="1" stroke-linecap="butt" stroke-miterlimit="10" stroke-linejoin="miter" fill="none" stroke="#000000" d="M 35.3218 0 L 35.3218 159.39852 "/>
<path transform="matrix(0,-1,-1,-0,45.0808,15.228485)" d="M 1.99252 0 L -1.19551 1.59401 L 0 0 L -1.19551 -1.59401 "/>
</svg>
