<?xml version="1.0" encoding="UTF-8" standalone="no"?>
<!DOCTYPE svg PUBLIC "-//W3C//DTD SVG 1.1//EN" "http://www.w3.org/Graphics/SVG/1.1/DTD/svg11.dtd">
<svg xmlns="http://www.w3.org/2000/svg" xmlns:xlink="http://www.w3.org/1999/xlink" version="1.1" width="216.797pt" height="174.828pt" viewBox="0 0 216.797 174.828">
<clipPath id="cp0">
<path transform="matrix(1,0,0,-1,-378.777,174.629)" d="M 388.54158 0 L 582.8148 0 L 582.8148 161.39104 L 388.54158 161.39104 Z "/>
</clipPath>
<g clip-path="url(#cp0)">
<path transform="matrix(1,0,0,-1,-378.777,174.629)" stroke-width="1.19553" stroke-linecap="butt" stroke-miterlimit="10" stroke-linejoin="miter" fill="none" stroke="#800000" d="M 247.25197 0 C 247.25197 0 290.57563 5.23228 306.0611 7.24188 C 321.5466 9.25148 345.04273 12.47417 358.8606 14.48376 C 372.67848 16.49336 393.50047 19.71606 405.65068 21.72566 C 417.80088 23.73524 435.94828 26.95795 446.43074 28.96754 C 456.91325 30.97714 472.38636 34.19984 481.2012 36.20943 C 490.01603 38.21902 502.8148 41.44173 509.96199 43.45132 C 517.10916 45.46092 527.2336 48.68361 532.7131 50.6932 C 538.19259 52.7028 545.64266 55.9255 549.4545 57.9351 C 553.26638 59.94469 558.04208 63.16739 560.1862 65.17699 C 562.3304 67.18658 564.43179 70.40927 564.90829 72.41887 C 565.38479 74.42847 564.8118 77.65117 563.62069 79.66077 C 562.4295 81.67035 559.18209 84.89305 556.32327 86.90265 C 553.4645 88.91225 547.5427 92.13495 543.01626 94.14453 C 538.4898 96.15413 529.89376 99.37683 523.6996 101.38643 C 517.50546 103.39603 506.23503 106.61871 498.3732 108.62831 C 490.5114 110.63791 476.56669 113.86061 467.0372 115.87021 C 457.5077 117.87979 440.88847 121.1025 429.6913 123.11209 C 418.49415 125.12169 399.20069 128.34438 386.33589 130.35398 C 373.47108 132.36357 351.50325 135.58628 336.9708 137.59587 C 322.43836 139.60546 297.79615 142.82816 281.596 144.83776 C 265.39595 146.84735 238.07946 150.07006 220.21164 152.07964 C 202.34383 154.08924 172.35272 157.31194 152.81725 159.32154 C 133.28176 161.33113 100.61652 164.55382 79.4134 166.56342 C 58.2103 168.57302 0 173.80532 0 173.80532 "/>
<path transform="matrix(1,0,0,-1,-378.777,174.629)" d="M 423.86399 31.95541 L 459.1864 31.95541 L 459.1864 117.0209 L 423.86399 117.0209 L 423.86399 31.95541 " fill="#cccce6"/>
<path transform="matrix(1,0,0,-1,-378.777,174.629)" stroke-width="1.19553" stroke-linecap="butt" stroke-miterlimit="10" stroke-linejoin="miter" fill="none" stroke="#000080" d="M 423.86399 31.95541 L 459.1864 31.95541 L 459.1864 117.0209 L 423.86399 117.0209 L 423.86399 31.95541 "/>
<path transform="matrix(1,0,0,-1,-378.777,174.629)" d="M 459.1864 39.72702 L 494.5088 39.72702 L 494.5088 109.24931 L 459.1864 109.24931 L 459.1864 39.72702 " fill="#bfbfbf"/>
<path transform="matrix(1,0,0,-1,-378.777,174.629)" stroke-width="1.19553" stroke-linecap="butt" stroke-miterlimit="10" stroke-linejoin="miter" fill="none" stroke="#000080" d="M 459.1864 39.72702 L 494.5088 39.72702 L 494.5088 109.24931 L 459.1864 109.24931 L 459.1864 39.72702 "/>
<path transform="matrix(1,0,0,-1,-378.777,174.629)" d="M 494.5088 49.65877 L 529.8312 49.65877 L 529.8312 99.31755 L 494.5088 99.31755 L 494.5088 49.65877 " fill="#cccce6"/>
<path transform="matrix(1,0,0,-1,-378.777,174.629)" stroke-width="1.19553" stroke-linecap="butt" stroke-miterlimit="10" stroke-linejoin="miter" fill="none" stroke="#000080" d="M 494.5088 49.65877 L 529.8312 49.65877 L 529.8312 99.31755 L 494.5088 99.31755 L 494.5088 49.65877 "/>
<path transform="matrix(1,0,0,-1,-378.777,174.629)" stroke-width="1" stroke-linecap="butt" stroke-miterlimit="10" stroke-linejoin="miter" fill="none" stroke="#000000" d="M 459.1864 29.80547 C 459.55998 29.05826 460.43174 28.56012 461.6771 28.56012 L 474.3569 28.56012 C 475.60227 28.56012 476.474 28.062 476.8476 27.31477 C 477.2212 28.062 478.09294 28.56012 479.3383 28.56012 L 492.0181 28.56012 C 493.26344 28.56012 494.13523 29.05826 494.5088 29.80547 "/>
<symbol id="font_1_1">
<path d="M .39500005 .698 C .38800005 .711 .38600005 .716 .36900003 .716 C .35200004 .716 .35000003 .711 .34300003 .698 L .004999999 .020000002 C 0 .011000001 0 .009000001 0 .008 C 0 0 .006000001 0 .022000004 0 L .716 0 C .73200008 0 .73800006 0 .73800006 .008 C .73800006 .009000001 .73800006 .011000001 .73300006 .020000002 L .39500005 .698 M .337 .61600008 L .60600009 .076000008 L .067 .076000008 L .337 .61600008 Z "/>
</symbol>
<use xlink:href="#font_1_1" transform="matrix(9.9626,0,0,-9.9626,91.53422,156.47699)"/>
<symbol id="font_2_2">
<path d="M .305 .31300003 C .311 .33900003 .334 .43100003 .404 .43100003 C .409 .43100003 .433 .43100003 .454 .418 C .426 .41300003 .40600003 .388 .40600003 .36400003 C .40600003 .34800003 .417 .32900004 .444 .32900004 C .46600003 .32900004 .498 .34700004 .498 .38700003 C .498 .43900005 .439 .45300005 .405 .45300005 C .347 .45300005 .312 .40000005 .3 .37700004 C .275 .44300003 .221 .45300005 .19200002 .45300005 C .08800001 .45300005 .031000002 .32400004 .031000002 .29900003 C .031000002 .28900004 .041 .28900004 .043000007 .28900004 C .051000008 .28900004 .054000006 .291 .056 .3 C .09 .40600003 .156 .43100003 .19000001 .43100003 C .209 .43100003 .244 .42200003 .244 .36400003 C .244 .33300004 .22700002 .26600004 .19000001 .126 C .17400001 .064 .13900002 .022000002 .095000009 .022000002 C .08900001 .022000002 .06600001 .022000002 .045 .035 C .07000001 .040000004 .09200001 .061 .09200001 .089 C .09200001 .116000007 .07000001 .124000009 .055000009 .124000009 C .025 .124000009 0 .098000008 0 .06600001 C 0 .020000002 .050000006 0 .094000007 0 C .16000001 0 .19600001 .07000001 .19900002 .076000008 C .21100001 .039 .24700003 0 .307 0 C .41 0 .467 .12900001 .467 .15400002 C .467 .16400002 .458 .16400002 .455 .16400002 C .446 .16400002 .444 .16000001 .442 .15300001 C .409 .046 .341 .022000002 .30900003 .022000002 C .27 .022000002 .254 .054 .254 .08800001 C .254 .11000001 .26 .13200002 .271 .17600002 L .305 .31300003 Z "/>
</symbol>
<use xlink:href="#font_2_2" transform="matrix(9.9626,0,0,-9.9626,99.6569,156.58658)"/>
<path transform="matrix(1,0,0,-1,-378.777,174.629)" stroke-width="1" stroke-linecap="butt" stroke-miterlimit="10" stroke-linejoin="miter" fill="none" stroke="#000000" d="M 456.35157 39.72702 C 455.60435 40.1006 455.1062 40.97237 455.1062 42.21771 L 455.1062 71.99747 C 455.1062 73.24281 454.6081 74.11458 453.86088 74.48816 C 454.6081 74.86176 455.1062 75.7335 455.1062 76.97885 L 455.1062 106.75862 C 455.1062 108.00397 455.60435 108.87573 456.35157 109.24931 "/>
<symbol id="font_2_1">
<path d="M .33900006 .38500003 C .311 .38400004 .291 .36200003 .291 .34000004 C .291 .32600004 .3 .31100003 .32200004 .31100003 C .34400005 .31100003 .36800004 .328 .36800004 .367 C .36800004 .41200004 .325 .45300005 .24900003 .45300005 C .11700001 .45300005 .08 .351 .08 .307 C .08 .22900002 .15400002 .21400002 .18300002 .20800002 C .235 .19800002 .287 .18700002 .287 .13200002 C .287 .106000009 .264 .022000002 .14400001 .022000002 C .13000001 .022000002 .053000004 .022000002 .030000002 .075 C .068 .07000001 .09300001 .1 .09300001 .128 C .09300001 .15100001 .07700001 .16300002 .056 .16300002 C .030000002 .16300002 0 .14200002 0 .097 C 0 .040000004 .057000005 0 .143 0 C .305 0 .34400005 .12100001 .34400005 .16600001 C .34400005 .20200002 .325 .22700002 .31300003 .23900002 C .286 .26700003 .25700004 .272 .21300002 .28100003 C .17700002 .28900004 .13700001 .29600004 .13700001 .34100003 C .13700001 .37000004 .16100002 .43100003 .24900003 .43100003 C .274 .43100003 .324 .42400003 .33900006 .38500003 Z "/>
</symbol>
<use xlink:href="#font_2_1" transform="matrix(9.9626,0,0,-9.9626,69.756069,95.71959)"/>
<use xlink:href="#font_2_2" transform="matrix(9.9626,0,0,-9.9626,128.4129,147.03759)" fill="#800000"/>
<symbol id="font_1_6">
<path d="M .63100007 .19400002 C .646 .19400002 .665 .19400002 .665 .214 C .665 .23400001 .646 .23400001 .632 .23400001 L .033 .23400001 C .019000002 .23400001 0 .23400001 0 .214 C 0 .19400002 .019000002 .19400002 .034 .19400002 L .63100007 .19400002 M .632 0 C .646 0 .665 0 .665 .02000001 C .665 .040000008 .646 .040000008 .63100007 .040000008 L .034 .040000008 C .019000002 .040000008 0 .040000008 0 .02000001 C 0 0 .019000002 0 .033 0 L .632 0 Z "/>
</symbol>
<symbol id="font_1_5">
<path d="M .266 .165 L .266 .078 C .266 .042000005 .26400004 .031000002 .19000001 .031000002 L .16900002 .031000002 L .16900002 0 C .21000001 .003 .26200003 .003 .30400003 .003 C .34600003 .003 .39900003 .003 .44000004 0 L .44000004 .031000002 L .41900004 .031000002 C .34500004 .031000002 .34300003 .042000005 .34300003 .078 L .34300003 .165 L .44300003 .165 L .44300003 .19600001 L .34300003 .19600001 L .34300003 .651 C .34300003 .671 .34300003 .67700007 .32700003 .67700007 C .31800003 .67700007 .31500004 .67700007 .307 .665 L 0 .19600001 L 0 .165 L .266 .165 M .272 .19600001 L .028 .19600001 L .272 .569 L .272 .19600001 Z "/>
</symbol>
<use xlink:href="#font_1_6" transform="matrix(9.9626,0,0,-9.9626,137.1429,145.60297)" fill="#800000"/>
<use xlink:href="#font_1_5" transform="matrix(9.9626,0,0,-9.9626,147.38445,146.928)" fill="#800000"/>
<symbol id="font_3_1">
<path d="M .57600006 0 C .59300008 0 .611 0 .611 .019999996 C .611 .040000008 .59300008 .040000008 .57600006 .040000008 L .035000005 .040000008 C .018 .040000008 0 .040000008 0 .019999996 C 0 0 .018 0 .035000005 0 L .57600006 0 Z "/>
</symbol>
<use xlink:href="#font_3_1" transform="matrix(9.9626,0,0,-9.9626,155.12288,144.6366)" fill="#800000"/>
<symbol id="font_2_3">
<path d="M .45700003 .586 C .461 .6 .461 .602 .461 .609 C .461 .62700006 .447 .63600006 .432 .63600006 C .42200003 .63600006 .40600003 .63 .397 .615 C .395 .61 .387 .579 .38300003 .561 C .37600003 .535 .36900003 .508 .363 .48100005 L .318 .301 C .314 .286 .271 .21600002 .20500002 .21600002 C .15400002 .21600002 .143 .26000003 .143 .29700003 C .143 .34300003 .16000001 .40500004 .194 .49300004 C .21000001 .53400006 .21400002 .545 .21400002 .56500008 C .21400002 .61 .18200001 .6470001 .13200002 .6470001 C .037 .6470001 0 .50200006 0 .49300004 C 0 .48300005 .01 .48300005 .012 .48300005 C .022000002 .48300005 .023 .485 .028000003 .50100007 C .055000009 .595 .095000009 .625 .12900001 .625 C .13700001 .625 .15400002 .625 .15400002 .59300008 C .15400002 .568 .14400001 .54200008 .13700001 .523 C .097 .41700004 .079 .36 .079 .31300003 C .079 .224 .142 .194 .201 .194 C .24000003 .194 .274 .21100001 .30200003 .23900002 C .289 .187 .277 .13800001 .237 .08500001 C .21100001 .051 .17300001 .022 .127 .022 C .113000009 .022 .068 .025000006 .051000008 .06400001 C .067 .06400001 .080000009 .06400001 .094000007 .076000008 C .104 .08500001 .11400001 .098000008 .11400001 .117000009 C .11400001 .148 .087000008 .15200001 .07700001 .15200001 C .054000006 .15200001 .021 .136 .021 .087000008 C .021 .037 .065000008 0 .127 0 C .23 0 .333 .091000009 .361 .20400001 L .45700003 .586 Z "/>
</symbol>
<use xlink:href="#font_2_3" transform="matrix(9.9626,0,0,-9.9626,164.5479,148.97032)" fill="#800000"/>
<symbol id="font_4_1">
<path d="M .442 .18200001 L .40800003 .18200001 C .40500004 .16000001 .39500005 .101 .38200004 .091000009 C .374 .085 .29700003 .085 .28300003 .085 L .099 .085 C .20400003 .178 .23900002 .20600002 .29900003 .25300003 C .37300004 .312 .442 .374 .442 .469 C .442 .59000006 .33600004 .66400006 .20800004 .66400006 C .084 .66400006 0 .577 0 .485 C 0 .43400003 .043000007 .42900003 .053000004 .42900003 C .077 .42900003 .10600001 .446 .10600001 .48200003 C .10600001 .5 .099 .535 .047000007 .535 C .078 .606 .146 .628 .19300002 .628 C .293 .628 .34500004 .55 .34500004 .469 C .34500004 .38200004 .28300003 .31300003 .25100003 .277 L .010000005 .039 C 0 .030000002 0 .028 0 0 L .41200004 0 L .442 .18200001 Z "/>
</symbol>
<use xlink:href="#font_4_1" transform="matrix(6.9738,0,0,-6.9738,169.94034,142.814)" fill="#800000"/>
</g>
<path transform="matrix(1,0,0,-1,-378.777,174.629)" stroke-width="1" stroke-linecap="butt" stroke-miterlimit="10" stroke-linejoin="miter" fill="none" stroke="#808080" d="M 388.54158 72.36223 L 388.54158 76.61409 M 459.1864 72.36223 L 459.1864 76.61409 M 494.5088 72.36223 L 494.5088 76.61409 M 529.8312 72.36223 L 529.8312 76.61409 M 565.1536 72.36223 L 565.1536 76.61409 "/>
<path transform="matrix(1,0,0,-1,-378.777,174.629)" stroke-width="1" stroke-linecap="butt" stroke-miterlimit="10" stroke-linejoin="miter" fill="none" stroke="#808080" d="M 421.73805 24.82938 L 425.98994 24.82938 M 421.73805 124.14694 L 425.98994 124.14694 "/>
<path transform="matrix(1,0,0,-1,-378.777,174.629)" stroke-width="1" stroke-linecap="butt" stroke-miterlimit="10" stroke-linejoin="miter" fill="none" stroke="#000000" d="M 388.54158 74.48816 L 580.82229 74.48816 "/>
<path transform="matrix(1,0,0,-1,202.04526,100.14084)" d="M 1.99252 0 L -1.19551 1.59401 L 0 0 L -1.19551 -1.59401 "/>
<path transform="matrix(1,0,0,-1,-378.777,174.629)" stroke-width="1" stroke-linecap="butt" stroke-miterlimit="10" stroke-linejoin="miter" fill="none" stroke="#000000" d="M 423.86399 0 L 423.86399 159.39852 "/>
<path transform="matrix(0,-1,-1,-0,45.086977,15.230484)" d="M 1.99252 0 L -1.19551 1.59401 L 0 0 L -1.19551 -1.59401 "/>
<use xlink:href="#font_3_1" transform="matrix(9.9626,0,0,-9.9626,4.2208778,109.98961)"/>
<symbol id="font_1_2">
<path d="M .205 .64000007 C .205 .66400006 .205 .666 .18200003 .666 C .120000008 .60200008 .032000007 .60200008 0 .60200008 L 0 .57100006 C .020000004 .57100006 .07900001 .57100006 .13100001 .597 L .13100001 .079 C .13100001 .043 .128 .031000002 .038000004 .031000002 L .0060000049 .031000002 L .0060000049 0 C .04100001 .003 .128 .003 .168 .003 C .20800002 .003 .29500003 .003 .33000005 0 L .33000005 .031000002 L .29800005 .031000002 C .20800002 .031000002 .205 .042000005 .205 .079 L .205 .64000007 Z "/>
</symbol>
<use xlink:href="#font_1_2" transform="matrix(9.9626,0,0,-9.9626,12.029653,112.281009)"/>
<use xlink:href="#font_1_2" transform="matrix(9.9626,0,0,-9.9626,78.79967,112.281009)"/>
<symbol id="font_1_3">
<path d="M .07700001 .07700001 L .18300002 .18 C .33900003 .31800003 .39900003 .372 .39900003 .47200004 C .39900003 .586 .30900003 .666 .18700002 .666 C .074 .666 0 .574 0 .485 C 0 .42900003 .05 .42900003 .053000008 .42900003 C .07000001 .42900003 .105000007 .441 .105000007 .48200003 C .105000007 .508 .08700001 .53400006 .052000006 .53400006 C .044000005 .53400006 .042000008 .53400006 .039 .53300008 C .062000004 .59800007 .11600001 .63500007 .17400001 .63500007 C .26500003 .63500007 .308 .554 .308 .47200004 C .308 .39200003 .25800003 .31300003 .20300003 .25100003 L .011000004 .037 C 0 .026 0 .024 0 0 L .37100003 0 L .39900003 .17400001 L .374 .17400001 C .36900003 .14400001 .36200003 .1 .352 .085 C .345 .07700001 .279 .07700001 .257 .07700001 L .07700001 .07700001 Z "/>
</symbol>
<use xlink:href="#font_1_3" transform="matrix(9.9626,0,0,-9.9626,113.733119,112.281009)"/>
<symbol id="font_1_4">
<path d="M .24800003 .37400005 C .33 .40100003 .388 .47100006 .388 .55 C .388 .632 .3 .688 .204 .688 C .10300001 .688 .027000003 .628 .027000003 .55200007 C .027000003 .519 .049000004 .5 .078 .5 C .109000008 .5 .12900001 .522 .12900001 .55100008 C .12900001 .6010001 .082 .6010001 .067 .6010001 C .098 .65000006 .164 .66300007 .20000002 .66300007 C .24100003 .66300007 .29600004 .64100006 .29600004 .55100008 C .29600004 .53900006 .29400004 .48100005 .268 .43700005 C .238 .38900004 .204 .38600005 .17900002 .38500003 C .171 .38400004 .14700002 .38200004 .14000002 .38200004 C .132 .38100005 .125 .38000003 .125 .37000004 C .125 .35900004 .132 .35900004 .14900002 .35900004 L .19300002 .35900004 C .275 .35900004 .312 .29100005 .312 .193 C .312 .057000005 .24300003 .028 .199 .028 C .15600002 .028 .081 .045 .046000005 .104 C .081 .09900001 .11200001 .12100001 .11200001 .15900001 C .11200001 .19500001 .085 .215 .056 .215 C .031999999 .215 0 .201 0 .157 C 0 .06600001 .093 0 .20200002 0 C .32400004 0 .41500003 .091000009 .41500003 .193 C .41500003 .27500005 .35200004 .35300005 .24800003 .37400005 Z "/>
</symbol>
<use xlink:href="#font_1_4" transform="matrix(9.9626,0,0,-9.9626,148.9744,112.50018)"/>
<use xlink:href="#font_1_5" transform="matrix(9.9626,0,0,-9.9626,184.15697,112.281009)"/>
<use xlink:href="#font_3_1" transform="matrix(9.9626,0,0,-9.9626,27.458886,150.3036)"/>
<use xlink:href="#font_1_3" transform="matrix(9.9626,0,0,-9.9626,34.87912,152.595)"/>
<use xlink:href="#font_1_3" transform="matrix(9.9626,0,0,-9.9626,34.879114,53.694)"/>
<use xlink:href="#font_2_2" transform="matrix(9.9626,0,0,-9.9626,207.99793,102.38559)"/>
<use xlink:href="#font_2_3" transform="matrix(9.9626,0,0,-9.9626,42.817907,9.726324)"/>
</svg>
