<?xml version="1.0" encoding="UTF-8" standalone="no"?>
<!DOCTYPE svg PUBLIC "-//W3C//DTD SVG 1.1//EN" "http://www.w3.org/Graphics/SVG/1.1/DTD/svg11.dtd">
<svg xmlns="http://www.w3.org/2000/svg" xmlns:xlink="http://www.w3.org/1999/xlink" version="1.1" width="387.554pt" height="171.564pt" viewBox="0 0 387.554 171.564">
<path transform="matrix(1,0,0,-1,.199,171.36499)" stroke-width=".19925" stroke-linecap="butt" stroke-miterlimit="10" stroke-linejoin="miter" fill="none" stroke="#929292" d="M 21.5089 83.458 L 21.5089 87.71017 M 50.18742 83.458 L 50.18742 87.71017 M 78.86595 83.458 L 78.86595 87.71017 M 107.5445 83.458 L 107.5445 87.71017 M 136.22303 83.458 L 136.22303 87.71017 M 164.90155 83.458 L 164.90155 87.71017 M 222.25862 83.458 L 222.25862 87.71017 M 250.93715 83.458 L 250.93715 87.71017 M 279.6157 83.458 L 279.6157 87.71017 M 308.29423 83.458 L 308.29423 87.71017 M 336.97276 83.458 L 336.97276 87.71017 M 365.65129 83.458 L 365.65129 87.71017 "/>
<path transform="matrix(1,0,0,-1,.199,171.36499)" stroke-width=".19925" stroke-linecap="butt" stroke-miterlimit="10" stroke-linejoin="miter" fill="none" stroke="#929292" d="M 191.45412 28.52803 L 195.70604 28.52803 M 191.45412 142.64015 L 195.70604 142.64015 "/>
<path transform="matrix(1,0,0,-1,.199,171.36499)" stroke-width=".3985" stroke-linecap="butt" stroke-miterlimit="10" stroke-linejoin="miter" fill="none" stroke="#000000" d="M 0 85.58409 L 385.16767 85.58409 "/>
<path transform="matrix(1,0,0,-1,385.36668,85.7809)" d="M 1.99252 0 L -1.19551 1.59401 L 0 0 L -1.19551 -1.59401 "/>
<path transform="matrix(1,0,0,-1,.199,171.36499)" stroke-width=".3985" stroke-linecap="butt" stroke-miterlimit="10" stroke-linejoin="miter" fill="none" stroke="#000000" d="M 193.58008 0 L 193.58008 169.17566 "/>
<path transform="matrix(0,-1,-1,-0,193.77909,2.189331)" d="M 1.99252 0 L -1.19551 1.59401 L 0 0 L -1.19551 -1.59401 "/>
<symbol id="font_0_1">
<path d="M .57600006 0 C .59300008 0 .611 0 .611 .019999996 C .611 .040000008 .59300008 .040000008 .57600006 .040000008 L .035000005 .040000008 C .018 .040000008 0 .040000008 0 .019999996 C 0 0 .018 0 .035000005 0 L .57600006 0 Z "/>
</symbol>
<use xlink:href="#font_0_1" transform="matrix(9.9626,0,0,-9.9626,16.169898,95.556598)"/>
<symbol id="font_1_6">
<path d="M .089999999 .35000003 L .089999999 .37400005 C .089999999 .62700006 .21400002 .66300007 .26500003 .66300007 C .28900004 .66300007 .33100004 .65700009 .35300002 .623 C .33800004 .623 .298 .623 .298 .57800009 C .298 .54700008 .32200004 .53200009 .344 .53200009 C .36 .53200009 .39000003 .54100009 .39000003 .58000007 C .39000003 .64000007 .34600003 .688 .263 .688 C .13499999 .688 0 .559 0 .33800004 C 0 .071 .116000007 0 .20900002 0 C .32000003 0 .41500003 .094000007 .41500003 .22600001 C .41500003 .35300005 .32600004 .44900004 .215 .44900004 C .14700002 .44900004 .11000001 .39800004 .089999999 .35000003 M .20900002 .028 C .146 .028 .116000007 .088 .11000001 .103 C .092 .15 .092 .23 .092 .24800001 C .092 .32600004 .124000009 .42600004 .21400002 .42600004 C .23000002 .42600004 .27600003 .42600004 .307 .36400003 C .32500003 .32700003 .32500003 .27600003 .32500003 .22700002 C .32500003 .179 .32500003 .12900001 .30800004 .093 C .27800004 .033000005 .23200003 .028 .20900002 .028 Z "/>
</symbol>
<use xlink:href="#font_1_6" transform="matrix(9.9626,0,0,-9.9626,23.51043,98.06717)"/>
<use xlink:href="#font_0_1" transform="matrix(9.9626,0,0,-9.9626,44.847898,95.556598)"/>
<symbol id="font_1_5">
<path d="M .39900003 .223 C .39900003 .34200005 .317 .44200004 .209 .44200004 C .16100002 .44200004 .118000019 .42600004 .082 .39100004 L .082 .586 C .10200001 .58000007 .135 .573 .16700001 .573 C .29 .573 .36 .66400006 .36 .67700007 C .36 .683 .357 .688 .35 .688 C .349 .688 .347 .688 .342 .68500009 C .322 .67600008 .273 .656 .20600002 .656 C .16600001 .656 .120000008 .66300007 .073 .6840001 C .065 .68700006 .06300001 .68700006 .061000009 .68700006 C .051000004 .68700006 .051000004 .679 .051000004 .66300007 L .051000004 .36700005 C .051000004 .34900005 .051000004 .34100003 .065 .34100003 C .07200001 .34100003 .074 .34400005 .07800001 .35000003 C .08900002 .36600004 .12600002 .42000006 .207 .42000006 C .259 .42000006 .284 .37400005 .292 .35600005 C .308 .31900005 .31 .28000004 .31 .23 C .31 .19500001 .31 .135 .286 .093 C .262 .054000006 .22500001 .028 .17900002 .028 C .106000009 .028 .049000008 .08100001 .032 .14000002 C .035 .13900002 .038000008 .13800001 .049000008 .13800001 C .082 .13800001 .09900001 .163 .09900001 .187 C .09900001 .21100001 .082 .23600002 .049000008 .23600002 C .035 .23600002 0 .22900002 0 .18300002 C 0 .097 .069000009 0 .18100001 0 C .297 0 .39900003 .096 .39900003 .223 Z "/>
</symbol>
<use xlink:href="#font_1_5" transform="matrix(9.9626,0,0,-9.9626,52.26813,98.06717)"/>
<use xlink:href="#font_0_1" transform="matrix(9.9626,0,0,-9.9626,73.525897,95.556598)"/>
<symbol id="font_1_4">
<path d="M .266 .165 L .266 .078 C .266 .042000005 .26400004 .031000002 .19000001 .031000002 L .16900002 .031000002 L .16900002 0 C .21000001 .003 .26200003 .003 .30400003 .003 C .34600003 .003 .39900003 .003 .44000004 0 L .44000004 .031000002 L .41900004 .031000002 C .34500004 .031000002 .34300003 .042000005 .34300003 .078 L .34300003 .165 L .44300003 .165 L .44300003 .19600001 L .34300003 .19600001 L .34300003 .651 C .34300003 .671 .34300003 .67700007 .32700003 .67700007 C .31800003 .67700007 .31500004 .67700007 .307 .665 L 0 .19600001 L 0 .165 L .266 .165 M .272 .19600001 L .028 .19600001 L .272 .569 L .272 .19600001 Z "/>
</symbol>
<use xlink:href="#font_1_4" transform="matrix(9.9626,0,0,-9.9626,80.72695,97.84799)"/>
<use xlink:href="#font_0_1" transform="matrix(9.9626,0,0,-9.9626,102.203899,95.556598)"/>
<symbol id="font_1_3">
<path d="M .24800003 .37400005 C .33 .40100003 .388 .47100006 .388 .55 C .388 .632 .3 .688 .204 .688 C .10300001 .688 .027000003 .628 .027000003 .55200007 C .027000003 .519 .049000004 .5 .078 .5 C .109000008 .5 .12900001 .522 .12900001 .55100008 C .12900001 .6010001 .082 .6010001 .067 .6010001 C .098 .65000006 .164 .66300007 .20000002 .66300007 C .24100003 .66300007 .29600004 .64100006 .29600004 .55100008 C .29600004 .53900006 .29400004 .48100005 .268 .43700005 C .238 .38900004 .204 .38600005 .17900002 .38500003 C .171 .38400004 .14700002 .38200004 .14000002 .38200004 C .132 .38100005 .125 .38000003 .125 .37000004 C .125 .35900004 .132 .35900004 .14900002 .35900004 L .19300002 .35900004 C .275 .35900004 .312 .29100005 .312 .193 C .312 .057000005 .24300003 .028 .199 .028 C .15600002 .028 .081 .045 .046000005 .104 C .081 .09900001 .11200001 .12100001 .11200001 .15900001 C .11200001 .19500001 .085 .215 .056 .215 C .031999999 .215 0 .201 0 .157 C 0 .06600001 .093 0 .20200002 0 C .32400004 0 .41500003 .091000009 .41500003 .193 C .41500003 .27500005 .35200004 .35300005 .24800003 .37400005 Z "/>
</symbol>
<use xlink:href="#font_1_3" transform="matrix(9.9626,0,0,-9.9626,109.544429,98.06717)"/>
<use xlink:href="#font_0_1" transform="matrix(9.9626,0,0,-9.9626,130.8819,95.556598)"/>
<symbol id="font_1_2">
<path d="M .07700001 .07700001 L .18300002 .18 C .33900003 .31800003 .39900003 .372 .39900003 .47200004 C .39900003 .586 .30900003 .666 .18700002 .666 C .074 .666 0 .574 0 .485 C 0 .42900003 .05 .42900003 .053000008 .42900003 C .07000001 .42900003 .105000007 .441 .105000007 .48200003 C .105000007 .508 .08700001 .53400006 .052000006 .53400006 C .044000005 .53400006 .042000008 .53400006 .039 .53300008 C .062000004 .59800007 .11600001 .63500007 .17400001 .63500007 C .26500003 .63500007 .308 .554 .308 .47200004 C .308 .39200003 .25800003 .31300003 .20300003 .25100003 L .011000004 .037 C 0 .026 0 .024 0 0 L .37100003 0 L .39900003 .17400001 L .374 .17400001 C .36900003 .14400001 .36200003 .1 .352 .085 C .345 .07700001 .279 .07700001 .257 .07700001 L .07700001 .07700001 Z "/>
</symbol>
<use xlink:href="#font_1_2" transform="matrix(9.9626,0,0,-9.9626,138.30213,97.84799)"/>
<use xlink:href="#font_0_1" transform="matrix(9.9626,0,0,-9.9626,159.5609,95.556598)"/>
<symbol id="font_1_1">
<path d="M .205 .64000007 C .205 .66400006 .205 .666 .18200003 .666 C .120000008 .60200008 .032000007 .60200008 0 .60200008 L 0 .57100006 C .020000004 .57100006 .07900001 .57100006 .13100001 .597 L .13100001 .079 C .13100001 .043 .128 .031000002 .038000004 .031000002 L .0060000049 .031000002 L .0060000049 0 C .04100001 .003 .128 .003 .168 .003 C .20800002 .003 .29500003 .003 .33000005 0 L .33000005 .031000002 L .29800005 .031000002 C .20800002 .031000002 .205 .042000005 .205 .079 L .205 .64000007 Z "/>
</symbol>
<use xlink:href="#font_1_1" transform="matrix(9.9626,0,0,-9.9626,167.36869,97.84799)"/>
<use xlink:href="#font_1_1" transform="matrix(9.9626,0,0,-9.9626,220.85068,97.84799)"/>
<use xlink:href="#font_1_2" transform="matrix(9.9626,0,0,-9.9626,249.14012,97.84799)"/>
<use xlink:href="#font_1_3" transform="matrix(9.9626,0,0,-9.9626,277.73945,98.06717)"/>
<use xlink:href="#font_1_4" transform="matrix(9.9626,0,0,-9.9626,306.27796,97.84799)"/>
<use xlink:href="#font_1_5" transform="matrix(9.9626,0,0,-9.9626,335.17515,98.06717)"/>
<use xlink:href="#font_1_6" transform="matrix(9.9626,0,0,-9.9626,363.77345,98.06717)"/>
<use xlink:href="#font_0_1" transform="matrix(9.9626,0,0,-9.9626,176.22789,143.34059)"/>
<use xlink:href="#font_1_1" transform="matrix(9.9626,0,0,-9.9626,184.03667,145.63199)"/>
<use xlink:href="#font_1_1" transform="matrix(9.9626,0,0,-9.9626,184.03668,31.936997)"/>
<clipPath id="cp2">
<path transform="matrix(1,0,0,-1,.199,171.36499)" d="M 0 0 L 387.16017 0 L 387.16017 171.16819 L 0 171.16819 Z "/>
</clipPath>
<g clip-path="url(#cp2)">
<path transform="matrix(1,0,0,-1,.199,171.36499)" stroke-width="1.19553" stroke-linecap="butt" stroke-miterlimit="10" stroke-linejoin="miter" fill="none" stroke="#000080" d="M 0 78.87885 C 0 78.87885 11.6552 79.2812 16.13167 79.43573 C 20.60812 79.59026 27.78687 79.83807 32.26334 79.99258 C 36.73979 80.14711 43.91852 80.39478 48.395 80.54945 C 52.87149 80.70413 60.0502 80.95247 64.52669 81.10747 C 69.00317 81.26247 76.1819 81.51138 80.65836 81.66661 C 85.13483 81.82184 92.31357 82.07103 96.79002 82.22633 C 101.2665 82.38164 108.44522 82.63089 112.9217 82.78604 C 117.39818 82.9412 124.5769 83.18938 129.05339 83.34462 C 133.52986 83.49986 140.70859 83.74953 145.18506 83.90492 C 149.66153 84.06032 156.84026 84.30933 161.31673 84.46465 C 165.7932 84.61996 172.97193 84.86905 177.4484 85.02437 C 181.92488 85.17969 189.1036 85.42879 193.58008 85.58409 C 198.05657 85.7394 205.23529 85.9885 209.71176 86.1438 C 214.18822 86.2991 221.36696 86.5482 225.84343 86.70352 C 230.31989 86.85884 237.49861 87.10785 241.9751 87.26324 C 246.45159 87.41864 253.6303 87.66829 258.10679 87.82353 C 262.58329 87.97878 269.762 88.22697 274.23847 88.38213 C 278.7149 88.53728 285.89366 88.78653 290.37013 88.94183 C 294.8466 89.09714 302.0253 89.34633 306.5018 89.50156 C 310.97828 89.65677 318.157 89.9057 322.63349 90.0607 C 327.10997 90.2157 334.28868 90.46404 338.76515 90.61871 C 343.2416 90.77339 350.42036 91.02106 354.89683 91.17558 C 359.3733 91.3301 366.55204 91.57791 371.0285 91.73244 C 375.50498 91.88696 387.16017 92.28932 387.16017 92.28932 "/>
</g>
</svg>
