<?xml version="1.0" encoding="UTF-8" standalone="no"?>
<!DOCTYPE svg PUBLIC "-//W3C//DTD SVG 1.1//EN" "http://www.w3.org/Graphics/SVG/1.1/DTD/svg11.dtd">
<svg xmlns="http://www.w3.org/2000/svg" xmlns:xlink="http://www.w3.org/1999/xlink" version="1.1" width="320.857pt" height="203.965pt" viewBox="0 0 320.857 203.965">
<path transform="matrix(1,0,0,-1,58.645,203.76599)" stroke-width="1" stroke-linecap="butt" stroke-miterlimit="10" stroke-linejoin="miter" fill="none" stroke="#000000" d="M 0 101.78453 L 201.57656 101.78453 "/>
<path transform="matrix(1,0,0,-1,260.22157,101.98146)" d="M 1.99252 0 L -1.19551 1.59401 L 0 0 L -1.19551 -1.59401 "/>
<path transform="matrix(1,0,0,-1,58.645,203.76599)" stroke-width="1" stroke-linecap="butt" stroke-miterlimit="10" stroke-linejoin="miter" fill="none" stroke="#000000" d="M 101.78453 0 L 101.78453 201.57656 "/>
<path transform="matrix(0,-1,-1,-0,160.42954,2.1894379)" d="M 1.99252 0 L -1.19551 1.59401 L 0 0 L -1.19551 -1.59401 "/>
<path transform="matrix(1,0,0,-1,58.645,203.76599)" stroke-width="1" stroke-linecap="butt" stroke-dasharray="2.98883,2.98883" stroke-miterlimit="10" stroke-linejoin="miter" fill="none" stroke="#808080" d="M 194.31594 101.78453 C 194.31594 101.78453 192.88336 119.31422 191.16338 125.7335 C 189.4434 132.15279 185.2425 142.29497 181.9195 148.05023 C 178.5965 153.80551 171.91278 162.51419 167.21349 167.21349 C 162.51419 171.91278 153.80551 178.5965 148.05023 181.9195 C 142.29497 185.2425 132.15279 189.4434 125.7335 191.16338 C 119.31422 192.88336 108.43028 194.31594 101.78453 194.31594 C 95.1388 194.31594 84.25482 192.88336 77.83556 191.16338 C 71.41628 189.4434 61.27411 185.2425 55.51883 181.9195 C 49.76357 178.5965 41.05487 171.91278 36.35558 167.21349 C 31.65628 162.51419 24.97255 153.80551 21.64955 148.05023 C 18.32655 142.29497 14.12564 132.15279 12.40567 125.7335 C 10.6857 119.31422 9.25313 108.43028 9.25313 101.78453 C 9.25313 95.1388 10.6857 84.25482 12.40567 77.83556 C 14.12564 71.41628 18.32655 61.27411 21.64955 55.51883 C 24.97255 49.76357 31.65628 41.05487 36.35558 36.35558 C 41.05487 31.65628 49.76357 24.97255 55.51883 21.64955 C 61.27411 18.32655 71.41628 14.12564 77.83556 12.40567 C 84.25482 10.6857 95.1388 9.25313 101.78453 9.25313 C 108.43028 9.25313 119.31422 10.6857 125.7335 12.40567 C 132.15279 14.12564 142.29497 18.32655 148.05023 21.64955 C 153.80551 24.97255 162.51419 31.65628 167.21349 36.35558 C 171.91278 41.05487 178.5965 49.76357 181.9195 55.51883 C 185.2425 61.27411 189.4434 71.41628 191.16338 77.83556 C 192.88336 84.25482 194.31594 101.78453 194.31594 101.78453 "/>
<path transform="matrix(1,0,0,-1,58.645,203.76599)" stroke-width="1.59404" stroke-linecap="butt" stroke-miterlimit="10" stroke-linejoin="miter" fill="none" stroke="#000000" d="M 101.78453 101.78453 L 191.54 78.65169 "/>
<path transform="matrix(1,0,0,-1,58.645,203.76599)" stroke-width="1.59404" stroke-linecap="butt" stroke-miterlimit="10" stroke-linejoin="miter" fill="none" stroke="#000000" d="M 191.54 101.78453 L 191.54 78.65169 "/>
<path transform="matrix(1,0,0,-1,58.645,203.76599)" stroke-width="1.59404" stroke-linecap="butt" stroke-miterlimit="10" stroke-linejoin="miter" fill="none" stroke="#000000" d="M 101.78453 101.78453 L 191.54 101.78453 "/>
<path transform="matrix(1,0,0,-1,58.645,203.76599)" stroke-width="1.59404" stroke-linecap="butt" stroke-miterlimit="10" stroke-linejoin="miter" fill="none" stroke="#000000" d="M 101.78453 101.78453 L 12.02907 78.65169 "/>
<path transform="matrix(1,0,0,-1,58.645,203.76599)" stroke-width="1.59404" stroke-linecap="butt" stroke-miterlimit="10" stroke-linejoin="miter" fill="none" stroke="#000000" d="M 12.02907 101.78453 L 12.02907 78.65169 "/>
<path transform="matrix(1,0,0,-1,58.645,203.76599)" stroke-width="1.59404" stroke-linecap="butt" stroke-miterlimit="10" stroke-linejoin="miter" fill="none" stroke="#000000" d="M 101.78453 101.78453 L 12.02907 101.78453 "/>
<symbol id="font_0_3">
<path d="M .205 .64000007 C .205 .66400006 .205 .666 .18200003 .666 C .120000008 .60200008 .032000007 .60200008 0 .60200008 L 0 .57100006 C .020000004 .57100006 .07900001 .57100006 .13100001 .597 L .13100001 .079 C .13100001 .043 .128 .031000002 .038000004 .031000002 L .0060000049 .031000002 L .0060000049 0 C .04100001 .003 .128 .003 .168 .003 C .20800002 .003 .29500003 .003 .33000005 0 L .33000005 .031000002 L .29800005 .031000002 C .20800002 .031000002 .205 .042000005 .205 .079 L .205 .64000007 Z "/>
</symbol>
<use xlink:href="#font_0_3" transform="matrix(9.9626,0,0,-9.9626,112.55968,123.699)"/>
<use xlink:href="#font_0_3" transform="matrix(9.9626,0,0,-9.9626,205.08968,123.699)"/>
<symbol id="font_0_b">
<path d="M .17500001 .20500002 C .197 .20100002 .279 .18500002 .279 .113000009 C .279 .062000004 .24400002 .022000002 .16600001 .022000002 C .082 .022000002 .046000005 .079 .027000003 .16400002 C .024000004 .17700002 .023000002 .18100001 .013000004 .18100001 C 0 .18100001 0 .17400001 0 .15600002 L 0 .024 C 0 .0070000009 0 0 .011000004 0 C .016000003 0 .017 .0010000002 .036000007 .020000002 C .038000004 .022000002 .038000004 .024 .056 .043 C .1 .0010000002 .14500001 0 .16600001 0 C .28100003 0 .32700003 .067 .32700003 .13900002 C .32700003 .19200002 .29700003 .22200002 .28500004 .23400001 C .25200004 .26600004 .213 .27400003 .171 .28200004 C .115 .293 .048 .30600003 .048 .36400003 C .048 .39900003 .07400001 .44000004 .16 .44000004 C .27 .44000004 .27500005 .35000003 .277 .31900005 C .27800004 .31000004 .28700004 .31000004 .28900004 .31000004 C .30200003 .31000004 .30200003 .31500004 .30200003 .33400003 L .30200003 .43500004 C .30200003 .45200003 .30200003 .45900003 .291 .45900003 C .286 .45900003 .284 .45900003 .27100004 .44700004 C .26800005 .44300003 .25800003 .43400003 .254 .43100003 C .21600002 .45900003 .17500001 .45900003 .16 .45900003 C .038000004 .45900003 0 .39200003 0 .33600004 C 0 .30100004 .016000003 .27300004 .043000007 .25100003 C .075 .22500003 .10300001 .21900001 .17500001 .20500002 Z "/>
</symbol>
<symbol id="font_0_8">
<path d="M .144 .44200004 L .0040000008 .43100003 L .0040000008 .4 C .069000009 .4 .07800001 .39400003 .07800001 .34500004 L .07800001 .076000008 C .07800001 .031000002 .067 .031000002 0 .031000002 L 0 0 C .032000007 .001 .086 .003 .11000001 .003 C .14500001 .003 .18 .001 .21400002 0 L .21400002 .031000002 C .148 .031000002 .144 .036000004 .144 .075 L .144 .44200004 M .148 .61600008 C .148 .648 .123 .669 .095000009 .669 C .064 .669 .042000005 .642 .042000005 .61600008 C .042000005 .58900007 .064 .563 .095000009 .563 C .123 .563 .148 .58400008 .148 .61600008 Z "/>
</symbol>
<symbol id="font_0_9">
<path d="M .07800001 .344 L .07800001 .076000008 C .07800001 .031000002 .067 .031000002 0 .031000002 L 0 0 C .035 .001 .08600001 .003 .113000009 .003 C .139 .003 .191 .001 .225 0 L .225 .031000002 C .158 .031000002 .147 .031000002 .147 .076000008 L .147 .26000003 C .147 .36400003 .218 .42000003 .282 .42000003 C .345 .42000003 .356 .36600004 .356 .30900003 L .356 .076000008 C .356 .031000002 .345 .031000002 .278 .031000002 L .278 0 C .31300003 .001 .36400003 .003 .391 .003 C .41700004 .003 .46900005 .001 .503 0 L .503 .031000002 C .451 .031000002 .42600004 .031000002 .425 .061000006 L .425 .252 C .425 .33800004 .425 .36900003 .39400003 .40500004 C .38000003 .42200003 .347 .44200004 .289 .44200004 C .216 .44200004 .169 .39900003 .141 .337 L .141 .44200004 L 0 .43100003 L 0 .4 C .07000001 .4 .07800001 .393 .07800001 .344 Z "/>
</symbol>
<symbol id="font_0_1">
<path d="M .23200003 .00999999 C .23200003 .012999982 .23200003 .014999986 .215 .03199999 C .09 .15799999 .058 .347 .058 .5 C .058 .674 .096 .84800007 .21900001 .97300007 C .23200003 .985 .23200003 .98700007 .23200003 .99 C .23200003 .99700006 .22800002 1 .222 1 C .21200001 1 .12200001 .93200007 .06299999 .805 C .012000002 .69500008 0 .584 0 .5 C 0 .422 .011 .301 .066 .188 C .126 .065 .21200001 0 .222 0 C .22800002 0 .23200003 .0029999912 .23200003 .00999999 Z "/>
</symbol>
<use xlink:href="#font_0_b" transform="matrix(9.9626,0,0,-9.9626,256.88078,114.76158)"/>
<use xlink:href="#font_0_8" transform="matrix(9.9626,0,0,-9.9626,260.80604,114.65199)"/>
<use xlink:href="#font_0_9" transform="matrix(9.9626,0,0,-9.9626,263.56568,114.65199)"/>
<use xlink:href="#font_0_1" transform="matrix(9.9626,0,0,-9.9626,269.77238,117.14264)"/>
<symbol id="font_1_1">
<path d="M .41300003 .511 C .41300003 .577 .395 .716 .293 .716 C .15400002 .716 0 .43400003 0 .20500002 C 0 .111 .029 0 .12 0 C .261 0 .41300003 .28700004 .41300003 .511 M .106 .374 C .123 .43800003 .143 .518 .183 .589 C .21000001 .638 .24700001 .694 .29200004 .694 C .34100003 .694 .34700004 .63 .34700004 .573 C .34700004 .524 .33900003 .47300003 .31500004 .374 L .106 .374 M .30600003 .34200005 C .29500003 .29600004 .27400003 .21100001 .23600003 .13900002 C .201 .071 .16300002 .022000002 .12 .022000002 C .087000008 .022000002 .066 .051000004 .066 .14400001 C .066 .18600002 .072000008 .24400002 .098 .34200005 L .30600003 .34200005 Z "/>
</symbol>
<use xlink:href="#font_1_1" transform="matrix(9.9626,0,0,-9.9626,273.07743,114.76158)"/>
<symbol id="font_0_2">
<path d="M .232 .5 C .232 .578 .22100002 .699 .16600001 .81200006 C .106 .93500009 .020000004 1 .009999998 1 C .0040000008 1 0 .99600008 0 .99 C 0 .98700007 0 .985 .019000002 .967 C .117000009 .86800006 .174 .709 .174 .5 C .174 .329 .137 .153 .012999997 .026999996 C 0 .014999986 0 .012999982 0 .00999999 C 0 .003999993 .0040000008 0 .009999998 0 C .020000004 0 .11000001 .06799999 .169 .195 C .22 .305 .232 .416 .232 .5 Z "/>
</symbol>
<symbol id="font_0_6">
<path d="M .63100007 .19400002 C .646 .19400002 .665 .19400002 .665 .214 C .665 .23400001 .646 .23400001 .632 .23400001 L .033 .23400001 C .019000002 .23400001 0 .23400001 0 .214 C 0 .19400002 .019000002 .19400002 .034 .19400002 L .63100007 .19400002 M .632 0 C .646 0 .665 0 .665 .02000001 C .665 .040000008 .646 .040000008 .63100007 .040000008 L .034 .040000008 C .019000002 .040000008 0 .040000008 0 .02000001 C 0 0 .019000002 0 .033 0 L .632 0 Z "/>
</symbol>
<use xlink:href="#font_0_2" transform="matrix(9.9626,0,0,-9.9626,278.17988,117.14264)"/>
<use xlink:href="#font_0_6" transform="matrix(9.9626,0,0,-9.9626,284.81495,113.326969)"/>
<symbol id="font_2_1">
<path d="M .57600006 0 C .59300008 0 .611 0 .611 .019999996 C .611 .040000008 .59300008 .040000008 .57600006 .040000008 L .035000005 .040000008 C .018 .040000008 0 .040000008 0 .019999996 C 0 0 .018 0 .035000005 0 L .57600006 0 Z "/>
</symbol>
<use xlink:href="#font_2_1" transform="matrix(9.9626,0,0,-9.9626,295.5969,112.360599)"/>
<use xlink:href="#font_0_3" transform="matrix(9.9626,0,0,-9.9626,303.40565,114.65199)"/>
<symbol id="font_1_2">
<path d="M .384 .962 C .38900004 .975 .38900004 .97900006 .38900004 .98 C .38900004 .99100008 .38000003 1 .36900003 1 C .36200003 1 .35500003 .99700006 .352 .99100008 L .004999999 .037999989 C 0 .024999991 0 .020999983 0 .019999996 C 0 .008999988 .009 0 .02 0 C .033000005 0 .036000004 .0069999846 .042 .023999989 L .384 .962 Z "/>
</symbol>
<use xlink:href="#font_1_2" transform="matrix(9.9626,0,0,-9.9626,308.0479,117.14264)"/>
<symbol id="font_0_4">
<path d="M .266 .165 L .266 .078 C .266 .042000005 .26400004 .031000002 .19000001 .031000002 L .16900002 .031000002 L .16900002 0 C .21000001 .003 .26200003 .003 .30400003 .003 C .34600003 .003 .39900003 .003 .44000004 0 L .44000004 .031000002 L .41900004 .031000002 C .34500004 .031000002 .34300003 .042000005 .34300003 .078 L .34300003 .165 L .44300003 .165 L .44300003 .19600001 L .34300003 .19600001 L .34300003 .651 C .34300003 .671 .34300003 .67700007 .32700003 .67700007 C .31800003 .67700007 .31500004 .67700007 .307 .665 L 0 .19600001 L 0 .165 L .266 .165 M .272 .19600001 L .028 .19600001 L .272 .569 L .272 .19600001 Z "/>
</symbol>
<use xlink:href="#font_0_4" transform="matrix(9.9626,0,0,-9.9626,312.75993,114.65199)"/>
<use xlink:href="#font_0_b" transform="matrix(9.9626,0,0,-9.9626,3.7227669,114.76158)"/>
<use xlink:href="#font_0_8" transform="matrix(9.9626,0,0,-9.9626,7.648031,114.65199)"/>
<use xlink:href="#font_0_9" transform="matrix(9.9626,0,0,-9.9626,10.407671,114.65199)"/>
<use xlink:href="#font_0_1" transform="matrix(9.9626,0,0,-9.9626,16.61437,117.14264)"/>
<use xlink:href="#font_1_1" transform="matrix(9.9626,0,0,-9.9626,19.919428,114.76158)"/>
<use xlink:href="#font_0_2" transform="matrix(9.9626,0,0,-9.9626,25.021866,117.14264)"/>
<use xlink:href="#font_0_6" transform="matrix(9.9626,0,0,-9.9626,31.656962,113.326969)"/>
<use xlink:href="#font_2_1" transform="matrix(9.9626,0,0,-9.9626,42.438898,112.360599)"/>
<use xlink:href="#font_0_3" transform="matrix(9.9626,0,0,-9.9626,50.247674,114.65199)"/>
<use xlink:href="#font_1_2" transform="matrix(9.9626,0,0,-9.9626,54.889944,117.14264)"/>
<use xlink:href="#font_0_4" transform="matrix(9.9626,0,0,-9.9626,59.60195,114.65199)"/>
<symbol id="font_0_7">
<path d="M .083000008 .22900002 C .083000008 .39200003 .16500002 .43400003 .218 .43400003 C .227 .43400003 .29 .43300004 .32500003 .397 C .284 .39400003 .278 .36400003 .278 .351 C .278 .32500003 .296 .305 .324 .305 C .35 .305 .37 .32200004 .37 .35200004 C .37 .42000003 .294 .45900003 .21700001 .45900003 C .092 .45900003 0 .351 0 .22700002 C 0 .09900001 .099 0 .215 0 C .349 0 .381 .120000008 .381 .13000001 C .381 .14000002 .37100003 .14000002 .368 .14000002 C .359 .14000002 .35700003 .136 .35500003 .13000001 C .326 .037 .261 .025000003 .224 .025000003 C .171 .025000003 .083000008 .068 .083000008 .22900002 Z "/>
</symbol>
<symbol id="font_0_a">
<path d="M .44300003 .22500003 C .44300003 .35300002 .34300003 .45900003 .222 .45900003 C .097 .45900003 0 .35000003 0 .22500003 C 0 .096 .104 0 .22100002 0 C .342 0 .44300003 .098000008 .44300003 .22500003 M .222 .025000003 C .17900002 .025000003 .135 .046 .10800001 .092 C .083000008 .136 .083000008 .19700001 .083000008 .23300003 C .083000008 .272 .083000008 .32600004 .10700001 .37000004 C .134 .41600005 .18100001 .43700005 .22100002 .43700005 C .26500003 .43700005 .30800004 .41500003 .33400003 .37200005 C .36 .32900004 .36 .27100004 .36 .23300003 C .36 .19700001 .36 .143 .33800004 .09900001 C .316 .054 .272 .025000003 .222 .025000003 Z "/>
</symbol>
<use xlink:href="#font_0_7" transform="matrix(9.9626,0,0,-9.9626,76.85173,96.00758)"/>
<use xlink:href="#font_0_a" transform="matrix(9.9626,0,0,-9.9626,81.21535,96.00758)"/>
<use xlink:href="#font_0_b" transform="matrix(9.9626,0,0,-9.9626,86.24646,96.00758)"/>
<use xlink:href="#font_0_1" transform="matrix(9.9626,0,0,-9.9626,90.829257,98.38864)"/>
<use xlink:href="#font_1_1" transform="matrix(9.9626,0,0,-9.9626,94.144428,96.00758)"/>
<use xlink:href="#font_0_2" transform="matrix(9.9626,0,0,-9.9626,99.24787,98.38864)"/>
<use xlink:href="#font_0_6" transform="matrix(9.9626,0,0,-9.9626,105.88296,94.57297)"/>
<symbol id="font_2_2">
<path d="M .316 .10500002 L .14000002 .49400003 C .13300002 .51 .12799999 .51 .125 .51 C .124000009 .51 .118999999 .51 .108 .502 L .012999997 .43 C 0 .42000003 0 .417 0 .41400004 C 0 .40900005 .0029999987 .403 .009999998 .403 C .015999996 .403 .033 .417 .044 .425 C .049999998 .43 .065000008 .44099999 .076 .449 L .273 .015999973 C .28 0 .285 0 .294 0 C .30900003 0 .312 .0059999825 .319 .01999998 L .773 .96000006 C .78000006 .97400006 .78000006 .97800007 .78000006 .98 C .78000006 .99 .772 1 .76000007 1 C .75200006 1 .745 .99500009 .73700007 .97900006 L .316 .10500002 Z "/>
</symbol>
<use xlink:href="#font_2_1" transform="matrix(9.9626,0,0,-9.9626,116.664897,93.6066)"/>
<use xlink:href="#font_2_2" transform="matrix(9.9626,0,0,-9.9626,124.31327,96.73509)"/>
<path transform="matrix(1,0,0,-1,131.889,86.97099)" stroke-width="1" stroke-linecap="butt" stroke-miterlimit="10" stroke-linejoin="miter" fill="none" stroke="#000000" d="M 0 0 L 9.963 0 "/>
<symbol id="font_0_5">
<path d="M .39900003 .223 C .39900003 .34200005 .317 .44200004 .209 .44200004 C .16100002 .44200004 .118000019 .42600004 .082 .39100004 L .082 .586 C .10200001 .58000007 .135 .573 .16700001 .573 C .29 .573 .36 .66400006 .36 .67700007 C .36 .683 .357 .688 .35 .688 C .349 .688 .347 .688 .342 .68500009 C .322 .67600008 .273 .656 .20600002 .656 C .16600001 .656 .120000008 .66300007 .073 .6840001 C .065 .68700006 .06300001 .68700006 .061000009 .68700006 C .051000004 .68700006 .051000004 .679 .051000004 .66300007 L .051000004 .36700005 C .051000004 .34900005 .051000004 .34100003 .065 .34100003 C .07200001 .34100003 .074 .34400005 .07800001 .35000003 C .08900002 .36600004 .12600002 .42000006 .207 .42000006 C .259 .42000006 .284 .37400005 .292 .35600005 C .308 .31900005 .31 .28000004 .31 .23 C .31 .19500001 .31 .135 .286 .093 C .262 .054000006 .22500001 .028 .17900002 .028 C .106000009 .028 .049000008 .08100001 .032 .14000002 C .035 .13900002 .038000008 .13800001 .049000008 .13800001 C .082 .13800001 .09900001 .163 .09900001 .187 C .09900001 .21100001 .082 .23600002 .049000008 .23600002 C .035 .23600002 0 .22900002 0 .18300002 C 0 .097 .069000009 0 .18100001 0 C .297 0 .39900003 .096 .39900003 .223 Z "/>
</symbol>
<use xlink:href="#font_0_3" transform="matrix(9.9626,0,0,-9.9626,132.77568,95.897998)"/>
<use xlink:href="#font_0_5" transform="matrix(9.9626,0,0,-9.9626,137.36843,96.11717)"/>
<use xlink:href="#font_1_2" transform="matrix(9.9626,0,0,-9.9626,142.39896,98.38864)"/>
<use xlink:href="#font_0_4" transform="matrix(9.9626,0,0,-9.9626,147.11196,95.897998)"/>
<use xlink:href="#font_0_7" transform="matrix(9.9626,0,0,-9.9626,173.25574,96.00758)"/>
<use xlink:href="#font_0_a" transform="matrix(9.9626,0,0,-9.9626,177.61936,96.00758)"/>
<use xlink:href="#font_0_b" transform="matrix(9.9626,0,0,-9.9626,182.65047,96.00758)"/>
<use xlink:href="#font_0_1" transform="matrix(9.9626,0,0,-9.9626,187.23326,98.38864)"/>
<use xlink:href="#font_1_1" transform="matrix(9.9626,0,0,-9.9626,190.54944,96.00758)"/>
<use xlink:href="#font_0_2" transform="matrix(9.9626,0,0,-9.9626,195.65189,98.38864)"/>
<use xlink:href="#font_0_6" transform="matrix(9.9626,0,0,-9.9626,202.28699,94.57297)"/>
<use xlink:href="#font_2_2" transform="matrix(9.9626,0,0,-9.9626,212.96929,96.73509)"/>
<path transform="matrix(1,0,0,-1,220.544,86.97099)" stroke-width="1" stroke-linecap="butt" stroke-miterlimit="10" stroke-linejoin="miter" fill="none" stroke="#000000" d="M 0 0 L 9.963 0 "/>
<use xlink:href="#font_0_3" transform="matrix(9.9626,0,0,-9.9626,221.43068,95.897998)"/>
<use xlink:href="#font_0_5" transform="matrix(9.9626,0,0,-9.9626,226.02342,96.11717)"/>
<use xlink:href="#font_1_2" transform="matrix(9.9626,0,0,-9.9626,231.05495,98.38864)"/>
<use xlink:href="#font_0_4" transform="matrix(9.9626,0,0,-9.9626,235.76696,95.897998)"/>
</svg>
