<?xml version="1.0" encoding="UTF-8" standalone="no"?>
<!DOCTYPE svg PUBLIC "-//W3C//DTD SVG 1.1//EN" "http://www.w3.org/Graphics/SVG/1.1/DTD/svg11.dtd">
<svg xmlns="http://www.w3.org/2000/svg" xmlns:xlink="http://www.w3.org/1999/xlink" version="1.1" width="219.021pt" height="174.681pt" viewBox="0 0 219.021 174.681">
<path transform="matrix(1,0,0,-1,12.176,174.482)" stroke-width=".19925" stroke-linecap="butt" stroke-miterlimit="10" stroke-linejoin="miter" fill="none" stroke="#929292" d="M 0 72.10313 L 0 76.35536 M 48.57031 72.10313 L 48.57031 76.35536 M 145.71096 72.10313 L 145.71096 76.35536 M 194.28128 72.10313 L 194.28128 76.35536 "/>
<path transform="matrix(1,0,0,-1,12.176,174.482)" stroke-width=".19925" stroke-linecap="butt" stroke-miterlimit="10" stroke-linejoin="miter" fill="none" stroke="#929292" d="M 95.01476 30.53876 L 99.2665 30.53876 M 95.01476 117.91974 L 99.2665 117.91974 "/>
<path transform="matrix(1,0,0,-1,12.176,174.482)" stroke-width=".3985" stroke-linecap="butt" stroke-miterlimit="10" stroke-linejoin="miter" fill="none" stroke="#000000" d="M 0 74.22925 L 192.28588 74.22925 "/>
<path transform="matrix(1,0,0,-1,204.46187,100.25275)" d="M 1.99252 0 L -1.19551 1.59401 L 0 0 L -1.19551 -1.59401 "/>
<path transform="matrix(1,0,0,-1,12.176,174.482)" stroke-width=".3985" stroke-linecap="butt" stroke-miterlimit="10" stroke-linejoin="miter" fill="none" stroke="#000000" d="M 97.14064 0 L 97.14064 159.40013 "/>
<path transform="matrix(0,-1,-1,-0,109.31664,15.081863)" d="M 1.99252 0 L -1.19551 1.59401 L 0 0 L -1.19551 -1.59401 "/>
<symbol id="font_0_1">
<path d="M .57600006 0 C .59300008 0 .611 0 .611 .019999996 C .611 .040000008 .59300008 .040000008 .57600006 .040000008 L .035000005 .040000008 C .018 .040000008 0 .040000008 0 .019999996 C 0 0 .018 0 .035000005 0 L .57600006 0 Z "/>
</symbol>
<use xlink:href="#font_0_1" transform="matrix(9.9626,0,0,-9.9626,4.147896,110.0286)"/>
<symbol id="font_1_3">
<path d="M .266 .165 L .266 .078 C .266 .042000005 .26400004 .031000002 .19000001 .031000002 L .16900002 .031000002 L .16900002 0 C .21000001 .003 .26200003 .003 .30400003 .003 C .34600003 .003 .39900003 .003 .44000004 0 L .44000004 .031000002 L .41900004 .031000002 C .34500004 .031000002 .34300003 .042000005 .34300003 .078 L .34300003 .165 L .44300003 .165 L .44300003 .19600001 L .34300003 .19600001 L .34300003 .651 C .34300003 .671 .34300003 .67700007 .32700003 .67700007 C .31800003 .67700007 .31500004 .67700007 .307 .665 L 0 .19600001 L 0 .165 L .266 .165 M .272 .19600001 L .028 .19600001 L .272 .569 L .272 .19600001 Z "/>
</symbol>
<symbol id="font_1_1">
<path d="M .421 .34200005 C .421 .42200003 .416 .50200006 .381 .57600006 C .335 .67200008 .25300003 .688 .211 .688 C .15100001 .688 .07800001 .66200008 .037000006 .56900009 C .0050000029 .5 0 .42200003 0 .34200005 C 0 .26700003 .0040000008 .177 .045000007 .101 C .088 .020000002 .161 0 .21000001 0 C .264 0 .34 .021000002 .384 .116000007 C .416 .185 .421 .263 .421 .34200005 M .21000001 .022000002 C .171 .022000002 .112 .047000003 .094 .143 C .083000008 .20300001 .083000008 .29500003 .083000008 .35400004 C .083000008 .41800005 .083000008 .48400004 .091000009 .53800007 C .11 .65700009 .185 .66600009 .21000001 .66600009 C .243 .66600009 .30900003 .64800009 .328 .549 C .338 .49300004 .338 .41700004 .338 .35400004 C .338 .279 .338 .21100001 .32700003 .147 C .312 .052 .255 .022000002 .21000001 .022000002 Z "/>
</symbol>
<use xlink:href="#font_1_3" transform="matrix(9.9626,0,0,-9.9626,11.347953,112.32)"/>
<use xlink:href="#font_1_1" transform="matrix(9.9626,0,0,-9.9626,16.438843,112.53918)"/>
<use xlink:href="#font_0_1" transform="matrix(9.9626,0,0,-9.9626,52.716897,110.0286)"/>
<symbol id="font_1_2">
<path d="M .07700001 .07700001 L .18300002 .18 C .33900003 .31800003 .39900003 .372 .39900003 .47200004 C .39900003 .586 .30900003 .666 .18700002 .666 C .074 .666 0 .574 0 .485 C 0 .42900003 .05 .42900003 .053000008 .42900003 C .07000001 .42900003 .105000007 .441 .105000007 .48200003 C .105000007 .508 .08700001 .53400006 .052000006 .53400006 C .044000005 .53400006 .042000008 .53400006 .039 .53300008 C .062000004 .59800007 .11600001 .63500007 .17400001 .63500007 C .26500003 .63500007 .308 .554 .308 .47200004 C .308 .39200003 .25800003 .31300003 .20300003 .25100003 L .011000004 .037 C 0 .026 0 .024 0 0 L .37100003 0 L .39900003 .17400001 L .374 .17400001 C .36900003 .14400001 .36200003 .1 .352 .085 C .345 .07700001 .279 .07700001 .257 .07700001 L .07700001 .07700001 Z "/>
</symbol>
<use xlink:href="#font_1_2" transform="matrix(9.9626,0,0,-9.9626,60.13713,112.32)"/>
<use xlink:href="#font_1_1" transform="matrix(9.9626,0,0,-9.9626,65.00884,112.53918)"/>
<use xlink:href="#font_1_2" transform="matrix(9.9626,0,0,-9.9626,153.40212,112.32)"/>
<use xlink:href="#font_1_1" transform="matrix(9.9626,0,0,-9.9626,158.27382,112.53918)"/>
<use xlink:href="#font_1_3" transform="matrix(9.9626,0,0,-9.9626,201.75295,112.32)"/>
<use xlink:href="#font_1_1" transform="matrix(9.9626,0,0,-9.9626,206.84383,112.53918)"/>
<use xlink:href="#font_0_1" transform="matrix(9.9626,0,0,-9.9626,84.0179,144.4476)"/>
<use xlink:href="#font_1_1" transform="matrix(9.9626,0,0,-9.9626,91.328548,146.95818)"/>
<symbol id="font_2_1">
<path d="M .106 .053000004 C .106 .082 .08200001 .106000009 .05300001 .106000009 C .024000004 .106000009 0 .082 0 .053000004 C 0 .024 .024000004 0 .05300001 0 C .08200001 0 .106 .024 .106 .053000004 Z "/>
</symbol>
<use xlink:href="#font_2_1" transform="matrix(9.9626,0,0,-9.9626,96.77779,146.739)"/>
<symbol id="font_1_4">
<path d="M .39900003 .223 C .39900003 .34200005 .317 .44200004 .209 .44200004 C .16100002 .44200004 .118000019 .42600004 .082 .39100004 L .082 .586 C .10200001 .58000007 .135 .573 .16700001 .573 C .29 .573 .36 .66400006 .36 .67700007 C .36 .683 .357 .688 .35 .688 C .349 .688 .347 .688 .342 .68500009 C .322 .67600008 .273 .656 .20600002 .656 C .16600001 .656 .120000008 .66300007 .073 .6840001 C .065 .68700006 .06300001 .68700006 .061000009 .68700006 C .051000004 .68700006 .051000004 .679 .051000004 .66300007 L .051000004 .36700005 C .051000004 .34900005 .051000004 .34100003 .065 .34100003 C .07200001 .34100003 .074 .34400005 .07800001 .35000003 C .08900002 .36600004 .12600002 .42000006 .207 .42000006 C .259 .42000006 .284 .37400005 .292 .35600005 C .308 .31900005 .31 .28000004 .31 .23 C .31 .19500001 .31 .135 .286 .093 C .262 .054000006 .22500001 .028 .17900002 .028 C .106000009 .028 .049000008 .08100001 .032 .14000002 C .035 .13900002 .038000008 .13800001 .049000008 .13800001 C .082 .13800001 .09900001 .163 .09900001 .187 C .09900001 .21100001 .082 .23600002 .049000008 .23600002 C .035 .23600002 0 .22900002 0 .18300002 C 0 .097 .069000009 0 .18100001 0 C .297 0 .39900003 .096 .39900003 .223 Z "/>
</symbol>
<use xlink:href="#font_1_4" transform="matrix(9.9626,0,0,-9.9626,99.18713,146.95818)"/>
<use xlink:href="#font_1_1" transform="matrix(9.9626,0,0,-9.9626,91.328548,59.99318)"/>
<use xlink:href="#font_2_1" transform="matrix(9.9626,0,0,-9.9626,96.77779,59.774003)"/>
<use xlink:href="#font_1_4" transform="matrix(9.9626,0,0,-9.9626,99.18713,59.99318)"/>
<clipPath id="cp3">
<path transform="matrix(1,0,0,-1,12.176,174.482)" d="M 0 0 L 194.2784 0 L 194.2784 161.39266 L 0 161.39266 Z "/>
</clipPath>
<g clip-path="url(#cp3)">
<path transform="matrix(1,0,0,-1,12.176,174.482)" stroke-width="1.19553" stroke-linecap="butt" stroke-miterlimit="10" stroke-linejoin="miter" fill="none" stroke="#000080" d="M 0 161.39266 C 0 161.39266 1.41783 161.38506 1.96239 161.38216 C 2.50694 161.37926 3.38025 161.3742 3.92479 161.37168 C 4.46935 161.36913 5.34265 161.3666 5.8872 161.36382 C 6.43175 161.36103 7.30505 161.35497 7.84961 161.35158 C 8.39417 161.34818 9.26747 161.3426 9.81201 161.33934 C 10.35657 161.33606 11.22987 161.3315 11.77443 161.32798 C 12.31897 161.32447 13.19229 161.318 13.73683 161.314 C 14.28139 161.31 15.1547 161.30338 15.69925 161.29914 C 16.24379 161.29489 17.1171 161.28778 17.66165 161.28342 C 18.2062 161.27906 19.07951 161.2723 19.62405 161.26769 C 20.16861 161.26308 21.04192 161.2554 21.58647 161.2502 C 22.13101 161.24501 23.00432 161.23592 23.54887 161.2301 C 24.09343 161.2243 24.96674 161.21431 25.51128 161.20827 C 26.05583 161.20221 26.92914 161.19295 27.4737 161.18642 C 28.01823 161.17989 28.89156 161.16834 29.4361 161.16107 C 29.98065 161.15381 30.85396 161.14174 31.39851 161.13399 C 31.94305 161.12624 32.81636 161.11365 33.36092 161.10517 C 33.90547 161.09668 34.77878 161.08229 35.32332 161.07283 C 35.86787 161.06337 36.74118 161.04753 37.28574 161.037 C 37.83028 161.02646 38.7036 161.0082 39.24814 160.9968 C 39.7927 160.98542 40.666 160.96759 41.21056 160.95487 C 41.7551 160.94214 42.6284 160.91936 43.17296 160.90506 C 43.71751 160.89075 44.59082 160.86762 45.13536 160.85175 C 45.67992 160.83588 46.55322 160.80841 47.09778 160.79059 C 47.64232 160.77277 48.51563 160.7433 49.06018 160.7233 C 49.60474 160.70331 50.47804 160.66909 51.02258 160.64641 C 51.56714 160.62375 52.44044 160.58583 52.985 160.55989 C 53.52954 160.53397 54.40286 160.4891 54.9474 160.45941 C 55.49196 160.42972 56.36526 160.37999 56.90982 160.34581 C 57.45436 160.31163 58.32767 160.25276 58.87222 160.213 C 59.41678 160.17325 60.29008 160.10527 60.83463 160.0592 C 61.37918 160.01314 62.25249 159.93561 62.79704 159.88095 C 63.34158 159.82628 64.2149 159.73047 64.75945 159.66513 C 65.304 159.5998 66.1773 159.48828 66.72186 159.40996 C 67.2664 159.33164 68.13971 159.19605 68.68427 159.10063 C 69.22882 159.00522 70.10213 158.84024 70.64667 158.72229 C 71.19122 158.60433 72.06453 158.39856 72.60909 158.25041 C 73.15363 158.10227 74.02693 157.84362 74.57149 157.65448 C 75.11604 157.46535 75.98935 157.13423 76.53389 156.88729 C 77.07845 156.64032 77.95175 156.20526 78.4963 155.87453 C 79.04085 155.5438 79.91417 154.95961 80.45871 154.50353 C 81.00327 154.04743 81.87657 153.23989 82.42113 152.58727 C 82.96567 151.93465 83.83897 150.77686 84.38353 149.7998 C 84.92809 148.82274 85.80139 147.0915 86.34593 145.54523 C 86.89049 143.99893 87.76381 141.27474 88.30836 138.65523 C 88.8529 136.03574 89.72621 131.45246 90.27077 126.6657 C 90.81532 121.87892 91.68863 113.2802 92.23318 104.15549 C 92.77773 95.03076 93.65103 75.34235 94.19559 60.90103 C 94.74014 46.45972 95.61345 8.5224 96.15799 .07251 C 96.70255 -8.37738 97.57585 -8.42828 98.1204 0 C 98.66495 8.42828 99.53825 46.37277 100.08281 60.81784 C 100.62737 75.26292 101.50067 94.97705 102.04521 104.11005 C 102.58977 113.24303 103.46307 121.8506 104.00763 126.64209 C 104.55217 131.4336 105.42549 136.02208 105.97003 138.64388 C 106.51459 141.26567 107.3879 143.99109 107.93245 145.53823 C 108.47699 147.08538 109.3503 148.817 109.89485 149.79456 C 110.4394 150.77211 111.31271 151.93054 111.85725 152.58377 C 112.40181 153.237 113.27512 154.04633 113.81967 154.50266 C 114.36421 154.95899 115.23752 155.54204 115.78207 155.87277 C 116.32663 156.2035 117.19994 156.6392 117.74448 156.8864 C 118.28903 157.1336 119.16234 157.46547 119.7069 157.65448 C 120.25143 157.84349 121.12476 158.10077 121.6693 158.24868 C 122.21385 158.39656 123.08716 158.60247 123.63171 158.72054 C 124.17625 158.83861 125.04956 159.00412 125.59412 159.09976 C 126.13867 159.19542 127.01198 159.3314 127.55652 159.40996 C 128.10108 159.48851 128.97438 159.60077 129.51894 159.66599 C 130.06348 159.7312 130.9368 159.82553 131.48134 159.88008 C 132.0259 159.93463 132.8992 160.0129 133.44376 160.0592 C 133.9883 160.10552 134.8616 160.17424 135.40616 160.21387 C 135.95072 160.25351 136.82402 160.31087 137.36856 160.34494 C 137.91312 160.37902 138.78643 160.4296 139.33098 160.45941 C 139.87552 160.48923 140.74883 160.53397 141.29338 160.55989 C 141.83794 160.58583 142.71125 160.62387 143.25579 160.64641 C 143.80034 160.66896 144.67365 160.70244 145.2182 160.72243 C 145.76274 160.74242 146.63607 160.77265 147.1806 160.79059 C 147.72516 160.80854 148.59847 160.83588 149.14302 160.85175 C 149.68756 160.86762 150.56087 160.89075 151.10543 160.90506 C 151.64998 160.91936 152.52329 160.94214 153.06783 160.95487 C 153.61238 160.96759 154.48569 160.98542 155.03025 160.9968 C 155.57479 161.0082 156.4481 161.02658 156.99265 161.037 C 157.5372 161.04741 158.4105 161.06249 158.95507 161.07195 C 159.4996 161.0814 160.37291 161.09656 160.91747 161.10517 C 161.46202 161.11377 162.33533 161.12624 162.87987 161.13399 C 163.42443 161.14174 164.29773 161.15381 164.84229 161.16107 C 165.38683 161.16834 166.26013 161.17989 166.80469 161.18642 C 167.34925 161.19295 168.22255 161.20221 168.76709 161.20827 C 169.31165 161.21431 170.18495 161.2243 170.7295 161.2301 C 171.27405 161.23592 172.14737 161.24524 172.69191 161.2502 C 173.23647 161.25518 174.10977 161.26111 174.65433 161.26595 C 175.19887 161.27077 176.07218 161.28055 176.61673 161.28516 C 177.16129 161.28977 178.03459 161.29514 178.57913 161.29914 C 179.12369 161.30313 179.997 161.31 180.54155 161.314 C 181.08609 161.318 181.9594 161.32447 182.50395 161.32798 C 183.04851 161.3315 183.92182 161.33582 184.46637 161.33934 C 185.01091 161.34285 185.88422 161.35018 186.42877 161.35332 C 186.97333 161.35646 187.84664 161.3594 188.39118 161.36206 C 188.93573 161.36472 189.80904 161.36975 190.35359 161.37253 C 190.89813 161.37532 191.77144 161.37938 192.316 161.38216 C 192.86055 161.38494 194.2784 161.39266 194.2784 161.39266 "/>
</g>
<symbol id="font_2_2">
<path d="M .305 .31300003 C .311 .33900003 .334 .43100003 .404 .43100003 C .409 .43100003 .433 .43100003 .454 .418 C .426 .41300003 .40600003 .388 .40600003 .36400003 C .40600003 .34800003 .417 .32900004 .444 .32900004 C .46600003 .32900004 .498 .34700004 .498 .38700003 C .498 .43900005 .439 .45300005 .405 .45300005 C .347 .45300005 .312 .40000005 .3 .37700004 C .275 .44300003 .221 .45300005 .19200002 .45300005 C .08800001 .45300005 .031000002 .32400004 .031000002 .29900003 C .031000002 .28900004 .041 .28900004 .043000007 .28900004 C .051000008 .28900004 .054000006 .291 .056 .3 C .09 .40600003 .156 .43100003 .19000001 .43100003 C .209 .43100003 .244 .42200003 .244 .36400003 C .244 .33300004 .22700002 .26600004 .19000001 .126 C .17400001 .064 .13900002 .022000002 .095000009 .022000002 C .08900001 .022000002 .06600001 .022000002 .045 .035 C .07000001 .040000004 .09200001 .061 .09200001 .089 C .09200001 .116000007 .07000001 .124000009 .055000009 .124000009 C .025 .124000009 0 .098000008 0 .06600001 C 0 .020000002 .050000006 0 .094000007 0 C .16000001 0 .19600001 .07000001 .19900002 .076000008 C .21100001 .039 .24700003 0 .307 0 C .41 0 .467 .12900001 .467 .15400002 C .467 .16400002 .458 .16400002 .455 .16400002 C .446 .16400002 .444 .16000001 .442 .15300001 C .409 .046 .341 .022000002 .30900003 .022000002 C .27 .022000002 .254 .054 .254 .08800001 C .254 .11000001 .26 .13200002 .271 .17600002 L .305 .31300003 Z "/>
</symbol>
<use xlink:href="#font_2_2" transform="matrix(9.9626,0,0,-9.9626,210.2949,102.49459)"/>
<symbol id="font_2_3">
<path d="M .45700003 .586 C .461 .6 .461 .602 .461 .609 C .461 .62700006 .447 .63600006 .432 .63600006 C .42200003 .63600006 .40600003 .63 .397 .615 C .395 .61 .387 .579 .38300003 .561 C .37600003 .535 .36900003 .508 .363 .48100005 L .318 .301 C .314 .286 .271 .21600002 .20500002 .21600002 C .15400002 .21600002 .143 .26000003 .143 .29700003 C .143 .34300003 .16000001 .40500004 .194 .49300004 C .21000001 .53400006 .21400002 .545 .21400002 .56500008 C .21400002 .61 .18200001 .6470001 .13200002 .6470001 C .037 .6470001 0 .50200006 0 .49300004 C 0 .48300005 .01 .48300005 .012 .48300005 C .022000002 .48300005 .023 .485 .028000003 .50100007 C .055000009 .595 .095000009 .625 .12900001 .625 C .13700001 .625 .15400002 .625 .15400002 .59300008 C .15400002 .568 .14400001 .54200008 .13700001 .523 C .097 .41700004 .079 .36 .079 .31300003 C .079 .224 .142 .194 .201 .194 C .24000003 .194 .274 .21100001 .30200003 .23900002 C .289 .187 .277 .13800001 .237 .08500001 C .21100001 .051 .17300001 .022 .127 .022 C .113000009 .022 .068 .025000006 .051000008 .06400001 C .067 .06400001 .080000009 .06400001 .094000007 .076000008 C .104 .08500001 .11400001 .098000008 .11400001 .117000009 C .11400001 .148 .087000008 .15200001 .07700001 .15200001 C .054000006 .15200001 .021 .136 .021 .087000008 C .021 .037 .065000008 0 .127 0 C .23 0 .333 .091000009 .361 .20400001 L .45700003 .586 Z "/>
</symbol>
<use xlink:href="#font_2_3" transform="matrix(9.9626,0,0,-9.9626,107.00092,9.652334)"/>
</svg>
