<?xml version="1.0" encoding="UTF-8" standalone="no"?>
<!DOCTYPE svg PUBLIC "-//W3C//DTD SVG 1.1//EN" "http://www.w3.org/Graphics/SVG/1.1/DTD/svg11.dtd">
<svg xmlns="http://www.w3.org/2000/svg" xmlns:xlink="http://www.w3.org/1999/xlink" version="1.1" width="233.811pt" height="181.664pt" viewBox="0 0 233.811 181.664">
<path transform="matrix(1,0,0,-1,26.825,249.961)" stroke-width="1" stroke-linecap="butt" stroke-miterlimit="10" stroke-linejoin="miter" fill="none" stroke="#808080" d="M 32.3787 126.98979 L 32.3787 131.24193 M 64.75739 126.98979 L 64.75739 131.24193 M 97.13608 126.98979 L 97.13608 131.24193 M 129.51477 126.98979 L 129.51477 131.24193 M 161.89347 126.98979 L 161.89347 131.24193 M 194.27216 126.98979 L 194.27216 131.24193 "/>
<path transform="matrix(1,0,0,-1,26.825,249.961)" stroke-width="1" stroke-linecap="butt" stroke-miterlimit="10" stroke-linejoin="miter" fill="none" stroke="#808080" d="M -2.12598 75.31758 L 2.12598 75.31758 M -2.12598 182.91416 L 2.12598 182.91416 M -2.12598 236.71244 L 2.12598 236.71244 "/>
<path transform="matrix(1,0,0,-1,26.825,249.961)" stroke-width="1" stroke-linecap="butt" stroke-miterlimit="10" stroke-linejoin="miter" fill="none" stroke="#000000" d="M 0 129.11586 L 192.27964 129.11586 "/>
<path transform="matrix(1,0,0,-1,219.10463,120.84514)" d="M 1.99252 0 L -1.19551 1.59401 L 0 0 L -1.19551 -1.59401 "/>
<path transform="matrix(1,0,0,-1,26.825,249.961)" stroke-width="1" stroke-linecap="butt" stroke-miterlimit="10" stroke-linejoin="miter" fill="none" stroke="#000000" d="M 0 75.31758 L 0 234.71991 "/>
<path transform="matrix(0,-1,-1,-0,26.825,15.241089)" d="M 1.99252 0 L -1.19551 1.59401 L 0 0 L -1.19551 -1.59401 "/>
<symbol id="font_0_1">
<path d="M .421 .34200005 C .421 .42200003 .416 .50200006 .381 .57600006 C .335 .67200008 .25300003 .688 .211 .688 C .15100001 .688 .07800001 .66200008 .037000006 .56900009 C .0050000029 .5 0 .42200003 0 .34200005 C 0 .26700003 .0040000008 .177 .045000007 .101 C .088 .020000002 .161 0 .21000001 0 C .264 0 .34 .021000002 .384 .116000007 C .416 .185 .421 .263 .421 .34200005 M .21000001 .022000002 C .171 .022000002 .112 .047000003 .094 .143 C .083000008 .20300001 .083000008 .29500003 .083000008 .35400004 C .083000008 .41800005 .083000008 .48400004 .091000009 .53800007 C .11 .65700009 .185 .66600009 .21000001 .66600009 C .243 .66600009 .30900003 .64800009 .328 .549 C .338 .49300004 .338 .41700004 .338 .35400004 C .338 .279 .338 .21100001 .32700003 .147 C .312 .052 .255 .022000002 .21000001 .022000002 Z "/>
</symbol>
<use xlink:href="#font_0_1" transform="matrix(9.9626,0,0,-9.9626,53.226545,133.20618)"/>
<symbol id="font_1_1">
<path d="M .106 .053000004 C .106 .082 .08200001 .106000009 .05300001 .106000009 C .024000004 .106000009 0 .082 0 .053000004 C 0 .024 .024000004 0 .05300001 0 C .08200001 0 .106 .024 .106 .053000004 Z "/>
</symbol>
<use xlink:href="#font_1_1" transform="matrix(9.9626,0,0,-9.9626,58.676786,132.987)"/>
<symbol id="font_0_5">
<path d="M .39900003 .223 C .39900003 .34200005 .317 .44200004 .209 .44200004 C .16100002 .44200004 .118000019 .42600004 .082 .39100004 L .082 .586 C .10200001 .58000007 .135 .573 .16700001 .573 C .29 .573 .36 .66400006 .36 .67700007 C .36 .683 .357 .688 .35 .688 C .349 .688 .347 .688 .342 .68500009 C .322 .67600008 .273 .656 .20600002 .656 C .16600001 .656 .120000008 .66300007 .073 .6840001 C .065 .68700006 .06300001 .68700006 .061000009 .68700006 C .051000004 .68700006 .051000004 .679 .051000004 .66300007 L .051000004 .36700005 C .051000004 .34900005 .051000004 .34100003 .065 .34100003 C .07200001 .34100003 .074 .34400005 .07800001 .35000003 C .08900002 .36600004 .12600002 .42000006 .207 .42000006 C .259 .42000006 .284 .37400005 .292 .35600005 C .308 .31900005 .31 .28000004 .31 .23 C .31 .19500001 .31 .135 .286 .093 C .262 .054000006 .22500001 .028 .17900002 .028 C .106000009 .028 .049000008 .08100001 .032 .14000002 C .035 .13900002 .038000008 .13800001 .049000008 .13800001 C .082 .13800001 .09900001 .163 .09900001 .187 C .09900001 .21100001 .082 .23600002 .049000008 .23600002 C .035 .23600002 0 .22900002 0 .18300002 C 0 .097 .069000009 0 .18100001 0 C .297 0 .39900003 .096 .39900003 .223 Z "/>
</symbol>
<use xlink:href="#font_0_5" transform="matrix(9.9626,0,0,-9.9626,61.08513,133.20618)"/>
<symbol id="font_0_2">
<path d="M .205 .64000007 C .205 .66400006 .205 .666 .18200003 .666 C .120000008 .60200008 .032000007 .60200008 0 .60200008 L 0 .57100006 C .020000004 .57100006 .07900001 .57100006 .13100001 .597 L .13100001 .079 C .13100001 .043 .128 .031000002 .038000004 .031000002 L .0060000049 .031000002 L .0060000049 0 C .04100001 .003 .128 .003 .168 .003 C .20800002 .003 .29500003 .003 .33000005 0 L .33000005 .031000002 L .29800005 .031000002 C .20800002 .031000002 .205 .042000005 .205 .079 L .205 .64000007 Z "/>
</symbol>
<use xlink:href="#font_0_2" transform="matrix(9.9626,0,0,-9.9626,89.97768,132.987)"/>
<use xlink:href="#font_0_2" transform="matrix(9.9626,0,0,-9.9626,118.481678,132.987)"/>
<use xlink:href="#font_1_1" transform="matrix(9.9626,0,0,-9.9626,123.432788,132.987)"/>
<use xlink:href="#font_0_5" transform="matrix(9.9626,0,0,-9.9626,125.84213,133.20618)"/>
<symbol id="font_0_3">
<path d="M .07700001 .07700001 L .18300002 .18 C .33900003 .31800003 .39900003 .372 .39900003 .47200004 C .39900003 .586 .30900003 .666 .18700002 .666 C .074 .666 0 .574 0 .485 C 0 .42900003 .05 .42900003 .053000008 .42900003 C .07000001 .42900003 .105000007 .441 .105000007 .48200003 C .105000007 .508 .08700001 .53400006 .052000006 .53400006 C .044000005 .53400006 .042000008 .53400006 .039 .53300008 C .062000004 .59800007 .11600001 .63500007 .17400001 .63500007 C .26500003 .63500007 .308 .554 .308 .47200004 C .308 .39200003 .25800003 .31300003 .20300003 .25100003 L .011000004 .037 C 0 .026 0 .024 0 0 L .37100003 0 L .39900003 .17400001 L .374 .17400001 C .36900003 .14400001 .36200003 .1 .352 .085 C .345 .07700001 .279 .07700001 .257 .07700001 L .07700001 .07700001 Z "/>
</symbol>
<use xlink:href="#font_0_3" transform="matrix(9.9626,0,0,-9.9626,154.34613,132.987)"/>
<use xlink:href="#font_0_3" transform="matrix(9.9626,0,0,-9.9626,182.85012,132.987)"/>
<use xlink:href="#font_1_1" transform="matrix(9.9626,0,0,-9.9626,188.18978,132.987)"/>
<use xlink:href="#font_0_5" transform="matrix(9.9626,0,0,-9.9626,190.59812,133.20618)"/>
<symbol id="font_0_4">
<path d="M .24800003 .37400005 C .33 .40100003 .388 .47100006 .388 .55 C .388 .632 .3 .688 .204 .688 C .10300001 .688 .027000003 .628 .027000003 .55200007 C .027000003 .519 .049000004 .5 .078 .5 C .109000008 .5 .12900001 .522 .12900001 .55100008 C .12900001 .6010001 .082 .6010001 .067 .6010001 C .098 .65000006 .164 .66300007 .20000002 .66300007 C .24100003 .66300007 .29600004 .64100006 .29600004 .55100008 C .29600004 .53900006 .29400004 .48100005 .268 .43700005 C .238 .38900004 .204 .38600005 .17900002 .38500003 C .171 .38400004 .14700002 .38200004 .14000002 .38200004 C .132 .38100005 .125 .38000003 .125 .37000004 C .125 .35900004 .132 .35900004 .14900002 .35900004 L .19300002 .35900004 C .275 .35900004 .312 .29100005 .312 .193 C .312 .057000005 .24300003 .028 .199 .028 C .15600002 .028 .081 .045 .046000005 .104 C .081 .09900001 .11200001 .12100001 .11200001 .15900001 C .11200001 .19500001 .085 .215 .056 .215 C .031999999 .215 0 .201 0 .157 C 0 .06600001 .093 0 .20200002 0 C .32400004 0 .41500003 .091000009 .41500003 .193 C .41500003 .27500005 .35200004 .35300005 .24800003 .37400005 Z "/>
</symbol>
<use xlink:href="#font_0_4" transform="matrix(9.9626,0,0,-9.9626,219.02243,133.20618)"/>
<symbol id="font_2_1">
<path d="M .57600006 0 C .59300008 0 .611 0 .611 .019999996 C .611 .040000008 .59300008 .040000008 .57600006 .040000008 L .035000005 .040000008 C .018 .040000008 0 .040000008 0 .019999996 C 0 0 .018 0 .035000005 0 L .57600006 0 Z "/>
</symbol>
<use xlink:href="#font_2_1" transform="matrix(9.9626,0,0,-9.9626,4.2208969,175.1486)"/>
<use xlink:href="#font_0_2" transform="matrix(9.9626,0,0,-9.9626,12.029672,177.44)"/>
<use xlink:href="#font_0_1" transform="matrix(9.9626,0,0,-9.9626,16.512845,177.65918)"/>
<use xlink:href="#font_0_2" transform="matrix(9.9626,0,0,-9.9626,12.029672,70.259)"/>
<use xlink:href="#font_0_1" transform="matrix(9.9626,0,0,-9.9626,16.512845,70.47818)"/>
<use xlink:href="#font_0_3" transform="matrix(9.9626,0,0,-9.9626,11.64113,16.462006)"/>
<use xlink:href="#font_0_1" transform="matrix(9.9626,0,0,-9.9626,16.512845,16.681183)"/>
<clipPath id="cp3">
<path transform="matrix(1,0,0,-1,26.825,249.961)" d="M 0 75.31758 L 194.27216 75.31758 L 194.27216 236.71244 L 0 236.71244 Z "/>
</clipPath>
<g clip-path="url(#cp3)">
<path transform="matrix(1,0,0,-1,26.825,249.961)" stroke-width="1.19553" stroke-linecap="butt" stroke-miterlimit="10" stroke-linejoin="miter" fill="none" stroke="#000080" d="M 0 177.53432 C 0 177.53432 .42532 177.6413 .58868 177.6828 C .75204 177.7243 1.01402 177.79119 1.17738 177.83344 C 1.34074 177.87569 1.60274 177.9443 1.7661 177.98729 C 1.92946 178.03029 2.19144 178.0995 2.3548 178.14331 C 2.51816 178.18712 2.78015 178.25838 2.94351 178.30309 C 3.10687 178.3478 3.36884 178.41996 3.5322 178.46556 C 3.69556 178.51117 3.95755 178.58545 4.12091 178.63179 C 4.28427 178.67815 4.54625 178.75241 4.70961 178.79965 C 4.87297 178.84691 5.13495 178.92398 5.29831 178.97234 C 5.46167 179.02069 5.72366 179.09902 5.88702 179.14827 C 6.05038 179.19753 6.31236 179.2771 6.47572 179.32741 C 6.63908 179.37772 6.90105 179.4596 7.0644 179.51087 C 7.22777 179.56215 7.48976 179.64475 7.65312 179.697 C 7.81648 179.74925 8.07848 179.83394 8.24184 179.88745 C 8.4052 179.94097 8.66718 180.02803 8.83054 180.08274 C 8.9939 180.13745 9.25587 180.22612 9.41924 180.28179 C 9.5826 180.33747 9.84457 180.42713 10.00793 180.48407 C 10.1713 180.54102 10.43327 180.63405 10.59663 180.69228 C 10.76 180.7505 11.02197 180.8443 11.18533 180.9037 C 11.3487 180.9631 11.61069 181.0597 11.77405 181.12052 C 11.93741 181.18134 12.19939 181.2799 12.36275 181.34217 C 12.52611 181.4044 12.78809 181.50553 12.95145 181.56919 C 13.1148 181.63285 13.37679 181.73598 13.54015 181.80106 C 13.7035 181.86614 13.9655 181.97165 14.12886 182.0383 C 14.29222 182.10495 14.5542 182.21326 14.71756 182.28148 C 14.88092 182.34969 15.1429 182.46024 15.30626 182.53003 C 15.46962 182.59983 15.73161 182.713 15.89497 182.78449 C 16.05833 182.85599 16.3203 182.9722 16.48366 183.04543 C 16.64702 183.11864 16.909 183.23719 17.07236 183.31226 C 17.23572 183.38735 17.49771 183.5096 17.66107 183.58663 C 17.82443 183.66365 18.08641 183.78856 18.24977 183.86745 C 18.41313 183.94635 18.67511 184.07437 18.83847 184.15528 C 19.00183 184.23618 19.26382 184.3675 19.42719 184.45063 C 19.59055 184.53377 19.85252 184.66919 20.01588 184.75458 C 20.17924 184.83997 20.44122 184.97853 20.60458 185.06609 C 20.76794 185.15363 21.02992 185.29569 21.19328 185.38562 C 21.35664 185.47556 21.61864 185.62187 21.782 185.71434 C 21.94536 185.80681 22.20734 185.95709 22.3707 186.05219 C 22.53406 186.14728 22.79602 186.30196 22.95938 186.39974 C 23.12274 186.49752 23.38474 186.65642 23.5481 186.75696 C 23.71146 186.85749 23.97343 187.02088 24.1368 187.1244 C 24.30016 187.22792 24.56213 187.39656 24.7255 187.50315 C 24.88885 187.60973 25.15085 187.78292 25.31421 187.89263 C 25.47757 188.00234 25.73956 188.18083 25.90292 188.29398 C 26.06628 188.40712 26.32825 188.59156 26.49161 188.70822 C 26.65497 188.82488 26.91695 189.0146 27.0803 189.13484 C 27.24367 189.2551 27.50566 189.45079 27.66902 189.5749 C 27.83238 189.69904 28.09436 189.90126 28.25772 190.0295 C 28.42108 190.15773 28.68306 190.36675 28.84642 190.49916 C 29.00978 190.63158 29.27176 190.84708 29.43512 190.98389 C 29.59848 191.12071 29.86046 191.34377 30.02382 191.48528 C 30.18718 191.6268 30.44916 191.85746 30.61252 192.00389 C 30.77588 192.15035 31.03787 192.38906 31.20123 192.5408 C 31.3646 192.69255 31.62659 192.94043 31.78995 193.09763 C 31.95331 193.2548 32.21529 193.51102 32.37865 193.6738 C 32.542 193.8366 32.80397 194.10198 32.96733 194.27095 C 33.13069 194.43994 33.39268 194.71623 33.55605 194.89179 C 33.7194 195.06734 33.98138 195.35402 34.14474 195.53629 C 34.3081 195.71857 34.57008 196.0161 34.73344 196.20554 C 34.8968 196.39499 35.1588 196.70458 35.32216 196.9017 C 35.48552 197.09883 35.7475 197.42118 35.91086 197.62635 C 36.0742 197.83153 36.33618 198.16677 36.49954 198.38062 C 36.6629 198.59445 36.9249 198.94458 37.08826 199.16768 C 37.25162 199.39078 37.51361 199.75569 37.67697 199.98865 C 37.84033 200.2216 38.10231 200.60332 38.26567 200.84673 C 38.42903 201.09012 38.69101 201.48848 38.85437 201.743 C 39.01773 201.99753 39.27971 202.41461 39.44307 202.68123 C 39.60643 202.94786 39.86841 203.38507 40.03177 203.66469 C 40.19513 203.94429 40.4571 204.40328 40.62047 204.69654 C 40.78383 204.98979 41.04582 205.47043 41.20918 205.77841 C 41.37254 206.0864 41.63452 206.59223 41.79788 206.91625 C 41.96124 207.24028 42.22322 207.77233 42.38658 208.1138 C 42.54994 208.45528 42.81192 209.01737 42.97528 209.3775 C 43.13864 209.73766 43.40063 210.32918 43.564 210.70957 C 43.72736 211.08995 43.98933 211.71654 44.1527 212.11908 C 44.31606 212.52162 44.57803 213.18448 44.7414 213.61092 C 44.90475 214.03734 45.16675 214.73987 45.33011 215.19257 C 45.49347 215.64527 45.75543 216.39223 45.9188 216.87377 C 46.08215 217.35529 46.34413 218.14984 46.50749 218.66309 C 46.67085 219.17635 46.93285 220.02484 47.0962 220.57295 C 47.25957 221.12105 47.52155 222.0271 47.6849 222.61351 C 47.84827 223.1999 48.11024 224.17018 48.2736 224.79933 C 48.43697 225.4285 48.69896 226.47145 48.86232 227.14817 C 49.02568 227.82488 49.28766 228.94698 49.45102 229.67668 C 49.61438 230.40639 49.87636 231.618 50.03972 232.40749 C 50.20308 233.19699 50.46506 234.51009 50.62842 235.36692 C 50.79178 236.22376 51.05377 237.64994 51.21713 238.583 C 51.3805 239.51604 51.64247 241.0717 51.80583 242.0917 C 51.9692 243.11173 52.23116 244.81494 52.39452 245.93453 C 52.55788 247.05411 52.81987 248.9263 52.98323 250.16092 C 53.14659 251.39554 53.40857 253.46425 53.57193 254.83277 C 53.73529 256.2013 53.99727 258.4991 54.16063 260.0243 C 54.32399 261.5495 54.58598 264.1148 54.74934 265.82536 C 54.9127 267.5359 55.1747 270.42079 55.33806 272.3527 C 55.50142 274.28465 55.76338 277.55015 55.92674 279.74946 C 56.0901 281.94874 56.35208 285.6776 56.51544 288.20384 C 56.6788 290.7301 56.9408 295.02449 57.10416 297.9569 C 57.26752 300.8894 57.5295 305.8939 57.69286 309.33906 C 57.85622 312.78416 58.28156 322.78697 58.28156 322.78697 "/>
<path transform="matrix(1,0,0,-1,26.825,249.961)" stroke-width="1.19553" stroke-linecap="butt" stroke-miterlimit="10" stroke-linejoin="miter" fill="none" stroke="#000080" d="M 71.23312 0 C 71.23312 0 72.13101 19.77449 72.47586 25.98563 C 72.82072 32.19676 73.37376 40.18912 73.71863 44.76553 C 74.06348 49.34195 74.61653 55.45572 74.9614 58.96936 C 75.30624 62.48302 75.85928 67.30577 76.20413 70.08946 C 76.549 72.87315 77.10204 76.7723 77.4469 79.03236 C 77.79175 81.29242 78.3448 84.5068 78.68965 86.3785 C 79.03452 88.2502 79.58757 90.94655 79.93242 92.52228 C 80.27728 94.098 80.8303 96.39046 81.17517 97.73532 C 81.52002 99.08018 82.07307 101.05379 82.41792 102.2151 C 82.76279 103.3764 83.31583 105.09227 83.66069 106.10526 C 84.00555 107.11824 84.5586 108.62459 84.90346 109.51607 C 85.2483 110.40753 85.80135 111.73985 86.1462 112.53038 C 86.49106 113.32092 87.0441 114.50789 87.38896 115.21373 C 87.73381 115.91957 88.28687 116.9836 88.63173 117.61766 C 88.97658 118.25171 89.52962 119.21097 89.87447 119.78369 C 90.21933 120.35641 90.77237 121.22562 91.11723 121.7455 C 91.46208 122.26537 92.01514 123.05661 92.35999 123.53062 C 92.70485 124.00464 93.2579 124.72797 93.60275 125.16196 C 93.94762 125.59595 94.50064 126.2597 94.8455 126.65851 C 95.19035 127.05733 95.74341 127.66861 96.08826 128.03636 C 96.43312 128.40412 96.98616 128.96886 97.33102 129.30905 C 97.67589 129.64925 98.22893 130.17267 98.57379 130.48825 C 98.91864 130.80385 99.47168 131.2901 99.81653 131.5837 C 100.16139 131.87729 100.71443 132.33052 101.0593 132.60436 C 101.40414 132.87819 101.9572 133.30138 102.30206 133.55735 C 102.64691 133.8133 103.19997 134.2094 103.54482 134.4492 C 103.88968 134.68903 104.4427 135.0607 104.78757 135.28582 C 105.13242 135.51094 105.68547 135.86009 106.03032 136.07187 C 106.37518 136.28365 106.92824 136.61258 107.27309 136.8122 C 107.61795 137.0118 108.17097 137.32216 108.51584 137.51056 C 108.86069 137.69895 109.41374 137.99202 109.75859 138.1701 C 110.10345 138.34819 110.6565 138.62555 111.00136 138.79418 C 111.3462 138.9628 111.89926 139.22554 112.24413 139.3854 C 112.58897 139.54529 113.14201 139.79463 113.48686 139.94654 C 113.83173 140.09844 114.38477 140.33577 114.72963 140.4802 C 115.07448 140.62464 115.62753 140.85005 115.97238 140.98754 C 116.31725 141.12502 116.8703 141.34003 117.21515 141.47118 C 117.56001 141.60231 118.11304 141.80774 118.4579 141.93276 C 118.80275 142.05779 119.3558 142.25295 119.70065 142.3723 C 120.04552 142.49166 120.59856 142.67873 120.94342 142.793 C 121.28828 142.90727 121.84132 143.0866 122.18619 143.19594 C 122.53104 143.30529 123.08408 143.47649 123.42892 143.58115 C 123.77379 143.68579 124.32683 143.84981 124.67169 143.9502 C 125.01654 144.0506 125.5696 144.20822 125.91446 144.30474 C 126.25931 144.40123 126.81235 144.55319 127.1572 144.64582 C 127.50206 144.73844 128.0551 144.8834 128.39997 144.97237 C 128.74481 145.06133 129.29787 145.20143 129.64272 145.2871 C 129.98758 145.37276 130.54064 145.50742 130.88549 145.58986 C 131.23035 145.6723 131.78337 145.80191 132.12824 145.88134 C 132.47309 145.96077 133.02614 146.08586 133.37099 146.16245 C 133.71585 146.23902 134.26889 146.35944 134.61376 146.4333 C 134.95862 146.50717 135.51166 146.62355 135.85652 146.69487 C 136.20137 146.7662 136.75441 146.87857 137.09926 146.94745 C 137.44412 147.01633 137.99716 147.12476 138.34203 147.19133 C 138.68688 147.25789 139.23993 147.3629 139.5848 147.42729 C 139.92964 147.49169 140.4827 147.5932 140.82755 147.6555 C 141.17241 147.7178 141.72544 147.81609 142.0703 147.87639 C 142.41515 147.93669 142.9682 148.03186 143.31305 148.09024 C 143.65792 148.14864 144.21097 148.24073 144.55582 148.29732 C 144.90068 148.35391 145.4537 148.4433 145.79857 148.4982 C 146.14342 148.55309 146.69647 148.6398 147.04132 148.69306 C 147.38619 148.7463 147.93923 148.83039 148.28409 148.88205 C 148.62895 148.9337 149.18199 149.01529 149.52686 149.06545 C 149.8717 149.11559 150.42475 149.19486 150.76959 149.24358 C 151.11446 149.2923 151.6675 149.36936 152.01236 149.4167 C 152.35721 149.46404 152.91027 149.5388 153.25513 149.58481 C 153.59998 149.63083 154.15303 149.70365 154.49788 149.74842 C 154.84275 149.79319 155.39577 149.86402 155.74063 149.90755 C 156.08548 149.9511 156.63854 150.01992 156.98339 150.06227 C 157.32825 150.10465 157.88129 150.1717 158.22615 150.21297 C 158.57102 150.25421 159.12404 150.31949 159.4689 150.35968 C 159.81375 150.39986 160.3668 150.46347 160.71166 150.50263 C 161.05652 150.54177 161.60956 150.60376 161.95442 150.6419 C 162.29927 150.68004 162.85233 150.74037 163.19719 150.77758 C 163.54204 150.81478 164.09508 150.87375 164.43993 150.91004 C 164.78479 150.94632 165.33783 151.00377 165.6827 151.03914 C 166.02754 151.07453 166.5806 151.13057 166.92545 151.16509 C 167.27031 151.19962 167.82337 151.25432 168.16822 151.28801 C 168.51308 151.32172 169.0661 151.37514 169.41097 151.40804 C 169.75582 151.44094 170.30887 151.49306 170.65372 151.5252 C 170.99858 151.55736 171.55162 151.60842 171.89649 151.6398 C 172.24135 151.67119 172.79439 151.72081 173.13925 151.7515 C 173.4841 151.78217 174.03714 151.83092 174.38199 151.86092 C 174.72686 151.89092 175.27989 151.93845 175.62476 151.96776 C 175.9696 151.99707 176.52266 152.04357 176.86753 152.07224 C 177.21237 152.1009 177.76541 152.14641 178.11026 152.17446 C 178.45513 152.2025 179.00817 152.24697 179.35303 152.27442 C 179.69788 152.30185 180.25093 152.34546 180.59578 152.37233 C 180.94065 152.39919 181.4937 152.4418 181.83855 152.46808 C 182.18341 152.49437 182.73644 152.53607 183.0813 152.5618 C 183.42615 152.58754 183.9792 152.62848 184.32405 152.65369 C 184.66892 152.6789 185.22196 152.71883 185.56682 152.74353 C 185.91168 152.76824 186.46472 152.80756 186.80959 152.83176 C 187.15444 152.85596 187.70748 152.89432 188.05233 152.918 C 188.39719 152.94168 188.95023 152.97934 189.29509 153.00257 C 189.63994 153.0258 190.193 153.0627 190.53786 153.08547 C 190.8827 153.10823 191.43576 153.14443 191.78061 153.16677 C 192.12548 153.18912 192.6785 153.22464 193.02336 153.24655 C 193.36821 153.26845 194.26612 153.32465 194.26612 153.32465 "/>
<path transform="matrix(1,0,0,-1,26.825,249.961)" stroke-width="1" stroke-linecap="butt" stroke-dasharray="2.98883,2.98883" stroke-miterlimit="10" stroke-linejoin="miter" fill="none" stroke="#000000" d="M 64.75739 75.31758 L 64.75739 236.71244 "/>
<path transform="matrix(1,0,0,-1,26.825,249.961)" stroke-width="1" stroke-linecap="butt" stroke-dasharray="2.98883,2.98883" stroke-miterlimit="10" stroke-linejoin="miter" fill="none" stroke="#000000" d="M 0 161.39484 L 194.27216 161.39484 "/>
</g>
<symbol id="font_1_2">
<path d="M .305 .31300003 C .311 .33900003 .334 .43100003 .404 .43100003 C .409 .43100003 .433 .43100003 .454 .418 C .426 .41300003 .40600003 .388 .40600003 .36400003 C .40600003 .34800003 .417 .32900004 .444 .32900004 C .46600003 .32900004 .498 .34700004 .498 .38700003 C .498 .43900005 .439 .45300005 .405 .45300005 C .347 .45300005 .312 .40000005 .3 .37700004 C .275 .44300003 .221 .45300005 .19200002 .45300005 C .08800001 .45300005 .031000002 .32400004 .031000002 .29900003 C .031000002 .28900004 .041 .28900004 .043000007 .28900004 C .051000008 .28900004 .054000006 .291 .056 .3 C .09 .40600003 .156 .43100003 .19000001 .43100003 C .209 .43100003 .244 .42200003 .244 .36400003 C .244 .33300004 .22700002 .26600004 .19000001 .126 C .17400001 .064 .13900002 .022000002 .095000009 .022000002 C .08900001 .022000002 .06600001 .022000002 .045 .035 C .07000001 .040000004 .09200001 .061 .09200001 .089 C .09200001 .116000007 .07000001 .124000009 .055000009 .124000009 C .025 .124000009 0 .098000008 0 .06600001 C 0 .020000002 .050000006 0 .094000007 0 C .16000001 0 .19600001 .07000001 .19900002 .076000008 C .21100001 .039 .24700003 0 .307 0 C .41 0 .467 .12900001 .467 .15400002 C .467 .16400002 .458 .16400002 .455 .16400002 C .446 .16400002 .444 .16000001 .442 .15300001 C .409 .046 .341 .022000002 .30900003 .022000002 C .27 .022000002 .254 .054 .254 .08800001 C .254 .11000001 .26 .13200002 .271 .17600002 L .305 .31300003 Z "/>
</symbol>
<use xlink:href="#font_1_2" transform="matrix(9.9626,0,0,-9.9626,225.0119,123.07859)"/>
<symbol id="font_1_3">
<path d="M .45700003 .586 C .461 .6 .461 .602 .461 .609 C .461 .62700006 .447 .63600006 .432 .63600006 C .42200003 .63600006 .40600003 .63 .397 .615 C .395 .61 .387 .579 .38300003 .561 C .37600003 .535 .36900003 .508 .363 .48100005 L .318 .301 C .314 .286 .271 .21600002 .20500002 .21600002 C .15400002 .21600002 .143 .26000003 .143 .29700003 C .143 .34300003 .16000001 .40500004 .194 .49300004 C .21000001 .53400006 .21400002 .545 .21400002 .56500008 C .21400002 .61 .18200001 .6470001 .13200002 .6470001 C .037 .6470001 0 .50200006 0 .49300004 C 0 .48300005 .01 .48300005 .012 .48300005 C .022000002 .48300005 .023 .485 .028000003 .50100007 C .055000009 .595 .095000009 .625 .12900001 .625 C .13700001 .625 .15400002 .625 .15400002 .59300008 C .15400002 .568 .14400001 .54200008 .13700001 .523 C .097 .41700004 .079 .36 .079 .31300003 C .079 .224 .142 .194 .201 .194 C .24000003 .194 .274 .21100001 .30200003 .23900002 C .289 .187 .277 .13800001 .237 .08500001 C .21100001 .051 .17300001 .022 .127 .022 C .113000009 .022 .068 .025000006 .051000008 .06400001 C .067 .06400001 .080000009 .06400001 .094000007 .076000008 C .104 .08500001 .11400001 .098000008 .11400001 .117000009 C .11400001 .148 .087000008 .15200001 .07700001 .15200001 C .054000006 .15200001 .021 .136 .021 .087000008 C .021 .037 .065000008 0 .127 0 C .23 0 .333 .091000009 .361 .20400001 L .45700003 .586 Z "/>
</symbol>
<use xlink:href="#font_1_3" transform="matrix(9.9626,0,0,-9.9626,24.492917,9.726339)"/>
</svg>
