<?xml version="1.0" encoding="UTF-8" standalone="no"?>
<!DOCTYPE svg PUBLIC "-//W3C//DTD SVG 1.1//EN" "http://www.w3.org/Graphics/SVG/1.1/DTD/svg11.dtd">
<svg xmlns="http://www.w3.org/2000/svg" xmlns:xlink="http://www.w3.org/1999/xlink" version="1.1" width="228.829pt" height="190.168pt" viewBox="0 0 228.829 190.168">
<path transform="matrix(1,0,0,-1,21.844,174.634)" stroke-width="1" stroke-linecap="butt" stroke-miterlimit="10" stroke-linejoin="miter" fill="none" stroke="#808080" d="M 48.56804 -2.12585 L 48.56804 2.12585 M 97.13608 -2.12585 L 97.13608 2.12585 M 145.70412 -2.12585 L 145.70412 2.12585 M 194.27216 -2.12585 L 194.27216 2.12585 "/>
<path transform="matrix(1,0,0,-1,21.844,174.634)" stroke-width="1" stroke-linecap="butt" stroke-miterlimit="10" stroke-linejoin="miter" fill="none" stroke="#808080" d="M -2.12581 40.34909 L 2.12581 40.34909 M -2.12581 80.69818 L 2.12581 80.69818 M -2.12581 121.04727 L 2.12581 121.04727 M -2.12581 161.39636 L 2.12581 161.39636 "/>
<path transform="matrix(1,0,0,-1,21.844,174.634)" stroke-width="1" stroke-linecap="butt" stroke-miterlimit="10" stroke-linejoin="miter" fill="none" stroke="#000000" d="M 0 0 L 192.27964 0 "/>
<path transform="matrix(1,0,0,-1,214.12363,174.634)" d="M 1.99252 0 L -1.19551 1.59401 L 0 0 L -1.19551 -1.59401 "/>
<path transform="matrix(1,0,0,-1,21.844,174.634)" stroke-width="1" stroke-linecap="butt" stroke-miterlimit="10" stroke-linejoin="miter" fill="none" stroke="#000000" d="M 0 0 L 0 159.40384 "/>
<path transform="matrix(0,-1,-1,-0,21.844,15.230164)" d="M 1.99252 0 L -1.19551 1.59401 L 0 0 L -1.19551 -1.59401 "/>
<symbol id="font_0_6">
<path d="M .39900003 .223 C .39900003 .34200005 .317 .44200004 .209 .44200004 C .16100002 .44200004 .118000019 .42600004 .082 .39100004 L .082 .586 C .10200001 .58000007 .135 .573 .16700001 .573 C .29 .573 .36 .66400006 .36 .67700007 C .36 .683 .357 .688 .35 .688 C .349 .688 .347 .688 .342 .68500009 C .322 .67600008 .273 .656 .20600002 .656 C .16600001 .656 .120000008 .66300007 .073 .6840001 C .065 .68700006 .06300001 .68700006 .061000009 .68700006 C .051000004 .68700006 .051000004 .679 .051000004 .66300007 L .051000004 .36700005 C .051000004 .34900005 .051000004 .34100003 .065 .34100003 C .07200001 .34100003 .074 .34400005 .07800001 .35000003 C .08900002 .36600004 .12600002 .42000006 .207 .42000006 C .259 .42000006 .284 .37400005 .292 .35600005 C .308 .31900005 .31 .28000004 .31 .23 C .31 .19500001 .31 .135 .286 .093 C .262 .054000006 .22500001 .028 .17900002 .028 C .106000009 .028 .049000008 .08100001 .032 .14000002 C .035 .13900002 .038000008 .13800001 .049000008 .13800001 C .082 .13800001 .09900001 .163 .09900001 .187 C .09900001 .21100001 .082 .23600002 .049000008 .23600002 C .035 .23600002 0 .22900002 0 .18300002 C 0 .097 .069000009 0 .18100001 0 C .297 0 .39900003 .096 .39900003 .223 Z "/>
</symbol>
<use xlink:href="#font_0_6" transform="matrix(9.9626,0,0,-9.9626,68.41813,186.99318)"/>
<symbol id="font_0_2">
<path d="M .205 .64000007 C .205 .66400006 .205 .666 .18200003 .666 C .120000008 .60200008 .032000007 .60200008 0 .60200008 L 0 .57100006 C .020000004 .57100006 .07900001 .57100006 .13100001 .597 L .13100001 .079 C .13100001 .043 .128 .031000002 .038000004 .031000002 L .0060000049 .031000002 L .0060000049 0 C .04100001 .003 .128 .003 .168 .003 C .20800002 .003 .29500003 .003 .33000005 0 L .33000005 .031000002 L .29800005 .031000002 C .20800002 .031000002 .205 .042000005 .205 .079 L .205 .64000007 Z "/>
</symbol>
<symbol id="font_0_1">
<path d="M .421 .34200005 C .421 .42200003 .416 .50200006 .381 .57600006 C .335 .67200008 .25300003 .688 .211 .688 C .15100001 .688 .07800001 .66200008 .037000006 .56900009 C .0050000029 .5 0 .42200003 0 .34200005 C 0 .26700003 .0040000008 .177 .045000007 .101 C .088 .020000002 .161 0 .21000001 0 C .264 0 .34 .021000002 .384 .116000007 C .416 .185 .421 .263 .421 .34200005 M .21000001 .022000002 C .171 .022000002 .112 .047000003 .094 .143 C .083000008 .20300001 .083000008 .29500003 .083000008 .35400004 C .083000008 .41800005 .083000008 .48400004 .091000009 .53800007 C .11 .65700009 .185 .66600009 .21000001 .66600009 C .243 .66600009 .30900003 .64800009 .328 .549 C .338 .49300004 .338 .41700004 .338 .35400004 C .338 .279 .338 .21100001 .32700003 .147 C .312 .052 .255 .022000002 .21000001 .022000002 Z "/>
</symbol>
<use xlink:href="#font_0_2" transform="matrix(9.9626,0,0,-9.9626,114.883678,186.774)"/>
<use xlink:href="#font_0_1" transform="matrix(9.9626,0,0,-9.9626,119.366847,186.99318)"/>
<use xlink:href="#font_0_2" transform="matrix(9.9626,0,0,-9.9626,163.45166,186.774)"/>
<use xlink:href="#font_0_6" transform="matrix(9.9626,0,0,-9.9626,168.0444,186.99318)"/>
<symbol id="font_0_3">
<path d="M .07700001 .07700001 L .18300002 .18 C .33900003 .31800003 .39900003 .372 .39900003 .47200004 C .39900003 .586 .30900003 .666 .18700002 .666 C .074 .666 0 .574 0 .485 C 0 .42900003 .05 .42900003 .053000008 .42900003 C .07000001 .42900003 .105000007 .441 .105000007 .48200003 C .105000007 .508 .08700001 .53400006 .052000006 .53400006 C .044000005 .53400006 .042000008 .53400006 .039 .53300008 C .062000004 .59800007 .11600001 .63500007 .17400001 .63500007 C .26500003 .63500007 .308 .554 .308 .47200004 C .308 .39200003 .25800003 .31300003 .20300003 .25100003 L .011000004 .037 C 0 .026 0 .024 0 0 L .37100003 0 L .39900003 .17400001 L .374 .17400001 C .36900003 .14400001 .36200003 .1 .352 .085 C .345 .07700001 .279 .07700001 .257 .07700001 L .07700001 .07700001 Z "/>
</symbol>
<use xlink:href="#font_0_3" transform="matrix(9.9626,0,0,-9.9626,211.63011,186.774)"/>
<use xlink:href="#font_0_1" transform="matrix(9.9626,0,0,-9.9626,216.50182,186.99318)"/>
<symbol id="font_0_4">
<path d="M .24800003 .37400005 C .33 .40100003 .388 .47100006 .388 .55 C .388 .632 .3 .688 .204 .688 C .10300001 .688 .027000003 .628 .027000003 .55200007 C .027000003 .519 .049000004 .5 .078 .5 C .109000008 .5 .12900001 .522 .12900001 .55100008 C .12900001 .6010001 .082 .6010001 .067 .6010001 C .098 .65000006 .164 .66300007 .20000002 .66300007 C .24100003 .66300007 .29600004 .64100006 .29600004 .55100008 C .29600004 .53900006 .29400004 .48100005 .268 .43700005 C .238 .38900004 .204 .38600005 .17900002 .38500003 C .171 .38400004 .14700002 .38200004 .14000002 .38200004 C .132 .38100005 .125 .38000003 .125 .37000004 C .125 .35900004 .132 .35900004 .14900002 .35900004 L .19300002 .35900004 C .275 .35900004 .312 .29100005 .312 .193 C .312 .057000005 .24300003 .028 .199 .028 C .15600002 .028 .081 .045 .046000005 .104 C .081 .09900001 .11200001 .12100001 .11200001 .15900001 C .11200001 .19500001 .085 .215 .056 .215 C .031999999 .215 0 .201 0 .157 C 0 .06600001 .093 0 .20200002 0 C .32400004 0 .41500003 .091000009 .41500003 .193 C .41500003 .27500005 .35200004 .35300005 .24800003 .37400005 Z "/>
</symbol>
<use xlink:href="#font_0_4" transform="matrix(9.9626,0,0,-9.9626,3.8124283,137.71518)"/>
<symbol id="font_1_1">
<path d="M .106 .053000004 C .106 .082 .08200001 .106000009 .05300001 .106000009 C .024000004 .106000009 0 .082 0 .053000004 C 0 .024 .024000004 0 .05300001 0 C .08200001 0 .106 .024 .106 .053000004 Z "/>
</symbol>
<use xlink:href="#font_1_1" transform="matrix(9.9626,0,0,-9.9626,9.232782,137.496)"/>
<use xlink:href="#font_0_6" transform="matrix(9.9626,0,0,-9.9626,11.641129,137.71518)"/>
<symbol id="font_0_5">
<path d="M .266 .165 L .266 .078 C .266 .042000005 .26400004 .031000002 .19000001 .031000002 L .16900002 .031000002 L .16900002 0 C .21000001 .003 .26200003 .003 .30400003 .003 C .34600003 .003 .39900003 .003 .44000004 0 L .44000004 .031000002 L .41900004 .031000002 C .34500004 .031000002 .34300003 .042000005 .34300003 .078 L .34300003 .165 L .44300003 .165 L .44300003 .19600001 L .34300003 .19600001 L .34300003 .651 C .34300003 .671 .34300003 .67700007 .32700003 .67700007 C .31800003 .67700007 .31500004 .67700007 .307 .665 L 0 .19600001 L 0 .165 L .266 .165 M .272 .19600001 L .028 .19600001 L .272 .569 L .272 .19600001 Z "/>
</symbol>
<use xlink:href="#font_0_5" transform="matrix(9.9626,0,0,-9.9626,11.421952,97.146999)"/>
<use xlink:href="#font_0_5" transform="matrix(9.9626,0,0,-9.9626,3.672952,56.798006)"/>
<use xlink:href="#font_1_1" transform="matrix(9.9626,0,0,-9.9626,9.232782,56.798006)"/>
<use xlink:href="#font_0_6" transform="matrix(9.9626,0,0,-9.9626,11.641129,57.01718)"/>
<use xlink:href="#font_0_6" transform="matrix(9.9626,0,0,-9.9626,11.6411299,16.669175)"/>
<clipPath id="cp2">
<path transform="matrix(1,0,0,-1,21.844,174.634)" d="M 0 0 L 194.27216 0 L 194.27216 161.39636 L 0 161.39636 Z "/>
</clipPath>
<g clip-path="url(#cp2)">
<path transform="matrix(1,0,0,-1,21.844,174.634)" stroke-width="1.19553" stroke-linecap="butt" stroke-miterlimit="10" stroke-linejoin="miter" fill="none" stroke="#000080" d="M 19.42722 120.66678 C 19.42722 120.66678 20.70317 105.35841 21.19324 96.29384 C 21.6833 87.22926 22.46921 61.27376 22.95927 55.3356 C 23.44933 49.39745 24.23523 48.99644 24.7253 53.49571 C 25.21536 57.99498 26.00125 80.14659 26.49132 87.76328 C 26.98138 95.37997 27.76729 108.11235 28.25735 108.39156 C 28.74742 108.67078 29.53331 96.33492 30.02338 89.77574 C 30.51344 83.21658 31.29935 65.0161 31.78941 61.11765 C 32.27948 57.2192 33.06538 57.98923 33.55545 61.67831 C 34.04552 65.36739 34.83142 82.13531 35.32149 87.70598 C 35.81155 93.27666 36.59744 102.04025 37.08751 101.82787 C 37.57758 101.61548 38.36348 91.35649 38.85355 86.17514 C 39.34361 80.99379 40.1295 67.20735 40.61957 64.48425 C 41.10963 61.76114 41.89554 63.33673 42.3856 66.5489 C 42.87567 69.76108 43.66156 83.31625 44.15163 87.63539 C 44.6417 91.95451 45.42761 98.19922 45.91768 97.67818 C 46.40775 97.15714 47.19363 88.17331 47.6837 83.87994 C 48.17377 79.5866 48.95967 68.68607 49.44974 66.73454 C 49.9398 64.78302 50.7257 66.9265 51.21576 69.81467 C 51.70583 72.70284 52.49173 84.08723 52.9818 87.55048 C 53.47186 91.01373 54.25775 95.50612 54.74782 94.77547 C 55.23788 94.04482 56.02379 85.94688 56.51385 82.28438 C 57.00392 78.62187 57.78981 69.78058 58.27988 68.37868 C 58.76994 66.97676 59.55586 69.53378 60.04593 72.18034 C 60.536 74.8269 61.32188 84.6199 61.81195 87.45332 C 62.30202 90.28674 63.08792 93.4816 63.57797 92.60167 C 64.06804 91.72176 64.85394 84.29478 65.34401 81.1114 C 65.83408 77.92804 66.61996 70.64667 67.11003 69.6581 C 67.6001 68.66954 68.386 71.53285 68.87607 73.98639 C 69.36613 76.43993 70.15202 84.99614 70.64209 87.34157 C 71.13216 89.68698 71.91808 91.8793 72.40814 90.89063 C 72.89821 89.90195 73.6841 83.01666 74.17416 80.21577 C 74.66423 77.41489 75.45013 71.36894 75.9402 70.70369 C 76.43027 70.03844 77.21616 73.12985 77.70622 75.42102 C 78.19629 77.71219 78.9822 85.26448 79.47226 87.21687 C 79.96233 89.16927 80.74821 90.56142 81.23828 89.49254 C 81.72835 88.42365 82.51425 81.99734 83.00432 79.51303 C 83.49438 77.0287 84.28027 71.99237 84.77034 71.58722 C 85.2604 71.18207 86.04633 74.44342 86.53639 76.593 C 87.02646 78.74258 87.81235 85.45302 88.30241 87.07988 C 88.79248 88.70673 89.57838 89.44603 90.06845 88.31833 C 90.55852 87.19063 91.3444 81.16646 91.83447 78.95216 C 92.32454 76.73787 93.11044 72.55074 93.60051 72.35924 C 94.09058 72.16774 94.87646 75.5502 95.36653 77.57187 C 95.8566 79.59354 96.6425 85.57913 97.13257 86.93007 C 97.62263 88.281 98.40854 88.47818 98.8986 87.30853 C 99.38867 86.13887 100.17458 80.47878 100.66464 78.49994 C 101.15471 76.5211 101.9406 73.05977 102.43066 73.04634 C 102.92073 73.0329 103.70663 76.49907 104.19669 78.40306 C 104.68675 80.30704 105.47266 85.6558 105.96272 86.769 C 106.45279 87.88217 107.23868 87.62424 107.72874 86.42616 C 108.21881 85.22807 109.00471 79.90392 109.49478 78.13397 C 109.98485 76.36401 110.77074 73.53304 111.2608 73.66953 C 111.75087 73.80602 112.53679 77.32417 113.02686 79.11772 C 113.51692 80.91125 114.30281 85.6909 114.79288 86.59622 C 115.28294 87.50154 116.06885 86.85796 116.55891 85.6427 C 117.04898 84.42743 117.83487 79.41905 118.32494 77.83737 C 118.815 76.2557 119.6009 73.9792 120.09097 74.24303 C 120.58104 74.50684 121.36693 78.05022 121.857 79.73882 C 122.34706 81.4274 123.13297 85.69148 123.62303 86.41324 C 124.1131 87.135 124.899 86.16365 125.38907 84.94078 C 125.87914 83.71793 126.66504 79.00998 127.1551 77.59967 C 127.64517 76.18938 128.43106 74.40422 128.92113 74.77625 C 129.4112 75.14827 130.1971 78.69316 130.68717 80.281 C 131.17723 81.86885 131.96312 85.66202 132.45319 86.22037 C 132.94326 86.77872 133.72916 85.5276 134.21923 84.30531 C 134.70929 83.08302 135.49518 78.66357 135.98525 77.41093 C 136.47531 76.15828 137.26122 74.81274 137.75128 75.27707 C 138.24135 75.74141 139.02725 79.26717 139.51732 80.75749 C 140.00739 82.24782 140.79329 85.60634 141.28336 86.01837 C 141.77342 86.43039 142.55931 84.94157 143.04938 83.72713 C 143.53945 82.51266 144.32535 78.37212 144.8154 77.2653 C 145.30547 76.1585 146.09137 75.20723 146.58144 75.74995 C 147.0715 76.2927 147.85739 79.78139 148.34746 81.1769 C 148.83753 82.57242 149.62343 85.52753 150.1135 85.80786 C 150.60356 86.0882 151.38947 84.3977 151.87953 83.19743 C 152.3696 81.99716 153.1555 78.12805 153.64557 77.15706 C 154.13564 76.18607 154.92153 75.59012 155.41159 76.1991 C 155.90166 76.80809 156.68756 80.24338 157.17763 81.54633 C 157.6677 82.84927 158.45359 85.42839 158.94365 85.58994 C 159.43372 85.75146 160.21962 83.89108 160.70969 82.71065 C 161.19976 81.53021 161.98564 77.9261 162.47571 77.08209 C 162.96578 76.23808 163.75168 75.96307 164.24175 76.62756 C 164.73181 77.29207 165.51772 80.6591 166.00778 81.87137 C 166.49785 83.08363 167.28376 85.31061 167.77382 85.36485 C 168.26389 85.41908 169.04978 83.41786 169.53984 82.26239 C 170.0299 81.10692 170.81581 77.76195 171.30588 77.03693 C 171.79595 76.31192 172.58184 76.32669 173.0719 77.037 C 173.56197 77.74731 174.34787 81.03302 174.83794 82.15646 C 175.328 83.27992 176.11389 85.17682 176.60396 85.13416 C 177.09403 85.0915 177.87995 82.97493 178.37001 81.84897 C 178.86008 80.72299 179.64597 77.63214 180.13603 77.0189 C 180.6261 76.40565 181.412 76.68184 181.90207 77.42906 C 182.39214 78.17628 183.17803 81.36813 183.66809 82.40445 C 184.15816 83.44075 184.94406 85.0281 185.43412 84.8981 C 185.92418 84.7681 186.71009 82.55984 187.20015 81.46744 C 187.69022 80.37505 188.4761 77.533 188.96617 77.02483 C 189.45624 76.51666 190.24216 77.02856 190.73223 77.80487 C 191.22229 78.58118 192.00818 81.66914 192.49825 82.61996 C 192.98831 83.57079 194.26428 84.65782 194.26428 84.65782 "/>
<path transform="matrix(1,0,0,-1,21.844,174.634)" stroke-width="1" stroke-linecap="butt" stroke-dasharray="2.98883,2.98883" stroke-miterlimit="10" stroke-linejoin="miter" fill="none" stroke="#000000" d="M 0 80.69818 L 194.27216 80.69818 "/>
</g>
<symbol id="font_1_2">
<path d="M .305 .31300003 C .311 .33900003 .334 .43100003 .404 .43100003 C .409 .43100003 .433 .43100003 .454 .418 C .426 .41300003 .40600003 .388 .40600003 .36400003 C .40600003 .34800003 .417 .32900004 .444 .32900004 C .46600003 .32900004 .498 .34700004 .498 .38700003 C .498 .43900005 .439 .45300005 .405 .45300005 C .347 .45300005 .312 .40000005 .3 .37700004 C .275 .44300003 .221 .45300005 .19200002 .45300005 C .08800001 .45300005 .031000002 .32400004 .031000002 .29900003 C .031000002 .28900004 .041 .28900004 .043000007 .28900004 C .051000008 .28900004 .054000006 .291 .056 .3 C .09 .40600003 .156 .43100003 .19000001 .43100003 C .209 .43100003 .244 .42200003 .244 .36400003 C .244 .33300004 .22700002 .26600004 .19000001 .126 C .17400001 .064 .13900002 .022000002 .095000009 .022000002 C .08900001 .022000002 .06600001 .022000002 .045 .035 C .07000001 .040000004 .09200001 .061 .09200001 .089 C .09200001 .116000007 .07000001 .124000009 .055000009 .124000009 C .025 .124000009 0 .098000008 0 .06600001 C 0 .020000002 .050000006 0 .094000007 0 C .16000001 0 .19600001 .07000001 .19900002 .076000008 C .21100001 .039 .24700003 0 .307 0 C .41 0 .467 .12900001 .467 .15400002 C .467 .16400002 .458 .16400002 .455 .16400002 C .446 .16400002 .444 .16000001 .442 .15300001 C .409 .046 .341 .022000002 .30900003 .022000002 C .27 .022000002 .254 .054 .254 .08800001 C .254 .11000001 .26 .13200002 .271 .17600002 L .305 .31300003 Z "/>
</symbol>
<use xlink:href="#font_1_2" transform="matrix(9.9626,0,0,-9.9626,220.0299,176.88858)"/>
<symbol id="font_1_3">
<path d="M .45700003 .586 C .461 .6 .461 .602 .461 .609 C .461 .62700006 .447 .63600006 .432 .63600006 C .42200003 .63600006 .40600003 .63 .397 .615 C .395 .61 .387 .579 .38300003 .561 C .37600003 .535 .36900003 .508 .363 .48100005 L .318 .301 C .314 .286 .271 .21600002 .20500002 .21600002 C .15400002 .21600002 .143 .26000003 .143 .29700003 C .143 .34300003 .16000001 .40500004 .194 .49300004 C .21000001 .53400006 .21400002 .545 .21400002 .56500008 C .21400002 .61 .18200001 .6470001 .13200002 .6470001 C .037 .6470001 0 .50200006 0 .49300004 C 0 .48300005 .01 .48300005 .012 .48300005 C .022000002 .48300005 .023 .485 .028000003 .50100007 C .055000009 .595 .095000009 .625 .12900001 .625 C .13700001 .625 .15400002 .625 .15400002 .59300008 C .15400002 .568 .14400001 .54200008 .13700001 .523 C .097 .41700004 .079 .36 .079 .31300003 C .079 .224 .142 .194 .201 .194 C .24000003 .194 .274 .21100001 .30200003 .23900002 C .289 .187 .277 .13800001 .237 .08500001 C .21100001 .051 .17300001 .022 .127 .022 C .113000009 .022 .068 .025000006 .051000008 .06400001 C .067 .06400001 .080000009 .06400001 .094000007 .076000008 C .104 .08500001 .11400001 .098000008 .11400001 .117000009 C .11400001 .148 .087000008 .15200001 .07700001 .15200001 C .054000006 .15200001 .021 .136 .021 .087000008 C .021 .037 .065000008 0 .127 0 C .23 0 .333 .091000009 .361 .20400001 L .45700003 .586 Z "/>
</symbol>
<use xlink:href="#font_1_3" transform="matrix(9.9626,0,0,-9.9626,19.511916,9.726339)"/>
</svg>
