<?xml version="1.0" encoding="UTF-8" standalone="no"?>
<!DOCTYPE svg PUBLIC "-//W3C//DTD SVG 1.1//EN" "http://www.w3.org/Graphics/SVG/1.1/DTD/svg11.dtd">
<svg xmlns="http://www.w3.org/2000/svg" xmlns:xlink="http://www.w3.org/1999/xlink" version="1.1" width="233.811pt" height="174.871pt" viewBox="0 0 233.811 174.871">
<path transform="matrix(1,0,0,-1,26.825,415.148)" stroke-width=".19925" stroke-linecap="butt" stroke-miterlimit="10" stroke-linejoin="miter" fill="none" stroke="#929292" d="M 32.3787 319.05104 L 32.3787 323.3032 M 64.75739 319.05104 L 64.75739 323.3032 M 97.13608 319.05104 L 97.13608 323.3032 M 129.51477 319.05104 L 129.51477 323.3032 M 161.89347 319.05104 L 161.89347 323.3032 M 194.27216 319.05104 L 194.27216 323.3032 "/>
<path transform="matrix(1,0,0,-1,26.825,415.148)" stroke-width=".19925" stroke-linecap="butt" stroke-miterlimit="10" stroke-linejoin="miter" fill="none" stroke="#929292" d="M -2.12598 256.6186 L 2.12598 256.6186 M -2.12598 288.89787 L 2.12598 288.89787 M -2.12598 353.4564 L 2.12598 353.4564 M -2.12598 385.73567 L 2.12598 385.73567 "/>
<path transform="matrix(1,0,0,-1,26.825,415.148)" stroke-width=".3985" stroke-linecap="butt" stroke-miterlimit="10" stroke-linejoin="miter" fill="none" stroke="#000000" d="M 0 321.17713 L 192.2796 321.17713 "/>
<path transform="matrix(1,0,0,-1,219.1046,93.97089)" d="M 1.99252 0 L -1.19551 1.59401 L 0 0 L -1.19551 -1.59401 "/>
<path transform="matrix(1,0,0,-1,26.825,415.148)" stroke-width=".3985" stroke-linecap="butt" stroke-miterlimit="10" stroke-linejoin="miter" fill="none" stroke="#000000" d="M 0 240.47895 L 0 399.88279 "/>
<path transform="matrix(0,-1,-1,-0,26.825,15.265228)" d="M 1.99252 0 L -1.19551 1.59401 L 0 0 L -1.19551 -1.59401 "/>
<symbol id="font_0_2">
<path d="M .205 .64000007 C .205 .66400006 .205 .666 .18200003 .666 C .120000008 .60200008 .032000007 .60200008 0 .60200008 L 0 .57100006 C .020000004 .57100006 .07900001 .57100006 .13100001 .597 L .13100001 .079 C .13100001 .043 .128 .031000002 .038000004 .031000002 L .0060000049 .031000002 L .0060000049 0 C .04100001 .003 .128 .003 .168 .003 C .20800002 .003 .29500003 .003 .33000005 0 L .33000005 .031000002 L .29800005 .031000002 C .20800002 .031000002 .205 .042000005 .205 .079 L .205 .64000007 Z "/>
</symbol>
<use xlink:href="#font_0_2" transform="matrix(9.9626,0,0,-9.9626,53.724676,106.11502)"/>
<symbol id="font_1_1">
<path d="M .106 .053000004 C .106 .082 .08200001 .106000009 .05300001 .106000009 C .024000004 .106000009 0 .082 0 .053000004 C 0 .024 .024000004 0 .05300001 0 C .08200001 0 .106 .024 .106 .053000004 Z "/>
</symbol>
<use xlink:href="#font_1_1" transform="matrix(9.9626,0,0,-9.9626,58.676786,106.11502)"/>
<symbol id="font_0_6">
<path d="M .39900003 .223 C .39900003 .34200005 .317 .44200004 .209 .44200004 C .16100002 .44200004 .118000019 .42600004 .082 .39100004 L .082 .586 C .10200001 .58000007 .135 .573 .16700001 .573 C .29 .573 .36 .66400006 .36 .67700007 C .36 .683 .357 .688 .35 .688 C .349 .688 .347 .688 .342 .68500009 C .322 .67600008 .273 .656 .20600002 .656 C .16600001 .656 .120000008 .66300007 .073 .6840001 C .065 .68700006 .06300001 .68700006 .061000009 .68700006 C .051000004 .68700006 .051000004 .679 .051000004 .66300007 L .051000004 .36700005 C .051000004 .34900005 .051000004 .34100003 .065 .34100003 C .07200001 .34100003 .074 .34400005 .07800001 .35000003 C .08900002 .36600004 .12600002 .42000006 .207 .42000006 C .259 .42000006 .284 .37400005 .292 .35600005 C .308 .31900005 .31 .28000004 .31 .23 C .31 .19500001 .31 .135 .286 .093 C .262 .054000006 .22500001 .028 .17900002 .028 C .106000009 .028 .049000008 .08100001 .032 .14000002 C .035 .13900002 .038000008 .13800001 .049000008 .13800001 C .082 .13800001 .09900001 .163 .09900001 .187 C .09900001 .21100001 .082 .23600002 .049000008 .23600002 C .035 .23600002 0 .22900002 0 .18300002 C 0 .097 .069000009 0 .18100001 0 C .297 0 .39900003 .096 .39900003 .223 Z "/>
</symbol>
<use xlink:href="#font_0_6" transform="matrix(9.9626,0,0,-9.9626,61.08513,106.3342)"/>
<symbol id="font_0_3">
<path d="M .07700001 .07700001 L .18300002 .18 C .33900003 .31800003 .39900003 .372 .39900003 .47200004 C .39900003 .586 .30900003 .666 .18700002 .666 C .074 .666 0 .574 0 .485 C 0 .42900003 .05 .42900003 .053000008 .42900003 C .07000001 .42900003 .105000007 .441 .105000007 .48200003 C .105000007 .508 .08700001 .53400006 .052000006 .53400006 C .044000005 .53400006 .042000008 .53400006 .039 .53300008 C .062000004 .59800007 .11600001 .63500007 .17400001 .63500007 C .26500003 .63500007 .308 .554 .308 .47200004 C .308 .39200003 .25800003 .31300003 .20300003 .25100003 L .011000004 .037 C 0 .026 0 .024 0 0 L .37100003 0 L .39900003 .17400001 L .374 .17400001 C .36900003 .14400001 .36200003 .1 .352 .085 C .345 .07700001 .279 .07700001 .257 .07700001 L .07700001 .07700001 Z "/>
</symbol>
<use xlink:href="#font_0_3" transform="matrix(9.9626,0,0,-9.9626,89.589138,106.11502)"/>
<use xlink:href="#font_0_3" transform="matrix(9.9626,0,0,-9.9626,118.09313,106.11502)"/>
<use xlink:href="#font_1_1" transform="matrix(9.9626,0,0,-9.9626,123.432788,106.11502)"/>
<use xlink:href="#font_0_6" transform="matrix(9.9626,0,0,-9.9626,125.84213,106.3342)"/>
<symbol id="font_0_4">
<path d="M .24800003 .37400005 C .33 .40100003 .388 .47100006 .388 .55 C .388 .632 .3 .688 .204 .688 C .10300001 .688 .027000003 .628 .027000003 .55200007 C .027000003 .519 .049000004 .5 .078 .5 C .109000008 .5 .12900001 .522 .12900001 .55100008 C .12900001 .6010001 .082 .6010001 .067 .6010001 C .098 .65000006 .164 .66300007 .20000002 .66300007 C .24100003 .66300007 .29600004 .64100006 .29600004 .55100008 C .29600004 .53900006 .29400004 .48100005 .268 .43700005 C .238 .38900004 .204 .38600005 .17900002 .38500003 C .171 .38400004 .14700002 .38200004 .14000002 .38200004 C .132 .38100005 .125 .38000003 .125 .37000004 C .125 .35900004 .132 .35900004 .14900002 .35900004 L .19300002 .35900004 C .275 .35900004 .312 .29100005 .312 .193 C .312 .057000005 .24300003 .028 .199 .028 C .15600002 .028 .081 .045 .046000005 .104 C .081 .09900001 .11200001 .12100001 .11200001 .15900001 C .11200001 .19500001 .085 .215 .056 .215 C .031999999 .215 0 .201 0 .157 C 0 .06600001 .093 0 .20200002 0 C .32400004 0 .41500003 .091000009 .41500003 .193 C .41500003 .27500005 .35200004 .35300005 .24800003 .37400005 Z "/>
</symbol>
<use xlink:href="#font_0_4" transform="matrix(9.9626,0,0,-9.9626,154.26644,106.3342)"/>
<use xlink:href="#font_0_4" transform="matrix(9.9626,0,0,-9.9626,182.77042,106.3342)"/>
<use xlink:href="#font_1_1" transform="matrix(9.9626,0,0,-9.9626,188.18978,106.11502)"/>
<use xlink:href="#font_0_6" transform="matrix(9.9626,0,0,-9.9626,190.59812,106.3342)"/>
<symbol id="font_0_5">
<path d="M .266 .165 L .266 .078 C .266 .042000005 .26400004 .031000002 .19000001 .031000002 L .16900002 .031000002 L .16900002 0 C .21000001 .003 .26200003 .003 .30400003 .003 C .34600003 .003 .39900003 .003 .44000004 0 L .44000004 .031000002 L .41900004 .031000002 C .34500004 .031000002 .34300003 .042000005 .34300003 .078 L .34300003 .165 L .44300003 .165 L .44300003 .19600001 L .34300003 .19600001 L .34300003 .651 C .34300003 .671 .34300003 .67700007 .32700003 .67700007 C .31800003 .67700007 .31500004 .67700007 .307 .665 L 0 .19600001 L 0 .165 L .266 .165 M .272 .19600001 L .028 .19600001 L .272 .569 L .272 .19600001 Z "/>
</symbol>
<use xlink:href="#font_0_5" transform="matrix(9.9626,0,0,-9.9626,218.88295,106.11502)"/>
<symbol id="font_2_1">
<path d="M .57600006 0 C .59300008 0 .611 0 .611 .019999996 C .611 .040000008 .59300008 .040000008 .57600006 .040000008 L .035000005 .040000008 C .018 .040000008 0 .040000008 0 .019999996 C 0 0 .018 0 .035000005 0 L .57600006 0 Z "/>
</symbol>
<use xlink:href="#font_2_1" transform="matrix(9.9626,0,0,-9.9626,4.2208969,159.0366)"/>
<symbol id="font_0_1">
<path d="M .421 .34200005 C .421 .42200003 .416 .50200006 .381 .57600006 C .335 .67200008 .25300003 .688 .211 .688 C .15100001 .688 .07800001 .66200008 .037000006 .56900009 C .0050000029 .5 0 .42200003 0 .34200005 C 0 .26700003 .0040000008 .177 .045000007 .101 C .088 .020000002 .161 0 .21000001 0 C .264 0 .34 .021000002 .384 .116000007 C .416 .185 .421 .263 .421 .34200005 M .21000001 .022000002 C .171 .022000002 .112 .047000003 .094 .143 C .083000008 .20300001 .083000008 .29500003 .083000008 .35400004 C .083000008 .41800005 .083000008 .48400004 .091000009 .53800007 C .11 .65700009 .185 .66600009 .21000001 .66600009 C .243 .66600009 .30900003 .64800009 .328 .549 C .338 .49300004 .338 .41700004 .338 .35400004 C .338 .279 .338 .21100001 .32700003 .147 C .312 .052 .255 .022000002 .21000001 .022000002 Z "/>
</symbol>
<use xlink:href="#font_0_5" transform="matrix(9.9626,0,0,-9.9626,11.421953,161.328)"/>
<use xlink:href="#font_0_1" transform="matrix(9.9626,0,0,-9.9626,16.512845,161.54718)"/>
<use xlink:href="#font_2_1" transform="matrix(9.9626,0,0,-9.9626,4.2208969,126.757617)"/>
<use xlink:href="#font_0_3" transform="matrix(9.9626,0,0,-9.9626,11.64113,129.04901)"/>
<use xlink:href="#font_0_1" transform="matrix(9.9626,0,0,-9.9626,16.512845,129.26819)"/>
<use xlink:href="#font_0_3" transform="matrix(9.9626,0,0,-9.9626,11.64113,64.906009)"/>
<use xlink:href="#font_0_1" transform="matrix(9.9626,0,0,-9.9626,16.512845,65.12518)"/>
<use xlink:href="#font_0_5" transform="matrix(9.9626,0,0,-9.9626,11.421953,32.627016)"/>
<use xlink:href="#font_0_1" transform="matrix(9.9626,0,0,-9.9626,16.512845,32.84619)"/>
<clipPath id="cp3">
<path transform="matrix(1,0,0,-1,26.825,415.148)" d="M 0 240.47895 L 194.27213 240.47895 L 194.27213 401.8753 L 0 401.8753 Z "/>
</clipPath>
<g clip-path="url(#cp3)">
<path transform="matrix(1,0,0,-1,26.825,415.148)" stroke-width="1.19553" stroke-linecap="butt" stroke-miterlimit="10" stroke-linejoin="miter" fill="none" stroke="#000080" d="M 130.80992 0 C 130.80992 0 131.27306 84.5889 131.45095 106.86858 C 131.62882 129.14827 131.9141 148.64163 132.09198 160.57643 C 132.26985 172.51123 132.55513 185.40944 132.73302 192.88637 C 132.91089 200.36331 133.19615 209.33026 133.37404 214.46508 C 133.55191 219.5999 133.83719 226.1468 134.01508 229.89458 C 134.19295 233.64234 134.47823 238.61853 134.65612 241.47637 C 134.83399 244.3342 135.11925 248.24008 135.29714 250.49196 C 135.475 252.74385 135.76029 255.88596 135.93817 257.7064 C 136.11605 259.5268 136.40132 262.10984 136.57921 263.61238 C 136.75708 265.1149 137.04236 267.27433 137.22025 268.5356 C 137.39812 269.79689 137.68338 271.629 137.86127 272.70286 C 138.03914 273.7767 138.32442 275.3499 138.5023 276.27519 C 138.68018 277.20048 138.96546 278.56605 139.14334 279.37178 C 139.32122 280.17747 139.60648 281.37434 139.78437 282.08226 C 139.96224 282.79017 140.24752 283.8471 140.4254 284.47398 C 140.60327 285.10087 140.88855 286.04139 141.06644 286.6004 C 141.24431 287.15943 141.52957 288.00148 141.70746 288.50309 C 141.88533 289.00468 142.17061 289.76304 142.3485 290.21565 C 142.52637 290.6683 142.81165 291.35487 142.98954 291.7654 C 143.1674 292.1759 143.45269 292.80039 143.63057 293.17439 C 143.80844 293.54838 144.0937 294.1187 144.27159 294.46086 C 144.44947 294.803 144.73474 295.32618 144.91263 295.64036 C 145.0905 295.95454 145.37578 296.43589 145.55367 296.72544 C 145.73154 297.01496 146.0168 297.45954 146.19469 297.7272 C 146.37256 297.99488 146.65784 298.40638 146.83573 298.65458 C 147.0136 298.9028 147.29888 299.28529 147.47676 299.5161 C 147.65464 299.74693 147.93991 300.10316 148.1178 300.31828 C 148.29567 300.5334 148.58094 300.86567 148.75882 301.06669 C 148.93669 301.26765 149.22197 301.57868 149.39986 301.76695 C 149.57773 301.95527 149.863 302.24717 150.0409 302.42384 C 150.21877 302.60054 150.50403 302.87446 150.68192 303.0405 C 150.85979 303.2066 151.14507 303.46443 151.32295 303.6209 C 151.50083 303.7774 151.7861 304.02067 151.96399 304.16838 C 152.14186 304.3161 152.42713 304.54609 152.60501 304.68565 C 152.78289 304.8252 153.06816 305.04225 153.24605 305.17436 C 153.42392 305.30644 153.7092 305.51258 153.88709 305.63786 C 154.06496 305.76319 154.35024 305.9586 154.52812 306.0775 C 154.706 306.19648 154.99126 306.38218 155.16915 306.4952 C 155.34702 306.60829 155.6323 306.78483 155.81018 306.89244 C 155.98805 307.00004 156.27333 307.1682 156.45122 307.27073 C 156.62909 307.37327 156.91436 307.53358 157.09224 307.63145 C 157.27011 307.7293 157.55539 307.88258 157.73328 307.97605 C 157.91115 308.06947 158.19643 308.21568 158.37432 308.30497 C 158.55219 308.39427 158.83745 308.5342 159.01534 308.61967 C 159.1932 308.70515 159.47849 308.83915 159.65637 308.921 C 159.83425 309.00288 160.11952 309.13124 160.29741 309.20973 C 160.47528 309.28825 160.76056 309.41154 160.93845 309.48686 C 161.11632 309.5622 161.40158 309.68049 161.57947 309.75285 C 161.75734 309.8252 162.04262 309.93894 162.2205 310.0085 C 162.39838 310.07807 162.68366 310.1874 162.86154 310.2543 C 163.03942 310.3212 163.32468 310.4264 163.50257 310.49076 C 163.68044 310.5551 163.96572 310.6561 164.1436 310.71815 C 164.32147 310.7802 164.60675 310.87815 164.78464 310.93797 C 164.96251 310.99784 165.24779 311.0919 165.42568 311.14958 C 165.60355 311.20726 165.88881 311.29795 166.0667 311.35359 C 166.24457 311.40925 166.52985 311.49687 166.70774 311.55064 C 166.8856 311.60444 167.17089 311.68928 167.34877 311.74125 C 167.52664 311.7932 167.8119 311.875 167.98979 311.92524 C 168.16767 311.97547 168.45294 312.05464 168.63083 312.10328 C 168.8087 312.15187 169.09398 312.22856 169.27187 312.27565 C 169.44974 312.32273 169.735 312.3971 169.91289 312.44267 C 170.09076 312.48826 170.37604 312.5601 170.55393 312.60423 C 170.7318 312.64836 171.01708 312.71797 171.19496 312.7608 C 171.37284 312.8036 171.65811 312.8713 171.836 312.9128 C 172.01387 312.9543 172.29914 313.01976 172.47702 313.06 C 172.65489 313.1003 172.94017 313.16407 173.11806 313.20317 C 173.29593 313.2423 173.5812 313.30403 173.7591 313.34199 C 173.93697 313.37998 174.22223 313.43998 174.40012 313.4769 C 174.57799 313.51387 174.86327 313.57237 175.04116 313.60829 C 175.21903 313.64418 175.5043 313.7009 175.68219 313.7358 C 175.86006 313.7707 176.14533 313.82579 176.32321 313.85975 C 176.50109 313.89369 176.78636 313.94746 176.96425 313.98048 C 177.14212 314.0135 177.4274 314.06568 177.60529 314.09779 C 177.78316 314.1299 178.06844 314.18074 178.24633 314.21205 C 178.4242 314.24339 178.70946 314.2931 178.88735 314.3236 C 179.06522 314.3541 179.3505 314.4023 179.52838 314.43205 C 179.70626 314.4618 179.99153 314.50895 180.16942 314.53794 C 180.34729 314.56694 180.63256 314.6128 180.81044 314.64106 C 180.98831 314.6693 181.27359 314.71406 181.45148 314.7416 C 181.62935 314.7692 181.91463 314.813 182.09252 314.8399 C 182.27039 314.8668 182.55567 314.9094 182.73355 314.9356 C 182.91143 314.9618 183.19669 315.00325 183.37458 315.02888 C 183.55245 315.05455 183.83773 315.09535 184.01561 315.1204 C 184.19348 315.14546 184.47876 315.18507 184.65665 315.2095 C 184.83452 315.23396 185.11978 315.27275 185.29767 315.29667 C 185.47554 315.32057 185.76082 315.3585 185.9387 315.38188 C 186.11658 315.40525 186.40186 315.44236 186.57975 315.46516 C 186.75762 315.48799 187.04288 315.52403 187.22077 315.54634 C 187.39864 315.56864 187.68392 315.60408 187.8618 315.6259 C 188.03968 315.64775 188.32495 315.6823 188.50284 315.7037 C 188.68071 315.72508 188.96599 315.7591 189.14388 315.78004 C 189.32175 315.801 189.60701 315.8343 189.7849 315.85475 C 189.96277 315.8752 190.24805 315.90757 190.42594 315.92756 C 190.6038 315.94758 190.88909 315.97944 191.06697 315.99906 C 191.24485 316.01866 191.53012 316.0497 191.708 316.06895 C 191.88587 316.08818 192.17116 316.11885 192.34903 316.13768 C 192.5269 316.1565 192.8122 316.1862 192.99007 316.20466 C 193.16794 316.2231 193.45322 316.2526 193.63109 316.2707 C 193.80896 316.2888 194.27213 316.33525 194.27213 316.33525 "/>
<path transform="matrix(1,0,0,-1,26.825,415.148)" stroke-width="1.19553" stroke-linecap="butt" stroke-miterlimit="10" stroke-linejoin="miter" fill="none" stroke="#000080" d="M 0 326.01905 C 0 326.01905 .93575 326.04249 1.29514 326.0516 C 1.65453 326.06077 2.2309 326.0756 2.59029 326.08488 C 2.94968 326.0942 3.52605 326.1093 3.88544 326.1188 C 4.24483 326.12834 4.8212 326.14378 5.18059 326.1535 C 5.53998 326.1632 6.11635 326.17897 6.47574 326.1889 C 6.83511 326.1988 7.41148 326.2149 7.77087 326.22505 C 8.13026 326.23518 8.70663 326.25163 9.06602 326.26197 C 9.42542 326.2723 10.00179 326.28913 10.36118 326.2997 C 10.72057 326.31028 11.29694 326.32743 11.65633 326.33824 C 12.01572 326.34904 12.59209 326.3666 12.95148 326.37767 C 13.31087 326.38874 13.88722 326.40666 14.24661 326.41795 C 14.606 326.42927 15.18237 326.44764 15.54176 326.4592 C 15.90115 326.47077 16.47752 326.4895 16.83691 326.50135 C 17.1963 326.51319 17.77267 326.53239 18.13206 326.5445 C 18.49146 326.55659 19.06783 326.57627 19.42722 326.58866 C 19.7866 326.60105 20.36296 326.62117 20.72235 326.63386 C 21.08174 326.64656 21.65811 326.66716 22.0175 326.68016 C 22.37689 326.69316 22.95326 326.71427 23.31265 326.72758 C 23.67204 326.7409 24.24841 326.7625 24.6078 326.77619 C 24.9672 326.78984 25.54356 326.812 25.90295 326.826 C 26.26234 326.84 26.8387 326.86274 27.19809 326.87709 C 27.55748 326.89143 28.13385 326.91474 28.49324 326.92948 C 28.85263 326.94419 29.429 326.9681 29.78839 326.9832 C 30.14778 326.9983 30.72415 327.02287 31.08354 327.03837 C 31.44293 327.05387 32.0193 327.07908 32.3787 327.09498 C 32.73808 327.1109 33.31444 327.1368 33.67383 327.15315 C 34.03322 327.16954 34.60959 327.19609 34.96898 327.2129 C 35.32837 327.2297 35.90474 327.25706 36.26413 327.27436 C 36.62352 327.2916 37.19989 327.3197 37.55928 327.33747 C 37.91867 327.35523 38.49504 327.38414 38.85443 327.4024 C 39.21382 327.4207 39.79018 327.4504 40.14957 327.4692 C 40.50896 327.48805 41.08533 327.51866 41.44472 327.53804 C 41.80411 327.5574 42.38048 327.58894 42.73987 327.6089 C 43.09926 327.62886 43.67563 327.66133 44.03502 327.6819 C 44.39441 327.70246 44.97078 327.73594 45.33017 327.75715 C 45.68956 327.77833 46.26591 327.81288 46.6253 327.83473 C 46.9847 327.8566 47.56107 327.8922 47.92046 327.91477 C 48.27985 327.93733 48.85622 327.9741 49.2156 327.9974 C 49.575 328.0207 50.15137 328.0587 50.51076 328.08277 C 50.87015 328.10685 51.44652 328.14607 51.80591 328.17097 C 52.1653 328.19584 52.74165 328.23646 53.10104 328.26219 C 53.46043 328.28794 54.0368 328.32987 54.3962 328.35649 C 54.75558 328.3831 55.33195 328.42655 55.69135 328.45414 C 56.05074 328.4817 56.6271 328.52668 56.9865 328.55525 C 57.34589 328.5838 57.92226 328.63044 58.28165 328.66004 C 58.64104 328.68965 59.21739 328.738 59.57678 328.76875 C 59.93617 328.79948 60.51254 328.8496 60.87193 328.8815 C 61.23132 328.9134 61.8077 328.9655 62.16708 328.99864 C 62.52647 329.03175 63.10284 329.08589 63.46223 329.12034 C 63.82162 329.1548 64.398 329.21116 64.75739 329.24696 C 65.11678 329.28276 65.69313 329.34117 66.05252 329.37849 C 66.41191 329.4158 66.98828 329.4769 67.34767 329.5158 C 67.70706 329.55476 68.28343 329.61845 68.64282 329.65898 C 69.00221 329.69953 69.57858 329.7658 69.93797 329.8081 C 70.29736 329.85044 70.87373 329.9198 71.23312 329.96406 C 71.59251 330.0083 72.16887 330.08073 72.52826 330.12705 C 72.88765 330.17335 73.46402 330.2493 73.82341 330.2978 C 74.1828 330.34629 74.75917 330.4258 75.11856 330.47663 C 75.47795 330.5274 76.05432 330.61073 76.41371 330.66404 C 76.7731 330.7173 77.34947 330.80473 77.70886 330.86073 C 78.06825 330.91673 78.64462 331.0087 79.004 331.06764 C 79.36339 331.1266 79.93976 331.22349 80.29915 331.28556 C 80.65854 331.34764 81.23491 331.4496 81.5943 331.51506 C 81.95369 331.58055 82.53006 331.6883 82.88945 331.75746 C 83.24884 331.82664 83.82521 331.94044 84.1846 332.0136 C 84.54399 332.0868 85.12036 332.20735 85.47974 332.2849 C 85.83913 332.36244 86.4155 332.49024 86.77489 332.57255 C 87.13428 332.65483 87.71065 332.79063 88.07004 332.8782 C 88.42943 332.96574 89.0058 333.1103 89.36519 333.20359 C 89.72458 333.29689 90.30095 333.4511 90.66034 333.55076 C 91.01973 333.65037 91.5961 333.81498 91.95549 333.92164 C 92.31487 334.02827 92.89124 334.20509 93.25063 334.31947 C 93.61002 334.43388 94.18639 334.6232 94.54578 334.7462 C 94.90517 334.8692 95.48154 335.0733 95.84093 335.20603 C 96.20032 335.33876 96.77669 335.55928 97.13608 335.7028 C 97.49547 335.84635 98.07184 336.0848 98.43123 336.24058 C 98.79062 336.39634 99.36697 336.65583 99.72636 336.82548 C 100.08575 336.9951 100.66212 337.2779 101.02151 337.46333 C 101.3809 337.64875 101.95728 337.9584 102.31667 338.162 C 102.67606 338.36555 103.25243 338.70606 103.61182 338.93055 C 103.9712 339.15504 104.54758 339.53117 104.90697 339.77998 C 105.26636 340.0288 105.84271 340.4465 106.2021 340.72383 C 106.5615 341.00114 107.13786 341.4677 107.49725 341.77873 C 107.85664 342.08976 108.43301 342.6142 108.7924 342.96546 C 109.1518 343.3167 109.72816 343.91053 110.08755 344.3104 C 110.44695 344.71028 111.02332 345.38816 111.3827 345.84754 C 111.7421 346.3069 112.31845 347.0881 112.67784 347.62129 C 113.03723 348.15446 113.6136 349.06404 113.97299 349.69038 C 114.33238 350.31675 114.90875 351.38926 115.26814 352.13569 C 115.62753 352.8821 116.2039 354.16539 116.5633 355.0702 C 116.92268 355.97499 117.49905 357.53724 117.85844 358.6569 C 118.21783 359.77659 118.79419 361.7182 119.15358 363.14 C 119.51297 364.5618 120.08934 367.0382 120.44873 368.90428 C 120.80812 370.7704 121.38449 374.03044 121.74388 376.58967 C 122.10327 379.14888 122.67964 383.6172 123.03903 387.34947 C 123.39842 391.08174 123.9748 397.5176 124.33418 403.48927 C 124.69357 409.46095 125.26993 419.1925 125.62932 430.3892 C 125.98871 441.5859 126.56508 454.3296 126.92447 484.18745 C 127.28386 514.04537 128.21962 645.5838 128.21962 645.5838 "/>
<path transform="matrix(1,0,0,-1,26.825,415.148)" stroke-width=".3985" stroke-linecap="butt" stroke-dasharray="2.98883,2.98883" stroke-miterlimit="10" stroke-linejoin="miter" fill="none" stroke="#000000" d="M 129.51477 240.47895 L 129.51477 401.8753 "/>
</g>
<path transform="matrix(1,0,0,-1,26.825,415.148)" d="M 66.74994 329.24696 C 66.74994 330.34745 65.85785 331.2395 64.75739 331.2395 C 63.6569 331.2395 62.76483 330.34745 62.76483 329.24696 C 62.76483 328.14649 63.6569 327.2544 64.75739 327.2544 C 65.85785 327.2544 66.74994 328.14649 66.74994 329.24696 Z M 64.75739 329.24696 " fill="#ffffff"/>
<path transform="matrix(1,0,0,-1,26.825,415.148)" stroke-width=".3985" stroke-linecap="butt" stroke-miterlimit="10" stroke-linejoin="miter" fill="none" stroke="#000080" d="M 66.74994 329.24696 C 66.74994 330.34745 65.85785 331.2395 64.75739 331.2395 C 63.6569 331.2395 62.76483 330.34745 62.76483 329.24696 C 62.76483 328.14649 63.6569 327.2544 64.75739 327.2544 C 65.85785 327.2544 66.74994 328.14649 66.74994 329.24696 Z M 64.75739 329.24696 "/>
<symbol id="font_1_2">
<path d="M .305 .31300003 C .311 .33900003 .334 .43100003 .404 .43100003 C .409 .43100003 .433 .43100003 .454 .418 C .426 .41300003 .40600003 .388 .40600003 .36400003 C .40600003 .34800003 .417 .32900004 .444 .32900004 C .46600003 .32900004 .498 .34700004 .498 .38700003 C .498 .43900005 .439 .45300005 .405 .45300005 C .347 .45300005 .312 .40000005 .3 .37700004 C .275 .44300003 .221 .45300005 .19200002 .45300005 C .08800001 .45300005 .031000002 .32400004 .031000002 .29900003 C .031000002 .28900004 .041 .28900004 .043000007 .28900004 C .051000008 .28900004 .054000006 .291 .056 .3 C .09 .40600003 .156 .43100003 .19000001 .43100003 C .209 .43100003 .244 .42200003 .244 .36400003 C .244 .33300004 .22700002 .26600004 .19000001 .126 C .17400001 .064 .13900002 .022000002 .095000009 .022000002 C .08900001 .022000002 .06600001 .022000002 .045 .035 C .07000001 .040000004 .09200001 .061 .09200001 .089 C .09200001 .116000007 .07000001 .124000009 .055000009 .124000009 C .025 .124000009 0 .098000008 0 .06600001 C 0 .020000002 .050000006 0 .094000007 0 C .16000001 0 .19600001 .07000001 .19900002 .076000008 C .21100001 .039 .24700003 0 .307 0 C .41 0 .467 .12900001 .467 .15400002 C .467 .16400002 .458 .16400002 .455 .16400002 C .446 .16400002 .444 .16000001 .442 .15300001 C .409 .046 .341 .022000002 .30900003 .022000002 C .27 .022000002 .254 .054 .254 .08800001 C .254 .11000001 .26 .13200002 .271 .17600002 L .305 .31300003 Z "/>
</symbol>
<use xlink:href="#font_1_2" transform="matrix(9.9626,0,0,-9.9626,225.0119,96.17359)"/>
<symbol id="font_1_3">
<path d="M .45700003 .586 C .461 .6 .461 .602 .461 .609 C .461 .62700006 .447 .63600006 .432 .63600006 C .42200003 .63600006 .40600003 .63 .397 .615 C .395 .61 .387 .579 .38300003 .561 C .37600003 .535 .36900003 .508 .363 .48100005 L .318 .301 C .314 .286 .271 .21600002 .20500002 .21600002 C .15400002 .21600002 .143 .26000003 .143 .29700003 C .143 .34300003 .16000001 .40500004 .194 .49300004 C .21000001 .53400006 .21400002 .545 .21400002 .56500008 C .21400002 .61 .18200001 .6470001 .13200002 .6470001 C .037 .6470001 0 .50200006 0 .49300004 C 0 .48300005 .01 .48300005 .012 .48300005 C .022000002 .48300005 .023 .485 .028000003 .50100007 C .055000009 .595 .095000009 .625 .12900001 .625 C .13700001 .625 .15400002 .625 .15400002 .59300008 C .15400002 .568 .14400001 .54200008 .13700001 .523 C .097 .41700004 .079 .36 .079 .31300003 C .079 .224 .142 .194 .201 .194 C .24000003 .194 .274 .21100001 .30200003 .23900002 C .289 .187 .277 .13800001 .237 .08500001 C .21100001 .051 .17300001 .022 .127 .022 C .113000009 .022 .068 .025000006 .051000008 .06400001 C .067 .06400001 .080000009 .06400001 .094000007 .076000008 C .104 .08500001 .11400001 .098000008 .11400001 .117000009 C .11400001 .148 .087000008 .15200001 .07700001 .15200001 C .054000006 .15200001 .021 .136 .021 .087000008 C .021 .037 .065000008 0 .127 0 C .23 0 .333 .091000009 .361 .20400001 L .45700003 .586 Z "/>
</symbol>
<use xlink:href="#font_1_3" transform="matrix(9.9626,0,0,-9.9626,24.492917,9.726355)"/>
</svg>
