<?xml version="1.0" encoding="UTF-8" standalone="no"?>
<!DOCTYPE svg PUBLIC "-//W3C//DTD SVG 1.1//EN" "http://www.w3.org/Graphics/SVG/1.1/DTD/svg11.dtd">
<svg xmlns="http://www.w3.org/2000/svg" xmlns:xlink="http://www.w3.org/1999/xlink" version="1.1" width="220.788pt" height="174.679pt" viewBox="0 0 220.788 174.679">
<path transform="matrix(1,0,0,-1,13.947,174.48)" stroke-width="1" stroke-linecap="butt" stroke-miterlimit="10" stroke-linejoin="miter" fill="none" stroke="#808080" d="M 32.3802 24.77238 L 32.3802 29.02434 M 64.76042 24.77238 L 64.76042 29.02434 M 97.14064 24.77238 L 97.14064 29.02434 M 129.52085 24.77238 L 129.52085 29.02434 M 161.90106 24.77238 L 161.90106 29.02434 M 194.28128 24.77238 L 194.28128 29.02434 "/>
<path transform="matrix(1,0,0,-1,13.947,174.48)" stroke-width="1" stroke-linecap="butt" stroke-miterlimit="10" stroke-linejoin="miter" fill="none" stroke="#808080" d="M -2.1259 53.79675 L 2.1259 53.79675 M -2.1259 80.69513 L 2.1259 80.69513 M -2.1259 107.59352 L 2.1259 107.59352 M -2.1259 134.4919 L 2.1259 134.4919 "/>
<path transform="matrix(1,0,0,-1,13.947,174.48)" stroke-width="1" stroke-linecap="butt" stroke-miterlimit="10" stroke-linejoin="miter" fill="none" stroke="#000000" d="M 0 26.89838 L 192.28536 26.89838 "/>
<path transform="matrix(1,0,0,-1,206.23236,147.58162)" d="M 1.99252 0 L -1.19551 1.59401 L 0 0 L -1.19551 -1.59401 "/>
<path transform="matrix(1,0,0,-1,13.947,174.48)" stroke-width="1" stroke-linecap="butt" stroke-miterlimit="10" stroke-linejoin="miter" fill="none" stroke="#000000" d="M 0 0 L 0 159.39775 "/>
<path transform="matrix(0,-1,-1,-0,13.947,15.082245)" d="M 1.99252 0 L -1.19551 1.59401 L 0 0 L -1.19551 -1.59401 "/>
<symbol id="font_0_1">
<path d="M .205 .64000007 C .205 .66400006 .205 .666 .18200003 .666 C .120000008 .60200008 .032000007 .60200008 0 .60200008 L 0 .57100006 C .020000004 .57100006 .07900001 .57100006 .13100001 .597 L .13100001 .079 C .13100001 .043 .128 .031000002 .038000004 .031000002 L .0060000049 .031000002 L .0060000049 0 C .04100001 .003 .128 .003 .168 .003 C .20800002 .003 .29500003 .003 .33000005 0 L .33000005 .031000002 L .29800005 .031000002 C .20800002 .031000002 .205 .042000005 .205 .079 L .205 .64000007 Z "/>
</symbol>
<use xlink:href="#font_0_1" transform="matrix(9.9626,0,0,-9.9626,44.72367,159.648)"/>
<symbol id="font_0_2">
<path d="M .07700001 .07700001 L .18300002 .18 C .33900003 .31800003 .39900003 .372 .39900003 .47200004 C .39900003 .586 .30900003 .666 .18700002 .666 C .074 .666 0 .574 0 .485 C 0 .42900003 .05 .42900003 .053000008 .42900003 C .07000001 .42900003 .105000007 .441 .105000007 .48200003 C .105000007 .508 .08700001 .53400006 .052000006 .53400006 C .044000005 .53400006 .042000008 .53400006 .039 .53300008 C .062000004 .59800007 .11600001 .63500007 .17400001 .63500007 C .26500003 .63500007 .308 .554 .308 .47200004 C .308 .39200003 .25800003 .31300003 .20300003 .25100003 L .011000004 .037 C 0 .026 0 .024 0 0 L .37100003 0 L .39900003 .17400001 L .374 .17400001 C .36900003 .14400001 .36200003 .1 .352 .085 C .345 .07700001 .279 .07700001 .257 .07700001 L .07700001 .07700001 Z "/>
</symbol>
<use xlink:href="#font_0_2" transform="matrix(9.9626,0,0,-9.9626,76.714138,159.648)"/>
<symbol id="font_0_3">
<path d="M .24800003 .37400005 C .33 .40100003 .388 .47100006 .388 .55 C .388 .632 .3 .688 .204 .688 C .10300001 .688 .027000003 .628 .027000003 .55200007 C .027000003 .519 .049000004 .5 .078 .5 C .109000008 .5 .12900001 .522 .12900001 .55100008 C .12900001 .6010001 .082 .6010001 .067 .6010001 C .098 .65000006 .164 .66300007 .20000002 .66300007 C .24100003 .66300007 .29600004 .64100006 .29600004 .55100008 C .29600004 .53900006 .29400004 .48100005 .268 .43700005 C .238 .38900004 .204 .38600005 .17900002 .38500003 C .171 .38400004 .14700002 .38200004 .14000002 .38200004 C .132 .38100005 .125 .38000003 .125 .37000004 C .125 .35900004 .132 .35900004 .14900002 .35900004 L .19300002 .35900004 C .275 .35900004 .312 .29100005 .312 .193 C .312 .057000005 .24300003 .028 .199 .028 C .15600002 .028 .081 .045 .046000005 .104 C .081 .09900001 .11200001 .12100001 .11200001 .15900001 C .11200001 .19500001 .085 .215 .056 .215 C .031999999 .215 0 .201 0 .157 C 0 .06600001 .093 0 .20200002 0 C .32400004 0 .41500003 .091000009 .41500003 .193 C .41500003 .27500005 .35200004 .35300005 .24800003 .37400005 Z "/>
</symbol>
<use xlink:href="#font_0_3" transform="matrix(9.9626,0,0,-9.9626,109.01443,159.86717)"/>
<symbol id="font_0_4">
<path d="M .266 .165 L .266 .078 C .266 .042000005 .26400004 .031000002 .19000001 .031000002 L .16900002 .031000002 L .16900002 0 C .21000001 .003 .26200003 .003 .30400003 .003 C .34600003 .003 .39900003 .003 .44000004 0 L .44000004 .031000002 L .41900004 .031000002 C .34500004 .031000002 .34300003 .042000005 .34300003 .078 L .34300003 .165 L .44300003 .165 L .44300003 .19600001 L .34300003 .19600001 L .34300003 .651 C .34300003 .671 .34300003 .67700007 .32700003 .67700007 C .31800003 .67700007 .31500004 .67700007 .307 .665 L 0 .19600001 L 0 .165 L .266 .165 M .272 .19600001 L .028 .19600001 L .272 .569 L .272 .19600001 Z "/>
</symbol>
<use xlink:href="#font_0_4" transform="matrix(9.9626,0,0,-9.9626,141.25495,159.648)"/>
<symbol id="font_0_5">
<path d="M .39900003 .223 C .39900003 .34200005 .317 .44200004 .209 .44200004 C .16100002 .44200004 .118000019 .42600004 .082 .39100004 L .082 .586 C .10200001 .58000007 .135 .573 .16700001 .573 C .29 .573 .36 .66400006 .36 .67700007 C .36 .683 .357 .688 .35 .688 C .349 .688 .347 .688 .342 .68500009 C .322 .67600008 .273 .656 .20600002 .656 C .16600001 .656 .120000008 .66300007 .073 .6840001 C .065 .68700006 .06300001 .68700006 .061000009 .68700006 C .051000004 .68700006 .051000004 .679 .051000004 .66300007 L .051000004 .36700005 C .051000004 .34900005 .051000004 .34100003 .065 .34100003 C .07200001 .34100003 .074 .34400005 .07800001 .35000003 C .08900002 .36600004 .12600002 .42000006 .207 .42000006 C .259 .42000006 .284 .37400005 .292 .35600005 C .308 .31900005 .31 .28000004 .31 .23 C .31 .19500001 .31 .135 .286 .093 C .262 .054000006 .22500001 .028 .17900002 .028 C .106000009 .028 .049000008 .08100001 .032 .14000002 C .035 .13900002 .038000008 .13800001 .049000008 .13800001 C .082 .13800001 .09900001 .163 .09900001 .187 C .09900001 .21100001 .082 .23600002 .049000008 .23600002 C .035 .23600002 0 .22900002 0 .18300002 C 0 .097 .069000009 0 .18100001 0 C .297 0 .39900003 .096 .39900003 .223 Z "/>
</symbol>
<use xlink:href="#font_0_5" transform="matrix(9.9626,0,0,-9.9626,173.85413,159.86717)"/>
<symbol id="font_0_6">
<path d="M .089999999 .35000003 L .089999999 .37400005 C .089999999 .62700006 .21400002 .66300007 .26500003 .66300007 C .28900004 .66300007 .33100004 .65700009 .35300002 .623 C .33800004 .623 .298 .623 .298 .57800009 C .298 .54700008 .32200004 .53200009 .344 .53200009 C .36 .53200009 .39000003 .54100009 .39000003 .58000007 C .39000003 .64000007 .34600003 .688 .263 .688 C .13499999 .688 0 .559 0 .33800004 C 0 .071 .116000007 0 .20900002 0 C .32000003 0 .41500003 .094000007 .41500003 .22600001 C .41500003 .35300005 .32600004 .44900004 .215 .44900004 C .14700002 .44900004 .11000001 .39800004 .089999999 .35000003 M .20900002 .028 C .146 .028 .116000007 .088 .11000001 .103 C .092 .15 .092 .23 .092 .24800001 C .092 .32600004 .124000009 .42600004 .21400002 .42600004 C .23000002 .42600004 .27600003 .42600004 .307 .36400003 C .32500003 .32700003 .32500003 .27600003 .32500003 .22700002 C .32500003 .179 .32500003 .12900001 .30800004 .093 C .27800004 .033000005 .23200003 .028 .20900002 .028 Z "/>
</symbol>
<use xlink:href="#font_0_6" transform="matrix(9.9626,0,0,-9.9626,206.15444,159.86717)"/>
<use xlink:href="#font_0_1" transform="matrix(9.9626,0,0,-9.9626,4.206671,123.894)"/>
<use xlink:href="#font_0_2" transform="matrix(9.9626,0,0,-9.9626,3.8181298,96.99599)"/>
<use xlink:href="#font_0_3" transform="matrix(9.9626,0,0,-9.9626,3.7384289,70.31716)"/>
<use xlink:href="#font_0_4" transform="matrix(9.9626,0,0,-9.9626,3.5989526,43.199998)"/>
<clipPath id="cp1">
<path transform="matrix(1,0,0,-1,13.947,174.48)" d="M 0 0 L 194.27788 0 L 194.27788 161.39028 L 0 161.39028 Z "/>
</clipPath>
<g clip-path="url(#cp1)">
<path transform="matrix(1,0,0,-1,13.947,174.48)" stroke-width="1.19553" stroke-linecap="butt" stroke-miterlimit="10" stroke-linejoin="miter" fill="none" stroke="#000080" d="M 0 26.89838 C 0 26.89838 .23628 27.48723 .32701 27.71338 C .41776 27.93954 .56334 28.30225 .65407 28.52841 C .74481 28.75456 .89035 29.11726 .9811 29.34343 C 1.07184 29.5696 1.21739 29.9323 1.30814 30.15845 C 1.39888 30.38461 1.54445 30.7473 1.6352 30.97346 C 1.72594 31.19962 1.87148 31.56235 1.96222 31.7885 C 2.05296 32.01466 2.19853 32.37735 2.28928 32.60352 C 2.38002 32.82967 2.52557 33.19237 2.61632 33.41853 C 2.70706 33.6447 2.8526 34.0074 2.94334 34.23355 C 3.03407 34.45972 3.17966 34.82242 3.2704 35.04858 C 3.36113 35.27473 3.5067 35.63744 3.59743 35.8636 C 3.68817 36.08977 3.83372 36.45245 3.92445 36.6786 C 4.0152 36.90477 4.16075 37.26747 4.2515 37.49364 C 4.34224 37.71979 4.4878 38.0825 4.57854 38.30865 C 4.66928 38.53482 4.81483 38.8975 4.90558 39.12367 C 4.99632 39.34982 5.14188 39.71252 5.23262 39.93869 C 5.32336 40.16486 5.46892 40.52756 5.55966 40.75371 C 5.6504 40.97987 5.79596 41.34258 5.8867 41.56874 C 5.97745 41.79489 6.123 42.1576 6.21375 42.38374 C 6.30447 42.60991 6.45004 42.97263 6.54079 43.19879 C 6.63152 43.42494 6.77708 43.78763 6.86781 44.0138 C 6.95856 44.23996 7.10413 44.60266 7.19485 44.82881 C 7.2856 45.05498 7.43117 45.41766 7.5219 45.64383 C 7.61264 45.86998 7.7582 46.23271 7.84894 46.45886 C 7.93968 46.68503 8.08524 47.04771 8.17598 47.27388 C 8.26672 47.50003 8.41228 47.86273 8.50302 48.0889 C 8.59377 48.31506 8.73932 48.67776 8.83006 48.90392 C 8.9208 49.13008 9.06636 49.49278 9.1571 49.71895 C 9.24785 49.9451 9.3934 50.3078 9.48415 50.53395 C 9.57487 50.76012 9.72044 51.12282 9.81119 51.34898 C 9.90192 51.57513 10.04749 51.93784 10.13823 52.164 C 10.22896 52.39017 10.37453 52.75287 10.46526 52.97902 C 10.556 53.20518 10.70157 53.56789 10.7923 53.79405 C 10.88304 54.0202 11.0286 54.38289 11.11934 54.60905 C 11.21008 54.83522 11.35564 55.19792 11.44638 55.42407 C 11.53712 55.65024 11.68268 56.01292 11.77342 56.23909 C 11.86417 56.46524 12.00972 56.82797 12.10046 57.05412 C 12.19121 57.28029 12.33676 57.64297 12.4275 57.86914 C 12.51825 58.09529 12.6638 58.458 12.75455 58.68416 C 12.84529 58.91032 12.99084 59.27303 13.08159 59.49918 C 13.17232 59.72534 13.31789 60.08804 13.40863 60.31421 C 13.49936 60.54036 13.64493 60.90306 13.73566 61.12921 C 13.8264 61.35538 13.97197 61.7181 14.0627 61.94426 C 14.15344 62.17041 14.29901 62.5331 14.38974 62.75926 C 14.48048 62.98543 14.62604 63.34813 14.71678 63.57428 C 14.80753 63.80045 14.95308 64.16313 15.04382 64.3893 C 15.13457 64.61545 15.28012 64.97816 15.37086 65.20432 C 15.46161 65.43048 15.60716 65.79318 15.6979 66.01935 C 15.78865 66.2455 15.9342 66.6082 16.02495 66.83437 C 16.11569 67.06053 16.26125 67.42323 16.35199 67.64938 C 16.44272 67.87555 16.58829 68.23824 16.67903 68.4644 C 16.76976 68.69055 16.91533 69.05327 17.00607 69.27942 C 17.0968 69.50558 17.24236 69.86827 17.33308 70.09444 C 17.42383 70.32059 17.56941 70.6833 17.66014 70.90947 C 17.75089 71.13564 17.89644 71.49832 17.98718 71.72447 C 18.07793 71.95064 18.22346 72.31334 18.31421 72.5395 C 18.40495 72.76566 18.55052 73.12836 18.64127 73.35452 C 18.73201 73.58069 18.87756 73.94339 18.9683 74.16954 C 19.05905 74.3957 19.20459 74.75839 19.29533 74.98456 C 19.38608 75.21072 19.53165 75.57344 19.62239 75.79959 C 19.71313 76.02576 19.85869 76.38844 19.94943 76.61461 C 20.04016 76.84076 20.18571 77.20346 20.27646 77.42963 C 20.36719 77.65579 20.51276 78.01848 20.60349 78.24463 C 20.69423 78.4708 20.83981 78.83351 20.93054 79.05968 C 21.02129 79.28583 21.16682 79.64853 21.25757 79.87468 C 21.34831 80.10085 21.49387 80.46355 21.58461 80.68971 C 21.67535 80.91586 21.8209 81.27856 21.91165 81.50473 C 22.0024 81.7309 22.14795 82.09358 22.2387 82.31973 C 22.32944 82.5459 22.47499 82.9086 22.56573 83.13477 C 22.65648 83.36092 22.80203 83.72363 22.89278 83.94978 C 22.98352 84.17595 23.12907 84.53865 23.21982 84.76482 C 23.31055 84.99097 23.45612 85.35365 23.54686 85.57982 C 23.63759 85.80598 23.78316 86.16869 23.87389 86.39484 C 23.96463 86.621 24.1102 86.9837 24.20093 87.20987 C 24.29167 87.43602 24.43724 87.79874 24.52797 88.02489 C 24.61871 88.25105 24.76427 88.61374 24.85501 88.8399 C 24.94576 89.06606 25.09131 89.42877 25.18205 89.65494 C 25.2728 89.8811 25.41835 90.24379 25.5091 90.46994 C 25.59984 90.6961 25.74539 91.0588 25.83614 91.28497 C 25.92688 91.51112 26.07243 91.87384 26.16318 92.09999 C 26.25392 92.32616 26.39948 92.68886 26.49022 92.91502 C 26.58096 93.14117 26.72652 93.50386 26.81726 93.73003 C 26.90799 93.95619 27.05356 94.3189 27.1443 94.54504 C 27.23503 94.77121 27.3806 95.13391 27.47133 95.36008 C 27.56207 95.58623 27.70764 95.94891 27.79837 96.17508 C 27.88911 96.40125 28.03467 96.76395 28.12541 96.9901 C 28.21616 97.21626 28.36171 97.57896 28.45245 97.80513 C 28.5432 98.03128 28.68875 98.394 28.7795 98.62015 C 28.87024 98.84631 29.0158 99.209 29.10654 99.43517 C 29.19728 99.66132 29.34283 100.02403 29.43358 100.2502 C 29.52432 100.47636 29.66988 100.83905 29.76062 101.0652 C 29.85136 101.29137 29.99692 101.65407 30.08766 101.88023 C 30.17839 102.10638 30.32396 102.46909 30.4147 102.69524 C 30.50543 102.9214 30.651 103.28412 30.74173 103.51028 C 30.83247 103.73643 30.97804 104.09912 31.06877 104.32529 C 31.15952 104.55145 31.30508 104.91415 31.39581 105.1403 C 31.48656 105.36647 31.63211 105.72917 31.72285 105.95534 C 31.8136 106.18149 31.95915 106.5442 32.0499 106.77036 C 32.14064 106.99652 32.37694 107.58537 32.37694 107.58537 "/>
<path transform="matrix(1,0,0,-1,13.947,174.48)" stroke-width="1.19553" stroke-linecap="butt" stroke-miterlimit="10" stroke-linejoin="miter" fill="none" stroke="#000080" d="M 32.3802 107.59352 C 32.3802 107.59352 33.08913 107.00461 33.36139 106.77843 C 33.63365 106.55226 34.0703 106.18953 34.34258 105.96336 C 34.61484 105.73718 35.05148 105.37447 35.32375 105.14828 C 35.59602 104.92212 36.03267 104.55939 36.30493 104.3332 C 36.5772 104.10703 37.01384 103.74431 37.28612 103.51814 C 37.55838 103.29196 37.99504 102.92924 38.2673 102.70306 C 38.53958 102.4769 38.97623 102.11417 39.24849 101.88799 C 39.52075 101.6618 39.9574 101.29909 40.22968 101.07292 C 40.50194 100.84674 40.93858 100.48402 41.21085 100.25784 C 41.48312 100.03168 41.91977 99.66893 42.19203 99.44276 C 42.4643 99.21658 42.90097 98.85387 43.17323 98.62769 C 43.4455 98.40152 43.88214 98.0388 44.15442 97.81262 C 44.42668 97.58644 44.86333 97.22371 45.13559 96.99754 C 45.40787 96.77136 45.84451 96.40865 46.11678 96.18246 C 46.38904 95.9563 46.82568 95.59357 47.09796 95.3674 C 47.37022 95.14122 47.80688 94.7785 48.07915 94.55234 C 48.35143 94.32616 48.78807 93.96342 49.06033 93.73724 C 49.3326 93.51108 49.76924 93.14835 50.04152 92.92218 C 50.31378 92.696 50.75043 92.33328 51.02269 92.1071 C 51.29497 91.88094 51.73161 91.5182 52.00388 91.29202 C 52.27614 91.06584 52.71281 90.70313 52.98508 90.47696 C 53.25734 90.25078 53.69398 89.88806 53.96626 89.66188 C 54.23853 89.43571 54.67517 89.07297 54.94743 88.8468 C 55.21971 88.62062 55.65636 88.2579 55.92862 88.03172 C 56.20088 87.80556 56.63753 87.44284 56.9098 87.21666 C 57.18207 86.99048 57.61873 86.62775 57.89099 86.40158 C 58.16327 86.1754 58.59991 85.81268 58.87218 85.5865 C 59.14444 85.36034 59.58109 84.99762 59.85336 84.77144 C 60.12563 84.54526 60.56227 84.18254 60.83453 83.95638 C 61.10681 83.7302 61.54346 83.36746 61.81572 83.14128 C 62.08798 82.91512 62.52464 82.55238 62.79692 82.32622 C 63.06918 82.10004 63.50583 81.73732 63.77809 81.51114 C 64.05037 81.28497 64.48701 80.92224 64.75928 80.69606 C 65.03156 80.46988 65.4682 80.10716 65.74046 79.881 C 66.01273 79.65482 66.44937 79.2921 66.72165 79.06592 C 66.99391 78.83975 67.43057 78.47702 67.70284 78.25084 C 67.97511 78.02466 68.41176 77.66194 68.68402 77.43578 C 68.95628 77.2096 69.39293 76.84688 69.6652 76.6207 C 69.93747 76.39453 70.37411 76.03178 70.64638 75.80562 C 70.91866 75.57944 71.3553 75.21672 71.62756 74.99054 C 71.89983 74.76437 72.33649 74.40166 72.60876 74.17548 C 72.88103 73.9493 73.31767 73.58658 73.58994 73.36041 C 73.86221 73.13423 74.29886 72.7715 74.57112 72.54532 C 74.84338 72.31915 75.28004 71.95644 75.5523 71.73026 C 75.82457 71.50407 76.26122 71.14136 76.5335 70.91519 C 76.80576 70.68901 77.24242 70.32628 77.51468 70.1001 C 77.78696 69.87393 78.2236 69.5112 78.49586 69.28503 C 78.76813 69.05885 79.20477 68.69614 79.47705 68.46996 C 79.74931 68.24379 80.18596 67.88106 80.45822 67.65488 C 80.7305 67.4287 81.16714 67.06598 81.4394 66.83981 C 81.71167 66.61363 82.14833 66.25092 82.42061 66.02473 C 82.69287 65.79857 83.12952 65.43582 83.40178 65.20966 C 83.67406 64.98347 84.1107 64.62076 84.38297 64.39459 C 84.65523 64.16841 85.09187 63.8057 85.36415 63.57951 C 85.63641 63.35335 86.07306 62.99062 86.34534 62.76445 C 86.6176 62.53827 87.05426 62.17554 87.32652 61.94936 C 87.5988 61.72319 88.03545 61.36047 88.30771 61.1343 C 88.57997 60.90811 89.01662 60.5454 89.2889 60.31923 C 89.56116 60.09305 89.9978 59.73032 90.27007 59.50414 C 90.54234 59.27797 90.97899 58.91524 91.25125 58.68907 C 91.52351 58.46289 91.96017 58.10017 92.23245 57.874 C 92.50471 57.64783 92.94136 57.2851 93.21362 57.05891 C 93.4859 56.83273 93.92255 56.47002 94.19481 56.24385 C 94.46707 56.01767 94.90372 55.65495 95.176 55.42877 C 95.44826 55.2026 95.8849 54.83987 96.15717 54.6137 C 96.42944 54.38751 96.8661 54.0248 97.13837 53.79863 C 97.41063 53.57245 97.84729 53.20973 98.11955 52.98355 C 98.39182 52.75739 98.82846 52.39465 99.10074 52.16849 C 99.373 51.9423 99.80965 51.57957 100.08191 51.3534 C 100.35419 51.12723 100.79083 50.76451 101.0631 50.53833 C 101.33536 50.31215 101.77202 49.94943 102.0443 49.72327 C 102.31656 49.49709 102.7532 49.13435 103.02547 48.90817 C 103.29774 48.682 103.73439 48.31929 104.00665 48.09311 C 104.27892 47.86693 104.71556 47.50421 104.98784 47.27805 C 105.2601 47.05186 105.69675 46.68913 105.96901 46.46295 C 106.24129 46.23679 106.67795 45.87405 106.95021 45.64789 C 107.22247 45.4217 107.65913 45.05899 107.9314 44.83281 C 108.20366 44.60664 108.6403 44.24391 108.91258 44.01773 C 109.18484 43.79155 109.62149 43.42883 109.89375 43.20267 C 110.16603 42.97649 110.60268 42.61377 110.87494 42.38759 C 111.1472 42.16142 111.58386 41.7987 111.85614 41.57253 C 112.1284 41.34634 112.56505 40.98361 112.83731 40.75745 C 113.10959 40.53127 113.54623 40.16855 113.8185 39.94237 C 114.09076 39.7162 114.5274 39.35347 114.79968 39.1273 C 115.07195 38.90112 115.50859 38.53839 115.78085 38.31221 C 116.05313 38.08604 116.48979 37.72333 116.76205 37.49715 C 117.03432 37.27097 117.47096 36.90825 117.74324 36.68208 C 118.0155 36.4559 118.45215 36.09317 118.72441 35.86699 C 118.99669 35.64082 119.43333 35.27809 119.7056 35.05193 C 119.97786 34.82574 120.41452 34.46303 120.68678 34.23685 C 120.95905 34.01068 121.3957 33.64795 121.66798 33.42177 C 121.94025 33.1956 122.37689 32.83287 122.64915 32.6067 C 122.92143 32.38052 123.35808 32.0178 123.63034 31.79163 C 123.9026 31.56546 124.33925 31.20274 124.61153 30.97656 C 124.88379 30.75038 125.32043 30.38765 125.5927 30.16148 C 125.86497 29.9353 126.30164 29.57259 126.5739 29.3464 C 126.84616 29.12024 127.2828 28.7575 127.55508 28.53134 C 127.82735 28.30516 128.26399 27.94243 128.53626 27.71625 C 128.80854 27.49008 129.51744 26.90118 129.51744 26.90118 "/>
<path transform="matrix(1,0,0,-1,13.947,174.48)" stroke-width="1.19553" stroke-linecap="butt" stroke-miterlimit="10" stroke-linejoin="miter" fill="none" stroke="#000080" d="M 129.52085 26.89838 C 129.52085 26.89838 129.99346 26.90326 130.17496 26.90933 C 130.35648 26.91542 130.64756 26.9301 130.82907 26.94228 C 131.01058 26.95445 131.30167 26.97888 131.48319 26.99716 C 131.66469 27.01543 131.95578 27.04964 132.1373 27.07399 C 132.3188 27.09834 132.6099 27.14233 132.7914 27.17279 C 132.97292 27.20323 133.264 27.25699 133.44551 27.29353 C 133.62703 27.33008 133.9181 27.39357 134.09963 27.43622 C 134.28113 27.47887 134.57222 27.55215 134.75374 27.60088 C 134.93524 27.6496 135.22634 27.73265 135.40785 27.78748 C 135.58936 27.8423 135.88045 27.93512 136.06195 27.99603 C 136.24347 28.05695 136.53456 28.15953 136.71607 28.22653 C 136.89759 28.29355 137.18866 28.40591 137.37018 28.479 C 137.55168 28.5521 137.84278 28.67424 138.02429 28.75342 C 138.2058 28.83261 138.49689 28.96451 138.6784 29.04979 C 138.85991 29.13507 139.151 29.27675 139.3325 29.36812 C 139.51403 29.45949 139.80512 29.61092 139.98662 29.70839 C 140.16814 29.80585 140.45922 29.96706 140.64073 30.07062 C 140.82224 30.17416 141.11333 30.34515 141.29485 30.4548 C 141.47635 30.56445 141.76744 30.74521 141.94896 30.86093 C 142.13047 30.97667 142.42156 31.16719 142.60306 31.28902 C 142.78458 31.41086 143.07567 31.61116 143.25717 31.73907 C 143.43869 31.867 143.72977 32.07704 143.91129 32.21107 C 144.09279 32.3451 144.38388 32.56491 144.5654 32.70502 C 144.7469 32.84511 145.038 33.07472 145.21952 33.22092 C 145.40102 33.36711 145.69213 33.60648 145.87363 33.75877 C 146.05515 33.91106 146.34624 34.16019 146.52774 34.31857 C 146.70926 34.47697 147.00034 34.73587 147.18186 34.90034 C 147.36336 35.06482 147.65445 35.3335 147.83597 35.50406 C 148.01747 35.67462 148.30857 35.95306 148.49008 36.12973 C 148.67159 36.3064 148.96268 36.59459 149.14418 36.77734 C 149.3257 36.96011 149.61679 37.2581 149.7983 37.44693 C 149.97982 37.63577 150.27089 37.94353 150.45241 38.13846 C 150.63391 38.33339 150.925 38.65091 151.10652 38.85194 C 151.28803 39.05298 151.57912 39.38028 151.76064 39.58739 C 151.94214 39.7945 152.23323 40.13156 152.41474 40.34477 C 152.59626 40.55797 152.88735 40.9048 153.06885 41.12411 C 153.25037 41.34341 153.54145 41.70001 153.72296 41.9254 C 153.90447 42.1508 154.19556 42.51718 154.37708 42.74866 C 154.55858 42.98013 154.84967 43.35628 155.03119 43.59386 C 155.21269 43.83144 155.50379 44.21735 155.68529 44.46101 C 155.8668 44.7047 156.1579 45.10036 156.3394 45.35013 C 156.52092 45.5999 156.812 46.00534 156.99352 46.2612 C 157.17502 46.51704 157.46611 46.93225 157.64763 47.1942 C 157.82913 47.45615 158.12023 47.88113 158.30175 48.14917 C 158.48325 48.41722 158.77434 48.85196 158.95584 49.1261 C 159.13736 49.40024 159.42845 49.84476 159.60996 50.12497 C 159.79148 50.4052 160.08255 50.85948 160.26407 51.1458 C 160.44557 51.43211 160.73667 51.89618 160.91819 52.18858 C 161.09969 52.48099 161.3908 52.95482 161.57231 53.25331 C 161.75382 53.5518 162.0449 54.0354 162.22641 54.34 C 162.40793 54.64459 162.69902 55.138 162.88053 55.44867 C 163.06204 55.75935 163.35312 56.26248 163.53464 56.57927 C 163.71614 56.89604 164.00724 57.40892 164.18875 57.7318 C 164.37026 58.05467 164.66135 58.57736 164.84287 58.90633 C 165.02437 59.23528 165.31546 59.76767 165.49697 60.1027 C 165.67848 60.43774 165.96958 60.97998 166.15108 61.32112 C 166.3326 61.66228 166.62368 62.21426 166.80519 62.5615 C 166.9867 62.90872 167.27779 63.47047 167.4593 63.82379 C 167.64081 64.17712 167.9319 64.74867 168.11342 65.1081 C 168.29492 65.46751 168.58602 66.04878 168.76752 66.4143 C 168.94904 66.77982 169.24013 67.37091 169.42163 67.74252 C 169.60315 68.11414 169.89423 68.71495 170.07575 69.09265 C 170.25725 69.47034 170.54834 70.08096 170.72986 70.46475 C 170.91136 70.84854 171.20246 71.4689 171.38397 71.85878 C 171.56548 72.24867 171.85657 72.87885 172.03807 73.27481 C 172.21959 73.67078 172.51068 74.3106 172.69219 74.71263 C 172.8737 75.11469 173.16478 75.76437 173.3463 76.17253 C 173.5278 76.58069 173.8189 77.24014 174.00041 77.6544 C 174.18192 78.06866 174.473 78.73787 174.65453 79.1582 C 174.83603 79.57854 175.12712 80.25752 175.30863 80.68396 C 175.49015 81.1104 175.78124 81.7992 175.96274 82.23172 C 176.14426 82.66425 176.43534 83.36275 176.61685 83.80136 C 176.79836 84.23996 177.08945 84.94829 177.27097 85.39299 C 177.45247 85.83769 177.74358 86.55577 177.9251 87.00658 C 178.1066 87.45737 178.39769 88.18524 178.5792 88.64212 C 178.76071 89.099 179.0518 89.83649 179.2333 90.29947 C 179.41483 90.76245 179.7059 91.50987 179.88742 91.97894 C 180.06893 92.44801 180.36002 93.20514 180.54154 93.68031 C 180.72304 94.15549 181.01413 94.9224 181.19565 95.40366 C 181.37715 95.88492 181.66825 96.6616 181.84975 97.14897 C 182.03127 97.63632 182.32236 98.42279 182.50386 98.91623 C 182.68538 99.40967 182.97646 100.2059 183.15798 100.70544 C 183.33948 101.20497 183.63057 102.01094 183.81209 102.51657 C 183.99359 103.0222 184.28469 103.83797 184.4662 104.3497 C 184.6477 104.86143 184.9388 105.687 185.1203 106.2048 C 185.30182 106.7226 185.59291 107.55774 185.77442 108.08163 C 185.95594 108.60553 186.24701 109.45065 186.42853 109.98065 C 186.61003 110.51065 186.90113 111.3655 187.08264 111.90157 C 187.26415 112.43765 187.55524 113.30228 187.73676 113.84447 C 187.91826 114.38664 188.20935 115.26103 188.39086 115.8093 C 188.57238 116.35757 188.86347 117.2417 189.04497 117.79607 C 189.22649 118.35043 189.51757 119.24437 189.69908 119.80482 C 189.88059 120.36528 190.17168 121.26895 190.3532 121.83551 C 190.5347 122.40205 190.82579 123.31555 191.00731 123.88817 C 191.18881 124.46078 191.4799 125.38388 191.6614 125.9626 C 191.84293 126.5413 192.13402 127.47433 192.31552 128.05915 C 192.49704 128.64397 192.78812 129.58675 192.96964 130.17766 C 193.15114 130.76859 193.44225 131.72112 193.62377 132.31813 C 193.80527 132.91515 194.27788 134.48056 194.27788 134.48056 "/>
</g>
<symbol id="font_2_1">
<path d="M .305 .31300003 C .311 .33900003 .334 .43100003 .404 .43100003 C .409 .43100003 .433 .43100003 .454 .418 C .426 .41300003 .40600003 .388 .40600003 .36400003 C .40600003 .34800003 .417 .32900004 .444 .32900004 C .46600003 .32900004 .498 .34700004 .498 .38700003 C .498 .43900005 .439 .45300005 .405 .45300005 C .347 .45300005 .312 .40000005 .3 .37700004 C .275 .44300003 .221 .45300005 .19200002 .45300005 C .08800001 .45300005 .031000002 .32400004 .031000002 .29900003 C .031000002 .28900004 .041 .28900004 .043000007 .28900004 C .051000008 .28900004 .054000006 .291 .056 .3 C .09 .40600003 .156 .43100003 .19000001 .43100003 C .209 .43100003 .244 .42200003 .244 .36400003 C .244 .33300004 .22700002 .26600004 .19000001 .126 C .17400001 .064 .13900002 .022000002 .095000009 .022000002 C .08900001 .022000002 .06600001 .022000002 .045 .035 C .07000001 .040000004 .09200001 .061 .09200001 .089 C .09200001 .116000007 .07000001 .124000009 .055000009 .124000009 C .025 .124000009 0 .098000008 0 .06600001 C 0 .020000002 .050000006 0 .094000007 0 C .16000001 0 .19600001 .07000001 .19900002 .076000008 C .21100001 .039 .24700003 0 .307 0 C .41 0 .467 .12900001 .467 .15400002 C .467 .16400002 .458 .16400002 .455 .16400002 C .446 .16400002 .444 .16000001 .442 .15300001 C .409 .046 .341 .022000002 .30900003 .022000002 C .27 .022000002 .254 .054 .254 .08800001 C .254 .11000001 .26 .13200002 .271 .17600002 L .305 .31300003 Z "/>
</symbol>
<use xlink:href="#font_2_1" transform="matrix(9.9626,0,0,-9.9626,212.06192,149.83159)"/>
<symbol id="font_2_2">
<path d="M .45700003 .586 C .461 .6 .461 .602 .461 .609 C .461 .62700006 .447 .63600006 .432 .63600006 C .42200003 .63600006 .40600003 .63 .397 .615 C .395 .61 .387 .579 .38300003 .561 C .37600003 .535 .36900003 .508 .363 .48100005 L .318 .301 C .314 .286 .271 .21600002 .20500002 .21600002 C .15400002 .21600002 .143 .26000003 .143 .29700003 C .143 .34300003 .16000001 .40500004 .194 .49300004 C .21000001 .53400006 .21400002 .545 .21400002 .56500008 C .21400002 .61 .18200001 .6470001 .13200002 .6470001 C .037 .6470001 0 .50200006 0 .49300004 C 0 .48300005 .01 .48300005 .012 .48300005 C .022000002 .48300005 .023 .485 .028000003 .50100007 C .055000009 .595 .095000009 .625 .12900001 .625 C .13700001 .625 .15400002 .625 .15400002 .59300008 C .15400002 .568 .14400001 .54200008 .13700001 .523 C .097 .41700004 .079 .36 .079 .31300003 C .079 .224 .142 .194 .201 .194 C .24000003 .194 .274 .21100001 .30200003 .23900002 C .289 .187 .277 .13800001 .237 .08500001 C .21100001 .051 .17300001 .022 .127 .022 C .113000009 .022 .068 .025000006 .051000008 .06400001 C .067 .06400001 .080000009 .06400001 .094000007 .076000008 C .104 .08500001 .11400001 .098000008 .11400001 .117000009 C .11400001 .148 .087000008 .15200001 .07700001 .15200001 C .054000006 .15200001 .021 .136 .021 .087000008 C .021 .037 .065000008 0 .127 0 C .23 0 .333 .091000009 .361 .20400001 L .45700003 .586 Z "/>
</symbol>
<use xlink:href="#font_2_2" transform="matrix(9.9626,0,0,-9.9626,11.614915,9.652334)"/>
</svg>
