<?xml version="1.0" encoding="UTF-8" standalone="no"?>
<!DOCTYPE svg PUBLIC "-//W3C//DTD SVG 1.1//EN" "http://www.w3.org/Graphics/SVG/1.1/DTD/svg11.dtd">
<svg xmlns="http://www.w3.org/2000/svg" xmlns:xlink="http://www.w3.org/1999/xlink" version="1.1" width="152.821pt" height="42.228pt" viewBox="0 0 152.821 42.228">
<symbol id="font_0_1">
<path d="M .057000005 .05099988 C .065000008 .05099988 .073 .052999975 .08 .055999996 C .132 .08099985 .09900001 .16699982 .04 .14499998 C 0 .1309998 .003999997 .08099985 .023000002 .051999809 C .047 .015999794 .096 0 .13700001 .0059998037 C .18800001 .0149998669 .222 .058999778 .24600002 .10099983 C .29900003 .194 .324 .30299986 .35000003 .4059999 C .41500003 .6639999 .47300006 .9239999 .523 1.185 C .57100006 1.433 .605 1.686 .66 1.927 C .675 1.99 .69000008 2.053 .71400007 2.113 C .72300007 2.137 .734 2.161 .75000008 2.181 C .758 2.191 .768 2.201 .78000006 2.204 C .794 2.208 .81200006 2.203 .82500007 2.197 C .83400008 2.193 .84300008 2.188 .85 2.181 C .84200009 2.181 .83400008 2.179 .827 2.1759999 C .77500006 2.151 .808 2.065 .86700007 2.087 C .90700009 2.101 .90300008 2.151 .88400009 2.18 C .86 2.216 .81100007 2.232 .77000007 2.226 C .71900007 2.217 .685 2.173 .661 2.131 C .60800006 2.038 .583 1.929 .55700007 1.826 C .49200005 1.568 .43400003 1.308 .384 1.0469999 C .33600004 .7989999 .30200003 .5459999 .24700001 .30499996 C .23200003 .24199987 .21700001 .1789999 .193 .11899996 C .184 .09499979 .17300001 .07099986 .157 .05099988 C .149 .04099989 .139 .030999899 .127 .027999878 C .113000009 .02399993 .095 .028999806 .082 .034999849 C .073 .038999797 .064 .04399991 .057000005 .05099988 Z "/>
</symbol>
<use xlink:href="#font_0_1" transform="matrix(9.9626,0,0,-9.9626,3.8522845,25.580712)"/>
<symbol id="font_1_a">
<path d="M .15400002 .411 L .29700003 .411 L .29700003 .44200004 L .15400002 .44200004 L .15400002 .626 L .12900001 .626 C .12799999 .544 .098000008 .43700005 0 .43300004 L 0 .411 L .085 .411 L .085 .135 C .085 .012000001 .178 0 .21400002 0 C .28500004 0 .31300003 .071 .31300003 .135 L .31300003 .19200002 L .28800003 .19200002 L .28800003 .13700001 C .28800003 .063 .25800003 .025000003 .22100002 .025000003 C .15400002 .025000003 .15400002 .116000007 .15400002 .13300002 L .15400002 .411 Z "/>
</symbol>
<symbol id="font_1_5">
<path d="M .291 .087000008 C .29500003 .047000003 .32200004 .005000001 .36900003 .005000001 C .39000003 .005000001 .45100004 .019000002 .45100004 .1 L .45100004 .15600002 L .42600004 .15600002 L .42600004 .1 C .42600004 .042000005 .40100003 .036000004 .39000003 .036000004 C .35700003 .036000004 .35300002 .081 .35300002 .086 L .35300002 .286 C .35300002 .328 .35300002 .367 .31700004 .404 C .27800004 .44300003 .22800002 .45900003 .18 .45900003 C .098 .45900003 .029 .41200004 .029 .34600003 C .029 .316 .049000004 .29900003 .075 .29900003 C .10300001 .29900003 .121 .31900005 .121 .34500004 C .121 .35700003 .116000007 .39000003 .07 .39100004 C .09700001 .42600004 .146 .43700005 .178 .43700005 C .22700003 .43700005 .284 .39800004 .284 .30900003 L .284 .272 C .23300001 .26900003 .16300002 .26600004 .1 .23600002 C .024999999 .20200002 0 .15000002 0 .106000009 C 0 .025000003 .09700001 0 .16 0 C .22600001 0 .272 .040000004 .291 .087000008 M .284 .25100003 L .284 .15100001 C .284 .056 .21200001 .022000002 .167 .022000002 C .11800001 .022000002 .077 .057000005 .077 .107 C .077 .16200002 .11900001 .24500002 .284 .25100003 Z "/>
</symbol>
<symbol id="font_1_8">
<path d="M .07800001 .344 L .07800001 .076000008 C .07800001 .031000002 .067 .031000002 0 .031000002 L 0 0 C .035 .001 .08600001 .003 .113000009 .003 C .139 .003 .191 .001 .225 0 L .225 .031000002 C .158 .031000002 .147 .031000002 .147 .076000008 L .147 .26000003 C .147 .36400003 .218 .42000003 .282 .42000003 C .345 .42000003 .356 .36600004 .356 .30900003 L .356 .076000008 C .356 .031000002 .345 .031000002 .278 .031000002 L .278 0 C .31300003 .001 .36400003 .003 .391 .003 C .41700004 .003 .46900005 .001 .503 0 L .503 .031000002 C .451 .031000002 .42600004 .031000002 .425 .061000006 L .425 .252 C .425 .33800004 .425 .36900003 .39400003 .40500004 C .38000003 .42200003 .347 .44200004 .289 .44200004 C .216 .44200004 .169 .39900003 .141 .337 L .141 .44200004 L 0 .43100003 L 0 .4 C .07000001 .4 .07800001 .393 .07800001 .344 Z "/>
</symbol>
<use xlink:href="#font_1_a" transform="matrix(9.9626,0,0,-9.9626,15.206294,17.06459)"/>
<use xlink:href="#font_1_5" transform="matrix(9.9626,0,0,-9.9626,19.310885,17.06459)"/>
<use xlink:href="#font_1_8" transform="matrix(9.9626,0,0,-9.9626,24.19256,16.955002)"/>
<symbol id="font_2_2">
<path d="M .219 .35400004 C .29700003 .35400004 .35300002 .3 .35300002 .193 C .35300002 .069000009 .28100003 .032 .223 .032 C .18300002 .032 .095 .043000007 .053000008 .102000009 C .10000001 .10400001 .111 .13700001 .111 .158 C .111 .19 .087 .213 .056000007 .213 C .028 .213 0 .19600001 0 .155 C 0 .061000006 .104 0 .22500001 0 C .36400003 0 .46 .09300001 .46 .193 C .46 .27100004 .39600004 .34900005 .286 .37200005 C .39100004 .41000004 .42900003 .48500005 .42900003 .546 C .42900003 .625 .33800004 .684 .22700002 .684 C .116 .684 .031 .63 .031 .55 C .031 .51600006 .053000008 .49700005 .083000008 .49700005 C .11400001 .49700005 .134 .52 .134 .548 C .134 .577 .11400001 .598 .083000008 .6 C .118 .644 .187 .65500006 .22400002 .65500006 C .26900003 .65500006 .33200003 .633 .33200003 .546 C .33200003 .504 .31800003 .45800004 .29200004 .42700003 C .25900004 .38900004 .23100002 .38700003 .18100001 .38400004 C .156 .38200004 .154 .38200004 .149 .38100005 C .147 .38100005 .139 .37900005 .139 .36800004 C .139 .35400004 .148 .35400004 .165 .35400004 L .219 .35400004 Z "/>
</symbol>
<use xlink:href="#font_2_2" transform="matrix(6.9738,0,0,-6.9738,29.78459,12.980477)"/>
<symbol id="font_1_1">
<path d="M .23200003 .00999999 C .23200003 .012999982 .23200003 .014999986 .215 .03199999 C .09 .15799999 .058 .347 .058 .5 C .058 .674 .096 .84800007 .21900001 .97300007 C .23200003 .985 .23200003 .98700007 .23200003 .99 C .23200003 .99700006 .22800002 1 .222 1 C .21200001 1 .12200001 .93200007 .06299999 .805 C .012000002 .69500008 0 .584 0 .5 C 0 .422 .011 .301 .066 .188 C .126 .065 .21200001 0 .222 0 C .22800002 0 .23200003 .0029999912 .23200003 .00999999 Z "/>
</symbol>
<use xlink:href="#font_1_1" transform="matrix(9.9626,0,0,-9.9626,34.8633,19.445652)"/>
<symbol id="font_3_2">
<path d="M .305 .31300003 C .311 .33900003 .334 .43100003 .404 .43100003 C .409 .43100003 .433 .43100003 .454 .418 C .426 .41300003 .40600003 .388 .40600003 .36400003 C .40600003 .34800003 .417 .32900004 .444 .32900004 C .46600003 .32900004 .498 .34700004 .498 .38700003 C .498 .43900005 .439 .45300005 .405 .45300005 C .347 .45300005 .312 .40000005 .3 .37700004 C .275 .44300003 .221 .45300005 .19200002 .45300005 C .08800001 .45300005 .031000002 .32400004 .031000002 .29900003 C .031000002 .28900004 .041 .28900004 .043000007 .28900004 C .051000008 .28900004 .054000006 .291 .056 .3 C .09 .40600003 .156 .43100003 .19000001 .43100003 C .209 .43100003 .244 .42200003 .244 .36400003 C .244 .33300004 .22700002 .26600004 .19000001 .126 C .17400001 .064 .13900002 .022000002 .095000009 .022000002 C .08900001 .022000002 .06600001 .022000002 .045 .035 C .07000001 .040000004 .09200001 .061 .09200001 .089 C .09200001 .116000007 .07000001 .124000009 .055000009 .124000009 C .025 .124000009 0 .098000008 0 .06600001 C 0 .020000002 .050000006 0 .094000007 0 C .16000001 0 .19600001 .07000001 .19900002 .076000008 C .21100001 .039 .24700003 0 .307 0 C .41 0 .467 .12900001 .467 .15400002 C .467 .16400002 .458 .16400002 .455 .16400002 C .446 .16400002 .444 .16000001 .442 .15300001 C .409 .046 .341 .022000002 .30900003 .022000002 C .27 .022000002 .254 .054 .254 .08800001 C .254 .11000001 .26 .13200002 .271 .17600002 L .305 .31300003 Z "/>
</symbol>
<use xlink:href="#font_3_2" transform="matrix(9.9626,0,0,-9.9626,38.040918,17.06459)"/>
<symbol id="font_1_2">
<path d="M .232 .5 C .232 .578 .22100002 .699 .16600001 .81200006 C .106 .93500009 .020000004 1 .009999998 1 C .0040000008 1 0 .99600008 0 .99 C 0 .98700007 0 .985 .019000002 .967 C .117000009 .86800006 .174 .709 .174 .5 C .174 .329 .137 .153 .012999997 .026999996 C 0 .014999986 0 .012999982 0 .00999999 C 0 .003999993 .0040000008 0 .009999998 0 C .020000004 0 .11000001 .06799999 .169 .195 C .22 .305 .232 .416 .232 .5 Z "/>
</symbol>
<symbol id="font_1_4">
<path d="M .205 .64000007 C .205 .66400006 .205 .666 .18200003 .666 C .120000008 .60200008 .032000007 .60200008 0 .60200008 L 0 .57100006 C .020000004 .57100006 .07900001 .57100006 .13100001 .597 L .13100001 .079 C .13100001 .043 .128 .031000002 .038000004 .031000002 L .0060000049 .031000002 L .0060000049 0 C .04100001 .003 .128 .003 .168 .003 C .20800002 .003 .29500003 .003 .33000005 0 L .33000005 .031000002 L .29800005 .031000002 C .20800002 .031000002 .205 .042000005 .205 .079 L .205 .64000007 Z "/>
</symbol>
<symbol id="font_1_3">
<path d="M .35300002 .31300003 L .632 .31300003 C .646 .31300003 .665 .31300003 .665 .333 C .665 .35300002 .646 .35300002 .632 .35300002 L .35300002 .35300002 L .35300002 .633 C .35300002 .647 .35300002 .666 .33300004 .666 C .31300003 .666 .31300003 .647 .31300003 .633 L .31300003 .35300002 L .033 .35300002 C .019000002 .35300002 0 .35300002 0 .333 C 0 .31300003 .019000002 .31300003 .033 .31300003 L .31300003 .31300003 L .31300003 .033000005 C .31300003 .019000002 .31300003 0 .33300004 0 C .35300002 0 .35300002 .019000002 .35300002 .033000005 L .35300002 .31300003 Z "/>
</symbol>
<use xlink:href="#font_1_2" transform="matrix(9.9626,0,0,-9.9626,44.01287,19.445652)"/>
<use xlink:href="#font_1_1" transform="matrix(9.9626,0,0,-9.9626,48.30675,19.445652)"/>
<use xlink:href="#font_1_4" transform="matrix(9.9626,0,0,-9.9626,52.082578,16.955002)"/>
<use xlink:href="#font_1_3" transform="matrix(9.9626,0,0,-9.9626,58.946809,17.781899)"/>
<use xlink:href="#font_1_a" transform="matrix(9.9626,0,0,-9.9626,68.5408,17.06459)"/>
<use xlink:href="#font_1_5" transform="matrix(9.9626,0,0,-9.9626,72.645389,17.06459)"/>
<use xlink:href="#font_1_8" transform="matrix(9.9626,0,0,-9.9626,77.52706,16.955002)"/>
<symbol id="font_2_1">
<path d="M .442 .18200001 L .40800003 .18200001 C .40500004 .16000001 .39500005 .101 .38200004 .091000009 C .374 .085 .29700003 .085 .28300003 .085 L .099 .085 C .20400003 .178 .23900002 .20600002 .29900003 .25300003 C .37300004 .312 .442 .374 .442 .469 C .442 .59000006 .33600004 .66400006 .20800004 .66400006 C .084 .66400006 0 .577 0 .485 C 0 .43400003 .043000007 .42900003 .053000004 .42900003 C .077 .42900003 .10600001 .446 .10600001 .48200003 C .10600001 .5 .099 .535 .047000007 .535 C .078 .606 .146 .628 .19300002 .628 C .293 .628 .34500004 .55 .34500004 .469 C .34500004 .38200004 .28300003 .31300003 .25100003 .277 L .010000005 .039 C 0 .030000002 0 .028 0 0 L .41200004 0 L .442 .18200001 Z "/>
</symbol>
<use xlink:href="#font_2_1" transform="matrix(6.9738,0,0,-6.9738,83.18235,12.8410019)"/>
<use xlink:href="#font_1_1" transform="matrix(9.9626,0,0,-9.9626,88.1983,19.445652)"/>
<use xlink:href="#font_3_2" transform="matrix(9.9626,0,0,-9.9626,91.37492,17.06459)"/>
<use xlink:href="#font_1_2" transform="matrix(9.9626,0,0,-9.9626,97.34788,19.445652)"/>
<use xlink:href="#font_1_2" transform="matrix(9.9626,0,0,-9.9626,101.22333,19.445652)"/>
<symbol id="font_4_3">
<path d="M .484 .09200001 C .484 .115 .484 .120000008 .47 .120000008 C .409 .12100001 .31 .12900001 .22000002 .17300001 C .112 .22700002 .071 .29000003 .046000005 .32900004 C .043 .33400003 .037 .33400003 .024 .33400003 C .0009999983 .33400003 0 .333 0 .30800004 L 0 .29200004 C .136 .047000003 .361 0 .463 0 C .484 0 .484 .001 .484 .028 L .484 .09200001 Z "/>
</symbol>
<use xlink:href="#font_4_3" transform="matrix(9.9626,0,0,-9.9626,14.777901,23.629002)"/>
<path transform="matrix(1,0,0,-1,19.501004,23.630002)" d="M 0 0 L 35.789 0 L 35.789 1.195 L 0 1.195 Z "/>
<symbol id="font_4_2">
<path d="M .48400004 .04200001 C .34800003 .28700004 .123 .33400003 .021000002 .33400003 C 0 .33400003 0 .333 0 .30600003 L 0 .24200002 C 0 .21900001 0 .21400002 .014 .21400002 C .075 .21300002 .17400001 .20500002 .264 .16100002 C .372 .10700001 .41300003 .044000016 .43800003 .00500001 C .441 0 .447 0 .46 0 C .483 0 .48400004 .001000002 .48400004 .026000008 L .48400004 .04200001 Z "/>
</symbol>
<symbol id="font_4_1">
<path d="M .484 .30600003 C .484 .333 .484 .33400003 .463 .33400003 C .361 .33400003 .136 .286 0 .04200001 L 0 .026000008 C 0 .001000002 .0009999983 0 .024 0 C .043 0 .044 .001000002 .049000004 .008000001 C .13100001 .13900002 .269 .21000003 .472 .21400002 C .484 .21400002 .484 .22100002 .484 .24200002 L .484 .30600003 Z "/>
</symbol>
<use xlink:href="#font_4_2" transform="matrix(9.9626,0,0,-9.9626,55.19038,25.761998)"/>
<use xlink:href="#font_4_1" transform="matrix(9.9626,0,0,-9.9626,59.534074,25.761998)"/>
<path transform="matrix(1,0,0,-1,64.256008,23.630002)" d="M 0 0 L 35.789 0 L 35.789 1.195 L 0 1.195 Z "/>
<symbol id="font_4_4">
<path d="M .48400004 .30800004 C .48400004 .333 .483 .33400003 .46 .33400003 C .441 .33400003 .44 .333 .435 .326 C .35300002 .19500001 .21500002 .124000009 .012000001 .120000008 C 0 .120000008 0 .113000009 0 .09200001 L 0 .028 C 0 .001 0 0 .021000002 0 C .123 0 .34800003 .048 .48400004 .29200004 L .48400004 .30800004 Z "/>
</symbol>
<use xlink:href="#font_4_4" transform="matrix(9.9626,0,0,-9.9626,99.94638,23.630002)"/>
<symbol id="font_1_9">
<path d="M .17500001 .20500002 C .197 .20100002 .279 .18500002 .279 .113000009 C .279 .062000004 .24400002 .022000002 .16600001 .022000002 C .082 .022000002 .046000005 .079 .027000003 .16400002 C .024000004 .17700002 .023000002 .18100001 .013000004 .18100001 C 0 .18100001 0 .17400001 0 .15600002 L 0 .024 C 0 .0070000009 0 0 .011000004 0 C .016000003 0 .017 .0010000002 .036000007 .020000002 C .038000004 .022000002 .038000004 .024 .056 .043 C .1 .0010000002 .14500001 0 .16600001 0 C .28100003 0 .32700003 .067 .32700003 .13900002 C .32700003 .19200002 .29700003 .22200002 .28500004 .23400001 C .25200004 .26600004 .213 .27400003 .171 .28200004 C .115 .293 .048 .30600003 .048 .36400003 C .048 .39900003 .07400001 .44000004 .16 .44000004 C .27 .44000004 .27500005 .35000003 .277 .31900005 C .27800004 .31000004 .28700004 .31000004 .28900004 .31000004 C .30200003 .31000004 .30200003 .31500004 .30200003 .33400003 L .30200003 .43500004 C .30200003 .45200003 .30200003 .45900003 .291 .45900003 C .286 .45900003 .284 .45900003 .27100004 .44700004 C .26800005 .44300003 .25800003 .43400003 .254 .43100003 C .21600002 .45900003 .17500001 .45900003 .16 .45900003 C .038000004 .45900003 0 .39200003 0 .33600004 C 0 .30100004 .016000003 .27300004 .043000007 .25100003 C .075 .22500003 .10300001 .21900001 .17500001 .20500002 Z "/>
</symbol>
<symbol id="font_1_7">
<path d="M .08400001 .263 C .09 .41200004 .17400001 .43700005 .20800002 .43700005 C .31100003 .43700005 .321 .30200003 .321 .263 L .08400001 .263 M .083000008 .24200002 L .36200003 .24200002 C .38400004 .24200002 .38700003 .24200002 .38700003 .263 C .38700003 .36200003 .33300004 .45900003 .20800002 .45900003 C .09200001 .45900003 0 .35600005 0 .23100002 C 0 .097 .105000007 0 .22000002 0 C .342 0 .38700003 .111 .38700003 .13000001 C .38700003 .14000002 .379 .14200002 .374 .14200002 C .365 .14200002 .36300005 .136 .36100004 .128 C .326 .025000003 .236 .025000003 .22600001 .025000003 C .17600002 .025000003 .136 .055000005 .113000009 .092 C .083000008 .14000002 .083000008 .20600002 .083000008 .24200002 Z "/>
</symbol>
<symbol id="font_1_6">
<path d="M .083000008 .22900002 C .083000008 .39200003 .16500002 .43400003 .218 .43400003 C .227 .43400003 .29 .43300004 .32500003 .397 C .284 .39400003 .278 .36400003 .278 .351 C .278 .32500003 .296 .305 .324 .305 C .35 .305 .37 .32200004 .37 .35200004 C .37 .42000003 .294 .45900003 .21700001 .45900003 C .092 .45900003 0 .351 0 .22700002 C 0 .09900001 .099 0 .215 0 C .349 0 .381 .120000008 .381 .13000001 C .381 .14000002 .37100003 .14000002 .368 .14000002 C .359 .14000002 .35700003 .136 .35500003 .13000001 C .326 .037 .261 .025000003 .224 .025000003 C .171 .025000003 .083000008 .068 .083000008 .22900002 Z "/>
</symbol>
<use xlink:href="#font_1_9" transform="matrix(9.9626,0,0,-9.9626,106.51777,17.06459)"/>
<use xlink:href="#font_1_7" transform="matrix(9.9626,0,0,-9.9626,110.39322,17.06459)"/>
<use xlink:href="#font_1_6" transform="matrix(9.9626,0,0,-9.9626,114.87639,17.06459)"/>
<use xlink:href="#font_2_1" transform="matrix(6.9738,0,0,-6.9738,119.41435,12.8410019)"/>
<use xlink:href="#font_1_1" transform="matrix(9.9626,0,0,-9.9626,124.430309,19.445652)"/>
<use xlink:href="#font_3_2" transform="matrix(9.9626,0,0,-9.9626,127.607929,17.06459)"/>
<use xlink:href="#font_1_2" transform="matrix(9.9626,0,0,-9.9626,133.57987,19.445652)"/>
<symbol id="font_3_1">
<path d="M .47600005 .694 C .47600005 .695 .47600005 .705 .46300004 .705 C .44800005 .705 .35300002 .69600006 .33600004 .694 C .32800005 .693 .32200004 .688 .32200004 .675 C .32200004 .663 .33100004 .663 .34600003 .663 C .39400003 .663 .39600004 .656 .39600004 .646 L .39300005 .626 L .33300004 .38900004 C .31500004 .42600004 .286 .45300005 .24100001 .45300005 C .124 .45300005 0 .30600003 0 .16000001 C 0 .06600001 .055000005 0 .133 0 C .153 0 .20300001 .0040000008 .263 .075 C .27100004 .033000005 .30600003 0 .35400004 0 C .38900004 0 .41200004 .023000002 .42800004 .055000005 C .44500003 .091000009 .45800004 .15200001 .45800004 .15400002 C .45800004 .16400002 .44900004 .16400002 .44600005 .16400002 C .43600003 .16400002 .43500004 .16000001 .43200005 .14600002 C .41500003 .081 .397 .022000002 .35600005 .022000002 C .32900004 .022000002 .32600004 .048 .32600004 .068 C .32600004 .092 .32800005 .09900001 .33200003 .116000007 L .47600005 .694 M .26800005 .13000001 C .263 .112 .263 .11000001 .24800001 .093 C .20400001 .038000004 .163 .022000002 .135 .022000002 C .08499999 .022000002 .07100001 .077 .07100001 .116000007 C .07100001 .16600001 .103 .28900004 .126 .335 C .157 .39400003 .202 .43100003 .242 .43100003 C .307 .43100003 .32100005 .34900005 .32100005 .34300003 C .32100005 .337 .31900005 .33100004 .31800003 .32600004 L .26800005 .13000001 Z "/>
</symbol>
<use xlink:href="#font_3_1" transform="matrix(9.9626,0,0,-9.9626,138.9455,17.06459)"/>
<use xlink:href="#font_3_2" transform="matrix(9.9626,0,0,-9.9626,144.02643,17.06459)"/>
<use xlink:href="#font_4_3" transform="matrix(9.9626,0,0,-9.9626,105.9499,23.630002)"/>
<path transform="matrix(1,0,0,-1,110.673007,23.630002)" d="M 0 0 L 12.652 0 L 12.652 1.195 L 0 1.195 Z "/>
<use xlink:href="#font_4_2" transform="matrix(9.9626,0,0,-9.9626,123.22538,25.761998)"/>
<use xlink:href="#font_4_1" transform="matrix(9.9626,0,0,-9.9626,127.56907,25.761998)"/>
<path transform="matrix(1,0,0,-1,132.291,23.630002)" d="M 0 0 L 12.652 0 L 12.652 1.195 L 0 1.195 Z "/>
<use xlink:href="#font_4_4" transform="matrix(9.9626,0,0,-9.9626,144.84337,23.630002)"/>
<symbol id="font_5_9">
<path d="M .075 .067 C .067 .034999998 .060000004 .031000004 .021 .031000004 C .012 .031000004 0 .031000004 0 .012999997 C 0 .008000001 .0020000004 0 .013 0 C .039000006 0 .07 .0029999912 .098000008 .0029999912 C .131 .0029999912 .165 0 .19600001 0 C .201 0 .214 0 .214 .017999992 C .214 .031000004 .20300001 .031000004 .187 .031000004 C .14 .031000004 .14 .038000004 .14 .047000007 C .14 .058 .18200001 .21800001 .187 .238 C .208 .2 .238 .183 .273 .183 C .38700003 .183 .50600007 .33200003 .50600007 .47800002 C .50600007 .57500007 .45200003 .63600006 .38000003 .63600006 C .32700003 .63600006 .289 .59900006 .257 .568 C .243 .623 .199 .63600006 .171 .63600006 C .13800001 .63600006 .113000009 .61600008 .095000009 .578 C .079 .543 .065 .48700003 .065 .483 C .065 .47000004 .076000008 .47000004 .082 .47000004 C .097 .47000004 .097 .474 .102000009 .49400003 C .12200001 .574 .141 .61100009 .169 .61100009 C .185 .61100009 .19500001 .602 .19500001 .571 C .19500001 .55 .18900001 .52400007 .18800001 .52 L .075 .067 M .252 .499 C .26000003 .52900007 .28100003 .55200007 .303 .573 C .335 .60400006 .363 .61100009 .37800003 .61100009 C .43300004 .61100009 .43600003 .535 .43600003 .522 C .43600003 .47000004 .40500004 .35400004 .38500003 .31 C .36 .256 .31500004 .208 .273 .208 C .25100003 .208 .234 .21900001 .22100002 .24000001 C .20600002 .264 .20300001 .298 .20300001 .3 C .20300001 .30200003 .20400001 .31 .20500002 .31300003 L .252 .499 Z "/>
</symbol>
<symbol id="font_5_8">
<path d="M .41000004 .286 C .41000004 .381 .35000003 .45300005 .25800003 .45300005 C .13100001 .45300005 0 .31200005 0 .16600001 C 0 .07300001 .058000007 0 .15200001 0 C .282 0 .41000004 .14500001 .41000004 .286 M .15200001 .025000003 C .117000009 .025000003 .07300001 .049000004 .07300001 .13000001 C .07300001 .16900002 .093 .27400003 .132 .33900003 C .16500002 .39600004 .21600002 .42800004 .25800003 .42800004 C .30200003 .42800004 .337 .39200003 .337 .32400004 C .337 .28900004 .31800003 .17500001 .273 .106000009 C .24100003 .057000005 .194 .025000003 .15200001 .025000003 Z "/>
</symbol>
<symbol id="font_5_5">
<path d="M .211 .67300006 C .21400002 .686 .215 .688 .215 .691 C .215 .704 .206 .70600005 .18900001 .704 L .085 .695 C .07 .694 .06000001 .693 .06000001 .676 C .06000001 .663 .07 .663 .087000008 .663 C .134 .663 .134 .65500006 .134 .646 C .134 .645 .134 .639 .13 .624 L .0050000029 .12500002 C .0050000029 .124000009 0 .106000009 0 .091000009 C 0 .043 .034 0 .08900001 0 C .134 0 .15400002 .037 .16299999 .056 C .181 .092 .194 .15100001 .194 .15400002 C .194 .16600001 .181 .16600001 .17700002 .16600001 C .162 .16600001 .16100002 .16200002 .157 .143 C .134 .051000004 .115 .025000003 .09000001 .025000003 C .071 .025000003 .064 .041 .064 .06600001 C .064 .075 .06700001 .097 .072000008 .117000009 L .211 .67300006 Z "/>
</symbol>
<symbol id="font_5_a">
<path d="M .441 .587 C .44500003 .602 .44500003 .60400006 .44500003 .60800006 C .44500003 .62600007 .43100003 .63600006 .416 .63600006 C .39900003 .63600006 .38200004 .62700006 .37500004 .59900006 L .30200003 .30900003 C .29200004 .268 .24700001 .21900001 .19600001 .21900001 C .14600002 .21900001 .14100002 .26900003 .14100002 .296 C .14100002 .34900005 .164 .41800005 .19800002 .51100006 C .20700002 .53400006 .21100003 .545 .21100003 .56500008 C .21100003 .614 .17700002 .6470001 .13200002 .6470001 C .037000009 .6470001 0 .50200006 0 .49300004 C 0 .48100005 .012000002 .48100005 .017000005 .48100005 C .031000004 .48100005 .032000007 .48600004 .036000007 .49800004 C .043000007 .52400007 .07000001 .62200006 .12900001 .62200006 C .13900002 .62200006 .15 .62 .15 .59400007 C .15 .569 .13900002 .53900006 .13200002 .52000007 C .08600001 .397 .076000008 .356 .076000008 .31200005 C .076000008 .20600002 .15900001 .194 .192 .194 C .21100003 .194 .24600002 .19700001 .282 .22900002 C .24900002 .08000001 .176 .025000006 .120000008 .025000006 C .09300001 .025000006 .066 .039000006 .058000015 .068 C .105000007 .073000017 .106000009 .113000009 .106000009 .11600001 C .106000009 .136 .09 .148 .07200001 .148 C .055000009 .148 .022000008 .13700001 .022000008 .087000008 C .022000008 .03400001 .06400001 0 .120000008 0 C .23000002 0 .32200004 .10800001 .34500004 .20100002 L .441 .587 Z "/>
</symbol>
<symbol id="font_5_7">
<path d="M .051 .049000004 C .047000007 .035 .047000007 .033000005 .047000007 .028 C .047000007 .010000001 .061000006 0 .076000008 0 C .10800001 0 .113000009 .020000002 .12600002 .075 C .13100001 .094000007 .14500001 .14700002 .14800002 .16100002 C .15600002 .19400002 .17400003 .26400004 .18 .291 C .18400002 .30400003 .21200001 .35600005 .236 .38000003 C .25100003 .395 .284 .42800004 .33800004 .42800004 C .37600003 .42800004 .38500003 .395 .38500003 .36300005 C .38500003 .305 .342 .18700002 .32500003 .14200002 C .31300003 .109000008 .31100003 .10300001 .31100003 .082 C .31100003 .028 .349 0 .39000003 0 C .48500005 0 .5220001 .14700002 .5220001 .15400002 C .5220001 .16600001 .50900009 .16600001 .505 .16600001 C .49100004 .16600001 .49000005 .16300002 .484 .14200002 C .474 .106000009 .446 .025000003 .39200003 .025000003 C .38400004 .025000003 .37100003 .026 .37100003 .053000004 C .37100003 .077 .38300003 .109000008 .39100004 .13100001 C .409 .17900002 .45000003 .29000003 .45000003 .34700004 C .45000003 .41400004 .41000004 .45300005 .34000004 .45300005 C .268 .45300005 .22000003 .40900005 .194 .37700004 C .185 .42700003 .14800002 .45300005 .106000009 .45300005 C .073000017 .45300005 .048000009 .43300004 .030000009 .395 C .014000006 .36 0 .30400003 0 .3 C 0 .28700004 .011000007 .28700004 .017000005 .28700004 C .032000007 .28700004 .032000007 .291 .037000009 .31100003 C .05700001 .39100004 .076000008 .42800004 .104 .42800004 C .120000008 .42800004 .13000001 .41900004 .13000001 .388 C .13000001 .367 .12400001 .34100003 .12300001 .337 L .051 .049000004 Z "/>
</symbol>
<symbol id="font_5_6">
<path d="M .314 .049000004 C .31000004 .035 .31000004 .033000005 .31000004 .028 C .31000004 .010000001 .32400004 0 .33900003 0 C .37100003 0 .37600003 .020000002 .38900004 .075 C .39400003 .094000007 .40800003 .14700002 .411 .16100002 C .419 .19400002 .437 .26400004 .44300006 .291 C .447 .30400003 .47500006 .35600005 .49900005 .38000003 C .51400008 .395 .54700008 .42800004 .6010001 .42800004 C .63900008 .42800004 .648 .395 .648 .36300005 C .648 .305 .605 .18700002 .58800008 .14200002 C .576 .109000008 .574 .10300001 .574 .082 C .574 .028 .612 0 .653 0 C .748 0 .7850001 .14700002 .7850001 .15400002 C .7850001 .16600001 .7720001 .16600001 .768 .16600001 C .75400009 .16600001 .753 .16300002 .7470001 .14200002 C .737 .106000009 .709 .025000003 .6550001 .025000003 C .6470001 .025000003 .63400009 .026 .63400009 .053000004 C .63400009 .077 .646 .109000008 .65400007 .13100001 C .67200008 .17900002 .71300008 .29000003 .71300008 .34700004 C .71300008 .41400004 .673 .45300005 .60300007 .45300005 C .53400006 .45300005 .48500005 .41500003 .45000003 .367 C .442 .42500005 .39900003 .45300005 .34100003 .45300005 C .286 .45300005 .236 .42900003 .194 .37600003 C .185 .42800004 .14700002 .45300005 .106000009 .45300005 C .073000017 .45300005 .048000009 .43300004 .030000009 .395 C .014000006 .36 0 .30400003 0 .3 C 0 .28700004 .011000007 .28700004 .017000005 .28700004 C .032000007 .28700004 .032000007 .291 .037000009 .31100003 C .05700001 .39100004 .076000008 .42800004 .104 .42800004 C .120000008 .42800004 .13000001 .41900004 .13000001 .388 C .13000001 .367 .12400001 .34100003 .12300001 .337 L .051 .049000004 C .047000007 .035 .047000007 .033000005 .047000007 .028 C .047000007 .010000001 .061000006 0 .076000008 0 C .10800001 0 .113000009 .020000002 .12600002 .075 C .13100001 .094000007 .14500001 .14700002 .14800002 .16100002 C .15600002 .19400002 .17400003 .26400004 .18 .291 C .18200001 .298 .20700002 .35300002 .24600002 .39000003 C .27400003 .41600005 .30800004 .42800004 .33800004 .42800004 C .36800004 .42800004 .386 .40800003 .386 .36200003 C .386 .344 .38000003 .314 .37700004 .30100004 L .314 .049000004 Z "/>
</symbol>
<symbol id="font_5_4">
<path d="M .24800003 .634 C .24800003 .65000006 .236 .667 .215 .667 C .19100002 .667 .16700001 .646 .16700001 .621 C .16700001 .593 .19000003 .587 .201 .587 C .22600001 .587 .24800003 .61 .24800003 .634 M .26000003 .15400002 C .26000003 .16600001 .24700001 .16600001 .243 .16600001 C .229 .16600001 .22800002 .16300002 .222 .14200002 C .21200001 .106000009 .18400002 .025000003 .13000001 .025000003 C .12200001 .025000003 .10900001 .026 .10900001 .053000004 C .10900001 .07000001 .11500001 .093 .12600002 .124000009 C .14000002 .16100002 .14000002 .16300002 .157 .20500002 L .19100002 .29900003 C .20000002 .32200004 .21100003 .35200004 .21100003 .37100003 C .21100003 .42000003 .17700002 .45300005 .13200002 .45300005 C .037000009 .45300005 0 .30800004 0 .29900003 C 0 .28700004 .012000002 .28700004 .017000005 .28700004 C .031000004 .28700004 .032000007 .29200004 .036000007 .30400003 C .043000007 .33 .07000001 .42800004 .12900001 .42800004 C .13900002 .42800004 .15 .42600004 .15 .40000005 C .15 .37600003 .143 .35600005 .12600002 .30900003 L .091000009 .21600002 C .08500001 .19800002 .069000009 .15600002 .066 .14700002 C .058000015 .126 .04900001 .102000009 .04900001 .082 C .04900001 .028 .08700001 0 .128 0 C .22300002 0 .26000003 .14700002 .26000003 .15400002 Z "/>
</symbol>
<symbol id="font_5_3">
<path d="M .38500003 .38500003 C .389 .39900003 .389 .40100003 .389 .40500004 C .389 .42200003 .37600003 .43300004 .36 .43300004 C .347 .43300004 .32500003 .42500005 .319 .397 C .30900003 .41700004 .283 .45300005 .23300001 .45300005 C .121 .45300005 0 .30800004 0 .15700002 C 0 .055000005 .059000009 0 .125 0 C .185 0 .229 .048 .248 .069000009 C .259 .025000003 .294 0 .335 0 C .381 0 .402 .040000004 .41000004 .057000005 C .42800004 .094000007 .44099999 .15100001 .44099999 .15400002 C .44099999 .16600001 .42800004 .16600001 .42400003 .16600001 C .40900005 .16600001 .408 .16200002 .40399999 .143 C .387 .077 .36900003 .025000003 .336 .025000003 C .317 .025000003 .31 .041 .31 .06600001 C .31 .075 .313 .097 .31800003 .117000009 L .38500003 .38500003 M .254 .136 C .245 .102000009 .18200001 .025000003 .12799999 .025000003 C .07300001 .025000003 .07 .09900001 .07 .11400001 C .07 .16500002 .1 .275 .115 .31300003 C .141 .37600003 .18900001 .42800004 .23300001 .42800004 C .294 .42800004 .303 .344 .303 .337 C .303 .33200003 .303 .33100004 .3 .321 L .254 .136 Z "/>
</symbol>
<use xlink:href="#font_5_9" transform="matrix(8.9664,0,0,-8.9664,30.913468,38.829484)"/>
<use xlink:href="#font_5_8" transform="matrix(8.9664,0,0,-8.9664,36.006383,37.18863)"/>
<use xlink:href="#font_5_5" transform="matrix(8.9664,0,0,-8.9664,40.561315,37.18863)"/>
<use xlink:href="#font_5_a" transform="matrix(8.9664,0,0,-8.9664,42.79395,38.928113)"/>
<use xlink:href="#font_5_7" transform="matrix(8.9664,0,0,-8.9664,47.268186,37.18863)"/>
<use xlink:href="#font_5_8" transform="matrix(8.9664,0,0,-8.9664,52.701826,37.18863)"/>
<use xlink:href="#font_5_6" transform="matrix(8.9664,0,0,-8.9664,57.140195,37.18863)"/>
<use xlink:href="#font_5_4" transform="matrix(8.9664,0,0,-8.9664,64.67197,37.18863)"/>
<use xlink:href="#font_5_3" transform="matrix(8.9664,0,0,-8.9664,67.76537,37.18863)"/>
<use xlink:href="#font_5_5" transform="matrix(8.9664,0,0,-8.9664,72.32928,37.18863)"/>
<use xlink:href="#font_5_4" transform="matrix(8.9664,0,0,-8.9664,77.85258,37.18863)"/>
<use xlink:href="#font_5_7" transform="matrix(8.9664,0,0,-8.9664,80.676998,37.18863)"/>
<symbol id="font_6_2">
<path d="M .458 .337 C .46400003 .36300005 .47599999 .40900005 .47599999 .41300003 C .47599999 .42600004 .467 .44200004 .44500003 .44200004 C .431 .44200004 .416 .43300004 .409 .42100004 C .404 .411 .336 .14000002 .33 .107 C .30900003 .071 .269 .025000003 .21400002 .025000003 C .15200001 .025000003 .15200001 .08800001 .15200001 .107 C .15200001 .15200001 .165 .20100002 .20800002 .31300003 C .216 .33600004 .22200002 .35000003 .22200002 .36900003 C .22200002 .418 .18500002 .45300005 .136 .45300005 C .040000008 .45300005 0 .31100003 0 .29900003 C 0 .29000003 .007000001 .28700004 .014 .28700004 C .025 .28700004 .026000003 .293 .030000003 .30600003 C .051000008 .37800003 .09 .42800004 .133 .42800004 C .15400002 .42800004 .157 .41300003 .157 .395 C .157 .37800003 .15300001 .36 .14400001 .33600004 C .097 .21200001 .08400001 .17000002 .08400001 .12200001 C .08400001 .011000001 .17400001 0 .21100001 0 C .268 0 .30900003 .035 .333 .06600001 C .352 0 .418 0 .424 0 C .453 0 .47800002 .014 .49899999 .053000004 C .517 .086 .53200009 .15000002 .53200009 .15400002 C .53200009 .15900001 .52900007 .16600001 .51900008 .16600001 C .507 .16600001 .50600007 .16100002 .50200006 .14200002 C .48200003 .063 .461 .025000003 .42700003 .025000003 C .403 .025000003 .396 .046 .396 .071 C .396 .09 .401 .11000001 .41 .14500001 L .435 .24800003 L .458 .337 Z "/>
</symbol>
<use xlink:href="#font_6_2" transform="matrix(8.9664,0,0,-8.9664,88.66203,37.18863)"/>
<symbol id="font_5_2">
<path d="M .027999998 .092999998 C .044 .16900003 .08899999 .22900003 .148 .277 C .153 .282 .15400002 .283 .155 .28500004 C .15599999 .286 .15599999 .28900004 .157 .29000003 C .155 .296 .15 .302 .144 .302 C .12599999 .302 0 .185 0 .06400001 C 0 .052000017 0 0 .048999996 0 C .09 0 .11500001 .037 .11500001 .065 C .11500001 .09099999 .097 .10799998 .06999999 .10799998 C .044999988 .10799998 .035999985 .099999997 .027999998 .092999998 M .215 .092999998 C .231 .16900003 .27600003 .22900003 .33500005 .277 C .34000004 .282 .34100003 .283 .342 .28500004 C .343 .286 .343 .28900004 .34399999 .29000003 C .342 .296 .337 .302 .33100004 .302 C .31300003 .302 .187 .185 .187 .06400001 C .187 .052000017 .187 0 .236 0 C .277 0 .302 .037 .302 .065 C .302 .09099999 .28399999 .10799998 .25700004 .10799998 C .232 .10799998 .22299999 .099999997 .215 .092999998 Z "/>
</symbol>
<use xlink:href="#font_5_2" transform="matrix(8.9664,0,0,-8.9664,120.18256,34.44717)"/>
<symbol id="font_6_1">
<path d="M .48200006 .671 C .486 .685 .486 .68700006 .486 .691 C .486 .7 .48000003 .705 .47100003 .705 C .45700003 .705 .36900003 .697 .34900005 .695 C .33900003 .694 .328 .693 .328 .676 C .328 .663 .33900003 .663 .35500003 .663 C .40200005 .663 .40200005 .656 .40200005 .647 C .40200005 .64 .39300005 .605 .388 .584 L .36900003 .507 C .35900004 .46900005 .34900005 .43000005 .34000004 .39100004 C .321 .42700003 .29000003 .45300005 .245 .45300005 C .12900001 .45300005 0 .31500004 0 .16200002 C 0 .052 .07 0 .137 0 C .20200002 0 .25500003 .054 .27100004 .07300001 C .282 .018000002 .33200003 0 .36400003 0 C .39300005 0 .418 .013000001 .44000004 .055000005 C .458 .08800001 .472 .15000002 .472 .15400002 C .472 .15900001 .46900005 .16600001 .45900006 .16600001 C .44700004 .16600001 .44600005 .16100002 .44200004 .14200002 C .42000003 .055000005 .39800004 .025000003 .367 .025000003 C .342 .025000003 .33600004 .049000004 .33600004 .071 C .33600004 .08400001 .34100003 .112 .342 .115 L .48200006 .671 M .275 .13200002 C .27100004 .116000007 .27 .11400001 .254 .094000007 C .21800003 .051000004 .17700002 .025000003 .14000002 .025000003 C .091 .025000003 .074 .076000008 .074 .119 C .074 .16800002 .10300001 .28300003 .127 .33100004 C .15900001 .39100004 .20500002 .42800004 .245 .42800004 C .312 .42800004 .32700003 .34700004 .32700003 .34200005 C .32700003 .337 .32500003 .33100004 .32400004 .32700003 L .275 .13200002 Z "/>
</symbol>
<use xlink:href="#font_6_1" transform="matrix(8.9664,0,0,-8.9664,122.77159,38.060628)"/>
<use xlink:href="#font_6_2" transform="matrix(8.9664,0,0,-8.9664,127.43412,38.060628)"/>
<symbol id="font_5_1">
<path d="M .127 .20899999 C .11199999 .13 .061000006 .06799999 .0109999929 .027999998 C .001000002 .018999994 0 .018000007 0 .013000011 C 0 .009000003 .003999993 0 .0119999949 0 C .030000002 0 .15600002 .120000008 .15600002 .23800004 C .15600002 .27899999 .13800001 .302 .106000009 .302 C .06999999 .302 .040999995 .27100004 .040999995 .23699999 C .040999995 .20600003 .06299999 .194 .085999999 .194 C .10800001 .194 .12400001 .20600003 .127 .20899999 M .314 .20899999 C .29900003 .13 .248 .06799999 .19800002 .027999998 C .188 .018999994 .187 .018000007 .187 .013000011 C .187 .009000003 .19100002 0 .199 0 C .21700001 0 .343 .120000008 .343 .23800004 C .343 .27899999 .325 .302 .293 .302 C .257 .302 .22800002 .27100004 .22800002 .23699999 C .22800002 .20600003 .25 .194 .273 .194 C .29500003 .194 .31100003 .20600003 .314 .20899999 Z "/>
</symbol>
<use xlink:href="#font_5_1" transform="matrix(8.9664,0,0,-8.9664,134.04213,34.44717)"/>
</svg>
