<?xml version="1.0" encoding="UTF-8" standalone="no"?>
<!DOCTYPE svg PUBLIC "-//W3C//DTD SVG 1.1//EN" "http://www.w3.org/Graphics/SVG/1.1/DTD/svg11.dtd">
<svg xmlns="http://www.w3.org/2000/svg" xmlns:xlink="http://www.w3.org/1999/xlink" version="1.1" width="192.621pt" height="177.599pt" viewBox="0 0 192.621 177.599">
<path transform="matrix(1,0,0,-1,5.843,174.496)" stroke-width=".3985" stroke-linecap="butt" stroke-miterlimit="10" stroke-linejoin="miter" fill="none" stroke="#cbcbcb" d="M 3.84274 0 L 3.84274 161.39575 M 16.65193 0 L 16.65193 161.39575 M 29.46112 0 L 29.46112 161.39575 M 42.27031 0 L 42.27031 161.39575 M 55.0795 0 L 55.0795 161.39575 M 80.69788 0 L 80.69788 161.39575 M 93.50706 0 L 93.50706 161.39575 M 106.31624 0 L 106.31624 161.39575 M 119.12543 0 L 119.12543 161.39575 M 131.93462 0 L 131.93462 161.39575 M 144.7438 0 L 144.7438 161.39575 M 157.553 0 L 157.553 161.39575 M 170.36219 0 L 170.36219 161.39575 "/>
<path transform="matrix(1,0,0,-1,5.843,174.496)" stroke-width=".3985" stroke-linecap="butt" stroke-miterlimit="10" stroke-linejoin="miter" fill="none" stroke="#cbcbcb" d="M 0 3.84274 L 174.20494 3.84274 M 0 16.65193 L 174.20494 16.65193 M 0 29.46112 L 174.20494 29.46112 M 0 42.27031 L 174.20494 42.27031 M 0 55.0795 L 174.20494 55.0795 M 0 80.69788 L 174.20494 80.69788 M 0 93.50706 L 174.20494 93.50706 M 0 106.31624 L 174.20494 106.31624 M 0 119.12543 L 174.20494 119.12543 M 0 131.93462 L 174.20494 131.93462 M 0 144.7438 L 174.20494 144.7438 M 0 157.553 L 174.20494 157.553 "/>
<path transform="matrix(1,0,0,-1,5.843,174.496)" stroke-width=".19925" stroke-linecap="butt" stroke-miterlimit="10" stroke-linejoin="miter" fill="none" stroke="#929292" d="M 3.84274 65.76271 L 3.84274 70.01463 M 16.65193 65.76271 L 16.65193 70.01463 M 29.46112 65.76271 L 29.46112 70.01463 M 42.27031 65.76271 L 42.27031 70.01463 M 55.0795 65.76271 L 55.0795 70.01463 M 80.69788 65.76271 L 80.69788 70.01463 M 93.50706 65.76271 L 93.50706 70.01463 M 106.31624 65.76271 L 106.31624 70.01463 M 119.12543 65.76271 L 119.12543 70.01463 M 131.93462 65.76271 L 131.93462 70.01463 M 144.7438 65.76271 L 144.7438 70.01463 M 157.553 65.76271 L 157.553 70.01463 M 170.36219 65.76271 L 170.36219 70.01463 "/>
<path transform="matrix(1,0,0,-1,5.843,174.496)" stroke-width=".19925" stroke-linecap="butt" stroke-miterlimit="10" stroke-linejoin="miter" fill="none" stroke="#929292" d="M 65.76271 3.84274 L 70.01463 3.84274 M 65.76271 16.65193 L 70.01463 16.65193 M 65.76271 29.46112 L 70.01463 29.46112 M 65.76271 42.27031 L 70.01463 42.27031 M 65.76271 55.0795 L 70.01463 55.0795 M 65.76271 80.69788 L 70.01463 80.69788 M 65.76271 93.50706 L 70.01463 93.50706 M 65.76271 106.31624 L 70.01463 106.31624 M 65.76271 119.12543 L 70.01463 119.12543 M 65.76271 131.93462 L 70.01463 131.93462 M 65.76271 144.7438 L 70.01463 144.7438 M 65.76271 157.553 L 70.01463 157.553 "/>
<path transform="matrix(1,0,0,-1,5.843,174.496)" stroke-width=".3985" stroke-linecap="butt" stroke-miterlimit="10" stroke-linejoin="miter" fill="none" stroke="#000000" d="M 0 67.88869 L 172.21242 67.88869 "/>
<path transform="matrix(1,0,0,-1,178.05542,106.607318)" d="M 1.99252 0 L -1.19551 1.59401 L 0 0 L -1.19551 -1.59401 "/>
<path transform="matrix(1,0,0,-1,5.843,174.496)" stroke-width=".3985" stroke-linecap="butt" stroke-miterlimit="10" stroke-linejoin="miter" fill="none" stroke="#000000" d="M 67.88869 0 L 67.88869 159.40323 "/>
<path transform="matrix(0,-1,-1,-0,73.73169,15.092773)" d="M 1.99252 0 L -1.19551 1.59401 L 0 0 L -1.19551 -1.59401 "/>
<symbol id="font_0_1">
<path d="M .57600006 0 C .59300008 0 .611 0 .611 .019999996 C .611 .040000008 .59300008 .040000008 .57600006 .040000008 L .035000005 .040000008 C .018 .040000008 0 .040000008 0 .019999996 C 0 0 .018 0 .035000005 0 L .57600006 0 Z "/>
</symbol>
<use xlink:href="#font_0_1" transform="matrix(9.9626,0,0,-9.9626,4.147896,116.3826)"/>
<symbol id="font_1_7">
<path d="M .39900003 .223 C .39900003 .34200005 .317 .44200004 .209 .44200004 C .16100002 .44200004 .118000019 .42600004 .082 .39100004 L .082 .586 C .10200001 .58000007 .135 .573 .16700001 .573 C .29 .573 .36 .66400006 .36 .67700007 C .36 .683 .357 .688 .35 .688 C .349 .688 .347 .688 .342 .68500009 C .322 .67600008 .273 .656 .20600002 .656 C .16600001 .656 .120000008 .66300007 .073 .6840001 C .065 .68700006 .06300001 .68700006 .061000009 .68700006 C .051000004 .68700006 .051000004 .679 .051000004 .66300007 L .051000004 .36700005 C .051000004 .34900005 .051000004 .34100003 .065 .34100003 C .07200001 .34100003 .074 .34400005 .07800001 .35000003 C .08900002 .36600004 .12600002 .42000006 .207 .42000006 C .259 .42000006 .284 .37400005 .292 .35600005 C .308 .31900005 .31 .28000004 .31 .23 C .31 .19500001 .31 .135 .286 .093 C .262 .054000006 .22500001 .028 .17900002 .028 C .106000009 .028 .049000008 .08100001 .032 .14000002 C .035 .13900002 .038000008 .13800001 .049000008 .13800001 C .082 .13800001 .09900001 .163 .09900001 .187 C .09900001 .21100001 .082 .23600002 .049000008 .23600002 C .035 .23600002 0 .22900002 0 .18300002 C 0 .097 .069000009 0 .18100001 0 C .297 0 .39900003 .096 .39900003 .223 Z "/>
</symbol>
<use xlink:href="#font_1_7" transform="matrix(9.9626,0,0,-9.9626,11.56713,118.89317)"/>
<use xlink:href="#font_0_1" transform="matrix(9.9626,0,0,-9.9626,16.956896,116.3826)"/>
<symbol id="font_1_6">
<path d="M .266 .165 L .266 .078 C .266 .042000005 .26400004 .031000002 .19000001 .031000002 L .16900002 .031000002 L .16900002 0 C .21000001 .003 .26200003 .003 .30400003 .003 C .34600003 .003 .39900003 .003 .44000004 0 L .44000004 .031000002 L .41900004 .031000002 C .34500004 .031000002 .34300003 .042000005 .34300003 .078 L .34300003 .165 L .44300003 .165 L .44300003 .19600001 L .34300003 .19600001 L .34300003 .651 C .34300003 .671 .34300003 .67700007 .32700003 .67700007 C .31800003 .67700007 .31500004 .67700007 .307 .665 L 0 .19600001 L 0 .165 L .266 .165 M .272 .19600001 L .028 .19600001 L .272 .569 L .272 .19600001 Z "/>
</symbol>
<use xlink:href="#font_1_6" transform="matrix(9.9626,0,0,-9.9626,24.156952,118.673999)"/>
<use xlink:href="#font_0_1" transform="matrix(9.9626,0,0,-9.9626,29.765898,116.3826)"/>
<symbol id="font_1_5">
<path d="M .24800003 .37400005 C .33 .40100003 .388 .47100006 .388 .55 C .388 .632 .3 .688 .204 .688 C .10300001 .688 .027000003 .628 .027000003 .55200007 C .027000003 .519 .049000004 .5 .078 .5 C .109000008 .5 .12900001 .522 .12900001 .55100008 C .12900001 .6010001 .082 .6010001 .067 .6010001 C .098 .65000006 .164 .66300007 .20000002 .66300007 C .24100003 .66300007 .29600004 .64100006 .29600004 .55100008 C .29600004 .53900006 .29400004 .48100005 .268 .43700005 C .238 .38900004 .204 .38600005 .17900002 .38500003 C .171 .38400004 .14700002 .38200004 .14000002 .38200004 C .132 .38100005 .125 .38000003 .125 .37000004 C .125 .35900004 .132 .35900004 .14900002 .35900004 L .19300002 .35900004 C .275 .35900004 .312 .29100005 .312 .193 C .312 .057000005 .24300003 .028 .199 .028 C .15600002 .028 .081 .045 .046000005 .104 C .081 .09900001 .11200001 .12100001 .11200001 .15900001 C .11200001 .19500001 .085 .215 .056 .215 C .031999999 .215 0 .201 0 .157 C 0 .06600001 .093 0 .20200002 0 C .32400004 0 .41500003 .091000009 .41500003 .193 C .41500003 .27500005 .35200004 .35300005 .24800003 .37400005 Z "/>
</symbol>
<use xlink:href="#font_1_5" transform="matrix(9.9626,0,0,-9.9626,37.105436,118.89317)"/>
<use xlink:href="#font_0_1" transform="matrix(9.9626,0,0,-9.9626,42.574895,116.3826)"/>
<symbol id="font_1_4">
<path d="M .07700001 .07700001 L .18300002 .18 C .33900003 .31800003 .39900003 .372 .39900003 .47200004 C .39900003 .586 .30900003 .666 .18700002 .666 C .074 .666 0 .574 0 .485 C 0 .42900003 .05 .42900003 .053000008 .42900003 C .07000001 .42900003 .105000007 .441 .105000007 .48200003 C .105000007 .508 .08700001 .53400006 .052000006 .53400006 C .044000005 .53400006 .042000008 .53400006 .039 .53300008 C .062000004 .59800007 .11600001 .63500007 .17400001 .63500007 C .26500003 .63500007 .308 .554 .308 .47200004 C .308 .39200003 .25800003 .31300003 .20300003 .25100003 L .011000004 .037 C 0 .026 0 .024 0 0 L .37100003 0 L .39900003 .17400001 L .374 .17400001 C .36900003 .14400001 .36200003 .1 .352 .085 C .345 .07700001 .279 .07700001 .257 .07700001 L .07700001 .07700001 Z "/>
</symbol>
<use xlink:href="#font_1_4" transform="matrix(9.9626,0,0,-9.9626,49.99413,118.673999)"/>
<use xlink:href="#font_0_1" transform="matrix(9.9626,0,0,-9.9626,55.383897,116.3826)"/>
<symbol id="font_1_3">
<path d="M .205 .64000007 C .205 .66400006 .205 .666 .18200003 .666 C .120000008 .60200008 .032000007 .60200008 0 .60200008 L 0 .57100006 C .020000004 .57100006 .07900001 .57100006 .13100001 .597 L .13100001 .079 C .13100001 .043 .128 .031000002 .038000004 .031000002 L .0060000049 .031000002 L .0060000049 0 C .04100001 .003 .128 .003 .168 .003 C .20800002 .003 .29500003 .003 .33000005 0 L .33000005 .031000002 L .29800005 .031000002 C .20800002 .031000002 .205 .042000005 .205 .079 L .205 .64000007 Z "/>
</symbol>
<use xlink:href="#font_1_3" transform="matrix(9.9626,0,0,-9.9626,63.191675,118.673999)"/>
<use xlink:href="#font_1_3" transform="matrix(9.9626,0,0,-9.9626,84.93568,118.673999)"/>
<use xlink:href="#font_1_4" transform="matrix(9.9626,0,0,-9.9626,97.35613,118.673999)"/>
<use xlink:href="#font_1_5" transform="matrix(9.9626,0,0,-9.9626,110.08543,118.89317)"/>
<use xlink:href="#font_1_6" transform="matrix(9.9626,0,0,-9.9626,122.75496,118.673999)"/>
<use xlink:href="#font_1_7" transform="matrix(9.9626,0,0,-9.9626,135.78313,118.89317)"/>
<symbol id="font_1_8">
<path d="M .089999999 .35000003 L .089999999 .37400005 C .089999999 .62700006 .21400002 .66300007 .26500003 .66300007 C .28900004 .66300007 .33100004 .65700009 .35300002 .623 C .33800004 .623 .298 .623 .298 .57800009 C .298 .54700008 .32200004 .53200009 .344 .53200009 C .36 .53200009 .39000003 .54100009 .39000003 .58000007 C .39000003 .64000007 .34600003 .688 .263 .688 C .13499999 .688 0 .559 0 .33800004 C 0 .071 .116000007 0 .20900002 0 C .32000003 0 .41500003 .094000007 .41500003 .22600001 C .41500003 .35300005 .32600004 .44900004 .215 .44900004 C .14700002 .44900004 .11000001 .39800004 .089999999 .35000003 M .20900002 .028 C .146 .028 .116000007 .088 .11000001 .103 C .092 .15 .092 .23 .092 .24800001 C .092 .32600004 .124000009 .42600004 .21400002 .42600004 C .23000002 .42600004 .27600003 .42600004 .307 .36400003 C .32500003 .32700003 .32500003 .27600003 .32500003 .22700002 C .32500003 .179 .32500003 .12900001 .30800004 .093 C .27800004 .033000005 .23200003 .028 .20900002 .028 Z "/>
</symbol>
<use xlink:href="#font_1_8" transform="matrix(9.9626,0,0,-9.9626,148.51244,118.89317)"/>
<symbol id="font_1_9">
<path d="M .42000003 .63100007 C .42900003 .64300009 .42900003 .64500007 .42900003 .66600009 L .18600002 .66600009 C .064 .66600009 .062000008 .679 .058000007 .6980001 L .033 .6980001 L 0 .49200005 L .024999999 .49200005 C .028000005 .508 .037 .57100006 .050000006 .58300009 C .057000005 .58900007 .13500002 .58900007 .148 .58900007 L .35500003 .58900007 C .344 .573 .26500003 .46400006 .24300003 .43100003 C .153 .29600004 .12000001 .157 .12000001 .055 C .12000001 .045 .12000001 0 .16600001 0 C .21200001 0 .21200001 .045 .21200001 .055 L .21200001 .106000009 C .21200001 .16100002 .21500004 .216 .22300002 .27 C .22700003 .29300005 .24100003 .37900005 .28500004 .44100005 L .42000003 .63100007 Z "/>
</symbol>
<use xlink:href="#font_1_9" transform="matrix(9.9626,0,0,-9.9626,161.4609,118.89317)"/>
<symbol id="font_1_a">
<path d="M .121 .47900004 C .075 .509 .071 .54300007 .071 .56000009 C .071 .62100008 .136 .66300007 .20700002 .66300007 C .28000004 .66300007 .344 .61100009 .344 .53900006 C .344 .48200003 .305 .43400005 .245 .39900003 L .121 .47900004 M .26700003 .38400004 C .33900003 .42100004 .388 .47300006 .388 .53900006 C .388 .63100007 .29900003 .688 .208 .688 C .108 .688 .027000003 .614 .027000003 .521 C .027000003 .503 .029 .45800004 .071 .41100005 C .082 .39900003 .11900001 .37400005 .144 .35700003 C .086 .32800005 0 .272 0 .17300001 C 0 .067 .102000009 0 .20700002 0 C .32000003 0 .41500003 .083000008 .41500003 .19000001 C .41500003 .22600001 .404 .27100004 .36600004 .31300003 C .34700004 .33400003 .33100004 .34400005 .26700003 .38400004 M .167 .34200005 L .29000003 .26400004 C .31800003 .245 .365 .215 .365 .154 C .365 .080000009 .29000003 .028 .208 .028 C .122 .028 .050000006 .09 .050000006 .17300001 C .050000006 .231 .082 .29500003 .167 .34200005 Z "/>
</symbol>
<use xlink:href="#font_1_a" transform="matrix(9.9626,0,0,-9.9626,174.13043,118.89317)"/>
<use xlink:href="#font_0_1" transform="matrix(9.9626,0,0,-9.9626,56.181898,171.1566)"/>
<use xlink:href="#font_1_7" transform="matrix(9.9626,0,0,-9.9626,63.60213,173.66718)"/>
<use xlink:href="#font_0_1" transform="matrix(9.9626,0,0,-9.9626,56.181898,158.34761)"/>
<use xlink:href="#font_1_6" transform="matrix(9.9626,0,0,-9.9626,63.382955,160.639)"/>
<use xlink:href="#font_0_1" transform="matrix(9.9626,0,0,-9.9626,56.181898,145.5386)"/>
<use xlink:href="#font_1_5" transform="matrix(9.9626,0,0,-9.9626,63.52243,148.04918)"/>
<use xlink:href="#font_0_1" transform="matrix(9.9626,0,0,-9.9626,56.181898,132.7296)"/>
<use xlink:href="#font_1_4" transform="matrix(9.9626,0,0,-9.9626,63.60213,135.021)"/>
<use xlink:href="#font_0_1" transform="matrix(9.9626,0,0,-9.9626,56.181898,119.9206)"/>
<use xlink:href="#font_1_3" transform="matrix(9.9626,0,0,-9.9626,63.990674,122.212)"/>
<use xlink:href="#font_1_3" transform="matrix(9.9626,0,0,-9.9626,63.990674,97.009)"/>
<use xlink:href="#font_1_4" transform="matrix(9.9626,0,0,-9.9626,63.60213,84.2)"/>
<use xlink:href="#font_1_5" transform="matrix(9.9626,0,0,-9.9626,63.52243,71.610179)"/>
<use xlink:href="#font_1_6" transform="matrix(9.9626,0,0,-9.9626,63.382955,58.582)"/>
<use xlink:href="#font_1_7" transform="matrix(9.9626,0,0,-9.9626,63.60213,45.992174)"/>
<use xlink:href="#font_1_8" transform="matrix(9.9626,0,0,-9.9626,63.52243,33.18318)"/>
<use xlink:href="#font_1_9" transform="matrix(9.9626,0,0,-9.9626,63.661909,20.374176)"/>
<path transform="matrix(1,0,0,-1,5.843,174.496)" stroke-width="1.19553" stroke-linecap="butt" stroke-miterlimit="10" stroke-linejoin="miter" fill="none" stroke="#000080" d="M 16.65193 144.7438 L 67.88869 93.50706 "/>
<path transform="matrix(1,0,0,-1,5.843,174.496)" stroke-width="1.19553" stroke-linecap="butt" stroke-miterlimit="10" stroke-linejoin="miter" fill="none" stroke="#000080" d="M 67.88869 93.50667 L 68.67291 93.24391 L 69.45714 92.97841 L 70.24138 92.71005 L 71.02559 92.43878 L 71.80981 92.16446 L 72.59406 91.88704 L 73.37828 91.60638 L 74.1625 91.32233 L 74.94675 91.03479 L 75.73097 90.74364 L 76.5152 90.4487 L 77.29944 90.14989 L 78.08366 89.84705 L 78.86789 89.53989 L 79.65213 89.22835 L 80.43636 88.91222 L 81.22058 88.5912 L 82.00482 88.26512 L 82.78903 87.93382 L 83.57326 87.59692 L 84.35748 87.25417 L 85.14172 86.9052 L 85.92595 86.54971 L 86.71017 86.18729 L 87.4944 85.81764 L 88.27864 85.44017 L 89.06287 85.05435 L 89.84709 84.6597 L 90.63132 84.25554 L 91.41556 83.84119 L 92.19978 83.4157 L 92.98401 82.97824 L 93.76825 82.52766 L 94.55246 82.06284 L 95.33669 81.58218 L 96.12091 81.08417 L 96.90515 80.56673 L 97.68938 80.02702 L 98.4736 79.46211 L 99.25783 78.86826 L 100.04207 78.24037 L 100.8263 77.57211 L 101.61052 76.85419 L 102.39474 76.07253 L 103.17899 75.20898 L 103.96321 74.2289 L 104.74744 73.06491 L 105.53166 71.5499 L 106.31589 67.88869 "/>
<path transform="matrix(1,0,0,-1,5.843,174.496)" stroke-width="1.19553" stroke-linecap="butt" stroke-miterlimit="10" stroke-linejoin="miter" fill="none" stroke="#000080" d="M 106.31624 42.27031 L 107.36186 38.61063 L 108.40749 37.09468 L 109.45311 35.93146 L 110.49873 34.95085 L 111.54436 34.0869 L 112.58998 33.30585 L 113.63562 32.58757 L 114.68124 31.91902 L 115.72687 31.29112 L 116.77249 30.69722 L 117.8181 30.13237 L 118.86372 29.59264 L 119.90936 29.07518 L 120.95499 28.57707 L 122.00061 28.09645 L 123.04623 27.6316 L 124.09186 27.1811 L 125.13748 26.74365 L 126.18312 26.31816 L 127.22874 25.90376 L 128.27437 25.49957 L 129.31999 25.10493 L 130.3656 24.71912 L 131.41123 24.34164 L 132.45687 23.97194 L 133.50249 23.60956 L 134.54811 23.25409 L 135.59374 22.90515 L 136.63936 22.56236 L 137.68498 22.22546 L 138.73062 21.89409 L 139.77625 21.56807 L 140.82187 21.2471 L 141.86748 20.93094 L 142.9131 20.61938 L 143.95873 20.31227 L 145.00435 20.0094 L 146.04999 19.71057 L 147.09561 19.41565 L 148.14124 19.1245 L 149.18686 18.83698 L 150.23249 18.55293 L 151.2781 18.27222 L 152.32375 17.99478 L 153.36937 17.72047 L 154.41498 17.4492 L 155.4606 17.18085 L 156.50623 16.91534 L 157.55185 16.65259 "/>
<symbol id="font_2_3">
<path d="M .45700003 .586 C .461 .6 .461 .602 .461 .609 C .461 .62700006 .447 .63600006 .432 .63600006 C .42200003 .63600006 .40600003 .63 .397 .615 C .395 .61 .387 .579 .38300003 .561 C .37600003 .535 .36900003 .508 .363 .48100005 L .318 .301 C .314 .286 .271 .21600002 .20500002 .21600002 C .15400002 .21600002 .143 .26000003 .143 .29700003 C .143 .34300003 .16000001 .40500004 .194 .49300004 C .21000001 .53400006 .21400002 .545 .21400002 .56500008 C .21400002 .61 .18200001 .6470001 .13200002 .6470001 C .037 .6470001 0 .50200006 0 .49300004 C 0 .48300005 .01 .48300005 .012 .48300005 C .022000002 .48300005 .023 .485 .028000003 .50100007 C .055000009 .595 .095000009 .625 .12900001 .625 C .13700001 .625 .15400002 .625 .15400002 .59300008 C .15400002 .568 .14400001 .54200008 .13700001 .523 C .097 .41700004 .079 .36 .079 .31300003 C .079 .224 .142 .194 .201 .194 C .24000003 .194 .274 .21100001 .30200003 .23900002 C .289 .187 .277 .13800001 .237 .08500001 C .21100001 .051 .17300001 .022 .127 .022 C .113000009 .022 .068 .025000006 .051000008 .06400001 C .067 .06400001 .080000009 .06400001 .094000007 .076000008 C .104 .08500001 .11400001 .098000008 .11400001 .117000009 C .11400001 .148 .087000008 .15200001 .07700001 .15200001 C .054000006 .15200001 .021 .136 .021 .087000008 C .021 .037 .065000008 0 .127 0 C .23 0 .333 .091000009 .361 .20400001 L .45700003 .586 Z "/>
</symbol>
<use xlink:href="#font_2_3" transform="matrix(9.9626,0,0,-9.9626,93.48792,66.30933)" fill="#000080"/>
<symbol id="font_1_b">
<path d="M .63100007 .19400002 C .646 .19400002 .665 .19400002 .665 .214 C .665 .23400001 .646 .23400001 .632 .23400001 L .033 .23400001 C .019000002 .23400001 0 .23400001 0 .214 C 0 .19400002 .019000002 .19400002 .034 .19400002 L .63100007 .19400002 M .632 0 C .646 0 .665 0 .665 .02000001 C .665 .040000008 .646 .040000008 .63100007 .040000008 L .034 .040000008 C .019000002 .040000008 0 .040000008 0 .02000001 C 0 0 .019000002 0 .033 0 L .632 0 Z "/>
</symbol>
<use xlink:href="#font_1_b" transform="matrix(9.9626,0,0,-9.9626,101.765918,62.94197)" fill="#000080"/>
<symbol id="font_2_1">
<path d="M .314 .605 L .4 .605 C .42000003 .605 .43 .605 .43 .625 C .43 .63600006 .42000003 .63600006 .40300004 .63600006 L .32000003 .63600006 L .34100003 .75 C .34500004 .771 .35900004 .842 .365 .8540001 C .374 .873 .39100004 .888 .41200004 .888 C .416 .888 .44200004 .888 .461 .87 C .41700004 .86600008 .407 .8310001 .407 .816 C .407 .793 .425 .781 .444 .781 C .47 .781 .49900005 .8030001 .49900005 .8410001 C .49900005 .8870001 .45300005 .9100001 .41200004 .9100001 C .37800003 .9100001 .31500004 .8920001 .28500004 .793 C .279 .7720001 .27600003 .7620001 .252 .63600006 L .18300002 .63600006 C .164 .63600006 .15300001 .63600006 .15300001 .61700007 C .15300001 .605 .162 .605 .18100001 .605 L .24700001 .605 L .172 .21000001 C .15400002 .113000009 .13700001 .022 .08500001 .022 C .081 .022 .056 .022 .037 .040000008 C .083000008 .043000014 .09200001 .07900001 .09200001 .094000007 C .09200001 .117000009 .074 .12900001 .055 .12900001 C .029 .12900001 0 .10700001 0 .069000009 C 0 .024000004 .044 0 .08500001 0 C .14 0 .18 .059 .19800002 .09700001 C .23000002 .16000001 .25300003 .28100003 .254 .28800003 L .314 .605 Z "/>
</symbol>
<use xlink:href="#font_2_1" transform="matrix(9.9626,0,0,-9.9626,112.25202,66.30933)" fill="#000080"/>
<symbol id="font_1_1">
<path d="M .23200003 .00999999 C .23200003 .012999982 .23200003 .014999986 .215 .03199999 C .09 .15799999 .058 .347 .058 .5 C .058 .674 .096 .84800007 .21900001 .97300007 C .23200003 .985 .23200003 .98700007 .23200003 .99 C .23200003 .99700006 .22800002 1 .222 1 C .21200001 1 .12200001 .93200007 .06299999 .805 C .012000002 .69500008 0 .584 0 .5 C 0 .422 .011 .301 .066 .188 C .126 .065 .21200001 0 .222 0 C .22800002 0 .23200003 .0029999912 .23200003 .00999999 Z "/>
</symbol>
<use xlink:href="#font_1_1" transform="matrix(9.9626,0,0,-9.9626,118.6603,66.757648)" fill="#000080"/>
<symbol id="font_2_2">
<path d="M .305 .31300003 C .311 .33900003 .334 .43100003 .404 .43100003 C .409 .43100003 .433 .43100003 .454 .418 C .426 .41300003 .40600003 .388 .40600003 .36400003 C .40600003 .34800003 .417 .32900004 .444 .32900004 C .46600003 .32900004 .498 .34700004 .498 .38700003 C .498 .43900005 .439 .45300005 .405 .45300005 C .347 .45300005 .312 .40000005 .3 .37700004 C .275 .44300003 .221 .45300005 .19200002 .45300005 C .08800001 .45300005 .031000002 .32400004 .031000002 .29900003 C .031000002 .28900004 .041 .28900004 .043000007 .28900004 C .051000008 .28900004 .054000006 .291 .056 .3 C .09 .40600003 .156 .43100003 .19000001 .43100003 C .209 .43100003 .244 .42200003 .244 .36400003 C .244 .33300004 .22700002 .26600004 .19000001 .126 C .17400001 .064 .13900002 .022000002 .095000009 .022000002 C .08900001 .022000002 .06600001 .022000002 .045 .035 C .07000001 .040000004 .09200001 .061 .09200001 .089 C .09200001 .116000007 .07000001 .124000009 .055000009 .124000009 C .025 .124000009 0 .098000008 0 .06600001 C 0 .020000002 .050000006 0 .094000007 0 C .16000001 0 .19600001 .07000001 .19900002 .076000008 C .21100001 .039 .24700003 0 .307 0 C .41 0 .467 .12900001 .467 .15400002 C .467 .16400002 .458 .16400002 .455 .16400002 C .446 .16400002 .444 .16000001 .442 .15300001 C .409 .046 .341 .022000002 .30900003 .022000002 C .27 .022000002 .254 .054 .254 .08800001 C .254 .11000001 .26 .13200002 .271 .17600002 L .305 .31300003 Z "/>
</symbol>
<use xlink:href="#font_2_2" transform="matrix(9.9626,0,0,-9.9626,121.83792,64.37659)" fill="#000080"/>
<symbol id="font_1_2">
<path d="M .232 .5 C .232 .578 .22100002 .699 .16600001 .81200006 C .106 .93500009 .020000004 1 .009999998 1 C .0040000008 1 0 .99600008 0 .99 C 0 .98700007 0 .985 .019000002 .967 C .117000009 .86800006 .174 .709 .174 .5 C .174 .329 .137 .153 .012999997 .026999996 C 0 .014999986 0 .012999982 0 .00999999 C 0 .003999993 .0040000008 0 .009999998 0 C .020000004 0 .11000001 .06799999 .169 .195 C .22 .305 .232 .416 .232 .5 Z "/>
</symbol>
<use xlink:href="#font_1_2" transform="matrix(9.9626,0,0,-9.9626,127.809879,66.757648)" fill="#000080"/>
<path transform="matrix(1,0,0,-1,5.843,174.496)" d="M 69.88124 93.50706 C 69.88124 94.60753 68.98915 95.49962 67.88869 95.49962 C 66.78821 95.49962 65.89613 94.60753 65.89613 93.50706 C 65.89613 92.40659 66.78821 91.51451 67.88869 91.51451 C 68.98915 91.51451 69.88124 92.40659 69.88124 93.50706 Z M 67.88869 93.50706 " fill="#ffffff"/>
<path transform="matrix(1,0,0,-1,5.843,174.496)" stroke-width=".3985" stroke-linecap="butt" stroke-miterlimit="10" stroke-linejoin="miter" fill="none" stroke="#000080" d="M 69.88124 93.50706 C 69.88124 94.60753 68.98915 95.49962 67.88869 95.49962 C 66.78821 95.49962 65.89613 94.60753 65.89613 93.50706 C 65.89613 92.40659 66.78821 91.51451 67.88869 91.51451 C 68.98915 91.51451 69.88124 92.40659 69.88124 93.50706 Z M 67.88869 93.50706 "/>
<path transform="matrix(1,0,0,-1,5.843,174.496)" d="M 108.30879 67.88869 C 108.30879 68.98915 107.41672 69.88124 106.31624 69.88124 C 105.21577 69.88124 104.32368 68.98915 104.32368 67.88869 C 104.32368 66.78821 105.21577 65.89613 106.31624 65.89613 C 107.41672 65.89613 108.30879 66.78821 108.30879 67.88869 Z M 106.31624 67.88869 " fill="#ffffff"/>
<path transform="matrix(1,0,0,-1,5.843,174.496)" stroke-width=".3985" stroke-linecap="butt" stroke-miterlimit="10" stroke-linejoin="miter" fill="none" stroke="#000080" d="M 108.30879 67.88869 C 108.30879 68.98915 107.41672 69.88124 106.31624 69.88124 C 105.21577 69.88124 104.32368 68.98915 104.32368 67.88869 C 104.32368 66.78821 105.21577 65.89613 106.31624 65.89613 C 107.41672 65.89613 108.30879 66.78821 108.30879 67.88869 Z M 106.31624 67.88869 "/>
<path transform="matrix(1,0,0,-1,5.843,174.496)" d="M 18.64449 144.7438 C 18.64449 145.84429 17.75241 146.73636 16.65193 146.73636 C 15.55147 146.73636 14.65938 145.84429 14.65938 144.7438 C 14.65938 143.64334 15.55147 142.75125 16.65193 142.75125 C 17.75241 142.75125 18.64449 143.64334 18.64449 144.7438 Z M 16.65193 144.7438 " fill="#000080"/>
<path transform="matrix(1,0,0,-1,5.843,174.496)" stroke-width=".3985" stroke-linecap="butt" stroke-miterlimit="10" stroke-linejoin="miter" fill="none" stroke="#000080" d="M 18.64449 144.7438 C 18.64449 145.84429 17.75241 146.73636 16.65193 146.73636 C 15.55147 146.73636 14.65938 145.84429 14.65938 144.7438 C 14.65938 143.64334 15.55147 142.75125 16.65193 142.75125 C 17.75241 142.75125 18.64449 143.64334 18.64449 144.7438 Z M 16.65193 144.7438 "/>
<path transform="matrix(1,0,0,-1,5.843,174.496)" d="M 69.88124 55.0795 C 69.88124 56.17996 68.98915 57.07205 67.88869 57.07205 C 66.78821 57.07205 65.89613 56.17996 65.89613 55.0795 C 65.89613 53.97902 66.78821 53.08694 67.88869 53.08694 C 68.98915 53.08694 69.88124 53.97902 69.88124 55.0795 Z M 67.88869 55.0795 " fill="#000080"/>
<path transform="matrix(1,0,0,-1,5.843,174.496)" stroke-width=".3985" stroke-linecap="butt" stroke-miterlimit="10" stroke-linejoin="miter" fill="none" stroke="#000080" d="M 69.88124 55.0795 C 69.88124 56.17996 68.98915 57.07205 67.88869 57.07205 C 66.78821 57.07205 65.89613 56.17996 65.89613 55.0795 C 65.89613 53.97902 66.78821 53.08694 67.88869 53.08694 C 68.98915 53.08694 69.88124 53.97902 69.88124 55.0795 Z M 67.88869 55.0795 "/>
<path transform="matrix(1,0,0,-1,5.843,174.496)" d="M 108.30879 42.27031 C 108.30879 43.37077 107.41672 44.26286 106.31624 44.26286 C 105.21577 44.26286 104.32368 43.37077 104.32368 42.27031 C 104.32368 41.16985 105.21577 40.27776 106.31624 40.27776 C 107.41672 40.27776 108.30879 41.16985 108.30879 42.27031 Z M 106.31624 42.27031 " fill="#000080"/>
<path transform="matrix(1,0,0,-1,5.843,174.496)" stroke-width=".3985" stroke-linecap="butt" stroke-miterlimit="10" stroke-linejoin="miter" fill="none" stroke="#000080" d="M 108.30879 42.27031 C 108.30879 43.37077 107.41672 44.26286 106.31624 44.26286 C 105.21577 44.26286 104.32368 43.37077 104.32368 42.27031 C 104.32368 41.16985 105.21577 40.27776 106.31624 40.27776 C 107.41672 40.27776 108.30879 41.16985 108.30879 42.27031 Z M 106.31624 42.27031 "/>
<path transform="matrix(1,0,0,-1,5.843,174.496)" d="M 159.54555 16.65193 C 159.54555 17.75241 158.65346 18.64449 157.553 18.64449 C 156.45252 18.64449 155.56044 17.75241 155.56044 16.65193 C 155.56044 15.55147 156.45252 14.65938 157.553 14.65938 C 158.65346 14.65938 159.54555 15.55147 159.54555 16.65193 Z M 157.553 16.65193 " fill="#000080"/>
<path transform="matrix(1,0,0,-1,5.843,174.496)" stroke-width=".3985" stroke-linecap="butt" stroke-miterlimit="10" stroke-linejoin="miter" fill="none" stroke="#000080" d="M 159.54555 16.65193 C 159.54555 17.75241 158.65346 18.64449 157.553 18.64449 C 156.45252 18.64449 155.56044 17.75241 155.56044 16.65193 C 155.56044 15.55147 156.45252 14.65938 157.553 14.65938 C 158.65346 14.65938 159.54555 15.55147 159.54555 16.65193 Z M 157.553 16.65193 "/>
<use xlink:href="#font_2_2" transform="matrix(9.9626,0,0,-9.9626,183.89592,108.84659)"/>
<use xlink:href="#font_2_3" transform="matrix(9.9626,0,0,-9.9626,71.41192,9.652334)"/>
</svg>
