<?xml version="1.0" encoding="UTF-8" standalone="no"?>
<!DOCTYPE svg PUBLIC "-//W3C//DTD SVG 1.1//EN" "http://www.w3.org/Graphics/SVG/1.1/DTD/svg11.dtd">
<svg xmlns="http://www.w3.org/2000/svg" xmlns:xlink="http://www.w3.org/1999/xlink" version="1.1" width="160.724pt" height="54.314pt" viewBox="0 0 160.724 54.314">
<symbol id="font_0_1">
<path d="M .484 .30600003 C .484 .333 .484 .33400003 .463 .33400003 C .361 .33400003 .136 .286 0 .04200001 L 0 .026000008 C 0 .001000002 .0009999983 0 .024 0 C .043 0 .044 .001000002 .049000004 .008000001 C .13100001 .13900002 .269 .21000003 .472 .21400002 C .484 .21400002 .484 .22100002 .484 .24200002 L .484 .30600003 Z "/>
</symbol>
<use xlink:href="#font_0_1" transform="matrix(9.9626,0,0,-9.9626,41.8059,22.404995)"/>
<path transform="matrix(1,0,0,-1,46.528005,20.272999)" d="M 0 0 L 3.871 0 L 3.871 1.195 L 0 1.195 Z "/>
<symbol id="font_0_4">
<path d="M .48400004 .30800004 C .48400004 .333 .483 .33400003 .46 .33400003 C .441 .33400003 .44 .333 .435 .326 C .35300002 .19500001 .21500002 .124000009 .012000001 .120000008 C 0 .120000008 0 .113000009 0 .09200001 L 0 .028 C 0 .001 0 0 .021000002 0 C .123 0 .34800003 .048 .48400004 .29200004 L .48400004 .30800004 Z "/>
</symbol>
<symbol id="font_0_3">
<path d="M .484 .09200001 C .484 .115 .484 .120000008 .47 .120000008 C .409 .12100001 .31 .12900001 .22000002 .17300001 C .112 .22700002 .071 .29000003 .046000005 .32900004 C .043 .33400003 .037 .33400003 .024 .33400003 C .0009999983 .33400003 0 .333 0 .30800004 L 0 .29200004 C .136 .047000003 .361 0 .463 0 C .484 0 .484 .001 .484 .028 L .484 .09200001 Z "/>
</symbol>
<use xlink:href="#font_0_4" transform="matrix(9.9626,0,0,-9.9626,50.299379,20.272999)"/>
<use xlink:href="#font_0_3" transform="matrix(9.9626,0,0,-9.9626,54.64307,20.272999)"/>
<path transform="matrix(1,0,0,-1,59.366006,20.272999)" d="M 0 0 L 3.871 0 L 3.871 1.195 L 0 1.195 Z "/>
<symbol id="font_0_2">
<path d="M .48400004 .04200001 C .34800003 .28700004 .123 .33400003 .021000002 .33400003 C 0 .33400003 0 .333 0 .30600003 L 0 .24200002 C 0 .21900001 0 .21400002 .014 .21400002 C .075 .21300002 .17400001 .20500002 .264 .16100002 C .372 .10700001 .41300003 .044000016 .43800003 .00500001 C .441 0 .447 0 .46 0 C .483 0 .48400004 .001000002 .48400004 .026000008 L .48400004 .04200001 Z "/>
</symbol>
<use xlink:href="#font_0_2" transform="matrix(9.9626,0,0,-9.9626,63.13638,22.404995)"/>
<symbol id="font_1_5">
<path d="M .17500001 .20500002 C .197 .20100002 .279 .18500002 .279 .113000009 C .279 .062000004 .24400002 .022000002 .16600001 .022000002 C .082 .022000002 .046000005 .079 .027000003 .16400002 C .024000004 .17700002 .023000002 .18100001 .013000004 .18100001 C 0 .18100001 0 .17400001 0 .15600002 L 0 .024 C 0 .0070000009 0 0 .011000004 0 C .016000003 0 .017 .0010000002 .036000007 .020000002 C .038000004 .022000002 .038000004 .024 .056 .043 C .1 .0010000002 .14500001 0 .16600001 0 C .28100003 0 .32700003 .067 .32700003 .13900002 C .32700003 .19200002 .29700003 .22200002 .28500004 .23400001 C .25200004 .26600004 .213 .27400003 .171 .28200004 C .115 .293 .048 .30600003 .048 .36400003 C .048 .39900003 .07400001 .44000004 .16 .44000004 C .27 .44000004 .27500005 .35000003 .277 .31900005 C .27800004 .31000004 .28700004 .31000004 .28900004 .31000004 C .30200003 .31000004 .30200003 .31500004 .30200003 .33400003 L .30200003 .43500004 C .30200003 .45200003 .30200003 .45900003 .291 .45900003 C .286 .45900003 .284 .45900003 .27100004 .44700004 C .26800005 .44300003 .25800003 .43400003 .254 .43100003 C .21600002 .45900003 .17500001 .45900003 .16 .45900003 C .038000004 .45900003 0 .39200003 0 .33600004 C 0 .30100004 .016000003 .27300004 .043000007 .25100003 C .075 .22500003 .10300001 .21900001 .17500001 .20500002 Z "/>
</symbol>
<symbol id="font_1_3">
<path d="M .144 .44200004 L .0040000008 .43100003 L .0040000008 .4 C .069000009 .4 .07800001 .39400003 .07800001 .34500004 L .07800001 .076000008 C .07800001 .031000002 .067 .031000002 0 .031000002 L 0 0 C .032000007 .001 .086 .003 .11000001 .003 C .14500001 .003 .18 .001 .21400002 0 L .21400002 .031000002 C .148 .031000002 .144 .036000004 .144 .075 L .144 .44200004 M .148 .61600008 C .148 .648 .123 .669 .095000009 .669 C .064 .669 .042000005 .642 .042000005 .61600008 C .042000005 .58900007 .064 .563 .095000009 .563 C .123 .563 .148 .58400008 .148 .61600008 Z "/>
</symbol>
<symbol id="font_1_4">
<path d="M .07800001 .344 L .07800001 .076000008 C .07800001 .031000002 .067 .031000002 0 .031000002 L 0 0 C .035 .001 .08600001 .003 .113000009 .003 C .139 .003 .191 .001 .225 0 L .225 .031000002 C .158 .031000002 .147 .031000002 .147 .076000008 L .147 .26000003 C .147 .36400003 .218 .42000003 .282 .42000003 C .345 .42000003 .356 .36600004 .356 .30900003 L .356 .076000008 C .356 .031000002 .345 .031000002 .278 .031000002 L .278 0 C .31300003 .001 .36400003 .003 .391 .003 C .41700004 .003 .46900005 .001 .503 0 L .503 .031000002 C .451 .031000002 .42600004 .031000002 .425 .061000006 L .425 .252 C .425 .33800004 .425 .36900003 .39400003 .40500004 C .38000003 .42200003 .347 .44200004 .289 .44200004 C .216 .44200004 .169 .39900003 .141 .337 L .141 .44200004 L 0 .43100003 L 0 .4 C .07000001 .4 .07800001 .393 .07800001 .344 Z "/>
</symbol>
<symbol id="font_1_1">
<path d="M .23200003 .00999999 C .23200003 .012999982 .23200003 .014999986 .215 .03199999 C .09 .15799999 .058 .347 .058 .5 C .058 .674 .096 .84800007 .21900001 .97300007 C .23200003 .985 .23200003 .98700007 .23200003 .99 C .23200003 .99700006 .22800002 1 .222 1 C .21200001 1 .12200001 .93200007 .06299999 .805 C .012000002 .69500008 0 .584 0 .5 C 0 .422 .011 .301 .066 .188 C .126 .065 .21200001 0 .222 0 C .22800002 0 .23200003 .0029999912 .23200003 .00999999 Z "/>
</symbol>
<use xlink:href="#font_1_5" transform="matrix(9.9626,0,0,-9.9626,42.373769,30.843588)"/>
<use xlink:href="#font_1_3" transform="matrix(9.9626,0,0,-9.9626,46.299036,30.734)"/>
<use xlink:href="#font_1_4" transform="matrix(9.9626,0,0,-9.9626,49.058675,30.734)"/>
<use xlink:href="#font_1_1" transform="matrix(9.9626,0,0,-9.9626,55.265378,33.224649)"/>
<symbol id="font_2_2">
<path d="M .305 .31300003 C .311 .33900003 .334 .43100003 .404 .43100003 C .409 .43100003 .433 .43100003 .454 .418 C .426 .41300003 .40600003 .388 .40600003 .36400003 C .40600003 .34800003 .417 .32900004 .444 .32900004 C .46600003 .32900004 .498 .34700004 .498 .38700003 C .498 .43900005 .439 .45300005 .405 .45300005 C .347 .45300005 .312 .40000005 .3 .37700004 C .275 .44300003 .221 .45300005 .19200002 .45300005 C .08800001 .45300005 .031000002 .32400004 .031000002 .29900003 C .031000002 .28900004 .041 .28900004 .043000007 .28900004 C .051000008 .28900004 .054000006 .291 .056 .3 C .09 .40600003 .156 .43100003 .19000001 .43100003 C .209 .43100003 .244 .42200003 .244 .36400003 C .244 .33300004 .22700002 .26600004 .19000001 .126 C .17400001 .064 .13900002 .022000002 .095000009 .022000002 C .08900001 .022000002 .06600001 .022000002 .045 .035 C .07000001 .040000004 .09200001 .061 .09200001 .089 C .09200001 .116000007 .07000001 .124000009 .055000009 .124000009 C .025 .124000009 0 .098000008 0 .06600001 C 0 .020000002 .050000006 0 .094000007 0 C .16000001 0 .19600001 .07000001 .19900002 .076000008 C .21100001 .039 .24700003 0 .307 0 C .41 0 .467 .12900001 .467 .15400002 C .467 .16400002 .458 .16400002 .455 .16400002 C .446 .16400002 .444 .16000001 .442 .15300001 C .409 .046 .341 .022000002 .30900003 .022000002 C .27 .022000002 .254 .054 .254 .08800001 C .254 .11000001 .26 .13200002 .271 .17600002 L .305 .31300003 Z "/>
</symbol>
<use xlink:href="#font_2_2" transform="matrix(9.9626,0,0,-9.9626,58.43992,30.843588)"/>
<symbol id="font_1_2">
<path d="M .232 .5 C .232 .578 .22100002 .699 .16600001 .81200006 C .106 .93500009 .020000004 1 .009999998 1 C .0040000008 1 0 .99600008 0 .99 C 0 .98700007 0 .985 .019000002 .967 C .117000009 .86800006 .174 .709 .174 .5 C .174 .329 .137 .153 .012999997 .026999996 C 0 .014999986 0 .012999982 0 .00999999 C 0 .003999993 .0040000008 0 .009999998 0 C .020000004 0 .11000001 .06799999 .169 .195 C .22 .305 .232 .416 .232 .5 Z "/>
</symbol>
<use xlink:href="#font_1_2" transform="matrix(9.9626,0,0,-9.9626,64.41287,33.224649)"/>
<symbol id="font_3_1">
<path d="M .106 .05299999 C .106 .082 .08200001 .10599999 .05300001 .10599999 C .024000004 .10599999 0 .082 0 .05299999 C 0 .024000004 .024000004 0 .05300001 0 C .08200001 0 .106 .024000004 .106 .05299999 Z "/>
</symbol>
<use xlink:href="#font_3_1" transform="matrix(9.9626,0,0,-9.9626,70.236789,28.771367)"/>
<symbol id="font_2_1">
<path d="M .141 .24200002 C .17 .24200002 .24400002 .24400002 .294 .26500003 C .36400003 .29500003 .36900003 .35400004 .36900003 .36800004 C .36900003 .41200004 .331 .45300005 .26200003 .45300005 C .15100001 .45300005 0 .35600005 0 .18100001 C 0 .079 .059 0 .157 0 C .3 0 .384 .106000009 .384 .11800001 C .384 .124000009 .37800003 .13100001 .372 .13100001 C .367 .13100001 .365 .12900001 .35900004 .12100001 C .28 .022000002 .171 .022000002 .15900001 .022000002 C .081 .022000002 .072000008 .106000009 .072000008 .13800001 C .072000008 .15000002 .073 .18100001 .088 .24200002 L .141 .24200002 M .094 .26400004 C .133 .41600005 .236 .43100003 .26200003 .43100003 C .30900003 .43100003 .33600004 .40200005 .33600004 .36800004 C .33600004 .26400004 .17600002 .26400004 .135 .26400004 L .094 .26400004 Z "/>
</symbol>
<use xlink:href="#font_2_1" transform="matrix(9.9626,0,0,-9.9626,74.2663,30.843588)"/>
<symbol id="font_4_1">
<path d="M .34300003 .409 C .32500003 .40100003 .31500004 .38500003 .31500004 .365 C .31500004 .338 .33400003 .31800003 .36200003 .31800003 C .38900004 .31800003 .41000004 .335 .41000004 .367 C .41000004 .456 .271 .456 .243 .456 C .09300001 .456 0 .34100003 0 .22600001 C 0 .1 .10700001 0 .238 0 C .38700003 0 .42200003 .118 .42200003 .13000001 C .42200003 .142 .409 .142 .40500004 .142 C .39200003 .142 .391 .13900002 .386 .125 C .36400003 .063 .31100003 .032 .25 .032 C .18100001 .032 .091000009 .083000008 .091000009 .22700002 C .091000009 .354 .15300001 .42400003 .24600002 .42400003 C .259 .42400003 .307 .42400003 .34300003 .409 Z "/>
</symbol>
<symbol id="font_4_2">
<path d="M .49000005 .22300002 C .49000005 .34800003 .38300003 .456 .245 .456 C .10700001 .456 0 .34800003 0 .22300002 C 0 .099 .11 0 .245 0 C .38000003 0 .49000005 .099 .49000005 .22300002 M .245 .032 C .208 .032 .154 .044000005 .12100001 .093 C .094 .134 .091000009 .18600002 .091000009 .23200003 C .091000009 .275 .09200001 .334 .127 .377 C .15200001 .40600003 .194 .428 .245 .428 C .30400003 .428 .34600003 .4 .368 .36900003 C .39600004 .33 .39900003 .28 .39900003 .23200003 C .39900003 .18400002 .39600004 .13100001 .367 .09 C .34 .052000006 .294 .032 .245 .032 Z "/>
</symbol>
<symbol id="font_4_3">
<path d="M .334 .43 C .334 .447 .334 .456 .32 .456 C .315 .456 .31300003 .456 .3 .444 C .29800005 .44300003 .288 .43400003 .282 .42900003 C .25200004 .45000003 .214 .456 .17700002 .456 C .034 .456 0 .381 0 .331 C 0 .299 .014000002 .273 .038000004 .25300003 C .076000008 .22000002 .11400001 .21300002 .17600002 .20300001 C .22600003 .19400002 .30700005 .18 .30700005 .113000009 C .30700005 .074 .28000004 .028 .18400002 .028 C .088 .028 .053000004 .091 .035000005 .15900001 C .032000007 .172 .031000004 .17600002 .017 .17600002 C 0 .17600002 0 .16900002 0 .14900002 L 0 .026 C 0 .009000001 0 0 .014000002 0 C .023000002 0 .042000005 .021000002 .062000008 .043 C .106000009 .0020000004 .16000001 0 .18400002 0 C .314 0 .362 .07 .362 .14100002 C .362 .17900002 .34500004 .20900002 .319 .23300001 C .28100003 .268 .235 .276 .2 .282 C .120000008 .296 .055 .308 .055 .361 C .055 .393 .082 .432 .17700002 .432 C .29300005 .432 .29800005 .351 .3 .322 C .301 .31100003 .31300003 .31100003 .31700004 .31100003 C .334 .31100003 .334 .31800003 .334 .337 L .334 .43 Z "/>
</symbol>
<use xlink:href="#font_4_1" transform="matrix(6.9738,0,0,-6.9738,78.7678,26.289738)"/>
<use xlink:href="#font_4_2" transform="matrix(6.9738,0,0,-6.9738,82.26168,26.289738)"/>
<use xlink:href="#font_4_3" transform="matrix(6.9738,0,0,-6.9738,86.27859,26.289738)"/>
<use xlink:href="#font_1_1" transform="matrix(9.9626,0,0,-9.9626,90.10231,29.45765)"/>
<symbol id="font_5_1">
<path d="M .25500003 .63600006 C .25500003 .666 .252 .666 .21900001 .666 C .148 .60200008 .037 .60200008 .017000005 .60200008 L 0 .60200008 L 0 .558 L .017000005 .558 C .040000008 .558 .105000007 .56100007 .16300002 .586 L .16300002 .086 C .16300002 .055000005 .16300002 .044000005 .056999998 .044000005 L .0069999995 .044000005 L .0069999995 0 C .062000008 .004 .151 .004 .20900002 .004 C .26700003 .004 .356 .004 .411 0 L .411 .044000005 L .361 .044000005 C .25500003 .044000005 .25500003 .055000005 .25500003 .086 L .25500003 .63600006 Z "/>
</symbol>
<use xlink:href="#font_5_1" transform="matrix(4.9813,0,0,-4.9813,97.11934,23.543)"/>
<path transform="matrix(1,0,0,-1,94.186008,24.476)" stroke-width="1" stroke-linecap="butt" stroke-miterlimit="10" stroke-linejoin="miter" fill="none" stroke="#000000" d="M 0 0 L 7.832 0 "/>
<symbol id="font_6_1">
<path d="M .52800008 .40300004 C .48200006 .38900004 .48200006 .34500004 .48200006 .344 C .48200006 .32700003 .49400003 .30300004 .527 .30300004 C .555 .30300004 .58900007 .32700003 .58900007 .37100003 C .58900007 .43000005 .52300009 .45300005 .47000004 .45300005 C .40500004 .45300005 .36300005 .411 .34300003 .38500003 C .31000004 .44200004 .24600002 .45300005 .21000001 .45300005 C .085 .45300005 .014000006 .335 .014000006 .298 C .014000006 .284 .030000002 .284 .035000005 .284 C .044000009 .284 .05200001 .28500004 .056 .29600004 C .086 .39400003 .16800002 .41900004 .20600003 .41900004 C .23900002 .41900004 .277 .40500004 .277 .35200004 C .277 .32700003 .25900004 .25800003 .22500003 .12500002 C .21000001 .068 .164 .034 .121000017 .034 C .114000018 .034 .085 .034 .06100001 .05 C .10600001 .06600001 .10600001 .104 .10600001 .108 C .10600001 .13700001 .084 .15000002 .062 .15000002 C .037000009 .15000002 0 .13000001 0 .082 C 0 .021000002 .06800001 0 .11900001 0 C .17400003 0 .21900001 .032 .24300003 .068 C .28300003 .008000001 .34700004 0 .37800003 0 C .504 0 .57500007 .119 .57500007 .15500002 C .57500007 .16900002 .558 .16900002 .554 .16900002 C .53700008 .16900002 .535 .16300002 .532 .15400002 C .503 .064 .42600007 .034 .38200004 .034 C .35200004 .034 .31100003 .045 .31100003 .101 C .31100003 .113000009 .31100003 .120000008 .31900005 .15400002 C .33600004 .22400002 .36300005 .335 .37100003 .35300002 C .38400004 .37900005 .41700007 .41900004 .46800006 .41900004 C .47100003 .41900004 .50500008 .41900004 .52800008 .40300004 Z "/>
</symbol>
<use xlink:href="#font_6_1" transform="matrix(4.9813,0,0,-4.9813,94.64927,29.715794)"/>
<symbol id="font_5_2">
<path d="M .25 .35300005 C .342 .35300005 .403 .29600004 .403 .19700001 C .403 .095000009 .34 .041 .25100003 .041 C .24000001 .041 .121 .041 .07 .093 C .11100001 .09900001 .123 .13000001 .123 .154 C .123 .19100002 .095000009 .215 .062 .215 C .030000002 .215 0 .194 0 .15200001 C 0 .048 .11800001 0 .254 0 C .418 0 .52000007 .09900001 .52000007 .19600001 C .52000007 .27800004 .447 .34800003 .333 .37400005 C .45300005 .41300006 .48499999 .48900003 .48499999 .545 C .48499999 .62700006 .38300003 .688 .257 .688 C .134 .688 .034999998 .63600006 .034999998 .54600009 C .034999998 .49900005 .07300001 .48700006 .092 .48700006 C .121 .48700006 .14900002 .508 .14900002 .544 C .14900002 .56700006 .137 .595 .101 .6010001 C .144 .647 .23300001 .65000006 .254 .65000006 C .327 .65000006 .379 .61300006 .379 .545 C .379 .48700006 .34100003 .39600004 .236 .39000006 C .208 .38900004 .204 .38800005 .178 .38700003 C .167 .38600005 .15600002 .38500003 .15600002 .37000004 C .15600002 .35300005 .16600001 .35300005 .18399999 .35300005 L .25 .35300005 Z "/>
</symbol>
<use xlink:href="#font_5_2" transform="matrix(4.9813,0,0,-4.9813,98.52851,28.304589)"/>
<use xlink:href="#font_1_2" transform="matrix(9.9626,0,0,-9.9626,103.781879,29.45765)"/>
<use xlink:href="#font_0_3" transform="matrix(9.9626,0,0,-9.9626,73.56889,34.918)"/>
<path transform="matrix(1,0,0,-1,78.291,34.918)" d="M 0 0 L 7.923 0 L 7.923 1.195 L 0 1.195 Z "/>
<use xlink:href="#font_0_2" transform="matrix(9.9626,0,0,-9.9626,86.11438,37.049997)"/>
<use xlink:href="#font_0_1" transform="matrix(9.9626,0,0,-9.9626,90.45807,37.049997)"/>
<path transform="matrix(1,0,0,-1,95.18001,34.918)" d="M 0 0 L 7.923 0 L 7.923 1.195 L 0 1.195 Z "/>
<use xlink:href="#font_0_4" transform="matrix(9.9626,0,0,-9.9626,103.00337,34.918)"/>
<symbol id="font_7_5">
<path d="M .43800003 .579 C .44200004 .59300008 .44200004 .595 .44200004 .59900006 C .44200004 .61600008 .42900003 .62700006 .41300003 .62700006 C .39300005 .62700006 .37700004 .612 .37200005 .59300008 C .36 .61600008 .33400003 .6470001 .286 .6470001 C .178 .6470001 .056 .50900009 .056 .36 C .056 .25300003 .121 .20500002 .18100003 .20500002 C .22100002 .20500002 .25800003 .22700002 .28800003 .25500003 L .26700003 .171 C .25500003 .12200001 .25000004 .102000009 .21800003 .068 C .19 .036 .15900001 .025000006 .124000009 .025000006 C .093 .025000006 .067 .030000002 .054000006 .03400001 C .057000005 .03500001 .08200001 .04900001 .08200001 .07800001 C .08200001 .09900001 .067 .11000001 .048 .11000001 C .030000002 .11000001 0 .09600001 0 .058000015 C 0 .016000003 .042000005 0 .123 0 C .23700002 0 .31100003 .07100001 .328 .13900002 L .43800003 .579 M .30900003 .338 C .3 .30400003 .238 .23000002 .18400002 .23000002 C .12900001 .23000002 .12600002 .30300004 .12600002 .31800003 C .12600002 .365 .155 .47600005 .17200002 .515 C .20200002 .58300009 .24900002 .62200006 .286 .62200006 C .34900005 .62200006 .35700003 .53700008 .35700003 .533 C .35700003 .53000006 .35600005 .52700009 .35400004 .51900008 L .30900003 .338 Z "/>
</symbol>
<symbol id="font_7_7">
<path d="M .41000004 .286 C .41000004 .381 .35000003 .45300005 .25800003 .45300005 C .13100001 .45300005 0 .31200005 0 .16600001 C 0 .07300001 .058000007 0 .15200001 0 C .282 0 .41000004 .14500001 .41000004 .286 M .15200001 .025000003 C .117000009 .025000003 .07300001 .049000004 .07300001 .13000001 C .07300001 .16900002 .093 .27400003 .132 .33900003 C .16500002 .39600004 .21600002 .42800004 .25800003 .42800004 C .30200003 .42800004 .337 .39200003 .337 .32400004 C .337 .28900004 .31800003 .17500001 .273 .106000009 C .24100003 .057000005 .194 .025000003 .15200001 .025000003 Z "/>
</symbol>
<symbol id="font_7_4">
<path d="M .116000007 .24000003 C .19100002 .24000003 .24300003 .24800003 .279 .26200003 C .34900005 .29000003 .35800005 .34600003 .35800005 .367 C .35800005 .41200004 .32000003 .45300005 .25200004 .45300005 C .15 .45300005 0 .35900004 0 .17800002 C 0 .06600001 .063 0 .148 0 C .24000001 0 .32800005 .05 .36600004 .112 C .36200003 .12500002 .35300002 .13100001 .34700004 .13100001 C .34200005 .13100001 .34000004 .12900001 .33300004 .120000008 C .27600003 .047000003 .19500003 .025000003 .14900002 .025000003 C .08100001 .025000003 .071 .101 .071 .136 C .071 .14400001 .071 .17600002 .087000008 .24000003 L .116000007 .24000003 M .093 .26500003 C .13900003 .42500005 .238 .42800004 .25200004 .42800004 C .29600004 .42800004 .31700004 .39800004 .31700004 .36800004 C .31700004 .26500003 .15800002 .26500003 .093 .26500003 Z "/>
</symbol>
<symbol id="font_7_9">
<path d="M .316 .381 C .279 .374 .279 .34300003 .279 .34100003 C .279 .33200003 .28500004 .31300003 .30900003 .31300003 C .331 .31300003 .35200004 .33 .35200004 .367 C .35200004 .41200004 .312 .45300005 .24000001 .45300005 C .12300001 .45300005 .078999999 .36 .078999999 .305 C .078999999 .22700002 .14600002 .21300002 .176 .20600002 C .22300002 .19600001 .268 .18600002 .268 .134 C .268 .105000007 .24400002 .025000003 .135 .025000003 C .109 .025000003 .053000004 .032 .037 .079 C .08400001 .08400001 .08400001 .12500002 .08400001 .126 C .08400001 .15300001 .061000006 .15900001 .049999998 .15900001 C .044 .15900001 0 .15600002 0 .097 C 0 .041 .053000004 0 .135 0 C .28800003 0 .32700003 .12200001 .32700003 .16700001 C .32700003 .19500003 .317 .22100002 .29700003 .24200002 C .271 .268 .248 .27300004 .20300001 .28200004 C .17300001 .28900004 .13700001 .29600004 .13700001 .33900003 C .13700001 .35700003 .15300001 .42800004 .24000001 .42800004 C .27 .42800004 .30600003 .41600005 .316 .381 Z "/>
</symbol>
<symbol id="font_7_a">
<path d="M .17400001 .411 L .26 .411 C .277 .411 .288 .411 .288 .42900003 C .288 .44200004 .278 .44200004 .26200003 .44200004 L .182 .44200004 L .219 .589 C .223 .603 .223 .605 .223 .609 C .223 .626 .21000003 .637 .19400002 .637 C .16700001 .637 .156 .615 .15200001 .598 L .113000009 .44200004 L .027999998 .44200004 C .011 .44200004 0 .44200004 0 .42400003 C 0 .411 .009999998 .411 .026 .411 L .105000007 .411 L .033999996 .12500002 C .033999996 .124000009 .029 .106000009 .029 .091000009 C .029 .046 .060000004 0 .119 0 C .22000002 0 .27500005 .14500001 .27500005 .15500002 C .27500005 .16600001 .26200003 .16600001 .259 .16600001 C .246 .16600001 .24500002 .16300002 .23900001 .14900002 C .21100001 .079 .16900002 .025000003 .12100001 .025000003 C .11 .025000003 .09300001 .027000003 .09300001 .06600001 C .09300001 .075 .096 .097 .100999999 .117000009 L .17400001 .411 Z "/>
</symbol>
<symbol id="font_7_d">
<path d="M .09900001 .098000008 C .12100001 .12500002 .146 .15000002 .171 .17400001 L .268 .26400004 C .39400003 .38700003 .41200004 .43900005 .41200004 .44200004 C .41200004 .45300005 .4 .45300005 .39600004 .45300005 C .38500003 .45300005 .384 .45200003 .372 .43400003 C .34800003 .39300005 .333 .37900005 .314 .37900005 C .294 .37900005 .279 .397 .264 .41600005 C .25 .43400003 .23300001 .45300005 .20199999 .45300005 C .124 .45300005 .081 .35700003 .081 .337 C .081 .32500003 .092999998 .32500003 .097 .32500003 C .111 .32500003 .112 .32900004 .114999998 .33800004 C .12900001 .374 .17 .38500003 .192 .38500003 C .213 .38500003 .23300001 .37700004 .24900002 .37000004 C .28 .358 .291 .35600005 .312 .35400004 C .287 .32400004 .27 .30800004 .20500002 .24700003 C .114999998 .16200002 .11400001 .16100002 .081 .12500002 C .047000003 .08800001 0 .023000002 0 .011000001 C 0 0 .010000002 0 .015999999 0 C .028 0 .029000003 .0010000002 .035 .012000001 C .049000008 .036000004 .078999999 .074 .11400001 .074 C .135 .074 .148 .058000003 .16600001 .036000004 C .183 .014 .199 0 .22800002 0 C .326 0 .384 .12900001 .384 .15500002 C .384 .16700001 .372 .16700001 .367 .16700001 C .354 .16700001 .35300002 .16400002 .347 .14700002 C .331 .10300001 .28300003 .068 .238 .068 C .22 .068 .204 .07300001 .185 .081 C .163 .09 .14 .09900001 .114999998 .09900001 C .105000007 .09900001 .103 .09900001 .09900001 .098000008 Z "/>
</symbol>
<symbol id="font_7_8">
<path d="M .18200001 .298 C .18400002 .305 .22800002 .42800004 .31500004 .42800004 C .321 .42800004 .349 .42800004 .37000004 .41300003 C .34000004 .40300004 .335 .37900005 .335 .367 C .335 .34700004 .35000003 .335 .36900003 .335 C .395 .335 .418 .35700003 .418 .388 C .418 .43000005 .37100003 .45300005 .31700004 .45300005 C .25700004 .45300005 .21700001 .41700004 .19300002 .38300003 C .18200001 .42800004 .14700002 .45300005 .106000009 .45300005 C .073000017 .45300005 .048000009 .43300004 .030000009 .395 C .014000006 .36 0 .30400003 0 .3 C 0 .28700004 .011000007 .28700004 .017000005 .28700004 C .032000007 .28700004 .032000007 .291 .037000009 .31100003 C .05700001 .39100004 .076000008 .42800004 .104 .42800004 C .120000008 .42800004 .13000001 .41900004 .13000001 .388 C .13000001 .367 .12400001 .34100003 .12300001 .337 L .051 .049000004 C .047000007 .035 .047000007 .033000005 .047000007 .028 C .047000007 .010000001 .061000006 0 .076000008 0 C .09 0 .10900001 .0060000007 .11700001 .037 L .18200001 .298 Z "/>
</symbol>
<symbol id="font_7_1">
<path d="M .38500003 .38500003 C .389 .39900003 .389 .40100003 .389 .40500004 C .389 .42200003 .37600003 .43300004 .36 .43300004 C .347 .43300004 .32500003 .42500005 .319 .397 C .30900003 .41700004 .283 .45300005 .23300001 .45300005 C .121 .45300005 0 .30800004 0 .15700002 C 0 .055000005 .059000009 0 .125 0 C .185 0 .229 .048 .248 .069000009 C .259 .025000003 .294 0 .335 0 C .381 0 .402 .040000004 .41000004 .057000005 C .42800004 .094000007 .44099999 .15100001 .44099999 .15400002 C .44099999 .16600001 .42800004 .16600001 .42400003 .16600001 C .40900005 .16600001 .408 .16200002 .40399999 .143 C .387 .077 .36900003 .025000003 .336 .025000003 C .317 .025000003 .31 .041 .31 .06600001 C .31 .075 .313 .097 .31800003 .117000009 L .38500003 .38500003 M .254 .136 C .245 .102000009 .18200001 .025000003 .12799999 .025000003 C .07300001 .025000003 .07 .09900001 .07 .11400001 C .07 .16500002 .1 .275 .115 .31300003 C .141 .37600003 .18900001 .42800004 .23300001 .42800004 C .294 .42800004 .303 .344 .303 .337 C .303 .33200003 .303 .33100004 .3 .321 L .254 .136 Z "/>
</symbol>
<use xlink:href="#font_7_5" transform="matrix(8.9664,0,0,-8.9664,3.8961232,11.011108)"/>
<use xlink:href="#font_7_7" transform="matrix(8.9664,0,0,-8.9664,8.621416,9.271626)"/>
<use xlink:href="#font_7_4" transform="matrix(8.9664,0,0,-8.9664,12.907356,9.271626)"/>
<use xlink:href="#font_7_9" transform="matrix(8.9664,0,0,-8.9664,16.780842,9.271626)"/>
<use xlink:href="#font_7_a" transform="matrix(8.9664,0,0,-8.9664,23.971896,9.271626)"/>
<use xlink:href="#font_7_7" transform="matrix(8.9664,0,0,-8.9664,27.208764,9.271626)"/>
<use xlink:href="#font_7_d" transform="matrix(8.9664,0,0,-8.9664,34.767438,9.271626)"/>
<use xlink:href="#font_7_4" transform="matrix(8.9664,0,0,-8.9664,39.017515,9.271626)"/>
<use xlink:href="#font_7_8" transform="matrix(8.9664,0,0,-8.9664,42.93583,9.271626)"/>
<use xlink:href="#font_7_7" transform="matrix(8.9664,0,0,-8.9664,46.621019,9.271626)"/>
<use xlink:href="#font_7_1" transform="matrix(8.9664,0,0,-8.9664,54.61008,9.271626)"/>
<use xlink:href="#font_7_9" transform="matrix(8.9664,0,0,-8.9664,59.01258,9.271626)"/>
<symbol id="font_8_2">
<path d="M .462 .41500003 C .425 .40800003 .41400004 .37600003 .41400004 .36100004 C .41400004 .34200005 .42800004 .32500003 .453 .32500003 C .48100005 .32500003 .508 .34900005 .508 .38400004 C .508 .43000005 .45800004 .45300005 .411 .45300005 C .351 .45300005 .316 .40000005 .30400003 .37900005 C .28500004 .42800004 .24100003 .45300005 .193 .45300005 C .086 .45300005 .028 .32500003 .028 .29900003 C .028 .29000003 .035000005 .28700004 .042000005 .28700004 C .051 .28700004 .054000006 .29200004 .056 .298 C .087000008 .397 .15300001 .42800004 .19100002 .42800004 C .22 .42800004 .24600002 .40900005 .24600002 .36200003 C .24600002 .32600004 .20300001 .16600001 .19000001 .11800001 C .18200001 .087000008 .15200001 .025000003 .097 .025000003 C .07700001 .025000003 .056 .032 .046000005 .038000004 C .07300001 .043 .093 .06600001 .093 .092 C .093 .117000009 .074 .128 .055 .128 C .026 .128 0 .10300001 0 .069000009 C 0 .020000002 .054000006 0 .096 0 C .15400002 0 .18800001 .048 .20300001 .075 C .22800002 .009000001 .287 0 .314 0 C .42200003 0 .479 .13000001 .479 .15400002 C .479 .15900001 .47600005 .16600001 .46600003 .16600001 C .455 .16600001 .45400004 .16200002 .44900004 .14700002 C .42700003 .075 .36900003 .025000003 .317 .025000003 C .28800003 .025000003 .261 .043 .261 .091000009 C .261 .113000009 .275 .16800002 .284 .20600002 C .28800003 .22400002 .31500004 .33200003 .317 .33900003 C .32900004 .37500004 .35900004 .42800004 .41000004 .42800004 C .42800004 .42800004 .44700004 .42500005 .462 .41500003 Z "/>
</symbol>
<use xlink:href="#font_8_2" transform="matrix(8.9664,0,0,-8.9664,65.646999,9.271626)"/>
<symbol id="font_9_1">
<path d="M .794 .24100001 C .6750001 .156 .651 .025 .651 .014 C .651 0 .66400006 0 .67200008 0 C .6840001 0 .69100007 0 .69400009 .013 C .7210001 .131 .7900001 .209 .89900007 .24900002 C .9050001 .25100003 .91300007 .254 .91300007 .262 C .91300007 .271 .9060001 .27400003 .90000006 .276 C .77400007 .323 .71700009 .412 .69400009 .51000007 C .69100007 .52400007 .68700006 .52500006 .67200008 .52500006 C .66300007 .52500006 .651 .52500006 .651 .51100006 C .651 .50000008 .6750001 .368 .794 .284 L .037 .284 C .020000004 .284 0 .284 0 .263 C 0 .24100001 .019000002 .24100001 .037 .24100001 L .794 .24100001 Z "/>
</symbol>
<use xlink:href="#font_9_1" transform="matrix(8.9664,0,0,-8.9664,73.67209,9.280593)"/>
<symbol id="font_a_1">
<path d="M .43300004 .34200005 C .43300004 .40900005 .43000005 .49500004 .39500005 .57000008 C .35100005 .66400006 .27500005 .688 .217 .688 C .157 .688 .081 .66400006 .037000006 .568 C .004999999 .49900005 0 .41800005 0 .34200005 C 0 .27700005 .0020000004 .18 .044999999 .101 C .09199999 .016000003 .17 0 .216 0 C .28100003 0 .35500003 .028 .397 .120000008 C .42700003 .187 .43300004 .26200003 .43300004 .34200005 M .217 .025000003 C .187 .025000003 .114999998 .039000006 .096 .15200001 C .085999999 .21100001 .085999999 .29700003 .085999999 .35400004 C .085999999 .42200003 .085999999 .50100007 .098000008 .55600008 C .118 .64500007 .18200001 .66300007 .216 .66300007 C .254 .66300007 .31700004 .64300009 .33600004 .55 C .34700004 .49500004 .34700004 .41700004 .34700004 .35400004 C .34700004 .29200004 .34700004 .208 .337 .149 C .316 .035000005 .242 .025000003 .217 .025000003 Z "/>
</symbol>
<use xlink:href="#font_a_1" transform="matrix(8.9664,0,0,-8.9664,85.29466,9.370257)"/>
<symbol id="font_7_2">
<path d="M .19 .67300006 C .19300002 .68700006 .194 .688 .194 .691 C .194 .704 .185 .70600005 .16800002 .704 L .064 .695 C .049000004 .694 .039000013 .693 .039000013 .676 C .039000013 .663 .049000004 .663 .06600001 .663 C .11300001 .663 .11300001 .65500006 .11300001 .646 C .11300001 .639 .11100001 .631 .109000008 .624 L .009000003 .22500003 C .003000006 .20100002 0 .17100002 0 .15500002 C 0 .071 .044000009 0 .121000017 0 C .23500002 0 .354 .14900002 .354 .29600004 C .354 .39300005 .29900003 .45300005 .229 .45300005 C .176 .45300005 .13100001 .41000004 .123 .40300004 L .19 .67300006 M .121000017 .025000003 C .07400001 .025000003 .06100001 .082 .06100001 .120000008 C .06100001 .158 .071 .19500003 .09000001 .275 C .095000009 .29500003 .10500001 .33100004 .107000019 .33400003 C .15200001 .40500004 .19600001 .42800004 .227 .42800004 C .284 .42800004 .284 .34500004 .284 .33900003 C .284 .28800003 .252 .17200002 .239 .14100002 C .204 .058000003 .155 .025000003 .121000017 .025000003 Z "/>
</symbol>
<symbol id="font_7_b">
<path d="M .442 .39300005 C .446 .40700004 .446 .40900005 .446 .41400004 C .446 .43200005 .432 .44200004 .41700004 .44200004 C .38500003 .44200004 .37700004 .411 .37500004 .40200005 L .30400003 .115 C .29700003 .08800001 .256 .025000003 .19600001 .025000003 C .14500001 .025000003 .14100002 .077 .14100002 .102000009 C .14100002 .15500002 .164 .22400002 .19800002 .31700004 C .20700002 .34000004 .21100003 .351 .21100003 .37100003 C .21100003 .42000003 .17700002 .45300005 .13200002 .45300005 C .037000009 .45300005 0 .30800004 0 .29900003 C 0 .28700004 .012000002 .28700004 .017000005 .28700004 C .031000004 .28700004 .032000007 .29200004 .036000007 .30400003 C .043000007 .33 .07000001 .42800004 .12900001 .42800004 C .13900002 .42800004 .15 .42600004 .15 .40000005 C .15 .37500004 .13900002 .34500004 .13200002 .32600004 C .08600001 .20300001 .076000008 .16200002 .076000008 .11800001 C .076000008 .020000002 .14700002 0 .19300002 0 C .23500002 0 .272 .019000002 .30600003 .060000004 C .321 .016 .35700003 0 .39000003 0 C .43600003 0 .45700006 .040000004 .465 .057000005 C .483 .094000007 .49600003 .15100001 .49600003 .15400002 C .49600003 .16600001 .483 .16600001 .479 .16600001 C .46400003 .16600001 .46300004 .16200002 .45900003 .143 C .442 .077 .424 .025000003 .39100004 .025000003 C .372 .025000003 .365 .041 .365 .06600001 C .365 .075 .36800004 .097 .37300004 .117000009 L .442 .39300005 Z "/>
</symbol>
<symbol id="font_7_6">
<path d="M .051 .049000004 C .047000007 .035 .047000007 .033000005 .047000007 .028 C .047000007 .010000001 .061000006 0 .076000008 0 C .10800001 0 .113000009 .020000002 .12600002 .075 C .13100001 .094000007 .14500001 .14700002 .14800002 .16100002 C .15600002 .19400002 .17400003 .26400004 .18 .291 C .18400002 .30400003 .21200001 .35600005 .236 .38000003 C .25100003 .395 .284 .42800004 .33800004 .42800004 C .37600003 .42800004 .38500003 .395 .38500003 .36300005 C .38500003 .305 .342 .18700002 .32500003 .14200002 C .31300003 .109000008 .31100003 .10300001 .31100003 .082 C .31100003 .028 .349 0 .39000003 0 C .48500005 0 .5220001 .14700002 .5220001 .15400002 C .5220001 .16600001 .50900009 .16600001 .505 .16600001 C .49100004 .16600001 .49000005 .16300002 .484 .14200002 C .474 .106000009 .446 .025000003 .39200003 .025000003 C .38400004 .025000003 .37100003 .026 .37100003 .053000004 C .37100003 .077 .38300003 .109000008 .39100004 .13100001 C .409 .17900002 .45000003 .29000003 .45000003 .34700004 C .45000003 .41400004 .41000004 .45300005 .34000004 .45300005 C .268 .45300005 .22000003 .40900005 .194 .37700004 C .185 .42700003 .14800002 .45300005 .106000009 .45300005 C .073000017 .45300005 .048000009 .43300004 .030000009 .395 C .014000006 .36 0 .30400003 0 .3 C 0 .28700004 .011000007 .28700004 .017000005 .28700004 C .032000007 .28700004 .032000007 .291 .037000009 .31100003 C .05700001 .39100004 .076000008 .42800004 .104 .42800004 C .120000008 .42800004 .13000001 .41900004 .13000001 .388 C .13000001 .367 .12400001 .34100003 .12300001 .337 L .051 .049000004 Z "/>
</symbol>
<symbol id="font_7_3">
<path d="M .45700003 .67300006 C .46000005 .686 .46100004 .688 .46100004 .691 C .46100004 .704 .45200003 .70600005 .435 .704 L .331 .695 C .316 .694 .306 .693 .306 .676 C .306 .663 .316 .663 .333 .663 C .38 .663 .38 .65500006 .38 .646 C .38 .64 .38 .638 .37600003 .624 L .319 .397 C .30900003 .41700004 .283 .45300005 .23300001 .45300005 C .121 .45300005 0 .30800004 0 .15700002 C 0 .055000005 .059000009 0 .125 0 C .185 0 .229 .048 .248 .069000009 C .259 .025000003 .294 0 .335 0 C .381 0 .402 .040000004 .41000004 .057000005 C .42800004 .094000007 .44099999 .15100001 .44099999 .15400002 C .44099999 .16600001 .42800004 .16600001 .42400003 .16600001 C .40900005 .16600001 .408 .16200002 .40399999 .143 C .387 .077 .36900003 .025000003 .336 .025000003 C .317 .025000003 .31 .041 .31 .06600001 C .31 .075 .313 .097 .31800003 .117000009 L .45700003 .67300006 M .254 .136 C .245 .102000009 .18200001 .025000003 .12799999 .025000003 C .07300001 .025000003 .07 .09900001 .07 .11400001 C .07 .16500002 .1 .275 .115 .31300003 C .141 .37600003 .18900001 .42800004 .23300001 .42800004 C .294 .42800004 .303 .344 .303 .337 C .303 .33200003 .303 .33100004 .3 .321 L .254 .136 Z "/>
</symbol>
<symbol id="font_7_c">
<path d="M .30800004 .18600002 C .307 .18100001 .3 .15300001 .3 .128 C .3 .108 .29200004 .08800001 .273 .061 C .256 .037 .23700002 .025000003 .215 .025000003 C .143 .025000003 .143 .095000009 .143 .112 C .143 .15700002 .158 .20800002 .19700003 .31500004 C .20700002 .34100003 .21100003 .351 .21100003 .37100003 C .21100003 .42000003 .17700002 .45300005 .13200002 .45300005 C .037000009 .45300005 0 .30800004 0 .29900003 C 0 .28700004 .012000002 .28700004 .017000005 .28700004 C .031000004 .28700004 .032000007 .29200004 .036000007 .30400003 C .043000007 .33 .07000001 .42800004 .12900001 .42800004 C .13900002 .42800004 .15 .42600004 .15 .40000005 C .15 .37500004 .13900002 .34500004 .13200002 .32600004 C .08700001 .20500002 .07700001 .16500002 .07700001 .12500002 C .07700001 .018000002 .164 0 .21200001 0 C .252 0 .28500004 .020000002 .31100003 .063 C .33800004 .008000001 .397 0 .428 0 C .505 0 .5450001 .068 .564 .11400001 C .595 .18600002 .6320001 .328 .6320001 .38400004 C .6320001 .44000004 .605 .45300005 .589 .45300005 C .5680001 .45300005 .541 .43200005 .541 .40700004 C .541 .397 .543 .39200003 .551 .38300003 C .56200006 .37000004 .5810001 .34800003 .5810001 .30100004 C .5810001 .26200003 .548 .15100001 .533 .117000009 C .51900008 .085 .49000005 .025000003 .43100003 .025000003 C .36800004 .025000003 .365 .086 .365 .108 C .365 .13700001 .372 .16500002 .379 .19200002 L .418 .34800003 C .423 .37000004 .433 .40800003 .433 .41400004 C .433 .43200005 .419 .44200004 .404 .44200004 C .388 .44200004 .37000004 .43400003 .36300005 .40500004 L .30800004 .18600002 Z "/>
</symbol>
<use xlink:href="#font_7_2" transform="matrix(8.9664,0,0,-8.9664,50.02614,51.018629)"/>
<use xlink:href="#font_7_7" transform="matrix(8.9664,0,0,-8.9664,53.75616,51.018629)"/>
<use xlink:href="#font_7_b" transform="matrix(8.9664,0,0,-8.9664,58.19453,51.018629)"/>
<use xlink:href="#font_7_6" transform="matrix(8.9664,0,0,-8.9664,63.135019,51.018629)"/>
<use xlink:href="#font_7_3" transform="matrix(8.9664,0,0,-8.9664,68.56866,51.018629)"/>
<use xlink:href="#font_7_4" transform="matrix(8.9664,0,0,-8.9664,73.3298,51.018629)"/>
<use xlink:href="#font_7_3" transform="matrix(8.9664,0,0,-8.9664,77.032939,51.018629)"/>
<use xlink:href="#font_7_2" transform="matrix(8.9664,0,0,-8.9664,85.0758,51.018629)"/>
<use xlink:href="#font_7_4" transform="matrix(8.9664,0,0,-8.9664,88.85065,51.018629)"/>
<use xlink:href="#font_7_a" transform="matrix(8.9664,0,0,-8.9664,92.85862,51.018629)"/>
<use xlink:href="#font_7_c" transform="matrix(8.9664,0,0,-8.9664,95.8265,51.018629)"/>
<use xlink:href="#font_7_4" transform="matrix(8.9664,0,0,-8.9664,102.2554,51.018629)"/>
<use xlink:href="#font_7_4" transform="matrix(8.9664,0,0,-8.9664,106.01233,51.018629)"/>
<use xlink:href="#font_7_6" transform="matrix(8.9664,0,0,-8.9664,109.93961,51.018629)"/>
<symbol id="font_8_1">
<path d="M .09 .24000003 C .15100001 .24000003 .216 .24000003 .26900003 .25300003 C .36300005 .27600003 .38000003 .33200003 .38000003 .36600004 C .38000003 .42300005 .32700003 .45300005 .26800005 .45300005 C .15200001 .45300005 0 .35500003 0 .18300002 C 0 .08800001 .056000007 0 .164 0 C .31400005 0 .39800004 .104 .39800004 .117000009 C .39800004 .123 .39100004 .13100001 .38400004 .13100001 C .37900005 .13100001 .37800003 .13000001 .36900003 .119 C .30900003 .045 .21800001 .025000003 .16600001 .025000003 C .095 .025000003 .076000008 .092 .076000008 .14200002 C .076000008 .14400001 .076000008 .17900002 .09 .24000003 M .097 .26500003 C .141 .42300005 .25200004 .42800004 .26800005 .42800004 C .30200003 .42800004 .34300003 .41200004 .34300003 .36600004 C .34300003 .26500003 .192 .26500003 .097 .26500003 Z "/>
</symbol>
<use xlink:href="#font_8_1" transform="matrix(8.9664,0,0,-8.9664,118.104419,51.018629)"/>
<symbol id="font_b_1">
<path d="M .67100009 0 C .68700006 0 .712 0 .712 .025999994 C .712 .052000017 .68700006 .052000017 .67100009 .052000017 L .04100001 .052000017 C .025000006 .052000017 0 .052000017 0 .025999994 C 0 0 .025000006 0 .04100001 0 L .67100009 0 Z "/>
</symbol>
<use xlink:href="#font_b_1" transform="matrix(5.9776,0,0,-5.9776,122.714199,45.274019)"/>
<symbol id="font_c_1">
<path d="M .23800002 .63500007 C .23800002 .665 .23400001 .665 .20400001 .665 C .138 .601 .036 .601 0 .601 L 0 .56200006 C .025999994 .56200006 .09200001 .56200006 .152 .59000006 L .152 .085 C .152 .052 .152 .039 .048999996 .039 L .0059999974 .039 L .0059999974 0 C .061000006 .004 .13900002 .004 .19500001 .004 C .251 .004 .329 .004 .384 0 L .384 .039 L .34100003 .039 C .23800002 .039 .23800002 .052 .23800002 .085 L .23800002 .63500007 Z "/>
</symbol>
<use xlink:href="#font_c_1" transform="matrix(5.9776,0,0,-5.9776,128.44629,46.613)"/>
<use xlink:href="#font_7_1" transform="matrix(8.9664,0,0,-8.9664,136.15329,51.018629)"/>
<use xlink:href="#font_7_6" transform="matrix(8.9664,0,0,-8.9664,140.60063,51.018629)"/>
<use xlink:href="#font_7_3" transform="matrix(8.9664,0,0,-8.9664,146.03427,51.018629)"/>
<use xlink:href="#font_8_1" transform="matrix(8.9664,0,0,-8.9664,153.46642,51.018629)"/>
</svg>
