<?xml version="1.0" encoding="UTF-8" standalone="no"?>
<!DOCTYPE svg PUBLIC "-//W3C//DTD SVG 1.1//EN" "http://www.w3.org/Graphics/SVG/1.1/DTD/svg11.dtd">
<svg xmlns="http://www.w3.org/2000/svg" xmlns:xlink="http://www.w3.org/1999/xlink" version="1.1" width="187.977pt" height="190.483pt" viewBox="0 0 187.977 190.483">
<path transform="matrix(1,0,0,-1,.598,174.64)" stroke-width="1" stroke-linecap="butt" stroke-miterlimit="10" stroke-linejoin="miter" fill="none" stroke="#000000" d="M 13.26807 13.44965 L 172.6713 13.44965 "/>
<path transform="matrix(1,0,0,-1,173.2693,161.19036)" d="M 1.99252 0 L -1.19551 1.59401 L 0 0 L -1.19551 -1.59401 "/>
<path transform="matrix(1,0,0,-1,.598,174.64)" stroke-width="1" stroke-linecap="butt" stroke-miterlimit="10" stroke-linejoin="miter" fill="none" stroke="#000000" d="M 26.71771 0 L 26.71771 159.40323 "/>
<path transform="matrix(0,-1,-1,-0,27.31571,15.236771)" d="M 1.99252 0 L -1.19551 1.59401 L 0 0 L -1.19551 -1.59401 "/>
<path transform="matrix(1,0,0,-1,.598,174.64)" stroke-width="1.19553" stroke-linecap="butt" stroke-miterlimit="10" stroke-linejoin="miter" fill="none" stroke="#800000" d="M 160.53632 .02553 C 160.53632 .02553 161.111 7.5817 161.17517 10.48666 C 161.23935 13.39165 161.16132 18.06137 160.99898 20.96262 C 160.83664 23.86385 160.39282 28.51668 160.00505 31.39684 C 159.61728 34.277 158.8151 38.87962 158.20413 41.7208 C 157.59319 44.56195 156.43169 49.08894 155.60164 51.87393 C 154.77159 54.65892 153.26676 59.08102 152.22174 61.79305 C 151.17673 64.50505 149.32257 68.79767 148.06984 71.4203 C 146.81713 74.04294 144.64575 78.17836 143.193 80.69518 C 141.74024 83.212 139.24427 87.16356 137.59929 89.55983 C 135.95432 91.9561 133.1633 95.70526 131.33713 97.96587 C 129.51097 100.22649 126.43439 103.74142 124.43747 105.85274 C 122.44055 107.96405 119.09985 111.23328 116.94467 113.1828 C 114.7895 115.13231 111.2048 118.12761 108.90446 119.90358 C 106.60411 121.67955 102.797 124.39104 100.36528 125.98282 C 97.93355 127.5746 93.92677 129.97878 91.37823 131.37612 C 88.8297 132.77346 84.64642 134.85907 81.9971 136.05393 C 79.3478 137.2488 75.01819 139.00337 72.28377 139.98793 C 69.54936 140.97249 65.09206 142.38112 62.28934 143.14995 C 59.48663 143.9188 54.93777 144.98113 52.08376 145.5292 C 49.22974 146.07727 44.60765 146.77597 41.71947 147.10012 C 38.83128 147.42426 34.17157 147.76706 31.26773 147.8654 C 28.36388 147.96373 23.69376 147.93672 20.79047 147.8089 C 17.88718 147.68109 13.2274 147.29773 10.34276 146.9441 C 7.45813 146.5905 0 145.26021 0 145.26021 "/>
<path transform="matrix(1,0,0,-1,.598,174.64)" stroke-width="1" stroke-linecap="butt" stroke-miterlimit="10" stroke-linejoin="miter" fill="none" stroke="#000000" d="M 26.71771 13.44965 L 161.21417 126.29216 "/>
<path transform="matrix(1,0,0,-1,.598,174.64)" stroke-width="1.19553" stroke-linecap="butt" stroke-miterlimit="10" stroke-linejoin="miter" fill="none" stroke="#000080" d="M 129.742 13.44965 L 129.742 99.93086 "/>
<path transform="matrix(1,0,0,-1,.598,174.64)" stroke-width="1" stroke-linecap="butt" stroke-miterlimit="10" stroke-linejoin="miter" fill="none" stroke="#000000" d="M 161.21417 13.44965 L 161.21417 126.29216 "/>
<path transform="matrix(1,0,0,-1,.598,174.64)" d="M 26.71771 13.44965 L 129.742 99.93086 L 129.742 13.44965 L 26.71771 13.44965 Z " fill="#cccce6"/>
<path transform="matrix(1,0,0,-1,.598,174.64)" stroke-width="1.19553" stroke-linecap="butt" stroke-miterlimit="10" stroke-linejoin="miter" fill="none" stroke="#000080" d="M 26.71771 13.44965 L 129.742 99.93086 L 129.742 13.44965 L 26.71771 13.44965 Z "/>
<path transform="matrix(1,0,0,-1,.598,174.64)" stroke-width="1" stroke-linecap="butt" stroke-miterlimit="10" stroke-linejoin="miter" fill="none" stroke="#000000" d="M 46.89218 13.44965 C 46.89218 13.44965 46.88759 13.87343 46.88269 14.0361 C 46.8778 14.19878 46.86627 14.45963 46.85689 14.62216 C 46.84749 14.78471 46.82906 15.04543 46.81491 15.20763 C 46.80077 15.36983 46.77393 15.62961 46.75499 15.79128 C 46.73604 15.95294 46.70184 16.2118 46.67833 16.37292 C 46.65483 16.53403 46.6138 16.79214 46.58554 16.95253 C 46.55728 17.1129 46.50761 17.3695 46.47456 17.52892 C 46.44151 17.68832 46.38474 17.94307 46.34727 18.10146 C 46.3098 18.25984 46.24657 18.5133 46.20442 18.6706 C 46.1623 18.82787 46.09021 19.0791 46.04346 19.23506 C 45.99669 19.391 45.91841 19.64008 45.86732 19.79471 C 45.81625 19.94933 45.73096 20.19652 45.67526 20.34952 C 45.61957 20.5025 45.52605 20.74622 45.46584 20.89743 C 45.40564 21.04866 45.3057 21.28996 45.2413 21.43953 C 45.17693 21.58908 45.07062 21.8278 45.00183 21.97536 C 44.93304 22.12292 44.81859 22.3577 44.74542 22.50313 C 44.67226 22.64857 44.55168 22.88025 44.47449 23.02362 C 44.3973 23.16699 44.27042 23.39542 44.189 23.53645 C 44.10757 23.6775 43.97319 23.90167 43.8876 24.04022 C 43.80202 24.17877 43.66144 24.39905 43.57207 24.53511 C 43.4827 24.67116 43.33672 24.8875 43.24342 25.0209 C 43.15013 25.1543 42.99701 25.36606 42.89966 25.49663 C 42.8023 25.6272 42.64275 25.83435 42.54176 25.96204 C 42.44077 26.08972 42.17175 26.41698 42.17175 26.41698 "/>
<symbol id="font_0_1">
<path d="M .41300003 .511 C .41300003 .577 .395 .716 .293 .716 C .15400002 .716 0 .43400003 0 .20500002 C 0 .111 .029 0 .12 0 C .261 0 .41300003 .28700004 .41300003 .511 M .106 .374 C .123 .43800003 .143 .518 .183 .589 C .21000001 .638 .24700001 .694 .29200004 .694 C .34100003 .694 .34700004 .63 .34700004 .573 C .34700004 .524 .33900003 .47300003 .31500004 .374 L .106 .374 M .30600003 .34200005 C .29500003 .29600004 .27400003 .21100001 .23600003 .13900002 C .201 .071 .16300002 .022000002 .12 .022000002 C .087000008 .022000002 .066 .051000004 .066 .14400001 C .066 .18600002 .072000008 .24400002 .098 .34200005 L .30600003 .34200005 Z "/>
</symbol>
<use xlink:href="#font_0_1" transform="matrix(9.9626,0,0,-9.9626,51.50143,155.34459)"/>
<symbol id="font_1_7">
<path d="M .17500001 .20500002 C .197 .20100002 .279 .18500002 .279 .113000009 C .279 .062000004 .24400002 .022000002 .16600001 .022000002 C .082 .022000002 .046000005 .079 .027000003 .16400002 C .024000004 .17700002 .023000002 .18100001 .013000004 .18100001 C 0 .18100001 0 .17400001 0 .15600002 L 0 .024 C 0 .0070000009 0 0 .011000004 0 C .016000003 0 .017 .0010000002 .036000007 .020000002 C .038000004 .022000002 .038000004 .024 .056 .043 C .1 .0010000002 .14500001 0 .16600001 0 C .28100003 0 .32700003 .067 .32700003 .13900002 C .32700003 .19200002 .29700003 .22200002 .28500004 .23400001 C .25200004 .26600004 .213 .27400003 .171 .28200004 C .115 .293 .048 .30600003 .048 .36400003 C .048 .39900003 .07400001 .44000004 .16 .44000004 C .27 .44000004 .27500005 .35000003 .277 .31900005 C .27800004 .31000004 .28700004 .31000004 .28900004 .31000004 C .30200003 .31000004 .30200003 .31500004 .30200003 .33400003 L .30200003 .43500004 C .30200003 .45200003 .30200003 .45900003 .291 .45900003 C .286 .45900003 .284 .45900003 .27100004 .44700004 C .26800005 .44300003 .25800003 .43400003 .254 .43100003 C .21600002 .45900003 .17500001 .45900003 .16 .45900003 C .038000004 .45900003 0 .39200003 0 .33600004 C 0 .30100004 .016000003 .27300004 .043000007 .25100003 C .075 .22500003 .10300001 .21900001 .17500001 .20500002 Z "/>
</symbol>
<symbol id="font_1_4">
<path d="M .144 .44200004 L .0040000008 .43100003 L .0040000008 .4 C .069000009 .4 .07800001 .39400003 .07800001 .34500004 L .07800001 .076000008 C .07800001 .031000002 .067 .031000002 0 .031000002 L 0 0 C .032000007 .001 .086 .003 .11000001 .003 C .14500001 .003 .18 .001 .21400002 0 L .21400002 .031000002 C .148 .031000002 .144 .036000004 .144 .075 L .144 .44200004 M .148 .61600008 C .148 .648 .123 .669 .095000009 .669 C .064 .669 .042000005 .642 .042000005 .61600008 C .042000005 .58900007 .064 .563 .095000009 .563 C .123 .563 .148 .58400008 .148 .61600008 Z "/>
</symbol>
<symbol id="font_1_5">
<path d="M .07800001 .344 L .07800001 .076000008 C .07800001 .031000002 .067 .031000002 0 .031000002 L 0 0 C .035 .001 .08600001 .003 .113000009 .003 C .139 .003 .191 .001 .225 0 L .225 .031000002 C .158 .031000002 .147 .031000002 .147 .076000008 L .147 .26000003 C .147 .36400003 .218 .42000003 .282 .42000003 C .345 .42000003 .356 .36600004 .356 .30900003 L .356 .076000008 C .356 .031000002 .345 .031000002 .278 .031000002 L .278 0 C .31300003 .001 .36400003 .003 .391 .003 C .41700004 .003 .46900005 .001 .503 0 L .503 .031000002 C .451 .031000002 .42600004 .031000002 .425 .061000006 L .425 .252 C .425 .33800004 .425 .36900003 .39400003 .40500004 C .38000003 .42200003 .347 .44200004 .289 .44200004 C .216 .44200004 .169 .39900003 .141 .337 L .141 .44200004 L 0 .43100003 L 0 .4 C .07000001 .4 .07800001 .393 .07800001 .344 Z "/>
</symbol>
<symbol id="font_1_1">
<path d="M .23200003 .00999999 C .23200003 .012999982 .23200003 .014999986 .215 .03199999 C .09 .15799999 .058 .347 .058 .5 C .058 .674 .096 .84800007 .21900001 .97300007 C .23200003 .985 .23200003 .98700007 .23200003 .99 C .23200003 .99700006 .22800002 1 .222 1 C .21200001 1 .12200001 .93200007 .06299999 .805 C .012000002 .69500008 0 .584 0 .5 C 0 .422 .011 .301 .066 .188 C .126 .065 .21200001 0 .222 0 C .22800002 0 .23200003 .0029999912 .23200003 .00999999 Z "/>
</symbol>
<use xlink:href="#font_1_7" transform="matrix(9.9626,0,0,-9.9626,102.13876,120.48259)"/>
<use xlink:href="#font_1_4" transform="matrix(9.9626,0,0,-9.9626,106.064029,120.373)"/>
<use xlink:href="#font_1_5" transform="matrix(9.9626,0,0,-9.9626,108.82366,120.373)"/>
<use xlink:href="#font_1_1" transform="matrix(9.9626,0,0,-9.9626,115.030368,122.86365)"/>
<use xlink:href="#font_0_1" transform="matrix(9.9626,0,0,-9.9626,118.33543,120.48259)"/>
<symbol id="font_1_2">
<path d="M .232 .5 C .232 .578 .22100002 .699 .16600001 .81200006 C .106 .93500009 .020000004 1 .009999998 1 C .0040000008 1 0 .99600008 0 .99 C 0 .98700007 0 .985 .019000002 .967 C .117000009 .86800006 .174 .709 .174 .5 C .174 .329 .137 .153 .012999997 .026999996 C 0 .014999986 0 .012999982 0 .00999999 C 0 .003999993 .0040000008 0 .009999998 0 C .020000004 0 .11000001 .06799999 .169 .195 C .22 .305 .232 .416 .232 .5 Z "/>
</symbol>
<use xlink:href="#font_1_2" transform="matrix(9.9626,0,0,-9.9626,123.437877,122.86365)"/>
<symbol id="font_1_3">
<path d="M .083000008 .22900002 C .083000008 .39200003 .16500002 .43400003 .218 .43400003 C .227 .43400003 .29 .43300004 .32500003 .397 C .284 .39400003 .278 .36400003 .278 .351 C .278 .32500003 .296 .305 .324 .305 C .35 .305 .37 .32200004 .37 .35200004 C .37 .42000003 .294 .45900003 .21700001 .45900003 C .092 .45900003 0 .351 0 .22700002 C 0 .09900001 .099 0 .215 0 C .349 0 .381 .120000008 .381 .13000001 C .381 .14000002 .37100003 .14000002 .368 .14000002 C .359 .14000002 .35700003 .136 .35500003 .13000001 C .326 .037 .261 .025000003 .224 .025000003 C .171 .025000003 .083000008 .068 .083000008 .22900002 Z "/>
</symbol>
<symbol id="font_1_6">
<path d="M .44300003 .22500003 C .44300003 .35300002 .34300003 .45900003 .222 .45900003 C .097 .45900003 0 .35000003 0 .22500003 C 0 .096 .104 0 .22100002 0 C .342 0 .44300003 .098000008 .44300003 .22500003 M .222 .025000003 C .17900002 .025000003 .135 .046 .10800001 .092 C .083000008 .136 .083000008 .19700001 .083000008 .23300003 C .083000008 .272 .083000008 .32600004 .10700001 .37000004 C .134 .41600005 .18100001 .43700005 .22100002 .43700005 C .26500003 .43700005 .30800004 .41500003 .33400003 .37200005 C .36 .32900004 .36 .27100004 .36 .23300003 C .36 .19700001 .36 .143 .33800004 .09900001 C .316 .054 .272 .025000003 .222 .025000003 Z "/>
</symbol>
<use xlink:href="#font_1_3" transform="matrix(9.9626,0,0,-9.9626,66.14473,172.36559)"/>
<use xlink:href="#font_1_6" transform="matrix(9.9626,0,0,-9.9626,70.50835,172.36559)"/>
<use xlink:href="#font_1_7" transform="matrix(9.9626,0,0,-9.9626,75.53946,172.36559)"/>
<use xlink:href="#font_1_1" transform="matrix(9.9626,0,0,-9.9626,80.12225,174.74665)"/>
<use xlink:href="#font_0_1" transform="matrix(9.9626,0,0,-9.9626,83.43742,172.36559)"/>
<use xlink:href="#font_1_2" transform="matrix(9.9626,0,0,-9.9626,88.54087,174.74665)"/>
<symbol id="font_2_1">
<path d="M .37700004 .611 C .384 .64100006 .39200003 .643 .40000005 .64400008 C .408 .646 .435 .646 .45200003 .646 C .556 .646 .579 .632 .579 .57000008 C .579 .558 .579 .53900006 .569 .48000003 C .56700006 .469 .56700006 .467 .56700006 .46500004 C .56700006 .45200003 .577 .45200003 .582 .45200003 C .595 .45200003 .597 .455 .6 .47300003 L .63000008 .652 C .63100007 .656 .63100007 .661 .63100007 .665 C .63100007 .67700007 .62200006 .67700007 .606 .67700007 L .092999998 .67700007 C .073 .67700007 .06999999 .67700007 .063999999 .65900006 L .004999995 .48000003 C 0 .467 0 .46500004 0 .46300004 C 0 .45200003 .0119999949 .45200003 .015000001 .45200003 C .018999994 .45200003 .023000002 .45200003 .025999994 .455 C .027999998 .45700003 .029 .45800004 .039000006 .48400004 C .085999999 .625 .11399999 .646 .243 .646 L .277 .646 C .3 .646 .3 .642 .3 .63500007 C .3 .628 .298 .619 .296 .61300006 L .162 .076000008 C .153 .041 .144 .031000002 .055999996 .031000002 L .03999999 .031000002 C .023000002 .031000002 .0119999949 .031000002 .0119999949 .012 C .0119999949 0 .024000004 0 .029 0 C .08000001 0 .13300002 .003 .18400002 .003 C .236 .003 .29000003 0 .34100003 0 C .35000003 0 .362 0 .362 .020000002 C .362 .031000002 .352 .031000002 .337 .031000002 L .322 .031000002 C .30600003 .031000002 .275 .033 .272 .033 C .24400002 .036000004 .23900002 .040000004 .23900002 .054 C .23900002 .057000005 .23900002 .059000005 .243 .07300001 L .37700004 .611 Z "/>
</symbol>
<symbol id="font_2_8">
<path d="M .17500001 .29900003 C .176 .30200003 .22100002 .43100003 .307 .43100003 C .312 .43100003 .34 .43100003 .36 .41700004 C .32500003 .40600003 .32200004 .374 .32200004 .36900003 C .32200004 .35600005 .33100004 .337 .35700003 .337 C .37500004 .337 .40600003 .351 .40600003 .39000003 C .40600003 .44200004 .34100003 .45300005 .30800004 .45300005 C .23900002 .45300005 .20300001 .40300004 .187 .381 C .176 .43400003 .13700001 .45300005 .104 .45300005 C .068 .45300005 .048000009 .43000005 .031999999 .40000005 C .012999997 .36 0 .30100004 0 .29900003 C 0 .28900004 .009999998 .28900004 .015000001 .28900004 C .028000005 .28900004 .029 .29000003 .034 .31200005 C .052 .38200004 .07100001 .43100003 .102 .43100003 C .128 .43100003 .128 .40200005 .128 .39100004 C .128 .37500004 .125 .35600005 .12100001 .34000004 L .046000005 .040000004 C .044 .034 .042999999 .029000003 .042999999 .026 C .042999999 .015000001 .051 0 .07100001 0 C .10100001 0 .10800001 .029000003 .11 .037 L .17500001 .29900003 Z "/>
</symbol>
<symbol id="font_2_5">
<path d="M .24800003 .15400002 C .24800003 .16400002 .24000001 .16400002 .23300001 .16400002 C .22 .16400002 .22 .16200002 .21600002 .14700002 C .208 .11800001 .181 .022000002 .12300001 .022000002 C .11500001 .022000002 .10100001 .023000002 .10100001 .05 C .10100001 .076000008 .11400001 .109000008 .127 .14600002 L .19100002 .31700004 C .201 .34600003 .20300001 .35400004 .20300001 .37300004 C .20300001 .42800004 .165 .45300005 .128 .45300005 C .034 .45300005 0 .30400003 0 .29900003 C 0 .28900004 .009999998 .28900004 .015000001 .28900004 C .028000005 .28900004 .029 .291 .033 .305 C .041999997 .33800004 .068 .43100003 .126 .43100003 C .13700001 .43100003 .148 .42600004 .148 .40300004 C .148 .37900005 .13700001 .35000003 .13000001 .33100004 L .10000001 .24800003 C .087 .21500002 .075 .18200001 .06300001 .14900002 C .048999996 .111 .045 .1 .045 .080000009 C .045 .041 .069000009 0 .12100001 0 C .215 0 .24800003 .15000002 .24800003 .15400002 M .243 .634 C .243 .659 .22300002 .667 .20900002 .667 C .18800003 .667 .16100002 .647 .16100002 .619 C .16100002 .594 .181 .586 .19500003 .586 C .215 .586 .243 .605 .243 .634 Z "/>
</symbol>
<symbol id="font_2_2">
<path d="M .241 .07000001 C .252 .021000002 .289 0 .324 0 C .361 0 .382 .025000003 .39699999 .056 C .415 .094000007 .42700003 .15200001 .42700003 .15400002 C .42700003 .16400002 .419 .16400002 .41200004 .16400002 C .4 .16400002 .39900003 .16300002 .39300005 .14100002 C .379 .085 .36 .022000002 .326 .022000002 C .3 .022000002 .3 .049000004 .3 .063 C .3 .07000001 .3 .086 .307 .11400001 L .375 .38600005 C .379 .40000005 .379 .40200005 .379 .40700004 C .379 .42800004 .36200003 .43300004 .352 .43300004 C .32000003 .43300004 .31300003 .39900003 .312 .39400003 C .293 .43700005 .261 .45300005 .229 .45300005 C .11800001 .45300005 0 .30100004 0 .15500002 C 0 .07000001 .04600001 0 .121000017 0 C .157 0 .201 .021000002 .241 .07000001 M .29500003 .32400004 L .248 .135 C .24000001 .10300001 .178 .022000002 .123 .022000002 C .07600001 .022000002 .06800001 .081 .06800001 .111 C .06800001 .16100002 .099000018 .27800004 .117000009 .32000003 C .14199999 .381 .188 .43100003 .229 .43100003 C .273 .43100003 .298 .37900005 .298 .337 C .298 .335 .29700003 .33 .29500003 .32400004 Z "/>
</symbol>
<symbol id="font_2_7">
<path d="M .147 .18600002 C .15200001 .20800002 .158 .22900002 .163 .25100003 C .176 .30200003 .176 .30300004 .19300002 .33200003 C .20700002 .35600005 .252 .43100003 .328 .43100003 C .372 .43100003 .374 .38600005 .374 .365 C .374 .30300004 .33 .18400002 .316 .14400001 C .303 .11000001 .3 .101 .3 .080000009 C .3 .036000004 .328 0 .37600003 0 C .46900005 0 .503 .14900002 .503 .15400002 C .503 .16400002 .495 .16400002 .48800005 .16400002 C .47500003 .16400002 .47500003 .16200002 .47100003 .14700002 C .463 .120000008 .43600006 .022000002 .37800003 .022000002 C .35700003 .022000002 .356 .037 .356 .051000004 C .356 .076000008 .36600004 .102000009 .374 .126 C .39400003 .17900002 .435 .291 .435 .34900005 C .435 .43100003 .38000003 .45300005 .33100004 .45300005 C .24900002 .45300005 .201 .39300005 .18800003 .374 C .181 .42300005 .147 .45300005 .104 .45300005 C .068 .45300005 .048000009 .43000005 .031999999 .40000005 C .012999997 .36 0 .30100004 0 .29900003 C 0 .28900004 .009999998 .28900004 .015000001 .28900004 C .028000005 .28900004 .029 .29000003 .034 .31200005 C .052 .38200004 .07100001 .43100003 .102 .43100003 C .128 .43100003 .128 .40200005 .128 .39100004 C .128 .37500004 .125 .35600005 .12100001 .34000004 L .046000005 .040000004 C .044 .034 .042999999 .029000003 .042999999 .026 C .042999999 .015000001 .051 0 .07100001 0 C .083000008 0 .10000001 .0070000009 .10700001 .026 L .147 .18600002 Z "/>
</symbol>
<symbol id="font_2_4">
<path d="M .28500004 .25800003 L .264 .17400001 C .252 .12400001 .24600002 .10300001 .21800003 .069000009 C .178 .022 .13800001 .022 .12300001 .022 C .11 .022 .078999999 .022 .052 .033000009 C .072 .04100001 .08400001 .062000008 .08400001 .07900001 C .08400001 .09200001 .075 .11100001 .049000004 .11100001 C .031000004 .11100001 0 .09700001 0 .058000015 C 0 .018000007 .037 0 .12100001 0 C .22600001 0 .30200003 .066 .321 .14200002 L .43 .58000007 C .43400003 .595 .43400003 .597 .43400003 .6010001 C .43400003 .62200006 .41700004 .62700006 .407 .62700006 C .395 .62700006 .372 .6190001 .36800004 .59000006 C .354 .6190001 .32700003 .6470001 .284 .6470001 C .172 .6470001 .057000005 .499 .057000005 .35800005 C .057000005 .273 .104 .20500002 .179 .20500002 C .23000002 .20500002 .273 .24600002 .28500004 .25800003 M .35000003 .51900008 L .305 .337 C .29700003 .305 .236 .22700002 .18100001 .22700002 C .127 .22700002 .125 .30300004 .125 .314 C .125 .36200003 .155 .47900004 .17600002 .526 C .201 .58000007 .245 .625 .284 .625 C .344 .625 .35300002 .541 .35300002 .533 L .35000003 .51900008 Z "/>
</symbol>
<symbol id="font_2_6">
<path d="M .20899999 .68 C .21000001 .683 .21200001 .691 .21200001 .693 C .21200001 .702 .206 .705 .19800002 .705 C .195 .705 .185 .704 .18200001 .703 L .083 .695 C .071 .694 .06000001 .693 .06000001 .674 C .06000001 .663 .07 .663 .084 .663 C .132 .663 .134 .656 .134 .646 C .134 .643 .13100001 .63 .13100001 .629 L .0059999974 .12900001 C .0050000029 .12500002 0 .105000007 0 .09 C 0 .037 .036000007 0 .084 0 C .122 0 .14200002 .027000003 .155 .052 C .17199999 .087000008 .18599999 .15100001 .18599999 .15400002 C .18599999 .16400002 .178 .16400002 .171 .16400002 C .16600001 .16400002 .16 .16400002 .157 .15900001 L .15 .134 C .13300002 .064 .114 .022000002 .086 .022000002 C .06000001 .022000002 .06000001 .049000004 .06000001 .063 C .06000001 .07000001 .06000001 .085 .06600001 .109000008 L .20899999 .68 Z "/>
</symbol>
<symbol id="font_2_3">
<path d="M .125 .24200002 C .15500002 .24200002 .22200002 .24500002 .26999999 .26400004 C .34900005 .29600004 .34900005 .36100004 .34900005 .36800004 C .34900005 .41400004 .31200005 .45300005 .24800001 .45300005 C .14299999 .45300005 0 .35200004 0 .17500001 C 0 .085 .047999994 0 .14299999 0 C .27100004 0 .35400004 .1 .35400004 .115 C .35400004 .120000008 .34600003 .13100001 .338 .13100001 C .334 .13100001 .333 .13000001 .325 .120000008 C .251 .026 .16200002 .022000002 .145 .022000002 C .08 .022000002 .069000009 .093 .069000009 .13200002 C .069000009 .17000002 .078999999 .21500002 .085999999 .24200002 L .125 .24200002 M .09200001 .26400004 C .135 .42800004 .23800002 .43100003 .24800001 .43100003 C .288 .43100003 .311 .404 .311 .37000004 C .311 .26400004 .14600002 .26400004 .113000009 .26400004 L .09200001 .26400004 Z "/>
</symbol>
<use xlink:href="#font_2_1" transform="matrix(9.9626,0,0,-9.9626,72.77445,185.152)"/>
<use xlink:href="#font_2_8" transform="matrix(9.9626,0,0,-9.9626,78.224,185.26158)"/>
<use xlink:href="#font_2_5" transform="matrix(9.9626,0,0,-9.9626,82.428218,185.26158)"/>
<use xlink:href="#font_2_2" transform="matrix(9.9626,0,0,-9.9626,85.735797,185.26158)"/>
<use xlink:href="#font_2_7" transform="matrix(9.9626,0,0,-9.9626,90.57762,185.26158)"/>
<use xlink:href="#font_2_4" transform="matrix(9.9626,0,0,-9.9626,95.87772,187.19432)"/>
<use xlink:href="#font_2_6" transform="matrix(9.9626,0,0,-9.9626,100.86899,185.26158)"/>
<use xlink:href="#font_2_3" transform="matrix(9.9626,0,0,-9.9626,103.61866,185.26158)"/>
<symbol id="font_0_2">
<path d="M .14400001 .115 C .10400002 .048 .065 .034 .021000002 .031000002 C .009000003 .030000002 0 .030000002 0 .011000001 C 0 .0050000005 .0050000029 0 .013 0 C .040000004 0 .07100001 .003 .09900001 .003 C .13200002 .003 .16700001 0 .19900002 0 C .20500002 0 .21800003 0 .21800003 .019000002 C .21800003 .030000002 .20900002 .031000002 .20200002 .031000002 C .17900002 .033 .15500002 .041 .15500002 .066 C .15500002 .078 .16100002 .089 .16900002 .10300001 L .245 .231 L .49600003 .231 C .49800007 .21000001 .512 .074 .512 .064 C .512 .034 .46000005 .031000002 .44000004 .031000002 C .42600004 .031000002 .41600005 .031000002 .41600005 .011000001 C .41600005 0 .42800004 0 .43000005 0 C .47100006 0 .514 .003 .555 .003 C .58 .003 .643 0 .668 0 C .674 0 .686 0 .686 .020000002 C .686 .031000002 .676 .031000002 .663 .031000002 C .601 .031000002 .601 .038000004 .598 .067 L .537 .69200006 C .535 .712 .535 .716 .518 .716 C .502 .716 .49800007 .70900008 .492 .69900009 L .14400001 .115 M .26400004 .26200003 L .46100004 .592 L .493 .26200003 L .26400004 .26200003 Z "/>
</symbol>
<use xlink:href="#font_0_2" transform="matrix(9.9626,0,0,-9.9626,110.97069,185.152)"/>
<symbol id="font_0_3">
<path d="M .305 .31300003 C .311 .33900003 .334 .43100003 .404 .43100003 C .409 .43100003 .433 .43100003 .454 .418 C .426 .41300003 .40600003 .388 .40600003 .36400003 C .40600003 .34800003 .417 .32900004 .444 .32900004 C .46600003 .32900004 .498 .34700004 .498 .38700003 C .498 .43900005 .439 .45300005 .405 .45300005 C .347 .45300005 .312 .40000005 .3 .37700004 C .275 .44300003 .221 .45300005 .19200002 .45300005 C .08800001 .45300005 .031000002 .32400004 .031000002 .29900003 C .031000002 .28900004 .041 .28900004 .043000007 .28900004 C .051000008 .28900004 .054000006 .291 .056 .3 C .09 .40600003 .156 .43100003 .19000001 .43100003 C .209 .43100003 .244 .42200003 .244 .36400003 C .244 .33300004 .22700002 .26600004 .19000001 .126 C .17400001 .064 .13900002 .022000002 .095000009 .022000002 C .08900001 .022000002 .06600001 .022000002 .045 .035 C .07000001 .040000004 .09200001 .061 .09200001 .089 C .09200001 .116000007 .07000001 .124000009 .055000009 .124000009 C .025 .124000009 0 .098000008 0 .06600001 C 0 .020000002 .050000006 0 .094000007 0 C .16000001 0 .19600001 .07000001 .19900002 .076000008 C .21100001 .039 .24700003 0 .307 0 C .41 0 .467 .12900001 .467 .15400002 C .467 .16400002 .458 .16400002 .455 .16400002 C .446 .16400002 .444 .16000001 .442 .15300001 C .409 .046 .341 .022000002 .30900003 .022000002 C .27 .022000002 .254 .054 .254 .08800001 C .254 .11000001 .26 .13200002 .271 .17600002 L .305 .31300003 Z "/>
</symbol>
<use xlink:href="#font_0_3" transform="matrix(9.9626,0,0,-9.9626,179.17792,163.44159)"/>
<symbol id="font_0_4">
<path d="M .45700003 .586 C .461 .6 .461 .602 .461 .609 C .461 .62700006 .447 .63600006 .432 .63600006 C .42200003 .63600006 .40600003 .63 .397 .615 C .395 .61 .387 .579 .38300003 .561 C .37600003 .535 .36900003 .508 .363 .48100005 L .318 .301 C .314 .286 .271 .21600002 .20500002 .21600002 C .15400002 .21600002 .143 .26000003 .143 .29700003 C .143 .34300003 .16000001 .40500004 .194 .49300004 C .21000001 .53400006 .21400002 .545 .21400002 .56500008 C .21400002 .61 .18200001 .6470001 .13200002 .6470001 C .037 .6470001 0 .50200006 0 .49300004 C 0 .48300005 .01 .48300005 .012 .48300005 C .022000002 .48300005 .023 .485 .028000003 .50100007 C .055000009 .595 .095000009 .625 .12900001 .625 C .13700001 .625 .15400002 .625 .15400002 .59300008 C .15400002 .568 .14400001 .54200008 .13700001 .523 C .097 .41700004 .079 .36 .079 .31300003 C .079 .224 .142 .194 .201 .194 C .24000003 .194 .274 .21100001 .30200003 .23900002 C .289 .187 .277 .13800001 .237 .08500001 C .21100001 .051 .17300001 .022 .127 .022 C .113000009 .022 .068 .025000006 .051000008 .06400001 C .067 .06400001 .080000009 .06400001 .094000007 .076000008 C .104 .08500001 .11400001 .098000008 .11400001 .117000009 C .11400001 .148 .087000008 .15200001 .07700001 .15200001 C .054000006 .15200001 .021 .136 .021 .087000008 C .021 .037 .065000008 0 .127 0 C .23 0 .333 .091000009 .361 .20400001 L .45700003 .586 Z "/>
</symbol>
<use xlink:href="#font_0_4" transform="matrix(9.9626,0,0,-9.9626,24.987915,9.726339)"/>
</svg>
