<?xml version="1.0" encoding="UTF-8" standalone="no"?>
<!DOCTYPE svg PUBLIC "-//W3C//DTD SVG 1.1//EN" "http://www.w3.org/Graphics/SVG/1.1/DTD/svg11.dtd">
<svg xmlns="http://www.w3.org/2000/svg" xmlns:xlink="http://www.w3.org/1999/xlink" version="1.1" width="157.635pt" height="132.275pt" viewBox="0 0 157.635 132.275">
<path transform="matrix(1,0,0,-1,9.759,10173.44)" stroke-width=".19925" stroke-linecap="butt" stroke-miterlimit="10" stroke-linejoin="miter" fill="none" stroke="#929292" d="M 0 10101.404 L 0 10105.645 M 33.79095 10101.404 L 33.79095 10105.645 M 101.37286 10101.404 L 101.37286 10105.645 M 135.16382 10101.404 L 135.16382 10105.645 "/>
<path transform="matrix(1,0,0,-1,9.759,10173.44)" stroke-width=".19925" stroke-linecap="butt" stroke-miterlimit="10" stroke-linejoin="miter" fill="none" stroke="#929292" d="M 65.45587 10048.313 L 69.70793 10048.313 M 65.45587 10075.919 L 69.70793 10075.919 M 65.45587 10131.13 L 69.70793 10131.13 M 65.45587 10158.734 L 69.70793 10158.734 "/>
<path transform="matrix(1,0,0,-1,9.759,10173.44)" stroke-width=".3985" stroke-linecap="butt" stroke-miterlimit="10" stroke-linejoin="miter" fill="none" stroke="#000000" d="M 0 10103.524 L 133.1713 10103.524 "/>
<path transform="matrix(1,0,0,-1,142.9303,69.916019)" d="M 1.99252 0 L -1.19551 1.59401 L 0 0 L -1.19551 -1.59401 "/>
<path transform="matrix(1,0,0,-1,9.759,10173.44)" stroke-width=".3985" stroke-linecap="butt" stroke-miterlimit="10" stroke-linejoin="miter" fill="none" stroke="#000000" d="M 67.58191 10048.313 L 67.58191 10156.742 "/>
<path transform="matrix(0,-1,-1,-0,77.34091,16.698243)" d="M 1.99252 0 L -1.19551 1.59401 L 0 0 L -1.19551 -1.59401 "/>
<symbol id="font_0_1">
<path d="M .57600006 0 C .59300008 0 .611 0 .611 .019999996 C .611 .040000008 .59300008 .040000008 .57600006 .040000008 L .035000005 .040000008 C .018 .040000008 0 .040000008 0 .019999996 C 0 0 .018 0 .035000005 0 L .57600006 0 Z "/>
</symbol>
<use xlink:href="#font_0_1" transform="matrix(9.9626,0,0,-9.9626,4.220896,79.88927)"/>
<symbol id="font_1_2">
<path d="M .07700001 .07700001 L .18300002 .18 C .33900003 .31800003 .39900003 .372 .39900003 .47200004 C .39900003 .586 .30900003 .666 .18700002 .666 C .074 .666 0 .574 0 .485 C 0 .42900003 .05 .42900003 .053000008 .42900003 C .07000001 .42900003 .105000007 .441 .105000007 .48200003 C .105000007 .508 .08700001 .53400006 .052000006 .53400006 C .044000005 .53400006 .042000008 .53400006 .039 .53300008 C .062000004 .59800007 .11600001 .63500007 .17400001 .63500007 C .26500003 .63500007 .308 .554 .308 .47200004 C .308 .39200003 .25800003 .31300003 .20300003 .25100003 L .011000004 .037 C 0 .026 0 .024 0 0 L .37100003 0 L .39900003 .17400001 L .374 .17400001 C .36900003 .14400001 .36200003 .1 .352 .085 C .345 .07700001 .279 .07700001 .257 .07700001 L .07700001 .07700001 Z "/>
</symbol>
<use xlink:href="#font_1_2" transform="matrix(9.9626,0,0,-9.9626,11.6411299,82.180667)"/>
<use xlink:href="#font_0_1" transform="matrix(9.9626,0,0,-9.9626,38.011899,79.88927)"/>
<symbol id="font_1_1">
<path d="M .205 .64000007 C .205 .66400006 .205 .666 .18200003 .666 C .120000008 .60200008 .032000007 .60200008 0 .60200008 L 0 .57100006 C .020000004 .57100006 .07900001 .57100006 .13100001 .597 L .13100001 .079 C .13100001 .043 .128 .031000002 .038000004 .031000002 L .0060000049 .031000002 L .0060000049 0 C .04100001 .003 .128 .003 .168 .003 C .20800002 .003 .29500003 .003 .33000005 0 L .33000005 .031000002 L .29800005 .031000002 C .20800002 .031000002 .205 .042000005 .205 .079 L .205 .64000007 Z "/>
</symbol>
<use xlink:href="#font_1_1" transform="matrix(9.9626,0,0,-9.9626,45.820676,82.180667)"/>
<use xlink:href="#font_1_1" transform="matrix(9.9626,0,0,-9.9626,109.52667,82.180667)"/>
<use xlink:href="#font_1_2" transform="matrix(9.9626,0,0,-9.9626,142.92913,82.180667)"/>
<use xlink:href="#font_0_1" transform="matrix(9.9626,0,0,-9.9626,59.717897,125.76036)"/>
<use xlink:href="#font_1_2" transform="matrix(9.9626,0,0,-9.9626,67.13813,128.05176)"/>
<use xlink:href="#font_0_1" transform="matrix(9.9626,0,0,-9.9626,59.717897,98.154888)"/>
<use xlink:href="#font_1_1" transform="matrix(9.9626,0,0,-9.9626,67.52667,100.44628)"/>
<use xlink:href="#font_1_1" transform="matrix(9.9626,0,0,-9.9626,67.52567,45.65136)"/>
<use xlink:href="#font_1_2" transform="matrix(9.9626,0,0,-9.9626,67.13713,18.046883)"/>
<clipPath id="cp2">
<path transform="matrix(1,0,0,-1,9.759,10173.44)" d="M 0 10048.313 L 135.16382 10048.313 L 135.16382 10158.734 L 0 10158.734 Z "/>
</clipPath>
<g clip-path="url(#cp2)">
<path transform="matrix(1,0,0,-1,9.759,10173.44)" stroke-width="1.19553" stroke-linecap="butt" stroke-miterlimit="10" stroke-linejoin="miter" fill="none" stroke="#008000" d="M 0 0 C 0 0 .98642 893.8328 1.36526 1213.9581 C 1.74411 1534.0835 2.35172 2019.2821 2.73056 2307.2403 C 3.1094 2595.1986 3.717 3030.9993 4.09584 3289.3597 C 4.4747 3547.72 5.08229 3938.1363 5.46114 4169.321 C 5.83998 4400.5056 6.44756 4749.297 6.82642 4955.577 C 7.20526 5161.8576 7.81285 5472.543 8.1917 5656.0437 C 8.57054 5839.5446 9.17815 6115.408 9.55699 6278.1218 C 9.93584 6440.835 10.54343 6684.976 10.92229 6828.769 C 11.30113 6972.5617 11.90872 7187.867 12.28757 7314.48 C 12.66641 7441.093 13.274 7630.2526 13.65285 7741.3068 C 14.0317 7852.361 14.63928 8017.8786 15.01813 8114.882 C 15.39699 8211.885 16.00458 8356.088 16.38342 8440.439 C 16.76227 8524.791 17.36986 8649.833 17.74872 8722.83 C 18.12756 8795.827 18.73515 8903.709 19.114 8966.55 C 19.49284 9029.391 20.10043 9121.951 20.47928 9175.742 C 20.85812 9229.534 21.46571 9308.482 21.84457 9354.24 C 22.22342 9399.998 22.83101 9466.875 23.20985 9505.531 C 23.5887 9544.1879 24.1963 9600.4379 24.57515 9632.849 C 24.954 9665.259 25.56157 9712.181 25.94041 9739.125 C 26.31927 9766.068 26.92686 9804.854 27.30571 9827.039 C 27.68456 9849.226 28.29214 9880.954 28.671 9899.023 C 29.04985 9917.094 29.65744 9942.742 30.03629 9957.277 C 30.41513 9971.812 31.02274 9992.257 31.40158 10003.777 C 31.78043 10015.297 32.388 10031.331 32.76686 10040.304 C 33.1457 10049.275 33.7533 10061.602 34.13214 10068.442 C 34.51099 10075.282 35.11859 10084.526 35.49744 10089.603 C 35.87628 10094.679 36.48387 10101.393 36.86272 10105.029 C 37.24158 10108.667 37.84917 10113.335 38.22801 10115.815 C 38.60686 10118.297 39.21443 10121.341 39.59329 10122.912 C 39.97214 10124.483 40.57973 10126.268 40.95857 10127.141 C 41.33742 10128.014 41.94502 10128.85 42.32387 10129.205 C 42.70271 10129.56 43.3103 10129.712 43.68916 10129.7 C 44.06801 10129.688 44.6756 10129.375 45.05444 10129.123 C 45.43329 10128.87 46.04088 10128.272 46.41972 10127.881 C 46.79857 10127.489 47.40616 10126.752 47.785 10126.304 C 48.16386 10125.855 48.77145 10125.092 49.1503 10124.648 C 49.52914 10124.205 50.13673 10123.502 50.5156 10123.11 C 50.89444 10122.72 51.50201 10122.137 51.88086 10121.831 C 52.2597 10121.524 52.86731 10121.1049 53.24615 10120.903 C 53.625 10120.701 54.23259 10120.465 54.61145 10120.379 C 54.9903 10120.292 55.59789 10120.248 55.97673 10120.278 C 56.35558 10120.308 56.96318 10120.451 57.34203 10120.592 C 57.72087 10120.732 58.32845 10121.049 58.70729 10121.29 C 59.08615 10121.53 59.69374 10121.999 60.07259 10122.324 C 60.45143 10122.649 61.05902 10123.242 61.43788 10123.636 C 61.81673 10124.029 62.42432 10124.717 62.80316 10125.158 C 63.182 10125.6 63.78961 10126.35 64.16846 10126.82 C 64.5473 10127.291 65.15488 10128.07 65.53374 10128.551 C 65.91258 10129.031 66.52017 10129.811 66.89902 10130.282 C 67.27786 10130.755 67.88547 10131.506 68.26431 10131.953 C 68.64316 10132.401 69.25075 10133.099 69.6296 10133.509 C 70.00845 10133.918 70.61604 10134.543 70.99489 10134.903 C 71.37373 10135.264 71.98131 10135.802 72.36017 10136.1049 C 72.73901 10136.407 73.3466 10136.847 73.72545 10137.089 C 74.1043 10137.331 74.7119 10137.668 75.09074 10137.848 C 75.46959 10138.027 76.07718 10138.264 76.45604 10138.384 C 76.83488 10138.503 77.44246 10138.6459 77.8213 10138.711 C 78.20015 10138.776 78.80775 10138.836 79.1866 10138.856 C 79.56544 10138.876 80.17303 10138.87 80.55188 10138.855 C 80.93074 10138.841 81.53833 10138.788 81.91718 10138.752 C 82.29602 10138.717 82.90361 10138.64 83.28247 10138.598 C 83.66132 10138.555 84.26889 10138.4799 84.64774 10138.445 C 85.02658 10138.411 85.63419 10138.361 86.01303 10138.35 C 86.39188 10138.339 86.99947 10138.339 87.37833 10138.364 C 87.75717 10138.39 88.36476 10138.46 88.7436 10138.533 C 89.12245 10138.606 89.73006 10138.764 90.1089 10138.893 C 90.48775 10139.0209 91.09532 10139.273 91.47417 10139.459 C 91.85303 10139.6459 92.46062 10139.993 92.83946 10140.233 C 93.2183 10140.473 93.8259 10140.906 94.20476 10141.187 C 94.5836 10141.468 95.1912 10141.959 95.57004 10142.26 C 95.94888 10142.561 96.55649 10143.066 96.93533 10143.353 C 97.31418 10143.639 97.92175 10144.098 98.30061 10144.322 C 98.67946 10144.547 99.28705 10144.871 99.6659 10144.972 C 100.04474 10145.071 100.65234 10145.147 101.03119 10145.041 C 101.41003 10144.936 102.01762 10144.62 102.39647 10144.207 C 102.77533 10143.795 103.3829 10142.909 103.76175 10142.064 C 104.1406 10141.221 104.74818 10139.549 105.12704 10138.124 C 105.50589 10136.7 106.11348 10133.981 106.49232 10131.8 C 106.87117 10129.618 107.47878 10125.547 107.85762 10122.399 C 108.23647 10119.252 108.84406 10113.471 109.22292 10109.117 C 109.60176 10104.763 110.20934 10096.856 110.58818 10091.018 C 110.96703 10085.178 111.57463 10074.672 111.95348 10067.028 C 112.33232 10059.385 112.93991 10045.737 113.31876 10035.93 C 113.69762 10026.121 114.3052 10008.718 114.68405 9996.336 C 115.0629 9983.954 115.67049 9962.1049 116.04935 9946.691 C 116.42819 9931.278 117.03577 9904.204 117.41461 9885.248 C 117.79346 9866.292 118.40106 9833.136 118.7799 9810.067 C 119.15875 9786.999 119.76634 9746.798 120.1452 9718.986 C 120.52405 9691.174 121.13164 9642.869 121.51048 9609.617 C 121.88933 9576.366 122.49693 9518.789 122.87578 9479.333 C 123.25462 9439.877 123.8622 9371.745 124.24104 9325.244 C 124.6199 9278.743 125.2275 9198.649 125.60634 9144.187 C 125.98518 9089.724 126.59277 8996.138 126.97163 8932.713 C 127.35048 8869.288 127.95807 8760.538 128.33692 8687.0629 C 128.71576 8613.587 129.32335 8487.858 129.7022 8403.151 C 130.08104 8318.444 130.68863 8173.768 131.06749 8076.5559 C 131.44634 7979.3439 132.05393 7813.608 132.43277 7702.5148 C 132.81162 7591.4216 133.41922 7402.335 133.79807 7275.8737 C 134.17691 7149.4128 135.16335 6791.071 135.16335 6791.071 "/>
<symbol id="font_3_1">
<path d="M .119 .078 C .109 .039 .10699999 .031000002 .028 .031000002 C .011 .031000002 0 .031000002 0 .012 C 0 0 .009 0 .028 0 L .35900004 0 C .56700006 0 .764 .21100001 .764 .43 C .764 .57100006 .679 .683 .529 .683 L .193 .683 C .17400001 .683 .163 .683 .163 .66400006 C .163 .652 .172 .652 .192 .652 C .205 .652 .223 .651 .235 .65000006 C .25100003 .648 .25700004 .64500007 .25700004 .634 C .25700004 .63000008 .256 .62700006 .25300003 .615 L .119 .078 M .33500005 .614 C .344 .64900007 .34600003 .652 .38900004 .652 L .49600003 .652 C .594 .652 .677 .59900006 .677 .467 C .677 .418 .657 .254 .572 .14400001 C .543 .10700001 .46400003 .031000002 .34100003 .031000002 L .228 .031000002 C .214 .031000002 .212 .031000002 .206 .032 C .19600001 .033 .193 .034 .193 .042000005 C .193 .045 .193 .047000003 .198 .065000008 L .33500005 .614 Z "/>
</symbol>
<use xlink:href="#font_3_1" transform="matrix(9.9626,0,0,-9.9626,121.88051,45.845697)" fill="#008000"/>
</g>
<symbol id="font_3_2">
<path d="M .305 .31300003 C .311 .33900003 .334 .43100003 .404 .43100003 C .409 .43100003 .433 .43100003 .454 .418 C .426 .41300003 .40600003 .388 .40600003 .36400003 C .40600003 .34800003 .417 .32900004 .444 .32900004 C .46600003 .32900004 .498 .34700004 .498 .38700003 C .498 .43900005 .439 .45300005 .405 .45300005 C .347 .45300005 .312 .40000005 .3 .37700004 C .275 .44300003 .221 .45300005 .19200002 .45300005 C .08800001 .45300005 .031000002 .32400004 .031000002 .29900003 C .031000002 .28900004 .041 .28900004 .043000007 .28900004 C .051000008 .28900004 .054000006 .291 .056 .3 C .09 .40600003 .156 .43100003 .19000001 .43100003 C .209 .43100003 .244 .42200003 .244 .36400003 C .244 .33300004 .22700002 .26600004 .19000001 .126 C .17400001 .064 .13900002 .022000002 .095000009 .022000002 C .08900001 .022000002 .06600001 .022000002 .045 .035 C .07000001 .040000004 .09200001 .061 .09200001 .089 C .09200001 .116000007 .07000001 .124000009 .055000009 .124000009 C .025 .124000009 0 .098000008 0 .06600001 C 0 .020000002 .050000006 0 .094000007 0 C .16000001 0 .19600001 .07000001 .19900002 .076000008 C .21100001 .039 .24700003 0 .307 0 C .41 0 .467 .12900001 .467 .15400002 C .467 .16400002 .458 .16400002 .455 .16400002 C .446 .16400002 .444 .16000001 .442 .15300001 C .409 .046 .341 .022000002 .30900003 .022000002 C .27 .022000002 .254 .054 .254 .08800001 C .254 .11000001 .26 .13200002 .271 .17600002 L .305 .31300003 Z "/>
</symbol>
<use xlink:href="#font_3_2" transform="matrix(9.9626,0,0,-9.9626,148.8359,70.06858)"/>
<symbol id="font_3_3">
<path d="M .45700003 .586 C .461 .6 .461 .602 .461 .609 C .461 .62700006 .447 .63600006 .432 .63600006 C .42200003 .63600006 .40600003 .63 .397 .615 C .395 .61 .387 .579 .38300003 .561 C .37600003 .535 .36900003 .508 .363 .48100005 L .318 .301 C .314 .286 .271 .21600002 .20500002 .21600002 C .15400002 .21600002 .143 .26000003 .143 .29700003 C .143 .34300003 .16000001 .40500004 .194 .49300004 C .21000001 .53400006 .21400002 .545 .21400002 .56500008 C .21400002 .61 .18200001 .6470001 .13200002 .6470001 C .037 .6470001 0 .50200006 0 .49300004 C 0 .48300005 .01 .48300005 .012 .48300005 C .022000002 .48300005 .023 .485 .028000003 .50100007 C .055000009 .595 .095000009 .625 .12900001 .625 C .13700001 .625 .15400002 .625 .15400002 .59300008 C .15400002 .568 .14400001 .54200008 .13700001 .523 C .097 .41700004 .079 .36 .079 .31300003 C .079 .224 .142 .194 .201 .194 C .24000003 .194 .274 .21100001 .30200003 .23900002 C .289 .187 .277 .13800001 .237 .08500001 C .21100001 .051 .17300001 .022 .127 .022 C .113000009 .022 .068 .025000006 .051000008 .06400001 C .067 .06400001 .080000009 .06400001 .094000007 .076000008 C .104 .08500001 .11400001 .098000008 .11400001 .117000009 C .11400001 .148 .087000008 .15200001 .07700001 .15200001 C .054000006 .15200001 .021 .136 .021 .087000008 C .021 .037 .065000008 0 .127 0 C .23 0 .333 .091000009 .361 .20400001 L .45700003 .586 Z "/>
</symbol>
<use xlink:href="#font_3_3" transform="matrix(9.9626,0,0,-9.9626,75.01792,9.726904)"/>
</svg>
