<?xml version="1.0" encoding="UTF-8" standalone="no"?>
<!DOCTYPE svg PUBLIC "-//W3C//DTD SVG 1.1//EN" "http://www.w3.org/Graphics/SVG/1.1/DTD/svg11.dtd">
<svg xmlns="http://www.w3.org/2000/svg" xmlns:xlink="http://www.w3.org/1999/xlink" version="1.1" width="207.234pt" height="181.684pt" viewBox="0 0 207.234 181.684">
<path transform="matrix(1,0,0,-1,.259,268.37403)" stroke-width="1" stroke-linecap="butt" stroke-miterlimit="10" stroke-linejoin="miter" fill="none" stroke="#808080" d="M 64.75586 172.28295 L 64.75586 176.53491 M 107.92644 172.28295 L 107.92644 176.53491 M 151.09702 172.28295 L 151.09702 176.53491 M 194.2676 172.28295 L 194.2676 176.53491 "/>
<path transform="matrix(1,0,0,-1,.259,268.37403)" stroke-width="1" stroke-linecap="butt" stroke-miterlimit="10" stroke-linejoin="miter" fill="none" stroke="#808080" d="M 19.45935 93.71075 L 23.7112 93.71075 M 19.45935 134.05985 L 23.7112 134.05985 M 19.45935 214.75803 L 23.7112 214.75803 M 19.45935 255.10712 L 23.7112 255.10712 "/>
<path transform="matrix(1,0,0,-1,.259,268.37403)" stroke-width="1" stroke-linecap="butt" stroke-miterlimit="10" stroke-linejoin="miter" fill="none" stroke="#000000" d="M 0 174.40894 L 192.27507 174.40894 "/>
<path transform="matrix(1,0,0,-1,192.53408,93.96509)" d="M 1.99252 0 L -1.19551 1.59401 L 0 0 L -1.19551 -1.59401 "/>
<path transform="matrix(1,0,0,-1,.259,268.37403)" stroke-width="1" stroke-linecap="butt" stroke-miterlimit="10" stroke-linejoin="miter" fill="none" stroke="#000000" d="M 21.58528 93.71075 L 21.58528 253.1146 "/>
<path transform="matrix(0,-1,-1,-0,21.84428,15.25943)" d="M 1.99252 0 L -1.19551 1.59401 L 0 0 L -1.19551 -1.59401 "/>
<symbol id="font_0_1">
<path d="M .205 .64000007 C .205 .66400006 .205 .666 .18200003 .666 C .120000008 .60200008 .032000007 .60200008 0 .60200008 L 0 .57100006 C .020000004 .57100006 .07900001 .57100006 .13100001 .597 L .13100001 .079 C .13100001 .043 .128 .031000002 .038000004 .031000002 L .0060000049 .031000002 L .0060000049 0 C .04100001 .003 .128 .003 .168 .003 C .20800002 .003 .29500003 .003 .33000005 0 L .33000005 .031000002 L .29800005 .031000002 C .20800002 .031000002 .205 .042000005 .205 .079 L .205 .64000007 Z "/>
</symbol>
<use xlink:href="#font_0_1" transform="matrix(9.9626,0,0,-9.9626,63.40967,106.10702)"/>
<symbol id="font_0_2">
<path d="M .07700001 .07700001 L .18300002 .18 C .33900003 .31800003 .39900003 .372 .39900003 .47200004 C .39900003 .586 .30900003 .666 .18700002 .666 C .074 .666 0 .574 0 .485 C 0 .42900003 .05 .42900003 .053000008 .42900003 C .07000001 .42900003 .105000007 .441 .105000007 .48200003 C .105000007 .508 .08700001 .53400006 .052000006 .53400006 C .044000005 .53400006 .042000008 .53400006 .039 .53300008 C .062000004 .59800007 .11600001 .63500007 .17400001 .63500007 C .26500003 .63500007 .308 .554 .308 .47200004 C .308 .39200003 .25800003 .31300003 .20300003 .25100003 L .011000004 .037 C 0 .026 0 .024 0 0 L .37100003 0 L .39900003 .17400001 L .374 .17400001 C .36900003 .14400001 .36200003 .1 .352 .085 C .345 .07700001 .279 .07700001 .257 .07700001 L .07700001 .07700001 Z "/>
</symbol>
<use xlink:href="#font_0_2" transform="matrix(9.9626,0,0,-9.9626,106.19113,106.10702)"/>
<symbol id="font_0_3">
<path d="M .24800003 .37400005 C .33 .40100003 .388 .47100006 .388 .55 C .388 .632 .3 .688 .204 .688 C .10300001 .688 .027000003 .628 .027000003 .55200007 C .027000003 .519 .049000004 .5 .078 .5 C .109000008 .5 .12900001 .522 .12900001 .55100008 C .12900001 .6010001 .082 .6010001 .067 .6010001 C .098 .65000006 .164 .66300007 .20000002 .66300007 C .24100003 .66300007 .29600004 .64100006 .29600004 .55100008 C .29600004 .53900006 .29400004 .48100005 .268 .43700005 C .238 .38900004 .204 .38600005 .17900002 .38500003 C .171 .38400004 .14700002 .38200004 .14000002 .38200004 C .132 .38100005 .125 .38000003 .125 .37000004 C .125 .35900004 .132 .35900004 .14900002 .35900004 L .19300002 .35900004 C .275 .35900004 .312 .29100005 .312 .193 C .312 .057000005 .24300003 .028 .199 .028 C .15600002 .028 .081 .045 .046000005 .104 C .081 .09900001 .11200001 .12100001 .11200001 .15900001 C .11200001 .19500001 .085 .215 .056 .215 C .031999999 .215 0 .201 0 .157 C 0 .06600001 .093 0 .20200002 0 C .32400004 0 .41500003 .091000009 .41500003 .193 C .41500003 .27500005 .35200004 .35300005 .24800003 .37400005 Z "/>
</symbol>
<use xlink:href="#font_0_3" transform="matrix(9.9626,0,0,-9.9626,149.28144,106.326198)"/>
<symbol id="font_0_4">
<path d="M .266 .165 L .266 .078 C .266 .042000005 .26400004 .031000002 .19000001 .031000002 L .16900002 .031000002 L .16900002 0 C .21000001 .003 .26200003 .003 .30400003 .003 C .34600003 .003 .39900003 .003 .44000004 0 L .44000004 .031000002 L .41900004 .031000002 C .34500004 .031000002 .34300003 .042000005 .34300003 .078 L .34300003 .165 L .44300003 .165 L .44300003 .19600001 L .34300003 .19600001 L .34300003 .651 C .34300003 .671 .34300003 .67700007 .32700003 .67700007 C .31800003 .67700007 .31500004 .67700007 .307 .665 L 0 .19600001 L 0 .165 L .266 .165 M .272 .19600001 L .028 .19600001 L .272 .569 L .272 .19600001 Z "/>
</symbol>
<use xlink:href="#font_0_4" transform="matrix(9.9626,0,0,-9.9626,192.31195,106.10702)"/>
<symbol id="font_1_1">
<path d="M .57600006 0 C .59300008 0 .611 0 .611 .019999996 C .611 .040000008 .59300008 .040000008 .57600006 .040000008 L .035000005 .040000008 C .018 .040000008 0 .040000008 0 .019999996 C 0 0 .018 0 .035000005 0 L .57600006 0 Z "/>
</symbol>
<use xlink:href="#font_1_1" transform="matrix(9.9626,0,0,-9.9626,4.220896,175.16863)"/>
<use xlink:href="#font_0_2" transform="matrix(9.9626,0,0,-9.9626,11.6411299,177.46002)"/>
<use xlink:href="#font_1_1" transform="matrix(9.9626,0,0,-9.9626,4.220896,134.81963)"/>
<use xlink:href="#font_0_1" transform="matrix(9.9626,0,0,-9.9626,12.029671,137.11103)"/>
<use xlink:href="#font_0_1" transform="matrix(9.9626,0,0,-9.9626,12.029671,56.829019)"/>
<use xlink:href="#font_0_2" transform="matrix(9.9626,0,0,-9.9626,11.6411299,16.480027)"/>
<clipPath id="cp2">
<path transform="matrix(1,0,0,-1,.259,268.37403)" d="M 0 93.71075 L 194.2676 93.71075 L 194.2676 255.10712 L 0 255.10712 Z "/>
</clipPath>
<g clip-path="url(#cp2)">
<path transform="matrix(1,0,0,-1,.259,268.37403)" stroke-width="1.19553" stroke-linecap="butt" stroke-miterlimit="10" stroke-linejoin="miter" fill="none" stroke="#000080" d="M 23.7438 53.53354 C 23.7438 53.53354 28.8773 100.96628 30.84894 112.30765 C 32.82057 123.64902 35.98244 130.06905 37.95409 135.27434 C 39.92574 140.47963 43.0876 146.32497 45.05923 149.82382 C 47.03087 153.32268 50.19273 157.84174 52.16437 160.49172 C 54.136 163.1417 57.29787 166.78614 59.26952 168.92307 C 61.24117 171.06002 64.403 174.10186 66.37466 175.89337 C 68.34631 177.68489 71.50815 180.2925 73.4798 181.83518 C 75.45146 183.37786 78.6133 185.65723 80.58495 187.01197 C 82.5566 188.3667 85.71846 190.39153 87.6901 191.59926 C 89.66173 192.80698 92.8236 194.62688 94.79523 195.71648 C 96.76686 196.80608 99.92873 198.45886 101.90038 199.4524 C 103.87202 200.44594 107.03387 201.9646 109.00552 202.87723 C 110.97717 203.78987 114.13902 205.18679 116.11067 206.0301 C 118.0823 206.87345 121.24416 208.1715 123.21579 208.95543 C 125.18744 209.73937 128.34929 210.94788 130.32094 211.68019 C 132.29259 212.41249 135.45446 213.546 137.42609 214.23348 C 139.39772 214.92096 142.55959 215.98723 144.53122 216.63506 C 146.50286 217.28289 149.66472 218.29036 151.63637 218.9027 C 153.60802 219.51503 156.76987 220.4679 158.74152 221.04845 C 160.71317 221.629 163.87503 222.53478 165.84667 223.08689 C 167.8183 223.63899 170.98015 224.50199 172.9518 225.02768 C 174.92343 225.55336 178.08528 226.3736 180.05693 226.87566 C 182.0286 227.37772 185.19043 228.16597 187.16208 228.64618 C 189.13373 229.1264 194.26723 230.3368 194.26723 230.3368 "/>
<path transform="matrix(1,0,0,-1,.259,268.37403)" stroke-width="1.19553" stroke-linecap="butt" stroke-miterlimit="10" stroke-linejoin="miter" fill="none" stroke="#800000" d="M 23.7438 0 C 23.7438 0 28.8773 68.43744 30.84894 84.80168 C 32.82057 101.16591 35.98244 110.43108 37.95409 117.94199 C 39.92574 125.45291 43.0876 133.88674 45.05923 138.93523 C 47.03087 143.9837 50.19273 150.50438 52.16437 154.328 C 54.136 158.15161 57.29787 163.40987 59.26952 166.49324 C 61.24117 169.57662 64.403 173.96584 66.37466 176.55081 C 68.34631 179.13579 71.50815 182.89817 73.4798 185.12403 C 75.45146 187.3499 78.6133 190.63869 80.58495 192.59346 C 82.5566 194.54824 85.71846 197.4701 87.6901 199.21274 C 89.66173 200.95539 92.8236 203.58109 94.79523 205.15332 C 96.76686 206.72556 99.92873 209.11075 101.90038 210.54438 C 103.87202 211.978 107.03387 214.16915 109.00552 215.48592 C 110.97717 216.8027 114.13902 218.81801 116.11067 220.03487 C 118.0823 221.25173 121.24416 223.12502 123.21579 224.2562 C 125.18744 225.38739 128.34929 227.13124 130.32094 228.18782 C 132.29259 229.24439 135.45446 230.87949 137.42609 231.87128 C 139.39772 232.86309 142.55959 234.40187 144.53122 235.33606 C 146.50286 236.27025 149.66472 237.72092 151.63637 238.60433 C 153.60802 239.48775 156.76987 240.86508 158.74152 241.70316 C 160.71317 242.54122 163.87503 243.8474 165.84667 244.64459 C 167.8183 245.44179 170.98015 246.69029 172.9518 247.44886 C 174.92343 248.20743 178.08528 249.38803 180.05693 250.1119 C 182.0286 250.83576 185.19043 251.97292 187.16208 252.666 C 189.13373 253.35907 194.26723 255.10712 194.26723 255.10712 "/>
<path transform="matrix(1,0,0,-1,.259,268.37403)" stroke-width="1.19553" stroke-linecap="butt" stroke-miterlimit="10" stroke-linejoin="miter" fill="none" stroke="#800080" d="M 23.7438 348.79368 C 23.7438 348.79368 24.98831 322.34666 25.46628 314.6422 C 25.94423 306.93775 26.71077 298.3967 27.18874 293.26524 C 27.6667 288.1338 28.43323 281.52894 28.9112 277.65824 C 29.38916 273.7875 30.15569 268.48057 30.63365 265.3679 C 31.11162 262.2552 31.87814 257.82905 32.35611 255.22412 C 32.83408 252.61922 33.6006 248.83448 34.07857 246.59346 C 34.55653 244.35245 35.32306 241.03908 35.80103 239.07239 C 36.27899 237.1057 37.04555 234.17165 37.52351 232.41881 C 38.00146 230.66599 38.768 228.02028 39.24597 226.43909 C 39.72394 224.8579 40.49046 222.46184 40.96843 221.02262 C 41.4464 219.5834 42.21292 217.38745 42.69089 216.06613 C 43.16885 214.74483 43.93538 212.72043 44.41335 211.49944 C 44.89131 210.27845 45.65784 208.4009 46.1358 207.266 C 46.61377 206.13112 47.38031 204.37984 47.85826 203.31986 C 48.33623 202.25988 49.10278 200.62129 49.58075 199.62631 C 50.05872 198.63132 50.82524 197.08577 51.3032 196.1486 C 51.78117 195.21146 52.5477 193.75652 53.02567 192.87187 C 53.50363 191.98723 54.27016 190.6133 54.74812 189.77266 C 55.22609 188.93202 55.99261 187.6126 56.47058 186.81305 C 56.94855 186.0135 57.71507 184.77025 58.19304 184.01 C 58.671 183.24974 59.43755 182.0602 59.9155 181.33365 C 60.39346 180.6071 61.16002 179.46875 61.63799 178.77353 C 62.11595 178.0783 62.88248 176.9892 63.36044 176.32289 C 63.83841 175.65659 64.60493 174.61101 65.0829 173.97119 C 65.56087 173.33138 66.3274 172.32707 66.80536 171.71147 C 67.28333 171.09589 68.04985 170.1275 68.52782 169.53446 C 69.00578 168.94139 69.77231 168.009 70.25027 167.43701 C 70.72824 166.86502 71.49478 165.9645 71.97275 165.41188 C 72.4507 164.85929 73.21725 163.98818 73.69522 163.45417 C 74.17319 162.92014 74.93971 162.07982 75.41768 161.56299 C 75.89565 161.04615 76.66217 160.23 77.14014 159.72913 C 77.6181 159.22826 78.38463 158.43889 78.8626 157.95296 C 79.34056 157.46703 80.10709 156.69853 80.58505 156.22682 C 81.06302 155.7551 81.82954 155.01129 82.30751 154.55315 C 82.78548 154.09499 83.55202 153.37044 84.02998 152.92465 C 84.50795 152.47888 85.27449 151.7739 85.75246 151.34015 C 86.23042 150.90639 86.99695 150.22052 87.47491 149.7984 C 87.95288 149.37628 88.7194 148.70908 89.19737 148.29784 C 89.67534 147.88658 90.44186 147.236 90.91983 146.83437 C 91.3978 146.43274 92.16432 145.79456 92.64229 145.40319 C 93.12025 145.0118 93.8868 144.39586 94.36475 144.01357 C 94.84271 143.63127 95.60925 143.02132 96.08722 142.64774 C 96.56519 142.27417 97.33173 141.6859 97.8097 141.32106 C 98.28766 140.95624 99.05418 140.37525 99.53215 140.01819 C 100.01012 139.66115 100.77664 139.09619 101.25461 138.7476 C 101.73257 138.399 102.4991 137.84743 102.97707 137.50566 C 103.45503 137.16388 104.22156 136.61894 104.69952 136.28429 C 105.17749 135.94963 105.94403 135.42232 106.42198 135.09358 C 106.89995 134.76486 107.66649 134.23773 108.14445 133.915 C 108.62242 133.59226 109.38896 133.08258 109.86693 132.76746 C 110.3449 132.45233 111.11142 131.9527 111.58939 131.64373 C 112.06735 131.33477 112.83388 130.8439 113.31184 130.5406 C 113.78981 130.23729 114.55634 129.75557 115.0343 129.45763 C 115.51227 129.15969 116.2788 128.68567 116.75676 128.3932 C 117.23473 128.10076 118.00127 127.6368 118.47923 127.34978 C 118.95718 127.06276 119.72372 126.60677 120.20169 126.32451 C 120.67966 126.04225 121.4462 125.59283 121.92416 125.31538 C 122.40213 125.03793 123.16866 124.5975 123.64662 124.32481 C 124.12459 124.05212 124.89111 123.61786 125.36908 123.34999 C 125.84705 123.0821 126.61357 122.65779 127.09154 122.39412 C 127.5695 122.13043 128.33603 121.70923 128.814 121.44954 C 129.29196 121.18985 130.0585 120.77754 130.53647 120.52231 C 131.01444 120.26709 131.78096 119.86143 132.25893 119.61003 C 132.7369 119.35861 133.50344 118.95778 133.9814 118.71024 C 134.45937 118.46269 135.22589 118.0693 135.70386 117.82579 C 136.18183 117.58226 136.94835 117.19556 137.42632 116.95506 C 137.90428 116.71457 138.6708 116.32909 139.14878 116.09239 C 139.62674 115.8557 140.39328 115.48253 140.87123 115.2491 C 141.3492 115.01566 142.11574 114.63992 142.5937 114.40984 C 143.07167 114.17976 143.8382 113.8169 144.31616 113.59074 C 144.79413 113.36458 145.56067 113.0031 146.03864 112.77972 C 146.5166 112.55637 147.28313 112.20139 147.7611 111.98082 C 148.23906 111.76025 149.00559 111.4072 149.48355 111.18999 C 149.96152 110.97278 150.72805 110.62912 151.20601 110.41527 C 151.68398 110.20143 152.45052 109.86024 152.92848 109.64864 C 153.40644 109.43703 154.17298 109.1 154.65094 108.89008 C 155.1289 108.68015 155.89543 108.34268 156.3734 108.13556 C 156.85137 107.92844 157.6179 107.6015 158.09587 107.39717 C 158.57384 107.19284 159.34037 106.8632 159.81833 106.66281 C 160.2963 106.4624 161.06282 106.1514 161.54079 105.95265 C 162.01876 105.75392 162.78528 105.42802 163.26325 105.23041 C 163.74121 105.0328 164.50775 104.72148 164.98572 104.52834 C 165.46367 104.3352 166.23021 104.02927 166.70818 103.83836 C 167.18614 103.64748 167.95267 103.34166 168.43064 103.15244 C 168.9086 102.96323 169.67514 102.6621 170.1531 102.47456 C 170.63108 102.28703 171.3976 101.9866 171.87557 101.80074 C 172.35353 101.61488 173.12006 101.31749 173.59803 101.13498 C 174.07599 100.95248 174.84252 100.66505 175.32048 100.48535 C 175.79845 100.30565 176.56499 100.01949 177.04296 99.83978 C 177.52092 99.66008 178.28745 99.36816 178.76541 99.19016 C 179.24338 99.01213 180.0099 98.73076 180.48787 98.55667 C 180.96584 98.38257 181.73238 98.10773 182.21035 97.9353 C 182.68831 97.76288 183.45484 97.48578 183.9328 97.31392 C 184.41077 97.14206 185.17729 96.86734 185.65526 96.69658 C 186.13323 96.52583 186.89977 96.2512 187.37772 96.08328 C 187.85569 95.91534 188.62223 95.65125 189.10019 95.48611 C 189.57816 95.32097 190.34468 95.05644 190.82265 94.89297 C 191.30062 94.7295 192.06714 94.47194 192.5451 94.3079 C 193.02307 94.14389 194.26758 93.71075 194.26758 93.71075 "/>
<path transform="matrix(1,0,0,-1,.259,268.37403)" stroke-width="1.19553" stroke-linecap="butt" stroke-miterlimit="10" stroke-linejoin="miter" fill="none" stroke="#008000" d="M 23.7438 284.4296 C 23.7438 284.4296 24.98831 267.74534 25.46628 262.8844 C 25.94423 258.02345 26.71077 252.6327 27.18874 249.3953 C 27.6667 246.15789 28.43323 241.99304 28.9112 239.55133 C 29.38916 237.10962 30.15569 233.76094 30.63365 231.79705 C 31.11162 229.83315 31.87814 227.0406 32.35611 225.39687 C 32.83408 223.75315 33.6006 221.36406 34.07857 219.95014 C 34.55653 218.53621 35.32306 216.447 35.80103 215.2063 C 36.27899 213.96559 37.04555 212.11386 37.52351 211.00794 C 38.00146 209.90201 38.768 208.23307 39.24597 207.2355 C 39.72394 206.23795 40.49046 204.7262 40.96843 203.8182 C 41.4464 202.91022 42.21292 201.52497 42.69089 200.69132 C 43.16885 199.85767 43.93538 198.5802 44.41335 197.8098 C 44.89131 197.03939 45.65784 195.85478 46.1358 195.13877 C 46.61377 194.42273 47.38031 193.31781 47.85826 192.64905 C 48.33623 191.9803 49.10278 190.94657 49.58075 190.31885 C 50.05872 189.69113 50.82524 188.71611 51.3032 188.12487 C 51.78117 187.53363 52.5477 186.61573 53.02567 186.05756 C 53.50363 185.49939 54.27016 184.63231 54.74812 184.10192 C 55.22609 183.57152 55.99261 182.73925 56.47058 182.2348 C 56.94855 181.73036 57.71507 180.94576 58.19304 180.4661 C 58.671 179.98645 59.43755 179.2361 59.9155 178.77777 C 60.39346 178.31943 61.16002 177.60126 61.63799 177.16263 C 62.11595 176.72402 62.88248 176.03685 63.36044 175.61647 C 63.83841 175.19609 64.60493 174.53643 65.0829 174.13275 C 65.56087 173.72908 66.3274 173.09543 66.80536 172.70705 C 67.28333 172.31868 68.04985 171.70769 68.52782 171.33353 C 69.00578 170.95937 69.77231 170.37114 70.25027 170.01027 C 70.72824 169.6494 71.49478 169.08124 71.97275 168.73262 C 72.4507 168.38399 73.21725 167.8345 73.69522 167.49753 C 74.17319 167.16057 74.93971 166.63002 75.41768 166.30397 C 75.89565 165.97792 76.66217 165.46349 77.14014 165.14749 C 77.6181 164.8315 78.38463 164.33313 78.8626 164.02654 C 79.34056 163.71996 80.10709 163.23526 80.58505 162.93769 C 81.06302 162.6401 81.82954 162.17086 82.30751 161.88179 C 82.78548 161.59273 83.55202 161.1355 84.02998 160.85422 C 84.50795 160.57295 85.27449 160.1282 85.75246 159.85453 C 86.23042 159.58084 86.99695 159.14792 87.47491 158.88164 C 87.95288 158.61534 88.7194 158.19461 89.19737 157.9352 C 89.67534 157.6758 90.44186 157.26535 90.91983 157.01197 C 91.3978 156.75858 92.16432 156.35585 92.64229 156.10889 C 93.12025 155.86191 93.8868 155.47303 94.36475 155.23186 C 94.84271 154.99069 95.60925 154.60631 96.08722 154.37064 C 96.56519 154.13498 97.33173 153.76354 97.8097 153.53331 C 98.28766 153.3031 99.05418 152.93666 99.53215 152.71138 C 100.01012 152.4861 100.77664 152.12955 101.25461 151.90964 C 101.73257 151.68973 102.4991 151.34194 102.97707 151.1263 C 103.45503 150.91066 104.22156 150.56659 104.69952 150.35544 C 105.17749 150.14427 105.94403 149.81175 106.42198 149.60437 C 106.89995 149.39698 107.66649 149.06432 108.14445 148.8607 C 108.62242 148.65709 109.38896 148.3356 109.86693 148.13683 C 110.3449 147.93805 111.11142 147.62297 111.58939 147.42803 C 112.06735 147.23307 112.83388 146.9231 113.31184 146.7317 C 113.78981 146.54032 114.55634 146.23653 115.0343 146.04856 C 115.51227 145.8606 116.2788 145.56143 116.75676 145.37688 C 117.23473 145.19232 118.00127 144.8995 118.47923 144.71842 C 118.95718 144.53734 119.72372 144.24971 120.20169 144.07167 C 120.67966 143.89362 121.4462 143.61022 121.92416 143.4352 C 122.40213 143.26016 123.16866 142.98221 123.64662 142.8102 C 124.12459 142.63817 124.89111 142.36438 125.36908 142.19535 C 125.84705 142.02632 126.61357 141.75829 127.09154 141.59192 C 127.5695 141.42555 128.33603 141.16007 128.814 140.99625 C 129.29196 140.83243 130.0585 140.57225 130.53647 140.4112 C 131.01444 140.25016 131.78096 139.99402 132.25893 139.8354 C 132.7369 139.67679 133.50344 139.42412 133.9814 139.26793 C 134.45937 139.11174 135.22589 138.8633 135.70386 138.70967 C 136.18183 138.55603 136.94835 138.31217 137.42632 138.16063 C 137.90428 138.0091 138.6708 137.76708 139.14878 137.61742 C 139.62674 137.46778 140.39328 137.22911 140.87123 137.08199 C 141.3492 136.93488 142.11574 136.70198 142.5937 136.55704 C 143.07167 136.41211 143.8382 136.18015 144.31616 136.03734 C 144.79413 135.89453 145.56067 135.6687 146.03864 135.52774 C 146.5166 135.3868 147.28313 135.16063 147.7611 135.02135 C 148.23906 134.88207 149.00559 134.66094 149.48355 134.52385 C 149.96152 134.38677 150.72805 134.16846 151.20601 134.0332 C 151.68398 133.89795 152.45052 133.68259 152.92848 133.54903 C 153.40644 133.41545 154.17298 133.20255 154.65094 133.07048 C 155.1289 132.93842 155.89543 132.72745 156.3734 132.59719 C 156.85137 132.46692 157.6179 132.26003 158.09587 132.13156 C 158.57384 132.00308 159.34037 131.79814 159.81833 131.67118 C 160.2963 131.5442 161.06282 131.34223 161.54079 131.21645 C 162.01876 131.09067 162.78528 130.88869 163.26325 130.76453 C 163.74121 130.64035 164.50775 130.44364 164.98572 130.32149 C 165.46367 130.19934 166.23021 130.0048 166.70818 129.88411 C 167.18614 129.76343 167.95267 129.57082 168.43064 129.45157 C 168.9086 129.33232 169.67514 129.1429 170.1531 129.02468 C 170.63108 128.90645 171.3976 128.71639 171.87557 128.5994 C 172.35353 128.4824 173.12006 128.29659 173.59803 128.18138 C 174.07599 128.0662 174.84252 127.88287 175.32048 127.76901 C 175.79845 127.65515 176.56499 127.47398 177.04296 127.36067 C 177.52092 127.24738 178.28745 127.06436 178.76541 126.95235 C 179.24338 126.84035 180.0099 126.6633 180.48787 126.5533 C 180.96584 126.4433 181.73238 126.26837 182.21035 126.1595 C 182.68831 126.05061 183.45484 125.87639 183.9328 125.76851 C 184.41077 125.66064 185.17729 125.48961 185.65526 125.38196 C 186.13323 125.2743 186.89977 125.09883 187.37772 124.99258 C 187.85569 124.88634 188.62223 124.72043 189.10019 124.61615 C 189.57816 124.51186 190.34468 124.34416 190.82265 124.24088 C 191.30062 124.1376 192.06714 123.97499 192.5451 123.8717 C 193.02307 123.76842 194.26758 123.49646 194.26758 123.49646 "/>
<symbol id="font_3_1">
<path d="M .14400001 .115 C .10400002 .048 .065 .034 .021000002 .031000002 C .009000003 .030000002 0 .030000002 0 .011000001 C 0 .0050000005 .0050000029 0 .013 0 C .040000004 0 .07100001 .003 .09900001 .003 C .13200002 .003 .16700001 0 .19900002 0 C .20500002 0 .21800003 0 .21800003 .019000002 C .21800003 .030000002 .20900002 .031000002 .20200002 .031000002 C .17900002 .033 .15500002 .041 .15500002 .066 C .15500002 .078 .16100002 .089 .16900002 .10300001 L .245 .231 L .49600003 .231 C .49800007 .21000001 .512 .074 .512 .064 C .512 .034 .46000005 .031000002 .44000004 .031000002 C .42600004 .031000002 .41600005 .031000002 .41600005 .011000001 C .41600005 0 .42800004 0 .43000005 0 C .47100006 0 .514 .003 .555 .003 C .58 .003 .643 0 .668 0 C .674 0 .686 0 .686 .020000002 C .686 .031000002 .676 .031000002 .663 .031000002 C .601 .031000002 .601 .038000004 .598 .067 L .537 .69200006 C .535 .712 .535 .716 .518 .716 C .502 .716 .49800007 .70900008 .492 .69900009 L .14400001 .115 M .26400004 .26200003 L .46100004 .592 L .493 .26200003 L .26400004 .26200003 Z "/>
</symbol>
<use xlink:href="#font_3_1" transform="matrix(9.9626,0,0,-9.9626,47.37069,44.91803)" fill="#800080"/>
<symbol id="font_3_2">
<path d="M .11800001 .078 C .108 .039 .106 .031000002 .027000003 .031000002 C .009999998 .031000002 0 .031000002 0 .011000001 C 0 0 .009 0 .027000003 0 L .38400004 0 C .54200008 0 .66 .11800001 .66 .216 C .66 .28800003 .60200008 .34600003 .50500008 .35700003 C .609 .37600003 .71400007 .45000003 .71400007 .545 C .71400007 .619 .64800009 .683 .52800008 .683 L .192 .683 C .17300001 .683 .16300002 .683 .16300002 .66300007 C .16300002 .652 .17200002 .652 .19100002 .652 C .19300002 .652 .21200001 .652 .22900003 .65000006 C .24700001 .648 .256 .647 .256 .634 C .256 .63000008 .25500003 .62700006 .252 .615 L .11800001 .078 M .26900003 .36600004 L .33100004 .614 C .34000004 .64900007 .342 .652 .38500003 .652 L .51400008 .652 C .60200008 .652 .623 .59300008 .623 .549 C .623 .46100004 .53700008 .36600004 .41500003 .36600004 L .26900003 .36600004 M .224 .031000002 C .21000001 .031000002 .208 .031000002 .20200002 .032 C .192 .033 .18900001 .034 .18900001 .042000005 C .18900001 .045 .18900001 .047000003 .194 .065000008 L .263 .344 L .45200003 .344 C .54800006 .344 .56700006 .27 .56700006 .22700002 C .56700006 .128 .47800005 .031000002 .36 .031000002 L .224 .031000002 Z "/>
</symbol>
<use xlink:href="#font_3_2" transform="matrix(9.9626,0,0,-9.9626,34.48943,77.19702)" fill="#008000"/>
<symbol id="font_3_3">
<path d="M .71000006 .71700009 C .71000006 .72 .708 .72700008 .699 .72700008 C .69600006 .72700008 .69500008 .7260001 .684 .71500006 L .614 .6380001 C .605 .65200009 .559 .72700008 .448 .72700008 C .22500001 .72700008 0 .50600007 0 .27400003 C 0 .109000008 .118000019 0 .271 0 C .358 0 .43400003 .040000004 .487 .086 C .58000007 .16800002 .597 .25900004 .597 .26200003 C .597 .272 .587 .272 .58500006 .272 C .579 .272 .574 .27 .572 .26200003 C .563 .23300001 .54 .162 .47100003 .104 C .402 .048 .33900003 .031000004 .287 .031000004 C .19700001 .031000004 .091000009 .083000008 .091000009 .23900001 C .091000009 .29600004 .112 .45800004 .21200003 .57500007 C .273 .646 .367 .69600006 .45600004 .69600006 C .558 .69600006 .61700007 .619 .61700007 .503 C .61700007 .46300004 .614 .46200005 .614 .45200003 C .614 .44200004 .625 .44200004 .629 .44200004 C .642 .44200004 .642 .44400005 .647 .46200005 L .71000006 .71700009 Z "/>
</symbol>
<use xlink:href="#font_3_3" transform="matrix(9.9626,0,0,-9.9626,34.56913,117.7642)" fill="#000080"/>
<symbol id="font_3_4">
<path d="M .119 .078 C .109 .039 .10699999 .031000002 .028 .031000002 C .011 .031000002 0 .031000002 0 .012 C 0 0 .009 0 .028 0 L .35900004 0 C .56700006 0 .764 .21100001 .764 .43 C .764 .57100006 .679 .683 .529 .683 L .193 .683 C .17400001 .683 .163 .683 .163 .66400006 C .163 .652 .172 .652 .192 .652 C .205 .652 .223 .651 .235 .65000006 C .25100003 .648 .25700004 .64500007 .25700004 .634 C .25700004 .63000008 .256 .62700006 .25300003 .615 L .119 .078 M .33500005 .614 C .344 .64900007 .34600003 .652 .38900004 .652 L .49600003 .652 C .594 .652 .677 .59900006 .677 .467 C .677 .418 .657 .254 .572 .14400001 C .543 .10700001 .46400003 .031000002 .34100003 .031000002 L .228 .031000002 C .214 .031000002 .212 .031000002 .206 .032 C .19600001 .033 .193 .034 .193 .042000005 C .193 .045 .193 .047000003 .198 .065000008 L .33500005 .614 Z "/>
</symbol>
<use xlink:href="#font_3_4" transform="matrix(9.9626,0,0,-9.9626,47.4205,149.82402)" fill="#800000"/>
</g>
<symbol id="font_3_5">
<path d="M .305 .31300003 C .311 .33900003 .334 .43100003 .404 .43100003 C .409 .43100003 .433 .43100003 .454 .418 C .426 .41300003 .40600003 .388 .40600003 .36400003 C .40600003 .34800003 .417 .32900004 .444 .32900004 C .46600003 .32900004 .498 .34700004 .498 .38700003 C .498 .43900005 .439 .45300005 .405 .45300005 C .347 .45300005 .312 .40000005 .3 .37700004 C .275 .44300003 .221 .45300005 .19200002 .45300005 C .08800001 .45300005 .031000002 .32400004 .031000002 .29900003 C .031000002 .28900004 .041 .28900004 .043000007 .28900004 C .051000008 .28900004 .054000006 .291 .056 .3 C .09 .40600003 .156 .43100003 .19000001 .43100003 C .209 .43100003 .244 .42200003 .244 .36400003 C .244 .33300004 .22700002 .26600004 .19000001 .126 C .17400001 .064 .13900002 .022000002 .095000009 .022000002 C .08900001 .022000002 .06600001 .022000002 .045 .035 C .07000001 .040000004 .09200001 .061 .09200001 .089 C .09200001 .116000007 .07000001 .124000009 .055000009 .124000009 C .025 .124000009 0 .098000008 0 .06600001 C 0 .020000002 .050000006 0 .094000007 0 C .16000001 0 .19600001 .07000001 .19900002 .076000008 C .21100001 .039 .24700003 0 .307 0 C .41 0 .467 .12900001 .467 .15400002 C .467 .16400002 .458 .16400002 .455 .16400002 C .446 .16400002 .444 .16000001 .442 .15300001 C .409 .046 .341 .022000002 .30900003 .022000002 C .27 .022000002 .254 .054 .254 .08800001 C .254 .11000001 .26 .13200002 .271 .17600002 L .305 .31300003 Z "/>
</symbol>
<use xlink:href="#font_3_5" transform="matrix(9.9626,0,0,-9.9626,198.4349,96.19661)"/>
<symbol id="font_3_6">
<path d="M .45700003 .586 C .461 .6 .461 .602 .461 .609 C .461 .62700006 .447 .63600006 .432 .63600006 C .42200003 .63600006 .40600003 .63 .397 .615 C .395 .61 .387 .579 .38300003 .561 C .37600003 .535 .36900003 .508 .363 .48100005 L .318 .301 C .314 .286 .271 .21600002 .20500002 .21600002 C .15400002 .21600002 .143 .26000003 .143 .29700003 C .143 .34300003 .16000001 .40500004 .194 .49300004 C .21000001 .53400006 .21400002 .545 .21400002 .56500008 C .21400002 .61 .18200001 .6470001 .13200002 .6470001 C .037 .6470001 0 .50200006 0 .49300004 C 0 .48300005 .01 .48300005 .012 .48300005 C .022000002 .48300005 .023 .485 .028000003 .50100007 C .055000009 .595 .095000009 .625 .12900001 .625 C .13700001 .625 .15400002 .625 .15400002 .59300008 C .15400002 .568 .14400001 .54200008 .13700001 .523 C .097 .41700004 .079 .36 .079 .31300003 C .079 .224 .142 .194 .201 .194 C .24000003 .194 .274 .21100001 .30200003 .23900002 C .289 .187 .277 .13800001 .237 .08500001 C .21100001 .051 .17300001 .022 .127 .022 C .113000009 .022 .068 .025000006 .051000008 .06400001 C .067 .06400001 .080000009 .06400001 .094000007 .076000008 C .104 .08500001 .11400001 .098000008 .11400001 .117000009 C .11400001 .148 .087000008 .15200001 .07700001 .15200001 C .054000006 .15200001 .021 .136 .021 .087000008 C .021 .037 .065000008 0 .127 0 C .23 0 .333 .091000009 .361 .20400001 L .45700003 .586 Z "/>
</symbol>
<use xlink:href="#font_3_6" transform="matrix(9.9626,0,0,-9.9626,19.515917,9.726355)"/>
</svg>
