<?xml version="1.0" encoding="UTF-8" standalone="no"?>
<!DOCTYPE svg PUBLIC "-//W3C//DTD SVG 1.1//EN" "http://www.w3.org/Graphics/SVG/1.1/DTD/svg11.dtd">
<svg xmlns="http://www.w3.org/2000/svg" xmlns:xlink="http://www.w3.org/1999/xlink" version="1.1" width="157.635pt" height="131.464pt" viewBox="0 0 157.635 131.464">
<path transform="matrix(1,0,0,-1,9.759,5093.3269)" stroke-width=".19925" stroke-linecap="butt" stroke-miterlimit="10" stroke-linejoin="miter" fill="none" stroke="#929292" d="M 0 5022.0368 L 0 5026.277 M 33.79095 5022.0368 L 33.79095 5026.277 M 101.37286 5022.0368 L 101.37286 5026.277 M 135.16382 5022.0368 L 135.16382 5026.277 "/>
<path transform="matrix(1,0,0,-1,9.759,5093.3269)" stroke-width=".19925" stroke-linecap="butt" stroke-miterlimit="10" stroke-linejoin="miter" fill="none" stroke="#929292" d="M 65.45587 4968.9465 L 69.70793 4968.9465 M 65.45587 4996.552 L 69.70793 4996.552 M 65.45587 5051.762 L 69.70793 5051.762 M 65.45587 5079.367 L 69.70793 5079.367 "/>
<path transform="matrix(1,0,0,-1,9.759,5093.3269)" stroke-width=".3985" stroke-linecap="butt" stroke-miterlimit="10" stroke-linejoin="miter" fill="none" stroke="#000000" d="M 0 5024.1569 L 133.1713 5024.1569 "/>
<path transform="matrix(1,0,0,-1,142.9303,69.16992)" d="M 1.99252 0 L -1.19551 1.59401 L 0 0 L -1.19551 -1.59401 "/>
<path transform="matrix(1,0,0,-1,9.759,5093.3269)" stroke-width=".3985" stroke-linecap="butt" stroke-miterlimit="10" stroke-linejoin="miter" fill="none" stroke="#000000" d="M 67.58191 4968.9465 L 67.58191 5077.375 "/>
<path transform="matrix(0,-1,-1,-0,77.34091,15.95166)" d="M 1.99252 0 L -1.19551 1.59401 L 0 0 L -1.19551 -1.59401 "/>
<symbol id="font_0_1">
<path d="M .57600006 0 C .59300008 0 .611 0 .611 .019999996 C .611 .040000008 .59300008 .040000008 .57600006 .040000008 L .035000005 .040000008 C .018 .040000008 0 .040000008 0 .019999996 C 0 0 .018 0 .035000005 0 L .57600006 0 Z "/>
</symbol>
<use xlink:href="#font_0_1" transform="matrix(9.9626,0,0,-9.9626,4.220896,79.077259)"/>
<symbol id="font_1_2">
<path d="M .07700001 .07700001 L .18300002 .18 C .33900003 .31800003 .39900003 .372 .39900003 .47200004 C .39900003 .586 .30900003 .666 .18700002 .666 C .074 .666 0 .574 0 .485 C 0 .42900003 .05 .42900003 .053000008 .42900003 C .07000001 .42900003 .105000007 .441 .105000007 .48200003 C .105000007 .508 .08700001 .53400006 .052000006 .53400006 C .044000005 .53400006 .042000008 .53400006 .039 .53300008 C .062000004 .59800007 .11600001 .63500007 .17400001 .63500007 C .26500003 .63500007 .308 .554 .308 .47200004 C .308 .39200003 .25800003 .31300003 .20300003 .25100003 L .011000004 .037 C 0 .026 0 .024 0 0 L .37100003 0 L .39900003 .17400001 L .374 .17400001 C .36900003 .14400001 .36200003 .1 .352 .085 C .345 .07700001 .279 .07700001 .257 .07700001 L .07700001 .07700001 Z "/>
</symbol>
<use xlink:href="#font_1_2" transform="matrix(9.9626,0,0,-9.9626,11.6411299,81.36865)"/>
<use xlink:href="#font_0_1" transform="matrix(9.9626,0,0,-9.9626,38.011899,79.077259)"/>
<symbol id="font_1_1">
<path d="M .205 .64000007 C .205 .66400006 .205 .666 .18200003 .666 C .120000008 .60200008 .032000007 .60200008 0 .60200008 L 0 .57100006 C .020000004 .57100006 .07900001 .57100006 .13100001 .597 L .13100001 .079 C .13100001 .043 .128 .031000002 .038000004 .031000002 L .0060000049 .031000002 L .0060000049 0 C .04100001 .003 .128 .003 .168 .003 C .20800002 .003 .29500003 .003 .33000005 0 L .33000005 .031000002 L .29800005 .031000002 C .20800002 .031000002 .205 .042000005 .205 .079 L .205 .64000007 Z "/>
</symbol>
<use xlink:href="#font_1_1" transform="matrix(9.9626,0,0,-9.9626,45.820676,81.36865)"/>
<use xlink:href="#font_1_1" transform="matrix(9.9626,0,0,-9.9626,109.52667,81.36865)"/>
<use xlink:href="#font_1_2" transform="matrix(9.9626,0,0,-9.9626,142.92913,81.36865)"/>
<use xlink:href="#font_0_1" transform="matrix(9.9626,0,0,-9.9626,59.717897,124.94835)"/>
<use xlink:href="#font_1_2" transform="matrix(9.9626,0,0,-9.9626,67.13813,127.239749)"/>
<use xlink:href="#font_0_1" transform="matrix(9.9626,0,0,-9.9626,59.717897,97.34336)"/>
<use xlink:href="#font_1_1" transform="matrix(9.9626,0,0,-9.9626,67.52667,99.63476)"/>
<use xlink:href="#font_1_1" transform="matrix(9.9626,0,0,-9.9626,67.52567,44.839838)"/>
<use xlink:href="#font_1_2" transform="matrix(9.9626,0,0,-9.9626,67.13713,17.23487)"/>
<clipPath id="cp2">
<path transform="matrix(1,0,0,-1,9.759,5093.3269)" d="M 0 4968.9465 L 135.16382 4968.9465 L 135.16382 5079.367 L 0 5079.367 Z "/>
</clipPath>
<g clip-path="url(#cp2)">
<path transform="matrix(1,0,0,-1,9.759,5093.3269)" stroke-width="1.19553" stroke-linecap="butt" stroke-miterlimit="10" stroke-linejoin="miter" fill="none" stroke="#000080" d="M 0 0 C 0 0 4.069 1429.814 5.63179 1867.6897 C 7.19458 2305.5655 9.7008 2859.3072 11.2636 3155.9029 C 12.82639 3452.4984 15.3326 3814.2989 16.8954 4005.344 C 18.45819 4196.389 20.9644 4417.924 22.52719 4532.8229 C 24.09 4647.7219 26.5962 4771.0285 28.159 4833.4548 C 29.72179 4895.8806 32.228 4954.263 33.7908 4982.7468 C 35.35359 5011.23 37.8598 5030.2238 39.42259 5038.743 C 40.9854 5047.263 43.49161 5045.576 45.0544 5044.151 C 46.61719 5042.7258 49.12343 5033.192 50.68622 5028.471 C 52.24901 5023.7507 54.75522 5014.272 56.31802 5010.1276 C 57.88081 5005.983 60.38702 5000.484 61.94981 4998.6008 C 63.51262 4996.717 66.01883 4996.086 67.58162 4996.552 C 69.14441 4997.0178 71.65062 5000.0588 73.21342 5001.958 C 74.77621 5003.8576 77.28242 5008.2375 78.84521 5010.24 C 80.40802 5012.2429 82.91425 5015.439 84.47704 5016.3928 C 86.03983 5017.346 88.54605 5017.5935 90.10884 5017.114 C 91.67163 5016.634 94.17784 5013.873 95.74063 5012.9357 C 97.30344 5011.9978 99.80965 5008.8249 101.37244 5010.354 C 102.93523 5011.884 105.44145 5014.495 107.00424 5023.9597 C 108.56703 5033.4235 111.07326 5052.5666 112.63606 5078.565 C 114.19885 5104.5637 116.70506 5156.483 118.26785 5211.3395 C 119.83066 5266.196 122.33687 5373.5808 123.89966 5473.9328 C 125.46245 5574.2849 127.96866 5767.2165 129.53147 5934.6086 C 131.09426 6102.0007 135.16326 6680.3796 135.16326 6680.3796 "/>
<symbol id="font_3_1">
<path d="M .14400001 .115 C .10400002 .048 .065 .034 .021000002 .031000002 C .009000003 .030000002 0 .030000002 0 .011000001 C 0 .0050000005 .0050000029 0 .013 0 C .040000004 0 .07100001 .003 .09900001 .003 C .13200002 .003 .16700001 0 .19900002 0 C .20500002 0 .21800003 0 .21800003 .019000002 C .21800003 .030000002 .20900002 .031000002 .20200002 .031000002 C .17900002 .033 .15500002 .041 .15500002 .066 C .15500002 .078 .16100002 .089 .16900002 .10300001 L .245 .231 L .49600003 .231 C .49800007 .21000001 .512 .074 .512 .064 C .512 .034 .46000005 .031000002 .44000004 .031000002 C .42600004 .031000002 .41600005 .031000002 .41600005 .011000001 C .41600005 0 .42800004 0 .43000005 0 C .47100006 0 .514 .003 .555 .003 C .58 .003 .643 0 .668 0 C .674 0 .686 0 .686 .020000002 C .686 .031000002 .676 .031000002 .663 .031000002 C .601 .031000002 .601 .038000004 .598 .067 L .537 .69200006 C .535 .712 .535 .716 .518 .716 C .502 .716 .49800007 .70900008 .492 .69900009 L .14400001 .115 M .26400004 .26200003 L .46100004 .592 L .493 .26200003 L .26400004 .26200003 Z "/>
</symbol>
<use xlink:href="#font_3_1" transform="matrix(9.9626,0,0,-9.9626,121.830699,45.033685)" fill="#000080"/>
</g>
<symbol id="font_3_2">
<path d="M .305 .31300003 C .311 .33900003 .334 .43100003 .404 .43100003 C .409 .43100003 .433 .43100003 .454 .418 C .426 .41300003 .40600003 .388 .40600003 .36400003 C .40600003 .34800003 .417 .32900004 .444 .32900004 C .46600003 .32900004 .498 .34700004 .498 .38700003 C .498 .43900005 .439 .45300005 .405 .45300005 C .347 .45300005 .312 .40000005 .3 .37700004 C .275 .44300003 .221 .45300005 .19200002 .45300005 C .08800001 .45300005 .031000002 .32400004 .031000002 .29900003 C .031000002 .28900004 .041 .28900004 .043000007 .28900004 C .051000008 .28900004 .054000006 .291 .056 .3 C .09 .40600003 .156 .43100003 .19000001 .43100003 C .209 .43100003 .244 .42200003 .244 .36400003 C .244 .33300004 .22700002 .26600004 .19000001 .126 C .17400001 .064 .13900002 .022000002 .095000009 .022000002 C .08900001 .022000002 .06600001 .022000002 .045 .035 C .07000001 .040000004 .09200001 .061 .09200001 .089 C .09200001 .116000007 .07000001 .124000009 .055000009 .124000009 C .025 .124000009 0 .098000008 0 .06600001 C 0 .020000002 .050000006 0 .094000007 0 C .16000001 0 .19600001 .07000001 .19900002 .076000008 C .21100001 .039 .24700003 0 .307 0 C .41 0 .467 .12900001 .467 .15400002 C .467 .16400002 .458 .16400002 .455 .16400002 C .446 .16400002 .444 .16000001 .442 .15300001 C .409 .046 .341 .022000002 .30900003 .022000002 C .27 .022000002 .254 .054 .254 .08800001 C .254 .11000001 .26 .13200002 .271 .17600002 L .305 .31300003 Z "/>
</symbol>
<use xlink:href="#font_3_2" transform="matrix(9.9626,0,0,-9.9626,148.8359,70.37912)"/>
<symbol id="font_3_3">
<path d="M .45700003 .586 C .461 .6 .461 .602 .461 .609 C .461 .62700006 .447 .63600006 .432 .63600006 C .42200003 .63600006 .40600003 .63 .397 .615 C .395 .61 .387 .579 .38300003 .561 C .37600003 .535 .36900003 .508 .363 .48100005 L .318 .301 C .314 .286 .271 .21600002 .20500002 .21600002 C .15400002 .21600002 .143 .26000003 .143 .29700003 C .143 .34300003 .16000001 .40500004 .194 .49300004 C .21000001 .53400006 .21400002 .545 .21400002 .56500008 C .21400002 .61 .18200001 .6470001 .13200002 .6470001 C .037 .6470001 0 .50200006 0 .49300004 C 0 .48300005 .01 .48300005 .012 .48300005 C .022000002 .48300005 .023 .485 .028000003 .50100007 C .055000009 .595 .095000009 .625 .12900001 .625 C .13700001 .625 .15400002 .625 .15400002 .59300008 C .15400002 .568 .14400001 .54200008 .13700001 .523 C .097 .41700004 .079 .36 .079 .31300003 C .079 .224 .142 .194 .201 .194 C .24000003 .194 .274 .21100001 .30200003 .23900002 C .289 .187 .277 .13800001 .237 .08500001 C .21100001 .051 .17300001 .022 .127 .022 C .113000009 .022 .068 .025000006 .051000008 .06400001 C .067 .06400001 .080000009 .06400001 .094000007 .076000008 C .104 .08500001 .11400001 .098000008 .11400001 .117000009 C .11400001 .148 .087000008 .15200001 .07700001 .15200001 C .054000006 .15200001 .021 .136 .021 .087000008 C .021 .037 .065000008 0 .127 0 C .23 0 .333 .091000009 .361 .20400001 L .45700003 .586 Z "/>
</symbol>
<use xlink:href="#font_3_3" transform="matrix(9.9626,0,0,-9.9626,75.01792,9.725927)"/>
</svg>
