<?xml version="1.0" encoding="UTF-8" standalone="no"?>
<!DOCTYPE svg PUBLIC "-//W3C//DTD SVG 1.1//EN" "http://www.w3.org/Graphics/SVG/1.1/DTD/svg11.dtd">
<svg xmlns="http://www.w3.org/2000/svg" xmlns:xlink="http://www.w3.org/1999/xlink" version="1.1" width="207.038pt" height="158.987pt" viewBox="0 0 207.038 158.987">
<path transform="matrix(1,0,0,-1,.199,158.788)" stroke-width="1" stroke-linecap="butt" stroke-miterlimit="10" stroke-linejoin="miter" fill="none" stroke="#000000" d="M 0 72.8509 L 192.2766 72.8509 "/>
<path transform="matrix(1,0,0,-1,192.4756,85.937099)" d="M 1.99252 0 L -1.19551 1.59401 L 0 0 L -1.19551 -1.59401 "/>
<path transform="matrix(1,0,0,-1,.199,158.788)" stroke-width="1" stroke-linecap="butt" stroke-miterlimit="10" stroke-linejoin="miter" fill="none" stroke="#000000" d="M 97.13455 0 L 97.13455 143.7093 "/>
<path transform="matrix(0,-1,-1,-0,97.33355,15.07869)" d="M 1.99252 0 L -1.19551 1.59401 L 0 0 L -1.19551 -1.59401 "/>
<clipPath id="cp0">
<path transform="matrix(1,0,0,-1,.199,158.788)" d="M 0 0 L 194.26912 0 L 194.26912 145.70183 L 0 145.70183 Z "/>
</clipPath>
<g clip-path="url(#cp0)">
<path transform="matrix(1,0,0,-1,.199,158.788)" stroke-width="1.19553" stroke-linecap="butt" stroke-miterlimit="10" stroke-linejoin="miter" fill="none" stroke="#80001a" d="M 99.56291 315.68733 C 99.56291 315.68733 99.66655 305.7064 99.70633 302.14674 C 99.74611 298.58708 99.80997 293.22373 99.84975 290.03163 C 99.88953 286.83955 99.95338 282.01954 99.99316 279.14045 C 100.03294 276.26139 100.0968 271.8925 100.13658 269.28129 C 100.17636 266.67008 100.2402 262.69734 100.28 260.32063 C 100.31978 257.9439 100.38362 254.32479 100.42342 252.1516 C 100.4632 249.9784 100.52704 246.65364 100.56682 244.65767 C 100.60661 242.6617 100.67046 239.60425 100.71024 237.76596 C 100.75003 235.92768 100.81387 233.10732 100.85365 231.40851 C 100.89343 229.7097 100.95729 227.09729 100.99707 225.52214 C 101.03685 223.947 101.1007 221.52022 101.14049 220.05591 C 101.18028 218.59162 101.24413 216.33373 101.28392 214.96848 C 101.32372 213.60324 101.38754 211.49112 101.42734 210.21617 C 101.46712 208.94123 101.53096 206.97328 101.57076 205.77956 C 101.61053 204.58582 101.67438 202.73311 101.71416 201.61248 C 101.75395 200.49185 101.8178 198.75539 101.85757 197.70282 C 101.89737 196.65026 101.96121 195.01786 102.00099 194.02628 C 102.04079 193.0347 102.10463 191.49213 102.14441 190.55614 C 102.18419 189.62015 102.24805 188.16439 102.28783 187.28028 C 102.3276 186.39618 102.39146 185.02104 102.43124 184.18412 C 102.47102 183.34719 102.53487 182.04236 102.57466 181.24823 C 102.61444 180.45409 102.67828 179.21349 102.71808 178.46045 C 102.75786 177.70743 102.82169 176.53614 102.8615 175.82083 C 102.90129 175.10553 102.96512 173.9863 103.00491 173.30504 C 103.04472 172.62378 103.10855 171.55992 103.14833 170.91066 C 103.18813 170.2614 103.25197 169.24518 103.29175 168.62558 C 103.33153 168.00598 103.39539 167.0369 103.43517 166.44492 C 103.47495 165.85294 103.5388 164.92432 103.57858 164.35895 C 103.61836 163.7936 103.6822 162.91089 103.722 162.37012 C 103.76178 161.82936 103.82562 160.97962 103.86542 160.46143 C 103.9052 159.94324 103.96904 159.13193 104.00883 158.6353 C 104.04861 158.13866 104.11246 157.35909 104.15224 156.882 C 104.19203 156.40493 104.25587 155.65496 104.29565 155.19673 C 104.33545 154.73851 104.39928 154.01912 104.43907 153.57944 C 104.47887 153.13976 104.54272 152.45056 104.5825 152.02771 C 104.62228 151.60488 104.68613 150.93952 104.7259 150.53183 C 104.76569 150.12416 104.82954 149.48192 104.86934 149.0894 C 104.90913 148.69689 104.97296 148.08116 105.01276 147.70279 C 105.05254 147.32444 105.11638 146.72724 105.15617 146.36235 C 105.19595 145.99745 105.2598 145.42462 105.29958 145.07288 C 105.33937 144.72115 105.40321 144.16709 105.443 143.82714 C 105.48279 143.48717 105.54663 142.95149 105.58641 142.62267 C 105.62619 142.29383 105.69005 141.7751 105.72983 141.45705 C 105.7696 141.13899 105.83347 140.63758 105.87325 140.33029 C 105.91302 140.02301 105.97688 139.53955 106.01666 139.24237 C 106.05644 138.9452 106.12029 138.47653 106.16008 138.18848 C 106.19986 137.9004 106.2637 137.44542 106.3035 137.16613 C 106.34328 136.88681 106.4071 136.4459 106.4469 136.17537 C 106.48671 135.90482 106.55054 135.4786 106.59033 135.21614 C 106.63014 134.95369 106.69397 134.5387 106.73375 134.28366 C 106.77353 134.02861 106.83739 133.62519 106.87717 133.37789 C 106.91695 133.13057 106.9808 132.74114 107.02058 132.50124 C 107.06036 132.26136 107.12422 131.88237 107.164 131.64888 C 107.20378 131.41539 107.26762 131.04514 107.30742 130.81839 C 107.3472 130.59163 107.41104 130.23528 107.45084 130.01459 C 107.49062 129.7939 107.55446 129.44275 107.59424 129.2278 C 107.63403 129.01285 107.69788 128.67386 107.73766 128.4653 C 107.77745 128.25675 107.8413 127.9278 107.88107 127.72464 C 107.92085 127.52148 107.98471 127.19876 108.02449 127.00099 C 108.06427 126.80324 108.12811 126.49191 108.16791 126.2992 C 108.2077 126.10649 108.27155 125.80032 108.31134 125.61198 C 108.35114 125.42365 108.41496 125.12468 108.45476 124.94174 C 108.49454 124.7588 108.55838 124.47194 108.59818 124.29338 C 108.63795 124.1148 108.7018 123.82889 108.74158 123.65471 C 108.78137 123.48053 108.84521 123.20738 108.885 123.0379 C 108.92479 122.86844 108.98863 122.59933 109.02841 122.43324 C 109.06819 122.26715 109.13205 122.0031 109.17183 121.84071 C 109.21161 121.67833 109.27547 121.42111 109.31525 121.26277 C 109.35503 121.10443 109.41888 120.85368 109.45866 120.69939 C 109.49844 120.54509 109.56229 120.30118 109.60208 120.15057 C 109.64186 119.99997 109.70569 119.76147 109.7455 119.61392 C 109.7853 119.46635 109.84912 119.23149 109.88892 119.08696 C 109.92873 118.94241 109.99255 118.71297 110.03233 118.57214 C 110.07213 118.4313 110.13597 118.21037 110.17575 118.0719 C 110.21553 117.93343 110.27939 117.70952 110.31917 117.57408 C 110.35895 117.43864 110.4228 117.22708 110.46259 117.09569 C 110.50237 116.96431 110.56622 116.7564 110.606 116.62703 C 110.64578 116.49767 110.70963 116.29022 110.74942 116.16321 C 110.7892 116.0362 110.85304 115.83553 110.89284 115.71153 C 110.93262 115.58755 110.99646 115.39085 111.03624 115.26958 C 111.07603 115.14828 111.13988 114.95657 111.17966 114.83731 C 111.21945 114.71806 111.2833 114.52684 111.32307 114.40993 C 111.36285 114.29303 111.4267 114.10855 111.46649 113.99467 C 111.50629 113.8808 111.57013 113.70134 111.60992 113.58914 C 111.64972 113.47696 111.71356 113.29587 111.75334 113.18604 C 111.79312 113.0762 111.85696 112.90463 111.89676 112.7975 C 111.93654 112.69037 112.00038 112.5196 112.04018 112.41382 C 112.07996 112.30803 112.1438 112.13875 112.18358 112.03499 C 112.22337 111.93121 112.28722 111.76762 112.327 111.66588 C 112.36679 111.56413 112.43063 111.40135 112.47041 111.30162 C 112.5102 111.2019 112.57405 111.04478 112.61383 110.94708 C 112.65361 110.84938 112.71747 110.69374 112.75725 110.5974 C 112.79703 110.50104 112.86089 110.34723 112.90067 110.25256 C 112.94044 110.15791 113.00427 110.00732 113.04408 109.91502 C 113.08388 109.82272 113.14772 109.67816 113.18752 109.58719 C 113.2273 109.49623 113.29112 109.34898 113.3309 109.25937 C 113.3707 109.16975 113.43452 109.02917 113.47432 108.94124 C 113.51413 108.85332 113.57796 108.7118 113.61775 108.62556 C 113.65755 108.53932 113.72139 108.4045 113.76117 108.3196 C 113.80095 108.2347 113.8648 108.0975 113.90459 108.01363 C 113.94437 107.92973 114.00822 107.79713 114.048 107.71494 C 114.08778 107.63274 114.15163 107.50127 114.19142 107.4211 C 114.2312 107.34091 114.29504 107.21616 114.33484 107.13698 C 114.37462 107.05782 114.43846 106.92859 114.47824 106.85043 C 114.51804 106.77226 114.58188 106.65009 114.62166 106.5736 C 114.66145 106.49712 114.7253 106.37465 114.76508 106.2992 C 114.80486 106.22372 114.86871 106.1041 114.9085 106.02965 C 114.94827 105.95518 115.01212 105.83563 115.05191 105.76253 C 115.0917 105.68942 115.15555 105.5748 115.19534 105.5027 C 115.23514 105.43059 115.29897 105.31393 115.33876 105.24284 C 115.37854 105.17177 115.44238 105.0597 115.48218 104.9903 C 115.52196 104.9209 115.5858 104.81134 115.62558 104.74261 C 115.66537 104.67389 115.72922 104.56262 115.769 104.4949 C 115.80879 104.4272 115.87263 104.32088 115.91241 104.2545 C 115.9522 104.18814 116.01605 104.0819 116.05583 104.01654 C 116.09561 103.95119 116.15947 103.8481 116.19925 103.78342 C 116.23903 103.71873 116.30289 103.61395 116.34267 103.5503 C 116.38245 103.48662 116.44629 103.38712 116.48608 103.32445 C 116.52586 103.26178 116.5897 103.16026 116.6295 103.0986 C 116.66928 103.03696 116.73311 102.94069 116.7729 102.88005 C 116.81271 102.81941 116.87654 102.72182 116.91634 102.6615 C 116.95615 102.6012 117.01997 102.50467 117.05975 102.44537 C 117.09953 102.3861 117.16339 102.29207 117.20317 102.23412 C 117.24295 102.17616 117.30681 102.08498 117.34659 102.02771 C 117.38637 101.97044 117.45023 101.87788 117.49 101.82129 C 117.52979 101.7647 117.59363 101.67531 117.63342 101.61974 C 117.6732 101.56415 117.73705 101.4762 117.77684 101.42061 C 117.81662 101.36504 117.88046 101.27362 117.92024 101.21906 C 117.96004 101.16447 118.02388 101.0808 118.06366 101.02722 C 118.10345 100.97365 118.1673 100.88582 118.20708 100.83293 C 118.24686 100.78004 118.3107 100.69751 118.3505 100.64597 C 118.39029 100.59442 118.45413 100.51295 118.49393 100.4614 C 118.53372 100.40985 118.59756 100.32562 118.63734 100.27441 C 118.67712 100.22322 118.74097 100.14215 118.78076 100.0923 C 118.82054 100.04243 118.88438 99.9642 118.92418 99.91502 C 118.96396 99.86584 119.0278 99.7866 119.06758 99.73776 C 119.10738 99.68892 119.17122 99.61142 119.211 99.56291 C 119.2508 99.5144 119.31464 99.4359 119.35442 99.38806 C 119.3942 99.34023 119.45805 99.26456 119.49783 99.21808 C 119.53761 99.17159 119.60147 99.0991 119.64125 99.05295 C 119.68103 99.0068 119.74489 98.93121 119.78467 98.88539 C 119.82445 98.83958 119.88829 98.76782 119.92809 98.72269 C 119.96786 98.67755 120.0317 98.6048 120.0715 98.56 C 120.1113 98.5152 120.17514 98.44353 120.21492 98.39972 C 120.25471 98.35593 120.31854 98.28743 120.35832 98.24431 C 120.39812 98.2012 120.46196 98.132 120.50175 98.08888 C 120.54155 98.04578 120.6054 97.97626 120.64517 97.93347 C 120.68495 97.8907 120.74881 97.8226 120.78859 97.78049 C 120.82837 97.73837 120.89223 97.67137 120.932 97.62993 C 120.97179 97.58849 121.03563 97.52255 121.07542 97.4818 C 121.1152 97.44104 121.17905 97.37653 121.21884 97.3361 C 121.25862 97.29568 121.32246 97.23045 121.36224 97.19038 C 121.40204 97.15033 121.46588 97.08688 121.50566 97.04736 C 121.54546 97.00786 121.6093 96.94467 121.64908 96.90555 C 121.68886 96.86644 121.75272 96.80397 121.7925 96.76543 C 121.83228 96.7269 121.89613 96.66582 121.93591 96.62775 C 121.9757 96.58969 122.03955 96.52875 122.07933 96.49103 C 122.11911 96.4533 122.18295 96.39307 122.22275 96.35577 C 122.26253 96.31848 122.32635 96.25903 122.36615 96.22221 C 122.40593 96.1854 122.46977 96.1268 122.50955 96.09035 C 122.54935 96.0539 122.61319 95.99553 122.65297 95.95946 C 122.69276 95.92339 122.7566 95.86588 122.79639 95.83028 C 122.83617 95.79466 122.90002 95.73799 122.9398 95.70279 C 122.97958 95.66757 123.04344 95.6114 123.08322 95.5765 C 123.123 95.5416 123.18686 95.48576 123.22664 95.4512 C 123.26642 95.41666 123.33026 95.36145 123.37006 95.32736 C 123.40984 95.29326 123.47366 95.23917 123.51346 95.20546 C 123.55324 95.17174 123.61708 95.11763 123.65686 95.08427 C 123.69666 95.05092 123.7605 94.99799 123.80028 94.96504 C 123.84007 94.93211 123.90392 94.87941 123.9437 94.84677 C 123.98347 94.81413 124.04733 94.76204 124.08711 94.72974 C 124.12689 94.69743 124.19075 94.6458 124.23053 94.61389 C 124.27031 94.582 124.33417 94.53134 124.37395 94.49977 C 124.41373 94.46822 124.47755 94.4177 124.51735 94.38637 C 124.55713 94.35504 124.62097 94.30496 124.66077 94.27394 C 124.70055 94.2429 124.76439 94.19336 124.80417 94.16272 C 124.84396 94.13206 124.9078 94.08325 124.94759 94.05295 C 124.98738 94.02263 125.05122 93.97414 125.091 93.94415 C 125.13078 93.91418 125.19464 93.86647 125.23442 93.83684 C 125.2742 93.80719 125.33806 93.75995 125.37784 93.73047 C 125.41762 93.70099 125.48146 93.65355 125.52124 93.62434 C 125.56102 93.59514 125.62486 93.54872 125.66466 93.51993 C 125.70444 93.49113 125.76828 93.44527 125.80807 93.41673 C 125.84785 93.3882 125.9117 93.34248 125.95148 93.31425 C 125.99127 93.28603 126.05511 93.24118 126.0949 93.21321 C 126.13469 93.18526 126.19853 93.1404 126.23831 93.11269 C 126.27809 93.08498 126.34195 93.04083 126.38173 93.01337 C 126.42151 92.98592 126.48537 92.94196 126.52515 92.91478 C 126.56493 92.88759 126.62877 92.84431 126.66855 92.8174 C 126.70833 92.7905 126.77217 92.74738 126.81197 92.72075 C 126.85175 92.69414 126.91559 92.65193 126.95538 92.62555 C 126.99516 92.59918 127.059 92.55678 127.09879 92.53061 C 127.13858 92.50443 127.20242 92.46274 127.2422 92.43687 C 127.282 92.411 127.34584 92.36977 127.38562 92.3441 C 127.42542 92.31845 127.48926 92.27719 127.52904 92.25183 C 127.56882 92.22647 127.63266 92.18639 127.67244 92.16125 C 127.71222 92.13612 127.77608 92.09557 127.81586 92.07068 C 127.85564 92.04579 127.9195 92.00652 127.95927 91.9818 C 127.99905 91.95708 128.0629 91.91696 128.10269 91.89244 C 128.14247 91.86792 128.20632 91.8292 128.24611 91.80501 C 128.28589 91.78082 128.34973 91.74211 128.38951 91.7181 C 128.4293 91.69408 128.49315 91.65562 128.53293 91.63188 C 128.57273 91.60814 128.63655 91.57047 128.67633 91.54689 C 128.71611 91.5233 128.77997 91.48534 128.81975 91.46188 C 128.85953 91.43845 128.92339 91.40097 128.96317 91.37787 C 129.00295 91.35477 129.0668 91.31825 129.10659 91.2953 C 129.14636 91.27237 129.2102 91.23528 129.25 91.2125 C 129.28978 91.18973 129.35363 91.15367 129.39342 91.13113 C 129.4332 91.10861 129.49704 91.0724 129.53682 91.05003 C 129.57662 91.02768 129.64046 90.99203 129.68024 90.96991 C 129.72003 90.94777 129.78386 90.91246 129.82364 90.89049 C 129.86342 90.86853 129.92728 90.83336 129.96706 90.81158 C 130.00684 90.7898 130.0707 90.75494 130.11048 90.73338 C 130.15026 90.71182 130.21411 90.67752 130.25389 90.65616 C 130.29367 90.6348 130.35752 90.60066 130.39731 90.57942 C 130.43709 90.55817 130.50093 90.524 130.54073 90.50291 C 130.5805 90.48183 130.64435 90.44823 130.68413 90.42741 C 130.72393 90.4066 130.78775 90.37347 130.82753 90.35286 C 130.86733 90.33224 130.93117 90.29927 130.97095 90.2788 C 131.01073 90.25832 131.07459 90.22554 131.11437 90.2052 C 131.15415 90.18486 131.218 90.15228 131.25778 90.13211 C 131.29756 90.11194 131.36142 90.07976 131.4012 90.05975 C 131.44098 90.03975 131.50482 90.00772 131.54462 89.98787 C 131.5844 89.96803 131.64824 89.93636 131.68804 89.91672 C 131.72782 89.89708 131.79164 89.86572 131.83142 89.8463 C 131.87122 89.82687 131.93506 89.79588 131.97484 89.7766 C 132.01464 89.75731 132.07848 89.72635 132.11826 89.70715 C 132.15804 89.68796 132.2219 89.65721 132.26168 89.63818 C 132.30146 89.61916 132.36531 89.5888 132.40509 89.56995 C 132.44487 89.55107 132.50873 89.5209 132.54851 89.5022 C 132.58829 89.4835 132.65213 89.4537 132.69193 89.43518 C 132.7317 89.41664 132.79555 89.38707 132.83535 89.36864 C 132.87512 89.35022 132.93895 89.32063 132.97873 89.30234 C 133.01853 89.28406 133.08237 89.25487 133.12215 89.23677 C 133.16194 89.21869 133.22579 89.18993 133.26557 89.17194 C 133.30535 89.15396 133.3692 89.12492 133.40898 89.1071 C 133.44876 89.08928 133.51262 89.06116 133.5524 89.04349 C 133.59218 89.0258 133.65604 88.99721 133.69582 88.97961 C 133.7356 88.96204 133.79944 88.93405 133.83924 88.91672 C 133.87902 88.89937 133.94284 88.87183 133.98264 88.85455 C 134.02242 88.83728 134.08626 88.80933 134.12604 88.79214 C 134.16584 88.77496 134.22968 88.74774 134.26946 88.7307 C 134.30925 88.71365 134.3731 88.68617 134.41287 88.66927 C 134.45265 88.65236 134.51651 88.6255 134.55629 88.6088 C 134.59607 88.59209 134.65993 88.56546 134.6997 88.54883 C 134.73949 88.5322 134.80335 88.50533 134.84313 88.48885 C 134.8829 88.47235 134.94673 88.44621 134.98653 88.42984 C 135.0263 88.41347 135.09015 88.38712 135.12995 88.37082 C 135.16973 88.35452 135.23357 88.32843 135.27335 88.3123 C 135.31314 88.29617 135.37699 88.27046 135.41677 88.2545 C 135.45656 88.23854 135.5204 88.21304 135.56018 88.19719 C 135.59996 88.18134 135.66382 88.15591 135.7036 88.14012 C 135.74338 88.12433 135.80724 88.099 135.84702 88.08331 C 135.8868 88.06763 135.95066 88.04247 135.99044 88.02698 C 136.03022 88.01147 136.09404 87.987 136.13384 87.9716 C 136.17362 87.9562 136.23746 87.9313 136.27725 87.91599 C 136.31703 87.90067 136.38088 87.87627 136.42066 87.8611 C 136.46045 87.84595 136.52429 87.82176 136.56407 87.80672 C 136.60387 87.79166 136.66771 87.76758 136.70749 87.75256 C 136.74727 87.73755 136.81113 87.71332 136.8509 87.69841 C 136.89069 87.6835 136.95455 87.65973 136.99433 87.64497 C 137.0341 87.63023 137.09795 87.6067 137.13773 87.59204 C 137.1775 87.5774 137.24135 87.55396 137.28115 87.53935 C 137.32093 87.52475 137.38477 87.50107 137.42456 87.48666 C 137.46434 87.47226 137.52819 87.44972 137.56797 87.43542 C 137.60776 87.42111 137.6716 87.39777 137.71138 87.38345 C 137.75118 87.36916 137.81502 87.34636 137.8548 87.33221 C 137.89458 87.31805 137.95844 87.29553 137.99822 87.28145 C 138.038 87.26738 138.10184 87.24467 138.14162 87.23071 C 138.1814 87.21674 138.24526 87.19446 138.28504 87.18068 C 138.32482 87.1669 138.38866 87.14511 138.42845 87.1314 C 138.46823 87.11768 138.53208 87.09552 138.57187 87.08185 C 138.61165 87.06818 138.67549 87.04637 138.71527 87.03279 C 138.75507 87.01921 138.81891 86.99742 138.85869 86.98398 C 138.89849 86.97054 138.96233 86.94931 139.0021 86.9359 C 139.04189 86.92249 139.10575 86.90065 139.14553 86.88734 C 139.1853 86.87404 139.24915 86.85315 139.28893 86.83998 C 139.3287 86.82683 139.39257 86.80553 139.43235 86.79239 C 139.47212 86.77925 139.53597 86.7583 139.57576 86.74529 C 139.61554 86.73225 139.67938 86.71135 139.71918 86.69841 C 139.75896 86.68547 139.8228 86.66489 139.86258 86.65202 C 139.90238 86.63918 139.96622 86.61845 140.006 86.60565 C 140.04579 86.59285 140.10964 86.57245 140.14942 86.55975 C 140.18921 86.54706 140.25304 86.52666 140.29282 86.5141 C 140.3326 86.50154 140.39646 86.48166 140.43624 86.46916 C 140.47602 86.45667 140.53987 86.43642 140.57965 86.424 C 140.61943 86.41158 140.68328 86.39189 140.72307 86.37956 C 140.76285 86.36723 140.82669 86.34738 140.86649 86.33513 C 140.90627 86.32288 140.97011 86.30333 141.0099 86.29117 C 141.04969 86.279 141.11353 86.25958 141.1533 86.24745 C 141.1931 86.23534 141.25693 86.21577 141.2967 86.20375 C 141.3365 86.19173 141.40035 86.17268 141.44013 86.16077 C 141.4799 86.14885 141.54376 86.1297 141.58354 86.11778 C 141.62332 86.10587 141.68718 86.08662 141.72696 86.07481 C 141.76674 86.063 141.8306 86.04427 141.87038 86.03255 C 141.91016 86.02083 141.974 86.002 142.0138 85.9903 C 142.05358 85.9786 142.11742 85.95987 142.15721 85.94829 C 142.19699 85.9367 142.26084 85.91821 142.30062 85.90677 C 142.34041 85.89532 142.40424 85.8771 142.44402 85.86572 C 142.48381 85.85434 142.54766 85.83601 142.58744 85.82468 C 142.62722 85.81334 142.69107 85.79517 142.73085 85.78389 C 142.77063 85.77261 142.83449 85.75455 142.87427 85.74333 C 142.91405 85.73212 142.9779 85.71416 143.01769 85.70302 C 143.05747 85.69188 143.1213 85.67404 143.1611 85.66296 C 143.20088 85.65187 143.26473 85.63419 143.30452 85.62312 C 143.3443 85.61208 143.40813 85.59427 143.4479 85.5833 C 143.4877 85.57233 143.55155 85.55481 143.59133 85.54398 C 143.63112 85.53313 143.69496 85.5159 143.73474 85.50511 C 143.77452 85.49434 143.83838 85.477 143.87816 85.46626 C 143.91794 85.4555 143.9818 85.4383 144.02158 85.42764 C 144.06136 85.417 144.12522 85.40013 144.165 85.38953 C 144.20478 85.3789 144.26862 85.36168 144.30841 85.35115 C 144.34819 85.34062 144.41202 85.32402 144.45182 85.3135 C 144.4916 85.30301 144.55544 85.28578 144.59522 85.27539 C 144.63501 85.26498 144.69886 85.24878 144.73863 85.23848 C 144.77843 85.22816 144.84227 85.21141 144.88205 85.20108 C 144.92183 85.19073 144.98569 85.17415 145.02547 85.16393 C 145.06525 85.15369 145.1291 85.13739 145.16889 85.12726 C 145.20867 85.11711 145.27252 85.10097 145.3123 85.09084 C 145.35208 85.08069 145.41593 85.06422 145.45572 85.05417 C 145.4955 85.0441 145.55933 85.0282 145.59912 85.01823 C 145.6389 85.00826 145.70275 84.99222 145.74253 84.98228 C 145.78232 84.97237 145.84616 84.95645 145.88594 84.94658 C 145.92574 84.9367 145.98958 84.92088 146.02936 84.91113 C 146.06914 84.90137 146.133 84.88593 146.17278 84.87616 C 146.21256 84.86641 146.27642 84.85045 146.3162 84.84071 C 146.35597 84.83098 146.41983 84.81555 146.45961 84.806 C 146.49939 84.79643 146.56322 84.78131 146.60301 84.77174 C 146.64279 84.76218 146.70664 84.74655 146.74643 84.73701 C 146.78621 84.7275 146.85005 84.71252 146.88983 84.70303 C 146.92963 84.69353 146.99347 84.678 147.03325 84.66853 C 147.07305 84.65907 147.13689 84.64415 147.17667 84.63478 C 147.21645 84.62543 147.2803 84.61038 147.32009 84.60103 C 147.35987 84.59166 147.42372 84.57654 147.4635 84.56728 C 147.50328 84.55801 147.56713 84.54338 147.6069 84.53426 C 147.64669 84.52513 147.71053 84.51062 147.75032 84.50146 C 147.7901 84.49231 147.85395 84.47736 147.89374 84.4682 C 147.93352 84.45905 147.99736 84.44447 148.03714 84.43541 C 148.07694 84.42635 148.14078 84.41187 148.18056 84.40288 C 148.22035 84.39389 148.2842 84.37953 148.32398 84.37057 C 148.36376 84.36162 148.42761 84.34717 148.46739 84.33827 C 148.50717 84.32938 148.57103 84.31529 148.61081 84.30647 C 148.65059 84.29765 148.71443 84.28346 148.75421 84.27466 C 148.79399 84.26584 148.85784 84.2516 148.89763 84.24284 C 148.93741 84.2341 149.00125 84.2202 149.04105 84.21152 C 149.08083 84.20284 149.14467 84.18886 149.18445 84.1802 C 149.22425 84.17155 149.28809 84.15776 149.32787 84.14911 C 149.36766 84.14047 149.4315 84.12634 149.47129 84.11778 C 149.51107 84.10922 149.57492 84.09587 149.6147 84.08742 C 149.65448 84.07898 149.71833 84.06532 149.7581 84.05684 C 149.79788 84.04836 149.86174 84.03468 149.90152 84.02623 C 149.9413 84.01779 150.00514 84.0043 150.04494 83.99588 C 150.08472 83.98746 150.14856 83.97385 150.18836 83.96553 C 150.22814 83.95721 150.29198 83.94412 150.33176 83.93591 C 150.37155 83.9277 150.4354 83.91454 150.47518 83.90628 C 150.51497 83.89803 150.57881 83.88461 150.61859 83.8764 C 150.65837 83.8682 150.72223 83.85516 150.76201 83.84702 C 150.80179 83.83887 150.86563 83.82576 150.90541 83.81764 C 150.94519 83.80952 151.00905 83.79654 151.04883 83.7885 C 151.08861 83.78046 151.15245 83.76761 151.19225 83.7596 C 151.23203 83.75159 151.29587 83.73872 151.33567 83.73071 C 151.37545 83.7227 151.43929 83.7098 151.47907 83.70181 C 151.51886 83.69383 151.5827 83.68103 151.62248 83.67316 C 151.66228 83.66528 151.72612 83.65283 151.7659 83.64499 C 151.80568 83.63715 151.86952 83.62442 151.9093 83.61658 C 151.94908 83.60873 152.01294 83.59618 152.05272 83.58841 C 152.0925 83.58064 152.15636 83.56819 152.19614 83.56049 C 152.23592 83.55276 152.29976 83.54047 152.33956 83.53279 C 152.37934 83.52512 152.44318 83.51279 152.48297 83.50511 C 152.52275 83.49744 152.5866 83.48503 152.62638 83.47743 C 152.66617 83.46983 152.73001 83.45778 152.76979 83.45024 C 152.80959 83.44269 152.87342 83.43059 152.9132 83.42302 C 152.95299 83.41545 153.01683 83.40308 153.05661 83.3956 C 153.09639 83.38812 153.16025 83.37656 153.20003 83.36911 C 153.2398 83.36168 153.30367 83.3494 153.34345 83.34192 C 153.38323 83.33444 153.44707 83.32262 153.48686 83.31522 C 153.52664 83.3078 153.59049 83.29584 153.63028 83.2885 C 153.67006 83.28116 153.7339 83.26955 153.7737 83.26228 C 153.81348 83.255 153.87732 83.24329 153.9171 83.23605 C 153.9569 83.22882 154.02072 83.21733 154.0605 83.21005 C 154.1003 83.20279 154.16414 83.19083 154.20392 83.1836 C 154.2437 83.17636 154.30756 83.16495 154.34734 83.15785 C 154.38712 83.15076 154.45098 83.1395 154.49076 83.13235 C 154.53054 83.12523 154.59439 83.11346 154.63417 83.10637 C 154.67395 83.09927 154.7378 83.08815 154.77759 83.08112 C 154.81737 83.07408 154.88121 83.06265 154.921 83.05562 C 154.96079 83.04858 155.02462 83.03738 155.06439 83.03036 C 155.10419 83.02336 155.16803 83.01204 155.20781 83.00511 C 155.2476 82.99817 155.31145 82.98727 155.35123 82.98035 C 155.391 82.9734 155.45487 82.96202 155.49465 82.9551 C 155.53443 82.94817 155.59828 82.93713 155.63806 82.93031 C 155.67784 82.9235 155.7417 82.91255 155.78148 82.90579 C 155.82126 82.89903 155.8851 82.88828 155.9249 82.88152 C 155.96468 82.87474 156.0285 82.86377 156.0683 82.85698 C 156.10808 82.85019 156.17192 82.83919 156.2117 82.83246 C 156.2515 82.82571 156.31534 82.81506 156.35512 82.80841 C 156.39492 82.80174 156.45876 82.791 156.49854 82.78438 C 156.53832 82.77774 156.60218 82.7672 156.64196 82.76056 C 156.68173 82.75394 156.74559 82.74316 156.78537 82.73653 C 156.82515 82.7299 156.889 82.71925 156.92879 82.71272 C 156.96857 82.7062 157.03241 82.69588 157.0722 82.68942 C 157.11199 82.68295 157.17581 82.67264 157.2156 82.66612 C 157.25539 82.65959 157.31923 82.64877 157.35901 82.6423 C 157.3988 82.63585 157.46265 82.62592 157.50243 82.61949 C 157.54222 82.61307 157.60607 82.60236 157.64585 82.59593 C 157.68563 82.5895 157.74948 82.57945 157.78926 82.57309 C 157.82904 82.56674 157.8929 82.55638 157.93268 82.55003 C 157.97246 82.54369 158.03632 82.5335 158.0761 82.5272 C 158.11588 82.5209 158.1797 82.51093 158.2195 82.50462 C 158.25928 82.49834 158.32312 82.48805 158.36292 82.4818 C 158.4027 82.47552 158.46654 82.46565 158.50632 82.45946 C 158.54611 82.45328 158.60996 82.4433 158.64974 82.43712 C 158.68953 82.43092 158.75337 82.42094 158.79315 82.41478 C 158.83293 82.40863 158.89679 82.39883 158.93657 82.39268 C 158.97635 82.38652 159.0402 82.37646 159.07999 82.37033 C 159.11977 82.36421 159.18361 82.35452 159.22339 82.34846 C 159.26317 82.34242 159.32701 82.33267 159.3668 82.32663 C 159.40659 82.32057 159.47043 82.31082 159.51023 82.30476 C 159.55 82.29872 159.61385 82.28891 159.65363 82.28291 C 159.69342 82.27693 159.75727 82.2675 159.79705 82.26155 C 159.83684 82.25558 159.90068 82.2459 159.94046 82.23993 C 159.98024 82.23396 160.0441 82.22446 160.08388 82.21857 C 160.12366 82.21269 160.18752 82.2033 160.2273 82.19743 C 160.26708 82.19159 160.33092 82.18216 160.3707 82.17632 C 160.41048 82.17046 160.47432 82.16103 160.51412 82.15518 C 160.5539 82.14932 160.61774 82.13988 160.65753 82.13406 C 160.69731 82.12823 160.76116 82.11894 160.80094 82.11317 C 160.84073 82.1074 160.90457 82.0983 160.94435 82.09253 C 160.98415 82.08676 161.04799 82.07741 161.08777 82.07164 C 161.12755 82.06589 161.1914 82.05675 161.23119 82.051 C 161.27097 82.04526 161.33481 82.03581 161.37459 82.03012 C 161.41437 82.02444 161.47823 82.01555 161.518 82.00996 C 161.55779 82.0044 161.62163 81.99536 161.66143 81.9898 C 161.7012 81.98427 161.76505 81.97556 161.80484 81.9699 C 161.84462 81.96423 161.90847 81.95467 161.94824 81.949 C 161.98804 81.94336 162.05188 81.93463 162.09166 81.92911 C 162.13146 81.92358 162.1953 81.91472 162.23508 81.9092 C 162.27486 81.90367 162.3387 81.89479 162.37848 81.88928 C 162.41826 81.88376 162.48212 81.87488 162.5219 81.86937 C 162.56168 81.86385 162.62554 81.85486 162.66532 81.84946 C 162.7051 81.84404 162.76894 81.83565 162.80873 81.83026 C 162.84851 81.82489 162.91236 81.81606 162.95215 81.8106 C 162.99193 81.80513 163.05577 81.79631 163.09555 81.79092 C 163.13535 81.78554 163.19919 81.77711 163.23897 81.77174 C 163.27877 81.76636 163.3426 81.75742 163.38239 81.75206 C 163.42217 81.74672 163.48601 81.73845 163.52579 81.73312 C 163.56557 81.7278 163.62943 81.71898 163.6692 81.7137 C 163.70899 81.70842 163.77285 81.70029 163.81262 81.695 C 163.8524 81.68974 163.91625 81.68086 163.95604 81.67558 C 163.99582 81.6703 164.05966 81.66206 164.09946 81.65689 C 164.13924 81.6517 164.20308 81.6434 164.24286 81.63818 C 164.28266 81.63298 164.3465 81.62444 164.38628 81.61925 C 164.42607 81.61406 164.4899 81.6059 164.52968 81.60078 C 164.56946 81.59569 164.63332 81.58752 164.6731 81.58234 C 164.71288 81.57715 164.77674 81.56854 164.81652 81.5634 C 164.8563 81.55824 164.92015 81.55023 164.95993 81.54518 C 164.99971 81.54013 165.06356 81.53204 165.10335 81.52698 C 165.14313 81.5219 165.20697 81.51358 165.24677 81.5085 C 165.28655 81.50342 165.35039 81.4953 165.39017 81.4903 C 165.42996 81.48528 165.49379 81.47728 165.53357 81.47234 C 165.57337 81.46739 165.6372 81.45958 165.67699 81.45459 C 165.71677 81.44962 165.78063 81.44144 165.8204 81.43639 C 165.86019 81.43134 165.92404 81.42311 165.96382 81.41817 C 166.0036 81.41322 166.06746 81.40556 166.10724 81.4007 C 166.14702 81.39581 166.21086 81.38788 166.25066 81.38297 C 166.29044 81.37805 166.35428 81.37012 166.39408 81.36523 C 166.43386 81.36035 166.4977 81.35263 166.53748 81.34775 C 166.57727 81.34288 166.6411 81.33492 166.68088 81.33003 C 166.72068 81.32515 166.78452 81.3174 166.8243 81.31255 C 166.86409 81.3077 166.92794 81.29982 166.96772 81.29504 C 167.00749 81.29028 167.07135 81.28282 167.11113 81.27806 C 167.15091 81.27328 167.21477 81.26535 167.25455 81.26057 C 167.29433 81.2558 167.35817 81.24829 167.39797 81.24358 C 167.43775 81.23886 167.50159 81.2313 167.54138 81.22658 C 167.58116 81.22186 167.64499 81.21432 167.68479 81.20958 C 167.72457 81.20483 167.7884 81.19707 167.82819 81.19234 C 167.86798 81.18759 167.93183 81.17998 167.9716 81.17534 C 168.0114 81.1707 168.07524 81.16344 168.11502 81.15883 C 168.1548 81.15422 168.21866 81.14671 168.25844 81.14207 C 168.29822 81.13744 168.36208 81.12993 168.40186 81.12532 C 168.44164 81.12071 168.5055 81.1134 168.54528 81.1088 C 168.58506 81.10419 168.64888 81.09662 168.68868 81.09204 C 168.72846 81.08746 168.7923 81.08035 168.83209 81.07578 C 168.87187 81.0712 168.93572 81.0636 168.9755 81.05902 C 169.01529 81.05444 169.07913 81.04726 169.11891 81.04274 C 169.1587 81.03822 169.22255 81.03094 169.26233 81.02647 C 169.30211 81.022 169.36597 81.01492 169.40575 81.01045 C 169.44553 81.00598 169.50939 80.9987 169.54917 80.99419 C 169.58895 80.98967 169.6528 80.98238 169.69258 80.9779 C 169.73236 80.97343 169.79619 80.9663 169.83599 80.96188 C 169.87577 80.95747 169.9396 80.95052 169.9794 80.9461 C 170.01918 80.9417 170.08303 80.9345 170.1228 80.93008 C 170.1626 80.92567 170.22644 80.91867 170.26622 80.91429 C 170.30602 80.90991 170.36986 80.90288 170.40964 80.8985 C 170.44942 80.89413 170.51328 80.88705 170.55306 80.88272 C 170.59284 80.87839 170.6567 80.87148 170.69647 80.86717 C 170.73625 80.86287 170.8001 80.85594 170.83988 80.85164 C 170.87966 80.84734 170.9435 80.8404 170.98329 80.83609 C 171.02307 80.83179 171.08692 80.82483 171.12671 80.82056 C 171.16649 80.81628 171.23033 80.80952 171.27011 80.80525 C 171.3099 80.80098 171.37375 80.79396 171.41353 80.78972 C 171.45333 80.78548 171.51717 80.77887 171.55695 80.77466 C 171.59673 80.77045 171.66059 80.76361 171.70037 80.75937 C 171.74015 80.75513 171.80399 80.74826 171.84377 80.74405 C 171.88355 80.73984 171.9474 80.73317 171.98719 80.729 C 172.02696 80.72484 172.0908 80.71812 172.1306 80.71396 C 172.17038 80.7098 172.23423 80.70302 172.27402 80.69888 C 172.3138 80.69475 172.37764 80.68822 172.41742 80.68408 C 172.45722 80.67995 172.52106 80.67314 172.56084 80.66904 C 172.60063 80.66493 172.66448 80.65852 172.70426 80.65445 C 172.74404 80.65038 172.80789 80.64375 172.84767 80.63965 C 172.88745 80.63554 172.9513 80.62894 172.99108 80.62483 C 173.03086 80.62073 173.09471 80.61409 173.13449 80.61002 C 173.17427 80.60594 173.23812 80.59952 173.27791 80.59544 C 173.31769 80.59137 173.38153 80.58466 173.42133 80.58063 C 173.4611 80.5766 173.52495 80.5703 173.56473 80.5663 C 173.60453 80.5623 173.66837 80.5557 173.70815 80.55173 C 173.74794 80.54776 173.81179 80.5416 173.85157 80.53766 C 173.89134 80.53372 173.95519 80.52731 173.99497 80.52332 C 174.03475 80.51932 174.0986 80.51273 174.13838 80.50876 C 174.17816 80.50479 174.24202 80.4986 174.2818 80.49466 C 174.32158 80.49072 174.38542 80.48428 174.42522 80.48035 C 174.465 80.47641 174.52884 80.47015 174.56864 80.46625 C 174.60842 80.46234 174.67226 80.45604 174.71204 80.45218 C 174.75183 80.44832 174.81568 80.44218 174.85546 80.43832 C 174.89525 80.43446 174.95908 80.42812 174.99886 80.42426 C 175.03864 80.4204 175.1025 80.41423 175.14228 80.4104 C 175.18206 80.40657 175.24591 80.40036 175.28569 80.39656 C 175.32547 80.39276 175.38933 80.3868 175.42911 80.38297 C 175.46889 80.37914 175.53273 80.37274 175.57253 80.36888 C 175.6123 80.36502 175.67615 80.35884 175.71595 80.35504 C 175.75572 80.35124 175.81957 80.3452 175.85935 80.34143 C 175.89914 80.33766 175.96298 80.3316 176.00276 80.32784 C 176.04256 80.32407 176.10639 80.31793 176.14617 80.31424 C 176.18595 80.31053 176.2498 80.30487 176.28958 80.30113 C 176.32936 80.2974 176.39322 80.29105 176.433 80.28728 C 176.47278 80.28351 176.53664 80.27763 176.57642 80.27393 C 176.6162 80.27023 176.68004 80.26427 176.71984 80.26057 C 176.75962 80.25688 176.82346 80.2509 176.86325 80.24721 C 176.90303 80.24352 176.96688 80.23755 177.00666 80.23386 C 177.04645 80.23016 177.11028 80.22415 177.15006 80.22052 C 177.18985 80.21687 177.2537 80.21127 177.29347 80.20764 C 177.33325 80.20401 177.39711 80.19794 177.43689 80.19427 C 177.47667 80.19061 177.54053 80.18477 177.5803 80.18117 C 177.62009 80.17757 177.68395 80.17186 177.72373 80.16829 C 177.7635 80.16472 177.82735 80.15903 177.86714 80.15541 C 177.90692 80.15181 177.97077 80.14592 178.01056 80.14232 C 178.05034 80.13872 178.11417 80.133 178.15395 80.12944 C 178.19374 80.12589 178.25759 80.1201 178.29737 80.11658 C 178.33716 80.11305 178.401 80.10751 178.44078 80.10394 C 178.48056 80.10037 178.54442 80.09438 178.5842 80.09082 C 178.62398 80.08727 178.68784 80.08174 178.72762 80.0782 C 178.7674 80.07468 178.83126 80.0688 178.87104 80.06534 C 178.91082 80.06186 178.97466 80.05663 179.01445 80.05319 C 179.05423 80.04974 179.11808 80.04407 179.15787 80.04057 C 179.19765 80.03706 179.26148 80.03143 179.30126 80.02794 C 179.34105 80.02444 179.40489 80.01881 179.44467 80.01532 C 179.48447 80.01183 179.54831 80.00615 179.58809 80.00269 C 179.62789 79.99922 179.69173 79.99373 179.7315 79.9903 C 179.77129 79.98686 179.83515 79.98134 179.87493 79.9779 C 179.9147 79.97447 179.97856 79.96892 180.01834 79.96553 C 180.05812 79.96214 180.12197 79.95674 180.16176 79.95338 C 180.20154 79.95003 180.26537 79.94463 180.30516 79.94124 C 180.34494 79.93785 180.40879 79.93225 180.44858 79.92886 C 180.48836 79.92548 180.5522 79.92004 180.59198 79.91672 C 180.63178 79.91339 180.69562 79.90814 180.7354 79.90482 C 180.77519 79.90149 180.83904 79.89607 180.87882 79.89268 C 180.9186 79.8893 180.98246 79.88362 181.02223 79.8803 C 181.06201 79.87697 181.12587 79.8719 181.16565 79.86864 C 181.20543 79.86537 181.26927 79.86003 181.30905 79.85674 C 181.34883 79.85342 181.41268 79.84814 181.45247 79.84485 C 181.49225 79.84154 181.55609 79.83627 181.59589 79.83293 C 181.63567 79.8296 181.69951 79.8241 181.73929 79.82079 C 181.77909 79.81749 181.84293 79.81238 181.8827 79.80914 C 181.9225 79.80592 181.98635 79.80075 182.02613 79.79749 C 182.0659 79.79422 182.12976 79.7888 182.16954 79.78558 C 182.20932 79.78236 182.27318 79.77742 182.31296 79.77417 C 182.35274 79.77092 182.41658 79.76529 182.45636 79.76204 C 182.49614 79.75879 182.55998 79.75378 182.59978 79.75063 C 182.63956 79.74745 182.7034 79.74237 182.7432 79.7392 C 182.78298 79.73604 182.84682 79.73097 182.8866 79.72778 C 182.92639 79.7246 182.99024 79.71931 183.03002 79.71613 C 183.06981 79.71294 183.13365 79.70789 183.17343 79.70473 C 183.21321 79.70157 183.27707 79.69644 183.31685 79.69331 C 183.35663 79.69017 183.42047 79.68527 183.46025 79.68213 C 183.50003 79.679 183.56389 79.6739 183.60367 79.67072 C 183.64345 79.66753 183.70729 79.66222 183.74709 79.65906 C 183.78687 79.6559 183.85071 79.65096 183.8905 79.6479 C 183.93029 79.64485 183.99413 79.64006 184.0339 79.63696 C 184.0737 79.63388 184.13755 79.62868 184.17733 79.62555 C 184.21712 79.62242 184.28096 79.6174 184.32074 79.61438 C 184.36052 79.61136 184.42436 79.60672 184.46414 79.6037 C 184.50392 79.60066 184.56778 79.59563 184.60756 79.59253 C 184.64734 79.58945 184.7112 79.58444 184.75098 79.58136 C 184.79076 79.57828 184.8546 79.57321 184.8944 79.57019 C 184.93418 79.56717 184.99802 79.56253 185.03781 79.5595 C 185.07759 79.55647 185.14144 79.55135 185.18122 79.54832 C 185.22101 79.5453 185.28485 79.54059 185.32463 79.53764 C 185.36443 79.5347 185.42827 79.53 185.46805 79.52696 C 185.50783 79.52394 185.57167 79.51881 185.61145 79.5158 C 185.65123 79.51277 185.71509 79.50803 185.75487 79.50511 C 185.79465 79.50218 185.8585 79.49767 185.89829 79.49466 C 185.93807 79.49167 186.0019 79.48651 186.0417 79.48349 C 186.08148 79.48047 186.14533 79.47572 186.18512 79.47281 C 186.2249 79.46988 186.28874 79.4653 186.32852 79.46237 C 186.36832 79.45946 186.43216 79.45465 186.47194 79.45169 C 186.51174 79.44873 186.57556 79.44392 186.61534 79.441 C 186.65512 79.43808 186.71898 79.43344 186.75876 79.43056 C 186.79854 79.42767 186.8624 79.42303 186.90218 79.42012 C 186.94196 79.41719 187.00582 79.41234 187.0456 79.40942 C 187.08538 79.40651 187.14922 79.40181 187.18901 79.39899 C 187.22879 79.39615 187.29264 79.39185 187.33243 79.38902 C 187.37221 79.3862 187.43605 79.38152 187.47583 79.3786 C 187.51563 79.37567 187.57946 79.37083 187.61923 79.3679 C 187.65903 79.36499 187.72287 79.36032 187.76265 79.35747 C 187.80243 79.35461 187.86629 79.3501 187.90607 79.34726 C 187.94585 79.34444 188.0097 79.33989 188.04949 79.33707 C 188.08927 79.33424 188.15312 79.32965 188.1929 79.32686 C 188.23268 79.32408 188.29653 79.31969 188.33632 79.31691 C 188.3761 79.31413 188.43994 79.30954 188.47974 79.3067 C 188.51952 79.30388 188.58336 79.29933 188.62314 79.29651 C 188.66294 79.29369 188.72676 79.28911 188.76654 79.28632 C 188.80634 79.28354 188.87018 79.27911 188.90996 79.27637 C 188.94974 79.2736 189.0136 79.26917 189.05338 79.2664 C 189.09316 79.26366 189.15702 79.2592 189.1968 79.25645 C 189.23657 79.2537 189.30043 79.24927 189.34021 79.24649 C 189.37999 79.24371 189.44384 79.23907 189.48363 79.2363 C 189.5234 79.2335 189.58725 79.22902 189.62705 79.22633 C 189.66683 79.22365 189.73065 79.21959 189.77043 79.21686 C 189.81023 79.21414 189.87407 79.20938 189.91385 79.20667 C 189.95365 79.20395 190.01749 79.19989 190.05727 79.19719 C 190.09705 79.1945 190.1609 79.18996 190.20069 79.18724 C 190.24047 79.18451 190.30432 79.1802 190.3441 79.17752 C 190.38388 79.17484 190.44774 79.17047 190.48752 79.1678 C 190.5273 79.16515 190.59114 79.161 190.63094 79.15834 C 190.67072 79.15567 190.73455 79.1513 190.77434 79.14862 C 190.81412 79.14594 190.87796 79.1416 190.91774 79.1389 C 190.95754 79.13622 191.02138 79.13185 191.06116 79.1292 C 191.10095 79.12653 191.1648 79.12238 191.20458 79.11972 C 191.24436 79.11707 191.30821 79.11263 191.34799 79.11002 C 191.38777 79.10739 191.45163 79.1034 191.49141 79.10078 C 191.53119 79.09816 191.59505 79.09373 191.63483 79.09106 C 191.6746 79.08841 191.73845 79.08418 191.77825 79.08159 C 191.81803 79.07901 191.88185 79.07498 191.92165 79.07237 C 191.96143 79.06975 192.02527 79.06526 192.06505 79.06265 C 192.10485 79.06004 192.16869 79.056 192.20847 79.05344 C 192.24826 79.05089 192.3121 79.04678 192.35189 79.0442 C 192.39167 79.04161 192.45552 79.03731 192.4953 79.03473 C 192.53508 79.03215 192.59894 79.02806 192.63872 79.0255 C 192.6785 79.02295 192.74236 79.01884 192.78214 79.01628 C 192.82192 79.01373 192.88574 79.0096 192.92554 79.00705 C 192.96532 79.00449 193.02916 79.00037 193.06896 78.99782 C 193.10874 78.99527 193.17258 78.99115 193.21237 78.98859 C 193.25215 78.98604 193.316 78.98189 193.35578 78.97937 C 193.39557 78.97684 193.45941 78.9729 193.49919 78.97038 C 193.53899 78.96785 193.60283 78.96367 193.64261 78.96115 C 193.68239 78.95863 193.74625 78.9547 193.78603 78.95216 C 193.8258 78.94965 193.88965 78.94547 193.92943 78.94293 C 193.96921 78.94041 194.03307 78.9364 194.07285 78.93396 C 194.11263 78.9315 194.17647 78.92766 194.21627 78.92522 C 194.25605 78.92276 194.31989 78.91875 194.35968 78.91623 C 194.39946 78.91371 194.4633 78.90945 194.50308 78.907 C 194.54288 78.90456 194.60672 78.90096 194.6465 78.8985 C 194.6863 78.89606 194.75014 78.89177 194.78992 78.88928 C 194.8297 78.88678 194.89356 78.88295 194.93334 78.88054 C 194.97312 78.87811 195.03696 78.87424 195.07674 78.8718 C 195.11652 78.86934 195.18038 78.86525 195.22016 78.86281 C 195.25994 78.86037 195.32378 78.85646 195.36357 78.85406 C 195.40335 78.85168 195.4672 78.84799 195.50699 78.84557 C 195.54677 78.84315 195.61061 78.839 195.65039 78.83658 C 195.69019 78.83417 195.75403 78.8305 195.79381 78.8281 C 195.8336 78.82567 195.89745 78.8215 195.93723 78.81909 C 195.977 78.81667 196.04085 78.81296 196.08063 78.81061 C 196.1204 78.80824 196.18427 78.8045 196.22405 78.8021 C 196.26383 78.79968 196.32769 78.79553 196.36746 78.7931 C 196.40724 78.7907 196.47109 78.78697 196.51088 78.7846 C 196.55066 78.78226 196.6145 78.77847 196.6543 78.77611 C 196.69408 78.77376 196.75792 78.76997 196.7977 78.76761 C 196.8375 78.76526 196.90134 78.76147 196.94112 78.75911 C 196.98091 78.75676 197.04474 78.75293 197.08452 78.75063 C 197.1243 78.7483 197.18816 78.74467 197.22794 78.74237 C 197.26772 78.74005 197.33158 78.73622 197.37136 78.73387 C 197.41114 78.7315 197.47499 78.72763 197.51477 78.72536 C 197.55455 78.72307 197.6184 78.71962 197.65819 78.71735 C 197.69797 78.71506 197.76181 78.71115 197.8016 78.70885 C 197.84139 78.70653 197.90523 78.7029 197.945 78.70059 C 197.9848 78.69827 198.04865 78.6944 198.08843 78.6921 C 198.12822 78.68977 198.19205 78.68608 198.23183 78.68384 C 198.2716 78.68158 198.33547 78.6781 198.37525 78.67583 C 198.41503 78.67354 198.47888 78.66963 198.51866 78.66733 C 198.55844 78.66502 198.6223 78.66132 198.66208 78.65907 C 198.70186 78.65683 198.7657 78.65329 198.8055 78.65105 C 198.84528 78.64879 198.90912 78.64507 198.94892 78.64279 C 198.9887 78.64052 199.05254 78.63678 199.09232 78.63454 C 199.13211 78.6323 199.19594 78.62877 199.23572 78.62653 C 199.27552 78.62427 199.33936 78.62051 199.37914 78.61827 C 199.41892 78.61603 199.48278 78.6125 199.52256 78.61026 C 199.56233 78.608 199.62619 78.60422 199.66597 78.602 C 199.70575 78.59978 199.7696 78.59642 199.80939 78.59424 C 199.84917 78.59204 199.91301 78.5884 199.9528 78.58621 C 199.99259 78.58401 200.05643 78.58066 200.09622 78.57845 C 200.136 78.57622 200.19985 78.5724 200.23963 78.57019 C 200.27942 78.56796 200.34325 78.56464 200.38303 78.56242 C 200.42282 78.5602 200.48667 78.55638 200.52645 78.55417 C 200.56623 78.55194 200.63008 78.54854 200.66986 78.5464 C 200.70964 78.54425 200.7735 78.54076 200.81328 78.5386 C 200.85306 78.53647 200.91692 78.53304 200.9567 78.53084 C 200.99648 78.52866 201.06032 78.52502 201.10012 78.52283 C 201.1399 78.52065 201.20374 78.51721 201.24353 78.51506 C 201.28331 78.51292 201.34714 78.50949 201.38692 78.5073 C 201.42671 78.50511 201.49056 78.5014 201.53034 78.49928 C 201.57013 78.49718 201.63397 78.49406 201.67375 78.49199 C 201.71353 78.4899 201.77739 78.48636 201.81717 78.48422 C 201.85695 78.48207 201.9208 78.47859 201.96059 78.47646 C 202.00037 78.4743 202.06423 78.47083 202.104 78.46869 C 202.14379 78.46654 202.20763 78.46303 202.24742 78.4609 C 202.2872 78.4588 202.35103 78.45547 202.39083 78.45338 C 202.4306 78.45131 202.49445 78.44794 202.53423 78.44585 C 202.57402 78.44377 202.63787 78.44044 202.67765 78.43832 C 202.71744 78.43622 202.78128 78.43266 202.82106 78.43056 C 202.86084 78.42844 202.9247 78.42514 202.96448 78.42303 C 203.00426 78.42091 203.06812 78.41734 203.1079 78.41527 C 203.14768 78.41318 203.21154 78.41003 203.25131 78.40797 C 203.29109 78.40593 203.35494 78.4025 203.39473 78.40044 C 203.43451 78.39839 203.49834 78.39528 203.53813 78.39316 C 203.57791 78.39105 203.64176 78.3872 203.68154 78.38515 C 203.72133 78.3831 203.78517 78.38033 203.82495 78.37836 C 203.86475 78.37637 203.92859 78.37294 203.96837 78.37083 C 204.00815 78.36871 204.072 78.3651 204.11179 78.36304 C 204.15157 78.361 204.21543 78.35799 204.2552 78.356 C 204.29499 78.35403 204.35884 78.35077 204.39862 78.34872 C 204.4384 78.34666 204.50223 78.34328 204.54203 78.3412 C 204.5818 78.33911 204.64565 78.33565 204.68544 78.33368 C 204.72522 78.3317 204.78907 78.32884 204.82884 78.32686 C 204.86864 78.32489 204.93248 78.32143 204.97226 78.31934 C 205.01206 78.31726 205.0759 78.3138 205.11568 78.31181 C 205.15546 78.30983 205.21932 78.30699 205.2591 78.30502 C 205.29888 78.30304 205.36273 78.2995 205.40251 78.29749 C 205.44229 78.29546 205.50614 78.29239 205.54592 78.29044 C 205.5857 78.2885 205.64954 78.2854 205.68933 78.2834 C 205.72911 78.28139 205.79296 78.2779 205.83275 78.27588 C 205.87253 78.27385 205.93637 78.2708 205.97615 78.26883 C 206.01595 78.26685 206.07979 78.26352 206.11957 78.26154 C 206.15937 78.25957 206.2232 78.25645 206.26299 78.2545 C 206.30278 78.25256 206.36663 78.2494 206.4064 78.24747 C 206.44618 78.24551 206.51004 78.24236 206.54982 78.2404 C 206.5896 78.23846 206.65345 78.23532 206.69322 78.23337 C 206.733 78.23143 206.79686 78.22827 206.83664 78.22633 C 206.87642 78.22438 206.94026 78.22124 206.98006 78.2193 C 207.01984 78.21735 207.08368 78.2142 207.12348 78.21225 C 207.16326 78.21031 207.2271 78.20712 207.26688 78.2052 C 207.30667 78.2033 207.37052 78.20032 207.4103 78.19841 C 207.45009 78.19649 207.51393 78.19328 207.55371 78.19138 C 207.59349 78.18945 207.65734 78.1865 207.69712 78.18457 C 207.7369 78.18266 207.80075 78.17943 207.84053 78.17752 C 207.88031 78.1756 207.94417 78.17264 207.98395 78.17073 C 208.02373 78.16881 208.08757 78.1656 208.12737 78.16368 C 208.16715 78.16177 208.23099 78.15875 208.27079 78.15688 C 208.31056 78.15498 208.3744 78.15196 208.41419 78.15009 C 208.45398 78.1482 208.51782 78.14513 208.5576 78.14328 C 208.5974 78.14145 208.66123 78.13861 208.701 78.13673 C 208.74079 78.13484 208.80464 78.13159 208.84442 78.12968 C 208.8842 78.12776 208.94806 78.12473 208.98784 78.12288 C 209.02762 78.12105 209.09148 78.11816 209.13126 78.11633 C 209.17104 78.11449 209.23488 78.11136 209.27468 78.10953 C 209.31446 78.10768 209.3783 78.10481 209.41809 78.10297 C 209.45787 78.10114 209.52172 78.09808 209.5615 78.09618 C 209.60129 78.09425 209.66513 78.09102 209.70491 78.08914 C 209.7447 78.08725 209.80854 78.08441 209.84832 78.08257 C 209.88809 78.08073 209.95195 78.07758 209.99173 78.07578 C 210.03151 78.07396 210.09537 78.07124 210.13515 78.06946 C 210.17493 78.06769 210.23879 78.06471 210.27857 78.0629 C 210.31835 78.06108 210.38219 78.05818 210.42198 78.05635 C 210.46176 78.0545 210.5256 78.05144 210.5654 78.04955 C 210.60518 78.04767 210.66902 78.04453 210.7088 78.04276 C 210.7486 78.04097 210.81243 78.03845 210.8522 78.03667 C 210.892 78.0349 210.95584 78.0317 210.99562 78.02988 C 211.0354 78.02808 211.09926 78.02534 211.13904 78.02357 C 211.17882 78.02179 211.24268 78.01884 211.28246 78.017 C 211.32224 78.01517 211.3861 78.01201 211.42588 78.01021 C 211.46566 78.00839 211.5295 78.00565 211.56929 78.00389 C 211.60907 78.00215 211.67292 77.99936 211.7127 77.99757 C 211.75249 77.99579 211.81632 77.9928 211.8561 77.99103 C 211.89589 77.98924 211.95973 77.98647 211.99951 77.98471 C 212.0393 77.98297 212.10315 77.98018 212.14293 77.97841 C 212.18271 77.97662 212.24657 77.97362 212.28635 77.97183 C 212.32613 77.97006 212.38999 77.96727 212.42977 77.96553 C 212.46955 77.96378 212.5334 77.96095 212.57318 77.9592 C 212.61296 77.95746 212.6768 77.95464 212.7166 77.9529 C 212.75638 77.95114 212.82022 77.94833 212.86002 77.94658 C 212.8998 77.94484 212.96363 77.94202 213.0034 77.94026 C 213.0432 77.9385 213.10704 77.9357 213.14682 77.93396 C 213.18662 77.9322 213.25046 77.9294 213.29024 77.92764 C 213.33002 77.9259 213.39388 77.92308 213.43366 77.92134 C 213.47344 77.91959 213.5373 77.91669 213.57707 77.91501 C 213.61685 77.91335 213.68071 77.91086 213.72049 77.9092 C 213.76027 77.90752 213.82411 77.90463 213.8639 77.90288 C 213.90369 77.90114 213.96752 77.8983 214.00731 77.89656 C 214.04709 77.8948 214.11093 77.89192 214.15071 77.89024 C 214.1905 77.88858 214.25435 77.8861 214.29413 77.88443 C 214.33393 77.88275 214.39777 77.87985 214.43755 77.8781 C 214.47733 77.87636 214.54119 77.87349 214.58097 77.8718 C 214.62075 77.87009 214.6846 77.86745 214.72438 77.86572 C 214.76416 77.86401 214.82802 77.86107 214.8678 77.8594 C 214.90758 77.85773 214.9714 77.85522 215.0112 77.85358 C 215.05098 77.85194 215.11483 77.84923 215.15462 77.84752 C 215.1944 77.8458 215.25824 77.84286 215.29802 77.84119 C 215.33782 77.83952 215.40166 77.83698 215.44144 77.83537 C 215.48123 77.83376 215.54508 77.8312 215.58486 77.82953 C 215.62464 77.82787 215.68849 77.82492 215.72827 77.82323 C 215.76805 77.82152 215.83191 77.8188 215.87169 77.81715 C 215.91147 77.81552 215.97533 77.81293 216.0151 77.81133 C 216.05489 77.80971 216.11872 77.80714 216.15851 77.8055 C 216.19829 77.80385 216.26213 77.80107 216.30193 77.79942 C 216.3417 77.79779 216.40555 77.79521 216.44533 77.7936 C 216.48513 77.79198 216.54897 77.78941 216.58875 77.78777 C 216.62854 77.78613 216.69239 77.78336 216.73217 77.7817 C 216.77194 77.78001 216.8358 77.77727 216.87558 77.77562 C 216.91536 77.77399 216.97922 77.77141 217.019 77.7698 C 217.05878 77.76819 217.12262 77.76561 217.1624 77.76396 C 217.20218 77.76233 217.26602 77.75954 217.30582 77.7579 C 217.3456 77.75626 217.40944 77.75366 217.44924 77.75208 C 217.48902 77.75049 217.55286 77.7481 217.59264 77.74648 C 217.63243 77.74487 217.69628 77.74207 217.73606 77.74042 C 217.77585 77.73877 217.83969 77.73616 217.87947 77.73457 C 217.91925 77.733 217.98311 77.73058 218.02289 77.729 C 218.06267 77.72742 218.12651 77.7248 218.16629 77.72318 C 218.20607 77.72157 218.26993 77.71895 218.30971 77.71735 C 218.34949 77.71573 218.41333 77.71313 218.45313 77.71152 C 218.4929 77.7099 218.55675 77.70728 218.59654 77.70569 C 218.63632 77.70412 218.70017 77.70163 218.73995 77.7001 C 218.77974 77.69856 218.84358 77.6961 218.88336 77.69452 C 218.92316 77.69295 218.987 77.69026 219.02678 77.68869 C 219.06658 77.6871 219.13042 77.68465 219.1702 77.6831 C 219.20998 77.68156 219.27382 77.67911 219.3136 77.67752 C 219.35338 77.67595 219.41724 77.67326 219.45702 77.67169 C 219.4968 77.6701 219.56064 77.66765 219.60044 77.6661 C 219.64022 77.66458 219.70406 77.66206 219.74385 77.66054 C 219.78363 77.659 219.84748 77.65648 219.88727 77.65494 C 219.92705 77.6534 219.99089 77.65094 220.03067 77.64935 C 220.07047 77.64778 220.13431 77.64505 220.17409 77.64352 C 220.21389 77.64198 220.27771 77.63972 220.31749 77.63818 C 220.35727 77.63664 220.42113 77.63394 220.4609 77.63235 C 220.50069 77.63078 220.56455 77.62823 220.60433 77.62677 C 220.6441 77.62529 220.70796 77.62315 220.74774 77.62167 C 220.78752 77.6202 220.85137 77.61761 220.89116 77.61607 C 220.93094 77.61455 220.99478 77.61203 221.03458 77.6105 C 221.07436 77.60896 221.1382 77.60645 221.17798 77.6049 C 221.21778 77.60338 221.2816 77.60086 221.32138 77.59933 C 221.36118 77.5978 221.42502 77.59523 221.4648 77.59375 C 221.50458 77.59227 221.56844 77.59012 221.60822 77.58864 C 221.648 77.58716 221.71186 77.5846 221.75164 77.58305 C 221.79141 77.58153 221.85527 77.57901 221.89505 77.57748 C 221.93483 77.57594 221.99868 77.57336 222.03847 77.57188 C 222.07825 77.57042 222.14209 77.56827 222.18189 77.56679 C 222.22167 77.56532 222.2855 77.56267 222.32529 77.5612 C 222.36508 77.55972 222.42891 77.55759 222.46869 77.5561 C 222.50849 77.55463 222.57233 77.55202 222.6121 77.5505 C 222.65189 77.54901 222.71575 77.54668 222.75553 77.54518 C 222.7953 77.54367 222.85916 77.54106 222.89894 77.53958 C 222.93872 77.5381 223.00258 77.53589 223.04236 77.53448 C 223.08214 77.5331 223.14598 77.53087 223.18578 77.5294 C 223.22556 77.52792 223.2894 77.52531 223.3292 77.5238 C 223.36898 77.5223 223.4328 77.51991 223.47258 77.51846 C 223.51238 77.51703 223.57622 77.51483 223.616 77.51337 C 223.65579 77.51189 223.71964 77.50926 223.75942 77.50778 C 223.7992 77.5063 223.86305 77.5041 223.90283 77.50269 C 223.94261 77.50128 224.00647 77.49902 224.04625 77.49757 C 224.08603 77.49614 224.14989 77.49368 224.18967 77.49225 C 224.22945 77.4908 224.29329 77.48862 224.33309 77.48714 C 224.37287 77.48566 224.43669 77.483 224.47649 77.48155 C 224.51627 77.48012 224.58011 77.47806 224.61989 77.4767 C 224.65969 77.47533 224.72353 77.47307 224.7633 77.4716 C 224.8031 77.47012 224.86695 77.46745 224.90673 77.466 C 224.9465 77.46457 225.01036 77.46252 225.05014 77.46115 C 225.08992 77.4598 225.15378 77.4575 225.19356 77.45607 C 225.23334 77.45462 225.2972 77.45216 225.33698 77.45071 C 225.37676 77.44926 225.4406 77.44704 225.4804 77.44562 C 225.52017 77.4442 225.584 77.44196 225.6238 77.4405 C 225.66358 77.43907 225.72742 77.43661 225.7672 77.43518 C 225.80699 77.43373 225.87084 77.43144 225.91062 77.43007 C 225.95041 77.4287 226.01425 77.42659 226.05403 77.42522 C 226.09381 77.42384 226.15767 77.42155 226.19745 77.4201 C 226.23723 77.41867 226.30109 77.41618 226.34087 77.41478 C 226.38065 77.41336 226.4445 77.41129 226.48429 77.40991 C 226.52407 77.40854 226.58789 77.40623 226.62769 77.40482 C 226.66747 77.4034 226.73131 77.40108 226.7711 77.3997 C 226.81089 77.39835 226.87473 77.39626 226.9145 77.39487 C 226.9543 77.39346 227.01815 77.39095 227.05792 77.38953 C 227.09772 77.3881 227.16156 77.386 227.20134 77.38466 C 227.24112 77.38332 227.30498 77.38112 227.34476 77.3798 C 227.38454 77.37851 227.4484 77.3766 227.48818 77.37518 C 227.52796 77.37378 227.5918 77.37105 227.63158 77.36961 C 227.67136 77.36816 227.7352 77.36609 227.775 77.36475 C 227.81478 77.3634 227.87862 77.36127 227.91841 77.3599 C 227.95819 77.35852 228.02204 77.35616 228.06182 77.35478 C 228.10161 77.35342 228.16545 77.35127 228.20523 77.34995 C 228.24503 77.3486 228.30887 77.34644 228.34865 77.34508 C 228.38843 77.3437 228.45229 77.34135 228.49207 77.33998 C 228.53185 77.33861 228.5957 77.33646 228.63549 77.33511 C 228.67527 77.33379 228.7391 77.33157 228.77889 77.33026 C 228.81867 77.32896 228.8825 77.32695 228.9223 77.32565 C 228.96208 77.32434 229.02593 77.32213 229.06572 77.3208 C 229.1055 77.31946 229.16934 77.31735 229.20912 77.31593 C 229.24892 77.31451 229.31276 77.31197 229.35254 77.3106 C 229.39234 77.30923 229.45618 77.30728 229.49596 77.30597 C 229.53574 77.30467 229.5996 77.30246 229.63938 77.30113 C 229.67916 77.29979 229.743 77.29755 229.78278 77.29628 C 229.82256 77.295 229.88642 77.29317 229.9262 77.2919 C 229.96598 77.29062 230.02982 77.28839 230.06961 77.28705 C 230.10939 77.2857 230.17324 77.28352 230.21303 77.28218 C 230.2528 77.28085 230.31665 77.27867 230.35643 77.27733 C 230.39623 77.276 230.46007 77.2738 230.49985 77.27248 C 230.53964 77.27113 230.60349 77.26892 230.64327 77.26762 C 230.68305 77.26631 230.74689 77.26428 230.78667 77.263 C 230.82645 77.26172 230.8903 77.2597 230.93009 77.25839 C 230.96987 77.25708 231.03372 77.25487 231.0735 77.25352 C 231.11328 77.2522 231.17713 77.24995 231.21692 77.24867 C 231.2567 77.2474 231.32054 77.24554 231.36034 77.2443 C 231.40012 77.24306 231.46396 77.241 231.50374 77.2397 C 231.54354 77.23839 231.60738 77.23613 231.64716 77.23483 C 231.68695 77.23352 231.7508 77.2315 231.79058 77.23022 C 231.83036 77.22894 231.8942 77.22688 231.93398 77.2256 C 231.97376 77.22432 232.03762 77.2223 232.0774 77.221 C 232.11717 77.21968 232.18103 77.21744 232.22081 77.21613 C 232.26059 77.21483 232.32444 77.2128 232.36423 77.21152 C 232.404 77.21025 232.46785 77.20815 232.50765 77.20691 C 232.54743 77.20566 232.61127 77.20381 232.65105 77.20255 C 232.69084 77.20126 232.75469 77.19896 232.79447 77.19768 C 232.83426 77.1964 232.89809 77.1946 232.93787 77.19331 C 232.97766 77.19203 233.0415 77.18973 233.08129 77.18845 C 233.12107 77.18716 233.18492 77.18532 233.2247 77.18407 C 233.26448 77.18283 233.32834 77.18077 233.36812 77.17946 C 233.4079 77.17816 233.47176 77.17587 233.51154 77.1746 C 233.55132 77.17332 233.61516 77.17143 233.65496 77.17024 C 233.69474 77.16904 233.75858 77.1671 233.79837 77.16586 C 233.83815 77.16461 233.90198 77.16249 233.94176 77.16125 C 233.98155 77.16 234.0454 77.15808 234.08518 77.15688 C 234.12497 77.15567 234.18881 77.1538 234.22859 77.15251 C 234.26837 77.15123 234.33223 77.14893 234.37201 77.14764 C 234.41179 77.14636 234.47565 77.14453 234.51543 77.14328 C 234.5552 77.14203 234.61907 77.13991 234.65885 77.13866 C 234.69863 77.13742 234.76247 77.1355 234.80226 77.1343 C 234.84204 77.1331 234.90589 77.13112 234.94568 77.12991 C 234.98546 77.12872 235.04929 77.1268 235.08907 77.12556 C 235.12886 77.12431 235.1927 77.12218 235.23249 77.12094 C 235.27228 77.11969 235.33612 77.11777 235.3759 77.11658 C 235.41568 77.11537 235.47954 77.1134 235.51932 77.1122 C 235.5591 77.111 235.62296 77.10909 235.66274 77.10783 C 235.70252 77.10658 235.76638 77.10446 235.80615 77.10321 C 235.84593 77.10196 235.90978 77.10002 235.94957 77.09885 C 235.98935 77.09767 236.05318 77.09589 236.09297 77.09471 C 236.13275 77.09354 236.1966 77.09154 236.23638 77.09033 C 236.27617 77.08913 236.34001 77.0872 236.37979 77.08597 C 236.41959 77.08475 236.48343 77.08261 236.52321 77.08136 C 236.56299 77.08012 236.62685 77.07816 236.66663 77.07698 C 236.7064 77.07582 236.77027 77.07402 236.81005 77.07285 C 236.84983 77.07169 236.91368 77.06969 236.95346 77.0685 C 236.99324 77.06729 237.05707 77.0653 237.09687 77.06412 C 237.13665 77.06291 237.20049 77.06094 237.24028 77.05975 C 237.28006 77.05855 237.3439 77.05653 237.38368 77.05537 C 237.42348 77.0542 237.48732 77.05241 237.5271 77.05125 C 237.5669 77.05008 237.63074 77.04805 237.67052 77.04688 C 237.7103 77.0457 237.77416 77.04393 237.81394 77.04276 C 237.85372 77.04158 237.91757 77.03955 237.95735 77.03838 C 237.99713 77.0372 238.06099 77.03543 238.10077 77.03426 C 238.14055 77.03308 238.20438 77.03105 238.24417 77.02988 C 238.28395 77.0287 238.3478 77.02693 238.38759 77.02576 C 238.42737 77.02458 238.49121 77.02255 238.53099 77.02138 C 238.57079 77.0202 238.63463 77.01842 238.67441 77.01724 C 238.7142 77.01607 238.77805 77.01405 238.81783 77.01288 C 238.8576 77.0117 238.92147 77.00989 238.96125 77.00874 C 239.00102 77.0076 239.06488 77.0058 239.10466 77.00462 C 239.14444 77.00345 239.20829 77.00142 239.24806 77.00024 C 239.28784 76.99908 239.35169 76.99727 239.39148 76.99612 C 239.43126 76.995 239.4951 76.99313 239.5349 76.99199 C 239.57468 76.99086 239.63852 76.98903 239.6783 76.98785 C 239.7181 76.9867 239.78194 76.98466 239.82172 76.98349 C 239.86151 76.98233 239.92536 76.98048 239.96514 76.97937 C 240.00492 76.97827 240.06877 76.9766 240.10855 76.97548 C 240.14833 76.97438 240.21218 76.97249 240.25196 76.97134 C 240.29174 76.97021 240.35559 76.96837 240.39537 76.96722 C 240.43515 76.9661 240.499 76.96423 240.53879 76.96309 C 240.57857 76.96196 240.64241 76.96014 240.6822 76.95897 C 240.72199 76.95781 240.78583 76.95576 240.8256 76.95459 C 240.8654 76.95343 240.92925 76.95158 240.96903 76.95047 C 241.00882 76.94937 241.07266 76.9477 241.11244 76.94658 C 241.15222 76.94548 241.21608 76.94359 241.25586 76.94244 C 241.29564 76.94131 241.35948 76.93939 241.39926 76.93832 C 241.43904 76.93727 241.5029 76.93575 241.54268 76.93468 C 241.58246 76.93362 241.6463 76.9317 241.6861 76.93056 C 241.72588 76.92943 241.78972 76.92757 241.82952 76.92642 C 241.8693 76.9253 241.93314 76.92342 241.97292 76.9223 C 242.01271 76.9212 242.07656 76.91953 242.11634 76.91841 C 242.15613 76.91731 242.21997 76.91542 242.25975 76.91428 C 242.29953 76.91315 242.36338 76.91127 242.40316 76.91016 C 242.44293 76.90906 242.50679 76.90733 242.54657 76.90627 C 242.58635 76.90521 242.6502 76.9035 242.68999 76.90239 C 242.72977 76.90128 242.8334 76.89825 242.8334 76.89825 "/>
</g>
<path transform="matrix(1,0,0,-1,.199,158.788)" d="M 123.41075 97.13455 C 123.41075 98.23503 122.51866 99.1271 121.4182 99.1271 C 120.31772 99.1271 119.42564 98.23503 119.42564 97.13455 C 119.42564 96.03409 120.31772 95.142 121.4182 95.142 C 122.51866 95.142 123.41075 96.03409 123.41075 97.13455 Z M 121.4182 97.13455 " fill="#000080"/>
<path transform="matrix(1,0,0,-1,.199,158.788)" stroke-width="1" stroke-linecap="butt" stroke-miterlimit="10" stroke-linejoin="miter" fill="none" stroke="#000080" d="M 123.41075 97.13455 C 123.41075 98.23503 122.51866 99.1271 121.4182 99.1271 C 120.31772 99.1271 119.42564 98.23503 119.42564 97.13455 C 119.42564 96.03409 120.31772 95.142 121.4182 95.142 C 122.51866 95.142 123.41075 96.03409 123.41075 97.13455 Z M 121.4182 97.13455 "/>
<symbol id="font_1_1">
<path d="M .305 .31300003 C .311 .33900003 .334 .43100003 .404 .43100003 C .409 .43100003 .433 .43100003 .454 .418 C .426 .41300003 .40600003 .388 .40600003 .36400003 C .40600003 .34800003 .417 .32900004 .444 .32900004 C .46600003 .32900004 .498 .34700004 .498 .38700003 C .498 .43900005 .439 .45300005 .405 .45300005 C .347 .45300005 .312 .40000005 .3 .37700004 C .275 .44300003 .221 .45300005 .19200002 .45300005 C .08800001 .45300005 .031000002 .32400004 .031000002 .29900003 C .031000002 .28900004 .041 .28900004 .043000007 .28900004 C .051000008 .28900004 .054000006 .291 .056 .3 C .09 .40600003 .156 .43100003 .19000001 .43100003 C .209 .43100003 .244 .42200003 .244 .36400003 C .244 .33300004 .22700002 .26600004 .19000001 .126 C .17400001 .064 .13900002 .022000002 .095000009 .022000002 C .08900001 .022000002 .06600001 .022000002 .045 .035 C .07000001 .040000004 .09200001 .061 .09200001 .089 C .09200001 .116000007 .07000001 .124000009 .055000009 .124000009 C .025 .124000009 0 .098000008 0 .06600001 C 0 .020000002 .050000006 0 .094000007 0 C .16000001 0 .19600001 .07000001 .19900002 .076000008 C .21100001 .039 .24700003 0 .307 0 C .41 0 .467 .12900001 .467 .15400002 C .467 .16400002 .458 .16400002 .455 .16400002 C .446 .16400002 .444 .16000001 .442 .15300001 C .409 .046 .341 .022000002 .30900003 .022000002 C .27 .022000002 .254 .054 .254 .08800001 C .254 .11000001 .26 .13200002 .271 .17600002 L .305 .31300003 Z "/>
</symbol>
<use xlink:href="#font_1_1" transform="matrix(9.9626,0,0,-9.9626,198.31291,88.17759)"/>
<symbol id="font_1_2">
<path d="M .45700003 .586 C .461 .6 .461 .602 .461 .609 C .461 .62700006 .447 .63600006 .432 .63600006 C .42200003 .63600006 .40600003 .63 .397 .615 C .395 .61 .387 .579 .38300003 .561 C .37600003 .535 .36900003 .508 .363 .48100005 L .318 .301 C .314 .286 .271 .21600002 .20500002 .21600002 C .15400002 .21600002 .143 .26000003 .143 .29700003 C .143 .34300003 .16000001 .40500004 .194 .49300004 C .21000001 .53400006 .21400002 .545 .21400002 .56500008 C .21400002 .61 .18200001 .6470001 .13200002 .6470001 C .037 .6470001 0 .50200006 0 .49300004 C 0 .48300005 .01 .48300005 .012 .48300005 C .022000002 .48300005 .023 .485 .028000003 .50100007 C .055000009 .595 .095000009 .625 .12900001 .625 C .13700001 .625 .15400002 .625 .15400002 .59300008 C .15400002 .568 .14400001 .54200008 .13700001 .523 C .097 .41700004 .079 .36 .079 .31300003 C .079 .224 .142 .194 .201 .194 C .24000003 .194 .274 .21100001 .30200003 .23900002 C .289 .187 .277 .13800001 .237 .08500001 C .21100001 .051 .17300001 .022 .127 .022 C .113000009 .022 .068 .025000006 .051000008 .06400001 C .067 .06400001 .080000009 .06400001 .094000007 .076000008 C .104 .08500001 .11400001 .098000008 .11400001 .117000009 C .11400001 .148 .087000008 .15200001 .07700001 .15200001 C .054000006 .15200001 .021 .136 .021 .087000008 C .021 .037 .065000008 0 .127 0 C .23 0 .333 .091000009 .361 .20400001 L .45700003 .586 Z "/>
</symbol>
<use xlink:href="#font_1_2" transform="matrix(9.9626,0,0,-9.9626,95.02091,9.652334)"/>
</svg>
