<?xml version="1.0" encoding="UTF-8" standalone="no"?>
<!DOCTYPE svg PUBLIC "-//W3C//DTD SVG 1.1//EN" "http://www.w3.org/Graphics/SVG/1.1/DTD/svg11.dtd">
<svg xmlns="http://www.w3.org/2000/svg" xmlns:xlink="http://www.w3.org/1999/xlink" version="1.1" width="133.794pt" height="174.683pt" viewBox="0 0 133.794 174.683">
<path transform="matrix(1,0,0,-1,.199,174.484)" stroke-width="1" stroke-linecap="butt" stroke-miterlimit="10" stroke-linejoin="miter" fill="none" stroke="#000000" d="M 0 80.69843 L 119.0551 80.69843 "/>
<path transform="matrix(1,0,0,-1,119.2541,93.78556)" d="M 1.99252 0 L -1.19551 1.59401 L 0 0 L -1.19551 -1.59401 "/>
<path transform="matrix(1,0,0,-1,.199,174.484)" stroke-width="1" stroke-linecap="butt" stroke-miterlimit="10" stroke-linejoin="miter" fill="none" stroke="#000000" d="M 67.24869 0 L 67.24869 159.40431 "/>
<path transform="matrix(0,-1,-1,-0,67.447689,15.079681)" d="M 1.99252 0 L -1.19551 1.59401 L 0 0 L -1.19551 -1.59401 "/>
<clipPath id="cp0">
<path transform="matrix(1,0,0,-1,.199,174.484)" d="M 0 0 L 121.04764 0 L 121.04764 161.39685 L 0 161.39685 Z "/>
</clipPath>
<g clip-path="url(#cp0)">
<path transform="matrix(1,0,0,-1,.199,174.484)" stroke-width="1.19553" stroke-linecap="butt" stroke-miterlimit="10" stroke-linejoin="miter" fill="none" stroke="#800000" d="M 13.44974 127.61108 C 13.44974 127.61108 14.23495 126.73668 14.5365 126.40988 C 14.83804 126.08308 15.32161 125.56998 15.62317 125.25569 C 15.92473 124.9414 16.4084 124.44746 16.70996 124.1447 C 17.01152 123.84193 17.49509 123.36568 17.79663 123.07352 C 18.09818 122.78137 18.58183 122.32146 18.8834 122.03897 C 19.18498 121.75648 19.66862 121.31128 19.9702 121.03757 C 20.27176 120.76385 20.75531 120.33202 21.05685 120.06624 C 21.35841 119.80046 21.84207 119.38066 22.14363 119.12198 C 22.44519 118.8633 22.92876 118.45422 23.23032 118.20184 C 23.53188 117.94948 24.01553 117.54988 24.3171 117.30307 C 24.61865 117.05624 25.10231 116.66495 25.40387 116.42294 C 25.70543 116.18094 26.189 115.79674 26.49055 115.55884 C 26.79211 115.32094 27.27576 114.94275 27.57732 114.70827 C 27.87889 114.4738 28.36253 114.10057 28.6641 113.8689 C 28.96565 113.6372 29.44922 113.26796 29.75078 113.03845 C 30.05234 112.80894 30.536 112.44266 30.83755 112.21477 C 31.13911 111.98688 31.62268 111.62276 31.92424 111.3959 C 32.2258 111.16907 32.70946 110.80606 33.01102 110.57973 C 33.31258 110.35341 33.79622 109.99095 34.0978 109.76468 C 34.39935 109.53839 34.8829 109.17549 35.18446 108.94879 C 35.48604 108.72208 35.9697 108.35822 36.27124 108.13066 C 36.57278 107.9031 37.05635 107.53743 37.35791 107.30861 C 37.65947 107.07979 38.14313 106.71187 38.4447 106.48146 C 38.74628 106.25104 39.22993 105.8802 39.53148 105.64783 C 39.83302 105.41545 40.31657 105.04124 40.61815 104.8066 C 40.91971 104.57196 41.40337 104.19383 41.70493 103.95665 C 42.0065 103.71947 42.49005 103.33702 42.7916 103.09706 C 43.09314 102.8571 43.5768 102.47006 43.87837 102.22711 C 44.17995 101.98415 44.6636 101.59209 44.96516 101.34596 C 45.26672 101.09982 45.75029 100.7026 46.05183 100.45313 C 46.35338 100.20364 46.83704 99.8008 47.13861 99.54787 C 47.44019 99.29494 47.92383 98.88657 48.2254 98.6301 C 48.52696 98.37363 49.01051 97.95938 49.31206 97.6993 C 49.61362 97.4392 50.09727 97.01917 50.39883 96.75545 C 50.7004 96.49173 51.18396 96.06586 51.48552 95.79848 C 51.78708 95.53111 52.27074 95.09938 52.5723 94.82837 C 52.87386 94.55736 53.35751 94.1198 53.65907 93.84525 C 53.96063 93.57068 54.44418 93.12749 54.74576 92.84949 C 55.04732 92.57147 55.53096 92.12279 55.83252 91.8414 C 56.1341 91.56003 56.61765 91.10608 56.9192 90.82152 C 57.22076 90.53697 57.70442 90.07802 58.00598 89.79047 C 58.30754 89.5029 58.7912 89.03929 59.09276 88.74895 C 59.39432 88.4586 59.87788 87.99069 60.17944 87.69777 C 60.481 87.40486 60.96468 86.93298 61.26622 86.63777 C 61.56776 86.34256 62.05132 85.86726 62.35289 85.57008 C 62.65445 85.27292 63.13809 84.79474 63.43967 84.49593 C 63.74126 84.19713 64.2249 83.71652 64.52644 83.41644 C 64.82799 83.11635 65.31155 82.634 65.61311 82.33304 C 65.91467 82.03207 66.39833 81.54861 66.6999 81.2472 C 67.00148 80.94577 67.48514 80.46193 67.78668 80.1605 C 68.08823 79.85909 68.57178 79.37558 68.87335 79.07466 C 69.17491 78.77374 69.65857 78.29149 69.96013 77.99156 C 70.2617 77.69165 70.74525 77.21138 71.0468 76.91301 C 71.34834 76.61464 71.832 76.13733 72.13358 75.84111 C 72.43515 75.5449 72.91881 75.07152 73.22037 74.77803 C 73.52193 74.48456 74.0055 74.01602 74.30704 73.72594 C 74.60858 73.43585 75.09225 72.9733 75.39381 72.68729 C 75.69537 72.40126 76.17892 71.9457 76.4805 71.66443 C 76.78206 71.38316 77.2657 70.9358 77.56726 70.66005 C 77.86884 70.3843 78.35248 69.94633 78.65404 69.67682 C 78.9556 69.4073 79.43916 68.97995 79.74072 68.71748 C 80.04228 68.455 80.52594 68.03964 80.8275 67.78503 C 81.12906 67.53043 81.61263 67.12833 81.91418 66.88245 C 82.21574 66.63657 82.69939 66.24916 83.00096 66.0129 C 83.30252 65.77663 83.78616 65.40532 84.08772 65.17958 C 84.3893 64.95386 84.87285 64.60013 85.17441 64.38586 C 85.47597 64.17159 85.95964 63.83707 86.26118 63.63524 C 86.56273 63.43343 87.0463 63.11958 87.34785 62.93121 C 87.64941 62.74284 88.13307 62.45143 88.43465 62.27757 C 88.73622 62.10371 89.21986 61.83632 89.52142 61.67801 C 89.82297 61.5197 90.30652 61.27817 90.6081 61.1365 C 90.90965 60.99486 91.3933 60.78087 91.69487 60.657 C 91.99644 60.53313 92.4801 60.34857 92.78165 60.24367 C 93.08319 60.13876 93.56676 59.98561 93.86832 59.90083 C 94.16988 59.81606 94.65355 59.69604 94.95511 59.63261 C 95.25667 59.56917 95.74023 59.4844 96.04178 59.44359 C 96.34332 59.40277 96.82697 59.35535 97.12856 59.33842 C 97.43013 59.3215 97.91377 59.31332 98.21533 59.3216 C 98.5169 59.32986 99.00046 59.36324 99.302 59.39803 C 99.60355 59.43283 100.08722 59.50975 100.38878 59.57246 C 100.69034 59.6352 101.1739 59.7581 101.47546 59.85014 C 101.77702 59.9422 102.26068 60.11317 102.56224 60.23598 C 102.8638 60.35878 103.34744 60.58026 103.64902 60.73529 C 103.95058 60.89032 104.43413 61.16467 104.73569 61.35342 C 105.03726 61.54219 105.5209 61.87184 105.82246 62.09584 C 106.12402 62.31985 106.60759 62.70717 106.90915 62.96796 C 107.21071 63.22874 107.69437 63.67633 107.99593 63.97551 C 108.29749 64.27469 108.78114 64.78508 109.0827 65.12427 C 109.38426 65.46346 109.86783 66.03934 110.16939 66.42017 C 110.47095 66.80101 110.95459 67.44499 111.25616 67.86919 C 111.55772 68.29337 112.04137 69.00822 112.34293 69.47745 C 112.6445 69.94667 113.12805 70.7351 113.42961 71.2511 C 113.73117 71.7671 114.21484 72.6319 114.51639 73.19646 C 114.81793 73.76102 115.3015 74.70511 115.60306 75.32004 C 115.90462 75.93495 116.38828 76.96133 116.68985 77.62842 C 116.99142 78.29552 117.47507 79.40695 117.77663 80.12808 C 118.07817 80.84923 118.56172 82.04881 118.86328 82.82588 C 119.16486 83.60297 119.64851 84.89388 119.95007 85.72882 C 120.25163 86.56378 121.03674 88.84377 121.03674 88.84377 "/>
<path transform="matrix(1,0,0,-1,.199,174.484)" stroke-width="1.19553" stroke-linecap="butt" stroke-miterlimit="10" stroke-linejoin="miter" fill="none" stroke="#800080" d="M 13.44974 4.8419 C 13.44974 4.8419 14.23495 7.05147 14.5365 7.85689 C 14.83804 8.66232 15.32161 9.903 15.62317 10.64694 C 15.92473 11.39088 16.4084 12.5344 16.70996 13.21873 C 17.01152 13.90308 17.49509 14.9526 17.79663 15.57925 C 18.09818 16.20589 18.58183 17.16435 18.8834 17.73517 C 19.18498 18.30598 19.66862 19.17647 19.9702 19.69333 C 20.27176 20.2102 20.75531 20.9956 21.05685 21.46045 C 21.35841 21.92528 21.84207 22.62888 22.14363 23.04356 C 22.44519 23.45824 22.92876 24.08284 23.23032 24.44926 C 23.53188 24.81567 24.01553 25.36438 24.3171 25.68442 C 24.61865 26.00446 25.10231 26.48035 25.40387 26.7559 C 25.70543 27.03145 26.189 27.43753 26.49055 27.6705 C 26.79211 27.90347 27.27576 28.2428 27.57732 28.43506 C 27.87889 28.62733 28.36253 28.90283 28.6641 29.05629 C 28.96565 29.20976 29.44922 29.4246 29.75078 29.54115 C 30.05234 29.65768 30.536 29.81479 30.83755 29.89629 C 31.13911 29.97778 31.62268 30.08022 31.92424 30.1286 C 32.2258 30.17697 32.70946 30.22784 33.01102 30.24496 C 33.31258 30.26208 33.79622 30.2643 34.0978 30.25204 C 34.39935 30.23979 34.8829 30.19633 35.18446 30.15662 C 35.48604 30.1169 35.9697 30.03104 36.27124 29.96576 C 36.57278 29.90048 37.05635 29.77501 37.35791 29.68604 C 37.65947 29.59706 38.14313 29.4352 38.4447 29.32443 C 38.74628 29.21365 39.22993 29.0183 39.53148 28.8876 C 39.83302 28.75691 40.31657 28.53116 40.61815 28.38243 C 40.91971 28.23372 41.40337 27.98055 41.70493 27.81569 C 42.0065 27.65083 42.49005 27.37334 42.7916 27.19426 C 43.09314 27.01518 43.5768 26.71635 43.87837 26.52492 C 44.17995 26.33348 44.6636 26.01633 44.96516 25.81442 C 45.26672 25.61253 45.75029 25.28021 46.05183 25.06976 C 46.35338 24.8593 46.83704 24.51466 47.13861 24.2975 C 47.44019 24.08034 47.92383 23.72655 48.2254 23.50461 C 48.52696 23.28267 49.01051 22.92268 49.31206 22.69786 C 49.61362 22.47302 50.09727 22.1099 50.39883 21.88403 C 50.7004 21.65817 51.18396 21.29497 51.48552 21.06999 C 51.78708 20.84502 52.27074 20.48473 52.5723 20.26253 C 52.87386 20.04033 53.35751 19.68605 53.65907 19.4685 C 53.96063 19.25098 54.44418 18.90558 54.74576 18.6946 C 55.04732 18.48361 55.53096 18.15033 55.83252 17.94778 C 56.1341 17.74522 56.61765 17.42694 56.9192 17.23473 C 57.22076 17.0425 57.70442 16.7423 58.00598 16.56229 C 58.30754 16.38228 58.7912 16.10316 59.09276 15.93727 C 59.39432 15.7714 59.87788 15.51651 60.17944 15.36664 C 60.481 15.21677 60.96468 14.98897 61.26622 14.85696 C 61.56776 14.72496 62.05132 14.52744 62.35289 14.4152 C 62.65445 14.303 63.13809 14.13863 63.43967 14.04807 C 63.74126 13.9575 64.2249 13.82948 64.52644 13.7625 C 64.82799 13.6955 65.31155 13.6067 65.61311 13.56516 C 65.91467 13.5236 66.39833 13.47716 66.6999 13.46295 C 67.00148 13.44876 67.48514 13.44774 67.78668 13.46275 C 68.08823 13.47778 68.57178 13.52509 68.87335 13.57123 C 69.17491 13.61736 69.65857 13.71617 69.96013 13.79533 C 70.2617 13.87448 70.74525 14.02771 71.0468 14.14175 C 71.34834 14.2558 71.832 14.46652 72.13358 14.61737 C 72.43515 14.7682 72.91881 15.03943 73.22037 15.22894 C 73.52193 15.41844 74.0055 15.75316 74.30704 15.98325 C 74.60858 16.21333 75.09225 16.61472 75.39381 16.88728 C 75.69537 17.15984 76.17892 17.63078 76.4805 17.94768 C 76.78206 18.26457 77.2657 18.80821 77.56726 19.17134 C 77.86884 19.53447 78.35248 20.15367 78.65404 20.56494 C 78.9556 20.97621 79.43916 21.67422 79.74072 22.13553 C 80.04228 22.59683 80.52594 23.37651 80.8275 23.88971 C 81.12906 24.4029 81.61263 25.26733 81.91418 25.83434 C 82.21574 26.40134 82.69939 27.35359 83.00096 27.97629 C 83.30252 28.59897 83.78616 29.64204 84.08772 30.32233 C 84.3893 31.00262 84.87285 32.1396 85.17441 32.87936 C 85.47597 33.61913 85.95964 34.85294 86.26118 35.65402 C 86.56273 36.45512 87.0463 37.78886 87.34785 38.65321 C 87.64941 39.51756 88.13307 40.95428 88.43465 41.88379 C 88.73622 42.81328 89.21986 44.3559 89.52142 45.35242 C 89.82297 46.34894 90.30652 48.00064 90.6081 49.0661 C 90.90965 50.13156 91.3933 51.89532 91.69487 53.03159 C 91.99644 54.16786 92.4801 56.0466 92.78165 57.25557 C 93.08319 58.46454 93.56676 60.46144 93.86832 61.745 C 94.16988 63.02856 94.65355 65.14662 94.95511 66.50667 C 95.25667 67.86671 95.74023 70.10895 96.04178 71.54736 C 96.34332 72.98576 96.82697 75.35515 97.12856 76.87381 C 97.43013 78.39247 97.91377 80.89209 98.21533 82.49292 C 98.5169 84.09375 99.00046 86.72667 99.302 88.41154 C 99.60355 90.09644 100.08722 92.86559 100.38878 94.63638 C 100.69034 96.40718 101.1739 99.31569 101.47546 101.1743 C 101.77702 103.03291 102.26068 106.08371 102.56224 108.03204 C 102.8638 109.98038 103.34744 113.17657 103.64902 115.21652 C 103.95058 117.25645 104.43413 120.60115 104.73569 122.73459 C 105.03726 124.86804 105.5209 128.3641 105.82246 130.59293 C 106.12402 132.82175 106.60759 136.47232 106.90915 138.7984 C 107.21071 141.12448 107.69437 144.93254 107.99593 147.35779 C 108.29749 149.78304 108.78114 153.75168 109.0827 156.27797 C 109.38426 158.80426 109.86783 162.93636 110.16939 165.56562 C 110.47095 168.19486 110.95459 172.4937 111.25616 175.22779 C 111.55772 177.96189 112.04137 182.43029 112.34293 185.27106 C 112.6445 188.11185 113.12805 192.75283 113.42961 195.70223 C 113.73117 198.65161 114.21484 203.46842 114.51639 206.52834 C 114.81793 209.58827 115.3015 214.58376 115.60306 217.75609 C 115.90462 220.92844 116.38828 226.10575 116.68985 229.39235 C 116.99142 232.67896 117.47507 238.04091 117.77663 241.44367 C 118.07817 244.84642 118.56172 250.39621 118.86328 253.91704 C 119.16486 257.43788 119.64851 263.17857 119.95007 266.81935 C 120.25163 270.46015 121.03674 280.15733 121.03674 280.15733 "/>
<path transform="matrix(1,0,0,-1,.199,174.484)" stroke-width="1.19553" stroke-linecap="butt" stroke-miterlimit="10" stroke-linejoin="miter" fill="none" stroke="#000080" d="M 13.44974 274.37467 C 13.44974 274.37467 14.23495 264.1042 14.5365 260.2405 C 14.83804 256.3768 15.32161 250.2745 15.62317 246.52776 C 15.92473 242.781 16.4084 236.86623 16.70996 233.23645 C 17.01152 229.60668 17.49509 223.8796 17.79663 220.36678 C 18.09818 216.85396 18.58183 211.31432 18.8834 207.91846 C 19.18498 204.52259 19.66862 199.17057 19.9702 195.89165 C 20.27176 192.61273 20.75531 187.44823 21.05685 184.28629 C 21.35841 181.12433 21.84207 176.14743 22.14363 173.10247 C 22.44519 170.05748 22.92876 165.26818 23.23032 162.34015 C 23.53188 159.41214 24.01553 154.8104 24.3171 151.9993 C 24.61865 149.18822 25.10231 144.77388 25.40387 142.07976 C 25.70543 139.38565 26.189 135.1591 26.49055 132.58199 C 26.79211 130.00485 27.27576 125.96571 27.57732 123.50552 C 27.87889 121.04532 28.36253 117.19376 28.6641 114.8505 C 28.96565 112.50723 29.44922 108.8432 29.75078 106.61691 C 30.05234 104.39063 30.536 100.91425 30.83755 98.80495 C 31.13911 96.69565 31.62268 93.40677 31.92424 91.41443 C 32.2258 89.42209 32.70946 86.32085 33.01102 84.44545 C 33.31258 82.57005 33.79622 79.65634 34.0978 77.89789 C 34.39935 76.13945 34.8829 73.41324 35.18446 71.77177 C 35.48604 70.13031 35.9697 67.59178 36.27124 66.06729 C 36.57278 64.54279 37.05635 62.19171 37.35791 60.78413 C 37.65947 59.37654 38.14313 57.21301 38.4447 55.92241 C 38.74628 54.63182 39.22993 52.65598 39.53148 51.48235 C 39.83302 50.3087 40.31657 48.52028 40.61815 47.4636 C 40.91971 46.4069 41.40337 44.8061 41.70493 43.86638 C 42.0065 42.92665 42.49005 41.51344 42.7916 40.6907 C 43.09314 39.86795 43.5768 38.64236 43.87837 37.93655 C 44.17995 37.23076 44.6636 36.1926 44.96516 35.60374 C 45.26672 35.0149 45.75029 34.16435 46.05183 33.69247 C 46.35338 33.22058 46.83704 32.55756 47.13861 32.20262 C 47.44019 31.84769 47.92383 31.37227 48.2254 31.13431 C 48.52696 30.89636 49.01051 30.60855 49.31206 30.48755 C 49.61362 30.36653 50.09727 30.26614 50.39883 30.2621 C 50.7004 30.25806 51.18396 30.3454 51.48552 30.4583 C 51.78708 30.5712 52.27074 30.84607 52.5723 31.07593 C 52.87386 31.30577 53.35751 31.76819 53.65907 32.11499 C 53.96063 32.46179 54.44418 33.11171 54.74576 33.57549 C 55.04732 34.03928 55.53096 34.87689 55.83252 35.45763 C 56.1341 36.03835 56.61765 37.0634 56.9192 37.76108 C 57.22076 38.45876 57.70442 39.67142 58.00598 40.48608 C 58.30754 41.30074 58.7912 42.70102 59.09276 43.63261 C 59.39432 44.56422 59.87788 46.15192 60.17944 47.2005 C 60.481 48.24907 60.96468 50.02446 61.26622 51.18999 C 61.56776 52.35553 62.05132 54.31844 62.35289 55.60092 C 62.65445 56.8834 63.13809 59.03384 63.43967 60.4333 C 63.74126 61.83275 64.2249 64.17079 64.52644 65.68721 C 64.82799 67.20363 65.31155 69.72919 65.61311 71.36255 C 65.91467 72.99591 66.39833 75.70909 66.6999 77.45943 C 67.00148 79.20975 67.48514 82.11044 67.78668 83.97772 C 68.08823 85.84502 68.57178 88.93332 68.87335 90.91757 C 69.17491 92.90182 69.65857 96.17764 69.96013 98.27885 C 70.2617 100.38005 70.74525 103.84349 71.0468 106.06166 C 71.34834 108.27982 71.832 111.93079 72.13358 114.2659 C 72.43515 116.60103 72.91881 120.4395 73.22037 122.89159 C 73.52193 125.34366 74.0055 129.36975 74.30704 131.9388 C 74.60858 134.50785 75.09225 138.72156 75.39381 141.40755 C 75.69537 144.09354 76.17892 148.49468 76.4805 151.29764 C 76.78206 154.10059 77.2657 158.68944 77.56726 161.60935 C 77.86884 164.52927 78.35248 169.30556 78.65404 172.3424 C 78.9556 175.37926 79.43916 180.34314 79.74072 183.49698 C 80.04228 186.65082 80.52594 191.8023 80.8275 195.0731 C 81.12906 198.3439 81.61263 203.6829 81.91418 207.07065 C 82.21574 210.4584 82.69939 215.98491 83.00096 219.48964 C 83.30252 222.99437 83.78616 228.70868 84.08772 232.33037 C 84.3893 235.95206 84.87285 241.85372 85.17441 245.59233 C 85.47597 249.33095 85.95964 255.42023 86.26118 259.27583 C 86.56273 263.1314 87.0463 269.4082 87.34785 273.38075 C 87.64941 277.3533 88.13307 283.8177 88.43465 287.9072 C 88.73622 291.9967 89.21986 298.64866 89.52142 302.8551 C 89.82297 307.06156 90.30652 313.9011 90.6081 318.22453 C 90.90965 322.54798 91.3933 329.575 91.69487 334.01539 C 91.99644 338.45576 92.4801 345.67033 92.78165 350.2277 C 93.08319 354.78504 93.56676 362.18739 93.86832 366.86174 C 94.16988 371.53605 94.65355 379.12583 94.95511 383.91709 C 95.25667 388.70835 95.74023 396.48567 96.04178 401.3939 C 96.34332 406.3021 96.82697 414.26695 97.12856 419.2921 C 97.43013 424.3173 97.91377 432.46974 98.21533 437.61189 C 98.5169 442.75404 99.00046 451.0941 99.302 456.35319 C 99.60355 461.61228 100.08722 470.13978 100.38878 475.5158 C 100.69034 480.89186 101.1739 489.60697 101.47546 495.09999 C 101.77702 500.593 102.26068 509.4957 102.56224 515.10568 C 102.8638 520.71566 103.34744 529.8059 103.64902 535.53286 C 103.95058 541.25979 104.43413 550.5376 104.73569 556.3815 C 105.03726 562.2254 105.5209 571.691 105.82246 577.6518 C 106.12402 583.6127 106.60759 593.2655 106.90915 599.3433 C 107.21071 605.42117 107.69437 615.2618 107.99593 621.4565 C 108.29749 627.6513 108.78114 637.6793 109.0827 643.991 C 109.38426 650.30276 109.86783 660.51828 110.16939 666.94699 C 110.47095 673.3757 110.95459 683.779 111.25616 690.32467 C 111.55772 696.8703 112.04137 707.461 112.34293 714.1236 C 112.6445 720.78616 113.12805 731.56448 113.42961 738.344 C 113.73117 745.1236 114.21484 756.0894 114.51639 762.986 C 114.81793 769.88259 115.3015 781.03616 115.60306 788.0496 C 115.90462 795.0631 116.38828 806.4041 116.68985 813.53457 C 116.99142 820.66506 117.47507 832.19357 117.77663 839.4409 C 118.07817 846.6883 118.56172 858.4044 118.86328 865.76876 C 119.16486 873.1331 119.64851 885.03689 119.95007 892.51828 C 120.25163 899.9996 121.03674 919.689 121.03674 919.689 "/>
<symbol id="font_1_2">
<path d="M .11800001 .078 C .108 .039 .106 .031000002 .027000003 .031000002 C .009999998 .031000002 0 .031000002 0 .011000001 C 0 0 .009 0 .027000003 0 L .38400004 0 C .54200008 0 .66 .11800001 .66 .216 C .66 .28800003 .60200008 .34600003 .50500008 .35700003 C .609 .37600003 .71400007 .45000003 .71400007 .545 C .71400007 .619 .64800009 .683 .52800008 .683 L .192 .683 C .17300001 .683 .16300002 .683 .16300002 .66300007 C .16300002 .652 .17200002 .652 .19100002 .652 C .19300002 .652 .21200001 .652 .22900003 .65000006 C .24700001 .648 .256 .647 .256 .634 C .256 .63000008 .25500003 .62700006 .252 .615 L .11800001 .078 M .26900003 .36600004 L .33100004 .614 C .34000004 .64900007 .342 .652 .38500003 .652 L .51400008 .652 C .60200008 .652 .623 .59300008 .623 .549 C .623 .46100004 .53700008 .36600004 .41500003 .36600004 L .26900003 .36600004 M .224 .031000002 C .21000001 .031000002 .208 .031000002 .20200002 .032 C .192 .033 .18900001 .034 .18900001 .042000005 C .18900001 .045 .18900001 .047000003 .194 .065000008 L .263 .344 L .45200003 .344 C .54800006 .344 .56700006 .27 .56700006 .22700002 C .56700006 .128 .47800005 .031000002 .36 .031000002 L .224 .031000002 Z "/>
</symbol>
<use xlink:href="#font_1_2" transform="matrix(9.9626,0,0,-9.9626,2.4904292,49.443986)" fill="#800000"/>
<symbol id="font_1_3">
<path d="M .71000006 .71700009 C .71000006 .72 .708 .72700008 .699 .72700008 C .69600006 .72700008 .69500008 .7260001 .684 .71500006 L .614 .6380001 C .605 .65200009 .559 .72700008 .448 .72700008 C .22500001 .72700008 0 .50600007 0 .27400003 C 0 .109000008 .118000019 0 .271 0 C .358 0 .43400003 .040000004 .487 .086 C .58000007 .16800002 .597 .25900004 .597 .26200003 C .597 .272 .587 .272 .58500006 .272 C .579 .272 .574 .27 .572 .26200003 C .563 .23300001 .54 .162 .47100003 .104 C .402 .048 .33900003 .031000004 .287 .031000004 C .19700001 .031000004 .091000009 .083000008 .091000009 .23900001 C .091000009 .29600004 .112 .45800004 .21200003 .57500007 C .273 .646 .367 .69600006 .45600004 .69600006 C .558 .69600006 .61700007 .619 .61700007 .503 C .61700007 .46300004 .614 .46200005 .614 .45200003 C .614 .44200004 .625 .44200004 .629 .44200004 C .642 .44200004 .642 .44400005 .647 .46200005 L .71000006 .71700009 Z "/>
</symbol>
<use xlink:href="#font_1_3" transform="matrix(9.9626,0,0,-9.9626,2.79413,164.65717)" fill="#800080"/>
<symbol id="font_1_1">
<path d="M .14400001 .115 C .10400002 .048 .065 .034 .021000002 .031000002 C .009000003 .030000002 0 .030000002 0 .011000001 C 0 .0050000005 .0050000029 0 .013 0 C .040000004 0 .07100001 .003 .09900001 .003 C .13200002 .003 .16700001 0 .19900002 0 C .20500002 0 .21800003 0 .21800003 .019000002 C .21800003 .030000002 .20900002 .031000002 .20200002 .031000002 C .17900002 .033 .15500002 .041 .15500002 .066 C .15500002 .078 .16100002 .089 .16900002 .10300001 L .245 .231 L .49600003 .231 C .49800007 .21000001 .512 .074 .512 .064 C .512 .034 .46000005 .031000002 .44000004 .031000002 C .42600004 .031000002 .41600005 .031000002 .41600005 .011000001 C .41600005 0 .42800004 0 .43000005 0 C .47100006 0 .514 .003 .555 .003 C .58 .003 .643 0 .668 0 C .674 0 .686 0 .686 .020000002 C .686 .031000002 .676 .031000002 .663 .031000002 C .601 .031000002 .601 .038000004 .598 .067 L .537 .69200006 C .535 .712 .535 .716 .518 .716 C .502 .716 .49800007 .70900008 .492 .69900009 L .14400001 .115 M .26400004 .26200003 L .46100004 .592 L .493 .26200003 L .26400004 .26200003 Z "/>
</symbol>
<use xlink:href="#font_1_1" transform="matrix(9.9626,0,0,-9.9626,13.765692,26.579987)" fill="#000080"/>
</g>
<symbol id="font_1_4">
<path d="M .305 .31300003 C .311 .33900003 .334 .43100003 .404 .43100003 C .409 .43100003 .433 .43100003 .454 .418 C .426 .41300003 .40600003 .388 .40600003 .36400003 C .40600003 .34800003 .417 .32900004 .444 .32900004 C .46600003 .32900004 .498 .34700004 .498 .38700003 C .498 .43900005 .439 .45300005 .405 .45300005 C .347 .45300005 .312 .40000005 .3 .37700004 C .275 .44300003 .221 .45300005 .19200002 .45300005 C .08800001 .45300005 .031000002 .32400004 .031000002 .29900003 C .031000002 .28900004 .041 .28900004 .043000007 .28900004 C .051000008 .28900004 .054000006 .291 .056 .3 C .09 .40600003 .156 .43100003 .19000001 .43100003 C .209 .43100003 .244 .42200003 .244 .36400003 C .244 .33300004 .22700002 .26600004 .19000001 .126 C .17400001 .064 .13900002 .022000002 .095000009 .022000002 C .08900001 .022000002 .06600001 .022000002 .045 .035 C .07000001 .040000004 .09200001 .061 .09200001 .089 C .09200001 .116000007 .07000001 .124000009 .055000009 .124000009 C .025 .124000009 0 .098000008 0 .06600001 C 0 .020000002 .050000006 0 .094000007 0 C .16000001 0 .19600001 .07000001 .19900002 .076000008 C .21100001 .039 .24700003 0 .307 0 C .41 0 .467 .12900001 .467 .15400002 C .467 .16400002 .458 .16400002 .455 .16400002 C .446 .16400002 .444 .16000001 .442 .15300001 C .409 .046 .341 .022000002 .30900003 .022000002 C .27 .022000002 .254 .054 .254 .08800001 C .254 .11000001 .26 .13200002 .271 .17600002 L .305 .31300003 Z "/>
</symbol>
<use xlink:href="#font_1_4" transform="matrix(9.9626,0,0,-9.9626,125.06892,96.02957)"/>
<symbol id="font_1_5">
<path d="M .45700003 .586 C .461 .6 .461 .602 .461 .609 C .461 .62700006 .447 .63600006 .432 .63600006 C .42200003 .63600006 .40600003 .63 .397 .615 C .395 .61 .387 .579 .38300003 .561 C .37600003 .535 .36900003 .508 .363 .48100005 L .318 .301 C .314 .286 .271 .21600002 .20500002 .21600002 C .15400002 .21600002 .143 .26000003 .143 .29700003 C .143 .34300003 .16000001 .40500004 .194 .49300004 C .21000001 .53400006 .21400002 .545 .21400002 .56500008 C .21400002 .61 .18200001 .6470001 .13200002 .6470001 C .037 .6470001 0 .50200006 0 .49300004 C 0 .48300005 .01 .48300005 .012 .48300005 C .022000002 .48300005 .023 .485 .028000003 .50100007 C .055000009 .595 .095000009 .625 .12900001 .625 C .13700001 .625 .15400002 .625 .15400002 .59300008 C .15400002 .568 .14400001 .54200008 .13700001 .523 C .097 .41700004 .079 .36 .079 .31300003 C .079 .224 .142 .194 .201 .194 C .24000003 .194 .274 .21100001 .30200003 .23900002 C .289 .187 .277 .13800001 .237 .08500001 C .21100001 .051 .17300001 .022 .127 .022 C .113000009 .022 .068 .025000006 .051000008 .06400001 C .067 .06400001 .080000009 .06400001 .094000007 .076000008 C .104 .08500001 .11400001 .098000008 .11400001 .117000009 C .11400001 .148 .087000008 .15200001 .07700001 .15200001 C .054000006 .15200001 .021 .136 .021 .087000008 C .021 .037 .065000008 0 .127 0 C .23 0 .333 .091000009 .361 .20400001 L .45700003 .586 Z "/>
</symbol>
<use xlink:href="#font_1_5" transform="matrix(9.9626,0,0,-9.9626,65.114917,9.652334)"/>
</svg>
