<?xml version="1.0" encoding="UTF-8" standalone="no"?>
<!DOCTYPE svg PUBLIC "-//W3C//DTD SVG 1.1//EN" "http://www.w3.org/Graphics/SVG/1.1/DTD/svg11.dtd">
<svg xmlns="http://www.w3.org/2000/svg" xmlns:xlink="http://www.w3.org/1999/xlink" version="1.1" width="207.081pt" height="168.708pt" viewBox="0 0 207.081 168.708">
<path transform="matrix(1,0,0,-1,-155.218,168.50899)" stroke-width=".3985" stroke-linecap="butt" stroke-miterlimit="10" stroke-linejoin="miter" fill="none" stroke="#000000" d="M 155.41895 38.85474 L 347.7001 38.85474 "/>
<path transform="matrix(1,0,0,-1,192.4821,129.65425)" d="M 1.99252 0 L -1.19551 1.59401 L 0 0 L -1.19551 -1.59401 "/>
<path transform="matrix(1,0,0,-1,-155.218,168.50899)" stroke-width=".3985" stroke-linecap="butt" stroke-miterlimit="10" stroke-linejoin="miter" fill="none" stroke="#000000" d="M 233.12842 0 L 233.12842 153.42642 "/>
<path transform="matrix(0,-1,-1,-0,77.910419,15.082565)" d="M 1.99252 0 L -1.19551 1.59401 L 0 0 L -1.19551 -1.59401 "/>
<clipPath id="cp0">
<path transform="matrix(1,0,0,-1,-155.218,168.50899)" d="M 155.41895 0 L 349.69264 0 L 349.69264 155.41895 L 155.41895 155.41895 Z "/>
</clipPath>
<g clip-path="url(#cp0)">
<path transform="matrix(1,0,0,-1,-155.218,168.50899)" stroke-width="1.19553" stroke-linecap="butt" stroke-miterlimit="10" stroke-linejoin="miter" fill="none" stroke="#000080" d="M 0 1437.6253 C 0 1437.6253 3.40239 1397.0502 4.70917 1381.6856 C 6.01595 1366.3209 8.11159 1341.9357 9.41837 1326.8878 C 10.72514 1311.8399 12.82079 1287.9618 14.12755 1273.2307 C 15.43433 1258.4996 17.52997 1235.1304 18.83675 1220.7162 C 20.14352 1206.3019 22.23917 1183.4404 23.54594 1169.3428 C 24.85272 1155.2451 26.94836 1132.891 28.25513 1119.1102 C 29.5619 1105.3294 31.65755 1083.484 32.96432 1070.02 C 34.2711 1056.556 36.36674 1035.2185 37.67352 1022.07119 C 38.9803 1008.9239 41.07594 988.0942 42.3827 975.26358 C 43.68948 962.433 45.78513 942.1111 47.0919 929.5973 C 48.39868 917.08358 50.49432 897.2698 51.8011 885.0729 C 53.10788 872.876 55.20352 853.5706 56.51028 841.69039 C 57.81706 829.8101 59.9127 811.0119 61.21948 799.4485 C 62.52626 787.8851 64.6219 769.5958 65.92868 758.3492 C 67.23546 747.10256 69.33109 729.3205 70.63786 718.3905 C 71.94464 707.46047 74.04028 690.1863 75.34706 679.5731 C 76.65384 668.95999 78.74948 652.1946 80.05626 641.8982 C 81.36304 631.6018 83.45866 615.3436 84.76544 605.36398 C 86.07222 595.3843 88.16786 579.6345 89.47464 569.9716 C 90.78142 560.3087 92.87706 545.0667 94.18384 535.7205 C 95.49062 526.3744 97.58624 511.6401 98.89302 502.6108 C 100.1998 493.5815 102.29544 479.35606 103.60222 470.64353 C 104.909 461.93098 107.00462 448.21275 108.3114 439.81694 C 109.61818 431.42109 111.7138 418.2113 113.02058 410.13227 C 114.32736 402.0532 116.423 389.3511 117.72978 381.58876 C 119.03656 373.82643 121.1322 361.63227 122.43898 354.18675 C 123.74576 346.7412 125.84138 335.05534 127.14816 327.92658 C 128.45494 320.79783 130.55059 309.6196 131.85736 302.8076 C 133.16414 295.9956 135.25978 285.32575 136.56656 278.8305 C 137.87334 272.33528 139.96897 262.17304 141.27574 255.9945 C 142.58252 249.81601 144.67816 240.1618 145.98494 234.30011 C 147.29172 228.4384 149.38736 219.29239 150.69414 213.74745 C 152.00092 208.20252 154.09654 199.56421 155.40332 194.33603 C 156.7101 189.10787 158.80574 180.97779 160.11252 176.06638 C 161.4193 171.15497 163.51494 163.53267 164.82172 158.93802 C 166.1285 154.34336 168.22412 147.22904 169.5309 142.95116 C 170.83768 138.67328 172.93332 132.06708 174.2401 128.10596 C 175.54688 124.14484 177.64252 118.0465 178.9493 114.40215 C 180.25608 110.75781 182.3517 105.16759 183.65848 101.84 C 184.96526 98.5124 187.0609 93.43002 188.36768 90.41919 C 189.67446 87.40834 191.7701 82.83395 193.07688 80.1399 C 194.38365 77.44583 196.47928 73.3795 197.78606 71.0022 C 199.09284 68.6249 201.18848 65.0665 202.49526 63.00597 C 203.80204 60.94542 205.89768 57.895 207.20446 56.15123 C 208.51123 54.40746 210.60686 51.86504 211.91364 50.43803 C 213.22042 49.01102 215.31606 46.97656 216.62284 45.86632 C 217.92961 44.75607 220.02526 43.22961 221.33203 42.43613 C 222.63881 41.64265 224.73444 40.62416 226.04122 40.14745 C 227.34799 39.67073 229.44364 39.16022 230.75041 39.00026 C 232.05719 38.8403 234.15283 38.8378 235.45961 38.99458 C 236.76639 39.15138 238.86202 39.65685 240.1688 40.13042 C 241.47557 40.60399 243.57122 41.61745 244.87799 42.40778 C 246.18477 43.19812 248.28043 44.71953 249.5872 45.82663 C 250.89398 46.93373 252.98961 48.96313 254.29639 50.387 C 255.60317 51.81085 257.6988 54.34824 259.00559 56.08887 C 260.31236 57.82948 262.408 60.87486 263.71479 62.93225 C 265.02156 64.98964 267.1172 68.54301 268.42399 70.91714 C 269.73075 73.29129 271.8264 77.35257 273.13316 80.04349 C 274.43995 82.7344 276.53559 87.30379 277.84236 90.31146 C 279.14915 93.31915 281.24479 98.39633 282.55155 101.72076 C 283.8583 105.0452 285.95396 110.6305 287.26075 114.27171 C 288.5675 117.91293 290.66316 124.00629 291.96995 127.96426 C 293.27674 131.92223 295.37236 138.52333 296.6791 142.79808 C 297.9859 147.07282 300.08155 154.18207 301.3883 158.7736 C 302.6951 163.36513 304.79075 170.9824 306.09754 175.89066 C 307.4043 180.7989 309.4999 188.9239 310.8067 194.14893 C 312.11347 199.37395 314.2091 208.00724 315.51588 213.54903 C 316.82267 219.09082 318.9183 228.2318 320.22508 234.09035 C 321.53187 239.9489 323.6275 249.59812 324.93428 255.77344 C 326.24104 261.94877 328.3367 272.10569 329.64347 278.59776 C 330.95024 285.08985 333.04588 295.755 334.35267 302.56388 C 335.65946 309.37278 337.75508 320.54588 339.06184 327.67149 C 340.36863 334.7971 342.46427 346.4779 343.77104 353.9203 C 345.07783 361.36268 347.17347 373.5518 348.48027 381.31095 C 349.78703 389.07008 351.88264 401.76689 353.18943 409.84278 C 354.4962 417.91865 356.59184 431.1236 357.89863 439.51634 C 359.2054 447.90907 361.30104 461.62229 362.60783 470.33168 C 363.9146 479.04109 366.01023 493.2615 367.317 502.28767 C 368.62379 511.31388 370.71943 526.04318 372.0262 535.3862 C 373.33299 544.72927 375.42863 559.9663 376.7354 569.626 C 378.04216 579.28567 380.1378 595.03 381.44459 605.0065 C 382.75138 614.9829 384.847 631.23617 386.15379 641.5294 C 387.46058 651.82266 389.5562 668.583 390.86299 679.19308 C 392.16975 689.8031 394.26539 707.0724 395.57218 717.9992 C 396.87895 728.926 398.97459 746.70248 400.28138 757.946 C 401.58815 769.1895 403.68379 787.4743 404.99055 799.0347 C 406.29734 810.5951 408.39299 829.3882 409.69975 841.26528 C 411.00654 853.14236 413.10218 872.44277 414.40895 884.63656 C 415.7157 896.8303 417.81135 916.63906 419.11814 929.1497 C 420.42488 941.6604 422.5205 961.97738 423.8273 974.8047 C 425.1341 987.6321 427.2297 1008.45639 428.5365 1021.6004 C 429.8433 1034.7445 431.93894 1056.0772 433.24568 1069.5381 C 434.55247 1082.9989 436.6481 1104.8392 437.9549 1118.617 C 439.26167 1132.3945 441.3573 1154.7433 442.6641 1168.8377 C 443.97087 1182.9321 446.0665 1205.7886 447.37327 1220.1997 C 448.68006 1234.611 450.77568 1257.9757 452.08247 1272.7036 C 453.38926 1287.4317 455.4849 1311.3042 456.79167 1326.3489 C 458.09843 1341.3936 460.1941 1365.7739 461.50086 1381.1354 C 462.80763 1396.4968 466.21006 1437.0639 466.21006 1437.0639 "/>
<path transform="matrix(1,0,0,-1,-155.218,168.50899)" stroke-width="1.19553" stroke-linecap="butt" stroke-miterlimit="10" stroke-linejoin="miter" fill="none" stroke="#800000" d="M 0 -427.4021 C 0 -427.4021 3.40239 -420.5972 4.70917 -417.98365 C 6.01595 -415.3701 8.11159 -411.1789 9.41837 -408.56535 C 10.72514 -405.95179 12.82079 -401.76048 14.12755 -399.1469 C 15.43433 -396.53337 17.52997 -392.34217 18.83675 -389.72859 C 20.14352 -387.11506 22.23917 -382.92375 23.54594 -380.31019 C 24.85272 -377.6966 26.94836 -373.5053 28.25513 -370.89176 C 29.5619 -368.27818 31.65755 -364.08699 32.96432 -361.47343 C 34.2711 -358.85987 36.36674 -354.66856 37.67352 -352.055 C 38.9803 -349.44145 41.07594 -345.25025 42.3827 -342.63667 C 43.68948 -340.02314 45.78513 -335.8318 47.0919 -333.21824 C 48.39868 -330.60466 50.49432 -326.41337 51.8011 -323.7998 C 53.10788 -321.18626 55.20352 -316.99507 56.51028 -314.3815 C 57.81706 -311.76795 59.9127 -307.5766 61.21948 -304.96308 C 62.52626 -302.34953 64.6219 -298.15834 65.92868 -295.54475 C 67.23546 -292.9312 69.33109 -288.7399 70.63786 -286.12635 C 71.94464 -283.51277 74.04028 -279.32145 75.34706 -276.7079 C 76.65384 -274.09437 78.74948 -269.90315 80.05626 -267.28959 C 81.36304 -264.67604 83.45866 -260.4847 84.76544 -257.87117 C 86.07222 -255.2576 88.16786 -251.06638 89.47464 -248.45282 C 90.78142 -245.83928 92.87706 -241.64797 94.18384 -239.0344 C 95.49062 -236.42082 97.58624 -232.22953 98.89302 -229.61597 C 100.1998 -227.00241 102.29544 -222.8112 103.60222 -220.19765 C 104.909 -217.5841 107.00462 -213.39278 108.3114 -210.77922 C 109.61818 -208.16567 111.7138 -203.97447 113.02058 -201.36092 C 114.32736 -198.74736 116.423 -194.55605 117.72978 -191.94249 C 119.03656 -189.32892 121.1322 -185.1376 122.43898 -182.52405 C 123.74576 -179.91049 125.84138 -175.71929 127.14816 -173.10573 C 128.45494 -170.49217 130.55059 -166.30084 131.85736 -163.6873 C 133.16414 -161.07375 135.25978 -156.88254 136.56656 -154.26898 C 137.87334 -151.65543 139.96897 -147.46413 141.27574 -144.85056 C 142.58252 -142.23699 144.67816 -138.04567 145.98494 -135.43213 C 147.29172 -132.81858 149.38736 -128.62737 150.69414 -126.01381 C 152.00092 -123.40025 154.09654 -119.20894 155.40332 -116.59538 C 156.7101 -113.98183 158.80574 -109.79062 160.11252 -107.17708 C 161.4193 -104.56352 163.51494 -100.37221 164.82172 -97.75864 C 166.1285 -95.14507 168.22412 -90.95377 169.5309 -88.34021 C 170.83768 -85.72665 172.93332 -81.53545 174.2401 -78.92189 C 175.54688 -76.30833 177.64252 -72.117 178.9493 -69.50345 C 180.25608 -66.8899 182.3517 -62.6987 183.65848 -60.08514 C 184.96526 -57.47159 187.0609 -53.28029 188.36768 -50.66672 C 189.67446 -48.05315 191.7701 -43.86183 193.07688 -41.24828 C 194.38365 -38.63472 196.47928 -34.4435 197.78606 -31.82994 C 199.09284 -29.21638 201.18848 -25.02512 202.49526 -22.41156 C 203.80204 -19.798 205.89768 -15.60672 207.20446 -12.99316 C 208.51123 -10.37961 210.60686 -6.18834 211.91364 -3.57478 C 213.22042 -.96123 215.31606 3.23001 216.62284 5.84357 C 217.92961 8.45712 220.02526 12.64842 221.33203 15.26198 C 222.63881 17.87553 224.73444 22.0668 226.04122 24.68036 C 227.34799 27.29391 229.44364 31.48518 230.75041 34.09874 C 232.05719 36.7123 234.15283 40.90358 235.45961 43.51714 C 236.76639 46.13069 238.86202 50.32196 240.1688 52.93552 C 241.47557 55.54907 243.57122 59.74034 244.87799 62.3539 C 246.18477 64.96745 248.28043 69.15875 249.5872 71.77231 C 250.89398 74.38586 252.98961 78.57713 254.29639 81.19069 C 255.60317 83.80424 257.6988 87.99551 259.00559 90.60907 C 260.31236 93.22263 262.408 97.41391 263.71479 100.02747 C 265.02156 102.641 267.1172 106.83229 268.42399 109.44585 C 269.73075 112.0594 271.8264 116.25064 273.13316 118.8642 C 274.43995 121.47775 276.53559 125.66908 277.84236 128.28264 C 279.14915 130.89618 281.24479 135.08739 282.55155 137.70095 C 283.8583 140.3145 285.95396 144.5058 287.26075 147.11937 C 288.5675 149.73294 290.66316 153.92426 291.96995 156.53781 C 293.27674 159.15135 295.37236 163.34256 296.6791 165.95612 C 297.9859 168.56967 300.08155 172.76097 301.3883 175.37454 C 302.6951 177.98812 304.79075 182.17943 306.09754 184.79299 C 307.4043 187.40653 309.4999 191.59775 310.8067 194.2113 C 312.11347 196.82486 314.2091 201.01618 315.51588 203.62973 C 316.82267 206.24329 318.9183 210.4345 320.22508 213.04805 C 321.53187 215.66159 323.6275 219.85292 324.93428 222.46648 C 326.24104 225.08003 328.3367 229.27123 329.64347 231.88478 C 330.95024 234.49834 333.04588 238.68965 334.35267 241.3032 C 335.65946 243.91678 337.75508 248.1081 339.06184 250.72165 C 340.36863 253.3352 342.46427 257.5264 343.77104 260.13999 C 345.07783 262.7535 347.17347 266.94486 348.48027 269.5584 C 349.78703 272.17195 351.88264 276.36317 353.18943 278.9767 C 354.4962 281.59028 356.59184 285.78157 357.89863 288.39515 C 359.2054 291.0087 361.30104 295.20005 362.60783 297.81358 C 363.9146 300.42713 366.01023 304.61833 367.317 307.2319 C 368.62379 309.84544 370.71943 314.03675 372.0262 316.6503 C 373.33299 319.2639 375.42863 323.45518 376.7354 326.06874 C 378.04216 328.6823 380.1378 332.8735 381.44459 335.48707 C 382.75138 338.10063 384.847 342.29194 386.15379 344.9055 C 387.46058 347.51905 389.5562 351.71025 390.86299 354.3238 C 392.16975 356.93736 394.26539 361.1287 395.57218 363.74226 C 396.87895 366.3558 398.97459 370.547 400.28138 373.16056 C 401.58815 375.7741 403.68379 379.96543 404.99055 382.57899 C 406.29734 385.19255 408.39299 389.38389 409.69975 391.9974 C 411.00654 394.611 413.10218 398.8022 414.40895 401.41575 C 415.7157 404.02928 417.81135 408.22059 419.11814 410.83415 C 420.42488 413.44773 422.5205 417.63905 423.8273 420.2526 C 425.1341 422.86616 427.2297 427.05735 428.5365 429.6709 C 429.8433 432.28446 431.93894 436.47578 433.24568 439.08934 C 434.55247 441.70289 436.6481 445.8941 437.9549 448.50767 C 439.26167 451.12123 441.3573 455.31254 442.6641 457.9261 C 443.97087 460.53965 446.0665 464.73085 447.37327 467.3444 C 448.68006 469.95796 450.77568 474.14927 452.08247 476.76283 C 453.38926 479.3764 455.4849 483.5677 456.79167 486.18128 C 458.09843 488.79484 460.1941 492.98603 461.50086 495.59956 C 462.80763 498.21315 466.21006 505.018 466.21006 505.018 "/>
<path transform="matrix(1,0,0,-1,-155.218,168.50899)" stroke-width="1.19553" stroke-linecap="butt" stroke-miterlimit="10" stroke-linejoin="miter" fill="none" stroke="#800080" d="M 0 116.56421 C 0 116.56421 3.40239 116.56421 4.70917 116.56421 C 6.01595 116.56421 8.11159 116.56421 9.41837 116.56421 C 10.72514 116.56421 12.82079 116.56421 14.12755 116.56421 C 15.43433 116.56421 17.52997 116.56421 18.83675 116.56421 C 20.14352 116.56421 22.23917 116.56421 23.54594 116.56421 C 24.85272 116.56421 26.94836 116.56421 28.25513 116.56421 C 29.5619 116.56421 31.65755 116.56421 32.96432 116.56421 C 34.2711 116.56421 36.36674 116.56421 37.67352 116.56421 C 38.9803 116.56421 41.07594 116.56421 42.3827 116.56421 C 43.68948 116.56421 45.78513 116.56421 47.0919 116.56421 C 48.39868 116.56421 50.49432 116.56421 51.8011 116.56421 C 53.10788 116.56421 55.20352 116.56421 56.51028 116.56421 C 57.81706 116.56421 59.9127 116.56421 61.21948 116.56421 C 62.52626 116.56421 64.6219 116.56421 65.92868 116.56421 C 67.23546 116.56421 69.33109 116.56421 70.63786 116.56421 C 71.94464 116.56421 74.04028 116.56421 75.34706 116.56421 C 76.65384 116.56421 78.74948 116.56421 80.05626 116.56421 C 81.36304 116.56421 83.45866 116.56421 84.76544 116.56421 C 86.07222 116.56421 88.16786 116.56421 89.47464 116.56421 C 90.78142 116.56421 92.87706 116.56421 94.18384 116.56421 C 95.49062 116.56421 97.58624 116.56421 98.89302 116.56421 C 100.1998 116.56421 102.29544 116.56421 103.60222 116.56421 C 104.909 116.56421 107.00462 116.56421 108.3114 116.56421 C 109.61818 116.56421 111.7138 116.56421 113.02058 116.56421 C 114.32736 116.56421 116.423 116.56421 117.72978 116.56421 C 119.03656 116.56421 121.1322 116.56421 122.43898 116.56421 C 123.74576 116.56421 125.84138 116.56421 127.14816 116.56421 C 128.45494 116.56421 130.55059 116.56421 131.85736 116.56421 C 133.16414 116.56421 135.25978 116.56421 136.56656 116.56421 C 137.87334 116.56421 139.96897 116.56421 141.27574 116.56421 C 142.58252 116.56421 144.67816 116.56421 145.98494 116.56421 C 147.29172 116.56421 149.38736 116.56421 150.69414 116.56421 C 152.00092 116.56421 154.09654 116.56421 155.40332 116.56421 C 156.7101 116.56421 158.80574 116.56421 160.11252 116.56421 C 161.4193 116.56421 163.51494 116.56421 164.82172 116.56421 C 166.1285 116.56421 168.22412 116.56421 169.5309 116.56421 C 170.83768 116.56421 172.93332 116.56421 174.2401 116.56421 C 175.54688 116.56421 177.64252 116.56421 178.9493 116.56421 C 180.25608 116.56421 182.3517 116.56421 183.65848 116.56421 C 184.96526 116.56421 187.0609 116.56421 188.36768 116.56421 C 189.67446 116.56421 191.7701 116.56421 193.07688 116.56421 C 194.38365 116.56421 196.47928 116.56421 197.78606 116.56421 C 199.09284 116.56421 201.18848 116.56421 202.49526 116.56421 C 203.80204 116.56421 205.89768 116.56421 207.20446 116.56421 C 208.51123 116.56421 210.60686 116.56421 211.91364 116.56421 C 213.22042 116.56421 215.31606 116.56421 216.62284 116.56421 C 217.92961 116.56421 220.02526 116.56421 221.33203 116.56421 C 222.63881 116.56421 224.73444 116.56421 226.04122 116.56421 C 227.34799 116.56421 229.44364 116.56421 230.75041 116.56421 C 232.05719 116.56421 234.15283 116.56421 235.45961 116.56421 C 236.76639 116.56421 238.86202 116.56421 240.1688 116.56421 C 241.47557 116.56421 243.57122 116.56421 244.87799 116.56421 C 246.18477 116.56421 248.28043 116.56421 249.5872 116.56421 C 250.89398 116.56421 252.98961 116.56421 254.29639 116.56421 C 255.60317 116.56421 257.6988 116.56421 259.00559 116.56421 C 260.31236 116.56421 262.408 116.56421 263.71479 116.56421 C 265.02156 116.56421 267.1172 116.56421 268.42399 116.56421 C 269.73075 116.56421 271.8264 116.56421 273.13316 116.56421 C 274.43995 116.56421 276.53559 116.56421 277.84236 116.56421 C 279.14915 116.56421 281.24479 116.56421 282.55155 116.56421 C 283.8583 116.56421 285.95396 116.56421 287.26075 116.56421 C 288.5675 116.56421 290.66316 116.56421 291.96995 116.56421 C 293.27674 116.56421 295.37236 116.56421 296.6791 116.56421 C 297.9859 116.56421 300.08155 116.56421 301.3883 116.56421 C 302.6951 116.56421 304.79075 116.56421 306.09754 116.56421 C 307.4043 116.56421 309.4999 116.56421 310.8067 116.56421 C 312.11347 116.56421 314.2091 116.56421 315.51588 116.56421 C 316.82267 116.56421 318.9183 116.56421 320.22508 116.56421 C 321.53187 116.56421 323.6275 116.56421 324.93428 116.56421 C 326.24104 116.56421 328.3367 116.56421 329.64347 116.56421 C 330.95024 116.56421 333.04588 116.56421 334.35267 116.56421 C 335.65946 116.56421 337.75508 116.56421 339.06184 116.56421 C 340.36863 116.56421 342.46427 116.56421 343.77104 116.56421 C 345.07783 116.56421 347.17347 116.56421 348.48027 116.56421 C 349.78703 116.56421 351.88264 116.56421 353.18943 116.56421 C 354.4962 116.56421 356.59184 116.56421 357.89863 116.56421 C 359.2054 116.56421 361.30104 116.56421 362.60783 116.56421 C 363.9146 116.56421 366.01023 116.56421 367.317 116.56421 C 368.62379 116.56421 370.71943 116.56421 372.0262 116.56421 C 373.33299 116.56421 375.42863 116.56421 376.7354 116.56421 C 378.04216 116.56421 380.1378 116.56421 381.44459 116.56421 C 382.75138 116.56421 384.847 116.56421 386.15379 116.56421 C 387.46058 116.56421 389.5562 116.56421 390.86299 116.56421 C 392.16975 116.56421 394.26539 116.56421 395.57218 116.56421 C 396.87895 116.56421 398.97459 116.56421 400.28138 116.56421 C 401.58815 116.56421 403.68379 116.56421 404.99055 116.56421 C 406.29734 116.56421 408.39299 116.56421 409.69975 116.56421 C 411.00654 116.56421 413.10218 116.56421 414.40895 116.56421 C 415.7157 116.56421 417.81135 116.56421 419.11814 116.56421 C 420.42488 116.56421 422.5205 116.56421 423.8273 116.56421 C 425.1341 116.56421 427.2297 116.56421 428.5365 116.56421 C 429.8433 116.56421 431.93894 116.56421 433.24568 116.56421 C 434.55247 116.56421 436.6481 116.56421 437.9549 116.56421 C 439.26167 116.56421 441.3573 116.56421 442.6641 116.56421 C 443.97087 116.56421 446.0665 116.56421 447.37327 116.56421 C 448.68006 116.56421 450.77568 116.56421 452.08247 116.56421 C 453.38926 116.56421 455.4849 116.56421 456.79167 116.56421 C 458.09843 116.56421 460.1941 116.56421 461.50086 116.56421 C 462.80763 116.56421 466.21006 116.56421 466.21006 116.56421 "/>
<symbol id="font_1_2">
<path d="M .11800001 .078 C .108 .039 .106 .031000002 .027000003 .031000002 C .009999998 .031000002 0 .031000002 0 .011000001 C 0 0 .009 0 .027000003 0 L .38400004 0 C .54200008 0 .66 .11800001 .66 .216 C .66 .28800003 .60200008 .34600003 .50500008 .35700003 C .609 .37600003 .71400007 .45000003 .71400007 .545 C .71400007 .619 .64800009 .683 .52800008 .683 L .192 .683 C .17300001 .683 .16300002 .683 .16300002 .66300007 C .16300002 .652 .17200002 .652 .19100002 .652 C .19300002 .652 .21200001 .652 .22900003 .65000006 C .24700001 .648 .256 .647 .256 .634 C .256 .63000008 .25500003 .62700006 .252 .615 L .11800001 .078 M .26900003 .36600004 L .33100004 .614 C .34000004 .64900007 .342 .652 .38500003 .652 L .51400008 .652 C .60200008 .652 .623 .59300008 .623 .549 C .623 .46100004 .53700008 .36600004 .41500003 .36600004 L .26900003 .36600004 M .224 .031000002 C .21000001 .031000002 .208 .031000002 .20200002 .032 C .192 .033 .18900001 .034 .18900001 .042000005 C .18900001 .045 .18900001 .047000003 .194 .065000008 L .263 .344 L .45200003 .344 C .54800006 .344 .56700006 .27 .56700006 .22700002 C .56700006 .128 .47800005 .031000002 .36 .031000002 L .224 .031000002 Z "/>
</symbol>
<use xlink:href="#font_1_2" transform="matrix(9.9626,0,0,-9.9626,27.895434,94.20398)" fill="#000080"/>
<symbol id="font_1_1">
<path d="M .14400001 .115 C .10400002 .048 .065 .034 .021000002 .031000002 C .009000003 .030000002 0 .030000002 0 .011000001 C 0 .0050000005 .0050000029 0 .013 0 C .040000004 0 .07100001 .003 .09900001 .003 C .13200002 .003 .16700001 0 .19900002 0 C .20500002 0 .21800003 0 .21800003 .019000002 C .21800003 .030000002 .20900002 .031000002 .20200002 .031000002 C .17900002 .033 .15500002 .041 .15500002 .066 C .15500002 .078 .16100002 .089 .16900002 .10300001 L .245 .231 L .49600003 .231 C .49800007 .21000001 .512 .074 .512 .064 C .512 .034 .46000005 .031000002 .44000004 .031000002 C .42600004 .031000002 .41600005 .031000002 .41600005 .011000001 C .41600005 0 .42800004 0 .43000005 0 C .47100006 0 .514 .003 .555 .003 C .58 .003 .643 0 .668 0 C .674 0 .686 0 .686 .020000002 C .686 .031000002 .676 .031000002 .663 .031000002 C .601 .031000002 .601 .038000004 .598 .067 L .537 .69200006 C .535 .712 .535 .716 .518 .716 C .502 .716 .49800007 .70900008 .492 .69900009 L .14400001 .115 M .26400004 .26200003 L .46100004 .592 L .493 .26200003 L .26400004 .26200003 Z "/>
</symbol>
<use xlink:href="#font_1_1" transform="matrix(9.9626,0,0,-9.9626,57.550687,152.486)" fill="#800000"/>
<symbol id="font_1_3">
<path d="M .71000006 .71700009 C .71000006 .72 .708 .72700008 .699 .72700008 C .69600006 .72700008 .69500008 .7260001 .684 .71500006 L .614 .6380001 C .605 .65200009 .559 .72700008 .448 .72700008 C .22500001 .72700008 0 .50600007 0 .27400003 C 0 .109000008 .118000019 0 .271 0 C .358 0 .43400003 .040000004 .487 .086 C .58000007 .16800002 .597 .25900004 .597 .26200003 C .597 .272 .587 .272 .58500006 .272 C .579 .272 .574 .27 .572 .26200003 C .563 .23300001 .54 .162 .47100003 .104 C .402 .048 .33900003 .031000004 .287 .031000004 C .19700001 .031000004 .091000009 .083000008 .091000009 .23900001 C .091000009 .29600004 .112 .45800004 .21200003 .57500007 C .273 .646 .367 .69600006 .45600004 .69600006 C .558 .69600006 .61700007 .619 .61700007 .503 C .61700007 .46300004 .614 .46200005 .614 .45200003 C .614 .44200004 .625 .44200004 .629 .44200004 C .642 .44200004 .642 .44400005 .647 .46200005 L .71000006 .71700009 Z "/>
</symbol>
<use xlink:href="#font_1_3" transform="matrix(9.9626,0,0,-9.9626,159.63413,63.340158)" fill="#800080"/>
</g>
<symbol id="font_1_4">
<path d="M .305 .31300003 C .311 .33900003 .334 .43100003 .404 .43100003 C .409 .43100003 .433 .43100003 .454 .418 C .426 .41300003 .40600003 .388 .40600003 .36400003 C .40600003 .34800003 .417 .32900004 .444 .32900004 C .46600003 .32900004 .498 .34700004 .498 .38700003 C .498 .43900005 .439 .45300005 .405 .45300005 C .347 .45300005 .312 .40000005 .3 .37700004 C .275 .44300003 .221 .45300005 .19200002 .45300005 C .08800001 .45300005 .031000002 .32400004 .031000002 .29900003 C .031000002 .28900004 .041 .28900004 .043000007 .28900004 C .051000008 .28900004 .054000006 .291 .056 .3 C .09 .40600003 .156 .43100003 .19000001 .43100003 C .209 .43100003 .244 .42200003 .244 .36400003 C .244 .33300004 .22700002 .26600004 .19000001 .126 C .17400001 .064 .13900002 .022000002 .095000009 .022000002 C .08900001 .022000002 .06600001 .022000002 .045 .035 C .07000001 .040000004 .09200001 .061 .09200001 .089 C .09200001 .116000007 .07000001 .124000009 .055000009 .124000009 C .025 .124000009 0 .098000008 0 .06600001 C 0 .020000002 .050000006 0 .094000007 0 C .16000001 0 .19600001 .07000001 .19900002 .076000008 C .21100001 .039 .24700003 0 .307 0 C .41 0 .467 .12900001 .467 .15400002 C .467 .16400002 .458 .16400002 .455 .16400002 C .446 .16400002 .444 .16000001 .442 .15300001 C .409 .046 .341 .022000002 .30900003 .022000002 C .27 .022000002 .254 .054 .254 .08800001 C .254 .11000001 .26 .13200002 .271 .17600002 L .305 .31300003 Z "/>
</symbol>
<use xlink:href="#font_1_4" transform="matrix(9.9626,0,0,-9.9626,198.35591,131.90058)"/>
<symbol id="font_1_5">
<path d="M .45700003 .586 C .461 .6 .461 .602 .461 .609 C .461 .62700006 .447 .63600006 .432 .63600006 C .42200003 .63600006 .40600003 .63 .397 .615 C .395 .61 .387 .579 .38300003 .561 C .37600003 .535 .36900003 .508 .363 .48100005 L .318 .301 C .314 .286 .271 .21600002 .20500002 .21600002 C .15400002 .21600002 .143 .26000003 .143 .29700003 C .143 .34300003 .16000001 .40500004 .194 .49300004 C .21000001 .53400006 .21400002 .545 .21400002 .56500008 C .21400002 .61 .18200001 .6470001 .13200002 .6470001 C .037 .6470001 0 .50200006 0 .49300004 C 0 .48300005 .01 .48300005 .012 .48300005 C .022000002 .48300005 .023 .485 .028000003 .50100007 C .055000009 .595 .095000009 .625 .12900001 .625 C .13700001 .625 .15400002 .625 .15400002 .59300008 C .15400002 .568 .14400001 .54200008 .13700001 .523 C .097 .41700004 .079 .36 .079 .31300003 C .079 .224 .142 .194 .201 .194 C .24000003 .194 .274 .21100001 .30200003 .23900002 C .289 .187 .277 .13800001 .237 .08500001 C .21100001 .051 .17300001 .022 .127 .022 C .113000009 .022 .068 .025000006 .051000008 .06400001 C .067 .06400001 .080000009 .06400001 .094000007 .076000008 C .104 .08500001 .11400001 .098000008 .11400001 .117000009 C .11400001 .148 .087000008 .15200001 .07700001 .15200001 C .054000006 .15200001 .021 .136 .021 .087000008 C .021 .037 .065000008 0 .127 0 C .23 0 .333 .091000009 .361 .20400001 L .45700003 .586 Z "/>
</symbol>
<use xlink:href="#font_1_5" transform="matrix(9.9626,0,0,-9.9626,75.63091,9.652319)"/>
</svg>
