<?xml version="1.0" encoding="UTF-8" standalone="no"?>
<!DOCTYPE svg PUBLIC "-//W3C//DTD SVG 1.1//EN" "http://www.w3.org/Graphics/SVG/1.1/DTD/svg11.dtd">
<svg xmlns="http://www.w3.org/2000/svg" xmlns:xlink="http://www.w3.org/1999/xlink" version="1.1" width="121.118pt" height="174.681pt" viewBox="0 0 121.118 174.681">
<path transform="matrix(1,0,0,-1,.199,193.252)" stroke-width=".3985" stroke-linecap="butt" stroke-miterlimit="10" stroke-linejoin="miter" fill="none" stroke="#000000" d="M 0 110.99155 L 106.36748 110.99155 "/>
<path transform="matrix(1,0,0,-1,106.566478,82.26045)" d="M 1.99252 0 L -1.19551 1.59401 L 0 0 L -1.19551 -1.59401 "/>
<path transform="matrix(1,0,0,-1,.199,193.252)" stroke-width=".3985" stroke-linecap="butt" stroke-miterlimit="10" stroke-linejoin="miter" fill="none" stroke="#000000" d="M 39.19403 18.77026 L 39.19403 178.165 "/>
<path transform="matrix(0,-1,-1,-0,39.393033,15.087006)" d="M 1.99252 0 L -1.19551 1.59401 L 0 0 L -1.19551 -1.59401 "/>
<clipPath id="cp0">
<path transform="matrix(1,0,0,-1,.199,193.252)" d="M 0 18.77026 L 108.36 18.77026 L 108.36 180.15752 L 0 180.15752 Z "/>
</clipPath>
<g clip-path="url(#cp0)">
<path transform="matrix(1,0,0,-1,.199,193.252)" stroke-width="1.19553" stroke-linecap="butt" stroke-miterlimit="10" stroke-linejoin="miter" fill="none" stroke="#800000" d="M 11.52765 136.77634 C 11.52765 136.77634 12.7391 135.10936 13.20438 134.4654 C 13.66965 133.82144 14.41582 132.7806 14.88109 132.13507 C 15.34636 131.48955 16.09253 130.45223 16.5578 129.8129 C 17.02307 129.17356 17.76926 128.1529 18.23453 127.52713 C 18.6998 126.90135 19.44598 125.90764 19.91125 125.30264 C 20.37653 124.69766 21.1227 123.74397 21.58797 123.16667 C 22.05324 122.58936 22.79942 121.68494 23.2647 121.14171 C 23.72997 120.5985 24.47615 119.75446 24.94142 119.25136 C 25.4067 118.74828 26.15286 117.97316 26.61813 117.51567 C 27.0834 117.05817 27.82959 116.36086 28.29486 115.95393 C 28.76013 115.54701 29.5063 114.93474 29.97157 114.58278 C 30.43684 114.23082 31.18301 113.71042 31.64828 113.41719 C 32.11357 113.12396 32.85976 112.70074 33.32503 112.46936 C 33.7903 112.23799 34.53647 111.91664 35.00174 111.7496 C 35.46701 111.58257 36.21318 111.36636 36.67847 111.26541 C 37.14374 111.16447 37.88992 111.05582 38.3552 111.02205 C 38.82047 110.98828 39.56664 110.98824 40.0319 111.02197 C 40.49718 111.05571 41.24336 111.1643 41.70863 111.2652 C 42.1739 111.3661 42.92007 111.58221 43.38535 111.7492 C 43.85062 111.9162 44.59679 112.23749 45.06206 112.46883 C 45.52733 112.70015 46.27353 113.1233 46.7388 113.4165 C 47.20407 113.70972 47.95024 114.23004 48.41551 114.58202 C 48.88078 114.93399 49.62695 115.54634 50.09222 115.95328 C 50.5575 116.36023 51.30368 117.05759 51.76895 117.51505 C 52.23422 117.9725 52.98041 118.74731 53.44568 119.25038 C 53.91095 119.75343 54.65712 120.5976 55.12239 121.1408 C 55.58766 121.68399 56.33385 122.58815 56.79912 123.16547 C 57.26439 123.74277 58.01057 124.69675 58.47585 125.30174 C 58.94112 125.90672 59.68729 126.9002 60.15256 127.52594 C 60.61783 128.15167 61.36401 129.17237 61.82928 129.81163 C 62.29456 130.45092 63.04073 131.48798 63.506 132.13347 C 63.97127 132.77898 64.71744 133.81999 65.18271 134.46402 C 65.648 135.10803 66.39418 136.14044 66.85945 136.77515 C 67.32472 137.40984 68.07089 138.42108 68.53616 139.03852 C 69.00143 139.65596 69.7476 140.63329 70.21289 141.22533 C 70.67816 141.81737 71.42433 142.74684 71.8896 143.30554 C 72.35487 143.86425 73.10106 144.7343 73.56633 145.25214 C 74.0316 145.76996 74.77779 146.56842 75.24306 147.03769 C 75.70833 147.50696 76.4545 148.22095 76.91977 148.63431 C 77.38504 149.04767 78.13121 149.66666 78.59648 150.01692 C 79.06175 150.36717 79.80794 150.87859 80.27321 151.15877 C 80.73848 151.43895 81.48466 151.83234 81.94994 152.03636 C 82.4152 152.24039 83.16138 152.50711 83.62665 152.62935 C 84.09192 152.75159 84.8381 152.88219 85.30338 152.91739 C 85.76865 152.9526 86.51482 152.93972 86.98009 152.88321 C 87.44536 152.82669 88.19154 152.66257 88.65681 152.51013 C 89.12209 152.3577 89.86827 152.03627 90.33354 151.78452 C 90.79881 151.53275 91.54498 151.04917 92.01025 150.6956 C 92.47552 150.34206 93.2217 149.69335 93.68697 149.23635 C 94.15224 148.77935 94.89842 147.9633 95.3637 147.40184 C 95.82896 146.8404 96.57515 145.85607 97.04042 145.18976 C 97.50569 144.52346 98.25186 143.36998 98.71715 142.59952 C 99.18242 141.82906 99.92859 140.51 100.39386 139.63674 C 100.85913 138.76348 101.6053 137.27927 102.07057 136.30565 C 102.53584 135.33202 103.28204 133.69025 103.74731 132.61946 C 104.21259 131.54869 104.95876 129.75241 105.42403 128.5882 C 105.8893 127.42398 106.63547 125.48114 107.10074 124.22859 C 107.56601 122.97606 108.3122 120.89589 108.77747 119.56076 C 109.24274 118.22563 109.9889 116.01706 110.45418 114.60587 C 110.91945 113.19469 111.66563 110.86995 112.1309 109.38986 C 112.59618 107.90976 113.34236 105.47968 113.80763 103.93832 C 114.2729 102.39696 115.01907 99.87476 115.48434 98.2808 C 115.94962 96.68687 116.69579 94.08781 117.16106 92.4502 C 117.62633 90.81258 118.37253 88.14896 118.8378 86.47798 C 119.30307 84.807 120.04924 82.10034 120.51451 80.4069 C 120.97978 78.71347 121.72595 75.97868 122.19122 74.27277 C 122.6565 72.56685 123.40268 69.819 123.86795 68.11182 C 124.33322 66.40463 125.0794 63.6653 125.54468 61.96857 C 126.00995 60.27182 126.75612 57.55768 127.22139 55.88287 C 127.68668 54.20807 128.43285 51.53813 128.89812 49.89769 C 129.36339 48.25725 130.10956 45.65364 130.57483 44.0597 C 131.0401 42.46573 131.78627 39.94545 132.25156 38.40947 C 132.71683 36.87347 133.46302 34.45523 133.92829 32.98927 C 134.39356 31.52332 135.13973 29.22765 135.605 27.84384 C 136.07027 26.46004 136.81645 24.30663 137.28173 23.01572 C 137.747 21.72481 138.49317 19.72623 138.95844 18.53989 C 139.4237 17.35353 140.16989 15.5354 140.63516 14.46526 C 141.10044 13.39511 141.84662 11.77122 142.31189 10.827 C 142.77716 9.88277 143.52333 8.46844 143.9886 7.6599 C 144.45388 6.85133 145.20005 5.66357 145.66532 4.99937 C 146.13059 4.33517 146.87677 3.38422 147.34204 2.87273 C 147.80731 2.36124 148.5535 1.66338 149.01877 1.31287 C 149.48404 .96236 150.23021 .5286 150.69548 .34645 C 151.16075 .16429 151.90694 .00879 152.37221 0 C 152.83748 -.00879 153.58365 .1143 154.04892 .2829 C 154.51419 .4515 155.26038 .86435 155.72565 1.21526 C 156.19092 1.56616 156.9371 2.27641 157.40238 2.81201 C 157.86765 3.34761 158.61382 4.35336 159.07909 5.07547 C 159.54436 5.79759 160.29053 7.10687 160.7558 8.01654 C 161.22109 8.92621 161.96726 10.53572 162.43253 11.63176 C 162.8978 12.72778 163.64398 14.63594 164.10926 15.91606 C 164.57453 17.1962 165.32071 19.39658 165.78598 20.85808 C 166.25125 22.31958 166.99742 24.81104 167.46269 26.44968 C 167.92797 28.0883 168.67414 30.85742 169.1394 32.66827 C 169.60468 34.47911 170.35088 37.52432 170.81615 39.50099 C 171.28142 41.47766 172.02759 44.78123 172.49286 46.9148 C 172.95813 49.04834 173.7043 52.59605 174.16957 54.87817 C 174.63484 57.1603 175.38103 60.94176 175.8463 63.36276 C 176.31157 65.78377 177.52303 72.32721 177.52303 72.32721 "/>
<path transform="matrix(1,0,0,-1,.199,193.252)" stroke-width="1.19553" stroke-linecap="butt" stroke-miterlimit="10" stroke-linejoin="miter" fill="none" stroke="#800080" d="M 11.52765 79.47958 C 11.52765 79.47958 12.7391 79.09052 13.20438 79.01582 C 13.66965 78.94112 14.41582 78.9089 14.88109 78.94109 C 15.34636 78.97327 16.09253 79.11137 16.5578 79.24777 C 17.02307 79.38416 17.76926 79.6868 18.23453 79.92415 C 18.6998 80.1615 19.44598 80.62442 19.91125 80.95842 C 20.37653 81.29242 21.1227 81.9059 21.58797 82.33144 C 22.05324 82.75696 22.79942 83.51414 23.2647 84.02539 C 23.72997 84.53662 24.47615 85.42575 24.94142 86.01613 C 25.4067 86.60652 26.15286 87.61804 26.61813 88.28053 C 27.0834 88.94301 27.82959 90.06403 28.29486 90.79092 C 28.76013 91.51782 29.5063 92.73642 29.97157 93.51955 C 30.43684 94.30269 31.18301 95.6046 31.64828 96.43527 C 32.11357 97.26596 32.85976 98.63742 33.32503 99.50659 C 33.7903 100.37576 34.53647 101.80139 35.00174 102.69969 C 35.46701 103.59799 36.21318 105.06314 36.67847 105.98099 C 37.14374 106.89885 37.88992 108.38744 38.3552 109.31499 C 38.82047 110.24254 39.56664 111.73865 40.0319 112.66621 C 40.49718 113.59378 41.24336 115.0824 41.70863 116.00023 C 42.1739 116.91805 42.92007 118.38301 43.38535 119.2813 C 43.85062 120.17958 44.59679 121.60527 45.06206 122.47446 C 45.52733 123.34364 46.27353 124.71518 46.7388 125.5459 C 47.20407 126.3766 47.95024 127.67847 48.41551 128.46172 C 48.88078 129.24497 49.62695 130.46402 50.09222 131.19106 C 50.5575 131.91809 51.30368 133.03929 51.76895 133.70175 C 52.23422 134.36423 52.98041 135.37535 53.44568 135.96578 C 53.91095 136.55619 54.65712 137.44583 55.12239 137.95713 C 55.58766 138.46842 56.33385 139.22525 56.79912 139.6508 C 57.26439 140.07637 58.01057 140.6903 58.47585 141.02437 C 58.94112 141.35843 59.68729 141.82118 60.15256 142.05852 C 60.61783 142.29586 61.36401 142.59854 61.82928 142.735 C 62.29456 142.87146 63.04073 143.00989 63.506 143.04206 C 63.97127 143.07422 64.71744 143.04161 65.18271 142.96692 C 65.648 142.89223 66.39418 142.68689 66.85945 142.50376 C 67.32472 142.3206 68.07089 141.93959 68.53616 141.64698 C 69.00143 141.35437 69.7476 140.79692 70.21289 140.3948 C 70.67816 139.9927 71.42433 139.25928 71.8896 138.74884 C 72.35487 138.2384 73.10106 137.3325 73.56633 136.71588 C 74.0316 136.09926 74.77779 135.02457 75.24306 134.30458 C 75.70833 133.58458 76.4545 132.34627 76.91977 131.52661 C 77.38504 130.70696 78.13121 129.31182 78.59648 128.39698 C 79.06175 127.48213 79.80794 125.93748 80.27321 124.93306 C 80.73848 123.92863 81.48466 122.24529 81.94994 121.15767 C 82.4152 120.07004 83.16138 118.2578 83.62665 117.09415 C 84.09192 115.9305 84.8381 114.0027 85.30338 112.77081 C 85.76865 111.53891 86.51482 109.50716 86.98009 108.2155 C 87.44536 106.92386 88.19154 104.80344 88.65681 103.46143 C 89.12209 102.1194 89.86827 99.92581 90.33354 98.54315 C 90.79881 97.16049 91.54498 94.90926 92.01025 93.49612 C 92.47552 92.083 93.2217 89.79088 93.68697 88.35823 C 94.15224 86.92557 94.89842 84.61188 95.3637 83.17058 C 95.82896 81.72928 96.57515 79.40923 97.04042 77.97025 C 97.50569 76.53125 98.25186 74.22372 98.71715 72.79926 C 99.18242 71.37479 99.92859 69.10179 100.39386 67.7036 C 100.85913 66.30542 101.6053 64.0827 102.07057 62.72208 C 102.53584 61.36145 103.28204 59.2084 103.74731 57.89714 C 104.21259 56.58588 104.95876 54.5218 105.42403 53.2714 C 105.8893 52.02097 106.63547 50.06325 107.10074 48.88486 C 107.56601 47.70647 108.3122 45.87311 108.77747 44.77829 C 109.24274 43.68347 109.9889 41.9943 110.45418 40.9941 C 110.91945 39.9939 111.66563 38.46552 112.1309 37.56953 C 112.59618 36.67357 113.34236 35.31905 113.80763 34.53653 C 114.2729 33.75401 115.01907 32.58926 115.48434 31.92957 C 115.94962 31.26985 116.69579 30.3103 117.16106 29.78174 C 117.62633 29.25316 118.37253 28.5097 118.8378 28.11989 C 119.30307 27.73006 120.04924 27.21564 120.51451 26.97212 C 120.97978 26.72859 121.72595 26.45694 122.19122 26.36475 C 122.6565 26.27257 123.40268 26.24435 123.86795 26.3077 C 124.33322 26.37105 125.0794 26.59743 125.54468 26.82132 C 126.00995 27.0452 126.75612 27.53464 127.22139 27.9213 C 127.68668 28.30797 128.43285 29.05678 128.89812 29.60817 C 129.36339 30.15956 130.10956 31.17776 130.57483 31.89537 C 131.0401 32.61298 131.78627 33.89769 132.25156 34.7802 C 132.71683 35.66272 133.46302 37.21057 133.92829 38.25604 C 134.39356 39.30151 135.13973 41.10872 135.605 42.31532 C 136.07027 43.52191 136.81645 45.58897 137.28173 46.95236 C 137.747 48.31575 138.49317 50.62717 138.95844 52.14171 C 139.4237 53.65625 140.16989 56.2072 140.63516 57.86823 C 141.10044 59.52925 141.84662 62.31374 142.31189 64.11327 C 142.77716 65.91281 143.52333 68.90913 143.9886 70.83806 C 144.45388 72.767 145.20005 75.96632 145.66532 78.01572 C 146.13059 80.0651 146.87677 83.44925 147.34204 85.60861 C 147.80731 87.76797 148.5535 91.32018 149.01877 93.57893 C 149.48404 95.83769 150.23021 99.54245 150.69548 101.88818 C 151.16075 104.2339 151.90694 108.06595 152.37221 110.48535 C 152.83748 112.90477 153.58365 116.84596 154.04892 119.32567 C 154.51419 121.80539 155.26038 125.83244 155.72565 128.35746 C 156.19092 130.88248 156.9371 134.96865 157.40238 137.52428 C 157.86765 140.07991 158.61382 144.20578 159.07909 146.7768 C 159.54436 149.34781 160.29053 153.48471 160.7558 156.05446 C 161.22109 158.6242 161.96726 162.74507 162.43253 165.29776 C 162.8978 167.85045 163.64398 171.93299 164.10926 174.45246 C 164.57453 176.97193 165.32071 180.98683 165.78598 183.45638 C 166.25125 185.92592 166.99742 189.84766 167.46269 192.25125 C 167.92797 194.65485 168.67414 198.45934 169.1394 200.7799 C 169.60468 203.10048 170.35088 206.75525 170.81615 208.97634 C 171.28142 211.19742 172.02759 214.6814 172.49286 216.78797 C 172.95813 218.89452 173.7043 222.18279 174.16957 224.1589 C 174.63484 226.13503 175.38103 229.19965 175.8463 231.03046 C 176.31157 232.86128 177.52303 237.35427 177.52303 237.35427 "/>
<path transform="matrix(1,0,0,-1,.199,193.252)" stroke-width="1.19553" stroke-linecap="butt" stroke-miterlimit="10" stroke-linejoin="miter" fill="none" stroke="#000080" d="M 11.52765 101.91447 C 11.52765 101.91447 12.7391 105.8201 13.20438 107.30377 C 13.66965 108.78743 14.41582 111.1537 14.88109 112.60777 C 15.34636 114.06183 16.09253 116.37125 16.5578 117.78375 C 17.02307 119.19626 17.76926 121.42885 18.23453 122.7882 C 18.6998 124.14754 19.44598 126.28606 19.91125 127.58104 C 20.37653 128.87604 21.1227 130.9016 21.58797 132.12169 C 22.05324 133.3418 22.79942 135.2391 23.2647 136.37471 C 23.72997 137.51032 24.47615 139.2644 24.94142 140.30638 C 25.4067 141.34836 26.15286 142.94461 26.61813 143.88463 C 27.0834 144.82466 27.82959 146.25099 28.29486 147.08147 C 28.76013 147.91193 29.5063 149.15613 29.97157 149.87009 C 30.43684 150.58403 31.18301 151.63521 31.64828 152.22714 C 32.11357 152.81908 32.85976 153.67092 33.32503 154.13639 C 33.7903 154.60186 34.53647 155.2467 35.00174 155.58194 C 35.46701 155.91718 36.21318 156.3503 36.67847 156.55258 C 37.14374 156.75485 37.88992 156.97226 38.3552 157.03989 C 38.82047 157.1075 39.56664 157.10752 40.0319 157.03995 C 40.49718 156.97237 41.24336 156.755 41.70863 156.55278 C 42.1739 156.35054 42.92007 155.91744 43.38535 155.58232 C 43.85062 155.2472 44.59679 154.60266 45.06206 154.13738 C 45.52733 153.67209 46.27353 152.82073 46.7388 152.22876 C 47.20407 151.6368 47.95024 150.58478 48.41551 149.87082 C 48.88078 149.15688 49.62695 147.91339 50.09222 147.08304 C 50.5575 146.25269 51.30368 144.82619 51.76895 143.8862 C 52.23422 142.94622 52.98041 141.3501 53.44568 140.30828 C 53.91095 139.26645 54.65712 137.51299 55.12239 136.37747 C 55.58766 135.24196 56.33385 133.34444 56.79912 132.12427 C 57.26439 130.9041 58.01057 128.87833 58.47585 127.58333 C 58.94112 126.28833 59.68729 124.15007 60.15256 122.79077 C 60.61783 121.43146 61.36401 119.1987 61.82928 117.78638 C 62.29456 116.37405 63.04073 114.06578 63.506 112.61168 C 63.97127 111.15756 64.71744 108.78993 65.18271 107.30608 C 65.648 105.82222 66.39418 103.41815 66.85945 101.91707 C 67.32472 100.41597 68.07089 97.99344 68.53616 96.48727 C 69.00143 94.98111 69.7476 92.55998 70.21289 91.06165 C 70.67816 89.56331 71.42433 87.16583 71.8896 85.6882 C 72.35487 84.21059 73.10106 81.85646 73.56633 80.41199 C 74.0316 78.9675 74.77779 76.67621 75.24306 75.2774 C 75.70833 73.87862 76.4545 71.67136 76.91977 70.3304 C 77.38504 68.98943 78.13121 66.88376 78.59648 65.6126 C 79.06175 64.34145 79.80794 62.358 80.27321 61.16876 C 80.73848 59.9795 81.48466 58.1378 81.94994 57.04128 C 82.4152 55.94476 83.16138 54.25923 83.62665 53.26575 C 84.09192 52.27226 84.8381 50.76158 85.30338 49.8809 C 85.76865 49.00023 86.51482 47.67711 86.98009 46.91837 C 87.44536 46.1596 88.19154 45.04031 88.65681 44.4123 C 89.12209 43.78429 89.86827 42.88182 90.33354 42.39203 C 90.79881 41.90224 91.54498 41.22745 92.01025 40.88213 C 92.47552 40.5368 93.2217 40.09843 93.68697 39.90308 C 94.15224 39.70772 94.89842 39.51514 95.3637 39.474 C 95.82896 39.43286 96.57515 39.49007 97.04042 39.60648 C 97.50569 39.7229 98.25186 40.03642 98.71715 40.31311 C 99.18242 40.58981 99.92859 41.16241 100.39386 41.6007 C 100.85913 42.03897 101.6053 42.87256 102.07057 43.47192 C 102.53584 44.07127 103.28204 45.16122 103.74731 45.92049 C 104.21259 46.67975 104.95876 48.0271 105.42403 48.94423 C 105.8893 49.86137 106.63547 51.45953 107.10074 52.53056 C 107.56601 53.6016 108.3122 55.44305 108.77747 56.66353 C 109.24274 57.884 109.9889 59.96277 110.45418 61.327 C 110.91945 62.69122 111.66563 64.99527 112.1309 66.49597 C 112.59618 67.99666 113.34236 70.51382 113.80763 72.14302 C 114.2729 73.77222 115.01907 76.48932 115.48434 78.2381 C 115.94962 79.98688 116.69579 82.88835 117.16106 84.74701 C 117.62633 86.60567 118.37253 89.67703 118.8378 91.63405 C 119.30307 93.59108 120.04924 96.80856 120.51451 98.8519 C 120.97978 100.89525 121.72595 104.24359 122.19122 106.36107 C 122.6565 108.47856 123.40268 111.93542 123.86795 114.1133 C 124.33322 116.29115 125.0794 119.83302 125.54468 122.05763 C 126.00995 124.28224 126.75612 127.89001 127.22139 130.14682 C 127.68668 132.40363 128.43285 136.04969 128.89812 138.3232 C 129.36339 140.5967 130.10956 144.25754 130.57483 146.53267 C 131.0401 148.8078 131.78627 152.4595 132.25156 154.72083 C 132.71683 156.98213 133.46302 160.59926 133.92829 162.83063 C 134.39356 165.06201 135.13973 168.6174 135.605 170.80312 C 136.07027 172.98882 136.81645 176.4588 137.28173 178.58371 C 137.747 180.70864 138.49317 184.07032 138.95844 186.11806 C 139.4237 188.1658 140.16989 191.38755 140.63516 193.34252 C 141.10044 195.29747 141.84662 198.36054 142.31189 200.20806 C 142.77716 202.05559 143.52333 204.933 143.9886 206.65822 C 144.45388 208.38346 145.20005 211.05275 145.66532 212.6424 C 146.13059 214.23204 146.87677 216.67453 147.34204 218.1153 C 147.80731 219.55608 148.5535 221.74753 149.01877 223.02649 C 149.48404 224.30544 150.23021 226.22844 150.69548 227.33316 C 151.16075 228.43787 151.90694 230.06797 152.37221 230.98853 C 152.83748 231.90908 153.58365 233.24022 154.04892 233.96793 C 154.51419 234.69564 155.26038 235.70842 155.72565 236.23336 C 156.19092 236.7583 156.9371 237.4361 157.40238 237.75138 C 157.86765 238.06667 158.61382 238.40644 159.07909 238.50585 C 159.54436 238.60524 160.29053 238.59008 160.7558 238.46791 C 161.22109 238.34575 161.96726 237.97187 162.43253 237.62532 C 162.8978 237.27878 163.64398 236.5427 164.10926 235.97023 C 164.57453 235.39775 165.32071 234.29883 165.78598 233.4993 C 166.25125 232.69977 166.99742 231.23337 167.46269 230.2077 C 167.92797 229.18204 168.67414 227.35736 169.1394 226.10697 C 169.60468 224.85657 170.35088 222.6675 170.81615 221.19567 C 171.28142 219.72385 172.02759 217.18564 172.49286 215.49904 C 172.95813 213.81244 173.7043 210.93541 174.16957 209.03978 C 174.63484 207.14415 175.38103 203.93366 175.8463 201.83661 C 176.31157 199.73958 177.52303 193.9258 177.52303 193.9258 "/>
<symbol id="font_1_1">
<path d="M .14400001 .115 C .10400002 .048 .065 .034 .021000002 .031000002 C .009000003 .030000002 0 .030000002 0 .011000001 C 0 .0050000005 .0050000029 0 .013 0 C .040000004 0 .07100001 .003 .09900001 .003 C .13200002 .003 .16700001 0 .19900002 0 C .20500002 0 .21800003 0 .21800003 .019000002 C .21800003 .030000002 .20900002 .031000002 .20200002 .031000002 C .17900002 .033 .15500002 .041 .15500002 .066 C .15500002 .078 .16100002 .089 .16900002 .10300001 L .245 .231 L .49600003 .231 C .49800007 .21000001 .512 .074 .512 .064 C .512 .034 .46000005 .031000002 .44000004 .031000002 C .42600004 .031000002 .41600005 .031000002 .41600005 .011000001 C .41600005 0 .42800004 0 .43000005 0 C .47100006 0 .514 .003 .555 .003 C .58 .003 .643 0 .668 0 C .674 0 .686 0 .686 .020000002 C .686 .031000002 .676 .031000002 .663 .031000002 C .601 .031000002 .601 .038000004 .598 .067 L .537 .69200006 C .535 .712 .535 .716 .518 .716 C .502 .716 .49800007 .70900008 .492 .69900009 L .14400001 .115 M .26400004 .26200003 L .46100004 .592 L .493 .26200003 L .26400004 .26200003 Z "/>
</symbol>
<use xlink:href="#font_1_1" transform="matrix(9.9626,0,0,-9.9626,1.083691,59.879999)" fill="#800000"/>
<symbol id="font_1_3">
<path d="M .71000006 .71700009 C .71000006 .72 .708 .72700008 .699 .72700008 C .69600006 .72700008 .69500008 .7260001 .684 .71500006 L .614 .6380001 C .605 .65200009 .559 .72700008 .448 .72700008 C .22500001 .72700008 0 .50600007 0 .27400003 C 0 .109000008 .118000019 0 .271 0 C .358 0 .43400003 .040000004 .487 .086 C .58000007 .16800002 .597 .25900004 .597 .26200003 C .597 .272 .587 .272 .58500006 .272 C .579 .272 .574 .27 .572 .26200003 C .563 .23300001 .54 .162 .47100003 .104 C .402 .048 .33900003 .031000004 .287 .031000004 C .19700001 .031000004 .091000009 .083000008 .091000009 .23900001 C .091000009 .29600004 .112 .45800004 .21200003 .57500007 C .273 .646 .367 .69600006 .45600004 .69600006 C .558 .69600006 .61700007 .619 .61700007 .503 C .61700007 .46300004 .614 .46200005 .614 .45200003 C .614 .44200004 .625 .44200004 .629 .44200004 C .642 .44200004 .642 .44400005 .647 .46200005 L .71000006 .71700009 Z "/>
</symbol>
<use xlink:href="#font_1_3" transform="matrix(9.9626,0,0,-9.9626,.87213006,117.39818)" fill="#800080"/>
<symbol id="font_1_2">
<path d="M .11800001 .078 C .108 .039 .106 .031000002 .027000003 .031000002 C .009999998 .031000002 0 .031000002 0 .011000001 C 0 0 .009 0 .027000003 0 L .38400004 0 C .54200008 0 .66 .11800001 .66 .216 C .66 .28800003 .60200008 .34600003 .50500008 .35700003 C .609 .37600003 .71400007 .45000003 .71400007 .545 C .71400007 .619 .64800009 .683 .52800008 .683 L .192 .683 C .17300001 .683 .16300002 .683 .16300002 .66300007 C .16300002 .652 .17200002 .652 .19100002 .652 C .19300002 .652 .21200001 .652 .22900003 .65000006 C .24700001 .648 .256 .647 .256 .634 C .256 .63000008 .25500003 .62700006 .252 .615 L .11800001 .078 M .26900003 .36600004 L .33100004 .614 C .34000004 .64900007 .342 .652 .38500003 .652 L .51400008 .652 C .60200008 .652 .623 .59300008 .623 .549 C .623 .46100004 .53700008 .36600004 .41500003 .36600004 L .26900003 .36600004 M .224 .031000002 C .21000001 .031000002 .208 .031000002 .20200002 .032 C .192 .033 .18900001 .034 .18900001 .042000005 C .18900001 .045 .18900001 .047000003 .194 .065000008 L .263 .344 L .45200003 .344 C .54800006 .344 .56700006 .27 .56700006 .22700002 C .56700006 .128 .47800005 .031000002 .36 .031000002 L .224 .031000002 Z "/>
</symbol>
<use xlink:href="#font_1_2" transform="matrix(9.9626,0,0,-9.9626,.56842926,94.743)" fill="#000080"/>
</g>
<symbol id="font_1_4">
<path d="M .305 .31300003 C .311 .33900003 .334 .43100003 .404 .43100003 C .409 .43100003 .433 .43100003 .454 .418 C .426 .41300003 .40600003 .388 .40600003 .36400003 C .40600003 .34800003 .417 .32900004 .444 .32900004 C .46600003 .32900004 .498 .34700004 .498 .38700003 C .498 .43900005 .439 .45300005 .405 .45300005 C .347 .45300005 .312 .40000005 .3 .37700004 C .275 .44300003 .221 .45300005 .19200002 .45300005 C .08800001 .45300005 .031000002 .32400004 .031000002 .29900003 C .031000002 .28900004 .041 .28900004 .043000007 .28900004 C .051000008 .28900004 .054000006 .291 .056 .3 C .09 .40600003 .156 .43100003 .19000001 .43100003 C .209 .43100003 .244 .42200003 .244 .36400003 C .244 .33300004 .22700002 .26600004 .19000001 .126 C .17400001 .064 .13900002 .022000002 .095000009 .022000002 C .08900001 .022000002 .06600001 .022000002 .045 .035 C .07000001 .040000004 .09200001 .061 .09200001 .089 C .09200001 .116000007 .07000001 .124000009 .055000009 .124000009 C .025 .124000009 0 .098000008 0 .06600001 C 0 .020000002 .050000006 0 .094000007 0 C .16000001 0 .19600001 .07000001 .19900002 .076000008 C .21100001 .039 .24700003 0 .307 0 C .41 0 .467 .12900001 .467 .15400002 C .467 .16400002 .458 .16400002 .455 .16400002 C .446 .16400002 .444 .16000001 .442 .15300001 C .409 .046 .341 .022000002 .30900003 .022000002 C .27 .022000002 .254 .054 .254 .08800001 C .254 .11000001 .26 .13200002 .271 .17600002 L .305 .31300003 Z "/>
</symbol>
<use xlink:href="#font_1_4" transform="matrix(9.9626,0,0,-9.9626,112.391918,84.490589)"/>
<symbol id="font_1_5">
<path d="M .45700003 .586 C .461 .6 .461 .602 .461 .609 C .461 .62700006 .447 .63600006 .432 .63600006 C .42200003 .63600006 .40600003 .63 .397 .615 C .395 .61 .387 .579 .38300003 .561 C .37600003 .535 .36900003 .508 .363 .48100005 L .318 .301 C .314 .286 .271 .21600002 .20500002 .21600002 C .15400002 .21600002 .143 .26000003 .143 .29700003 C .143 .34300003 .16000001 .40500004 .194 .49300004 C .21000001 .53400006 .21400002 .545 .21400002 .56500008 C .21400002 .61 .18200001 .6470001 .13200002 .6470001 C .037 .6470001 0 .50200006 0 .49300004 C 0 .48300005 .01 .48300005 .012 .48300005 C .022000002 .48300005 .023 .485 .028000003 .50100007 C .055000009 .595 .095000009 .625 .12900001 .625 C .13700001 .625 .15400002 .625 .15400002 .59300008 C .15400002 .568 .14400001 .54200008 .13700001 .523 C .097 .41700004 .079 .36 .079 .31300003 C .079 .224 .142 .194 .201 .194 C .24000003 .194 .274 .21100001 .30200003 .23900002 C .289 .187 .277 .13800001 .237 .08500001 C .21100001 .051 .17300001 .022 .127 .022 C .113000009 .022 .068 .025000006 .051000008 .06400001 C .067 .06400001 .080000009 .06400001 .094000007 .076000008 C .104 .08500001 .11400001 .098000008 .11400001 .117000009 C .11400001 .148 .087000008 .15200001 .07700001 .15200001 C .054000006 .15200001 .021 .136 .021 .087000008 C .021 .037 .065000008 0 .127 0 C .23 0 .333 .091000009 .361 .20400001 L .45700003 .586 Z "/>
</symbol>
<use xlink:href="#font_1_5" transform="matrix(9.9626,0,0,-9.9626,37.066915,9.652334)"/>
</svg>
