<?xml version="1.0" encoding="UTF-8" standalone="no"?>
<!DOCTYPE svg PUBLIC "-//W3C//DTD SVG 1.1//EN" "http://www.w3.org/Graphics/SVG/1.1/DTD/svg11.dtd">
<svg xmlns="http://www.w3.org/2000/svg" xmlns:xlink="http://www.w3.org/1999/xlink" version="1.1" width="228.529pt" height="189.898pt" viewBox="0 0 228.529 189.898">
<clipPath id="cp0">
<path transform="matrix(1,0,0,-1,21.696,368.184)" d="M 0 193.67472 L 194.26988 193.67472 L 194.26988 355.07035 L 0 355.07035 Z "/>
</clipPath>
<g clip-path="url(#cp0)">
<path transform="matrix(1,0,0,-1,21.696,368.184)" d="M 35.3218 193.67472 C 35.3218 193.67472 35.3282 194.61696 35.3362 194.97885 C 35.3442 195.34073 35.36345 195.92111 35.37944 196.28299 C 35.39543 196.64488 35.42752 197.22525 35.4515 197.58713 C 35.4755 197.949 35.52042 198.52939 35.5524 198.89128 C 35.58438 199.25316 35.64214 199.83353 35.68214 200.1954 C 35.72214 200.5573 35.7927 201.13768 35.8407 201.49956 C 35.88869 201.86144 35.97209 202.44182 36.02808 202.8037 C 36.08406 203.16559 36.18031 203.74596 36.2443 204.10784 C 36.30827 204.46971 36.41731 205.05008 36.48932 205.41197 C 36.56131 205.77385 36.6832 206.35424 36.7632 206.71611 C 36.84319 207.078 36.97789 207.65837 37.06589 208.02025 C 37.15387 208.38213 37.30142 208.96251 37.3974 209.32439 C 37.4934 209.68628 37.65378 210.26667 37.75777 210.62854 C 37.86177 210.99042 38.03496 211.57079 38.14696 211.93268 C 38.25894 212.29456 38.44496 212.87494 38.56494 213.23682 C 38.68494 213.59871 38.8838 214.1791 39.0118 214.54097 C 39.13979 214.90285 39.35149 215.48322 39.48747 215.8451 C 39.62344 216.20699 39.84796 216.78736 39.99196 217.14923 C 40.13596 217.51111 40.37329 218.09149 40.52527 218.45339 C 40.67726 218.81526 40.92744 219.39563 41.08743 219.7575 C 41.24742 220.1194 41.51042 220.69979 41.6784 221.06166 C 41.84639 221.42354 42.12222 222.00392 42.29822 222.3658 C 42.47421 222.72769 42.76286 223.30806 42.94685 223.66994 C 43.13084 224.03182 43.43233 224.6122 43.62431 224.97409 C 43.8163 225.33597 44.13062 225.91634 44.3306 226.27822 C 44.53058 226.6401 44.85774 227.22048 45.06572 227.58235 C 45.2737 227.94423 45.61368 228.52462 45.82967 228.88649 C 46.04565 229.24839 46.39847 229.82877 46.62245 230.19065 C 46.84644 230.55252 47.21208 231.13289 47.44406 231.49478 C 47.67604 231.85666 48.0545 232.43704 48.2945 232.79892 C 48.53447 233.16082 48.92577 233.7412 49.17375 234.10308 C 49.42175 234.46495 49.82587 235.04532 50.08185 235.4072 C 50.33783 235.76909 50.75478 236.34947 51.01875 236.71135 C 51.28275 237.07323 51.71251 237.6536 51.9845 238.01549 C 52.25647 238.37737 52.69908 238.95774 52.97906 239.31961 C 53.25906 239.6815 53.7145 240.26189 54.00249 240.62377 C 54.29047 240.98564 54.75873 241.56603 55.05472 241.9279 C 55.3507 242.2898 55.8318 242.87017 56.13577 243.23204 C 56.43976 243.59392 56.93369 244.1743 57.24565 244.5362 C 57.55763 244.89807 58.06438 245.47844 58.38435 245.84032 C 58.70435 246.20221 59.22394 246.7826 59.55193 247.14447 C 59.8799 247.50635 60.41231 248.08673 60.74829 248.44861 C 61.08426 248.8105 61.62952 249.39087 61.97348 249.75275 C 62.31746 250.11463 62.87553 250.69499 63.22751 251.05689 C 63.5795 251.41876 64.15038 251.99915 64.51036 252.36103 C 64.87035 252.72292 65.45409 253.3033 65.82207 253.66518 C 66.19005 254.02706 66.7866 254.60742 67.16258 254.9693 C 67.53856 255.33119 68.14793 255.91158 68.5319 256.27345 C 68.91588 256.6353 69.5381 257.2157 69.93008 257.57759 C 70.32207 257.93949 70.95708 258.51985 71.35706 258.8817 C 71.75703 259.2436 72.40495 259.824 72.81293 260.18589 C 73.2209 260.54774 73.88159 261.1281 74.29756 261.49 C 74.71353 261.85188 75.38705 262.43229 75.81104 262.79414 C 76.23503 263.156 76.92145 263.7364 77.35341 264.09828 C 77.78537 264.46018 78.48444 265.04054 78.9244 265.4024 C 79.36435 265.7643 80.07639 266.34468 80.52437 266.70658 C 80.97235 267.06846 81.6972 267.6488 82.15318 268.0107 C 82.60918 268.37257 83.34685 268.95298 83.81082 269.31483 C 84.27481 269.6767 85.02528 270.25709 85.49725 270.61897 C 85.96924 270.98085 86.7326 271.56123 87.21259 271.9231 C 87.69258 272.285 88.4687 272.86537 88.95668 273.22727 C 89.44464 273.58915 90.23363 274.1695 90.72961 274.5314 C 91.22559 274.89326 92.0274 275.47367 92.53137 275.83555 C 93.03535 276.1974 93.85002 276.77778 94.36198 277.13966 C 94.87396 277.50154 95.70137 278.0819 96.22133 278.4438 C 96.74127 278.8057 97.58157 279.38606 98.10954 279.74794 C 98.63753 280.10984 99.49068 280.6902 100.02666 281.0521 C 100.56264 281.41398 101.42862 281.99436 101.9726 282.35624 C 102.51657 282.7181 103.39536 283.29847 103.94733 283.66035 C 104.49928 284.02223 105.3909 284.60264 105.95088 284.9645 C 106.51086 285.3264 107.4153 285.90675 107.98328 286.26863 C 108.55125 286.63053 109.46852 287.21089 110.0445 287.57279 C 110.62047 287.93467 111.55057 288.51506 112.13455 288.8769 C 112.71854 289.23878 113.66147 289.81916 114.25345 290.18107 C 114.84543 290.5429 115.80124 291.1233 116.40118 291.48518 C 117.00114 291.84709 117.96959 292.42744 118.57755 292.7893 C 119.18552 293.1512 120.16696 293.73158 120.78294 294.09349 C 121.39893 294.45536 122.39317 295.0357 123.01714 295.3976 C 123.6411 295.7595 124.64818 296.33985 125.28015 296.70176 C 125.91212 297.0636 126.93202 297.644 127.572 298.00587 C 128.21198 298.36778 129.24472 298.94816 129.89269 299.31 C 130.54067 299.67189 131.58623 300.25227 132.24222 300.61418 C 132.8982 300.97605 133.95659 301.5564 134.62056 301.9183 C 135.28455 302.28019 136.35579 302.86054 137.02777 303.22245 C 137.69974 303.5843 138.7838 304.1647 139.46373 304.52659 C 140.14368 304.88847 141.24044 305.46885 141.92839 305.8307 C 142.61634 306.19258 143.72605 306.77296 144.42203 307.13487 C 145.118 307.49674 146.24053 308.0771 146.9445 308.43898 C 147.64849 308.80088 148.78385 309.38124 149.4958 309.74314 C 150.20778 310.105 151.35599 310.6854 152.07596 311.04728 C 152.79595 311.40916 153.95697 311.98954 154.68494 312.3514 C 155.41292 312.71327 156.58679 313.29368 157.32276 313.65556 C 158.05873 314.01744 159.24538 314.5978 159.98935 314.95967 C 160.73332 315.32157 161.93286 315.90193 162.68485 316.26383 C 163.43683 316.6257 164.64919 317.2061 165.40912 317.56797 C 166.16905 317.92985 167.39406 318.51023 168.162 318.8721 C 168.92995 319.23396 170.16796 319.81437 170.94393 320.17625 C 171.7199 320.53813 172.97074 321.11848 173.7547 321.48036 C 174.53867 321.84226 176.5943 322.78453 176.5943 322.78453 L 176.5943 193.67472 L 35.3218 193.67472 Z " fill="#cccce6"/>
<path transform="matrix(1,0,0,-1,21.696,368.184)" stroke-width="1" stroke-linecap="butt" stroke-miterlimit="10" stroke-linejoin="miter" fill="none" stroke="#000000" d="M 35.3218 193.67472 C 35.3218 193.67472 35.3282 194.61696 35.3362 194.97885 C 35.3442 195.34073 35.36345 195.92111 35.37944 196.28299 C 35.39543 196.64488 35.42752 197.22525 35.4515 197.58713 C 35.4755 197.949 35.52042 198.52939 35.5524 198.89128 C 35.58438 199.25316 35.64214 199.83353 35.68214 200.1954 C 35.72214 200.5573 35.7927 201.13768 35.8407 201.49956 C 35.88869 201.86144 35.97209 202.44182 36.02808 202.8037 C 36.08406 203.16559 36.18031 203.74596 36.2443 204.10784 C 36.30827 204.46971 36.41731 205.05008 36.48932 205.41197 C 36.56131 205.77385 36.6832 206.35424 36.7632 206.71611 C 36.84319 207.078 36.97789 207.65837 37.06589 208.02025 C 37.15387 208.38213 37.30142 208.96251 37.3974 209.32439 C 37.4934 209.68628 37.65378 210.26667 37.75777 210.62854 C 37.86177 210.99042 38.03496 211.57079 38.14696 211.93268 C 38.25894 212.29456 38.44496 212.87494 38.56494 213.23682 C 38.68494 213.59871 38.8838 214.1791 39.0118 214.54097 C 39.13979 214.90285 39.35149 215.48322 39.48747 215.8451 C 39.62344 216.20699 39.84796 216.78736 39.99196 217.14923 C 40.13596 217.51111 40.37329 218.09149 40.52527 218.45339 C 40.67726 218.81526 40.92744 219.39563 41.08743 219.7575 C 41.24742 220.1194 41.51042 220.69979 41.6784 221.06166 C 41.84639 221.42354 42.12222 222.00392 42.29822 222.3658 C 42.47421 222.72769 42.76286 223.30806 42.94685 223.66994 C 43.13084 224.03182 43.43233 224.6122 43.62431 224.97409 C 43.8163 225.33597 44.13062 225.91634 44.3306 226.27822 C 44.53058 226.6401 44.85774 227.22048 45.06572 227.58235 C 45.2737 227.94423 45.61368 228.52462 45.82967 228.88649 C 46.04565 229.24839 46.39847 229.82877 46.62245 230.19065 C 46.84644 230.55252 47.21208 231.13289 47.44406 231.49478 C 47.67604 231.85666 48.0545 232.43704 48.2945 232.79892 C 48.53447 233.16082 48.92577 233.7412 49.17375 234.10308 C 49.42175 234.46495 49.82587 235.04532 50.08185 235.4072 C 50.33783 235.76909 50.75478 236.34947 51.01875 236.71135 C 51.28275 237.07323 51.71251 237.6536 51.9845 238.01549 C 52.25647 238.37737 52.69908 238.95774 52.97906 239.31961 C 53.25906 239.6815 53.7145 240.26189 54.00249 240.62377 C 54.29047 240.98564 54.75873 241.56603 55.05472 241.9279 C 55.3507 242.2898 55.8318 242.87017 56.13577 243.23204 C 56.43976 243.59392 56.93369 244.1743 57.24565 244.5362 C 57.55763 244.89807 58.06438 245.47844 58.38435 245.84032 C 58.70435 246.20221 59.22394 246.7826 59.55193 247.14447 C 59.8799 247.50635 60.41231 248.08673 60.74829 248.44861 C 61.08426 248.8105 61.62952 249.39087 61.97348 249.75275 C 62.31746 250.11463 62.87553 250.69499 63.22751 251.05689 C 63.5795 251.41876 64.15038 251.99915 64.51036 252.36103 C 64.87035 252.72292 65.45409 253.3033 65.82207 253.66518 C 66.19005 254.02706 66.7866 254.60742 67.16258 254.9693 C 67.53856 255.33119 68.14793 255.91158 68.5319 256.27345 C 68.91588 256.6353 69.5381 257.2157 69.93008 257.57759 C 70.32207 257.93949 70.95708 258.51985 71.35706 258.8817 C 71.75703 259.2436 72.40495 259.824 72.81293 260.18589 C 73.2209 260.54774 73.88159 261.1281 74.29756 261.49 C 74.71353 261.85188 75.38705 262.43229 75.81104 262.79414 C 76.23503 263.156 76.92145 263.7364 77.35341 264.09828 C 77.78537 264.46018 78.48444 265.04054 78.9244 265.4024 C 79.36435 265.7643 80.07639 266.34468 80.52437 266.70658 C 80.97235 267.06846 81.6972 267.6488 82.15318 268.0107 C 82.60918 268.37257 83.34685 268.95298 83.81082 269.31483 C 84.27481 269.6767 85.02528 270.25709 85.49725 270.61897 C 85.96924 270.98085 86.7326 271.56123 87.21259 271.9231 C 87.69258 272.285 88.4687 272.86537 88.95668 273.22727 C 89.44464 273.58915 90.23363 274.1695 90.72961 274.5314 C 91.22559 274.89326 92.0274 275.47367 92.53137 275.83555 C 93.03535 276.1974 93.85002 276.77778 94.36198 277.13966 C 94.87396 277.50154 95.70137 278.0819 96.22133 278.4438 C 96.74127 278.8057 97.58157 279.38606 98.10954 279.74794 C 98.63753 280.10984 99.49068 280.6902 100.02666 281.0521 C 100.56264 281.41398 101.42862 281.99436 101.9726 282.35624 C 102.51657 282.7181 103.39536 283.29847 103.94733 283.66035 C 104.49928 284.02223 105.3909 284.60264 105.95088 284.9645 C 106.51086 285.3264 107.4153 285.90675 107.98328 286.26863 C 108.55125 286.63053 109.46852 287.21089 110.0445 287.57279 C 110.62047 287.93467 111.55057 288.51506 112.13455 288.8769 C 112.71854 289.23878 113.66147 289.81916 114.25345 290.18107 C 114.84543 290.5429 115.80124 291.1233 116.40118 291.48518 C 117.00114 291.84709 117.96959 292.42744 118.57755 292.7893 C 119.18552 293.1512 120.16696 293.73158 120.78294 294.09349 C 121.39893 294.45536 122.39317 295.0357 123.01714 295.3976 C 123.6411 295.7595 124.64818 296.33985 125.28015 296.70176 C 125.91212 297.0636 126.93202 297.644 127.572 298.00587 C 128.21198 298.36778 129.24472 298.94816 129.89269 299.31 C 130.54067 299.67189 131.58623 300.25227 132.24222 300.61418 C 132.8982 300.97605 133.95659 301.5564 134.62056 301.9183 C 135.28455 302.28019 136.35579 302.86054 137.02777 303.22245 C 137.69974 303.5843 138.7838 304.1647 139.46373 304.52659 C 140.14368 304.88847 141.24044 305.46885 141.92839 305.8307 C 142.61634 306.19258 143.72605 306.77296 144.42203 307.13487 C 145.118 307.49674 146.24053 308.0771 146.9445 308.43898 C 147.64849 308.80088 148.78385 309.38124 149.4958 309.74314 C 150.20778 310.105 151.35599 310.6854 152.07596 311.04728 C 152.79595 311.40916 153.95697 311.98954 154.68494 312.3514 C 155.41292 312.71327 156.58679 313.29368 157.32276 313.65556 C 158.05873 314.01744 159.24538 314.5978 159.98935 314.95967 C 160.73332 315.32157 161.93286 315.90193 162.68485 316.26383 C 163.43683 316.6257 164.64919 317.2061 165.40912 317.56797 C 166.16905 317.92985 167.39406 318.51023 168.162 318.8721 C 168.92995 319.23396 170.16796 319.81437 170.94393 320.17625 C 171.7199 320.53813 172.97074 321.11848 173.7547 321.48036 C 174.53867 321.84226 176.5943 322.78453 176.5943 322.78453 L 176.5943 193.67472 L 35.3218 193.67472 Z "/>
<path transform="matrix(1,0,0,-1,21.696,368.184)" d="M 0 0 L 7.65302 13.98756 L 15.30606 27.97513 L 22.95909 41.96269 L 30.6121 55.95029 L 38.26515 69.93787 L 45.91818 83.92543 L 53.5712 97.913 L 61.22424 111.90059 L 68.87727 125.88815 L 76.53029 139.87572 L 84.18333 153.86331 L 91.83636 167.85088 L 99.48938 181.83844 L 107.14243 195.826 L 114.79546 209.8136 L 122.44847 223.80117 L 130.10152 237.78873 L 137.75455 251.7763 L 145.40756 265.7639 L 153.06061 279.75148 L 160.71364 293.73905 L 168.36667 307.72663 L 176.0197 321.71418 L 183.67273 335.70176 L 183.67273 193.67472 L 0 193.67472 Z " fill="#ffffff"/>
<path transform="matrix(1,0,0,-1,21.696,368.184)" stroke-width="1.19553" stroke-linecap="butt" stroke-miterlimit="10" stroke-linejoin="miter" fill="none" stroke="#800000" d="M 35.3218 193.67472 C 35.3218 193.67472 35.33623 195.0881 35.35422 195.63095 C 35.3722 196.1738 35.41551 197.04434 35.4515 197.58719 C 35.4875 198.13004 35.5597 199.0006 35.61368 199.54344 C 35.66768 200.08629 35.7687 200.95685 35.84071 201.4997 C 35.9127 202.04254 36.0426 202.91309 36.1326 203.45594 C 36.2226 203.99878 36.38136 204.86933 36.48936 205.41217 C 36.59735 205.95502 36.78499 206.82556 36.911 207.36843 C 37.03699 207.91127 37.2535 208.7818 37.39748 209.32465 C 37.54147 209.8675 37.78685 210.73805 37.94884 211.2809 C 38.11084 211.82375 38.38509 212.69429 38.56506 213.23714 C 38.74506 213.77999 39.04817 214.65053 39.24617 215.19338 C 39.44415 215.73622 39.77612 216.60678 39.99211 217.14963 C 40.2081 217.69248 40.56895 218.56304 40.80293 219.10588 C 41.03693 219.64873 41.42664 220.51927 41.67862 221.06212 C 41.9306 221.60497 42.3492 222.47553 42.61919 223.01837 C 42.88916 223.56122 43.33661 224.43177 43.62459 224.97461 C 43.91258 225.51746 44.38889 226.38799 44.69487 226.93083 C 45.00085 227.47368 45.50604 228.34424 45.83002 228.88709 C 46.154 229.42993 46.68803 230.30048 47.03003 230.84333 C 47.37204 231.38617 47.93492 232.25672 48.29492 232.79956 C 48.6549 233.3424 49.24666 234.21297 49.62466 234.75582 C 50.00266 235.29866 50.62329 236.16922 51.01929 236.71207 C 51.41528 237.25492 52.06476 238.12546 52.47876 238.6683 C 52.89275 239.21115 53.5711 240.08171 54.0031 240.62456 C 54.4351 241.1674 55.14232 242.03795 55.59232 242.5808 C 56.04231 243.12364 56.7784 243.99417 57.24638 244.53702 C 57.71439 245.07988 58.47932 245.95043 58.96532 246.49327 C 59.45131 247.03612 60.24515 247.90666 60.74913 248.44951 C 61.25313 248.99236 62.0758 249.86292 62.59781 250.40576 C 63.1198 250.94861 63.97134 251.81916 64.51134 252.362 C 65.05133 252.90485 65.93176 253.7754 66.48975 254.31826 C 67.04774 254.8611 67.95703 255.73165 68.53302 256.27449 C 69.10901 256.81736 70.04716 257.6879 70.64116 258.23075 C 71.23514 258.7736 72.20212 259.64414 72.8141 260.18699 C 73.4261 260.72984 74.42201 261.60038 75.052 262.14323 C 75.682 262.68608 76.70682 263.5566 77.3548 264.09947 C 78.00279 264.6423 79.05635 265.51286 79.72234 266.0557 C 80.3883 266.59855 81.4708 267.4691 82.1548 268.01197 C 82.83879 268.5548 83.95018 269.42536 84.65216 269.9682 C 85.35414 270.51103 86.49426 271.3816 87.21426 271.9244 C 87.93425 272.4673 89.1034 273.33784 89.8414 273.88069 C 90.57942 274.42353 91.77733 275.29408 92.53333 275.8369 C 93.28932 276.37977 94.51614 277.2503 95.29015 277.79319 C 96.06413 278.336 97.31976 279.20658 98.11176 279.7494 C 98.90375 280.29225 100.1883 281.16279 100.9983 281.70564 C 101.8083 282.2485 103.12177 283.11903 103.94974 283.66188 C 104.77771 284.20475 106.11987 285.07527 106.96585 285.61814 C 107.81183 286.16096 109.18303 287.03153 110.04704 287.57438 C 110.91104 288.1172 112.31107 288.98777 113.19304 289.5306 C 114.07501 290.07347 115.50378 290.944 116.40378 291.48686 C 117.30376 292.0297 118.76155 292.90025 119.67958 293.4431 C 120.5976 293.98597 122.08421 294.85649 123.0202 295.39936 C 123.9562 295.94218 125.47171 296.81275 126.42567 297.3556 C 127.37965 297.8984 128.92389 298.76899 129.89586 299.3118 C 130.86785 299.85469 132.4411 300.7252 133.43112 301.26805 C 134.42113 301.8109 136.02324 302.68144 137.03122 303.2243 C 138.0392 303.76716 139.67 304.6377 140.69597 305.18055 C 141.72196 305.7234 143.38185 306.59394 144.42586 307.13679 C 145.46987 307.67964 147.15854 308.5502 148.22052 309.09303 C 149.28249 309.6359 150.99993 310.5064 152.0799 311.04927 C 153.15988 311.59214 154.90633 312.46266 156.00434 313.00553 C 157.10234 313.54838 158.87763 314.4189 159.9936 314.96177 C 161.10959 315.5046 162.91358 316.37516 164.04756 316.918 C 165.18157 317.46086 167.01464 318.3314 168.16663 318.87425 C 169.31864 319.41709 171.18047 320.28764 172.35048 320.83049 C 173.52048 321.37333 175.41127 322.24388 176.59926 322.7867 C 177.78725 323.32957 179.70671 324.20014 180.91269 324.74299 C 182.11865 325.2858 184.06713 326.15638 185.29116 326.6992 C 186.51517 327.24205 188.49257 328.1126 189.73456 328.65544 C 190.97655 329.1983 192.98258 330.06886 194.24254 330.6117 C 195.50252 331.15455 197.53762 332.0251 198.81563 332.56794 C 200.09365 333.11079 202.15763 333.98136 203.4536 334.5242 C 204.74959 335.06703 206.84224 335.93757 208.15622 336.4804 C 209.47019 337.0233 211.59186 337.8938 212.92388 338.43666 C 214.25589 338.9795 216.40647 339.85005 217.75647 340.3929 C 219.10649 340.93577 221.28589 341.8063 222.65386 342.34916 C 224.02182 342.89198 226.22994 343.76255 227.61592 344.3054 C 229.00189 344.84825 231.23908 345.71879 232.64308 346.26164 C 234.0471 346.80448 236.31317 347.67503 237.73514 348.21788 C 239.15712 348.7607 241.4518 349.63127 242.89177 350.17414 C 244.33176 350.71696 246.6555 351.58753 248.11351 352.13038 C 249.5715 352.6732 251.92417 353.54374 253.40015 354.0866 C 254.87612 354.62944 257.25743 355.49998 258.7514 356.04283 C 260.24537 356.5857 262.65577 357.4562 264.16777 357.99909 C 265.67976 358.54194 268.11894 359.41249 269.64894 359.95533 C 271.17897 360.49818 273.64707 361.3687 275.195 361.91157 C 276.743 362.4544 279.23976 363.32496 280.80574 363.8678 C 282.3717 364.41065 284.89756 365.2812 286.48155 365.82405 C 288.06559 366.3669 290.62028 367.23744 292.22227 367.7803 C 293.82423 368.32316 296.40757 369.1937 298.02754 369.73655 C 299.64753 370.27937 302.25996 371.14994 303.89796 371.69279 C 305.53599 372.23564 308.17723 373.10618 309.83326 373.649 C 311.48927 374.19187 314.15946 375.0624 315.83345 375.60527 C 317.5074 376.1481 320.20619 377.01866 321.89817 377.5615 C 323.59013 378.10435 326.31806 378.97489 328.02806 379.51774 C 329.73808 380.06059 332.49485 380.93116 334.22279 381.47398 C 335.95075 382.0168 338.7361 382.88737 340.4821 383.4302 C 342.22807 383.97309 345.04258 384.84364 346.8066 385.38648 C 348.57063 385.92933 353.19599 387.3427 353.19599 387.3427 "/>
<path transform="matrix(1,0,0,-1,21.696,368.184)" stroke-width="1.19553" stroke-linecap="butt" stroke-miterlimit="10" stroke-linejoin="miter" fill="none" stroke="#000080" d="M 0 0 C 0 0 5.84834 10.68912 8.09454 14.79454 C 10.34074 18.89998 13.9429 25.48366 16.1891 29.5891 C 18.43529 33.69452 22.03745 40.27821 24.28365 44.38364 C 26.52985 48.48907 30.132 55.07277 32.3782 59.17819 C 34.6244 63.28363 38.22655 69.86731 40.47275 73.97275 C 42.71895 78.07817 46.3211 84.66188 48.5673 88.7673 C 50.8135 92.87274 54.41566 99.45642 56.66187 103.56186 C 58.90807 107.6673 62.51022 114.25098 64.75642 118.35641 C 67.00262 122.46184 70.60478 129.04553 72.85097 133.15096 C 75.09717 137.2564 78.69933 143.84008 80.94553 147.94551 C 83.19173 152.05094 86.79388 158.63463 89.04008 162.74007 C 91.28627 166.84549 94.88843 173.42919 97.13463 177.5346 C 99.38083 181.64005 102.98299 188.22373 105.22919 192.32917 C 107.47539 196.43459 111.07753 203.01828 113.32373 207.1237 C 115.56993 211.22914 119.17209 217.81284 121.41829 221.91826 C 123.66449 226.0237 127.26663 232.60738 129.51284 236.71282 C 131.75904 240.81824 135.36119 247.40193 137.60739 251.50736 C 139.85359 255.6128 143.45575 262.19648 145.70195 266.3019 C 147.94815 270.40736 151.55031 276.99104 153.79651 281.09648 C 156.04271 285.2019 159.64487 291.78559 161.89105 295.891 C 164.13726 299.99644 167.73941 306.5801 169.98561 310.68556 C 172.23181 314.791 175.83397 321.3747 178.08017 325.48014 C 180.32636 329.58555 183.92852 336.16926 186.17472 340.27467 C 188.42092 344.3801 194.26927 355.06925 194.26927 355.06925 "/>
<symbol id="font_1_4">
<path d="M .45700003 .586 C .461 .6 .461 .602 .461 .609 C .461 .62700006 .447 .63600006 .432 .63600006 C .42200003 .63600006 .40600003 .63 .397 .615 C .395 .61 .387 .579 .38300003 .561 C .37600003 .535 .36900003 .508 .363 .48100005 L .318 .301 C .314 .286 .271 .21600002 .20500002 .21600002 C .15400002 .21600002 .143 .26000003 .143 .29700003 C .143 .34300003 .16000001 .40500004 .194 .49300004 C .21000001 .53400006 .21400002 .545 .21400002 .56500008 C .21400002 .61 .18200001 .6470001 .13200002 .6470001 C .037 .6470001 0 .50200006 0 .49300004 C 0 .48300005 .01 .48300005 .012 .48300005 C .022000002 .48300005 .023 .485 .028000003 .50100007 C .055000009 .595 .095000009 .625 .12900001 .625 C .13700001 .625 .15400002 .625 .15400002 .59300008 C .15400002 .568 .14400001 .54200008 .13700001 .523 C .097 .41700004 .079 .36 .079 .31300003 C .079 .224 .142 .194 .201 .194 C .24000003 .194 .274 .21100001 .30200003 .23900002 C .289 .187 .277 .13800001 .237 .08500001 C .21100001 .051 .17300001 .022 .127 .022 C .113000009 .022 .068 .025000006 .051000008 .06400001 C .067 .06400001 .080000009 .06400001 .094000007 .076000008 C .104 .08500001 .11400001 .098000008 .11400001 .117000009 C .11400001 .148 .087000008 .15200001 .07700001 .15200001 C .054000006 .15200001 .021 .136 .021 .087000008 C .021 .037 .065000008 0 .127 0 C .23 0 .333 .091000009 .361 .20400001 L .45700003 .586 Z "/>
</symbol>
<use xlink:href="#font_1_4" transform="matrix(9.9626,0,0,-9.9626,67.78792,83.303318)" fill="#800000"/>
<symbol id="font_2_8">
<path d="M .63100007 .19400002 C .646 .19400002 .665 .19400002 .665 .214 C .665 .23400001 .646 .23400001 .632 .23400001 L .033 .23400001 C .019000002 .23400001 0 .23400001 0 .214 C 0 .19400002 .019000002 .19400002 .034 .19400002 L .63100007 .19400002 M .632 0 C .646 0 .665 0 .665 .02000001 C .665 .040000008 .646 .040000008 .63100007 .040000008 L .034 .040000008 C .019000002 .040000008 0 .040000008 0 .02000001 C 0 0 .019000002 0 .033 0 L .632 0 Z "/>
</symbol>
<use xlink:href="#font_2_8" transform="matrix(9.9626,0,0,-9.9626,76.06691,79.93595)" fill="#800000"/>
<symbol id="font_3_2">
<path d="M .316 .10500002 L .14000002 .49400003 C .13300002 .51 .12799999 .51 .125 .51 C .124000009 .51 .118999999 .51 .108 .502 L .012999997 .43 C 0 .42000003 0 .417 0 .41400004 C 0 .40900005 .0029999987 .403 .009999998 .403 C .015999996 .403 .033 .417 .044 .425 C .049999998 .43 .065000008 .44099999 .076 .449 L .273 .015999973 C .28 0 .285 0 .294 0 C .30900003 0 .312 .0059999825 .319 .01999998 L .773 .96000006 C .78000006 .97400006 .78000006 .97800007 .78000006 .98 C .78000006 .99 .772 1 .76000007 1 C .75200006 1 .745 .99500009 .73700007 .97900006 L .316 .10500002 Z "/>
</symbol>
<use xlink:href="#font_3_2" transform="matrix(9.9626,0,0,-9.9626,86.75227,82.51307)" fill="#800000"/>
<path transform="matrix(1,0,0,-1,94.327,72.74998)" stroke-width="1" stroke-linecap="butt" stroke-miterlimit="10" stroke-linejoin="miter" fill="none" stroke="#800000" d="M 0 0 L 22.852 0 "/>
<symbol id="font_1_3">
<path d="M .305 .31300003 C .311 .33900003 .334 .43100003 .404 .43100003 C .409 .43100003 .433 .43100003 .454 .418 C .426 .41300003 .40600003 .388 .40600003 .36400003 C .40600003 .34800003 .417 .32900004 .444 .32900004 C .46600003 .32900004 .498 .34700004 .498 .38700003 C .498 .43900005 .439 .45300005 .405 .45300005 C .347 .45300005 .312 .40000005 .3 .37700004 C .275 .44300003 .221 .45300005 .19200002 .45300005 C .08800001 .45300005 .031000002 .32400004 .031000002 .29900003 C .031000002 .28900004 .041 .28900004 .043000007 .28900004 C .051000008 .28900004 .054000006 .291 .056 .3 C .09 .40600003 .156 .43100003 .19000001 .43100003 C .209 .43100003 .244 .42200003 .244 .36400003 C .244 .33300004 .22700002 .26600004 .19000001 .126 C .17400001 .064 .13900002 .022000002 .095000009 .022000002 C .08900001 .022000002 .06600001 .022000002 .045 .035 C .07000001 .040000004 .09200001 .061 .09200001 .089 C .09200001 .116000007 .07000001 .124000009 .055000009 .124000009 C .025 .124000009 0 .098000008 0 .06600001 C 0 .020000002 .050000006 0 .094000007 0 C .16000001 0 .19600001 .07000001 .19900002 .076000008 C .21100001 .039 .24700003 0 .307 0 C .41 0 .467 .12900001 .467 .15400002 C .467 .16400002 .458 .16400002 .455 .16400002 C .446 .16400002 .444 .16000001 .442 .15300001 C .409 .046 .341 .022000002 .30900003 .022000002 C .27 .022000002 .254 .054 .254 .08800001 C .254 .11000001 .26 .13200002 .271 .17600002 L .305 .31300003 Z "/>
</symbol>
<use xlink:href="#font_1_3" transform="matrix(9.9626,0,0,-9.9626,94.61592,81.37057)" fill="#800000"/>
<symbol id="font_3_1">
<path d="M .57600006 0 C .59300008 0 .611 0 .611 .019999996 C .611 .040000008 .59300008 .040000008 .57600006 .040000008 L .035000005 .040000008 C .018 .040000008 0 .040000008 0 .019999996 C 0 0 .018 0 .035000005 0 L .57600006 0 Z "/>
</symbol>
<use xlink:href="#font_3_1" transform="matrix(9.9626,0,0,-9.9626,103.0619,78.96958)" fill="#800000"/>
<symbol id="font_2_3">
<path d="M .205 .64000007 C .205 .66400006 .205 .666 .18200003 .666 C .120000008 .60200008 .032000007 .60200008 0 .60200008 L 0 .57100006 C .020000004 .57100006 .07900001 .57100006 .13100001 .597 L .13100001 .079 C .13100001 .043 .128 .031000002 .038000004 .031000002 L .0060000049 .031000002 L .0060000049 0 C .04100001 .003 .128 .003 .168 .003 C .20800002 .003 .29500003 .003 .33000005 0 L .33000005 .031000002 L .29800005 .031000002 C .20800002 .031000002 .205 .042000005 .205 .079 L .205 .64000007 Z "/>
</symbol>
<use xlink:href="#font_2_3" transform="matrix(9.9626,0,0,-9.9626,113.08367,81.26098)" fill="#800000"/>
<use xlink:href="#font_1_4" transform="matrix(9.9626,0,0,-9.9626,160.2429,133.60532)" fill="#000080"/>
<use xlink:href="#font_2_8" transform="matrix(9.9626,0,0,-9.9626,168.5209,130.23796)" fill="#000080"/>
<use xlink:href="#font_1_3" transform="matrix(9.9626,0,0,-9.9626,178.76792,131.67258)" fill="#000080"/>
<use xlink:href="#font_3_1" transform="matrix(9.9626,0,0,-9.9626,187.2139,129.27159)" fill="#000080"/>
<symbol id="font_2_5">
<path d="M .24800003 .37400005 C .33 .40100003 .388 .47100006 .388 .55 C .388 .632 .3 .688 .204 .688 C .10300001 .688 .027000003 .628 .027000003 .55200007 C .027000003 .519 .049000004 .5 .078 .5 C .109000008 .5 .12900001 .522 .12900001 .55100008 C .12900001 .6010001 .082 .6010001 .067 .6010001 C .098 .65000006 .164 .66300007 .20000002 .66300007 C .24100003 .66300007 .29600004 .64100006 .29600004 .55100008 C .29600004 .53900006 .29400004 .48100005 .268 .43700005 C .238 .38900004 .204 .38600005 .17900002 .38500003 C .171 .38400004 .14700002 .38200004 .14000002 .38200004 C .132 .38100005 .125 .38000003 .125 .37000004 C .125 .35900004 .132 .35900004 .14900002 .35900004 L .19300002 .35900004 C .275 .35900004 .312 .29100005 .312 .193 C .312 .057000005 .24300003 .028 .199 .028 C .15600002 .028 .081 .045 .046000005 .104 C .081 .09900001 .11200001 .12100001 .11200001 .15900001 C .11200001 .19500001 .085 .215 .056 .215 C .031999999 .215 0 .201 0 .157 C 0 .06600001 .093 0 .20200002 0 C .32400004 0 .41500003 .091000009 .41500003 .193 C .41500003 .27500005 .35200004 .35300005 .24800003 .37400005 Z "/>
</symbol>
<use xlink:href="#font_2_5" transform="matrix(9.9626,0,0,-9.9626,196.76844,131.78217)" fill="#000080"/>
<path transform="matrix(1,0,0,-1,21.696,368.184)" d="M 70.64359 258.23298 L 70.64359 264.68879 L 141.28719 264.68879 L 141.28719 258.23298 L 70.64359 258.23298 " fill="#bfbfbf"/>
<path transform="matrix(1,0,0,-1,21.696,368.184)" stroke-width="1" stroke-linecap="butt" stroke-miterlimit="10" stroke-linejoin="miter" fill="none" stroke="#000080" d="M 70.64359 258.23298 L 70.64359 264.68879 L 141.28719 264.68879 L 141.28719 258.23298 L 70.64359 258.23298 "/>
<path transform="matrix(1,0,0,-1,21.696,368.184)" stroke-width="1" stroke-linecap="butt" stroke-miterlimit="10" stroke-linejoin="miter" fill="none" stroke="#000000" d="M 64.97432 258.23298 C 64.22711 258.60655 63.72897 259.4783 63.72897 260.72367 L 63.72897 258.97019 C 63.72897 260.2155 63.23085 261.08729 62.48363 261.46089 C 63.23085 261.83448 63.72897 262.7062 63.72897 263.95158 L 63.72897 262.1981 C 63.72897 263.44346 64.22711 264.3152 64.97432 264.68879 "/>
<symbol id="font_2_1">
<path d="M .39500005 .698 C .38800005 .711 .38600005 .716 .36900003 .716 C .35200004 .716 .35000003 .711 .34300003 .698 L .004999999 .020000002 C 0 .011000001 0 .009000001 0 .008 C 0 0 .006000001 0 .022000004 0 L .716 0 C .73200008 0 .73800006 0 .73800006 .008 C .73800006 .009000001 .73800006 .011000001 .73300006 .020000002 L .39500005 .698 M .337 .61600008 L .60600009 .076000008 L .067 .076000008 L .337 .61600008 Z "/>
</symbol>
<use xlink:href="#font_2_1" transform="matrix(9.9626,0,0,-9.9626,68.37424,109.16098)"/>
<use xlink:href="#font_1_4" transform="matrix(9.9626,0,0,-9.9626,76.49692,111.203319)"/>
<path transform="matrix(1,0,0,-1,21.696,368.184)" stroke-width="1" stroke-linecap="butt" stroke-miterlimit="10" stroke-linejoin="miter" fill="none" stroke="#000000" d="M 70.64359 252.56369 C 71.01718 251.81649 71.88893 251.31835 73.13428 251.31835 L 103.47469 251.31835 C 104.72003 251.31835 105.5918 250.82022 105.96538 250.073 C 106.33897 250.82022 107.21072 251.31835 108.45607 251.31835 L 138.7965 251.31835 C 140.04184 251.31835 140.91359 251.81649 141.28719 252.56369 "/>
<symbol id="font_1_2">
<path d="M .232 .694 C .232 .695 .232 .705 .21900001 .705 C .19600001 .705 .122999999 .697 .097 .695 C .089 .694 .077999997 .693 .077999997 .675 C .077999997 .663 .087 .663 .102 .663 C .15 .663 .15200001 .656 .15200001 .646 L .149 .626 L .0040000008 .05 C 0 .036000004 0 .034 0 .028 C 0 .005000001 .02 0 .029000003 0 C .044999999 0 .061 .012000001 .066 .026 L .08499999 .102000009 L .10699999 .19200002 C .113000009 .21400002 .119 .23600002 .124 .259 C .126 .26500003 .134 .298 .135 .30400003 C .138 .31300003 .169 .36900003 .20300001 .39600004 C .225 .41200004 .256 .43100003 .299 .43100003 C .342 .43100003 .35300002 .397 .35300002 .36100004 C .35300002 .307 .315 .19800002 .291 .13700001 C .28300003 .11400001 .278 .102000009 .278 .082 C .278 .035 .31300003 0 .36 0 C .454 0 .491 .14600002 .491 .15400002 C .491 .16400002 .482 .16400002 .47900004 .16400002 C .46900005 .16400002 .46900005 .16100002 .46400006 .14600002 C .449 .093 .41700004 .022000002 .36200003 .022000002 C .345 .022000002 .338 .032 .338 .055000005 C .338 .080000009 .347 .104 .356 .126 C .372 .16900002 .41700004 .28800003 .41700004 .34600003 C .41700004 .411 .377 .45300005 .30200003 .45300005 C .239 .45300005 .191 .42200003 .154 .37600003 L .232 .694 Z "/>
</symbol>
<use xlink:href="#font_1_2" transform="matrix(9.9626,0,0,-9.9626,125.337947,132.88957)"/>
</g>
<path transform="matrix(1,0,0,-1,21.696,368.184)" stroke-width="1" stroke-linecap="butt" stroke-miterlimit="10" stroke-linejoin="miter" fill="none" stroke="#808080" d="M 35.3218 191.54866 L 35.3218 195.80077 M 70.64359 191.54866 L 70.64359 195.80077 M 105.96538 191.54866 L 105.96538 195.80077 M 141.28719 191.54866 L 141.28719 195.80077 M 176.60898 191.54866 L 176.60898 195.80077 "/>
<path transform="matrix(1,0,0,-1,21.696,368.184)" stroke-width="1" stroke-linecap="butt" stroke-miterlimit="10" stroke-linejoin="miter" fill="none" stroke="#808080" d="M -2.12599 225.95384 L 2.12599 225.95384 M -2.12599 258.23298 L 2.12599 258.23298 M -2.12599 290.5121 L 2.12599 290.5121 M -2.12599 322.7912 L 2.12599 322.7912 M -2.12599 355.07035 L 2.12599 355.07035 "/>
<path transform="matrix(1,0,0,-1,21.696,368.184)" stroke-width="1" stroke-linecap="butt" stroke-miterlimit="10" stroke-linejoin="miter" fill="none" stroke="#000000" d="M 0 193.67472 L 192.27735 193.67472 "/>
<path transform="matrix(1,0,0,-1,213.97335,174.50928)" d="M 1.99252 0 L -1.19551 1.59401 L 0 0 L -1.19551 -1.59401 "/>
<path transform="matrix(1,0,0,-1,21.696,368.184)" stroke-width="1" stroke-linecap="butt" stroke-miterlimit="10" stroke-linejoin="miter" fill="none" stroke="#000000" d="M 0 193.67472 L 0 353.0778 "/>
<path transform="matrix(0,-1,-1,-0,21.696,15.106201)" d="M 1.99252 0 L -1.19551 1.59401 L 0 0 L -1.19551 -1.59401 "/>
<use xlink:href="#font_2_3" transform="matrix(9.9626,0,0,-9.9626,55.413675,186.577)"/>
<symbol id="font_2_4">
<path d="M .07700001 .07700001 L .18300002 .18 C .33900003 .31800003 .39900003 .372 .39900003 .47200004 C .39900003 .586 .30900003 .666 .18700002 .666 C .074 .666 0 .574 0 .485 C 0 .42900003 .05 .42900003 .053000008 .42900003 C .07000001 .42900003 .105000007 .441 .105000007 .48200003 C .105000007 .508 .08700001 .53400006 .052000006 .53400006 C .044000005 .53400006 .042000008 .53400006 .039 .53300008 C .062000004 .59800007 .11600001 .63500007 .17400001 .63500007 C .26500003 .63500007 .308 .554 .308 .47200004 C .308 .39200003 .25800003 .31300003 .20300003 .25100003 L .011000004 .037 C 0 .026 0 .024 0 0 L .37100003 0 L .39900003 .17400001 L .374 .17400001 C .36900003 .14400001 .36200003 .1 .352 .085 C .345 .07700001 .279 .07700001 .257 .07700001 L .07700001 .07700001 Z "/>
</symbol>
<use xlink:href="#font_2_4" transform="matrix(9.9626,0,0,-9.9626,90.34613,186.577)"/>
<use xlink:href="#font_2_5" transform="matrix(9.9626,0,0,-9.9626,125.588428,186.79618)"/>
<symbol id="font_2_6">
<path d="M .266 .165 L .266 .078 C .266 .042000005 .26400004 .031000002 .19000001 .031000002 L .16900002 .031000002 L .16900002 0 C .21000001 .003 .26200003 .003 .30400003 .003 C .34600003 .003 .39900003 .003 .44000004 0 L .44000004 .031000002 L .41900004 .031000002 C .34500004 .031000002 .34300003 .042000005 .34300003 .078 L .34300003 .165 L .44300003 .165 L .44300003 .19600001 L .34300003 .19600001 L .34300003 .651 C .34300003 .671 .34300003 .67700007 .32700003 .67700007 C .31800003 .67700007 .31500004 .67700007 .307 .665 L 0 .19600001 L 0 .165 L .266 .165 M .272 .19600001 L .028 .19600001 L .272 .569 L .272 .19600001 Z "/>
</symbol>
<use xlink:href="#font_2_6" transform="matrix(9.9626,0,0,-9.9626,160.76995,186.577)"/>
<symbol id="font_2_7">
<path d="M .39900003 .223 C .39900003 .34200005 .317 .44200004 .209 .44200004 C .16100002 .44200004 .118000019 .42600004 .082 .39100004 L .082 .586 C .10200001 .58000007 .135 .573 .16700001 .573 C .29 .573 .36 .66400006 .36 .67700007 C .36 .683 .357 .688 .35 .688 C .349 .688 .347 .688 .342 .68500009 C .322 .67600008 .273 .656 .20600002 .656 C .16600001 .656 .120000008 .66300007 .073 .6840001 C .065 .68700006 .06300001 .68700006 .061000009 .68700006 C .051000004 .68700006 .051000004 .679 .051000004 .66300007 L .051000004 .36700005 C .051000004 .34900005 .051000004 .34100003 .065 .34100003 C .07200001 .34100003 .074 .34400005 .07800001 .35000003 C .08900002 .36600004 .12600002 .42000006 .207 .42000006 C .259 .42000006 .284 .37400005 .292 .35600005 C .308 .31900005 .31 .28000004 .31 .23 C .31 .19500001 .31 .135 .286 .093 C .262 .054000006 .22500001 .028 .17900002 .028 C .106000009 .028 .049000008 .08100001 .032 .14000002 C .035 .13900002 .038000008 .13800001 .049000008 .13800001 C .082 .13800001 .09900001 .163 .09900001 .187 C .09900001 .21100001 .082 .23600002 .049000008 .23600002 C .035 .23600002 0 .22900002 0 .18300002 C 0 .097 .069000009 0 .18100001 0 C .297 0 .39900003 .096 .39900003 .223 Z "/>
</symbol>
<use xlink:href="#font_2_7" transform="matrix(9.9626,0,0,-9.9626,196.31012,186.79618)"/>
<symbol id="font_2_2">
<path d="M .421 .34200005 C .421 .42200003 .416 .50200006 .381 .57600006 C .335 .67200008 .25300003 .688 .211 .688 C .15100001 .688 .07800001 .66200008 .037000006 .56900009 C .0050000029 .5 0 .42200003 0 .34200005 C 0 .26700003 .0040000008 .177 .045000007 .101 C .088 .020000002 .161 0 .21000001 0 C .264 0 .34 .021000002 .384 .116000007 C .416 .185 .421 .263 .421 .34200005 M .21000001 .022000002 C .171 .022000002 .112 .047000003 .094 .143 C .083000008 .20300001 .083000008 .29500003 .083000008 .35400004 C .083000008 .41800005 .083000008 .48400004 .091000009 .53800007 C .11 .65700009 .185 .66600009 .21000001 .66600009 C .243 .66600009 .30900003 .64800009 .328 .549 C .338 .49300004 .338 .41700004 .338 .35400004 C .338 .279 .338 .21100001 .32700003 .147 C .312 .052 .255 .022000002 .21000001 .022000002 Z "/>
</symbol>
<use xlink:href="#font_2_2" transform="matrix(9.9626,0,0,-9.9626,3.7085412,145.66217)"/>
<symbol id="font_1_1">
<path d="M .106 .053000004 C .106 .082 .08200001 .106000009 .05300001 .106000009 C .024000004 .106000009 0 .082 0 .053000004 C 0 .024 .024000004 0 .05300001 0 C .08200001 0 .106 .024 .106 .053000004 Z "/>
</symbol>
<use xlink:href="#font_1_1" transform="matrix(9.9626,0,0,-9.9626,9.158784,145.443)"/>
<use xlink:href="#font_2_7" transform="matrix(9.9626,0,0,-9.9626,11.56713,145.66217)"/>
<use xlink:href="#font_2_3" transform="matrix(9.9626,0,0,-9.9626,11.95567,113.16398)"/>
<use xlink:href="#font_2_3" transform="matrix(9.9626,0,0,-9.9626,4.206671,80.88498)"/>
<use xlink:href="#font_1_1" transform="matrix(9.9626,0,0,-9.9626,9.158784,80.88498)"/>
<use xlink:href="#font_2_7" transform="matrix(9.9626,0,0,-9.9626,11.56713,81.10416)"/>
<use xlink:href="#font_2_4" transform="matrix(9.9626,0,0,-9.9626,11.567129,48.606996)"/>
<use xlink:href="#font_2_4" transform="matrix(9.9626,0,0,-9.9626,3.8181298,16.328003)"/>
<use xlink:href="#font_1_1" transform="matrix(9.9626,0,0,-9.9626,9.158784,16.328003)"/>
<use xlink:href="#font_2_7" transform="matrix(9.9626,0,0,-9.9626,11.56713,16.54718)"/>
<use xlink:href="#font_1_3" transform="matrix(9.9626,0,0,-9.9626,219.80391,176.73558)"/>
<use xlink:href="#font_1_4" transform="matrix(9.9626,0,0,-9.9626,19.363915,9.652319)"/>
</svg>
