<?xml version="1.0" encoding="UTF-8" standalone="no"?>
<!DOCTYPE svg PUBLIC "-//W3C//DTD SVG 1.1//EN" "http://www.w3.org/Graphics/SVG/1.1/DTD/svg11.dtd">
<svg xmlns="http://www.w3.org/2000/svg" xmlns:xlink="http://www.w3.org/1999/xlink" version="1.1" width="264.702pt" height="127.636pt" viewBox="0 0 264.702 127.636">
<clipPath id="cp0">
<path transform="matrix(1,0,0,-1,8.967,112.25)" d="M 0 0 L 243.17084 0 L 243.17084 99.16858 L 0 99.16858 Z "/>
</clipPath>
<g clip-path="url(#cp0)">
<path transform="matrix(1,0,0,-1,8.967,112.25)" d="M 60.79271 59.50114 L 65.85867 60.3103 L 70.92464 61.08504 L 75.9906 61.82538 L 81.0566 62.53125 L 86.12256 63.20268 L 91.18852 63.83968 L 96.25452 64.44228 L 101.32048 65.01045 L 106.38644 65.54414 L 111.45242 66.04343 L 116.5184 66.50829 L 121.58437 66.93869 L 126.65033 67.33469 L 131.71633 67.69624 L 136.78229 68.02336 L 141.84825 68.31604 L 146.91423 68.5743 L 151.98021 68.79813 L 157.04618 68.98753 L 162.11215 69.14249 L 167.17813 69.263 L 172.2441 69.34909 L 177.31008 69.40076 L 182.37604 69.418 L 182.37604 0 L 60.79271 0 Z " fill="#cccce6"/>
<path transform="matrix(1,0,0,-1,8.967,112.25)" d="M 60.79271 9.91685 L 65.85867 10.39821 L 70.92464 11.01295 L 75.9906 11.75687 L 81.0566 12.62556 L 86.12256 13.61472 L 91.18852 14.72025 L 96.25452 15.93752 L 101.32048 17.26247 L 106.38644 18.69073 L 111.45242 20.21796 L 116.5184 21.83984 L 121.58437 23.55214 L 126.65033 25.35056 L 131.71633 27.23073 L 136.78229 29.18834 L 141.84825 31.21916 L 146.91423 33.3188 L 151.98021 35.48311 L 157.04618 37.70757 L 162.11215 39.98798 L 167.17813 42.32014 L 172.2441 44.69952 L 177.31008 47.1221 L 182.37604 49.58328 L 182.37604 0 L 60.79271 0 Z " fill="#ffffff"/>
<path transform="matrix(1,0,0,-1,8.967,112.25)" stroke-width="1.19553" stroke-linecap="butt" stroke-miterlimit="10" stroke-linejoin="miter" fill="none" stroke="#000080" d="M 0 47.10507 L 10.13206 49.5154 L 20.26414 51.788 L 30.39621 53.92287 L 40.52829 55.92001 L 50.66035 57.77943 L 60.79247 59.5011 L 70.92453 61.08504 L 81.05661 62.53125 L 91.18867 63.8397 L 101.32076 65.01047 L 111.45282 66.04347 L 121.58492 66.93874 L 131.71698 67.69627 L 141.84906 68.31609 L 151.98114 68.79816 L 162.1132 69.1425 L 172.24529 69.3491 L 182.37735 69.418 L 192.50945 69.34914 L 202.64151 69.14255 L 212.77359 68.79822 L 222.90566 68.31618 L 233.03774 67.6964 L 243.1698 66.93886 "/>
<path transform="matrix(1,0,0,-1,8.967,112.25)" stroke-width="1.19553" stroke-linecap="butt" stroke-miterlimit="10" stroke-linejoin="miter" fill="none" stroke="#800000" d="M 0 16.11488 L 10.13206 13.3889 L 20.26414 11.38602 L 30.39621 10.07181 L 40.52829 9.41182 L 50.66035 9.37164 L 60.79247 9.91684 L 70.92453 11.01295 L 81.05661 12.62556 L 91.18867 14.72025 L 101.32076 17.26254 L 111.45282 20.21802 L 121.58492 23.55234 L 131.71698 27.23099 L 141.84906 31.21942 L 151.98114 35.48355 L 162.1132 39.98857 L 172.24529 44.70016 L 182.37735 49.58392 L 192.50945 54.60541 L 202.64151 59.73027 L 212.77359 64.92398 L 222.90566 70.15204 L 233.03774 75.38019 L 243.1698 80.5739 "/>
<symbol id="font_1_3">
<path d="M .45700003 .586 C .461 .6 .461 .602 .461 .609 C .461 .62700006 .447 .63600006 .432 .63600006 C .42200003 .63600006 .40600003 .63 .397 .615 C .395 .61 .387 .579 .38300003 .561 C .37600003 .535 .36900003 .508 .363 .48100005 L .318 .301 C .314 .286 .271 .21600002 .20500002 .21600002 C .15400002 .21600002 .143 .26000003 .143 .29700003 C .143 .34300003 .16000001 .40500004 .194 .49300004 C .21000001 .53400006 .21400002 .545 .21400002 .56500008 C .21400002 .61 .18200001 .6470001 .13200002 .6470001 C .037 .6470001 0 .50200006 0 .49300004 C 0 .48300005 .01 .48300005 .012 .48300005 C .022000002 .48300005 .023 .485 .028000003 .50100007 C .055000009 .595 .095000009 .625 .12900001 .625 C .13700001 .625 .15400002 .625 .15400002 .59300008 C .15400002 .568 .14400001 .54200008 .13700001 .523 C .097 .41700004 .079 .36 .079 .31300003 C .079 .224 .142 .194 .201 .194 C .24000003 .194 .274 .21100001 .30200003 .23900002 C .289 .187 .277 .13800001 .237 .08500001 C .21100001 .051 .17300001 .022 .127 .022 C .113000009 .022 .068 .025000006 .051000008 .06400001 C .067 .06400001 .080000009 .06400001 .094000007 .076000008 C .104 .08500001 .11400001 .098000008 .11400001 .117000009 C .11400001 .148 .087000008 .15200001 .07700001 .15200001 C .054000006 .15200001 .021 .136 .021 .087000008 C .021 .037 .065000008 0 .127 0 C .23 0 .333 .091000009 .361 .20400001 L .45700003 .586 Z "/>
</symbol>
<use xlink:href="#font_1_3" transform="matrix(9.9626,0,0,-9.9626,80.457927,41.26833)" fill="#000080"/>
<symbol id="font_2_9">
<path d="M .63100007 .19400002 C .646 .19400002 .665 .19400002 .665 .214 C .665 .23400001 .646 .23400001 .632 .23400001 L .033 .23400001 C .019000002 .23400001 0 .23400001 0 .214 C 0 .19400002 .019000002 .19400002 .034 .19400002 L .63100007 .19400002 M .632 0 C .646 0 .665 0 .665 .02000001 C .665 .040000008 .646 .040000008 .63100007 .040000008 L .034 .040000008 C .019000002 .040000008 0 .040000008 0 .02000001 C 0 0 .019000002 0 .033 0 L .632 0 Z "/>
</symbol>
<use xlink:href="#font_2_9" transform="matrix(9.9626,0,0,-9.9626,88.735919,37.90097)" fill="#000080"/>
<symbol id="font_3_1">
<path d="M .57600006 0 C .59300008 0 .611 0 .611 .019999996 C .611 .040000008 .59300008 .040000008 .57600006 .040000008 L .035000005 .040000008 C .018 .040000008 0 .040000008 0 .019999996 C 0 0 .018 0 .035000005 0 L .57600006 0 Z "/>
</symbol>
<use xlink:href="#font_3_1" transform="matrix(9.9626,0,0,-9.9626,99.520908,36.9346)" fill="#000080"/>
<symbol id="font_1_2">
<path d="M .305 .31300003 C .311 .33900003 .334 .43100003 .404 .43100003 C .409 .43100003 .433 .43100003 .454 .418 C .426 .41300003 .40600003 .388 .40600003 .36400003 C .40600003 .34800003 .417 .32900004 .444 .32900004 C .46600003 .32900004 .498 .34700004 .498 .38700003 C .498 .43900005 .439 .45300005 .405 .45300005 C .347 .45300005 .312 .40000005 .3 .37700004 C .275 .44300003 .221 .45300005 .19200002 .45300005 C .08800001 .45300005 .031000002 .32400004 .031000002 .29900003 C .031000002 .28900004 .041 .28900004 .043000007 .28900004 C .051000008 .28900004 .054000006 .291 .056 .3 C .09 .40600003 .156 .43100003 .19000001 .43100003 C .209 .43100003 .244 .42200003 .244 .36400003 C .244 .33300004 .22700002 .26600004 .19000001 .126 C .17400001 .064 .13900002 .022000002 .095000009 .022000002 C .08900001 .022000002 .06600001 .022000002 .045 .035 C .07000001 .040000004 .09200001 .061 .09200001 .089 C .09200001 .116000007 .07000001 .124000009 .055000009 .124000009 C .025 .124000009 0 .098000008 0 .06600001 C 0 .020000002 .050000006 0 .094000007 0 C .16000001 0 .19600001 .07000001 .19900002 .076000008 C .21100001 .039 .24700003 0 .307 0 C .41 0 .467 .12900001 .467 .15400002 C .467 .16400002 .458 .16400002 .455 .16400002 C .446 .16400002 .444 .16000001 .442 .15300001 C .409 .046 .341 .022000002 .30900003 .022000002 C .27 .022000002 .254 .054 .254 .08800001 C .254 .11000001 .26 .13200002 .271 .17600002 L .305 .31300003 Z "/>
</symbol>
<use xlink:href="#font_1_2" transform="matrix(9.9626,0,0,-9.9626,106.731929,39.335588)" fill="#000080"/>
<symbol id="font_4_1">
<path d="M .442 .18200001 L .40800003 .18200001 C .40500004 .16000001 .39500005 .101 .38200004 .091000009 C .374 .085 .29700003 .085 .28300003 .085 L .099 .085 C .20400003 .178 .23900002 .20600002 .29900003 .25300003 C .37300004 .312 .442 .374 .442 .469 C .442 .59000006 .33600004 .66400006 .20800004 .66400006 C .084 .66400006 0 .577 0 .485 C 0 .43400003 .043000007 .42900003 .053000004 .42900003 C .077 .42900003 .10600001 .446 .10600001 .48200003 C .10600001 .5 .099 .535 .047000007 .535 C .078 .606 .146 .628 .19300002 .628 C .293 .628 .34500004 .55 .34500004 .469 C .34500004 .38200004 .28300003 .31300003 .25100003 .277 L .010000005 .039 C 0 .030000002 0 .028 0 0 L .41200004 0 L .442 .18200001 Z "/>
</symbol>
<use xlink:href="#font_4_1" transform="matrix(6.9738,0,0,-6.9738,112.576358,35.113)" fill="#000080"/>
<symbol id="font_2_1">
<path d="M .35300002 .31300003 L .632 .31300003 C .646 .31300003 .665 .31300003 .665 .333 C .665 .35300002 .646 .35300002 .632 .35300002 L .35300002 .35300002 L .35300002 .633 C .35300002 .647 .35300002 .666 .33300004 .666 C .31300003 .666 .31300003 .647 .31300003 .633 L .31300003 .35300002 L .033 .35300002 C .019000002 .35300002 0 .35300002 0 .333 C 0 .31300003 .019000002 .31300003 .033 .31300003 L .31300003 .31300003 L .31300003 .033000005 C .31300003 .019000002 .31300003 0 .33300004 0 C .35300002 0 .35300002 .019000002 .35300002 .033000005 L .35300002 .31300003 Z "/>
</symbol>
<symbol id="font_2_6">
<path d="M .266 .165 L .266 .078 C .266 .042000005 .26400004 .031000002 .19000001 .031000002 L .16900002 .031000002 L .16900002 0 C .21000001 .003 .26200003 .003 .30400003 .003 C .34600003 .003 .39900003 .003 .44000004 0 L .44000004 .031000002 L .41900004 .031000002 C .34500004 .031000002 .34300003 .042000005 .34300003 .078 L .34300003 .165 L .44300003 .165 L .44300003 .19600001 L .34300003 .19600001 L .34300003 .651 C .34300003 .671 .34300003 .67700007 .32700003 .67700007 C .31800003 .67700007 .31500004 .67700007 .307 .665 L 0 .19600001 L 0 .165 L .266 .165 M .272 .19600001 L .028 .19600001 L .272 .569 L .272 .19600001 Z "/>
</symbol>
<use xlink:href="#font_2_1" transform="matrix(9.9626,0,0,-9.9626,119.377918,40.052896)" fill="#000080"/>
<use xlink:href="#font_2_6" transform="matrix(9.9626,0,0,-9.9626,129.06154,39.225999)" fill="#000080"/>
<use xlink:href="#font_1_2" transform="matrix(9.9626,0,0,-9.9626,134.05292,39.335588)" fill="#000080"/>
<symbol id="font_2_5">
<path d="M .24800003 .37400005 C .33 .40100003 .388 .47100006 .388 .55 C .388 .632 .3 .688 .204 .688 C .10300001 .688 .027000003 .628 .027000003 .55200007 C .027000003 .519 .049000004 .5 .078 .5 C .109000008 .5 .12900001 .522 .12900001 .55100008 C .12900001 .6010001 .082 .6010001 .067 .6010001 C .098 .65000006 .164 .66300007 .20000002 .66300007 C .24100003 .66300007 .29600004 .64100006 .29600004 .55100008 C .29600004 .53900006 .29400004 .48100005 .268 .43700005 C .238 .38900004 .204 .38600005 .17900002 .38500003 C .171 .38400004 .14700002 .38200004 .14000002 .38200004 C .132 .38100005 .125 .38000003 .125 .37000004 C .125 .35900004 .132 .35900004 .14900002 .35900004 L .19300002 .35900004 C .275 .35900004 .312 .29100005 .312 .193 C .312 .057000005 .24300003 .028 .199 .028 C .15600002 .028 .081 .045 .046000005 .104 C .081 .09900001 .11200001 .12100001 .11200001 .15900001 C .11200001 .19500001 .085 .215 .056 .215 C .031999999 .215 0 .201 0 .157 C 0 .06600001 .093 0 .20200002 0 C .32400004 0 .41500003 .091000009 .41500003 .193 C .41500003 .27500005 .35200004 .35300005 .24800003 .37400005 Z "/>
</symbol>
<use xlink:href="#font_2_1" transform="matrix(9.9626,0,0,-9.9626,142.22994,40.052896)" fill="#000080"/>
<use xlink:href="#font_2_5" transform="matrix(9.9626,0,0,-9.9626,152.05304,39.445177)" fill="#000080"/>
<use xlink:href="#font_1_3" transform="matrix(9.9626,0,0,-9.9626,100.78192,107.710338)" fill="#800000"/>
<use xlink:href="#font_2_9" transform="matrix(9.9626,0,0,-9.9626,109.05991,104.34297)" fill="#800000"/>
<use xlink:href="#font_3_1" transform="matrix(9.9626,0,0,-9.9626,119.8449,103.3766)" fill="#800000"/>
<use xlink:href="#font_1_2" transform="matrix(9.9626,0,0,-9.9626,127.05592,105.77759)" fill="#800000"/>
<symbol id="font_4_2">
<path d="M .219 .35400004 C .29700003 .35400004 .35300002 .3 .35300002 .193 C .35300002 .069000009 .28100003 .032 .223 .032 C .18300002 .032 .095 .043000007 .053000008 .102000009 C .10000001 .10400001 .111 .13700001 .111 .158 C .111 .19 .087 .213 .056000007 .213 C .028 .213 0 .19600001 0 .155 C 0 .061000006 .104 0 .22500001 0 C .36400003 0 .46 .09300001 .46 .193 C .46 .27100004 .39600004 .34900005 .286 .37200005 C .39100004 .41000004 .42900003 .48500005 .42900003 .546 C .42900003 .625 .33800004 .684 .22700002 .684 C .116 .684 .031 .63 .031 .55 C .031 .51600006 .053000008 .49700005 .083000008 .49700005 C .11400001 .49700005 .134 .52 .134 .548 C .134 .577 .11400001 .598 .083000008 .6 C .118 .644 .187 .65500006 .22400002 .65500006 C .26900003 .65500006 .33200003 .633 .33200003 .546 C .33200003 .504 .31800003 .45800004 .29200004 .42700003 C .25900004 .38900004 .23100002 .38700003 .18100001 .38400004 C .156 .38200004 .154 .38200004 .149 .38100005 C .147 .38100005 .139 .37900005 .139 .36800004 C .139 .35400004 .148 .35400004 .165 .35400004 L .219 .35400004 Z "/>
</symbol>
<use xlink:href="#font_4_2" transform="matrix(6.9738,0,0,-6.9738,132.83759,101.69447)" fill="#800000"/>
<symbol id="font_2_8">
<path d="M .42000003 .63100007 C .42900003 .64300009 .42900003 .64500007 .42900003 .66600009 L .18600002 .66600009 C .064 .66600009 .062000008 .679 .058000007 .6980001 L .033 .6980001 L 0 .49200005 L .024999999 .49200005 C .028000005 .508 .037 .57100006 .050000006 .58300009 C .057000005 .58900007 .13500002 .58900007 .148 .58900007 L .35500003 .58900007 C .344 .573 .26500003 .46400006 .24300003 .43100003 C .153 .29600004 .12000001 .157 .12000001 .055 C .12000001 .045 .12000001 0 .16600001 0 C .21200001 0 .21200001 .045 .21200001 .055 L .21200001 .106000009 C .21200001 .16100002 .21500004 .216 .22300002 .27 C .22700003 .29300005 .24100003 .37900005 .28500004 .44100005 L .42000003 .63100007 Z "/>
</symbol>
<use xlink:href="#font_2_1" transform="matrix(9.9626,0,0,-9.9626,139.70192,106.494899)" fill="#800000"/>
<use xlink:href="#font_2_8" transform="matrix(9.9626,0,0,-9.9626,149.6645,105.88718)" fill="#800000"/>
<use xlink:href="#font_1_2" transform="matrix(9.9626,0,0,-9.9626,154.37693,105.77759)" fill="#800000"/>
<use xlink:href="#font_4_1" transform="matrix(6.9738,0,0,-6.9738,160.22136,101.555)" fill="#800000"/>
<use xlink:href="#font_3_1" transform="matrix(9.9626,0,0,-9.9626,167.29189,103.3766)" fill="#800000"/>
<symbol id="font_2_3">
<path d="M .205 .64000007 C .205 .66400006 .205 .666 .18200003 .666 C .120000008 .60200008 .032000007 .60200008 0 .60200008 L 0 .57100006 C .020000004 .57100006 .07900001 .57100006 .13100001 .597 L .13100001 .079 C .13100001 .043 .128 .031000002 .038000004 .031000002 L .0060000049 .031000002 L .0060000049 0 C .04100001 .003 .128 .003 .168 .003 C .20800002 .003 .29500003 .003 .33000005 0 L .33000005 .031000002 L .29800005 .031000002 C .20800002 .031000002 .205 .042000005 .205 .079 L .205 .64000007 Z "/>
</symbol>
<symbol id="font_2_2">
<path d="M .421 .34200005 C .421 .42200003 .416 .50200006 .381 .57600006 C .335 .67200008 .25300003 .688 .211 .688 C .15100001 .688 .07800001 .66200008 .037000006 .56900009 C .0050000029 .5 0 .42200003 0 .34200005 C 0 .26700003 .0040000008 .177 .045000007 .101 C .088 .020000002 .161 0 .21000001 0 C .264 0 .34 .021000002 .384 .116000007 C .416 .185 .421 .263 .421 .34200005 M .21000001 .022000002 C .171 .022000002 .112 .047000003 .094 .143 C .083000008 .20300001 .083000008 .29500003 .083000008 .35400004 C .083000008 .41800005 .083000008 .48400004 .091000009 .53800007 C .11 .65700009 .185 .66600009 .21000001 .66600009 C .243 .66600009 .30900003 .64800009 .328 .549 C .338 .49300004 .338 .41700004 .338 .35400004 C .338 .279 .338 .21100001 .32700003 .147 C .312 .052 .255 .022000002 .21000001 .022000002 Z "/>
</symbol>
<use xlink:href="#font_2_3" transform="matrix(9.9626,0,0,-9.9626,177.31468,105.668)" fill="#800000"/>
<use xlink:href="#font_2_2" transform="matrix(9.9626,0,0,-9.9626,181.79784,105.88718)" fill="#800000"/>
<use xlink:href="#font_1_2" transform="matrix(9.9626,0,0,-9.9626,186.67893,105.77759)" fill="#800000"/>
<symbol id="font_2_7">
<path d="M .39900003 .223 C .39900003 .34200005 .317 .44200004 .209 .44200004 C .16100002 .44200004 .118000019 .42600004 .082 .39100004 L .082 .586 C .10200001 .58000007 .135 .573 .16700001 .573 C .29 .573 .36 .66400006 .36 .67700007 C .36 .683 .357 .688 .35 .688 C .349 .688 .347 .688 .342 .68500009 C .322 .67600008 .273 .656 .20600002 .656 C .16600001 .656 .120000008 .66300007 .073 .6840001 C .065 .68700006 .06300001 .68700006 .061000009 .68700006 C .051000004 .68700006 .051000004 .679 .051000004 .66300007 L .051000004 .36700005 C .051000004 .34900005 .051000004 .34100003 .065 .34100003 C .07200001 .34100003 .074 .34400005 .07800001 .35000003 C .08900002 .36600004 .12600002 .42000006 .207 .42000006 C .259 .42000006 .284 .37400005 .292 .35600005 C .308 .31900005 .31 .28000004 .31 .23 C .31 .19500001 .31 .135 .286 .093 C .262 .054000006 .22500001 .028 .17900002 .028 C .106000009 .028 .049000008 .08100001 .032 .14000002 C .035 .13900002 .038000008 .13800001 .049000008 .13800001 C .082 .13800001 .09900001 .163 .09900001 .187 C .09900001 .21100001 .082 .23600002 .049000008 .23600002 C .035 .23600002 0 .22900002 0 .18300002 C 0 .097 .069000009 0 .18100001 0 C .297 0 .39900003 .096 .39900003 .223 Z "/>
</symbol>
<use xlink:href="#font_2_1" transform="matrix(9.9626,0,0,-9.9626,194.85591,106.494899)" fill="#800000"/>
<use xlink:href="#font_2_7" transform="matrix(9.9626,0,0,-9.9626,204.75875,105.88718)" fill="#800000"/>
<path transform="matrix(1,0,0,-1,8.967,112.25)" d="M 121.58542 23.55252 L 133.74396 23.55252 L 133.74396 67.8313 L 121.58542 67.8313 L 121.58542 23.55252 " fill="#bfbfbf"/>
<path transform="matrix(1,0,0,-1,8.967,112.25)" stroke-width="1" stroke-linecap="butt" stroke-miterlimit="10" stroke-linejoin="miter" fill="none" stroke="#000080" d="M 121.58542 23.55252 L 133.74396 23.55252 L 133.74396 67.8313 L 121.58542 67.8313 L 121.58542 23.55252 "/>
<path transform="matrix(1,0,0,-1,8.967,112.25)" stroke-width="1" stroke-linecap="butt" stroke-miterlimit="10" stroke-linejoin="miter" fill="none" stroke="#000000" d="M 117.13199 23.55252 C 116.38478 23.92612 115.88664 24.79787 115.88664 26.04321 L 115.88664 43.20122 C 115.88664 44.44656 115.38852 45.31833 114.6413 45.69191 C 115.38852 46.0655 115.88664 46.93726 115.88664 48.1826 L 115.88664 65.3406 C 115.88664 66.58595 116.38478 67.4577 117.13199 67.8313 "/>
<symbol id="font_1_1">
<path d="M .232 .694 C .232 .695 .232 .705 .21900001 .705 C .19600001 .705 .122999999 .697 .097 .695 C .089 .694 .077999997 .693 .077999997 .675 C .077999997 .663 .087 .663 .102 .663 C .15 .663 .15200001 .656 .15200001 .646 L .149 .626 L .0040000008 .05 C 0 .036000004 0 .034 0 .028 C 0 .005000001 .02 0 .029000003 0 C .044999999 0 .061 .012000001 .066 .026 L .08499999 .102000009 L .10699999 .19200002 C .113000009 .21400002 .119 .23600002 .124 .259 C .126 .26500003 .134 .298 .135 .30400003 C .138 .31300003 .169 .36900003 .20300001 .39600004 C .225 .41200004 .256 .43100003 .299 .43100003 C .342 .43100003 .35300002 .397 .35300002 .36100004 C .35300002 .307 .315 .19800002 .291 .13700001 C .28300003 .11400001 .278 .102000009 .278 .082 C .278 .035 .31300003 0 .36 0 C .454 0 .491 .14600002 .491 .15400002 C .491 .16400002 .482 .16400002 .47900004 .16400002 C .46900005 .16400002 .46900005 .16100002 .46400006 .14600002 C .449 .093 .41700004 .022000002 .36200003 .022000002 C .345 .022000002 .338 .032 .338 .055000005 C .338 .080000009 .347 .104 .356 .126 C .372 .16900002 .41700004 .28800003 .41700004 .34600003 C .41700004 .411 .377 .45300005 .30200003 .45300005 C .239 .45300005 .191 .42200003 .154 .37600003 L .232 .694 Z "/>
</symbol>
<use xlink:href="#font_1_1" transform="matrix(9.9626,0,0,-9.9626,115.75995,70.201587)"/>
</g>
<path transform="matrix(1,0,0,-1,8.967,112.25)" stroke-width="1" stroke-linecap="butt" stroke-miterlimit="10" stroke-linejoin="miter" fill="none" stroke="#808080" d="M 60.79271 -2.12582 L 60.79271 2.12582 M 182.37813 -2.12582 L 182.37813 2.12582 "/>
<path transform="matrix(1,0,0,-1,8.967,112.25)" stroke-width="1" stroke-linecap="butt" stroke-miterlimit="10" stroke-linejoin="miter" fill="none" stroke="#000000" d="M 0 0 L 241.17832 0 "/>
<path transform="matrix(1,0,0,-1,250.14531,112.25)" d="M 1.99252 0 L -1.19551 1.59401 L 0 0 L -1.19551 -1.59401 "/>
<path transform="matrix(1,0,0,-1,8.967,112.25)" stroke-width="1" stroke-linecap="butt" stroke-miterlimit="10" stroke-linejoin="miter" fill="none" stroke="#000000" d="M 0 0 L 0 97.17606 "/>
<path transform="matrix(0,-1,-1,-0,8.967,15.073936)" d="M 1.99252 0 L -1.19551 1.59401 L 0 0 L -1.19551 -1.59401 "/>
<use xlink:href="#font_2_3" transform="matrix(9.9626,0,0,-9.9626,68.15467,124.315)"/>
<symbol id="font_2_4">
<path d="M .07700001 .07700001 L .18300002 .18 C .33900003 .31800003 .39900003 .372 .39900003 .47200004 C .39900003 .586 .30900003 .666 .18700002 .666 C .074 .666 0 .574 0 .485 C 0 .42900003 .05 .42900003 .053000008 .42900003 C .07000001 .42900003 .105000007 .441 .105000007 .48200003 C .105000007 .508 .08700001 .53400006 .052000006 .53400006 C .044000005 .53400006 .042000008 .53400006 .039 .53300008 C .062000004 .59800007 .11600001 .63500007 .17400001 .63500007 C .26500003 .63500007 .308 .554 .308 .47200004 C .308 .39200003 .25800003 .31300003 .20300003 .25100003 L .011000004 .037 C 0 .026 0 .024 0 0 L .37100003 0 L .39900003 .17400001 L .374 .17400001 C .36900003 .14400001 .36200003 .1 .352 .085 C .345 .07700001 .279 .07700001 .257 .07700001 L .07700001 .07700001 Z "/>
</symbol>
<use xlink:href="#font_2_4" transform="matrix(9.9626,0,0,-9.9626,189.35012,124.315)"/>
<use xlink:href="#font_1_2" transform="matrix(9.9626,0,0,-9.9626,255.9769,114.503589)"/>
<use xlink:href="#font_1_3" transform="matrix(9.9626,0,0,-9.9626,6.6349155,9.652334)"/>
</svg>
