<?xml version="1.0" encoding="UTF-8" standalone="no"?>
<!DOCTYPE svg PUBLIC "-//W3C//DTD SVG 1.1//EN" "http://www.w3.org/Graphics/SVG/1.1/DTD/svg11.dtd">
<svg xmlns="http://www.w3.org/2000/svg" xmlns:xlink="http://www.w3.org/1999/xlink" version="1.1" width="228.529pt" height="189.895pt" viewBox="0 0 228.529 189.895">
<clipPath id="cp0">
<path transform="matrix(1,0,0,-1,21.696,347.43)" d="M 0 172.92401 L 194.26988 172.92401 L 194.26988 334.3198 L 0 334.3198 Z "/>
</clipPath>
<g clip-path="url(#cp0)">
<path transform="matrix(1,0,0,-1,21.696,347.43)" d="M 35.3218 172.92401 C 35.3218 172.92401 35.3282 173.76529 35.3362 174.08841 C 35.3442 174.41153 35.36345 174.92972 35.37944 175.25284 C 35.39543 175.57596 35.42752 176.09413 35.4515 176.41725 C 35.4755 176.74037 35.52042 177.25855 35.5524 177.58167 C 35.58438 177.90479 35.64214 178.42296 35.68214 178.74607 C 35.72214 179.06919 35.7927 179.58736 35.8407 179.91048 C 35.88869 180.2336 35.97209 180.75177 36.02808 181.07489 C 36.08406 181.39801 36.18031 181.91619 36.2443 182.2393 C 36.30827 182.56243 36.41731 183.0806 36.48932 183.40372 C 36.56131 183.72684 36.6832 184.24501 36.7632 184.56813 C 36.84319 184.89124 36.97789 185.40943 37.06589 185.73253 C 37.15387 186.05565 37.30142 186.57384 37.3974 186.89696 C 37.4934 187.22008 37.65378 187.73825 37.75777 188.06137 C 37.86177 188.38449 38.03496 188.90267 38.14696 189.22579 C 38.25894 189.5489 38.44496 190.06708 38.56494 190.3902 C 38.68494 190.71332 38.8838 191.23149 39.0118 191.55461 C 39.13979 191.87772 39.35149 192.39589 39.48747 192.71901 C 39.62344 193.04213 39.84796 193.5603 39.99196 193.88343 C 40.13596 194.20655 40.37329 194.72472 40.52527 195.04784 C 40.67726 195.37096 40.92744 195.88913 41.08743 196.21225 C 41.24742 196.53537 41.51042 197.05356 41.6784 197.37668 C 41.84639 197.69979 42.12222 198.21797 42.29822 198.54108 C 42.47421 198.8642 42.76286 199.38237 42.94685 199.70549 C 43.13084 200.02861 43.43233 200.54679 43.62431 200.8699 C 43.8163 201.19303 44.13062 201.7112 44.3306 202.03432 C 44.53058 202.35744 44.85774 202.87561 45.06572 203.19873 C 45.2737 203.52185 45.61368 204.04003 45.82967 204.36315 C 46.04565 204.68625 46.39847 205.20444 46.62245 205.52754 C 46.84644 205.85066 47.21208 206.36884 47.44406 206.69196 C 47.67604 207.01508 48.0545 207.53325 48.2945 207.85637 C 48.53447 208.17949 48.92577 208.69768 49.17375 209.0208 C 49.42175 209.34392 49.82587 209.86209 50.08185 210.18521 C 50.33783 210.50833 50.75478 211.0265 51.01875 211.34961 C 51.28275 211.67273 51.71251 212.1909 51.9845 212.51403 C 52.25647 212.83715 52.69908 213.35532 52.97906 213.67844 C 53.25906 214.00156 53.7145 214.51973 54.00249 214.84285 C 54.29047 215.16597 54.75873 215.68415 55.05472 216.00727 C 55.3507 216.33039 55.8318 216.84856 56.13577 217.17168 C 56.43976 217.49478 56.93369 218.01297 57.24565 218.33608 C 57.55763 218.6592 58.06438 219.17737 58.38435 219.50049 C 58.70435 219.82361 59.22394 220.3418 59.55193 220.66492 C 59.8799 220.98804 60.41231 221.50621 60.74829 221.82933 C 61.08426 222.15245 61.62952 222.67063 61.97348 222.99375 C 62.31746 223.31687 62.87553 223.83504 63.22751 224.15816 C 63.5795 224.48126 64.15038 224.99944 64.51036 225.32256 C 64.87035 225.64568 65.45409 226.16385 65.82207 226.48697 C 66.19005 226.81009 66.7866 227.32826 67.16258 227.65139 C 67.53856 227.9745 68.14793 228.49268 68.5319 228.8158 C 68.91588 229.13892 69.5381 229.65709 69.93008 229.98021 C 70.32207 230.30332 70.95708 230.8215 71.35706 231.1446 C 71.75703 231.46773 72.40495 231.9859 72.81293 232.30902 C 73.2209 232.63214 73.88159 233.15032 74.29756 233.47344 C 74.71353 233.79656 75.38705 234.31473 75.81104 234.63785 C 76.23503 234.96097 76.92145 235.47914 77.35341 235.80226 C 77.78537 236.12538 78.48444 236.64356 78.9244 236.96668 C 79.36435 237.28978 80.07639 237.80797 80.52437 238.13108 C 80.97235 238.4542 81.6972 238.97237 82.15318 239.29549 C 82.60918 239.6186 83.34685 240.13678 83.81082 240.4599 C 84.27481 240.78302 85.02528 241.3012 85.49725 241.62432 C 85.96924 241.94744 86.7326 242.4656 87.21259 242.78873 C 87.69258 243.11185 88.4687 243.63002 88.95668 243.95313 C 89.44464 244.27625 90.23363 244.79442 90.72961 245.11754 C 91.22559 245.44066 92.0274 245.95883 92.53137 246.28195 C 93.03535 246.60507 93.85002 247.12325 94.36198 247.44637 C 94.87396 247.76949 95.70137 248.28766 96.22133 248.61078 C 96.74127 248.9339 97.58157 249.45207 98.10954 249.77519 C 98.63753 250.0983 99.49068 250.6165 100.02666 250.93959 C 100.56264 251.2627 101.42862 251.78089 101.9726 252.10399 C 102.51657 252.4271 103.39536 252.94528 103.94733 253.2684 C 104.49928 253.59152 105.3909 254.1097 105.95088 254.43282 C 106.51086 254.75594 107.4153 255.27411 107.98328 255.59723 C 108.55125 255.92035 109.46852 256.4385 110.0445 256.76164 C 110.62047 257.08476 111.55057 257.6029 112.13455 257.92604 C 112.71854 258.24916 113.66147 258.76734 114.25345 259.09046 C 114.84543 259.41358 115.80124 259.93177 116.40118 260.25489 C 117.00114 260.578 117.96959 261.09617 118.57755 261.41929 C 119.18552 261.7424 120.16696 262.26057 120.78294 262.5837 C 121.39893 262.9068 122.39317 263.425 123.01714 263.7481 C 123.6411 264.0712 124.64818 264.5894 125.28015 264.9125 C 125.91212 265.23564 126.93202 265.7538 127.572 266.07695 C 128.21198 266.40007 129.24472 266.9182 129.89269 267.24134 C 130.54067 267.56446 131.58623 268.08265 132.24222 268.40577 C 132.8982 268.72889 133.95659 269.24705 134.62056 269.57017 C 135.28455 269.89326 136.35579 270.41145 137.02777 270.73457 C 137.69974 271.05769 138.7838 271.57585 139.46373 271.89897 C 140.14368 272.22209 141.24044 272.74028 141.92839 273.0634 C 142.61634 273.3865 143.72605 273.9047 144.42203 274.2278 C 145.118 274.55094 146.24053 275.0691 146.9445 275.3922 C 147.64849 275.71534 148.78385 276.2335 149.4958 276.55665 C 150.20778 276.87974 151.35599 277.3979 152.07596 277.721 C 152.79595 278.04414 153.95697 278.56233 154.68494 278.88545 C 155.41292 279.20857 156.58679 279.7267 157.32276 280.04985 C 158.05873 280.37297 159.24538 280.89115 159.98935 281.21427 C 160.73332 281.53739 161.93286 282.05558 162.68485 282.3787 C 163.43683 282.70179 164.64919 283.21998 165.40912 283.5431 C 166.16905 283.8662 167.39406 284.38438 168.162 284.7075 C 168.92995 285.0306 170.16796 285.54878 170.94393 285.8719 C 171.7199 286.195 172.97074 286.7132 173.7547 287.03633 C 174.53867 287.35945 176.5943 288.20075 176.5943 288.20075 L 176.5943 172.92401 L 35.3218 172.92401 Z " fill="#cccce6"/>
<path transform="matrix(1,0,0,-1,21.696,347.43)" stroke-width="1" stroke-linecap="butt" stroke-miterlimit="10" stroke-linejoin="miter" fill="none" stroke="#000000" d="M 35.3218 172.92401 C 35.3218 172.92401 35.3282 173.76529 35.3362 174.08841 C 35.3442 174.41153 35.36345 174.92972 35.37944 175.25284 C 35.39543 175.57596 35.42752 176.09413 35.4515 176.41725 C 35.4755 176.74037 35.52042 177.25855 35.5524 177.58167 C 35.58438 177.90479 35.64214 178.42296 35.68214 178.74607 C 35.72214 179.06919 35.7927 179.58736 35.8407 179.91048 C 35.88869 180.2336 35.97209 180.75177 36.02808 181.07489 C 36.08406 181.39801 36.18031 181.91619 36.2443 182.2393 C 36.30827 182.56243 36.41731 183.0806 36.48932 183.40372 C 36.56131 183.72684 36.6832 184.24501 36.7632 184.56813 C 36.84319 184.89124 36.97789 185.40943 37.06589 185.73253 C 37.15387 186.05565 37.30142 186.57384 37.3974 186.89696 C 37.4934 187.22008 37.65378 187.73825 37.75777 188.06137 C 37.86177 188.38449 38.03496 188.90267 38.14696 189.22579 C 38.25894 189.5489 38.44496 190.06708 38.56494 190.3902 C 38.68494 190.71332 38.8838 191.23149 39.0118 191.55461 C 39.13979 191.87772 39.35149 192.39589 39.48747 192.71901 C 39.62344 193.04213 39.84796 193.5603 39.99196 193.88343 C 40.13596 194.20655 40.37329 194.72472 40.52527 195.04784 C 40.67726 195.37096 40.92744 195.88913 41.08743 196.21225 C 41.24742 196.53537 41.51042 197.05356 41.6784 197.37668 C 41.84639 197.69979 42.12222 198.21797 42.29822 198.54108 C 42.47421 198.8642 42.76286 199.38237 42.94685 199.70549 C 43.13084 200.02861 43.43233 200.54679 43.62431 200.8699 C 43.8163 201.19303 44.13062 201.7112 44.3306 202.03432 C 44.53058 202.35744 44.85774 202.87561 45.06572 203.19873 C 45.2737 203.52185 45.61368 204.04003 45.82967 204.36315 C 46.04565 204.68625 46.39847 205.20444 46.62245 205.52754 C 46.84644 205.85066 47.21208 206.36884 47.44406 206.69196 C 47.67604 207.01508 48.0545 207.53325 48.2945 207.85637 C 48.53447 208.17949 48.92577 208.69768 49.17375 209.0208 C 49.42175 209.34392 49.82587 209.86209 50.08185 210.18521 C 50.33783 210.50833 50.75478 211.0265 51.01875 211.34961 C 51.28275 211.67273 51.71251 212.1909 51.9845 212.51403 C 52.25647 212.83715 52.69908 213.35532 52.97906 213.67844 C 53.25906 214.00156 53.7145 214.51973 54.00249 214.84285 C 54.29047 215.16597 54.75873 215.68415 55.05472 216.00727 C 55.3507 216.33039 55.8318 216.84856 56.13577 217.17168 C 56.43976 217.49478 56.93369 218.01297 57.24565 218.33608 C 57.55763 218.6592 58.06438 219.17737 58.38435 219.50049 C 58.70435 219.82361 59.22394 220.3418 59.55193 220.66492 C 59.8799 220.98804 60.41231 221.50621 60.74829 221.82933 C 61.08426 222.15245 61.62952 222.67063 61.97348 222.99375 C 62.31746 223.31687 62.87553 223.83504 63.22751 224.15816 C 63.5795 224.48126 64.15038 224.99944 64.51036 225.32256 C 64.87035 225.64568 65.45409 226.16385 65.82207 226.48697 C 66.19005 226.81009 66.7866 227.32826 67.16258 227.65139 C 67.53856 227.9745 68.14793 228.49268 68.5319 228.8158 C 68.91588 229.13892 69.5381 229.65709 69.93008 229.98021 C 70.32207 230.30332 70.95708 230.8215 71.35706 231.1446 C 71.75703 231.46773 72.40495 231.9859 72.81293 232.30902 C 73.2209 232.63214 73.88159 233.15032 74.29756 233.47344 C 74.71353 233.79656 75.38705 234.31473 75.81104 234.63785 C 76.23503 234.96097 76.92145 235.47914 77.35341 235.80226 C 77.78537 236.12538 78.48444 236.64356 78.9244 236.96668 C 79.36435 237.28978 80.07639 237.80797 80.52437 238.13108 C 80.97235 238.4542 81.6972 238.97237 82.15318 239.29549 C 82.60918 239.6186 83.34685 240.13678 83.81082 240.4599 C 84.27481 240.78302 85.02528 241.3012 85.49725 241.62432 C 85.96924 241.94744 86.7326 242.4656 87.21259 242.78873 C 87.69258 243.11185 88.4687 243.63002 88.95668 243.95313 C 89.44464 244.27625 90.23363 244.79442 90.72961 245.11754 C 91.22559 245.44066 92.0274 245.95883 92.53137 246.28195 C 93.03535 246.60507 93.85002 247.12325 94.36198 247.44637 C 94.87396 247.76949 95.70137 248.28766 96.22133 248.61078 C 96.74127 248.9339 97.58157 249.45207 98.10954 249.77519 C 98.63753 250.0983 99.49068 250.6165 100.02666 250.93959 C 100.56264 251.2627 101.42862 251.78089 101.9726 252.10399 C 102.51657 252.4271 103.39536 252.94528 103.94733 253.2684 C 104.49928 253.59152 105.3909 254.1097 105.95088 254.43282 C 106.51086 254.75594 107.4153 255.27411 107.98328 255.59723 C 108.55125 255.92035 109.46852 256.4385 110.0445 256.76164 C 110.62047 257.08476 111.55057 257.6029 112.13455 257.92604 C 112.71854 258.24916 113.66147 258.76734 114.25345 259.09046 C 114.84543 259.41358 115.80124 259.93177 116.40118 260.25489 C 117.00114 260.578 117.96959 261.09617 118.57755 261.41929 C 119.18552 261.7424 120.16696 262.26057 120.78294 262.5837 C 121.39893 262.9068 122.39317 263.425 123.01714 263.7481 C 123.6411 264.0712 124.64818 264.5894 125.28015 264.9125 C 125.91212 265.23564 126.93202 265.7538 127.572 266.07695 C 128.21198 266.40007 129.24472 266.9182 129.89269 267.24134 C 130.54067 267.56446 131.58623 268.08265 132.24222 268.40577 C 132.8982 268.72889 133.95659 269.24705 134.62056 269.57017 C 135.28455 269.89326 136.35579 270.41145 137.02777 270.73457 C 137.69974 271.05769 138.7838 271.57585 139.46373 271.89897 C 140.14368 272.22209 141.24044 272.74028 141.92839 273.0634 C 142.61634 273.3865 143.72605 273.9047 144.42203 274.2278 C 145.118 274.55094 146.24053 275.0691 146.9445 275.3922 C 147.64849 275.71534 148.78385 276.2335 149.4958 276.55665 C 150.20778 276.87974 151.35599 277.3979 152.07596 277.721 C 152.79595 278.04414 153.95697 278.56233 154.68494 278.88545 C 155.41292 279.20857 156.58679 279.7267 157.32276 280.04985 C 158.05873 280.37297 159.24538 280.89115 159.98935 281.21427 C 160.73332 281.53739 161.93286 282.05558 162.68485 282.3787 C 163.43683 282.70179 164.64919 283.21998 165.40912 283.5431 C 166.16905 283.8662 167.39406 284.38438 168.162 284.7075 C 168.92995 285.0306 170.16796 285.54878 170.94393 285.8719 C 171.7199 286.195 172.97074 286.7132 173.7547 287.03633 C 174.53867 287.35945 176.5943 288.20075 176.5943 288.20075 L 176.5943 172.92401 L 35.3218 172.92401 Z "/>
<path transform="matrix(1,0,0,-1,21.696,347.43)" d="M 0 0 L 7.65302 12.4889 L 15.30606 24.97781 L 22.95909 37.46672 L 30.6121 49.95566 L 38.26515 62.44458 L 45.91818 74.93349 L 53.5712 87.42241 L 61.22424 99.91132 L 68.87727 112.40024 L 76.53029 124.88916 L 84.18333 137.37807 L 91.83636 149.86699 L 99.48938 162.35591 L 107.14243 174.84482 L 114.79546 187.33374 L 122.44847 199.82266 L 130.10152 212.31157 L 137.75455 224.80048 L 145.40756 237.28942 L 153.06061 249.77832 L 160.71364 262.26725 L 168.36667 274.75617 L 176.0197 287.24507 L 183.67273 299.73399 L 183.67273 172.92401 L 0 172.92401 Z " fill="#ffffff"/>
<path transform="matrix(1,0,0,-1,21.696,347.43)" stroke-width="1.19553" stroke-linecap="butt" stroke-miterlimit="10" stroke-linejoin="miter" fill="none" stroke="#800000" d="M 35.3218 172.92401 C 35.3218 172.92401 35.33623 174.18596 35.35422 174.67066 C 35.3722 175.15534 35.41551 175.93262 35.4515 176.4173 C 35.4875 176.90198 35.5597 177.67928 35.61368 178.16396 C 35.66768 178.64864 35.7687 179.42592 35.84071 179.9106 C 35.9127 180.3953 36.0426 181.17256 36.1326 181.65724 C 36.2226 182.14194 36.38136 182.9192 36.48936 183.4039 C 36.59735 183.88858 36.78499 184.66587 36.911 185.15055 C 37.03699 185.63523 37.2535 186.4125 37.39748 186.89719 C 37.54147 187.38187 37.78685 188.15915 37.94884 188.64383 C 38.11084 189.12853 38.38509 189.90579 38.56506 190.39049 C 38.74506 190.87517 39.04817 191.65245 39.24617 192.13713 C 39.44415 192.62181 39.77612 193.3991 39.99211 193.88378 C 40.2081 194.36846 40.56895 195.14574 40.80293 195.63042 C 41.03693 196.11511 41.42664 196.89238 41.67862 197.37708 C 41.9306 197.86176 42.3492 198.63903 42.61919 199.12372 C 42.88916 199.6084 43.33661 200.38568 43.62459 200.87036 C 43.91258 201.35504 44.38889 202.13233 44.69487 202.617 C 45.00085 203.10169 45.50604 203.87897 45.83002 204.36365 C 46.154 204.84835 46.68803 205.62561 47.03003 206.1103 C 47.37204 206.59499 47.93492 207.37227 48.29492 207.85695 C 48.6549 208.34163 49.24666 209.11891 49.62466 209.60359 C 50.00266 210.08827 50.62329 210.86557 51.01929 211.35025 C 51.41528 211.83495 52.06476 212.61222 52.47876 213.09691 C 52.89275 213.58159 53.5711 214.35886 54.0031 214.84355 C 54.4351 215.32823 55.14232 216.10552 55.59232 216.5902 C 56.04231 217.07488 56.7784 217.85216 57.24638 218.33684 C 57.71439 218.82154 58.47932 219.5988 58.96532 220.08348 C 59.45131 220.56818 60.24515 221.34545 60.74913 221.83014 C 61.25313 222.31482 62.0758 223.0921 62.59781 223.57678 C 63.1198 224.06147 63.97134 224.83875 64.51134 225.32343 C 65.05133 225.8081 65.93176 226.58539 66.48975 227.07007 C 67.04774 227.55477 67.95703 228.33203 68.53302 228.81673 C 69.10901 229.3014 70.04716 230.07869 70.64116 230.56337 C 71.23514 231.04805 72.20212 231.82534 72.8141 232.31002 C 73.4261 232.7947 74.42201 233.57198 75.052 234.05666 C 75.682 234.54135 76.70682 235.31862 77.3548 235.8033 C 78.00279 236.288 79.05635 237.06526 79.72234 237.54996 C 80.3883 238.03464 81.4708 238.81192 82.1548 239.2966 C 82.83879 239.78128 83.95018 240.55857 84.65216 241.04325 C 85.35414 241.52793 86.49426 242.3052 87.21426 242.78989 C 87.93425 243.27458 89.1034 244.05185 89.8414 244.53655 C 90.57942 245.02123 91.77733 245.79851 92.53333 246.28319 C 93.28932 246.76787 94.51614 247.54515 95.29015 248.02983 C 96.06413 248.51451 97.31976 249.2918 98.11176 249.77648 C 98.90375 250.26117 100.1883 251.03844 100.9983 251.52313 C 101.8083 252.00782 103.12177 252.78508 103.94974 253.26978 C 104.77771 253.75446 106.11987 254.53174 106.96585 255.01642 C 107.81183 255.5011 109.18303 256.27839 110.04704 256.76307 C 110.91104 257.24775 112.31107 258.02503 113.19304 258.5097 C 114.07501 258.9944 115.50378 259.77168 116.40378 260.25636 C 117.30376 260.74104 118.76155 261.51835 119.67958 262.003 C 120.5976 262.4877 122.08421 263.26499 123.0202 263.74967 C 123.9562 264.23435 125.47171 265.0116 126.42567 265.49629 C 127.37965 265.981 128.92389 266.75828 129.89586 267.24296 C 130.86785 267.72764 132.4411 268.5049 133.43112 268.9896 C 134.42113 269.47428 136.02324 270.25157 137.03122 270.73625 C 138.0392 271.22093 139.67 271.9982 140.69597 272.48289 C 141.72196 272.9676 143.38185 273.74485 144.42586 274.22953 C 145.46987 274.71424 147.15854 275.4915 148.22052 275.97618 C 149.28249 276.46086 150.99993 277.23814 152.0799 277.7228 C 153.15988 278.2075 154.90633 278.9848 156.00434 279.46949 C 157.10234 279.95417 158.87763 280.7314 159.9936 281.2161 C 161.10959 281.7008 162.91358 282.47807 164.04756 282.96278 C 165.18157 283.44746 167.01464 284.22474 168.16663 284.7094 C 169.31864 285.1941 171.18047 285.97138 172.35048 286.45606 C 173.52048 286.94075 175.41127 287.71803 176.59926 288.2027 C 177.78725 288.6874 179.70671 289.46467 180.91269 289.94935 C 182.11865 290.43406 184.06713 291.2113 185.29116 291.696 C 186.51517 292.1807 188.49257 292.95796 189.73456 293.44264 C 190.97655 293.9273 192.98258 294.7046 194.24254 295.1893 C 195.50252 295.67399 197.53762 296.45127 198.81563 296.93595 C 200.09365 297.42063 202.15763 298.19789 203.4536 298.6826 C 204.74959 299.16728 206.84224 299.94456 208.15622 300.42924 C 209.47019 300.9139 211.59186 301.6912 212.92388 302.17588 C 214.25589 302.66056 216.40647 303.43785 217.75647 303.92253 C 219.10649 304.4072 221.28589 305.18449 222.65386 305.66917 C 224.02182 306.15385 226.22994 306.93113 227.61592 307.41584 C 229.00189 307.9005 231.23908 308.67778 232.64308 309.16246 C 234.0471 309.64714 236.31317 310.4244 237.73514 310.9091 C 239.15712 311.39378 241.4518 312.17109 242.89177 312.65577 C 244.33176 313.14045 246.6555 313.91773 248.11351 314.4024 C 249.5715 314.8871 251.92417 315.66438 253.40015 316.14906 C 254.87612 316.63374 257.25743 317.411 258.7514 317.8957 C 260.24537 318.38038 262.65577 319.15766 264.16777 319.64234 C 265.67976 320.12705 268.11894 320.9043 269.64894 321.38899 C 271.17897 321.87367 273.64707 322.65095 275.195 323.13566 C 276.743 323.62034 279.23976 324.3976 280.80574 324.8823 C 282.3717 325.36698 284.89756 326.14424 286.48155 326.6289 C 288.06559 327.11363 290.62028 327.89088 292.22227 328.37556 C 293.82423 328.86024 296.40757 329.6375 298.02754 330.12223 C 299.64753 330.6069 302.25996 331.38417 303.89796 331.86885 C 305.53599 332.35353 308.17723 333.1308 309.83326 333.6155 C 311.48927 334.10017 314.15946 334.87748 315.83345 335.36216 C 317.5074 335.84684 320.20619 336.6241 321.89817 337.1088 C 323.59013 337.59349 326.31806 338.37074 328.02806 338.85545 C 329.73808 339.34013 332.49485 340.1174 334.22279 340.60209 C 335.95075 341.08677 338.7361 341.86405 340.4821 342.34873 C 342.22807 342.83345 345.04258 343.6107 346.8066 344.09538 C 348.57063 344.58006 353.19599 345.84205 353.19599 345.84205 "/>
<path transform="matrix(1,0,0,-1,21.696,347.43)" stroke-width="1.19553" stroke-linecap="butt" stroke-miterlimit="10" stroke-linejoin="miter" fill="none" stroke="#000080" d="M 0 0 C 0 0 5.84834 9.54385 8.09454 13.20941 C 10.34074 16.87498 13.9429 22.7533 16.1891 26.41885 C 18.43529 30.08441 22.03745 35.96272 24.28365 39.62828 C 26.52985 43.29384 30.132 49.17216 32.3782 52.83772 C 34.6244 56.50328 38.22655 62.3816 40.47275 66.04716 C 42.71895 69.71272 46.3211 75.59102 48.5673 79.25659 C 50.8135 82.92215 54.41566 88.80046 56.66187 92.46602 C 58.90807 96.13159 62.51022 102.00989 64.75642 105.67545 C 67.00262 109.34102 70.60478 115.21933 72.85097 118.88489 C 75.09717 122.55045 78.69933 128.42877 80.94553 132.09433 C 83.19173 135.75989 86.79388 141.6382 89.04008 145.30376 C 91.28627 148.96932 94.88843 154.84763 97.13463 158.5132 C 99.38083 162.17876 102.98299 168.05706 105.22919 171.72263 C 107.47539 175.38819 111.07753 181.2665 113.32373 184.93206 C 115.56993 188.59763 119.17209 194.47592 121.41829 198.14148 C 123.66449 201.80706 127.26663 207.68537 129.51284 211.35092 C 131.75904 215.01648 135.36119 220.89479 137.60739 224.56035 C 139.85359 228.2259 143.45575 234.10424 145.70195 237.76979 C 147.94815 241.43535 151.55031 247.31366 153.79651 250.97924 C 156.04271 254.64479 159.64487 260.5231 161.89105 264.18867 C 164.13726 267.85423 167.73941 273.73255 169.98561 277.3981 C 172.23181 281.06367 175.83397 286.94197 178.08017 290.6075 C 180.32636 294.2731 183.92852 300.1514 186.17472 303.81697 C 188.42092 307.4825 194.26927 317.02638 194.26927 317.02638 "/>
<symbol id="font_1_3">
<path d="M .45700003 .586 C .461 .6 .461 .602 .461 .609 C .461 .62700006 .447 .63600006 .432 .63600006 C .42200003 .63600006 .40600003 .63 .397 .615 C .395 .61 .387 .579 .38300003 .561 C .37600003 .535 .36900003 .508 .363 .48100005 L .318 .301 C .314 .286 .271 .21600002 .20500002 .21600002 C .15400002 .21600002 .143 .26000003 .143 .29700003 C .143 .34300003 .16000001 .40500004 .194 .49300004 C .21000001 .53400006 .21400002 .545 .21400002 .56500008 C .21400002 .61 .18200001 .6470001 .13200002 .6470001 C .037 .6470001 0 .50200006 0 .49300004 C 0 .48300005 .01 .48300005 .012 .48300005 C .022000002 .48300005 .023 .485 .028000003 .50100007 C .055000009 .595 .095000009 .625 .12900001 .625 C .13700001 .625 .15400002 .625 .15400002 .59300008 C .15400002 .568 .14400001 .54200008 .13700001 .523 C .097 .41700004 .079 .36 .079 .31300003 C .079 .224 .142 .194 .201 .194 C .24000003 .194 .274 .21100001 .30200003 .23900002 C .289 .187 .277 .13800001 .237 .08500001 C .21100001 .051 .17300001 .022 .127 .022 C .113000009 .022 .068 .025000006 .051000008 .06400001 C .067 .06400001 .080000009 .06400001 .094000007 .076000008 C .104 .08500001 .11400001 .098000008 .11400001 .117000009 C .11400001 .148 .087000008 .15200001 .07700001 .15200001 C .054000006 .15200001 .021 .136 .021 .087000008 C .021 .037 .065000008 0 .127 0 C .23 0 .333 .091000009 .361 .20400001 L .45700003 .586 Z "/>
</symbol>
<use xlink:href="#font_1_3" transform="matrix(9.9626,0,0,-9.9626,67.78792,93.67632)" fill="#800000"/>
<symbol id="font_2_7">
<path d="M .63100007 .19400002 C .646 .19400002 .665 .19400002 .665 .214 C .665 .23400001 .646 .23400001 .632 .23400001 L .033 .23400001 C .019000002 .23400001 0 .23400001 0 .214 C 0 .19400002 .019000002 .19400002 .034 .19400002 L .63100007 .19400002 M .632 0 C .646 0 .665 0 .665 .02000001 C .665 .040000008 .646 .040000008 .63100007 .040000008 L .034 .040000008 C .019000002 .040000008 0 .040000008 0 .02000001 C 0 0 .019000002 0 .033 0 L .632 0 Z "/>
</symbol>
<use xlink:href="#font_2_7" transform="matrix(9.9626,0,0,-9.9626,76.06691,90.30896)" fill="#800000"/>
<symbol id="font_3_2">
<path d="M .316 .10500002 L .14000002 .49400003 C .13300002 .51 .12799999 .51 .125 .51 C .124000009 .51 .118999999 .51 .108 .502 L .012999997 .43 C 0 .42000003 0 .417 0 .41400004 C 0 .40900005 .0029999987 .403 .009999998 .403 C .015999996 .403 .033 .417 .044 .425 C .049999998 .43 .065000008 .44099999 .076 .449 L .273 .015999973 C .28 0 .285 0 .294 0 C .30900003 0 .312 .0059999825 .319 .01999998 L .773 .96000006 C .78000006 .97400006 .78000006 .97800007 .78000006 .98 C .78000006 .99 .772 1 .76000007 1 C .75200006 1 .745 .99500009 .73700007 .97900006 L .316 .10500002 Z "/>
</symbol>
<use xlink:href="#font_3_2" transform="matrix(9.9626,0,0,-9.9626,86.75227,92.88508)" fill="#800000"/>
<path transform="matrix(1,0,0,-1,94.327,83.12199)" stroke-width="1" stroke-linecap="butt" stroke-miterlimit="10" stroke-linejoin="miter" fill="none" stroke="#800000" d="M 0 0 L 22.852 0 "/>
<symbol id="font_1_2">
<path d="M .305 .31300003 C .311 .33900003 .334 .43100003 .404 .43100003 C .409 .43100003 .433 .43100003 .454 .418 C .426 .41300003 .40600003 .388 .40600003 .36400003 C .40600003 .34800003 .417 .32900004 .444 .32900004 C .46600003 .32900004 .498 .34700004 .498 .38700003 C .498 .43900005 .439 .45300005 .405 .45300005 C .347 .45300005 .312 .40000005 .3 .37700004 C .275 .44300003 .221 .45300005 .19200002 .45300005 C .08800001 .45300005 .031000002 .32400004 .031000002 .29900003 C .031000002 .28900004 .041 .28900004 .043000007 .28900004 C .051000008 .28900004 .054000006 .291 .056 .3 C .09 .40600003 .156 .43100003 .19000001 .43100003 C .209 .43100003 .244 .42200003 .244 .36400003 C .244 .33300004 .22700002 .26600004 .19000001 .126 C .17400001 .064 .13900002 .022000002 .095000009 .022000002 C .08900001 .022000002 .06600001 .022000002 .045 .035 C .07000001 .040000004 .09200001 .061 .09200001 .089 C .09200001 .116000007 .07000001 .124000009 .055000009 .124000009 C .025 .124000009 0 .098000008 0 .06600001 C 0 .020000002 .050000006 0 .094000007 0 C .16000001 0 .19600001 .07000001 .19900002 .076000008 C .21100001 .039 .24700003 0 .307 0 C .41 0 .467 .12900001 .467 .15400002 C .467 .16400002 .458 .16400002 .455 .16400002 C .446 .16400002 .444 .16000001 .442 .15300001 C .409 .046 .341 .022000002 .30900003 .022000002 C .27 .022000002 .254 .054 .254 .08800001 C .254 .11000001 .26 .13200002 .271 .17600002 L .305 .31300003 Z "/>
</symbol>
<use xlink:href="#font_1_2" transform="matrix(9.9626,0,0,-9.9626,94.61592,91.743579)" fill="#800000"/>
<symbol id="font_3_1">
<path d="M .57600006 0 C .59300008 0 .611 0 .611 .019999996 C .611 .040000008 .59300008 .040000008 .57600006 .040000008 L .035000005 .040000008 C .018 .040000008 0 .040000008 0 .019999996 C 0 0 .018 0 .035000005 0 L .57600006 0 Z "/>
</symbol>
<use xlink:href="#font_3_1" transform="matrix(9.9626,0,0,-9.9626,103.0619,89.34259)" fill="#800000"/>
<symbol id="font_2_2">
<path d="M .205 .64000007 C .205 .66400006 .205 .666 .18200003 .666 C .120000008 .60200008 .032000007 .60200008 0 .60200008 L 0 .57100006 C .020000004 .57100006 .07900001 .57100006 .13100001 .597 L .13100001 .079 C .13100001 .043 .128 .031000002 .038000004 .031000002 L .0060000049 .031000002 L .0060000049 0 C .04100001 .003 .128 .003 .168 .003 C .20800002 .003 .29500003 .003 .33000005 0 L .33000005 .031000002 L .29800005 .031000002 C .20800002 .031000002 .205 .042000005 .205 .079 L .205 .64000007 Z "/>
</symbol>
<use xlink:href="#font_2_2" transform="matrix(9.9626,0,0,-9.9626,113.08367,91.63399)" fill="#800000"/>
<use xlink:href="#font_1_3" transform="matrix(9.9626,0,0,-9.9626,160.2429,138.44432)" fill="#000080"/>
<use xlink:href="#font_2_7" transform="matrix(9.9626,0,0,-9.9626,168.5209,135.07697)" fill="#000080"/>
<use xlink:href="#font_1_2" transform="matrix(9.9626,0,0,-9.9626,178.76792,136.51158)" fill="#000080"/>
<use xlink:href="#font_3_1" transform="matrix(9.9626,0,0,-9.9626,187.2139,134.1106)" fill="#000080"/>
<symbol id="font_2_4">
<path d="M .24800003 .37400005 C .33 .40100003 .388 .47100006 .388 .55 C .388 .632 .3 .688 .204 .688 C .10300001 .688 .027000003 .628 .027000003 .55200007 C .027000003 .519 .049000004 .5 .078 .5 C .109000008 .5 .12900001 .522 .12900001 .55100008 C .12900001 .6010001 .082 .6010001 .067 .6010001 C .098 .65000006 .164 .66300007 .20000002 .66300007 C .24100003 .66300007 .29600004 .64100006 .29600004 .55100008 C .29600004 .53900006 .29400004 .48100005 .268 .43700005 C .238 .38900004 .204 .38600005 .17900002 .38500003 C .171 .38400004 .14700002 .38200004 .14000002 .38200004 C .132 .38100005 .125 .38000003 .125 .37000004 C .125 .35900004 .132 .35900004 .14900002 .35900004 L .19300002 .35900004 C .275 .35900004 .312 .29100005 .312 .193 C .312 .057000005 .24300003 .028 .199 .028 C .15600002 .028 .081 .045 .046000005 .104 C .081 .09900001 .11200001 .12100001 .11200001 .15900001 C .11200001 .19500001 .085 .215 .056 .215 C .031999999 .215 0 .201 0 .157 C 0 .06600001 .093 0 .20200002 0 C .32400004 0 .41500003 .091000009 .41500003 .193 C .41500003 .27500005 .35200004 .35300005 .24800003 .37400005 Z "/>
</symbol>
<use xlink:href="#font_2_4" transform="matrix(9.9626,0,0,-9.9626,196.76844,136.62117)" fill="#000080"/>
</g>
<path transform="matrix(1,0,0,-1,21.696,347.43)" stroke-width="1" stroke-linecap="butt" stroke-miterlimit="10" stroke-linejoin="miter" fill="none" stroke="#808080" d="M 35.3218 170.79802 L 35.3218 175.05 M 70.64359 170.79802 L 70.64359 175.05 M 105.96538 170.79802 L 105.96538 175.05 M 141.28719 170.79802 L 141.28719 175.05 M 176.60898 170.79802 L 176.60898 175.05 "/>
<path transform="matrix(1,0,0,-1,21.696,347.43)" stroke-width="1" stroke-linecap="butt" stroke-miterlimit="10" stroke-linejoin="miter" fill="none" stroke="#808080" d="M -2.12599 201.74469 L 2.12599 201.74469 M -2.12599 230.56536 L 2.12599 230.56536 M -2.12599 259.38603 L 2.12599 259.38603 M -2.12599 288.2067 L 2.12599 288.2067 M -2.12599 317.02738 L 2.12599 317.02738 "/>
<path transform="matrix(1,0,0,-1,21.696,347.43)" stroke-width="1" stroke-linecap="butt" stroke-miterlimit="10" stroke-linejoin="miter" fill="none" stroke="#000000" d="M 0 172.92401 L 192.27735 172.92401 "/>
<path transform="matrix(1,0,0,-1,213.97335,174.50598)" d="M 1.99252 0 L -1.19551 1.59401 L 0 0 L -1.19551 -1.59401 "/>
<path transform="matrix(1,0,0,-1,21.696,347.43)" stroke-width="1" stroke-linecap="butt" stroke-miterlimit="10" stroke-linejoin="miter" fill="none" stroke="#000000" d="M 0 172.92401 L 0 332.32728 "/>
<path transform="matrix(0,-1,-1,-0,21.696,15.102722)" d="M 1.99252 0 L -1.19551 1.59401 L 0 0 L -1.19551 -1.59401 "/>
<use xlink:href="#font_2_2" transform="matrix(9.9626,0,0,-9.9626,55.413675,186.57399)"/>
<symbol id="font_2_3">
<path d="M .07700001 .07700001 L .18300002 .18 C .33900003 .31800003 .39900003 .372 .39900003 .47200004 C .39900003 .586 .30900003 .666 .18700002 .666 C .074 .666 0 .574 0 .485 C 0 .42900003 .05 .42900003 .053000008 .42900003 C .07000001 .42900003 .105000007 .441 .105000007 .48200003 C .105000007 .508 .08700001 .53400006 .052000006 .53400006 C .044000005 .53400006 .042000008 .53400006 .039 .53300008 C .062000004 .59800007 .11600001 .63500007 .17400001 .63500007 C .26500003 .63500007 .308 .554 .308 .47200004 C .308 .39200003 .25800003 .31300003 .20300003 .25100003 L .011000004 .037 C 0 .026 0 .024 0 0 L .37100003 0 L .39900003 .17400001 L .374 .17400001 C .36900003 .14400001 .36200003 .1 .352 .085 C .345 .07700001 .279 .07700001 .257 .07700001 L .07700001 .07700001 Z "/>
</symbol>
<use xlink:href="#font_2_3" transform="matrix(9.9626,0,0,-9.9626,90.34613,186.57399)"/>
<use xlink:href="#font_2_4" transform="matrix(9.9626,0,0,-9.9626,125.588428,186.79317)"/>
<symbol id="font_2_5">
<path d="M .266 .165 L .266 .078 C .266 .042000005 .26400004 .031000002 .19000001 .031000002 L .16900002 .031000002 L .16900002 0 C .21000001 .003 .26200003 .003 .30400003 .003 C .34600003 .003 .39900003 .003 .44000004 0 L .44000004 .031000002 L .41900004 .031000002 C .34500004 .031000002 .34300003 .042000005 .34300003 .078 L .34300003 .165 L .44300003 .165 L .44300003 .19600001 L .34300003 .19600001 L .34300003 .651 C .34300003 .671 .34300003 .67700007 .32700003 .67700007 C .31800003 .67700007 .31500004 .67700007 .307 .665 L 0 .19600001 L 0 .165 L .266 .165 M .272 .19600001 L .028 .19600001 L .272 .569 L .272 .19600001 Z "/>
</symbol>
<use xlink:href="#font_2_5" transform="matrix(9.9626,0,0,-9.9626,160.76995,186.57399)"/>
<symbol id="font_2_6">
<path d="M .39900003 .223 C .39900003 .34200005 .317 .44200004 .209 .44200004 C .16100002 .44200004 .118000019 .42600004 .082 .39100004 L .082 .586 C .10200001 .58000007 .135 .573 .16700001 .573 C .29 .573 .36 .66400006 .36 .67700007 C .36 .683 .357 .688 .35 .688 C .349 .688 .347 .688 .342 .68500009 C .322 .67600008 .273 .656 .20600002 .656 C .16600001 .656 .120000008 .66300007 .073 .6840001 C .065 .68700006 .06300001 .68700006 .061000009 .68700006 C .051000004 .68700006 .051000004 .679 .051000004 .66300007 L .051000004 .36700005 C .051000004 .34900005 .051000004 .34100003 .065 .34100003 C .07200001 .34100003 .074 .34400005 .07800001 .35000003 C .08900002 .36600004 .12600002 .42000006 .207 .42000006 C .259 .42000006 .284 .37400005 .292 .35600005 C .308 .31900005 .31 .28000004 .31 .23 C .31 .19500001 .31 .135 .286 .093 C .262 .054000006 .22500001 .028 .17900002 .028 C .106000009 .028 .049000008 .08100001 .032 .14000002 C .035 .13900002 .038000008 .13800001 .049000008 .13800001 C .082 .13800001 .09900001 .163 .09900001 .187 C .09900001 .21100001 .082 .23600002 .049000008 .23600002 C .035 .23600002 0 .22900002 0 .18300002 C 0 .097 .069000009 0 .18100001 0 C .297 0 .39900003 .096 .39900003 .223 Z "/>
</symbol>
<use xlink:href="#font_2_6" transform="matrix(9.9626,0,0,-9.9626,196.31012,186.79317)"/>
<symbol id="font_2_1">
<path d="M .421 .34200005 C .421 .42200003 .416 .50200006 .381 .57600006 C .335 .67200008 .25300003 .688 .211 .688 C .15100001 .688 .07800001 .66200008 .037000006 .56900009 C .0050000029 .5 0 .42200003 0 .34200005 C 0 .26700003 .0040000008 .177 .045000007 .101 C .088 .020000002 .161 0 .21000001 0 C .264 0 .34 .021000002 .384 .116000007 C .416 .185 .421 .263 .421 .34200005 M .21000001 .022000002 C .171 .022000002 .112 .047000003 .094 .143 C .083000008 .20300001 .083000008 .29500003 .083000008 .35400004 C .083000008 .41800005 .083000008 .48400004 .091000009 .53800007 C .11 .65700009 .185 .66600009 .21000001 .66600009 C .243 .66600009 .30900003 .64800009 .328 .549 C .338 .49300004 .338 .41700004 .338 .35400004 C .338 .279 .338 .21100001 .32700003 .147 C .312 .052 .255 .022000002 .21000001 .022000002 Z "/>
</symbol>
<use xlink:href="#font_2_1" transform="matrix(9.9626,0,0,-9.9626,3.7085412,149.11716)"/>
<symbol id="font_1_1">
<path d="M .106 .053000004 C .106 .082 .08200001 .106000009 .05300001 .106000009 C .024000004 .106000009 0 .082 0 .053000004 C 0 .024 .024000004 0 .05300001 0 C .08200001 0 .106 .024 .106 .053000004 Z "/>
</symbol>
<use xlink:href="#font_1_1" transform="matrix(9.9626,0,0,-9.9626,9.158784,148.89798)"/>
<use xlink:href="#font_2_6" transform="matrix(9.9626,0,0,-9.9626,11.56713,149.11716)"/>
<use xlink:href="#font_2_2" transform="matrix(9.9626,0,0,-9.9626,11.95567,120.07799)"/>
<use xlink:href="#font_2_2" transform="matrix(9.9626,0,0,-9.9626,4.206671,91.25799)"/>
<use xlink:href="#font_1_1" transform="matrix(9.9626,0,0,-9.9626,9.158784,91.25799)"/>
<use xlink:href="#font_2_6" transform="matrix(9.9626,0,0,-9.9626,11.56713,91.477169)"/>
<use xlink:href="#font_2_3" transform="matrix(9.9626,0,0,-9.9626,11.567129,62.43699)"/>
<use xlink:href="#font_2_3" transform="matrix(9.9626,0,0,-9.9626,3.8181298,33.617006)"/>
<use xlink:href="#font_1_1" transform="matrix(9.9626,0,0,-9.9626,9.158784,33.617006)"/>
<use xlink:href="#font_2_6" transform="matrix(9.9626,0,0,-9.9626,11.56713,33.83618)"/>
<use xlink:href="#font_1_2" transform="matrix(9.9626,0,0,-9.9626,219.80391,176.73558)"/>
<use xlink:href="#font_1_3" transform="matrix(9.9626,0,0,-9.9626,19.363915,9.652319)"/>
</svg>
