<?xml version="1.0" encoding="UTF-8" standalone="no"?>
<!DOCTYPE svg PUBLIC "-//W3C//DTD SVG 1.1//EN" "http://www.w3.org/Graphics/SVG/1.1/DTD/svg11.dtd">
<svg xmlns="http://www.w3.org/2000/svg" xmlns:xlink="http://www.w3.org/1999/xlink" version="1.1" width="220.355pt" height="174.687pt" viewBox="0 0 220.355 174.687">
<clipPath id="cp0">
<path transform="matrix(1,0,0,-1,13.517,174.48799)" d="M 0 0 L 194.27216 0 L 194.27216 161.39636 L 0 161.39636 Z "/>
</clipPath>
<g clip-path="url(#cp0)">
<path transform="matrix(1,0,0,-1,13.517,174.48799)" d="M 8.17987 98.24126 L 8.38539 100.72845 L 8.59091 101.75864 L 8.79643 102.54913 L 9.00198 103.21558 L 9.20749 103.80272 L 9.41302 104.33353 L 9.61855 104.82166 L 9.82407 105.276 L 10.02959 105.70274 L 10.23512 106.10635 L 10.44063 106.49023 L 10.64616 106.85704 L 10.8517 107.20885 L 11.05722 107.54736 L 11.26276 107.874 L 11.46828 108.18991 L 11.6738 108.4961 L 11.87932 108.79338 L 12.08485 109.08253 L 12.29036 109.36435 L 12.49591 109.63902 L 12.70143 109.90724 L 12.90695 110.16945 L 13.11247 110.42598 L 13.31801 110.67725 L 13.52351 110.92352 L 13.72905 111.16512 L 13.93457 111.40227 L 14.1401 111.63522 L 14.34564 111.8642 L 14.55116 112.08937 L 14.75668 112.31097 L 14.9622 112.52913 L 15.16774 112.74397 L 15.37325 112.9557 L 15.57878 113.16444 L 15.7843 113.37029 L 15.98984 113.57336 L 16.19536 113.7738 L 16.4009 113.97166 L 16.6064 114.1671 L 16.81194 114.36014 L 17.01746 114.5509 L 17.22298 114.73946 L 17.42851 114.92589 L 17.63405 115.11026 L 17.83957 115.29263 L 18.04509 115.47307 L 18.25063 115.65164 L 18.45613 115.8284 L 18.66167 116.0034 L 18.86719 116.17668 L 19.07271 116.34831 L 19.27823 116.51834 L 19.48376 116.6868 L 19.68929 116.85374 L 19.89482 117.01918 L 20.10034 117.18318 L 20.30586 117.34578 L 20.5114 117.507 L 20.71692 117.66687 L 20.92244 117.82547 L 21.12796 117.98276 L 21.3335 118.13882 L 21.539 118.29367 L 21.74455 118.44734 L 21.95007 118.59984 L 22.1556 118.7512 L 22.36111 118.90146 L 22.56665 119.05064 L 22.77216 119.19875 L 22.97769 119.34581 L 23.18321 119.49188 L 23.38873 119.63693 L 23.59428 119.78102 L 23.7998 119.92415 L 24.00533 120.06633 L 24.21085 120.20758 L 24.41638 120.34795 L 24.62189 120.48743 L 24.82742 120.62602 L 25.03294 120.76378 L 25.23846 120.90068 L 25.44398 121.03677 L 25.64952 121.17207 L 25.85504 121.30656 L 26.06058 121.44028 L 26.2661 121.57323 L 26.47162 121.70541 L 26.67715 121.83687 L 26.88268 121.96759 L 27.0882 122.0976 L 27.29372 122.22691 L 27.49925 122.35551 L 27.70477 122.48346 L 27.91031 122.61072 L 28.11583 122.7373 L 28.32135 122.86325 L 28.52687 122.98856 L 28.7324 123.11324 L 28.93791 123.23726 L 29.14345 123.3607 L 29.34897 123.48354 L 29.55449 123.60577 L 29.76003 123.72743 L 29.96556 123.84853 L 30.17108 123.96902 L 30.3766 124.08896 L 30.58214 124.20834 L 30.78764 124.32718 L 30.99318 124.4455 L 31.1987 124.56326 L 31.40422 124.68051 L 31.60974 124.79724 L 31.81529 124.91347 L 32.0208 125.02917 L 32.22633 125.1444 L 32.43185 125.25912 L 32.63737 125.37337 L 32.84291 125.48712 L 33.04843 125.6004 L 33.25395 125.71324 L 33.45947 125.82559 L 33.66501 125.9375 L 33.87053 126.04897 L 34.07607 126.15996 L 34.28159 126.27054 L 34.4871 126.38066 L 34.69263 126.49039 L 34.89816 126.59967 L 35.10367 126.70851 L 35.3092 126.81697 L 35.51472 126.925 L 35.72025 127.03264 L 35.92578 127.13985 L 36.13132 127.24669 L 36.33684 127.35313 L 36.54236 127.4592 L 36.7479 127.56487 L 36.9534 127.67017 L 37.15894 127.77507 L 37.36446 127.87961 L 37.56998 127.9838 L 37.7755 128.0876 L 37.98102 128.19106 L 38.18655 128.29418 L 38.39209 128.39691 L 38.59761 128.4993 L 38.80313 128.60137 L 39.00867 128.70307 L 39.21417 128.80445 L 39.41971 128.90547 L 39.62523 129.00617 L 39.83075 129.10655 L 40.03627 129.20659 L 40.24182 129.30634 L 40.44733 129.40575 L 40.65286 129.50482 L 40.85838 129.6036 L 41.0639 129.70207 L 41.26942 129.80023 L 41.47496 129.8981 L 41.68047 129.99564 L 41.886 130.0929 L 42.09155 130.18987 L 42.29706 130.28655 L 42.5026 130.3829 L 42.70811 130.479 L 42.91364 130.5748 L 43.11916 130.67034 L 43.32469 130.76555 L 43.5302 130.86052 L 43.73573 130.95522 L 43.94125 131.04962 L 44.14677 131.14377 L 44.35231 131.23764 L 44.55785 131.33126 L 44.76337 131.42459 L 44.96889 131.51767 L 45.17442 131.6105 L 45.37993 131.70305 L 45.58546 131.79537 L 45.79099 131.88742 L 45.9965 131.97922 L 46.20204 132.07079 L 46.40758 132.16208 L 46.61308 132.25315 L 46.81862 132.34397 L 47.02414 132.43456 L 47.22966 132.52489 L 47.43518 132.61499 L 47.64072 132.70487 L 47.84622 132.7945 L 48.05176 132.88388 L 48.2573 132.97306 L 48.46281 133.062 L 48.66835 133.15071 L 48.87387 133.23921 L 49.07939 133.32692 L 161.54792 30.29924 L 160.7772 30.47017 L 160.00653 30.64154 L 159.23584 30.8133 L 158.46517 30.98558 L 157.69446 31.15823 L 156.92378 31.33131 L 156.15309 31.5049 L 155.38242 31.67894 L 154.61173 31.85341 L 153.84104 32.02832 L 153.07036 32.2037 L 152.29967 32.37958 L 151.52898 32.55588 L 150.75829 32.73271 L 149.98761 32.91002 L 149.21692 33.08783 L 148.44623 33.26605 L 147.67555 33.44481 L 146.90486 33.62405 L 146.13419 33.80379 L 145.36348 33.98404 L 144.5928 34.16478 L 143.82212 34.34601 L 143.05144 34.52782 L 142.28073 34.71011 L 141.51006 34.89294 L 140.73938 35.07631 L 139.96869 35.26015 L 139.198 35.4446 L 138.4273 35.62955 L 137.65663 35.81506 L 136.88594 36.00116 L 136.11525 36.18774 L 135.34456 36.37495 L 134.57389 36.56271 L 133.8032 36.751 L 133.0325 36.93993 L 132.26183 37.12946 L 131.49114 37.31952 L 130.72046 37.51016 L 129.94976 37.70145 L 129.17908 37.89339 L 128.40839 38.08585 L 127.63771 38.27896 L 126.86702 38.4727 L 126.09633 38.6671 L 125.32565 38.86209 L 124.55496 39.05771 L 123.78427 39.25403 L 123.01358 39.45093 L 122.2429 39.6486 L 121.47221 39.84686 L 120.70152 40.04579 L 119.93083 40.24544 L 119.16016 40.44577 L 118.38948 40.6468 L 117.61877 40.84853 L 116.8481 41.05101 L 116.07741 41.25418 L 115.30673 41.458 L 114.53603 41.66267 L 113.76535 41.86804 L 112.99466 42.0741 L 112.22398 42.28102 L 111.4533 42.48865 L 110.6826 42.69705 L 109.91191 42.90628 L 109.1412 43.11626 L 108.37051 43.32709 L 107.59981 43.53871 L 106.82912 43.75116 L 106.05843 43.9644 L 105.28772 44.17856 L 104.51701 44.3935 L 103.74634 44.6093 L 102.97565 44.82602 L 102.20493 45.04361 L 101.43423 45.26202 L 100.66354 45.48143 L 99.89285 45.70174 L 99.12213 45.92294 L 98.35146 46.14508 L 97.58075 46.36821 L 96.81006 46.59227 L 96.03935 46.81734 L 95.26866 47.04338 L 94.49796 47.27042 L 93.72726 47.4985 L 92.95657 47.72757 L 92.18587 47.95769 L 91.41518 48.18886 L 90.64449 48.42116 L 89.87378 48.65453 L 89.10307 48.88896 L 88.3324 49.12453 L 87.56169 49.36122 L 86.79099 49.59914 L 86.0203 49.83813 L 85.2496 50.07835 L 84.4789 50.31976 L 83.70819 50.56244 L 82.9375 50.80629 L 82.16681 51.05144 L 81.39612 51.29788 L 80.62541 51.5456 L 79.85472 51.79465 L 79.08401 52.04504 L 78.31334 52.29677 L 77.54262 52.5499 L 76.77193 52.80446 L 76.00122 53.06042 L 75.23055 53.31789 L 74.45982 53.5768 L 73.68913 53.83725 L 72.91844 54.09921 L 72.14775 54.36276 L 71.37704 54.62788 L 70.60634 54.89467 L 69.83566 55.16304 L 69.06496 55.43314 L 68.29425 55.70496 L 67.52356 55.97849 L 66.75287 56.25381 L 65.98216 56.53091 L 65.21147 56.80997 L 64.44077 57.09087 L 63.67007 57.37366 L 62.89937 57.65848 L 62.12868 57.94527 L 61.35797 58.23416 L 60.58728 58.52513 L 59.8166 58.81819 L 59.04588 59.11351 L 58.27519 59.41107 L 57.5045 59.71094 L 56.73381 60.01315 L 55.96309 60.31778 L 55.1924 60.62482 L 54.4217 60.93442 L 53.65102 61.24664 L 52.8803 61.5615 L 52.10962 61.87909 L 51.33891 62.19945 L 50.56822 62.5227 L 49.79753 62.8489 L 49.02682 63.1776 L 48.25613 63.50995 L 47.48544 63.84552 L 46.71475 64.18442 L 45.94403 64.5267 L 45.17334 64.8725 L 44.40265 65.22192 L 43.63196 65.57507 L 42.86124 65.9321 L 42.09056 66.2931 L 41.31985 66.65823 L 40.54916 67.02765 L 39.77847 67.40147 L 39.00777 67.77988 L 38.23708 68.16307 L 37.46637 68.5512 L 36.69568 68.94444 L 35.92497 69.34306 L 35.15428 69.74727 L 34.38359 70.15726 L 33.61288 70.57333 L 32.84218 70.99579 L 32.0715 71.42487 L 31.3008 71.86093 L 30.53009 72.30434 L 29.75938 72.75545 L 28.98871 73.21468 L 28.21802 73.68251 L 27.4473 74.15942 L 26.67662 74.64598 L 25.90591 75.14278 L 25.13522 75.6505 L 24.36452 76.16989 L 23.59383 76.70181 L 22.82312 77.24721 L 22.05243 77.80716 L 21.28172 78.38287 L 20.51103 78.97578 L 19.74033 79.58755 L 18.96965 80.22006 L 18.19894 80.8756 L 17.42824 81.55687 L 16.65755 82.26717 L 15.88686 83.01056 L 15.11615 83.79216 L 14.34544 84.61852 L 13.57475 85.49835 L 12.80406 86.44362 L 12.03336 87.4717 L 11.26265 88.60867 L 10.49196 89.89919 L 9.72127 91.42998 L 8.95056 93.42497 L 8.17987 98.24126 Z " fill="#cccce6"/>
</g>
<clipPath id="cp1">
<path transform="matrix(1,0,0,-1,13.517,174.48799)" d="M 0 0 L 194.27216 0 L 194.27216 161.39636 L 0 161.39636 Z "/>
</clipPath>
<g clip-path="url(#cp1)">
<path transform="matrix(1,0,0,-1,13.517,174.48799)" d="M 49.07927 133.32743 L 54.1917 128.94165 L 59.30412 124.55588 L 64.41655 120.1701 L 69.52898 115.78435 L 74.6414 111.39857 L 79.75383 107.0128 L 84.86626 102.62703 L 89.97868 98.24126 L 95.09111 93.85548 L 100.20352 89.46971 L 105.31595 85.08394 L 110.42838 80.69818 L 115.5408 76.31241 L 120.65323 71.92664 L 125.76566 67.54086 L 130.87808 63.15509 L 135.99051 58.76932 L 141.10294 54.38354 L 146.21537 49.99777 L 151.32779 45.61201 L 156.4402 41.22624 L 161.55263 36.84047 L 166.66506 32.4547 L 171.77748 28.06892 L 161.54792 30.29924 L 160.7772 30.47017 L 160.00653 30.64154 L 159.23584 30.8133 L 158.46517 30.98558 L 157.69446 31.15823 L 156.92378 31.33131 L 156.15309 31.5049 L 155.38242 31.67894 L 154.61173 31.85341 L 153.84104 32.02832 L 153.07036 32.2037 L 152.29967 32.37958 L 151.52898 32.55588 L 150.75829 32.73271 L 149.98761 32.91002 L 149.21692 33.08783 L 148.44623 33.26605 L 147.67555 33.44481 L 146.90486 33.62405 L 146.13419 33.80379 L 145.36348 33.98404 L 144.5928 34.16478 L 143.82212 34.34601 L 143.05144 34.52782 L 142.28073 34.71011 L 141.51006 34.89294 L 140.73938 35.07631 L 139.96869 35.26015 L 139.198 35.4446 L 138.4273 35.62955 L 137.65663 35.81506 L 136.88594 36.00116 L 136.11525 36.18774 L 135.34456 36.37495 L 134.57389 36.56271 L 133.8032 36.751 L 133.0325 36.93993 L 132.26183 37.12946 L 131.49114 37.31952 L 130.72046 37.51016 L 129.94976 37.70145 L 129.17908 37.89339 L 128.40839 38.08585 L 127.63771 38.27896 L 126.86702 38.4727 L 126.09633 38.6671 L 125.32565 38.86209 L 124.55496 39.05771 L 123.78427 39.25403 L 123.01358 39.45093 L 122.2429 39.6486 L 121.47221 39.84686 L 120.70152 40.04579 L 119.93083 40.24544 L 119.16016 40.44577 L 118.38948 40.6468 L 117.61877 40.84853 L 116.8481 41.05101 L 116.07741 41.25418 L 115.30673 41.458 L 114.53603 41.66267 L 113.76535 41.86804 L 112.99466 42.0741 L 112.22398 42.28102 L 111.4533 42.48865 L 110.6826 42.69705 L 109.91191 42.90628 L 109.1412 43.11626 L 108.37051 43.32709 L 107.59981 43.53871 L 106.82912 43.75116 L 106.05843 43.9644 L 105.28772 44.17856 L 104.51701 44.3935 L 103.74634 44.6093 L 102.97565 44.82602 L 102.20493 45.04361 L 101.43423 45.26202 L 100.66354 45.48143 L 99.89285 45.70174 L 99.12213 45.92294 L 98.35146 46.14508 L 97.58075 46.36821 L 96.81006 46.59227 L 96.03935 46.81734 L 95.26866 47.04338 L 94.49796 47.27042 L 93.72726 47.4985 L 92.95657 47.72757 L 92.18587 47.95769 L 91.41518 48.18886 L 90.64449 48.42116 L 89.87378 48.65453 L 89.10307 48.88896 L 88.3324 49.12453 L 87.56169 49.36122 L 86.79099 49.59914 L 86.0203 49.83813 L 85.2496 50.07835 L 84.4789 50.31976 L 83.70819 50.56244 L 82.9375 50.80629 L 82.16681 51.05144 L 81.39612 51.29788 L 80.62541 51.5456 L 79.85472 51.79465 L 79.08401 52.04504 L 78.31334 52.29677 L 77.54262 52.5499 L 76.77193 52.80446 L 76.00122 53.06042 L 75.23055 53.31789 L 74.45982 53.5768 L 73.68913 53.83725 L 72.91844 54.09921 L 72.14775 54.36276 L 71.37704 54.62788 L 70.60634 54.89467 L 69.83566 55.16304 L 69.06496 55.43314 L 68.29425 55.70496 L 67.52356 55.97849 L 66.75287 56.25381 L 65.98216 56.53091 L 65.21147 56.80997 L 64.44077 57.09087 L 63.67007 57.37366 L 62.89937 57.65848 L 62.12868 57.94527 L 61.35797 58.23416 L 60.58728 58.52513 L 59.8166 58.81819 L 59.04588 59.11351 L 58.27519 59.41107 L 57.5045 59.71094 L 56.73381 60.01315 L 55.96309 60.31778 L 55.1924 60.62482 L 54.4217 60.93442 L 53.65102 61.24664 L 52.8803 61.5615 L 52.10962 61.87909 L 51.33891 62.19945 L 50.56822 62.5227 L 49.79753 62.8489 L 49.02682 63.1776 L 48.25613 63.50995 L 47.48544 63.84552 L 46.71475 64.18442 L 45.94403 64.5267 L 45.17334 64.8725 L 44.40265 65.22192 L 43.63196 65.57507 L 42.86124 65.9321 L 42.09056 66.2931 L 41.31985 66.65823 L 40.54916 67.02765 L 39.77847 67.40147 L 39.00777 67.77988 L 38.23708 68.16307 L 37.46637 68.5512 L 36.69568 68.94444 L 35.92497 69.34306 L 35.15428 69.74727 L 34.38359 70.15726 L 33.61288 70.57333 L 32.84218 70.99579 L 32.0715 71.42487 L 31.3008 71.86093 L 30.53009 72.30434 L 29.75938 72.75545 L 28.98871 73.21468 L 28.21802 73.68251 L 27.4473 74.15942 L 26.67662 74.64598 L 25.90591 75.14278 L 25.13522 75.6505 L 24.36452 76.16989 L 23.59383 76.70181 L 22.82312 77.24721 L 22.05243 77.80716 L 21.28172 78.38287 L 20.51103 78.97578 L 19.74033 79.58755 L 18.96965 80.22006 L 18.19894 80.8756 L 17.42824 81.55687 L 16.65755 82.26717 L 15.88686 83.01056 L 15.11615 83.79216 L 14.34544 84.61852 L 13.57475 85.49835 L 12.80406 86.44362 L 12.03336 87.4717 L 11.26265 88.60867 L 10.49196 89.89919 L 9.72127 91.42998 L 8.95056 93.42497 L 8.17987 98.24126 Z " fill="#cccce6"/>
</g>
<clipPath id="cp2">
<path transform="matrix(1,0,0,-1,13.517,174.48799)" d="M 0 0 L 194.27216 0 L 194.27216 161.39636 L 0 161.39636 Z "/>
</clipPath>
<g clip-path="url(#cp2)">
<path transform="matrix(1,0,0,-1,13.517,174.48799)" stroke-width="1.19553" stroke-linecap="butt" stroke-miterlimit="10" stroke-linejoin="miter" fill="none" stroke="#000080" d="M 8.17987 98.24126 C 8.17987 98.24126 8.51396 101.23994 8.64229 101.97197 C 8.7706 102.70401 8.97641 103.13838 9.10474 103.5173 C 9.23305 103.89622 9.43884 104.39986 9.56715 104.70306 C 9.69548 105.00629 9.90128 105.44185 10.02959 105.70273 C 10.15791 105.96361 10.3637 106.35075 10.49202 106.58342 C 10.62033 106.81609 10.82613 107.16759 10.95445 107.37964 C 11.08276 107.59169 11.28856 107.9157 11.41687 108.11185 C 11.5452 108.308 11.75099 108.60999 11.8793 108.79337 C 12.00763 108.97675 12.21341 109.26079 12.34174 109.43362 C 12.47005 109.60646 12.67584 109.87515 12.80417 110.03905 C 12.93248 110.20293 13.13828 110.45865 13.26659 110.61488 C 13.39491 110.7711 13.60071 111.01552 13.72902 111.16508 C 13.85735 111.31464 14.06314 111.54915 14.19147 111.69281 C 14.31978 111.83646 14.52556 112.06215 14.65388 112.20058 C 14.7822 112.339 14.988 112.55682 15.11632 112.69054 C 15.24464 112.82426 15.45044 113.03494 15.57875 113.1644 C 15.70708 113.29385 15.91284 113.49808 16.04117 113.62369 C 16.16948 113.74928 16.37529 113.9476 16.50362 114.06964 C 16.63193 114.1917 16.83772 114.38458 16.96603 114.50337 C 17.09436 114.62216 17.30013 114.81006 17.42845 114.92584 C 17.55678 115.04161 17.76257 115.22488 17.8909 115.33786 C 18.01921 115.45084 18.225 115.6298 18.35333 115.74019 C 18.48164 115.85057 18.68745 116.02553 18.81577 116.13348 C 18.94409 116.24144 19.14986 116.41264 19.27818 116.51831 C 19.40651 116.62398 19.61229 116.79164 19.74062 116.89517 C 19.86893 116.99872 20.07472 117.16307 20.20305 117.2646 C 20.33136 117.36613 20.53716 117.52736 20.66547 117.62698 C 20.7938 117.72662 20.99957 117.88489 21.1279 117.98271 C 21.25623 118.08054 21.462 118.23601 21.59033 118.33215 C 21.71864 118.42828 21.92444 118.5811 22.05276 118.6756 C 22.18108 118.77011 22.38687 118.92041 22.51518 119.0134 C 22.64351 119.10637 22.84929 119.25426 22.97762 119.34576 C 23.10594 119.43729 23.31174 119.58287 23.44006 119.67299 C 23.56837 119.7631 23.77415 119.90651 23.90247 119.99529 C 24.03079 120.08406 24.23659 120.22537 24.3649 120.31287 C 24.49323 120.40038 24.699 120.53969 24.82733 120.62596 C 24.95566 120.71223 25.16144 120.84964 25.28976 120.93474 C 25.41808 121.01984 25.62387 121.15538 25.75218 121.23936 C 25.88051 121.32333 26.0863 121.4571 26.21461 121.54 C 26.34294 121.62288 26.54872 121.75496 26.67705 121.8368 C 26.80537 121.91866 27.01115 122.04909 27.13948 122.12993 C 27.26779 122.21078 27.47359 122.33963 27.6019 122.41951 C 27.73022 122.49937 27.93602 122.62671 28.06433 122.70564 C 28.19266 122.78459 28.39844 122.91045 28.52676 122.98848 C 28.65509 123.06651 28.86087 123.19096 28.9892 123.26813 C 29.11751 123.34529 29.3233 123.46835 29.45161 123.54466 C 29.57994 123.62097 29.78574 123.7427 29.91405 123.81822 C 30.04237 123.89372 30.24815 124.01418 30.37648 124.0889 C 30.5048 124.1636 30.71059 124.28279 30.83891 124.35674 C 30.96722 124.43068 31.17302 124.54869 31.30133 124.62189 C 31.42966 124.69508 31.63545 124.8119 31.76376 124.88438 C 31.89209 124.95686 32.09787 125.07254 32.2262 125.14432 C 32.3545 125.21611 32.56029 125.33067 32.68861 125.40176 C 32.81693 125.47287 33.02274 125.58638 33.15105 125.65681 C 33.27937 125.72723 33.48517 125.83969 33.61348 125.90948 C 33.7418 125.97928 33.94759 126.09071 34.07591 126.15988 C 34.20422 126.22906 34.41002 126.3395 34.53835 126.40807 C 34.66666 126.47662 34.87245 126.58609 35.00076 126.65405 C 35.12909 126.72203 35.33488 126.83055 35.4632 126.89795 C 35.59152 126.96533 35.7973 127.07297 35.92563 127.13979 C 36.05394 127.20662 36.25974 127.31334 36.38806 127.37961 C 36.51637 127.44586 36.72217 127.55174 36.85048 127.61746 C 36.9788 127.6832 37.18459 127.78822 37.3129 127.85344 C 37.44122 127.91866 37.64702 128.02283 37.77534 128.08753 C 37.90366 128.15222 38.10945 128.2556 38.23778 128.3198 C 38.36609 128.384 38.57187 128.48657 38.70018 128.55028 C 38.8285 128.61399 39.03432 128.71579 39.16263 128.77904 C 39.29095 128.84227 39.49673 128.94333 39.62506 129.00609 C 39.75337 129.06887 39.95917 129.16915 40.0875 129.23146 C 40.2158 129.29378 40.4216 129.39337 40.54991 129.45523 C 40.67824 129.5171 40.88403 129.61597 41.01234 129.6774 C 41.14067 129.73883 41.34645 129.837 41.47478 129.89801 C 41.60309 129.95902 41.80888 130.0565 41.93721 130.11708 C 42.06552 130.17766 42.27132 130.2745 42.39963 130.33467 C 42.52795 130.39484 42.73373 130.49103 42.86206 130.55078 C 42.99039 130.61054 43.19615 130.70609 43.32448 130.76546 C 43.45279 130.82485 43.6586 130.91977 43.78693 130.97875 C 43.91524 131.03774 44.12103 131.13205 44.24934 131.19065 C 44.37767 131.24925 44.58345 131.34294 44.71178 131.40119 C 44.8401 131.45943 45.04588 131.55254 45.17421 131.61042 C 45.30252 131.66828 45.50832 131.7608 45.63664 131.81832 C 45.76495 131.87583 45.97075 131.96778 46.09906 132.02494 C 46.22739 132.08209 46.43315 132.17351 46.56148 132.23032 C 46.6898 132.28713 46.8956 132.37799 47.02393 132.43447 C 47.15224 132.49094 47.35803 132.58124 47.48636 132.63738 C 47.61467 132.69351 47.82045 132.78331 47.94876 132.83913 C 48.07709 132.89493 48.28288 132.98419 48.41121 133.03969 C 48.53954 133.09517 48.74532 133.18399 48.87364 133.2391 C 49.00195 133.2942 49.20773 133.38208 49.33606 133.43686 C 49.46437 133.49166 49.67018 133.57949 49.7985 133.63405 C 49.92682 133.68862 50.1326 133.77588 50.26093 133.83014 C 50.38925 133.8844 50.59503 133.97113 50.72336 134.0251 C 50.85167 134.07907 51.05745 134.16544 51.18576 134.2191 C 51.31409 134.27277 51.5199 134.35858 51.64821 134.41196 C 51.77654 134.46533 51.98232 134.55075 52.11064 134.60385 C 52.23897 134.65695 52.44473 134.74195 52.57306 134.79477 C 52.70137 134.8476 52.90718 134.93206 53.03549 134.9846 C 53.16382 135.03716 53.36961 135.12128 53.49792 135.17356 C 53.62625 135.22583 53.83202 135.3095 53.96034 135.36151 C 54.08867 135.41353 54.29446 135.49675 54.42279 135.54851 C 54.5511 135.60027 54.7569 135.68308 54.88521 135.73458 C 55.01353 135.78609 55.21933 135.86853 55.34764 135.91977 C 55.47597 135.97103 55.68175 136.05298 55.81007 136.10396 C 55.9384 136.15496 56.14418 136.23659 56.2725 136.28733 C 56.40082 136.33808 56.60661 136.41927 56.73492 136.46977 C 56.86325 136.5203 57.06903 136.60118 57.19734 136.65146 C 57.32567 136.70174 57.53146 136.78215 57.65979 136.83219 C 57.78812 136.8822 57.9939 136.96234 58.12222 137.01215 C 58.25053 137.06194 58.45631 137.14159 58.58463 137.19115 C 58.71295 137.2407 58.91876 137.32007 59.04707 137.36942 C 59.1754 137.41876 59.38118 137.49777 59.5095 137.54689 C 59.63782 137.59601 59.8436 137.6746 59.97192 137.72351 C 60.10023 137.77242 60.30605 137.8507 60.43436 137.89939 C 60.56268 137.94808 60.76848 138.02603 60.89679 138.07451 C 61.02512 138.123 61.2309 138.20056 61.35922 138.24883 C 61.48753 138.29709 61.69331 138.37435 61.82164 138.4224 C 61.94995 138.47045 62.15576 138.5474 62.28407 138.59523 C 62.4124 138.64307 62.6182 138.71964 62.7465 138.76729 C 62.87483 138.81493 63.0806 138.8912 63.20892 138.93866 C 63.33723 138.9861 63.54305 139.06203 63.67137 139.10927 C 63.79968 139.15651 64.00548 139.2322 64.13379 139.27925 C 64.26212 139.32633 64.4679 139.40163 64.5962 139.44849 C 64.72453 139.49533 64.93031 139.57036 65.05864 139.61704 C 65.18695 139.6637 65.39276 139.73839 65.52109 139.78487 C 65.6494 139.83133 65.8552 139.90572 65.9835 139.95201 C 66.11183 139.99829 66.31761 140.07245 66.44592 140.11856 C 66.57425 140.16468 66.78004 140.23845 66.90837 140.28438 C 67.03668 140.3303 67.24248 140.40383 67.3708 140.44957 C 67.49911 140.49532 67.7049 140.56859 67.8332 140.61415 C 67.96153 140.65973 68.16734 140.73271 68.29565 140.7781 C 68.42398 140.8235 68.62976 140.89615 68.75809 140.94136 C 68.8864 140.98657 69.09218 141.05898 69.2205 141.10402 C 69.34882 141.14907 69.55461 141.22122 69.68292 141.2661 C 69.81125 141.31098 70.01704 141.38277 70.14537 141.42748 C 70.2737 141.47219 70.47946 141.54384 70.60779 141.5884 C 70.7361 141.63295 70.9419 141.70424 71.07022 141.74863 C 71.19853 141.793 71.40434 141.86405 71.53265 141.90827 C 71.66098 141.9525 71.86676 142.02333 71.99509 142.0674 C 72.12341 142.11145 72.32918 142.18195 72.4575 142.22585 C 72.58582 142.26973 72.79163 142.34004 72.91995 142.38379 C 73.04826 142.42754 73.25406 142.4976 73.38237 142.54119 C 73.5107 142.58478 73.71646 142.65456 73.84479 142.69799 C 73.97311 142.74141 74.17891 142.81098 74.30724 142.85427 C 74.43555 142.89754 74.64134 142.96681 74.76967 143.00995 C 74.89798 143.05307 75.10376 143.12218 75.23207 143.16516 C 75.3604 143.20813 75.56618 143.27695 75.6945 143.3198 C 75.82283 143.36263 76.02863 143.43123 76.15695 143.47393 C 76.28526 143.51662 76.49106 143.58496 76.61938 143.62749 C 76.7477 143.67003 76.95348 143.73818 77.08179 143.78058 C 77.21011 143.82299 77.41591 143.8909 77.54424 143.93317 C 77.67256 143.97542 77.87834 144.04309 78.00667 144.08519 C 78.13498 144.1273 78.34076 144.19478 78.46907 144.23676 C 78.5974 144.27873 78.8032 144.34593 78.93152 144.38777 C 79.05984 144.42961 79.26563 144.49665 79.39395 144.53833 C 79.52228 144.58003 79.72804 144.64682 79.85637 144.6884 C 79.98468 144.72997 80.19048 144.7966 80.31879 144.83805 C 80.44711 144.87949 80.65292 144.94586 80.78123 144.98715 C 80.90956 145.02846 81.11534 145.09458 81.24367 145.13574 C 81.372 145.17691 81.57776 145.24288 81.70609 145.28392 C 81.8344 145.32497 82.0402 145.39067 82.16852 145.4316 C 82.29684 145.47252 82.50264 145.53809 82.63095 145.57889 C 82.75928 145.61968 82.96504 145.68498 83.09337 145.72565 C 83.2217 145.76631 83.42747 145.83147 83.5558 145.872 C 83.68411 145.91252 83.88992 145.97743 84.01823 146.01784 C 84.14656 146.05825 84.35234 146.12302 84.48065 146.1633 C 84.60898 146.2036 84.81476 146.26808 84.94308 146.30825 C 85.07141 146.3484 85.2772 146.41281 85.40553 146.45287 C 85.53384 146.49294 85.73962 146.5571 85.86794 146.59702 C 85.99626 146.63694 86.20206 146.7009 86.33037 146.74069 C 86.4587 146.78049 86.66449 146.84426 86.79282 146.88394 C 86.92113 146.92363 87.12692 146.98728 87.25525 147.02686 C 87.38356 147.06644 87.58934 147.1298 87.71765 147.16927 C 87.84598 147.20873 88.05177 147.27196 88.18008 147.3113 C 88.30841 147.35065 88.5142 147.41367 88.64253 147.45291 C 88.77084 147.49214 88.97662 147.55504 89.10495 147.59416 C 89.23326 147.63329 89.43906 147.69593 89.56737 147.73493 C 89.6957 147.77394 89.9015 147.83647 90.02982 147.87537 C 90.15814 147.91428 90.3639 147.97658 90.49223 148.01537 C 90.62054 148.05414 90.82634 148.1163 90.95467 148.15499 C 91.08298 148.19365 91.28879 148.25562 91.4171 148.29419 C 91.54543 148.33278 91.75122 148.39459 91.87953 148.43306 C 92.00786 148.47154 92.21362 148.53318 92.34195 148.57154 C 92.47026 148.60988 92.67607 148.67133 92.8044 148.70958 C 92.93271 148.74782 93.1385 148.80913 93.26682 148.84729 C 93.39514 148.88545 93.60092 148.94658 93.72923 148.98462 C 93.85756 149.02268 94.06334 149.08362 94.19167 149.12157 C 94.31998 149.15952 94.52579 149.22035 94.65411 149.25818 C 94.78242 149.29602 94.9882 149.35662 95.11652 149.39437 C 95.24484 149.43212 95.45064 149.49262 95.57895 149.53026 C 95.70728 149.5679 95.91307 149.6282 96.0414 149.66576 C 96.16971 149.7033 96.37549 149.7635 96.50381 149.80094 C 96.63213 149.83838 96.83792 149.89836 96.96623 149.9357 C 97.09456 149.97306 97.30035 150.03293 97.42868 150.07019 C 97.557 150.10744 97.76279 150.16713 97.89111 150.20429 C 98.01942 150.24144 98.2252 150.30098 98.35353 150.33805 C 98.48184 150.3751 98.68764 150.43448 98.81595 150.47144 C 98.94427 150.50839 99.15007 150.56761 99.2784 150.60449 C 99.40672 150.64138 99.61249 150.70046 99.74081 150.73725 C 99.86913 150.77404 100.20325 150.86968 100.20325 150.86968 "/>
<path transform="matrix(1,0,0,-1,13.517,174.48799)" stroke-width="1.19553" stroke-linecap="butt" stroke-miterlimit="10" stroke-linejoin="miter" fill="none" stroke="#000080" d="M 8.23125 96.9978 C 8.23125 96.9978 8.98854 93.4315 9.2794 92.4885 C 9.57027 91.54549 10.03671 90.76381 10.32758 90.2012 C 10.61844 89.6386 11.08488 88.8862 11.37573 88.43358 C 11.6666 87.98096 12.13306 87.32928 12.42392 86.93893 C 12.71477 86.5486 13.18123 85.96873 13.47209 85.62018 C 13.76295 85.27162 14.2294 84.7447 14.52025 84.42674 C 14.81111 84.1088 15.27756 83.62279 15.56842 83.32852 C 15.85927 83.03426 16.32574 82.58101 16.61661 82.3058 C 16.90747 82.03058 17.3739 81.60434 17.66476 81.34486 C 17.95563 81.0854 18.42207 80.68187 18.71292 80.43573 C 19.00378 80.18959 19.47023 79.8055 19.7611 79.57082 C 20.05196 79.33612 20.51842 78.9689 20.80928 78.7442 C 21.10014 78.5195 21.56659 78.16713 21.85744 77.95125 C 22.1483 77.73537 22.61475 77.3962 22.90561 77.18816 C 23.19646 76.98012 23.66292 76.65276 23.95378 76.45177 C 24.24464 76.25076 24.71107 75.93407 25.00194 75.73946 C 25.2928 75.54485 25.75926 75.23784 26.05013 75.04901 C 26.34097 74.86018 26.80743 74.56204 27.0983 74.37854 C 27.38916 74.19504 27.85559 73.905 28.14645 73.7264 C 28.43732 73.54779 28.90376 73.26526 29.19461 73.09117 C 29.48547 72.91707 29.95193 72.6415 30.2428 72.47157 C 30.53365 72.30167 31.0001 72.03255 31.29097 71.86655 C 31.58183 71.70053 32.04826 71.43744 32.33913 71.27507 C 32.62999 71.11272 33.09644 70.85526 33.3873 70.69632 C 33.67815 70.53738 34.1446 70.28522 34.43547 70.12947 C 34.72633 69.97372 35.19276 69.72655 35.48363 69.57382 C 35.77449 69.4211 36.24095 69.17862 36.5318 69.02876 C 36.82266 68.87889 37.28912 68.64084 37.57999 68.49367 C 37.87083 68.3465 38.33728 68.11263 38.62814 67.96802 C 38.919 67.82343 39.38545 67.59355 39.6763 67.45137 C 39.96716 67.30919 40.43362 67.0831 40.72449 66.94322 C 41.01534 66.80336 41.4818 66.58087 41.77266 66.4432 C 42.06352 66.30553 42.52995 66.0865 42.82082 65.95093 C 43.11168 65.81537 43.57814 65.59961 43.86899 65.46605 C 44.15985 65.33249 44.6263 65.1199 44.91716 64.98825 C 45.20802 64.8566 45.67445 64.64702 45.96532 64.5172 C 46.25618 64.38739 46.72264 64.1807 47.01349 64.05264 C 47.30435 63.9246 47.77081 63.7206 48.06168 63.59431 C 48.35252 63.46805 48.81897 63.26715 49.10983 63.1425 C 49.4007 63.01787 49.86713 62.81909 50.15799 62.69597 C 50.44885 62.57283 50.91531 62.37656 51.20618 62.25493 C 51.49702 62.13329 51.96349 61.93942 52.25435 61.81923 C 52.54521 61.69905 53.01164 61.50746 53.3025 61.38869 C 53.59337 61.26991 54.05983 61.08054 54.35068 60.96312 C 54.64154 60.8457 55.10799 60.65843 55.39885 60.54231 C 55.6897 60.4262 56.15614 60.24106 56.447 60.12622 C 56.73787 60.01138 57.20432 59.8282 57.49518 59.71458 C 57.78604 59.60097 58.2525 59.41974 58.54337 59.30731 C 58.83421 59.1949 59.30066 59.01552 59.59152 58.90424 C 59.88239 58.79295 60.34882 58.61543 60.63968 58.50528 C 60.93054 58.39513 61.397 58.2193 61.68785 58.11023 C 61.97871 58.00114 62.44518 57.82709 62.73604 57.71907 C 63.02689 57.61107 63.49333 57.43867 63.7842 57.33168 C 64.07506 57.22469 64.54152 57.05388 64.83237 56.94788 C 65.12323 56.84187 65.58968 56.67268 65.88054 56.56764 C 66.17139 56.46262 66.63783 56.29494 66.9287 56.19086 C 67.21956 56.08676 67.68602 55.92056 67.97688 55.81738 C 68.26775 55.7142 68.73419 55.54947 69.02504 55.44717 C 69.3159 55.34488 69.78235 55.18153 70.07321 55.08012 C 70.36407 54.97871 70.8305 54.81679 71.12137 54.71623 C 71.41223 54.61566 71.8787 54.45502 72.16954 54.35527 C 72.4604 54.25554 72.92686 54.09622 73.21773 53.99728 C 73.50858 53.89835 73.97502 53.74036 74.26588 53.64221 C 74.55675 53.54407 75.0232 53.38725 75.31406 53.28989 C 75.60492 53.19252 76.07137 53.03697 76.36221 52.94035 C 76.65308 52.84372 77.11952 52.68935 77.41039 52.59348 C 77.70125 52.49759 78.16771 52.3444 78.45857 52.24924 C 78.74944 52.15407 79.21588 52.00197 79.50673 51.9075 C 79.79759 51.81303 80.26404 51.66208 80.5549 51.5683 C 80.84575 51.47452 81.3122 51.32465 81.60306 51.23154 C 81.89392 51.13843 82.36037 50.98967 82.65123 50.8972 C 82.9421 50.80475 83.40855 50.65697 83.69942 50.56516 C 83.99026 50.47336 84.45671 50.32664 84.74757 50.23547 C 85.03844 50.14432 85.50488 49.99855 85.79575 49.90799 C 86.08661 49.81744 86.55305 49.67265 86.8439 49.5827 C 87.13477 49.49275 87.60121 49.34901 87.89207 49.25966 C 88.18292 49.1703 88.6494 49.02744 88.94026 48.93866 C 89.23112 48.84988 89.69757 48.70795 89.98842 48.61974 C 90.27928 48.53152 90.74573 48.39047 91.03659 48.30284 C 91.32744 48.2152 91.7939 48.07507 92.08476 47.98799 C 92.37563 47.9009 92.84206 47.76163 93.13292 47.67506 C 93.42378 47.58852 93.89024 47.45009 94.18109 47.36406 C 94.47195 47.27805 94.9384 47.14044 95.22926 47.05493 C 95.52011 46.96942 95.98657 46.83269 96.27744 46.74768 C 96.5683 46.66269 97.03474 46.52676 97.32559 46.44226 C 97.61646 46.35777 98.0829 46.22266 98.37376 46.13866 C 98.66461 46.05464 99.13109 45.92027 99.42195 45.83676 C 99.71281 45.75323 100.17924 45.61966 100.47011 45.53662 C 100.76097 45.45358 101.22742 45.32079 101.51826 45.2382 C 101.80913 45.15562 102.27559 45.02353 102.56645 44.9414 C 102.85732 44.85928 103.32375 44.72797 103.61461 44.6463 C 103.90547 44.56464 104.37193 44.43398 104.66278 44.35275 C 104.95364 44.27153 105.4201 44.1416 105.71097 44.0608 C 106.00182 43.98003 106.46826 43.85085 106.75912 43.7705 C 107.04999 43.69012 107.51642 43.56158 107.80728 43.48164 C 108.09814 43.40172 108.56459 43.27388 108.85545 43.19438 C 109.1463 43.11487 109.61278 42.98764 109.90364 42.90854 C 110.1945 42.82942 110.66093 42.7029 110.9518 42.62419 C 111.24266 42.5455 111.7091 42.4196 111.99995 42.34131 C 112.29082 42.263 112.75728 42.13771 113.04814 42.05981 C 113.33899 41.9819 113.80544 41.85721 114.0963 41.7797 C 114.38716 41.70218 114.85359 41.57819 115.14445 41.50104 C 115.43532 41.4239 115.90178 41.30049 116.19264 41.22371 C 116.48349 41.14694 116.94994 41.02412 117.2408 40.94774 C 117.53166 40.87135 117.9981 40.74911 118.28896 40.67308 C 118.57982 40.59706 119.04626 40.4754 119.33711 40.39972 C 119.62798 40.32405 120.09444 40.20296 120.3853 40.12766 C 120.67615 40.05234 121.1426 39.93182 121.43346 39.85686 C 121.72432 39.78189 122.19077 39.66193 122.48161 39.5873 C 122.77248 39.51266 123.23894 39.39325 123.5298 39.31897 C 123.82065 39.24469 124.2871 39.12587 124.57796 39.05193 C 124.86882 38.97798 125.33525 38.85957 125.62611 38.78595 C 125.91698 38.71233 126.38344 38.59456 126.67429 38.52127 C 126.96515 38.44798 127.4316 38.33067 127.72246 38.2577 C 128.01332 38.18474 128.47975 38.06796 128.77062 37.99532 C 129.06148 37.92267 129.52793 37.80638 129.81877 37.73405 C 130.10964 37.66173 130.5761 37.54594 130.86696 37.47392 C 131.1578 37.40189 131.62425 37.28658 131.91512 37.21484 C 132.20598 37.14313 132.67241 37.02838 132.96327 36.95695 C 133.25414 36.88554 133.7206 36.77121 134.01146 36.70009 C 134.3023 36.62898 134.76876 36.51517 135.05962 36.44435 C 135.35048 36.37352 135.81691 36.2601 136.10778 36.18956 C 136.39864 36.11903 136.8651 36.00615 137.15595 35.9359 C 137.44681 35.86566 137.91326 35.75316 138.20412 35.6832 C 138.49497 35.61324 138.96141 35.50125 139.25228 35.43158 C 139.54314 35.36191 140.00957 35.25038 140.30043 35.18097 C 140.5913 35.11156 141.05776 35.00041 141.34862 34.93127 C 141.63947 34.86214 142.10591 34.75151 142.39678 34.68265 C 142.68764 34.61378 143.15407 34.50354 143.44493 34.43494 C 143.7358 34.36633 144.20226 34.25652 144.4931 34.18817 C 144.78397 34.11984 145.25041 34.01045 145.54128 33.9424 C 145.83213 33.87433 146.29857 33.76538 146.58943 33.69757 C 146.8803 33.62975 147.34676 33.52115 147.6376 33.45358 C 147.92847 33.38603 148.39492 33.27788 148.68578 33.21059 C 148.97663 33.14328 149.44307 33.03554 149.73394 32.96849 C 150.0248 32.90146 150.49123 32.79413 150.78209 32.72731 C 151.07295 32.6605 151.53942 32.5535 151.83026 32.48692 C 152.12113 32.42035 152.58757 32.31377 152.87844 32.24745 C 153.1693 32.18112 153.63573 32.07495 153.92659 32.00888 C 154.21746 31.94281 154.68392 31.83702 154.97476 31.77118 C 155.26563 31.70534 155.73207 31.59988 156.02294 31.53427 C 156.31378 31.46866 156.78023 31.36362 157.07109 31.29823 C 157.36196 31.23285 157.8284 31.12816 158.11927 31.063 C 158.41013 30.99785 158.87657 30.89352 159.16744 30.8286 C 159.45829 30.76367 159.92473 30.65973 160.21559 30.59502 C 160.50646 30.53032 160.97289 30.42674 161.26375 30.36224 C 161.55461 30.29776 162.02108 30.19447 162.31192 30.1302 C 162.60279 30.06595 163.06923 29.96307 163.36009 29.89905 C 163.65094 29.83502 164.11739 29.73244 164.40825 29.66861 C 164.69911 29.6048 165.16556 29.5026 165.45642 29.439 C 165.74729 29.37538 166.21373 29.27353 166.5046 29.21013 C 166.79544 29.14671 167.26189 29.04514 167.55275 28.98193 C 167.84362 28.91875 168.31006 28.81757 168.60092 28.75458 C 168.89179 28.6916 169.35823 28.59073 169.64908 28.52795 C 169.93994 28.46516 170.40639 28.3646 170.69725 28.30202 C 170.9881 28.23944 171.45455 28.1393 171.7454 28.0769 C 172.03627 28.01451 172.50273 27.91455 172.79358 27.85236 C 173.08444 27.79016 173.55089 27.69061 173.84175 27.62863 C 174.1326 27.56665 174.59905 27.46742 174.88991 27.40565 C 175.18077 27.34387 175.64722 27.2449 175.93808 27.1833 C 176.22895 27.1217 176.69539 27.02306 176.98624 26.96165 C 177.2771 26.90025 177.74355 26.80188 178.03441 26.74066 C 178.32527 26.67944 178.79172 26.58142 179.08258 26.5204 C 179.37345 26.45938 179.83989 26.36163 180.13074 26.3008 C 180.4216 26.23996 180.88805 26.14255 181.17891 26.0819 C 181.46976 26.02124 181.9362 25.92409 182.22707 25.86362 C 182.51793 25.80315 182.98438 25.70628 183.27524 25.64598 C 183.5661 25.5857 184.03255 25.48917 184.32341 25.42906 C 184.61426 25.36894 185.0807 25.27264 185.37157 25.21272 C 185.66243 25.15279 186.12888 25.05682 186.41974 24.99706 C 186.7106 24.9373 187.17705 24.84158 187.4679 24.782 C 187.75876 24.72243 188.2252 24.627 188.51607 24.5676 C 188.80692 24.50818 189.27338 24.41298 189.56424 24.35376 C 189.8551 24.29453 190.32154 24.19969 190.6124 24.14063 C 190.90326 24.08157 191.3697 23.98692 191.66057 23.92802 C 191.95142 23.86914 192.41786 23.77481 192.70873 23.71608 C 192.99959 23.65736 193.46604 23.56328 193.7569 23.50471 C 194.04776 23.44615 194.5142 23.35233 194.80506 23.29395 C 195.09592 23.23555 195.56237 23.14203 195.85323 23.0838 C 196.14408 23.02557 196.61054 22.93228 196.9014 22.8742 C 197.19226 22.81615 197.6587 22.7231 197.94956 22.6652 C 198.24042 22.6073 198.70687 22.51453 198.99773 22.45679 C 199.28858 22.39903 199.75504 22.30649 200.0459 22.24889 C 200.33676 22.1913 200.80319 22.09903 201.09406 22.0416 C 201.38492 21.98416 201.85137 21.89217 202.14221 21.83488 C 202.43308 21.7776 202.89952 21.68584 203.19039 21.62871 C 203.48125 21.57158 203.9477 21.48006 204.23856 21.42308 C 204.52942 21.3661 204.99587 21.27486 205.28672 21.21803 C 205.57758 21.16121 206.04402 21.07019 206.33489 21.01352 C 206.62574 20.95685 207.0922 20.86606 207.38306 20.80954 C 207.67392 20.75302 208.14035 20.66249 208.43122 20.60611 C 208.72208 20.54973 209.18852 20.45938 209.47939 20.40315 C 209.77024 20.34691 210.2367 20.25685 210.52756 20.20078 C 210.81842 20.1447 211.28485 20.05482 211.57572 19.99889 C 211.86658 19.94293 212.33303 19.85332 212.62387 19.79753 C 212.91474 19.74174 213.38118 19.65234 213.67205 19.59671 C 213.96289 19.54108 214.72022 19.39642 214.72022 19.39642 "/>
<path transform="matrix(1,0,0,-1,13.517,174.48799)" stroke-width="1.19553" stroke-linecap="butt" stroke-miterlimit="10" stroke-linejoin="miter" fill="none" stroke="#800000" d="M 6.1349 170.1679 C 6.1349 170.1679 12.41418 164.78112 14.8259 162.71218 C 17.23763 160.64325 21.10522 157.32538 23.51694 155.25644 C 25.92865 153.18752 29.79623 149.86966 32.20795 147.80072 C 34.61967 145.7318 38.48727 142.41394 40.89899 140.345 C 43.3107 138.27608 47.17828 134.95822 49.59 132.88928 C 52.00172 130.82036 55.86928 127.5025 58.281 125.43356 C 60.69272 123.36464 64.56032 120.04677 66.97203 117.97783 C 69.38376 115.9089 73.25133 112.59106 75.66306 110.52213 C 78.07477 108.4532 81.94237 105.13533 84.35408 103.06639 C 86.76581 100.99747 90.63338 97.67961 93.0451 95.61067 C 95.45682 93.54175 99.32442 90.22388 101.73613 88.15494 C 104.14784 86.08601 108.01541 82.76817 110.42714 80.69923 C 112.83885 78.63031 116.70644 75.31245 119.11815 73.24352 C 121.52986 71.17459 125.39745 67.85672 127.80917 65.78778 C 130.22089 63.71886 134.08847 60.40099 136.50019 58.33205 C 138.9119 56.26312 142.77948 52.94525 145.1912 50.87631 C 147.60292 48.80739 151.4705 45.48952 153.88222 43.4206 C 156.29393 41.35168 160.1615 38.03392 162.57321 35.965 C 164.98494 33.89609 168.85253 30.5782 171.26424 28.50926 C 173.67595 26.44034 177.54354 23.12247 179.95525 21.05353 C 182.36698 18.9846 186.23455 15.66675 188.64627 13.59781 C 191.05799 11.52888 194.92557 8.21101 197.33728 6.14207 C 199.74901 4.07315 203.61656 .75528 206.02829 -1.31364 C 208.44 -3.38257 214.7193 -8.76936 214.7193 -8.76936 "/>
<symbol id="font_3_1">
<path d="M .305 .31300003 C .311 .33900003 .334 .43100003 .404 .43100003 C .409 .43100003 .433 .43100003 .454 .418 C .426 .41300003 .40600003 .388 .40600003 .36400003 C .40600003 .34800003 .417 .32900004 .444 .32900004 C .46600003 .32900004 .498 .34700004 .498 .38700003 C .498 .43900005 .439 .45300005 .405 .45300005 C .347 .45300005 .312 .40000005 .3 .37700004 C .275 .44300003 .221 .45300005 .19200002 .45300005 C .08800001 .45300005 .031000002 .32400004 .031000002 .29900003 C .031000002 .28900004 .041 .28900004 .043000007 .28900004 C .051000008 .28900004 .054000006 .291 .056 .3 C .09 .40600003 .156 .43100003 .19000001 .43100003 C .209 .43100003 .244 .42200003 .244 .36400003 C .244 .33300004 .22700002 .26600004 .19000001 .126 C .17400001 .064 .13900002 .022000002 .095000009 .022000002 C .08900001 .022000002 .06600001 .022000002 .045 .035 C .07000001 .040000004 .09200001 .061 .09200001 .089 C .09200001 .116000007 .07000001 .124000009 .055000009 .124000009 C .025 .124000009 0 .098000008 0 .06600001 C 0 .020000002 .050000006 0 .094000007 0 C .16000001 0 .19600001 .07000001 .19900002 .076000008 C .21100001 .039 .24700003 0 .307 0 C .41 0 .467 .12900001 .467 .15400002 C .467 .16400002 .458 .16400002 .455 .16400002 C .446 .16400002 .444 .16000001 .442 .15300001 C .409 .046 .341 .022000002 .30900003 .022000002 C .27 .022000002 .254 .054 .254 .08800001 C .254 .11000001 .26 .13200002 .271 .17600002 L .305 .31300003 Z "/>
</symbol>
<use xlink:href="#font_3_1" transform="matrix(9.9626,0,0,-9.9626,117.62292,25.309586)" fill="#000080"/>
<symbol id="font_4_8">
<path d="M .63100007 .19400002 C .646 .19400002 .665 .19400002 .665 .214 C .665 .23400001 .646 .23400001 .632 .23400001 L .033 .23400001 C .019000002 .23400001 0 .23400001 0 .214 C 0 .19400002 .019000002 .19400002 .034 .19400002 L .63100007 .19400002 M .632 0 C .646 0 .665 0 .665 .02000001 C .665 .040000008 .646 .040000008 .63100007 .040000008 L .034 .040000008 C .019000002 .040000008 0 .040000008 0 .02000001 C 0 0 .019000002 0 .033 0 L .632 0 Z "/>
</symbol>
<symbol id="font_4_5">
<path d="M .266 .165 L .266 .078 C .266 .042000005 .26400004 .031000002 .19000001 .031000002 L .16900002 .031000002 L .16900002 0 C .21000001 .003 .26200003 .003 .30400003 .003 C .34600003 .003 .39900003 .003 .44000004 0 L .44000004 .031000002 L .41900004 .031000002 C .34500004 .031000002 .34300003 .042000005 .34300003 .078 L .34300003 .165 L .44300003 .165 L .44300003 .19600001 L .34300003 .19600001 L .34300003 .651 C .34300003 .671 .34300003 .67700007 .32700003 .67700007 C .31800003 .67700007 .31500004 .67700007 .307 .665 L 0 .19600001 L 0 .165 L .266 .165 M .272 .19600001 L .028 .19600001 L .272 .569 L .272 .19600001 Z "/>
</symbol>
<use xlink:href="#font_4_8" transform="matrix(9.9626,0,0,-9.9626,126.352909,23.874972)" fill="#000080"/>
<use xlink:href="#font_4_5" transform="matrix(9.9626,0,0,-9.9626,136.59445,25.199997)" fill="#000080"/>
<symbol id="font_3_2">
<path d="M .45700003 .586 C .461 .6 .461 .602 .461 .609 C .461 .62700006 .447 .63600006 .432 .63600006 C .42200003 .63600006 .40600003 .63 .397 .615 C .395 .61 .387 .579 .38300003 .561 C .37600003 .535 .36900003 .508 .363 .48100005 L .318 .301 C .314 .286 .271 .21600002 .20500002 .21600002 C .15400002 .21600002 .143 .26000003 .143 .29700003 C .143 .34300003 .16000001 .40500004 .194 .49300004 C .21000001 .53400006 .21400002 .545 .21400002 .56500008 C .21400002 .61 .18200001 .6470001 .13200002 .6470001 C .037 .6470001 0 .50200006 0 .49300004 C 0 .48300005 .01 .48300005 .012 .48300005 C .022000002 .48300005 .023 .485 .028000003 .50100007 C .055000009 .595 .095000009 .625 .12900001 .625 C .13700001 .625 .15400002 .625 .15400002 .59300008 C .15400002 .568 .14400001 .54200008 .13700001 .523 C .097 .41700004 .079 .36 .079 .31300003 C .079 .224 .142 .194 .201 .194 C .24000003 .194 .274 .21100001 .30200003 .23900002 C .289 .187 .277 .13800001 .237 .08500001 C .21100001 .051 .17300001 .022 .127 .022 C .113000009 .022 .068 .025000006 .051000008 .06400001 C .067 .06400001 .080000009 .06400001 .094000007 .076000008 C .104 .08500001 .11400001 .098000008 .11400001 .117000009 C .11400001 .148 .087000008 .15200001 .07700001 .15200001 C .054000006 .15200001 .021 .136 .021 .087000008 C .021 .037 .065000008 0 .127 0 C .23 0 .333 .091000009 .361 .20400001 L .45700003 .586 Z "/>
</symbol>
<use xlink:href="#font_3_2" transform="matrix(9.9626,0,0,-9.9626,141.5809,27.24233)" fill="#000080"/>
<symbol id="font_5_1">
<path d="M .442 .18200001 L .40800003 .18200001 C .40500004 .16000001 .39500005 .101 .38200004 .091000009 C .374 .085 .29700003 .085 .28300003 .085 L .099 .085 C .20400003 .178 .23900002 .20600002 .29900003 .25300003 C .37300004 .312 .442 .374 .442 .469 C .442 .59000006 .33600004 .66400006 .20800004 .66400006 C .084 .66400006 0 .577 0 .485 C 0 .43400003 .043000007 .42900003 .053000004 .42900003 C .077 .42900003 .10600001 .446 .10600001 .48200003 C .10600001 .5 .099 .535 .047000007 .535 C .078 .606 .146 .628 .19300002 .628 C .293 .628 .34500004 .55 .34500004 .469 C .34500004 .38200004 .28300003 .31300003 .25100003 .277 L .010000005 .039 C 0 .030000002 0 .028 0 0 L .41200004 0 L .442 .18200001 Z "/>
</symbol>
<use xlink:href="#font_5_1" transform="matrix(6.9738,0,0,-6.9738,146.97335,21.08699)" fill="#000080"/>
<use xlink:href="#font_3_1" transform="matrix(9.9626,0,0,-9.9626,152.17691,110.17558)" fill="#800000"/>
<symbol id="font_4_1">
<path d="M .35300002 .31300003 L .632 .31300003 C .646 .31300003 .665 .31300003 .665 .333 C .665 .35300002 .646 .35300002 .632 .35300002 L .35300002 .35300002 L .35300002 .633 C .35300002 .647 .35300002 .666 .33300004 .666 C .31300003 .666 .31300003 .647 .31300003 .633 L .31300003 .35300002 L .033 .35300002 C .019000002 .35300002 0 .35300002 0 .333 C 0 .31300003 .019000002 .31300003 .033 .31300003 L .31300003 .31300003 L .31300003 .033000005 C .31300003 .019000002 .31300003 0 .33300004 0 C .35300002 0 .35300002 .019000002 .35300002 .033000005 L .35300002 .31300003 Z "/>
</symbol>
<use xlink:href="#font_4_1" transform="matrix(9.9626,0,0,-9.9626,160.35391,110.89289)" fill="#800000"/>
<use xlink:href="#font_4_5" transform="matrix(9.9626,0,0,-9.9626,170.03755,110.065998)" fill="#800000"/>
<use xlink:href="#font_3_2" transform="matrix(9.9626,0,0,-9.9626,175.02892,112.10833)" fill="#800000"/>
<symbol id="font_4_7">
<path d="M .121 .47900004 C .075 .509 .071 .54300007 .071 .56000009 C .071 .62100008 .136 .66300007 .20700002 .66300007 C .28000004 .66300007 .344 .61100009 .344 .53900006 C .344 .48200003 .305 .43400005 .245 .39900003 L .121 .47900004 M .26700003 .38400004 C .33900003 .42100004 .388 .47300006 .388 .53900006 C .388 .63100007 .29900003 .688 .208 .688 C .108 .688 .027000003 .614 .027000003 .521 C .027000003 .503 .029 .45800004 .071 .41100005 C .082 .39900003 .11900001 .37400005 .144 .35700003 C .086 .32800005 0 .272 0 .17300001 C 0 .067 .102000009 0 .20700002 0 C .32000003 0 .41500003 .083000008 .41500003 .19000001 C .41500003 .22600001 .404 .27100004 .36600004 .31300003 C .34700004 .33400003 .33100004 .34400005 .26700003 .38400004 M .167 .34200005 L .29000003 .26400004 C .31800003 .245 .365 .215 .365 .154 C .365 .080000009 .29000003 .028 .208 .028 C .122 .028 .050000006 .09 .050000006 .17300001 C .050000006 .231 .082 .29500003 .167 .34200005 Z "/>
</symbol>
<use xlink:href="#font_4_8" transform="matrix(9.9626,0,0,-9.9626,183.30692,108.74097)" fill="#800000"/>
<use xlink:href="#font_4_7" transform="matrix(9.9626,0,0,-9.9626,193.68795,110.28517)" fill="#800000"/>
</g>
<symbol id="font_4_6">
<path d="M .39900003 .223 C .39900003 .34200005 .317 .44200004 .209 .44200004 C .16100002 .44200004 .118000019 .42600004 .082 .39100004 L .082 .586 C .10200001 .58000007 .135 .573 .16700001 .573 C .29 .573 .36 .66400006 .36 .67700007 C .36 .683 .357 .688 .35 .688 C .349 .688 .347 .688 .342 .68500009 C .322 .67600008 .273 .656 .20600002 .656 C .16600001 .656 .120000008 .66300007 .073 .6840001 C .065 .68700006 .06300001 .68700006 .061000009 .68700006 C .051000004 .68700006 .051000004 .679 .051000004 .66300007 L .051000004 .36700005 C .051000004 .34900005 .051000004 .34100003 .065 .34100003 C .07200001 .34100003 .074 .34400005 .07800001 .35000003 C .08900002 .36600004 .12600002 .42000006 .207 .42000006 C .259 .42000006 .284 .37400005 .292 .35600005 C .308 .31900005 .31 .28000004 .31 .23 C .31 .19500001 .31 .135 .286 .093 C .262 .054000006 .22500001 .028 .17900002 .028 C .106000009 .028 .049000008 .08100001 .032 .14000002 C .035 .13900002 .038000008 .13800001 .049000008 .13800001 C .082 .13800001 .09900001 .163 .09900001 .187 C .09900001 .21100001 .082 .23600002 .049000008 .23600002 C .035 .23600002 0 .22900002 0 .18300002 C 0 .097 .069000009 0 .18100001 0 C .297 0 .39900003 .096 .39900003 .223 Z "/>
</symbol>
<use xlink:href="#font_4_6" transform="matrix(9.9626,0,0,-9.9626,70.82813,88.53316)"/>
<symbol id="font_4_3">
<path d="M .205 .64000007 C .205 .66400006 .205 .666 .18200003 .666 C .120000008 .60200008 .032000007 .60200008 0 .60200008 L 0 .57100006 C .020000004 .57100006 .07900001 .57100006 .13100001 .597 L .13100001 .079 C .13100001 .043 .128 .031000002 .038000004 .031000002 L .0060000049 .031000002 L .0060000049 0 C .04100001 .003 .128 .003 .168 .003 C .20800002 .003 .29500003 .003 .33000005 0 L .33000005 .031000002 L .29800005 .031000002 C .20800002 .031000002 .205 .042000005 .205 .079 L .205 .64000007 Z "/>
</symbol>
<symbol id="font_4_2">
<path d="M .421 .34200005 C .421 .42200003 .416 .50200006 .381 .57600006 C .335 .67200008 .25300003 .688 .211 .688 C .15100001 .688 .07800001 .66200008 .037000006 .56900009 C .0050000029 .5 0 .42200003 0 .34200005 C 0 .26700003 .0040000008 .177 .045000007 .101 C .088 .020000002 .161 0 .21000001 0 C .264 0 .34 .021000002 .384 .116000007 C .416 .185 .421 .263 .421 .34200005 M .21000001 .022000002 C .171 .022000002 .112 .047000003 .094 .143 C .083000008 .20300001 .083000008 .29500003 .083000008 .35400004 C .083000008 .41800005 .083000008 .48400004 .091000009 .53800007 C .11 .65700009 .185 .66600009 .21000001 .66600009 C .243 .66600009 .30900003 .64800009 .328 .549 C .338 .49300004 .338 .41700004 .338 .35400004 C .338 .279 .338 .21100001 .32700003 .147 C .312 .052 .255 .022000002 .21000001 .022000002 Z "/>
</symbol>
<use xlink:href="#font_4_3" transform="matrix(9.9626,0,0,-9.9626,119.84867,88.31398)"/>
<use xlink:href="#font_4_2" transform="matrix(9.9626,0,0,-9.9626,124.33184,88.53316)"/>
<use xlink:href="#font_4_3" transform="matrix(9.9626,0,0,-9.9626,170.97267,88.31398)"/>
<use xlink:href="#font_4_6" transform="matrix(9.9626,0,0,-9.9626,175.56542,88.53316)"/>
<symbol id="font_6_1">
<path d="M .57600006 0 C .59300008 0 .611 0 .611 .019999996 C .611 .040000008 .59300008 .040000008 .57600006 .040000008 L .035000005 .040000008 C .018 .040000008 0 .040000008 0 .019999996 C 0 0 .018 0 .035000005 0 L .57600006 0 Z "/>
</symbol>
<use xlink:href="#font_6_1" transform="matrix(9.9626,0,0,-9.9626,4.147896,146.92259)"/>
<symbol id="font_4_4">
<path d="M .07700001 .07700001 L .18300002 .18 C .33900003 .31800003 .39900003 .372 .39900003 .47200004 C .39900003 .586 .30900003 .666 .18700002 .666 C .074 .666 0 .574 0 .485 C 0 .42900003 .05 .42900003 .053000008 .42900003 C .07000001 .42900003 .105000007 .441 .105000007 .48200003 C .105000007 .508 .08700001 .53400006 .052000006 .53400006 C .044000005 .53400006 .042000008 .53400006 .039 .53300008 C .062000004 .59800007 .11600001 .63500007 .17400001 .63500007 C .26500003 .63500007 .308 .554 .308 .47200004 C .308 .39200003 .25800003 .31300003 .20300003 .25100003 L .011000004 .037 C 0 .026 0 .024 0 0 L .37100003 0 L .39900003 .17400001 L .374 .17400001 C .36900003 .14400001 .36200003 .1 .352 .085 C .345 .07700001 .279 .07700001 .257 .07700001 L .07700001 .07700001 Z "/>
</symbol>
<use xlink:href="#font_4_4" transform="matrix(9.9626,0,0,-9.9626,11.56713,149.21399)"/>
<use xlink:href="#font_6_1" transform="matrix(9.9626,0,0,-9.9626,4.147896,111.837589)"/>
<use xlink:href="#font_4_3" transform="matrix(9.9626,0,0,-9.9626,11.955671,114.12898)"/>
<use xlink:href="#font_4_3" transform="matrix(9.9626,0,0,-9.9626,11.955671,44.371995)"/>
<use xlink:href="#font_3_1" transform="matrix(9.9626,0,0,-9.9626,211.62992,78.48358)"/>
<use xlink:href="#font_3_2" transform="matrix(9.9626,0,0,-9.9626,19.365916,9.652319)"/>
<path transform="matrix(1,0,0,-1,13.517,174.48799)" stroke-width="1" stroke-linecap="butt" stroke-miterlimit="10" stroke-linejoin="miter" fill="none" stroke="#808080" d="M 59.30412 96.1152 L 59.30412 100.3673 M 110.42838 96.1152 L 110.42838 100.3673 M 161.55263 96.1152 L 161.55263 100.3673 "/>
<path transform="matrix(1,0,0,-1,13.517,174.48799)" stroke-width="1" stroke-linecap="butt" stroke-miterlimit="10" stroke-linejoin="miter" fill="none" stroke="#808080" d="M 6.05359 28.06892 L 10.30614 28.06892 M 6.05359 63.15509 L 10.30614 63.15509 M 6.05359 133.32743 L 10.30614 133.32743 "/>
<path transform="matrix(1,0,0,-1,13.517,174.48799)" stroke-width="1" stroke-linecap="butt" stroke-miterlimit="10" stroke-linejoin="miter" fill="none" stroke="#000000" d="M 0 98.24126 L 192.27964 98.24126 "/>
<path transform="matrix(1,0,0,-1,205.79663,76.246738)" d="M 1.99252 0 L -1.19551 1.59401 L 0 0 L -1.19551 -1.59401 "/>
<path transform="matrix(1,0,0,-1,13.517,174.48799)" stroke-width="1" stroke-linecap="butt" stroke-miterlimit="10" stroke-linejoin="miter" fill="none" stroke="#000000" d="M 8.17987 0 L 8.17987 159.40384 "/>
<path transform="matrix(0,-1,-1,-0,21.696869,15.084152)" d="M 1.99252 0 L -1.19551 1.59401 L 0 0 L -1.19551 -1.59401 "/>
</svg>
