<?xml version="1.0" encoding="UTF-8" standalone="no"?>
<!DOCTYPE svg PUBLIC "-//W3C//DTD SVG 1.1//EN" "http://www.w3.org/Graphics/SVG/1.1/DTD/svg11.dtd">
<svg xmlns="http://www.w3.org/2000/svg" xmlns:xlink="http://www.w3.org/1999/xlink" version="1.1" width="207.055pt" height="174.66pt" viewBox="0 0 207.055 174.66">
<clipPath id="cp0">
<path transform="matrix(1,0,0,-1,.199,174.461)" d="M 0 0 L 194.27399 0 L 194.27399 161.39636 L 0 161.39636 Z "/>
</clipPath>
<g clip-path="url(#cp0)">
<path transform="matrix(1,0,0,-1,.199,174.461)" d="M 16.1895 77.18956 L 16.88387 86.36102 L 17.57826 90.13205 L 18.27266 93.00652 L 18.96704 95.41367 L 19.66144 97.52025 L 20.35583 99.41219 L 21.05022 101.1398 L 21.74461 102.73679 L 22.43901 104.22626 L 23.13339 105.62509 L 23.82779 106.94612 L 24.52219 108.19923 L 25.21657 109.39241 L 25.91096 110.53203 L 26.60536 111.62349 L 27.29973 112.67116 L 27.99413 113.67882 L 28.68852 114.64975 L 29.3829 115.5867 L 30.0773 116.4921 L 30.7717 117.3681 L 31.46608 118.21657 L 32.16048 119.03918 L 32.85487 119.83745 L 33.54926 120.6127 L 34.24365 121.36615 L 34.93805 122.09889 L 35.63243 122.81192 L 36.32683 123.50615 L 37.02122 124.18243 L 37.7156 124.8415 L 38.40999 125.4841 L 39.10439 126.11081 L 39.79877 126.72232 L 40.49316 127.31914 L 41.18756 127.90178 L 41.88194 128.47072 L 42.57634 129.02645 L 43.27074 129.56937 L 43.96512 130.09986 L 44.65952 130.61832 L 45.35391 131.12505 L 46.0483 131.6204 L 46.74269 132.10472 L 47.43709 132.57826 L 48.13148 133.04128 L 48.82585 133.49405 L 49.52025 133.93686 L 50.21465 134.36989 L 50.90903 134.79337 L 51.60342 135.2075 L 52.29782 135.6125 L 52.99222 136.00856 L 53.6866 136.39586 L 54.381 136.77454 L 55.0754 137.14479 L 55.76978 137.50676 L 56.46417 137.86061 L 57.15857 138.20647 L 57.85295 138.54445 L 58.54735 138.87473 L 59.24173 139.1974 L 59.93613 139.51259 L 60.63051 139.82042 L 61.3249 140.12097 L 62.0193 140.41436 L 62.71368 140.70069 L 63.40808 140.98006 L 64.10248 141.25255 L 64.79686 141.51825 L 65.49126 141.77727 L 66.18565 142.02965 L 66.88005 142.27548 L 67.57443 142.51483 L 68.26883 142.7478 L 68.96323 142.97443 L 69.65761 143.19478 L 70.35199 143.40894 L 71.04639 143.61696 L 71.74077 143.8189 L 72.43517 144.01479 L 73.12956 144.20468 L 73.82394 144.38867 L 74.51834 144.56678 L 75.21274 144.73903 L 75.90714 144.90552 L 76.60152 145.06626 L 77.29591 145.2213 L 77.99031 145.37065 L 78.6847 145.51438 L 79.37909 145.65251 L 80.07349 145.7851 L 80.76785 145.91216 L 81.46225 146.03369 L 82.15665 146.14978 L 82.85104 146.26042 L 83.54543 146.36565 L 84.23982 146.46549 L 84.93422 146.55995 L 85.6286 146.64908 L 86.323 146.73288 L 87.0174 146.81137 L 87.71178 146.8846 L 88.40617 146.95253 L 89.10057 147.01522 L 89.79497 147.07265 L 90.48935 147.12485 L 91.18375 147.17185 L 91.87813 147.21364 L 92.57253 147.25023 L 93.2669 147.28163 L 93.9613 147.30786 L 94.6557 147.3289 L 95.3501 147.34479 L 96.04448 147.35549 L 96.73888 147.36104 L 97.43327 147.36142 L 98.12767 147.35663 L 98.82205 147.34668 L 99.51645 147.33156 L 100.21085 147.31127 L 100.90524 147.2858 L 101.59962 147.25516 L 102.294 147.21933 L 102.9884 147.1783 L 103.68279 147.13208 L 104.37718 147.08063 L 105.07158 147.02396 L 105.76598 146.96205 L 106.46036 146.89487 L 107.15475 146.82245 L 107.84915 146.74472 L 108.54355 146.6617 L 109.23793 146.57335 L 109.93233 146.47966 L 110.62672 146.38062 L 111.3211 146.2762 L 112.0155 146.16635 L 112.7099 146.05106 L 113.40427 145.9303 L 114.09866 145.80406 L 114.79306 145.67232 L 115.48744 145.53499 L 116.18184 145.39208 L 116.87624 145.24355 L 117.57062 145.08934 L 118.26501 144.92948 L 118.95941 144.76381 L 119.6538 144.59239 L 120.34819 144.41516 L 121.04259 144.23203 L 121.73697 144.043 L 122.43137 143.84798 L 123.12576 143.64694 L 123.82013 143.43982 L 124.51453 143.22658 L 125.20892 143.00713 L 125.9033 142.78144 L 126.5977 142.5494 L 127.2921 142.31098 L 127.98648 142.06609 L 128.68088 141.81467 L 129.37528 141.55666 L 130.06966 141.29193 L 130.76406 141.02045 L 131.45845 140.74208 L 132.15283 140.45677 L 132.84723 140.16443 L 133.54163 139.86493 L 134.23601 139.55818 L 134.93039 139.2441 L 135.62479 138.92252 L 136.31917 138.59339 L 137.01357 138.25652 L 137.70796 137.91182 L 138.40236 137.55916 L 139.09674 137.19838 L 139.79114 136.82935 L 140.48554 136.45192 L 141.17992 136.06589 L 141.87432 135.67113 L 142.56871 135.26744 L 143.26309 134.85466 L 143.95749 134.43256 L 144.65189 134.00095 L 145.34627 133.5596 L 146.04065 133.1083 L 146.73505 132.6468 L 147.42945 132.1748 L 148.12383 131.69213 L 148.81822 131.19838 L 149.51262 130.69332 L 150.207 130.17662 L 150.9014 129.6479 L 151.5958 129.10684 L 152.29019 128.55303 L 152.98458 127.98604 L 153.67897 127.40543 L 154.37337 126.81073 L 39.89633 27.57207 L 39.77724 27.67554 L 39.6581 27.77946 L 39.53897 27.88382 L 39.41983 27.98863 L 39.30069 28.09387 L 39.18156 28.19955 L 39.06244 28.3057 L 38.94331 28.41228 L 38.82417 28.51932 L 38.70505 28.6268 L 38.58592 28.73476 L 38.4668 28.84314 L 38.34767 28.95204 L 38.22853 29.06139 L 38.1094 29.17119 L 37.99026 29.28148 L 37.87112 29.39226 L 37.75201 29.50351 L 37.63287 29.61523 L 37.51375 29.72746 L 37.39462 29.84015 L 37.27548 29.95337 L 37.15636 30.06708 L 37.03723 30.18127 L 36.9181 30.29599 L 36.79897 30.4112 L 36.67984 30.52695 L 36.5607 30.6432 L 36.44159 30.75996 L 36.32245 30.87726 L 36.20332 30.99507 L 36.0842 31.11342 L 35.96506 31.23232 L 35.84593 31.35176 L 35.7268 31.47176 L 35.60767 31.59227 L 35.48854 31.71336 L 35.3694 31.835 L 35.25027 31.95721 L 35.13113 32.08 L 35.01202 32.20332 L 34.8929 32.32724 L 34.77376 32.45175 L 34.65463 32.57684 L 34.53549 32.70251 L 34.41638 32.8288 L 34.29724 32.95567 L 34.1781 33.08318 L 34.05898 33.21127 L 33.93985 33.33998 L 33.82072 33.46931 L 33.7016 33.5993 L 33.58246 33.7299 L 33.46333 33.86113 L 33.3442 33.99301 L 33.22507 34.12556 L 33.10593 34.25876 L 32.98682 34.39261 L 32.86768 34.52715 L 32.74855 34.66234 L 32.62943 34.79823 L 32.51028 34.93481 L 32.39117 35.0721 L 32.27203 35.21005 L 32.15291 35.34875 L 32.03377 35.48814 L 31.91463 35.62828 L 31.7955 35.76915 L 31.67638 35.91075 L 31.55727 36.05309 L 31.43813 36.19618 L 31.31898 36.34004 L 31.19986 36.48468 L 31.08072 36.63008 L 30.96161 36.77629 L 30.84247 36.9233 L 30.72334 37.07108 L 30.6042 37.2197 L 30.48506 37.36913 L 30.36595 37.51941 L 30.24683 37.6705 L 30.1277 37.82245 L 30.00856 37.97528 L 29.88942 38.12895 L 29.7703 38.28352 L 29.65117 38.439 L 29.53204 38.59538 L 29.4129 38.75266 L 29.29378 38.91086 L 29.17465 39.06999 L 29.05551 39.23009 L 28.9364 39.39113 L 28.81726 39.55315 L 28.69814 39.71617 L 28.579 39.88014 L 28.45987 40.04518 L 28.34074 40.21121 L 28.2216 40.3783 L 28.10248 40.54642 L 27.98335 40.71562 L 27.86423 40.88591 L 27.74509 41.05728 L 27.62596 41.22978 L 27.50684 41.4034 L 27.3877 41.57819 L 27.26857 41.75409 L 27.14943 41.93121 L 27.0303 42.10951 L 26.91118 42.28906 L 26.79205 42.46979 L 26.67293 42.65182 L 26.55379 42.83511 L 26.43466 43.01968 L 26.31554 43.2056 L 26.1964 43.39284 L 26.07727 43.58145 L 25.95813 43.77142 L 25.839 43.96281 L 25.71986 44.15565 L 25.60075 44.34991 L 25.48163 44.54568 L 25.36249 44.74295 L 25.24336 44.94177 L 25.12422 45.14215 L 25.0051 45.34412 L 24.88597 45.54773 L 24.76685 45.75298 L 24.6477 45.95993 L 24.52856 46.16861 L 24.40945 46.37903 L 24.29033 46.59125 L 24.1712 46.80531 L 24.05206 47.02124 L 23.93292 47.23909 L 23.8138 47.4589 L 23.69466 47.6807 L 23.57555 47.90454 L 23.4564 48.13048 L 23.33728 48.35855 L 23.21814 48.58882 L 23.09901 48.82132 L 22.97989 49.05612 L 22.86076 49.29329 L 22.74164 49.53288 L 22.6225 49.77496 L 22.50336 50.01958 L 22.38423 50.26683 L 22.2651 50.51675 L 22.14598 50.76945 L 22.02684 51.02501 L 21.90771 51.28348 L 21.78859 51.54497 L 21.66945 51.8096 L 21.55034 52.07741 L 21.4312 52.34856 L 21.31207 52.62312 L 21.19293 52.90125 L 21.0738 53.18304 L 20.95467 53.46861 L 20.83554 53.75812 L 20.71643 54.05171 L 20.59729 54.34955 L 20.47816 54.6518 L 20.35902 54.9586 L 20.2399 55.27055 L 20.12077 55.58717 L 20.00163 55.90897 L 19.8825 56.23624 L 19.76337 56.56921 L 19.64424 56.90817 L 19.52513 57.25337 L 19.40599 57.60529 L 19.28687 57.96416 L 19.16772 58.33044 L 19.0486 58.70456 L 18.92946 59.08699 L 18.81033 59.47829 L 18.69121 59.87903 L 18.57207 60.28992 L 18.45294 60.71165 L 18.33382 61.14513 L 18.21469 61.59137 L 18.09557 62.05147 L 17.97643 62.52673 L 17.8573 63.01863 L 17.73816 63.52905 L 17.61903 64.0601 L 17.49991 64.61441 L 17.38078 65.19518 L 17.26164 65.8065 L 17.14252 66.45346 L 17.02339 67.14319 L 16.90425 67.885 L 16.78514 68.69257 L 16.666 69.58682 L 16.54686 70.60292 L 16.42773 71.80965 L 16.3086 73.38403 L 16.1895 77.18956 Z " fill="#cccce6"/>
</g>
<clipPath id="cp1">
<path transform="matrix(1,0,0,-1,.199,174.461)" d="M 0 0 L 194.27399 0 L 194.27399 161.39636 L 0 161.39636 Z "/>
</clipPath>
<g clip-path="url(#cp1)">
<path transform="matrix(1,0,0,-1,.199,174.461)" stroke-width="1.19553" stroke-linecap="butt" stroke-miterlimit="10" stroke-linejoin="miter" fill="none" stroke="#000080" d="M 16.1895 77.18956 C 16.1895 77.18956 16.6912 84.56528 16.88387 86.36102 C 17.07655 88.15675 17.38559 89.21 17.57826 90.13205 C 17.77095 91.0541 18.07997 92.27371 18.27266 93.00652 C 18.46535 93.73933 18.77435 94.7874 18.96704 95.41367 C 19.15973 96.03992 19.46875 96.96547 19.66144 97.52025 C 19.85413 98.07503 20.16315 98.90999 20.35583 99.41219 C 20.54852 99.91438 20.85753 100.67853 21.05022 101.1398 C 21.2429 101.60107 21.55193 102.30855 21.74461 102.73679 C 21.9373 103.16502 22.24632 103.82552 22.43901 104.22626 C 22.6317 104.627 22.9407 105.24771 23.13339 105.62509 C 23.32608 106.00246 23.6351 106.58897 23.82779 106.94612 C 24.02048 107.30328 24.3295 107.85982 24.52219 108.19923 C 24.71487 108.53865 25.02388 109.06874 25.21657 109.39241 C 25.40924 109.71608 25.71828 110.22249 25.91096 110.53203 C 26.10364 110.84157 26.41267 111.32669 26.60536 111.62349 C 26.79803 111.92027 27.10706 112.38599 27.29973 112.67116 C 27.49242 112.95633 27.80145 113.4043 27.99413 113.67882 C 28.18681 113.95334 28.49585 114.38504 28.68852 114.64975 C 28.88121 114.91447 29.19022 115.33109 29.3829 115.5867 C 29.57559 115.84232 29.88461 116.24495 30.0773 116.4921 C 30.26999 116.73926 30.57901 117.12883 30.7717 117.3681 C 30.96439 117.60736 31.27339 117.98471 31.46608 118.21657 C 31.65877 118.44843 31.96779 118.8143 32.16048 119.03918 C 32.35316 119.26407 32.66219 119.61913 32.85487 119.83745 C 33.04756 120.05576 33.35657 120.4006 33.54926 120.6127 C 33.74194 120.8248 34.05096 121.15996 34.24365 121.36615 C 34.43634 121.57236 34.74536 121.8983 34.93805 122.09889 C 35.13074 122.29948 35.43974 122.61667 35.63243 122.81192 C 35.82512 123.00719 36.13414 123.31601 36.32683 123.50615 C 36.5195 123.6963 36.82854 123.99716 37.02122 124.18243 C 37.2139 124.36769 37.52292 124.66092 37.7156 124.8415 C 37.90828 125.02211 38.21732 125.308 38.40999 125.4841 C 38.60268 125.6602 38.91171 125.93903 39.10439 126.11081 C 39.29707 126.28261 39.60608 126.55467 39.79877 126.72232 C 39.99146 126.88997 40.30048 127.1555 40.49316 127.31914 C 40.68585 127.48276 40.99487 127.742 41.18756 127.90178 C 41.38025 128.06156 41.68925 128.3147 41.88194 128.47072 C 42.07463 128.62676 42.38365 128.87403 42.57634 129.02645 C 42.76903 129.17888 43.07805 129.42046 43.27074 129.56937 C 43.46342 129.71829 43.77243 129.95432 43.96512 130.09986 C 44.1578 130.24538 44.46683 130.47606 44.65952 130.61832 C 44.8522 130.76056 45.16122 130.98601 45.35391 131.12505 C 45.5466 131.26409 45.8556 131.48448 46.0483 131.6204 C 46.24098 131.75634 46.55 131.97183 46.74269 132.10472 C 46.93536 132.23763 47.2444 132.44832 47.43709 132.57826 C 47.62976 132.70819 47.9388 132.91422 48.13148 133.04128 C 48.32416 133.16834 48.63318 133.36981 48.82585 133.49405 C 49.01854 133.6183 49.32758 133.81536 49.52025 133.93686 C 49.71294 134.05837 50.02197 134.25106 50.21465 134.36989 C 50.40733 134.48873 50.71634 134.67716 50.90903 134.79337 C 51.10172 134.90958 51.41074 135.09384 51.60342 135.2075 C 51.79611 135.32115 52.10513 135.50138 52.29782 135.6125 C 52.49051 135.72365 52.79953 135.89989 52.99222 136.00856 C 53.1849 136.11725 53.49391 136.2896 53.6866 136.39586 C 53.87929 136.50212 54.18831 136.67063 54.381 136.77454 C 54.57368 136.87844 54.8827 137.0432 55.0754 137.14479 C 55.26808 137.24639 55.57709 137.40746 55.76978 137.50676 C 55.96246 137.60608 56.27148 137.76354 56.46417 137.86061 C 56.65686 137.95769 56.96588 138.11159 57.15857 138.20647 C 57.35124 138.30135 57.66026 138.45174 57.85295 138.54445 C 58.04562 138.63718 58.35466 138.78415 58.54735 138.87473 C 58.74002 138.96532 59.04906 139.10892 59.24173 139.1974 C 59.43442 139.2859 59.74345 139.42615 59.93613 139.51259 C 60.12881 139.59903 60.43784 139.73601 60.63051 139.82042 C 60.8232 139.90482 61.13222 140.03858 61.3249 140.12097 C 61.5176 140.20337 61.82661 140.33393 62.0193 140.41436 C 62.21199 140.4948 62.521 140.6222 62.71368 140.70069 C 62.90637 140.77918 63.2154 140.9035 63.40808 140.98006 C 63.60077 141.05661 63.90979 141.17787 64.10248 141.25255 C 64.29517 141.32723 64.60417 141.44545 64.79686 141.51825 C 64.98955 141.59105 65.29857 141.70632 65.49126 141.77727 C 65.68394 141.8482 65.99297 141.96053 66.18565 142.02965 C 66.37834 142.09877 66.68736 142.20816 66.88005 142.27548 C 67.07274 142.34279 67.38174 142.44931 67.57443 142.51483 C 67.76712 142.58036 68.07614 142.68404 68.26883 142.7478 C 68.4615 142.81156 68.77054 142.91243 68.96323 142.97443 C 69.1559 143.03644 69.46492 143.1345 69.65761 143.19478 C 69.85028 143.25507 70.15932 143.35036 70.35199 143.40894 C 70.54468 143.46752 70.85371 143.56009 71.04639 143.61696 C 71.23907 143.67383 71.5481 143.7637 71.74077 143.8189 C 71.93346 143.87407 72.24248 143.96126 72.43517 144.01479 C 72.62785 144.0683 72.93687 144.15282 73.12956 144.20468 C 73.32225 144.25655 73.63126 144.33844 73.82394 144.38867 C 74.01663 144.4389 74.32565 144.51818 74.51834 144.56678 C 74.71103 144.61537 75.02005 144.69205 75.21274 144.73903 C 75.40543 144.78603 75.71445 144.86014 75.90714 144.90552 C 76.09982 144.95092 76.40883 145.02245 76.60152 145.06626 C 76.7942 145.11006 77.10323 145.17906 77.29591 145.2213 C 77.4886 145.26354 77.79762 145.32999 77.99031 145.37065 C 78.183 145.4113 78.492 145.47528 78.6847 145.51438 C 78.87737 145.55348 79.1864 145.61498 79.37909 145.65251 C 79.57176 145.69007 79.8808 145.74909 80.07349 145.7851 C 80.26616 145.8211 80.57518 145.87767 80.76785 145.91216 C 80.96054 145.94663 81.26958 146.00074 81.46225 146.03369 C 81.65494 146.06665 81.96397 146.11832 82.15665 146.14978 C 82.34933 146.18123 82.65836 146.23047 82.85104 146.26042 C 83.04373 146.29036 83.35274 146.3372 83.54543 146.36565 C 83.73811 146.39409 84.04713 146.43854 84.23982 146.46549 C 84.43251 146.49245 84.74153 146.53449 84.93422 146.55995 C 85.1269 146.58542 85.43591 146.62509 85.6286 146.64908 C 85.82129 146.67308 86.13031 146.71036 86.323 146.73288 C 86.51569 146.75539 86.8247 146.79033 87.0174 146.81137 C 87.21008 146.83242 87.51909 146.86502 87.71178 146.8846 C 87.90446 146.90418 88.21349 146.93442 88.40617 146.95253 C 88.59886 146.97066 88.90788 146.99855 89.10057 147.01522 C 89.29326 147.03188 89.60228 147.05744 89.79497 147.07265 C 89.98764 147.08785 90.29666 147.11109 90.48935 147.12485 C 90.68202 147.13861 90.99106 147.15953 91.18375 147.17185 C 91.37642 147.18416 91.68546 147.20278 91.87813 147.21364 C 92.07082 147.2245 92.37985 147.2408 92.57253 147.25023 C 92.76521 147.25966 93.07423 147.27365 93.2669 147.28163 C 93.4596 147.28963 93.76862 147.30132 93.9613 147.30786 C 94.15399 147.3144 94.46301 147.32378 94.6557 147.3289 C 94.84839 147.33403 95.15741 147.34111 95.3501 147.34479 C 95.54279 147.34847 95.85179 147.35324 96.04448 147.35549 C 96.23717 147.35774 96.54619 147.36022 96.73888 147.36104 C 96.93156 147.36186 97.24059 147.36203 97.43327 147.36142 C 97.62596 147.36081 97.93498 147.35868 98.12767 147.35663 C 98.32036 147.3546 98.62936 147.35015 98.82205 147.34668 C 99.01474 147.3432 99.32376 147.33647 99.51645 147.33156 C 99.70914 147.32665 100.01816 147.31761 100.21085 147.31127 C 100.40352 147.30493 100.71255 147.2936 100.90524 147.2858 C 101.09792 147.27802 101.40694 147.26438 101.59962 147.25516 C 101.7923 147.24594 102.10133 147.22998 102.294 147.21933 C 102.4867 147.20867 102.79573 147.1904 102.9884 147.1783 C 103.18109 147.1662 103.49011 147.14563 103.68279 147.13208 C 103.87547 147.11853 104.1845 147.09561 104.37718 147.08063 C 104.56987 147.06563 104.87889 147.0404 105.07158 147.02396 C 105.26427 147.0075 105.57329 146.97995 105.76598 146.96205 C 105.95866 146.94414 106.26767 146.91423 106.46036 146.89487 C 106.65305 146.8755 106.96207 146.84328 107.15475 146.82245 C 107.34744 146.80162 107.65646 146.76703 107.84915 146.74472 C 108.04184 146.72241 108.35086 146.68547 108.54355 146.6617 C 108.73624 146.63793 109.04524 146.5986 109.23793 146.57335 C 109.43062 146.5481 109.73964 146.5064 109.93233 146.47966 C 110.12502 146.45291 110.43404 146.40885 110.62672 146.38062 C 110.81941 146.35239 111.12842 146.30591 111.3211 146.2762 C 111.51378 146.24648 111.82281 146.19757 112.0155 146.16635 C 112.20818 146.13512 112.51721 146.0838 112.7099 146.05106 C 112.90257 146.01831 113.2116 145.96457 113.40427 145.9303 C 113.59695 145.89604 113.90599 145.83986 114.09866 145.80406 C 114.29135 145.76828 114.60039 145.70963 114.79306 145.67232 C 114.98575 145.635 115.29475 145.57387 115.48744 145.53499 C 115.68013 145.49613 115.98915 145.43251 116.18184 145.39208 C 116.37453 145.35164 116.68355 145.28554 116.87624 145.24355 C 117.06892 145.20154 117.37793 145.13292 117.57062 145.08934 C 117.7633 145.04578 118.07233 144.97463 118.26501 144.92948 C 118.4577 144.88431 118.76672 144.81058 118.95941 144.76381 C 119.1521 144.71706 119.4611 144.64076 119.6538 144.59239 C 119.84648 144.54402 120.1555 144.46515 120.34819 144.41516 C 120.54088 144.36516 120.8499 144.28366 121.04259 144.23203 C 121.23528 144.1804 121.54428 144.09629 121.73697 144.043 C 121.92964 143.98972 122.23868 143.90293 122.43137 143.84798 C 122.62404 143.79305 122.93307 143.70357 123.12576 143.64694 C 123.31844 143.59032 123.62746 143.49814 123.82013 143.43982 C 124.01282 143.38152 124.32185 143.2866 124.51453 143.22658 C 124.70721 143.16654 125.01625 143.06888 125.20892 143.00713 C 125.40161 142.94538 125.71062 142.84493 125.9033 142.78144 C 126.096 142.71793 126.40501 142.61466 126.5977 142.5494 C 126.79039 142.48413 127.09941 142.37802 127.2921 142.31098 C 127.48479 142.24391 127.7938 142.13494 127.98648 142.06609 C 128.17917 141.99724 128.48819 141.88535 128.68088 141.81467 C 128.87357 141.744 129.18259 141.62917 129.37528 141.55666 C 129.56797 141.48413 129.87697 141.36632 130.06966 141.29193 C 130.26235 141.21756 130.57137 141.09673 130.76406 141.02045 C 130.95674 140.94417 131.26576 140.82028 131.45845 140.74208 C 131.65114 140.66388 131.96015 140.53691 132.15283 140.45677 C 132.34552 140.37664 132.65454 140.24652 132.84723 140.16443 C 133.0399 140.08232 133.34894 139.94904 133.54163 139.86493 C 133.7343 139.78083 134.04332 139.64432 134.23601 139.55818 C 134.42868 139.47205 134.73772 139.33228 134.93039 139.2441 C 135.12308 139.15592 135.43212 139.01279 135.62479 138.92252 C 135.81748 138.83225 136.1265 138.68579 136.31917 138.59339 C 136.51186 138.50099 136.82088 138.35108 137.01357 138.25652 C 137.20626 138.16196 137.51528 138.00858 137.70796 137.91182 C 137.90065 137.81508 138.20967 137.65813 138.40236 137.55916 C 138.59505 137.46018 138.90406 137.29962 139.09674 137.19838 C 139.28943 137.09714 139.59845 136.9329 139.79114 136.82935 C 139.98383 136.7258 140.29285 136.55785 140.48554 136.45192 C 140.67823 136.346 140.98723 136.17423 141.17992 136.06589 C 141.3726 135.95757 141.68163 135.7819 141.87432 135.67113 C 142.067 135.56035 142.37602 135.3807 142.56871 135.26744 C 142.7614 135.15418 143.0704 134.97049 143.26309 134.85466 C 143.45577 134.73883 143.7648 134.551 143.95749 134.43256 C 144.15016 134.31412 144.4592 134.12206 144.65189 134.00095 C 144.84456 133.87984 145.1536 133.68346 145.34627 133.5596 C 145.53896 133.43576 145.84798 133.23496 146.04065 133.1083 C 146.23334 132.98166 146.54238 132.7763 146.73505 132.6468 C 146.92774 132.51729 147.23676 132.30727 147.42945 132.1748 C 147.62213 132.04236 147.93114 131.82758 148.12383 131.69213 C 148.31652 131.55666 148.62554 131.33698 148.81822 131.19838 C 149.01091 131.0598 149.31993 130.83507 149.51262 130.69332 C 149.7053 130.55156 150.01432 130.32166 150.207 130.17662 C 150.39969 130.03157 150.70871 129.79633 150.9014 129.6479 C 151.09409 129.4995 151.4031 129.25875 151.5958 129.10684 C 151.78849 128.95494 152.0975 128.70853 152.29019 128.55303 C 152.48288 128.39752 152.79189 128.14527 152.98458 127.98604 C 153.17726 127.82681 153.48628 127.5685 153.67897 127.40543 C 153.87166 127.24236 154.37337 126.81073 154.37337 126.81073 "/>
<path transform="matrix(1,0,0,-1,.199,174.461)" stroke-width="1.19553" stroke-linecap="butt" stroke-miterlimit="10" stroke-linejoin="miter" fill="none" stroke="#000080" d="M 16.1895 77.18956 C 16.1895 77.18956 16.27554 74.13048 16.3086 73.38403 C 16.34164 72.63759 16.39468 72.19553 16.42773 71.80965 C 16.46078 71.42378 16.51381 70.91132 16.54686 70.60292 C 16.57991 70.29453 16.63295 69.85187 16.666 69.58682 C 16.69905 69.32178 16.75209 68.92868 16.78514 68.69257 C 16.81819 68.45645 16.87122 68.09996 16.90425 67.885 C 16.9373 67.67001 16.99034 67.34181 17.02339 67.14319 C 17.05644 66.94458 17.10947 66.63892 17.14252 66.45346 C 17.17557 66.26802 17.22859 65.98108 17.26164 65.8065 C 17.2947 65.63191 17.34773 65.36058 17.38078 65.19518 C 17.41383 65.02979 17.46686 64.77188 17.49991 64.61441 C 17.53294 64.45692 17.58598 64.2107 17.61903 64.0601 C 17.65208 63.90953 17.70511 63.67355 17.73816 63.52905 C 17.77121 63.38457 17.82425 63.1577 17.8573 63.01863 C 17.89035 62.87958 17.94337 62.66092 17.97643 62.52673 C 18.00948 62.39255 18.06252 62.18126 18.09557 62.05147 C 18.12862 61.92169 18.18164 61.71712 18.21469 61.59137 C 18.24773 61.46562 18.30077 61.26718 18.33382 61.14513 C 18.36687 61.02307 18.41989 60.8303 18.45294 60.71165 C 18.486 60.59302 18.53902 60.40543 18.57207 60.28992 C 18.60512 60.1744 18.65816 59.99164 18.69121 59.87903 C 18.72426 59.76643 18.77728 59.58817 18.81033 59.47829 C 18.84338 59.3684 18.89642 59.19434 18.92946 59.08699 C 18.96251 58.97966 19.01555 58.80952 19.0486 58.70456 C 19.08165 58.5996 19.13467 58.43317 19.16772 58.33044 C 19.20078 58.22772 19.25381 58.06477 19.28687 57.96416 C 19.31992 57.86356 19.37294 57.7039 19.40599 57.60529 C 19.43904 57.50667 19.49208 57.3501 19.52513 57.25337 C 19.55817 57.15666 19.61119 57.0031 19.64424 56.90817 C 19.67729 56.81325 19.73032 56.66243 19.76337 56.56921 C 19.79642 56.476 19.84946 56.32784 19.8825 56.23624 C 19.91556 56.14462 19.96858 55.99901 20.00163 55.90897 C 20.03468 55.81892 20.08772 55.67574 20.12077 55.58717 C 20.15382 55.4986 20.20685 55.35776 20.2399 55.27055 C 20.27293 55.18335 20.32597 55.04445 20.35902 54.9586 C 20.39207 54.87277 20.44511 54.73628 20.47816 54.6518 C 20.51122 54.56729 20.56424 54.43279 20.59729 54.34955 C 20.63034 54.2663 20.68338 54.13376 20.71643 54.05171 C 20.74948 53.96967 20.80249 53.83902 20.83554 53.75812 C 20.86859 53.67723 20.92163 53.5484 20.95467 53.46861 C 20.98772 53.38884 21.04076 53.26176 21.0738 53.18304 C 21.10686 53.10434 21.15988 52.97893 21.19293 52.90125 C 21.22598 52.82356 21.27902 52.69981 21.31207 52.62312 C 21.34512 52.54645 21.39815 52.42426 21.4312 52.34856 C 21.46425 52.27284 21.51729 52.15219 21.55034 52.07741 C 21.58337 52.00262 21.6364 51.88347 21.66945 51.8096 C 21.7025 51.73573 21.75554 51.61795 21.78859 51.54497 C 21.82164 51.47197 21.87466 51.3556 21.90771 51.28348 C 21.94077 51.21133 21.99379 51.09631 22.02684 51.02501 C 22.05989 50.95369 22.11293 50.83997 22.14598 50.76945 C 22.17903 50.69896 22.23206 50.58649 22.2651 50.51675 C 22.29814 50.44702 22.35118 50.3358 22.38423 50.26683 C 22.41728 50.19785 22.4703 50.08781 22.50336 50.01958 C 22.5364 49.95134 22.58945 49.84248 22.6225 49.77496 C 22.65555 49.70744 22.70859 49.59972 22.74164 49.53288 C 22.77469 49.46606 22.82771 49.35944 22.86076 49.29329 C 22.89381 49.22714 22.94685 49.1216 22.97989 49.05612 C 23.01294 48.99065 23.06596 48.88615 23.09901 48.82132 C 23.13206 48.75647 23.18509 48.65302 23.21814 48.58882 C 23.25119 48.52461 23.30423 48.42213 23.33728 48.35855 C 23.37033 48.29495 23.42336 48.19345 23.4564 48.13048 C 23.48946 48.06749 23.5425 47.96695 23.57555 47.90454 C 23.60858 47.84213 23.6616 47.74252 23.69466 47.6807 C 23.7277 47.61887 23.78075 47.52016 23.8138 47.4589 C 23.84685 47.39763 23.89987 47.2998 23.93292 47.23909 C 23.96597 47.17838 24.01901 47.08144 24.05206 47.02124 C 24.08511 46.96106 24.13815 46.86497 24.1712 46.80531 C 24.20425 46.74567 24.25728 46.65038 24.29033 46.59125 C 24.32336 46.5321 24.3764 46.43765 24.40945 46.37903 C 24.4425 46.32039 24.49551 46.22676 24.52856 46.16861 C 24.56161 46.11046 24.61465 46.0176 24.6477 45.95993 C 24.68076 45.90227 24.7338 45.81017 24.76685 45.75298 C 24.7999 45.69579 24.85292 45.60445 24.88597 45.54773 C 24.91902 45.49101 24.97206 45.40038 25.0051 45.34412 C 25.03815 45.28786 25.09117 45.19797 25.12422 45.14215 C 25.15727 45.08632 25.21031 44.99715 25.24336 44.94177 C 25.27641 44.88638 25.32944 44.79791 25.36249 44.74295 C 25.39554 44.688 25.44858 44.6002 25.48163 44.54568 C 25.51468 44.49115 25.5677 44.404 25.60075 44.34991 C 25.63379 44.2958 25.68681 44.20935 25.71986 44.15565 C 25.75291 44.10196 25.80595 44.01611 25.839 43.96281 C 25.87206 43.90953 25.92508 43.82433 25.95813 43.77142 C 25.99118 43.71852 26.04422 43.63397 26.07727 43.58145 C 26.11032 43.52893 26.16335 43.44498 26.1964 43.39284 C 26.22945 43.3407 26.28249 43.25735 26.31554 43.2056 C 26.34857 43.15384 26.40161 43.07109 26.43466 43.01968 C 26.46771 42.96829 26.52074 42.88614 26.55379 42.83511 C 26.58684 42.78407 26.63988 42.7025 26.67293 42.65182 C 26.70598 42.60114 26.759 42.52011 26.79205 42.46979 C 26.8251 42.41946 26.87813 42.33905 26.91118 42.28906 C 26.94423 42.23909 26.99727 42.15916 27.0303 42.10951 C 27.06335 42.05988 27.11638 41.98051 27.14943 41.93121 C 27.18248 41.88191 27.23552 41.80307 27.26857 41.75409 C 27.30162 41.70511 27.35464 41.62683 27.3877 41.57819 C 27.42075 41.52953 27.47379 41.45172 27.50684 41.4034 C 27.53989 41.35507 27.59291 41.2778 27.62596 41.22978 C 27.659 41.18176 27.71204 41.10498 27.74509 41.05728 C 27.77814 41.00958 27.83118 40.9333 27.86423 40.88591 C 27.89728 40.83852 27.9503 40.76271 27.98335 40.71562 C 28.0164 40.66852 28.06943 40.59322 28.10248 40.54642 C 28.13553 40.49963 28.18855 40.4248 28.2216 40.3783 C 28.25465 40.3318 28.3077 40.25743 28.34074 40.21121 C 28.37378 40.16501 28.42682 40.09111 28.45987 40.04518 C 28.49292 39.99925 28.54594 39.92578 28.579 39.88014 C 28.61205 39.83452 28.66508 39.76152 28.69814 39.71617 C 28.73119 39.6708 28.78421 39.59824 28.81726 39.55315 C 28.85031 39.50807 28.90335 39.43594 28.9364 39.39113 C 28.96945 39.34631 29.02248 39.27464 29.05551 39.23009 C 29.08856 39.18552 29.1416 39.11427 29.17465 39.06999 C 29.2077 39.02571 29.26073 38.95488 29.29378 38.91086 C 29.32683 38.86684 29.37985 38.79642 29.4129 38.75266 C 29.44595 38.70888 29.499 38.63889 29.53204 38.59538 C 29.5651 38.55188 29.61812 38.48227 29.65117 38.439 C 29.6842 38.39574 29.73724 38.32654 29.7703 38.28352 C 29.80334 38.24052 29.85637 38.17172 29.88942 38.12895 C 29.92247 38.0862 29.97551 38.01779 30.00856 37.97528 C 30.04161 37.93275 30.09465 37.86473 30.1277 37.82245 C 30.16075 37.78018 30.21378 37.71252 30.24683 37.6705 C 30.27988 37.62846 30.3329 37.5612 30.36595 37.51941 C 30.39899 37.4776 30.45201 37.4107 30.48506 37.36913 C 30.51811 37.32756 30.57115 37.26105 30.6042 37.2197 C 30.63725 37.17834 30.69029 37.1122 30.72334 37.07108 C 30.7564 37.02995 30.80942 36.96419 30.84247 36.9233 C 30.87552 36.8824 30.92856 36.81697 30.96161 36.77629 C 30.99466 36.73561 31.04768 36.67053 31.08072 36.63008 C 31.11377 36.58963 31.16681 36.52492 31.19986 36.48468 C 31.23291 36.44444 31.28593 36.38008 31.31898 36.34004 C 31.35204 36.30002 31.40508 36.236 31.43813 36.19618 C 31.47118 36.15636 31.52422 36.09268 31.55727 36.05309 C 31.59032 36.01347 31.64333 35.95013 31.67638 35.91075 C 31.70941 35.87135 31.76245 35.80835 31.7955 35.76915 C 31.82855 35.72997 31.88158 35.66725 31.91463 35.62828 C 31.94768 35.5893 32.00072 35.52693 32.03377 35.48814 C 32.06682 35.44937 32.11986 35.38734 32.15291 35.34875 C 32.18596 35.31018 32.23898 35.24844 32.27203 35.21005 C 32.30508 35.17168 32.35812 35.11029 32.39117 35.0721 C 32.42421 35.0339 32.47723 34.9728 32.51028 34.93481 C 32.54333 34.89682 32.59637 34.83603 32.62943 34.79823 C 32.66248 34.76044 32.7155 34.69995 32.74855 34.66234 C 32.7816 34.62473 32.83463 34.56456 32.86768 34.52715 C 32.90073 34.48975 32.95377 34.42984 32.98682 34.39261 C 33.01987 34.35538 33.07289 34.2958 33.10593 34.25876 C 33.13898 34.22171 33.19202 34.16243 33.22507 34.12556 C 33.25812 34.0887 33.31114 34.0297 33.3442 33.99301 C 33.37724 33.95633 33.43028 33.89763 33.46333 33.86113 C 33.49638 33.82462 33.54941 33.76622 33.58246 33.7299 C 33.61551 33.69359 33.66855 33.63545 33.7016 33.5993 C 33.73463 33.56314 33.78767 33.5053 33.82072 33.46931 C 33.85378 33.43335 33.9068 33.37578 33.93985 33.33998 C 33.9729 33.30418 34.02592 33.24689 34.05898 33.21127 C 34.09203 33.17564 34.14505 33.11862 34.1781 33.08318 C 34.21115 33.04773 34.26419 32.99097 34.29724 32.95567 C 34.33029 32.9204 34.38333 32.86392 34.41638 32.8288 C 34.44942 32.79369 34.50244 32.73747 34.53549 32.70251 C 34.56854 32.66757 34.62158 32.61163 34.65463 32.57684 C 34.68768 32.54207 34.7407 32.48637 34.77376 32.45175 C 34.80681 32.41711 34.85985 32.36171 34.8929 32.32724 C 34.92595 32.29279 34.97897 32.23761 35.01202 32.20332 C 35.04507 32.16902 35.0981 32.11414 35.13113 32.08 C 35.16418 32.04585 35.21722 31.9912 35.25027 31.95721 C 35.28333 31.92322 35.33635 31.86882 35.3694 31.835 C 35.40245 31.80118 35.45549 31.74702 35.48854 31.71336 C 35.52159 31.67969 35.57462 31.6258 35.60767 31.59227 C 35.64072 31.55875 35.69376 31.50513 35.7268 31.47176 C 35.75984 31.43839 35.81288 31.38498 35.84593 31.35176 C 35.87898 31.31854 35.932 31.26538 35.96506 31.23232 C 35.99811 31.19925 36.05115 31.14633 36.0842 31.11342 C 36.11725 31.08052 36.17027 31.02783 36.20332 30.99507 C 36.23637 30.96231 36.2894 30.90987 36.32245 30.87726 C 36.3555 30.84465 36.40854 30.79243 36.44159 30.75996 C 36.47462 30.7275 36.52765 30.67552 36.5607 30.6432 C 36.59375 30.61089 36.64679 30.55913 36.67984 30.52695 C 36.71289 30.49477 36.76591 30.44325 36.79897 30.4112 C 36.83202 30.37915 36.88506 30.32788 36.9181 30.29599 C 36.95116 30.26408 37.00418 30.21303 37.03723 30.18127 C 37.07028 30.14952 37.12332 30.0987 37.15636 30.06708 C 37.1894 30.03545 37.24243 29.98485 37.27548 29.95337 C 37.30853 29.92188 37.36157 29.87149 37.39462 29.84015 C 37.42767 29.80882 37.4807 29.75865 37.51375 29.72746 C 37.5468 29.69627 37.59982 29.64632 37.63287 29.61523 C 37.66592 29.58417 37.71896 29.53444 37.75201 29.50351 C 37.78505 29.47256 37.83809 29.42305 37.87112 29.39226 C 37.90417 29.36147 37.95721 29.31215 37.99026 29.28148 C 38.02332 29.25082 38.07635 29.20172 38.1094 29.17119 C 38.14246 29.14067 38.19548 29.0918 38.22853 29.06139 C 38.26158 29.03098 38.31462 28.9823 38.34767 28.95204 C 38.38072 28.92177 38.43375 28.87329 38.4668 28.84314 C 38.49983 28.813 38.55287 28.76477 38.58592 28.73476 C 38.61897 28.70474 38.672 28.6567 38.70505 28.6268 C 38.7381 28.59692 38.79112 28.54907 38.82417 28.51932 C 38.85722 28.48955 38.91026 28.44191 38.94331 28.41228 C 38.97636 28.38264 39.02939 28.3352 39.06244 28.3057 C 39.09549 28.27618 39.14853 28.22894 39.18156 28.19955 C 39.21461 28.17017 39.26764 28.12314 39.30069 28.09387 C 39.33374 28.0646 39.38678 28.01778 39.41983 27.98863 C 39.45288 27.95949 39.50592 27.91284 39.53897 27.88382 C 39.57202 27.85481 39.62505 27.80835 39.6581 27.77946 C 39.69115 27.75058 39.74419 27.7043 39.77724 27.67554 C 39.81027 27.64677 39.89633 27.57207 39.89633 27.57207 "/>
<path transform="matrix(1,0,0,-1,.199,174.461)" stroke-width="1.19553" stroke-linecap="butt" stroke-miterlimit="10" stroke-linejoin="miter" fill="none" stroke="#800000" d="M 0 -7.01723 C 0 -7.01723 5.84848 -1.94725 8.09474 0 C 10.341 1.94725 13.94324 5.06998 16.1895 7.01723 C 18.43575 8.96448 22.03798 12.0872 24.28424 14.03445 C 26.5305 15.9817 30.13274 19.10445 32.379 21.0517 C 34.62524 22.99895 38.22748 26.12167 40.47374 28.06892 C 42.72 30.01617 46.32224 33.1389 48.5685 35.08615 C 50.81474 37.03342 54.41698 40.15614 56.66324 42.1034 C 58.9095 44.05064 62.51173 47.17337 64.758 49.12062 C 67.00424 51.06787 70.60648 54.19061 72.85274 56.13786 C 75.099 58.08511 78.70123 61.20784 80.9475 63.15509 C 83.19374 65.10234 86.79597 68.22507 89.04224 70.17232 C 91.2885 72.11958 94.89073 75.24231 97.137 77.18956 C 99.38324 79.13681 102.98547 82.25954 105.23174 84.20679 C 107.478 86.15404 111.08023 89.27678 113.32649 91.22403 C 115.57274 93.17128 119.17497 96.294 121.42123 98.24126 C 123.6675 100.1885 127.26973 103.31123 129.51599 105.25848 C 131.76224 107.20575 135.36447 110.32848 137.61074 112.27573 C 139.857 114.22298 143.45923 117.3457 145.70549 119.29295 C 147.95174 121.2402 151.55397 124.36295 153.80023 126.3102 C 156.0465 128.25745 159.64873 131.38018 161.89499 133.32743 C 164.14124 135.27468 167.74347 138.3974 169.98973 140.34465 C 172.236 142.29192 175.83823 145.41464 178.08449 147.3619 C 180.33074 149.30915 183.93297 152.43187 186.17923 154.37912 C 188.42549 156.32637 194.27399 161.39636 194.27399 161.39636 "/>
<symbol id="font_2_2">
<path d="M .305 .31300003 C .311 .33900003 .334 .43100003 .404 .43100003 C .409 .43100003 .433 .43100003 .454 .418 C .426 .41300003 .40600003 .388 .40600003 .36400003 C .40600003 .34800003 .417 .32900004 .444 .32900004 C .46600003 .32900004 .498 .34700004 .498 .38700003 C .498 .43900005 .439 .45300005 .405 .45300005 C .347 .45300005 .312 .40000005 .3 .37700004 C .275 .44300003 .221 .45300005 .19200002 .45300005 C .08800001 .45300005 .031000002 .32400004 .031000002 .29900003 C .031000002 .28900004 .041 .28900004 .043000007 .28900004 C .051000008 .28900004 .054000006 .291 .056 .3 C .09 .40600003 .156 .43100003 .19000001 .43100003 C .209 .43100003 .244 .42200003 .244 .36400003 C .244 .33300004 .22700002 .26600004 .19000001 .126 C .17400001 .064 .13900002 .022000002 .095000009 .022000002 C .08900001 .022000002 .06600001 .022000002 .045 .035 C .07000001 .040000004 .09200001 .061 .09200001 .089 C .09200001 .116000007 .07000001 .124000009 .055000009 .124000009 C .025 .124000009 0 .098000008 0 .06600001 C 0 .020000002 .050000006 0 .094000007 0 C .16000001 0 .19600001 .07000001 .19900002 .076000008 C .21100001 .039 .24700003 0 .307 0 C .41 0 .467 .12900001 .467 .15400002 C .467 .16400002 .458 .16400002 .455 .16400002 C .446 .16400002 .444 .16000001 .442 .15300001 C .409 .046 .341 .022000002 .30900003 .022000002 C .27 .022000002 .254 .054 .254 .08800001 C .254 .11000001 .26 .13200002 .271 .17600002 L .305 .31300003 Z "/>
</symbol>
<use xlink:href="#font_2_2" transform="matrix(9.9626,0,0,-9.9626,7.7089159,30.545594)" fill="#000080"/>
<symbol id="font_3_1">
<path d="M .442 .18200001 L .40800003 .18200001 C .40500004 .16000001 .39500005 .101 .38200004 .091000009 C .374 .085 .29700003 .085 .28300003 .085 L .099 .085 C .20400003 .178 .23900002 .20600002 .29900003 .25300003 C .37300004 .312 .442 .374 .442 .469 C .442 .59000006 .33600004 .66400006 .20800004 .66400006 C .084 .66400006 0 .577 0 .485 C 0 .43400003 .043000007 .42900003 .053000004 .42900003 C .077 .42900003 .10600001 .446 .10600001 .48200003 C .10600001 .5 .099 .535 .047000007 .535 C .078 .606 .146 .628 .19300002 .628 C .293 .628 .34500004 .55 .34500004 .469 C .34500004 .38200004 .28300003 .31300003 .25100003 .277 L .010000005 .039 C 0 .030000002 0 .028 0 0 L .41200004 0 L .442 .18200001 Z "/>
</symbol>
<use xlink:href="#font_3_1" transform="matrix(6.9738,0,0,-6.9738,13.5533499,26.322999)" fill="#000080"/>
<symbol id="font_4_1">
<path d="M .35300002 .31300003 L .632 .31300003 C .646 .31300003 .665 .31300003 .665 .333 C .665 .35300002 .646 .35300002 .632 .35300002 L .35300002 .35300002 L .35300002 .633 C .35300002 .647 .35300002 .666 .33300004 .666 C .31300003 .666 .31300003 .647 .31300003 .633 L .31300003 .35300002 L .033 .35300002 C .019000002 .35300002 0 .35300002 0 .333 C 0 .31300003 .019000002 .31300003 .033 .31300003 L .31300003 .31300003 L .31300003 .033000005 C .31300003 .019000002 .31300003 0 .33300004 0 C .35300002 0 .35300002 .019000002 .35300002 .033000005 L .35300002 .31300003 Z "/>
</symbol>
<use xlink:href="#font_4_1" transform="matrix(9.9626,0,0,-9.9626,20.354907,31.262902)" fill="#000080"/>
<symbol id="font_2_3">
<path d="M .45700003 .586 C .461 .6 .461 .602 .461 .609 C .461 .62700006 .447 .63600006 .432 .63600006 C .42200003 .63600006 .40600003 .63 .397 .615 C .395 .61 .387 .579 .38300003 .561 C .37600003 .535 .36900003 .508 .363 .48100005 L .318 .301 C .314 .286 .271 .21600002 .20500002 .21600002 C .15400002 .21600002 .143 .26000003 .143 .29700003 C .143 .34300003 .16000001 .40500004 .194 .49300004 C .21000001 .53400006 .21400002 .545 .21400002 .56500008 C .21400002 .61 .18200001 .6470001 .13200002 .6470001 C .037 .6470001 0 .50200006 0 .49300004 C 0 .48300005 .01 .48300005 .012 .48300005 C .022000002 .48300005 .023 .485 .028000003 .50100007 C .055000009 .595 .095000009 .625 .12900001 .625 C .13700001 .625 .15400002 .625 .15400002 .59300008 C .15400002 .568 .14400001 .54200008 .13700001 .523 C .097 .41700004 .079 .36 .079 .31300003 C .079 .224 .142 .194 .201 .194 C .24000003 .194 .274 .21100001 .30200003 .23900002 C .289 .187 .277 .13800001 .237 .08500001 C .21100001 .051 .17300001 .022 .127 .022 C .113000009 .022 .068 .025000006 .051000008 .06400001 C .067 .06400001 .080000009 .06400001 .094000007 .076000008 C .104 .08500001 .11400001 .098000008 .11400001 .117000009 C .11400001 .148 .087000008 .15200001 .07700001 .15200001 C .054000006 .15200001 .021 .136 .021 .087000008 C .021 .037 .065000008 0 .127 0 C .23 0 .333 .091000009 .361 .20400001 L .45700003 .586 Z "/>
</symbol>
<use xlink:href="#font_2_3" transform="matrix(9.9626,0,0,-9.9626,30.048918,32.478338)" fill="#000080"/>
<use xlink:href="#font_3_1" transform="matrix(6.9738,0,0,-6.9738,35.441354,26.322999)" fill="#000080"/>
<symbol id="font_4_5">
<path d="M .63100007 .19400002 C .646 .19400002 .665 .19400002 .665 .214 C .665 .23400001 .646 .23400001 .632 .23400001 L .033 .23400001 C .019000002 .23400001 0 .23400001 0 .214 C 0 .19400002 .019000002 .19400002 .034 .19400002 L .63100007 .19400002 M .632 0 C .646 0 .665 0 .665 .02000001 C .665 .040000008 .646 .040000008 .63100007 .040000008 L .034 .040000008 C .019000002 .040000008 0 .040000008 0 .02000001 C 0 0 .019000002 0 .033 0 L .632 0 Z "/>
</symbol>
<symbol id="font_4_3">
<path d="M .205 .64000007 C .205 .66400006 .205 .666 .18200003 .666 C .120000008 .60200008 .032000007 .60200008 0 .60200008 L 0 .57100006 C .020000004 .57100006 .07900001 .57100006 .13100001 .597 L .13100001 .079 C .13100001 .043 .128 .031000002 .038000004 .031000002 L .0060000049 .031000002 L .0060000049 0 C .04100001 .003 .128 .003 .168 .003 C .20800002 .003 .29500003 .003 .33000005 0 L .33000005 .031000002 L .29800005 .031000002 C .20800002 .031000002 .205 .042000005 .205 .079 L .205 .64000007 Z "/>
</symbol>
<use xlink:href="#font_4_5" transform="matrix(9.9626,0,0,-9.9626,42.79591,29.11098)" fill="#000080"/>
<use xlink:href="#font_4_3" transform="matrix(9.9626,0,0,-9.9626,53.645185,30.436005)" fill="#000080"/>
<use xlink:href="#font_2_3" transform="matrix(9.9626,0,0,-9.9626,142.17691,79.43934)" fill="#800000"/>
<use xlink:href="#font_4_5" transform="matrix(9.9626,0,0,-9.9626,150.45491,76.071979)" fill="#800000"/>
<use xlink:href="#font_2_2" transform="matrix(9.9626,0,0,-9.9626,160.70192,77.50659)" fill="#800000"/>
</g>
<symbol id="font_5_1">
<path d="M .57600006 0 C .59300008 0 .611 0 .611 .019999996 C .611 .040000008 .59300008 .040000008 .57600006 .040000008 L .035000005 .040000008 C .018 .040000008 0 .040000008 0 .019999996 C 0 0 .018 0 .035000005 0 L .57600006 0 Z "/>
</symbol>
<use xlink:href="#font_5_1" transform="matrix(9.9626,0,0,-9.9626,10.850896,107.04661)"/>
<use xlink:href="#font_4_3" transform="matrix(9.9626,0,0,-9.9626,18.65867,109.338008)"/>
<use xlink:href="#font_5_1" transform="matrix(9.9626,0,0,-9.9626,47.4489,107.04661)"/>
<symbol id="font_4_2">
<path d="M .421 .34200005 C .421 .42200003 .416 .50200006 .381 .57600006 C .335 .67200008 .25300003 .688 .211 .688 C .15100001 .688 .07800001 .66200008 .037000006 .56900009 C .0050000029 .5 0 .42200003 0 .34200005 C 0 .26700003 .0040000008 .177 .045000007 .101 C .088 .020000002 .161 0 .21000001 0 C .264 0 .34 .021000002 .384 .116000007 C .416 .185 .421 .263 .421 .34200005 M .21000001 .022000002 C .171 .022000002 .112 .047000003 .094 .143 C .083000008 .20300001 .083000008 .29500003 .083000008 .35400004 C .083000008 .41800005 .083000008 .48400004 .091000009 .53800007 C .11 .65700009 .185 .66600009 .21000001 .66600009 C .243 .66600009 .30900003 .64800009 .328 .549 C .338 .49300004 .338 .41700004 .338 .35400004 C .338 .279 .338 .21100001 .32700003 .147 C .312 .052 .255 .022000002 .21000001 .022000002 Z "/>
</symbol>
<use xlink:href="#font_4_2" transform="matrix(9.9626,0,0,-9.9626,54.759546,109.55718)"/>
<symbol id="font_2_1">
<path d="M .106 .053000004 C .106 .082 .08200001 .106000009 .05300001 .106000009 C .024000004 .106000009 0 .082 0 .053000004 C 0 .024 .024000004 0 .05300001 0 C .08200001 0 .106 .024 .106 .053000004 Z "/>
</symbol>
<use xlink:href="#font_2_1" transform="matrix(9.9626,0,0,-9.9626,60.208787,109.338008)"/>
<symbol id="font_4_4">
<path d="M .39900003 .223 C .39900003 .34200005 .317 .44200004 .209 .44200004 C .16100002 .44200004 .118000019 .42600004 .082 .39100004 L .082 .586 C .10200001 .58000007 .135 .573 .16700001 .573 C .29 .573 .36 .66400006 .36 .67700007 C .36 .683 .357 .688 .35 .688 C .349 .688 .347 .688 .342 .68500009 C .322 .67600008 .273 .656 .20600002 .656 C .16600001 .656 .120000008 .66300007 .073 .6840001 C .065 .68700006 .06300001 .68700006 .061000009 .68700006 C .051000004 .68700006 .051000004 .679 .051000004 .66300007 L .051000004 .36700005 C .051000004 .34900005 .051000004 .34100003 .065 .34100003 C .07200001 .34100003 .074 .34400005 .07800001 .35000003 C .08900002 .36600004 .12600002 .42000006 .207 .42000006 C .259 .42000006 .284 .37400005 .292 .35600005 C .308 .31900005 .31 .28000004 .31 .23 C .31 .19500001 .31 .135 .286 .093 C .262 .054000006 .22500001 .028 .17900002 .028 C .106000009 .028 .049000008 .08100001 .032 .14000002 C .035 .13900002 .038000008 .13800001 .049000008 .13800001 C .082 .13800001 .09900001 .163 .09900001 .187 C .09900001 .21100001 .082 .23600002 .049000008 .23600002 C .035 .23600002 0 .22900002 0 .18300002 C 0 .097 .069000009 0 .18100001 0 C .297 0 .39900003 .096 .39900003 .223 Z "/>
</symbol>
<use xlink:href="#font_4_4" transform="matrix(9.9626,0,0,-9.9626,62.618135,109.55718)"/>
<use xlink:href="#font_4_2" transform="matrix(9.9626,0,0,-9.9626,131.83155,109.55718)"/>
<use xlink:href="#font_2_1" transform="matrix(9.9626,0,0,-9.9626,137.28079,109.338008)"/>
<use xlink:href="#font_4_4" transform="matrix(9.9626,0,0,-9.9626,139.69014,109.55718)"/>
<use xlink:href="#font_4_3" transform="matrix(9.9626,0,0,-9.9626,176.67768,109.338008)"/>
<use xlink:href="#font_5_1" transform="matrix(9.9626,0,0,-9.9626,79.7859,167.9476)"/>
<use xlink:href="#font_4_3" transform="matrix(9.9626,0,0,-9.9626,87.59467,170.239)"/>
<use xlink:href="#font_5_1" transform="matrix(9.9626,0,0,-9.9626,72.037899,132.8616)"/>
<use xlink:href="#font_4_2" transform="matrix(9.9626,0,0,-9.9626,79.34754,135.37218)"/>
<use xlink:href="#font_2_1" transform="matrix(9.9626,0,0,-9.9626,84.79778,135.153)"/>
<use xlink:href="#font_4_4" transform="matrix(9.9626,0,0,-9.9626,87.20613,135.37218)"/>
<use xlink:href="#font_4_2" transform="matrix(9.9626,0,0,-9.9626,79.34754,65.61618)"/>
<use xlink:href="#font_2_1" transform="matrix(9.9626,0,0,-9.9626,84.79778,65.397)"/>
<use xlink:href="#font_4_4" transform="matrix(9.9626,0,0,-9.9626,87.20613,65.61618)"/>
<use xlink:href="#font_4_3" transform="matrix(9.9626,0,0,-9.9626,87.59467,30.311005)"/>
<use xlink:href="#font_2_2" transform="matrix(9.9626,0,0,-9.9626,198.32892,99.500598)"/>
<use xlink:href="#font_2_3" transform="matrix(9.9626,0,0,-9.9626,95.03391,9.652334)"/>
<path transform="matrix(1,0,0,-1,.199,174.461)" stroke-width="1" stroke-linecap="butt" stroke-miterlimit="10" stroke-linejoin="miter" fill="none" stroke="#808080" d="M 16.1895 75.06358 L 16.1895 79.31552 M 56.66324 75.06358 L 56.66324 79.31552 M 137.61074 75.06358 L 137.61074 79.31552 M 178.08449 75.06358 L 178.08449 79.31552 "/>
<path transform="matrix(1,0,0,-1,.199,174.461)" stroke-width="1" stroke-linecap="butt" stroke-miterlimit="10" stroke-linejoin="miter" fill="none" stroke="#808080" d="M 95.01111 7.01723 L 99.26285 7.01723 M 95.01111 42.1034 L 99.26285 42.1034 M 95.01111 112.27573 L 99.26285 112.27573 M 95.01111 147.3619 L 99.26285 147.3619 "/>
<path transform="matrix(1,0,0,-1,.199,174.461)" stroke-width="1" stroke-linecap="butt" stroke-miterlimit="10" stroke-linejoin="miter" fill="none" stroke="#000000" d="M 0 77.18956 L 192.28145 77.18956 "/>
<path transform="matrix(1,0,0,-1,192.48046,97.27144)" d="M 1.99252 0 L -1.19551 1.59401 L 0 0 L -1.19551 -1.59401 "/>
<path transform="matrix(1,0,0,-1,.199,174.461)" stroke-width="1" stroke-linecap="butt" stroke-miterlimit="10" stroke-linejoin="miter" fill="none" stroke="#000000" d="M 97.137 0 L 97.137 159.40384 "/>
<path transform="matrix(0,-1,-1,-0,97.336,15.057159)" d="M 1.99252 0 L -1.19551 1.59401 L 0 0 L -1.19551 -1.59401 "/>
</svg>
