<?xml version="1.0" encoding="UTF-8" standalone="no"?>
<!DOCTYPE svg PUBLIC "-//W3C//DTD SVG 1.1//EN" "http://www.w3.org/Graphics/SVG/1.1/DTD/svg11.dtd">
<svg xmlns="http://www.w3.org/2000/svg" xmlns:xlink="http://www.w3.org/1999/xlink" version="1.1" width="207.05pt" height="182.207pt" viewBox="0 0 207.05 182.207">
<clipPath id="cp0">
<path transform="matrix(1,0,0,-1,-48.368,294.911)" d="M 48.56804 120.40706 L 242.8402 120.40706 L 242.8402 281.80378 L 48.56804 281.80378 Z "/>
</clipPath>
<g clip-path="url(#cp0)">
<path transform="matrix(1,0,0,-1,-48.368,294.911)" d="M 97.13608 256.18528 L 99.40257 252.61263 L 101.66908 249.06787 L 103.93558 245.55103 L 106.20207 242.06208 L 108.4686 238.601 L 110.7351 235.16782 L 113.0016 231.76259 L 115.26811 228.38518 L 117.53462 225.03574 L 119.80112 221.71414 L 122.06763 218.42047 L 124.33414 215.15468 L 126.60063 211.9168 L 128.86713 208.70682 L 131.13365 205.52466 L 133.40015 202.37049 L 135.66666 199.24414 L 137.93317 196.14574 L 140.19966 193.07523 L 142.46617 190.0326 L 144.73268 187.01789 L 146.99918 184.03107 L 149.26569 181.07215 L 151.53218 178.14109 L 151.53218 128.09262 L 97.13608 128.09262 Z " fill="#cccce6"/>
<path transform="matrix(1,0,0,-1,-48.368,294.911)" d="M 97.13608 128.09262 L 99.40257 130.46973 L 101.66908 132.81893 L 103.93558 135.14025 L 106.20207 137.43366 L 108.4686 139.69922 L 110.7351 141.93685 L 113.0016 144.1466 L 115.26811 146.32842 L 117.53462 148.48236 L 119.80112 150.60843 L 122.06763 152.70659 L 124.33414 154.77684 L 126.60063 156.81922 L 128.86713 158.83367 L 131.13365 160.82024 L 133.40015 162.77892 L 135.66666 164.70967 L 137.93317 166.61258 L 140.19966 168.48757 L 142.46617 170.33466 L 144.73268 172.15386 L 146.99918 173.94515 L 149.26569 175.70858 L 151.53218 177.44408 L 151.53218 128.09262 L 97.13608 128.09262 Z " fill="#ffffff"/>
<path transform="matrix(1,0,0,-1,-48.368,294.911)" d="M 151.53227 177.44416 L 153.3131 178.78818 L 155.09392 180.11499 L 156.87474 181.4246 L 158.65557 182.717 L 160.4364 183.99214 L 162.21724 185.25009 L 163.99805 186.49083 L 165.77887 187.71433 L 167.5597 188.9206 L 169.34052 190.10965 L 171.12134 191.28147 L 172.90218 192.43607 L 174.683 193.57349 L 176.4638 194.69364 L 178.24465 195.79659 L 180.02547 196.88233 L 181.80629 197.95082 L 183.58713 199.0021 L 185.36795 200.03617 L 187.14878 201.053 L 188.92958 202.05261 L 190.7104 203.03502 L 192.49123 204.0002 L 194.27207 204.94815 L 194.27207 128.09262 L 151.53227 128.09262 Z " fill="#cccce6"/>
<path transform="matrix(1,0,0,-1,-48.368,294.911)" d="M 151.53227 178.14096 L 153.3131 175.85759 L 155.09392 173.59142 L 156.87474 171.34249 L 158.65557 169.11075 L 160.4364 166.89623 L 162.21724 164.69893 L 163.99805 162.51888 L 165.77887 160.35607 L 167.5597 158.21045 L 169.34052 156.08203 L 171.12134 153.97086 L 172.90218 151.87693 L 174.683 149.80019 L 176.4638 147.74065 L 178.24465 145.69835 L 180.02547 143.6733 L 181.80629 141.66544 L 183.58713 139.6748 L 185.36795 137.7014 L 187.14878 135.74523 L 188.92958 133.80628 L 190.7104 131.88454 L 192.49123 129.98 L 194.27207 128.0927 L 194.27207 128.09262 L 151.53227 128.09262 Z " fill="#ffffff"/>
<path transform="matrix(1,0,0,-1,-48.368,294.911)" stroke-width="1.19553" stroke-linecap="butt" stroke-miterlimit="10" stroke-linejoin="miter" fill="none" stroke="#000080" d="M 0 0 L 12.142 18.8136 L 24.28401 36.82661 L 36.42601 54.03906 L 48.56804 70.45093 L 60.71004 86.06223 L 72.85205 100.87294 L 84.99405 114.88306 L 97.13608 128.09262 L 109.27808 140.50159 L 121.42009 152.10999 L 133.5621 162.9178 L 145.70412 172.92504 L 157.84612 182.13169 L 169.98813 190.53778 L 182.13014 198.14328 L 194.27216 204.9482 L 206.41416 210.95255 L 218.55619 216.1563 L 230.69818 220.55948 L 242.8402 224.1621 L 254.9822 226.96411 L 267.1242 228.96556 L 279.2662 230.16643 L 291.40824 230.56673 "/>
<path transform="matrix(1,0,0,-1,-48.368,294.911)" stroke-width="1.19553" stroke-linecap="butt" stroke-miterlimit="10" stroke-linejoin="miter" fill="none" stroke="#800000" d="M 0 435.51496 L 12.142 410.2967 L 24.28401 385.87904 L 36.42601 362.26197 L 48.56804 339.44548 L 60.71004 317.42955 L 72.85205 296.2142 L 84.99405 275.7994 L 97.13608 256.18528 L 109.27808 237.37163 L 121.42009 219.35861 L 133.5621 202.14618 L 145.70412 185.7343 L 157.84612 170.123 L 169.98813 155.3123 L 182.13014 141.30217 L 194.27216 128.09262 L 206.41416 115.68364 L 218.55619 104.07524 L 230.69818 93.26743 L 242.8402 83.2602 L 254.9822 74.05354 L 267.1242 65.64746 L 279.2662 58.04195 L 291.40824 51.23705 "/>
<symbol id="font_1_3">
<path d="M .45700003 .586 C .461 .6 .461 .602 .461 .609 C .461 .62700006 .447 .63600006 .432 .63600006 C .42200003 .63600006 .40600003 .63 .397 .615 C .395 .61 .387 .579 .38300003 .561 C .37600003 .535 .36900003 .508 .363 .48100005 L .318 .301 C .314 .286 .271 .21600002 .20500002 .21600002 C .15400002 .21600002 .143 .26000003 .143 .29700003 C .143 .34300003 .16000001 .40500004 .194 .49300004 C .21000001 .53400006 .21400002 .545 .21400002 .56500008 C .21400002 .61 .18200001 .6470001 .13200002 .6470001 C .037 .6470001 0 .50200006 0 .49300004 C 0 .48300005 .01 .48300005 .012 .48300005 C .022000002 .48300005 .023 .485 .028000003 .50100007 C .055000009 .595 .095000009 .625 .12900001 .625 C .13700001 .625 .15400002 .625 .15400002 .59300008 C .15400002 .568 .14400001 .54200008 .13700001 .523 C .097 .41700004 .079 .36 .079 .31300003 C .079 .224 .142 .194 .201 .194 C .24000003 .194 .274 .21100001 .30200003 .23900002 C .289 .187 .277 .13800001 .237 .08500001 C .21100001 .051 .17300001 .022 .127 .022 C .113000009 .022 .068 .025000006 .051000008 .06400001 C .067 .06400001 .080000009 .06400001 .094000007 .076000008 C .104 .08500001 .11400001 .098000008 .11400001 .117000009 C .11400001 .148 .087000008 .15200001 .07700001 .15200001 C .054000006 .15200001 .021 .136 .021 .087000008 C .021 .037 .065000008 0 .127 0 C .23 0 .333 .091000009 .361 .20400001 L .45700003 .586 Z "/>
</symbol>
<use xlink:href="#font_1_3" transform="matrix(9.9626,0,0,-9.9626,106.83192,74.849338)" fill="#000080"/>
<symbol id="font_2_7">
<path d="M .63100007 .19400002 C .646 .19400002 .665 .19400002 .665 .214 C .665 .23400001 .646 .23400001 .632 .23400001 L .033 .23400001 C .019000002 .23400001 0 .23400001 0 .214 C 0 .19400002 .019000002 .19400002 .034 .19400002 L .63100007 .19400002 M .632 0 C .646 0 .665 0 .665 .02000001 C .665 .040000008 .646 .040000008 .63100007 .040000008 L .034 .040000008 C .019000002 .040000008 0 .040000008 0 .02000001 C 0 0 .019000002 0 .033 0 L .632 0 Z "/>
</symbol>
<use xlink:href="#font_2_7" transform="matrix(9.9626,0,0,-9.9626,115.11091,71.48197)" fill="#000080"/>
<symbol id="font_3_1">
<path d="M .57600006 0 C .59300008 0 .611 0 .611 .019999996 C .611 .040000008 .59300008 .040000008 .57600006 .040000008 L .035000005 .040000008 C .018 .040000008 0 .040000008 0 .019999996 C 0 0 .018 0 .035000005 0 L .57600006 0 Z "/>
</symbol>
<use xlink:href="#font_3_1" transform="matrix(9.9626,0,0,-9.9626,125.8959,70.5156)" fill="#000080"/>
<symbol id="font_1_2">
<path d="M .305 .31300003 C .311 .33900003 .334 .43100003 .404 .43100003 C .409 .43100003 .433 .43100003 .454 .418 C .426 .41300003 .40600003 .388 .40600003 .36400003 C .40600003 .34800003 .417 .32900004 .444 .32900004 C .46600003 .32900004 .498 .34700004 .498 .38700003 C .498 .43900005 .439 .45300005 .405 .45300005 C .347 .45300005 .312 .40000005 .3 .37700004 C .275 .44300003 .221 .45300005 .19200002 .45300005 C .08800001 .45300005 .031000002 .32400004 .031000002 .29900003 C .031000002 .28900004 .041 .28900004 .043000007 .28900004 C .051000008 .28900004 .054000006 .291 .056 .3 C .09 .40600003 .156 .43100003 .19000001 .43100003 C .209 .43100003 .244 .42200003 .244 .36400003 C .244 .33300004 .22700002 .26600004 .19000001 .126 C .17400001 .064 .13900002 .022000002 .095000009 .022000002 C .08900001 .022000002 .06600001 .022000002 .045 .035 C .07000001 .040000004 .09200001 .061 .09200001 .089 C .09200001 .116000007 .07000001 .124000009 .055000009 .124000009 C .025 .124000009 0 .098000008 0 .06600001 C 0 .020000002 .050000006 0 .094000007 0 C .16000001 0 .19600001 .07000001 .19900002 .076000008 C .21100001 .039 .24700003 0 .307 0 C .41 0 .467 .12900001 .467 .15400002 C .467 .16400002 .458 .16400002 .455 .16400002 C .446 .16400002 .444 .16000001 .442 .15300001 C .409 .046 .341 .022000002 .30900003 .022000002 C .27 .022000002 .254 .054 .254 .08800001 C .254 .11000001 .26 .13200002 .271 .17600002 L .305 .31300003 Z "/>
</symbol>
<use xlink:href="#font_1_2" transform="matrix(9.9626,0,0,-9.9626,133.1069,72.91659)" fill="#000080"/>
<symbol id="font_4_1">
<path d="M .442 .18200001 L .40800003 .18200001 C .40500004 .16000001 .39500005 .101 .38200004 .091000009 C .374 .085 .29700003 .085 .28300003 .085 L .099 .085 C .20400003 .178 .23900002 .20600002 .29900003 .25300003 C .37300004 .312 .442 .374 .442 .469 C .442 .59000006 .33600004 .66400006 .20800004 .66400006 C .084 .66400006 0 .577 0 .485 C 0 .43400003 .043000007 .42900003 .053000004 .42900003 C .077 .42900003 .10600001 .446 .10600001 .48200003 C .10600001 .5 .099 .535 .047000007 .535 C .078 .606 .146 .628 .19300002 .628 C .293 .628 .34500004 .55 .34500004 .469 C .34500004 .38200004 .28300003 .31300003 .25100003 .277 L .010000005 .039 C 0 .030000002 0 .028 0 0 L .41200004 0 L .442 .18200001 Z "/>
</symbol>
<use xlink:href="#font_4_1" transform="matrix(6.9738,0,0,-6.9738,138.95034,68.693)" fill="#000080"/>
<symbol id="font_2_1">
<path d="M .35300002 .31300003 L .632 .31300003 C .646 .31300003 .665 .31300003 .665 .333 C .665 .35300002 .646 .35300002 .632 .35300002 L .35300002 .35300002 L .35300002 .633 C .35300002 .647 .35300002 .666 .33300004 .666 C .31300003 .666 .31300003 .647 .31300003 .633 L .31300003 .35300002 L .033 .35300002 C .019000002 .35300002 0 .35300002 0 .333 C 0 .31300003 .019000002 .31300003 .033 .31300003 L .31300003 .31300003 L .31300003 .033000005 C .31300003 .019000002 .31300003 0 .33300004 0 C .35300002 0 .35300002 .019000002 .35300002 .033000005 L .35300002 .31300003 Z "/>
</symbol>
<symbol id="font_2_4">
<path d="M .266 .165 L .266 .078 C .266 .042000005 .26400004 .031000002 .19000001 .031000002 L .16900002 .031000002 L .16900002 0 C .21000001 .003 .26200003 .003 .30400003 .003 C .34600003 .003 .39900003 .003 .44000004 0 L .44000004 .031000002 L .41900004 .031000002 C .34500004 .031000002 .34300003 .042000005 .34300003 .078 L .34300003 .165 L .44300003 .165 L .44300003 .19600001 L .34300003 .19600001 L .34300003 .651 C .34300003 .671 .34300003 .67700007 .32700003 .67700007 C .31800003 .67700007 .31500004 .67700007 .307 .665 L 0 .19600001 L 0 .165 L .266 .165 M .272 .19600001 L .028 .19600001 L .272 .569 L .272 .19600001 Z "/>
</symbol>
<use xlink:href="#font_2_1" transform="matrix(9.9626,0,0,-9.9626,145.7529,73.633899)" fill="#000080"/>
<use xlink:href="#font_2_4" transform="matrix(9.9626,0,0,-9.9626,155.43654,72.807)" fill="#000080"/>
<use xlink:href="#font_1_2" transform="matrix(9.9626,0,0,-9.9626,160.4279,72.91659)" fill="#000080"/>
<use xlink:href="#font_1_3" transform="matrix(9.9626,0,0,-9.9626,63.27391,38.98334)" fill="#800000"/>
<use xlink:href="#font_2_7" transform="matrix(9.9626,0,0,-9.9626,71.55191,35.615983)" fill="#800000"/>
<use xlink:href="#font_1_2" transform="matrix(9.9626,0,0,-9.9626,81.79891,37.0506)" fill="#800000"/>
<use xlink:href="#font_4_1" transform="matrix(6.9738,0,0,-6.9738,87.64334,32.828004)" fill="#800000"/>
<use xlink:href="#font_3_1" transform="matrix(9.9626,0,0,-9.9626,94.71389,34.649614)" fill="#800000"/>
<symbol id="font_2_6">
<path d="M .089999999 .35000003 L .089999999 .37400005 C .089999999 .62700006 .21400002 .66300007 .26500003 .66300007 C .28900004 .66300007 .33100004 .65700009 .35300002 .623 C .33800004 .623 .298 .623 .298 .57800009 C .298 .54700008 .32200004 .53200009 .344 .53200009 C .36 .53200009 .39000003 .54100009 .39000003 .58000007 C .39000003 .64000007 .34600003 .688 .263 .688 C .13499999 .688 0 .559 0 .33800004 C 0 .071 .116000007 0 .20900002 0 C .32000003 0 .41500003 .094000007 .41500003 .22600001 C .41500003 .35300005 .32600004 .44900004 .215 .44900004 C .14700002 .44900004 .11000001 .39800004 .089999999 .35000003 M .20900002 .028 C .146 .028 .116000007 .088 .11000001 .103 C .092 .15 .092 .23 .092 .24800001 C .092 .32600004 .124000009 .42600004 .21400002 .42600004 C .23000002 .42600004 .27600003 .42600004 .307 .36400003 C .32500003 .32700003 .32500003 .27600003 .32500003 .22700002 C .32500003 .179 .32500003 .12900001 .30800004 .093 C .27800004 .033000005 .23200003 .028 .20900002 .028 Z "/>
</symbol>
<use xlink:href="#font_2_6" transform="matrix(9.9626,0,0,-9.9626,104.26842,37.160188)" fill="#800000"/>
<use xlink:href="#font_1_2" transform="matrix(9.9626,0,0,-9.9626,109.11991,37.0506)" fill="#800000"/>
<symbol id="font_2_5">
<path d="M .39900003 .223 C .39900003 .34200005 .317 .44200004 .209 .44200004 C .16100002 .44200004 .118000019 .42600004 .082 .39100004 L .082 .586 C .10200001 .58000007 .135 .573 .16700001 .573 C .29 .573 .36 .66400006 .36 .67700007 C .36 .683 .357 .688 .35 .688 C .349 .688 .347 .688 .342 .68500009 C .322 .67600008 .273 .656 .20600002 .656 C .16600001 .656 .120000008 .66300007 .073 .6840001 C .065 .68700006 .06300001 .68700006 .061000009 .68700006 C .051000004 .68700006 .051000004 .679 .051000004 .66300007 L .051000004 .36700005 C .051000004 .34900005 .051000004 .34100003 .065 .34100003 C .07200001 .34100003 .074 .34400005 .07800001 .35000003 C .08900002 .36600004 .12600002 .42000006 .207 .42000006 C .259 .42000006 .284 .37400005 .292 .35600005 C .308 .31900005 .31 .28000004 .31 .23 C .31 .19500001 .31 .135 .286 .093 C .262 .054000006 .22500001 .028 .17900002 .028 C .106000009 .028 .049000008 .08100001 .032 .14000002 C .035 .13900002 .038000008 .13800001 .049000008 .13800001 C .082 .13800001 .09900001 .163 .09900001 .187 C .09900001 .21100001 .082 .23600002 .049000008 .23600002 C .035 .23600002 0 .22900002 0 .18300002 C 0 .097 .069000009 0 .18100001 0 C .297 0 .39900003 .096 .39900003 .223 Z "/>
</symbol>
<use xlink:href="#font_2_1" transform="matrix(9.9626,0,0,-9.9626,117.296909,37.767908)" fill="#800000"/>
<use xlink:href="#font_2_5" transform="matrix(9.9626,0,0,-9.9626,127.19973,37.160188)" fill="#800000"/>
<path transform="matrix(1,0,0,-1,-48.368,294.911)" stroke-width="1" stroke-linecap="butt" stroke-dasharray="2.98883,2.98883" stroke-miterlimit="10" stroke-linejoin="miter" fill="none" stroke="#000000" d="M 151.87226 128.09262 L 151.87226 177.70034 "/>
</g>
<path transform="matrix(1,0,0,-1,-48.368,294.911)" stroke-width="1" stroke-linecap="butt" stroke-miterlimit="10" stroke-linejoin="miter" fill="none" stroke="#808080" d="M 151.87226 125.96675 L 151.87226 130.21848 M 194.27216 125.96675 L 194.27216 130.21848 "/>
<path transform="matrix(1,0,0,-1,-48.368,294.911)" stroke-width="1" stroke-linecap="butt" stroke-miterlimit="10" stroke-linejoin="miter" fill="none" stroke="#808080" d="M 95.01024 179.32968 L 99.26189 179.32968 M 95.01024 230.56673 L 99.26189 230.56673 M 95.01024 281.80378 L 99.26189 281.80378 "/>
<path transform="matrix(1,0,0,-1,-48.368,294.911)" stroke-width="1" stroke-linecap="butt" stroke-miterlimit="10" stroke-linejoin="miter" fill="none" stroke="#000000" d="M 48.56804 128.09262 L 240.84767 128.09262 "/>
<path transform="matrix(1,0,0,-1,192.47968,166.81839)" d="M 1.99252 0 L -1.19551 1.59401 L 0 0 L -1.19551 -1.59401 "/>
<path transform="matrix(1,0,0,-1,-48.368,294.911)" stroke-width="1" stroke-linecap="butt" stroke-miterlimit="10" stroke-linejoin="miter" fill="none" stroke="#000000" d="M 97.13608 120.40706 L 97.13608 279.81126 "/>
<path transform="matrix(0,-1,-1,-0,48.768079,15.099762)" d="M 1.99252 0 L -1.19551 1.59401 L 0 0 L -1.19551 -1.59401 "/>
<symbol id="font_1_1">
<path d="M .33300004 .38900004 C .31500004 .42600004 .286 .45300005 .24100001 .45300005 C .124 .45300005 0 .30600003 0 .16000001 C 0 .06600001 .055000005 0 .133 0 C .153 0 .20300001 .0040000008 .263 .075 C .27100004 .033000005 .30600003 0 .35400004 0 C .38900004 0 .41200004 .023000002 .42800004 .055000005 C .44500003 .091000009 .45800004 .15200001 .45800004 .15400002 C .45800004 .16400002 .44900004 .16400002 .44600005 .16400002 C .43600003 .16400002 .43500004 .16000001 .43200005 .14600002 C .41500003 .081 .397 .022000002 .35600005 .022000002 C .32900004 .022000002 .32600004 .048 .32600004 .068 C .32600004 .09 .32800005 .098000008 .33900003 .14200002 C .35000003 .18400002 .35200004 .19400002 .36100004 .23200003 L .397 .37200005 C .40400005 .40000005 .40400005 .40200005 .40400005 .40600003 C .40400005 .42300005 .39200003 .43300004 .37500004 .43300004 C .35100005 .43300004 .33600004 .411 .33300004 .38900004 M .26800005 .13000001 C .263 .112 .263 .11000001 .24800001 .093 C .20400001 .038000004 .163 .022000002 .135 .022000002 C .08499999 .022000002 .07100001 .077 .07100001 .116000007 C .07100001 .16600001 .103 .28900004 .126 .335 C .157 .39400003 .202 .43100003 .242 .43100003 C .307 .43100003 .32100005 .34900005 .32100005 .34300003 C .32100005 .337 .31900005 .33100004 .31800003 .32600004 L .26800005 .13000001 Z "/>
</symbol>
<use xlink:href="#font_1_1" transform="matrix(9.9626,0,0,-9.9626,101.26751,176.8656)"/>
<symbol id="font_2_2">
<path d="M .205 .64000007 C .205 .66400006 .205 .666 .18200003 .666 C .120000008 .60200008 .032000007 .60200008 0 .60200008 L 0 .57100006 C .020000004 .57100006 .07900001 .57100006 .13100001 .597 L .13100001 .079 C .13100001 .043 .128 .031000002 .038000004 .031000002 L .0060000049 .031000002 L .0060000049 0 C .04100001 .003 .128 .003 .168 .003 C .20800002 .003 .29500003 .003 .33000005 0 L .33000005 .031000002 L .29800005 .031000002 C .20800002 .031000002 .205 .042000005 .205 .079 L .205 .64000007 Z "/>
</symbol>
<use xlink:href="#font_2_2" transform="matrix(9.9626,0,0,-9.9626,144.29769,178.88602)"/>
<symbol id="font_2_3">
<path d="M .07700001 .07700001 L .18300002 .18 C .33900003 .31800003 .39900003 .372 .39900003 .47200004 C .39900003 .586 .30900003 .666 .18700002 .666 C .074 .666 0 .574 0 .485 C 0 .42900003 .05 .42900003 .053000008 .42900003 C .07000001 .42900003 .105000007 .441 .105000007 .48200003 C .105000007 .508 .08700001 .53400006 .052000006 .53400006 C .044000005 .53400006 .042000008 .53400006 .039 .53300008 C .062000004 .59800007 .11600001 .63500007 .17400001 .63500007 C .26500003 .63500007 .308 .554 .308 .47200004 C .308 .39200003 .25800003 .31300003 .20300003 .25100003 L .011000004 .037 C 0 .026 0 .024 0 0 L .37100003 0 L .39900003 .17400001 L .374 .17400001 C .36900003 .14400001 .36200003 .1 .352 .085 C .345 .07700001 .279 .07700001 .257 .07700001 L .07700001 .07700001 Z "/>
</symbol>
<use xlink:href="#font_2_3" transform="matrix(9.9626,0,0,-9.9626,38.638135,118.79401)"/>
<use xlink:href="#font_2_4" transform="matrix(9.9626,0,0,-9.9626,38.418958,67.558017)"/>
<use xlink:href="#font_2_6" transform="matrix(9.9626,0,0,-9.9626,38.558435,16.540192)"/>
<use xlink:href="#font_1_2" transform="matrix(9.9626,0,0,-9.9626,198.32392,169.0506)"/>
<use xlink:href="#font_1_3" transform="matrix(9.9626,0,0,-9.9626,46.45491,9.652349)"/>
</svg>
