<?xml version="1.0" encoding="UTF-8" standalone="no"?>
<!DOCTYPE svg PUBLIC "-//W3C//DTD SVG 1.1//EN" "http://www.w3.org/Graphics/SVG/1.1/DTD/svg11.dtd">
<svg xmlns="http://www.w3.org/2000/svg" xmlns:xlink="http://www.w3.org/1999/xlink" version="1.1" width="195.033pt" height="161.58pt" viewBox="0 0 195.033 161.58">
<clipPath id="cp0">
<path transform="matrix(1,0,0,-1,80.32,97.786)" d="M -80.32117 -37.52151 L -80.32117 60.2652 L 0 97.78671 L 114.71413 71.51314 L 114.71413 -26.27357 L 34.39294 -63.79509 Z "/>
</clipPath>
<g clip-path="url(#cp0)">
<path transform="matrix(1,0,0,-1,80.32,97.786)" stroke-width="1" stroke-linecap="butt" stroke-miterlimit="10" stroke-linejoin="miter" fill="none" stroke="#2c96ff" d="M 40.77159 37.56905 L 31.5043 37.6554 L 30.64154 23.03122 L 39.35 22.95007 Z "/>
<path transform="matrix(1,0,0,-1,80.32,97.786)" stroke-width="1" stroke-linecap="butt" stroke-miterlimit="10" stroke-linejoin="miter" fill="none" stroke="#2c96ff" d="M 31.5043 37.6554 L 21.80151 37.114 L 21.52383 22.52246 L 30.64154 23.03122 Z "/>
<path transform="matrix(1,0,0,-1,80.32,97.786)" stroke-width="1" stroke-linecap="butt" stroke-miterlimit="10" stroke-linejoin="miter" fill="none" stroke="#2c96ff" d="M 49.32338 36.85748 L 40.77159 37.56905 L 39.35 22.95007 L 47.38612 22.28142 Z "/>
<path transform="matrix(1,0,0,-1,80.32,97.786)" stroke-width="1" stroke-linecap="butt" stroke-miterlimit="10" stroke-linejoin="miter" fill="none" stroke="#80c0ff" d="M 39.35 22.95007 L 30.64154 23.03122 L 28.15683 7.67935 L 35.25595 7.6132 Z "/>
<path transform="matrix(1,0,0,-1,80.32,97.786)" stroke-width="1" stroke-linecap="butt" stroke-miterlimit="10" stroke-linejoin="miter" fill="none" stroke="#2c96ff" d="M 21.80151 37.114 L 11.95981 35.96155 L 12.27559 21.43951 L 21.52383 22.52246 Z "/>
<path transform="matrix(1,0,0,-1,80.32,97.786)" stroke-width="1" stroke-linecap="butt" stroke-miterlimit="10" stroke-linejoin="miter" fill="none" stroke="#80c0ff" d="M 30.64154 23.03122 L 21.52383 22.52246 L 20.72412 7.2646 L 28.15683 7.67935 Z "/>
<path transform="matrix(1,0,0,-1,80.32,97.786)" stroke-width="1" stroke-linecap="butt" stroke-miterlimit="10" stroke-linejoin="miter" fill="none" stroke="#80c0ff" d="M 47.38612 22.28142 L 39.35 22.95007 L 35.25595 7.6132 L 41.80696 7.06812 Z "/>
<path transform="matrix(1,0,0,-1,80.32,97.786)" stroke-width="1" stroke-linecap="butt" stroke-miterlimit="10" stroke-linejoin="miter" fill="none" stroke="#2c96ff" d="M 56.89809 35.54218 L 49.32338 36.85748 L 47.38612 22.28142 L 54.50409 21.04541 Z "/>
<path transform="matrix(1,0,0,-1,80.32,97.786)" stroke-width="1" stroke-linecap="butt" stroke-miterlimit="10" stroke-linejoin="miter" fill="none" stroke="#2c6aff" d="M 39.35 49.70688 L 30.64154 49.78802 L 31.5043 37.6554 L 40.77159 37.56905 Z "/>
<path transform="matrix(1,0,0,-1,80.32,97.786)" stroke-width="1" stroke-linecap="butt" stroke-miterlimit="10" stroke-linejoin="miter" fill="none" stroke="#2c6aff" d="M 30.64154 49.78802 L 21.52383 49.27927 L 21.80151 37.114 L 31.5043 37.6554 Z "/>
<path transform="matrix(1,0,0,-1,80.32,97.786)" stroke-width="1" stroke-linecap="butt" stroke-miterlimit="10" stroke-linejoin="miter" fill="none" stroke="#2c6aff" d="M 47.38612 49.03821 L 39.35 49.70688 L 40.77159 37.56905 L 49.32338 36.85748 Z "/>
<path transform="matrix(1,0,0,-1,80.32,97.786)" stroke-width="1" stroke-linecap="butt" stroke-miterlimit="10" stroke-linejoin="miter" fill="none" stroke="#80c0ff" d="M 21.52383 22.52246 L 12.27559 21.43951 L 13.18498 6.38179 L 20.72412 7.2646 Z "/>
<path transform="matrix(1,0,0,-1,80.32,97.786)" stroke-width="1" stroke-linecap="butt" stroke-miterlimit="10" stroke-linejoin="miter" fill="none" stroke="#80c0ff" d="M 54.50409 21.04541 L 47.38612 22.28142 L 41.80696 7.06812 L 47.6095 6.06052 Z "/>
<path transform="matrix(1,0,0,-1,80.32,97.786)" stroke-width="1" stroke-linecap="butt" stroke-miterlimit="10" stroke-linejoin="miter" fill="none" stroke="#2c96ff" d="M 11.95981 35.96155 L 2.27623 34.23279 L 3.17593 19.815 L 12.27559 21.43951 Z "/>
<path transform="matrix(1,0,0,-1,80.32,97.786)" stroke-width="1" stroke-linecap="butt" stroke-miterlimit="10" stroke-linejoin="miter" fill="none" stroke="#2c6aff" d="M 21.52383 49.27927 L 12.27559 48.19632 L 11.95981 35.96155 L 21.80151 37.114 Z "/>
<path transform="matrix(1,0,0,-1,80.32,97.786)" stroke-width="1" stroke-linecap="butt" stroke-miterlimit="10" stroke-linejoin="miter" fill="none" stroke="#2c6aff" d="M 54.50409 47.80222 L 47.38612 49.03821 L 49.32338 36.85748 L 56.89809 35.54218 Z "/>
<path transform="matrix(1,0,0,-1,80.32,97.786)" stroke-width="1" stroke-linecap="butt" stroke-miterlimit="10" stroke-linejoin="miter" fill="none" stroke="#2c96ff" d="M 60.4894 19.28032 L 54.50409 21.04541 L 56.89809 35.54218 L 63.26747 33.6638 Z "/>
<path transform="matrix(1,0,0,-1,80.32,97.786)" stroke-width="1" stroke-linecap="butt" stroke-miterlimit="10" stroke-linejoin="miter" fill="none" stroke="#80c0ff" d="M 12.27559 21.43951 L 3.17593 19.815 L 5.76697 5.0575 L 13.18498 6.38179 Z "/>
<path transform="matrix(1,0,0,-1,80.32,97.786)" stroke-width="1" stroke-linecap="butt" stroke-miterlimit="10" stroke-linejoin="miter" fill="none" stroke="#80c0ff" d="M 52.48868 4.62163 L 47.6095 6.06052 L 54.50409 21.04541 L 60.4894 19.28032 Z "/>
<path transform="matrix(1,0,0,-1,80.32,97.786)" stroke-width="1" stroke-linecap="butt" stroke-miterlimit="10" stroke-linejoin="miter" fill="none" stroke="#2c6aff" d="M 12.27559 48.19632 L 3.17593 46.57181 L 2.27623 34.23279 L 11.95981 35.96155 Z "/>
<path transform="matrix(1,0,0,-1,80.32,97.786)" stroke-width="1" stroke-linecap="butt" stroke-miterlimit="10" stroke-linejoin="miter" fill="none" stroke="#2c96ff" d="M 2.27623 34.23279 L -6.95328 31.98048 L -5.49702 17.69849 L 3.17593 19.815 Z "/>
<path transform="matrix(1,0,0,-1,80.32,97.786)" stroke-width="1" stroke-linecap="butt" stroke-miterlimit="10" stroke-linejoin="miter" fill="none" stroke="#c3e1ff" d="M 35.25595 7.6132 L 28.15683 7.67935 L 24.35039 -6.54889 L 28.98404 -6.59206 Z "/>
<path transform="matrix(1,0,0,-1,80.32,97.786)" stroke-width="1" stroke-linecap="butt" stroke-miterlimit="10" stroke-linejoin="miter" fill="none" stroke="#2c6aff" d="M 63.26747 33.6638 L 56.89809 35.54218 L 54.50409 47.80222 L 60.4894 46.03711 Z "/>
<path transform="matrix(1,0,0,-1,80.32,97.786)" stroke-width="1" stroke-linecap="butt" stroke-miterlimit="10" stroke-linejoin="miter" fill="none" stroke="#c3e1ff" d="M 28.15683 7.67935 L 20.72412 7.2646 L 19.499 -6.81958 L 24.35039 -6.54889 Z "/>
<path transform="matrix(1,0,0,-1,80.32,97.786)" stroke-width="1" stroke-linecap="butt" stroke-miterlimit="10" stroke-linejoin="miter" fill="none" stroke="#c3e1ff" d="M 41.80696 7.06812 L 35.25595 7.6132 L 28.98404 -6.59206 L 33.25993 -6.94785 Z "/>
<path transform="matrix(1,0,0,-1,80.32,97.786)" stroke-width="1" stroke-linecap="butt" stroke-miterlimit="10" stroke-linejoin="miter" fill="none" stroke="#80c0ff" d="M 3.17593 19.815 L -5.49702 17.69849 L -1.30318 3.33212 L 5.76697 5.0575 Z "/>
<path transform="matrix(1,0,0,-1,80.32,97.786)" stroke-width="1" stroke-linecap="butt" stroke-miterlimit="10" stroke-linejoin="miter" fill="none" stroke="#2c96ff" d="M 65.15884 17.03894 L 60.4894 19.28032 L 63.26747 33.6638 L 68.23657 31.27861 Z "/>
<path transform="matrix(1,0,0,-1,80.32,97.786)" stroke-width="1" stroke-linecap="butt" stroke-miterlimit="10" stroke-linejoin="miter" fill="none" stroke="#c3e1ff" d="M 20.72412 7.2646 L 13.18498 6.38179 L 14.57814 -7.39581 L 19.499 -6.81958 Z "/>
<path transform="matrix(1,0,0,-1,80.32,97.786)" stroke-width="1" stroke-linecap="butt" stroke-miterlimit="10" stroke-linejoin="miter" fill="none" stroke="#c3e1ff" d="M 47.6095 6.06052 L 41.80696 7.06812 L 33.25993 -6.94785 L 37.04729 -7.6055 Z "/>
<path transform="matrix(1,0,0,-1,80.32,97.786)" stroke-width="1" stroke-linecap="butt" stroke-miterlimit="10" stroke-linejoin="miter" fill="none" stroke="#7f40ff" d="M 35.25595 57.89827 L 28.15683 57.9644 L 30.64154 49.78802 L 39.35 49.70688 Z "/>
<path transform="matrix(1,0,0,-1,80.32,97.786)" stroke-width="1" stroke-linecap="butt" stroke-miterlimit="10" stroke-linejoin="miter" fill="none" stroke="#80c0ff" d="M 56.29523 2.79446 L 52.48868 4.62163 L 60.4894 19.28032 L 65.15884 17.03894 Z "/>
<path transform="matrix(1,0,0,-1,80.32,97.786)" stroke-width="1" stroke-linecap="butt" stroke-miterlimit="10" stroke-linejoin="miter" fill="none" stroke="#7f40ff" d="M 28.15683 57.9644 L 20.72412 57.54967 L 21.52383 49.27927 L 30.64154 49.78802 Z "/>
<path transform="matrix(1,0,0,-1,80.32,97.786)" stroke-width="1" stroke-linecap="butt" stroke-miterlimit="10" stroke-linejoin="miter" fill="none" stroke="#7f40ff" d="M 41.80696 57.35318 L 35.25595 57.89827 L 39.35 49.70688 L 47.38612 49.03821 Z "/>
<path transform="matrix(1,0,0,-1,80.32,97.786)" stroke-width="1" stroke-linecap="butt" stroke-miterlimit="10" stroke-linejoin="miter" fill="none" stroke="#2c6aff" d="M 3.17593 46.57181 L -5.49702 44.45529 L -6.95328 31.98048 L 2.27623 34.23279 Z "/>
<path transform="matrix(1,0,0,-1,80.32,97.786)" stroke-width="1" stroke-linecap="butt" stroke-miterlimit="10" stroke-linejoin="miter" fill="none" stroke="#c3e1ff" d="M 13.18498 6.38179 L 5.76697 5.0575 L 9.73636 -8.26018 L 14.57814 -7.39581 Z "/>
<path transform="matrix(1,0,0,-1,80.32,97.786)" stroke-width="1" stroke-linecap="butt" stroke-miterlimit="10" stroke-linejoin="miter" fill="none" stroke="#7f40ff" d="M 20.72412 57.54967 L 13.18498 56.66684 L 12.27559 48.19632 L 21.52383 49.27927 Z "/>
<path transform="matrix(1,0,0,-1,80.32,97.786)" stroke-width="1" stroke-linecap="butt" stroke-miterlimit="10" stroke-linejoin="miter" fill="none" stroke="#c3e1ff" d="M 40.23196 -8.54468 L 37.04729 -7.6055 L 47.6095 6.06052 L 52.48868 4.62163 Z "/>
<path transform="matrix(1,0,0,-1,80.32,97.786)" stroke-width="1" stroke-linecap="butt" stroke-miterlimit="10" stroke-linejoin="miter" fill="none" stroke="#2c6aff" d="M 68.23657 31.27861 L 63.26747 33.6638 L 60.4894 46.03711 L 65.15884 43.79575 Z "/>
<path transform="matrix(1,0,0,-1,80.32,97.786)" stroke-width="1" stroke-linecap="butt" stroke-miterlimit="10" stroke-linejoin="miter" fill="none" stroke="#7f40ff" d="M 47.6095 56.34558 L 41.80696 57.35318 L 47.38612 49.03821 L 54.50409 47.80222 Z "/>
<path transform="matrix(1,0,0,-1,80.32,97.786)" stroke-width="1" stroke-linecap="butt" stroke-miterlimit="10" stroke-linejoin="miter" fill="none" stroke="#2c96ff" d="M -6.95328 31.98048 L -15.4498 29.27255 L -13.48122 15.15385 L -5.49702 17.69849 Z "/>
<path transform="matrix(1,0,0,-1,80.32,97.786)" stroke-width="1" stroke-linecap="butt" stroke-miterlimit="10" stroke-linejoin="miter" fill="none" stroke="#80c0ff" d="M -5.49702 17.69849 L -13.48122 15.15385 L -7.81186 1.25775 L -1.30318 3.33212 Z "/>
<path transform="matrix(1,0,0,-1,80.32,97.786)" stroke-width="1" stroke-linecap="butt" stroke-miterlimit="10" stroke-linejoin="miter" fill="none" stroke="#c3e1ff" d="M 5.76697 5.0575 L -1.30318 3.33212 L 5.1216 -9.38635 L 9.73636 -8.26018 Z "/>
<path transform="matrix(1,0,0,-1,80.32,97.786)" stroke-width="1" stroke-linecap="butt" stroke-miterlimit="10" stroke-linejoin="miter" fill="none" stroke="#7f40ff" d="M 13.18498 56.66684 L 5.76697 55.34254 L 3.17593 46.57181 L 12.27559 48.19632 Z "/>
<path transform="matrix(1,0,0,-1,80.32,97.786)" stroke-width="1" stroke-linecap="butt" stroke-miterlimit="10" stroke-linejoin="miter" fill="none" stroke="#2c96ff" d="M 68.37044 14.38997 L 65.15884 17.03894 L 68.23657 31.27861 L 71.65425 28.45964 Z "/>
<path transform="matrix(1,0,0,-1,80.32,97.786)" stroke-width="1" stroke-linecap="butt" stroke-miterlimit="10" stroke-linejoin="miter" fill="none" stroke="#80c0ff" d="M 58.9133 .63504 L 56.29523 2.79446 L 65.15884 17.03894 L 68.37044 14.38997 Z "/>
<path transform="matrix(1,0,0,-1,80.32,97.786)" stroke-width="1" stroke-linecap="butt" stroke-miterlimit="10" stroke-linejoin="miter" fill="none" stroke="#c3e1ff" d="M 42.71652 -9.73727 L 40.23196 -8.54468 L 52.48868 4.62163 L 56.29523 2.79446 Z "/>
<path transform="matrix(1,0,0,-1,80.32,97.786)" stroke-width="1" stroke-linecap="butt" stroke-miterlimit="10" stroke-linejoin="miter" fill="none" stroke="#7f40ff" d="M 60.4894 46.03711 L 54.50409 47.80222 L 47.6095 56.34558 L 52.48868 54.90668 Z "/>
<path transform="matrix(1,0,0,-1,80.32,97.786)" stroke-width="1" stroke-linecap="butt" stroke-miterlimit="10" stroke-linejoin="miter" fill="none" stroke="#2c6aff" d="M -5.49702 44.45529 L -13.48122 41.91066 L -15.4498 29.27255 L -6.95328 31.98048 Z "/>
<path transform="matrix(1,0,0,-1,80.32,97.786)" stroke-width="1" stroke-linecap="butt" stroke-miterlimit="10" stroke-linejoin="miter" fill="none" stroke="#c3e1ff" d="M -1.30318 3.33212 L -7.81186 1.25775 L .87335 -10.7403 L 5.1216 -9.38635 Z "/>
<path transform="matrix(1,0,0,-1,80.32,97.786)" stroke-width="1" stroke-linecap="butt" stroke-miterlimit="10" stroke-linejoin="miter" fill="none" stroke="#2c6aff" d="M 71.65425 28.45964 L 68.23657 31.27861 L 65.15884 43.79575 L 68.37044 41.14677 Z "/>
<path transform="matrix(1,0,0,-1,80.32,97.786)" stroke-width="1" stroke-linecap="butt" stroke-miterlimit="10" stroke-linejoin="miter" fill="none" stroke="#7f40ff" d="M 5.76697 55.34254 L -1.30318 53.61719 L -5.49702 44.45529 L 3.17593 46.57181 Z "/>
<path transform="matrix(1,0,0,-1,80.32,97.786)" stroke-width="1" stroke-linecap="butt" stroke-miterlimit="10" stroke-linejoin="miter" fill="none" stroke="#c3e1ff" d="M 44.42535 -11.14677 L 42.71652 -9.73727 L 56.29523 2.79446 L 58.9133 .63504 Z "/>
<path transform="matrix(1,0,0,-1,80.32,97.786)" stroke-width="1" stroke-linecap="butt" stroke-miterlimit="10" stroke-linejoin="miter" fill="none" stroke="#80c0ff" d="M -13.48122 15.15385 L -20.53242 12.25865 L -13.55998 -1.1024 L -7.81186 1.25775 Z "/>
<path transform="matrix(1,0,0,-1,80.32,97.786)" stroke-width="1" stroke-linecap="butt" stroke-miterlimit="10" stroke-linejoin="miter" fill="none" stroke="#2c96ff" d="M -15.4498 29.27255 L -22.95346 26.19156 L -20.53242 12.25865 L -13.48122 15.15385 Z "/>
<path transform="matrix(1,0,0,-1,80.32,97.786)" stroke-width="1" stroke-linecap="butt" stroke-miterlimit="10" stroke-linejoin="miter" fill="none" stroke="#7f40ff" d="M 65.15884 43.79575 L 60.4894 46.03711 L 52.48868 54.90668 L 56.29523 53.07953 Z "/>
<path transform="matrix(1,0,0,-1,80.32,97.786)" stroke-width="1" stroke-linecap="butt" stroke-miterlimit="10" stroke-linejoin="miter" fill="none" stroke="#f0f7ff" d="M 28.98404 -6.59206 L 24.35039 -6.54889 L 19.68102 -17.93756 L 21.29028 -17.95256 Z "/>
<path transform="matrix(1,0,0,-1,80.32,97.786)" stroke-width="1" stroke-linecap="butt" stroke-miterlimit="10" stroke-linejoin="miter" fill="none" stroke="#f0f7ff" d="M 24.35039 -6.54889 L 19.499 -6.81958 L 17.99614 -18.03157 L 19.68102 -17.93756 Z "/>
<path transform="matrix(1,0,0,-1,80.32,97.786)" stroke-width="1" stroke-linecap="butt" stroke-miterlimit="10" stroke-linejoin="miter" fill="none" stroke="#f0f7ff" d="M 33.25993 -6.94785 L 28.98404 -6.59206 L 21.29028 -17.95256 L 22.77531 -18.07611 Z "/>
<path transform="matrix(1,0,0,-1,80.32,97.786)" stroke-width="1" stroke-linecap="butt" stroke-miterlimit="10" stroke-linejoin="miter" fill="none" stroke="#f0f7ff" d="M 19.499 -6.81958 L 14.57814 -7.39581 L 16.28714 -18.23169 L 17.99614 -18.03157 Z "/>
<path transform="matrix(1,0,0,-1,80.32,97.786)" stroke-width="1" stroke-linecap="butt" stroke-miterlimit="10" stroke-linejoin="miter" fill="none" stroke="#80c0ff" d="M 60.26402 -1.7914 L 58.9133 .63504 L 68.37044 14.38997 L 70.02734 11.41345 Z "/>
<path transform="matrix(1,0,0,-1,80.32,97.786)" stroke-width="1" stroke-linecap="butt" stroke-miterlimit="10" stroke-linejoin="miter" fill="none" stroke="#f0f7ff" d="M 37.04729 -7.6055 L 33.25993 -6.94785 L 22.77531 -18.07611 L 24.09065 -18.30453 Z "/>
<path transform="matrix(1,0,0,-1,80.32,97.786)" stroke-width="1" stroke-linecap="butt" stroke-miterlimit="10" stroke-linejoin="miter" fill="none" stroke="#2c96ff" d="M 70.02734 11.41345 L 68.37044 14.38997 L 71.65425 28.45964 L 73.41748 25.29213 Z "/>
<path transform="matrix(1,0,0,-1,80.32,97.786)" stroke-width="1" stroke-linecap="butt" stroke-miterlimit="10" stroke-linejoin="miter" fill="none" stroke="#f0f7ff" d="M 14.57814 -7.39581 L 9.73636 -8.26018 L 14.60556 -18.53189 L 16.28714 -18.23169 Z "/>
<path transform="matrix(1,0,0,-1,80.32,97.786)" stroke-width="1" stroke-linecap="butt" stroke-miterlimit="10" stroke-linejoin="miter" fill="none" stroke="#c3e1ff" d="M -7.81186 1.25775 L -13.55998 -1.1024 L -2.8785 -12.2808 L .87335 -10.7403 Z "/>
<path transform="matrix(1,0,0,-1,80.32,97.786)" stroke-width="1" stroke-linecap="butt" stroke-miterlimit="10" stroke-linejoin="miter" fill="none" stroke="#f0f7ff" d="M 25.1967 -18.6307 L 24.09065 -18.30453 L 37.04729 -7.6055 L 40.23196 -8.54468 Z "/>
<path transform="matrix(1,0,0,-1,80.32,97.786)" stroke-width="1" stroke-linecap="butt" stroke-miterlimit="10" stroke-linejoin="miter" fill="none" stroke="#c31eff" d="M 28.98404 61.15692 L 24.35039 61.2001 L 28.15683 57.9644 L 35.25595 57.89827 Z "/>
<path transform="matrix(1,0,0,-1,80.32,97.786)" stroke-width="1" stroke-linecap="butt" stroke-miterlimit="10" stroke-linejoin="miter" fill="none" stroke="#2c6aff" d="M -13.48122 41.91066 L -20.53242 39.01546 L -22.95346 26.19156 L -15.4498 29.27255 Z "/>
<path transform="matrix(1,0,0,-1,80.32,97.786)" stroke-width="1" stroke-linecap="butt" stroke-miterlimit="10" stroke-linejoin="miter" fill="none" stroke="#c31eff" d="M 24.35039 61.2001 L 19.499 60.9294 L 20.72412 57.54967 L 28.15683 57.9644 Z "/>
<path transform="matrix(1,0,0,-1,80.32,97.786)" stroke-width="1" stroke-linecap="butt" stroke-miterlimit="10" stroke-linejoin="miter" fill="none" stroke="#c3e1ff" d="M 45.30698 -12.73053 L 44.42535 -11.14677 L 58.9133 .63504 L 60.26402 -1.7914 Z "/>
<path transform="matrix(1,0,0,-1,80.32,97.786)" stroke-width="1" stroke-linecap="butt" stroke-miterlimit="10" stroke-linejoin="miter" fill="none" stroke="#c31eff" d="M 33.25993 60.80115 L 28.98404 61.15692 L 35.25595 57.89827 L 41.80696 57.35318 Z "/>
<path transform="matrix(1,0,0,-1,80.32,97.786)" stroke-width="1" stroke-linecap="butt" stroke-miterlimit="10" stroke-linejoin="miter" fill="none" stroke="#f0f7ff" d="M 9.73636 -8.26018 L 5.1216 -9.38635 L 13.00287 -18.92302 L 14.60556 -18.53189 Z "/>
<path transform="matrix(1,0,0,-1,80.32,97.786)" stroke-width="1" stroke-linecap="butt" stroke-miterlimit="10" stroke-linejoin="miter" fill="none" stroke="#7f40ff" d="M -1.30318 53.61719 L -7.81186 51.54282 L -13.48122 41.91066 L -5.49702 44.45529 Z "/>
<path transform="matrix(1,0,0,-1,80.32,97.786)" stroke-width="1" stroke-linecap="butt" stroke-miterlimit="10" stroke-linejoin="miter" fill="none" stroke="#f0f7ff" d="M 26.05959 -19.04489 L 25.1967 -18.6307 L 40.23196 -8.54468 L 42.71652 -9.73727 Z "/>
<path transform="matrix(1,0,0,-1,80.32,97.786)" stroke-width="1" stroke-linecap="butt" stroke-miterlimit="10" stroke-linejoin="miter" fill="none" stroke="#c31eff" d="M 19.499 60.9294 L 14.57814 60.35316 L 13.18498 56.66684 L 20.72412 57.54967 Z "/>
<path transform="matrix(1,0,0,-1,80.32,97.786)" stroke-width="1" stroke-linecap="butt" stroke-miterlimit="10" stroke-linejoin="miter" fill="none" stroke="#c31eff" d="M 37.04729 60.1435 L 33.25993 60.80115 L 41.80696 57.35318 L 47.6095 56.34558 Z "/>
<path transform="matrix(1,0,0,-1,80.32,97.786)" stroke-width="1" stroke-linecap="butt" stroke-miterlimit="10" stroke-linejoin="miter" fill="none" stroke="#2c6aff" d="M 73.41748 25.29213 L 71.65425 28.45964 L 68.37044 41.14677 L 70.02734 38.17026 Z "/>
<path transform="matrix(1,0,0,-1,80.32,97.786)" stroke-width="1" stroke-linecap="butt" stroke-miterlimit="10" stroke-linejoin="miter" fill="none" stroke="#7f40ff" d="M 68.37044 41.14677 L 65.15884 43.79575 L 56.29523 53.07953 L 58.9133 50.9201 Z "/>
<path transform="matrix(1,0,0,-1,80.32,97.786)" stroke-width="1" stroke-linecap="butt" stroke-miterlimit="10" stroke-linejoin="miter" fill="none" stroke="#f0f7ff" d="M 5.1216 -9.38635 L .87335 -10.7403 L 11.52745 -19.39323 L 13.00287 -18.92302 Z "/>
<path transform="matrix(1,0,0,-1,80.32,97.786)" stroke-width="1" stroke-linecap="butt" stroke-miterlimit="10" stroke-linejoin="miter" fill="none" stroke="#80c0ff" d="M -20.53242 12.25865 L -26.43814 9.10112 L -18.3743 -3.6764 L -13.55998 -1.1024 Z "/>
<path transform="matrix(1,0,0,-1,80.32,97.786)" stroke-width="1" stroke-linecap="butt" stroke-miterlimit="10" stroke-linejoin="miter" fill="none" stroke="#f0f7ff" d="M 26.65306 -19.5344 L 26.05959 -19.04489 L 42.71652 -9.73727 L 44.42535 -11.14677 Z "/>
<path transform="matrix(1,0,0,-1,80.32,97.786)" stroke-width="1" stroke-linecap="butt" stroke-miterlimit="10" stroke-linejoin="miter" fill="none" stroke="#c31eff" d="M 14.57814 60.35316 L 9.73636 59.4888 L 5.76697 55.34254 L 13.18498 56.66684 Z "/>
<path transform="matrix(1,0,0,-1,80.32,97.786)" stroke-width="1" stroke-linecap="butt" stroke-miterlimit="10" stroke-linejoin="miter" fill="none" stroke="#c3e1ff" d="M -13.55998 -1.1024 L -18.3743 -3.6764 L -6.02084 -13.96088 L -2.8785 -12.2808 Z "/>
<path transform="matrix(1,0,0,-1,80.32,97.786)" stroke-width="1" stroke-linecap="butt" stroke-miterlimit="10" stroke-linejoin="miter" fill="none" stroke="#2c96ff" d="M -22.95346 26.19156 L -29.23816 22.8314 L -26.43814 9.10112 L -20.53242 12.25865 Z "/>
<path transform="matrix(1,0,0,-1,80.32,97.786)" stroke-width="1" stroke-linecap="butt" stroke-miterlimit="10" stroke-linejoin="miter" fill="none" stroke="#c31eff" d="M 52.48868 54.90668 L 47.6095 56.34558 L 37.04729 60.1435 L 40.23196 59.20432 Z "/>
<path transform="matrix(1,0,0,-1,80.32,97.786)" stroke-width="1" stroke-linecap="butt" stroke-miterlimit="10" stroke-linejoin="miter" fill="none" stroke="#80c0ff" d="M 60.30634 -4.41064 L 60.26402 -1.7914 L 70.02734 11.41345 L 70.07927 8.20042 Z "/>
<path transform="matrix(1,0,0,-1,80.32,97.786)" stroke-width="1" stroke-linecap="butt" stroke-miterlimit="10" stroke-linejoin="miter" fill="none" stroke="#f0f7ff" d="M .87335 -10.7403 L -2.8785 -12.2808 L 10.22441 -19.92827 L 11.52745 -19.39323 Z "/>
<path transform="matrix(1,0,0,-1,80.32,97.786)" stroke-width="1" stroke-linecap="butt" stroke-miterlimit="10" stroke-linejoin="miter" fill="none" stroke="#c3e1ff" d="M 45.3346 -14.44012 L 45.30698 -12.73053 L 60.26402 -1.7914 L 60.30634 -4.41064 Z "/>
<path transform="matrix(1,0,0,-1,80.32,97.786)" stroke-width="1" stroke-linecap="butt" stroke-miterlimit="10" stroke-linejoin="miter" fill="none" stroke="#f0f7ff" d="M 26.95924 -20.08444 L 26.65306 -19.5344 L 44.42535 -11.14677 L 45.30698 -12.73053 Z "/>
<path transform="matrix(1,0,0,-1,80.32,97.786)" stroke-width="1" stroke-linecap="butt" stroke-miterlimit="10" stroke-linejoin="miter" fill="none" stroke="#2c96ff" d="M 70.07927 8.20042 L 70.02734 11.41345 L 73.41748 25.29213 L 73.47272 21.87292 Z "/>
<path transform="matrix(1,0,0,-1,80.32,97.786)" stroke-width="1" stroke-linecap="butt" stroke-miterlimit="10" stroke-linejoin="miter" fill="none" stroke="#7f40ff" d="M -7.81186 51.54282 L -13.55998 49.18265 L -20.53242 39.01546 L -13.48122 41.91066 Z "/>
<path transform="matrix(1,0,0,-1,80.32,97.786)" stroke-width="1" stroke-linecap="butt" stroke-miterlimit="10" stroke-linejoin="miter" fill="none" stroke="#c31eff" d="M 9.73636 59.4888 L 5.1216 58.36264 L -1.30318 53.61719 L 5.76697 55.34254 Z "/>
<path transform="matrix(1,0,0,-1,80.32,97.786)" stroke-width="1" stroke-linecap="butt" stroke-miterlimit="10" stroke-linejoin="miter" fill="none" stroke="#f0f7ff" d="M -2.8785 -12.2808 L -6.02084 -13.96088 L 9.1331 -20.51175 L 10.22441 -19.92827 Z "/>
<path transform="matrix(1,0,0,-1,80.32,97.786)" stroke-width="1" stroke-linecap="butt" stroke-miterlimit="10" stroke-linejoin="miter" fill="none" stroke="#2c6aff" d="M -20.53242 39.01546 L -26.43814 35.85791 L -29.23816 22.8314 L -22.95346 26.19156 Z "/>
<path transform="matrix(1,0,0,-1,80.32,97.786)" stroke-width="1" stroke-linecap="butt" stroke-miterlimit="10" stroke-linejoin="miter" fill="none" stroke="#c31eff" d="M 56.29523 53.07953 L 52.48868 54.90668 L 40.23196 59.20432 L 42.71652 58.01172 Z "/>
<path transform="matrix(1,0,0,-1,80.32,97.786)" stroke-width="1" stroke-linecap="butt" stroke-miterlimit="10" stroke-linejoin="miter" fill="none" stroke="#f0f7ff" d="M 26.96886 -20.67819 L 26.95924 -20.08444 L 45.30698 -12.73053 L 45.3346 -14.44012 Z "/>
<path transform="matrix(1,0,0,-1,80.32,97.786)" stroke-width="1" stroke-linecap="butt" stroke-miterlimit="10" stroke-linejoin="miter" fill="none" stroke="#7f40ff" d="M 70.02734 38.17026 L 68.37044 41.14677 L 58.9133 50.9201 L 60.26402 48.49365 Z "/>
<path transform="matrix(1,0,0,-1,80.32,97.786)" stroke-width="1" stroke-linecap="butt" stroke-miterlimit="10" stroke-linejoin="miter" fill="none" stroke="#c3e1ff" d="M -18.3743 -3.6764 L -22.10753 -6.38646 L -8.45753 -15.72975 L -6.02084 -13.96088 Z "/>
<path transform="matrix(1,0,0,-1,80.32,97.786)" stroke-width="1" stroke-linecap="butt" stroke-miterlimit="10" stroke-linejoin="miter" fill="none" stroke="#2c6aff" d="M 73.47272 21.87292 L 73.41748 25.29213 L 70.02734 38.17026 L 70.07927 34.95723 Z "/>
<path transform="matrix(1,0,0,-1,80.32,97.786)" stroke-width="1" stroke-linecap="butt" stroke-miterlimit="10" stroke-linejoin="miter" fill="none" stroke="#80c0ff" d="M -26.43814 9.10112 L -31.01767 5.77669 L -22.10753 -6.38646 L -18.3743 -3.6764 Z "/>
<path transform="matrix(1,0,0,-1,80.32,97.786)" stroke-width="1" stroke-linecap="butt" stroke-miterlimit="10" stroke-linejoin="miter" fill="none" stroke="#f0f7ff" d="M -6.02084 -13.96088 L -8.45753 -15.72975 L 8.28683 -21.12607 L 9.1331 -20.51175 Z "/>
<path transform="matrix(1,0,0,-1,80.32,97.786)" stroke-width="1" stroke-linecap="butt" stroke-miterlimit="10" stroke-linejoin="miter" fill="none" stroke="#c31eff" d="M 5.1216 58.36264 L .87335 57.00868 L -7.81186 51.54282 L -1.30318 53.61719 Z "/>
<path transform="matrix(1,0,0,-1,80.32,97.786)" stroke-width="1" stroke-linecap="butt" stroke-miterlimit="10" stroke-linejoin="miter" fill="none" stroke="#c3e1ff" d="M 44.5074 -16.22397 L 45.3346 -14.44012 L 60.30634 -4.41064 L 59.039 -7.14368 Z "/>
<path transform="matrix(1,0,0,-1,80.32,97.786)" stroke-width="1" stroke-linecap="butt" stroke-miterlimit="10" stroke-linejoin="miter" fill="none" stroke="#f0f7ff" d="M 26.68155 -21.29771 L 26.96886 -20.67819 L 45.3346 -14.44012 L 44.5074 -16.22397 Z "/>
<path transform="matrix(1,0,0,-1,80.32,97.786)" stroke-width="1" stroke-linecap="butt" stroke-miterlimit="10" stroke-linejoin="miter" fill="none" stroke="#c31eff" d="M 58.9133 50.9201 L 56.29523 53.07953 L 42.71652 58.01172 L 44.42535 56.60222 Z "/>
<path transform="matrix(1,0,0,-1,80.32,97.786)" stroke-width="1" stroke-linecap="butt" stroke-miterlimit="10" stroke-linejoin="miter" fill="none" stroke="#80c0ff" d="M 59.039 -7.14368 L 60.30634 -4.41064 L 70.07927 8.20042 L 68.52463 4.84784 Z "/>
<path transform="matrix(1,0,0,-1,80.32,97.786)" stroke-width="1" stroke-linecap="butt" stroke-miterlimit="10" stroke-linejoin="miter" fill="none" stroke="#2c96ff" d="M -29.23816 22.8314 L -34.11156 19.29366 L -31.01767 5.77669 L -26.43814 9.10112 Z "/>
<path transform="matrix(1,0,0,-1,80.32,97.786)" stroke-width="1" stroke-linecap="butt" stroke-miterlimit="10" stroke-linejoin="miter" fill="none" stroke="#ffffff" d="M 14.60556 -18.53189 L 13.00287 -18.92302 L 21.39008 -24.12717 L 19.78737 -24.51831 Z "/>
<path transform="matrix(1,0,0,-1,80.32,97.786)" stroke-width="1" stroke-linecap="butt" stroke-miterlimit="10" stroke-linejoin="miter" fill="none" stroke="#ffffff" d="M 13.00287 -18.92302 L 11.52745 -19.39323 L 22.86548 -23.65697 L 21.39008 -24.12717 Z "/>
<path transform="matrix(1,0,0,-1,80.32,97.786)" stroke-width="1" stroke-linecap="butt" stroke-miterlimit="10" stroke-linejoin="miter" fill="none" stroke="#ffffff" d="M 9.1331 -20.51175 L 8.28683 -21.12607 L 26.10611 -21.92412 L 25.25984 -22.53845 Z "/>
<path transform="matrix(1,0,0,-1,80.32,97.786)" stroke-width="1" stroke-linecap="butt" stroke-miterlimit="10" stroke-linejoin="miter" fill="none" stroke="#ffffff" d="M 8.28683 -21.12607 L 7.7114 -21.75247 L 26.68155 -21.29771 L 26.10611 -21.92412 Z "/>
<path transform="matrix(1,0,0,-1,80.32,97.786)" stroke-width="1" stroke-linecap="butt" stroke-miterlimit="10" stroke-linejoin="miter" fill="none" stroke="#ffffff" d="M 22.77531 -18.07611 L 21.29028 -17.95256 L 13.10266 -25.09764 L 11.61763 -24.97408 Z "/>
<path transform="matrix(1,0,0,-1,80.32,97.786)" stroke-width="1" stroke-linecap="butt" stroke-miterlimit="10" stroke-linejoin="miter" fill="none" stroke="#ffffff" d="M 16.28714 -18.23169 L 14.60556 -18.53189 L 19.78737 -24.51831 L 18.1058 -24.8185 Z "/>
<path transform="matrix(1,0,0,-1,80.32,97.786)" stroke-width="1" stroke-linecap="butt" stroke-miterlimit="10" stroke-linejoin="miter" fill="none" stroke="#ffffff" d="M 11.52745 -19.39323 L 10.22441 -19.92827 L 24.1685 -23.12195 L 22.86548 -23.65697 Z "/>
<path transform="matrix(1,0,0,-1,80.32,97.786)" stroke-width="1" stroke-linecap="butt" stroke-miterlimit="10" stroke-linejoin="miter" fill="none" stroke="#ffffff" d="M 10.22441 -19.92827 L 9.1331 -20.51175 L 25.25984 -22.53845 L 24.1685 -23.12195 Z "/>
<path transform="matrix(1,0,0,-1,80.32,97.786)" stroke-width="1" stroke-linecap="butt" stroke-miterlimit="10" stroke-linejoin="miter" fill="none" stroke="#ffffff" d="M 7.7114 -21.75247 L 7.42409 -22.372 L 26.96886 -20.67819 L 26.68155 -21.29771 Z "/>
<path transform="matrix(1,0,0,-1,80.32,97.786)" stroke-width="1" stroke-linecap="butt" stroke-miterlimit="10" stroke-linejoin="miter" fill="none" stroke="#ffffff" d="M 8.33336 -24.0053 L 9.19624 -24.4195 L 25.1967 -18.6307 L 26.05959 -19.04489 Z "/>
<path transform="matrix(1,0,0,-1,80.32,97.786)" stroke-width="1" stroke-linecap="butt" stroke-miterlimit="10" stroke-linejoin="miter" fill="none" stroke="#ffffff" d="M 24.09065 -18.30453 L 22.77531 -18.07611 L 11.61763 -24.97408 L 10.30229 -24.74568 Z "/>
<path transform="matrix(1,0,0,-1,80.32,97.786)" stroke-width="1" stroke-linecap="butt" stroke-miterlimit="10" stroke-linejoin="miter" fill="none" stroke="#ffffff" d="M 21.29028 -17.95256 L 19.68102 -17.93756 L 14.71191 -25.11263 L 13.10266 -25.09764 Z "/>
<path transform="matrix(1,0,0,-1,80.32,97.786)" stroke-width="1" stroke-linecap="butt" stroke-miterlimit="10" stroke-linejoin="miter" fill="none" stroke="#ffffff" d="M 19.68102 -17.93756 L 17.99614 -18.03157 L 16.3968 -25.01862 L 14.71191 -25.11263 Z "/>
<path transform="matrix(1,0,0,-1,80.32,97.786)" stroke-width="1" stroke-linecap="butt" stroke-miterlimit="10" stroke-linejoin="miter" fill="none" stroke="#ffffff" d="M 17.99614 -18.03157 L 16.28714 -18.23169 L 18.1058 -24.8185 L 16.3968 -25.01862 Z "/>
<path transform="matrix(1,0,0,-1,80.32,97.786)" stroke-width="1" stroke-linecap="butt" stroke-miterlimit="10" stroke-linejoin="miter" fill="none" stroke="#ffffff" d="M 7.42409 -22.372 L 7.4337 -22.96576 L 26.95924 -20.08444 L 26.96886 -20.67819 Z "/>
<path transform="matrix(1,0,0,-1,80.32,97.786)" stroke-width="1" stroke-linecap="butt" stroke-miterlimit="10" stroke-linejoin="miter" fill="none" stroke="#ffffff" d="M 7.4337 -22.96576 L 7.73988 -23.5158 L 26.65306 -19.5344 L 26.95924 -20.08444 Z "/>
<path transform="matrix(1,0,0,-1,80.32,97.786)" stroke-width="1" stroke-linecap="butt" stroke-miterlimit="10" stroke-linejoin="miter" fill="none" stroke="#ffffff" d="M 7.73988 -23.5158 L 8.33336 -24.0053 L 26.05959 -19.04489 L 26.65306 -19.5344 Z "/>
<path transform="matrix(1,0,0,-1,80.32,97.786)" stroke-width="1" stroke-linecap="butt" stroke-miterlimit="10" stroke-linejoin="miter" fill="none" stroke="#ffffff" d="M 9.19624 -24.4195 L 10.30229 -24.74568 L 24.09065 -18.30453 L 25.1967 -18.6307 Z "/>
<path transform="matrix(1,0,0,-1,80.32,97.786)" stroke-width="1" stroke-linecap="butt" stroke-miterlimit="10" stroke-linejoin="miter" fill="none" stroke="#7f40ff" d="M -13.55998 49.18265 L -18.3743 46.60863 L -26.43814 35.85791 L -20.53242 39.01546 Z "/>
<path transform="matrix(1,0,0,-1,80.32,97.786)" stroke-width="1" stroke-linecap="butt" stroke-miterlimit="10" stroke-linejoin="miter" fill="none" stroke="#f0f7ff" d="M -8.45753 -15.72975 L -10.11444 -17.53337 L 7.7114 -21.75247 L 8.28683 -21.12607 Z "/>
<path transform="matrix(1,0,0,-1,80.32,97.786)" stroke-width="1" stroke-linecap="butt" stroke-miterlimit="10" stroke-linejoin="miter" fill="none" stroke="#f0f7ff" d="M 26.10611 -21.92412 L 26.68155 -21.29771 L 44.5074 -16.22397 L 42.8505 -18.02759 Z "/>
<path transform="matrix(1,0,0,-1,80.32,97.786)" stroke-width="1" stroke-linecap="butt" stroke-miterlimit="10" stroke-linejoin="miter" fill="none" stroke="#2c96ff" d="M 68.52463 4.84784 L 70.07927 8.20042 L 73.47272 21.87292 L 71.81833 18.3052 Z "/>
<path transform="matrix(1,0,0,-1,80.32,97.786)" stroke-width="1" stroke-linecap="butt" stroke-miterlimit="10" stroke-linejoin="miter" fill="none" stroke="#c3e1ff" d="M -22.10753 -6.38646 L -24.64604 -9.14973 L -10.11444 -17.53337 L -8.45753 -15.72975 Z "/>
<path transform="matrix(1,0,0,-1,80.32,97.786)" stroke-width="1" stroke-linecap="butt" stroke-miterlimit="10" stroke-linejoin="miter" fill="none" stroke="#c31eff" d="M .87335 57.00868 L -2.8785 55.46819 L -13.55998 49.18265 L -7.81186 51.54282 Z "/>
<path transform="matrix(1,0,0,-1,80.32,97.786)" stroke-width="1" stroke-linecap="butt" stroke-miterlimit="10" stroke-linejoin="miter" fill="none" stroke="#7f40ff" d="M 70.07927 34.95723 L 70.02734 38.17026 L 60.26402 48.49365 L 60.30634 45.87439 Z "/>
<path transform="matrix(1,0,0,-1,80.32,97.786)" stroke-width="1" stroke-linecap="butt" stroke-miterlimit="10" stroke-linejoin="miter" fill="none" stroke="#2c6aff" d="M -26.43814 35.85791 L -31.01767 32.5335 L -34.11156 19.29366 L -29.23816 22.8314 Z "/>
<path transform="matrix(1,0,0,-1,80.32,97.786)" stroke-width="1" stroke-linecap="butt" stroke-miterlimit="10" stroke-linejoin="miter" fill="none" stroke="#f0f7ff" d="M -10.11444 -17.53337 L -10.94164 -19.31721 L 7.42409 -22.372 L 7.7114 -21.75247 Z "/>
<path transform="matrix(1,0,0,-1,80.32,97.786)" stroke-width="1" stroke-linecap="butt" stroke-miterlimit="10" stroke-linejoin="miter" fill="none" stroke="#c3e1ff" d="M 42.8505 -18.02759 L 44.5074 -16.22397 L 59.039 -7.14368 L 56.50049 -9.90694 Z "/>
<path transform="matrix(1,0,0,-1,80.32,97.786)" stroke-width="1" stroke-linecap="butt" stroke-miterlimit="10" stroke-linejoin="miter" fill="none" stroke="#c31eff" d="M 60.26402 48.49365 L 58.9133 50.9201 L 44.42535 56.60222 L 45.30698 55.01846 Z "/>
<path transform="matrix(1,0,0,-1,80.32,97.786)" stroke-width="1" stroke-linecap="butt" stroke-miterlimit="10" stroke-linejoin="miter" fill="none" stroke="#ef08ff" d="M 21.29028 59.08928 L 19.68102 59.10426 L 24.35039 61.2001 L 28.98404 61.15692 Z "/>
<path transform="matrix(1,0,0,-1,80.32,97.786)" stroke-width="1" stroke-linecap="butt" stroke-miterlimit="10" stroke-linejoin="miter" fill="none" stroke="#ef08ff" d="M 19.68102 59.10426 L 17.99614 59.01025 L 19.499 60.9294 L 24.35039 61.2001 Z "/>
<path transform="matrix(1,0,0,-1,80.32,97.786)" stroke-width="1" stroke-linecap="butt" stroke-miterlimit="10" stroke-linejoin="miter" fill="none" stroke="#ef08ff" d="M 22.77531 58.96571 L 21.29028 59.08928 L 28.98404 61.15692 L 33.25993 60.80115 Z "/>
<path transform="matrix(1,0,0,-1,80.32,97.786)" stroke-width="1" stroke-linecap="butt" stroke-miterlimit="10" stroke-linejoin="miter" fill="none" stroke="#f0f7ff" d="M 25.25984 -22.53845 L 26.10611 -21.92412 L 42.8505 -18.02759 L 40.4138 -19.79646 Z "/>
<path transform="matrix(1,0,0,-1,80.32,97.786)" stroke-width="1" stroke-linecap="butt" stroke-miterlimit="10" stroke-linejoin="miter" fill="none" stroke="#80c0ff" d="M -31.01767 5.77669 L -34.13167 2.38698 L -24.64604 -9.14973 L -22.10753 -6.38646 Z "/>
<path transform="matrix(1,0,0,-1,80.32,97.786)" stroke-width="1" stroke-linecap="butt" stroke-miterlimit="10" stroke-linejoin="miter" fill="none" stroke="#ef08ff" d="M 17.99614 59.01025 L 16.28714 58.81013 L 14.57814 60.35316 L 19.499 60.9294 Z "/>
<path transform="matrix(1,0,0,-1,80.32,97.786)" stroke-width="1" stroke-linecap="butt" stroke-miterlimit="10" stroke-linejoin="miter" fill="none" stroke="#ef08ff" d="M 24.09065 58.7373 L 22.77531 58.96571 L 33.25993 60.80115 L 37.04729 60.1435 Z "/>
<path transform="matrix(1,0,0,-1,80.32,97.786)" stroke-width="1" stroke-linecap="butt" stroke-miterlimit="10" stroke-linejoin="miter" fill="none" stroke="#2c6aff" d="M 71.81833 18.3052 L 73.47272 21.87292 L 70.07927 34.95723 L 68.52463 31.60464 Z "/>
<path transform="matrix(1,0,0,-1,80.32,97.786)" stroke-width="1" stroke-linecap="butt" stroke-miterlimit="10" stroke-linejoin="miter" fill="none" stroke="#ef08ff" d="M 16.28714 58.81013 L 14.60556 58.50995 L 9.73636 59.4888 L 14.57814 60.35316 Z "/>
<path transform="matrix(1,0,0,-1,80.32,97.786)" stroke-width="1" stroke-linecap="butt" stroke-miterlimit="10" stroke-linejoin="miter" fill="none" stroke="#ef08ff" d="M 40.23196 59.20432 L 37.04729 60.1435 L 24.09065 58.7373 L 25.1967 58.41113 Z "/>
<path transform="matrix(1,0,0,-1,80.32,97.786)" stroke-width="1" stroke-linecap="butt" stroke-miterlimit="10" stroke-linejoin="miter" fill="none" stroke="#f0f7ff" d="M -10.94164 -19.31721 L -10.91403 -21.02682 L 7.4337 -22.96576 L 7.42409 -22.372 Z "/>
<path transform="matrix(1,0,0,-1,80.32,97.786)" stroke-width="1" stroke-linecap="butt" stroke-miterlimit="10" stroke-linejoin="miter" fill="none" stroke="#80c0ff" d="M 56.50049 -9.90694 L 59.039 -7.14368 L 68.52463 4.84784 L 65.41063 1.45813 Z "/>
<path transform="matrix(1,0,0,-1,80.32,97.786)" stroke-width="1" stroke-linecap="butt" stroke-miterlimit="10" stroke-linejoin="miter" fill="none" stroke="#f0f7ff" d="M 24.1685 -23.12195 L 25.25984 -22.53845 L 40.4138 -19.79646 L 37.27144 -21.47656 Z "/>
<path transform="matrix(1,0,0,-1,80.32,97.786)" stroke-width="1" stroke-linecap="butt" stroke-miterlimit="10" stroke-linejoin="miter" fill="none" stroke="#c31eff" d="M -2.8785 55.46819 L -6.02084 53.7881 L -18.3743 46.60863 L -13.55998 49.18265 Z "/>
<path transform="matrix(1,0,0,-1,80.32,97.786)" stroke-width="1" stroke-linecap="butt" stroke-miterlimit="10" stroke-linejoin="miter" fill="none" stroke="#ef08ff" d="M 14.60556 58.50995 L 13.00287 58.11882 L 5.1216 58.36264 L 9.73636 59.4888 Z "/>
<path transform="matrix(1,0,0,-1,80.32,97.786)" stroke-width="1" stroke-linecap="butt" stroke-miterlimit="10" stroke-linejoin="miter" fill="none" stroke="#c3e1ff" d="M -24.64604 -9.14973 L -25.91338 -11.88275 L -10.94164 -19.31721 L -10.11444 -17.53337 Z "/>
<path transform="matrix(1,0,0,-1,80.32,97.786)" stroke-width="1" stroke-linecap="butt" stroke-miterlimit="10" stroke-linejoin="miter" fill="none" stroke="#7f40ff" d="M -18.3743 46.60863 L -22.10753 43.89857 L -31.01767 32.5335 L -26.43814 35.85791 Z "/>
<path transform="matrix(1,0,0,-1,80.32,97.786)" stroke-width="1" stroke-linecap="butt" stroke-miterlimit="10" stroke-linejoin="miter" fill="none" stroke="#2c96ff" d="M -34.11156 19.29366 L -37.42538 15.68643 L -34.13167 2.38698 L -31.01767 5.77669 Z "/>
<path transform="matrix(1,0,0,-1,80.32,97.786)" stroke-width="1" stroke-linecap="butt" stroke-miterlimit="10" stroke-linejoin="miter" fill="none" stroke="#ef08ff" d="M 42.71652 58.01172 L 40.23196 59.20432 L 25.1967 58.41113 L 26.05959 57.99693 Z "/>
<path transform="matrix(1,0,0,-1,80.32,97.786)" stroke-width="1" stroke-linecap="butt" stroke-miterlimit="10" stroke-linejoin="miter" fill="none" stroke="#c31eff" d="M 60.30634 45.87439 L 60.26402 48.49365 L 45.30698 55.01846 L 45.3346 53.30887 Z "/>
<path transform="matrix(1,0,0,-1,80.32,97.786)" stroke-width="1" stroke-linecap="butt" stroke-miterlimit="10" stroke-linejoin="miter" fill="none" stroke="#c3e1ff" d="M 40.4138 -19.79646 L 42.8505 -18.02759 L 56.50049 -9.90694 L 52.76726 -12.61699 Z "/>
<path transform="matrix(1,0,0,-1,80.32,97.786)" stroke-width="1" stroke-linecap="butt" stroke-miterlimit="10" stroke-linejoin="miter" fill="none" stroke="#f0f7ff" d="M -10.91403 -21.02682 L -10.03238 -22.61058 L 7.73988 -23.5158 L 7.4337 -22.96576 Z "/>
<path transform="matrix(1,0,0,-1,80.32,97.786)" stroke-width="1" stroke-linecap="butt" stroke-miterlimit="10" stroke-linejoin="miter" fill="none" stroke="#ef08ff" d="M 13.00287 58.11882 L 11.52745 57.6486 L .87335 57.00868 L 5.1216 58.36264 Z "/>
<path transform="matrix(1,0,0,-1,80.32,97.786)" stroke-width="1" stroke-linecap="butt" stroke-miterlimit="10" stroke-linejoin="miter" fill="none" stroke="#7f40ff" d="M 68.52463 31.60464 L 70.07927 34.95723 L 60.30634 45.87439 L 59.039 43.14137 Z "/>
<path transform="matrix(1,0,0,-1,80.32,97.786)" stroke-width="1" stroke-linecap="butt" stroke-miterlimit="10" stroke-linejoin="miter" fill="none" stroke="#f0f7ff" d="M 22.86548 -23.65697 L 24.1685 -23.12195 L 37.27144 -21.47656 L 33.51959 -23.01704 Z "/>
<path transform="matrix(1,0,0,-1,80.32,97.786)" stroke-width="1" stroke-linecap="butt" stroke-miterlimit="10" stroke-linejoin="miter" fill="none" stroke="#ef08ff" d="M 44.42535 56.60222 L 42.71652 58.01172 L 26.05959 57.99693 L 26.65306 57.50743 Z "/>
<path transform="matrix(1,0,0,-1,80.32,97.786)" stroke-width="1" stroke-linecap="butt" stroke-miterlimit="10" stroke-linejoin="miter" fill="none" stroke="#2c96ff" d="M 65.41063 1.45813 L 68.52463 4.84784 L 71.81833 18.3052 L 68.50452 14.69798 Z "/>
<path transform="matrix(1,0,0,-1,80.32,97.786)" stroke-width="1" stroke-linecap="butt" stroke-miterlimit="10" stroke-linejoin="miter" fill="none" stroke="#2c6aff" d="M -31.01767 32.5335 L -34.13167 29.14378 L -37.42538 15.68643 L -34.11156 19.29366 Z "/>
<path transform="matrix(1,0,0,-1,80.32,97.786)" stroke-width="1" stroke-linecap="butt" stroke-miterlimit="10" stroke-linejoin="miter" fill="none" stroke="#f0f7ff" d="M -10.03238 -22.61058 L -8.32356 -24.02008 L 8.33336 -24.0053 L 7.73988 -23.5158 Z "/>
<path transform="matrix(1,0,0,-1,80.32,97.786)" stroke-width="1" stroke-linecap="butt" stroke-miterlimit="10" stroke-linejoin="miter" fill="none" stroke="#ef08ff" d="M 11.52745 57.6486 L 10.22441 57.11357 L -2.8785 55.46819 L .87335 57.00868 Z "/>
<path transform="matrix(1,0,0,-1,80.32,97.786)" stroke-width="1" stroke-linecap="butt" stroke-miterlimit="10" stroke-linejoin="miter" fill="none" stroke="#80c0ff" d="M -34.13167 2.38698 L -35.68631 -.96559 L -25.91338 -11.88275 L -24.64604 -9.14973 Z "/>
<path transform="matrix(1,0,0,-1,80.32,97.786)" stroke-width="1" stroke-linecap="butt" stroke-miterlimit="10" stroke-linejoin="miter" fill="none" stroke="#f0f7ff" d="M 21.39008 -24.12717 L 22.86548 -23.65697 L 33.51959 -23.01704 L 29.27135 -24.371 Z "/>
<path transform="matrix(1,0,0,-1,80.32,97.786)" stroke-width="1" stroke-linecap="butt" stroke-miterlimit="10" stroke-linejoin="miter" fill="none" stroke="#ef08ff" d="M 45.30698 55.01846 L 44.42535 56.60222 L 26.65306 57.50743 L 26.95924 56.9574 Z "/>
<path transform="matrix(1,0,0,-1,80.32,97.786)" stroke-width="1" stroke-linecap="butt" stroke-miterlimit="10" stroke-linejoin="miter" fill="none" stroke="#c31eff" d="M -6.02084 53.7881 L -8.45753 52.01923 L -22.10753 43.89857 L -18.3743 46.60863 Z "/>
<path transform="matrix(1,0,0,-1,80.32,97.786)" stroke-width="1" stroke-linecap="butt" stroke-miterlimit="10" stroke-linejoin="miter" fill="none" stroke="#c3e1ff" d="M -25.91338 -11.88275 L -25.87106 -14.50201 L -10.91403 -21.02682 L -10.94164 -19.31721 Z "/>
<path transform="matrix(1,0,0,-1,80.32,97.786)" stroke-width="1" stroke-linecap="butt" stroke-miterlimit="10" stroke-linejoin="miter" fill="none" stroke="#f0f7ff" d="M -8.32356 -24.02008 L -5.839 -25.21268 L 9.19624 -24.4195 L 8.33336 -24.0053 Z "/>
<path transform="matrix(1,0,0,-1,80.32,97.786)" stroke-width="1" stroke-linecap="butt" stroke-miterlimit="10" stroke-linejoin="miter" fill="none" stroke="#2c6aff" d="M 68.50452 14.69798 L 71.81833 18.3052 L 68.52463 31.60464 L 65.41063 28.21494 Z "/>
<path transform="matrix(1,0,0,-1,80.32,97.786)" stroke-width="1" stroke-linecap="butt" stroke-miterlimit="10" stroke-linejoin="miter" fill="none" stroke="#80c0ff" d="M 52.76726 -12.61699 L 56.50049 -9.90694 L 65.41063 1.45813 L 60.8311 -1.86627 Z "/>
<path transform="matrix(1,0,0,-1,80.32,97.786)" stroke-width="1" stroke-linecap="butt" stroke-miterlimit="10" stroke-linejoin="miter" fill="none" stroke="#c31eff" d="M 59.039 43.14137 L 60.30634 45.87439 L 45.3346 53.30887 L 44.5074 51.52501 Z "/>
<path transform="matrix(1,0,0,-1,80.32,97.786)" stroke-width="1" stroke-linecap="butt" stroke-miterlimit="10" stroke-linejoin="miter" fill="none" stroke="#f0f7ff" d="M 19.78737 -24.51831 L 21.39008 -24.12717 L 29.27135 -24.371 L 24.65659 -25.49716 Z "/>
<path transform="matrix(1,0,0,-1,80.32,97.786)" stroke-width="1" stroke-linecap="butt" stroke-miterlimit="10" stroke-linejoin="miter" fill="none" stroke="#c3e1ff" d="M 37.27144 -21.47656 L 40.4138 -19.79646 L 52.76726 -12.61699 L 47.95293 -15.19102 Z "/>
<path transform="matrix(1,0,0,-1,80.32,97.786)" stroke-width="1" stroke-linecap="butt" stroke-miterlimit="10" stroke-linejoin="miter" fill="none" stroke="#ef08ff" d="M 10.22441 57.11357 L 9.1331 56.53009 L -6.02084 53.7881 L -2.8785 55.46819 Z "/>
<path transform="matrix(1,0,0,-1,80.32,97.786)" stroke-width="1" stroke-linecap="butt" stroke-miterlimit="10" stroke-linejoin="miter" fill="none" stroke="#7f40ff" d="M -22.10753 43.89857 L -24.64604 41.13531 L -34.13167 29.14378 L -31.01767 32.5335 Z "/>
<path transform="matrix(1,0,0,-1,80.32,97.786)" stroke-width="1" stroke-linecap="butt" stroke-miterlimit="10" stroke-linejoin="miter" fill="none" stroke="#ef08ff" d="M 45.3346 53.30887 L 45.30698 55.01846 L 26.95924 56.9574 L 26.96886 56.36363 Z "/>
<path transform="matrix(1,0,0,-1,80.32,97.786)" stroke-width="1" stroke-linecap="butt" stroke-miterlimit="10" stroke-linejoin="miter" fill="none" stroke="#f0f7ff" d="M -5.839 -25.21268 L -2.65431 -26.15187 L 10.30229 -24.74568 L 9.19624 -24.4195 Z "/>
<path transform="matrix(1,0,0,-1,80.32,97.786)" stroke-width="1" stroke-linecap="butt" stroke-miterlimit="10" stroke-linejoin="miter" fill="none" stroke="#f0f7ff" d="M 18.1058 -24.8185 L 19.78737 -24.51831 L 24.65659 -25.49716 L 19.8148 -26.36153 Z "/>
<path transform="matrix(1,0,0,-1,80.32,97.786)" stroke-width="1" stroke-linecap="butt" stroke-miterlimit="10" stroke-linejoin="miter" fill="none" stroke="#2c96ff" d="M -37.42538 15.68643 L -39.07976 12.11871 L -35.68631 -.96559 L -34.13167 2.38698 Z "/>
<path transform="matrix(1,0,0,-1,80.32,97.786)" stroke-width="1" stroke-linecap="butt" stroke-miterlimit="10" stroke-linejoin="miter" fill="none" stroke="#f0f7ff" d="M 10.30229 -24.74568 L 11.61763 -24.97408 L 1.13301 -26.80951 L -2.65431 -26.15187 Z "/>
<path transform="matrix(1,0,0,-1,80.32,97.786)" stroke-width="1" stroke-linecap="butt" stroke-miterlimit="10" stroke-linejoin="miter" fill="none" stroke="#f0f7ff" d="M 16.3968 -25.01862 L 18.1058 -24.8185 L 19.8148 -26.36153 L 14.89395 -26.93776 Z "/>
<path transform="matrix(1,0,0,-1,80.32,97.786)" stroke-width="1" stroke-linecap="butt" stroke-miterlimit="10" stroke-linejoin="miter" fill="none" stroke="#7f40ff" d="M 65.41063 28.21494 L 68.52463 31.60464 L 59.039 43.14137 L 56.50049 40.3781 Z "/>
<path transform="matrix(1,0,0,-1,80.32,97.786)" stroke-width="1" stroke-linecap="butt" stroke-miterlimit="10" stroke-linejoin="miter" fill="none" stroke="#ef08ff" d="M 9.1331 56.53009 L 8.28683 55.91576 L -8.45753 52.01923 L -6.02084 53.7881 Z "/>
<path transform="matrix(1,0,0,-1,80.32,97.786)" stroke-width="1" stroke-linecap="butt" stroke-miterlimit="10" stroke-linejoin="miter" fill="none" stroke="#f0f7ff" d="M 11.61763 -24.97408 L 13.10266 -25.09764 L 5.4089 -27.16528 L 1.13301 -26.80951 Z "/>
<path transform="matrix(1,0,0,-1,80.32,97.786)" stroke-width="1" stroke-linecap="butt" stroke-miterlimit="10" stroke-linejoin="miter" fill="none" stroke="#f0f7ff" d="M 14.71191 -25.11263 L 16.3968 -25.01862 L 14.89395 -26.93776 L 10.04257 -27.20847 Z "/>
<path transform="matrix(1,0,0,-1,80.32,97.786)" stroke-width="1" stroke-linecap="butt" stroke-miterlimit="10" stroke-linejoin="miter" fill="none" stroke="#f0f7ff" d="M 13.10266 -25.09764 L 14.71191 -25.11263 L 10.04257 -27.20847 L 5.4089 -27.16528 Z "/>
<path transform="matrix(1,0,0,-1,80.32,97.786)" stroke-width="1" stroke-linecap="butt" stroke-miterlimit="10" stroke-linejoin="miter" fill="none" stroke="#c3e1ff" d="M -25.87106 -14.50201 L -24.52034 -16.92847 L -10.03238 -22.61058 L -10.91403 -21.02682 Z "/>
<path transform="matrix(1,0,0,-1,80.32,97.786)" stroke-width="1" stroke-linecap="butt" stroke-miterlimit="10" stroke-linejoin="miter" fill="none" stroke="#c31eff" d="M -8.45753 52.01923 L -10.11444 50.2156 L -24.64604 41.13531 L -22.10753 43.89857 Z "/>
<path transform="matrix(1,0,0,-1,80.32,97.786)" stroke-width="1" stroke-linecap="butt" stroke-miterlimit="10" stroke-linejoin="miter" fill="none" stroke="#ef08ff" d="M 44.5074 51.52501 L 45.3346 53.30887 L 26.96886 56.36363 L 26.68155 55.74411 Z "/>
<path transform="matrix(1,0,0,-1,80.32,97.786)" stroke-width="1" stroke-linecap="butt" stroke-miterlimit="10" stroke-linejoin="miter" fill="none" stroke="#2c96ff" d="M 60.8311 -1.86627 L 65.41063 1.45813 L 68.50452 14.69798 L 63.6311 11.16023 Z "/>
<path transform="matrix(1,0,0,-1,80.32,97.786)" stroke-width="1" stroke-linecap="butt" stroke-miterlimit="10" stroke-linejoin="miter" fill="none" stroke="#80c0ff" d="M -35.68631 -.96559 L -35.63438 -4.17862 L -25.87106 -14.50201 L -25.91338 -11.88275 Z "/>
<path transform="matrix(1,0,0,-1,80.32,97.786)" stroke-width="1" stroke-linecap="butt" stroke-miterlimit="10" stroke-linejoin="miter" fill="none" stroke="#c3e1ff" d="M 33.51959 -23.01704 L 37.27144 -21.47656 L 47.95293 -15.19102 L 42.20482 -17.55118 Z "/>
<path transform="matrix(1,0,0,-1,80.32,97.786)" stroke-width="1" stroke-linecap="butt" stroke-miterlimit="10" stroke-linejoin="miter" fill="none" stroke="#c31eff" d="M 56.50049 40.3781 L 59.039 43.14137 L 44.5074 51.52501 L 42.8505 49.72139 Z "/>
<path transform="matrix(1,0,0,-1,80.32,97.786)" stroke-width="1" stroke-linecap="butt" stroke-miterlimit="10" stroke-linejoin="miter" fill="none" stroke="#2c6aff" d="M -34.13167 29.14378 L -35.68631 25.7912 L -39.07976 12.11871 L -37.42538 15.68643 Z "/>
<path transform="matrix(1,0,0,-1,80.32,97.786)" stroke-width="1" stroke-linecap="butt" stroke-miterlimit="10" stroke-linejoin="miter" fill="none" stroke="#ef08ff" d="M 8.28683 55.91576 L 7.7114 55.28935 L -10.11444 50.2156 L -8.45753 52.01923 Z "/>
<path transform="matrix(1,0,0,-1,80.32,97.786)" stroke-width="1" stroke-linecap="butt" stroke-miterlimit="10" stroke-linejoin="miter" fill="none" stroke="#ef08ff" d="M 42.8505 49.72139 L 44.5074 51.52501 L 26.68155 55.74411 L 26.10611 55.11772 Z "/>
<path transform="matrix(1,0,0,-1,80.32,97.786)" stroke-width="1" stroke-linecap="butt" stroke-miterlimit="10" stroke-linejoin="miter" fill="none" stroke="#80c0ff" d="M 47.95293 -15.19102 L 52.76726 -12.61699 L 60.8311 -1.86627 L 54.92537 -5.02383 Z "/>
<path transform="matrix(1,0,0,-1,80.32,97.786)" stroke-width="1" stroke-linecap="butt" stroke-miterlimit="10" stroke-linejoin="miter" fill="none" stroke="#ff00ff" d="M 19.78737 52.52353 L 21.39008 52.91466 L 13.00287 58.11882 L 14.60556 58.50995 Z "/>
<path transform="matrix(1,0,0,-1,80.32,97.786)" stroke-width="1" stroke-linecap="butt" stroke-miterlimit="10" stroke-linejoin="miter" fill="none" stroke="#ff00ff" d="M 21.39008 52.91466 L 22.86548 53.38487 L 11.52745 57.6486 L 13.00287 58.11882 Z "/>
<path transform="matrix(1,0,0,-1,80.32,97.786)" stroke-width="1" stroke-linecap="butt" stroke-miterlimit="10" stroke-linejoin="miter" fill="none" stroke="#ff00ff" d="M 25.25984 54.50339 L 26.10611 55.11772 L 8.28683 55.91576 L 9.1331 56.53009 Z "/>
<path transform="matrix(1,0,0,-1,80.32,97.786)" stroke-width="1" stroke-linecap="butt" stroke-miterlimit="10" stroke-linejoin="miter" fill="none" stroke="#ff00ff" d="M 26.10611 55.11772 L 26.68155 55.74411 L 7.7114 55.28935 L 8.28683 55.91576 Z "/>
<path transform="matrix(1,0,0,-1,80.32,97.786)" stroke-width="1" stroke-linecap="butt" stroke-miterlimit="10" stroke-linejoin="miter" fill="none" stroke="#ff00ff" d="M 11.61763 52.06775 L 13.10266 51.9442 L 21.29028 59.08928 L 22.77531 58.96571 Z "/>
<path transform="matrix(1,0,0,-1,80.32,97.786)" stroke-width="1" stroke-linecap="butt" stroke-miterlimit="10" stroke-linejoin="miter" fill="none" stroke="#ff00ff" d="M 18.1058 52.22333 L 19.78737 52.52353 L 14.60556 58.50995 L 16.28714 58.81013 Z "/>
<path transform="matrix(1,0,0,-1,80.32,97.786)" stroke-width="1" stroke-linecap="butt" stroke-miterlimit="10" stroke-linejoin="miter" fill="none" stroke="#ff00ff" d="M 22.86548 53.38487 L 24.1685 53.91989 L 10.22441 57.11357 L 11.52745 57.6486 Z "/>
<path transform="matrix(1,0,0,-1,80.32,97.786)" stroke-width="1" stroke-linecap="butt" stroke-miterlimit="10" stroke-linejoin="miter" fill="none" stroke="#ff00ff" d="M 24.1685 53.91989 L 25.25984 54.50339 L 9.1331 56.53009 L 10.22441 57.11357 Z "/>
<path transform="matrix(1,0,0,-1,80.32,97.786)" stroke-width="1" stroke-linecap="butt" stroke-miterlimit="10" stroke-linejoin="miter" fill="none" stroke="#ff00ff" d="M 26.68155 55.74411 L 26.96886 56.36363 L 7.42409 54.66983 L 7.7114 55.28935 Z "/>
<path transform="matrix(1,0,0,-1,80.32,97.786)" stroke-width="1" stroke-linecap="butt" stroke-miterlimit="10" stroke-linejoin="miter" fill="none" stroke="#ff00ff" d="M 26.05959 57.99693 L 25.1967 58.41113 L 9.19624 52.62234 L 8.33336 53.03653 Z "/>
<path transform="matrix(1,0,0,-1,80.32,97.786)" stroke-width="1" stroke-linecap="butt" stroke-miterlimit="10" stroke-linejoin="miter" fill="none" stroke="#ff00ff" d="M 10.30229 52.29616 L 11.61763 52.06775 L 22.77531 58.96571 L 24.09065 58.7373 Z "/>
<path transform="matrix(1,0,0,-1,80.32,97.786)" stroke-width="1" stroke-linecap="butt" stroke-miterlimit="10" stroke-linejoin="miter" fill="none" stroke="#ff00ff" d="M 13.10266 51.9442 L 14.71191 51.9292 L 19.68102 59.10426 L 21.29028 59.08928 Z "/>
<path transform="matrix(1,0,0,-1,80.32,97.786)" stroke-width="1" stroke-linecap="butt" stroke-miterlimit="10" stroke-linejoin="miter" fill="none" stroke="#ff00ff" d="M 14.71191 51.9292 L 16.3968 52.02321 L 17.99614 59.01025 L 19.68102 59.10426 Z "/>
<path transform="matrix(1,0,0,-1,80.32,97.786)" stroke-width="1" stroke-linecap="butt" stroke-miterlimit="10" stroke-linejoin="miter" fill="none" stroke="#ff00ff" d="M 16.3968 52.02321 L 18.1058 52.22333 L 16.28714 58.81013 L 17.99614 59.01025 Z "/>
<path transform="matrix(1,0,0,-1,80.32,97.786)" stroke-width="1" stroke-linecap="butt" stroke-miterlimit="10" stroke-linejoin="miter" fill="none" stroke="#ff00ff" d="M 26.96886 56.36363 L 26.95924 56.9574 L 7.4337 54.07608 L 7.42409 54.66983 Z "/>
<path transform="matrix(1,0,0,-1,80.32,97.786)" stroke-width="1" stroke-linecap="butt" stroke-miterlimit="10" stroke-linejoin="miter" fill="none" stroke="#ff00ff" d="M 26.95924 56.9574 L 26.65306 57.50743 L 7.73988 53.52603 L 7.4337 54.07608 Z "/>
<path transform="matrix(1,0,0,-1,80.32,97.786)" stroke-width="1" stroke-linecap="butt" stroke-miterlimit="10" stroke-linejoin="miter" fill="none" stroke="#ff00ff" d="M 26.65306 57.50743 L 26.05959 57.99693 L 8.33336 53.03653 L 7.73988 53.52603 Z "/>
<path transform="matrix(1,0,0,-1,80.32,97.786)" stroke-width="1" stroke-linecap="butt" stroke-miterlimit="10" stroke-linejoin="miter" fill="none" stroke="#ff00ff" d="M 25.1967 58.41113 L 24.09065 58.7373 L 10.30229 52.29616 L 9.19624 52.62234 Z "/>
<path transform="matrix(1,0,0,-1,80.32,97.786)" stroke-width="1" stroke-linecap="butt" stroke-miterlimit="10" stroke-linejoin="miter" fill="none" stroke="#2c6aff" d="M 63.6311 11.16023 L 68.50452 14.69798 L 65.41063 28.21494 L 60.8311 24.89052 Z "/>
<path transform="matrix(1,0,0,-1,80.32,97.786)" stroke-width="1" stroke-linecap="butt" stroke-miterlimit="10" stroke-linejoin="miter" fill="none" stroke="#7f40ff" d="M -24.64604 41.13531 L -25.91338 38.40228 L -35.68631 25.7912 L -34.13167 29.14378 Z "/>
<path transform="matrix(1,0,0,-1,80.32,97.786)" stroke-width="1" stroke-linecap="butt" stroke-miterlimit="10" stroke-linejoin="miter" fill="none" stroke="#c3e1ff" d="M -24.52034 -16.92847 L -21.90227 -19.08789 L -8.32356 -24.02008 L -10.03238 -22.61058 Z "/>
<path transform="matrix(1,0,0,-1,80.32,97.786)" stroke-width="1" stroke-linecap="butt" stroke-miterlimit="10" stroke-linejoin="miter" fill="none" stroke="#ef08ff" d="M 7.7114 55.28935 L 7.42409 54.66983 L -10.94164 48.43176 L -10.11444 50.2156 Z "/>
<path transform="matrix(1,0,0,-1,80.32,97.786)" stroke-width="1" stroke-linecap="butt" stroke-miterlimit="10" stroke-linejoin="miter" fill="none" stroke="#c31eff" d="M -10.11444 50.2156 L -10.94164 48.43176 L -25.91338 38.40228 L -24.64604 41.13531 Z "/>
<path transform="matrix(1,0,0,-1,80.32,97.786)" stroke-width="1" stroke-linecap="butt" stroke-miterlimit="10" stroke-linejoin="miter" fill="none" stroke="#c3e1ff" d="M 29.27135 -24.371 L 33.51959 -23.01704 L 42.20482 -17.55118 L 35.69614 -19.62555 Z "/>
<path transform="matrix(1,0,0,-1,80.32,97.786)" stroke-width="1" stroke-linecap="butt" stroke-miterlimit="10" stroke-linejoin="miter" fill="none" stroke="#ef08ff" d="M 40.4138 47.95251 L 42.8505 49.72139 L 26.10611 55.11772 L 25.25984 54.50339 Z "/>
<path transform="matrix(1,0,0,-1,80.32,97.786)" stroke-width="1" stroke-linecap="butt" stroke-miterlimit="10" stroke-linejoin="miter" fill="none" stroke="#7f40ff" d="M 60.8311 24.89052 L 65.41063 28.21494 L 56.50049 40.3781 L 52.76726 37.66805 Z "/>
<path transform="matrix(1,0,0,-1,80.32,97.786)" stroke-width="1" stroke-linecap="butt" stroke-miterlimit="10" stroke-linejoin="miter" fill="none" stroke="#2c96ff" d="M -39.07976 12.11871 L -39.02452 8.69951 L -35.63438 -4.17862 L -35.68631 -.96559 Z "/>
<path transform="matrix(1,0,0,-1,80.32,97.786)" stroke-width="1" stroke-linecap="butt" stroke-miterlimit="10" stroke-linejoin="miter" fill="none" stroke="#c31eff" d="M 52.76726 37.66805 L 56.50049 40.3781 L 42.8505 49.72139 L 40.4138 47.95251 Z "/>
<path transform="matrix(1,0,0,-1,80.32,97.786)" stroke-width="1" stroke-linecap="butt" stroke-miterlimit="10" stroke-linejoin="miter" fill="none" stroke="#80c0ff" d="M -35.63438 -4.17862 L -33.97748 -7.15514 L -24.52034 -16.92847 L -25.87106 -14.50201 Z "/>
<path transform="matrix(1,0,0,-1,80.32,97.786)" stroke-width="1" stroke-linecap="butt" stroke-miterlimit="10" stroke-linejoin="miter" fill="none" stroke="#ef08ff" d="M 7.42409 54.66983 L 7.4337 54.07608 L -10.91403 46.72217 L -10.94164 48.43176 Z "/>
<path transform="matrix(1,0,0,-1,80.32,97.786)" stroke-width="1" stroke-linecap="butt" stroke-miterlimit="10" stroke-linejoin="miter" fill="none" stroke="#c3e1ff" d="M -21.90227 -19.08789 L -18.09573 -20.91504 L -5.839 -25.21268 L -8.32356 -24.02008 Z "/>
<path transform="matrix(1,0,0,-1,80.32,97.786)" stroke-width="1" stroke-linecap="butt" stroke-miterlimit="10" stroke-linejoin="miter" fill="none" stroke="#2c96ff" d="M 54.92537 -5.02383 L 60.8311 -1.86627 L 63.6311 11.16023 L 57.34642 7.80005 Z "/>
<path transform="matrix(1,0,0,-1,80.32,97.786)" stroke-width="1" stroke-linecap="butt" stroke-miterlimit="10" stroke-linejoin="miter" fill="none" stroke="#ef08ff" d="M 37.27144 46.27243 L 40.4138 47.95251 L 25.25984 54.50339 L 24.1685 53.91989 Z "/>
<path transform="matrix(1,0,0,-1,80.32,97.786)" stroke-width="1" stroke-linecap="butt" stroke-miterlimit="10" stroke-linejoin="miter" fill="none" stroke="#c3e1ff" d="M 24.65659 -25.49716 L 29.27135 -24.371 L 35.69614 -19.62555 L 28.62598 -21.3509 Z "/>
<path transform="matrix(1,0,0,-1,80.32,97.786)" stroke-width="1" stroke-linecap="butt" stroke-miterlimit="10" stroke-linejoin="miter" fill="none" stroke="#80c0ff" d="M 42.20482 -17.55118 L 47.95293 -15.19102 L 54.92537 -5.02383 L 47.87418 -7.91902 Z "/>
<path transform="matrix(1,0,0,-1,80.32,97.786)" stroke-width="1" stroke-linecap="butt" stroke-miterlimit="10" stroke-linejoin="miter" fill="none" stroke="#2c6aff" d="M -35.68631 25.7912 L -35.63438 22.57817 L -39.02452 8.69951 L -39.07976 12.11871 Z "/>
<path transform="matrix(1,0,0,-1,80.32,97.786)" stroke-width="1" stroke-linecap="butt" stroke-miterlimit="10" stroke-linejoin="miter" fill="none" stroke="#ef08ff" d="M 7.4337 54.07608 L 7.73988 53.52603 L -10.03238 45.13841 L -10.91403 46.72217 Z "/>
<path transform="matrix(1,0,0,-1,80.32,97.786)" stroke-width="1" stroke-linecap="butt" stroke-miterlimit="10" stroke-linejoin="miter" fill="none" stroke="#c31eff" d="M -10.94164 48.43176 L -10.91403 46.72217 L -25.87106 35.78304 L -25.91338 38.40228 Z "/>
<path transform="matrix(1,0,0,-1,80.32,97.786)" stroke-width="1" stroke-linecap="butt" stroke-miterlimit="10" stroke-linejoin="miter" fill="none" stroke="#ef08ff" d="M 33.51959 44.73193 L 37.27144 46.27243 L 24.1685 53.91989 L 22.86548 53.38487 Z "/>
<path transform="matrix(1,0,0,-1,80.32,97.786)" stroke-width="1" stroke-linecap="butt" stroke-miterlimit="10" stroke-linejoin="miter" fill="none" stroke="#7f40ff" d="M -25.91338 38.40228 L -25.87106 35.78304 L -35.63438 22.57817 L -35.68631 25.7912 Z "/>
<path transform="matrix(1,0,0,-1,80.32,97.786)" stroke-width="1" stroke-linecap="butt" stroke-miterlimit="10" stroke-linejoin="miter" fill="none" stroke="#c3e1ff" d="M -18.09573 -20.91504 L -13.21654 -22.35396 L -2.65431 -26.15187 L -5.839 -25.21268 Z "/>
<path transform="matrix(1,0,0,-1,80.32,97.786)" stroke-width="1" stroke-linecap="butt" stroke-miterlimit="10" stroke-linejoin="miter" fill="none" stroke="#2c6aff" d="M 57.34642 7.80005 L 63.6311 11.16023 L 60.8311 24.89052 L 54.92537 21.73296 Z "/>
<path transform="matrix(1,0,0,-1,80.32,97.786)" stroke-width="1" stroke-linecap="butt" stroke-miterlimit="10" stroke-linejoin="miter" fill="none" stroke="#c31eff" d="M 47.95293 35.09402 L 52.76726 37.66805 L 40.4138 47.95251 L 37.27144 46.27243 Z "/>
<path transform="matrix(1,0,0,-1,80.32,97.786)" stroke-width="1" stroke-linecap="butt" stroke-miterlimit="10" stroke-linejoin="miter" fill="none" stroke="#c3e1ff" d="M 19.8148 -26.36153 L 24.65659 -25.49716 L 28.62598 -21.3509 L 21.20795 -22.6752 Z "/>
<path transform="matrix(1,0,0,-1,80.32,97.786)" stroke-width="1" stroke-linecap="butt" stroke-miterlimit="10" stroke-linejoin="miter" fill="none" stroke="#ef08ff" d="M 7.73988 53.52603 L 8.33336 53.03653 L -8.32356 43.72891 L -10.03238 45.13841 Z "/>
<path transform="matrix(1,0,0,-1,80.32,97.786)" stroke-width="1" stroke-linecap="butt" stroke-miterlimit="10" stroke-linejoin="miter" fill="none" stroke="#7f40ff" d="M 54.92537 21.73296 L 60.8311 24.89052 L 52.76726 37.66805 L 47.95293 35.09402 Z "/>
<path transform="matrix(1,0,0,-1,80.32,97.786)" stroke-width="1" stroke-linecap="butt" stroke-miterlimit="10" stroke-linejoin="miter" fill="none" stroke="#ef08ff" d="M 29.27135 43.37799 L 33.51959 44.73193 L 22.86548 53.38487 L 21.39008 52.91466 Z "/>
<path transform="matrix(1,0,0,-1,80.32,97.786)" stroke-width="1" stroke-linecap="butt" stroke-miterlimit="10" stroke-linejoin="miter" fill="none" stroke="#80c0ff" d="M -33.97748 -7.15514 L -30.7659 -9.80411 L -21.90227 -19.08789 L -24.52034 -16.92847 Z "/>
<path transform="matrix(1,0,0,-1,80.32,97.786)" stroke-width="1" stroke-linecap="butt" stroke-miterlimit="10" stroke-linejoin="miter" fill="none" stroke="#2c96ff" d="M -39.02452 8.69951 L -37.26128 5.532 L -33.97748 -7.15514 L -35.63438 -4.17862 Z "/>
<path transform="matrix(1,0,0,-1,80.32,97.786)" stroke-width="1" stroke-linecap="butt" stroke-miterlimit="10" stroke-linejoin="miter" fill="none" stroke="#c3e1ff" d="M -2.65431 -26.15187 L 1.13301 -26.80951 L -7.41402 -23.36154 L -13.21654 -22.35396 Z "/>
<path transform="matrix(1,0,0,-1,80.32,97.786)" stroke-width="1" stroke-linecap="butt" stroke-miterlimit="10" stroke-linejoin="miter" fill="none" stroke="#c3e1ff" d="M 14.89395 -26.93776 L 19.8148 -26.36153 L 21.20795 -22.6752 L 13.66882 -23.55803 Z "/>
<path transform="matrix(1,0,0,-1,80.32,97.786)" stroke-width="1" stroke-linecap="butt" stroke-miterlimit="10" stroke-linejoin="miter" fill="none" stroke="#ef08ff" d="M 8.33336 53.03653 L 9.19624 52.62234 L -5.839 42.53632 L -8.32356 43.72891 Z "/>
<path transform="matrix(1,0,0,-1,80.32,97.786)" stroke-width="1" stroke-linecap="butt" stroke-miterlimit="10" stroke-linejoin="miter" fill="none" stroke="#80c0ff" d="M 35.69614 -19.62555 L 42.20482 -17.55118 L 47.87418 -7.91902 L 39.88998 -10.46365 Z "/>
<path transform="matrix(1,0,0,-1,80.32,97.786)" stroke-width="1" stroke-linecap="butt" stroke-miterlimit="10" stroke-linejoin="miter" fill="none" stroke="#ef08ff" d="M 24.65659 42.25183 L 29.27135 43.37799 L 21.39008 52.91466 L 19.78737 52.52353 Z "/>
<path transform="matrix(1,0,0,-1,80.32,97.786)" stroke-width="1" stroke-linecap="butt" stroke-miterlimit="10" stroke-linejoin="miter" fill="none" stroke="#c3e1ff" d="M 1.13301 -26.80951 L 5.4089 -27.16528 L -.86299 -23.90662 L -7.41402 -23.36154 Z "/>
<path transform="matrix(1,0,0,-1,80.32,97.786)" stroke-width="1" stroke-linecap="butt" stroke-miterlimit="10" stroke-linejoin="miter" fill="none" stroke="#c31eff" d="M -10.91403 46.72217 L -10.03238 45.13841 L -24.52034 33.35658 L -25.87106 35.78304 Z "/>
<path transform="matrix(1,0,0,-1,80.32,97.786)" stroke-width="1" stroke-linecap="butt" stroke-miterlimit="10" stroke-linejoin="miter" fill="none" stroke="#c3e1ff" d="M 10.04257 -27.20847 L 14.89395 -26.93776 L 13.66882 -23.55803 L 6.23611 -23.97276 Z "/>
<path transform="matrix(1,0,0,-1,80.32,97.786)" stroke-width="1" stroke-linecap="butt" stroke-miterlimit="10" stroke-linejoin="miter" fill="none" stroke="#2c96ff" d="M 47.87418 -7.91902 L 54.92537 -5.02383 L 57.34642 7.80005 L 49.84274 4.71909 Z "/>
<path transform="matrix(1,0,0,-1,80.32,97.786)" stroke-width="1" stroke-linecap="butt" stroke-miterlimit="10" stroke-linejoin="miter" fill="none" stroke="#c3e1ff" d="M 5.4089 -27.16528 L 10.04257 -27.20847 L 6.23611 -23.97276 L -.86299 -23.90662 Z "/>
<path transform="matrix(1,0,0,-1,80.32,97.786)" stroke-width="1" stroke-linecap="butt" stroke-miterlimit="10" stroke-linejoin="miter" fill="none" stroke="#ef08ff" d="M 9.19624 52.62234 L 10.30229 52.29616 L -2.65431 41.59712 L -5.839 42.53632 Z "/>
<path transform="matrix(1,0,0,-1,80.32,97.786)" stroke-width="1" stroke-linecap="butt" stroke-miterlimit="10" stroke-linejoin="miter" fill="none" stroke="#c31eff" d="M 42.20482 32.73387 L 47.95293 35.09402 L 37.27144 46.27243 L 33.51959 44.73193 Z "/>
<path transform="matrix(1,0,0,-1,80.32,97.786)" stroke-width="1" stroke-linecap="butt" stroke-miterlimit="10" stroke-linejoin="miter" fill="none" stroke="#ef08ff" d="M 19.8148 41.38745 L 24.65659 42.25183 L 19.78737 52.52353 L 18.1058 52.22333 Z "/>
<path transform="matrix(1,0,0,-1,80.32,97.786)" stroke-width="1" stroke-linecap="butt" stroke-miterlimit="10" stroke-linejoin="miter" fill="none" stroke="#2c6aff" d="M -35.63438 22.57817 L -33.97748 19.60165 L -37.26128 5.532 L -39.02452 8.69951 Z "/>
<path transform="matrix(1,0,0,-1,80.32,97.786)" stroke-width="1" stroke-linecap="butt" stroke-miterlimit="10" stroke-linejoin="miter" fill="none" stroke="#ef08ff" d="M -2.65431 41.59712 L 1.13301 40.93948 L 11.61763 52.06775 L 10.30229 52.29616 Z "/>
<path transform="matrix(1,0,0,-1,80.32,97.786)" stroke-width="1" stroke-linecap="butt" stroke-miterlimit="10" stroke-linejoin="miter" fill="none" stroke="#7f40ff" d="M -25.87106 35.78304 L -24.52034 33.35658 L -33.97748 19.60165 L -35.63438 22.57817 Z "/>
<path transform="matrix(1,0,0,-1,80.32,97.786)" stroke-width="1" stroke-linecap="butt" stroke-miterlimit="10" stroke-linejoin="miter" fill="none" stroke="#ef08ff" d="M 14.89395 40.81122 L 19.8148 41.38745 L 18.1058 52.22333 L 16.3968 52.02321 Z "/>
<path transform="matrix(1,0,0,-1,80.32,97.786)" stroke-width="1" stroke-linecap="butt" stroke-miterlimit="10" stroke-linejoin="miter" fill="none" stroke="#ef08ff" d="M 1.13301 40.93948 L 5.4089 40.5837 L 13.10266 51.9442 L 11.61763 52.06775 Z "/>
<path transform="matrix(1,0,0,-1,80.32,97.786)" stroke-width="1" stroke-linecap="butt" stroke-miterlimit="10" stroke-linejoin="miter" fill="none" stroke="#ef08ff" d="M 10.04257 40.54053 L 14.89395 40.81122 L 16.3968 52.02321 L 14.71191 51.9292 Z "/>
<path transform="matrix(1,0,0,-1,80.32,97.786)" stroke-width="1" stroke-linecap="butt" stroke-miterlimit="10" stroke-linejoin="miter" fill="none" stroke="#ef08ff" d="M 5.4089 40.5837 L 10.04257 40.54053 L 14.71191 51.9292 L 13.10266 51.9442 Z "/>
<path transform="matrix(1,0,0,-1,80.32,97.786)" stroke-width="1" stroke-linecap="butt" stroke-miterlimit="10" stroke-linejoin="miter" fill="none" stroke="#80c0ff" d="M -30.7659 -9.80411 L -26.09644 -12.04547 L -18.09573 -20.91504 L -21.90227 -19.08789 Z "/>
<path transform="matrix(1,0,0,-1,80.32,97.786)" stroke-width="1" stroke-linecap="butt" stroke-miterlimit="10" stroke-linejoin="miter" fill="none" stroke="#2c6aff" d="M 49.84274 4.71909 L 57.34642 7.80005 L 54.92537 21.73296 L 47.87418 18.83777 Z "/>
<path transform="matrix(1,0,0,-1,80.32,97.786)" stroke-width="1" stroke-linecap="butt" stroke-miterlimit="10" stroke-linejoin="miter" fill="none" stroke="#7f40ff" d="M 47.87418 18.83777 L 54.92537 21.73296 L 47.95293 35.09402 L 42.20482 32.73387 Z "/>
<path transform="matrix(1,0,0,-1,80.32,97.786)" stroke-width="1" stroke-linecap="butt" stroke-miterlimit="10" stroke-linejoin="miter" fill="none" stroke="#c31eff" d="M -10.03238 45.13841 L -8.32356 43.72891 L -21.90227 31.19716 L -24.52034 33.35658 Z "/>
<path transform="matrix(1,0,0,-1,80.32,97.786)" stroke-width="1" stroke-linecap="butt" stroke-miterlimit="10" stroke-linejoin="miter" fill="none" stroke="#80c0ff" d="M 28.62598 -21.3509 L 35.69614 -19.62555 L 39.88998 -10.46365 L 31.21701 -12.58015 Z "/>
<path transform="matrix(1,0,0,-1,80.32,97.786)" stroke-width="1" stroke-linecap="butt" stroke-miterlimit="10" stroke-linejoin="miter" fill="none" stroke="#2c96ff" d="M -37.26128 5.532 L -33.84361 2.71303 L -30.7659 -9.80411 L -33.97748 -7.15514 Z "/>
<path transform="matrix(1,0,0,-1,80.32,97.786)" stroke-width="1" stroke-linecap="butt" stroke-miterlimit="10" stroke-linejoin="miter" fill="none" stroke="#c31eff" d="M 35.69614 30.6595 L 42.20482 32.73387 L 33.51959 44.73193 L 29.27135 43.37799 Z "/>
<path transform="matrix(1,0,0,-1,80.32,97.786)" stroke-width="1" stroke-linecap="butt" stroke-miterlimit="10" stroke-linejoin="miter" fill="none" stroke="#2c96ff" d="M 39.88998 -10.46365 L 47.87418 -7.91902 L 49.84274 4.71909 L 41.34622 2.01115 Z "/>
<path transform="matrix(1,0,0,-1,80.32,97.786)" stroke-width="1" stroke-linecap="butt" stroke-miterlimit="10" stroke-linejoin="miter" fill="none" stroke="#80c0ff" d="M -26.09644 -12.04547 L -20.11111 -13.8106 L -13.21654 -22.35396 L -18.09573 -20.91504 Z "/>
<path transform="matrix(1,0,0,-1,80.32,97.786)" stroke-width="1" stroke-linecap="butt" stroke-miterlimit="10" stroke-linejoin="miter" fill="none" stroke="#c31eff" d="M -8.32356 43.72891 L -5.839 42.53632 L -18.09573 29.37 L -21.90227 31.19716 Z "/>
<path transform="matrix(1,0,0,-1,80.32,97.786)" stroke-width="1" stroke-linecap="butt" stroke-miterlimit="10" stroke-linejoin="miter" fill="none" stroke="#7f40ff" d="M -24.52034 33.35658 L -21.90227 31.19716 L -30.7659 16.95268 L -33.97748 19.60165 Z "/>
<path transform="matrix(1,0,0,-1,80.32,97.786)" stroke-width="1" stroke-linecap="butt" stroke-miterlimit="10" stroke-linejoin="miter" fill="none" stroke="#2c6aff" d="M -33.97748 19.60165 L -30.7659 16.95268 L -33.84361 2.71303 L -37.26128 5.532 Z "/>
<path transform="matrix(1,0,0,-1,80.32,97.786)" stroke-width="1" stroke-linecap="butt" stroke-miterlimit="10" stroke-linejoin="miter" fill="none" stroke="#80c0ff" d="M 21.20795 -22.6752 L 28.62598 -21.3509 L 31.21701 -12.58015 L 22.11736 -14.20468 Z "/>
<path transform="matrix(1,0,0,-1,80.32,97.786)" stroke-width="1" stroke-linecap="butt" stroke-miterlimit="10" stroke-linejoin="miter" fill="none" stroke="#c31eff" d="M 28.62598 28.93413 L 35.69614 30.6595 L 29.27135 43.37799 L 24.65659 42.25183 Z "/>
<path transform="matrix(1,0,0,-1,80.32,97.786)" stroke-width="1" stroke-linecap="butt" stroke-miterlimit="10" stroke-linejoin="miter" fill="none" stroke="#7f40ff" d="M 39.88998 16.29314 L 47.87418 18.83777 L 42.20482 32.73387 L 35.69614 30.6595 Z "/>
<path transform="matrix(1,0,0,-1,80.32,97.786)" stroke-width="1" stroke-linecap="butt" stroke-miterlimit="10" stroke-linejoin="miter" fill="none" stroke="#2c6aff" d="M 41.34622 2.01115 L 49.84274 4.71909 L 47.87418 18.83777 L 39.88998 16.29314 Z "/>
<path transform="matrix(1,0,0,-1,80.32,97.786)" stroke-width="1" stroke-linecap="butt" stroke-miterlimit="10" stroke-linejoin="miter" fill="none" stroke="#80c0ff" d="M -13.21654 -22.35396 L -7.41402 -23.36154 L -12.99316 -15.04657 L -20.11111 -13.8106 Z "/>
<path transform="matrix(1,0,0,-1,80.32,97.786)" stroke-width="1" stroke-linecap="butt" stroke-miterlimit="10" stroke-linejoin="miter" fill="none" stroke="#2c96ff" d="M -33.84361 2.71303 L -28.87451 .32784 L -26.09644 -12.04547 L -30.7659 -9.80411 Z "/>
<path transform="matrix(1,0,0,-1,80.32,97.786)" stroke-width="1" stroke-linecap="butt" stroke-miterlimit="10" stroke-linejoin="miter" fill="none" stroke="#c31eff" d="M -5.839 42.53632 L -2.65431 41.59712 L -13.21654 27.93109 L -18.09573 29.37 Z "/>
<path transform="matrix(1,0,0,-1,80.32,97.786)" stroke-width="1" stroke-linecap="butt" stroke-miterlimit="10" stroke-linejoin="miter" fill="none" stroke="#80c0ff" d="M 13.66882 -23.55803 L 21.20795 -22.6752 L 22.11736 -14.20468 L 12.86911 -15.28763 Z "/>
<path transform="matrix(1,0,0,-1,80.32,97.786)" stroke-width="1" stroke-linecap="butt" stroke-miterlimit="10" stroke-linejoin="miter" fill="none" stroke="#c31eff" d="M 21.20795 27.60985 L 28.62598 28.93413 L 24.65659 42.25183 L 19.8148 41.38745 Z "/>
<path transform="matrix(1,0,0,-1,80.32,97.786)" stroke-width="1" stroke-linecap="butt" stroke-miterlimit="10" stroke-linejoin="miter" fill="none" stroke="#2c96ff" d="M 31.21701 -12.58015 L 39.88998 -10.46365 L 41.34622 2.01115 L 32.11671 -.24113 Z "/>
<path transform="matrix(1,0,0,-1,80.32,97.786)" stroke-width="1" stroke-linecap="butt" stroke-miterlimit="10" stroke-linejoin="miter" fill="none" stroke="#80c0ff" d="M -7.41402 -23.36154 L -.86299 -23.90662 L -4.95705 -15.71524 L -12.99316 -15.04657 Z "/>
<path transform="matrix(1,0,0,-1,80.32,97.786)" stroke-width="1" stroke-linecap="butt" stroke-miterlimit="10" stroke-linejoin="miter" fill="none" stroke="#80c0ff" d="M 6.23611 -23.97276 L 13.66882 -23.55803 L 12.86911 -15.28763 L 3.7514 -15.79639 Z "/>
<path transform="matrix(1,0,0,-1,80.32,97.786)" stroke-width="1" stroke-linecap="butt" stroke-miterlimit="10" stroke-linejoin="miter" fill="none" stroke="#7f40ff" d="M -21.90227 31.19716 L -18.09573 29.37 L -26.09644 14.71132 L -30.7659 16.95268 Z "/>
<path transform="matrix(1,0,0,-1,80.32,97.786)" stroke-width="1" stroke-linecap="butt" stroke-miterlimit="10" stroke-linejoin="miter" fill="none" stroke="#80c0ff" d="M -.86299 -23.90662 L 6.23611 -23.97276 L 3.7514 -15.79639 L -4.95705 -15.71524 Z "/>
<path transform="matrix(1,0,0,-1,80.32,97.786)" stroke-width="1" stroke-linecap="butt" stroke-miterlimit="10" stroke-linejoin="miter" fill="none" stroke="#c31eff" d="M -13.21654 27.93109 L -7.41402 26.92351 L 1.13301 40.93948 L -2.65431 41.59712 Z "/>
<path transform="matrix(1,0,0,-1,80.32,97.786)" stroke-width="1" stroke-linecap="butt" stroke-miterlimit="10" stroke-linejoin="miter" fill="none" stroke="#c31eff" d="M 13.66882 26.72702 L 21.20795 27.60985 L 19.8148 41.38745 L 14.89395 40.81122 Z "/>
<path transform="matrix(1,0,0,-1,80.32,97.786)" stroke-width="1" stroke-linecap="butt" stroke-miterlimit="10" stroke-linejoin="miter" fill="none" stroke="#2c6aff" d="M -30.7659 16.95268 L -26.09644 14.71132 L -28.87451 .32784 L -33.84361 2.71303 Z "/>
<path transform="matrix(1,0,0,-1,80.32,97.786)" stroke-width="1" stroke-linecap="butt" stroke-miterlimit="10" stroke-linejoin="miter" fill="none" stroke="#7f40ff" d="M 31.21701 14.17662 L 39.88998 16.29314 L 35.69614 30.6595 L 28.62598 28.93413 Z "/>
<path transform="matrix(1,0,0,-1,80.32,97.786)" stroke-width="1" stroke-linecap="butt" stroke-miterlimit="10" stroke-linejoin="miter" fill="none" stroke="#c31eff" d="M -7.41402 26.92351 L -.86299 26.37842 L 5.4089 40.5837 L 1.13301 40.93948 Z "/>
<path transform="matrix(1,0,0,-1,80.32,97.786)" stroke-width="1" stroke-linecap="butt" stroke-miterlimit="10" stroke-linejoin="miter" fill="none" stroke="#c31eff" d="M 6.23611 26.31227 L 13.66882 26.72702 L 14.89395 40.81122 L 10.04257 40.54053 Z "/>
<path transform="matrix(1,0,0,-1,80.32,97.786)" stroke-width="1" stroke-linecap="butt" stroke-miterlimit="10" stroke-linejoin="miter" fill="none" stroke="#2c96ff" d="M -28.87451 .32784 L -22.50513 -1.55054 L -20.11111 -13.8106 L -26.09644 -12.04547 Z "/>
<path transform="matrix(1,0,0,-1,80.32,97.786)" stroke-width="1" stroke-linecap="butt" stroke-miterlimit="10" stroke-linejoin="miter" fill="none" stroke="#c31eff" d="M -.86299 26.37842 L 6.23611 26.31227 L 10.04257 40.54053 L 5.4089 40.5837 Z "/>
<path transform="matrix(1,0,0,-1,80.32,97.786)" stroke-width="1" stroke-linecap="butt" stroke-miterlimit="10" stroke-linejoin="miter" fill="none" stroke="#2c6aff" d="M 32.11671 -.24113 L 41.34622 2.01115 L 39.88998 16.29314 L 31.21701 14.17662 Z "/>
<path transform="matrix(1,0,0,-1,80.32,97.786)" stroke-width="1" stroke-linecap="butt" stroke-miterlimit="10" stroke-linejoin="miter" fill="none" stroke="#2c96ff" d="M 22.11736 -14.20468 L 31.21701 -12.58015 L 32.11671 -.24113 L 22.43312 -1.9699 Z "/>
<path transform="matrix(1,0,0,-1,80.32,97.786)" stroke-width="1" stroke-linecap="butt" stroke-miterlimit="10" stroke-linejoin="miter" fill="none" stroke="#7f40ff" d="M -18.09573 29.37 L -13.21654 27.93109 L -20.11111 12.9462 L -26.09644 14.71132 Z "/>
<path transform="matrix(1,0,0,-1,80.32,97.786)" stroke-width="1" stroke-linecap="butt" stroke-miterlimit="10" stroke-linejoin="miter" fill="none" stroke="#7f40ff" d="M 22.11736 12.55211 L 31.21701 14.17662 L 28.62598 28.93413 L 21.20795 27.60985 Z "/>
<path transform="matrix(1,0,0,-1,80.32,97.786)" stroke-width="1" stroke-linecap="butt" stroke-miterlimit="10" stroke-linejoin="miter" fill="none" stroke="#2c6aff" d="M -26.09644 14.71132 L -20.11111 12.9462 L -22.50513 -1.55054 L -28.87451 .32784 Z "/>
<path transform="matrix(1,0,0,-1,80.32,97.786)" stroke-width="1" stroke-linecap="butt" stroke-miterlimit="10" stroke-linejoin="miter" fill="none" stroke="#2c96ff" d="M -20.11111 -13.8106 L -12.99316 -15.04657 L -14.93042 -2.86583 L -22.50513 -1.55054 Z "/>
<path transform="matrix(1,0,0,-1,80.32,97.786)" stroke-width="1" stroke-linecap="butt" stroke-miterlimit="10" stroke-linejoin="miter" fill="none" stroke="#2c96ff" d="M 12.86911 -15.28763 L 22.11736 -14.20468 L 22.43312 -1.9699 L 12.59143 -3.12234 Z "/>
<path transform="matrix(1,0,0,-1,80.32,97.786)" stroke-width="1" stroke-linecap="butt" stroke-miterlimit="10" stroke-linejoin="miter" fill="none" stroke="#2c6aff" d="M 22.43312 -1.9699 L 32.11671 -.24113 L 31.21701 14.17662 L 22.11736 12.55211 Z "/>
<path transform="matrix(1,0,0,-1,80.32,97.786)" stroke-width="1" stroke-linecap="butt" stroke-miterlimit="10" stroke-linejoin="miter" fill="none" stroke="#7f40ff" d="M -20.11111 12.9462 L -12.99316 11.71022 L -7.41402 26.92351 L -13.21654 27.93109 Z "/>
<path transform="matrix(1,0,0,-1,80.32,97.786)" stroke-width="1" stroke-linecap="butt" stroke-miterlimit="10" stroke-linejoin="miter" fill="none" stroke="#7f40ff" d="M 12.86911 11.46916 L 22.11736 12.55211 L 21.20795 27.60985 L 13.66882 26.72702 Z "/>
<path transform="matrix(1,0,0,-1,80.32,97.786)" stroke-width="1" stroke-linecap="butt" stroke-miterlimit="10" stroke-linejoin="miter" fill="none" stroke="#2c96ff" d="M -12.99316 -15.04657 L -4.95705 -15.71524 L -6.37863 -3.5774 L -14.93042 -2.86583 Z "/>
<path transform="matrix(1,0,0,-1,80.32,97.786)" stroke-width="1" stroke-linecap="butt" stroke-miterlimit="10" stroke-linejoin="miter" fill="none" stroke="#2c96ff" d="M 3.7514 -15.79639 L 12.86911 -15.28763 L 12.59143 -3.12234 L 2.88866 -3.66374 Z "/>
<path transform="matrix(1,0,0,-1,80.32,97.786)" stroke-width="1" stroke-linecap="butt" stroke-miterlimit="10" stroke-linejoin="miter" fill="none" stroke="#2c96ff" d="M -4.95705 -15.71524 L 3.7514 -15.79639 L 2.88866 -3.66374 L -6.37863 -3.5774 Z "/>
<path transform="matrix(1,0,0,-1,80.32,97.786)" stroke-width="1" stroke-linecap="butt" stroke-miterlimit="10" stroke-linejoin="miter" fill="none" stroke="#2c6aff" d="M -22.50513 -1.55054 L -14.93042 -2.86583 L -12.99316 11.71022 L -20.11111 12.9462 Z "/>
<path transform="matrix(1,0,0,-1,80.32,97.786)" stroke-width="1" stroke-linecap="butt" stroke-miterlimit="10" stroke-linejoin="miter" fill="none" stroke="#7f40ff" d="M -12.99316 11.71022 L -4.95705 11.04155 L -.86299 26.37842 L -7.41402 26.92351 Z "/>
<path transform="matrix(1,0,0,-1,80.32,97.786)" stroke-width="1" stroke-linecap="butt" stroke-miterlimit="10" stroke-linejoin="miter" fill="none" stroke="#7f40ff" d="M 3.7514 10.9604 L 12.86911 11.46916 L 13.66882 26.72702 L 6.23611 26.31227 Z "/>
<path transform="matrix(1,0,0,-1,80.32,97.786)" stroke-width="1" stroke-linecap="butt" stroke-miterlimit="10" stroke-linejoin="miter" fill="none" stroke="#2c6aff" d="M 12.59143 -3.12234 L 22.43312 -1.9699 L 22.11736 12.55211 L 12.86911 11.46916 Z "/>
<path transform="matrix(1,0,0,-1,80.32,97.786)" stroke-width="1" stroke-linecap="butt" stroke-miterlimit="10" stroke-linejoin="miter" fill="none" stroke="#7f40ff" d="M -4.95705 11.04155 L 3.7514 10.9604 L 6.23611 26.31227 L -.86299 26.37842 Z "/>
<path transform="matrix(1,0,0,-1,80.32,97.786)" stroke-width="1" stroke-linecap="butt" stroke-miterlimit="10" stroke-linejoin="miter" fill="none" stroke="#2c6aff" d="M -14.93042 -2.86583 L -6.37863 -3.5774 L -4.95705 11.04155 L -12.99316 11.71022 Z "/>
<path transform="matrix(1,0,0,-1,80.32,97.786)" stroke-width="1" stroke-linecap="butt" stroke-miterlimit="10" stroke-linejoin="miter" fill="none" stroke="#2c6aff" d="M 2.88866 -3.66374 L 12.59143 -3.12234 L 12.86911 11.46916 L 3.7514 10.9604 Z "/>
<path transform="matrix(1,0,0,-1,80.32,97.786)" stroke-width="1" stroke-linecap="butt" stroke-miterlimit="10" stroke-linejoin="miter" fill="none" stroke="#2c6aff" d="M -6.37863 -3.5774 L 2.88866 -3.66374 L 3.7514 10.9604 L -4.95705 11.04155 Z "/>
<path transform="matrix(1,0,0,-1,80.32,97.786)" d="M 39.49376 23.68619 C 39.49376 24.23643 39.04771 24.68246 38.49748 24.68246 C 37.94725 24.68246 37.5012 24.23643 37.5012 23.68619 C 37.5012 23.13596 37.94725 22.68991 38.49748 22.68991 C 39.04771 22.68991 39.49376 23.13596 39.49376 23.68619 Z M 38.49748 23.68619 "/>
<path transform="matrix(1,0,0,-1,80.32,97.786)" stroke-width="1" stroke-linecap="butt" stroke-miterlimit="10" stroke-linejoin="miter" fill="none" stroke="#000000" d="M 39.49376 23.68619 C 39.49376 24.23643 39.04771 24.68246 38.49748 24.68246 C 37.94725 24.68246 37.5012 24.23643 37.5012 23.68619 C 37.5012 23.13596 37.94725 22.68991 38.49748 22.68991 C 39.04771 22.68991 39.49376 23.13596 39.49376 23.68619 Z M 38.49748 23.68619 "/>
</g>
<path transform="matrix(1,0,0,-1,80.32,97.786)" stroke-width="1" stroke-linecap="butt" stroke-miterlimit="10" stroke-linejoin="miter" fill="none" stroke="#808080" d="M 4.34018 11.95209 L 7.10387 11.31909 "/>
<path transform="matrix(1,0,0,-1,80.32,97.786)" stroke-width="1" stroke-linecap="butt" stroke-miterlimit="10" stroke-linejoin="miter" fill="none" stroke="#808080" d="M 38.07281 28.19093 L 42.21793 27.24156 M -7.82498 6.75006 L -3.67987 5.80069 "/>
<path transform="matrix(1,0,0,-1,80.32,97.786)" stroke-width="1" stroke-linecap="butt" stroke-miterlimit="10" stroke-linejoin="miter" fill="none" stroke="#808080" d="M 34.86865 13.84245 L 32.29976 12.64241 "/>
<path transform="matrix(1,0,0,-1,80.32,97.786)" stroke-width="1" stroke-linecap="butt" stroke-miterlimit="10" stroke-linejoin="miter" fill="none" stroke="#808080" d="M -13.6525 25.40248 L -17.50545 23.60262 M 51.89842 10.389 L 48.04547 8.58914 "/>
<path transform="matrix(1,0,0,-1,80.32,97.786)" stroke-width="1" stroke-linecap="butt" stroke-miterlimit="10" stroke-linejoin="miter" fill="none" stroke="#000000" d="M 57.35706 35.75656 L -21.15392 -.9193 "/>
<path transform="matrix(-.9085,.42441,.42441,.9085,59.16608,98.7053)" d="M 1.99252 0 L -1.19551 1.59401 L 0 0 L -1.19551 -1.59401 "/>
<path transform="matrix(1,0,0,-1,80.32,97.786)" stroke-width="1" stroke-linecap="butt" stroke-miterlimit="10" stroke-linejoin="miter" fill="none" stroke="#000000" d="M -40.16058 30.1326 L 72.60756 4.30466 "/>
<path transform="matrix(.97664,.22366,.22366,-.97664,152.92755,93.481349)" d="M 1.99252 0 L -1.19551 1.59401 L 0 0 L -1.19551 -1.59401 "/>
<symbol id="font_1_1">
<path d="M .63600006 0 C .65200009 0 .67600008 0 .67600008 .023999989 C .67600008 .048999996 .65300008 .048999996 .63600006 .048999996 L .04 .048999996 C .023999997 .048999996 0 .048999996 0 .025000006 C 0 0 .02300001 0 .04 0 L .63600006 0 Z "/>
</symbol>
<use xlink:href="#font_1_1" transform="matrix(6.9738,0,0,-6.9738,119.975177,77.289928)"/>
<symbol id="font_2_1">
<path d="M .442 .18200001 L .40800003 .18200001 C .40500004 .16000001 .39500005 .101 .38200004 .091000009 C .374 .085 .29700003 .085 .28300003 .085 L .099 .085 C .20400003 .178 .23900002 .20600002 .29900003 .25300003 C .37300004 .312 .442 .374 .442 .469 C .442 .59000006 .33600004 .66400006 .20800004 .66400006 C .084 .66400006 0 .577 0 .485 C 0 .43400003 .043000007 .42900003 .053000004 .42900003 C .077 .42900003 .10600001 .446 .10600001 .48200003 C .10600001 .5 .099 .535 .047000007 .535 C .078 .606 .146 .628 .19300002 .628 C .293 .628 .34500004 .55 .34500004 .469 C .34500004 .38200004 .28300003 .31300003 .25100003 .277 L .010000005 .039 C 0 .030000002 0 .028 0 0 L .41200004 0 L .442 .18200001 Z "/>
</symbol>
<use xlink:href="#font_2_1" transform="matrix(6.9738,0,0,-6.9738,125.88834,78.866008)"/>
<use xlink:href="#font_2_1" transform="matrix(6.9738,0,0,-6.9738,75.79134,99.36)"/>
<use xlink:href="#font_1_1" transform="matrix(6.9738,0,0,-6.9738,57.79017,79.75792)"/>
<use xlink:href="#font_2_1" transform="matrix(6.9738,0,0,-6.9738,63.70335,81.334)"/>
<use xlink:href="#font_2_1" transform="matrix(6.9738,0,0,-6.9738,126.76634,95.778)"/>
<path transform="matrix(1,0,0,-1,80.32,97.786)" stroke-width="1" stroke-linecap="butt" stroke-miterlimit="10" stroke-linejoin="miter" fill="none" stroke="#808080" d="M 33.5842 11.82498 L 33.5842 14.65988 "/>
<path transform="matrix(1,0,0,-1,80.32,97.786)" stroke-width="1" stroke-linecap="butt" stroke-miterlimit="10" stroke-linejoin="miter" fill="none" stroke="#808080" d="M -15.57898 22.37657 L -15.57898 26.6285 M 49.97194 7.3631 L 49.97194 11.61502 "/>
<path transform="matrix(1,0,0,-1,80.32,97.786)" stroke-width="1" stroke-linecap="butt" stroke-miterlimit="10" stroke-linejoin="miter" fill="none" stroke="#808080" d="M 15.1239 -21.64418 L 19.26901 -22.59355 M 15.1239 56.58519 L 19.26901 55.63582 "/>
<path transform="matrix(1,0,0,-1,80.32,97.786)" stroke-width="1" stroke-linecap="butt" stroke-miterlimit="10" stroke-linejoin="miter" fill="none" stroke="#000000" d="M 17.19647 -31.89754 L 17.19647 63.89664 "/>
<path transform="matrix(0,-1,-1,-0,97.51647,33.889364)" d="M 1.99252 0 L -1.19551 1.59401 L 0 0 L -1.19551 -1.59401 "/>
<use xlink:href="#font_1_1" transform="matrix(6.9738,0,0,-6.9738,82.48017,120.60192)"/>
<use xlink:href="#font_2_1" transform="matrix(6.9738,0,0,-6.9738,88.39334,122.178)"/>
<use xlink:href="#font_2_1" transform="matrix(6.9738,0,0,-6.9738,88.39235,44.034006)"/>
<path transform="matrix(1,0,0,-1,80.32,97.786)" stroke-width="1" stroke-linecap="butt" stroke-miterlimit="10" stroke-linejoin="miter" fill="none" stroke="#808080" d="M 5.72202 10.21814 L 5.72202 13.05304 "/>
<path transform="matrix(1,0,0,-1,80.32,97.786)" stroke-width="1" stroke-linecap="butt" stroke-miterlimit="10" stroke-linejoin="miter" fill="none" stroke="#808080" d="M 40.14537 25.59027 L 40.14537 29.8422 M -5.75243 4.1494 L -5.75243 8.40132 "/>
<path transform="matrix(1,0,0,-1,80.32,97.786)" stroke-width="1" stroke-linecap="butt" stroke-miterlimit="10" stroke-linejoin="miter" fill="none" stroke="#808080" d="M 19.12296 -21.21893 L 15.27 -23.0188 M 19.12296 57.01044 L 15.27 55.21057 "/>
<symbol id="font_3_1">
<path d="M .201 .116000007 C .19100002 .082 .15800002 .028 .107 .028 C .10400001 .028 .07400001 .028 .053000004 .042000005 C .094000007 .055000005 .09700001 .091 .09700001 .097 C .09700001 .119 .080000009 .134 .057000005 .134 C .029000007 .134 0 .11 0 .073 C 0 .023000002 .056 0 .10500001 0 C .15100003 0 .192 .029000003 .21700001 .071 C .241 .018000002 .296 0 .336 0 C .451 0 .512 .125 .512 .15300001 C .512 .16600001 .49900005 .16600001 .49600003 .16600001 C .48200003 .16600001 .48100005 .16100002 .47700004 .14900002 C .456 .08 .39600004 .028 .34 .028 C .3 .028 .279 .055000005 .279 .093 C .279 .119 .303 .21000001 .331 .321 C .351 .398 .39600004 .423 .42900003 .423 C .43100003 .423 .46200005 .423 .483 .409 C .451 .4 .439 .372 .439 .354 C .439 .33200003 .456 .317 .479 .317 C .50200006 .317 .535 .336 .535 .37800003 C .535 .43400003 .47100006 .451 .43100003 .451 C .381 .451 .34100003 .418 .319 .38 C .301 .421 .255 .451 .199 .451 C .087000008 .451 .023000002 .328 .023000002 .298 C .023000002 .285 .037 .285 .040000008 .285 C .053000004 .285 .054000006 .289 .059000009 .30200003 C .084 .38 .14700002 .423 .19600001 .423 C .229 .423 .256 .405 .256 .357 C .256 .337 .24400002 .287 .23500002 .25300003 L .201 .116000007 Z "/>
</symbol>
<use xlink:href="#font_3_1" transform="matrix(6.9738,0,0,-6.9738,50.45074,102.117748)"/>
<symbol id="font_3_2">
<path d="M .50900009 .58100005 C .513 .595 .513 .597 .513 .60300007 C .513 .623 .49700005 .63500007 .48000003 .63500007 C .46900005 .63500007 .45000003 .63000008 .43900005 .611 C .43600003 .605 .42800004 .573 .42300005 .55300006 L .40200005 .47000004 C .39600004 .44600005 .36500005 .32000003 .36200003 .30900003 C .36100004 .30900003 .31700004 .22200002 .23900001 .22200002 C .171 .22200002 .171 .287 .171 .305 C .171 .35900004 .194 .42200003 .22400002 .499 C .23600002 .531 .24100001 .54300007 .24100001 .56 C .24100001 .60800006 .2 .64500007 .146 .64500007 C .045000007 .64500007 0 .509 0 .49200005 C 0 .47900004 .014000002 .47900004 .017 .47900004 C .031 .47900004 .032 .48400004 .035 .495 C .060000007 .578 .103 .61700007 .143 .61700007 C .16000001 .61700007 .168 .606 .168 .582 C .168 .559 .15900001 .537 .154 .52400007 C .106000009 .402 .096 .365 .096 .321 C .096 .30400003 .096 .25700004 .135 .22500001 C .16600001 .19900002 .20800002 .194 .235 .194 C .27500005 .194 .31100003 .209 .34400005 .23900001 C .33100004 .18400002 .32000003 .142 .27800004 .09200001 C .25100003 .061000006 .21100001 .027999998 .158 .027999998 C .15100001 .027999998 .104 .027999998 .083000008 .061000006 C .13700001 .067 .13700001 .11500001 .13700001 .116000007 C .13700001 .148 .107999999 .15400002 .098000008 .15400002 C .073 .15400002 .040000004 .134 .040000004 .08800001 C .040000004 .037 .088 0 .15900001 0 C .26000003 0 .38300003 .07800001 .41400004 .20300001 L .50900009 .58100005 Z "/>
</symbol>
<use xlink:href="#font_3_2" transform="matrix(6.9738,0,0,-6.9738,157.03978,100.15765)"/>
<symbol id="font_3_3">
<path d="M .10700001 .098000008 C .133 .124000009 .15100001 .143 .23600002 .21100001 C .25700004 .22800002 .33200003 .28800003 .361 .316 C .422 .37600003 .46000005 .42700003 .46000005 .439 C .46000005 .451 .44700004 .451 .44300003 .451 C .43400003 .451 .431 .449 .426 .441 C .39500005 .395 .374 .38 .35000003 .38 C .338 .38 .323 .381 .29299999 .41 C .259 .444 .237 .451 .214 .451 C .134 .451 .08 .364 .08 .334 C .08 .32500003 .09 .322 .097 .322 C .109 .322 .111 .32500003 .11500001 .336 C .13000001 .37100003 .186 .373 .202 .373 C .22500001 .373 .251 .367 .265 .364 C .32 .352 .32700003 .352 .352 .352 C .32600004 .32500003 .30800004 .307 .21300002 .23100002 C .135 .16900002 .10800001 .14400001 .089 .124000009 C .029 .065000008 0 .021000002 0 .012000001 C 0 0 .012999997 0 .016999998 0 C .027000003 0 .029 .0020000004 .034 .010000001 C .061000006 .048000006 .09200001 .071 .126 .071 C .13800001 .071 .15300001 .07 .18 .045 C .21100001 .015000001 .23100002 0 .263 0 C .37 0 .43700005 .12100001 .43700005 .15500002 C .43700005 .16700001 .426 .16800002 .42000003 .16800002 C .408 .16800002 .40600003 .16300002 .402 .15200001 C .38300003 .102000009 .324 .078 .27500005 .078 C .25200004 .078 .22700002 .083000008 .202 .089 C .156 .099 .148 .099 .13000001 .099 C .128 .099 .113000009 .099 .10700001 .098000008 Z "/>
</symbol>
<use xlink:href="#font_3_3" transform="matrix(6.9738,0,0,-6.9738,95.8954,29.48374)"/>
</svg>
