<?xml version="1.0" encoding="UTF-8" standalone="no"?>
<!DOCTYPE svg PUBLIC "-//W3C//DTD SVG 1.1//EN" "http://www.w3.org/Graphics/SVG/1.1/DTD/svg11.dtd">
<svg xmlns="http://www.w3.org/2000/svg" xmlns:xlink="http://www.w3.org/1999/xlink" version="1.1" width="117.634pt" height="128.754pt" viewBox="0 0 117.634 128.754">
<path transform="matrix(1,0,0,-1,57.291,14.769997)" stroke-width="1.19553" stroke-linecap="butt" stroke-miterlimit="10" stroke-linejoin="miter" fill="none" stroke="#000080" d="M -28.3468 0 C -28.3468 -7.82784 -15.6557 -14.17339 0 -14.17339 C 15.6557 -14.17339 28.3468 -7.82784 28.3468 0 "/>
<path transform="matrix(1,0,0,-1,57.291,14.769997)" stroke-width="1.19553" stroke-linecap="butt" stroke-miterlimit="10" stroke-linejoin="miter" fill="none" stroke="#000080" d="M -28.3468 0 C -28.3468 7.82784 -15.6557 14.17339 0 14.17339 C 15.6557 14.17339 28.3468 7.82784 28.3468 0 "/>
<path transform="matrix(1,0,0,-1,57.291,14.769997)" stroke-width="1.19553" stroke-linecap="butt" stroke-miterlimit="10" stroke-linejoin="miter" fill="none" stroke="#000080" d="M -56.69362 -85.04042 C -56.69362 -100.69614 -31.3114 -113.38724 0 -113.38724 C 20.25229 -113.38724 38.97212 -107.98334 49.09827 -99.21382 C 55.76195 -93.4429 58.14713 -86.68062 55.83289 -80.11815 "/>
<path transform="matrix(1,0,0,-1,57.291,14.769997)" stroke-width="1.19553" stroke-linecap="butt" stroke-dasharray="2.98883,2.98883" stroke-miterlimit="10" stroke-linejoin="miter" fill="none" stroke="#000080" d="M -56.69362 -85.04042 C -56.69362 -69.3847 -31.3114 -56.69362 0 -56.69362 C 27.51028 -56.69362 51.05588 -66.57185 55.83289 -80.11815 "/>
<path transform="matrix(1,0,0,-1,57.291,14.769997)" stroke-width="1.19553" stroke-linecap="butt" stroke-miterlimit="10" stroke-linejoin="miter" fill="none" stroke="#000080" d="M -56.69362 -82.20555 L -28.3468 0 "/>
<path transform="matrix(1,0,0,-1,57.291,14.769997)" stroke-width="1.19553" stroke-linecap="butt" stroke-miterlimit="10" stroke-linejoin="miter" fill="none" stroke="#000080" d="M 56.69362 -82.20555 L 28.3468 0 "/>
<path transform="matrix(1,0,0,-1,57.291,14.769997)" stroke-width="1.19553" stroke-linecap="butt" stroke-dasharray="2.98883,2.98883" stroke-miterlimit="10" stroke-linejoin="miter" fill="none" stroke="#000080" d="M 0 0 L 28.3468 0 "/>
<path transform="matrix(1,0,0,-1,57.291,14.769997)" stroke-width="1.19553" stroke-linecap="butt" stroke-dasharray="2.98883,2.98883" stroke-miterlimit="10" stroke-linejoin="miter" fill="none" stroke="#000080" d="M 0 -85.04042 L 56.69362 -85.04042 "/>
<path transform="matrix(1,0,0,-1,57.291,14.769997)" stroke-width="1" stroke-linecap="butt" stroke-miterlimit="10" stroke-linejoin="miter" fill="none" stroke="#000000" d="M 59.37355 -81.28143 C 59.95815 -80.68468 60.14487 -79.69817 59.7389 -78.52087 L 47.19214 -42.13556 C 46.78616 -40.95825 46.97289 -39.97177 47.5575 -39.375 C 46.72932 -39.26543 45.97423 -38.60368 45.56825 -37.42638 L 33.02148 -1.04108 C 32.61552 .13622 31.86043 .79794 31.03226 .90753 "/>
<symbol id="font_0_3">
<path d="M .33900006 .38500003 C .311 .38400004 .291 .36200003 .291 .34000004 C .291 .32600004 .3 .31100003 .32200004 .31100003 C .34400005 .31100003 .36800004 .328 .36800004 .367 C .36800004 .41200004 .325 .45300005 .24900003 .45300005 C .11700001 .45300005 .08 .351 .08 .307 C .08 .22900002 .15400002 .21400002 .18300002 .20800002 C .235 .19800002 .287 .18700002 .287 .13200002 C .287 .106000009 .264 .022000002 .14400001 .022000002 C .13000001 .022000002 .053000004 .022000002 .030000002 .075 C .068 .07000001 .09300001 .1 .09300001 .128 C .09300001 .15100001 .07700001 .16300002 .056 .16300002 C .030000002 .16300002 0 .14200002 0 .097 C 0 .040000004 .057000005 0 .143 0 C .305 0 .34400005 .12100001 .34400005 .16600001 C .34400005 .20200002 .325 .22700002 .31300003 .23900002 C .286 .26700003 .25700004 .272 .21300002 .28100003 C .17700002 .28900004 .13700001 .29600004 .13700001 .34100003 C .13700001 .37000004 .16100002 .43100003 .24900003 .43100003 C .274 .43100003 .324 .42400003 .33900006 .38500003 Z "/>
</symbol>
<use xlink:href="#font_0_3" transform="matrix(9.9626,0,0,-9.9626,109.59106,56.709589)"/>
<symbol id="font_0_2">
<path d="M .059000009 .07000001 C .056 .055000005 .050000006 .032 .050000006 .027000003 C .050000006 .009000001 .064 0 .079 0 C .091000009 0 .10900001 .008000001 .11600001 .028 C .118 .032 .15200001 .16800002 .156 .18600002 C .164 .21900001 .18200001 .28900004 .18800001 .316 C .19200002 .32900004 .22000002 .37600003 .244 .39800004 C .252 .40500004 .281 .43100003 .324 .43100003 C .35 .43100003 .365 .41900004 .366 .41900004 C .336 .41400004 .314 .39000003 .314 .36400003 C .314 .34800003 .325 .32900004 .352 .32900004 C .379 .32900004 .407 .35200004 .407 .388 C .407 .42300005 .375 .45300005 .324 .45300005 C .259 .45300005 .21500002 .404 .19600001 .37600003 C .18800001 .42100004 .15200001 .45300005 .105000007 .45300005 C .059000009 .45300005 .040000008 .41400004 .031000002 .39600004 C .013000002 .36200003 0 .30200003 0 .29900003 C 0 .28900004 .01 .28900004 .012 .28900004 C .022000002 .28900004 .023 .29000003 .029000001 .31200005 C .046000005 .38300003 .06600001 .43100003 .10200001 .43100003 C .119 .43100003 .133 .42300005 .133 .38500003 C .133 .36400003 .13000001 .35300002 .11700001 .30100004 L .059000009 .07000001 Z "/>
</symbol>
<use xlink:href="#font_0_2" transform="matrix(9.9626,0,0,-9.9626,69.36692,11.286583)"/>
<symbol id="font_0_1">
<path d="M .33400003 .63600006 C .34 .66 .343 .67 .36200003 .67300006 C .37100003 .674 .40300004 .674 .423 .674 C .49400003 .674 .605 .674 .605 .57500007 C .605 .54100009 .58900007 .47200004 .55 .43300004 C .524 .40700004 .47100003 .37500004 .381 .37500004 L .269 .37500004 L .33400003 .63600006 M .47800005 .36200003 C .579 .38400004 .698 .45400004 .698 .55500009 C .698 .64100006 .60800006 .70500007 .477 .70500007 L .192 .70500007 C .17200002 .70500007 .16300002 .70500007 .16300002 .68500009 C .16300002 .674 .17200002 .674 .19100002 .674 C .19300002 .674 .21200001 .674 .229 .67200008 C .24700001 .67 .256 .669 .256 .656 C .256 .65200009 .255 .64900007 .252 .637 L .11800001 .1 C .108 .061000006 .106 .053000004 .027000003 .053000004 C .009 .053000004 0 .053000004 0 .033000005 C 0 .022000002 .012000002 .022000002 .014000002 .022000002 C .042000005 .022000002 .11200001 .025000003 .14000002 .025000003 C .16800002 .025000003 .239 .022000002 .26700003 .022000002 C .275 .022000002 .287 .022000002 .287 .042000005 C .287 .053000004 .278 .053000004 .259 .053000004 C .222 .053000004 .194 .053000004 .194 .071 C .194 .07700001 .19600001 .082 .197 .088 L .263 .35300005 L .382 .35300005 C .473 .35300005 .491 .29700003 .491 .26200003 C .491 .24700001 .48300005 .216 .477 .193 C .47000004 .165 .46100004 .128 .46100004 .108 C .46100004 0 .58100005 0 .59400007 0 C .679 0 .71400007 .101 .71400007 .115 C .71400007 .127 .703 .127 .702 .127 C .693 .127 .69100007 .120000008 .689 .113000009 C .66400006 .039000006 .62100008 .022000002 .59800007 .022000002 C .565 .022000002 .558 .044000005 .558 .083000008 C .558 .11400001 .564 .165 .568 .19700001 C .57 .21100001 .572 .23 .572 .24400002 C .572 .32100005 .505 .35200004 .47800005 .36200003 Z "/>
</symbol>
<use xlink:href="#font_0_1" transform="matrix(9.9626,0,0,-9.9626,82.22447,96.43518)"/>
</svg>
