<?xml version="1.0" encoding="UTF-8" standalone="no"?>
<!DOCTYPE svg PUBLIC "-//W3C//DTD SVG 1.1//EN" "http://www.w3.org/Graphics/SVG/1.1/DTD/svg11.dtd">
<svg xmlns="http://www.w3.org/2000/svg" xmlns:xlink="http://www.w3.org/1999/xlink" version="1.1" width="216.155pt" height="174.829pt" viewBox="0 0 216.155 174.829">
<path transform="matrix(1,0,0,-1,9.174,174.62999)" stroke-width="1.19553" stroke-linecap="butt" stroke-miterlimit="10" stroke-linejoin="miter" fill="none" stroke="#000080" d="M 54.90239 83.68507 C 54.90239 83.68507 55.36238 84.00983 55.53903 84.13393 C 55.7157 84.25803 55.99904 84.45631 56.17569 84.57948 C 56.35236 84.70265 56.63568 84.89944 56.81233 85.02171 C 56.989 85.14398 57.27234 85.3394 57.449 85.46082 C 57.62566 85.58223 57.909 85.77626 58.08566 85.89682 C 58.26231 86.0174 58.54564 86.21013 58.7223 86.32983 C 58.89896 86.44955 59.1823 86.64084 59.35896 86.75975 C 59.53563 86.87866 59.81895 87.0688 59.99562 87.1869 C 60.17229 87.30501 60.4556 87.4937 60.63226 87.61102 C 60.80893 87.72833 61.09225 87.9159 61.26892 88.03242 C 61.44559 88.14897 61.72891 88.33527 61.90558 88.45105 C 62.08224 88.56682 62.36555 88.75189 62.54222 88.86696 C 62.71889 88.98203 63.00223 89.16603 63.17888 89.28036 C 63.35555 89.3947 63.63887 89.57742 63.81552 89.69102 C 63.99219 89.80463 64.27553 89.98627 64.45218 90.09918 C 64.62885 90.2121 64.91219 90.39265 65.08884 90.50488 C 65.2655 90.6171 65.54883 90.79646 65.7255 90.908 C 65.90215 91.01955 66.18549 91.1979 66.36215 91.30879 C 66.5388 91.41968 66.82214 91.59698 66.99881 91.7072 C 67.17546 91.81741 67.45879 91.99362 67.63545 92.10321 C 67.81212 92.2128 68.09544 92.38814 68.27211 92.49709 C 68.44878 92.60603 68.7321 92.78023 68.90877 92.88855 C 69.08543 92.99687 69.36874 93.1702 69.54541 93.27794 C 69.72208 93.38567 70.0054 93.55797 70.18207 93.6651 C 70.35873 93.77223 70.64204 93.94356 70.81871 94.05011 C 70.99538 94.15665 71.2787 94.32707 71.45537 94.43304 C 71.63203 94.53902 71.91537 94.70853 72.09203 94.81392 C 72.26869 94.91933 72.55202 95.08788 72.72867 95.19273 C 72.90533 95.29758 73.18867 95.46533 73.36533 95.56961 C 73.54199 95.6739 73.82533 95.84068 74.002 95.94441 C 74.17865 96.04813 74.46198 96.21404 74.63864 96.31723 C 74.81529 96.42044 75.09863 96.58563 75.2753 96.68831 C 75.45195 96.791 75.73529 96.95526 75.91196 97.05743 C 76.08861 97.1596 76.37193 97.32312 76.5486 97.42476 C 76.72527 97.5264 77.00859 97.68895 77.18526 97.7901 C 77.36192 97.89124 77.64523 98.05313 77.8219 98.15378 C 77.99857 98.25444 78.28189 98.41545 78.45856 98.51561 C 78.63522 98.61575 78.91855 98.776 79.09521 98.87569 C 79.27188 98.97536 79.55519 99.13481 79.73186 99.23404 C 79.90852 99.33327 80.19186 99.49216 80.36852 99.59091 C 80.54518 99.68965 80.82852 99.8476 81.00517 99.94586 C 81.18184 100.04413 81.46516 100.20142 81.64182 100.29924 C 81.81848 100.39706 82.10182 100.55365 82.27849 100.65102 C 82.45514 100.74838 82.73848 100.90414 82.91515 101.00107 C 83.0918 101.09799 83.37512 101.25317 83.55179 101.34969 C 83.72844 101.44618 84.01178 101.6006 84.18845 101.69669 C 84.3651 101.79276 84.64842 101.94655 84.82509 102.04218 C 85.00175 102.13782 85.28508 102.29079 85.46175 102.38602 C 85.63841 102.48125 85.92174 102.63371 86.0984 102.72853 C 86.27507 102.82335 86.55838 102.97504 86.73505 103.06944 C 86.91171 103.16383 87.19504 103.31494 87.3717 103.40895 C 87.54837 103.50296 87.8317 103.6534 88.00836 103.747 C 88.18503 103.84059 88.46835 103.99045 88.645 104.08365 C 88.82167 104.17685 89.10501 104.32599 89.28166 104.41881 C 89.45833 104.51163 89.74167 104.66022 89.91832 104.75266 C 90.09499 104.84511 90.37831 104.99306 90.55498 105.08513 C 90.73163 105.17719 91.01497 105.32454 91.19164 105.41623 C 91.36829 105.5079 91.65161 105.65463 91.82828 105.74594 C 92.00493 105.83725 92.28827 105.9834 92.46494 106.07436 C 92.64159 106.1653 92.92493 106.31099 93.1016 106.40157 C 93.27826 106.49216 93.56157 106.63713 93.73824 106.72736 C 93.9149 106.81758 94.19823 106.96204 94.3749 107.05193 C 94.55156 107.14182 94.83488 107.28572 95.01155 107.37524 C 95.18822 107.46477 95.47153 107.60808 95.6482 107.69727 C 95.82486 107.78645 96.10818 107.92921 96.28485 108.01808 C 96.46152 108.10693 96.74486 108.24919 96.92151 108.33769 C 97.09818 108.42621 97.3815 108.56784 97.55815 108.656 C 97.73482 108.74419 98.01816 108.88539 98.19481 108.97325 C 98.37148 109.0611 98.6548 109.20177 98.83147 109.28928 C 99.00812 109.3768 99.29146 109.5169 99.46812 109.6041 C 99.64478 109.6913 99.92812 109.83093 100.10478 109.91782 C 100.28143 110.00471 100.56476 110.1438 100.74142 110.23038 C 100.91808 110.31696 101.20142 110.45555 101.37808 110.54181 C 101.55475 110.62808 101.83807 110.76628 102.01474 110.85222 C 102.1914 110.93817 102.47472 111.07576 102.65138 111.16139 C 102.82805 111.24702 103.11137 111.38412 103.28804 111.46947 C 103.4647 111.55481 103.74803 111.69148 103.9247 111.77654 C 104.10136 111.86159 104.38467 111.99779 104.56134 112.08253 C 104.738 112.16728 105.02135 112.30298 105.198 112.38744 C 105.37466 112.47191 105.65799 112.60712 105.83464 112.69128 C 106.0113 112.77545 106.29465 112.91023 106.4713 112.99411 C 106.64796 113.07797 106.9313 113.21225 107.10796 113.29585 C 107.28462 113.37946 107.56795 113.51337 107.74461 113.5967 C 107.92126 113.68004 108.2046 113.81349 108.38127 113.89655 C 108.55792 113.9796 108.84126 114.11253 109.01793 114.19531 C 109.19458 114.27808 109.4779 114.41066 109.65457 114.49316 C 109.83124 114.57567 110.11456 114.70773 110.29123 114.78995 C 110.4679 114.87216 110.75122 115.00383 110.92789 115.08578 C 111.10455 115.16774 111.38786 115.29901 111.56453 115.3807 C 111.7412 115.4624 112.02452 115.59326 112.20119 115.67468 C 112.37785 115.7561 112.66116 115.88647 112.83783 115.96765 C 113.0145 116.04883 113.29784 116.17885 113.47449 116.25977 C 113.65115 116.34068 113.9345 116.47029 114.11115 116.55095 C 114.28781 116.6316 114.57114 116.76073 114.74779 116.84116 C 114.92445 116.92157 115.2078 117.05042 115.38445 117.13058 C 115.56111 117.21074 115.84445 117.33904 116.02112 117.41895 C 116.19777 117.49887 116.4811 117.6269 116.65776 117.70659 C 116.83441 117.78625 117.11775 117.91377 117.29442 117.99321 C 117.47107 118.07263 117.75441 118.19994 117.93108 118.27913 C 118.10774 118.3583 118.39105 118.48506 118.56772 118.56401 C 118.74438 118.64294 119.02771 118.7694 119.20438 118.84811 C 119.38104 118.92683 119.66435 119.05287 119.84102 119.13135 C 120.01768 119.20982 120.30101 119.33546 120.47768 119.41373 C 120.65434 119.49197 120.93767 119.61742 121.11433 119.69545 C 121.291 119.77348 121.57433 119.89838 121.75098 119.97615 C 121.92764 120.05392 122.21098 120.17851 122.38763 120.25607 C 122.5643 120.33363 122.84764 120.45784 123.02429 120.53517 C 123.20096 120.6125 123.48428 120.73637 123.66093 120.81349 C 123.8376 120.89061 124.12094 121.01414 124.2976 121.09103 C 124.47426 121.16792 124.7576 121.29105 124.93427 121.36772 C 125.11092 121.4444 125.39424 121.5673 125.5709 121.64377 C 125.74756 121.72025 126.0309 121.84262 126.20757 121.91885 C 126.38423 121.99509 126.66754 122.11725 126.84421 122.19328 C 127.02087 122.26932 127.3042 122.39111 127.48087 122.46695 C 127.65753 122.54277 127.94086 122.66423 128.11753 122.73982 C 128.29419 122.81543 128.5775 122.93652 128.75417 123.01192 C 128.93083 123.08733 129.21416 123.20815 129.39083 123.28336 C 129.56749 123.35857 129.85082 123.47897 130.02748 123.55397 C 130.20415 123.62895 130.48748 123.74905 130.66413 123.82387 C 130.84079 123.89867 131.12413 124.01855 131.30078 124.09315 C 131.47745 124.16774 131.76079 124.28714 131.93744 124.36153 C 132.1141 124.43591 132.39743 124.55511 132.5741 124.62932 C 132.75075 124.70352 133.03409 124.82236 133.21076 124.89635 C 133.3874 124.97034 133.67073 125.08885 133.8474 125.16266 C 134.02405 125.23647 134.30739 125.35475 134.48406 125.42836 C 134.6607 125.50197 134.94405 125.61981 135.12071 125.69322 C 135.29738 125.76663 135.58069 125.88426 135.75736 125.95749 C 135.93402 126.03072 136.21735 126.14801 136.39402 126.22104 C 136.57068 126.29408 136.854 126.41109 137.03067 126.48393 C 137.20734 126.55678 137.49065 126.67351 137.66732 126.74617 C 137.84398 126.81883 138.1273 126.93527 138.30397 127.00775 C 138.48064 127.08023 138.76398 127.19632 138.94063 127.2686 C 139.1173 127.34088 139.40062 127.4567 139.57727 127.52881 C 139.75394 127.60094 140.03728 127.71648 140.21393 127.78842 C 140.3906 127.86035 140.67394 127.97562 140.8506 128.04737 C 141.02725 128.11913 141.31058 128.23407 141.48725 128.30567 C 141.6639 128.37725 141.94724 128.49193 142.1239 128.56334 C 142.30055 128.63474 142.58388 128.74916 142.76055 128.82039 C 142.9372 128.8916 143.22054 129.0057 143.3972 129.07675 C 143.57387 129.1478 143.8572 129.2616 144.03386 129.33248 C 144.21053 129.40337 144.49384 129.517 144.6705 129.58773 C 144.84717 129.65845 145.1305 129.77165 145.30716 129.8422 C 145.48383 129.91272 145.76715 130.02574 145.94382 130.09612 C 146.12049 130.1665 146.4038 130.2793 146.58046 130.3495 C 146.75713 130.41973 147.04047 130.53221 147.21712 130.60224 C 147.39379 130.67227 147.67713 130.7845 147.85378 130.85437 C 148.03044 130.92424 148.31377 131.03614 148.49042 131.10585 C 148.66709 131.17557 148.95043 131.2873 149.12709 131.35686 C 149.30374 131.42642 149.58707 131.53786 149.76374 131.60724 C 149.94039 131.67662 150.22373 131.7877 150.40039 131.85692 C 150.57704 131.92613 150.86038 132.03707 151.03705 132.10613 C 151.2137 132.17519 151.49703 132.28583 151.67369 132.35474 C 151.85036 132.42365 152.13368 132.5341 152.31035 132.60286 C 152.48702 132.67163 152.77034 132.78177 152.947 132.85034 C 153.12368 132.91892 153.40699 133.02878 153.58365 133.09722 C 153.76032 133.16567 154.04364 133.27538 154.2203 133.34366 C 154.39698 133.41194 154.6803 133.52135 154.85697 133.58948 C 155.03363 133.65761 155.31696 133.7668 155.4936 133.8348 C 155.67028 133.90277 155.95362 134.01169 156.13027 134.07952 C 156.30693 134.14733 156.59026 134.25597 156.7669 134.32363 C 156.94358 134.39128 157.22692 134.49974 157.40357 134.56728 C 157.58023 134.63483 157.86357 134.74306 158.04024 134.81046 C 158.21689 134.87784 158.50022 134.9858 158.67688 135.05301 C 158.85353 135.12024 159.13687 135.22797 159.31354 135.29505 C 159.49019 135.36214 159.77353 135.46967 159.9502 135.5366 C 160.12686 135.60355 160.41017 135.71076 160.58684 135.77756 C 160.7635 135.84436 161.04683 135.95143 161.2235 136.0181 C 161.40016 136.08477 161.68349 136.19153 161.86016 136.25803 C 162.03682 136.32454 162.32013 136.43112 162.4968 136.4975 C 162.67346 136.56386 162.95679 136.6702 163.13346 136.73642 C 163.31012 136.80265 163.59345 136.90877 163.7701 136.97487 C 163.94676 137.04097 164.2301 137.1469 164.40676 137.21283 C 164.58342 137.27878 164.86676 137.38443 165.04341 137.45026 C 165.22008 137.51609 165.5034 137.62163 165.68006 137.68732 C 165.85672 137.753 166.14006 137.8582 166.31673 137.92374 C 166.49338 137.98928 166.77672 138.09429 166.95339 138.15969 C 167.13004 138.22509 167.41336 138.32993 167.59003 138.3952 C 167.76668 138.46048 168.05002 138.56505 168.22669 138.63018 C 168.40335 138.6953 168.68668 138.79967 168.86334 138.86467 C 169.04001 138.92967 169.32332 139.0338 169.49999 139.0987 C 169.67665 139.16358 169.95998 139.26755 170.13665 139.33229 C 170.31331 139.39705 170.59662 139.50081 170.77329 139.56542 C 170.94995 139.63002 171.23328 139.73354 171.40995 139.798 C 171.58661 139.86249 171.86995 139.96576 172.0466 140.0301 C 172.22327 140.09447 172.50659 140.19762 172.68325 140.26187 C 172.85991 140.32611 173.14325 140.42906 173.3199 140.49315 C 173.49657 140.55724 173.7799 140.65993 173.95656 140.72389 C 174.13323 140.78784 174.41655 140.89035 174.59322 140.9542 C 174.76987 141.01805 175.0532 141.1204 175.22988 141.18415 C 175.40653 141.24787 175.68987 141.34993 175.86653 141.41352 C 176.04319 141.47708 176.3265 141.57898 176.50318 141.64246 C 176.67984 141.70592 176.96317 141.80768 177.13983 141.87104 C 177.3165 141.93437 177.59981 142.03586 177.77648 142.09908 C 177.95314 142.16228 178.23647 142.2636 178.41313 142.3267 C 178.5898 142.38982 178.87313 142.49092 179.04979 142.55391 C 179.22646 142.61692 179.50977 142.71796 179.68643 142.78083 C 179.8631 142.84368 180.14644 142.94434 180.32309 143.00707 C 180.49976 143.06981 180.7831 143.17038 180.95975 143.23302 C 181.13642 143.29566 181.59639 143.4585 181.59639 143.4585 "/>
<path transform="matrix(1,0,0,-1,9.174,174.62999)" stroke-width="1.59404" stroke-linecap="butt" stroke-miterlimit="10" stroke-linejoin="miter" fill="none" stroke="#800000" d="M 71.79544 94.4456 L 109.8048 114.76933 "/>
<symbol id="font_0_1">
<path d="M .39500005 .698 C .38800005 .711 .38600005 .716 .36900003 .716 C .35200004 .716 .35000003 .711 .34300003 .698 L .004999999 .020000002 C 0 .011000001 0 .009000001 0 .008 C 0 0 .006000001 0 .022000004 0 L .716 0 C .73200008 0 .73800006 0 .73800006 .008 C .73800006 .009000001 .73800006 .011000001 .73300006 .020000002 L .39500005 .698 M .337 .61600008 L .60600009 .076000008 L .067 .076000008 L .337 .61600008 Z "/>
</symbol>
<use xlink:href="#font_0_1" transform="matrix(9.9626,0,0,-9.9626,91.84324,57.46398)" fill="#800000"/>
<symbol id="font_1_3">
<path d="M .33900006 .38500003 C .311 .38400004 .291 .36200003 .291 .34000004 C .291 .32600004 .3 .31100003 .32200004 .31100003 C .34400005 .31100003 .36800004 .328 .36800004 .367 C .36800004 .41200004 .325 .45300005 .24900003 .45300005 C .11700001 .45300005 .08 .351 .08 .307 C .08 .22900002 .15400002 .21400002 .18300002 .20800002 C .235 .19800002 .287 .18700002 .287 .13200002 C .287 .106000009 .264 .022000002 .14400001 .022000002 C .13000001 .022000002 .053000004 .022000002 .030000002 .075 C .068 .07000001 .09300001 .1 .09300001 .128 C .09300001 .15100001 .07700001 .16300002 .056 .16300002 C .030000002 .16300002 0 .14200002 0 .097 C 0 .040000004 .057000005 0 .143 0 C .305 0 .34400005 .12100001 .34400005 .16600001 C .34400005 .20200002 .325 .22700002 .31300003 .23900002 C .286 .26700003 .25700004 .272 .21300002 .28100003 C .17700002 .28900004 .13700001 .29600004 .13700001 .34100003 C .13700001 .37000004 .16100002 .43100003 .24900003 .43100003 C .274 .43100003 .324 .42400003 .33900006 .38500003 Z "/>
</symbol>
<use xlink:href="#font_1_3" transform="matrix(9.9626,0,0,-9.9626,100.19606,57.57357)" fill="#800000"/>
<symbol id="font_1_5">
<path d="M .45700003 .586 C .461 .6 .461 .602 .461 .609 C .461 .62700006 .447 .63600006 .432 .63600006 C .42200003 .63600006 .40600003 .63 .397 .615 C .395 .61 .387 .579 .38300003 .561 C .37600003 .535 .36900003 .508 .363 .48100005 L .318 .301 C .314 .286 .271 .21600002 .20500002 .21600002 C .15400002 .21600002 .143 .26000003 .143 .29700003 C .143 .34300003 .16000001 .40500004 .194 .49300004 C .21000001 .53400006 .21400002 .545 .21400002 .56500008 C .21400002 .61 .18200001 .6470001 .13200002 .6470001 C .037 .6470001 0 .50200006 0 .49300004 C 0 .48300005 .01 .48300005 .012 .48300005 C .022000002 .48300005 .023 .485 .028000003 .50100007 C .055000009 .595 .095000009 .625 .12900001 .625 C .13700001 .625 .15400002 .625 .15400002 .59300008 C .15400002 .568 .14400001 .54200008 .13700001 .523 C .097 .41700004 .079 .36 .079 .31300003 C .079 .224 .142 .194 .201 .194 C .24000003 .194 .274 .21100001 .30200003 .23900002 C .289 .187 .277 .13800001 .237 .08500001 C .21100001 .051 .17300001 .022 .127 .022 C .113000009 .022 .068 .025000006 .051000008 .06400001 C .067 .06400001 .080000009 .06400001 .094000007 .076000008 C .104 .08500001 .11400001 .098000008 .11400001 .117000009 C .11400001 .148 .087000008 .15200001 .07700001 .15200001 C .054000006 .15200001 .021 .136 .021 .087000008 C .021 .037 .065000008 0 .127 0 C .23 0 .333 .091000009 .361 .20400001 L .45700003 .586 Z "/>
</symbol>
<use xlink:href="#font_1_5" transform="matrix(9.9626,0,0,-9.9626,132.56792,36.473318)" fill="#000080"/>
<symbol id="font_0_8">
<path d="M .63100007 .19400002 C .646 .19400002 .665 .19400002 .665 .214 C .665 .23400001 .646 .23400001 .632 .23400001 L .033 .23400001 C .019000002 .23400001 0 .23400001 0 .214 C 0 .19400002 .019000002 .19400002 .034 .19400002 L .63100007 .19400002 M .632 0 C .646 0 .665 0 .665 .02000001 C .665 .040000008 .646 .040000008 .63100007 .040000008 L .034 .040000008 C .019000002 .040000008 0 .040000008 0 .02000001 C 0 0 .019000002 0 .033 0 L .632 0 Z "/>
</symbol>
<use xlink:href="#font_0_8" transform="matrix(9.9626,0,0,-9.9626,140.84691,33.105958)" fill="#000080"/>
<symbol id="font_2_1">
<path d="M .316 .10500002 L .14000002 .49400003 C .13300002 .51 .12799999 .51 .125 .51 C .124000009 .51 .118999999 .51 .108 .502 L .012999997 .43 C 0 .42000003 0 .417 0 .41400004 C 0 .40900005 .0029999987 .403 .009999998 .403 C .015999996 .403 .033 .417 .044 .425 C .049999998 .43 .065000008 .44099999 .076 .449 L .273 .015999973 C .28 0 .285 0 .294 0 C .30900003 0 .312 .0059999825 .319 .01999998 L .773 .96000006 C .78000006 .97400006 .78000006 .97800007 .78000006 .98 C .78000006 .99 .772 1 .76000007 1 C .75200006 1 .745 .99500009 .73700007 .97900006 L .316 .10500002 Z "/>
</symbol>
<use xlink:href="#font_2_1" transform="matrix(9.9626,0,0,-9.9626,151.53227,36.333078)" fill="#000080"/>
<path transform="matrix(1,0,0,-1,159.107,26.568985)" stroke-width="1" stroke-linecap="butt" stroke-miterlimit="10" stroke-linejoin="miter" fill="none" stroke="#000080" d="M 0 0 L 5.694 0 "/>
<symbol id="font_1_4">
<path d="M .305 .31300003 C .311 .33900003 .334 .43100003 .404 .43100003 C .409 .43100003 .433 .43100003 .454 .418 C .426 .41300003 .40600003 .388 .40600003 .36400003 C .40600003 .34800003 .417 .32900004 .444 .32900004 C .46600003 .32900004 .498 .34700004 .498 .38700003 C .498 .43900005 .439 .45300005 .405 .45300005 C .347 .45300005 .312 .40000005 .3 .37700004 C .275 .44300003 .221 .45300005 .19200002 .45300005 C .08800001 .45300005 .031000002 .32400004 .031000002 .29900003 C .031000002 .28900004 .041 .28900004 .043000007 .28900004 C .051000008 .28900004 .054000006 .291 .056 .3 C .09 .40600003 .156 .43100003 .19000001 .43100003 C .209 .43100003 .244 .42200003 .244 .36400003 C .244 .33300004 .22700002 .26600004 .19000001 .126 C .17400001 .064 .13900002 .022000002 .095000009 .022000002 C .08900001 .022000002 .06600001 .022000002 .045 .035 C .07000001 .040000004 .09200001 .061 .09200001 .089 C .09200001 .116000007 .07000001 .124000009 .055000009 .124000009 C .025 .124000009 0 .098000008 0 .06600001 C 0 .020000002 .050000006 0 .094000007 0 C .16000001 0 .19600001 .07000001 .19900002 .076000008 C .21100001 .039 .24700003 0 .307 0 C .41 0 .467 .12900001 .467 .15400002 C .467 .16400002 .458 .16400002 .455 .16400002 C .446 .16400002 .444 .16000001 .442 .15300001 C .409 .046 .341 .022000002 .30900003 .022000002 C .27 .022000002 .254 .054 .254 .08800001 C .254 .11000001 .26 .13200002 .271 .17600002 L .305 .31300003 Z "/>
</symbol>
<use xlink:href="#font_1_4" transform="matrix(9.9626,0,0,-9.9626,159.3959,34.540575)" fill="#000080"/>
<path transform="matrix(1,0,0,-1,9.174,174.62999)" stroke-width="1" stroke-linecap="butt" stroke-miterlimit="10" stroke-linejoin="miter" fill="none" stroke="#800000" d="M 97.13501 23.91028 L 97.13501 108.19402 "/>
<symbol id="font_1_2">
<path d="M .059000009 .07000001 C .056 .055000005 .050000006 .032 .050000006 .027000003 C .050000006 .009000001 .064 0 .079 0 C .091000009 0 .10900001 .008000001 .11600001 .028 C .118 .032 .15200001 .16800002 .156 .18600002 C .164 .21900001 .18200001 .28900004 .18800001 .316 C .19200002 .32900004 .22000002 .37600003 .244 .39800004 C .252 .40500004 .281 .43100003 .324 .43100003 C .35 .43100003 .365 .41900004 .366 .41900004 C .336 .41400004 .314 .39000003 .314 .36400003 C .314 .34800003 .325 .32900004 .352 .32900004 C .379 .32900004 .407 .35200004 .407 .388 C .407 .42300005 .375 .45300005 .324 .45300005 C .259 .45300005 .21500002 .404 .19600001 .37600003 C .18800001 .42100004 .15200001 .45300005 .105000007 .45300005 C .059000009 .45300005 .040000008 .41400004 .031000002 .39600004 C .013000002 .36200003 0 .30200003 0 .29900003 C 0 .28900004 .01 .28900004 .012 .28900004 C .022000002 .28900004 .023 .29000003 .029000001 .31200005 C .046000005 .38300003 .06600001 .43100003 .10200001 .43100003 C .119 .43100003 .133 .42300005 .133 .38500003 C .133 .36400003 .13000001 .35300002 .11700001 .30100004 L .059000009 .07000001 Z "/>
</symbol>
<use xlink:href="#font_1_2" transform="matrix(9.9626,0,0,-9.9626,112.65792,111.13157)" fill="#800000"/>
<path transform="matrix(1,0,0,-1,9.174,174.62999)" stroke-width="1" stroke-linecap="butt" stroke-miterlimit="10" stroke-linejoin="miter" fill="none" stroke="#808080" d="M 54.90239 21.78427 L 54.90239 26.03625 M 97.13501 21.78427 L 97.13501 26.03625 M 139.36763 21.78427 L 139.36763 26.03625 M 181.60024 21.78427 L 181.60024 26.03625 "/>
<path transform="matrix(1,0,0,-1,9.174,174.62999)" stroke-width="1" stroke-linecap="butt" stroke-miterlimit="10" stroke-linejoin="miter" fill="none" stroke="#808080" d="M 10.5438 53.79813 L 14.79575 53.79813 M 10.5438 83.68597 L 14.79575 83.68597 M 10.5438 113.57382 L 14.79575 113.57382 M 10.5438 143.46167 L 14.79575 143.46167 "/>
<path transform="matrix(1,0,0,-1,9.174,174.62999)" stroke-width="1" stroke-linecap="butt" stroke-miterlimit="10" stroke-linejoin="miter" fill="none" stroke="#000000" d="M 0 23.91028 L 192.2775 23.91028 "/>
<path transform="matrix(1,0,0,-1,201.45149,150.71971)" d="M 1.99252 0 L -1.19551 1.59401 L 0 0 L -1.19551 -1.59401 "/>
<path transform="matrix(1,0,0,-1,9.174,174.62999)" stroke-width="1" stroke-linecap="butt" stroke-miterlimit="10" stroke-linejoin="miter" fill="none" stroke="#000000" d="M 12.66978 0 L 12.66978 159.40186 "/>
<path transform="matrix(0,-1,-1,-0,21.84378,15.228134)" d="M 1.99252 0 L -1.19551 1.59401 L 0 0 L -1.19551 -1.59401 "/>
<symbol id="font_0_3">
<path d="M .205 .64000007 C .205 .66400006 .205 .666 .18200003 .666 C .120000008 .60200008 .032000007 .60200008 0 .60200008 L 0 .57100006 C .020000004 .57100006 .07900001 .57100006 .13100001 .597 L .13100001 .079 C .13100001 .043 .128 .031000002 .038000004 .031000002 L .0060000049 .031000002 L .0060000049 0 C .04100001 .003 .128 .003 .168 .003 C .20800002 .003 .29500003 .003 .33000005 0 L .33000005 .031000002 L .29800005 .031000002 C .20800002 .031000002 .205 .042000005 .205 .079 L .205 .64000007 Z "/>
</symbol>
<use xlink:href="#font_0_3" transform="matrix(9.9626,0,0,-9.9626,62.471673,162.85999)"/>
<symbol id="font_0_4">
<path d="M .07700001 .07700001 L .18300002 .18 C .33900003 .31800003 .39900003 .372 .39900003 .47200004 C .39900003 .586 .30900003 .666 .18700002 .666 C .074 .666 0 .574 0 .485 C 0 .42900003 .05 .42900003 .053000008 .42900003 C .07000001 .42900003 .105000007 .441 .105000007 .48200003 C .105000007 .508 .08700001 .53400006 .052000006 .53400006 C .044000005 .53400006 .042000008 .53400006 .039 .53300008 C .062000004 .59800007 .11600001 .63500007 .17400001 .63500007 C .26500003 .63500007 .308 .554 .308 .47200004 C .308 .39200003 .25800003 .31300003 .20300003 .25100003 L .011000004 .037 C 0 .026 0 .024 0 0 L .37100003 0 L .39900003 .17400001 L .374 .17400001 C .36900003 .14400001 .36200003 .1 .352 .085 C .345 .07700001 .279 .07700001 .257 .07700001 L .07700001 .07700001 Z "/>
</symbol>
<use xlink:href="#font_0_4" transform="matrix(9.9626,0,0,-9.9626,104.31513,162.85999)"/>
<symbol id="font_0_5">
<path d="M .24800003 .37400005 C .33 .40100003 .388 .47100006 .388 .55 C .388 .632 .3 .688 .204 .688 C .10300001 .688 .027000003 .628 .027000003 .55200007 C .027000003 .519 .049000004 .5 .078 .5 C .109000008 .5 .12900001 .522 .12900001 .55100008 C .12900001 .6010001 .082 .6010001 .067 .6010001 C .098 .65000006 .164 .66300007 .20000002 .66300007 C .24100003 .66300007 .29600004 .64100006 .29600004 .55100008 C .29600004 .53900006 .29400004 .48100005 .268 .43700005 C .238 .38900004 .204 .38600005 .17900002 .38500003 C .171 .38400004 .14700002 .38200004 .14000002 .38200004 C .132 .38100005 .125 .38000003 .125 .37000004 C .125 .35900004 .132 .35900004 .14900002 .35900004 L .19300002 .35900004 C .275 .35900004 .312 .29100005 .312 .193 C .312 .057000005 .24300003 .028 .199 .028 C .15600002 .028 .081 .045 .046000005 .104 C .081 .09900001 .11200001 .12100001 .11200001 .15900001 C .11200001 .19500001 .085 .215 .056 .215 C .031999999 .215 0 .201 0 .157 C 0 .06600001 .093 0 .20200002 0 C .32400004 0 .41500003 .091000009 .41500003 .193 C .41500003 .27500005 .35200004 .35300005 .24800003 .37400005 Z "/>
</symbol>
<use xlink:href="#font_0_5" transform="matrix(9.9626,0,0,-9.9626,146.46743,163.07917)"/>
<symbol id="font_0_6">
<path d="M .266 .165 L .266 .078 C .266 .042000005 .26400004 .031000002 .19000001 .031000002 L .16900002 .031000002 L .16900002 0 C .21000001 .003 .26200003 .003 .30400003 .003 C .34600003 .003 .39900003 .003 .44000004 0 L .44000004 .031000002 L .41900004 .031000002 C .34500004 .031000002 .34300003 .042000005 .34300003 .078 L .34300003 .165 L .44300003 .165 L .44300003 .19600001 L .34300003 .19600001 L .34300003 .651 C .34300003 .671 .34300003 .67700007 .32700003 .67700007 C .31800003 .67700007 .31500004 .67700007 .307 .665 L 0 .19600001 L 0 .165 L .266 .165 M .272 .19600001 L .028 .19600001 L .272 .569 L .272 .19600001 Z "/>
</symbol>
<use xlink:href="#font_0_6" transform="matrix(9.9626,0,0,-9.9626,188.55994,162.85999)"/>
<symbol id="font_0_2">
<path d="M .421 .34200005 C .421 .42200003 .416 .50200006 .381 .57600006 C .335 .67200008 .25300003 .688 .211 .688 C .15100001 .688 .07800001 .66200008 .037000006 .56900009 C .0050000029 .5 0 .42200003 0 .34200005 C 0 .26700003 .0040000008 .177 .045000007 .101 C .088 .020000002 .161 0 .21000001 0 C .264 0 .34 .021000002 .384 .116000007 C .416 .185 .421 .263 .421 .34200005 M .21000001 .022000002 C .171 .022000002 .112 .047000003 .094 .143 C .083000008 .20300001 .083000008 .29500003 .083000008 .35400004 C .083000008 .41800005 .083000008 .48400004 .091000009 .53800007 C .11 .65700009 .185 .66600009 .21000001 .66600009 C .243 .66600009 .30900003 .64800009 .328 .549 C .338 .49300004 .338 .41700004 .338 .35400004 C .338 .279 .338 .21100001 .32700003 .147 C .312 .052 .255 .022000002 .21000001 .022000002 Z "/>
</symbol>
<use xlink:href="#font_0_2" transform="matrix(9.9626,0,0,-9.9626,3.782541,124.26216)"/>
<symbol id="font_1_1">
<path d="M .106 .053000004 C .106 .082 .08200001 .106000009 .05300001 .106000009 C .024000004 .106000009 0 .082 0 .053000004 C 0 .024 .024000004 0 .05300001 0 C .08200001 0 .106 .024 .106 .053000004 Z "/>
</symbol>
<use xlink:href="#font_1_1" transform="matrix(9.9626,0,0,-9.9626,9.232783,124.042987)"/>
<symbol id="font_0_7">
<path d="M .39900003 .223 C .39900003 .34200005 .317 .44200004 .209 .44200004 C .16100002 .44200004 .118000019 .42600004 .082 .39100004 L .082 .586 C .10200001 .58000007 .135 .573 .16700001 .573 C .29 .573 .36 .66400006 .36 .67700007 C .36 .683 .357 .688 .35 .688 C .349 .688 .347 .688 .342 .68500009 C .322 .67600008 .273 .656 .20600002 .656 C .16600001 .656 .120000008 .66300007 .073 .6840001 C .065 .68700006 .06300001 .68700006 .061000009 .68700006 C .051000004 .68700006 .051000004 .679 .051000004 .66300007 L .051000004 .36700005 C .051000004 .34900005 .051000004 .34100003 .065 .34100003 C .07200001 .34100003 .074 .34400005 .07800001 .35000003 C .08900002 .36600004 .12600002 .42000006 .207 .42000006 C .259 .42000006 .284 .37400005 .292 .35600005 C .308 .31900005 .31 .28000004 .31 .23 C .31 .19500001 .31 .135 .286 .093 C .262 .054000006 .22500001 .028 .17900002 .028 C .106000009 .028 .049000008 .08100001 .032 .14000002 C .035 .13900002 .038000008 .13800001 .049000008 .13800001 C .082 .13800001 .09900001 .163 .09900001 .187 C .09900001 .21100001 .082 .23600002 .049000008 .23600002 C .035 .23600002 0 .22900002 0 .18300002 C 0 .097 .069000009 0 .18100001 0 C .297 0 .39900003 .096 .39900003 .223 Z "/>
</symbol>
<use xlink:href="#font_0_7" transform="matrix(9.9626,0,0,-9.9626,11.6411299,124.26216)"/>
<use xlink:href="#font_0_3" transform="matrix(9.9626,0,0,-9.9626,12.029671,94.15499)"/>
<use xlink:href="#font_0_3" transform="matrix(9.9626,0,0,-9.9626,4.280671,64.26798)"/>
<use xlink:href="#font_1_1" transform="matrix(9.9626,0,0,-9.9626,9.232783,64.26798)"/>
<use xlink:href="#font_0_7" transform="matrix(9.9626,0,0,-9.9626,11.6411299,64.48716)"/>
<use xlink:href="#font_0_4" transform="matrix(9.9626,0,0,-9.9626,11.6411299,34.37999)"/>
<path transform="matrix(1,0,0,-1,9.174,174.62999)" d="M 56.89494 83.68597 C 56.89494 84.78644 56.00287 85.67853 54.90239 85.67853 C 53.80193 85.67853 52.90984 84.78644 52.90984 83.68597 C 52.90984 82.5855 53.80193 81.69342 54.90239 81.69342 C 56.00287 81.69342 56.89494 82.5855 56.89494 83.68597 Z M 54.90239 83.68597 " fill="#000080"/>
<path transform="matrix(1,0,0,-1,9.174,174.62999)" stroke-width="1" stroke-linecap="butt" stroke-miterlimit="10" stroke-linejoin="miter" fill="none" stroke="#000080" d="M 56.89494 83.68597 C 56.89494 84.78644 56.00287 85.67853 54.90239 85.67853 C 53.80193 85.67853 52.90984 84.78644 52.90984 83.68597 C 52.90984 82.5855 53.80193 81.69342 54.90239 81.69342 C 56.00287 81.69342 56.89494 82.5855 56.89494 83.68597 Z M 54.90239 83.68597 "/>
<path transform="matrix(1,0,0,-1,9.174,174.62999)" d="M 183.59279 143.46167 C 183.59279 144.56215 182.70072 145.45423 181.60024 145.45423 C 180.49977 145.45423 179.60768 144.56215 179.60768 143.46167 C 179.60768 142.3612 180.49977 141.46912 181.60024 141.46912 C 182.70072 141.46912 183.59279 142.3612 183.59279 143.46167 Z M 181.60024 143.46167 " fill="#000080"/>
<path transform="matrix(1,0,0,-1,9.174,174.62999)" stroke-width="1" stroke-linecap="butt" stroke-miterlimit="10" stroke-linejoin="miter" fill="none" stroke="#000080" d="M 183.59279 143.46167 C 183.59279 144.56215 182.70072 145.45423 181.60024 145.45423 C 180.49977 145.45423 179.60768 144.56215 179.60768 143.46167 C 179.60768 142.3612 180.49977 141.46912 181.60024 141.46912 C 182.70072 141.46912 183.59279 142.3612 183.59279 143.46167 Z M 181.60024 143.46167 "/>
<path transform="matrix(1,0,0,-1,9.174,174.62999)" d="M 73.788 94.4456 C 73.788 95.54607 72.8959 96.43816 71.79544 96.43816 C 70.69496 96.43816 69.80289 95.54607 69.80289 94.4456 C 69.80289 93.34512 70.69496 92.45305 71.79544 92.45305 C 72.8959 92.45305 73.788 93.34512 73.788 94.4456 Z M 71.79544 94.4456 " fill="#800000"/>
<path transform="matrix(1,0,0,-1,9.174,174.62999)" stroke-width="1" stroke-linecap="butt" stroke-miterlimit="10" stroke-linejoin="miter" fill="none" stroke="#800000" d="M 73.788 94.4456 C 73.788 95.54607 72.8959 96.43816 71.79544 96.43816 C 70.69496 96.43816 69.80289 95.54607 69.80289 94.4456 C 69.80289 93.34512 70.69496 92.45305 71.79544 92.45305 C 72.8959 92.45305 73.788 93.34512 73.788 94.4456 Z M 71.79544 94.4456 "/>
<path transform="matrix(1,0,0,-1,9.174,174.62999)" d="M 111.79735 114.76933 C 111.79735 115.86981 110.90526 116.76189 109.8048 116.76189 C 108.70433 116.76189 107.81224 115.86981 107.81224 114.76933 C 107.81224 113.66887 108.70433 112.77678 109.8048 112.77678 C 110.90526 112.77678 111.79735 113.66887 111.79735 114.76933 Z M 109.8048 114.76933 " fill="#800000"/>
<path transform="matrix(1,0,0,-1,9.174,174.62999)" stroke-width="1" stroke-linecap="butt" stroke-miterlimit="10" stroke-linejoin="miter" fill="none" stroke="#800000" d="M 111.79735 114.76933 C 111.79735 115.86981 110.90526 116.76189 109.8048 116.76189 C 108.70433 116.76189 107.81224 115.86981 107.81224 114.76933 C 107.81224 113.66887 108.70433 112.77678 109.8048 112.77678 C 110.90526 112.77678 111.79735 113.66887 111.79735 114.76933 Z M 109.8048 114.76933 "/>
<use xlink:href="#font_1_4" transform="matrix(9.9626,0,0,-9.9626,207.35591,152.97058)"/>
<use xlink:href="#font_1_5" transform="matrix(9.9626,0,0,-9.9626,19.513915,9.726324)"/>
</svg>
