<?xml version="1.0" encoding="UTF-8" standalone="no"?>
<!DOCTYPE svg PUBLIC "-//W3C//DTD SVG 1.1//EN" "http://www.w3.org/Graphics/SVG/1.1/DTD/svg11.dtd">
<svg xmlns="http://www.w3.org/2000/svg" xmlns:xlink="http://www.w3.org/1999/xlink" version="1.1" width="259.366pt" height="128.754pt" viewBox="0 0 259.366 128.754">
<path transform="matrix(1,0,0,-1,57.291,14.769997)" stroke-width="1.19553" stroke-linecap="butt" stroke-miterlimit="10" stroke-linejoin="miter" fill="none" stroke="#000080" d="M 28.3468 0 L 22.93315 8.33066 L 8.75974 13.4796 L -8.75974 13.4796 L -22.93315 8.33066 L -28.3468 0 L -22.93315 -8.33066 L -8.75974 -13.4796 L 8.75974 -13.4796 L 22.93315 -8.33066 L 28.3468 0 "/>
<path transform="matrix(1,0,0,-1,57.291,14.769997)" stroke-width="1.19553" stroke-linecap="butt" stroke-miterlimit="10" stroke-linejoin="miter" fill="none" stroke="#000080" d="M 56.69362 -85.04042 L 45.8663 -68.37862 L 17.5195 -58.08075 L -17.5195 -58.08075 L -45.8663 -68.37862 L -56.69362 -85.04042 L -45.8663 -101.70221 L -17.5195 -112.00008 L 17.5195 -112.00008 L 45.8663 -101.70221 L 56.69362 -85.04042 "/>
<path transform="matrix(1,0,0,-1,57.291,14.769997)" stroke-width="1.19553" stroke-linecap="butt" stroke-miterlimit="10" stroke-linejoin="miter" fill="none" stroke="#000080" d="M 28.3468 0 L 56.69362 -85.04042 "/>
<path transform="matrix(1,0,0,-1,57.291,14.769997)" stroke-width="1.19553" stroke-linecap="butt" stroke-miterlimit="10" stroke-linejoin="miter" fill="none" stroke="#000080" d="M 22.93315 8.33066 L 45.8663 -68.37862 "/>
<path transform="matrix(1,0,0,-1,57.291,14.769997)" stroke-width="1.19553" stroke-linecap="butt" stroke-miterlimit="10" stroke-linejoin="miter" fill="none" stroke="#000080" d="M 8.75974 13.4796 L 17.5195 -58.08075 "/>
<path transform="matrix(1,0,0,-1,57.291,14.769997)" stroke-width="1.19553" stroke-linecap="butt" stroke-miterlimit="10" stroke-linejoin="miter" fill="none" stroke="#000080" d="M -8.75974 13.4796 L -17.5195 -58.08075 "/>
<path transform="matrix(1,0,0,-1,57.291,14.769997)" stroke-width="1.19553" stroke-linecap="butt" stroke-miterlimit="10" stroke-linejoin="miter" fill="none" stroke="#000080" d="M -22.93315 8.33066 L -45.8663 -68.37862 "/>
<path transform="matrix(1,0,0,-1,57.291,14.769997)" stroke-width="1.19553" stroke-linecap="butt" stroke-miterlimit="10" stroke-linejoin="miter" fill="none" stroke="#000080" d="M -28.3468 0 L -56.69362 -85.04042 "/>
<path transform="matrix(1,0,0,-1,57.291,14.769997)" stroke-width="1.19553" stroke-linecap="butt" stroke-miterlimit="10" stroke-linejoin="miter" fill="none" stroke="#000080" d="M -22.93315 -8.33066 L -45.8663 -101.70221 "/>
<path transform="matrix(1,0,0,-1,57.291,14.769997)" stroke-width="1.19553" stroke-linecap="butt" stroke-miterlimit="10" stroke-linejoin="miter" fill="none" stroke="#000080" d="M -8.75974 -13.4796 L -17.5195 -112.00008 "/>
<path transform="matrix(1,0,0,-1,57.291,14.769997)" stroke-width="1.19553" stroke-linecap="butt" stroke-miterlimit="10" stroke-linejoin="miter" fill="none" stroke="#000080" d="M 8.75974 -13.4796 L 17.5195 -112.00008 "/>
<path transform="matrix(1,0,0,-1,57.291,14.769997)" stroke-width="1.19553" stroke-linecap="butt" stroke-miterlimit="10" stroke-linejoin="miter" fill="none" stroke="#000080" d="M 22.93315 -8.33066 L 45.8663 -101.70221 "/>
<path transform="matrix(1,0,0,-1,57.291,14.769997)" stroke-width="1.19553" stroke-linecap="butt" stroke-miterlimit="10" stroke-linejoin="miter" fill="none" stroke="#000080" d="M 28.3468 0 L 56.69362 -85.04042 "/>
<path transform="matrix(1,0,0,-1,57.291,14.769997)" stroke-width="1.19553" stroke-linecap="butt" stroke-miterlimit="10" stroke-linejoin="miter" fill="none" stroke="#000080" d="M 113.38724 0 C 113.38724 -7.82784 126.07832 -14.17339 141.73404 -14.17339 C 157.38976 -14.17339 170.08086 -7.82784 170.08086 0 "/>
<path transform="matrix(1,0,0,-1,57.291,14.769997)" stroke-width="1.19553" stroke-linecap="butt" stroke-miterlimit="10" stroke-linejoin="miter" fill="none" stroke="#000080" d="M 113.38724 0 C 113.38724 7.82784 126.07832 14.17339 141.73404 14.17339 C 157.38976 14.17339 170.08086 7.82784 170.08086 0 "/>
<path transform="matrix(1,0,0,-1,57.291,14.769997)" stroke-width="1.19553" stroke-linecap="butt" stroke-miterlimit="10" stroke-linejoin="miter" fill="none" stroke="#000080" d="M 85.04042 -85.04042 C 85.04042 -100.69614 110.42264 -113.38724 141.73406 -113.38724 C 161.98635 -113.38724 180.70616 -107.98334 190.8323 -99.21382 C 197.49599 -93.4429 199.88117 -86.68062 197.56694 -80.11815 "/>
<path transform="matrix(1,0,0,-1,57.291,14.769997)" stroke-width="1.19553" stroke-linecap="butt" stroke-dasharray="2.98883,2.98883" stroke-miterlimit="10" stroke-linejoin="miter" fill="none" stroke="#000080" d="M 85.04042 -85.04042 C 85.04042 -69.3847 110.42264 -56.69362 141.73406 -56.69362 C 169.24434 -56.69362 192.78993 -66.57185 197.56694 -80.11815 "/>
<path transform="matrix(1,0,0,-1,57.291,14.769997)" stroke-width="1.19553" stroke-linecap="butt" stroke-miterlimit="10" stroke-linejoin="miter" fill="none" stroke="#000080" d="M 85.04042 -82.20555 L 113.38724 0 "/>
<path transform="matrix(1,0,0,-1,57.291,14.769997)" stroke-width="1.19553" stroke-linecap="butt" stroke-miterlimit="10" stroke-linejoin="miter" fill="none" stroke="#000080" d="M 198.42766 -82.20555 L 170.08086 0 "/>
<path transform="matrix(1,0,0,-1,57.291,14.769997)" stroke-width="1" stroke-linecap="butt" stroke-miterlimit="10" stroke-linejoin="miter" fill="none" stroke="#000000" d="M 201.1076 -81.28143 C 201.6922 -80.68468 201.87892 -79.69817 201.47295 -78.52087 L 188.92618 -42.13556 C 188.52022 -40.95825 188.70694 -39.97177 189.29155 -39.375 C 188.46338 -39.26543 187.70829 -38.60368 187.3023 -37.42638 L 174.75554 -1.04108 C 174.34957 .13622 173.59447 .79794 172.76631 .90753 "/>
<symbol id="font_0_1">
<path d="M .33900006 .38500003 C .311 .38400004 .291 .36200003 .291 .34000004 C .291 .32600004 .3 .31100003 .32200004 .31100003 C .34400005 .31100003 .36800004 .328 .36800004 .367 C .36800004 .41200004 .325 .45300005 .24900003 .45300005 C .11700001 .45300005 .08 .351 .08 .307 C .08 .22900002 .15400002 .21400002 .18300002 .20800002 C .235 .19800002 .287 .18700002 .287 .13200002 C .287 .106000009 .264 .022000002 .14400001 .022000002 C .13000001 .022000002 .053000004 .022000002 .030000002 .075 C .068 .07000001 .09300001 .1 .09300001 .128 C .09300001 .15100001 .07700001 .16300002 .056 .16300002 C .030000002 .16300002 0 .14200002 0 .097 C 0 .040000004 .057000005 0 .143 0 C .305 0 .34400005 .12100001 .34400005 .16600001 C .34400005 .20200002 .325 .22700002 .31300003 .23900002 C .286 .26700003 .25700004 .272 .21300002 .28100003 C .17700002 .28900004 .13700001 .29600004 .13700001 .34100003 C .13700001 .37000004 .16100002 .43100003 .24900003 .43100003 C .274 .43100003 .324 .42400003 .33900006 .38500003 Z "/>
</symbol>
<use xlink:href="#font_0_1" transform="matrix(9.9626,0,0,-9.9626,251.32306,56.709589)"/>
<symbol id="font_1_1">
<path d="M .57600006 0 C .59300008 0 .611 0 .611 .019999996 C .611 .040000008 .59300008 .040000008 .57600006 .040000008 L .035000005 .040000008 C .018 .040000008 0 .040000008 0 .019999996 C 0 0 .018 0 .035000005 0 L .57600006 0 Z "/>
</symbol>
<symbol id="font_1_2">
<path d="M .77900007 .24100001 C .72400006 .19900002 .697 .158 .689 .14500001 C .64400008 .076000008 .63600006 .013000001 .63600006 .012000001 C .63600006 0 .648 0 .656 0 C .67300006 0 .674 .0020000004 .67800006 .020000002 C .70100006 .11800001 .76000007 .20200002 .873 .24800003 C .88500007 .252 .888 .254 .888 .261 C .888 .268 .882 .27100004 .88000008 .272 C .836 .28900004 .71500006 .33900003 .67700007 .507 C .674 .519 .67300006 .522 .656 .522 C .648 .522 .63600006 .522 .63600006 .51 C .63600006 .508 .64500007 .44500003 .68700006 .37800003 C .707 .34800003 .736 .31300003 .77900007 .28100003 L .036000004 .28100003 C .018000003 .28100003 0 .28100003 0 .261 C 0 .24100001 .018000003 .24100001 .036000004 .24100001 L .77900007 .24100001 Z "/>
</symbol>
<use xlink:href="#font_1_1" transform="matrix(19.9252,0,0,-19.9252,113.759799,70.5352)"/>
<use xlink:href="#font_1_2" transform="matrix(19.9252,0,0,-19.9252,125.376178,75.33717)"/>
</svg>
