<?xml version="1.0" encoding="UTF-8" standalone="no"?>
<!DOCTYPE svg PUBLIC "-//W3C//DTD SVG 1.1//EN" "http://www.w3.org/Graphics/SVG/1.1/DTD/svg11.dtd">
<svg xmlns="http://www.w3.org/2000/svg" xmlns:xlink="http://www.w3.org/1999/xlink" version="1.1" width="114.581pt" height="126.674pt" viewBox="0 0 114.581 126.674">
<path transform="matrix(1,0,0,-1,57.291,14.078003)" stroke-width="1.19553" stroke-linecap="butt" stroke-miterlimit="10" stroke-linejoin="miter" fill="none" stroke="#000080" d="M 28.3468 0 L 22.93315 8.33066 L 8.75974 13.4796 L -8.75974 13.4796 L -22.93315 8.33066 L -28.3468 0 L -22.93315 -8.33066 L -8.75974 -13.4796 L 8.75974 -13.4796 L 22.93315 -8.33066 L 28.3468 0 "/>
<path transform="matrix(1,0,0,-1,57.291,14.078003)" stroke-width="1.19553" stroke-linecap="butt" stroke-miterlimit="10" stroke-linejoin="miter" fill="none" stroke="#000080" d="M 56.69362 -85.04042 L 45.8663 -68.37862 L 17.5195 -58.08075 L -17.5195 -58.08075 L -45.8663 -68.37862 L -56.69362 -85.04042 L -45.8663 -101.70221 L -17.5195 -112.00008 L 17.5195 -112.00008 L 45.8663 -101.70221 L 56.69362 -85.04042 "/>
<path transform="matrix(1,0,0,-1,57.291,14.078003)" stroke-width="1.19553" stroke-linecap="butt" stroke-miterlimit="10" stroke-linejoin="miter" fill="none" stroke="#000080" d="M 28.3468 0 L 56.69362 -85.04042 "/>
<path transform="matrix(1,0,0,-1,57.291,14.078003)" stroke-width="1.19553" stroke-linecap="butt" stroke-miterlimit="10" stroke-linejoin="miter" fill="none" stroke="#000080" d="M 22.93315 8.33066 L 45.8663 -68.37862 "/>
<path transform="matrix(1,0,0,-1,57.291,14.078003)" stroke-width="1.19553" stroke-linecap="butt" stroke-miterlimit="10" stroke-linejoin="miter" fill="none" stroke="#000080" d="M 8.75974 13.4796 L 17.5195 -58.08075 "/>
<path transform="matrix(1,0,0,-1,57.291,14.078003)" stroke-width="1.19553" stroke-linecap="butt" stroke-miterlimit="10" stroke-linejoin="miter" fill="none" stroke="#000080" d="M -8.75974 13.4796 L -17.5195 -58.08075 "/>
<path transform="matrix(1,0,0,-1,57.291,14.078003)" stroke-width="1.19553" stroke-linecap="butt" stroke-miterlimit="10" stroke-linejoin="miter" fill="none" stroke="#000080" d="M -22.93315 8.33066 L -45.8663 -68.37862 "/>
<path transform="matrix(1,0,0,-1,57.291,14.078003)" stroke-width="1.19553" stroke-linecap="butt" stroke-miterlimit="10" stroke-linejoin="miter" fill="none" stroke="#000080" d="M -28.3468 0 L -56.69362 -85.04042 "/>
<path transform="matrix(1,0,0,-1,57.291,14.078003)" stroke-width="1.19553" stroke-linecap="butt" stroke-miterlimit="10" stroke-linejoin="miter" fill="none" stroke="#000080" d="M -22.93315 -8.33066 L -45.8663 -101.70221 "/>
<path transform="matrix(1,0,0,-1,57.291,14.078003)" stroke-width="1.19553" stroke-linecap="butt" stroke-miterlimit="10" stroke-linejoin="miter" fill="none" stroke="#000080" d="M -8.75974 -13.4796 L -17.5195 -112.00008 "/>
<path transform="matrix(1,0,0,-1,57.291,14.078003)" stroke-width="1.19553" stroke-linecap="butt" stroke-miterlimit="10" stroke-linejoin="miter" fill="none" stroke="#000080" d="M 8.75974 -13.4796 L 17.5195 -112.00008 "/>
<path transform="matrix(1,0,0,-1,57.291,14.078003)" stroke-width="1.19553" stroke-linecap="butt" stroke-miterlimit="10" stroke-linejoin="miter" fill="none" stroke="#000080" d="M 22.93315 -8.33066 L 45.8663 -101.70221 "/>
<path transform="matrix(1,0,0,-1,57.291,14.078003)" stroke-width="1.19553" stroke-linecap="butt" stroke-miterlimit="10" stroke-linejoin="miter" fill="none" stroke="#000080" d="M 28.3468 0 L 56.69362 -85.04042 "/>
</svg>
