<?xml version="1.0" encoding="UTF-8" standalone="no"?>
<!DOCTYPE svg PUBLIC "-//W3C//DTD SVG 1.1//EN" "http://www.w3.org/Graphics/SVG/1.1/DTD/svg11.dtd">
<svg xmlns="http://www.w3.org/2000/svg" xmlns:xlink="http://www.w3.org/1999/xlink" version="1.1" width="220.993pt" height="174.673pt" viewBox="0 0 220.993 174.673">
<path transform="matrix(1,0,0,-1,14.152,174.474)" d="M 48.56804 112.79488 L 52.61528 113.57693 L 56.66255 114.47192 L 60.70982 115.47241 L 64.7571 116.57072 L 68.80435 117.75935 L 72.85162 119.0309 L 76.8989 120.37787 L 80.94617 121.7925 L 84.99344 123.26749 L 89.0407 124.79514 L 93.08797 126.3679 L 97.13524 127.97844 L 101.18251 129.61907 L 105.22977 131.28229 L 109.27704 132.96054 L 113.32431 134.64641 L 117.37158 136.3322 L 121.41885 138.01056 L 125.46611 139.67377 L 129.51338 141.31444 L 133.56064 142.92496 L 137.60791 144.49774 L 141.65517 146.0255 L 145.70244 147.5004 L 145.70244 8.6771 L 141.65517 10.152 L 137.60791 11.67975 L 133.56064 13.25253 L 129.51338 14.86305 L 125.46611 16.50374 L 121.41885 18.16693 L 117.37158 19.84529 L 113.32431 21.53108 L 109.27704 23.21695 L 105.22977 24.8952 L 101.18251 26.55843 L 97.13524 28.19905 L 93.08797 29.80959 L 89.0407 31.38237 L 84.99344 32.91 L 80.94617 34.385 L 76.8989 35.79964 L 72.85162 37.14659 L 68.80435 38.41814 L 64.7571 39.60677 L 60.70982 40.70508 L 56.66255 41.70557 L 52.61528 42.60056 L 48.56804 43.38264 Z " fill="#cccce6"/>
<path transform="matrix(1,0,0,-1,14.152,174.474)" d="M 38.85443 78.08876 L 39.05063 85.02928 L 39.24683 87.8538 L 39.44304 89.98672 L 39.63925 91.75554 L 39.83546 93.28809 L 40.03168 94.65004 L 40.22789 95.88025 L 40.4241 97.00507 L 40.62032 98.04196 L 40.81653 99.00414 L 41.01274 99.9014 L 41.20895 100.74153 L 41.40517 101.53064 L 41.60138 102.27371 L 41.79758 102.97491 L 41.99379 103.63763 L 42.19 104.26485 L 42.38622 104.85901 L 42.58243 105.42229 L 42.77864 105.95659 L 42.97484 106.46349 L 43.17105 106.94449 L 43.36726 107.40082 L 43.56348 107.83366 L 43.75969 108.244 L 43.9559 108.6327 L 44.15211 109.00069 L 44.34833 109.34856 L 44.54453 109.67711 L 44.74074 109.98682 L 44.93695 110.27832 L 45.13316 110.55206 L 45.32938 110.80849 L 45.52559 111.04803 L 45.7218 111.27104 L 45.91801 111.47783 L 46.11423 111.66873 L 46.31044 111.844 L 46.50664 112.00383 L 46.70285 112.14851 L 46.89906 112.27824 L 47.09528 112.39314 L 47.29147 112.49336 L 47.48769 112.57906 L 47.6839 112.6503 L 47.88011 112.7072 L 48.07632 112.74985 L 48.27254 112.77829 L 48.46875 112.79254 L 48.66496 112.7926 L 48.86118 112.77853 L 49.05739 112.75027 L 49.2536 112.70781 L 49.44981 112.65106 L 49.64603 112.57996 L 49.84224 112.49443 L 50.03842 112.39441 L 50.23463 112.27971 L 50.43085 112.15018 L 50.62706 112.00566 L 50.82327 111.84598 L 51.01949 111.67093 L 51.2157 111.4802 L 51.41191 111.2736 L 51.60812 111.0508 L 51.80434 110.81145 L 52.00055 110.55524 L 52.19676 110.2817 L 52.39297 109.99045 L 52.58919 109.6809 L 52.78539 109.35262 L 52.9816 109.00496 L 53.17781 108.6372 L 53.37402 108.24875 L 53.57024 107.8387 L 53.76643 107.40613 L 53.96265 106.95007 L 54.15886 106.46938 L 54.35507 105.9628 L 54.55128 105.42885 L 54.7475 104.86595 L 54.94371 104.27211 L 55.13992 103.64532 L 55.33614 102.98303 L 55.53233 102.28232 L 55.72855 101.5398 L 55.92476 100.75125 L 56.12097 99.9118 L 56.31718 99.01521 L 56.5134 98.05385 L 56.70961 97.01791 L 56.90582 95.89426 L 57.10204 94.66544 L 57.29823 93.30525 L 57.49445 91.77513 L 57.69066 90.0096 L 57.88687 87.88228 L 58.08308 85.06998 L 58.27928 78.8506 L 58.27928 77.32689 L 58.08308 71.10751 L 57.88687 68.29521 L 57.69066 66.1679 L 57.49445 64.40237 L 57.29823 62.87224 L 57.10204 61.51205 L 56.90582 60.28323 L 56.70961 59.15959 L 56.5134 58.12364 L 56.31718 57.1623 L 56.12097 56.26569 L 55.92476 55.42624 L 55.72855 54.6377 L 55.53233 53.89517 L 55.33614 53.19447 L 55.13992 52.53218 L 54.94371 51.90538 L 54.7475 51.31155 L 54.55128 50.74866 L 54.35507 50.21469 L 54.15886 49.70811 L 53.96265 49.22742 L 53.76643 48.77136 L 53.57024 48.3388 L 53.37402 47.92874 L 53.17781 47.54028 L 52.9816 47.17253 L 52.78539 46.82489 L 52.58919 46.4966 L 52.39297 46.18706 L 52.19676 45.8958 L 52.00055 45.62225 L 51.80434 45.36604 L 51.60812 45.1267 L 51.41191 44.90388 L 51.2157 44.69731 L 51.01949 44.50656 L 50.82327 44.33151 L 50.62706 44.17183 L 50.43085 44.02733 L 50.23463 43.89778 L 50.03842 43.7831 L 49.84224 43.68306 L 49.64603 43.59753 L 49.44981 43.52643 L 49.2536 43.46968 L 49.05739 43.42723 L 48.86118 43.39897 L 48.66496 43.38489 L 48.46875 43.38495 L 48.27254 43.39922 L 48.07632 43.42766 L 47.88011 43.47029 L 47.6839 43.52719 L 47.48769 43.59845 L 47.29147 43.68414 L 47.09528 43.78435 L 46.89906 43.89925 L 46.70285 44.02898 L 46.50664 44.17366 L 46.31044 44.33351 L 46.11423 44.50877 L 45.91801 44.69966 L 45.7218 44.90645 L 45.52559 45.12947 L 45.32938 45.369 L 45.13316 45.62543 L 44.93695 45.89917 L 44.74074 46.19067 L 44.54453 46.50038 L 44.34833 46.82895 L 44.15211 47.1768 L 43.9559 47.54478 L 43.75969 47.93349 L 43.56348 48.34384 L 43.36726 48.77669 L 43.17105 49.23302 L 42.97484 49.714 L 42.77864 50.2209 L 42.58243 50.7552 L 42.38622 51.31848 L 42.19 51.91264 L 41.99379 52.53986 L 41.79758 53.20259 L 41.60138 53.90378 L 41.40517 54.64685 L 41.20895 55.43597 L 41.01274 56.2761 L 40.81653 57.17336 L 40.62032 58.13553 L 40.4241 59.17242 L 40.22789 60.29724 L 40.03168 61.52747 L 39.83546 62.8894 L 39.63925 64.42195 L 39.44304 66.19078 L 39.24683 68.32368 L 39.05063 71.14821 L 38.85443 78.08876 Z " fill="#cccce6"/>
<path transform="matrix(1,0,0,-1,14.152,174.474)" d="M 135.99051 78.26825 L 136.1867 91.97093 L 136.38292 97.61932 L 136.57913 101.88492 L 136.77535 105.42242 L 136.97156 108.48743 L 137.16776 111.21123 L 137.36397 113.6721 L 137.56018 115.92168 L 137.7564 117.99545 L 137.9526 119.91982 L 138.14882 121.7143 L 138.34503 123.39456 L 138.54125 124.97281 L 138.73746 126.45888 L 138.93366 127.86128 L 139.12987 129.18666 L 139.32608 130.4411 L 139.5223 131.62943 L 139.7185 132.75597 L 139.91472 133.82537 L 140.11093 134.83919 L 140.30715 135.80118 L 140.50336 136.71387 L 140.69957 137.57955 L 140.89577 138.4002 L 141.09198 139.17766 L 141.2882 139.91359 L 141.4844 140.60939 L 141.6806 141.26645 L 141.87682 141.88593 L 142.07303 142.4689 L 142.26924 143.01642 L 142.46546 143.52925 L 142.66167 144.00835 L 142.85788 144.45435 L 143.0541 144.86795 L 143.2503 145.24973 L 143.44652 145.60022 L 143.64273 145.91997 L 143.83895 146.20932 L 144.03516 146.46877 L 144.23137 146.69852 L 144.42755 146.89897 L 144.62377 147.07035 L 144.81998 147.21285 L 145.01619 147.32668 L 145.2124 147.412 L 145.40862 147.46884 L 145.60483 147.49736 L 145.80104 147.49752 L 145.99726 147.46938 L 146.19347 147.41283 L 146.38968 147.32788 L 146.58589 147.21439 L 146.7821 147.07222 L 146.97832 146.9012 L 147.17452 146.7011 L 147.37073 146.47167 L 147.56694 146.2126 L 147.76316 145.9236 L 147.95935 145.60422 L 148.15557 145.25409 L 148.35178 144.87268 L 148.54799 144.4595 L 148.7442 144.01387 L 148.94042 143.53519 L 149.13663 143.02274 L 149.33284 142.47565 L 149.52906 141.8931 L 149.72527 141.27407 L 149.92147 140.61748 L 150.11768 139.92212 L 150.31389 139.18668 L 150.5101 138.40969 L 150.70632 137.58959 L 150.90253 136.7245 L 151.09874 135.81235 L 151.29496 134.85097 L 151.49117 133.83779 L 151.68737 132.76906 L 151.88358 131.64327 L 152.07979 130.45566 L 152.276 129.20206 L 152.47222 127.87752 L 152.66841 126.4761 L 152.86463 124.99104 L 153.06084 123.41394 L 153.25705 121.73508 L 153.45326 119.94193 L 153.64948 118.01926 L 153.84569 115.9474 L 154.0419 113.70012 L 154.23812 111.24199 L 154.43433 108.52174 L 154.63054 105.46161 L 154.82675 101.93068 L 155.02297 97.67628 L 155.21916 92.0523 L 155.41536 79.623 L 155.41536 76.55449 L 155.21916 64.12518 L 155.02297 58.5012 L 154.82675 54.24681 L 154.63054 50.7159 L 154.43433 47.65575 L 154.23812 44.9355 L 154.0419 42.47737 L 153.84569 40.2301 L 153.64948 38.15823 L 153.45326 36.23557 L 153.25705 34.44241 L 153.06084 32.76355 L 152.86463 31.18646 L 152.66841 29.70139 L 152.47222 28.29997 L 152.276 26.97543 L 152.07979 25.72183 L 151.88358 24.53424 L 151.68737 23.40843 L 151.49117 22.3397 L 151.29496 21.32652 L 151.09874 20.36514 L 150.90253 19.45299 L 150.70632 18.5879 L 150.5101 17.7678 L 150.31389 16.99081 L 150.11768 16.25537 L 149.92147 15.56003 L 149.72527 14.90343 L 149.52906 14.2844 L 149.33284 13.70186 L 149.13663 13.15477 L 148.94042 12.6423 L 148.7442 12.16362 L 148.54799 11.718 L 148.35178 11.30481 L 148.15557 10.9234 L 147.95935 10.57327 L 147.76316 10.25389 L 147.56694 9.96489 L 147.37073 9.70583 L 147.17452 9.47641 L 146.97832 9.2763 L 146.7821 9.10529 L 146.58589 8.9631 L 146.38968 8.84961 L 146.19347 8.76466 L 145.99726 8.70813 L 145.80104 8.68 L 145.60483 8.68015 L 145.40862 8.70866 L 145.2124 8.7655 L 145.01619 8.85081 L 144.81998 8.96465 L 144.62377 9.10715 L 144.42755 9.27852 L 144.23137 9.47897 L 144.03516 9.70874 L 143.83895 9.96817 L 143.64273 10.25752 L 143.44652 10.57727 L 143.2503 10.92776 L 143.0541 11.30956 L 142.85788 11.72314 L 142.66167 12.16914 L 142.46546 12.64824 L 142.26924 13.16107 L 142.07303 13.70859 L 141.87682 14.29156 L 141.6806 14.91106 L 141.4844 15.56812 L 141.2882 16.2639 L 141.09198 16.99983 L 140.89577 17.7773 L 140.69957 18.59796 L 140.50336 19.46364 L 140.30715 20.37631 L 140.11093 21.3383 L 139.91472 22.35213 L 139.7185 23.42152 L 139.5223 24.54807 L 139.32608 25.73639 L 139.12987 26.99083 L 138.93366 28.31622 L 138.73746 29.71861 L 138.54125 31.20468 L 138.34503 32.78294 L 138.14882 34.4632 L 137.9526 36.25769 L 137.7564 38.18204 L 137.56018 40.25581 L 137.36397 42.50539 L 137.16776 44.96628 L 136.97156 47.69008 L 136.77535 50.75507 L 136.57913 54.29259 L 136.38292 58.55817 L 136.1867 64.20657 L 135.99051 77.90926 Z " fill="#e0e0f0"/>
<path transform="matrix(1,0,0,-1,14.152,174.474)" stroke-width="1.19553" stroke-linecap="butt" stroke-miterlimit="10" stroke-linejoin="miter" fill="none" stroke="#000080" d="M 0 114.96399 C 0 114.96399 5.84839 113.32437 8.09462 112.84506 C 10.34085 112.36577 13.94304 111.77971 16.18927 111.50943 C 18.43549 111.23914 22.03767 110.97498 24.2839 110.89697 C 26.53014 110.81895 30.13231 110.8496 32.37854 110.9471 C 34.62476 111.0446 38.22694 111.34343 40.47318 111.5998 C 42.7194 111.85617 46.3216 112.39635 48.56783 112.79485 C 50.81406 113.19333 54.41623 113.94803 56.66246 114.47192 C 58.90869 114.99582 62.51086 115.93817 64.7571 116.57072 C 67.00333 117.20328 70.6055 118.3065 72.85173 119.031 C 75.09796 119.75552 78.70015 120.99283 80.94638 121.79259 C 83.19261 122.59235 86.79477 123.93686 89.041 124.79515 C 91.28723 125.65343 94.88942 127.07852 97.13565 127.97862 C 99.38188 128.87873 102.98405 130.35726 105.23029 131.28243 C 107.47652 132.20758 111.0787 133.71306 113.32494 134.64659 C 115.57117 135.58013 119.17334 137.08559 121.41956 138.01078 C 123.66579 138.93596 127.26797 140.41468 129.5142 141.31479 C 131.76044 142.21489 135.36263 143.63988 137.60884 144.49817 C 139.85507 145.35646 143.45726 146.70102 145.70349 147.50078 C 147.94972 148.30054 151.5519 149.53792 153.79813 150.26236 C 156.04434 150.98682 159.64653 152.08953 161.89276 152.72216 C 164.13899 153.35478 167.74118 154.298 169.98741 154.82196 C 172.23363 155.3459 175.8358 156.09999 178.08203 156.49846 C 180.32826 156.89694 183.93045 157.43747 186.17668 157.69393 C 188.4229 157.9504 194.27132 158.34685 194.27132 158.34685 "/>
<path transform="matrix(1,0,0,-1,14.152,174.474)" stroke-width="1.19553" stroke-linecap="butt" stroke-miterlimit="10" stroke-linejoin="miter" fill="none" stroke="#800000" d="M 48.56804 112.79488 C 48.56804 112.79488 51.49219 113.34425 52.61528 113.57693 C 53.73837 113.80962 55.53946 114.20894 56.66255 114.47192 C 57.78564 114.73491 59.58673 115.18121 60.70982 115.47241 C 61.83292 115.76361 63.634 116.25343 64.7571 116.57072 C 65.88019 116.88802 67.68127 117.418 68.80435 117.75935 C 69.92744 118.1007 71.72853 118.66759 72.85162 119.0309 C 73.97472 119.39421 75.7758 119.9947 76.8989 120.37787 C 78.02199 120.76102 79.82307 121.39157 80.94617 121.7925 C 82.06926 122.19342 83.87035 122.85089 84.99344 123.26749 C 86.11653 123.68408 87.9176 124.36496 89.0407 124.79514 C 90.16379 125.2253 91.96487 125.92624 93.08797 126.3679 C 94.21106 126.80959 96.01215 127.52736 97.13524 127.97844 C 98.25833 128.42954 100.05942 129.16068 101.18251 129.61907 C 102.3056 130.07747 104.10669 130.81867 105.22977 131.28229 C 106.35286 131.7459 108.15395 132.49378 109.27704 132.96054 C 110.40013 133.4273 112.20122 134.1786 113.32431 134.64641 C 114.4474 135.11421 116.24849 135.86544 117.37158 136.3322 C 118.49467 136.79897 120.29576 137.54694 121.41885 138.01056 C 122.54195 138.4742 124.34302 139.21537 125.46611 139.67377 C 126.5892 140.13216 128.39029 140.86334 129.51338 141.31444 C 130.63648 141.76552 132.43755 142.48329 133.56064 142.92496 C 134.68373 143.36664 136.48482 144.06757 137.60791 144.49774 C 138.731 144.92794 140.53209 145.60889 141.65517 146.0255 C 142.77826 146.44211 145.70244 147.5004 145.70244 147.5004 "/>
<path transform="matrix(1,0,0,-1,14.152,174.474)" stroke-width="1.19553" stroke-linecap="butt" stroke-miterlimit="10" stroke-linejoin="miter" fill="none" stroke="#800000" d="M 48.56804 43.38264 C 48.56804 43.38264 51.49219 42.83324 52.61528 42.60056 C 53.73837 42.36787 55.53946 41.96855 56.66255 41.70557 C 57.78564 41.4426 59.58673 40.99628 60.70982 40.70508 C 61.83292 40.4139 63.634 39.92407 64.7571 39.60677 C 65.88019 39.28947 67.68127 38.75949 68.80435 38.41814 C 69.92744 38.0768 71.72853 37.5099 72.85162 37.14659 C 73.97472 36.78328 75.7758 36.18279 76.8989 35.79964 C 78.02199 35.41649 79.82307 34.78592 80.94617 34.385 C 82.06926 33.98407 83.87035 33.3266 84.99344 32.91 C 86.11653 32.49341 87.9176 31.81253 89.0407 31.38237 C 90.16379 30.9522 91.96487 30.25127 93.08797 29.80959 C 94.21106 29.3679 96.01215 28.65015 97.13524 28.19905 C 98.25833 27.74797 100.05942 27.01683 101.18251 26.55843 C 102.3056 26.10002 104.10669 25.35883 105.22977 24.8952 C 106.35286 24.4316 108.15395 23.68372 109.27704 23.21695 C 110.40013 22.7502 112.20122 21.9989 113.32431 21.53108 C 114.4474 21.06328 116.24849 20.31206 117.37158 19.84529 C 118.49467 19.37852 120.29576 18.63057 121.41885 18.16693 C 122.54195 17.70331 124.34302 16.96213 125.46611 16.50374 C 126.5892 16.04533 128.39029 15.31415 129.51338 14.86305 C 130.63648 14.41197 132.43755 13.69421 133.56064 13.25253 C 134.68373 12.81085 136.48482 12.10994 137.60791 11.67975 C 138.731 11.24956 140.53209 10.5686 141.65517 10.152 C 142.77826 9.73538 145.70244 8.6771 145.70244 8.6771 "/>
<path transform="matrix(1,0,0,-1,14.152,174.474)" stroke-width="1.19553" stroke-linecap="butt" stroke-miterlimit="10" stroke-linejoin="miter" fill="none" stroke="#800000" d="M 135.99051 78.26825 C 135.99051 78.26825 136.13227 89.28601 136.1867 91.97093 C 136.24114 94.65584 136.32848 96.24379 136.38292 97.61932 C 136.43735 98.99486 136.52469 100.80226 136.57913 101.88492 C 136.63356 102.96758 136.7209 104.50636 136.77535 105.42242 C 136.82978 106.3385 136.91712 107.68423 136.97156 108.48743 C 137.02599 109.2906 137.11333 110.49187 137.16776 111.21123 C 137.2222 111.93057 137.30954 113.01854 137.36397 113.6721 C 137.41841 114.32567 137.50576 115.32182 137.56018 115.92168 C 137.61463 116.52153 137.70197 117.44073 137.7564 117.99545 C 137.81084 118.55017 137.89818 119.40384 137.9526 119.91982 C 138.00705 120.43578 138.09439 121.2322 138.14882 121.7143 C 138.20326 122.1964 138.29059 122.94244 138.34503 123.39456 C 138.39948 123.84666 138.4868 124.54764 138.54125 124.97281 C 138.59569 125.39798 138.68302 126.05812 138.73746 126.45888 C 138.7919 126.85963 138.87921 127.4828 138.93366 127.86128 C 138.9881 128.23975 139.07543 128.82874 139.12987 129.18666 C 139.18431 129.54459 139.27164 130.10218 139.32608 130.4411 C 139.38053 130.78003 139.46785 131.30826 139.5223 131.62943 C 139.57674 131.95059 139.66407 132.4513 139.7185 132.75597 C 139.77294 133.06064 139.86028 133.53633 139.91472 133.82537 C 139.96915 134.1144 140.05649 134.56505 140.11093 134.83919 C 140.16536 135.11333 140.2527 135.54108 140.30715 135.80118 C 140.36157 136.06128 140.44892 136.46712 140.50336 136.71387 C 140.55779 136.9606 140.64513 137.34557 140.69957 137.57955 C 140.754 137.8135 140.84134 138.17847 140.89577 138.4002 C 140.95021 138.62194 141.03755 138.9677 141.09198 139.17766 C 141.14643 139.38764 141.23377 139.71495 141.2882 139.91359 C 141.34264 140.11223 141.42998 140.42169 141.4844 140.60939 C 141.53885 140.79709 141.62618 141.08934 141.6806 141.26645 C 141.73505 141.44355 141.82239 141.7191 141.87682 141.88593 C 141.93126 142.05275 142.01859 142.31206 142.07303 142.4689 C 142.12747 142.62577 142.2148 142.86931 142.26924 143.01642 C 142.32369 143.16353 142.41101 143.39163 142.46546 143.52925 C 142.5199 143.66689 142.60723 143.88 142.66167 144.00835 C 142.71611 144.1367 142.80344 144.33509 142.85788 144.45435 C 142.91233 144.57361 142.99965 144.7576 143.0541 144.86795 C 143.10854 144.9783 143.19586 145.14813 143.2503 145.24973 C 143.30474 145.35132 143.39208 145.50724 143.44652 145.60022 C 143.50095 145.69322 143.58829 145.83547 143.64273 145.91997 C 143.69716 146.00447 143.7845 146.1332 143.83895 146.20932 C 143.89337 146.28545 143.98072 146.4009 144.03516 146.46877 C 144.08959 146.53662 144.17693 146.63884 144.23137 146.69852 C 144.2858 146.75821 144.37313 146.8474 144.42755 146.89897 C 144.482 146.95056 144.56934 147.02681 144.62377 147.07035 C 144.6782 147.11389 144.76555 147.17729 144.81998 147.21285 C 144.87442 147.24842 144.96176 147.29906 145.01619 147.32668 C 145.07064 147.35431 145.15798 147.39228 145.2124 147.412 C 145.26685 147.43172 145.35419 147.457 145.40862 147.46884 C 145.46306 147.48069 145.55039 147.4934 145.60483 147.49736 C 145.65927 147.50133 145.7466 147.50139 145.80104 147.49752 C 145.85549 147.49364 145.94281 147.48111 145.99726 147.46938 C 146.0517 147.45763 146.13903 147.43247 146.19347 147.41283 C 146.24791 147.3932 146.33524 147.35541 146.38968 147.32788 C 146.44412 147.30036 146.53145 147.24985 146.58589 147.21439 C 146.64034 147.17893 146.72766 147.11566 146.7821 147.07222 C 146.83654 147.02877 146.92388 146.95269 146.97832 146.9012 C 147.03275 146.8497 147.12007 146.76068 147.17452 146.7011 C 147.22895 146.6415 147.31629 146.53943 147.37073 146.47167 C 147.42516 146.40389 147.5125 146.28865 147.56694 146.2126 C 147.62137 146.13657 147.70871 146.008 147.76316 145.9236 C 147.81758 145.8392 147.90493 145.69712 147.95935 145.60422 C 148.0138 145.51134 148.10114 145.35558 148.15557 145.25409 C 148.21 145.1526 148.29735 144.98293 148.35178 144.87268 C 148.40622 144.76244 148.49356 144.57865 148.54799 144.4595 C 148.60243 144.34035 148.68978 144.1421 148.7442 144.01387 C 148.79865 143.88562 148.88599 143.6727 148.94042 143.53519 C 148.99486 143.39768 149.0822 143.16974 149.13663 143.02274 C 149.19107 142.87574 149.2784 142.63237 149.33284 142.47565 C 149.38729 142.31891 149.47461 142.0598 149.52906 141.8931 C 149.5835 141.7264 149.67082 141.45104 149.72527 141.27407 C 149.77971 141.09708 149.86702 140.80506 149.92147 140.61748 C 149.9759 140.4299 150.06324 140.12062 150.11768 139.92212 C 150.17212 139.72362 150.25945 139.39652 150.31389 139.18668 C 150.36833 138.97684 150.45566 138.63127 150.5101 138.40969 C 150.56453 138.18811 150.65187 137.8234 150.70632 137.58959 C 150.76074 137.35578 150.84809 136.97109 150.90253 136.7245 C 150.95696 136.47792 151.0443 136.0723 151.09874 135.81235 C 151.15317 135.55242 151.24051 135.12493 151.29496 134.85097 C 151.34938 134.57701 151.43672 134.12664 151.49117 133.83779 C 151.5456 133.54894 151.63294 133.07353 151.68737 132.76906 C 151.7418 132.46457 151.82915 131.96424 151.88358 131.64327 C 151.93802 131.32228 152.02536 130.79436 152.07979 130.45566 C 152.13423 130.11696 152.22158 129.55977 152.276 129.20206 C 152.33045 128.84436 152.41779 128.25572 152.47222 127.87752 C 152.52666 127.4993 152.61399 126.87659 152.66841 126.4761 C 152.72286 126.07562 152.81018 125.41591 152.86463 124.99104 C 152.91907 124.56618 153.0064 123.86569 153.06084 123.41394 C 153.11528 122.96219 153.2026 122.2168 153.25705 121.73508 C 153.3115 121.25336 153.39882 120.45749 153.45326 119.94193 C 153.5077 119.42638 153.59503 118.57349 153.64948 118.01926 C 153.70392 117.46503 153.79125 116.54666 153.84569 115.9474 C 153.90013 115.34813 153.98746 114.35298 154.0419 113.70012 C 154.09633 113.04726 154.18367 111.96046 154.23812 111.24199 C 154.29254 110.52351 154.37989 109.32376 154.43433 108.52174 C 154.48876 107.71974 154.5761 106.3761 154.63054 105.46161 C 154.68497 104.54712 154.77231 103.01088 154.82675 101.93068 C 154.88118 100.8505 154.96852 99.04689 155.02297 97.67628 C 155.0774 96.3057 155.16474 94.55716 155.21916 92.0523 C 155.2736 89.54744 155.41536 79.623 155.41536 79.623 "/>
<path transform="matrix(1,0,0,-1,14.152,174.474)" stroke-width="1.19553" stroke-linecap="butt" stroke-miterlimit="10" stroke-linejoin="miter" fill="none" stroke="#800000" d="M 135.99051 77.90926 C 135.99051 77.90926 136.13227 66.89148 136.1867 64.20657 C 136.24114 61.52165 136.32848 59.9337 136.38292 58.55817 C 136.43735 57.18263 136.52469 55.37523 136.57913 54.29259 C 136.63356 53.20993 136.7209 51.67114 136.77535 50.75507 C 136.82978 49.83899 136.91712 48.49326 136.97156 47.69008 C 137.02599 46.88689 137.11333 45.68564 137.16776 44.96628 C 137.2222 44.24692 137.30954 43.15895 137.36397 42.50539 C 137.41841 41.85182 137.50576 40.85567 137.56018 40.25581 C 137.61463 39.65596 137.70197 38.73676 137.7564 38.18204 C 137.81084 37.62732 137.89818 36.77365 137.9526 36.25769 C 138.00705 35.74171 138.09439 34.9453 138.14882 34.4632 C 138.20326 33.9811 138.29059 33.23505 138.34503 32.78294 C 138.39948 32.33083 138.4868 31.62985 138.54125 31.20468 C 138.59569 30.77951 138.68302 30.11937 138.73746 29.71861 C 138.7919 29.31786 138.87921 28.69469 138.93366 28.31622 C 138.9881 27.93774 139.07543 27.34875 139.12987 26.99083 C 139.18431 26.6329 139.27164 26.07532 139.32608 25.73639 C 139.38053 25.39746 139.46785 24.86925 139.5223 24.54807 C 139.57674 24.2269 139.66407 23.72621 139.7185 23.42152 C 139.77294 23.11685 139.86028 22.64116 139.91472 22.35213 C 139.96915 22.0631 140.05649 21.61244 140.11093 21.3383 C 140.16536 21.06418 140.2527 20.63641 140.30715 20.37631 C 140.36157 20.11621 140.44892 19.71037 140.50336 19.46364 C 140.55779 19.21689 140.64513 18.83192 140.69957 18.59796 C 140.754 18.36398 140.84134 17.99902 140.89577 17.7773 C 140.95021 17.55556 141.03755 17.20981 141.09198 16.99983 C 141.14643 16.78986 141.23377 16.46255 141.2882 16.2639 C 141.34264 16.06526 141.42998 15.75581 141.4844 15.56812 C 141.53885 15.38042 141.62618 15.08815 141.6806 14.91106 C 141.73505 14.73395 141.82239 14.45839 141.87682 14.29156 C 141.93126 14.12474 142.01859 13.86545 142.07303 13.70859 C 142.12747 13.55174 142.2148 13.30818 142.26924 13.16107 C 142.32369 13.01396 142.41101 12.78586 142.46546 12.64824 C 142.5199 12.51062 142.60723 12.2975 142.66167 12.16914 C 142.71611 12.0408 142.80344 11.8424 142.85788 11.72314 C 142.91233 11.6039 142.99965 11.4199 143.0541 11.30956 C 143.10854 11.1992 143.19586 11.02936 143.2503 10.92776 C 143.30474 10.82617 143.39208 10.67026 143.44652 10.57727 C 143.50095 10.48428 143.58829 10.34204 143.64273 10.25752 C 143.69716 10.17302 143.7845 10.04431 143.83895 9.96817 C 143.89337 9.89204 143.98072 9.7766 144.03516 9.70874 C 144.08959 9.64087 144.17693 9.53865 144.23137 9.47897 C 144.2858 9.4193 144.37313 9.3301 144.42755 9.27852 C 144.482 9.22694 144.56934 9.15068 144.62377 9.10715 C 144.6782 9.06361 144.76555 9.0002 144.81998 8.96465 C 144.87442 8.9291 144.96176 8.87843 145.01619 8.85081 C 145.07064 8.8232 145.15798 8.78522 145.2124 8.7655 C 145.26685 8.74579 145.35419 8.7205 145.40862 8.70866 C 145.46306 8.69682 145.55039 8.68411 145.60483 8.68015 C 145.65927 8.67618 145.7466 8.67612 145.80104 8.68 C 145.85549 8.68387 145.94281 8.6964 145.99726 8.70813 C 146.0517 8.71986 146.13903 8.74504 146.19347 8.76466 C 146.24791 8.78429 146.33524 8.82208 146.38968 8.84961 C 146.44412 8.87714 146.53145 8.92764 146.58589 8.9631 C 146.64034 8.99858 146.72766 9.06183 146.7821 9.10529 C 146.83654 9.14873 146.92388 9.22481 146.97832 9.2763 C 147.03275 9.32779 147.12007 9.41681 147.17452 9.47641 C 147.22895 9.536 147.31629 9.63806 147.37073 9.70583 C 147.42516 9.7736 147.5125 9.88885 147.56694 9.96489 C 147.62137 10.04092 147.70871 10.1695 147.76316 10.25389 C 147.81758 10.3383 147.90493 10.4804 147.95935 10.57327 C 148.0138 10.66615 148.10114 10.82191 148.15557 10.9234 C 148.21 11.02489 148.29735 11.19456 148.35178 11.30481 C 148.40622 11.41505 148.49356 11.59885 148.54799 11.718 C 148.60243 11.83714 148.68978 12.03539 148.7442 12.16362 C 148.79865 12.29187 148.88599 12.50479 148.94042 12.6423 C 148.99486 12.77983 149.0822 13.00777 149.13663 13.15477 C 149.19107 13.30177 149.2784 13.54512 149.33284 13.70186 C 149.38729 13.85858 149.47461 14.11769 149.52906 14.2844 C 149.5835 14.4511 149.67082 14.72646 149.72527 14.90343 C 149.77971 15.08041 149.86702 15.37245 149.92147 15.56003 C 149.9759 15.7476 150.06324 16.05687 150.11768 16.25537 C 150.17212 16.45389 150.25945 16.78099 150.31389 16.99081 C 150.36833 17.20065 150.45566 17.54622 150.5101 17.7678 C 150.56453 17.9894 150.65187 18.3541 150.70632 18.5879 C 150.76074 18.82172 150.84809 19.20642 150.90253 19.45299 C 150.95696 19.69957 151.0443 20.1052 151.09874 20.36514 C 151.15317 20.62508 151.24051 21.05257 151.29496 21.32652 C 151.34938 21.60048 151.43672 22.05086 151.49117 22.3397 C 151.5456 22.62856 151.63294 23.10396 151.68737 23.40843 C 151.7418 23.71292 151.82915 24.21326 151.88358 24.53424 C 151.93802 24.85521 152.02536 25.38313 152.07979 25.72183 C 152.13423 26.06053 152.22158 26.61774 152.276 26.97543 C 152.33045 27.33313 152.41779 27.92177 152.47222 28.29997 C 152.52666 28.67819 152.61399 29.3009 152.66841 29.70139 C 152.72286 30.10187 152.81018 30.7616 152.86463 31.18646 C 152.91907 31.61133 153.0064 32.3118 153.06084 32.76355 C 153.11528 33.21532 153.2026 33.9607 153.25705 34.44241 C 153.3115 34.92413 153.39882 35.72 153.45326 36.23557 C 153.5077 36.75113 153.59503 37.604 153.64948 38.15823 C 153.70392 38.71246 153.79125 39.63083 153.84569 40.2301 C 153.90013 40.82936 153.98746 41.82451 154.0419 42.47737 C 154.09633 43.13023 154.18367 44.21703 154.23812 44.9355 C 154.29254 45.65398 154.37989 46.85373 154.43433 47.65575 C 154.48876 48.45776 154.5761 49.8014 154.63054 50.7159 C 154.68497 51.63039 154.77231 53.16661 154.82675 54.24681 C 154.88118 55.327 154.96852 57.13062 155.02297 58.5012 C 155.0774 59.8718 155.16474 61.62033 155.21916 64.12518 C 155.2736 66.63005 155.41536 76.55449 155.41536 76.55449 "/>
<path transform="matrix(1,0,0,-1,14.152,174.474)" stroke-width="1.19553" stroke-linecap="butt" stroke-miterlimit="10" stroke-linejoin="miter" fill="none" stroke="#800000" d="M 155.41773 74.61815 L 155.41773 81.55937 "/>
<path transform="matrix(1,0,0,-1,14.152,174.474)" stroke-width="1.19553" stroke-linecap="butt" stroke-miterlimit="10" stroke-linejoin="miter" fill="none" stroke="#800000" d="M 38.85443 78.08876 C 38.85443 78.08876 38.92531 82.04585 38.95253 83.00885 C 38.97974 83.97183 39.0234 84.53555 39.05063 85.02928 C 39.07784 85.52301 39.12152 86.1755 39.14874 86.5674 C 39.17595 86.95929 39.21962 87.51932 39.24683 87.8538 C 39.27405 88.1883 39.31773 88.68233 39.34494 88.97827 C 39.37216 89.2742 39.41583 89.71918 39.44304 89.98672 C 39.47026 90.25426 39.51395 90.66112 39.54115 90.90652 C 39.56837 91.15195 39.61205 91.52802 39.63925 91.75554 C 39.66647 91.98308 39.71016 92.33377 39.73737 92.5464 C 39.76459 92.75903 39.80826 93.08813 39.83546 93.28809 C 39.86269 93.48804 39.90637 93.79857 39.93358 93.98753 C 39.9608 94.1765 40.00447 94.47073 40.03168 94.65004 C 40.0589 94.82933 40.10258 95.10915 40.12979 95.27983 C 40.15701 95.45053 40.20068 95.71725 40.22789 95.88025 C 40.25511 96.04324 40.29878 96.29855 40.32599 96.45462 C 40.35321 96.61067 40.3969 96.85536 40.4241 97.00507 C 40.45131 97.15475 40.495 97.38971 40.5222 97.53355 C 40.54941 97.67741 40.59311 97.90347 40.62032 98.04196 C 40.64752 98.18045 40.69121 98.39824 40.71841 98.53172 C 40.74562 98.6652 40.78932 98.8753 40.81653 99.00414 C 40.84373 99.13298 40.88742 99.3359 40.91463 99.46039 C 40.94183 99.58488 40.98553 99.781 41.01274 99.9014 C 41.03995 100.0218 41.08363 100.21164 41.11084 100.3282 C 41.13805 100.44475 41.18175 100.6286 41.20895 100.74153 C 41.23616 100.85445 41.27985 101.03267 41.30705 101.14217 C 41.33426 101.25165 41.37796 101.42444 41.40517 101.53064 C 41.43237 101.63684 41.47606 101.80455 41.50327 101.90765 C 41.53047 102.01076 41.57416 102.1736 41.60138 102.27371 C 41.62859 102.37384 41.67226 102.53206 41.69948 102.62933 C 41.72668 102.72662 41.77036 102.88036 41.79758 102.97491 C 41.82478 103.06947 41.86847 103.21896 41.89569 103.3109 C 41.9229 103.40285 41.96657 103.5482 41.99379 103.63763 C 42.021 103.72708 42.06468 103.8685 42.0919 103.95552 C 42.11911 104.04253 42.16278 104.18016 42.19 104.26485 C 42.21721 104.34953 42.2609 104.48349 42.28812 104.56592 C 42.31532 104.64835 42.359 104.77876 42.38622 104.85901 C 42.41342 104.93927 42.4571 105.06624 42.48433 105.14438 C 42.51154 105.22253 42.5552 105.34619 42.58243 105.42229 C 42.60963 105.4984 42.65332 105.61884 42.68054 105.69296 C 42.70775 105.76709 42.75142 105.8844 42.77864 105.95659 C 42.80585 106.0288 42.84953 106.14304 42.87674 106.21336 C 42.90396 106.28368 42.94763 106.39499 42.97484 106.46349 C 43.00206 106.532 43.04573 106.64043 43.07294 106.70715 C 43.10016 106.77386 43.14384 106.87949 43.17105 106.94449 C 43.19827 107.00948 43.24194 107.11234 43.26915 107.17564 C 43.29637 107.23894 43.34006 107.33916 43.36726 107.40082 C 43.39449 107.46248 43.43816 107.56007 43.46536 107.62012 C 43.49258 107.68016 43.53627 107.77519 43.56348 107.83366 C 43.5907 107.89212 43.63437 107.98463 43.66158 108.04156 C 43.6888 108.0985 43.73248 108.1886 43.75969 108.244 C 43.78691 108.29942 43.83058 108.38707 43.85779 108.441 C 43.88501 108.49492 43.9287 108.58023 43.9559 108.6327 C 43.98312 108.68518 44.0268 108.7682 44.054 108.81924 C 44.0812 108.8703 44.12491 108.95105 44.15211 109.00069 C 44.17932 109.05032 44.223 109.12883 44.25021 109.17708 C 44.27742 109.22533 44.32112 109.30164 44.34833 109.34856 C 44.37553 109.39546 44.41922 109.46965 44.44643 109.51523 C 44.47363 109.5608 44.51732 109.63286 44.54453 109.67711 C 44.57173 109.72136 44.61543 109.7913 44.64264 109.83427 C 44.66985 109.87723 44.71353 109.94513 44.74074 109.98682 C 44.76794 110.02852 44.81165 110.09438 44.83885 110.13481 C 44.86606 110.17525 44.90974 110.23912 44.93695 110.27832 C 44.96416 110.31752 45.00786 110.37941 45.03506 110.41739 C 45.06227 110.45537 45.10596 110.5153 45.13316 110.55206 C 45.16037 110.58882 45.20406 110.64685 45.23128 110.68242 C 45.25848 110.71799 45.30215 110.77411 45.32938 110.80849 C 45.35658 110.84288 45.40027 110.89713 45.42749 110.93036 C 45.4547 110.9636 45.49837 111.01595 45.52559 111.04803 C 45.5528 111.08011 45.59648 111.13065 45.6237 111.16159 C 45.65091 111.19252 45.69458 111.24123 45.7218 111.27104 C 45.74901 111.30086 45.79268 111.34778 45.8199 111.37646 C 45.8471 111.40515 45.8908 111.45026 45.91801 111.47783 C 45.94522 111.50542 45.98889 111.54878 46.01611 111.57526 C 46.04332 111.60175 46.087 111.64334 46.11423 111.66873 C 46.14143 111.6941 46.1851 111.73398 46.21233 111.75829 C 46.23953 111.7826 46.28322 111.82074 46.31044 111.844 C 46.33765 111.86723 46.38132 111.90366 46.40852 111.92583 C 46.43575 111.94798 46.47943 111.98273 46.50664 112.00383 C 46.53386 112.02495 46.57753 112.05798 46.60474 112.07805 C 46.63196 112.09811 46.67564 112.12949 46.70285 112.14851 C 46.73007 112.16754 46.77374 112.19725 46.80095 112.21526 C 46.82817 112.23325 46.87186 112.26129 46.89906 112.27824 C 46.92628 112.2952 46.96996 112.3216 46.99716 112.33752 C 47.02438 112.35345 47.06807 112.37823 47.09528 112.39314 C 47.1225 112.40805 47.16617 112.43117 47.19337 112.44505 C 47.2206 112.45895 47.26427 112.48047 47.29147 112.49336 C 47.3187 112.50624 47.36238 112.52611 47.38959 112.538 C 47.41681 112.54988 47.46048 112.56816 47.48769 112.57906 C 47.51491 112.58994 47.5586 112.60658 47.5858 112.61646 C 47.61302 112.62634 47.6567 112.64142 47.6839 112.6503 C 47.7111 112.65918 47.7548 112.67264 47.78201 112.68053 C 47.80922 112.68842 47.8529 112.7003 47.88011 112.7072 C 47.90732 112.7141 47.95102 112.7244 47.97823 112.73032 C 48.00543 112.73622 48.04912 112.74492 48.07632 112.74985 C 48.10353 112.75478 48.14723 112.76192 48.17444 112.76585 C 48.20164 112.76979 48.24533 112.77533 48.27254 112.77829 C 48.29974 112.78123 48.34344 112.78519 48.37065 112.78717 C 48.39786 112.78914 48.44154 112.79156 48.46875 112.79254 C 48.49596 112.79353 48.56685 112.79434 48.56685 112.79434 "/>
<path transform="matrix(1,0,0,-1,14.152,174.474)" stroke-width="1.19553" stroke-linecap="butt" stroke-miterlimit="10" stroke-linejoin="miter" fill="none" stroke="#800000" d="M 38.85443 78.08876 C 38.85443 78.08876 38.92531 74.13164 38.95253 73.16866 C 38.97974 72.20566 39.0234 71.64195 39.05063 71.14821 C 39.07784 70.65448 39.12152 70.00198 39.14874 69.61009 C 39.17595 69.2182 39.21962 68.65817 39.24683 68.32368 C 39.27405 67.9892 39.31773 67.49516 39.34494 67.19923 C 39.37216 66.90329 39.41583 66.45831 39.44304 66.19078 C 39.47026 65.92323 39.51395 65.51639 39.54115 65.27097 C 39.56837 65.02554 39.61205 64.64948 39.63925 64.42195 C 39.66647 64.19443 39.71016 63.84372 39.73737 63.63109 C 39.76459 63.41847 39.80826 63.08936 39.83546 62.8894 C 39.86269 62.68945 39.90637 62.37892 39.93358 62.18996 C 39.9608 62.001 40.00447 61.70676 40.03168 61.52747 C 40.0589 61.34818 40.10258 61.06834 40.12979 60.89766 C 40.15701 60.72697 40.20068 60.46024 40.22789 60.29724 C 40.25511 60.13425 40.29878 59.87894 40.32599 59.72289 C 40.35321 59.56682 40.3969 59.32213 40.4241 59.17242 C 40.45131 59.02274 40.495 58.7878 40.5222 58.64394 C 40.54941 58.50008 40.59311 58.27402 40.62032 58.13553 C 40.64752 57.99704 40.69121 57.77927 40.71841 57.64577 C 40.74562 57.51228 40.78932 57.3022 40.81653 57.17336 C 40.84373 57.04453 40.88742 56.84158 40.91463 56.7171 C 40.94183 56.5926 40.98553 56.39648 41.01274 56.2761 C 41.03995 56.15569 41.08363 55.96585 41.11084 55.84929 C 41.13805 55.73274 41.18175 55.54889 41.20895 55.43597 C 41.23616 55.32304 41.27985 55.14482 41.30705 55.03534 C 41.33426 54.92586 41.37796 54.75305 41.40517 54.64685 C 41.43237 54.54065 41.47606 54.37294 41.50327 54.26984 C 41.53047 54.16673 41.57416 54.00389 41.60138 53.90378 C 41.62859 53.80365 41.67226 53.64543 41.69948 53.54816 C 41.72668 53.45088 41.77036 53.29713 41.79758 53.20259 C 41.82478 53.10803 41.86847 52.95853 41.89569 52.8666 C 41.9229 52.77464 41.96657 52.62929 41.99379 52.53986 C 42.021 52.45042 42.06468 52.30899 42.0919 52.22198 C 42.11911 52.13496 42.16278 51.99734 42.19 51.91264 C 42.21721 51.82796 42.2609 51.694 42.28812 51.61157 C 42.31532 51.52914 42.359 51.39873 42.38622 51.31848 C 42.41342 51.23824 42.4571 51.11127 42.48433 51.03311 C 42.51154 50.95496 42.5552 50.8313 42.58243 50.7552 C 42.60963 50.67911 42.65332 50.55865 42.68054 50.48453 C 42.70775 50.4104 42.75142 50.29309 42.77864 50.2209 C 42.80585 50.1487 42.84953 50.03445 42.87674 49.96414 C 42.90396 49.89381 42.94763 49.7825 42.97484 49.714 C 43.00206 49.64551 43.04573 49.53706 43.07294 49.47035 C 43.10016 49.40363 43.14384 49.298 43.17105 49.23302 C 43.19827 49.16803 43.24194 49.06516 43.26915 49.00185 C 43.29637 48.93855 43.34006 48.83833 43.36726 48.77669 C 43.39449 48.71503 43.43816 48.61743 43.46536 48.55737 C 43.49258 48.49733 43.53627 48.4023 43.56348 48.34384 C 43.5907 48.28537 43.63437 48.19286 43.66158 48.13593 C 43.6888 48.079 43.73248 47.98889 43.75969 47.93349 C 43.78691 47.87808 43.83058 47.79042 43.85779 47.7365 C 43.88501 47.68257 43.9287 47.59726 43.9559 47.54478 C 43.98312 47.49231 44.0268 47.40929 44.054 47.35825 C 44.0812 47.30719 44.12491 47.22644 44.15211 47.1768 C 44.17932 47.12717 44.223 47.04868 44.25021 47.00043 C 44.27742 46.95216 44.32112 46.87585 44.34833 46.82895 C 44.37553 46.78203 44.41922 46.70784 44.44643 46.66226 C 44.47363 46.6167 44.51732 46.54463 44.54453 46.50038 C 44.57173 46.45613 44.61543 46.38618 44.64264 46.34322 C 44.66985 46.30026 44.71353 46.23238 44.74074 46.19067 C 44.76794 46.14897 44.81165 46.08311 44.83885 46.04268 C 44.86606 46.00224 44.90974 45.93839 44.93695 45.89917 C 44.96416 45.85997 45.00786 45.79808 45.03506 45.7601 C 45.06227 45.72214 45.10596 45.66219 45.13316 45.62543 C 45.16037 45.58867 45.20406 45.53065 45.23128 45.49507 C 45.25848 45.4595 45.30215 45.4034 45.32938 45.369 C 45.35658 45.33463 45.40027 45.28036 45.42749 45.24713 C 45.4547 45.2139 45.49837 45.16154 45.52559 45.12947 C 45.5528 45.0974 45.59648 45.04684 45.6237 45.01591 C 45.65091 44.98497 45.69458 44.93626 45.7218 44.90645 C 45.74901 44.87665 45.79268 44.82971 45.8199 44.80103 C 45.8471 44.77234 45.8908 44.72723 45.91801 44.69966 C 45.94522 44.67209 45.98889 44.62871 46.01611 44.60223 C 46.04332 44.57574 46.087 44.53416 46.11423 44.50877 C 46.14143 44.48338 46.1851 44.44353 46.21233 44.41922 C 46.23953 44.39491 46.28322 44.35675 46.31044 44.33351 C 46.33765 44.31026 46.38132 44.27383 46.40852 44.25168 C 46.43575 44.2295 46.47943 44.19478 46.50664 44.17366 C 46.53386 44.15254 46.57753 44.1195 46.60474 44.09944 C 46.63196 44.07938 46.67564 44.04802 46.70285 44.02898 C 46.73007 44.00995 46.77374 43.98024 46.80095 43.96225 C 46.82817 43.94424 46.87186 43.9162 46.89906 43.89925 C 46.92628 43.8823 46.96996 43.85591 46.99716 43.83998 C 47.02438 43.82404 47.06807 43.79927 47.09528 43.78435 C 47.1225 43.76944 47.16617 43.74634 47.19337 43.73244 C 47.2206 43.71854 47.26427 43.69704 47.29147 43.68414 C 47.3187 43.67125 47.36238 43.6514 47.38959 43.63951 C 47.41681 43.62762 47.46048 43.60933 47.48769 43.59845 C 47.51491 43.58755 47.5586 43.5709 47.5858 43.56104 C 47.61302 43.55115 47.6567 43.53607 47.6839 43.52719 C 47.7111 43.51831 47.7548 43.50487 47.78201 43.49698 C 47.80922 43.48909 47.8529 43.47719 47.88011 43.47029 C 47.90732 43.4634 47.95102 43.4531 47.97823 43.44719 C 48.00543 43.44127 48.04912 43.43257 48.07632 43.42766 C 48.10353 43.42273 48.14723 43.41559 48.17444 43.41164 C 48.20164 43.4077 48.24533 43.40216 48.27254 43.39922 C 48.29974 43.39626 48.34344 43.3923 48.37065 43.39034 C 48.39786 43.38835 48.44154 43.38594 48.46875 43.38495 C 48.49596 43.38396 48.56685 43.38315 48.56685 43.38315 "/>
<path transform="matrix(1,0,0,-1,14.152,174.474)" stroke-width="1.19553" stroke-linecap="butt" stroke-dasharray="2.98883,2.98883" stroke-miterlimit="10" stroke-linejoin="miter" fill="none" stroke="#800000" d="M 48.56804 112.79434 C 48.56804 112.79434 48.63892 112.79353 48.66614 112.79256 C 48.69334 112.7916 48.73701 112.78923 48.76424 112.78728 C 48.79144 112.78531 48.83513 112.78134 48.86235 112.7784 C 48.88956 112.77544 48.93323 112.76993 48.96045 112.766 C 48.98766 112.76208 49.03134 112.75496 49.05855 112.75006 C 49.08577 112.74515 49.12944 112.73645 49.15665 112.73055 C 49.18387 112.72466 49.22755 112.71439 49.25476 112.7075 C 49.28198 112.70062 49.32565 112.68875 49.35286 112.68088 C 49.38008 112.673 49.42377 112.65955 49.45097 112.65067 C 49.4782 112.64178 49.52187 112.62674 49.54907 112.61687 C 49.5763 112.60701 49.61998 112.59036 49.64719 112.57948 C 49.67441 112.56862 49.71808 112.55037 49.74529 112.53848 C 49.7725 112.52661 49.8162 112.50677 49.8434 112.4939 C 49.87062 112.48103 49.91429 112.45955 49.9415 112.44566 C 49.96872 112.4318 50.01239 112.40866 50.0396 112.39377 C 50.06682 112.37888 50.1105 112.35414 50.13771 112.33823 C 50.16493 112.3223 50.2086 112.29591 50.23581 112.27896 C 50.26302 112.26201 50.30672 112.23401 50.33392 112.21602 C 50.36113 112.19804 50.40482 112.16835 50.43202 112.14934 C 50.45923 112.13031 50.50293 112.09898 50.53014 112.07893 C 50.55734 112.05888 50.60103 112.02585 50.62823 112.00475 C 50.65544 111.98364 50.69914 111.94896 50.72635 111.92679 C 50.75356 111.90463 50.79724 111.8682 50.82445 111.84496 C 50.85165 111.82173 50.89536 111.78363 50.92256 111.75934 C 50.94977 111.73505 50.99345 111.69519 51.02066 111.66982 C 51.04787 111.64444 51.09157 111.60287 51.11877 111.5764 C 51.14598 111.54994 51.18967 111.50659 51.21687 111.47903 C 51.24408 111.45148 51.28778 111.40636 51.31499 111.37769 C 51.3422 111.34901 51.38586 111.3021 51.41309 111.27231 C 51.44029 111.24251 51.48396 111.19385 51.51118 111.16292 C 51.53839 111.132 51.58208 111.08148 51.6093 111.04942 C 51.6365 111.01736 51.68018 110.96503 51.7074 110.93181 C 51.7346 110.89859 51.77829 110.84435 51.80551 110.80997 C 51.83272 110.77557 51.87639 110.71951 51.90361 110.68396 C 51.93082 110.64839 51.9745 110.59042 52.00172 110.55367 C 52.02893 110.5169 52.0726 110.45695 52.09982 110.419 C 52.12703 110.38104 52.17072 110.3192 52.19794 110.28003 C 52.22514 110.24084 52.26881 110.17699 52.29604 110.13657 C 52.32324 110.09615 52.36693 110.03032 52.39415 109.98863 C 52.42136 109.94695 52.46503 109.87906 52.49225 109.8361 C 52.51945 109.79317 52.56314 109.72325 52.59035 109.67902 C 52.61757 109.63478 52.66124 109.56274 52.68845 109.51718 C 52.71567 109.47163 52.75934 109.39749 52.78654 109.35059 C 52.81377 109.3037 52.85745 109.22739 52.88466 109.17914 C 52.91188 109.13089 52.95555 109.05241 52.98276 109.00279 C 53.00998 108.95319 53.05367 108.87247 53.08087 108.82144 C 53.1081 108.7704 53.15176 108.68745 53.17897 108.635 C 53.20619 108.58252 53.24988 108.49721 53.27708 108.4433 C 53.3043 108.3894 53.34798 108.30176 53.37518 108.24637 C 53.4024 108.19096 53.44609 108.10092 53.4733 108.04402 C 53.50052 107.98712 53.54419 107.8946 53.5714 107.83615 C 53.59862 107.7777 53.6423 107.68272 53.66951 107.6227 C 53.69673 107.56268 53.7404 107.46513 53.76761 107.40349 C 53.79483 107.34184 53.83852 107.24168 53.86572 107.17839 C 53.89293 107.11511 53.93661 107.01224 53.96382 106.94727 C 53.99103 106.8823 54.03473 106.77676 54.06194 106.71005 C 54.08914 106.64334 54.13283 106.53491 54.16003 106.46643 C 54.18724 106.39793 54.23093 106.28673 54.25813 106.21642 C 54.28534 106.1461 54.32904 106.03185 54.35625 105.95967 C 54.38345 105.88748 54.42714 105.77022 54.45435 105.69612 C 54.48155 105.62202 54.52525 105.50166 54.55246 105.4256 C 54.57967 105.34952 54.62335 105.22588 54.65056 105.14777 C 54.67776 105.06964 54.72147 104.9427 54.74867 104.86246 C 54.77588 104.78223 54.81956 104.65186 54.84677 104.56944 C 54.87398 104.48703 54.91768 104.35312 54.94489 104.26848 C 54.97209 104.18384 55.01576 104.04626 55.04298 103.95929 C 55.07019 103.8723 55.11388 103.73088 55.1411 103.64146 C 55.1683 103.55206 55.21198 103.40675 55.2392 103.31483 C 55.2664 103.22293 55.31009 103.07349 55.33731 102.97896 C 55.36452 102.88443 55.40819 102.73077 55.43541 102.63351 C 55.46262 102.53627 55.50629 102.37813 55.53351 102.27803 C 55.56071 102.17795 55.6044 102.01515 55.63162 101.9121 C 55.65883 101.80904 55.7025 101.64137 55.72972 101.5352 C 55.75693 101.42903 55.80061 101.25629 55.82784 101.14684 C 55.85504 101.0374 55.89871 100.85928 55.92593 100.74641 C 55.95314 100.63353 55.99683 100.44975 56.02405 100.33324 C 56.05125 100.2167 56.09492 100.02693 56.12215 99.90657 C 56.14935 99.78622 56.19304 99.59016 56.22025 99.46571 C 56.24747 99.34128 56.29114 99.13841 56.31834 99.00964 C 56.34557 98.88086 56.38925 98.67091 56.41646 98.53749 C 56.44368 98.40405 56.48735 98.18634 56.51456 98.04791 C 56.54178 97.90948 56.58546 97.68356 56.61267 97.53976 C 56.6399 97.39597 56.68356 97.1611 56.71077 97.01146 C 56.73799 96.86183 56.78168 96.61728 56.80888 96.4613 C 56.8361 96.30533 56.87978 96.05017 56.90698 95.88728 C 56.9342 95.72438 56.97787 95.45781 57.00508 95.28722 C 57.0323 95.11661 57.07599 94.83691 57.1032 94.65771 C 57.13042 94.47852 57.17409 94.18445 57.2013 93.9956 C 57.22852 93.80676 57.2722 93.49644 57.29941 93.29665 C 57.32663 93.09685 57.3703 92.76802 57.3975 92.55556 C 57.42473 92.3431 57.46841 91.99269 57.49562 91.76535 C 57.52283 91.53801 57.56651 91.16217 57.59372 90.91699 C 57.62093 90.67181 57.66463 90.26543 57.69183 89.99821 C 57.71904 89.73099 57.76273 89.28651 57.78993 88.99098 C 57.81714 88.69543 57.86084 88.2021 57.88805 87.86813 C 57.91525 87.53415 57.95894 86.97498 57.98615 86.58392 C 58.01335 86.19287 58.05705 85.54163 58.08426 85.04964 C 58.11147 84.55763 58.15515 83.92908 58.18236 83.03787 C 58.20956 82.14665 58.28046 78.62627 58.28046 78.62627 "/>
<path transform="matrix(1,0,0,-1,14.152,174.474)" stroke-width="1.19553" stroke-linecap="butt" stroke-dasharray="2.98883,2.98883" stroke-miterlimit="10" stroke-linejoin="miter" fill="none" stroke="#800000" d="M 48.56804 43.38315 C 48.56804 43.38315 48.63892 43.38396 48.66614 43.38493 C 48.69334 43.38591 48.73701 43.38826 48.76424 43.39023 C 48.79144 43.39218 48.83513 43.39615 48.86235 43.39911 C 48.88956 43.40205 48.93323 43.40756 48.96045 43.4115 C 48.98766 43.41542 49.03134 43.42253 49.05855 43.42744 C 49.08577 43.43234 49.12944 43.44104 49.15665 43.44695 C 49.18387 43.45284 49.22755 43.4631 49.25476 43.46999 C 49.28198 43.47687 49.32565 43.48875 49.35286 43.49663 C 49.38008 43.5045 49.42377 43.51794 49.45097 43.52682 C 49.4782 43.5357 49.52187 43.55075 49.54907 43.56062 C 49.5763 43.5705 49.61998 43.58713 49.64719 43.598 C 49.67441 43.60887 49.71808 43.62714 49.74529 43.639 C 49.7725 43.65088 49.8162 43.67072 49.8434 43.6836 C 49.87062 43.69647 49.91429 43.71794 49.9415 43.73183 C 49.96872 43.74571 50.01239 43.76883 50.0396 43.78372 C 50.06682 43.79863 50.1105 43.82336 50.13771 43.83928 C 50.16493 43.8552 50.2086 43.88158 50.23581 43.89853 C 50.26302 43.91548 50.30672 43.94348 50.33392 43.96147 C 50.36113 43.97945 50.40482 44.00914 50.43202 44.02815 C 50.45923 44.04718 50.50293 44.0785 50.53014 44.09856 C 50.55734 44.1186 50.60103 44.15164 50.62823 44.17274 C 50.65544 44.19385 50.69914 44.22853 50.72635 44.2507 C 50.75356 44.27287 50.79724 44.30931 50.82445 44.33253 C 50.85165 44.35576 50.89536 44.39386 50.92256 44.41815 C 50.94977 44.44244 50.99345 44.4823 51.02066 44.50768 C 51.04787 44.53305 51.09157 44.57463 51.11877 44.60109 C 51.14598 44.62756 51.18967 44.6709 51.21687 44.69846 C 51.24408 44.72603 51.28778 44.77115 51.31499 44.7998 C 51.3422 44.82848 51.38586 44.8754 51.41309 44.9052 C 51.44029 44.93498 51.48396 44.98364 51.51118 45.01457 C 51.53839 45.04549 51.58208 45.09601 51.6093 45.12807 C 51.6365 45.16013 51.68018 45.21246 51.7074 45.24568 C 51.7346 45.2789 51.77829 45.33315 51.80551 45.36752 C 51.83272 45.40192 51.87639 45.45798 51.90361 45.49355 C 51.93082 45.5291 51.9745 45.58708 52.00172 45.62384 C 52.02893 45.6606 52.0726 45.72054 52.09982 45.7585 C 52.12703 45.79645 52.17072 45.85829 52.19794 45.89748 C 52.22514 45.93665 52.26881 46.0005 52.29604 46.04094 C 52.32324 46.08136 52.36693 46.14719 52.39415 46.18886 C 52.42136 46.23055 52.46503 46.29843 52.49225 46.34138 C 52.51945 46.38432 52.56314 46.45424 52.59035 46.49847 C 52.61757 46.54272 52.66124 46.61475 52.68845 46.66031 C 52.71567 46.70587 52.75934 46.78001 52.78654 46.8269 C 52.81377 46.87381 52.85745 46.9501 52.88466 46.99835 C 52.91188 47.0466 52.95555 47.12508 52.98276 47.1747 C 53.00998 47.22432 53.05367 47.30502 53.08087 47.35605 C 53.1081 47.40709 53.15176 47.49005 53.17897 47.54251 C 53.20619 47.59497 53.24988 47.68028 53.27708 47.73419 C 53.3043 47.7881 53.34798 47.87573 53.37518 47.93114 C 53.4024 47.98653 53.44609 48.07657 53.4733 48.13347 C 53.50052 48.19037 53.54419 48.28288 53.5714 48.34134 C 53.59862 48.3998 53.6423 48.49478 53.66951 48.5548 C 53.69673 48.6148 53.7404 48.71236 53.76761 48.774 C 53.79483 48.83565 53.83852 48.93582 53.86572 48.9991 C 53.89293 49.0624 53.93661 49.16525 53.96382 49.23022 C 53.99103 49.29521 54.03473 49.40074 54.06194 49.46744 C 54.08914 49.53415 54.13283 49.64258 54.16003 49.71107 C 54.18724 49.77956 54.23093 49.89078 54.25813 49.96107 C 54.28534 50.03139 54.32904 50.14565 54.35625 50.21783 C 54.38345 50.29001 54.42714 50.40727 54.45435 50.48137 C 54.48155 50.55547 54.52525 50.67583 54.55246 50.7519 C 54.57967 50.82797 54.62335 50.95161 54.65056 51.02974 C 54.67776 51.10786 54.72147 51.23479 54.74867 51.31503 C 54.77588 51.39526 54.81956 51.52563 54.84677 51.60805 C 54.87398 51.69046 54.91768 51.82437 54.94489 51.90901 C 54.97209 51.99367 55.01576 52.13123 55.04298 52.21822 C 55.07019 52.30519 55.11388 52.44662 55.1411 52.53603 C 55.1683 52.62543 55.21198 52.77074 55.2392 52.86266 C 55.2664 52.95456 55.31009 53.10402 55.33731 53.19855 C 55.36452 53.29306 55.40819 53.44673 55.43541 53.54398 C 55.46262 53.64122 55.50629 53.79936 55.53351 53.89946 C 55.56071 53.99954 55.6044 54.16234 55.63162 54.2654 C 55.65883 54.36845 55.7025 54.53612 55.72972 54.64229 C 55.75693 54.74846 55.80061 54.92122 55.82784 55.03065 C 55.85504 55.14009 55.89871 55.3182 55.92593 55.43109 C 55.95314 55.54396 55.99683 55.72774 56.02405 55.84427 C 56.05125 55.96078 56.09492 56.15057 56.12215 56.27092 C 56.14935 56.39128 56.19304 56.58734 56.22025 56.71178 C 56.24747 56.83623 56.29114 57.03908 56.31834 57.16785 C 56.34557 57.29663 56.38925 57.50658 56.41646 57.64001 C 56.44368 57.77344 56.48735 57.99115 56.51456 58.12958 C 56.54178 58.268 56.58546 58.49394 56.61267 58.63773 C 56.6399 58.78152 56.68356 59.0164 56.71077 59.16603 C 56.73799 59.31566 56.78168 59.56021 56.80888 59.71619 C 56.8361 59.87216 56.87978 60.12733 56.90698 60.29022 C 56.9342 60.45311 56.97787 60.7197 57.00508 60.89029 C 57.0323 61.06088 57.07599 61.34058 57.1032 61.51979 C 57.13042 61.69899 57.17409 61.99306 57.2013 62.18188 C 57.22852 62.37073 57.2722 62.68105 57.29941 62.88084 C 57.32663 63.08064 57.3703 63.40948 57.3975 63.62195 C 57.42473 63.83441 57.46841 64.1848 57.49562 64.41214 C 57.52283 64.6395 57.56651 65.01532 57.59372 65.2605 C 57.62093 65.50568 57.66463 65.91206 57.69183 66.17928 C 57.71904 66.4465 57.76273 66.89098 57.78993 67.18652 C 57.81714 67.48206 57.86084 67.9754 57.88805 68.30937 C 57.91525 68.64334 57.95894 69.20251 57.98615 69.59357 C 58.01335 69.98462 58.05705 70.63586 58.08426 71.12785 C 58.11147 71.61986 58.15515 72.24841 58.18236 73.13963 C 58.20956 74.03084 58.28046 77.55122 58.28046 77.55122 "/>
<path transform="matrix(1,0,0,-1,14.152,174.474)" stroke-width="1.19553" stroke-linecap="butt" stroke-miterlimit="10" stroke-linejoin="miter" fill="none" stroke="#800000" d="M 48.56804 43.38264 C 48.56804 43.38264 51.49219 42.83324 52.61528 42.60056 C 53.73837 42.36787 55.53946 41.96855 56.66255 41.70557 C 57.78564 41.4426 59.58673 40.99628 60.70982 40.70508 C 61.83292 40.4139 63.634 39.92407 64.7571 39.60677 C 65.88019 39.28947 67.68127 38.75949 68.80435 38.41814 C 69.92744 38.0768 71.72853 37.5099 72.85162 37.14659 C 73.97472 36.78328 75.7758 36.18279 76.8989 35.79964 C 78.02199 35.41649 79.82307 34.78592 80.94617 34.385 C 82.06926 33.98407 83.87035 33.3266 84.99344 32.91 C 86.11653 32.49341 87.9176 31.81253 89.0407 31.38237 C 90.16379 30.9522 91.96487 30.25127 93.08797 29.80959 C 94.21106 29.3679 96.01215 28.65015 97.13524 28.19905 C 98.25833 27.74797 100.05942 27.01683 101.18251 26.55843 C 102.3056 26.10002 104.10669 25.35883 105.22977 24.8952 C 106.35286 24.4316 108.15395 23.68372 109.27704 23.21695 C 110.40013 22.7502 112.20122 21.9989 113.32431 21.53108 C 114.4474 21.06328 116.24849 20.31206 117.37158 19.84529 C 118.49467 19.37852 120.29576 18.63057 121.41885 18.16693 C 122.54195 17.70331 124.34302 16.96213 125.46611 16.50374 C 126.5892 16.04533 128.39029 15.31415 129.51338 14.86305 C 130.63648 14.41197 132.43755 13.69421 133.56064 13.25253 C 134.68373 12.81085 136.48482 12.10994 137.60791 11.67975 C 138.731 11.24956 140.53209 10.5686 141.65517 10.152 C 142.77826 9.73538 145.70244 8.6771 145.70244 8.6771 "/>
<symbol id="font_0_1">
<path d="M .23200003 .00999999 C .23200003 .012999982 .23200003 .014999986 .215 .03199999 C .09 .15799999 .058 .347 .058 .5 C .058 .674 .096 .84800007 .21900001 .97300007 C .23200003 .985 .23200003 .98700007 .23200003 .99 C .23200003 .99700006 .22800002 1 .222 1 C .21200001 1 .12200001 .93200007 .06299999 .805 C .012000002 .69500008 0 .584 0 .5 C 0 .422 .011 .301 .066 .188 C .126 .065 .21200001 0 .222 0 C .22800002 0 .23200003 .0029999912 .23200003 .00999999 Z "/>
</symbol>
<use xlink:href="#font_0_1" transform="matrix(9.9626,0,0,-9.9626,52.828298,57.985654)" fill="#800000"/>
<symbol id="font_1_2">
<path d="M .33300004 .38900004 C .31500004 .42600004 .286 .45300005 .24100001 .45300005 C .124 .45300005 0 .30600003 0 .16000001 C 0 .06600001 .055000005 0 .133 0 C .153 0 .20300001 .0040000008 .263 .075 C .27100004 .033000005 .30600003 0 .35400004 0 C .38900004 0 .41200004 .023000002 .42800004 .055000005 C .44500003 .091000009 .45800004 .15200001 .45800004 .15400002 C .45800004 .16400002 .44900004 .16400002 .44600005 .16400002 C .43600003 .16400002 .43500004 .16000001 .43200005 .14600002 C .41500003 .081 .397 .022000002 .35600005 .022000002 C .32900004 .022000002 .32600004 .048 .32600004 .068 C .32600004 .09 .32800005 .098000008 .33900003 .14200002 C .35000003 .18400002 .35200004 .19400002 .36100004 .23200003 L .397 .37200005 C .40400005 .40000005 .40400005 .40200005 .40400005 .40600003 C .40400005 .42300005 .39200003 .43300004 .37500004 .43300004 C .35100005 .43300004 .33600004 .411 .33300004 .38900004 M .26800005 .13000001 C .263 .112 .263 .11000001 .24800001 .093 C .20400001 .038000004 .163 .022000002 .135 .022000002 C .08499999 .022000002 .07100001 .077 .07100001 .116000007 C .07100001 .16600001 .103 .28900004 .126 .335 C .157 .39400003 .202 .43100003 .242 .43100003 C .307 .43100003 .32100005 .34900005 .32100005 .34300003 C .32100005 .337 .31900005 .33100004 .31800003 .32600004 L .26800005 .13000001 Z "/>
</symbol>
<symbol id="font_1_1">
<path d="M .117000009 .194 C .117000009 .26 .092 .29900003 .05300001 .29900003 C .020000004 .29900003 0 .274 0 .246 C 0 .21900001 .020000004 .193 .05300001 .193 C .065000008 .193 .078 .197 .08800001 .206 C .091 .208 .092 .209 .093 .209 C .094000007 .209 .095000009 .208 .095000009 .194 C .095000009 .12 .06000001 .060000004 .027000003 .026999996 C .016000003 .016000003 .016000003 .013999999 .016000003 .0109999929 C .016000003 .003999993 .021000006 0 .026 0 C .037 0 .117000009 .077 .117000009 .194 Z "/>
</symbol>
<symbol id="font_1_4">
<path d="M .35500003 .39100004 C .33900003 .39100004 .32500003 .39100004 .31100003 .37700004 C .29500003 .36200003 .293 .34500004 .293 .33800004 C .293 .314 .31100003 .30300004 .33 .30300004 C .359 .30300004 .386 .32700003 .386 .367 C .386 .41600005 .33900003 .45300005 .268 .45300005 C .13300002 .45300005 0 .31000004 0 .16900002 C 0 .079 .058000007 0 .162 0 C .305 0 .389 .106000009 .389 .11800001 C .389 .124000009 .38300003 .13100001 .377 .13100001 C .372 .13100001 .37 .12900001 .36400003 .12100001 C .285 .022000002 .176 .022000002 .164 .022000002 C .101 .022000002 .074 .071 .074 .13100001 C .074 .17200002 .094000007 .26900003 .12800002 .33100004 C .15900001 .388 .21400002 .43100003 .269 .43100003 C .303 .43100003 .34100003 .418 .35500003 .39100004 Z "/>
</symbol>
<use xlink:href="#font_1_2" transform="matrix(9.9626,0,0,-9.9626,56.114503,55.60459)" fill="#800000"/>
<use xlink:href="#font_1_1" transform="matrix(9.9626,0,0,-9.9626,61.843,57.417787)" fill="#800000"/>
<use xlink:href="#font_1_4" transform="matrix(9.9626,0,0,-9.9626,65.82804,55.60459)" fill="#800000"/>
<symbol id="font_0_2">
<path d="M .232 .5 C .232 .578 .22100002 .699 .16600001 .81200006 C .106 .93500009 .020000004 1 .009999998 1 C .0040000008 1 0 .99600008 0 .99 C 0 .98700007 0 .985 .019000002 .967 C .117000009 .86800006 .174 .709 .174 .5 C .174 .329 .137 .153 .012999997 .026999996 C 0 .014999986 0 .012999982 0 .00999999 C 0 .003999993 .0040000008 0 .009999998 0 C .020000004 0 .11000001 .06799999 .169 .195 C .22 .305 .232 .416 .232 .5 Z "/>
</symbol>
<use xlink:href="#font_0_2" transform="matrix(9.9626,0,0,-9.9626,70.28987,57.985654)" fill="#800000"/>
<use xlink:href="#font_0_1" transform="matrix(9.9626,0,0,-9.9626,150.0213,23.279652)" fill="#800000"/>
<symbol id="font_1_3">
<path d="M .192 .694 C .192 .695 .192 .705 .179 .705 C .156 .705 .083000008 .697 .057 .695 C .049 .694 .038 .693 .038 .675 C .038 .663 .047000003 .663 .062000004 .663 C .11 .663 .112 .656 .112 .646 C .112 .639 .103 .605 .098000008 .584 L .015999999 .25800003 C .0040000008 .20800002 0 .19200002 0 .15700002 C 0 .062000004 .053 0 .127 0 C .24500002 0 .36800004 .14900002 .36800004 .293 C .36800004 .38400004 .31500004 .45300005 .235 .45300005 C .18900001 .45300005 .148 .42400003 .118 .39300005 L .192 .694 M .098000008 .316 C .104 .33800004 .104 .34000004 .113000009 .351 C .162 .41600005 .207 .43100003 .233 .43100003 C .26900003 .43100003 .29600004 .40100003 .29600004 .337 C .29600004 .27800004 .263 .16300002 .24500002 .12500002 C .212 .058000003 .16600001 .022000002 .127 .022000002 C .092999998 .022000002 .060000007 .049000004 .060000007 .123 C .060000007 .14200002 .060000007 .16100002 .076000008 .22400002 L .098000008 .316 Z "/>
</symbol>
<symbol id="font_1_5">
<path d="M .47600005 .694 C .47600005 .695 .47600005 .705 .46300004 .705 C .44800005 .705 .35300002 .69600006 .33600004 .694 C .32800005 .693 .32200004 .688 .32200004 .675 C .32200004 .663 .33100004 .663 .34600003 .663 C .39400003 .663 .39600004 .656 .39600004 .646 L .39300005 .626 L .33300004 .38900004 C .31500004 .42600004 .286 .45300005 .24100001 .45300005 C .124 .45300005 0 .30600003 0 .16000001 C 0 .06600001 .055000005 0 .133 0 C .153 0 .20300001 .0040000008 .263 .075 C .27100004 .033000005 .30600003 0 .35400004 0 C .38900004 0 .41200004 .023000002 .42800004 .055000005 C .44500003 .091000009 .45800004 .15200001 .45800004 .15400002 C .45800004 .16400002 .44900004 .16400002 .44600005 .16400002 C .43600003 .16400002 .43500004 .16000001 .43200005 .14600002 C .41500003 .081 .397 .022000002 .35600005 .022000002 C .32900004 .022000002 .32600004 .048 .32600004 .068 C .32600004 .092 .32800005 .09900001 .33200003 .116000007 L .47600005 .694 M .26800005 .13000001 C .263 .112 .263 .11000001 .24800001 .093 C .20400001 .038000004 .163 .022000002 .135 .022000002 C .08499999 .022000002 .07100001 .077 .07100001 .116000007 C .07100001 .16600001 .103 .28900004 .126 .335 C .157 .39400003 .202 .43100003 .242 .43100003 C .307 .43100003 .32100005 .34900005 .32100005 .34300003 C .32100005 .337 .31900005 .33100004 .31800003 .32600004 L .26800005 .13000001 Z "/>
</symbol>
<use xlink:href="#font_1_3" transform="matrix(9.9626,0,0,-9.9626,153.37725,20.89859)" fill="#800000"/>
<use xlink:href="#font_1_1" transform="matrix(9.9626,0,0,-9.9626,158.03974,22.711783)" fill="#800000"/>
<use xlink:href="#font_1_5" transform="matrix(9.9626,0,0,-9.9626,162.01482,20.89859)" fill="#800000"/>
<use xlink:href="#font_0_2" transform="matrix(9.9626,0,0,-9.9626,167.36588,23.279652)" fill="#800000"/>
<use xlink:href="#font_1_2" transform="matrix(9.9626,0,0,-9.9626,60.4845,106.430599)"/>
<use xlink:href="#font_1_3" transform="matrix(9.9626,0,0,-9.9626,158.18425,109.05959)"/>
<use xlink:href="#font_1_4" transform="matrix(9.9626,0,0,-9.9626,4.6034677,63.934595)"/>
<use xlink:href="#font_1_5" transform="matrix(9.9626,0,0,-9.9626,3.719504,30.543595)"/>
<path transform="matrix(1,0,0,-1,14.152,174.474)" d="M 50.5606 112.79488 C 50.5606 113.89534 49.6685 114.78743 48.56804 114.78743 C 47.46756 114.78743 46.57549 113.89534 46.57549 112.79488 C 46.57549 111.6944 47.46756 110.80232 48.56804 110.80232 C 49.6685 110.80232 50.5606 111.6944 50.5606 112.79488 Z M 48.56804 112.79488 " fill="#800000"/>
<path transform="matrix(1,0,0,-1,14.152,174.474)" stroke-width="1" stroke-linecap="butt" stroke-miterlimit="10" stroke-linejoin="miter" fill="none" stroke="#cc6600" d="M 50.5606 112.79488 C 50.5606 113.89534 49.6685 114.78743 48.56804 114.78743 C 47.46756 114.78743 46.57549 113.89534 46.57549 112.79488 C 46.57549 111.6944 47.46756 110.80232 48.56804 110.80232 C 49.6685 110.80232 50.5606 111.6944 50.5606 112.79488 Z M 48.56804 112.79488 "/>
<path transform="matrix(1,0,0,-1,14.152,174.474)" d="M 147.69667 147.50099 C 147.69667 148.60146 146.80458 149.49355 145.70412 149.49355 C 144.60364 149.49355 143.71157 148.60146 143.71157 147.50099 C 143.71157 146.40052 144.60364 145.50844 145.70412 145.50844 C 146.80458 145.50844 147.69667 146.40052 147.69667 147.50099 Z M 145.70412 147.50099 " fill="#800000"/>
<path transform="matrix(1,0,0,-1,14.152,174.474)" stroke-width="1" stroke-linecap="butt" stroke-miterlimit="10" stroke-linejoin="miter" fill="none" stroke="#cc6600" d="M 147.69667 147.50099 C 147.69667 148.60146 146.80458 149.49355 145.70412 149.49355 C 144.60364 149.49355 143.71157 148.60146 143.71157 147.50099 C 143.71157 146.40052 144.60364 145.50844 145.70412 145.50844 C 146.80458 145.50844 147.69667 146.40052 147.69667 147.50099 Z M 145.70412 147.50099 "/>
<symbol id="font_1_6">
<path d="M .305 .31300003 C .311 .33900003 .334 .43100003 .404 .43100003 C .409 .43100003 .433 .43100003 .454 .418 C .426 .41300003 .40600003 .388 .40600003 .36400003 C .40600003 .34800003 .417 .32900004 .444 .32900004 C .46600003 .32900004 .498 .34700004 .498 .38700003 C .498 .43900005 .439 .45300005 .405 .45300005 C .347 .45300005 .312 .40000005 .3 .37700004 C .275 .44300003 .221 .45300005 .19200002 .45300005 C .08800001 .45300005 .031000002 .32400004 .031000002 .29900003 C .031000002 .28900004 .041 .28900004 .043000007 .28900004 C .051000008 .28900004 .054000006 .291 .056 .3 C .09 .40600003 .156 .43100003 .19000001 .43100003 C .209 .43100003 .244 .42200003 .244 .36400003 C .244 .33300004 .22700002 .26600004 .19000001 .126 C .17400001 .064 .13900002 .022000002 .095000009 .022000002 C .08900001 .022000002 .06600001 .022000002 .045 .035 C .07000001 .040000004 .09200001 .061 .09200001 .089 C .09200001 .116000007 .07000001 .124000009 .055000009 .124000009 C .025 .124000009 0 .098000008 0 .06600001 C 0 .020000002 .050000006 0 .094000007 0 C .16000001 0 .19600001 .07000001 .19900002 .076000008 C .21100001 .039 .24700003 0 .307 0 C .41 0 .467 .12900001 .467 .15400002 C .467 .16400002 .458 .16400002 .455 .16400002 C .446 .16400002 .444 .16000001 .442 .15300001 C .409 .046 .341 .022000002 .30900003 .022000002 C .27 .022000002 .254 .054 .254 .08800001 C .254 .11000001 .26 .13200002 .271 .17600002 L .305 .31300003 Z "/>
</symbol>
<use xlink:href="#font_1_6" transform="matrix(9.9626,0,0,-9.9626,212.2669,98.625598)"/>
<symbol id="font_1_7">
<path d="M .45700003 .586 C .461 .6 .461 .602 .461 .609 C .461 .62700006 .447 .63600006 .432 .63600006 C .42200003 .63600006 .40600003 .63 .397 .615 C .395 .61 .387 .579 .38300003 .561 C .37600003 .535 .36900003 .508 .363 .48100005 L .318 .301 C .314 .286 .271 .21600002 .20500002 .21600002 C .15400002 .21600002 .143 .26000003 .143 .29700003 C .143 .34300003 .16000001 .40500004 .194 .49300004 C .21000001 .53400006 .21400002 .545 .21400002 .56500008 C .21400002 .61 .18200001 .6470001 .13200002 .6470001 C .037 .6470001 0 .50200006 0 .49300004 C 0 .48300005 .01 .48300005 .012 .48300005 C .022000002 .48300005 .023 .485 .028000003 .50100007 C .055000009 .595 .095000009 .625 .12900001 .625 C .13700001 .625 .15400002 .625 .15400002 .59300008 C .15400002 .568 .14400001 .54200008 .13700001 .523 C .097 .41700004 .079 .36 .079 .31300003 C .079 .224 .142 .194 .201 .194 C .24000003 .194 .274 .21100001 .30200003 .23900002 C .289 .187 .277 .13800001 .237 .08500001 C .21100001 .051 .17300001 .022 .127 .022 C .113000009 .022 .068 .025000006 .051000008 .06400001 C .067 .06400001 .080000009 .06400001 .094000007 .076000008 C .104 .08500001 .11400001 .098000008 .11400001 .117000009 C .11400001 .148 .087000008 .15200001 .07700001 .15200001 C .054000006 .15200001 .021 .136 .021 .087000008 C .021 .037 .065000008 0 .127 0 C .23 0 .333 .091000009 .361 .20400001 L .45700003 .586 Z "/>
</symbol>
<use xlink:href="#font_1_7" transform="matrix(9.9626,0,0,-9.9626,11.819916,9.652334)"/>
<path transform="matrix(1,0,0,-1,14.152,174.474)" stroke-width="1" stroke-linecap="butt" stroke-miterlimit="10" stroke-linejoin="miter" fill="none" stroke="#808080" d="M 48.56804 75.9628 L 48.56804 80.21469 M 145.70412 75.9628 L 145.70412 80.21469 "/>
<path transform="matrix(1,0,0,-1,14.152,174.474)" stroke-width="1" stroke-linecap="butt" stroke-miterlimit="10" stroke-linejoin="miter" fill="none" stroke="#808080" d="M -2.12581 112.79488 L 2.12581 112.79488 M -2.12581 147.50099 L 2.12581 147.50099 "/>
<path transform="matrix(1,0,0,-1,14.152,174.474)" stroke-width="1" stroke-linecap="butt" stroke-miterlimit="10" stroke-linejoin="miter" fill="none" stroke="#000000" d="M 0 78.08876 L 192.27964 78.08876 "/>
<path transform="matrix(1,0,0,-1,206.43164,96.38524)" d="M 1.99252 0 L -1.19551 1.59401 L 0 0 L -1.19551 -1.59401 "/>
<path transform="matrix(1,0,0,-1,14.152,174.474)" stroke-width="1" stroke-linecap="butt" stroke-miterlimit="10" stroke-linejoin="miter" fill="none" stroke="#000000" d="M 0 0 L 0 159.39092 "/>
<path transform="matrix(0,-1,-1,-0,14.152,15.083084)" d="M 1.99252 0 L -1.19551 1.59401 L 0 0 L -1.19551 -1.59401 "/>
</svg>
