<?xml version="1.0" encoding="UTF-8" standalone="no"?>
<!DOCTYPE svg PUBLIC "-//W3C//DTD SVG 1.1//EN" "http://www.w3.org/Graphics/SVG/1.1/DTD/svg11.dtd">
<svg xmlns="http://www.w3.org/2000/svg" xmlns:xlink="http://www.w3.org/1999/xlink" version="1.1" width="305.01pt" height="73.765pt" viewBox="0 0 305.01 73.765">
<symbol id="font_0_2">
<path d="M .314 .605 L .4 .605 C .42000003 .605 .43 .605 .43 .625 C .43 .63600006 .42000003 .63600006 .40300004 .63600006 L .32000003 .63600006 L .34100003 .75 C .34500004 .771 .35900004 .842 .365 .8540001 C .374 .873 .39100004 .888 .41200004 .888 C .416 .888 .44200004 .888 .461 .87 C .41700004 .86600008 .407 .8310001 .407 .816 C .407 .793 .425 .781 .444 .781 C .47 .781 .49900005 .8030001 .49900005 .8410001 C .49900005 .8870001 .45300005 .9100001 .41200004 .9100001 C .37800003 .9100001 .31500004 .8920001 .28500004 .793 C .279 .7720001 .27600003 .7620001 .252 .63600006 L .18300002 .63600006 C .164 .63600006 .15300001 .63600006 .15300001 .61700007 C .15300001 .605 .162 .605 .18100001 .605 L .24700001 .605 L .172 .21000001 C .15400002 .113000009 .13700001 .022 .08500001 .022 C .081 .022 .056 .022 .037 .040000008 C .083000008 .043000014 .09200001 .07900001 .09200001 .094000007 C .09200001 .117000009 .074 .12900001 .055 .12900001 C .029 .12900001 0 .10700001 0 .069000009 C 0 .024000004 .044 0 .08500001 0 C .14 0 .18 .059 .19800002 .09700001 C .23000002 .16000001 .25300003 .28100003 .254 .28800003 L .314 .605 Z "/>
</symbol>
<use xlink:href="#font_0_2" transform="matrix(9.9626,0,0,-9.9626,3.8490246,49.859334)"/>
<symbol id="font_1_1">
<path d="M .23200003 .00999999 C .23200003 .012999982 .23200003 .014999986 .215 .03199999 C .09 .15799999 .058 .347 .058 .5 C .058 .674 .096 .84800007 .21900001 .97300007 C .23200003 .985 .23200003 .98700007 .23200003 .99 C .23200003 .99700006 .22800002 1 .222 1 C .21200001 1 .12200001 .93200007 .06299999 .805 C .012000002 .69500008 0 .584 0 .5 C 0 .422 .011 .301 .066 .188 C .126 .065 .21200001 0 .222 0 C .22800002 0 .23200003 .0029999912 .23200003 .00999999 Z "/>
</symbol>
<use xlink:href="#font_1_1" transform="matrix(9.9626,0,0,-9.9626,10.256305,50.30765)"/>
<symbol id="font_0_3">
<path d="M .305 .31300003 C .311 .33900003 .334 .43100003 .404 .43100003 C .409 .43100003 .433 .43100003 .454 .418 C .426 .41300003 .40600003 .388 .40600003 .36400003 C .40600003 .34800003 .417 .32900004 .444 .32900004 C .46600003 .32900004 .498 .34700004 .498 .38700003 C .498 .43900005 .439 .45300005 .405 .45300005 C .347 .45300005 .312 .40000005 .3 .37700004 C .275 .44300003 .221 .45300005 .19200002 .45300005 C .08800001 .45300005 .031000002 .32400004 .031000002 .29900003 C .031000002 .28900004 .041 .28900004 .043000007 .28900004 C .051000008 .28900004 .054000006 .291 .056 .3 C .09 .40600003 .156 .43100003 .19000001 .43100003 C .209 .43100003 .244 .42200003 .244 .36400003 C .244 .33300004 .22700002 .26600004 .19000001 .126 C .17400001 .064 .13900002 .022000002 .095000009 .022000002 C .08900001 .022000002 .06600001 .022000002 .045 .035 C .07000001 .040000004 .09200001 .061 .09200001 .089 C .09200001 .116000007 .07000001 .124000009 .055000009 .124000009 C .025 .124000009 0 .098000008 0 .06600001 C 0 .020000002 .050000006 0 .094000007 0 C .16000001 0 .19600001 .07000001 .19900002 .076000008 C .21100001 .039 .24700003 0 .307 0 C .41 0 .467 .12900001 .467 .15400002 C .467 .16400002 .458 .16400002 .455 .16400002 C .446 .16400002 .444 .16000001 .442 .15300001 C .409 .046 .341 .022000002 .30900003 .022000002 C .27 .022000002 .254 .054 .254 .08800001 C .254 .11000001 .26 .13200002 .271 .17600002 L .305 .31300003 Z "/>
</symbol>
<use xlink:href="#font_0_3" transform="matrix(9.9626,0,0,-9.9626,13.433923,47.92659)"/>
<symbol id="font_1_2">
<path d="M .232 .5 C .232 .578 .22100002 .699 .16600001 .81200006 C .106 .93500009 .020000004 1 .009999998 1 C .0040000008 1 0 .99600008 0 .99 C 0 .98700007 0 .985 .019000002 .967 C .117000009 .86800006 .174 .709 .174 .5 C .174 .329 .137 .153 .012999997 .026999996 C 0 .014999986 0 .012999982 0 .00999999 C 0 .003999993 .0040000008 0 .009999998 0 C .020000004 0 .11000001 .06799999 .169 .195 C .22 .305 .232 .416 .232 .5 Z "/>
</symbol>
<symbol id="font_1_b">
<path d="M .63100007 .19400002 C .646 .19400002 .665 .19400002 .665 .214 C .665 .23400001 .646 .23400001 .632 .23400001 L .033 .23400001 C .019000002 .23400001 0 .23400001 0 .214 C 0 .19400002 .019000002 .19400002 .034 .19400002 L .63100007 .19400002 M .632 0 C .646 0 .665 0 .665 .02000001 C .665 .040000008 .646 .040000008 .63100007 .040000008 L .034 .040000008 C .019000002 .040000008 0 .040000008 0 .02000001 C 0 0 .019000002 0 .033 0 L .632 0 Z "/>
</symbol>
<use xlink:href="#font_1_2" transform="matrix(9.9626,0,0,-9.9626,19.406876,50.30765)"/>
<use xlink:href="#font_1_b" transform="matrix(9.9626,0,0,-9.9626,26.041968,46.491975)"/>
<symbol id="font_2_1">
<path d="M .57600006 0 C .59300008 0 .611 0 .611 .019999996 C .611 .040000008 .59300008 .040000008 .57600006 .040000008 L .035000005 .040000008 C .018 .040000008 0 .040000008 0 .019999996 C 0 0 .018 0 .035000005 0 L .57600006 0 Z "/>
</symbol>
<use xlink:href="#font_2_1" transform="matrix(9.9626,0,0,-9.9626,36.823907,45.525606)"/>
<symbol id="font_1_4">
<path d="M .205 .64000007 C .205 .66400006 .205 .666 .18200003 .666 C .120000008 .60200008 .032000007 .60200008 0 .60200008 L 0 .57100006 C .020000004 .57100006 .07900001 .57100006 .13100001 .597 L .13100001 .079 C .13100001 .043 .128 .031000002 .038000004 .031000002 L .0060000049 .031000002 L .0060000049 0 C .04100001 .003 .128 .003 .168 .003 C .20800002 .003 .29500003 .003 .33000005 0 L .33000005 .031000002 L .29800005 .031000002 C .20800002 .031000002 .205 .042000005 .205 .079 L .205 .64000007 Z "/>
</symbol>
<use xlink:href="#font_1_4" transform="matrix(9.9626,0,0,-9.9626,45.827684,41.077)"/>
<path transform="matrix(1,0,0,-1,44.94101,45.326)" stroke-width="1" stroke-linecap="butt" stroke-miterlimit="10" stroke-linejoin="miter" fill="none" stroke="#000000" d="M 0 0 L 4.981 0 "/>
<symbol id="font_1_6">
<path d="M .24800003 .37400005 C .33 .40100003 .388 .47100006 .388 .55 C .388 .632 .3 .688 .204 .688 C .10300001 .688 .027000003 .628 .027000003 .55200007 C .027000003 .519 .049000004 .5 .078 .5 C .109000008 .5 .12900001 .522 .12900001 .55100008 C .12900001 .6010001 .082 .6010001 .067 .6010001 C .098 .65000006 .164 .66300007 .20000002 .66300007 C .24100003 .66300007 .29600004 .64100006 .29600004 .55100008 C .29600004 .53900006 .29400004 .48100005 .268 .43700005 C .238 .38900004 .204 .38600005 .17900002 .38500003 C .171 .38400004 .14700002 .38200004 .14000002 .38200004 C .132 .38100005 .125 .38000003 .125 .37000004 C .125 .35900004 .132 .35900004 .14900002 .35900004 L .19300002 .35900004 C .275 .35900004 .312 .29100005 .312 .193 C .312 .057000005 .24300003 .028 .199 .028 C .15600002 .028 .081 .045 .046000005 .104 C .081 .09900001 .11200001 .12100001 .11200001 .15900001 C .11200001 .19500001 .085 .215 .056 .215 C .031999999 .215 0 .201 0 .157 C 0 .06600001 .093 0 .20200002 0 C .32400004 0 .41500003 .091000009 .41500003 .193 C .41500003 .27500005 .35200004 .35300005 .24800003 .37400005 Z "/>
</symbol>
<use xlink:href="#font_1_6" transform="matrix(9.9626,0,0,-9.9626,45.35944,54.87018)"/>
<use xlink:href="#font_1_1" transform="matrix(9.9626,0,0,-9.9626,52.10431,50.30765)"/>
<use xlink:href="#font_0_3" transform="matrix(9.9626,0,0,-9.9626,55.280927,47.92659)"/>
<use xlink:href="#font_2_1" transform="matrix(9.9626,0,0,-9.9626,63.72691,45.525606)"/>
<symbol id="font_1_5">
<path d="M .07700001 .07700001 L .18300002 .18 C .33900003 .31800003 .39900003 .372 .39900003 .47200004 C .39900003 .586 .30900003 .666 .18700002 .666 C .074 .666 0 .574 0 .485 C 0 .42900003 .05 .42900003 .053000008 .42900003 C .07000001 .42900003 .105000007 .441 .105000007 .48200003 C .105000007 .508 .08700001 .53400006 .052000006 .53400006 C .044000005 .53400006 .042000008 .53400006 .039 .53300008 C .062000004 .59800007 .11600001 .63500007 .17400001 .63500007 C .26500003 .63500007 .308 .554 .308 .47200004 C .308 .39200003 .25800003 .31300003 .20300003 .25100003 L .011000004 .037 C 0 .026 0 .024 0 0 L .37100003 0 L .39900003 .17400001 L .374 .17400001 C .36900003 .14400001 .36200003 .1 .352 .085 C .345 .07700001 .279 .07700001 .257 .07700001 L .07700001 .07700001 Z "/>
</symbol>
<symbol id="font_1_3">
<path d="M .35300002 .31300003 L .632 .31300003 C .646 .31300003 .665 .31300003 .665 .333 C .665 .35300002 .646 .35300002 .632 .35300002 L .35300002 .35300002 L .35300002 .633 C .35300002 .647 .35300002 .666 .33300004 .666 C .31300003 .666 .31300003 .647 .31300003 .633 L .31300003 .35300002 L .033 .35300002 C .019000002 .35300002 0 .35300002 0 .333 C 0 .31300003 .019000002 .31300003 .033 .31300003 L .31300003 .31300003 L .31300003 .033000005 C .31300003 .019000002 .31300003 0 .33300004 0 C .35300002 0 .35300002 .019000002 .35300002 .033000005 L .35300002 .31300003 Z "/>
</symbol>
<use xlink:href="#font_1_5" transform="matrix(9.9626,0,0,-9.9626,73.360149,47.817)"/>
<use xlink:href="#font_1_2" transform="matrix(9.9626,0,0,-9.9626,78.41119,50.30765)"/>
<use xlink:href="#font_1_3" transform="matrix(9.9626,0,0,-9.9626,84.48837,48.643899)"/>
<symbol id="font_0_1">
<path d="M .106 .053000004 C .106 .082 .08200001 .106000009 .05300001 .106000009 C .024000004 .106000009 0 .082 0 .053000004 C 0 .024 .024000004 0 .05300001 0 C .08200001 0 .106 .024 .106 .053000004 Z "/>
</symbol>
<use xlink:href="#font_0_1" transform="matrix(9.9626,0,0,-9.9626,94.75179,47.817)"/>
<use xlink:href="#font_0_1" transform="matrix(9.9626,0,0,-9.9626,99.18515,47.817)"/>
<use xlink:href="#font_0_1" transform="matrix(9.9626,0,0,-9.9626,103.60854,47.817)"/>
<use xlink:href="#font_1_3" transform="matrix(9.9626,0,0,-9.9626,108.28992,48.643899)"/>
<use xlink:href="#font_1_6" transform="matrix(9.9626,0,0,-9.9626,119.30843,41.296178)"/>
<use xlink:href="#font_1_5" transform="matrix(9.9626,0,0,-9.9626,124.36944,41.077)"/>
<path transform="matrix(1,0,0,-1,118.89001,45.326)" stroke-width="1" stroke-linecap="butt" stroke-miterlimit="10" stroke-linejoin="miter" fill="none" stroke="#000000" d="M 0 0 L 9.963 0 "/>
<symbol id="font_1_9">
<path d="M .42000003 .63100007 C .42900003 .64300009 .42900003 .64500007 .42900003 .66600009 L .18600002 .66600009 C .064 .66600009 .062000008 .679 .058000007 .6980001 L .033 .6980001 L 0 .49200005 L .024999999 .49200005 C .028000005 .508 .037 .57100006 .050000006 .58300009 C .057000005 .58900007 .13500002 .58900007 .148 .58900007 L .35500003 .58900007 C .344 .573 .26500003 .46400006 .24300003 .43100003 C .153 .29600004 .12000001 .157 .12000001 .055 C .12000001 .045 .12000001 0 .16600001 0 C .21200001 0 .21200001 .045 .21200001 .055 L .21200001 .106000009 C .21200001 .16100002 .21500004 .216 .22300002 .27 C .22700003 .29300005 .24100003 .37900005 .28500004 .44100005 L .42000003 .63100007 Z "/>
</symbol>
<use xlink:href="#font_1_9" transform="matrix(9.9626,0,0,-9.9626,121.93791,54.87018)"/>
<use xlink:href="#font_1_1" transform="matrix(9.9626,0,0,-9.9626,131.0343,50.30765)"/>
<use xlink:href="#font_0_3" transform="matrix(9.9626,0,0,-9.9626,134.2109,47.92659)"/>
<use xlink:href="#font_2_1" transform="matrix(9.9626,0,0,-9.9626,142.65689,45.525606)"/>
<use xlink:href="#font_1_5" transform="matrix(9.9626,0,0,-9.9626,152.29113,47.817)"/>
<use xlink:href="#font_1_2" transform="matrix(9.9626,0,0,-9.9626,157.34217,50.30765)"/>
<symbol id="font_3_1">
<path d="M .22600001 .63600006 C .22600001 .66300007 .224 .66400006 .19600001 .66400006 C .132 .601 .041 .6 0 .6 L 0 .564 C .023999997 .564 .09000001 .564 .14500001 .592 L .14500001 .082 C .14500001 .049000004 .14500001 .036000004 .04500001 .036000004 L .0069999995 .036000004 L .0069999995 0 C .024999999 .001 .148 .004 .185 .004 C .21600002 .004 .34200005 .001 .36400003 0 L .36400003 .036000004 L .32600004 .036000004 C .22600001 .036000004 .22600001 .049000004 .22600001 .082 L .22600001 .63600006 Z "/>
</symbol>
<symbol id="font_3_2">
<path d="M .096 .34700004 C .096 .42900003 .103 .503 .141 .564 C .17500001 .61800006 .22900002 .65500006 .293 .65500006 C .323 .65500006 .36300005 .647 .38300003 .62 C .35800005 .61800006 .33700005 .601 .33700005 .572 C .33700005 .547 .35400004 .525 .38400004 .525 C .41400004 .525 .43200005 .545 .43200005 .574 C .43200005 .632 .39000006 .684 .29100005 .684 C .147 .684 0 .552 0 .337 C 0 .078 .12200001 0 .23200001 0 C .35400004 0 .46 .09300001 .46 .224 C .46 .35100005 .35900004 .44500003 .242 .44500003 C .162 .44500003 .118 .39200003 .096 .34700004 M .23200001 .032 C .18200001 .032 .143 .061000006 .12200001 .105000007 C .10700001 .135 .09900001 .185 .09900001 .245 C .09900001 .34200005 .157 .41700004 .237 .41700004 C .28300003 .41700004 .31400005 .39900003 .33900003 .36200003 C .36300005 .32400004 .36400003 .28200004 .36400003 .224 C .36400003 .167 .36400003 .125 .33700005 .086 C .31300003 .051000004 .28100003 .032 .23200001 .032 Z "/>
</symbol>
<use xlink:href="#font_3_1" transform="matrix(6.9738,0,0,-6.9738,161.40814,43.704)"/>
<use xlink:href="#font_3_2" transform="matrix(6.9738,0,0,-6.9738,164.99965,43.843477)"/>
<symbol id="font_4_3">
<path d="M .484 .09200001 C .484 .115 .484 .120000008 .47 .120000008 C .409 .12100001 .31 .12900001 .22000002 .17300001 C .112 .22700002 .071 .29000003 .046000005 .32900004 C .043 .33400003 .037 .33400003 .024 .33400003 C .0009999983 .33400003 0 .333 0 .30800004 L 0 .29200004 C .136 .047000003 .361 0 .463 0 C .484 0 .484 .001 .484 .028 L .484 .09200001 Z "/>
</symbol>
<use xlink:href="#font_4_3" transform="matrix(9.9626,0,0,-9.9626,35.7579,58.835)"/>
<path transform="matrix(1,0,0,-1,40.480009,58.835)" d="M 0 0 L 57.58 0 L 57.58 1.195 L 0 1.195 Z "/>
<symbol id="font_4_2">
<path d="M .48400004 .04200001 C .34800003 .28700004 .123 .33400003 .021000002 .33400003 C 0 .33400003 0 .333 0 .30600003 L 0 .24200002 C 0 .21900001 0 .21400002 .014 .21400002 C .075 .21300002 .17400001 .20500002 .264 .16100002 C .372 .10700001 .41300003 .044000016 .43800003 .00500001 C .441 0 .447 0 .46 0 C .483 0 .48400004 .001000002 .48400004 .026000008 L .48400004 .04200001 Z "/>
</symbol>
<symbol id="font_4_1">
<path d="M .484 .30600003 C .484 .333 .484 .33400003 .463 .33400003 C .361 .33400003 .136 .286 0 .04200001 L 0 .026000008 C 0 .001000002 .0009999983 0 .024 0 C .043 0 .044 .001000002 .049000004 .008000001 C .13100001 .13900002 .269 .21000003 .472 .21400002 C .484 .21400002 .484 .22100002 .484 .24200002 L .484 .30600003 Z "/>
</symbol>
<use xlink:href="#font_4_2" transform="matrix(9.9626,0,0,-9.9626,97.95938,60.966997)"/>
<use xlink:href="#font_4_1" transform="matrix(9.9626,0,0,-9.9626,102.30307,60.966997)"/>
<path transform="matrix(1,0,0,-1,107.02601,58.835)" d="M 0 0 L 57.58 0 L 57.58 1.195 L 0 1.195 Z "/>
<symbol id="font_4_4">
<path d="M .48400004 .30800004 C .48400004 .333 .483 .33400003 .46 .33400003 C .441 .33400003 .44 .333 .435 .326 C .35300002 .19500001 .21500002 .124000009 .012000001 .120000008 C 0 .120000008 0 .113000009 0 .09200001 L 0 .028 C 0 .001 0 0 .021000002 0 C .123 0 .34800003 .048 .48400004 .29200004 L .48400004 .30800004 Z "/>
</symbol>
<use xlink:href="#font_4_4" transform="matrix(9.9626,0,0,-9.9626,164.50638,58.835)"/>
<use xlink:href="#font_1_3" transform="matrix(9.9626,0,0,-9.9626,171.30692,48.643899)"/>
<use xlink:href="#font_4_1" transform="matrix(9.9626,0,0,-9.9626,179.9189,33.799997)"/>
<path transform="matrix(1,0,0,-1,184.642,31.668)" d="M 0 0 L 28.631 0 L 28.631 1.195 L 0 1.195 Z "/>
<use xlink:href="#font_4_4" transform="matrix(9.9626,0,0,-9.9626,213.17238,31.668)"/>
<use xlink:href="#font_4_3" transform="matrix(9.9626,0,0,-9.9626,217.51607,31.668)"/>
<path transform="matrix(1,0,0,-1,222.239,31.668)" d="M 0 0 L 28.631 0 L 28.631 1.195 L 0 1.195 Z "/>
<use xlink:href="#font_4_2" transform="matrix(9.9626,0,0,-9.9626,250.76938,33.799997)"/>
<symbol id="font_1_8">
<path d="M .089999999 .35000003 L .089999999 .37400005 C .089999999 .62700006 .21400002 .66300007 .26500003 .66300007 C .28900004 .66300007 .33100004 .65700009 .35300002 .623 C .33800004 .623 .298 .623 .298 .57800009 C .298 .54700008 .32200004 .53200009 .344 .53200009 C .36 .53200009 .39000003 .54100009 .39000003 .58000007 C .39000003 .64000007 .34600003 .688 .263 .688 C .13499999 .688 0 .559 0 .33800004 C 0 .071 .116000007 0 .20900002 0 C .32000003 0 .41500003 .094000007 .41500003 .22600001 C .41500003 .35300005 .32600004 .44900004 .215 .44900004 C .14700002 .44900004 .11000001 .39800004 .089999999 .35000003 M .20900002 .028 C .146 .028 .116000007 .088 .11000001 .103 C .092 .15 .092 .23 .092 .24800001 C .092 .32600004 .124000009 .42600004 .21400002 .42600004 C .23000002 .42600004 .27600003 .42600004 .307 .36400003 C .32500003 .32700003 .32500003 .27600003 .32500003 .22700002 C .32500003 .179 .32500003 .12900001 .30800004 .093 C .27800004 .033000005 .23200003 .028 .20900002 .028 Z "/>
</symbol>
<symbol id="font_1_7">
<path d="M .266 .165 L .266 .078 C .266 .042000005 .26400004 .031000002 .19000001 .031000002 L .16900002 .031000002 L .16900002 0 C .21000001 .003 .26200003 .003 .30400003 .003 C .34600003 .003 .39900003 .003 .44000004 0 L .44000004 .031000002 L .41900004 .031000002 C .34500004 .031000002 .34300003 .042000005 .34300003 .078 L .34300003 .165 L .44300003 .165 L .44300003 .19600001 L .34300003 .19600001 L .34300003 .651 C .34300003 .671 .34300003 .67700007 .32700003 .67700007 C .31800003 .67700007 .31500004 .67700007 .307 .665 L 0 .19600001 L 0 .165 L .266 .165 M .272 .19600001 L .028 .19600001 L .272 .569 L .272 .19600001 Z "/>
</symbol>
<use xlink:href="#font_1_8" transform="matrix(9.9626,0,0,-9.9626,181.77243,41.296178)"/>
<use xlink:href="#font_1_7" transform="matrix(9.9626,0,0,-9.9626,186.61425,41.077)"/>
<path transform="matrix(1,0,0,-1,181.354,45.326)" stroke-width="1" stroke-linecap="butt" stroke-miterlimit="10" stroke-linejoin="miter" fill="none" stroke="#000000" d="M 0 0 L 9.963 0 "/>
<symbol id="font_1_a">
<path d="M .32500003 .34000004 L .32500003 .30800004 C .32500003 .074 .22100002 .028 .16300002 .028 C .146 .028 .092 .030000002 .065000008 .064 C .109000008 .064 .117000009 .093 .117000009 .11000001 C .117000009 .141 .093 .156 .071 .156 C .055 .156 .024999999 .147 .024999999 .108 C .024999999 .041 .079 0 .164 0 C .293 0 .41500003 .136 .41500003 .35100005 C .41500003 .62000009 .3 .688 .21100003 .688 C .15600002 .688 .107 .67 .064 .62500008 C .023000002 .58000007 0 .53800007 0 .46300004 C 0 .33800004 .08800001 .24000001 .20000002 .24000001 C .261 .24000001 .30200003 .28200004 .32500003 .34000004 M .201 .263 C .185 .263 .139 .263 .108 .32600004 C .089999999 .36300005 .089999999 .41300006 .089999999 .46200005 C .089999999 .51600006 .089999999 .563 .11100001 .6 C .13800001 .65000006 .176 .66300007 .21100003 .66300007 C .25700004 .66300007 .29000003 .62900009 .307 .58400008 C .31900005 .55200007 .323 .48900003 .323 .44300006 C .323 .36000005 .28900004 .263 .201 .263 Z "/>
</symbol>
<use xlink:href="#font_1_a" transform="matrix(9.9626,0,0,-9.9626,184.26343,54.87018)"/>
<use xlink:href="#font_1_1" transform="matrix(9.9626,0,0,-9.9626,193.49829,50.30765)"/>
<use xlink:href="#font_0_3" transform="matrix(9.9626,0,0,-9.9626,196.6759,47.92659)"/>
<use xlink:href="#font_2_1" transform="matrix(9.9626,0,0,-9.9626,205.12088,45.525606)"/>
<use xlink:href="#font_1_5" transform="matrix(9.9626,0,0,-9.9626,214.75511,47.817)"/>
<use xlink:href="#font_1_2" transform="matrix(9.9626,0,0,-9.9626,219.80615,50.30765)"/>
<symbol id="font_3_3">
<path d="M .36400003 .31800003 C .36400003 .07 .24100001 .032 .18100001 .032 C .15900001 .032 .106000009 .034 .078999999 .065000008 C .120000008 .069000009 .122999999 .10300001 .122999999 .11200001 C .122999999 .13700001 .106000009 .15900001 .076000008 .15900001 C .046 .15900001 .028 .139 .028 .11000001 C .028 .042000005 .08500001 0 .18200001 0 C .32500003 0 .46 .135 .46 .34900005 C .46 .597 .35000003 .684 .233 .684 C .2 .684 .131 .679 .074 .623 C .040000004 .59000006 0 .551 0 .46100004 C 0 .33400003 .100999999 .24000001 .21800001 .24000001 C .29800005 .24000001 .34100003 .293 .36400003 .33800004 L .36400003 .31800003 M .223 .268 C .184 .268 .147 .28100003 .119 .32700003 C .096 .36400003 .096 .40600003 .096 .46100004 C .096 .519 .096 .559 .125 .59900006 C .149 .634 .18200001 .65500006 .23400001 .65500006 C .28500004 .65500006 .31500004 .623 .33100004 .597 C .35800005 .555 .36100004 .48500005 .36100004 .45000003 C .36100004 .32000003 .286 .268 .223 .268 Z "/>
</symbol>
<use xlink:href="#font_3_1" transform="matrix(6.9738,0,0,-6.9738,223.87314,43.704)"/>
<use xlink:href="#font_3_3" transform="matrix(6.9738,0,0,-6.9738,227.46465,43.843477)"/>
<use xlink:href="#font_1_3" transform="matrix(9.9626,0,0,-9.9626,234.3249,48.643896)"/>
<use xlink:href="#font_0_1" transform="matrix(9.9626,0,0,-9.9626,244.58678,47.816999)"/>
<use xlink:href="#font_0_1" transform="matrix(9.9626,0,0,-9.9626,249.02014,47.816999)"/>
<use xlink:href="#font_0_1" transform="matrix(9.9626,0,0,-9.9626,253.44355,47.816999)"/>
<symbol id="font_5_1">
<path d="M .40500004 .60700008 C .40900005 .634 .416 .64000007 .42900003 .643 C .439 .646 .46700008 .646 .48700006 .646 C .61500009 .646 .64300009 .625 .64300009 .52500006 C .64300009 .49400003 .64100006 .47300003 .63900008 .45200003 L .66700008 .45200003 L .68500009 .67700007 L .058 .67700007 L 0 .45200003 L .027999998 .45200003 C .07000001 .61300006 .09 .646 .24500002 .646 C .26100005 .646 .286 .646 .292 .64500007 C .311 .643 .31700004 .64000007 .31700004 .624 C .31700004 .62 .31700004 .61800006 .314 .601 L .22700002 .076000008 C .221 .040000004 .20600002 .031000002 .11400001 .031000002 L .075 .031000002 L .07000001 0 C .106000009 .003 .216 .003 .259 .003 C .30200006 .003 .41200007 .003 .448 0 C .44900007 .008 .45200003 .022000002 .453 .031000002 L .41400004 .031000002 C .35800005 .031000002 .315 .031000002 .315 .063 C .315 .065000008 .31600005 .071 .31700004 .076000008 L .40500004 .60700008 Z "/>
</symbol>
<symbol id="font_5_6">
<path d="M .48600004 .30600003 C .488 .316 .48900006 .324 .48900006 .33900003 C .48900006 .41300003 .441 .44200004 .36800004 .44200004 C .277 .44200004 .22300002 .37600003 .20800002 .354 L .20700002 .354 L .26400004 .694 L .11400001 .683 L .10900001 .652 C .16800002 .652 .17900002 .646 .17900002 .619 C .17900002 .614 .17900002 .61200007 .17600002 .595 L .089 .072000008 C .082 .031000002 .067 .031000002 .0050000029 .031000002 C .0040000008 .023000002 .001000002 .009000001 0 0 C .046 .002 .069000009 .003 .11400001 .003 C .16200002 .003 .17500001 .002 .22800002 0 L .23300001 .031000002 C .18300002 .031000002 .16100002 .031000002 .16100002 .057000005 C .16100002 .060000004 .16800002 .098000008 .17100002 .11800001 C .17400001 .13800001 .18500002 .20400001 .19300002 .25 C .21600002 .386 .31700004 .41700004 .36 .41700004 C .397 .41700004 .41700004 .39900003 .41700004 .35200004 C .41700004 .337 .40900005 .28800003 .40300004 .256 C .39800004 .22600001 .37600003 .087000008 .37300004 .07 C .36600004 .031000002 .351 .031000002 .289 .031000002 C .28800003 .023000002 .28500004 .009000001 .284 0 C .33 .002 .35300002 .003 .39800004 .003 C .44600005 .003 .45900003 .002 .512 0 L .517 .031000002 C .46700005 .031000002 .44500003 .031000002 .44500003 .057000005 C .44500003 .060000004 .44500003 .061000006 .448 .07700001 L .48600004 .30600003 Z "/>
</symbol>
<symbol id="font_5_4">
<path d="M .37800003 .24000003 C .402 .24000003 .41000004 .24000003 .41000004 .30300004 C .41000004 .41700004 .33400003 .45900003 .254 .45900003 C .117 .45900003 0 .32700003 0 .19400002 C 0 .081 .08499999 0 .194 0 C .32000003 0 .38500003 .113000009 .38500003 .13000001 C .38500003 .13700001 .38000003 .143 .37100003 .143 C .36200003 .143 .36 .13800001 .356 .13100001 C .317 .053000004 .245 .028 .20000002 .028 C .14500001 .028 .083000008 .065000008 .083000008 .16500002 C .083000008 .18500002 .087 .22000002 .091000009 .24000003 L .37800003 .24000003 M .096 .26400004 C .128 .404 .213 .43400003 .25300003 .43400003 C .32700003 .43400003 .344 .367 .344 .31700004 C .344 .291 .33900003 .26500003 .33900003 .26400004 L .096 .26400004 Z "/>
</symbol>
<symbol id="font_5_e">
<path d="M .381 .43400003 C .38300003 .44300003 .38300003 .44500003 .38300003 .44700004 C .38300003 .45100004 .38000003 .45900003 .37 .45900003 C .36400003 .45900003 .343 .44200004 .33 .43100003 C .296 .45900003 .252 .45900003 .238 .45900003 C .092 .45900003 .053000004 .37000004 .053000004 .32000003 C .053000004 .23500002 .15 .21600002 .18 .21100001 C .24599999 .19800002 .303 .18700002 .303 .127 C .303 .126 .303 .025000003 .17000002 .025000003 C .095000009 .025000003 .061000006 .071 .055 .15600002 C .054000006 .17400001 .053000004 .18000002 .04 .18000002 C .030000002 .18000002 .027000003 .17600002 .024 .15900001 L 0 .013000001 C 0 .0060000007 .0040000008 0 .012000002 0 C .018 0 .019000002 .0010000002 .039000006 .021000002 C .045 .026 .059 .039 .064 .044 C .09600001 .0060000007 .137 0 .17000002 0 C .323 0 .359 .108 .359 .158 C .359 .19300002 .347 .21800003 .321 .24200002 C .294 .26900003 .259 .275 .20700002 .28500004 C .16600001 .293 .109000008 .30400003 .109000008 .35200004 C .109000008 .381 .13300002 .43700005 .238 .43700005 C .308 .43700005 .336 .40100003 .336 .34900005 C .336 .335 .33400003 .32900004 .33400003 .32400004 C .33400003 .31200005 .343 .31100003 .34800003 .31100003 C .361 .31100003 .36200003 .31900005 .36400003 .33200003 L .381 .43400003 Z "/>
</symbol>
<symbol id="font_5_f">
<path d="M .16100002 .411 L .30600003 .411 C .30800004 .42100004 .30900003 .43200005 .31100003 .44200004 L .16600001 .44200004 L .19600001 .626 L .16800002 .626 C .15400002 .541 .1 .43900005 .0040000008 .43600003 C .002000004 .42600004 .001000002 .42000003 0 .411 L .086 .411 L .041 .13900002 C .038000004 .12100001 .038000004 .117000009 .038000004 .106000009 C .038000004 .016 .11100001 0 .15400002 0 C .20400003 0 .23300001 .033000005 .24900002 .058000003 C .27 .092 .272 .106000009 .286 .19200002 L .25800003 .19200002 C .24700001 .126 .24500004 .11000001 .23400003 .086 C .21600002 .049000004 .19000003 .028 .162 .028 C .11100001 .028 .11100001 .082 .11100001 .095000009 C .11100001 .10300001 .11100001 .111 .114 .12900001 L .16100002 .411 Z "/>
</symbol>
<symbol id="font_5_d">
<path d="M .17400001 .157 C .19000001 .254 .19600001 .287 .222 .33200003 C .24900002 .379 .286 .41700004 .34100003 .41700004 L .34100003 .416 C .33900003 .41500003 .31800003 .40100003 .31800003 .37300004 C .31800003 .344 .34100003 .335 .35700003 .335 C .38300003 .335 .407 .35700003 .407 .386 C .407 .41400004 .38400004 .44200004 .33900003 .44200004 C .264 .44200004 .21700001 .37300004 .2 .342 L .216 .44200004 L .072000008 .43100003 L .067 .4 C .126 .4 .13700001 .39400003 .13700001 .367 C .13700001 .36200003 .13700001 .36 .134 .34300003 L .089 .072000008 C .082 .031000002 .067 .031000002 .004999999 .031000002 C .0040000008 .023000002 .0010000002 .009000001 0 0 C .050000006 .002 .066 .003 .117 .003 C .164 .003 .186 .002 .245 0 L .25 .031000002 L .229 .031000002 C .163 .031000002 .15900001 .041 .15900001 .060000004 C .15900001 .066 .163 .089 .165 .10300001 L .17400001 .157 Z "/>
</symbol>
<symbol id="font_5_9">
<path d="M .772 .30600003 C .774 .316 .77500006 .324 .77500006 .33900003 C .77500006 .41500003 .725 .44200004 .653 .44200004 C .555 .44200004 .5 .36400003 .49000005 .34800003 C .48600004 .43400003 .40900005 .44200004 .36800004 .44200004 C .27100004 .44200004 .21700001 .367 .20400001 .347 L .20300001 .347 L .21900001 .44200004 L .07200001 .43100003 L .067 .4 C .12600002 .4 .13700001 .39400003 .13700001 .367 C .13700001 .36200003 .13700001 .36 .13400002 .34300003 L .089 .072000008 C .082 .031000002 .067 .031000002 .0050000029 .031000002 C .0040000008 .023000002 .001000002 .009000001 0 0 C .046 .002 .069000009 .003 .11400001 .003 C .16200002 .003 .17500001 .002 .22800002 0 L .23300001 .031000002 C .18300002 .031000002 .16100002 .031000002 .16100002 .057000005 C .16100002 .060000004 .16800002 .098000008 .17100002 .11800001 C .17400001 .13800001 .18500002 .20400001 .19300002 .25 C .21600002 .386 .31700004 .41700004 .36100004 .41700004 C .39600004 .41700004 .418 .4 .418 .35200004 C .418 .344 .41700004 .337 .41600005 .32900004 L .374 .072000008 C .367 .031000002 .35200004 .031000002 .29000003 .031000002 C .289 .023000002 .286 .009000001 .28500004 0 C .33100004 .002 .35400004 .003 .39900003 .003 C .44700004 .003 .46000005 .002 .513 0 L .518 .031000002 C .46800003 .031000002 .44600005 .031000002 .44600005 .057000005 C .44600005 .060000004 .45300005 .098000008 .45600004 .11800001 C .45900003 .13800001 .47 .20400001 .47800002 .25 C .501 .386 .602 .41700004 .646 .41700004 C .681 .41700004 .703 .4 .703 .35200004 C .703 .344 .702 .337 .70100006 .32900004 L .659 .072000008 C .652 .031000002 .637 .031000002 .575 .031000002 C .574 .023000002 .571 .009000001 .57 0 C .616 .002 .639 .003 .684 .003 C .732 .003 .745 .002 .79800006 0 L .80300006 .031000002 C .753 .031000002 .731 .031000002 .731 .057000005 C .731 .060000004 .731 .061000006 .734 .07700001 L .772 .30600003 Z "/>
</symbol>
<symbol id="font_5_12">
<path d="M .607 .34500004 C .637 .40200005 .672 .41000004 .702 .411 C .703 .41900004 .70600005 .43300004 .707 .44200004 C .67300006 .43900005 .653 .43900005 .631 .43900005 C .623 .43900005 .578 .43900005 .541 .44200004 L .535 .41200004 C .539 .41200004 .584 .40900005 .584 .37100003 C .584 .35900004 .582 .35500003 .575 .34200005 L .441 .09 L .38700003 .35600005 C .38400004 .36900003 .38400004 .37100003 .38400004 .37900005 C .38400004 .411 .42600004 .411 .446 .411 C .44800005 .42100004 .44900004 .43200005 .451 .44200004 C .41300003 .44000004 .38500003 .43900005 .34700004 .43900005 C .34600003 .43900005 .28800003 .43900005 .25700004 .44200004 L .25100003 .411 C .27500005 .411 .3 .411 .30900003 .39900003 C .316 .39000003 .32400004 .35300002 .32400004 .34300003 C .32400004 .33900003 .32000003 .33200003 .31900005 .33 L .19700003 .10300001 L .146 .358 C .143 .37100003 .143 .37300004 .143 .37900005 C .143 .411 .18600002 .411 .20600003 .411 L .21100003 .44200004 C .16300002 .44000004 .14200002 .43900005 .101 .43900005 C .06800001 .43900005 .04 .43900005 .0060000049 .44200004 L 0 .411 C .055 .411 .060999998 .40600003 .06800001 .37200005 L .13800001 .024 C .141 .0070000009 .143 0 .15800002 0 C .17000002 0 .17600003 .0070000009 .18200001 .018000002 L .33300004 .30100004 L .38900004 .023000002 C .39200003 .0070000009 .39400003 0 .40800003 0 C .42200003 0 .42600004 .0070000009 .43300007 .020000002 L .607 .34500004 Z "/>
</symbol>
<symbol id="font_5_7">
<path d="M .254 .623 C .254 .65000006 .23400001 .67 .20600002 .67 C .17500001 .67 .14500001 .64100006 .14500001 .609 C .14500001 .58500006 .16300002 .56200006 .19300002 .56200006 C .22200002 .56200006 .254 .587 .254 .623 M .09300001 .432 C .07700001 .43100003 .076000008 .43 .074 .423 C .072 .41500003 .07000001 .40600003 .07000001 .4 C .12500002 .4 .13700001 .395 .13700001 .36800004 C .13700001 .36200003 .13700001 .36 .134 .34300003 L .089 .072000008 C .082 .031000002 .067 .031000002 .004999999 .031000002 C .0040000008 .023000002 .0009999983 .009000001 0 0 C .044000005 .002 .066 .003 .111 .003 C .13100001 .003 .16800002 .003 .21700002 0 L .223 .031000002 C .17800002 .031000002 .158 .031000002 .158 .056 C .158 .060000004 .158 .061000006 .16100002 .07700001 L .22200002 .44200004 L .09300001 .432 Z "/>
</symbol>
<symbol id="font_5_8">
<path d="M .264 .694 L .11400001 .683 L .10900001 .652 C .16800002 .652 .179 .646 .179 .619 C .179 .614 .179 .61200007 .17600002 .595 L .089 .072000008 C .082 .031000002 .067 .031000002 .004999999 .031000002 C .0040000008 .023000002 .0009999983 .009000001 0 0 C .046 .002 .066 .003 .113000009 .003 C .16100002 .003 .18600002 .002 .22500001 0 L .23 .031000002 C .18 .031000002 .158 .031000002 .158 .057000005 C .158 .060000004 .15900001 .062000004 .16100002 .07700001 L .264 .694 Z "/>
</symbol>
<symbol id="font_5_11">
<path d="M .398 .34500004 C .413 .37100003 .43800003 .40900005 .5 .411 L .505 .44200004 C .476 .43900005 .43300004 .43900005 .42800004 .43900005 C .4 .43900005 .37 .44000004 .343 .44200004 L .337 .41200004 C .338 .41200004 .377 .41000004 .377 .37600003 C .377 .36300005 .368 .34700004 .36400003 .33900003 L .22 .093 L .15400002 .36100004 C .15 .37500004 .15 .37700004 .15 .381 C .15 .411 .192 .411 .21000001 .411 C .211 .42000003 .21400002 .43400003 .215 .44200004 C .167 .44000004 .146 .43900005 .105 .43900005 C .10300001 .43900005 .043000007 .43900005 .0059999974 .44200004 L 0 .411 C .052999997 .411 .06600001 .40900005 .074999999 .37100003 L .16100002 .024 C .16499999 .0070000009 .167 0 .18200001 0 C .197 0 .20300001 .011000001 .208 .019000002 L .398 .34500004 Z "/>
</symbol>
<symbol id="font_5_2">
<path d="M .44500003 .15600002 C .439 .11800001 .43500004 .091000009 .43300004 .08400001 C .42800004 .065000008 .41300003 .040000004 .39000003 .040000004 C .36200003 .040000004 .36100004 .074 .36100004 .079 C .36100004 .087000008 .36800004 .127 .372 .14700002 C .379 .18400002 .40100003 .30300004 .40100003 .33300004 C .40100003 .40300004 .337 .45900003 .24200002 .45900003 C .13700001 .45900003 .07100001 .39900003 .07100001 .34500004 C .07100001 .321 .08700001 .305 .113000009 .305 C .14000002 .305 .165 .32700003 .165 .358 C .165 .39100004 .135 .397 .12900001 .39800004 C .17000002 .43200005 .229 .43400003 .23900002 .43400003 C .30600003 .43400003 .328 .37900005 .328 .33900003 C .328 .33300004 .328 .33100004 .319 .275 C .268 .27300004 .19000001 .26900003 .11700001 .23700002 C .017 .19200002 0 .124000009 0 .095000009 C 0 .027000003 .081000018 0 .14900002 0 C .23300001 0 .28000004 .057000005 .296 .082 C .296 .016 .33800004 .005000001 .36 .005000001 C .39300005 .005000001 .451 .027000003 .46300004 .096 C .465 .107 .47 .136 .47300003 .15600002 L .44500003 .15600002 M .31500004 .25100003 C .30800004 .21100001 .30400003 .16700001 .29400004 .13100001 C .27600003 .068 .21400002 .025000003 .157 .025000003 C .113000009 .025000003 .08000001 .053000004 .08000001 .094000007 C .08000001 .097 .08000001 .23900002 .31500004 .25100003 Z "/>
</symbol>
<symbol id="font_5_a">
<path d="M .48600004 .30600003 C .488 .316 .48900006 .324 .48900006 .33900003 C .48900006 .41300003 .441 .44200004 .36800004 .44200004 C .29000003 .44200004 .23400003 .39400003 .20400001 .347 L .20300001 .347 L .21900001 .44200004 L .07200001 .43100003 L .067 .4 C .12600002 .4 .13700001 .39400003 .13700001 .367 C .13700001 .36200003 .13700001 .36 .13400002 .34300003 L .089 .072000008 C .082 .031000002 .067 .031000002 .0050000029 .031000002 C .0040000008 .023000002 .001000002 .009000001 0 0 C .046 .002 .069000009 .003 .11400001 .003 C .16200002 .003 .17500001 .002 .22800002 0 L .23300001 .031000002 C .18300002 .031000002 .16100002 .031000002 .16100002 .057000005 C .16100002 .060000004 .16800002 .098000008 .17100002 .11800001 C .17400001 .13800001 .18500002 .20400001 .19300002 .25 C .21600002 .386 .31700004 .41700004 .36 .41700004 C .397 .41700004 .41700004 .39900003 .41700004 .35200004 C .41700004 .337 .40900005 .28800003 .40300004 .256 C .39800004 .22600001 .37600003 .087000008 .37300004 .07 C .36600004 .031000002 .351 .031000002 .289 .031000002 C .28800003 .023000002 .28500004 .009000001 .284 0 C .33 .002 .35300002 .003 .39800004 .003 C .44600005 .003 .45900003 .002 .512 0 L .517 .031000002 C .46700005 .031000002 .44500003 .031000002 .44500003 .057000005 C .44500003 .060000004 .44500003 .061000006 .448 .07700001 L .48600004 .30600003 Z "/>
</symbol>
<use xlink:href="#font_5_1" transform="matrix(8.9664,0,0,-8.9664,48.74824,70.444)"/>
<use xlink:href="#font_5_6" transform="matrix(8.9664,0,0,-8.9664,54.710897,70.444)"/>
<use xlink:href="#font_5_4" transform="matrix(8.9664,0,0,-8.9664,60.072805,70.54263)"/>
<use xlink:href="#font_5_e" transform="matrix(8.9664,0,0,-8.9664,63.91939,70.54263)"/>
<use xlink:href="#font_5_4" transform="matrix(8.9664,0,0,-8.9664,67.80184,70.54263)"/>
<use xlink:href="#font_5_f" transform="matrix(8.9664,0,0,-8.9664,75.18119,70.54263)"/>
<use xlink:href="#font_5_4" transform="matrix(8.9664,0,0,-8.9664,78.55256,70.54263)"/>
<use xlink:href="#font_5_d" transform="matrix(8.9664,0,0,-8.9664,82.36327,70.444)"/>
<use xlink:href="#font_5_9" transform="matrix(8.9664,0,0,-8.9664,86.0126,70.444)"/>
<use xlink:href="#font_5_e" transform="matrix(8.9664,0,0,-8.9664,93.687839,70.54263)"/>
<use xlink:href="#font_5_12" transform="matrix(8.9664,0,0,-8.9664,100.86097,70.54263)"/>
<use xlink:href="#font_5_7" transform="matrix(8.9664,0,0,-8.9664,107.06571,70.444)"/>
<use xlink:href="#font_5_8" transform="matrix(8.9664,0,0,-8.9664,109.630107,70.444)"/>
<use xlink:href="#font_5_8" transform="matrix(8.9664,0,0,-8.9664,112.194499,70.444)"/>
<use xlink:href="#font_5_11" transform="matrix(8.9664,0,0,-8.9664,118.29166,70.54263)"/>
<use xlink:href="#font_5_2" transform="matrix(8.9664,0,0,-8.9664,122.37137,70.54263)"/>
<use xlink:href="#font_5_a" transform="matrix(8.9664,0,0,-8.9664,126.773868,70.444)"/>
<use xlink:href="#font_5_7" transform="matrix(8.9664,0,0,-8.9664,131.90264,70.444)"/>
<use xlink:href="#font_5_e" transform="matrix(8.9664,0,0,-8.9664,134.4491,70.54263)"/>
<use xlink:href="#font_5_6" transform="matrix(8.9664,0,0,-8.9664,138.08946,70.444)"/>
<symbol id="font_5_b">
<path d="M .462 .263 C .462 .37500004 .38200004 .45900003 .27000005 .45900003 C .125 .45900003 0 .321 0 .18700002 C 0 .086 .076000008 0 .19400002 0 C .33200003 0 .462 .12100001 .462 .263 M .19900002 .028 C .16600001 .028 .083000008 .041 .083000008 .15600002 C .083000008 .17900002 .09200001 .29500003 .12900001 .35500003 C .164 .41000004 .219 .43400003 .26600004 .43400003 C .30300004 .43400003 .38200004 .41600005 .38200004 .30800004 C .38200004 .29500003 .376 .17700002 .33500005 .108 C .30300004 .055000005 .24800001 .028 .19900002 .028 Z "/>
</symbol>
<symbol id="font_5_13">
<path d="M .43700005 .39900003 C .44500003 .40800003 .44900004 .411 .44900004 .42000003 C .44900004 .43100003 .44000004 .43100003 .42400003 .43100003 L .095 .43100003 L .057000005 .26700003 L .085 .26700003 C .10700001 .37600003 .141 .40600003 .24500002 .40600003 L .36000005 .40600003 L .011000002 .032 C .0030000006 .023000002 0 .021000002 0 .012 C 0 0 .007000001 0 .025 0 L .36500005 0 L .41400004 .19000001 L .38600005 .19000001 C .35700003 .078 .33500005 .028 .21000001 .028 L .09 .028 L .43700005 .39900003 Z "/>
</symbol>
<symbol id="font_5_c">
<path d="M .254 .63600006 L .104 .625 L .099 .594 C .15600002 .594 .17000002 .59000006 .17000002 .566 C .17000002 .56200006 .17000002 .56000009 .16700001 .543 L .089 .073 C .082 .031000004 .066 .031000004 .005 .031000004 L 0 0 C .047000003 .002000004 .066 .0029999912 .114 .0029999912 C .157 .0029999912 .18100001 .002000004 .22700002 0 L .23300001 .031000004 C .18200001 .031000004 .16100002 .031000004 .16100002 .056999998 C .16100002 .065 .18400002 .202 .19200002 .244 C .20900002 .21800001 .24400002 .183 .30900003 .183 C .44200004 .183 .577 .301 .577 .446 C .577 .559 .49700005 .63600006 .39300005 .63600006 C .32900004 .63600006 .277 .605 .24400002 .57500007 L .254 .63600006 M .23600002 .513 C .24100001 .54200008 .275 .568 .29000003 .578 C .31100003 .592 .34700004 .60800006 .38400004 .60800006 C .45600004 .60800006 .492 .535 .492 .45900003 C .492 .323 .397 .208 .30400003 .208 C .22400002 .208 .20000002 .284 .20000002 .292 L .202 .306 L .23600002 .513 Z "/>
</symbol>
<symbol id="font_5_5">
<path d="M .21500002 .4 L .331 .4 C .333 .41000004 .334 .42100004 .336 .43100003 L .21700002 .43100003 L .23600002 .54700008 C .24700003 .61600008 .298 .68 .352 .68 C .366 .68 .375 .67700007 .379 .675 C .368 .67 .34600003 .656 .34600003 .62700006 C .34600003 .609 .357 .58900007 .386 .58900007 C .412 .58900007 .43600003 .609 .43600003 .64100006 C .43600003 .68 .4 .70500007 .352 .70500007 C .269 .70500007 .18300002 .64000007 .16800002 .549 L .149 .43100003 L .07000001 .43100003 C .068 .42100004 .067 .41000004 .065 .4 L .143 .4 L .089 .072000008 C .082 .031000002 .067 .031000002 .004999999 .031000002 C .0040000008 .023000002 .0009999983 .009000001 0 0 C .05 .002 .066 .003 .11700001 .003 C .164 .003 .18600002 .002 .24500002 0 L .25 .031000002 L .22900002 .031000002 C .16300002 .031000002 .15900001 .041 .15900001 .060000004 C .15900001 .064 .15900001 .066 .16200002 .083000008 L .21500002 .4 Z "/>
</symbol>
<use xlink:href="#font_5_1" transform="matrix(8.9664,0,0,-8.9664,133.73625,10.044998)"/>
<use xlink:href="#font_5_6" transform="matrix(8.9664,0,0,-8.9664,139.69892,10.044998)"/>
<use xlink:href="#font_5_4" transform="matrix(8.9664,0,0,-8.9664,145.06082,10.143628)"/>
<use xlink:href="#font_5_e" transform="matrix(8.9664,0,0,-8.9664,148.9074,10.143628)"/>
<use xlink:href="#font_5_4" transform="matrix(8.9664,0,0,-8.9664,152.78986,10.143628)"/>
<use xlink:href="#font_5_12" transform="matrix(8.9664,0,0,-8.9664,160.16919,10.143628)"/>
<use xlink:href="#font_5_7" transform="matrix(8.9664,0,0,-8.9664,166.37395,10.044998)"/>
<use xlink:href="#font_5_8" transform="matrix(8.9664,0,0,-8.9664,168.93834,10.044998)"/>
<use xlink:href="#font_5_8" transform="matrix(8.9664,0,0,-8.9664,171.50273,10.044998)"/>
<use xlink:href="#font_5_6" transform="matrix(8.9664,0,0,-8.9664,177.13364,10.044998)"/>
<use xlink:href="#font_5_2" transform="matrix(8.9664,0,0,-8.9664,182.45967,10.143628)"/>
<use xlink:href="#font_5_11" transform="matrix(8.9664,0,0,-8.9664,187.0684,10.143628)"/>
<use xlink:href="#font_5_4" transform="matrix(8.9664,0,0,-8.9664,191.45299,10.143628)"/>
<use xlink:href="#font_5_a" transform="matrix(8.9664,0,0,-8.9664,198.37505,10.044998)"/>
<use xlink:href="#font_5_b" transform="matrix(8.9664,0,0,-8.9664,203.72798,10.143628)"/>
<use xlink:href="#font_5_a" transform="matrix(8.9664,0,0,-8.9664,208.10359,10.044998)"/>
<use xlink:href="#font_5_13" transform="matrix(8.9664,0,0,-8.9664,213.18753,10.044998)"/>
<use xlink:href="#font_5_4" transform="matrix(8.9664,0,0,-8.9664,217.56314,10.143628)"/>
<use xlink:href="#font_5_d" transform="matrix(8.9664,0,0,-8.9664,221.37386,10.044998)"/>
<use xlink:href="#font_5_b" transform="matrix(8.9664,0,0,-8.9664,225.2563,10.143628)"/>
<use xlink:href="#font_5_c" transform="matrix(8.9664,0,0,-8.9664,232.37563,11.78448)"/>
<use xlink:href="#font_5_b" transform="matrix(8.9664,0,0,-8.9664,238.32035,10.143628)"/>
<use xlink:href="#font_5_12" transform="matrix(8.9664,0,0,-8.9664,242.8932,10.143628)"/>
<use xlink:href="#font_5_4" transform="matrix(8.9664,0,0,-8.9664,249.07108,10.143628)"/>
<use xlink:href="#font_5_d" transform="matrix(8.9664,0,0,-8.9664,252.88179,10.044998)"/>
<use xlink:href="#font_5_e" transform="matrix(8.9664,0,0,-8.9664,256.52217,10.143628)"/>
<use xlink:href="#font_5_b" transform="matrix(8.9664,0,0,-8.9664,263.47108,10.143628)"/>
<use xlink:href="#font_5_5" transform="matrix(8.9664,0,0,-8.9664,267.85569,10.044998)"/>
<symbol id="font_6_1">
<path d="M .24000001 .011000007 C .24000001 .016000003 .23700002 .019000009 .231 .026000008 C .102000009 .14400001 .063 .324 .063 .499 C .063 .65400007 .093 .84200009 .234 .9760001 C .238 .98 .24000001 .98300006 .24000001 .98800006 C .24000001 .99500009 .23500002 .9990001 .22800002 .9990001 C .21599999 .9990001 .12600002 .92700007 .072000008 .818 C .023999997 .722 0 .619 0 .5 C 0 .42800004 .009000003 .314 .064 .19600001 C .123 .073 .21599999 0 .22800002 0 C .23500002 0 .24000001 .004000008 .24000001 .011000007 Z "/>
</symbol>
<use xlink:href="#font_6_1" transform="matrix(8.9664,0,0,-8.9664,274.3336,12.277632)"/>
<symbol id="font_7_1">
<path d="M .462 .41500003 C .425 .40800003 .41400004 .37600003 .41400004 .36100004 C .41400004 .34200005 .42800004 .32500003 .453 .32500003 C .48100005 .32500003 .508 .34900005 .508 .38400004 C .508 .43000005 .45800004 .45300005 .411 .45300005 C .351 .45300005 .316 .40000005 .30400003 .37900005 C .28500004 .42800004 .24100003 .45300005 .193 .45300005 C .086 .45300005 .028 .32500003 .028 .29900003 C .028 .29000003 .035000005 .28700004 .042000005 .28700004 C .051 .28700004 .054000006 .29200004 .056 .298 C .087000008 .397 .15300001 .42800004 .19100002 .42800004 C .22 .42800004 .24600002 .40900005 .24600002 .36200003 C .24600002 .32600004 .20300001 .16600001 .19000001 .11800001 C .18200001 .087000008 .15200001 .025000003 .097 .025000003 C .07700001 .025000003 .056 .032 .046000005 .038000004 C .07300001 .043 .093 .06600001 .093 .092 C .093 .117000009 .074 .128 .055 .128 C .026 .128 0 .10300001 0 .069000009 C 0 .020000002 .054000006 0 .096 0 C .15400002 0 .18800001 .048 .20300001 .075 C .22800002 .009000001 .287 0 .314 0 C .42200003 0 .479 .13000001 .479 .15400002 C .479 .15900001 .47600005 .16600001 .46600003 .16600001 C .455 .16600001 .45400004 .16200002 .44900004 .14700002 C .42700003 .075 .36900003 .025000003 .317 .025000003 C .28800003 .025000003 .261 .043 .261 .091000009 C .261 .113000009 .275 .16800002 .284 .20600002 C .28800003 .22400002 .31500004 .33200003 .317 .33900003 C .32900004 .37500004 .35900004 .42800004 .41000004 .42800004 C .42800004 .42800004 .44700004 .42500005 .462 .41500003 Z "/>
</symbol>
<use xlink:href="#font_7_1" transform="matrix(8.9664,0,0,-8.9664,277.27998,10.143628)"/>
<symbol id="font_8_1">
<path d="M .589 0 C .607 0 .626 0 .626 .022 C .626 .042999999 .606 .042999999 .589 .042999999 L .037 .042999999 C .020000004 .042999999 0 .042999999 0 .022 C 0 0 .019000002 0 .037 0 L .589 0 Z "/>
</symbol>
<use xlink:href="#font_8_1" transform="matrix(8.9664,0,0,-8.9664,285.05415,7.9916927)"/>
<symbol id="font_6_3">
<path d="M .411 .177 L .38300003 .177 C .381 .164 .37300004 .105000007 .36 .089 C .35400004 .080000009 .28500004 .080000009 .26500003 .080000009 L .08700001 .080000009 L .18600002 .17400001 C .35000003 .316 .411 .36900003 .411 .47100003 C .411 .586 .316 .666 .19300002 .666 C .07800001 .666 0 .57500007 0 .48400004 C 0 .43400003 .043 .42900003 .052000006 .42900003 C .074 .42900003 .104 .44500003 .104 .48100005 C .104 .51100006 .083000008 .53300008 .052000006 .53300008 C .047000003 .53300008 .044000005 .53300008 .040000004 .532 C .063999999 .60300007 .128 .63500007 .18200001 .63500007 C .284 .63500007 .319 .54 .319 .47100003 C .319 .36900003 .24200002 .286 .194 .23400001 L .011 .036000004 C 0 .025 0 .023000002 0 0 L .38300003 0 L .411 .177 Z "/>
</symbol>
<symbol id="font_6_2">
<path d="M .24000001 .5 C .24000001 .582 .22800002 .69200006 .17600002 .80300006 C .11700001 .92600008 .024 .9990001 .011999998 .9990001 C .0020000004 .9990001 0 .99100008 0 .98800006 C 0 .98300006 .0020000004 .98 .009 .97300007 C .067 .92100009 .17700002 .785 .17700002 .5 C .17700002 .35700003 .15100001 .158 .006000001 .023000002 C .0040000008 .019999996 0 .016000003 0 .011000007 C 0 .008000001 .0020000004 0 .011999998 0 C .024 0 .11400001 .07200001 .16800002 .18100001 C .21600002 .277 .24000001 .38000003 .24000001 .5 Z "/>
</symbol>
<use xlink:href="#font_6_3" transform="matrix(8.9664,0,0,-8.9664,293.95527,10.044998)"/>
<use xlink:href="#font_6_2" transform="matrix(8.9664,0,0,-8.9664,298.6268,12.277632)"/>
<symbol id="font_5_3">
<path d="M .5120001 .705 L .36200003 .694 L .35700003 .663 C .416 .663 .42700003 .657 .42700003 .63 C .42700003 .624 .42700003 .622 .42400003 .606 L .388 .39300005 C .372 .41500003 .337 .45300005 .268 .45300005 C .135 .45300005 0 .335 0 .19000001 C 0 .074 .08600001 0 .18600002 0 C .25 0 .3 .033000005 .33 .062000004 L .32000003 0 L .47300003 .011000001 C .47500006 .021000002 .47600005 .032 .47800002 .042000005 C .41700004 .042000005 .40800003 .049000004 .40800003 .075 C .40800003 .081 .40800003 .083000008 .411 .1 L .5120001 .705 M .342 .13000001 C .337 .102000009 .30800004 .075 .291 .062000004 C .25 .031000004 .213 .025000003 .19100002 .025000003 C .13800001 .025000003 .082 .062000004 .082 .15700002 C .082 .16000001 .08400001 .275 .13100001 .34600003 C .16600001 .39900003 .222 .42800004 .272 .42800004 C .35300002 .42800004 .37800003 .35700003 .37800003 .351 L .37600003 .337 L .342 .13000001 Z "/>
</symbol>
<symbol id="font_5_10">
<path d="M .44200004 .45300005 L .28900004 .44200004 L .284 .411 C .34300003 .411 .35400004 .40500004 .35400004 .37800003 C .35400004 .37100003 .34800003 .337 .34500004 .316 L .32400004 .19000001 C .30100004 .057000005 .22100002 .025000003 .17200002 .025000003 C .102000009 .025000003 .098 .057000005 .098 .080000009 C .098 .092 .1 .104 .102000009 .116000007 L .15800002 .45300005 L .0050000029 .44200004 L 0 .411 C .059000009 .411 .07 .40500004 .07 .37800003 C .07 .36400003 .037000009 .17500001 .031999999 .14400001 C .028000005 .12200001 .028000005 .120000008 .028000005 .105000007 C .028000005 .029000003 .08100001 0 .16600001 0 C .24400002 0 .28900004 .052 .30800004 .081 L .30900003 .081 L .29500003 0 L .44500006 .011000001 C .44700004 .021000002 .448 .032 .45000006 .042000005 C .38900004 .042000005 .38000003 .049000004 .38000003 .075 C .38000003 .081 .38000003 .083000008 .38300003 .1 L .44200004 .45300005 Z "/>
</symbol>
<use xlink:href="#font_5_2" transform="matrix(8.9664,0,0,-8.9664,140.98006,19.519629)"/>
<use xlink:href="#font_5_a" transform="matrix(8.9664,0,0,-8.9664,145.38257,19.420998)"/>
<use xlink:href="#font_5_3" transform="matrix(8.9664,0,0,-8.9664,150.7893,19.519629)"/>
<use xlink:href="#font_5_11" transform="matrix(8.9664,0,0,-8.9664,159.15496,19.519629)"/>
<use xlink:href="#font_5_2" transform="matrix(8.9664,0,0,-8.9664,163.24364,19.519629)"/>
<use xlink:href="#font_5_a" transform="matrix(8.9664,0,0,-8.9664,167.64615,19.420998)"/>
<use xlink:href="#font_5_7" transform="matrix(8.9664,0,0,-8.9664,172.77492,19.420998)"/>
<use xlink:href="#font_5_e" transform="matrix(8.9664,0,0,-8.9664,175.32138,19.519629)"/>
<use xlink:href="#font_5_6" transform="matrix(8.9664,0,0,-8.9664,178.96175,19.420998)"/>
<use xlink:href="#font_5_12" transform="matrix(8.9664,0,0,-8.9664,187.6143,19.519629)"/>
<use xlink:href="#font_5_6" transform="matrix(8.9664,0,0,-8.9664,193.8101,19.420998)"/>
<use xlink:href="#font_5_4" transform="matrix(8.9664,0,0,-8.9664,199.17201,19.519629)"/>
<use xlink:href="#font_5_a" transform="matrix(8.9664,0,0,-8.9664,203.02756,19.420998)"/>
<use xlink:href="#font_5_12" transform="matrix(8.9664,0,0,-8.9664,211.67116,19.519629)"/>
<use xlink:href="#font_5_4" transform="matrix(8.9664,0,0,-8.9664,217.858,19.519629)"/>
<use xlink:href="#font_5_4" transform="matrix(8.9664,0,0,-8.9664,225.02216,19.519629)"/>
<use xlink:href="#font_5_11" transform="matrix(8.9664,0,0,-8.9664,229.34395,19.519629)"/>
<use xlink:href="#font_5_2" transform="matrix(8.9664,0,0,-8.9664,233.43264,19.519629)"/>
<use xlink:href="#font_5_8" transform="matrix(8.9664,0,0,-8.9664,237.8441,19.420998)"/>
<use xlink:href="#font_5_10" transform="matrix(8.9664,0,0,-8.9664,241.00028,19.519629)"/>
<use xlink:href="#font_5_2" transform="matrix(8.9664,0,0,-8.9664,245.72557,19.519629)"/>
<use xlink:href="#font_5_f" transform="matrix(8.9664,0,0,-8.9664,250.58536,19.519629)"/>
<use xlink:href="#font_5_4" transform="matrix(8.9664,0,0,-8.9664,253.95674,19.519629)"/>
<use xlink:href="#font_5_2" transform="matrix(8.9664,0,0,-8.9664,261.094,19.519629)"/>
<use xlink:href="#font_5_f" transform="matrix(8.9664,0,0,-8.9664,265.9538,19.519629)"/>
<use xlink:href="#font_7_1" transform="matrix(8.9664,0,0,-8.9664,272.11299,19.519629)"/>
<symbol id="font_6_4">
<path d="M .651 .20400003 C .6650001 .20400003 .6840001 .20400003 .6840001 .22500003 C .6840001 .24700001 .66200008 .24700001 .6470001 .24700001 L .037 .24700001 C .022 .24700001 0 .24700001 0 .22500003 C 0 .20400003 .020000004 .20400003 .033 .20400003 L .651 .20400003 M .6470001 0 C .66200008 0 .6840001 0 .6840001 .022 C .6840001 .042999999 .6650001 .042999999 .651 .042999999 L .033 .042999999 C .020000004 .042999999 0 .042999999 0 .022 C 0 0 .022 0 .037 0 L .6470001 0 Z "/>
</symbol>
<use xlink:href="#font_6_4" transform="matrix(8.9664,0,0,-8.9664,280.13807,18.282265)"/>
<use xlink:href="#font_6_3" transform="matrix(8.9664,0,0,-8.9664,289.80384,19.420998)"/>
</svg>
