<?xml version="1.0" encoding="UTF-8" standalone="no"?>
<!DOCTYPE svg PUBLIC "-//W3C//DTD SVG 1.1//EN" "http://www.w3.org/Graphics/SVG/1.1/DTD/svg11.dtd">
<svg xmlns="http://www.w3.org/2000/svg" xmlns:xlink="http://www.w3.org/1999/xlink" version="1.1" width="194.67pt" height="161.394pt" viewBox="0 0 194.67 161.394">
<path transform="matrix(1,0,0,-1,.199,161.394)" stroke-width="1" stroke-linecap="butt" stroke-miterlimit="10" stroke-linejoin="miter" fill="none" stroke="#808080" d="M 42.49742 78.5723 L 42.49742 82.82404 "/>
<path transform="matrix(1,0,0,-1,.199,161.394)" stroke-width="1" stroke-linecap="butt" stroke-miterlimit="10" stroke-linejoin="miter" fill="none" stroke="#000000" d="M 0 80.69818 L 194.27399 80.69818 "/>
<clipPath id="cp0">
<path transform="matrix(1,0,0,-1,.199,161.394)" d="M 0 0 L 194.27399 0 L 194.27399 161.39636 L 0 161.39636 Z "/>
</clipPath>
<g clip-path="url(#cp0)">
<path transform="matrix(1,0,0,-1,.199,161.394)" stroke-width="1.19553" stroke-linecap="butt" stroke-miterlimit="10" stroke-linejoin="miter" fill="none" stroke="#000080" d="M 2.42842 0 L 4.85684 0 "/>
<path transform="matrix(1,0,0,-1,.199,161.394)" stroke-width="1.19553" stroke-linecap="butt" stroke-miterlimit="10" stroke-linejoin="miter" fill="none" stroke="#800000" d="M -1.8213 0 L -2.88297 0 "/>
<path transform="matrix(1,0,0,-1,.199,161.394)" stroke-width="1.19553" stroke-linecap="butt" stroke-miterlimit="10" stroke-linejoin="miter" fill="none" stroke="#800000" d="M 9.10658 0 L 10.16824 0 "/>
<path transform="matrix(1,0,0,-1,10.36724,161.394)" d="M 3.18808 0 L -1.91284 2.55046 L 0 0 L -1.91284 -2.55046 " fill="#800000"/>
<path transform="matrix(1,0,0,-1,.199,161.394)" stroke-width="1.19553" stroke-linecap="butt" stroke-miterlimit="10" stroke-linejoin="miter" fill="none" stroke="#008000" d="M -1.8213 0 L 2.42842 0 "/>
<path transform="matrix(1,0,0,-1,.199,161.394)" stroke-width="1.19553" stroke-linecap="butt" stroke-miterlimit="10" stroke-linejoin="miter" fill="none" stroke="#008000" d="M 4.85684 0 L 9.10658 0 "/>
<path transform="matrix(1,0,0,-1,.199,161.394)" stroke-width="1" stroke-linecap="butt" stroke-dasharray="2.98883,2.98883" stroke-miterlimit="10" stroke-linejoin="miter" fill="none" stroke="#000000" d="M -1.8213 -.20174 L -1.8213 .20174 "/>
<path transform="matrix(1,0,0,-1,.199,161.394)" stroke-width="1" stroke-linecap="butt" stroke-dasharray="2.98883,2.98883" stroke-miterlimit="10" stroke-linejoin="miter" fill="none" stroke="#000000" d="M 2.42842 -.20174 L 2.42842 .20174 "/>
<path transform="matrix(1,0,0,-1,.199,161.394)" stroke-width="1" stroke-linecap="butt" stroke-dasharray="2.98883,2.98883" stroke-miterlimit="10" stroke-linejoin="miter" fill="none" stroke="#000000" d="M 4.85684 -.20174 L 4.85684 .20174 "/>
<path transform="matrix(1,0,0,-1,.199,161.394)" stroke-width="1" stroke-linecap="butt" stroke-dasharray="2.98883,2.98883" stroke-miterlimit="10" stroke-linejoin="miter" fill="none" stroke="#000000" d="M 9.10658 -.20174 L 9.10658 .20174 "/>
<path transform="matrix(1,0,0,-1,.199,161.394)" stroke-width="1.19553" stroke-linecap="butt" stroke-miterlimit="10" stroke-linejoin="miter" fill="none" stroke="#000080" d="M 3.64262 -.04034 L 3.64262 .04034 "/>
<path transform="matrix(1,0,0,-1,.199,161.394)" stroke-width="1" stroke-linecap="butt" stroke-miterlimit="10" stroke-linejoin="miter" fill="none" stroke="#000000" d="M 3.76405 .08069 L 2.26657 .08069 "/>
<path transform="matrix(1,0,0,-1,2.46557,161.31331)" d="M 2.59026 0 L -1.55415 2.0722 L 0 0 L -1.55415 -2.0722 "/>
<path transform="matrix(1,0,0,-1,.199,161.394)" stroke-width="1" stroke-linecap="butt" stroke-miterlimit="10" stroke-linejoin="miter" fill="none" stroke="#000000" d="M 3.5212 .08069 L 5.01868 .08069 "/>
<path transform="matrix(-1,0,0,1,5.21768,161.31331)" d="M 2.59026 0 L -1.55415 2.0722 L 0 0 L -1.55415 -2.0722 "/>
<symbol id="font_1_1">
<path d="M .21100003 .63900008 C .21100003 .66400006 .21000001 .666 .18500003 .666 C .123 .60200008 .031000004 .60200008 0 .60200008 L 0 .57100006 C .019000002 .57100006 .080000009 .57100006 .134 .597 L .134 .080000009 C .134 .043 .13100001 .031000002 .03800001 .031000002 L .0060000049 .031000002 L .0060000049 0 C .042000005 .003 .13100001 .003 .17200002 .003 C .21300003 .003 .30300004 .003 .33900003 0 L .33900003 .031000002 L .307 .031000002 C .21400002 .031000002 .21100003 .043 .21100003 .080000009 L .21100003 .63900008 Z "/>
</symbol>
<use xlink:href="#font_1_1" transform="matrix(8.9664,0,0,-8.9664,3.039875,164.146)"/>
<use xlink:href="#font_1_1" transform="matrix(8.9664,0,0,-8.9664,1.8258753,164.146)"/>
<path transform="matrix(1,0,0,-1,.199,161.394)" stroke-width="1" stroke-linecap="butt" stroke-miterlimit="10" stroke-linejoin="miter" fill="none" stroke="#000080" d="M 84.99486 60.77261 C 85.36845 60.0254 86.2402 59.52727 87.48555 59.52727 L 94.6463 59.52727 C 95.89165 59.52727 96.7634 59.02914 97.137 58.28192 C 97.51057 59.02914 98.38234 59.52727 99.62769 59.52727 L 106.78842 59.52727 C 108.03377 59.52727 108.90552 60.0254 109.27911 60.77261 "/>
<symbol id="font_2_2">
<path d="M .358 .397 C .30600003 .395 .30100004 .35400004 .30100004 .344 C .30100004 .32700003 .31100003 .305 .342 .305 C .367 .305 .395 .32400004 .395 .36400003 C .395 .42900003 .323 .45900003 .257 .45900003 C .120000008 .45900003 0 .328 0 .18900001 C 0 .075 .082 0 .18200001 0 C .316 0 .367 .12100001 .367 .13000001 C .367 .13800001 .36 .14000002 .35500003 .14000002 C .34700004 .14000002 .34600003 .13800001 .34 .126 C .307 .058000003 .25 .025000003 .192 .025000003 C .143 .025000003 .081 .060000004 .081 .16800002 C .081 .30300004 .15300001 .43400003 .257 .43400003 C .27100004 .43400003 .32900004 .43200005 .358 .397 Z "/>
</symbol>
<symbol id="font_2_9">
<path d="M .45000006 .26500003 C .45000006 .37600003 .372 .45900003 .264 .45900003 C .12200001 .45900003 0 .32000003 0 .18700002 C 0 .083000008 .076000008 0 .18800001 0 C .321 0 .45000006 .120000008 .45000006 .26500003 M .192 .025000003 C .164 .025000003 .08 .035 .08 .15500002 C .08 .19200002 .09300001 .30200003 .12400001 .35300002 C .17300001 .43300004 .243 .43700005 .26000003 .43700005 C .29200004 .43700005 .37300004 .42200003 .37300004 .31000004 C .37300004 .28700004 .365 .17900002 .33 .113000009 C .29900003 .056 .24400002 .025000003 .192 .025000003 Z "/>
</symbol>
<symbol id="font_2_8">
<path d="M .198 .34300003 L .215 .44200004 L .072 .43100003 L .067 .4 C .124 .4 .138 .395 .138 .36800004 C .138 .35900004 .102 .143 .097 .113000009 C .094 .095000009 .088 .061000006 .087 .059000005 C .08 .031000002 .057 .031000002 .004999999 .031000002 L 0 0 C .033999999 .001 .087 .003 .113000009 .003 C .139 .003 .191 .001 .225 0 L .23000002 .031000002 C .18 .031000002 .157 .031000002 .157 .056 C .157 .059000005 .164 .097 .16700001 .117000009 C .17400001 .16100002 .18100001 .20500002 .18900001 .24900002 C .194 .282 .20300001 .33 .252 .377 C .282 .404 .32000003 .42000003 .35300002 .42000003 C .39200003 .42000003 .41200004 .4 .41200004 .35300002 C .41200004 .33800004 .41000004 .32700003 .40100003 .26900003 L .367 .069000009 C .361 .031000002 .345 .031000002 .28300003 .031000002 L .278 0 C .312 .001 .365 .003 .391 .003 C .41700004 .003 .46900005 .001 .503 0 L .508 .031000002 C .458 .031000002 .435 .031000002 .435 .056 C .435 .061000006 .451 .156 .45400004 .172 L .46900005 .261 C .473 .287 .47900004 .323 .47900004 .34 C .47900004 .416 .43 .44200004 .361 .44200004 C .268 .44200004 .214 .36800004 .199 .342 L .198 .34300003 Z "/>
</symbol>
<symbol id="font_2_d">
<path d="M .38600005 .34500004 C .39800004 .367 .423 .41000004 .48900006 .411 L .49400006 .44200004 C .47100006 .44000004 .442 .43900005 .419 .43900005 C .39300005 .43900005 .34700004 .441 .33300004 .44200004 L .32700003 .41200004 C .33 .41200004 .36800004 .41000004 .36800004 .37500004 C .36800004 .36200003 .36400003 .35500003 .35600005 .34100003 L .21300003 .089 L .14700002 .36600004 C .14700002 .36800004 .14500001 .37900005 .14500001 .381 C .14500001 .411 .18800003 .411 .20600003 .411 C .208 .42100004 .20900002 .43200005 .21100003 .44200004 C .18200001 .441 .124000009 .43900005 .101 .43900005 C .069 .43900005 .030000002 .441 .0060000049 .44200004 L 0 .411 C .059000009 .411 .06700001 .40700004 .07500001 .37100003 L .157 .022000002 C .16100002 .0070000009 .162 0 .17600003 0 C .18600002 0 .19200003 .0040000008 .201 .020000002 L .38600005 .34500004 Z "/>
</symbol>
<symbol id="font_2_4">
<path d="M .36700005 .24200002 C .39100004 .24200002 .393 .24200002 .39600004 .261 C .399 .28300003 .399 .29900003 .399 .305 C .399 .42300005 .32 .45900003 .24800001 .45900003 C .113000009 .45900003 0 .32400004 0 .19300002 C 0 .081 .082 0 .187 0 C .31 0 .37300004 .11400001 .37300004 .13100001 C .37300004 .135 .371 .14200002 .362 .14200002 C .35400004 .14200002 .352 .13800001 .347 .128 C .29900003 .036000004 .22000002 .025000003 .193 .025000003 C .147 .025000003 .08 .054 .08 .16200002 C .08 .19200002 .085999999 .22700002 .089 .24200002 L .36700005 .24200002 M .09300001 .263 C .128 .42200003 .223 .43700005 .24700003 .43700005 C .334 .43700005 .334 .33900003 .334 .31900005 C .334 .29700003 .333 .29000003 .329 .263 L .09300001 .263 Z "/>
</symbol>
<symbol id="font_2_a">
<path d="M .19600001 .33800004 L .21300002 .44200004 L .091000009 .43300004 C .073 .432 .072 .43 .07100001 .425 C .07100001 .42200003 .067 .402 .067 .4 C .12400001 .4 .13800001 .395 .13800001 .36800004 C .13800001 .367 .13800001 .36 .135 .342 L .09 .074 C .08400001 .036000004 .08 .031000002 .006000001 .031000002 L .004999999 .031000002 L 0 0 C .040000004 .001 .08600001 .003 .11500001 .003 C .12100001 .003 .20900002 .002 .24100003 0 C .24300003 .010000001 .24400002 .021000002 .24600002 .031000002 L .22700003 .031000002 C .16600001 .031000002 .15400002 .037 .15400002 .059000005 C .15400002 .07300001 .18600002 .25 .19100002 .27 C .20800002 .326 .24900002 .42000003 .34000004 .42000003 L .34000004 .41900004 C .32400004 .41200004 .31300003 .39400003 .31300003 .374 C .31300003 .344 .33800004 .337 .351 .337 C .37600003 .337 .40000005 .35700003 .40000005 .38700003 C .40000005 .41900004 .37300004 .44200004 .33400003 .44200004 C .27 .44200004 .22100002 .38900004 .19700001 .337 L .19600001 .33800004 Z "/>
</symbol>
<symbol id="font_2_5">
<path d="M .49800004 .63600006 C .49300004 .63400009 .47900004 .62100008 .47900004 .606 C .47900004 .595 .48700006 .58000007 .50600007 .58000007 C .51900008 .58000007 .53900006 .59000006 .53900006 .61600008 C .53900006 .62600007 .53300008 .65900006 .49400003 .65900006 C .45800004 .65900006 .41500003 .642 .381 .61200007 C .37100003 .62200006 .337 .64800009 .28 .64800009 C .18300002 .64800009 .094000007 .57100006 .094000007 .48200006 C .094000007 .444 .109000008 .41700004 .12500002 .40000005 C .11700001 .39200003 .079 .35200004 .079 .29700003 C .079 .263 .094000007 .24000001 .109000008 .22800002 C .041 .20900002 0 .16100002 0 .11600001 C 0 .051000015 .083000008 0 .20300001 0 C .298 0 .446 .040000008 .446 .15 C .446 .27100004 .31300003 .27100004 .21500002 .27100004 L .15900001 .27100004 C .13000001 .272 .113000009 .29700003 .113000009 .32500003 C .113000009 .33 .11400001 .36 .14000002 .38600005 C .172 .36 .21000001 .35500003 .23500002 .35500003 C .33400003 .35500003 .42100004 .43500004 .42100004 .521 C .42100004 .549 .41200004 .57400009 .395 .59700009 C .439 .637 .485 .637 .49800004 .637 L .49800004 .63600006 M .236 .37800003 C .20500002 .37800003 .165 .39600004 .165 .45500005 C .165 .463 .17000002 .536 .194 .57400009 C .216 .60800006 .25 .62500008 .279 .62500008 C .303 .62500008 .349 .61200007 .349 .54800006 C .349 .53900006 .34500004 .47100003 .32200004 .43200005 C .303 .397 .26700003 .37800003 .236 .37800003 M .20400001 .023000002 C .111 .023000002 .052 .067 .052 .11500001 C .052 .13800001 .065000008 .17100002 .09900001 .19400002 C .126 .21300002 .13700001 .21300002 .21000001 .21300002 C .298 .21300002 .393 .21300002 .393 .14000002 C .393 .07900001 .30600003 .023000002 .20400001 .023000002 Z "/>
</symbol>
<symbol id="font_2_b">
<path d="M .37300004 .43400003 C .37500004 .44300003 .37500004 .44500003 .37500004 .448 C .37500004 .45400004 .37200005 .45900003 .36400003 .45900003 C .36 .45900003 .35800005 .45900003 .34300003 .44600005 C .33100004 .43700005 .33 .43700005 .323 .43100003 C .29000003 .45900003 .24600002 .45900003 .23300001 .45900003 C .09 .45900003 .053000004 .36900003 .053000004 .321 C .053000004 .28700004 .069000009 .26400004 .08900001 .24700003 C .116000007 .22400002 .146 .21800003 .19300002 .20900002 C .23700002 .20000002 .29700003 .18800001 .29700003 .127 C .29700003 .093 .272 .022000002 .16600001 .022000002 C .117000009 .022000002 .058000007 .039 .052 .16000001 C .051000008 .17600002 .051000008 .18100001 .039000006 .18100001 C .029000003 .18100001 .028000005 .17800002 .025000003 .16000001 L .0020000004 .026 C 0 .017 0 .015000001 0 .011000001 C 0 .0040000008 .0040000008 0 .011000004 0 C .016000003 0 .017 .0010000002 .038000004 .021000002 C .044000009 .026 .058000007 .039 .063 .044 C .08900001 .010000001 .127 0 .16600001 0 C .31200005 0 .35000003 .106000009 .35000003 .158 C .35000003 .19600001 .33400003 .22100002 .316 .23800002 C .28700004 .268 .261 .27300004 .20700002 .28300003 C .162 .29200004 .10600001 .30300004 .10600001 .35300002 C .10600001 .35400004 .10600001 .44000004 .23300001 .44000004 C .25200004 .44000004 .33100004 .44000004 .33100004 .34900005 C .33100004 .33600004 .32900004 .323 .32900004 .32000003 C .32900004 .31100003 .33800004 .31000004 .34100003 .31000004 C .35200004 .31000004 .35300002 .316 .35600005 .33300004 L .37300004 .43400003 Z "/>
</symbol>
<use xlink:href="#font_2_2" transform="matrix(9.9626,0,0,-9.9626,-16.149508,163.01059)" fill="#000080"/>
<use xlink:href="#font_2_9" transform="matrix(9.9626,0,0,-9.9626,-11.79585,163.01059)" fill="#000080"/>
<use xlink:href="#font_2_8" transform="matrix(9.9626,0,0,-9.9626,-7.093503,162.901)" fill="#000080"/>
<use xlink:href="#font_2_d" transform="matrix(9.9626,0,0,-9.9626,-1.2952695,163.01059)" fill="#000080"/>
<use xlink:href="#font_2_4" transform="matrix(9.9626,0,0,-9.9626,3.4369653,163.01059)" fill="#000080"/>
<use xlink:href="#font_2_a" transform="matrix(9.9626,0,0,-9.9626,7.531594,162.901)" fill="#000080"/>
<use xlink:href="#font_2_5" transform="matrix(9.9626,0,0,-9.9626,11.297457,164.9533)" fill="#000080"/>
<use xlink:href="#font_2_4" transform="matrix(9.9626,0,0,-9.9626,16.747,163.01059)" fill="#000080"/>
<use xlink:href="#font_2_b" transform="matrix(9.9626,0,0,-9.9626,20.901404,163.01059)" fill="#000080"/>
<path transform="matrix(1,0,0,-1,.199,161.394)" d="M 4.77658 0 C 4.77658 1.29686 3.72528 2.34814 2.42842 2.34814 C 1.13155 2.34814 .08026 1.29686 .08026 0 C .08026 -1.29686 1.13155 -2.34814 2.42842 -2.34814 C 3.72528 -2.34814 4.77658 -1.29686 4.77658 0 Z M 2.42842 0 " fill="#ffffff"/>
<path transform="matrix(1,0,0,-1,.199,161.394)" stroke-width="1" stroke-linecap="butt" stroke-miterlimit="10" stroke-linejoin="miter" fill="none" stroke="#008000" d="M 4.77658 0 C 4.77658 1.29686 3.72528 2.34814 2.42842 2.34814 C 1.13155 2.34814 .08026 1.29686 .08026 0 C .08026 -1.29686 1.13155 -2.34814 2.42842 -2.34814 C 3.72528 -2.34814 4.77658 -1.29686 4.77658 0 Z M 2.42842 0 "/>
<path transform="matrix(1,0,0,-1,.199,161.394)" d="M 7.205 0 C 7.205 1.29686 6.1537 2.34814 4.85684 2.34814 C 3.55998 2.34814 2.50868 1.29686 2.50868 0 C 2.50868 -1.29686 3.55998 -2.34814 4.85684 -2.34814 C 6.1537 -2.34814 7.205 -1.29686 7.205 0 Z M 4.85684 0 " fill="#000080"/>
<path transform="matrix(1,0,0,-1,.199,161.394)" stroke-width="1" stroke-linecap="butt" stroke-miterlimit="10" stroke-linejoin="miter" fill="none" stroke="#000080" d="M 7.205 0 C 7.205 1.29686 6.1537 2.34814 4.85684 2.34814 C 3.55998 2.34814 2.50868 1.29686 2.50868 0 C 2.50868 -1.29686 3.55998 -2.34814 4.85684 -2.34814 C 6.1537 -2.34814 7.205 -1.29686 7.205 0 Z M 4.85684 0 "/>
<path transform="matrix(1,0,0,-1,.199,161.394)" stroke-width="1" stroke-linecap="butt" stroke-miterlimit="10" stroke-linejoin="miter" fill="none" stroke="#000000" d="M 3.76405 .04034 L 6.51633 .04034 "/>
<path transform="matrix(1,0,0,-1,6.7153298,161.35366)" d="M 2.59026 0 L -1.55415 2.0722 L 0 0 L -1.55415 -2.0722 "/>
<path transform="matrix(1,0,0,-1,.199,161.394)" stroke-width="1" stroke-linecap="butt" stroke-miterlimit="10" stroke-linejoin="miter" fill="none" stroke="#000000" d="M 3.5212 .04034 L .76894 .04034 "/>
<path transform="matrix(-1,0,0,1,.96794,161.35366)" d="M 2.59026 0 L -1.55415 2.0722 L 0 0 L -1.55415 -2.0722 "/>
<symbol id="font_1_2">
<path d="M .12900001 .47600005 C .09900001 .49500004 .076000008 .522 .076000008 .559 C .076000008 .6240001 .14600002 .66300007 .21200003 .66300007 C .289 .66300007 .351 .609 .351 .53900006 C .351 .46900005 .291 .42300005 .251 .40000005 L .12900001 .47600005 M .276 .38400004 C .326 .40800003 .39900003 .45800004 .39900003 .53900006 C .39900003 .633 .305 .688 .21500002 .688 C .110000018 .688 .028 .61300006 .028 .521 C .028 .48300005 .042 .44700004 .066 .41800005 C .083000008 .39900003 .089 .39500005 .14700002 .35800005 C .059000005 .316 0 .25500003 0 .17300001 C 0 .067 .105000007 0 .21300002 0 C .329 0 .42700003 .082 .42700003 .19000001 C .42700003 .28700004 .35300002 .33500005 .328 .35100005 C .317 .35900004 .28800003 .37700004 .276 .38400004 M .17400001 .34100003 L .3 .263 C .323 .24800001 .373 .216 .373 .155 C .373 .076000008 .293 .028 .214 .028 C .127 .028 .054 .09 .054 .17300001 C .054 .245 .104 .30500005 .17400001 .34100003 Z "/>
</symbol>
<use xlink:href="#font_1_2" transform="matrix(8.9664,0,0,-8.9664,4.776555,164.38327)"/>
<use xlink:href="#font_1_2" transform="matrix(8.9664,0,0,-8.9664,-.8084448,164.38327)"/>
<path transform="matrix(1,0,0,-1,.199,161.394)" stroke-width="1" stroke-linecap="butt" stroke-miterlimit="10" stroke-linejoin="miter" fill="none" stroke="#800000" d="M 151.77655 60.77261 C 152.15013 60.0254 153.0219 59.52727 154.26725 59.52727 L 170.53458 59.52727 C 171.77993 59.52727 172.65167 59.02914 173.02527 58.28192 C 173.39885 59.02914 174.27062 59.52727 175.51596 59.52727 L 191.7833 59.52727 C 193.02864 59.52727 193.90039 60.0254 194.27399 60.77261 "/>
<symbol id="font_2_3">
<path d="M .498 .705 L .372 .695 C .37 .695 .35500003 .694 .35400004 .693 C .351 .691 .34700004 .666 .34700004 .663 C .404 .663 .418 .658 .418 .631 C .418 .63 .418 .623 .41500003 .605 L .379 .39000003 C .36900003 .40600003 .335 .45300005 .26200003 .45300005 C .13200002 .45300005 0 .335 0 .18900001 C 0 .07000001 .08500001 0 .179 0 C .26000003 0 .314 .057000005 .321 .064 L .31100003 0 L .44000004 .010000001 C .442 .010000001 .45700006 .011000001 .45800004 .012000001 C .461 .014 .465 .039 .465 .042000005 C .40600003 .042000005 .39400003 .047000003 .39400003 .074 C .39400003 .076000008 .39400003 .083000008 .397 .101 L .498 .705 M .33200003 .12900001 C .32900004 .11000001 .32900004 .109000008 .312 .08800001 C .28100003 .051000004 .23400003 .022000002 .18400002 .022000002 C .14500001 .022000002 .07900001 .046 .07900001 .15400002 C .07900001 .17300001 .08400001 .286 .133 .35600005 C .171 .40800003 .224 .43100003 .26500003 .43100003 C .34600003 .43100003 .36900003 .358 .36900003 .35200004 C .36900003 .34900005 .36900003 .34700004 .367 .33600004 L .33200003 .12900001 Z "/>
</symbol>
<symbol id="font_2_6">
<path d="M .25200004 .623 C .25200004 .646 .23500002 .669 .20500002 .669 C .17700002 .669 .14500001 .64500007 .14500001 .609 C .14500001 .58000007 .16600001 .563 .192 .563 C .22300002 .563 .25200004 .592 .25200004 .623 M .095000009 .43300004 C .07700001 .432 .076000008 .43 .075 .425 C .075 .42200003 .071 .402 .071 .4 C .125 .4 .13800001 .395 .13800001 .36800004 C .13800001 .367 .13800001 .36 .13500002 .342 L .09 .074 C .08400001 .036000004 .080000009 .031000002 .006000001 .031000002 L .0050000029 .031000002 L 0 0 C .032000007 .001 .086 .003 .11000001 .003 C .14700002 .003 .185 .001 .213 0 L .21900001 .031000002 C .17400003 .031000002 .15400002 .031000002 .15400002 .055000005 C .15400002 .060000004 .15400002 .062000004 .157 .078 L .21800003 .44200004 L .095000009 .43300004 Z "/>
</symbol>
<use xlink:href="#font_2_3" transform="matrix(9.9626,0,0,-9.9626,-5.074506,164.31659)" fill="#800000"/>
<use xlink:href="#font_2_6" transform="matrix(9.9626,0,0,-9.9626,.1259717,164.207)" fill="#800000"/>
<use xlink:href="#font_2_d" transform="matrix(9.9626,0,0,-9.9626,3.4235926,164.31659)" fill="#800000"/>
<use xlink:href="#font_2_4" transform="matrix(9.9626,0,0,-9.9626,8.1558279,164.31659)" fill="#800000"/>
<use xlink:href="#font_2_a" transform="matrix(9.9626,0,0,-9.9626,12.250457,164.207)" fill="#800000"/>
<use xlink:href="#font_2_5" transform="matrix(9.9626,0,0,-9.9626,16.01632,166.2593)" fill="#800000"/>
<use xlink:href="#font_2_4" transform="matrix(9.9626,0,0,-9.9626,21.465863,164.31659)" fill="#800000"/>
<use xlink:href="#font_2_b" transform="matrix(9.9626,0,0,-9.9626,25.610304,164.31659)" fill="#800000"/>
<path transform="matrix(1,0,0,-1,.199,161.394)" stroke-width="1" stroke-linecap="butt" stroke-miterlimit="10" stroke-linejoin="miter" fill="none" stroke="#800000" d="M 42.49742 60.77261 C 42.12384 60.0254 41.25208 59.52727 40.00673 59.52727 L 23.7394 59.52727 C 22.49405 59.52727 21.6223 59.02914 21.2487 58.28192 C 20.87512 59.02914 20.00336 59.52727 18.75801 59.52727 L 2.49069 59.52727 C 1.24535 59.52727 .37358 60.0254 0 60.77261 "/>
<use xlink:href="#font_2_3" transform="matrix(9.9626,0,0,-9.9626,-20.859507,164.31659)" fill="#800000"/>
<use xlink:href="#font_2_6" transform="matrix(9.9626,0,0,-9.9626,-15.659029,164.207)" fill="#800000"/>
<use xlink:href="#font_2_d" transform="matrix(9.9626,0,0,-9.9626,-12.361408,164.31659)" fill="#800000"/>
<use xlink:href="#font_2_4" transform="matrix(9.9626,0,0,-9.9626,-7.629174,164.31659)" fill="#800000"/>
<use xlink:href="#font_2_a" transform="matrix(9.9626,0,0,-9.9626,-3.5345453,164.207)" fill="#800000"/>
<use xlink:href="#font_2_5" transform="matrix(9.9626,0,0,-9.9626,.23131763,166.2593)" fill="#800000"/>
<use xlink:href="#font_2_4" transform="matrix(9.9626,0,0,-9.9626,5.6808598,164.31659)" fill="#800000"/>
<use xlink:href="#font_2_b" transform="matrix(9.9626,0,0,-9.9626,9.825302,164.31659)" fill="#800000"/>
<path transform="matrix(1,0,0,-1,.199,161.394)" d="M .52682 0 C .52682 1.29686 -.52444 2.34814 -1.8213 2.34814 C -3.11818 2.34814 -4.16946 1.29686 -4.16946 0 C -4.16946 -1.29686 -3.11818 -2.34814 -1.8213 -2.34814 C -.52444 -2.34814 .52682 -1.29686 .52682 0 Z M -1.8213 0 " fill="#800000"/>
<path transform="matrix(1,0,0,-1,.199,161.394)" stroke-width="1" stroke-linecap="butt" stroke-miterlimit="10" stroke-linejoin="miter" fill="none" stroke="#800000" d="M .52682 0 C .52682 1.29686 -.52444 2.34814 -1.8213 2.34814 C -3.11818 2.34814 -4.16946 1.29686 -4.16946 0 C -4.16946 -1.29686 -3.11818 -2.34814 -1.8213 -2.34814 C -.52444 -2.34814 .52682 -1.29686 .52682 0 Z M -1.8213 0 "/>
<path transform="matrix(1,0,0,-1,.199,161.394)" d="M 11.45474 0 C 11.45474 1.29686 10.40346 2.34814 9.10658 2.34814 C 7.80972 2.34814 6.75842 1.29686 6.75842 0 C 6.75842 -1.29686 7.80972 -2.34814 9.10658 -2.34814 C 10.40346 -2.34814 11.45474 -1.29686 11.45474 0 Z M 9.10658 0 " fill="#ffffff"/>
<path transform="matrix(1,0,0,-1,.199,161.394)" stroke-width="1" stroke-linecap="butt" stroke-miterlimit="10" stroke-linejoin="miter" fill="none" stroke="#008000" d="M 11.45474 0 C 11.45474 1.29686 10.40346 2.34814 9.10658 2.34814 C 7.80972 2.34814 6.75842 1.29686 6.75842 0 C 6.75842 -1.29686 7.80972 -2.34814 9.10658 -2.34814 C 10.40346 -2.34814 11.45474 -1.29686 11.45474 0 Z M 9.10658 0 "/>
<path transform="matrix(1,0,0,-1,.199,161.394)" stroke-width="1" stroke-linecap="butt" stroke-miterlimit="10" stroke-linejoin="miter" fill="none" stroke="#008000" d="M 42.49742 100.62375 C 42.87102 101.37096 43.74277 101.8691 44.98811 101.8691 L 61.25545 101.8691 C 62.5008 101.8691 63.37256 102.36722 63.74614 103.11444 C 64.11974 102.36722 64.99149 101.8691 66.23683 101.8691 L 82.50417 101.8691 C 83.74951 101.8691 84.62128 101.37096 84.99486 100.62375 "/>
<path transform="matrix(1,0,0,-1,.199,161.394)" stroke-width="1" stroke-linecap="butt" stroke-miterlimit="10" stroke-linejoin="miter" fill="none" stroke="#008000" d="M 109.27911 100.62375 C 109.6527 101.37096 110.52446 101.8691 111.7698 101.8691 L 128.03714 101.8691 C 129.28249 101.8691 130.15424 102.36722 130.52783 103.11444 C 130.90142 102.36722 131.77318 101.8691 133.01853 101.8691 L 149.28586 101.8691 C 150.5312 101.8691 151.40296 101.37096 151.77655 100.62375 "/>
<symbol id="font_2_7">
<path d="M .754 .303 C .757 .321 .757 .324 .757 .34 C .757 .416 .708 .44200004 .639 .44200004 C .56 .44200004 .50600007 .38900004 .48000003 .34500004 C .476 .432 .405 .44200004 .361 .44200004 C .268 .44200004 .214 .36800004 .199 .342 L .198 .34300003 L .215 .44200004 L .09200001 .432 C .09 .432 .075 .43100003 .074 .43 C .07100001 .42800004 .067 .40300004 .067 .4 C .124 .4 .138 .395 .138 .36800004 C .138 .367 .138 .36 .135 .342 L .09 .074 C .08400001 .036000004 .08 .031000002 .006000001 .031000002 L .004999999 .031000002 L 0 0 C .033999999 .001 .087 .003 .113000009 .003 C .138 .003 .192 .001 .224 0 L .23000002 .031000002 C .18 .031000002 .157 .031000002 .157 .056 C .157 .059000005 .164 .097 .16700001 .117000009 C .17400001 .16100002 .18100001 .20500002 .18900001 .24900002 C .194 .282 .20300001 .33 .252 .377 C .282 .404 .32000003 .42000003 .35300002 .42000003 C .39200003 .42000003 .41200004 .4 .41200004 .35300002 C .41200004 .33800004 .41000004 .32700003 .40100003 .26900003 L .367 .069000009 C .361 .031000002 .345 .031000002 .284 .031000002 L .28300003 .031000002 L .278 0 C .312 .001 .365 .003 .391 .003 C .416 .003 .47000004 .001 .50200006 0 L .508 .031000002 C .458 .031000002 .435 .031000002 .435 .056 C .435 .059000005 .44200004 .097 .44500003 .117000009 C .45200003 .16100002 .45900003 .20500002 .467 .24900002 C .472 .282 .481 .33 .53000006 .377 C .56 .404 .59800007 .42000003 .63100007 .42000003 C .67 .42000003 .69000008 .4 .69000008 .35300002 C .69000008 .33800004 .688 .32700003 .679 .26900003 L .64500007 .069000009 C .639 .031000002 .623 .031000002 .56200006 .031000002 L .56100007 .031000002 L .556 0 C .59000006 .001 .643 .003 .669 .003 C .694 .003 .748 .001 .78000006 0 L .786 .031000002 C .736 .031000002 .71300008 .031000002 .71300008 .056 C .71300008 .060000004 .71400007 .066 .71500006 .071 L .754 .303 Z "/>
</symbol>
<symbol id="font_2_1">
<path d="M .435 .15600002 C .43100003 .13000001 .42400003 .08800001 .421 .079 C .41300003 .049000004 .39400003 .036000004 .379 .036000004 C .35700003 .036000004 .35 .058000003 .35 .077 C .35 .087000008 .359 .136 .361 .14900002 C .367 .18100001 .39000003 .31100003 .39000003 .33300004 C .39000003 .40900005 .322 .45900003 .238 .45900003 C .137 .45900003 .069 .39400003 .069 .33800004 C .069 .321 .079 .29900003 .11000001 .29900003 C .139 .29900003 .162 .323 .162 .351 C .162 .37700004 .144 .39000003 .12 .39100004 C .151 .42600004 .20500002 .43700005 .23500002 .43700005 C .292 .43700005 .322 .39000003 .322 .34000004 C .322 .33 .315 .27600003 .31100003 .27300004 C .30900003 .272 .307 .272 .284 .27100004 C .11900001 .26500003 0 .18600002 0 .093 C 0 .016 .09700001 0 .14500001 0 C .234 0 .28100003 .07000001 .289 .08400001 C .289 .015000001 .33200003 .005000001 .35300002 .005000001 C .382 .005000001 .43800003 .025000003 .45000003 .098000008 C .45300005 .111 .45400004 .119 .46 .15600002 L .435 .15600002 M .294 .16100002 C .289 .13100001 .284 .1 .24599999 .063 C .222 .039 .187 .022000002 .15200001 .022000002 C .109000008 .022000002 .077 .05 .077 .091000009 C .077 .092 .077 .24100001 .30900003 .25100003 L .294 .16100002 Z "/>
</symbol>
<symbol id="font_2_e">
<path d="M .47500003 .541 C .499 .582 .52800008 .60300007 .577 .605 L .5820001 .63600006 C .55100008 .633 .53700008 .633 .508 .633 C .48200003 .633 .43600003 .635 .42200003 .63600006 L .416 .60600009 C .423 .60600009 .45700003 .602 .45700003 .57000008 C .45700003 .55700007 .449 .544 .444 .535 L .303 .29200004 L .23700002 .56000009 C .23600002 .564 .23400001 .57100006 .23400001 .57500007 C .23400001 .605 .276 .605 .29500003 .605 C .296 .61300006 .299 .62700006 .3 .63600006 C .27 .635 .21400002 .633 .19100002 .633 C .16100002 .633 .12100001 .63400009 .095000009 .63600006 L .089 .605 C .15 .605 .15500002 .6 .16300002 .569 L .24900002 .22100002 C .25100003 .21200001 .252 .20800002 .252 .20600002 C .252 .20300001 .20000002 .11100001 .18200001 .087000008 C .15900001 .055000009 .12500002 .022 .084 .022 C .072000008 .022 .053 .025000006 .039 .040000008 C .074 .044 .086 .07100001 .086 .09000001 C .086 .11600001 .066 .12400001 .05 .12400001 C .028 .12400001 0 .10700001 0 .07000001 C 0 .029 .035 0 .080000009 0 C .16100002 0 .21900001 .10000001 .22500003 .11000001 L .47500003 .541 Z "/>
</symbol>
<symbol id="font_2_c">
<path d="M .15400002 .411 L .29700003 .411 C .29900003 .42100004 .3 .43200005 .30200003 .44200004 L .15900001 .44200004 L .18900001 .626 L .164 .626 C .148 .532 .095000009 .43600003 .0029999987 .43300004 L 0 .411 L .084 .411 L .038999998 .13800001 C .036000007 .120000008 .036000007 .11800001 .036000007 .105000007 C .036000007 .008000001 .117000009 0 .14700002 0 C .194 0 .22500003 .031000004 .24300003 .065000008 C .261 .096 .263 .109000008 .27600003 .19200002 L .25100003 .19200002 C .23900002 .119 .23700002 .105000007 .224 .079 C .21600002 .064 .19300002 .025000003 .155 .025000003 C .11300001 .025000003 .10300001 .064 .10300001 .093 C .10300001 .104 .10400001 .108 .10500001 .115 L .15400002 .411 Z "/>
</symbol>
<use xlink:href="#font_2_7" transform="matrix(9.9626,0,0,-9.9626,-51.077199,163.16699)" fill="#008000"/>
<use xlink:href="#font_2_1" transform="matrix(9.9626,0,0,-9.9626,-42.529287,163.27658)" fill="#008000"/>
<use xlink:href="#font_2_e" transform="matrix(9.9626,0,0,-9.9626,-38.424695,165.20932)" fill="#008000"/>
<use xlink:href="#font_2_9" transform="matrix(9.9626,0,0,-9.9626,-29.209288,163.27658)" fill="#008000"/>
<use xlink:href="#font_2_a" transform="matrix(9.9626,0,0,-9.9626,-24.54679,163.16699)" fill="#008000"/>
<use xlink:href="#font_2_7" transform="matrix(9.9626,0,0,-9.9626,-17.284052,163.16699)" fill="#008000"/>
<use xlink:href="#font_2_1" transform="matrix(9.9626,0,0,-9.9626,-8.736141,163.27658)" fill="#008000"/>
<use xlink:href="#font_2_e" transform="matrix(9.9626,0,0,-9.9626,-4.63155,165.20932)" fill="#008000"/>
<use xlink:href="#font_2_8" transform="matrix(9.9626,0,0,-9.9626,4.304902,163.16699)" fill="#008000"/>
<use xlink:href="#font_2_9" transform="matrix(9.9626,0,0,-9.9626,10.113098,163.27658)" fill="#008000"/>
<use xlink:href="#font_2_c" transform="matrix(9.9626,0,0,-9.9626,15.353425,163.27658)" fill="#008000"/>
<use xlink:href="#font_2_2" transform="matrix(9.9626,0,0,-9.9626,22.367096,163.27658)" fill="#008000"/>
<use xlink:href="#font_2_9" transform="matrix(9.9626,0,0,-9.9626,26.720753,163.27658)" fill="#008000"/>
<use xlink:href="#font_2_8" transform="matrix(9.9626,0,0,-9.9626,31.423102,163.16699)" fill="#008000"/>
<use xlink:href="#font_2_d" transform="matrix(9.9626,0,0,-9.9626,37.221338,163.27658)" fill="#008000"/>
<use xlink:href="#font_2_4" transform="matrix(9.9626,0,0,-9.9626,41.95357,163.27658)" fill="#008000"/>
<use xlink:href="#font_2_a" transform="matrix(9.9626,0,0,-9.9626,46.0482,163.16699)" fill="#008000"/>
<use xlink:href="#font_2_5" transform="matrix(9.9626,0,0,-9.9626,49.81406,165.21929)" fill="#008000"/>
<use xlink:href="#font_2_4" transform="matrix(9.9626,0,0,-9.9626,55.263605,163.27658)" fill="#008000"/>
</g>
</svg>
