<?xml version="1.0" encoding="UTF-8" standalone="no"?>
<!DOCTYPE svg PUBLIC "-//W3C//DTD SVG 1.1//EN" "http://www.w3.org/Graphics/SVG/1.1/DTD/svg11.dtd">
<svg xmlns="http://www.w3.org/2000/svg" xmlns:xlink="http://www.w3.org/1999/xlink" version="1.1" width="399.975pt" height="184.471pt" viewBox="0 0 399.975 184.471">
<clipPath id="cp0">
<path transform="matrix(1,0,0,-1,.199,184.27199)" d="M 0 0 L 387.1725 0 L 387.1725 171.16819 L 0 171.16819 Z "/>
</clipPath>
<g clip-path="url(#cp0)">
<path transform="matrix(1,0,0,-1,.199,184.27199)" d="M 64.52875 116.39436 L 333.39854 116.39436 L 333.39854 28.52803 L 64.52875 28.52803 Z " fill="#cccce6"/>
<path transform="matrix(1,0,0,-1,.199,184.27199)" stroke-width="1" stroke-linecap="butt" stroke-miterlimit="10" stroke-linejoin="miter" fill="none" stroke="#000080" d="M 64.52875 116.39436 L 333.39854 116.39436 L 333.39854 28.52803 L 64.52875 28.52803 Z "/>
<path transform="matrix(1,0,0,-1,.199,184.27199)" stroke-width="1.59404" stroke-linecap="butt" stroke-miterlimit="10" stroke-linejoin="miter" fill="none" stroke="#000080" d="M 0 119.7792 C 0 119.7792 11.65556 113.59235 16.13219 111.26472 C 20.6088 108.93712 27.78775 105.15811 32.26437 103.00331 C 36.74098 100.84851 43.91994 97.52359 48.39656 95.73436 C 52.87317 93.94513 60.05212 91.37169 64.52875 90.10777 C 69.00536 88.84386 76.18431 87.25058 80.66093 86.62479 C 85.13754 85.999 92.3165 85.52922 96.79312 85.5975 C 101.26973 85.66577 108.44868 86.36064 112.92531 87.1169 C 117.40192 87.87314 124.58087 89.67133 129.0575 91.04807 C 133.5341 92.4248 140.71306 95.16534 145.18968 97.0395 C 149.66629 98.91367 156.84525 102.35147 161.32187 104.5558 C 165.79848 106.76012 172.97743 110.58946 177.45406 112.92677 C 181.93068 115.2641 189.10962 119.13997 193.58625 121.4016 C 198.06287 123.66322 205.2418 127.24307 209.71843 129.22711 C 214.19506 131.21115 221.374 134.17234 225.85062 135.70128 C 230.32724 137.23021 237.50618 139.30908 241.9828 140.24665 C 246.45943 141.18422 253.63837 142.19629 258.115 142.45871 C 262.5916 142.72112 269.77055 142.57424 274.2472 142.13805 C 278.7238 141.70186 285.90278 140.41086 290.37937 139.31493 C 294.856 138.21898 302.03495 135.89719 306.51155 134.23921 C 310.98817 132.58124 318.16716 129.43703 322.64375 127.36539 C 327.12037 125.29376 334.29933 121.6083 338.7759 119.30821 C 343.25257 117.0081 350.4315 113.11108 354.9081 110.78773 C 359.38475 108.46439 366.5637 104.70229 371.0403 102.56313 C 375.5169 100.42395 387.1725 95.37006 387.1725 95.37006 "/>
<path transform="matrix(1,0,0,-1,.199,184.27199)" stroke-width="1" stroke-linecap="butt" stroke-miterlimit="10" stroke-linejoin="miter" fill="none" stroke="#000000" d="M 61.6939 31.38083 C 60.94669 31.75441 60.44855 32.62617 60.44855 33.87152 L 60.44855 70.25578 C 60.44855 71.50113 59.95042 72.3729 59.2032 72.74648 C 59.95042 73.12007 60.44855 73.99182 60.44855 75.23717 L 60.44855 111.62143 C 60.44855 112.86678 60.94669 113.73854 61.6939 114.11212 "/>
<path transform="matrix(1,0,0,-1,.199,184.27199)" stroke-width="1" stroke-linecap="butt" stroke-miterlimit="10" stroke-linejoin="miter" fill="none" stroke="#000000" d="M 64.52875 24.26677 C 64.90233 23.51956 65.7741 23.02142 67.01944 23.02142 L 196.47295 23.02142 C 197.71829 23.02142 198.59004 22.5233 198.96364 21.77608 C 199.33722 22.5233 200.20899 23.02142 201.45433 23.02142 L 330.90785 23.02142 C 332.15318 23.02142 333.02497 23.51956 333.39854 24.26677 "/>
<path transform="matrix(1,0,0,-1,129.518,97.02399)" stroke-width="1" stroke-linecap="butt" stroke-miterlimit="10" stroke-linejoin="miter" fill="none" stroke="#000000" d="M 0 0 L 12.179 0 "/>
<symbol id="font_1_4">
<path d="M .395 .606 C .41500003 .606 .42300005 .606 .42300005 .62500008 C .42300005 .63500007 .41500003 .63500007 .397 .63500007 L .316 .63500007 C .335 .73800006 .349 .809 .35700003 .841 C .36300005 .865 .38400004 .888 .41000004 .888 C .43100003 .888 .45200003 .879 .462 .87 C .42300005 .86600008 .411 .837 .411 .82000008 C .411 .8 .42600004 .78800007 .44500003 .78800007 C .46500004 .78800007 .495 .805 .495 .84300008 C .495 .88500007 .453 .90800008 .409 .90800008 C .36600004 .90800008 .32400004 .87600007 .30400003 .837 C .286 .80200007 .27600003 .76600006 .25300003 .63500007 L .18600002 .63500007 C .16700001 .63500007 .157 .63500007 .157 .61700007 C .157 .606 .16300002 .606 .18300002 .606 L .24700001 .606 C .229 .513 .18800001 .287 .165 .18 C .14800002 .093 .13300002 .019999996 .083000008 .019999996 C .08000001 .019999996 .051000004 .019999996 .033000005 .039000006 C .08400001 .042999999 .08400001 .087000008 .08400001 .08800001 C .08400001 .10800001 .069000009 .120000008 .05 .120000008 C .029999998 .120000008 0 .10300001 0 .065 C 0 .022 .044000005 0 .083000008 0 C .18500002 0 .22700003 .18300002 .238 .23300001 C .256 .31 .305 .57600006 .31000004 .606 L .395 .606 Z "/>
</symbol>
<use xlink:href="#font_1_4" transform="matrix(20.6625,0,0,-20.6625,130.5718,118.48114)"/>
<symbol id="font_2_1">
<path d="M .21600002 .0059999825 C .21600002 .0069999846 .21600002 .008999988 .213 .0119999949 C .167 .058999987 .044 .187 .044 .499 C .044 .81100007 .16500002 .938 .21400002 .98800006 C .21400002 .989 .21600002 .99100008 .21600002 .994 C .21600002 .99700006 .213 .999 .20900002 .999 C .19800002 .999 .113000009 .925 .06400001 .815 C .013999999 .704 0 .596 0 .5 C 0 .428 .0069999995 .306 .067 .17699999 C .11500001 .073 .197 0 .20900002 0 C .21400002 0 .21600002 .0019999892 .21600002 .0059999825 Z "/>
</symbol>
<use xlink:href="#font_2_1" transform="matrix(20.6625,0,0,-20.6625,143.55562,119.43162)"/>
<symbol id="font_1_2">
<path d="M .186 .679 C .187 .683 .18900001 .689 .18900001 .694 C .18900001 .704 .179 .704 .17700002 .704 C .17600002 .704 .14 .70100006 .12200001 .699 C .105000007 .698 .09 .69600006 .072000008 .69500008 C .048 .693 .041 .69200006 .041 .674 C .041 .66400006 .051 .66400006 .061000006 .66400006 C .112 .66400006 .112 .65500006 .112 .64500007 C .112 .638 .104 .609 .10000001 .591 L .076000008 .495 C .06600001 .455 .009 .22800002 .004999999 .21000001 C 0 .18500002 0 .16800002 0 .15500002 C 0 .053000004 .057000005 0 .12200001 0 C .23800002 0 .35800005 .14900002 .35800005 .294 C .35800005 .386 .306 .451 .23100002 .451 C .179 .451 .132 .40800003 .113000009 .388 L .186 .679 M .12300001 .020000002 C .091000009 .020000002 .056 .044000005 .056 .122 C .056 .15500002 .059 .17400001 .07700001 .24400002 C .08 .257 .096 .321 .10000001 .334 C .102 .342 .16100002 .43100003 .22900002 .43100003 C .273 .43100003 .29300005 .387 .29300005 .335 C .29300005 .287 .265 .17400001 .24000003 .122 C .21500002 .068 .16900002 .020000002 .12300001 .020000002 Z "/>
</symbol>
<use xlink:href="#font_1_2" transform="matrix(20.6625,0,0,-20.6625,149.94281,114.47262)"/>
<symbol id="font_3_1">
<path d="M .57600006 0 C .59300008 0 .611 0 .611 .019999996 C .611 .040000008 .59300008 .040000008 .57600006 .040000008 L .035000005 .040000008 C .018 .040000008 0 .040000008 0 .019999996 C 0 0 .018 0 .035000005 0 L .57600006 0 Z "/>
</symbol>
<use xlink:href="#font_3_1" transform="matrix(20.6625,0,0,-20.6625,163.92198,109.51362)"/>
<symbol id="font_1_1">
<path d="M .26100005 .12900001 C .256 .112 .256 .11 .242 .091 C .22000002 .063 .176 .020000002 .12900001 .020000002 C .088 .020000002 .065 .057000005 .065 .116000007 C .065 .17100002 .096 .283 .114999998 .32500003 C .149 .395 .19600001 .43100003 .235 .43100003 C .30100004 .43100003 .314 .349 .314 .34100003 C .314 .34 .31100003 .327 .31000004 .32500003 L .26100005 .12900001 M .32500003 .38500003 C .314 .411 .28700004 .451 .235 .451 C .121999997 .451 0 .305 0 .157 C 0 .058000003 .058000003 0 .126 0 C .18100001 0 .228 .043 .256 .076 C .26600004 .017 .31300003 0 .34300003 0 C .37300004 0 .397 .018000002 .41500003 .054000006 C .43100003 .088 .44500003 .14900002 .44500003 .15300001 C .44500003 .158 .44100005 .16200002 .43500004 .16200002 C .42600004 .16200002 .42500005 .157 .42100004 .142 C .40600003 .083000008 .38700003 .020000002 .34600003 .020000002 C .31700004 .020000002 .31500004 .046000005 .31500004 .066 C .31500004 .089 .31800003 .1 .32700003 .13900002 C .33400003 .16400002 .33900003 .18600002 .34700004 .21500002 C .38400004 .365 .39300005 .40100003 .39300005 .407 C .39300005 .421 .38200004 .432 .367 .432 C .33500005 .432 .32700003 .397 .32500003 .38500003 Z "/>
</symbol>
<use xlink:href="#font_1_1" transform="matrix(20.6625,0,0,-20.6625,183.6965,114.47262)"/>
<symbol id="font_2_2">
<path d="M .216 .499 C .216 .571 .209 .693 .149 .822 C .100999999 .92600008 .018999998 .999 .0069999995 .999 C .0040000008 .999 0 .998 0 .99300006 C 0 .99100008 .0009999983 .99 .0020000004 .98800006 C .05 .938 .172 .81100007 .172 .5 C .172 .188 .051000004 .06099999 .0020000004 .0109999929 C .0009999983 .008999988 0 .007999986 0 .0059999825 C 0 .0009999871 .0040000008 0 .0069999995 0 C .018000003 0 .103 .073999989 .15200001 .184 C .202 .29500003 .216 .403 .216 .499 Z "/>
</symbol>
<symbol id="font_2_3">
<path d="M .597 .178 C .61200007 .178 .62700006 .178 .62700006 .19500003 C .62700006 .213 .61 .213 .59300008 .213 L .034 .213 C .016999998 .213 0 .213 0 .19500003 C 0 .178 .015000001 .178 .030000002 .178 L .597 .178 M .59300008 0 C .61 0 .62700006 0 .62700006 .018000007 C .62700006 .034999998 .61200007 .034999998 .597 .034999998 L .030000002 .034999998 C .015000001 .034999998 0 .034999998 0 .018000007 C 0 0 .016999998 0 .034 0 L .59300008 0 Z "/>
</symbol>
<use xlink:href="#font_2_2" transform="matrix(20.6625,0,0,-20.6625,194.46112,119.43162)"/>
<use xlink:href="#font_2_3" transform="matrix(20.6625,0,0,-20.6625,207.49916,111.31126)"/>
<symbol id="font_4_1">
<path d="M .057000005 .05099988 C .065000008 .05099988 .073 .052999975 .08 .055999996 C .132 .08099985 .09900001 .16699982 .04 .14499998 C 0 .1309998 .003999997 .08099985 .023000002 .051999809 C .047 .015999794 .096 0 .13700001 .0059998037 C .18800001 .0149998669 .222 .058999778 .24600002 .10099983 C .29900003 .194 .324 .30299986 .35000003 .4059999 C .41500003 .6639999 .47300006 .9239999 .523 1.185 C .57100006 1.433 .605 1.686 .66 1.927 C .675 1.99 .69000008 2.053 .71400007 2.113 C .72300007 2.137 .734 2.161 .75000008 2.181 C .758 2.191 .768 2.201 .78000006 2.204 C .794 2.208 .81200006 2.203 .82500007 2.197 C .83400008 2.193 .84300008 2.188 .85 2.181 C .84200009 2.181 .83400008 2.179 .827 2.1759999 C .77500006 2.151 .808 2.065 .86700007 2.087 C .90700009 2.101 .90300008 2.151 .88400009 2.18 C .86 2.216 .81100007 2.232 .77000007 2.226 C .71900007 2.217 .685 2.173 .661 2.131 C .60800006 2.038 .583 1.929 .55700007 1.826 C .49200005 1.568 .43400003 1.308 .384 1.0469999 C .33600004 .7989999 .30200003 .5459999 .24700001 .30499996 C .23200003 .24199987 .21700001 .1789999 .193 .11899996 C .184 .09499979 .17300001 .07099986 .157 .05099988 C .149 .04099989 .139 .030999899 .127 .027999878 C .113000009 .02399993 .095 .028999806 .082 .034999849 C .073 .038999797 .064 .04399991 .057000005 .05099988 Z "/>
</symbol>
<use xlink:href="#font_4_1" transform="matrix(20.6625,0,0,-20.6625,228.11046,132.15738)"/>
<use xlink:href="#font_1_2" transform="matrix(14.3462,0,0,-14.3462,248.46857,91.824459)"/>
<use xlink:href="#font_1_1" transform="matrix(14.3462,0,0,-14.3462,239.21283,132.91947)"/>
<use xlink:href="#font_1_4" transform="matrix(20.6625,0,0,-20.6625,258.79078,118.48114)"/>
<use xlink:href="#font_2_1" transform="matrix(20.6625,0,0,-20.6625,271.77558,119.43162)"/>
<symbol id="font_1_5">
<path d="M .44600005 .418 C .41400004 .412 .402 .388 .402 .36900003 C .402 .345 .42100004 .337 .43500004 .337 C .46500004 .337 .486 .363 .486 .39000003 C .486 .432 .43800003 .451 .39600004 .451 C .335 .451 .30100004 .391 .29200004 .372 C .26900003 .447 .20700002 .451 .18900001 .451 C .087 .451 .033000005 .32 .033000005 .298 C .033000005 .294 .037000006 .289 .044000005 .289 C .052000006 .289 .054 .29500003 .056000007 .299 C .09 .41 .157 .43100003 .18600002 .43100003 C .231 .43100003 .24000001 .389 .24000001 .365 C .24000001 .343 .23400003 .32 .222 .272 L .18800001 .135 C .17300001 .075 .14400001 .020000002 .091000009 .020000002 C .08600001 .020000002 .061 .020000002 .040000004 .033000005 C .076000008 .040000004 .08400001 .07 .08400001 .082 C .08400001 .102000009 .069000009 .114 .05 .114 C .026 .114 0 .093 0 .061000006 C 0 .019000002 .047000003 0 .09 0 C .13800001 0 .172 .038000004 .19300002 .079 C .20900002 .020000002 .259 0 .296 0 C .39800004 0 .45200003 .13100001 .45200003 .15300001 C .45200003 .158 .448 .16200002 .44200004 .16200002 C .43300004 .16200002 .432 .157 .42900003 .14900002 C .402 .061000006 .344 .020000002 .29900003 .020000002 C .26400004 .020000002 .245 .046000005 .245 .087000008 C .245 .109000008 .24900002 .125 .26500003 .19100002 L .3 .327 C .31500004 .387 .349 .43100003 .395 .43100003 C .397 .43100003 .425 .43100003 .44600005 .418 Z "/>
</symbol>
<use xlink:href="#font_1_5" transform="matrix(20.6625,0,0,-20.6625,277.8115,114.47262)"/>
<use xlink:href="#font_2_2" transform="matrix(20.6625,0,0,-20.6625,289.70109,119.43162)"/>
<symbol id="font_1_3">
<path d="M .46300004 .679 C .46400003 .683 .46600006 .689 .46600006 .694 C .46600006 .704 .45600004 .704 .45400004 .704 C .45300005 .704 .40400005 .70000007 .39900003 .699 C .38200004 .698 .367 .69600006 .34900005 .69500008 C .32400004 .693 .31700004 .69200006 .31700004 .674 C .31700004 .66400006 .32500003 .66400006 .33900003 .66400006 C .38800005 .66400006 .38900004 .65500006 .38900004 .64500007 C .38900004 .639 .38700003 .63100007 .38600005 .628 L .32500003 .38500003 C .314 .411 .28700004 .451 .235 .451 C .121999997 .451 0 .305 0 .157 C 0 .058000003 .058000003 0 .126 0 C .18100001 0 .228 .043 .256 .076 C .26600004 .017 .31300003 0 .34300003 0 C .37300004 0 .397 .018000002 .41500003 .054000006 C .43100003 .088 .44500003 .14900002 .44500003 .15300001 C .44500003 .158 .44100005 .16200002 .43500004 .16200002 C .42600004 .16200002 .42500005 .157 .42100004 .142 C .40600003 .083000008 .38700003 .020000002 .34600003 .020000002 C .31700004 .020000002 .31500004 .046000005 .31500004 .066 C .31500004 .07 .31500004 .091 .32200004 .119 L .46300004 .679 M .26100005 .12900001 C .256 .112 .256 .11 .242 .091 C .22000002 .063 .176 .020000002 .12900001 .020000002 C .088 .020000002 .065 .057000005 .065 .116000007 C .065 .17100002 .096 .283 .114999998 .32500003 C .149 .395 .19600001 .43100003 .235 .43100003 C .30100004 .43100003 .314 .349 .314 .34100003 C .314 .34 .31100003 .327 .31000004 .32500003 L .26100005 .12900001 Z "/>
</symbol>
<use xlink:href="#font_1_3" transform="matrix(20.6625,0,0,-20.6625,300.31745,114.47262)"/>
<use xlink:href="#font_1_5" transform="matrix(20.6625,0,0,-20.6625,310.5867,114.47262)"/>
<use xlink:href="#font_1_2" transform="matrix(20.6625,0,0,-20.6625,177.85182,176.5276)"/>
<use xlink:href="#font_3_1" transform="matrix(20.6625,0,0,-20.6625,191.831,171.5686)"/>
<use xlink:href="#font_1_1" transform="matrix(20.6625,0,0,-20.6625,211.60453,176.5276)"/>
<path transform="matrix(1,0,0,-1,42.506,102.94299)" stroke-width="1" stroke-linecap="butt" stroke-miterlimit="10" stroke-linejoin="miter" fill="none" stroke="#000000" d="M 0 0 L 12.179 0 "/>
<use xlink:href="#font_1_4" transform="matrix(20.6625,0,0,-20.6625,43.559789,124.39914)"/>
</g>
<path transform="matrix(1,0,0,-1,.199,184.27199)" stroke-width="1" stroke-linecap="butt" stroke-miterlimit="10" stroke-linejoin="miter" fill="none" stroke="#808080" d="M 64.52875 26.40207 L 64.52875 30.65396 M 333.39854 26.40207 L 333.39854 30.65396 "/>
<path transform="matrix(1,0,0,-1,.199,184.27199)" stroke-width="1" stroke-linecap="butt" stroke-miterlimit="10" stroke-linejoin="miter" fill="none" stroke="#000000" d="M 0 28.52803 L 385.17997 28.52803 "/>
<path transform="matrix(1,0,0,-1,385.37898,155.74396)" d="M 1.99252 0 L -1.19551 1.59401 L 0 0 L -1.19551 -1.59401 "/>
<path transform="matrix(1,0,0,-1,.199,184.27199)" stroke-width="1" stroke-linecap="butt" stroke-miterlimit="10" stroke-linejoin="miter" fill="none" stroke="#000000" d="M 10.75479 0 L 10.75479 169.17566 "/>
<path transform="matrix(0,-1,-1,-0,10.953791,15.096329)" d="M 1.99252 0 L -1.19551 1.59401 L 0 0 L -1.19551 -1.59401 "/>
<symbol id="font_5_1">
<path d="M .33300004 .38900004 C .31500004 .42600004 .286 .45300005 .24100001 .45300005 C .124 .45300005 0 .30600003 0 .16000001 C 0 .06600001 .055000005 0 .133 0 C .153 0 .20300001 .0040000008 .263 .075 C .27100004 .033000005 .30600003 0 .35400004 0 C .38900004 0 .41200004 .023000002 .42800004 .055000005 C .44500003 .091000009 .45800004 .15200001 .45800004 .15400002 C .45800004 .16400002 .44900004 .16400002 .44600005 .16400002 C .43600003 .16400002 .43500004 .16000001 .43200005 .14600002 C .41500003 .081 .397 .022000002 .35600005 .022000002 C .32900004 .022000002 .32600004 .048 .32600004 .068 C .32600004 .09 .32800005 .098000008 .33900003 .14200002 C .35000003 .18400002 .35200004 .19400002 .36100004 .23200003 L .397 .37200005 C .40400005 .40000005 .40400005 .40200005 .40400005 .40600003 C .40400005 .42300005 .39200003 .43300004 .37500004 .43300004 C .35100005 .43300004 .33600004 .411 .33300004 .38900004 M .26800005 .13000001 C .263 .112 .263 .11000001 .24800001 .093 C .20400001 .038000004 .163 .022000002 .135 .022000002 C .08499999 .022000002 .07100001 .077 .07100001 .116000007 C .07100001 .16600001 .103 .28900004 .126 .335 C .157 .39400003 .202 .43100003 .242 .43100003 C .307 .43100003 .32100005 .34900005 .32100005 .34300003 C .32100005 .337 .31900005 .33100004 .31800003 .32600004 L .26800005 .13000001 Z "/>
</symbol>
<use xlink:href="#font_5_1" transform="matrix(9.9626,0,0,-9.9626,62.492506,165.78858)"/>
<symbol id="font_5_2">
<path d="M .192 .694 C .192 .695 .192 .705 .179 .705 C .156 .705 .083000008 .697 .057 .695 C .049 .694 .038 .693 .038 .675 C .038 .663 .047000003 .663 .062000004 .663 C .11 .663 .112 .656 .112 .646 C .112 .639 .103 .605 .098000008 .584 L .015999999 .25800003 C .0040000008 .20800002 0 .19200002 0 .15700002 C 0 .062000004 .053 0 .127 0 C .24500002 0 .36800004 .14900002 .36800004 .293 C .36800004 .38400004 .31500004 .45300005 .235 .45300005 C .18900001 .45300005 .148 .42400003 .118 .39300005 L .192 .694 M .098000008 .316 C .104 .33800004 .104 .34000004 .113000009 .351 C .162 .41600005 .207 .43100003 .233 .43100003 C .26900003 .43100003 .29600004 .40100003 .29600004 .337 C .29600004 .27800004 .263 .16300002 .24500002 .12500002 C .212 .058000003 .16600001 .022000002 .127 .022000002 C .092999998 .022000002 .060000007 .049000004 .060000007 .123 C .060000007 .14200002 .060000007 .16100002 .076000008 .22400002 L .098000008 .316 Z "/>
</symbol>
<use xlink:href="#font_5_2" transform="matrix(9.9626,0,0,-9.9626,331.92424,168.41757)"/>
<symbol id="font_5_3">
<path d="M .305 .31300003 C .311 .33900003 .334 .43100003 .404 .43100003 C .409 .43100003 .433 .43100003 .454 .418 C .426 .41300003 .40600003 .388 .40600003 .36400003 C .40600003 .34800003 .417 .32900004 .444 .32900004 C .46600003 .32900004 .498 .34700004 .498 .38700003 C .498 .43900005 .439 .45300005 .405 .45300005 C .347 .45300005 .312 .40000005 .3 .37700004 C .275 .44300003 .221 .45300005 .19200002 .45300005 C .08800001 .45300005 .031000002 .32400004 .031000002 .29900003 C .031000002 .28900004 .041 .28900004 .043000007 .28900004 C .051000008 .28900004 .054000006 .291 .056 .3 C .09 .40600003 .156 .43100003 .19000001 .43100003 C .209 .43100003 .244 .42200003 .244 .36400003 C .244 .33300004 .22700002 .26600004 .19000001 .126 C .17400001 .064 .13900002 .022000002 .095000009 .022000002 C .08900001 .022000002 .06600001 .022000002 .045 .035 C .07000001 .040000004 .09200001 .061 .09200001 .089 C .09200001 .116000007 .07000001 .124000009 .055000009 .124000009 C .025 .124000009 0 .098000008 0 .06600001 C 0 .020000002 .050000006 0 .094000007 0 C .16000001 0 .19600001 .07000001 .19900002 .076000008 C .21100001 .039 .24700003 0 .307 0 C .41 0 .467 .12900001 .467 .15400002 C .467 .16400002 .458 .16400002 .455 .16400002 C .446 .16400002 .444 .16000001 .442 .15300001 C .409 .046 .341 .022000002 .30900003 .022000002 C .27 .022000002 .254 .054 .254 .08800001 C .254 .11000001 .26 .13200002 .271 .17600002 L .305 .31300003 Z "/>
</symbol>
<use xlink:href="#font_5_3" transform="matrix(9.9626,0,0,-9.9626,391.2499,157.99259)"/>
<symbol id="font_5_4">
<path d="M .45700003 .586 C .461 .6 .461 .602 .461 .609 C .461 .62700006 .447 .63600006 .432 .63600006 C .42200003 .63600006 .40600003 .63 .397 .615 C .395 .61 .387 .579 .38300003 .561 C .37600003 .535 .36900003 .508 .363 .48100005 L .318 .301 C .314 .286 .271 .21600002 .20500002 .21600002 C .15400002 .21600002 .143 .26000003 .143 .29700003 C .143 .34300003 .16000001 .40500004 .194 .49300004 C .21000001 .53400006 .21400002 .545 .21400002 .56500008 C .21400002 .61 .18200001 .6470001 .13200002 .6470001 C .037 .6470001 0 .50200006 0 .49300004 C 0 .48300005 .01 .48300005 .012 .48300005 C .022000002 .48300005 .023 .485 .028000003 .50100007 C .055000009 .595 .095000009 .625 .12900001 .625 C .13700001 .625 .15400002 .625 .15400002 .59300008 C .15400002 .568 .14400001 .54200008 .13700001 .523 C .097 .41700004 .079 .36 .079 .31300003 C .079 .224 .142 .194 .201 .194 C .24000003 .194 .274 .21100001 .30200003 .23900002 C .289 .187 .277 .13800001 .237 .08500001 C .21100001 .051 .17300001 .022 .127 .022 C .113000009 .022 .068 .025000006 .051000008 .06400001 C .067 .06400001 .080000009 .06400001 .094000007 .076000008 C .104 .08500001 .11400001 .098000008 .11400001 .117000009 C .11400001 .148 .087000008 .15200001 .07700001 .15200001 C .054000006 .15200001 .021 .136 .021 .087000008 C .021 .037 .065000008 0 .127 0 C .23 0 .333 .091000009 .361 .20400001 L .45700003 .586 Z "/>
</symbol>
<use xlink:href="#font_5_4" transform="matrix(9.9626,0,0,-9.9626,8.623916,9.652319)"/>
</svg>
