<?xml version="1.0" encoding="UTF-8" standalone="no"?>
<!DOCTYPE svg PUBLIC "-//W3C//DTD SVG 1.1//EN" "http://www.w3.org/Graphics/SVG/1.1/DTD/svg11.dtd">
<svg xmlns="http://www.w3.org/2000/svg" xmlns:xlink="http://www.w3.org/1999/xlink" version="1.1" width="199.453pt" height="179.094pt" viewBox="0 0 199.453 179.094">
<path transform="matrix(1,0,0,-1,9.826,174.499)" stroke-width="1" stroke-linecap="butt" stroke-miterlimit="10" stroke-linejoin="miter" fill="none" stroke="#bfbfbf" d="M 2.35043 0 L 2.35043 161.39679 M 18.02002 0 L 18.02002 161.39679 M 33.68962 0 L 33.68962 161.39679 M 49.3592 0 L 49.3592 161.39679 M 65.0288 0 L 65.0288 161.39679 M 96.36798 0 L 96.36798 161.39679 M 112.03757 0 L 112.03757 161.39679 M 127.70717 0 L 127.70717 161.39679 M 143.37676 0 L 143.37676 161.39679 M 159.04634 0 L 159.04634 161.39679 M 174.71593 0 L 174.71593 161.39679 "/>
<path transform="matrix(1,0,0,-1,9.826,174.499)" stroke-width="1" stroke-linecap="butt" stroke-miterlimit="10" stroke-linejoin="miter" fill="none" stroke="#bfbfbf" d="M 0 2.35043 L 177.06638 2.35043 M 0 18.02002 L 177.06638 18.02002 M 0 33.68962 L 177.06638 33.68962 M 0 49.3592 L 177.06638 49.3592 M 0 65.0288 L 177.06638 65.0288 M 0 96.36798 L 177.06638 96.36798 M 0 112.03757 L 177.06638 112.03757 M 0 127.70717 L 177.06638 127.70717 M 0 143.37676 L 177.06638 143.37676 M 0 159.04634 L 177.06638 159.04634 "/>
<path transform="matrix(1,0,0,-1,9.826,174.499)" stroke-width="1" stroke-linecap="butt" stroke-miterlimit="10" stroke-linejoin="miter" fill="none" stroke="#808080" d="M 2.35043 78.57239 L 2.35043 82.82437 M 18.02002 78.57239 L 18.02002 82.82437 M 33.68962 78.57239 L 33.68962 82.82437 M 49.3592 78.57239 L 49.3592 82.82437 M 65.0288 78.57239 L 65.0288 82.82437 M 96.36798 78.57239 L 96.36798 82.82437 M 112.03757 78.57239 L 112.03757 82.82437 M 127.70717 78.57239 L 127.70717 82.82437 M 143.37676 78.57239 L 143.37676 82.82437 M 159.04634 78.57239 L 159.04634 82.82437 M 174.71593 78.57239 L 174.71593 82.82437 "/>
<path transform="matrix(1,0,0,-1,9.826,174.499)" stroke-width="1" stroke-linecap="butt" stroke-miterlimit="10" stroke-linejoin="miter" fill="none" stroke="#808080" d="M 78.57239 2.35043 L 82.82437 2.35043 M 78.57239 18.02002 L 82.82437 18.02002 M 78.57239 33.68962 L 82.82437 33.68962 M 78.57239 49.3592 L 82.82437 49.3592 M 78.57239 65.0288 L 82.82437 65.0288 M 78.57239 96.36798 L 82.82437 96.36798 M 78.57239 112.03757 L 82.82437 112.03757 M 78.57239 127.70717 L 82.82437 127.70717 M 78.57239 143.37676 L 82.82437 143.37676 M 78.57239 159.04634 L 82.82437 159.04634 "/>
<path transform="matrix(1,0,0,-1,9.826,174.499)" stroke-width="1" stroke-linecap="butt" stroke-miterlimit="10" stroke-linejoin="miter" fill="none" stroke="#000000" d="M 0 80.6984 L 175.07386 80.6984 "/>
<path transform="matrix(1,0,0,-1,184.89986,93.80059)" d="M 1.99252 0 L -1.19551 1.59401 L 0 0 L -1.19551 -1.59401 "/>
<path transform="matrix(1,0,0,-1,9.826,174.499)" stroke-width="1" stroke-linecap="butt" stroke-miterlimit="10" stroke-linejoin="miter" fill="none" stroke="#000000" d="M 80.6984 0 L 80.6984 159.40427 "/>
<path transform="matrix(0,-1,-1,-0,90.5244,15.094727)" d="M 1.99252 0 L -1.19551 1.59401 L 0 0 L -1.19551 -1.59401 "/>
<symbol id="font_0_1">
<path d="M .57600006 0 C .59300008 0 .611 0 .611 .019999996 C .611 .040000008 .59300008 .040000008 .57600006 .040000008 L .035000005 .040000008 C .018 .040000008 0 .040000008 0 .019999996 C 0 0 .018 0 .035000005 0 L .57600006 0 Z "/>
</symbol>
<use xlink:href="#font_0_1" transform="matrix(9.9626,0,0,-9.9626,4.147896,103.5756)"/>
<symbol id="font_1_2">
<path d="M .205 .64000007 C .205 .66400006 .205 .666 .18200003 .666 C .120000008 .60200008 .032000007 .60200008 0 .60200008 L 0 .57100006 C .020000004 .57100006 .07900001 .57100006 .13100001 .597 L .13100001 .079 C .13100001 .043 .128 .031000002 .038000004 .031000002 L .0060000049 .031000002 L .0060000049 0 C .04100001 .003 .128 .003 .168 .003 C .20800002 .003 .29500003 .003 .33000005 0 L .33000005 .031000002 L .29800005 .031000002 C .20800002 .031000002 .205 .042000005 .205 .079 L .205 .64000007 Z "/>
</symbol>
<symbol id="font_1_1">
<path d="M .421 .34200005 C .421 .42200003 .416 .50200006 .381 .57600006 C .335 .67200008 .25300003 .688 .211 .688 C .15100001 .688 .07800001 .66200008 .037000006 .56900009 C .0050000029 .5 0 .42200003 0 .34200005 C 0 .26700003 .0040000008 .177 .045000007 .101 C .088 .020000002 .161 0 .21000001 0 C .264 0 .34 .021000002 .384 .116000007 C .416 .185 .421 .263 .421 .34200005 M .21000001 .022000002 C .171 .022000002 .112 .047000003 .094 .143 C .083000008 .20300001 .083000008 .29500003 .083000008 .35400004 C .083000008 .41800005 .083000008 .48400004 .091000009 .53800007 C .11 .65700009 .185 .66600009 .21000001 .66600009 C .243 .66600009 .30900003 .64800009 .328 .549 C .338 .49300004 .338 .41700004 .338 .35400004 C .338 .279 .338 .21100001 .32700003 .147 C .312 .052 .255 .022000002 .21000001 .022000002 Z "/>
</symbol>
<use xlink:href="#font_1_2" transform="matrix(9.9626,0,0,-9.9626,11.955671,105.867)"/>
<use xlink:href="#font_1_1" transform="matrix(9.9626,0,0,-9.9626,16.438843,106.086177)"/>
<use xlink:href="#font_0_1" transform="matrix(9.9626,0,0,-9.9626,22.307896,103.5756)"/>
<symbol id="font_1_6">
<path d="M .121 .47900004 C .075 .509 .071 .54300007 .071 .56000009 C .071 .62100008 .136 .66300007 .20700002 .66300007 C .28000004 .66300007 .344 .61100009 .344 .53900006 C .344 .48200003 .305 .43400005 .245 .39900003 L .121 .47900004 M .26700003 .38400004 C .33900003 .42100004 .388 .47300006 .388 .53900006 C .388 .63100007 .29900003 .688 .208 .688 C .108 .688 .027000003 .614 .027000003 .521 C .027000003 .503 .029 .45800004 .071 .41100005 C .082 .39900003 .11900001 .37400005 .144 .35700003 C .086 .32800005 0 .272 0 .17300001 C 0 .067 .102000009 0 .20700002 0 C .32000003 0 .41500003 .083000008 .41500003 .19000001 C .41500003 .22600001 .404 .27100004 .36600004 .31300003 C .34700004 .33400003 .33100004 .34400005 .26700003 .38400004 M .167 .34200005 L .29000003 .26400004 C .31800003 .245 .365 .215 .365 .154 C .365 .080000009 .29000003 .028 .208 .028 C .122 .028 .050000006 .09 .050000006 .17300001 C .050000006 .231 .082 .29500003 .167 .34200005 Z "/>
</symbol>
<use xlink:href="#font_1_6" transform="matrix(9.9626,0,0,-9.9626,29.647427,106.086177)"/>
<use xlink:href="#font_0_1" transform="matrix(9.9626,0,0,-9.9626,37.9769,103.5756)"/>
<symbol id="font_1_5">
<path d="M .089999999 .35000003 L .089999999 .37400005 C .089999999 .62700006 .21400002 .66300007 .26500003 .66300007 C .28900004 .66300007 .33100004 .65700009 .35300002 .623 C .33800004 .623 .298 .623 .298 .57800009 C .298 .54700008 .32200004 .53200009 .344 .53200009 C .36 .53200009 .39000003 .54100009 .39000003 .58000007 C .39000003 .64000007 .34600003 .688 .263 .688 C .13499999 .688 0 .559 0 .33800004 C 0 .071 .116000007 0 .20900002 0 C .32000003 0 .41500003 .094000007 .41500003 .22600001 C .41500003 .35300005 .32600004 .44900004 .215 .44900004 C .14700002 .44900004 .11000001 .39800004 .089999999 .35000003 M .20900002 .028 C .146 .028 .116000007 .088 .11000001 .103 C .092 .15 .092 .23 .092 .24800001 C .092 .32600004 .124000009 .42600004 .21400002 .42600004 C .23000002 .42600004 .27600003 .42600004 .307 .36400003 C .32500003 .32700003 .32500003 .27600003 .32500003 .22700002 C .32500003 .179 .32500003 .12900001 .30800004 .093 C .27800004 .033000005 .23200003 .028 .20900002 .028 Z "/>
</symbol>
<use xlink:href="#font_1_5" transform="matrix(9.9626,0,0,-9.9626,45.317434,106.086177)"/>
<use xlink:href="#font_0_1" transform="matrix(9.9626,0,0,-9.9626,53.645898,103.5756)"/>
<symbol id="font_1_4">
<path d="M .266 .165 L .266 .078 C .266 .042000005 .26400004 .031000002 .19000001 .031000002 L .16900002 .031000002 L .16900002 0 C .21000001 .003 .26200003 .003 .30400003 .003 C .34600003 .003 .39900003 .003 .44000004 0 L .44000004 .031000002 L .41900004 .031000002 C .34500004 .031000002 .34300003 .042000005 .34300003 .078 L .34300003 .165 L .44300003 .165 L .44300003 .19600001 L .34300003 .19600001 L .34300003 .651 C .34300003 .671 .34300003 .67700007 .32700003 .67700007 C .31800003 .67700007 .31500004 .67700007 .307 .665 L 0 .19600001 L 0 .165 L .266 .165 M .272 .19600001 L .028 .19600001 L .272 .569 L .272 .19600001 Z "/>
</symbol>
<use xlink:href="#font_1_4" transform="matrix(9.9626,0,0,-9.9626,60.846956,105.867)"/>
<use xlink:href="#font_0_1" transform="matrix(9.9626,0,0,-9.9626,69.315898,103.5756)"/>
<symbol id="font_1_3">
<path d="M .07700001 .07700001 L .18300002 .18 C .33900003 .31800003 .39900003 .372 .39900003 .47200004 C .39900003 .586 .30900003 .666 .18700002 .666 C .074 .666 0 .574 0 .485 C 0 .42900003 .05 .42900003 .053000008 .42900003 C .07000001 .42900003 .105000007 .441 .105000007 .48200003 C .105000007 .508 .08700001 .53400006 .052000006 .53400006 C .044000005 .53400006 .042000008 .53400006 .039 .53300008 C .062000004 .59800007 .11600001 .63500007 .17400001 .63500007 C .26500003 .63500007 .308 .554 .308 .47200004 C .308 .39200003 .25800003 .31300003 .20300003 .25100003 L .011000004 .037 C 0 .026 0 .024 0 0 L .37100003 0 L .39900003 .17400001 L .374 .17400001 C .36900003 .14400001 .36200003 .1 .352 .085 C .345 .07700001 .279 .07700001 .257 .07700001 L .07700001 .07700001 Z "/>
</symbol>
<use xlink:href="#font_1_3" transform="matrix(9.9626,0,0,-9.9626,76.73613,105.867)"/>
<use xlink:href="#font_1_3" transform="matrix(9.9626,0,0,-9.9626,104.20013,105.867)"/>
<use xlink:href="#font_1_4" transform="matrix(9.9626,0,0,-9.9626,119.649959,105.867)"/>
<use xlink:href="#font_1_5" transform="matrix(9.9626,0,0,-9.9626,135.45943,106.086177)"/>
<use xlink:href="#font_1_6" transform="matrix(9.9626,0,0,-9.9626,151.12844,106.086177)"/>
<use xlink:href="#font_1_2" transform="matrix(9.9626,0,0,-9.9626,164.77568,105.867)"/>
<use xlink:href="#font_1_1" transform="matrix(9.9626,0,0,-9.9626,169.25884,106.086177)"/>
<use xlink:href="#font_1_2" transform="matrix(9.9626,0,0,-9.9626,180.44467,105.867)"/>
<use xlink:href="#font_1_3" transform="matrix(9.9626,0,0,-9.9626,185.03742,105.867)"/>
<use xlink:href="#font_0_1" transform="matrix(9.9626,0,0,-9.9626,92.743907,172.6516)"/>
<use xlink:href="#font_1_2" transform="matrix(9.9626,0,0,-9.9626,100.55268,174.943)"/>
<use xlink:href="#font_1_1" transform="matrix(9.9626,0,0,-9.9626,105.03585,175.16217)"/>
<use xlink:href="#font_0_1" transform="matrix(9.9626,0,0,-9.9626,92.743907,156.98259)"/>
<use xlink:href="#font_1_6" transform="matrix(9.9626,0,0,-9.9626,100.084438,159.49317)"/>
<use xlink:href="#font_0_1" transform="matrix(9.9626,0,0,-9.9626,92.743907,141.31259)"/>
<use xlink:href="#font_1_5" transform="matrix(9.9626,0,0,-9.9626,100.084438,143.82317)"/>
<use xlink:href="#font_0_1" transform="matrix(9.9626,0,0,-9.9626,92.743907,125.6436)"/>
<use xlink:href="#font_1_4" transform="matrix(9.9626,0,0,-9.9626,99.94496,127.935)"/>
<use xlink:href="#font_0_1" transform="matrix(9.9626,0,0,-9.9626,92.743907,109.974597)"/>
<use xlink:href="#font_1_3" transform="matrix(9.9626,0,0,-9.9626,100.16414,112.26599)"/>
<use xlink:href="#font_1_3" transform="matrix(9.9626,0,0,-9.9626,92.41514,81.341999)"/>
<use xlink:href="#font_1_4" transform="matrix(9.9626,0,0,-9.9626,92.19596,65.673)"/>
<use xlink:href="#font_1_5" transform="matrix(9.9626,0,0,-9.9626,92.335437,50.222169)"/>
<use xlink:href="#font_1_6" transform="matrix(9.9626,0,0,-9.9626,92.335437,34.553178)"/>
<use xlink:href="#font_1_2" transform="matrix(9.9626,0,0,-9.9626,92.80368,18.663987)"/>
<use xlink:href="#font_1_1" transform="matrix(9.9626,0,0,-9.9626,97.28685,18.883164)"/>
<clipPath id="cp2">
<path transform="matrix(1,0,0,-1,9.826,174.499)" d="M 0 0 L 177.06638 0 L 177.06638 161.39679 L 0 161.39679 Z "/>
</clipPath>
<g clip-path="url(#cp2)">
<path transform="matrix(1,0,0,-1,9.826,174.499)" stroke-width="1.19553" stroke-linecap="butt" stroke-miterlimit="10" stroke-linejoin="miter" fill="none" stroke="#000080" d="M 0 130.43946 L 1.32549 129.95519 L 2.65099 129.46121 L 3.9765 128.95642 L 5.302 128.44034 L 6.62752 127.91281 L 7.95303 127.37253 L 9.27853 126.82057 L 10.60403 126.25473 L 11.92955 125.67552 L 13.25505 125.08118 L 14.58055 124.47192 L 15.90605 123.84633 L 17.23155 123.20325 L 18.55707 122.54222 L 19.88257 121.86082 L 21.20808 121.1612 L 22.5336 120.43935 L 23.8591 119.69482 L 25.1846 118.926 L 26.51012 118.13052 L 27.83562 117.30725 L 29.16112 116.45435 L 30.48662 115.56941 L 31.81212 114.64867 L 33.13763 113.69235 L 34.46315 112.69458 L 35.78865 111.65286 L 37.11417 110.5622 L 38.43967 109.41824 L 39.76518 108.217 L 41.09068 106.94987 L 42.41618 105.61131 L 43.74168 104.19157 L 45.06718 102.67992 L 46.3927 101.06516 L 47.71822 99.33101 L 49.04372 97.45851 L 50.36922 95.42317 L 51.69473 93.19653 L 53.02023 90.73514 L 54.34575 87.98631 L 55.67125 84.8726 L 56.99675 81.28261 L 58.32225 77.04282 L 59.64777 71.86723 L 60.97327 65.22073 L 62.29878 55.91817 L 63.62428 40.29652 L 64.9498 -27.34851 "/>
<path transform="matrix(1,0,0,-1,9.826,174.499)" stroke-width="1.19553" stroke-linecap="butt" stroke-miterlimit="10" stroke-linejoin="miter" fill="none" stroke="#000080" d="M 66.33458 -1000.51907 L 67.64038 -177.85219 L 68.94618 -28.98952 L 70.25197 21.93742 L 71.55775 44.97093 L 72.86354 57.194 L 74.16934 64.38908 L 75.47514 68.94603 L 76.78093 71.99307 L 78.08672 74.11707 L 79.39252 75.64775 L 80.69833 76.78099 L 82.00412 77.63866 L 83.3099 78.29999 L 84.61569 78.81804 L 85.92148 79.22935 L 87.2273 79.55981 L 88.53308 79.82787 L 89.83887 80.04727 L 91.14465 80.22829 L 92.45045 80.37859 L 93.75626 80.50412 L 95.06206 80.6095 L 96.36784 80.69838 "/>
<path transform="matrix(1,0,0,-1,9.826,174.499)" stroke-width="1.19553" stroke-linecap="butt" stroke-miterlimit="10" stroke-linejoin="miter" fill="none" stroke="#000080" d="M 96.36798 80.6984 L 98.32668 80.78 L 100.28537 81.02483 L 102.24408 81.43289 L 104.20277 82.00412 L 106.16147 82.73857 L 108.12018 83.63643 L 110.07887 84.69727 L 112.03757 85.92151 L 113.99626 87.30898 L 115.95497 88.85957 L 117.91367 90.57336 L 119.87236 92.45058 L 121.83107 94.49077 L 123.78976 96.6939 L 125.74846 99.06157 L 127.70717 101.59065 L 129.66587 104.28426 L 131.62456 107.14081 L 133.58325 110.16035 L 135.54196 113.34283 L 137.50066 116.68907 L 139.45935 120.19907 L 141.41806 123.87125 L 143.37676 127.70638 "/>
<path transform="matrix(1,0,0,-1,9.826,174.499)" stroke-width="1.19553" stroke-linecap="butt" stroke-miterlimit="10" stroke-linejoin="miter" fill="none" stroke="#000080" d="M 143.37676 127.70717 L 144.78047 125.32616 L 146.18419 123.57352 L 147.58792 122.22914 L 148.99167 121.1655 L 150.39539 120.30289 L 151.79912 119.58914 L 153.20284 118.98892 L 154.60659 118.47707 L 156.01032 118.03549 L 157.41403 117.65056 L 158.81775 117.31209 L 160.22148 117.01202 L 161.62522 116.74431 L 163.02895 116.50394 L 164.43267 116.28691 L 165.83638 116.09003 L 167.24011 115.91063 L 168.64385 115.74632 L 170.04758 115.5955 L 171.4513 115.45644 L 172.85501 115.32777 L 174.25875 115.20847 L 175.66248 115.09752 L 177.0662 114.99417 "/>
<symbol id="font_3_1">
<path d="M .11 .074 C .100999999 .039 .09900001 .029000001 .029000003 .029000001 C .010000002 .029000001 0 .029000001 0 .011000001 C 0 0 .006000001 0 .026000005 0 L .34300003 0 C .545 0 .74200007 .209 .74200007 .432 C .74200007 .57600006 .656 .683 .513 .683 L .192 .683 C .17300001 .683 .164 .683 .164 .66400006 C .164 .65400007 .17300001 .65400007 .18800001 .65400007 C .249 .65400007 .249 .646 .249 .63500007 C .249 .633 .249 .62700006 .24500002 .61200007 L .11 .074 M .32100005 .615 C .33 .652 .33400003 .65400007 .37300004 .65400007 L .48300005 .65400007 C .577 .65400007 .66300007 .60300007 .66300007 .46500004 C .66300007 .41500003 .64300009 .24100001 .54600009 .13100001 C .518 .098000008 .44200004 .029000001 .32700003 .029000001 L .21300002 .029000001 C .199 .029000001 .19700001 .029000001 .191 .030000002 C .18 .031000002 .179 .033 .179 .041 C .179 .048 .18100001 .054 .183 .063 L .32100005 .615 Z "/>
</symbol>
<use xlink:href="#font_3_1" transform="matrix(20.6625,0,0,-20.6625,106.31814,46.01799)"/>
</g>
<path transform="matrix(1,0,0,-1,9.826,174.499)" d="M 98.36053 80.6984 C 98.36053 81.79886 97.46844 82.69095 96.36798 82.69095 C 95.2675 82.69095 94.37543 81.79886 94.37543 80.6984 C 94.37543 79.59792 95.2675 78.70584 96.36798 78.70584 C 97.46844 78.70584 98.36053 79.59792 98.36053 80.6984 Z M 96.36798 80.6984 " fill="#000080"/>
<path transform="matrix(1,0,0,-1,9.826,174.499)" stroke-width="1" stroke-linecap="butt" stroke-miterlimit="10" stroke-linejoin="miter" fill="none" stroke="#000080" d="M 98.36053 80.6984 C 98.36053 81.79886 97.46844 82.69095 96.36798 82.69095 C 95.2675 82.69095 94.37543 81.79886 94.37543 80.6984 C 94.37543 79.59792 95.2675 78.70584 96.36798 78.70584 C 97.46844 78.70584 98.36053 79.59792 98.36053 80.6984 Z M 96.36798 80.6984 "/>
<path transform="matrix(1,0,0,-1,9.826,174.499)" d="M 145.36931 127.70717 C 145.36931 128.80764 144.47722 129.69972 143.37676 129.69972 C 142.27628 129.69972 141.3842 128.80764 141.3842 127.70717 C 141.3842 126.60669 142.27628 125.71461 143.37676 125.71461 C 144.47722 125.71461 145.36931 126.60669 145.36931 127.70717 Z M 143.37676 127.70717 " fill="#000080"/>
<path transform="matrix(1,0,0,-1,9.826,174.499)" stroke-width="1" stroke-linecap="butt" stroke-miterlimit="10" stroke-linejoin="miter" fill="none" stroke="#000080" d="M 145.36931 127.70717 C 145.36931 128.80764 144.47722 129.69972 143.37676 129.69972 C 142.27628 129.69972 141.3842 128.80764 141.3842 127.70717 C 141.3842 126.60669 142.27628 125.71461 143.37676 125.71461 C 144.47722 125.71461 145.36931 126.60669 145.36931 127.70717 Z M 143.37676 127.70717 "/>
<symbol id="font_4_1">
<path d="M .305 .31300003 C .311 .33900003 .334 .43100003 .404 .43100003 C .409 .43100003 .433 .43100003 .454 .418 C .426 .41300003 .40600003 .388 .40600003 .36400003 C .40600003 .34800003 .417 .32900004 .444 .32900004 C .46600003 .32900004 .498 .34700004 .498 .38700003 C .498 .43900005 .439 .45300005 .405 .45300005 C .347 .45300005 .312 .40000005 .3 .37700004 C .275 .44300003 .221 .45300005 .19200002 .45300005 C .08800001 .45300005 .031000002 .32400004 .031000002 .29900003 C .031000002 .28900004 .041 .28900004 .043000007 .28900004 C .051000008 .28900004 .054000006 .291 .056 .3 C .09 .40600003 .156 .43100003 .19000001 .43100003 C .209 .43100003 .244 .42200003 .244 .36400003 C .244 .33300004 .22700002 .26600004 .19000001 .126 C .17400001 .064 .13900002 .022000002 .095000009 .022000002 C .08900001 .022000002 .06600001 .022000002 .045 .035 C .07000001 .040000004 .09200001 .061 .09200001 .089 C .09200001 .116000007 .07000001 .124000009 .055000009 .124000009 C .025 .124000009 0 .098000008 0 .06600001 C 0 .020000002 .050000006 0 .094000007 0 C .16000001 0 .19600001 .07000001 .19900002 .076000008 C .21100001 .039 .24700003 0 .307 0 C .41 0 .467 .12900001 .467 .15400002 C .467 .16400002 .458 .16400002 .455 .16400002 C .446 .16400002 .444 .16000001 .442 .15300001 C .409 .046 .341 .022000002 .30900003 .022000002 C .27 .022000002 .254 .054 .254 .08800001 C .254 .11000001 .26 .13200002 .271 .17600002 L .305 .31300003 Z "/>
</symbol>
<use xlink:href="#font_4_1" transform="matrix(9.9626,0,0,-9.9626,190.72692,96.04358)"/>
<symbol id="font_4_2">
<path d="M .45700003 .586 C .461 .6 .461 .602 .461 .609 C .461 .62700006 .447 .63600006 .432 .63600006 C .42200003 .63600006 .40600003 .63 .397 .615 C .395 .61 .387 .579 .38300003 .561 C .37600003 .535 .36900003 .508 .363 .48100005 L .318 .301 C .314 .286 .271 .21600002 .20500002 .21600002 C .15400002 .21600002 .143 .26000003 .143 .29700003 C .143 .34300003 .16000001 .40500004 .194 .49300004 C .21000001 .53400006 .21400002 .545 .21400002 .56500008 C .21400002 .61 .18200001 .6470001 .13200002 .6470001 C .037 .6470001 0 .50200006 0 .49300004 C 0 .48300005 .01 .48300005 .012 .48300005 C .022000002 .48300005 .023 .485 .028000003 .50100007 C .055000009 .595 .095000009 .625 .12900001 .625 C .13700001 .625 .15400002 .625 .15400002 .59300008 C .15400002 .568 .14400001 .54200008 .13700001 .523 C .097 .41700004 .079 .36 .079 .31300003 C .079 .224 .142 .194 .201 .194 C .24000003 .194 .274 .21100001 .30200003 .23900002 C .289 .187 .277 .13800001 .237 .08500001 C .21100001 .051 .17300001 .022 .127 .022 C .113000009 .022 .068 .025000006 .051000008 .06400001 C .067 .06400001 .080000009 .06400001 .094000007 .076000008 C .104 .08500001 .11400001 .098000008 .11400001 .117000009 C .11400001 .148 .087000008 .15200001 .07700001 .15200001 C .054000006 .15200001 .021 .136 .021 .087000008 C .021 .037 .065000008 0 .127 0 C .23 0 .333 .091000009 .361 .20400001 L .45700003 .586 Z "/>
</symbol>
<use xlink:href="#font_4_2" transform="matrix(9.9626,0,0,-9.9626,88.207927,9.652319)"/>
</svg>
