<?xml version="1.0" encoding="UTF-8" standalone="no"?>
<!DOCTYPE svg PUBLIC "-//W3C//DTD SVG 1.1//EN" "http://www.w3.org/Graphics/SVG/1.1/DTD/svg11.dtd">
<svg xmlns="http://www.w3.org/2000/svg" xmlns:xlink="http://www.w3.org/1999/xlink" version="1.1" width="211.886pt" height="148.006pt" viewBox="0 0 211.886 148.006">
<path transform="matrix(1,0,0,-1,5.06,145.685)" stroke-width=".3985" stroke-linecap="butt" stroke-miterlimit="10" stroke-linejoin="miter" fill="none" stroke="#cbcbcb" d="M 4.62535 0 L 4.62535 132.59348 M 20.0432 0 L 20.0432 132.59348 M 35.46104 0 L 35.46104 132.59348 M 50.87889 0 L 50.87889 132.59348 M 66.29674 0 L 66.29674 132.59348 M 81.71458 0 L 81.71458 132.59348 M 112.55028 0 L 112.55028 132.59348 M 127.96812 0 L 127.96812 132.59348 M 143.38597 0 L 143.38597 132.59348 M 158.80382 0 L 158.80382 132.59348 M 174.22167 0 L 174.22167 132.59348 M 189.63951 0 L 189.63951 132.59348 "/>
<path transform="matrix(1,0,0,-1,5.06,145.685)" stroke-width=".3985" stroke-linecap="butt" stroke-miterlimit="10" stroke-linejoin="miter" fill="none" stroke="#cbcbcb" d="M 0 4.62535 L 194.26486 4.62535 M 0 20.0432 L 194.26486 20.0432 M 0 50.87889 L 194.26486 50.87889 M 0 66.29674 L 194.26486 66.29674 M 0 81.71458 L 194.26486 81.71458 M 0 97.13243 L 194.26486 97.13243 M 0 112.55028 L 194.26486 112.55028 M 0 127.96812 L 194.26486 127.96812 "/>
<path transform="matrix(1,0,0,-1,5.06,145.685)" stroke-width=".19925" stroke-linecap="butt" stroke-miterlimit="10" stroke-linejoin="miter" fill="none" stroke="#929292" d="M 4.62535 33.33502 L 4.62535 37.58704 M 20.0432 33.33502 L 20.0432 37.58704 M 35.46104 33.33502 L 35.46104 37.58704 M 50.87889 33.33502 L 50.87889 37.58704 M 66.29674 33.33502 L 66.29674 37.58704 M 81.71458 33.33502 L 81.71458 37.58704 M 112.55028 33.33502 L 112.55028 37.58704 M 127.96812 33.33502 L 127.96812 37.58704 M 143.38597 33.33502 L 143.38597 37.58704 M 158.80382 33.33502 L 158.80382 37.58704 M 174.22167 33.33502 L 174.22167 37.58704 M 189.63951 33.33502 L 189.63951 37.58704 "/>
<path transform="matrix(1,0,0,-1,5.06,145.685)" stroke-width=".19925" stroke-linecap="butt" stroke-miterlimit="10" stroke-linejoin="miter" fill="none" stroke="#929292" d="M 95.00641 4.62535 L 99.25842 4.62535 M 95.00641 20.0432 L 99.25842 20.0432 M 95.00641 50.87889 L 99.25842 50.87889 M 95.00641 66.29674 L 99.25842 66.29674 M 95.00641 81.71458 L 99.25842 81.71458 M 95.00641 97.13243 L 99.25842 97.13243 M 95.00641 112.55028 L 99.25842 112.55028 M 95.00641 127.96812 L 99.25842 127.96812 "/>
<path transform="matrix(1,0,0,-1,5.06,145.685)" stroke-width=".3985" stroke-linecap="butt" stroke-miterlimit="10" stroke-linejoin="miter" fill="none" stroke="#000000" d="M 0 35.46104 L 192.27234 35.46104 "/>
<path transform="matrix(1,0,0,-1,197.33234,110.22395)" d="M 1.99252 0 L -1.19551 1.59401 L 0 0 L -1.19551 -1.59401 "/>
<path transform="matrix(1,0,0,-1,5.06,145.685)" stroke-width=".3985" stroke-linecap="butt" stroke-miterlimit="10" stroke-linejoin="miter" fill="none" stroke="#000000" d="M 97.13243 0 L 97.13243 130.60095 "/>
<path transform="matrix(0,-1,-1,-0,102.19243,15.084045)" d="M 1.99252 0 L -1.19551 1.59401 L 0 0 L -1.19551 -1.59401 "/>
<symbol id="font_0_1">
<path d="M .57600006 0 C .59300008 0 .611 0 .611 .019999996 C .611 .040000008 .59300008 .040000008 .57600006 .040000008 L .035000005 .040000008 C .018 .040000008 0 .040000008 0 .019999996 C 0 0 .018 0 .035000005 0 L .57600006 0 Z "/>
</symbol>
<use xlink:href="#font_0_1" transform="matrix(9.9626,0,0,-9.9626,4.147896,119.9996)"/>
<symbol id="font_1_8">
<path d="M .089999999 .35000003 L .089999999 .37400005 C .089999999 .62700006 .21400002 .66300007 .26500003 .66300007 C .28900004 .66300007 .33100004 .65700009 .35300002 .623 C .33800004 .623 .298 .623 .298 .57800009 C .298 .54700008 .32200004 .53200009 .344 .53200009 C .36 .53200009 .39000003 .54100009 .39000003 .58000007 C .39000003 .64000007 .34600003 .688 .263 .688 C .13499999 .688 0 .559 0 .33800004 C 0 .071 .116000007 0 .20900002 0 C .32000003 0 .41500003 .094000007 .41500003 .22600001 C .41500003 .35300005 .32600004 .44900004 .215 .44900004 C .14700002 .44900004 .11000001 .39800004 .089999999 .35000003 M .20900002 .028 C .146 .028 .116000007 .088 .11000001 .103 C .092 .15 .092 .23 .092 .24800001 C .092 .32600004 .124000009 .42600004 .21400002 .42600004 C .23000002 .42600004 .27600003 .42600004 .307 .36400003 C .32500003 .32700003 .32500003 .27600003 .32500003 .22700002 C .32500003 .179 .32500003 .12900001 .30800004 .093 C .27800004 .033000005 .23200003 .028 .20900002 .028 Z "/>
</symbol>
<use xlink:href="#font_1_8" transform="matrix(9.9626,0,0,-9.9626,11.48743,122.51018)"/>
<use xlink:href="#font_0_1" transform="matrix(9.9626,0,0,-9.9626,19.564898,119.9996)"/>
<symbol id="font_1_7">
<path d="M .39900003 .223 C .39900003 .34200005 .317 .44200004 .209 .44200004 C .16100002 .44200004 .118000019 .42600004 .082 .39100004 L .082 .586 C .10200001 .58000007 .135 .573 .16700001 .573 C .29 .573 .36 .66400006 .36 .67700007 C .36 .683 .357 .688 .35 .688 C .349 .688 .347 .688 .342 .68500009 C .322 .67600008 .273 .656 .20600002 .656 C .16600001 .656 .120000008 .66300007 .073 .6840001 C .065 .68700006 .06300001 .68700006 .061000009 .68700006 C .051000004 .68700006 .051000004 .679 .051000004 .66300007 L .051000004 .36700005 C .051000004 .34900005 .051000004 .34100003 .065 .34100003 C .07200001 .34100003 .074 .34400005 .07800001 .35000003 C .08900002 .36600004 .12600002 .42000006 .207 .42000006 C .259 .42000006 .284 .37400005 .292 .35600005 C .308 .31900005 .31 .28000004 .31 .23 C .31 .19500001 .31 .135 .286 .093 C .262 .054000006 .22500001 .028 .17900002 .028 C .106000009 .028 .049000008 .08100001 .032 .14000002 C .035 .13900002 .038000008 .13800001 .049000008 .13800001 C .082 .13800001 .09900001 .163 .09900001 .187 C .09900001 .21100001 .082 .23600002 .049000008 .23600002 C .035 .23600002 0 .22900002 0 .18300002 C 0 .097 .069000009 0 .18100001 0 C .297 0 .39900003 .096 .39900003 .223 Z "/>
</symbol>
<use xlink:href="#font_1_7" transform="matrix(9.9626,0,0,-9.9626,26.985133,122.51018)"/>
<use xlink:href="#font_0_1" transform="matrix(9.9626,0,0,-9.9626,34.9829,119.9996)"/>
<symbol id="font_1_6">
<path d="M .266 .165 L .266 .078 C .266 .042000005 .26400004 .031000002 .19000001 .031000002 L .16900002 .031000002 L .16900002 0 C .21000001 .003 .26200003 .003 .30400003 .003 C .34600003 .003 .39900003 .003 .44000004 0 L .44000004 .031000002 L .41900004 .031000002 C .34500004 .031000002 .34300003 .042000005 .34300003 .078 L .34300003 .165 L .44300003 .165 L .44300003 .19600001 L .34300003 .19600001 L .34300003 .651 C .34300003 .671 .34300003 .67700007 .32700003 .67700007 C .31800003 .67700007 .31500004 .67700007 .307 .665 L 0 .19600001 L 0 .165 L .266 .165 M .272 .19600001 L .028 .19600001 L .272 .569 L .272 .19600001 Z "/>
</symbol>
<use xlink:href="#font_1_6" transform="matrix(9.9626,0,0,-9.9626,42.183958,122.291)"/>
<use xlink:href="#font_0_1" transform="matrix(9.9626,0,0,-9.9626,50.3999,119.9996)"/>
<symbol id="font_1_5">
<path d="M .24800003 .37400005 C .33 .40100003 .388 .47100006 .388 .55 C .388 .632 .3 .688 .204 .688 C .10300001 .688 .027000003 .628 .027000003 .55200007 C .027000003 .519 .049000004 .5 .078 .5 C .109000008 .5 .12900001 .522 .12900001 .55100008 C .12900001 .6010001 .082 .6010001 .067 .6010001 C .098 .65000006 .164 .66300007 .20000002 .66300007 C .24100003 .66300007 .29600004 .64100006 .29600004 .55100008 C .29600004 .53900006 .29400004 .48100005 .268 .43700005 C .238 .38900004 .204 .38600005 .17900002 .38500003 C .171 .38400004 .14700002 .38200004 .14000002 .38200004 C .132 .38100005 .125 .38000003 .125 .37000004 C .125 .35900004 .132 .35900004 .14900002 .35900004 L .19300002 .35900004 C .275 .35900004 .312 .29100005 .312 .193 C .312 .057000005 .24300003 .028 .199 .028 C .15600002 .028 .081 .045 .046000005 .104 C .081 .09900001 .11200001 .12100001 .11200001 .15900001 C .11200001 .19500001 .085 .215 .056 .215 C .031999999 .215 0 .201 0 .157 C 0 .06600001 .093 0 .20200002 0 C .32400004 0 .41500003 .091000009 .41500003 .193 C .41500003 .27500005 .35200004 .35300005 .24800003 .37400005 Z "/>
</symbol>
<use xlink:href="#font_1_5" transform="matrix(9.9626,0,0,-9.9626,57.740434,122.51018)"/>
<use xlink:href="#font_0_1" transform="matrix(9.9626,0,0,-9.9626,65.817897,119.9996)"/>
<symbol id="font_1_4">
<path d="M .07700001 .07700001 L .18300002 .18 C .33900003 .31800003 .39900003 .372 .39900003 .47200004 C .39900003 .586 .30900003 .666 .18700002 .666 C .074 .666 0 .574 0 .485 C 0 .42900003 .05 .42900003 .053000008 .42900003 C .07000001 .42900003 .105000007 .441 .105000007 .48200003 C .105000007 .508 .08700001 .53400006 .052000006 .53400006 C .044000005 .53400006 .042000008 .53400006 .039 .53300008 C .062000004 .59800007 .11600001 .63500007 .17400001 .63500007 C .26500003 .63500007 .308 .554 .308 .47200004 C .308 .39200003 .25800003 .31300003 .20300003 .25100003 L .011000004 .037 C 0 .026 0 .024 0 0 L .37100003 0 L .39900003 .17400001 L .374 .17400001 C .36900003 .14400001 .36200003 .1 .352 .085 C .345 .07700001 .279 .07700001 .257 .07700001 L .07700001 .07700001 Z "/>
</symbol>
<use xlink:href="#font_1_4" transform="matrix(9.9626,0,0,-9.9626,73.23813,122.291)"/>
<use xlink:href="#font_0_1" transform="matrix(9.9626,0,0,-9.9626,81.23589,119.9996)"/>
<symbol id="font_1_3">
<path d="M .205 .64000007 C .205 .66400006 .205 .666 .18200003 .666 C .120000008 .60200008 .032000007 .60200008 0 .60200008 L 0 .57100006 C .020000004 .57100006 .07900001 .57100006 .13100001 .597 L .13100001 .079 C .13100001 .043 .128 .031000002 .038000004 .031000002 L .0060000049 .031000002 L .0060000049 0 C .04100001 .003 .128 .003 .168 .003 C .20800002 .003 .29500003 .003 .33000005 0 L .33000005 .031000002 L .29800005 .031000002 C .20800002 .031000002 .205 .042000005 .205 .079 L .205 .64000007 Z "/>
</symbol>
<use xlink:href="#font_1_3" transform="matrix(9.9626,0,0,-9.9626,89.04467,122.291)"/>
<use xlink:href="#font_1_3" transform="matrix(9.9626,0,0,-9.9626,116.00467,122.291)"/>
<use xlink:href="#font_1_4" transform="matrix(9.9626,0,0,-9.9626,131.03412,122.291)"/>
<use xlink:href="#font_1_5" transform="matrix(9.9626,0,0,-9.9626,146.37242,122.51018)"/>
<use xlink:href="#font_1_6" transform="matrix(9.9626,0,0,-9.9626,161.64995,122.291)"/>
<use xlink:href="#font_1_7" transform="matrix(9.9626,0,0,-9.9626,177.28713,122.51018)"/>
<use xlink:href="#font_1_8" transform="matrix(9.9626,0,0,-9.9626,192.62543,122.51018)"/>
<use xlink:href="#font_0_1" transform="matrix(9.9626,0,0,-9.9626,84.64289,141.5636)"/>
<use xlink:href="#font_1_4" transform="matrix(9.9626,0,0,-9.9626,92.062129,143.855)"/>
<use xlink:href="#font_0_1" transform="matrix(9.9626,0,0,-9.9626,84.64289,126.14662)"/>
<use xlink:href="#font_1_3" transform="matrix(9.9626,0,0,-9.9626,92.45067,128.43802)"/>
<use xlink:href="#font_1_3" transform="matrix(9.9626,0,0,-9.9626,92.45067,98.017)"/>
<use xlink:href="#font_1_4" transform="matrix(9.9626,0,0,-9.9626,92.062129,82.6)"/>
<use xlink:href="#font_1_5" transform="matrix(9.9626,0,0,-9.9626,91.98242,67.40118)"/>
<use xlink:href="#font_1_6" transform="matrix(9.9626,0,0,-9.9626,91.84295,51.764)"/>
<use xlink:href="#font_1_7" transform="matrix(9.9626,0,0,-9.9626,92.062129,36.566179)"/>
<use xlink:href="#font_1_8" transform="matrix(9.9626,0,0,-9.9626,91.98242,21.148186)"/>
<clipPath id="cp2">
<path transform="matrix(1,0,0,-1,5.06,145.685)" d="M 0 0 L 194.26486 0 L 194.26486 132.59348 L 0 132.59348 Z "/>
</clipPath>
<g clip-path="url(#cp2)">
<path transform="matrix(1,0,0,-1,5.06,145.685)" stroke-width="1.19553" stroke-linecap="butt" stroke-miterlimit="10" stroke-linejoin="miter" fill="none" stroke="#000080" d="M 0 117.17563 L 4.04716 113.12843 L 8.09436 109.08125 L 12.14154 105.03406 L 16.18874 100.9869 L 20.2359 96.9397 L 24.2831 92.89252 L 28.33028 88.84532 L 32.37747 84.79814 L 36.42465 80.75096 L 40.47183 76.70378 L 44.51901 72.65659 L 48.56621 68.6094 L 52.61339 64.56221 L 56.66058 60.51505 L 60.70775 56.46785 L 64.75494 52.42067 L 68.80212 48.37347 L 72.84932 44.3263 L 76.8965 40.27911 L 80.94368 36.23193 L 84.99086 32.18474 L 89.03806 28.13756 L 93.08524 24.09036 L 97.13243 20.0432 "/>
<path transform="matrix(1,0,0,-1,5.06,145.685)" stroke-width="1.19553" stroke-linecap="butt" stroke-miterlimit="10" stroke-linejoin="miter" fill="none" stroke="#000080" d="M 97.13243 20.0432 L 99.70204 22.61281 L 102.27168 25.18245 L 104.84131 27.75208 L 107.41093 30.3217 L 109.98058 32.89134 L 112.5502 35.46097 L 115.11983 38.0306 L 117.68947 40.60023 L 120.2591 43.16986 L 122.82872 45.73949 L 125.39836 48.30913 L 127.96799 50.87875 L 130.53762 53.44838 L 133.10724 56.018 L 135.67688 58.58765 L 138.2465 61.15727 L 140.81613 63.7269 L 143.38578 66.29654 L 145.95539 68.86615 L 148.52503 71.43579 L 151.09467 74.00543 L 153.66428 76.57504 L 156.23392 79.14468 L 158.80355 81.71431 "/>
<path transform="matrix(1,0,0,-1,5.06,145.685)" stroke-width="1.19553" stroke-linecap="butt" stroke-miterlimit="10" stroke-linejoin="miter" fill="none" stroke="#000080" d="M 158.80382 20.0432 L 160.28134 21.39162 L 161.75888 22.52298 L 163.23642 23.486 L 164.71396 24.31561 L 166.1915 25.03763 L 167.66902 25.67194 L 169.14658 26.23346 L 170.62412 26.73422 L 172.10166 27.18303 L 173.5792 27.58806 L 175.05672 27.95532 L 176.53426 28.29019 L 178.0118 28.59593 L 179.48934 28.87683 L 180.96689 29.13586 L 182.44441 29.37498 L 183.92195 29.59702 L 185.39949 29.80313 L 186.87703 29.9954 L 188.35457 30.17487 L 189.83209 30.34308 L 191.30965 30.5008 L 192.78719 30.64928 L 194.26473 30.78912 "/>
<symbol id="font_3_3">
<path d="M .45700003 .586 C .461 .6 .461 .602 .461 .609 C .461 .62700006 .447 .63600006 .432 .63600006 C .42200003 .63600006 .40600003 .63 .397 .615 C .395 .61 .387 .579 .38300003 .561 C .37600003 .535 .36900003 .508 .363 .48100005 L .318 .301 C .314 .286 .271 .21600002 .20500002 .21600002 C .15400002 .21600002 .143 .26000003 .143 .29700003 C .143 .34300003 .16000001 .40500004 .194 .49300004 C .21000001 .53400006 .21400002 .545 .21400002 .56500008 C .21400002 .61 .18200001 .6470001 .13200002 .6470001 C .037 .6470001 0 .50200006 0 .49300004 C 0 .48300005 .01 .48300005 .012 .48300005 C .022000002 .48300005 .023 .485 .028000003 .50100007 C .055000009 .595 .095000009 .625 .12900001 .625 C .13700001 .625 .15400002 .625 .15400002 .59300008 C .15400002 .568 .14400001 .54200008 .13700001 .523 C .097 .41700004 .079 .36 .079 .31300003 C .079 .224 .142 .194 .201 .194 C .24000003 .194 .274 .21100001 .30200003 .23900002 C .289 .187 .277 .13800001 .237 .08500001 C .21100001 .051 .17300001 .022 .127 .022 C .113000009 .022 .068 .025000006 .051000008 .06400001 C .067 .06400001 .080000009 .06400001 .094000007 .076000008 C .104 .08500001 .11400001 .098000008 .11400001 .117000009 C .11400001 .148 .087000008 .15200001 .07700001 .15200001 C .054000006 .15200001 .021 .136 .021 .087000008 C .021 .037 .065000008 0 .127 0 C .23 0 .333 .091000009 .361 .20400001 L .45700003 .586 Z "/>
</symbol>
<use xlink:href="#font_3_3" transform="matrix(9.9626,0,0,-9.9626,112.958919,61.05434)"/>
<symbol id="font_1_9">
<path d="M .63100007 .19400002 C .646 .19400002 .665 .19400002 .665 .214 C .665 .23400001 .646 .23400001 .632 .23400001 L .033 .23400001 C .019000002 .23400001 0 .23400001 0 .214 C 0 .19400002 .019000002 .19400002 .034 .19400002 L .63100007 .19400002 M .632 0 C .646 0 .665 0 .665 .02000001 C .665 .040000008 .646 .040000008 .63100007 .040000008 L .034 .040000008 C .019000002 .040000008 0 .040000008 0 .02000001 C 0 0 .019000002 0 .033 0 L .632 0 Z "/>
</symbol>
<use xlink:href="#font_1_9" transform="matrix(9.9626,0,0,-9.9626,121.23691,57.68698)"/>
<symbol id="font_3_1">
<path d="M .314 .605 L .4 .605 C .42000003 .605 .43 .605 .43 .625 C .43 .63600006 .42000003 .63600006 .40300004 .63600006 L .32000003 .63600006 L .34100003 .75 C .34500004 .771 .35900004 .842 .365 .8540001 C .374 .873 .39100004 .888 .41200004 .888 C .416 .888 .44200004 .888 .461 .87 C .41700004 .86600008 .407 .8310001 .407 .816 C .407 .793 .425 .781 .444 .781 C .47 .781 .49900005 .8030001 .49900005 .8410001 C .49900005 .8870001 .45300005 .9100001 .41200004 .9100001 C .37800003 .9100001 .31500004 .8920001 .28500004 .793 C .279 .7720001 .27600003 .7620001 .252 .63600006 L .18300002 .63600006 C .164 .63600006 .15300001 .63600006 .15300001 .61700007 C .15300001 .605 .162 .605 .18100001 .605 L .24700001 .605 L .172 .21000001 C .15400002 .113000009 .13700001 .022 .08500001 .022 C .081 .022 .056 .022 .037 .040000008 C .083000008 .043000014 .09200001 .07900001 .09200001 .094000007 C .09200001 .117000009 .074 .12900001 .055 .12900001 C .029 .12900001 0 .10700001 0 .069000009 C 0 .024000004 .044 0 .08500001 0 C .14 0 .18 .059 .19800002 .09700001 C .23000002 .16000001 .25300003 .28100003 .254 .28800003 L .314 .605 Z "/>
</symbol>
<use xlink:href="#font_3_1" transform="matrix(9.9626,0,0,-9.9626,131.72303,61.05434)"/>
<symbol id="font_4_1">
<path d="M .24200002 .43100003 C .25 .448 .25100003 .456 .25100003 .463 C .25100003 .49400003 .22300002 .518 .192 .518 C .15400002 .518 .14200002 .487 .137 .47100003 L .0050000029 .038000004 C .0040000008 .036000007 0 .023000002 0 .022 C 0 .010000002 .031000004 0 .039000006 0 C .046000005 0 .047000007 .0020000004 .054000006 .017 L .24200002 .43100003 Z "/>
</symbol>
<use xlink:href="#font_4_1" transform="matrix(6.9738,0,0,-6.9738,137.47975,54.612085)"/>
<symbol id="font_1_1">
<path d="M .23200003 .00999999 C .23200003 .012999982 .23200003 .014999986 .215 .03199999 C .09 .15799999 .058 .347 .058 .5 C .058 .674 .096 .84800007 .21900001 .97300007 C .23200003 .985 .23200003 .98700007 .23200003 .99 C .23200003 .99700006 .22800002 1 .222 1 C .21200001 1 .12200001 .93200007 .06299999 .805 C .012000002 .69500008 0 .584 0 .5 C 0 .422 .011 .301 .066 .188 C .126 .065 .21200001 0 .222 0 C .22800002 0 .23200003 .0029999912 .23200003 .00999999 Z "/>
</symbol>
<use xlink:href="#font_1_1" transform="matrix(9.9626,0,0,-9.9626,140.9263,61.50266)"/>
<symbol id="font_3_2">
<path d="M .305 .31300003 C .311 .33900003 .334 .43100003 .404 .43100003 C .409 .43100003 .433 .43100003 .454 .418 C .426 .41300003 .40600003 .388 .40600003 .36400003 C .40600003 .34800003 .417 .32900004 .444 .32900004 C .46600003 .32900004 .498 .34700004 .498 .38700003 C .498 .43900005 .439 .45300005 .405 .45300005 C .347 .45300005 .312 .40000005 .3 .37700004 C .275 .44300003 .221 .45300005 .19200002 .45300005 C .08800001 .45300005 .031000002 .32400004 .031000002 .29900003 C .031000002 .28900004 .041 .28900004 .043000007 .28900004 C .051000008 .28900004 .054000006 .291 .056 .3 C .09 .40600003 .156 .43100003 .19000001 .43100003 C .209 .43100003 .244 .42200003 .244 .36400003 C .244 .33300004 .22700002 .26600004 .19000001 .126 C .17400001 .064 .13900002 .022000002 .095000009 .022000002 C .08900001 .022000002 .06600001 .022000002 .045 .035 C .07000001 .040000004 .09200001 .061 .09200001 .089 C .09200001 .116000007 .07000001 .124000009 .055000009 .124000009 C .025 .124000009 0 .098000008 0 .06600001 C 0 .020000002 .050000006 0 .094000007 0 C .16000001 0 .19600001 .07000001 .19900002 .076000008 C .21100001 .039 .24700003 0 .307 0 C .41 0 .467 .12900001 .467 .15400002 C .467 .16400002 .458 .16400002 .455 .16400002 C .446 .16400002 .444 .16000001 .442 .15300001 C .409 .046 .341 .022000002 .30900003 .022000002 C .27 .022000002 .254 .054 .254 .08800001 C .254 .11000001 .26 .13200002 .271 .17600002 L .305 .31300003 Z "/>
</symbol>
<use xlink:href="#font_3_2" transform="matrix(9.9626,0,0,-9.9626,144.10391,59.121599)"/>
<symbol id="font_1_2">
<path d="M .232 .5 C .232 .578 .22100002 .699 .16600001 .81200006 C .106 .93500009 .020000004 1 .009999998 1 C .0040000008 1 0 .99600008 0 .99 C 0 .98700007 0 .985 .019000002 .967 C .117000009 .86800006 .174 .709 .174 .5 C .174 .329 .137 .153 .012999997 .026999996 C 0 .014999986 0 .012999982 0 .00999999 C 0 .003999993 .0040000008 0 .009999998 0 C .020000004 0 .11000001 .06799999 .169 .195 C .22 .305 .232 .416 .232 .5 Z "/>
</symbol>
<use xlink:href="#font_1_2" transform="matrix(9.9626,0,0,-9.9626,150.07688,61.50266)"/>
</g>
<path transform="matrix(1,0,0,-1,5.06,145.685)" d="M 160.79637 81.71458 C 160.79637 82.81505 159.90428 83.70714 158.80382 83.70714 C 157.70334 83.70714 156.81127 82.81505 156.81127 81.71458 C 156.81127 80.6141 157.70334 79.72203 158.80382 79.72203 C 159.90428 79.72203 160.79637 80.6141 160.79637 81.71458 Z M 158.80382 81.71458 " fill="#ffffff"/>
<path transform="matrix(1,0,0,-1,5.06,145.685)" stroke-width=".3985" stroke-linecap="butt" stroke-miterlimit="10" stroke-linejoin="miter" fill="none" stroke="#000080" d="M 160.79637 81.71458 C 160.79637 82.81505 159.90428 83.70714 158.80382 83.70714 C 157.70334 83.70714 156.81127 82.81505 156.81127 81.71458 C 156.81127 80.6141 157.70334 79.72203 158.80382 79.72203 C 159.90428 79.72203 160.79637 80.6141 160.79637 81.71458 Z M 158.80382 81.71458 "/>
<path transform="matrix(1,0,0,-1,5.06,145.685)" d="M 160.79637 20.0432 C 160.79637 21.14366 159.90428 22.03575 158.80382 22.03575 C 157.70334 22.03575 156.81127 21.14366 156.81127 20.0432 C 156.81127 18.94272 157.70334 18.05064 158.80382 18.05064 C 159.90428 18.05064 160.79637 18.94272 160.79637 20.0432 Z M 158.80382 20.0432 " fill="#ffffff"/>
<path transform="matrix(1,0,0,-1,5.06,145.685)" stroke-width=".3985" stroke-linecap="butt" stroke-miterlimit="10" stroke-linejoin="miter" fill="none" stroke="#000080" d="M 160.79637 20.0432 C 160.79637 21.14366 159.90428 22.03575 158.80382 22.03575 C 157.70334 22.03575 156.81127 21.14366 156.81127 20.0432 C 156.81127 18.94272 157.70334 18.05064 158.80382 18.05064 C 159.90428 18.05064 160.79637 18.94272 160.79637 20.0432 Z M 158.80382 20.0432 "/>
<use xlink:href="#font_3_2" transform="matrix(9.9626,0,0,-9.9626,203.1609,112.47459)"/>
<use xlink:href="#font_3_3" transform="matrix(9.9626,0,0,-9.9626,99.878917,9.652334)"/>
</svg>
