<?xml version="1.0" encoding="UTF-8" standalone="no"?>
<!DOCTYPE svg PUBLIC "-//W3C//DTD SVG 1.1//EN" "http://www.w3.org/Graphics/SVG/1.1/DTD/svg11.dtd">
<svg xmlns="http://www.w3.org/2000/svg" xmlns:xlink="http://www.w3.org/1999/xlink" version="1.1" width="188.708pt" height="50.778pt" viewBox="0 0 188.708 50.778">
<symbol id="font_0_1">
<path d="M .49 .326 C .38500003 .43800003 .279 .451 .22600001 .451 C .09700001 .451 0 .34800003 0 .22500001 C 0 .108 .092 0 .22300002 0 C .34500004 0 .44700004 .081 .508 .16600001 L .545 .125 C .65000006 .013 .75600007 0 .8090001 0 C .938 0 1.035 .103 1.035 .22600001 C 1.035 .343 .943 .451 .81200006 .451 C .69000008 .451 .58800008 .37 .527 .285 L .49 .326 M .56100007 .24700003 C .61800006 .32500003 .70300009 .40800003 .82100006 .40800003 C .9290001 .40800003 1.002 .32 1.002 .22600001 C 1.002 .12900001 .91800007 .060000004 .82600006 .060000004 C .74700006 .060000004 .67800006 .107 .56100007 .24700003 M .47400005 .20400001 C .41700007 .126 .33200003 .043 .21400002 .043 C .10600001 .043 .033 .13100001 .033 .22500001 C .033 .322 .117000009 .391 .20900002 .391 C .28800003 .391 .35700003 .344 .47400005 .20400001 Z "/>
</symbol>
<use xlink:href="#font_0_1" transform="matrix(5.9776,0,0,-5.9776,6.633916,6.7007749)"/>
<symbol id="font_1_1">
<path d="M 1.245 0 L 1.37 .319 L 1.342 .319 C 1.255 .110000018 .971 .086000088 .75400009 .086000088 L .13300002 .086000088 L .651 .6830001 C .6610001 .69400009 .6610001 .69500008 .6610001 .70000007 C .6610001 .70300009 .6610001 .70500007 .65400007 .71500006 L .176 1.3500002 L .7440001 1.3500002 C .93500009 1.3500002 1.0370001 1.325 1.058 1.32 C 1.197 1.2870001 1.302 1.2120001 1.342 1.1170001 L 1.37 1.1170001 L 1.245 1.4000001 L .029 1.4000001 C .009999998 1.4000001 .0059999974 1.4000001 .0020000004 1.3930001 C 0 1.389 0 1.371 0 1.3590001 L .54 .64000007 L .009999998 .029000044 C 0 .018000007 0 .014999986 0 .013000011 C 0 0 .011 0 .029 0 L 1.245 0 Z "/>
</symbol>
<use xlink:href="#font_1_1" transform="matrix(8.9664,0,0,-8.9664,3.586084,21.883959)"/>
<symbol id="font_2_1">
<path d="M .24100001 .674 C .242 .67800006 .244 .684 .244 .689 C .244 .70500007 .22400002 .704 .212 .703 L .10000001 .694 C .083000008 .693 .07000001 .69200006 .07000001 .66800007 C .07000001 .653 .083000008 .653 .09900001 .653 C .128 .653 .135 .65000006 .148 .646 C .148 .634 .148 .632 .14400001 .616 L .0040000008 .057000005 C 0 .041 0 .036000004 0 .034 C 0 .009000001 .020000004 0 .034999998 0 C .045 0 .06300001 .0040000008 .076000008 .023000002 C .083000008 .036000004 .12300001 .202 .13000001 .23400001 C .19700001 .22900002 .269 .21300002 .269 .15400002 C .269 .14900002 .269 .14400001 .26600004 .133 C .263 .118 .263 .112 .263 .104 C .263 .038000004 .319 0 .376 0 C .473 0 .508 .14600002 .508 .15400002 C .508 .15600002 .507 .16800002 .48900003 .16800002 C .47500003 .16800002 .473 .16200002 .468 .14500001 C .458 .109000008 .43 .033000005 .379 .033000005 C .34100003 .033000005 .34100003 .076 .34100003 .087000008 C .34100003 .103 .34100003 .104 .34600003 .124000009 C .34600003 .125 .351 .14500001 .351 .157 C .351 .23400001 .264 .25800003 .18700002 .26500003 C .21100001 .28 .23200001 .296 .272 .331 C .32200004 .375 .374 .418 .42900003 .418 C .44200004 .418 .454 .41500003 .463 .405 C .42800004 .398 .413 .37 .413 .349 C .413 .317 .439 .31 .453 .31 C .47500003 .31 .51100006 .326 .51100006 .37600003 C .51100006 .419 .47900004 .451 .43 .451 C .36700005 .451 .30800004 .403 .26200003 .363 C .21000003 .31800003 .179 .292 .142 .278 L .24100001 .674 Z "/>
</symbol>
<use xlink:href="#font_2_1" transform="matrix(5.9776,0,0,-5.9776,3.6149607,28.485774)"/>
<symbol id="font_3_3">
<path d="M .739 .23000002 C .753 .23000002 .776 .23000002 .776 .256 C .776 .28200004 .7490001 .28200004 .734 .28200004 L .042000005 .28200004 C .027000003 .28200004 0 .28200004 0 .256 C 0 .23000002 .023000002 .23000002 .037 .23000002 L .739 .23000002 M .734 0 C .7490001 0 .776 0 .776 .026 C .776 .05200001 .753 .05200001 .739 .05200001 L .037 .05200001 C .023000002 .05200001 0 .05200001 0 .026 C 0 0 .027000003 0 .042000005 0 L .734 0 Z "/>
</symbol>
<symbol id="font_3_2">
<path d="M .23800002 .63500007 C .23800002 .665 .23400001 .665 .20400001 .665 C .138 .601 .036 .601 0 .601 L 0 .56200006 C .025999994 .56200006 .09200001 .56200006 .152 .59000006 L .152 .085 C .152 .052 .152 .039 .048999996 .039 L .0059999974 .039 L .0059999974 0 C .061000006 .004 .13900002 .004 .19500001 .004 C .251 .004 .329 .004 .384 0 L .384 .039 L .34100003 .039 C .23800002 .039 .23800002 .052 .23800002 .085 L .23800002 .63500007 Z "/>
</symbol>
<use xlink:href="#font_3_3" transform="matrix(5.9776,0,0,-5.9776,7.6182296,27.774439)"/>
<use xlink:href="#font_3_2" transform="matrix(5.9776,0,0,-5.9776,13.458344,28.425997)"/>
<symbol id="font_4_2">
<path d="M .34000004 .39100004 C .321 .42700003 .29000003 .45300005 .245 .45300005 C .12900001 .45300005 0 .31500004 0 .16200002 C 0 .052 .07 0 .137 0 C .20200002 0 .25500003 .054 .27100004 .07300001 C .282 .018000002 .33200003 0 .36400003 0 C .39300005 0 .418 .013000001 .44000004 .055000005 C .458 .08800001 .472 .15000002 .472 .15400002 C .472 .15900001 .46900005 .16600001 .45900006 .16600001 C .44700004 .16600001 .44600005 .16100002 .44200004 .14200002 C .42000003 .055000005 .39800004 .025000003 .367 .025000003 C .342 .025000003 .33600004 .049000004 .33600004 .071 C .33600004 .09 .34100003 .11000001 .35000003 .14500001 L .37500004 .24800003 C .38200004 .27300004 .40000005 .34800003 .404 .36300005 C .40800003 .37700004 .41400004 .40100003 .41400004 .404 C .41400004 .42000003 .40100003 .43300004 .38300003 .43300004 C .37000004 .43300004 .34500004 .42500005 .34000004 .39100004 M .275 .13300002 C .27 .11400001 .27 .113000009 .254 .094000007 C .21800003 .051000004 .17700002 .025000003 .14000002 .025000003 C .091 .025000003 .074 .076000008 .074 .119 C .074 .16800002 .10300001 .28300003 .127 .33100004 C .15900001 .39100004 .20500002 .42800004 .245 .42800004 C .312 .42800004 .32700003 .34800003 .32700003 .34100003 C .32700003 .33600004 .32500003 .33 .32400004 .32600004 L .275 .13300002 Z "/>
</symbol>
<use xlink:href="#font_4_2" transform="matrix(8.9664,0,0,-8.9664,18.301589,17.94763)"/>
<use xlink:href="#font_2_1" transform="matrix(5.9776,0,0,-5.9776,23.350962,18.971776)"/>
<symbol id="font_5_2">
<path d="M .651 .20400003 C .6650001 .20400003 .6840001 .20400003 .6840001 .22500003 C .6840001 .24700001 .66200008 .24700001 .6470001 .24700001 L .037 .24700001 C .022 .24700001 0 .24700001 0 .22500003 C 0 .20400003 .020000004 .20400003 .033 .20400003 L .651 .20400003 M .6470001 0 C .66200008 0 .6840001 0 .6840001 .022 C .6840001 .042999999 .6650001 .042999999 .651 .042999999 L .033 .042999999 C .020000004 .042999999 0 .042999999 0 .022 C 0 0 .022 0 .037 0 L .6470001 0 Z "/>
</symbol>
<use xlink:href="#font_5_2" transform="matrix(8.9664,0,0,-8.9664,30.451085,16.710267)"/>
<use xlink:href="#font_4_2" transform="matrix(8.9664,0,0,-8.9664,40.044588,17.94763)"/>
<use xlink:href="#font_3_2" transform="matrix(5.9776,0,0,-5.9776,45.27329,18.845)"/>
<symbol id="font_5_1">
<path d="M .64900007 .32100005 C .66300007 .32100005 .6840001 .32100005 .6840001 .342 C .6840001 .36400003 .6650001 .36400003 .64900007 .36400003 L .36400003 .36400003 L .36400003 .65000006 C .36400003 .666 .36400003 .68500009 .342 .68500009 C .321 .68500009 .321 .66400006 .321 .65000006 L .321 .36400003 L .035000005 .36400003 C .020999998 .36400003 0 .36400003 0 .34300003 C 0 .32100005 .019000002 .32100005 .035000005 .32100005 L .321 .32100005 L .321 .035000005 C .321 .019000002 .321 0 .343 0 C .36400003 0 .36400003 .021000006 .36400003 .035000005 L .36400003 .32100005 L .64900007 .32100005 Z "/>
</symbol>
<use xlink:href="#font_5_1" transform="matrix(8.9664,0,0,-8.9664,51.260087,18.673909)"/>
<symbol id="font_4_1">
<path d="M .108 .054 C .108 .083000008 .085 .108 .053999999 .108 C .023000002 .108 0 .083000008 0 .054 C 0 .025 .023000002 0 .053999999 0 C .085 0 .108 .025 .108 .054 Z "/>
</symbol>
<use xlink:href="#font_4_1" transform="matrix(8.9664,0,0,-8.9664,60.753046,17.848999)"/>
<use xlink:href="#font_4_1" transform="matrix(8.9664,0,0,-8.9664,64.850688,17.848999)"/>
<use xlink:href="#font_4_1" transform="matrix(8.9664,0,0,-8.9664,68.9573,17.848999)"/>
<use xlink:href="#font_5_1" transform="matrix(8.9664,0,0,-8.9664,73.274089,18.673909)"/>
<use xlink:href="#font_4_2" transform="matrix(8.9664,0,0,-8.9664,82.35458,17.94763)"/>
<symbol id="font_2_2">
<path d="M .23200001 .356 C .22700002 .432 .157 .451 .119 .451 C .081 .451 .055 .428 .037 .396 C .012000002 .35500003 0 .30200003 0 .298 C 0 .287 .008999996 .283 .018 .283 C .034 .283 .034999998 .29 .04 .306 C .060000004 .386 .08400001 .418 .116 .418 C .15200001 .418 .15200001 .377 .15200001 .367 C .15200001 .351 .142 .31100003 .135 .283 C .128 .256 .118 .21500002 .113000009 .19300002 C .106000009 .16800002 .10000001 .142 .09300001 .117000009 C .085999999 .089 .074 .039 .074 .033000005 C .074 .011000001 .091000009 0 .109 0 C .127 0 .14400001 .012000001 .15200001 .027000003 C .154 .033000005 .163 .068 .16800002 .088 L .19000001 .17800002 C .19700001 .20400001 .20100002 .22200002 .207 .24500002 C .216 .279 .251 .33200003 .288 .36900003 C .30800004 .388 .351 .418 .40500004 .418 C .46900005 .418 .46900005 .367 .46900005 .34800003 C .46900005 .289 .426 .18200001 .408 .13700001 C .402 .120000008 .39500005 .104 .39500005 .087000008 C .39500005 .036000004 .44100005 0 .49600006 0 C .59700009 0 .647 .13200002 .647 .15400002 C .647 .15600002 .646 .16800002 .628 .16800002 C .614 .16800002 .61300006 .16300002 .60700008 .14400001 C .591 .091 .55 .033000005 .499 .033000005 C .48000003 .033000005 .47200007 .048000006 .47200007 .069000009 C .47200007 .089 .47900004 .106 .48800005 .127 C .503 .16600001 .54800006 .279 .54800006 .335 C .54800006 .417 .48600007 .451 .41000004 .451 C .36 .451 .296 .435 .23200001 .356 Z "/>
</symbol>
<use xlink:href="#font_2_2" transform="matrix(5.9776,0,0,-5.9776,87.22463,18.904776)"/>
<symbol id="font_1_4">
<path d="M .48600004 .09900001 C .48600004 .12100001 .48600004 .127 .47100003 .127 C .43300004 .128 .32700003 .13000001 .21900001 .18200001 C .114 .23400001 .07 .305 .049000004 .33900003 C .045 .34500004 .04 .34500004 .025 .34500004 C 0 .34500004 0 .344 0 .32000003 C 0 .305 0 .303 .0019999985 .3 C .091 .123 .28300003 0 .46400003 0 C .48600004 0 .48600004 .002 .48600004 .028 L .48600004 .09900001 Z "/>
</symbol>
<use xlink:href="#font_1_4" transform="matrix(8.9664,0,0,-8.9664,39.44384,22.97)"/>
<path transform="matrix(1,0,0,-1,43.703,22.97)" d="M 0 0 L 18.076 0 L 18.076 1.136 L 0 1.136 Z "/>
<symbol id="font_1_3">
<path d="M 0 .246 C 0 .224 0 .21800001 .015000001 .21800001 C .056 .21700001 .16000001 .215 .26700003 .163 C .37200005 .111 .41600005 .040000008 .43700005 .0059999974 C .441 0 .44600005 0 .46100004 0 C .48600004 0 .48600004 .001000002 .48600004 .025000006 C .48600004 .040000008 .48600004 .041999997 .48400004 .045 C .395 .222 .20300001 .34500004 .022000002 .34500004 C 0 .34500004 0 .343 0 .31700004 L 0 .246 Z "/>
</symbol>
<symbol id="font_1_2">
<path d="M .48600004 .31700004 C .48600004 .343 .48600004 .34500004 .46400003 .34500004 C .37300004 .34500004 .158 .305 .017 .072 C 0 .045 0 .042999999 0 .025000006 C 0 .001000002 0 0 .025 0 C .042000005 0 .045 0 .05 .008000001 C .126 .13100001 .256 .21400002 .47400005 .21800001 C .48600004 .21800001 .48600004 .22700002 .48600004 .246 L .48600004 .31700004 Z "/>
</symbol>
<use xlink:href="#font_1_3" transform="matrix(8.9664,0,0,-8.9664,61.68037,24.924675)"/>
<use xlink:href="#font_1_2" transform="matrix(8.9664,0,0,-8.9664,65.58972,24.924675)"/>
<path transform="matrix(1,0,0,-1,69.848,22.97)" d="M 0 0 L 18.076 0 L 18.076 1.136 L 0 1.136 Z "/>
<symbol id="font_1_5">
<path d="M 0 .028 C 0 .002 0 0 .022000002 0 C .113000009 0 .328 .040000004 .46900005 .273 C .48600004 .3 .48600004 .30200003 .48600004 .32000003 C .48600004 .344 .48600004 .34500004 .46100004 .34500004 C .44400005 .34500004 .441 .34500004 .43600003 .337 C .36200003 .21700001 .23500002 .13100001 .012000001 .127 C 0 .127 0 .11800001 0 .09900001 L 0 .028 Z "/>
</symbol>
<use xlink:href="#font_1_5" transform="matrix(8.9664,0,0,-8.9664,87.82537,22.97)"/>
<use xlink:href="#font_5_1" transform="matrix(8.9664,0,0,-8.9664,94.00609,18.673909)"/>
<use xlink:href="#font_4_2" transform="matrix(8.9664,0,0,-8.9664,102.57559,17.94763)"/>
<use xlink:href="#font_2_2" transform="matrix(5.9776,0,0,-5.9776,107.44564,18.904776)"/>
<symbol id="font_3_1">
<path d="M .41400004 .36300005 L .73700007 .36300005 C .75100007 .36300005 .776 .36300005 .776 .389 C .776 .41500003 .75100007 .41500003 .73700007 .41500003 L .41400004 .41500003 L .41400004 .739 C .41400004 .753 .41400004 .77800008 .388 .77800008 C .36200003 .77800008 .36200003 .753 .36200003 .739 L .36200003 .41500003 L .039000006 .41500003 C .024999999 .41500003 0 .41500003 0 .389 C 0 .36300005 .024999999 .36300005 .039000006 .36300005 L .36200003 .36300005 L .36200003 .039000013 C .36200003 .025000006 .36200003 0 .388 0 C .41400004 0 .41400004 .025000006 .41400004 .039000013 L .41400004 .36300005 Z "/>
</symbol>
<use xlink:href="#font_3_1" transform="matrix(5.9776,0,0,-5.9776,112.15324,19.675887)"/>
<use xlink:href="#font_3_2" transform="matrix(5.9776,0,0,-5.9776,117.993358,18.845)"/>
<use xlink:href="#font_5_1" transform="matrix(8.9664,0,0,-8.9664,123.981098,18.673909)"/>
<use xlink:href="#font_4_1" transform="matrix(8.9664,0,0,-8.9664,133.47505,17.848999)"/>
<use xlink:href="#font_4_1" transform="matrix(8.9664,0,0,-8.9664,137.5727,17.848999)"/>
<use xlink:href="#font_4_1" transform="matrix(8.9664,0,0,-8.9664,141.6793,17.848999)"/>
<use xlink:href="#font_1_4" transform="matrix(8.9664,0,0,-8.9664,101.974849,23.8)"/>
<path transform="matrix(1,0,0,-1,106.234,23.8)" d="M 0 0 L 12.549 0 L 12.549 1.136 L 0 1.136 Z "/>
<use xlink:href="#font_1_3" transform="matrix(8.9664,0,0,-8.9664,118.684368,25.754675)"/>
<use xlink:href="#font_1_2" transform="matrix(8.9664,0,0,-8.9664,122.59372,25.754675)"/>
<path transform="matrix(1,0,0,-1,126.853,23.8)" d="M 0 0 L 12.549 0 L 12.549 1.136 L 0 1.136 Z "/>
<use xlink:href="#font_1_5" transform="matrix(8.9664,0,0,-8.9664,139.30336,23.8)"/>
<use xlink:href="#font_5_2" transform="matrix(8.9664,0,0,-8.9664,146.50807,16.710267)"/>
<symbol id="font_4_4">
<path d="M .344 .38500003 C .301 .381 .29700003 .34700004 .29700003 .34000004 C .29700003 .323 .31 .31000004 .32900004 .31000004 C .35700003 .31000004 .37600003 .33300004 .37600003 .36600004 C .37600003 .41600005 .32700003 .45300005 .25300003 .45300005 C .119 .45300005 .081 .35300002 .081 .307 C .081 .26900003 .10000001 .24900002 .113000009 .23700002 C .133 .21800003 .16000001 .21200001 .19600001 .20500002 C .241 .19600001 .25100003 .19400002 .26900003 .18100001 C .28500004 .16900002 .294 .15300001 .294 .13200002 C .294 .106000009 .27 .025000003 .149 .025000003 C .126 .025000003 .056 .028 .034 .074 C .08400001 .074 .094 .11400001 .094 .128 C .094 .158 .067 .16400002 .056 .16400002 C .038000004 .16400002 0 .15000002 0 .098000008 C 0 .036000004 .063 0 .148 0 C .316 0 .35300002 .123 .35300002 .16600001 C .35300002 .20400001 .33200003 .22800002 .32000003 .24000003 C .294 .26700003 .26200003 .27300004 .227 .28000004 C .215 .28300003 .193 .28700004 .19000001 .28800003 C .157 .29500003 .139 .31500004 .139 .34000004 C .139 .351 .14600002 .38300003 .17400001 .40500004 C .20200002 .42700003 .24000001 .42800004 .25300003 .42800004 C .28800003 .42800004 .32900004 .41700004 .344 .38500003 Z "/>
</symbol>
<use xlink:href="#font_4_4" transform="matrix(8.9664,0,0,-8.9664,156.19922,17.94763)"/>
<use xlink:href="#font_2_2" transform="matrix(5.9776,0,0,-5.9776,160.38164,18.904776)"/>
<use xlink:href="#font_5_1" transform="matrix(8.9664,0,0,-8.9664,167.67508,18.673909)"/>
<symbol id="font_4_3">
<path d="M .375 .41600005 C .342 .41000004 .325 .38200004 .325 .36100004 C .325 .34200005 .33900003 .32500003 .364 .32500003 C .391 .32500003 .419 .34800003 .419 .38500003 C .419 .42400003 .38300003 .45300005 .334 .45300005 C .259 .45300005 .21700001 .397 .20300001 .37800003 C .19100002 .43300004 .14600002 .45300005 .10800001 .45300005 C .072000008 .45300005 .049000004 .43100003 .032000007 .39600004 C .013000002 .36 0 .30300004 0 .29900003 C 0 .29000003 .007000001 .28700004 .014 .28700004 C .025 .28700004 .027 .29200004 .032000007 .31200005 C .051000008 .39100004 .072000008 .42800004 .106000009 .42800004 C .136 .42800004 .136 .39600004 .136 .381 C .136 .36 .128 .32900004 .12200001 .30300004 C .11500001 .277 .105000007 .23400001 .10100001 .22200002 L .061000006 .058000003 C .054000006 .034 .054000006 .032 .054000006 .029000003 C .054000006 .016 .06300001 0 .08500001 0 C .11700001 0 .12400001 .027000003 .13100001 .056 C .143 .09900001 .143 .101 .15300001 .14200002 C .19000001 .29200004 .19600001 .316 .19800002 .321 C .20400001 .33300004 .25 .42800004 .333 .42800004 C .356 .42800004 .37 .42000003 .375 .41600005 Z "/>
</symbol>
<use xlink:href="#font_4_3" transform="matrix(8.9664,0,0,-8.9664,176.63903,17.94763)"/>
<use xlink:href="#font_2_2" transform="matrix(5.9776,0,0,-5.9776,180.90164,18.904776)"/>
<symbol id="font_6_2">
<path d="M .37800003 .24000003 C .402 .24000003 .41000004 .24000003 .41000004 .30300004 C .41000004 .41700004 .33400003 .45900003 .254 .45900003 C .117 .45900003 0 .32700003 0 .19400002 C 0 .081 .08499999 0 .194 0 C .32000003 0 .38500003 .113000009 .38500003 .13000001 C .38500003 .13700001 .38000003 .143 .37100003 .143 C .36200003 .143 .36 .13800001 .356 .13100001 C .317 .053000004 .245 .028 .20000002 .028 C .14500001 .028 .083000008 .065000008 .083000008 .16500002 C .083000008 .18500002 .087 .22000002 .091000009 .24000003 L .37800003 .24000003 M .096 .26400004 C .128 .404 .213 .43400003 .25300003 .43400003 C .32700003 .43400003 .344 .367 .344 .31700004 C .344 .291 .33900003 .26500003 .33900003 .26400004 L .096 .26400004 Z "/>
</symbol>
<symbol id="font_6_a">
<path d="M .17400001 .157 C .19000001 .254 .19600001 .287 .222 .33200003 C .24900002 .379 .286 .41700004 .34100003 .41700004 L .34100003 .416 C .33900003 .41500003 .31800003 .40100003 .31800003 .37300004 C .31800003 .344 .34100003 .335 .35700003 .335 C .38300003 .335 .407 .35700003 .407 .386 C .407 .41400004 .38400004 .44200004 .33900003 .44200004 C .264 .44200004 .21700001 .37300004 .2 .342 L .216 .44200004 L .072000008 .43100003 L .067 .4 C .126 .4 .13700001 .39400003 .13700001 .367 C .13700001 .36200003 .13700001 .36 .134 .34300003 L .089 .072000008 C .082 .031000002 .067 .031000002 .004999999 .031000002 C .0040000008 .023000002 .0010000002 .009000001 0 0 C .050000006 .002 .066 .003 .117 .003 C .164 .003 .186 .002 .245 0 L .25 .031000002 L .229 .031000002 C .163 .031000002 .15900001 .041 .15900001 .060000004 C .15900001 .066 .163 .089 .165 .10300001 L .17400001 .157 Z "/>
</symbol>
<symbol id="font_6_8">
<path d="M .462 .263 C .462 .37500004 .38200004 .45900003 .27000005 .45900003 C .125 .45900003 0 .321 0 .18700002 C 0 .086 .076000008 0 .19400002 0 C .33200003 0 .462 .12100001 .462 .263 M .19900002 .028 C .16600001 .028 .083000008 .041 .083000008 .15600002 C .083000008 .17900002 .09200001 .29500003 .12900001 .35500003 C .164 .41000004 .219 .43400003 .26600004 .43400003 C .30300004 .43400003 .38200004 .41600005 .38200004 .30800004 C .38200004 .29500003 .376 .17700002 .33500005 .108 C .30300004 .055000005 .24800001 .028 .19900002 .028 Z "/>
</symbol>
<use xlink:href="#font_6_2" transform="matrix(8.9664,0,0,-8.9664,113.49591,35.283628)"/>
<use xlink:href="#font_6_a" transform="matrix(8.9664,0,0,-8.9664,117.306629,35.184999)"/>
<use xlink:href="#font_6_a" transform="matrix(8.9664,0,0,-8.9664,120.91112,35.184999)"/>
<use xlink:href="#font_6_8" transform="matrix(8.9664,0,0,-8.9664,124.79357,35.283628)"/>
<use xlink:href="#font_6_a" transform="matrix(8.9664,0,0,-8.9664,129.12435,35.184999)"/>
<symbol id="font_6_1">
<path d="M .44500003 .15600002 C .439 .11800001 .43500004 .091000009 .43300004 .08400001 C .42800004 .065000008 .41300003 .040000004 .39000003 .040000004 C .36200003 .040000004 .36100004 .074 .36100004 .079 C .36100004 .087000008 .36800004 .127 .372 .14700002 C .379 .18400002 .40100003 .30300004 .40100003 .33300004 C .40100003 .40300004 .337 .45900003 .24200002 .45900003 C .13700001 .45900003 .07100001 .39900003 .07100001 .34500004 C .07100001 .321 .08700001 .305 .113000009 .305 C .14000002 .305 .165 .32700003 .165 .358 C .165 .39100004 .135 .397 .12900001 .39800004 C .17000002 .43200005 .229 .43400003 .23900002 .43400003 C .30600003 .43400003 .328 .37900005 .328 .33900003 C .328 .33300004 .328 .33100004 .319 .275 C .268 .27300004 .19000001 .26900003 .11700001 .23700002 C .017 .19200002 0 .124000009 0 .095000009 C 0 .027000003 .081000018 0 .14900002 0 C .23300001 0 .28000004 .057000005 .296 .082 C .296 .016 .33800004 .005000001 .36 .005000001 C .39300005 .005000001 .451 .027000003 .46300004 .096 C .465 .107 .47 .136 .47300003 .15600002 L .44500003 .15600002 M .31500004 .25100003 C .30800004 .21100001 .30400003 .16700001 .29400004 .13100001 C .27600003 .068 .21400002 .025000003 .157 .025000003 C .113000009 .025000003 .08000001 .053000004 .08000001 .094000007 C .08000001 .097 .08000001 .23900002 .31500004 .25100003 Z "/>
</symbol>
<symbol id="font_6_9">
<path d="M .254 .63600006 L .104 .625 L .099 .594 C .15600002 .594 .17000002 .59000006 .17000002 .566 C .17000002 .56200006 .17000002 .56000009 .16700001 .543 L .089 .073 C .082 .031000004 .066 .031000004 .005 .031000004 L 0 0 C .047000003 .002000004 .066 .0029999912 .114 .0029999912 C .157 .0029999912 .18100001 .002000004 .22700002 0 L .23300001 .031000004 C .18200001 .031000004 .16100002 .031000004 .16100002 .056999998 C .16100002 .065 .18400002 .202 .19200002 .244 C .20900002 .21800001 .24400002 .183 .30900003 .183 C .44200004 .183 .577 .301 .577 .446 C .577 .559 .49700005 .63600006 .39300005 .63600006 C .32900004 .63600006 .277 .605 .24400002 .57500007 L .254 .63600006 M .23600002 .513 C .24100001 .54200008 .275 .568 .29000003 .578 C .31100003 .592 .34700004 .60800006 .38400004 .60800006 C .45600004 .60800006 .492 .535 .492 .45900003 C .492 .323 .397 .208 .30400003 .208 C .22400002 .208 .20000002 .284 .20000002 .292 L .202 .306 L .23600002 .513 Z "/>
</symbol>
<symbol id="font_6_f">
<path d="M .26000003 .21000001 L .17300001 .12200001 C .12200001 .07 .08400001 .033 .005000001 .031000002 C .0040000008 .022000002 .0010000002 .008 0 0 C .029000001 .003 .057000005 .003 .086 .003 C .11700001 .003 .149 .002 .18 0 L .186 .030000002 C .17300001 .031000002 .163 .042000005 .163 .055000005 C .163 .076000008 .17300001 .085 .21200001 .124000009 L .27400003 .187 L .335 .08800001 C .35000003 .066 .35000003 .064 .35000003 .059000005 C .35000003 .048 .34 .033 .312 .031000002 C .31100003 .023000002 .30800004 .009000001 .307 0 C .34500004 .002 .37100003 .003 .416 .003 C .42000003 .003 .476 .003 .513 0 L .51900008 .031000002 C .45000003 .031000002 .44900004 .032 .40800003 .097 L .32200004 .23500002 L .42800004 .34300003 C .46500004 .379 .51100006 .39900003 .563 .4 L .568 .43100003 C .53900006 .42800004 .51100006 .42800004 .48200003 .42800004 C .48100005 .42800004 .43000005 .42800004 .388 .43100003 L .38200004 .40100003 C .395 .4 .40500004 .39000003 .40500004 .377 C .40500004 .35500003 .39100004 .34100003 .36200003 .312 L .30800004 .259 L .24800003 .35500003 C .24000001 .36600004 .24000001 .36800004 .24000001 .372 C .24000001 .38000003 .24700001 .39800004 .279 .4 L .284 .43100003 C .236 .42900003 .21500002 .42800004 .17400001 .42800004 C .14000002 .42800004 .112 .42800004 .07700001 .43100003 L .072000008 .4 C .12500002 .4 .142 .39800004 .16200002 .36600004 L .26000003 .21000001 Z "/>
</symbol>
<symbol id="font_6_5">
<path d="M .254 .623 C .254 .65000006 .23400001 .67 .20600002 .67 C .17500001 .67 .14500001 .64100006 .14500001 .609 C .14500001 .58500006 .16300002 .56200006 .19300002 .56200006 C .22200002 .56200006 .254 .587 .254 .623 M .09300001 .432 C .07700001 .43100003 .076000008 .43 .074 .423 C .072 .41500003 .07000001 .40600003 .07000001 .4 C .12500002 .4 .13700001 .395 .13700001 .36800004 C .13700001 .36200003 .13700001 .36 .134 .34300003 L .089 .072000008 C .082 .031000002 .067 .031000002 .004999999 .031000002 C .0040000008 .023000002 .0009999983 .009000001 0 0 C .044000005 .002 .066 .003 .111 .003 C .13100001 .003 .16800002 .003 .21700002 0 L .223 .031000002 C .17800002 .031000002 .158 .031000002 .158 .056 C .158 .060000004 .158 .061000006 .16100002 .07700001 L .22200002 .44200004 L .09300001 .432 Z "/>
</symbol>
<symbol id="font_6_7">
<path d="M .772 .30600003 C .774 .316 .77500006 .324 .77500006 .33900003 C .77500006 .41500003 .725 .44200004 .653 .44200004 C .555 .44200004 .5 .36400003 .49000005 .34800003 C .48600004 .43400003 .40900005 .44200004 .36800004 .44200004 C .27100004 .44200004 .21700001 .367 .20400001 .347 L .20300001 .347 L .21900001 .44200004 L .07200001 .43100003 L .067 .4 C .12600002 .4 .13700001 .39400003 .13700001 .367 C .13700001 .36200003 .13700001 .36 .13400002 .34300003 L .089 .072000008 C .082 .031000002 .067 .031000002 .0050000029 .031000002 C .0040000008 .023000002 .001000002 .009000001 0 0 C .046 .002 .069000009 .003 .11400001 .003 C .16200002 .003 .17500001 .002 .22800002 0 L .23300001 .031000002 C .18300002 .031000002 .16100002 .031000002 .16100002 .057000005 C .16100002 .060000004 .16800002 .098000008 .17100002 .11800001 C .17400001 .13800001 .18500002 .20400001 .19300002 .25 C .21600002 .386 .31700004 .41700004 .36100004 .41700004 C .39600004 .41700004 .418 .4 .418 .35200004 C .418 .344 .41700004 .337 .41600005 .32900004 L .374 .072000008 C .367 .031000002 .35200004 .031000002 .29000003 .031000002 C .289 .023000002 .286 .009000001 .28500004 0 C .33100004 .002 .35400004 .003 .39900003 .003 C .44700004 .003 .46000005 .002 .513 0 L .518 .031000002 C .46800003 .031000002 .44600005 .031000002 .44600005 .057000005 C .44600005 .060000004 .45300005 .098000008 .45600004 .11800001 C .45900003 .13800001 .47 .20400001 .47800002 .25 C .501 .386 .602 .41700004 .646 .41700004 C .681 .41700004 .703 .4 .703 .35200004 C .703 .344 .702 .337 .70100006 .32900004 L .659 .072000008 C .652 .031000002 .637 .031000002 .575 .031000002 C .574 .023000002 .571 .009000001 .57 0 C .616 .002 .639 .003 .684 .003 C .732 .003 .745 .002 .79800006 0 L .80300006 .031000002 C .753 .031000002 .731 .031000002 .731 .057000005 C .731 .060000004 .731 .061000006 .734 .07700001 L .772 .30600003 Z "/>
</symbol>
<symbol id="font_6_c">
<path d="M .16100002 .411 L .30600003 .411 C .30800004 .42100004 .30900003 .43200005 .31100003 .44200004 L .16600001 .44200004 L .19600001 .626 L .16800002 .626 C .15400002 .541 .1 .43900005 .0040000008 .43600003 C .002000004 .42600004 .001000002 .42000003 0 .411 L .086 .411 L .041 .13900002 C .038000004 .12100001 .038000004 .117000009 .038000004 .106000009 C .038000004 .016 .11100001 0 .15400002 0 C .20400003 0 .23300001 .033000005 .24900002 .058000003 C .27 .092 .272 .106000009 .286 .19200002 L .25800003 .19200002 C .24700001 .126 .24500004 .11000001 .23400003 .086 C .21600002 .049000004 .19000003 .028 .162 .028 C .11100001 .028 .11100001 .082 .11100001 .095000009 C .11100001 .10300001 .11100001 .111 .114 .12900001 L .16100002 .411 Z "/>
</symbol>
<use xlink:href="#font_6_1" transform="matrix(8.9664,0,0,-8.9664,41.429048,35.481634)"/>
<use xlink:href="#font_6_9" transform="matrix(8.9664,0,0,-8.9664,45.499795,37.122488)"/>
<use xlink:href="#font_6_9" transform="matrix(8.9664,0,0,-8.9664,50.61961,37.122488)"/>
<use xlink:href="#font_6_a" transform="matrix(8.9664,0,0,-8.9664,56.026353,35.383005)"/>
<use xlink:href="#font_6_8" transform="matrix(8.9664,0,0,-8.9664,59.908803,35.481634)"/>
<use xlink:href="#font_6_f" transform="matrix(8.9664,0,0,-8.9664,63.836088,35.383005)"/>
<use xlink:href="#font_6_5" transform="matrix(8.9664,0,0,-8.9664,68.893138,35.383005)"/>
<use xlink:href="#font_6_7" transform="matrix(8.9664,0,0,-8.9664,71.44856,35.383005)"/>
<use xlink:href="#font_6_1" transform="matrix(8.9664,0,0,-8.9664,79.33899,35.481634)"/>
<use xlink:href="#font_6_c" transform="matrix(8.9664,0,0,-8.9664,84.198787,35.481634)"/>
<use xlink:href="#font_6_2" transform="matrix(8.9664,0,0,-8.9664,87.57015,35.481634)"/>
<symbol id="font_6_e">
<path d="M .398 .34500004 C .413 .37100003 .43800003 .40900005 .5 .411 L .505 .44200004 C .476 .43900005 .43300004 .43900005 .42800004 .43900005 C .4 .43900005 .37 .44000004 .343 .44200004 L .337 .41200004 C .338 .41200004 .377 .41000004 .377 .37600003 C .377 .36300005 .368 .34700004 .36400003 .33900003 L .22 .093 L .15400002 .36100004 C .15 .37500004 .15 .37700004 .15 .381 C .15 .411 .192 .411 .21000001 .411 C .211 .42000003 .21400002 .43400003 .215 .44200004 C .167 .44000004 .146 .43900005 .105 .43900005 C .10300001 .43900005 .043000007 .43900005 .0059999974 .44200004 L 0 .411 C .052999997 .411 .06600001 .40900005 .074999999 .37100003 L .16100002 .024 C .16499999 .0070000009 .167 0 .18200001 0 C .197 0 .20300001 .011000001 .208 .019000002 L .398 .34500004 Z "/>
</symbol>
<symbol id="font_6_6">
<path d="M .264 .694 L .11400001 .683 L .10900001 .652 C .16800002 .652 .179 .646 .179 .619 C .179 .614 .179 .61200007 .17600002 .595 L .089 .072000008 C .082 .031000002 .067 .031000002 .004999999 .031000002 C .0040000008 .023000002 .0009999983 .009000001 0 0 C .046 .002 .066 .003 .113000009 .003 C .16100002 .003 .18600002 .002 .22500001 0 L .23 .031000002 C .18 .031000002 .158 .031000002 .158 .057000005 C .158 .060000004 .15900001 .062000004 .16100002 .07700001 L .264 .694 Z "/>
</symbol>
<symbol id="font_6_d">
<path d="M .44200004 .45300005 L .28900004 .44200004 L .284 .411 C .34300003 .411 .35400004 .40500004 .35400004 .37800003 C .35400004 .37100003 .34800003 .337 .34500004 .316 L .32400004 .19000001 C .30100004 .057000005 .22100002 .025000003 .17200002 .025000003 C .102000009 .025000003 .098 .057000005 .098 .080000009 C .098 .092 .1 .104 .102000009 .116000007 L .15800002 .45300005 L .0050000029 .44200004 L 0 .411 C .059000009 .411 .07 .40500004 .07 .37800003 C .07 .36400003 .037000009 .17500001 .031999999 .14400001 C .028000005 .12200001 .028000005 .120000008 .028000005 .105000007 C .028000005 .029000003 .08100001 0 .16600001 0 C .24400002 0 .28900004 .052 .30800004 .081 L .30900003 .081 L .29500003 0 L .44500006 .011000001 C .44700004 .021000002 .448 .032 .45000006 .042000005 C .38900004 .042000005 .38000003 .049000004 .38000003 .075 C .38000003 .081 .38000003 .083000008 .38300003 .1 L .44200004 .45300005 Z "/>
</symbol>
<symbol id="font_6_3">
<path d="M .21500002 .4 L .331 .4 C .333 .41000004 .334 .42100004 .336 .43100003 L .21700002 .43100003 L .23600002 .54700008 C .24700003 .61600008 .298 .68 .352 .68 C .366 .68 .375 .67700007 .379 .675 C .368 .67 .34600003 .656 .34600003 .62700006 C .34600003 .609 .357 .58900007 .386 .58900007 C .412 .58900007 .43600003 .609 .43600003 .64100006 C .43600003 .68 .4 .70500007 .352 .70500007 C .269 .70500007 .18300002 .64000007 .16800002 .549 L .149 .43100003 L .07000001 .43100003 C .068 .42100004 .067 .41000004 .065 .4 L .143 .4 L .089 .072000008 C .082 .031000002 .067 .031000002 .004999999 .031000002 C .0040000008 .023000002 .0009999983 .009000001 0 0 C .05 .002 .066 .003 .11700001 .003 C .164 .003 .18600002 .002 .24500002 0 L .25 .031000002 L .22900002 .031000002 C .16300002 .031000002 .15900001 .041 .15900001 .060000004 C .15900001 .064 .15900001 .066 .16200002 .083000008 L .21500002 .4 Z "/>
</symbol>
<symbol id="font_6_4">
<path d="M .48600004 .30600003 C .488 .316 .48900006 .324 .48900006 .33900003 C .48900006 .41300003 .441 .44200004 .36800004 .44200004 C .277 .44200004 .22300002 .37600003 .20800002 .354 L .20700002 .354 L .26400004 .694 L .11400001 .683 L .10900001 .652 C .16800002 .652 .17900002 .646 .17900002 .619 C .17900002 .614 .17900002 .61200007 .17600002 .595 L .089 .072000008 C .082 .031000002 .067 .031000002 .0050000029 .031000002 C .0040000008 .023000002 .001000002 .009000001 0 0 C .046 .002 .069000009 .003 .11400001 .003 C .16200002 .003 .17500001 .002 .22800002 0 L .23300001 .031000002 C .18300002 .031000002 .16100002 .031000002 .16100002 .057000005 C .16100002 .060000004 .16800002 .098000008 .17100002 .11800001 C .17400001 .13800001 .18500002 .20400001 .19300002 .25 C .21600002 .386 .31700004 .41700004 .36 .41700004 C .397 .41700004 .41700004 .39900003 .41700004 .35200004 C .41700004 .337 .40900005 .28800003 .40300004 .256 C .39800004 .22600001 .37600003 .087000008 .37300004 .07 C .36600004 .031000002 .351 .031000002 .289 .031000002 C .28800003 .023000002 .28500004 .009000001 .284 0 C .33 .002 .35300002 .003 .39800004 .003 C .44600005 .003 .45900003 .002 .512 0 L .517 .031000002 C .46700005 .031000002 .44500003 .031000002 .44500003 .057000005 C .44500003 .060000004 .44500003 .061000006 .448 .07700001 L .48600004 .30600003 Z "/>
</symbol>
<symbol id="font_6_b">
<path d="M .381 .43400003 C .38300003 .44300003 .38300003 .44500003 .38300003 .44700004 C .38300003 .45100004 .38000003 .45900003 .37 .45900003 C .36400003 .45900003 .343 .44200004 .33 .43100003 C .296 .45900003 .252 .45900003 .238 .45900003 C .092 .45900003 .053000004 .37000004 .053000004 .32000003 C .053000004 .23500002 .15 .21600002 .18 .21100001 C .24599999 .19800002 .303 .18700002 .303 .127 C .303 .126 .303 .025000003 .17000002 .025000003 C .095000009 .025000003 .061000006 .071 .055 .15600002 C .054000006 .17400001 .053000004 .18000002 .04 .18000002 C .030000002 .18000002 .027000003 .17600002 .024 .15900001 L 0 .013000001 C 0 .0060000007 .0040000008 0 .012000002 0 C .018 0 .019000002 .0010000002 .039000006 .021000002 C .045 .026 .059 .039 .064 .044 C .09600001 .0060000007 .137 0 .17000002 0 C .323 0 .359 .108 .359 .158 C .359 .19300002 .347 .21800003 .321 .24200002 C .294 .26900003 .259 .275 .20700002 .28500004 C .16600001 .293 .109000008 .30400003 .109000008 .35200004 C .109000008 .381 .13300002 .43700005 .238 .43700005 C .308 .43700005 .336 .40100003 .336 .34900005 C .336 .335 .33400003 .32900004 .33400003 .32400004 C .33400003 .31200005 .343 .31100003 .34800003 .31100003 C .361 .31100003 .36200003 .31900005 .36400003 .33200003 L .381 .43400003 Z "/>
</symbol>
<use xlink:href="#font_6_e" transform="matrix(8.9664,0,0,-8.9664,30.881075,47.80563)"/>
<use xlink:href="#font_6_1" transform="matrix(8.9664,0,0,-8.9664,34.96975,47.80563)"/>
<use xlink:href="#font_6_6" transform="matrix(8.9664,0,0,-8.9664,39.381227,47.707)"/>
<use xlink:href="#font_6_d" transform="matrix(8.9664,0,0,-8.9664,42.5374,47.80563)"/>
<use xlink:href="#font_6_2" transform="matrix(8.9664,0,0,-8.9664,47.298555,47.80563)"/>
<use xlink:href="#font_6_8" transform="matrix(8.9664,0,0,-8.9664,54.453744,47.80563)"/>
<use xlink:href="#font_6_3" transform="matrix(8.9664,0,0,-8.9664,58.838319,47.707)"/>
<use xlink:href="#font_6_c" transform="matrix(8.9664,0,0,-8.9664,65.17756,47.80563)"/>
<use xlink:href="#font_6_4" transform="matrix(8.9664,0,0,-8.9664,68.30684,47.707)"/>
<use xlink:href="#font_6_2" transform="matrix(8.9664,0,0,-8.9664,73.66874,47.80563)"/>
<use xlink:href="#font_6_b" transform="matrix(8.9664,0,0,-8.9664,80.5908,47.80563)"/>
<use xlink:href="#font_6_2" transform="matrix(8.9664,0,0,-8.9664,84.47325,47.80563)"/>
<use xlink:href="#font_6_a" transform="matrix(8.9664,0,0,-8.9664,88.28397,47.707)"/>
<use xlink:href="#font_6_5" transform="matrix(8.9664,0,0,-8.9664,91.94227,47.707)"/>
<use xlink:href="#font_6_2" transform="matrix(8.9664,0,0,-8.9664,94.739788,47.80563)"/>
<use xlink:href="#font_6_b" transform="matrix(8.9664,0,0,-8.9664,98.586368,47.80563)"/>
</svg>
