<?xml version="1.0" encoding="UTF-8" standalone="no"?>
<!DOCTYPE svg PUBLIC "-//W3C//DTD SVG 1.1//EN" "http://www.w3.org/Graphics/SVG/1.1/DTD/svg11.dtd">
<svg xmlns="http://www.w3.org/2000/svg" xmlns:xlink="http://www.w3.org/1999/xlink" version="1.1" width="243.566pt" height="171.567pt" viewBox="0 0 243.566 171.567">
<path transform="matrix(1,0,0,-1,.199,171.368)" stroke-width="1" stroke-linecap="butt" stroke-miterlimit="10" stroke-linejoin="miter" fill="none" stroke="#808080" d="M 151.98177 14.99097 L 151.98177 19.24307 "/>
<path transform="matrix(1,0,0,-1,.199,171.368)" stroke-width="1" stroke-linecap="butt" stroke-miterlimit="10" stroke-linejoin="miter" fill="none" stroke="#000000" d="M 0 17.11702 L 241.17832 17.11702 "/>
<path transform="matrix(1,0,0,-1,241.37732,154.25098)" d="M 1.99252 0 L -1.19551 1.59401 L 0 0 L -1.19551 -1.59401 "/>
<path transform="matrix(1,0,0,-1,.199,171.368)" stroke-width="1" stroke-linecap="butt" stroke-miterlimit="10" stroke-linejoin="miter" fill="none" stroke="#000000" d="M 60.79271 0 L 60.79271 169.1778 "/>
<path transform="matrix(0,-1,-1,-0,60.99171,2.1902009)" d="M 1.99252 0 L -1.19551 1.59401 L 0 0 L -1.19551 -1.59401 "/>
<symbol id="font_0_1">
<path d="M .428 .17400001 L .403 .17400001 C .40100003 .16700001 .381 .10300001 .367 .086 C .363 .082 .359 .081 .354 .080000009 C .351 .080000009 .308 .07700001 .268 .07700001 L .09200001 .07700001 C .22200002 .19100002 .324 .263 .366 .3 C .42000003 .347 .48000003 .41200004 .48000003 .503 C .48000003 .614 .391 .666 .297 .666 C .16100002 .666 .08000001 .54 .08000001 .47400005 C .08000001 .43400003 .11500001 .42900003 .12600002 .42900003 C .15600002 .42900003 .18600002 .453 .18600002 .49 C .18600002 .517 .16800002 .53400006 .14000002 .53400006 C .13400002 .53400006 .13300002 .53400006 .12900001 .53300008 C .16200002 .59800007 .223 .63500007 .282 .63500007 C .357 .63500007 .39000003 .57900008 .39000003 .51100006 C .39000003 .43800003 .357 .35700003 .22900002 .23700002 L .015000004 .037 C .0050000029 .027 0 .014 0 0 L .37100003 0 L .428 .17400001 Z "/>
</symbol>
<use xlink:href="#font_0_1" transform="matrix(9.9626,0,0,-9.9626,150.18613,166.317)"/>
<clipPath id="cp1">
<path transform="matrix(1,0,0,-1,.199,171.368)" d="M 0 0 L 243.17084 0 L 243.17084 171.17032 L 0 171.17032 Z "/>
</clipPath>
<g clip-path="url(#cp1)">
<path transform="matrix(1,0,0,-1,.199,171.368)" stroke-width="1.19553" stroke-linecap="butt" stroke-miterlimit="10" stroke-linejoin="miter" fill="none" stroke="#80001a" d="M 0 0 C 0 0 .30775 .25883 .42595 .35728 C .54414 .45573 .73373 .61253 .85194 .70963 C .97015 .8067 1.15973 .9613 1.27794 1.057 C 1.39613 1.1527 1.58571 1.30508 1.7039 1.39941 C 1.8221 1.49374 2.01169 1.64392 2.12988 1.73686 C 2.24808 1.8298 2.43767 1.97775 2.55588 2.06937 C 2.67407 2.16096 2.86365 2.30685 2.98184 2.39714 C 3.10004 2.48744 3.28963 2.63127 3.40782 2.72023 C 3.52602 2.80919 3.71562 2.9507 3.83382 3.03835 C 3.95201 3.126 4.14159 3.26569 4.25978 3.35204 C 4.37798 3.43837 4.56757 3.57571 4.68576 3.66075 C 4.80396 3.74579 4.99356 3.88126 5.11176 3.96503 C 5.22995 4.04881 5.41953 4.18214 5.53772 4.26462 C 5.65591 4.34709 5.8455 4.47829 5.9637 4.5595 C 6.0819 4.6407 6.2715 4.76994 6.3897 4.84993 C 6.50789 4.9299 6.69746 5.05724 6.81566 5.13594 C 6.93385 5.21463 7.12344 5.33977 7.24164 5.41724 C 7.35983 5.4947 7.54944 5.61812 7.66763 5.69435 C 7.78583 5.77058 7.9754 5.89175 8.0936 5.96675 C 8.21179 6.04176 8.40138 6.1612 8.51958 6.23499 C 8.63777 6.30879 8.82738 6.42618 8.94557 6.4988 C 9.06377 6.57141 9.25334 6.68697 9.37154 6.7584 C 9.48973 6.82986 9.67932 6.94359 9.79752 7.01385 C 9.91571 7.08412 10.1053 7.19579 10.22351 7.26485 C 10.34172 7.33391 10.5313 7.44373 10.64949 7.51167 C 10.76768 7.5796 10.95728 7.68779 11.07547 7.75456 C 11.19366 7.82135 11.38326 7.92741 11.50145 7.99304 C 11.61964 8.05867 11.80923 8.16307 11.92743 8.22757 C 12.04562 8.29208 12.23521 8.39458 12.35341 8.45795 C 12.4716 8.52133 12.6612 8.62212 12.77939 8.6844 C 12.89758 8.74667 13.08717 8.84572 13.20537 8.90692 C 13.32356 8.96812 13.51315 9.06544 13.63135 9.12553 C 13.74954 9.18561 13.93913 9.28098 14.05733 9.33997 C 14.17552 9.39896 14.36511 9.49281 14.4833 9.55074 C 14.6015 9.60867 14.79109 9.70071 14.90929 9.7576 C 15.02748 9.81448 15.21709 9.90497 15.33528 9.9608 C 15.45348 10.01663 15.64305 10.1053 15.76125 10.16008 C 15.87944 10.21487 16.06903 10.30197 16.18723 10.35571 C 16.30542 10.40945 16.49503 10.4947 16.61322 10.54742 C 16.73141 10.60014 16.92099 10.68404 17.03918 10.73573 C 17.15738 10.78745 17.34697 10.86943 17.46516 10.92014 C 17.58336 10.97084 17.77295 11.05139 17.89116 11.10115 C 18.00937 11.15091 18.19894 11.23001 18.31714 11.27875 C 18.43533 11.32748 18.62491 11.40468 18.7431 11.45244 C 18.8613 11.50018 19.05089 11.57617 19.1691 11.62299 C 19.28731 11.66978 19.47688 11.74405 19.59508 11.78989 C 19.71327 11.83572 19.90286 11.90846 20.02106 11.95338 C 20.13925 11.9983 20.32884 12.06975 20.44704 12.11375 C 20.56523 12.15775 20.75482 12.22743 20.87302 12.27046 C 20.99123 12.3135 21.1808 12.3819 21.299 12.42404 C 21.41719 12.46617 21.60678 12.53299 21.72498 12.57422 C 21.84317 12.61545 22.03276 12.68094 22.15096 12.72127 C 22.26917 12.7616 22.45874 12.8255 22.57693 12.86493 C 22.69513 12.90434 22.88472 12.96686 23.00291 13.00543 C 23.12111 13.04402 23.3107 13.10538 23.4289 13.1431 C 23.5471 13.1808 23.73668 13.2405 23.85487 13.27734 C 23.97307 13.3142 24.16266 13.3727 24.28085 13.40872 C 24.39905 13.44473 24.58864 13.50179 24.70685 13.53696 C 24.82504 13.57214 25.01462 13.62798 25.13281 13.66231 C 25.251 13.69666 25.4406 13.75104 25.55879 13.78455 C 25.67699 13.81807 25.86658 13.87115 25.98479 13.90392 C 26.10298 13.93668 26.29256 13.98871 26.41075 14.02068 C 26.52895 14.05263 26.71854 14.10315 26.83673 14.13428 C 26.95493 14.16539 27.1445 14.21466 27.26273 14.24503 C 27.38094 14.27538 27.57051 14.32355 27.6887 14.35315 C 27.8069 14.38275 27.99649 14.42958 28.11469 14.4584 C 28.23288 14.48724 28.42247 14.53294 28.54066 14.56105 C 28.65886 14.58916 28.84845 14.63376 28.96664 14.6611 C 29.08484 14.68845 29.27443 14.73163 29.39262 14.75826 C 29.51082 14.7849 29.70041 14.82713 29.8186 14.85307 C 29.9368 14.879 30.12639 14.92003 30.24458 14.94525 C 30.36278 14.97047 30.55237 15.01036 30.67056 15.03485 C 30.78876 15.05934 30.97836 15.09802 31.09656 15.12183 C 31.21475 15.14563 31.40433 15.18329 31.52252 15.20644 C 31.64072 15.2296 31.8303 15.26624 31.9485 15.28873 C 32.0667 15.31123 32.2563 15.34685 32.3745 15.36865 C 32.49269 15.39044 32.68227 15.42479 32.80046 15.44595 C 32.91866 15.4671 33.10825 15.50064 33.22644 15.52118 C 33.34464 15.54172 33.53424 15.57416 33.65244 15.59404 C 33.77063 15.61392 33.9602 15.6453 34.0784 15.66457 C 34.1966 15.68384 34.38618 15.71434 34.50438 15.73299 C 34.62257 15.75165 34.81218 15.78104 34.93037 15.79907 C 35.04857 15.81712 35.23814 15.84558 35.35634 15.86307 C 35.47453 15.88057 35.66412 15.90831 35.78232 15.92523 C 35.90051 15.94215 36.0901 15.96875 36.20831 15.98505 C 36.32652 16.00134 36.5161 16.027 36.6343 16.04276 C 36.75249 16.05853 36.94208 16.08344 37.06027 16.09866 C 37.17847 16.11388 37.36806 16.13779 37.48625 16.15247 C 37.60445 16.16713 37.79404 16.19026 37.91223 16.20444 C 38.03043 16.2186 38.22002 16.24097 38.33821 16.2546 C 38.4564 16.2682 38.646 16.28957 38.76419 16.30264 C 38.88239 16.31572 39.07198 16.33627 39.19017 16.34886 C 39.30836 16.36147 39.49796 16.3814 39.61615 16.39354 C 39.73434 16.40567 39.92393 16.42474 40.04213 16.43637 C 40.16032 16.448 40.34991 16.46622 40.46811 16.47737 C 40.5863 16.48853 40.7759 16.50613 40.89409 16.51682 C 41.01228 16.52751 41.20187 16.54419 41.32007 16.55443 C 41.43826 16.56468 41.62785 16.58092 41.74605 16.59073 C 41.86424 16.60056 42.05383 16.61588 42.17203 16.62521 C 42.29022 16.63455 42.47981 16.64917 42.598 16.65811 C 42.7162 16.66705 42.90579 16.6812 43.02399 16.68971 C 43.14218 16.69823 43.33177 16.71138 43.44997 16.7195 C 43.56816 16.72762 43.75777 16.74048 43.87596 16.74823 C 43.99416 16.75598 44.18373 16.76805 44.30193 16.77539 C 44.42012 16.78273 44.60971 16.7943 44.7279 16.80125 C 44.8461 16.8082 45.0357 16.81895 45.1539 16.82555 C 45.2721 16.83212 45.46167 16.84253 45.57986 16.84879 C 45.69807 16.85504 45.88766 16.86482 46.00586 16.87073 C 46.12405 16.87662 46.31364 16.88577 46.43184 16.89136 C 46.55003 16.89693 46.73961 16.9057 46.8578 16.91095 C 46.97601 16.9162 47.1656 16.9243 47.2838 16.92921 C 47.402 16.93414 47.59158 16.94182 47.70978 16.94646 C 47.82797 16.9511 48.01755 16.95836 48.13574 16.96266 C 48.25395 16.96696 48.44354 16.97353 48.56174 16.97754 C 48.67993 16.98157 48.86952 16.9879 48.98772 16.99165 C 49.10591 16.9954 49.2955 17.0012 49.4137 17.00471 C 49.5319 17.00822 49.72148 17.01373 49.83968 17.01698 C 49.95787 17.02023 50.14746 17.02525 50.26566 17.02821 C 50.38385 17.03117 50.57344 17.03564 50.69165 17.0384 C 50.80984 17.04115 50.99942 17.04555 51.11761 17.04807 C 51.23581 17.0506 51.4254 17.05438 51.5436 17.05669 C 51.66179 17.059 51.85138 17.06268 51.96959 17.06477 C 52.08778 17.06688 52.27736 17.06995 52.39555 17.07182 C 52.51375 17.07372 52.70334 17.07663 52.82153 17.07837 C 52.93973 17.0801 53.12932 17.08282 53.24753 17.08437 C 53.36574 17.08592 53.55531 17.08821 53.67351 17.08958 C 53.7917 17.09096 53.98128 17.09311 54.09947 17.0943 C 54.21767 17.09549 54.40726 17.09715 54.52547 17.0982 C 54.64368 17.09926 54.83325 17.10092 54.95145 17.10187 C 55.06964 17.10281 55.25923 17.1042 55.37743 17.105 C 55.49562 17.10579 55.68521 17.10698 55.8034 17.10762 C 55.9216 17.10825 56.11119 17.10916 56.22939 17.1097 C 56.34758 17.11023 56.53717 17.11107 56.65536 17.11154 C 56.77356 17.11201 56.96315 17.1127 57.08134 17.1131 C 57.19954 17.1135 57.38913 17.11412 57.50732 17.11441 C 57.62552 17.1147 57.81511 17.11497 57.9333 17.11519 C 58.0515 17.1154 58.24109 17.11581 58.35928 17.11598 C 58.47748 17.11615 58.66707 17.11638 58.78526 17.11649 C 58.90346 17.1166 59.09305 17.11668 59.21124 17.11674 C 59.32944 17.1168 59.51904 17.11699 59.63724 17.11702 C 59.75543 17.11705 59.945 17.11702 60.0632 17.11702 C 60.1814 17.11702 60.37099 17.11702 60.48918 17.11702 C 60.60738 17.11702 60.79697 17.11702 60.91518 17.11702 C 61.03339 17.11702 61.22296 17.11702 61.34116 17.11702 C 61.45935 17.11702 61.64893 17.11699 61.76712 17.11702 C 61.88531 17.11705 62.0749 17.11722 62.19312 17.11728 C 62.31133 17.11734 62.5009 17.11748 62.6191 17.11754 C 62.73729 17.1176 62.92688 17.11766 63.04507 17.1178 C 63.16327 17.11794 63.35286 17.11838 63.47105 17.11859 C 63.58925 17.1188 63.77884 17.11913 63.89703 17.11937 C 64.01523 17.11961 64.20482 17.1201 64.32301 17.12042 C 64.44121 17.12073 64.6308 17.12129 64.749 17.12172 C 64.86719 17.12215 65.05678 17.12305 65.17497 17.12355 C 65.29317 17.12405 65.48276 17.12476 65.60095 17.12537 C 65.71915 17.12598 65.90875 17.12723 66.02695 17.12799 C 66.14514 17.12874 66.33472 17.12999 66.45291 17.13086 C 66.5711 17.13173 66.7607 17.13324 66.87889 17.13425 C 66.99709 17.13525 67.18669 17.13705 67.30489 17.13817 C 67.42308 17.13928 67.61266 17.14108 67.73085 17.14235 C 67.84904 17.14362 68.03864 17.14583 68.15683 17.14731 C 68.27502 17.14879 68.46463 17.1514 68.58282 17.15306 C 68.70102 17.15471 68.8906 17.15752 69.00879 17.15933 C 69.12698 17.16115 69.31657 17.16411 69.43477 17.16612 C 69.55296 17.16815 69.74255 17.17172 69.86076 17.17395 C 69.97897 17.1762 70.16855 17.1799 70.28674 17.18231 C 70.40494 17.18474 70.59453 17.18883 70.71272 17.19145 C 70.83092 17.19408 71.02051 17.19849 71.1387 17.20139 C 71.2569 17.20427 71.44649 17.20921 71.56468 17.21236 C 71.68289 17.2155 71.87247 17.22075 71.99066 17.2241 C 72.10886 17.22746 72.29845 17.23302 72.41664 17.23663 C 72.53484 17.24025 72.72443 17.24632 72.84262 17.25023 C 72.96083 17.25414 73.1504 17.26065 73.2686 17.26485 C 73.3868 17.26904 73.57639 17.27599 73.69458 17.28052 C 73.81277 17.28505 74.00237 17.29268 74.12056 17.2975 C 74.23877 17.30232 74.42834 17.31015 74.54654 17.31526 C 74.66473 17.32037 74.85432 17.32889 74.97252 17.33432 C 75.09071 17.33975 75.2803 17.34868 75.39851 17.35443 C 75.51671 17.3602 75.70628 17.36977 75.82448 17.37585 C 75.94267 17.38193 76.13228 17.39186 76.25047 17.3983 C 76.36867 17.40475 76.55824 17.4155 76.67645 17.42235 C 76.79465 17.42918 76.98422 17.4405 77.10242 17.44768 C 77.22061 17.45486 77.41022 17.46654 77.52841 17.47406 C 77.6466 17.48158 77.83618 17.49403 77.95439 17.502 C 78.07259 17.50996 78.26216 17.52316 78.38036 17.53152 C 78.49855 17.53989 78.68816 17.55357 78.80635 17.56233 C 78.92455 17.57109 79.11414 17.58554 79.23233 17.59473 C 79.35052 17.60393 79.54012 17.61908 79.65831 17.62868 C 79.7765 17.63828 79.9661 17.65392 80.08429 17.66394 C 80.20248 17.67398 80.39209 17.69052 80.51028 17.70102 C 80.62848 17.71153 80.81805 17.72871 80.93625 17.73969 C 81.05444 17.75066 81.24403 17.76872 81.36223 17.78017 C 81.48042 17.79161 81.67003 17.81035 81.78822 17.82222 C 81.90642 17.83409 82.096 17.85344 82.21419 17.86583 C 82.33238 17.87822 82.52197 17.89865 82.64017 17.91154 C 82.75836 17.92444 82.94797 17.9454 83.06616 17.95882 C 83.18436 17.97223 83.37393 17.99426 83.49213 18.00818 C 83.61032 18.0221 83.79991 18.0447 83.9181 18.05911 C 84.0363 18.07352 84.2259 18.09714 84.3441 18.11214 C 84.4623 18.12712 84.65187 18.1517 84.77007 18.16724 C 84.88826 18.18277 85.07785 18.2081 85.19604 18.22418 C 85.31424 18.24026 85.50385 18.26656 85.62204 18.28322 C 85.74023 18.29988 85.92981 18.32709 86.048 18.34433 C 86.1662 18.36157 86.35579 18.38972 86.47398 18.40753 C 86.59218 18.42535 86.78177 18.45444 86.89998 18.47282 C 87.01819 18.49123 87.20776 18.52122 87.32596 18.54022 C 87.44415 18.5592 87.63373 18.59006 87.75192 18.6097 C 87.87012 18.62933 88.05971 18.6615 88.17792 18.68178 C 88.29613 18.70206 88.4857 18.73508 88.6039 18.75595 C 88.72209 18.77682 88.91168 18.8107 89.02988 18.83221 C 89.14807 18.85374 89.33766 18.88889 89.45586 18.9111 C 89.57405 18.93332 89.76364 18.96947 89.88184 18.99232 C 90.00003 19.01518 90.18962 19.05238 90.30782 19.07591 C 90.42601 19.09943 90.6156 19.13763 90.7338 19.16185 C 90.85199 19.18605 91.04158 19.22545 91.15977 19.25038 C 91.27797 19.27531 91.46756 19.31592 91.58575 19.34154 C 91.70395 19.36714 91.89354 19.40869 92.01173 19.43504 C 92.12993 19.46138 92.31952 19.50436 92.43771 19.53142 C 92.55591 19.55847 92.7455 19.6024 92.8637 19.63014 C 92.98189 19.65788 93.1715 19.70296 93.28969 19.73148 C 93.40788 19.76 93.59746 19.8064 93.71565 19.83571 C 93.83385 19.865 94.02344 19.91272 94.14163 19.94278 C 94.25983 19.97285 94.44943 20.02168 94.56763 20.05247 C 94.68582 20.08328 94.8754 20.13321 94.99359 20.1648 C 95.11179 20.19638 95.30138 20.24785 95.41957 20.28024 C 95.53777 20.31264 95.72737 20.3651 95.84557 20.39828 C 95.96376 20.43147 96.15334 20.48544 96.27153 20.51947 C 96.38974 20.5535 96.57933 20.60872 96.69753 20.64354 C 96.81572 20.67834 97.00531 20.73482 97.1235 20.77048 C 97.2417 20.80612 97.43127 20.86406 97.54947 20.90054 C 97.66768 20.93703 97.85727 20.99617 97.97546 21.0335 C 98.09366 21.07082 98.28325 21.13135 98.40144 21.16957 C 98.51964 21.20778 98.70923 21.26994 98.82742 21.30905 C 98.94563 21.34814 99.13521 21.41142 99.2534 21.45139 C 99.3716 21.49135 99.56119 21.55629 99.67938 21.59712 C 99.79758 21.63795 99.98717 21.704 100.10538 21.74574 C 100.22357 21.78748 100.41315 21.85533 100.53134 21.89801 C 100.64954 21.9407 100.83913 22.00983 100.95732 22.0534 C 101.07552 22.097 101.2651 22.16771 101.38332 22.2122 C 101.50151 22.25671 101.69109 22.32872 101.80928 22.37416 C 101.92747 22.4196 102.11707 22.49333 102.23526 22.53973 C 102.35345 22.58615 102.54305 22.66138 102.66125 22.70874 C 102.77945 22.75609 102.96902 22.83281 103.08722 22.88112 C 103.20541 22.92941 103.395 23.00763 103.5132 23.0569 C 103.6314 23.10617 103.821 23.18604 103.9392 23.23633 C 104.05739 23.2866 104.24696 23.3681 104.36516 23.41942 C 104.48335 23.47072 104.67294 23.55383 104.79114 23.60616 C 104.90933 23.65848 105.09892 23.74326 105.21713 23.79655 C 105.33534 23.84985 105.52492 23.93605 105.64311 23.99037 C 105.7613 24.0447 105.9509 24.13269 106.06909 24.1881 C 106.18729 24.24348 106.37688 24.33325 106.49507 24.38971 C 106.61327 24.44617 106.80286 24.53755 106.92105 24.59502 C 107.03925 24.65248 107.22884 24.74545 107.34703 24.80397 C 107.46523 24.86247 107.65482 24.95718 107.77301 25.01683 C 107.8912 25.07646 108.0808 25.17313 108.19899 25.23386 C 108.31718 25.2946 108.50677 25.39279 108.62497 25.45456 C 108.74316 25.51634 108.93275 25.61629 109.05095 25.67918 C 109.16914 25.7421 109.35873 25.84396 109.47693 25.90799 C 109.59512 25.97203 109.78471 26.07555 109.90291 26.1407 C 110.0211 26.20586 110.2107 26.3113 110.32889 26.3776 C 110.44708 26.44391 110.63667 26.55124 110.75487 26.61867 C 110.87306 26.68611 111.06265 26.79507 111.18085 26.86366 C 111.29904 26.93225 111.48865 27.04335 111.60684 27.1131 C 111.72504 27.18285 111.91461 27.29553 112.0328 27.36644 C 112.151 27.43736 112.34059 27.5521 112.45879 27.62424 C 112.57698 27.69638 112.76659 27.81317 112.88478 27.88647 C 113.00298 27.95978 113.19255 28.07811 113.31075 28.15262 C 113.42894 28.22711 113.61853 28.34773 113.73672 28.42346 C 113.85492 28.4992 114.04451 28.62157 114.16272 28.69849 C 114.28093 28.7754 114.4705 28.89977 114.5887 28.97795 C 114.7069 29.05615 114.89648 29.1827 115.01468 29.26213 C 115.13287 29.34155 115.32246 29.46982 115.44066 29.55048 C 115.55885 29.63113 115.74844 29.76157 115.86664 29.84352 C 115.98483 29.92549 116.17442 30.05804 116.29262 30.14128 C 116.41081 30.2245 116.6004 30.35896 116.7186 30.44348 C 116.83679 30.52798 117.02638 30.66458 117.14458 30.75035 C 117.26277 30.83612 117.45236 30.97461 117.57056 31.06169 C 117.68875 31.14877 117.87834 31.28957 117.99654 31.37799 C 118.11473 31.4664 118.30432 31.60927 118.42252 31.69899 C 118.54071 31.78871 118.7303 31.93362 118.8485 32.02467 C 118.96669 32.11574 119.15628 32.26295 119.27448 32.35535 C 119.39267 32.44775 119.58226 32.59697 119.70045 32.6907 C 119.81865 32.78444 120.00824 32.93591 120.12643 33.03104 C 120.24463 33.12616 120.43422 33.27986 120.55241 33.37631 C 120.67061 33.47278 120.8602 33.62846 120.9784 33.72632 C 121.0966 33.82416 121.28618 33.98224 121.40437 34.08153 C 121.52257 34.1808 121.71216 34.3413 121.83035 34.44196 C 121.94855 34.54263 122.13812 34.70506 122.25632 34.8071 C 122.37453 34.90913 122.5641 35.07399 122.6823 35.17744 C 122.80049 35.2809 122.99008 35.44786 123.10828 35.55276 C 123.22647 35.65768 123.41605 35.82722 123.53424 35.93358 C 123.65245 36.03993 123.84203 36.21156 123.96022 36.31935 C 124.07841 36.42715 124.268 36.60135 124.3862 36.71062 C 124.5044 36.81987 124.69397 36.99612 124.81218 37.10683 C 124.93037 37.21751 125.11995 37.39635 125.23814 37.50853 C 125.35634 37.62073 125.54593 37.80174 125.66412 37.91547 C 125.78232 38.02917 125.9719 38.21294 126.0901 38.32813 C 126.2083 38.44333 126.39787 38.62909 126.51607 38.74576 C 126.63426 38.86244 126.82385 39.05089 126.94205 39.16914 C 127.06024 39.28738 127.24983 39.47829 127.36803 39.598 C 127.48622 39.71774 127.6758 39.91086 127.79399 40.0321 C 127.91219 40.15335 128.10178 40.34909 128.21997 40.47192 C 128.33817 40.59477 128.52776 40.79312 128.64595 40.91751 C 128.76415 41.04192 128.95372 41.24268 129.07192 41.36859 C 129.19011 41.4945 129.37969 41.69762 129.49788 41.82513 C 129.61608 41.95265 129.80567 42.15855 129.92386 42.2877 C 130.04206 42.41684 130.23163 42.62529 130.34983 42.756 C 130.46802 42.8867 130.65761 43.09747 130.7758 43.22978 C 130.894 43.36209 131.08359 43.57565 131.20178 43.7096 C 131.31998 43.84352 131.50955 44.05957 131.62775 44.19513 C 131.74594 44.33067 131.93553 44.54948 132.05373 44.68668 C 132.17192 44.82388 132.36151 45.04515 132.4797 45.18398 C 132.5979 45.3228 132.78748 45.5468 132.90567 45.68729 C 133.02387 45.82779 133.21346 46.05443 133.33165 46.19658 C 133.44985 46.33875 133.63944 46.56808 133.75763 46.71191 C 133.87583 46.85574 134.0654 47.0877 134.1836 47.23325 C 134.30179 47.37877 134.49138 47.61359 134.60958 47.76082 C 134.72777 47.90805 134.91736 48.14552 135.03556 48.29443 C 135.15375 48.44333 135.34333 48.68343 135.46152 48.83403 C 135.57971 48.98465 135.7693 49.22757 135.8875 49.37991 C 136.00569 49.53224 136.19528 49.77797 136.31348 49.93207 C 136.43167 50.08615 136.62125 50.33466 136.73944 50.49048 C 136.85764 50.6463 137.04723 50.8976 137.16542 51.05515 C 137.28362 51.2127 137.47319 51.46678 137.59139 51.62611 C 137.70958 51.78545 137.89916 52.04245 138.01735 52.20358 C 138.13555 52.36473 138.32514 52.62468 138.44333 52.7876 C 138.56153 52.95052 138.75112 53.21321 138.86931 53.37788 C 138.9875 53.54254 139.17708 53.80794 139.29528 53.97443 C 139.41347 54.1409 139.60306 54.40945 139.72126 54.57777 C 139.83945 54.7461 140.02904 55.0175 140.14723 55.18762 C 140.26543 55.35776 140.455 55.63208 140.5732 55.80402 C 140.6914 55.97597 140.88098 56.25316 140.99918 56.42696 C 141.11737 56.60074 141.30696 56.88103 141.42516 57.05667 C 141.54335 57.23232 141.73293 57.51541 141.85112 57.69292 C 141.96933 57.8704 142.1589 58.15654 142.2771 58.33595 C 142.3953 58.51537 142.58489 58.8048 142.70308 58.98604 C 142.82128 59.1673 143.01085 59.45929 143.12905 59.6424 C 143.24726 59.82552 143.43683 60.12074 143.55503 60.30582 C 143.67322 60.49089 143.86281 60.78929 143.981 60.97629 C 144.0992 61.16327 144.28878 61.46466 144.40699 61.65353 C 144.52518 61.8424 144.71475 62.14679 144.83295 62.33757 C 144.95114 62.52837 145.14073 62.83592 145.25893 63.02867 C 145.37712 63.22142 145.56668 63.53212 145.68489 63.72682 C 145.80309 63.92152 145.99266 64.23535 146.11086 64.43202 C 146.22905 64.6287 146.41864 64.94566 146.53684 65.14427 C 146.65503 65.34288 146.84462 65.66298 146.96282 65.86359 C 147.08101 66.0642 147.27059 66.38757 147.38878 66.5902 C 147.50698 66.7928 147.69657 67.11931 147.81476 67.32387 C 147.93296 67.52843 148.12255 67.85799 148.24074 68.06459 C 148.35894 68.27118 148.54851 68.60426 148.6667 68.81287 C 148.7849 69.02148 148.97449 69.35757 149.09268 69.56822 C 149.21088 69.77888 149.40047 70.11848 149.51866 70.33116 C 149.63686 70.54382 149.82643 70.88641 149.94463 71.10112 C 150.06282 71.31583 150.25241 71.6619 150.3706 71.87868 C 150.4888 72.09544 150.67839 72.4447 150.79659 72.66353 C 150.91478 72.88237 151.10436 73.23502 151.22255 73.45596 C 151.34075 73.67691 151.53034 74.03293 151.64853 74.25597 C 151.76673 74.47902 151.95632 74.83846 152.07451 75.06357 C 152.1927 75.28867 152.38228 75.65126 152.50048 75.87846 C 152.61867 76.10567 152.80826 76.4719 152.92646 76.70119 C 153.04465 76.9305 153.23424 77.29979 153.35243 77.53123 C 153.47063 77.76268 153.66019 78.13579 153.77838 78.36938 C 153.89658 78.60298 154.08617 78.97913 154.20436 79.21484 C 154.32256 79.45056 154.51215 79.83049 154.63034 80.06839 C 154.74854 80.30629 154.93811 80.68948 155.0563 80.92952 C 155.1745 81.16956 155.36409 81.55623 155.48229 81.79848 C 155.60048 82.04073 155.79007 82.43112 155.90827 82.67554 C 156.02646 82.91995 156.21604 83.31357 156.33423 83.56018 C 156.45243 83.80678 156.64202 84.2041 156.76021 84.45291 C 156.8784 84.70172 157.068 85.10246 157.18619 85.35347 C 157.30438 85.60449 157.49396 86.00888 157.61215 86.26215 C 157.73035 86.51541 157.91994 86.92342 158.03813 87.1789 C 158.15633 87.43439 158.34592 87.84578 158.46411 88.1035 C 158.5823 88.36122 158.77188 88.77647 158.89008 89.03644 C 159.00827 89.29642 159.19786 89.71501 159.31606 89.97723 C 159.43425 90.23946 159.62384 90.66185 159.74204 90.92639 C 159.86023 91.19092 160.0498 91.61705 160.168 91.88388 C 160.28621 92.15071 160.47579 92.58038 160.59398 92.8495 C 160.71218 93.1186 160.90177 93.55206 161.01996 93.82346 C 161.13816 94.09485 161.32772 94.5318 161.4459 94.80551 C 161.56412 95.07921 161.7537 95.52016 161.87189 95.79619 C 161.99008 96.0722 162.17967 96.5166 162.29787 96.79495 C 162.41606 97.0733 162.60564 97.52164 162.72385 97.80235 C 162.84204 98.08305 163.03162 98.53508 163.14981 98.8181 C 163.268 99.1011 163.4576 99.55676 163.57579 99.84221 C 163.69399 100.12766 163.88356 100.58762 164.00177 100.87546 C 164.11997 101.16328 164.30954 101.62663 164.42774 101.9168 C 164.54593 102.20695 164.73552 102.67421 164.85372 102.96677 C 164.97191 103.25931 165.16149 103.73041 165.2797 104.02533 C 165.39789 104.32027 165.58747 104.79521 165.70566 105.09254 C 165.82386 105.38988 166.01345 105.8686 166.13164 106.16838 C 166.24983 106.46814 166.43943 106.95084 166.55762 107.25307 C 166.67581 107.5553 166.86539 108.042 166.98358 108.34665 C 167.10178 108.6513 167.29137 109.14177 167.40956 109.44885 C 167.52776 109.75594 167.71735 110.25035 167.83554 110.55994 C 167.95374 110.86952 168.14331 111.3681 168.2615 111.68016 C 168.3797 111.9922 168.56929 112.49448 168.68749 112.80899 C 168.80568 113.1235 168.99527 113.63 169.11347 113.94699 C 169.23166 114.26396 169.42122 114.77412 169.53942 115.0936 C 169.65761 115.41306 169.8472 115.92758 169.9654 116.2496 C 170.08359 116.57161 170.27318 117.08997 170.39138 117.41447 C 170.50957 117.739 170.69915 118.26146 170.81734 118.58852 C 170.93553 118.91557 171.12512 119.44211 171.24332 119.77168 C 171.36151 120.10126 171.5511 120.63187 171.6693 120.96399 C 171.78749 121.29611 171.97707 121.83073 172.09526 122.16544 C 172.21346 122.50014 172.40305 123.03903 172.52124 123.3763 C 172.63944 123.71358 172.82903 124.25648 172.94722 124.59628 C 173.06542 124.9361 173.25499 125.48302 173.37319 125.82542 C 173.49138 126.16785 173.68097 126.7192 173.79917 127.06422 C 173.91736 127.40924 174.10695 127.96457 174.22515 128.31217 C 174.34334 128.65976 174.53292 129.21927 174.65111 129.5695 C 174.7693 129.91976 174.9589 130.48368 175.07709 130.83652 C 175.19528 131.18938 175.38488 131.75722 175.50307 132.11269 C 175.62126 132.46814 175.81084 133.04035 175.92903 133.3985 C 176.04723 133.75664 176.23682 134.33316 176.35501 134.69397 C 176.4732 135.0548 176.6628 135.6356 176.78099 135.99912 C 176.89919 136.36263 177.08876 136.94776 177.20696 137.31392 C 177.32515 137.68007 177.51473 138.26934 177.63292 138.63813 C 177.75112 139.00693 177.9407 139.60053 178.0589 139.972 C 178.1771 140.34348 178.36667 140.94133 178.48487 141.31554 C 178.60306 141.68973 178.79265 142.29204 178.91085 142.66899 C 179.02904 143.04595 179.21863 143.65271 179.33683 144.03238 C 179.45502 144.41205 179.64459 145.02306 179.76279 145.40544 C 179.881 145.78783 180.07057 146.40332 180.18877 146.7884 C 180.30696 147.17351 180.49655 147.79319 180.61475 148.18105 C 180.73294 148.56891 180.92252 149.19318 181.04071 149.58388 C 181.15892 149.97457 181.3485 150.60344 181.46669 150.99689 C 181.58489 151.39032 181.77448 152.02336 181.89267 152.41956 C 182.01087 152.81575 182.20044 153.4534 182.31865 153.85242 C 182.43685 154.25144 182.62642 154.89369 182.74462 155.29547 C 182.86281 155.69724 183.0524 156.34362 183.1706 156.74819 C 183.28879 157.15276 183.47837 157.80391 183.59658 158.21135 C 183.71477 158.61878 183.90435 159.27443 184.02254 159.6847 C 184.14073 160.09494 184.33032 160.75511 184.44852 161.16822 C 184.56671 161.58133 184.75629 162.24625 184.8745 162.6622 C 184.99269 163.07814 185.18227 163.74727 185.30046 164.1661 C 185.41866 164.58496 185.60823 165.25925 185.72643 165.68097 C 185.84462 166.1027 186.03421 166.7812 186.1524 167.20578 C 186.2706 167.63036 186.46018 168.3136 186.57837 168.74103 C 186.69657 169.16846 186.88616 169.85614 187.00435 170.28646 C 187.12255 170.71678 187.31214 171.40932 187.43033 171.84259 C 187.54853 172.27587 187.7381 172.97303 187.8563 173.4092 C 187.97449 173.84535 188.16408 174.54714 188.28227 174.98622 C 188.40047 175.42533 188.59006 176.1319 188.70825 176.57396 C 188.82645 177.01604 189.01602 177.72742 189.13422 178.17243 C 189.25241 178.61743 189.442 179.33336 189.5602 179.78133 C 189.67839 180.2293 189.86798 180.95021 189.98618 181.40119 C 190.10437 181.85218 190.29395 182.57785 190.41214 183.03177 C 190.53034 183.48569 190.71993 184.21596 190.83812 184.6728 C 190.95632 185.12966 191.1459 185.86463 191.2641 186.32453 C 191.3823 186.78444 191.57187 187.5246 191.69007 187.9875 C 191.80826 188.45043 191.99785 189.19503 192.11605 189.6609 C 192.23424 190.12679 192.42383 190.87639 192.54203 191.3453 C 192.66022 191.81423 192.8498 192.5687 192.96799 193.04067 C 193.08618 193.51262 193.27577 194.2719 193.39397 194.74698 C 193.51216 195.22205 193.70174 195.98662 193.81993 196.46479 C 193.93813 196.94295 194.1277 197.71213 194.2459 198.19332 C 194.36409 198.67449 194.55368 199.4486 194.67188 199.93282 C 194.79007 200.41703 194.97966 201.19597 195.09786 201.68328 C 195.21605 202.17058 195.40563 202.95456 195.52382 203.44496 C 195.64202 203.93538 195.8316 204.7244 195.9498 205.21788 C 196.068 205.71137 196.25759 206.50516 196.37578 207.00177 C 196.49398 207.4984 196.68355 208.29741 196.80175 208.79718 C 196.91994 209.29694 197.10953 210.1009 197.22772 210.60379 C 197.34592 211.10668 197.5355 211.91553 197.6537 212.42163 C 197.7719 212.92774 197.96147 213.74224 198.07967 214.25151 C 198.19786 214.76078 198.38745 215.57973 198.50565 216.09207 C 198.62384 216.60442 198.81343 217.4286 198.93163 217.94412 C 199.04982 218.45966 199.2394 219.28897 199.35759 219.8077 C 199.4758 220.32642 199.66538 221.16085 199.78357 221.68274 C 199.90177 222.20464 200.09136 223.04419 200.20955 223.56929 C 200.32775 224.09438 200.51732 224.939 200.63552 225.46732 C 200.75373 225.99562 200.9433 226.84554 201.0615 227.37709 C 201.17969 227.90865 201.36928 228.76361 201.48748 229.29839 C 201.60567 229.83316 201.79523 230.69338 201.91344 231.2314 C 202.03163 231.76943 202.2212 232.63481 202.3394 233.1762 C 202.4576 233.71756 202.64719 234.58863 202.76538 235.13326 C 202.88358 235.67787 203.07315 236.55376 203.19136 237.10155 C 203.30956 237.64933 203.49913 238.53025 203.61733 239.08133 C 203.73552 239.63242 203.92511 240.51898 204.0433 241.0734 C 204.1615 241.6278 204.35108 242.5195 204.46929 243.07721 C 204.58748 243.63492 204.77706 244.53202 204.89525 245.09302 C 205.01345 245.65404 205.20304 246.5563 205.32123 247.12062 C 205.43943 247.68494 205.62902 248.59256 205.74721 249.1602 C 205.8654 249.72785 206.05498 250.64078 206.17317 251.21183 C 206.29137 251.78287 206.48096 252.70154 206.59915 253.27596 C 206.71735 253.85039 206.90694 254.77414 207.02513 255.35187 C 207.14333 255.92958 207.3329 256.8587 207.4511 257.43977 C 207.56929 258.02088 207.75888 258.9555 207.87708 259.53996 C 207.99527 260.12443 208.18486 261.06434 208.30306 261.6522 C 208.42125 262.24006 208.61083 263.18565 208.72902 263.7769 C 208.84722 264.3682 209.0368 265.31904 209.155 265.91368 C 209.2732 266.5083 209.46279 267.4646 209.58098 268.0627 C 209.69918 268.66078 209.88874 269.62275 210.00693 270.22428 C 210.12512 270.82579 210.31472 271.79319 210.4329 272.39814 C 210.5511 273.00306 210.74069 273.9758 210.85889 274.58424 C 210.97708 275.1927 211.16666 276.1715 211.28485 276.78343 C 211.40305 277.39537 211.59264 278.37928 211.71083 278.9946 C 211.82903 279.60997 212.01862 280.59953 212.13681 281.21836 C 212.255 281.83714 212.44458 282.8323 212.56278 283.4546 C 212.68097 284.0769 212.87056 285.0776 212.98876 285.7034 C 213.10695 286.32923 213.29654 287.33573 213.41474 287.965 C 213.53293 288.59434 213.7225 289.60636 213.8407 290.23915 C 213.9589 290.87196 214.14849 291.88948 214.26668 292.52583 C 214.38488 293.1622 214.57447 294.18568 214.69266 294.82557 C 214.81085 295.46549 215.00043 296.49436 215.11862 297.13783 C 215.23682 297.7813 215.4264 298.81639 215.5446 299.4634 C 215.6628 300.11048 215.85239 301.15074 215.97058 301.8013 C 216.08878 302.45185 216.27835 303.49809 216.39655 304.15223 C 216.51474 304.80638 216.70433 305.85826 216.82253 306.51597 C 216.94072 307.17366 217.13031 308.23118 217.2485 308.89247 C 217.3667 309.5538 217.55628 310.6174 217.67447 311.28233 C 217.79267 311.94725 217.98224 313.01643 218.10044 313.68495 C 218.21863 314.3535 218.40822 315.4285 218.52642 316.10066 C 218.6446 316.7728 218.83419 317.85365 218.95238 318.52943 C 219.07059 319.20518 219.26016 320.29173 219.37836 320.97126 C 219.49655 321.65077 219.68614 322.74375 219.80434 323.4269 C 219.92253 324.11006 220.1121 325.20835 220.2303 325.8951 C 220.34851 326.58189 220.53809 327.68617 220.65628 328.37663 C 220.77448 329.0671 220.96407 330.17735 221.08226 330.87147 C 221.20046 331.56559 221.39003 332.68156 221.50824 333.37937 C 221.62644 334.07719 221.81601 335.19935 221.9342 335.90086 C 222.0524 336.60237 222.24199 337.7302 222.36019 338.4354 C 222.47838 339.1406 222.66796 340.27455 222.78617 340.98353 C 222.90436 341.6925 223.09394 342.83244 223.21213 343.5452 C 223.33032 344.258 223.51992 345.40425 223.6381 346.12077 C 223.7563 346.83729 223.94588 347.9892 224.06409 348.70939 C 224.18228 349.42955 224.37186 350.58738 224.49005 351.3113 C 224.60825 352.03523 224.79784 353.19935 224.91603 353.9271 C 225.03423 354.65483 225.22382 355.82496 225.34201 356.55644 C 225.4602 357.2879 225.64978 358.4638 225.76798 359.19908 C 225.88617 359.93437 226.07575 361.11674 226.19394 361.85588 C 226.31214 362.595 226.50173 363.78334 226.61992 364.52626 C 226.73812 365.26914 226.92769 366.4634 227.04589 367.21018 C 227.16408 367.9569 227.35367 369.15757 227.47187 369.90824 C 227.59006 370.65888 227.77965 371.86589 227.89785 372.62037 C 228.01604 373.37486 228.20561 374.58784 228.3238 375.34608 C 228.442 376.10435 228.63159 377.3233 228.74979 378.0854 C 228.86798 378.8475 229.05757 380.0728 229.17577 380.8388 C 229.29396 381.6048 229.48354 382.8362 229.60173 383.60606 C 229.71993 384.37593 229.90952 385.61366 230.02771 386.38746 C 230.1459 387.1612 230.3355 388.4052 230.45369 389.1829 C 230.57189 389.9606 230.76146 391.21089 230.87966 391.99247 C 230.99785 392.77403 231.18744 394.0304 231.30564 394.81587 C 231.42383 395.60136 231.61342 396.86415 231.73162 397.65364 C 231.84981 398.44316 232.03939 399.7126 232.15758 400.50608 C 232.27577 401.2995 232.46537 402.57499 232.58356 403.3723 C 232.70175 404.16963 232.89134 405.45143 233.00954 406.25267 C 233.12773 407.0539 233.3173 408.3419 233.4355 409.14714 C 233.5537 409.95234 233.74329 411.24696 233.86148 412.05619 C 233.97968 412.8654 234.16925 414.16618 234.28745 414.97938 C 234.40564 415.79258 234.59522 417.09999 234.71341 417.91719 C 234.8316 418.73439 235.0212 420.04817 235.13939 420.86936 C 235.25759 421.69056 235.44718 423.0107 235.56537 423.83589 C 235.68357 424.6611 235.87314 425.98756 235.99134 426.8168 C 236.10953 427.64607 236.29912 428.97917 236.41732 429.8126 C 236.5355 430.646 236.7251 431.98616 236.84329 432.82356 C 236.96149 433.66096 237.15106 435.00669 237.26926 435.84809 C 237.38745 436.68946 237.57704 438.04225 237.69524 438.88774 C 237.81343 439.73323 238.00302 441.0923 238.12122 441.94178 C 238.23941 442.7913 238.42899 444.15684 238.54718 445.01045 C 238.66539 445.86405 238.85497 447.23628 238.97316 448.094 C 239.09136 448.95173 239.28095 450.3306 239.39914 451.19245 C 239.51734 452.05427 239.70691 453.43959 239.8251 454.3055 C 239.94332 455.17143 240.13289 456.5634 240.25109 457.43348 C 240.36928 458.3035 240.55887 459.702 240.67707 460.5763 C 240.79526 461.4506 240.98484 462.85636 241.10305 463.7348 C 241.22124 464.61329 241.41082 466.02519 241.529 466.90769 C 241.6472 467.7902 241.83679 469.20854 241.95499 470.0952 C 242.07318 470.98185 242.26274 472.40724 242.38095 473.2981 C 242.49915 474.18898 242.68872 475.62089 242.80692 476.5159 C 242.92511 477.41093 243.1147 478.84965 243.2329 479.74888 C 243.35109 480.6481 243.54068 482.0935 243.65888 482.99696 C 243.77707 483.9004 243.96665 485.35258 244.08484 486.26023 C 244.20304 487.16783 244.39263 488.62678 244.51082 489.5386 C 244.62902 490.4504 244.8186 491.91596 244.9368 492.83216 C 245.055 493.74836 245.24457 495.22148 245.36277 496.14189 C 245.48096 497.0623 245.67055 498.54139 245.78874 499.46598 C 245.90694 500.3906 246.09653 501.8769 246.21472 502.80577 C 246.33292 503.73463 246.52249 505.22758 246.64069 506.16069 C 246.75888 507.0938 246.94847 508.59364 247.06667 509.531 C 247.18486 510.4684 247.37445 511.97508 247.49265 512.91677 C 247.61084 513.85848 247.80042 515.3722 247.91861 516.3182 C 248.0368 517.26419 248.2264 518.78469 248.34459 519.735 C 248.46279 520.6853 248.65238 522.2128 248.77057 523.1675 C 248.88877 524.12216 249.07834 525.6563 249.19654 526.6154 C 249.31473 527.57449 249.50432 529.11636 249.62252 530.0798 C 249.7407 531.04318 249.93029 532.5914 250.04848 533.559 C 250.16667 534.5267 250.35625 536.0819 250.47444 537.05398 C 250.59264 538.02597 250.78223 539.5884 250.90042 540.5648 C 251.01862 541.5412 251.2082 543.11056 251.3264 544.0913 C 251.4446 545.072 251.63417 546.6484 251.75237 547.6335 C 251.87056 548.61868 252.06015 550.2021 252.17835 551.19168 C 252.29654 552.1812 252.48613 553.77169 252.60433 554.7657 C 252.72252 555.75967 252.9121 557.3572 253.03029 558.35568 C 253.14849 559.3542 253.33808 560.95919 253.45627 561.9621 C 253.57447 562.9651 253.76406 564.57699 253.88225 565.5842 C 254.00045 566.5915 254.19002 568.21 254.30821 569.22177 C 254.4264 570.23348 254.616 571.8598 254.73419 572.876 C 254.85239 573.8922 255.04198 575.5253 255.16017 576.5459 C 255.27837 577.56649 255.46794 579.2064 255.58614 580.2315 C 255.70433 581.25656 255.89392 582.9041 256.01213 583.9338 C 256.1303 584.9635 256.3199 586.61868 256.4381 587.6528 C 256.5563 588.68698 256.74586 590.3489 256.86408 591.3875 C 256.98225 592.4261 257.17185 594.0952 257.29005 595.13839 C 257.40824 596.1816 257.5978 597.8583 257.71604 598.906 C 257.8342 599.9537 258.02378 601.63729 258.14198 602.6895 C 258.2602 603.74179 258.44975 605.4329 258.56797 606.48977 C 258.68614 607.5466 258.87574 609.24496 258.99394 610.30618 C 259.11213 611.36746 259.3017 613.07278 259.4199 614.13858 C 259.5381 615.2044 259.7277 616.91738 259.84587 617.9879 C 259.96409 619.0584 260.15367 620.77926 260.27186 621.85427 C 260.39006 622.92929 260.57963 624.65609 260.6978 625.7357 C 260.816 626.81539 261.0056 628.5512 261.1238 629.63546 C 261.242 630.7197 261.43159 632.4615 261.54978 633.55038 C 261.66798 634.6393 261.85755 636.39 261.97575 637.4835 C 262.09397 638.5771 262.2835 640.3338 262.40174 641.4319 C 262.5199 642.52999 262.7095 644.29489 262.8277 645.3977 C 262.9459 646.5006 263.13548 648.273 263.2537 649.38058 C 263.37187 650.48806 263.56147 652.26779 263.67964 653.3798 C 263.79786 654.4919 263.98744 656.27877 264.10563 657.39559 C 264.22383 658.5123 264.4134 660.3073 264.5316 661.4288 C 264.6498 662.5502 264.83937 664.3522 264.95759 665.47817 C 265.07579 666.6042 265.26536 668.4135 265.38356 669.5443 C 265.50175 670.67507 265.69136 672.4923 265.8095 673.6279 C 265.92774 674.76358 266.11729 676.5887 266.23548 677.72909 C 266.35368 678.86947 266.54328 680.70217 266.66145 681.84719 C 266.77967 682.9922 266.96925 684.832 267.08744 685.98178 C 267.20564 687.1315 267.3952 688.9793 267.5134 690.1338 C 267.6316 691.28829 267.82118 693.14328 267.9394 694.30258 C 268.05757 695.46188 268.24717 697.325 268.36537 698.4891 C 268.48356 699.6532 268.67314 701.5238 268.79133 702.6926 C 268.90953 703.8614 269.0991 705.7393 269.2173 706.91287 C 269.3355 708.0864 269.5251 709.97238 269.64329 711.1508 C 269.76148 712.32937 269.95106 714.2234 270.06925 715.4066 C 270.18745 716.5898 270.37705 718.4905 270.4952 719.6785 C 270.61344 720.86666 270.803 722.7765 270.9212 723.96957 C 271.0394 725.1626 271.22898 727.0795 271.34718 728.2773 C 271.46537 729.47506 271.65495 731.3996 271.77317 732.60226 C 271.89134 733.8048 272.08094 735.7375 272.19914 736.94497 C 272.31733 738.15249 272.5069 740.09268 272.6251 741.30496 C 272.7433 742.51718 272.9329 744.46499 273.05107 745.6821 C 273.16929 746.8993 273.35887 748.8553 273.47706 750.07736 C 273.59526 751.29946 273.78483 753.2631 273.903 754.49008 C 274.0212 755.71707 274.2108 757.6887 274.32899 758.92056 C 274.44718 760.1524 274.63676 762.13168 274.75498 763.3685 C 274.87315 764.60549 275.06275 766.5935 275.1809 767.8353 C 275.29914 769.07717 275.4887 771.07217 275.6069 772.31887 C 275.7251 773.56558 275.9147 775.5693 276.03288 776.82089 C 276.1511 778.07247 276.34065 780.0828 276.45887 781.3394 C 276.57707 782.59597 276.76664 784.61569 276.88484 785.87728 C 277.00303 787.13876 277.1926 789.1652 277.3108 790.43179 C 277.429 791.6983 277.6186 793.73416 277.73677 795.0057 C 277.85499 796.27719 278.04457 798.3198 278.16276 799.59628 C 278.28096 800.8727 278.47056 802.92379 278.58876 804.2054 C 278.7069 805.48696 278.8965 807.5464 279.0147 808.83309 C 279.1329 810.1197 279.32249 812.187 279.44068 813.47879 C 279.55888 814.77047 279.74848 816.8461 279.86665 818.1427 C 279.98487 819.43936 280.1744 821.52206 280.29264 822.82369 C 280.41084 824.12539 280.6004 826.2175 280.7186 827.52426 C 280.8368 828.83096 281.02638 830.9299 281.1446 832.2415 C 281.26277 833.55319 281.45237 835.66098 281.57057 836.97787 C 281.68876 838.29476 281.87834 840.41098 281.99653 841.733 C 282.11473 843.05496 282.3043 845.1789 282.4225 846.50588 C 282.54069 847.8328 282.73027 849.96456 282.84846 851.2968 C 282.96669 852.6291 283.15623 854.7706 283.27445 856.1081 C 283.3926 857.4455 283.5822 859.5937 283.7004 860.9361 C 283.8186 862.2785 284.0082 864.43569 284.1264 865.78317 C 284.24458 867.1307 284.43418 869.2956 284.55235 870.64828 C 284.67057 872.001 284.86015 874.17459 284.97834 875.5324 C 285.09654 876.8903 285.28614 879.07199 285.4043 880.4349 C 285.5225 881.79788 285.71208 883.9875 285.8303 885.3556 C 285.94847 886.7237 286.13807 888.9221 286.25627 890.2954 C 286.37446 891.6687 286.56404 893.875 286.68226 895.2535 C 286.8004 896.632 286.99 898.8469 287.1082 900.2309 C 287.2264 901.6148 287.416 903.83889 287.53419 905.22787 C 287.65238 906.6169 287.84196 908.8479 287.96018 910.2421 C 288.07835 911.63638 288.26795 913.877 288.3861 915.2765 C 288.50434 916.6759 288.6939 918.92398 288.8121 920.32858 C 288.9303 921.73318 289.1199 923.9902 289.23808 925.4 C 289.3563 926.8098 289.54585 929.0746 289.66407 930.48977 C 289.78224 931.90487 289.97184 934.17886 290.09004 935.59927 C 290.20823 937.0197 290.3978 939.30166 290.516 940.7274 C 290.6342 942.15316 290.82377 944.44406 290.94197 945.87509 C 291.06016 947.3061 291.24974 949.6049 291.36796 951.0413 C 291.48616 952.4777 291.67573 954.78598 291.7939 956.22769 C 291.9121 957.66946 292.10169 959.98556 292.21989 961.43258 C 292.33808 962.87966 292.52766 965.20468 292.64588 966.65707 C 292.76405 968.10946 292.95365 970.4428 293.07185 971.9004 C 293.19004 973.358 293.3796 975.6995 293.4978 977.1625 C 293.616 978.6254 293.8056 980.9761 293.92378 982.4444 C 294.042 983.9128 294.23158 986.2718 294.34977 987.7454 C 294.46797 989.21908 294.65754 991.58627 294.77574 993.06527 C 294.89393 994.54428 295.0835 996.9206 295.2017 998.40518 C 295.3199 999.8898 295.5095 1002.275 295.6277 1003.76498 C 295.74589 1005.25497 295.93547 1007.6484 296.05366 1009.1438 C 296.17189 1010.6392 296.36143 1013.0421 296.47966 1014.543 C 296.5978 1016.04397 296.7874 1018.4552 296.9056 1019.9613 C 297.0238 1021.46749 297.21339 1023.88699 297.33158 1025.3984 C 297.44978 1026.9098 297.63938 1029.3379 297.75755 1030.8549 C 297.87577 1032.3717 298.06535 1034.8088 298.18354 1036.3314 C 298.30174 1037.8539 298.4913 1040.3002 298.60948 1041.8283 C 298.7277 1043.3563 298.91728 1045.8112 299.03547 1047.3445 C 299.15367 1048.8779 299.34327 1051.341 299.46144 1052.8798 C 299.57966 1054.4187 299.7692 1056.8912 299.88743 1058.4357 C 300.0056 1059.9801 300.1952 1062.4608 300.3134 1064.011 C 300.43159 1065.5612 300.62117 1068.0525 300.73936 1069.6082 C 300.85758 1071.1638 301.04713 1073.6622 301.16535 1075.2232 C 301.28355 1076.784 301.4731 1079.2915 301.5913 1080.8579 C 301.7095 1082.4244 301.8991 1084.941 302.0173 1086.5132 C 302.13548 1088.0852 302.32508 1090.611 302.44328 1092.1887 C 302.56147 1093.7664 302.75105 1096.3009 302.86924 1097.8842 C 302.98744 1099.4673 303.17704 1102.0104 303.2952 1103.5991 C 303.4134 1105.1879 303.603 1107.7404 303.7212 1109.3347 C 303.8394 1110.9291 304.02897 1113.4904 304.14717 1115.0902 C 304.26536 1116.69 304.45494 1119.2595 304.57316 1120.8652 C 304.69136 1122.471 304.88093 1125.0513 304.9991 1126.6627 C 305.1173 1128.2743 305.3069 1130.8628 305.42509 1132.4796 C 305.54328 1134.0966 305.73286 1136.6937 305.85108 1138.316 C 305.96925 1139.9385 306.15885 1142.5446 306.27705 1144.1726 C 306.39524 1145.8007 306.5848 1148.4164 306.703 1150.05 C 306.82118 1151.6838 307.01078 1154.308 307.12898 1155.9474 C 307.24717 1157.5868 307.43675 1160.2207 307.55497 1161.8659 C 307.67314 1163.511 307.86274 1166.1535 307.9809 1167.8042 C 308.0991 1169.4548 308.2887 1172.106 308.4069 1173.7626 C 308.5251 1175.4192 308.7147 1178.0814 308.83287 1179.7437 C 308.95109 1181.406 309.14064 1184.0756 309.25883 1185.7434 C 309.37705 1187.4113 309.56663 1190.0907 309.6848 1191.7642 C 309.803 1193.4378 309.9926 1196.1261 310.1108 1197.8054 C 310.229 1199.4848 310.41856 1202.1828 310.53678 1203.8678 C 310.65495 1205.5529 310.84455 1208.2594 310.96275 1209.9503 C 311.08094 1211.6411 311.2705 1214.3578 311.38874 1216.0545 C 311.5069 1217.7511 311.6965 1220.4765 311.81468 1222.1787 C 311.9329 1223.881 312.12248 1226.6152 312.24067 1228.3234 C 312.35887 1230.0314 312.54847 1232.7753 312.66664 1234.4894 C 312.78486 1236.2035 312.9744 1238.9575 313.0926 1240.6774 C 313.2108 1242.3973 313.4004 1245.16 313.5186 1246.8855 C 313.63679 1248.6111 313.82637 1251.3827 313.94456 1253.114 C 314.06278 1254.8455 314.25233 1257.627 314.37055 1259.3641 C 314.4887 1261.1015 314.6783 1263.892 314.7965 1265.635 C 314.9147 1267.3779 315.10429 1270.1776 315.22248 1271.9264 C 315.34068 1273.6752 315.53025 1276.4846 315.64845 1278.2393 C 315.76667 1279.9939 315.9562 1282.8124 316.07444 1284.573 C 316.1926 1286.3336 316.3822 1289.1619 316.5004 1290.9284 C 316.6186 1292.695 316.80818 1295.5321 316.92637 1297.3047 C 317.04457 1299.0774 317.23417 1301.9259 317.35234 1303.7046 C 317.47056 1305.4832 317.66014 1308.3394 317.77833 1310.1234 C 317.8965 1311.9075 318.0861 1314.773 318.20429 1316.563 C 318.3225 1318.353 318.5121 1321.2285 318.63026 1323.0247 C 318.74848 1324.8208 318.93806 1327.7062 319.05625 1329.5083 C 319.17445 1331.3104 319.364 1334.2052 319.4822 1336.0132 C 319.60044 1337.821 319.79 1340.725 319.9082 1342.5388 C 320.02638 1344.3528 320.21598 1347.2666 320.33418 1349.0866 C 320.45237 1350.9064 320.64195 1353.8296 320.76017 1355.6553 C 320.87834 1357.4811 321.06794 1360.4131 321.1861 1362.245 C 321.3043 1364.077 321.4939 1367.0206 321.6121 1368.8588 C 321.7303 1370.6969 321.9199 1373.6493 322.03807 1375.4932 C 322.15629 1377.3369 322.34584 1380.2977 322.46406 1382.1476 C 322.58226 1383.9974 322.7718 1386.9697 322.89 1388.8256 C 323.0082 1390.6814 323.19779 1393.6615 323.31599 1395.5234 C 323.43418 1397.3853 323.62376 1400.377 323.74195 1402.245 C 323.86015 1404.113 324.04975 1407.1128 324.1679 1408.9867 C 324.28614 1410.8606 324.4757 1413.8707 324.5939 1415.7509 C 324.7121 1417.6311 324.90168 1420.6515 325.01988 1422.5379 C 325.13807 1424.4241 325.32765 1427.4536 325.44587 1429.3458 C 325.56404 1431.238 325.75364 1434.2767 325.87184 1436.1753 C 325.99003 1438.0739 326.1796 1441.1246 326.2978 1443.0293 C 326.416 1444.9341 326.6056 1447.9927 326.72377 1449.9032 C 326.84196 1451.8139 327.03157 1454.8828 327.14976 1456.7996 C 327.26795 1458.7163 327.45753 1461.7948 327.5757 1463.7175 C 327.6939 1465.6403 327.8835 1468.7283 328.0017 1470.6572 C 328.1199 1472.5862 328.30949 1475.6847 328.42768 1477.6199 C 328.54588 1479.5552 328.73545 1482.6641 328.85365 1484.6054 C 328.97184 1486.5466 329.1614 1489.6637 329.27964 1491.6111 C 329.3978 1493.5585 329.5874 1496.6875 329.7056 1498.6411 C 329.8238 1500.5949 330.01338 1503.7319 330.13157 1505.6919 C 330.24977 1507.6519 330.43934 1510.8008 330.55754 1512.7671 C 330.67573 1514.7334 330.8653 1517.8915 330.9835 1519.8638 C 331.1017 1521.836 331.2913 1525.0039 331.4095 1526.9823 C 331.52766 1528.9608 331.71726 1532.1382 331.83546 1534.1229 C 331.95365 1536.1076 332.14323 1539.2953 332.26145 1541.2864 C 332.3796 1543.2776 332.5692 1546.4762 332.6874 1548.4735 C 332.8056 1550.4707 332.99519 1553.6776 333.11338 1555.6812 C 333.23158 1557.6846 333.42118 1560.9036 333.53935 1562.9133 C 333.65757 1564.9231 333.8471 1568.1503 333.96534 1570.1661 C 334.0835 1572.1821 334.2731 1575.4202 334.3913 1577.4428 C 334.5095 1579.4655 334.69908 1582.7153 334.8173 1584.7443 C 334.93547 1586.7732 335.12507 1590.0311 335.24324 1592.066 C 335.36146 1594.101 335.55104 1597.369 335.66923 1599.4103 C 335.7874 1601.4515 335.977 1604.7305 336.0952 1606.7781 C 336.2134 1608.8257 336.40299 1612.1141 336.52116 1614.1681 C 336.63938 1616.222 336.82896 1619.5213 336.94715 1621.5816 C 337.06535 1623.6419 337.25495 1626.9509 337.3731 1629.0175 C 337.49134 1631.0841 337.6809 1634.403 337.7991 1636.4758 C 337.9173 1638.5488 338.10688 1641.878 338.22508 1643.9578 C 338.34327 1646.0376 338.53285 1649.3793 338.65104 1651.4653 C 338.76924 1653.5513 338.9588 1656.9003 339.077 1658.9924 C 339.1952 1661.0846 339.38478 1664.4457 339.503 1666.5443 C 339.62117 1668.643 339.81077 1672.0126 339.92897 1674.1177 C 340.04716 1676.2227 340.23674 1679.6045 340.35493 1681.7161 C 340.47315 1683.8275 340.6627 1687.218 340.7809 1689.3358 C 340.8991 1691.4536 341.08869 1694.8552 341.20689 1696.9797 C 341.32508 1699.1041 341.51466 1702.5166 341.63288 1704.6473 C 341.75105 1706.7781 341.94065 1710.1994 342.0588 1712.3366 C 342.17704 1714.4739 342.3666 1717.9072 342.4848 1720.0513 C 342.603 1722.1952 342.7926 1725.6386 342.91078 1727.7891 C 343.029 1729.9396 343.21855 1733.3938 343.33677 1735.5505 C 343.45494 1737.7073 343.64454 1741.1704 343.76274 1743.3335 C 343.88093 1745.4967 344.0705 1748.9711 344.1887 1751.1409 C 344.3069 1753.3108 344.4965 1756.7959 344.6147 1758.9723 C 344.73286 1761.1486 344.92247 1764.6438 345.04066 1766.8267 C 345.15885 1769.0094 345.34843 1772.5149 345.46665 1774.7042 C 345.5848 1776.8936 345.7744 1780.4102 345.8926 1782.6061 C 346.0108 1784.802 346.20039 1788.3285 346.31858 1790.531 C 346.43678 1792.7335 346.62635 1796.2709 346.74455 1798.4801 C 346.86274 1800.6895 347.0523 1804.2384 347.1705 1806.4545 C 347.2887 1808.6704 347.4783 1812.229 347.59648 1814.4514 C 347.7147 1816.6737 347.90428 1820.2428 348.02247 1822.4716 C 348.14067 1824.7005 348.33024 1828.2797 348.44844 1830.515 C 348.56663 1832.7505 348.7562 1836.341 348.8744 1838.5831 C 348.9926 1840.8252 349.1822 1844.4258 349.30039 1846.6746 C 349.41859 1848.9234 349.60816 1852.5353 349.72636 1854.7907 C 349.84455 1857.046 350.03413 1860.668 350.15235 1862.9299 C 350.2705 1865.192 350.4601 1868.8253 350.5783 1871.0941 C 350.6965 1873.3629 350.88609 1877.0065 351.00428 1879.2817 C 351.12248 1881.557 351.31208 1885.2106 351.43025 1887.4929 C 351.54847 1889.7752 351.73805 1893.4417 351.85624 1895.7306 C 351.97444 1898.0197 352.164 1901.695 352.2822 1903.9904 C 352.4004 1906.2859 352.58998 1909.9728 352.7082 1912.2749 C 352.82637 1914.5772 353.01597 1918.274 353.13417 1920.583 C 353.25236 1922.8919 353.44194 1926.6004 353.56013 1928.916 C 353.6783 1931.2317 353.8679 1934.9505 353.9861 1937.2727 C 354.1043 1939.595 354.29389 1943.3242 354.41209 1945.6533 C 354.53028 1947.9824 354.71983 1951.723 354.83805 1954.0591 C 354.95625 1956.395 355.1458 1960.1469 355.264 1962.4899 C 355.3822 1964.8329 355.5718 1968.5966 355.69 1970.9463 C 355.80818 1973.2959 355.99778 1977.0686 356.11595 1979.4248 C 356.23417 1981.7811 356.42375 1985.5654 356.54194 1987.9285 C 356.66014 1990.2915 356.84974 1994.0864 356.9679 1996.4562 C 357.0861 1998.8259 357.27568 2002.6316 357.3939 2005.0082 C 357.5121 2007.3848 357.70167 2011.2017 357.81986 2013.5852 C 357.93806 2015.9689 358.12767 2019.7974 358.24583 2022.1876 C 358.36405 2024.5779 358.5536 2028.4157 358.6718 2030.8128 C 358.79 2033.21 358.97959 2037.0606 359.09779 2039.4647 C 359.21598 2041.869 359.40556 2045.7299 359.52378 2048.1409 C 359.64195 2050.5518 359.83155 2054.423 359.94975 2056.841 C 360.06794 2059.259 360.2575 2063.143 360.3757 2065.5679 C 360.4939 2067.9927 360.6835 2071.8865 360.80168 2074.318 C 360.9199 2076.7498 361.10948 2080.6553 361.22767 2083.094 C 361.34587 2085.5325 361.53544 2089.4488 361.65364 2091.894 C 361.77183 2094.3394 361.9614 2098.266 362.0796 2100.7186 C 362.1978 2103.171 362.3874 2107.1094 362.50559 2109.5687 C 362.62379 2112.028 362.81336 2115.9774 362.93153 2118.4437 C 363.04975 2120.91 363.23933 2124.8709 363.3575 2127.3443 C 363.4757 2129.8175 363.6653 2133.789 363.7835 2136.269 C 363.9017 2138.7493 364.09126 2142.7313 364.20948 2145.2188 C 364.32765 2147.706 364.51725 2151.7017 364.63545 2154.196 C 364.75364 2156.6907 364.9432 2160.6968 365.06144 2163.198 C 365.1796 2165.699 365.3692 2169.7147 365.48738 2172.2227 C 365.6056 2174.7308 365.79518 2178.7596 365.91337 2181.2747 C 366.03157 2183.7899 366.22117 2187.828 366.33934 2190.35 C 366.45753 2192.8724 366.64714 2196.9239 366.7653 2199.4532 C 366.8835 2201.9827 367.0731 2206.0438 367.19129 2208.5799 C 367.30949 2211.116 367.49909 2215.189 367.61726 2217.7325 C 367.73548 2220.2757 367.92503 2224.3604 368.04325 2226.9112 C 368.1614 2229.4617 368.351 2233.5579 368.4692 2236.1156 C 368.5874 2238.6734 368.777 2242.7808 368.8952 2245.3455 C 369.01338 2247.9105 369.20298 2252.029 369.32115 2254.6007 C 369.43937 2257.1724 369.62895 2261.302 369.74714 2263.8807 C 369.86534 2266.4593 370.05494 2270.5999 370.1731 2273.1856 C 370.2913 2275.7713 370.48088 2279.9239 370.5991 2282.5169 C 370.7173 2285.11 370.90687 2289.2747 371.02507 2291.875 C 371.14323 2294.475 371.33283 2298.651 371.45103 2301.258 C 371.5692 2303.8653 371.7588 2308.0518 371.87699 2310.6663 C 371.99519 2313.2806 372.18479 2317.479 372.30296 2320.1009 C 372.42118 2322.723 372.61076 2326.9339 372.72895 2329.563 C 372.84715 2332.192 373.0367 2336.4136 373.1549 2339.0496 C 373.2731 2341.6859 373.46269 2345.9188 373.5809 2348.5618 C 373.69908 2351.2049 373.88868 2355.4488 374.00688 2358.0989 C 374.12507 2360.7493 374.31465 2365.0057 374.43284 2367.6634 C 374.55104 2370.321 374.74064 2374.589 374.8588 2377.254 C 374.977 2379.919 375.1666 2384.1983 375.2848 2386.8704 C 375.40299 2389.5426 375.59257 2393.833 375.71076 2396.5123 C 375.82896 2399.1917 376.01856 2403.4942 376.13673 2406.181 C 376.25495 2408.8675 376.44453 2413.1812 376.5627 2415.8753 C 376.6809 2418.569 376.87049 2422.8958 376.9887 2425.5972 C 377.1069 2428.2984 377.29646 2432.6356 377.41468 2435.344 C 377.53285 2438.0526 377.72245 2442.402 377.84065 2445.118 C 377.95884 2447.8338 378.1484 2452.1949 378.26664 2454.9178 C 378.3848 2457.6407 378.5744 2462.0128 378.69258 2464.743 C 378.8108 2467.4732 379.00035 2471.858 379.11857 2474.5955 C 379.23674 2477.333 379.42634 2481.7288 379.54454 2484.4737 C 379.66273 2487.2186 379.8523 2491.6268 379.9705 2494.3792 C 380.08869 2497.1314 380.27827 2501.5513 380.39649 2504.3109 C 380.51466 2507.0704 380.70426 2511.501 380.82246 2514.2679 C 380.94065 2517.0347 381.13023 2521.4776 381.2484 2524.2525 C 381.3666 2527.027 381.5562 2531.4847 381.6744 2534.2667 C 381.7926 2537.0487 381.98219 2541.514 382.10038 2544.303 C 382.21858 2547.0924 382.40815 2551.572 382.52635 2554.3687 C 382.64454 2557.1654 382.8341 2561.655 382.95234 2564.4588 C 383.0705 2567.2625 383.2601 2571.765 383.3783 2574.5762 C 383.4965 2577.3878 383.68608 2581.9027 383.80427 2584.7215 C 383.92247 2587.5404 384.11207 2592.0667 384.23027 2594.8929 C 384.34843 2597.719 384.53804 2602.2569 384.65623 2605.0906 C 384.7744 2607.924 384.964 2612.4747 385.08219 2615.3157 C 385.20039 2618.1568 385.38999 2622.7183 385.50816 2625.5672 C 385.62638 2628.416 385.81596 2632.9923 385.93415 2635.8485 C 386.05235 2638.7049 386.2419 2643.2906 386.3601 2646.154 C 386.4783 2649.0179 386.6679 2653.6165 386.7861 2656.4876 C 386.90428 2659.3587 387.09388 2663.9688 387.21205 2666.8472 C 387.33027 2669.7259 387.5198 2674.3475 387.63804 2677.2337 C 387.7562 2680.1197 387.9458 2684.754 388.064 2687.6478 C 388.1822 2690.5416 388.37178 2695.1888 388.48997 2698.09 C 388.6082 2700.9913 388.79774 2705.6485 388.91596 2708.5572 C 389.03413 2711.4659 389.22373 2716.1378 389.34193 2719.054 C 389.4601 2721.9703 389.6497 2726.6519 389.7679 2729.576 C 389.8861 2732.4998 390.07569 2737.1964 390.19386 2740.128 C 390.31208 2743.0599 390.50166 2747.767 390.61985 2750.7064 C 390.73805 2753.6453 390.92765 2758.3648 391.0458 2761.3114 C 391.16404 2764.2576 391.35359 2768.9886 391.4718 2771.9427 C 391.58998 2774.8968 391.77958 2779.6409 391.89778 2782.6029 C 392.01597 2785.5645 392.20555 2790.3199 392.32377 2793.2894 C 392.44194 2796.2589 392.63154 2801.0274 392.7497 2804.0045 C 392.8679 2806.9818 393.0575 2811.7615 393.1757 2814.7464 C 393.29389 2817.731 393.48347 2822.5242 393.60169 2825.5169 C 393.71986 2828.5093 393.90946 2833.3138 394.02763 2836.314 C 394.14585 2839.3143 394.33543 2844.1326 394.4536 2847.1407 C 394.5718 2850.1485 394.7614 2854.978 394.8796 2857.9935 C 394.9978 2861.0089 395.18736 2865.85 395.30555 2868.8734 C 395.42375 2871.8963 395.61335 2876.7508 395.7315 2879.7818 C 395.84974 2882.8126 396.0393 2887.6788 396.1575 2890.7174 C 396.2757 2893.7559 396.46528 2898.6353 396.58348 2901.6815 C 396.7017 2904.7279 396.89125 2909.6192 397.00947 2912.6729 C 397.12767 2915.7269 397.31724 2920.63 397.43544 2923.6917 C 397.55363 2926.7532 397.7432 2931.669 397.8614 2934.739 C 397.9796 2937.8089 398.16917 2942.74 398.28739 2945.8177 C 398.40556 2948.895 398.59516 2953.8345 398.71336 2956.9195 C 398.83155 2960.0047 399.02113 2964.9593 399.13935 2968.052 C 399.2575 2971.1448 399.4471 2976.1104 399.56529 2979.2108 C 399.6835 2982.311 399.87309 2987.2894 399.99128 2990.3978 C 400.10948 2993.506 400.29908 2998.4979 400.41725 3001.614 C 400.53547 3004.7305 400.725 3009.734 400.84324 3012.858 C 400.9614 3015.9818 401.151 3020.9976 401.2692 3024.1292 C 401.3874 3027.261 401.57698 3032.29 401.6952 3035.4298 C 401.8134 3038.5694 402.00294 3043.6099 402.12117 3046.7579 C 402.23933 3049.9058 402.42893 3054.962 402.54713 3058.1175 C 402.6653 3061.2733 402.8549 3066.339 402.9731 3069.5025 C 403.0913 3072.6658 403.28086 3077.7454 403.39906 3080.9168 C 403.51725 3084.088 403.70683 3089.1795 403.82505 3092.3585 C 403.9432 3095.5374 404.1328 3100.6414 404.251 3103.8282 C 404.3692 3107.015 404.55879 3112.1326 404.67698 3115.3275 C 404.79518 3118.5223 404.98478 3123.6514 405.10295 3126.8543 C 405.22117 3130.057 405.41075 3135.2 405.52894 3138.4107 C 405.64714 3141.6214 405.8367 3146.7764 405.9549 3149.9949 C 406.0731 3153.2137 406.26268 3158.3817 406.38087 3161.6087 C 406.49909 3164.8355 406.68867 3170.0179 406.80686 3173.2528 C 406.92506 3176.4876 407.11463 3181.6815 407.23283 3184.924 C 407.351 3188.1668 407.5406 3193.373 407.6588 3196.6236 C 407.777 3199.874 407.96659 3205.0926 408.08479 3208.351 C 408.20298 3211.6094 408.39256 3216.8419 408.51075 3220.1085 C 408.62895 3223.3748 408.81855 3228.619 408.9367 3231.8936 C 409.05494 3235.168 409.2445 3240.4263 409.3627 3243.7088 C 409.4809 3246.9913 409.67048 3252.2615 409.78868 3255.552 C 409.90687 3258.8424 410.09645 3264.125 410.21467 3267.4237 C 410.33287 3270.722 410.52244 3276.0184 410.64064 3279.325 C 410.75883 3282.6317 410.9484 3287.94 411.0666 3291.255 C 411.18479 3294.5699 411.37437 3299.8936 411.49256 3303.2169 C 411.61076 3306.54 411.80036 3311.8758 411.91853 3315.2066 C 412.03675 3318.5374 412.2263 3323.8843 412.3445 3327.2232 C 412.46269 3330.562 412.65229 3335.9244 412.77049 3339.2716 C 412.88868 3342.6185 413.07826 3347.9915 413.19648 3351.3465 C 413.31465 3354.7015 413.50425 3360.0887 413.6224 3363.452 C 413.74064 3366.8153 413.9302 3372.216 414.0484 3375.5875 C 414.1666 3378.9588 414.3562 3384.3704 414.47438 3387.7498 C 414.5926 3391.1292 414.78215 3396.5562 414.90034 3399.9439 C 415.01856 3403.3319 415.20814 3408.7708 415.32633 3412.167 C 415.44453 3415.563 415.63414 3421.0169 415.7523 3424.421 C 415.8705 3427.825 416.06007 3433.289 416.17829 3436.7015 C 416.29649 3440.1136 416.48606 3445.5936 416.60426 3449.014 C 416.72245 3452.4344 416.91203 3457.9249 417.03025 3461.3533 C 417.1484 3464.7818 417.338 3470.2869 417.4562 3473.7237 C 417.5744 3477.1602 417.76399 3482.6776 417.88218 3486.1224 C 418.00038 3489.5672 418.18998 3495.0987 418.30815 3498.5518 C 418.42637 3502.005 418.6159 3507.5489 418.73414 3511.0103 C 418.85234 3514.4718 419.0419 3520.0296 419.1601 3523.4993 C 419.27827 3526.9688 419.46788 3532.5389 419.58607 3536.0174 C 419.70426 3539.4957 419.89384 3545.082 420.01206 3548.5687 C 420.13023 3552.0552 420.31983 3557.6519 420.438 3561.1463 C 420.5562 3564.6405 420.7458 3570.2506 420.86399 3573.7532 C 420.98219 3577.2559 421.17179 3582.8802 421.28996 3586.3909 C 421.40818 3589.9019 421.59773 3595.5384 421.71595 3599.0577 C 421.8341 3602.577 422.0237 3608.2279 422.1419 3611.7554 C 422.2601 3615.2833 422.44969 3620.9466 422.5679 3624.4825 C 422.68608 3628.0186 422.87568 3633.696 422.99385 3637.2403 C 423.11207 3640.7847 423.30165 3646.4754 423.41984 3650.0279 C 423.53804 3653.5804 423.72764 3659.2833 423.84584 3662.8443 C 423.964 3666.4056 424.1536 3672.1248 424.27177 3675.6947 C 424.38999 3679.2645 424.57957 3684.9957 424.69776 3688.5733 C 424.81596 3692.151 425.00556 3697.8939 425.12373 3701.48 C 425.24195 3705.066 425.5497 3714.4193 425.5497 3714.4193 "/>
</g>
</svg>
