<?xml version="1.0" encoding="UTF-8" standalone="no"?>
<!DOCTYPE svg PUBLIC "-//W3C//DTD SVG 1.1//EN" "http://www.w3.org/Graphics/SVG/1.1/DTD/svg11.dtd">
<svg xmlns="http://www.w3.org/2000/svg" xmlns:xlink="http://www.w3.org/1999/xlink" version="1.1" width="243.566pt" height="171.566pt" viewBox="0 0 243.566 171.566">
<path transform="matrix(1,0,0,-1,.199,171.36699)" stroke-width="1" stroke-linecap="butt" stroke-miterlimit="10" stroke-linejoin="miter" fill="none" stroke="#808080" d="M 151.98177 14.99068 L 151.98177 19.24324 "/>
<path transform="matrix(1,0,0,-1,.199,171.36699)" stroke-width="1" stroke-linecap="butt" stroke-miterlimit="10" stroke-linejoin="miter" fill="none" stroke="#000000" d="M 0 17.11696 L 241.17832 17.11696 "/>
<path transform="matrix(1,0,0,-1,241.37732,154.25003)" d="M 1.99252 0 L -1.19551 1.59401 L 0 0 L -1.19551 -1.59401 "/>
<path transform="matrix(1,0,0,-1,.199,171.36699)" stroke-width="1" stroke-linecap="butt" stroke-miterlimit="10" stroke-linejoin="miter" fill="none" stroke="#000000" d="M 60.79271 0 L 60.79271 169.17719 "/>
<path transform="matrix(0,-1,-1,-0,60.99171,2.189804)" d="M 1.99252 0 L -1.19551 1.59401 L 0 0 L -1.19551 -1.59401 "/>
<symbol id="font_0_1">
<path d="M .42400003 .652 C .42600004 .661 .42600004 .66300007 .42600004 .666 C .42600004 .67700007 .41700004 .67700007 .411 .67700007 C .40000005 .67700007 .39900003 .67600008 .38800005 .66200008 L .012000002 .20600002 C .0030000024 .19500001 0 .18 0 .165 L .26500003 .165 C .261 .142 .24900002 .065000008 .24700001 .058000003 C .24000001 .037 .224 .031000002 .16500002 .031000002 L .146 .031000002 L .141 0 C .18 .003 .23700002 .003 .277 .003 C .31900005 .003 .37100003 .003 .41200004 0 C .41400004 .010000001 .41500003 .021000002 .41700004 .031000002 L .39800004 .031000002 C .337 .031000002 .32500003 .037 .32500003 .059000005 C .32500003 .063 .34100003 .15300001 .34300003 .165 L .44300003 .165 L .448 .19600001 L .34800003 .19600001 L .42400003 .652 M .33900003 .569 L .277 .19600001 L .032000007 .19600001 L .33900003 .569 Z "/>
</symbol>
<use xlink:href="#font_0_1" transform="matrix(9.9626,0,0,-9.9626,150.24591,166.316)"/>
<clipPath id="cp1">
<path transform="matrix(1,0,0,-1,.199,171.36699)" d="M 0 0 L 243.17084 0 L 243.17084 171.16971 L 0 171.16971 Z "/>
</clipPath>
<g clip-path="url(#cp1)">
<path transform="matrix(1,0,0,-1,.199,171.36699)" stroke-width="1.19553" stroke-linecap="butt" stroke-miterlimit="10" stroke-linejoin="miter" fill="none" stroke="#80001a" d="M 61.40063 359.4564 C 61.40063 359.4564 61.5321 327.3839 61.58258 317.45307 C 61.63307 307.52223 61.71405 295.07383 61.76454 287.88179 C 61.81502 280.6897 61.896 271.14137 61.94649 265.6177 C 61.99698 260.09407 62.07796 252.4878 62.12845 248.07112 C 62.17892 243.65445 62.2599 237.42205 62.3104 233.7853 C 62.36089 230.14853 62.44186 224.92285 62.49234 221.8599 C 62.54283 218.79695 62.6238 214.33576 62.67429 211.70954 C 62.72476 209.08333 62.80576 205.2164 62.85623 202.93195 C 62.90672 200.6475 62.9877 197.25559 63.0382 195.24474 C 63.08867 193.23387 63.16966 190.22711 63.22014 188.43903 C 63.27063 186.65093 63.35161 183.96114 63.4021 182.35735 C 63.45258 180.75356 63.53357 178.32863 63.58406 176.87993 C 63.63455 175.43122 63.71553 173.23316 63.766 171.916 C 63.8165 170.59886 63.89748 168.59188 63.94797 167.38683 C 63.99846 166.1818 64.07944 164.33829 64.12991 163.23085 C 64.1804 162.12343 64.26138 160.42737 64.31187 159.4052 C 64.36235 158.38304 64.44334 156.81177 64.49382 155.86371 C 64.54431 154.91564 64.62529 153.4539 64.67578 152.5721 C 64.72626 151.69029 64.80722 150.3311 64.85771 149.50818 C 64.9082 148.68527 64.98918 147.41175 65.03967 146.64107 C 65.09015 145.8704 65.17113 144.67736 65.22162 143.95374 C 65.27211 143.2301 65.35309 142.10692 65.40356 141.42555 C 65.45406 140.74419 65.53503 139.68576 65.58553 139.04286 C 65.636 138.39998 65.71701 137.40019 65.76749 136.79198 C 65.81798 136.18375 65.89896 135.2351 65.94945 134.6592 C 65.99992 134.08329 66.08092 133.18733 66.1314 132.6411 C 66.18188 132.09487 66.26286 131.24216 66.31335 130.72229 C 66.36383 130.20243 66.44481 129.3896 66.4953 128.89421 C 66.54579 128.3988 66.62677 127.62407 66.67725 127.1517 C 66.72774 126.67932 66.80872 125.94087 66.8592 125.48965 C 66.9097 125.03842 66.99068 124.33147 67.04115 123.89948 C 67.09164 123.46748 67.1726 122.78954 67.2231 122.37607 C 67.27357 121.9626 67.35457 121.3158 67.40504 120.91942 C 67.45554 120.52304 67.53651 119.89995 67.587 119.51924 C 67.63748 119.13853 67.71848 118.54152 67.76897 118.17555 C 67.81946 117.80959 67.90044 117.23347 67.95093 116.88152 C 68.0014 116.52956 68.08238 115.9777 68.13287 115.63881 C 68.18336 115.29991 68.26434 114.76546 68.31482 114.43892 C 68.36531 114.11238 68.44629 113.60039 68.49678 113.28525 C 68.54726 112.9701 68.62825 112.4722 68.67873 112.1675 C 68.72922 111.86281 68.8102 111.38312 68.86069 111.08911 C 68.91116 110.7951 68.99214 110.33295 69.04262 110.04843 C 69.09311 109.76393 69.17409 109.31375 69.22458 109.03851 C 69.27505 108.76326 69.35603 108.33101 69.40652 108.06454 C 69.45702 107.79808 69.538 107.37639 69.58847 107.118 C 69.63896 106.8596 69.71994 106.45302 69.77043 106.20222 C 69.82092 105.95145 69.90192 105.55363 69.9524 105.31046 C 70.00288 105.06726 70.08386 104.68529 70.13435 104.44946 C 70.18483 104.21362 70.26582 103.84015 70.3163 103.61073 C 70.36679 103.38132 70.44777 103.01872 70.49826 102.79596 C 70.54874 102.57318 70.62971 102.22198 70.6802 102.00516 C 70.7307 101.78833 70.81166 101.44406 70.86215 101.23317 C 70.91263 101.0223 70.9936 100.6906 71.0441 100.48517 C 71.09459 100.27975 71.17557 99.95274 71.22604 99.75255 C 71.27654 99.55235 71.35751 99.23718 71.408 99.0422 C 71.45848 98.84723 71.53947 98.53748 71.58995 98.34724 C 71.64044 98.15703 71.72142 97.85612 71.77191 97.67114 C 71.82239 97.48615 71.9034 97.19434 71.95387 97.01385 C 72.00436 96.83336 72.08534 96.54669 72.13583 96.37024 C 72.18631 96.19379 72.26729 95.91449 72.31778 95.74207 C 72.36827 95.56964 72.44923 95.29568 72.49971 95.12755 C 72.5502 94.9594 72.63118 94.69427 72.68167 94.53017 C 72.73216 94.36606 72.81314 94.10532 72.86362 93.94478 C 72.91411 93.78426 72.99509 93.53052 73.04558 93.37306 C 73.09605 93.21562 73.17705 92.96405 73.22752 92.8099 C 73.27802 92.65578 73.359 92.41252 73.40948 92.26218 C 73.45996 92.11185 73.54094 91.87341 73.59143 91.72641 C 73.64192 91.5794 73.7229 91.34679 73.77339 91.20264 C 73.82387 91.05849 73.90485 90.82848 73.95534 90.68741 C 74.00583 90.54636 74.08682 90.32387 74.1373 90.1859 C 74.18779 90.04793 74.26875 89.8285 74.31924 89.69292 C 74.36972 89.55731 74.45071 89.34126 74.50119 89.20851 C 74.55168 89.07578 74.63266 88.86598 74.68315 88.73608 C 74.73363 88.60619 74.81462 88.40022 74.8651 88.27223 C 74.91559 88.14423 74.99657 87.93886 75.04706 87.81348 C 75.09753 87.6881 75.17851 87.49121 75.229 87.36844 C 75.2795 87.24567 75.36047 87.04893 75.41095 86.92854 C 75.46144 86.80814 75.54242 86.61864 75.59291 86.5006 C 75.6434 86.38257 75.72438 86.19418 75.77486 86.0778 C 75.82535 85.96144 75.90633 85.7761 75.95682 85.66187 C 76.0073 85.54764 76.0883 85.36682 76.13878 85.2545 C 76.18927 85.14217 76.27023 84.96243 76.32072 84.85225 C 76.3712 84.74207 76.45218 84.56833 76.50267 84.46027 C 76.55316 84.35222 76.63414 84.17982 76.68463 84.07343 C 76.7351 83.96703 76.81609 83.79814 76.86658 83.69342 C 76.91707 83.5887 76.99805 83.42113 77.04852 83.31854 C 77.09901 83.21596 77.18 83.05513 77.23048 82.95396 C 77.28096 82.8528 77.36195 82.68912 77.41243 82.58937 C 77.46292 82.48964 77.5439 82.33264 77.59439 82.23505 C 77.64487 82.13745 77.72586 81.98181 77.77634 81.88588 C 77.82683 81.78993 77.9078 81.63829 77.9583 81.54355 C 78.00877 81.44879 78.08975 81.29646 78.14024 81.2029 C 78.19073 81.10933 78.27171 80.96101 78.32219 80.86911 C 78.37268 80.77719 78.45366 80.63094 78.50415 80.54045 C 78.55464 80.44997 78.63562 80.30577 78.6861 80.21695 C 78.73659 80.12814 78.81757 79.98816 78.86806 79.9003 C 78.91853 79.81242 78.99953 79.67032 79.05 79.58365 C 79.1005 79.49696 79.18147 79.36029 79.23196 79.27551 C 79.28244 79.19073 79.36342 79.05615 79.41391 78.97255 C 79.4644 78.88896 79.54538 78.75542 79.59587 78.67302 C 79.64635 78.5906 79.72733 78.46004 79.77782 78.37859 C 79.82831 78.29713 79.90929 78.16664 79.95976 78.08589 C 80.01025 78.00516 80.09123 77.8757 80.14172 77.79662 C 80.1922 77.71754 80.2732 77.59355 80.32367 77.5159 C 80.37416 77.43825 80.45514 77.31407 80.50563 77.2369 C 80.5561 77.15971 80.6371 77.03583 80.68758 76.9596 C 80.73807 76.88338 80.81905 76.76248 80.86954 76.68745 C 80.92001 76.61241 81.00099 76.49257 81.05148 76.41872 C 81.10197 76.34486 81.18295 76.228 81.23343 76.15509 C 81.28392 76.08218 81.3649 75.96492 81.41539 75.8932 C 81.46588 75.8215 81.54686 75.70892 81.59734 75.63817 C 81.64783 75.5674 81.7288 75.45341 81.7793 75.38312 C 81.82977 75.31282 81.91077 75.20085 81.96124 75.13152 C 82.01173 75.06218 82.09271 74.95146 82.1432 74.88332 C 82.19368 74.81516 82.27466 74.7077 82.32515 74.64026 C 82.37564 74.57283 82.45662 74.46393 82.50711 74.3972 C 82.55759 74.33046 82.63857 74.2248 82.68906 74.15926 C 82.73955 74.09372 82.82053 73.9896 82.871 73.92476 C 82.9215 73.85994 83.00247 73.7561 83.05296 73.69197 C 83.10344 73.62785 83.18443 73.526 83.23491 73.4626 C 83.2854 73.39919 83.36638 73.29765 83.41687 73.23495 C 83.46735 73.17227 83.54834 73.07271 83.59882 73.01073 C 83.6493 72.94875 83.73029 72.84947 83.78078 72.78821 C 83.83125 72.72694 83.91223 72.62941 83.96272 72.56908 C 84.01321 72.50876 84.0942 72.41327 84.14467 72.35342 C 84.19516 72.2936 84.27614 72.19711 84.32663 72.13774 C 84.37712 72.07838 84.4581 71.98344 84.50858 71.9255 C 84.55907 71.86757 84.64005 71.77754 84.69054 71.72008 C 84.74101 71.66261 84.822 71.5685 84.87248 71.51128 C 84.92297 71.45406 85.00395 71.36386 85.05444 71.30757 C 85.10492 71.2513 85.1859 71.1614 85.23639 71.1056 C 85.28688 71.0498 85.36786 70.96065 85.41835 70.90532 C 85.46883 70.84998 85.5498 70.76114 85.6003 70.70677 C 85.65079 70.65239 85.73177 70.56703 85.78224 70.51337 C 85.83273 70.4597 85.91371 70.37337 85.9642 70.31993 C 86.01468 70.2665 86.09567 70.18094 86.14615 70.12822 C 86.19664 70.0755 86.27762 69.99219 86.32811 69.93993 C 86.37859 69.88768 86.45958 69.80365 86.51006 69.75163 C 86.56055 69.69963 86.64153 69.61638 86.69202 69.56508 C 86.7425 69.5138 86.82347 69.43227 86.87396 69.38191 C 86.92445 69.33156 87.00543 69.25206 87.05591 69.2022 C 87.1064 69.15233 87.18736 69.07211 87.23785 69.02248 C 87.28835 68.97284 87.36934 68.89337 87.41982 68.84445 C 87.4703 68.79553 87.55128 68.71829 87.60178 68.66985 C 87.65225 68.62141 87.73325 68.54347 87.78372 68.49527 C 87.83421 68.44707 87.91519 68.36986 87.96568 68.32237 C 88.01616 68.27487 88.09714 68.20015 88.14763 68.15291 C 88.19812 68.10567 88.2791 68.02853 88.32959 67.98175 C 88.38007 67.93497 88.46104 67.86154 88.51154 67.81572 C 88.56203 67.76988 88.643 67.69698 88.69348 67.65138 C 88.74397 67.60579 88.82494 67.5329 88.87543 67.48708 C 88.9259 67.44125 89.0069 67.36617 89.05737 67.32104 C 89.10786 67.27592 89.18884 67.20601 89.23933 67.16185 C 89.28981 67.11769 89.3708 67.04634 89.42128 67.00266 C 89.47177 66.95895 89.55276 66.89032 89.60326 66.84688 C 89.65373 66.80344 89.73471 66.73264 89.7852 66.6894 C 89.8357 66.6462 89.91667 66.57813 89.96715 66.53537 C 90.01764 66.49263 90.09862 66.4236 90.14911 66.38132 C 90.1996 66.33904 90.28058 66.2727 90.33105 66.23067 C 90.38155 66.18863 90.46252 66.12015 90.51302 66.07835 C 90.56349 66.03656 90.64447 65.97073 90.69495 65.92943 C 90.74544 65.8881 90.82642 65.82132 90.8769 65.78049 C 90.92738 65.73965 91.00836 65.67516 91.05885 65.63503 C 91.10934 65.5949 91.19032 65.53159 91.24081 65.49123 C 91.29129 65.45087 91.37227 65.38391 91.42276 65.34402 C 91.47325 65.30414 91.55424 65.24284 91.60472 65.20366 C 91.65521 65.16449 91.73619 65.10077 91.78668 65.06158 C 91.83716 65.02242 91.91815 64.95993 91.96863 64.92123 C 92.01912 64.88252 92.1001 64.82104 92.15059 64.78258 C 92.20107 64.74413 92.28206 64.68195 92.33253 64.64395 C 92.38303 64.60597 92.46399 64.54622 92.51448 64.50871 C 92.56496 64.47119 92.64594 64.41078 92.69643 64.3735 C 92.74692 64.33623 92.8279 64.27702 92.87837 64.23997 C 92.92886 64.20293 93.00984 64.14351 93.06033 64.10646 C 93.11082 64.06941 93.1918 64.0095 93.24228 63.97295 C 93.29277 63.93639 93.37375 63.87872 93.42424 63.84288 C 93.47472 63.80702 93.55571 63.75034 93.60619 63.7145 C 93.65668 63.67865 93.73767 63.62025 93.78816 63.58441 C 93.83864 63.54857 93.91962 63.49118 93.97011 63.45602 C 94.0206 63.42088 94.10158 63.36572 94.15207 63.33105 C 94.20255 63.29637 94.28351 63.24101 94.334 63.20612 C 94.38449 63.1712 94.46547 63.11412 94.51595 63.07947 C 94.56644 63.0448 94.64742 62.99016 94.6979 62.9562 C 94.74838 62.92224 94.82938 62.86864 94.87985 62.83469 C 94.93034 62.80072 95.01132 62.74513 95.06181 62.71143 C 95.11229 62.6777 95.19328 62.62462 95.24376 62.59161 C 95.29425 62.55861 95.37523 62.50652 95.42572 62.47351 C 95.4762 62.4405 95.55717 62.38644 95.60767 62.35367 C 95.65816 62.32089 95.73915 62.26982 95.78963 62.23729 C 95.84012 62.20476 95.9211 62.15147 95.97159 62.11919 C 96.02208 62.0869 96.10306 62.03632 96.15353 62.0045 C 96.20403 61.97269 96.28499 61.92163 96.33548 61.88982 C 96.38596 61.858 96.46695 61.8067 96.51743 61.77513 C 96.56792 61.74356 96.6489 61.69351 96.69939 61.66217 C 96.74986 61.63081 96.83084 61.58029 96.88133 61.54918 C 96.93182 61.51808 97.0128 61.46857 97.0633 61.43794 C 97.11377 61.4073 97.19475 61.35901 97.24524 61.32837 C 97.29573 61.29774 97.37671 61.24776 97.42719 61.21713 C 97.47768 61.1865 97.55865 61.13795 97.60915 61.10757 C 97.65962 61.07718 97.74062 61.02794 97.79109 60.99802 C 97.84158 60.96811 97.92256 60.92159 97.97305 60.8919 C 98.02353 60.86224 98.10452 60.81352 98.155 60.78407 C 98.20549 60.75462 98.28647 60.70885 98.33696 60.67964 C 98.38744 60.65044 98.46841 60.60272 98.5189 60.57352 C 98.5694 60.54431 98.65038 60.49783 98.70085 60.4691 C 98.75134 60.44037 98.83232 60.39514 98.88281 60.36641 C 98.9333 60.33768 99.01428 60.29073 99.06476 60.262 C 99.11525 60.23326 99.19623 60.18753 99.24672 60.15929 C 99.2972 60.13104 99.37819 60.08609 99.42867 60.05832 C 99.47916 60.03053 99.56013 59.98659 99.61063 59.95905 C 99.6611 59.9315 99.74208 59.88727 99.79257 59.85973 C 99.84306 59.83218 99.92404 59.78801 99.97453 59.76045 C 100.02501 59.73291 100.10599 59.68872 100.15648 59.66118 C 100.20697 59.63364 100.28795 59.5892 100.33842 59.5619 C 100.38892 59.5346 100.4699 59.49118 100.52039 59.46436 C 100.57088 59.43753 100.65186 59.39508 100.70233 59.36848 C 100.75282 59.3419 100.8338 59.299 100.8843 59.27264 C 100.93477 59.24628 101.01576 59.20506 101.06624 59.17848 C 101.11673 59.15189 101.19771 59.10751 101.2482 59.08093 C 101.29868 59.05434 101.37965 59.01244 101.43015 58.98679 C 101.48064 58.96114 101.56161 58.92172 101.61209 58.89607 C 101.66258 58.87042 101.74356 58.82756 101.79405 58.80191 C 101.84454 58.77626 101.92552 58.7366 101.976 58.7112 C 102.02649 58.6858 102.10747 58.64418 102.15796 58.61877 C 102.20844 58.59337 102.28943 58.55296 102.3399 58.52803 C 102.3904 58.5031 102.47137 58.46397 102.52187 58.43904 C 102.57234 58.41411 102.65332 58.37325 102.70381 58.34831 C 102.7543 58.32338 102.83528 58.28398 102.88577 58.2593 C 102.93625 58.2346 103.01723 58.19498 103.06772 58.17029 C 103.11821 58.1456 103.19919 58.10553 103.24966 58.08131 C 103.30016 58.0571 103.38113 58.01993 103.43163 57.99571 C 103.48212 57.9715 103.5631 57.93092 103.61357 57.9067 C 103.66406 57.88248 103.74504 57.8451 103.79553 57.8211 C 103.84601 57.79713 103.927 57.75757 103.97748 57.73383 C 104.02797 57.71008 104.10895 57.67345 104.15944 57.64993 C 104.20992 57.62643 104.2909 57.58788 104.34138 57.56436 C 104.39188 57.54086 104.47285 57.50375 104.52333 57.48048 C 104.57382 57.45721 104.6548 57.41988 104.70529 57.3966 C 104.75578 57.37335 104.83676 57.336 104.88724 57.31274 C 104.93773 57.28949 105.0187 57.25166 105.0692 57.22887 C 105.11967 57.20609 105.20067 57.17073 105.25114 57.1484 C 105.30164 57.1261 105.38261 57.09027 105.4331 57.06796 C 105.48358 57.04564 105.56456 57.01007 105.61505 56.98752 C 105.66554 56.96495 105.74652 56.9279 105.79701 56.90535 C 105.84749 56.88278 105.92847 56.84697 105.97896 56.82489 C 106.02945 56.80283 106.11043 56.76822 106.1609 56.74615 C 106.2114 56.72408 106.29237 56.68779 106.34286 56.66571 C 106.39336 56.64365 106.47433 56.60883 106.52481 56.58699 C 106.5753 56.56514 106.65628 56.52985 106.70677 56.50824 C 106.75725 56.48663 106.83824 56.45259 106.88872 56.43123 C 106.93921 56.40987 107.02019 56.37556 107.07068 56.3542 C 107.12115 56.33282 107.20213 56.29854 107.25262 56.27718 C 107.30312 56.2558 107.3841 56.22125 107.43457 56.20012 C 107.48506 56.179 107.56604 56.14572 107.61653 56.12483 C 107.66702 56.10394 107.748 56.07063 107.79848 56.0495 C 107.84897 56.02837 107.92995 55.99313 107.98044 55.97247 C 108.03091 55.95181 108.11191 55.92102 108.16238 55.9006 C 108.21288 55.88019 108.29385 55.84593 108.34435 55.82527 C 108.39482 55.80461 108.4758 55.77208 108.52629 55.75166 C 108.57678 55.73125 108.65776 55.69849 108.70825 55.67807 C 108.75873 55.65765 108.83969 55.62465 108.89018 55.60446 C 108.94067 55.58427 109.02165 55.55273 109.07213 55.53256 C 109.12262 55.51239 109.20361 55.47891 109.2541 55.45897 C 109.3046 55.43903 109.38557 55.40825 109.43605 55.38878 C 109.48654 55.36931 109.56752 55.33855 109.61801 55.3186 C 109.66849 55.29866 109.74948 55.26494 109.79996 55.245 C 109.85045 55.22505 109.93143 55.19452 109.98192 55.17482 C 110.0324 55.1551 110.11337 55.12216 110.16386 55.10294 C 110.21436 55.08371 110.29533 55.05518 110.34583 55.03618 C 110.3963 55.0172 110.47728 54.98523 110.52777 54.966 C 110.57826 54.94676 110.65924 54.91702 110.70972 54.89754 C 110.76021 54.87807 110.84117 54.84486 110.89166 54.82564 C 110.94214 54.80641 111.02313 54.77765 111.07361 54.75888 C 111.1241 54.74013 111.2051 54.7092 111.25558 54.69043 C 111.30606 54.67168 111.38704 54.64218 111.43753 54.62367 C 111.48802 54.60515 111.569 54.57542 111.61949 54.55692 C 111.66997 54.53839 111.75095 54.50842 111.80144 54.49014 C 111.85193 54.47188 111.9329 54.44363 111.98338 54.42511 C 112.03387 54.4066 112.11485 54.37514 112.16534 54.35663 C 112.21584 54.3381 112.29681 54.30963 112.34729 54.2916 C 112.39778 54.27354 112.47876 54.24458 112.52925 54.22655 C 112.57973 54.2085 112.6607 54.17978 112.71118 54.16151 C 112.76167 54.14323 112.84265 54.11255 112.89314 54.09474 C 112.94362 54.07693 113.0246 54.05046 113.07509 54.03313 C 113.12558 54.0158 113.20656 53.9876 113.25705 53.9698 C 113.30753 53.952 113.38852 53.92256 113.43901 53.90477 C 113.4895 53.88696 113.57048 53.85922 113.62096 53.84142 C 113.67145 53.82361 113.75243 53.79419 113.80292 53.77638 C 113.8534 53.75858 113.93439 53.73038 113.98486 53.71306 C 114.03535 53.69572 114.11633 53.66827 114.16682 53.65141 C 114.2173 53.63455 114.29826 53.60861 114.34875 53.59152 C 114.39925 53.57443 114.48022 53.54552 114.53072 53.52818 C 114.58119 53.51085 114.66217 53.48364 114.71266 53.46655 C 114.76315 53.44946 114.84413 53.4218 114.8946 53.40494 C 114.9451 53.38808 115.02608 53.36163 115.07657 53.34502 C 115.12706 53.3284 115.20804 53.30199 115.25851 53.28513 C 115.309 53.26826 115.39 53.2401 115.44049 53.22348 C 115.49097 53.20688 115.57196 53.18167 115.62244 53.1653 C 115.67293 53.14893 115.7539 53.122 115.8044 53.10538 C 115.85487 53.08876 115.93585 53.0621 115.98634 53.04549 C 116.03683 53.02887 116.1178 53.00195 116.16829 52.98558 C 116.21877 52.96921 116.29974 52.94376 116.35023 52.92738 C 116.40073 52.91101 116.4817 52.88362 116.53218 52.86748 C 116.58267 52.85133 116.66365 52.82687 116.71414 52.81096 C 116.76462 52.79506 116.84561 52.76868 116.89609 52.75278 C 116.94658 52.73688 117.02756 52.71219 117.07805 52.69629 C 117.12852 52.68037 117.20952 52.65424 117.26 52.63809 C 117.31049 52.62195 117.39146 52.5958 117.44196 52.5799 C 117.49243 52.564 117.57343 52.53883 117.62392 52.5234 C 117.67441 52.50798 117.75539 52.4843 117.80586 52.46863 C 117.85635 52.45296 117.93732 52.4261 117.98781 52.41045 C 118.0383 52.39478 118.11928 52.37111 118.16975 52.35568 C 118.22025 52.34026 118.30122 52.3146 118.35172 52.29918 C 118.40219 52.28375 118.48318 52.2596 118.53366 52.2444 C 118.58415 52.22922 118.66513 52.20508 118.71562 52.18965 C 118.7661 52.17421 118.84708 52.14857 118.89757 52.13313 C 118.94806 52.1177 119.02904 52.09357 119.07953 52.07838 C 119.13 52.0632 119.21098 52.03882 119.26147 52.0236 C 119.31197 52.0084 119.39294 51.98352 119.44342 51.96881 C 119.49391 51.95409 119.5749 51.93217 119.6254 51.91745 C 119.67587 51.90274 119.75687 51.87766 119.80734 51.8627 C 119.85783 51.84773 119.9388 51.8246 119.98929 51.80965 C 120.03976 51.79468 120.12076 51.76958 120.17123 51.75485 C 120.22173 51.74014 120.3027 51.71797 120.3532 51.7035 C 120.40367 51.68903 120.48465 51.66492 120.53514 51.65045 C 120.58563 51.63597 120.66661 51.6136 120.71709 51.5991 C 120.76758 51.58463 120.84856 51.56052 120.89905 51.54602 C 120.94954 51.53154 121.03052 51.50917 121.081 51.49469 C 121.13148 51.4802 121.21246 51.45609 121.26295 51.4416 C 121.31343 51.42711 121.39442 51.40442 121.4449 51.39026 C 121.49539 51.37611 121.57637 51.35371 121.62686 51.3396 C 121.67734 51.32547 121.75832 51.30252 121.8088 51.28842 C 121.8593 51.27434 121.94026 51.25198 121.99075 51.23795 C 122.04123 51.22389 122.12221 51.2011 122.1727 51.18709 C 122.22319 51.1731 122.30415 51.15092 122.35463 51.13693 C 122.40512 51.12296 122.4861 51.10017 122.53659 51.08627 C 122.58707 51.07236 122.66805 51.05042 122.71852 51.03664 C 122.76901 51.02286 122.84999 51.00073 122.90048 50.98698 C 122.95096 50.97325 123.03194 50.95119 123.08241 50.93752 C 123.1329 50.92386 123.21387 50.90204 123.26436 50.88838 C 123.31483 50.87474 123.39581 50.85272 123.4463 50.8391 C 123.4968 50.82549 123.57776 50.80362 123.62823 50.79013 C 123.67873 50.77666 123.7597 50.75536 123.8102 50.74187 C 123.86069 50.7284 123.94165 50.70636 123.99213 50.69292 C 124.04262 50.67947 124.1236 50.65833 124.17409 50.645 C 124.22456 50.63168 124.30554 50.61017 124.35602 50.5969 C 124.40651 50.5836 124.48749 50.56236 124.53798 50.54913 C 124.58846 50.53592 124.66942 50.51471 124.71991 50.50156 C 124.7704 50.4884 124.85136 50.46742 124.90186 50.45432 C 124.95233 50.4412 125.03331 50.41997 125.0838 50.40689 C 125.1343 50.39381 125.21526 50.37303 125.26573 50.36 C 125.31622 50.34697 125.3972 50.3259 125.4477 50.31293 C 125.49818 50.29996 125.57915 50.27942 125.62962 50.26654 C 125.68011 50.25365 125.7611 50.23282 125.81158 50.21997 C 125.86206 50.20712 125.94304 50.1867 125.99352 50.17392 C 126.044 50.16113 126.12498 50.14047 126.17548 50.12773 C 126.22595 50.11499 126.30692 50.0947 126.3574 50.08202 C 126.4079 50.06934 126.48886 50.04892 126.53935 50.0363 C 126.58983 50.02368 126.6708 50.00352 126.7213 49.99097 C 126.77179 49.97841 126.85275 49.9583 126.90323 49.94576 C 126.95372 49.93321 127.0347 49.91307 127.08519 49.90056 C 127.13567 49.88805 127.21664 49.868 127.26712 49.85556 C 127.31761 49.84312 127.39859 49.82323 127.44908 49.81088 C 127.49956 49.79854 127.58054 49.77885 127.63101 49.76656 C 127.6815 49.75426 127.76248 49.73448 127.81297 49.72221 C 127.86345 49.70995 127.94441 49.6903 127.9949 49.67807 C 128.0454 49.66583 128.12636 49.64612 128.17684 49.63391 C 128.22733 49.6217 128.3083 49.60217 128.3588 49.59007 C 128.40929 49.57797 128.49025 49.5587 128.54073 49.54662 C 128.59122 49.53453 128.6722 49.515 128.72269 49.50294 C 128.77317 49.49089 128.85414 49.4716 128.90462 49.45964 C 128.95511 49.44768 129.03609 49.42856 129.08658 49.41667 C 129.13706 49.40479 129.21802 49.38582 129.26851 49.37389 C 129.319 49.36195 129.39998 49.34248 129.45047 49.3306 C 129.50095 49.31871 129.58191 49.29993 129.6324 49.28815 C 129.68289 49.27637 129.76386 49.25739 129.81433 49.24568 C 129.86483 49.23398 129.9458 49.21541 129.99629 49.20375 C 130.04679 49.1921 130.12775 49.1733 130.17823 49.16162 C 130.22872 49.14995 130.3097 49.13116 130.36019 49.11954 C 130.41066 49.1079 130.49164 49.0893 130.54212 49.07776 C 130.5926 49.06622 130.67359 49.04784 130.72408 49.03633 C 130.77455 49.02483 130.85552 49.00629 130.906 48.99475 C 130.9565 48.98322 131.03746 48.96457 131.08795 48.95314 C 131.13843 48.94171 131.2194 48.92358 131.2699 48.91225 C 131.32039 48.90092 131.40135 48.88286 131.45183 48.8715 C 131.50232 48.86017 131.5833 48.84172 131.63379 48.83041 C 131.68427 48.81912 131.76525 48.80125 131.81572 48.79004 C 131.86621 48.77882 131.94719 48.76067 131.99768 48.74945 C 132.04816 48.73824 132.12914 48.72028 132.17961 48.70908 C 132.2301 48.69788 132.31108 48.6798 132.36157 48.66867 C 132.41205 48.65755 132.49301 48.63982 132.5435 48.62878 C 132.594 48.61774 132.67496 48.6001 132.72544 48.58908 C 132.77593 48.57808 132.8569 48.56036 132.9074 48.54936 C 132.95789 48.53836 133.03885 48.52065 133.08933 48.50966 C 133.13982 48.49867 133.2208 48.48106 133.27129 48.47012 C 133.32176 48.45917 133.40274 48.4416 133.45322 48.43076 C 133.50371 48.41992 133.58469 48.40271 133.63518 48.39189 C 133.68566 48.38106 133.76662 48.36346 133.81711 48.35268 C 133.8676 48.3419 133.94858 48.32494 133.99907 48.3142 C 134.04955 48.30344 134.13051 48.28587 134.181 48.27513 C 134.23149 48.2644 134.31246 48.24742 134.36293 48.2368 C 134.41342 48.22617 134.4944 48.20912 134.54489 48.19846 C 134.59537 48.1878 134.67635 48.17058 134.72682 48.15997 C 134.77732 48.14935 134.85829 48.13252 134.90879 48.12196 C 134.95926 48.11139 135.04024 48.09425 135.09072 48.08377 C 135.1412 48.0733 135.22219 48.05692 135.27268 48.04646 C 135.32315 48.03603 135.40412 48.01894 135.4546 48.00848 C 135.5051 47.99802 135.58608 47.9814 135.63655 47.971 C 135.68704 47.96057 135.768 47.94371 135.8185 47.93333 C 135.86899 47.92297 135.94995 47.90651 136.00043 47.8962 C 136.05092 47.8859 136.1319 47.86937 136.18239 47.85904 C 136.23287 47.84872 136.31385 47.83195 136.36432 47.82172 C 136.41481 47.8115 136.49579 47.79543 136.54628 47.78526 C 136.59676 47.77512 136.67774 47.75865 136.72821 47.74846 C 136.7787 47.73828 136.85968 47.72197 136.91017 47.7118 C 136.96065 47.70166 137.04161 47.68533 137.0921 47.6752 C 137.1426 47.66508 137.22357 47.6488 137.27405 47.63873 C 137.32454 47.62868 137.4055 47.61266 137.456 47.60262 C 137.50649 47.59259 137.58745 47.57635 137.63793 47.56635 C 137.68842 47.55632 137.7694 47.54037 137.81989 47.53041 C 137.87036 47.52043 137.95134 47.50433 138.00182 47.49445 C 138.0523 47.48454 138.13329 47.46889 138.18378 47.45901 C 138.23426 47.44916 138.31522 47.43314 138.3657 47.42323 C 138.4162 47.41333 138.49718 47.39745 138.54767 47.38763 C 138.59815 47.3778 138.67911 47.36215 138.7296 47.35237 C 138.78009 47.3426 138.86107 47.3269 138.91155 47.31712 C 138.96204 47.30734 139.043 47.29156 139.09349 47.28186 C 139.14397 47.27214 139.22495 47.25673 139.27542 47.24709 C 139.32592 47.23744 139.40689 47.22192 139.45738 47.21236 C 139.50786 47.20277 139.58884 47.18758 139.63932 47.17796 C 139.6898 47.16835 139.77079 47.15268 139.82128 47.14305 C 139.87175 47.1334 139.95272 47.11803 140.0032 47.10846 C 140.0537 47.09889 140.13468 47.08362 140.18515 47.07407 C 140.23564 47.0645 140.3166 47.04898 140.3671 47.03947 C 140.41759 47.02997 140.49857 47.01497 140.54904 47.00557 C 140.59954 46.99619 140.6805 46.98112 140.73099 46.97171 C 140.78147 46.96228 140.86244 46.94704 140.91292 46.93764 C 140.96341 46.92824 141.04439 46.91322 141.09488 46.9039 C 141.14536 46.89458 141.22632 46.87968 141.27681 46.87036 C 141.3273 46.86105 141.40828 46.846 141.45877 46.83665 C 141.50925 46.8273 141.59021 46.81224 141.6407 46.80293 C 141.6912 46.79362 141.77217 46.77878 141.82265 46.76955 C 141.87314 46.76031 141.9541 46.74548 142.0046 46.73631 C 142.05509 46.72714 142.13607 46.7126 142.18654 46.70346 C 142.23703 46.69434 142.318 46.67961 142.36849 46.67043 C 142.41896 46.66125 142.49994 46.64633 142.55042 46.63722 C 142.6009 46.62813 142.68189 46.61375 142.73238 46.6047 C 142.78285 46.59567 142.86382 46.58107 142.9143 46.572 C 142.9648 46.56296 143.04578 46.54832 143.09627 46.5393 C 143.14675 46.5303 143.2277 46.51595 143.2782 46.50697 C 143.32869 46.49802 143.40967 46.48357 143.46015 46.47461 C 143.51064 46.46567 143.5916 46.45137 143.64209 46.44243 C 143.69257 46.43349 143.77355 46.41902 143.82402 46.41008 C 143.87451 46.40114 143.95549 46.38678 144.00598 46.3779 C 144.05646 46.36902 144.13744 46.3549 144.18791 46.34607 C 144.2384 46.33723 144.31938 46.32301 144.36988 46.31422 C 144.42035 46.30542 144.50131 46.29132 144.5518 46.28256 C 144.6023 46.2738 144.68328 46.25978 144.73375 46.25107 C 144.78424 46.24236 144.8652 46.22855 144.9157 46.21976 C 144.96619 46.21097 145.04717 46.19652 145.09764 46.18774 C 145.14813 46.17896 145.2291 46.16504 145.27959 46.15642 C 145.33007 46.1478 145.41104 46.13417 145.46152 46.1256 C 145.51201 46.11702 145.59299 46.10326 145.64348 46.09462 C 145.69396 46.08598 145.77492 46.07193 145.82541 46.06331 C 145.8759 46.05469 145.95688 46.04105 146.00737 46.03249 C 146.05785 46.02391 146.13881 46.01009 146.1893 46.00151 C 146.23979 45.99294 146.32077 45.97919 146.37125 45.97069 C 146.42174 45.96219 146.5027 45.94865 146.55319 45.94023 C 146.60369 45.93181 146.68466 45.9184 146.73514 45.90994 C 146.78563 45.90149 146.8666 45.88776 146.91709 45.8793 C 146.96756 45.87085 147.04854 45.8574 147.09902 45.84901 C 147.1495 45.8406 147.23049 45.82712 147.28098 45.81871 C 147.33145 45.8103 147.41242 45.7967 147.4629 45.7884 C 147.5134 45.7801 147.59438 45.76707 147.64487 45.75879 C 147.69535 45.7505 147.7763 45.737 147.8268 45.72865 C 147.87729 45.7203 147.95827 45.70682 148.00875 45.69853 C 148.05924 45.69025 148.1402 45.67712 148.19069 45.66891 C 148.24117 45.6607 148.32216 45.64748 148.37264 45.6393 C 148.42313 45.63112 148.50409 45.61806 148.55458 45.60986 C 148.60506 45.60167 148.68604 45.5884 148.73651 45.58023 C 148.787 45.57207 148.86798 45.55913 148.91847 45.551 C 148.96895 45.54286 149.04991 45.5297 149.1004 45.52156 C 149.1509 45.51343 149.23188 45.50035 149.28235 45.49228 C 149.33284 45.4842 149.4138 45.47137 149.4643 45.46333 C 149.51479 45.45529 149.59577 45.44228 149.64624 45.43423 C 149.69673 45.4262 149.7777 45.41331 149.82819 45.40532 C 149.87866 45.39732 149.95966 45.38457 150.01013 45.37657 C 150.06063 45.36858 150.14159 45.3556 150.19208 45.34763 C 150.24256 45.33965 150.32352 45.32697 150.37401 45.31905 C 150.4245 45.31113 150.50548 45.29837 150.55597 45.29045 C 150.60645 45.28253 150.68741 45.2698 150.7379 45.26189 C 150.78839 45.25397 150.86937 45.24115 150.91985 45.23328 C 150.97034 45.2254 151.0513 45.21288 151.10179 45.20505 C 151.15229 45.19722 151.23326 45.18462 151.28374 45.17682 C 151.33423 45.16902 151.41519 45.15652 151.46569 45.14874 C 151.51616 45.14096 151.59716 45.12845 151.64763 45.12067 C 151.69812 45.11288 151.77909 45.10034 151.82958 45.09259 C 151.88005 45.08484 151.96102 45.07243 152.0115 45.0647 C 152.062 45.05696 152.14298 45.04451 152.19347 45.03679 C 152.24394 45.02908 152.3249 45.01674 152.3754 45.00905 C 152.42589 45.00136 152.50687 44.98898 152.55735 44.98132 C 152.60784 44.97366 152.6888 44.9614 152.73929 44.95377 C 152.78977 44.94614 152.87076 44.93384 152.92124 44.92622 C 152.97173 44.9186 153.05269 44.90637 153.10318 44.89883 C 153.15366 44.8913 153.23465 44.87935 153.28513 44.87178 C 153.33562 44.86421 153.41658 44.8518 153.46707 44.84424 C 153.51755 44.83665 153.59851 44.82468 153.649 44.81718 C 153.6995 44.8097 153.78047 44.79762 153.83095 44.79013 C 153.88144 44.78264 153.9624 44.77058 154.0129 44.76309 C 154.06339 44.75562 154.14437 44.7437 154.19484 44.73622 C 154.24533 44.72874 154.3263 44.71664 154.37679 44.70917 C 154.42726 44.70169 154.50826 44.68968 154.55873 44.68228 C 154.60923 44.67488 154.69019 44.66313 154.74068 44.65576 C 154.79116 44.64839 154.87212 44.63646 154.9226 44.62906 C 154.9731 44.62166 155.05408 44.60973 155.10457 44.60237 C 155.15505 44.59502 155.23601 44.58333 155.2865 44.576 C 155.33699 44.5687 155.41797 44.5569 155.46845 44.54964 C 155.51894 44.54237 155.5999 44.53085 155.65039 44.52362 C 155.70088 44.51639 155.78186 44.50471 155.83234 44.49744 C 155.88283 44.49014 155.96379 44.47835 156.01428 44.47107 C 156.06476 44.46379 156.14575 44.45212 156.19623 44.44487 C 156.24672 44.43764 156.32769 44.42607 156.37818 44.41887 C 156.42865 44.41167 156.50962 44.39998 156.5601 44.39284 C 156.6106 44.3857 156.69158 44.37453 156.74207 44.36736 C 156.79254 44.3602 156.8735 44.34837 156.924 44.34116 C 156.97449 44.33394 157.05547 44.32245 157.10594 44.31529 C 157.15644 44.30814 157.2374 44.29655 157.28789 44.28946 C 157.33837 44.28238 157.41936 44.27116 157.46984 44.26414 C 157.52033 44.25711 157.60129 44.24585 157.65178 44.2388 C 157.70226 44.23175 157.78325 44.22038 157.83373 44.21329 C 157.88422 44.20619 157.96518 44.19461 158.01567 44.1876 C 158.06615 44.18062 158.14711 44.16974 158.1976 44.1628 C 158.2481 44.15584 158.32907 44.14449 158.37955 44.13747 C 158.43004 44.13043 158.511 44.1191 158.5615 44.11212 C 158.61199 44.10515 158.69297 44.09402 158.74344 44.08713 C 158.79393 44.08023 158.8749 44.06924 158.92539 44.06232 C 158.97586 44.05539 159.05686 44.0441 159.10733 44.03716 C 159.15782 44.03023 159.23879 44.01924 159.28928 44.01234 C 159.33975 44.00546 159.42073 43.9944 159.47122 43.9875 C 159.52172 43.98062 159.60268 43.96956 159.65317 43.9627 C 159.70365 43.95584 159.7846 43.94485 159.8351 43.93805 C 159.88559 43.93123 159.96657 43.92035 160.01705 43.91357 C 160.06754 43.90678 160.1485 43.89589 160.19899 43.88911 C 160.24948 43.88232 160.33046 43.87144 160.38094 43.86464 C 160.43143 43.85782 160.51239 43.84677 160.56288 43.83998 C 160.61336 43.83318 160.69435 43.82239 160.74483 43.81566 C 160.79532 43.80891 160.87628 43.79805 160.92678 43.79135 C 160.97725 43.78467 161.05823 43.77403 161.10872 43.76738 C 161.15921 43.76074 161.24018 43.75014 161.29067 43.74344 C 161.34114 43.73676 161.4221 43.7258 161.4726 43.71912 C 161.52309 43.71245 161.60407 43.70193 161.65454 43.69533 C 161.70503 43.68872 161.786 43.67807 161.83649 43.67139 C 161.88697 43.66469 161.96796 43.6537 162.01844 43.64706 C 162.06893 43.64041 162.14989 43.63002 162.20038 43.62346 C 162.25086 43.61688 162.33185 43.60623 162.38233 43.59966 C 162.43282 43.5931 162.51378 43.58258 162.56427 43.57602 C 162.61475 43.56947 162.69573 43.55898 162.74622 43.55241 C 162.7967 43.54585 162.87767 43.53511 162.92815 43.52861 C 162.97864 43.5221 163.0596 43.51198 163.11009 43.5055 C 163.16059 43.49902 163.24156 43.48837 163.29204 43.48189 C 163.34253 43.47542 163.4235 43.4652 163.47399 43.45877 C 163.52446 43.45235 163.60546 43.44197 163.65593 43.4355 C 163.70642 43.42902 163.78739 43.4185 163.83788 43.41205 C 163.88835 43.40561 163.96933 43.39539 164.01982 43.38893 C 164.07032 43.38248 164.15128 43.3719 164.20177 43.36548 C 164.25225 43.35904 164.33322 43.3489 164.38372 43.34254 C 164.4342 43.3362 164.51517 43.32596 164.56565 43.31961 C 164.61614 43.31326 164.6971 43.30304 164.74759 43.29669 C 164.79807 43.29033 164.87906 43.2801 164.92954 43.27374 C 164.98003 43.2674 165.06099 43.25711 165.11148 43.25082 C 165.16196 43.24452 165.24295 43.23465 165.29343 43.22838 C 165.34392 43.22212 165.42488 43.21191 165.47537 43.20561 C 165.52585 43.1993 165.60683 43.18916 165.65732 43.18286 C 165.70781 43.17654 165.78878 43.1663 165.83927 43.16008 C 165.88974 43.15387 165.9707 43.14423 166.0212 43.138 C 166.07169 43.13179 166.15267 43.1215 166.20314 43.11523 C 166.25363 43.10898 166.3346 43.09901 166.38509 43.09283 C 166.43556 43.08664 166.51656 43.07675 166.56703 43.07057 C 166.61753 43.06439 166.69849 43.05428 166.74898 43.04814 C 166.79946 43.04199 166.88045 43.0324 166.93093 43.02623 C 166.98142 43.02005 167.06238 43.00981 167.11287 43.00363 C 167.16335 42.99747 167.24433 42.98781 167.29482 42.98172 C 167.3453 42.97562 167.42627 42.96577 167.47675 42.95964 C 167.52724 42.95352 167.6082 42.94365 167.65869 42.93756 C 167.70919 42.93146 167.79016 42.92168 167.84064 42.91566 C 167.89113 42.90964 167.97209 42.90015 168.02259 42.89409 C 168.07306 42.88805 168.15406 42.8781 168.20453 42.87201 C 168.25502 42.8659 168.33599 42.85617 168.38648 42.85011 C 168.43695 42.84406 168.51793 42.83437 168.56842 42.82835 C 168.61891 42.82236 168.69988 42.8128 168.75037 42.80681 C 168.80084 42.8008 168.88182 42.79102 168.93231 42.78505 C 168.9828 42.77907 169.06377 42.76962 169.11425 42.76366 C 169.16474 42.7577 169.2457 42.74806 169.29619 42.74208 C 169.34667 42.73611 169.42766 42.72647 169.47814 42.72052 C 169.52863 42.71455 169.60959 42.705 169.66008 42.69911 C 169.71056 42.69322 169.79155 42.68396 169.84203 42.67807 C 169.89252 42.6722 169.97348 42.66264 170.02397 42.65668 C 170.07445 42.65073 170.15543 42.641 170.20592 42.6351 C 170.25641 42.62918 170.33737 42.6199 170.38785 42.61406 C 170.43834 42.6082 170.51932 42.5987 170.56981 42.59285 C 170.6203 42.587 170.70127 42.57776 170.75174 42.57195 C 170.80223 42.56615 170.8832 42.55673 170.93369 42.55089 C 170.98416 42.54506 171.06516 42.53566 171.11563 42.52985 C 171.16613 42.52405 171.24709 42.51474 171.29758 42.50896 C 171.34806 42.50316 171.42903 42.49387 171.47953 42.48808 C 171.53002 42.48228 171.61098 42.47293 171.66147 42.4672 C 171.71195 42.46144 171.79293 42.4524 171.84342 42.44666 C 171.8939 42.4409 171.97487 42.43153 172.02535 42.42577 C 172.07584 42.42 172.15682 42.41077 172.2073 42.40504 C 172.2578 42.39932 172.33876 42.3902 172.38924 42.38452 C 172.43973 42.37885 172.52069 42.36986 172.57118 42.36415 C 172.62166 42.35844 172.70265 42.34918 172.75313 42.34343 C 172.80362 42.33768 172.88459 42.32841 172.93508 42.32272 C 172.98555 42.31705 173.06653 42.308 173.11702 42.30235 C 173.16751 42.29672 173.24848 42.28761 173.29897 42.28198 C 173.34944 42.27637 173.43042 42.2674 173.48091 42.2618 C 173.5314 42.2562 173.61237 42.24724 173.66284 42.24161 C 173.71334 42.23598 173.79431 42.22687 173.8448 42.22124 C 173.89528 42.2156 173.97626 42.2066 174.02674 42.20102 C 174.07723 42.19543 174.15819 42.1866 174.20868 42.18102 C 174.25916 42.17543 174.34015 42.16637 174.39063 42.1608 C 174.44112 42.15521 174.52208 42.14633 174.57257 42.14076 C 174.62305 42.13518 174.70403 42.12608 174.75452 42.12057 C 174.80501 42.11505 174.88597 42.10635 174.93645 42.10088 C 174.98694 42.09541 175.06792 42.08653 175.11841 42.08102 C 175.1689 42.07553 175.24987 42.06665 175.30034 42.06117 C 175.35083 42.05571 175.43181 42.04697 175.4823 42.04149 C 175.53278 42.03601 175.61376 42.0271 175.66423 42.02164 C 175.71472 42.01617 175.79569 42.00757 175.84618 42.00212 C 175.89665 41.99666 175.97763 41.98775 176.02812 41.98228 C 176.07862 41.9768 176.15958 41.96796 176.21007 41.96257 C 176.26055 41.9572 176.34152 41.94879 176.39202 41.9434 C 176.4425 41.93802 176.52347 41.92918 176.57395 41.92372 C 176.62444 41.91826 176.70542 41.90942 176.7559 41.90405 C 176.8064 41.89867 176.88736 41.89021 176.93784 41.88487 C 176.98833 41.87955 177.06929 41.8709 177.11978 41.86552 C 177.17026 41.86015 177.25125 41.85161 177.30173 41.84619 C 177.35222 41.84077 177.43318 41.83185 177.48368 41.8265 C 177.53415 41.82115 177.61513 41.81277 177.66562 41.80751 C 177.71611 41.80226 177.79708 41.79381 177.84757 41.7885 C 177.89804 41.78319 177.97902 41.7745 178.02951 41.76918 C 178.08 41.76384 178.16097 41.75526 178.21144 41.75 C 178.26194 41.74475 178.34291 41.73647 178.3934 41.73117 C 178.44388 41.72588 178.52486 41.71707 178.57534 41.71182 C 178.62583 41.70656 178.70679 41.69836 178.75728 41.69316 C 178.80776 41.68797 178.88875 41.6796 178.93923 41.67433 C 178.98972 41.66907 179.07068 41.66042 179.12117 41.65517 C 179.17165 41.6499 179.25263 41.64154 179.30312 41.63634 C 179.3536 41.63115 179.43457 41.6229 179.48505 41.61769 C 179.53554 41.61249 179.61652 41.60405 179.667 41.59885 C 179.7175 41.59366 179.79846 41.58536 179.84894 41.58018 C 179.89943 41.57501 179.98041 41.5667 180.0309 41.56154 C 180.08138 41.55637 180.16236 41.54808 180.21283 41.54288 C 180.26332 41.53767 180.34429 41.52917 180.39478 41.52405 C 180.44525 41.51892 180.52623 41.51099 180.57672 41.50589 C 180.62722 41.5008 180.70818 41.4924 180.75867 41.48726 C 180.80915 41.48212 180.89012 41.47388 180.94062 41.46875 C 180.9911 41.46364 181.07207 41.45537 181.12255 41.45027 C 181.17304 41.44518 181.25402 41.43703 181.3045 41.43195 C 181.355 41.42688 181.43596 41.41873 181.48644 41.41365 C 181.53693 41.40857 181.6179 41.40042 181.6684 41.39534 C 181.71887 41.39027 181.79985 41.3821 181.85033 41.37701 C 181.90082 41.37193 181.98178 41.36372 182.03227 41.35869 C 182.08275 41.35365 182.16373 41.34575 182.21422 41.34073 C 182.26471 41.3357 182.34568 41.32745 182.39617 41.32242 C 182.44664 41.31738 182.52762 41.30943 182.57811 41.30446 C 182.6286 41.29947 182.70957 41.29146 182.76004 41.28645 C 182.81053 41.28145 182.89151 41.27333 182.942 41.26833 C 182.99248 41.26334 183.07346 41.25533 183.12393 41.25037 C 183.17443 41.2454 183.2554 41.2375 183.3059 41.23254 C 183.35637 41.22758 183.43735 41.21953 183.48783 41.21458 C 183.53832 41.20963 183.61928 41.20168 183.66977 41.19676 C 183.72025 41.19185 183.80123 41.18405 183.85172 41.17912 C 183.9022 41.1742 183.98317 41.16608 184.03365 41.16116 C 184.08414 41.15623 184.16512 41.14845 184.2156 41.14354 C 184.2661 41.13863 184.34706 41.13065 184.39754 41.12573 C 184.44803 41.12083 184.529 41.11299 184.5795 41.10812 C 184.62998 41.10324 184.71096 41.09537 184.76143 41.09048 C 184.81192 41.0856 184.8929 41.07773 184.94339 41.07285 C 184.99387 41.06796 185.07483 41.06006 185.12532 41.05524 C 185.17581 41.0504 185.25678 41.04276 185.30727 41.03793 C 185.35774 41.03311 185.43872 41.0253 185.48921 41.02046 C 185.5397 41.01563 185.62067 41.00784 185.67115 41.003 C 185.72164 40.99818 185.80261 40.99036 185.8531 40.98555 C 185.9036 40.98073 185.98456 40.973 186.03504 40.96825 C 186.08553 40.96349 186.1665 40.95596 186.217 40.95114 C 186.26747 40.94632 186.34845 40.93832 186.39893 40.9335 C 186.44942 40.9287 186.5304 40.92114 186.58089 40.91641 C 186.63137 40.91167 186.71233 40.90402 186.76282 40.89928 C 186.81331 40.89453 186.89427 40.88692 186.94477 40.88217 C 186.99524 40.87743 187.07622 40.86977 187.12671 40.86502 C 187.1772 40.86028 187.25817 40.85266 187.30864 40.84792 C 187.35913 40.84319 187.44011 40.83556 187.4906 40.83083 C 187.54108 40.82608 187.62206 40.81844 187.67253 40.81369 C 187.72303 40.80894 187.804 40.80124 187.85449 40.79657 C 187.90497 40.7919 187.98595 40.78462 188.03643 40.77997 C 188.08692 40.77531 188.1679 40.76773 188.21839 40.76303 C 188.26886 40.75833 188.34983 40.75075 188.40032 40.74608 C 188.4508 40.74141 188.53177 40.73392 188.58225 40.7293 C 188.63274 40.72469 188.71372 40.71738 188.7642 40.7127 C 188.8147 40.70805 188.89566 40.70023 188.94614 40.69557 C 188.99663 40.69092 189.0776 40.68375 189.1281 40.67915 C 189.17858 40.67456 189.25955 40.667 189.31003 40.66238 C 189.36052 40.65776 189.4415 40.65034 189.49199 40.64577 C 189.54247 40.64119 189.62343 40.63394 189.67392 40.62933 C 189.72441 40.62473 189.80538 40.61722 189.85587 40.61256 C 189.90634 40.60791 189.98732 40.60034 190.03781 40.5958 C 190.0883 40.59125 190.16927 40.58427 190.21974 40.57971 C 190.27024 40.57515 190.35121 40.56757 190.4017 40.56291 C 190.4522 40.55826 190.53316 40.55067 190.58364 40.54614 C 190.63413 40.54161 190.7151 40.53473 190.7656 40.53024 C 190.81607 40.52576 190.89705 40.51836 190.94753 40.5138 C 190.99802 40.50923 191.079 40.50189 191.12949 40.49736 C 191.17996 40.49283 191.26093 40.48564 191.31142 40.48111 C 191.36191 40.47658 191.44287 40.4692 191.49337 40.46469 C 191.54384 40.46019 191.62482 40.45308 191.67531 40.4486 C 191.7258 40.4441 191.80677 40.43681 191.85724 40.43233 C 191.90773 40.42784 191.98871 40.42068 192.0392 40.41623 C 192.08968 40.41177 192.17066 40.4046 192.22113 40.40015 C 192.27162 40.39569 192.3526 40.38855 192.40309 40.38406 C 192.45357 40.37958 192.53455 40.37224 192.58502 40.36778 C 192.63552 40.36333 192.71649 40.35626 192.76699 40.35188 C 192.81746 40.3475 192.89842 40.34055 192.94892 40.33614 C 192.9994 40.33173 193.08037 40.32454 193.13085 40.32005 C 193.18134 40.31557 193.26232 40.30818 193.3128 40.30377 C 193.3633 40.29936 193.44426 40.29256 193.49474 40.2882 C 193.54523 40.28384 193.6262 40.27667 193.6767 40.27226 C 193.72718 40.26785 193.80815 40.26074 193.85863 40.25636 C 193.90912 40.25198 193.9901 40.24498 194.04059 40.24062 C 194.09107 40.23625 194.17203 40.22923 194.22252 40.22487 C 194.27301 40.2205 194.35399 40.21344 194.40448 40.20912 C 194.45496 40.2048 194.53592 40.19807 194.58641 40.19371 C 194.6369 40.18935 194.71787 40.18198 194.76834 40.17763 C 194.81884 40.17326 194.89981 40.16649 194.9503 40.1622 C 195.00078 40.15791 195.08176 40.15097 195.13224 40.14664 C 195.18273 40.1423 195.2637 40.13522 195.3142 40.13089 C 195.36467 40.12656 195.44565 40.11961 195.49613 40.11533 C 195.54662 40.11104 195.6276 40.1042 195.67809 40.09993 C 195.72856 40.09566 195.80953 40.08878 195.86002 40.0845 C 195.9105 40.08023 195.99149 40.07336 196.04196 40.06909 C 196.09246 40.06482 196.17342 40.05795 196.2239 40.0537 C 196.2744 40.04944 196.35536 40.04263 196.40584 40.03831 C 196.45633 40.034 196.53731 40.02682 196.5878 40.02255 C 196.63828 40.0183 196.71926 40.0117 196.76973 40.00748 C 196.82022 40.00325 196.9012 39.99628 196.95169 39.99208 C 197.00217 39.98788 197.08315 39.98138 197.13362 39.97719 C 197.18412 39.97299 197.26509 39.96602 197.31558 39.96178 C 197.36606 39.95753 197.44702 39.95074 197.49752 39.94655 C 197.548 39.94235 197.62899 39.93568 197.67946 39.93149 C 197.72995 39.92729 197.81092 39.92046 197.8614 39.91626 C 197.9119 39.91206 197.99286 39.90538 198.04334 39.90118 C 198.09383 39.89699 198.1748 39.89015 198.2253 39.88596 C 198.27577 39.88176 198.35675 39.87509 198.40723 39.8709 C 198.45772 39.8667 198.5387 39.85982 198.58919 39.85565 C 198.63967 39.85149 198.72063 39.8449 198.77112 39.84077 C 198.82161 39.83665 198.90259 39.83006 198.95308 39.82588 C 199.00356 39.8217 199.08452 39.81477 199.13501 39.81062 C 199.1855 39.80647 199.26648 39.8 199.31696 39.79593 C 199.36745 39.79185 199.44841 39.78531 199.4989 39.7812 C 199.54938 39.7771 199.63036 39.77042 199.68083 39.7663 C 199.73133 39.76218 199.8123 39.7555 199.8628 39.75142 C 199.91327 39.74734 199.99425 39.74094 200.04473 39.73686 C 200.09522 39.73279 200.1762 39.72609 200.22669 39.72198 C 200.27716 39.71788 200.35813 39.71133 200.40862 39.70726 C 200.4591 39.70319 200.54009 39.6966 200.59056 39.69252 C 200.64105 39.68845 200.72202 39.6819 200.7725 39.67783 C 200.823 39.67375 200.90396 39.6672 200.95444 39.6631 C 201.00493 39.659 201.0859 39.65222 201.1364 39.6482 C 201.18688 39.64417 201.26786 39.63802 201.31833 39.634 C 201.36882 39.62999 201.4498 39.62332 201.50029 39.61926 C 201.55077 39.6152 201.63173 39.60872 201.68222 39.60472 C 201.73271 39.60072 201.81369 39.59438 201.86418 39.59035 C 201.91466 39.58632 201.99562 39.57965 202.04611 39.57562 C 202.0966 39.5716 202.17758 39.56522 202.22806 39.56125 C 202.27855 39.5573 202.35951 39.55101 202.41 39.54704 C 202.4605 39.54308 202.54146 39.53664 202.59194 39.53264 C 202.64243 39.52866 202.7234 39.52226 202.7739 39.51828 C 202.82437 39.5143 202.90535 39.50789 202.95583 39.5039 C 203.00632 39.49992 203.0873 39.49348 203.13779 39.48953 C 203.18827 39.48558 203.26923 39.4793 203.31972 39.47533 C 203.37021 39.47134 203.45119 39.4649 203.50168 39.46092 C 203.55216 39.45694 203.63312 39.45052 203.68361 39.44658 C 203.7341 39.44264 203.81508 39.4364 203.86556 39.43251 C 203.91605 39.42862 203.99701 39.4224 204.0475 39.41849 C 204.09798 39.41458 204.17896 39.40823 204.22943 39.40428 C 204.27993 39.40033 204.3609 39.3938 204.41139 39.38991 C 204.46187 39.38602 204.54285 39.3801 204.59333 39.3762 C 204.64382 39.37231 204.7248 39.36574 204.77529 39.36183 C 204.82576 39.35793 204.90673 39.35187 204.95722 39.34798 C 205.0077 39.34409 205.08869 39.33765 205.13916 39.33376 C 205.18965 39.32986 205.27062 39.32372 205.3211 39.3199 C 205.3716 39.31609 205.45258 39.31001 205.50305 39.3062 C 205.55355 39.30238 205.6345 39.29619 205.685 39.29233 C 205.73548 39.28847 205.81645 39.28221 205.86693 39.27832 C 205.91742 39.27443 205.9984 39.2681 206.04889 39.26425 C 206.09937 39.2604 206.18033 39.2544 206.23082 39.25058 C 206.28131 39.24677 206.36229 39.24055 206.41278 39.23671 C 206.46326 39.23286 206.54422 39.22667 206.59471 39.22282 C 206.6452 39.21898 206.72618 39.2128 206.77666 39.20897 C 206.82715 39.20514 206.90811 39.1989 206.9586 39.19511 C 207.0091 39.19133 207.09008 39.18536 207.14055 39.18158 C 207.19104 39.17781 207.272 39.1717 207.3225 39.16791 C 207.37297 39.16411 207.45395 39.158 207.50443 39.15419 C 207.55492 39.15038 207.6359 39.1441 207.68639 39.14034 C 207.73686 39.13655 207.81783 39.13075 207.86832 39.12698 C 207.91881 39.12321 207.99979 39.1169 208.05028 39.11311 C 208.10076 39.10933 208.18172 39.10333 208.23221 39.09961 C 208.2827 39.09587 208.36368 39.08998 208.41416 39.08624 C 208.46465 39.0825 208.54561 39.07628 208.5961 39.07254 C 208.64658 39.0688 208.72757 39.06293 208.77805 39.05919 C 208.82854 39.05547 208.9095 39.04941 208.95999 39.04567 C 209.01047 39.04193 209.09145 39.03589 209.14192 39.03217 C 209.19242 39.02844 209.27339 39.02249 209.32389 39.0188 C 209.37436 39.0151 209.45532 39.00919 209.50582 39.00546 C 209.5563 39.00174 209.63729 38.99562 209.68776 38.99193 C 209.73825 38.98824 209.81922 38.98245 209.8697 38.97876 C 209.9202 38.97507 210.00118 38.96896 210.05165 38.96523 C 210.10214 38.9615 210.1831 38.95557 210.2336 38.95189 C 210.28408 38.94821 210.36507 38.94237 210.41555 38.93869 C 210.46604 38.93501 210.547 38.92899 210.59749 38.92534 C 210.64797 38.92169 210.72893 38.916 210.77942 38.91234 C 210.82991 38.90869 210.91089 38.90268 210.96138 38.899 C 211.01186 38.89532 211.09282 38.88945 211.14331 38.8858 C 211.1938 38.88216 211.27478 38.87628 211.32526 38.87263 C 211.37575 38.86899 211.45671 38.86307 211.5072 38.85944 C 211.5577 38.8558 211.63867 38.85008 211.68915 38.84645 C 211.73964 38.8428 211.8206 38.83688 211.8711 38.83325 C 211.92157 38.82962 212.00255 38.82385 212.05303 38.82025 C 212.10352 38.81665 212.1845 38.81088 212.23499 38.80724 C 212.28546 38.80359 212.36643 38.7975 212.41692 38.79388 C 212.4674 38.79028 212.54839 38.78479 212.59888 38.78123 C 212.64936 38.77766 212.73032 38.77182 212.7808 38.76822 C 212.8313 38.76462 212.91228 38.75877 212.96276 38.75522 C 213.01325 38.75166 213.09421 38.74612 213.1447 38.74254 C 213.19518 38.73895 213.27617 38.73294 213.32665 38.72935 C 213.37714 38.72577 213.4581 38.72025 213.50859 38.71667 C 213.55907 38.7131 213.64005 38.70708 213.69052 38.70352 C 213.74102 38.69995 213.82199 38.69455 213.87248 38.69102 C 213.92296 38.68748 214.00392 38.68153 214.05442 38.67801 C 214.1049 38.67448 214.18589 38.66908 214.23636 38.66553 C 214.28685 38.66197 214.36782 38.65588 214.4183 38.65233 C 214.4688 38.64877 214.54978 38.64336 214.60025 38.63985 C 214.65074 38.63634 214.7317 38.63054 214.7822 38.62698 C 214.83267 38.62343 214.91367 38.61769 214.96414 38.61417 C 215.01464 38.61066 215.0956 38.60515 215.14609 38.60165 C 215.19657 38.59818 215.27753 38.59247 215.32802 38.589 C 215.37851 38.58553 215.45949 38.58015 215.50998 38.57668 C 215.56046 38.57318 215.64142 38.5674 215.69191 38.56384 C 215.7424 38.56029 215.82338 38.55446 215.87386 38.551 C 215.92435 38.54753 216.00531 38.54228 216.0558 38.53885 C 216.1063 38.53542 216.18727 38.52966 216.23775 38.52618 C 216.28824 38.5227 216.3692 38.51712 216.4197 38.51369 C 216.47017 38.51025 216.55117 38.50482 216.60164 38.50136 C 216.65213 38.4979 216.7331 38.4922 216.78359 38.4887 C 216.83406 38.48518 216.91503 38.47946 216.96552 38.47603 C 217.016 38.4726 217.09699 38.46732 217.14748 38.46388 C 217.19795 38.46045 217.27892 38.45465 217.3294 38.45122 C 217.3799 38.44778 217.46088 38.44243 217.51136 38.43904 C 217.56185 38.43565 217.6428 38.43013 217.6933 38.42671 C 217.74378 38.42331 217.82477 38.41786 217.87525 38.41441 C 217.92574 38.41098 218.0067 38.40538 218.05719 38.4019 C 218.10767 38.39844 218.18866 38.39282 218.23914 38.38942 C 218.28963 38.38603 218.37059 38.38086 218.42108 38.37743 C 218.47156 38.37401 218.55252 38.3682 218.60301 38.36478 C 218.6535 38.36134 218.73448 38.35614 218.78496 38.35277 C 218.83545 38.34941 218.91641 38.34384 218.9669 38.34044 C 219.0174 38.33705 219.09838 38.33165 219.14885 38.3283 C 219.19934 38.32495 219.2803 38.31969 219.3308 38.31631 C 219.38127 38.31296 219.46227 38.30739 219.51274 38.30402 C 219.56324 38.30066 219.6442 38.29538 219.69469 38.29202 C 219.74517 38.28868 219.82614 38.2832 219.87664 38.27985 C 219.92713 38.27649 220.00809 38.27106 220.05858 38.2677 C 220.10906 38.26434 220.19002 38.2589 220.24051 38.25555 C 220.291 38.25221 220.37198 38.24689 220.42246 38.24358 C 220.47295 38.24026 220.55391 38.2349 220.6044 38.23158 C 220.65489 38.22827 220.73587 38.22293 220.78635 38.21962 C 220.83684 38.21631 220.9178 38.21095 220.96829 38.20764 C 221.01877 38.20433 221.09976 38.19899 221.15024 38.19565 C 221.20073 38.1923 221.2817 38.1868 221.33219 38.1835 C 221.38266 38.1802 221.46364 38.17516 221.51413 38.17186 C 221.56462 38.16856 221.64559 38.16306 221.69608 38.15971 C 221.74655 38.15637 221.82752 38.15099 221.878 38.14772 C 221.9285 38.14444 222.00948 38.13937 222.05995 38.13608 C 222.11045 38.13277 222.1914 38.12723 222.2419 38.12392 C 222.29238 38.12062 222.37337 38.11551 222.42385 38.11227 C 222.47434 38.10905 222.5553 38.10391 222.60579 38.10065 C 222.65627 38.09738 222.73726 38.09193 222.78774 38.08867 C 222.83823 38.0854 222.91919 38.08028 222.96968 38.07703 C 223.02016 38.07378 223.10112 38.06848 223.15161 38.06522 C 223.2021 38.06195 223.28308 38.05666 223.33356 38.0534 C 223.38405 38.05016 223.46501 38.04495 223.5155 38.04176 C 223.566 38.03856 223.64698 38.03352 223.69745 38.03029 C 223.74794 38.02707 223.8289 38.02176 223.8794 38.01848 C 223.92987 38.01521 224.01087 38.0099 224.06134 38.00668 C 224.11183 38.00346 224.1928 37.99841 224.24329 37.99521 C 224.29376 37.992 224.37474 37.98679 224.42523 37.98357 C 224.47573 37.98035 224.55669 37.97514 224.60718 37.97195 C 224.65766 37.96875 224.73862 37.96367 224.78911 37.96046 C 224.8396 37.95724 224.92058 37.95206 224.97106 37.94882 C 225.02155 37.9456 225.10251 37.94037 225.153 37.93718 C 225.20348 37.93399 225.28447 37.92885 225.33495 37.92572 C 225.38544 37.92259 225.4664 37.91772 225.51689 37.9146 C 225.56737 37.91147 225.64836 37.90633 225.69884 37.90312 C 225.74933 37.8999 225.83029 37.89467 225.88079 37.89146 C 225.93126 37.88828 226.01224 37.88318 226.06273 37.88 C 226.11322 37.87683 226.19419 37.87172 226.24466 37.86855 C 226.29515 37.86537 226.37612 37.86021 226.4266 37.85707 C 226.4771 37.85393 226.55808 37.84894 226.60855 37.8458 C 226.65904 37.84264 226.74 37.83743 226.7905 37.83429 C 226.84098 37.83116 226.92197 37.82631 226.97245 37.82317 C 227.02294 37.82002 227.1039 37.8147 227.15439 37.81155 C 227.20487 37.80841 227.28586 37.80353 227.33634 37.80043 C 227.38683 37.79732 227.46779 37.79222 227.51828 37.78911 C 227.56876 37.78601 227.64974 37.78111 227.70023 37.77798 C 227.75072 37.77486 227.83168 37.76965 227.88216 37.76653 C 227.93265 37.7634 228.01361 37.75853 228.0641 37.7554 C 228.1146 37.75227 228.19557 37.74704 228.24605 37.74394 C 228.29654 37.74083 228.3775 37.73604 228.428 37.73299 C 228.47847 37.72993 228.55947 37.72496 228.60994 37.72186 C 228.66043 37.71877 228.7414 37.71368 228.79189 37.71056 C 228.84236 37.70743 228.92334 37.70236 228.97383 37.69926 C 229.02433 37.69618 229.10529 37.69133 229.15578 37.6883 C 229.20626 37.68526 229.28723 37.6804 229.33773 37.67735 C 229.38822 37.6743 229.46918 37.66931 229.51966 37.66623 C 229.57015 37.66313 229.65111 37.65817 229.7016 37.65509 C 229.75208 37.65202 229.83307 37.64708 229.88355 37.64398 C 229.93404 37.64088 230.015 37.63571 230.06549 37.63268 C 230.11597 37.62964 230.19696 37.62505 230.24744 37.62206 C 230.29793 37.61908 230.37889 37.61414 230.42938 37.61111 C 230.47986 37.6081 230.56084 37.60321 230.61133 37.60016 C 230.66182 37.5971 230.74279 37.59209 230.79326 37.58904 C 230.84375 37.58597 230.92473 37.58112 230.97522 37.57808 C 231.02571 37.57504 231.10668 37.57014 231.15715 37.56711 C 231.20764 37.56407 231.2886 37.55914 231.3391 37.55617 C 231.38957 37.55318 231.47057 37.54851 231.52104 37.54553 C 231.57154 37.54256 231.6525 37.53764 231.70299 37.53459 C 231.75347 37.53154 231.83444 37.52647 231.88494 37.52347 C 231.93543 37.52045 232.01639 37.51584 232.06688 37.51286 C 232.11736 37.50989 232.19834 37.5049 232.24883 37.50189 C 232.29932 37.49889 232.38028 37.49408 232.43076 37.4911 C 232.48125 37.48814 232.56223 37.48346 232.61272 37.4805 C 232.66321 37.47754 232.74417 37.47267 232.79465 37.46971 C 232.84514 37.46674 232.9261 37.46213 232.9766 37.4591 C 233.02707 37.4561 233.10807 37.45099 233.15854 37.44798 C 233.20903 37.44498 233.29 37.44034 233.34049 37.43738 C 233.39096 37.4344 233.47194 37.42957 233.52243 37.42659 C 233.57292 37.42363 233.65389 37.41888 233.70438 37.41597 C 233.75485 37.41306 233.83583 37.40848 233.88632 37.40553 C 233.93682 37.4026 234.01778 37.39772 234.06826 37.39476 C 234.11875 37.3918 234.19972 37.38708 234.25022 37.38412 C 234.30069 37.38115 234.38167 37.3763 234.43215 37.37335 C 234.48264 37.37042 234.5636 37.36584 234.61409 37.36292 C 234.66457 37.35999 234.74556 37.35507 234.79604 37.35214 C 234.84653 37.3492 234.92749 37.34459 234.97798 37.34167 C 235.02846 37.33876 235.10944 37.33405 235.15993 37.33109 C 235.21042 37.32811 235.29138 37.32323 235.34186 37.32028 C 235.39235 37.31735 235.47333 37.3127 235.52382 37.30984 C 235.57431 37.30699 235.65528 37.30243 235.70575 37.29958 C 235.75624 37.29674 235.8372 37.29224 235.8877 37.28932 C 235.93817 37.2864 236.01917 37.28146 236.06964 37.27853 C 236.12014 37.27559 236.2011 37.27092 236.25159 37.26808 C 236.30207 37.26524 236.38304 37.26086 236.43354 37.25798 C 236.48403 37.25508 236.56499 37.2501 236.61548 37.24721 C 236.66596 37.24432 236.74694 37.23999 236.79743 37.2371 C 236.84792 37.2342 236.92888 37.22925 236.97936 37.22632 C 237.02985 37.2234 237.11083 37.21892 237.16132 37.21605 C 237.2118 37.21318 237.29277 37.2085 237.34325 37.2056 C 237.39374 37.20271 237.4747 37.198 237.52519 37.19516 C 237.57567 37.19232 237.65666 37.1879 237.70714 37.18507 C 237.75763 37.18227 237.8386 37.17766 237.88909 37.17479 C 237.93956 37.17192 238.02054 37.16724 238.07103 37.16437 C 238.12152 37.16148 238.20249 37.1569 238.25298 37.15407 C 238.30345 37.15123 238.38443 37.14665 238.43492 37.14381 C 238.48542 37.14096 238.56638 37.13635 238.61685 37.13354 C 238.66735 37.13074 238.74832 37.12625 238.79882 37.12344 C 238.84929 37.12062 238.93027 37.11604 238.98075 37.11317 C 239.03124 37.1103 239.1122 37.10553 239.16269 37.10272 C 239.21317 37.0999 239.29416 37.09557 239.34464 37.0928 C 239.39513 37.09004 239.47609 37.08553 239.52658 37.08272 C 239.57706 37.0799 239.65804 37.07524 239.70853 37.07243 C 239.75902 37.06963 239.83998 37.06511 239.89046 37.06233 C 239.94095 37.05957 240.02193 37.0552 240.07242 37.05241 C 240.12291 37.04962 240.20388 37.04495 240.25435 37.04213 C 240.30484 37.03932 240.38582 37.0348 240.43631 37.03204 C 240.48679 37.02928 240.56777 37.02489 240.61824 37.02211 C 240.66873 37.01935 240.7497 37.01483 240.80019 37.01202 C 240.85066 37.00922 240.93164 37.00455 240.98213 37.00174 C 241.03263 36.99895 241.11359 36.99461 241.16408 36.99182 C 241.21456 36.98901 241.29553 36.98434 241.34603 36.98154 C 241.39652 36.97874 241.47748 36.97432 241.52796 36.97162 C 241.57845 36.9689 241.65943 36.96477 241.70992 36.96202 C 241.7604 36.95927 241.84137 36.95456 241.89185 36.95177 C 241.94234 36.94896 242.02332 36.94458 242.0738 36.94183 C 242.12429 36.93909 242.20526 36.93466 242.25574 36.9319 C 242.30623 36.92915 242.38719 36.92473 242.43769 36.92198 C 242.48816 36.91924 242.56914 36.91481 242.61963 36.91205 C 242.67012 36.9093 242.75109 36.90489 242.80158 36.90215 C 242.85205 36.89938 242.93303 36.89493 242.98352 36.89218 C 243.03401 36.88943 243.16545 36.88226 243.16545 36.88226 "/>
</g>
</svg>
