<?xml version="1.0" encoding="UTF-8" standalone="no"?>
<!DOCTYPE svg PUBLIC "-//W3C//DTD SVG 1.1//EN" "http://www.w3.org/Graphics/SVG/1.1/DTD/svg11.dtd">
<svg xmlns="http://www.w3.org/2000/svg" xmlns:xlink="http://www.w3.org/1999/xlink" version="1.1" width="265.433pt" height="202.416pt" viewBox="0 0 265.433 202.416">
<path transform="matrix(1,0,0,-1,-20.71,195.47)" stroke-width="1" stroke-linecap="butt" stroke-dasharray="2.98883,2.98883" stroke-miterlimit="10" stroke-linejoin="miter" fill="none" stroke="#bfbfbf" d="M 30.39635 0 L 30.39635 182.37813 M 60.79271 0 L 60.79271 182.37813 M 91.18906 0 L 91.18906 182.37813 M 121.58542 0 L 121.58542 182.37813 M 182.37813 0 L 182.37813 182.37813 M 212.77449 0 L 212.77449 182.37813 M 243.17084 0 L 243.17084 182.37813 M 273.5672 0 L 273.5672 182.37813 "/>
<path transform="matrix(1,0,0,-1,-20.71,195.47)" stroke-width="1" stroke-linecap="butt" stroke-dasharray="2.98883,2.98883" stroke-miterlimit="10" stroke-linejoin="miter" fill="none" stroke="#bfbfbf" d="M 30.39635 0 L 273.5672 0 M 30.39635 30.39635 L 273.5672 30.39635 M 30.39635 60.79271 L 273.5672 60.79271 M 30.39635 121.58542 L 273.5672 121.58542 M 30.39635 151.98177 L 273.5672 151.98177 M 30.39635 182.37813 L 273.5672 182.37813 "/>
<path transform="matrix(1,0,0,-1,-20.71,195.47)" stroke-width="1" stroke-linecap="butt" stroke-miterlimit="10" stroke-linejoin="miter" fill="none" stroke="#808080" d="M 30.39635 89.06311 L 30.39635 93.315 M 60.79271 89.06311 L 60.79271 93.315 M 91.18906 89.06311 L 91.18906 93.315 M 121.58542 89.06311 L 121.58542 93.315 M 182.37813 89.06311 L 182.37813 93.315 M 212.77449 89.06311 L 212.77449 93.315 M 243.17084 89.06311 L 243.17084 93.315 M 273.5672 89.06311 L 273.5672 93.315 "/>
<path transform="matrix(1,0,0,-1,-20.71,195.47)" stroke-width="1" stroke-linecap="butt" stroke-miterlimit="10" stroke-linejoin="miter" fill="none" stroke="#808080" d="M 149.85582 0 L 154.10771 0 M 149.85582 30.39635 L 154.10771 30.39635 M 149.85582 60.79271 L 154.10771 60.79271 M 149.85582 121.58542 L 154.10771 121.58542 M 149.85582 151.98177 L 154.10771 151.98177 M 149.85582 182.37813 L 154.10771 182.37813 "/>
<path transform="matrix(1,0,0,-1,-20.71,195.47)" stroke-width="1" stroke-linecap="butt" stroke-miterlimit="10" stroke-linejoin="miter" fill="none" stroke="#000000" d="M 30.39635 91.18906 L 271.57469 91.18906 "/>
<path transform="matrix(1,0,0,-1,250.86469,104.280948)" d="M 1.99252 0 L -1.19551 1.59401 L 0 0 L -1.19551 -1.59401 "/>
<path transform="matrix(1,0,0,-1,-20.71,195.47)" stroke-width="1" stroke-linecap="butt" stroke-miterlimit="10" stroke-linejoin="miter" fill="none" stroke="#000000" d="M 151.98177 0 L 151.98177 180.3856 "/>
<path transform="matrix(0,-1,-1,-0,131.27176,15.084396)" d="M 1.99252 0 L -1.19551 1.59401 L 0 0 L -1.19551 -1.59401 "/>
<symbol id="font_0_1">
<path d="M .57600006 0 C .59300008 0 .611 0 .611 .019999996 C .611 .040000008 .59300008 .040000008 .57600006 .040000008 L .035000005 .040000008 C .018 .040000008 0 .040000008 0 .019999996 C 0 0 .018 0 .035000005 0 L .57600006 0 Z "/>
</symbol>
<use xlink:href="#font_0_1" transform="matrix(9.9626,0,0,-9.9626,4.147897,114.0566)"/>
<symbol id="font_1_4">
<path d="M .266 .165 L .266 .078 C .266 .042000005 .26400004 .031000002 .19000001 .031000002 L .16900002 .031000002 L .16900002 0 C .21000001 .003 .26200003 .003 .30400003 .003 C .34600003 .003 .39900003 .003 .44000004 0 L .44000004 .031000002 L .41900004 .031000002 C .34500004 .031000002 .34300003 .042000005 .34300003 .078 L .34300003 .165 L .44300003 .165 L .44300003 .19600001 L .34300003 .19600001 L .34300003 .651 C .34300003 .671 .34300003 .67700007 .32700003 .67700007 C .31800003 .67700007 .31500004 .67700007 .307 .665 L 0 .19600001 L 0 .165 L .266 .165 M .272 .19600001 L .028 .19600001 L .272 .569 L .272 .19600001 Z "/>
</symbol>
<use xlink:href="#font_1_4" transform="matrix(9.9626,0,0,-9.9626,11.347954,116.348)"/>
<use xlink:href="#font_0_1" transform="matrix(9.9626,0,0,-9.9626,34.543897,114.0566)"/>
<symbol id="font_1_3">
<path d="M .24800003 .37400005 C .33 .40100003 .388 .47100006 .388 .55 C .388 .632 .3 .688 .204 .688 C .10300001 .688 .027000003 .628 .027000003 .55200007 C .027000003 .519 .049000004 .5 .078 .5 C .109000008 .5 .12900001 .522 .12900001 .55100008 C .12900001 .6010001 .082 .6010001 .067 .6010001 C .098 .65000006 .164 .66300007 .20000002 .66300007 C .24100003 .66300007 .29600004 .64100006 .29600004 .55100008 C .29600004 .53900006 .29400004 .48100005 .268 .43700005 C .238 .38900004 .204 .38600005 .17900002 .38500003 C .171 .38400004 .14700002 .38200004 .14000002 .38200004 C .132 .38100005 .125 .38000003 .125 .37000004 C .125 .35900004 .132 .35900004 .14900002 .35900004 L .19300002 .35900004 C .275 .35900004 .312 .29100005 .312 .193 C .312 .057000005 .24300003 .028 .199 .028 C .15600002 .028 .081 .045 .046000005 .104 C .081 .09900001 .11200001 .12100001 .11200001 .15900001 C .11200001 .19500001 .085 .215 .056 .215 C .031999999 .215 0 .201 0 .157 C 0 .06600001 .093 0 .20200002 0 C .32400004 0 .41500003 .091000009 .41500003 .193 C .41500003 .27500005 .35200004 .35300005 .24800003 .37400005 Z "/>
</symbol>
<use xlink:href="#font_1_3" transform="matrix(9.9626,0,0,-9.9626,41.88343,116.56718)"/>
<use xlink:href="#font_0_1" transform="matrix(9.9626,0,0,-9.9626,64.938899,114.0566)"/>
<symbol id="font_1_2">
<path d="M .07700001 .07700001 L .18300002 .18 C .33900003 .31800003 .39900003 .372 .39900003 .47200004 C .39900003 .586 .30900003 .666 .18700002 .666 C .074 .666 0 .574 0 .485 C 0 .42900003 .05 .42900003 .053000008 .42900003 C .07000001 .42900003 .105000007 .441 .105000007 .48200003 C .105000007 .508 .08700001 .53400006 .052000006 .53400006 C .044000005 .53400006 .042000008 .53400006 .039 .53300008 C .062000004 .59800007 .11600001 .63500007 .17400001 .63500007 C .26500003 .63500007 .308 .554 .308 .47200004 C .308 .39200003 .25800003 .31300003 .20300003 .25100003 L .011000004 .037 C 0 .026 0 .024 0 0 L .37100003 0 L .39900003 .17400001 L .374 .17400001 C .36900003 .14400001 .36200003 .1 .352 .085 C .345 .07700001 .279 .07700001 .257 .07700001 L .07700001 .07700001 Z "/>
</symbol>
<use xlink:href="#font_1_2" transform="matrix(9.9626,0,0,-9.9626,72.35913,116.348)"/>
<use xlink:href="#font_0_1" transform="matrix(9.9626,0,0,-9.9626,95.3349,114.0566)"/>
<symbol id="font_1_1">
<path d="M .205 .64000007 C .205 .66400006 .205 .666 .18200003 .666 C .120000008 .60200008 .032000007 .60200008 0 .60200008 L 0 .57100006 C .020000004 .57100006 .07900001 .57100006 .13100001 .597 L .13100001 .079 C .13100001 .043 .128 .031000002 .038000004 .031000002 L .0060000049 .031000002 L .0060000049 0 C .04100001 .003 .128 .003 .168 .003 C .20800002 .003 .29500003 .003 .33000005 0 L .33000005 .031000002 L .29800005 .031000002 C .20800002 .031000002 .205 .042000005 .205 .079 L .205 .64000007 Z "/>
</symbol>
<use xlink:href="#font_1_1" transform="matrix(9.9626,0,0,-9.9626,103.14368,116.348)"/>
<use xlink:href="#font_1_1" transform="matrix(9.9626,0,0,-9.9626,160.06166,116.348)"/>
<use xlink:href="#font_1_2" transform="matrix(9.9626,0,0,-9.9626,190.06914,116.348)"/>
<use xlink:href="#font_1_3" transform="matrix(9.9626,0,0,-9.9626,220.38544,116.56718)"/>
<use xlink:href="#font_1_4" transform="matrix(9.9626,0,0,-9.9626,250.64196,116.348)"/>
<use xlink:href="#font_0_1" transform="matrix(9.9626,0,0,-9.9626,113.7209,195.9736)"/>
<use xlink:href="#font_1_3" transform="matrix(9.9626,0,0,-9.9626,121.06043,198.48418)"/>
<use xlink:href="#font_0_1" transform="matrix(9.9626,0,0,-9.9626,113.7209,165.5776)"/>
<use xlink:href="#font_1_2" transform="matrix(9.9626,0,0,-9.9626,121.14014,167.869)"/>
<use xlink:href="#font_0_1" transform="matrix(9.9626,0,0,-9.9626,113.7209,135.1816)"/>
<use xlink:href="#font_1_1" transform="matrix(9.9626,0,0,-9.9626,121.52968,137.47299)"/>
<use xlink:href="#font_1_1" transform="matrix(9.9626,0,0,-9.9626,121.52967,77.096)"/>
<use xlink:href="#font_1_2" transform="matrix(9.9626,0,0,-9.9626,121.14113,46.699998)"/>
<use xlink:href="#font_1_3" transform="matrix(9.9626,0,0,-9.9626,121.061428,16.523179)"/>
<clipPath id="cp2">
<path transform="matrix(1,0,0,-1,-20.71,195.47)" d="M 30.39635 0 L 273.5672 0 L 273.5672 182.37813 L 30.39635 182.37813 Z "/>
</clipPath>
<g clip-path="url(#cp2)">
<path transform="matrix(1,0,0,-1,-20.71,195.47)" stroke-width="1.19553" stroke-linecap="butt" stroke-miterlimit="10" stroke-linejoin="miter" fill="none" stroke="#80001a" d="M 0 105.0498 C 0 105.0498 .24179 105.45744 .33466 105.61546 C .4275 105.77348 .57645 106.02866 .66931 106.18875 C .76216 106.34883 .91112 106.60707 1.00398 106.7693 C 1.09683 106.93155 1.24577 107.19391 1.33864 107.3581 C 1.43149 107.52228 1.58044 107.7867 1.67331 107.95265 C 1.76616 108.11859 1.9151 108.38641 2.00797 108.55418 C 2.10081 108.72195 2.24979 108.99232 2.34264 109.1618 C 2.43549 109.3313 2.58444 109.60464 2.67729 109.77582 C 2.77014 109.94699 2.91911 110.22304 3.01196 110.3956 C 3.10481 110.56818 3.25377 110.84563 3.34662 111.01962 C 3.43947 111.19363 3.58842 111.47418 3.68127 111.64975 C 3.77412 111.82532 3.9231 112.1082 4.01595 112.28503 C 4.1088 112.46185 4.25775 112.74626 4.3506 112.92427 C 4.44345 113.10228 4.59242 113.38892 4.68527 113.56807 C 4.77812 113.74722 4.92708 114.03535 5.01993 114.21552 C 5.11278 114.39568 5.26175 114.68552 5.3546 114.8666 C 5.44745 115.04768 5.5964 115.33875 5.68925 115.52072 C 5.7821 115.70271 5.93108 115.99547 6.02393 116.1782 C 6.11678 116.36095 6.26573 116.65439 6.35858 116.83781 C 6.45143 117.02122 6.6004 117.3161 6.69325 117.50014 C 6.7861 117.68417 6.93506 117.97975 7.02791 118.1643 C 7.12077 118.34885 7.26971 118.64536 7.36256 118.83029 C 7.45543 119.01521 7.60439 119.31187 7.69724 119.49718 C 7.7901 119.6825 7.93904 119.98035 8.03189 120.1659 C 8.12476 120.35146 8.27371 120.64906 8.36656 120.83463 C 8.45943 121.02017 8.60837 121.31778 8.70122 121.50334 C 8.79408 121.68889 8.94304 121.98651 9.0359 122.17206 C 9.12875 122.35762 9.2777 122.65523 9.37056 122.84077 C 9.46341 123.02634 9.61237 123.32407 9.70523 123.5095 C 9.79808 123.69493 9.94702 123.99225 10.03989 124.1773 C 10.13274 124.36237 10.2817 124.6587 10.37456 124.84329 C 10.4674 125.02788 10.61635 125.32358 10.70921 125.50775 C 10.80206 125.69193 10.951 125.98717 11.04387 126.1707 C 11.13672 126.35423 11.28569 126.64774 11.37854 126.8306 C 11.47139 127.01346 11.62035 127.3065 11.7132 127.48868 C 11.80605 127.67085 11.95502 127.96242 12.04787 128.14373 C 12.14072 128.32501 12.28967 128.61493 12.38252 128.79543 C 12.47537 128.97592 12.62434 129.26529 12.7172 129.44469 C 12.81004 129.62409 12.959 129.91031 13.05185 130.08849 C 13.1447 130.26668 13.29367 130.55178 13.38652 130.72893 C 13.47937 130.9061 13.62833 131.18949 13.72118 131.36544 C 13.81403 131.54137 13.963 131.8227 14.05585 131.99707 C 14.1487 132.17145 14.29765 132.44937 14.3905 132.62233 C 14.48335 132.79528 14.63231 133.07199 14.72516 133.24364 C 14.81801 133.41529 14.96698 133.68949 15.05983 133.85945 C 15.15268 134.0294 15.30164 134.30049 15.39449 134.4686 C 15.48734 134.63669 15.6363 134.90477 15.72916 135.07106 C 15.822 135.23735 15.97096 135.50244 16.06381 135.66713 C 16.15668 135.83182 16.30563 136.0952 16.39848 136.25803 C 16.49135 136.42086 16.64029 136.68022 16.73314 136.84073 C 16.826 137.00122 16.97496 137.25644 17.06781 137.41492 C 17.16068 137.5734 17.30962 137.82662 17.40247 137.98303 C 17.49533 138.13945 17.64429 138.38826 17.73714 138.54232 C 17.83 138.69637 17.97894 138.94158 18.07181 139.0934 C 18.16466 139.24523 18.3136 139.48715 18.40646 139.63658 C 18.49931 139.786 18.64827 140.02338 18.74113 140.17035 C 18.83398 140.31732 18.98293 140.5515 19.07579 140.69589 C 19.16864 140.8403 19.3176 141.06938 19.41046 141.21112 C 19.50331 141.35288 19.65225 141.57831 19.74512 141.71752 C 19.83797 141.85672 19.98692 142.07808 20.07979 142.2145 C 20.17264 142.35092 20.3216 142.56732 20.41444 142.70084 C 20.5073 142.83437 20.65627 143.04616 20.74911 143.17685 C 20.84196 143.30754 20.99092 143.51509 21.08377 143.64284 C 21.17662 143.77057 21.32559 143.97274 21.41844 144.09755 C 21.51129 144.22238 21.66025 144.4209 21.7531 144.54256 C 21.84595 144.66423 21.9949 144.856 22.08775 144.9745 C 22.1806 145.093 22.32957 145.2811 22.42242 145.3967 C 22.51527 145.5123 22.66423 145.69539 22.75708 145.80765 C 22.84993 145.91992 22.9989 146.09705 23.09175 146.20584 C 23.1846 146.31464 23.33356 146.4864 23.4264 146.59188 C 23.51926 146.69736 23.66823 146.86385 23.76108 146.96607 C 23.85393 147.06829 24.00288 147.22992 24.09573 147.32869 C 24.18858 147.42746 24.33755 147.58277 24.4304 147.67794 C 24.52325 147.77312 24.67221 147.923 24.76506 148.01474 C 24.85791 148.10646 25.00688 148.25084 25.09973 148.33907 C 25.1926 148.42728 25.34154 148.56616 25.43439 148.65062 C 25.52725 148.73509 25.6762 148.86714 25.76904 148.94789 C 25.86191 149.02866 26.01086 149.15557 26.10371 149.23273 C 26.19658 149.30989 26.34552 149.43065 26.43837 149.50415 C 26.53123 149.57765 26.68019 149.6929 26.77304 149.76253 C 26.8659 149.83216 27.01485 149.94017 27.10771 150.006 C 27.20056 150.07183 27.34952 150.17502 27.44238 150.23702 C 27.53523 150.299 27.68417 150.39472 27.77704 150.45282 C 27.86989 150.51093 28.01884 150.6016 28.11171 150.65587 C 28.20456 150.71015 28.3535 150.79376 28.44637 150.84403 C 28.53922 150.89429 28.68817 150.97187 28.78104 151.01819 C 28.87389 151.06453 29.02283 151.13567 29.11569 151.17807 C 29.20854 151.22049 29.3575 151.28557 29.45035 151.32398 C 29.5432 151.3624 29.69217 151.42067 29.78502 151.45499 C 29.87787 151.48932 30.02682 151.54105 30.11967 151.57141 C 30.21252 151.60176 30.3615 151.64742 30.45435 151.67386 C 30.5472 151.70029 30.69615 151.73983 30.789 151.762 C 30.88185 151.78418 31.03082 151.81574 31.12367 151.83374 C 31.21652 151.85173 31.36548 151.8776 31.45833 151.89179 C 31.55118 151.90599 31.70015 151.92601 31.793 151.93618 C 31.88585 151.94632 32.0348 151.9591 32.12766 151.96504 C 32.2205 151.971 32.36946 151.97713 32.46231 151.97902 C 32.55516 151.98091 32.70413 151.98087 32.79698 151.97872 C 32.88983 151.97658 33.03879 151.96993 33.13164 151.96353 C 33.22449 151.95713 33.37346 151.94306 33.46631 151.93251 C 33.55916 151.92198 33.70811 151.902 33.80096 151.88753 C 33.89381 151.87308 34.04279 151.84659 34.13564 151.82826 C 34.2285 151.80992 34.37744 151.77787 34.47029 151.75531 C 34.56316 151.73274 34.71211 151.69246 34.80496 151.66565 C 34.89783 151.63883 35.04677 151.59264 35.13962 151.56198 C 35.23248 151.53134 35.38144 151.47927 35.47429 151.44466 C 35.56715 151.41004 35.7161 151.35123 35.80894 151.31243 C 35.90181 151.27364 36.05075 151.20786 36.14362 151.16501 C 36.23647 151.12218 36.38542 151.05027 36.47829 151.00362 C 36.57114 150.95697 36.72008 150.87934 36.81294 150.82883 C 36.90579 150.7783 37.05475 150.69403 37.14761 150.63947 C 37.24046 150.5849 37.3894 150.494 37.48227 150.4355 C 37.57512 150.377 37.72408 150.28014 37.81694 150.21785 C 37.90979 150.15558 38.05873 150.0527 38.1516 149.98654 C 38.24445 149.92038 38.3934 149.81095 38.48627 149.74094 C 38.57912 149.67093 38.72807 149.55576 38.82092 149.48197 C 38.91377 149.40818 39.06274 149.28643 39.1556 149.209 C 39.24844 149.13158 39.3974 149.00495 39.49025 148.92389 C 39.5831 148.84284 39.73206 148.70969 39.8249 148.6248 C 39.91776 148.5399 40.06673 148.40048 40.15958 148.31201 C 40.25243 148.22354 40.40138 148.079 40.49423 147.98708 C 40.58708 147.89514 40.73605 147.74494 40.8289 147.64937 C 40.92175 147.55382 41.07071 147.39739 41.16356 147.29828 C 41.25641 147.19919 41.40538 147.03752 41.49823 146.93505 C 41.59108 146.83257 41.74004 146.66538 41.83289 146.55965 C 41.92574 146.45392 42.0747 146.2822 42.16756 146.17302 C 42.2604 146.06385 42.40936 145.8853 42.50221 145.7727 C 42.59506 145.66011 42.74403 145.4771 42.83688 145.36144 C 42.92973 145.24576 43.07869 145.05768 43.17154 144.93892 C 43.2644 144.82016 43.41335 144.62752 43.5062 144.50547 C 43.59906 144.38343 43.74802 144.18439 43.84087 144.05927 C 43.93373 143.93413 44.08267 143.73152 44.17552 143.6036 C 44.26839 143.47571 44.41734 143.26824 44.5102 143.13733 C 44.60306 143.00644 44.752 142.79402 44.84485 142.66011 C 44.93771 142.52622 45.08667 142.30893 45.17952 142.17226 C 45.27238 142.03557 45.42133 141.81423 45.51419 141.67498 C 45.60704 141.53572 45.756 141.31052 45.84886 141.16857 C 45.94171 141.0266 46.09065 140.79657 46.18352 140.65183 C 46.27637 140.5071 46.42532 140.27254 46.51819 140.12535 C 46.61104 139.97817 46.75998 139.74053 46.85284 139.59099 C 46.9457 139.44145 47.09464 139.1995 47.1875 139.0475 C 47.28035 138.89551 47.4293 138.64983 47.52217 138.4955 C 47.61502 138.34119 47.76398 138.09185 47.85683 137.9353 C 47.94968 137.77875 48.09865 137.52585 48.1915 137.3672 C 48.28435 137.20854 48.4333 136.95255 48.52615 136.7918 C 48.619 136.63103 48.76797 136.37142 48.86082 136.20848 C 48.95367 136.04557 49.10263 135.78238 49.19548 135.61757 C 49.28833 135.45278 49.4373 135.18709 49.53015 135.02059 C 49.623 134.8541 49.77196 134.58588 49.8648 134.41753 C 49.95766 134.24918 50.10663 133.9773 50.19948 133.80718 C 50.29233 133.63704 50.44128 133.36293 50.53413 133.19133 C 50.62698 133.01973 50.77594 132.74338 50.86879 132.57035 C 50.96164 132.39733 51.11061 132.11878 51.20346 131.94419 C 51.29631 131.76959 51.44527 131.488 51.53812 131.31194 C 51.63097 131.13587 51.77994 130.85234 51.87279 130.67514 C 51.96564 130.49793 52.1146 130.21308 52.20744 130.03467 C 52.30031 129.85628 52.44926 129.56887 52.54211 129.38938 C 52.63498 129.20987 52.78392 128.92144 52.87677 128.74102 C 52.96964 128.5606 53.11859 128.2704 53.21144 128.089 C 53.3043 127.90761 53.45325 127.61598 53.5461 127.43365 C 53.63896 127.25134 53.78792 126.95801 53.88077 126.77498 C 53.97363 126.59195 54.12257 126.29805 54.21542 126.11447 C 54.30829 125.9309 54.45723 125.63603 54.5501 125.45183 C 54.64294 125.26762 54.7919 124.97148 54.88477 124.78676 C 54.97762 124.60204 55.12656 124.30544 55.21942 124.12047 C 55.31227 123.9355 55.46123 123.63889 55.5541 123.45357 C 55.64694 123.26826 55.79588 122.9705 55.88875 122.78485 C 55.9816 122.59921 56.13055 122.30113 56.22342 122.11552 C 56.31627 121.92992 56.46521 121.63263 56.55807 121.44711 C 56.65092 121.26158 56.7999 120.96404 56.89275 120.77838 C 56.9856 120.59274 57.13455 120.29459 57.2274 120.10905 C 57.32025 119.92354 57.46922 119.62643 57.56207 119.44125 C 57.65492 119.25607 57.80388 118.95924 57.89673 118.77435 C 57.98958 118.58948 58.13853 118.29318 58.23138 118.10867 C 58.32423 117.92416 58.4732 117.62856 58.56606 117.44452 C 58.6589 117.26048 58.80786 116.9655 58.90071 116.78218 C 58.99356 116.59886 59.14253 116.3059 59.23538 116.1232 C 59.32823 115.94049 59.47719 115.64734 59.57004 115.46541 C 59.66289 115.28346 59.81186 114.99284 59.90471 114.81189 C 59.99756 114.63092 60.14651 114.34122 60.23936 114.1611 C 60.33221 113.98099 60.48119 113.69272 60.57404 113.51366 C 60.66689 113.3346 60.81584 113.0484 60.90869 112.87047 C 61.00154 112.69255 61.1505 112.40802 61.24335 112.23125 C 61.33621 112.05446 61.48517 111.7716 61.57802 111.59625 C 61.67088 111.4209 61.81982 111.14128 61.91267 110.96735 C 62.00554 110.79343 62.1545 110.51527 62.24734 110.3427 C 62.34021 110.17014 62.48915 109.89455 62.582 109.72354 C 62.67487 109.55254 62.82382 109.27951 62.91667 109.11014 C 63.00954 108.94078 63.15848 108.67041 63.25133 108.50282 C 63.3442 108.33524 63.49315 108.06796 63.58601 107.90219 C 63.67886 107.73642 63.8278 107.4719 63.92067 107.30794 C 64.01352 107.14397 64.16248 106.8824 64.25534 106.72037 C 64.34819 106.55835 64.49713 106.30003 64.59 106.14012 C 64.68285 105.9802 64.83179 105.7256 64.92465 105.56775 C 65.0175 105.40988 65.16646 105.15797 65.25932 105.00237 C 65.35217 104.84676 65.50111 104.59943 65.59398 104.44612 C 65.68683 104.29283 65.8358 104.04858 65.92865 103.89748 C 66.0215 103.74637 66.17046 103.50568 66.2633 103.35701 C 66.35616 103.20836 66.50513 102.97203 66.59798 102.82599 C 66.69083 102.67995 66.83978 102.44795 66.93263 102.3044 C 67.02548 102.16084 67.17445 101.93233 67.2673 101.7913 C 67.36015 101.65027 67.50911 101.42622 67.60196 101.28795 C 67.69481 101.14967 67.84378 100.93 67.93663 100.79462 C 68.02948 100.65924 68.17844 100.44476 68.27129 100.31223 C 68.36414 100.17967 68.51309 99.96906 68.60594 99.83925 C 68.69879 99.70943 68.84776 99.50334 68.94061 99.37662 C 69.03346 99.2499 69.18242 99.04956 69.27527 98.92583 C 69.36812 98.80211 69.51709 98.60553 69.60994 98.48479 C 69.70279 98.36406 69.85175 98.17322 69.9446 98.0556 C 70.03745 97.93797 70.18642 97.7514 70.27927 97.63704 C 70.37213 97.52267 70.52107 97.34227 70.61392 97.23123 C 70.70679 97.12021 70.85574 96.9445 70.9486 96.8367 C 71.04146 96.7289 71.1904 96.55885 71.28325 96.45432 C 71.37611 96.34976 71.52507 96.18422 71.61792 96.08318 C 71.71078 95.98212 71.85973 95.82347 71.95258 95.72601 C 72.04544 95.62856 72.19438 95.47485 72.28723 95.38072 C 72.3801 95.28659 72.52905 95.1382 72.62192 95.04756 C 72.71477 94.95692 72.86371 94.81436 72.95657 94.7275 C 73.04942 94.64061 73.19838 94.5046 73.29124 94.4214 C 73.3841 94.3382 73.53304 94.20752 73.6259 94.12776 C 73.71875 94.04802 73.8677 93.92268 73.96057 93.8466 C 74.05342 93.77054 74.20236 93.65154 74.29523 93.57942 C 74.38808 93.5073 74.53703 93.3951 74.6299 93.32683 C 74.72275 93.25854 74.8717 93.15193 74.96455 93.0873 C 75.0574 93.02266 75.20638 92.92166 75.29922 92.86086 C 75.39207 92.80005 75.54103 92.70572 75.63388 92.649 C 75.72673 92.59229 75.87569 92.5049 75.96854 92.45203 C 76.06139 92.39915 76.21036 92.31699 76.3032 92.26782 C 76.39606 92.21866 76.54501 92.14264 76.63786 92.09761 C 76.73071 92.05258 76.87968 91.9841 76.97253 91.94319 C 77.06538 91.90228 77.21434 91.83992 77.30719 91.80276 C 77.40004 91.76561 77.54901 91.70863 77.64186 91.6754 C 77.73471 91.64217 77.88367 91.59222 77.97652 91.56323 C 78.06937 91.53423 78.21834 91.49109 78.31119 91.46626 C 78.40404 91.44144 78.553 91.40508 78.64584 91.3842 C 78.7387 91.36334 78.88766 91.33276 78.98051 91.31581 C 79.07336 91.29886 79.22232 91.27477 79.31517 91.262 C 79.40804 91.24922 79.55698 91.23235 79.64983 91.22371 C 79.74269 91.21507 79.89165 91.20435 79.9845 91.19969 C 80.07736 91.19502 80.2263 91.19055 80.31915 91.18997 C 80.41202 91.18939 80.56097 91.19179 80.65382 91.19545 C 80.74669 91.19911 80.89563 91.2087 80.98848 91.21642 C 81.08134 91.22412 81.2303 91.23935 81.32315 91.25107 C 81.41602 91.26279 81.56496 91.28516 81.65782 91.30092 C 81.75067 91.31668 81.89963 91.3449 81.9925 91.36475 C 82.08534 91.3846 82.23428 91.42009 82.32715 91.44408 C 82.42 91.46806 82.56895 91.50984 82.66182 91.5377 C 82.75467 91.56557 82.90361 91.61299 82.99648 91.645 C 83.08932 91.677 83.23827 91.73218 83.33113 91.7684 C 83.42398 91.80463 83.57294 91.86609 83.6658 91.90611 C 83.75865 91.94612 83.90761 92.01295 84.00046 92.05687 C 84.0933 92.10077 84.24228 92.17447 84.33513 92.22253 C 84.42798 92.2706 84.57693 92.35136 84.66978 92.4034 C 84.76263 92.45543 84.9116 92.54182 85.00446 92.59761 C 85.0973 92.65341 85.24626 92.74594 85.33911 92.80553 C 85.43196 92.86513 85.58093 92.9635 85.67378 93.02713 C 85.76663 93.09076 85.91559 93.19667 86.00844 93.26422 C 86.10129 93.33177 86.25026 93.44292 86.34311 93.51407 C 86.43596 93.5852 86.58492 93.70215 86.67776 93.777 C 86.77061 93.85185 86.91957 93.97484 87.01242 94.05362 C 87.10527 94.13239 87.25424 94.26233 87.34709 94.3448 C 87.43994 94.42729 87.5889 94.56223 87.68175 94.64816 C 87.7746 94.7341 87.92357 94.87473 88.01642 94.9643 C 88.10927 95.05386 88.25822 95.2005 88.35107 95.29378 C 88.44394 95.38705 88.5929 95.53995 88.68575 95.63664 C 88.77861 95.73334 88.92755 95.89075 89.0204 95.99077 C 89.11327 96.0908 89.26222 96.25409 89.35507 96.35765 C 89.44794 96.46123 89.59688 96.63026 89.68973 96.73729 C 89.7826 96.84433 89.93153 97.01874 90.02438 97.1291 C 90.11725 97.23947 90.2662 97.41933 90.35905 97.53278 C 90.45192 97.64621 90.60086 97.83014 90.69373 97.94678 C 90.78658 98.06343 90.93553 98.25351 91.0284 98.37354 C 91.12125 98.49355 91.27019 98.68883 91.36305 98.81184 C 91.4559 98.93486 91.60486 99.13435 91.69772 99.2602 C 91.79057 99.38605 91.93951 99.58983 92.03238 99.71887 C 92.12523 99.84793 92.27419 100.05833 92.36705 100.19034 C 92.4599 100.32233 92.60884 100.53563 92.7017 100.67029 C 92.79456 100.80495 92.94353 101.02344 93.03638 101.16087 C 93.12923 101.29831 93.27818 101.52058 93.37103 101.6609 C 93.46388 101.80121 93.61284 102.02911 93.70569 102.17216 C 93.79854 102.31522 93.94751 102.54654 94.04036 102.69194 C 94.13321 102.83734 94.28217 103.0723 94.37502 103.22025 C 94.46786 103.36818 94.61684 103.60779 94.70969 103.75826 C 94.80254 103.90872 94.95149 104.15198 95.04434 104.30478 C 95.13719 104.45758 95.28616 104.70448 95.37901 104.85951 C 95.47186 105.01454 95.62082 105.26503 95.71367 105.42215 C 95.80652 105.57928 95.95549 105.83272 96.04834 105.99208 C 96.14119 106.15144 96.29015 106.4092 96.383 106.57083 C 96.47585 106.73247 96.62482 106.99371 96.71767 107.15717 C 96.81052 107.32062 96.95947 107.58376 97.05232 107.74898 C 97.14517 107.91422 97.29413 108.18092 97.38698 108.3481 C 97.47984 108.51527 97.6288 108.78496 97.72165 108.95389 C 97.81451 109.12283 97.96346 109.39514 98.0563 109.56578 C 98.14917 109.7364 98.29813 110.01154 98.39098 110.18373 C 98.48384 110.35593 98.63278 110.63329 98.72563 110.80687 C 98.8185 110.98044 98.96745 111.25989 99.0603 111.43486 C 99.15317 111.60983 99.30211 111.89168 99.39496 112.06801 C 99.48782 112.24434 99.63678 112.52805 99.72964 112.70573 C 99.8225 112.8834 99.97144 113.1698 100.0643 113.3486 C 100.15715 113.5274 100.3061 113.81476 100.39897 113.99454 C 100.49182 114.17432 100.64076 114.46361 100.73363 114.64441 C 100.82648 114.8252 100.97542 115.11589 101.06828 115.29762 C 101.16113 115.47934 101.31009 115.77162 101.40295 115.95418 C 101.4958 116.13673 101.64474 116.43031 101.73761 116.61346 C 101.83046 116.79663 101.97943 117.09055 102.07228 117.27429 C 102.16513 117.45804 102.31409 117.75346 102.40694 117.93785 C 102.49979 118.12224 102.64876 118.41838 102.74161 118.60323 C 102.83446 118.78807 102.98341 119.08495 103.07626 119.27013 C 103.16911 119.45529 103.31808 119.7525 103.41093 119.93793 C 103.50378 120.12337 103.65274 120.4211 103.74559 120.60666 C 103.83844 120.7922 103.98741 121.08977 104.08026 121.27538 C 104.17311 121.46097 104.32207 121.75879 104.41492 121.9444 C 104.50777 122.12999 104.65672 122.42752 104.74957 122.61311 C 104.84242 122.79872 104.9914 123.09665 105.08424 123.28212 C 105.1771 123.4676 105.32605 123.76479 105.4189 123.94994 C 105.51175 124.13507 105.66072 124.43176 105.75357 124.61652 C 105.84642 124.80128 105.99538 125.0973 106.08823 125.2816 C 106.18108 125.46588 106.33005 125.76106 106.4229 125.94485 C 106.51576 126.12865 106.6647 126.42308 106.75755 126.60628 C 106.85042 126.78947 106.99937 127.08282 107.09222 127.26527 C 107.18509 127.44771 107.33403 127.73972 107.42688 127.92122 C 107.51974 128.10274 107.6687 128.39278 107.76155 128.57352 C 107.85442 128.75428 108.00336 129.04415 108.0962 129.22402 C 108.18907 129.40389 108.33801 129.69126 108.43086 129.86994 C 108.52373 130.04862 108.67268 130.3344 108.76555 130.5119 C 108.8584 130.68939 109.00734 130.97309 109.1002 131.1493 C 109.19305 131.32555 109.34201 131.60724 109.43488 131.78217 C 109.52773 131.9571 109.67667 132.23657 109.76953 132.41016 C 109.86238 132.58373 110.01134 132.86125 110.1042 133.03328 C 110.19705 133.2053 110.346 133.47965 110.43886 133.65003 C 110.53171 133.8204 110.68066 134.09249 110.77353 134.26129 C 110.86638 134.43012 111.01534 134.69976 111.10818 134.86679 C 111.20103 135.03383 111.35 135.30016 111.44286 135.46529 C 111.5357 135.63043 111.68466 135.89379 111.77751 136.05712 C 111.87036 136.22045 112.01932 136.48108 112.11217 136.64255 C 112.20502 136.80403 112.35399 137.06169 112.44684 137.22098 C 112.53969 137.38027 112.68864 137.6336 112.7815 137.79062 C 112.87434 137.94762 113.02332 138.19777 113.11617 138.35263 C 113.20901 138.50749 113.35797 138.75408 113.45082 138.90679 C 113.54367 139.05948 113.69264 139.30309 113.78549 139.4533 C 113.87834 139.6035 114.0273 139.84181 114.12015 139.98949 C 114.213 140.13718 114.36197 140.3725 114.45482 140.51778 C 114.54767 140.66306 114.69662 140.89385 114.78947 141.03664 C 114.88232 141.17943 115.0313 141.40694 115.12415 141.547 C 115.217 141.68706 115.36595 141.90892 115.4588 142.04611 C 115.55167 142.18329 115.7006 142.40128 115.79346 142.5358 C 115.88632 142.67032 116.03528 142.88397 116.12813 143.01575 C 116.221 143.14754 116.36993 143.35697 116.46278 143.48567 C 116.55565 143.6144 116.7046 143.81774 116.79745 143.94345 C 116.89032 144.06917 117.03926 144.26894 117.13211 144.39179 C 117.22498 144.51464 117.37393 144.70917 117.46678 144.82889 C 117.55965 144.94863 117.70859 145.13826 117.80145 145.25475 C 117.8943 145.37122 118.04326 145.5552 118.13612 145.66844 C 118.22897 145.78166 118.37791 145.96082 118.47078 146.07088 C 118.56363 146.18094 118.71257 146.355 118.80544 146.46178 C 118.89828 146.56856 119.04724 146.73729 119.1401 146.84053 C 119.23296 146.94376 119.3819 147.10602 119.47476 147.20589 C 119.56761 147.30576 119.71657 147.46373 119.80943 147.5603 C 119.90228 147.65689 120.05124 147.80905 120.14409 147.90196 C 120.23694 147.99486 120.38591 148.14066 120.47876 148.22994 C 120.57161 148.31922 120.72057 148.45969 120.81342 148.54546 C 120.90627 148.63123 121.05524 148.76593 121.14809 148.8482 C 121.24094 148.93048 121.3899 149.06009 121.48274 149.13849 C 121.57559 149.21689 121.72456 149.3388 121.81741 149.41327 C 121.91026 149.48775 122.05922 149.6044 122.15207 149.67528 C 122.24492 149.74617 122.39388 149.85694 122.48672 149.92423 C 122.57957 149.99153 122.72855 150.09706 122.8214 150.1604 C 122.91425 150.22376 123.0632 150.32146 123.15605 150.38079 C 123.2489 150.44013 123.39787 150.5325 123.49072 150.58809 C 123.58357 150.64366 123.73253 150.72975 123.82538 150.7814 C 123.91823 150.83307 124.06718 150.91275 124.16005 150.96044 C 124.25291 151.00814 124.40187 151.0815 124.49472 151.12519 C 124.58759 151.16887 124.73653 151.23554 124.82938 151.27535 C 124.92224 151.31517 125.07118 151.3763 125.16403 151.41214 C 125.2569 151.44799 125.40585 151.50206 125.4987 151.53372 C 125.59157 151.56539 125.74051 151.61284 125.83336 151.64041 C 125.92622 151.66799 126.07518 151.70877 126.16803 151.7325 C 126.2609 151.75624 126.40984 151.79198 126.50269 151.81154 C 126.59555 151.8311 126.7445 151.85817 126.83737 151.87355 C 126.93022 151.88893 127.07916 151.91103 127.17203 151.92249 C 127.26488 151.93395 127.41383 151.94873 127.5067 151.95624 C 127.59955 151.96373 127.74849 151.97325 127.84135 151.9766 C 127.9342 151.97992 128.08316 151.9812 128.17603 151.98024 C 128.26888 151.97928 128.41782 151.97444 128.51068 151.9696 C 128.60353 151.96479 128.75249 151.95413 128.84535 151.94528 C 128.9382 151.93643 129.08716 151.91898 129.18001 151.90578 C 129.27286 151.89258 129.42183 151.86737 129.51468 151.85015 C 129.60753 151.8329 129.75649 151.80257 129.84934 151.78145 C 129.94219 151.76035 130.09116 151.72309 130.184 151.69786 C 130.27686 151.67264 130.42581 151.62908 130.51866 151.59969 C 130.61151 151.5703 130.76047 151.51947 130.85332 151.486 C 130.94617 151.45252 131.09513 151.39566 131.18799 151.35834 C 131.28086 151.32102 131.42981 151.25824 131.52266 151.217 C 131.61551 151.17575 131.76447 151.10648 131.85732 151.06107 C 131.95017 151.01566 132.09914 150.939 132.19199 150.88962 C 132.28484 150.84024 132.43379 150.7582 132.52664 150.70511 C 132.61949 150.65203 132.76845 150.56404 132.8613 150.50695 C 132.95415 150.44985 133.10312 150.35469 133.19597 150.29355 C 133.28882 150.2324 133.43778 150.13105 133.53063 150.0662 C 133.62349 150.00133 133.77245 149.89459 133.8653 149.82605 C 133.95816 149.75753 134.1071 149.6447 134.19995 149.57224 C 134.29282 149.49979 134.44178 149.38018 134.53462 149.30384 C 134.62749 149.22751 134.77643 149.10202 134.86928 149.02207 C 134.96215 148.94213 135.1111 148.81099 135.20395 148.72753 C 135.29682 148.64408 135.44576 148.50778 135.5386 148.42053 C 135.63147 148.33327 135.78043 148.18955 135.87329 148.09862 C 135.96614 148.0077 136.11508 147.85953 136.20795 147.76519 C 136.3008 147.67084 136.44976 147.51645 136.54262 147.41866 C 136.63547 147.32086 136.78441 147.16155 136.87728 147.06029 C 136.97013 146.95902 137.11908 146.7936 137.21195 146.68885 C 137.3048 146.58408 137.45374 146.41324 137.5466 146.30525 C 137.63945 146.19725 137.7884 146.02164 137.88127 145.91039 C 137.97412 145.79915 138.12308 145.61809 138.21593 145.50339 C 138.30878 145.38869 138.45775 145.20153 138.5506 145.08362 C 138.64345 144.96572 138.7924 144.77439 138.88526 144.6535 C 138.9781 144.53264 139.12708 144.3363 139.21993 144.21245 C 139.31278 144.0886 139.46173 143.88771 139.55458 143.76078 C 139.64743 143.63384 139.7964 143.42757 139.88925 143.29752 C 139.9821 143.16747 140.13106 142.95618 140.2239 142.82334 C 140.31676 142.6905 140.46572 142.47571 140.55857 142.34004 C 140.65142 142.20438 140.80039 141.98398 140.89324 141.84549 C 140.98609 141.707 141.13504 141.48293 141.22789 141.34181 C 141.32074 141.20072 141.4697 140.9721 141.56256 140.82843 C 141.65543 140.68476 141.80438 140.45255 141.89723 140.30622 C 141.99008 140.15988 142.13904 139.92258 142.23189 139.77367 C 142.32474 139.62477 142.47371 139.38411 142.56656 139.23293 C 142.65943 139.08174 142.80837 138.83739 142.90122 138.68396 C 142.99408 138.53055 143.14302 138.28284 143.23587 138.1271 C 143.32874 137.97136 143.47769 137.71945 143.57054 137.56143 C 143.6634 137.40341 143.81235 137.1482 143.9052 136.98815 C 143.99806 136.82811 144.147 136.57006 144.23987 136.4079 C 144.33275 136.24573 144.48169 135.98355 144.57454 135.81941 C 144.6674 135.65528 144.81635 135.39086 144.90921 135.22486 C 145.00206 135.05887 145.151 134.79079 145.24387 134.62302 C 145.33672 134.45525 145.48567 134.1851 145.57854 134.01569 C 145.67139 133.84629 145.82033 133.57317 145.9132 133.402 C 146.00605 133.23082 146.155 132.95459 146.24787 132.7819 C 146.34072 132.6092 146.48966 132.33127 146.58252 132.15727 C 146.67537 131.98326 146.82433 131.70316 146.91719 131.52776 C 147.01004 131.35236 147.159 131.0699 147.25185 130.89307 C 147.3447 130.71625 147.49367 130.43128 147.58652 130.25324 C 147.67937 130.0752 147.82833 129.78885 147.92118 129.60974 C 148.01403 129.43062 148.163 129.14246 148.25585 128.9623 C 148.3487 128.78214 148.49765 128.49234 148.5905 128.31122 C 148.68335 128.13008 148.83232 127.83876 148.92517 127.65678 C 149.01802 127.4748 149.16698 127.18237 149.25983 126.9996 C 149.35268 126.81683 149.50165 126.52281 149.5945 126.33939 C 149.68735 126.15598 149.8363 125.86162 149.92916 125.67767 C 150.022 125.49371 150.17098 125.19806 150.26383 125.0135 C 150.35668 124.82895 150.50563 124.53249 150.59848 124.34752 C 150.69133 124.16257 150.8403 123.86559 150.93315 123.68033 C 151.026 123.49506 151.17496 123.19765 151.2678 123.0122 C 151.36066 122.82678 151.50963 122.5294 151.60248 122.3438 C 151.69535 122.1582 151.84429 121.86012 151.93714 121.67447 C 152.03 121.48882 152.17896 121.19127 152.2718 121.00575 C 152.36467 120.82022 152.51361 120.52286 152.60646 120.33733 C 152.69933 120.15181 152.84827 119.8541 152.94112 119.66861 C 153.03398 119.48314 153.18292 119.18552 153.27579 119.0005 C 153.36867 118.81549 153.51761 118.51968 153.61046 118.33513 C 153.70333 118.15057 153.85227 117.85454 153.94513 117.67036 C 154.03798 117.48619 154.18694 117.1913 154.2798 117.00772 C 154.37265 116.82414 154.52159 116.53015 154.61446 116.34721 C 154.7073 116.16426 154.85626 115.8713 154.94913 115.68913 C 155.04198 115.50694 155.19092 115.21538 155.28379 115.03407 C 155.37664 114.85278 155.52558 114.56285 155.61844 114.38239 C 155.71129 114.20192 155.86023 113.91292 155.95311 113.73343 C 156.04598 113.55394 156.19493 113.26703 156.28778 113.08873 C 156.38063 112.91042 156.52959 112.6254 156.62244 112.44827 C 156.71529 112.27113 156.86426 111.98792 156.9571 111.81206 C 157.04996 111.6362 157.19892 111.35512 157.29177 111.18074 C 157.38462 111.00636 157.53357 110.72821 157.62642 110.55518 C 157.71927 110.38216 157.86824 110.10521 157.96109 109.93356 C 158.05394 109.76193 158.2029 109.48802 158.29575 109.31805 C 158.3886 109.1481 158.53755 108.87674 158.63042 108.70859 C 158.72328 108.54045 158.87224 108.27257 158.96509 108.10616 C 159.05794 107.93974 159.2069 107.67384 159.29975 107.50916 C 159.3926 107.34448 159.54155 107.08183 159.6344 106.91917 C 159.72725 106.75652 159.87622 106.49736 159.96907 106.33676 C 160.06192 106.17618 160.21088 105.92024 160.30373 105.76167 C 160.39658 105.6031 160.54555 105.35033 160.6384 105.19386 C 160.73126 105.03741 160.8802 104.78809 160.97306 104.63397 C 161.06592 104.47987 161.21488 104.23492 161.30773 104.08319 C 161.40059 103.93146 161.54953 103.68977 161.64238 103.5403 C 161.73525 103.39084 161.8842 103.15295 161.97705 103.00594 C 162.06992 102.85892 162.21886 102.62517 162.3117 102.4807 C 162.40457 102.33621 162.55353 102.10634 162.64638 101.96455 C 162.73925 101.82277 162.88819 101.59795 162.98105 101.45877 C 163.0739 101.3196 163.22286 101.09795 163.31572 100.96149 C 163.40857 100.82501 163.55751 100.60866 163.65038 100.47514 C 163.74323 100.34163 163.89218 100.12979 163.98505 99.99915 C 164.0779 99.8685 164.22684 99.66124 164.3197 99.53346 C 164.41255 99.40567 164.56151 99.20308 164.65438 99.07813 C 164.74723 98.95317 164.89617 98.75456 164.98903 98.63281 C 165.08188 98.51106 165.23084 98.31912 165.32369 98.20058 C 165.41654 98.08203 165.56549 97.89388 165.65836 97.77837 C 165.75122 97.66287 165.90018 97.48029 165.99303 97.36803 C 166.08588 97.25575 166.23484 97.07813 166.32769 96.96924 C 166.42053 96.86034 166.5695 96.68875 166.66236 96.58319 C 166.7552 96.47763 166.90416 96.31071 166.99701 96.2084 C 167.08986 96.1061 167.23883 95.94455 167.33168 95.84578 C 167.42453 95.74701 167.57349 95.5917 167.66634 95.49652 C 167.75919 95.40135 167.90814 95.25145 168.00099 95.15973 C 168.09384 95.068 168.24282 94.92368 168.33567 94.8354 C 168.42852 94.74715 168.57747 94.60814 168.67032 94.52354 C 168.76317 94.43893 168.91213 94.30641 169.00499 94.22566 C 169.09786 94.1449 169.24681 94.0186 169.33966 93.94144 C 169.43251 93.86427 169.58147 93.74303 169.67432 93.6694 C 169.76718 93.59578 169.91613 93.48047 170.00897 93.41072 C 170.10184 93.34097 170.2508 93.23239 170.34365 93.16664 C 170.43651 93.10089 170.58545 92.99887 170.6783 92.93684 C 170.77117 92.87482 170.92012 92.77774 171.01297 92.7195 C 171.10584 92.66127 171.25478 92.57126 171.34763 92.51707 C 171.44049 92.46289 171.58945 92.37918 171.6823 92.32892 C 171.77516 92.27866 171.9241 92.20117 172.01697 92.15475 C 172.10982 92.10832 172.25878 92.0368 172.35164 91.99425 C 172.44449 91.95169 172.59343 91.88646 172.6863 91.84805 C 172.77915 91.80963 172.9281 91.75162 173.02097 91.71735 C 173.11382 91.68306 173.26276 91.63136 173.35562 91.60092 C 173.44847 91.5705 173.59743 91.52441 173.69029 91.4979 C 173.78314 91.47136 173.93209 91.43199 174.02495 91.40973 C 174.1178 91.38748 174.26677 91.3555 174.35962 91.33739 C 174.45247 91.31926 174.60143 91.29323 174.69428 91.27902 C 174.78713 91.26483 174.9361 91.24507 175.02895 91.23495 C 175.1218 91.22484 175.27075 91.21205 175.3636 91.20607 C 175.45645 91.2001 175.60541 91.19373 175.69826 91.1918 C 175.7911 91.18987 175.94007 91.18996 176.03293 91.1921 C 176.1258 91.19424 176.27475 91.20096 176.3676 91.20729 C 176.46045 91.21361 176.6094 91.22723 176.70226 91.23769 C 176.7951 91.24815 176.94408 91.26826 177.03693 91.28267 C 177.12978 91.29709 177.27873 91.32333 177.37158 91.34164 C 177.46443 91.35994 177.61339 91.392 177.70624 91.4146 C 177.79909 91.4372 177.94806 91.47784 178.04091 91.50458 C 178.13376 91.5313 178.28272 91.57678 178.37557 91.60732 C 178.46842 91.63783 178.61737 91.69003 178.71024 91.72464 C 178.8031 91.75926 178.95206 91.81807 179.0449 91.85687 C 179.13777 91.89566 179.28672 91.96156 179.37957 92.00429 C 179.47243 92.047 179.62139 92.1182 179.71424 92.16478 C 179.8071 92.21138 179.95604 92.28957 180.04889 92.34016 C 180.14176 92.39078 180.2907 92.475 180.38355 92.52954 C 180.47641 92.58408 180.62537 92.67477 180.71822 92.73318 C 180.81108 92.7916 180.96002 92.88824 181.05289 92.95053 C 181.14574 93.01282 181.2947 93.11606 181.38756 93.18214 C 181.48041 93.24823 181.62935 93.35692 181.72222 93.42683 C 181.81507 93.49675 181.96402 93.61237 182.05689 93.68613 C 182.14974 93.75989 182.29868 93.88109 182.39154 93.95847 C 182.48439 94.03584 182.63335 94.16278 182.72621 94.24388 C 182.81906 94.32498 182.968 94.45816 183.06087 94.543 C 183.15372 94.62784 183.30269 94.76698 183.39554 94.85545 C 183.48839 94.94394 183.63735 95.0888 183.7302 95.18071 C 183.82305 95.2726 183.972 95.42233 184.06485 95.5178 C 184.1577 95.61328 184.30667 95.76978 184.39952 95.86888 C 184.49237 95.96799 184.64133 96.12973 184.73418 96.23212 C 184.82703 96.3345 184.976 96.50125 185.06885 96.60689 C 185.1617 96.71252 185.31066 96.8844 185.4035 96.99355 C 185.49636 97.10268 185.64533 97.2809 185.73818 97.39355 C 185.83103 97.5062 185.97998 97.68976 186.07283 97.80544 C 186.16568 97.9211 186.31465 98.1087 186.4075 98.22733 C 186.50035 98.34596 186.6493 98.53848 186.74216 98.66048 C 186.835 98.78247 186.98398 98.98157 187.07683 99.10669 C 187.16968 99.23181 187.31864 99.43448 187.41149 99.56235 C 187.50434 99.6902 187.65329 99.89745 187.74614 100.0283 C 187.839 100.15916 187.98796 100.37167 188.08081 100.50554 C 188.17368 100.63939 188.32262 100.85646 188.41547 100.99309 C 188.50833 101.12973 188.65729 101.35112 188.75014 101.49037 C 188.843 101.62962 188.99195 101.85483 189.0848 101.99678 C 189.17766 102.13875 189.32662 102.36887 189.41947 102.51352 C 189.51233 102.65816 189.66127 102.89215 189.75412 103.03938 C 189.84699 103.18661 189.99594 103.42511 190.0888 103.57466 C 190.18166 103.7242 190.3306 103.96529 190.42346 104.11723 C 190.51631 104.26918 190.66526 104.51544 190.75812 104.66985 C 190.85097 104.82423 190.99993 105.0736 191.09279 105.23004 C 191.18564 105.3865 191.33458 105.63896 191.42745 105.79753 C 191.5203 105.95612 191.66925 106.2121 191.76212 106.37296 C 191.85497 106.5338 192.0039 106.79393 192.09677 106.95685 C 192.18962 107.11978 192.3386 107.38248 192.43144 107.54716 C 192.52429 107.71185 192.67325 107.97736 192.7661 108.14384 C 192.85895 108.31033 193.00792 108.57881 193.10077 108.74721 C 193.19362 108.9156 193.34258 109.18756 193.43543 109.35757 C 193.52828 109.52757 193.67725 109.80093 193.7701 109.97249 C 193.86295 110.14404 194.0119 110.42097 194.10475 110.5941 C 194.1976 110.76721 194.34656 111.04565 194.4394 111.22025 C 194.53226 111.39485 194.68123 111.67651 194.77408 111.8525 C 194.86693 112.02849 195.01589 112.31157 195.10874 112.4887 C 195.20159 112.6658 195.35056 112.95076 195.4434 113.12915 C 195.53626 113.30754 195.68521 113.59492 195.77806 113.77446 C 195.87091 113.954 196.01988 114.24263 196.11273 114.42313 C 196.20558 114.60362 196.35454 114.89401 196.44739 115.07542 C 196.54024 115.25685 196.68921 115.54858 196.78206 115.73077 C 196.87491 115.91295 197.02387 116.2056 197.11672 116.38855 C 197.20958 116.57149 197.35854 116.86574 197.45139 117.04936 C 197.54425 117.23299 197.69319 117.52783 197.78604 117.71199 C 197.8789 117.89616 198.02785 118.19214 198.1207 118.37677 C 198.21356 118.56139 198.36252 118.85771 198.45537 119.04277 C 198.54824 119.22781 198.69718 119.52516 198.79003 119.71056 C 198.88289 119.89595 199.03185 120.19342 199.12471 120.37897 C 199.21756 120.56453 199.3665 120.86241 199.45937 121.048 C 199.55222 121.23361 199.70117 121.53116 199.79404 121.71672 C 199.88689 121.90227 200.03583 122.19978 200.1287 122.38544 C 200.22154 122.57108 200.3705 122.86916 200.46337 123.05476 C 200.55622 123.24036 200.70516 123.53801 200.79802 123.72318 C 200.89087 123.90836 201.03983 124.20467 201.13269 124.38947 C 201.22554 124.57426 201.3745 124.87056 201.46735 125.05515 C 201.5602 125.23973 201.70915 125.53587 201.802 125.71991 C 201.89485 125.90395 202.04383 126.1984 202.13668 126.38164 C 202.22953 126.56488 202.37848 126.85794 202.47133 127.04065 C 202.56418 127.22334 202.71315 127.5164 202.806 127.69843 C 202.89885 127.88043 203.0478 128.17159 203.14066 128.35254 C 203.2335 128.53351 203.38248 128.82268 203.47533 129.00272 C 203.56818 129.18276 203.71714 129.4711 203.80998 129.65018 C 203.90283 129.82924 204.0518 130.11534 204.14466 130.29335 C 204.2375 130.47138 204.38646 130.75643 204.47931 130.9332 C 204.57216 131.10999 204.72113 131.39226 204.81398 131.56757 C 204.90683 131.74288 205.05579 132.02286 205.14864 132.19678 C 205.24149 132.3707 205.39044 132.64849 205.48329 132.8211 C 205.57614 132.99373 205.72512 133.26984 205.81797 133.44089 C 205.91082 133.61194 206.05977 133.88468 206.15262 134.05399 C 206.24549 134.22332 206.39444 134.49358 206.48729 134.6613 C 206.58016 134.82903 206.7291 135.09699 206.82195 135.26285 C 206.91481 135.42871 207.06377 135.69284 207.15662 135.85681 C 207.24948 136.02077 207.39842 136.28264 207.49127 136.44467 C 207.58414 136.60669 207.7331 136.86476 207.82595 137.02465 C 207.91881 137.18451 208.06775 137.43906 208.16062 137.59699 C 208.25347 137.75493 208.40242 138.00733 208.49529 138.16298 C 208.58814 138.31864 208.73708 138.56562 208.82994 138.71892 C 208.92279 138.87221 209.07173 139.11676 209.1646 139.26787 C 209.25745 139.41898 209.4064 139.65941 209.49927 139.80803 C 209.59212 139.95664 209.74106 140.19298 209.83393 140.33905 C 209.92678 140.48513 210.07573 140.71735 210.1686 140.86095 C 210.26145 141.00455 210.4104 141.23307 210.50325 141.37404 C 210.5961 141.51503 210.74507 141.73886 210.83792 141.87709 C 210.93077 142.01532 211.07973 142.23496 211.17258 142.37042 C 211.26543 142.50589 211.4144 142.72074 211.50725 142.85344 C 211.6001 142.98615 211.74906 143.19718 211.8419 143.32701 C 211.93476 143.45685 212.08373 143.66262 212.17658 143.78934 C 212.26943 143.91606 212.41838 144.11666 212.51123 144.24042 C 212.60408 144.3642 212.75304 144.56078 212.84589 144.68146 C 212.93874 144.80216 213.0877 144.99269 213.18056 145.11035 C 213.2734 145.22801 213.42237 145.41504 213.51522 145.52954 C 213.60807 145.64405 213.75704 145.82454 213.84989 145.93563 C 213.94274 146.0467 214.09169 146.22234 214.18454 146.33017 C 214.27739 146.43799 214.42636 146.60836 214.51921 146.71286 C 214.61206 146.81735 214.76102 146.98232 214.85387 147.08339 C 214.94673 147.18447 215.09569 147.34392 215.18854 147.44145 C 215.2814 147.53899 215.43035 147.69229 215.5232 147.78646 C 215.61606 147.88062 215.76502 148.02954 215.85787 148.12021 C 215.95073 148.21088 216.09967 148.35315 216.19252 148.43999 C 216.28539 148.52683 216.43433 148.66278 216.52718 148.74608 C 216.62004 148.82936 216.769 148.96056 216.86185 149.04032 C 216.95471 149.12006 217.10366 149.24488 217.19652 149.32086 C 217.28937 149.39685 217.43833 149.51586 217.53119 149.58806 C 217.62404 149.66025 217.77298 149.77286 217.86585 149.84127 C 217.9587 149.90966 218.10765 150.01636 218.20052 150.08109 C 218.29337 150.14582 218.4423 150.24698 218.53517 150.30783 C 218.62802 150.36869 218.77698 150.46292 218.86985 150.51969 C 218.96269 150.57646 219.11164 150.66405 219.2045 150.71697 C 219.29735 150.76988 219.4463 150.85196 219.53916 150.90117 C 219.632 150.95038 219.78098 151.02661 219.87383 151.07169 C 219.96668 151.11676 220.11563 151.18517 220.20848 151.2261 C 220.30133 151.26705 220.4503 151.32968 220.54315 151.36684 C 220.636 151.40399 220.78496 151.46063 220.8778 151.4939 C 220.97066 151.52716 221.11963 151.57765 221.21248 151.60666 C 221.30533 151.63567 221.45429 151.67816 221.54714 151.70304 C 221.63999 151.7279 221.78896 151.76505 221.8818 151.786 C 221.97466 151.80695 222.12361 151.8371 222.21646 151.8541 C 222.30931 151.87108 222.45829 151.89568 222.55113 151.9085 C 222.64398 151.92131 222.79294 151.9379 222.88579 151.9465 C 222.97864 151.95511 223.1276 151.96576 223.22045 151.97052 C 223.3133 151.97528 223.46227 151.98018 223.55512 151.98085 C 223.64797 151.9815 223.79692 151.97904 223.88977 151.97537 C 223.98264 151.97171 224.13159 151.96212 224.22444 151.9544 C 224.3173 151.9467 224.46625 151.93134 224.5591 151.91976 C 224.65196 151.90816 224.80092 151.88654 224.89377 151.87082 C 224.98664 151.85509 225.13558 151.82631 225.22843 151.80637 C 225.32129 151.78643 225.47025 151.75093 225.5631 151.72704 C 225.65596 151.70314 225.8049 151.66173 225.89775 151.63404 C 225.99062 151.60633 226.13957 151.55927 226.23242 151.52735 C 226.32529 151.4954 226.47423 151.44016 226.5671 151.40393 C 226.65995 151.3677 226.80889 151.30625 226.90175 151.26624 C 226.9946 151.22621 227.14356 151.15933 227.23642 151.11548 C 227.32927 151.07161 227.47821 150.99805 227.57108 150.9501 C 227.66393 150.90216 227.81288 150.82189 227.90575 150.76985 C 227.9986 150.71782 228.14754 150.63082 228.2404 150.57503 C 228.33325 150.51924 228.48221 150.42726 228.57508 150.36772 C 228.66793 150.30817 228.81688 150.20941 228.90973 150.14583 C 229.00258 150.08225 229.15155 149.97679 229.2444 149.90933 C 229.33725 149.84186 229.4862 149.73064 229.57906 149.65949 C 229.6719 149.58835 229.82088 149.4714 229.91373 149.39656 C 230.00658 149.3217 230.15554 149.19863 230.24839 149.11994 C 230.34123 149.04126 230.49019 148.91179 230.58304 148.82935 C 230.67589 148.74692 230.82486 148.6116 230.91771 148.5257 C 231.01056 148.43979 231.15952 148.29958 231.25237 148.21018 C 231.34522 148.12078 231.49419 147.97458 231.58704 147.8813 C 231.67989 147.78801 231.82884 147.6346 231.92169 147.53781 C 232.01454 147.44101 232.16352 147.28363 232.25637 147.18369 C 232.34922 147.08376 232.49817 146.92092 232.59102 146.81742 C 232.68387 146.71393 232.83284 146.5448 232.92569 146.43776 C 233.01854 146.33072 233.1675 146.15624 233.26035 146.04596 C 233.35321 145.93569 233.50217 145.75632 233.59502 145.64292 C 233.68788 145.52951 233.83683 145.34534 233.92967 145.22859 C 234.02254 145.11186 234.17148 144.92154 234.26433 144.80153 C 234.3572 144.6815 234.50615 144.4865 234.599 144.36353 C 234.69187 144.24056 234.8408 144.04097 234.93366 143.91518 C 235.02652 143.78939 235.17548 143.58577 235.26833 143.4568 C 235.36119 143.32785 235.51013 143.1176 235.603 142.98566 C 235.69585 142.8537 235.8448 142.64043 235.93767 142.50569 C 236.03052 142.37096 236.17946 142.15198 236.27233 142.01448 C 236.36518 141.877 236.51413 141.65496 236.607 141.51477 C 236.69985 141.37459 236.84879 141.14708 236.94165 141.00412 C 237.0345 140.86116 237.18346 140.62967 237.27632 140.48433 C 237.36917 140.339 237.51811 140.1045 237.61098 139.95665 C 237.70383 139.8088 237.85279 139.56916 237.94564 139.41864 C 238.03849 139.26813 238.18746 139.02465 238.2803 138.87181 C 238.37316 138.719 238.52211 138.47206 238.61496 138.31708 C 238.70781 138.1621 238.85678 137.91184 238.94963 137.75475 C 239.04248 137.59764 239.19144 137.34418 239.28429 137.18482 C 239.37714 137.02545 239.52611 136.76767 239.61896 136.60607 C 239.7118 136.44446 239.86077 136.18346 239.95362 136.02004 C 240.04647 135.85662 240.19544 135.59354 240.28829 135.42823 C 240.38114 135.2629 240.53009 134.99567 240.62294 134.82849 C 240.71579 134.66132 240.86476 134.39221 240.95761 134.22332 C 241.05046 134.0544 241.19942 133.7817 241.29227 133.61112 C 241.38512 133.44052 241.53408 133.16593 241.62693 132.99378 C 241.71977 132.82163 241.86875 132.54396 241.9616 132.37033 C 242.05445 132.19672 242.2034 131.91732 242.29625 131.74234 C 242.38912 131.56737 242.53807 131.28553 242.63092 131.10919 C 242.72379 130.93286 242.87273 130.64907 242.96558 130.47147 C 243.05844 130.29389 243.2074 130.00801 243.30025 129.82921 C 243.39311 129.6504 243.54206 129.36254 243.6349 129.18267 C 243.72777 129.00279 243.87673 128.71355 243.96958 128.53279 C 244.06244 128.35205 244.21138 128.06153 244.30423 127.87988 C 244.3971 127.69826 244.54605 127.40616 244.63892 127.22363 C 244.73177 127.0411 244.8807 126.74748 244.97357 126.56432 C 245.06642 126.38116 245.21537 126.0873 245.30823 125.9035 C 245.40108 125.71971 245.55004 125.42407 245.6429 125.23965 C 245.73575 125.05524 245.88469 124.75908 245.97756 124.57428 C 246.0704 124.38948 246.21936 124.09283 246.31223 123.90768 C 246.40508 123.72253 246.55402 123.42535 246.64688 123.23988 C 246.73973 123.0544 246.8887 122.75645 246.98155 122.57085 C 247.0744 122.38525 247.22336 122.08769 247.31621 121.90213 C 247.40906 121.71658 247.55803 121.41898 247.65088 121.23341 C 247.74373 121.04785 247.89269 120.7503 247.98554 120.56471 C 248.07839 120.3791 248.22734 120.0811 248.32019 119.89568 C 248.41304 119.71024 248.56201 119.41331 248.65486 119.22816 C 248.74771 119.04301 248.89667 118.74611 248.98952 118.56126 C 249.08237 118.37643 249.23134 118.08023 249.32419 117.89589 C 249.41704 117.71156 249.566 117.4164 249.65885 117.23265 C 249.7517 117.0489 249.90067 116.75468 249.99352 116.57153 C 250.08637 116.38838 250.23532 116.09502 250.32817 115.91254 C 250.42102 115.73006 250.56999 115.43788 250.66284 115.25629 C 250.75569 115.07468 250.90465 114.78436 250.9975 114.60367 C 251.09035 114.42296 251.23932 114.13358 251.33217 113.9538 C 251.42504 113.77402 251.57398 113.48665 251.66683 113.30788 C 251.75969 113.1291 251.90863 112.84283 252.00148 112.66528 C 252.09435 112.48775 252.2433 112.20438 252.33615 112.02818 C 252.42902 111.852 252.57796 111.57031 252.6708 111.39532 C 252.76367 111.22035 252.91263 110.94063 253.00548 110.76704 C 253.09835 110.59348 253.24729 110.31625 253.34014 110.14423 C 253.433 109.9722 253.58196 109.69763 253.67482 109.52718 C 253.76767 109.35672 253.91661 109.08446 254.00948 108.9156 C 254.10233 108.74673 254.25128 108.47711 254.34415 108.3101 C 254.437 108.1431 254.58594 107.87704 254.6788 107.71191 C 254.77165 107.54677 254.92061 107.28317 255.01348 107.1198 C 255.10633 106.95642 255.25527 106.69582 255.34813 106.53435 C 255.44098 106.37288 255.58992 106.1152 255.68279 105.95592 C 255.77564 105.79663 255.9246 105.54329 256.01747 105.38628 C 256.1103 105.22928 256.25926 104.97914 256.3521 104.82425 C 256.44496 104.66936 256.59394 104.42253 256.68678 104.26984 C 256.77964 104.11713 256.9286 103.8739 257.02146 103.72359 C 257.1143 103.57329 257.26329 103.33418 257.3561 103.1865 C 257.44898 103.0388 257.59794 102.80444 257.69078 102.65912 C 257.78364 102.5138 257.9326 102.28186 258.02546 102.13902 C 258.1183 101.99619 258.26725 101.76952 258.36009 101.6296 C 258.45295 101.48967 258.6019 101.26784 258.69477 101.13048 C 258.7876 100.99313 258.93659 100.7742 259.02943 100.63959 C 259.12229 100.50497 259.2712 100.29202 259.36408 100.16023 C 259.4569 100.02844 259.6059 99.8185 259.69877 99.6897 C 259.7916 99.56091 259.94056 99.35765 260.0334 99.23192 C 260.12626 99.1062 260.2752 98.90643 260.36808 98.78358 C 260.46095 98.66074 260.6099 98.46617 260.70274 98.34648 C 260.7956 98.2268 260.94456 98.03746 261.0374 97.92094 C 261.13026 97.80441 261.2792 97.61995 261.37208 97.50664 C 261.4649 97.39333 261.6139 97.21434 261.70674 97.10419 C 261.7996 96.99403 261.94853 96.8195 262.04139 96.71268 C 262.13426 96.60587 262.2832 96.43748 262.37605 96.33424 C 262.46894 96.231 262.61787 96.06848 262.71073 95.96858 C 262.80357 95.86867 262.9525 95.71082 263.04539 95.61415 C 263.13825 95.5175 263.2872 95.36484 263.38005 95.27188 C 263.4729 95.17894 263.62184 95.03346 263.7147 94.94423 C 263.80757 94.85498 263.9565 94.71448 264.04939 94.62871 C 264.14225 94.54294 264.29118 94.40828 264.38404 94.32596 C 264.47688 94.24364 264.62586 94.11382 264.7187 94.03537 C 264.81156 93.95692 264.9605 93.83513 265.05339 93.76057 C 265.1462 93.68604 265.29518 93.56897 265.38804 93.49797 C 265.48088 93.42696 265.62986 93.31596 265.7227 93.24872 C 265.81556 93.18146 265.9645 93.07652 266.05738 93.01314 C 266.1502 92.94977 266.29917 92.8513 266.392 92.79185 C 266.48487 92.73239 266.63383 92.64005 266.72669 92.58455 C 266.81953 92.52907 266.96849 92.44354 267.06135 92.39185 C 267.15419 92.34013 267.30317 92.25967 267.396 92.2119 C 267.48887 92.16411 267.63783 92.09116 267.73069 92.04744 C 267.82353 92.00372 267.97248 91.93657 268.0653 91.89668 C 268.15818 91.8568 268.30714 91.79578 268.4 91.75989 C 268.49284 91.72401 268.6418 91.66963 268.73466 91.638 C 268.8275 91.60638 268.97648 91.55957 269.0693 91.53192 C 269.16218 91.50427 269.31114 91.46248 269.404 91.43861 C 269.49684 91.41475 269.6458 91.37946 269.73866 91.35988 C 269.8315 91.34032 269.98045 91.31296 270.0733 91.29758 C 270.16618 91.28218 270.31513 91.26045 270.40797 91.24895 C 270.50083 91.23743 270.64979 91.22217 270.7426 91.21458 C 270.8355 91.207 270.98445 91.19756 271.0773 91.19423 C 271.17015 91.1909 271.3191 91.18962 271.41197 91.19058 C 271.50483 91.19154 271.65376 91.19637 271.74665 91.2012 C 271.83949 91.20604 271.98844 91.21672 272.0813 91.22552 C 272.17417 91.23433 272.3231 91.25159 272.41596 91.26474 C 272.5088 91.27788 272.65776 91.30312 272.75065 91.32036 C 272.84349 91.3376 272.99244 91.36797 273.08528 91.38905 C 273.17814 91.41014 273.3271 91.44722 273.41996 91.47235 C 273.5128 91.49748 273.66175 91.54091 273.7546 91.57022 C 273.84748 91.59953 273.9964 91.6502 274.08927 91.68361 C 274.1821 91.71701 274.3311 91.77373 274.42393 91.81096 C 274.51679 91.84819 274.66575 91.9108 274.75859 91.952 C 274.85145 91.9932 275.0004 92.06253 275.09327 92.10794 C 275.1861 92.15335 275.33509 92.22995 275.42793 92.27937 C 275.52079 92.3288 275.66975 92.41115 275.7626 92.46419 C 275.85545 92.51723 276.0044 92.60481 276.09724 92.66176 C 276.1901 92.71869 276.33909 92.81343 276.43193 92.87453 C 276.52479 92.93562 276.6737 93.03726 276.76658 93.1022 C 276.8594 93.16714 277.0084 93.27408 277.10124 93.34264 C 277.1941 93.4112 277.34306 93.52408 277.4359 93.59645 C 277.52876 93.66881 277.6777 93.78804 277.77055 93.86424 C 277.8634 93.94044 278.01237 94.0658 278.10523 94.1457 C 278.19807 94.22563 278.34703 94.35683 278.43989 94.44025 C 278.53276 94.52367 278.6817 94.65982 278.77455 94.74695 C 278.86744 94.83408 279.01637 94.97736 279.1092 95.06824 C 279.20207 95.15912 279.35105 95.3077 279.44389 95.40198 C 279.53675 95.49628 279.68568 95.65019 279.77854 95.74791 C 279.8714 95.84563 280.02037 96.00499 280.1132 96.10628 C 280.2061 96.20757 280.355 96.37328 280.44786 96.47803 C 280.54075 96.58278 280.68968 96.75334 280.78254 96.86131 C 280.87538 96.96928 281.02436 97.14488 281.1172 97.25616 C 281.21006 97.36746 281.359 97.54886 281.45188 97.66348 C 281.5447 97.77809 281.69367 97.96451 281.78654 98.08234 C 281.8794 98.20016 282.02833 98.39185 282.1212 98.51276 C 282.21406 98.63365 282.36299 98.82996 282.45588 98.95381 C 282.5487 99.07765 282.69767 99.27855 282.7905 99.40549 C 282.88337 99.53242 283.03233 99.73875 283.12519 99.86873 C 283.21803 99.99872 283.367 100.2096 283.45985 100.3423 C 283.5527 100.47502 283.70167 100.68964 283.79454 100.8253 C 283.88737 100.96097 284.03633 101.18163 284.12919 101.32016 C 284.22203 101.4587 284.37098 101.6828 284.4638 101.82384 C 284.55668 101.96486 284.70564 102.19293 284.7985 102.33661 C 284.89134 102.48029 285.0403 102.71315 285.13316 102.85944 C 285.226 103.00572 285.37498 103.24228 285.46784 103.39107 C 285.56068 103.53984 285.70964 103.78058 285.80247 103.93181 C 285.89533 104.08304 286.0443 104.32765 286.13716 104.48108 C 286.23 104.63449 286.37895 104.88194 286.4718 105.03764 C 286.56465 105.19333 286.71363 105.44528 286.80647 105.6033 C 286.89933 105.76132 287.04829 106.01654 287.14115 106.17659 C 287.23399 106.33662 287.38298 106.59473 287.4758 106.75684 C 287.56867 106.91896 287.7176 107.18085 287.81047 107.34502 C 287.90333 107.5092 288.05226 107.77423 288.1451 107.94019 C 288.23799 108.10612 288.38694 108.37344 288.47978 108.5411 C 288.57267 108.70879 288.7216 108.97928 288.81446 109.14874 C 288.9073 109.31819 289.05628 109.59134 289.1491 109.76244 C 289.24198 109.93353 289.3909 110.20927 289.48377 110.38193 C 289.57664 110.55457 289.7256 110.83278 289.81846 111.00688 C 289.9113 111.18097 290.06025 111.4612 290.1531 111.63667 C 290.24598 111.81215 290.3949 112.09492 290.4878 112.27167 C 290.58064 112.44841 290.72959 112.73257 290.82243 112.91058 C 290.91529 113.08861 291.06425 113.3755 291.1571 113.5547 C 291.24995 113.73389 291.3989 114.02205 291.49177 114.20213 C 291.58464 114.38222 291.73356 114.6716 291.82643 114.85262 C 291.91929 115.03362 292.06825 115.32474 292.1611 115.50676 C 292.25395 115.68877 292.4029 115.9818 292.49574 116.16452 C 292.5886 116.34726 292.73756 116.6405 292.8304 116.82382 C 292.92326 117.00714 293.07225 117.30177 293.16508 117.48586 C 293.25794 117.66994 293.4069 117.96606 293.49974 118.15062 C 293.5926 118.33517 293.74156 118.63115 293.8344 118.816 C 293.92726 119.00084 294.07624 119.29762 294.16908 119.4829 C 294.26194 119.66815 294.41087 119.96577 294.50373 120.1513 C 294.59657 120.33684 294.74555 120.63438 294.8384 120.82002 C 294.93125 121.00568 295.0802 121.30376 295.17308 121.48935 C 295.2659 121.67496 295.41487 121.97224 295.5077 122.15778 C 295.60057 122.34329 295.74955 122.64096 295.84239 122.82649 C 295.93525 123.01201 296.08418 123.30948 296.17704 123.4949 C 296.26988 123.68034 296.41886 123.97787 296.5117 124.16302 C 296.60459 124.34816 296.7535 124.64473 296.84638 124.8293 C 296.9392 125.01389 297.08818 125.30934 297.18104 125.49347 C 297.2739 125.6776 297.42286 125.97282 297.5157 126.1564 C 297.60856 126.33998 297.7575 126.63367 297.85038 126.81662 C 297.9432 126.99956 298.09217 127.29282 298.185 127.47499 C 298.2779 127.65718 298.42683 127.94849 298.51969 128.12975 C 298.61256 128.311 298.7615 128.60099 298.85435 128.78144 C 298.9472 128.9619 299.09617 129.2509 299.189 129.43039 C 299.28187 129.6099 299.43083 129.8968 299.52369 130.07512 C 299.61653 130.25342 299.76548 130.53844 299.85835 130.71556 C 299.9512 130.89267 300.10014 131.17581 300.19303 131.35176 C 300.28587 131.52771 300.4348 131.80915 300.52766 131.98369 C 300.6205 132.15824 300.76948 132.4369 300.86235 132.60987 C 300.95518 132.7828 301.10414 133.05878 301.197 133.23026 C 301.28984 133.40174 301.4388 133.67575 301.53166 133.84578 C 301.6245 134.01581 301.77348 134.28762 301.86634 134.45584 C 301.95918 134.62406 302.10816 134.89197 302.201 135.05829 C 302.29386 135.22461 302.4428 135.49002 302.53565 135.65467 C 302.6285 135.8193 302.77745 136.08217 302.8703 136.24495 C 302.96315 136.40775 303.11213 136.66725 303.20497 136.82798 C 303.29783 136.98868 303.44679 137.2448 303.53965 137.40337 C 303.63249 137.56194 303.78147 137.81446 303.8743 137.97087 C 303.96717 138.12728 304.1161 138.37657 304.20896 138.53076 C 304.3018 138.68494 304.45079 138.93044 304.5436 139.08217 C 304.63648 139.23389 304.78544 139.475 304.87828 139.62444 C 304.97114 139.77385 305.1201 140.01201 305.21296 140.1591 C 305.3058 140.3062 305.45478 140.54013 305.5476 140.68465 C 305.64048 140.82918 305.7894 141.05896 305.88227 141.20079 C 305.97514 141.3426 306.12409 141.56768 306.21693 141.70688 C 306.3098 141.84609 306.45875 142.06764 306.5516 142.20417 C 306.64445 142.34069 306.7934 142.55725 306.88627 142.69081 C 306.97914 142.82437 307.12809 143.03614 307.22093 143.16683 C 307.31379 143.29752 307.46275 143.50498 307.5556 143.6328 C 307.64845 143.76062 307.7974 143.96326 307.89027 144.08814 C 307.98313 144.213 308.13206 144.41109 308.22496 144.53284 C 308.31779 144.65459 308.4667 144.84705 308.5596 144.96569 C 308.65245 145.08432 308.8014 145.2723 308.89427 145.38788 C 308.9871 145.50348 309.13606 145.6865 309.2289 145.79885 C 309.32176 145.91118 309.4707 146.08873 309.56358 146.19765 C 309.65644 146.30657 309.80537 146.47846 309.89826 146.58397 C 309.9911 146.6895 310.14006 146.85594 310.2329 146.95816 C 310.32575 147.06038 310.47474 147.22194 310.56758 147.32079 C 310.66044 147.41963 310.80937 147.57535 310.90223 147.67064 C 310.99507 147.76595 311.14405 147.91599 311.2369 148.00775 C 311.32975 148.0995 311.4787 148.24376 311.57157 148.33206 C 311.6644 148.42038 311.8134 148.55959 311.90623 148.64424 C 311.99909 148.72888 312.14805 148.86135 312.24089 148.94214 C 312.3337 149.02294 312.4827 149.14948 312.57557 149.22664 C 312.6684 149.3038 312.81736 149.42476 312.9102 149.49839 C 313.00306 149.572 313.152 149.6876 313.24488 149.75736 C 313.3377 149.8271 313.4867 149.9354 313.57954 150.00113 C 313.6724 150.06688 313.82133 150.1692 313.91419 150.23123 C 314.00703 150.29326 314.156 150.3899 314.24888 150.44826 C 314.3417 150.50662 314.49067 150.59752 314.5835 150.65192 C 314.6764 150.70632 314.82533 150.79012 314.91819 150.84038 C 315.01106 150.89064 315.16 150.96787 315.25285 151.01424 C 315.3457 151.06063 315.49467 151.13213 315.58753 151.17473 C 315.68037 151.21733 315.8293 151.28272 315.92216 151.32125 C 316.01506 151.35979 316.164 151.41819 316.25685 151.45256 C 316.3497 151.48694 316.49864 151.53858 316.5915 151.56897 C 316.68437 151.59938 316.8333 151.64525 316.92616 151.67173 C 317.019 151.69821 317.16798 151.73757 317.26084 151.75988 C 317.35368 151.78217 317.50263 151.81435 317.5955 151.83252 C 317.68836 151.85068 317.8373 151.87664 317.93016 151.89089 C 318.023 151.90512 318.17195 151.925 318.26484 151.93526 C 318.35768 151.9455 318.50663 151.95873 318.5995 151.96475 C 318.69236 151.97077 318.84129 151.97679 318.93415 151.97872 C 319.027 151.98065 319.17597 151.98075 319.2688 151.97872 C 319.36167 151.9767 319.51063 151.97032 319.6035 151.96414 C 319.69633 151.95795 319.84529 151.94452 319.93815 151.93404 C 320.03099 151.92356 320.17997 151.90291 320.2728 151.88845 C 320.36567 151.874 320.5146 151.84804 320.60746 151.82979 C 320.7003 151.81153 320.84928 151.77939 320.9421 151.75682 C 321.03498 151.73427 321.18394 151.69387 321.2768 151.66716 C 321.36964 151.64048 321.5186 151.59499 321.61146 151.56443 C 321.7043 151.53385 321.85328 151.48128 321.9461 151.44678 C 322.03898 151.4123 322.18794 151.3544 322.2808 151.31577 C 322.37364 151.27715 322.52259 151.21115 322.61543 151.16837 C 322.70829 151.12557 322.85725 151.05385 322.9501 151.00725 C 323.04295 150.96065 323.19194 150.8829 323.28477 150.83248 C 323.37763 150.78203 323.52659 150.69815 323.61943 150.6437 C 323.7123 150.58927 323.86125 150.49852 323.9541 150.44007 C 324.04695 150.3816 324.1959 150.2847 324.28874 150.22241 C 324.3816 150.16014 324.53056 150.0571 324.6234 149.9911 C 324.71629 149.92511 324.86524 149.8166 324.95808 149.74672 C 325.05094 149.67684 325.1999 149.56119 325.29277 149.48743 C 325.3856 149.41367 325.53456 149.29242 325.6274 149.21509 C 325.72026 149.13776 325.86924 149.01099 325.96208 148.92998 C 326.05494 148.84897 326.20387 148.71598 326.29676 148.63117 C 326.3896 148.54636 326.53855 148.40718 326.6314 148.3187 C 326.72428 148.23023 326.8732 148.08536 326.96607 147.99346 C 327.0589 147.90157 327.20787 147.7517 327.30076 147.65636 C 327.3936 147.561 327.54255 147.40517 327.63539 147.30619 C 327.72825 147.20722 327.87718 147.04543 327.97007 146.94295 C 328.0629 146.84049 328.21189 146.67324 328.30473 146.56755 C 328.39759 146.46187 328.5465 146.29029 328.63938 146.18123 C 328.7322 146.07218 328.8812 145.89402 328.97404 145.78151 C 329.0669 145.66899 329.21586 145.48589 329.3087 145.37026 C 329.40156 145.25461 329.5505 145.06671 329.64338 144.94805 C 329.7362 144.82938 329.8852 144.63681 329.97804 144.5149 C 330.0709 144.39298 330.21986 144.19434 330.3127 144.06929 C 330.40556 143.94426 330.5545 143.7416 330.64735 143.61365 C 330.7402 143.48569 330.8892 143.27788 330.98204 143.14707 C 331.07487 143.01625 331.22383 142.80449 331.31669 142.67076 C 331.40953 142.53702 331.5585 142.3198 331.65135 142.1832 C 331.7442 142.04662 331.89317 141.82547 331.98603 141.68622 C 332.07887 141.54697 332.2278 141.32149 332.32066 141.1795 C 332.4135 141.03752 332.56248 140.80742 332.65534 140.66278 C 332.7482 140.51813 332.89714 140.28404 332.99 140.1369 C 333.08287 139.98976 333.2318 139.75174 333.32466 139.60224 C 333.41755 139.45275 333.56648 139.2113 333.65934 139.05936 C 333.75218 138.90741 333.90116 138.6614 333.994 138.50705 C 334.08686 138.3527 334.32865 137.94686 334.32865 137.94686 "/>
</g>
<path transform="matrix(1,0,0,-1,-20.71,195.47)" d="M 153.97432 121.58542 C 153.97432 122.68588 153.08225 123.57797 151.98177 123.57797 C 150.8813 123.57797 149.98921 122.68588 149.98921 121.58542 C 149.98921 120.48494 150.8813 119.59286 151.98177 119.59286 C 153.08225 119.59286 153.97432 120.48494 153.97432 121.58542 Z M 151.98177 121.58542 " fill="#000080"/>
<path transform="matrix(1,0,0,-1,-20.71,195.47)" stroke-width="1" stroke-linecap="butt" stroke-miterlimit="10" stroke-linejoin="miter" fill="none" stroke="#000080" d="M 153.97432 121.58542 C 153.97432 122.68588 153.08225 123.57797 151.98177 123.57797 C 150.8813 123.57797 149.98921 122.68588 149.98921 121.58542 C 149.98921 120.48494 150.8813 119.59286 151.98177 119.59286 C 153.08225 119.59286 153.97432 120.48494 153.97432 121.58542 Z M 151.98177 121.58542 "/>
<symbol id="font_3_1">
<path d="M .305 .31300003 C .311 .33900003 .334 .43100003 .404 .43100003 C .409 .43100003 .433 .43100003 .454 .418 C .426 .41300003 .40600003 .388 .40600003 .36400003 C .40600003 .34800003 .417 .32900004 .444 .32900004 C .46600003 .32900004 .498 .34700004 .498 .38700003 C .498 .43900005 .439 .45300005 .405 .45300005 C .347 .45300005 .312 .40000005 .3 .37700004 C .275 .44300003 .221 .45300005 .19200002 .45300005 C .08800001 .45300005 .031000002 .32400004 .031000002 .29900003 C .031000002 .28900004 .041 .28900004 .043000007 .28900004 C .051000008 .28900004 .054000006 .291 .056 .3 C .09 .40600003 .156 .43100003 .19000001 .43100003 C .209 .43100003 .244 .42200003 .244 .36400003 C .244 .33300004 .22700002 .26600004 .19000001 .126 C .17400001 .064 .13900002 .022000002 .095000009 .022000002 C .08900001 .022000002 .06600001 .022000002 .045 .035 C .07000001 .040000004 .09200001 .061 .09200001 .089 C .09200001 .116000007 .07000001 .124000009 .055000009 .124000009 C .025 .124000009 0 .098000008 0 .06600001 C 0 .020000002 .050000006 0 .094000007 0 C .16000001 0 .19600001 .07000001 .19900002 .076000008 C .21100001 .039 .24700003 0 .307 0 C .41 0 .467 .12900001 .467 .15400002 C .467 .16400002 .458 .16400002 .455 .16400002 C .446 .16400002 .444 .16000001 .442 .15300001 C .409 .046 .341 .022000002 .30900003 .022000002 C .27 .022000002 .254 .054 .254 .08800001 C .254 .11000001 .26 .13200002 .271 .17600002 L .305 .31300003 Z "/>
</symbol>
<use xlink:href="#font_3_1" transform="matrix(9.9626,0,0,-9.9626,256.70793,106.52159)"/>
<symbol id="font_3_2">
<path d="M .45700003 .586 C .461 .6 .461 .602 .461 .609 C .461 .62700006 .447 .63600006 .432 .63600006 C .42200003 .63600006 .40600003 .63 .397 .615 C .395 .61 .387 .579 .38300003 .561 C .37600003 .535 .36900003 .508 .363 .48100005 L .318 .301 C .314 .286 .271 .21600002 .20500002 .21600002 C .15400002 .21600002 .143 .26000003 .143 .29700003 C .143 .34300003 .16000001 .40500004 .194 .49300004 C .21000001 .53400006 .21400002 .545 .21400002 .56500008 C .21400002 .61 .18200001 .6470001 .13200002 .6470001 C .037 .6470001 0 .50200006 0 .49300004 C 0 .48300005 .01 .48300005 .012 .48300005 C .022000002 .48300005 .023 .485 .028000003 .50100007 C .055000009 .595 .095000009 .625 .12900001 .625 C .13700001 .625 .15400002 .625 .15400002 .59300008 C .15400002 .568 .14400001 .54200008 .13700001 .523 C .097 .41700004 .079 .36 .079 .31300003 C .079 .224 .142 .194 .201 .194 C .24000003 .194 .274 .21100001 .30200003 .23900002 C .289 .187 .277 .13800001 .237 .08500001 C .21100001 .051 .17300001 .022 .127 .022 C .113000009 .022 .068 .025000006 .051000008 .06400001 C .067 .06400001 .080000009 .06400001 .094000007 .076000008 C .104 .08500001 .11400001 .098000008 .11400001 .117000009 C .11400001 .148 .087000008 .15200001 .07700001 .15200001 C .054000006 .15200001 .021 .136 .021 .087000008 C .021 .037 .065000008 0 .127 0 C .23 0 .333 .091000009 .361 .20400001 L .45700003 .586 Z "/>
</symbol>
<use xlink:href="#font_3_2" transform="matrix(9.9626,0,0,-9.9626,128.9609,9.651342)"/>
</svg>
