<?xml version="1.0" encoding="UTF-8" standalone="no"?>
<!DOCTYPE svg PUBLIC "-//W3C//DTD SVG 1.1//EN" "http://www.w3.org/Graphics/SVG/1.1/DTD/svg11.dtd">
<svg xmlns="http://www.w3.org/2000/svg" xmlns:xlink="http://www.w3.org/1999/xlink" version="1.1" width="120.589pt" height="173.144pt" viewBox="0 0 120.589 173.144">
<path transform="matrix(1,0,0,-1,20.799,172.54599)" stroke-width="1" stroke-linecap="butt" stroke-miterlimit="10" stroke-linejoin="miter" fill="none" stroke="#bfbfbf" d="M 23.05592 .00114 L 23.05592 161.39266 M 37.46588 .00114 L 37.46588 161.39266 M 51.87582 .00114 L 51.87582 161.39266 M 66.28578 .00114 L 66.28578 161.39266 M 80.69574 .00114 L 80.69574 161.39266 "/>
<path transform="matrix(1,0,0,-1,20.799,172.54599)" stroke-width="1" stroke-linecap="butt" stroke-miterlimit="10" stroke-linejoin="miter" fill="none" stroke="#bfbfbf" d="M 0 8.64713 L 89.34172 8.64713 M 0 23.05708 L 89.34172 23.05708 M 0 37.46703 L 89.34172 37.46703 M 0 66.28694 L 89.34172 66.28694 M 0 80.6969 L 89.34172 80.6969 M 0 95.10686 L 89.34172 95.10686 M 0 109.51682 L 89.34172 109.51682 M 0 123.92676 L 89.34172 123.92676 M 0 138.33672 L 89.34172 138.33672 M 0 152.74668 L 89.34172 152.74668 "/>
<path transform="matrix(1,0,0,-1,20.799,172.54599)" stroke-width="1" stroke-linecap="butt" stroke-miterlimit="10" stroke-linejoin="miter" fill="none" stroke="#808080" d="M 23.05592 49.75107 L 23.05592 54.00291 M 37.46588 49.75107 L 37.46588 54.00291 M 51.87582 49.75107 L 51.87582 54.00291 M 66.28578 49.75107 L 66.28578 54.00291 M 80.69574 49.75107 L 80.69574 54.00291 "/>
<path transform="matrix(1,0,0,-1,20.799,172.54599)" stroke-width="1" stroke-linecap="butt" stroke-miterlimit="10" stroke-linejoin="miter" fill="none" stroke="#808080" d="M 6.52003 8.64713 L 10.77188 8.64713 M 6.52003 23.05708 L 10.77188 23.05708 M 6.52003 37.46703 L 10.77188 37.46703 M 6.52003 66.28694 L 10.77188 66.28694 M 6.52003 80.6969 L 10.77188 80.6969 M 6.52003 95.10686 L 10.77188 95.10686 M 6.52003 109.51682 L 10.77188 109.51682 M 6.52003 123.92676 L 10.77188 123.92676 M 6.52003 138.33672 L 10.77188 138.33672 M 6.52003 152.74668 L 10.77188 152.74668 "/>
<path transform="matrix(1,0,0,-1,20.799,172.54599)" stroke-width="1" stroke-linecap="butt" stroke-miterlimit="10" stroke-linejoin="miter" fill="none" stroke="#000000" d="M 0 51.87698 L 87.3492 51.87698 "/>
<path transform="matrix(1,0,0,-1,108.14819,120.66901)" d="M 1.99252 0 L -1.19551 1.59401 L 0 0 L -1.19551 -1.59401 "/>
<path transform="matrix(1,0,0,-1,20.799,172.54599)" stroke-width="1" stroke-linecap="butt" stroke-miterlimit="10" stroke-linejoin="miter" fill="none" stroke="#000000" d="M 8.64597 .00114 L 8.64597 159.40013 "/>
<path transform="matrix(0,-1,-1,-0,29.44497,13.145859)" d="M 1.99252 0 L -1.19551 1.59401 L 0 0 L -1.19551 -1.59401 "/>
<symbol id="font_0_1">
<path d="M .421 .34200005 C .421 .42200003 .416 .50200006 .381 .57600006 C .335 .67200008 .25300003 .688 .211 .688 C .15100001 .688 .07800001 .66200008 .037000006 .56900009 C .0050000029 .5 0 .42200003 0 .34200005 C 0 .26700003 .0040000008 .177 .045000007 .101 C .088 .020000002 .161 0 .21000001 0 C .264 0 .34 .021000002 .384 .116000007 C .416 .185 .421 .263 .421 .34200005 M .21000001 .022000002 C .171 .022000002 .112 .047000003 .094 .143 C .083000008 .20300001 .083000008 .29500003 .083000008 .35400004 C .083000008 .41800005 .083000008 .48400004 .091000009 .53800007 C .11 .65700009 .185 .66600009 .21000001 .66600009 C .243 .66600009 .30900003 .64800009 .328 .549 C .338 .49300004 .338 .41700004 .338 .35400004 C .338 .279 .338 .21100001 .32700003 .147 C .312 .052 .255 .022000002 .21000001 .022000002 Z "/>
</symbol>
<use xlink:href="#font_0_1" transform="matrix(9.9626,0,0,-9.9626,37.87854,132.95517)"/>
<symbol id="font_1_1">
<path d="M .106 .053000004 C .106 .082 .08200001 .106000009 .05300001 .106000009 C .024000004 .106000009 0 .082 0 .053000004 C 0 .024 .024000004 0 .05300001 0 C .08200001 0 .106 .024 .106 .053000004 Z "/>
</symbol>
<use xlink:href="#font_1_1" transform="matrix(9.9626,0,0,-9.9626,43.32778,132.736)"/>
<symbol id="font_0_5">
<path d="M .39900003 .223 C .39900003 .34200005 .317 .44200004 .209 .44200004 C .16100002 .44200004 .118000019 .42600004 .082 .39100004 L .082 .586 C .10200001 .58000007 .135 .573 .16700001 .573 C .29 .573 .36 .66400006 .36 .67700007 C .36 .683 .357 .688 .35 .688 C .349 .688 .347 .688 .342 .68500009 C .322 .67600008 .273 .656 .20600002 .656 C .16600001 .656 .120000008 .66300007 .073 .6840001 C .065 .68700006 .06300001 .68700006 .061000009 .68700006 C .051000004 .68700006 .051000004 .679 .051000004 .66300007 L .051000004 .36700005 C .051000004 .34900005 .051000004 .34100003 .065 .34100003 C .07200001 .34100003 .074 .34400005 .07800001 .35000003 C .08900002 .36600004 .12600002 .42000006 .207 .42000006 C .259 .42000006 .284 .37400005 .292 .35600005 C .308 .31900005 .31 .28000004 .31 .23 C .31 .19500001 .31 .135 .286 .093 C .262 .054000006 .22500001 .028 .17900002 .028 C .106000009 .028 .049000008 .08100001 .032 .14000002 C .035 .13900002 .038000008 .13800001 .049000008 .13800001 C .082 .13800001 .09900001 .163 .09900001 .187 C .09900001 .21100001 .082 .23600002 .049000008 .23600002 C .035 .23600002 0 .22900002 0 .18300002 C 0 .097 .069000009 0 .18100001 0 C .297 0 .39900003 .096 .39900003 .223 Z "/>
</symbol>
<use xlink:href="#font_0_5" transform="matrix(9.9626,0,0,-9.9626,45.736127,132.95517)"/>
<symbol id="font_0_2">
<path d="M .205 .64000007 C .205 .66400006 .205 .666 .18200003 .666 C .120000008 .60200008 .032000007 .60200008 0 .60200008 L 0 .57100006 C .020000004 .57100006 .07900001 .57100006 .13100001 .597 L .13100001 .079 C .13100001 .043 .128 .031000002 .038000004 .031000002 L .0060000049 .031000002 L .0060000049 0 C .04100001 .003 .128 .003 .168 .003 C .20800002 .003 .29500003 .003 .33000005 0 L .33000005 .031000002 L .29800005 .031000002 C .20800002 .031000002 .205 .042000005 .205 .079 L .205 .64000007 Z "/>
</symbol>
<use xlink:href="#font_0_2" transform="matrix(9.9626,0,0,-9.9626,56.66067,132.736)"/>
<use xlink:href="#font_0_2" transform="matrix(9.9626,0,0,-9.9626,67.19567,132.736)"/>
<use xlink:href="#font_1_1" transform="matrix(9.9626,0,0,-9.9626,72.14778,132.736)"/>
<use xlink:href="#font_0_5" transform="matrix(9.9626,0,0,-9.9626,74.55613,132.95517)"/>
<symbol id="font_0_3">
<path d="M .07700001 .07700001 L .18300002 .18 C .33900003 .31800003 .39900003 .372 .39900003 .47200004 C .39900003 .586 .30900003 .666 .18700002 .666 C .074 .666 0 .574 0 .485 C 0 .42900003 .05 .42900003 .053000008 .42900003 C .07000001 .42900003 .105000007 .441 .105000007 .48200003 C .105000007 .508 .08700001 .53400006 .052000006 .53400006 C .044000005 .53400006 .042000008 .53400006 .039 .53300008 C .062000004 .59800007 .11600001 .63500007 .17400001 .63500007 C .26500003 .63500007 .308 .554 .308 .47200004 C .308 .39200003 .25800003 .31300003 .20300003 .25100003 L .011000004 .037 C 0 .026 0 .024 0 0 L .37100003 0 L .39900003 .17400001 L .374 .17400001 C .36900003 .14400001 .36200003 .1 .352 .085 C .345 .07700001 .279 .07700001 .257 .07700001 L .07700001 .07700001 Z "/>
</symbol>
<use xlink:href="#font_0_3" transform="matrix(9.9626,0,0,-9.9626,85.09113,132.736)"/>
<use xlink:href="#font_0_3" transform="matrix(9.9626,0,0,-9.9626,95.62713,132.736)"/>
<use xlink:href="#font_1_1" transform="matrix(9.9626,0,0,-9.9626,100.96678,132.736)"/>
<use xlink:href="#font_0_5" transform="matrix(9.9626,0,0,-9.9626,103.37613,132.95517)"/>
<symbol id="font_2_1">
<path d="M .57600006 0 C .59300008 0 .611 0 .611 .019999996 C .611 .040000008 .59300008 .040000008 .57600006 .040000008 L .035000005 .040000008 C .018 .040000008 0 .040000008 0 .019999996 C 0 0 .018 0 .035000005 0 L .57600006 0 Z "/>
</symbol>
<use xlink:href="#font_2_1" transform="matrix(9.9626,0,0,-9.9626,4.147895,164.40259)"/>
<use xlink:href="#font_0_2" transform="matrix(9.9626,0,0,-9.9626,11.95567,166.69399)"/>
<use xlink:href="#font_1_1" transform="matrix(9.9626,0,0,-9.9626,16.907782,166.69399)"/>
<use xlink:href="#font_0_5" transform="matrix(9.9626,0,0,-9.9626,19.316132,166.91316)"/>
<use xlink:href="#font_2_1" transform="matrix(9.9626,0,0,-9.9626,11.895896,149.99359)"/>
<use xlink:href="#font_0_2" transform="matrix(9.9626,0,0,-9.9626,19.704672,152.28499)"/>
<use xlink:href="#font_2_1" transform="matrix(9.9626,0,0,-9.9626,4.147895,135.58359)"/>
<use xlink:href="#font_0_1" transform="matrix(9.9626,0,0,-9.9626,11.4575409,138.09416)"/>
<use xlink:href="#font_1_1" transform="matrix(9.9626,0,0,-9.9626,16.907782,137.87499)"/>
<use xlink:href="#font_0_5" transform="matrix(9.9626,0,0,-9.9626,19.316132,138.09416)"/>
<use xlink:href="#font_0_1" transform="matrix(9.9626,0,0,-9.9626,11.457541,109.68916)"/>
<use xlink:href="#font_1_1" transform="matrix(9.9626,0,0,-9.9626,16.907784,109.469989)"/>
<use xlink:href="#font_0_5" transform="matrix(9.9626,0,0,-9.9626,19.316132,109.68916)"/>
<use xlink:href="#font_0_2" transform="matrix(9.9626,0,0,-9.9626,19.704672,95.06098)"/>
<use xlink:href="#font_0_2" transform="matrix(9.9626,0,0,-9.9626,11.955671,80.650989)"/>
<use xlink:href="#font_1_1" transform="matrix(9.9626,0,0,-9.9626,16.907784,80.650989)"/>
<use xlink:href="#font_0_5" transform="matrix(9.9626,0,0,-9.9626,19.316132,80.87016)"/>
<use xlink:href="#font_0_3" transform="matrix(9.9626,0,0,-9.9626,19.316132,66.24098)"/>
<use xlink:href="#font_0_3" transform="matrix(9.9626,0,0,-9.9626,11.56713,51.830995)"/>
<use xlink:href="#font_1_1" transform="matrix(9.9626,0,0,-9.9626,16.907784,51.830995)"/>
<use xlink:href="#font_0_5" transform="matrix(9.9626,0,0,-9.9626,19.316132,52.05017)"/>
<symbol id="font_0_4">
<path d="M .24800003 .37400005 C .33 .40100003 .388 .47100006 .388 .55 C .388 .632 .3 .688 .204 .688 C .10300001 .688 .027000003 .628 .027000003 .55200007 C .027000003 .519 .049000004 .5 .078 .5 C .109000008 .5 .12900001 .522 .12900001 .55100008 C .12900001 .6010001 .082 .6010001 .067 .6010001 C .098 .65000006 .164 .66300007 .20000002 .66300007 C .24100003 .66300007 .29600004 .64100006 .29600004 .55100008 C .29600004 .53900006 .29400004 .48100005 .268 .43700005 C .238 .38900004 .204 .38600005 .17900002 .38500003 C .171 .38400004 .14700002 .38200004 .14000002 .38200004 C .132 .38100005 .125 .38000003 .125 .37000004 C .125 .35900004 .132 .35900004 .14900002 .35900004 L .19300002 .35900004 C .275 .35900004 .312 .29100005 .312 .193 C .312 .057000005 .24300003 .028 .199 .028 C .15600002 .028 .081 .045 .046000005 .104 C .081 .09900001 .11200001 .12100001 .11200001 .15900001 C .11200001 .19500001 .085 .215 .056 .215 C .031999999 .215 0 .201 0 .157 C 0 .06600001 .093 0 .20200002 0 C .32400004 0 .41500003 .091000009 .41500003 .193 C .41500003 .27500005 .35200004 .35300005 .24800003 .37400005 Z "/>
</symbol>
<use xlink:href="#font_0_4" transform="matrix(9.9626,0,0,-9.9626,19.23643,37.640169)"/>
<use xlink:href="#font_0_4" transform="matrix(9.9626,0,0,-9.9626,11.48743,23.23117)"/>
<use xlink:href="#font_1_1" transform="matrix(9.9626,0,0,-9.9626,16.907784,23.011994)"/>
<use xlink:href="#font_0_5" transform="matrix(9.9626,0,0,-9.9626,19.316132,23.23117)"/>
<path transform="matrix(1,0,0,-1,20.799,172.54599)" stroke-width="1.19553" stroke-linecap="butt" stroke-miterlimit="10" stroke-linejoin="miter" fill="none" stroke="#000080" d="M 0 45.91125 L 1.69093 48.11507 L 3.38188 49.77835 L 5.07283 50.93607 L 6.76378 51.62311 L 8.45474 51.87444 L 10.14569 51.72496 L 11.83664 51.20961 L 13.52759 50.3633 L 15.21854 49.22098 L 16.90948 47.81755 L 18.60043 46.18797 L 20.2914 44.36714 L 21.98235 42.39 L 23.6733 40.29147 L 25.36423 38.10648 L 27.05519 35.86996 L 28.74614 33.6168 L 30.43709 31.382 L 32.12804 29.20042 L 33.819 27.10704 L 35.50995 25.13673 L 37.2009 23.32446 L 38.89183 21.70518 L 40.58278 20.31374 L 42.27374 19.18509 L 43.96469 18.35419 L 45.65564 17.85594 L 47.34659 17.7253 L 49.03754 17.99716 L 50.72847 18.70645 L 52.41943 19.88814 L 54.11038 21.57706 L 55.80133 23.80824 L 57.49228 26.61656 L 59.18323 30.03696 L 60.87418 34.10437 L 62.56514 38.85371 L 64.25607 44.3199 L 65.94702 50.53789 L 67.63797 57.54257 L 69.32892 65.3689 L 71.01987 74.05177 L 72.71083 83.6259 L 74.40178 94.1267 L 76.09271 105.5888 L 77.78366 118.04721 L 79.47461 131.5368 L 81.16556 146.09253 L 82.85652 161.74929 "/>
<path transform="matrix(1,0,0,-1,20.799,172.54599)" stroke-width="1.19553" stroke-linecap="butt" stroke-dasharray="2.98883,2.98883" stroke-miterlimit="10" stroke-linejoin="miter" fill="none" stroke="#ff0000" d="M 14.40994 .00114 L 17.53209 3.1233 L 20.65424 6.24544 L 23.77637 9.36758 L 26.89853 12.48975 L 30.02068 15.61188 L 33.14282 18.73402 L 36.26497 21.85617 L 39.38712 24.97832 L 42.50926 28.10046 L 45.63141 31.22263 L 48.75356 34.34476 L 51.87572 37.4669 L 54.99785 40.58907 L 58.12 43.7112 L 61.24216 46.83334 L 64.36429 49.9555 L 67.48643 53.07764 L 70.6086 56.1998 L 73.73073 59.32195 L 76.85287 62.44408 L 79.97504 65.56624 L 83.09717 68.68839 L 86.21931 71.81052 L 89.34148 74.93268 "/>
<path transform="matrix(1,0,0,-1,20.799,172.54599)" stroke-width="1.19553" stroke-linecap="butt" stroke-miterlimit="10" stroke-linejoin="miter" fill="none" stroke="#ff8000" d="M 53.31653 0 L 54.81755 6.00409 L 56.31857 12.00821 L 57.81961 18.0123 L 59.32063 24.01642 L 60.82167 30.02052 L 62.3227 36.02463 L 63.82372 42.02873 L 65.32475 48.03284 L 66.82578 54.03694 L 68.32678 60.04106 L 69.82782 66.04515 L 71.32884 72.04927 L 72.82988 78.05338 L 74.3309 84.05748 L 75.83192 90.06158 L 77.33296 96.0657 L 78.83398 102.0698 L 80.33502 108.07391 L 81.83604 114.07802 L 83.33707 120.08212 L 84.83809 126.08623 L 86.33911 132.09033 L 87.84013 138.09445 L 89.34117 144.09856 "/>
<symbol id="font_1_2">
<path d="M .14400001 .115 C .10400002 .048 .065 .034 .021000002 .031000002 C .009000003 .030000002 0 .030000002 0 .011000001 C 0 .0050000005 .0050000029 0 .013 0 C .040000004 0 .07100001 .003 .09900001 .003 C .13200002 .003 .16700001 0 .19900002 0 C .20500002 0 .21800003 0 .21800003 .019000002 C .21800003 .030000002 .20900002 .031000002 .20200002 .031000002 C .17900002 .033 .15500002 .041 .15500002 .066 C .15500002 .078 .16100002 .089 .16900002 .10300001 L .245 .231 L .49600003 .231 C .49800007 .21000001 .512 .074 .512 .064 C .512 .034 .46000005 .031000002 .44000004 .031000002 C .42600004 .031000002 .41600005 .031000002 .41600005 .011000001 C .41600005 0 .42800004 0 .43000005 0 C .47100006 0 .514 .003 .555 .003 C .58 .003 .643 0 .668 0 C .674 0 .686 0 .686 .020000002 C .686 .031000002 .676 .031000002 .663 .031000002 C .601 .031000002 .601 .038000004 .598 .067 L .537 .69200006 C .535 .712 .535 .716 .518 .716 C .502 .716 .49800007 .70900008 .492 .69900009 L .14400001 .115 M .26400004 .26200003 L .46100004 .592 L .493 .26200003 L .26400004 .26200003 Z "/>
</symbol>
<use xlink:href="#font_1_2" transform="matrix(9.9626,0,0,-9.9626,76.4917,116.86898)" fill="#000080"/>
<symbol id="font_1_3">
<path d="M .11800001 .078 C .108 .039 .106 .031000002 .027000003 .031000002 C .009999998 .031000002 0 .031000002 0 .011000001 C 0 0 .009 0 .027000003 0 L .38400004 0 C .54200008 0 .66 .11800001 .66 .216 C .66 .28800003 .60200008 .34600003 .50500008 .35700003 C .609 .37600003 .71400007 .45000003 .71400007 .545 C .71400007 .619 .64800009 .683 .52800008 .683 L .192 .683 C .17300001 .683 .16300002 .683 .16300002 .66300007 C .16300002 .652 .17200002 .652 .19100002 .652 C .19300002 .652 .21200001 .652 .22900003 .65000006 C .24700001 .648 .256 .647 .256 .634 C .256 .63000008 .25500003 .62700006 .252 .615 L .11800001 .078 M .26900003 .36600004 L .33100004 .614 C .34000004 .64900007 .342 .652 .38500003 .652 L .51400008 .652 C .60200008 .652 .623 .59300008 .623 .549 C .623 .46100004 .53700008 .36600004 .41500003 .36600004 L .26900003 .36600004 M .224 .031000002 C .21000001 .031000002 .208 .031000002 .20200002 .032 C .192 .033 .18900001 .034 .18900001 .042000005 C .18900001 .045 .18900001 .047000003 .194 .065000008 L .263 .344 L .45200003 .344 C .54800006 .344 .56700006 .27 .56700006 .22700002 C .56700006 .128 .47800005 .031000002 .36 .031000002 L .224 .031000002 Z "/>
</symbol>
<use xlink:href="#font_1_3" transform="matrix(9.9626,0,0,-9.9626,44.567434,152.89298)" fill="#000080"/>
<path transform="matrix(1,0,0,-1,20.799,172.54599)" d="M 68.27834 51.87698 C 68.27834 52.97746 67.38626 53.86954 66.28578 53.86954 C 65.18532 53.86954 64.29323 52.97746 64.29323 51.87698 C 64.29323 50.77652 65.18532 49.88443 66.28578 49.88443 C 67.38626 49.88443 68.27834 50.77652 68.27834 51.87698 Z M 66.28578 51.87698 " fill="#000080"/>
<path transform="matrix(1,0,0,-1,20.799,172.54599)" stroke-width="1" stroke-linecap="butt" stroke-miterlimit="10" stroke-linejoin="miter" fill="none" stroke="#000080" d="M 68.27834 51.87698 C 68.27834 52.97746 67.38626 53.86954 66.28578 53.86954 C 65.18532 53.86954 64.29323 52.97746 64.29323 51.87698 C 64.29323 50.77652 65.18532 49.88443 66.28578 49.88443 C 67.38626 49.88443 68.27834 50.77652 68.27834 51.87698 Z M 66.28578 51.87698 "/>
<path transform="matrix(1,0,0,-1,20.799,172.54599)" d="M 39.45844 23.05708 C 39.45844 24.15755 38.56635 25.04964 37.46588 25.04964 C 36.3654 25.04964 35.47333 24.15755 35.47333 23.05708 C 35.47333 21.9566 36.3654 21.06453 37.46588 21.06453 C 38.56635 21.06453 39.45844 21.9566 39.45844 23.05708 Z M 37.46588 23.05708 " fill="#000080"/>
<path transform="matrix(1,0,0,-1,20.799,172.54599)" stroke-width="1" stroke-linecap="butt" stroke-miterlimit="10" stroke-linejoin="miter" fill="none" stroke="#000080" d="M 39.45844 23.05708 C 39.45844 24.15755 38.56635 25.04964 37.46588 25.04964 C 36.3654 25.04964 35.47333 24.15755 35.47333 23.05708 C 35.47333 21.9566 36.3654 21.06453 37.46588 21.06453 C 38.56635 21.06453 39.45844 21.9566 39.45844 23.05708 Z M 37.46588 23.05708 "/>
<symbol id="font_1_5">
<path d="M .18300002 .411 L .277 .411 C .29700003 .411 .307 .411 .307 .43100003 C .307 .44200004 .29700003 .44200004 .279 .44200004 L .19100002 .44200004 C .227 .584 .23200003 .60400006 .23200003 .61 C .23200003 .62700006 .22000002 .637 .20300001 .637 C .2 .637 .172 .636 .163 .601 L .124 .44200004 L .030000002 .44200004 C .009999998 .44200004 0 .44200004 0 .42300005 C 0 .411 .007999999 .411 .028 .411 L .11600001 .411 C .044 .127 .04 .11000001 .04 .092 C .04 .038000004 .078 0 .132 0 C .234 0 .291 .14600002 .291 .15400002 C .291 .16400002 .28300003 .16400002 .279 .16400002 C .27 .16400002 .26900003 .16100002 .264 .15000002 C .22100002 .046 .16800002 .022000002 .134 .022000002 C .113000009 .022000002 .103 .035 .103 .068 C .103 .092 .105000007 .09900001 .109 .116000007 L .18300002 .411 Z "/>
</symbol>
<use xlink:href="#font_1_5" transform="matrix(9.9626,0,0,-9.9626,113.90015,123.83657)"/>
<symbol id="font_1_4">
<path d="M .33900006 .38500003 C .311 .38400004 .291 .36200003 .291 .34000004 C .291 .32600004 .3 .31100003 .32200004 .31100003 C .34400005 .31100003 .36800004 .328 .36800004 .367 C .36800004 .41200004 .325 .45300005 .24900003 .45300005 C .11700001 .45300005 .08 .351 .08 .307 C .08 .22900002 .15400002 .21400002 .18300002 .20800002 C .235 .19800002 .287 .18700002 .287 .13200002 C .287 .106000009 .264 .022000002 .14400001 .022000002 C .13000001 .022000002 .053000004 .022000002 .030000002 .075 C .068 .07000001 .09300001 .1 .09300001 .128 C .09300001 .15100001 .07700001 .16300002 .056 .16300002 C .030000002 .16300002 0 .14200002 0 .097 C 0 .040000004 .057000005 0 .143 0 C .305 0 .34400005 .12100001 .34400005 .16600001 C .34400005 .20200002 .325 .22700002 .31300003 .23900002 C .286 .26700003 .25700004 .272 .21300002 .28100003 C .17700002 .28900004 .13700001 .29600004 .13700001 .34100003 C .13700001 .37000004 .16100002 .43100003 .24900003 .43100003 C .274 .43100003 .324 .42400003 .33900006 .38500003 Z "/>
</symbol>
<use xlink:href="#font_1_4" transform="matrix(9.9626,0,0,-9.9626,27.629055,7.719574)"/>
</svg>
