<?xml version="1.0" encoding="UTF-8" standalone="no"?>
<!DOCTYPE svg PUBLIC "-//W3C//DTD SVG 1.1//EN" "http://www.w3.org/Graphics/SVG/1.1/DTD/svg11.dtd">
<svg xmlns="http://www.w3.org/2000/svg" xmlns:xlink="http://www.w3.org/1999/xlink" version="1.1" width="206.066pt" height="173.566pt" viewBox="0 0 206.066 173.566">
<clipPath id="cp0">
<path transform="matrix(1,0,0,-1,.199,173.36699)" d="M 0 0 L 194.26607 0 L 194.26607 161.38724 L 0 161.38724 Z "/>
</clipPath>
<g clip-path="url(#cp0)">
<path transform="matrix(1,0,0,-1,.199,173.36699)" d="M 97.13303 138.33191 L 100.37079 123.6022 L 103.60854 110.15335 L 106.8463 97.9852 L 110.08405 87.09802 L 113.32181 77.49167 L 116.55956 69.16615 L 119.7973 62.12146 L 123.03506 56.3576 L 126.27283 51.8746 L 129.51058 48.67244 L 132.74832 46.75111 L 135.98609 46.11063 L 139.22383 46.75099 L 142.4616 48.67218 L 145.69934 51.87422 L 148.9371 56.3571 L 152.17485 62.12082 L 155.41262 69.16537 L 158.65036 77.49078 L 161.88813 87.09695 L 165.12587 97.98415 L 168.36363 110.15204 L 171.60138 123.60078 L 174.83913 138.33037 L 174.83913 138.33191 L 171.60138 138.33191 L 168.36363 138.33191 L 165.12587 138.33191 L 161.88813 138.33191 L 158.65036 138.33191 L 155.41262 138.33191 L 152.17485 138.33191 L 148.9371 138.33191 L 145.69934 138.33191 L 142.4616 138.33191 L 139.22383 138.33191 L 135.98609 138.33191 L 132.74832 138.33191 L 129.51058 138.33191 L 126.27283 138.33191 L 123.03506 138.33191 L 119.7973 138.33191 L 116.55956 138.33191 L 113.32181 138.33191 L 110.08405 138.33191 L 106.8463 138.33191 L 103.60854 138.33191 L 100.37079 138.33191 L 97.13303 138.33191 Z " fill="#cccce6"/>
</g>
<clipPath id="cp1">
<path transform="matrix(1,0,0,-1,.199,173.36699)" d="M 0 0 L 194.26607 0 L 194.26607 161.38724 L 0 161.38724 Z "/>
</clipPath>
<g clip-path="url(#cp1)">
<path transform="matrix(1,0,0,-1,.199,173.36699)" stroke-width="1.19553" stroke-linecap="butt" stroke-miterlimit="10" stroke-linejoin="miter" fill="none" stroke="#000080" d="M 97.13303 138.33191 C 97.13303 138.33191 99.47234 127.51192 100.37079 123.6022 C 101.26923 119.69247 102.71008 113.70764 103.60854 110.15335 C 104.50699 106.59904 105.94785 101.18407 106.8463 97.9852 C 107.74475 94.78632 109.1856 89.94147 110.08405 87.09802 C 110.9825 84.2546 112.42336 79.97968 113.32181 77.49167 C 114.22026 75.00366 115.6611 71.29874 116.55956 69.16615 C 117.45801 67.03357 118.89885 63.89862 119.7973 62.12146 C 120.69576 60.3443 122.1366 57.77933 123.03506 56.3576 C 123.93353 54.93588 125.37437 52.9409 126.27283 51.8746 C 127.17128 50.8083 128.61212 49.38332 129.51058 48.67244 C 130.40903 47.96156 131.84987 47.10655 132.74832 46.75111 C 133.64678 46.39568 135.08763 46.11064 135.98609 46.11063 C 136.88454 46.11061 138.32538 46.39558 139.22383 46.75099 C 140.12229 47.1064 141.56314 47.96135 142.4616 48.67218 C 143.36005 49.38301 144.80089 50.80795 145.69934 51.87422 C 146.5978 52.94049 148.03865 54.93541 148.9371 56.3571 C 149.83556 57.7788 151.2764 60.34372 152.17485 62.12082 C 153.0733 63.89793 154.51416 67.03282 155.41262 69.16537 C 156.31107 71.29793 157.7519 75.0028 158.65036 77.49078 C 159.54882 79.97876 160.98967 84.25356 161.88813 87.09695 C 162.78658 89.94037 164.22742 94.7853 165.12587 97.98415 C 166.02433 101.183 167.46518 106.59778 168.36363 110.15204 C 169.26209 113.70628 170.70293 119.6911 171.60138 123.60078 C 172.49983 127.51048 174.83913 138.33037 174.83913 138.33037 "/>
<path transform="matrix(1,0,0,-1,.199,173.36699)" stroke-width="1.19553" stroke-linecap="butt" stroke-miterlimit="10" stroke-linejoin="miter" fill="none" stroke="#800000" d="M 97.13303 138.33191 C 97.13303 138.33191 99.47234 138.33191 100.37079 138.33191 C 101.26923 138.33191 102.71008 138.33191 103.60854 138.33191 C 104.50699 138.33191 105.94785 138.33191 106.8463 138.33191 C 107.74475 138.33191 109.1856 138.33191 110.08405 138.33191 C 110.9825 138.33191 112.42336 138.33191 113.32181 138.33191 C 114.22026 138.33191 115.6611 138.33191 116.55956 138.33191 C 117.45801 138.33191 118.89885 138.33191 119.7973 138.33191 C 120.69576 138.33191 122.1366 138.33191 123.03506 138.33191 C 123.93353 138.33191 125.37437 138.33191 126.27283 138.33191 C 127.17128 138.33191 128.61212 138.33191 129.51058 138.33191 C 130.40903 138.33191 131.84987 138.33191 132.74832 138.33191 C 133.64678 138.33191 135.08763 138.33191 135.98609 138.33191 C 136.88454 138.33191 138.32538 138.33191 139.22383 138.33191 C 140.12229 138.33191 141.56314 138.33191 142.4616 138.33191 C 143.36005 138.33191 144.80089 138.33191 145.69934 138.33191 C 146.5978 138.33191 148.03865 138.33191 148.9371 138.33191 C 149.83556 138.33191 151.2764 138.33191 152.17485 138.33191 C 153.0733 138.33191 154.51416 138.33191 155.41262 138.33191 C 156.31107 138.33191 157.7519 138.33191 158.65036 138.33191 C 159.54882 138.33191 160.98967 138.33191 161.88813 138.33191 C 162.78658 138.33191 164.22742 138.33191 165.12587 138.33191 C 166.02433 138.33191 167.46518 138.33191 168.36363 138.33191 C 169.26209 138.33191 170.70293 138.33191 171.60138 138.33191 C 172.49983 138.33191 174.83913 138.33191 174.83913 138.33191 "/>
<path transform="matrix(1,0,0,-1,.199,173.36699)" stroke-width="1" stroke-linecap="butt" stroke-miterlimit="10" stroke-linejoin="miter" fill="none" stroke="#000080" d="M .19426 -.23055 L .19426 0 "/>
<symbol id="font_2_2">
<path d="M .47300003 .59000006 C .474 .595 .47599999 .6010001 .47599999 .607 C .47599999 .62 .467 .63600006 .44500003 .63600006 C .432 .63600006 .414 .628 .40600003 .609 C .405 .605 .395 .564 .389 .54200008 L .33900003 .342 C .331 .31300003 .331 .31100003 .329 .30200003 C .328 .298 .286 .21900001 .21400002 .21900001 C .15200001 .21900001 .15200001 .282 .15200001 .301 C .15200001 .34600003 .165 .39500005 .20800002 .507 C .216 .53000006 .22200002 .544 .22200002 .563 C .22200002 .612 .18500002 .6470001 .136 .6470001 C .040000008 .6470001 0 .505 0 .49300004 C 0 .48400004 .007000001 .48100005 .014 .48100005 C .025 .48100005 .026000003 .48700003 .030000003 .5 C .051000008 .574 .091000009 .62200006 .133 .62200006 C .157 .62200006 .157 .60300007 .157 .589 C .157 .572 .15300001 .554 .14400001 .53000006 C .097 .40600003 .08400001 .36400003 .08400001 .316 C .08400001 .20500002 .17400001 .194 .21100001 .194 C .26 .194 .295 .22000002 .313 .238 C .3 .187 .289 .14200002 .25 .09200001 C .22000002 .052 .18 .025000006 .136 .025000006 C .10800001 .025000006 .075 .03500001 .061000006 .06300001 C .11400001 .06300001 .12100001 .10700001 .12100001 .117000009 C .12100001 .13900002 .105000007 .15300001 .083000008 .15300001 C .059000009 .15300001 .027 .134 .027 .08800001 C .027 .036 .07300001 0 .136 0 C .23800002 0 .347 .087000008 .37600003 .20400001 L .47300003 .59000006 Z "/>
</symbol>
<use xlink:href="#font_2_2" transform="matrix(8.9664,0,0,-8.9664,144.99303,27.365105)" fill="#800000"/>
<symbol id="font_3_4">
<path d="M .651 .20400003 C .6650001 .20400003 .6840001 .20400003 .6840001 .22500003 C .6840001 .24700001 .66200008 .24700001 .6470001 .24700001 L .037 .24700001 C .022 .24700001 0 .24700001 0 .22500003 C 0 .20400003 .020000004 .20400003 .033 .20400003 L .651 .20400003 M .6470001 0 C .66200008 0 .6840001 0 .6840001 .022 C .6840001 .042999999 .6650001 .042999999 .651 .042999999 L .033 .042999999 C .020000004 .042999999 0 .042999999 0 .022 C 0 0 .022 0 .037 0 L .6470001 0 Z "/>
</symbol>
<symbol id="font_3_2">
<path d="M 0 .19600001 L 0 .165 L .273 .165 L .273 .079 C .273 .042000005 .27 .031000002 .19500001 .031000002 L .17300001 .031000002 L .17300001 0 C .23600002 .003 .306 .003 .313 .003 C .318 .003 .39000003 .003 .453 0 L .453 .031000002 L .431 .031000002 C .356 .031000002 .35300002 .042000005 .35300002 .079 L .35300002 .165 L .455 .165 L .455 .19600001 L .35300002 .19600001 L .35300002 .65000006 C .35300002 .67 .35300002 .67700007 .334 .67700007 C .322 .67700007 .321 .67600008 .312 .66200008 L 0 .19600001 M .032000007 .19600001 L .279 .56600007 L .279 .19600001 L .032000007 .19600001 Z "/>
</symbol>
<use xlink:href="#font_3_4" transform="matrix(8.9664,0,0,-8.9664,152.66408,24.38826)" fill="#800000"/>
<use xlink:href="#font_3_2" transform="matrix(8.9664,0,0,-8.9664,162.1326,25.526993)" fill="#800000"/>
<use xlink:href="#font_2_2" transform="matrix(8.9664,0,0,-8.9664,162.03603,109.24809)" fill="#000080"/>
<use xlink:href="#font_3_4" transform="matrix(8.9664,0,0,-8.9664,169.70708,106.27125)" fill="#000080"/>
<symbol id="font_2_1">
<path d="M .462 .41500003 C .425 .40800003 .41400004 .37600003 .41400004 .36100004 C .41400004 .34200005 .42800004 .32500003 .453 .32500003 C .48100005 .32500003 .508 .34900005 .508 .38400004 C .508 .43000005 .45800004 .45300005 .411 .45300005 C .351 .45300005 .316 .40000005 .30400003 .37900005 C .28500004 .42800004 .24100003 .45300005 .193 .45300005 C .086 .45300005 .028 .32500003 .028 .29900003 C .028 .29000003 .035000005 .28700004 .042000005 .28700004 C .051 .28700004 .054000006 .29200004 .056 .298 C .087000008 .397 .15300001 .42800004 .19100002 .42800004 C .22 .42800004 .24600002 .40900005 .24600002 .36200003 C .24600002 .32600004 .20300001 .16600001 .19000001 .11800001 C .18200001 .087000008 .15200001 .025000003 .097 .025000003 C .07700001 .025000003 .056 .032 .046000005 .038000004 C .07300001 .043 .093 .06600001 .093 .092 C .093 .117000009 .074 .128 .055 .128 C .026 .128 0 .10300001 0 .069000009 C 0 .020000002 .054000006 0 .096 0 C .15400002 0 .18800001 .048 .20300001 .075 C .22800002 .009000001 .287 0 .314 0 C .42200003 0 .479 .13000001 .479 .15400002 C .479 .15900001 .47600005 .16600001 .46600003 .16600001 C .455 .16600001 .45400004 .16200002 .44900004 .14700002 C .42700003 .075 .36900003 .025000003 .317 .025000003 C .28800003 .025000003 .261 .043 .261 .091000009 C .261 .113000009 .275 .16800002 .284 .20600002 C .28800003 .22400002 .31500004 .33200003 .317 .33900003 C .32900004 .37500004 .35900004 .42800004 .41000004 .42800004 C .42800004 .42800004 .44700004 .42500005 .462 .41500003 Z "/>
</symbol>
<use xlink:href="#font_2_1" transform="matrix(8.9664,0,0,-8.9664,179.192,107.50861)" fill="#000080"/>
<symbol id="font_4_1">
<path d="M .46600006 .187 L .42900006 .187 C .42700003 .17300001 .41700004 .10700001 .40200005 .096 C .395 .09 .314 .09 .3 .09 L .113 .09 L .24100003 .194 C .275 .22100002 .36400003 .28500004 .395 .31500004 C .425 .34500004 .46600006 .39600004 .46600006 .467 C .46600006 .592 .35300002 .665 .21900001 .665 C .089999999 .665 0 .58000007 0 .48600004 C 0 .43500004 .042999999 .42900003 .053999999 .42900003 C .079 .42900003 .108 .44700004 .108 .483 C .108 .505 .095000009 .537 .051 .537 C .07400001 .588 .13500002 .62600007 .20400003 .62600007 C .30900003 .62600007 .365 .54800006 .365 .467 C .365 .39600004 .31800003 .323 .24800003 .259 L .011 .042000005 C .001000002 .032 0 .031000002 0 0 L .43500004 0 L .46600006 .187 Z "/>
</symbol>
<use xlink:href="#font_4_1" transform="matrix(5.9776,0,0,-5.9776,184.5764,103.10298)" fill="#000080"/>
<symbol id="font_5_1">
<path d="M .38800005 .034999968 C .16300002 .25399996 .083000008 .56700006 .083000008 .89900007 C .083000008 1.1850001 .14400003 1.5280001 .38400004 1.7620001 C .38800005 1.7650001 .39800004 1.774 .40200005 1.7780001 C .405 1.781 .405 1.784 .405 1.7870001 C .405 1.799 .39400003 1.799 .38300006 1.799 C .37000004 1.799 .368 1.799 .36100004 1.794 C .14600003 1.6190001 0 1.3080001 0 .90000006 C 0 .56000009 .103000018 .23399997 .33800004 .026000023 C .35300002 .011999965 .36200003 .004999995 .363 .0039999487 C .368 0 .37000004 0 .38300006 0 C .39400003 0 .405 0 .405 .011999965 C .405 .013999939 .405 .016000033 .404 .018000007 L .38800005 .034999968 Z "/>
</symbol>
<use xlink:href="#font_5_1" transform="matrix(7.9701,0,0,-7.9701,29.00726,173.61554)"/>
<symbol id="font_6_1">
<path d="M .61100009 0 C .62700006 0 .64900007 0 .64900007 .022999987 C .64900007 .04599999 .62700006 .04599999 .61100009 .04599999 L .037999996 .04599999 C .022 .04599999 0 .04599999 0 .022999987 C 0 0 .022 0 .037999996 0 L .61100009 0 Z "/>
</symbol>
<use xlink:href="#font_6_1" transform="matrix(7.9701,0,0,-7.9701,33.23537,166.63378)"/>
<symbol id="font_7_3">
<path d="M .09400001 .35200004 C .09400001 .43500004 .10100001 .508 .13700001 .56900009 C .16700001 .6190001 .21800003 .6600001 .28100003 .6600001 C .30100004 .6600001 .34700004 .65700009 .37000004 .62200006 C .32500003 .62000009 .321 .586 .321 .57500007 C .321 .5450001 .344 .52800008 .36800004 .52800008 C .386 .52800008 .41500003 .53900006 .41500003 .5770001 C .41500003 .6370001 .37000004 .68600007 .28 .68600007 C .141 .68600007 0 .5540001 0 .338 C 0 .067 .126 0 .22300002 0 C .27100004 0 .323 .013000001 .36800004 .056 C .40800003 .095 .44200004 .13700001 .44200004 .224 C .44200004 .35500003 .34300003 .44700004 .23200003 .44700004 C .16000001 .44700004 .11700001 .40100003 .09400001 .35200004 M .22300002 .030000002 C .17000002 .030000002 .13700001 .067 .12200001 .095 C .09900001 .14 .097 .208 .097 .246 C .097 .345 .15100001 .41900004 .22800002 .41900004 C .27800004 .41900004 .30800004 .393 .32700003 .358 C .34800003 .321 .34800003 .27600003 .34800003 .22500001 C .34800003 .17400001 .34800003 .13000001 .328 .09400001 C .30200003 .048 .26700003 .030000002 .22300002 .030000002 Z "/>
</symbol>
<use xlink:href="#font_7_3" transform="matrix(7.9701,0,0,-7.9701,39.471689,168.61037)"/>
<symbol id="font_8_1">
<path d="M .095 .208 C .095 .143 .081 .085999999 .019000002 .023999989 C .015000001 .020999998 .012999997 .018999994 .012999997 .013999999 C .012999997 .0059999974 .020999998 0 .027999998 0 C .03999999 0 .122999999 .078999999 .122999999 .19600001 C .122999999 .26 .09900001 .30400003 .054999994 .30400003 C .019999996 .30400003 0 .27600003 0 .24900002 C 0 .221 .019000002 .193 .055999996 .193 C .08 .193 .095 .207 .095 .208 Z "/>
</symbol>
<use xlink:href="#font_8_1" transform="matrix(7.9701,0,0,-7.9701,44.088254,169.98122)"/>
<symbol id="font_6_2">
<path d="M .33800004 .110000018 L .149 .49800004 C .14400001 .50900009 .14000002 .51400008 .13200002 .51400008 C .128 .51400008 .126 .513 .11600001 .50600007 L .014000006 .435 C 0 .426 0 .421 0 .41800005 C 0 .412 .0050000029 .40400005 .014000006 .40400005 C .018000007 .40400005 .020000004 .40400005 .032000007 .41400004 C .045 .422 .06500001 .43700005 .082 .449 L .29200004 .018000007 C .30100004 0 .305 0 .31500004 0 C .33200003 0 .335 .004999995 .34300003 .021000028 L .82600006 .95800009 C .83400008 .97200009 .83400008 .97400006 .83400008 .97800007 C .83400008 .99000009 .82400009 1.001 .81100007 1.001 C .79800006 1.001 .794 .99300006 .78700008 .98 L .33800004 .110000018 Z "/>
</symbol>
<use xlink:href="#font_6_1" transform="matrix(7.9701,0,0,-7.9701,47.820375,166.63378)"/>
<use xlink:href="#font_6_2" transform="matrix(7.9701,0,0,-7.9701,54.29479,169.07245)"/>
<path transform="matrix(1,0,0,-1,60.762,161.28099)" stroke-width="1" stroke-linecap="butt" stroke-miterlimit="10" stroke-linejoin="miter" fill="none" stroke="#000000" d="M 0 0 L 4.234 0 "/>
<symbol id="font_7_2">
<path d="M .20900002 .35500003 C .28800003 .35500003 .33800004 .29700003 .33800004 .192 C .33800004 .067 .26700003 .030000002 .21400002 .030000002 C .15900001 .030000002 .08400001 .050000006 .049 .103 C .08500001 .103 .110000018 .126 .110000018 .15900001 C .110000018 .191 .08700001 .214 .055000005 .214 C .028 .214 0 .19700001 0 .157 C 0 .062000004 .10200001 0 .21600002 0 C .349 0 .44200004 .09200001 .44200004 .192 C .44200004 .275 .37600003 .351 .27400003 .37300004 C .35300002 .40100003 .41200004 .469 .41200004 .549 C .41200004 .62900009 .32200004 .68600007 .21800003 .68600007 C .111 .68600007 .029999998 .6280001 .029999998 .55200007 C .029999998 .51500007 .055000005 .499 .081 .499 C .112 .499 .13200002 .521 .13200002 .5500001 C .13200002 .5870001 .10000001 .6010001 .07800001 .60200008 C .120000008 .65700009 .19700001 .6600001 .215 .6600001 C .24100003 .6600001 .31700004 .65200009 .31700004 .549 C .31700004 .47900004 .28800003 .437 .27400003 .421 C .24400002 .39000003 .22100002 .388 .16000001 .384 C .141 .38300003 .133 .38200004 .133 .36900003 C .133 .35500003 .142 .35500003 .15900001 .35500003 L .20900002 .35500003 Z "/>
</symbol>
<use xlink:href="#font_7_2" transform="matrix(7.9701,0,0,-7.9701,61.112688,168.61037)"/>
<symbol id="font_5_2">
<path d="M .40500004 .90000006 C .40500004 1.233 .305 1.562 .067 1.7730001 C .052 1.7870001 .043000007 1.794 .042000005 1.7950001 C .037 1.799 .035000005 1.799 .022000004 1.799 C .013 1.799 0 1.799 0 1.7870001 C 0 1.7830001 0 1.781 .017 1.764 C .24800003 1.541 .32200004 1.217 .32200004 .89900007 C .32200004 .61600008 .26200003 .27100004 .021000002 .03699994 C .017 .03400004 .007000003 .02399993 .0030000024 .021000028 C .0020000004 .018999935 0 .016000033 0 .011999965 C 0 0 .013 0 .022000004 0 C .035000005 0 .037 0 .044 .004999995 C .25500003 .17700005 .40500004 .485 .40500004 .90000006 Z "/>
</symbol>
<use xlink:href="#font_5_2" transform="matrix(7.9701,0,0,-7.9701,65.29089,173.61554)"/>
<use xlink:href="#font_5_1" transform="matrix(7.9701,0,0,-7.9701,32.30026,95.228549)"/>
<use xlink:href="#font_6_1" transform="matrix(7.9701,0,0,-7.9701,36.528367,88.24678)"/>
<use xlink:href="#font_7_3" transform="matrix(7.9701,0,0,-7.9701,42.764688,90.223369)"/>
<use xlink:href="#font_8_1" transform="matrix(7.9701,0,0,-7.9701,47.381254,91.59422)"/>
<use xlink:href="#font_6_2" transform="matrix(7.9701,0,0,-7.9701,51.00179,90.68543)"/>
<path transform="matrix(1,0,0,-1,57.469,82.894)" stroke-width="1" stroke-linecap="butt" stroke-miterlimit="10" stroke-linejoin="miter" fill="none" stroke="#000000" d="M 0 0 L 4.234 0 "/>
<use xlink:href="#font_7_2" transform="matrix(7.9701,0,0,-7.9701,57.819688,90.223369)"/>
<use xlink:href="#font_5_2" transform="matrix(7.9701,0,0,-7.9701,61.9979,95.228549)"/>
<use xlink:href="#font_5_1" transform="matrix(7.9701,0,0,-7.9701,143.03026,173.61554)"/>
<symbol id="font_7_1">
<path d="M .448 .34 C .448 .44700004 .437 .512 .404 .57600006 C .36 .66400006 .279 .68600007 .224 .68600007 C .09800001 .68600007 .052 .59200009 .038000004 .56400009 C .0020000004 .49100004 0 .39200003 0 .34 C 0 .27400003 .0030000024 .17300001 .051000008 .09300001 C .09700001 .019000002 .171 0 .224 0 C .272 0 .358 .0150000019 .40800003 .11400001 C .44500003 .186 .448 .275 .448 .34 M .224 .028 C .19 .028 .121 .044000005 .1 .149 C .08900001 .206 .08900001 .3 .08900001 .35200004 C .08900001 .421 .08900001 .49100004 .1 .54600009 C .121 .64800009 .199 .65800008 .224 .65800008 C .25800003 .65800008 .32700003 .64100006 .347 .5500001 C .359 .49500004 .359 .42000003 .359 .35200004 C .359 .293 .359 .20300001 .347 .147 C .326 .042000005 .257 .028 .224 .028 Z "/>
</symbol>
<use xlink:href="#font_7_1" transform="matrix(7.9701,0,0,-7.9701,146.88477,168.61037)"/>
<use xlink:href="#font_8_1" transform="matrix(7.9701,0,0,-7.9701,151.52524,169.98122)"/>
<use xlink:href="#font_6_1" transform="matrix(7.9701,0,0,-7.9701,155.25737,166.63378)"/>
<use xlink:href="#font_6_2" transform="matrix(7.9701,0,0,-7.9701,161.73178,169.07245)"/>
<path transform="matrix(1,0,0,-1,168.199,161.28099)" stroke-width="1" stroke-linecap="butt" stroke-miterlimit="10" stroke-linejoin="miter" fill="none" stroke="#000000" d="M 0 0 L 4.234 0 "/>
<use xlink:href="#font_7_2" transform="matrix(7.9701,0,0,-7.9701,168.54969,168.61037)"/>
<use xlink:href="#font_5_2" transform="matrix(7.9701,0,0,-7.9701,172.72789,173.61554)"/>
<use xlink:href="#font_5_1" transform="matrix(7.9701,0,0,-7.9701,138.55327,81.395549)"/>
<use xlink:href="#font_7_1" transform="matrix(7.9701,0,0,-7.9701,142.40679,76.390369)"/>
<use xlink:href="#font_8_1" transform="matrix(7.9701,0,0,-7.9701,147.04726,77.76122)"/>
<use xlink:href="#font_6_2" transform="matrix(7.9701,0,0,-7.9701,150.6678,76.85243)"/>
<path transform="matrix(1,0,0,-1,157.13501,69.061)" stroke-width="1" stroke-linecap="butt" stroke-miterlimit="10" stroke-linejoin="miter" fill="none" stroke="#000000" d="M 0 0 L 4.234 0 "/>
<use xlink:href="#font_7_2" transform="matrix(7.9701,0,0,-7.9701,157.48569,76.390369)"/>
<use xlink:href="#font_5_2" transform="matrix(7.9701,0,0,-7.9701,161.6639,81.395549)"/>
</g>
<symbol id="font_9_1">
<path d="M .589 0 C .607 0 .626 0 .626 .022 C .626 .042999999 .606 .042999999 .589 .042999999 L .037 .042999999 C .020000004 .042999999 0 .042999999 0 .022 C 0 0 .019000002 0 .037 0 L .589 0 Z "/>
</symbol>
<use xlink:href="#font_9_1" transform="matrix(8.9664,0,0,-8.9664,14.50911,136.3787)"/>
<symbol id="font_3_3">
<path d="M .091000009 .35300005 C .091000009 .45500005 .10200001 .512 .12900001 .56400009 C .149 .605 .19800002 .66300007 .272 .66300007 C .292 .66300007 .338 .65900006 .361 .623 C .324 .623 .308 .60400006 .308 .577 C .308 .55100008 .326 .531 .354 .531 C .382 .531 .40100003 .549 .40100003 .57900008 C .40100003 .63500007 .361 .688 .27 .688 C .14100002 .688 0 .56100007 0 .33800004 C 0 .067 .12200001 0 .216 0 C .327 0 .42700003 .093 .42700003 .22500001 C .42700003 .35200004 .335 .44800005 .22200002 .44800005 C .16200002 .44800005 .119 .41300006 .091000009 .35300005 M .21500002 .028 C .158 .028 .12500002 .075 .113000009 .104 C .09400001 .149 .09300001 .23200001 .09300001 .24800001 C .09300001 .31500004 .12400001 .42300005 .22000002 .42300005 C .23600002 .42300005 .285 .42300005 .317 .36100004 C .336 .32300005 .336 .27400003 .336 .22600001 C .336 .178 .336 .12900001 .317 .092 C .286 .035000005 .24200003 .028 .21500002 .028 Z "/>
</symbol>
<use xlink:href="#font_3_3" transform="matrix(8.9664,0,0,-8.9664,21.291556,138.62926)"/>
<use xlink:href="#font_9_1" transform="matrix(8.9664,0,0,-8.9664,53.36211,136.3787)"/>
<use xlink:href="#font_3_2" transform="matrix(8.9664,0,0,-8.9664,60.018026,138.43199)"/>
<use xlink:href="#font_9_1" transform="matrix(8.9664,0,0,-8.9664,92.21411,136.3787)"/>
<symbol id="font_3_1">
<path d="M .411 .177 L .38300003 .177 C .381 .164 .37300004 .105000007 .36 .089 C .35400004 .080000009 .28500004 .080000009 .26500003 .080000009 L .08700001 .080000009 L .18600002 .17400001 C .35000003 .316 .411 .36900003 .411 .47100003 C .411 .586 .316 .666 .19300002 .666 C .07800001 .666 0 .57500007 0 .48400004 C 0 .43400003 .043 .42900003 .052000006 .42900003 C .074 .42900003 .104 .44500003 .104 .48100005 C .104 .51100006 .083000008 .53300008 .052000006 .53300008 C .047000003 .53300008 .044000005 .53300008 .040000004 .532 C .063999999 .60300007 .128 .63500007 .18200001 .63500007 C .284 .63500007 .319 .54 .319 .47100003 C .319 .36900003 .24200002 .286 .194 .23400001 L .011 .036000004 C 0 .025 0 .023000002 0 0 L .38300003 0 L .411 .177 Z "/>
</symbol>
<use xlink:href="#font_3_1" transform="matrix(8.9664,0,0,-8.9664,99.06828,138.43199)"/>
<use xlink:href="#font_3_1" transform="matrix(8.9664,0,0,-8.9664,173.19029,138.43199)"/>
<use xlink:href="#font_3_1" transform="matrix(8.9664,0,0,-8.9664,126.636287,84.03598)"/>
<use xlink:href="#font_3_2" transform="matrix(8.9664,0,0,-8.9664,126.439029,37.925996)"/>
<path transform="matrix(1,0,0,-1,.199,173.36699)" stroke-width="1" stroke-linecap="butt" stroke-miterlimit="10" stroke-linejoin="miter" fill="none" stroke="#000000" d="M 18.01765 4.81598 L 20.83556 7.63388 M 18.01765 7.63388 L 20.83556 4.81598 "/>
<path transform="matrix(1,0,0,-1,.199,173.36699)" stroke-width="1" stroke-linecap="butt" stroke-miterlimit="10" stroke-linejoin="miter" fill="none" stroke="#000000" d="M 18.01765 84.58739 L 20.83556 87.40529 M 18.01765 87.40529 L 20.83556 84.58739 "/>
<path transform="matrix(1,0,0,-1,.199,173.36699)" stroke-width="1" stroke-linecap="butt" stroke-miterlimit="10" stroke-linejoin="miter" fill="none" stroke="#000000" d="M 134.5773 4.81598 L 137.3952 7.63388 M 134.5773 7.63388 L 137.3952 4.81598 "/>
<path transform="matrix(1,0,0,-1,.199,173.36699)" d="M 137.9788 85.99634 C 137.9788 87.0968 137.08672 87.98889 135.98625 87.98889 C 134.88578 87.98889 133.9937 87.0968 133.9937 85.99634 C 133.9937 84.89586 134.88578 84.00378 135.98625 84.00378 C 137.08672 84.00378 137.9788 84.89586 137.9788 85.99634 Z M 135.98625 85.99634 "/>
<path transform="matrix(1,0,0,-1,.199,173.36699)" stroke-width="1" stroke-linecap="butt" stroke-miterlimit="10" stroke-linejoin="miter" fill="none" stroke="#000000" d="M 137.9788 85.99634 C 137.9788 87.0968 137.08672 87.98889 135.98625 87.98889 C 134.88578 87.98889 133.9937 87.0968 133.9937 85.99634 C 133.9937 84.89586 134.88578 84.00378 135.98625 84.00378 C 137.08672 84.00378 137.9788 84.89586 137.9788 85.99634 Z M 135.98625 85.99634 "/>
<use xlink:href="#font_2_1" transform="matrix(8.9664,0,0,-8.9664,198.04001,129.27663)"/>
<use xlink:href="#font_2_2" transform="matrix(8.9664,0,0,-8.9664,134.03403,8.770103)"/>
<path transform="matrix(1,0,0,-1,.199,173.36699)" stroke-width="1" stroke-linecap="butt" stroke-miterlimit="10" stroke-linejoin="miter" fill="none" stroke="#808080" d="M 19.4266 43.98465 L 19.4266 48.2366 M 58.27982 43.98465 L 58.27982 48.2366 M 97.13303 43.98465 L 97.13303 48.2366 M 174.83946 43.98465 L 174.83946 48.2366 "/>
<path transform="matrix(1,0,0,-1,.199,173.36699)" stroke-width="1" stroke-linecap="butt" stroke-miterlimit="10" stroke-linejoin="miter" fill="none" stroke="#808080" d="M 133.86034 92.22127 L 138.11215 92.22127 M 133.86034 138.33191 L 138.11215 138.33191 "/>
<path transform="matrix(1,0,0,-1,.199,173.36699)" stroke-width="1" stroke-linecap="butt" stroke-miterlimit="10" stroke-linejoin="miter" fill="none" stroke="#000000" d="M 0 46.11063 L 192.27355 46.11063 "/>
<path transform="matrix(1,0,0,-1,192.47255,127.25636)" d="M 1.99252 0 L -1.19551 1.59401 L 0 0 L -1.19551 -1.59401 "/>
<path transform="matrix(1,0,0,-1,.199,173.36699)" stroke-width="1" stroke-linecap="butt" stroke-miterlimit="10" stroke-linejoin="miter" fill="none" stroke="#000000" d="M 135.98625 0 L 135.98625 159.39472 "/>
<path transform="matrix(0,-1,-1,-0,136.18526,13.972275)" d="M 1.99252 0 L -1.19551 1.59401 L 0 0 L -1.19551 -1.59401 "/>
</svg>
