<?xml version="1.0" encoding="UTF-8" standalone="no"?>
<!DOCTYPE svg PUBLIC "-//W3C//DTD SVG 1.1//EN" "http://www.w3.org/Graphics/SVG/1.1/DTD/svg11.dtd">
<svg xmlns="http://www.w3.org/2000/svg" xmlns:xlink="http://www.w3.org/1999/xlink" version="1.1" width="198.259pt" height="144.483pt" viewBox="0 0 198.259 144.483">
<path transform="matrix(1,0,0,-1,28.944,115.539)" stroke-width="1.19553" stroke-linecap="butt" stroke-miterlimit="10" stroke-linejoin="miter" fill="none" stroke="#8080bf" d="M -28.3468 0 L 110.19914 0 "/>
<path transform="matrix(1,0,0,-1,139.14315,115.539)" d="M 3.18808 0 L -1.91284 2.55046 L 0 0 L -1.91284 -2.55046 " fill="#8080bf"/>
<path transform="matrix(1,0,0,-1,28.944,115.539)" stroke-width="1.19553" stroke-linecap="butt" stroke-miterlimit="10" stroke-linejoin="miter" fill="none" stroke="#8080bf" d="M 0 -28.3468 L 0 110.19914 "/>
<path transform="matrix(0,-1,-1,-0,28.944,5.339859)" d="M 3.18808 0 L -1.91284 2.55046 L 0 0 L -1.91284 -2.55046 " fill="#8080bf"/>
<path transform="matrix(1,0,0,-1,28.944,115.539)" stroke-width="1.19553" stroke-linecap="butt" stroke-miterlimit="10" stroke-linejoin="miter" fill="none" stroke="#000080" d="M 0 85.04042 L 0 110.19914 "/>
<path transform="matrix(0,-1,-1,-0,28.944,5.339859)" d="M 3.18808 0 L -1.91284 2.55046 L 0 0 L -1.91284 -2.55046 " fill="#000080"/>
<path transform="matrix(1,0,0,-1,28.944,115.539)" stroke-width="1.19553" stroke-linecap="butt" stroke-miterlimit="10" stroke-linejoin="miter" fill="none" stroke="#000080" d="M 85.04042 0 L 110.19914 0 "/>
<path transform="matrix(1,0,0,-1,139.14315,115.539)" d="M 3.18808 0 L -1.91284 2.55046 L 0 0 L -1.91284 -2.55046 " fill="#000080"/>
<path transform="matrix(1,0,0,-1,28.944,115.539)" d="M 1.98447 0 C 1.98447 1.096 1.096 1.98447 0 1.98447 C -1.096 1.98447 -1.98447 1.096 -1.98447 0 C -1.98447 -1.096 -1.096 -1.98447 0 -1.98447 C 1.096 -1.98447 1.98447 -1.096 1.98447 0 Z M 0 0 " fill="#000080"/>
<path transform="matrix(1,0,0,-1,28.944,115.539)" stroke-width="1" stroke-linecap="butt" stroke-miterlimit="10" stroke-linejoin="miter" fill="none" stroke="#000080" d="M 1.98447 0 C 1.98447 1.096 1.096 1.98447 0 1.98447 C -1.096 1.98447 -1.98447 1.096 -1.98447 0 C -1.98447 -1.096 -1.096 -1.98447 0 -1.98447 C 1.096 -1.98447 1.98447 -1.096 1.98447 0 Z M 0 0 "/>
<path transform="matrix(1,0,0,-1,28.944,115.539)" d="M 87.0249 0 C 87.0249 1.096 86.13643 1.98447 85.04042 1.98447 C 83.94443 1.98447 83.05594 1.096 83.05594 0 C 83.05594 -1.096 83.94443 -1.98447 85.04042 -1.98447 C 86.13643 -1.98447 87.0249 -1.096 87.0249 0 Z M 85.04042 0 " fill="#000080"/>
<path transform="matrix(1,0,0,-1,28.944,115.539)" stroke-width="1" stroke-linecap="butt" stroke-miterlimit="10" stroke-linejoin="miter" fill="none" stroke="#000080" d="M 87.0249 0 C 87.0249 1.096 86.13643 1.98447 85.04042 1.98447 C 83.94443 1.98447 83.05594 1.096 83.05594 0 C 83.05594 -1.096 83.94443 -1.98447 85.04042 -1.98447 C 86.13643 -1.98447 87.0249 -1.096 87.0249 0 Z M 85.04042 0 "/>
<path transform="matrix(1,0,0,-1,28.944,115.539)" d="M 1.98447 85.04042 C 1.98447 86.13643 1.096 87.0249 0 87.0249 C -1.096 87.0249 -1.98447 86.13643 -1.98447 85.04042 C -1.98447 83.94443 -1.096 83.05594 0 83.05594 C 1.096 83.05594 1.98447 83.94443 1.98447 85.04042 Z M 0 85.04042 " fill="#000080"/>
<path transform="matrix(1,0,0,-1,28.944,115.539)" stroke-width="1" stroke-linecap="butt" stroke-miterlimit="10" stroke-linejoin="miter" fill="none" stroke="#000080" d="M 1.98447 85.04042 C 1.98447 86.13643 1.096 87.0249 0 87.0249 C -1.096 87.0249 -1.98447 86.13643 -1.98447 85.04042 C -1.98447 83.94443 -1.096 83.05594 0 83.05594 C 1.096 83.05594 1.98447 83.94443 1.98447 85.04042 Z M 0 85.04042 "/>
<path transform="matrix(1,0,0,-1,28.944,115.539)" stroke-width="1.19553" stroke-linecap="butt" stroke-dasharray="2.98883,2.98883" stroke-miterlimit="10" stroke-linejoin="miter" fill="none" stroke="#800000" d="M 85.04042 0 L 0 85.04042 "/>
<symbol id="font_0_a">
<path d="M .29700003 .17900002 C .29000003 .15100001 .289 .13000001 .289 .116000007 C .289 .105000007 .25800003 .022000002 .20500002 .022000002 C .135 .022000002 .135 .096 .135 .109000008 C .135 .16300002 .16100002 .23700002 .192 .31900005 C .199 .33800004 .204 .35300002 .204 .37200005 C .204 .42200003 .171 .45300005 .128 .45300005 C .035000005 .45300005 0 .305 0 .29900003 C 0 .28900004 .009999998 .28900004 .015000001 .28900004 C .028000005 .28900004 .029 .291 .033 .305 C .041 .33600004 .068 .43100003 .126 .43100003 C .13700001 .43100003 .148 .42800004 .148 .40200005 C .148 .37800003 .13800001 .351 .12400001 .31200005 C .074 .17600002 .074 .15000002 .074 .123 C .074 .089 .082 .055000005 .10800001 .031000004 C .14 .0030000006 .185 0 .20200002 0 C .234 0 .26900003 .013000001 .29900003 .064 C .314 .027000003 .354 0 .41300003 0 C .47300006 0 .51500007 .041 .545 .112 C .57500007 .18000002 .614 .33400003 .614 .38700003 C .614 .42200003 .60200008 .45300005 .573 .45300005 C .55 .45300005 .52500006 .43000005 .52500006 .40700004 C .52500006 .39400003 .532 .38700003 .53800007 .38000003 C .56200006 .35400004 .565 .32200004 .565 .30100004 C .565 .261 .53300008 .15600002 .51600006 .115 C .49400003 .063 .462 .022000002 .416 .022000002 C .36600004 .022000002 .35000003 .063 .35000003 .105000007 C .35000003 .11400001 .351 .13800001 .36200003 .18200001 L .404 .35000003 C .41000004 .37200005 .42000003 .41200004 .42000003 .41600005 C .42000003 .42700003 .41200004 .44200004 .39200003 .44200004 C .363 .44200004 .356 .41500003 .354 .40700004 L .29700003 .17900002 Z "/>
</symbol>
<symbol id="font_0_6">
<path d="M .228 .68 C .22900002 .683 .23100002 .691 .23100002 .693 C .23100002 .702 .22500001 .705 .21700002 .705 C .214 .705 .20400001 .704 .20100002 .703 L .102 .695 C .09 .694 .07900001 .693 .07900001 .674 C .07900001 .663 .089 .663 .103 .663 C .15100001 .663 .15300001 .656 .15300001 .646 C .15300001 .643 .15 .63 .15 .629 L .002000004 .039 C .001000002 .037 0 .028 0 .026 C 0 .015000001 .009000003 0 .028000005 0 C .049000004 0 .062000008 .017 .065 .028 C .069000009 .043 .10100001 .17300001 .10800001 .20100002 C .113000009 .22300002 .119 .24400002 .12400001 .26600004 C .133 .30200003 .134 .30400003 .15200001 .33600004 C .172 .36800004 .21500002 .43100003 .28500004 .43100003 C .329 .43100003 .33100004 .38600005 .33100004 .365 C .33100004 .30300004 .287 .18400002 .273 .14400001 C .26 .11000001 .25700004 .101 .25700004 .080000009 C .25700004 .036000004 .28500004 0 .333 0 C .42600007 0 .46000005 .14900002 .46000005 .15400002 C .46000005 .16400002 .45200003 .16400002 .44500006 .16400002 C .43200005 .16400002 .43200005 .16200002 .42800004 .14700002 C .42000003 .120000008 .393 .022000002 .33500005 .022000002 C .314 .022000002 .31300003 .037 .31300003 .051000004 C .31300003 .076000008 .323 .102000009 .33100004 .126 C .351 .17900002 .39200003 .291 .39200003 .34900005 C .39200003 .43100003 .337 .45300005 .288 .45300005 C .221 .45300005 .186 .418 .155 .388 L .228 .68 Z "/>
</symbol>
<symbol id="font_0_5">
<path d="M .125 .24200002 C .15500002 .24200002 .22200002 .24500002 .26999999 .26400004 C .34900005 .29600004 .34900005 .36100004 .34900005 .36800004 C .34900005 .41400004 .31200005 .45300005 .24800001 .45300005 C .14299999 .45300005 0 .35200004 0 .17500001 C 0 .085 .047999994 0 .14299999 0 C .27100004 0 .35400004 .1 .35400004 .115 C .35400004 .120000008 .34600003 .13100001 .338 .13100001 C .334 .13100001 .333 .13000001 .325 .120000008 C .251 .026 .16200002 .022000002 .145 .022000002 C .08 .022000002 .069000009 .093 .069000009 .13200002 C .069000009 .17000002 .078999999 .21500002 .085999999 .24200002 L .125 .24200002 M .09200001 .26400004 C .135 .42800004 .23800002 .43100003 .24800001 .43100003 C .288 .43100003 .311 .404 .311 .37000004 C .311 .26400004 .14600002 .26400004 .113000009 .26400004 L .09200001 .26400004 Z "/>
</symbol>
<symbol id="font_0_9">
<path d="M .147 .18600002 C .15200001 .20800002 .158 .22900002 .163 .25100003 C .176 .30200003 .176 .30300004 .19300002 .33200003 C .20700002 .35600005 .252 .43100003 .328 .43100003 C .372 .43100003 .374 .38600005 .374 .365 C .374 .30300004 .33 .18400002 .316 .14400001 C .303 .11000001 .3 .101 .3 .080000009 C .3 .036000004 .328 0 .37600003 0 C .46900005 0 .503 .14900002 .503 .15400002 C .503 .16400002 .495 .16400002 .48800005 .16400002 C .47500003 .16400002 .47500003 .16200002 .47100003 .14700002 C .463 .120000008 .43600006 .022000002 .37800003 .022000002 C .35700003 .022000002 .356 .037 .356 .051000004 C .356 .076000008 .36600004 .102000009 .374 .126 C .39400003 .17900002 .435 .291 .435 .34900005 C .435 .43100003 .38000003 .45300005 .33100004 .45300005 C .24900002 .45300005 .201 .39300005 .18800003 .374 C .181 .42300005 .147 .45300005 .104 .45300005 C .068 .45300005 .048000009 .43000005 .031999999 .40000005 C .012999997 .36 0 .30100004 0 .29900003 C 0 .28900004 .009999998 .28900004 .015000001 .28900004 C .028000005 .28900004 .029 .29000003 .034 .31200005 C .052 .38200004 .07100001 .43100003 .102 .43100003 C .128 .43100003 .128 .40200005 .128 .39100004 C .128 .37500004 .125 .35600005 .12100001 .34000004 L .046000005 .040000004 C .044 .034 .042999999 .029000003 .042999999 .026 C .042999999 .015000001 .051 0 .07100001 0 C .083000008 0 .10000001 .0070000009 .10700001 .026 L .147 .18600002 Z "/>
</symbol>
<use xlink:href="#font_0_a" transform="matrix(9.9626,0,0,-9.9626,84.9519,10.422592)" fill="#000080"/>
<use xlink:href="#font_0_6" transform="matrix(9.9626,0,0,-9.9626,91.48736,10.422592)" fill="#000080"/>
<use xlink:href="#font_0_5" transform="matrix(9.9626,0,0,-9.9626,96.96679,10.422592)" fill="#000080"/>
<use xlink:href="#font_0_9" transform="matrix(9.9626,0,0,-9.9626,101.240749,10.422592)" fill="#000080"/>
<symbol id="font_1_3">
<path d="M .33300004 .38900004 C .31500004 .42600004 .286 .45300005 .24100001 .45300005 C .124 .45300005 0 .30600003 0 .16000001 C 0 .06600001 .055000005 0 .133 0 C .153 0 .20300001 .0040000008 .263 .075 C .27100004 .033000005 .30600003 0 .35400004 0 C .38900004 0 .41200004 .023000002 .42800004 .055000005 C .44500003 .091000009 .45800004 .15200001 .45800004 .15400002 C .45800004 .16400002 .44900004 .16400002 .44600005 .16400002 C .43600003 .16400002 .43500004 .16000001 .43200005 .14600002 C .41500003 .081 .397 .022000002 .35600005 .022000002 C .32900004 .022000002 .32600004 .048 .32600004 .068 C .32600004 .09 .32800005 .098000008 .33900003 .14200002 C .35000003 .18400002 .35200004 .19400002 .36100004 .23200003 L .397 .37200005 C .40400005 .40000005 .40400005 .40200005 .40400005 .40600003 C .40400005 .42300005 .39200003 .43300004 .37500004 .43300004 C .35100005 .43300004 .33600004 .411 .33300004 .38900004 M .26800005 .13000001 C .263 .112 .263 .11000001 .24800001 .093 C .20400001 .038000004 .163 .022000002 .135 .022000002 C .08499999 .022000002 .07100001 .077 .07100001 .116000007 C .07100001 .16600001 .103 .28900004 .126 .335 C .157 .39400003 .202 .43100003 .242 .43100003 C .307 .43100003 .32100005 .34900005 .32100005 .34300003 C .32100005 .337 .31900005 .33100004 .31800003 .32600004 L .26800005 .13000001 Z "/>
</symbol>
<use xlink:href="#font_1_3" transform="matrix(9.9626,0,0,-9.9626,109.983509,10.422592)" fill="#000080"/>
<symbol id="font_2_7">
<path d="M .63100007 .19400002 C .646 .19400002 .665 .19400002 .665 .214 C .665 .23400001 .646 .23400001 .632 .23400001 L .033 .23400001 C .019000002 .23400001 0 .23400001 0 .214 C 0 .19400002 .019000002 .19400002 .034 .19400002 L .63100007 .19400002 M .632 0 C .646 0 .665 0 .665 .02000001 C .665 .040000008 .646 .040000008 .63100007 .040000008 L .034 .040000008 C .019000002 .040000008 0 .040000008 0 .02000001 C 0 0 .019000002 0 .033 0 L .632 0 Z "/>
</symbol>
<symbol id="font_2_4">
<path d="M .24800003 .37400005 C .33 .40100003 .388 .47100006 .388 .55 C .388 .632 .3 .688 .204 .688 C .10300001 .688 .027000003 .628 .027000003 .55200007 C .027000003 .519 .049000004 .5 .078 .5 C .109000008 .5 .12900001 .522 .12900001 .55100008 C .12900001 .6010001 .082 .6010001 .067 .6010001 C .098 .65000006 .164 .66300007 .20000002 .66300007 C .24100003 .66300007 .29600004 .64100006 .29600004 .55100008 C .29600004 .53900006 .29400004 .48100005 .268 .43700005 C .238 .38900004 .204 .38600005 .17900002 .38500003 C .171 .38400004 .14700002 .38200004 .14000002 .38200004 C .132 .38100005 .125 .38000003 .125 .37000004 C .125 .35900004 .132 .35900004 .14900002 .35900004 L .19300002 .35900004 C .275 .35900004 .312 .29100005 .312 .193 C .312 .057000005 .24300003 .028 .199 .028 C .15600002 .028 .081 .045 .046000005 .104 C .081 .09900001 .11200001 .12100001 .11200001 .15900001 C .11200001 .19500001 .085 .215 .056 .215 C .031999999 .215 0 .201 0 .157 C 0 .06600001 .093 0 .20200002 0 C .32400004 0 .41500003 .091000009 .41500003 .193 C .41500003 .27500005 .35200004 .35300005 .24800003 .37400005 Z "/>
</symbol>
<use xlink:href="#font_2_7" transform="matrix(9.9626,0,0,-9.9626,118.17691,8.987978)" fill="#000080"/>
<use xlink:href="#font_2_4" transform="matrix(9.9626,0,0,-9.9626,128.55794,10.532181)" fill="#000080"/>
<symbol id="font_0_7">
<path d="M .228 .68 C .22900002 .683 .23100002 .691 .23100002 .693 C .23100002 .702 .22500001 .705 .21700002 .705 C .214 .705 .20400001 .704 .20100002 .703 L .102 .695 C .09 .694 .07900001 .693 .07900001 .674 C .07900001 .663 .089 .663 .103 .663 C .15100001 .663 .15300001 .656 .15300001 .646 C .15300001 .643 .15 .63 .15 .629 L .002000004 .039 C .001000002 .037 0 .028 0 .026 C 0 .015000001 .009000003 0 .028000005 0 C .058 0 .065 .028 .067 .037 L .118 .24000003 C .155 .23500002 .219 .21400002 .219 .15600002 C .219 .14900002 .219 .14500001 .216 .13100001 C .212 .11400001 .212 .107 .212 .097 C .212 .025000003 .259 0 .296 0 C .34000004 0 .362 .033000005 .37300004 .052 C .39500005 .09 .40900005 .15100001 .40900005 .15400002 C .40900005 .16400002 .40100003 .16400002 .394 .16400002 C .38200004 .16400002 .38100005 .16300002 .375 .14100002 C .362 .09 .343 .022000002 .29900003 .022000002 C .272 .022000002 .27000005 .045 .27000005 .065000008 C .27000005 .08800001 .277 .116000007 .278 .12100001 C .283 .14200002 .283 .143 .283 .15600002 C .283 .22400002 .21300002 .25100003 .15 .26000003 C .17300001 .27400003 .19400002 .29500003 .221 .32600004 C .273 .38500003 .31200005 .43100003 .362 .43100003 C .38100005 .43100003 .388 .42000003 .389 .41900004 C .347 .41200004 .342 .37700004 .342 .36900003 C .342 .35600005 .351 .337 .37700004 .337 C .39900006 .337 .42700006 .35500003 .42700006 .39300005 C .42700006 .41900004 .40900005 .45300005 .36400003 .45300005 C .311 .45300005 .268 .411 .23400001 .37100003 C .177 .305 .16100002 .28900004 .126 .272 L .228 .68 Z "/>
</symbol>
<symbol id="font_0_8">
<path d="M .147 .18600002 C .15200001 .20800002 .158 .22900002 .163 .25100003 C .176 .3 .176 .30200003 .18800003 .323 C .21700001 .37300004 .26000003 .43100003 .32900004 .43100003 C .37500004 .43100003 .37500004 .38000003 .37500004 .365 C .37500004 .33800004 .36800004 .30900003 .36600004 .3 L .301 .040000004 C .29900003 .034 .298 .029000003 .298 .026 C .298 .015000001 .30600003 0 .326 0 C .33800004 0 .35500003 .0070000009 .36200003 .026 L .402 .18600002 C .407 .20800002 .41300003 .22900002 .41800005 .25100003 C .431 .3 .431 .30200003 .44300003 .323 C .472 .37300004 .51500007 .43100003 .58400008 .43100003 C .63000008 .43100003 .63000008 .38000003 .63000008 .365 C .63000008 .30300004 .586 .18400002 .572 .14400001 C .559 .11000001 .55600008 .101 .55600008 .080000009 C .55600008 .036000004 .58400008 0 .632 0 C .725 0 .75900009 .14900002 .75900009 .15400002 C .75900009 .16400002 .75100007 .16400002 .744 .16400002 C .731 .16400002 .731 .16200002 .72700008 .14700002 C .71900007 .120000008 .69200006 .022000002 .634 .022000002 C .61300006 .022000002 .61200007 .037 .61200007 .051000004 C .61200007 .076000008 .62200006 .102000009 .63000008 .126 C .65000006 .17900002 .69100007 .291 .69100007 .34900005 C .69100007 .43300004 .633 .45300005 .586 .45300005 C .51600006 .45300005 .46600003 .40900005 .43600006 .365 C .42800004 .43400003 .37600003 .45300005 .33100004 .45300005 C .271 .45300005 .222 .42000003 .18800003 .374 C .181 .42300005 .147 .45300005 .104 .45300005 C .068 .45300005 .048000009 .43000005 .031999999 .40000005 C .012999997 .36 0 .30100004 0 .29900003 C 0 .28900004 .009999998 .28900004 .015000001 .28900004 C .028000005 .28900004 .029 .29000003 .034 .31200005 C .052 .38200004 .07100001 .43100003 .102 .43100003 C .128 .43100003 .128 .40200005 .128 .39100004 C .128 .37500004 .125 .35600005 .12100001 .34000004 L .046000005 .040000004 C .044 .034 .042999999 .029000003 .042999999 .026 C .042999999 .015000001 .051 0 .07100001 0 C .083000008 0 .10000001 .0070000009 .10700001 .026 L .147 .18600002 Z "/>
</symbol>
<symbol id="font_0_1">
<path d="M .125 .208 C .11000001 .131 .059999996 .067 .012999997 .026999996 C .0009999946 .015000001 0 .013999999 0 .00999999 C 0 .0069999995 .0029999987 0 .009999998 0 C .027999998 0 .151 .121 .151 .24000001 C .151 .273 .137 .29900003 .105 .29900003 C .065000008 .29900003 .04 .264 .04 .23500002 C .04 .20300001 .063 .193 .084 .193 C .103999998 .193 .12 .20400001 .125 .208 Z "/>
</symbol>
<use xlink:href="#font_0_7" transform="matrix(9.9626,0,0,-9.9626,137.42819,10.422592)" fill="#000080"/>
<use xlink:href="#font_0_8" transform="matrix(9.9626,0,0,-9.9626,142.09069,10.422592)" fill="#000080"/>
<use xlink:href="#font_0_1" transform="matrix(9.9626,0,0,-9.9626,150.14048,12.2357859)" fill="#000080"/>
<symbol id="font_1_4">
<path d="M .192 .694 C .192 .695 .192 .705 .179 .705 C .156 .705 .083000008 .697 .057 .695 C .049 .694 .038 .693 .038 .675 C .038 .663 .047000003 .663 .062000004 .663 C .11 .663 .112 .656 .112 .646 C .112 .639 .103 .605 .098000008 .584 L .015999999 .25800003 C .0040000008 .20800002 0 .19200002 0 .15700002 C 0 .062000004 .053 0 .127 0 C .24500002 0 .36800004 .14900002 .36800004 .293 C .36800004 .38400004 .31500004 .45300005 .235 .45300005 C .18900001 .45300005 .148 .42400003 .118 .39300005 L .192 .694 M .098000008 .316 C .104 .33800004 .104 .34000004 .113000009 .351 C .162 .41600005 .207 .43100003 .233 .43100003 C .26900003 .43100003 .29600004 .40100003 .29600004 .337 C .29600004 .27800004 .263 .16300002 .24500002 .12500002 C .212 .058000003 .16600001 .022000002 .127 .022000002 C .092999998 .022000002 .060000007 .049000004 .060000007 .123 C .060000007 .14200002 .060000007 .16100002 .076000008 .22400002 L .098000008 .316 Z "/>
</symbol>
<use xlink:href="#font_1_4" transform="matrix(9.9626,0,0,-9.9626,156.49825,10.422592)" fill="#000080"/>
<symbol id="font_2_5">
<path d="M .266 .165 L .266 .078 C .266 .042000005 .26400004 .031000002 .19000001 .031000002 L .16900002 .031000002 L .16900002 0 C .21000001 .003 .26200003 .003 .30400003 .003 C .34600003 .003 .39900003 .003 .44000004 0 L .44000004 .031000002 L .41900004 .031000002 C .34500004 .031000002 .34300003 .042000005 .34300003 .078 L .34300003 .165 L .44300003 .165 L .44300003 .19600001 L .34300003 .19600001 L .34300003 .651 C .34300003 .671 .34300003 .67700007 .32700003 .67700007 C .31800003 .67700007 .31500004 .67700007 .307 .665 L 0 .19600001 L 0 .165 L .266 .165 M .272 .19600001 L .028 .19600001 L .272 .569 L .272 .19600001 Z "/>
</symbol>
<use xlink:href="#font_2_7" transform="matrix(9.9626,0,0,-9.9626,163.6309,8.987978)" fill="#000080"/>
<use xlink:href="#font_2_5" transform="matrix(9.9626,0,0,-9.9626,173.87245,10.313004)" fill="#000080"/>
<use xlink:href="#font_0_7" transform="matrix(9.9626,0,0,-9.9626,182.88219,10.422592)" fill="#000080"/>
<use xlink:href="#font_0_8" transform="matrix(9.9626,0,0,-9.9626,187.54468,10.422592)" fill="#000080"/>
<symbol id="font_1_6">
<path d="M .47600005 .694 C .47600005 .695 .47600005 .705 .46300004 .705 C .44800005 .705 .35300002 .69600006 .33600004 .694 C .32800005 .693 .32200004 .688 .32200004 .675 C .32200004 .663 .33100004 .663 .34600003 .663 C .39400003 .663 .39600004 .656 .39600004 .646 L .39300005 .626 L .33300004 .38900004 C .31500004 .42600004 .286 .45300005 .24100001 .45300005 C .124 .45300005 0 .30600003 0 .16000001 C 0 .06600001 .055000005 0 .133 0 C .153 0 .20300001 .0040000008 .263 .075 C .27100004 .033000005 .30600003 0 .35400004 0 C .38900004 0 .41200004 .023000002 .42800004 .055000005 C .44500003 .091000009 .45800004 .15200001 .45800004 .15400002 C .45800004 .16400002 .44900004 .16400002 .44600005 .16400002 C .43600003 .16400002 .43500004 .16000001 .43200005 .14600002 C .41500003 .081 .397 .022000002 .35600005 .022000002 C .32900004 .022000002 .32600004 .048 .32600004 .068 C .32600004 .092 .32800005 .09900001 .33200003 .116000007 L .47600005 .694 M .26800005 .13000001 C .263 .112 .263 .11000001 .24800001 .093 C .20400001 .038000004 .163 .022000002 .135 .022000002 C .08499999 .022000002 .07100001 .077 .07100001 .116000007 C .07100001 .16600001 .103 .28900004 .126 .335 C .157 .39400003 .202 .43100003 .242 .43100003 C .307 .43100003 .32100005 .34900005 .32100005 .34300003 C .32100005 .337 .31900005 .33100004 .31800003 .32600004 L .26800005 .13000001 Z "/>
</symbol>
<use xlink:href="#font_1_6" transform="matrix(9.9626,0,0,-9.9626,114.6135,27.281594)" fill="#000080"/>
<use xlink:href="#font_1_3" transform="matrix(9.9626,0,0,-9.9626,119.804019,27.281594)" fill="#000080"/>
<path transform="matrix(1,0,0,-1,114.215,31.421006)" stroke-width="1" stroke-linecap="butt" stroke-miterlimit="10" stroke-linejoin="miter" fill="none" stroke="#000080" d="M 0 0 L 10.452 0 "/>
<symbol id="font_1_7">
<path d="M .18300002 .411 L .277 .411 C .29700003 .411 .307 .411 .307 .43100003 C .307 .44200004 .29700003 .44200004 .279 .44200004 L .19100002 .44200004 C .227 .584 .23200003 .60400006 .23200003 .61 C .23200003 .62700006 .22000002 .637 .20300001 .637 C .2 .637 .172 .636 .163 .601 L .124 .44200004 L .030000002 .44200004 C .009999998 .44200004 0 .44200004 0 .42300005 C 0 .411 .007999999 .411 .028 .411 L .11600001 .411 C .044 .127 .04 .11000001 .04 .092 C .04 .038000004 .078 0 .132 0 C .234 0 .291 .14600002 .291 .15400002 C .291 .16400002 .28300003 .16400002 .279 .16400002 C .27 .16400002 .26900003 .16100002 .264 .15000002 C .22100002 .046 .16800002 .022000002 .134 .022000002 C .113000009 .022000002 .103 .035 .103 .068 C .103 .092 .105000007 .09900001 .109 .116000007 L .18300002 .411 Z "/>
</symbol>
<use xlink:href="#font_1_6" transform="matrix(9.9626,0,0,-9.9626,115.44851,40.85559)" fill="#000080"/>
<use xlink:href="#font_1_7" transform="matrix(9.9626,0,0,-9.9626,120.46966,40.85559)" fill="#000080"/>
<symbol id="font_2_3">
<path d="M .07700001 .07700001 L .18300002 .18 C .33900003 .31800003 .39900003 .372 .39900003 .47200004 C .39900003 .586 .30900003 .666 .18700002 .666 C .074 .666 0 .574 0 .485 C 0 .42900003 .05 .42900003 .053000008 .42900003 C .07000001 .42900003 .105000007 .441 .105000007 .48200003 C .105000007 .508 .08700001 .53400006 .052000006 .53400006 C .044000005 .53400006 .042000008 .53400006 .039 .53300008 C .062000004 .59800007 .11600001 .63500007 .17400001 .63500007 C .26500003 .63500007 .308 .554 .308 .47200004 C .308 .39200003 .25800003 .31300003 .20300003 .25100003 L .011000004 .037 C 0 .026 0 .024 0 0 L .37100003 0 L .39900003 .17400001 L .374 .17400001 C .36900003 .14400001 .36200003 .1 .352 .085 C .345 .07700001 .279 .07700001 .257 .07700001 L .07700001 .07700001 Z "/>
</symbol>
<symbol id="font_2_1">
<path d="M .421 .34200005 C .421 .42200003 .416 .50200006 .381 .57600006 C .335 .67200008 .25300003 .688 .211 .688 C .15100001 .688 .07800001 .66200008 .037000006 .56900009 C .0050000029 .5 0 .42200003 0 .34200005 C 0 .26700003 .0040000008 .177 .045000007 .101 C .088 .020000002 .161 0 .21000001 0 C .264 0 .34 .021000002 .384 .116000007 C .416 .185 .421 .263 .421 .34200005 M .21000001 .022000002 C .171 .022000002 .112 .047000003 .094 .143 C .083000008 .20300001 .083000008 .29500003 .083000008 .35400004 C .083000008 .41800005 .083000008 .48400004 .091000009 .53800007 C .11 .65700009 .185 .66600009 .21000001 .66600009 C .243 .66600009 .30900003 .64800009 .328 .549 C .338 .49300004 .338 .41700004 .338 .35400004 C .338 .279 .338 .21100001 .32700003 .147 C .312 .052 .255 .022000002 .21000001 .022000002 Z "/>
</symbol>
<use xlink:href="#font_2_7" transform="matrix(9.9626,0,0,-9.9626,129.18791,32.586977)" fill="#000080"/>
<use xlink:href="#font_2_3" transform="matrix(9.9626,0,0,-9.9626,139.64864,33.912004)" fill="#000080"/>
<use xlink:href="#font_2_1" transform="matrix(9.9626,0,0,-9.9626,144.52034,34.13118)" fill="#000080"/>
<symbol id="font_0_2">
<path d="M .58900007 .961 C .5960001 .97400006 .5960001 .97800007 .5960001 .98 C .5960001 .99100008 .5870001 1 .577 1 C .56900009 1 .563 .99700006 .554 .98200008 L .0069999995 .03899999 C 0 .025999994 0 .021999985 0 .019999996 C 0 .008999988 .009 0 .019 0 C .027 0 .033 .0029999912 .042000005 .017999992 L .58900007 .961 Z "/>
</symbol>
<use xlink:href="#font_0_7" transform="matrix(9.9626,0,0,-9.9626,153.4202,34.02159)" fill="#000080"/>
<use xlink:href="#font_0_8" transform="matrix(9.9626,0,0,-9.9626,158.08269,34.02159)" fill="#000080"/>
<use xlink:href="#font_0_2" transform="matrix(9.9626,0,0,-9.9626,165.60446,36.402654)" fill="#000080"/>
<use xlink:href="#font_0_6" transform="matrix(9.9626,0,0,-9.9626,171.24329,34.02159)" fill="#000080"/>
<use xlink:href="#font_1_6" transform="matrix(9.9626,0,0,-9.9626,114.91951,55.627595)" fill="#000080"/>
<use xlink:href="#font_1_4" transform="matrix(9.9626,0,0,-9.9626,120.179759,55.627595)" fill="#000080"/>
<path transform="matrix(1,0,0,-1,114.521,59.767)" stroke-width="1" stroke-linecap="butt" stroke-miterlimit="10" stroke-linejoin="miter" fill="none" stroke="#000080" d="M 0 0 L 9.461 0 "/>
<use xlink:href="#font_1_6" transform="matrix(9.9626,0,0,-9.9626,115.25851,69.20159)" fill="#000080"/>
<use xlink:href="#font_1_7" transform="matrix(9.9626,0,0,-9.9626,120.279659,69.20159)" fill="#000080"/>
<symbol id="font_2_2">
<path d="M .205 .64000007 C .205 .66400006 .205 .666 .18200003 .666 C .120000008 .60200008 .032000007 .60200008 0 .60200008 L 0 .57100006 C .020000004 .57100006 .07900001 .57100006 .13100001 .597 L .13100001 .079 C .13100001 .043 .128 .031000002 .038000004 .031000002 L .0060000049 .031000002 L .0060000049 0 C .04100001 .003 .128 .003 .168 .003 C .20800002 .003 .29500003 .003 .33000005 0 L .33000005 .031000002 L .29800005 .031000002 C .20800002 .031000002 .205 .042000005 .205 .079 L .205 .64000007 Z "/>
</symbol>
<symbol id="font_2_6">
<path d="M .39900003 .223 C .39900003 .34200005 .317 .44200004 .209 .44200004 C .16100002 .44200004 .118000019 .42600004 .082 .39100004 L .082 .586 C .10200001 .58000007 .135 .573 .16700001 .573 C .29 .573 .36 .66400006 .36 .67700007 C .36 .683 .357 .688 .35 .688 C .349 .688 .347 .688 .342 .68500009 C .322 .67600008 .273 .656 .20600002 .656 C .16600001 .656 .120000008 .66300007 .073 .6840001 C .065 .68700006 .06300001 .68700006 .061000009 .68700006 C .051000004 .68700006 .051000004 .679 .051000004 .66300007 L .051000004 .36700005 C .051000004 .34900005 .051000004 .34100003 .065 .34100003 C .07200001 .34100003 .074 .34400005 .07800001 .35000003 C .08900002 .36600004 .12600002 .42000006 .207 .42000006 C .259 .42000006 .284 .37400005 .292 .35600005 C .308 .31900005 .31 .28000004 .31 .23 C .31 .19500001 .31 .135 .286 .093 C .262 .054000006 .22500001 .028 .17900002 .028 C .106000009 .028 .049000008 .08100001 .032 .14000002 C .035 .13900002 .038000008 .13800001 .049000008 .13800001 C .082 .13800001 .09900001 .163 .09900001 .187 C .09900001 .21100001 .082 .23600002 .049000008 .23600002 C .035 .23600002 0 .22900002 0 .18300002 C 0 .097 .069000009 0 .18100001 0 C .297 0 .39900003 .096 .39900003 .223 Z "/>
</symbol>
<use xlink:href="#font_2_7" transform="matrix(9.9626,0,0,-9.9626,128.5029,60.932977)" fill="#000080"/>
<use xlink:href="#font_2_2" transform="matrix(9.9626,0,0,-9.9626,139.35219,62.258005)" fill="#000080"/>
<use xlink:href="#font_2_6" transform="matrix(9.9626,0,0,-9.9626,143.94493,62.47718)" fill="#000080"/>
<use xlink:href="#font_0_7" transform="matrix(9.9626,0,0,-9.9626,152.7352,62.36759)" fill="#000080"/>
<use xlink:href="#font_0_8" transform="matrix(9.9626,0,0,-9.9626,157.39769,62.36759)" fill="#000080"/>
<use xlink:href="#font_0_2" transform="matrix(9.9626,0,0,-9.9626,164.91947,64.74865)" fill="#000080"/>
<use xlink:href="#font_0_6" transform="matrix(9.9626,0,0,-9.9626,170.55829,62.36759)" fill="#000080"/>
<symbol id="font_1_5">
<path d="M .35500003 .39100004 C .33900003 .39100004 .32500003 .39100004 .31100003 .37700004 C .29500003 .36200003 .293 .34500004 .293 .33800004 C .293 .314 .31100003 .30300004 .33 .30300004 C .359 .30300004 .386 .32700003 .386 .367 C .386 .41600005 .33900003 .45300005 .268 .45300005 C .13300002 .45300005 0 .31000004 0 .16900002 C 0 .079 .058000007 0 .162 0 C .305 0 .389 .106000009 .389 .11800001 C .389 .124000009 .38300003 .13100001 .377 .13100001 C .372 .13100001 .37 .12900001 .36400003 .12100001 C .285 .022000002 .176 .022000002 .164 .022000002 C .101 .022000002 .074 .071 .074 .13100001 C .074 .17200002 .094000007 .26900003 .12800002 .33100004 C .15900001 .388 .21400002 .43100003 .269 .43100003 C .303 .43100003 .34100003 .418 .35500003 .39100004 Z "/>
</symbol>
<use xlink:href="#font_1_6" transform="matrix(9.9626,0,0,-9.9626,114.65651,86.809589)" fill="#800000"/>
<use xlink:href="#font_1_5" transform="matrix(9.9626,0,0,-9.9626,119.85699,86.809589)" fill="#800000"/>
<path transform="matrix(1,0,0,-1,114.258,90.949008)" stroke-width="1" stroke-linecap="butt" stroke-miterlimit="10" stroke-linejoin="miter" fill="none" stroke="#800000" d="M 0 0 L 9.497 0 "/>
<use xlink:href="#font_1_6" transform="matrix(9.9626,0,0,-9.9626,115.012508,100.38259)" fill="#800000"/>
<use xlink:href="#font_1_7" transform="matrix(9.9626,0,0,-9.9626,120.03365,100.38259)" fill="#800000"/>
<use xlink:href="#font_2_7" transform="matrix(9.9626,0,0,-9.9626,128.2749,92.113979)" fill="#800000"/>
<symbol id="font_0_3">
<path d="M .12100002 .37500004 C .096000019 .354 .052 .32000003 .052 .257 C .052 .224 .06999999 .187 .11200002 .187 C .17900002 .187 .224 .25800003 .224 .282 C .224 .29200004 .21400002 .29200004 .20900002 .29200004 C .19700003 .29200004 .19600001 .29000003 .192 .277 C .178 .23700002 .143 .209 .11200002 .209 C .09400001 .209 .08700001 .22700002 .08700001 .24300002 C .08700001 .282 .10500002 .296 .169 .34600003 L .24700001 .409 C .28800003 .441 .357 .49600003 .357 .592 C .357 .66300007 .31 .716 .23700002 .716 C .08400002 .716 0 .50600007 0 .46300004 C 0 .437 .020999998 .43100003 .03400001 .43100003 C .060000004 .43100003 .083000008 .45400004 .083000008 .48000003 C .083000008 .49400003 .07500002 .512 .045 .512 C .081 .61200007 .155 .694 .23700002 .694 C .28300003 .694 .32200004 .66400006 .32200004 .606 C .32200004 .535 .27100004 .49400003 .24200002 .47000004 L .12100002 .37500004 M .13 .063 C .13 .083000008 .11500001 .106000009 .08500001 .106000009 C .054000006 .106000009 .020999998 .07700001 .020999998 .043 C .020999998 .018000002 .040000008 0 .065 0 C .09900001 0 .13 .032 .13 .063 Z "/>
</symbol>
<use xlink:href="#font_0_3" transform="matrix(9.9626,0,0,-9.9626,140.96274,93.439)" fill="#800000"/>
<symbol id="font_1_2">
<path d="M .263 .316 L .43300004 .316 C .575 .316 .714 .42000003 .714 .532 C .714 .609 .648 .683 .517 .683 L .193 .683 C .17400001 .683 .163 .683 .163 .66400006 C .163 .652 .172 .652 .192 .652 C .205 .652 .223 .651 .235 .65000006 C .25100003 .648 .25700004 .64500007 .25700004 .634 C .25700004 .63000008 .256 .62700006 .25300003 .615 L .119 .078 C .109 .039 .10699999 .031000002 .028 .031000002 C .011 .031000002 0 .031000002 0 .012 C 0 0 .011999998 0 .015000001 0 C .043 0 .11400001 .003 .142 .003 C .163 .003 .185 .002 .206 .002 C .228 .002 .25000004 0 .27100004 0 C .27800004 0 .29100005 0 .29100005 .020000002 C .29100005 .031000002 .28200004 .031000002 .263 .031000002 C .226 .031000002 .198 .031000002 .198 .049000004 C .198 .055000005 .2 .060000004 .201 .066 L .263 .316 M .33500005 .614 C .344 .64900007 .34600003 .652 .38900004 .652 L .48500005 .652 C .568 .652 .621 .625 .621 .55600008 C .621 .517 .601 .43100003 .56200006 .395 C .512 .35000003 .45200003 .342 .40800003 .342 L .26700003 .342 L .33500005 .614 Z "/>
</symbol>
<use xlink:href="#font_1_2" transform="matrix(9.9626,0,0,-9.9626,19.330504,124.612)" fill="#000080"/>
<use xlink:href="#font_1_3" transform="matrix(9.9626,0,0,-9.9626,20.482504,75.27359)" fill="#000080"/>
<symbol id="font_1_1">
<path d="M .14400001 .115 C .10400002 .048 .065 .034 .021000002 .031000002 C .009000003 .030000002 0 .030000002 0 .011000001 C 0 .0050000005 .0050000029 0 .013 0 C .040000004 0 .07100001 .003 .09900001 .003 C .13200002 .003 .16700001 0 .19900002 0 C .20500002 0 .21800003 0 .21800003 .019000002 C .21800003 .030000002 .20900002 .031000002 .20200002 .031000002 C .17900002 .033 .15500002 .041 .15500002 .066 C .15500002 .078 .16100002 .089 .16900002 .10300001 L .245 .231 L .49600003 .231 C .49800007 .21000001 .512 .074 .512 .064 C .512 .034 .46000005 .031000002 .44000004 .031000002 C .42600004 .031000002 .41600005 .031000002 .41600005 .011000001 C .41600005 0 .42800004 0 .43000005 0 C .47100006 0 .514 .003 .555 .003 C .58 .003 .643 0 .668 0 C .674 0 .686 0 .686 .020000002 C .686 .031000002 .676 .031000002 .663 .031000002 C .601 .031000002 .601 .038000004 .598 .067 L .537 .69200006 C .535 .712 .535 .716 .518 .716 C .502 .716 .49800007 .70900008 .492 .69900009 L .14400001 .115 M .26400004 .26200003 L .46100004 .592 L .493 .26200003 L .26400004 .26200003 Z "/>
</symbol>
<use xlink:href="#font_1_1" transform="matrix(9.9626,0,0,-9.9626,18.08569,33.903)" fill="#000080"/>
<use xlink:href="#font_1_4" transform="matrix(9.9626,0,0,-9.9626,69.79424,126.16059)" fill="#000080"/>
<symbol id="font_0_4">
<path d="M .32000003 .61600008 C .32900004 .652 .33600004 .652 .36900003 .652 L .48700006 .652 C .57100006 .652 .58100005 .58400008 .58100005 .55300006 C .58100005 .46800003 .504 .36600004 .39000003 .36600004 L .25800003 .36600004 L .32000003 .61600008 M .47300006 .35700003 C .595 .384 .669 .47000004 .669 .54700008 C .669 .619 .61 .683 .50100007 .683 L .19000003 .683 C .174 .683 .16300002 .683 .16300002 .66400006 C .16300002 .652 .171 .652 .19000003 .652 C .22100002 .652 .24800003 .652 .24800003 .63500007 C .24800003 .632 .24800003 .63000008 .24400002 .61600008 L .109000008 .07300001 C .101 .039 .095000009 .031000002 .027000003 .031000002 C .011 .031000002 0 .031000002 0 .012 C 0 0 .008999996 0 .024999999 0 L .35500003 0 C .49700005 0 .61200007 .115 .61200007 .21900001 C .61200007 .30200003 .545 .34800003 .47300006 .35700003 M .33300004 .031000002 L .20900002 .031000002 C .178 .031000002 .178 .034 .178 .041 C .178 .047000003 .181 .057000005 .18200001 .063 L .252 .344 L .42400003 .344 C .517 .344 .523 .25800003 .523 .23200001 C .523 .135 .44300003 .031000002 .33300004 .031000002 Z "/>
</symbol>
<use xlink:href="#font_0_4" transform="matrix(9.9626,0,0,-9.9626,111.124568,125.94)" fill="#000080"/>
<use xlink:href="#font_1_5" transform="matrix(9.9626,0,0,-9.9626,72.551479,66.70059)" fill="#800000"/>
</svg>
