<?xml version="1.0" encoding="UTF-8" standalone="no"?>
<!DOCTYPE svg PUBLIC "-//W3C//DTD SVG 1.1//EN" "http://www.w3.org/Graphics/SVG/1.1/DTD/svg11.dtd">
<svg xmlns="http://www.w3.org/2000/svg" xmlns:xlink="http://www.w3.org/1999/xlink" version="1.1" width="447.253pt" height="46.9pt" viewBox="0 0 447.253 46.9">
<path transform="matrix(1,0,0,-1,368.902,20.241002)" stroke-width="1" stroke-linecap="butt" stroke-miterlimit="10" stroke-linejoin="miter" fill="none" stroke="#000080" d="M -277.7984 0 C -277.7984 6.26218 -298.10423 11.33855 -323.15345 11.33855 C -348.20268 11.33855 -368.5085 6.26218 -368.5085 0 C -368.5085 -6.26218 -348.20268 -11.33855 -323.15345 -11.33855 C -298.10423 -11.33855 -277.7984 -6.26218 -277.7984 0 Z M -323.15345 0 "/>
<path transform="matrix(1,0,0,-1,368.902,20.241002)" stroke-width="1" stroke-linecap="butt" stroke-miterlimit="10" stroke-linejoin="miter" fill="none" stroke="#000080" d="M -368.5085 -14.45671 C -368.5085 -20.71889 -348.2027 -25.79526 -323.15348 -25.79526 C -298.10423 -25.79526 -277.7984 -20.71889 -277.7984 -14.45671 "/>
<path transform="matrix(1,0,0,-1,368.902,20.241002)" stroke-width="1" stroke-linecap="butt" stroke-miterlimit="10" stroke-linejoin="miter" fill="none" stroke="#000080" d="M -323.15345 0 L -277.7988 0 "/>
<path transform="matrix(1,0,0,-1,368.902,20.241002)" stroke-width="1" stroke-linecap="butt" stroke-miterlimit="10" stroke-linejoin="miter" fill="none" stroke="#000080" d="M -368.5085 0 L -368.5085 -14.45671 "/>
<path transform="matrix(1,0,0,-1,368.902,20.241002)" stroke-width="1" stroke-linecap="butt" stroke-miterlimit="10" stroke-linejoin="miter" fill="none" stroke="#000080" d="M -277.7988 0 L -277.7988 -14.45671 "/>
<path transform="matrix(1,0,0,-1,368.902,20.241002)" stroke-width="1" stroke-linecap="butt" stroke-miterlimit="10" stroke-linejoin="miter" fill="none" stroke="#000080" d="M -113.38724 0 C -113.38724 9.39351 -138.76943 17.00824 -170.08086 17.00824 C -201.39228 17.00824 -226.77448 9.39351 -226.77448 0 C -226.77448 -9.39351 -201.39228 -17.00824 -170.08086 -17.00824 C -138.76943 -17.00824 -113.38724 -9.39351 -113.38724 0 Z M -170.08086 0 "/>
<path transform="matrix(1,0,0,-1,368.902,20.241002)" stroke-width="1" stroke-linecap="butt" stroke-miterlimit="10" stroke-linejoin="miter" fill="none" stroke="#000080" d="M -226.77448 -9.2524 C -226.77448 -18.64592 -201.39228 -26.26065 -170.08086 -26.26065 C -138.76943 -26.26065 -113.38724 -18.64592 -113.38724 -9.2524 "/>
<path transform="matrix(1,0,0,-1,368.902,20.241002)" stroke-width="1" stroke-linecap="butt" stroke-miterlimit="10" stroke-linejoin="miter" fill="none" stroke="#000080" d="M -170.08086 0 L -113.38724 0 "/>
<path transform="matrix(1,0,0,-1,368.902,20.241002)" stroke-width="1" stroke-linecap="butt" stroke-miterlimit="10" stroke-linejoin="miter" fill="none" stroke="#000080" d="M -113.38724 0 L -113.38724 -9.2524 "/>
<path transform="matrix(1,0,0,-1,368.902,20.241002)" stroke-width="1" stroke-linecap="butt" stroke-miterlimit="10" stroke-linejoin="miter" fill="none" stroke="#000080" d="M -226.77448 0 L -226.77448 -9.2524 "/>
<path transform="matrix(1,0,0,-1,368.902,20.241002)" stroke-width="1" stroke-linecap="butt" stroke-miterlimit="10" stroke-linejoin="miter" fill="none" stroke="#000080" d="M 77.9537 0 C 77.9537 10.95894 46.22595 19.84267 7.08669 19.84267 C -32.05257 19.84267 -63.78032 10.95894 -63.78032 0 C -63.78032 -10.95894 -32.05257 -19.84267 7.08669 -19.84267 C 46.22595 -19.84267 77.9537 -10.95894 77.9537 0 Z M 7.08669 0 "/>
<path transform="matrix(1,0,0,-1,368.902,20.241002)" stroke-width="1" stroke-linecap="butt" stroke-miterlimit="10" stroke-linejoin="miter" fill="none" stroke="#000080" d="M -63.7803 -5.92143 C -63.7803 -16.88037 -32.05255 -25.76411 7.0867 -25.76411 C 46.22597 -25.76411 77.95372 -16.88037 77.95372 -5.92143 "/>
<path transform="matrix(1,0,0,-1,368.902,20.241002)" stroke-width="1" stroke-linecap="butt" stroke-miterlimit="10" stroke-linejoin="miter" fill="none" stroke="#000080" d="M 0 0 L 77.95372 0 "/>
<path transform="matrix(1,0,0,-1,368.902,20.241002)" stroke-width="1" stroke-linecap="butt" stroke-miterlimit="10" stroke-linejoin="miter" fill="none" stroke="#000080" d="M -63.7803 0 L -63.7803 -5.92143 "/>
<path transform="matrix(1,0,0,-1,368.902,20.241002)" stroke-width="1" stroke-linecap="butt" stroke-miterlimit="10" stroke-linejoin="miter" fill="none" stroke="#000080" d="M 77.95372 0 L 77.95372 -5.92143 "/>
</svg>
