<?xml version="1.0" encoding="UTF-8" standalone="no"?>
<!DOCTYPE svg PUBLIC "-//W3C//DTD SVG 1.1//EN" "http://www.w3.org/Graphics/SVG/1.1/DTD/svg11.dtd">
<svg xmlns="http://www.w3.org/2000/svg" xmlns:xlink="http://www.w3.org/1999/xlink" version="1.1" width="269.521pt" height="108.103pt" viewBox="0 0 269.521 108.103">
<path transform="matrix(1,0,0,-1,22.549,144.11499)" stroke-width="1" stroke-linecap="butt" stroke-miterlimit="10" stroke-linejoin="miter" fill="none" stroke="#000000" d="M 0 56.69362 L 6.23631 56.69362 L 6.23631 62.92993 L 0 62.92993 Z "/>
<path transform="matrix(1,0,0,-1,22.549,144.11499)" stroke-width="1" stroke-linecap="butt" stroke-miterlimit="10" stroke-linejoin="miter" fill="none" stroke="#000000" d="M 56.69362 56.69362 L 62.92993 56.69362 L 62.92993 62.92993 L 56.69362 62.92993 Z "/>
<path transform="matrix(1,0,0,-1,22.549,144.11499)" stroke-width="1" stroke-linecap="butt" stroke-miterlimit="10" stroke-linejoin="miter" fill="none" stroke="#000000" d="M 5.66927 51.02434 C 6.04286 50.27713 6.91461 49.77899 8.15996 49.77899 L 25.8561 49.77899 C 27.10144 49.77899 27.9732 49.28087 28.34679 48.53365 C 28.72038 49.28087 29.59213 49.77899 30.83748 49.77899 L 48.53363 49.77899 C 49.77898 49.77899 50.65074 50.27713 51.02432 51.02434 "/>
<path transform="matrix(1,0,0,-1,22.549,144.11499)" stroke-width="1" stroke-linecap="butt" stroke-miterlimit="10" stroke-linejoin="miter" fill="none" stroke="#000000" d="M 62.36288 51.02434 C 62.73648 50.27713 63.60823 49.77899 64.85358 49.77899 L 110.89653 49.77899 C 112.14188 49.77899 113.01363 49.28087 113.38722 48.53365 C 113.7608 49.28087 114.63257 49.77899 115.87791 49.77899 L 161.92087 49.77899 C 163.16622 49.77899 164.03798 50.27713 164.41156 51.02434 "/>
<path transform="matrix(1,0,0,-1,22.549,144.11499)" stroke-width="1" stroke-linecap="butt" stroke-miterlimit="10" stroke-linejoin="miter" fill="none" stroke="#000000" d="M -5.66927 56.69362 C -6.41647 57.0672 -6.91461 57.93896 -6.91461 59.18431 L -6.91461 96.72313 C -6.91461 97.96848 -7.41273 98.84023 -8.15996 99.21382 C -7.41273 99.5874 -6.91461 100.45917 -6.91461 101.70451 L -6.91461 139.24335 C -6.91461 140.4887 -6.41647 141.36046 -5.66927 141.73404 "/>
<path transform="matrix(1,0,0,-1,22.549,144.11499)" stroke-width="1" stroke-linecap="butt" stroke-dasharray="2.98883,2.98883" stroke-miterlimit="10" stroke-linejoin="miter" fill="none" stroke="#000000" d="M 170.08086 56.69362 L 0 140.3166 L 0 56.69362 Z "/>
<path transform="matrix(1,0,0,-1,22.549,144.11499)" stroke-width="1.19553" stroke-linecap="butt" stroke-miterlimit="10" stroke-linejoin="miter" fill="none" stroke="#000000" d="M 56.69362 56.69362 L 56.69362 113.38724 "/>
<path transform="matrix(1,0,0,-1,22.549,144.11499)" stroke-width="1.19553" stroke-linecap="butt" stroke-miterlimit="10" stroke-linejoin="miter" fill="none" stroke="#000000" d="M 56.69362 56.69362 L 170.08086 56.69362 "/>
<path transform="matrix(1,0,0,-1,22.549,144.11499)" stroke-width="1.19553" stroke-linecap="butt" stroke-miterlimit="10" stroke-linejoin="miter" fill="none" stroke="#000000" d="M 0 140.3166 L 0 56.69362 "/>
<symbol id="font_0_4">
<path d="M .089999999 .35000003 L .089999999 .37400005 C .089999999 .62700006 .21400002 .66300007 .26500003 .66300007 C .28900004 .66300007 .33100004 .65700009 .35300002 .623 C .33800004 .623 .298 .623 .298 .57800009 C .298 .54700008 .32200004 .53200009 .344 .53200009 C .36 .53200009 .39000003 .54100009 .39000003 .58000007 C .39000003 .64000007 .34600003 .688 .263 .688 C .13499999 .688 0 .559 0 .33800004 C 0 .071 .116000007 0 .20900002 0 C .32000003 0 .41500003 .094000007 .41500003 .22600001 C .41500003 .35300005 .32600004 .44900004 .215 .44900004 C .14700002 .44900004 .11000001 .39800004 .089999999 .35000003 M .20900002 .028 C .146 .028 .116000007 .088 .11000001 .103 C .092 .15 .092 .23 .092 .24800001 C .092 .32600004 .124000009 .42600004 .21400002 .42600004 C .23000002 .42600004 .27600003 .42600004 .307 .36400003 C .32500003 .32700003 .32500003 .27600003 .32500003 .22700002 C .32500003 .179 .32500003 .12900001 .30800004 .093 C .27800004 .033000005 .23200003 .028 .20900002 .028 Z "/>
</symbol>
<use xlink:href="#font_0_4" transform="matrix(9.9626,0,0,-9.9626,71.08543,62.505167)"/>
<symbol id="font_1_2">
<path d="M .07700001 .072 C .069000009 .038000004 .067 .031000004 .023000002 .031000004 C .011 .031000004 0 .031000004 0 .0119999949 C 0 .003999993 .005000001 0 .013 0 C .040000004 0 .069000009 .0029999912 .097 .0029999912 C .13000001 .0029999912 .164 0 .19600001 0 C .20100002 0 .21400002 0 .21400002 .019999996 C .21400002 .031000004 .20400001 .031000004 .19000001 .031000004 C .14 .031000004 .14 .038000004 .14 .047000007 C .14 .059 .18200001 .222 .18900001 .24700001 C .202 .21800001 .23000002 .183 .28100003 .183 C .397 .183 .522 .329 .522 .476 C .522 .57000008 .46500004 .63600006 .38900004 .63600006 C .33900003 .63600006 .291 .6 .25800003 .561 C .24800001 .615 .20500002 .63600006 .16800002 .63600006 C .12200001 .63600006 .103 .597 .094000007 .579 C .076000008 .545 .063 .485 .063 .48200003 C .063 .47200004 .073 .47200004 .075 .47200004 C .08500001 .47200004 .086 .47300003 .09200001 .49500004 C .10900001 .566 .12900001 .614 .165 .614 C .18200001 .614 .19600001 .60600009 .19600001 .568 C .19600001 .545 .19300002 .53400006 .18900001 .517 L .07700001 .072 M .25300003 .50600007 C .26000003 .533 .28700004 .561 .305 .57600006 C .34000004 .607 .36900003 .614 .386 .614 C .42600004 .614 .45000003 .579 .45000003 .52 C .45000003 .46100004 .41700004 .34600003 .39900003 .30800004 C .365 .238 .31700004 .20500002 .28 .20500002 C .21400002 .20500002 .20100002 .28800003 .20100002 .294 C .20100002 .296 .20100002 .298 .20400001 .31 L .25300003 .50600007 Z "/>
</symbol>
<use xlink:href="#font_1_2" transform="matrix(9.9626,0,0,-9.9626,48.070199,104.704738)"/>
<symbol id="font_1_3">
<path d="M .33900006 .38500003 C .311 .38400004 .291 .36200003 .291 .34000004 C .291 .32600004 .3 .31100003 .32200004 .31100003 C .34400005 .31100003 .36800004 .328 .36800004 .367 C .36800004 .41200004 .325 .45300005 .24900003 .45300005 C .11700001 .45300005 .08 .351 .08 .307 C .08 .22900002 .15400002 .21400002 .18300002 .20800002 C .235 .19800002 .287 .18700002 .287 .13200002 C .287 .106000009 .264 .022000002 .14400001 .022000002 C .13000001 .022000002 .053000004 .022000002 .030000002 .075 C .068 .07000001 .09300001 .1 .09300001 .128 C .09300001 .15100001 .07700001 .16300002 .056 .16300002 C .030000002 .16300002 0 .14200002 0 .097 C 0 .040000004 .057000005 0 .143 0 C .305 0 .34400005 .12100001 .34400005 .16600001 C .34400005 .20200002 .325 .22700002 .31300003 .23900002 C .286 .26700003 .25700004 .272 .21300002 .28100003 C .17700002 .28900004 .13700001 .29600004 .13700001 .34100003 C .13700001 .37000004 .16100002 .43100003 .24900003 .43100003 C .274 .43100003 .324 .42400003 .33900006 .38500003 Z "/>
</symbol>
<use xlink:href="#font_1_3" transform="matrix(9.9626,0,0,-9.9626,134.11806,103.84958)" fill="#800000"/>
<symbol id="font_0_1">
<path d="M .205 .64000007 C .205 .66400006 .205 .666 .18200003 .666 C .120000008 .60200008 .032000007 .60200008 0 .60200008 L 0 .57100006 C .020000004 .57100006 .07900001 .57100006 .13100001 .597 L .13100001 .079 C .13100001 .043 .128 .031000002 .038000004 .031000002 L .0060000049 .031000002 L .0060000049 0 C .04100001 .003 .128 .003 .168 .003 C .20800002 .003 .29500003 .003 .33000005 0 L .33000005 .031000002 L .29800005 .031000002 C .20800002 .031000002 .205 .042000005 .205 .079 L .205 .64000007 Z "/>
</symbol>
<symbol id="font_0_3">
<path d="M .39900003 .223 C .39900003 .34200005 .317 .44200004 .209 .44200004 C .16100002 .44200004 .118000019 .42600004 .082 .39100004 L .082 .586 C .10200001 .58000007 .135 .573 .16700001 .573 C .29 .573 .36 .66400006 .36 .67700007 C .36 .683 .357 .688 .35 .688 C .349 .688 .347 .688 .342 .68500009 C .322 .67600008 .273 .656 .20600002 .656 C .16600001 .656 .120000008 .66300007 .073 .6840001 C .065 .68700006 .06300001 .68700006 .061000009 .68700006 C .051000004 .68700006 .051000004 .679 .051000004 .66300007 L .051000004 .36700005 C .051000004 .34900005 .051000004 .34100003 .065 .34100003 C .07200001 .34100003 .074 .34400005 .07800001 .35000003 C .08900002 .36600004 .12600002 .42000006 .207 .42000006 C .259 .42000006 .284 .37400005 .292 .35600005 C .308 .31900005 .31 .28000004 .31 .23 C .31 .19500001 .31 .135 .286 .093 C .262 .054000006 .22500001 .028 .17900002 .028 C .106000009 .028 .049000008 .08100001 .032 .14000002 C .035 .13900002 .038000008 .13800001 .049000008 .13800001 C .082 .13800001 .09900001 .163 .09900001 .187 C .09900001 .21100001 .082 .23600002 .049000008 .23600002 C .035 .23600002 0 .22900002 0 .18300002 C 0 .097 .069000009 0 .18100001 0 C .297 0 .39900003 .096 .39900003 .223 Z "/>
</symbol>
<use xlink:href="#font_0_1" transform="matrix(9.9626,0,0,-9.9626,4.2806708,48.112997)"/>
<use xlink:href="#font_0_3" transform="matrix(9.9626,0,0,-9.9626,8.873428,48.332174)"/>
<symbol id="font_1_1">
<path d="M .47600005 .694 C .47600005 .695 .47600005 .705 .46300004 .705 C .44800005 .705 .35300002 .69600006 .33600004 .694 C .32800005 .693 .32200004 .688 .32200004 .675 C .32200004 .663 .33100004 .663 .34600003 .663 C .39400003 .663 .39600004 .656 .39600004 .646 L .39300005 .626 L .33300004 .38900004 C .31500004 .42600004 .286 .45300005 .24100001 .45300005 C .124 .45300005 0 .30600003 0 .16000001 C 0 .06600001 .055000005 0 .133 0 C .153 0 .20300001 .0040000008 .263 .075 C .27100004 .033000005 .30600003 0 .35400004 0 C .38900004 0 .41200004 .023000002 .42800004 .055000005 C .44500003 .091000009 .45800004 .15200001 .45800004 .15400002 C .45800004 .16400002 .44900004 .16400002 .44600005 .16400002 C .43600003 .16400002 .43500004 .16000001 .43200005 .14600002 C .41500003 .081 .397 .022000002 .35600005 .022000002 C .32900004 .022000002 .32600004 .048 .32600004 .068 C .32600004 .092 .32800005 .09900001 .33200003 .116000007 L .47600005 .694 M .26800005 .13000001 C .263 .112 .263 .11000001 .24800001 .093 C .20400001 .038000004 .163 .022000002 .135 .022000002 C .08499999 .022000002 .07100001 .077 .07100001 .116000007 C .07100001 .16600001 .103 .28900004 .126 .335 C .157 .39400003 .202 .43100003 .242 .43100003 C .307 .43100003 .32100005 .34900005 .32100005 .34300003 C .32100005 .337 .31900005 .33100004 .31800003 .32600004 L .26800005 .13000001 Z "/>
</symbol>
<use xlink:href="#font_1_1" transform="matrix(9.9626,0,0,-9.9626,171.0295,10.836578)" fill="#000080"/>
<use xlink:href="#font_1_2" transform="matrix(9.9626,0,0,-9.9626,175.50272,12.659734)" fill="#000080"/>
<path transform="matrix(1,0,0,-1,170.631,14.97599)" stroke-width="1" stroke-linecap="butt" stroke-miterlimit="10" stroke-linejoin="miter" fill="none" stroke="#000080" d="M 0 0 L 10.198 0 "/>
<symbol id="font_1_4">
<path d="M .18300002 .411 L .277 .411 C .29700003 .411 .307 .411 .307 .43100003 C .307 .44200004 .29700003 .44200004 .279 .44200004 L .19100002 .44200004 C .227 .584 .23200003 .60400006 .23200003 .61 C .23200003 .62700006 .22000002 .637 .20300001 .637 C .2 .637 .172 .636 .163 .601 L .124 .44200004 L .030000002 .44200004 C .009999998 .44200004 0 .44200004 0 .42300005 C 0 .411 .007999999 .411 .028 .411 L .11600001 .411 C .044 .127 .04 .11000001 .04 .092 C .04 .038000004 .078 0 .132 0 C .234 0 .291 .14600002 .291 .15400002 C .291 .16400002 .28300003 .16400002 .279 .16400002 C .27 .16400002 .26900003 .16100002 .264 .15000002 C .22100002 .046 .16800002 .022000002 .134 .022000002 C .113000009 .022000002 .103 .035 .103 .068 C .103 .092 .105000007 .09900001 .109 .116000007 L .18300002 .411 Z "/>
</symbol>
<use xlink:href="#font_1_1" transform="matrix(9.9626,0,0,-9.9626,171.7365,24.410576)" fill="#000080"/>
<use xlink:href="#font_1_4" transform="matrix(9.9626,0,0,-9.9626,176.75766,24.410576)" fill="#000080"/>
<symbol id="font_0_6">
<path d="M .63100007 .19400002 C .646 .19400002 .665 .19400002 .665 .214 C .665 .23400001 .646 .23400001 .632 .23400001 L .033 .23400001 C .019000002 .23400001 0 .23400001 0 .214 C 0 .19400002 .019000002 .19400002 .034 .19400002 L .63100007 .19400002 M .632 0 C .646 0 .665 0 .665 .02000001 C .665 .040000008 .646 .040000008 .63100007 .040000008 L .034 .040000008 C .019000002 .040000008 0 .040000008 0 .02000001 C 0 0 .019000002 0 .033 0 L .632 0 Z "/>
</symbol>
<symbol id="font_0_2">
<path d="M .24800003 .37400005 C .33 .40100003 .388 .47100006 .388 .55 C .388 .632 .3 .688 .204 .688 C .10300001 .688 .027000003 .628 .027000003 .55200007 C .027000003 .519 .049000004 .5 .078 .5 C .109000008 .5 .12900001 .522 .12900001 .55100008 C .12900001 .6010001 .082 .6010001 .067 .6010001 C .098 .65000006 .164 .66300007 .20000002 .66300007 C .24100003 .66300007 .29600004 .64100006 .29600004 .55100008 C .29600004 .53900006 .29400004 .48100005 .268 .43700005 C .238 .38900004 .204 .38600005 .17900002 .38500003 C .171 .38400004 .14700002 .38200004 .14000002 .38200004 C .132 .38100005 .125 .38000003 .125 .37000004 C .125 .35900004 .132 .35900004 .14900002 .35900004 L .19300002 .35900004 C .275 .35900004 .312 .29100005 .312 .193 C .312 .057000005 .24300003 .028 .199 .028 C .15600002 .028 .081 .045 .046000005 .104 C .081 .09900001 .11200001 .12100001 .11200001 .15900001 C .11200001 .19500001 .085 .215 .056 .215 C .031999999 .215 0 .201 0 .157 C 0 .06600001 .093 0 .20200002 0 C .32400004 0 .41500003 .091000009 .41500003 .193 C .41500003 .27500005 .35200004 .35300005 .24800003 .37400005 Z "/>
</symbol>
<use xlink:href="#font_0_6" transform="matrix(9.9626,0,0,-9.9626,185.3499,16.141963)" fill="#000080"/>
<use xlink:href="#font_0_2" transform="matrix(9.9626,0,0,-9.9626,195.73093,17.686165)" fill="#000080"/>
<symbol id="font_2_5">
<path d="M .30200003 .605 L .38400004 .605 C .40100003 .605 .411 .605 .411 .623 C .411 .63600006 .40300004 .63600006 .38600005 .63600006 L .30800004 .63600006 C .32200004 .71000006 .32500003 .72800007 .34000004 .7980001 C .34800003 .83500006 .35900004 .888 .395 .888 C .40300004 .888 .42400003 .88600006 .43700005 .87 C .40700004 .865 .39300005 .8410001 .39300005 .8210001 C .39300005 .799 .411 .78900006 .42700003 .78900006 C .45200003 .78900006 .47700004 .809 .47700004 .8440001 C .47700004 .8870001 .43600003 .9100001 .395 .9100001 C .29700003 .9100001 .272 .7800001 .26500003 .74600008 L .24400002 .63600006 L .17800002 .63600006 C .16200002 .63600006 .15100001 .63600006 .15100001 .61600008 C .15100001 .605 .16100002 .605 .17600002 .605 L .23800002 .605 L .165 .23200001 C .15300001 .17000002 .143 .12900001 .13700001 .10800001 C .12900001 .074 .116000007 .022 .080000009 .022 C .07 .022 .051 .025000006 .04 .040000008 C .07 .045 .08400001 .069000009 .08400001 .08900001 C .08400001 .11100001 .066 .12100001 .05 .12100001 C .025 .12100001 0 .10100001 0 .066 C 0 .020999998 .043 0 .080000009 0 C .18400002 0 .22500001 .21000001 .23200003 .24600002 L .30200003 .605 Z "/>
</symbol>
<symbol id="font_2_9">
<path d="M .16900002 .411 L .254 .411 C .27100004 .411 .282 .411 .282 .43000005 C .282 .44200004 .273 .44200004 .25700004 .44200004 L .177 .44200004 L .214 .59000006 C .21800001 .60400006 .21800001 .606 .21800001 .611 C .21800001 .632 .20100002 .637 .191 .637 C .166 .637 .156 .616 .15200001 .601 L .113000009 .44200004 L .027999998 .44200004 C .011 .44200004 0 .44200004 0 .42300005 C 0 .411 .008999996 .411 .024999999 .411 L .105000007 .411 L .033 .124000009 C .031999999 .120000008 .027999998 .104 .027999998 .09 C .027999998 .040000004 .061000006 0 .113000009 0 C .214 0 .265 .14900002 .265 .15400002 C .265 .16400002 .25700004 .16400002 .25 .16400002 C .23800002 .16400002 .23800002 .16300002 .23 .14500001 C .212 .097 .172 .022000002 .11500001 .022000002 C .088 .022000002 .088 .047000003 .088 .063 C .088 .07000001 .088 .086 .095 .11400001 L .16900002 .411 Z "/>
</symbol>
<symbol id="font_2_2">
<path d="M .58900007 .961 C .5960001 .97400006 .5960001 .97800007 .5960001 .98 C .5960001 .99100008 .5870001 1 .577 1 C .56900009 1 .563 .99700006 .554 .98200008 L .0069999995 .03899999 C 0 .025999994 0 .021999985 0 .019999996 C 0 .008999988 .009 0 .019 0 C .027 0 .033 .0029999912 .042000005 .017999992 L .58900007 .961 Z "/>
</symbol>
<symbol id="font_2_8">
<path d="M .171 .20800002 C .215 .19800002 .26000003 .18800001 .26000003 .134 C .26000003 .102000009 .23300001 .022000002 .13000001 .022000002 C .10800001 .022000002 .049999998 .027000003 .034 .078 C .08500001 .083000008 .08500001 .12500002 .08500001 .127 C .08500001 .14600002 .072 .15900001 .051 .15900001 C .027999998 .15900001 0 .14200002 0 .097 C 0 .036000004 .058 0 .12900001 0 C .279 0 .317 .12200001 .317 .16800002 C .317 .25500003 .23900002 .27300004 .19800002 .28200004 C .17 .28800003 .134 .29600004 .134 .33900003 C .134 .36300005 .155 .43100003 .23500002 .43100003 C .26200003 .43100003 .29900003 .42100004 .31 .38200004 C .278 .37800003 .27 .351 .27 .34100003 C .27 .33 .27600003 .31300003 .3 .31300003 C .317 .31300003 .34300003 .32500003 .34300003 .36800004 C .34300003 .41400004 .30200003 .45300005 .236 .45300005 C .119 .45300005 .07800001 .35700003 .07800001 .305 C .07800001 .22800002 .143 .21400002 .171 .20800002 Z "/>
</symbol>
<use xlink:href="#font_2_5" transform="matrix(9.9626,0,0,-9.9626,200.03992,19.509322)" fill="#000080"/>
<use xlink:href="#font_2_9" transform="matrix(9.9626,0,0,-9.9626,204.2541,17.576577)" fill="#000080"/>
<use xlink:href="#font_2_2" transform="matrix(9.9626,0,0,-9.9626,206.85434,19.957638)" fill="#000080"/>
<use xlink:href="#font_2_8" transform="matrix(9.9626,0,0,-9.9626,212.50313,17.576577)" fill="#000080"/>
<use xlink:href="#font_1_1" transform="matrix(9.9626,0,0,-9.9626,174.5805,47.687585)" fill="#800000"/>
<use xlink:href="#font_1_3" transform="matrix(9.9626,0,0,-9.9626,179.89058,47.687585)" fill="#800000"/>
<path transform="matrix(1,0,0,-1,174.182,51.826997)" stroke-width="1" stroke-linecap="butt" stroke-miterlimit="10" stroke-linejoin="miter" fill="none" stroke="#800000" d="M 0 0 L 9.855 0 "/>
<use xlink:href="#font_1_1" transform="matrix(9.9626,0,0,-9.9626,175.1165,61.260587)" fill="#800000"/>
<use xlink:href="#font_1_4" transform="matrix(9.9626,0,0,-9.9626,180.13767,61.260587)" fill="#800000"/>
<use xlink:href="#font_0_6" transform="matrix(9.9626,0,0,-9.9626,188.5579,52.99297)" fill="#800000"/>
<symbol id="font_2_3">
<path d="M .12100002 .37500004 C .096000019 .354 .052 .32000003 .052 .257 C .052 .224 .06999999 .187 .11200002 .187 C .17900002 .187 .224 .25800003 .224 .282 C .224 .29200004 .21400002 .29200004 .20900002 .29200004 C .19700003 .29200004 .19600001 .29000003 .192 .277 C .178 .23700002 .143 .209 .11200002 .209 C .09400001 .209 .08700001 .22700002 .08700001 .24300002 C .08700001 .282 .10500002 .296 .169 .34600003 L .24700001 .409 C .28800003 .441 .357 .49600003 .357 .592 C .357 .66300007 .31 .716 .23700002 .716 C .08400002 .716 0 .50600007 0 .46300004 C 0 .437 .020999998 .43100003 .03400001 .43100003 C .060000004 .43100003 .083000008 .45400004 .083000008 .48000003 C .083000008 .49400003 .07500002 .512 .045 .512 C .081 .61200007 .155 .694 .23700002 .694 C .28300003 .694 .32200004 .66400006 .32200004 .606 C .32200004 .535 .27100004 .49400003 .24200002 .47000004 L .12100002 .37500004 M .13 .063 C .13 .083000008 .11500001 .106000009 .08500001 .106000009 C .054000006 .106000009 .020999998 .07700001 .020999998 .043 C .020999998 .018000002 .040000008 0 .065 0 C .09900001 0 .13 .032 .13 .063 Z "/>
</symbol>
<symbol id="font_2_1">
<path d="M .125 .208 C .11000001 .131 .059999996 .067 .012999997 .026999996 C .0009999946 .015000001 0 .013999999 0 .00999999 C 0 .0069999995 .0029999987 0 .009999998 0 C .027999998 0 .151 .121 .151 .24000001 C .151 .273 .137 .29900003 .105 .29900003 C .065000008 .29900003 .04 .264 .04 .23500002 C .04 .20300001 .063 .193 .084 .193 C .103999998 .193 .12 .20400001 .125 .208 Z "/>
</symbol>
<symbol id="font_2_a">
<path d="M .29700003 .17900002 C .29000003 .15100001 .289 .13000001 .289 .116000007 C .289 .105000007 .25800003 .022000002 .20500002 .022000002 C .135 .022000002 .135 .096 .135 .109000008 C .135 .16300002 .16100002 .23700002 .192 .31900005 C .199 .33800004 .204 .35300002 .204 .37200005 C .204 .42200003 .171 .45300005 .128 .45300005 C .035000005 .45300005 0 .305 0 .29900003 C 0 .28900004 .009999998 .28900004 .015000001 .28900004 C .028000005 .28900004 .029 .291 .033 .305 C .041 .33600004 .068 .43100003 .126 .43100003 C .13700001 .43100003 .148 .42800004 .148 .40200005 C .148 .37800003 .13800001 .351 .12400001 .31200005 C .074 .17600002 .074 .15000002 .074 .123 C .074 .089 .082 .055000005 .10800001 .031000004 C .14 .0030000006 .185 0 .20200002 0 C .234 0 .26900003 .013000001 .29900003 .064 C .314 .027000003 .354 0 .41300003 0 C .47300006 0 .51500007 .041 .545 .112 C .57500007 .18000002 .614 .33400003 .614 .38700003 C .614 .42200003 .60200008 .45300005 .573 .45300005 C .55 .45300005 .52500006 .43000005 .52500006 .40700004 C .52500006 .39400003 .532 .38700003 .53800007 .38000003 C .56200006 .35400004 .565 .32200004 .565 .30100004 C .565 .261 .53300008 .15600002 .51600006 .115 C .49400003 .063 .462 .022000002 .416 .022000002 C .36600004 .022000002 .35000003 .063 .35000003 .105000007 C .35000003 .11400001 .351 .13800001 .36200003 .18200001 L .404 .35000003 C .41000004 .37200005 .42000003 .41200004 .42000003 .41600005 C .42000003 .42700003 .41200004 .44200004 .39200003 .44200004 C .363 .44200004 .356 .41500003 .354 .40700004 L .29700003 .17900002 Z "/>
</symbol>
<symbol id="font_2_6">
<path d="M .228 .68 C .22900002 .683 .23100002 .691 .23100002 .693 C .23100002 .702 .22500001 .705 .21700002 .705 C .214 .705 .20400001 .704 .20100002 .703 L .102 .695 C .09 .694 .07900001 .693 .07900001 .674 C .07900001 .663 .089 .663 .103 .663 C .15100001 .663 .15300001 .656 .15300001 .646 C .15300001 .643 .15 .63 .15 .629 L .002000004 .039 C .001000002 .037 0 .028 0 .026 C 0 .015000001 .009000003 0 .028000005 0 C .049000004 0 .062000008 .017 .065 .028 C .069000009 .043 .10100001 .17300001 .10800001 .20100002 C .113000009 .22300002 .119 .24400002 .12400001 .26600004 C .133 .30200003 .134 .30400003 .15200001 .33600004 C .172 .36800004 .21500002 .43100003 .28500004 .43100003 C .329 .43100003 .33100004 .38600005 .33100004 .365 C .33100004 .30300004 .287 .18400002 .273 .14400001 C .26 .11000001 .25700004 .101 .25700004 .080000009 C .25700004 .036000004 .28500004 0 .333 0 C .42600007 0 .46000005 .14900002 .46000005 .15400002 C .46000005 .16400002 .45200003 .16400002 .44500006 .16400002 C .43200005 .16400002 .43200005 .16200002 .42800004 .14700002 C .42000003 .120000008 .393 .022000002 .33500005 .022000002 C .314 .022000002 .31300003 .037 .31300003 .051000004 C .31300003 .076000008 .323 .102000009 .33100004 .126 C .351 .17900002 .39200003 .291 .39200003 .34900005 C .39200003 .43100003 .337 .45300005 .288 .45300005 C .221 .45300005 .186 .418 .155 .388 L .228 .68 Z "/>
</symbol>
<symbol id="font_2_4">
<path d="M .125 .24200002 C .15500002 .24200002 .22200002 .24500002 .26999999 .26400004 C .34900005 .29600004 .34900005 .36100004 .34900005 .36800004 C .34900005 .41400004 .31200005 .45300005 .24800001 .45300005 C .14299999 .45300005 0 .35200004 0 .17500001 C 0 .085 .047999994 0 .14299999 0 C .27100004 0 .35400004 .1 .35400004 .115 C .35400004 .120000008 .34600003 .13100001 .338 .13100001 C .334 .13100001 .333 .13000001 .325 .120000008 C .251 .026 .16200002 .022000002 .145 .022000002 C .08 .022000002 .069000009 .093 .069000009 .13200002 C .069000009 .17000002 .078999999 .21500002 .085999999 .24200002 L .125 .24200002 M .09200001 .26400004 C .135 .42800004 .23800002 .43100003 .24800001 .43100003 C .288 .43100003 .311 .404 .311 .37000004 C .311 .26400004 .14600002 .26400004 .113000009 .26400004 L .09200001 .26400004 Z "/>
</symbol>
<symbol id="font_2_7">
<path d="M .147 .18600002 C .15200001 .20800002 .158 .22900002 .163 .25100003 C .176 .30200003 .176 .30300004 .19300002 .33200003 C .20700002 .35600005 .252 .43100003 .328 .43100003 C .372 .43100003 .374 .38600005 .374 .365 C .374 .30300004 .33 .18400002 .316 .14400001 C .303 .11000001 .3 .101 .3 .080000009 C .3 .036000004 .328 0 .37600003 0 C .46900005 0 .503 .14900002 .503 .15400002 C .503 .16400002 .495 .16400002 .48800005 .16400002 C .47500003 .16400002 .47500003 .16200002 .47100003 .14700002 C .463 .120000008 .43600006 .022000002 .37800003 .022000002 C .35700003 .022000002 .356 .037 .356 .051000004 C .356 .076000008 .36600004 .102000009 .374 .126 C .39400003 .17900002 .435 .291 .435 .34900005 C .435 .43100003 .38000003 .45300005 .33100004 .45300005 C .24900002 .45300005 .201 .39300005 .18800003 .374 C .181 .42300005 .147 .45300005 .104 .45300005 C .068 .45300005 .048000009 .43000005 .031999999 .40000005 C .012999997 .36 0 .30100004 0 .29900003 C 0 .28900004 .009999998 .28900004 .015000001 .28900004 C .028000005 .28900004 .029 .29000003 .034 .31200005 C .052 .38200004 .07100001 .43100003 .102 .43100003 C .128 .43100003 .128 .40200005 .128 .39100004 C .128 .37500004 .125 .35600005 .12100001 .34000004 L .046000005 .040000004 C .044 .034 .042999999 .029000003 .042999999 .026 C .042999999 .015000001 .051 0 .07100001 0 C .083000008 0 .10000001 .0070000009 .10700001 .026 L .147 .18600002 Z "/>
</symbol>
<use xlink:href="#font_2_3" transform="matrix(9.9626,0,0,-9.9626,201.24575,54.317998)" fill="#800000"/>
<use xlink:href="#font_2_1" transform="matrix(9.9626,0,0,-9.9626,205.13117,56.24078)" fill="#800000"/>
<use xlink:href="#font_2_a" transform="matrix(9.9626,0,0,-9.9626,211.85591,54.427587)" fill="#800000"/>
<use xlink:href="#font_2_6" transform="matrix(9.9626,0,0,-9.9626,218.39139,54.427587)" fill="#800000"/>
<use xlink:href="#font_2_4" transform="matrix(9.9626,0,0,-9.9626,223.87082,54.427587)" fill="#800000"/>
<use xlink:href="#font_2_7" transform="matrix(9.9626,0,0,-9.9626,228.14476,54.427587)" fill="#800000"/>
<use xlink:href="#font_1_2" transform="matrix(9.9626,0,0,-9.9626,236.1662,56.25074)" fill="#800000"/>
<symbol id="font_0_5">
<path d="M .42000003 .63100007 C .42900003 .64300009 .42900003 .64500007 .42900003 .66600009 L .18600002 .66600009 C .064 .66600009 .062000008 .679 .058000007 .6980001 L .033 .6980001 L 0 .49200005 L .024999999 .49200005 C .028000005 .508 .037 .57100006 .050000006 .58300009 C .057000005 .58900007 .13500002 .58900007 .148 .58900007 L .35500003 .58900007 C .344 .573 .26500003 .46400006 .24300003 .43100003 C .153 .29600004 .12000001 .157 .12000001 .055 C .12000001 .045 .12000001 0 .16600001 0 C .21200001 0 .21200001 .045 .21200001 .055 L .21200001 .106000009 C .21200001 .16100002 .21500004 .216 .22300002 .27 C .22700003 .29300005 .24100003 .37900005 .28500004 .44100005 L .42000003 .63100007 Z "/>
</symbol>
<use xlink:href="#font_0_6" transform="matrix(9.9626,0,0,-9.9626,244.82192,52.99297)" fill="#800000"/>
<use xlink:href="#font_0_5" transform="matrix(9.9626,0,0,-9.9626,255.34243,54.537176)" fill="#800000"/>
<use xlink:href="#font_2_5" transform="matrix(9.9626,0,0,-9.9626,259.51295,56.36033)" fill="#800000"/>
<use xlink:href="#font_2_9" transform="matrix(9.9626,0,0,-9.9626,263.7271,54.427587)" fill="#800000"/>
<path transform="matrix(1,0,0,-1,22.549,144.11499)" stroke-width="1" stroke-linecap="butt" stroke-miterlimit="10" stroke-linejoin="miter" fill="none" stroke="#000000" d="M 1.98447 141.73404 C 1.98447 142.83005 1.096 143.71852 0 143.71852 C -1.096 143.71852 -1.98447 142.83005 -1.98447 141.73404 C -1.98447 140.63805 -1.096 139.74956 0 139.74956 C 1.096 139.74956 1.98447 140.63805 1.98447 141.73404 Z M 0 141.73404 "/>
</svg>
