<?xml version="1.0" encoding="UTF-8" standalone="no"?>
<!DOCTYPE svg PUBLIC "-//W3C//DTD SVG 1.1//EN" "http://www.w3.org/Graphics/SVG/1.1/DTD/svg11.dtd">
<svg xmlns="http://www.w3.org/2000/svg" xmlns:xlink="http://www.w3.org/1999/xlink" version="1.1" width="106.949pt" height="57.783pt" viewBox="0 0 106.949 57.783">
<symbol id="font_0_1">
<path d="M 1.098 0 C 1.12 0 1.1350001 0 1.1350001 .029 C 1.1350001 .039000006 1.1350001 .049999983 1.1220001 .05700001 C 1.067 .083000008 .95300009 .137 .86800006 .28800003 C .85600009 .307 .855 .308 .82900008 .308 C .81200006 .308 .79300007 .308 .79300007 .28599999 C .79300007 .272 .8510001 .15599999 .9560001 .072999987 L .051000008 .072999987 C .036 .072999987 0 .072999987 0 .037 C 0 0 .035000005 0 .051000008 0 L 1.098 0 Z "/>
</symbol>
<use xlink:href="#font_0_1" transform="matrix(6.9738,0,0,-6.9738,3.8719295,27.421612)"/>
<symbol id="font_1_1">
<path d="M .075 .44400005 L 0 .44400005 L 0 .397 L .075 .397 L .075 .047000003 L .0059999974 .047000003 L .0059999974 0 C .041 .001 .086 .003 .132 .003 C .17000002 .003 .23400003 .003 .27 0 L .27 .047000003 L .183 .047000003 L .183 .397 L .298 .397 L .298 .44400005 L .17700002 .44400005 L .17700002 .545 C .17700002 .65500006 .25300003 .66400006 .27800004 .66400006 C .28300003 .66400006 .28800003 .66400006 .29500003 .66200008 C .28000004 .651 .272 .632 .272 .61300006 C .272 .57000008 .307 .551 .33300004 .551 C .36300005 .551 .395 .572 .395 .61300006 C .395 .65500006 .35900004 .70000007 .28100003 .70000007 C .183 .70000007 .075 .65800008 .075 .545 L .075 .44400005 Z "/>
</symbol>
<use xlink:href="#font_1_1" transform="matrix(9.9626,0,0,-9.9626,5.959429,37.825006)"/>
<symbol id="font_2_1">
<path d="M .23200003 .00999999 C .23200003 .012999982 .23200003 .014999986 .215 .03199999 C .09 .15799999 .058 .347 .058 .5 C .058 .674 .096 .84800007 .21900001 .97300007 C .23200003 .985 .23200003 .98700007 .23200003 .99 C .23200003 .99700006 .22800002 1 .222 1 C .21200001 1 .12200001 .93200007 .06299999 .805 C .012000002 .69500008 0 .584 0 .5 C 0 .422 .011 .301 .066 .188 C .126 .065 .21200001 0 .222 0 C .22800002 0 .23200003 .0029999912 .23200003 .00999999 Z "/>
</symbol>
<use xlink:href="#font_2_1" transform="matrix(9.9626,0,0,-9.9626,13.334297,40.315656)"/>
<symbol id="font_3_2">
<path d="M .18300002 .411 L .277 .411 C .29700003 .411 .307 .411 .307 .43100003 C .307 .44200004 .29700003 .44200004 .279 .44200004 L .19100002 .44200004 C .227 .584 .23200003 .60400006 .23200003 .61 C .23200003 .62700006 .22000002 .637 .20300001 .637 C .2 .637 .172 .636 .163 .601 L .124 .44200004 L .030000002 .44200004 C .009999998 .44200004 0 .44200004 0 .42300005 C 0 .411 .007999999 .411 .028 .411 L .11600001 .411 C .044 .127 .04 .11000001 .04 .092 C .04 .038000004 .078 0 .132 0 C .234 0 .291 .14600002 .291 .15400002 C .291 .16400002 .28300003 .16400002 .279 .16400002 C .27 .16400002 .26900003 .16100002 .264 .15000002 C .22100002 .046 .16800002 .022000002 .134 .022000002 C .113000009 .022000002 .103 .035 .103 .068 C .103 .092 .105000007 .09900001 .109 .116000007 L .18300002 .411 Z "/>
</symbol>
<use xlink:href="#font_3_2" transform="matrix(9.9626,0,0,-9.9626,16.45114,37.934595)"/>
<symbol id="font_2_2">
<path d="M .232 .5 C .232 .578 .22100002 .699 .16600001 .81200006 C .106 .93500009 .020000004 1 .009999998 1 C .0040000008 1 0 .99600008 0 .99 C 0 .98700007 0 .985 .019000002 .967 C .117000009 .86800006 .174 .709 .174 .5 C .174 .329 .137 .153 .012999997 .026999996 C 0 .014999986 0 .012999982 0 .00999999 C 0 .003999993 .0040000008 0 .009999998 0 C .020000004 0 .11000001 .06799999 .169 .195 C .22 .305 .232 .416 .232 .5 Z "/>
</symbol>
<symbol id="font_2_3">
<path d="M .63100007 .19400002 C .646 .19400002 .665 .19400002 .665 .214 C .665 .23400001 .646 .23400001 .632 .23400001 L .033 .23400001 C .019000002 .23400001 0 .23400001 0 .214 C 0 .19400002 .019000002 .19400002 .034 .19400002 L .63100007 .19400002 M .632 0 C .646 0 .665 0 .665 .02000001 C .665 .040000008 .646 .040000008 .63100007 .040000008 L .034 .040000008 C .019000002 .040000008 0 .040000008 0 .02000001 C 0 0 .019000002 0 .033 0 L .632 0 Z "/>
</symbol>
<use xlink:href="#font_2_2" transform="matrix(9.9626,0,0,-9.9626,20.387867,40.315656)"/>
<use xlink:href="#font_2_3" transform="matrix(9.9626,0,0,-9.9626,27.022959,36.499979)"/>
<symbol id="font_4_1">
<path d="M .218 .962 C .22299999 .97300007 .22299999 .975 .22299999 .98 C .22299999 .99100008 .21399999 1 .20300001 1 C .194 1 .187 .99500009 .18 .97700008 L .004999995 .518 C .0029999987 .512 0 .50600007 0 .5 C 0 .497 0 .495 .004999995 .483 L .18 .023999989 C .18399999 .012999982 .18900001 0 .20300001 0 C .21399999 0 .22299999 .008999988 .22299999 .019999996 C .22299999 .022999987 .22299999 .024999991 .218 .035999985 L .041 .5 L .218 .962 Z "/>
</symbol>
<use xlink:href="#font_4_1" transform="matrix(9.9626,0,0,-9.9626,38.073888,40.315656)"/>
<symbol id="font_3_3">
<path d="M .305 .31300003 C .311 .33900003 .334 .43100003 .404 .43100003 C .409 .43100003 .433 .43100003 .454 .418 C .426 .41300003 .40600003 .388 .40600003 .36400003 C .40600003 .34800003 .417 .32900004 .444 .32900004 C .46600003 .32900004 .498 .34700004 .498 .38700003 C .498 .43900005 .439 .45300005 .405 .45300005 C .347 .45300005 .312 .40000005 .3 .37700004 C .275 .44300003 .221 .45300005 .19200002 .45300005 C .08800001 .45300005 .031000002 .32400004 .031000002 .29900003 C .031000002 .28900004 .041 .28900004 .043000007 .28900004 C .051000008 .28900004 .054000006 .291 .056 .3 C .09 .40600003 .156 .43100003 .19000001 .43100003 C .209 .43100003 .244 .42200003 .244 .36400003 C .244 .33300004 .22700002 .26600004 .19000001 .126 C .17400001 .064 .13900002 .022000002 .095000009 .022000002 C .08900001 .022000002 .06600001 .022000002 .045 .035 C .07000001 .040000004 .09200001 .061 .09200001 .089 C .09200001 .116000007 .07000001 .124000009 .055000009 .124000009 C .025 .124000009 0 .098000008 0 .06600001 C 0 .020000002 .050000006 0 .094000007 0 C .16000001 0 .19600001 .07000001 .19900002 .076000008 C .21100001 .039 .24700003 0 .307 0 C .41 0 .467 .12900001 .467 .15400002 C .467 .16400002 .458 .16400002 .455 .16400002 C .446 .16400002 .444 .16000001 .442 .15300001 C .409 .046 .341 .022000002 .30900003 .022000002 C .27 .022000002 .254 .054 .254 .08800001 C .254 .11000001 .26 .13200002 .271 .17600002 L .305 .31300003 Z "/>
</symbol>
<use xlink:href="#font_3_3" transform="matrix(9.9626,0,0,-9.9626,41.140916,37.934595)"/>
<use xlink:href="#font_2_1" transform="matrix(9.9626,0,0,-9.9626,47.5323,40.315656)"/>
<use xlink:href="#font_3_2" transform="matrix(9.9626,0,0,-9.9626,50.649145,37.934595)"/>
<use xlink:href="#font_2_2" transform="matrix(9.9626,0,0,-9.9626,54.58587,40.315656)"/>
<symbol id="font_3_1">
<path d="M .117000009 .194 C .117000009 .26 .092 .29900003 .05300001 .29900003 C .020000004 .29900003 0 .274 0 .246 C 0 .21900001 .020000004 .193 .05300001 .193 C .065000008 .193 .078 .197 .08800001 .206 C .091 .208 .092 .209 .093 .209 C .094000007 .209 .095000009 .208 .095000009 .194 C .095000009 .12 .06000001 .060000004 .027000003 .026999996 C .016000003 .016000003 .016000003 .013999999 .016000003 .0109999929 C .016000003 .003999993 .021000006 0 .026 0 C .037 0 .117000009 .077 .117000009 .194 Z "/>
</symbol>
<symbol id="font_3_4">
<path d="M .45700003 .586 C .461 .6 .461 .602 .461 .609 C .461 .62700006 .447 .63600006 .432 .63600006 C .42200003 .63600006 .40600003 .63 .397 .615 C .395 .61 .387 .579 .38300003 .561 C .37600003 .535 .36900003 .508 .363 .48100005 L .318 .301 C .314 .286 .271 .21600002 .20500002 .21600002 C .15400002 .21600002 .143 .26000003 .143 .29700003 C .143 .34300003 .16000001 .40500004 .194 .49300004 C .21000001 .53400006 .21400002 .545 .21400002 .56500008 C .21400002 .61 .18200001 .6470001 .13200002 .6470001 C .037 .6470001 0 .50200006 0 .49300004 C 0 .48300005 .01 .48300005 .012 .48300005 C .022000002 .48300005 .023 .485 .028000003 .50100007 C .055000009 .595 .095000009 .625 .12900001 .625 C .13700001 .625 .15400002 .625 .15400002 .59300008 C .15400002 .568 .14400001 .54200008 .13700001 .523 C .097 .41700004 .079 .36 .079 .31300003 C .079 .224 .142 .194 .201 .194 C .24000003 .194 .274 .21100001 .30200003 .23900002 C .289 .187 .277 .13800001 .237 .08500001 C .21100001 .051 .17300001 .022 .127 .022 C .113000009 .022 .068 .025000006 .051000008 .06400001 C .067 .06400001 .080000009 .06400001 .094000007 .076000008 C .104 .08500001 .11400001 .098000008 .11400001 .117000009 C .11400001 .148 .087000008 .15200001 .07700001 .15200001 C .054000006 .15200001 .021 .136 .021 .087000008 C .021 .037 .065000008 0 .127 0 C .23 0 .333 .091000009 .361 .20400001 L .45700003 .586 Z "/>
</symbol>
<use xlink:href="#font_3_1" transform="matrix(9.9626,0,0,-9.9626,58.748788,39.747789)"/>
<use xlink:href="#font_3_4" transform="matrix(9.9626,0,0,-9.9626,62.614274,39.867338)"/>
<use xlink:href="#font_2_1" transform="matrix(9.9626,0,0,-9.9626,68.5483,40.315656)"/>
<use xlink:href="#font_3_2" transform="matrix(9.9626,0,0,-9.9626,71.665149,37.934595)"/>
<use xlink:href="#font_2_2" transform="matrix(9.9626,0,0,-9.9626,75.601879,40.315656)"/>
<symbol id="font_3_5">
<path d="M .09 .094000007 C .14400001 .15200001 .17300001 .17700002 .209 .20800002 C .209 .20900002 .271 .26200003 .307 .298 C .402 .39100004 .424 .43900005 .424 .44300003 C .424 .45300005 .41500003 .45300005 .41300003 .45300005 C .40600003 .45300005 .403 .45100004 .398 .44200004 C .368 .39400003 .347 .37800003 .323 .37800003 C .299 .37800003 .287 .39300005 .272 .41000004 C .253 .43300004 .23600002 .45300005 .20300001 .45300005 C .128 .45300005 .082 .36 .082 .33900003 C .082 .33400003 .08500001 .328 .09400001 .328 C .103000018 .328 .105000007 .33300004 .10700001 .33900003 C .12600002 .38500003 .18400002 .38600005 .19200002 .38600005 C .21300002 .38600005 .23200001 .37900005 .255 .37100003 C .29500003 .35600005 .306 .35600005 .33200003 .35600005 C .296 .31300003 .21200003 .24100001 .19300002 .22500003 L .103000018 .14100002 C .035 .074 0 .017 0 .010000001 C 0 0 .010000002 0 .012000002 0 C .02 0 .022000004 .0020000004 .028 .013000001 C .051000004 .048 .081 .075 .113000009 .075 C .136 .075 .14600002 .06600001 .17100002 .037 C .18800001 .016 .20600002 0 .23500003 0 C .334 0 .39200003 .127 .39200003 .15400002 C .39200003 .15900001 .388 .16400002 .38 .16400002 C .37100003 .16400002 .36900003 .158 .366 .15100001 C .343 .086 .279 .067 .246 .067 C .22600003 .067 .20800002 .07300001 .187 .080000009 C .15300001 .093 .13800001 .097 .11700001 .097 C .11500001 .097 .09900001 .097 .09 .094000007 Z "/>
</symbol>
<use xlink:href="#font_3_1" transform="matrix(9.9626,0,0,-9.9626,79.764789,39.747789)"/>
<use xlink:href="#font_3_5" transform="matrix(9.9626,0,0,-9.9626,83.76975,37.934595)"/>
<use xlink:href="#font_2_1" transform="matrix(9.9626,0,0,-9.9626,89.3933,40.315656)"/>
<use xlink:href="#font_3_2" transform="matrix(9.9626,0,0,-9.9626,92.51115,37.934595)"/>
<use xlink:href="#font_2_2" transform="matrix(9.9626,0,0,-9.9626,96.44688,40.315656)"/>
<symbol id="font_4_2">
<path d="M .218 .483 C .22300002 .495 .22300002 .497 .22300002 .5 C .22300002 .503 .22300002 .505 .218 .517 L .043 .97700008 C .037000006 .994 .031 1 .02 1 C .009 1 0 .99100008 0 .98 C 0 .97700008 0 .975 .004999999 .96400007 L .18200001 .5 L .004999999 .037999989 C 0 .026999996 0 .024999991 0 .019999996 C 0 .008999988 .009 0 .02 0 C .033000005 0 .037000006 .00999999 .040999999 .019999996 L .218 .483 Z "/>
</symbol>
<use xlink:href="#font_4_2" transform="matrix(9.9626,0,0,-9.9626,100.30195,40.315656)"/>
<symbol id="font_5_3">
<path d="M .484 .09200001 C .484 .115 .484 .120000008 .47 .120000008 C .409 .12100001 .31 .12900001 .22000002 .17300001 C .112 .22700002 .071 .29000003 .046000005 .32900004 C .043 .33400003 .037 .33400003 .024 .33400003 C .0009999983 .33400003 0 .333 0 .30800004 L 0 .29200004 C .136 .047000003 .361 0 .463 0 C .484 0 .484 .001 .484 .028 L .484 .09200001 Z "/>
</symbol>
<use xlink:href="#font_5_3" transform="matrix(9.9626,0,0,-9.9626,36.738904,44.500005)"/>
<path transform="matrix(1,0,0,-1,41.461,44.500005)" d="M 0 0 L 24.359 0 L 24.359 1.195 L 0 1.195 Z "/>
<symbol id="font_5_2">
<path d="M .48400004 .04200001 C .34800003 .28700004 .123 .33400003 .021000002 .33400003 C 0 .33400003 0 .333 0 .30600003 L 0 .24200002 C 0 .21900001 0 .21400002 .014 .21400002 C .075 .21300002 .17400001 .20500002 .264 .16100002 C .372 .10700001 .41300003 .044000016 .43800003 .00500001 C .441 0 .447 0 .46 0 C .483 0 .48400004 .001000002 .48400004 .026000008 L .48400004 .04200001 Z "/>
</symbol>
<symbol id="font_5_1">
<path d="M .484 .30600003 C .484 .333 .484 .33400003 .463 .33400003 C .361 .33400003 .136 .286 0 .04200001 L 0 .026000008 C 0 .001000002 .0009999983 0 .024 0 C .043 0 .044 .001000002 .049000004 .008000001 C .13100001 .13900002 .269 .21000003 .472 .21400002 C .484 .21400002 .484 .22100002 .484 .24200002 L .484 .30600003 Z "/>
</symbol>
<use xlink:href="#font_5_2" transform="matrix(9.9626,0,0,-9.9626,65.720378,46.632)"/>
<use xlink:href="#font_5_1" transform="matrix(9.9626,0,0,-9.9626,70.064067,46.632)"/>
<path transform="matrix(1,0,0,-1,74.786,44.500005)" d="M 0 0 L 24.359 0 L 24.359 1.195 L 0 1.195 Z "/>
<symbol id="font_5_4">
<path d="M .48400004 .30800004 C .48400004 .333 .483 .33400003 .46 .33400003 C .441 .33400003 .44 .333 .435 .326 C .35300002 .19500001 .21500002 .124000009 .012000001 .120000008 C 0 .120000008 0 .113000009 0 .09200001 L 0 .028 C 0 .001 0 0 .021000002 0 C .123 0 .34800003 .048 .48400004 .29200004 L .48400004 .30800004 Z "/>
</symbol>
<use xlink:href="#font_5_4" transform="matrix(9.9626,0,0,-9.9626,99.04537,44.500005)"/>
<symbol id="font_6_b">
<path d="M .44300006 .343 C .47100006 .404 .521 .405 .537 .405 L .537 .441 C .512 .439 .48600004 .437 .46100004 .437 C .43400005 .437 .39700005 .43800003 .37000004 .441 L .37000004 .405 C .41200004 .403 .41200004 .37 .41200004 .367 C .41200004 .36200003 .41100005 .352 .40400005 .338 L .29100005 .091 L .16700001 .363 C .16700001 .364 .161 .375 .161 .382 C .161 .405 .19500001 .405 .21200001 .405 L .21200001 .441 C .21000001 .441 .139 .437 .098000008 .437 C .068 .437 .029000001 .43800003 0 .441 L 0 .405 C .055 .405 .067 .403 .082 .36900003 L .24000003 .021000002 C .24500002 .009000001 .25100003 0 .26800005 0 C .28700004 0 .29100005 .009000001 .29600004 .020000002 L .44300006 .343 Z "/>
</symbol>
<symbol id="font_6_3">
<path d="M .40100003 .23800002 C .42200003 .23800002 .42900003 .23800002 .42900003 .26 C .42900003 .34800003 .38000003 .456 .231 .456 C .10000001 .456 0 .352 0 .22900002 C 0 .102000009 .111 0 .24400002 0 C .379 0 .42900003 .108 .42900003 .13000001 C .42900003 .134 .42700003 .14400001 .41200004 .14400001 C .39900003 .14400001 .397 .13800001 .39400003 .128 C .363 .047000003 .287 .032 .25100003 .032 C .20400001 .032 .15900001 .053000004 .12900001 .091 C .09200001 .13800001 .091000009 .19900002 .091000009 .23800002 L .40100003 .23800002 M .09200001 .264 C .103 .405 .193 .428 .231 .428 C .354 .428 .358 .289 .35900004 .264 L .09200001 .264 Z "/>
</symbol>
<symbol id="font_6_2">
<path d="M .34300003 .409 C .32500003 .40100003 .31500004 .38500003 .31500004 .365 C .31500004 .338 .33400003 .31800003 .36200003 .31800003 C .38900004 .31800003 .41000004 .335 .41000004 .367 C .41000004 .456 .271 .456 .243 .456 C .09300001 .456 0 .34100003 0 .22600001 C 0 .1 .10700001 0 .238 0 C .38700003 0 .42200003 .118 .42200003 .13000001 C .42200003 .142 .409 .142 .40500004 .142 C .39200003 .142 .391 .13900002 .386 .125 C .36400003 .063 .31100003 .032 .25 .032 C .18100001 .032 .091000009 .083000008 .091000009 .22700002 C .091000009 .354 .15300001 .42400003 .24600002 .42400003 C .259 .42400003 .307 .42400003 .34300003 .409 Z "/>
</symbol>
<symbol id="font_6_9">
<path d="M .172 .405 L .328 .405 L .328 .441 L .172 .441 L .172 .625 L .13800001 .625 C .13700001 .535 .096 .43600003 0 .433 L 0 .405 L .09300001 .405 L .09300001 .135 C .09300001 .023000002 .17700002 0 .23300003 0 C .3 0 .34600003 .057000005 .34600003 .136 L .34600003 .19100002 L .312 .19100002 L .312 .13700001 C .312 .069000009 .28 .032 .24100001 .032 C .172 .032 .172 .116000007 .172 .134 L .172 .405 Z "/>
</symbol>
<symbol id="font_6_6">
<path d="M .49000005 .22300002 C .49000005 .34800003 .38300003 .456 .245 .456 C .10700001 .456 0 .34800003 0 .22300002 C 0 .099 .11 0 .245 0 C .38000003 0 .49000005 .099 .49000005 .22300002 M .245 .032 C .208 .032 .154 .044000005 .12100001 .093 C .094 .134 .091000009 .18600002 .091000009 .23200003 C .091000009 .275 .09200001 .334 .127 .377 C .15200001 .40600003 .194 .428 .245 .428 C .30400003 .428 .34600003 .4 .368 .36900003 C .39600004 .33 .39900003 .28 .39900003 .23200003 C .39900003 .18400002 .39600004 .13100001 .367 .09 C .34 .052000006 .294 .032 .245 .032 Z "/>
</symbol>
<symbol id="font_6_7">
<path d="M .15 .22800002 C .15 .312 .18900001 .41300003 .284 .41300003 C .275 .40600003 .26700003 .393 .26700003 .377 C .26700003 .344 .293 .33100004 .31200005 .33100004 C .33600004 .33100004 .358 .347 .358 .377 C .358 .411 .32600004 .441 .279 .441 C .22900003 .441 .174 .41000004 .144 .33400003 L .143 .33400003 L .143 .441 L 0 .43 L 0 .39400003 C .067 .39400003 .075 .38700003 .075 .33800004 L .075 .079 C .075 .036000004 .065000008 .036000004 0 .036000004 L 0 0 C .004999999 0 .07300001 .004 .114 .004 C .157 .004 .201 .002 .24400002 0 L .24400002 .036000004 L .224 .036000004 C .15 .036000004 .15 .047000003 .15 .081 L .15 .22800002 Z "/>
</symbol>
<use xlink:href="#font_6_b" transform="matrix(6.9738,0,0,-6.9738,59.89218,53.53574)"/>
<use xlink:href="#font_6_3" transform="matrix(6.9738,0,0,-6.9738,63.916067,53.53574)"/>
<use xlink:href="#font_6_2" transform="matrix(6.9738,0,0,-6.9738,67.507579,53.53574)"/>
<use xlink:href="#font_6_9" transform="matrix(6.9738,0,0,-6.9738,70.93172,53.53574)"/>
<use xlink:href="#font_6_6" transform="matrix(6.9738,0,0,-6.9738,74.11177,53.53574)"/>
<use xlink:href="#font_6_7" transform="matrix(6.9738,0,0,-6.9738,78.15657,53.466005)"/>
<path transform="matrix(1,0,0,-1,53.474,39.757005)" stroke-width="1.59404" stroke-linecap="butt" stroke-miterlimit="10" stroke-linejoin="miter" fill="none" stroke="#808080" d="M 14.17339 28.3468 L 2.67703 16.85037 "/>
<path transform="matrix(-.70712,.7071,.7071,.70712,56.15105,22.906615)" d="M 3.78581 0 L -2.27148 3.02866 L 0 0 L -2.27148 -3.02866 " fill="#808080"/>
<path transform="matrix(1,0,0,-1,53.474,39.757005)" stroke-width="1.59404" stroke-linecap="butt" stroke-miterlimit="10" stroke-linejoin="miter" fill="none" stroke="#808080" d="M 14.17339 28.3468 L 14.17339 17.95921 "/>
<path transform="matrix(0,1,1,0,67.64739,21.797795)" d="M 3.78581 0 L -2.27148 3.02866 L 0 0 L -2.27148 -3.02866 " fill="#808080"/>
<path transform="matrix(1,0,0,-1,53.474,39.757005)" stroke-width="1.59404" stroke-linecap="butt" stroke-miterlimit="10" stroke-linejoin="miter" fill="none" stroke="#808080" d="M 14.17339 28.3468 L 25.66977 16.85037 "/>
<path transform="matrix(.70712,.7071,.7071,-.70712,79.14375,22.906615)" d="M 3.78581 0 L -2.27148 3.02866 L 0 0 L -2.27148 -3.02866 " fill="#808080"/>
<symbol id="font_6_5">
<path d="M .46100006 .303 C .46100006 .39000003 .41800005 .441 .31100003 .441 C .22900002 .441 .176 .39600004 .148 .344 L .147 .344 L .147 .441 L 0 .43 L 0 .39400003 C .067 .39400003 .075 .38700003 .075 .33800004 L .075 .079 C .075 .036000004 .065 .036000004 0 .036000004 L 0 0 C .0020000004 0 .072 .004 .11400001 .004 C .15100001 .004 .22000002 .001 .22900002 0 L .22900002 .036000004 C .164 .036000004 .154 .036000004 .154 .079 L .154 .259 C .154 .36400003 .237 .41300003 .30300004 .41300003 C .37300004 .41300003 .38200004 .358 .38200004 .307 L .38200004 .079 C .38200004 .036000004 .37200005 .036000004 .30700005 .036000004 L .30700005 0 C .30900003 0 .37900005 .004 .42100004 .004 C .45800004 .004 .527 .001 .536 0 L .536 .036000004 C .47100006 .036000004 .46100006 .036000004 .46100006 .079 L .46100006 .303 Z "/>
</symbol>
<symbol id="font_6_a">
<path d="M .30700005 .44 L .30700005 .404 C .37400005 .404 .38200004 .397 .38200004 .34800003 L .38200004 .17700002 C .38200004 .089 .32500003 .028 .249 .028 C .158 .028 .154 .071 .154 .122 L .154 .451 L 0 .44 L 0 .404 C .075 .404 .075 .40100003 .075 .312 L .075 .16200002 C .075 .093 .075 0 .242 0 C .26400004 0 .33700005 0 .38500003 .084 L .38600005 .084 L .38600005 0 L .536 .010000001 L .536 .046000005 C .469 .046000005 .46100006 .053000004 .46100006 .102000009 L .46100006 .451 L .30700005 .44 Z "/>
</symbol>
<symbol id="font_6_4">
<path d="M .768 .303 C .768 .39000003 .725 .441 .61800006 .441 C .53900006 .441 .48500005 .39800004 .45800004 .34800003 C .43800003 .41900004 .38400004 .441 .31100003 .441 C .22900002 .441 .176 .39600004 .148 .344 L .147 .344 L .147 .441 L 0 .43 L 0 .39400003 C .067 .39400003 .075 .38700003 .075 .33800004 L .075 .079 C .075 .036000004 .065 .036000004 0 .036000004 L 0 0 C .0020000004 0 .072 .004 .11400001 .004 C .15100001 .004 .22000002 .001 .22900002 0 L .22900002 .036000004 C .164 .036000004 .154 .036000004 .154 .079 L .154 .259 C .154 .36400003 .237 .41300003 .30300004 .41300003 C .37300004 .41300003 .38200004 .358 .38200004 .307 L .38200004 .079 C .38200004 .036000004 .37200005 .036000004 .30700005 .036000004 L .30700005 0 C .30900003 0 .37900005 .004 .42100004 .004 C .45800004 .004 .527 .001 .536 0 L .536 .036000004 C .47100006 .036000004 .46100006 .036000004 .46100006 .079 L .46100006 .259 C .46100006 .36400003 .544 .41300003 .61 .41300003 C .68 .41300003 .689 .358 .689 .307 L .689 .079 C .689 .036000004 .679 .036000004 .614 .036000004 L .614 0 C .616 0 .686 .004 .72800007 .004 C .76500007 .004 .83400008 .001 .843 0 L .843 .036000004 C .778 .036000004 .768 .036000004 .768 .079 L .768 .303 Z "/>
</symbol>
<symbol id="font_6_1">
<path d="M .15 .704 L 0 .693 L 0 .657 C .068 .657 .075 .64900007 .075 .59900006 L .075 .010000001 L .109000008 .010000001 L .144 .071 C .18200001 .021000002 .23700002 0 .29000003 0 C .42200003 0 .535 .099 .535 .22600001 C .535 .34800003 .43200005 .451 .30100004 .451 C .24100003 .451 .18600002 .42700003 .15 .391 L .15 .704 M .15400002 .345 C .18200001 .391 .23600003 .423 .29600004 .423 C .35200004 .423 .39200003 .391 .41200004 .361 C .43200005 .33200003 .44400005 .293 .44400005 .22700002 C .44400005 .20400001 .44400005 .12900001 .40300004 .082 C .36300005 .037 .314 .028 .28500004 .028 C .20500002 .028 .16500002 .091 .15400002 .112 L .15400002 .345 Z "/>
</symbol>
<symbol id="font_6_8">
<path d="M .334 .43 C .334 .447 .334 .456 .32 .456 C .315 .456 .31300003 .456 .3 .444 C .29800005 .44300003 .288 .43400003 .282 .42900003 C .25200004 .45000003 .214 .456 .17700002 .456 C .034 .456 0 .381 0 .331 C 0 .299 .014000002 .273 .038000004 .25300003 C .076000008 .22000002 .11400001 .21300002 .17600002 .20300001 C .22600003 .19400002 .30700005 .18 .30700005 .113000009 C .30700005 .074 .28000004 .028 .18400002 .028 C .088 .028 .053000004 .091 .035000005 .15900001 C .032000007 .172 .031000004 .17600002 .017 .17600002 C 0 .17600002 0 .16900002 0 .14900002 L 0 .026 C 0 .009000001 0 0 .014000002 0 C .023000002 0 .042000005 .021000002 .062000008 .043 C .106000009 .0020000004 .16000001 0 .18400002 0 C .314 0 .362 .07 .362 .14100002 C .362 .17900002 .34500004 .20900002 .319 .23300001 C .28100003 .268 .235 .276 .2 .282 C .120000008 .296 .055 .308 .055 .361 C .055 .393 .082 .432 .17700002 .432 C .29300005 .432 .29800005 .351 .3 .322 C .301 .31100003 .31300003 .31100003 .31700004 .31100003 C .334 .31100003 .334 .31800003 .334 .337 L .334 .43 Z "/>
</symbol>
<use xlink:href="#font_6_5" transform="matrix(6.9738,0,0,-6.9738,53.352586,8.163006)"/>
<use xlink:href="#font_6_a" transform="matrix(6.9738,0,0,-6.9738,57.536867,8.232744)"/>
<use xlink:href="#font_6_4" transform="matrix(6.9738,0,0,-6.9738,61.937334,8.163006)"/>
<use xlink:href="#font_6_1" transform="matrix(6.9738,0,0,-6.9738,68.23467,8.232744)"/>
<use xlink:href="#font_6_3" transform="matrix(6.9738,0,0,-6.9738,72.78159,8.232744)"/>
<use xlink:href="#font_6_7" transform="matrix(6.9738,0,0,-6.9738,76.39402,8.163006)"/>
<use xlink:href="#font_6_8" transform="matrix(6.9738,0,0,-6.9738,79.47643,8.232744)"/>
</svg>
