<?xml version="1.0" encoding="UTF-8" standalone="no"?>
<!DOCTYPE svg PUBLIC "-//W3C//DTD SVG 1.1//EN" "http://www.w3.org/Graphics/SVG/1.1/DTD/svg11.dtd">
<svg xmlns="http://www.w3.org/2000/svg" xmlns:xlink="http://www.w3.org/1999/xlink" version="1.1" width="194.336pt" height="161.529pt" viewBox="0 0 194.336 161.529">
<clipPath id="cp0">
<path transform="matrix(1,0,0,-1,132.535,143.973)" d="M -132.53662 3.34291 L -132.53662 134.2289 L 0 143.97458 L 61.80182 123.07521 L 61.80182 -7.81078 L -70.7348 -17.55646 Z "/>
</clipPath>
<g clip-path="url(#cp0)">
<path transform="matrix(1,0,0,-1,132.535,143.973)" stroke-width="1.19553" stroke-linecap="butt" stroke-miterlimit="10" stroke-linejoin="miter" fill="none" stroke="#000080" d="M -71.12888 -24.1574 C -71.12888 -24.1574 -66.12874 -24.05008 -64.12825 -23.98251 C -62.12776 -23.91493 -58.81213 -23.77696 -56.71066 -23.67033 C -54.6092 -23.5637 -51.15434 -23.3613 -48.98233 -23.21397 C -46.81032 -23.06665 -43.26715 -22.79749 -41.05626 -22.60844 C -38.84538 -22.41942 -35.26549 -22.0827 -33.04774 -21.8515 C -30.83 -21.62029 -27.26468 -21.21523 -25.07225 -20.942 C -22.87982 -20.66876 -19.3813 -20.19672 -17.24619 -19.88226 C -15.11107 -19.56781 -11.73027 -19.02986 -9.68372 -18.67561 C -7.63716 -18.32135 -4.42456 -17.72107 -2.49606 -17.32903 C -.56757 -16.93698 2.4327 -16.2774 4.2155 -15.85 C 5.9983 -15.42259 8.74261 -14.70827 10.35324 -14.2486 C 11.96385 -13.78891 14.40845 -13.02538 15.82373 -12.53688 C 17.23901 -12.04839 19.35396 -11.24118 20.5537 -10.72775 C 21.75342 -10.21432 23.50429 -9.37042 24.47057 -8.83641 C 25.43686 -8.30241 26.7989 -7.42905 27.51807 -6.879 C 28.23723 -6.32893 29.19261 -5.43326 29.65378 -4.87193 C 30.11494 -4.31062 30.64569 -3.4009 30.84184 -2.83334 C 31.038 -2.2658 31.1386 -1.35011 31.06752 -.78134 C 30.99643 -.21257 30.6668 .70108 30.32947 1.26595 C 29.99216 1.83083 29.23503 2.73402 28.63635 3.28998 C 28.03767 3.84593 26.86575 4.73079 26.01454 5.27289 C 25.16335 5.81499 23.5929 6.67345 22.50142 7.19708 C 21.40993 7.72072 19.46385 8.5461 18.14777 9.04688 C 16.83168 9.54764 14.53752 10.33264 13.01599 10.80637 C 11.49445 11.28009 8.8862 12.0182 7.1815 12.46121 C 5.47679 12.9042 2.59288 13.59013 .72964 13.9992 C -1.13359 14.40828 -4.25255 15.03719 -6.24751 15.40952 C -8.2425 15.78183 -11.5512 16.34935 -13.64874 16.6827 C -15.74628 17.01602 -19.19585 17.51927 -21.36513 17.81195 C -23.53441 18.10463 -27.0739 18.54124 -29.2834 18.79222 C -31.4929 19.04321 -35.07164 19.4121 -37.28978 19.62096 C -39.50792 19.82982 -43.07564 20.13069 -45.27017 20.29758 C -47.46472 20.46448 -50.96799 20.69817 -53.10655 20.82379 C -55.24512 20.9494 -58.63208 21.1173 -60.68352 21.20302 C -62.73497 21.28874 -65.9568 21.3939 -67.89198 21.44173 C -69.82716 21.48955 -72.84013 21.53542 -74.63098 21.54774 C -76.42184 21.56007 -79.17915 21.55081 -80.79924 21.53067 C -82.41933 21.51053 -84.88185 21.45169 -86.30751 21.40256 C -87.73317 21.35342 -89.86392 21.25076 -91.07442 21.1765 C -92.28493 21.10223 -94.05426 20.96239 -95.03204 20.86726 C -96.00983 20.77214 -97.39037 20.60228 -98.12161 20.49089 C -98.85286 20.3795 -99.82841 20.18726 -100.30244 20.06444 C -100.77647 19.94164 -101.32861 19.73492 -101.53818 19.6056 C -101.74773 19.47629 -101.87054 19.26309 -101.81288 19.13231 C -101.75522 19.00153 -101.4464 18.79016 -101.1225 18.663 C -100.79861 18.53583 -100.06413 18.3342 -99.47847 18.21568 C -98.8928 18.09717 -97.7403 17.9137 -96.9014 17.8088 C -96.06252 17.70392 -94.51216 17.5463 -93.43228 17.45963 C -92.35239 17.37297 -90.42384 17.24811 -89.11832 17.18416 C -87.8128 17.12021 -85.53505 17.0357 -84.02303 16.99861 C -82.51102 16.96152 -79.91711 16.92334 -78.22072 16.91678 C -76.52434 16.91023 -73.65285 16.92409 -71.79663 16.95131 C -69.9404 16.97853 -66.83136 17.04926 -64.84229 17.11308 C -62.85321 17.17693 -59.55376 17.30867 -57.46074 17.4114 C -55.3677 17.51414 -51.92365 17.7103 -49.75716 17.85358 C -47.59068 17.99686 -44.05457 18.25922 -41.84618 18.44409 C -39.63779 18.62898 -36.05899 18.95912 -33.84053 19.18617 C -31.62206 19.41321 -28.05339 19.81146 -25.85695 20.08052 C -23.6605 20.34956 -20.15215 20.81494 -18.01 21.12526 C -15.86783 21.43558 -12.47426 21.9668 -10.41768 22.31712 C -8.3611 22.66745 -5.12894 23.26183 -3.18747 23.65027 C -1.24599 24.03871 1.77696 24.69269 3.57516 25.11674 C 5.37335 25.5408 8.14407 26.24994 9.77277 26.7066 C 11.40146 27.16327 13.87798 27.92227 15.31375 28.40811 C 16.74953 28.89395 18.89923 29.6971 20.12096 30.20822 C 21.34267 30.71935 23.1294 31.55972 24.11917 32.09192 C 25.10896 32.6241 26.51065 33.4952 27.25465 34.0439 C 27.99864 34.59259 28.99443 35.48627 29.4815 36.04666 C 29.96858 36.60706 30.54228 37.51572 30.76523 38.0829 C 30.98816 38.65007 31.1326 39.56557 31.08836 40.13445 C 31.04411 40.70332 30.7571 41.61754 30.44629 42.18301 C 30.13548 42.7485 29.42145 43.65305 28.84828 44.21011 C 28.27513 44.76717 27.14229 45.65424 26.31534 46.19794 C 25.48837 46.74164 23.95651 47.60316 22.8881 48.12881 C 21.8197 48.65446 19.90979 49.4834 18.61496 49.98659 C 17.32014 50.48978 15.05821 51.27895 13.5559 51.7555 C 12.05356 52.23204 9.4749 52.9751 7.78725 53.42131 C 6.09961 53.86752 3.24124 54.55894 1.39249 54.97147 C -.45624 55.38399 -3.55426 56.01848 -5.53723 56.39452 C -7.52022 56.77055 -10.81097 57.34447 -12.89943 57.6818 C -14.9879 58.0191 -18.42603 58.52888 -20.58951 58.8257 C -22.75299 59.12253 -26.28522 59.56586 -28.49237 59.82109 C -30.69954 60.07631 -34.27846 60.45218 -36.49727 60.66522 C -38.71606 60.87827 -42.28566 61.18567 -44.48404 61.35664 C -46.6824 61.5276 -50.19604 61.76785 -52.34166 61.89748 C -54.48729 62.0271 -57.88692 62.20135 -59.94826 62.29094 C -62.00961 62.38052 -65.25053 62.49179 -67.19841 62.54324 C -69.14629 62.5947 -72.18114 62.64621 -73.98724 62.66191 C -75.79335 62.67761 -78.57784 62.67357 -80.21564 62.6565 C -81.85344 62.63942 -84.3456 62.58524 -85.79138 62.53877 C -87.23717 62.49231 -89.40308 62.39355 -90.63588 62.3216 C -91.86868 62.24965 -93.67455 62.11331 -94.67659 62.0201 C -95.67863 61.92688 -97.10136 61.75967 -97.85791 61.64973 C -98.61446 61.5398 -99.62964 61.34952 -100.1293 61.22762 C -100.62895 61.10571 -101.22325 60.90004 -101.4592 60.7711 C -101.69514 60.64217 -101.86118 60.42915 -101.82986 60.29826 C -101.79855 60.16737 -101.53122 59.95549 -101.23338 59.82773 C -100.93555 59.69997 -100.2433 59.49702 -99.68323 59.37746 C -99.12315 59.2579 -98.01125 59.07239 -97.19676 58.96597 C -96.38226 58.85956 -94.8695 58.69905 -93.81291 58.61043 C -92.7563 58.5218 -90.86545 58.39354 -89.5815 58.32713 C -88.29753 58.26074 -86.05154 58.17175 -84.55898 58.13176 C -83.0664 58.09178 -80.50307 58.04874 -78.824 58.03894 C -77.14493 58.02914 -74.2988 58.03743 -72.45737 58.06117 C -70.61594 58.0849 -67.52924 58.14996 -65.55223 58.21007 C -63.57523 58.27017 -60.2925 58.3956 -58.2085 58.4944 C -56.12448 58.59319 -52.69261 58.78293 -50.53209 58.92216 C -48.37155 59.0614 -44.84251 59.31714 -42.63676 59.49791 C -40.43102 59.67867 -36.8536 60.00215 -34.63458 60.22502 C -32.41557 60.44788 -28.8436 60.83928 -26.64354 61.1042 C -24.44348 61.36913 -20.92693 61.8281 -18.77798 62.13446 C -16.62903 62.44083 -13.22176 62.96588 -11.15535 63.31236 C -9.08896 63.65883 -5.83884 64.24692 -3.88474 64.63159 C -1.93063 65.01628 1.11484 65.66432 2.92854 66.08493 C 4.74225 66.50554 7.54018 67.20947 9.18715 67.66306 C 10.83414 68.11664 13.34296 68.87093 14.79889 69.35405 C 16.25482 69.83717 18.43706 70.63625 19.68062 71.14507 C 20.9242 71.6539 22.74838 72.49101 23.76173 73.02132 C 24.77509 73.55162 26.21548 74.4199 26.98416 74.96718 C 27.75284 75.51445 28.78915 76.40631 29.3019 76.96577 C 29.81465 77.52524 30.43059 78.43275 30.67973 78.99947 C 30.92888 79.56616 31.11531 80.48131 31.0976 81.05022 C 31.0799 81.61914 30.83656 82.53384 30.55206 83.09988 C 30.26756 83.66594 29.59453 84.57188 29.04707 85.12999 C 28.4996 85.6881 27.40819 86.57718 26.6062 87.1224 C 25.80423 87.66765 24.31177 88.53206 23.26694 89.05972 C 22.2221 89.58737 20.34897 90.4199 19.07578 90.92552 C 17.80257 91.43114 15.57341 92.22453 14.0906 92.70387 C 12.60779 93.18323 10.05911 93.93106 8.38864 94.3804 C 6.71817 94.82974 3.88501 95.52649 2.05098 95.94249 C .21695 96.35849 -2.85866 96.99901 -4.82979 97.37875 C -6.8009 97.7585 -10.076 98.33826 -12.15546 98.67946 C -14.23492 99.02065 -17.65974 99.53696 -19.81715 99.83784 C -21.97456 100.13873 -25.50041 100.58876 -27.70462 100.84813 C -29.90883 101.10748 -33.48465 101.48988 -35.70367 101.70714 C -37.92271 101.9244 -41.49617 102.23882 -43.69789 102.41397 C -45.89963 102.58913 -49.42001 102.83592 -51.57228 102.96965 C -53.72455 103.10338 -57.13872 103.2843 -59.20993 103.37782 C -61.28116 103.47134 -64.5398 103.58862 -66.50024 103.64372 C -68.4607 103.6988 -71.51842 103.75589 -73.33954 103.77496 C -75.16066 103.79402 -77.9702 103.7952 -79.62569 103.78117 C -81.28119 103.76717 -83.8054 103.71764 -85.2713 103.67392 C -86.7372 103.63019 -88.93626 103.5356 -90.1909 103.466 C -91.44553 103.39641 -93.2884 103.26353 -94.31384 103.17224 C -95.33928 103.08096 -96.80038 102.91652 -97.58153 102.80801 C -98.36266 102.6995 -99.41808 102.51103 -99.94377 102.39009 C -100.46947 102.26915 -101.10783 102.06471 -101.37044 101.93628 C -101.63303 101.80786 -101.84087 101.59534 -101.83643 101.46442 C -101.83197 101.3335 -101.60977 101.12097 -101.33829 100.99266 C -101.06679 100.86436 -100.41438 100.66022 -99.87962 100.53961 C -99.34486 100.41902 -98.27382 100.23135 -97.48405 100.12341 C -96.6943 100.01549 -95.22098 99.85225 -94.18753 99.76167 C -93.15408 99.6711 -91.29814 99.53932 -90.03568 99.47055 C -88.77321 99.40178 -86.56134 99.30865 -85.0885 99.26591 C -83.61568 99.22319 -81.08203 99.17542 -79.42049 99.1625 C -77.75896 99.14961 -74.93979 99.1526 -73.11331 99.17287 C -71.28685 99.19313 -68.22144 99.2522 -66.25655 99.3086 C -64.29167 99.36497 -61.02647 99.48447 -58.95175 99.5793 C -56.87701 99.67415 -53.45763 99.85712 -51.30322 99.99219 C -49.1488 100.12726 -45.62683 100.3763 -43.42416 100.55287 C -41.22151 100.72945 -37.647 101.04614 -35.42789 101.26485 C -33.20876 101.48354 -29.6335 101.8683 -27.43022 102.12915 C -25.22693 102.39 -21.70338 102.84254 -19.54813 103.14488 C -17.39287 103.44722 -13.97241 103.96568 -11.8965 104.30824 C -9.82057 104.6508 -6.55283 105.23283 -4.5863 105.61386 C -2.6198 105.9949 .44804 106.63736 2.27682 107.05455 C 4.1056 107.47173 6.92989 108.17026 8.59433 108.62073 C 10.25876 109.0712 12.797 109.82089 14.27293 110.30124 C 15.74886 110.7816 17.9661 111.57635 19.23183 112.08278 C 20.49756 112.5892 22.35823 113.42285 23.39546 113.9512 C 24.4327 114.47957 25.9138 115.34505 26.70752 115.89084 C 27.50122 116.43665 28.57764 117.3265 29.11606 117.885 C 29.65446 118.44348 30.31264 119.3499 30.58801 119.91614 C 30.8634 120.48236 31.09242 121.39711 31.1009 121.96602 C 31.10938 122.53491 30.90764 123.44989 30.64917 124.01643 C 30.3907 124.583 29.75993 125.49014 29.23802 126.0493 C 28.71611 126.60844 27.66483 127.49966 26.88748 128.04637 C 26.11015 128.5931 24.65714 129.46006 23.6355 129.98966 C 22.61386 130.51927 20.77551 131.3554 19.5242 131.86342 C 18.27287 132.37143 16.07944 133.16902 14.6168 133.65119 C 13.15416 134.13335 10.63521 134.88607 8.98245 135.33856 C 7.32968 135.79108 4.52362 136.49315 2.70483 136.9126 C .88605 137.33205 -2.16736 137.97834 -4.12611 138.36177 C -6.08487 138.74521 -9.3422 139.33116 -11.41252 139.67624 C -13.48285 140.02133 -16.8966 140.54404 -19.04764 140.84896 C -21.19865 141.15387 -24.7146 141.6105 -26.91563 141.87398 C -29.11665 142.13744 -32.69194 142.5265 -34.91118 142.74793 C -37.13043 142.96935 -40.70595 143.29058 -42.9105 143.46987 C -45.11507 143.64916 -48.64185 143.90244 -50.80022 144.04015 C -52.95859 144.17787 -56.38603 144.36511 -58.46663 144.46253 C -60.54724 144.55994 -63.8229 144.68347 -65.79585 144.74231 C -67.76881 144.80117 -70.84995 144.86414 -72.68642 144.8867 C -74.52289 144.90927 -77.359 144.9159 -79.032 144.90505 C -80.70499 144.89418 -83.25854 144.84934 -84.74419 144.80841 C -86.22981 144.76749 -88.46306 144.67717 -89.73946 144.60999 C -91.01587 144.54279 -92.895 144.4135 -93.94371 144.32413 C -94.9924 144.23476 -96.49197 144.07283 -97.29779 143.96579 C -98.1036 143.85874 -99.20033 143.6724 -99.75143 143.55248 C -100.30254 143.43254 -101.2698 143.1014 -101.2698 143.1014 "/>
</g>
<path transform="matrix(1,0,0,-1,132.535,143.973)" stroke-width="1" stroke-linecap="butt" stroke-miterlimit="10" stroke-linejoin="miter" fill="none" stroke="#808080" d="M 22.86252 68.31999 L 26.89049 66.95786 M -7.25943 66.10507 L -3.23146 64.74292 M -67.50334 61.67522 L -63.47539 60.31306 M -97.6253 59.46028 L -93.59734 58.09814 "/>
<path transform="matrix(1,0,0,-1,132.535,143.973)" stroke-width="1" stroke-linecap="butt" stroke-miterlimit="10" stroke-linejoin="miter" fill="none" stroke="#808080" d="M -61.33885 72.86469 L -65.57939 72.55287 M -5.15538 53.86525 L -9.39592 53.55345 "/>
<path transform="matrix(1,0,0,-1,132.535,143.973)" stroke-width="1" stroke-linecap="butt" stroke-miterlimit="10" stroke-linejoin="miter" fill="none" stroke="#000000" d="M 30.90091 68.0819 L -99.64806 58.48235 "/>
<path transform="matrix(-.99756,.07335,.07335,.99756,32.88694,85.49065)" d="M 1.99252 0 L -1.19551 1.59401 L 0 0 L -1.19551 -1.59401 "/>
<path transform="matrix(1,0,0,-1,132.535,143.973)" stroke-width="1" stroke-linecap="butt" stroke-miterlimit="10" stroke-linejoin="miter" fill="none" stroke="#000000" d="M -66.26831 73.65875 L -6.35864 53.3992 "/>
<path transform="matrix(.94963,.32112,.32112,-.94963,126.17636,90.57381)" d="M 1.99252 0 L -1.19551 1.59401 L 0 0 L -1.19551 -1.59401 "/>
<symbol id="font_1_1">
<path d="M .63600006 0 C .65200009 0 .67600008 0 .67600008 .023999989 C .67600008 .048999996 .65300008 .048999996 .63600006 .048999996 L .04 .048999996 C .023999997 .048999996 0 .048999996 0 .025000006 C 0 0 .02300001 0 .04 0 L .63600006 0 Z "/>
</symbol>
<use xlink:href="#font_1_1" transform="matrix(6.9738,0,0,-6.9738,155.51418,82.12993)"/>
<symbol id="font_2_2">
<path d="M .22600001 .63600006 C .22600001 .66300007 .224 .66400006 .19600001 .66400006 C .132 .601 .041 .6 0 .6 L 0 .564 C .023999997 .564 .09000001 .564 .14500001 .592 L .14500001 .082 C .14500001 .049000004 .14500001 .036000004 .04500001 .036000004 L .0069999995 .036000004 L .0069999995 0 C .024999999 .001 .148 .004 .185 .004 C .21600002 .004 .34200005 .001 .36400003 0 L .36400003 .036000004 L .32600004 .036000004 C .22600001 .036000004 .22600001 .049000004 .22600001 .082 L .22600001 .63600006 Z "/>
</symbol>
<use xlink:href="#font_2_2" transform="matrix(6.9738,0,0,-6.9738,161.74816,83.70601)"/>
<use xlink:href="#font_1_1" transform="matrix(6.9738,0,0,-6.9738,122.38318,84.565929)"/>
<symbol id="font_2_1">
<path d="M .46400006 .33900003 C .46400006 .44900004 .45100004 .528 .40500004 .598 C .374 .644 .31200005 .684 .23200001 .684 C 0 .684 0 .41100005 0 .33900003 C 0 .26700003 0 0 .23200001 0 C .46400006 0 .46400006 .26700003 .46400006 .33900003 M .23200001 .028 C .186 .028 .125 .055 .105000007 .13700001 C .091000009 .19600001 .091000009 .27800004 .091000009 .35200004 C .091000009 .42500005 .091000009 .50100007 .106000009 .556 C .127 .635 .19100002 .656 .23200001 .656 C .286 .656 .338 .623 .356 .565 C .37200005 .51100006 .37300004 .43900005 .37300004 .35200004 C .37300004 .27800004 .37300004 .20400001 .36 .141 C .34000004 .050000006 .272 .028 .23200001 .028 Z "/>
</symbol>
<use xlink:href="#font_2_1" transform="matrix(6.9738,0,0,-6.9738,128.21865,86.28148)"/>
<symbol id="font_3_1">
<path d="M .11500001 .057000005 C .11500001 .093 .08500001 .115 .058 .115 C .025000006 .115 0 .08800001 0 .058000003 C 0 .022000002 .030000002 0 .05700001 0 C .09 0 .11500001 .027 .11500001 .057000005 Z "/>
</symbol>
<use xlink:href="#font_3_1" transform="matrix(6.9738,0,0,-6.9738,132.60907,86.142009)"/>
<symbol id="font_2_3">
<path d="M .092 .578 C .143 .565 .17300001 .565 .18900001 .565 C .321 .565 .39900003 .65500006 .39900003 .67 C .39900003 .681 .39200003 .684 .38700003 .684 C .38500003 .684 .38300003 .684 .37900005 .681 C .35500003 .672 .30200003 .652 .22800002 .652 C .20000002 .652 .14700002 .654 .08200001 .679 C .072000008 .684 .07 .684 .069 .684 C .056 .684 .056 .67300006 .056 .657 L .056 .36200003 C .056 .34500004 .056 .33300004 .072000008 .33300004 C .08100001 .33300004 .08200001 .33500005 .092 .34700004 C .13500002 .40200005 .19600001 .41000004 .231 .41000004 C .291 .41000004 .31800003 .36200003 .323 .35400004 C .34100003 .32100005 .34700004 .28300003 .34700004 .22500001 C .34700004 .19500001 .34700004 .136 .31700004 .09200001 C .29200004 .056 .24900002 .032 .20000002 .032 C .13500002 .032 .06800001 .068 .043000007 .134 C .08100001 .13100001 .1 .156 .1 .183 C .1 .22600001 .063 .23400001 .050000006 .23400001 C .048000009 .23400001 0 .23400001 0 .18 C 0 .09 .08200001 0 .20200002 0 C .33 0 .442 .095000009 .442 .221 C .442 .33400003 .35600005 .43800003 .23200003 .43800003 C .18800003 .43800003 .136 .42700003 .092 .38900004 L .092 .578 Z "/>
</symbol>
<use xlink:href="#font_2_3" transform="matrix(6.9738,0,0,-6.9738,134.63335,86.28148)"/>
<use xlink:href="#font_2_1" transform="matrix(6.9738,0,0,-6.9738,64.423648,90.51448)"/>
<use xlink:href="#font_3_1" transform="matrix(6.9738,0,0,-6.9738,68.81307,90.37501)"/>
<use xlink:href="#font_2_3" transform="matrix(6.9738,0,0,-6.9738,70.83735,90.51448)"/>
<use xlink:href="#font_2_2" transform="matrix(6.9738,0,0,-6.9738,37.70915,92.369)"/>
<use xlink:href="#font_1_1" transform="matrix(6.9738,0,0,-6.9738,60.65617,78.03393)"/>
<use xlink:href="#font_2_2" transform="matrix(6.9738,0,0,-6.9738,66.889148,79.61001)"/>
<use xlink:href="#font_2_2" transform="matrix(6.9738,0,0,-6.9738,120.996158,97.907009)"/>
<path transform="matrix(1,0,0,-1,132.535,143.973)" stroke-width="1" stroke-linecap="butt" stroke-miterlimit="10" stroke-linejoin="miter" fill="none" stroke="#808080" d="M -63.45914 70.58276 L -63.45914 74.83478 M -7.27567 51.58333 L -7.27567 55.83534 "/>
<path transform="matrix(1,0,0,-1,132.535,143.973)" stroke-width="1" stroke-linecap="butt" stroke-miterlimit="10" stroke-linejoin="miter" fill="none" stroke="#808080" d="M -37.38138 -1.55284 L -33.35342 -2.915 M -37.38138 31.16864 L -33.35342 29.8065 M -37.38138 96.61163 L -33.35342 95.2495 M -37.38138 129.33313 L -33.35342 127.971 "/>
<path transform="matrix(1,0,0,-1,132.535,143.973)" stroke-width="1" stroke-linecap="butt" stroke-miterlimit="10" stroke-linejoin="miter" fill="none" stroke="#000000" d="M -35.3674 -2.23392 L -35.3674 126.65953 "/>
<path transform="matrix(0,-1,-1,-0,97.1676,17.313477)" d="M 1.99252 0 L -1.19551 1.59401 L 0 0 L -1.19551 -1.59401 "/>
<use xlink:href="#font_1_1" transform="matrix(6.9738,0,0,-6.9738,78.46818,144.46593)"/>
<use xlink:href="#font_2_2" transform="matrix(6.9738,0,0,-6.9738,84.70215,146.042)"/>
<use xlink:href="#font_2_1" transform="matrix(6.9738,0,0,-6.9738,88.27971,146.18149)"/>
<use xlink:href="#font_1_1" transform="matrix(6.9738,0,0,-6.9738,82.43918,111.997928)"/>
<use xlink:href="#font_2_3" transform="matrix(6.9738,0,0,-6.9738,88.35235,113.71348)"/>
<use xlink:href="#font_2_3" transform="matrix(6.9738,0,0,-6.9738,88.35235,49.081487)"/>
<use xlink:href="#font_2_2" transform="matrix(6.9738,0,0,-6.9738,84.70115,15.969009)"/>
<use xlink:href="#font_2_1" transform="matrix(6.9738,0,0,-6.9738,88.27871,16.108487)"/>
<path transform="matrix(1,0,0,-1,132.535,143.973)" stroke-width="1" stroke-linecap="butt" stroke-miterlimit="10" stroke-linejoin="miter" fill="none" stroke="#808080" d="M 24.87651 65.51291 L 24.87651 69.76491 M -5.24544 63.29797 L -5.24544 67.54999 M -65.48935 58.86812 L -65.48935 63.12013 M -95.61131 56.65318 L -95.61131 60.9052 "/>
<path transform="matrix(1,0,0,-1,132.535,143.973)" stroke-width="1" stroke-linecap="butt" stroke-miterlimit="10" stroke-linejoin="miter" fill="none" stroke="#808080" d="M -33.24712 -2.07802 L -37.48766 -2.38982 M -33.24712 30.64348 L -37.48766 30.33167 M -33.24712 96.08647 L -37.48766 95.77466 M -33.24712 128.80797 L -37.48766 128.49616 "/>
<symbol id="font_3_2">
<path d="M .201 .116000007 C .19100002 .082 .15800002 .028 .107 .028 C .10400001 .028 .07400001 .028 .053000004 .042000005 C .094000007 .055000005 .09700001 .091 .09700001 .097 C .09700001 .119 .080000009 .134 .057000005 .134 C .029000007 .134 0 .11 0 .073 C 0 .023000002 .056 0 .10500001 0 C .15100003 0 .192 .029000003 .21700001 .071 C .241 .018000002 .296 0 .336 0 C .451 0 .512 .125 .512 .15300001 C .512 .16600001 .49900005 .16600001 .49600003 .16600001 C .48200003 .16600001 .48100005 .16100002 .47700004 .14900002 C .456 .08 .39600004 .028 .34 .028 C .3 .028 .279 .055000005 .279 .093 C .279 .119 .303 .21000001 .331 .321 C .351 .398 .39600004 .423 .42900003 .423 C .43100003 .423 .46200005 .423 .483 .409 C .451 .4 .439 .372 .439 .354 C .439 .33200003 .456 .317 .479 .317 C .50200006 .317 .535 .336 .535 .37800003 C .535 .43400003 .47100006 .451 .43100003 .451 C .381 .451 .34100003 .418 .319 .38 C .301 .421 .255 .451 .199 .451 C .087000008 .451 .023000002 .328 .023000002 .298 C .023000002 .285 .037 .285 .040000008 .285 C .053000004 .285 .054000006 .289 .059000009 .30200003 C .084 .38 .14700002 .423 .19600001 .423 C .229 .423 .256 .405 .256 .357 C .256 .337 .24400002 .287 .23500002 .25300003 L .201 .116000007 Z "/>
</symbol>
<use xlink:href="#font_3_2" transform="matrix(6.9738,0,0,-6.9738,25.987742,90.19675)"/>
<symbol id="font_3_3">
<path d="M .50900009 .58100005 C .513 .595 .513 .597 .513 .60300007 C .513 .623 .49700005 .63500007 .48000003 .63500007 C .46900005 .63500007 .45000003 .63000008 .43900005 .611 C .43600003 .605 .42800004 .573 .42300005 .55300006 L .40200005 .47000004 C .39600004 .44600005 .36500005 .32000003 .36200003 .30900003 C .36100004 .30900003 .31700004 .22200002 .23900001 .22200002 C .171 .22200002 .171 .287 .171 .305 C .171 .35900004 .194 .42200003 .22400002 .499 C .23600002 .531 .24100001 .54300007 .24100001 .56 C .24100001 .60800006 .2 .64500007 .146 .64500007 C .045000007 .64500007 0 .509 0 .49200005 C 0 .47900004 .014000002 .47900004 .017 .47900004 C .031 .47900004 .032 .48400004 .035 .495 C .060000007 .578 .103 .61700007 .143 .61700007 C .16000001 .61700007 .168 .606 .168 .582 C .168 .559 .15900001 .537 .154 .52400007 C .106000009 .402 .096 .365 .096 .321 C .096 .30400003 .096 .25700004 .135 .22500001 C .16600001 .19900002 .20800002 .194 .235 .194 C .27500005 .194 .31100003 .209 .34400005 .23900001 C .33100004 .18400002 .32000003 .142 .27800004 .09200001 C .25100003 .061000006 .21100001 .027999998 .158 .027999998 C .15100001 .027999998 .104 .027999998 .083000008 .061000006 C .13700001 .067 .13700001 .11500001 .13700001 .116000007 C .13700001 .148 .107999999 .15400002 .098000008 .15400002 C .073 .15400002 .040000004 .134 .040000004 .08800001 C .040000004 .037 .088 0 .15900001 0 C .26000003 0 .38300003 .07800001 .41400004 .20300001 L .50900009 .58100005 Z "/>
</symbol>
<use xlink:href="#font_3_3" transform="matrix(6.9738,0,0,-6.9738,131.23278,95.45266)"/>
<symbol id="font_3_4">
<path d="M .10700001 .098000008 C .133 .124000009 .15100001 .143 .23600002 .21100001 C .25700004 .22800002 .33200003 .28800003 .361 .316 C .422 .37600003 .46000005 .42700003 .46000005 .439 C .46000005 .451 .44700004 .451 .44300003 .451 C .43400003 .451 .431 .449 .426 .441 C .39500005 .395 .374 .38 .35000003 .38 C .338 .38 .323 .381 .29299999 .41 C .259 .444 .237 .451 .214 .451 C .134 .451 .08 .364 .08 .334 C .08 .32500003 .09 .322 .097 .322 C .109 .322 .111 .32500003 .11500001 .336 C .13000001 .37100003 .186 .373 .202 .373 C .22500001 .373 .251 .367 .265 .364 C .32 .352 .32700003 .352 .352 .352 C .32600004 .32500003 .30800004 .307 .21300002 .23100002 C .135 .16900002 .10800001 .14400001 .089 .124000009 C .029 .065000008 0 .021000002 0 .012000001 C 0 0 .012999997 0 .016999998 0 C .027000003 0 .029 .0020000004 .034 .010000001 C .061000006 .048000006 .09200001 .071 .126 .071 C .13800001 .071 .15300001 .07 .18 .045 C .21100001 .015000001 .23100002 0 .263 0 C .37 0 .43700005 .12100001 .43700005 .15500002 C .43700005 .16700001 .426 .16800002 .42000003 .16800002 C .408 .16800002 .40600003 .16300002 .402 .15200001 C .38300003 .102000009 .324 .078 .27500005 .078 C .25200004 .078 .22700002 .083000008 .202 .089 C .156 .099 .148 .099 .13000001 .099 C .128 .099 .113000009 .099 .10700001 .098000008 Z "/>
</symbol>
<use xlink:href="#font_3_4" transform="matrix(6.9738,0,0,-6.9738,95.54741,12.908743)"/>
</svg>
