<?xml version="1.0" encoding="UTF-8" standalone="no"?>
<!DOCTYPE svg PUBLIC "-//W3C//DTD SVG 1.1//EN" "http://www.w3.org/Graphics/SVG/1.1/DTD/svg11.dtd">
<svg xmlns="http://www.w3.org/2000/svg" xmlns:xlink="http://www.w3.org/1999/xlink" version="1.1" width="398.013pt" height="185.096pt" viewBox="0 0 398.013 185.096">
<clipPath id="cp0">
<path transform="matrix(1,0,0,-1,.199,184.416)" d="M 0 0 L 387.16459 0 L 387.16459 171.16728 L 0 171.16728 Z "/>
</clipPath>
<g clip-path="url(#cp0)">
<path transform="matrix(1,0,0,-1,.199,184.416)" d="M 144.46439 69.73482 L 148.31673 71.84796 L 152.16907 73.96112 L 156.02141 76.07426 L 159.87377 78.18741 L 163.7261 80.30057 L 167.57845 82.41373 L 171.43079 84.52689 L 175.28314 86.64003 L 179.13547 88.75319 L 182.98783 90.86633 L 186.84015 92.9795 L 190.6925 95.09265 L 194.54485 97.20581 L 198.39719 99.31895 L 202.24953 101.43211 L 206.10189 103.54526 L 209.95421 105.65842 L 213.80657 107.77158 L 217.65889 109.88472 L 221.51125 111.99788 L 225.36359 114.11102 L 229.21593 116.2242 L 233.06827 118.33734 L 236.92063 120.4505 L 236.92063 69.73482 L 144.46439 69.73482 Z " fill="#cccce6"/>
<path transform="matrix(1,0,0,-1,.199,184.416)" d="M 28.89287 6.33952 L 33.70833 8.98097 L 38.5238 11.62244 L 43.33926 14.2639 L 48.15472 16.90536 L 52.97018 19.54683 L 57.78566 22.1883 L 62.60114 24.82974 L 67.41658 27.4712 L 72.23206 30.11269 L 77.04753 32.75415 L 81.86299 35.39561 L 86.67845 38.03706 L 91.49393 40.67853 L 96.30939 43.31999 L 101.12486 45.96146 L 105.9403 48.60292 L 110.75578 51.24437 L 115.57126 53.88583 L 120.38672 56.5273 L 125.20218 59.16876 L 130.01766 61.81023 L 134.83312 64.4517 L 139.64859 67.09317 L 144.46407 69.73462 L 144.46407 69.73482 L 28.89287 69.73482 Z " fill="#e6cccc"/>
<path transform="matrix(1,0,0,-1,.199,184.416)" stroke-width="1.59404" stroke-linecap="butt" stroke-miterlimit="10" stroke-linejoin="miter" fill="none" stroke="#000080" d="M 28.89287 6.33952 L 38.5238 11.62244 L 48.15472 16.90536 L 57.78564 22.18828 L 67.41656 27.4712 L 77.04752 32.75414 L 86.67844 38.03706 L 96.30936 43.31998 L 105.94028 48.6029 L 115.57121 53.88582 L 125.20215 59.16875 L 134.83307 64.45168 L 144.464 69.7346 L 154.09493 75.01752 L 163.72585 80.30045 L 173.35678 85.58336 L 182.98772 90.86629 L 192.61864 96.1492 L 202.24956 101.43214 L 211.88048 106.71506 L 221.51143 111.99799 L 231.14235 117.2809 L 240.77327 122.56383 L 250.4042 127.84674 L 260.03514 133.12967 "/>
<path transform="matrix(1,0,0,-1,.199,184.416)" stroke-width="1.59404" stroke-linecap="butt" stroke-miterlimit="10" stroke-linejoin="miter" fill="none" stroke="#000080" d="M 260.03593 133.1301 L 264.85136 133.1301 L 269.6668 133.1301 L 274.48228 133.1301 L 279.29774 133.1301 L 284.1132 133.1301 L 288.92866 133.1301 L 293.74415 133.1301 L 298.5596 133.1301 L 303.37504 133.1301 L 308.1905 133.1301 L 313.00599 133.1301 L 317.8214 133.1301 L 322.6369 133.1301 L 327.45237 133.1301 L 332.2678 133.1301 L 337.08329 133.1301 L 341.8987 133.1301 L 346.71418 133.1301 L 351.52964 133.1301 L 356.3451 133.1301 L 361.16056 133.1301 L 365.976 133.1301 L 370.79148 133.1301 L 375.60694 133.1301 "/>
<symbol id="font_1_1">
<path d="M .41300003 .352 L .722 .352 C .735 .352 .76500007 .352 .76500007 .382 C .76500007 .41300003 .736 .41300003 .722 .41300003 L .41300003 .41300003 L .41300003 .72300007 C .41300003 .735 .41300003 .765 .38300003 .765 C .352 .765 .352 .73600009 .352 .72300007 L .352 .41300003 L .043000007 .41300003 C .029 .41300003 0 .41300003 0 .382 C 0 .352 .030000002 .352 .043000007 .352 L .352 .352 L .352 .041999997 C .352 .029999994 .352 0 .382 0 C .41300003 0 .41300003 .028999992 .41300003 .041999997 L .41300003 .352 Z "/>
</symbol>
<use xlink:href="#font_1_1" transform="matrix(19.9252,0,0,-19.9252,206.36821,101.69014)"/>
<symbol id="font_2_1">
<path d="M .656 0 C .671 0 .70100006 0 .70100006 .029999987 C .70100006 .061000006 .672 .061000006 .656 .061000006 L .045 .061000006 C .030000002 .061000006 0 .061000006 0 .031000004 C 0 0 .029 0 .045 0 L .656 0 Z "/>
</symbol>
<use xlink:href="#font_2_1" transform="matrix(19.9252,0,0,-19.9252,48.09682,134.29846)"/>
<symbol id="font_3_3">
<path d="M .23600002 .09200001 C .20900002 .054000006 .17000002 .019999996 .121 .019999996 C .109000008 .019999996 .061000006 .022 .046000005 .068 C .049000004 .067 .053999999 .067 .056 .067 C .086 .067 .106 .093 .106 .116000007 C .106 .139 .087000008 .14700002 .072000008 .14700002 C .056 .14700002 .021 .135 .021 .086 C .021 .034999998 .064 0 .121 0 C .22100002 0 .322 .09200001 .35 .20300001 L .448 .59300008 C .449 .59800007 .451 .60400006 .451 .61 C .451 .62500008 .439 .63500007 .42400003 .63500007 C .41500003 .63500007 .39400003 .63100007 .386 .601 L .312 .307 C .307 .289 .307 .287 .299 .27600003 C .279 .24800001 .246 .21400002 .19800002 .21400002 C .14200002 .21400002 .13700001 .26900003 .13700001 .296 C .13700001 .35300002 .16400002 .43 .19100002 .50200006 C .20200002 .531 .20800002 .545 .20800002 .56500008 C .20800002 .60700008 .17800002 .64500007 .12900001 .64500007 C .037 .64500007 0 .5 0 .49200005 C 0 .48800005 .0040000008 .48300005 .011000002 .48300005 C .020000002 .48300005 .021 .48700006 .025 .50100007 C .049000004 .58500006 .087000008 .62500008 .12600002 .62500008 C .135 .62500008 .15200001 .62500008 .15200001 .592 C .15200001 .56600007 .14100002 .537 .12600002 .499 C .077 .36800004 .077 .33500005 .077 .31100003 C .077 .216 .14500001 .194 .19500003 .194 C .22400002 .194 .26 .20300001 .29500003 .24000001 L .296 .23900001 C .28100003 .18 .271 .141 .23600002 .09200001 Z "/>
</symbol>
<use xlink:href="#font_3_3" transform="matrix(11.9552,0,0,-11.9552,198.9748,50.37586)" fill="#000080"/>
<symbol id="font_4_3">
<path d="M .621 .18599999 C .635 .18599999 .653 .18599999 .653 .204 C .653 .22300002 .63600006 .22300002 .621 .22300002 L .032 .22300002 C .018000003 .22300002 0 .22300002 0 .20500002 C 0 .18599999 .017 .18599999 .032 .18599999 L .621 .18599999 M .621 0 C .635 0 .653 0 .653 .017999992 C .653 .037 .63600006 .037 .621 .037 L .032 .037 C .018000003 .037 0 .037 0 .018999994 C 0 0 .017 0 .032 0 L .621 0 Z "/>
</symbol>
<use xlink:href="#font_4_3" transform="matrix(11.9552,0,0,-11.9552,208.7546,46.287179)" fill="#000080"/>
<symbol id="font_3_1">
<path d="M .395 .606 C .41500003 .606 .42300005 .606 .42300005 .62500008 C .42300005 .63500007 .41500003 .63500007 .397 .63500007 L .316 .63500007 C .335 .73800006 .349 .809 .35700003 .841 C .36300005 .865 .38400004 .888 .41000004 .888 C .43100003 .888 .45200003 .879 .462 .87 C .42300005 .86600008 .411 .837 .411 .82000008 C .411 .8 .42600004 .78800007 .44500003 .78800007 C .46500004 .78800007 .495 .805 .495 .84300008 C .495 .88500007 .453 .90800008 .409 .90800008 C .36600004 .90800008 .32400004 .87600007 .30400003 .837 C .286 .80200007 .27600003 .76600006 .25300003 .63500007 L .18600002 .63500007 C .16700001 .63500007 .157 .63500007 .157 .61700007 C .157 .606 .16300002 .606 .18300002 .606 L .24700001 .606 C .229 .513 .18800001 .287 .165 .18 C .14800002 .093 .13300002 .019999996 .083000008 .019999996 C .08000001 .019999996 .051000004 .019999996 .033000005 .039000006 C .08400001 .042999999 .08400001 .087000008 .08400001 .08800001 C .08400001 .10800001 .069000009 .120000008 .05 .120000008 C .029999998 .120000008 0 .10300001 0 .065 C 0 .022 .044000005 0 .083000008 0 C .18500002 0 .22700003 .18300002 .238 .23300001 C .256 .31 .305 .57600006 .31000004 .606 L .395 .606 Z "/>
</symbol>
<use xlink:href="#font_3_1" transform="matrix(11.9552,0,0,-11.9552,221.14472,50.37586)" fill="#000080"/>
<symbol id="font_4_1">
<path d="M .22700002 .008000001 C .22700002 .011000007 .22700002 .013000011 .21000003 .030000002 C .11 .13100001 .054000006 .296 .054000006 .5 C .054000006 .694 .10100001 .86100009 .21700002 .9790001 C .22700002 .98800006 .22700002 .99 .22700002 .99300006 C .22700002 .9990001 .22200002 1.001 .21800001 1.001 C .205 1.001 .12300001 .929 .074 .8310001 C .023000002 .73 0 .623 0 .5 C 0 .411 .013999999 .29200004 .066 .18500002 C .125 .06500001 .207 0 .21800001 0 C .22200002 0 .22700002 .002000004 .22700002 .008000001 Z "/>
</symbol>
<use xlink:href="#font_4_1" transform="matrix(11.9552,0,0,-11.9552,228.75263,50.93775)" fill="#000080"/>
<symbol id="font_3_2">
<path d="M .179 .412 L .271 .412 C .29 .412 .3 .412 .3 .43 C .3 .441 .294 .441 .274 .441 L .186 .441 L .223 .587 C .22700002 .601 .22700002 .60300007 .22700002 .61 C .22700002 .62600007 .21400002 .635 .201 .635 C .193 .635 .17 .632 .16200002 .6 L .12300001 .441 L .029000001 .441 C .009 .441 0 .441 0 .42200003 C 0 .412 .0069999995 .412 .025999999 .412 L .11500001 .412 L .049000004 .14800002 C .041 .113000009 .038000004 .103 .038000004 .09 C .038000004 .043 .071 0 .127 0 C .228 0 .282 .14600002 .282 .15300001 C .282 .15900001 .278 .16200002 .27199999 .16200002 C .27 .16200002 .266 .16200002 .264 .158 C .263 .157 .262 .15600002 .255 .14000002 C .23400001 .09 .18800001 .020000002 .13000001 .020000002 C .10000001 .020000002 .098000008 .045 .098000008 .067 C .098000008 .068 .098000008 .087000008 .101 .099 L .179 .412 Z "/>
</symbol>
<use xlink:href="#font_3_2" transform="matrix(11.9552,0,0,-11.9552,232.39603,48.05655)" fill="#000080"/>
<symbol id="font_4_2">
<path d="M .227 .5 C .227 .57600006 .21700001 .70000007 .161 .816 C .102 .9360001 .02 1.001 .009 1.001 C .004999999 1.001 0 .9990001 0 .99300006 C 0 .99 0 .98800006 .017 .9710001 C .117 .87 .17300001 .70500007 .17300001 .50100007 C .17300001 .307 .126 .14000002 .010000002 .022 C 0 .013000011 0 .011000007 0 .008000001 C 0 .002000004 .004999999 0 .009 0 C .022000004 0 .104 .07200001 .153 .17000002 C .204 .272 .227 .38000003 .227 .5 Z "/>
</symbol>
<use xlink:href="#font_4_2" transform="matrix(11.9552,0,0,-11.9552,237.01854,50.93775)" fill="#000080"/>
</g>
<path transform="matrix(1,0,0,-1,.199,184.416)" stroke-width=".19925" stroke-linecap="butt" stroke-miterlimit="10" stroke-linejoin="miter" fill="none" stroke="#929292" d="M 28.89287 67.60892 L 28.89287 71.86069 M 144.46439 67.60892 L 144.46439 71.86069 M 202.25016 67.60892 L 202.25016 71.86069 M 236.92162 67.60892 L 236.92162 71.86069 M 260.03593 67.60892 L 260.03593 71.86069 M 317.82167 67.60892 L 317.82167 71.86069 M 375.60746 67.60892 L 375.60746 71.86069 "/>
<path transform="matrix(1,0,0,-1,.199,184.416)" stroke-width=".19925" stroke-linecap="butt" stroke-miterlimit="10" stroke-linejoin="miter" fill="none" stroke="#929292" d="M 84.55261 6.33952 L 88.80464 6.33952 M 84.55261 38.03717 L 88.80464 38.03717 M 84.55261 101.43245 L 88.80464 101.43245 M 84.55261 133.1301 L 88.80464 133.1301 M 84.55261 164.82775 L 88.80464 164.82775 "/>
<path transform="matrix(1,0,0,-1,.199,184.416)" stroke-width=".3985" stroke-linecap="butt" stroke-miterlimit="10" stroke-linejoin="miter" fill="none" stroke="#000000" d="M 0 69.73482 L 385.17207 69.73482 "/>
<path transform="matrix(1,0,0,-1,385.37107,114.68118)" d="M 1.99252 0 L -1.19551 1.59401 L 0 0 L -1.19551 -1.59401 "/>
<path transform="matrix(1,0,0,-1,.199,184.416)" stroke-width=".3985" stroke-linecap="butt" stroke-miterlimit="10" stroke-linejoin="miter" fill="none" stroke="#000000" d="M 86.67863 0 L 86.67863 169.17476 "/>
<path transform="matrix(0,-1,-1,-0,86.877628,15.241241)" d="M 1.99252 0 L -1.19551 1.59401 L 0 0 L -1.19551 -1.59401 "/>
<symbol id="font_5_1">
<path d="M .57600006 0 C .59300008 0 .611 0 .611 .019999996 C .611 .040000008 .59300008 .040000008 .57600006 .040000008 L .035000005 .040000008 C .018 .040000008 0 .040000008 0 .019999996 C 0 0 .018 0 .035000005 0 L .57600006 0 Z "/>
</symbol>
<use xlink:href="#font_5_1" transform="matrix(9.9626,0,0,-9.9626,23.553896,124.530597)"/>
<symbol id="font_6_1">
<path d="M .205 .64000007 C .205 .66400006 .205 .666 .18200003 .666 C .120000008 .60200008 .032000007 .60200008 0 .60200008 L 0 .57100006 C .020000004 .57100006 .07900001 .57100006 .13100001 .597 L .13100001 .079 C .13100001 .043 .128 .031000002 .038000004 .031000002 L .0060000049 .031000002 L .0060000049 0 C .04100001 .003 .128 .003 .168 .003 C .20800002 .003 .29500003 .003 .33000005 0 L .33000005 .031000002 L .29800005 .031000002 C .20800002 .031000002 .205 .042000005 .205 .079 L .205 .64000007 Z "/>
</symbol>
<use xlink:href="#font_6_1" transform="matrix(9.9626,0,0,-9.9626,31.36167,126.82199)"/>
<use xlink:href="#font_6_1" transform="matrix(9.9626,0,0,-9.9626,143.05768,126.82199)"/>
<symbol id="font_6_2">
<path d="M .07700001 .07700001 L .18300002 .18 C .33900003 .31800003 .39900003 .372 .39900003 .47200004 C .39900003 .586 .30900003 .666 .18700002 .666 C .074 .666 0 .574 0 .485 C 0 .42900003 .05 .42900003 .053000008 .42900003 C .07000001 .42900003 .105000007 .441 .105000007 .48200003 C .105000007 .508 .08700001 .53400006 .052000006 .53400006 C .044000005 .53400006 .042000008 .53400006 .039 .53300008 C .062000004 .59800007 .11600001 .63500007 .17400001 .63500007 C .26500003 .63500007 .308 .554 .308 .47200004 C .308 .39200003 .25800003 .31300003 .20300003 .25100003 L .011000004 .037 C 0 .026 0 .024 0 0 L .37100003 0 L .39900003 .17400001 L .374 .17400001 C .36900003 .14400001 .36200003 .1 .352 .085 C .345 .07700001 .279 .07700001 .257 .07700001 L .07700001 .07700001 Z "/>
</symbol>
<use xlink:href="#font_6_2" transform="matrix(9.9626,0,0,-9.9626,200.45413,126.82199)"/>
<symbol id="font_7_2">
<path d="M .305 .31300003 C .311 .33900003 .334 .43100003 .404 .43100003 C .409 .43100003 .433 .43100003 .454 .418 C .426 .41300003 .40600003 .388 .40600003 .36400003 C .40600003 .34800003 .417 .32900004 .444 .32900004 C .46600003 .32900004 .498 .34700004 .498 .38700003 C .498 .43900005 .439 .45300005 .405 .45300005 C .347 .45300005 .312 .40000005 .3 .37700004 C .275 .44300003 .221 .45300005 .19200002 .45300005 C .08800001 .45300005 .031000002 .32400004 .031000002 .29900003 C .031000002 .28900004 .041 .28900004 .043000007 .28900004 C .051000008 .28900004 .054000006 .291 .056 .3 C .09 .40600003 .156 .43100003 .19000001 .43100003 C .209 .43100003 .244 .42200003 .244 .36400003 C .244 .33300004 .22700002 .26600004 .19000001 .126 C .17400001 .064 .13900002 .022000002 .095000009 .022000002 C .08900001 .022000002 .06600001 .022000002 .045 .035 C .07000001 .040000004 .09200001 .061 .09200001 .089 C .09200001 .116000007 .07000001 .124000009 .055000009 .124000009 C .025 .124000009 0 .098000008 0 .06600001 C 0 .020000002 .050000006 0 .094000007 0 C .16000001 0 .19600001 .07000001 .19900002 .076000008 C .21100001 .039 .24700003 0 .307 0 C .41 0 .467 .12900001 .467 .15400002 C .467 .16400002 .458 .16400002 .455 .16400002 C .446 .16400002 .444 .16000001 .442 .15300001 C .409 .046 .341 .022000002 .30900003 .022000002 C .27 .022000002 .254 .054 .254 .08800001 C .254 .11000001 .26 .13200002 .271 .17600002 L .305 .31300003 Z "/>
</symbol>
<use xlink:href="#font_7_2" transform="matrix(9.9626,0,0,-9.9626,234.55992,124.8006)"/>
<symbol id="font_6_3">
<path d="M .24800003 .37400005 C .33 .40100003 .388 .47100006 .388 .55 C .388 .632 .3 .688 .204 .688 C .10300001 .688 .027000003 .628 .027000003 .55200007 C .027000003 .519 .049000004 .5 .078 .5 C .109000008 .5 .12900001 .522 .12900001 .55100008 C .12900001 .6010001 .082 .6010001 .067 .6010001 C .098 .65000006 .164 .66300007 .20000002 .66300007 C .24100003 .66300007 .29600004 .64100006 .29600004 .55100008 C .29600004 .53900006 .29400004 .48100005 .268 .43700005 C .238 .38900004 .204 .38600005 .17900002 .38500003 C .171 .38400004 .14700002 .38200004 .14000002 .38200004 C .132 .38100005 .125 .38000003 .125 .37000004 C .125 .35900004 .132 .35900004 .14900002 .35900004 L .19300002 .35900004 C .275 .35900004 .312 .29100005 .312 .193 C .312 .057000005 .24300003 .028 .199 .028 C .15600002 .028 .081 .045 .046000005 .104 C .081 .09900001 .11200001 .12100001 .11200001 .15900001 C .11200001 .19500001 .085 .215 .056 .215 C .031999999 .215 0 .201 0 .157 C 0 .06600001 .093 0 .20200002 0 C .32400004 0 .41500003 .091000009 .41500003 .193 C .41500003 .27500005 .35200004 .35300005 .24800003 .37400005 Z "/>
</symbol>
<use xlink:href="#font_6_3" transform="matrix(9.9626,0,0,-9.9626,258.15943,127.04117)"/>
<symbol id="font_6_4">
<path d="M .266 .165 L .266 .078 C .266 .042000005 .26400004 .031000002 .19000001 .031000002 L .16900002 .031000002 L .16900002 0 C .21000001 .003 .26200003 .003 .30400003 .003 C .34600003 .003 .39900003 .003 .44000004 0 L .44000004 .031000002 L .41900004 .031000002 C .34500004 .031000002 .34300003 .042000005 .34300003 .078 L .34300003 .165 L .44300003 .165 L .44300003 .19600001 L .34300003 .19600001 L .34300003 .651 C .34300003 .671 .34300003 .67700007 .32700003 .67700007 C .31800003 .67700007 .31500004 .67700007 .307 .665 L 0 .19600001 L 0 .165 L .266 .165 M .272 .19600001 L .028 .19600001 L .272 .569 L .272 .19600001 Z "/>
</symbol>
<use xlink:href="#font_6_4" transform="matrix(9.9626,0,0,-9.9626,315.80497,126.82199)"/>
<symbol id="font_6_5">
<path d="M .39900003 .223 C .39900003 .34200005 .317 .44200004 .209 .44200004 C .16100002 .44200004 .118000019 .42600004 .082 .39100004 L .082 .586 C .10200001 .58000007 .135 .573 .16700001 .573 C .29 .573 .36 .66400006 .36 .67700007 C .36 .683 .357 .688 .35 .688 C .349 .688 .347 .688 .342 .68500009 C .322 .67600008 .273 .656 .20600002 .656 C .16600001 .656 .120000008 .66300007 .073 .6840001 C .065 .68700006 .06300001 .68700006 .061000009 .68700006 C .051000004 .68700006 .051000004 .679 .051000004 .66300007 L .051000004 .36700005 C .051000004 .34900005 .051000004 .34100003 .065 .34100003 C .07200001 .34100003 .074 .34400005 .07800001 .35000003 C .08900002 .36600004 .12600002 .42000006 .207 .42000006 C .259 .42000006 .284 .37400005 .292 .35600005 C .308 .31900005 .31 .28000004 .31 .23 C .31 .19500001 .31 .135 .286 .093 C .262 .054000006 .22500001 .028 .17900002 .028 C .106000009 .028 .049000008 .08100001 .032 .14000002 C .035 .13900002 .038000008 .13800001 .049000008 .13800001 C .082 .13800001 .09900001 .163 .09900001 .187 C .09900001 .21100001 .082 .23600002 .049000008 .23600002 C .035 .23600002 0 .22900002 0 .18300002 C 0 .097 .069000009 0 .18100001 0 C .297 0 .39900003 .096 .39900003 .223 Z "/>
</symbol>
<use xlink:href="#font_6_5" transform="matrix(9.9626,0,0,-9.9626,373.80915,127.04117)"/>
<use xlink:href="#font_5_1" transform="matrix(9.9626,0,0,-9.9626,69.25389,178.5806)"/>
<use xlink:href="#font_6_2" transform="matrix(9.9626,0,0,-9.9626,76.674129,180.872)"/>
<use xlink:href="#font_5_1" transform="matrix(9.9626,0,0,-9.9626,69.25389,146.8826)"/>
<use xlink:href="#font_6_1" transform="matrix(9.9626,0,0,-9.9626,77.06267,149.174)"/>
<use xlink:href="#font_6_1" transform="matrix(9.9626,0,0,-9.9626,77.06267,86.19501)"/>
<use xlink:href="#font_6_2" transform="matrix(9.9626,0,0,-9.9626,76.674129,54.498)"/>
<use xlink:href="#font_6_3" transform="matrix(9.9626,0,0,-9.9626,76.59442,23.020173)"/>
<symbol id="font_7_1">
<path d="M .18300002 .411 L .277 .411 C .29700003 .411 .307 .411 .307 .43100003 C .307 .44200004 .29700003 .44200004 .279 .44200004 L .19100002 .44200004 C .227 .584 .23200003 .60400006 .23200003 .61 C .23200003 .62700006 .22000002 .637 .20300001 .637 C .2 .637 .172 .636 .163 .601 L .124 .44200004 L .030000002 .44200004 C .009999998 .44200004 0 .44200004 0 .42300005 C 0 .411 .007999999 .411 .028 .411 L .11600001 .411 C .044 .127 .04 .11000001 .04 .092 C .04 .038000004 .078 0 .132 0 C .234 0 .291 .14600002 .291 .15400002 C .291 .16400002 .28300003 .16400002 .279 .16400002 C .27 .16400002 .26900003 .16100002 .264 .15000002 C .22100002 .046 .16800002 .022000002 .134 .022000002 C .113000009 .022000002 .103 .035 .103 .068 C .103 .092 .105000007 .09900001 .109 .116000007 L .18300002 .411 Z "/>
</symbol>
<use xlink:href="#font_7_1" transform="matrix(9.9626,0,0,-9.9626,391.25013,117.8426)"/>
<symbol id="font_7_3">
<path d="M .45700003 .586 C .461 .6 .461 .602 .461 .609 C .461 .62700006 .447 .63600006 .432 .63600006 C .42200003 .63600006 .40600003 .63 .397 .615 C .395 .61 .387 .579 .38300003 .561 C .37600003 .535 .36900003 .508 .363 .48100005 L .318 .301 C .314 .286 .271 .21600002 .20500002 .21600002 C .15400002 .21600002 .143 .26000003 .143 .29700003 C .143 .34300003 .16000001 .40500004 .194 .49300004 C .21000001 .53400006 .21400002 .545 .21400002 .56500008 C .21400002 .61 .18200001 .6470001 .13200002 .6470001 C .037 .6470001 0 .50200006 0 .49300004 C 0 .48300005 .01 .48300005 .012 .48300005 C .022000002 .48300005 .023 .485 .028000003 .50100007 C .055000009 .595 .095000009 .625 .12900001 .625 C .13700001 .625 .15400002 .625 .15400002 .59300008 C .15400002 .568 .14400001 .54200008 .13700001 .523 C .097 .41700004 .079 .36 .079 .31300003 C .079 .224 .142 .194 .201 .194 C .24000003 .194 .274 .21100001 .30200003 .23900002 C .289 .187 .277 .13800001 .237 .08500001 C .21100001 .051 .17300001 .022 .127 .022 C .113000009 .022 .068 .025000006 .051000008 .06400001 C .067 .06400001 .080000009 .06400001 .094000007 .076000008 C .104 .08500001 .11400001 .098000008 .11400001 .117000009 C .11400001 .148 .087000008 .15200001 .07700001 .15200001 C .054000006 .15200001 .021 .136 .021 .087000008 C .021 .037 .065000008 0 .127 0 C .23 0 .333 .091000009 .361 .20400001 L .45700003 .586 Z "/>
</symbol>
<use xlink:href="#font_7_3" transform="matrix(9.9626,0,0,-9.9626,84.56391,9.726339)"/>
</svg>
