<?xml version="1.0" encoding="UTF-8" standalone="no"?>
<!DOCTYPE svg PUBLIC "-//W3C//DTD SVG 1.1//EN" "http://www.w3.org/Graphics/SVG/1.1/DTD/svg11.dtd">
<svg xmlns="http://www.w3.org/2000/svg" xmlns:xlink="http://www.w3.org/1999/xlink" version="1.1" width="196.86pt" height="161.906pt" viewBox="0 0 196.86 161.906">
<path transform="matrix(1,0,0,-1,12.979,157.783)" stroke-width="1" stroke-linecap="butt" stroke-miterlimit="10" stroke-linejoin="miter" fill="none" stroke="#bfbfbf" d="M 87.48479 0 L 87.48479 144.5401 M 163.55854 0 L 163.55854 144.5401 "/>
<path transform="matrix(1,0,0,-1,12.979,157.783)" stroke-width="1" stroke-linecap="butt" stroke-miterlimit="10" stroke-linejoin="miter" fill="none" stroke="#bfbfbf" d="M 0 130.27626 L 171.16591 130.27626 "/>
<path transform="matrix(1,0,0,-1,12.979,157.783)" stroke-width="1" stroke-linecap="butt" stroke-miterlimit="10" stroke-linejoin="miter" fill="none" stroke="#808080" d="M 87.48479 9.28503 L 87.48479 13.53705 M 163.55854 9.28503 L 163.55854 13.53705 "/>
<path transform="matrix(1,0,0,-1,12.979,157.783)" stroke-width="1" stroke-linecap="butt" stroke-miterlimit="10" stroke-linejoin="miter" fill="none" stroke="#808080" d="M 9.28503 130.27626 L 13.53705 130.27626 "/>
<path transform="matrix(1,0,0,-1,12.979,157.783)" stroke-width="1" stroke-linecap="butt" stroke-miterlimit="10" stroke-linejoin="miter" fill="none" stroke="#000000" d="M 0 11.41106 L 169.17339 11.41106 "/>
<path transform="matrix(1,0,0,-1,182.15239,146.37195)" d="M 1.99252 0 L -1.19551 1.59401 L 0 0 L -1.19551 -1.59401 "/>
<path transform="matrix(1,0,0,-1,12.979,157.783)" stroke-width="1" stroke-linecap="butt" stroke-miterlimit="10" stroke-linejoin="miter" fill="none" stroke="#000000" d="M 11.41106 0 L 11.41106 142.54758 "/>
<path transform="matrix(0,-1,-1,-0,24.39006,15.235428)" d="M 1.99252 0 L -1.19551 1.59401 L 0 0 L -1.19551 -1.59401 "/>
<symbol id="font_0_2">
<path d="M .07700001 .07700001 L .18300002 .18 C .33900003 .31800003 .39900003 .372 .39900003 .47200004 C .39900003 .586 .30900003 .666 .18700002 .666 C .074 .666 0 .574 0 .485 C 0 .42900003 .05 .42900003 .053000008 .42900003 C .07000001 .42900003 .105000007 .441 .105000007 .48200003 C .105000007 .508 .08700001 .53400006 .052000006 .53400006 C .044000005 .53400006 .042000008 .53400006 .039 .53300008 C .062000004 .59800007 .11600001 .63500007 .17400001 .63500007 C .26500003 .63500007 .308 .554 .308 .47200004 C .308 .39200003 .25800003 .31300003 .20300003 .25100003 L .011000004 .037 C 0 .026 0 .024 0 0 L .37100003 0 L .39900003 .17400001 L .374 .17400001 C .36900003 .14400001 .36200003 .1 .352 .085 C .345 .07700001 .279 .07700001 .257 .07700001 L .07700001 .07700001 Z "/>
</symbol>
<use xlink:href="#font_0_2" transform="matrix(9.9626,0,0,-9.9626,98.47013,158.51201)"/>
<symbol id="font_0_3">
<path d="M .266 .165 L .266 .078 C .266 .042000005 .26400004 .031000002 .19000001 .031000002 L .16900002 .031000002 L .16900002 0 C .21000001 .003 .26200003 .003 .30400003 .003 C .34600003 .003 .39900003 .003 .44000004 0 L .44000004 .031000002 L .41900004 .031000002 C .34500004 .031000002 .34300003 .042000005 .34300003 .078 L .34300003 .165 L .44300003 .165 L .44300003 .19600001 L .34300003 .19600001 L .34300003 .651 C .34300003 .671 .34300003 .67700007 .32700003 .67700007 C .31800003 .67700007 .31500004 .67700007 .307 .665 L 0 .19600001 L 0 .165 L .266 .165 M .272 .19600001 L .028 .19600001 L .272 .569 L .272 .19600001 Z "/>
</symbol>
<use xlink:href="#font_0_3" transform="matrix(9.9626,0,0,-9.9626,174.32395,158.51201)"/>
<symbol id="font_1_2">
<path d="M .34100003 .64100006 C .342 .64400008 .344 .652 .344 .65400007 C .344 .66200008 .338 .666 .33200003 .666 C .326 .666 .32500003 .665 .313 .65000006 C .236 .54700008 .16600001 .54 .137 .537 C .132 .536 .121 .535 .121 .518 C .121 .50600007 .13299999 .50600007 .137 .50600007 C .15200001 .50600007 .201 .512 .248 .54700008 L .13 .07300001 C .122 .041 .114 .031000002 .036000007 .031000002 L .028000005 .031000002 C .011 .031000002 0 .031000002 0 .012 C 0 0 .011 0 .014999993 0 C .058000007 0 .10300001 .003 .146 .003 C .19 .003 .236 0 .28 0 C .287 0 .3 0 .3 .019000002 C .3 .031000002 .29 .031000002 .27400003 .031000002 L .266 .031000002 C .253 .031000002 .236 .032 .22299999 .033 C .201 .036000004 .195 .037 .195 .051000004 C .195 .057000005 .197 .066 .19800002 .07 L .34100003 .64100006 Z "/>
</symbol>
<symbol id="font_1_1">
<path d="M .438 .518 C .438 .558 .433 .688 .30400003 .688 C .232 .688 .15200001 .64100006 .092 .527 C .043000007 .43400005 0 .25900004 0 .17 C 0 .13900002 0 0 .134 0 C .19999999 0 .294 .041 .359 .186 C .4 .279 .438 .43700005 .438 .518 M .139 .022000002 C .107 .022000002 .064 .042000005 .064 .120000008 C .064 .202 .139 .49700005 .174 .56900009 C .211 .64400008 .26500003 .66600009 .299 .66600009 C .34 .66600009 .37600003 .63600006 .37600003 .572 C .37600003 .49800004 .306 .215 .263 .120000008 C .241 .07300001 .19100002 .022000002 .139 .022000002 Z "/>
</symbol>
<use xlink:href="#font_1_2" transform="matrix(9.9626,0,0,-9.9626,4.559624,30.718003)"/>
<use xlink:href="#font_1_1" transform="matrix(9.9626,0,0,-9.9626,9.650514,30.93718)"/>
<use xlink:href="#font_1_1" transform="matrix(9.9626,0,0,-9.9626,14.741403,30.93718)"/>
<clipPath id="cp2">
<path transform="matrix(1,0,0,-1,12.979,157.783)" d="M 0 0 L 171.16591 0 L 171.16591 144.5401 L 0 144.5401 Z "/>
</clipPath>
<g clip-path="url(#cp2)">
<path transform="matrix(1,0,0,-1,12.979,157.783)" d="M 11.41106 12.00537 L 14.51602 12.05591 L 17.62102 12.11073 L 20.726 12.17026 L 23.831 12.23485 L 26.93599 12.3049 L 30.04097 12.38089 L 33.14597 12.46341 L 36.25095 12.5529 L 39.35594 12.65001 L 42.46092 12.75539 L 45.56592 12.86972 L 48.6709 12.99377 L 51.7759 13.12842 L 54.88087 13.27444 L 57.98586 13.43294 L 61.09084 13.60489 L 64.19582 13.79147 L 67.3008 13.99396 L 70.40578 14.21361 L 73.51077 14.452 L 76.61574 14.71059 L 79.72073 14.99126 L 82.82571 15.29573 L 85.9307 15.62614 L 89.03568 15.98466 L 92.14066 16.37366 L 95.24565 16.79572 L 98.35062 17.25377 L 101.45561 17.75072 L 104.56058 18.29001 L 107.66557 18.87502 L 110.77054 19.50974 L 113.87553 20.19847 L 116.98053 20.94589 L 120.0855 21.75677 L 123.19049 22.63673 L 126.29546 23.5913 L 129.40045 24.62761 L 132.50542 25.75154 L 135.61042 26.97122 L 138.7154 28.29448 L 141.82038 29.73044 L 144.92537 31.28865 L 148.03034 32.97931 L 151.13533 34.81352 L 154.2403 36.80392 L 157.34529 38.9636 L 160.45027 41.30719 L 163.55525 43.8496 L 163.55525 11.41106 L 11.41106 11.41106 Z " fill="#000080" fill-opacity=".3"/>
<path transform="matrix(1,0,0,-1,12.979,157.783)" stroke-width="1" stroke-linecap="butt" stroke-miterlimit="10" stroke-linejoin="miter" fill="none" stroke="#000080" d="M 11.41106 12.00537 L 14.51602 12.05591 L 17.62102 12.11073 L 20.726 12.17026 L 23.831 12.23485 L 26.93599 12.3049 L 30.04097 12.38089 L 33.14597 12.46341 L 36.25095 12.5529 L 39.35594 12.65001 L 42.46092 12.75539 L 45.56592 12.86972 L 48.6709 12.99377 L 51.7759 13.12842 L 54.88087 13.27444 L 57.98586 13.43294 L 61.09084 13.60489 L 64.19582 13.79147 L 67.3008 13.99396 L 70.40578 14.21361 L 73.51077 14.452 L 76.61574 14.71059 L 79.72073 14.99126 L 82.82571 15.29573 L 85.9307 15.62614 L 89.03568 15.98466 L 92.14066 16.37366 L 95.24565 16.79572 L 98.35062 17.25377 L 101.45561 17.75072 L 104.56058 18.29001 L 107.66557 18.87502 L 110.77054 19.50974 L 113.87553 20.19847 L 116.98053 20.94589 L 120.0855 21.75677 L 123.19049 22.63673 L 126.29546 23.5913 L 129.40045 24.62761 L 132.50542 25.75154 L 135.61042 26.97122 L 138.7154 28.29448 L 141.82038 29.73044 L 144.92537 31.28865 L 148.03034 32.97931 L 151.13533 34.81352 L 154.2403 36.80392 L 157.34529 38.9636 L 160.45027 41.30719 L 163.55525 43.8496 "/>
<symbol id="font_3_1">
<path d="M .11800001 .078 C .108 .039 .106 .031000002 .027000003 .031000002 C .009999998 .031000002 0 .031000002 0 .011000001 C 0 0 .009 0 .027000003 0 L .38400004 0 C .54200008 0 .66 .11800001 .66 .216 C .66 .28800003 .60200008 .34600003 .50500008 .35700003 C .609 .37600003 .71400007 .45000003 .71400007 .545 C .71400007 .619 .64800009 .683 .52800008 .683 L .192 .683 C .17300001 .683 .16300002 .683 .16300002 .66300007 C .16300002 .652 .17200002 .652 .19100002 .652 C .19300002 .652 .21200001 .652 .22900003 .65000006 C .24700001 .648 .256 .647 .256 .634 C .256 .63000008 .25500003 .62700006 .252 .615 L .11800001 .078 M .26900003 .36600004 L .33100004 .614 C .34000004 .64900007 .342 .652 .38500003 .652 L .51400008 .652 C .60200008 .652 .623 .59300008 .623 .549 C .623 .46100004 .53700008 .36600004 .41500003 .36600004 L .26900003 .36600004 M .224 .031000002 C .21000001 .031000002 .208 .031000002 .20200002 .032 C .192 .033 .18900001 .034 .18900001 .042000005 C .18900001 .045 .18900001 .047000003 .194 .065000008 L .263 .344 L .45200003 .344 C .54800006 .344 .56700006 .27 .56700006 .22700002 C .56700006 .128 .47800005 .031000002 .36 .031000002 L .224 .031000002 Z "/>
</symbol>
<use xlink:href="#font_3_1" transform="matrix(9.9626,0,0,-9.9626,157.71044,138.365)"/>
<use xlink:href="#font_3_1" transform="matrix(9.9626,0,0,-9.9626,29.244429,52.63601)"/>
<symbol id="font_0_4">
<path d="M .63100007 .19400002 C .646 .19400002 .665 .19400002 .665 .214 C .665 .23400001 .646 .23400001 .632 .23400001 L .033 .23400001 C .019000002 .23400001 0 .23400001 0 .214 C 0 .19400002 .019000002 .19400002 .034 .19400002 L .63100007 .19400002 M .632 0 C .646 0 .665 0 .665 .02000001 C .665 .040000008 .646 .040000008 .63100007 .040000008 L .034 .040000008 C .019000002 .040000008 0 .040000008 0 .02000001 C 0 0 .019000002 0 .033 0 L .632 0 Z "/>
</symbol>
<use xlink:href="#font_0_4" transform="matrix(9.9626,0,0,-9.9626,40.20791,51.31098)"/>
<symbol id="font_4_1">
<path d="M .057000005 .05099988 C .065000008 .05099988 .073 .052999975 .08 .055999996 C .132 .08099985 .09900001 .16699982 .04 .14499998 C 0 .1309998 .003999997 .08099985 .023000002 .051999809 C .047 .015999794 .096 0 .13700001 .0059998037 C .18800001 .0149998669 .222 .058999778 .24600002 .10099983 C .29900003 .194 .324 .30299986 .35000003 .4059999 C .41500003 .6639999 .47300006 .9239999 .523 1.185 C .57100006 1.433 .605 1.686 .66 1.927 C .675 1.99 .69000008 2.053 .71400007 2.113 C .72300007 2.137 .734 2.161 .75000008 2.181 C .758 2.191 .768 2.201 .78000006 2.204 C .794 2.208 .81200006 2.203 .82500007 2.197 C .83400008 2.193 .84300008 2.188 .85 2.181 C .84200009 2.181 .83400008 2.179 .827 2.1759999 C .77500006 2.151 .808 2.065 .86700007 2.087 C .90700009 2.101 .90300008 2.151 .88400009 2.18 C .86 2.216 .81100007 2.232 .77000007 2.226 C .71900007 2.217 .685 2.173 .661 2.131 C .60800006 2.038 .583 1.929 .55700007 1.826 C .49200005 1.568 .43400003 1.308 .384 1.0469999 C .33600004 .7989999 .30200003 .5459999 .24700001 .30499996 C .23200003 .24199987 .21700001 .1789999 .193 .11899996 C .184 .09499979 .17300001 .07099986 .157 .05099988 C .149 .04099989 .139 .030999899 .127 .027999878 C .113000009 .02399993 .095 .028999806 .082 .034999849 C .073 .038999797 .064 .04399991 .057000005 .05099988 Z "/>
</symbol>
<use xlink:href="#font_4_1" transform="matrix(9.9626,0,0,-9.9626,50.62428,61.262723)"/>
<symbol id="font_5_2">
<path d="M .49000005 .164 L .49000005 .2 L .379 .2 L .379 .646 C .379 .66700008 .379 .674 .35700003 .674 C .345 .674 .34100003 .674 .331 .66 L 0 .2 L 0 .164 L .294 .164 L .294 .082 C .294 .048 .294 .036000004 .213 .036000004 L .186 .036000004 L .186 0 C .236 .002 .3 .004 .33600004 .004 C .37300004 .004 .437 .002 .48700003 0 L .48700003 .036000004 L .46 .036000004 C .379 .036000004 .379 .048 .379 .082 L .379 .164 L .49000005 .164 M .301 .56600007 L .301 .2 L .037000006 .2 L .301 .56600007 Z "/>
</symbol>
<symbol id="font_5_1">
<path d="M .46400006 .33900003 C .46400006 .44900004 .45100004 .528 .40500004 .598 C .374 .644 .31200005 .684 .23200001 .684 C 0 .684 0 .41100005 0 .33900003 C 0 .26700003 0 0 .23200001 0 C .46400006 0 .46400006 .26700003 .46400006 .33900003 M .23200001 .028 C .186 .028 .125 .055 .105000007 .13700001 C .091000009 .19600001 .091000009 .27800004 .091000009 .35200004 C .091000009 .42500005 .091000009 .50100007 .106000009 .556 C .127 .635 .19100002 .656 .23200001 .656 C .286 .656 .338 .623 .356 .565 C .37200005 .51100006 .37300004 .43900005 .37300004 .35200004 C .37300004 .27800004 .37300004 .20400001 .36 .141 C .34000004 .050000006 .272 .028 .23200001 .028 Z "/>
</symbol>
<use xlink:href="#font_5_2" transform="matrix(6.9738,0,0,-6.9738,60.399976,41.53901)"/>
<use xlink:href="#font_5_1" transform="matrix(6.9738,0,0,-6.9738,56.062635,61.85348)"/>
<symbol id="font_0_1">
<path d="M .205 .64000007 C .205 .66400006 .205 .666 .18200003 .666 C .120000008 .60200008 .032000007 .60200008 0 .60200008 L 0 .57100006 C .020000004 .57100006 .07900001 .57100006 .13100001 .597 L .13100001 .079 C .13100001 .043 .128 .031000002 .038000004 .031000002 L .0060000049 .031000002 L .0060000049 0 C .04100001 .003 .128 .003 .168 .003 C .20800002 .003 .29500003 .003 .33000005 0 L .33000005 .031000002 L .29800005 .031000002 C .20800002 .031000002 .205 .042000005 .205 .079 L .205 .64000007 Z "/>
</symbol>
<use xlink:href="#font_0_1" transform="matrix(9.9626,0,0,-9.9626,68.34067,45.897005)"/>
<path transform="matrix(1,0,0,-1,67.454,50.146005)" stroke-width="1" stroke-linecap="butt" stroke-miterlimit="10" stroke-linejoin="miter" fill="none" stroke="#000000" d="M 0 0 L 4.981 0 "/>
<use xlink:href="#font_0_2" transform="matrix(9.9626,0,0,-9.9626,67.95213,59.47001)"/>
<symbol id="font_3_3">
<path d="M .141 .24200002 C .17 .24200002 .24400002 .24400002 .294 .26500003 C .36400003 .29500003 .36900003 .35400004 .36900003 .36800004 C .36900003 .41200004 .331 .45300005 .26200003 .45300005 C .15100001 .45300005 0 .35600005 0 .18100001 C 0 .079 .059 0 .157 0 C .3 0 .384 .106000009 .384 .11800001 C .384 .124000009 .37800003 .13100001 .372 .13100001 C .367 .13100001 .365 .12900001 .35900004 .12100001 C .28 .022000002 .171 .022000002 .15900001 .022000002 C .081 .022000002 .072000008 .106000009 .072000008 .13800001 C .072000008 .15000002 .073 .18100001 .088 .24200002 L .141 .24200002 M .094 .26400004 C .133 .41600005 .236 .43100003 .26200003 .43100003 C .30900003 .43100003 .33600004 .40200005 .33600004 .36800004 C .33600004 .26400004 .17600002 .26400004 .135 .26400004 L .094 .26400004 Z "/>
</symbol>
<use xlink:href="#font_3_3" transform="matrix(9.9626,0,0,-9.9626,74.08829,52.745599)"/>
<symbol id="font_6_1">
<path d="M .37600003 .172 C .37100003 .15200001 .36200003 .114 .36 .113000009 C .34100003 .082 .30100004 .028 .23900001 .028 C .17 .028 .17 .093 .17 .111 C .17 .17000002 .198 .24100001 .226 .314 C .23400001 .334 .24 .349 .24 .365 C .24 .417 .19600001 .451 .145 .451 C .045000007 .451 0 .314 0 .298 C 0 .285 .014000002 .285 .017 .285 C .031 .285 .032 .29 .035 .301 C .059000005 .38300003 .103 .423 .142 .423 C .15900001 .423 .16700001 .412 .16700001 .388 C .16700001 .365 .15900001 .344 .149 .321 C .095 .18300002 .095 .15400002 .095 .127 C .095 .11 .095 .064 .132 .032 C .161 .008 .2 0 .235 0 C .29800005 0 .33200003 .034 .36500005 .066 C .38700003 .0020000004 .45400007 0 .46600003 0 C .50000008 0 .526 .020000002 .545 .053000004 C .56700006 .092 .58100005 .15 .58100005 .15300001 C .58100005 .16600001 .56700006 .16600001 .564 .16600001 C .55 .16600001 .549 .16200002 .54200008 .135 C .53000006 .088 .51100006 .028 .46900005 .028 C .44300003 .028 .43600003 .051000004 .43600003 .077 C .43600003 .094000007 .44400005 .13000001 .45100004 .15600002 C .458 .18300002 .46800006 .22400002 .47300006 .24600002 L .49600006 .335 C .50200006 .36 .513 .404 .513 .409 C .513 .42900003 .49700005 .441 .48000003 .441 C .44300003 .441 .43600003 .412 .42800004 .38 L .37600003 .172 Z "/>
</symbol>
<use xlink:href="#font_6_1" transform="matrix(6.9738,0,0,-6.9738,78.59677,48.592748)"/>
<symbol id="font_3_2">
<path d="M .47600005 .694 C .47600005 .695 .47600005 .705 .46300004 .705 C .44800005 .705 .35300002 .69600006 .33600004 .694 C .32800005 .693 .32200004 .688 .32200004 .675 C .32200004 .663 .33100004 .663 .34600003 .663 C .39400003 .663 .39600004 .656 .39600004 .646 L .39300005 .626 L .33300004 .38900004 C .31500004 .42600004 .286 .45300005 .24100001 .45300005 C .124 .45300005 0 .30600003 0 .16000001 C 0 .06600001 .055000005 0 .133 0 C .153 0 .20300001 .0040000008 .263 .075 C .27100004 .033000005 .30600003 0 .35400004 0 C .38900004 0 .41200004 .023000002 .42800004 .055000005 C .44500003 .091000009 .45800004 .15200001 .45800004 .15400002 C .45800004 .16400002 .44900004 .16400002 .44600005 .16400002 C .43600003 .16400002 .43500004 .16000001 .43200005 .14600002 C .41500003 .081 .397 .022000002 .35600005 .022000002 C .32900004 .022000002 .32600004 .048 .32600004 .068 C .32600004 .092 .32800005 .09900001 .33200003 .116000007 L .47600005 .694 M .26800005 .13000001 C .263 .112 .263 .11000001 .24800001 .093 C .20400001 .038000004 .163 .022000002 .135 .022000002 C .08499999 .022000002 .07100001 .077 .07100001 .116000007 C .07100001 .16600001 .103 .28900004 .126 .335 C .157 .39400003 .202 .43100003 .242 .43100003 C .307 .43100003 .32100005 .34900005 .32100005 .34300003 C .32100005 .337 .31900005 .33100004 .31800003 .32600004 L .26800005 .13000001 Z "/>
</symbol>
<symbol id="font_3_4">
<path d="M .321 .067 C .33200003 .026 .367 0 .41 0 C .44500003 0 .468 .023000002 .484 .055000005 C .50100007 .091000009 .51400008 .15200001 .51400008 .15400002 C .51400008 .16400002 .50500008 .16400002 .50200006 .16400002 C .492 .16400002 .49100004 .16000001 .488 .14600002 C .474 .09 .455 .022000002 .41300003 .022000002 C .39200003 .022000002 .382 .035 .382 .068 C .382 .09 .394 .13700001 .402 .17200002 L .43 .28000004 C .433 .29500003 .44300003 .33300004 .447 .34800003 C .45200003 .37100003 .462 .40900005 .462 .41500003 C .462 .43300004 .448 .44200004 .433 .44200004 C .428 .44200004 .402 .441 .394 .40700004 C .375 .33400003 .331 .15900001 .319 .106000009 C .318 .102000009 .278 .022000002 .20500002 .022000002 C .15300001 .022000002 .143 .067 .143 .104 C .143 .16000001 .171 .23900002 .19700001 .30800004 C .209 .33800004 .21400002 .35200004 .21400002 .37100003 C .21400002 .41600005 .18200001 .45300005 .13200002 .45300005 C .037 .45300005 0 .30800004 0 .29900003 C 0 .28900004 .01 .28900004 .012 .28900004 C .022000002 .28900004 .023 .291 .028000003 .307 C .053000004 .39400003 .091000009 .43100003 .12900001 .43100003 C .13800001 .43100003 .15400002 .43000005 .15400002 .39800004 C .15400002 .374 .143 .34500004 .13700001 .33 C .10000001 .23100002 .079 .16900002 .079 .120000008 C .079 .025000003 .148 0 .202 0 C .268 0 .304 .045 .321 .067 Z "/>
</symbol>
<use xlink:href="#font_3_2" transform="matrix(9.9626,0,0,-9.9626,85.536518,52.745599)"/>
<use xlink:href="#font_3_4" transform="matrix(9.9626,0,0,-9.9626,90.61744,52.745599)"/>
<symbol id="font_3_5">
<path d="M .45700003 .586 C .461 .6 .461 .602 .461 .609 C .461 .62700006 .447 .63600006 .432 .63600006 C .42200003 .63600006 .40600003 .63 .397 .615 C .395 .61 .387 .579 .38300003 .561 C .37600003 .535 .36900003 .508 .363 .48100005 L .318 .301 C .314 .286 .271 .21600002 .20500002 .21600002 C .15400002 .21600002 .143 .26000003 .143 .29700003 C .143 .34300003 .16000001 .40500004 .194 .49300004 C .21000001 .53400006 .21400002 .545 .21400002 .56500008 C .21400002 .61 .18200001 .6470001 .13200002 .6470001 C .037 .6470001 0 .50200006 0 .49300004 C 0 .48300005 .01 .48300005 .012 .48300005 C .022000002 .48300005 .023 .485 .028000003 .50100007 C .055000009 .595 .095000009 .625 .12900001 .625 C .13700001 .625 .15400002 .625 .15400002 .59300008 C .15400002 .568 .14400001 .54200008 .13700001 .523 C .097 .41700004 .079 .36 .079 .31300003 C .079 .224 .142 .194 .201 .194 C .24000003 .194 .274 .21100001 .30200003 .23900002 C .289 .187 .277 .13800001 .237 .08500001 C .21100001 .051 .17300001 .022 .127 .022 C .113000009 .022 .068 .025000006 .051000008 .06400001 C .067 .06400001 .080000009 .06400001 .094000007 .076000008 C .104 .08500001 .11400001 .098000008 .11400001 .117000009 C .11400001 .148 .087000008 .15200001 .07700001 .15200001 C .054000006 .15200001 .021 .136 .021 .087000008 C .021 .037 .065000008 0 .127 0 C .23 0 .333 .091000009 .361 .20400001 L .45700003 .586 Z "/>
</symbol>
<use xlink:href="#font_3_5" transform="matrix(9.9626,0,0,-9.9626,113.307918,124.95234)"/>
<use xlink:href="#font_0_4" transform="matrix(9.9626,0,0,-9.9626,121.58591,121.58498)"/>
<use xlink:href="#font_0_1" transform="matrix(9.9626,0,0,-9.9626,133.62668,116.170009)"/>
<path transform="matrix(1,0,0,-1,132.74,120.41901)" stroke-width="1" stroke-linecap="butt" stroke-miterlimit="10" stroke-linejoin="miter" fill="none" stroke="#000000" d="M 0 0 L 4.981 0 "/>
<use xlink:href="#font_0_2" transform="matrix(9.9626,0,0,-9.9626,133.23813,129.74301)"/>
<use xlink:href="#font_3_3" transform="matrix(9.9626,0,0,-9.9626,139.37529,123.01959)"/>
<use xlink:href="#font_6_1" transform="matrix(6.9738,0,0,-6.9738,143.88378,118.865749)"/>
</g>
<use xlink:href="#font_3_4" transform="matrix(9.9626,0,0,-9.9626,188.05092,148.62459)"/>
<use xlink:href="#font_3_5" transform="matrix(9.9626,0,0,-9.9626,22.059916,9.726339)"/>
</svg>
