<?xml version="1.0" encoding="UTF-8" standalone="no"?>
<!DOCTYPE svg PUBLIC "-//W3C//DTD SVG 1.1//EN" "http://www.w3.org/Graphics/SVG/1.1/DTD/svg11.dtd">
<svg xmlns="http://www.w3.org/2000/svg" xmlns:xlink="http://www.w3.org/1999/xlink" version="1.1" width="383.973pt" height="417.395pt" viewBox="0 0 383.973 417.395">
<path transform="matrix(1,0,0,-1,-13.941,-53.403017)" stroke-width="1" stroke-linecap="butt" stroke-miterlimit="10" stroke-linejoin="miter" fill="none" stroke="#000000" d="M 245.52196 -167.62334 L 212.61434 -159.13932 L 198.2172 -160.68189 L 188.19063 -159.39643 L 176.87862 -159.13932 L 169.1659 -160.68189 L 151.68372 -162.48157 L 140.62883 -169.93717 L 131.37355 -179.96373 L 125.97458 -189.47608 L 121.34697 -199.24559 L 119.29024 -209.78632 L 120.57568 -215.69937 L 119.03313 -224.6976 L 119.80441 -233.69579 L 119.54736 -240.63724 L 122.88953 -243.72235 L 122.6324 -250.14955 L 124.68913 -256.06269 L 128.54553 -261.07597 L 136.25826 -270.2027 L 135.7441 -274.31614 L 139.85755 -278.17256 L 143.71387 -277.40126 L 146.28484 -279.97215 L 146.28484 -283.5714 L 150.14116 -283.5714 L 153.48332 -286.65657 L 153.22628 -289.7416 L 158.111 -289.48457 L 160.16774 -292.5696 L 164.02405 -294.3693 L 165.05245 -298.48274 L 169.423 -300.02528 L 170.19429 -304.13874 L 177.90703 -307.60945 L 186.26247 -307.48088 L 196.67464 -315.32218 L 204.13033 -315.70787 L 205.6728 -319.56419 L 217.49904 -319.05003 L 225.21178 -319.4356 L 235.23836 -317.25035 L 242.82251 -316.86476 L 254.26308 -311.85148 L 261.7187 -304.13874 L 265.5751 -302.8533 L 270.4598 -295.3976 L 270.71687 -289.9987 L 280.4863 -273.54487 L 281.25758 -260.43324 L 283.5714 -255.54854 L 287.42784 -241.92269 L 289.48457 -230.86777 L 287.42784 -228.29683 L 286.9136 -221.09833 L 289.22743 -218.01322 L 285.37104 -210.04335 C 285.37104 -210.04335 278.6867 -202.84488 278.4296 -200.27391 C 278.17256 -197.70305 276.1158 -192.81832 276.1158 -192.81832 L 272.2594 -188.44774 L 270.4598 -183.82007 L 265.318 -177.90703 L 263.7754 -176.62158 L 261.7187 -175.97885 L 253.36324 -168.78029 Z "/>
<path transform="matrix(1,0,0,-1,-13.941,-53.403017)" stroke-width="1" stroke-linecap="butt" stroke-miterlimit="10" stroke-linejoin="miter" fill="none" stroke="#000000" d="M 99.49423 -206.18704 L 98.46582 -224.18338 L 100.52255 -240.89435 L 103.60768 -251.17797 L 106.94983 -258.8907 L 106.6928 -263.51838 L 108.23535 -268.14598 L 109.77785 -272.51655 L 115.1768 -279.97215 L 121.86111 -288.45616 L 122.11824 -294.11216 L 127.77426 -299.5111 L 127.2601 -304.13874 L 132.14482 -305.6813 L 138.57212 -315.45075 L 145.25643 -319.05003 L 152.19786 -327.53404 L 158.88228 -329.33363 L 162.22444 -333.19004 L 173.0223 -335.5038 L 181.5063 -339.10307 L 182.53462 -340.64564 L 187.41934 -339.10307 L 241.40853 -334.98966 L 258.37654 -330.36204 L 269.1744 -325.73435 L 273.80198 -324.19187 L 277.14418 -318.0216 L 285.88529 -308.76634 L 289.22743 -307.22386 L 290.77 -301.8249 L 294.88343 -297.4543 L 298.48274 -297.4543 L 302.8533 -289.9987 L 300.28233 -286.14234 L 303.8816 -279.7151 L 306.45259 -272.2594 L 311.59434 -269.1744 L 310.82304 -261.46156 L 308.76634 -256.06269 L 310.05186 -242.69396 L 308.25218 -239.35179 L 309.28059 -236.00963 L 311.59434 -232.66739 L 310.82304 -230.0965 L 306.96675 -224.6976 L 306.96675 -220.06993 L 302.08204 -216.21361 L 303.62458 -202.58776 L 299.76817 -197.70305 L 300.28233 -191.53289 L 297.19728 -188.19063 L 297.71144 -182.53462 L 294.88343 -178.42118 L 291.5413 -178.6783 L 287.17073 -172.251 L 286.9136 -170.70845 L 282.80015 -167.3663 L 280.7434 -164.28118 L 276.1158 -163.25284 L 271.48814 -155.02588 L 264.8038 -153.22628 L 259.40486 -150.39827 L 257.0911 -150.14116 L 255.54854 -146.28484 L 246.55036 -145.77059 L 245.0078 -144.2281 L 238.83763 -144.48514 L 235.36682 -141.01442 L 228.55394 -141.40012 L 221.6125 -141.14299 L 216.72777 -142.68555 L 211.32889 -141.14299 L 205.92992 -141.65715 L 198.47432 -141.91426 L 193.33246 -140.88587 L 190.50449 -143.19969 L 178.42118 -142.68555 L 173.79357 -144.2281 L 160.68189 -146.799 L 145.25643 -149.88411 L 131.11643 -155.283 L 124.4321 -156.56844 L 122.11824 -159.9106 L 116.20512 -165.5666 L 104.89311 -180.4779 L 103.8648 -192.43262 L 101.80806 -196.0319 Z "/>
<path transform="matrix(1,0,0,-1,-13.941,-53.403017)" stroke-width="1" stroke-linecap="butt" stroke-miterlimit="10" stroke-linejoin="miter" fill="none" stroke="#000000" d="M 107.84969 -152.58356 L 115.08354 -148.79291 L 117.5396 -143.5477 L 136.25826 -140.88587 L 151.68372 -138.05786 L 162.48157 -133.68738 L 178.6783 -131.63059 L 195.90334 -127.00298 C 195.90334 -127.00298 202.58776 -129.0597 204.90161 -128.2884 C 207.21537 -127.51714 212.61434 -126.48882 212.61434 -126.48882 C 212.61434 -126.48882 220.32706 -128.2884 221.86962 -128.2884 L 232.92452 -128.2884 C 234.46707 -128.2884 238.5805 -126.48882 240.38011 -128.54553 C 242.1798 -130.60225 244.23651 -132.91609 244.23651 -132.91609 L 252.97756 -131.8877 C 252.97756 -131.8877 258.37654 -131.8877 259.40486 -132.65898 C 260.43324 -133.43027 270.97398 -140.62883 270.97398 -140.62883 L 275.34455 -142.68555 L 279.458 -141.91426 L 285.114 -150.14116 L 292.5696 -155.02588 L 293.34089 -158.62516 L 298.48274 -161.96733 L 299.76817 -166.85211 L 307.22386 -170.70845 L 307.738 -173.79357 L 313.1369 -180.99213 L 313.1369 -190.24736 L 320.33546 -207.98665 L 323.4206 -214.67105 L 322.90635 -225.21178 L 325.4773 -235.7525 L 325.4773 -239.09467 L 324.19187 -274.31614 L 324.96308 -279.458 L 317.25035 -284.3427 L 315.45075 -295.14057 L 309.28059 -298.9969 L 309.02345 -306.19548 L 303.36747 -308.5093 L 286.65657 -323.93476 L 285.114 -332.41877 L 279.7151 -336.27507 L 259.91908 -337.5606 L 250.40668 -343.73078 L 243.97939 -343.9878 L 236.78083 -347.0729 L 185.61974 -351.7006 L 181.24918 -352.47184 L 176.87862 -356.58534 L 171.47974 -351.95765 L 166.08084 -350.6722 L 150.39827 -344.24494 L 144.2281 -345.27333 L 139.08628 -342.4453 L 138.31499 -331.9046 L 135.22986 -328.3053 L 128.0313 -328.3053 L 128.0313 -323.93476 L 120.31857 -316.73619 L 112.60585 -316.22203 L 113.37712 -309.7947 L 111.06337 -307.99507 L 111.3204 -304.39585 L 109.5208 -301.3107 L 107.20695 -298.48274 L 100.00839 -284.85688 L 98.98007 -280.4863 L 92.80989 -274.57328 L 93.32407 -269.43144 L 91.61261 -262.08229 L 89.33003 -251.54157 L 86.63965 -243.72235 L 87.66806 -239.35179 L 85.35422 -231.12482 L 85.35422 -222.38378 L 85.09709 -213.1285 L 83.55463 -210.81464 L 84.58293 -195.6463 L 87.41095 -192.30406 L 87.1539 -183.3059 L 92.03862 -179.96373 L 91.7815 -174.56485 L 96.15207 -169.1659 L 96.40912 -164.79532 L 108.23535 -152.0693 "/>
<path transform="matrix(1,0,0,-1,-13.941,-53.403017)" stroke-width="1" stroke-linecap="butt" stroke-miterlimit="10" stroke-linejoin="miter" fill="none" stroke="#000000" d="M 74.0422 -191.53289 L 72.49965 -199.50264 L 71.47131 -216.72777 L 73.27094 -227.78267 L 75.32765 -235.23836 L 76.87021 -236.26667 L 75.58476 -247.0645 L 79.95534 -255.29141 L 80.21239 -261.9758 L 83.55463 -266.60343 L 81.75493 -271.2311 L 85.09709 -279.97215 L 88.9535 -284.0856 L 88.69638 -289.48457 L 95.12367 -297.96855 L 95.38078 -303.8816 L 103.8648 -309.5376 L 104.89311 -312.87989 L 105.66438 -314.67948 L 105.92151 -319.8213 L 111.06337 -326.5056 L 117.7477 -328.0482 L 117.7477 -333.7042 L 126.48882 -338.07475 L 129.3168 -339.3602 L 127.77426 -344.24494 L 141.65715 -358.1278 L 149.11284 -355.2998 L 157.59685 -356.32823 L 169.423 -365.06935 L 179.96373 -368.15437 L 185.36263 -363.5268 L 194.10376 -360.6988 L 204.13033 -361.21296 L 206.95832 -358.8991 L 216.98482 -359.41334 L 227.2685 -359.41334 L 236.78083 -356.58534 L 247.57868 -348.8726 L 256.06269 -345.0162 L 276.63 -345.0162 L 288.9703 -341.1598 L 295.91184 -340.3886 L 297.19728 -331.64747 L 305.16706 -322.13508 L 313.39405 -313.1369 L 319.05003 -303.36747 L 323.16349 -300.79658 L 325.22019 -295.3976 L 332.9329 -285.37113 L 333.44709 -266.08927 L 332.41877 -244.23651 L 333.44709 -236.26667 L 331.1333 -229.58234 L 331.1333 -215.95648 L 323.4206 -192.30406 L 322.13508 -187.41934 L 321.36378 -179.44957 L 312.62275 -166.595 L 303.36747 -157.59685 L 297.19728 -146.28484 L 283.5714 -133.68738 L 275.34455 -131.8877 L 259.66197 -123.14656 L 242.95108 -122.37537 L 237.03795 -116.20512 L 201.30233 -120.83281 L 185.10559 -118.7761 L 164.53829 -123.40369 L 151.42659 -132.40186 L 131.8877 -137.5437 L 114.66255 -133.68738 L 109.26369 -141.65715 L 94.60951 -152.71212 L 90.49606 -159.39643 L 86.1255 -165.30957 L 82.52621 -168.65174 Z "/>
<path transform="matrix(1,0,0,-1,-13.941,-53.403017)" stroke-width="1" stroke-linecap="butt" stroke-miterlimit="10" stroke-linejoin="miter" fill="none" stroke="#000000" d="M 75.53407 -164.34532 L 75.26141 -173.07123 L 69.44409 -179.25217 L 66.9899 -189.6142 L 62.17245 -199.15824 L 60.62724 -207.06616 L 63.53592 -213.88327 L 63.80858 -236.97077 L 66.89903 -243.06075 L 66.6263 -249.9688 L 75.44322 -275.41954 L 75.07962 -283.14567 L 79.35167 -292.9623 L 86.53246 -300.59757 L 86.25972 -307.59645 L 95.25838 -316.86787 L 97.2581 -320.86723 L 97.71257 -326.5936 L 101.9846 -329.5931 L 126.25368 -352.4988 L 129.79862 -357.40715 L 129.70777 -359.49775 L 136.34314 -365.406 L 141.88774 -367.133 L 148.25038 -364.6788 L 154.52216 -364.40614 L 159.88503 -366.13313 L 164.06621 -370.76878 L 167.97473 -376.13166 L 182.2453 -374.94999 L 194.06166 -368.40553 L 215.05857 -367.49659 L 218.42168 -366.2241 L 225.32975 -366.5876 L 229.14733 -362.9518 L 231.60153 -363.04267 L 232.69225 -364.8606 L 236.41898 -364.8606 L 243.4179 -356.68003 L 248.41715 -355.4075 L 254.50713 -351.86256 L 274.50416 -352.4079 L 280.8668 -355.13475 L 287.684 -354.58943 L 292.86506 -351.2263 L 296.22819 -351.2263 L 300.86384 -348.4085 L 304.59059 -341.9549 L 304.49964 -331.77467 L 308.49903 -330.68394 L 313.13468 -324.3212 L 316.2251 -323.86677 L 319.58827 -320.41279 C 319.58827 -320.41279 319.22474 -319.2311 319.67918 -318.95845 C 320.13365 -318.6857 321.58799 -318.14039 321.58799 -318.14039 C 321.58799 -318.14039 323.2241 -314.23185 323.40596 -313.86824 C 323.58763 -313.50465 323.6786 -310.32334 323.6786 -310.32334 L 335.31315 -296.77995 L 335.76768 -294.14396 L 339.49433 -291.50798 L 342.2212 -286.5087 L 342.31214 -277.32835 L 340.4942 -273.0562 L 341.67588 -269.96574 L 343.22108 -266.60264 L 341.85768 -255.96793 L 338.49455 -247.15099 L 339.40348 -238.15235 L 339.85795 -232.3351 L 338.13096 -228.97191 L 337.40373 -219.97325 L 332.1318 -205.97544 L 333.13169 -196.15872 L 329.40495 -193.06826 L 327.67796 -178.52503 L 320.04273 -163.0728 L 313.771 -159.25513 L 305.77214 -149.89296 L 303.95429 -142.98493 L 296.13725 -136.34952 L 294.5011 -130.89582 L 289.32014 -125.98741 L 276.77659 -124.2604 L 268.505 -116.7161 L 250.9622 -114.35284 L 244.5086 -111.08058 L 234.05571 -111.62599 L 230.329 -108.35371 L 206.51439 -108.62639 L 204.06018 -106.89938 L 199.5154 -107.89925 L 195.15247 -109.44444 L 182.2453 -111.17151 L 173.06487 -114.71635 L 167.87088 -116.83437 L 160.59659 -118.13544 L 150.20333 -126.97061 L 137.31824 -126.34343 L 127.88983 -126.85226 L 110.7106 -121.03494 L 105.25688 -123.62415 L 103.62076 -130.25952 L 106.25674 -139.43999 C 106.25674 -139.43999 103.07542 -141.98505 102.62088 -141.98505 C 102.16641 -141.98505 96.62184 -147.34783 96.62184 -147.34783 L 93.25871 -148.34769 L 84.26007 -154.71042 L 82.35127 -159.07334 Z "/>
<path transform="matrix(1,0,0,-1,-13.941,-53.403017)" stroke-width="1" stroke-linecap="butt" stroke-miterlimit="10" stroke-linejoin="miter" fill="none" stroke="#000000" d="M 143.32826 -90.3675 C 143.32826 -90.3675 145.57779 -84.13301 145.57779 -83.74742 C 145.57779 -83.36174 144.3566 -71.66412 144.3566 -71.66412 L 135.55121 -66.45804 L 133.04457 -65.5582 L 130.98786 -69.22173 L 124.4321 -75.26341 L 95.76639 -91.52438 L 94.09534 -93.96678 L 94.09534 -99.36568 L 88.56781 -100.39407 L 85.22566 -101.93663 C 85.22566 -101.93663 83.04037 -100.39407 82.39766 -100.52255 C 81.75493 -100.65111 81.24078 -102.57936 81.24078 -102.57936 L 83.16893 -105.66438 L 81.62637 -108.1068 L 70.44292 -108.62096 C 70.44292 -108.62096 65.5582 -103.09352 65.04404 -103.09352 C 64.52988 -103.09352 58.10258 -102.70784 58.10258 -102.70784 L 56.04587 -108.23535 L 57.84546 -116.5908 L 60.03076 -120.96129 C 60.03076 -120.96129 58.87387 -123.01808 58.74532 -122.50386 C 58.61676 -121.98969 46.14786 -112.3488 46.14786 -112.3488 C 46.14786 -112.3488 43.70547 -116.7193 43.70547 -117.36209 C 43.70547 -118.0048 42.54858 -120.83281 42.03435 -120.83281 C 41.52019 -120.83281 36.89258 -120.44714 35.86418 -120.44714 C 34.83586 -120.44714 30.46529 -121.98969 30.46529 -121.98969 L 28.53712 -133.43027 L 31.36513 -137.15811 L 29.82259 -142.04283 L 23.13817 -145.25643 L 20.82431 -149.2414 L 14.91129 -157.72533 L 19.66745 -162.86716 L 14.13998 -167.62334 L 15.16833 -172.12245 L 16.45384 -175.72173 L 22.75256 -178.93534 L 26.09474 -185.10559 L 29.17984 -191.27576 L 30.72232 -195.90334 L 28.28 -200.14537 L 23.65233 -201.17377 L 23.65233 -204.64449 L 17.86783 -213.51409 L 19.41032 -219.94136 L 18.63913 -232.66739 L 18.25343 -235.23836 L 14.39711 -247.32157 L 16.968 -254.00595 L 22.49545 -256.44837 L 25.58057 -256.44837 L 23.65233 -266.08927 L 23.78088 -269.55998 L 17.73927 -269.55998 L 15.81113 -274.57328 L 23.3953 -290.89854 L 22.49545 -300.02528 L 27.89432 -307.22386 L 33.6789 -312.62275 L 33.42186 -317.12187 L 23.78088 -319.05003 L 23.13817 -331.9046 L 24.038 -342.5738 L 31.87929 -352.60038 L 33.80746 -358.64204 L 44.86234 -373.16767 L 44.47675 -375.09584 L 39.3349 -379.59498 L 30.46529 -379.72355 L 23.3953 -371.88224 L 18.76761 -372.0108 L 21.08144 -376.25279 L 19.28185 -384.3511 L 19.53888 -389.10737 L 28.15144 -395.92024 L 39.72058 -396.30586 L 42.03435 -399.39097 L 41.13458 -405.3041 L 37.66385 -407.87498 C 37.66385 -407.87498 37.79234 -409.80317 38.30658 -409.6746 C 38.82074 -409.5461 43.70547 -409.03187 43.70547 -409.03187 C 43.70547 -409.03187 50.90402 -403.63298 51.4182 -403.63298 C 51.93236 -403.63298 53.73204 -405.68968 53.73204 -405.68968 L 52.31802 -422.4006 L 54.37474 -424.97157 L 71.47131 -420.47245 L 75.32765 -424.32884 L 76.35605 -427.15687 L 72.49965 -432.81285 L 60.28787 -432.68428 L 54.37474 -440.01136 L 53.21788 -457.87919 L 55.53163 -461.3499 L 72.3711 -462.3783 L 75.07062 -464.43504 L 77.51294 -464.82063 L 80.34093 -470.6052 L 85.09709 -470.47663 L 95.63783 -464.82063 L 96.92336 -465.07774 L 102.70784 -458.26478 L 106.6928 -458.39335 L 108.23535 -460.5786 L 112.47736 -458.5219 L 110.80624 -452.99446 L 103.47911 -443.99629 L 104.76454 -438.983 L 107.33553 -437.56904 L 123.91786 -437.05485 C 123.91786 -437.05485 129.83098 -435.3837 130.60225 -435.25517 C 131.37355 -435.1266 139.9861 -433.7126 141.14299 -433.58406 C 142.29987 -433.45555 152.19786 -433.19844 152.19786 -433.19844 L 157.46829 -432.17005 L 161.96733 -431.913 L 165.05245 -437.3119 L 169.68006 -439.3686 L 174.8219 -440.91117 L 185.7483 -447.72407 L 193.33246 -449.13807 L 197.70305 -446.95286 L 200.53104 -446.6957 L 195.38919 -455.05119 L 195.51776 -457.1079 L 199.37407 -458.26478 L 211.20032 -457.75065 L 212.99993 -455.6939 L 217.24192 -457.62208 L 218.91306 -457.87919 L 218.52738 -452.3517 L 218.14177 -449.00959 L 222.12665 -441.1683 L 220.96976 -435.7693 L 226.62578 -432.55574 L 225.46883 -428.6993 L 233.56722 -427.54243 L 238.96611 -419.18699 L 240.7658 -415.58769 L 270.97398 -405.43257 L 275.8587 -405.56114 L 281.00053 -400.6764 L 290.89854 -401.57627 L 303.496 -390.64985 L 304.78147 -389.23585 L 327.27693 -383.19425 L 340.51707 -380.1091 L 347.71565 -373.55329 L 347.8442 -363.65528 L 355.2998 -357.22807 C 355.2998 -357.22807 356.97093 -350.80079 357.35655 -350.2865 C 357.7422 -349.77238 368.7971 -337.1749 368.7971 -337.1749 L 370.46824 -327.01979 L 372.3964 -315.06507 L 373.4248 -306.0669 L 378.82368 -302.08204 L 387.69337 -301.3107 L 392.06385 -296.16889 L 397.71986 -295.26905 L 394.76338 -286.52799 C 394.76338 -286.52799 391.93537 -286.52799 391.1641 -286.65657 C 390.3928 -286.78504 384.09407 -288.07057 383.45137 -287.942 C 382.80857 -287.81343 380.62336 -282.28599 380.62336 -282.28599 C 380.62336 -282.28599 382.2944 -279.0723 382.42298 -278.04399 C 382.5515 -277.0156 383.3228 -273.4163 383.3228 -273.4163 L 387.30769 -269.81703 L 384.3511 -264.5467 L 378.05238 -252.4634 L 377.15254 -241.27996 L 375.73857 -239.9945 L 371.88224 -240.38011 L 365.06935 -231.25339 L 367.6402 -225.72595 L 367.89735 -218.27034 L 359.5418 -204.77304 L 362.62696 -195.90334 L 359.41334 -186.51959 L 359.79893 -176.10733 L 352.72895 -169.1659 L 348.10133 -167.75189 L 344.11637 -159.525 L 343.6022 -150.78388 L 335.63236 -144.09955 L 333.0615 -133.17314 L 329.07658 -124.04642 L 323.80619 -119.03313 L 316.22203 -110.67767 L 314.42234 -103.99335 L 305.55274 -94.9951 L 304.01017 -90.7531 L 302.21058 -79.69821 L 296.55458 -77.38437 L 293.46946 -80.4695 L 284.0856 -80.34093 L 283.44288 -75.71332 L 287.68486 -70.57149 L 287.04216 -67.22932 L 279.58653 -66.20093 L 279.7151 -61.95891 L 274.31614 -55.14604 L 273.54487 -53.60347 L 267.3747 -57.20276 L 264.67527 -61.18764 L 260.3047 -61.18764 L 253.8774 -67.87204 L 251.8207 -66.3295 L 251.17797 -60.41635 L 244.87924 -56.43147 L 242.43683 -63.24435 L 239.35179 -65.94388 L 230.48212 -66.45804 L 226.11162 -63.50148 L 224.6976 -66.45804 L 226.36865 -70.05733 L 222.89794 -71.08565 L 214.28537 -69.80022 L 208.62937 -76.6131 L 205.54431 -76.2275 L 205.15865 -67.3579 L 200.14537 -61.3162 L 198.34575 -56.94563 L 196.0319 -57.97403 L 195.38919 -64.27275 L 191.27576 -69.02892 L 190.50449 -76.35605 L 193.20392 -81.24078 L 194.3608 -84.7115 L 190.76158 -88.31078 L 175.59319 -87.41095 L 170.96558 -91.7815 L 165.43805 -91.7815 L 153.61188 -98.20879 L 148.72714 -96.53767 Z "/>
</svg>
