<?xml version="1.0" encoding="UTF-8" standalone="no"?>
<!DOCTYPE svg PUBLIC "-//W3C//DTD SVG 1.1//EN" "http://www.w3.org/Graphics/SVG/1.1/DTD/svg11.dtd">
<svg xmlns="http://www.w3.org/2000/svg" xmlns:xlink="http://www.w3.org/1999/xlink" version="1.1" width="199.076pt" height="163.91pt" viewBox="0 0 199.076 163.91">
<clipPath id="cp0">
<path transform="matrix(1,0,0,-1,49.898,825.40408)" d="M -49.8989 677.58126 L -49.8989 778.5765 L 1.84537 822.75637 L 144.01267 806.67776 L 144.01267 705.68246 L 92.2684 661.5026 Z "/>
</clipPath>
<g clip-path="url(#cp0)">
<path transform="matrix(1,0,0,-1,49.898,825.40408)" stroke-width="1" stroke-linecap="butt" stroke-dasharray="2.98883,2.98883" stroke-miterlimit="10" stroke-linejoin="miter" fill="none" stroke="#808080" d="M 37.16939 707.23837 L 37.16939 708.7412 L 37.16939 710.24417 L 37.16939 711.7471 L 37.16939 713.24996 L 37.16939 714.75289 L 37.16939 716.25576 L 37.16939 717.75869 L 37.16939 719.26156 L 37.16939 720.76449 L 37.16939 722.26736 L 37.16939 723.77029 L 37.16939 725.27316 L 37.16939 726.776 L 37.16939 728.27896 L 37.16939 729.78189 L 37.16939 731.2847 L 37.16939 732.78768 L 37.16939 734.2905 L 37.16939 735.79348 L 37.16939 737.2963 L 37.16939 738.79928 L 37.16939 740.3021 L 37.16939 741.805 L 37.16939 743.3079 "/>
<path transform="matrix(1,0,0,-1,49.898,825.40408)" stroke-width="1" stroke-linecap="butt" stroke-dasharray="2.98883,2.98883" stroke-miterlimit="10" stroke-linejoin="miter" fill="none" stroke="#808080" d="M 52.10342 719.9892 L 51.48117 719.45797 L 50.85893 718.92666 L 50.23668 718.3954 L 49.61443 717.8641 L 48.99219 717.33279 L 48.36993 716.8015 L 47.7477 716.2702 L 47.12544 715.73898 L 46.50319 715.20767 L 45.88095 714.6764 L 45.25868 714.1451 L 44.63644 713.6138 L 44.01419 713.0825 L 43.39194 712.5512 L 42.7697 712.01998 L 42.14745 711.48867 L 41.52519 710.9574 L 40.90295 710.4261 L 40.2807 709.89486 L 39.65846 709.3635 L 39.0362 708.8322 L 38.41394 708.30099 L 37.7917 707.76968 L 37.16945 707.2384 "/>
<path transform="matrix(1,0,0,-1,49.898,825.40408)" stroke-width="1" stroke-linecap="butt" stroke-dasharray="2.98883,2.98883" stroke-miterlimit="10" stroke-linejoin="miter" fill="none" stroke="#808080" d="M -3.86182 711.87887 L -2.15218 711.6855 L -.44255 711.4921 L 1.26704 711.29879 L 2.97667 711.1054 L 4.68631 710.9121 L 6.39594 710.71878 L 8.10556 710.5253 L 9.8152 710.33206 L 11.52483 710.1387 L 13.23444 709.9453 L 14.94408 709.75198 L 16.6537 709.5586 L 18.36333 709.36526 L 20.07295 709.1719 L 21.7826 708.9786 L 23.49222 708.7852 L 25.20183 708.59188 L 26.91148 708.3985 L 28.62111 708.20516 L 30.33072 708.0118 L 32.04034 707.8184 L 33.74998 707.62509 L 35.45961 707.4317 L 37.16924 707.23837 "/>
<path transform="matrix(1,0,0,-1,49.898,825.40408)" stroke-width="1" stroke-linecap="butt" stroke-miterlimit="10" stroke-linejoin="miter" fill="none" stroke="#be21ff" d="M 0 771.6489 L -2.19998 768.36459 L 4.56982 766.582 L 6.7698 769.8663 Z "/>
<path transform="matrix(1,0,0,-1,49.898,825.40408)" stroke-width="1" stroke-linecap="butt" stroke-miterlimit="10" stroke-linejoin="miter" fill="none" stroke="#bd21ff" d="M 6.7698 769.8663 L 4.56982 766.582 L 11.33966 765.2903 L 13.53964 768.57467 Z "/>
<path transform="matrix(1,0,0,-1,49.898,825.40408)" stroke-width="1" stroke-linecap="butt" stroke-miterlimit="10" stroke-linejoin="miter" fill="none" stroke="#bd21ff" d="M 13.53964 768.57467 L 11.33966 765.2903 L 18.1095 764.48959 L 20.30948 767.7739 Z "/>
<path transform="matrix(1,0,0,-1,49.898,825.40408)" stroke-width="1" stroke-linecap="butt" stroke-miterlimit="10" stroke-linejoin="miter" fill="none" stroke="#bd21ff" d="M -2.19998 768.36459 L -4.39998 765.99996 L 2.36983 764.21737 L 4.56982 766.582 Z "/>
<path transform="matrix(1,0,0,-1,49.898,825.40408)" stroke-width="1" stroke-linecap="butt" stroke-miterlimit="10" stroke-linejoin="miter" fill="none" stroke="#bd21ff" d="M 20.30948 767.7739 L 18.1095 764.48959 L 24.87933 764.1798 L 27.07932 767.4642 Z "/>
<path transform="matrix(1,0,0,-1,49.898,825.40408)" stroke-width="1" stroke-linecap="butt" stroke-miterlimit="10" stroke-linejoin="miter" fill="none" stroke="#bd21ff" d="M 4.56982 766.582 L 2.36983 764.21737 L 9.13966 762.92568 L 11.33966 765.2903 Z "/>
<path transform="matrix(1,0,0,-1,49.898,825.40408)" stroke-width="1" stroke-linecap="butt" stroke-miterlimit="10" stroke-linejoin="miter" fill="none" stroke="#be21ff" d="M 27.07932 767.4642 L 24.87933 764.1798 L 31.64915 764.36099 L 33.84914 767.6453 Z "/>
<path transform="matrix(1,0,0,-1,49.898,825.40408)" stroke-width="1" stroke-linecap="butt" stroke-miterlimit="10" stroke-linejoin="miter" fill="none" stroke="#bd21ff" d="M 11.33966 765.2903 L 9.13966 762.92568 L 15.9095 762.12496 L 18.1095 764.48959 Z "/>
<path transform="matrix(1,0,0,-1,49.898,825.40408)" stroke-width="1" stroke-linecap="butt" stroke-miterlimit="10" stroke-linejoin="miter" fill="none" stroke="#bd21ff" d="M -4.39998 765.99996 L -6.59998 764.06588 L .16983 762.2832 L 2.36983 764.21737 Z "/>
<path transform="matrix(1,0,0,-1,49.898,825.40408)" stroke-width="1" stroke-linecap="butt" stroke-miterlimit="10" stroke-linejoin="miter" fill="none" stroke="#be20ff" d="M 33.84914 767.6453 L 31.64915 764.36099 L 38.41899 765.0331 L 40.61897 768.3174 Z "/>
<path transform="matrix(1,0,0,-1,49.898,825.40408)" stroke-width="1" stroke-linecap="butt" stroke-miterlimit="10" stroke-linejoin="miter" fill="none" stroke="#bd21ff" d="M 18.1095 764.48959 L 15.9095 762.12496 L 22.67934 761.8152 L 24.87933 764.1798 Z "/>
<path transform="matrix(1,0,0,-1,49.898,825.40408)" stroke-width="1" stroke-linecap="butt" stroke-miterlimit="10" stroke-linejoin="miter" fill="none" stroke="#bd21ff" d="M 2.36983 764.21737 L .16983 762.2832 L 6.93967 760.9916 L 9.13966 762.92568 Z "/>
<path transform="matrix(1,0,0,-1,49.898,825.40408)" stroke-width="1" stroke-linecap="butt" stroke-miterlimit="10" stroke-linejoin="miter" fill="none" stroke="#bf20ff" d="M 40.61897 768.3174 L 38.41899 765.0331 L 45.18883 766.19619 L 47.38881 769.48049 Z "/>
<path transform="matrix(1,0,0,-1,49.898,825.40408)" stroke-width="1" stroke-linecap="butt" stroke-miterlimit="10" stroke-linejoin="miter" fill="none" stroke="#bd21ff" d="M 24.87933 764.1798 L 22.67934 761.8152 L 29.44916 761.9964 L 31.64915 764.36099 Z "/>
<path transform="matrix(1,0,0,-1,49.898,825.40408)" stroke-width="1" stroke-linecap="butt" stroke-miterlimit="10" stroke-linejoin="miter" fill="none" stroke="#bd21ff" d="M 9.13966 762.92568 L 6.93967 760.9916 L 13.7095 760.19088 L 15.9095 762.12496 Z "/>
<path transform="matrix(1,0,0,-1,49.898,825.40408)" stroke-width="1" stroke-linecap="butt" stroke-miterlimit="10" stroke-linejoin="miter" fill="none" stroke="#c11fff" d="M 47.38881 769.48049 L 45.18883 766.19619 L 51.95866 767.85018 L 54.15865 771.1345 Z "/>
<path transform="matrix(1,0,0,-1,49.898,825.40408)" stroke-width="1" stroke-linecap="butt" stroke-miterlimit="10" stroke-linejoin="miter" fill="none" stroke="#bd21ff" d="M -6.59998 764.06588 L -8.79997 762.07308 L -2.03015 760.29049 L .16983 762.2832 Z "/>
<path transform="matrix(1,0,0,-1,49.898,825.40408)" stroke-width="1" stroke-linecap="butt" stroke-miterlimit="10" stroke-linejoin="miter" fill="none" stroke="#be21ff" d="M 31.64915 764.36099 L 29.44916 761.9964 L 36.219 762.66848 L 38.41899 765.0331 Z "/>
<path transform="matrix(1,0,0,-1,49.898,825.40408)" stroke-width="1" stroke-linecap="butt" stroke-miterlimit="10" stroke-linejoin="miter" fill="none" stroke="#bd21ff" d="M 15.9095 762.12496 L 13.7095 760.19088 L 20.47934 759.8811 L 22.67934 761.8152 Z "/>
<path transform="matrix(1,0,0,-1,49.898,825.40408)" stroke-width="1" stroke-linecap="butt" stroke-miterlimit="10" stroke-linejoin="miter" fill="none" stroke="#c21fff" d="M 54.15865 771.1345 L 51.95866 767.85018 L 58.7285 769.9951 L 60.92848 773.2794 Z "/>
<path transform="matrix(1,0,0,-1,49.898,825.40408)" stroke-width="1" stroke-linecap="butt" stroke-miterlimit="10" stroke-linejoin="miter" fill="none" stroke="#bd21ff" d="M .16983 762.2832 L -2.03015 760.29049 L 4.73967 758.9988 L 6.93967 760.9916 Z "/>
<path transform="matrix(1,0,0,-1,49.898,825.40408)" stroke-width="1" stroke-linecap="butt" stroke-miterlimit="10" stroke-linejoin="miter" fill="none" stroke="#bf20ff" d="M 38.41899 765.0331 L 36.219 762.66848 L 42.98883 763.83157 L 45.18883 766.19619 Z "/>
<path transform="matrix(1,0,0,-1,49.898,825.40408)" stroke-width="1" stroke-linecap="butt" stroke-miterlimit="10" stroke-linejoin="miter" fill="none" stroke="#bd21ff" d="M 22.67934 761.8152 L 20.47934 759.8811 L 27.24916 760.06228 L 29.44916 761.9964 Z "/>
<path transform="matrix(1,0,0,-1,49.898,825.40408)" stroke-width="1" stroke-linecap="butt" stroke-miterlimit="10" stroke-linejoin="miter" fill="none" stroke="#c41eff" d="M 60.92848 773.2794 L 58.7285 769.9951 L 65.49832 772.631 L 67.6983 775.9153 Z "/>
<path transform="matrix(1,0,0,-1,49.898,825.40408)" stroke-width="1" stroke-linecap="butt" stroke-miterlimit="10" stroke-linejoin="miter" fill="none" stroke="#bc21ff" d="M 6.93967 760.9916 L 4.73967 758.9988 L 11.5095 758.1981 L 13.7095 760.19088 Z "/>
<path transform="matrix(1,0,0,-1,49.898,825.40408)" stroke-width="1" stroke-linecap="butt" stroke-miterlimit="10" stroke-linejoin="miter" fill="none" stroke="#c020ff" d="M 45.18883 766.19619 L 42.98883 763.83157 L 49.75867 765.48556 L 51.95866 767.85018 Z "/>
<path transform="matrix(1,0,0,-1,49.898,825.40408)" stroke-width="1" stroke-linecap="butt" stroke-miterlimit="10" stroke-linejoin="miter" fill="none" stroke="#bd21ff" d="M -8.79997 762.07308 L -10.99997 759.53237 L -4.23015 757.74978 L -2.03015 760.29049 Z "/>
<path transform="matrix(1,0,0,-1,49.898,825.40408)" stroke-width="1" stroke-linecap="butt" stroke-miterlimit="10" stroke-linejoin="miter" fill="none" stroke="#be21ff" d="M 29.44916 761.9964 L 27.24916 760.06228 L 34.019 760.7344 L 36.219 762.66848 Z "/>
<path transform="matrix(1,0,0,-1,49.898,825.40408)" stroke-width="1" stroke-linecap="butt" stroke-miterlimit="10" stroke-linejoin="miter" fill="none" stroke="#c61dff" d="M 67.6983 775.9153 L 65.49832 772.631 L 72.26816 775.7578 L 74.46814 779.0421 Z "/>
<path transform="matrix(1,0,0,-1,49.898,825.40408)" stroke-width="1" stroke-linecap="butt" stroke-miterlimit="10" stroke-linejoin="miter" fill="none" stroke="#bd21ff" d="M 13.7095 760.19088 L 11.5095 758.1981 L 18.27934 757.8883 L 20.47934 759.8811 Z "/>
<path transform="matrix(1,0,0,-1,49.898,825.40408)" stroke-width="1" stroke-linecap="butt" stroke-miterlimit="10" stroke-linejoin="miter" fill="none" stroke="#c21fff" d="M 51.95866 767.85018 L 49.75867 765.48556 L 56.5285 767.63046 L 58.7285 769.9951 Z "/>
<path transform="matrix(1,0,0,-1,49.898,825.40408)" stroke-width="1" stroke-linecap="butt" stroke-miterlimit="10" stroke-linejoin="miter" fill="none" stroke="#bc21ff" d="M -2.03015 760.29049 L -4.23015 757.74978 L 2.53967 756.4581 L 4.73967 758.9988 Z "/>
<path transform="matrix(1,0,0,-1,49.898,825.40408)" stroke-width="1" stroke-linecap="butt" stroke-miterlimit="10" stroke-linejoin="miter" fill="none" stroke="#bf20ff" d="M 36.219 762.66848 L 34.019 760.7344 L 40.78883 761.8974 L 42.98883 763.83157 Z "/>
<path transform="matrix(1,0,0,-1,49.898,825.40408)" stroke-width="1" stroke-linecap="butt" stroke-miterlimit="10" stroke-linejoin="miter" fill="none" stroke="#c91bff" d="M 74.46814 779.0421 L 72.26816 775.7578 L 79.038 779.3756 L 81.23798 782.66 Z "/>
<path transform="matrix(1,0,0,-1,49.898,825.40408)" stroke-width="1" stroke-linecap="butt" stroke-miterlimit="10" stroke-linejoin="miter" fill="none" stroke="#bd21ff" d="M 20.47934 759.8811 L 18.27934 757.8883 L 25.04916 758.06948 L 27.24916 760.06228 Z "/>
<path transform="matrix(1,0,0,-1,49.898,825.40408)" stroke-width="1" stroke-linecap="butt" stroke-miterlimit="10" stroke-linejoin="miter" fill="none" stroke="#c41eff" d="M 58.7285 769.9951 L 56.5285 767.63046 L 63.29832 770.26638 L 65.49832 772.631 Z "/>
<path transform="matrix(1,0,0,-1,49.898,825.40408)" stroke-width="1" stroke-linecap="butt" stroke-miterlimit="10" stroke-linejoin="miter" fill="none" stroke="#bc21ff" d="M 4.73967 758.9988 L 2.53967 756.4581 L 9.3095 755.6574 L 11.5095 758.1981 Z "/>
<path transform="matrix(1,0,0,-1,49.898,825.40408)" stroke-width="1" stroke-linecap="butt" stroke-miterlimit="10" stroke-linejoin="miter" fill="none" stroke="#c020ff" d="M 42.98883 763.83157 L 40.78883 761.8974 L 47.55867 763.55148 L 49.75867 765.48556 Z "/>
<path transform="matrix(1,0,0,-1,49.898,825.40408)" stroke-width="1" stroke-linecap="butt" stroke-miterlimit="10" stroke-linejoin="miter" fill="none" stroke="#bc22ff" d="M -10.99997 759.53237 L -13.19997 755.9545 L -6.43015 754.17196 L -4.23015 757.74978 Z "/>
<path transform="matrix(1,0,0,-1,49.898,825.40408)" stroke-width="1" stroke-linecap="butt" stroke-miterlimit="10" stroke-linejoin="miter" fill="none" stroke="#cb1aff" d="M 81.23798 782.66 L 79.038 779.3756 L 85.80783 783.48428 L 88.00781 786.7687 Z "/>
<path transform="matrix(1,0,0,-1,49.898,825.40408)" stroke-width="1" stroke-linecap="butt" stroke-miterlimit="10" stroke-linejoin="miter" fill="none" stroke="#be21ff" d="M 27.24916 760.06228 L 25.04916 758.06948 L 31.819 758.7416 L 34.019 760.7344 Z "/>
<path transform="matrix(1,0,0,-1,49.898,825.40408)" stroke-width="1" stroke-linecap="butt" stroke-miterlimit="10" stroke-linejoin="miter" fill="none" stroke="#c61dff" d="M 65.49832 772.631 L 63.29832 770.26638 L 70.06816 773.3932 L 72.26816 775.7578 Z "/>
<path transform="matrix(1,0,0,-1,49.898,825.40408)" stroke-width="1" stroke-linecap="butt" stroke-miterlimit="10" stroke-linejoin="miter" fill="none" stroke="#bc21ff" d="M 11.5095 758.1981 L 9.3095 755.6574 L 16.07933 755.34768 L 18.27934 757.8883 Z "/>
<path transform="matrix(1,0,0,-1,49.898,825.40408)" stroke-width="1" stroke-linecap="butt" stroke-miterlimit="10" stroke-linejoin="miter" fill="none" stroke="#c21fff" d="M 49.75867 765.48556 L 47.55867 763.55148 L 54.3285 765.69638 L 56.5285 767.63046 Z "/>
<path transform="matrix(1,0,0,-1,49.898,825.40408)" stroke-width="1" stroke-linecap="butt" stroke-miterlimit="10" stroke-linejoin="miter" fill="none" stroke="#bc22ff" d="M -4.23015 757.74978 L -6.43015 754.17196 L .33968 752.88027 L 2.53967 756.4581 Z "/>
<path transform="matrix(1,0,0,-1,49.898,825.40408)" stroke-width="1" stroke-linecap="butt" stroke-miterlimit="10" stroke-linejoin="miter" fill="none" stroke="#bf20ff" d="M 34.019 760.7344 L 31.819 758.7416 L 38.58884 759.90469 L 40.78883 761.8974 Z "/>
<path transform="matrix(1,0,0,-1,49.898,825.40408)" stroke-width="1" stroke-linecap="butt" stroke-miterlimit="10" stroke-linejoin="miter" fill="none" stroke="#ce19ff" d="M 88.00781 786.7687 L 85.80783 783.48428 L 92.57765 788.0839 L 94.77763 791.3683 Z "/>
<path transform="matrix(1,0,0,-1,49.898,825.40408)" stroke-width="1" stroke-linecap="butt" stroke-miterlimit="10" stroke-linejoin="miter" fill="none" stroke="#c81cff" d="M 72.26816 775.7578 L 70.06816 773.3932 L 76.838 777.011 L 79.038 779.3756 Z "/>
<path transform="matrix(1,0,0,-1,49.898,825.40408)" stroke-width="1" stroke-linecap="butt" stroke-miterlimit="10" stroke-linejoin="miter" fill="none" stroke="#bd21ff" d="M 18.27934 757.8883 L 16.07933 755.34768 L 22.84915 755.5288 L 25.04916 758.06948 Z "/>
<path transform="matrix(1,0,0,-1,49.898,825.40408)" stroke-width="1" stroke-linecap="butt" stroke-miterlimit="10" stroke-linejoin="miter" fill="none" stroke="#c31eff" d="M 56.5285 767.63046 L 54.3285 765.69638 L 61.09833 768.3323 L 63.29832 770.26638 Z "/>
<path transform="matrix(1,0,0,-1,49.898,825.40408)" stroke-width="1" stroke-linecap="butt" stroke-miterlimit="10" stroke-linejoin="miter" fill="none" stroke="#bc22ff" d="M 2.53967 756.4581 L .33968 752.88027 L 7.10951 752.0795 L 9.3095 755.6574 Z "/>
<path transform="matrix(1,0,0,-1,49.898,825.40408)" stroke-width="1" stroke-linecap="butt" stroke-miterlimit="10" stroke-linejoin="miter" fill="none" stroke="#c020ff" d="M 40.78883 761.8974 L 38.58884 759.90469 L 45.35867 761.55868 L 47.55867 763.55148 Z "/>
<path transform="matrix(1,0,0,-1,49.898,825.40408)" stroke-width="1" stroke-linecap="butt" stroke-miterlimit="10" stroke-linejoin="miter" fill="none" stroke="#d117ff" d="M 94.77763 791.3683 L 92.57765 788.0839 L 99.34749 793.1745 L 101.54747 796.45889 Z "/>
<path transform="matrix(1,0,0,-1,49.898,825.40408)" stroke-width="1" stroke-linecap="butt" stroke-miterlimit="10" stroke-linejoin="miter" fill="none" stroke="#bb22ff" d="M -13.19997 755.9545 L -15.39996 750.85037 L -8.63014 749.06777 L -6.43015 754.17196 Z "/>
<path transform="matrix(1,0,0,-1,49.898,825.40408)" stroke-width="1" stroke-linecap="butt" stroke-miterlimit="10" stroke-linejoin="miter" fill="none" stroke="#cb1aff" d="M 79.038 779.3756 L 76.838 777.011 L 83.60783 781.1197 L 85.80783 783.48428 Z "/>
<path transform="matrix(1,0,0,-1,49.898,825.40408)" stroke-width="1" stroke-linecap="butt" stroke-miterlimit="10" stroke-linejoin="miter" fill="none" stroke="#bd21ff" d="M 25.04916 758.06948 L 22.84915 755.5288 L 29.61899 756.20089 L 31.819 758.7416 Z "/>
<path transform="matrix(1,0,0,-1,49.898,825.40408)" stroke-width="1" stroke-linecap="butt" stroke-miterlimit="10" stroke-linejoin="miter" fill="none" stroke="#c51dff" d="M 63.29832 770.26638 L 61.09833 768.3323 L 67.86816 771.4591 L 70.06816 773.3932 Z "/>
<path transform="matrix(1,0,0,-1,49.898,825.40408)" stroke-width="1" stroke-linecap="butt" stroke-miterlimit="10" stroke-linejoin="miter" fill="none" stroke="#bc22ff" d="M 9.3095 755.6574 L 7.10951 752.0795 L 13.87935 751.7698 L 16.07933 755.34768 Z "/>
<path transform="matrix(1,0,0,-1,49.898,825.40408)" stroke-width="1" stroke-linecap="butt" stroke-miterlimit="10" stroke-linejoin="miter" fill="none" stroke="#c11fff" d="M 47.55867 763.55148 L 45.35867 761.55868 L 52.12851 763.7036 L 54.3285 765.69638 Z "/>
<path transform="matrix(1,0,0,-1,49.898,825.40408)" stroke-width="1" stroke-linecap="butt" stroke-miterlimit="10" stroke-linejoin="miter" fill="none" stroke="#d515ff" d="M 101.54747 796.45889 L 99.34749 793.1745 L 106.11732 798.75619 L 108.3173 802.04049 Z "/>
<path transform="matrix(1,0,0,-1,49.898,825.40408)" stroke-width="1" stroke-linecap="butt" stroke-miterlimit="10" stroke-linejoin="miter" fill="none" stroke="#ba22ff" d="M -6.43015 754.17196 L -8.63014 749.06777 L -1.8603 747.77609 L .33968 752.88027 Z "/>
<path transform="matrix(1,0,0,-1,49.898,825.40408)" stroke-width="1" stroke-linecap="butt" stroke-miterlimit="10" stroke-linejoin="miter" fill="none" stroke="#be20ff" d="M 31.819 758.7416 L 29.61899 756.20089 L 36.38882 757.36398 L 38.58884 759.90469 Z "/>
<path transform="matrix(1,0,0,-1,49.898,825.40408)" stroke-width="1" stroke-linecap="butt" stroke-miterlimit="10" stroke-linejoin="miter" fill="none" stroke="#ce19ff" d="M 85.80783 783.48428 L 83.60783 781.1197 L 90.37766 785.7193 L 92.57765 788.0839 Z "/>
<path transform="matrix(1,0,0,-1,49.898,825.40408)" stroke-width="1" stroke-linecap="butt" stroke-miterlimit="10" stroke-linejoin="miter" fill="none" stroke="#c81cff" d="M 70.06816 773.3932 L 67.86816 771.4591 L 74.638 775.0769 L 76.838 777.011 Z "/>
<path transform="matrix(1,0,0,-1,49.898,825.40408)" stroke-width="1" stroke-linecap="butt" stroke-miterlimit="10" stroke-linejoin="miter" fill="none" stroke="#bc22ff" d="M 16.07933 755.34768 L 13.87935 751.7698 L 20.64917 751.9509 L 22.84915 755.5288 Z "/>
<path transform="matrix(1,0,0,-1,49.898,825.40408)" stroke-width="1" stroke-linecap="butt" stroke-miterlimit="10" stroke-linejoin="miter" fill="none" stroke="#c31eff" d="M 54.3285 765.69638 L 52.12851 763.7036 L 58.89833 766.3395 L 61.09833 768.3323 Z "/>
<path transform="matrix(1,0,0,-1,49.898,825.40408)" stroke-width="1" stroke-linecap="butt" stroke-miterlimit="10" stroke-linejoin="miter" fill="none" stroke="#ba23ff" d="M .33968 752.88027 L -1.8603 747.77609 L 4.90952 746.97537 L 7.10951 752.0795 Z "/>
<path transform="matrix(1,0,0,-1,49.898,825.40408)" stroke-width="1" stroke-linecap="butt" stroke-miterlimit="10" stroke-linejoin="miter" fill="none" stroke="#d913ff" d="M 108.3173 802.04049 L 106.11732 798.75619 L 112.88715 804.8286 L 115.08713 808.113 Z "/>
<path transform="matrix(1,0,0,-1,49.898,825.40408)" stroke-width="1" stroke-linecap="butt" stroke-miterlimit="10" stroke-linejoin="miter" fill="none" stroke="#c020ff" d="M 38.58884 759.90469 L 36.38882 757.36398 L 43.15866 759.01797 L 45.35867 761.55868 Z "/>
<path transform="matrix(1,0,0,-1,49.898,825.40408)" stroke-width="1" stroke-linecap="butt" stroke-miterlimit="10" stroke-linejoin="miter" fill="none" stroke="#d117ff" d="M 92.57765 788.0839 L 90.37766 785.7193 L 97.14749 790.8099 L 99.34749 793.1745 Z "/>
<path transform="matrix(1,0,0,-1,49.898,825.40408)" stroke-width="1" stroke-linecap="butt" stroke-miterlimit="10" stroke-linejoin="miter" fill="none" stroke="#b823ff" d="M -15.39996 750.85037 L -17.59996 743.7306 L -10.83014 741.948 L -8.63014 749.06777 Z "/>
<path transform="matrix(1,0,0,-1,49.898,825.40408)" stroke-width="1" stroke-linecap="butt" stroke-miterlimit="10" stroke-linejoin="miter" fill="none" stroke="#cb1aff" d="M 76.838 777.011 L 74.638 775.0769 L 81.40784 779.1856 L 83.60783 781.1197 Z "/>
<path transform="matrix(1,0,0,-1,49.898,825.40408)" stroke-width="1" stroke-linecap="butt" stroke-miterlimit="10" stroke-linejoin="miter" fill="none" stroke="#bd21ff" d="M 22.84915 755.5288 L 20.64917 751.9509 L 27.419 752.62307 L 29.61899 756.20089 Z "/>
<path transform="matrix(1,0,0,-1,49.898,825.40408)" stroke-width="1" stroke-linecap="butt" stroke-miterlimit="10" stroke-linejoin="miter" fill="none" stroke="#c51dff" d="M 61.09833 768.3323 L 58.89833 766.3395 L 65.66817 769.4663 L 67.86816 771.4591 Z "/>
<path transform="matrix(1,0,0,-1,49.898,825.40408)" stroke-width="1" stroke-linecap="butt" stroke-miterlimit="10" stroke-linejoin="miter" fill="none" stroke="#ba22ff" d="M 7.10951 752.0795 L 4.90952 746.97537 L 11.67935 746.6656 L 13.87935 751.7698 Z "/>
<path transform="matrix(1,0,0,-1,49.898,825.40408)" stroke-width="1" stroke-linecap="butt" stroke-miterlimit="10" stroke-linejoin="miter" fill="none" stroke="#dd11ff" d="M 115.08713 808.113 L 112.88715 804.8286 L 119.65698 811.392 L 121.85696 814.6764 Z "/>
<path transform="matrix(1,0,0,-1,49.898,825.40408)" stroke-width="1" stroke-linecap="butt" stroke-miterlimit="10" stroke-linejoin="miter" fill="none" stroke="#c11fff" d="M 45.35867 761.55868 L 43.15866 759.01797 L 49.9285 761.1629 L 52.12851 763.7036 Z "/>
<path transform="matrix(1,0,0,-1,49.898,825.40408)" stroke-width="1" stroke-linecap="butt" stroke-miterlimit="10" stroke-linejoin="miter" fill="none" stroke="#b824ff" d="M -8.63014 749.06777 L -10.83014 741.948 L -4.0603 740.6563 L -1.8603 747.77609 Z "/>
<path transform="matrix(1,0,0,-1,49.898,825.40408)" stroke-width="1" stroke-linecap="butt" stroke-miterlimit="10" stroke-linejoin="miter" fill="none" stroke="#d415ff" d="M 99.34749 793.1745 L 97.14749 790.8099 L 103.91733 796.39157 L 106.11732 798.75619 Z "/>
<path transform="matrix(1,0,0,-1,49.898,825.40408)" stroke-width="1" stroke-linecap="butt" stroke-miterlimit="10" stroke-linejoin="miter" fill="none" stroke="#be21ff" d="M 29.61899 756.20089 L 27.419 752.62307 L 34.18884 753.78616 L 36.38882 757.36398 Z "/>
<path transform="matrix(1,0,0,-1,49.898,825.40408)" stroke-width="1" stroke-linecap="butt" stroke-miterlimit="10" stroke-linejoin="miter" fill="none" stroke="#cd19ff" d="M 83.60783 781.1197 L 81.40784 779.1856 L 88.17766 783.7852 L 90.37766 785.7193 Z "/>
<path transform="matrix(1,0,0,-1,49.898,825.40408)" stroke-width="1" stroke-linecap="butt" stroke-miterlimit="10" stroke-linejoin="miter" fill="none" stroke="#c81cff" d="M 67.86816 771.4591 L 65.66817 769.4663 L 72.438 773.0841 L 74.638 775.0769 Z "/>
<path transform="matrix(1,0,0,-1,49.898,825.40408)" stroke-width="1" stroke-linecap="butt" stroke-miterlimit="10" stroke-linejoin="miter" fill="none" stroke="#bb22ff" d="M 13.87935 751.7698 L 11.67935 746.6656 L 18.44917 746.84677 L 20.64917 751.9509 Z "/>
<path transform="matrix(1,0,0,-1,49.898,825.40408)" stroke-width="1" stroke-linecap="butt" stroke-miterlimit="10" stroke-linejoin="miter" fill="none" stroke="#e10fff" d="M 121.85696 814.6764 L 119.65698 811.392 L 126.42682 818.44638 L 128.6268 821.7307 Z "/>
<path transform="matrix(1,0,0,-1,49.898,825.40408)" stroke-width="1" stroke-linecap="butt" stroke-miterlimit="10" stroke-linejoin="miter" fill="none" stroke="#c31eff" d="M 52.12851 763.7036 L 49.9285 761.1629 L 56.69832 763.79879 L 58.89833 766.3395 Z "/>
<path transform="matrix(1,0,0,-1,49.898,825.40408)" stroke-width="1" stroke-linecap="butt" stroke-miterlimit="10" stroke-linejoin="miter" fill="none" stroke="#b824ff" d="M -1.8603 747.77609 L -4.0603 740.6563 L 2.70952 739.8556 L 4.90952 746.97537 Z "/>
<path transform="matrix(1,0,0,-1,49.898,825.40408)" stroke-width="1" stroke-linecap="butt" stroke-miterlimit="10" stroke-linejoin="miter" fill="none" stroke="#d813ff" d="M 106.11732 798.75619 L 103.91733 796.39157 L 110.68715 802.464 L 112.88715 804.8286 Z "/>
<path transform="matrix(1,0,0,-1,49.898,825.40408)" stroke-width="1" stroke-linecap="butt" stroke-miterlimit="10" stroke-linejoin="miter" fill="none" stroke="#bf20ff" d="M 36.38882 757.36398 L 34.18884 753.78616 L 40.95868 755.4401 L 43.15866 759.01797 Z "/>
<path transform="matrix(1,0,0,-1,49.898,825.40408)" stroke-width="1" stroke-linecap="butt" stroke-miterlimit="10" stroke-linejoin="miter" fill="none" stroke="#b525ff" d="M -17.59996 743.7306 L -19.79996 734.106 L -13.03014 732.3235 L -10.83014 741.948 Z "/>
<path transform="matrix(1,0,0,-1,49.898,825.40408)" stroke-width="1" stroke-linecap="butt" stroke-miterlimit="10" stroke-linejoin="miter" fill="none" stroke="#d117ff" d="M 90.37766 785.7193 L 88.17766 783.7852 L 94.9475 788.8758 L 97.14749 790.8099 Z "/>
<path transform="matrix(1,0,0,-1,49.898,825.40408)" stroke-width="1" stroke-linecap="butt" stroke-miterlimit="10" stroke-linejoin="miter" fill="none" stroke="#bb22ff" d="M 20.64917 751.9509 L 18.44917 746.84677 L 25.21901 747.51889 L 27.419 752.62307 Z "/>
<path transform="matrix(1,0,0,-1,49.898,825.40408)" stroke-width="1" stroke-linecap="butt" stroke-miterlimit="10" stroke-linejoin="miter" fill="none" stroke="#ca1aff" d="M 74.638 775.0769 L 72.438 773.0841 L 79.20784 777.1928 L 81.40784 779.1856 Z "/>
<path transform="matrix(1,0,0,-1,49.898,825.40408)" stroke-width="1" stroke-linecap="butt" stroke-miterlimit="10" stroke-linejoin="miter" fill="none" stroke="#c51dff" d="M 58.89833 766.3395 L 56.69832 763.79879 L 63.46815 766.9256 L 65.66817 769.4663 Z "/>
<path transform="matrix(1,0,0,-1,49.898,825.40408)" stroke-width="1" stroke-linecap="butt" stroke-miterlimit="10" stroke-linejoin="miter" fill="none" stroke="#b824ff" d="M 4.90952 746.97537 L 2.70952 739.8556 L 9.47935 739.54586 L 11.67935 746.6656 Z "/>
<path transform="matrix(1,0,0,-1,49.898,825.40408)" stroke-width="1" stroke-linecap="butt" stroke-miterlimit="10" stroke-linejoin="miter" fill="none" stroke="#e60dff" d="M 128.6268 821.7307 L 126.42682 818.44638 L 133.19664 825.99166 L 135.39662 829.276 Z "/>
<path transform="matrix(1,0,0,-1,49.898,825.40408)" stroke-width="1" stroke-linecap="butt" stroke-miterlimit="10" stroke-linejoin="miter" fill="none" stroke="#dc11ff" d="M 112.88715 804.8286 L 110.68715 802.464 L 117.45699 809.0274 L 119.65698 811.392 Z "/>
<path transform="matrix(1,0,0,-1,49.898,825.40408)" stroke-width="1" stroke-linecap="butt" stroke-miterlimit="10" stroke-linejoin="miter" fill="none" stroke="#c11fff" d="M 43.15866 759.01797 L 40.95868 755.4401 L 47.72852 757.585 L 49.9285 761.1629 Z "/>
<path transform="matrix(1,0,0,-1,49.898,825.40408)" stroke-width="1" stroke-linecap="butt" stroke-miterlimit="10" stroke-linejoin="miter" fill="none" stroke="#b426ff" d="M -10.83014 741.948 L -13.03014 732.3235 L -6.2603 731.0318 L -4.0603 740.6563 Z "/>
<path transform="matrix(1,0,0,-1,49.898,825.40408)" stroke-width="1" stroke-linecap="butt" stroke-miterlimit="10" stroke-linejoin="miter" fill="none" stroke="#d415ff" d="M 97.14749 790.8099 L 94.9475 788.8758 L 101.71733 794.45748 L 103.91733 796.39157 Z "/>
<path transform="matrix(1,0,0,-1,49.898,825.40408)" stroke-width="1" stroke-linecap="butt" stroke-miterlimit="10" stroke-linejoin="miter" fill="none" stroke="#bc21ff" d="M 27.419 752.62307 L 25.21901 747.51889 L 31.98885 748.68197 L 34.18884 753.78616 Z "/>
<path transform="matrix(1,0,0,-1,49.898,825.40408)" stroke-width="1" stroke-linecap="butt" stroke-miterlimit="10" stroke-linejoin="miter" fill="none" stroke="#cd19ff" d="M 81.40784 779.1856 L 79.20784 777.1928 L 85.97766 781.7925 L 88.17766 783.7852 Z "/>
<path transform="matrix(1,0,0,-1,49.898,825.40408)" stroke-width="1" stroke-linecap="butt" stroke-miterlimit="10" stroke-linejoin="miter" fill="none" stroke="#b824ff" d="M 11.67935 746.6656 L 9.47935 739.54586 L 16.24918 739.72708 L 18.44917 746.84677 Z "/>
<path transform="matrix(1,0,0,-1,49.898,825.40408)" stroke-width="1" stroke-linecap="butt" stroke-miterlimit="10" stroke-linejoin="miter" fill="none" stroke="#c81cff" d="M 65.66817 769.4663 L 63.46815 766.9256 L 70.23799 770.5434 L 72.438 773.0841 Z "/>
<path transform="matrix(1,0,0,-1,49.898,825.40408)" stroke-width="1" stroke-linecap="butt" stroke-miterlimit="10" stroke-linejoin="miter" fill="none" stroke="#eb0aff" d="M 135.39662 829.276 L 133.19664 825.99166 L 139.96648 834.028 L 142.16646 837.3124 Z "/>
<path transform="matrix(1,0,0,-1,49.898,825.40408)" stroke-width="1" stroke-linecap="butt" stroke-miterlimit="10" stroke-linejoin="miter" fill="none" stroke="#e10fff" d="M 119.65698 811.392 L 117.45699 809.0274 L 124.22682 816.0817 L 126.42682 818.44638 Z "/>
<path transform="matrix(1,0,0,-1,49.898,825.40408)" stroke-width="1" stroke-linecap="butt" stroke-miterlimit="10" stroke-linejoin="miter" fill="none" stroke="#b426ff" d="M -4.0603 740.6563 L -6.2603 731.0318 L .50952 730.2311 L 2.70952 739.8556 Z "/>
<path transform="matrix(1,0,0,-1,49.898,825.40408)" stroke-width="1" stroke-linecap="butt" stroke-miterlimit="10" stroke-linejoin="miter" fill="none" stroke="#c21eff" d="M 49.9285 761.1629 L 47.72852 757.585 L 54.49834 760.22097 L 56.69832 763.79879 Z "/>
<path transform="matrix(1,0,0,-1,49.898,825.40408)" stroke-width="1" stroke-linecap="butt" stroke-miterlimit="10" stroke-linejoin="miter" fill="none" stroke="#d814ff" d="M 103.91733 796.39157 L 101.71733 794.45748 L 108.48715 800.5299 L 110.68715 802.464 Z "/>
<path transform="matrix(1,0,0,-1,49.898,825.40408)" stroke-width="1" stroke-linecap="butt" stroke-miterlimit="10" stroke-linejoin="miter" fill="none" stroke="#af28ff" d="M -19.79996 734.106 L -21.99995 721.4875 L -15.23013 719.7049 L -13.03014 732.3235 Z "/>
<path transform="matrix(1,0,0,-1,49.898,825.40408)" stroke-width="1" stroke-linecap="butt" stroke-miterlimit="10" stroke-linejoin="miter" fill="none" stroke="#be21ff" d="M 34.18884 753.78616 L 31.98885 748.68197 L 38.75868 750.33596 L 40.95868 755.4401 Z "/>
<path transform="matrix(1,0,0,-1,49.898,825.40408)" stroke-width="1" stroke-linecap="butt" stroke-miterlimit="10" stroke-linejoin="miter" fill="none" stroke="#d117ff" d="M 88.17766 783.7852 L 85.97766 781.7925 L 92.7475 786.88308 L 94.9475 788.8758 Z "/>
<path transform="matrix(1,0,0,-1,49.898,825.40408)" stroke-width="1" stroke-linecap="butt" stroke-miterlimit="10" stroke-linejoin="miter" fill="none" stroke="#b923ff" d="M 18.44917 746.84677 L 16.24918 739.72708 L 23.01901 740.3991 L 25.21901 747.51889 Z "/>
<path transform="matrix(1,0,0,-1,49.898,825.40408)" stroke-width="1" stroke-linecap="butt" stroke-miterlimit="10" stroke-linejoin="miter" fill="none" stroke="#ca1aff" d="M 72.438 773.0841 L 70.23799 770.5434 L 77.00783 774.6521 L 79.20784 777.1928 Z "/>
<path transform="matrix(1,0,0,-1,49.898,825.40408)" stroke-width="1" stroke-linecap="butt" stroke-miterlimit="10" stroke-linejoin="miter" fill="none" stroke="#b426ff" d="M 2.70952 739.8556 L .50952 730.2311 L 7.27936 729.9213 L 9.47935 739.54586 Z "/>
<path transform="matrix(1,0,0,-1,49.898,825.40408)" stroke-width="1" stroke-linecap="butt" stroke-miterlimit="10" stroke-linejoin="miter" fill="none" stroke="#c41dff" d="M 56.69832 763.79879 L 54.49834 760.22097 L 61.26817 763.3478 L 63.46815 766.9256 Z "/>
<path transform="matrix(1,0,0,-1,49.898,825.40408)" stroke-width="1" stroke-linecap="butt" stroke-miterlimit="10" stroke-linejoin="miter" fill="none" stroke="#e50dff" d="M 126.42682 818.44638 L 124.22682 816.0817 L 130.99665 823.627 L 133.19664 825.99166 Z "/>
<path transform="matrix(1,0,0,-1,49.898,825.40408)" stroke-width="1" stroke-linecap="butt" stroke-miterlimit="10" stroke-linejoin="miter" fill="none" stroke="#dc11ff" d="M 110.68715 802.464 L 108.48715 800.5299 L 115.25699 807.0933 L 117.45699 809.0274 Z "/>
<path transform="matrix(1,0,0,-1,49.898,825.40408)" stroke-width="1" stroke-linecap="butt" stroke-miterlimit="10" stroke-linejoin="miter" fill="none" stroke="#af28ff" d="M -13.03014 732.3235 L -15.23013 719.7049 L -8.4603 718.41329 L -6.2603 731.0318 Z "/>
<path transform="matrix(1,0,0,-1,49.898,825.40408)" stroke-width="1" stroke-linecap="butt" stroke-miterlimit="10" stroke-linejoin="miter" fill="none" stroke="#bf20ff" d="M 40.95868 755.4401 L 38.75868 750.33596 L 45.52852 752.4809 L 47.72852 757.585 Z "/>
<path transform="matrix(1,0,0,-1,49.898,825.40408)" stroke-width="1" stroke-linecap="butt" stroke-miterlimit="10" stroke-linejoin="miter" fill="none" stroke="#d415ff" d="M 94.9475 788.8758 L 92.7475 786.88308 L 99.51733 792.46469 L 101.71733 794.45748 Z "/>
<path transform="matrix(1,0,0,-1,49.898,825.40408)" stroke-width="1" stroke-linecap="butt" stroke-miterlimit="10" stroke-linejoin="miter" fill="none" stroke="#ba23ff" d="M 25.21901 747.51889 L 23.01901 740.3991 L 29.78885 741.5622 L 31.98885 748.68197 Z "/>
<path transform="matrix(1,0,0,-1,49.898,825.40408)" stroke-width="1" stroke-linecap="butt" stroke-miterlimit="10" stroke-linejoin="miter" fill="none" stroke="#cd19ff" d="M 79.20784 777.1928 L 77.00783 774.6521 L 83.77765 779.2518 L 85.97766 781.7925 Z "/>
<path transform="matrix(1,0,0,-1,49.898,825.40408)" stroke-width="1" stroke-linecap="butt" stroke-miterlimit="10" stroke-linejoin="miter" fill="none" stroke="#b425ff" d="M 9.47935 739.54586 L 7.27936 729.9213 L 14.04918 730.1025 L 16.24918 739.72708 Z "/>
<path transform="matrix(1,0,0,-1,49.898,825.40408)" stroke-width="1" stroke-linecap="butt" stroke-miterlimit="10" stroke-linejoin="miter" fill="none" stroke="#c71cff" d="M 63.46815 766.9256 L 61.26817 763.3478 L 68.03801 766.9656 L 70.23799 770.5434 Z "/>
<path transform="matrix(1,0,0,-1,49.898,825.40408)" stroke-width="1" stroke-linecap="butt" stroke-miterlimit="10" stroke-linejoin="miter" fill="none" stroke="#ea0aff" d="M 133.19664 825.99166 L 130.99665 823.627 L 137.76648 831.6634 L 139.96648 834.028 Z "/>
<path transform="matrix(1,0,0,-1,49.898,825.40408)" stroke-width="1" stroke-linecap="butt" stroke-miterlimit="10" stroke-linejoin="miter" fill="none" stroke="#af28ff" d="M -6.2603 731.0318 L -8.4603 718.41329 L -1.69046 717.61257 L .50952 730.2311 Z "/>
<path transform="matrix(1,0,0,-1,49.898,825.40408)" stroke-width="1" stroke-linecap="butt" stroke-miterlimit="10" stroke-linejoin="miter" fill="none" stroke="#e10fff" d="M 117.45699 809.0274 L 115.25699 807.0933 L 122.02682 814.14767 L 124.22682 816.0817 Z "/>
<path transform="matrix(1,0,0,-1,49.898,825.40408)" stroke-width="1" stroke-linecap="butt" stroke-miterlimit="10" stroke-linejoin="miter" fill="none" stroke="#c11fff" d="M 47.72852 757.585 L 45.52852 752.4809 L 52.29834 755.11679 L 54.49834 760.22097 Z "/>
<path transform="matrix(1,0,0,-1,49.898,825.40408)" stroke-width="1" stroke-linecap="butt" stroke-miterlimit="10" stroke-linejoin="miter" fill="none" stroke="#a82cff" d="M -21.99995 721.4875 L -24.19997 705.38577 L -17.43015 703.60317 L -15.23013 719.7049 Z "/>
<path transform="matrix(1,0,0,-1,49.898,825.40408)" stroke-width="1" stroke-linecap="butt" stroke-miterlimit="10" stroke-linejoin="miter" fill="none" stroke="#d814ff" d="M 101.71733 794.45748 L 99.51733 792.46469 L 106.28716 798.5372 L 108.48715 800.5299 Z "/>
<path transform="matrix(1,0,0,-1,49.898,825.40408)" stroke-width="1" stroke-linecap="butt" stroke-miterlimit="10" stroke-linejoin="miter" fill="none" stroke="#bb22ff" d="M 31.98885 748.68197 L 29.78885 741.5622 L 36.55869 743.2162 L 38.75868 750.33596 Z "/>
<path transform="matrix(1,0,0,-1,49.898,825.40408)" stroke-width="1" stroke-linecap="butt" stroke-miterlimit="10" stroke-linejoin="miter" fill="none" stroke="#d017ff" d="M 85.97766 781.7925 L 83.77765 779.2518 L 90.54749 784.34237 L 92.7475 786.88308 Z "/>
<path transform="matrix(1,0,0,-1,49.898,825.40408)" stroke-width="1" stroke-linecap="butt" stroke-miterlimit="10" stroke-linejoin="miter" fill="none" stroke="#b525ff" d="M 16.24918 739.72708 L 14.04918 730.1025 L 20.81902 730.77456 L 23.01901 740.3991 Z "/>
<path transform="matrix(1,0,0,-1,49.898,825.40408)" stroke-width="1" stroke-linecap="butt" stroke-miterlimit="10" stroke-linejoin="miter" fill="none" stroke="#ca1bff" d="M 70.23799 770.5434 L 68.03801 766.9656 L 74.80785 771.0743 L 77.00783 774.6521 Z "/>
<path transform="matrix(1,0,0,-1,49.898,825.40408)" stroke-width="1" stroke-linecap="butt" stroke-miterlimit="10" stroke-linejoin="miter" fill="none" stroke="#af28ff" d="M .50952 730.2311 L -1.69046 717.61257 L 5.07936 717.30276 L 7.27936 729.9213 Z "/>
<path transform="matrix(1,0,0,-1,49.898,825.40408)" stroke-width="1" stroke-linecap="butt" stroke-miterlimit="10" stroke-linejoin="miter" fill="none" stroke="#c31eff" d="M 54.49834 760.22097 L 52.29834 755.11679 L 59.06818 758.2436 L 61.26817 763.3478 Z "/>
<path transform="matrix(1,0,0,-1,49.898,825.40408)" stroke-width="1" stroke-linecap="butt" stroke-miterlimit="10" stroke-linejoin="miter" fill="none" stroke="#e50dff" d="M 124.22682 816.0817 L 122.02682 814.14767 L 128.79665 821.69296 L 130.99665 823.627 Z "/>
<path transform="matrix(1,0,0,-1,49.898,825.40408)" stroke-width="1" stroke-linecap="butt" stroke-miterlimit="10" stroke-linejoin="miter" fill="none" stroke="#a82cff" d="M -15.23013 719.7049 L -17.43015 703.60317 L -10.66031 702.31149 L -8.4603 718.41329 Z "/>
<path transform="matrix(1,0,0,-1,49.898,825.40408)" stroke-width="1" stroke-linecap="butt" stroke-miterlimit="10" stroke-linejoin="miter" fill="none" stroke="#dc12ff" d="M 108.48715 800.5299 L 106.28716 798.5372 L 113.05699 805.1006 L 115.25699 807.0933 Z "/>
<path transform="matrix(1,0,0,-1,49.898,825.40408)" stroke-width="1" stroke-linecap="butt" stroke-miterlimit="10" stroke-linejoin="miter" fill="none" stroke="#bd21ff" d="M 38.75868 750.33596 L 36.55869 743.2162 L 43.32852 745.36117 L 45.52852 752.4809 Z "/>
<path transform="matrix(1,0,0,-1,49.898,825.40408)" stroke-width="1" stroke-linecap="butt" stroke-miterlimit="10" stroke-linejoin="miter" fill="none" stroke="#d416ff" d="M 92.7475 786.88308 L 90.54749 784.34237 L 97.31732 789.92398 L 99.51733 792.46469 Z "/>
<path transform="matrix(1,0,0,-1,49.898,825.40408)" stroke-width="1" stroke-linecap="butt" stroke-miterlimit="10" stroke-linejoin="miter" fill="none" stroke="#b625ff" d="M 23.01901 740.3991 L 20.81902 730.77456 L 27.58885 731.9376 L 29.78885 741.5622 Z "/>
<path transform="matrix(1,0,0,-1,49.898,825.40408)" stroke-width="1" stroke-linecap="butt" stroke-miterlimit="10" stroke-linejoin="miter" fill="none" stroke="#cd19ff" d="M 77.00783 774.6521 L 74.80785 771.0743 L 81.57767 775.6739 L 83.77765 779.2518 Z "/>
<path transform="matrix(1,0,0,-1,49.898,825.40408)" stroke-width="1" stroke-linecap="butt" stroke-miterlimit="10" stroke-linejoin="miter" fill="none" stroke="#af28ff" d="M 7.27936 729.9213 L 5.07936 717.30276 L 11.84917 717.4839 L 14.04918 730.1025 Z "/>
<path transform="matrix(1,0,0,-1,49.898,825.40408)" stroke-width="1" stroke-linecap="butt" stroke-miterlimit="10" stroke-linejoin="miter" fill="none" stroke="#c51dff" d="M 61.26817 763.3478 L 59.06818 758.2436 L 65.83801 761.8614 L 68.03801 766.9656 Z "/>
<path transform="matrix(1,0,0,-1,49.898,825.40408)" stroke-width="1" stroke-linecap="butt" stroke-miterlimit="10" stroke-linejoin="miter" fill="none" stroke="#a72cff" d="M -8.4603 718.41329 L -10.66031 702.31149 L -3.89047 701.51077 L -1.69046 717.61257 Z "/>
<path transform="matrix(1,0,0,-1,49.898,825.40408)" stroke-width="1" stroke-linecap="butt" stroke-miterlimit="10" stroke-linejoin="miter" fill="none" stroke="#ea0aff" d="M 130.99665 823.627 L 128.79665 821.69296 L 135.56649 829.7293 L 137.76648 831.6634 Z "/>
<path transform="matrix(1,0,0,-1,49.898,825.40408)" stroke-width="1" stroke-linecap="butt" stroke-miterlimit="10" stroke-linejoin="miter" fill="none" stroke="#9f30ff" d="M -24.19997 705.38577 L -26.39995 685.3115 L -19.63013 683.52896 L -17.43015 703.60317 Z "/>
<path transform="matrix(1,0,0,-1,49.898,825.40408)" stroke-width="1" stroke-linecap="butt" stroke-miterlimit="10" stroke-linejoin="miter" fill="none" stroke="#bf20ff" d="M 45.52852 752.4809 L 43.32852 745.36117 L 50.09834 747.997 L 52.29834 755.11679 Z "/>
<path transform="matrix(1,0,0,-1,49.898,825.40408)" stroke-width="1" stroke-linecap="butt" stroke-miterlimit="10" stroke-linejoin="miter" fill="none" stroke="#e00fff" d="M 115.25699 807.0933 L 113.05699 805.1006 L 119.82681 812.1549 L 122.02682 814.14767 Z "/>
<path transform="matrix(1,0,0,-1,49.898,825.40408)" stroke-width="1" stroke-linecap="butt" stroke-miterlimit="10" stroke-linejoin="miter" fill="none" stroke="#b724ff" d="M 29.78885 741.5622 L 27.58885 731.9376 L 34.35869 733.5916 L 36.55869 743.2162 Z "/>
<path transform="matrix(1,0,0,-1,49.898,825.40408)" stroke-width="1" stroke-linecap="butt" stroke-miterlimit="10" stroke-linejoin="miter" fill="none" stroke="#d814ff" d="M 99.51733 792.46469 L 97.31732 789.92398 L 104.08714 795.99649 L 106.28716 798.5372 Z "/>
<path transform="matrix(1,0,0,-1,49.898,825.40408)" stroke-width="1" stroke-linecap="butt" stroke-miterlimit="10" stroke-linejoin="miter" fill="none" stroke="#b028ff" d="M 14.04918 730.1025 L 11.84917 717.4839 L 18.619 718.156 L 20.81902 730.77456 Z "/>
<path transform="matrix(1,0,0,-1,49.898,825.40408)" stroke-width="1" stroke-linecap="butt" stroke-miterlimit="10" stroke-linejoin="miter" fill="none" stroke="#d018ff" d="M 83.77765 779.2518 L 81.57767 775.6739 L 88.3475 780.76449 L 90.54749 784.34237 Z "/>
<path transform="matrix(1,0,0,-1,49.898,825.40408)" stroke-width="1" stroke-linecap="butt" stroke-miterlimit="10" stroke-linejoin="miter" fill="none" stroke="#a82cff" d="M -1.69046 717.61257 L -3.89047 701.51077 L 2.87935 701.201 L 5.07936 717.30276 Z "/>
<path transform="matrix(1,0,0,-1,49.898,825.40408)" stroke-width="1" stroke-linecap="butt" stroke-miterlimit="10" stroke-linejoin="miter" fill="none" stroke="#c81cff" d="M 68.03801 766.9656 L 65.83801 761.8614 L 72.60785 765.97006 L 74.80785 771.0743 Z "/>
<path transform="matrix(1,0,0,-1,49.898,825.40408)" stroke-width="1" stroke-linecap="butt" stroke-miterlimit="10" stroke-linejoin="miter" fill="none" stroke="#9e31ff" d="M -17.43015 703.60317 L -19.63013 683.52896 L -12.86029 682.23727 L -10.66031 702.31149 Z "/>
<path transform="matrix(1,0,0,-1,49.898,825.40408)" stroke-width="1" stroke-linecap="butt" stroke-miterlimit="10" stroke-linejoin="miter" fill="none" stroke="#c11fff" d="M 52.29834 755.11679 L 50.09834 747.997 L 56.86818 751.12387 L 59.06818 758.2436 Z "/>
<path transform="matrix(1,0,0,-1,49.898,825.40408)" stroke-width="1" stroke-linecap="butt" stroke-miterlimit="10" stroke-linejoin="miter" fill="none" stroke="#e50dff" d="M 122.02682 814.14767 L 119.82681 812.1549 L 126.59663 819.7002 L 128.79665 821.69296 Z "/>
<path transform="matrix(1,0,0,-1,49.898,825.40408)" stroke-width="1" stroke-linecap="butt" stroke-miterlimit="10" stroke-linejoin="miter" fill="none" stroke="#b923ff" d="M 36.55869 743.2162 L 34.35869 733.5916 L 41.12852 735.7366 L 43.32852 745.36117 Z "/>
<path transform="matrix(1,0,0,-1,49.898,825.40408)" stroke-width="1" stroke-linecap="butt" stroke-miterlimit="10" stroke-linejoin="miter" fill="none" stroke="#dc12ff" d="M 106.28716 798.5372 L 104.08714 795.99649 L 110.85698 802.5598 L 113.05699 805.1006 Z "/>
<path transform="matrix(1,0,0,-1,49.898,825.40408)" stroke-width="1" stroke-linecap="butt" stroke-miterlimit="10" stroke-linejoin="miter" fill="none" stroke="#b127ff" d="M 20.81902 730.77456 L 18.619 718.156 L 25.38884 719.3191 L 27.58885 731.9376 Z "/>
<path transform="matrix(1,0,0,-1,49.898,825.40408)" stroke-width="1" stroke-linecap="butt" stroke-miterlimit="10" stroke-linejoin="miter" fill="none" stroke="#d316ff" d="M 90.54749 784.34237 L 88.3475 780.76449 L 95.11734 786.3461 L 97.31732 789.92398 Z "/>
<path transform="matrix(1,0,0,-1,49.898,825.40408)" stroke-width="1" stroke-linecap="butt" stroke-miterlimit="10" stroke-linejoin="miter" fill="none" stroke="#a82cff" d="M 5.07936 717.30276 L 2.87935 701.201 L 9.64917 701.38217 L 11.84917 717.4839 Z "/>
<path transform="matrix(1,0,0,-1,49.898,825.40408)" stroke-width="1" stroke-linecap="butt" stroke-miterlimit="10" stroke-linejoin="miter" fill="none" stroke="#cb1aff" d="M 74.80785 771.0743 L 72.60785 765.97006 L 79.37767 770.5697 L 81.57767 775.6739 Z "/>
<path transform="matrix(1,0,0,-1,49.898,825.40408)" stroke-width="1" stroke-linecap="butt" stroke-miterlimit="10" stroke-linejoin="miter" fill="none" stroke="#9e31ff" d="M -10.66031 702.31149 L -12.86029 682.23727 L -6.09045 681.4365 L -3.89047 701.51077 Z "/>
<path transform="matrix(1,0,0,-1,49.898,825.40408)" stroke-width="1" stroke-linecap="butt" stroke-miterlimit="10" stroke-linejoin="miter" fill="none" stroke="#c31eff" d="M 59.06818 758.2436 L 56.86818 751.12387 L 63.63802 754.74166 L 65.83801 761.8614 Z "/>
<path transform="matrix(1,0,0,-1,49.898,825.40408)" stroke-width="1" stroke-linecap="butt" stroke-miterlimit="10" stroke-linejoin="miter" fill="none" stroke="#9336ff" d="M -26.39995 685.3115 L -28.59995 660.77578 L -21.83012 658.99319 L -19.63013 683.52896 Z "/>
<path transform="matrix(1,0,0,-1,49.898,825.40408)" stroke-width="1" stroke-linecap="butt" stroke-miterlimit="10" stroke-linejoin="miter" fill="none" stroke="#ea0bff" d="M 128.79665 821.69296 L 126.59663 819.7002 L 133.36647 827.7366 L 135.56649 829.7293 Z "/>
<path transform="matrix(1,0,0,-1,49.898,825.40408)" stroke-width="1" stroke-linecap="butt" stroke-miterlimit="10" stroke-linejoin="miter" fill="none" stroke="#bb22ff" d="M 43.32852 745.36117 L 41.12852 735.7366 L 47.89835 738.37246 L 50.09834 747.997 Z "/>
<path transform="matrix(1,0,0,-1,49.898,825.40408)" stroke-width="1" stroke-linecap="butt" stroke-miterlimit="10" stroke-linejoin="miter" fill="none" stroke="#e00fff" d="M 113.05699 805.1006 L 110.85698 802.5598 L 117.62682 809.6142 L 119.82681 812.1549 Z "/>
<path transform="matrix(1,0,0,-1,49.898,825.40408)" stroke-width="1" stroke-linecap="butt" stroke-miterlimit="10" stroke-linejoin="miter" fill="none" stroke="#b227ff" d="M 27.58885 731.9376 L 25.38884 719.3191 L 32.15868 720.9731 L 34.35869 733.5916 Z "/>
<path transform="matrix(1,0,0,-1,49.898,825.40408)" stroke-width="1" stroke-linecap="butt" stroke-miterlimit="10" stroke-linejoin="miter" fill="none" stroke="#d714ff" d="M 97.31732 789.92398 L 95.11734 786.3461 L 101.88716 792.4186 L 104.08714 795.99649 Z "/>
<path transform="matrix(1,0,0,-1,49.898,825.40408)" stroke-width="1" stroke-linecap="butt" stroke-miterlimit="10" stroke-linejoin="miter" fill="none" stroke="#a92bff" d="M 11.84917 717.4839 L 9.64917 701.38217 L 16.419 702.05429 L 18.619 718.156 Z "/>
<path transform="matrix(1,0,0,-1,49.898,825.40408)" stroke-width="1" stroke-linecap="butt" stroke-miterlimit="10" stroke-linejoin="miter" fill="none" stroke="#ce18ff" d="M 81.57767 775.6739 L 79.37767 770.5697 L 86.1475 775.66036 L 88.3475 780.76449 Z "/>
<path transform="matrix(1,0,0,-1,49.898,825.40408)" stroke-width="1" stroke-linecap="butt" stroke-miterlimit="10" stroke-linejoin="miter" fill="none" stroke="#9e31ff" d="M -3.89047 701.51077 L -6.09045 681.4365 L .67937 681.1268 L 2.87935 701.201 Z "/>
<path transform="matrix(1,0,0,-1,49.898,825.40408)" stroke-width="1" stroke-linecap="butt" stroke-miterlimit="10" stroke-linejoin="miter" fill="none" stroke="#9236ff" d="M -19.63013 683.52896 L -21.83012 658.99319 L -15.06029 657.7015 L -12.86029 682.23727 Z "/>
<path transform="matrix(1,0,0,-1,49.898,825.40408)" stroke-width="1" stroke-linecap="butt" stroke-miterlimit="10" stroke-linejoin="miter" fill="none" stroke="#c61dff" d="M 65.83801 761.8614 L 63.63802 754.74166 L 70.40785 758.85037 L 72.60785 765.97006 Z "/>
<path transform="matrix(1,0,0,-1,49.898,825.40408)" stroke-width="1" stroke-linecap="butt" stroke-miterlimit="10" stroke-linejoin="miter" fill="none" stroke="#bd21ff" d="M 50.09834 747.997 L 47.89835 738.37246 L 54.66818 741.4993 L 56.86818 751.12387 Z "/>
<path transform="matrix(1,0,0,-1,49.898,825.40408)" stroke-width="1" stroke-linecap="butt" stroke-miterlimit="10" stroke-linejoin="miter" fill="none" stroke="#e50dff" d="M 119.82681 812.1549 L 117.62682 809.6142 L 124.39664 817.1594 L 126.59663 819.7002 Z "/>
<path transform="matrix(1,0,0,-1,49.898,825.40408)" stroke-width="1" stroke-linecap="butt" stroke-miterlimit="10" stroke-linejoin="miter" fill="none" stroke="#b426ff" d="M 34.35869 733.5916 L 32.15868 720.9731 L 38.92851 723.11807 L 41.12852 735.7366 Z "/>
<path transform="matrix(1,0,0,-1,49.898,825.40408)" stroke-width="1" stroke-linecap="butt" stroke-miterlimit="10" stroke-linejoin="miter" fill="none" stroke="#aa2bff" d="M 18.619 718.156 L 16.419 702.05429 L 23.18884 703.21737 L 25.38884 719.3191 Z "/>
<path transform="matrix(1,0,0,-1,49.898,825.40408)" stroke-width="1" stroke-linecap="butt" stroke-miterlimit="10" stroke-linejoin="miter" fill="none" stroke="#db12ff" d="M 104.08714 795.99649 L 101.88716 792.4186 L 108.657 798.982 L 110.85698 802.5598 Z "/>
<path transform="matrix(1,0,0,-1,49.898,825.40408)" stroke-width="1" stroke-linecap="butt" stroke-miterlimit="10" stroke-linejoin="miter" fill="none" stroke="#9f30ff" d="M 2.87935 701.201 L .67937 681.1268 L 7.44919 681.3079 L 9.64917 701.38217 Z "/>
<path transform="matrix(1,0,0,-1,49.898,825.40408)" stroke-width="1" stroke-linecap="butt" stroke-miterlimit="10" stroke-linejoin="miter" fill="none" stroke="#d217ff" d="M 88.3475 780.76449 L 86.1475 775.66036 L 92.91734 781.2419 L 95.11734 786.3461 Z "/>
<path transform="matrix(1,0,0,-1,49.898,825.40408)" stroke-width="1" stroke-linecap="butt" stroke-miterlimit="10" stroke-linejoin="miter" fill="none" stroke="#9237ff" d="M -12.86029 682.23727 L -15.06029 657.7015 L -8.29045 656.90078 L -6.09045 681.4365 Z "/>
<path transform="matrix(1,0,0,-1,49.898,825.40408)" stroke-width="1" stroke-linecap="butt" stroke-miterlimit="10" stroke-linejoin="miter" fill="none" stroke="#843eff" d="M -28.59995 660.77578 L -30.79994 631.28909 L -24.03012 629.50656 L -21.83012 658.99319 Z "/>
<path transform="matrix(1,0,0,-1,49.898,825.40408)" stroke-width="1" stroke-linecap="butt" stroke-miterlimit="10" stroke-linejoin="miter" fill="none" stroke="#c91bff" d="M 72.60785 765.97006 L 70.40785 758.85037 L 77.17767 763.44998 L 79.37767 770.5697 Z "/>
<path transform="matrix(1,0,0,-1,49.898,825.40408)" stroke-width="1" stroke-linecap="butt" stroke-miterlimit="10" stroke-linejoin="miter" fill="none" stroke="#bf20ff" d="M 56.86818 751.12387 L 54.66818 741.4993 L 61.43802 745.11709 L 63.63802 754.74166 Z "/>
<path transform="matrix(1,0,0,-1,49.898,825.40408)" stroke-width="1" stroke-linecap="butt" stroke-miterlimit="10" stroke-linejoin="miter" fill="none" stroke="#b525ff" d="M 41.12852 735.7366 L 38.92851 723.11807 L 45.69833 725.7539 L 47.89835 738.37246 Z "/>
<path transform="matrix(1,0,0,-1,49.898,825.40408)" stroke-width="1" stroke-linecap="butt" stroke-miterlimit="10" stroke-linejoin="miter" fill="none" stroke="#ea0bff" d="M 126.59663 819.7002 L 124.39664 817.1594 L 131.16648 825.19589 L 133.36647 827.7366 Z "/>
<path transform="matrix(1,0,0,-1,49.898,825.40408)" stroke-width="1" stroke-linecap="butt" stroke-miterlimit="10" stroke-linejoin="miter" fill="none" stroke="#ab2aff" d="M 25.38884 719.3191 L 23.18884 703.21737 L 29.95868 704.87136 L 32.15868 720.9731 Z "/>
<path transform="matrix(1,0,0,-1,49.898,825.40408)" stroke-width="1" stroke-linecap="butt" stroke-miterlimit="10" stroke-linejoin="miter" fill="none" stroke="#e010ff" d="M 110.85698 802.5598 L 108.657 798.982 L 115.42683 806.0363 L 117.62682 809.6142 Z "/>
<path transform="matrix(1,0,0,-1,49.898,825.40408)" stroke-width="1" stroke-linecap="butt" stroke-miterlimit="10" stroke-linejoin="miter" fill="none" stroke="#9f30ff" d="M 9.64917 701.38217 L 7.44919 681.3079 L 14.21902 681.98007 L 16.419 702.05429 Z "/>
<path transform="matrix(1,0,0,-1,49.898,825.40408)" stroke-width="1" stroke-linecap="butt" stroke-miterlimit="10" stroke-linejoin="miter" fill="none" stroke="#9237ff" d="M -6.09045 681.4365 L -8.29045 656.90078 L -1.52061 656.591 L .67937 681.1268 Z "/>
<path transform="matrix(1,0,0,-1,49.898,825.40408)" stroke-width="1" stroke-linecap="butt" stroke-miterlimit="10" stroke-linejoin="miter" fill="none" stroke="#d615ff" d="M 95.11734 786.3461 L 92.91734 781.2419 L 99.68716 787.3144 L 101.88716 792.4186 Z "/>
<path transform="matrix(1,0,0,-1,49.898,825.40408)" stroke-width="1" stroke-linecap="butt" stroke-miterlimit="10" stroke-linejoin="miter" fill="none" stroke="#cc1aff" d="M 79.37767 770.5697 L 77.17767 763.44998 L 83.94751 768.5406 L 86.1475 775.66036 Z "/>
<path transform="matrix(1,0,0,-1,49.898,825.40408)" stroke-width="1" stroke-linecap="butt" stroke-miterlimit="10" stroke-linejoin="miter" fill="none" stroke="#c21fff" d="M 63.63802 754.74166 L 61.43802 745.11709 L 68.20786 749.22579 L 70.40785 758.85037 Z "/>
<path transform="matrix(1,0,0,-1,49.898,825.40408)" stroke-width="1" stroke-linecap="butt" stroke-miterlimit="10" stroke-linejoin="miter" fill="none" stroke="#b824ff" d="M 47.89835 738.37246 L 45.69833 725.7539 L 52.46817 728.88076 L 54.66818 741.4993 Z "/>
<path transform="matrix(1,0,0,-1,49.898,825.40408)" stroke-width="1" stroke-linecap="butt" stroke-miterlimit="10" stroke-linejoin="miter" fill="none" stroke="#ef08ff" d="M 133.36647 827.7366 L 131.16648 825.19589 L 137.9363 833.723 L 140.13629 836.26376 Z "/>
<path transform="matrix(1,0,0,-1,49.898,825.40408)" stroke-width="1" stroke-linecap="butt" stroke-miterlimit="10" stroke-linejoin="miter" fill="none" stroke="#ac29ff" d="M 32.15868 720.9731 L 29.95868 704.87136 L 36.72852 707.0163 L 38.92851 723.11807 Z "/>
<path transform="matrix(1,0,0,-1,49.898,825.40408)" stroke-width="1" stroke-linecap="butt" stroke-miterlimit="10" stroke-linejoin="miter" fill="none" stroke="#a030ff" d="M 16.419 702.05429 L 14.21902 681.98007 L 20.98886 683.1431 L 23.18884 703.21737 Z "/>
<path transform="matrix(1,0,0,-1,49.898,825.40408)" stroke-width="1" stroke-linecap="butt" stroke-miterlimit="10" stroke-linejoin="miter" fill="none" stroke="#e40dff" d="M 117.62682 809.6142 L 115.42683 806.0363 L 122.19666 813.5816 L 124.39664 817.1594 Z "/>
<path transform="matrix(1,0,0,-1,49.898,825.40408)" stroke-width="1" stroke-linecap="butt" stroke-miterlimit="10" stroke-linejoin="miter" fill="none" stroke="#9336ff" d="M .67937 681.1268 L -1.52061 656.591 L 5.24919 656.77218 L 7.44919 681.3079 Z "/>
<path transform="matrix(1,0,0,-1,49.898,825.40408)" stroke-width="1" stroke-linecap="butt" stroke-miterlimit="10" stroke-linejoin="miter" fill="none" stroke="#da13ff" d="M 101.88716 792.4186 L 99.68716 787.3144 L 106.457 793.8778 L 108.657 798.982 Z "/>
<path transform="matrix(1,0,0,-1,49.898,825.40408)" stroke-width="1" stroke-linecap="butt" stroke-miterlimit="10" stroke-linejoin="miter" fill="none" stroke="#cf18ff" d="M 86.1475 775.66036 L 83.94751 768.5406 L 90.71735 774.1222 L 92.91734 781.2419 Z "/>
<path transform="matrix(1,0,0,-1,49.898,825.40408)" stroke-width="1" stroke-linecap="butt" stroke-miterlimit="10" stroke-linejoin="miter" fill="none" stroke="#c51dff" d="M 70.40785 758.85037 L 68.20786 749.22579 L 74.97768 753.82546 L 77.17767 763.44998 Z "/>
<path transform="matrix(1,0,0,-1,49.898,825.40408)" stroke-width="1" stroke-linecap="butt" stroke-miterlimit="10" stroke-linejoin="miter" fill="none" stroke="#ba23ff" d="M 54.66818 741.4993 L 52.46817 728.88076 L 59.238 732.49856 L 61.43802 745.11709 Z "/>
<path transform="matrix(1,0,0,-1,49.898,825.40408)" stroke-width="1" stroke-linecap="butt" stroke-miterlimit="10" stroke-linejoin="miter" fill="none" stroke="#ae29ff" d="M 38.92851 723.11807 L 36.72852 707.0163 L 43.49834 709.65219 L 45.69833 725.7539 Z "/>
<path transform="matrix(1,0,0,-1,49.898,825.40408)" stroke-width="1" stroke-linecap="butt" stroke-miterlimit="10" stroke-linejoin="miter" fill="none" stroke="#a22fff" d="M 23.18884 703.21737 L 20.98886 683.1431 L 27.7587 684.7971 L 29.95868 704.87136 Z "/>
<path transform="matrix(1,0,0,-1,49.898,825.40408)" stroke-width="1" stroke-linecap="butt" stroke-miterlimit="10" stroke-linejoin="miter" fill="none" stroke="#9336ff" d="M 7.44919 681.3079 L 5.24919 656.77218 L 12.01903 657.4443 L 14.21902 681.98007 Z "/>
<path transform="matrix(1,0,0,-1,49.898,825.40408)" stroke-width="1" stroke-linecap="butt" stroke-miterlimit="10" stroke-linejoin="miter" fill="none" stroke="#e90bff" d="M 124.39664 817.1594 L 122.19666 813.5816 L 128.96649 821.618 L 131.16648 825.19589 Z "/>
<path transform="matrix(1,0,0,-1,49.898,825.40408)" stroke-width="1" stroke-linecap="butt" stroke-miterlimit="10" stroke-linejoin="miter" fill="none" stroke="#de10ff" d="M 108.657 798.982 L 106.457 793.8778 L 113.22684 800.9321 L 115.42683 806.0363 Z "/>
<path transform="matrix(1,0,0,-1,49.898,825.40408)" stroke-width="1" stroke-linecap="butt" stroke-miterlimit="10" stroke-linejoin="miter" fill="none" stroke="#d316ff" d="M 92.91734 781.2419 L 90.71735 774.1222 L 97.48717 780.19467 L 99.68716 787.3144 Z "/>
<path transform="matrix(1,0,0,-1,49.898,825.40408)" stroke-width="1" stroke-linecap="butt" stroke-miterlimit="10" stroke-linejoin="miter" fill="none" stroke="#c81cff" d="M 77.17767 763.44998 L 74.97768 753.82546 L 81.74751 758.916 L 83.94751 768.5406 Z "/>
<path transform="matrix(1,0,0,-1,49.898,825.40408)" stroke-width="1" stroke-linecap="butt" stroke-miterlimit="10" stroke-linejoin="miter" fill="none" stroke="#bd21ff" d="M 61.43802 745.11709 L 59.238 732.49856 L 66.00784 736.60726 L 68.20786 749.22579 Z "/>
<path transform="matrix(1,0,0,-1,49.898,825.40408)" stroke-width="1" stroke-linecap="butt" stroke-miterlimit="10" stroke-linejoin="miter" fill="none" stroke="#b027ff" d="M 45.69833 725.7539 L 43.49834 709.65219 L 50.26817 712.779 L 52.46817 728.88076 Z "/>
<path transform="matrix(1,0,0,-1,49.898,825.40408)" stroke-width="1" stroke-linecap="butt" stroke-miterlimit="10" stroke-linejoin="miter" fill="none" stroke="#a32eff" d="M 29.95868 704.87136 L 27.7587 684.7971 L 34.52853 686.9421 L 36.72852 707.0163 Z "/>
<path transform="matrix(1,0,0,-1,49.898,825.40408)" stroke-width="1" stroke-linecap="butt" stroke-miterlimit="10" stroke-linejoin="miter" fill="none" stroke="#9435ff" d="M 14.21902 681.98007 L 12.01903 657.4443 L 18.78886 658.60739 L 20.98886 683.1431 Z "/>
<path transform="matrix(1,0,0,-1,49.898,825.40408)" stroke-width="1" stroke-linecap="butt" stroke-miterlimit="10" stroke-linejoin="miter" fill="none" stroke="#ee08ff" d="M 131.16648 825.19589 L 128.96649 821.618 L 135.73632 830.14517 L 137.9363 833.723 Z "/>
<path transform="matrix(1,0,0,-1,49.898,825.40408)" stroke-width="1" stroke-linecap="butt" stroke-miterlimit="10" stroke-linejoin="miter" fill="none" stroke="#e30eff" d="M 115.42683 806.0363 L 113.22684 800.9321 L 119.99666 808.4774 L 122.19666 813.5816 Z "/>
<path transform="matrix(1,0,0,-1,49.898,825.40408)" stroke-width="1" stroke-linecap="butt" stroke-miterlimit="10" stroke-linejoin="miter" fill="none" stroke="#d714ff" d="M 99.68716 787.3144 L 97.48717 780.19467 L 104.257 786.75808 L 106.457 793.8778 Z "/>
<path transform="matrix(1,0,0,-1,49.898,825.40408)" stroke-width="1" stroke-linecap="butt" stroke-miterlimit="10" stroke-linejoin="miter" fill="none" stroke="#cc1aff" d="M 83.94751 768.5406 L 81.74751 758.916 L 88.51735 764.4976 L 90.71735 774.1222 Z "/>
<path transform="matrix(1,0,0,-1,49.898,825.40408)" stroke-width="1" stroke-linecap="butt" stroke-miterlimit="10" stroke-linejoin="miter" fill="none" stroke="#c020ff" d="M 68.20786 749.22579 L 66.00784 736.60726 L 72.77766 741.2069 L 74.97768 753.82546 Z "/>
<path transform="matrix(1,0,0,-1,49.898,825.40408)" stroke-width="1" stroke-linecap="butt" stroke-miterlimit="10" stroke-linejoin="miter" fill="none" stroke="#b326ff" d="M 52.46817 728.88076 L 50.26817 712.779 L 57.03801 716.3968 L 59.238 732.49856 Z "/>
<path transform="matrix(1,0,0,-1,49.898,825.40408)" stroke-width="1" stroke-linecap="butt" stroke-miterlimit="10" stroke-linejoin="miter" fill="none" stroke="#a52dff" d="M 36.72852 707.0163 L 34.52853 686.9421 L 41.29836 689.57797 L 43.49834 709.65219 Z "/>
<path transform="matrix(1,0,0,-1,49.898,825.40408)" stroke-width="1" stroke-linecap="butt" stroke-miterlimit="10" stroke-linejoin="miter" fill="none" stroke="#9635ff" d="M 20.98886 683.1431 L 18.78886 658.60739 L 25.5587 660.26138 L 27.7587 684.7971 Z "/>
<path transform="matrix(1,0,0,-1,49.898,825.40408)" stroke-width="1" stroke-linecap="butt" stroke-miterlimit="10" stroke-linejoin="miter" fill="none" stroke="#e80cff" d="M 122.19666 813.5816 L 119.99666 808.4774 L 126.7665 816.5138 L 128.96649 821.618 Z "/>
<path transform="matrix(1,0,0,-1,49.898,825.40408)" stroke-width="1" stroke-linecap="butt" stroke-miterlimit="10" stroke-linejoin="miter" fill="none" stroke="#dc12ff" d="M 106.457 793.8778 L 104.257 786.75808 L 111.02684 793.8124 L 113.22684 800.9321 Z "/>
<path transform="matrix(1,0,0,-1,49.898,825.40408)" stroke-width="1" stroke-linecap="butt" stroke-miterlimit="10" stroke-linejoin="miter" fill="none" stroke="#cf18ff" d="M 90.71735 774.1222 L 88.51735 764.4976 L 95.28717 770.5701 L 97.48717 780.19467 Z "/>
<path transform="matrix(1,0,0,-1,49.898,825.40408)" stroke-width="1" stroke-linecap="butt" stroke-miterlimit="10" stroke-linejoin="miter" fill="none" stroke="#c31eff" d="M 74.97768 753.82546 L 72.77766 741.2069 L 79.5475 746.2975 L 81.74751 758.916 Z "/>
<path transform="matrix(1,0,0,-1,49.898,825.40408)" stroke-width="1" stroke-linecap="butt" stroke-miterlimit="10" stroke-linejoin="miter" fill="none" stroke="#b525ff" d="M 59.238 732.49856 L 57.03801 716.3968 L 63.80785 720.50546 L 66.00784 736.60726 Z "/>
<path transform="matrix(1,0,0,-1,49.898,825.40408)" stroke-width="1" stroke-linecap="butt" stroke-miterlimit="10" stroke-linejoin="miter" fill="none" stroke="#a72cff" d="M 43.49834 709.65219 L 41.29836 689.57797 L 48.06819 692.7048 L 50.26817 712.779 Z "/>
<path transform="matrix(1,0,0,-1,49.898,825.40408)" stroke-width="1" stroke-linecap="butt" stroke-miterlimit="10" stroke-linejoin="miter" fill="none" stroke="#9734ff" d="M 27.7587 684.7971 L 25.5587 660.26138 L 32.32854 662.40628 L 34.52853 686.9421 Z "/>
<path transform="matrix(1,0,0,-1,49.898,825.40408)" stroke-width="1" stroke-linecap="butt" stroke-miterlimit="10" stroke-linejoin="miter" fill="none" stroke="#ed09ff" d="M 128.96649 821.618 L 126.7665 816.5138 L 133.53632 825.041 L 135.73632 830.14517 Z "/>
<path transform="matrix(1,0,0,-1,49.898,825.40408)" stroke-width="1" stroke-linecap="butt" stroke-miterlimit="10" stroke-linejoin="miter" fill="none" stroke="#e00fff" d="M 113.22684 800.9321 L 111.02684 793.8124 L 117.79666 801.3577 L 119.99666 808.4774 Z "/>
<path transform="matrix(1,0,0,-1,49.898,825.40408)" stroke-width="1" stroke-linecap="butt" stroke-miterlimit="10" stroke-linejoin="miter" fill="none" stroke="#d416ff" d="M 97.48717 780.19467 L 95.28717 770.5701 L 102.057 777.1335 L 104.257 786.75808 Z "/>
<path transform="matrix(1,0,0,-1,49.898,825.40408)" stroke-width="1" stroke-linecap="butt" stroke-miterlimit="10" stroke-linejoin="miter" fill="none" stroke="#c61cff" d="M 81.74751 758.916 L 79.5475 746.2975 L 86.31734 751.8791 L 88.51735 764.4976 Z "/>
<path transform="matrix(1,0,0,-1,49.898,825.40408)" stroke-width="1" stroke-linecap="butt" stroke-miterlimit="10" stroke-linejoin="miter" fill="none" stroke="#b823ff" d="M 66.00784 736.60726 L 63.80785 720.50546 L 70.57767 725.1051 L 72.77766 741.2069 Z "/>
<path transform="matrix(1,0,0,-1,49.898,825.40408)" stroke-width="1" stroke-linecap="butt" stroke-miterlimit="10" stroke-linejoin="miter" fill="none" stroke="#a92bff" d="M 50.26817 712.779 L 48.06819 692.7048 L 54.83803 696.3226 L 57.03801 716.3968 Z "/>
<path transform="matrix(1,0,0,-1,49.898,825.40408)" stroke-width="1" stroke-linecap="butt" stroke-miterlimit="10" stroke-linejoin="miter" fill="none" stroke="#873cff" d="M 18.78886 658.60739 L 16.58887 629.12069 L 23.3587 630.7747 L 25.5587 660.26138 Z "/>
<path transform="matrix(1,0,0,-1,49.898,825.40408)" stroke-width="1" stroke-linecap="butt" stroke-miterlimit="10" stroke-linejoin="miter" fill="none" stroke="#9933ff" d="M 34.52853 686.9421 L 32.32854 662.40628 L 39.09836 665.0422 L 41.29836 689.57797 Z "/>
<path transform="matrix(1,0,0,-1,49.898,825.40408)" stroke-width="1" stroke-linecap="butt" stroke-miterlimit="10" stroke-linejoin="miter" fill="none" stroke="#f206ff" d="M 135.73632 830.14517 L 133.53632 825.041 L 140.30615 834.05917 L 142.50615 839.16329 Z "/>
<path transform="matrix(1,0,0,-1,49.898,825.40408)" stroke-width="1" stroke-linecap="butt" stroke-miterlimit="10" stroke-linejoin="miter" fill="none" stroke="#e50dff" d="M 119.99666 808.4774 L 117.79666 801.3577 L 124.5665 809.39407 L 126.7665 816.5138 Z "/>
<path transform="matrix(1,0,0,-1,49.898,825.40408)" stroke-width="1" stroke-linecap="butt" stroke-miterlimit="10" stroke-linejoin="miter" fill="none" stroke="#d814ff" d="M 104.257 786.75808 L 102.057 777.1335 L 108.82684 784.18789 L 111.02684 793.8124 Z "/>
<path transform="matrix(1,0,0,-1,49.898,825.40408)" stroke-width="1" stroke-linecap="butt" stroke-miterlimit="10" stroke-linejoin="miter" fill="none" stroke="#ca1bff" d="M 88.51735 764.4976 L 86.31734 751.8791 L 93.08716 757.95156 L 95.28717 770.5701 Z "/>
<path transform="matrix(1,0,0,-1,49.898,825.40408)" stroke-width="1" stroke-linecap="butt" stroke-miterlimit="10" stroke-linejoin="miter" fill="none" stroke="#bc22ff" d="M 72.77766 741.2069 L 70.57767 725.1051 L 77.3475 730.1957 L 79.5475 746.2975 Z "/>
<path transform="matrix(1,0,0,-1,49.898,825.40408)" stroke-width="1" stroke-linecap="butt" stroke-miterlimit="10" stroke-linejoin="miter" fill="none" stroke="#ac2aff" d="M 57.03801 716.3968 L 54.83803 696.3226 L 61.60786 700.4313 L 63.80785 720.50546 Z "/>
<path transform="matrix(1,0,0,-1,49.898,825.40408)" stroke-width="1" stroke-linecap="butt" stroke-miterlimit="10" stroke-linejoin="miter" fill="none" stroke="#893bff" d="M 25.5587 660.26138 L 23.3587 630.7747 L 30.12854 632.9196 L 32.32854 662.40628 Z "/>
<path transform="matrix(1,0,0,-1,49.898,825.40408)" stroke-width="1" stroke-linecap="butt" stroke-miterlimit="10" stroke-linejoin="miter" fill="none" stroke="#9b32ff" d="M 41.29836 689.57797 L 39.09836 665.0422 L 45.8682 668.169 L 48.06819 692.7048 Z "/>
<path transform="matrix(1,0,0,-1,49.898,825.40408)" stroke-width="1" stroke-linecap="butt" stroke-miterlimit="10" stroke-linejoin="miter" fill="none" stroke="#eb0aff" d="M 126.7665 816.5138 L 124.5665 809.39407 L 131.33632 817.9212 L 133.53632 825.041 Z "/>
<path transform="matrix(1,0,0,-1,49.898,825.40408)" stroke-width="1" stroke-linecap="butt" stroke-miterlimit="10" stroke-linejoin="miter" fill="none" stroke="#dd11ff" d="M 111.02684 793.8124 L 108.82684 784.18789 L 115.59666 791.73318 L 117.79666 801.3577 Z "/>
<path transform="matrix(1,0,0,-1,49.898,825.40408)" stroke-width="1" stroke-linecap="butt" stroke-miterlimit="10" stroke-linejoin="miter" fill="none" stroke="#ce18ff" d="M 95.28717 770.5701 L 93.08716 757.95156 L 99.857 764.51498 L 102.057 777.1335 Z "/>
<path transform="matrix(1,0,0,-1,49.898,825.40408)" stroke-width="1" stroke-linecap="butt" stroke-miterlimit="10" stroke-linejoin="miter" fill="none" stroke="#bf20ff" d="M 79.5475 746.2975 L 77.3475 730.1957 L 84.11734 735.7773 L 86.31734 751.8791 Z "/>
<path transform="matrix(1,0,0,-1,49.898,825.40408)" stroke-width="1" stroke-linecap="butt" stroke-miterlimit="10" stroke-linejoin="miter" fill="none" stroke="#8b3aff" d="M 32.32854 662.40628 L 30.12854 632.9196 L 36.89836 635.5555 L 39.09836 665.0422 Z "/>
<path transform="matrix(1,0,0,-1,49.898,825.40408)" stroke-width="1" stroke-linecap="butt" stroke-miterlimit="10" stroke-linejoin="miter" fill="none" stroke="#af28ff" d="M 63.80785 720.50546 L 61.60786 700.4313 L 68.37769 705.0309 L 70.57767 725.1051 Z "/>
<path transform="matrix(1,0,0,-1,49.898,825.40408)" stroke-width="1" stroke-linecap="butt" stroke-miterlimit="10" stroke-linejoin="miter" fill="none" stroke="#9e31ff" d="M 48.06819 692.7048 L 45.8682 668.169 L 52.63803 671.7868 L 54.83803 696.3226 Z "/>
<path transform="matrix(1,0,0,-1,49.898,825.40408)" stroke-width="1" stroke-linecap="butt" stroke-miterlimit="10" stroke-linejoin="miter" fill="none" stroke="#f008ff" d="M 133.53632 825.041 L 131.33632 817.9212 L 138.10616 826.9394 L 140.30615 834.05917 Z "/>
<path transform="matrix(1,0,0,-1,49.898,825.40408)" stroke-width="1" stroke-linecap="butt" stroke-miterlimit="10" stroke-linejoin="miter" fill="none" stroke="#e20fff" d="M 117.79666 801.3577 L 115.59666 791.73318 L 122.36649 799.76956 L 124.5665 809.39407 Z "/>
<path transform="matrix(1,0,0,-1,49.898,825.40408)" stroke-width="1" stroke-linecap="butt" stroke-miterlimit="10" stroke-linejoin="miter" fill="none" stroke="#d316ff" d="M 102.057 777.1335 L 99.857 764.51498 L 106.62683 771.5693 L 108.82684 784.18789 Z "/>
<path transform="matrix(1,0,0,-1,49.898,825.40408)" stroke-width="1" stroke-linecap="butt" stroke-miterlimit="10" stroke-linejoin="miter" fill="none" stroke="#8d39ff" d="M 39.09836 665.0422 L 36.89836 635.5555 L 43.6682 638.6823 L 45.8682 668.169 Z "/>
<path transform="matrix(1,0,0,-1,49.898,825.40408)" stroke-width="1" stroke-linecap="butt" stroke-miterlimit="10" stroke-linejoin="miter" fill="none" stroke="#c31eff" d="M 86.31734 751.8791 L 84.11734 735.7773 L 90.88716 741.8498 L 93.08716 757.95156 Z "/>
<path transform="matrix(1,0,0,-1,49.898,825.40408)" stroke-width="1" stroke-linecap="butt" stroke-miterlimit="10" stroke-linejoin="miter" fill="none" stroke="#a030ff" d="M 54.83803 696.3226 L 52.63803 671.7868 L 59.40787 675.8955 L 61.60786 700.4313 Z "/>
<path transform="matrix(1,0,0,-1,49.898,825.40408)" stroke-width="1" stroke-linecap="butt" stroke-miterlimit="10" stroke-linejoin="miter" fill="none" stroke="#b227ff" d="M 70.57767 725.1051 L 68.37769 705.0309 L 75.14752 710.12149 L 77.3475 730.1957 Z "/>
<path transform="matrix(1,0,0,-1,49.898,825.40408)" stroke-width="1" stroke-linecap="butt" stroke-miterlimit="10" stroke-linejoin="miter" fill="none" stroke="#f605ff" d="M 140.30615 834.05917 L 138.10616 826.9394 L 144.87599 836.4484 L 147.07599 843.5682 Z "/>
<path transform="matrix(1,0,0,-1,49.898,825.40408)" stroke-width="1" stroke-linecap="butt" stroke-miterlimit="10" stroke-linejoin="miter" fill="none" stroke="#e70cff" d="M 124.5665 809.39407 L 122.36649 799.76956 L 129.1363 808.2967 L 131.33632 817.9212 Z "/>
<path transform="matrix(1,0,0,-1,49.898,825.40408)" stroke-width="1" stroke-linecap="butt" stroke-miterlimit="10" stroke-linejoin="miter" fill="none" stroke="#8f38ff" d="M 45.8682 668.169 L 43.6682 638.6823 L 50.43803 642.3001 L 52.63803 671.7868 Z "/>
<path transform="matrix(1,0,0,-1,49.898,825.40408)" stroke-width="1" stroke-linecap="butt" stroke-miterlimit="10" stroke-linejoin="miter" fill="none" stroke="#d714ff" d="M 108.82684 784.18789 L 106.62683 771.5693 L 113.39665 779.1146 L 115.59666 791.73318 Z "/>
<path transform="matrix(1,0,0,-1,49.898,825.40408)" stroke-width="1" stroke-linecap="butt" stroke-miterlimit="10" stroke-linejoin="miter" fill="none" stroke="#a32eff" d="M 61.60786 700.4313 L 59.40787 675.8955 L 66.17769 680.4951 L 68.37769 705.0309 Z "/>
<path transform="matrix(1,0,0,-1,49.898,825.40408)" stroke-width="1" stroke-linecap="butt" stroke-miterlimit="10" stroke-linejoin="miter" fill="none" stroke="#c71cff" d="M 93.08716 757.95156 L 90.88716 741.8498 L 97.657 748.4132 L 99.857 764.51498 Z "/>
<path transform="matrix(1,0,0,-1,49.898,825.40408)" stroke-width="1" stroke-linecap="butt" stroke-miterlimit="10" stroke-linejoin="miter" fill="none" stroke="#b625ff" d="M 77.3475 730.1957 L 75.14752 710.12149 L 81.91736 715.7031 L 84.11734 735.7773 Z "/>
<path transform="matrix(1,0,0,-1,49.898,825.40408)" stroke-width="1" stroke-linecap="butt" stroke-miterlimit="10" stroke-linejoin="miter" fill="none" stroke="#9237ff" d="M 52.63803 671.7868 L 50.43803 642.3001 L 57.20787 646.4088 L 59.40787 675.8955 Z "/>
<path transform="matrix(1,0,0,-1,49.898,825.40408)" stroke-width="1" stroke-linecap="butt" stroke-miterlimit="10" stroke-linejoin="miter" fill="none" stroke="#ec09ff" d="M 131.33632 817.9212 L 129.1363 808.2967 L 135.90615 817.3148 L 138.10616 826.9394 Z "/>
<path transform="matrix(1,0,0,-1,49.898,825.40408)" stroke-width="1" stroke-linecap="butt" stroke-miterlimit="10" stroke-linejoin="miter" fill="none" stroke="#a62cff" d="M 68.37769 705.0309 L 66.17769 680.4951 L 72.94753 685.5857 L 75.14752 710.12149 Z "/>
<path transform="matrix(1,0,0,-1,49.898,825.40408)" stroke-width="1" stroke-linecap="butt" stroke-miterlimit="10" stroke-linejoin="miter" fill="none" stroke="#dc11ff" d="M 115.59666 791.73318 L 113.39665 779.1146 L 120.16649 787.151 L 122.36649 799.76956 Z "/>
<path transform="matrix(1,0,0,-1,49.898,825.40408)" stroke-width="1" stroke-linecap="butt" stroke-miterlimit="10" stroke-linejoin="miter" fill="none" stroke="#ba23ff" d="M 84.11734 735.7773 L 81.91736 715.7031 L 88.68718 721.7756 L 90.88716 741.8498 Z "/>
<path transform="matrix(1,0,0,-1,49.898,825.40408)" stroke-width="1" stroke-linecap="butt" stroke-miterlimit="10" stroke-linejoin="miter" fill="none" stroke="#cb1aff" d="M 99.857 764.51498 L 97.657 748.4132 L 104.42683 755.4675 L 106.62683 771.5693 Z "/>
<path transform="matrix(1,0,0,-1,49.898,825.40408)" stroke-width="1" stroke-linecap="butt" stroke-miterlimit="10" stroke-linejoin="miter" fill="none" stroke="#9535ff" d="M 59.40787 675.8955 L 57.20787 646.4088 L 63.97769 651.0085 L 66.17769 680.4951 Z "/>
<path transform="matrix(1,0,0,-1,49.898,825.40408)" stroke-width="1" stroke-linecap="butt" stroke-miterlimit="10" stroke-linejoin="miter" fill="none" stroke="#aa2bff" d="M 75.14752 710.12149 L 72.94753 685.5857 L 79.71736 691.16738 L 81.91736 715.7031 Z "/>
<path transform="matrix(1,0,0,-1,49.898,825.40408)" stroke-width="1" stroke-linecap="butt" stroke-miterlimit="10" stroke-linejoin="miter" fill="none" stroke="#f206ff" d="M 138.10616 826.9394 L 135.90615 817.3148 L 142.67598 826.8239 L 144.87599 836.4484 Z "/>
<path transform="matrix(1,0,0,-1,49.898,825.40408)" stroke-width="1" stroke-linecap="butt" stroke-miterlimit="10" stroke-linejoin="miter" fill="none" stroke="#be21ff" d="M 90.88716 741.8498 L 88.68718 721.7756 L 95.45702 728.339 L 97.657 748.4132 Z "/>
<path transform="matrix(1,0,0,-1,49.898,825.40408)" stroke-width="1" stroke-linecap="butt" stroke-miterlimit="10" stroke-linejoin="miter" fill="none" stroke="#e10fff" d="M 122.36649 799.76956 L 120.16649 787.151 L 126.93631 795.67819 L 129.1363 808.2967 Z "/>
<path transform="matrix(1,0,0,-1,49.898,825.40408)" stroke-width="1" stroke-linecap="butt" stroke-miterlimit="10" stroke-linejoin="miter" fill="none" stroke="#d018ff" d="M 106.62683 771.5693 L 104.42683 755.4675 L 111.19666 763.0128 L 113.39665 779.1146 Z "/>
<path transform="matrix(1,0,0,-1,49.898,825.40408)" stroke-width="1" stroke-linecap="butt" stroke-miterlimit="10" stroke-linejoin="miter" fill="none" stroke="#9834ff" d="M 66.17769 680.4951 L 63.97769 651.0085 L 70.74753 656.09909 L 72.94753 685.5857 Z "/>
<path transform="matrix(1,0,0,-1,49.898,825.40408)" stroke-width="1" stroke-linecap="butt" stroke-miterlimit="10" stroke-linejoin="miter" fill="none" stroke="#ae29ff" d="M 81.91736 715.7031 L 79.71736 691.16738 L 86.48718 697.2398 L 88.68718 721.7756 Z "/>
<path transform="matrix(1,0,0,-1,49.898,825.40408)" stroke-width="1" stroke-linecap="butt" stroke-miterlimit="10" stroke-linejoin="miter" fill="none" stroke="#c21fff" d="M 97.657 748.4132 L 95.45702 728.339 L 102.22685 735.3933 L 104.42683 755.4675 Z "/>
<path transform="matrix(1,0,0,-1,49.898,825.40408)" stroke-width="1" stroke-linecap="butt" stroke-miterlimit="10" stroke-linejoin="miter" fill="none" stroke="#d515ff" d="M 113.39665 779.1146 L 111.19666 763.0128 L 117.96649 771.0492 L 120.16649 787.151 Z "/>
<path transform="matrix(1,0,0,-1,49.898,825.40408)" stroke-width="1" stroke-linecap="butt" stroke-miterlimit="10" stroke-linejoin="miter" fill="none" stroke="#e70cff" d="M 129.1363 808.2967 L 126.93631 795.67819 L 133.70615 804.6963 L 135.90615 817.3148 Z "/>
<path transform="matrix(1,0,0,-1,49.898,825.40408)" stroke-width="1" stroke-linecap="butt" stroke-miterlimit="10" stroke-linejoin="miter" fill="none" stroke="#9b32ff" d="M 72.94753 685.5857 L 70.74753 656.09909 L 77.51736 661.68069 L 79.71736 691.16738 Z "/>
<path transform="matrix(1,0,0,-1,49.898,825.40408)" stroke-width="1" stroke-linecap="butt" stroke-miterlimit="10" stroke-linejoin="miter" fill="none" stroke="#b227ff" d="M 88.68718 721.7756 L 86.48718 697.2398 L 93.25702 703.8032 L 95.45702 728.339 Z "/>
<path transform="matrix(1,0,0,-1,49.898,825.40408)" stroke-width="1" stroke-linecap="butt" stroke-miterlimit="10" stroke-linejoin="miter" fill="none" stroke="#c71cff" d="M 104.42683 755.4675 L 102.22685 735.3933 L 108.99667 742.9386 L 111.19666 763.0128 Z "/>
<path transform="matrix(1,0,0,-1,49.898,825.40408)" stroke-width="1" stroke-linecap="butt" stroke-miterlimit="10" stroke-linejoin="miter" fill="none" stroke="#da12ff" d="M 120.16649 787.151 L 117.96649 771.0492 L 124.73631 779.57638 L 126.93631 795.67819 Z "/>
<path transform="matrix(1,0,0,-1,49.898,825.40408)" stroke-width="1" stroke-linecap="butt" stroke-miterlimit="10" stroke-linejoin="miter" fill="none" stroke="#ed09ff" d="M 135.90615 817.3148 L 133.70615 804.6963 L 140.47599 814.2053 L 142.67598 826.8239 Z "/>
<path transform="matrix(1,0,0,-1,49.898,825.40408)" stroke-width="1" stroke-linecap="butt" stroke-miterlimit="10" stroke-linejoin="miter" fill="none" stroke="#9f30ff" d="M 79.71736 691.16738 L 77.51736 661.68069 L 84.28719 667.7531 L 86.48718 697.2398 Z "/>
<path transform="matrix(1,0,0,-1,49.898,825.40408)" stroke-width="1" stroke-linecap="butt" stroke-miterlimit="10" stroke-linejoin="miter" fill="none" stroke="#b625ff" d="M 95.45702 728.339 L 93.25702 703.8032 L 100.02686 710.85757 L 102.22685 735.3933 Z "/>
<path transform="matrix(1,0,0,-1,49.898,825.40408)" stroke-width="1" stroke-linecap="butt" stroke-miterlimit="10" stroke-linejoin="miter" fill="none" stroke="#cc1aff" d="M 111.19666 763.0128 L 108.99667 742.9386 L 115.76651 750.975 L 117.96649 771.0492 Z "/>
<path transform="matrix(1,0,0,-1,49.898,825.40408)" stroke-width="1" stroke-linecap="butt" stroke-miterlimit="10" stroke-linejoin="miter" fill="none" stroke="#e010ff" d="M 126.93631 795.67819 L 124.73631 779.57638 L 131.50615 788.5945 L 133.70615 804.6963 Z "/>
<path transform="matrix(1,0,0,-1,49.898,825.40408)" stroke-width="1" stroke-linecap="butt" stroke-miterlimit="10" stroke-linejoin="miter" fill="none" stroke="#8a3bff" d="M 70.74753 656.09909 L 68.54752 621.1723 L 75.31735 626.7539 L 77.51736 661.68069 Z "/>
<path transform="matrix(1,0,0,-1,49.898,825.40408)" stroke-width="1" stroke-linecap="butt" stroke-miterlimit="10" stroke-linejoin="miter" fill="none" stroke="#a32eff" d="M 86.48718 697.2398 L 84.28719 667.7531 L 91.05702 674.3166 L 93.25702 703.8032 Z "/>
<path transform="matrix(1,0,0,-1,49.898,825.40408)" stroke-width="1" stroke-linecap="butt" stroke-miterlimit="10" stroke-linejoin="miter" fill="none" stroke="#bb22ff" d="M 102.22685 735.3933 L 100.02686 710.85757 L 106.79668 718.40286 L 108.99667 742.9386 Z "/>
<path transform="matrix(1,0,0,-1,49.898,825.40408)" stroke-width="1" stroke-linecap="butt" stroke-miterlimit="10" stroke-linejoin="miter" fill="none" stroke="#d117ff" d="M 117.96649 771.0492 L 115.76651 750.975 L 122.53633 759.50216 L 124.73631 779.57638 Z "/>
<path transform="matrix(1,0,0,-1,49.898,825.40408)" stroke-width="1" stroke-linecap="butt" stroke-miterlimit="10" stroke-linejoin="miter" fill="none" stroke="#e60dff" d="M 133.70615 804.6963 L 131.50615 788.5945 L 138.27599 798.1036 L 140.47599 814.2053 Z "/>
<path transform="matrix(1,0,0,-1,49.898,825.40408)" stroke-width="1" stroke-linecap="butt" stroke-miterlimit="10" stroke-linejoin="miter" fill="none" stroke="#8e39ff" d="M 77.51736 661.68069 L 75.31735 626.7539 L 82.08717 632.8264 L 84.28719 667.7531 Z "/>
<path transform="matrix(1,0,0,-1,49.898,825.40408)" stroke-width="1" stroke-linecap="butt" stroke-miterlimit="10" stroke-linejoin="miter" fill="none" stroke="#a82cff" d="M 93.25702 703.8032 L 91.05702 674.3166 L 97.82686 681.3709 L 100.02686 710.85757 Z "/>
<path transform="matrix(1,0,0,-1,49.898,825.40408)" stroke-width="1" stroke-linecap="butt" stroke-miterlimit="10" stroke-linejoin="miter" fill="none" stroke="#c020ff" d="M 108.99667 742.9386 L 106.79668 718.40286 L 113.56651 726.4393 L 115.76651 750.975 Z "/>
<path transform="matrix(1,0,0,-1,49.898,825.40408)" stroke-width="1" stroke-linecap="butt" stroke-miterlimit="10" stroke-linejoin="miter" fill="none" stroke="#d614ff" d="M 124.73631 779.57638 L 122.53633 759.50216 L 129.30617 768.5203 L 131.50615 788.5945 Z "/>
<path transform="matrix(1,0,0,-1,49.898,825.40408)" stroke-width="1" stroke-linecap="butt" stroke-miterlimit="10" stroke-linejoin="miter" fill="none" stroke="#9237ff" d="M 84.28719 667.7531 L 82.08717 632.8264 L 88.85701 639.38986 L 91.05702 674.3166 Z "/>
<path transform="matrix(1,0,0,-1,49.898,825.40408)" stroke-width="1" stroke-linecap="butt" stroke-miterlimit="10" stroke-linejoin="miter" fill="none" stroke="#ac29ff" d="M 100.02686 710.85757 L 97.82686 681.3709 L 104.59668 688.9162 L 106.79668 718.40286 Z "/>
<path transform="matrix(1,0,0,-1,49.898,825.40408)" stroke-width="1" stroke-linecap="butt" stroke-miterlimit="10" stroke-linejoin="miter" fill="none" stroke="#c51dff" d="M 115.76651 750.975 L 113.56651 726.4393 L 120.33633 734.96646 L 122.53633 759.50216 Z "/>
<path transform="matrix(1,0,0,-1,49.898,825.40408)" stroke-width="1" stroke-linecap="butt" stroke-miterlimit="10" stroke-linejoin="miter" fill="none" stroke="#dc11ff" d="M 131.50615 788.5945 L 129.30617 768.5203 L 136.076 778.02938 L 138.27599 798.1036 Z "/>
<path transform="matrix(1,0,0,-1,49.898,825.40408)" stroke-width="1" stroke-linecap="butt" stroke-miterlimit="10" stroke-linejoin="miter" fill="none" stroke="#9635ff" d="M 91.05702 674.3166 L 88.85701 639.38986 L 95.62685 646.44418 L 97.82686 681.3709 Z "/>
<path transform="matrix(1,0,0,-1,49.898,825.40408)" stroke-width="1" stroke-linecap="butt" stroke-miterlimit="10" stroke-linejoin="miter" fill="none" stroke="#b127ff" d="M 106.79668 718.40286 L 104.59668 688.9162 L 111.36652 696.9526 L 113.56651 726.4393 Z "/>
<path transform="matrix(1,0,0,-1,49.898,825.40408)" stroke-width="1" stroke-linecap="butt" stroke-miterlimit="10" stroke-linejoin="miter" fill="none" stroke="#cb1aff" d="M 122.53633 759.50216 L 120.33633 734.96646 L 127.10617 743.98458 L 129.30617 768.5203 Z "/>
<path transform="matrix(1,0,0,-1,49.898,825.40408)" stroke-width="1" stroke-linecap="butt" stroke-miterlimit="10" stroke-linejoin="miter" fill="none" stroke="#9b32ff" d="M 97.82686 681.3709 L 95.62685 646.44418 L 102.39667 653.98947 L 104.59668 688.9162 Z "/>
<path transform="matrix(1,0,0,-1,49.898,825.40408)" stroke-width="1" stroke-linecap="butt" stroke-miterlimit="10" stroke-linejoin="miter" fill="none" stroke="#b724ff" d="M 113.56651 726.4393 L 111.36652 696.9526 L 118.13634 705.47976 L 120.33633 734.96646 Z "/>
<path transform="matrix(1,0,0,-1,49.898,825.40408)" stroke-width="1" stroke-linecap="butt" stroke-miterlimit="10" stroke-linejoin="miter" fill="none" stroke="#d017ff" d="M 129.30617 768.5203 L 127.10617 743.98458 L 133.876 753.4936 L 136.076 778.02938 Z "/>
<path transform="matrix(1,0,0,-1,49.898,825.40408)" stroke-width="1" stroke-linecap="butt" stroke-miterlimit="10" stroke-linejoin="miter" fill="none" stroke="#a030ff" d="M 104.59668 688.9162 L 102.39667 653.98947 L 109.1665 662.0258 L 111.36652 696.9526 Z "/>
<path transform="matrix(1,0,0,-1,49.898,825.40408)" stroke-width="1" stroke-linecap="butt" stroke-miterlimit="10" stroke-linejoin="miter" fill="none" stroke="#bc22ff" d="M 120.33633 734.96646 L 118.13634 705.47976 L 124.90616 714.49789 L 127.10617 743.98458 Z "/>
<path transform="matrix(1,0,0,-1,49.898,825.40408)" stroke-width="1" stroke-linecap="butt" stroke-miterlimit="10" stroke-linejoin="miter" fill="none" stroke="#a52dff" d="M 111.36652 696.9526 L 109.1665 662.0258 L 115.93633 670.553 L 118.13634 705.47976 Z "/>
<path transform="matrix(1,0,0,-1,49.898,825.40408)" stroke-width="1" stroke-linecap="butt" stroke-miterlimit="10" stroke-linejoin="miter" fill="none" stroke="#c21fff" d="M 127.10617 743.98458 L 124.90616 714.49789 L 131.676 724.00698 L 133.876 753.4936 Z "/>
<path transform="matrix(1,0,0,-1,49.898,825.40408)" stroke-width="1" stroke-linecap="butt" stroke-miterlimit="10" stroke-linejoin="miter" fill="none" stroke="#8b3aff" d="M 102.39667 653.98947 L 100.19667 613.13278 L 106.9665 621.1692 L 109.1665 662.0258 Z "/>
<path transform="matrix(1,0,0,-1,49.898,825.40408)" stroke-width="1" stroke-linecap="butt" stroke-miterlimit="10" stroke-linejoin="miter" fill="none" stroke="#ab2aff" d="M 118.13634 705.47976 L 115.93633 670.553 L 122.70616 679.5711 L 124.90616 714.49789 Z "/>
<path transform="matrix(1,0,0,-1,49.898,825.40408)" stroke-width="1" stroke-linecap="butt" stroke-miterlimit="10" stroke-linejoin="miter" fill="none" stroke="#9038ff" d="M 109.1665 662.0258 L 106.9665 621.1692 L 113.73633 629.69638 L 115.93633 670.553 Z "/>
<path transform="matrix(1,0,0,-1,49.898,825.40408)" stroke-width="1" stroke-linecap="butt" stroke-miterlimit="10" stroke-linejoin="miter" fill="none" stroke="#b027ff" d="M 124.90616 714.49789 L 122.70616 679.5711 L 129.476 689.0802 L 131.676 724.00698 Z "/>
<path transform="matrix(1,0,0,-1,49.898,825.40408)" stroke-width="1" stroke-linecap="butt" stroke-miterlimit="10" stroke-linejoin="miter" fill="none" stroke="#9635ff" d="M 115.93633 670.553 L 113.73633 629.69638 L 120.50616 638.7145 L 122.70616 679.5711 Z "/>
<path transform="matrix(1,0,0,-1,49.898,825.40408)" stroke-width="1" stroke-linecap="butt" stroke-miterlimit="10" stroke-linejoin="miter" fill="none" stroke="#9c32ff" d="M 122.70616 679.5711 L 120.50616 638.7145 L 127.276 648.2235 L 129.476 689.0802 Z "/>
<path transform="matrix(1,0,0,-1,49.898,825.40408)" d="M 39.66008 742.4063 C 39.66008 743.7819 38.54497 744.89706 37.16939 744.89706 C 35.79381 744.89706 34.6787 743.7819 34.6787 742.4063 C 34.6787 741.03079 35.79381 739.91567 37.16939 739.91567 C 38.54497 739.91567 39.66008 741.03079 39.66008 742.4063 Z M 37.16939 742.4063 "/>
<path transform="matrix(1,0,0,-1,49.898,825.40408)" stroke-width="1" stroke-linecap="butt" stroke-miterlimit="10" stroke-linejoin="miter" fill="none" stroke="#000000" d="M 39.66008 742.4063 C 39.66008 743.7819 38.54497 744.89706 37.16939 744.89706 C 35.79381 744.89706 34.6787 743.7819 34.6787 742.4063 C 34.6787 741.03079 35.79381 739.91567 37.16939 739.91567 C 38.54497 739.91567 39.66008 741.03079 39.66008 742.4063 Z M 37.16939 742.4063 "/>
<symbol id="font_1_1">
<path d="M .23200003 .00999999 C .23200003 .012999982 .23200003 .014999986 .215 .03199999 C .09 .15799999 .058 .347 .058 .5 C .058 .674 .096 .84800007 .21900001 .97300007 C .23200003 .985 .23200003 .98700007 .23200003 .99 C .23200003 .99700006 .22800002 1 .222 1 C .21200001 1 .12200001 .93200007 .06299999 .805 C .012000002 .69500008 0 .584 0 .5 C 0 .422 .011 .301 .066 .188 C .126 .065 .21200001 0 .222 0 C .22800002 0 .23200003 .0029999912 .23200003 .00999999 Z "/>
</symbol>
<symbol id="font_1_3">
<path d="M .205 .64000007 C .205 .66400006 .205 .666 .18200003 .666 C .120000008 .60200008 .032000007 .60200008 0 .60200008 L 0 .57100006 C .020000004 .57100006 .07900001 .57100006 .13100001 .597 L .13100001 .079 C .13100001 .043 .128 .031000002 .038000004 .031000002 L .0060000049 .031000002 L .0060000049 0 C .04100001 .003 .128 .003 .168 .003 C .20800002 .003 .29500003 .003 .33000005 0 L .33000005 .031000002 L .29800005 .031000002 C .20800002 .031000002 .205 .042000005 .205 .079 L .205 .64000007 Z "/>
</symbol>
<use xlink:href="#font_1_1" transform="matrix(9.9626,0,0,-9.9626,91.573299,88.89068)"/>
<use xlink:href="#font_1_3" transform="matrix(9.9626,0,0,-9.9626,95.34912,86.40003)"/>
<symbol id="font_2_1">
<path d="M .117000009 .194 C .117000009 .26 .092 .29900003 .05300001 .29900003 C .020000004 .29900003 0 .274 0 .246 C 0 .21900001 .020000004 .193 .05300001 .193 C .065000008 .193 .078 .197 .08800001 .206 C .091 .208 .092 .209 .093 .209 C .094000007 .209 .095000009 .208 .095000009 .194 C .095000009 .12 .06000001 .060000004 .027000003 .026999996 C .016000003 .016000003 .016000003 .013999999 .016000003 .0109999929 C .016000003 .003999993 .021000006 0 .026 0 C .037 0 .117000009 .077 .117000009 .194 Z "/>
</symbol>
<use xlink:href="#font_2_1" transform="matrix(9.9626,0,0,-9.9626,100.29978,88.322818)"/>
<symbol id="font_1_4">
<path d="M .07700001 .07700001 L .18300002 .18 C .33900003 .31800003 .39900003 .372 .39900003 .47200004 C .39900003 .586 .30900003 .666 .18700002 .666 C .074 .666 0 .574 0 .485 C 0 .42900003 .05 .42900003 .053000008 .42900003 C .07000001 .42900003 .105000007 .441 .105000007 .48200003 C .105000007 .508 .08700001 .53400006 .052000006 .53400006 C .044000005 .53400006 .042000008 .53400006 .039 .53300008 C .062000004 .59800007 .11600001 .63500007 .17400001 .63500007 C .26500003 .63500007 .308 .554 .308 .47200004 C .308 .39200003 .25800003 .31300003 .20300003 .25100003 L .011000004 .037 C 0 .026 0 .024 0 0 L .37100003 0 L .39900003 .17400001 L .374 .17400001 C .36900003 .14400001 .36200003 .1 .352 .085 C .345 .07700001 .279 .07700001 .257 .07700001 L .07700001 .07700001 Z "/>
</symbol>
<use xlink:href="#font_1_4" transform="matrix(9.9626,0,0,-9.9626,104.36813,86.40003)"/>
<use xlink:href="#font_2_1" transform="matrix(9.9626,0,0,-9.9626,109.708789,88.322818)"/>
<symbol id="font_1_2">
<path d="M .232 .5 C .232 .578 .22100002 .699 .16600001 .81200006 C .106 .93500009 .020000004 1 .009999998 1 C .0040000008 1 0 .99600008 0 .99 C 0 .98700007 0 .985 .019000002 .967 C .117000009 .86800006 .174 .709 .174 .5 C .174 .329 .137 .153 .012999997 .026999996 C 0 .014999986 0 .012999982 0 .00999999 C 0 .003999993 .0040000008 0 .009999998 0 C .020000004 0 .11000001 .06799999 .169 .195 C .22 .305 .232 .416 .232 .5 Z "/>
</symbol>
<use xlink:href="#font_1_4" transform="matrix(9.9626,0,0,-9.9626,113.77814,86.40003)"/>
<use xlink:href="#font_1_2" transform="matrix(9.9626,0,0,-9.9626,118.82918,88.89068)"/>
<path transform="matrix(1,0,0,-1,49.898,825.40408)" d="M 39.66008 707.23837 C 39.66008 708.61398 38.54497 709.729 37.16939 709.729 C 35.79381 709.729 34.6787 708.61398 34.6787 707.23837 C 34.6787 705.86276 35.79381 704.7476 37.16939 704.7476 C 38.54497 704.7476 39.66008 705.86276 39.66008 707.23837 Z M 37.16939 707.23837 " fill="#808080"/>
<path transform="matrix(1,0,0,-1,49.898,825.40408)" stroke-width="1" stroke-linecap="butt" stroke-miterlimit="10" stroke-linejoin="miter" fill="none" stroke="#808080" d="M 39.66008 707.23837 C 39.66008 708.61398 38.54497 709.729 37.16939 709.729 C 35.79381 709.729 34.6787 708.61398 34.6787 707.23837 C 34.6787 705.86276 35.79381 704.7476 37.16939 704.7476 C 38.54497 704.7476 39.66008 705.86276 39.66008 707.23837 Z M 37.16939 707.23837 "/>
<use xlink:href="#font_1_1" transform="matrix(9.9626,0,0,-9.9626,91.573299,131.6577)" fill="#808080"/>
<use xlink:href="#font_1_3" transform="matrix(9.9626,0,0,-9.9626,95.34912,129.16706)" fill="#808080"/>
<use xlink:href="#font_2_1" transform="matrix(9.9626,0,0,-9.9626,100.29978,131.08983)" fill="#808080"/>
<use xlink:href="#font_1_4" transform="matrix(9.9626,0,0,-9.9626,104.36813,129.16706)" fill="#808080"/>
<use xlink:href="#font_1_2" transform="matrix(9.9626,0,0,-9.9626,109.419178,131.6577)" fill="#808080"/>
</g>
<path transform="matrix(1,0,0,-1,49.898,825.40408)" stroke-width="1" stroke-linecap="butt" stroke-miterlimit="10" stroke-linejoin="miter" fill="none" stroke="#000000" d="M 16.35223 729.1378 L -33.87386 686.2543 "/>
<path transform="matrix(-.76193,.65057,.65057,.76193,16.024159,139.14978)" d="M 1.99252 0 L -1.19551 1.59401 L 0 0 L -1.19551 -1.59401 "/>
<path transform="matrix(1,0,0,-1,49.898,825.40408)" stroke-width="1" stroke-linecap="butt" stroke-miterlimit="10" stroke-linejoin="miter" fill="none" stroke="#000000" d="M -3.43465 726.2703 L 136.75206 710.4157 "/>
<path transform="matrix(.994,.1124,.1124,-.994,186.65006,114.98834)" d="M 1.99252 0 L -1.19551 1.59401 L 0 0 L -1.19551 -1.59401 "/>
<path transform="matrix(1,0,0,-1,49.898,825.40408)" stroke-width="1" stroke-linecap="butt" stroke-miterlimit="10" stroke-linejoin="miter" fill="none" stroke="#000000" d="M 11.0722 715.61227 L 11.0722 814.615 "/>
<path transform="matrix(0,-1,-1,-0,60.9702,10.7890629)" d="M 1.99252 0 L -1.19551 1.59401 L 0 0 L -1.19551 -1.59401 "/>
<symbol id="font_3_1">
<path d="M .201 .116000007 C .19100002 .082 .15800002 .028 .107 .028 C .10400001 .028 .07400001 .028 .053000004 .042000005 C .094000007 .055000005 .09700001 .091 .09700001 .097 C .09700001 .119 .080000009 .134 .057000005 .134 C .029000007 .134 0 .11 0 .073 C 0 .023000002 .056 0 .10500001 0 C .15100003 0 .192 .029000003 .21700001 .071 C .241 .018000002 .296 0 .336 0 C .451 0 .512 .125 .512 .15300001 C .512 .16600001 .49900005 .16600001 .49600003 .16600001 C .48200003 .16600001 .48100005 .16100002 .47700004 .14900002 C .456 .08 .39600004 .028 .34 .028 C .3 .028 .279 .055000005 .279 .093 C .279 .119 .303 .21000001 .331 .321 C .351 .398 .39600004 .423 .42900003 .423 C .43100003 .423 .46200005 .423 .483 .409 C .451 .4 .439 .372 .439 .354 C .439 .33200003 .456 .317 .479 .317 C .50200006 .317 .535 .336 .535 .37800003 C .535 .43400003 .47100006 .451 .43100003 .451 C .381 .451 .34100003 .418 .319 .38 C .301 .421 .255 .451 .199 .451 C .087000008 .451 .023000002 .328 .023000002 .298 C .023000002 .285 .037 .285 .040000008 .285 C .053000004 .285 .054000006 .289 .059000009 .30200003 C .084 .38 .14700002 .423 .19600001 .423 C .229 .423 .256 .405 .256 .357 C .256 .337 .24400002 .287 .23500002 .25300003 L .201 .116000007 Z "/>
</symbol>
<use xlink:href="#font_3_1" transform="matrix(6.9738,0,0,-6.9738,11.586741,146.01078)"/>
<symbol id="font_3_2">
<path d="M .50900009 .58100005 C .513 .595 .513 .597 .513 .60300007 C .513 .623 .49700005 .63500007 .48000003 .63500007 C .46900005 .63500007 .45000003 .63000008 .43900005 .611 C .43600003 .605 .42800004 .573 .42300005 .55300006 L .40200005 .47000004 C .39600004 .44600005 .36500005 .32000003 .36200003 .30900003 C .36100004 .30900003 .31700004 .22200002 .23900001 .22200002 C .171 .22200002 .171 .287 .171 .305 C .171 .35900004 .194 .42200003 .22400002 .499 C .23600002 .531 .24100001 .54300007 .24100001 .56 C .24100001 .60800006 .2 .64500007 .146 .64500007 C .045000007 .64500007 0 .509 0 .49200005 C 0 .47900004 .014000002 .47900004 .017 .47900004 C .031 .47900004 .032 .48400004 .035 .495 C .060000007 .578 .103 .61700007 .143 .61700007 C .16000001 .61700007 .168 .606 .168 .582 C .168 .559 .15900001 .537 .154 .52400007 C .106000009 .402 .096 .365 .096 .321 C .096 .30400003 .096 .25700004 .135 .22500001 C .16600001 .19900002 .20800002 .194 .235 .194 C .27500005 .194 .31100003 .209 .34400005 .23900001 C .33100004 .18400002 .32000003 .142 .27800004 .09200001 C .25100003 .061000006 .21100001 .027999998 .158 .027999998 C .15100001 .027999998 .104 .027999998 .083000008 .061000006 C .13700001 .067 .13700001 .11500001 .13700001 .116000007 C .13700001 .148 .107999999 .15400002 .098000008 .15400002 C .073 .15400002 .040000004 .134 .040000004 .08800001 C .040000004 .037 .088 0 .15900001 0 C .26000003 0 .38300003 .07800001 .41400004 .20300001 L .50900009 .58100005 Z "/>
</symbol>
<use xlink:href="#font_3_2" transform="matrix(6.9738,0,0,-6.9738,191.79277,120.45672)"/>
<symbol id="font_3_3">
<path d="M .10700001 .098000008 C .133 .124000009 .15100001 .143 .23600002 .21100001 C .25700004 .22800002 .33200003 .28800003 .361 .316 C .422 .37600003 .46000005 .42700003 .46000005 .439 C .46000005 .451 .44700004 .451 .44300003 .451 C .43400003 .451 .431 .449 .426 .441 C .39500005 .395 .374 .38 .35000003 .38 C .338 .38 .323 .381 .29299999 .41 C .259 .444 .237 .451 .214 .451 C .134 .451 .08 .364 .08 .334 C .08 .32500003 .09 .322 .097 .322 C .109 .322 .111 .32500003 .11500001 .336 C .13000001 .37100003 .186 .373 .202 .373 C .22500001 .373 .251 .367 .265 .364 C .32 .352 .32700003 .352 .352 .352 C .32600004 .32500003 .30800004 .307 .21300002 .23100002 C .135 .16900002 .10800001 .14400001 .089 .124000009 C .029 .065000008 0 .021000002 0 .012000001 C 0 0 .012999997 0 .016999998 0 C .027000003 0 .029 .0020000004 .034 .010000001 C .061000006 .048000006 .09200001 .071 .126 .071 C .13800001 .071 .15300001 .07 .18 .045 C .21100001 .015000001 .23100002 0 .263 0 C .37 0 .43700005 .12100001 .43700005 .15500002 C .43700005 .16700001 .426 .16800002 .42000003 .16800002 C .408 .16800002 .40600003 .16300002 .402 .15200001 C .38300003 .102000009 .324 .078 .27500005 .078 C .25200004 .078 .22700002 .083000008 .202 .089 C .156 .099 .148 .099 .13000001 .099 C .128 .099 .113000009 .099 .10700001 .098000008 Z "/>
</symbol>
<use xlink:href="#font_3_3" transform="matrix(6.9738,0,0,-6.9738,59.349405,6.392797)"/>
</svg>
