<?xml version="1.0" encoding="UTF-8" standalone="no"?>
<!DOCTYPE svg PUBLIC "-//W3C//DTD SVG 1.1//EN" "http://www.w3.org/Graphics/SVG/1.1/DTD/svg11.dtd">
<svg xmlns="http://www.w3.org/2000/svg" xmlns:xlink="http://www.w3.org/1999/xlink" version="1.1" width="209.246pt" height="147.302pt" viewBox="0 0 209.246 147.302">
<path transform="matrix(1,0,0,-1,12.986,142.664)" stroke-width=".3985" stroke-linecap="butt" stroke-miterlimit="10" stroke-linejoin="miter" fill="none" stroke="#000000" d="M -12.78723 -4.43893 L -12.78723 142.46598 L 196.06295 142.46598 L 196.06295 -4.43893 Z M 196.06295 142.46598 "/>
<clipPath id="cp0">
<path transform="matrix(.75,0,0,-.75,12.9865,142.66376)" d="M 0 0 L 243.16355 0 L 243.16355 171.16819 L 0 171.16819 Z "/>
</clipPath>
<g clip-path="url(#cp0)">
<path transform="matrix(.75,0,0,-.75,12.9865,142.66376)" d="M 7.59885 154.05136 L 53.19202 154.05136 L 53.19202 85.58409 L 7.59885 85.58409 Z " fill="#cccce6"/>
<path transform="matrix(.75,0,0,-.75,12.9865,142.66376)" stroke-width=".3985" stroke-linecap="butt" stroke-miterlimit="10" stroke-linejoin="miter" fill="none" stroke="#000080" d="M 7.59885 154.05136 L 53.19202 154.05136 L 53.19202 85.58409 L 7.59885 85.58409 Z "/>
<path transform="matrix(.75,0,0,-.75,12.9865,142.66376)" d="M 53.19202 147.88932 L 98.78139 147.88932 L 98.78139 85.58409 L 53.19202 85.58409 Z " fill="#cccce6"/>
<path transform="matrix(.75,0,0,-.75,12.9865,142.66376)" stroke-width=".3985" stroke-linecap="butt" stroke-miterlimit="10" stroke-linejoin="miter" fill="none" stroke="#000080" d="M 53.19202 147.88932 L 98.78139 147.88932 L 98.78139 85.58409 L 53.19202 85.58409 Z "/>
<path transform="matrix(.75,0,0,-.75,12.9865,142.66376)" d="M 98.78139 129.40522 L 144.37454 129.40522 L 144.37454 85.58409 L 98.78139 85.58409 Z " fill="#cccce6"/>
<path transform="matrix(.75,0,0,-.75,12.9865,142.66376)" stroke-width=".3985" stroke-linecap="butt" stroke-miterlimit="10" stroke-linejoin="miter" fill="none" stroke="#000080" d="M 98.78139 129.40522 L 144.37454 129.40522 L 144.37454 85.58409 L 98.78139 85.58409 Z "/>
<path transform="matrix(.75,0,0,-.75,12.9865,142.66376)" d="M 144.37454 98.59596 L 189.97151 98.59596 L 189.97151 85.58409 L 144.37454 85.58409 Z " fill="#cccce6"/>
<path transform="matrix(.75,0,0,-.75,12.9865,142.66376)" stroke-width=".3985" stroke-linecap="butt" stroke-miterlimit="10" stroke-linejoin="miter" fill="none" stroke="#000080" d="M 144.37454 98.59596 L 189.97151 98.59596 L 189.97151 85.58409 L 144.37454 85.58409 Z "/>
<path transform="matrix(.75,0,0,-.75,12.9865,142.66376)" d="M 189.97151 55.45851 L 235.56089 55.45851 L 235.56089 85.58409 L 189.97151 85.58409 Z " fill="#cccce6"/>
<path transform="matrix(.75,0,0,-.75,12.9865,142.66376)" stroke-width=".3985" stroke-linecap="butt" stroke-miterlimit="10" stroke-linejoin="miter" fill="none" stroke="#000080" d="M 189.97151 55.45851 L 235.56089 55.45851 L 235.56089 85.58409 L 189.97151 85.58409 Z "/>
<path transform="matrix(.75,0,0,-.75,12.9865,142.66376)" stroke-width="1.19553" stroke-linecap="butt" stroke-miterlimit="10" stroke-linejoin="miter" fill="none" stroke="#000080" d="M 7.59885 154.05136 C 7.59885 154.05136 14.46162 153.93235 17.09743 153.7839 C 19.73325 153.63547 23.96019 153.27843 26.59601 152.98157 C 29.23181 152.6847 33.45877 152.0896 36.09459 151.6443 C 38.7304 151.199 42.95735 150.36589 45.59315 149.77217 C 48.22897 149.17844 52.45592 148.10726 55.09174 147.3651 C 57.72754 146.62294 61.9545 145.31374 64.59032 144.42316 C 67.22612 143.53256 71.45308 141.98532 74.08888 140.94629 C 76.7247 139.90727 80.95164 138.12201 83.58746 136.93456 C 86.22327 135.74709 90.45023 133.72377 93.08604 132.38788 C 95.72185 131.05199 99.9488 128.79065 102.58461 127.30634 C 105.22043 125.822 109.44739 123.32262 112.08319 121.68987 C 114.719 120.05711 118.94595 117.31972 121.58177 115.53853 C 124.21758 113.75734 128.44454 110.78188 131.08034 108.85225 C 133.71616 106.92264 137.94312 103.70915 140.57892 101.6311 C 143.21474 99.55305 147.44168 96.10152 150.0775 93.87503 C 152.7133 91.64856 156.94026 87.959 159.57607 85.58409 C 162.21189 83.20918 166.43885 79.28159 169.07465 76.75822 C 171.71047 74.23486 175.93741 70.06924 178.57323 67.39746 C 181.20903 64.72568 185.43599 60.322 188.0718 57.5018 C 190.70761 54.68158 194.93457 50.0399 197.57038 47.07124 C 200.20619 44.10258 204.43314 39.22285 207.06896 36.10577 C 209.70476 32.98868 213.93172 27.87094 216.56754 24.60541 C 219.20334 21.33989 223.4303 15.9841 226.0661 12.57014 C 228.70192 9.15619 235.56468 0 235.56468 0 "/>
</g>
<path transform="matrix(.75,0,0,-.75,12.9865,142.66376)" stroke-width=".19925" stroke-linecap="butt" stroke-miterlimit="10" stroke-linejoin="miter" fill="none" stroke="#929292" d="M 45.59315 83.45818 L 45.59315 87.70999 M 83.58746 83.45818 L 83.58746 87.70999 M 121.58177 83.45818 L 121.58177 87.70999 M 159.57607 83.45818 L 159.57607 87.70999 M 197.57038 83.45818 L 197.57038 87.70999 M 235.56468 83.45818 L 235.56468 87.70999 "/>
<path transform="matrix(.75,0,0,-.75,12.9865,142.66376)" stroke-width=".19925" stroke-linecap="butt" stroke-miterlimit="10" stroke-linejoin="miter" fill="none" stroke="#929292" d="M 5.47287 102.70091 L 9.72482 102.70091 M 5.47287 119.81773 L 9.72482 119.81773 M 5.47287 136.93456 L 9.72482 136.93456 M 5.47287 154.05136 L 9.72482 154.05136 "/>
<path transform="matrix(.75,0,0,-.75,12.9865,142.66376)" stroke-width=".3985" stroke-linecap="butt" stroke-miterlimit="10" stroke-linejoin="miter" fill="none" stroke="#000000" d="M 0 85.58409 L 241.17102 85.58409 "/>
<path transform="matrix(.75,0,0,-.75,193.86476,78.47569)" d="M 1.99252 0 L -1.19551 1.59401 L 0 0 L -1.19551 -1.59401 "/>
<path transform="matrix(.75,0,0,-.75,12.9865,142.66376)" stroke-width=".3985" stroke-linecap="butt" stroke-miterlimit="10" stroke-linejoin="miter" fill="none" stroke="#000000" d="M 7.59885 0 L 7.59885 169.17566 "/>
<path transform="matrix(0,-.75,-.75,-0,18.685637,15.782013)" d="M 1.99252 0 L -1.19551 1.59401 L 0 0 L -1.19551 -1.59401 "/>
<symbol id="font_1_1">
<path d="M .205 .64000007 C .205 .66400006 .205 .666 .18200003 .666 C .120000008 .60200008 .032000007 .60200008 0 .60200008 L 0 .57100006 C .020000004 .57100006 .07900001 .57100006 .13100001 .597 L .13100001 .079 C .13100001 .043 .128 .031000002 .038000004 .031000002 L .0060000049 .031000002 L .0060000049 0 C .04100001 .003 .128 .003 .168 .003 C .20800002 .003 .29500003 .003 .33000005 0 L .33000005 .031000002 L .29800005 .031000002 C .20800002 .031000002 .205 .042000005 .205 .079 L .205 .64000007 Z "/>
</symbol>
<use xlink:href="#font_1_1" transform="matrix(7.4719498,0,0,-7.4719498,45.978006,87.52602)"/>
<symbol id="font_1_2">
<path d="M .07700001 .07700001 L .18300002 .18 C .33900003 .31800003 .39900003 .372 .39900003 .47200004 C .39900003 .586 .30900003 .666 .18700002 .666 C .074 .666 0 .574 0 .485 C 0 .42900003 .05 .42900003 .053000008 .42900003 C .07000001 .42900003 .105000007 .441 .105000007 .48200003 C .105000007 .508 .08700001 .53400006 .052000006 .53400006 C .044000005 .53400006 .042000008 .53400006 .039 .53300008 C .062000004 .59800007 .11600001 .63500007 .17400001 .63500007 C .26500003 .63500007 .308 .554 .308 .47200004 C .308 .39200003 .25800003 .31300003 .20300003 .25100003 L .011000004 .037 C 0 .026 0 .024 0 0 L .37100003 0 L .39900003 .17400001 L .374 .17400001 C .36900003 .14400001 .36200003 .1 .352 .085 C .345 .07700001 .279 .07700001 .257 .07700001 L .07700001 .07700001 Z "/>
</symbol>
<use xlink:href="#font_1_2" transform="matrix(7.4719498,0,0,-7.4719498,74.1821,87.52602)"/>
<symbol id="font_1_3">
<path d="M .24800003 .37400005 C .33 .40100003 .388 .47100006 .388 .55 C .388 .632 .3 .688 .204 .688 C .10300001 .688 .027000003 .628 .027000003 .55200007 C .027000003 .519 .049000004 .5 .078 .5 C .109000008 .5 .12900001 .522 .12900001 .55100008 C .12900001 .6010001 .082 .6010001 .067 .6010001 C .098 .65000006 .164 .66300007 .20000002 .66300007 C .24100003 .66300007 .29600004 .64100006 .29600004 .55100008 C .29600004 .53900006 .29400004 .48100005 .268 .43700005 C .238 .38900004 .204 .38600005 .17900002 .38500003 C .171 .38400004 .14700002 .38200004 .14000002 .38200004 C .132 .38100005 .125 .38000003 .125 .37000004 C .125 .35900004 .132 .35900004 .14900002 .35900004 L .19300002 .35900004 C .275 .35900004 .312 .29100005 .312 .193 C .312 .057000005 .24300003 .028 .199 .028 C .15600002 .028 .081 .045 .046000005 .104 C .081 .09900001 .11200001 .12100001 .11200001 .15900001 C .11200001 .19500001 .085 .215 .056 .215 C .031999999 .215 0 .201 0 .157 C 0 .06600001 .093 0 .20200002 0 C .32400004 0 .41500003 .091000009 .41500003 .193 C .41500003 .27500005 .35200004 .35300005 .24800003 .37400005 Z "/>
</symbol>
<use xlink:href="#font_1_3" transform="matrix(7.4719498,0,0,-7.4719498,102.61707,87.6904)"/>
<symbol id="font_1_4">
<path d="M .266 .165 L .266 .078 C .266 .042000005 .26400004 .031000002 .19000001 .031000002 L .16900002 .031000002 L .16900002 0 C .21000001 .003 .26200003 .003 .30400003 .003 C .34600003 .003 .39900003 .003 .44000004 0 L .44000004 .031000002 L .41900004 .031000002 C .34500004 .031000002 .34300003 .042000005 .34300003 .078 L .34300003 .165 L .44300003 .165 L .44300003 .19600001 L .34300003 .19600001 L .34300003 .651 C .34300003 .671 .34300003 .67700007 .32700003 .67700007 C .31800003 .67700007 .31500004 .67700007 .307 .665 L 0 .19600001 L 0 .165 L .266 .165 M .272 .19600001 L .028 .19600001 L .272 .569 L .272 .19600001 Z "/>
</symbol>
<use xlink:href="#font_1_4" transform="matrix(7.4719498,0,0,-7.4719498,131.00795,87.52602)"/>
<symbol id="font_1_5">
<path d="M .39900003 .223 C .39900003 .34200005 .317 .44200004 .209 .44200004 C .16100002 .44200004 .118000019 .42600004 .082 .39100004 L .082 .586 C .10200001 .58000007 .135 .573 .16700001 .573 C .29 .573 .36 .66400006 .36 .67700007 C .36 .683 .357 .688 .35 .688 C .349 .688 .347 .688 .342 .68500009 C .322 .67600008 .273 .656 .20600002 .656 C .16600001 .656 .120000008 .66300007 .073 .6840001 C .065 .68700006 .06300001 .68700006 .061000009 .68700006 C .051000004 .68700006 .051000004 .679 .051000004 .66300007 L .051000004 .36700005 C .051000004 .34900005 .051000004 .34100003 .065 .34100003 C .07200001 .34100003 .074 .34400005 .07800001 .35000003 C .08900002 .36600004 .12600002 .42000006 .207 .42000006 C .259 .42000006 .284 .37400005 .292 .35600005 C .308 .31900005 .31 .28000004 .31 .23 C .31 .19500001 .31 .135 .286 .093 C .262 .054000006 .22500001 .028 .17900002 .028 C .106000009 .028 .049000008 .08100001 .032 .14000002 C .035 .13900002 .038000008 .13800001 .049000008 .13800001 C .082 .13800001 .09900001 .163 .09900001 .187 C .09900001 .21100001 .082 .23600002 .049000008 .23600002 C .035 .23600002 0 .22900002 0 .18300002 C 0 .097 .069000009 0 .18100001 0 C .297 0 .39900003 .096 .39900003 .223 Z "/>
</symbol>
<use xlink:href="#font_1_5" transform="matrix(7.4719498,0,0,-7.4719498,159.66783,87.6904)"/>
<symbol id="font_1_6">
<path d="M .089999999 .35000003 L .089999999 .37400005 C .089999999 .62700006 .21400002 .66300007 .26500003 .66300007 C .28900004 .66300007 .33100004 .65700009 .35300002 .623 C .33800004 .623 .298 .623 .298 .57800009 C .298 .54700008 .32200004 .53200009 .344 .53200009 C .36 .53200009 .39000003 .54100009 .39000003 .58000007 C .39000003 .64000007 .34600003 .688 .263 .688 C .13499999 .688 0 .559 0 .33800004 C 0 .071 .116000007 0 .20900002 0 C .32000003 0 .41500003 .094000007 .41500003 .22600001 C .41500003 .35300005 .32600004 .44900004 .215 .44900004 C .14700002 .44900004 .11000001 .39800004 .089999999 .35000003 M .20900002 .028 C .146 .028 .116000007 .088 .11000001 .103 C .092 .15 .092 .23 .092 .24800001 C .092 .32600004 .124000009 .42600004 .21400002 .42600004 C .23000002 .42600004 .27600003 .42600004 .307 .36400003 C .32500003 .32700003 .32500003 .27600003 .32500003 .22700002 C .32500003 .179 .32500003 .12900001 .30800004 .093 C .27800004 .033000005 .23200003 .028 .20900002 .028 Z "/>
</symbol>
<use xlink:href="#font_1_6" transform="matrix(7.4719498,0,0,-7.4719498,188.10358,87.6904)"/>
<use xlink:href="#font_1_4" transform="matrix(7.4719498,0,0,-7.4719498,10.924714,68.04701)"/>
<symbol id="font_1_7">
<path d="M .121 .47900004 C .075 .509 .071 .54300007 .071 .56000009 C .071 .62100008 .136 .66300007 .20700002 .66300007 C .28000004 .66300007 .344 .61100009 .344 .53900006 C .344 .48200003 .305 .43400005 .245 .39900003 L .121 .47900004 M .26700003 .38400004 C .33900003 .42100004 .388 .47300006 .388 .53900006 C .388 .63100007 .29900003 .688 .208 .688 C .108 .688 .027000003 .614 .027000003 .521 C .027000003 .503 .029 .45800004 .071 .41100005 C .082 .39900003 .11900001 .37400005 .144 .35700003 C .086 .32800005 0 .272 0 .17300001 C 0 .067 .102000009 0 .20700002 0 C .32000003 0 .41500003 .083000008 .41500003 .19000001 C .41500003 .22600001 .404 .27100004 .36600004 .31300003 C .34700004 .33400003 .33100004 .34400005 .26700003 .38400004 M .167 .34200005 L .29000003 .26400004 C .31800003 .245 .365 .215 .365 .154 C .365 .080000009 .29000003 .028 .208 .028 C .122 .028 .050000006 .09 .050000006 .17300001 C .050000006 .231 .082 .29500003 .167 .34200005 Z "/>
</symbol>
<use xlink:href="#font_1_7" transform="matrix(7.4719498,0,0,-7.4719498,11.029322,55.373636)"/>
<use xlink:href="#font_1_1" transform="matrix(7.4719498,0,0,-7.4719498,7.644003,42.371507)"/>
<use xlink:href="#font_1_2" transform="matrix(7.4719498,0,0,-7.4719498,11.0885729,42.371507)"/>
<use xlink:href="#font_1_1" transform="matrix(7.4719498,0,0,-7.4719498,7.644003,29.5345)"/>
<use xlink:href="#font_1_6" transform="matrix(7.4719498,0,0,-7.4719498,11.028797,29.698884)"/>
<symbol id="font_2_1">
<path d="M .305 .31300003 C .311 .33900003 .334 .43100003 .404 .43100003 C .409 .43100003 .433 .43100003 .454 .418 C .426 .41300003 .40600003 .388 .40600003 .36400003 C .40600003 .34800003 .417 .32900004 .444 .32900004 C .46600003 .32900004 .498 .34700004 .498 .38700003 C .498 .43900005 .439 .45300005 .405 .45300005 C .347 .45300005 .312 .40000005 .3 .37700004 C .275 .44300003 .221 .45300005 .19200002 .45300005 C .08800001 .45300005 .031000002 .32400004 .031000002 .29900003 C .031000002 .28900004 .041 .28900004 .043000007 .28900004 C .051000008 .28900004 .054000006 .291 .056 .3 C .09 .40600003 .156 .43100003 .19000001 .43100003 C .209 .43100003 .244 .42200003 .244 .36400003 C .244 .33300004 .22700002 .26600004 .19000001 .126 C .17400001 .064 .13900002 .022000002 .095000009 .022000002 C .08900001 .022000002 .06600001 .022000002 .045 .035 C .07000001 .040000004 .09200001 .061 .09200001 .089 C .09200001 .116000007 .07000001 .124000009 .055000009 .124000009 C .025 .124000009 0 .098000008 0 .06600001 C 0 .020000002 .050000006 0 .094000007 0 C .16000001 0 .19600001 .07000001 .19900002 .076000008 C .21100001 .039 .24700003 0 .307 0 C .41 0 .467 .12900001 .467 .15400002 C .467 .16400002 .458 .16400002 .455 .16400002 C .446 .16400002 .444 .16000001 .442 .15300001 C .409 .046 .341 .022000002 .30900003 .022000002 C .27 .022000002 .254 .054 .254 .08800001 C .254 .11000001 .26 .13200002 .271 .17600002 L .305 .31300003 Z "/>
</symbol>
<use xlink:href="#font_2_1" transform="matrix(7.4719498,0,0,-7.4719498,198.21318,80.16744)"/>
<symbol id="font_2_2">
<path d="M .45700003 .586 C .461 .6 .461 .602 .461 .609 C .461 .62700006 .447 .63600006 .432 .63600006 C .42200003 .63600006 .40600003 .63 .397 .615 C .395 .61 .387 .579 .38300003 .561 C .37600003 .535 .36900003 .508 .363 .48100005 L .318 .301 C .314 .286 .271 .21600002 .20500002 .21600002 C .15400002 .21600002 .143 .26000003 .143 .29700003 C .143 .34300003 .16000001 .40500004 .194 .49300004 C .21000001 .53400006 .21400002 .545 .21400002 .56500008 C .21400002 .61 .18200001 .6470001 .13200002 .6470001 C .037 .6470001 0 .50200006 0 .49300004 C 0 .48300005 .01 .48300005 .012 .48300005 C .022000002 .48300005 .023 .485 .028000003 .50100007 C .055000009 .595 .095000009 .625 .12900001 .625 C .13700001 .625 .15400002 .625 .15400002 .59300008 C .15400002 .568 .14400001 .54200008 .13700001 .523 C .097 .41700004 .079 .36 .079 .31300003 C .079 .224 .142 .194 .201 .194 C .24000003 .194 .274 .21100001 .30200003 .23900002 C .289 .187 .277 .13800001 .237 .08500001 C .21100001 .051 .17300001 .022 .127 .022 C .113000009 .022 .068 .025000006 .051000008 .06400001 C .067 .06400001 .080000009 .06400001 .094000007 .076000008 C .104 .08500001 .11400001 .098000008 .11400001 .117000009 C .11400001 .148 .087000008 .15200001 .07700001 .15200001 C .054000006 .15200001 .021 .136 .021 .087000008 C .021 .037 .065000008 0 .127 0 C .23 0 .333 .091000009 .361 .20400001 L .45700003 .586 Z "/>
</symbol>
<use xlink:href="#font_2_2" transform="matrix(7.4719498,0,0,-7.4719498,16.891686,11.728252)"/>
</svg>
