<?xml version="1.0" encoding="UTF-8" standalone="no"?>
<!DOCTYPE svg PUBLIC "-//W3C//DTD SVG 1.1//EN" "http://www.w3.org/Graphics/SVG/1.1/DTD/svg11.dtd">
<svg xmlns="http://www.w3.org/2000/svg" xmlns:xlink="http://www.w3.org/1999/xlink" version="1.1" width="207.032pt" height="174.681pt" viewBox="0 0 207.032 174.681">
<path transform="matrix(1,0,0,-1,.199,174.482)" stroke-width="1" stroke-linecap="butt" stroke-miterlimit="10" stroke-linejoin="miter" fill="none" stroke="#808080" d="M 16.18935 78.56996 L 16.18935 82.82181 M 48.56804 78.56996 L 48.56804 82.82181 M 113.32542 78.56996 L 113.32542 82.82181 M 145.70412 78.56996 L 145.70412 82.82181 M 178.08281 78.56996 L 178.08281 82.82181 "/>
<path transform="matrix(1,0,0,-1,.199,174.482)" stroke-width="1" stroke-linecap="butt" stroke-miterlimit="10" stroke-linejoin="miter" fill="none" stroke="#808080" d="M 78.82083 16.13918 L 83.0726 16.13918 M 78.82083 48.41753 L 83.0726 48.41753 M 78.82083 112.97426 L 83.0726 112.97426 M 78.82083 145.25261 L 83.0726 145.25261 "/>
<path transform="matrix(1,0,0,-1,.199,174.482)" stroke-width="1" stroke-linecap="butt" stroke-miterlimit="10" stroke-linejoin="miter" fill="none" stroke="#000000" d="M 0 80.69589 L 192.27964 80.69589 "/>
<path transform="matrix(1,0,0,-1,192.47864,93.7861)" d="M 1.99252 0 L -1.19551 1.59401 L 0 0 L -1.19551 -1.59401 "/>
<path transform="matrix(1,0,0,-1,.199,174.482)" stroke-width="1" stroke-linecap="butt" stroke-miterlimit="10" stroke-linejoin="miter" fill="none" stroke="#000000" d="M 80.94673 0 L 80.94673 159.39928 "/>
<path transform="matrix(0,-1,-1,-0,81.14573,15.082718)" d="M 1.99252 0 L -1.19551 1.59401 L 0 0 L -1.19551 -1.59401 "/>
<symbol id="font_0_1">
<path d="M .57600006 0 C .59300008 0 .611 0 .611 .019999996 C .611 .040000008 .59300008 .040000008 .57600006 .040000008 L .035000005 .040000008 C .018 .040000008 0 .040000008 0 .019999996 C 0 0 .018 0 .035000005 0 L .57600006 0 Z "/>
</symbol>
<use xlink:href="#font_0_1" transform="matrix(9.9626,0,0,-9.9626,10.849896,103.5616)"/>
<symbol id="font_1_2">
<path d="M .07700001 .07700001 L .18300002 .18 C .33900003 .31800003 .39900003 .372 .39900003 .47200004 C .39900003 .586 .30900003 .666 .18700002 .666 C .074 .666 0 .574 0 .485 C 0 .42900003 .05 .42900003 .053000008 .42900003 C .07000001 .42900003 .105000007 .441 .105000007 .48200003 C .105000007 .508 .08700001 .53400006 .052000006 .53400006 C .044000005 .53400006 .042000008 .53400006 .039 .53300008 C .062000004 .59800007 .11600001 .63500007 .17400001 .63500007 C .26500003 .63500007 .308 .554 .308 .47200004 C .308 .39200003 .25800003 .31300003 .20300003 .25100003 L .011000004 .037 C 0 .026 0 .024 0 0 L .37100003 0 L .39900003 .17400001 L .374 .17400001 C .36900003 .14400001 .36200003 .1 .352 .085 C .345 .07700001 .279 .07700001 .257 .07700001 L .07700001 .07700001 Z "/>
</symbol>
<use xlink:href="#font_1_2" transform="matrix(9.9626,0,0,-9.9626,18.27013,105.853)"/>
<use xlink:href="#font_0_1" transform="matrix(9.9626,0,0,-9.9626,43.228899,103.5616)"/>
<symbol id="font_1_1">
<path d="M .205 .64000007 C .205 .66400006 .205 .666 .18200003 .666 C .120000008 .60200008 .032000007 .60200008 0 .60200008 L 0 .57100006 C .020000004 .57100006 .07900001 .57100006 .13100001 .597 L .13100001 .079 C .13100001 .043 .128 .031000002 .038000004 .031000002 L .0060000049 .031000002 L .0060000049 0 C .04100001 .003 .128 .003 .168 .003 C .20800002 .003 .29500003 .003 .33000005 0 L .33000005 .031000002 L .29800005 .031000002 C .20800002 .031000002 .205 .042000005 .205 .079 L .205 .64000007 Z "/>
</symbol>
<use xlink:href="#font_1_1" transform="matrix(9.9626,0,0,-9.9626,51.036676,105.853)"/>
<use xlink:href="#font_1_1" transform="matrix(9.9626,0,0,-9.9626,111.91967,105.853)"/>
<use xlink:href="#font_1_2" transform="matrix(9.9626,0,0,-9.9626,143.90914,105.853)"/>
<symbol id="font_1_3">
<path d="M .24800003 .37400005 C .33 .40100003 .388 .47100006 .388 .55 C .388 .632 .3 .688 .204 .688 C .10300001 .688 .027000003 .628 .027000003 .55200007 C .027000003 .519 .049000004 .5 .078 .5 C .109000008 .5 .12900001 .522 .12900001 .55100008 C .12900001 .6010001 .082 .6010001 .067 .6010001 C .098 .65000006 .164 .66300007 .20000002 .66300007 C .24100003 .66300007 .29600004 .64100006 .29600004 .55100008 C .29600004 .53900006 .29400004 .48100005 .268 .43700005 C .238 .38900004 .204 .38600005 .17900002 .38500003 C .171 .38400004 .14700002 .38200004 .14000002 .38200004 C .132 .38100005 .125 .38000003 .125 .37000004 C .125 .35900004 .132 .35900004 .14900002 .35900004 L .19300002 .35900004 C .275 .35900004 .312 .29100005 .312 .193 C .312 .057000005 .24300003 .028 .199 .028 C .15600002 .028 .081 .045 .046000005 .104 C .081 .09900001 .11200001 .12100001 .11200001 .15900001 C .11200001 .19500001 .085 .215 .056 .215 C .031999999 .215 0 .201 0 .157 C 0 .06600001 .093 0 .20200002 0 C .32400004 0 .41500003 .091000009 .41500003 .193 C .41500003 .27500005 .35200004 .35300005 .24800003 .37400005 Z "/>
</symbol>
<use xlink:href="#font_1_3" transform="matrix(9.9626,0,0,-9.9626,176.20743,106.072177)"/>
<use xlink:href="#font_0_1" transform="matrix(9.9626,0,0,-9.9626,63.595899,158.8466)"/>
<use xlink:href="#font_1_2" transform="matrix(9.9626,0,0,-9.9626,71.01613,161.138)"/>
<use xlink:href="#font_0_1" transform="matrix(9.9626,0,0,-9.9626,63.595899,126.56859)"/>
<use xlink:href="#font_1_1" transform="matrix(9.9626,0,0,-9.9626,71.40467,128.85999)"/>
<use xlink:href="#font_1_1" transform="matrix(9.9626,0,0,-9.9626,71.40467,64.719)"/>
<use xlink:href="#font_1_2" transform="matrix(9.9626,0,0,-9.9626,71.01613,32.440996)"/>
<clipPath id="cp2">
<path transform="matrix(1,0,0,-1,.199,174.482)" d="M 0 0 L 194.27216 0 L 194.27216 161.3918 L 0 161.3918 Z "/>
</clipPath>
<g clip-path="url(#cp2)">
<path transform="matrix(1,0,0,-1,.199,174.482)" stroke-width="1" stroke-linecap="butt" stroke-miterlimit="10" stroke-linejoin="miter" fill="none" stroke="#000080" d="M 178.08281 80.69589 C 178.08281 80.69589 178.06941 81.91942 178.05529 82.38933 C 178.04114 82.85924 178.00843 83.61339 177.98082 84.08273 C 177.95322 84.55208 177.89756 85.30373 177.85628 85.77208 C 177.815 86.24043 177.73848 86.99155 177.68335 87.45836 C 177.6282 87.92517 177.52716 88.67195 177.45888 89.13654 C 177.39058 89.60112 177.2725 90.34422 177.19112 90.80685 C 177.10973 91.26949 176.96802 92.01126 176.87226 92.47092 C 176.7765 92.93059 176.60984 93.66367 176.50086 94.11987 C 176.39189 94.5761 176.20874 95.30626 176.08689 95.759 C 175.96503 96.21175 175.75812 96.93407 175.62258 97.38303 C 175.48705 97.83199 175.2584 98.5503 175.10994 98.99483 C 174.96147 99.43938 174.71355 100.14754 174.55249 100.58702 C 174.39142 101.02649 174.12236 101.72827 173.94904 102.16232 C 173.77573 102.59636 173.48937 103.28696 173.30324 103.71538 C 173.11713 104.1438 172.80615 104.82732 172.6076 105.25014 C 172.40904 105.67297 172.08298 106.34659 171.87215 106.76291 C 171.66132 107.17923 171.31014 107.84123 171.08802 108.2508 C 170.86589 108.66034 170.5047 109.31238 170.27127 109.71475 C 170.03784 110.11714 169.65099 110.75607 169.40554 111.15096 C 169.16008 111.54585 168.75902 112.17392 168.50217 112.56085 C 168.24532 112.94778 167.82187 113.56119 167.55422 113.93976 C 167.28658 114.31834 166.8509 114.9192 166.57309 115.28941 C 166.29528 115.6596 165.84026 116.2464 165.55184 116.60793 C 165.26342 116.96944 164.79224 117.54262 164.49425 117.895 C 164.19626 118.24738 163.71204 118.80502 163.40409 119.14774 C 163.09612 119.49045 162.59235 120.03181 162.27465 120.36505 C 161.95693 120.69827 161.44019 121.22626 161.1142 121.54942 C 160.78821 121.87257 160.2603 122.38132 159.92504 122.69426 C 159.58977 123.00722 159.04184 123.50246 158.69776 123.80495 C 158.35366 124.10744 157.79662 124.58286 157.44495 124.87442 C 157.09328 125.166 156.52208 125.62596 156.16307 125.90652 C 155.80406 126.18707 155.2237 126.62729 154.85742 126.89651 C 154.49115 127.16574 153.89684 127.58905 153.52315 127.84697 C 153.14945 128.10489 152.54393 128.50922 152.16408 128.75548 C 151.78423 129.00173 151.17168 129.38767 150.78534 129.62189 C 150.39902 129.8561 149.77176 130.22107 149.37961 130.4436 C 148.98746 130.66616 148.35643 131.01563 147.95894 131.22588 C 147.56143 131.43611 146.91744 131.76111 146.51465 131.9589 C 146.11188 132.1567 145.4628 132.46559 145.05599 132.65152 C 144.64916 132.83744 143.99349 133.12561 143.5825 133.2989 C 143.17154 133.4722 142.50897 133.7402 142.09397 133.90055 C 141.67896 134.06087 141.00977 134.30699 140.59137 134.45456 C 140.17298 134.60213 139.49954 134.82917 139.07842 134.96417 C 138.65727 135.09918 137.97948 135.30544 137.55603 135.4277 C 137.1326 135.54998 136.45249 135.73628 136.02654 135.8455 C 135.60059 135.95475 134.91355 136.11855 134.48604 136.215 C 134.05855 136.31143 133.37415 136.45738 132.9454 136.54062 C 132.51667 136.62386 131.82563 136.74456 131.3959 136.81491 C 130.96619 136.88527 130.27814 136.99037 129.84824 137.04779 C 129.41834 137.10521 128.72792 137.18465 128.29749 137.22879 C 127.86705 137.27292 127.17581 137.33419 126.74593 137.36594 C 126.31604 137.39769 125.62772 137.43869 125.19913 137.45772 C 124.77054 137.47676 124.08438 137.49713 123.65688 137.5032 C 123.22939 137.5093 122.54413 137.50832 122.11801 137.50165 C 121.69191 137.49497 121.00974 137.4742 120.58574 137.45507 C 120.16173 137.43593 119.48358 137.39537 119.06212 137.36365 C 118.64066 137.33191 117.96646 137.27031 117.54808 137.22637 C 117.12968 137.18242 116.46184 137.10314 116.04665 137.04683 C 115.63147 136.99053 114.96754 136.88903 114.55566 136.8205 C 114.1438 136.75196 113.48589 136.63304 113.07814 136.55283 C 112.6704 136.47261 112.02039 136.33444 111.6169 136.24222 C 111.21341 136.15001 110.5689 135.99198 110.17003 135.8882 C 109.77115 135.78441 109.1356 135.60913 108.74211 135.49417 C 108.34863 135.37923 107.7221 135.18579 107.33397 135.05957 C 106.94583 134.93335 106.32698 134.72162 105.94467 134.5844 C 105.56238 134.44719 104.95456 134.21845 104.57854 134.07057 C 104.20251 133.9227 103.60442 133.67711 103.23453 133.51862 C 102.86465 133.36013 102.27563 133.09691 101.9127 132.92819 C 101.54977 132.75946 100.97426 132.48107 100.61867 132.30248 C 100.26308 132.12389 99.69821 131.8292 99.34984 131.64092 C 99.00145 131.45264 98.44847 131.14325 98.10771 130.94545 C 97.76694 130.74767 97.22644 130.4224 96.89375 130.21535 C 96.56108 130.00832 96.0344 129.66893 95.70998 129.45325 C 95.38556 129.23757 94.87173 128.8852 94.55557 128.66077 C 94.2394 128.43634 93.73846 128.06839 93.43114 127.83571 C 93.12381 127.60303 92.63878 127.22423 92.34056 126.9837 C 92.04234 126.74318 91.57071 126.3501 91.28171 126.1021 C 90.99269 125.85408 90.5371 125.45143 90.2575 125.19624 C 89.97794 124.94107 89.53673 124.52527 89.2666 124.26288 C 88.99648 124.00049 88.57085 123.57402 88.31062 123.30513 C 88.0504 123.03622 87.64111 122.59973 87.391 122.32484 C 87.14091 122.04994 86.74805 121.6046 86.50803 121.3238 C 86.26799 121.04301 85.8908 120.58731 85.66098 120.30096 C 85.43117 120.01462 85.07088 119.55124 84.85167 119.26001 C 84.63248 118.9688 84.28973 118.49797 84.08113 118.20201 C 83.87253 117.90607 83.54633 117.42747 83.34822 117.1269 C 83.1501 116.82632 82.8405 116.34021 82.65318 116.03566 C 82.46587 115.73111 82.17451 115.23984 81.99814 114.93185 C 81.82176 114.62389 81.54738 114.127 81.38199 113.81595 C 81.21661 113.50488 80.96048 113.0038 80.80614 112.68988 C 80.6518 112.37598 80.413 111.87 80.26958 111.55344 C 80.12614 111.23686 79.90474 110.72693 79.77234 110.40826 C 79.63995 110.0896 79.43655 109.57703 79.31528 109.2567 C 79.19402 108.93639 79.00842 108.42117 78.89824 108.09955 C 78.78806 107.77791 78.62018 107.26097 78.5211 106.93863 C 78.42201 106.61629 78.27213 106.09915 78.18408 105.77625 C 78.09605 105.45334 77.96365 104.93468 77.8866 104.61131 C 77.80954 104.28795 77.69469 103.76857 77.62863 103.44557 C 77.56259 103.12259 77.46562 102.60565 77.41049 102.2833 C 77.35535 101.96094 77.27553 101.44383 77.23119 101.12221 C 77.18684 100.8006 77.12444 100.28531 77.09088 99.96524 C 77.05733 99.64516 77.01218 99.13359 76.98929 98.81522 C 76.9664 98.49686 76.93814 97.98698 76.92577 97.67065 C 76.91339 97.35431 76.90201 96.84921 76.90005 96.53526 C 76.89809 96.22131 76.9033 95.71902 76.91159 95.40784 C 76.91988 95.09665 76.94145 94.60045 76.95985 94.29243 C 76.97827 93.98444 77.01598 93.49274 77.04437 93.18793 C 77.07277 92.8831 77.12642 92.3965 77.16463 92.09549 C 77.20284 91.79448 77.27199 91.31508 77.31976 91.01836 C 77.36754 90.72163 77.45192 90.24898 77.50906 89.95688 C 77.56621 89.66478 77.66533 89.2004 77.73169 88.91296 C 77.79805 88.62552 77.91203 88.16776 77.9874 87.88515 C 78.06277 87.60255 78.19087 87.15344 78.27502 86.87608 C 78.35918 86.59871 78.50134 86.15785 78.59406 85.88605 C 78.68677 85.61424 78.84233 85.18292 78.94333 84.91702 C 79.04434 84.65112 79.21306 84.22925 79.32205 83.96957 C 79.43103 83.70992 79.61218 83.2987 79.72887 83.04553 C 79.84555 82.79236 80.03888 82.39162 80.16318 82.14487 C 80.28746 81.89813 80.49327 81.50694 80.62476 81.2671 C 80.75623 81.02727 80.97253 80.64883 81.11089 80.4162 C 81.24925 80.18356 81.47696 79.81578 81.62195 79.59042 C 81.76695 79.36507 82.00475 79.00964 82.15599 78.7919 C 82.30722 78.57417 82.55466 78.23126 82.71202 78.02104 C 82.8694 77.81084 83.12709 77.47931 83.2903 77.27681 C 83.4535 77.07433 83.71988 76.75592 83.88835 76.56161 C 84.05684 76.3673 84.33122 76.06233 84.5047 75.87628 C 84.67819 75.69022 84.96059 75.39828 85.13878 75.2206 C 85.31697 75.04292 85.60646 74.76491 85.78912 74.59564 C 85.97177 74.42639 86.26825 74.16159 86.45522 74.00069 C 86.64217 73.83977 86.94612 73.5879 87.13661 73.43588 C 87.32709 73.28386 87.63434 73.04816 87.82814 72.90498 C 88.02196 72.76181 88.33653 72.53842 88.53352 72.40395 C 88.7305 72.26947 89.04836 72.06117 89.24794 71.9357 C 89.44751 71.81021 89.77013 71.61595 89.97198 71.49954 C 90.17386 71.38315 90.49904 71.20413 90.70291 71.09674 C 90.90678 70.98935 91.23602 70.82382 91.44144 70.72551 C 91.64687 70.6272 91.9767 70.47745 92.18349 70.38818 C 92.39026 70.2989 92.72383 70.16237 92.93175 70.08205 C 93.13966 70.00171 93.47365 69.88039 93.68208 69.80917 C 93.89052 69.73798 94.22548 69.63084 94.43402 69.56873 C 94.64258 69.50662 94.97679 69.41455 95.18527 69.36145 C 95.39377 69.30835 95.72865 69.23013 95.93681 69.18596 C 96.14497 69.14178 96.47845 69.07828 96.6856 69.04305 C 96.89273 69.00781 97.22368 68.95847 97.42984 68.93198 C 97.63599 68.9055 97.96669 68.86984 98.1715 68.85214 C 98.3763 68.83443 98.70319 68.81322 98.90593 68.80424 C 99.10869 68.79526 99.4322 68.78781 99.63286 68.78731 C 99.83351 68.7868 100.15407 68.79259 100.35213 68.8005 C 100.5502 68.80843 100.86497 68.82831 101.06044 68.84447 C 101.25589 68.86063 101.56847 68.89267 101.76082 68.917 C 101.95317 68.94135 102.25789 68.98752 102.4468 69.0199 C 102.6357 69.05228 102.93713 69.11028 103.12233 69.15048 C 103.30751 69.19069 103.60048 69.26196 103.78162 69.30974 C 103.96277 69.3575 104.2509 69.43973 104.42801 69.49483 C 104.6051 69.54994 104.88577 69.64447 105.05815 69.707 C 105.23051 69.76955 105.50298 69.87593 105.67038 69.94563 C 105.83778 70.01534 106.10228 70.13301 106.26476 70.20946 C 106.42723 70.28592 106.6841 70.4138 106.84145 70.49673 C 106.99878 70.57967 107.2472 70.71793 107.39883 70.80722 C 107.55048 70.89651 107.78871 71.0449 107.93446 71.14034 C 108.08022 71.23578 108.30988 71.39377 108.44945 71.4951 C 108.58902 71.59645 108.80734 71.76378 108.94041 71.87077 C 109.07347 71.97778 109.28163 72.15395 109.40854 72.26636 C 109.53545 72.37875 109.73491 72.56345 109.85513 72.68095 C 109.97534 72.79846 110.16165 72.99121 110.27501 73.11339 C 110.38837 73.23557 110.56577 73.43513 110.67227 73.56163 C 110.77876 73.68813 110.94385 73.89424 111.04272 74.02509 C 111.1416 74.15593 111.29332 74.36984 111.38496 74.50476 C 111.47661 74.63968 111.61885 74.85913 111.70326 74.99753 C 111.78767 75.13593 111.91689 75.36069 111.99345 75.50232 C 112.07002 75.64395 112.1863 75.87381 112.25519 76.01843 C 112.32408 76.16304 112.42876 76.39742 112.49002 76.5447 C 112.55128 76.69197 112.64403 76.9303 112.69678 77.07993 C 112.74953 77.22954 112.82558 77.4715 112.8703 77.6231 C 112.91502 77.77469 112.98209 78.01929 113.01912 78.17259 C 113.05615 78.32591 113.10818 78.57344 113.1372 78.72812 C 113.16623 78.8828 113.20763 79.13187 113.22835 79.2875 C 113.24905 79.44315 113.27432 79.69365 113.28658 79.8499 C 113.29883 80.00616 113.3125 80.25732 113.31667 80.41382 C 113.32083 80.57033 113.32083 80.82144 113.31667 80.97795 C 113.3125 81.13446 113.29883 81.3856 113.28658 81.54187 C 113.27432 81.69814 113.24905 81.94862 113.22835 82.10426 C 113.20763 82.2599 113.16637 82.50902 113.1372 82.66365 C 113.10805 82.81828 113.0549 83.06557 113.01814 83.2188 C 112.98138 83.37204 112.91708 83.61653 112.87224 83.76817 C 112.8274 83.91982 112.74786 84.16206 112.69484 84.31172 C 112.64182 84.46136 112.55115 84.69948 112.49002 84.84676 C 112.4289 84.99402 112.32312 85.22864 112.25423 85.37326 C 112.18533 85.51787 112.06976 85.74748 111.99345 85.88914 C 111.91714 86.03082 111.78836 86.2559 111.70421 86.39435 C 111.62004 86.5328 111.47862 86.75218 111.38686 86.88696 C 111.29507 87.02174 111.14186 87.23495 111.04272 87.36577 C 110.94359 87.49658 110.77852 87.7031 110.67227 87.82983 C 110.56602 87.95657 110.39049 88.15714 110.27686 88.27931 C 110.16324 88.40149 109.97362 88.5932 109.85327 88.71048 C 109.73294 88.82777 109.53612 89.01233 109.40947 89.12471 C 109.28282 89.23708 109.07361 89.4133 108.94041 89.5204 C 108.8072 89.6275 108.5889 89.79521 108.44945 89.89667 C 108.31 89.99812 108.08138 90.15627 107.93536 90.25165 C 107.78935 90.34702 107.5486 90.49477 107.39706 90.58409 C 107.24553 90.67343 107.00029 90.81245 106.84319 90.89552 C 106.6861 90.97859 106.42747 91.10654 106.26476 91.18286 C 106.10204 91.25917 105.83778 91.37604 105.67038 91.4456 C 105.50298 91.51517 105.2304 91.62161 105.05815 91.68423 C 104.8859 91.74686 104.60596 91.84178 104.42886 91.89697 C 104.25175 91.95215 103.96301 92.03435 103.78162 92.08205 C 103.60023 92.12973 103.30658 92.2005 103.1215 92.24075 C 102.93642 92.281 102.6364 92.33977 102.44762 92.3722 C 102.25883 92.40463 101.95306 92.45015 101.76082 92.47453 C 101.56857 92.49892 101.25757 92.53181 101.06201 92.54796 C 100.86646 92.5641 100.54964 92.58305 100.35135 92.59091 C 100.15308 92.59877 99.8334 92.60515 99.63286 92.6047 C 99.43231 92.60425 99.10869 92.5966 98.90593 92.58754 C 98.70319 92.57846 98.37608 92.55684 98.1715 92.53923 C 97.9669 92.5216 97.63725 92.48685 97.43129 92.46054 C 97.22534 92.43422 96.89438 92.38483 96.68703 92.3495 C 96.47966 92.31418 96.14508 92.25008 95.93681 92.20581 C 95.72855 92.16154 95.39445 92.08351 95.18596 92.03036 C 94.97746 91.97722 94.6425 91.8847 94.43402 91.8227 C 94.22556 91.76068 93.89182 91.65459 93.68338 91.58344 C 93.47495 91.51227 93.13968 91.39006 92.93175 91.30974 C 92.72382 91.2294 92.39153 91.09378 92.18474 91.00446 C 91.97797 90.91515 91.64696 90.76436 91.44144 90.66597 C 91.23593 90.56758 90.90738 90.40274 90.7035 90.29535 C 90.49963 90.18796 90.17393 90.00844 89.97198 89.89197 C 89.77005 89.77548 89.44751 89.5813 89.24794 89.45586 C 89.04836 89.3304 88.73035 89.12213 88.53352 88.98782 C 88.33669 88.85352 88.02318 88.63107 87.82921 88.48776 C 87.63525 88.34445 87.32607 88.10695 87.13557 87.95491 C 86.94508 87.80289 86.64304 87.55269 86.4562 87.3919 C 86.2694 87.23114 85.97177 86.96538 85.78912 86.79613 C 85.60646 86.62689 85.3179 86.34975 85.13971 86.17207 C 84.9615 85.99438 84.67833 85.70168 84.5047 85.5155 C 84.33109 85.32932 84.0568 85.0244 83.88835 84.83017 C 83.71991 84.63593 83.45381 84.31784 83.29071 84.1155 C 83.12761 83.91313 82.87013 83.58186 82.7128 83.37173 C 82.55548 83.16159 82.30806 82.81882 82.15671 82.60095 C 82.00536 82.38307 81.76697 82.0267 81.62195 81.80135 C 81.47694 81.576 81.2499 81.20932 81.11154 80.97668 C 80.97319 80.74405 80.75624 80.3645 80.62476 80.12466 C 80.49326 79.88483 80.28796 79.49463 80.16374 79.24806 C 80.03954 79.00148 79.84619 78.60077 79.72942 78.34744 C 79.61263 78.09412 79.4311 77.682 79.32205 77.4222 C 79.21298 77.16238 79.04434 76.74069 78.94333 76.4748 C 78.84233 76.2089 78.68672 75.77737 78.59406 75.50572 C 78.50139 75.23409 78.35956 74.79428 78.2754 74.51694 C 78.19125 74.2396 78.06284 73.78955 77.9874 73.50679 C 77.91197 73.22403 77.79805 72.76646 77.73169 72.479 C 77.66533 72.19153 77.56621 71.72704 77.50906 71.43489 C 77.45192 71.14276 77.36754 70.67015 77.31976 70.37341 C 77.27199 70.07669 77.20282 69.5972 77.16463 69.29628 C 77.12643 68.99536 77.07285 68.50925 77.04445 68.20447 C 77.01605 67.8997 76.97829 67.40773 76.95985 67.09961 C 76.94144 66.79149 76.91988 66.2949 76.91159 65.98378 C 76.9033 65.67265 76.89807 65.17108 76.90004 64.85715 C 76.902 64.54321 76.91339 64.03746 76.92577 63.72112 C 76.93814 63.40479 76.96635 62.8955 76.98924 62.57718 C 77.01213 62.25887 77.05734 61.74692 77.09088 61.42691 C 77.12442 61.10692 77.1867 60.59232 77.231 60.27081 C 77.2753 59.94933 77.35512 59.43213 77.41026 59.10976 C 77.4654 58.78738 77.56248 58.27013 77.6285 57.9473 C 77.69452 57.62445 77.80905 57.1063 77.88611 56.78287 C 77.96317 56.45943 78.09581 55.9394 78.1839 55.61617 C 78.272 55.29294 78.42206 54.77547 78.5211 54.45314 C 78.62013 54.13081 78.7876 53.61461 78.89778 53.29297 C 79.00798 52.97134 79.19394 52.4555 79.31528 52.13507 C 79.43663 51.81464 79.63998 51.30208 79.77234 50.9835 C 79.90471 50.66493 80.12585 50.15555 80.26929 49.83897 C 80.4127 49.52242 80.65176 49.01588 80.80614 48.70189 C 80.96051 48.3879 81.21672 47.8867 81.38199 47.57584 C 81.54727 47.26495 81.82104 46.76917 81.9974 46.4612 C 82.17378 46.15321 82.46588 45.66068 82.65318 45.35611 C 82.84048 45.05156 83.14934 44.56659 83.3474 44.26614 C 83.54544 43.96571 83.87204 43.48682 84.08069 43.19078 C 84.28934 42.89473 84.63196 42.42386 84.85121 42.1324 C 85.07048 41.84093 85.4311 41.37645 85.66098 41.09001 C 85.89085 40.80357 86.26799 40.34866 86.50803 40.06796 C 86.74805 39.78728 87.14091 39.34183 87.391 39.06694 C 87.64111 38.79204 88.0504 38.35555 88.31062 38.08665 C 88.57085 37.81775 88.99664 37.3911 89.2666 37.12889 C 89.53656 36.86668 89.97675 36.45201 90.25633 36.19676 C 90.5359 35.94153 90.99278 35.53719 91.28171 35.28922 C 91.57062 35.04123 92.04054 34.64996 92.33867 34.40952 C 92.6368 34.16907 93.1231 33.78891 93.43048 33.5562 C 93.73788 33.32349 94.23813 32.95654 94.5542 32.73228 C 94.87027 32.50803 95.38406 32.15573 95.70856 31.9398 C 96.03307 31.72388 96.56027 31.3831 96.89304 31.17598 C 97.22581 30.96886 97.7662 30.64471 98.10698 30.44693 C 98.44774 30.24913 99.00067 29.93864 99.34906 29.75037 C 99.69743 29.56209 100.26231 29.26836 100.61789 29.0899 C 100.97346 28.91145 101.54897 28.6329 101.9119 28.46417 C 102.27483 28.29546 102.86397 28.03215 103.2337 27.87375 C 103.60345 27.71535 104.2008 27.47037 104.57683 27.32242 C 104.95285 27.17447 105.56151 26.94458 105.94382 26.80736 C 106.32611 26.67014 106.94409 26.4595 107.33221 26.33336 C 107.72034 26.20721 108.3476 26.0134 108.7412 25.89818 C 109.13481 25.78296 109.77036 25.60658 110.1691 25.50288 C 110.56783 25.39917 111.21152 25.2428 111.61502 25.15068 C 112.01851 25.05855 112.66946 24.91916 113.0772 24.83885 C 113.48491 24.75854 114.14209 24.64008 114.55367 24.5718 C 114.96524 24.5035 115.62831 24.4029 116.04362 24.34659 C 116.45894 24.29028 117.12854 24.20998 117.54706 24.16595 C 117.96556 24.12193 118.63872 24.06085 119.06003 24.02919 C 119.48134 23.99754 120.15979 23.95702 120.58362 23.93776 C 121.00745 23.9185 121.68852 23.89732 122.11476 23.89027 C 122.54102 23.88324 123.228 23.88092 123.65578 23.88695 C 124.08356 23.89299 124.76926 23.91476 125.198 23.93384 C 125.62674 23.9529 126.31621 23.99265 126.74593 24.02438 C 127.17564 24.0561 127.86508 24.11804 128.29518 24.1625 C 128.7253 24.20697 129.41603 24.28754 129.84592 24.34494 C 130.27579 24.40234 130.964 24.50589 131.39356 24.57631 C 131.82309 24.64674 132.51273 24.76947 132.94179 24.85257 C 133.37087 24.93565 134.0584 25.07907 134.48604 25.17523 C 134.9137 25.27138 135.59847 25.43616 136.02408 25.54561 C 136.44968 25.65506 137.12978 25.84213 137.55355 25.96419 C 137.97731 26.08623 138.65746 26.29025 139.07842 26.42522 C 139.49936 26.56018 140.16931 26.78906 140.58754 26.9369 C 141.00577 27.08476 141.67749 27.33049 142.09267 27.49088 C 142.50786 27.65125 143.16873 27.91965 143.57988 28.09286 C 143.99103 28.2661 144.64879 28.55386 145.05599 28.73944 C 145.46317 28.925 146.11208 29.23265 146.51465 29.43039 C 146.91724 29.62811 147.56023 29.95435 147.95754 30.16464 C 148.35485 30.37492 148.98648 30.72337 149.37825 30.946 C 149.77002 31.16864 150.39466 31.53479 150.78118 31.76932 C 151.16771 32.00383 151.78403 32.3901 152.16408 32.63629 C 152.54413 32.88249 153.14704 33.2861 153.52034 33.54376 C 153.89363 33.80142 154.48813 34.22404 154.8546 34.49333 C 155.22107 34.76262 155.80226 35.20413 156.16167 35.48471 C 156.52108 35.76529 157.0931 36.22406 157.44495 36.51558 C 157.79682 36.80711 158.35407 37.2835 158.69776 37.58594 C 159.04143 37.88838 159.58684 38.38261 159.9221 38.69543 C 160.25737 39.00824 160.788 39.51732 161.1142 39.84056 C 161.4404 40.1638 161.95587 40.69217 162.27317 41.0252 C 162.59046 41.35825 163.09336 41.89809 163.40111 42.24095 C 163.70885 42.58382 164.19307 43.1439 164.49126 43.49638 C 164.78945 43.84885 165.26149 44.42004 165.55033 44.78134 C 165.83917 45.14265 166.29506 45.73024 166.57309 46.10052 C 166.85112 46.47081 167.287 47.07141 167.55422 47.45016 C 167.82144 47.82893 168.24246 48.4436 168.4991 48.83043 C 168.75574 49.21727 169.15807 49.84381 169.40393 50.23825 C 169.64981 50.63268 170.03762 51.27078 170.27127 51.67326 C 170.50493 52.07576 170.86634 52.72911 171.08802 53.1391 C 171.3097 53.5491 171.65818 54.2122 171.86902 54.62827 C 172.07985 55.04433 172.40862 55.71559 172.6076 56.13785 C 172.8066 56.56009 173.11713 57.24284 173.30324 57.67166 C 173.48937 58.10048 173.77573 58.79419 173.94904 59.2285 C 174.12236 59.6628 174.39163 60.36253 174.55249 60.80188 C 174.71334 61.24124 174.9599 61.9506 175.10836 62.39514 C 175.25682 62.83968 175.48705 63.55705 175.62258 64.00587 C 175.75812 64.4547 175.96341 65.17723 176.08527 65.62997 C 176.20713 66.08272 176.39168 66.81255 176.50086 67.26901 C 176.61005 67.72546 176.77695 68.46019 176.87226 68.91988 C 176.96758 69.37958 177.10652 70.11978 177.18791 70.58215 C 177.2693 71.04453 177.39015 71.7875 177.45888 72.25235 C 177.5276 72.7172 177.6282 73.46565 177.68335 73.93246 C 177.73848 74.39926 177.815 75.14871 177.85628 75.61679 C 177.89756 76.08487 177.95322 76.83679 177.98082 77.30614 C 178.00843 77.77548 178.04158 78.52963 178.05529 78.99954 C 178.06897 79.46944 178.07958 80.69298 178.07958 80.69298 "/>
<symbol id="font_3_1">
<path d="M .263 .316 L .43300004 .316 C .575 .316 .714 .42000003 .714 .532 C .714 .609 .648 .683 .517 .683 L .193 .683 C .17400001 .683 .163 .683 .163 .66400006 C .163 .652 .172 .652 .192 .652 C .205 .652 .223 .651 .235 .65000006 C .25100003 .648 .25700004 .64500007 .25700004 .634 C .25700004 .63000008 .256 .62700006 .25300003 .615 L .119 .078 C .109 .039 .10699999 .031000002 .028 .031000002 C .011 .031000002 0 .031000002 0 .012 C 0 0 .011999998 0 .015000001 0 C .043 0 .11400001 .003 .142 .003 C .163 .003 .185 .002 .206 .002 C .228 .002 .25000004 0 .27100004 0 C .27800004 0 .29100005 0 .29100005 .020000002 C .29100005 .031000002 .28200004 .031000002 .263 .031000002 C .226 .031000002 .198 .031000002 .198 .049000004 C .198 .055000005 .2 .060000004 .201 .066 L .263 .316 M .33500005 .614 C .344 .64900007 .34600003 .652 .38900004 .652 L .48500005 .652 C .568 .652 .621 .625 .621 .55600008 C .621 .517 .601 .43100003 .56200006 .395 C .512 .35000003 .45200003 .342 .40800003 .342 L .26700003 .342 L .33500005 .614 Z "/>
</symbol>
<use xlink:href="#font_3_1" transform="matrix(9.9626,0,0,-9.9626,103.5565,116.558)"/>
</g>
<path transform="matrix(1,0,0,-1,.199,174.482)" d="M 103.46736 68.882 C 103.46736 69.98248 102.57529 70.87456 101.47481 70.87456 C 100.37434 70.87456 99.48225 69.98248 99.48225 68.882 C 99.48225 67.78154 100.37434 66.88945 101.47481 66.88945 C 102.57529 66.88945 103.46736 67.78154 103.46736 68.882 Z M 101.47481 68.882 "/>
<path transform="matrix(1,0,0,-1,.199,174.482)" stroke-width="1" stroke-linecap="butt" stroke-miterlimit="10" stroke-linejoin="miter" fill="none" stroke="#000000" d="M 103.46736 68.882 C 103.46736 69.98248 102.57529 70.87456 101.47481 70.87456 C 100.37434 70.87456 99.48225 69.98248 99.48225 68.882 C 99.48225 67.78154 100.37434 66.88945 101.47481 66.88945 C 102.57529 66.88945 103.46736 67.78154 103.46736 68.882 Z M 101.47481 68.882 "/>
<symbol id="font_3_2">
<path d="M .305 .31300003 C .311 .33900003 .334 .43100003 .404 .43100003 C .409 .43100003 .433 .43100003 .454 .418 C .426 .41300003 .40600003 .388 .40600003 .36400003 C .40600003 .34800003 .417 .32900004 .444 .32900004 C .46600003 .32900004 .498 .34700004 .498 .38700003 C .498 .43900005 .439 .45300005 .405 .45300005 C .347 .45300005 .312 .40000005 .3 .37700004 C .275 .44300003 .221 .45300005 .19200002 .45300005 C .08800001 .45300005 .031000002 .32400004 .031000002 .29900003 C .031000002 .28900004 .041 .28900004 .043000007 .28900004 C .051000008 .28900004 .054000006 .291 .056 .3 C .09 .40600003 .156 .43100003 .19000001 .43100003 C .209 .43100003 .244 .42200003 .244 .36400003 C .244 .33300004 .22700002 .26600004 .19000001 .126 C .17400001 .064 .13900002 .022000002 .095000009 .022000002 C .08900001 .022000002 .06600001 .022000002 .045 .035 C .07000001 .040000004 .09200001 .061 .09200001 .089 C .09200001 .116000007 .07000001 .124000009 .055000009 .124000009 C .025 .124000009 0 .098000008 0 .06600001 C 0 .020000002 .050000006 0 .094000007 0 C .16000001 0 .19600001 .07000001 .19900002 .076000008 C .21100001 .039 .24700003 0 .307 0 C .41 0 .467 .12900001 .467 .15400002 C .467 .16400002 .458 .16400002 .455 .16400002 C .446 .16400002 .444 .16000001 .442 .15300001 C .409 .046 .341 .022000002 .30900003 .022000002 C .27 .022000002 .254 .054 .254 .08800001 C .254 .11000001 .26 .13200002 .271 .17600002 L .305 .31300003 Z "/>
</symbol>
<use xlink:href="#font_3_2" transform="matrix(9.9626,0,0,-9.9626,198.30591,96.02959)"/>
<symbol id="font_3_3">
<path d="M .45700003 .586 C .461 .6 .461 .602 .461 .609 C .461 .62700006 .447 .63600006 .432 .63600006 C .42200003 .63600006 .40600003 .63 .397 .615 C .395 .61 .387 .579 .38300003 .561 C .37600003 .535 .36900003 .508 .363 .48100005 L .318 .301 C .314 .286 .271 .21600002 .20500002 .21600002 C .15400002 .21600002 .143 .26000003 .143 .29700003 C .143 .34300003 .16000001 .40500004 .194 .49300004 C .21000001 .53400006 .21400002 .545 .21400002 .56500008 C .21400002 .61 .18200001 .6470001 .13200002 .6470001 C .037 .6470001 0 .50200006 0 .49300004 C 0 .48300005 .01 .48300005 .012 .48300005 C .022000002 .48300005 .023 .485 .028000003 .50100007 C .055000009 .595 .095000009 .625 .12900001 .625 C .13700001 .625 .15400002 .625 .15400002 .59300008 C .15400002 .568 .14400001 .54200008 .13700001 .523 C .097 .41700004 .079 .36 .079 .31300003 C .079 .224 .142 .194 .201 .194 C .24000003 .194 .274 .21100001 .30200003 .23900002 C .289 .187 .277 .13800001 .237 .08500001 C .21100001 .051 .17300001 .022 .127 .022 C .113000009 .022 .068 .025000006 .051000008 .06400001 C .067 .06400001 .080000009 .06400001 .094000007 .076000008 C .104 .08500001 .11400001 .098000008 .11400001 .117000009 C .11400001 .148 .087000008 .15200001 .07700001 .15200001 C .054000006 .15200001 .021 .136 .021 .087000008 C .021 .037 .065000008 0 .127 0 C .23 0 .333 .091000009 .361 .20400001 L .45700003 .586 Z "/>
</symbol>
<use xlink:href="#font_3_3" transform="matrix(9.9626,0,0,-9.9626,78.82591,9.652334)"/>
</svg>
