<?xml version="1.0" encoding="UTF-8" standalone="no"?>
<!DOCTYPE svg PUBLIC "-//W3C//DTD SVG 1.1//EN" "http://www.w3.org/Graphics/SVG/1.1/DTD/svg11.dtd">
<svg xmlns="http://www.w3.org/2000/svg" xmlns:xlink="http://www.w3.org/1999/xlink" version="1.1" width="207.032pt" height="174.681pt" viewBox="0 0 207.032 174.681">
<path transform="matrix(1,0,0,-1,.199,174.482)" stroke-width="1" stroke-linecap="butt" stroke-miterlimit="10" stroke-linejoin="miter" fill="none" stroke="#808080" d="M 16.18935 78.56996 L 16.18935 82.82181 M 48.56804 78.56996 L 48.56804 82.82181 M 113.32542 78.56996 L 113.32542 82.82181 M 145.70412 78.56996 L 145.70412 82.82181 M 178.08281 78.56996 L 178.08281 82.82181 "/>
<path transform="matrix(1,0,0,-1,.199,174.482)" stroke-width="1" stroke-linecap="butt" stroke-miterlimit="10" stroke-linejoin="miter" fill="none" stroke="#808080" d="M 78.82083 16.13918 L 83.0726 16.13918 M 78.82083 48.41753 L 83.0726 48.41753 M 78.82083 112.97426 L 83.0726 112.97426 M 78.82083 145.25261 L 83.0726 145.25261 "/>
<path transform="matrix(1,0,0,-1,.199,174.482)" stroke-width="1" stroke-linecap="butt" stroke-miterlimit="10" stroke-linejoin="miter" fill="none" stroke="#000000" d="M 0 80.69589 L 192.27964 80.69589 "/>
<path transform="matrix(1,0,0,-1,192.47864,93.7861)" d="M 1.99252 0 L -1.19551 1.59401 L 0 0 L -1.19551 -1.59401 "/>
<path transform="matrix(1,0,0,-1,.199,174.482)" stroke-width="1" stroke-linecap="butt" stroke-miterlimit="10" stroke-linejoin="miter" fill="none" stroke="#000000" d="M 80.94673 0 L 80.94673 159.39928 "/>
<path transform="matrix(0,-1,-1,-0,81.14573,15.082718)" d="M 1.99252 0 L -1.19551 1.59401 L 0 0 L -1.19551 -1.59401 "/>
<symbol id="font_0_1">
<path d="M .57600006 0 C .59300008 0 .611 0 .611 .019999996 C .611 .040000008 .59300008 .040000008 .57600006 .040000008 L .035000005 .040000008 C .018 .040000008 0 .040000008 0 .019999996 C 0 0 .018 0 .035000005 0 L .57600006 0 Z "/>
</symbol>
<use xlink:href="#font_0_1" transform="matrix(9.9626,0,0,-9.9626,10.849896,103.5616)"/>
<symbol id="font_1_2">
<path d="M .07700001 .07700001 L .18300002 .18 C .33900003 .31800003 .39900003 .372 .39900003 .47200004 C .39900003 .586 .30900003 .666 .18700002 .666 C .074 .666 0 .574 0 .485 C 0 .42900003 .05 .42900003 .053000008 .42900003 C .07000001 .42900003 .105000007 .441 .105000007 .48200003 C .105000007 .508 .08700001 .53400006 .052000006 .53400006 C .044000005 .53400006 .042000008 .53400006 .039 .53300008 C .062000004 .59800007 .11600001 .63500007 .17400001 .63500007 C .26500003 .63500007 .308 .554 .308 .47200004 C .308 .39200003 .25800003 .31300003 .20300003 .25100003 L .011000004 .037 C 0 .026 0 .024 0 0 L .37100003 0 L .39900003 .17400001 L .374 .17400001 C .36900003 .14400001 .36200003 .1 .352 .085 C .345 .07700001 .279 .07700001 .257 .07700001 L .07700001 .07700001 Z "/>
</symbol>
<use xlink:href="#font_1_2" transform="matrix(9.9626,0,0,-9.9626,18.27013,105.853)"/>
<use xlink:href="#font_0_1" transform="matrix(9.9626,0,0,-9.9626,43.228899,103.5616)"/>
<symbol id="font_1_1">
<path d="M .205 .64000007 C .205 .66400006 .205 .666 .18200003 .666 C .120000008 .60200008 .032000007 .60200008 0 .60200008 L 0 .57100006 C .020000004 .57100006 .07900001 .57100006 .13100001 .597 L .13100001 .079 C .13100001 .043 .128 .031000002 .038000004 .031000002 L .0060000049 .031000002 L .0060000049 0 C .04100001 .003 .128 .003 .168 .003 C .20800002 .003 .29500003 .003 .33000005 0 L .33000005 .031000002 L .29800005 .031000002 C .20800002 .031000002 .205 .042000005 .205 .079 L .205 .64000007 Z "/>
</symbol>
<use xlink:href="#font_1_1" transform="matrix(9.9626,0,0,-9.9626,51.036676,105.853)"/>
<use xlink:href="#font_1_1" transform="matrix(9.9626,0,0,-9.9626,111.91967,105.853)"/>
<use xlink:href="#font_1_2" transform="matrix(9.9626,0,0,-9.9626,143.90914,105.853)"/>
<symbol id="font_1_3">
<path d="M .24800003 .37400005 C .33 .40100003 .388 .47100006 .388 .55 C .388 .632 .3 .688 .204 .688 C .10300001 .688 .027000003 .628 .027000003 .55200007 C .027000003 .519 .049000004 .5 .078 .5 C .109000008 .5 .12900001 .522 .12900001 .55100008 C .12900001 .6010001 .082 .6010001 .067 .6010001 C .098 .65000006 .164 .66300007 .20000002 .66300007 C .24100003 .66300007 .29600004 .64100006 .29600004 .55100008 C .29600004 .53900006 .29400004 .48100005 .268 .43700005 C .238 .38900004 .204 .38600005 .17900002 .38500003 C .171 .38400004 .14700002 .38200004 .14000002 .38200004 C .132 .38100005 .125 .38000003 .125 .37000004 C .125 .35900004 .132 .35900004 .14900002 .35900004 L .19300002 .35900004 C .275 .35900004 .312 .29100005 .312 .193 C .312 .057000005 .24300003 .028 .199 .028 C .15600002 .028 .081 .045 .046000005 .104 C .081 .09900001 .11200001 .12100001 .11200001 .15900001 C .11200001 .19500001 .085 .215 .056 .215 C .031999999 .215 0 .201 0 .157 C 0 .06600001 .093 0 .20200002 0 C .32400004 0 .41500003 .091000009 .41500003 .193 C .41500003 .27500005 .35200004 .35300005 .24800003 .37400005 Z "/>
</symbol>
<use xlink:href="#font_1_3" transform="matrix(9.9626,0,0,-9.9626,176.20743,106.072177)"/>
<use xlink:href="#font_0_1" transform="matrix(9.9626,0,0,-9.9626,63.595899,158.8466)"/>
<use xlink:href="#font_1_2" transform="matrix(9.9626,0,0,-9.9626,71.01613,161.138)"/>
<use xlink:href="#font_0_1" transform="matrix(9.9626,0,0,-9.9626,63.595899,126.56859)"/>
<use xlink:href="#font_1_1" transform="matrix(9.9626,0,0,-9.9626,71.40467,128.85999)"/>
<use xlink:href="#font_1_1" transform="matrix(9.9626,0,0,-9.9626,71.40467,64.719)"/>
<use xlink:href="#font_1_2" transform="matrix(9.9626,0,0,-9.9626,71.01613,32.440996)"/>
<clipPath id="cp2">
<path transform="matrix(1,0,0,-1,.199,174.482)" d="M 0 0 L 194.27216 0 L 194.27216 161.3918 L 0 161.3918 Z "/>
</clipPath>
<g clip-path="url(#cp2)">
<path transform="matrix(1,0,0,-1,.199,174.482)" stroke-width="1" stroke-linecap="butt" stroke-miterlimit="10" stroke-linejoin="miter" fill="none" stroke="#000080" d="M 145.70412 80.69589 C 145.70412 80.69589 145.65767 81.51173 145.60247 81.82341 C 145.54724 82.13509 145.41571 82.63455 145.30608 82.94226 C 145.19644 83.24997 144.97635 83.74014 144.81221 84.04121 C 144.64807 84.34229 144.34084 84.82053 144.123 85.11227 C 143.90517 85.40404 143.51219 85.8643 143.24217 86.14404 C 142.97216 86.42377 142.49834 86.86284 142.17687 87.12843 C 141.85538 87.39403 141.29749 87.80968 140.92508 88.05835 C 140.55268 88.30702 139.91358 88.69136 139.49279 88.92078 C 139.07199 89.15019 138.3598 89.50366 137.89229 89.71182 C 137.42479 89.91998 136.63626 90.23627 136.12325 90.42105 C 135.61025 90.60585 134.75063 90.88435 134.19487 91.04372 C 133.6391 91.20308 132.71396 91.43776 132.11763 91.56966 C 131.5213 91.70155 130.5315 91.89166 129.89691 91.99438 C 129.26235 92.0971 128.21384 92.23778 127.54398 92.31007 C 126.87413 92.38235 125.7717 92.47482 125.06895 92.51541 C 124.36621 92.556 123.21193 92.59523 122.47905 92.60262 C 121.74615 92.61 120.54651 92.5955 119.78677 92.56873 C 119.02704 92.54196 117.78699 92.47137 117.00337 92.4096 C 116.21976 92.34784 114.94334 92.22078 114.13896 92.12349 C 113.33458 92.02621 112.0279 91.84175 111.20592 91.70844 C 110.38394 91.57512 109.05084 91.33215 108.21468 91.16257 C 107.37852 90.99297 106.02641 90.69186 105.1794 90.48602 C 104.33237 90.2802 102.96461 89.92085 102.10991 89.67896 C 101.25519 89.43706 99.87813 89.02019 99.0192 88.74255 C 98.16025 88.46492 96.77893 87.99065 95.91924 87.67793 C 95.05952 87.36523 93.68031 86.83574 92.823 86.48875 C 91.96568 86.14177 90.59189 85.55745 89.74025 85.1771 C 88.88861 84.79672 87.52724 84.15959 86.68483 83.74725 C 85.84244 83.33492 84.49898 82.64816 83.66878 82.20512 C 82.83858 81.7621 81.51639 81.02647 80.70131 80.55415 C 79.88622 80.08183 78.59091 79.30063 77.79411 78.80093 C 76.99731 78.30125 75.73416 77.4779 74.95848 76.95271 C 74.1828 76.4275 72.95549 75.56442 72.2035 75.01563 C 71.45152 74.46684 70.2643 73.56744 69.5387 72.9974 C 68.81308 72.42735 67.67026 71.49585 66.9738 70.90706 C 66.27733 70.31825 65.18416 69.3589 64.51906 68.7537 C 63.85396 68.14848 62.81187 67.16408 62.18013 66.54509 C 61.54839 65.92609 60.56207 64.92241 59.96577 64.29236 C 59.36948 63.6623 58.44144 62.64235 57.88234 62.00398 C 57.32324 61.36562 56.4564 60.3351 55.93617 59.69144 C 55.41594 59.04779 54.61269 58.01083 54.13281 57.36491 C 53.65292 56.719 52.91579 55.68127 52.47746 55.0361 C 52.03914 54.39091 51.36966 53.35648 50.9736 52.71475 C 50.57755 52.07303 49.97583 51.04599 49.6229 50.41095 C 49.26997 49.77592 48.73866 48.7629 48.42992 48.13788 C 48.12119 47.51286 47.66234 46.5185 47.39763 45.90622 C 47.13292 45.29393 46.74257 44.32133 46.52205 43.72502 C 46.30153 43.12871 45.98439 42.18571 45.80827 41.60832 C 45.63214 41.03094 45.38477 40.1189 45.25262 39.56361 C 45.12047 39.00833 44.94424 38.13673 44.85571 37.6062 C 44.76717 37.07567 44.66026 36.2431 44.61449 35.73987 C 44.56871 35.23665 44.52989 34.45212 44.52573 33.97925 C 44.52156 33.50636 44.54784 32.77159 44.58446 32.33168 C 44.62108 31.89177 44.71344 31.2131 44.7897 30.80853 C 44.86597 30.40396 45.01996 29.78279 45.13417 29.41582 C 45.24838 29.04884 45.4622 28.49033 45.61288 28.16362 C 45.76357 27.83691 46.03522 27.34601 46.22023 27.06113 C 46.40523 26.77625 46.72891 26.35149 46.94641 26.11032 C 47.1639 25.86916 47.53957 25.51843 47.78789 25.32294 C 48.0362 25.12743 48.45949 24.8497 48.73605 24.7012 C 49.01263 24.5527 49.47879 24.35277 49.78128 24.25262 C 50.08379 24.15247 50.5904 24.03026 50.91635 23.97931 C 51.24232 23.92834 51.78387 23.8858 52.13065 23.88533 C 52.47742 23.88486 53.05057 23.92523 53.41574 23.97589 C 53.78093 24.02654 54.38206 24.14859 54.76262 24.2504 C 55.14319 24.3522 55.7653 24.55603 56.15866 24.7097 C 56.552 24.86336 57.19392 25.15239 57.59764 25.3579 C 58.00136 25.5634 58.65764 25.93379 59.06847 26.19087 C 59.4793 26.44795 60.14354 26.90233 60.5587 27.21078 C 60.97386 27.51926 61.64381 28.05545 62.06071 28.41408 C 62.47762 28.77269 63.1477 29.38742 63.56346 29.7955 C 63.97922 30.20358 64.64545 30.89832 65.0573 31.35532 C 65.46915 31.81232 66.1266 32.58517 66.53189 33.08926 C 66.93718 33.59334 67.58214 34.43884 67.97836 34.98839 C 68.37459 35.53795 69.00325 36.45645 69.38765 37.05006 C 69.77203 37.64369 70.37872 38.63104 70.74887 39.26689 C 71.11903 39.90273 71.70186 40.95692 72.05551 41.63283 C 72.40918 42.30875 72.96298 43.42502 73.29784 44.13847 C 73.63269 44.85194 74.15488 46.02625 74.46893 46.77502 C 74.78299 47.52379 75.2702 48.75351 75.5614 49.53513 C 75.85258 50.31673 76.30127 51.59691 76.56773 52.40842 C 76.8342 53.21992 77.24173 54.54549 77.48193 55.384 C 77.72214 56.22253 78.08655 57.58954 78.29898 58.45197 C 78.51141 59.31439 78.8298 60.71617 79.01308 61.59978 C 79.19635 62.48338 79.46695 63.91896 79.62 64.82034 C 79.77303 65.72173 79.99426 67.1807 80.11618 68.09637 C 80.2381 69.01205 80.40878 70.49287 80.4988 71.4199 C 80.5888 72.34694 80.70746 73.84312 80.76497 74.77783 C 80.82248 75.71252 80.88866 77.21773 80.91335 78.15652 C 80.93803 79.09532 80.95125 80.60439 80.943 81.54411 C 80.93474 82.48386 80.89497 83.99246 80.8538 84.92958 C 80.81265 85.86671 80.7201 87.36714 80.64624 88.2983 C 80.57239 89.22945 80.4276 90.71892 80.32153 91.64072 C 80.21547 92.5625 80.01942 94.03314 79.88179 94.942 C 79.74417 95.85086 79.49794 97.29836 79.32962 98.19125 C 79.1613 99.08417 78.86664 100.50386 78.66862 101.37747 C 78.4706 102.25108 78.12894 103.6369 77.9024 104.48773 C 77.67589 105.33858 77.28941 106.68452 77.03587 107.50977 C 76.78235 108.335 76.35416 109.63847 76.07506 110.4356 C 75.79594 111.2327 75.32718 112.48943 75.02425 113.25491 C 74.72131 114.02042 74.21643 115.22131 73.89175 115.95274 C 73.56706 116.68417 73.02861 117.83176 72.68413 118.52658 C 72.33966 119.2214 71.77107 120.3047 71.40892 120.9606 C 71.04675 121.61649 70.45154 122.63885 70.07393 123.25388 C 69.6963 123.86891 69.07787 124.82144 68.68729 125.39339 C 68.29672 125.96533 67.6599 126.84895 67.25888 127.37611 C 66.85786 127.90326 66.20605 128.71225 65.79697 129.1928 C 65.38788 129.67333 64.72475 130.4067 64.3104 130.83946 C 63.89606 131.27223 63.22726 131.92838 62.81061 132.31195 C 62.39395 132.69553 61.72356 133.2706 61.30734 133.60411 C 60.89113 133.93764 60.224 134.43303 59.81079 134.71578 C 59.39758 134.99852 58.73676 135.41069 58.3292 135.64199 C 57.92163 135.87329 57.27225 136.20342 56.8733 136.38286 C 56.47435 136.5623 55.84131 136.80753 55.45377 136.9353 C 55.06622 137.0631 54.45337 137.22762 54.08008 137.30388 C 53.70677 137.38014 53.11943 137.46019 52.76321 137.4851 C 52.407 137.51003 51.84927 137.50922 51.51273 137.48354 C 51.1762 137.45786 50.65222 137.37569 50.33763 137.29996 C 50.02304 137.22425 49.53516 137.0623 49.2453 136.93775 C 48.95544 136.81317 48.51108 136.57451 48.2485 136.40209 C 47.98593 136.22966 47.58607 135.91368 47.3528 135.69504 C 47.11952 135.47641 46.76875 135.08917 46.56714 134.82631 C 46.36551 134.56345 46.06752 134.10677 45.89954 133.80049 C 45.73155 133.49422 45.48898 132.96637 45.3564 132.61882 C 45.22383 132.27126 45.03938 131.68129 44.94397 131.29543 C 44.84857 130.90955 44.72534 130.25981 44.66873 129.83762 C 44.6121 129.4154 44.55234 128.70905 44.53589 128.25244 C 44.51944 127.79584 44.52519 127.03508 44.55013 126.54668 C 44.57506 126.05826 44.64853 125.24971 44.71567 124.73227 C 44.78282 124.21483 44.92381 123.36064 45.03407 122.81721 C 45.14433 122.27379 45.35632 121.3823 45.51039 120.81557 C 45.66447 120.24886 45.94626 119.3199 46.14456 118.73267 C 46.34288 118.14545 46.69707 117.18771 46.93968 116.58322 C 47.18231 115.97873 47.60643 114.99493 47.89331 114.37584 C 48.18019 113.75673 48.6765 112.7515 49.00739 112.12108 C 49.33827 111.49065 49.90372 110.47069 50.27821 109.83209 C 50.6527 109.19351 51.28908 108.16238 51.70644 107.51855 C 52.1238 106.87473 52.82707 105.83778 53.28632 105.19173 C 53.74557 104.54567 54.51622 103.50735 55.0164 102.86218 C 55.5166 102.21701 56.35143 101.18315 56.89145 100.54172 C 57.43147 99.90028 58.33064 98.87369 58.90857 98.2391 C 59.48651 97.6045 60.44283 96.5928 61.05688 95.968 C 61.67094 95.3432 62.6856 94.34825 63.33432 93.73586 C 63.98305 93.12346 65.05125 92.15158 65.7325 91.55418 C 66.41374 90.95677 67.5331 90.0098 68.2443 89.43007 C 68.95547 88.85034 70.11946 87.93542 70.85837 87.37585 C 71.59727 86.81628 72.80574 85.93431 73.56992 85.39708 C 74.3341 84.85983 75.57944 84.0165 76.36621 83.50371 C 77.15297 82.99094 78.43398 82.18758 79.24039 81.7013 C 80.04678 81.21501 81.35529 80.45682 82.1783 79.99893 C 83.00131 79.54105 84.33546 78.82906 85.17224 78.40114 C 86.00902 77.97322 87.36205 77.31113 88.20926 76.91475 C 89.05647 76.51837 90.42358 75.90802 91.2783 75.54425 C 92.13304 75.18048 93.5107 74.62288 94.3696 74.2929 C 95.22852 73.9629 96.60904 73.46112 97.46877 73.1659 C 98.3285 72.87068 99.70888 72.42482 100.56598 72.1651 C 101.42308 71.9054 102.7951 71.51779 103.64624 71.29402 C 104.49739 71.07025 105.85843 70.73993 106.70052 70.55223 C 107.54262 70.36453 108.88593 70.09268 109.71556 69.94116 C 110.5452 69.78964 111.8663 69.57547 112.67996 69.46011 C 113.49362 69.34476 114.78572 69.18915 115.57991 69.1097 C 116.37408 69.03023 117.63208 68.93158 118.40398 68.88736 C 119.17587 68.84314 120.39668 68.80037 121.14323 68.7909 C 121.88979 68.7814 123.06654 68.79475 123.78467 68.81895 C 124.50279 68.84315 125.6324 68.9088 126.31902 68.9654 C 127.00565 69.02199 128.0809 69.1393 128.73348 69.22687 C 129.38605 69.31444 130.40682 69.4791 131.02245 69.59657 C 131.63806 69.71407 132.59433 69.9276 133.17044 70.07361 C 133.74657 70.2196 134.64023 70.47662 135.17478 70.6489 C 135.70932 70.82117 136.53275 71.11865 137.02318 71.31529 C 137.51361 71.51192 138.26506 71.84706 138.7095 72.06618 C 139.15395 72.28528 139.82962 72.65509 140.22644 72.8945 C 140.62328 73.1339 141.22266 73.5343 141.56967 73.79163 C 141.91669 74.04895 142.43157 74.47629 142.72756 74.7492 C 143.02353 75.02211 143.4589 75.47238 143.70299 75.75854 C 143.94709 76.04471 144.29584 76.51492 144.48685 76.81174 C 144.67786 77.10857 144.94283 77.59317 145.07975 77.89787 C 145.21665 78.20259 145.39142 78.69795 145.47365 79.00792 C 145.55588 79.31787 145.64482 79.81944 145.6724 80.13188 C 145.69995 80.44434 145.69995 80.94745 145.6724 81.25989 C 145.64482 81.57233 145.55588 82.07391 145.47365 82.38387 C 145.39142 82.69382 145.21656 83.18918 145.07975 83.4939 C 144.94292 83.7986 144.67859 84.28334 144.48749 84.58006 C 144.29639 84.87679 143.94635 85.3466 143.70235 85.6326 C 143.45835 85.9186 143.02477 86.36835 142.72879 86.64134 C 142.4328 86.91434 141.91613 87.34277 141.5691 87.60022 C 141.22209 87.85767 140.62447 88.25743 140.22772 88.49684 C 139.83098 88.73624 139.15395 89.10655 138.7096 89.3257 C 138.26525 89.54483 137.5154 89.87961 137.02512 90.07625 C 136.53484 90.27289 135.71044 90.57074 135.17594 90.743 C 134.64144 90.91527 133.74887 91.17207 133.17278 91.31789 C 132.59668 91.46368 131.63933 91.67642 131.02375 91.79395 C 130.40816 91.91147 129.38857 92.07713 128.73603 92.16502 C 128.08347 92.25293 127.00743 92.37085 126.32059 92.42749 C 125.63374 92.48413 124.50375 92.54941 123.78564 92.57333 C 123.06754 92.59726 121.89133 92.60956 121.1449 92.59999 C 120.39845 92.59041 119.17784 92.54828 118.40582 92.50421 C 117.63379 92.46014 116.37474 92.36166 115.5805 92.28229 C 114.78629 92.20293 113.49509 92.0474 112.6815 91.9321 C 111.86794 91.8168 110.54625 91.60278 109.71675 91.4513 C 108.88724 91.2998 107.54488 91.02788 106.70288 90.84026 C 105.86087 90.65263 104.49927 90.3228 103.64804 90.09898 C 102.7968 89.87517 101.42485 89.48683 100.56775 89.22702 C 99.71065 88.9672 98.33025 88.5215 97.47054 88.22632 C 96.61081 87.93114 95.23033 87.42944 94.3715 87.09956 C 93.51266 86.76968 92.13539 86.21242 91.28064 85.84866 C 90.42587 85.48491 89.05824 84.8743 88.21089 84.47784 C 87.36353 84.08139 86.0102 83.41914 85.17343 82.99124 C 84.33665 82.56334 83.00294 81.85161 82.18 81.39378 C 81.35703 80.93596 80.04836 80.17769 79.24202 79.69147 C 78.4357 79.20525 77.15523 78.40219 76.36847 77.8894 C 75.58171 77.37663 74.33568 76.53282 73.57155 75.99564 C 72.80742 75.45847 71.6 74.57721 70.86108 74.01772 C 70.12216 73.45822 68.95729 72.54292 68.24588 71.9631 C 67.53448 71.38329 66.41508 70.43622 65.7337 69.83871 C 65.0523 69.24123 63.9836 68.26907 63.33492 67.65668 C 62.68623 67.04428 61.67253 66.04973 61.05843 65.42494 C 60.4443 64.80016 59.48679 63.78818 58.90878 63.15363 C 58.33078 62.51909 57.4324 61.49289 56.89246 60.85149 C 56.35251 60.21008 55.51727 59.17598 55.0172 58.53084 C 54.51714 57.8857 53.7475 56.84781 53.28824 56.20175 C 52.82896 55.5557 52.12445 54.51822 51.70708 53.87451 C 51.2897 53.2308 50.65457 52.20087 50.28006 51.56229 C 49.90556 50.92372 49.33882 49.90251 49.00786 49.27205 C 48.6769 48.6416 48.1815 47.63733 47.89468 47.0183 C 47.60785 46.39928 47.18321 45.4151 46.94057 44.81047 C 46.69794 44.20584 46.34422 43.24777 46.14589 42.66054 C 45.94754 42.07332 45.66513 41.14505 45.51102 40.57813 C 45.35692 40.01122 45.14558 39.11795 45.03519 38.57455 C 44.92479 38.03116 44.78253 37.17894 44.71535 36.66164 C 44.64818 36.14432 44.57596 35.33464 44.5509 34.8461 C 44.52586 34.35757 44.51834 33.59727 44.53468 33.14053 C 44.55103 32.68379 44.61195 31.97653 44.66873 31.55417 C 44.72551 31.13179 44.84866 30.48222 44.94397 30.09636 C 45.03929 29.71048 45.22322 29.12013 45.35576 28.77296 C 45.48831 28.4258 45.73141 27.90042 45.8993 27.59415 C 46.0672 27.28787 46.36418 26.82872 46.56584 26.56546 C 46.7675 26.30222 47.11952 25.91528 47.3528 25.69673 C 47.58607 25.4782 47.98463 25.16275 48.24721 24.99033 C 48.50978 24.8179 48.9554 24.57852 49.2453 24.45403 C 49.5352 24.32954 50.02222 24.16856 50.33664 24.09303 C 50.65106 24.01749 51.17477 23.93535 51.51146 23.90952 C 51.84813 23.88367 52.40683 23.88185 52.76321 23.90666 C 53.1196 23.93149 53.7068 24.01233 54.08008 24.08852 C 54.45334 24.1647 55.06615 24.32819 55.45349 24.45589 C 55.84084 24.58359 56.47293 24.82942 56.87184 25.00896 C 57.27075 25.18848 57.92093 25.51834 58.32869 25.74979 C 58.73645 25.98123 59.39755 26.3945 59.81079 26.67715 C 60.22403 26.95981 60.89095 27.45383 61.3071 27.78702 C 61.72325 28.12022 62.39355 28.69513 62.8102 29.07863 C 63.22682 29.46213 63.89572 30.11832 64.31 30.55109 C 64.72429 30.98386 65.38701 31.71721 65.79608 32.19777 C 66.20515 32.67833 66.85725 33.48775 67.25833 34.01476 C 67.65941 34.54176 68.29625 35.42427 68.68677 35.99608 C 69.0773 36.56789 69.69542 37.52112 70.07301 38.13605 C 70.45059 38.75096 71.04597 39.77205 71.40817 40.42801 C 71.77036 41.08398 72.33893 42.1688 72.68346 42.86389 C 73.028 43.55898 73.5667 44.70627 73.89137 45.43779 C 74.21603 46.16931 74.72063 47.37085 75.02347 48.13623 C 75.32632 48.90163 75.795 50.15724 76.07414 50.95427 C 76.35329 51.7513 76.78177 53.05515 77.03532 53.88063 C 77.28888 54.70613 77.67506 56.0532 77.9016 56.90388 C 78.12814 57.75456 78.47003 59.13837 78.66814 60.01173 C 78.86623 60.8851 79.16112 62.30563 79.32945 63.19858 C 79.49779 64.09154 79.74373 65.53868 79.88136 66.44756 C 80.01898 67.35641 80.21532 68.8273 80.32143 69.74913 C 80.42754 70.67096 80.5723 72.16039 80.64615 73.09154 C 80.72 74.02267 80.81255 75.52322 80.85371 76.46025 C 80.8949 77.3973 80.93471 78.90543 80.94298 79.84506 C 80.95125 80.78471 80.93803 82.29378 80.91338 83.23267 C 80.88872 84.17155 80.82265 85.67741 80.76515 86.61201 C 80.70766 87.54662 80.58893 89.04189 80.49896 89.96864 C 80.409 90.8954 80.23859 92.37572 80.11668 93.29153 C 79.99478 94.20737 79.77335 95.66795 79.62032 96.56935 C 79.46727 97.47073 79.19693 98.90465 79.01366 99.78815 C 78.83038 100.67166 78.51183 102.07446 78.29936 102.93706 C 78.0869 103.79965 77.72247 105.16673 77.48228 106.0052 C 77.2421 106.84366 76.8347 108.16856 76.56822 108.98016 C 76.30174 109.79176 75.85292 111.07295 75.56172 111.85475 C 75.27051 112.63654 74.78322 113.86609 74.46928 114.61487 C 74.15535 115.36365 73.6338 116.538 73.29898 117.25142 C 72.96416 117.96486 72.40965 119.08092 72.05609 119.7568 C 71.70255 120.43268 71.1209 121.48683 70.7508 122.12277 C 70.38068 122.75871 69.77307 123.74655 69.38858 124.34029 C 69.0041 124.93404 68.37581 125.85258 67.97964 126.40215 C 67.5835 126.95172 66.93858 127.79706 66.53326 128.30129 C 66.12793 128.80551 65.47015 129.5792 65.05821 130.03627 C 64.64627 130.49335 63.98 131.18747 63.56421 131.59566 C 63.14842 132.00385 62.47829 132.61986 62.0615 132.97823 C 61.6447 133.33658 60.97533 133.87032 60.56021 134.17855 C 60.14508 134.48676 59.48042 134.94246 59.06953 135.1997 C 58.65863 135.45696 58.00237 135.8272 57.59874 136.03269 C 57.19511 136.23819 56.55383 136.52695 56.16042 136.68087 C 55.767 136.83477 55.14389 137.04003 54.76324 137.142 C 54.38261 137.24398 53.78215 137.3654 53.417 137.4159 C 53.05186 137.46637 52.47844 137.50617 52.13158 137.50588 C 51.78471 137.50559 51.24292 137.46463 50.91699 137.41374 C 50.59108 137.36287 50.08508 137.2394 49.78258 137.13915 C 49.48007 137.03891 49.01328 136.83962 48.7367 136.69121 C 48.46013 136.54282 48.0373 136.26509 47.78915 136.06949 C 47.54103 135.8739 47.166 135.52263 46.94835 135.28145 C 46.73071 135.04029 46.40567 134.61598 46.22052 134.33118 C 46.03535 134.04637 45.7644 133.55539 45.6138 133.22869 C 45.4632 132.90198 45.24933 132.34307 45.13504 131.97649 C 45.02075 131.60991 44.86646 130.99077 44.79005 130.58654 C 44.71365 130.1823 44.62105 129.50302 44.58429 129.06293 C 44.54753 128.62285 44.52098 127.88771 44.5251 127.41467 C 44.52922 126.94164 44.56822 126.15672 44.61407 125.65355 C 44.65993 125.15039 44.7671 124.31865 44.8556 123.78816 C 44.9441 123.25768 45.11989 122.38539 45.25203 121.8301 C 45.38416 121.2748 45.6319 120.36328 45.80801 119.78595 C 45.98412 119.20863 46.30115 118.26532 46.5214 117.66911 C 46.74164 117.0729 47.13081 116.10098 47.39542 115.48883 C 47.66002 114.87668 48.11955 113.88234 48.42854 113.25711 C 48.73752 112.6319 49.26968 111.61752 49.62239 110.98259 C 49.97511 110.34764 50.57472 109.32253 50.97075 108.6809 C 51.36678 108.03926 52.03835 107.00348 52.4767 106.35815 C 52.91507 105.71283 53.6507 104.67552 54.13022 104.02977 C 54.60976 103.38403 55.41269 102.34767 55.93286 101.704 C 56.45302 101.06032 57.32019 100.02895 57.87932 99.39053 C 58.43845 98.7521 59.3664 97.73268 59.96272 97.10262 C 60.55905 96.47255 61.54564 95.46841 62.17728 94.84949 C 62.8089 94.23055 63.85002 93.24692 64.51508 92.64172 C 65.18013 92.03654 66.27411 91.07661 66.97061 90.48766 C 67.6671 89.8987 68.80946 88.96693 69.53494 88.3969 C 70.2604 87.82686 71.44754 86.92783 72.19937 86.37915 C 72.9512 85.83049 74.17796 84.96765 74.95367 84.44237 C 75.72939 83.91707 76.99341 83.093 77.79025 82.59322 C 78.5871 82.09344 79.88197 81.31242 80.69682 80.84021 C 81.51166 80.36798 82.83287 79.63287 83.6631 79.18976 C 84.49335 78.74664 85.838 78.05902 86.6807 77.64645 C 87.5234 77.23389 88.88522 76.59662 89.73679 76.21625 C 90.58833 75.83588 91.96103 75.25203 92.8182 74.90501 C 93.67538 74.558 95.05505 74.02785 95.91481 73.7151 C 96.77455 73.40234 98.1558 72.92847 99.01468 72.65085 C 99.87354 72.37323 101.25008 71.95615 102.10492 71.71416 C 102.95975 71.47217 104.32866 71.11256 105.1758 70.9067 C 106.02292 70.7008 107.37437 70.39986 108.21043 70.23026 C 109.04651 70.06067 110.37944 69.81783 111.20163 69.68434 C 112.02382 69.55086 113.33171 69.36554 114.13617 69.26808 C 114.94063 69.17062 116.21634 69.0435 116.99966 68.98186 C 117.78299 68.92021 119.02226 68.85036 119.78188 68.82373 C 120.54147 68.79709 121.74158 68.78258 122.47444 68.7898 C 123.20732 68.79701 124.36104 68.8356 125.064 68.87587 C 125.76695 68.91614 126.87067 69.00774 127.54086 69.0801 C 128.21106 69.15245 129.25997 69.29462 129.89437 69.39748 C 130.52875 69.50034 131.51726 69.68964 132.11324 69.82147 C 132.70922 69.95332 133.63402 70.18852 134.18987 70.34784 C 134.74571 70.50716 135.60623 70.78508 136.1194 70.96973 C 136.63259 71.15437 137.42086 71.47061 137.88854 71.67873 C 138.35622 71.88683 139.06935 72.24004 139.4902 72.46959 C 139.91106 72.69914 140.5496 73.08456 140.92185 73.33322 C 141.29409 73.58188 141.85123 73.9964 142.17308 74.26178 C 142.49492 74.52716 142.97115 74.96603 143.24152 75.24591 C 143.51189 75.52577 143.90407 75.98718 144.12172 76.27895 C 144.33939 76.5707 144.64617 77.04787 144.8103 77.34875 C 144.97444 77.64964 145.1949 78.13995 145.30481 78.44765 C 145.41472 78.75533 145.54743 79.25478 145.60247 79.56644 C 145.65749 79.87808 145.70153 80.69395 145.70153 80.69395 "/>
<symbol id="font_3_4">
<path d="M .119 .078 C .109 .039 .10699999 .031000002 .028 .031000002 C .011 .031000002 0 .031000002 0 .012 C 0 0 .009 0 .028 0 L .35900004 0 C .56700006 0 .764 .21100001 .764 .43 C .764 .57100006 .679 .683 .529 .683 L .193 .683 C .17400001 .683 .163 .683 .163 .66400006 C .163 .652 .172 .652 .192 .652 C .205 .652 .223 .651 .235 .65000006 C .25100003 .648 .25700004 .64500007 .25700004 .634 C .25700004 .63000008 .256 .62700006 .25300003 .615 L .119 .078 M .33500005 .614 C .344 .64900007 .34600003 .652 .38900004 .652 L .49600003 .652 C .594 .652 .677 .59900006 .677 .467 C .677 .418 .657 .254 .572 .14400001 C .543 .10700001 .46400003 .031000002 .34100003 .031000002 L .228 .031000002 C .214 .031000002 .212 .031000002 .206 .032 C .19600001 .033 .193 .034 .193 .042000005 C .193 .045 .193 .047000003 .198 .065000008 L .33500005 .614 Z "/>
</symbol>
<use xlink:href="#font_3_4" transform="matrix(9.9626,0,0,-9.9626,38.427507,124.627)"/>
<symbol id="font_3_1">
<path d="M .14400001 .115 C .10400002 .048 .065 .034 .021000002 .031000002 C .009000003 .030000002 0 .030000002 0 .011000001 C 0 .0050000005 .0050000029 0 .013 0 C .040000004 0 .07100001 .003 .09900001 .003 C .13200002 .003 .16700001 0 .19900002 0 C .20500002 0 .21800003 0 .21800003 .019000002 C .21800003 .030000002 .20900002 .031000002 .20200002 .031000002 C .17900002 .033 .15500002 .041 .15500002 .066 C .15500002 .078 .16100002 .089 .16900002 .10300001 L .245 .231 L .49600003 .231 C .49800007 .21000001 .512 .074 .512 .064 C .512 .034 .46000005 .031000002 .44000004 .031000002 C .42600004 .031000002 .41600005 .031000002 .41600005 .011000001 C .41600005 0 .42800004 0 .43000005 0 C .47100006 0 .514 .003 .555 .003 C .58 .003 .643 0 .668 0 C .674 0 .686 0 .686 .020000002 C .686 .031000002 .676 .031000002 .663 .031000002 C .601 .031000002 .601 .038000004 .598 .067 L .537 .69200006 C .535 .712 .535 .716 .518 .716 C .502 .716 .49800007 .70900008 .492 .69900009 L .14400001 .115 M .26400004 .26200003 L .46100004 .592 L .493 .26200003 L .26400004 .26200003 Z "/>
</symbol>
<use xlink:href="#font_3_1" transform="matrix(9.9626,0,0,-9.9626,126.32469,77.824)"/>
<symbol id="font_3_2">
<path d="M .11800001 .078 C .108 .039 .106 .031000002 .027000003 .031000002 C .009999998 .031000002 0 .031000002 0 .011000001 C 0 0 .009 0 .027000003 0 L .38400004 0 C .54200008 0 .66 .11800001 .66 .216 C .66 .28800003 .60200008 .34600003 .50500008 .35700003 C .609 .37600003 .71400007 .45000003 .71400007 .545 C .71400007 .619 .64800009 .683 .52800008 .683 L .192 .683 C .17300001 .683 .16300002 .683 .16300002 .66300007 C .16300002 .652 .17200002 .652 .19100002 .652 C .19300002 .652 .21200001 .652 .22900003 .65000006 C .24700001 .648 .256 .647 .256 .634 C .256 .63000008 .25500003 .62700006 .252 .615 L .11800001 .078 M .26900003 .36600004 L .33100004 .614 C .34000004 .64900007 .342 .652 .38500003 .652 L .51400008 .652 C .60200008 .652 .623 .59300008 .623 .549 C .623 .46100004 .53700008 .36600004 .41500003 .36600004 L .26900003 .36600004 M .224 .031000002 C .21000001 .031000002 .208 .031000002 .20200002 .032 C .192 .033 .18900001 .034 .18900001 .042000005 C .18900001 .045 .18900001 .047000003 .194 .065000008 L .263 .344 L .45200003 .344 C .54800006 .344 .56700006 .27 .56700006 .22700002 C .56700006 .128 .47800005 .031000002 .36 .031000002 L .224 .031000002 Z "/>
</symbol>
<use xlink:href="#font_3_2" transform="matrix(9.9626,0,0,-9.9626,67.82143,45.54599)"/>
<symbol id="font_3_6">
<path d="M .265 .32500003 L .362 .32500003 C .43700005 .32500003 .445 .30900003 .445 .28 C .445 .273 .445 .261 .43800003 .231 C .43600006 .22600001 .435 .22200002 .435 .22000002 C .435 .21200001 .44100005 .208 .44700004 .208 C .45700003 .208 .45700003 .21100001 .462 .22900002 L .517 .446 C .52000007 .45700003 .52000007 .45900003 .52000007 .462 C .52000007 .46400003 .51800009 .47300003 .508 .47300003 C .49800004 .47300003 .49700005 .46800003 .49300004 .45200003 C .47200007 .374 .449 .356 .36400003 .356 L .273 .356 L .337 .61 C .34600003 .64500007 .347 .64900007 .39100004 .64900007 L .52300009 .64900007 C .646 .64900007 .669 .61600008 .669 .53900006 C .669 .51600006 .669 .512 .66600009 .485 C .66400006 .47200004 .66400006 .47000004 .66400006 .467 C .66400006 .462 .66700008 .455 .67600008 .455 C .68700006 .455 .688 .46100004 .69000008 .48000003 L .71000006 .65300008 C .71300008 .68 .70800009 .68 .683 .68 L .193 .68 C .17300001 .68 .163 .68 .163 .66 C .163 .64900007 .172 .64900007 .19100002 .64900007 C .228 .64900007 .25599999 .64900007 .25599999 .63100007 C .25599999 .62700006 .25599999 .625 .251 .60700008 L .119 .078 C .109 .039 .10700001 .031000002 .027999998 .031000002 C .011 .031000002 0 .031000002 0 .012 C 0 0 .011999998 0 .015000001 0 C .044 0 .118 .003 .147 .003 C .18 .003 .263 0 .296 0 C .305 0 .31700004 0 .31700004 .019000002 C .31700004 .027 .311 .029000001 .311 .030000002 C .30800004 .031000002 .306 .031000002 .283 .031000002 C .26100005 .031000002 .25599999 .031000002 .23100002 .033 C .202 .036000004 .19900002 .040000004 .19900002 .053000004 C .19900002 .055000005 .19900002 .061000006 .20300001 .076000008 L .265 .32500003 Z "/>
</symbol>
<use xlink:href="#font_3_6" transform="matrix(9.9626,0,0,-9.9626,121.662578,116.558)"/>
<symbol id="font_3_3">
<path d="M .71000006 .71700009 C .71000006 .72 .708 .72700008 .699 .72700008 C .69600006 .72700008 .69500008 .7260001 .684 .71500006 L .614 .6380001 C .605 .65200009 .559 .72700008 .448 .72700008 C .22500001 .72700008 0 .50600007 0 .27400003 C 0 .109000008 .118000019 0 .271 0 C .358 0 .43400003 .040000004 .487 .086 C .58000007 .16800002 .597 .25900004 .597 .26200003 C .597 .272 .587 .272 .58500006 .272 C .579 .272 .574 .27 .572 .26200003 C .563 .23300001 .54 .162 .47100003 .104 C .402 .048 .33900003 .031000004 .287 .031000004 C .19700001 .031000004 .091000009 .083000008 .091000009 .23900001 C .091000009 .29600004 .112 .45800004 .21200003 .57500007 C .273 .646 .367 .69600006 .45600004 .69600006 C .558 .69600006 .61700007 .619 .61700007 .503 C .61700007 .46300004 .614 .46200005 .614 .45200003 C .614 .44200004 .625 .44200004 .629 .44200004 C .642 .44200004 .642 .44400005 .647 .46200005 L .71000006 .71700009 Z "/>
</symbol>
<use xlink:href="#font_3_3" transform="matrix(9.9626,0,0,-9.9626,35.63513,65.13218)"/>
<symbol id="font_3_5">
<path d="M .67 .23300001 C .67200008 .238 .6750001 .245 .6750001 .24700001 C .6750001 .24800001 .6750001 .25800003 .66300007 .25800003 C .65400007 .25800003 .65200009 .252 .65000006 .246 C .58500006 .098000008 .54800006 .031000002 .37700004 .031000002 L .23100002 .031000002 C .21700002 .031000002 .21500002 .031000002 .209 .032 C .19900002 .033 .19600001 .034 .19600001 .042000005 C .19600001 .045 .19600001 .047000003 .201 .065000008 L .269 .33800004 L .36800004 .33800004 C .453 .33800004 .453 .317 .453 .29200004 C .453 .28500004 .453 .273 .44600005 .24300002 C .444 .238 .44300003 .23500002 .44300003 .23200001 C .44300003 .22700002 .44700004 .22100002 .45600004 .22100002 C .46400006 .22100002 .467 .22600001 .47100003 .24100001 L .52800008 .47500003 C .52800008 .48100005 .52300009 .48600004 .51600006 .48600004 C .507 .48600004 .50500008 .48000003 .50200006 .46800003 C .48100008 .39200003 .46300007 .36900003 .371 .36900003 L .277 .36900003 L .337 .61 C .34600003 .64500007 .347 .64900007 .39100004 .64900007 L .53200009 .64900007 C .65400007 .64900007 .6840001 .62 .6840001 .53800007 C .6840001 .514 .6840001 .512 .68000009 .485 C .68000009 .47900004 .679 .47200004 .679 .467 C .679 .462 .68200007 .455 .69100007 .455 C .702 .455 .70300009 .46100004 .70500007 .48000003 L .725 .65300008 C .72800007 .68 .72300007 .68 .6980001 .68 L .193 .68 C .17300001 .68 .163 .68 .163 .66 C .163 .64900007 .172 .64900007 .19100002 .64900007 C .228 .64900007 .25599999 .64900007 .25599999 .63100007 C .25599999 .62700006 .25599999 .625 .251 .60700008 L .119 .078 C .109 .039 .10700001 .031000002 .027999998 .031000002 C .011 .031000002 0 .031000002 0 .012 C 0 0 .009 0 .027999998 0 L .54700008 0 C .57000008 0 .57100006 .001 .57800009 .017 L .67 .23300001 Z "/>
</symbol>
<use xlink:href="#font_3_5" transform="matrix(9.9626,0,0,-9.9626,70.11258,148.836)"/>
</g>
<path transform="matrix(1,0,0,-1,.199,174.482)" d="M 50.5606 48.41753 C 50.5606 49.518 49.6685 50.41008 48.56804 50.41008 C 47.46756 50.41008 46.57549 49.518 46.57549 48.41753 C 46.57549 47.31706 47.46756 46.42497 48.56804 46.42497 C 49.6685 46.42497 50.5606 47.31706 50.5606 48.41753 Z M 48.56804 48.41753 "/>
<path transform="matrix(1,0,0,-1,.199,174.482)" stroke-width="1" stroke-linecap="butt" stroke-miterlimit="10" stroke-linejoin="miter" fill="none" stroke="#000000" d="M 50.5606 48.41753 C 50.5606 49.518 49.6685 50.41008 48.56804 50.41008 C 47.46756 50.41008 46.57549 49.518 46.57549 48.41753 C 46.57549 47.31706 47.46756 46.42497 48.56804 46.42497 C 49.6685 46.42497 50.5606 47.31706 50.5606 48.41753 Z M 48.56804 48.41753 "/>
<path transform="matrix(1,0,0,-1,.199,174.482)" d="M 127.16856 92.50977 C 127.16856 93.61023 126.27649 94.50232 125.17601 94.50232 C 124.07555 94.50232 123.18346 93.61023 123.18346 92.50977 C 123.18346 91.40929 124.07555 90.51721 125.17601 90.51721 C 126.27649 90.51721 127.16856 91.40929 127.16856 92.50977 Z M 125.17601 92.50977 "/>
<path transform="matrix(1,0,0,-1,.199,174.482)" stroke-width="1" stroke-linecap="butt" stroke-miterlimit="10" stroke-linejoin="miter" fill="none" stroke="#000000" d="M 127.16856 92.50977 C 127.16856 93.61023 126.27649 94.50232 125.17601 94.50232 C 124.07555 94.50232 123.18346 93.61023 123.18346 92.50977 C 123.18346 91.40929 124.07555 90.51721 125.17601 90.51721 C 126.27649 90.51721 127.16856 91.40929 127.16856 92.50977 Z M 125.17601 92.50977 "/>
<path transform="matrix(1,0,0,-1,.199,174.482)" d="M 71.08867 124.78812 C 71.08867 125.8886 70.1966 126.78067 69.09612 126.78067 C 67.99565 126.78067 67.10356 125.8886 67.10356 124.78812 C 67.10356 123.68765 67.99565 122.79556 69.09612 122.79556 C 70.1966 122.79556 71.08867 123.68765 71.08867 124.78812 Z M 69.09612 124.78812 "/>
<path transform="matrix(1,0,0,-1,.199,174.482)" stroke-width="1" stroke-linecap="butt" stroke-miterlimit="10" stroke-linejoin="miter" fill="none" stroke="#000000" d="M 71.08867 124.78812 C 71.08867 125.8886 70.1966 126.78067 69.09612 126.78067 C 67.99565 126.78067 67.10356 125.8886 67.10356 124.78812 C 67.10356 123.68765 67.99565 122.79556 69.09612 122.79556 C 70.1966 122.79556 71.08867 123.68765 71.08867 124.78812 Z M 69.09612 124.78812 "/>
<path transform="matrix(1,0,0,-1,.199,174.482)" d="M 127.16856 68.882 C 127.16856 69.98248 126.27649 70.87456 125.17601 70.87456 C 124.07555 70.87456 123.18346 69.98248 123.18346 68.882 C 123.18346 67.78154 124.07555 66.88945 125.17601 66.88945 C 126.27649 66.88945 127.16856 67.78154 127.16856 68.882 Z M 125.17601 68.882 "/>
<path transform="matrix(1,0,0,-1,.199,174.482)" stroke-width="1" stroke-linecap="butt" stroke-miterlimit="10" stroke-linejoin="miter" fill="none" stroke="#000000" d="M 127.16856 68.882 C 127.16856 69.98248 126.27649 70.87456 125.17601 70.87456 C 124.07555 70.87456 123.18346 69.98248 123.18346 68.882 C 123.18346 67.78154 124.07555 66.88945 125.17601 66.88945 C 126.27649 66.88945 127.16856 67.78154 127.16856 68.882 Z M 125.17601 68.882 "/>
<path transform="matrix(1,0,0,-1,.199,174.482)" d="M 50.5606 112.97426 C 50.5606 114.07472 49.6685 114.96681 48.56804 114.96681 C 47.46756 114.96681 46.57549 114.07472 46.57549 112.97426 C 46.57549 111.87378 47.46756 110.9817 48.56804 110.9817 C 49.6685 110.9817 50.5606 111.87378 50.5606 112.97426 Z M 48.56804 112.97426 "/>
<path transform="matrix(1,0,0,-1,.199,174.482)" stroke-width="1" stroke-linecap="butt" stroke-miterlimit="10" stroke-linejoin="miter" fill="none" stroke="#000000" d="M 50.5606 112.97426 C 50.5606 114.07472 49.6685 114.96681 48.56804 114.96681 C 47.46756 114.96681 46.57549 114.07472 46.57549 112.97426 C 46.57549 111.87378 47.46756 110.9817 48.56804 110.9817 C 49.6685 110.9817 50.5606 111.87378 50.5606 112.97426 Z M 48.56804 112.97426 "/>
<path transform="matrix(1,0,0,-1,.199,174.482)" d="M 71.08867 36.60365 C 71.08867 37.70412 70.1966 38.5962 69.09612 38.5962 C 67.99565 38.5962 67.10356 37.70412 67.10356 36.60365 C 67.10356 35.50317 67.99565 34.6111 69.09612 34.6111 C 70.1966 34.6111 71.08867 35.50317 71.08867 36.60365 Z M 69.09612 36.60365 "/>
<path transform="matrix(1,0,0,-1,.199,174.482)" stroke-width="1" stroke-linecap="butt" stroke-miterlimit="10" stroke-linejoin="miter" fill="none" stroke="#000000" d="M 71.08867 36.60365 C 71.08867 37.70412 70.1966 38.5962 69.09612 38.5962 C 67.99565 38.5962 67.10356 37.70412 67.10356 36.60365 C 67.10356 35.50317 67.99565 34.6111 69.09612 34.6111 C 70.1966 34.6111 71.08867 35.50317 71.08867 36.60365 Z M 69.09612 36.60365 "/>
<symbol id="font_3_7">
<path d="M .305 .31300003 C .311 .33900003 .334 .43100003 .404 .43100003 C .409 .43100003 .433 .43100003 .454 .418 C .426 .41300003 .40600003 .388 .40600003 .36400003 C .40600003 .34800003 .417 .32900004 .444 .32900004 C .46600003 .32900004 .498 .34700004 .498 .38700003 C .498 .43900005 .439 .45300005 .405 .45300005 C .347 .45300005 .312 .40000005 .3 .37700004 C .275 .44300003 .221 .45300005 .19200002 .45300005 C .08800001 .45300005 .031000002 .32400004 .031000002 .29900003 C .031000002 .28900004 .041 .28900004 .043000007 .28900004 C .051000008 .28900004 .054000006 .291 .056 .3 C .09 .40600003 .156 .43100003 .19000001 .43100003 C .209 .43100003 .244 .42200003 .244 .36400003 C .244 .33300004 .22700002 .26600004 .19000001 .126 C .17400001 .064 .13900002 .022000002 .095000009 .022000002 C .08900001 .022000002 .06600001 .022000002 .045 .035 C .07000001 .040000004 .09200001 .061 .09200001 .089 C .09200001 .116000007 .07000001 .124000009 .055000009 .124000009 C .025 .124000009 0 .098000008 0 .06600001 C 0 .020000002 .050000006 0 .094000007 0 C .16000001 0 .19600001 .07000001 .19900002 .076000008 C .21100001 .039 .24700003 0 .307 0 C .41 0 .467 .12900001 .467 .15400002 C .467 .16400002 .458 .16400002 .455 .16400002 C .446 .16400002 .444 .16000001 .442 .15300001 C .409 .046 .341 .022000002 .30900003 .022000002 C .27 .022000002 .254 .054 .254 .08800001 C .254 .11000001 .26 .13200002 .271 .17600002 L .305 .31300003 Z "/>
</symbol>
<use xlink:href="#font_3_7" transform="matrix(9.9626,0,0,-9.9626,198.30591,96.02959)"/>
<symbol id="font_3_8">
<path d="M .45700003 .586 C .461 .6 .461 .602 .461 .609 C .461 .62700006 .447 .63600006 .432 .63600006 C .42200003 .63600006 .40600003 .63 .397 .615 C .395 .61 .387 .579 .38300003 .561 C .37600003 .535 .36900003 .508 .363 .48100005 L .318 .301 C .314 .286 .271 .21600002 .20500002 .21600002 C .15400002 .21600002 .143 .26000003 .143 .29700003 C .143 .34300003 .16000001 .40500004 .194 .49300004 C .21000001 .53400006 .21400002 .545 .21400002 .56500008 C .21400002 .61 .18200001 .6470001 .13200002 .6470001 C .037 .6470001 0 .50200006 0 .49300004 C 0 .48300005 .01 .48300005 .012 .48300005 C .022000002 .48300005 .023 .485 .028000003 .50100007 C .055000009 .595 .095000009 .625 .12900001 .625 C .13700001 .625 .15400002 .625 .15400002 .59300008 C .15400002 .568 .14400001 .54200008 .13700001 .523 C .097 .41700004 .079 .36 .079 .31300003 C .079 .224 .142 .194 .201 .194 C .24000003 .194 .274 .21100001 .30200003 .23900002 C .289 .187 .277 .13800001 .237 .08500001 C .21100001 .051 .17300001 .022 .127 .022 C .113000009 .022 .068 .025000006 .051000008 .06400001 C .067 .06400001 .080000009 .06400001 .094000007 .076000008 C .104 .08500001 .11400001 .098000008 .11400001 .117000009 C .11400001 .148 .087000008 .15200001 .07700001 .15200001 C .054000006 .15200001 .021 .136 .021 .087000008 C .021 .037 .065000008 0 .127 0 C .23 0 .333 .091000009 .361 .20400001 L .45700003 .586 Z "/>
</symbol>
<use xlink:href="#font_3_8" transform="matrix(9.9626,0,0,-9.9626,78.82591,9.652334)"/>
</svg>
