<?xml version="1.0" encoding="UTF-8" standalone="no"?>
<!DOCTYPE svg PUBLIC "-//W3C//DTD SVG 1.1//EN" "http://www.w3.org/Graphics/SVG/1.1/DTD/svg11.dtd">
<svg xmlns="http://www.w3.org/2000/svg" xmlns:xlink="http://www.w3.org/1999/xlink" version="1.1" width="216.52pt" height="181.43pt" viewBox="0 0 216.52 181.43">
<path transform="matrix(1,0,0,-1,9.686,174.484)" stroke-width="1" stroke-linecap="butt" stroke-miterlimit="10" stroke-linejoin="miter" fill="none" stroke="#808080" d="M 0 78.5723 L 0 82.82404 M 44.15262 78.5723 L 44.15262 82.82404 M 132.45787 78.5723 L 132.45787 82.82404 M 176.61049 78.5723 L 176.61049 82.82404 "/>
<path transform="matrix(1,0,0,-1,9.686,174.484)" stroke-width="1" stroke-linecap="butt" stroke-miterlimit="10" stroke-linejoin="miter" fill="none" stroke="#808080" d="M 86.17932 0 L 90.43115 0 M 86.17932 40.34909 L 90.43115 40.34909 M 86.17932 121.04727 L 90.43115 121.04727 M 86.17932 161.39636 L 90.43115 161.39636 "/>
<path transform="matrix(1,0,0,-1,9.686,174.484)" stroke-width="1" stroke-linecap="butt" stroke-miterlimit="10" stroke-linejoin="miter" fill="none" stroke="#000000" d="M 0 80.69818 L 192.27902 80.69818 "/>
<path transform="matrix(1,0,0,-1,201.96503,93.78581)" d="M 1.99252 0 L -1.19551 1.59401 L 0 0 L -1.19551 -1.59401 "/>
<path transform="matrix(1,0,0,-1,9.686,174.484)" stroke-width="1" stroke-linecap="butt" stroke-miterlimit="10" stroke-linejoin="miter" fill="none" stroke="#000000" d="M 88.30524 0 L 88.30524 159.40384 "/>
<path transform="matrix(0,-1,-1,-0,97.991237,15.080154)" d="M 1.99252 0 L -1.19551 1.59401 L 0 0 L -1.19551 -1.59401 "/>
<symbol id="font_0_1">
<path d="M .57600006 0 C .59300008 0 .611 0 .611 .019999996 C .611 .040000008 .59300008 .040000008 .57600006 .040000008 L .035000005 .040000008 C .018 .040000008 0 .040000008 0 .019999996 C 0 0 .018 0 .035000005 0 L .57600006 0 Z "/>
</symbol>
<use xlink:href="#font_0_1" transform="matrix(9.9626,0,0,-9.9626,4.147896,103.56159)"/>
<symbol id="font_1_2">
<path d="M .205 .64000007 C .205 .66400006 .205 .666 .18200003 .666 C .120000008 .60200008 .032000007 .60200008 0 .60200008 L 0 .57100006 C .020000004 .57100006 .07900001 .57100006 .13100001 .597 L .13100001 .079 C .13100001 .043 .128 .031000002 .038000004 .031000002 L .0060000049 .031000002 L .0060000049 0 C .04100001 .003 .128 .003 .168 .003 C .20800002 .003 .29500003 .003 .33000005 0 L .33000005 .031000002 L .29800005 .031000002 C .20800002 .031000002 .205 .042000005 .205 .079 L .205 .64000007 Z "/>
</symbol>
<use xlink:href="#font_1_2" transform="matrix(9.9626,0,0,-9.9626,11.955671,105.85299)"/>
<use xlink:href="#font_0_1" transform="matrix(9.9626,0,0,-9.9626,44.424898,103.56159)"/>
<symbol id="font_1_1">
<path d="M .421 .34200005 C .421 .42200003 .416 .50200006 .381 .57600006 C .335 .67200008 .25300003 .688 .211 .688 C .15100001 .688 .07800001 .66200008 .037000006 .56900009 C .0050000029 .5 0 .42200003 0 .34200005 C 0 .26700003 .0040000008 .177 .045000007 .101 C .088 .020000002 .161 0 .21000001 0 C .264 0 .34 .021000002 .384 .116000007 C .416 .185 .421 .263 .421 .34200005 M .21000001 .022000002 C .171 .022000002 .112 .047000003 .094 .143 C .083000008 .20300001 .083000008 .29500003 .083000008 .35400004 C .083000008 .41800005 .083000008 .48400004 .091000009 .53800007 C .11 .65700009 .185 .66600009 .21000001 .66600009 C .243 .66600009 .30900003 .64800009 .328 .549 C .338 .49300004 .338 .41700004 .338 .35400004 C .338 .279 .338 .21100001 .32700003 .147 C .312 .052 .255 .022000002 .21000001 .022000002 Z "/>
</symbol>
<use xlink:href="#font_1_1" transform="matrix(9.9626,0,0,-9.9626,51.735544,106.07217)"/>
<symbol id="font_2_1">
<path d="M .106 .053000004 C .106 .082 .08200001 .106000009 .05300001 .106000009 C .024000004 .106000009 0 .082 0 .053000004 C 0 .024 .024000004 0 .05300001 0 C .08200001 0 .106 .024 .106 .053000004 Z "/>
</symbol>
<use xlink:href="#font_2_1" transform="matrix(9.9626,0,0,-9.9626,57.184785,105.85299)"/>
<symbol id="font_1_3">
<path d="M .39900003 .223 C .39900003 .34200005 .317 .44200004 .209 .44200004 C .16100002 .44200004 .118000019 .42600004 .082 .39100004 L .082 .586 C .10200001 .58000007 .135 .573 .16700001 .573 C .29 .573 .36 .66400006 .36 .67700007 C .36 .683 .357 .688 .35 .688 C .349 .688 .347 .688 .342 .68500009 C .322 .67600008 .273 .656 .20600002 .656 C .16600001 .656 .120000008 .66300007 .073 .6840001 C .065 .68700006 .06300001 .68700006 .061000009 .68700006 C .051000004 .68700006 .051000004 .679 .051000004 .66300007 L .051000004 .36700005 C .051000004 .34900005 .051000004 .34100003 .065 .34100003 C .07200001 .34100003 .074 .34400005 .07800001 .35000003 C .08900002 .36600004 .12600002 .42000006 .207 .42000006 C .259 .42000006 .284 .37400005 .292 .35600005 C .308 .31900005 .31 .28000004 .31 .23 C .31 .19500001 .31 .135 .286 .093 C .262 .054000006 .22500001 .028 .17900002 .028 C .106000009 .028 .049000008 .08100001 .032 .14000002 C .035 .13900002 .038000008 .13800001 .049000008 .13800001 C .082 .13800001 .09900001 .163 .09900001 .187 C .09900001 .21100001 .082 .23600002 .049000008 .23600002 C .035 .23600002 0 .22900002 0 .18300002 C 0 .097 .069000009 0 .18100001 0 C .297 0 .39900003 .096 .39900003 .223 Z "/>
</symbol>
<use xlink:href="#font_1_3" transform="matrix(9.9626,0,0,-9.9626,59.59413,106.07217)"/>
<use xlink:href="#font_1_1" transform="matrix(9.9626,0,0,-9.9626,136.16555,106.07217)"/>
<use xlink:href="#font_2_1" transform="matrix(9.9626,0,0,-9.9626,141.61479,105.85299)"/>
<use xlink:href="#font_1_3" transform="matrix(9.9626,0,0,-9.9626,144.02313,106.07217)"/>
<use xlink:href="#font_1_2" transform="matrix(9.9626,0,0,-9.9626,184.68968,105.85299)"/>
<use xlink:href="#font_0_1" transform="matrix(9.9626,0,0,-9.9626,80.440898,174.9876)"/>
<use xlink:href="#font_1_2" transform="matrix(9.9626,0,0,-9.9626,88.24967,177.27899)"/>
<use xlink:href="#font_0_1" transform="matrix(9.9626,0,0,-9.9626,72.691898,134.6396)"/>
<use xlink:href="#font_1_1" transform="matrix(9.9626,0,0,-9.9626,80.00254,137.15018)"/>
<use xlink:href="#font_2_1" transform="matrix(9.9626,0,0,-9.9626,85.45178,136.931)"/>
<use xlink:href="#font_1_3" transform="matrix(9.9626,0,0,-9.9626,87.86113,137.15018)"/>
<use xlink:href="#font_1_1" transform="matrix(9.9626,0,0,-9.9626,80.00254,56.86817)"/>
<use xlink:href="#font_2_1" transform="matrix(9.9626,0,0,-9.9626,85.45178,56.648996)"/>
<use xlink:href="#font_1_3" transform="matrix(9.9626,0,0,-9.9626,87.86113,56.86817)"/>
<use xlink:href="#font_1_2" transform="matrix(9.9626,0,0,-9.9626,88.24967,16.299988)"/>
<clipPath id="cp3">
<path transform="matrix(1,0,0,-1,9.686,174.484)" d="M 0 0 L 194.27155 0 L 194.27155 161.39636 L 0 161.39636 Z "/>
</clipPath>
<g clip-path="url(#cp3)">
<path transform="matrix(1,0,0,-1,9.686,174.484)" stroke-width="1" stroke-linecap="butt" stroke-miterlimit="10" stroke-linejoin="miter" fill="none" stroke="#000080" d="M 176.61049 80.69818 C 176.61049 80.69818 176.5959 81.71783 176.58048 82.10934 C 176.56505 82.50085 176.52938 83.12915 176.49927 83.52 C 176.46915 83.91087 176.40842 84.53671 176.3634 84.92647 C 176.31839 85.31622 176.23491 85.94104 176.1748 86.32906 C 176.1147 86.71709 176.00452 87.33751 175.93009 87.72316 C 175.85565 88.10883 175.72696 88.72528 175.63829 89.10866 C 175.5496 89.49203 175.3952 90.1062 175.2909 90.48631 C 175.18657 90.86642 175.00508 91.47197 174.88645 91.84833 C 174.7678 92.22469 174.56844 92.82637 174.43584 93.19885 C 174.30326 93.57133 174.07814 94.16472 173.93074 94.5329 C 173.78334 94.90108 173.53476 95.48923 173.3734 95.85251 C 173.21205 96.21579 172.94272 96.79349 172.7678 97.15121 C 172.59288 97.50894 172.30078 98.07907 172.1127 98.43085 C 171.92462 98.78261 171.61397 99.34113 171.4122 99.68666 C 171.21042 100.0322 170.87342 100.58205 170.65834 100.92126 C 170.44329 101.26048 170.09023 101.79956 169.86208 102.13159 C 169.63393 102.46364 169.25405 102.98984 169.01396 103.31442 C 168.77388 103.63899 168.38368 104.15433 168.13166 104.47101 C 167.87963 104.7877 167.46213 105.28854 167.19744 105.59692 C 166.93274 105.90529 166.50052 106.39397 166.22388 106.69359 C 165.94725 106.99321 165.49149 107.4659 165.20363 107.75635 C 164.91579 108.0468 164.44756 108.50578 164.1492 108.78699 C 163.85085 109.06819 163.36255 109.51154 163.0533 109.78311 C 162.74405 110.0547 162.2392 110.48283 161.92021 110.74442 C 161.60123 111.006 161.08327 111.41745 160.75418 111.66844 C 160.42508 111.91942 159.88715 112.31294 159.54825 112.5534 C 159.20935 112.79387 158.65865 113.17209 158.31157 113.40163 C 157.9645 113.63116 157.40299 113.98949 157.04676 114.20775 C 156.69052 114.426 156.10892 114.76799 155.74407 114.97475 C 155.37921 115.18149 154.7892 115.50298 154.41716 115.6979 C 154.04512 115.89282 153.4415 116.19669 153.06259 116.37961 C 152.68367 116.56253 152.07178 116.84575 151.68614 117.01636 C 151.30049 117.18697 150.67548 117.45108 150.28302 117.6093 C 149.89058 117.7675 149.25545 118.01106 148.8576 118.15666 C 148.45975 118.30225 147.819 118.52611 147.41551 118.65868 C 147.01203 118.79123 146.3578 118.99231 145.94944 119.11212 C 145.54106 119.23192 144.88483 119.41568 144.47217 119.52223 C 144.0595 119.62878 143.39192 119.78699 142.97515 119.88011 C 142.55837 119.97325 141.88779 120.1133 141.46822 120.19354 C 141.04866 120.27377 140.37357 120.39178 139.95125 120.4585 C 139.52892 120.52519 138.84923 120.62146 138.42433 120.67432 C 137.99944 120.72717 137.31557 120.80032 136.88887 120.83951 C 136.46216 120.87871 135.77667 120.93112 135.34893 120.95686 C 134.92118 120.98259 134.23413 121.01288 133.8059 121.02504 C 133.37766 121.0372 132.69127 121.04631 132.26242 121.04459 C 131.83358 121.04288 131.14336 121.02788 130.71497 121.01257 C 130.28658 120.99727 129.60234 120.96341 129.17484 120.93422 C 128.74733 120.90503 128.05994 120.84497 127.63367 120.80217 C 127.20741 120.75935 126.52666 120.682 126.10252 120.62566 C 125.6784 120.5693 124.9991 120.46623 124.57686 120.39595 C 124.15463 120.32567 123.4785 120.20245 123.05936 120.11913 C 122.6402 120.03578 121.9711 119.89175 121.55586 119.79526 C 121.14063 119.69878 120.47795 119.5335 120.06654 119.42361 C 119.65514 119.31374 118.99783 119.12636 118.59062 119.00323 C 118.18343 118.88011 117.53383 118.6722 117.13167 118.53625 C 116.72949 118.4003 116.08865 118.17209 115.69202 118.02332 C 115.29538 117.87456 114.66342 117.62518 114.27295 117.46397 C 113.88246 117.30278 113.26175 117.03516 112.87766 116.86148 C 112.49356 116.68779 111.88206 116.3982 111.5046 116.21214 C 111.1271 116.02608 110.52696 115.71829 110.15695 115.52048 C 109.78693 115.32268 109.20001 114.99615 108.83769 114.78644 C 108.47537 114.57672 107.89967 114.2302 107.54549 114.00899 C 107.19131 113.7878 106.6302 113.42424 106.28494 113.19206 C 105.9397 112.9599 105.3933 112.57881 105.05707 112.33565 C 104.72083 112.0925 104.18823 111.69325 103.86153 111.4395 C 103.53482 111.18573 103.01904 110.77057 102.70238 110.50662 C 102.38573 110.24268 101.88582 109.81123 101.57921 109.5371 C 101.27258 109.26294 100.78825 108.81442 100.49245 108.53072 C 100.19662 108.24702 99.73164 107.7851 99.44708 107.4923 C 99.1625 107.19951 98.71472 106.72223 98.44139 106.42043 C 98.16806 106.11862 97.73868 105.62749 97.477 105.31703 C 97.21533 105.00658 96.80495 104.50145 96.55542 104.18286 C 96.3059 103.86427 95.9157 103.34706 95.67854 103.02077 C 95.44139 102.69449 95.0708 102.16518 94.8461 101.83124 C 94.6214 101.4973 94.27069 100.95477 94.05899 100.61392 C 93.84729 100.27306 93.51869 99.72183 93.32024 99.37453 C 93.1218 99.02724 92.81372 98.4641 92.62871 98.1107 C 92.44368 97.75731 92.158 97.18652 91.98663 96.82745 C 91.81526 96.46838 91.55113 95.88734 91.39351 95.52274 C 91.2359 95.15813 90.99416 94.56895 90.85065 94.19963 C 90.70714 93.83029 90.48836 93.2343 90.35915 92.86084 C 90.22995 92.48737 90.03424 91.88536 89.91937 91.50786 C 89.8045 91.13037 89.63165 90.52116 89.53127 90.14009 C 89.4309 89.75902 89.28154 89.1451 89.19589 88.76135 C 89.11024 88.37761 88.98476 87.76048 88.91386 87.37428 C 88.84299 86.9881 88.74101 86.36649 88.6849 85.97789 C 88.62878 85.58931 88.55057 84.96358 88.50938 84.57347 C 88.46819 84.18338 88.41414 83.55727 88.38792 83.16624 C 88.36172 82.77522 88.33163 82.14665 88.3204 81.75519 C 88.30917 81.36372 88.30318 80.73618 88.30693 80.34473 C 88.31068 79.95328 88.32874 79.32521 88.34747 78.9338 C 88.36623 78.5424 88.40837 77.91434 88.44211 77.52368 C 88.47585 77.13303 88.54198 76.50731 88.59064 76.11809 C 88.6393 75.72888 88.72934 75.1058 88.79286 74.71838 C 88.8564 74.33096 88.9703 73.71082 89.0486 73.32573 C 89.1269 72.94064 89.26428 72.32527 89.35728 71.9429 C 89.45029 71.56052 89.61133 70.94919 89.71898 70.56982 C 89.82664 70.19046 90.01123 69.58415 90.13329 69.20865 C 90.25534 68.83316 90.46236 68.23492 90.59875 67.86348 C 90.73514 67.49203 90.9657 66.89862 91.11632 66.53152 C 91.26694 66.16443 91.51996 65.57939 91.68443 65.21762 C 91.8489 64.85585 92.12357 64.28027 92.30179 63.92409 C 92.48 63.56789 92.77711 63.00066 92.96887 62.6503 C 93.16063 62.29994 93.47882 61.74295 93.68393 61.39886 C 93.88904 61.05478 94.22906 60.50755 94.44717 60.1703 C 94.6653 59.83305 95.02519 59.2982 95.25607 58.96811 C 95.48697 58.638 95.86775 58.1139 96.11136 57.79115 C 96.35495 57.4684 96.75598 56.95662 97.01176 56.64186 C 97.26756 56.3271 97.68742 55.8287 97.95493 55.52257 C 98.22244 55.21643 98.66095 54.73256 98.93982 54.43536 C 99.21869 54.13815 99.67473 53.66878 99.96487 53.38057 C 100.25502 53.09236 100.72987 52.63686 101.03102 52.35805 C 101.33217 52.07925 101.8237 51.64008 102.13542 51.37106 C 102.44716 51.10205 102.95587 50.6782 103.2778 50.41916 C 103.59972 50.16013 104.12404 49.75264 104.45566 49.50401 C 104.78728 49.25539 105.32713 48.86488 105.66792 48.62712 C 106.00873 48.38936 106.56236 48.01694 106.91191 47.79037 C 107.26144 47.56383 107.82889 47.20956 108.18718 46.99417 C 108.54547 46.77878 109.12808 46.44167 109.49435 46.23787 C 109.86063 46.03407 110.45338 45.71703 110.82707 45.52527 C 111.20074 45.33351 111.80675 45.03546 112.18758 44.85576 C 112.56842 44.67606 113.18465 44.3975 113.5719 44.23001 C 113.95917 44.06252 114.585 43.8036 114.97874 43.6485 C 115.37247 43.4934 116.01 43.2545 116.40971 43.11201 C 116.80943 42.96953 117.45506 42.75105 117.85973 42.62146 C 118.26439 42.49187 118.91707 42.29453 119.32628 42.17795 C 119.73549 42.06136 120.39569 41.88437 120.80907 41.78117 C 121.22244 41.67798 121.88849 41.52405 122.30563 41.43413 C 122.7228 41.34421 123.39484 41.2099 123.81573 41.13304 C 124.23662 41.05617 124.91606 40.94318 125.33919 40.88011 C 125.76233 40.81706 126.4403 40.72792 126.86548 40.6785 C 127.29065 40.62907 127.97644 40.56 128.40354 40.52385 C 128.83063 40.4877 129.51576 40.44029 129.94376 40.41786 C 130.37175 40.39542 131.0598 40.37048 131.4883 40.36209 C 131.91681 40.3537 132.60347 40.35204 133.03208 40.3573 C 133.46068 40.36255 134.14945 40.38112 134.5774 40.40002 C 135.00534 40.41893 135.68938 40.46106 136.11646 40.4936 C 136.54354 40.52615 137.22957 40.58856 137.6556 40.63464 C 138.08162 40.68071 138.7631 40.76605 139.18695 40.82578 C 139.6108 40.88548 140.2893 40.99179 140.71039 41.06506 C 141.13147 41.13834 141.80371 41.26714 142.22183 41.3539 C 142.63994 41.44067 143.30915 41.59044 143.72393 41.69055 C 144.13869 41.79066 144.80097 41.96237 145.21125 42.07558 C 145.6215 42.18877 146.27492 42.38031 146.6809 42.50647 C 147.08686 42.63263 147.73616 42.84563 148.13729 42.98486 C 148.5384 43.1241 149.17684 43.35808 149.57193 43.51006 C 149.96701 43.66205 150.59577 43.91602 150.98487 44.0804 C 151.37395 44.24477 151.99394 44.51814 152.37627 44.69489 C 152.75858 44.87163 153.36478 45.16544 153.7404 45.35426 C 154.11603 45.54308 154.71543 45.85498 155.08358 46.05582 C 155.45172 46.25665 156.0337 46.58913 156.39385 46.80176 C 156.75399 47.01439 157.32749 47.36436 157.67928 47.58841 C 158.03107 47.81244 158.58644 48.18164 158.92934 48.41653 C 159.27223 48.65141 159.8166 49.03586 160.15074 49.28139 C 160.48488 49.52692 161.01346 49.92972 161.33765 50.18614 C 161.66184 50.44258 162.17337 50.8627 162.48729 51.1296 C 162.80123 51.3965 163.29644 51.8332 163.60027 52.10983 C 163.90409 52.38646 164.3837 52.83751 164.67717 53.1234 C 164.97064 53.40929 165.43328 53.8754 165.71543 54.17043 C 165.99758 54.46544 166.44016 54.94589 166.71073 55.24977 C 166.9813 55.55367 167.40705 56.04825 167.66553 56.36063 C 167.92403 56.67302 168.32791 57.18071 168.57389 57.50124 C 168.81986 57.82175 169.20417 58.3423 169.43831 58.67073 C 169.67246 58.99918 170.04006 59.53264 170.26143 59.86848 C 170.48282 60.20433 170.82555 60.74893 171.034 61.09135 C 171.24245 61.43376 171.56826 61.988 171.76381 62.33641 C 171.95935 62.6848 172.2621 63.24771 172.44338 63.60246 C 172.62465 63.95723 172.90256 64.53247 173.07035 64.89325 C 173.23812 65.25404 173.49835 65.83713 173.65274 66.20284 C 173.80713 66.56853 174.04322 67.1588 174.1831 67.52905 C 174.323 67.8993 174.53525 68.4969 174.66098 68.87144 C 174.78672 69.24599 174.97768 69.85017 175.0894 70.22855 C 175.20113 70.6069 175.37012 71.21677 175.46627 71.59845 C 175.5624 71.98015 175.70093 72.59502 175.78237 72.97952 C 175.8638 73.36403 175.98587 73.98267 176.05329 74.36969 C 176.12068 74.75673 176.21538 75.38 176.26819 75.76903 C 176.321 76.15804 176.39627 76.78323 176.43396 77.17357 C 176.47165 77.56389 176.51758 78.19113 176.53987 78.5823 C 176.56215 78.97348 176.587 79.60152 176.59459 79.99294 C 176.60219 80.38435 176.60219 81.01198 176.59459 81.4034 C 176.587 81.79482 176.56215 82.42285 176.53987 82.81403 C 176.51758 83.20522 176.47165 83.83244 176.43396 84.22276 C 176.39627 84.6131 176.32125 85.23842 176.26819 85.6273 C 176.21514 86.0162 176.11844 86.63895 176.05152 87.02577 C 175.9846 87.4126 175.86756 88.03078 175.78588 88.41537 C 175.7042 88.79996 175.55939 89.41592 175.46277 89.7977 C 175.36614 90.17946 175.20088 90.7886 175.0894 91.16699 C 174.97792 91.54536 174.785 92.15024 174.65926 92.52478 C 174.53353 92.89932 174.32251 93.4962 174.1831 93.86649 C 174.0437 94.23679 173.80837 94.8279 173.65445 95.19363 C 173.50055 95.55939 173.24184 96.14217 173.0738 96.50261 C 172.90578 96.86305 172.62514 97.43678 172.44338 97.79149 C 172.26163 98.1462 171.95888 98.71014 171.76381 99.05916 C 171.56873 99.40816 171.24633 99.9645 171.0374 100.30695 C 170.82849 100.6494 170.47966 101.19214 170.25803 101.52742 C 170.0364 101.8627 169.67368 102.39522 169.44002 102.7235 C 169.20635 103.05179 168.82007 103.57277 168.57389 103.89359 C 168.32769 104.21439 167.9238 104.72308 167.66553 105.0357 C 167.40726 105.34833 166.98342 105.84303 166.7124 106.14684 C 166.44138 106.45062 165.99405 106.93027 165.71213 107.22534 C 165.4302 107.5204 164.97347 107.98735 164.68045 108.27353 C 164.38745 108.55971 163.90454 109.01164 163.60027 109.288 C 163.29598 109.56433 162.80123 109.99876 162.48729 110.26524 C 162.17337 110.53174 161.66162 110.95213 161.33765 111.20871 C 161.01367 111.46529 160.48648 111.86885 160.15235 112.11458 C 159.8182 112.3603 159.27268 112.74501 158.92934 112.9798 C 158.586 113.2146 158.0293 113.58276 157.67772 113.80685 C 157.32614 114.03094 156.75533 114.38226 156.3954 114.59496 C 156.03549 114.80765 155.45153 115.13893 155.08358 115.33981 C 154.71562 115.54071 154.11928 115.85403 153.74346 116.0429 C 153.36763 116.23175 152.75753 116.52429 152.37479 116.70102 C 151.99205 116.87775 151.37374 117.15219 150.98487 117.31662 C 150.59598 117.48106 149.96701 117.73456 149.57193 117.88628 C 149.17684 118.038 148.53801 118.27077 148.13729 118.41013 C 147.73656 118.5495 147.08936 118.76433 146.68376 118.89081 C 146.27817 119.01729 145.62473 119.20865 145.21407 119.32172 C 144.80339 119.4348 144.13889 119.60591 143.72393 119.70578 C 143.30895 119.80566 142.6413 119.95506 142.22318 120.04167 C 141.80507 120.12828 141.13129 120.25652 140.71039 120.33003 C 140.28949 120.40355 139.61348 120.51173 139.18962 120.57161 C 138.76578 120.63148 138.08164 120.7156 137.6556 120.7617 C 137.22956 120.80779 136.54615 120.87144 136.11905 120.90382 C 135.69197 120.9362 135.00553 120.97638 134.5774 120.99513 C 134.14926 121.0139 133.46195 121.03377 133.03334 121.03903 C 132.60474 121.04428 131.91696 121.04166 131.4883 121.03311 C 131.05963 121.02457 130.37175 120.99965 129.94376 120.97737 C 129.51576 120.95508 128.8303 120.90833 128.40354 120.87248 C 127.97675 120.83665 127.29329 120.76866 126.8678 120.71907 C 126.4423 120.66948 125.76004 120.57817 125.3369 120.51498 C 124.91376 120.45178 124.23857 120.34023 123.818 120.26353 C 123.39742 120.18683 122.72281 120.05211 122.30563 119.9622 C 121.88847 119.8723 121.22458 119.71866 120.8112 119.61546 C 120.39784 119.51228 119.7358 119.33502 119.32628 119.2184 C 118.91676 119.10176 118.26425 118.90437 117.85973 118.77487 C 117.4552 118.64537 116.81017 118.42741 116.41072 118.28499 C 116.01128 118.14256 115.3743 117.9033 114.98068 117.74829 C 114.58708 117.59328 113.96132 117.33525 113.57379 117.1677 C 113.18626 117.00014 112.56844 116.72034 112.18758 116.54057 C 111.80673 116.36081 111.20253 116.06381 110.82884 115.87206 C 110.45517 115.6803 109.86064 115.36226 109.49435 115.15846 C 109.12807 114.95467 108.54694 114.6185 108.18886 114.4032 C 107.83076 114.1879 107.26329 113.83336 106.91353 113.60666 C 106.56377 113.37994 106.00894 113.00711 105.66792 112.76921 C 105.32692 112.53131 104.78728 112.14061 104.45566 111.89198 C 104.12404 111.64336 103.59952 111.236 103.2778 110.97717 C 102.95607 110.71834 102.44858 110.29553 102.13684 110.02644 C 101.8251 109.75735 101.33237 109.31673 101.03102 109.03767 C 100.72968 108.75862 100.25502 108.3033 99.96487 108.01517 C 99.67473 107.72705 99.21869 107.25809 98.93982 106.96097 C 98.66095 106.66386 98.22244 106.1799 97.95493 105.87376 C 97.68742 105.56763 97.26749 105.06912 97.01176 104.75447 C 96.75606 104.43982 96.35547 103.92877 96.11188 103.60596 C 95.86827 103.28314 95.48705 102.75797 95.25607 102.4278 C 95.02512 102.09763 94.66524 101.56332 94.44717 101.22624 C 94.22913 100.88916 93.88948 100.34236 93.68437 99.99826 C 93.47926 99.65414 93.16064 99.0964 92.96887 98.74603 C 92.7771 98.39568 92.48038 97.82927 92.30217 97.47302 C 92.12395 97.11678 91.84888 96.54005 91.68443 96.17839 C 91.51999 95.81674 91.26749 95.23325 91.11694 94.86641 C 90.9664 94.49956 90.73575 93.90602 90.59932 93.53444 C 90.46288 93.16286 90.25558 92.56367 90.13354 92.18826 C 90.0115 91.81284 89.82735 91.20805 89.71967 90.8287 C 89.61198 90.44937 89.45058 89.83691 89.35748 89.45424 C 89.26439 89.07156 89.12689 88.45557 89.0486 88.0706 C 88.97032 87.68564 88.85664 87.0671 88.79312 86.67967 C 88.7296 86.29225 88.63933 85.6677 88.59064 85.27824 C 88.54195 84.88878 88.47583 84.2632 88.44211 83.87265 C 88.40839 83.4821 88.36626 82.85472 88.3475 82.46332 C 88.32877 82.07191 88.31068 81.44316 88.30693 81.0516 C 88.30318 80.66005 88.30919 80.03241 88.3204 79.64114 C 88.33162 79.2499 88.36162 78.62273 88.38782 78.2317 C 88.41403 77.84067 88.4682 77.21295 88.50938 76.82286 C 88.55055 76.43275 88.62857 75.80852 88.68468 75.42004 C 88.74077 75.03157 88.84282 74.40924 88.91371 74.02292 C 88.98462 73.63661 89.11005 73.01967 89.19572 72.63577 C 89.2814 72.25188 89.43088 71.63724 89.53127 71.25606 C 89.63167 70.87488 89.8045 70.26595 89.91937 69.88847 C 90.03424 69.511 90.22995 68.90897 90.35915 68.53549 C 90.48836 68.16203 90.70714 67.56604 90.85065 67.1967 C 90.99416 66.82738 91.23601 66.23798 91.39351 65.8736 C 91.55103 65.50923 91.81454 64.92955 91.98592 64.57045 C 92.15729 64.21135 92.44376 63.63876 92.62871 63.28545 C 92.81364 62.93214 93.12059 62.37115 93.31898 62.02396 C 93.51736 61.67676 93.8468 61.12393 94.05855 60.78299 C 94.27031 60.44206 94.62051 59.90047 94.84514 59.56667 C 95.06976 59.23286 95.4403 58.70355 95.67752 58.37709 C 95.91473 58.05063 96.3053 57.53246 96.55489 57.21375 C 96.80447 56.89503 97.21478 56.3905 97.47644 56.08005 C 97.7381 55.76959 98.16745 55.27792 98.44078 54.97612 C 98.71411 54.67432 99.1619 54.1975 99.44646 53.90479 C 99.73102 53.61206 100.19597 53.15005 100.49179 52.86636 C 100.7876 52.58266 101.272 52.13402 101.57852 51.85997 C 101.88504 51.58592 102.3843 51.15518 102.70096 50.89119 C 103.01761 50.62718 103.53409 50.211 103.86078 49.95723 C 104.18747 49.70348 104.7193 49.30524 105.05553 49.06213 C 105.39175 48.81902 105.93878 48.43738 106.28413 48.205 C 106.6295 47.97261 107.19063 47.60841 107.5447 47.3873 C 107.89874 47.16618 108.47366 46.82097 108.83598 46.61131 C 109.19832 46.40164 109.78607 46.074 110.15607 45.87614 C 110.52606 45.67827 111.12558 45.37099 111.50279 45.18517 C 111.88002 44.99936 112.49065 44.71065 112.87486 44.53693 C 113.25908 44.36319 113.88141 44.09431 114.272 43.93303 C 114.6626 43.77173 115.29358 43.52303 115.69006 43.37436 C 116.08655 43.22568 116.72763 42.99739 117.12964 42.86139 C 117.53166 42.7254 118.18019 42.51753 118.58752 42.39413 C 118.99486 42.27072 119.6538 42.08192 120.06548 41.97192 C 120.47716 41.86192 121.13937 41.69774 121.55476 41.60123 C 121.97017 41.50471 122.64037 41.35954 123.05936 41.2762 C 123.47833 41.19287 124.1527 41.07054 124.5746 41.00058 C 124.99649 40.93062 125.67612 40.82826 126.10022 40.7719 C 126.52432 40.71553 127.20523 40.63702 127.63132 40.59428 C 128.0574 40.55156 128.74338 40.49326 129.17122 40.4639 C 129.59906 40.43456 130.28643 40.39821 130.71497 40.38264 C 131.14351 40.3671 131.83142 40.35326 132.25992 40.35176 C 132.68843 40.35027 133.37476 40.35991 133.80335 40.37183 C 134.23195 40.38374 134.92137 40.41199 135.34893 40.43771 C 135.77648 40.46344 136.45844 40.5178 136.88495 40.55725 C 137.31145 40.59668 137.99793 40.6691 138.42299 40.72195 C 138.84806 40.77481 139.52605 40.87164 139.94855 40.93825 C 140.37107 41.00487 141.0483 41.12225 141.46822 41.20218 C 141.88814 41.28209 142.55855 41.4212 142.97515 41.51431 C 143.39174 41.60742 144.05828 41.7667 144.47075 41.8733 C 144.88323 41.97992 145.54004 42.16281 145.94802 42.28275 C 146.35599 42.40268 147.0075 42.60497 147.4112 42.73773 C 147.81488 42.87048 148.45955 43.09416 148.8576 43.23969 C 149.25565 43.3852 149.88803 43.62852 150.28006 43.78658 C 150.67209 43.94461 151.29729 44.20815 151.68315 44.3788 C 152.069 44.54944 152.68175 44.83354 153.06108 45.01643 C 153.44042 45.19934 154.0449 45.50217 154.41716 45.69704 C 154.78942 45.89189 155.37966 46.21413 155.74407 46.42087 C 156.10848 46.62762 156.68741 46.96906 157.04364 47.18723 C 157.39986 47.40538 157.96428 47.76372 158.31157 47.99327 C 158.65886 48.22284 159.20822 48.60147 159.54668 48.84184 C 159.88513 49.0822 160.42212 49.47455 160.75099 49.72566 C 161.07985 49.97679 161.59777 50.39021 161.91698 50.65184 C 162.23619 50.91347 162.74199 51.33992 163.0517 51.6113 C 163.3614 51.88269 163.85065 52.32658 164.1492 52.60785 C 164.44777 52.88911 164.91625 53.34785 165.20363 53.63849 C 165.49103 53.92912 165.94419 54.40302 166.22057 54.70255 C 166.49695 55.00209 166.93059 55.48941 167.19574 55.7974 C 167.46089 56.10538 167.8794 56.60548 168.13166 56.92224 C 168.38391 57.23898 168.77436 57.75542 169.01396 58.08038 C 169.25357 58.40535 169.63054 58.9326 169.85869 59.26442 C 170.08684 59.59624 170.44281 60.13322 170.65834 60.47195 C 170.87387 60.81068 171.21042 61.35991 171.4122 61.70576 C 171.61397 62.05162 171.92462 62.61273 172.1127 62.96472 C 172.30078 63.3167 172.59313 63.8851 172.7678 64.24275 C 172.94248 64.60039 173.21033 65.17911 173.37169 65.54239 C 173.53304 65.90567 173.78334 66.493 173.93074 66.86105 C 174.07814 67.22913 174.3015 67.82275 174.4341 68.19522 C 174.56668 68.56767 174.76758 69.16905 174.88645 69.54561 C 175.00531 69.92216 175.18706 70.52907 175.2909 70.90921 C 175.39472 71.28935 175.5461 71.9023 175.63477 72.28545 C 175.72345 72.6686 175.85517 73.28491 175.93009 73.67078 C 176.005 74.05663 176.1147 74.67844 176.1748 75.06647 C 176.23491 75.4545 176.31839 76.07793 176.3634 76.46745 C 176.40842 76.85696 176.46915 77.48303 176.49927 77.87389 C 176.52938 78.26476 176.56555 78.89307 176.58048 79.28458 C 176.5954 79.67609 176.60695 80.69574 176.60695 80.69574 "/>
</g>
<symbol id="font_2_2">
<path d="M .305 .31300003 C .311 .33900003 .334 .43100003 .404 .43100003 C .409 .43100003 .433 .43100003 .454 .418 C .426 .41300003 .40600003 .388 .40600003 .36400003 C .40600003 .34800003 .417 .32900004 .444 .32900004 C .46600003 .32900004 .498 .34700004 .498 .38700003 C .498 .43900005 .439 .45300005 .405 .45300005 C .347 .45300005 .312 .40000005 .3 .37700004 C .275 .44300003 .221 .45300005 .19200002 .45300005 C .08800001 .45300005 .031000002 .32400004 .031000002 .29900003 C .031000002 .28900004 .041 .28900004 .043000007 .28900004 C .051000008 .28900004 .054000006 .291 .056 .3 C .09 .40600003 .156 .43100003 .19000001 .43100003 C .209 .43100003 .244 .42200003 .244 .36400003 C .244 .33300004 .22700002 .26600004 .19000001 .126 C .17400001 .064 .13900002 .022000002 .095000009 .022000002 C .08900001 .022000002 .06600001 .022000002 .045 .035 C .07000001 .040000004 .09200001 .061 .09200001 .089 C .09200001 .116000007 .07000001 .124000009 .055000009 .124000009 C .025 .124000009 0 .098000008 0 .06600001 C 0 .020000002 .050000006 0 .094000007 0 C .16000001 0 .19600001 .07000001 .19900002 .076000008 C .21100001 .039 .24700003 0 .307 0 C .41 0 .467 .12900001 .467 .15400002 C .467 .16400002 .458 .16400002 .455 .16400002 C .446 .16400002 .444 .16000001 .442 .15300001 C .409 .046 .341 .022000002 .30900003 .022000002 C .27 .022000002 .254 .054 .254 .08800001 C .254 .11000001 .26 .13200002 .271 .17600002 L .305 .31300003 Z "/>
</symbol>
<use xlink:href="#font_2_2" transform="matrix(9.9626,0,0,-9.9626,207.79492,96.02858)"/>
<symbol id="font_2_3">
<path d="M .45700003 .586 C .461 .6 .461 .602 .461 .609 C .461 .62700006 .447 .63600006 .432 .63600006 C .42200003 .63600006 .40600003 .63 .397 .615 C .395 .61 .387 .579 .38300003 .561 C .37600003 .535 .36900003 .508 .363 .48100005 L .318 .301 C .314 .286 .271 .21600002 .20500002 .21600002 C .15400002 .21600002 .143 .26000003 .143 .29700003 C .143 .34300003 .16000001 .40500004 .194 .49300004 C .21000001 .53400006 .21400002 .545 .21400002 .56500008 C .21400002 .61 .18200001 .6470001 .13200002 .6470001 C .037 .6470001 0 .50200006 0 .49300004 C 0 .48300005 .01 .48300005 .012 .48300005 C .022000002 .48300005 .023 .485 .028000003 .50100007 C .055000009 .595 .095000009 .625 .12900001 .625 C .13700001 .625 .15400002 .625 .15400002 .59300008 C .15400002 .568 .14400001 .54200008 .13700001 .523 C .097 .41700004 .079 .36 .079 .31300003 C .079 .224 .142 .194 .201 .194 C .24000003 .194 .274 .21100001 .30200003 .23900002 C .289 .187 .277 .13800001 .237 .08500001 C .21100001 .051 .17300001 .022 .127 .022 C .113000009 .022 .068 .025000006 .051000008 .06400001 C .067 .06400001 .080000009 .06400001 .094000007 .076000008 C .104 .08500001 .11400001 .098000008 .11400001 .117000009 C .11400001 .148 .087000008 .15200001 .07700001 .15200001 C .054000006 .15200001 .021 .136 .021 .087000008 C .021 .037 .065000008 0 .127 0 C .23 0 .333 .091000009 .361 .20400001 L .45700003 .586 Z "/>
</symbol>
<use xlink:href="#font_2_3" transform="matrix(9.9626,0,0,-9.9626,95.67491,9.652334)"/>
</svg>
