<?xml version="1.0" encoding="UTF-8" standalone="no"?>
<!DOCTYPE svg PUBLIC "-//W3C//DTD SVG 1.1//EN" "http://www.w3.org/Graphics/SVG/1.1/DTD/svg11.dtd">
<svg xmlns="http://www.w3.org/2000/svg" xmlns:xlink="http://www.w3.org/1999/xlink" version="1.1" width="230.925pt" height="57.828pt" viewBox="0 0 230.925 57.828">
<symbol id="font_0_2">
<path d="M .23200003 .00999999 C .23200003 .012999982 .23200003 .014999986 .215 .03199999 C .09 .15799999 .058 .347 .058 .5 C .058 .674 .096 .84800007 .21900001 .97300007 C .23200003 .985 .23200003 .98700007 .23200003 .99 C .23200003 .99700006 .22800002 1 .222 1 C .21200001 1 .12200001 .93200007 .06299999 .805 C .012000002 .69500008 0 .584 0 .5 C 0 .422 .011 .301 .066 .188 C .126 .065 .21200001 0 .222 0 C .22800002 0 .23200003 .0029999912 .23200003 .00999999 Z "/>
</symbol>
<symbol id="font_0_4">
<path d="M .144 .694 L 0 .683 L 0 .652 C .07000001 .652 .07800001 .64500007 .07800001 .596 L .07800001 .076000008 C .07800001 .031000002 .067 .031000002 0 .031000002 L 0 0 C .033 .001 .086 .003 .11100001 .003 C .136 .003 .185 .001 .22200004 0 L .22200004 .031000002 C .155 .031000002 .144 .031000002 .144 .076000008 L .144 .694 Z "/>
</symbol>
<symbol id="font_0_5">
<path d="M .07800001 .344 L .07800001 .076000008 C .07800001 .031000002 .067 .031000002 0 .031000002 L 0 0 C .035 .001 .08600001 .003 .113000009 .003 C .139 .003 .191 .001 .225 0 L .225 .031000002 C .158 .031000002 .147 .031000002 .147 .076000008 L .147 .26000003 C .147 .36400003 .218 .42000003 .282 .42000003 C .345 .42000003 .356 .36600004 .356 .30900003 L .356 .076000008 C .356 .031000002 .345 .031000002 .278 .031000002 L .278 0 C .31300003 .001 .36400003 .003 .391 .003 C .41700004 .003 .46900005 .001 .503 0 L .503 .031000002 C .451 .031000002 .42600004 .031000002 .425 .061000006 L .425 .252 C .425 .33800004 .425 .36900003 .39400003 .40500004 C .38000003 .42200003 .347 .44200004 .289 .44200004 C .216 .44200004 .169 .39900003 .141 .337 L .141 .44200004 L 0 .43100003 L 0 .4 C .07000001 .4 .07800001 .393 .07800001 .344 Z "/>
</symbol>
<use xlink:href="#font_0_2" transform="matrix(9.9626,0,0,-9.9626,4.3072969,13.282646)"/>
<use xlink:href="#font_0_4" transform="matrix(9.9626,0,0,-9.9626,7.5252168,10.791996)"/>
<use xlink:href="#font_0_5" transform="matrix(9.9626,0,0,-9.9626,10.284857,10.791996)"/>
<symbol id="font_1_3">
<path d="M .059000009 .07000001 C .056 .055000005 .050000006 .032 .050000006 .027000003 C .050000006 .009000001 .064 0 .079 0 C .091000009 0 .10900001 .008000001 .11600001 .028 C .11700001 .030000002 .12900001 .077 .135 .102000009 L .157 .19200002 C .163 .21400002 .16900002 .23600002 .17400001 .259 C .17800002 .27600003 .186 .305 .187 .30900003 C .202 .34000004 .255 .43100003 .35 .43100003 C .395 .43100003 .404 .39400003 .404 .36100004 C .404 .29900003 .355 .17100002 .33900003 .128 C .33 .105000007 .329 .093 .329 .082 C .329 .035 .364 0 .411 0 C .50500008 0 .54200008 .14600002 .54200008 .15400002 C .54200008 .16400002 .53300008 .16400002 .53000006 .16400002 C .52000007 .16400002 .52000007 .16100002 .51500007 .14600002 C .49500004 .078 .462 .022000002 .41300003 .022000002 C .396 .022000002 .389 .032 .389 .055000005 C .389 .080000009 .398 .104 .407 .126 C .426 .17900002 .468 .28900004 .468 .34600003 C .468 .41300003 .425 .45300005 .35300002 .45300005 C .263 .45300005 .21400002 .38900004 .19700001 .36600004 C .19200002 .42200003 .15100001 .45300005 .105000007 .45300005 C .059000009 .45300005 .040000008 .41400004 .030000003 .39600004 C .014 .36200003 0 .30300004 0 .29900003 C 0 .28900004 .01 .28900004 .012 .28900004 C .022000002 .28900004 .023 .29000003 .029000001 .31200005 C .046000005 .38300003 .06600001 .43100003 .10200001 .43100003 C .12200001 .43100003 .133 .418 .133 .38500003 C .133 .36400003 .13000001 .35300002 .11700001 .30100004 L .059000009 .07000001 Z "/>
</symbol>
<use xlink:href="#font_1_3" transform="matrix(9.9626,0,0,-9.9626,17.446917,10.901585)"/>
<symbol id="font_0_3">
<path d="M .232 .5 C .232 .578 .22100002 .699 .16600001 .81200006 C .106 .93500009 .020000004 1 .009999998 1 C .0040000008 1 0 .99600008 0 .99 C 0 .98700007 0 .985 .019000002 .967 C .117000009 .86800006 .174 .709 .174 .5 C .174 .329 .137 .153 .012999997 .026999996 C 0 .014999986 0 .012999982 0 .00999999 C 0 .003999993 .0040000008 0 .009999998 0 C .020000004 0 .11000001 .06799999 .169 .195 C .22 .305 .232 .416 .232 .5 Z "/>
</symbol>
<use xlink:href="#font_0_3" transform="matrix(9.9626,0,0,-9.9626,23.704869,13.282646)"/>
<symbol id="font_2_2">
<path d="M .076000008 .072 C .069000009 .044 .067 .036 .027 .036 C .014 .036 0 .036 0 .015000001 C 0 .003999993 .009000001 0 .014 0 C .04 0 .07300001 .003999993 .10000001 .003999993 C .134 .003999993 .172 0 .20500002 0 C .21400002 0 .22500001 .0029999912 .22500001 .022 C .22500001 .036 .21100001 .036 .19900002 .036 C .17700002 .036 .15 .036 .15 .047999994 C .15 .053000004 .157 .079 .16100002 .094000007 C .17300001 .147 .187 .201 .19800002 .243 C .21000001 .223 .24100001 .184 .301 .184 C .423 .184 .558 .319 .558 .46800003 C .558 .58500006 .477 .635 .408 .635 C .34600003 .635 .293 .59300008 .266 .56500008 C .24900002 .62200006 .193 .635 .163 .635 C .124000009 .635 .10000001 .609 .08400001 .582 C .064 .548 .048 .488 .048 .48200003 C .048 .469 .062000004 .469 .065000008 .469 C .079 .469 .080000009 .47200004 .087000008 .499 C .102000009 .55700007 .12100001 .607 .16000001 .607 C .186 .607 .193 .58500006 .193 .558 C .193 .54700008 .19100002 .53400006 .19000001 .528 L .076000008 .072 M .265 .515 C .323 .592 .373 .607 .405 .607 C .444 .607 .47800002 .578 .47800002 .51 C .47800002 .469 .456 .367 .426 .30900003 C .401 .26 .352 .21200001 .301 .21200001 C .23000002 .21200001 .21200001 .289 .21200001 .29900003 C .21200001 .303 .21400002 .31 .21500002 .314 L .265 .515 Z "/>
</symbol>
<use xlink:href="#font_2_2" transform="matrix(6.9738,0,0,-6.9738,27.005028,8.031915)"/>
<symbol id="font_1_1">
<path d="M .592 .53800007 C .60400006 .544 .611 .549 .611 .56000009 C .611 .57100006 .60200008 .58000007 .591 .58000007 C .588 .58000007 .586 .58000007 .573 .5730001 L .019000002 .312 C .008000001 .307 0 .30200003 0 .29 C 0 .278 .008000001 .273 .019000002 .268 L .573 .007000003 C .586 0 .588 0 .591 0 C .60200008 0 .611 .0090000019 .611 .020000002 C .611 .031000004 .60400006 .036000004 .592 .042000005 L .067 .29 L .592 .53800007 Z "/>
</symbol>
<use xlink:href="#font_1_1" transform="matrix(9.9626,0,0,-9.9626,35.2109,11.1905)"/>
<use xlink:href="#font_1_1" transform="matrix(9.9626,0,0,-9.9626,42.961805,11.1905)"/>
<use xlink:href="#font_1_3" transform="matrix(9.9626,0,0,-9.9626,52.94433,10.901585)"/>
<symbol id="font_2_3">
<path d="M .448 .60600009 C .44900007 .61 .45000006 .61600008 .45000006 .62100008 C .45000006 .62700006 .44600005 .635 .43700005 .635 C .42700006 .635 .385 .601 .365 .569 C .35500003 .589 .32200004 .635 .25800003 .635 C .13000001 .635 0 .49400003 0 .35000003 C 0 .25300003 .065 .184 .15100001 .184 C .20800002 .184 .255 .22 .277 .23900001 C .27600003 .236 .24500002 .11 .24100001 .093 C .22700002 .038000004 .226 .037 .164 .036 C .15200001 .036 .13800001 .036 .13800001 .013999999 C .13800001 .008000001 .143 0 .15300001 0 C .186 0 .223 .003999993 .25700004 .003999993 C .291 .003999993 .333 0 .36400003 0 C .37300004 0 .384 .0029999912 .384 .022 C .384 .036 .37 .036 .35800005 .036 C .33600004 .036 .30900003 .036 .30900003 .047999994 C .30900003 .051 .30900003 .053000004 .314 .07 L .448 .60600009 M .297 .32 C .292 .303 .292 .301 .27899999 .28500004 C .24000003 .23900001 .193 .21200001 .154 .21200001 C .117 .21200001 .081 .238 .081 .30900003 C .081 .36200003 .11 .47200004 .133 .512 C .179 .592 .23 .607 .25800003 .607 C .328 .607 .347 .53000006 .347 .52 C .347 .515 .34500004 .50900009 .34400005 .505 L .297 .32 Z "/>
</symbol>
<use xlink:href="#font_2_3" transform="matrix(6.9738,0,0,-6.9738,59.05441,8.031915)"/>
<symbol id="font_1_2">
<path d="M .33300004 .38900004 C .31500004 .42600004 .286 .45300005 .24100001 .45300005 C .124 .45300005 0 .30600003 0 .16000001 C 0 .06600001 .055000005 0 .133 0 C .153 0 .20300001 .0040000008 .263 .075 C .27100004 .033000005 .30600003 0 .35400004 0 C .38900004 0 .41200004 .023000002 .42800004 .055000005 C .44500003 .091000009 .45800004 .15200001 .45800004 .15400002 C .45800004 .16400002 .44900004 .16400002 .44600005 .16400002 C .43600003 .16400002 .43500004 .16000001 .43200005 .14600002 C .41500003 .081 .397 .022000002 .35600005 .022000002 C .32900004 .022000002 .32600004 .048 .32600004 .068 C .32600004 .09 .32800005 .098000008 .33900003 .14200002 C .35000003 .18400002 .35200004 .19400002 .36100004 .23200003 L .397 .37200005 C .40400005 .40000005 .40400005 .40200005 .40400005 .40600003 C .40400005 .42300005 .39200003 .43300004 .37500004 .43300004 C .35100005 .43300004 .33600004 .411 .33300004 .38900004 M .26800005 .13000001 C .263 .112 .263 .11000001 .24800001 .093 C .20400001 .038000004 .163 .022000002 .135 .022000002 C .08499999 .022000002 .07100001 .077 .07100001 .116000007 C .07100001 .16600001 .103 .28900004 .126 .335 C .157 .39400003 .202 .43100003 .242 .43100003 C .307 .43100003 .32100005 .34900005 .32100005 .34300003 C .32100005 .337 .31900005 .33100004 .31800003 .32600004 L .26800005 .13000001 Z "/>
</symbol>
<use xlink:href="#font_1_1" transform="matrix(9.9626,0,0,-9.9626,66.6229,11.1905)"/>
<use xlink:href="#font_1_1" transform="matrix(9.9626,0,0,-9.9626,74.3738,11.1905)"/>
<use xlink:href="#font_1_2" transform="matrix(9.9626,0,0,-9.9626,84.46591,10.901585)"/>
<symbol id="font_2_1">
<path d="M .075 .073 C .07100001 .060000004 .065 .035 .065 .032 C .065 .010000001 .083000008 0 .09900001 0 C .117 0 .133 .013 .138 .022 C .143 .031000004 .15100001 .063 .156 .084 C .161 .103 .172 .14900002 .178 .17400001 C .184 .19600001 .19000001 .21800001 .19500001 .24100001 C .20600002 .282 .20800002 .29 .237 .331 C .26500003 .37100003 .31200005 .423 .38700003 .423 C .44500003 .423 .44600005 .372 .44600005 .35300002 C .44600005 .293 .40300004 .18200001 .38700003 .14000002 C .37600003 .112 .37200005 .103 .37200005 .086 C .37200005 .033000005 .41600005 0 .467 0 C .56700006 0 .61100009 .13800001 .61100009 .15300001 C .61100009 .16600001 .59800007 .16600001 .595 .16600001 C .58100005 .16600001 .58000007 .16000001 .57600006 .14900002 C .55300006 .069000009 .51000007 .028 .47000004 .028 C .44900004 .028 .44500003 .042000005 .44500003 .063 C .44500003 .086 .45000003 .099 .46800006 .14400001 C .48000003 .17500001 .521 .28100003 .521 .337 C .521 .43400003 .44400005 .451 .39100004 .451 C .30800004 .451 .25200004 .4 .22200002 .36 C .21500002 .42900003 .156 .451 .114999998 .451 C .072 .451 .049 .42000003 .036000004 .397 C .014000002 .36 0 .303 0 .298 C 0 .285 .014000002 .285 .017 .285 C .031 .285 .032 .28800003 .039 .315 C .054 .374 .073 .423 .112 .423 C .138 .423 .145 .40100003 .145 .374 C .145 .35500003 .136 .31800003 .12900001 .291 C .12200001 .264 .112 .22300002 .10700001 .20100002 L .075 .073 Z "/>
</symbol>
<use xlink:href="#font_2_1" transform="matrix(6.9738,0,0,-6.9738,89.65477,6.748735)"/>
<use xlink:href="#font_1_1" transform="matrix(9.9626,0,0,-9.9626,98.3439,11.1905)"/>
<use xlink:href="#font_1_1" transform="matrix(9.9626,0,0,-9.9626,106.0948,11.1905)"/>
<use xlink:href="#font_1_3" transform="matrix(9.9626,0,0,-9.9626,116.077327,10.901585)"/>
<symbol id="font_0_1">
<path d="M .06700001 .209 L .106 .665 C .106 .698 .079 .716 .05300001 .716 C .027000003 .716 0 .698 0 .665 L .038999998 .21000001 C .04 .19500001 .041 .187 .05300001 .187 C .063 .187 .06600001 .192 .06700001 .209 M .106 .053000004 C .106 .082 .08200001 .106000009 .05300001 .106000009 C .024000004 .106000009 0 .082 0 .053000004 C 0 .024 .024000004 0 .05300001 0 C .08200001 0 .106 .024 .106 .053000004 Z "/>
</symbol>
<use xlink:href="#font_0_1" transform="matrix(9.9626,0,0,-9.9626,122.61879,10.791996)"/>
<use xlink:href="#font_1_1" transform="matrix(9.9626,0,0,-9.9626,128.1239,11.1905)"/>
<use xlink:href="#font_1_1" transform="matrix(9.9626,0,0,-9.9626,135.8748,11.1905)"/>
<use xlink:href="#font_1_3" transform="matrix(9.9626,0,0,-9.9626,145.85733,10.901585)"/>
<use xlink:href="#font_2_1" transform="matrix(6.9738,0,0,-6.9738,151.86978,6.748735)"/>
<symbol id="font_3_3">
<path d="M .484 .09200001 C .484 .115 .484 .120000008 .47 .120000008 C .409 .12100001 .31 .12900001 .22000002 .17300001 C .112 .22700002 .071 .29000003 .046000005 .32900004 C .043 .33400003 .037 .33400003 .024 .33400003 C .0009999983 .33400003 0 .333 0 .30800004 L 0 .29200004 C .136 .047000003 .361 0 .463 0 C .484 0 .484 .001 .484 .028 L .484 .09200001 Z "/>
</symbol>
<use xlink:href="#font_3_3" transform="matrix(9.9626,0,0,-9.9626,83.8219,15.365997)"/>
<path transform="matrix(1,0,0,-1,88.544,15.3659939)" d="M 0 0 L 27.485 0 L 27.485 1.195 L 0 1.195 Z "/>
<symbol id="font_3_2">
<path d="M .48400004 .04200001 C .34800003 .28700004 .123 .33400003 .021000002 .33400003 C 0 .33400003 0 .333 0 .30600003 L 0 .24200002 C 0 .21900001 0 .21400002 .014 .21400002 C .075 .21300002 .17400001 .20500002 .264 .16100002 C .372 .10700001 .41300003 .044000016 .43800003 .00500001 C .441 0 .447 0 .46 0 C .483 0 .48400004 .001000002 .48400004 .026000008 L .48400004 .04200001 Z "/>
</symbol>
<symbol id="font_3_1">
<path d="M .484 .30600003 C .484 .333 .484 .33400003 .463 .33400003 C .361 .33400003 .136 .286 0 .04200001 L 0 .026000008 C 0 .001000002 .0009999983 0 .024 0 C .043 0 .044 .001000002 .049000004 .008000001 C .13100001 .13900002 .269 .21000003 .472 .21400002 C .484 .21400002 .484 .22100002 .484 .24200002 L .484 .30600003 Z "/>
</symbol>
<use xlink:href="#font_3_2" transform="matrix(9.9626,0,0,-9.9626,115.930377,17.49799)"/>
<use xlink:href="#font_3_1" transform="matrix(9.9626,0,0,-9.9626,120.27406,17.49799)"/>
<path transform="matrix(1,0,0,-1,124.996,15.3659939)" d="M 0 0 L 27.485 0 L 27.485 1.195 L 0 1.195 Z "/>
<symbol id="font_3_4">
<path d="M .48400004 .30800004 C .48400004 .333 .483 .33400003 .46 .33400003 C .441 .33400003 .44 .333 .435 .326 C .35300002 .19500001 .21500002 .124000009 .012000001 .120000008 C 0 .120000008 0 .113000009 0 .09200001 L 0 .028 C 0 .001 0 0 .021000002 0 C .123 0 .34800003 .048 .48400004 .29200004 L .48400004 .30800004 Z "/>
</symbol>
<use xlink:href="#font_3_4" transform="matrix(9.9626,0,0,-9.9626,152.38138,15.3659939)"/>
<symbol id="font_4_2">
<path d="M .492 .69100007 C .488 .711 .48500005 .716 .47 .716 C .45400004 .716 .45000003 .708 .44300003 .69500008 L .12799999 .09900001 C .116000007 .075 .089 .031000002 .004999999 .031000002 L 0 0 C .043000007 .003 .095000009 .003 .102000009 .003 C .146 .003 .16500002 .002 .215 0 L .22 .031000002 C .176 .031000002 .15400002 .052 .15400002 .076000008 C .15400002 .086 .15799999 .09200001 .16800002 .112 C .18200001 .13800001 .21700001 .20400001 .22999999 .23 L .489 .23 C .494 .201 .49500004 .19500001 .50100007 .165 C .50400009 .15200001 .521 .072000008 .521 .065000008 C .521 .031000002 .45900003 .031000002 .433 .031000002 L .428 0 C .47300003 .003 .52500006 .003 .57100006 .003 C .6100001 .003 .62700006 .002 .7020001 0 L .7070001 .031000002 C .6380001 .031000002 .6190001 .031000002 .61100009 .074 L .492 .69100007 M .419 .588 L .483 .261 L .24700001 .261 L .419 .588 Z "/>
</symbol>
<symbol id="font_4_14">
<path d="M .381 .43400003 C .38300003 .44300003 .38300003 .44500003 .38300003 .44700004 C .38300003 .45100004 .38000003 .45900003 .37 .45900003 C .36400003 .45900003 .343 .44200004 .33 .43100003 C .296 .45900003 .252 .45900003 .238 .45900003 C .092 .45900003 .053000004 .37000004 .053000004 .32000003 C .053000004 .23500002 .15 .21600002 .18 .21100001 C .24599999 .19800002 .303 .18700002 .303 .127 C .303 .126 .303 .025000003 .17000002 .025000003 C .095000009 .025000003 .061000006 .071 .055 .15600002 C .054000006 .17400001 .053000004 .18000002 .04 .18000002 C .030000002 .18000002 .027000003 .17600002 .024 .15900001 L 0 .013000001 C 0 .0060000007 .0040000008 0 .012000002 0 C .018 0 .019000002 .0010000002 .039000006 .021000002 C .045 .026 .059 .039 .064 .044 C .09600001 .0060000007 .137 0 .17000002 0 C .323 0 .359 .108 .359 .158 C .359 .19300002 .347 .21800003 .321 .24200002 C .294 .26900003 .259 .275 .20700002 .28500004 C .16600001 .293 .109000008 .30400003 .109000008 .35200004 C .109000008 .381 .13300002 .43700005 .238 .43700005 C .308 .43700005 .336 .40100003 .336 .34900005 C .336 .335 .33400003 .32900004 .33400003 .32400004 C .33400003 .31200005 .343 .31100003 .34800003 .31100003 C .361 .31100003 .36200003 .31900005 .36400003 .33200003 L .381 .43400003 Z "/>
</symbol>
<symbol id="font_4_8">
<path d="M .37800003 .24000003 C .402 .24000003 .41000004 .24000003 .41000004 .30300004 C .41000004 .41700004 .33400003 .45900003 .254 .45900003 C .117 .45900003 0 .32700003 0 .19400002 C 0 .081 .08499999 0 .194 0 C .32000003 0 .38500003 .113000009 .38500003 .13000001 C .38500003 .13700001 .38000003 .143 .37100003 .143 C .36200003 .143 .36 .13800001 .356 .13100001 C .317 .053000004 .245 .028 .20000002 .028 C .14500001 .028 .083000008 .065000008 .083000008 .16500002 C .083000008 .18500002 .087 .22000002 .091000009 .24000003 L .37800003 .24000003 M .096 .26400004 C .128 .404 .213 .43400003 .25300003 .43400003 C .32700003 .43400003 .344 .367 .344 .31700004 C .344 .291 .33900003 .26500003 .33900003 .26400004 L .096 .26400004 Z "/>
</symbol>
<symbol id="font_4_13">
<path d="M .17400001 .157 C .19000001 .254 .19600001 .287 .222 .33200003 C .24900002 .379 .286 .41700004 .34100003 .41700004 L .34100003 .416 C .33900003 .41500003 .31800003 .40100003 .31800003 .37300004 C .31800003 .344 .34100003 .335 .35700003 .335 C .38300003 .335 .407 .35700003 .407 .386 C .407 .41400004 .38400004 .44200004 .33900003 .44200004 C .264 .44200004 .21700001 .37300004 .2 .342 L .216 .44200004 L .072000008 .43100003 L .067 .4 C .126 .4 .13700001 .39400003 .13700001 .367 C .13700001 .36200003 .13700001 .36 .134 .34300003 L .089 .072000008 C .082 .031000002 .067 .031000002 .004999999 .031000002 C .0040000008 .023000002 .0010000002 .009000001 0 0 C .050000006 .002 .066 .003 .117 .003 C .164 .003 .186 .002 .245 0 L .25 .031000002 L .229 .031000002 C .163 .031000002 .15900001 .041 .15900001 .060000004 C .15900001 .066 .163 .089 .165 .10300001 L .17400001 .157 Z "/>
</symbol>
<symbol id="font_4_c">
<path d="M .254 .623 C .254 .65000006 .23400001 .67 .20600002 .67 C .17500001 .67 .14500001 .64100006 .14500001 .609 C .14500001 .58500006 .16300002 .56200006 .19300002 .56200006 C .22200002 .56200006 .254 .587 .254 .623 M .09300001 .432 C .07700001 .43100003 .076000008 .43 .074 .423 C .072 .41500003 .07000001 .40600003 .07000001 .4 C .12500002 .4 .13700001 .395 .13700001 .36800004 C .13700001 .36200003 .13700001 .36 .134 .34300003 L .089 .072000008 C .082 .031000002 .067 .031000002 .004999999 .031000002 C .0040000008 .023000002 .0009999983 .009000001 0 0 C .044000005 .002 .066 .003 .111 .003 C .13100001 .003 .16800002 .003 .21700002 0 L .223 .031000002 C .17800002 .031000002 .158 .031000002 .158 .056 C .158 .060000004 .158 .061000006 .16100002 .07700001 L .22200002 .44200004 L .09300001 .432 Z "/>
</symbol>
<symbol id="font_4_b">
<path d="M .48600004 .30600003 C .488 .316 .48900006 .324 .48900006 .33900003 C .48900006 .41300003 .441 .44200004 .36800004 .44200004 C .277 .44200004 .22300002 .37600003 .20800002 .354 L .20700002 .354 L .26400004 .694 L .11400001 .683 L .10900001 .652 C .16800002 .652 .17900002 .646 .17900002 .619 C .17900002 .614 .17900002 .61200007 .17600002 .595 L .089 .072000008 C .082 .031000002 .067 .031000002 .0050000029 .031000002 C .0040000008 .023000002 .001000002 .009000001 0 0 C .046 .002 .069000009 .003 .11400001 .003 C .16200002 .003 .17500001 .002 .22800002 0 L .23300001 .031000002 C .18300002 .031000002 .16100002 .031000002 .16100002 .057000005 C .16100002 .060000004 .16800002 .098000008 .17100002 .11800001 C .17400001 .13800001 .18500002 .20400001 .19300002 .25 C .21600002 .386 .31700004 .41700004 .36 .41700004 C .397 .41700004 .41700004 .39900003 .41700004 .35200004 C .41700004 .337 .40900005 .28800003 .40300004 .256 C .39800004 .22600001 .37600003 .087000008 .37300004 .07 C .36600004 .031000002 .351 .031000002 .289 .031000002 C .28800003 .023000002 .28500004 .009000001 .284 0 C .33 .002 .35300002 .003 .39800004 .003 C .44600005 .003 .45900003 .002 .512 0 L .517 .031000002 C .46700005 .031000002 .44500003 .031000002 .44500003 .057000005 C .44500003 .060000004 .44500003 .061000006 .448 .07700001 L .48600004 .30600003 Z "/>
</symbol>
<symbol id="font_4_11">
<path d="M .462 .263 C .462 .37500004 .38200004 .45900003 .27000005 .45900003 C .125 .45900003 0 .321 0 .18700002 C 0 .086 .076000008 0 .19400002 0 C .33200003 0 .462 .12100001 .462 .263 M .19900002 .028 C .16600001 .028 .083000008 .041 .083000008 .15600002 C .083000008 .17900002 .09200001 .29500003 .12900001 .35500003 C .164 .41000004 .219 .43400003 .26600004 .43400003 C .30300004 .43400003 .38200004 .41600005 .38200004 .30800004 C .38200004 .29500003 .376 .17700002 .33500005 .108 C .30300004 .055000005 .24800001 .028 .19900002 .028 Z "/>
</symbol>
<symbol id="font_4_16">
<path d="M .44200004 .45300005 L .28900004 .44200004 L .284 .411 C .34300003 .411 .35400004 .40500004 .35400004 .37800003 C .35400004 .37100003 .34800003 .337 .34500004 .316 L .32400004 .19000001 C .30100004 .057000005 .22100002 .025000003 .17200002 .025000003 C .102000009 .025000003 .098 .057000005 .098 .080000009 C .098 .092 .1 .104 .102000009 .116000007 L .15800002 .45300005 L .0050000029 .44200004 L 0 .411 C .059000009 .411 .07 .40500004 .07 .37800003 C .07 .36400003 .037000009 .17500001 .031999999 .14400001 C .028000005 .12200001 .028000005 .120000008 .028000005 .105000007 C .028000005 .029000003 .08100001 0 .16600001 0 C .24400002 0 .28900004 .052 .30800004 .081 L .30900003 .081 L .29500003 0 L .44500006 .011000001 C .44700004 .021000002 .448 .032 .45000006 .042000005 C .38900004 .042000005 .38000003 .049000004 .38000003 .075 C .38000003 .081 .38000003 .083000008 .38300003 .1 L .44200004 .45300005 Z "/>
</symbol>
<symbol id="font_4_e">
<path d="M .264 .694 L .11400001 .683 L .10900001 .652 C .16800002 .652 .179 .646 .179 .619 C .179 .614 .179 .61200007 .17600002 .595 L .089 .072000008 C .082 .031000002 .067 .031000002 .004999999 .031000002 C .0040000008 .023000002 .0009999983 .009000001 0 0 C .046 .002 .066 .003 .113000009 .003 C .16100002 .003 .18600002 .002 .22500001 0 L .23 .031000002 C .18 .031000002 .158 .031000002 .158 .057000005 C .158 .060000004 .15900001 .062000004 .16100002 .07700001 L .264 .694 Z "/>
</symbol>
<symbol id="font_4_7">
<path d="M .5120001 .705 L .36200003 .694 L .35700003 .663 C .416 .663 .42700003 .657 .42700003 .63 C .42700003 .624 .42700003 .622 .42400003 .606 L .388 .39300005 C .372 .41500003 .337 .45300005 .268 .45300005 C .135 .45300005 0 .335 0 .19000001 C 0 .074 .08600001 0 .18600002 0 C .25 0 .3 .033000005 .33 .062000004 L .32000003 0 L .47300003 .011000001 C .47500006 .021000002 .47600005 .032 .47800002 .042000005 C .41700004 .042000005 .40800003 .049000004 .40800003 .075 C .40800003 .081 .40800003 .083000008 .411 .1 L .5120001 .705 M .342 .13000001 C .337 .102000009 .30800004 .075 .291 .062000004 C .25 .031000004 .213 .025000003 .19100002 .025000003 C .13800001 .025000003 .082 .062000004 .082 .15700002 C .082 .16000001 .08400001 .275 .13100001 .34600003 C .16600001 .39900003 .222 .42800004 .272 .42800004 C .35300002 .42800004 .37800003 .35700003 .37800003 .351 L .37600003 .337 L .342 .13000001 Z "/>
</symbol>
<symbol id="font_4_5">
<path d="M .44500003 .15600002 C .439 .11800001 .43500004 .091000009 .43300004 .08400001 C .42800004 .065000008 .41300003 .040000004 .39000003 .040000004 C .36200003 .040000004 .36100004 .074 .36100004 .079 C .36100004 .087000008 .36800004 .127 .372 .14700002 C .379 .18400002 .40100003 .30300004 .40100003 .33300004 C .40100003 .40300004 .337 .45900003 .24200002 .45900003 C .13700001 .45900003 .07100001 .39900003 .07100001 .34500004 C .07100001 .321 .08700001 .305 .113000009 .305 C .14000002 .305 .165 .32700003 .165 .358 C .165 .39100004 .135 .397 .12900001 .39800004 C .17000002 .43200005 .229 .43400003 .23900002 .43400003 C .30600003 .43400003 .328 .37900005 .328 .33900003 C .328 .33300004 .328 .33100004 .319 .275 C .268 .27300004 .19000001 .26900003 .11700001 .23700002 C .017 .19200002 0 .124000009 0 .095000009 C 0 .027000003 .081000018 0 .14900002 0 C .23300001 0 .28000004 .057000005 .296 .082 C .296 .016 .33800004 .005000001 .36 .005000001 C .39300005 .005000001 .451 .027000003 .46300004 .096 C .465 .107 .47 .136 .47300003 .15600002 L .44500003 .15600002 M .31500004 .25100003 C .30800004 .21100001 .30400003 .16700001 .29400004 .13100001 C .27600003 .068 .21400002 .025000003 .157 .025000003 C .113000009 .025000003 .08000001 .053000004 .08000001 .094000007 C .08000001 .097 .08000001 .23900002 .31500004 .25100003 Z "/>
</symbol>
<symbol id="font_4_17">
<path d="M .398 .34500004 C .413 .37100003 .43800003 .40900005 .5 .411 L .505 .44200004 C .476 .43900005 .43300004 .43900005 .42800004 .43900005 C .4 .43900005 .37 .44000004 .343 .44200004 L .337 .41200004 C .338 .41200004 .377 .41000004 .377 .37600003 C .377 .36300005 .368 .34700004 .36400003 .33900003 L .22 .093 L .15400002 .36100004 C .15 .37500004 .15 .37700004 .15 .381 C .15 .411 .192 .411 .21000001 .411 C .211 .42000003 .21400002 .43400003 .215 .44200004 C .167 .44000004 .146 .43900005 .105 .43900005 C .10300001 .43900005 .043000007 .43900005 .0059999974 .44200004 L 0 .411 C .052999997 .411 .06600001 .40900005 .074999999 .37100003 L .16100002 .024 C .16499999 .0070000009 .167 0 .18200001 0 C .197 0 .20300001 .011000001 .208 .019000002 L .398 .34500004 Z "/>
</symbol>
<symbol id="font_4_15">
<path d="M .16100002 .411 L .30600003 .411 C .30800004 .42100004 .30900003 .43200005 .31100003 .44200004 L .16600001 .44200004 L .19600001 .626 L .16800002 .626 C .15400002 .541 .1 .43900005 .0040000008 .43600003 C .002000004 .42600004 .001000002 .42000003 0 .411 L .086 .411 L .041 .13900002 C .038000004 .12100001 .038000004 .117000009 .038000004 .106000009 C .038000004 .016 .11100001 0 .15400002 0 C .20400003 0 .23300001 .033000005 .24900002 .058000003 C .27 .092 .272 .106000009 .286 .19200002 L .25800003 .19200002 C .24700001 .126 .24500004 .11000001 .23400003 .086 C .21600002 .049000004 .19000003 .028 .162 .028 C .11100001 .028 .11100001 .082 .11100001 .095000009 C .11100001 .10300001 .11100001 .111 .114 .12900001 L .16100002 .411 Z "/>
</symbol>
<symbol id="font_4_f">
<path d="M .772 .30600003 C .774 .316 .77500006 .324 .77500006 .33900003 C .77500006 .41500003 .725 .44200004 .653 .44200004 C .555 .44200004 .5 .36400003 .49000005 .34800003 C .48600004 .43400003 .40900005 .44200004 .36800004 .44200004 C .27100004 .44200004 .21700001 .367 .20400001 .347 L .20300001 .347 L .21900001 .44200004 L .07200001 .43100003 L .067 .4 C .12600002 .4 .13700001 .39400003 .13700001 .367 C .13700001 .36200003 .13700001 .36 .13400002 .34300003 L .089 .072000008 C .082 .031000002 .067 .031000002 .0050000029 .031000002 C .0040000008 .023000002 .001000002 .009000001 0 0 C .046 .002 .069000009 .003 .11400001 .003 C .16200002 .003 .17500001 .002 .22800002 0 L .23300001 .031000002 C .18300002 .031000002 .16100002 .031000002 .16100002 .057000005 C .16100002 .060000004 .16800002 .098000008 .17100002 .11800001 C .17400001 .13800001 .18500002 .20400001 .19300002 .25 C .21600002 .386 .31700004 .41700004 .36100004 .41700004 C .39600004 .41700004 .418 .4 .418 .35200004 C .418 .344 .41700004 .337 .41600005 .32900004 L .374 .072000008 C .367 .031000002 .35200004 .031000002 .29000003 .031000002 C .289 .023000002 .286 .009000001 .28500004 0 C .33100004 .002 .35400004 .003 .39900003 .003 C .44700004 .003 .46000005 .002 .513 0 L .518 .031000002 C .46800003 .031000002 .44600005 .031000002 .44600005 .057000005 C .44600005 .060000004 .45300005 .098000008 .45600004 .11800001 C .45900003 .13800001 .47 .20400001 .47800002 .25 C .501 .386 .602 .41700004 .646 .41700004 C .681 .41700004 .703 .4 .703 .35200004 C .703 .344 .702 .337 .70100006 .32900004 L .659 .072000008 C .652 .031000002 .637 .031000002 .575 .031000002 C .574 .023000002 .571 .009000001 .57 0 C .616 .002 .639 .003 .684 .003 C .732 .003 .745 .002 .79800006 0 L .80300006 .031000002 C .753 .031000002 .731 .031000002 .731 .057000005 C .731 .060000004 .731 .061000006 .734 .07700001 L .772 .30600003 Z "/>
</symbol>
<use xlink:href="#font_4_2" transform="matrix(8.9664,0,0,-8.9664,85.42185,28.123995)"/>
<use xlink:href="#font_4_14" transform="matrix(8.9664,0,0,-8.9664,95.41042,28.222626)"/>
<use xlink:href="#font_4_8" transform="matrix(8.9664,0,0,-8.9664,99.29288,28.222626)"/>
<use xlink:href="#font_4_13" transform="matrix(8.9664,0,0,-8.9664,103.1036,28.123995)"/>
<use xlink:href="#font_4_c" transform="matrix(8.9664,0,0,-8.9664,106.761898,28.123995)"/>
<use xlink:href="#font_4_8" transform="matrix(8.9664,0,0,-8.9664,109.55941,28.222626)"/>
<use xlink:href="#font_4_14" transform="matrix(8.9664,0,0,-8.9664,113.40599,28.222626)"/>
<use xlink:href="#font_4_14" transform="matrix(8.9664,0,0,-8.9664,120.10389,28.222626)"/>
<use xlink:href="#font_4_b" transform="matrix(8.9664,0,0,-8.9664,123.744258,28.123995)"/>
<use xlink:href="#font_4_11" transform="matrix(8.9664,0,0,-8.9664,129.0972,28.222626)"/>
<use xlink:href="#font_4_16" transform="matrix(8.9664,0,0,-8.9664,134.07355,28.222626)"/>
<use xlink:href="#font_4_e" transform="matrix(8.9664,0,0,-8.9664,138.60158,28.123995)"/>
<use xlink:href="#font_4_7" transform="matrix(8.9664,0,0,-8.9664,141.44394,28.222626)"/>
<use xlink:href="#font_4_b" transform="matrix(8.9664,0,0,-8.9664,149.3523,28.123995)"/>
<use xlink:href="#font_4_5" transform="matrix(8.9664,0,0,-8.9664,154.67833,28.222626)"/>
<use xlink:href="#font_4_17" transform="matrix(8.9664,0,0,-8.9664,159.28707,28.222626)"/>
<use xlink:href="#font_4_8" transform="matrix(8.9664,0,0,-8.9664,163.67165,28.222626)"/>
<use xlink:href="#font_4_5" transform="matrix(8.9664,0,0,-8.9664,170.79993,28.222626)"/>
<use xlink:href="#font_4_15" transform="matrix(8.9664,0,0,-8.9664,178.73519,28.222626)"/>
<use xlink:href="#font_4_8" transform="matrix(8.9664,0,0,-8.9664,182.10657,28.222626)"/>
<use xlink:href="#font_4_13" transform="matrix(8.9664,0,0,-8.9664,185.91728,28.123995)"/>
<use xlink:href="#font_4_f" transform="matrix(8.9664,0,0,-8.9664,189.5666,28.123995)"/>
<use xlink:href="#font_4_15" transform="matrix(8.9664,0,0,-8.9664,200.7746,28.222626)"/>
<use xlink:href="#font_4_b" transform="matrix(8.9664,0,0,-8.9664,203.90389,28.123995)"/>
<use xlink:href="#font_4_5" transform="matrix(8.9664,0,0,-8.9664,209.22992,28.222626)"/>
<use xlink:href="#font_4_15" transform="matrix(8.9664,0,0,-8.9664,214.0897,28.222626)"/>
<symbol id="font_4_a">
<path d="M .50400009 .633 C .50100007 .63100007 .49 .624 .49 .605 C .49 .59000006 .50100007 .578 .51800009 .578 C .53300008 .578 .55200007 .59000006 .55200007 .615 C .55200007 .628 .544 .65900006 .50400009 .65900006 C .48300005 .65900006 .43600006 .65400007 .388 .61200007 C .36400003 .633 .328 .64800009 .28400005 .64800009 C .186 .64800009 .094000007 .572 .094000007 .48200006 C .094000007 .45400004 .101 .42600004 .125 .40100003 C .108 .38300003 .079 .34600003 .079 .29800005 C .079 .259 .09900001 .23600002 .109000008 .22800002 C .040000004 .20900002 0 .16100002 0 .11700001 C 0 .055000009 .082 0 .209 0 C .31 0 .458 .04100001 .458 .15 C .458 .24500002 .374 .27400003 .268 .27400003 L .177 .27400003 C .162 .27400003 .117 .27400003 .117 .32700003 C .117 .35200004 .133 .37600003 .141 .38500003 C .17600002 .35900004 .21200001 .35400004 .23900001 .35400004 C .34400005 .35400004 .43 .43700005 .43 .52000007 C .43 .563 .40500004 .596 .40400005 .59700009 C .439 .624 .47300006 .633 .50400009 .63400009 L .50400009 .633 M .24000003 .38100005 C .22600001 .38100005 .16800002 .38500003 .16800002 .458 C .16800002 .512 .18900001 .62100008 .283 .62100008 C .31300003 .62100008 .35500003 .609 .35500003 .54300007 C .35500003 .47100003 .325 .38100005 .24000003 .38100005 M .21000001 .02700001 C .11600001 .02700001 .056 .07000001 .056 .11600001 C .056 .134 .066 .16700001 .1 .19100002 C .128 .21100001 .14 .21100001 .215 .21100001 C .306 .21100001 .40100003 .21100001 .40100003 .14000002 C .40100003 .08200001 .31600005 .02700001 .21000001 .02700001 Z "/>
</symbol>
<symbol id="font_4_18">
<path d="M .607 .34500004 C .637 .40200005 .672 .41000004 .702 .411 C .703 .41900004 .70600005 .43300004 .707 .44200004 C .67300006 .43900005 .653 .43900005 .631 .43900005 C .623 .43900005 .578 .43900005 .541 .44200004 L .535 .41200004 C .539 .41200004 .584 .40900005 .584 .37100003 C .584 .35900004 .582 .35500003 .575 .34200005 L .441 .09 L .38700003 .35600005 C .38400004 .36900003 .38400004 .37100003 .38400004 .37900005 C .38400004 .411 .42600004 .411 .446 .411 C .44800005 .42100004 .44900004 .43200005 .451 .44200004 C .41300003 .44000004 .38500003 .43900005 .34700004 .43900005 C .34600003 .43900005 .28800003 .43900005 .25700004 .44200004 L .25100003 .411 C .27500005 .411 .3 .411 .30900003 .39900003 C .316 .39000003 .32400004 .35300002 .32400004 .34300003 C .32400004 .33900003 .32000003 .33200003 .31900005 .33 L .19700003 .10300001 L .146 .358 C .143 .37100003 .143 .37300004 .143 .37900005 C .143 .411 .18600002 .411 .20600003 .411 L .21100003 .44200004 C .16300002 .44000004 .14200002 .43900005 .101 .43900005 C .06800001 .43900005 .04 .43900005 .0060000049 .44200004 L 0 .411 C .055 .411 .060999998 .40600003 .06800001 .37200005 L .13800001 .024 C .141 .0070000009 .143 0 .15800002 0 C .17000002 0 .17600003 .0070000009 .18200001 .018000002 L .33300004 .30100004 L .38900004 .023000002 C .39200003 .0070000009 .39400003 0 .40800003 0 C .42200003 0 .42600004 .0070000009 .43300007 .020000002 L .607 .34500004 Z "/>
</symbol>
<symbol id="font_4_12">
<path d="M .47 .63600006 L .44800005 .63600006 C .446 .635 .44500003 .63400009 .438 .624 L .39100004 .546 C .36800004 .60400006 .326 .63600006 .266 .63600006 C .134 .63600006 0 .518 0 .37300004 C 0 .25800003 .08500001 .183 .18600002 .183 C .254 .183 .30400003 .223 .33100004 .25100003 C .323 .199 .30800004 .108 .30400003 .089 C .29500003 .033999996 .29400004 .031000004 .21800003 .031000004 L .213 0 C .26000003 .002000004 .279 .0029999912 .32700003 .0029999912 C .37 .0029999912 .39400003 .002000004 .44000004 0 L .446 .031000004 C .395 .031000004 .374 .031000004 .374 .056999998 C .374 .061000006 .374 .06299999 .37700004 .079 L .47 .63600006 M .34800003 .33 C .34300003 .29700003 .27800004 .208 .19100002 .208 C .13100001 .208 .08500001 .266 .08500001 .35900004 C .08500001 .50100007 .18400002 .60800006 .272 .60800006 C .35900004 .60800006 .374 .51100006 .374 .49 C .374 .488 .37300004 .485 .37100003 .47100003 L .34800003 .33 Z "/>
</symbol>
<symbol id="font_4_6">
<path d="M .363 .404 C .323 .39900003 .31300003 .367 .31300003 .351 C .31300003 .32700003 .32900004 .31100003 .35500003 .31100003 C .38000003 .31100003 .40800003 .33 .40800003 .37000004 C .40800003 .42800004 .34300003 .45900003 .26400004 .45900003 C .120000008 .45900003 0 .32500003 0 .19100002 C 0 .078 .083000008 0 .19 0 C .326 0 .379 .120000008 .379 .13100001 C .379 .14200002 .36900003 .14200002 .36600004 .14200002 C .35700003 .14200002 .35500003 .13900002 .35000003 .128 C .30200003 .036000004 .22800002 .028 .20000002 .028 C .13900002 .028 .08400001 .07300001 .08400001 .17100002 C .08400001 .291 .15 .43100003 .26500003 .43100003 C .27400003 .43100003 .33200003 .43000005 .363 .404 Z "/>
</symbol>
<symbol id="font_4_d">
<path d="M .264 .694 L .11400001 .683 L .10900001 .652 C .16800002 .652 .179 .646 .179 .619 C .179 .614 .179 .61200007 .17600002 .595 L .089 .072000008 C .082 .031000002 .067 .031000002 .004999999 .031000002 C .0040000008 .023000002 .0010000002 .009000001 0 0 C .046000005 .002 .066 .003 .111 .003 C .157 .003 .18 .002 .222 0 L .227 .031000002 C .17700002 .031000002 .155 .031000002 .155 .057000005 C .155 .063 .16900002 .14600002 .172 .15900001 C .17500001 .178 .17600002 .179 .185 .186 L .24700001 .23200001 C .30800004 .12900001 .33900003 .076000008 .33900003 .058000003 C .33900003 .041 .328 .031000002 .30100004 .031000002 C .29900003 .021000002 .298 .010000001 .296 0 C .34100003 .002 .365 .003 .404 .003 C .43300004 .003 .46500004 .003 .49400006 0 L .49900005 .031000002 C .44200004 .031000002 .437 .040000004 .39000003 .124000009 L .305 .273 C .44300003 .381 .48600004 .39800004 .538 .4 C .53900006 .40800003 .54200008 .42200003 .543 .43100003 C .50699999 .42800004 .505 .42800004 .46800003 .42800004 C .446 .42800004 .404 .42900003 .36 .43100003 L .354 .40100003 C .36600004 .40100003 .377 .393 .377 .381 C .377 .363 .36100004 .34800003 .35200004 .34 C .347 .337 .20600002 .23300001 .185 .21800001 L .264 .694 Z "/>
</symbol>
<symbol id="font_4_19">
<path d="M .484 .53900006 C .522 .60300007 .569 .60400006 .588 .605 C .589 .61300006 .592 .62700006 .593 .63600006 C .564 .633 .521 .633 .51600006 .633 C .486 .633 .462 .633 .43 .63600006 L .425 .60600009 C .433 .60600009 .46400003 .6010001 .46400003 .57000008 C .46400003 .55500009 .45200003 .536 .45200003 .535 L .31 .296 L .24300002 .55500009 C .23900001 .569 .23900001 .57100006 .23900001 .57500007 C .23900001 .605 .28 .605 .298 .605 L .303 .63600006 C .261 .63400009 .23700002 .633 .193 .633 C .19100002 .633 .13100001 .633 .094000007 .63600006 L .08800001 .605 C .143 .605 .15400002 .602 .164 .564 L .256 .20500002 C .19000001 .091000009 .15200001 .025000006 .086 .025000006 C .062000004 .025000006 .048 .03500001 .042 .04100001 C .079 .047000007 .086 .076000008 .086 .09000001 C .086 .11800001 .065000008 .125 .05 .125 C .033999999 .125 0 .11500001 0 .07000001 C 0 .024000004 .04 0 .08100001 0 C .16600001 0 .22700002 .10300001 .23500002 .117000009 L .484 .53900006 Z "/>
</symbol>
<symbol id="font_4_10">
<path d="M .48600004 .30600003 C .488 .316 .48900006 .324 .48900006 .33900003 C .48900006 .41300003 .441 .44200004 .36800004 .44200004 C .29000003 .44200004 .23400003 .39400003 .20400001 .347 L .20300001 .347 L .21900001 .44200004 L .07200001 .43100003 L .067 .4 C .12600002 .4 .13700001 .39400003 .13700001 .367 C .13700001 .36200003 .13700001 .36 .13400002 .34300003 L .089 .072000008 C .082 .031000002 .067 .031000002 .0050000029 .031000002 C .0040000008 .023000002 .001000002 .009000001 0 0 C .046 .002 .069000009 .003 .11400001 .003 C .16200002 .003 .17500001 .002 .22800002 0 L .23300001 .031000002 C .18300002 .031000002 .16100002 .031000002 .16100002 .057000005 C .16100002 .060000004 .16800002 .098000008 .17100002 .11800001 C .17400001 .13800001 .18500002 .20400001 .19300002 .25 C .21600002 .386 .31700004 .41700004 .36 .41700004 C .397 .41700004 .41700004 .39900003 .41700004 .35200004 C .41700004 .337 .40900005 .28800003 .40300004 .256 C .39800004 .22600001 .37600003 .087000008 .37300004 .07 C .36600004 .031000002 .351 .031000002 .289 .031000002 C .28800003 .023000002 .28500004 .009000001 .284 0 C .33 .002 .35300002 .003 .39800004 .003 C .44600005 .003 .45900003 .002 .512 0 L .517 .031000002 C .46700005 .031000002 .44500003 .031000002 .44500003 .057000005 C .44500003 .060000004 .44500003 .061000006 .448 .07700001 L .48600004 .30600003 Z "/>
</symbol>
<symbol id="font_4_9">
<path d="M .21500002 .4 L .331 .4 C .333 .41000004 .334 .42100004 .336 .43100003 L .21700002 .43100003 L .23600002 .54700008 C .24700003 .61600008 .298 .68 .352 .68 C .366 .68 .375 .67700007 .379 .675 C .368 .67 .34600003 .656 .34600003 .62700006 C .34600003 .609 .357 .58900007 .386 .58900007 C .412 .58900007 .43600003 .609 .43600003 .64100006 C .43600003 .68 .4 .70500007 .352 .70500007 C .269 .70500007 .18300002 .64000007 .16800002 .549 L .149 .43100003 L .07000001 .43100003 C .068 .42100004 .067 .41000004 .065 .4 L .143 .4 L .089 .072000008 C .082 .031000002 .067 .031000002 .004999999 .031000002 C .0040000008 .023000002 .0009999983 .009000001 0 0 C .05 .002 .066 .003 .11700001 .003 C .164 .003 .18600002 .002 .24500002 0 L .25 .031000002 L .22900002 .031000002 C .16300002 .031000002 .15900001 .041 .15900001 .060000004 C .15900001 .064 .15900001 .066 .16200002 .083000008 L .21500002 .4 Z "/>
</symbol>
<use xlink:href="#font_4_a" transform="matrix(8.9664,0,0,-8.9664,85.2585,41.855077)"/>
<use xlink:href="#font_4_13" transform="matrix(8.9664,0,0,-8.9664,90.00172,40.007997)"/>
<use xlink:href="#font_4_11" transform="matrix(8.9664,0,0,-8.9664,93.88417,40.106626)"/>
<use xlink:href="#font_4_18" transform="matrix(8.9664,0,0,-8.9664,98.45703,40.106626)"/>
<use xlink:href="#font_4_14" transform="matrix(8.9664,0,0,-8.9664,104.643848,40.106626)"/>
<use xlink:href="#font_4_5" transform="matrix(8.9664,0,0,-8.9664,111.56591,40.106626)"/>
<use xlink:href="#font_4_15" transform="matrix(8.9664,0,0,-8.9664,116.4257,40.106626)"/>
<use xlink:href="#font_4_e" transform="matrix(8.9664,0,0,-8.9664,122.63942,40.007997)"/>
<use xlink:href="#font_4_8" transform="matrix(8.9664,0,0,-8.9664,125.436939,40.106626)"/>
<use xlink:href="#font_4_5" transform="matrix(8.9664,0,0,-8.9664,129.49872,40.106626)"/>
<use xlink:href="#font_4_14" transform="matrix(8.9664,0,0,-8.9664,133.88329,40.106626)"/>
<use xlink:href="#font_4_15" transform="matrix(8.9664,0,0,-8.9664,137.98093,40.106626)"/>
<use xlink:href="#font_4_5" transform="matrix(8.9664,0,0,-8.9664,144.3919,40.106626)"/>
<use xlink:href="#font_4_14" transform="matrix(8.9664,0,0,-8.9664,148.78545,40.106626)"/>
<use xlink:href="#font_4_12" transform="matrix(8.9664,0,0,-8.9664,155.78821,41.74748)"/>
<use xlink:href="#font_4_16" transform="matrix(8.9664,0,0,-8.9664,160.9618,40.106626)"/>
<use xlink:href="#font_4_c" transform="matrix(8.9664,0,0,-8.9664,165.48984,40.007997)"/>
<use xlink:href="#font_4_6" transform="matrix(8.9664,0,0,-8.9664,168.3322,40.106626)"/>
<use xlink:href="#font_4_d" transform="matrix(8.9664,0,0,-8.9664,171.83806,40.007997)"/>
<use xlink:href="#font_4_e" transform="matrix(8.9664,0,0,-8.9664,176.75164,40.007997)"/>
<use xlink:href="#font_4_19" transform="matrix(8.9664,0,0,-8.9664,178.98427,41.846109)"/>
<use xlink:href="#font_4_5" transform="matrix(8.9664,0,0,-8.9664,187.44855,40.106626)"/>
<use xlink:href="#font_4_14" transform="matrix(8.9664,0,0,-8.9664,191.84209,40.106626)"/>
<use xlink:href="#font_4_11" transform="matrix(8.9664,0,0,-8.9664,198.78209,40.106626)"/>
<use xlink:href="#font_4_10" transform="matrix(8.9664,0,0,-8.9664,203.1577,40.007997)"/>
<use xlink:href="#font_4_8" transform="matrix(8.9664,0,0,-8.9664,208.5196,40.106626)"/>
<use xlink:href="#font_4_11" transform="matrix(8.9664,0,0,-8.9664,215.68375,40.106626)"/>
<use xlink:href="#font_4_9" transform="matrix(8.9664,0,0,-8.9664,220.06832,40.007997)"/>
<symbol id="font_4_3">
<path d="M .46800003 .36100004 C .563 .38400004 .672 .44900004 .672 .544 C .672 .64100006 .56 .70500007 .43300004 .70500007 L .11400001 .70500007 C .113000009 .697 .11 .683 .109 .674 L .131 .674 C .19600001 .674 .205 .66600009 .205 .64500007 C .205 .64100006 .205 .63900008 .202 .623 L .11400001 .095000009 C .109 .063 .099999997 .053000004 .028 .053000004 L .004999999 .053000004 L 0 .022000002 C .044999999 .025000003 .099999997 .025000003 .146 .025000003 C .194 .025000003 .244 .025000003 .29100005 .022000002 C .29200004 .031000004 .29500003 .045 .29600004 .053000004 L .27400003 .053000004 C .206 .053000004 .2 .062000008 .2 .082 C .2 .087000008 .2 .089 .20300001 .105000007 L .244 .35100005 L .36600004 .35100005 C .46100006 .35100005 .48400007 .28700004 .48400007 .252 C .48400007 .24700001 .48400007 .24200002 .47300003 .179 C .46800003 .15100001 .465 .13300002 .465 .119 C .465 .035000005 .538 0 .612 0 C .7 0 .727 .1 .727 .116000007 C .727 .117000009 .727 .12900001 .714 .12900001 C .703 .12900001 .70100006 .122 .699 .112 C .686 .060000004 .653 .025000003 .616 .025000003 C .569 .025000003 .569 .07 .569 .117000009 C .569 .148 .572 .22000002 .572 .231 C .572 .31200005 .514 .34700004 .46800003 .36100004 M .36500005 .37600003 L .24800001 .37600003 L .29100005 .63500007 C .29600004 .66300007 .30200003 .669 .31900005 .67200008 C .32900004 .674 .36 .674 .38100005 .674 C .45700003 .674 .572 .674 .572 .56100007 C .572 .42900003 .48200003 .37600003 .36500005 .37600003 Z "/>
</symbol>
<symbol id="font_4_4">
<path d="M .40500004 .60700008 C .40900005 .634 .416 .64000007 .42900003 .643 C .439 .646 .46700008 .646 .48700006 .646 C .61500009 .646 .64300009 .625 .64300009 .52500006 C .64300009 .49400003 .64100006 .47300003 .63900008 .45200003 L .66700008 .45200003 L .68500009 .67700007 L .058 .67700007 L 0 .45200003 L .027999998 .45200003 C .07000001 .61300006 .09 .646 .24500002 .646 C .26100005 .646 .286 .646 .292 .64500007 C .311 .643 .31700004 .64000007 .31700004 .624 C .31700004 .62 .31700004 .61800006 .314 .601 L .22700002 .076000008 C .221 .040000004 .20600002 .031000002 .11400001 .031000002 L .075 .031000002 L .07000001 0 C .106000009 .003 .216 .003 .259 .003 C .30200006 .003 .41200007 .003 .448 0 C .44900007 .008 .45200003 .022000002 .453 .031000002 L .41400004 .031000002 C .35800005 .031000002 .315 .031000002 .315 .063 C .315 .065000008 .31600005 .071 .31700004 .076000008 L .40500004 .60700008 Z "/>
</symbol>
<symbol id="font_4_1">
<path d="M .20800002 .651 C .209 .65500006 .21200003 .666 .21200003 .671 C .21200003 .694 .193 .716 .163 .716 C .15900003 .716 .10700001 .716 .10200001 .65400007 L .066 .215 L .066 .208 C .066 .20700002 .067 .20300001 .066 .202 C .06500001 .19900002 .06500001 .18900001 .07900001 .18900001 C .09 .18900001 .09200001 .19100002 .096 .208 L .20800002 .651 M .110000018 .060000004 C .110000018 .085 .09300001 .108 .061000006 .108 C .027000003 .108 0 .076000008 0 .048 C 0 .023000002 .017000005 0 .04900001 0 C .083000008 0 .110000018 .032 .110000018 .060000004 Z "/>
</symbol>
<use xlink:href="#font_4_15" transform="matrix(8.9664,0,0,-8.9664,86.52211,52.862627)"/>
<use xlink:href="#font_4_b" transform="matrix(8.9664,0,0,-8.9664,89.65139,52.763998)"/>
<use xlink:href="#font_4_8" transform="matrix(8.9664,0,0,-8.9664,95.01329,52.862627)"/>
<use xlink:href="#font_4_14" transform="matrix(8.9664,0,0,-8.9664,98.85988,52.862627)"/>
<use xlink:href="#font_4_8" transform="matrix(8.9664,0,0,-8.9664,102.74233,52.862627)"/>
<use xlink:href="#font_4_c" transform="matrix(8.9664,0,0,-8.9664,109.68233,52.763998)"/>
<use xlink:href="#font_4_9" transform="matrix(8.9664,0,0,-8.9664,112.24672,52.763998)"/>
<use xlink:href="#font_4_19" transform="matrix(8.9664,0,0,-8.9664,117.79692,54.602109)"/>
<use xlink:href="#font_4_11" transform="matrix(8.9664,0,0,-8.9664,122.96156,52.862627)"/>
<use xlink:href="#font_4_16" transform="matrix(8.9664,0,0,-8.9664,127.93791,52.862627)"/>
<use xlink:href="#font_4_18" transform="matrix(8.9664,0,0,-8.9664,135.98078,52.862627)"/>
<use xlink:href="#font_4_5" transform="matrix(8.9664,0,0,-8.9664,142.13175,52.862627)"/>
<use xlink:href="#font_4_10" transform="matrix(8.9664,0,0,-8.9664,146.53426,52.763998)"/>
<use xlink:href="#font_4_15" transform="matrix(8.9664,0,0,-8.9664,151.85132,52.862627)"/>
<use xlink:href="#font_4_15" transform="matrix(8.9664,0,0,-8.9664,158.51335,52.862627)"/>
<use xlink:href="#font_4_11" transform="matrix(8.9664,0,0,-8.9664,161.87577,52.862627)"/>
<use xlink:href="#font_4_16" transform="matrix(8.9664,0,0,-8.9664,169.91863,52.862627)"/>
<use xlink:href="#font_4_14" transform="matrix(8.9664,0,0,-8.9664,174.42873,52.862627)"/>
<use xlink:href="#font_4_8" transform="matrix(8.9664,0,0,-8.9664,178.31119,52.862627)"/>
<use xlink:href="#font_4_3" transform="matrix(8.9664,0,0,-8.9664,185.28704,52.961259)"/>
<use xlink:href="#font_4_11" transform="matrix(8.9664,0,0,-8.9664,192.2629,52.862627)"/>
<use xlink:href="#font_4_11" transform="matrix(8.9664,0,0,-8.9664,197.12268,52.862627)"/>
<use xlink:href="#font_4_15" transform="matrix(8.9664,0,0,-8.9664,201.95557,52.862627)"/>
<use xlink:href="#font_4_4" transform="matrix(8.9664,0,0,-8.9664,208.85074,52.763998)"/>
<use xlink:href="#font_4_8" transform="matrix(8.9664,0,0,-8.9664,214.2844,52.862627)"/>
<use xlink:href="#font_4_14" transform="matrix(8.9664,0,0,-8.9664,218.13097,52.862627)"/>
<use xlink:href="#font_4_15" transform="matrix(8.9664,0,0,-8.9664,222.2286,52.862627)"/>
<use xlink:href="#font_4_1" transform="matrix(8.9664,0,0,-8.9664,225.90485,52.763998)"/>
</svg>
