<?xml version="1.0" encoding="UTF-8" standalone="no"?>
<!DOCTYPE svg PUBLIC "-//W3C//DTD SVG 1.1//EN" "http://www.w3.org/Graphics/SVG/1.1/DTD/svg11.dtd">
<svg xmlns="http://www.w3.org/2000/svg" xmlns:xlink="http://www.w3.org/1999/xlink" version="1.1" width="227.967pt" height="227.967pt" viewBox="0 0 227.967 227.967">
<path transform="matrix(1,0,0,-1,113.984,113.982997)" stroke-width="1.19553" stroke-linecap="butt" stroke-miterlimit="10" stroke-linejoin="miter" fill="none" stroke="#000080" d="M 113.38724 0 C 113.38724 62.62283 62.62283 113.38724 0 113.38724 C -62.62283 113.38724 -113.38724 62.62283 -113.38724 0 C -113.38724 -62.62283 -62.62283 -113.38724 0 -113.38724 C 62.62283 -113.38724 113.38724 -62.62283 113.38724 0 Z M 0 0 "/>
<path transform="matrix(1,0,0,-1,113.984,113.982997)" d="M 85.04042 0 C 85.04042 46.96713 46.96713 85.04042 0 85.04042 C -46.96713 85.04042 -85.04042 46.96713 -85.04042 0 C -85.04042 -46.96713 -46.96713 -85.04042 0 -85.04042 C 46.96713 -85.04042 85.04042 -46.96713 85.04042 0 Z M 0 0 " fill="#cc6600"/>
<path transform="matrix(1,0,0,-1,113.984,113.982997)" stroke-width="1" stroke-linecap="butt" stroke-miterlimit="10" stroke-linejoin="miter" fill="none" stroke="#cc6600" d="M 85.04042 0 C 85.04042 46.96713 46.96713 85.04042 0 85.04042 C -46.96713 85.04042 -85.04042 46.96713 -85.04042 0 C -85.04042 -46.96713 -46.96713 -85.04042 0 -85.04042 C 46.96713 -85.04042 85.04042 -46.96713 85.04042 0 Z M 0 0 "/>
<path transform="matrix(1,0,0,-1,113.984,113.982997)" stroke-width="1" stroke-linecap="butt" stroke-miterlimit="10" stroke-linejoin="miter" fill="none" stroke="#000080" d="M 0 0 L 85.04042 0 "/>
<path transform="matrix(1,0,0,-1,113.984,113.982997)" stroke-width="1" stroke-linecap="butt" stroke-miterlimit="10" stroke-linejoin="miter" fill="none" stroke="#000080" d="M 85.04042 0 L 113.38724 0 "/>
<symbol id="font_0_4">
<path d="M .375 .41600005 C .342 .41000004 .325 .38200004 .325 .36100004 C .325 .34200005 .33900003 .32500003 .364 .32500003 C .391 .32500003 .419 .34800003 .419 .38500003 C .419 .42400003 .38300003 .45300005 .334 .45300005 C .259 .45300005 .21700001 .397 .20300001 .37800003 C .19100002 .43300004 .14600002 .45300005 .10800001 .45300005 C .072000008 .45300005 .049000004 .43100003 .032000007 .39600004 C .013000002 .36 0 .30300004 0 .29900003 C 0 .29000003 .007000001 .28700004 .014 .28700004 C .025 .28700004 .027 .29200004 .032000007 .31200005 C .051000008 .39100004 .072000008 .42800004 .106000009 .42800004 C .136 .42800004 .136 .39600004 .136 .381 C .136 .36 .128 .32900004 .12200001 .30300004 C .11500001 .277 .105000007 .23400001 .10100001 .22200002 L .061000006 .058000003 C .054000006 .034 .054000006 .032 .054000006 .029000003 C .054000006 .016 .06300001 0 .08500001 0 C .11700001 0 .12400001 .027000003 .13100001 .056 C .143 .09900001 .143 .101 .15300001 .14200002 C .19000001 .29200004 .19600001 .316 .19800002 .321 C .20400001 .33300004 .25 .42800004 .333 .42800004 C .356 .42800004 .37 .42000003 .375 .41600005 Z "/>
</symbol>
<use xlink:href="#font_0_4" transform="matrix(8.9664,0,0,-8.9664,126.56003,123.13163)" fill="#000080"/>
<symbol id="font_1_7">
<path d="M .651 .20400003 C .6650001 .20400003 .6840001 .20400003 .6840001 .22500003 C .6840001 .24700001 .66200008 .24700001 .6470001 .24700001 L .037 .24700001 C .022 .24700001 0 .24700001 0 .22500003 C 0 .20400003 .020000004 .20400003 .033 .20400003 L .651 .20400003 M .6470001 0 C .66200008 0 .6840001 0 .6840001 .022 C .6840001 .042999999 .6650001 .042999999 .651 .042999999 L .033 .042999999 C .020000004 .042999999 0 .042999999 0 .022 C 0 0 .022 0 .037 0 L .6470001 0 Z "/>
</symbol>
<symbol id="font_1_5">
<path d="M 0 .19600001 L 0 .165 L .273 .165 L .273 .079 C .273 .042000005 .27 .031000002 .19500001 .031000002 L .17300001 .031000002 L .17300001 0 C .23600002 .003 .306 .003 .313 .003 C .318 .003 .39000003 .003 .453 0 L .453 .031000002 L .431 .031000002 C .356 .031000002 .35300002 .042000005 .35300002 .079 L .35300002 .165 L .455 .165 L .455 .19600001 L .35300002 .19600001 L .35300002 .65000006 C .35300002 .67 .35300002 .67700007 .334 .67700007 C .322 .67700007 .321 .67600008 .312 .66200008 L 0 .19600001 M .032000007 .19600001 L .279 .56600007 L .279 .19600001 L .032000007 .19600001 Z "/>
</symbol>
<use xlink:href="#font_1_7" transform="matrix(8.9664,0,0,-8.9664,133.78508,121.894268)" fill="#000080"/>
<use xlink:href="#font_1_5" transform="matrix(8.9664,0,0,-8.9664,143.2536,123.033)" fill="#000080"/>
<symbol id="font_2_2">
<path d="M .772 .30600003 C .774 .316 .77500006 .324 .77500006 .33900003 C .77500006 .41500003 .725 .44200004 .653 .44200004 C .555 .44200004 .5 .36400003 .49000005 .34800003 C .48600004 .43400003 .40900005 .44200004 .36800004 .44200004 C .27100004 .44200004 .21700001 .367 .20400001 .347 L .20300001 .347 L .21900001 .44200004 L .07200001 .43100003 L .067 .4 C .12600002 .4 .13700001 .39400003 .13700001 .367 C .13700001 .36200003 .13700001 .36 .13400002 .34300003 L .089 .072000008 C .082 .031000002 .067 .031000002 .0050000029 .031000002 C .0040000008 .023000002 .001000002 .009000001 0 0 C .046 .002 .069000009 .003 .11400001 .003 C .16200002 .003 .17500001 .002 .22800002 0 L .23300001 .031000002 C .18300002 .031000002 .16100002 .031000002 .16100002 .057000005 C .16100002 .060000004 .16800002 .098000008 .17100002 .11800001 C .17400001 .13800001 .18500002 .20400001 .19300002 .25 C .21600002 .386 .31700004 .41700004 .36100004 .41700004 C .39600004 .41700004 .418 .4 .418 .35200004 C .418 .344 .41700004 .337 .41600005 .32900004 L .374 .072000008 C .367 .031000002 .35200004 .031000002 .29000003 .031000002 C .289 .023000002 .286 .009000001 .28500004 0 C .33100004 .002 .35400004 .003 .39900003 .003 C .44700004 .003 .46000005 .002 .513 0 L .518 .031000002 C .46800003 .031000002 .44600005 .031000002 .44600005 .057000005 C .44600005 .060000004 .45300005 .098000008 .45600004 .11800001 C .45900003 .13800001 .47 .20400001 .47800002 .25 C .501 .386 .602 .41700004 .646 .41700004 C .681 .41700004 .703 .4 .703 .35200004 C .703 .344 .702 .337 .70100006 .32900004 L .659 .072000008 C .652 .031000002 .637 .031000002 .575 .031000002 C .574 .023000002 .571 .009000001 .57 0 C .616 .002 .639 .003 .684 .003 C .732 .003 .745 .002 .79800006 0 L .80300006 .031000002 C .753 .031000002 .731 .031000002 .731 .057000005 C .731 .060000004 .731 .061000006 .734 .07700001 L .772 .30600003 Z "/>
</symbol>
<use xlink:href="#font_2_2" transform="matrix(8.9664,0,0,-8.9664,150.99483,123.033)" fill="#000080"/>
<symbol id="font_1_1">
<path d="M .40800003 .693 C .39900003 .711 .39400003 .716 .37800003 .716 C .36400003 .716 .358 .711 .351 .697 L .006000001 .024 C .0020000004 .016 0 .011000001 0 .009000001 C 0 0 .0069999995 0 .023000002 0 L .734 0 C .75 0 .757 0 .757 .009000001 C .757 .010000001 .757 .012 .75200006 .022000002 L .40800003 .693 M .34500004 .61700007 L .623 .07700001 L .068 .07700001 L .34500004 .61700007 Z "/>
</symbol>
<use xlink:href="#font_1_1" transform="matrix(8.9664,0,0,-8.9664,207.58835,106.37299)" fill="#000080"/>
<use xlink:href="#font_0_4" transform="matrix(8.9664,0,0,-8.9664,215.08902,106.47163)" fill="#000080"/>
<symbol id="font_1_4">
<path d="M .21100003 .63900008 C .21100003 .66400006 .21000001 .666 .18500003 .666 C .123 .60200008 .031000004 .60200008 0 .60200008 L 0 .57100006 C .019000002 .57100006 .080000009 .57100006 .134 .597 L .134 .080000009 C .134 .043 .13100001 .031000002 .03800001 .031000002 L .0060000049 .031000002 L .0060000049 0 C .042000005 .003 .13100001 .003 .17200002 .003 C .21300003 .003 .30300004 .003 .33900003 0 L .33900003 .031000002 L .307 .031000002 C .21400002 .031000002 .21100003 .043 .21100003 .080000009 L .21100003 .63900008 Z "/>
</symbol>
<use xlink:href="#font_1_4" transform="matrix(8.9664,0,0,-8.9664,204.30287,123.032)" fill="#000080"/>
<symbol id="font_2_1">
<path d="M .363 .404 C .323 .39900003 .31300003 .367 .31300003 .351 C .31300003 .32700003 .32900004 .31100003 .35500003 .31100003 C .38000003 .31100003 .40800003 .33 .40800003 .37000004 C .40800003 .42800004 .34300003 .45900003 .26400004 .45900003 C .120000008 .45900003 0 .32500003 0 .19100002 C 0 .078 .083000008 0 .19 0 C .326 0 .379 .120000008 .379 .13100001 C .379 .14200002 .36900003 .14200002 .36600004 .14200002 C .35700003 .14200002 .35500003 .13900002 .35000003 .128 C .30200003 .036000004 .22800002 .028 .20000002 .028 C .13900002 .028 .08400001 .07300001 .08400001 .17100002 C .08400001 .291 .15 .43100003 .26500003 .43100003 C .27400003 .43100003 .33200003 .43000005 .363 .404 Z "/>
</symbol>
<use xlink:href="#font_2_1" transform="matrix(8.9664,0,0,-8.9664,211.74875,123.13063)" fill="#000080"/>
<use xlink:href="#font_2_2" transform="matrix(8.9664,0,0,-8.9664,215.55947,123.032)" fill="#000080"/>
<use xlink:href="#font_1_1" transform="matrix(8.9664,0,0,-8.9664,72.590358,20.151993)" fill="#000080"/>
<symbol id="font_0_2">
<path d="M .14500001 .117000009 C .096 .037 .052 .034 .012000002 .031000002 C .0050000029 .030000002 0 .022000002 0 .013 C 0 .007 .0040000008 0 .014000002 0 C .033 0 .080000009 .003 .09900001 .003 C .12100001 .003 .17500001 0 .19700001 0 C .20300001 0 .21600002 0 .21600002 .018000002 C .21600002 .030000002 .20400001 .031000002 .201 .031000002 C .19200002 .032 .15400002 .034 .15400002 .064 C .15400002 .078 .165 .097 .16800002 .102000009 L .24700001 .231 L .508 .231 C .51100006 .208 .514 .17400001 .517 .149 C .521 .11000001 .527 .066 .527 .063 C .527 .048 .513 .031000002 .455 .031000002 C .44500003 .031000002 .432 .031000002 .432 .013 C .432 .002 .44000004 0 .44700004 0 C .46600003 0 .49 .002 .51000007 .002 C .53000006 .002 .554 .003 .57000008 .003 C .60300007 .003 .605 .003 .629 .002 C .64500007 .001 .66800007 0 .684 0 C .69000008 0 .703 0 .703 .018000002 C .703 .031000002 .69200006 .031000002 .68 .031000002 C .62 .031000002 .619 .038000004 .61600008 .067 L .546 .689 C .544 .711 .54300007 .716 .526 .716 C .512 .716 .50600007 .70900008 .49800004 .69600006 L .14500001 .117000009 M .266 .26200003 L .468 .592 L .50500008 .26200003 L .266 .26200003 Z "/>
</symbol>
<use xlink:href="#font_0_2" transform="matrix(8.9664,0,0,-8.9664,80.16276,20.151993)" fill="#000080"/>
<symbol id="font_3_1">
<path d="M .6840001 .412 C .6840001 .43800003 .6750001 .44500003 .669 .44500003 C .65800008 .44500003 .65500006 .425 .65400007 .421 C .65200009 .398 .65000006 .36600004 .6050001 .333 C .5820001 .315 .54800006 .303 .5130001 .303 C .457 .303 .40800003 .331 .34800003 .372 C .286 .414 .234 .446 .171 .446 C .071 .446 0 .367 0 .277 C 0 .25100003 .008999996 .24400002 .015000001 .24400002 C .024999999 .24400002 .029 .262 .030000002 .268 C .031000004 .289 .033 .323 .079 .356 C .102000009 .374 .136 .386 .171 .386 C .227 .386 .277 .35700003 .335 .31800003 C .4 .273 .451 .243 .5130001 .243 C .61300006 .243 .6840001 .322 .6840001 .412 M .6840001 .169 C .6840001 .19300002 .67600008 .20199999 .669 .20199999 C .65800008 .20199999 .65500006 .18200001 .65400007 .178 C .65200009 .155 .65000006 .123 .6050001 .09000001 C .57900008 .07000001 .5450001 .060000004 .5130001 .060000004 C .457 .060000004 .40800003 .08800001 .34800003 .12900001 C .286 .171 .234 .20300001 .171 .20300001 C .071 .20300001 0 .124000009 0 .034 C 0 .008000001 .008999996 .001000002 .015000001 .001000002 C .024999999 .001000002 .029 .019000002 .030000002 .025000006 C .031000004 .046000005 .033 .080000009 .079 .11300001 C .102000009 .13100001 .136 .143 .171 .143 C .227 .143 .277 .114 .335 .075 C .4 .030000002 .451 0 .5130001 0 C .614 0 .6840001 .080000009 .6840001 .169 Z "/>
</symbol>
<use xlink:href="#font_3_1" transform="matrix(8.9664,0,0,-8.9664,89.81209,19.721606)" fill="#000080"/>
<symbol id="font_0_3">
<path d="M .48200006 .671 C .486 .685 .486 .68700006 .486 .691 C .486 .7 .48000003 .705 .47100003 .705 C .45700003 .705 .36900003 .697 .34900005 .695 C .33900003 .694 .328 .693 .328 .676 C .328 .663 .33900003 .663 .35500003 .663 C .40200005 .663 .40200005 .656 .40200005 .647 C .40200005 .64 .39300005 .605 .388 .584 L .36900003 .507 C .35900004 .46900005 .34900005 .43000005 .34000004 .39100004 C .321 .42700003 .29000003 .45300005 .245 .45300005 C .12900001 .45300005 0 .31500004 0 .16200002 C 0 .052 .07 0 .137 0 C .20200002 0 .25500003 .054 .27100004 .07300001 C .282 .018000002 .33200003 0 .36400003 0 C .39300005 0 .418 .013000001 .44000004 .055000005 C .458 .08800001 .472 .15000002 .472 .15400002 C .472 .15900001 .46900005 .16600001 .45900006 .16600001 C .44700004 .16600001 .44600005 .16100002 .44200004 .14200002 C .42000003 .055000005 .39800004 .025000003 .367 .025000003 C .342 .025000003 .33600004 .049000004 .33600004 .071 C .33600004 .08400001 .34100003 .112 .342 .115 L .48200006 .671 M .275 .13200002 C .27100004 .116000007 .27 .11400001 .254 .094000007 C .21800003 .051000004 .17700002 .025000003 .14000002 .025000003 C .091 .025000003 .074 .076000008 .074 .119 C .074 .16800002 .10300001 .28300003 .127 .33100004 C .15900001 .39100004 .20500002 .42800004 .245 .42800004 C .312 .42800004 .32700003 .34700004 .32700003 .34200005 C .32700003 .337 .32500003 .33100004 .32400004 .32700003 L .275 .13200002 Z "/>
</symbol>
<use xlink:href="#font_0_3" transform="matrix(8.9664,0,0,-8.9664,99.40459,20.250624)" fill="#000080"/>
<use xlink:href="#font_0_2" transform="matrix(8.9664,0,0,-8.9664,104.13885,20.151993)" fill="#000080"/>
<use xlink:href="#font_0_2" transform="matrix(8.9664,0,0,-8.9664,117.585758,156.47699)" fill="#000080"/>
<symbol id="font_1_2">
<path d="M .24000001 .011000007 C .24000001 .016000003 .23700002 .019000009 .231 .026000008 C .102000009 .14400001 .063 .324 .063 .499 C .063 .65400007 .093 .84200009 .234 .9760001 C .238 .98 .24000001 .98300006 .24000001 .98800006 C .24000001 .99500009 .23500002 .9990001 .22800002 .9990001 C .21599999 .9990001 .12600002 .92700007 .072000008 .818 C .023999997 .722 0 .619 0 .5 C 0 .42800004 .009000003 .314 .064 .19600001 C .123 .073 .21599999 0 .22800002 0 C .23500002 0 .24000001 .004000008 .24000001 .011000007 Z "/>
</symbol>
<use xlink:href="#font_1_2" transform="matrix(8.9664,0,0,-8.9664,125.06961,158.70963)" fill="#000080"/>
<use xlink:href="#font_0_4" transform="matrix(8.9664,0,0,-8.9664,128.00803,156.57563)" fill="#000080"/>
<symbol id="font_1_3">
<path d="M .24000001 .5 C .24000001 .582 .22800002 .69200006 .17600002 .80300006 C .11700001 .92600008 .024 .9990001 .011999998 .9990001 C .0020000004 .9990001 0 .99100008 0 .98800006 C 0 .98300006 .0020000004 .98 .009 .97300007 C .067 .92100009 .17700002 .785 .17700002 .5 C .17700002 .35700003 .15100001 .158 .006000001 .023000002 C .0040000008 .019999996 0 .016000003 0 .011000007 C 0 .008000001 .0020000004 0 .011999998 0 C .024 0 .11400001 .07200001 .16800002 .18100001 C .21600002 .277 .24000001 .38000003 .24000001 .5 Z "/>
</symbol>
<symbol id="font_1_6">
<path d="M .091000009 .35300005 C .091000009 .45500005 .10200001 .512 .12900001 .56400009 C .149 .605 .19800002 .66300007 .272 .66300007 C .292 .66300007 .338 .65900006 .361 .623 C .324 .623 .308 .60400006 .308 .577 C .308 .55100008 .326 .531 .354 .531 C .382 .531 .40100003 .549 .40100003 .57900008 C .40100003 .63500007 .361 .688 .27 .688 C .14100002 .688 0 .56100007 0 .33800004 C 0 .067 .12200001 0 .216 0 C .327 0 .42700003 .093 .42700003 .22500001 C .42700003 .35200004 .335 .44800005 .22200002 .44800005 C .16200002 .44800005 .119 .41300006 .091000009 .35300005 M .21500002 .028 C .158 .028 .12500002 .075 .113000009 .104 C .09400001 .149 .09300001 .23200001 .09300001 .24800001 C .09300001 .31500004 .12400001 .42300005 .22000002 .42300005 C .23600002 .42300005 .285 .42300005 .317 .36100004 C .336 .32300005 .336 .27400003 .336 .22600001 C .336 .178 .336 .12900001 .317 .092 C .286 .035000005 .24200003 .028 .21500002 .028 Z "/>
</symbol>
<use xlink:href="#font_1_3" transform="matrix(8.9664,0,0,-8.9664,132.68206,158.70963)" fill="#000080"/>
<use xlink:href="#font_1_7" transform="matrix(8.9664,0,0,-8.9664,138.81507,155.33826)" fill="#000080"/>
<use xlink:href="#font_1_4" transform="matrix(8.9664,0,0,-8.9664,148.86641,156.47699)" fill="#000080"/>
<use xlink:href="#font_1_6" transform="matrix(8.9664,0,0,-8.9664,153.02683,156.67426)" fill="#000080"/>
<symbol id="font_0_1">
<path d="M .246 .38000003 L .36 .38000003 C .345 .31700004 .319 .21300002 .319 .13000001 C .319 .123 .319 .086 .328 .05 C .338 .012000001 .347 0 .367 0 C .388 0 .41 .018000002 .41 .041 C .41 .048 .409 .051000004 .403 .064 C .372 .134 .372 .20800002 .372 .23100002 C .372 .256 .372 .3 .389 .38000003 L .50600007 .38000003 C .519 .38000003 .556 .38000003 .556 .41600005 C .556 .44200004 .53400006 .44200004 .51500007 .44200004 L .16900002 .44200004 C .14500001 .44200004 .11000001 .44200004 .063 .395 C .036 .36800004 0 .31300003 0 .305 C 0 .29400004 .011000002 .29400004 .014 .29400004 C .022000002 .29400004 .024000003 .29600004 .030000003 .30600003 C .079 .38000003 .14000002 .38000003 .16000001 .38000003 L .21700002 .38000003 C .17400001 .22900002 .105 .087000008 .098 .072000008 C .091000009 .058000003 .081 .037 .081 .029000003 C .081 .016 .09 0 .11200001 0 C .14800002 0 .15700002 .036000004 .17800002 .117000009 L .246 .38000003 Z "/>
</symbol>
<use xlink:href="#font_0_1" transform="matrix(8.9664,0,0,-8.9664,157.4901,156.57563)" fill="#000080"/>
</svg>
