<?xml version="1.0" encoding="UTF-8" standalone="no"?>
<!DOCTYPE svg PUBLIC "-//W3C//DTD SVG 1.1//EN" "http://www.w3.org/Graphics/SVG/1.1/DTD/svg11.dtd">
<svg xmlns="http://www.w3.org/2000/svg" xmlns:xlink="http://www.w3.org/1999/xlink" version="1.1" width="200.683pt" height="165.558pt" viewBox="0 0 200.683 165.558">
<clipPath id="cp0">
<path transform="matrix(1,0,0,-1,51.827,105.2)" d="M -51.82733 -44.25235 L -51.82733 56.7847 L 0 101.03705 L 142.39723 84.93056 L 142.39723 -16.10649 L 90.56989 -60.35884 Z "/>
</clipPath>
<g clip-path="url(#cp0)">
<path transform="matrix(1,0,0,-1,51.827,105.2)" stroke-width="1" stroke-linecap="butt" stroke-miterlimit="10" stroke-linejoin="miter" fill="none" stroke="#808080" d="M -4.99324 -6.06923 L -3.91165 -6.18507 L -2.81804 -6.29004 L -1.71463 -6.38374 L -.60184 -6.46658 L .5192 -6.53763 L 1.64702 -6.5978 L 2.78058 -6.64609 L 3.9193 -6.6833 L 5.06064 -6.70808 L 6.20432 -6.72166 L 7.34804 -6.72346 L 8.4922 -6.71376 L 9.63486 -6.6923 L 10.77364 -6.65956 L 11.90912 -6.61497 L 13.03952 -6.55956 L 14.16289 -6.49164 L 15.2783 -6.41275 L 16.38521 -6.32237 L 17.4821 -6.22116 L 18.56749 -6.10846 L 19.64145 -5.98524 L 20.7011 -5.85101 L 19.76994 -5.97995 "/>
<path transform="matrix(.99165,-.13734,-.13734,-.99165,71.59694,111.17995)" d="M 1.99252 0 L -1.19551 1.59401 L 0 0 L -1.19551 -1.59401 " fill="#808080"/>
<path transform="matrix(1,0,0,-1,51.827,105.2)" stroke-width="1" stroke-linecap="butt" stroke-miterlimit="10" stroke-linejoin="miter" fill="none" stroke="#808080" d="M 6.9669 17.32158 L 7.25687 17.12556 L 7.54697 16.92436 L 7.83664 16.71838 L 8.12645 16.50758 L 8.41525 16.29219 L 8.70374 16.07239 L 8.99161 15.84758 L 9.27876 15.61865 L 9.56474 15.38474 L 9.84982 15.14676 L 10.13403 14.90424 L 10.41675 14.65799 L 10.69814 14.40746 L 10.97821 14.15282 L 11.25679 13.8948 L 11.53389 13.63318 L 11.80847 13.36754 L 12.08188 13.09784 L 12.35294 12.82506 L 12.62221 12.549 L 12.88927 12.26956 L 13.15395 11.98734 L 13.41629 11.70197 L 12.3399 12.89458 "/>
<path transform="matrix(.67082,.74329,.74329,-.67082,64.166889,92.305408)" d="M 1.99252 0 L -1.19551 1.59401 L 0 0 L -1.19551 -1.59401 " fill="#808080"/>
<path transform="matrix(1,0,0,-1,51.827,105.2)" stroke-width="1" stroke-linecap="butt" stroke-miterlimit="10" stroke-linejoin="miter" fill="none" stroke="#808080" d="M 6.9669 4.14284 L 8.92389 6.26347 L 10.88086 8.38411 L 12.83783 10.50475 L 14.79482 12.62537 L 16.75177 14.74602 L 18.70876 16.86665 L 20.66573 18.98727 L 22.62271 21.10793 L 24.57968 23.22855 L 26.53665 25.34917 L 28.49362 27.4698 L 30.4506 29.59044 L 32.40758 31.71107 L 34.36455 33.83171 L 36.32153 35.95233 L 38.2785 38.07297 L 40.23547 40.19362 L 42.19244 42.31424 L 44.14943 44.43486 L 46.1064 46.5555 L 48.06339 48.67613 L 50.02036 50.79677 L 51.97734 52.91739 L 52.5811 53.57167 "/>
<path transform="matrix(.67915,-.73593,-.73593,-.67915,104.40809,51.628328)" d="M 1.99252 0 L -1.19551 1.59401 L 0 0 L -1.19551 -1.59401 " fill="#808080"/>
<path transform="matrix(1,0,0,-1,51.827,105.2)" stroke-width="1" stroke-linecap="butt" stroke-dasharray="2.98883,2.98883" stroke-miterlimit="10" stroke-linejoin="miter" fill="none" stroke="#808080" d="M 6.9669 4.14284 L 9.0195 2.77493 L 11.0721 1.40701 L 13.1247 .0391 L 15.17728 -1.32881 L 17.22987 -2.69672 L 19.28249 -4.06465 L 21.33507 -5.43256 L 23.38766 -6.80049 L 25.44028 -8.16841 L 27.49286 -9.53632 L 29.54544 -10.90425 L 31.59805 -12.27216 L 33.65063 -13.64009 L 35.70322 -15.008 L 37.75583 -16.37592 L 39.80843 -17.74384 L 41.86101 -19.11176 L 43.91362 -20.47966 L 45.9662 -21.8476 L 48.0188 -23.21552 L 50.0714 -24.58344 L 52.124 -25.95135 L 54.17659 -27.31926 L 56.22917 -28.6872 "/>
<path transform="matrix(1,0,0,-1,51.827,105.2)" stroke-width="1" stroke-linecap="butt" stroke-dasharray="2.98883,2.98883" stroke-miterlimit="10" stroke-linejoin="miter" fill="none" stroke="#808080" d="M 56.22997 -28.68771 L 56.22997 -25.02696 L 56.22997 -21.36623 L 56.22997 -17.70547 L 56.22997 -14.04472 L 56.22997 -10.38397 L 56.22997 -6.72322 L 56.22997 -3.06247 L 56.22997 .59825 L 56.22997 4.259 L 56.22997 7.91975 L 56.22997 11.58049 L 56.22997 15.24126 L 56.22997 18.902 L 56.22997 22.56274 L 56.22997 26.2235 L 56.22997 29.88423 L 56.22997 33.54498 L 56.22997 37.20572 L 56.22997 40.86649 L 56.22997 44.52722 L 56.22997 48.18797 L 56.22997 51.84872 L 56.22997 55.50948 L 56.22997 59.17021 "/>
<symbol id="font_1_1">
<path d="M .41300003 .511 C .41300003 .577 .395 .716 .293 .716 C .15400002 .716 0 .43400003 0 .20500002 C 0 .111 .029 0 .12 0 C .261 0 .41300003 .28700004 .41300003 .511 M .106 .374 C .123 .43800003 .143 .518 .183 .589 C .21000001 .638 .24700001 .694 .29200004 .694 C .34100003 .694 .34700004 .63 .34700004 .573 C .34700004 .524 .33900003 .47300003 .31500004 .374 L .106 .374 M .30600003 .34200005 C .29500003 .29600004 .27400003 .21100001 .23600003 .13900002 C .201 .071 .16300002 .022000002 .12 .022000002 C .087000008 .022000002 .066 .051000004 .066 .14400001 C .066 .18600002 .072000008 .24400002 .098 .34200005 L .30600003 .34200005 Z "/>
</symbol>
<use xlink:href="#font_1_1" transform="matrix(9.9626,0,0,-9.9626,59.27743,122.72057)"/>
<symbol id="font_1_2">
<path d="M .120000008 .048000009 C .11600001 .034999998 .11500001 .033000009 .11500001 .027999998 C .11500001 .0059999974 .13400002 0 .14400001 0 C .14900002 0 .17100002 .003000006 .18100001 .026000008 C .18400002 .033999996 .18900001 .067 .216 .209 C .22500001 .208 .23200001 .207 .24900003 .207 C .41500003 .207 .569 .36400003 .569 .522 C .569 .6 .53000006 .66 .45499999 .66 C .31 .66 .25 .46600003 .19000001 .27100004 C .082 .291 .026000005 .347 .026000005 .41900004 C .026000005 .44700004 .049000008 .55700007 .10900001 .62600007 C .11700001 .63500007 .11700001 .637 .11700001 .63900008 C .11700001 .643 .11500001 .64900007 .105000007 .64900007 C .07700001 .64900007 0 .504 0 .40800003 C 0 .314 .066 .24100001 .17300001 .216 L .120000008 .048000009 M .25800003 .26500003 C .25 .26500003 .24800001 .26500003 .24000003 .266 C .22800003 .266 .22700002 .26700003 .22700002 .27 C .22700002 .272 .244 .36300005 .24700003 .37800003 C .278 .50600007 .356 .602 .44500003 .602 C .514 .602 .541 .54800006 .541 .5 C .541 .38700003 .412 .26500003 .25800003 .26500003 Z "/>
</symbol>
<use xlink:href="#font_1_2" transform="matrix(9.9626,0,0,-9.9626,60.35413,88.04884)"/>
<symbol id="font_1_4">
<path d="M .059000009 .07000001 C .056 .055000005 .050000006 .032 .050000006 .027000003 C .050000006 .009000001 .064 0 .079 0 C .091000009 0 .10900001 .008000001 .11600001 .028 C .118 .032 .15200001 .16800002 .156 .18600002 C .164 .21900001 .18200001 .28900004 .18800001 .316 C .19200002 .32900004 .22000002 .37600003 .244 .39800004 C .252 .40500004 .281 .43100003 .324 .43100003 C .35 .43100003 .365 .41900004 .366 .41900004 C .336 .41400004 .314 .39000003 .314 .36400003 C .314 .34800003 .325 .32900004 .352 .32900004 C .379 .32900004 .407 .35200004 .407 .388 C .407 .42300005 .375 .45300005 .324 .45300005 C .259 .45300005 .21500002 .404 .19600001 .37600003 C .18800001 .42100004 .15200001 .45300005 .105000007 .45300005 C .059000009 .45300005 .040000008 .41400004 .031000002 .39600004 C .013000002 .36200003 0 .30200003 0 .29900003 C 0 .28900004 .01 .28900004 .012 .28900004 C .022000002 .28900004 .023 .29000003 .029000001 .31200005 C .046000005 .38300003 .06600001 .43100003 .10200001 .43100003 C .119 .43100003 .133 .42300005 .133 .38500003 C .133 .36400003 .13000001 .35300002 .11700001 .30100004 L .059000009 .07000001 Z "/>
</symbol>
<use xlink:href="#font_1_4" transform="matrix(9.9626,0,0,-9.9626,79.06191,73.411579)"/>
<path transform="matrix(1,0,0,-1,51.827,105.2)" d="M 58.72066 56.97414 C 58.72066 58.34972 57.60555 59.46483 56.22997 59.46483 C 54.85439 59.46483 53.73927 58.34972 53.73927 56.97414 C 53.73927 55.59856 54.85439 54.48344 56.22997 54.48344 C 57.60555 54.48344 58.72066 55.59856 58.72066 56.97414 Z M 56.22997 56.97414 "/>
<path transform="matrix(1,0,0,-1,51.827,105.2)" stroke-width="1" stroke-linecap="butt" stroke-miterlimit="10" stroke-linejoin="miter" fill="none" stroke="#000000" d="M 58.72066 56.97414 C 58.72066 58.34972 57.60555 59.46483 56.22997 59.46483 C 54.85439 59.46483 53.73927 58.34972 53.73927 56.97414 C 53.73927 55.59856 54.85439 54.48344 56.22997 54.48344 C 57.60555 54.48344 58.72066 55.59856 58.72066 56.97414 Z M 56.22997 56.97414 "/>
<symbol id="font_2_1">
<path d="M .23200003 .00999999 C .23200003 .012999982 .23200003 .014999986 .215 .03199999 C .09 .15799999 .058 .347 .058 .5 C .058 .674 .096 .84800007 .21900001 .97300007 C .23200003 .985 .23200003 .98700007 .23200003 .99 C .23200003 .99700006 .22800002 1 .222 1 C .21200001 1 .12200001 .93200007 .06299999 .805 C .012000002 .69500008 0 .584 0 .5 C 0 .422 .011 .301 .066 .188 C .126 .065 .21200001 0 .222 0 C .22800002 0 .23200003 .0029999912 .23200003 .00999999 Z "/>
</symbol>
<use xlink:href="#font_2_1" transform="matrix(9.9626,0,0,-9.9626,112.5623,51.011648)"/>
<symbol id="font_1_5">
<path d="M .305 .31300003 C .311 .33900003 .334 .43100003 .404 .43100003 C .409 .43100003 .433 .43100003 .454 .418 C .426 .41300003 .40600003 .388 .40600003 .36400003 C .40600003 .34800003 .417 .32900004 .444 .32900004 C .46600003 .32900004 .498 .34700004 .498 .38700003 C .498 .43900005 .439 .45300005 .405 .45300005 C .347 .45300005 .312 .40000005 .3 .37700004 C .275 .44300003 .221 .45300005 .19200002 .45300005 C .08800001 .45300005 .031000002 .32400004 .031000002 .29900003 C .031000002 .28900004 .041 .28900004 .043000007 .28900004 C .051000008 .28900004 .054000006 .291 .056 .3 C .09 .40600003 .156 .43100003 .19000001 .43100003 C .209 .43100003 .244 .42200003 .244 .36400003 C .244 .33300004 .22700002 .26600004 .19000001 .126 C .17400001 .064 .13900002 .022000002 .095000009 .022000002 C .08900001 .022000002 .06600001 .022000002 .045 .035 C .07000001 .040000004 .09200001 .061 .09200001 .089 C .09200001 .116000007 .07000001 .124000009 .055000009 .124000009 C .025 .124000009 0 .098000008 0 .06600001 C 0 .020000002 .050000006 0 .094000007 0 C .16000001 0 .19600001 .07000001 .19900002 .076000008 C .21100001 .039 .24700003 0 .307 0 C .41 0 .467 .12900001 .467 .15400002 C .467 .16400002 .458 .16400002 .455 .16400002 C .446 .16400002 .444 .16000001 .442 .15300001 C .409 .046 .341 .022000002 .30900003 .022000002 C .27 .022000002 .254 .054 .254 .08800001 C .254 .11000001 .26 .13200002 .271 .17600002 L .305 .31300003 Z "/>
</symbol>
<symbol id="font_1_3">
<path d="M .117000009 .194 C .117000009 .26 .092 .29900003 .05300001 .29900003 C .020000004 .29900003 0 .274 0 .246 C 0 .21900001 .020000004 .193 .05300001 .193 C .065000008 .193 .078 .197 .08800001 .206 C .091 .208 .092 .209 .093 .209 C .094000007 .209 .095000009 .208 .095000009 .194 C .095000009 .12 .06000001 .060000004 .027000003 .026999996 C .016000003 .016000003 .016000003 .013999999 .016000003 .0109999929 C .016000003 .003999993 .021000006 0 .026 0 C .037 0 .117000009 .077 .117000009 .194 Z "/>
</symbol>
<symbol id="font_1_6">
<path d="M .45700003 .586 C .461 .6 .461 .602 .461 .609 C .461 .62700006 .447 .63600006 .432 .63600006 C .42200003 .63600006 .40600003 .63 .397 .615 C .395 .61 .387 .579 .38300003 .561 C .37600003 .535 .36900003 .508 .363 .48100005 L .318 .301 C .314 .286 .271 .21600002 .20500002 .21600002 C .15400002 .21600002 .143 .26000003 .143 .29700003 C .143 .34300003 .16000001 .40500004 .194 .49300004 C .21000001 .53400006 .21400002 .545 .21400002 .56500008 C .21400002 .61 .18200001 .6470001 .13200002 .6470001 C .037 .6470001 0 .50200006 0 .49300004 C 0 .48300005 .01 .48300005 .012 .48300005 C .022000002 .48300005 .023 .485 .028000003 .50100007 C .055000009 .595 .095000009 .625 .12900001 .625 C .13700001 .625 .15400002 .625 .15400002 .59300008 C .15400002 .568 .14400001 .54200008 .13700001 .523 C .097 .41700004 .079 .36 .079 .31300003 C .079 .224 .142 .194 .201 .194 C .24000003 .194 .274 .21100001 .30200003 .23900002 C .289 .187 .277 .13800001 .237 .08500001 C .21100001 .051 .17300001 .022 .127 .022 C .113000009 .022 .068 .025000006 .051000008 .06400001 C .067 .06400001 .080000009 .06400001 .094000007 .076000008 C .104 .08500001 .11400001 .098000008 .11400001 .117000009 C .11400001 .148 .087000008 .15200001 .07700001 .15200001 C .054000006 .15200001 .021 .136 .021 .087000008 C .021 .037 .065000008 0 .127 0 C .23 0 .333 .091000009 .361 .20400001 L .45700003 .586 Z "/>
</symbol>
<symbol id="font_1_7">
<path d="M .09 .094000007 C .14400001 .15200001 .17300001 .17700002 .209 .20800002 C .209 .20900002 .271 .26200003 .307 .298 C .402 .39100004 .424 .43900005 .424 .44300003 C .424 .45300005 .41500003 .45300005 .41300003 .45300005 C .40600003 .45300005 .403 .45100004 .398 .44200004 C .368 .39400003 .347 .37800003 .323 .37800003 C .299 .37800003 .287 .39300005 .272 .41000004 C .253 .43300004 .23600002 .45300005 .20300001 .45300005 C .128 .45300005 .082 .36 .082 .33900003 C .082 .33400003 .08500001 .328 .09400001 .328 C .103000018 .328 .105000007 .33300004 .10700001 .33900003 C .12600002 .38500003 .18400002 .38600005 .19200002 .38600005 C .21300002 .38600005 .23200001 .37900005 .255 .37100003 C .29500003 .35600005 .306 .35600005 .33200003 .35600005 C .296 .31300003 .21200003 .24100001 .19300002 .22500003 L .103000018 .14100002 C .035 .074 0 .017 0 .010000001 C 0 0 .010000002 0 .012000002 0 C .02 0 .022000004 .0020000004 .028 .013000001 C .051000004 .048 .081 .075 .113000009 .075 C .136 .075 .14600002 .06600001 .17100002 .037 C .18800001 .016 .20600002 0 .23500003 0 C .334 0 .39200003 .127 .39200003 .15400002 C .39200003 .15900001 .388 .16400002 .38 .16400002 C .37100003 .16400002 .36900003 .158 .366 .15100001 C .343 .086 .279 .067 .246 .067 C .22600003 .067 .20800002 .07300001 .187 .080000009 C .15300001 .093 .13800001 .097 .11700001 .097 C .11500001 .097 .09900001 .097 .09 .094000007 Z "/>
</symbol>
<use xlink:href="#font_1_5" transform="matrix(9.9626,0,0,-9.9626,115.73892,48.630586)"/>
<use xlink:href="#font_1_3" transform="matrix(9.9626,0,0,-9.9626,122.005397,50.44378)"/>
<use xlink:href="#font_1_6" transform="matrix(9.9626,0,0,-9.9626,125.87089,50.563329)"/>
<use xlink:href="#font_1_3" transform="matrix(9.9626,0,0,-9.9626,131.67908,50.44378)"/>
<use xlink:href="#font_1_7" transform="matrix(9.9626,0,0,-9.9626,135.67409,48.630586)"/>
<symbol id="font_2_2">
<path d="M .232 .5 C .232 .578 .22100002 .699 .16600001 .81200006 C .106 .93500009 .020000004 1 .009999998 1 C .0040000008 1 0 .99600008 0 .99 C 0 .98700007 0 .985 .019000002 .967 C .117000009 .86800006 .174 .709 .174 .5 C .174 .329 .137 .153 .012999997 .026999996 C 0 .014999986 0 .012999982 0 .00999999 C 0 .003999993 .0040000008 0 .009999998 0 C .020000004 0 .11000001 .06799999 .169 .195 C .22 .305 .232 .416 .232 .5 Z "/>
</symbol>
<use xlink:href="#font_2_2" transform="matrix(9.9626,0,0,-9.9626,140.88089,51.011648)"/>
</g>
<path transform="matrix(1,0,0,-1,51.827,105.2)" stroke-width="1" stroke-linecap="butt" stroke-miterlimit="10" stroke-linejoin="miter" fill="none" stroke="#000000" d="M 10.95363 7.54686 L -39.35555 -35.4092 "/>
<path transform="matrix(-.76193,.65057,.65057,.76193,12.47147,140.60918)" d="M 1.99252 0 L -1.19551 1.59401 L 0 0 L -1.19551 -1.59401 "/>
<path transform="matrix(1,0,0,-1,51.827,105.2)" stroke-width="1" stroke-linecap="butt" stroke-miterlimit="10" stroke-linejoin="miter" fill="none" stroke="#000000" d="M -3.98671 5.38179 L 136.42993 -10.50072 "/>
<path transform="matrix(.994,.11241,.11241,-.994,188.25693,115.7007)" d="M 1.99252 0 L -1.19551 1.59401 L 0 0 L -1.19551 -1.59401 "/>
<path transform="matrix(1,0,0,-1,51.827,105.2)" stroke-width="1" stroke-linecap="butt" stroke-miterlimit="10" stroke-linejoin="miter" fill="none" stroke="#000000" d="M 6.9669 -4.64297 L 6.9669 94.40154 "/>
<path transform="matrix(0,-1,-1,-0,58.7939,10.798454)" d="M 1.99252 0 L -1.19551 1.59401 L 0 0 L -1.19551 -1.59401 "/>
<symbol id="font_3_1">
<path d="M .201 .116000007 C .19100002 .082 .15800002 .028 .107 .028 C .10400001 .028 .07400001 .028 .053000004 .042000005 C .094000007 .055000005 .09700001 .091 .09700001 .097 C .09700001 .119 .080000009 .134 .057000005 .134 C .029000007 .134 0 .11 0 .073 C 0 .023000002 .056 0 .10500001 0 C .15100003 0 .192 .029000003 .21700001 .071 C .241 .018000002 .296 0 .336 0 C .451 0 .512 .125 .512 .15300001 C .512 .16600001 .49900005 .16600001 .49600003 .16600001 C .48200003 .16600001 .48100005 .16100002 .47700004 .14900002 C .456 .08 .39600004 .028 .34 .028 C .3 .028 .279 .055000005 .279 .093 C .279 .119 .303 .21000001 .331 .321 C .351 .398 .39600004 .423 .42900003 .423 C .43100003 .423 .46200005 .423 .483 .409 C .451 .4 .439 .372 .439 .354 C .439 .33200003 .456 .317 .479 .317 C .50200006 .317 .535 .336 .535 .37800003 C .535 .43400003 .47100006 .451 .43100003 .451 C .381 .451 .34100003 .418 .319 .38 C .301 .421 .255 .451 .199 .451 C .087000008 .451 .023000002 .328 .023000002 .298 C .023000002 .285 .037 .285 .040000008 .285 C .053000004 .285 .054000006 .289 .059000009 .30200003 C .084 .38 .14700002 .423 .19600001 .423 C .229 .423 .256 .405 .256 .357 C .256 .337 .24400002 .287 .23500002 .25300003 L .201 .116000007 Z "/>
</symbol>
<use xlink:href="#font_3_1" transform="matrix(6.9738,0,0,-6.9738,8.032741,147.46073)"/>
<symbol id="font_3_2">
<path d="M .50900009 .58100005 C .513 .595 .513 .597 .513 .60300007 C .513 .623 .49700005 .63500007 .48000003 .63500007 C .46900005 .63500007 .45000003 .63000008 .43900005 .611 C .43600003 .605 .42800004 .573 .42300005 .55300006 L .40200005 .47000004 C .39600004 .44600005 .36500005 .32000003 .36200003 .30900003 C .36100004 .30900003 .31700004 .22200002 .23900001 .22200002 C .171 .22200002 .171 .287 .171 .305 C .171 .35900004 .194 .42200003 .22400002 .499 C .23600002 .531 .24100001 .54300007 .24100001 .56 C .24100001 .60800006 .2 .64500007 .146 .64500007 C .045000007 .64500007 0 .509 0 .49200005 C 0 .47900004 .014000002 .47900004 .017 .47900004 C .031 .47900004 .032 .48400004 .035 .495 C .060000007 .578 .103 .61700007 .143 .61700007 C .16000001 .61700007 .168 .606 .168 .582 C .168 .559 .15900001 .537 .154 .52400007 C .106000009 .402 .096 .365 .096 .321 C .096 .30400003 .096 .25700004 .135 .22500001 C .16600001 .19900002 .20800002 .194 .235 .194 C .27500005 .194 .31100003 .209 .34400005 .23900001 C .33100004 .18400002 .32000003 .142 .27800004 .09200001 C .25100003 .061000006 .21100001 .027999998 .158 .027999998 C .15100001 .027999998 .104 .027999998 .083000008 .061000006 C .13700001 .067 .13700001 .11500001 .13700001 .116000007 C .13700001 .148 .107999999 .15400002 .098000008 .15400002 C .073 .15400002 .040000004 .134 .040000004 .08800001 C .040000004 .037 .088 0 .15900001 0 C .26000003 0 .38300003 .07800001 .41400004 .20300001 L .50900009 .58100005 Z "/>
</symbol>
<use xlink:href="#font_3_2" transform="matrix(6.9738,0,0,-6.9738,193.39878,121.15965)"/>
<symbol id="font_3_3">
<path d="M .10700001 .098000008 C .133 .124000009 .15100001 .143 .23600002 .21100001 C .25700004 .22800002 .33200003 .28800003 .361 .316 C .422 .37600003 .46000005 .42700003 .46000005 .439 C .46000005 .451 .44700004 .451 .44300003 .451 C .43400003 .451 .431 .449 .426 .441 C .39500005 .395 .374 .38 .35000003 .38 C .338 .38 .323 .381 .29299999 .41 C .259 .444 .237 .451 .214 .451 C .134 .451 .08 .364 .08 .334 C .08 .32500003 .09 .322 .097 .322 C .109 .322 .111 .32500003 .11500001 .336 C .13000001 .37100003 .186 .373 .202 .373 C .22500001 .373 .251 .367 .265 .364 C .32 .352 .32700003 .352 .352 .352 C .32600004 .32500003 .30800004 .307 .21300002 .23100002 C .135 .16900002 .10800001 .14400001 .089 .124000009 C .029 .065000008 0 .021000002 0 .012000001 C 0 0 .012999997 0 .016999998 0 C .027000003 0 .029 .0020000004 .034 .010000001 C .061000006 .048000006 .09200001 .071 .126 .071 C .13800001 .071 .15300001 .07 .18 .045 C .21100001 .015000001 .23100002 0 .263 0 C .37 0 .43700005 .12100001 .43700005 .15500002 C .43700005 .16700001 .426 .16800002 .42000003 .16800002 C .408 .16800002 .40600003 .16300002 .402 .15200001 C .38300003 .102000009 .324 .078 .27500005 .078 C .25200004 .078 .22700002 .083000008 .202 .089 C .156 .099 .148 .099 .13000001 .099 C .128 .099 .113000009 .099 .10700001 .098000008 Z "/>
</symbol>
<use xlink:href="#font_3_3" transform="matrix(6.9738,0,0,-6.9738,57.172407,6.392736)"/>
</svg>
