<?xml version="1.0" encoding="UTF-8" standalone="no"?>
<!DOCTYPE svg PUBLIC "-//W3C//DTD SVG 1.1//EN" "http://www.w3.org/Graphics/SVG/1.1/DTD/svg11.dtd">
<svg xmlns="http://www.w3.org/2000/svg" xmlns:xlink="http://www.w3.org/1999/xlink" version="1.1" width="263.04pt" height="118.342pt" viewBox="0 0 263.04 118.342">
<path transform="matrix(1,0,0,-1,.199,118.143009)" stroke-width="1" stroke-linecap="butt" stroke-miterlimit="10" stroke-linejoin="miter" fill="none" stroke="#000000" d="M 87.54819 45.05865 L 1.77501 .91353 "/>
<path transform="matrix(-.89084,.45848,.45848,.89084,1.97401,117.22948)" d="M 1.99252 0 L -1.19551 1.59401 L 0 0 L -1.19551 -1.59401 "/>
<path transform="matrix(1,0,0,-1,.199,118.143009)" stroke-width="1" stroke-linecap="butt" stroke-miterlimit="10" stroke-linejoin="miter" fill="none" stroke="#000000" d="M 87.54819 45.05865 L 260.65205 45.05865 "/>
<path transform="matrix(1,0,0,-1,260.85105,73.08435)" d="M 1.99252 0 L -1.19551 1.59401 L 0 0 L -1.19551 -1.59401 "/>
<path transform="matrix(1,0,0,-1,.199,118.143009)" stroke-width="1" stroke-linecap="butt" stroke-miterlimit="10" stroke-linejoin="miter" fill="none" stroke="#000000" d="M 87.54819 45.05865 L 87.54819 110.65413 "/>
<path transform="matrix(0,-1,-1,-0,87.747188,7.4888765)" d="M 1.99252 0 L -1.19551 1.59401 L 0 0 L -1.19551 -1.59401 "/>
<path transform="matrix(1,0,0,-1,.199,118.143009)" stroke-width="1" stroke-linecap="butt" stroke-dasharray="2.98883,2.98883" stroke-miterlimit="10" stroke-linejoin="miter" fill="none" stroke="#000000" d="M 30.64186 15.77052 L 201.36084 15.77052 "/>
<path transform="matrix(1,0,0,-1,.199,118.143009)" stroke-width="1" stroke-linecap="butt" stroke-dasharray="2.98883,2.98883" stroke-miterlimit="10" stroke-linejoin="miter" fill="none" stroke="#000000" d="M 201.36084 15.77052 L 240.75753 45.05865 "/>
<path transform="matrix(1,0,0,-1,.199,118.143009)" stroke-width="1" stroke-linecap="butt" stroke-dasharray="2.98883,2.98883" stroke-miterlimit="10" stroke-linejoin="miter" fill="none" stroke="#000000" d="M 240.75753 45.05865 L 240.75753 107.01431 "/>
<path transform="matrix(1,0,0,-1,.199,118.143009)" stroke-width="1" stroke-linecap="butt" stroke-dasharray="2.98883,2.98883" stroke-miterlimit="10" stroke-linejoin="miter" fill="none" stroke="#000000" d="M 201.36084 15.77052 L 201.36084 77.72618 "/>
<path transform="matrix(1,0,0,-1,.199,118.143009)" stroke-width="1" stroke-linecap="butt" stroke-dasharray="2.98883,2.98883" stroke-miterlimit="10" stroke-linejoin="miter" fill="none" stroke="#000000" d="M 240.75753 107.01431 L 201.36084 77.72618 "/>
<path transform="matrix(1,0,0,-1,.199,118.143009)" stroke-width="1" stroke-linecap="butt" stroke-dasharray="2.98883,2.98883" stroke-miterlimit="10" stroke-linejoin="miter" fill="none" stroke="#000000" d="M 87.54819 107.01431 L 30.64186 77.72618 "/>
<path transform="matrix(1,0,0,-1,.199,118.143009)" stroke-width="1" stroke-linecap="butt" stroke-dasharray="2.98883,2.98883" stroke-miterlimit="10" stroke-linejoin="miter" fill="none" stroke="#000000" d="M 30.64186 15.77052 L 30.64186 77.72618 "/>
<path transform="matrix(1,0,0,-1,.199,118.143009)" stroke-width="1" stroke-linecap="butt" stroke-dasharray="2.98883,2.98883" stroke-miterlimit="10" stroke-linejoin="miter" fill="none" stroke="#000000" d="M 30.64186 77.72618 L 201.36084 77.72618 "/>
<path transform="matrix(1,0,0,-1,.199,118.143009)" stroke-width="1" stroke-linecap="butt" stroke-dasharray="2.98883,2.98883" stroke-miterlimit="10" stroke-linejoin="miter" fill="none" stroke="#000000" d="M 87.54819 107.01431 L 240.75753 107.01431 "/>
<symbol id="font_0_2">
<path d="M .33300004 .38900004 C .31500004 .42600004 .286 .45300005 .24100001 .45300005 C .124 .45300005 0 .30600003 0 .16000001 C 0 .06600001 .055000005 0 .133 0 C .153 0 .20300001 .0040000008 .263 .075 C .27100004 .033000005 .30600003 0 .35400004 0 C .38900004 0 .41200004 .023000002 .42800004 .055000005 C .44500003 .091000009 .45800004 .15200001 .45800004 .15400002 C .45800004 .16400002 .44900004 .16400002 .44600005 .16400002 C .43600003 .16400002 .43500004 .16000001 .43200005 .14600002 C .41500003 .081 .397 .022000002 .35600005 .022000002 C .32900004 .022000002 .32600004 .048 .32600004 .068 C .32600004 .09 .32800005 .098000008 .33900003 .14200002 C .35000003 .18400002 .35200004 .19400002 .36100004 .23200003 L .397 .37200005 C .40400005 .40000005 .40400005 .40200005 .40400005 .40600003 C .40400005 .42300005 .39200003 .43300004 .37500004 .43300004 C .35100005 .43300004 .33600004 .411 .33300004 .38900004 M .26800005 .13000001 C .263 .112 .263 .11000001 .24800001 .093 C .20400001 .038000004 .163 .022000002 .135 .022000002 C .08499999 .022000002 .07100001 .077 .07100001 .116000007 C .07100001 .16600001 .103 .28900004 .126 .335 C .157 .39400003 .202 .43100003 .242 .43100003 C .307 .43100003 .32100005 .34900005 .32100005 .34300003 C .32100005 .337 .31900005 .33100004 .31800003 .32600004 L .26800005 .13000001 Z "/>
</symbol>
<use xlink:href="#font_0_2" transform="matrix(9.9626,0,0,-9.9626,22.453505,104.626598)"/>
<symbol id="font_0_3">
<path d="M .192 .694 C .192 .695 .192 .705 .179 .705 C .156 .705 .083000008 .697 .057 .695 C .049 .694 .038 .693 .038 .675 C .038 .663 .047000003 .663 .062000004 .663 C .11 .663 .112 .656 .112 .646 C .112 .639 .103 .605 .098000008 .584 L .015999999 .25800003 C .0040000008 .20800002 0 .19200002 0 .15700002 C 0 .062000004 .053 0 .127 0 C .24500002 0 .36800004 .14900002 .36800004 .293 C .36800004 .38400004 .31500004 .45300005 .235 .45300005 C .18900001 .45300005 .148 .42400003 .118 .39300005 L .192 .694 M .098000008 .316 C .104 .33800004 .104 .34000004 .113000009 .351 C .162 .41600005 .207 .43100003 .233 .43100003 C .26900003 .43100003 .29600004 .40100003 .29600004 .337 C .29600004 .27800004 .263 .16300002 .24500002 .12500002 C .212 .058000003 .16600001 .022000002 .127 .022000002 C .092999998 .022000002 .060000007 .049000004 .060000007 .123 C .060000007 .14200002 .060000007 .16100002 .076000008 .22400002 L .098000008 .316 Z "/>
</symbol>
<use xlink:href="#font_0_3" transform="matrix(9.9626,0,0,-9.9626,244.94126,69.67459)"/>
<symbol id="font_0_4">
<path d="M .35500003 .39100004 C .33900003 .39100004 .32500003 .39100004 .31100003 .37700004 C .29500003 .36200003 .293 .34500004 .293 .33800004 C .293 .314 .31100003 .30300004 .33 .30300004 C .359 .30300004 .386 .32700003 .386 .367 C .386 .41600005 .33900003 .45300005 .268 .45300005 C .13300002 .45300005 0 .31000004 0 .16900002 C 0 .079 .058000007 0 .162 0 C .305 0 .389 .106000009 .389 .11800001 C .389 .124000009 .38300003 .13100001 .377 .13100001 C .372 .13100001 .37 .12900001 .36400003 .12100001 C .285 .022000002 .176 .022000002 .164 .022000002 C .101 .022000002 .074 .071 .074 .13100001 C .074 .17200002 .094000007 .26900003 .12800002 .33100004 C .15900001 .388 .21400002 .43100003 .269 .43100003 C .303 .43100003 .34100003 .418 .35500003 .39100004 Z "/>
</symbol>
<use xlink:href="#font_0_4" transform="matrix(9.9626,0,0,-9.9626,80.32347,7.719597)"/>
<symbol id="font_1_1">
<path d="M .23200003 .00999999 C .23200003 .012999982 .23200003 .014999986 .215 .03199999 C .09 .15799999 .058 .347 .058 .5 C .058 .674 .096 .84800007 .21900001 .97300007 C .23200003 .985 .23200003 .98700007 .23200003 .99 C .23200003 .99700006 .22800002 1 .222 1 C .21200001 1 .12200001 .93200007 .06299999 .805 C .012000002 .69500008 0 .584 0 .5 C 0 .422 .011 .301 .066 .188 C .126 .065 .21200001 0 .222 0 C .22800002 0 .23200003 .0029999912 .23200003 .00999999 Z "/>
</symbol>
<use xlink:href="#font_1_1" transform="matrix(9.9626,0,0,-9.9626,206.06331,53.899656)" fill="#000080"/>
<symbol id="font_0_1">
<path d="M .117000009 .194 C .117000009 .26 .092 .29900003 .05300001 .29900003 C .020000004 .29900003 0 .274 0 .246 C 0 .21900001 .020000004 .193 .05300001 .193 C .065000008 .193 .078 .197 .08800001 .206 C .091 .208 .092 .209 .093 .209 C .094000007 .209 .095000009 .208 .095000009 .194 C .095000009 .12 .06000001 .060000004 .027000003 .026999996 C .016000003 .016000003 .016000003 .013999999 .016000003 .0109999929 C .016000003 .003999993 .021000006 0 .026 0 C .037 0 .117000009 .077 .117000009 .194 Z "/>
</symbol>
<use xlink:href="#font_0_2" transform="matrix(9.9626,0,0,-9.9626,209.35051,51.518594)" fill="#000080"/>
<use xlink:href="#font_0_1" transform="matrix(9.9626,0,0,-9.9626,215.07901,53.331789)" fill="#000080"/>
<use xlink:href="#font_0_3" transform="matrix(9.9626,0,0,-9.9626,219.12384,51.518594)" fill="#000080"/>
<use xlink:href="#font_0_1" transform="matrix(9.9626,0,0,-9.9626,223.78633,53.331789)" fill="#000080"/>
<use xlink:href="#font_0_4" transform="matrix(9.9626,0,0,-9.9626,227.76142,51.518594)" fill="#000080"/>
<symbol id="font_1_2">
<path d="M .232 .5 C .232 .578 .22100002 .699 .16600001 .81200006 C .106 .93500009 .020000004 1 .009999998 1 C .0040000008 1 0 .99600008 0 .99 C 0 .98700007 0 .985 .019000002 .967 C .117000009 .86800006 .174 .709 .174 .5 C .174 .329 .137 .153 .012999997 .026999996 C 0 .014999986 0 .012999982 0 .00999999 C 0 .003999993 .0040000008 0 .009999998 0 C .020000004 0 .11000001 .06799999 .169 .195 C .22 .305 .232 .416 .232 .5 Z "/>
</symbol>
<use xlink:href="#font_1_2" transform="matrix(9.9626,0,0,-9.9626,232.22789,53.899656)" fill="#000080"/>
<path transform="matrix(1,0,0,-1,.199,118.143009)" d="M 203.3534 77.72618 C 203.3534 78.82666 202.4613 79.71873 201.36084 79.71873 C 200.26036 79.71873 199.36829 78.82666 199.36829 77.72618 C 199.36829 76.62572 200.26036 75.73363 201.36084 75.73363 C 202.4613 75.73363 203.3534 76.62572 203.3534 77.72618 Z M 201.36084 77.72618 " fill="#000080"/>
<path transform="matrix(1,0,0,-1,.199,118.143009)" stroke-width="1" stroke-linecap="butt" stroke-miterlimit="10" stroke-linejoin="miter" fill="none" stroke="#000080" d="M 203.3534 77.72618 C 203.3534 78.82666 202.4613 79.71873 201.36084 79.71873 C 200.26036 79.71873 199.36829 78.82666 199.36829 77.72618 C 199.36829 76.62572 200.26036 75.73363 201.36084 75.73363 C 202.4613 75.73363 203.3534 76.62572 203.3534 77.72618 Z M 201.36084 77.72618 "/>
</svg>
