<?xml version="1.0" encoding="UTF-8" standalone="no"?>
<!DOCTYPE svg PUBLIC "-//W3C//DTD SVG 1.1//EN" "http://www.w3.org/Graphics/SVG/1.1/DTD/svg11.dtd">
<svg xmlns="http://www.w3.org/2000/svg" xmlns:xlink="http://www.w3.org/1999/xlink" version="1.1" width="373.387pt" height="330.99pt" viewBox="0 0 373.387 330.99">
<path transform="matrix(1,0,0,-1,0,0)" d="M 372.19609 -242.12647 C 354.66154 -239.73538 326.7657 -223.79489 322.78056 -221.40383 C 318.79545 -219.01276 300.46388 -199.08715 290.89958 -183.94368 C 281.33528 -168.8002 272.56803 -150.46865 269.3799 -140.10733 C 266.19184 -129.746 263.00373 -119.38469 262.2067 -113.80551 C 261.40968 -108.22635 263.00373 -95.07544 265.39479 -89.49628 C 259.81565 -85.51115 248.65727 -84.71413 243.87514 -95.07544 C 239.09299 -105.43677 235.10787 -121.37726 235.10787 -131.73857 C 235.10787 -142.0999 252.6424 -175.57492 241.48406 -180.35707 C 230.32572 -185.13922 227.93465 -191.51541 170.54888 -177.16898 C 113.16312 -162.82253 89.25238 -161.22849 83.6732 -172.38683 C 78.09402 -183.54517 110.77203 -188.32732 128.30658 -191.51541 C 145.84111 -194.7035 185.70909 -209.55527 180.11318 -217.0202 C 176.64614 -221.64453 172.64109 -220.59725 163.60759 -223.78534 C 147.97716 -229.30236 148.21865 -231.72849 128.7051 -238.40677 C 109.23138 -245.07149 110.49867 -264.09169 116.61664 -267.28297 C 122.73457 -270.47425 127.78772 -272.33769 153.5874 -257.7083 C 165.0247 -253.4522 178.91844 -250.62674 191.1392 -249.5643 C 203.36 -248.50186 210.80022 -294.1977 224.08344 -301.10548 C 237.36664 -308.01329 252.77553 -307.4817 262.3398 -307.4817 C 271.9041 -307.4817 277.21708 -309.0765 282.53083 -306.41926 C 287.8446 -303.762 302.72264 -307.48088 310.6929 -311.7322 C 310.6929 -311.7322 341.51145 -326.6103 344.1679 -329.79838 " fill="#8080ff"/>
<path transform="matrix(1,0,0,-1,0,0)" stroke-width="2.39105" stroke-linecap="butt" stroke-miterlimit="10" stroke-linejoin="miter" fill="none" stroke="#000000" d="M 372.19609 -242.12647 C 354.66154 -239.73538 326.7657 -223.79489 322.78056 -221.40383 C 318.79545 -219.01276 300.46388 -199.08715 290.89958 -183.94368 C 281.33528 -168.8002 272.56803 -150.46865 269.3799 -140.10733 C 266.19184 -129.746 263.00373 -119.38469 262.2067 -113.80551 C 261.40968 -108.22635 263.00373 -95.07544 265.39479 -89.49628 C 259.81565 -85.51115 248.65727 -84.71413 243.87514 -95.07544 C 239.09299 -105.43677 235.10787 -121.37726 235.10787 -131.73857 C 235.10787 -142.0999 252.6424 -175.57492 241.48406 -180.35707 C 230.32572 -185.13922 227.93465 -191.51541 170.54888 -177.16898 C 113.16312 -162.82253 89.25238 -161.22849 83.6732 -172.38683 C 78.09402 -183.54517 110.77203 -188.32732 128.30658 -191.51541 C 145.84111 -194.7035 185.70909 -209.55527 180.11318 -217.0202 C 176.64614 -221.64453 172.64109 -220.59725 163.60759 -223.78534 C 147.97716 -229.30236 148.21865 -231.72849 128.7051 -238.40677 C 109.23138 -245.07149 110.49867 -264.09169 116.61664 -267.28297 C 122.73457 -270.47425 127.78772 -272.33769 153.5874 -257.7083 C 165.0247 -253.4522 178.91844 -250.62674 191.1392 -249.5643 C 203.36 -248.50186 210.80022 -294.1977 224.08344 -301.10548 C 237.36664 -308.01329 252.77553 -307.4817 262.3398 -307.4817 C 271.9041 -307.4817 277.21708 -309.0765 282.53083 -306.41926 C 287.8446 -303.762 302.72264 -307.48088 310.6929 -311.7322 C 310.6929 -311.7322 341.51145 -326.6103 344.1679 -329.79838 "/>
<path transform="matrix(1,0,0,-1,0,0)" stroke-width="1.59404" stroke-linecap="butt" stroke-miterlimit="10" stroke-linejoin="miter" fill="none" stroke="#000000" d="M 186.88869 -215.82387 C 213.98673 -214.2306 223.55101 -240.2662 229.92722 -254.08184 "/>
<path transform="matrix(1,0,0,-1,0,0)" stroke-width="1.59404" stroke-linecap="butt" stroke-miterlimit="10" stroke-linejoin="miter" fill="none" stroke="#000000" d="M 244.00826 -195.63205 C 244.27446 -215.82387 252.77632 -232.82759 264.19926 -239.2022 "/>
<path transform="matrix(1,0,0,-1,0,0)" stroke-width="1.59404" stroke-linecap="butt" stroke-miterlimit="10" stroke-linejoin="miter" fill="none" stroke="#000000" d="M 191.1392 -183.94289 C 184.76302 -185.00533 177.3244 -199.88338 180.5125 -204.13391 "/>
<path transform="matrix(1,0,0,-1,0,0)" stroke-width="1.59404" stroke-linecap="butt" stroke-miterlimit="10" stroke-linejoin="miter" fill="none" stroke="#000000" d="M 157.13259 -175.44103 C 152.88204 -178.62912 144.38019 -186.06775 146.50583 -190.31908 "/>
<path transform="matrix(1,0,0,-1,0,0)" stroke-width="1.59404" stroke-linecap="butt" stroke-miterlimit="10" stroke-linejoin="miter" fill="none" stroke="#000000" d="M 118.87541 -169.06484 C 113.56163 -172.25293 111.83449 -181.41951 110.77203 -183.54438 "/>
<path transform="matrix(1,0,0,-1,0,0)" stroke-width="1.59404" stroke-linecap="butt" stroke-miterlimit="10" stroke-linejoin="miter" fill="none" stroke="#000000" d="M 177.3244 -223.2633 C 183.70059 -226.4514 186.88869 -237.07732 184.76302 -244.51674 "/>
<path transform="matrix(1,0,0,-1,0,0)" stroke-width="1.59404" stroke-linecap="butt" stroke-miterlimit="10" stroke-linejoin="miter" fill="none" stroke="#000000" d="M 160.43784 -229.05925 C 165.75159 -232.24735 166.21468 -248.18227 164.089 -251.37036 "/>
<path transform="matrix(1,0,0,-1,0,0)" stroke-width="1.59404" stroke-linecap="butt" stroke-miterlimit="10" stroke-linejoin="miter" fill="none" stroke="#000000" d="M 140.15517 -237.98354 C 147.04782 -243.15225 147.79943 -250.3645 144.2112 -259.07759 "/>
<path transform="matrix(1,0,0,-1,0,0)" stroke-width="1.59404" stroke-linecap="butt" stroke-miterlimit="10" stroke-linejoin="miter" fill="none" stroke="#000000" d="M 234.31084 -188.32732 C 231.12274 -196.29756 228.73166 -202.67375 229.52869 -207.4559 "/>
<path transform="matrix(1,0,0,-1,0,0)" stroke-width="1.59404" stroke-linecap="butt" stroke-miterlimit="10" stroke-linejoin="miter" fill="none" stroke="#000000" d="M 235.10787 -131.73857 C 244.62993 -133.09909 237.2415 -134.33049 255.03348 -130.94155 "/>
<path transform="matrix(1,0,0,-1,0,0)" stroke-width="1.59404" stroke-linecap="butt" stroke-miterlimit="10" stroke-linejoin="miter" fill="none" stroke="#000000" d="M 318.13154 -228.57704 C 314.94346 -238.14134 311.75535 -241.32865 306.44157 -244.51674 "/>
<path transform="matrix(1,0,0,-1,0,0)" d="M 238.96068 -298.4498 C 251.63736 -295.91447 260.74659 -294.19929 267.65357 -292.0736 C 274.56059 -289.94795 284.6557 -284.10255 287.31297 -278.7896 C 289.97026 -273.47666 287.8446 -272.4142 286.25056 -268.6945 C 284.65653 -264.9748 267.12278 -267.10044 262.8714 -268.6945 C 258.6201 -270.28855 254.90117 -271.88258 237.36664 -274.5391 C 219.83209 -277.19554 215.04994 -278.5242 206.01648 -277.46098 C 198.61052 -276.58903 207.0805 -295.2609 210.79943 -297.38658 C 214.51834 -299.5122 215.04994 -303.23197 238.96068 -298.4498 Z " fill="#8080ff"/>
<path transform="matrix(1,0,0,-1,0,0)" stroke-width="2.39105" stroke-linecap="butt" stroke-miterlimit="10" stroke-linejoin="miter" fill="none" stroke="#000000" d="M 238.96068 -298.4498 C 251.63736 -295.91447 260.74659 -294.19929 267.65357 -292.0736 C 274.56059 -289.94795 284.6557 -284.10255 287.31297 -278.7896 C 289.97026 -273.47666 287.8446 -272.4142 286.25056 -268.6945 C 284.65653 -264.9748 267.12278 -267.10044 262.8714 -268.6945 C 258.6201 -270.28855 254.90117 -271.88258 237.36664 -274.5391 C 219.83209 -277.19554 215.04994 -278.5242 206.01648 -277.46098 C 198.61052 -276.58903 207.0805 -295.2609 210.79943 -297.38658 C 214.51834 -299.5122 215.04994 -303.23197 238.96068 -298.4498 Z "/>
<path transform="matrix(1,0,0,-1,0,0)" d="M 252.4846 -248.50266 C 267.54597 -247.44023 275.07865 -246.3778 279.1331 -250.62834 C 283.1876 -254.87886 281.44926 -259.1302 280.2912 -260.19264 C 279.1331 -261.25505 265.80848 -267.09968 258.8568 -269.2253 C 251.90438 -271.35099 250.74629 -269.75694 236.8438 -272.945 C 222.9405 -276.13313 221.78241 -277.19554 217.72637 -278.7896 C 213.6711 -280.38365 205.56137 -279.85206 198.03108 -274.00746 C 190.50002 -268.16288 191.65808 -258.06697 192.23752 -254.87886 C 192.81696 -251.69075 193.39719 -244.78296 207.87912 -243.7205 C 222.36107 -242.6581 217.72557 -247.43944 236.26436 -247.97106 C 254.80156 -248.50266 252.4846 -248.50266 252.4846 -248.50266 Z " fill="#8080ff"/>
<path transform="matrix(1,0,0,-1,0,0)" stroke-width="2.39105" stroke-linecap="butt" stroke-miterlimit="10" stroke-linejoin="miter" fill="none" stroke="#000000" d="M 252.4846 -248.50266 C 267.54597 -247.44023 275.07865 -246.3778 279.1331 -250.62834 C 283.1876 -254.87886 281.44926 -259.1302 280.2912 -260.19264 C 279.1331 -261.25505 265.80848 -267.09968 258.8568 -269.2253 C 251.90438 -271.35099 250.74629 -269.75694 236.8438 -272.945 C 222.9405 -276.13313 221.78241 -277.19554 217.72637 -278.7896 C 213.6711 -280.38365 205.56137 -279.85206 198.03108 -274.00746 C 190.50002 -268.16288 191.65808 -258.06697 192.23752 -254.87886 C 192.81696 -251.69075 193.39719 -244.78296 207.87912 -243.7205 C 222.36107 -242.6581 217.72557 -247.43944 236.26436 -247.97106 C 254.80156 -248.50266 252.4846 -248.50266 252.4846 -248.50266 Z "/>
<path transform="matrix(1,0,0,-1,0,0)" stroke-width="1.59404" stroke-linecap="butt" stroke-miterlimit="10" stroke-linejoin="miter" fill="none" stroke="#000000" d="M 195.92057 -253.81644 C 194.3879 -267.60893 196.80448 -268.29518 204.42243 -274.00746 "/>
<path transform="matrix(1,0,0,-1,0,0)" stroke-width="1.59404" stroke-linecap="butt" stroke-miterlimit="10" stroke-linejoin="miter" fill="none" stroke="#000000" d="M 219.30049 -254.08104 C 219.30049 -258.33158 220.36292 -267.89588 220.36292 -267.89588 "/>
<path transform="matrix(1,0,0,-1,0,0)" stroke-width="1.59404" stroke-linecap="butt" stroke-miterlimit="10" stroke-linejoin="miter" fill="none" stroke="#000000" d="M 245.60231 -252.7524 C 245.60231 -254.87807 246.66553 -263.37916 246.66553 -266.56724 "/>
<path transform="matrix(1,0,0,-1,0,0)" stroke-width="1.59404" stroke-linecap="butt" stroke-miterlimit="10" stroke-linejoin="miter" fill="none" stroke="#000000" d="M 250.91526 -276.66474 C 250.91526 -279.85285 256.22904 -290.47959 256.22904 -290.47959 "/>
<path transform="matrix(1,0,0,-1,0,0)" stroke-width="1.59404" stroke-linecap="butt" stroke-miterlimit="10" stroke-linejoin="miter" fill="none" stroke="#000000" d="M 225.14507 -282.77473 C 226.2075 -284.9004 227.27074 -294.46388 230.45883 -295.5271 "/>
<path transform="matrix(1,0,0,-1,0,0)" stroke-width="1.59404" stroke-linecap="butt" stroke-miterlimit="10" stroke-linejoin="miter" fill="none" stroke="#000000" d="M 323.4445 -254.08184 C 318.13154 -263.64613 314.94346 -288.0893 309.62968 -293.40226 "/>
<path transform="matrix(1,0,0,-1,0,0)" d="M 257.82307 -72.36024 L 257.29066 -33.30603 "/>
<path transform="matrix(1,0,0,-1,0,0)" stroke-width="7.17319" stroke-linecap="round" stroke-miterlimit="10" stroke-linejoin="miter" fill="none" stroke="#000000" d="M 257.82307 -72.36024 L 257.29066 -33.30603 "/>
<path transform="matrix(1,0,0,-1,0,0)" d="M 257.29066 -33.30603 L 238.70964 -48.06056 L 257.29066 0 L 275.8717 -48.06056 Z "/>
<path transform="matrix(1,0,0,-1,0,0)" d="M 70.93198 -167.74178 L 32.59828 -160.25531 "/>
<path transform="matrix(1,0,0,-1,0,0)" stroke-width="7.17319" stroke-linecap="round" stroke-miterlimit="10" stroke-linejoin="miter" fill="none" stroke="#000000" d="M 70.93198 -167.74178 L 32.59828 -160.25531 "/>
<path transform="matrix(1,0,0,-1,0,0)" d="M 32.59828 -160.25531 L 43.2306 -181.46652 L 0 -153.4272 L 50.84935 -145.09352 Z "/>
<path transform="matrix(1,0,0,-1,0,0)" d="M 100.72556 -267.20646 L 76.18358 -277.36854 "/>
<path transform="matrix(1,0,0,-1,0,0)" stroke-width="7.17319" stroke-linecap="round" stroke-miterlimit="10" stroke-linejoin="miter" fill="none" stroke="#000000" d="M 100.72556 -267.20646 L 76.18358 -277.36854 "/>
<path transform="matrix(1,0,0,-1,0,0)" d="M 76.18358 -277.36854 L 94.09988 -296.02525 L 55.04489 -285.4918 L 76.99654 -251.51541 Z "/>
<symbol id="font_0_1">
<path d="M .305 .31300003 C .311 .33900003 .334 .43100003 .404 .43100003 C .409 .43100003 .433 .43100003 .454 .418 C .426 .41300003 .40600003 .388 .40600003 .36400003 C .40600003 .34800003 .417 .32900004 .444 .32900004 C .46600003 .32900004 .498 .34700004 .498 .38700003 C .498 .43900005 .439 .45300005 .405 .45300005 C .347 .45300005 .312 .40000005 .3 .37700004 C .275 .44300003 .221 .45300005 .19200002 .45300005 C .08800001 .45300005 .031000002 .32400004 .031000002 .29900003 C .031000002 .28900004 .041 .28900004 .043000007 .28900004 C .051000008 .28900004 .054000006 .291 .056 .3 C .09 .40600003 .156 .43100003 .19000001 .43100003 C .209 .43100003 .244 .42200003 .244 .36400003 C .244 .33300004 .22700002 .26600004 .19000001 .126 C .17400001 .064 .13900002 .022000002 .095000009 .022000002 C .08900001 .022000002 .06600001 .022000002 .045 .035 C .07000001 .040000004 .09200001 .061 .09200001 .089 C .09200001 .116000007 .07000001 .124000009 .055000009 .124000009 C .025 .124000009 0 .098000008 0 .06600001 C 0 .020000002 .050000006 0 .094000007 0 C .16000001 0 .19600001 .07000001 .19900002 .076000008 C .21100001 .039 .24700003 0 .307 0 C .41 0 .467 .12900001 .467 .15400002 C .467 .16400002 .458 .16400002 .455 .16400002 C .446 .16400002 .444 .16000001 .442 .15300001 C .409 .046 .341 .022000002 .30900003 .022000002 C .27 .022000002 .254 .054 .254 .08800001 C .254 .11000001 .26 .13200002 .271 .17600002 L .305 .31300003 Z "/>
</symbol>
<use xlink:href="#font_0_1" transform="matrix(39.8504,0,0,-39.8504,41.97866,133.40937)"/>
<symbol id="font_0_2">
<path d="M .45700003 .586 C .461 .6 .461 .602 .461 .609 C .461 .62700006 .447 .63600006 .432 .63600006 C .42200003 .63600006 .40600003 .63 .397 .615 C .395 .61 .387 .579 .38300003 .561 C .37600003 .535 .36900003 .508 .363 .48100005 L .318 .301 C .314 .286 .271 .21600002 .20500002 .21600002 C .15400002 .21600002 .143 .26000003 .143 .29700003 C .143 .34300003 .16000001 .40500004 .194 .49300004 C .21000001 .53400006 .21400002 .545 .21400002 .56500008 C .21400002 .61 .18200001 .6470001 .13200002 .6470001 C .037 .6470001 0 .50200006 0 .49300004 C 0 .48300005 .01 .48300005 .012 .48300005 C .022000002 .48300005 .023 .485 .028000003 .50100007 C .055000009 .595 .095000009 .625 .12900001 .625 C .13700001 .625 .15400002 .625 .15400002 .59300008 C .15400002 .568 .14400001 .54200008 .13700001 .523 C .097 .41700004 .079 .36 .079 .31300003 C .079 .224 .142 .194 .201 .194 C .24000003 .194 .274 .21100001 .30200003 .23900002 C .289 .187 .277 .13800001 .237 .08500001 C .21100001 .051 .17300001 .022 .127 .022 C .113000009 .022 .068 .025000006 .051000008 .06400001 C .067 .06400001 .080000009 .06400001 .094000007 .076000008 C .104 .08500001 .11400001 .098000008 .11400001 .117000009 C .11400001 .148 .087000008 .15200001 .07700001 .15200001 C .054000006 .15200001 .021 .136 .021 .087000008 C .021 .037 .065000008 0 .127 0 C .23 0 .333 .091000009 .361 .20400001 L .45700003 .586 Z "/>
</symbol>
<use xlink:href="#font_0_2" transform="matrix(39.8504,0,0,-39.8504,72.65667,242.30034)"/>
<symbol id="font_0_3">
<path d="M .09 .094000007 C .14400001 .15200001 .17300001 .17700002 .209 .20800002 C .209 .20900002 .271 .26200003 .307 .298 C .402 .39100004 .424 .43900005 .424 .44300003 C .424 .45300005 .41500003 .45300005 .41300003 .45300005 C .40600003 .45300005 .403 .45100004 .398 .44200004 C .368 .39400003 .347 .37800003 .323 .37800003 C .299 .37800003 .287 .39300005 .272 .41000004 C .253 .43300004 .23600002 .45300005 .20300001 .45300005 C .128 .45300005 .082 .36 .082 .33900003 C .082 .33400003 .08500001 .328 .09400001 .328 C .103000018 .328 .105000007 .33300004 .10700001 .33900003 C .12600002 .38500003 .18400002 .38600005 .19200002 .38600005 C .21300002 .38600005 .23200001 .37900005 .255 .37100003 C .29500003 .35600005 .306 .35600005 .33200003 .35600005 C .296 .31300003 .21200003 .24100001 .19300002 .22500003 L .103000018 .14100002 C .035 .074 0 .017 0 .010000001 C 0 0 .010000002 0 .012000002 0 C .02 0 .022000004 .0020000004 .028 .013000001 C .051000004 .048 .081 .075 .113000009 .075 C .136 .075 .14600002 .06600001 .17100002 .037 C .18800001 .016 .20600002 0 .23500003 0 C .334 0 .39200003 .127 .39200003 .15400002 C .39200003 .15900001 .388 .16400002 .38 .16400002 C .37100003 .16400002 .36900003 .158 .366 .15100001 C .343 .086 .279 .067 .246 .067 C .22600003 .067 .20800002 .07300001 .187 .080000009 C .15300001 .093 .13800001 .097 .11700001 .097 C .11500001 .097 .09900001 .097 .09 .094000007 Z "/>
</symbol>
<use xlink:href="#font_0_3" transform="matrix(39.8504,0,0,-39.8504,292.56556,47.510377)"/>
</svg>
