<?xml version="1.0" encoding="UTF-8" standalone="no"?>
<!DOCTYPE svg PUBLIC "-//W3C//DTD SVG 1.1//EN" "http://www.w3.org/Graphics/SVG/1.1/DTD/svg11.dtd">
<svg xmlns="http://www.w3.org/2000/svg" xmlns:xlink="http://www.w3.org/1999/xlink" version="1.1" width="259.177pt" height="58.077pt" viewBox="0 0 259.177 58.077">
<symbol id="font_0_2">
<path d="M .07700001 .072 C .069000009 .038000004 .067 .031000004 .023000002 .031000004 C .011 .031000004 0 .031000004 0 .0119999949 C 0 .003999993 .005000001 0 .013 0 C .040000004 0 .069000009 .0029999912 .097 .0029999912 C .13000001 .0029999912 .164 0 .19600001 0 C .20100002 0 .21400002 0 .21400002 .019999996 C .21400002 .031000004 .20400001 .031000004 .19000001 .031000004 C .14 .031000004 .14 .038000004 .14 .047000007 C .14 .059 .18200001 .222 .18900001 .24700001 C .202 .21800001 .23000002 .183 .28100003 .183 C .397 .183 .522 .329 .522 .476 C .522 .57000008 .46500004 .63600006 .38900004 .63600006 C .33900003 .63600006 .291 .6 .25800003 .561 C .24800001 .615 .20500002 .63600006 .16800002 .63600006 C .12200001 .63600006 .103 .597 .094000007 .579 C .076000008 .545 .063 .485 .063 .48200003 C .063 .47200004 .073 .47200004 .075 .47200004 C .08500001 .47200004 .086 .47300003 .09200001 .49500004 C .10900001 .566 .12900001 .614 .165 .614 C .18200001 .614 .19600001 .60600009 .19600001 .568 C .19600001 .545 .19300002 .53400006 .18900001 .517 L .07700001 .072 M .25300003 .50600007 C .26000003 .533 .28700004 .561 .305 .57600006 C .34000004 .607 .36900003 .614 .386 .614 C .42600004 .614 .45000003 .579 .45000003 .52 C .45000003 .46100004 .41700004 .34600003 .39900003 .30800004 C .365 .238 .31700004 .20500002 .28 .20500002 C .21400002 .20500002 .20100002 .28800003 .20100002 .294 C .20100002 .296 .20100002 .298 .20400001 .31 L .25300003 .50600007 Z "/>
</symbol>
<use xlink:href="#font_0_2" transform="matrix(9.9626,0,0,-9.9626,3.0021959,13.860745)"/>
<symbol id="font_1_6">
<path d="M .092 .578 C .143 .565 .17300001 .565 .18900001 .565 C .321 .565 .39900003 .65500006 .39900003 .67 C .39900003 .681 .39200003 .684 .38700003 .684 C .38500003 .684 .38300003 .684 .37900005 .681 C .35500003 .672 .30200003 .652 .22800002 .652 C .20000002 .652 .14700002 .654 .08200001 .679 C .072000008 .684 .07 .684 .069 .684 C .056 .684 .056 .67300006 .056 .657 L .056 .36200003 C .056 .34500004 .056 .33300004 .072000008 .33300004 C .08100001 .33300004 .08200001 .33500005 .092 .34700004 C .13500002 .40200005 .19600001 .41000004 .231 .41000004 C .291 .41000004 .31800003 .36200003 .323 .35400004 C .34100003 .32100005 .34700004 .28300003 .34700004 .22500001 C .34700004 .19500001 .34700004 .136 .31700004 .09200001 C .29200004 .056 .24900002 .032 .20000002 .032 C .13500002 .032 .06800001 .068 .043000007 .134 C .08100001 .13100001 .1 .156 .1 .183 C .1 .22600001 .063 .23400001 .050000006 .23400001 C .048000009 .23400001 0 .23400001 0 .18 C 0 .09 .08200001 0 .20200002 0 C .33 0 .442 .095000009 .442 .221 C .442 .33400003 .35600005 .43800003 .23200003 .43800003 C .18800003 .43800003 .136 .42700003 .092 .38900004 L .092 .578 Z "/>
</symbol>
<use xlink:href="#font_1_6" transform="matrix(6.9738,0,0,-6.9738,8.772348,13.562476)"/>
<symbol id="font_2_1">
<path d="M .23200003 .00999999 C .23200003 .012999982 .23200003 .014999986 .215 .03199999 C .09 .15799999 .058 .347 .058 .5 C .058 .674 .096 .84800007 .21900001 .97300007 C .23200003 .985 .23200003 .98700007 .23200003 .99 C .23200003 .99700006 .22800002 1 .222 1 C .21200001 1 .12200001 .93200007 .06299999 .805 C .012000002 .69500008 0 .584 0 .5 C 0 .422 .011 .301 .066 .188 C .126 .065 .21200001 0 .222 0 C .22800002 0 .23200003 .0029999912 .23200003 .00999999 Z "/>
</symbol>
<use xlink:href="#font_2_1" transform="matrix(9.9626,0,0,-9.9626,13.788297,14.418652)"/>
<symbol id="font_0_3">
<path d="M .305 .31300003 C .311 .33900003 .334 .43100003 .404 .43100003 C .409 .43100003 .433 .43100003 .454 .418 C .426 .41300003 .40600003 .388 .40600003 .36400003 C .40600003 .34800003 .417 .32900004 .444 .32900004 C .46600003 .32900004 .498 .34700004 .498 .38700003 C .498 .43900005 .439 .45300005 .405 .45300005 C .347 .45300005 .312 .40000005 .3 .37700004 C .275 .44300003 .221 .45300005 .19200002 .45300005 C .08800001 .45300005 .031000002 .32400004 .031000002 .29900003 C .031000002 .28900004 .041 .28900004 .043000007 .28900004 C .051000008 .28900004 .054000006 .291 .056 .3 C .09 .40600003 .156 .43100003 .19000001 .43100003 C .209 .43100003 .244 .42200003 .244 .36400003 C .244 .33300004 .22700002 .26600004 .19000001 .126 C .17400001 .064 .13900002 .022000002 .095000009 .022000002 C .08900001 .022000002 .06600001 .022000002 .045 .035 C .07000001 .040000004 .09200001 .061 .09200001 .089 C .09200001 .116000007 .07000001 .124000009 .055000009 .124000009 C .025 .124000009 0 .098000008 0 .06600001 C 0 .020000002 .050000006 0 .094000007 0 C .16000001 0 .19600001 .07000001 .19900002 .076000008 C .21100001 .039 .24700003 0 .307 0 C .41 0 .467 .12900001 .467 .15400002 C .467 .16400002 .458 .16400002 .455 .16400002 C .446 .16400002 .444 .16000001 .442 .15300001 C .409 .046 .341 .022000002 .30900003 .022000002 C .27 .022000002 .254 .054 .254 .08800001 C .254 .11000001 .26 .13200002 .271 .17600002 L .305 .31300003 Z "/>
</symbol>
<use xlink:href="#font_0_3" transform="matrix(9.9626,0,0,-9.9626,16.965914,12.03759)"/>
<symbol id="font_2_2">
<path d="M .232 .5 C .232 .578 .22100002 .699 .16600001 .81200006 C .106 .93500009 .020000004 1 .009999998 1 C .0040000008 1 0 .99600008 0 .99 C 0 .98700007 0 .985 .019000002 .967 C .117000009 .86800006 .174 .709 .174 .5 C .174 .329 .137 .153 .012999997 .026999996 C 0 .014999986 0 .012999982 0 .00999999 C 0 .003999993 .0040000008 0 .009999998 0 C .020000004 0 .11000001 .06799999 .169 .195 C .22 .305 .232 .416 .232 .5 Z "/>
</symbol>
<symbol id="font_2_4">
<path d="M .63100007 .19400002 C .646 .19400002 .665 .19400002 .665 .214 C .665 .23400001 .646 .23400001 .632 .23400001 L .033 .23400001 C .019000002 .23400001 0 .23400001 0 .214 C 0 .19400002 .019000002 .19400002 .034 .19400002 L .63100007 .19400002 M .632 0 C .646 0 .665 0 .665 .02000001 C .665 .040000008 .646 .040000008 .63100007 .040000008 L .034 .040000008 C .019000002 .040000008 0 .040000008 0 .02000001 C 0 0 .019000002 0 .033 0 L .632 0 Z "/>
</symbol>
<use xlink:href="#font_2_2" transform="matrix(9.9626,0,0,-9.9626,22.938866,14.418652)"/>
<use xlink:href="#font_2_4" transform="matrix(9.9626,0,0,-9.9626,29.573962,10.602976)"/>
<symbol id="font_0_1">
<path d="M .33300004 .38900004 C .31500004 .42600004 .286 .45300005 .24100001 .45300005 C .124 .45300005 0 .30600003 0 .16000001 C 0 .06600001 .055000005 0 .133 0 C .153 0 .20300001 .0040000008 .263 .075 C .27100004 .033000005 .30600003 0 .35400004 0 C .38900004 0 .41200004 .023000002 .42800004 .055000005 C .44500003 .091000009 .45800004 .15200001 .45800004 .15400002 C .45800004 .16400002 .44900004 .16400002 .44600005 .16400002 C .43600003 .16400002 .43500004 .16000001 .43200005 .14600002 C .41500003 .081 .397 .022000002 .35600005 .022000002 C .32900004 .022000002 .32600004 .048 .32600004 .068 C .32600004 .09 .32800005 .098000008 .33900003 .14200002 C .35000003 .18400002 .35200004 .19400002 .36100004 .23200003 L .397 .37200005 C .40400005 .40000005 .40400005 .40200005 .40400005 .40600003 C .40400005 .42300005 .39200003 .43300004 .37500004 .43300004 C .35100005 .43300004 .33600004 .411 .33300004 .38900004 M .26800005 .13000001 C .263 .112 .263 .11000001 .24800001 .093 C .20400001 .038000004 .163 .022000002 .135 .022000002 C .08499999 .022000002 .07100001 .077 .07100001 .116000007 C .07100001 .16600001 .103 .28900004 .126 .335 C .157 .39400003 .202 .43100003 .242 .43100003 C .307 .43100003 .32100005 .34900005 .32100005 .34300003 C .32100005 .337 .31900005 .33100004 .31800003 .32600004 L .26800005 .13000001 Z "/>
</symbol>
<use xlink:href="#font_0_1" transform="matrix(9.9626,0,0,-9.9626,39.926504,12.03759)"/>
<symbol id="font_1_1">
<path d="M .46400006 .33900003 C .46400006 .44900004 .45100004 .528 .40500004 .598 C .374 .644 .31200005 .684 .23200001 .684 C 0 .684 0 .41100005 0 .33900003 C 0 .26700003 0 0 .23200001 0 C .46400006 0 .46400006 .26700003 .46400006 .33900003 M .23200001 .028 C .186 .028 .125 .055 .105000007 .13700001 C .091000009 .19600001 .091000009 .27800004 .091000009 .35200004 C .091000009 .42500005 .091000009 .50100007 .106000009 .556 C .127 .635 .19100002 .656 .23200001 .656 C .286 .656 .338 .623 .356 .565 C .37200005 .51100006 .37300004 .43900005 .37300004 .35200004 C .37300004 .27800004 .37300004 .20400001 .36 .141 C .34000004 .050000006 .272 .028 .23200001 .028 Z "/>
</symbol>
<use xlink:href="#font_1_1" transform="matrix(6.9738,0,0,-6.9738,45.157636,13.562476)"/>
<symbol id="font_2_3">
<path d="M .35300002 .31300003 L .632 .31300003 C .646 .31300003 .665 .31300003 .665 .333 C .665 .35300002 .646 .35300002 .632 .35300002 L .35300002 .35300002 L .35300002 .633 C .35300002 .647 .35300002 .666 .33300004 .666 C .31300003 .666 .31300003 .647 .31300003 .633 L .31300003 .35300002 L .033 .35300002 C .019000002 .35300002 0 .35300002 0 .333 C 0 .31300003 .019000002 .31300003 .033 .31300003 L .31300003 .31300003 L .31300003 .033000005 C .31300003 .019000002 .31300003 0 .33300004 0 C .35300002 0 .35300002 .019000002 .35300002 .033000005 L .35300002 .31300003 Z "/>
</symbol>
<use xlink:href="#font_2_3" transform="matrix(9.9626,0,0,-9.9626,52.035905,12.754897)"/>
<use xlink:href="#font_0_1" transform="matrix(9.9626,0,0,-9.9626,61.838499,12.03759)"/>
<symbol id="font_1_2">
<path d="M .22600001 .63600006 C .22600001 .66300007 .224 .66400006 .19600001 .66400006 C .132 .601 .041 .6 0 .6 L 0 .564 C .023999997 .564 .09000001 .564 .14500001 .592 L .14500001 .082 C .14500001 .049000004 .14500001 .036000004 .04500001 .036000004 L .0069999995 .036000004 L .0069999995 0 C .024999999 .001 .148 .004 .185 .004 C .21600002 .004 .34200005 .001 .36400003 0 L .36400003 .036000004 L .32600004 .036000004 C .22600001 .036000004 .22600001 .049000004 .22600001 .082 L .22600001 .63600006 Z "/>
</symbol>
<use xlink:href="#font_1_2" transform="matrix(6.9738,0,0,-6.9738,67.46714,13.423)"/>
<use xlink:href="#font_0_3" transform="matrix(9.9626,0,0,-9.9626,71.46491,12.03759)"/>
<use xlink:href="#font_2_3" transform="matrix(9.9626,0,0,-9.9626,79.6419,12.754897)"/>
<use xlink:href="#font_0_1" transform="matrix(9.9626,0,0,-9.9626,89.444499,12.03759)"/>
<symbol id="font_1_3">
<path d="M .442 .18200001 L .40800003 .18200001 C .40500004 .16000001 .39500005 .101 .38200004 .091000009 C .374 .085 .29700003 .085 .28300003 .085 L .099 .085 C .20400003 .178 .23900002 .20600002 .29900003 .25300003 C .37300004 .312 .442 .374 .442 .469 C .442 .59000006 .33600004 .66400006 .20800004 .66400006 C .084 .66400006 0 .577 0 .485 C 0 .43400003 .043000007 .42900003 .053000004 .42900003 C .077 .42900003 .10600001 .446 .10600001 .48200003 C .10600001 .5 .099 .535 .047000007 .535 C .078 .606 .146 .628 .19300002 .628 C .293 .628 .34500004 .55 .34500004 .469 C .34500004 .38200004 .28300003 .31300003 .25100003 .277 L .010000005 .039 C 0 .030000002 0 .028 0 0 L .41200004 0 L .442 .18200001 Z "/>
</symbol>
<use xlink:href="#font_1_3" transform="matrix(6.9738,0,0,-6.9738,94.751338,13.423)"/>
<use xlink:href="#font_0_3" transform="matrix(9.9626,0,0,-9.9626,99.07091,12.03759)"/>
<use xlink:href="#font_1_3" transform="matrix(6.9738,0,0,-6.9738,104.91534,7.8150026)"/>
<symbol id="font_3_3">
<path d="M .484 .09200001 C .484 .115 .484 .120000008 .47 .120000008 C .409 .12100001 .31 .12900001 .22000002 .17300001 C .112 .22700002 .071 .29000003 .046000005 .32900004 C .043 .33400003 .037 .33400003 .024 .33400003 C .0009999983 .33400003 0 .333 0 .30800004 L 0 .29200004 C .136 .047000003 .361 0 .463 0 C .484 0 .484 .001 .484 .028 L .484 .09200001 Z "/>
</symbol>
<use xlink:href="#font_3_3" transform="matrix(9.9626,0,0,-9.9626,39.28889,17.607003)"/>
<path transform="matrix(1,0,0,-1,44.012,17.606999)" d="M 0 0 L 25.742 0 L 25.742 1.195 L 0 1.195 Z "/>
<symbol id="font_3_2">
<path d="M .48400004 .04200001 C .34800003 .28700004 .123 .33400003 .021000002 .33400003 C 0 .33400003 0 .333 0 .30600003 L 0 .24200002 C 0 .21900001 0 .21400002 .014 .21400002 C .075 .21300002 .17400001 .20500002 .264 .16100002 C .372 .10700001 .41300003 .044000016 .43800003 .00500001 C .441 0 .447 0 .46 0 C .483 0 .48400004 .001000002 .48400004 .026000008 L .48400004 .04200001 Z "/>
</symbol>
<symbol id="font_3_1">
<path d="M .484 .30600003 C .484 .333 .484 .33400003 .463 .33400003 C .361 .33400003 .136 .286 0 .04200001 L 0 .026000008 C 0 .001000002 .0009999983 0 .024 0 C .043 0 .044 .001000002 .049000004 .008000001 C .13100001 .13900002 .269 .21000003 .472 .21400002 C .484 .21400002 .484 .22100002 .484 .24200002 L .484 .30600003 Z "/>
</symbol>
<use xlink:href="#font_3_2" transform="matrix(9.9626,0,0,-9.9626,69.65437,19.738995)"/>
<use xlink:href="#font_3_1" transform="matrix(9.9626,0,0,-9.9626,73.99806,19.738995)"/>
<path transform="matrix(1,0,0,-1,78.72,17.606999)" d="M 0 0 L 25.742 0 L 25.742 1.195 L 0 1.195 Z "/>
<symbol id="font_3_4">
<path d="M .48400004 .30800004 C .48400004 .333 .483 .33400003 .46 .33400003 C .441 .33400003 .44 .333 .435 .326 C .35300002 .19500001 .21500002 .124000009 .012000001 .120000008 C 0 .120000008 0 .113000009 0 .09200001 L 0 .028 C 0 .001 0 0 .021000002 0 C .123 0 .34800003 .048 .48400004 .29200004 L .48400004 .30800004 Z "/>
</symbol>
<use xlink:href="#font_3_4" transform="matrix(9.9626,0,0,-9.9626,104.36237,17.606999)"/>
<use xlink:href="#font_2_3" transform="matrix(9.9626,0,0,-9.9626,111.1639,12.754893)"/>
<use xlink:href="#font_0_1" transform="matrix(9.9626,0,0,-9.9626,118.7525,12.037586)"/>
<symbol id="font_1_4">
<path d="M .219 .35400004 C .29700003 .35400004 .35300002 .3 .35300002 .193 C .35300002 .069000009 .28100003 .032 .223 .032 C .18300002 .032 .095 .043000007 .053000008 .102000009 C .10000001 .10400001 .111 .13700001 .111 .158 C .111 .19 .087 .213 .056000007 .213 C .028 .213 0 .19600001 0 .155 C 0 .061000006 .104 0 .22500001 0 C .36400003 0 .46 .09300001 .46 .193 C .46 .27100004 .39600004 .34900005 .286 .37200005 C .39100004 .41000004 .42900003 .48500005 .42900003 .546 C .42900003 .625 .33800004 .684 .22700002 .684 C .116 .684 .031 .63 .031 .55 C .031 .51600006 .053000008 .49700005 .083000008 .49700005 C .11400001 .49700005 .134 .52 .134 .548 C .134 .577 .11400001 .598 .083000008 .6 C .118 .644 .187 .65500006 .22400002 .65500006 C .26900003 .65500006 .33200003 .633 .33200003 .546 C .33200003 .504 .31800003 .45800004 .29200004 .42700003 C .25900004 .38900004 .23100002 .38700003 .18100001 .38400004 C .156 .38200004 .154 .38200004 .149 .38100005 C .147 .38100005 .139 .37900005 .139 .36800004 C .139 .35400004 .148 .35400004 .165 .35400004 L .219 .35400004 Z "/>
</symbol>
<use xlink:href="#font_1_4" transform="matrix(6.9738,0,0,-6.9738,123.99658,13.562472)"/>
<use xlink:href="#font_0_3" transform="matrix(9.9626,0,0,-9.9626,128.3789,12.037586)"/>
<use xlink:href="#font_1_4" transform="matrix(6.9738,0,0,-6.9738,134.16059,7.9544746)"/>
<use xlink:href="#font_2_3" transform="matrix(9.9626,0,0,-9.9626,141.0249,12.754893)"/>
<use xlink:href="#font_0_1" transform="matrix(9.9626,0,0,-9.9626,150.82849,12.037586)"/>
<symbol id="font_1_5">
<path d="M .49000005 .164 L .49000005 .2 L .379 .2 L .379 .646 C .379 .66700008 .379 .674 .35700003 .674 C .345 .674 .34100003 .674 .331 .66 L 0 .2 L 0 .164 L .294 .164 L .294 .082 C .294 .048 .294 .036000004 .213 .036000004 L .186 .036000004 L .186 0 C .236 .002 .3 .004 .33600004 .004 C .37300004 .004 .437 .002 .48700003 0 L .48700003 .036000004 L .46 .036000004 C .379 .036000004 .379 .048 .379 .082 L .379 .164 L .49000005 .164 M .301 .56600007 L .301 .2 L .037000006 .2 L .301 .56600007 Z "/>
</symbol>
<use xlink:href="#font_1_5" transform="matrix(6.9738,0,0,-6.9738,155.96797,13.4229969)"/>
<use xlink:href="#font_0_3" transform="matrix(9.9626,0,0,-9.9626,160.4539,12.037586)"/>
<use xlink:href="#font_1_5" transform="matrix(6.9738,0,0,-6.9738,166.13097,7.8149988)"/>
<use xlink:href="#font_2_3" transform="matrix(9.9626,0,0,-9.9626,173.0999,12.754893)"/>
<use xlink:href="#font_0_1" transform="matrix(9.9626,0,0,-9.9626,182.90349,12.037586)"/>
<use xlink:href="#font_1_6" transform="matrix(6.9738,0,0,-6.9738,188.21035,13.562472)"/>
<use xlink:href="#font_0_3" transform="matrix(9.9626,0,0,-9.9626,192.5289,12.037586)"/>
<use xlink:href="#font_1_6" transform="matrix(6.9738,0,0,-6.9738,198.37334,7.9544746)"/>
<use xlink:href="#font_3_3" transform="matrix(9.9626,0,0,-9.9626,150.19089,17.606999)"/>
<path transform="matrix(1,0,0,-1,154.913,17.606999)" d="M 0 0 L 17.021 0 L 17.021 1.195 L 0 1.195 Z "/>
<use xlink:href="#font_3_2" transform="matrix(9.9626,0,0,-9.9626,171.83338,19.738995)"/>
<use xlink:href="#font_3_1" transform="matrix(9.9626,0,0,-9.9626,176.17707,19.738995)"/>
<path transform="matrix(1,0,0,-1,180.9,17.606999)" d="M 0 0 L 17.021 0 L 17.021 1.195 L 0 1.195 Z "/>
<use xlink:href="#font_3_4" transform="matrix(9.9626,0,0,-9.9626,197.82038,17.606999)"/>
<symbol id="font_4_4">
<path d="M .40500004 .60700008 C .40900005 .634 .416 .64000007 .42900003 .643 C .439 .646 .46700008 .646 .48700006 .646 C .61500009 .646 .64300009 .625 .64300009 .52500006 C .64300009 .49400003 .64100006 .47300003 .63900008 .45200003 L .66700008 .45200003 L .68500009 .67700007 L .058 .67700007 L 0 .45200003 L .027999998 .45200003 C .07000001 .61300006 .09 .646 .24500002 .646 C .26100005 .646 .286 .646 .292 .64500007 C .311 .643 .31700004 .64000007 .31700004 .624 C .31700004 .62 .31700004 .61800006 .314 .601 L .22700002 .076000008 C .221 .040000004 .20600002 .031000002 .11400001 .031000002 L .075 .031000002 L .07000001 0 C .106000009 .003 .216 .003 .259 .003 C .30200006 .003 .41200007 .003 .448 0 C .44900007 .008 .45200003 .022000002 .453 .031000002 L .41400004 .031000002 C .35800005 .031000002 .315 .031000002 .315 .063 C .315 .065000008 .31600005 .071 .31700004 .076000008 L .40500004 .60700008 Z "/>
</symbol>
<symbol id="font_4_a">
<path d="M .48600004 .30600003 C .488 .316 .48900006 .324 .48900006 .33900003 C .48900006 .41300003 .441 .44200004 .36800004 .44200004 C .277 .44200004 .22300002 .37600003 .20800002 .354 L .20700002 .354 L .26400004 .694 L .11400001 .683 L .10900001 .652 C .16800002 .652 .17900002 .646 .17900002 .619 C .17900002 .614 .17900002 .61200007 .17600002 .595 L .089 .072000008 C .082 .031000002 .067 .031000002 .0050000029 .031000002 C .0040000008 .023000002 .001000002 .009000001 0 0 C .046 .002 .069000009 .003 .11400001 .003 C .16200002 .003 .17500001 .002 .22800002 0 L .23300001 .031000002 C .18300002 .031000002 .16100002 .031000002 .16100002 .057000005 C .16100002 .060000004 .16800002 .098000008 .17100002 .11800001 C .17400001 .13800001 .18500002 .20400001 .19300002 .25 C .21600002 .386 .31700004 .41700004 .36 .41700004 C .397 .41700004 .41700004 .39900003 .41700004 .35200004 C .41700004 .337 .40900005 .28800003 .40300004 .256 C .39800004 .22600001 .37600003 .087000008 .37300004 .07 C .36600004 .031000002 .351 .031000002 .289 .031000002 C .28800003 .023000002 .28500004 .009000001 .284 0 C .33 .002 .35300002 .003 .39800004 .003 C .44600005 .003 .45900003 .002 .512 0 L .517 .031000002 C .46700005 .031000002 .44500003 .031000002 .44500003 .057000005 C .44500003 .060000004 .44500003 .061000006 .448 .07700001 L .48600004 .30600003 Z "/>
</symbol>
<symbol id="font_4_7">
<path d="M .37800003 .24000003 C .402 .24000003 .41000004 .24000003 .41000004 .30300004 C .41000004 .41700004 .33400003 .45900003 .254 .45900003 C .117 .45900003 0 .32700003 0 .19400002 C 0 .081 .08499999 0 .194 0 C .32000003 0 .38500003 .113000009 .38500003 .13000001 C .38500003 .13700001 .38000003 .143 .37100003 .143 C .36200003 .143 .36 .13800001 .356 .13100001 C .317 .053000004 .245 .028 .20000002 .028 C .14500001 .028 .083000008 .065000008 .083000008 .16500002 C .083000008 .18500002 .087 .22000002 .091000009 .24000003 L .37800003 .24000003 M .096 .26400004 C .128 .404 .213 .43400003 .25300003 .43400003 C .32700003 .43400003 .344 .367 .344 .31700004 C .344 .291 .33900003 .26500003 .33900003 .26400004 L .096 .26400004 Z "/>
</symbol>
<symbol id="font_4_13">
<path d="M .381 .43400003 C .38300003 .44300003 .38300003 .44500003 .38300003 .44700004 C .38300003 .45100004 .38000003 .45900003 .37 .45900003 C .36400003 .45900003 .343 .44200004 .33 .43100003 C .296 .45900003 .252 .45900003 .238 .45900003 C .092 .45900003 .053000004 .37000004 .053000004 .32000003 C .053000004 .23500002 .15 .21600002 .18 .21100001 C .24599999 .19800002 .303 .18700002 .303 .127 C .303 .126 .303 .025000003 .17000002 .025000003 C .095000009 .025000003 .061000006 .071 .055 .15600002 C .054000006 .17400001 .053000004 .18000002 .04 .18000002 C .030000002 .18000002 .027000003 .17600002 .024 .15900001 L 0 .013000001 C 0 .0060000007 .0040000008 0 .012000002 0 C .018 0 .019000002 .0010000002 .039000006 .021000002 C .045 .026 .059 .039 .064 .044 C .09600001 .0060000007 .137 0 .17000002 0 C .323 0 .359 .108 .359 .158 C .359 .19300002 .347 .21800003 .321 .24200002 C .294 .26900003 .259 .275 .20700002 .28500004 C .16600001 .293 .109000008 .30400003 .109000008 .35200004 C .109000008 .381 .13300002 .43700005 .238 .43700005 C .308 .43700005 .336 .40100003 .336 .34900005 C .336 .335 .33400003 .32900004 .33400003 .32400004 C .33400003 .31200005 .343 .31100003 .34800003 .31100003 C .361 .31100003 .36200003 .31900005 .36400003 .33200003 L .381 .43400003 Z "/>
</symbol>
<symbol id="font_4_14">
<path d="M .16100002 .411 L .30600003 .411 C .30800004 .42100004 .30900003 .43200005 .31100003 .44200004 L .16600001 .44200004 L .19600001 .626 L .16800002 .626 C .15400002 .541 .1 .43900005 .0040000008 .43600003 C .002000004 .42600004 .001000002 .42000003 0 .411 L .086 .411 L .041 .13900002 C .038000004 .12100001 .038000004 .117000009 .038000004 .106000009 C .038000004 .016 .11100001 0 .15400002 0 C .20400003 0 .23300001 .033000005 .24900002 .058000003 C .27 .092 .272 .106000009 .286 .19200002 L .25800003 .19200002 C .24700001 .126 .24500004 .11000001 .23400003 .086 C .21600002 .049000004 .19000003 .028 .162 .028 C .11100001 .028 .11100001 .082 .11100001 .095000009 C .11100001 .10300001 .11100001 .111 .114 .12900001 L .16100002 .411 Z "/>
</symbol>
<symbol id="font_4_12">
<path d="M .17400001 .157 C .19000001 .254 .19600001 .287 .222 .33200003 C .24900002 .379 .286 .41700004 .34100003 .41700004 L .34100003 .416 C .33900003 .41500003 .31800003 .40100003 .31800003 .37300004 C .31800003 .344 .34100003 .335 .35700003 .335 C .38300003 .335 .407 .35700003 .407 .386 C .407 .41400004 .38400004 .44200004 .33900003 .44200004 C .264 .44200004 .21700001 .37300004 .2 .342 L .216 .44200004 L .072000008 .43100003 L .067 .4 C .126 .4 .13700001 .39400003 .13700001 .367 C .13700001 .36200003 .13700001 .36 .134 .34300003 L .089 .072000008 C .082 .031000002 .067 .031000002 .004999999 .031000002 C .0040000008 .023000002 .0010000002 .009000001 0 0 C .050000006 .002 .066 .003 .117 .003 C .164 .003 .186 .002 .245 0 L .25 .031000002 L .229 .031000002 C .163 .031000002 .15900001 .041 .15900001 .060000004 C .15900001 .066 .163 .089 .165 .10300001 L .17400001 .157 Z "/>
</symbol>
<symbol id="font_4_e">
<path d="M .772 .30600003 C .774 .316 .77500006 .324 .77500006 .33900003 C .77500006 .41500003 .725 .44200004 .653 .44200004 C .555 .44200004 .5 .36400003 .49000005 .34800003 C .48600004 .43400003 .40900005 .44200004 .36800004 .44200004 C .27100004 .44200004 .21700001 .367 .20400001 .347 L .20300001 .347 L .21900001 .44200004 L .07200001 .43100003 L .067 .4 C .12600002 .4 .13700001 .39400003 .13700001 .367 C .13700001 .36200003 .13700001 .36 .13400002 .34300003 L .089 .072000008 C .082 .031000002 .067 .031000002 .0050000029 .031000002 C .0040000008 .023000002 .001000002 .009000001 0 0 C .046 .002 .069000009 .003 .11400001 .003 C .16200002 .003 .17500001 .002 .22800002 0 L .23300001 .031000002 C .18300002 .031000002 .16100002 .031000002 .16100002 .057000005 C .16100002 .060000004 .16800002 .098000008 .17100002 .11800001 C .17400001 .13800001 .18500002 .20400001 .19300002 .25 C .21600002 .386 .31700004 .41700004 .36100004 .41700004 C .39600004 .41700004 .418 .4 .418 .35200004 C .418 .344 .41700004 .337 .41600005 .32900004 L .374 .072000008 C .367 .031000002 .35200004 .031000002 .29000003 .031000002 C .289 .023000002 .286 .009000001 .28500004 0 C .33100004 .002 .35400004 .003 .39900003 .003 C .44700004 .003 .46000005 .002 .513 0 L .518 .031000002 C .46800003 .031000002 .44600005 .031000002 .44600005 .057000005 C .44600005 .060000004 .45300005 .098000008 .45600004 .11800001 C .45900003 .13800001 .47 .20400001 .47800002 .25 C .501 .386 .602 .41700004 .646 .41700004 C .681 .41700004 .703 .4 .703 .35200004 C .703 .344 .702 .337 .70100006 .32900004 L .659 .072000008 C .652 .031000002 .637 .031000002 .575 .031000002 C .574 .023000002 .571 .009000001 .57 0 C .616 .002 .639 .003 .684 .003 C .732 .003 .745 .002 .79800006 0 L .80300006 .031000002 C .753 .031000002 .731 .031000002 .731 .057000005 C .731 .060000004 .731 .061000006 .734 .07700001 L .772 .30600003 Z "/>
</symbol>
<symbol id="font_4_16">
<path d="M .398 .34500004 C .413 .37100003 .43800003 .40900005 .5 .411 L .505 .44200004 C .476 .43900005 .43300004 .43900005 .42800004 .43900005 C .4 .43900005 .37 .44000004 .343 .44200004 L .337 .41200004 C .338 .41200004 .377 .41000004 .377 .37600003 C .377 .36300005 .368 .34700004 .36400003 .33900003 L .22 .093 L .15400002 .36100004 C .15 .37500004 .15 .37700004 .15 .381 C .15 .411 .192 .411 .21000001 .411 C .211 .42000003 .21400002 .43400003 .215 .44200004 C .167 .44000004 .146 .43900005 .105 .43900005 C .10300001 .43900005 .043000007 .43900005 .0059999974 .44200004 L 0 .411 C .052999997 .411 .06600001 .40900005 .074999999 .37100003 L .16100002 .024 C .16499999 .0070000009 .167 0 .18200001 0 C .197 0 .20300001 .011000001 .208 .019000002 L .398 .34500004 Z "/>
</symbol>
<symbol id="font_4_5">
<path d="M .44500003 .15600002 C .439 .11800001 .43500004 .091000009 .43300004 .08400001 C .42800004 .065000008 .41300003 .040000004 .39000003 .040000004 C .36200003 .040000004 .36100004 .074 .36100004 .079 C .36100004 .087000008 .36800004 .127 .372 .14700002 C .379 .18400002 .40100003 .30300004 .40100003 .33300004 C .40100003 .40300004 .337 .45900003 .24200002 .45900003 C .13700001 .45900003 .07100001 .39900003 .07100001 .34500004 C .07100001 .321 .08700001 .305 .113000009 .305 C .14000002 .305 .165 .32700003 .165 .358 C .165 .39100004 .135 .397 .12900001 .39800004 C .17000002 .43200005 .229 .43400003 .23900002 .43400003 C .30600003 .43400003 .328 .37900005 .328 .33900003 C .328 .33300004 .328 .33100004 .319 .275 C .268 .27300004 .19000001 .26900003 .11700001 .23700002 C .017 .19200002 0 .124000009 0 .095000009 C 0 .027000003 .081000018 0 .14900002 0 C .23300001 0 .28000004 .057000005 .296 .082 C .296 .016 .33800004 .005000001 .36 .005000001 C .39300005 .005000001 .451 .027000003 .46300004 .096 C .465 .107 .47 .136 .47300003 .15600002 L .44500003 .15600002 M .31500004 .25100003 C .30800004 .21100001 .30400003 .16700001 .29400004 .13100001 C .27600003 .068 .21400002 .025000003 .157 .025000003 C .113000009 .025000003 .08000001 .053000004 .08000001 .094000007 C .08000001 .097 .08000001 .23900002 .31500004 .25100003 Z "/>
</symbol>
<symbol id="font_4_f">
<path d="M .48600004 .30600003 C .488 .316 .48900006 .324 .48900006 .33900003 C .48900006 .41300003 .441 .44200004 .36800004 .44200004 C .29000003 .44200004 .23400003 .39400003 .20400001 .347 L .20300001 .347 L .21900001 .44200004 L .07200001 .43100003 L .067 .4 C .12600002 .4 .13700001 .39400003 .13700001 .367 C .13700001 .36200003 .13700001 .36 .13400002 .34300003 L .089 .072000008 C .082 .031000002 .067 .031000002 .0050000029 .031000002 C .0040000008 .023000002 .001000002 .009000001 0 0 C .046 .002 .069000009 .003 .11400001 .003 C .16200002 .003 .17500001 .002 .22800002 0 L .23300001 .031000002 C .18300002 .031000002 .16100002 .031000002 .16100002 .057000005 C .16100002 .060000004 .16800002 .098000008 .17100002 .11800001 C .17400001 .13800001 .18500002 .20400001 .19300002 .25 C .21600002 .386 .31700004 .41700004 .36 .41700004 C .397 .41700004 .41700004 .39900003 .41700004 .35200004 C .41700004 .337 .40900005 .28800003 .40300004 .256 C .39800004 .22600001 .37600003 .087000008 .37300004 .07 C .36600004 .031000002 .351 .031000002 .289 .031000002 C .28800003 .023000002 .28500004 .009000001 .284 0 C .33 .002 .35300002 .003 .39800004 .003 C .44600005 .003 .45900003 .002 .512 0 L .517 .031000002 C .46700005 .031000002 .44500003 .031000002 .44500003 .057000005 C .44500003 .060000004 .44500003 .061000006 .448 .07700001 L .48600004 .30600003 Z "/>
</symbol>
<symbol id="font_4_b">
<path d="M .254 .623 C .254 .65000006 .23400001 .67 .20600002 .67 C .17500001 .67 .14500001 .64100006 .14500001 .609 C .14500001 .58500006 .16300002 .56200006 .19300002 .56200006 C .22200002 .56200006 .254 .587 .254 .623 M .09300001 .432 C .07700001 .43100003 .076000008 .43 .074 .423 C .072 .41500003 .07000001 .40600003 .07000001 .4 C .12500002 .4 .13700001 .395 .13700001 .36800004 C .13700001 .36200003 .13700001 .36 .134 .34300003 L .089 .072000008 C .082 .031000002 .067 .031000002 .004999999 .031000002 C .0040000008 .023000002 .0009999983 .009000001 0 0 C .044000005 .002 .066 .003 .111 .003 C .13100001 .003 .16800002 .003 .21700002 0 L .223 .031000002 C .17800002 .031000002 .158 .031000002 .158 .056 C .158 .060000004 .158 .061000006 .16100002 .07700001 L .22200002 .44200004 L .09300001 .432 Z "/>
</symbol>
<use xlink:href="#font_4_4" transform="matrix(8.9664,0,0,-8.9664,36.646238,29.245003)"/>
<use xlink:href="#font_4_a" transform="matrix(8.9664,0,0,-8.9664,42.60889,29.245003)"/>
<use xlink:href="#font_4_7" transform="matrix(8.9664,0,0,-8.9664,47.9708,29.343634)"/>
<use xlink:href="#font_4_13" transform="matrix(8.9664,0,0,-8.9664,51.817388,29.343634)"/>
<use xlink:href="#font_4_7" transform="matrix(8.9664,0,0,-8.9664,55.699838,29.343634)"/>
<use xlink:href="#font_4_14" transform="matrix(8.9664,0,0,-8.9664,63.079187,29.343634)"/>
<use xlink:href="#font_4_7" transform="matrix(8.9664,0,0,-8.9664,66.450557,29.343634)"/>
<use xlink:href="#font_4_12" transform="matrix(8.9664,0,0,-8.9664,70.26127,29.245003)"/>
<use xlink:href="#font_4_e" transform="matrix(8.9664,0,0,-8.9664,73.9106,29.245003)"/>
<use xlink:href="#font_4_13" transform="matrix(8.9664,0,0,-8.9664,81.58583,29.343634)"/>
<use xlink:href="#font_4_16" transform="matrix(8.9664,0,0,-8.9664,88.76792,29.343634)"/>
<use xlink:href="#font_4_5" transform="matrix(8.9664,0,0,-8.9664,92.8566,29.343634)"/>
<use xlink:href="#font_4_f" transform="matrix(8.9664,0,0,-8.9664,97.2591,29.245003)"/>
<use xlink:href="#font_4_b" transform="matrix(8.9664,0,0,-8.9664,102.38788,29.245003)"/>
<use xlink:href="#font_4_13" transform="matrix(8.9664,0,0,-8.9664,104.93433,29.343634)"/>
<use xlink:href="#font_4_a" transform="matrix(8.9664,0,0,-8.9664,108.5747,29.245003)"/>
<symbol id="font_4_8">
<path d="M .21500002 .4 L .331 .4 C .333 .41000004 .334 .42100004 .336 .43100003 L .21700002 .43100003 L .23600002 .54700008 C .24700003 .61600008 .298 .68 .352 .68 C .366 .68 .375 .67700007 .379 .675 C .368 .67 .34600003 .656 .34600003 .62700006 C .34600003 .609 .357 .58900007 .386 .58900007 C .412 .58900007 .43600003 .609 .43600003 .64100006 C .43600003 .68 .4 .70500007 .352 .70500007 C .269 .70500007 .18300002 .64000007 .16800002 .549 L .149 .43100003 L .07000001 .43100003 C .068 .42100004 .067 .41000004 .065 .4 L .143 .4 L .089 .072000008 C .082 .031000002 .067 .031000002 .004999999 .031000002 C .0040000008 .023000002 .0009999983 .009000001 0 0 C .05 .002 .066 .003 .11700001 .003 C .164 .003 .18600002 .002 .24500002 0 L .25 .031000002 L .22900002 .031000002 C .16300002 .031000002 .15900001 .041 .15900001 .060000004 C .15900001 .064 .15900001 .066 .16200002 .083000008 L .21500002 .4 Z "/>
</symbol>
<symbol id="font_4_c">
<path d="M .264 .694 L .11400001 .683 L .10900001 .652 C .16800002 .652 .179 .646 .179 .619 C .179 .614 .179 .61200007 .17600002 .595 L .089 .072000008 C .082 .031000002 .067 .031000002 .004999999 .031000002 C .0040000008 .023000002 .0010000002 .009000001 0 0 C .046000005 .002 .066 .003 .111 .003 C .157 .003 .18 .002 .222 0 L .227 .031000002 C .17700002 .031000002 .155 .031000002 .155 .057000005 C .155 .063 .16900002 .14600002 .172 .15900001 C .17500001 .178 .17600002 .179 .185 .186 L .24700001 .23200001 C .30800004 .12900001 .33900003 .076000008 .33900003 .058000003 C .33900003 .041 .328 .031000002 .30100004 .031000002 C .29900003 .021000002 .298 .010000001 .296 0 C .34100003 .002 .365 .003 .404 .003 C .43300004 .003 .46500004 .003 .49400006 0 L .49900005 .031000002 C .44200004 .031000002 .437 .040000004 .39000003 .124000009 L .305 .273 C .44300003 .381 .48600004 .39800004 .538 .4 C .53900006 .40800003 .54200008 .42200003 .543 .43100003 C .50699999 .42800004 .505 .42800004 .46800003 .42800004 C .446 .42800004 .404 .42900003 .36 .43100003 L .354 .40100003 C .36600004 .40100003 .377 .393 .377 .381 C .377 .363 .36100004 .34800003 .35200004 .34 C .347 .337 .20600002 .23300001 .185 .21800001 L .264 .694 Z "/>
</symbol>
<symbol id="font_4_9">
<path d="M .50400009 .633 C .50100007 .63100007 .49 .624 .49 .605 C .49 .59000006 .50100007 .578 .51800009 .578 C .53300008 .578 .55200007 .59000006 .55200007 .615 C .55200007 .628 .544 .65900006 .50400009 .65900006 C .48300005 .65900006 .43600006 .65400007 .388 .61200007 C .36400003 .633 .328 .64800009 .28400005 .64800009 C .186 .64800009 .094000007 .572 .094000007 .48200006 C .094000007 .45400004 .101 .42600004 .125 .40100003 C .108 .38300003 .079 .34600003 .079 .29800005 C .079 .259 .09900001 .23600002 .109000008 .22800002 C .040000004 .20900002 0 .16100002 0 .11700001 C 0 .055000009 .082 0 .209 0 C .31 0 .458 .04100001 .458 .15 C .458 .24500002 .374 .27400003 .268 .27400003 L .177 .27400003 C .162 .27400003 .117 .27400003 .117 .32700003 C .117 .35200004 .133 .37600003 .141 .38500003 C .17600002 .35900004 .21200001 .35400004 .23900001 .35400004 C .34400005 .35400004 .43 .43700005 .43 .52000007 C .43 .563 .40500004 .596 .40400005 .59700009 C .439 .624 .47300006 .633 .50400009 .63400009 L .50400009 .633 M .24000003 .38100005 C .22600001 .38100005 .16800002 .38500003 .16800002 .458 C .16800002 .512 .18900001 .62100008 .283 .62100008 C .31300003 .62100008 .35500003 .609 .35500003 .54300007 C .35500003 .47100003 .325 .38100005 .24000003 .38100005 M .21000001 .02700001 C .11600001 .02700001 .056 .07000001 .056 .11600001 C .056 .134 .066 .16700001 .1 .19100002 C .128 .21100001 .14 .21100001 .215 .21100001 C .306 .21100001 .40100003 .21100001 .40100003 .14000002 C .40100003 .08200001 .31600005 .02700001 .21000001 .02700001 Z "/>
</symbol>
<use xlink:href="#font_4_5" transform="matrix(8.9664,0,0,-8.9664,24.683054,36.975629)"/>
<use xlink:href="#font_4_8" transform="matrix(8.9664,0,0,-8.9664,29.094523,36.877)"/>
<use xlink:href="#font_4_14" transform="matrix(8.9664,0,0,-8.9664,32.35829,36.975629)"/>
<use xlink:href="#font_4_7" transform="matrix(8.9664,0,0,-8.9664,35.72966,36.975629)"/>
<use xlink:href="#font_4_12" transform="matrix(8.9664,0,0,-8.9664,39.54038,36.877)"/>
<use xlink:href="#font_4_14" transform="matrix(8.9664,0,0,-8.9664,46.722467,36.975629)"/>
<use xlink:href="#font_4_5" transform="matrix(8.9664,0,0,-8.9664,50.05796,36.975629)"/>
<use xlink:href="#font_4_c" transform="matrix(8.9664,0,0,-8.9664,54.415639,36.877)"/>
<use xlink:href="#font_4_b" transform="matrix(8.9664,0,0,-8.9664,59.329225,36.877)"/>
<use xlink:href="#font_4_f" transform="matrix(8.9664,0,0,-8.9664,61.884649,36.877)"/>
<use xlink:href="#font_4_9" transform="matrix(8.9664,0,0,-8.9664,66.825138,38.72408)"/>
<symbol id="font_5_2">
<path d="M .262 .37400005 C .35500003 .40900005 .39900003 .48200003 .39900003 .55100008 C .39900003 .628 .314 .688 .21000003 .688 C .106000009 .688 .028 .62900009 .028 .55300006 C .028 .52000007 .05 .50100007 .07900001 .50100007 C .10800001 .50100007 .12900001 .522 .12900001 .55100008 C .12900001 .586 .105000007 .6010001 .07100001 .6010001 C .097 .64300009 .158 .66300007 .207 .66300007 C .29 .66300007 .306 .59700009 .306 .55 C .306 .52000007 .3 .47200004 .275 .43400005 C .244 .38900004 .209 .38700003 .18 .38500003 C .15500002 .38300006 .15300001 .38300006 .14500001 .38300006 C .136 .38200004 .128 .38100005 .128 .37000004 C .128 .35700003 .136 .35700003 .15300001 .35700003 L .20000002 .35700003 C .287 .35700003 .32500003 .28700004 .32500003 .192 C .32500003 .064 .257 .028 .20600002 .028 C .187 .028 .09 .033000005 .045000007 .107 C .081 .102000009 .10900001 .127 .10900001 .16100002 C .10900001 .194 .08400001 .215 .055000005 .215 C .030000005 .215 0 .2 0 .158 C 0 .069000009 .09300001 0 .209 0 C .334 0 .42700003 .09 .42700003 .192 C .42700003 .279 .358 .35300005 .262 .37400005 Z "/>
</symbol>
<use xlink:href="#font_5_2" transform="matrix(8.9664,0,0,-8.9664,74.74555,37.07426)"/>
<symbol id="font_4_6">
<path d="M .5120001 .705 L .36200003 .694 L .35700003 .663 C .416 .663 .42700003 .657 .42700003 .63 C .42700003 .624 .42700003 .622 .42400003 .606 L .388 .39300005 C .372 .41500003 .337 .45300005 .268 .45300005 C .135 .45300005 0 .335 0 .19000001 C 0 .074 .08600001 0 .18600002 0 C .25 0 .3 .033000005 .33 .062000004 L .32000003 0 L .47300003 .011000001 C .47500006 .021000002 .47600005 .032 .47800002 .042000005 C .41700004 .042000005 .40800003 .049000004 .40800003 .075 C .40800003 .081 .40800003 .083000008 .411 .1 L .5120001 .705 M .342 .13000001 C .337 .102000009 .30800004 .075 .291 .062000004 C .25 .031000004 .213 .025000003 .19100002 .025000003 C .13800001 .025000003 .082 .062000004 .082 .15700002 C .082 .16000001 .08400001 .275 .13100001 .34600003 C .16600001 .39900003 .222 .42800004 .272 .42800004 C .35300002 .42800004 .37800003 .35700003 .37800003 .351 L .37600003 .337 L .342 .13000001 Z "/>
</symbol>
<use xlink:href="#font_4_6" transform="matrix(8.9664,0,0,-8.9664,82.64075,36.975629)"/>
<use xlink:href="#font_4_7" transform="matrix(8.9664,0,0,-8.9664,87.71573,36.975629)"/>
<use xlink:href="#font_4_12" transform="matrix(8.9664,0,0,-8.9664,91.52645,36.877)"/>
<use xlink:href="#font_4_b" transform="matrix(8.9664,0,0,-8.9664,95.184749,36.877)"/>
<use xlink:href="#font_4_16" transform="matrix(8.9664,0,0,-8.9664,98.20642,36.975629)"/>
<use xlink:href="#font_4_5" transform="matrix(8.9664,0,0,-8.9664,102.2951,36.975629)"/>
<use xlink:href="#font_4_14" transform="matrix(8.9664,0,0,-8.9664,107.154888,36.975629)"/>
<use xlink:href="#font_4_b" transform="matrix(8.9664,0,0,-8.9664,110.29313,36.877)"/>
<use xlink:href="#font_4_16" transform="matrix(8.9664,0,0,-8.9664,113.314807,36.975629)"/>
<use xlink:href="#font_4_7" transform="matrix(8.9664,0,0,-8.9664,117.69041,36.975629)"/>
<use xlink:href="#font_4_13" transform="matrix(8.9664,0,0,-8.9664,121.53699,36.975629)"/>
<symbol id="font_4_2">
<path d="M .492 .69100007 C .488 .711 .48500005 .716 .47 .716 C .45400004 .716 .45000003 .708 .44300003 .69500008 L .12799999 .09900001 C .116000007 .075 .089 .031000002 .004999999 .031000002 L 0 0 C .043000007 .003 .095000009 .003 .102000009 .003 C .146 .003 .16500002 .002 .215 0 L .22 .031000002 C .176 .031000002 .15400002 .052 .15400002 .076000008 C .15400002 .086 .15799999 .09200001 .16800002 .112 C .18200001 .13800001 .21700001 .20400001 .22999999 .23 L .489 .23 C .494 .201 .49500004 .19500001 .50100007 .165 C .50400009 .15200001 .521 .072000008 .521 .065000008 C .521 .031000002 .45900003 .031000002 .433 .031000002 L .428 0 C .47300003 .003 .52500006 .003 .57100006 .003 C .6100001 .003 .62700006 .002 .7020001 0 L .7070001 .031000002 C .6380001 .031000002 .6190001 .031000002 .61100009 .074 L .492 .69100007 M .419 .588 L .483 .261 L .24700001 .261 L .419 .588 Z "/>
</symbol>
<use xlink:href="#font_4_2" transform="matrix(8.9664,0,0,-8.9664,150.87586,28.373003)"/>
<use xlink:href="#font_4_8" transform="matrix(8.9664,0,0,-8.9664,157.80689,28.373003)"/>
<use xlink:href="#font_4_14" transform="matrix(8.9664,0,0,-8.9664,161.07065,28.471634)"/>
<use xlink:href="#font_4_7" transform="matrix(8.9664,0,0,-8.9664,164.44203,28.471634)"/>
<use xlink:href="#font_4_12" transform="matrix(8.9664,0,0,-8.9664,168.25275,28.373003)"/>
<use xlink:href="#font_4_14" transform="matrix(8.9664,0,0,-8.9664,175.43482,28.471634)"/>
<use xlink:href="#font_4_5" transform="matrix(8.9664,0,0,-8.9664,178.77033,28.471634)"/>
<use xlink:href="#font_4_c" transform="matrix(8.9664,0,0,-8.9664,183.128,28.373003)"/>
<use xlink:href="#font_4_b" transform="matrix(8.9664,0,0,-8.9664,188.04158,28.373003)"/>
<use xlink:href="#font_4_f" transform="matrix(8.9664,0,0,-8.9664,190.59702,28.373003)"/>
<use xlink:href="#font_4_9" transform="matrix(8.9664,0,0,-8.9664,195.53749,30.220082)"/>
<use xlink:href="#font_5_2" transform="matrix(8.9664,0,0,-8.9664,203.45656,28.570263)"/>
<use xlink:href="#font_4_6" transform="matrix(8.9664,0,0,-8.9664,211.35076,28.471634)"/>
<use xlink:href="#font_4_7" transform="matrix(8.9664,0,0,-8.9664,216.42574,28.471634)"/>
<use xlink:href="#font_4_12" transform="matrix(8.9664,0,0,-8.9664,220.23645,28.373003)"/>
<use xlink:href="#font_4_b" transform="matrix(8.9664,0,0,-8.9664,223.89473,28.373003)"/>
<use xlink:href="#font_4_16" transform="matrix(8.9664,0,0,-8.9664,226.91641,28.471634)"/>
<use xlink:href="#font_4_5" transform="matrix(8.9664,0,0,-8.9664,231.0051,28.471634)"/>
<use xlink:href="#font_4_14" transform="matrix(8.9664,0,0,-8.9664,235.86489,28.471634)"/>
<use xlink:href="#font_4_b" transform="matrix(8.9664,0,0,-8.9664,239.00313,28.373003)"/>
<use xlink:href="#font_4_16" transform="matrix(8.9664,0,0,-8.9664,242.02481,28.471634)"/>
<use xlink:href="#font_4_7" transform="matrix(8.9664,0,0,-8.9664,246.40042,28.471634)"/>
<use xlink:href="#font_4_13" transform="matrix(8.9664,0,0,-8.9664,250.247,28.471634)"/>
<symbol id="font_4_10">
<path d="M .462 .263 C .462 .37500004 .38200004 .45900003 .27000005 .45900003 C .125 .45900003 0 .321 0 .18700002 C 0 .086 .076000008 0 .19400002 0 C .33200003 0 .462 .12100001 .462 .263 M .19900002 .028 C .16600001 .028 .083000008 .041 .083000008 .15600002 C .083000008 .17900002 .09200001 .29500003 .12900001 .35500003 C .164 .41000004 .219 .43400003 .26600004 .43400003 C .30300004 .43400003 .38200004 .41600005 .38200004 .30800004 C .38200004 .29500003 .376 .17700002 .33500005 .108 C .30300004 .055000005 .24800001 .028 .19900002 .028 Z "/>
</symbol>
<symbol id="font_4_18">
<path d="M .43700005 .39900003 C .44500003 .40800003 .44900004 .411 .44900004 .42000003 C .44900004 .43100003 .44000004 .43100003 .42400003 .43100003 L .095 .43100003 L .057000005 .26700003 L .085 .26700003 C .10700001 .37600003 .141 .40600003 .24500002 .40600003 L .36000005 .40600003 L .011000002 .032 C .0030000006 .023000002 0 .021000002 0 .012 C 0 0 .007000001 0 .025 0 L .36500005 0 L .41400004 .19000001 L .38600005 .19000001 C .35700003 .078 .33500005 .028 .21000001 .028 L .09 .028 L .43700005 .39900003 Z "/>
</symbol>
<use xlink:href="#font_4_14" transform="matrix(8.9664,0,0,-8.9664,151.9521,37.84763)"/>
<use xlink:href="#font_4_a" transform="matrix(8.9664,0,0,-8.9664,155.08139,37.749)"/>
<use xlink:href="#font_4_7" transform="matrix(8.9664,0,0,-8.9664,160.4433,37.84763)"/>
<use xlink:href="#font_4_13" transform="matrix(8.9664,0,0,-8.9664,164.28987,37.84763)"/>
<use xlink:href="#font_4_7" transform="matrix(8.9664,0,0,-8.9664,168.17234,37.84763)"/>
<use xlink:href="#font_4_14" transform="matrix(8.9664,0,0,-8.9664,175.56063,37.84763)"/>
<use xlink:href="#font_4_7" transform="matrix(8.9664,0,0,-8.9664,178.932,37.84763)"/>
<use xlink:href="#font_4_12" transform="matrix(8.9664,0,0,-8.9664,182.74272,37.749)"/>
<use xlink:href="#font_4_e" transform="matrix(8.9664,0,0,-8.9664,186.39205,37.749)"/>
<use xlink:href="#font_4_13" transform="matrix(8.9664,0,0,-8.9664,194.0583,37.84763)"/>
<use xlink:href="#font_4_a" transform="matrix(8.9664,0,0,-8.9664,200.77414,37.749)"/>
<use xlink:href="#font_4_5" transform="matrix(8.9664,0,0,-8.9664,206.10018,37.84763)"/>
<use xlink:href="#font_4_16" transform="matrix(8.9664,0,0,-8.9664,210.70891,37.84763)"/>
<use xlink:href="#font_4_7" transform="matrix(8.9664,0,0,-8.9664,215.09349,37.84763)"/>
<use xlink:href="#font_4_f" transform="matrix(8.9664,0,0,-8.9664,222.0245,37.749)"/>
<use xlink:href="#font_4_10" transform="matrix(8.9664,0,0,-8.9664,227.37744,37.84763)"/>
<use xlink:href="#font_4_f" transform="matrix(8.9664,0,0,-8.9664,231.75305,37.749)"/>
<use xlink:href="#font_4_18" transform="matrix(8.9664,0,0,-8.9664,236.82802,37.749)"/>
<use xlink:href="#font_4_7" transform="matrix(8.9664,0,0,-8.9664,241.20363,37.84763)"/>
<use xlink:href="#font_4_12" transform="matrix(8.9664,0,0,-8.9664,245.01435,37.749)"/>
<use xlink:href="#font_4_10" transform="matrix(8.9664,0,0,-8.9664,248.89679,37.84763)"/>
<symbol id="font_4_11">
<path d="M .254 .63600006 L .104 .625 L .099 .594 C .15600002 .594 .17000002 .59000006 .17000002 .566 C .17000002 .56200006 .17000002 .56000009 .16700001 .543 L .089 .073 C .082 .031000004 .066 .031000004 .005 .031000004 L 0 0 C .047000003 .002000004 .066 .0029999912 .114 .0029999912 C .157 .0029999912 .18100001 .002000004 .22700002 0 L .23300001 .031000004 C .18200001 .031000004 .16100002 .031000004 .16100002 .056999998 C .16100002 .065 .18400002 .202 .19200002 .244 C .20900002 .21800001 .24400002 .183 .30900003 .183 C .44200004 .183 .577 .301 .577 .446 C .577 .559 .49700005 .63600006 .39300005 .63600006 C .32900004 .63600006 .277 .605 .24400002 .57500007 L .254 .63600006 M .23600002 .513 C .24100001 .54200008 .275 .568 .29000003 .578 C .31100003 .592 .34700004 .60800006 .38400004 .60800006 C .45600004 .60800006 .492 .535 .492 .45900003 C .492 .323 .397 .208 .30400003 .208 C .22400002 .208 .20000002 .284 .20000002 .292 L .202 .306 L .23600002 .513 Z "/>
</symbol>
<symbol id="font_4_17">
<path d="M .607 .34500004 C .637 .40200005 .672 .41000004 .702 .411 C .703 .41900004 .70600005 .43300004 .707 .44200004 C .67300006 .43900005 .653 .43900005 .631 .43900005 C .623 .43900005 .578 .43900005 .541 .44200004 L .535 .41200004 C .539 .41200004 .584 .40900005 .584 .37100003 C .584 .35900004 .582 .35500003 .575 .34200005 L .441 .09 L .38700003 .35600005 C .38400004 .36900003 .38400004 .37100003 .38400004 .37900005 C .38400004 .411 .42600004 .411 .446 .411 C .44800005 .42100004 .44900004 .43200005 .451 .44200004 C .41300003 .44000004 .38500003 .43900005 .34700004 .43900005 C .34600003 .43900005 .28800003 .43900005 .25700004 .44200004 L .25100003 .411 C .27500005 .411 .3 .411 .30900003 .39900003 C .316 .39000003 .32400004 .35300002 .32400004 .34300003 C .32400004 .33900003 .32000003 .33200003 .31900005 .33 L .19700003 .10300001 L .146 .358 C .143 .37100003 .143 .37300004 .143 .37900005 C .143 .411 .18600002 .411 .20600003 .411 L .21100003 .44200004 C .16300002 .44000004 .14200002 .43900005 .101 .43900005 C .06800001 .43900005 .04 .43900005 .0060000049 .44200004 L 0 .411 C .055 .411 .060999998 .40600003 .06800001 .37200005 L .13800001 .024 C .141 .0070000009 .143 0 .15800002 0 C .17000002 0 .17600003 .0070000009 .18200001 .018000002 L .33300004 .30100004 L .38900004 .023000002 C .39200003 .0070000009 .39400003 0 .40800003 0 C .42200003 0 .42600004 .0070000009 .43300007 .020000002 L .607 .34500004 Z "/>
</symbol>
<use xlink:href="#font_4_11" transform="matrix(8.9664,0,0,-8.9664,148.27507,47.120485)"/>
<use xlink:href="#font_4_10" transform="matrix(8.9664,0,0,-8.9664,154.21979,45.47963)"/>
<use xlink:href="#font_4_17" transform="matrix(8.9664,0,0,-8.9664,158.79265,45.47963)"/>
<use xlink:href="#font_4_7" transform="matrix(8.9664,0,0,-8.9664,164.97052,45.47963)"/>
<use xlink:href="#font_4_12" transform="matrix(8.9664,0,0,-8.9664,168.78124,45.381)"/>
<use xlink:href="#font_4_13" transform="matrix(8.9664,0,0,-8.9664,172.42159,45.47963)"/>
<use xlink:href="#font_4_10" transform="matrix(8.9664,0,0,-8.9664,179.37055,45.47963)"/>
<use xlink:href="#font_4_8" transform="matrix(8.9664,0,0,-8.9664,183.75511,45.381)"/>
<symbol id="font_6_1">
<path d="M .462 .41500003 C .425 .40800003 .41400004 .37600003 .41400004 .36100004 C .41400004 .34200005 .42800004 .32500003 .453 .32500003 C .48100005 .32500003 .508 .34900005 .508 .38400004 C .508 .43000005 .45800004 .45300005 .411 .45300005 C .351 .45300005 .316 .40000005 .30400003 .37900005 C .28500004 .42800004 .24100003 .45300005 .193 .45300005 C .086 .45300005 .028 .32500003 .028 .29900003 C .028 .29000003 .035000005 .28700004 .042000005 .28700004 C .051 .28700004 .054000006 .29200004 .056 .298 C .087000008 .397 .15300001 .42800004 .19100002 .42800004 C .22 .42800004 .24600002 .40900005 .24600002 .36200003 C .24600002 .32600004 .20300001 .16600001 .19000001 .11800001 C .18200001 .087000008 .15200001 .025000003 .097 .025000003 C .07700001 .025000003 .056 .032 .046000005 .038000004 C .07300001 .043 .093 .06600001 .093 .092 C .093 .117000009 .074 .128 .055 .128 C .026 .128 0 .10300001 0 .069000009 C 0 .020000002 .054000006 0 .096 0 C .15400002 0 .18800001 .048 .20300001 .075 C .22800002 .009000001 .287 0 .314 0 C .42200003 0 .479 .13000001 .479 .15400002 C .479 .15900001 .47600005 .16600001 .46600003 .16600001 C .455 .16600001 .45400004 .16200002 .44900004 .14700002 C .42700003 .075 .36900003 .025000003 .317 .025000003 C .28800003 .025000003 .261 .043 .261 .091000009 C .261 .113000009 .275 .16800002 .284 .20600002 C .28800003 .22400002 .31500004 .33200003 .317 .33900003 C .32900004 .37500004 .35900004 .42800004 .41000004 .42800004 C .42800004 .42800004 .44700004 .42500005 .462 .41500003 Z "/>
</symbol>
<use xlink:href="#font_6_1" transform="matrix(8.9664,0,0,-8.9664,189.595,45.47963)"/>
<symbol id="font_4_1">
<path d="M .110000018 .061000006 C .110000018 .082 .09400001 .108 .062000008 .108 C .028000005 .108 0 .07700001 0 .047000003 C 0 .026 .016000003 0 .048000009 0 C .082 0 .110000018 .031000002 .110000018 .061000006 Z "/>
</symbol>
<symbol id="font_4_3">
<path d="M .674 .25800003 L .646 .25800003 C .59200009 .10700001 .56500008 .031000002 .38600005 .031000002 L .246 .031000002 C .21300002 .031000002 .202 .034 .202 .052 C .202 .055000005 .202 .065000008 .20300001 .068 L .249 .33800004 L .34100003 .33800004 C .408 .33800004 .43800003 .32500003 .43800003 .272 C .43800003 .26000003 .43400003 .23400001 .43200005 .22100002 L .46000005 .22100002 L .50400009 .48600004 L .476 .48600004 C .462 .39200003 .435 .36900003 .347 .36900003 L .254 .36900003 L .29400004 .61300006 C .29900003 .64400008 .30800004 .64900007 .34900005 .64900007 L .48300005 .64900007 C .623 .64900007 .65200009 .605 .65200009 .497 C .65200009 .485 .65200009 .467 .651 .455 L .679 .455 L .688 .68 L .113000009 .68 L .10800001 .64900007 L .13100001 .64900007 C .19100002 .64900007 .20500002 .643 .20500002 .62 C .20500002 .61700007 .20400001 .614 .202 .601 L .11400001 .07300001 C .109 .041 .10000001 .031000002 .027999998 .031000002 L .004999999 .031000002 C .0029999987 .021000002 .0020000004 .010000001 0 0 L .58800008 0 L .674 .25800003 Z "/>
</symbol>
<symbol id="font_4_d">
<path d="M .264 .694 L .11400001 .683 L .10900001 .652 C .16800002 .652 .179 .646 .179 .619 C .179 .614 .179 .61200007 .17600002 .595 L .089 .072000008 C .082 .031000002 .067 .031000002 .004999999 .031000002 C .0040000008 .023000002 .0009999983 .009000001 0 0 C .046 .002 .066 .003 .113000009 .003 C .16100002 .003 .18600002 .002 .22500001 0 L .23 .031000002 C .18 .031000002 .158 .031000002 .158 .057000005 C .158 .060000004 .15900001 .062000004 .16100002 .07700001 L .264 .694 Z "/>
</symbol>
<symbol id="font_4_15">
<path d="M .44200004 .45300005 L .28900004 .44200004 L .284 .411 C .34300003 .411 .35400004 .40500004 .35400004 .37800003 C .35400004 .37100003 .34800003 .337 .34500004 .316 L .32400004 .19000001 C .30100004 .057000005 .22100002 .025000003 .17200002 .025000003 C .102000009 .025000003 .098 .057000005 .098 .080000009 C .098 .092 .1 .104 .102000009 .116000007 L .15800002 .45300005 L .0050000029 .44200004 L 0 .411 C .059000009 .411 .07 .40500004 .07 .37800003 C .07 .36400003 .037000009 .17500001 .031999999 .14400001 C .028000005 .12200001 .028000005 .120000008 .028000005 .105000007 C .028000005 .029000003 .08100001 0 .16600001 0 C .24400002 0 .28900004 .052 .30800004 .081 L .30900003 .081 L .29500003 0 L .44500006 .011000001 C .44700004 .021000002 .448 .032 .45000006 .042000005 C .38900004 .042000005 .38000003 .049000004 .38000003 .075 C .38000003 .081 .38000003 .083000008 .38300003 .1 L .44200004 .45300005 Z "/>
</symbol>
<use xlink:href="#font_4_1" transform="matrix(8.9664,0,0,-8.9664,195.40979,45.381)"/>
<use xlink:href="#font_4_3" transform="matrix(8.9664,0,0,-8.9664,201.55178,45.381)"/>
<use xlink:href="#font_4_16" transform="matrix(8.9664,0,0,-8.9664,208.25864,45.47963)"/>
<use xlink:href="#font_4_5" transform="matrix(8.9664,0,0,-8.9664,212.34732,45.47963)"/>
<use xlink:href="#font_4_d" transform="matrix(8.9664,0,0,-8.9664,216.75879,45.381)"/>
<use xlink:href="#font_4_15" transform="matrix(8.9664,0,0,-8.9664,219.91497,45.47963)"/>
<use xlink:href="#font_4_5" transform="matrix(8.9664,0,0,-8.9664,224.64026,45.47963)"/>
<use xlink:href="#font_4_14" transform="matrix(8.9664,0,0,-8.9664,229.50005,45.47963)"/>
<use xlink:href="#font_4_b" transform="matrix(8.9664,0,0,-8.9664,232.63829,45.381)"/>
<use xlink:href="#font_4_f" transform="matrix(8.9664,0,0,-8.9664,235.19373,45.381)"/>
<use xlink:href="#font_4_9" transform="matrix(8.9664,0,0,-8.9664,240.1342,47.22808)"/>
<use xlink:href="#font_4_5" transform="matrix(8.9664,0,0,-8.9664,248.195,45.47963)"/>
<use xlink:href="#font_4_14" transform="matrix(8.9664,0,0,-8.9664,253.0548,45.47963)"/>
<use xlink:href="#font_6_1" transform="matrix(8.9664,0,0,-8.9664,150.145,54.85463)"/>
<symbol id="font_5_3">
<path d="M .651 .20400003 C .6650001 .20400003 .6840001 .20400003 .6840001 .22500003 C .6840001 .24700001 .66200008 .24700001 .6470001 .24700001 L .037 .24700001 C .022 .24700001 0 .24700001 0 .22500003 C 0 .20400003 .020000004 .20400003 .033 .20400003 L .651 .20400003 M .6470001 0 C .66200008 0 .6840001 0 .6840001 .022 C .6840001 .042999999 .6650001 .042999999 .651 .042999999 L .033 .042999999 C .020000004 .042999999 0 .042999999 0 .022 C 0 0 .022 0 .037 0 L .6470001 0 Z "/>
</symbol>
<symbol id="font_5_1">
<path d="M .43300004 .34200005 C .43300004 .40900005 .43000005 .49500004 .39500005 .57000008 C .35100005 .66400006 .27500005 .688 .217 .688 C .157 .688 .081 .66400006 .037000006 .568 C .004999999 .49900005 0 .41800005 0 .34200005 C 0 .27700005 .0020000004 .18 .044999999 .101 C .09199999 .016000003 .17 0 .216 0 C .28100003 0 .35500003 .028 .397 .120000008 C .42700003 .187 .43300004 .26200003 .43300004 .34200005 M .217 .025000003 C .187 .025000003 .114999998 .039000006 .096 .15200001 C .085999999 .21100001 .085999999 .29700003 .085999999 .35400004 C .085999999 .42200003 .085999999 .50100007 .098000008 .55600008 C .118 .64500007 .18200001 .66300007 .216 .66300007 C .254 .66300007 .31700004 .64300009 .33600004 .55 C .34700004 .49500004 .34700004 .41700004 .34700004 .35400004 C .34700004 .29200004 .34700004 .208 .337 .149 C .316 .035000005 .242 .025000003 .217 .025000003 Z "/>
</symbol>
<use xlink:href="#font_5_3" transform="matrix(8.9664,0,0,-8.9664,158.17009,53.617269)"/>
<use xlink:href="#font_5_1" transform="matrix(8.9664,0,0,-8.9664,167.73725,54.953264)"/>
<use xlink:href="#font_4_e" transform="matrix(8.9664,0,0,-8.9664,175.37984,54.756)"/>
<use xlink:href="#font_4_5" transform="matrix(8.9664,0,0,-8.9664,183.27027,54.85463)"/>
<use xlink:href="#font_4_c" transform="matrix(8.9664,0,0,-8.9664,187.62795,54.756)"/>
<use xlink:href="#font_4_7" transform="matrix(8.9664,0,0,-8.9664,192.51464,54.85463)"/>
<use xlink:href="#font_4_13" transform="matrix(8.9664,0,0,-8.9664,196.3612,54.85463)"/>
<use xlink:href="#font_4_14" transform="matrix(8.9664,0,0,-8.9664,203.53432,54.85463)"/>
<use xlink:href="#font_4_a" transform="matrix(8.9664,0,0,-8.9664,206.6636,54.756)"/>
<use xlink:href="#font_4_7" transform="matrix(8.9664,0,0,-8.9664,212.02552,54.85463)"/>
<use xlink:href="#font_4_e" transform="matrix(8.9664,0,0,-8.9664,215.88106,54.756)"/>
<use xlink:href="#font_4_16" transform="matrix(8.9664,0,0,-8.9664,227.09803,54.85463)"/>
<use xlink:href="#font_4_5" transform="matrix(8.9664,0,0,-8.9664,231.1867,54.85463)"/>
<use xlink:href="#font_4_f" transform="matrix(8.9664,0,0,-8.9664,235.58922,54.756)"/>
<use xlink:href="#font_4_b" transform="matrix(8.9664,0,0,-8.9664,240.71799,54.756)"/>
<use xlink:href="#font_4_13" transform="matrix(8.9664,0,0,-8.9664,243.26445,54.85463)"/>
<use xlink:href="#font_4_a" transform="matrix(8.9664,0,0,-8.9664,246.90482,54.756)"/>
<use xlink:href="#font_4_1" transform="matrix(8.9664,0,0,-8.9664,252.57158,54.756)"/>
</svg>
