<?xml version="1.0" encoding="UTF-8" standalone="no"?>
<!DOCTYPE svg PUBLIC "-//W3C//DTD SVG 1.1//EN" "http://www.w3.org/Graphics/SVG/1.1/DTD/svg11.dtd">
<svg xmlns="http://www.w3.org/2000/svg" xmlns:xlink="http://www.w3.org/1999/xlink" version="1.1" width="372.497pt" height="50.246pt" viewBox="0 0 372.497 50.246">
<symbol id="font_0_4">
<path d="M .07700001 .072 C .069000009 .038000004 .067 .031000004 .023000002 .031000004 C .011 .031000004 0 .031000004 0 .0119999949 C 0 .003999993 .005000001 0 .013 0 C .040000004 0 .069000009 .0029999912 .097 .0029999912 C .13000001 .0029999912 .164 0 .19600001 0 C .20100002 0 .21400002 0 .21400002 .019999996 C .21400002 .031000004 .20400001 .031000004 .19000001 .031000004 C .14 .031000004 .14 .038000004 .14 .047000007 C .14 .059 .18200001 .222 .18900001 .24700001 C .202 .21800001 .23000002 .183 .28100003 .183 C .397 .183 .522 .329 .522 .476 C .522 .57000008 .46500004 .63600006 .38900004 .63600006 C .33900003 .63600006 .291 .6 .25800003 .561 C .24800001 .615 .20500002 .63600006 .16800002 .63600006 C .12200001 .63600006 .103 .597 .094000007 .579 C .076000008 .545 .063 .485 .063 .48200003 C .063 .47200004 .073 .47200004 .075 .47200004 C .08500001 .47200004 .086 .47300003 .09200001 .49500004 C .10900001 .566 .12900001 .614 .165 .614 C .18200001 .614 .19600001 .60600009 .19600001 .568 C .19600001 .545 .19300002 .53400006 .18900001 .517 L .07700001 .072 M .25300003 .50600007 C .26000003 .533 .28700004 .561 .305 .57600006 C .34000004 .607 .36900003 .614 .386 .614 C .42600004 .614 .45000003 .579 .45000003 .52 C .45000003 .46100004 .41700004 .34600003 .39900003 .30800004 C .365 .238 .31700004 .20500002 .28 .20500002 C .21400002 .20500002 .20100002 .28800003 .20100002 .294 C .20100002 .296 .20100002 .298 .20400001 .31 L .25300003 .50600007 Z "/>
</symbol>
<use xlink:href="#font_0_4" transform="matrix(9.9626,0,0,-9.9626,3.0021959,14.209741)"/>
<symbol id="font_1_2">
<path d="M .075 .073 C .07100001 .060000004 .065 .035 .065 .032 C .065 .010000001 .083000008 0 .09900001 0 C .117 0 .133 .013 .138 .022 C .143 .031000004 .15100001 .063 .156 .084 C .161 .103 .172 .14900002 .178 .17400001 C .184 .19600001 .19000001 .21800001 .19500001 .24100001 C .20600002 .282 .20800002 .29 .237 .331 C .26500003 .37100003 .31200005 .423 .38700003 .423 C .44500003 .423 .44600005 .372 .44600005 .35300002 C .44600005 .293 .40300004 .18200001 .38700003 .14000002 C .37600003 .112 .37200005 .103 .37200005 .086 C .37200005 .033000005 .41600005 0 .467 0 C .56700006 0 .61100009 .13800001 .61100009 .15300001 C .61100009 .16600001 .59800007 .16600001 .595 .16600001 C .58100005 .16600001 .58000007 .16000001 .57600006 .14900002 C .55300006 .069000009 .51000007 .028 .47000004 .028 C .44900004 .028 .44500003 .042000005 .44500003 .063 C .44500003 .086 .45000003 .099 .46800006 .14400001 C .48000003 .17500001 .521 .28100003 .521 .337 C .521 .43400003 .44400005 .451 .39100004 .451 C .30800004 .451 .25200004 .4 .22200002 .36 C .21500002 .42900003 .156 .451 .114999998 .451 C .072 .451 .049 .42000003 .036000004 .397 C .014000002 .36 0 .303 0 .298 C 0 .285 .014000002 .285 .017 .285 C .031 .285 .032 .28800003 .039 .315 C .054 .374 .073 .423 .112 .423 C .138 .423 .145 .40100003 .145 .374 C .145 .35500003 .136 .31800003 .12900001 .291 C .12200001 .264 .112 .22300002 .10700001 .20100002 L .075 .073 Z "/>
</symbol>
<use xlink:href="#font_1_2" transform="matrix(6.9738,0,0,-6.9738,8.660768,13.841734)"/>
<symbol id="font_2_1">
<path d="M .23200003 .00999999 C .23200003 .012999982 .23200003 .014999986 .215 .03199999 C .09 .15799999 .058 .347 .058 .5 C .058 .674 .096 .84800007 .21900001 .97300007 C .23200003 .985 .23200003 .98700007 .23200003 .99 C .23200003 .99700006 .22800002 1 .222 1 C .21200001 1 .12200001 .93200007 .06299999 .805 C .012000002 .69500008 0 .584 0 .5 C 0 .422 .011 .301 .066 .188 C .126 .065 .21200001 0 .222 0 C .22800002 0 .23200003 .0029999912 .23200003 .00999999 Z "/>
</symbol>
<use xlink:href="#font_2_1" transform="matrix(9.9626,0,0,-9.9626,14.742297,14.767647)"/>
<symbol id="font_0_5">
<path d="M .305 .31300003 C .311 .33900003 .334 .43100003 .404 .43100003 C .409 .43100003 .433 .43100003 .454 .418 C .426 .41300003 .40600003 .388 .40600003 .36400003 C .40600003 .34800003 .417 .32900004 .444 .32900004 C .46600003 .32900004 .498 .34700004 .498 .38700003 C .498 .43900005 .439 .45300005 .405 .45300005 C .347 .45300005 .312 .40000005 .3 .37700004 C .275 .44300003 .221 .45300005 .19200002 .45300005 C .08800001 .45300005 .031000002 .32400004 .031000002 .29900003 C .031000002 .28900004 .041 .28900004 .043000007 .28900004 C .051000008 .28900004 .054000006 .291 .056 .3 C .09 .40600003 .156 .43100003 .19000001 .43100003 C .209 .43100003 .244 .42200003 .244 .36400003 C .244 .33300004 .22700002 .26600004 .19000001 .126 C .17400001 .064 .13900002 .022000002 .095000009 .022000002 C .08900001 .022000002 .06600001 .022000002 .045 .035 C .07000001 .040000004 .09200001 .061 .09200001 .089 C .09200001 .116000007 .07000001 .124000009 .055000009 .124000009 C .025 .124000009 0 .098000008 0 .06600001 C 0 .020000002 .050000006 0 .094000007 0 C .16000001 0 .19600001 .07000001 .19900002 .076000008 C .21100001 .039 .24700003 0 .307 0 C .41 0 .467 .12900001 .467 .15400002 C .467 .16400002 .458 .16400002 .455 .16400002 C .446 .16400002 .444 .16000001 .442 .15300001 C .409 .046 .341 .022000002 .30900003 .022000002 C .27 .022000002 .254 .054 .254 .08800001 C .254 .11000001 .26 .13200002 .271 .17600002 L .305 .31300003 Z "/>
</symbol>
<use xlink:href="#font_0_5" transform="matrix(9.9626,0,0,-9.9626,17.918917,12.386585)"/>
<symbol id="font_2_2">
<path d="M .232 .5 C .232 .578 .22100002 .699 .16600001 .81200006 C .106 .93500009 .020000004 1 .009999998 1 C .0040000008 1 0 .99600008 0 .99 C 0 .98700007 0 .985 .019000002 .967 C .117000009 .86800006 .174 .709 .174 .5 C .174 .329 .137 .153 .012999997 .026999996 C 0 .014999986 0 .012999982 0 .00999999 C 0 .003999993 .0040000008 0 .009999998 0 C .020000004 0 .11000001 .06799999 .169 .195 C .22 .305 .232 .416 .232 .5 Z "/>
</symbol>
<symbol id="font_2_4">
<path d="M .63100007 .19400002 C .646 .19400002 .665 .19400002 .665 .214 C .665 .23400001 .646 .23400001 .632 .23400001 L .033 .23400001 C .019000002 .23400001 0 .23400001 0 .214 C 0 .19400002 .019000002 .19400002 .034 .19400002 L .63100007 .19400002 M .632 0 C .646 0 .665 0 .665 .02000001 C .665 .040000008 .646 .040000008 .63100007 .040000008 L .034 .040000008 C .019000002 .040000008 0 .040000008 0 .02000001 C 0 0 .019000002 0 .033 0 L .632 0 Z "/>
</symbol>
<use xlink:href="#font_2_2" transform="matrix(9.9626,0,0,-9.9626,23.891869,14.767647)"/>
<use xlink:href="#font_2_4" transform="matrix(9.9626,0,0,-9.9626,30.52696,10.951971)"/>
<symbol id="font_0_2">
<path d="M .33300004 .38900004 C .31500004 .42600004 .286 .45300005 .24100001 .45300005 C .124 .45300005 0 .30600003 0 .16000001 C 0 .06600001 .055000005 0 .133 0 C .153 0 .20300001 .0040000008 .263 .075 C .27100004 .033000005 .30600003 0 .35400004 0 C .38900004 0 .41200004 .023000002 .42800004 .055000005 C .44500003 .091000009 .45800004 .15200001 .45800004 .15400002 C .45800004 .16400002 .44900004 .16400002 .44600005 .16400002 C .43600003 .16400002 .43500004 .16000001 .43200005 .14600002 C .41500003 .081 .397 .022000002 .35600005 .022000002 C .32900004 .022000002 .32600004 .048 .32600004 .068 C .32600004 .09 .32800005 .098000008 .33900003 .14200002 C .35000003 .18400002 .35200004 .19400002 .36100004 .23200003 L .397 .37200005 C .40400005 .40000005 .40400005 .40200005 .40400005 .40600003 C .40400005 .42300005 .39200003 .43300004 .37500004 .43300004 C .35100005 .43300004 .33600004 .411 .33300004 .38900004 M .26800005 .13000001 C .263 .112 .263 .11000001 .24800001 .093 C .20400001 .038000004 .163 .022000002 .135 .022000002 C .08499999 .022000002 .07100001 .077 .07100001 .116000007 C .07100001 .16600001 .103 .28900004 .126 .335 C .157 .39400003 .202 .43100003 .242 .43100003 C .307 .43100003 .32100005 .34900005 .32100005 .34300003 C .32100005 .337 .31900005 .33100004 .31800003 .32600004 L .26800005 .13000001 Z "/>
</symbol>
<use xlink:href="#font_0_2" transform="matrix(9.9626,0,0,-9.9626,40.880506,12.386585)"/>
<symbol id="font_3_2">
<path d="M .46400006 .33900003 C .46400006 .44900004 .45100004 .528 .40500004 .598 C .374 .644 .31200005 .684 .23200001 .684 C 0 .684 0 .41100005 0 .33900003 C 0 .26700003 0 0 .23200001 0 C .46400006 0 .46400006 .26700003 .46400006 .33900003 M .23200001 .028 C .186 .028 .125 .055 .105000007 .13700001 C .091000009 .19600001 .091000009 .27800004 .091000009 .35200004 C .091000009 .42500005 .091000009 .50100007 .106000009 .556 C .127 .635 .19100002 .656 .23200001 .656 C .286 .656 .338 .623 .356 .565 C .37200005 .51100006 .37300004 .43900005 .37300004 .35200004 C .37300004 .27800004 .37300004 .20400001 .36 .141 C .34000004 .050000006 .272 .028 .23200001 .028 Z "/>
</symbol>
<use xlink:href="#font_3_2" transform="matrix(6.9738,0,0,-6.9738,46.110639,13.911471)"/>
<symbol id="font_2_3">
<path d="M .35300002 .31300003 L .632 .31300003 C .646 .31300003 .665 .31300003 .665 .333 C .665 .35300002 .646 .35300002 .632 .35300002 L .35300002 .35300002 L .35300002 .633 C .35300002 .647 .35300002 .666 .33300004 .666 C .31300003 .666 .31300003 .647 .31300003 .633 L .31300003 .35300002 L .033 .35300002 C .019000002 .35300002 0 .35300002 0 .333 C 0 .31300003 .019000002 .31300003 .033 .31300003 L .31300003 .31300003 L .31300003 .033000005 C .31300003 .019000002 .31300003 0 .33300004 0 C .35300002 0 .35300002 .019000002 .35300002 .033000005 L .35300002 .31300003 Z "/>
</symbol>
<use xlink:href="#font_2_3" transform="matrix(9.9626,0,0,-9.9626,52.988908,13.103892)"/>
<symbol id="font_0_1">
<path d="M .106 .053000004 C .106 .082 .08200001 .106000009 .05300001 .106000009 C .024000004 .106000009 0 .082 0 .053000004 C 0 .024 .024000004 0 .05300001 0 C .08200001 0 .106 .024 .106 .053000004 Z "/>
</symbol>
<use xlink:href="#font_0_1" transform="matrix(9.9626,0,0,-9.9626,63.250787,12.276997)"/>
<use xlink:href="#font_0_1" transform="matrix(9.9626,0,0,-9.9626,67.68414,12.276997)"/>
<use xlink:href="#font_0_1" transform="matrix(9.9626,0,0,-9.9626,72.10754,12.276997)"/>
<use xlink:href="#font_2_3" transform="matrix(9.9626,0,0,-9.9626,76.78891,13.103892)"/>
<use xlink:href="#font_0_2" transform="matrix(9.9626,0,0,-9.9626,86.59251,12.386585)"/>
<symbol id="font_1_1">
<path d="M .23800002 .674 C .23900001 .676 .242 .689 .242 .69 C .242 .69500008 .23800002 .704 .22600003 .704 C .20600002 .704 .12300001 .69600006 .098000008 .694 C .09 .693 .076000008 .69200006 .076000008 .671 C .076000008 .657 .09 .657 .102 .657 C .15 .657 .15 .65000006 .15 .642 C .15 .635 .148 .629 .14600002 .62 L .0050000029 .054000006 C 0 .036000004 0 .034 0 .032 C 0 .017 .012000002 0 .034 0 C .061000006 0 .074 .020000002 .08 .042000005 C .082 .046000005 .125 .22200002 .12900001 .23600002 C .2 .22900002 .25700004 .20600002 .25700004 .15400002 C .25700004 .14900002 .25700004 .14400001 .255 .134 C .251 .119 .251 .114 .251 .103 C .251 .032 .30900003 0 .357 0 C .45400007 0 .48400004 .15200001 .48400004 .15300001 C .48400004 .16600001 .47100003 .16600001 .46800006 .16600001 C .45400007 .16600001 .453 .16100002 .448 .142 C .43600006 .099 .40900005 .028 .36 .028 C .333 .028 .325 .053000004 .325 .08 C .325 .097 .325 .099 .33100004 .125 C .33200003 .128 .33600004 .14500001 .33600004 .15600002 C .33600004 .24500002 .216 .259 .17400001 .262 C .20300003 .28 .24000003 .313 .25700004 .328 C .30800004 .37600003 .35800005 .423 .41400004 .423 C .42600007 .423 .439 .42000003 .44700004 .41 C .40400005 .403 .39500005 .36900003 .39500005 .354 C .39500005 .33200003 .412 .317 .43500007 .317 C .462 .317 .49200005 .33900003 .49200005 .381 C .49200005 .414 .46800006 .451 .41500003 .451 C .35800005 .451 .306 .41 .255 .363 C .21300002 .323 .18000002 .292 .13900002 .275 L .23800002 .674 Z "/>
</symbol>
<use xlink:href="#font_1_1" transform="matrix(6.9738,0,0,-6.9738,91.98303,13.841734)"/>
<symbol id="font_4_1">
<path d="M .63600006 0 C .65200009 0 .67600008 0 .67600008 .023999989 C .67600008 .048999996 .65300008 .048999996 .63600006 .048999996 L .04 .048999996 C .023999997 .048999996 0 .048999996 0 .025000006 C 0 0 .02300001 0 .04 0 L .63600006 0 Z "/>
</symbol>
<use xlink:href="#font_4_1" transform="matrix(6.9738,0,0,-6.9738,96.61617,12.195917)"/>
<symbol id="font_3_3">
<path d="M .22600001 .63600006 C .22600001 .66300007 .224 .66400006 .19600001 .66400006 C .132 .601 .041 .6 0 .6 L 0 .564 C .023999997 .564 .09000001 .564 .14500001 .592 L .14500001 .082 C .14500001 .049000004 .14500001 .036000004 .04500001 .036000004 L .0069999995 .036000004 L .0069999995 0 C .024999999 .001 .148 .004 .185 .004 C .21600002 .004 .34200005 .001 .36400003 0 L .36400003 .036000004 L .32600004 .036000004 C .22600001 .036000004 .22600001 .049000004 .22600001 .082 L .22600001 .63600006 Z "/>
</symbol>
<use xlink:href="#font_3_3" transform="matrix(6.9738,0,0,-6.9738,102.85014,13.771996)"/>
<use xlink:href="#font_0_5" transform="matrix(9.9626,0,0,-9.9626,106.847919,12.386585)"/>
<use xlink:href="#font_1_1" transform="matrix(6.9738,0,0,-6.9738,112.77603,8.233736)"/>
<use xlink:href="#font_4_1" transform="matrix(6.9738,0,0,-6.9738,117.41017,6.5879189)"/>
<use xlink:href="#font_3_3" transform="matrix(6.9738,0,0,-6.9738,123.64414,8.163998)"/>
<symbol id="font_5_3">
<path d="M .484 .09200001 C .484 .115 .484 .120000008 .47 .120000008 C .409 .12100001 .31 .12900001 .22000002 .17300001 C .112 .22700002 .071 .29000003 .046000005 .32900004 C .043 .33400003 .037 .33400003 .024 .33400003 C .0009999983 .33400003 0 .333 0 .30800004 L 0 .29200004 C .136 .047000003 .361 0 .463 0 C .484 0 .484 .001 .484 .028 L .484 .09200001 Z "/>
</symbol>
<use xlink:href="#font_5_3" transform="matrix(9.9626,0,0,-9.9626,40.242895,18.785998)"/>
<path transform="matrix(1,0,0,-1,44.965,18.786)" d="M 0 0 L 34.469 0 L 34.469 1.195 L 0 1.195 Z "/>
<symbol id="font_5_2">
<path d="M .48400004 .04200001 C .34800003 .28700004 .123 .33400003 .021000002 .33400003 C 0 .33400003 0 .333 0 .30600003 L 0 .24200002 C 0 .21900001 0 .21400002 .014 .21400002 C .075 .21300002 .17400001 .20500002 .264 .16100002 C .372 .10700001 .41300003 .044000016 .43800003 .00500001 C .441 0 .447 0 .46 0 C .483 0 .48400004 .001000002 .48400004 .026000008 L .48400004 .04200001 Z "/>
</symbol>
<symbol id="font_5_1">
<path d="M .484 .30600003 C .484 .333 .484 .33400003 .463 .33400003 C .361 .33400003 .136 .286 0 .04200001 L 0 .026000008 C 0 .001000002 .0009999983 0 .024 0 C .043 0 .044 .001000002 .049000004 .008000001 C .13100001 .13900002 .269 .21000003 .472 .21400002 C .484 .21400002 .484 .22100002 .484 .24200002 L .484 .30600003 Z "/>
</symbol>
<use xlink:href="#font_5_2" transform="matrix(9.9626,0,0,-9.9626,79.33437,20.917996)"/>
<use xlink:href="#font_5_1" transform="matrix(9.9626,0,0,-9.9626,83.67806,20.917996)"/>
<path transform="matrix(1,0,0,-1,88.401,18.786)" d="M 0 0 L 34.469 0 L 34.469 1.195 L 0 1.195 Z "/>
<symbol id="font_5_4">
<path d="M .48400004 .30800004 C .48400004 .333 .483 .33400003 .46 .33400003 C .441 .33400003 .44 .333 .435 .326 C .35300002 .19500001 .21500002 .124000009 .012000001 .120000008 C 0 .120000008 0 .113000009 0 .09200001 L 0 .028 C 0 .001 0 0 .021000002 0 C .123 0 .34800003 .048 .48400004 .29200004 L .48400004 .30800004 Z "/>
</symbol>
<use xlink:href="#font_5_4" transform="matrix(9.9626,0,0,-9.9626,122.77038,18.786)"/>
<use xlink:href="#font_2_3" transform="matrix(9.9626,0,0,-9.9626,129.5709,13.103896)"/>
<use xlink:href="#font_0_2" transform="matrix(9.9626,0,0,-9.9626,137.16049,12.386589)"/>
<use xlink:href="#font_1_1" transform="matrix(6.9738,0,0,-6.9738,142.55104,13.841738)"/>
<use xlink:href="#font_2_1" transform="matrix(9.9626,0,0,-9.9626,147.91629,14.767651)"/>
<use xlink:href="#font_0_5" transform="matrix(9.9626,0,0,-9.9626,151.0929,12.386589)"/>
<symbol id="font_6_1">
<path d="M .57600006 0 C .59300008 0 .611 0 .611 .019999996 C .611 .040000008 .59300008 .040000008 .57600006 .040000008 L .035000005 .040000008 C .018 .040000008 0 .040000008 0 .019999996 C 0 0 .018 0 .035000005 0 L .57600006 0 Z "/>
</symbol>
<use xlink:href="#font_6_1" transform="matrix(9.9626,0,0,-9.9626,159.53888,9.985602)"/>
<symbol id="font_0_3">
<path d="M .35500003 .39100004 C .33900003 .39100004 .32500003 .39100004 .31100003 .37700004 C .29500003 .36200003 .293 .34500004 .293 .33800004 C .293 .314 .31100003 .30300004 .33 .30300004 C .359 .30300004 .386 .32700003 .386 .367 C .386 .41600005 .33900003 .45300005 .268 .45300005 C .13300002 .45300005 0 .31000004 0 .16900002 C 0 .079 .058000007 0 .162 0 C .305 0 .389 .106000009 .389 .11800001 C .389 .124000009 .38300003 .13100001 .377 .13100001 C .372 .13100001 .37 .12900001 .36400003 .12100001 C .285 .022000002 .176 .022000002 .164 .022000002 C .101 .022000002 .074 .071 .074 .13100001 C .074 .17200002 .094000007 .26900003 .12800002 .33100004 C .15900001 .388 .21400002 .43100003 .269 .43100003 C .303 .43100003 .34100003 .418 .35500003 .39100004 Z "/>
</symbol>
<use xlink:href="#font_0_3" transform="matrix(9.9626,0,0,-9.9626,169.08345,12.386589)"/>
<use xlink:href="#font_2_2" transform="matrix(9.9626,0,0,-9.9626,173.55387,14.767651)"/>
<use xlink:href="#font_1_1" transform="matrix(6.9738,0,0,-6.9738,177.38404,8.23374)"/>
<use xlink:href="#font_2_3" transform="matrix(9.9626,0,0,-9.9626,184.5339,13.103896)"/>
<use xlink:href="#font_0_2" transform="matrix(9.9626,0,0,-9.9626,194.3375,12.386589)"/>
<use xlink:href="#font_1_1" transform="matrix(6.9738,0,0,-6.9738,199.72805,13.841738)"/>
<symbol id="font_3_1">
<path d="M .39300005 .344 L .69900009 .344 C .7120001 .344 .73600009 .344 .73600009 .368 C .73600009 .393 .71300008 .393 .69900009 .393 L .39300005 .393 L .39300005 .70000007 C .39300005 .71300008 .39300005 .73700007 .36900003 .73700007 C .34400005 .73700007 .34400005 .71400007 .34400005 .70000007 L .34400005 .393 L .037000009 .393 C .024000004 .393 0 .393 0 .36900003 C 0 .344 .023000002 .344 .037000009 .344 L .34400005 .344 L .34400005 .037000009 C .34400005 .024000004 .34400005 0 .36800004 0 C .39300005 0 .39300005 .023000002 .39300005 .037000009 L .39300005 .344 Z "/>
</symbol>
<use xlink:href="#font_3_1" transform="matrix(6.9738,0,0,-6.9738,204.09717,14.594908)"/>
<use xlink:href="#font_3_3" transform="matrix(6.9738,0,0,-6.9738,210.48519,13.771999)"/>
<use xlink:href="#font_2_1" transform="matrix(9.9626,0,0,-9.9626,215.18032,14.767651)"/>
<use xlink:href="#font_0_5" transform="matrix(9.9626,0,0,-9.9626,218.35692,12.386589)"/>
<use xlink:href="#font_6_1" transform="matrix(9.9626,0,0,-9.9626,226.8029,9.985602)"/>
<use xlink:href="#font_0_3" transform="matrix(9.9626,0,0,-9.9626,236.34748,12.386589)"/>
<use xlink:href="#font_2_2" transform="matrix(9.9626,0,0,-9.9626,240.81789,14.767651)"/>
<use xlink:href="#font_1_1" transform="matrix(6.9738,0,0,-6.9738,244.64705,8.23374)"/>
<use xlink:href="#font_3_1" transform="matrix(6.9738,0,0,-6.9738,249.01618,8.98691)"/>
<use xlink:href="#font_3_3" transform="matrix(6.9738,0,0,-6.9738,255.40419,8.164001)"/>
<use xlink:href="#font_2_3" transform="matrix(9.9626,0,0,-9.9626,261.88493,13.103896)"/>
<use xlink:href="#font_0_1" transform="matrix(9.9626,0,0,-9.9626,272.14683,12.277)"/>
<use xlink:href="#font_0_1" transform="matrix(9.9626,0,0,-9.9626,276.58018,12.277)"/>
<use xlink:href="#font_0_1" transform="matrix(9.9626,0,0,-9.9626,281.00355,12.277)"/>
<use xlink:href="#font_2_3" transform="matrix(9.9626,0,0,-9.9626,285.68495,13.103896)"/>
<use xlink:href="#font_0_2" transform="matrix(9.9626,0,0,-9.9626,295.48756,12.386589)"/>
<use xlink:href="#font_1_2" transform="matrix(6.9738,0,0,-6.9738,300.6838,13.841738)"/>
<use xlink:href="#font_2_1" transform="matrix(9.9626,0,0,-9.9626,306.76536,14.767651)"/>
<use xlink:href="#font_0_5" transform="matrix(9.9626,0,0,-9.9626,309.94197,12.386589)"/>
<use xlink:href="#font_6_1" transform="matrix(9.9626,0,0,-9.9626,318.38795,9.985602)"/>
<use xlink:href="#font_0_3" transform="matrix(9.9626,0,0,-9.9626,327.93153,12.386589)"/>
<use xlink:href="#font_2_2" transform="matrix(9.9626,0,0,-9.9626,332.40293,14.767651)"/>
<use xlink:href="#font_1_2" transform="matrix(6.9738,0,0,-6.9738,336.0368,8.23374)"/>
<use xlink:href="#font_5_3" transform="matrix(9.9626,0,0,-9.9626,193.69994,18.952002)"/>
<path transform="matrix(1,0,0,-1,198.422,18.951998)" d="M 0 0 L 64.63 0 L 64.63 1.195 L 0 1.195 Z "/>
<use xlink:href="#font_5_2" transform="matrix(9.9626,0,0,-9.9626,262.95237,21.083994)"/>
<use xlink:href="#font_5_1" transform="matrix(9.9626,0,0,-9.9626,267.29609,21.083994)"/>
<path transform="matrix(1,0,0,-1,272.019,18.951998)" d="M 0 0 L 64.63 0 L 64.63 1.195 L 0 1.195 Z "/>
<use xlink:href="#font_5_4" transform="matrix(9.9626,0,0,-9.9626,336.54936,18.951998)"/>
<symbol id="font_7_5">
<path d="M .40500004 .60700008 C .40900005 .634 .416 .64000007 .42900003 .643 C .439 .646 .46700008 .646 .48700006 .646 C .61500009 .646 .64300009 .625 .64300009 .52500006 C .64300009 .49400003 .64100006 .47300003 .63900008 .45200003 L .66700008 .45200003 L .68500009 .67700007 L .058 .67700007 L 0 .45200003 L .027999998 .45200003 C .07000001 .61300006 .09 .646 .24500002 .646 C .26100005 .646 .286 .646 .292 .64500007 C .311 .643 .31700004 .64000007 .31700004 .624 C .31700004 .62 .31700004 .61800006 .314 .601 L .22700002 .076000008 C .221 .040000004 .20600002 .031000002 .11400001 .031000002 L .075 .031000002 L .07000001 0 C .106000009 .003 .216 .003 .259 .003 C .30200006 .003 .41200007 .003 .448 0 C .44900007 .008 .45200003 .022000002 .453 .031000002 L .41400004 .031000002 C .35800005 .031000002 .315 .031000002 .315 .063 C .315 .065000008 .31600005 .071 .31700004 .076000008 L .40500004 .60700008 Z "/>
</symbol>
<symbol id="font_7_b">
<path d="M .48600004 .30600003 C .488 .316 .48900006 .324 .48900006 .33900003 C .48900006 .41300003 .441 .44200004 .36800004 .44200004 C .277 .44200004 .22300002 .37600003 .20800002 .354 L .20700002 .354 L .26400004 .694 L .11400001 .683 L .10900001 .652 C .16800002 .652 .17900002 .646 .17900002 .619 C .17900002 .614 .17900002 .61200007 .17600002 .595 L .089 .072000008 C .082 .031000002 .067 .031000002 .0050000029 .031000002 C .0040000008 .023000002 .001000002 .009000001 0 0 C .046 .002 .069000009 .003 .11400001 .003 C .16200002 .003 .17500001 .002 .22800002 0 L .23300001 .031000002 C .18300002 .031000002 .16100002 .031000002 .16100002 .057000005 C .16100002 .060000004 .16800002 .098000008 .17100002 .11800001 C .17400001 .13800001 .18500002 .20400001 .19300002 .25 C .21600002 .386 .31700004 .41700004 .36 .41700004 C .397 .41700004 .41700004 .39900003 .41700004 .35200004 C .41700004 .337 .40900005 .28800003 .40300004 .256 C .39800004 .22600001 .37600003 .087000008 .37300004 .07 C .36600004 .031000002 .351 .031000002 .289 .031000002 C .28800003 .023000002 .28500004 .009000001 .284 0 C .33 .002 .35300002 .003 .39800004 .003 C .44600005 .003 .45900003 .002 .512 0 L .517 .031000002 C .46700005 .031000002 .44500003 .031000002 .44500003 .057000005 C .44500003 .060000004 .44500003 .061000006 .448 .07700001 L .48600004 .30600003 Z "/>
</symbol>
<symbol id="font_7_8">
<path d="M .37800003 .24000003 C .402 .24000003 .41000004 .24000003 .41000004 .30300004 C .41000004 .41700004 .33400003 .45900003 .254 .45900003 C .117 .45900003 0 .32700003 0 .19400002 C 0 .081 .08499999 0 .194 0 C .32000003 0 .38500003 .113000009 .38500003 .13000001 C .38500003 .13700001 .38000003 .143 .37100003 .143 C .36200003 .143 .36 .13800001 .356 .13100001 C .317 .053000004 .245 .028 .20000002 .028 C .14500001 .028 .083000008 .065000008 .083000008 .16500002 C .083000008 .18500002 .087 .22000002 .091000009 .24000003 L .37800003 .24000003 M .096 .26400004 C .128 .404 .213 .43400003 .25300003 .43400003 C .32700003 .43400003 .344 .367 .344 .31700004 C .344 .291 .33900003 .26500003 .33900003 .26400004 L .096 .26400004 Z "/>
</symbol>
<symbol id="font_7_14">
<path d="M .381 .43400003 C .38300003 .44300003 .38300003 .44500003 .38300003 .44700004 C .38300003 .45100004 .38000003 .45900003 .37 .45900003 C .36400003 .45900003 .343 .44200004 .33 .43100003 C .296 .45900003 .252 .45900003 .238 .45900003 C .092 .45900003 .053000004 .37000004 .053000004 .32000003 C .053000004 .23500002 .15 .21600002 .18 .21100001 C .24599999 .19800002 .303 .18700002 .303 .127 C .303 .126 .303 .025000003 .17000002 .025000003 C .095000009 .025000003 .061000006 .071 .055 .15600002 C .054000006 .17400001 .053000004 .18000002 .04 .18000002 C .030000002 .18000002 .027000003 .17600002 .024 .15900001 L 0 .013000001 C 0 .0060000007 .0040000008 0 .012000002 0 C .018 0 .019000002 .0010000002 .039000006 .021000002 C .045 .026 .059 .039 .064 .044 C .09600001 .0060000007 .137 0 .17000002 0 C .323 0 .359 .108 .359 .158 C .359 .19300002 .347 .21800003 .321 .24200002 C .294 .26900003 .259 .275 .20700002 .28500004 C .16600001 .293 .109000008 .30400003 .109000008 .35200004 C .109000008 .381 .13300002 .43700005 .238 .43700005 C .308 .43700005 .336 .40100003 .336 .34900005 C .336 .335 .33400003 .32900004 .33400003 .32400004 C .33400003 .31200005 .343 .31100003 .34800003 .31100003 C .361 .31100003 .36200003 .31900005 .36400003 .33200003 L .381 .43400003 Z "/>
</symbol>
<symbol id="font_7_15">
<path d="M .16100002 .411 L .30600003 .411 C .30800004 .42100004 .30900003 .43200005 .31100003 .44200004 L .16600001 .44200004 L .19600001 .626 L .16800002 .626 C .15400002 .541 .1 .43900005 .0040000008 .43600003 C .002000004 .42600004 .001000002 .42000003 0 .411 L .086 .411 L .041 .13900002 C .038000004 .12100001 .038000004 .117000009 .038000004 .106000009 C .038000004 .016 .11100001 0 .15400002 0 C .20400003 0 .23300001 .033000005 .24900002 .058000003 C .27 .092 .272 .106000009 .286 .19200002 L .25800003 .19200002 C .24700001 .126 .24500004 .11000001 .23400003 .086 C .21600002 .049000004 .19000003 .028 .162 .028 C .11100001 .028 .11100001 .082 .11100001 .095000009 C .11100001 .10300001 .11100001 .111 .114 .12900001 L .16100002 .411 Z "/>
</symbol>
<symbol id="font_7_13">
<path d="M .17400001 .157 C .19000001 .254 .19600001 .287 .222 .33200003 C .24900002 .379 .286 .41700004 .34100003 .41700004 L .34100003 .416 C .33900003 .41500003 .31800003 .40100003 .31800003 .37300004 C .31800003 .344 .34100003 .335 .35700003 .335 C .38300003 .335 .407 .35700003 .407 .386 C .407 .41400004 .38400004 .44200004 .33900003 .44200004 C .264 .44200004 .21700001 .37300004 .2 .342 L .216 .44200004 L .072000008 .43100003 L .067 .4 C .126 .4 .13700001 .39400003 .13700001 .367 C .13700001 .36200003 .13700001 .36 .134 .34300003 L .089 .072000008 C .082 .031000002 .067 .031000002 .004999999 .031000002 C .0040000008 .023000002 .0010000002 .009000001 0 0 C .050000006 .002 .066 .003 .117 .003 C .164 .003 .186 .002 .245 0 L .25 .031000002 L .229 .031000002 C .163 .031000002 .15900001 .041 .15900001 .060000004 C .15900001 .066 .163 .089 .165 .10300001 L .17400001 .157 Z "/>
</symbol>
<symbol id="font_7_f">
<path d="M .772 .30600003 C .774 .316 .77500006 .324 .77500006 .33900003 C .77500006 .41500003 .725 .44200004 .653 .44200004 C .555 .44200004 .5 .36400003 .49000005 .34800003 C .48600004 .43400003 .40900005 .44200004 .36800004 .44200004 C .27100004 .44200004 .21700001 .367 .20400001 .347 L .20300001 .347 L .21900001 .44200004 L .07200001 .43100003 L .067 .4 C .12600002 .4 .13700001 .39400003 .13700001 .367 C .13700001 .36200003 .13700001 .36 .13400002 .34300003 L .089 .072000008 C .082 .031000002 .067 .031000002 .0050000029 .031000002 C .0040000008 .023000002 .001000002 .009000001 0 0 C .046 .002 .069000009 .003 .11400001 .003 C .16200002 .003 .17500001 .002 .22800002 0 L .23300001 .031000002 C .18300002 .031000002 .16100002 .031000002 .16100002 .057000005 C .16100002 .060000004 .16800002 .098000008 .17100002 .11800001 C .17400001 .13800001 .18500002 .20400001 .19300002 .25 C .21600002 .386 .31700004 .41700004 .36100004 .41700004 C .39600004 .41700004 .418 .4 .418 .35200004 C .418 .344 .41700004 .337 .41600005 .32900004 L .374 .072000008 C .367 .031000002 .35200004 .031000002 .29000003 .031000002 C .289 .023000002 .286 .009000001 .28500004 0 C .33100004 .002 .35400004 .003 .39900003 .003 C .44700004 .003 .46000005 .002 .513 0 L .518 .031000002 C .46800003 .031000002 .44600005 .031000002 .44600005 .057000005 C .44600005 .060000004 .45300005 .098000008 .45600004 .11800001 C .45900003 .13800001 .47 .20400001 .47800002 .25 C .501 .386 .602 .41700004 .646 .41700004 C .681 .41700004 .703 .4 .703 .35200004 C .703 .344 .702 .337 .70100006 .32900004 L .659 .072000008 C .652 .031000002 .637 .031000002 .575 .031000002 C .574 .023000002 .571 .009000001 .57 0 C .616 .002 .639 .003 .684 .003 C .732 .003 .745 .002 .79800006 0 L .80300006 .031000002 C .753 .031000002 .731 .031000002 .731 .057000005 C .731 .060000004 .731 .061000006 .734 .07700001 L .772 .30600003 Z "/>
</symbol>
<symbol id="font_7_17">
<path d="M .398 .34500004 C .413 .37100003 .43800003 .40900005 .5 .411 L .505 .44200004 C .476 .43900005 .43300004 .43900005 .42800004 .43900005 C .4 .43900005 .37 .44000004 .343 .44200004 L .337 .41200004 C .338 .41200004 .377 .41000004 .377 .37600003 C .377 .36300005 .368 .34700004 .36400003 .33900003 L .22 .093 L .15400002 .36100004 C .15 .37500004 .15 .37700004 .15 .381 C .15 .411 .192 .411 .21000001 .411 C .211 .42000003 .21400002 .43400003 .215 .44200004 C .167 .44000004 .146 .43900005 .105 .43900005 C .10300001 .43900005 .043000007 .43900005 .0059999974 .44200004 L 0 .411 C .052999997 .411 .06600001 .40900005 .074999999 .37100003 L .16100002 .024 C .16499999 .0070000009 .167 0 .18200001 0 C .197 0 .20300001 .011000001 .208 .019000002 L .398 .34500004 Z "/>
</symbol>
<symbol id="font_7_6">
<path d="M .44500003 .15600002 C .439 .11800001 .43500004 .091000009 .43300004 .08400001 C .42800004 .065000008 .41300003 .040000004 .39000003 .040000004 C .36200003 .040000004 .36100004 .074 .36100004 .079 C .36100004 .087000008 .36800004 .127 .372 .14700002 C .379 .18400002 .40100003 .30300004 .40100003 .33300004 C .40100003 .40300004 .337 .45900003 .24200002 .45900003 C .13700001 .45900003 .07100001 .39900003 .07100001 .34500004 C .07100001 .321 .08700001 .305 .113000009 .305 C .14000002 .305 .165 .32700003 .165 .358 C .165 .39100004 .135 .397 .12900001 .39800004 C .17000002 .43200005 .229 .43400003 .23900002 .43400003 C .30600003 .43400003 .328 .37900005 .328 .33900003 C .328 .33300004 .328 .33100004 .319 .275 C .268 .27300004 .19000001 .26900003 .11700001 .23700002 C .017 .19200002 0 .124000009 0 .095000009 C 0 .027000003 .081000018 0 .14900002 0 C .23300001 0 .28000004 .057000005 .296 .082 C .296 .016 .33800004 .005000001 .36 .005000001 C .39300005 .005000001 .451 .027000003 .46300004 .096 C .465 .107 .47 .136 .47300003 .15600002 L .44500003 .15600002 M .31500004 .25100003 C .30800004 .21100001 .30400003 .16700001 .29400004 .13100001 C .27600003 .068 .21400002 .025000003 .157 .025000003 C .113000009 .025000003 .08000001 .053000004 .08000001 .094000007 C .08000001 .097 .08000001 .23900002 .31500004 .25100003 Z "/>
</symbol>
<symbol id="font_7_10">
<path d="M .48600004 .30600003 C .488 .316 .48900006 .324 .48900006 .33900003 C .48900006 .41300003 .441 .44200004 .36800004 .44200004 C .29000003 .44200004 .23400003 .39400003 .20400001 .347 L .20300001 .347 L .21900001 .44200004 L .07200001 .43100003 L .067 .4 C .12600002 .4 .13700001 .39400003 .13700001 .367 C .13700001 .36200003 .13700001 .36 .13400002 .34300003 L .089 .072000008 C .082 .031000002 .067 .031000002 .0050000029 .031000002 C .0040000008 .023000002 .001000002 .009000001 0 0 C .046 .002 .069000009 .003 .11400001 .003 C .16200002 .003 .17500001 .002 .22800002 0 L .23300001 .031000002 C .18300002 .031000002 .16100002 .031000002 .16100002 .057000005 C .16100002 .060000004 .16800002 .098000008 .17100002 .11800001 C .17400001 .13800001 .18500002 .20400001 .19300002 .25 C .21600002 .386 .31700004 .41700004 .36 .41700004 C .397 .41700004 .41700004 .39900003 .41700004 .35200004 C .41700004 .337 .40900005 .28800003 .40300004 .256 C .39800004 .22600001 .37600003 .087000008 .37300004 .07 C .36600004 .031000002 .351 .031000002 .289 .031000002 C .28800003 .023000002 .28500004 .009000001 .284 0 C .33 .002 .35300002 .003 .39800004 .003 C .44600005 .003 .45900003 .002 .512 0 L .517 .031000002 C .46700005 .031000002 .44500003 .031000002 .44500003 .057000005 C .44500003 .060000004 .44500003 .061000006 .448 .07700001 L .48600004 .30600003 Z "/>
</symbol>
<symbol id="font_7_c">
<path d="M .254 .623 C .254 .65000006 .23400001 .67 .20600002 .67 C .17500001 .67 .14500001 .64100006 .14500001 .609 C .14500001 .58500006 .16300002 .56200006 .19300002 .56200006 C .22200002 .56200006 .254 .587 .254 .623 M .09300001 .432 C .07700001 .43100003 .076000008 .43 .074 .423 C .072 .41500003 .07000001 .40600003 .07000001 .4 C .12500002 .4 .13700001 .395 .13700001 .36800004 C .13700001 .36200003 .13700001 .36 .134 .34300003 L .089 .072000008 C .082 .031000002 .067 .031000002 .004999999 .031000002 C .0040000008 .023000002 .0009999983 .009000001 0 0 C .044000005 .002 .066 .003 .111 .003 C .13100001 .003 .16800002 .003 .21700002 0 L .223 .031000002 C .17800002 .031000002 .158 .031000002 .158 .056 C .158 .060000004 .158 .061000006 .16100002 .07700001 L .22200002 .44200004 L .09300001 .432 Z "/>
</symbol>
<symbol id="font_7_9">
<path d="M .21500002 .4 L .331 .4 C .333 .41000004 .334 .42100004 .336 .43100003 L .21700002 .43100003 L .23600002 .54700008 C .24700003 .61600008 .298 .68 .352 .68 C .366 .68 .375 .67700007 .379 .675 C .368 .67 .34600003 .656 .34600003 .62700006 C .34600003 .609 .357 .58900007 .386 .58900007 C .412 .58900007 .43600003 .609 .43600003 .64100006 C .43600003 .68 .4 .70500007 .352 .70500007 C .269 .70500007 .18300002 .64000007 .16800002 .549 L .149 .43100003 L .07000001 .43100003 C .068 .42100004 .067 .41000004 .065 .4 L .143 .4 L .089 .072000008 C .082 .031000002 .067 .031000002 .004999999 .031000002 C .0040000008 .023000002 .0009999983 .009000001 0 0 C .05 .002 .066 .003 .11700001 .003 C .164 .003 .18600002 .002 .24500002 0 L .25 .031000002 L .22900002 .031000002 C .16300002 .031000002 .15900001 .041 .15900001 .060000004 C .15900001 .064 .15900001 .066 .16200002 .083000008 L .21500002 .4 Z "/>
</symbol>
<use xlink:href="#font_7_5" transform="matrix(8.9664,0,0,-8.9664,38.426237,29.916995)"/>
<use xlink:href="#font_7_b" transform="matrix(8.9664,0,0,-8.9664,44.38889,29.916995)"/>
<use xlink:href="#font_7_8" transform="matrix(8.9664,0,0,-8.9664,49.750799,30.015625)"/>
<use xlink:href="#font_7_14" transform="matrix(8.9664,0,0,-8.9664,53.597387,30.015625)"/>
<use xlink:href="#font_7_8" transform="matrix(8.9664,0,0,-8.9664,57.479837,30.015625)"/>
<use xlink:href="#font_7_15" transform="matrix(8.9664,0,0,-8.9664,64.859188,30.015625)"/>
<use xlink:href="#font_7_8" transform="matrix(8.9664,0,0,-8.9664,68.23055,30.015625)"/>
<use xlink:href="#font_7_13" transform="matrix(8.9664,0,0,-8.9664,72.04127,29.916995)"/>
<use xlink:href="#font_7_f" transform="matrix(8.9664,0,0,-8.9664,75.6906,29.916995)"/>
<use xlink:href="#font_7_14" transform="matrix(8.9664,0,0,-8.9664,83.36583,30.015625)"/>
<use xlink:href="#font_7_17" transform="matrix(8.9664,0,0,-8.9664,90.54791,30.015625)"/>
<use xlink:href="#font_7_6" transform="matrix(8.9664,0,0,-8.9664,94.6366,30.015625)"/>
<use xlink:href="#font_7_10" transform="matrix(8.9664,0,0,-8.9664,99.03909,29.916995)"/>
<use xlink:href="#font_7_c" transform="matrix(8.9664,0,0,-8.9664,104.16787,29.916995)"/>
<use xlink:href="#font_7_14" transform="matrix(8.9664,0,0,-8.9664,106.714328,30.015625)"/>
<use xlink:href="#font_7_b" transform="matrix(8.9664,0,0,-8.9664,110.35469,29.916995)"/>
<use xlink:href="#font_7_6" transform="matrix(8.9664,0,0,-8.9664,118.74724,30.015625)"/>
<use xlink:href="#font_7_9" transform="matrix(8.9664,0,0,-8.9664,123.1587,29.916995)"/>
<use xlink:href="#font_7_15" transform="matrix(8.9664,0,0,-8.9664,126.42248,30.015625)"/>
<use xlink:href="#font_7_8" transform="matrix(8.9664,0,0,-8.9664,129.79386,30.015625)"/>
<use xlink:href="#font_7_13" transform="matrix(8.9664,0,0,-8.9664,133.60457,29.916995)"/>
<symbol id="font_7_d">
<path d="M .264 .694 L .11400001 .683 L .10900001 .652 C .16800002 .652 .179 .646 .179 .619 C .179 .614 .179 .61200007 .17600002 .595 L .089 .072000008 C .082 .031000002 .067 .031000002 .004999999 .031000002 C .0040000008 .023000002 .0010000002 .009000001 0 0 C .046000005 .002 .066 .003 .111 .003 C .157 .003 .18 .002 .222 0 L .227 .031000002 C .17700002 .031000002 .155 .031000002 .155 .057000005 C .155 .063 .16900002 .14600002 .172 .15900001 C .17500001 .178 .17600002 .179 .185 .186 L .24700001 .23200001 C .30800004 .12900001 .33900003 .076000008 .33900003 .058000003 C .33900003 .041 .328 .031000002 .30100004 .031000002 C .29900003 .021000002 .298 .010000001 .296 0 C .34100003 .002 .365 .003 .404 .003 C .43300004 .003 .46500004 .003 .49400006 0 L .49900005 .031000002 C .44200004 .031000002 .437 .040000004 .39000003 .124000009 L .305 .273 C .44300003 .381 .48600004 .39800004 .538 .4 C .53900006 .40800003 .54200008 .42200003 .543 .43100003 C .50699999 .42800004 .505 .42800004 .46800003 .42800004 C .446 .42800004 .404 .42900003 .36 .43100003 L .354 .40100003 C .36600004 .40100003 .377 .393 .377 .381 C .377 .363 .36100004 .34800003 .35200004 .34 C .347 .337 .20600002 .23300001 .185 .21800001 L .264 .694 Z "/>
</symbol>
<symbol id="font_7_a">
<path d="M .50400009 .633 C .50100007 .63100007 .49 .624 .49 .605 C .49 .59000006 .50100007 .578 .51800009 .578 C .53300008 .578 .55200007 .59000006 .55200007 .615 C .55200007 .628 .544 .65900006 .50400009 .65900006 C .48300005 .65900006 .43600006 .65400007 .388 .61200007 C .36400003 .633 .328 .64800009 .28400005 .64800009 C .186 .64800009 .094000007 .572 .094000007 .48200006 C .094000007 .45400004 .101 .42600004 .125 .40100003 C .108 .38300003 .079 .34600003 .079 .29800005 C .079 .259 .09900001 .23600002 .109000008 .22800002 C .040000004 .20900002 0 .16100002 0 .11700001 C 0 .055000009 .082 0 .209 0 C .31 0 .458 .04100001 .458 .15 C .458 .24500002 .374 .27400003 .268 .27400003 L .177 .27400003 C .162 .27400003 .117 .27400003 .117 .32700003 C .117 .35200004 .133 .37600003 .141 .38500003 C .17600002 .35900004 .21200001 .35400004 .23900001 .35400004 C .34400005 .35400004 .43 .43700005 .43 .52000007 C .43 .563 .40500004 .596 .40400005 .59700009 C .439 .624 .47300006 .633 .50400009 .63400009 L .50400009 .633 M .24000003 .38100005 C .22600001 .38100005 .16800002 .38500003 .16800002 .458 C .16800002 .512 .18900001 .62100008 .283 .62100008 C .31300003 .62100008 .35500003 .609 .35500003 .54300007 C .35500003 .47100003 .325 .38100005 .24000003 .38100005 M .21000001 .02700001 C .11600001 .02700001 .056 .07000001 .056 .11600001 C .056 .134 .066 .16700001 .1 .19100002 C .128 .21100001 .14 .21100001 .215 .21100001 C .306 .21100001 .40100003 .21100001 .40100003 .14000002 C .40100003 .08200001 .31600005 .02700001 .21000001 .02700001 Z "/>
</symbol>
<use xlink:href="#font_7_15" transform="matrix(8.9664,0,0,-8.9664,48.27111,37.648626)"/>
<use xlink:href="#font_7_6" transform="matrix(8.9664,0,0,-8.9664,51.60661,37.648626)"/>
<use xlink:href="#font_7_d" transform="matrix(8.9664,0,0,-8.9664,55.964284,37.549997)"/>
<use xlink:href="#font_7_c" transform="matrix(8.9664,0,0,-8.9664,60.877874,37.549997)"/>
<use xlink:href="#font_7_10" transform="matrix(8.9664,0,0,-8.9664,63.433298,37.549997)"/>
<use xlink:href="#font_7_a" transform="matrix(8.9664,0,0,-8.9664,68.37379,39.397077)"/>
<symbol id="font_8_2">
<path d="M .232 .671 C .236 .685 .236 .68700006 .236 .691 C .236 .7 .23000002 .705 .22100002 .705 C .20700002 .705 .119 .697 .09900001 .695 C .089 .694 .077999997 .693 .077999997 .676 C .077999997 .663 .089 .663 .105000007 .663 C .15200001 .663 .15200001 .656 .15200001 .647 C .15200001 .643 .15200001 .64100006 .147 .623 L .0040000008 .048 C 0 .034 0 .032 0 .029000003 C 0 .013000001 .013 0 .031 0 C .063999999 0 .070999998 .029000003 .076000008 .049000004 L .122999999 .23800002 C .191 .23200003 .24200002 .20500002 .24200002 .15500002 C .24200002 .14900002 .24200002 .14500001 .239 .13000001 C .238 .126 .23500002 .112 .23500002 .101 C .23500002 .042000005 .27600003 0 .331 0 C .36900003 0 .393 .023000002 .411 .052 C .43600003 .09 .45 .15000002 .45 .15400002 C .45 .15900001 .44700004 .16600001 .437 .16600001 C .42600004 .16600001 .42400003 .16100002 .41900004 .143 C .40600003 .092 .381 .025000003 .33400003 .025000003 C .305 .025000003 .30200003 .051000004 .30200003 .07300001 C .30200003 .098000008 .308 .124000009 .30900003 .126 C .31100003 .13200002 .31300003 .14400001 .31300003 .15600002 C .31300003 .22600001 .24000001 .25300003 .163 .26200003 C .193 .28100003 .215 .30200003 .24700001 .33400003 C .298 .38500003 .34 .42800004 .393 .42800004 C .405 .42800004 .418 .42500005 .42600004 .41600005 C .381 .41200004 .37 .37500004 .37 .36100004 C .37 .34200005 .384 .32500003 .409 .32500003 C .432 .32500003 .46400006 .34300003 .46400006 .38700003 C .46400006 .42000003 .44000004 .45300005 .393 .45300005 C .33200003 .45300005 .28300003 .404 .241 .36100004 C .193 .314 .169 .29000003 .132 .27400003 L .232 .671 Z "/>
</symbol>
<use xlink:href="#font_8_2" transform="matrix(8.9664,0,0,-8.9664,76.40715,37.648626)"/>
<symbol id="font_7_7">
<path d="M .5120001 .705 L .36200003 .694 L .35700003 .663 C .416 .663 .42700003 .657 .42700003 .63 C .42700003 .624 .42700003 .622 .42400003 .606 L .388 .39300005 C .372 .41500003 .337 .45300005 .268 .45300005 C .135 .45300005 0 .335 0 .19000001 C 0 .074 .08600001 0 .18600002 0 C .25 0 .3 .033000005 .33 .062000004 L .32000003 0 L .47300003 .011000001 C .47500006 .021000002 .47600005 .032 .47800002 .042000005 C .41700004 .042000005 .40800003 .049000004 .40800003 .075 C .40800003 .081 .40800003 .083000008 .411 .1 L .5120001 .705 M .342 .13000001 C .337 .102000009 .30800004 .075 .291 .062000004 C .25 .031000004 .213 .025000003 .19100002 .025000003 C .13800001 .025000003 .082 .062000004 .082 .15700002 C .082 .16000001 .08400001 .275 .13100001 .34600003 C .16600001 .39900003 .222 .42800004 .272 .42800004 C .35300002 .42800004 .37800003 .35700003 .37800003 .351 L .37600003 .337 L .342 .13000001 Z "/>
</symbol>
<use xlink:href="#font_7_7" transform="matrix(8.9664,0,0,-8.9664,84.64675,37.648626)"/>
<use xlink:href="#font_7_8" transform="matrix(8.9664,0,0,-8.9664,89.72173,37.648626)"/>
<use xlink:href="#font_7_13" transform="matrix(8.9664,0,0,-8.9664,93.53245,37.549997)"/>
<use xlink:href="#font_7_c" transform="matrix(8.9664,0,0,-8.9664,97.19074,37.549997)"/>
<use xlink:href="#font_7_17" transform="matrix(8.9664,0,0,-8.9664,100.21242,37.648626)"/>
<use xlink:href="#font_7_6" transform="matrix(8.9664,0,0,-8.9664,104.301097,37.648626)"/>
<use xlink:href="#font_7_15" transform="matrix(8.9664,0,0,-8.9664,109.16088,37.648626)"/>
<use xlink:href="#font_7_c" transform="matrix(8.9664,0,0,-8.9664,112.299129,37.549997)"/>
<use xlink:href="#font_7_17" transform="matrix(8.9664,0,0,-8.9664,115.3208,37.648626)"/>
<use xlink:href="#font_7_8" transform="matrix(8.9664,0,0,-8.9664,119.6964,37.648626)"/>
<use xlink:href="#font_7_14" transform="matrix(8.9664,0,0,-8.9664,123.542987,37.648626)"/>
<symbol id="font_7_3">
<path d="M .492 .69100007 C .488 .711 .48500005 .716 .47 .716 C .45400004 .716 .45000003 .708 .44300003 .69500008 L .12799999 .09900001 C .116000007 .075 .089 .031000002 .004999999 .031000002 L 0 0 C .043000007 .003 .095000009 .003 .102000009 .003 C .146 .003 .16500002 .002 .215 0 L .22 .031000002 C .176 .031000002 .15400002 .052 .15400002 .076000008 C .15400002 .086 .15799999 .09200001 .16800002 .112 C .18200001 .13800001 .21700001 .20400001 .22999999 .23 L .489 .23 C .494 .201 .49500004 .19500001 .50100007 .165 C .50400009 .15200001 .521 .072000008 .521 .065000008 C .521 .031000002 .45900003 .031000002 .433 .031000002 L .428 0 C .47300003 .003 .52500006 .003 .57100006 .003 C .6100001 .003 .62700006 .002 .7020001 0 L .7070001 .031000002 C .6380001 .031000002 .6190001 .031000002 .61100009 .074 L .492 .69100007 M .419 .588 L .483 .261 L .24700001 .261 L .419 .588 Z "/>
</symbol>
<use xlink:href="#font_7_3" transform="matrix(8.9664,0,0,-8.9664,208.26586,29.045998)"/>
<use xlink:href="#font_7_9" transform="matrix(8.9664,0,0,-8.9664,215.19689,29.045998)"/>
<use xlink:href="#font_7_15" transform="matrix(8.9664,0,0,-8.9664,218.46065,29.144629)"/>
<use xlink:href="#font_7_8" transform="matrix(8.9664,0,0,-8.9664,221.83203,29.144629)"/>
<use xlink:href="#font_7_13" transform="matrix(8.9664,0,0,-8.9664,225.64275,29.045998)"/>
<use xlink:href="#font_7_15" transform="matrix(8.9664,0,0,-8.9664,232.82482,29.144629)"/>
<use xlink:href="#font_7_6" transform="matrix(8.9664,0,0,-8.9664,236.16033,29.144629)"/>
<use xlink:href="#font_7_d" transform="matrix(8.9664,0,0,-8.9664,240.518,29.045998)"/>
<use xlink:href="#font_7_c" transform="matrix(8.9664,0,0,-8.9664,245.43158,29.045998)"/>
<use xlink:href="#font_7_10" transform="matrix(8.9664,0,0,-8.9664,247.98702,29.045998)"/>
<use xlink:href="#font_7_a" transform="matrix(8.9664,0,0,-8.9664,252.92749,30.893076)"/>
<use xlink:href="#font_8_2" transform="matrix(8.9664,0,0,-8.9664,260.95317,29.144629)"/>
<symbol id="font_7_1">
<path d="M .11200001 .208 C .102000009 .136 .062 .072 .0069999995 .024000004 C .0029999987 .020999998 0 .017999992 0 .012999997 C 0 .0069999995 .0059999974 0 .012000002 0 C .027000003 0 .13800001 .103 .13800001 .22800002 C .13800001 .24200002 .13800001 .30200003 .086 .30200003 C .046000005 .30200003 .023999997 .26700003 .023999997 .24000001 C .023999997 .22 .038000004 .194 .072000008 .194 C .09700001 .194 .105 .202 .11200001 .208 Z "/>
</symbol>
<use xlink:href="#font_7_7" transform="matrix(8.9664,0,0,-8.9664,269.19374,29.144629)"/>
<use xlink:href="#font_7_8" transform="matrix(8.9664,0,0,-8.9664,274.2687,29.144629)"/>
<use xlink:href="#font_7_13" transform="matrix(8.9664,0,0,-8.9664,278.07945,29.045998)"/>
<use xlink:href="#font_7_c" transform="matrix(8.9664,0,0,-8.9664,281.73774,29.045998)"/>
<use xlink:href="#font_7_17" transform="matrix(8.9664,0,0,-8.9664,284.75944,29.144629)"/>
<use xlink:href="#font_7_6" transform="matrix(8.9664,0,0,-8.9664,288.8481,29.144629)"/>
<use xlink:href="#font_7_15" transform="matrix(8.9664,0,0,-8.9664,293.70793,29.144629)"/>
<use xlink:href="#font_7_c" transform="matrix(8.9664,0,0,-8.9664,296.84614,29.045998)"/>
<use xlink:href="#font_7_17" transform="matrix(8.9664,0,0,-8.9664,299.86784,29.144629)"/>
<use xlink:href="#font_7_8" transform="matrix(8.9664,0,0,-8.9664,304.2434,29.144629)"/>
<use xlink:href="#font_7_14" transform="matrix(8.9664,0,0,-8.9664,308.09004,29.144629)"/>
<use xlink:href="#font_7_1" transform="matrix(8.9664,0,0,-8.9664,312.0621,30.785479)"/>
<use xlink:href="#font_7_15" transform="matrix(8.9664,0,0,-8.9664,317.8275,29.144629)"/>
<use xlink:href="#font_7_b" transform="matrix(8.9664,0,0,-8.9664,320.95677,29.045998)"/>
<use xlink:href="#font_7_8" transform="matrix(8.9664,0,0,-8.9664,326.31867,29.144629)"/>
<use xlink:href="#font_7_14" transform="matrix(8.9664,0,0,-8.9664,330.16529,29.144629)"/>
<use xlink:href="#font_7_8" transform="matrix(8.9664,0,0,-8.9664,334.0477,29.144629)"/>
<use xlink:href="#font_7_15" transform="matrix(8.9664,0,0,-8.9664,341.42707,29.144629)"/>
<use xlink:href="#font_7_8" transform="matrix(8.9664,0,0,-8.9664,344.7984,29.144629)"/>
<use xlink:href="#font_7_13" transform="matrix(8.9664,0,0,-8.9664,348.60914,29.045998)"/>
<use xlink:href="#font_7_f" transform="matrix(8.9664,0,0,-8.9664,352.25846,29.045998)"/>
<use xlink:href="#font_7_14" transform="matrix(8.9664,0,0,-8.9664,359.93373,29.144629)"/>
<symbol id="font_7_11">
<path d="M .462 .263 C .462 .37500004 .38200004 .45900003 .27000005 .45900003 C .125 .45900003 0 .321 0 .18700002 C 0 .086 .076000008 0 .19400002 0 C .33200003 0 .462 .12100001 .462 .263 M .19900002 .028 C .16600001 .028 .083000008 .041 .083000008 .15600002 C .083000008 .17900002 .09200001 .29500003 .12900001 .35500003 C .164 .41000004 .219 .43400003 .26600004 .43400003 C .30300004 .43400003 .38200004 .41600005 .38200004 .30800004 C .38200004 .29500003 .376 .17700002 .33500005 .108 C .30300004 .055000005 .24800001 .028 .19900002 .028 Z "/>
</symbol>
<symbol id="font_7_19">
<path d="M .43700005 .39900003 C .44500003 .40800003 .44900004 .411 .44900004 .42000003 C .44900004 .43100003 .44000004 .43100003 .42400003 .43100003 L .095 .43100003 L .057000005 .26700003 L .085 .26700003 C .10700001 .37600003 .141 .40600003 .24500002 .40600003 L .36000005 .40600003 L .011000002 .032 C .0030000006 .023000002 0 .021000002 0 .012 C 0 0 .007000001 0 .025 0 L .36500005 0 L .41400004 .19000001 L .38600005 .19000001 C .35700003 .078 .33500005 .028 .21000001 .028 L .09 .028 L .43700005 .39900003 Z "/>
</symbol>
<symbol id="font_7_12">
<path d="M .254 .63600006 L .104 .625 L .099 .594 C .15600002 .594 .17000002 .59000006 .17000002 .566 C .17000002 .56200006 .17000002 .56000009 .16700001 .543 L .089 .073 C .082 .031000004 .066 .031000004 .005 .031000004 L 0 0 C .047000003 .002000004 .066 .0029999912 .114 .0029999912 C .157 .0029999912 .18100001 .002000004 .22700002 0 L .23300001 .031000004 C .18200001 .031000004 .16100002 .031000004 .16100002 .056999998 C .16100002 .065 .18400002 .202 .19200002 .244 C .20900002 .21800001 .24400002 .183 .30900003 .183 C .44200004 .183 .577 .301 .577 .446 C .577 .559 .49700005 .63600006 .39300005 .63600006 C .32900004 .63600006 .277 .605 .24400002 .57500007 L .254 .63600006 M .23600002 .513 C .24100001 .54200008 .275 .568 .29000003 .578 C .31100003 .592 .34700004 .60800006 .38400004 .60800006 C .45600004 .60800006 .492 .535 .492 .45900003 C .492 .323 .397 .208 .30400003 .208 C .22400002 .208 .20000002 .284 .20000002 .292 L .202 .306 L .23600002 .513 Z "/>
</symbol>
<symbol id="font_7_18">
<path d="M .607 .34500004 C .637 .40200005 .672 .41000004 .702 .411 C .703 .41900004 .70600005 .43300004 .707 .44200004 C .67300006 .43900005 .653 .43900005 .631 .43900005 C .623 .43900005 .578 .43900005 .541 .44200004 L .535 .41200004 C .539 .41200004 .584 .40900005 .584 .37100003 C .584 .35900004 .582 .35500003 .575 .34200005 L .441 .09 L .38700003 .35600005 C .38400004 .36900003 .38400004 .37100003 .38400004 .37900005 C .38400004 .411 .42600004 .411 .446 .411 C .44800005 .42100004 .44900004 .43200005 .451 .44200004 C .41300003 .44000004 .38500003 .43900005 .34700004 .43900005 C .34600003 .43900005 .28800003 .43900005 .25700004 .44200004 L .25100003 .411 C .27500005 .411 .3 .411 .30900003 .39900003 C .316 .39000003 .32400004 .35300002 .32400004 .34300003 C .32400004 .33900003 .32000003 .33200003 .31900005 .33 L .19700003 .10300001 L .146 .358 C .143 .37100003 .143 .37300004 .143 .37900005 C .143 .411 .18600002 .411 .20600003 .411 L .21100003 .44200004 C .16300002 .44000004 .14200002 .43900005 .101 .43900005 C .06800001 .43900005 .04 .43900005 .0060000049 .44200004 L 0 .411 C .055 .411 .060999998 .40600003 .06800001 .37200005 L .13800001 .024 C .141 .0070000009 .143 0 .15800002 0 C .17000002 0 .17600003 .0070000009 .18200001 .018000002 L .33300004 .30100004 L .38900004 .023000002 C .39200003 .0070000009 .39400003 0 .40800003 0 C .42200003 0 .42600004 .0070000009 .43300007 .020000002 L .607 .34500004 Z "/>
</symbol>
<use xlink:href="#font_7_b" transform="matrix(8.9664,0,0,-8.9664,202.36183,37.549997)"/>
<use xlink:href="#font_7_6" transform="matrix(8.9664,0,0,-8.9664,207.68787,37.648626)"/>
<use xlink:href="#font_7_17" transform="matrix(8.9664,0,0,-8.9664,212.2966,37.648626)"/>
<use xlink:href="#font_7_8" transform="matrix(8.9664,0,0,-8.9664,216.68119,37.648626)"/>
<use xlink:href="#font_7_10" transform="matrix(8.9664,0,0,-8.9664,223.60324,37.549997)"/>
<use xlink:href="#font_7_11" transform="matrix(8.9664,0,0,-8.9664,228.95618,37.648626)"/>
<use xlink:href="#font_7_10" transform="matrix(8.9664,0,0,-8.9664,233.33179,37.549997)"/>
<use xlink:href="#font_7_19" transform="matrix(8.9664,0,0,-8.9664,238.41573,37.549997)"/>
<use xlink:href="#font_7_8" transform="matrix(8.9664,0,0,-8.9664,242.79134,37.648626)"/>
<use xlink:href="#font_7_13" transform="matrix(8.9664,0,0,-8.9664,246.60205,37.549997)"/>
<use xlink:href="#font_7_11" transform="matrix(8.9664,0,0,-8.9664,250.4845,37.648626)"/>
<use xlink:href="#font_7_12" transform="matrix(8.9664,0,0,-8.9664,257.60383,39.28948)"/>
<use xlink:href="#font_7_11" transform="matrix(8.9664,0,0,-8.9664,263.53959,37.648626)"/>
<use xlink:href="#font_7_18" transform="matrix(8.9664,0,0,-8.9664,268.12144,37.648626)"/>
<use xlink:href="#font_7_8" transform="matrix(8.9664,0,0,-8.9664,274.29927,37.648626)"/>
<use xlink:href="#font_7_13" transform="matrix(8.9664,0,0,-8.9664,278.11,37.549997)"/>
<use xlink:href="#font_7_14" transform="matrix(8.9664,0,0,-8.9664,281.75038,37.648626)"/>
<use xlink:href="#font_7_11" transform="matrix(8.9664,0,0,-8.9664,288.69929,37.648626)"/>
<use xlink:href="#font_7_9" transform="matrix(8.9664,0,0,-8.9664,293.08387,37.549997)"/>
<symbol id="font_8_3">
<path d="M .462 .41500003 C .425 .40800003 .41400004 .37600003 .41400004 .36100004 C .41400004 .34200005 .42800004 .32500003 .453 .32500003 C .48100005 .32500003 .508 .34900005 .508 .38400004 C .508 .43000005 .45800004 .45300005 .411 .45300005 C .351 .45300005 .316 .40000005 .30400003 .37900005 C .28500004 .42800004 .24100003 .45300005 .193 .45300005 C .086 .45300005 .028 .32500003 .028 .29900003 C .028 .29000003 .035000005 .28700004 .042000005 .28700004 C .051 .28700004 .054000006 .29200004 .056 .298 C .087000008 .397 .15300001 .42800004 .19100002 .42800004 C .22 .42800004 .24600002 .40900005 .24600002 .36200003 C .24600002 .32600004 .20300001 .16600001 .19000001 .11800001 C .18200001 .087000008 .15200001 .025000003 .097 .025000003 C .07700001 .025000003 .056 .032 .046000005 .038000004 C .07300001 .043 .093 .06600001 .093 .092 C .093 .117000009 .074 .128 .055 .128 C .026 .128 0 .10300001 0 .069000009 C 0 .020000002 .054000006 0 .096 0 C .15400002 0 .18800001 .048 .20300001 .075 C .22800002 .009000001 .287 0 .314 0 C .42200003 0 .479 .13000001 .479 .15400002 C .479 .15900001 .47600005 .16600001 .46600003 .16600001 C .455 .16600001 .45400004 .16200002 .44900004 .14700002 C .42700003 .075 .36900003 .025000003 .317 .025000003 C .28800003 .025000003 .261 .043 .261 .091000009 C .261 .113000009 .275 .16800002 .284 .20600002 C .28800003 .22400002 .31500004 .33200003 .317 .33900003 C .32900004 .37500004 .35900004 .42800004 .41000004 .42800004 C .42800004 .42800004 .44700004 .42500005 .462 .41500003 Z "/>
</symbol>
<use xlink:href="#font_8_3" transform="matrix(8.9664,0,0,-8.9664,298.925,37.648626)"/>
<symbol id="font_9_1">
<path d="M .589 0 C .607 0 .626 0 .626 .022 C .626 .042999999 .606 .042999999 .589 .042999999 L .037 .042999999 C .020000004 .042999999 0 .042999999 0 .022 C 0 0 .019000002 0 .037 0 L .589 0 Z "/>
</symbol>
<use xlink:href="#font_9_1" transform="matrix(8.9664,0,0,-8.9664,306.69914,35.49669)"/>
<symbol id="font_8_1">
<path d="M .359 .39300005 C .321 .39200003 .301 .36300005 .301 .33800004 C .301 .30900003 .327 .30200003 .33900003 .30200003 C .359 .30200003 .395 .31900005 .395 .36600004 C .395 .41900004 .342 .45300005 .273 .45300005 C .13700001 .45300005 0 .31500004 0 .17100002 C 0 .071 .067 0 .16800002 0 C .31800003 0 .402 .104 .402 .117000009 C .402 .123 .395 .13100001 .388 .13100001 C .38300003 .13100001 .382 .13000001 .373 .119 C .313 .045 .22200002 .025000003 .17000002 .025000003 C .11400001 .025000003 .07700001 .062000004 .07700001 .134 C .07700001 .17700002 .096000019 .27600003 .136 .34000004 C .15900001 .37600003 .21100001 .42800004 .274 .42800004 C .293 .42800004 .335 .42400003 .359 .39300005 Z "/>
</symbol>
<use xlink:href="#font_8_1" transform="matrix(8.9664,0,0,-8.9664,315.52857,37.648626)"/>
<symbol id="font_7_2">
<path d="M .110000018 .061000006 C .110000018 .082 .09400001 .108 .062000008 .108 C .028000005 .108 0 .07700001 0 .047000003 C 0 .026 .016000003 0 .048000009 0 C .082 0 .110000018 .031000002 .110000018 .061000006 Z "/>
</symbol>
<symbol id="font_7_4">
<path d="M .674 .25800003 L .646 .25800003 C .59200009 .10700001 .56500008 .031000002 .38600005 .031000002 L .246 .031000002 C .21300002 .031000002 .202 .034 .202 .052 C .202 .055000005 .202 .065000008 .20300001 .068 L .249 .33800004 L .34100003 .33800004 C .408 .33800004 .43800003 .32500003 .43800003 .272 C .43800003 .26000003 .43400003 .23400001 .43200005 .22100002 L .46000005 .22100002 L .50400009 .48600004 L .476 .48600004 C .462 .39200003 .435 .36900003 .347 .36900003 L .254 .36900003 L .29400004 .61300006 C .29900003 .64400008 .30800004 .64900007 .34900005 .64900007 L .48300005 .64900007 C .623 .64900007 .65200009 .605 .65200009 .497 C .65200009 .485 .65200009 .467 .651 .455 L .679 .455 L .688 .68 L .113000009 .68 L .10800001 .64900007 L .13100001 .64900007 C .19100002 .64900007 .20500002 .643 .20500002 .62 C .20500002 .61700007 .20400001 .614 .202 .601 L .11400001 .07300001 C .109 .041 .10000001 .031000002 .027999998 .031000002 L .004999999 .031000002 C .0029999987 .021000002 .0020000004 .010000001 0 0 L .58800008 0 L .674 .25800003 Z "/>
</symbol>
<symbol id="font_7_e">
<path d="M .264 .694 L .11400001 .683 L .10900001 .652 C .16800002 .652 .179 .646 .179 .619 C .179 .614 .179 .61200007 .17600002 .595 L .089 .072000008 C .082 .031000002 .067 .031000002 .004999999 .031000002 C .0040000008 .023000002 .0009999983 .009000001 0 0 C .046 .002 .066 .003 .113000009 .003 C .16100002 .003 .18600002 .002 .22500001 0 L .23 .031000002 C .18 .031000002 .158 .031000002 .158 .057000005 C .158 .060000004 .15900001 .062000004 .16100002 .07700001 L .264 .694 Z "/>
</symbol>
<symbol id="font_7_16">
<path d="M .44200004 .45300005 L .28900004 .44200004 L .284 .411 C .34300003 .411 .35400004 .40500004 .35400004 .37800003 C .35400004 .37100003 .34800003 .337 .34500004 .316 L .32400004 .19000001 C .30100004 .057000005 .22100002 .025000003 .17200002 .025000003 C .102000009 .025000003 .098 .057000005 .098 .080000009 C .098 .092 .1 .104 .102000009 .116000007 L .15800002 .45300005 L .0050000029 .44200004 L 0 .411 C .059000009 .411 .07 .40500004 .07 .37800003 C .07 .36400003 .037000009 .17500001 .031999999 .14400001 C .028000005 .12200001 .028000005 .120000008 .028000005 .105000007 C .028000005 .029000003 .08100001 0 .16600001 0 C .24400002 0 .28900004 .052 .30800004 .081 L .30900003 .081 L .29500003 0 L .44500006 .011000001 C .44700004 .021000002 .448 .032 .45000006 .042000005 C .38900004 .042000005 .38000003 .049000004 .38000003 .075 C .38000003 .081 .38000003 .083000008 .38300003 .1 L .44200004 .45300005 Z "/>
</symbol>
<use xlink:href="#font_7_2" transform="matrix(8.9664,0,0,-8.9664,319.99378,37.549997)"/>
<use xlink:href="#font_7_4" transform="matrix(8.9664,0,0,-8.9664,326.13578,37.549997)"/>
<use xlink:href="#font_7_17" transform="matrix(8.9664,0,0,-8.9664,332.84266,37.648626)"/>
<use xlink:href="#font_7_6" transform="matrix(8.9664,0,0,-8.9664,336.93135,37.648626)"/>
<use xlink:href="#font_7_e" transform="matrix(8.9664,0,0,-8.9664,341.3428,37.549997)"/>
<use xlink:href="#font_7_16" transform="matrix(8.9664,0,0,-8.9664,344.499,37.648626)"/>
<use xlink:href="#font_7_6" transform="matrix(8.9664,0,0,-8.9664,349.22428,37.648626)"/>
<use xlink:href="#font_7_15" transform="matrix(8.9664,0,0,-8.9664,354.08409,37.648626)"/>
<use xlink:href="#font_7_c" transform="matrix(8.9664,0,0,-8.9664,357.2223,37.549997)"/>
<use xlink:href="#font_7_10" transform="matrix(8.9664,0,0,-8.9664,359.7777,37.549997)"/>
<use xlink:href="#font_7_a" transform="matrix(8.9664,0,0,-8.9664,364.7182,39.397077)"/>
<use xlink:href="#font_7_6" transform="matrix(8.9664,0,0,-8.9664,230.14606,47.024625)"/>
<use xlink:href="#font_7_15" transform="matrix(8.9664,0,0,-8.9664,235.00585,47.024625)"/>
<use xlink:href="#font_8_3" transform="matrix(8.9664,0,0,-8.9664,241.15901,47.024625)"/>
<symbol id="font_a_1">
<path d="M .651 .20400003 C .6650001 .20400003 .6840001 .20400003 .6840001 .22500003 C .6840001 .24700001 .66200008 .24700001 .6470001 .24700001 L .037 .24700001 C .022 .24700001 0 .24700001 0 .22500003 C 0 .20400003 .020000004 .20400003 .033 .20400003 L .651 .20400003 M .6470001 0 C .66200008 0 .6840001 0 .6840001 .022 C .6840001 .042999999 .6650001 .042999999 .651 .042999999 L .033 .042999999 C .020000004 .042999999 0 .042999999 0 .022 C 0 0 .022 0 .037 0 L .6470001 0 Z "/>
</symbol>
<use xlink:href="#font_a_1" transform="matrix(8.9664,0,0,-8.9664,249.1841,45.787263)"/>
<use xlink:href="#font_8_1" transform="matrix(8.9664,0,0,-8.9664,258.78559,47.024625)"/>
<use xlink:href="#font_7_f" transform="matrix(8.9664,0,0,-8.9664,265.77586,46.925996)"/>
<use xlink:href="#font_7_6" transform="matrix(8.9664,0,0,-8.9664,273.6663,47.024625)"/>
<use xlink:href="#font_7_d" transform="matrix(8.9664,0,0,-8.9664,278.02397,46.925996)"/>
<use xlink:href="#font_7_8" transform="matrix(8.9664,0,0,-8.9664,282.91065,47.024625)"/>
<use xlink:href="#font_7_14" transform="matrix(8.9664,0,0,-8.9664,286.75727,47.024625)"/>
<use xlink:href="#font_7_15" transform="matrix(8.9664,0,0,-8.9664,293.93037,47.024625)"/>
<use xlink:href="#font_7_b" transform="matrix(8.9664,0,0,-8.9664,297.0596,46.925996)"/>
<use xlink:href="#font_7_8" transform="matrix(8.9664,0,0,-8.9664,302.4215,47.024625)"/>
<use xlink:href="#font_7_f" transform="matrix(8.9664,0,0,-8.9664,306.27708,46.925996)"/>
<use xlink:href="#font_7_17" transform="matrix(8.9664,0,0,-8.9664,317.49406,47.024625)"/>
<use xlink:href="#font_7_6" transform="matrix(8.9664,0,0,-8.9664,321.58274,47.024625)"/>
<use xlink:href="#font_7_10" transform="matrix(8.9664,0,0,-8.9664,325.98524,46.925996)"/>
<use xlink:href="#font_7_c" transform="matrix(8.9664,0,0,-8.9664,331.114,46.925996)"/>
<use xlink:href="#font_7_14" transform="matrix(8.9664,0,0,-8.9664,333.6605,47.024625)"/>
<use xlink:href="#font_7_b" transform="matrix(8.9664,0,0,-8.9664,337.3008,46.925996)"/>
<use xlink:href="#font_7_2" transform="matrix(8.9664,0,0,-8.9664,342.9676,46.925996)"/>
</svg>
