<?xml version="1.0" encoding="UTF-8" standalone="no"?>
<!DOCTYPE svg PUBLIC "-//W3C//DTD SVG 1.1//EN" "http://www.w3.org/Graphics/SVG/1.1/DTD/svg11.dtd">
<svg xmlns="http://www.w3.org/2000/svg" xmlns:xlink="http://www.w3.org/1999/xlink" version="1.1" width="216.739pt" height="181.686pt" viewBox="0 0 216.739 181.686">
<path transform="matrix(1,0,0,-1,9.759,416.758)" stroke-width="1" stroke-linecap="butt" stroke-miterlimit="10" stroke-linejoin="miter" fill="none" stroke="#808080" d="M 0 320.66673 L 0 324.9187 M 48.56728 320.66673 L 48.56728 324.9187 M 145.70183 320.66673 L 145.70183 324.9187 M 194.26912 320.66673 L 194.26912 324.9187 "/>
<path transform="matrix(1,0,0,-1,9.759,416.758)" stroke-width="1" stroke-linecap="butt" stroke-miterlimit="10" stroke-linejoin="miter" fill="none" stroke="#808080" d="M 95.00867 242.09455 L 99.26042 242.09455 M 95.00867 282.44364 L 99.26042 282.44364 M 95.00867 363.1418 L 99.26042 363.1418 M 95.00867 403.4909 L 99.26042 403.4909 "/>
<path transform="matrix(1,0,0,-1,9.759,416.758)" stroke-width="1" stroke-linecap="butt" stroke-miterlimit="10" stroke-linejoin="miter" fill="none" stroke="#000000" d="M 0 322.79273 L 192.2766 322.79273 "/>
<path transform="matrix(1,0,0,-1,202.0356,93.96527)" d="M 1.99252 0 L -1.19551 1.59401 L 0 0 L -1.19551 -1.59401 "/>
<path transform="matrix(1,0,0,-1,9.759,416.758)" stroke-width="1" stroke-linecap="butt" stroke-miterlimit="10" stroke-linejoin="miter" fill="none" stroke="#000000" d="M 97.13455 242.09455 L 97.13455 401.49839 "/>
<path transform="matrix(0,-1,-1,-0,106.893558,15.259613)" d="M 1.99252 0 L -1.19551 1.59401 L 0 0 L -1.19551 -1.59401 "/>
<symbol id="font_0_1">
<path d="M .57600006 0 C .59300008 0 .611 0 .611 .019999996 C .611 .040000008 .59300008 .040000008 .57600006 .040000008 L .035000005 .040000008 C .018 .040000008 0 .040000008 0 .019999996 C 0 0 .018 0 .035000005 0 L .57600006 0 Z "/>
</symbol>
<use xlink:href="#font_0_1" transform="matrix(9.9626,0,0,-9.9626,4.220896,103.817607)"/>
<symbol id="font_1_2">
<path d="M .07700001 .07700001 L .18300002 .18 C .33900003 .31800003 .39900003 .372 .39900003 .47200004 C .39900003 .586 .30900003 .666 .18700002 .666 C .074 .666 0 .574 0 .485 C 0 .42900003 .05 .42900003 .053000008 .42900003 C .07000001 .42900003 .105000007 .441 .105000007 .48200003 C .105000007 .508 .08700001 .53400006 .052000006 .53400006 C .044000005 .53400006 .042000008 .53400006 .039 .53300008 C .062000004 .59800007 .11600001 .63500007 .17400001 .63500007 C .26500003 .63500007 .308 .554 .308 .47200004 C .308 .39200003 .25800003 .31300003 .20300003 .25100003 L .011000004 .037 C 0 .026 0 .024 0 0 L .37100003 0 L .39900003 .17400001 L .374 .17400001 C .36900003 .14400001 .36200003 .1 .352 .085 C .345 .07700001 .279 .07700001 .257 .07700001 L .07700001 .07700001 Z "/>
</symbol>
<use xlink:href="#font_1_2" transform="matrix(9.9626,0,0,-9.9626,11.6411299,106.109)"/>
<use xlink:href="#font_0_1" transform="matrix(9.9626,0,0,-9.9626,52.787897,103.817607)"/>
<symbol id="font_1_1">
<path d="M .205 .64000007 C .205 .66400006 .205 .666 .18200003 .666 C .120000008 .60200008 .032000007 .60200008 0 .60200008 L 0 .57100006 C .020000004 .57100006 .07900001 .57100006 .13100001 .597 L .13100001 .079 C .13100001 .043 .128 .031000002 .038000004 .031000002 L .0060000049 .031000002 L .0060000049 0 C .04100001 .003 .128 .003 .168 .003 C .20800002 .003 .29500003 .003 .33000005 0 L .33000005 .031000002 L .29800005 .031000002 C .20800002 .031000002 .205 .042000005 .205 .079 L .205 .64000007 Z "/>
</symbol>
<use xlink:href="#font_1_1" transform="matrix(9.9626,0,0,-9.9626,60.596673,106.109)"/>
<use xlink:href="#font_1_1" transform="matrix(9.9626,0,0,-9.9626,153.85569,106.109)"/>
<use xlink:href="#font_1_2" transform="matrix(9.9626,0,0,-9.9626,202.03313,106.109)"/>
<use xlink:href="#font_0_1" transform="matrix(9.9626,0,0,-9.9626,89.2699,175.1706)"/>
<use xlink:href="#font_1_2" transform="matrix(9.9626,0,0,-9.9626,96.69013,177.46199)"/>
<use xlink:href="#font_0_1" transform="matrix(9.9626,0,0,-9.9626,89.2699,134.82161)"/>
<use xlink:href="#font_1_1" transform="matrix(9.9626,0,0,-9.9626,97.078678,137.113)"/>
<use xlink:href="#font_1_1" transform="matrix(9.9626,0,0,-9.9626,97.078678,56.831)"/>
<use xlink:href="#font_1_2" transform="matrix(9.9626,0,0,-9.9626,96.69013,16.481995)"/>
<clipPath id="cp2">
<path transform="matrix(1,0,0,-1,9.759,416.758)" d="M 0 242.09455 L 194.26912 242.09455 L 194.26912 403.4909 L 0 403.4909 Z "/>
</clipPath>
<g clip-path="url(#cp2)">
<path transform="matrix(1,0,0,-1,9.759,416.758)" stroke-width="1.19553" stroke-linecap="butt" stroke-miterlimit="10" stroke-linejoin="miter" fill="none" stroke="#000080" d="M 0 0 C 0 0 5.84831 55.29128 8.0945 74.15973 C 10.34068 93.02818 13.94283 120.38783 16.18901 135.99068 C 18.4352 151.5935 22.03734 173.96595 24.28352 186.6141 C 26.52971 199.26229 30.13185 217.14542 32.37804 227.14987 C 34.62422 237.15433 38.22635 251.04747 40.47253 258.71928 C 42.71872 266.3911 46.32088 276.79286 48.56706 282.44309 C 50.81325 288.0933 54.41539 295.5025 56.66156 299.4421 C 58.90775 303.38175 62.50989 308.2971 64.75609 310.83714 C 67.00229 313.37715 70.60443 316.29747 72.85062 317.7489 C 75.09679 319.20036 78.69893 320.62434 80.94511 321.29823 C 83.1913 321.9721 86.79344 322.39854 89.03963 322.60588 C 91.28581 322.81327 94.88794 322.74089 97.13414 322.79273 C 99.38034 322.84455 102.98248 322.77217 105.22867 322.9795 C 107.47485 323.1868 111.07698 323.61317 113.32317 324.287 C 115.56935 324.96083 119.17151 326.3847 121.4177 327.83604 C 123.66388 329.28739 127.26602 332.2075 129.51219 334.7474 C 131.75838 337.28733 135.36052 342.20246 137.60672 346.1419 C 139.85292 350.08137 143.45507 357.4903 145.70125 363.14033 C 147.94742 368.79035 151.54956 379.19184 153.79575 386.86344 C 156.04193 394.53504 159.64408 408.42765 161.89026 418.4319 C 164.13645 428.43614 167.73859 446.31929 169.98477 458.96717 C 172.23096 471.61503 175.8331 493.9866 178.07929 509.58909 C 180.32547 525.1916 183.9276 552.5508 186.17378 571.4189 C 188.41997 590.28707 194.26831 645.57736 194.26831 645.57736 "/>
<path transform="matrix(1,0,0,-1,9.759,416.758)" stroke-width="1.19553" stroke-linecap="butt" stroke-miterlimit="10" stroke-linejoin="miter" fill="none" stroke="#800000" d="M 97.62022 331.48554 C 97.62022 331.48554 98.32553 334.48448 98.59642 335.3441 C 98.86731 336.2037 99.30174 337.11164 99.57263 337.68113 C 99.84352 338.25065 100.27794 339.00148 100.54883 339.4488 C 100.81972 339.89619 101.25414 340.5298 101.52502 340.90544 C 101.7959 341.28108 102.23035 341.82865 102.50124 342.15623 C 102.77211 342.48384 103.20654 342.9737 103.47743 343.26667 C 103.7483 343.55964 104.18275 344.00175 104.45364 344.26774 C 104.72452 344.5337 105.15895 344.9395 105.42982 345.18367 C 105.70071 345.42778 106.13516 345.80055 106.40604 346.02735 C 106.67693 346.25413 107.11136 346.6054 107.38223 346.81819 C 107.65312 347.03099 108.08757 347.36174 108.35844 347.561 C 108.62933 347.7603 109.06375 348.0665 109.33464 348.2546 C 109.60553 348.4427 110.03995 348.7375 110.31084 348.91673 C 110.58173 349.09599 111.01616 349.3758 111.28705 349.54658 C 111.55794 349.71739 111.99237 349.9843 112.26326 350.14778 C 112.53415 350.31126 112.96857 350.56803 113.23946 350.7248 C 113.51033 350.88154 113.94476 351.12696 114.21565 351.27754 C 114.48653 351.42817 114.92097 351.66514 115.19186 351.81019 C 115.46274 351.9552 115.89717 352.1824 116.16806 352.323 C 116.43893 352.46363 116.87338 352.68766 117.14426 352.82374 C 117.41515 352.9598 117.84958 353.17289 118.12045 353.3039 C 118.39134 353.43489 118.82579 353.64085 119.09666 353.7679 C 119.36755 353.89497 119.80199 354.0961 120.07286 354.21983 C 120.34375 354.34355 120.77818 354.53926 121.04907 354.6596 C 121.31996 354.77998 121.75438 354.9697 122.02527 355.0873 C 122.29616 355.20494 122.73058 355.3931 123.00146 355.50736 C 123.27235 355.6216 123.70679 355.79994 123.97768 355.91084 C 124.24857 356.02174 124.68298 356.198 124.95387 356.30668 C 125.22475 356.41535 125.6592 356.58766 125.93008 356.69404 C 126.20096 356.80039 126.63539 356.9692 126.90628 357.0733 C 127.17715 357.17744 127.6116 357.34266 127.88249 357.44453 C 128.15337 357.5464 128.5878 357.708 128.85868 357.80766 C 129.12957 357.9073 129.564 358.06526 129.83487 358.16273 C 130.10576 358.2602 130.5402 358.4144 130.81108 358.51014 C 131.08197 358.60588 131.51642 358.7581 131.7873 358.8527 C 132.05818 358.9473 132.4926 359.09956 132.76349 359.19203 C 133.03438 359.2845 133.4688 359.42915 133.73969 359.51927 C 134.01058 359.60939 134.445 359.75267 134.7159 359.84165 C 134.98679 359.93067 135.4212 360.0729 135.6921 360.1608 C 135.96298 360.2487 136.39742 360.3889 136.6683 360.47514 C 136.93918 360.5614 137.37361 360.698 137.6445 360.7826 C 137.91538 360.86717 138.34983 361.00148 138.62071 361.0848 C 138.89159 361.16816 139.32602 361.30165 139.59691 361.3834 C 139.86779 361.4651 140.30222 361.59327 140.57309 361.6739 C 140.84398 361.75459 141.27843 361.88468 141.5493 361.9648 C 141.82019 362.04499 142.25463 362.17335 142.5255 362.2517 C 142.79639 362.33009 143.23084 362.4525 143.50171 362.52973 C 143.7726 362.6069 144.20702 362.732 144.4779 362.8081 C 144.7488 362.88426 145.18323 363.0044 145.45412 363.07847 C 145.725 363.1525 146.15943 363.2685 146.43032 363.34193 C 146.7012 363.41539 147.13562 363.53456 147.40651 363.60783 C 147.6774 363.6811 148.11183 363.79768 148.38272 363.8701 C 148.6536 363.94255 149.08803 364.05848 149.35892 364.12998 C 149.62979 364.20143 150.06423 364.31489 150.33512 364.38536 C 150.60599 364.45585 151.04044 364.56825 151.31133 364.63795 C 151.5822 364.70765 152.01663 364.8187 152.2875 364.8877 C 152.5584 364.95674 152.99283 365.06733 153.2637 365.13545 C 153.53459 365.20359 153.96903 365.3115 154.2399 365.37879 C 154.51079 365.44606 154.94524 365.55384 155.21611 365.62046 C 155.487 365.68708 155.92142 365.793 156.1923 365.8589 C 156.4632 365.9248 156.89762 366.0303 157.1685 366.09535 C 157.43939 366.1604 157.87383 366.26344 158.14472 366.32777 C 158.4156 366.3921 158.85002 366.49507 159.12091 366.559 C 159.3918 366.6229 159.82622 366.72547 160.0971 366.78858 C 160.36798 366.85166 160.80243 366.95146 161.07332 367.0137 C 161.3442 367.07594 161.77863 367.17539 162.04952 367.23725 C 162.32039 367.2991 162.75482 367.39833 163.02571 367.45957 C 163.29659 367.5208 163.73104 367.6181 164.0019 367.67869 C 164.2728 367.73924 164.70723 367.836 164.9781 367.89613 C 165.249 367.95628 165.68343 368.05256 165.9543 368.112 C 166.22519 368.17146 166.65962 368.26588 166.9305 368.32466 C 167.20139 368.38343 167.63582 368.47734 167.90671 368.53569 C 168.1776 368.594 168.61202 368.68733 168.8829 368.74507 C 169.1538 368.80284 169.58821 368.89476 169.8591 368.95207 C 170.12999 369.0094 170.56443 369.10139 170.83531 369.15827 C 171.1062 369.21513 171.54062 369.30577 171.81151 369.362 C 172.08238 369.4183 172.51682 369.50788 172.7877 369.56379 C 173.05858 369.61967 173.49303 369.7098 173.76392 369.7651 C 174.03479 369.8204 174.46923 369.90785 174.74011 369.96244 C 175.01099 370.017 175.44542 370.10408 175.7163 370.1585 C 175.98719 370.21299 176.42162 370.30094 176.69249 370.355 C 176.96338 370.4091 177.39783 370.49473 177.6687 370.5483 C 177.93959 370.60188 178.37403 370.68794 178.6449 370.74119 C 178.91579 370.7944 179.35022 370.8794 179.6211 370.932 C 179.89199 370.98463 180.32642 371.0682 180.5973 371.12046 C 180.8682 371.17265 181.30261 371.25645 181.5735 371.30848 C 181.84439 371.36048 182.27881 371.4439 182.5497 371.4953 C 182.82059 371.54667 183.25502 371.62788 183.52591 371.67887 C 183.79679 371.72984 184.23122 371.8123 184.5021 371.86286 C 184.77298 371.9134 185.20742 371.99308 185.4783 372.04325 C 185.74918 372.09339 186.18363 372.17436 186.45452 372.22438 C 186.72539 372.27445 187.15982 372.3544 187.4307 372.40394 C 187.70159 372.4535 188.13602 372.53227 188.40689 372.58149 C 188.67778 372.63069 189.11222 372.70964 189.38309 372.7586 C 189.65398 372.8076 190.08843 372.886 190.3593 372.9345 C 190.63019 372.98307 191.06462 373.06013 191.3355 373.10844 C 191.60639 373.15675 192.0408 373.23454 192.31169 373.2827 C 192.58258 373.33094 193.01702 373.40837 193.2879 373.45585 C 193.55879 373.5033 194.2641 373.6249 194.2641 373.6249 "/>
<path transform="matrix(1,0,0,-1,9.759,416.758)" stroke-width="1.19553" stroke-linecap="butt" stroke-miterlimit="10" stroke-linejoin="miter" fill="none" stroke="#800000" d="M 0 271.9593 C 0 271.9593 .7053 272.08357 .97618 272.1312 C 1.24707 272.17887 1.6815 272.25508 1.95238 272.3027 C 2.22327 272.35035 2.6577 272.4262 2.92857 272.47456 C 3.19946 272.52293 3.63391 272.60246 3.90479 272.6513 C 4.17567 272.70018 4.61009 272.77818 4.88098 272.8268 C 5.15187 272.87547 5.58629 272.95274 5.85718 273.00196 C 6.12807 273.05116 6.5625 273.13185 6.83339 273.1815 C 7.10428 273.23115 7.5387 273.31007 7.80959 273.35984 C 8.08046 273.40959 8.5149 273.48988 8.78578 273.5402 C 9.05666 273.5905 9.4911 273.6719 9.762 273.7226 C 10.03287 273.77323 10.4673 273.85435 10.73819 273.90538 C 11.00906 273.95634 11.4435 274.03865 11.71439 274.09016 C 11.98526 274.14167 12.4197 274.22474 12.69057 274.27659 C 12.96146 274.3284 13.3959 274.4116 13.66678 274.46379 C 13.93767 274.516 14.3721 274.60026 14.64297 274.653 C 14.91386 274.7058 15.3483 274.79133 15.61917 274.84428 C 15.89006 274.89723 16.3245 274.98115 16.59538 275.0347 C 16.86627 275.0883 17.30069 275.17613 17.57158 275.2304 C 17.84247 275.2847 18.27689 275.3718 18.54778 275.4261 C 18.81866 275.4804 19.2531 275.56724 19.52399 275.6218 C 19.79488 275.6764 20.2293 275.76405 20.50018 275.8195 C 20.77106 275.87498 21.20549 275.9658 21.47638 276.02168 C 21.74725 276.07756 22.1817 276.166 22.45259 276.22218 C 22.72346 276.2784 23.1579 276.36979 23.42879 276.42677 C 23.69966 276.48374 24.1341 276.57569 24.40497 276.63298 C 24.67586 276.69023 25.11029 276.78187 25.38116 276.8395 C 25.65205 276.8972 26.0865 276.99015 26.35738 277.04856 C 26.62827 277.10694 27.0627 277.20146 27.33357 277.26039 C 27.60446 277.3193 28.03888 277.4141 28.30977 277.47343 C 28.58066 277.53276 29.01509 277.62815 29.28598 277.68809 C 29.55687 277.74806 29.99129 277.84495 30.26218 277.90556 C 30.53307 277.9662 30.96748 278.0638 31.23837 278.12507 C 31.50926 278.18629 31.9437 278.28526 32.21458 278.347 C 32.48546 278.40873 32.91989 278.5078 33.19078 278.5701 C 33.46165 278.6324 33.89609 278.73295 34.16698 278.79609 C 34.43785 278.85923 34.87228 278.96144 35.14317 279.02525 C 35.41405 279.08909 35.8485 279.19163 36.11937 279.25605 C 36.39026 279.32048 36.82469 279.42445 37.09557 279.4897 C 37.36646 279.5549 37.80089 279.6603 38.07176 279.7261 C 38.34265 279.7919 38.7771 279.89726 39.04797 279.96376 C 39.31886 280.03028 39.75328 280.13819 40.02417 280.20549 C 40.29506 280.27275 40.72948 280.38059 41.00037 280.44877 C 41.27126 280.51695 41.70569 280.62788 41.97658 280.6969 C 42.24747 280.76594 42.68188 280.87663 42.95277 280.94627 C 43.22366 281.0159 43.65808 281.12837 43.92897 281.19886 C 44.19984 281.26933 44.6343 281.3828 44.90518 281.45429 C 45.17606 281.52577 45.61049 281.6417 45.88138 281.7141 C 46.15225 281.78657 46.58669 281.9031 46.85757 281.97639 C 47.12845 282.04966 47.56288 282.16929 47.83376 282.24229 C 48.10464 282.31529 48.5391 282.4283 48.80997 282.50254 C 49.08086 282.57679 49.5153 282.7012 49.78618 282.7773 C 50.05707 282.85346 50.4915 282.9741 50.76237 283.05128 C 51.03326 283.12849 51.46768 283.25474 51.73857 283.3337 C 52.00946 283.4127 52.44388 283.54106 52.71477 283.6206 C 52.98566 283.70018 53.42009 283.82643 53.69098 283.90708 C 53.96187 283.98777 54.3963 284.1197 54.66719 284.20204 C 54.93808 284.2844 55.3725 284.41728 55.64339 284.50065 C 55.91426 284.58399 56.34871 284.71827 56.6196 284.80284 C 56.89047 284.88743 57.3249 285.02403 57.5958 285.1103 C 57.86667 285.19654 58.3011 285.33735 58.57199 285.42463 C 58.84286 285.5119 59.27731 285.65034 59.54819 285.73936 C 59.81908 285.82835 60.25351 285.97544 60.52438 286.06617 C 60.79527 286.1569 61.22972 286.30155 61.5006 286.3934 C 61.77148 286.48527 62.20592 286.63426 62.47679 286.7283 C 62.74768 286.82234 63.18211 286.97554 63.453 287.07127 C 63.72389 287.167 64.15831 287.32026 64.4292 287.41828 C 64.70009 287.51628 65.1345 287.6781 65.4054 287.77778 C 65.67628 287.87748 66.11072 288.03556 66.3816 288.13688 C 66.6525 288.2382 67.08691 288.404 67.3578 288.5081 C 67.62868 288.6122 68.06313 288.78096 68.33401 288.88737 C 68.60489 288.99378 69.03934 289.16648 69.31023 289.27513 C 69.5811 289.3838 70.01553 289.55915 70.28642 289.67057 C 70.5573 289.78196 70.99173 289.96388 71.2626 290.0781 C 71.5335 290.1923 71.96794 290.37669 72.23882 290.49369 C 72.5097 290.61067 72.94414 290.80097 73.21501 290.92137 C 73.4859 291.0418 73.92035 291.23783 74.19122 291.3616 C 74.46211 291.48536 74.89653 291.68638 75.16742 291.81349 C 75.43831 291.94065 75.87274 292.14637 76.14363 292.27793 C 76.41452 292.4095 76.84894 292.6256 77.11983 292.7617 C 77.39072 292.89778 77.82513 293.11878 78.09602 293.2588 C 78.36691 293.3988 78.80135 293.6259 79.07224 293.77085 C 79.34311 293.91578 79.77754 294.15287 80.04843 294.30345 C 80.3193 294.45405 80.75375 294.69938 81.02464 294.85624 C 81.29552 295.01307 81.72995 295.27043 82.00084 295.434 C 82.27171 295.5976 82.70616 295.86448 82.97704 296.03523 C 83.24792 296.20597 83.68236 296.48554 83.95323 296.66468 C 84.22412 296.8438 84.65855 297.13774 84.92943 297.3264 C 85.20032 297.51506 85.63477 297.8251 85.90564 298.02445 C 86.17653 298.22377 86.61095 298.5515 86.88184 298.7632 C 87.15273 298.97496 87.58716 299.3236 87.85805 299.5504 C 88.12894 299.77729 88.56337 300.15348 88.83426 300.39817 C 89.10515 300.64286 89.53957 301.04869 89.81046 301.3141 C 90.08134 301.5795 90.51576 302.01878 90.78665 302.3111 C 91.05753 302.60346 91.49197 303.093 91.76286 303.4211 C 92.03374 303.74925 92.46817 304.30036 92.73906 304.676 C 93.00993 305.0516 93.44438 305.68174 93.71527 306.12855 C 93.98615 306.57536 94.42058 307.32777 94.69145 307.8962 C 94.96234 308.4647 95.39679 309.36875 95.66766 310.2256 C 95.93855 311.0824 96.64386 314.07167 96.64386 314.07167 "/>
<path transform="matrix(1,0,0,-1,9.759,416.758)" stroke-width="1.19553" stroke-linecap="butt" stroke-miterlimit="10" stroke-linejoin="miter" fill="none" stroke="#800000" d="M 97.62022 331.46778 L 96.64888 314.11766 "/>
<path transform="matrix(1,0,0,-1,9.759,416.758)" stroke-width="1" stroke-linecap="butt" stroke-dasharray="2.98883,2.98883" stroke-miterlimit="10" stroke-linejoin="miter" fill="none" stroke="#000000" d="M 0 242.09455 L 8.0945 248.81935 L 16.18901 255.54418 L 24.28352 262.269 L 32.37804 268.9938 L 40.47253 275.71864 L 48.56706 282.44346 L 56.66156 289.16828 L 64.75609 295.8931 L 72.85062 302.61793 L 80.94511 309.34275 L 89.03963 316.06755 L 97.13414 322.7924 L 105.22867 329.5172 L 113.32317 336.24205 L 121.4177 342.96684 L 129.51219 349.69169 L 137.60672 356.4165 L 145.70125 363.1413 L 153.79575 369.86613 L 161.89026 376.59098 L 169.98477 383.31578 L 178.07929 390.0406 L 186.17378 396.7654 L 194.26831 403.49024 "/>
<symbol id="font_3_1">
<path d="M .314 .605 L .4 .605 C .42000003 .605 .43 .605 .43 .625 C .43 .63600006 .42000003 .63600006 .40300004 .63600006 L .32000003 .63600006 L .34100003 .75 C .34500004 .771 .35900004 .842 .365 .8540001 C .374 .873 .39100004 .888 .41200004 .888 C .416 .888 .44200004 .888 .461 .87 C .41700004 .86600008 .407 .8310001 .407 .816 C .407 .793 .425 .781 .444 .781 C .47 .781 .49900005 .8030001 .49900005 .8410001 C .49900005 .8870001 .45300005 .9100001 .41200004 .9100001 C .37800003 .9100001 .31500004 .8920001 .28500004 .793 C .279 .7720001 .27600003 .7620001 .252 .63600006 L .18300002 .63600006 C .164 .63600006 .15300001 .63600006 .15300001 .61700007 C .15300001 .605 .162 .605 .18100001 .605 L .24700001 .605 L .172 .21000001 C .15400002 .113000009 .13700001 .022 .08500001 .022 C .081 .022 .056 .022 .037 .040000008 C .083000008 .043000014 .09200001 .07900001 .09200001 .094000007 C .09200001 .117000009 .074 .12900001 .055 .12900001 C .029 .12900001 0 .10700001 0 .069000009 C 0 .024000004 .044 0 .08500001 0 C .14 0 .18 .059 .19800002 .09700001 C .23000002 .16000001 .25300003 .28100003 .254 .28800003 L .314 .605 Z "/>
</symbol>
<use xlink:href="#font_3_1" transform="matrix(9.9626,0,0,-9.9626,55.879018,159.02533)" fill="#000080"/>
<use xlink:href="#font_3_1" transform="matrix(9.9626,0,0,-9.9626,171.94802,63.033338)" fill="#800000"/>
<symbol id="font_4_1">
<path d="M .63600006 0 C .65200009 0 .67600008 0 .67600008 .023999989 C .67600008 .048999996 .65300008 .048999996 .63600006 .048999996 L .04 .048999996 C .023999997 .048999996 0 .048999996 0 .025000006 C 0 0 .02300001 0 .04 0 L .63600006 0 Z "/>
</symbol>
<use xlink:href="#font_4_1" transform="matrix(6.9738,0,0,-6.9738,178.12317,55.300928)" fill="#800000"/>
<symbol id="font_5_1">
<path d="M .22600001 .63600006 C .22600001 .66300007 .224 .66400006 .19600001 .66400006 C .132 .601 .041 .6 0 .6 L 0 .564 C .023999997 .564 .09000001 .564 .14500001 .592 L .14500001 .082 C .14500001 .049000004 .14500001 .036000004 .04500001 .036000004 L .0069999995 .036000004 L .0069999995 0 C .024999999 .001 .148 .004 .185 .004 C .21600002 .004 .34200005 .001 .36400003 0 L .36400003 .036000004 L .32600004 .036000004 C .22600001 .036000004 .22600001 .049000004 .22600001 .082 L .22600001 .63600006 Z "/>
</symbol>
<use xlink:href="#font_5_1" transform="matrix(6.9738,0,0,-6.9738,184.35614,56.877008)" fill="#800000"/>
</g>
<symbol id="font_3_2">
<path d="M .305 .31300003 C .311 .33900003 .334 .43100003 .404 .43100003 C .409 .43100003 .433 .43100003 .454 .418 C .426 .41300003 .40600003 .388 .40600003 .36400003 C .40600003 .34800003 .417 .32900004 .444 .32900004 C .46600003 .32900004 .498 .34700004 .498 .38700003 C .498 .43900005 .439 .45300005 .405 .45300005 C .347 .45300005 .312 .40000005 .3 .37700004 C .275 .44300003 .221 .45300005 .19200002 .45300005 C .08800001 .45300005 .031000002 .32400004 .031000002 .29900003 C .031000002 .28900004 .041 .28900004 .043000007 .28900004 C .051000008 .28900004 .054000006 .291 .056 .3 C .09 .40600003 .156 .43100003 .19000001 .43100003 C .209 .43100003 .244 .42200003 .244 .36400003 C .244 .33300004 .22700002 .26600004 .19000001 .126 C .17400001 .064 .13900002 .022000002 .095000009 .022000002 C .08900001 .022000002 .06600001 .022000002 .045 .035 C .07000001 .040000004 .09200001 .061 .09200001 .089 C .09200001 .116000007 .07000001 .124000009 .055000009 .124000009 C .025 .124000009 0 .098000008 0 .06600001 C 0 .020000002 .050000006 0 .094000007 0 C .16000001 0 .19600001 .07000001 .19900002 .076000008 C .21100001 .039 .24700003 0 .307 0 C .41 0 .467 .12900001 .467 .15400002 C .467 .16400002 .458 .16400002 .455 .16400002 C .446 .16400002 .444 .16000001 .442 .15300001 C .409 .046 .341 .022000002 .30900003 .022000002 C .27 .022000002 .254 .054 .254 .08800001 C .254 .11000001 .26 .13200002 .271 .17600002 L .305 .31300003 Z "/>
</symbol>
<use xlink:href="#font_3_2" transform="matrix(9.9626,0,0,-9.9626,207.93991,96.17258)"/>
<symbol id="font_3_3">
<path d="M .45700003 .586 C .461 .6 .461 .602 .461 .609 C .461 .62700006 .447 .63600006 .432 .63600006 C .42200003 .63600006 .40600003 .63 .397 .615 C .395 .61 .387 .579 .38300003 .561 C .37600003 .535 .36900003 .508 .363 .48100005 L .318 .301 C .314 .286 .271 .21600002 .20500002 .21600002 C .15400002 .21600002 .143 .26000003 .143 .29700003 C .143 .34300003 .16000001 .40500004 .194 .49300004 C .21000001 .53400006 .21400002 .545 .21400002 .56500008 C .21400002 .61 .18200001 .6470001 .13200002 .6470001 C .037 .6470001 0 .50200006 0 .49300004 C 0 .48300005 .01 .48300005 .012 .48300005 C .022000002 .48300005 .023 .485 .028000003 .50100007 C .055000009 .595 .095000009 .625 .12900001 .625 C .13700001 .625 .15400002 .625 .15400002 .59300008 C .15400002 .568 .14400001 .54200008 .13700001 .523 C .097 .41700004 .079 .36 .079 .31300003 C .079 .224 .142 .194 .201 .194 C .24000003 .194 .274 .21100001 .30200003 .23900002 C .289 .187 .277 .13800001 .237 .08500001 C .21100001 .051 .17300001 .022 .127 .022 C .113000009 .022 .068 .025000006 .051000008 .06400001 C .067 .06400001 .080000009 .06400001 .094000007 .076000008 C .104 .08500001 .11400001 .098000008 .11400001 .117000009 C .11400001 .148 .087000008 .15200001 .07700001 .15200001 C .054000006 .15200001 .021 .136 .021 .087000008 C .021 .037 .065000008 0 .127 0 C .23 0 .333 .091000009 .361 .20400001 L .45700003 .586 Z "/>
</symbol>
<use xlink:href="#font_3_3" transform="matrix(9.9626,0,0,-9.9626,104.57892,9.726324)"/>
</svg>
