<?xml version="1.0" encoding="UTF-8" standalone="no"?>
<!DOCTYPE svg PUBLIC "-//W3C//DTD SVG 1.1//EN" "http://www.w3.org/Graphics/SVG/1.1/DTD/svg11.dtd">
<svg xmlns="http://www.w3.org/2000/svg" xmlns:xlink="http://www.w3.org/1999/xlink" version="1.1" width="233.869pt" height="55.913pt" viewBox="0 0 233.869 55.913">
<symbol id="font_0_1">
<path d="M .501 .284 C .448 .34600003 .43199999 .363 .394 .39000003 C .333 .43400003 .269 .451 .214 .451 C .09 .451 0 .345 0 .22500001 C 0 .108 .085999999 0 .21100001 0 C .35000003 0 .44700004 .114 .48299999 .16700001 C .536 .105000007 .552 .088 .59000006 .061000006 C .651 .017 .71500006 0 .77000007 0 C .89400008 0 .9840001 .106 .9840001 .22600001 C .9840001 .343 .898 .451 .773 .451 C .634 .451 .537 .337 .501 .284 M .533 .24700003 C .573 .312 .66 .41300003 .782 .41300003 C .88500007 .41300003 .956 .322 .956 .22600001 C .956 .13000001 .878 .055000005 .786 .055000005 C .693 .055000005 .629 .13100001 .533 .24700003 M .45099999 .20400001 C .411 .13900002 .324 .038000004 .202 .038000004 C .09900001 .038000004 .027999998 .12900001 .027999998 .22500001 C .027999998 .321 .106000009 .396 .198 .396 C .291 .396 .35500003 .32 .45099999 .20400001 Z "/>
</symbol>
<use xlink:href="#font_0_1" transform="matrix(6.9738,0,0,-6.9738,7.20498,7.4627397)"/>
<symbol id="font_1_3">
<path d="M 1.21 0 L 1.3310001 .32000006 L 1.3060001 .32000006 C 1.2670001 .21600008 1.161 .148 1.046 .11800003 C 1.0250001 .113000039 .92700007 .08700001 .735 .08700001 L .132 .08700001 L .64100006 .6840001 C .64800009 .6920001 .65000006 .69500008 .65000006 .70000007 C .65000006 .7020001 .65000006 .70500007 .64300009 .71500006 L .17700002 1.3520001 L .725 1.3520001 C .859 1.3520001 .95000007 1.338 .9590001 1.3360001 C 1.013 1.3280001 1.1 1.3110001 1.179 1.261 C 1.2040001 1.2450001 1.2720001 1.2 1.3060001 1.1190001 L 1.3310001 1.1190001 L 1.21 1.4000001 L .028000005 1.4000001 C .0050000029 1.4000001 .0040000008 1.399 .001000002 1.3930001 C 0 1.3900001 0 1.371 0 1.3600001 L .52900007 .63600006 L .011 .029000044 C .001000002 .01700008 .001000002 .012000084 .001000002 .011000037 C .001000002 0 .009999998 0 .028000005 0 L 1.21 0 Z "/>
</symbol>
<use xlink:href="#font_1_3" transform="matrix(9.9626,0,0,-9.9626,4.001903,24.32964)"/>
<symbol id="font_2_1">
<path d="M .23800002 .674 C .23900001 .676 .242 .689 .242 .69 C .242 .69500008 .23800002 .704 .22600003 .704 C .20600002 .704 .12300001 .69600006 .098000008 .694 C .09 .693 .076000008 .69200006 .076000008 .671 C .076000008 .657 .09 .657 .102 .657 C .15 .657 .15 .65000006 .15 .642 C .15 .635 .148 .629 .14600002 .62 L .0050000029 .054000006 C 0 .036000004 0 .034 0 .032 C 0 .017 .012000002 0 .034 0 C .061000006 0 .074 .020000002 .08 .042000005 C .082 .046000005 .125 .22200002 .12900001 .23600002 C .2 .22900002 .25700004 .20600002 .25700004 .15400002 C .25700004 .14900002 .25700004 .14400001 .255 .134 C .251 .119 .251 .114 .251 .103 C .251 .032 .30900003 0 .357 0 C .45400007 0 .48400004 .15200001 .48400004 .15300001 C .48400004 .16600001 .47100003 .16600001 .46800006 .16600001 C .45400007 .16600001 .453 .16100002 .448 .142 C .43600006 .099 .40900005 .028 .36 .028 C .333 .028 .325 .053000004 .325 .08 C .325 .097 .325 .099 .33100004 .125 C .33200003 .128 .33600004 .14500001 .33600004 .15600002 C .33600004 .24500002 .216 .259 .17400001 .262 C .20300003 .28 .24000003 .313 .25700004 .328 C .30800004 .37600003 .35800005 .423 .41400004 .423 C .42600007 .423 .439 .42000003 .44700004 .41 C .40400005 .403 .39500005 .36900003 .39500005 .354 C .39500005 .33200003 .412 .317 .43500007 .317 C .462 .317 .49200005 .33900003 .49200005 .381 C .49200005 .414 .46800006 .451 .41500003 .451 C .35800005 .451 .306 .41 .255 .363 C .21300002 .323 .18000002 .292 .13900002 .275 L .23800002 .674 Z "/>
</symbol>
<use xlink:href="#font_2_1" transform="matrix(6.9738,0,0,-6.9738,3.9170325,31.898739)"/>
<symbol id="font_3_3">
<path d="M .698 .22000003 C .71300008 .22000003 .73600009 .22000003 .73600009 .24500004 C .73600009 .26900003 .7120001 .26900003 .69900009 .26900003 L .037000009 .26900003 C .024000004 .26900003 0 .26900003 0 .24500004 C 0 .22000003 .023000002 .22000003 .038000004 .22000003 L .698 .22000003 M .69900009 0 C .7120001 0 .73600009 0 .73600009 .023999997 C .73600009 .049000004 .71300008 .049000004 .698 .049000004 L .038000004 .049000004 C .023000002 .049000004 0 .049000004 0 .023999997 C 0 0 .024000004 0 .037000009 0 L .69900009 0 Z "/>
</symbol>
<symbol id="font_3_1">
<path d="M .22600001 .63600006 C .22600001 .66300007 .224 .66400006 .19600001 .66400006 C .132 .601 .041 .6 0 .6 L 0 .564 C .023999997 .564 .09000001 .564 .14500001 .592 L .14500001 .082 C .14500001 .049000004 .14500001 .036000004 .04500001 .036000004 L .0069999995 .036000004 L .0069999995 0 C .024999999 .001 .148 .004 .185 .004 C .21600002 .004 .34200005 .001 .36400003 0 L .36400003 .036000004 L .32600004 .036000004 C .22600001 .036000004 .22600001 .049000004 .22600001 .082 L .22600001 .63600006 Z "/>
</symbol>
<use xlink:href="#font_3_3" transform="matrix(6.9738,0,0,-6.9738,8.286163,31.02004)"/>
<use xlink:href="#font_3_1" transform="matrix(6.9738,0,0,-6.9738,14.674165,31.829)"/>
<symbol id="font_4_1">
<path d="M .23200003 .00999999 C .23200003 .012999982 .23200003 .014999986 .215 .03199999 C .09 .15799999 .058 .347 .058 .5 C .058 .674 .096 .84800007 .21900001 .97300007 C .23200003 .985 .23200003 .98700007 .23200003 .99 C .23200003 .99700006 .22800002 1 .222 1 C .21200001 1 .12200001 .93200007 .06299999 .805 C .012000002 .69500008 0 .584 0 .5 C 0 .422 .011 .301 .066 .188 C .126 .065 .21200001 0 .222 0 C .22800002 0 .23200003 .0029999912 .23200003 .00999999 Z "/>
</symbol>
<use xlink:href="#font_4_1" transform="matrix(9.9626,0,0,-9.9626,21.727295,15.597652)"/>
<symbol id="font_5_1">
<path d="M .57600006 0 C .59300008 0 .611 0 .611 .019999996 C .611 .040000008 .59300008 .040000008 .57600006 .040000008 L .035000005 .040000008 C .018 .040000008 0 .040000008 0 .019999996 C 0 0 .018 0 .035000005 0 L .57600006 0 Z "/>
</symbol>
<use xlink:href="#font_5_1" transform="matrix(9.9626,0,0,-9.9626,25.441895,10.815604)"/>
<symbol id="font_4_4">
<path d="M .205 .64000007 C .205 .66400006 .205 .666 .18200003 .666 C .120000008 .60200008 .032000007 .60200008 0 .60200008 L 0 .57100006 C .020000004 .57100006 .07900001 .57100006 .13100001 .597 L .13100001 .079 C .13100001 .043 .128 .031000002 .038000004 .031000002 L .0060000049 .031000002 L .0060000049 0 C .04100001 .003 .128 .003 .168 .003 C .20800002 .003 .29500003 .003 .33000005 0 L .33000005 .031000002 L .29800005 .031000002 C .20800002 .031000002 .205 .042000005 .205 .079 L .205 .64000007 Z "/>
</symbol>
<symbol id="font_4_2">
<path d="M .232 .5 C .232 .578 .22100002 .699 .16600001 .81200006 C .106 .93500009 .020000004 1 .009999998 1 C .0040000008 1 0 .99600008 0 .99 C 0 .98700007 0 .985 .019000002 .967 C .117000009 .86800006 .174 .709 .174 .5 C .174 .329 .137 .153 .012999997 .026999996 C 0 .014999986 0 .012999982 0 .00999999 C 0 .003999993 .0040000008 0 .009999998 0 C .020000004 0 .11000001 .06799999 .169 .195 C .22 .305 .232 .416 .232 .5 Z "/>
</symbol>
<use xlink:href="#font_4_4" transform="matrix(9.9626,0,0,-9.9626,33.25067,13.107002)"/>
<use xlink:href="#font_4_2" transform="matrix(9.9626,0,0,-9.9626,37.913167,15.597652)"/>
<use xlink:href="#font_2_1" transform="matrix(6.9738,0,0,-6.9738,41.743036,9.5607399)"/>
<path transform="matrix(1,0,0,-1,20.740998,17.356003)" stroke-width="1" stroke-linecap="butt" stroke-miterlimit="10" stroke-linejoin="miter" fill="none" stroke="#000000" d="M 0 0 L 25.381 0 "/>
<symbol id="font_6_2">
<path d="M .232 .694 C .232 .695 .232 .705 .21900001 .705 C .19600001 .705 .122999999 .697 .097 .695 C .089 .694 .077999997 .693 .077999997 .675 C .077999997 .663 .087 .663 .102 .663 C .15 .663 .15200001 .656 .15200001 .646 L .149 .626 L .0040000008 .05 C 0 .036000004 0 .034 0 .028 C 0 .005000001 .02 0 .029000003 0 C .042 0 .057 .009000001 .06300001 .021000002 C .068 .030000002 .113000009 .21500002 .119 .24000003 C .153 .23700002 .23500002 .22100002 .23500002 .15500002 C .23500002 .14800002 .23500002 .14400001 .232 .134 C .23000002 .12200001 .22800002 .11000001 .22800002 .09900001 C .22800002 .040000004 .268 0 .32000003 0 C .35000003 0 .377 .016 .39900003 .053000004 C .42400003 .097 .435 .15200001 .435 .15400002 C .435 .16400002 .42600004 .16400002 .423 .16400002 C .41300003 .16400002 .412 .16000001 .409 .14600002 C .38900004 .07300001 .36600004 .022000002 .322 .022000002 C .303 .022000002 .29000003 .033000005 .29000003 .069000009 C .29000003 .086 .294 .109000008 .298 .12500002 C .30200003 .14200002 .30200003 .14600002 .30200003 .15600002 C .30200003 .22100002 .239 .25 .154 .261 C .185 .279 .21700001 .31100003 .24000001 .335 C .28800003 .388 .33400003 .43100003 .38300003 .43100003 C .38900004 .43100003 .39000003 .43100003 .39200003 .43000005 C .404 .42800004 .405 .42800004 .41300003 .42200003 C .41500003 .42100004 .41500003 .42000003 .41700004 .418 C .36900003 .41500003 .36 .37600003 .36 .36400003 C .36 .34800003 .37100003 .32900004 .398 .32900004 C .42400003 .32900004 .453 .351 .453 .39000003 C .453 .42000003 .43 .45300005 .38500003 .45300005 C .35700003 .45300005 .31100003 .44500003 .239 .365 C .20500002 .32700003 .16600001 .28700004 .128 .272 L .232 .694 Z "/>
</symbol>
<use xlink:href="#font_6_2" transform="matrix(9.9626,0,0,-9.9626,31.22894,26.78959)"/>
<symbol id="font_4_b">
<path d="M .63100007 .19400002 C .646 .19400002 .665 .19400002 .665 .214 C .665 .23400001 .646 .23400001 .632 .23400001 L .033 .23400001 C .019000002 .23400001 0 .23400001 0 .214 C 0 .19400002 .019000002 .19400002 .034 .19400002 L .63100007 .19400002 M .632 0 C .646 0 .665 0 .665 .02000001 C .665 .040000008 .646 .040000008 .63100007 .040000008 L .034 .040000008 C .019000002 .040000008 0 .040000008 0 .02000001 C 0 0 .019000002 0 .033 0 L .632 0 Z "/>
</symbol>
<use xlink:href="#font_4_b" transform="matrix(9.9626,0,0,-9.9626,50.642904,18.520976)"/>
<use xlink:href="#font_5_1" transform="matrix(9.9626,0,0,-9.9626,61.42789,17.554604)"/>
<symbol id="font_4_3">
<path d="M .35300002 .31300003 L .632 .31300003 C .646 .31300003 .665 .31300003 .665 .333 C .665 .35300002 .646 .35300002 .632 .35300002 L .35300002 .35300002 L .35300002 .633 C .35300002 .647 .35300002 .666 .33300004 .666 C .31300003 .666 .31300003 .647 .31300003 .633 L .31300003 .35300002 L .033 .35300002 C .019000002 .35300002 0 .35300002 0 .333 C 0 .31300003 .019000002 .31300003 .033 .31300003 L .31300003 .31300003 L .31300003 .033000005 C .31300003 .019000002 .31300003 0 .33300004 0 C .35300002 0 .35300002 .019000002 .35300002 .033000005 L .35300002 .31300003 Z "/>
</symbol>
<use xlink:href="#font_4_4" transform="matrix(9.9626,0,0,-9.9626,69.23567,19.846)"/>
<use xlink:href="#font_4_3" transform="matrix(9.9626,0,0,-9.9626,76.09991,20.672898)"/>
<use xlink:href="#font_4_4" transform="matrix(9.9626,0,0,-9.9626,87.589679,13.107002)"/>
<path transform="matrix(1,0,0,-1,86.703,17.356003)" stroke-width="1" stroke-linecap="butt" stroke-miterlimit="10" stroke-linejoin="miter" fill="none" stroke="#000000" d="M 0 0 L 4.981 0 "/>
<symbol id="font_4_5">
<path d="M .07700001 .07700001 L .18300002 .18 C .33900003 .31800003 .39900003 .372 .39900003 .47200004 C .39900003 .586 .30900003 .666 .18700002 .666 C .074 .666 0 .574 0 .485 C 0 .42900003 .05 .42900003 .053000008 .42900003 C .07000001 .42900003 .105000007 .441 .105000007 .48200003 C .105000007 .508 .08700001 .53400006 .052000006 .53400006 C .044000005 .53400006 .042000008 .53400006 .039 .53300008 C .062000004 .59800007 .11600001 .63500007 .17400001 .63500007 C .26500003 .63500007 .308 .554 .308 .47200004 C .308 .39200003 .25800003 .31300003 .20300003 .25100003 L .011000004 .037 C 0 .026 0 .024 0 0 L .37100003 0 L .39900003 .17400001 L .374 .17400001 C .36900003 .14400001 .36200003 .1 .352 .085 C .345 .07700001 .279 .07700001 .257 .07700001 L .07700001 .07700001 Z "/>
</symbol>
<use xlink:href="#font_4_5" transform="matrix(9.9626,0,0,-9.9626,87.20113,26.680003)"/>
<symbol id="font_1_6">
<path d="M .484 .09200001 C .484 .115 .484 .120000008 .47 .120000008 C .409 .12100001 .31 .12900001 .22000002 .17300001 C .112 .22700002 .071 .29000003 .046000005 .32900004 C .043 .33400003 .037 .33400003 .024 .33400003 C .0009999983 .33400003 0 .333 0 .30800004 L 0 .29200004 C .136 .047000003 .361 0 .463 0 C .484 0 .484 .001 .484 .028 L .484 .09200001 Z "/>
</symbol>
<use xlink:href="#font_1_6" transform="matrix(9.9626,0,0,-9.9626,60.3619,30.865002)"/>
<path transform="matrix(1,0,0,-1,65.084,30.865002)" d="M 0 0 L 7.173 0 L 7.173 1.195 L 0 1.195 Z "/>
<symbol id="font_1_5">
<path d="M .48400004 .04200001 C .34800003 .28700004 .123 .33400003 .021000002 .33400003 C 0 .33400003 0 .333 0 .30600003 L 0 .24200002 C 0 .21900001 0 .21400002 .014 .21400002 C .075 .21300002 .17400001 .20500002 .264 .16100002 C .372 .10700001 .41300003 .044000016 .43800003 .00500001 C .441 0 .447 0 .46 0 C .483 0 .48400004 .001000002 .48400004 .026000008 L .48400004 .04200001 Z "/>
</symbol>
<symbol id="font_1_4">
<path d="M .484 .30600003 C .484 .333 .484 .33400003 .463 .33400003 C .361 .33400003 .136 .286 0 .04200001 L 0 .026000008 C 0 .001000002 .0009999983 0 .024 0 C .043 0 .044 .001000002 .049000004 .008000001 C .13100001 .13900002 .269 .21000003 .472 .21400002 C .484 .21400002 .484 .22100002 .484 .24200002 L .484 .30600003 Z "/>
</symbol>
<use xlink:href="#font_1_5" transform="matrix(9.9626,0,0,-9.9626,72.15738,32.996999)"/>
<use xlink:href="#font_1_4" transform="matrix(9.9626,0,0,-9.9626,76.50107,32.996999)"/>
<path transform="matrix(1,0,0,-1,81.223,30.865002)" d="M 0 0 L 7.173 0 L 7.173 1.195 L 0 1.195 Z "/>
<symbol id="font_1_7">
<path d="M .48400004 .30800004 C .48400004 .333 .483 .33400003 .46 .33400003 C .441 .33400003 .44 .333 .435 .326 C .35300002 .19500001 .21500002 .124000009 .012000001 .120000008 C 0 .120000008 0 .113000009 0 .09200001 L 0 .028 C 0 .001 0 0 .021000002 0 C .123 0 .34800003 .048 .48400004 .29200004 L .48400004 .30800004 Z "/>
</symbol>
<use xlink:href="#font_1_7" transform="matrix(9.9626,0,0,-9.9626,88.29638,30.865002)"/>
<use xlink:href="#font_5_1" transform="matrix(9.9626,0,0,-9.9626,95.3669,17.554604)"/>
<use xlink:href="#font_4_4" transform="matrix(9.9626,0,0,-9.9626,104.370677,13.107002)"/>
<path transform="matrix(1,0,0,-1,103.484,17.356003)" stroke-width="1" stroke-linecap="butt" stroke-miterlimit="10" stroke-linejoin="miter" fill="none" stroke="#000000" d="M 0 0 L 4.981 0 "/>
<symbol id="font_4_6">
<path d="M .24800003 .37400005 C .33 .40100003 .388 .47100006 .388 .55 C .388 .632 .3 .688 .204 .688 C .10300001 .688 .027000003 .628 .027000003 .55200007 C .027000003 .519 .049000004 .5 .078 .5 C .109000008 .5 .12900001 .522 .12900001 .55100008 C .12900001 .6010001 .082 .6010001 .067 .6010001 C .098 .65000006 .164 .66300007 .20000002 .66300007 C .24100003 .66300007 .29600004 .64100006 .29600004 .55100008 C .29600004 .53900006 .29400004 .48100005 .268 .43700005 C .238 .38900004 .204 .38600005 .17900002 .38500003 C .171 .38400004 .14700002 .38200004 .14000002 .38200004 C .132 .38100005 .125 .38000003 .125 .37000004 C .125 .35900004 .132 .35900004 .14900002 .35900004 L .19300002 .35900004 C .275 .35900004 .312 .29100005 .312 .193 C .312 .057000005 .24300003 .028 .199 .028 C .15600002 .028 .081 .045 .046000005 .104 C .081 .09900001 .11200001 .12100001 .11200001 .15900001 C .11200001 .19500001 .085 .215 .056 .215 C .031999999 .215 0 .201 0 .157 C 0 .06600001 .093 0 .20200002 0 C .32400004 0 .41500003 .091000009 .41500003 .193 C .41500003 .27500005 .35200004 .35300005 .24800003 .37400005 Z "/>
</symbol>
<use xlink:href="#font_4_6" transform="matrix(9.9626,0,0,-9.9626,103.90243,26.89918)"/>
<use xlink:href="#font_4_3" transform="matrix(9.9626,0,0,-9.9626,112.43291,20.672898)"/>
<symbol id="font_1_1">
<path d="M 0 0 L .263 0 L .263 .055000068 L .055000009 .055000068 L .055000009 2.344 L .263 2.344 L .263 2.3990002 L 0 2.3990002 L 0 0 Z "/>
</symbol>
<use xlink:href="#font_1_1" transform="matrix(9.9626,0,0,-9.9626,124.32864,29.300776)"/>
<use xlink:href="#font_4_4" transform="matrix(9.9626,0,0,-9.9626,129.17768,13.106998)"/>
<path transform="matrix(1,0,0,-1,128.291,17.356003)" stroke-width="1" stroke-linecap="butt" stroke-miterlimit="10" stroke-linejoin="miter" fill="none" stroke="#000000" d="M 0 0 L 4.981 0 "/>
<symbol id="font_4_7">
<path d="M .266 .165 L .266 .078 C .266 .042000005 .26400004 .031000002 .19000001 .031000002 L .16900002 .031000002 L .16900002 0 C .21000001 .003 .26200003 .003 .30400003 .003 C .34600003 .003 .39900003 .003 .44000004 0 L .44000004 .031000002 L .41900004 .031000002 C .34500004 .031000002 .34300003 .042000005 .34300003 .078 L .34300003 .165 L .44300003 .165 L .44300003 .19600001 L .34300003 .19600001 L .34300003 .651 C .34300003 .671 .34300003 .67700007 .32700003 .67700007 C .31800003 .67700007 .31500004 .67700007 .307 .665 L 0 .19600001 L 0 .165 L .266 .165 M .272 .19600001 L .028 .19600001 L .272 .569 L .272 .19600001 Z "/>
</symbol>
<use xlink:href="#font_4_7" transform="matrix(9.9626,0,0,-9.9626,128.56995,26.680003)"/>
<use xlink:href="#font_5_1" transform="matrix(9.9626,0,0,-9.9626,137.5089,17.554604)"/>
<use xlink:href="#font_4_4" transform="matrix(9.9626,0,0,-9.9626,148.72669,13.107002)"/>
<path transform="matrix(1,0,0,-1,147.84,17.356003)" stroke-width="1" stroke-linecap="butt" stroke-miterlimit="10" stroke-linejoin="miter" fill="none" stroke="#000000" d="M 0 0 L 4.981 0 "/>
<symbol id="font_4_8">
<path d="M .39900003 .223 C .39900003 .34200005 .317 .44200004 .209 .44200004 C .16100002 .44200004 .118000019 .42600004 .082 .39100004 L .082 .586 C .10200001 .58000007 .135 .573 .16700001 .573 C .29 .573 .36 .66400006 .36 .67700007 C .36 .683 .357 .688 .35 .688 C .349 .688 .347 .688 .342 .68500009 C .322 .67600008 .273 .656 .20600002 .656 C .16600001 .656 .120000008 .66300007 .073 .6840001 C .065 .68700006 .06300001 .68700006 .061000009 .68700006 C .051000004 .68700006 .051000004 .679 .051000004 .66300007 L .051000004 .36700005 C .051000004 .34900005 .051000004 .34100003 .065 .34100003 C .07200001 .34100003 .074 .34400005 .07800001 .35000003 C .08900002 .36600004 .12600002 .42000006 .207 .42000006 C .259 .42000006 .284 .37400005 .292 .35600005 C .308 .31900005 .31 .28000004 .31 .23 C .31 .19500001 .31 .135 .286 .093 C .262 .054000006 .22500001 .028 .17900002 .028 C .106000009 .028 .049000008 .08100001 .032 .14000002 C .035 .13900002 .038000008 .13800001 .049000008 .13800001 C .082 .13800001 .09900001 .163 .09900001 .187 C .09900001 .21100001 .082 .23600002 .049000008 .23600002 C .035 .23600002 0 .22900002 0 .18300002 C 0 .097 .069000009 0 .18100001 0 C .297 0 .39900003 .096 .39900003 .223 Z "/>
</symbol>
<use xlink:href="#font_4_8" transform="matrix(9.9626,0,0,-9.9626,148.33812,26.89918)"/>
<symbol id="font_1_2">
<path d="M .20800002 .055000068 L 0 .055000068 L 0 0 L .263 0 L .263 2.3990002 L 0 2.3990002 L 0 2.344 L .20800002 2.344 L .20800002 .055000068 Z "/>
</symbol>
<use xlink:href="#font_1_2" transform="matrix(9.9626,0,0,-9.9626,154.15648,29.30078)"/>
<use xlink:href="#font_1_6" transform="matrix(9.9626,0,0,-9.9626,121.59889,33.495004)"/>
<path transform="matrix(1,0,0,-1,126.321,33.495004)" d="M 0 0 L 9.752 0 L 9.752 1.195 L 0 1.195 Z "/>
<use xlink:href="#font_1_5" transform="matrix(9.9626,0,0,-9.9626,135.97338,35.627)"/>
<use xlink:href="#font_1_4" transform="matrix(9.9626,0,0,-9.9626,140.31707,35.627)"/>
<path transform="matrix(1,0,0,-1,145.039,33.495004)" d="M 0 0 L 9.752 0 L 9.752 1.195 L 0 1.195 Z "/>
<use xlink:href="#font_1_7" transform="matrix(9.9626,0,0,-9.9626,154.69239,33.495004)"/>
<use xlink:href="#font_4_3" transform="matrix(9.9626,0,0,-9.9626,161.49292,20.672898)"/>
<use xlink:href="#font_1_1" transform="matrix(9.9626,0,0,-9.9626,172.83466,29.300776)"/>
<use xlink:href="#font_4_4" transform="matrix(9.9626,0,0,-9.9626,177.68468,13.106998)"/>
<path transform="matrix(1,0,0,-1,176.798,17.356003)" stroke-width="1" stroke-linecap="butt" stroke-miterlimit="10" stroke-linejoin="miter" fill="none" stroke="#000000" d="M 0 0 L 4.981 0 "/>
<symbol id="font_4_9">
<path d="M .089999999 .35000003 L .089999999 .37400005 C .089999999 .62700006 .21400002 .66300007 .26500003 .66300007 C .28900004 .66300007 .33100004 .65700009 .35300002 .623 C .33800004 .623 .298 .623 .298 .57800009 C .298 .54700008 .32200004 .53200009 .344 .53200009 C .36 .53200009 .39000003 .54100009 .39000003 .58000007 C .39000003 .64000007 .34600003 .688 .263 .688 C .13499999 .688 0 .559 0 .33800004 C 0 .071 .116000007 0 .20900002 0 C .32000003 0 .41500003 .094000007 .41500003 .22600001 C .41500003 .35300005 .32600004 .44900004 .215 .44900004 C .14700002 .44900004 .11000001 .39800004 .089999999 .35000003 M .20900002 .028 C .146 .028 .116000007 .088 .11000001 .103 C .092 .15 .092 .23 .092 .24800001 C .092 .32600004 .124000009 .42600004 .21400002 .42600004 C .23000002 .42600004 .27600003 .42600004 .307 .36400003 C .32500003 .32700003 .32500003 .27600003 .32500003 .22700002 C .32500003 .179 .32500003 .12900001 .30800004 .093 C .27800004 .033000005 .23200003 .028 .20900002 .028 Z "/>
</symbol>
<use xlink:href="#font_4_9" transform="matrix(9.9626,0,0,-9.9626,177.21643,26.89918)"/>
<use xlink:href="#font_5_1" transform="matrix(9.9626,0,0,-9.9626,186.0159,17.554604)"/>
<use xlink:href="#font_4_4" transform="matrix(9.9626,0,0,-9.9626,197.23369,13.107002)"/>
<path transform="matrix(1,0,0,-1,196.347,17.356003)" stroke-width="1" stroke-linecap="butt" stroke-miterlimit="10" stroke-linejoin="miter" fill="none" stroke="#000000" d="M 0 0 L 4.981 0 "/>
<symbol id="font_4_a">
<path d="M .42000003 .63100007 C .42900003 .64300009 .42900003 .64500007 .42900003 .66600009 L .18600002 .66600009 C .064 .66600009 .062000008 .679 .058000007 .6980001 L .033 .6980001 L 0 .49200005 L .024999999 .49200005 C .028000005 .508 .037 .57100006 .050000006 .58300009 C .057000005 .58900007 .13500002 .58900007 .148 .58900007 L .35500003 .58900007 C .344 .573 .26500003 .46400006 .24300003 .43100003 C .153 .29600004 .12000001 .157 .12000001 .055 C .12000001 .045 .12000001 0 .16600001 0 C .21200001 0 .21200001 .045 .21200001 .055 L .21200001 .106000009 C .21200001 .16100002 .21500004 .216 .22300002 .27 C .22700003 .29300005 .24100003 .37900005 .28500004 .44100005 L .42000003 .63100007 Z "/>
</symbol>
<use xlink:href="#font_4_a" transform="matrix(9.9626,0,0,-9.9626,196.9049,26.89918)"/>
<use xlink:href="#font_1_2" transform="matrix(9.9626,0,0,-9.9626,202.66349,29.30078)"/>
<use xlink:href="#font_1_6" transform="matrix(9.9626,0,0,-9.9626,170.10489,33.495004)"/>
<path transform="matrix(1,0,0,-1,174.828,33.495004)" d="M 0 0 L 9.752 0 L 9.752 1.195 L 0 1.195 Z "/>
<use xlink:href="#font_1_5" transform="matrix(9.9626,0,0,-9.9626,184.48038,35.627)"/>
<use xlink:href="#font_1_4" transform="matrix(9.9626,0,0,-9.9626,188.82407,35.627)"/>
<path transform="matrix(1,0,0,-1,193.546,33.495004)" d="M 0 0 L 9.752 0 L 9.752 1.195 L 0 1.195 Z "/>
<use xlink:href="#font_1_7" transform="matrix(9.9626,0,0,-9.9626,203.19937,33.495004)"/>
<use xlink:href="#font_4_3" transform="matrix(9.9626,0,0,-9.9626,209.99991,20.672898)"/>
<symbol id="font_6_1">
<path d="M .106 .053000004 C .106 .082 .08200001 .106000009 .05300001 .106000009 C .024000004 .106000009 0 .082 0 .053000004 C 0 .024 .024000004 0 .05300001 0 C .08200001 0 .106 .024 .106 .053000004 Z "/>
</symbol>
<use xlink:href="#font_6_1" transform="matrix(9.9626,0,0,-9.9626,219.70778,19.846)"/>
<use xlink:href="#font_6_1" transform="matrix(9.9626,0,0,-9.9626,224.14115,19.846)"/>
<use xlink:href="#font_6_1" transform="matrix(9.9626,0,0,-9.9626,228.56455,19.846)"/>
<symbol id="font_7_4">
<path d="M .076000008 .066 C .068 .034999998 .060000004 .032000007 .021 .031000004 C .012 .031000004 0 .031000004 0 .0119999949 C 0 .004999995 .005000001 0 .012 0 C .039000006 0 .068 .0029999912 .09600001 .0029999912 C .128 .0029999912 .16200002 0 .19300002 0 C .19900002 0 .21200001 0 .21200001 .018999994 C .21200001 .031000004 .202 .031000004 .18800001 .031000004 C .13700001 .031000004 .13700001 .037 .13700001 .047000007 C .13700001 .053000004 .14400001 .079 .148 .095 L .18400002 .24100001 C .19100002 .224 .216 .183 .268 .183 C .37700004 .183 .49600006 .33100004 .49600006 .48000003 C .49600006 .587 .43600003 .63600006 .37600003 .63600006 C .32700003 .63600006 .284 .6 .25500003 .566 C .243 .624 .19800002 .63600006 .17300001 .63600006 C .13700001 .63600006 .11700001 .61300006 .101 .58300009 C .082 .543 .069000009 .48400004 .069000009 .48200003 C .069000009 .47200004 .079 .47200004 .08400001 .47200004 C .09700001 .47200004 .098000008 .47300003 .10300001 .49500004 C .12100001 .56500008 .14000002 .614 .171 .614 C .19700001 .614 .19700001 .58500006 .19700001 .574 C .19700001 .568 .19700001 .55200007 .19000001 .52400007 L .076000008 .066 M .24900002 .50100007 C .25700004 .535 .319 .614 .374 .614 C .41900004 .614 .42900003 .55700007 .42900003 .52500006 C .42900003 .483 .402 .36400003 .37300004 .3 C .36100004 .275 .31800003 .20500002 .26700003 .20500002 C .209 .20500002 .19900002 .29000003 .19900002 .298 C .19900002 .301 .20000002 .30400003 .202 .312 L .24900002 .50100007 Z "/>
</symbol>
<symbol id="font_7_3">
<path d="M .399 .28900004 C .399 .38400004 .34 .45300005 .253 .45300005 C .12900001 .45300005 0 .31100003 0 .16500002 C 0 .062000004 .063 0 .146 0 C .27 0 .399 .14200002 .399 .28900004 M .146 .022000002 C .107 .022000002 .07 .053000004 .07 .12500002 C .07 .17500001 .09600001 .286 .12799999 .34000004 C .16499999 .40100003 .213 .43100003 .252 .43100003 C .301 .43100003 .329 .38700003 .329 .328 C .329 .28500004 .307 .18200001 .275 .12200001 C .24599999 .067 .195 .022000002 .146 .022000002 Z "/>
</symbol>
<symbol id="font_7_5">
<path d="M .171 .20800002 C .215 .19800002 .26000003 .18800001 .26000003 .134 C .26000003 .102000009 .23300001 .022000002 .13000001 .022000002 C .10800001 .022000002 .049999998 .027000003 .034 .078 C .08500001 .083000008 .08500001 .12500002 .08500001 .127 C .08500001 .14600002 .072 .15900001 .051 .15900001 C .027999998 .15900001 0 .14200002 0 .097 C 0 .036000004 .058 0 .12900001 0 C .279 0 .317 .12200001 .317 .16800002 C .317 .25500003 .23900002 .27300004 .19800002 .28200004 C .17 .28800003 .134 .29600004 .134 .33900003 C .134 .36300005 .155 .43100003 .23500002 .43100003 C .26200003 .43100003 .29900003 .42100004 .31 .38200004 C .278 .37800003 .27 .351 .27 .34100003 C .27 .33 .27600003 .31300003 .3 .31300003 C .317 .31300003 .34300003 .32500003 .34300003 .36800004 C .34300003 .41400004 .30200003 .45300005 .236 .45300005 C .119 .45300005 .07800001 .35700003 .07800001 .305 C .07800001 .22800002 .143 .21400002 .171 .20800002 Z "/>
</symbol>
<symbol id="font_7_2">
<path d="M .24800003 .15400002 C .24800003 .16400002 .24000001 .16400002 .23300001 .16400002 C .22 .16400002 .22 .16200002 .21600002 .14700002 C .208 .11800001 .181 .022000002 .12300001 .022000002 C .11500001 .022000002 .10100001 .023000002 .10100001 .05 C .10100001 .076000008 .11400001 .109000008 .127 .14600002 L .19100002 .31700004 C .201 .34600003 .20300001 .35400004 .20300001 .37300004 C .20300001 .42800004 .165 .45300005 .128 .45300005 C .034 .45300005 0 .30400003 0 .29900003 C 0 .28900004 .009999998 .28900004 .015000001 .28900004 C .028000005 .28900004 .029 .291 .033 .305 C .041999997 .33800004 .068 .43100003 .126 .43100003 C .13700001 .43100003 .148 .42600004 .148 .40300004 C .148 .37900005 .13700001 .35000003 .13000001 .33100004 L .10000001 .24800003 C .087 .21500002 .075 .18200001 .06300001 .14900002 C .048999996 .111 .045 .1 .045 .080000009 C .045 .041 .069000009 0 .12100001 0 C .215 0 .24800003 .15000002 .24800003 .15400002 M .243 .634 C .243 .659 .22300002 .667 .20900002 .667 C .18800003 .667 .16100002 .647 .16100002 .619 C .16100002 .594 .181 .586 .19500003 .586 C .215 .586 .243 .605 .243 .634 Z "/>
</symbol>
<symbol id="font_7_6">
<path d="M .16900002 .411 L .254 .411 C .27100004 .411 .282 .411 .282 .43000005 C .282 .44200004 .273 .44200004 .25700004 .44200004 L .177 .44200004 L .214 .59000006 C .21800001 .60400006 .21800001 .606 .21800001 .611 C .21800001 .632 .20100002 .637 .191 .637 C .166 .637 .156 .616 .15200001 .601 L .113000009 .44200004 L .027999998 .44200004 C .011 .44200004 0 .44200004 0 .42300005 C 0 .411 .008999996 .411 .024999999 .411 L .105000007 .411 L .033 .124000009 C .031999999 .120000008 .027999998 .104 .027999998 .09 C .027999998 .040000004 .061000006 0 .113000009 0 C .214 0 .265 .14900002 .265 .15400002 C .265 .16400002 .25700004 .16400002 .25 .16400002 C .23800002 .16400002 .23800002 .16300002 .23 .14500001 C .212 .097 .172 .022000002 .11500001 .022000002 C .088 .022000002 .088 .047000003 .088 .063 C .088 .07000001 .088 .086 .095 .11400001 L .16900002 .411 Z "/>
</symbol>
<symbol id="font_7_7">
<path d="M .41000004 .38700003 C .41000004 .42200003 .39800004 .45300005 .36900003 .45300005 C .34600003 .45300005 .321 .43000005 .321 .40700004 C .321 .39400003 .328 .38700003 .33400003 .38000003 C .358 .35400004 .36100004 .32200004 .36100004 .30100004 C .36100004 .27300004 .314 .022000002 .199 .022000002 C .14500001 .022000002 .134 .072000008 .134 .105000007 C .134 .16300002 .16600001 .25 .19300002 .32200004 C .19800002 .33800004 .204 .35300002 .204 .37200005 C .204 .42200003 .171 .45300005 .128 .45300005 C .035000005 .45300005 0 .305 0 .29900003 C 0 .28900004 .009999998 .28900004 .015000001 .28900004 C .028000005 .28900004 .029 .291 .033 .305 C .041 .33600004 .068 .43100003 .126 .43100003 C .13700001 .43100003 .148 .42800004 .148 .40200005 C .148 .37800003 .13800001 .351 .12400001 .31200005 C .09300001 .22700002 .073 .16700001 .073 .120000008 C .073 .029000003 .13700001 0 .19600001 0 C .36400003 0 .41000004 .36100004 .41000004 .38700003 Z "/>
</symbol>
<symbol id="font_7_1">
<path d="M .125 .24200002 C .15500002 .24200002 .22200002 .24500002 .26999999 .26400004 C .34900005 .29600004 .34900005 .36100004 .34900005 .36800004 C .34900005 .41400004 .31200005 .45300005 .24800001 .45300005 C .14299999 .45300005 0 .35200004 0 .17500001 C 0 .085 .047999994 0 .14299999 0 C .27100004 0 .35400004 .1 .35400004 .115 C .35400004 .120000008 .34600003 .13100001 .338 .13100001 C .334 .13100001 .333 .13000001 .325 .120000008 C .251 .026 .16200002 .022000002 .145 .022000002 C .08 .022000002 .069000009 .093 .069000009 .13200002 C .069000009 .17000002 .078999999 .21500002 .085999999 .24200002 L .125 .24200002 M .09200001 .26400004 C .135 .42800004 .23800002 .43100003 .24800001 .43100003 C .288 .43100003 .311 .404 .311 .37000004 C .311 .26400004 .14600002 .26400004 .113000009 .26400004 L .09200001 .26400004 Z "/>
</symbol>
<use xlink:href="#font_7_4" transform="matrix(9.9626,0,0,-9.9626,126.41847,52.514745)"/>
<use xlink:href="#font_7_3" transform="matrix(9.9626,0,0,-9.9626,131.95769,50.69159)"/>
<use xlink:href="#font_7_5" transform="matrix(9.9626,0,0,-9.9626,136.70986,50.69159)"/>
<use xlink:href="#font_7_2" transform="matrix(9.9626,0,0,-9.9626,140.8543,50.69159)"/>
<use xlink:href="#font_7_6" transform="matrix(9.9626,0,0,-9.9626,143.99253,50.69159)"/>
<use xlink:href="#font_7_2" transform="matrix(9.9626,0,0,-9.9626,147.2204,50.69159)"/>
<use xlink:href="#font_7_7" transform="matrix(9.9626,0,0,-9.9626,150.27892,50.69159)"/>
<use xlink:href="#font_7_1" transform="matrix(9.9626,0,0,-9.9626,155.17057,50.69159)"/>
<use xlink:href="#font_7_4" transform="matrix(9.9626,0,0,-9.9626,174.60749,52.514745)"/>
<use xlink:href="#font_7_3" transform="matrix(9.9626,0,0,-9.9626,180.1467,50.69159)"/>
<use xlink:href="#font_7_5" transform="matrix(9.9626,0,0,-9.9626,184.89885,50.69159)"/>
<use xlink:href="#font_7_2" transform="matrix(9.9626,0,0,-9.9626,189.04329,50.69159)"/>
<use xlink:href="#font_7_6" transform="matrix(9.9626,0,0,-9.9626,192.18152,50.69159)"/>
<use xlink:href="#font_7_2" transform="matrix(9.9626,0,0,-9.9626,195.4094,50.69159)"/>
<use xlink:href="#font_7_7" transform="matrix(9.9626,0,0,-9.9626,198.46791,50.69159)"/>
<use xlink:href="#font_7_1" transform="matrix(9.9626,0,0,-9.9626,203.35956,50.69159)"/>
<symbol id="font_6_3">
<path d="M .33900006 .38500003 C .311 .38400004 .291 .36200003 .291 .34000004 C .291 .32600004 .3 .31100003 .32200004 .31100003 C .34400005 .31100003 .36800004 .328 .36800004 .367 C .36800004 .41200004 .325 .45300005 .24900003 .45300005 C .11700001 .45300005 .08 .351 .08 .307 C .08 .22900002 .15400002 .21400002 .18300002 .20800002 C .235 .19800002 .287 .18700002 .287 .13200002 C .287 .106000009 .264 .022000002 .14400001 .022000002 C .13000001 .022000002 .053000004 .022000002 .030000002 .075 C .068 .07000001 .09300001 .1 .09300001 .128 C .09300001 .15100001 .07700001 .16300002 .056 .16300002 C .030000002 .16300002 0 .14200002 0 .097 C 0 .040000004 .057000005 0 .143 0 C .305 0 .34400005 .12100001 .34400005 .16600001 C .34400005 .20200002 .325 .22700002 .31300003 .23900002 C .286 .26700003 .25700004 .272 .21300002 .28100003 C .17700002 .28900004 .13700001 .29600004 .13700001 .34100003 C .13700001 .37000004 .16100002 .43100003 .24900003 .43100003 C .274 .43100003 .324 .42400003 .33900006 .38500003 Z "/>
</symbol>
<use xlink:href="#font_6_3" transform="matrix(9.9626,0,0,-9.9626,73.19805,44.12359)"/>
<symbol id="font_3_2">
<path d="M .442 .18200001 L .40800003 .18200001 C .40500004 .16000001 .39500005 .101 .38200004 .091000009 C .374 .085 .29700003 .085 .28300003 .085 L .099 .085 C .20400003 .178 .23900002 .20600002 .29900003 .25300003 C .37300004 .312 .442 .374 .442 .469 C .442 .59000006 .33600004 .66400006 .20800004 .66400006 C .084 .66400006 0 .577 0 .485 C 0 .43400003 .043000007 .42900003 .053000004 .42900003 C .077 .42900003 .10600001 .446 .10600001 .48200003 C .10600001 .5 .099 .535 .047000007 .535 C .078 .606 .146 .628 .19300002 .628 C .293 .628 .34500004 .55 .34500004 .469 C .34500004 .38200004 .28300003 .31300003 .25100003 .277 L .010000005 .039 C 0 .030000002 0 .028 0 0 L .41200004 0 L .442 .18200001 Z "/>
</symbol>
<use xlink:href="#font_3_2" transform="matrix(6.9738,0,0,-6.9738,77.78934,45.508005)"/>
</svg>
