<?xml version="1.0" encoding="UTF-8" standalone="no"?>
<!DOCTYPE svg PUBLIC "-//W3C//DTD SVG 1.1//EN" "http://www.w3.org/Graphics/SVG/1.1/DTD/svg11.dtd">
<svg xmlns="http://www.w3.org/2000/svg" xmlns:xlink="http://www.w3.org/1999/xlink" version="1.1" width="290.133pt" height="107.272pt" viewBox="0 0 290.133 107.272">
<clipPath id="cp0">
<path transform="matrix(1,0,0,-1,46.772,99.366008)" d="M 0 0 L 243.16446 0 L 243.16446 99.16858 L 0 99.16858 Z "/>
</clipPath>
<g clip-path="url(#cp0)">
<path transform="matrix(1,0,0,-1,46.772,99.366008)" d="M 5.28618 7.62834 L 58.14801 7.62834 L 58.14801 83.91187 L 5.28618 83.91187 " fill="#cccce6"/>
<path transform="matrix(1,0,0,-1,46.772,99.366008)" stroke-width="1" stroke-linecap="butt" stroke-miterlimit="10" stroke-linejoin="miter" fill="none" stroke="#000080" d="M 5.28618 7.62834 L 58.14801 7.62834 L 58.14801 83.91187 L 5.28618 83.91187 "/>
<path transform="matrix(1,0,0,-1,46.772,99.366008)" d="M 58.14801 7.62834 L 111.00986 7.62834 L 111.00986 45.77011 L 58.14801 45.77011 L 58.14801 7.62834 " fill="#cccce6"/>
<path transform="matrix(1,0,0,-1,46.772,99.366008)" stroke-width="1" stroke-linecap="butt" stroke-miterlimit="10" stroke-linejoin="miter" fill="none" stroke="#000080" d="M 58.14801 7.62834 L 111.00986 7.62834 L 111.00986 45.77011 L 58.14801 45.77011 L 58.14801 7.62834 "/>
<path transform="matrix(1,0,0,-1,46.772,99.366008)" d="M 111.00986 7.62834 L 163.87169 7.62834 L 163.87169 33.05592 L 111.00986 33.05592 L 111.00986 7.62834 " fill="#cccce6"/>
<path transform="matrix(1,0,0,-1,46.772,99.366008)" stroke-width="1" stroke-linecap="butt" stroke-miterlimit="10" stroke-linejoin="miter" fill="none" stroke="#000080" d="M 111.00986 7.62834 L 163.87169 7.62834 L 163.87169 33.05592 L 111.00986 33.05592 L 111.00986 7.62834 "/>
<path transform="matrix(1,0,0,-1,46.772,99.366008)" d="M 163.87169 7.62834 L 216.73354 7.62834 L 216.73354 26.69923 L 163.87169 26.69923 L 163.87169 7.62834 " fill="#cccce6"/>
<path transform="matrix(1,0,0,-1,46.772,99.366008)" stroke-width="1" stroke-linecap="butt" stroke-miterlimit="10" stroke-linejoin="miter" fill="none" stroke="#000080" d="M 163.87169 7.62834 L 216.73354 7.62834 L 216.73354 26.69923 L 163.87169 26.69923 L 163.87169 7.62834 "/>
<path transform="matrix(1,0,0,-1,46.772,99.366008)" stroke-width="1.19553" stroke-linecap="butt" stroke-miterlimit="10" stroke-linejoin="miter" fill="none" stroke="#000080" d="M 31.7171 160.1954 C 31.7171 160.1954 40.46959 122.37495 43.83122 112.25119 C 47.19284 102.12741 52.58374 92.83347 55.94537 87.23021 C 59.307 81.62694 64.69788 75.44003 68.0595 71.8667 C 71.42111 68.29338 76.812 63.9582 80.17363 61.47612 C 83.53526 58.99403 88.92613 55.80385 92.28777 53.97745 C 95.6494 52.15103 101.0403 49.71355 104.4019 48.31262 C 107.76352 46.9117 113.15442 44.98933 116.51602 43.88055 C 119.87764 42.77176 125.26854 41.2207 128.63016 40.32115 C 131.99179 39.42162 137.38268 38.14182 140.74431 37.39722 C 144.10593 36.65263 149.49681 35.5812 152.85845 34.95464 C 156.22006 34.32805 161.61096 33.41595 164.97258 32.88123 C 168.33419 32.34651 173.72509 31.56235 177.0867 31.10078 C 180.44832 30.63922 185.8392 29.95703 189.20084 29.5545 C 192.56247 29.152 197.95334 28.55385 201.31497 28.1997 C 204.6766 27.84557 210.06749 27.31609 213.42911 27.00206 C 216.79073 26.68803 222.18163 26.21655 225.54323 25.93639 C 228.90485 25.65623 234.29575 25.23453 237.65737 24.98285 C 241.019 24.73117 246.40988 24.34981 249.7715 24.12236 C 253.13314 23.8949 258.52403 23.5499 261.88566 23.3435 C 265.24729 23.13713 270.63819 22.82301 273.9998 22.63483 C 277.3614 22.44664 282.7523 22.15938 286.1139 21.9872 C 289.47554 21.815 294.86643 21.55193 298.22804 21.3937 C 301.5897 21.23549 306.98057 20.9926 310.3422 20.84676 C 313.7038 20.70091 322.4563 20.34251 322.4563 20.34251 "/>
</g>
<path transform="matrix(1,0,0,-1,46.772,99.366008)" stroke-width="1" stroke-linecap="butt" stroke-miterlimit="10" stroke-linejoin="miter" fill="none" stroke="#808080" d="M 58.14801 5.50235 L 58.14801 9.75433 M 111.00986 5.50235 L 111.00986 9.75433 M 163.87169 5.50235 L 163.87169 9.75433 M 216.73354 5.50235 L 216.73354 9.75433 "/>
<path transform="matrix(1,0,0,-1,46.772,99.366008)" stroke-width="1" stroke-linecap="butt" stroke-miterlimit="10" stroke-linejoin="miter" fill="none" stroke="#808080" d="M 3.16011 83.91187 L 7.41223 83.91187 M 3.16011 45.77011 L 7.41223 45.77011 M 3.16011 33.03076 L 7.41223 33.03076 M 3.16011 22.88506 L 7.41223 22.88506 "/>
<path transform="matrix(1,0,0,-1,46.772,99.366008)" stroke-width="1" stroke-linecap="butt" stroke-miterlimit="10" stroke-linejoin="miter" fill="none" stroke="#000000" d="M 0 7.62834 L 241.17194 7.62834 "/>
<path transform="matrix(1,0,0,-1,287.94395,91.73766)" d="M 1.99252 0 L -1.19551 1.59401 L 0 0 L -1.19551 -1.59401 "/>
<path transform="matrix(1,0,0,-1,46.772,99.366008)" stroke-width="1" stroke-linecap="butt" stroke-miterlimit="10" stroke-linejoin="miter" fill="none" stroke="#000000" d="M 5.28618 0 L 5.28618 97.17606 "/>
<path transform="matrix(0,-1,-1,-0,52.058179,2.1899415)" d="M 1.99252 0 L -1.19551 1.59401 L 0 0 L -1.19551 -1.59401 "/>
<symbol id="font_1_1">
<path d="M .205 .64000007 C .205 .66400006 .205 .666 .18200003 .666 C .120000008 .60200008 .032000007 .60200008 0 .60200008 L 0 .57100006 C .020000004 .57100006 .07900001 .57100006 .13100001 .597 L .13100001 .079 C .13100001 .043 .128 .031000002 .038000004 .031000002 L .0060000049 .031000002 L .0060000049 0 C .04100001 .003 .128 .003 .168 .003 C .20800002 .003 .29500003 .003 .33000005 0 L .33000005 .031000002 L .29800005 .031000002 C .20800002 .031000002 .205 .042000005 .205 .079 L .205 .64000007 Z "/>
</symbol>
<use xlink:href="#font_1_1" transform="matrix(9.9626,0,0,-9.9626,103.315677,103.878009)"/>
<symbol id="font_1_2">
<path d="M .07700001 .07700001 L .18300002 .18 C .33900003 .31800003 .39900003 .372 .39900003 .47200004 C .39900003 .586 .30900003 .666 .18700002 .666 C .074 .666 0 .574 0 .485 C 0 .42900003 .05 .42900003 .053000008 .42900003 C .07000001 .42900003 .105000007 .441 .105000007 .48200003 C .105000007 .508 .08700001 .53400006 .052000006 .53400006 C .044000005 .53400006 .042000008 .53400006 .039 .53300008 C .062000004 .59800007 .11600001 .63500007 .17400001 .63500007 C .26500003 .63500007 .308 .554 .308 .47200004 C .308 .39200003 .25800003 .31300003 .20300003 .25100003 L .011000004 .037 C 0 .026 0 .024 0 0 L .37100003 0 L .39900003 .17400001 L .374 .17400001 C .36900003 .14400001 .36200003 .1 .352 .085 C .345 .07700001 .279 .07700001 .257 .07700001 L .07700001 .07700001 Z "/>
</symbol>
<use xlink:href="#font_1_2" transform="matrix(9.9626,0,0,-9.9626,155.78812,103.878009)"/>
<symbol id="font_1_3">
<path d="M .24800003 .37400005 C .33 .40100003 .388 .47100006 .388 .55 C .388 .632 .3 .688 .204 .688 C .10300001 .688 .027000003 .628 .027000003 .55200007 C .027000003 .519 .049000004 .5 .078 .5 C .109000008 .5 .12900001 .522 .12900001 .55100008 C .12900001 .6010001 .082 .6010001 .067 .6010001 C .098 .65000006 .164 .66300007 .20000002 .66300007 C .24100003 .66300007 .29600004 .64100006 .29600004 .55100008 C .29600004 .53900006 .29400004 .48100005 .268 .43700005 C .238 .38900004 .204 .38600005 .17900002 .38500003 C .171 .38400004 .14700002 .38200004 .14000002 .38200004 C .132 .38100005 .125 .38000003 .125 .37000004 C .125 .35900004 .132 .35900004 .14900002 .35900004 L .19300002 .35900004 C .275 .35900004 .312 .29100005 .312 .193 C .312 .057000005 .24300003 .028 .199 .028 C .15600002 .028 .081 .045 .046000005 .104 C .081 .09900001 .11200001 .12100001 .11200001 .15900001 C .11200001 .19500001 .085 .215 .056 .215 C .031999999 .215 0 .201 0 .157 C 0 .06600001 .093 0 .20200002 0 C .32400004 0 .41500003 .091000009 .41500003 .193 C .41500003 .27500005 .35200004 .35300005 .24800003 .37400005 Z "/>
</symbol>
<use xlink:href="#font_1_3" transform="matrix(9.9626,0,0,-9.9626,208.56943,104.09718)"/>
<symbol id="font_1_4">
<path d="M .266 .165 L .266 .078 C .266 .042000005 .26400004 .031000002 .19000001 .031000002 L .16900002 .031000002 L .16900002 0 C .21000001 .003 .26200003 .003 .30400003 .003 C .34600003 .003 .39900003 .003 .44000004 0 L .44000004 .031000002 L .41900004 .031000002 C .34500004 .031000002 .34300003 .042000005 .34300003 .078 L .34300003 .165 L .44300003 .165 L .44300003 .19600001 L .34300003 .19600001 L .34300003 .651 C .34300003 .671 .34300003 .67700007 .32700003 .67700007 C .31800003 .67700007 .31500004 .67700007 .307 .665 L 0 .19600001 L 0 .165 L .266 .165 M .272 .19600001 L .028 .19600001 L .272 .569 L .272 .19600001 Z "/>
</symbol>
<use xlink:href="#font_1_4" transform="matrix(9.9626,0,0,-9.9626,261.29096,103.878009)"/>
<symbol id="font_2_2">
<path d="M .33300004 .38900004 C .31500004 .42600004 .286 .45300005 .24100001 .45300005 C .124 .45300005 0 .30600003 0 .16000001 C 0 .06600001 .055000005 0 .133 0 C .153 0 .20300001 .0040000008 .263 .075 C .27100004 .033000005 .30600003 0 .35400004 0 C .38900004 0 .41200004 .023000002 .42800004 .055000005 C .44500003 .091000009 .45800004 .15200001 .45800004 .15400002 C .45800004 .16400002 .44900004 .16400002 .44600005 .16400002 C .43600003 .16400002 .43500004 .16000001 .43200005 .14600002 C .41500003 .081 .397 .022000002 .35600005 .022000002 C .32900004 .022000002 .32600004 .048 .32600004 .068 C .32600004 .09 .32800005 .098000008 .33900003 .14200002 C .35000003 .18400002 .35200004 .19400002 .36100004 .23200003 L .397 .37200005 C .40400005 .40000005 .40400005 .40200005 .40400005 .40600003 C .40400005 .42300005 .39200003 .43300004 .37500004 .43300004 C .35100005 .43300004 .33600004 .411 .33300004 .38900004 M .26800005 .13000001 C .263 .112 .263 .11000001 .24800001 .093 C .20400001 .038000004 .163 .022000002 .135 .022000002 C .08499999 .022000002 .07100001 .077 .07100001 .116000007 C .07100001 .16600001 .103 .28900004 .126 .335 C .157 .39400003 .202 .43100003 .242 .43100003 C .307 .43100003 .32100005 .34900005 .32100005 .34300003 C .32100005 .337 .31900005 .33100004 .31800003 .32600004 L .26800005 .13000001 Z "/>
</symbol>
<use xlink:href="#font_2_2" transform="matrix(9.9626,0,0,-9.9626,18.736504,18.027596)"/>
<symbol id="font_3_1">
<path d="M .22600001 .63600006 C .22600001 .66300007 .224 .66400006 .19600001 .66400006 C .132 .601 .041 .6 0 .6 L 0 .564 C .023999997 .564 .09000001 .564 .14500001 .592 L .14500001 .082 C .14500001 .049000004 .14500001 .036000004 .04500001 .036000004 L .0069999995 .036000004 L .0069999995 0 C .024999999 .001 .148 .004 .185 .004 C .21600002 .004 .34200005 .001 .36400003 0 L .36400003 .036000004 L .32600004 .036000004 C .22600001 .036000004 .22600001 .049000004 .22600001 .082 L .22600001 .63600006 Z "/>
</symbol>
<use xlink:href="#font_3_1" transform="matrix(6.9738,0,0,-6.9738,24.364144,19.41301)"/>
<symbol id="font_1_7">
<path d="M .63100007 .19400002 C .646 .19400002 .665 .19400002 .665 .214 C .665 .23400001 .646 .23400001 .632 .23400001 L .033 .23400001 C .019000002 .23400001 0 .23400001 0 .214 C 0 .19400002 .019000002 .19400002 .034 .19400002 L .63100007 .19400002 M .632 0 C .646 0 .665 0 .665 .02000001 C .665 .040000008 .646 .040000008 .63100007 .040000008 L .034 .040000008 C .019000002 .040000008 0 .040000008 0 .02000001 C 0 0 .019000002 0 .033 0 L .632 0 Z "/>
</symbol>
<use xlink:href="#font_1_7" transform="matrix(9.9626,0,0,-9.9626,31.398905,16.592982)"/>
<use xlink:href="#font_1_1" transform="matrix(9.9626,0,0,-9.9626,42.24818,17.918007)"/>
<use xlink:href="#font_2_2" transform="matrix(9.9626,0,0,-9.9626,8.774504,56.19659)"/>
<symbol id="font_3_2">
<path d="M .442 .18200001 L .40800003 .18200001 C .40500004 .16000001 .39500005 .101 .38200004 .091000009 C .374 .085 .29700003 .085 .28300003 .085 L .099 .085 C .20400003 .178 .23900002 .20600002 .29900003 .25300003 C .37300004 .312 .442 .374 .442 .469 C .442 .59000006 .33600004 .66400006 .20800004 .66400006 C .084 .66400006 0 .577 0 .485 C 0 .43400003 .043000007 .42900003 .053000004 .42900003 C .077 .42900003 .10600001 .446 .10600001 .48200003 C .10600001 .5 .099 .535 .047000007 .535 C .078 .606 .146 .628 .19300002 .628 C .293 .628 .34500004 .55 .34500004 .469 C .34500004 .38200004 .28300003 .31300003 .25100003 .277 L .010000005 .039 C 0 .030000002 0 .028 0 0 L .41200004 0 L .442 .18200001 Z "/>
</symbol>
<use xlink:href="#font_3_2" transform="matrix(6.9738,0,0,-6.9738,14.081348,57.582)"/>
<use xlink:href="#font_1_7" transform="matrix(9.9626,0,0,-9.9626,21.435904,54.761976)"/>
<use xlink:href="#font_1_1" transform="matrix(9.9626,0,0,-9.9626,32.28518,56.087)"/>
<symbol id="font_2_1">
<path d="M .384 .962 C .38900004 .975 .38900004 .97900006 .38900004 .98 C .38900004 .99100008 .38000003 1 .36900003 1 C .36200003 1 .35500003 .99700006 .352 .99100008 L .004999999 .037999989 C 0 .024999991 0 .020999983 0 .019999996 C 0 .008999988 .009 0 .02 0 C .033000005 0 .036000004 .0069999846 .042 .023999989 L .384 .962 Z "/>
</symbol>
<use xlink:href="#font_2_1" transform="matrix(9.9626,0,0,-9.9626,36.923944,58.577653)"/>
<use xlink:href="#font_1_4" transform="matrix(9.9626,0,0,-9.9626,41.635953,56.087)"/>
<use xlink:href="#font_2_2" transform="matrix(9.9626,0,0,-9.9626,8.774504,68.93559)"/>
<symbol id="font_3_3">
<path d="M .219 .35400004 C .29700003 .35400004 .35300002 .3 .35300002 .193 C .35300002 .069000009 .28100003 .032 .223 .032 C .18300002 .032 .095 .043000007 .053000008 .102000009 C .10000001 .10400001 .111 .13700001 .111 .158 C .111 .19 .087 .213 .056000007 .213 C .028 .213 0 .19600001 0 .155 C 0 .061000006 .104 0 .22500001 0 C .36400003 0 .46 .09300001 .46 .193 C .46 .27100004 .39600004 .34900005 .286 .37200005 C .39100004 .41000004 .42900003 .48500005 .42900003 .546 C .42900003 .625 .33800004 .684 .22700002 .684 C .116 .684 .031 .63 .031 .55 C .031 .51600006 .053000008 .49700005 .083000008 .49700005 C .11400001 .49700005 .134 .52 .134 .548 C .134 .577 .11400001 .598 .083000008 .6 C .118 .644 .187 .65500006 .22400002 .65500006 C .26900003 .65500006 .33200003 .633 .33200003 .546 C .33200003 .504 .31800003 .45800004 .29200004 .42700003 C .25900004 .38900004 .23100002 .38700003 .18100001 .38400004 C .156 .38200004 .154 .38200004 .149 .38100005 C .147 .38100005 .139 .37900005 .139 .36800004 C .139 .35400004 .148 .35400004 .165 .35400004 L .219 .35400004 Z "/>
</symbol>
<use xlink:href="#font_3_3" transform="matrix(6.9738,0,0,-6.9738,14.018584,70.46047)"/>
<use xlink:href="#font_1_7" transform="matrix(9.9626,0,0,-9.9626,21.435904,67.50098)"/>
<use xlink:href="#font_1_1" transform="matrix(9.9626,0,0,-9.9626,32.28518,68.826007)"/>
<use xlink:href="#font_2_1" transform="matrix(9.9626,0,0,-9.9626,36.923944,71.31665)"/>
<symbol id="font_1_6">
<path d="M .32500003 .34000004 L .32500003 .30800004 C .32500003 .074 .22100002 .028 .16300002 .028 C .146 .028 .092 .030000002 .065000008 .064 C .109000008 .064 .117000009 .093 .117000009 .11000001 C .117000009 .141 .093 .156 .071 .156 C .055 .156 .024999999 .147 .024999999 .108 C .024999999 .041 .079 0 .164 0 C .293 0 .41500003 .136 .41500003 .35100005 C .41500003 .62000009 .3 .688 .21100003 .688 C .15600002 .688 .107 .67 .064 .62500008 C .023000002 .58000007 0 .53800007 0 .46300004 C 0 .33800004 .08800001 .24000001 .20000002 .24000001 C .261 .24000001 .30200003 .28200004 .32500003 .34000004 M .201 .263 C .185 .263 .139 .263 .108 .32600004 C .089999999 .36300005 .089999999 .41300006 .089999999 .46200005 C .089999999 .51600006 .089999999 .563 .11100001 .6 C .13800001 .65000006 .176 .66300007 .21100003 .66300007 C .25700004 .66300007 .29000003 .62900009 .307 .58400008 C .31900005 .55200007 .323 .48900003 .323 .44300006 C .323 .36000005 .28900004 .263 .201 .263 Z "/>
</symbol>
<use xlink:href="#font_1_6" transform="matrix(9.9626,0,0,-9.9626,41.77543,69.04518)"/>
<use xlink:href="#font_2_2" transform="matrix(9.9626,0,0,-9.9626,3.792505,79.08159)"/>
<symbol id="font_3_4">
<path d="M .49000005 .164 L .49000005 .2 L .379 .2 L .379 .646 C .379 .66700008 .379 .674 .35700003 .674 C .345 .674 .34100003 .674 .331 .66 L 0 .2 L 0 .164 L .294 .164 L .294 .082 C .294 .048 .294 .036000004 .213 .036000004 L .186 .036000004 L .186 0 C .236 .002 .3 .004 .33600004 .004 C .37300004 .004 .437 .002 .48700003 0 L .48700003 .036000004 L .46 .036000004 C .379 .036000004 .379 .048 .379 .082 L .379 .164 L .49000005 .164 M .301 .56600007 L .301 .2 L .037000006 .2 L .301 .56600007 Z "/>
</symbol>
<use xlink:href="#font_3_4" transform="matrix(6.9738,0,0,-6.9738,8.931979,80.466)"/>
<use xlink:href="#font_1_7" transform="matrix(9.9626,0,0,-9.9626,16.454907,77.64697)"/>
<use xlink:href="#font_1_1" transform="matrix(9.9626,0,0,-9.9626,27.304179,78.972)"/>
<use xlink:href="#font_2_1" transform="matrix(9.9626,0,0,-9.9626,31.942944,81.46265)"/>
<symbol id="font_1_5">
<path d="M .089999999 .35000003 L .089999999 .37400005 C .089999999 .62700006 .21400002 .66300007 .26500003 .66300007 C .28900004 .66300007 .33100004 .65700009 .35300002 .623 C .33800004 .623 .298 .623 .298 .57800009 C .298 .54700008 .32200004 .53200009 .344 .53200009 C .36 .53200009 .39000003 .54100009 .39000003 .58000007 C .39000003 .64000007 .34600003 .688 .263 .688 C .13499999 .688 0 .559 0 .33800004 C 0 .071 .116000007 0 .20900002 0 C .32000003 0 .41500003 .094000007 .41500003 .22600001 C .41500003 .35300005 .32600004 .44900004 .215 .44900004 C .14700002 .44900004 .11000001 .39800004 .089999999 .35000003 M .20900002 .028 C .146 .028 .116000007 .088 .11000001 .103 C .092 .15 .092 .23 .092 .24800001 C .092 .32600004 .124000009 .42600004 .21400002 .42600004 C .23000002 .42600004 .27600003 .42600004 .307 .36400003 C .32500003 .32700003 .32500003 .27600003 .32500003 .22700002 C .32500003 .179 .32500003 .12900001 .30800004 .093 C .27800004 .033000005 .23200003 .028 .20900002 .028 Z "/>
</symbol>
<use xlink:href="#font_1_1" transform="matrix(9.9626,0,0,-9.9626,37.262674,78.972)"/>
<use xlink:href="#font_1_5" transform="matrix(9.9626,0,0,-9.9626,41.77573,79.19118)"/>
<path transform="matrix(1,0,0,-1,46.772,99.366008)" d="M 60.14056 83.91187 C 60.14056 85.01234 59.24849 85.90442 58.14801 85.90442 C 57.04755 85.90442 56.15546 85.01234 56.15546 83.91187 C 56.15546 82.8114 57.04755 81.91931 58.14801 81.91931 C 59.24849 81.91931 60.14056 82.8114 60.14056 83.91187 Z M 58.14801 83.91187 " fill="#000080"/>
<path transform="matrix(1,0,0,-1,46.772,99.366008)" stroke-width="1" stroke-linecap="butt" stroke-miterlimit="10" stroke-linejoin="miter" fill="none" stroke="#000080" d="M 60.14056 83.91187 C 60.14056 85.01234 59.24849 85.90442 58.14801 85.90442 C 57.04755 85.90442 56.15546 85.01234 56.15546 83.91187 C 56.15546 82.8114 57.04755 81.91931 58.14801 81.91931 C 59.24849 81.91931 60.14056 82.8114 60.14056 83.91187 Z M 58.14801 83.91187 "/>
<path transform="matrix(1,0,0,-1,46.772,99.366008)" d="M 113.00241 45.77011 C 113.00241 46.87057 112.11032 47.76266 111.00986 47.76266 C 109.90938 47.76266 109.0173 46.87057 109.0173 45.77011 C 109.0173 44.66963 109.90938 43.77756 111.00986 43.77756 C 112.11032 43.77756 113.00241 44.66963 113.00241 45.77011 Z M 111.00986 45.77011 " fill="#000080"/>
<path transform="matrix(1,0,0,-1,46.772,99.366008)" stroke-width="1" stroke-linecap="butt" stroke-miterlimit="10" stroke-linejoin="miter" fill="none" stroke="#000080" d="M 113.00241 45.77011 C 113.00241 46.87057 112.11032 47.76266 111.00986 47.76266 C 109.90938 47.76266 109.0173 46.87057 109.0173 45.77011 C 109.0173 44.66963 109.90938 43.77756 111.00986 43.77756 C 112.11032 43.77756 113.00241 44.66963 113.00241 45.77011 Z M 111.00986 45.77011 "/>
<path transform="matrix(1,0,0,-1,46.772,99.366008)" d="M 165.86425 33.05592 C 165.86425 34.15639 164.97217 35.04848 163.87169 35.04848 C 162.77123 35.04848 161.87914 34.15639 161.87914 33.05592 C 161.87914 31.95544 162.77123 31.06337 163.87169 31.06337 C 164.97217 31.06337 165.86425 31.95544 165.86425 33.05592 Z M 163.87169 33.05592 " fill="#000080"/>
<path transform="matrix(1,0,0,-1,46.772,99.366008)" stroke-width="1" stroke-linecap="butt" stroke-miterlimit="10" stroke-linejoin="miter" fill="none" stroke="#000080" d="M 165.86425 33.05592 C 165.86425 34.15639 164.97217 35.04848 163.87169 35.04848 C 162.77123 35.04848 161.87914 34.15639 161.87914 33.05592 C 161.87914 31.95544 162.77123 31.06337 163.87169 31.06337 C 164.97217 31.06337 165.86425 31.95544 165.86425 33.05592 Z M 163.87169 33.05592 "/>
<path transform="matrix(1,0,0,-1,46.772,99.366008)" d="M 218.72609 26.69923 C 218.72609 27.7997 217.834 28.69179 216.73354 28.69179 C 215.63306 28.69179 214.74098 27.7997 214.74098 26.69923 C 214.74098 25.59875 215.63306 24.70668 216.73354 24.70668 C 217.834 24.70668 218.72609 25.59875 218.72609 26.69923 Z M 216.73354 26.69923 " fill="#000080"/>
<path transform="matrix(1,0,0,-1,46.772,99.366008)" stroke-width="1" stroke-linecap="butt" stroke-miterlimit="10" stroke-linejoin="miter" fill="none" stroke="#000080" d="M 218.72609 26.69923 C 218.72609 27.7997 217.834 28.69179 216.73354 28.69179 C 215.63306 28.69179 214.74098 27.7997 214.74098 26.69923 C 214.74098 25.59875 215.63306 24.70668 216.73354 24.70668 C 217.834 24.70668 218.72609 25.59875 218.72609 26.69923 Z M 216.73354 26.69923 "/>
</svg>
