<?xml version="1.0" encoding="UTF-8" standalone="no"?>
<!DOCTYPE svg PUBLIC "-//W3C//DTD SVG 1.1//EN" "http://www.w3.org/Graphics/SVG/1.1/DTD/svg11.dtd">
<svg xmlns="http://www.w3.org/2000/svg" xmlns:xlink="http://www.w3.org/1999/xlink" version="1.1" width="252.333pt" height="114.752pt" viewBox="0 0 252.333 114.752">
<clipPath id="cp0">
<path transform="matrix(1,0,0,-1,8.966,99.365)" d="M 0 0 L 243.17084 0 L 243.17084 99.16782 L 0 99.16782 Z "/>
</clipPath>
<g clip-path="url(#cp0)">
<path transform="matrix(1,0,0,-1,8.966,99.365)" d="M 0 0 L 40.52847 0 L 40.52847 66.11188 L 0 66.11188 " fill="#cccce6"/>
<path transform="matrix(1,0,0,-1,8.966,99.365)" stroke-width="1" stroke-linecap="butt" stroke-miterlimit="10" stroke-linejoin="miter" fill="none" stroke="#000080" d="M 0 0 L 40.52847 0 L 40.52847 66.11188 L 0 66.11188 "/>
<path transform="matrix(1,0,0,-1,8.966,99.365)" d="M 40.52847 0 L 81.05695 0 L 81.05695 16.52797 L 40.52847 16.52797 L 40.52847 0 " fill="#cccce6"/>
<path transform="matrix(1,0,0,-1,8.966,99.365)" stroke-width="1" stroke-linecap="butt" stroke-miterlimit="10" stroke-linejoin="miter" fill="none" stroke="#000080" d="M 40.52847 0 L 81.05695 0 L 81.05695 16.52797 L 40.52847 16.52797 L 40.52847 0 "/>
<path transform="matrix(1,0,0,-1,8.966,99.365)" d="M 81.05695 0 L 121.58542 0 L 121.58542 7.34502 L 81.05695 7.34502 L 81.05695 0 " fill="#cccce6"/>
<path transform="matrix(1,0,0,-1,8.966,99.365)" stroke-width="1" stroke-linecap="butt" stroke-miterlimit="10" stroke-linejoin="miter" fill="none" stroke="#000080" d="M 81.05695 0 L 121.58542 0 L 121.58542 7.34502 L 81.05695 7.34502 L 81.05695 0 "/>
<path transform="matrix(1,0,0,-1,8.966,99.365)" d="M 121.58542 0 L 162.11389 0 L 162.11389 4.13199 L 121.58542 4.13199 L 121.58542 0 " fill="#cccce6"/>
<path transform="matrix(1,0,0,-1,8.966,99.365)" stroke-width="1" stroke-linecap="butt" stroke-miterlimit="10" stroke-linejoin="miter" fill="none" stroke="#000080" d="M 121.58542 0 L 162.11389 0 L 162.11389 4.13199 L 121.58542 4.13199 L 121.58542 0 "/>
<path transform="matrix(1,0,0,-1,8.966,99.365)" d="M 162.11389 0 L 202.64237 0 L 202.64237 2.64447 L 162.11389 2.64447 L 162.11389 0 " fill="#cccce6"/>
<path transform="matrix(1,0,0,-1,8.966,99.365)" stroke-width="1" stroke-linecap="butt" stroke-miterlimit="10" stroke-linejoin="miter" fill="none" stroke="#000080" d="M 162.11389 0 L 202.64237 0 L 202.64237 2.64447 L 162.11389 2.64447 L 162.11389 0 "/>
<path transform="matrix(1,0,0,-1,8.966,99.365)" d="M 202.64237 0 L 243.17084 0 L 243.17084 1.83638 L 202.64237 1.83638 L 202.64237 0 " fill="#cccce6"/>
<path transform="matrix(1,0,0,-1,8.966,99.365)" stroke-width="1" stroke-linecap="butt" stroke-miterlimit="10" stroke-linejoin="miter" fill="none" stroke="#000080" d="M 202.64237 0 L 243.17084 0 L 243.17084 1.83638 L 202.64237 1.83638 L 202.64237 0 "/>
<path transform="matrix(1,0,0,-1,8.966,99.365)" stroke-width="1.19553" stroke-linecap="butt" stroke-miterlimit="10" stroke-linejoin="miter" fill="none" stroke="#000080" d="M 20.26424 264.44755 C 20.26424 264.44755 26.97466 151.04645 29.55197 124.34322 C 32.12929 97.63998 36.2624 82.73672 38.83972 71.98921 C 41.41704 61.24171 45.55016 52.30028 48.12747 46.88257 C 50.70477 41.46487 54.8379 36.06073 57.41522 32.94223 C 59.99254 29.82372 64.12564 26.36795 66.70296 24.40651 C 69.28027 22.44507 73.4134 20.12007 75.9907 18.80551 C 78.56802 17.49095 82.70114 15.85645 85.27846 14.932 C 87.85577 14.00758 91.98888 12.8175 94.5662 12.14276 C 97.14351 11.468 101.27664 10.57663 103.85394 10.06883 C 106.43126 9.56102 110.56438 8.87457 113.1417 8.4828 C 115.71901 8.09103 119.85213 7.55371 122.42944 7.24518 C 125.00676 6.93666 129.13988 6.50658 131.71718 6.25914 C 134.2945 6.01169 138.42763 5.66316 141.00495 5.46175 C 143.58226 5.26033 147.71537 4.97359 150.29268 4.80743 C 152.87 4.64128 157.00312 4.40285 159.58042 4.26419 C 162.15773 4.12553 166.29087 3.92496 168.86818 3.80803 C 171.44548 3.6911 175.5786 3.52095 178.15592 3.42142 C 180.73323 3.32187 184.86637 3.176 187.44367 3.09059 C 190.02098 3.00517 194.1541 2.8796 196.73142 2.80577 C 199.30872 2.73195 203.44185 2.62279 206.01917 2.55852 C 208.59648 2.49425 212.7296 2.39876 215.3069 2.34247 C 217.88422 2.28618 222.01734 2.20227 224.59465 2.15271 C 227.17195 2.10315 231.30509 2.02908 233.8824 1.9852 C 236.45972 1.94133 243.17014 1.8365 243.17014 1.8365 "/>
</g>
<path transform="matrix(1,0,0,-1,8.966,99.365)" stroke-width="1" stroke-linecap="butt" stroke-miterlimit="10" stroke-linejoin="miter" fill="none" stroke="#808080" d="M 40.52847 -2.12599 L 40.52847 2.12599 M 81.05695 -2.12599 L 81.05695 2.12599 M 121.58542 -2.12599 L 121.58542 2.12599 M 162.11389 -2.12599 L 162.11389 2.12599 M 202.64237 -2.12599 L 202.64237 2.12599 "/>
<path transform="matrix(1,0,0,-1,8.966,99.365)" stroke-width="1" stroke-linecap="butt" stroke-miterlimit="10" stroke-linejoin="miter" fill="none" stroke="#808080" d="M -2.12598 66.11188 L 2.12598 66.11188 M -2.12598 33.05594 L 2.12598 33.05594 M -2.12598 22.01524 L 2.12598 22.01524 M -2.12598 16.52797 L 2.12598 16.52797 M -2.12598 13.22237 L 2.12598 13.22237 "/>
<path transform="matrix(1,0,0,-1,8.966,99.365)" stroke-width="1" stroke-linecap="butt" stroke-miterlimit="10" stroke-linejoin="miter" fill="none" stroke="#000000" d="M 0 0 L 241.17832 0 "/>
<path transform="matrix(1,0,0,-1,250.14432,99.365)" d="M 1.99252 0 L -1.19551 1.59401 L 0 0 L -1.19551 -1.59401 "/>
<path transform="matrix(1,0,0,-1,8.966,99.365)" stroke-width="1" stroke-linecap="butt" stroke-miterlimit="10" stroke-linejoin="miter" fill="none" stroke="#000000" d="M 0 0 L 0 97.1753 "/>
<path transform="matrix(0,-1,-1,-0,8.966,2.1896973)" d="M 1.99252 0 L -1.19551 1.59401 L 0 0 L -1.19551 -1.59401 "/>
<symbol id="font_1_1">
<path d="M .205 .64000007 C .205 .66400006 .205 .666 .18200003 .666 C .120000008 .60200008 .032000007 .60200008 0 .60200008 L 0 .57100006 C .020000004 .57100006 .07900001 .57100006 .13100001 .597 L .13100001 .079 C .13100001 .043 .128 .031000002 .038000004 .031000002 L .0060000049 .031000002 L .0060000049 0 C .04100001 .003 .128 .003 .168 .003 C .20800002 .003 .29500003 .003 .33000005 0 L .33000005 .031000002 L .29800005 .031000002 C .20800002 .031000002 .205 .042000005 .205 .079 L .205 .64000007 Z "/>
</symbol>
<use xlink:href="#font_1_1" transform="matrix(9.9626,0,0,-9.9626,47.89067,111.431)"/>
<symbol id="font_1_2">
<path d="M .07700001 .07700001 L .18300002 .18 C .33900003 .31800003 .39900003 .372 .39900003 .47200004 C .39900003 .586 .30900003 .666 .18700002 .666 C .074 .666 0 .574 0 .485 C 0 .42900003 .05 .42900003 .053000008 .42900003 C .07000001 .42900003 .105000007 .441 .105000007 .48200003 C .105000007 .508 .08700001 .53400006 .052000006 .53400006 C .044000005 .53400006 .042000008 .53400006 .039 .53300008 C .062000004 .59800007 .11600001 .63500007 .17400001 .63500007 C .26500003 .63500007 .308 .554 .308 .47200004 C .308 .39200003 .25800003 .31300003 .20300003 .25100003 L .011000004 .037 C 0 .026 0 .024 0 0 L .37100003 0 L .39900003 .17400001 L .374 .17400001 C .36900003 .14400001 .36200003 .1 .352 .085 C .345 .07700001 .279 .07700001 .257 .07700001 L .07700001 .07700001 Z "/>
</symbol>
<use xlink:href="#font_1_2" transform="matrix(9.9626,0,0,-9.9626,88.03013,111.431)"/>
<symbol id="font_1_3">
<path d="M .24800003 .37400005 C .33 .40100003 .388 .47100006 .388 .55 C .388 .632 .3 .688 .204 .688 C .10300001 .688 .027000003 .628 .027000003 .55200007 C .027000003 .519 .049000004 .5 .078 .5 C .109000008 .5 .12900001 .522 .12900001 .55100008 C .12900001 .6010001 .082 .6010001 .067 .6010001 C .098 .65000006 .164 .66300007 .20000002 .66300007 C .24100003 .66300007 .29600004 .64100006 .29600004 .55100008 C .29600004 .53900006 .29400004 .48100005 .268 .43700005 C .238 .38900004 .204 .38600005 .17900002 .38500003 C .171 .38400004 .14700002 .38200004 .14000002 .38200004 C .132 .38100005 .125 .38000003 .125 .37000004 C .125 .35900004 .132 .35900004 .14900002 .35900004 L .19300002 .35900004 C .275 .35900004 .312 .29100005 .312 .193 C .312 .057000005 .24300003 .028 .199 .028 C .15600002 .028 .081 .045 .046000005 .104 C .081 .09900001 .11200001 .12100001 .11200001 .15900001 C .11200001 .19500001 .085 .215 .056 .215 C .031999999 .215 0 .201 0 .157 C 0 .06600001 .093 0 .20200002 0 C .32400004 0 .41500003 .091000009 .41500003 .193 C .41500003 .27500005 .35200004 .35300005 .24800003 .37400005 Z "/>
</symbol>
<use xlink:href="#font_1_3" transform="matrix(9.9626,0,0,-9.9626,128.47743,111.65018)"/>
<symbol id="font_1_4">
<path d="M .266 .165 L .266 .078 C .266 .042000005 .26400004 .031000002 .19000001 .031000002 L .16900002 .031000002 L .16900002 0 C .21000001 .003 .26200003 .003 .30400003 .003 C .34600003 .003 .39900003 .003 .44000004 0 L .44000004 .031000002 L .41900004 .031000002 C .34500004 .031000002 .34300003 .042000005 .34300003 .078 L .34300003 .165 L .44300003 .165 L .44300003 .19600001 L .34300003 .19600001 L .34300003 .651 C .34300003 .671 .34300003 .67700007 .32700003 .67700007 C .31800003 .67700007 .31500004 .67700007 .307 .665 L 0 .19600001 L 0 .165 L .266 .165 M .272 .19600001 L .028 .19600001 L .272 .569 L .272 .19600001 Z "/>
</symbol>
<use xlink:href="#font_1_4" transform="matrix(9.9626,0,0,-9.9626,168.86595,111.431)"/>
<symbol id="font_1_5">
<path d="M .39900003 .223 C .39900003 .34200005 .317 .44200004 .209 .44200004 C .16100002 .44200004 .118000019 .42600004 .082 .39100004 L .082 .586 C .10200001 .58000007 .135 .573 .16700001 .573 C .29 .573 .36 .66400006 .36 .67700007 C .36 .683 .357 .688 .35 .688 C .349 .688 .347 .688 .342 .68500009 C .322 .67600008 .273 .656 .20600002 .656 C .16600001 .656 .120000008 .66300007 .073 .6840001 C .065 .68700006 .06300001 .68700006 .061000009 .68700006 C .051000004 .68700006 .051000004 .679 .051000004 .66300007 L .051000004 .36700005 C .051000004 .34900005 .051000004 .34100003 .065 .34100003 C .07200001 .34100003 .074 .34400005 .07800001 .35000003 C .08900002 .36600004 .12600002 .42000006 .207 .42000006 C .259 .42000006 .284 .37400005 .292 .35600005 C .308 .31900005 .31 .28000004 .31 .23 C .31 .19500001 .31 .135 .286 .093 C .262 .054000006 .22500001 .028 .17900002 .028 C .106000009 .028 .049000008 .08100001 .032 .14000002 C .035 .13900002 .038000008 .13800001 .049000008 .13800001 C .082 .13800001 .09900001 .163 .09900001 .187 C .09900001 .21100001 .082 .23600002 .049000008 .23600002 C .035 .23600002 0 .22900002 0 .18300002 C 0 .097 .069000009 0 .18100001 0 C .297 0 .39900003 .096 .39900003 .223 Z "/>
</symbol>
<use xlink:href="#font_1_5" transform="matrix(9.9626,0,0,-9.9626,209.61313,111.65018)"/>
<path transform="matrix(1,0,0,-1,8.966,99.365)" d="M 1.99255 66.11188 C 1.99255 67.21234 1.10046 68.10443 0 68.10443 C -1.10046 68.10443 -1.99255 67.21234 -1.99255 66.11188 C -1.99255 65.0114 -1.10046 64.11932 0 64.11932 C 1.10046 64.11932 1.99255 65.0114 1.99255 66.11188 Z M 0 66.11188 " fill="#000080"/>
<path transform="matrix(1,0,0,-1,8.966,99.365)" stroke-width="1" stroke-linecap="butt" stroke-miterlimit="10" stroke-linejoin="miter" fill="none" stroke="#000080" d="M 1.99255 66.11188 C 1.99255 67.21234 1.10046 68.10443 0 68.10443 C -1.10046 68.10443 -1.99255 67.21234 -1.99255 66.11188 C -1.99255 65.0114 -1.10046 64.11932 0 64.11932 C 1.10046 64.11932 1.99255 65.0114 1.99255 66.11188 Z M 0 66.11188 "/>
<path transform="matrix(1,0,0,-1,8.966,99.365)" d="M 42.52103 16.52797 C 42.52103 17.62843 41.62894 18.52052 40.52847 18.52052 C 39.428 18.52052 38.53592 17.62843 38.53592 16.52797 C 38.53592 15.42749 39.428 14.53542 40.52847 14.53542 C 41.62894 14.53542 42.52103 15.42749 42.52103 16.52797 Z M 40.52847 16.52797 " fill="#000080"/>
<path transform="matrix(1,0,0,-1,8.966,99.365)" stroke-width="1" stroke-linecap="butt" stroke-miterlimit="10" stroke-linejoin="miter" fill="none" stroke="#000080" d="M 42.52103 16.52797 C 42.52103 17.62843 41.62894 18.52052 40.52847 18.52052 C 39.428 18.52052 38.53592 17.62843 38.53592 16.52797 C 38.53592 15.42749 39.428 14.53542 40.52847 14.53542 C 41.62894 14.53542 42.52103 15.42749 42.52103 16.52797 Z M 40.52847 16.52797 "/>
<path transform="matrix(1,0,0,-1,8.966,99.365)" d="M 83.0495 7.34502 C 83.0495 8.44548 82.15741 9.33757 81.05695 9.33757 C 79.95647 9.33757 79.06439 8.44548 79.06439 7.34502 C 79.06439 6.24454 79.95647 5.35246 81.05695 5.35246 C 82.15741 5.35246 83.0495 6.24454 83.0495 7.34502 Z M 81.05695 7.34502 " fill="#000080"/>
<path transform="matrix(1,0,0,-1,8.966,99.365)" stroke-width="1" stroke-linecap="butt" stroke-miterlimit="10" stroke-linejoin="miter" fill="none" stroke="#000080" d="M 83.0495 7.34502 C 83.0495 8.44548 82.15741 9.33757 81.05695 9.33757 C 79.95647 9.33757 79.06439 8.44548 79.06439 7.34502 C 79.06439 6.24454 79.95647 5.35246 81.05695 5.35246 C 82.15741 5.35246 83.0495 6.24454 83.0495 7.34502 Z M 81.05695 7.34502 "/>
<path transform="matrix(1,0,0,-1,8.966,99.365)" d="M 123.57797 4.13199 C 123.57797 5.23245 122.68588 6.12454 121.58542 6.12454 C 120.48494 6.12454 119.59286 5.23245 119.59286 4.13199 C 119.59286 3.03151 120.48494 2.13943 121.58542 2.13943 C 122.68588 2.13943 123.57797 3.03151 123.57797 4.13199 Z M 121.58542 4.13199 " fill="#000080"/>
<path transform="matrix(1,0,0,-1,8.966,99.365)" stroke-width="1" stroke-linecap="butt" stroke-miterlimit="10" stroke-linejoin="miter" fill="none" stroke="#000080" d="M 123.57797 4.13199 C 123.57797 5.23245 122.68588 6.12454 121.58542 6.12454 C 120.48494 6.12454 119.59286 5.23245 119.59286 4.13199 C 119.59286 3.03151 120.48494 2.13943 121.58542 2.13943 C 122.68588 2.13943 123.57797 3.03151 123.57797 4.13199 Z M 121.58542 4.13199 "/>
<path transform="matrix(1,0,0,-1,8.966,99.365)" d="M 164.10645 2.64447 C 164.10645 3.74493 163.21436 4.63702 162.11389 4.63702 C 161.01342 4.63702 160.12134 3.74493 160.12134 2.64447 C 160.12134 1.54399 161.01342 .65192 162.11389 .65192 C 163.21436 .65192 164.10645 1.54399 164.10645 2.64447 Z M 162.11389 2.64447 " fill="#000080"/>
<path transform="matrix(1,0,0,-1,8.966,99.365)" stroke-width="1" stroke-linecap="butt" stroke-miterlimit="10" stroke-linejoin="miter" fill="none" stroke="#000080" d="M 164.10645 2.64447 C 164.10645 3.74493 163.21436 4.63702 162.11389 4.63702 C 161.01342 4.63702 160.12134 3.74493 160.12134 2.64447 C 160.12134 1.54399 161.01342 .65192 162.11389 .65192 C 163.21436 .65192 164.10645 1.54399 164.10645 2.64447 Z M 162.11389 2.64447 "/>
<path transform="matrix(1,0,0,-1,8.966,99.365)" d="M 204.63492 1.83638 C 204.63492 2.93684 203.74283 3.82893 202.64237 3.82893 C 201.5419 3.82893 200.64981 2.93684 200.64981 1.83638 C 200.64981 .7359 201.5419 -.15616 202.64237 -.15616 C 203.74283 -.15616 204.63492 .7359 204.63492 1.83638 Z M 202.64237 1.83638 " fill="#000080"/>
<path transform="matrix(1,0,0,-1,8.966,99.365)" stroke-width="1" stroke-linecap="butt" stroke-miterlimit="10" stroke-linejoin="miter" fill="none" stroke="#000080" d="M 204.63492 1.83638 C 204.63492 2.93684 203.74283 3.82893 202.64237 3.82893 C 201.5419 3.82893 200.64981 2.93684 200.64981 1.83638 C 200.64981 .7359 201.5419 -.15616 202.64237 -.15616 C 203.74283 -.15616 204.63492 .7359 204.63492 1.83638 Z M 202.64237 1.83638 "/>
</svg>
