<?xml version="1.0" encoding="UTF-8" standalone="no"?>
<!DOCTYPE svg PUBLIC "-//W3C//DTD SVG 1.1//EN" "http://www.w3.org/Graphics/SVG/1.1/DTD/svg11.dtd">
<svg xmlns="http://www.w3.org/2000/svg" xmlns:xlink="http://www.w3.org/1999/xlink" version="1.1" width="219.039pt" height="175.716pt" viewBox="0 0 219.039 175.716">
<path transform="matrix(1,0,0,-1,14.303,164.955)" stroke-width=".3985" stroke-linecap="butt" stroke-miterlimit="10" stroke-linejoin="miter" fill="none" stroke="#cbcbcb" d="M 50.87906 0 L 50.87906 153.79503 M 97.13275 0 L 97.13275 153.79503 M 143.38643 0 L 143.38643 153.79503 M 189.64012 0 L 189.64012 153.79503 "/>
<path transform="matrix(1,0,0,-1,14.303,164.955)" stroke-width=".3985" stroke-linecap="butt" stroke-miterlimit="10" stroke-linejoin="miter" fill="none" stroke="#cbcbcb" d="M 0 33.53426 L 194.2655 33.53426 M 0 62.44308 L 194.2655 62.44308 M 0 91.35193 L 194.2655 91.35193 M 0 120.26077 L 194.2655 120.26077 M 0 149.16962 L 194.2655 149.16962 "/>
<path transform="matrix(1,0,0,-1,14.303,164.955)" stroke-width=".19925" stroke-linecap="butt" stroke-miterlimit="10" stroke-linejoin="miter" fill="none" stroke="#929292" d="M 50.87906 2.49931 L 50.87906 6.75148 M 97.13275 2.49931 L 97.13275 6.75148 M 143.38643 2.49931 L 143.38643 6.75148 M 189.64012 2.49931 L 189.64012 6.75148 "/>
<path transform="matrix(1,0,0,-1,14.303,164.955)" stroke-width=".19925" stroke-linecap="butt" stroke-miterlimit="10" stroke-linejoin="miter" fill="none" stroke="#929292" d="M 2.49991 33.53426 L 6.7508 33.53426 M 2.49991 62.44308 L 6.7508 62.44308 M 2.49991 91.35193 L 6.7508 91.35193 M 2.49991 120.26077 L 6.7508 120.26077 M 2.49991 149.16962 L 6.7508 149.16962 "/>
<path transform="matrix(1,0,0,-1,14.303,164.955)" stroke-width=".3985" stroke-linecap="butt" stroke-miterlimit="10" stroke-linejoin="miter" fill="none" stroke="#000000" d="M 0 4.62541 L 192.27298 4.62541 "/>
<path transform="matrix(1,0,0,-1,206.57598,160.32959)" d="M 1.99252 0 L -1.19551 1.59401 L 0 0 L -1.19551 -1.59401 "/>
<path transform="matrix(1,0,0,-1,14.303,164.955)" stroke-width=".3985" stroke-linecap="butt" stroke-miterlimit="10" stroke-linejoin="miter" fill="none" stroke="#000000" d="M 4.62537 0 L 4.62537 151.8025 "/>
<path transform="matrix(0,-1,-1,-0,18.928372,13.152496)" d="M 1.99252 0 L -1.19551 1.59401 L 0 0 L -1.19551 -1.59401 "/>
<symbol id="font_0_2">
<path d="M .205 .64000007 C .205 .66400006 .205 .666 .18200003 .666 C .120000008 .60200008 .032000007 .60200008 0 .60200008 L 0 .57100006 C .020000004 .57100006 .07900001 .57100006 .13100001 .597 L .13100001 .079 C .13100001 .043 .128 .031000002 .038000004 .031000002 L .0060000049 .031000002 L .0060000049 0 C .04100001 .003 .128 .003 .168 .003 C .20800002 .003 .29500003 .003 .33000005 0 L .33000005 .031000002 L .29800005 .031000002 C .20800002 .031000002 .205 .042000005 .205 .079 L .205 .64000007 Z "/>
</symbol>
<use xlink:href="#font_0_2" transform="matrix(9.9626,0,0,-9.9626,63.577676,172.395)"/>
<symbol id="font_0_3">
<path d="M .07700001 .07700001 L .18300002 .18 C .33900003 .31800003 .39900003 .372 .39900003 .47200004 C .39900003 .586 .30900003 .666 .18700002 .666 C .074 .666 0 .574 0 .485 C 0 .42900003 .05 .42900003 .053000008 .42900003 C .07000001 .42900003 .105000007 .441 .105000007 .48200003 C .105000007 .508 .08700001 .53400006 .052000006 .53400006 C .044000005 .53400006 .042000008 .53400006 .039 .53300008 C .062000004 .59800007 .11600001 .63500007 .17400001 .63500007 C .26500003 .63500007 .308 .554 .308 .47200004 C .308 .39200003 .25800003 .31300003 .20300003 .25100003 L .011000004 .037 C 0 .026 0 .024 0 0 L .37100003 0 L .39900003 .17400001 L .374 .17400001 C .36900003 .14400001 .36200003 .1 .352 .085 C .345 .07700001 .279 .07700001 .257 .07700001 L .07700001 .07700001 Z "/>
</symbol>
<use xlink:href="#font_0_3" transform="matrix(9.9626,0,0,-9.9626,109.44213,172.395)"/>
<symbol id="font_0_4">
<path d="M .24800003 .37400005 C .33 .40100003 .388 .47100006 .388 .55 C .388 .632 .3 .688 .204 .688 C .10300001 .688 .027000003 .628 .027000003 .55200007 C .027000003 .519 .049000004 .5 .078 .5 C .109000008 .5 .12900001 .522 .12900001 .55100008 C .12900001 .6010001 .082 .6010001 .067 .6010001 C .098 .65000006 .164 .66300007 .20000002 .66300007 C .24100003 .66300007 .29600004 .64100006 .29600004 .55100008 C .29600004 .53900006 .29400004 .48100005 .268 .43700005 C .238 .38900004 .204 .38600005 .17900002 .38500003 C .171 .38400004 .14700002 .38200004 .14000002 .38200004 C .132 .38100005 .125 .38000003 .125 .37000004 C .125 .35900004 .132 .35900004 .14900002 .35900004 L .19300002 .35900004 C .275 .35900004 .312 .29100005 .312 .193 C .312 .057000005 .24300003 .028 .199 .028 C .15600002 .028 .081 .045 .046000005 .104 C .081 .09900001 .11200001 .12100001 .11200001 .15900001 C .11200001 .19500001 .085 .215 .056 .215 C .031999999 .215 0 .201 0 .157 C 0 .06600001 .093 0 .20200002 0 C .32400004 0 .41500003 .091000009 .41500003 .193 C .41500003 .27500005 .35200004 .35300005 .24800003 .37400005 Z "/>
</symbol>
<use xlink:href="#font_0_4" transform="matrix(9.9626,0,0,-9.9626,155.61542,172.61418)"/>
<symbol id="font_0_5">
<path d="M .266 .165 L .266 .078 C .266 .042000005 .26400004 .031000002 .19000001 .031000002 L .16900002 .031000002 L .16900002 0 C .21000001 .003 .26200003 .003 .30400003 .003 C .34600003 .003 .39900003 .003 .44000004 0 L .44000004 .031000002 L .41900004 .031000002 C .34500004 .031000002 .34300003 .042000005 .34300003 .078 L .34300003 .165 L .44300003 .165 L .44300003 .19600001 L .34300003 .19600001 L .34300003 .651 C .34300003 .671 .34300003 .67700007 .32700003 .67700007 C .31800003 .67700007 .31500004 .67700007 .307 .665 L 0 .19600001 L 0 .165 L .266 .165 M .272 .19600001 L .028 .19600001 L .272 .569 L .272 .19600001 Z "/>
</symbol>
<use xlink:href="#font_0_5" transform="matrix(9.9626,0,0,-9.9626,201.72895,172.395)"/>
<symbol id="font_0_6">
<path d="M .39900003 .223 C .39900003 .34200005 .317 .44200004 .209 .44200004 C .16100002 .44200004 .118000019 .42600004 .082 .39100004 L .082 .586 C .10200001 .58000007 .135 .573 .16700001 .573 C .29 .573 .36 .66400006 .36 .67700007 C .36 .683 .357 .688 .35 .688 C .349 .688 .347 .688 .342 .68500009 C .322 .67600008 .273 .656 .20600002 .656 C .16600001 .656 .120000008 .66300007 .073 .6840001 C .065 .68700006 .06300001 .68700006 .061000009 .68700006 C .051000004 .68700006 .051000004 .679 .051000004 .66300007 L .051000004 .36700005 C .051000004 .34900005 .051000004 .34100003 .065 .34100003 C .07200001 .34100003 .074 .34400005 .07800001 .35000003 C .08900002 .36600004 .12600002 .42000006 .207 .42000006 C .259 .42000006 .284 .37400005 .292 .35600005 C .308 .31900005 .31 .28000004 .31 .23 C .31 .19500001 .31 .135 .286 .093 C .262 .054000006 .22500001 .028 .17900002 .028 C .106000009 .028 .049000008 .08100001 .032 .14000002 C .035 .13900002 .038000008 .13800001 .049000008 .13800001 C .082 .13800001 .09900001 .163 .09900001 .187 C .09900001 .21100001 .082 .23600002 .049000008 .23600002 C .035 .23600002 0 .22900002 0 .18300002 C 0 .097 .069000009 0 .18100001 0 C .297 0 .39900003 .096 .39900003 .223 Z "/>
</symbol>
<use xlink:href="#font_0_6" transform="matrix(9.9626,0,0,-9.9626,8.80013,134.85019)"/>
<symbol id="font_0_1">
<path d="M .421 .34200005 C .421 .42200003 .416 .50200006 .381 .57600006 C .335 .67200008 .25300003 .688 .211 .688 C .15100001 .688 .07800001 .66200008 .037000006 .56900009 C .0050000029 .5 0 .42200003 0 .34200005 C 0 .26700003 .0040000008 .177 .045000007 .101 C .088 .020000002 .161 0 .21000001 0 C .264 0 .34 .021000002 .384 .116000007 C .416 .185 .421 .263 .421 .34200005 M .21000001 .022000002 C .171 .022000002 .112 .047000003 .094 .143 C .083000008 .20300001 .083000008 .29500003 .083000008 .35400004 C .083000008 .41800005 .083000008 .48400004 .091000009 .53800007 C .11 .65700009 .185 .66600009 .21000001 .66600009 C .243 .66600009 .30900003 .64800009 .328 .549 C .338 .49300004 .338 .41700004 .338 .35400004 C .338 .279 .338 .21100001 .32700003 .147 C .312 .052 .255 .022000002 .21000001 .022000002 Z "/>
</symbol>
<use xlink:href="#font_0_2" transform="matrix(9.9626,0,0,-9.9626,4.2076718,105.72301)"/>
<use xlink:href="#font_0_1" transform="matrix(9.9626,0,0,-9.9626,8.690841,105.942188)"/>
<use xlink:href="#font_0_2" transform="matrix(9.9626,0,0,-9.9626,4.2076718,76.814)"/>
<use xlink:href="#font_0_6" transform="matrix(9.9626,0,0,-9.9626,8.800429,77.03318)"/>
<use xlink:href="#font_0_3" transform="matrix(9.9626,0,0,-9.9626,3.8191303,47.906007)"/>
<use xlink:href="#font_0_1" transform="matrix(9.9626,0,0,-9.9626,8.690841,48.125185)"/>
<use xlink:href="#font_0_3" transform="matrix(9.9626,0,0,-9.9626,3.8191303,18.99701)"/>
<use xlink:href="#font_0_6" transform="matrix(9.9626,0,0,-9.9626,8.800429,19.216187)"/>
<clipPath id="cp1">
<path transform="matrix(1,0,0,-1,14.303,164.955)" d="M 0 0 L 194.2655 0 L 194.2655 153.79503 L 0 153.79503 Z "/>
</clipPath>
<g clip-path="url(#cp1)">
<path transform="matrix(1,0,0,-1,14.303,164.955)" stroke-width="1.59404" stroke-linecap="butt" stroke-miterlimit="10" stroke-linejoin="miter" fill="none" stroke="#000080" d="M 4.62537 4.62541 L 6.55255 9.44347 L 8.47974 14.26154 L 10.407 19.07959 L 12.33418 23.89766 L 14.26138 28.71571 L 16.18857 33.53378 L 18.11583 38.35185 L 20.04301 43.1699 L 21.97021 47.98798 L 23.8974 52.80603 L 25.82466 57.6241 L 27.75185 62.44217 L 29.67905 67.26022 L 31.60623 72.0783 L 33.53342 76.89635 L 35.46068 81.71442 L 37.38788 86.53249 L 39.31506 91.35054 L 41.24225 96.16861 L 43.16951 100.98666 L 45.0967 105.80473 L 47.0239 110.6228 L 48.95108 115.44086 L 50.87834 120.25893 "/>
<path transform="matrix(1,0,0,-1,14.303,164.955)" stroke-width="1.59404" stroke-linecap="butt" stroke-miterlimit="10" stroke-linejoin="miter" fill="none" stroke="#000080" d="M 50.87906 120.26077 L 52.80624 120.26077 L 54.73343 120.26077 L 56.66069 120.26077 L 58.58788 120.26077 L 60.51508 120.26077 L 62.44226 120.26077 L 64.36945 120.26077 L 66.2967 120.26077 L 68.2239 120.26077 L 70.1511 120.26077 L 72.07828 120.26077 L 74.00548 120.26077 L 75.93274 120.26077 L 77.85992 120.26077 L 79.78711 120.26077 L 81.71431 120.26077 L 83.6415 120.26077 L 85.56876 120.26077 L 87.49594 120.26077 L 89.42314 120.26077 L 91.35033 120.26077 L 93.27751 120.26077 L 95.20477 120.26077 L 97.13196 120.26077 "/>
<path transform="matrix(1,0,0,-1,14.303,164.955)" stroke-width="1.59404" stroke-linecap="butt" stroke-miterlimit="10" stroke-linejoin="miter" fill="none" stroke="#000080" d="M 97.13275 120.26077 L 100.9872 115.44266 L 104.84164 110.62454 L 108.69609 105.80643 L 112.55055 100.98833 L 116.40508 96.17012 L 120.25952 91.352 L 124.11397 86.5339 L 127.96841 81.71579 L 131.82288 76.89767 L 135.67733 72.07956 L 139.53177 67.26146 L 143.38623 62.44334 L 147.24068 57.62523 L 151.09513 52.80711 L 154.94963 47.98892 L 158.80408 43.1708 L 162.65854 38.35269 L 166.51299 33.53459 L 170.36743 28.71648 L 174.2219 23.89838 L 178.07634 19.08028 L 181.93079 14.26216 L 185.78524 9.44405 L 189.6397 4.62593 "/>
</g>
<symbol id="font_2_1">
<path d="M .18300002 .411 L .277 .411 C .29700003 .411 .307 .411 .307 .43100003 C .307 .44200004 .29700003 .44200004 .279 .44200004 L .19100002 .44200004 C .227 .584 .23200003 .60400006 .23200003 .61 C .23200003 .62700006 .22000002 .637 .20300001 .637 C .2 .637 .172 .636 .163 .601 L .124 .44200004 L .030000002 .44200004 C .009999998 .44200004 0 .44200004 0 .42300005 C 0 .411 .007999999 .411 .028 .411 L .11600001 .411 C .044 .127 .04 .11000001 .04 .092 C .04 .038000004 .078 0 .132 0 C .234 0 .291 .14600002 .291 .15400002 C .291 .16400002 .28300003 .16400002 .279 .16400002 C .27 .16400002 .26900003 .16100002 .264 .15000002 C .22100002 .046 .16800002 .022000002 .134 .022000002 C .113000009 .022000002 .103 .035 .103 .068 C .103 .092 .105000007 .09900001 .109 .116000007 L .18300002 .411 Z "/>
</symbol>
<use xlink:href="#font_2_1" transform="matrix(9.9626,0,0,-9.9626,212.34914,163.50159)"/>
<symbol id="font_2_2">
<path d="M .439 .38300003 C .439 .43700005 .41300003 .45300005 .395 .45300005 C .37 .45300005 .34600003 .42700003 .34600003 .40500004 C .34600003 .39200003 .351 .38600005 .36200003 .37500004 C .38300003 .35500003 .396 .32900004 .396 .293 C .396 .25100003 .335 .022000002 .21800001 .022000002 C .16700001 .022000002 .14400001 .057000005 .14400001 .109000008 C .14400001 .16500002 .171 .23800002 .202 .321 C .209 .33800004 .21400002 .35200004 .21400002 .37100003 C .21400002 .41600005 .18200001 .45300005 .13200002 .45300005 C .038000004 .45300005 0 .30800004 0 .29900003 C 0 .28900004 .01 .28900004 .012 .28900004 C .022000002 .28900004 .023 .291 .028000003 .307 C .057000005 .40800003 .10000001 .43100003 .12900001 .43100003 C .13700001 .43100003 .15400002 .43100003 .15400002 .39900003 C .15400002 .374 .14400001 .34700004 .13700001 .32900004 C .09300001 .21300002 .080000009 .16700001 .080000009 .124000009 C .080000009 .016 .16800002 0 .21400002 0 C .382 0 .439 .33100004 .439 .38300003 Z "/>
</symbol>
<use xlink:href="#font_2_2" transform="matrix(9.9626,0,0,-9.9626,16.624917,7.719589)"/>
</svg>
