<?xml version="1.0" encoding="UTF-8" standalone="no"?>
<!DOCTYPE svg PUBLIC "-//W3C//DTD SVG 1.1//EN" "http://www.w3.org/Graphics/SVG/1.1/DTD/svg11.dtd">
<svg xmlns="http://www.w3.org/2000/svg" xmlns:xlink="http://www.w3.org/1999/xlink" version="1.1" width="174.161pt" height="176.429pt" viewBox="0 0 174.161 176.429">
<path transform="matrix(1,0,0,-1,.199,174.492)" stroke-width="1" stroke-linecap="butt" stroke-miterlimit="10" stroke-linejoin="miter" fill="none" stroke="#bfbfbf" d="M 47.07376 0 L 47.07376 161.39575 M 80.69788 0 L 80.69788 161.39575 M 114.32199 0 L 114.32199 161.39575 "/>
<path transform="matrix(1,0,0,-1,.199,174.492)" stroke-width="1" stroke-linecap="butt" stroke-miterlimit="10" stroke-linejoin="miter" fill="none" stroke="#bfbfbf" d="M 147.9461 0 L 147.9461 161.39575 "/>
<path transform="matrix(1,0,0,-1,.199,174.492)" stroke-width="1" stroke-linecap="butt" stroke-miterlimit="10" stroke-linejoin="miter" fill="none" stroke="#bfbfbf" d="M 0 47.07376 L 161.39575 47.07376 M 0 80.69788 L 161.39575 80.69788 M 0 114.32199 L 161.39575 114.32199 "/>
<path transform="matrix(1,0,0,-1,.199,174.492)" stroke-width="1" stroke-linecap="butt" stroke-miterlimit="10" stroke-linejoin="miter" fill="none" stroke="#bfbfbf" d="M 0 147.9461 L 161.39575 147.9461 "/>
<path transform="matrix(1,0,0,-1,.199,174.492)" stroke-width="1" stroke-linecap="butt" stroke-miterlimit="10" stroke-linejoin="miter" fill="none" stroke="#808080" d="M 47.07376 12.03198 L 47.07376 14.86731 M 80.69788 12.03198 L 80.69788 14.86731 M 114.32199 12.03198 L 114.32199 14.86731 "/>
<path transform="matrix(1,0,0,-1,.199,174.492)" stroke-width="1" stroke-linecap="butt" stroke-miterlimit="10" stroke-linejoin="miter" fill="none" stroke="#808080" d="M 147.9461 11.32335 L 147.9461 15.57591 "/>
<path transform="matrix(1,0,0,-1,.199,174.492)" stroke-width="1" stroke-linecap="butt" stroke-miterlimit="10" stroke-linejoin="miter" fill="none" stroke="#808080" d="M 12.03198 47.07376 L 14.86731 47.07376 M 12.03198 80.69788 L 14.86731 80.69788 M 12.03198 114.32199 L 14.86731 114.32199 "/>
<path transform="matrix(1,0,0,-1,.199,174.492)" stroke-width="1" stroke-linecap="butt" stroke-miterlimit="10" stroke-linejoin="miter" fill="none" stroke="#808080" d="M 11.32335 147.9461 L 15.57591 147.9461 "/>
<path transform="matrix(1,0,0,-1,.199,174.492)" stroke-width="1" stroke-linecap="butt" stroke-miterlimit="10" stroke-linejoin="miter" fill="none" stroke="#000000" d="M 0 13.44965 L 159.40323 13.44965 "/>
<path transform="matrix(1,0,0,-1,159.60224,161.04236)" d="M 1.99252 0 L -1.19551 1.59401 L 0 0 L -1.19551 -1.59401 "/>
<path transform="matrix(1,0,0,-1,.199,174.492)" stroke-width="1" stroke-linecap="butt" stroke-miterlimit="10" stroke-linejoin="miter" fill="none" stroke="#000000" d="M 13.44965 0 L 13.44965 159.40323 "/>
<path transform="matrix(0,-1,-1,-0,13.64865,15.088776)" d="M 1.99252 0 L -1.19551 1.59401 L 0 0 L -1.19551 -1.59401 "/>
<symbol id="font_0_1">
<path d="M .205 .64000007 C .205 .66400006 .205 .666 .18200003 .666 C .120000008 .60200008 .032000007 .60200008 0 .60200008 L 0 .57100006 C .020000004 .57100006 .07900001 .57100006 .13100001 .597 L .13100001 .079 C .13100001 .043 .128 .031000002 .038000004 .031000002 L .0060000049 .031000002 L .0060000049 0 C .04100001 .003 .128 .003 .168 .003 C .20800002 .003 .29500003 .003 .33000005 0 L .33000005 .031000002 L .29800005 .031000002 C .20800002 .031000002 .205 .042000005 .205 .079 L .205 .64000007 Z "/>
</symbol>
<use xlink:href="#font_0_1" transform="matrix(9.9626,0,0,-9.9626,146.53968,173.108)"/>
<use xlink:href="#font_0_1" transform="matrix(9.9626,0,0,-9.9626,15.928672,29.75801)"/>
<clipPath id="cp1">
<path transform="matrix(1,0,0,-1,.199,174.492)" d="M 0 0 L 161.39575 0 L 161.39575 161.39575 L 0 161.39575 Z "/>
</clipPath>
<g clip-path="url(#cp1)">
<path transform="matrix(1,0,0,-1,.199,174.492)" stroke-width="1.19553" stroke-linecap="butt" stroke-miterlimit="10" stroke-linejoin="miter" fill="none" stroke="#000080" d="M 0 -14.7946 L 6.72482 -.33623 L 13.44965 13.44965 L 20.17447 26.56303 L 26.89929 39.00397 L 33.62411 50.7724 L 40.34894 61.86836 L 47.07376 72.29182 L 53.79858 82.04283 L 60.5234 91.12134 L 67.24823 99.52737 L 73.97305 107.26091 L 80.69788 114.32199 L 87.4227 120.71056 L 94.14752 126.42667 L 100.87234 131.47028 L 107.59717 135.84142 L 114.32199 139.54006 L 121.04681 142.56624 L 127.77164 144.91992 L 134.49646 146.60114 L 141.22129 147.60985 L 147.9461 147.9461 L 154.67093 147.60994 L 161.39575 146.60105 "/>
<path transform="matrix(1,0,0,-1,.199,174.492)" stroke-width="1.19553" stroke-linecap="butt" stroke-miterlimit="10" stroke-linejoin="miter" fill="none" stroke="#000080" d="M 0 0 L 6.72482 6.72482 L 13.44965 13.44965 L 20.17447 20.17447 L 26.89929 26.89929 L 33.62411 33.62411 L 40.34894 40.34894 L 47.07376 47.07376 L 53.79858 53.79858 L 60.5234 60.5234 L 67.24823 67.24823 L 73.97305 73.97305 L 80.69788 80.69788 L 87.4227 87.4227 L 94.14752 94.14752 L 100.87234 100.87234 L 107.59717 107.59717 L 114.32199 114.32199 L 121.04681 121.04681 L 127.77164 127.77164 L 134.49646 134.49646 L 141.22129 141.22129 L 147.9461 147.9461 L 154.67093 154.67093 L 161.39575 161.39575 "/>
<path transform="matrix(1,0,0,-1,.199,174.492)" stroke-width="1" stroke-linecap="butt" stroke-dasharray="2.98883,2.98883" stroke-miterlimit="10" stroke-linejoin="miter" fill="none" stroke="#000000" d="M 71.28311 71.28311 L 71.28311 13.44965 "/>
<path transform="matrix(1,0,0,-1,.199,174.492)" d="M 13.44965 71.28311 L 71.28311 71.28311 L 71.28311 104.24818 L 13.44965 104.24818 Z " fill="#800000" fill-opacity=".3"/>
<path transform="matrix(1,0,0,-1,.199,174.492)" stroke-width="1" stroke-linecap="butt" stroke-miterlimit="10" stroke-linejoin="miter" fill="none" stroke="#800000" d="M 13.44965 71.28311 L 71.28311 71.28311 L 71.28311 104.24818 L 13.44965 104.24818 Z "/>
<symbol id="font_2_1">
<path d="M .38900004 .194 C .38900004 .30100004 .3 .38800005 .195 .38800005 C .087 .38800005 0 .29900003 0 .194 C 0 .08800001 .087 0 .195 0 C .3 0 .38900004 .087000008 .38900004 .194 Z "/>
</symbol>
<use xlink:href="#font_2_1" transform="matrix(9.9626,0,0,-9.9626,11.705943,105.363109)" fill="#800000"/>
<use xlink:href="#font_2_1" transform="matrix(9.9626,0,0,-9.9626,69.53894,105.363109)" fill="#800000"/>
<use xlink:href="#font_2_1" transform="matrix(9.9626,0,0,-9.9626,69.53894,72.39909)" fill="#800000"/>
<use xlink:href="#font_2_1" transform="matrix(9.9626,0,0,-9.9626,11.705943,72.39909)" fill="#800000"/>
<use xlink:href="#font_2_1" transform="matrix(9.9626,0,0,-9.9626,69.53894,163.19609)"/>
<symbol id="font_3_1">
<path d="M .263 .316 L .43300004 .316 C .575 .316 .714 .42000003 .714 .532 C .714 .609 .648 .683 .517 .683 L .193 .683 C .17400001 .683 .163 .683 .163 .66400006 C .163 .652 .172 .652 .192 .652 C .205 .652 .223 .651 .235 .65000006 C .25100003 .648 .25700004 .64500007 .25700004 .634 C .25700004 .63000008 .256 .62700006 .25300003 .615 L .119 .078 C .109 .039 .10699999 .031000002 .028 .031000002 C .011 .031000002 0 .031000002 0 .012 C 0 0 .011999998 0 .015000001 0 C .043 0 .11400001 .003 .142 .003 C .163 .003 .185 .002 .206 .002 C .228 .002 .25000004 0 .27100004 0 C .27800004 0 .29100005 0 .29100005 .020000002 C .29100005 .031000002 .28200004 .031000002 .263 .031000002 C .226 .031000002 .198 .031000002 .198 .049000004 C .198 .055000005 .2 .060000004 .201 .066 L .263 .316 M .33500005 .614 C .344 .64900007 .34600003 .652 .38900004 .652 L .48500005 .652 C .568 .652 .621 .625 .621 .55600008 C .621 .517 .601 .43100003 .56200006 .395 C .512 .35000003 .45200003 .342 .40800003 .342 L .26700003 .342 L .33500005 .614 Z "/>
</symbol>
<use xlink:href="#font_3_1" transform="matrix(9.9626,0,0,-9.9626,2.747504,106.613018)"/>
<symbol id="font_3_2">
<path d="M .38900004 .2 C .544 .259 .691 .43700005 .691 .63 C .691 .791 .585 .89900007 .43600003 .89900007 C .22000003 .89900007 0 .67200008 0 .439 C 0 .273 .11200001 .172 .256 .172 C .28100003 .172 .31500004 .176 .35400004 .187 C .35000003 .125 .35000003 .123 .35000003 .11 C .35000003 .078 .35000003 0 .43300004 0 C .552 0 .6 .183 .6 .194 C .6 .201 .593 .20400001 .589 .20400001 C .58100005 .20400001 .579 .199 .577 .193 C .55300006 .122 .49500004 .097 .46 .097 C .41400004 .097 .39900003 .124000009 .38900004 .2 M .20000002 .208 C .122 .23900001 .08800001 .317 .08800001 .407 C .08800001 .476 .114 .61800006 .19 .726 C .263 .828 .35700003 .874 .43000005 .874 C .53000006 .874 .603 .79600009 .603 .66200008 C .603 .56200006 .552 .328 .38400004 .23400001 C .37900005 .269 .36900003 .342 .29600004 .342 C .24300003 .342 .194 .292 .194 .24000001 C .194 .22 .20000002 .209 .20000002 .208 M .26200003 .19700001 C .24800003 .19700001 .21600002 .19700001 .21600002 .24000001 C .21600002 .28 .254 .32 .29600004 .32 C .33800004 .32 .35700003 .296 .35700003 .23500002 C .35700003 .22 .35600005 .21900001 .34600003 .215 C .32000003 .20400001 .29000003 .19700001 .26200003 .19700001 Z "/>
</symbol>
<use xlink:href="#font_3_2" transform="matrix(9.9626,0,0,-9.9626,75.48917,115.46975)"/>
<symbol id="font_3_3">
<path d="M .33400003 .63600006 C .34 .66 .343 .67 .36200003 .67300006 C .37100003 .674 .40300004 .674 .423 .674 C .49400003 .674 .605 .674 .605 .57500007 C .605 .54100009 .58900007 .47200004 .55 .43300004 C .524 .40700004 .47100003 .37500004 .381 .37500004 L .269 .37500004 L .33400003 .63600006 M .47800005 .36200003 C .579 .38400004 .698 .45400004 .698 .55500009 C .698 .64100006 .60800006 .70500007 .477 .70500007 L .192 .70500007 C .17200002 .70500007 .16300002 .70500007 .16300002 .68500009 C .16300002 .674 .17200002 .674 .19100002 .674 C .19300002 .674 .21200001 .674 .229 .67200008 C .24700001 .67 .256 .669 .256 .656 C .256 .65200009 .255 .64900007 .252 .637 L .11800001 .1 C .108 .061000006 .106 .053000004 .027000003 .053000004 C .009 .053000004 0 .053000004 0 .033000005 C 0 .022000002 .012000002 .022000002 .014000002 .022000002 C .042000005 .022000002 .11200001 .025000003 .14000002 .025000003 C .16800002 .025000003 .239 .022000002 .26700003 .022000002 C .275 .022000002 .287 .022000002 .287 .042000005 C .287 .053000004 .278 .053000004 .259 .053000004 C .222 .053000004 .194 .053000004 .194 .071 C .194 .07700001 .19600001 .082 .197 .088 L .263 .35300005 L .382 .35300005 C .473 .35300005 .491 .29700003 .491 .26200003 C .491 .24700001 .48300005 .216 .477 .193 C .47000004 .165 .46100004 .128 .46100004 .108 C .46100004 0 .58100005 0 .59400007 0 C .679 0 .71400007 .101 .71400007 .115 C .71400007 .127 .703 .127 .702 .127 C .693 .127 .69100007 .120000008 .689 .113000009 C .66400006 .039000006 .62100008 .022000002 .59800007 .022000002 C .565 .022000002 .558 .044000005 .558 .083000008 C .558 .11400001 .564 .165 .568 .19700001 C .57 .21100001 .572 .23 .572 .24400002 C .572 .32100005 .505 .35200004 .47800005 .36200003 Z "/>
</symbol>
<use xlink:href="#font_3_3" transform="matrix(9.9626,0,0,-9.9626,60.728467,66.94419)"/>
<symbol id="font_3_4">
<path d="M .59300008 .71700009 C .59300008 .72 .591 .72700008 .582 .72700008 C .577 .72700008 .57600006 .7260001 .56400009 .7120001 L .51600006 .65500006 C .49000008 .702 .43800003 .72700008 .37300004 .72700008 C .246 .72700008 .126 .61200007 .126 .49100004 C .126 .41000004 .179 .36400003 .23 .34900005 L .337 .32100005 C .374 .31200005 .42900003 .29700003 .42900003 .215 C .42900003 .12500002 .347 .031000004 .24900003 .031000004 C .18500002 .031000004 .074 .053000004 .074 .177 C .074 .201 .07900001 .22500001 .08 .231 C .081 .23500002 .082 .23600002 .082 .238 C .082 .24800001 .075 .24900002 .07000001 .24900002 C .065000008 .24900002 .063 .24800001 .060000004 .245 C .056 .24100001 0 .013000001 0 .010000002 C 0 .0040000008 .0050000029 0 .011 0 C .016000003 0 .017000005 .0010000002 .029 .0150000019 L .07800001 .072000008 C .12100001 .014000001 .18900001 0 .24700003 0 C .38300003 0 .50100007 .13300002 .50100007 .25700004 C .50100007 .32600004 .46700008 .36000005 .45200003 .37400005 C .42900003 .39700005 .41400004 .40100003 .325 .42400003 C .30300004 .43000005 .26700003 .44000004 .25800003 .44200004 C .23100002 .45100004 .19700001 .48000006 .19700001 .53300008 C .19700001 .614 .277 .69900009 .37200005 .69900009 C .45500005 .69900009 .51600006 .656 .51600006 .544 C .51600006 .512 .512 .49400006 .512 .48800005 C .512 .48700006 .512 .47800005 .52400007 .47800005 C .53400006 .47800005 .535 .48100005 .53900006 .49800004 L .59300008 .71700009 Z "/>
</symbol>
<use xlink:href="#font_3_4" transform="matrix(9.9626,0,0,-9.9626,3.9640554,73.86818)"/>
<symbol id="font_3_5">
<path d="M .305 .31300003 C .311 .33900003 .334 .43100003 .404 .43100003 C .409 .43100003 .433 .43100003 .454 .418 C .426 .41300003 .40600003 .388 .40600003 .36400003 C .40600003 .34800003 .417 .32900004 .444 .32900004 C .46600003 .32900004 .498 .34700004 .498 .38700003 C .498 .43900005 .439 .45300005 .405 .45300005 C .347 .45300005 .312 .40000005 .3 .37700004 C .275 .44300003 .221 .45300005 .19200002 .45300005 C .08800001 .45300005 .031000002 .32400004 .031000002 .29900003 C .031000002 .28900004 .041 .28900004 .043000007 .28900004 C .051000008 .28900004 .054000006 .291 .056 .3 C .09 .40600003 .156 .43100003 .19000001 .43100003 C .209 .43100003 .244 .42200003 .244 .36400003 C .244 .33300004 .22700002 .26600004 .19000001 .126 C .17400001 .064 .13900002 .022000002 .095000009 .022000002 C .08900001 .022000002 .06600001 .022000002 .045 .035 C .07000001 .040000004 .09200001 .061 .09200001 .089 C .09200001 .116000007 .07000001 .124000009 .055000009 .124000009 C .025 .124000009 0 .098000008 0 .06600001 C 0 .020000002 .050000006 0 .094000007 0 C .16000001 0 .19600001 .07000001 .19900002 .076000008 C .21100001 .039 .24700003 0 .307 0 C .41 0 .467 .12900001 .467 .15400002 C .467 .16400002 .458 .16400002 .455 .16400002 C .446 .16400002 .444 .16000001 .442 .15300001 C .409 .046 .341 .022000002 .30900003 .022000002 C .27 .022000002 .254 .054 .254 .08800001 C .254 .11000001 .26 .13200002 .271 .17600002 L .305 .31300003 Z "/>
</symbol>
<use xlink:href="#font_3_5" transform="matrix(9.9626,0,0,-9.9626,68.92291,168.96059)"/>
</g>
<use xlink:href="#font_3_5" transform="matrix(9.9626,0,0,-9.9626,165.43492,163.2936)"/>
<symbol id="font_3_6">
<path d="M .45700003 .586 C .461 .6 .461 .602 .461 .609 C .461 .62700006 .447 .63600006 .432 .63600006 C .42200003 .63600006 .40600003 .63 .397 .615 C .395 .61 .387 .579 .38300003 .561 C .37600003 .535 .36900003 .508 .363 .48100005 L .318 .301 C .314 .286 .271 .21600002 .20500002 .21600002 C .15400002 .21600002 .143 .26000003 .143 .29700003 C .143 .34300003 .16000001 .40500004 .194 .49300004 C .21000001 .53400006 .21400002 .545 .21400002 .56500008 C .21400002 .61 .18200001 .6470001 .13200002 .6470001 C .037 .6470001 0 .50200006 0 .49300004 C 0 .48300005 .01 .48300005 .012 .48300005 C .022000002 .48300005 .023 .485 .028000003 .50100007 C .055000009 .595 .095000009 .625 .12900001 .625 C .13700001 .625 .15400002 .625 .15400002 .59300008 C .15400002 .568 .14400001 .54200008 .13700001 .523 C .097 .41700004 .079 .36 .079 .31300003 C .079 .224 .142 .194 .201 .194 C .24000003 .194 .274 .21100001 .30200003 .23900002 C .289 .187 .277 .13800001 .237 .08500001 C .21100001 .051 .17300001 .022 .127 .022 C .113000009 .022 .068 .025000006 .051000008 .06400001 C .067 .06400001 .080000009 .06400001 .094000007 .076000008 C .104 .08500001 .11400001 .098000008 .11400001 .117000009 C .11400001 .148 .087000008 .15200001 .07700001 .15200001 C .054000006 .15200001 .021 .136 .021 .087000008 C .021 .037 .065000008 0 .127 0 C .23 0 .333 .091000009 .361 .20400001 L .45700003 .586 Z "/>
</symbol>
<use xlink:href="#font_3_6" transform="matrix(9.9626,0,0,-9.9626,11.318916,9.652334)"/>
</svg>
