<?xml version="1.0" encoding="UTF-8" standalone="no"?>
<!DOCTYPE svg PUBLIC "-//W3C//DTD SVG 1.1//EN" "http://www.w3.org/Graphics/SVG/1.1/DTD/svg11.dtd">
<svg xmlns="http://www.w3.org/2000/svg" xmlns:xlink="http://www.w3.org/1999/xlink" version="1.1" width="57.49pt" height="64.928pt" viewBox="0 0 57.49 64.928">
<path transform="matrix(1,0,0,-1,28.745,64.53)" stroke-width=".79701" stroke-linecap="butt" stroke-miterlimit="10" stroke-linejoin="miter" fill="none" stroke="#000080" d="M -28.3468 56.69362 L 28.3468 56.69362 L 0 0 Z "/>
<path transform="matrix(1,0,0,-1,28.745,64.53)" stroke-width=".3985" stroke-linecap="butt" stroke-dasharray=".3985,1.99255" stroke-miterlimit="10" stroke-linejoin="miter" fill="none" stroke="#800000" d="M 0 0 L 0 56.69362 L 0 0 Z "/>
<symbol id="font_0_2">
<path d="M .462 .41500003 C .425 .40800003 .41400004 .37600003 .41400004 .36100004 C .41400004 .34200005 .42800004 .32500003 .453 .32500003 C .48100005 .32500003 .508 .34900005 .508 .38400004 C .508 .43000005 .45800004 .45300005 .411 .45300005 C .351 .45300005 .316 .40000005 .30400003 .37900005 C .28500004 .42800004 .24100003 .45300005 .193 .45300005 C .086 .45300005 .028 .32500003 .028 .29900003 C .028 .29000003 .035000005 .28700004 .042000005 .28700004 C .051 .28700004 .054000006 .29200004 .056 .298 C .087000008 .397 .15300001 .42800004 .19100002 .42800004 C .22 .42800004 .24600002 .40900005 .24600002 .36200003 C .24600002 .32600004 .20300001 .16600001 .19000001 .11800001 C .18200001 .087000008 .15200001 .025000003 .097 .025000003 C .07700001 .025000003 .056 .032 .046000005 .038000004 C .07300001 .043 .093 .06600001 .093 .092 C .093 .117000009 .074 .128 .055 .128 C .026 .128 0 .10300001 0 .069000009 C 0 .020000002 .054000006 0 .096 0 C .15400002 0 .18800001 .048 .20300001 .075 C .22800002 .009000001 .287 0 .314 0 C .42200003 0 .479 .13000001 .479 .15400002 C .479 .15900001 .47600005 .16600001 .46600003 .16600001 C .455 .16600001 .45400004 .16200002 .44900004 .14700002 C .42700003 .075 .36900003 .025000003 .317 .025000003 C .28800003 .025000003 .261 .043 .261 .091000009 C .261 .113000009 .275 .16800002 .284 .20600002 C .28800003 .22400002 .31500004 .33200003 .317 .33900003 C .32900004 .37500004 .35900004 .42800004 .41000004 .42800004 C .42800004 .42800004 .44700004 .42500005 .462 .41500003 Z "/>
</symbol>
<use xlink:href="#font_0_2" transform="matrix(8.9664,0,0,-8.9664,26.401993,7.030626)"/>
<symbol id="font_0_1">
<path d="M .232 .671 C .236 .685 .236 .68700006 .236 .691 C .236 .7 .23000002 .705 .22100002 .705 C .20700002 .705 .119 .697 .09900001 .695 C .089 .694 .077999997 .693 .077999997 .676 C .077999997 .663 .089 .663 .105000007 .663 C .15200001 .663 .15200001 .656 .15200001 .647 C .15200001 .643 .15200001 .64100006 .147 .623 L .0040000008 .048 C 0 .034 0 .032 0 .029000003 C 0 .013000001 .013 0 .031 0 C .048000006 0 .062000004 .010000001 .069000009 .024 C .070999998 .029000003 .08 .065000008 .08499999 .086 L .107999999 .17500001 C .111 .19000001 .12100001 .22800002 .124 .24300002 L .136 .28700004 C .141 .31000004 .19800002 .42800004 .30600003 .42800004 C .36 .42800004 .36 .37500004 .36 .358 C .36 .29700003 .31300003 .17500001 .30200003 .14400001 C .29000003 .113000009 .286 .10300001 .286 .08400001 C .286 .030000002 .32700003 0 .372 0 C .468 0 .507 .143 .507 .15400002 C .507 .15900001 .504 .16600001 .49400003 .16600001 C .48300005 .16600001 .482 .16100002 .47800005 .14800002 C .453 .063 .411 .025000003 .375 .025000003 C .368 .025000003 .35000003 .025000003 .35000003 .057000005 C .35000003 .082 .36 .108 .368 .13000001 C .388 .18100001 .428 .28700004 .428 .34300003 C .428 .43200005 .36200003 .45300005 .30900003 .45300005 C .24900002 .45300005 .19800002 .42500005 .158 .37600003 L .232 .671 Z "/>
</symbol>
<use xlink:href="#font_0_1" transform="matrix(8.9664,0,0,-8.9664,29.418154,32.30963)"/>
<symbol id="font_1_1">
<path d="M .411 .177 L .38300003 .177 C .381 .164 .37300004 .105000007 .36 .089 C .35400004 .080000009 .28500004 .080000009 .26500003 .080000009 L .08700001 .080000009 L .18600002 .17400001 C .35000003 .316 .411 .36900003 .411 .47100003 C .411 .586 .316 .666 .19300002 .666 C .07800001 .666 0 .57500007 0 .48400004 C 0 .43400003 .043 .42900003 .052000006 .42900003 C .074 .42900003 .104 .44500003 .104 .48100005 C .104 .51100006 .083000008 .53300008 .052000006 .53300008 C .047000003 .53300008 .044000005 .53300008 .040000004 .532 C .063999999 .60300007 .128 .63500007 .18200001 .63500007 C .284 .63500007 .319 .54 .319 .47100003 C .319 .36900003 .24200002 .286 .194 .23400001 L .011 .036000004 C 0 .025 0 .023000002 0 0 L .38300003 0 L .411 .177 Z "/>
</symbol>
<use xlink:href="#font_1_1" transform="matrix(8.9664,0,0,-8.9664,5.638288,39.072999)"/>
<use xlink:href="#font_1_1" transform="matrix(8.9664,0,0,-8.9664,48.158288,41.908)"/>
</svg>
