<?xml version="1.0" encoding="UTF-8" standalone="no"?>
<!DOCTYPE svg PUBLIC "-//W3C//DTD SVG 1.1//EN" "http://www.w3.org/Graphics/SVG/1.1/DTD/svg11.dtd">
<svg xmlns="http://www.w3.org/2000/svg" xmlns:xlink="http://www.w3.org/1999/xlink" version="1.1" width="52.246pt" height="80.093pt" viewBox="0 0 52.246 80.093">
<path transform="matrix(1,0,0,-1,-17.035,.39900209)" stroke-width="1" stroke-linecap="butt" stroke-miterlimit="10" stroke-linejoin="miter" fill="none" stroke="#000000" d="M 56.69362 0 L 28.3468 0 L 17.43344 -10.91336 L 45.78024 -10.91336 L 56.69362 0 L 56.69362 -56.69362 L 45.78024 -67.60698 L 17.43344 -67.60698 L 17.43344 -10.91336 "/>
<path transform="matrix(1,0,0,-1,-17.035,.39900209)" stroke-width="1" stroke-linecap="butt" stroke-miterlimit="10" stroke-linejoin="miter" fill="none" stroke="#000000" d="M 45.78024 -10.91336 L 45.78024 -67.60698 "/>
<path transform="matrix(1,0,0,-1,-17.035,.39900209)" stroke-width="1" stroke-linecap="butt" stroke-dasharray="2.98883,2.98883" stroke-miterlimit="10" stroke-linejoin="miter" fill="none" stroke="#000000" d="M 56.69362 -56.69362 L 28.3468 -56.69362 L 28.3468 0 "/>
<path transform="matrix(1,0,0,-1,-17.035,.39900209)" stroke-width="1" stroke-linecap="butt" stroke-dasharray="2.98883,2.98883" stroke-miterlimit="10" stroke-linejoin="miter" fill="none" stroke="#000000" d="M 28.3468 -56.69362 L 17.43344 -67.60698 "/>
<symbol id="font_0_2">
<path d="M .47300003 .59000006 C .474 .595 .47599999 .6010001 .47599999 .607 C .47599999 .62 .467 .63600006 .44500003 .63600006 C .432 .63600006 .414 .628 .40600003 .609 C .405 .605 .395 .564 .389 .54200008 L .33900003 .342 C .331 .31300003 .331 .31100003 .329 .30200003 C .328 .298 .286 .21900001 .21400002 .21900001 C .15200001 .21900001 .15200001 .282 .15200001 .301 C .15200001 .34600003 .165 .39500005 .20800002 .507 C .216 .53000006 .22200002 .544 .22200002 .563 C .22200002 .612 .18500002 .6470001 .136 .6470001 C .040000008 .6470001 0 .505 0 .49300004 C 0 .48400004 .007000001 .48100005 .014 .48100005 C .025 .48100005 .026000003 .48700003 .030000003 .5 C .051000008 .574 .091000009 .62200006 .133 .62200006 C .157 .62200006 .157 .60300007 .157 .589 C .157 .572 .15300001 .554 .14400001 .53000006 C .097 .40600003 .08400001 .36400003 .08400001 .316 C .08400001 .20500002 .17400001 .194 .21100001 .194 C .26 .194 .295 .22000002 .313 .238 C .3 .187 .289 .14200002 .25 .09200001 C .22000002 .052 .18 .025000006 .136 .025000006 C .10800001 .025000006 .075 .03500001 .061000006 .06300001 C .11400001 .06300001 .12100001 .10700001 .12100001 .117000009 C .12100001 .13900002 .105000007 .15300001 .083000008 .15300001 C .059000009 .15300001 .027 .134 .027 .08800001 C .027 .036 .07300001 0 .136 0 C .23800002 0 .347 .087000008 .37600003 .20400001 L .47300003 .59000006 Z "/>
</symbol>
<use xlink:href="#font_0_2" transform="matrix(8.9664,0,0,-8.9664,44.575025,31.642113)"/>
<symbol id="font_0_1">
<path d="M .462 .41500003 C .425 .40800003 .41400004 .37600003 .41400004 .36100004 C .41400004 .34200005 .42800004 .32500003 .453 .32500003 C .48100005 .32500003 .508 .34900005 .508 .38400004 C .508 .43000005 .45800004 .45300005 .411 .45300005 C .351 .45300005 .316 .40000005 .30400003 .37900005 C .28500004 .42800004 .24100003 .45300005 .193 .45300005 C .086 .45300005 .028 .32500003 .028 .29900003 C .028 .29000003 .035000005 .28700004 .042000005 .28700004 C .051 .28700004 .054000006 .29200004 .056 .298 C .087000008 .397 .15300001 .42800004 .19100002 .42800004 C .22 .42800004 .24600002 .40900005 .24600002 .36200003 C .24600002 .32600004 .20300001 .16600001 .19000001 .11800001 C .18200001 .087000008 .15200001 .025000003 .097 .025000003 C .07700001 .025000003 .056 .032 .046000005 .038000004 C .07300001 .043 .093 .06600001 .093 .092 C .093 .117000009 .074 .128 .055 .128 C .026 .128 0 .10300001 0 .069000009 C 0 .020000002 .054000006 0 .096 0 C .15400002 0 .18800001 .048 .20300001 .075 C .22800002 .009000001 .287 0 .314 0 C .42200003 0 .479 .13000001 .479 .15400002 C .479 .15900001 .47600005 .16600001 .46600003 .16600001 C .455 .16600001 .45400004 .16200002 .44900004 .14700002 C .42700003 .075 .36900003 .025000003 .317 .025000003 C .28800003 .025000003 .261 .043 .261 .091000009 C .261 .113000009 .275 .16800002 .284 .20600002 C .28800003 .22400002 .31500004 .33200003 .317 .33900003 C .32900004 .37500004 .35900004 .42800004 .41000004 .42800004 C .42800004 .42800004 .44700004 .42500005 .462 .41500003 Z "/>
</symbol>
<use xlink:href="#font_0_1" transform="matrix(8.9664,0,0,-8.9664,38.944993,64.57664)"/>
<use xlink:href="#font_0_1" transform="matrix(8.9664,0,0,-8.9664,12.228993,77.120639)"/>
</svg>
