<?xml version="1.0" encoding="UTF-8" standalone="no"?>
<!DOCTYPE svg PUBLIC "-//W3C//DTD SVG 1.1//EN" "http://www.w3.org/Graphics/SVG/1.1/DTD/svg11.dtd">
<svg xmlns="http://www.w3.org/2000/svg" xmlns:xlink="http://www.w3.org/1999/xlink" version="1.1" width="194.668pt" height="161.787pt" viewBox="0 0 194.668 161.787">
<clipPath id="cp0">
<path transform="matrix(1,0,0,-1,.199,161.588)" d="M 0 0 L 194.27216 0 L 194.27216 161.39028 L 0 161.39028 Z "/>
</clipPath>
<g clip-path="url(#cp0)">
<path transform="matrix(1,0,0,-1,.199,161.588)" stroke-width="1.19553" stroke-linecap="butt" stroke-miterlimit="10" stroke-linejoin="miter" fill="none" stroke="#cc6600" d="M 0 125.52577 L 8.09467 125.52577 L 16.18935 125.52577 L 24.28401 125.52577 L 32.3787 125.52577 L 40.47336 125.52577 L 48.56804 125.52577 L 56.6627 125.52577 L 64.75739 125.52577 L 72.85205 125.52577 L 80.94673 125.52577 L 89.0414 125.52577 L 97.13608 125.52577 L 105.23074 125.52577 L 113.32542 125.52577 L 121.42009 125.52577 L 129.51477 125.52577 L 137.60944 125.52577 L 145.70412 125.52577 L 153.79878 125.52577 L 161.89347 125.52577 L 169.98813 125.52577 L 178.08281 125.52577 L 186.17748 125.52577 L 194.27216 125.52577 "/>
<path transform="matrix(1,0,0,-1,.199,161.588)" d="M 48.56804 125.52577 L 52.61536 125.52577 L 56.6627 125.52577 L 60.71004 125.52577 L 64.75739 125.52577 L 68.8047 125.52577 L 72.85205 125.52577 L 76.89938 125.52577 L 80.94673 125.52577 L 84.99405 125.52577 L 89.0414 125.52577 L 93.08873 125.52577 L 97.13608 125.52577 L 101.1834 125.52577 L 105.23074 125.52577 L 109.27808 125.52577 L 113.32542 125.52577 L 117.37276 125.52577 L 121.42009 125.52577 L 125.46742 125.52577 L 129.51477 125.52577 L 133.5621 125.52577 L 137.60944 125.52577 L 141.65677 125.52577 L 145.70412 125.52577 L 145.70412 0 L 48.56804 0 Z " fill="#e6cccc"/>
<path transform="matrix(1,0,0,-1,.199,161.588)" d="M 48.56804 40.34756 L 52.61536 40.34756 L 56.6627 40.34756 L 60.71004 40.34756 L 64.75739 40.34756 L 68.8047 40.34756 L 72.85205 40.34756 L 76.89938 40.34756 L 80.94673 40.34756 L 84.99405 40.34756 L 89.0414 40.34756 L 93.08873 40.34756 L 97.13608 40.34756 L 101.1834 40.34756 L 105.23074 40.34756 L 109.27808 40.34756 L 113.32542 40.34756 L 117.37276 40.34756 L 121.42009 40.34756 L 125.46742 40.34756 L 129.51477 40.34756 L 133.5621 40.34756 L 137.60944 40.34756 L 141.65677 40.34756 L 145.70412 40.34756 L 145.70412 0 L 48.56804 0 Z " fill="#ffffff"/>
<path transform="matrix(1,0,0,-1,.199,161.588)" stroke-width="1.19553" stroke-linecap="butt" stroke-miterlimit="10" stroke-linejoin="miter" fill="none" stroke="#000080" d="M 145.70412 40.34756 L 48.56804 40.34756 "/>
<path transform="matrix(1,0,0,-1,.199,161.588)" stroke-width="1.19553" stroke-linecap="butt" stroke-miterlimit="10" stroke-linejoin="miter" fill="none" stroke="#000080" d="M 145.70412 40.34756 L 145.70412 125.52577 "/>
<path transform="matrix(1,0,0,-1,.199,161.588)" stroke-width="1.19553" stroke-linecap="butt" stroke-miterlimit="10" stroke-linejoin="miter" fill="none" stroke="#000080" d="M 48.56804 125.52577 L 48.56804 40.34756 "/>
<symbol id="font_1_5">
<path d="M .462 .41500003 C .425 .40800003 .41400004 .37600003 .41400004 .36100004 C .41400004 .34200005 .42800004 .32500003 .453 .32500003 C .48100005 .32500003 .508 .34900005 .508 .38400004 C .508 .43000005 .45800004 .45300005 .411 .45300005 C .351 .45300005 .316 .40000005 .30400003 .37900005 C .28500004 .42800004 .24100003 .45300005 .193 .45300005 C .086 .45300005 .028 .32500003 .028 .29900003 C .028 .29000003 .035000005 .28700004 .042000005 .28700004 C .051 .28700004 .054000006 .29200004 .056 .298 C .087000008 .397 .15300001 .42800004 .19100002 .42800004 C .22 .42800004 .24600002 .40900005 .24600002 .36200003 C .24600002 .32600004 .20300001 .16600001 .19000001 .11800001 C .18200001 .087000008 .15200001 .025000003 .097 .025000003 C .07700001 .025000003 .056 .032 .046000005 .038000004 C .07300001 .043 .093 .06600001 .093 .092 C .093 .117000009 .074 .128 .055 .128 C .026 .128 0 .10300001 0 .069000009 C 0 .020000002 .054000006 0 .096 0 C .15400002 0 .18800001 .048 .20300001 .075 C .22800002 .009000001 .287 0 .314 0 C .42200003 0 .479 .13000001 .479 .15400002 C .479 .15900001 .47600005 .16600001 .46600003 .16600001 C .455 .16600001 .45400004 .16200002 .44900004 .14700002 C .42700003 .075 .36900003 .025000003 .317 .025000003 C .28800003 .025000003 .261 .043 .261 .091000009 C .261 .113000009 .275 .16800002 .284 .20600002 C .28800003 .22400002 .31500004 .33200003 .317 .33900003 C .32900004 .37500004 .35900004 .42800004 .41000004 .42800004 C .42800004 .42800004 .44700004 .42500005 .462 .41500003 Z "/>
</symbol>
<use xlink:href="#font_1_5" transform="matrix(8.9664,0,0,-8.9664,30.234992,80.68063)" fill="#000080"/>
<symbol id="font_1_6">
<path d="M .47300003 .59000006 C .474 .595 .47599999 .6010001 .47599999 .607 C .47599999 .62 .467 .63600006 .44500003 .63600006 C .432 .63600006 .414 .628 .40600003 .609 C .405 .605 .395 .564 .389 .54200008 L .33900003 .342 C .331 .31300003 .331 .31100003 .329 .30200003 C .328 .298 .286 .21900001 .21400002 .21900001 C .15200001 .21900001 .15200001 .282 .15200001 .301 C .15200001 .34600003 .165 .39500005 .20800002 .507 C .216 .53000006 .22200002 .544 .22200002 .563 C .22200002 .612 .18500002 .6470001 .136 .6470001 C .040000008 .6470001 0 .505 0 .49300004 C 0 .48400004 .007000001 .48100005 .014 .48100005 C .025 .48100005 .026000003 .48700003 .030000003 .5 C .051000008 .574 .091000009 .62200006 .133 .62200006 C .157 .62200006 .157 .60300007 .157 .589 C .157 .572 .15300001 .554 .14400001 .53000006 C .097 .40600003 .08400001 .36400003 .08400001 .316 C .08400001 .20500002 .17400001 .194 .21100001 .194 C .26 .194 .295 .22000002 .313 .238 C .3 .187 .289 .14200002 .25 .09200001 C .22000002 .052 .18 .025000006 .136 .025000006 C .10800001 .025000006 .075 .03500001 .061000006 .06300001 C .11400001 .06300001 .12100001 .10700001 .12100001 .117000009 C .12100001 .13900002 .105000007 .15300001 .083000008 .15300001 C .059000009 .15300001 .027 .134 .027 .08800001 C .027 .036 .07300001 0 .136 0 C .23800002 0 .347 .087000008 .37600003 .20400001 L .47300003 .59000006 Z "/>
</symbol>
<use xlink:href="#font_1_6" transform="matrix(8.9664,0,0,-8.9664,95.164028,135.34513)" fill="#000080"/>
<symbol id="font_1_1">
<path d="M .14500001 .117000009 C .096 .037 .052 .034 .012000002 .031000002 C .0050000029 .030000002 0 .022000002 0 .013 C 0 .007 .0040000008 0 .014000002 0 C .033 0 .080000009 .003 .09900001 .003 C .12100001 .003 .17500001 0 .19700001 0 C .20300001 0 .21600002 0 .21600002 .018000002 C .21600002 .030000002 .20400001 .031000002 .201 .031000002 C .19200002 .032 .15400002 .034 .15400002 .064 C .15400002 .078 .165 .097 .16800002 .102000009 L .24700001 .231 L .508 .231 C .51100006 .208 .514 .17400001 .517 .149 C .521 .11000001 .527 .066 .527 .063 C .527 .048 .513 .031000002 .455 .031000002 C .44500003 .031000002 .432 .031000002 .432 .013 C .432 .002 .44000004 0 .44700004 0 C .46600003 0 .49 .002 .51000007 .002 C .53000006 .002 .554 .003 .57000008 .003 C .60300007 .003 .605 .003 .629 .002 C .64500007 .001 .66800007 0 .684 0 C .69000008 0 .703 0 .703 .018000002 C .703 .031000002 .69200006 .031000002 .68 .031000002 C .62 .031000002 .619 .038000004 .61600008 .067 L .546 .689 C .544 .711 .54300007 .716 .526 .716 C .512 .716 .50600007 .70900008 .49800004 .69600006 L .14500001 .117000009 M .266 .26200003 L .468 .592 L .50500008 .26200003 L .266 .26200003 Z "/>
</symbol>
<use xlink:href="#font_1_1" transform="matrix(8.9664,0,0,-8.9664,79.697757,80.84399)" fill="#000080"/>
<symbol id="font_2_1">
<path d="M .651 .20400003 C .6650001 .20400003 .6840001 .20400003 .6840001 .22500003 C .6840001 .24700001 .66200008 .24700001 .6470001 .24700001 L .037 .24700001 C .022 .24700001 0 .24700001 0 .22500003 C 0 .20400003 .020000004 .20400003 .033 .20400003 L .651 .20400003 M .6470001 0 C .66200008 0 .6840001 0 .6840001 .022 C .6840001 .042999999 .6650001 .042999999 .651 .042999999 L .033 .042999999 C .020000004 .042999999 0 .042999999 0 .022 C 0 0 .022 0 .037 0 L .6470001 0 Z "/>
</symbol>
<use xlink:href="#font_2_1" transform="matrix(8.9664,0,0,-8.9664,89.347087,79.70525)" fill="#000080"/>
<use xlink:href="#font_1_5" transform="matrix(8.9664,0,0,-8.9664,98.831989,80.94262)" fill="#000080"/>
<symbol id="font_3_1">
<path d="M .108 .054000006 C .108 .08299999 .085 .107999999 .053999999 .107999999 C .023000002 .107999999 0 .08299999 0 .054000006 C 0 .025000006 .023000002 0 .053999999 0 C .085 0 .108 .025000006 .108 .054000006 Z "/>
</symbol>
<use xlink:href="#font_3_1" transform="matrix(8.9664,0,0,-8.9664,106.62304,79.07761)" fill="#000080"/>
<use xlink:href="#font_1_6" transform="matrix(8.9664,0,0,-8.9664,110.70203,82.6821)" fill="#000080"/>
<symbol id="font_1_2">
<path d="M .88600006 .58900007 C .89000007 .595 .897 .60600009 .903 .614 C .94100007 .669 .976 .67200008 1.0040001 .674 C 1.0170001 .6750001 1.0170001 .69100007 1.0170001 .69200006 C 1.0170001 .6980001 1.0130001 .70500007 1.0050001 .70500007 C 1.0000001 .70500007 .9800001 .702 .925 .702 C .89100006 .702 .856 .70500007 .824 .70500007 C .818 .70500007 .805 .70500007 .805 .68700006 C .805 .6750001 .816 .674 .82 .674 C .834 .67300006 .87700006 .67100009 .87700006 .63600006 C .87700006 .62900009 .875 .619 .86300006 .59900006 L .591 .13300002 L .549 .642 C .549 .65300008 .559 .674 .621 .674 C .633 .674 .645 .674 .645 .69200006 C .645 .70100006 .638 .70500007 .63 .70500007 C .603 .70500007 .536 .702 .509 .702 C .47200004 .702 .47 .702 .45400004 .70300009 C .441 .70400008 .41400004 .70500007 .402 .70500007 C .397 .70500007 .38400004 .70500007 .38400004 .68700006 C .38400004 .674 .395 .674 .40700004 .674 C .45300005 .674 .45700006 .66700008 .45900003 .651 C .46 .64500007 .465 .58400008 .465 .582 C .465 .57800009 .465 .57500007 .45800004 .563 L .206 .13300002 L .165 .62600007 C .16300002 .646 .16100002 .67300006 .23500002 .674 C .24800003 .674 .26000003 .674 .26000003 .69200006 C .26000003 .70400008 .24900002 .70500007 .245 .70500007 C .22700003 .70500007 .206 .70300009 .187 .70300009 C .16700001 .70300009 .14500001 .702 .12500002 .702 C .10700001 .702 .082 .702 .07000001 .70300009 C .061 .70300009 .026000005 .70500007 .018000003 .70500007 C .014000002 .70500007 0 .70500007 0 .68700006 C 0 .674 .011000004 .674 .022999999 .674 C .073000017 .674 .074 .66600009 .076000008 .63900008 L .127 .025000003 C .128 .008000001 .12900001 0 .14400001 0 C .158 0 .16100002 .006000001 .17000002 .021000002 L .469 .53200009 L .511 .027000003 C .512 .0090000019 .513 0 .529 0 C .533 0 .544 0 .556 .021000002 L .88600006 .58900007 Z "/>
</symbol>
<symbol id="font_1_3">
<path d="M .34000004 .39100004 C .321 .42700003 .29000003 .45300005 .245 .45300005 C .12900001 .45300005 0 .31500004 0 .16200002 C 0 .052 .07 0 .137 0 C .20200002 0 .25500003 .054 .27100004 .07300001 C .282 .018000002 .33200003 0 .36400003 0 C .39300005 0 .418 .013000001 .44000004 .055000005 C .458 .08800001 .472 .15000002 .472 .15400002 C .472 .15900001 .46900005 .16600001 .45900006 .16600001 C .44700004 .16600001 .44600005 .16100002 .44200004 .14200002 C .42000003 .055000005 .39800004 .025000003 .367 .025000003 C .342 .025000003 .33600004 .049000004 .33600004 .071 C .33600004 .09 .34100003 .11000001 .35000003 .14500001 L .37500004 .24800003 C .38200004 .27300004 .40000005 .34800003 .404 .36300005 C .40800003 .37700004 .41400004 .40100003 .41400004 .404 C .41400004 .42000003 .40100003 .43300004 .38300003 .43300004 C .37000004 .43300004 .34500004 .42500005 .34000004 .39100004 M .275 .13300002 C .27 .11400001 .27 .113000009 .254 .094000007 C .21800003 .051000004 .17700002 .025000003 .14000002 .025000003 C .091 .025000003 .074 .076000008 .074 .119 C .074 .16800002 .10300001 .28300003 .127 .33100004 C .15900001 .39100004 .20500002 .42800004 .245 .42800004 C .312 .42800004 .32700003 .34800003 .32700003 .34100003 C .32700003 .33600004 .32500003 .33 .32400004 .32600004 L .275 .13300002 Z "/>
</symbol>
<symbol id="font_1_4">
<path d="M .21300002 .671 C .21700002 .685 .21700002 .68700006 .21700002 .691 C .21700002 .7 .21100001 .705 .202 .705 C .185 .705 .102 .697 .08 .695 C .072000008 .694 .060000004 .693 .060000004 .676 C .060000004 .663 .071 .663 .08600001 .663 C .133 .663 .133 .65500006 .133 .647 C .133 .643 .133 .64100006 .128 .623 L .004999999 .13100001 C 0 .111 0 .097 0 .093 C 0 .030000002 .051 0 .095 0 C .14 0 .16100002 .036000004 .172 .058000003 C .19000001 .094000007 .202 .15100001 .202 .15400002 C .202 .15900001 .19900002 .16600001 .18900001 .16600001 C .17700002 .16600001 .17600002 .16100002 .172 .14200002 C .155 .074 .135 .025000003 .098000008 .025000003 C .078 .025000003 .067 .039 .067 .071 C .067 .092 .069000009 .09900001 .07300001 .115 L .21300002 .671 Z "/>
</symbol>
<use xlink:href="#font_1_2" transform="matrix(8.9664,0,0,-8.9664,22.767052,28.166254)" fill="#000080"/>
<use xlink:href="#font_1_3" transform="matrix(8.9664,0,0,-8.9664,32.61216,28.067625)" fill="#000080"/>
<use xlink:href="#font_1_4" transform="matrix(8.9664,0,0,-8.9664,37.525747,28.067625)" fill="#000080"/>
<use xlink:href="#font_1_4" transform="matrix(8.9664,0,0,-8.9664,40.421895,28.067625)" fill="#000080"/>
</g>
<path transform="matrix(1,0,0,-1,.199,161.588)" stroke-width="1" stroke-linecap="butt" stroke-miterlimit="10" stroke-linejoin="miter" fill="none" stroke="#000000" d="M 0 0 L 0 161.39028 L 194.27216 161.39028 L 194.27216 0 L 0 0 Z "/>
</svg>
