<?xml version="1.0" encoding="UTF-8" standalone="no"?>
<!DOCTYPE svg PUBLIC "-//W3C//DTD SVG 1.1//EN" "http://www.w3.org/Graphics/SVG/1.1/DTD/svg11.dtd">
<svg xmlns="http://www.w3.org/2000/svg" xmlns:xlink="http://www.w3.org/1999/xlink" version="1.1" width="194.261pt" height="161.392pt" viewBox="0 0 194.261 161.392">
<clipPath id="cp0">
<path transform="matrix(1,0,0,-1,0,161.392)" d="M 0 0 L 194.26303 0 L 194.26303 161.39408 L 0 161.39408 Z "/>
</clipPath>
<g clip-path="url(#cp0)">
<path transform="matrix(1,0,0,-1,0,161.392)" stroke-width="1" stroke-linecap="butt" stroke-miterlimit="10" stroke-linejoin="miter" fill="none" stroke="#000080" d="M 33.78487 88.03313 L 33.78487 158.80382 "/>
<path transform="matrix(0,-1,-1,-0,33.78487,2.5881806)" d="M 2.59026 0 L -1.55415 2.0722 L 0 0 L -1.55415 -2.0722 " fill="#000080"/>
<path transform="matrix(1,0,0,-1,0,161.392)" stroke-width="1" stroke-linecap="butt" stroke-miterlimit="10" stroke-linejoin="miter" fill="none" stroke="#000080" d="M 50.6773 88.03313 L 50.6773 158.80382 "/>
<path transform="matrix(0,-1,-1,-0,50.6773,2.5881806)" d="M 2.59026 0 L -1.55415 2.0722 L 0 0 L -1.55415 -2.0722 " fill="#000080"/>
<path transform="matrix(1,0,0,-1,0,161.392)" stroke-width="1" stroke-linecap="butt" stroke-miterlimit="10" stroke-linejoin="miter" fill="none" stroke="#000080" d="M 67.56975 88.03313 L 67.56975 158.80382 "/>
<path transform="matrix(0,-1,-1,-0,67.56975,2.5881806)" d="M 2.59026 0 L -1.55415 2.0722 L 0 0 L -1.55415 -2.0722 " fill="#000080"/>
<path transform="matrix(1,0,0,-1,0,161.392)" stroke-width="1" stroke-linecap="butt" stroke-miterlimit="10" stroke-linejoin="miter" fill="none" stroke="#000080" d="M 84.46219 88.03313 L 84.46219 158.80382 "/>
<path transform="matrix(0,-1,-1,-0,84.46219,2.5881806)" d="M 2.59026 0 L -1.55415 2.0722 L 0 0 L -1.55415 -2.0722 " fill="#000080"/>
<path transform="matrix(1,0,0,-1,0,161.392)" stroke-width="1" stroke-linecap="butt" stroke-miterlimit="10" stroke-linejoin="miter" fill="none" stroke="#000080" d="M 101.35463 88.03313 L 101.35463 158.80382 "/>
<path transform="matrix(0,-1,-1,-0,101.35463,2.5881806)" d="M 2.59026 0 L -1.55415 2.0722 L 0 0 L -1.55415 -2.0722 " fill="#000080"/>
<path transform="matrix(1,0,0,-1,0,161.392)" stroke-width="1" stroke-linecap="butt" stroke-miterlimit="10" stroke-linejoin="miter" fill="none" stroke="#000080" d="M 118.24706 88.03313 L 118.24706 158.80382 "/>
<path transform="matrix(0,-1,-1,-0,118.24706,2.5881806)" d="M 2.59026 0 L -1.55415 2.0722 L 0 0 L -1.55415 -2.0722 " fill="#000080"/>
<path transform="matrix(1,0,0,-1,0,161.392)" stroke-width="1" stroke-linecap="butt" stroke-miterlimit="10" stroke-linejoin="miter" fill="none" stroke="#000080" d="M 135.1395 88.03313 L 135.1395 158.80382 "/>
<path transform="matrix(0,-1,-1,-0,135.1395,2.5881806)" d="M 2.59026 0 L -1.55415 2.0722 L 0 0 L -1.55415 -2.0722 " fill="#000080"/>
<path transform="matrix(1,0,0,-1,0,161.392)" stroke-width="1" stroke-linecap="butt" stroke-miterlimit="10" stroke-linejoin="miter" fill="none" stroke="#000080" d="M 152.03194 88.03313 L 152.03194 158.80382 "/>
<path transform="matrix(0,-1,-1,-0,152.03194,2.5881806)" d="M 2.59026 0 L -1.55415 2.0722 L 0 0 L -1.55415 -2.0722 " fill="#000080"/>
<path transform="matrix(1,0,0,-1,0,161.392)" stroke-width="1" stroke-linecap="butt" stroke-miterlimit="10" stroke-linejoin="miter" fill="none" stroke="#000080" d="M 168.92438 88.03313 L 168.92438 158.80382 "/>
<path transform="matrix(0,-1,-1,-0,168.92438,2.5881806)" d="M 2.59026 0 L -1.55415 2.0722 L 0 0 L -1.55415 -2.0722 " fill="#000080"/>
<path transform="matrix(1,0,0,-1,0,161.392)" stroke-width="1" stroke-linecap="butt" stroke-miterlimit="10" stroke-linejoin="miter" fill="none" stroke="#000080" d="M 33.78487 29.34438 L 33.78487 78.10677 "/>
<path transform="matrix(0,-1,-1,-0,33.78487,83.285228)" d="M 2.59026 0 L -1.55415 2.0722 L 0 0 L -1.55415 -2.0722 " fill="#000080"/>
<path transform="matrix(1,0,0,-1,0,161.392)" stroke-width="1" stroke-linecap="butt" stroke-miterlimit="10" stroke-linejoin="miter" fill="none" stroke="#000080" d="M 50.6773 29.34438 L 50.6773 78.10677 "/>
<path transform="matrix(0,-1,-1,-0,50.6773,83.285228)" d="M 2.59026 0 L -1.55415 2.0722 L 0 0 L -1.55415 -2.0722 " fill="#000080"/>
<path transform="matrix(1,0,0,-1,0,161.392)" stroke-width="1" stroke-linecap="butt" stroke-miterlimit="10" stroke-linejoin="miter" fill="none" stroke="#000080" d="M 67.56975 29.34438 L 67.56975 78.10677 "/>
<path transform="matrix(0,-1,-1,-0,67.56975,83.285228)" d="M 2.59026 0 L -1.55415 2.0722 L 0 0 L -1.55415 -2.0722 " fill="#000080"/>
<path transform="matrix(1,0,0,-1,0,161.392)" stroke-width="1" stroke-linecap="butt" stroke-miterlimit="10" stroke-linejoin="miter" fill="none" stroke="#000080" d="M 84.46219 29.34438 L 84.46219 78.10677 "/>
<path transform="matrix(0,-1,-1,-0,84.46219,83.285228)" d="M 2.59026 0 L -1.55415 2.0722 L 0 0 L -1.55415 -2.0722 " fill="#000080"/>
<path transform="matrix(1,0,0,-1,0,161.392)" stroke-width="1" stroke-linecap="butt" stroke-miterlimit="10" stroke-linejoin="miter" fill="none" stroke="#000080" d="M 101.35463 29.34438 L 101.35463 78.10677 "/>
<path transform="matrix(0,-1,-1,-0,101.35463,83.285228)" d="M 2.59026 0 L -1.55415 2.0722 L 0 0 L -1.55415 -2.0722 " fill="#000080"/>
<path transform="matrix(1,0,0,-1,0,161.392)" stroke-width="1" stroke-linecap="butt" stroke-miterlimit="10" stroke-linejoin="miter" fill="none" stroke="#000080" d="M 118.24706 29.34438 L 118.24706 78.10677 "/>
<path transform="matrix(0,-1,-1,-0,118.24706,83.285228)" d="M 2.59026 0 L -1.55415 2.0722 L 0 0 L -1.55415 -2.0722 " fill="#000080"/>
<path transform="matrix(1,0,0,-1,0,161.392)" stroke-width="1" stroke-linecap="butt" stroke-miterlimit="10" stroke-linejoin="miter" fill="none" stroke="#000080" d="M 135.1395 29.34438 L 135.1395 78.10677 "/>
<path transform="matrix(0,-1,-1,-0,135.1395,83.285228)" d="M 2.59026 0 L -1.55415 2.0722 L 0 0 L -1.55415 -2.0722 " fill="#000080"/>
<path transform="matrix(1,0,0,-1,0,161.392)" stroke-width="1" stroke-linecap="butt" stroke-miterlimit="10" stroke-linejoin="miter" fill="none" stroke="#000080" d="M 152.03194 29.34438 L 152.03194 78.10677 "/>
<path transform="matrix(0,-1,-1,-0,152.03194,83.285228)" d="M 2.59026 0 L -1.55415 2.0722 L 0 0 L -1.55415 -2.0722 " fill="#000080"/>
<path transform="matrix(1,0,0,-1,0,161.392)" stroke-width="1" stroke-linecap="butt" stroke-miterlimit="10" stroke-linejoin="miter" fill="none" stroke="#000080" d="M 168.92438 29.34438 L 168.92438 78.10677 "/>
<path transform="matrix(0,-1,-1,-0,168.92438,83.285228)" d="M 2.59026 0 L -1.55415 2.0722 L 0 0 L -1.55415 -2.0722 " fill="#000080"/>
<path transform="matrix(1,0,0,-1,0,161.392)" stroke-width="1" stroke-linecap="butt" stroke-miterlimit="10" stroke-linejoin="miter" fill="none" stroke="#000080" d="M 33.78487 0 L 33.78487 20.88522 "/>
<path transform="matrix(0,-1,-1,-0,33.78487,140.50678)" d="M 2.59026 0 L -1.55415 2.0722 L 0 0 L -1.55415 -2.0722 " fill="#000080"/>
<path transform="matrix(1,0,0,-1,0,161.392)" stroke-width="1" stroke-linecap="butt" stroke-miterlimit="10" stroke-linejoin="miter" fill="none" stroke="#000080" d="M 50.6773 0 L 50.6773 20.88522 "/>
<path transform="matrix(0,-1,-1,-0,50.6773,140.50678)" d="M 2.59026 0 L -1.55415 2.0722 L 0 0 L -1.55415 -2.0722 " fill="#000080"/>
<path transform="matrix(1,0,0,-1,0,161.392)" stroke-width="1" stroke-linecap="butt" stroke-miterlimit="10" stroke-linejoin="miter" fill="none" stroke="#000080" d="M 67.56975 0 L 67.56975 20.88522 "/>
<path transform="matrix(0,-1,-1,-0,67.56975,140.50678)" d="M 2.59026 0 L -1.55415 2.0722 L 0 0 L -1.55415 -2.0722 " fill="#000080"/>
<path transform="matrix(1,0,0,-1,0,161.392)" stroke-width="1" stroke-linecap="butt" stroke-miterlimit="10" stroke-linejoin="miter" fill="none" stroke="#000080" d="M 84.46219 0 L 84.46219 20.88522 "/>
<path transform="matrix(0,-1,-1,-0,84.46219,140.50678)" d="M 2.59026 0 L -1.55415 2.0722 L 0 0 L -1.55415 -2.0722 " fill="#000080"/>
<path transform="matrix(1,0,0,-1,0,161.392)" stroke-width="1" stroke-linecap="butt" stroke-miterlimit="10" stroke-linejoin="miter" fill="none" stroke="#000080" d="M 101.35463 0 L 101.35463 20.88522 "/>
<path transform="matrix(0,-1,-1,-0,101.35463,140.50678)" d="M 2.59026 0 L -1.55415 2.0722 L 0 0 L -1.55415 -2.0722 " fill="#000080"/>
<path transform="matrix(1,0,0,-1,0,161.392)" stroke-width="1" stroke-linecap="butt" stroke-miterlimit="10" stroke-linejoin="miter" fill="none" stroke="#000080" d="M 118.24706 0 L 118.24706 20.88522 "/>
<path transform="matrix(0,-1,-1,-0,118.24706,140.50678)" d="M 2.59026 0 L -1.55415 2.0722 L 0 0 L -1.55415 -2.0722 " fill="#000080"/>
<path transform="matrix(1,0,0,-1,0,161.392)" stroke-width="1" stroke-linecap="butt" stroke-miterlimit="10" stroke-linejoin="miter" fill="none" stroke="#000080" d="M 135.1395 0 L 135.1395 20.88522 "/>
<path transform="matrix(0,-1,-1,-0,135.1395,140.50678)" d="M 2.59026 0 L -1.55415 2.0722 L 0 0 L -1.55415 -2.0722 " fill="#000080"/>
<path transform="matrix(1,0,0,-1,0,161.392)" stroke-width="1" stroke-linecap="butt" stroke-miterlimit="10" stroke-linejoin="miter" fill="none" stroke="#000080" d="M 152.03194 0 L 152.03194 20.88522 "/>
<path transform="matrix(0,-1,-1,-0,152.03194,140.50678)" d="M 2.59026 0 L -1.55415 2.0722 L 0 0 L -1.55415 -2.0722 " fill="#000080"/>
<path transform="matrix(1,0,0,-1,0,161.392)" stroke-width="1" stroke-linecap="butt" stroke-miterlimit="10" stroke-linejoin="miter" fill="none" stroke="#000080" d="M 168.92438 0 L 168.92438 20.88522 "/>
<path transform="matrix(0,-1,-1,-0,168.92438,140.50678)" d="M 2.59026 0 L -1.55415 2.0722 L 0 0 L -1.55415 -2.0722 " fill="#000080"/>
<path transform="matrix(1,0,0,-1,0,161.392)" stroke-width="1.59404" stroke-linecap="butt" stroke-miterlimit="10" stroke-linejoin="miter" fill="none" stroke="#800000" d="M 50.6773 137.91858 L 160.47815 137.91858 L 160.47815 14.67218 L 50.6773 14.67218 "/>
<path transform="matrix(1,0,0,-1,0,161.392)" stroke-width="1.59404" stroke-linecap="butt" stroke-miterlimit="10" stroke-linejoin="miter" fill="none" stroke="#800000" d="M 50.6773 137.91858 L 97.5688 137.91858 "/>
<path transform="matrix(1,0,0,-1,97.5688,23.47342)" d="M 3.78581 0 L -2.27148 3.02866 L 0 0 L -2.27148 -3.02866 " fill="#800000"/>
<path transform="matrix(1,0,0,-1,0,161.392)" stroke-width="1.59404" stroke-linecap="butt" stroke-miterlimit="10" stroke-linejoin="miter" fill="none" stroke="#800000" d="M 160.47815 137.91858 L 160.47815 91.81895 "/>
<path transform="matrix(0,1,1,0,160.47815,69.57305)" d="M 3.78581 0 L -2.27148 3.02866 L 0 0 L -2.27148 -3.02866 " fill="#800000"/>
<path transform="matrix(1,0,0,-1,0,161.392)" stroke-width="1.59404" stroke-linecap="butt" stroke-miterlimit="10" stroke-linejoin="miter" fill="none" stroke="#800000" d="M 160.47815 14.67218 L 105.14044 14.67218 "/>
<path transform="matrix(-1,0,0,1,105.14044,146.71982)" d="M 3.78581 0 L -2.27148 3.02866 L 0 0 L -2.27148 -3.02866 " fill="#800000"/>
</g>
</svg>
