<?xml version="1.0" encoding="UTF-8" standalone="no"?>
<!DOCTYPE svg PUBLIC "-//W3C//DTD SVG 1.1//EN" "http://www.w3.org/Graphics/SVG/1.1/DTD/svg11.dtd">
<svg xmlns="http://www.w3.org/2000/svg" xmlns:xlink="http://www.w3.org/1999/xlink" version="1.1" width="171.167pt" height="99.161pt" viewBox="0 0 171.167 99.161">
<clipPath id="cp0">
<path transform="matrix(1,0,0,-1,0,99.161)" d="M 0 0 L 171.16895 0 L 171.16895 99.16249 L 0 99.16249 Z "/>
</clipPath>
<g clip-path="url(#cp0)">
<path transform="matrix(1,0,0,-1,0,99.161)" stroke-width="1" stroke-linecap="butt" stroke-miterlimit="10" stroke-linejoin="miter" fill="none" stroke="#000080" d="M 29.76851 54.08864 L 29.76851 96.57224 "/>
<path transform="matrix(0,-1,-1,-0,29.76851,2.5887604)" d="M 2.59026 0 L -1.55415 2.0722 L 0 0 L -1.55415 -2.0722 " fill="#000080"/>
<path transform="matrix(1,0,0,-1,0,99.161)" stroke-width="1" stroke-linecap="butt" stroke-miterlimit="10" stroke-linejoin="miter" fill="none" stroke="#000080" d="M 44.65277 54.08864 L 44.65277 96.57224 "/>
<path transform="matrix(0,-1,-1,-0,44.65277,2.5887604)" d="M 2.59026 0 L -1.55415 2.0722 L 0 0 L -1.55415 -2.0722 " fill="#000080"/>
<path transform="matrix(1,0,0,-1,0,99.161)" stroke-width="1" stroke-linecap="butt" stroke-miterlimit="10" stroke-linejoin="miter" fill="none" stroke="#000080" d="M 59.53702 54.08864 L 59.53702 96.57224 "/>
<path transform="matrix(0,-1,-1,-0,59.53702,2.5887604)" d="M 2.59026 0 L -1.55415 2.0722 L 0 0 L -1.55415 -2.0722 " fill="#000080"/>
<path transform="matrix(1,0,0,-1,0,99.161)" stroke-width="1" stroke-linecap="butt" stroke-miterlimit="10" stroke-linejoin="miter" fill="none" stroke="#000080" d="M 74.42128 54.08864 L 74.42128 96.57224 "/>
<path transform="matrix(0,-1,-1,-0,74.42128,2.5887604)" d="M 2.59026 0 L -1.55415 2.0722 L 0 0 L -1.55415 -2.0722 " fill="#000080"/>
<path transform="matrix(1,0,0,-1,0,99.161)" stroke-width="1" stroke-linecap="butt" stroke-miterlimit="10" stroke-linejoin="miter" fill="none" stroke="#000080" d="M 89.30554 54.08864 L 89.30554 96.57224 "/>
<path transform="matrix(0,-1,-1,-0,89.30554,2.5887604)" d="M 2.59026 0 L -1.55415 2.0722 L 0 0 L -1.55415 -2.0722 " fill="#000080"/>
<path transform="matrix(1,0,0,-1,0,99.161)" stroke-width="1" stroke-linecap="butt" stroke-miterlimit="10" stroke-linejoin="miter" fill="none" stroke="#000080" d="M 104.18979 54.08864 L 104.18979 96.57224 "/>
<path transform="matrix(0,-1,-1,-0,104.18979,2.5887604)" d="M 2.59026 0 L -1.55415 2.0722 L 0 0 L -1.55415 -2.0722 " fill="#000080"/>
<path transform="matrix(1,0,0,-1,0,99.161)" stroke-width="1" stroke-linecap="butt" stroke-miterlimit="10" stroke-linejoin="miter" fill="none" stroke="#000080" d="M 119.07405 54.08864 L 119.07405 96.57224 "/>
<path transform="matrix(0,-1,-1,-0,119.07405,2.5887604)" d="M 2.59026 0 L -1.55415 2.0722 L 0 0 L -1.55415 -2.0722 " fill="#000080"/>
<path transform="matrix(1,0,0,-1,0,99.161)" stroke-width="1" stroke-linecap="butt" stroke-miterlimit="10" stroke-linejoin="miter" fill="none" stroke="#000080" d="M 133.95832 54.08864 L 133.95832 96.57224 "/>
<path transform="matrix(0,-1,-1,-0,133.95832,2.5887604)" d="M 2.59026 0 L -1.55415 2.0722 L 0 0 L -1.55415 -2.0722 " fill="#000080"/>
<path transform="matrix(1,0,0,-1,0,99.161)" stroke-width="1" stroke-linecap="butt" stroke-miterlimit="10" stroke-linejoin="miter" fill="none" stroke="#000080" d="M 148.84256 54.08864 L 148.84256 96.57224 "/>
<path transform="matrix(0,-1,-1,-0,148.84256,2.5887604)" d="M 2.59026 0 L -1.55415 2.0722 L 0 0 L -1.55415 -2.0722 " fill="#000080"/>
<path transform="matrix(1,0,0,-1,0,99.161)" stroke-width="1" stroke-linecap="butt" stroke-miterlimit="10" stroke-linejoin="miter" fill="none" stroke="#000080" d="M 29.76851 18.02954 L 29.76851 46.99098 "/>
<path transform="matrix(0,-1,-1,-0,29.76851,52.170026)" d="M 2.59026 0 L -1.55415 2.0722 L 0 0 L -1.55415 -2.0722 " fill="#000080"/>
<path transform="matrix(1,0,0,-1,0,99.161)" stroke-width="1" stroke-linecap="butt" stroke-miterlimit="10" stroke-linejoin="miter" fill="none" stroke="#000080" d="M 44.65277 18.02954 L 44.65277 46.99098 "/>
<path transform="matrix(0,-1,-1,-0,44.65277,52.170026)" d="M 2.59026 0 L -1.55415 2.0722 L 0 0 L -1.55415 -2.0722 " fill="#000080"/>
<path transform="matrix(1,0,0,-1,0,99.161)" stroke-width="1" stroke-linecap="butt" stroke-miterlimit="10" stroke-linejoin="miter" fill="none" stroke="#000080" d="M 59.53702 18.02954 L 59.53702 46.99098 "/>
<path transform="matrix(0,-1,-1,-0,59.53702,52.170026)" d="M 2.59026 0 L -1.55415 2.0722 L 0 0 L -1.55415 -2.0722 " fill="#000080"/>
<path transform="matrix(1,0,0,-1,0,99.161)" stroke-width="1" stroke-linecap="butt" stroke-miterlimit="10" stroke-linejoin="miter" fill="none" stroke="#000080" d="M 74.42128 18.02954 L 74.42128 46.99098 "/>
<path transform="matrix(0,-1,-1,-0,74.42128,52.170026)" d="M 2.59026 0 L -1.55415 2.0722 L 0 0 L -1.55415 -2.0722 " fill="#000080"/>
<path transform="matrix(1,0,0,-1,0,99.161)" stroke-width="1" stroke-linecap="butt" stroke-miterlimit="10" stroke-linejoin="miter" fill="none" stroke="#000080" d="M 89.30554 18.02954 L 89.30554 46.99098 "/>
<path transform="matrix(0,-1,-1,-0,89.30554,52.170026)" d="M 2.59026 0 L -1.55415 2.0722 L 0 0 L -1.55415 -2.0722 " fill="#000080"/>
<path transform="matrix(1,0,0,-1,0,99.161)" stroke-width="1" stroke-linecap="butt" stroke-miterlimit="10" stroke-linejoin="miter" fill="none" stroke="#000080" d="M 104.18979 18.02954 L 104.18979 46.99098 "/>
<path transform="matrix(0,-1,-1,-0,104.18979,52.170026)" d="M 2.59026 0 L -1.55415 2.0722 L 0 0 L -1.55415 -2.0722 " fill="#000080"/>
<path transform="matrix(1,0,0,-1,0,99.161)" stroke-width="1" stroke-linecap="butt" stroke-miterlimit="10" stroke-linejoin="miter" fill="none" stroke="#000080" d="M 119.07405 18.02954 L 119.07405 46.99098 "/>
<path transform="matrix(0,-1,-1,-0,119.07405,52.170026)" d="M 2.59026 0 L -1.55415 2.0722 L 0 0 L -1.55415 -2.0722 " fill="#000080"/>
<path transform="matrix(1,0,0,-1,0,99.161)" stroke-width="1" stroke-linecap="butt" stroke-miterlimit="10" stroke-linejoin="miter" fill="none" stroke="#000080" d="M 133.95832 18.02954 L 133.95832 46.99098 "/>
<path transform="matrix(0,-1,-1,-0,133.95832,52.170026)" d="M 2.59026 0 L -1.55415 2.0722 L 0 0 L -1.55415 -2.0722 " fill="#000080"/>
<path transform="matrix(1,0,0,-1,0,99.161)" stroke-width="1" stroke-linecap="butt" stroke-miterlimit="10" stroke-linejoin="miter" fill="none" stroke="#000080" d="M 148.84256 18.02954 L 148.84256 46.99098 "/>
<path transform="matrix(0,-1,-1,-0,148.84256,52.170026)" d="M 2.59026 0 L -1.55415 2.0722 L 0 0 L -1.55415 -2.0722 " fill="#000080"/>
<path transform="matrix(1,0,0,-1,0,99.161)" stroke-width="1" stroke-linecap="butt" stroke-miterlimit="10" stroke-linejoin="miter" fill="none" stroke="#000080" d="M 29.76851 0 L 29.76851 11.83336 "/>
<path transform="matrix(0,-1,-1,-0,29.76851,87.327648)" d="M 2.59026 0 L -1.55415 2.0722 L 0 0 L -1.55415 -2.0722 " fill="#000080"/>
<path transform="matrix(1,0,0,-1,0,99.161)" stroke-width="1" stroke-linecap="butt" stroke-miterlimit="10" stroke-linejoin="miter" fill="none" stroke="#000080" d="M 44.65277 0 L 44.65277 11.83336 "/>
<path transform="matrix(0,-1,-1,-0,44.65277,87.327648)" d="M 2.59026 0 L -1.55415 2.0722 L 0 0 L -1.55415 -2.0722 " fill="#000080"/>
<path transform="matrix(1,0,0,-1,0,99.161)" stroke-width="1" stroke-linecap="butt" stroke-miterlimit="10" stroke-linejoin="miter" fill="none" stroke="#000080" d="M 59.53702 0 L 59.53702 11.83336 "/>
<path transform="matrix(0,-1,-1,-0,59.53702,87.327648)" d="M 2.59026 0 L -1.55415 2.0722 L 0 0 L -1.55415 -2.0722 " fill="#000080"/>
<path transform="matrix(1,0,0,-1,0,99.161)" stroke-width="1" stroke-linecap="butt" stroke-miterlimit="10" stroke-linejoin="miter" fill="none" stroke="#000080" d="M 74.42128 0 L 74.42128 11.83336 "/>
<path transform="matrix(0,-1,-1,-0,74.42128,87.327648)" d="M 2.59026 0 L -1.55415 2.0722 L 0 0 L -1.55415 -2.0722 " fill="#000080"/>
<path transform="matrix(1,0,0,-1,0,99.161)" stroke-width="1" stroke-linecap="butt" stroke-miterlimit="10" stroke-linejoin="miter" fill="none" stroke="#000080" d="M 89.30554 0 L 89.30554 11.83336 "/>
<path transform="matrix(0,-1,-1,-0,89.30554,87.327648)" d="M 2.59026 0 L -1.55415 2.0722 L 0 0 L -1.55415 -2.0722 " fill="#000080"/>
<path transform="matrix(1,0,0,-1,0,99.161)" stroke-width="1" stroke-linecap="butt" stroke-miterlimit="10" stroke-linejoin="miter" fill="none" stroke="#000080" d="M 104.18979 0 L 104.18979 11.83336 "/>
<path transform="matrix(0,-1,-1,-0,104.18979,87.327648)" d="M 2.59026 0 L -1.55415 2.0722 L 0 0 L -1.55415 -2.0722 " fill="#000080"/>
<path transform="matrix(1,0,0,-1,0,99.161)" stroke-width="1" stroke-linecap="butt" stroke-miterlimit="10" stroke-linejoin="miter" fill="none" stroke="#000080" d="M 119.07405 0 L 119.07405 11.83336 "/>
<path transform="matrix(0,-1,-1,-0,119.07405,87.327648)" d="M 2.59026 0 L -1.55415 2.0722 L 0 0 L -1.55415 -2.0722 " fill="#000080"/>
<path transform="matrix(1,0,0,-1,0,99.161)" stroke-width="1" stroke-linecap="butt" stroke-miterlimit="10" stroke-linejoin="miter" fill="none" stroke="#000080" d="M 133.95832 0 L 133.95832 11.83336 "/>
<path transform="matrix(0,-1,-1,-0,133.95832,87.327648)" d="M 2.59026 0 L -1.55415 2.0722 L 0 0 L -1.55415 -2.0722 " fill="#000080"/>
<path transform="matrix(1,0,0,-1,0,99.161)" stroke-width="1" stroke-linecap="butt" stroke-miterlimit="10" stroke-linejoin="miter" fill="none" stroke="#000080" d="M 148.84256 0 L 148.84256 11.83336 "/>
<path transform="matrix(0,-1,-1,-0,148.84256,87.327648)" d="M 2.59026 0 L -1.55415 2.0722 L 0 0 L -1.55415 -2.0722 " fill="#000080"/>
<path transform="matrix(1,0,0,-1,0,99.161)" stroke-width="1.59404" stroke-linecap="butt" stroke-miterlimit="10" stroke-linejoin="miter" fill="none" stroke="#800000" d="M 44.95038 80.79607 L 46.45367 67.33847 L 47.95697 59.51901 L 49.46028 53.52701 L 50.9636 48.56517 L 52.4669 44.29773 L 53.97021 40.54521 L 55.47351 37.19798 L 56.97682 34.18324 L 58.48012 31.44978 L 59.98343 28.95987 L 61.48674 26.68484 L 62.99004 24.60234 L 64.49335 22.6945 L 65.99666 20.94688 L 67.49997 19.34764 L 69.00327 17.8869 L 70.50658 16.55644 L 72.00987 15.34923 L 73.51318 14.2595 L 75.0165 13.28217 L 76.5198 12.41304 L 78.02312 11.6485 L 79.52643 10.98552 L 81.02972 10.42157 L 82.53304 9.95456 L 84.03635 9.58284 L 85.53966 9.30504 L 87.04297 9.1202 L 88.54626 9.02768 L 90.04958 9.02722 L 91.55289 9.11879 L 93.0562 9.30267 L 94.55951 9.57953 L 96.06282 9.95036 L 97.56612 10.41637 L 99.06943 10.97934 L 100.57274 11.64127 L 102.07605 12.40479 L 103.57936 13.27283 L 105.08267 14.24907 L 106.58597 15.33763 L 108.08928 16.5436 L 109.59258 17.87279 L 111.09589 19.33221 L 112.5992 20.93 L 114.1025 22.67607 L 115.6058 24.5822 L 117.10912 26.66284 L 118.61243 28.93585 L 120.11572 31.42343 L 121.61903 34.15427 L 123.12233 37.16592 L 124.62564 40.50949 L 126.12895 44.2575 L 127.63226 48.51897 L 129.13558 53.47244 L 130.63886 59.45123 L 132.14217 67.24431 L 133.64548 80.5611 "/>
<path transform="matrix(1,0,0,-1,0,99.161)" stroke-width="1.59404" stroke-linecap="butt" stroke-miterlimit="10" stroke-linejoin="miter" fill="none" stroke="#800000" d="M 74.42128 13.65599 L 76.07492 12.6592 L 77.72856 11.7902 L 79.3822 11.04478 L 81.03584 10.41951 L 82.68948 9.91147 L 84.34312 9.51854 L 85.99677 9.239 L 87.6504 9.07172 L 85.51991 9.14348 "/>
<path transform="matrix(.99956,.03368,.03368,-.99956,85.5199,90.0175)" d="M 3.78581 0 L -2.27148 3.02866 L 0 0 L -2.27148 -3.02866 " fill="#800000"/>
</g>
</svg>
