<?xml version="1.0" encoding="UTF-8" standalone="no"?>
<!DOCTYPE svg PUBLIC "-//W3C//DTD SVG 1.1//EN" "http://www.w3.org/Graphics/SVG/1.1/DTD/svg11.dtd">
<svg xmlns="http://www.w3.org/2000/svg" xmlns:xlink="http://www.w3.org/1999/xlink" version="1.1" width="194.261pt" height="161.385pt" viewBox="0 0 194.261 161.385">
<clipPath id="cp0">
<path transform="matrix(1,0,0,-1,0,161.385)" d="M 0 0 L 194.26303 0 L 194.26303 161.38724 L 0 161.38724 Z "/>
</clipPath>
<g clip-path="url(#cp0)">
<path transform="matrix(1,0,0,-1,0,161.385)" stroke-width="1" stroke-linecap="butt" stroke-miterlimit="10" stroke-linejoin="miter" fill="none" stroke="#000080" d="M 0 149.85958 L 90.31815 149.85958 "/>
<path transform="matrix(1,0,0,-1,90.31815,11.525421)" d="M 2.59026 0 L -1.55415 2.0722 L 0 0 L -1.55415 -2.0722 " fill="#000080"/>
<path transform="matrix(1,0,0,-1,0,161.385)" stroke-width="1" stroke-linecap="butt" stroke-miterlimit="10" stroke-linejoin="miter" fill="none" stroke="#000080" d="M 101.35463 149.85958 L 191.67278 149.85958 "/>
<path transform="matrix(1,0,0,-1,191.67278,11.525421)" d="M 2.59026 0 L -1.55415 2.0722 L 0 0 L -1.55415 -2.0722 " fill="#000080"/>
<path transform="matrix(1,0,0,-1,0,161.385)" stroke-width="1" stroke-linecap="butt" stroke-miterlimit="10" stroke-linejoin="miter" fill="none" stroke="#000080" d="M 0 126.80426 L 56.53326 126.80426 "/>
<path transform="matrix(1,0,0,-1,56.53326,34.580736)" d="M 2.59026 0 L -1.55415 2.0722 L 0 0 L -1.55415 -2.0722 " fill="#000080"/>
<path transform="matrix(1,0,0,-1,0,161.385)" stroke-width="1" stroke-linecap="butt" stroke-miterlimit="10" stroke-linejoin="miter" fill="none" stroke="#000080" d="M 67.56975 126.80426 L 124.10301 126.80426 "/>
<path transform="matrix(1,0,0,-1,124.10301,34.580736)" d="M 2.59026 0 L -1.55415 2.0722 L 0 0 L -1.55415 -2.0722 " fill="#000080"/>
<path transform="matrix(1,0,0,-1,0,161.385)" stroke-width="1" stroke-linecap="butt" stroke-miterlimit="10" stroke-linejoin="miter" fill="none" stroke="#000080" d="M 135.1395 126.80426 L 191.67278 126.80426 "/>
<path transform="matrix(1,0,0,-1,191.67278,34.580736)" d="M 2.59026 0 L -1.55415 2.0722 L 0 0 L -1.55415 -2.0722 " fill="#000080"/>
<path transform="matrix(1,0,0,-1,0,161.385)" stroke-width="1" stroke-linecap="butt" stroke-miterlimit="10" stroke-linejoin="miter" fill="none" stroke="#000080" d="M 0 103.74893 L 39.64082 103.74893 "/>
<path transform="matrix(1,0,0,-1,39.64082,57.636064)" d="M 2.59026 0 L -1.55415 2.0722 L 0 0 L -1.55415 -2.0722 " fill="#000080"/>
<path transform="matrix(1,0,0,-1,0,161.385)" stroke-width="1" stroke-linecap="butt" stroke-miterlimit="10" stroke-linejoin="miter" fill="none" stroke="#000080" d="M 50.6773 103.74893 L 90.31815 103.74893 "/>
<path transform="matrix(1,0,0,-1,90.31815,57.636064)" d="M 2.59026 0 L -1.55415 2.0722 L 0 0 L -1.55415 -2.0722 " fill="#000080"/>
<path transform="matrix(1,0,0,-1,0,161.385)" stroke-width="1" stroke-linecap="butt" stroke-miterlimit="10" stroke-linejoin="miter" fill="none" stroke="#000080" d="M 101.35463 103.74893 L 140.99546 103.74893 "/>
<path transform="matrix(1,0,0,-1,140.99546,57.636064)" d="M 2.59026 0 L -1.55415 2.0722 L 0 0 L -1.55415 -2.0722 " fill="#000080"/>
<path transform="matrix(1,0,0,-1,0,161.385)" stroke-width="1" stroke-linecap="butt" stroke-miterlimit="10" stroke-linejoin="miter" fill="none" stroke="#000080" d="M 152.03194 103.74893 L 191.67278 103.74893 "/>
<path transform="matrix(1,0,0,-1,191.67278,57.636064)" d="M 2.59026 0 L -1.55415 2.0722 L 0 0 L -1.55415 -2.0722 " fill="#000080"/>
<path transform="matrix(1,0,0,-1,0,161.385)" stroke-width="1" stroke-linecap="butt" stroke-miterlimit="10" stroke-linejoin="miter" fill="none" stroke="#000080" d="M 0 80.69362 L 22.74838 80.69362 "/>
<path transform="matrix(1,0,0,-1,22.74838,80.691379)" d="M 2.59026 0 L -1.55415 2.0722 L 0 0 L -1.55415 -2.0722 " fill="#000080"/>
<path transform="matrix(1,0,0,-1,0,161.385)" stroke-width="1" stroke-linecap="butt" stroke-miterlimit="10" stroke-linejoin="miter" fill="none" stroke="#000080" d="M 33.78487 80.69362 L 56.53326 80.69362 "/>
<path transform="matrix(1,0,0,-1,56.53326,80.691379)" d="M 2.59026 0 L -1.55415 2.0722 L 0 0 L -1.55415 -2.0722 " fill="#000080"/>
<path transform="matrix(1,0,0,-1,0,161.385)" stroke-width="1" stroke-linecap="butt" stroke-miterlimit="10" stroke-linejoin="miter" fill="none" stroke="#000080" d="M 67.56975 80.69362 L 90.31815 80.69362 "/>
<path transform="matrix(1,0,0,-1,90.31815,80.691379)" d="M 2.59026 0 L -1.55415 2.0722 L 0 0 L -1.55415 -2.0722 " fill="#000080"/>
<path transform="matrix(1,0,0,-1,0,161.385)" stroke-width="1" stroke-linecap="butt" stroke-miterlimit="10" stroke-linejoin="miter" fill="none" stroke="#000080" d="M 101.35463 80.69362 L 124.10301 80.69362 "/>
<path transform="matrix(1,0,0,-1,124.10301,80.691379)" d="M 2.59026 0 L -1.55415 2.0722 L 0 0 L -1.55415 -2.0722 " fill="#000080"/>
<path transform="matrix(1,0,0,-1,0,161.385)" stroke-width="1" stroke-linecap="butt" stroke-miterlimit="10" stroke-linejoin="miter" fill="none" stroke="#000080" d="M 135.1395 80.69362 L 157.8879 80.69362 "/>
<path transform="matrix(1,0,0,-1,157.8879,80.691379)" d="M 2.59026 0 L -1.55415 2.0722 L 0 0 L -1.55415 -2.0722 " fill="#000080"/>
<path transform="matrix(1,0,0,-1,0,161.385)" stroke-width="1" stroke-linecap="butt" stroke-miterlimit="10" stroke-linejoin="miter" fill="none" stroke="#000080" d="M 168.92438 80.69362 L 191.67278 80.69362 "/>
<path transform="matrix(1,0,0,-1,191.67278,80.691379)" d="M 2.59026 0 L -1.55415 2.0722 L 0 0 L -1.55415 -2.0722 " fill="#000080"/>
<path transform="matrix(1,0,0,-1,0,161.385)" stroke-width="1" stroke-linecap="butt" stroke-miterlimit="10" stroke-linejoin="miter" fill="none" stroke="#000080" d="M 0 57.63829 L 5.85594 57.63829 "/>
<path transform="matrix(1,0,0,-1,5.85594,103.746707)" d="M 2.59026 0 L -1.55415 2.0722 L 0 0 L -1.55415 -2.0722 " fill="#000080"/>
<path transform="matrix(1,0,0,-1,0,161.385)" stroke-width="1" stroke-linecap="butt" stroke-miterlimit="10" stroke-linejoin="miter" fill="none" stroke="#000080" d="M 16.89243 57.63829 L 22.74838 57.63829 "/>
<path transform="matrix(1,0,0,-1,22.74838,103.746707)" d="M 2.59026 0 L -1.55415 2.0722 L 0 0 L -1.55415 -2.0722 " fill="#000080"/>
<path transform="matrix(1,0,0,-1,0,161.385)" stroke-width="1" stroke-linecap="butt" stroke-miterlimit="10" stroke-linejoin="miter" fill="none" stroke="#000080" d="M 33.78487 57.63829 L 39.64082 57.63829 "/>
<path transform="matrix(1,0,0,-1,39.64082,103.746707)" d="M 2.59026 0 L -1.55415 2.0722 L 0 0 L -1.55415 -2.0722 " fill="#000080"/>
<path transform="matrix(1,0,0,-1,0,161.385)" stroke-width="1" stroke-linecap="butt" stroke-miterlimit="10" stroke-linejoin="miter" fill="none" stroke="#000080" d="M 50.6773 57.63829 L 56.53326 57.63829 "/>
<path transform="matrix(1,0,0,-1,56.53326,103.746707)" d="M 2.59026 0 L -1.55415 2.0722 L 0 0 L -1.55415 -2.0722 " fill="#000080"/>
<path transform="matrix(1,0,0,-1,0,161.385)" stroke-width="1" stroke-linecap="butt" stroke-miterlimit="10" stroke-linejoin="miter" fill="none" stroke="#000080" d="M 67.56975 57.63829 L 73.4257 57.63829 "/>
<path transform="matrix(1,0,0,-1,73.4257,103.746707)" d="M 2.59026 0 L -1.55415 2.0722 L 0 0 L -1.55415 -2.0722 " fill="#000080"/>
<path transform="matrix(1,0,0,-1,0,161.385)" stroke-width="1" stroke-linecap="butt" stroke-miterlimit="10" stroke-linejoin="miter" fill="none" stroke="#000080" d="M 84.46219 57.63829 L 90.31815 57.63829 "/>
<path transform="matrix(1,0,0,-1,90.31815,103.746707)" d="M 2.59026 0 L -1.55415 2.0722 L 0 0 L -1.55415 -2.0722 " fill="#000080"/>
<path transform="matrix(1,0,0,-1,0,161.385)" stroke-width="1" stroke-linecap="butt" stroke-miterlimit="10" stroke-linejoin="miter" fill="none" stroke="#000080" d="M 101.35463 57.63829 L 107.21057 57.63829 "/>
<path transform="matrix(1,0,0,-1,107.21057,103.746707)" d="M 2.59026 0 L -1.55415 2.0722 L 0 0 L -1.55415 -2.0722 " fill="#000080"/>
<path transform="matrix(1,0,0,-1,0,161.385)" stroke-width="1" stroke-linecap="butt" stroke-miterlimit="10" stroke-linejoin="miter" fill="none" stroke="#000080" d="M 118.24706 57.63829 L 124.10301 57.63829 "/>
<path transform="matrix(1,0,0,-1,124.10301,103.746707)" d="M 2.59026 0 L -1.55415 2.0722 L 0 0 L -1.55415 -2.0722 " fill="#000080"/>
<path transform="matrix(1,0,0,-1,0,161.385)" stroke-width="1" stroke-linecap="butt" stroke-miterlimit="10" stroke-linejoin="miter" fill="none" stroke="#000080" d="M 135.1395 57.63829 L 140.99546 57.63829 "/>
<path transform="matrix(1,0,0,-1,140.99546,103.746707)" d="M 2.59026 0 L -1.55415 2.0722 L 0 0 L -1.55415 -2.0722 " fill="#000080"/>
<path transform="matrix(1,0,0,-1,0,161.385)" stroke-width="1" stroke-linecap="butt" stroke-miterlimit="10" stroke-linejoin="miter" fill="none" stroke="#000080" d="M 152.03194 57.63829 L 157.8879 57.63829 "/>
<path transform="matrix(1,0,0,-1,157.8879,103.746707)" d="M 2.59026 0 L -1.55415 2.0722 L 0 0 L -1.55415 -2.0722 " fill="#000080"/>
<path transform="matrix(1,0,0,-1,0,161.385)" stroke-width="1" stroke-linecap="butt" stroke-miterlimit="10" stroke-linejoin="miter" fill="none" stroke="#000080" d="M 168.92438 57.63829 L 174.78034 57.63829 "/>
<path transform="matrix(1,0,0,-1,174.78034,103.746707)" d="M 2.59026 0 L -1.55415 2.0722 L 0 0 L -1.55415 -2.0722 " fill="#000080"/>
<path transform="matrix(1,0,0,-1,0,161.385)" stroke-width="1" stroke-linecap="butt" stroke-miterlimit="10" stroke-linejoin="miter" fill="none" stroke="#000080" d="M 185.81682 57.63829 L 191.67278 57.63829 "/>
<path transform="matrix(1,0,0,-1,191.67278,103.746707)" d="M 2.59026 0 L -1.55415 2.0722 L 0 0 L -1.55415 -2.0722 " fill="#000080"/>
<symbol id="font_1_4">
<path d="M .707 .36 C .707 .56100007 .54800006 .7250001 .354 .7250001 C .157 .7250001 0 .56000009 0 .36 C 0 .156 .16300002 0 .35300002 0 C .547 0 .707 .158 .707 .36 M .354 .033 C .24500002 .033 .104 .12400001 .104 .375 C .104 .6140001 .25 .69400009 .35300002 .69400009 C .46100004 .69400009 .60300007 .6100001 .60300007 .375 C .60300007 .12100001 .459 .033 .354 .033 Z "/>
</symbol>
<symbol id="font_1_10">
<path d="M .44500003 .303 C .44500003 .38700003 .407 .441 .30200003 .441 C .20300001 .441 .15800002 .36900003 .146 .34500004 L .14500001 .34500004 L .14500001 .441 L 0 .43 L 0 .397 C .068 .397 .076000008 .39000003 .076000008 .34100003 L .076000008 .078 C .076000008 .033 .064 .033 0 .033 L 0 0 C .043000007 .003 .087000008 .003 .114 .003 C .143 .003 .185 .003 .22800002 0 L .22800002 .033 C .164 .033 .15200001 .033 .15200001 .078 L .15200001 .259 C .15200001 .36400003 .232 .41300003 .293 .41300003 C .354 .41300003 .36900003 .37 .36900003 .307 L .36900003 .078 C .36900003 .033 .35700003 .033 .293 .033 L .293 0 C .336 .003 .38000003 .003 .407 .003 C .43600003 .003 .47800005 .003 .521 0 L .521 .033 C .45700003 .033 .44500003 .033 .44500003 .078 L .44500003 .303 Z "/>
</symbol>
<symbol id="font_1_9">
<path d="M .38300003 .23800002 C .40500004 .23800002 .411 .23800002 .411 .261 C .411 .35 .36200003 .456 .22100002 .456 C .097 .456 0 .35300002 0 .22900002 C 0 .1 .10800001 0 .234 0 C .36100004 0 .411 .107 .411 .13000001 C .411 .134 .40800003 .14400001 .395 .14400001 C .38400004 .14400001 .38200004 .13700001 .38000003 .13100001 C .344 .034 .25800003 .031000004 .24000001 .031000004 C .19500001 .031000004 .149 .052000006 .119 .098000008 C .089 .14400001 .089 .20800002 .089 .23800002 L .38300003 .23800002 M .09 .264 C .09900001 .404 .18400002 .428 .22100002 .428 C .33800004 .428 .342 .287 .34300003 .264 L .09 .264 Z "/>
</symbol>
<symbol id="font_1_14">
<path d="M .321 .43 C .321 .446 .321 .456 .30800004 .456 C .30300004 .456 .3 .456 .284 .44 C .282 .439 .27300004 .43 .27 .43 C .26900003 .43 .26700003 .43 .261 .43400003 C .245 .44500003 .21600002 .456 .17100002 .456 C .031 .456 0 .38 0 .33200003 C 0 .282 .037000006 .25300003 .040000004 .25 C .08 .22000002 .103000018 .21600002 .17000002 .20400001 C .21700001 .19500001 .29400004 .18100001 .29400004 .113000009 C .29400004 .074 .268 .028 .17600002 .028 C .075 .028 .046 .106 .033000005 .15900001 C .029000003 .172 .028 .17700002 .016000003 .17700002 C 0 .17700002 0 .16900002 0 .15 L 0 .026 C 0 .010000001 0 0 .013 0 C .019000002 0 .020000004 .0010000002 .038000008 .020000002 C .043 .025000003 .054 .038000004 .059000005 .043 C .10400002 .0020000004 .15100001 0 .17700002 0 C .30400003 0 .34800003 .073 .34800003 .13900002 C .34800003 .187 .319 .257 .20000002 .279 C .19200002 .28100003 .136 .291 .13200002 .291 C .10100001 .298 .054 .319 .054 .359 C .054 .389 .076000008 .43100003 .17100002 .43100003 C .28300003 .43100003 .28800003 .349 .29000003 .321 C .291 .313 .298 .31 .305 .31 C .321 .31 .321 .317 .321 .336 L .321 .43 Z "/>
</symbol>
<symbol id="font_1_c">
<path d="M .44500003 .303 C .44500003 .38700003 .407 .441 .30200003 .441 C .21400002 .441 .16800002 .38500003 .15 .35300002 L .14900002 .35300002 L .14900002 .694 L 0 .683 L 0 .65000006 C .068 .65000006 .076000008 .643 .076000008 .59400007 L .076000008 .078 C .076000008 .033 .064 .033 0 .033 L 0 0 C .043000007 .003 .087000008 .003 .114 .003 C .143 .003 .185 .003 .22800002 0 L .22800002 .033 C .164 .033 .15200001 .033 .15200001 .078 L .15200001 .259 C .15200001 .36400003 .232 .41300003 .293 .41300003 C .354 .41300003 .36900003 .37 .36900003 .307 L .36900003 .078 C .36900003 .033 .35700003 .033 .293 .033 L .293 0 C .336 .003 .38000003 .003 .407 .003 C .43600003 .003 .47800005 .003 .521 0 L .521 .033 C .45700003 .033 .44500003 .033 .44500003 .078 L .44500003 .303 Z "/>
</symbol>
<symbol id="font_1_11">
<path d="M .47 .22300002 C .47 .34800003 .367 .456 .23500002 .456 C .103 .456 0 .34800003 0 .22300002 C 0 .098000008 .10700001 0 .23500002 0 C .36400003 0 .47 .098000008 .47 .22300002 M .23500002 .031000004 C .18100001 .031000004 .13900002 .057000005 .117 .092 C .09200001 .133 .089 .18200001 .089 .23200003 C .089 .27 .089 .33 .120000008 .373 C .14600002 .40800003 .18800001 .428 .23500002 .428 C .287 .428 .33 .403 .35300002 .368 C .38000003 .326 .381 .272 .381 .23200003 C .381 .18600002 .379 .13100001 .351 .089 C .324 .049000004 .279 .031000004 .23500002 .031000004 Z "/>
</symbol>
<symbol id="font_1_16">
<path d="M .293 .44 L .293 .407 C .361 .407 .36900003 .4 .36900003 .351 L .36900003 .17700002 C .36900003 .091 .317 .028 .24200002 .028 C .15600002 .028 .15200001 .071 .15200001 .12100001 L .15200001 .451 L 0 .44 L 0 .407 C .076000008 .407 .076000008 .404 .076000008 .315 L .076000008 .165 C .076000008 .093 .076000008 0 .236 0 C .33 0 .366 .072000008 .37100003 .081 L .372 .081 L .372 0 L .521 .010000001 L .521 .043 C .453 .043 .44500003 .050000006 .44500003 .099 L .44500003 .451 L .293 .44 Z "/>
</symbol>
<symbol id="font_1_e">
<path d="M .14900002 .694 L 0 .683 L 0 .65000006 C .068 .65000006 .076000008 .643 .076000008 .59400007 L .076000008 .078 C .076000008 .033 .064 .033 0 .033 L 0 0 C .038999998 .003 .095000009 .003 .11200001 .003 C .132 .003 .18600002 .003 .22500003 0 L .22500003 .033 C .16100002 .033 .14900002 .033 .14900002 .078 L .14900002 .694 Z "/>
</symbol>
<symbol id="font_1_8">
<path d="M .29400004 .693 L .29400004 .66 C .36200003 .66 .37000004 .653 .37000004 .60400006 L .37000004 .393 C .335 .43100003 .28800003 .451 .23600003 .451 C .11100002 .451 0 .354 0 .22500001 C 0 .102000009 .10000001 0 .22600001 0 C .28500004 0 .33400003 .028 .367 .063 L .367 0 L .519 .010000001 L .519 .043 C .45100004 .043 .44300003 .050000006 .44300003 .099 L .44300003 .704 L .29400004 .693 M .367 .134 C .367 .116000007 .367 .112 .35200004 .092 C .32400004 .052000006 .27800004 .028 .231 .028 C .18500002 .028 .14500001 .052000006 .12100001 .089 C .09400001 .128 .089 .17700002 .089 .22400002 C .089 .282 .098000008 .323 .12100001 .358 C .14500001 .395 .19000001 .423 .24100003 .423 C .289 .423 .337 .39900003 .367 .347 L .367 .134 Z "/>
</symbol>
<symbol id="font_1_d">
<path d="M .153 .61600008 C .153 .64500007 .13 .67200008 .09700001 .67200008 C .068 .67200008 .042000005 .64900007 .042000005 .61700007 C .042000005 .582 .071 .56100007 .09700001 .56100007 C .132 .56100007 .153 .59000006 .153 .61600008 M .0029999987 .43 L .0029999987 .397 C .067 .397 .076000008 .39100004 .076000008 .342 L .076000008 .078 C .076000008 .033 .064 .033 0 .033 L 0 0 C .038999998 .003 .095000009 .003 .11000001 .003 C .123 .003 .183 .003 .21800003 0 L .21800003 .033 C .153 .033 .14900002 .038000004 .14900002 .07700001 L .14900002 .441 L .0029999987 .43 Z "/>
</symbol>
<symbol id="font_1_f">
<path d="M .74 .303 C .74 .384 .70500007 .441 .596 .441 C .504 .441 .458 .37800003 .442 .349 C .42400003 .42100004 .367 .441 .30200003 .441 C .20500002 .441 .15900001 .372 .146 .34500004 L .14500001 .34500004 L .14500001 .441 L 0 .43 L 0 .397 C .068 .397 .076000008 .39000003 .076000008 .34100003 L .076000008 .078 C .076000008 .033 .064 .033 0 .033 L 0 0 C .043000007 .003 .087000008 .003 .114 .003 C .143 .003 .185 .003 .22800002 0 L .22800002 .033 C .164 .033 .15200001 .033 .15200001 .078 L .15200001 .259 C .15200001 .36400003 .231 .41300003 .294 .41300003 C .359 .41300003 .37 .36200003 .37 .307 L .37 .078 C .37 .033 .358 .033 .294 .033 L .294 0 C .337 .003 .381 .003 .40800003 .003 C .437 .003 .47900004 .003 .522 0 L .522 .033 C .458 .033 .446 .033 .446 .078 L .446 .259 C .446 .36400003 .52500006 .41300003 .588 .41300003 C .653 .41300003 .66400006 .36200003 .66400006 .307 L .66400006 .078 C .66400006 .033 .652 .033 .588 .033 L .588 0 C .63100007 .003 .675 .003 .702 .003 C .731 .003 .773 .003 .81600007 0 L .81600007 .033 C .75200006 .033 .74 .033 .74 .078 L .74 .303 Z "/>
</symbol>
<symbol id="font_1_6">
<path d="M .37600003 .308 C .37600003 .40600003 .28100003 .456 .19000001 .456 C .10700001 .456 .033000005 .42400003 .033000005 .358 C .033000005 .328 .054 .31 .08 .31 C .10800001 .31 .127 .33 .127 .357 C .127 .381 .112 .398 .09 .403 C .127 .428 .18100001 .428 .18800001 .428 C .24400002 .428 .3 .389 .3 .307 L .3 .276 C .24200002 .273 .17500001 .27 .105000007 .24100001 C .017 .20300001 0 .14500001 0 .112 C 0 .026 .10100001 0 .17000002 0 C .243 0 .28800003 .041 .31 .081 C .31500004 .043 .34100003 .0050000005 .38500003 .0050000005 C .395 .0050000005 .48000006 .009000001 .48000006 .1 L .48000006 .15500002 L .44900004 .15500002 L .44900004 .1 C .44900004 .059000005 .43400003 .043 .41300003 .043 C .37600003 .043 .37600003 .089 .37600003 .1 L .37600003 .308 M .3 .15100001 C .3 .054000006 .21800003 .028 .17800002 .028 C .126 .028 .082 .063 .082 .111 C .082 .17700002 .14400001 .24500002 .3 .25 L .3 .15100001 Z "/>
</symbol>
<symbol id="font_1_b">
<path d="M .143 .27400003 C .112 .277 .087000008 .30400003 .087000008 .34000004 C .087000008 .36400003 .093 .37300004 .10000001 .38200004 C .142 .35700003 .18100001 .352 .20500002 .352 C .30400003 .352 .377 .421 .377 .499 C .377 .53700008 .36 .569 .33600004 .595 C .35000003 .607 .38300003 .628 .432 .62900009 C .42800004 .62600007 .423 .62100008 .423 .605 C .423 .587 .43600003 .574 .45400004 .574 C .46800003 .574 .48500005 .58300009 .48500005 .60600009 C .48500005 .623 .47200004 .65700009 .42800004 .65700009 C .411 .65700009 .363 .653 .317 .61100009 C .29200004 .62900009 .25300003 .646 .20600002 .646 C .10700001 .646 .034 .577 .034 .499 C .034 .45200003 .060000004 .41700004 .08100001 .397 C .059 .37200005 .051 .34000004 .051 .316 C .051 .275 .071 .24400002 .093 .22700002 C .041 .21300002 0 .17400001 0 .128 C 0 .05600001 .103 0 .23500002 0 C .36 0 .47 .051 .47 .13000001 C .47 .18400002 .43800003 .22600001 .40500004 .24300002 C .34600003 .27400003 .29700003 .27400003 .19900002 .27400003 L .143 .27400003 M .20600002 .38100005 C .113000009 .38100005 .113000009 .47700004 .113000009 .499 C .113000009 .536 .118 .56200006 .133 .582 C .15 .605 .178 .61700007 .20500002 .61700007 C .298 .61700007 .298 .521 .298 .499 C .298 .462 .293 .43600003 .27800004 .416 C .256 .388 .224 .38100005 .20600002 .38100005 M .25300003 .209 C .28 .209 .411 .209 .411 .12900001 C .411 .075 .33400003 .029 .23500002 .029 C .135 .029 .059 .075 .059 .12900001 C .059 .15 .075 .209 .157 .209 L .25300003 .209 Z "/>
</symbol>
<symbol id="font_1_17">
<path d="M .421 .338 C .445 .394 .47900004 .407 .51600006 .40800003 L .51600006 .441 C .481 .43800003 .47900004 .43800003 .438 .43800003 C .42900003 .43800003 .382 .43800003 .351 .441 L .351 .40800003 C .386 .40600003 .395 .384 .395 .367 C .395 .357 .393 .352 .389 .343 L .281 .091 L .163 .36200003 C .157 .375 .157 .381 .157 .38300003 C .157 .40800003 .193 .40800003 .21000001 .40800003 L .21000001 .441 C .16700001 .43800003 .120000008 .43800003 .101 .43800003 C .080000009 .43800003 .031999999 .43800003 0 .441 L 0 .40800003 C .061000006 .40800003 .06600001 .402 .08100001 .368 L .23100002 .022 C .23800002 .0070000009 .244 0 .258 0 C .27199999 0 .279 .008 .284 .020000002 L .421 .338 Z "/>
</symbol>
<symbol id="font_1_7">
<path d="M .33300004 .407 C .305 .398 .30100004 .375 .30100004 .363 C .30100004 .336 .32000003 .316 .34800003 .316 C .374 .316 .395 .334 .395 .364 C .395 .426 .32700003 .456 .23300001 .456 C .09400001 .456 0 .345 0 .22600001 C 0 .099 .10400002 0 .23000002 0 C .37100003 0 .40600003 .118 .40600003 .13000001 C .40600003 .142 .39300005 .142 .39000003 .142 C .38300003 .142 .37800003 .14100002 .37500004 .13100001 C .36800004 .11 .34000004 .031000004 .24000001 .031000004 C .17800002 .031000004 .089 .079 .089 .22700002 C .089 .37100003 .16300002 .425 .23600003 .425 C .245 .425 .298 .425 .33300004 .407 Z "/>
</symbol>
<symbol id="font_1_15">
<path d="M .16600001 .40800003 L .315 .40800003 L .315 .441 L .16600001 .441 L .16600001 .625 L .135 .625 C .13400002 .53400006 .093 .439 0 .43600003 L 0 .40800003 L .09 .40800003 L .09 .135 C .09 .018000002 .18 0 .22600001 0 C .293 0 .333 .060000004 .333 .135 L .333 .19100002 L .30200003 .19100002 L .30200003 .13700001 C .30200003 .068 .271 .031000004 .23300003 .031000004 C .16600001 .031000004 .16600001 .117000009 .16600001 .133 L .16600001 .40800003 Z "/>
</symbol>
<symbol id="font_1_13">
<path d="M .14900002 .22800002 C .14900002 .303 .18 .411 .27600003 .41300003 C .27 .409 .26000003 .40100003 .26000003 .37800003 C .26000003 .347 .284 .333 .30400003 .333 C .328 .333 .349 .349 .349 .37800003 C .349 .41300003 .31700004 .441 .27300004 .441 C .20800002 .441 .16400002 .39200003 .143 .33600004 L .142 .33600004 L .142 .441 L 0 .43 L 0 .397 C .068 .397 .076000008 .39000003 .076000008 .34100003 L .076000008 .078 C .076000008 .033 .06400001 .033 0 .033 L 0 0 C .039 .003 .09400001 .003 .118000019 .003 C .17700002 .003 .17900002 .003 .24400002 0 L .24400002 .033 L .224 .033 C .15100001 .033 .14900002 .044000005 .14900002 .080000009 L .14900002 .22800002 Z "/>
</symbol>
<use xlink:href="#font_1_4" transform="matrix(6.7745854,0,0,-6.7745854,.56870058,130.66226)"/>
<use xlink:href="#font_1_10" transform="matrix(6.7745854,0,0,-6.7745854,6.042566,130.51999)"/>
<use xlink:href="#font_1_9" transform="matrix(6.7745854,0,0,-6.7745854,9.965051,130.58774)"/>
<use xlink:href="#font_1_14" transform="matrix(6.7745854,0,0,-6.7745854,16.02153,130.58774)"/>
<use xlink:href="#font_1_c" transform="matrix(6.7745854,0,0,-6.7745854,18.900729,130.51999)"/>
<use xlink:href="#font_1_11" transform="matrix(6.7745854,0,0,-6.7745854,22.823216,130.58774)"/>
<use xlink:href="#font_1_16" transform="matrix(6.7745854,0,0,-6.7745854,26.49504,130.58774)"/>
<use xlink:href="#font_1_e" transform="matrix(6.7745854,0,0,-6.7745854,30.49882,130.51999)"/>
<use xlink:href="#font_1_8" transform="matrix(6.7745854,0,0,-6.7745854,32.4499,130.58774)"/>
<use xlink:href="#font_1_d" transform="matrix(6.7745854,0,0,-6.7745854,39.312559,130.51999)"/>
<use xlink:href="#font_1_f" transform="matrix(6.7745854,0,0,-6.7745854,41.304288,130.51999)"/>
<use xlink:href="#font_1_6" transform="matrix(6.7745854,0,0,-6.7745854,47.320116,130.58774)"/>
<use xlink:href="#font_1_b" transform="matrix(6.7745854,0,0,-6.7745854,50.822584,131.90879)"/>
<use xlink:href="#font_1_d" transform="matrix(6.7745854,0,0,-6.7745854,54.501184,130.51999)"/>
<use xlink:href="#font_1_10" transform="matrix(6.7745854,0,0,-6.7745854,56.49291,130.51999)"/>
<use xlink:href="#font_1_9" transform="matrix(6.7745854,0,0,-6.7745854,60.415395,130.58774)"/>
<use xlink:href="#font_1_6" transform="matrix(6.7745854,0,0,-6.7745854,66.532848,130.58774)"/>
<use xlink:href="#font_1_17" transform="matrix(6.7745854,0,0,-6.7745854,72.806118,130.58774)"/>
<use xlink:href="#font_1_9" transform="matrix(6.7745854,0,0,-6.7745854,76.45762,130.58774)"/>
<use xlink:href="#font_1_7" transform="matrix(6.7745854,0,0,-6.7745854,79.689098,130.58774)"/>
<use xlink:href="#font_1_15" transform="matrix(6.7745854,0,0,-6.7745854,82.78508,130.58774)"/>
<use xlink:href="#font_1_11" transform="matrix(6.7745854,0,0,-6.7745854,85.65073,130.58774)"/>
<use xlink:href="#font_1_13" transform="matrix(6.7745854,0,0,-6.7745854,89.281909,130.51999)"/>
<use xlink:href="#font_1_6" transform="matrix(6.7745854,0,0,-6.7745854,94.97256,130.58774)"/>
<use xlink:href="#font_1_15" transform="matrix(6.7745854,0,0,-6.7745854,98.40727,130.58774)"/>
<symbol id="font_2_1">
<path d="M .458 .21900001 C .479 .21900001 .492 .21900001 .492 .24800001 C .492 .291 .48200003 .35700003 .432 .40600003 C .37600003 .462 .286 .462 .263 .462 C .085 .462 0 .351 0 .23300001 C 0 .103 .1 0 .278 0 C .45400004 0 .492 .108 .492 .122 C .492 .143 .471 .143 .46400003 .143 C .44700004 .143 .44300003 .141 .435 .124000009 C .403 .054 .31800003 .047000003 .29 .047000003 C .14200002 .047000003 .137 .163 .13500002 .21900001 L .458 .21900001 M .13500002 .25800003 C .136 .298 .14000002 .42000003 .264 .42000003 C .388 .42000003 .393 .29700003 .39400003 .25800003 L .13500002 .25800003 Z "/>
</symbol>
<symbol id="font_2_3">
<path d="M .513 .37600003 C .521 .39200003 .52400007 .397 .5860001 .397 L .5860001 .44900004 C .548 .446 .546 .446 .503 .446 C .49600003 .446 .44300003 .446 .41300003 .44900004 L .41300003 .397 C .439 .397 .446 .39400003 .45600004 .389 C .455 .38700003 .455 .38500003 .45000003 .37600003 L .32700003 .12900001 L .19200002 .397 L .24000001 .397 L .24000001 .44900004 C .179 .446 .16800002 .446 .117 .446 C .085 .446 .043000007 .446 0 .44900004 L 0 .397 L .063 .397 L .24800003 .028000003 C .257 .011 .26200003 0 .293 0 C .30900003 0 .32500003 0 .33900003 .028000003 L .513 .37600003 Z "/>
</symbol>
<symbol id="font_2_2">
<path d="M .18200001 .21400002 C .18200001 .293 .213 .40600003 .30900003 .409 C .30900003 .40800003 .293 .39200003 .293 .36400003 C .293 .324 .32200004 .298 .35900004 .298 C .39600004 .298 .425 .32500003 .425 .36400003 C .425 .41900004 .36900003 .45100004 .31100003 .45100004 C .22600001 .45100004 .185 .381 .17 .34300003 L .169 .344 L .169 .45100004 L 0 .44300003 L 0 .39100004 C .059 .39100004 .066 .39100004 .066 .35200004 L .066 .052 L 0 .052 L 0 0 C .058 .003 .068 .003 .128 .003 C .185 .003 .187 .003 .264 0 L .264 .052 L .18200001 .052 L .18200001 .21400002 Z "/>
</symbol>
<symbol id="font_2_4">
<path d="M .51900008 .572 C .52800008 .589 .53000006 .59300008 .59200009 .59300008 L .59200009 .64500007 C .554 .642 .55200007 .642 .50900009 .642 C .50200006 .642 .44900004 .642 .41900004 .64500007 L .41900004 .59300008 C .42000006 .59300008 .46000005 .59300008 .46000005 .58300009 C .46000005 .58000007 .45700006 .574 .45500005 .57000008 L .33300004 .329 L .199 .59300008 L .246 .59300008 L .246 .64500007 C .18800001 .642 .16700001 .642 .122999999 .642 C .10000001 .642 .046 .642 .006000001 .64500007 L .006000001 .59300008 L .069000009 .59300008 L .26700003 .201 C .226 .116000007 .21800001 .106 .21100001 .096 C .17300001 .04699999 .13000001 .041999997 .11400001 .041999997 C .105000007 .041999997 .100999999 .042999999 .096 .045 C .116 .056999998 .125 .077 .125 .099 C .125 .139 .095 .161 .06300001 .161 C .030000002 .161 0 .139 0 .098 C 0 .045 .049000008 0 .113000009 0 C .21000001 0 .27 .084 .28400005 .111 L .51900008 .572 Z "/>
</symbol>
<use xlink:href="#font_2_1" transform="matrix(6.7745854,0,0,-6.7745854,104.15714,130.56742)"/>
<use xlink:href="#font_2_3" transform="matrix(6.7745854,0,0,-6.7745854,107.93059,130.55387)"/>
<use xlink:href="#font_2_1" transform="matrix(6.7745854,0,0,-6.7745854,112.11051,130.56742)"/>
<use xlink:href="#font_2_2" transform="matrix(6.7745854,0,0,-6.7745854,115.99234,130.51999)"/>
<use xlink:href="#font_2_4" transform="matrix(6.7745854,0,0,-6.7745854,119.27124,131.88169)"/>
<symbol id="font_1_12">
<path d="M .22800002 .032999994 C .16400002 .032999994 .15200001 .032999994 .15200001 .078 L .15200001 .243 C .19900002 .192 .25000004 .184 .282 .184 C .40900005 .184 .519 .282 .519 .41000004 C .519 .535 .418 .635 .29700003 .635 C .25800003 .635 .20000002 .625 .14900002 .573 L .14900002 .635 L 0 .624 L 0 .591 C .07100001 .591 .076000008 .58500006 .076000008 .543 L .076000008 .078 C .076000008 .032999994 .06400001 .032999994 0 .032999994 L 0 0 C .043 .0029999912 .08700001 .0029999912 .11400001 .0029999912 C .143 .0029999912 .18500002 .0029999912 .22800002 0 L .22800002 .032999994 M .15200001 .527 C .17500001 .56700006 .22500003 .60400006 .28800003 .60400006 C .365 .60400006 .43000005 .51900008 .43000005 .41000004 C .43000005 .29500003 .358 .21200001 .277 .21200001 C .24200002 .21200001 .19600001 .227 .16400002 .277 C .15200001 .294 .15200001 .29500003 .15200001 .314 L .15200001 .527 Z "/>
</symbol>
<symbol id="font_1_3">
<path d="M .111 .055000005 C .111 .089 .08400001 .11100001 .055999996 .11100001 C .022 .11100001 0 .08400001 0 .056 C 0 .022000002 .026999996 0 .054999994 0 C .089 0 .111 .027 .111 .055000005 Z "/>
</symbol>
<symbol id="font_1_5">
<path d="M .95000007 .60300007 C .96400007 .64500007 .99100008 .6700001 1.0500001 .67100009 L 1.0500001 .70400008 C 1.0180001 .70100006 .9840001 .70100006 .95300009 .70100006 C .92200008 .70100006 .8910001 .70100006 .8370001 .70400008 L .8370001 .67100009 C .8910001 .67100009 .9200001 .64500007 .9200001 .61800006 C .9200001 .61300006 .9200001 .61100009 .9150001 .59800007 L .75600007 .136 L .58800008 .62200006 C .58300009 .63500007 .58300009 .6370001 .58300009 .64000007 C .58300009 .67100009 .63500007 .67100009 .66400006 .67100009 L .66400006 .70400008 C .57900008 .70100006 .577 .70100006 .526 .70100006 C .488 .70100006 .446 .70100006 .40100003 .70400008 L .40100003 .67100009 C .45400004 .67100009 .47 .669 .48100005 .65300008 C .49000005 .64000007 .508 .58100005 .508 .58000007 C .508 .57900008 .50400009 .56900009 .50400009 .5680001 L .35500003 .136 L .18700002 .6230001 C .18200001 .63600006 .18200001 .6380001 .18200001 .64000007 C .18200001 .67100009 .23500003 .67100009 .264 .67100009 L .264 .70400008 C .17800002 .70100006 .17600002 .70100006 .12500002 .70100006 C .087000008 .70100006 .045 .70100006 0 .70400008 L 0 .67100009 C .058 .67100009 .077 .67100009 .09 .6330001 L .3 .023000002 C .305 .0090000019 .30900003 0 .32500003 0 C .33900003 0 .345 .0090000019 .349 .022000002 L .52500006 .53300008 L .70100006 .023000002 C .70500007 .012000001 .70900008 0 .7250001 0 C .74100008 0 .74500009 .0090000019 .75000008 .023000002 L .95000007 .60300007 Z "/>
</symbol>
<symbol id="font_1_1">
<path d="M .098000008 .211 C .098000008 .113000009 .062000008 .067 .018 .025000006 C .012999997 .01999998 .012999997 .01699999 .012999997 .014999986 C .012999997 .0059999825 .022 0 .026999996 0 C .040999995 0 .126 .078999999 .126 .197 C .126 .256 .102 .30499999 .054999994 .30499999 C .022 .30499999 0 .28 0 .25000004 C 0 .22 .020999998 .19399998 .055999996 .19399998 C .083000008 .19399998 .09200001 .20500002 .098000008 .211 Z "/>
</symbol>
<symbol id="font_1_a">
<path d="M .15500002 .39800004 L .275 .39800004 L .275 .43100003 L .15200001 .43100003 L .15200001 .544 C .15200001 .63100007 .20100002 .67600008 .24500002 .67600008 C .261 .67600008 .27 .67200008 .274 .671 C .256 .66200008 .251 .64500007 .251 .632 C .251 .606 .27 .587 .296 .587 C .323 .587 .341 .606 .341 .632 C .341 .675 .299 .70400008 .246 .70400008 C .17100002 .70400008 .082 .65000006 .082 .54300007 L .082 .43100003 L 0 .43100003 L 0 .39800004 L .082 .39800004 L .082 .078 C .082 .033 .07000001 .033 .006000001 .033 L .006000001 0 C .044999999 .003 .10000001 .003 .12400001 .003 C .18300002 .003 .18500002 .003 .25 0 L .25 .033 L .23 .033 C .157 .033 .15500002 .044000005 .15500002 .080000009 L .15500002 .39800004 Z "/>
</symbol>
<symbol id="font_1_2">
<path d="M .282 0 L .282 .065 L 0 .065 L 0 0 L .282 0 Z "/>
</symbol>
<symbol id="font_1_18">
<path d="M .38500003 .39600004 C .39200003 .40500004 .39400003 .407 .39400003 .41500003 C .39400003 .43100003 .38200004 .43100003 .36600004 .43100003 L .026 .43100003 L .014000002 .264 L .045 .264 C .051 .36800004 .07300001 .40300004 .185 .40300004 L .29900003 .40300004 L .009 .037 C .0020000004 .028 0 .026 0 .017 C 0 0 .011 0 .028 0 L .379 0 L .397 .193 L .36600004 .193 C .356 .07700001 .337 .031000002 .21400002 .031000002 L .095 .031000002 L .38500003 .39600004 Z "/>
</symbol>
<use xlink:href="#font_1_12" transform="matrix(6.7745854,0,0,-6.7745854,126.66342,131.83426)"/>
<use xlink:href="#font_1_11" transform="matrix(6.7745854,0,0,-6.7745854,130.82978,130.58774)"/>
<use xlink:href="#font_1_d" transform="matrix(6.7745854,0,0,-6.7745854,134.50838,130.51999)"/>
<use xlink:href="#font_1_10" transform="matrix(6.7745854,0,0,-6.7745854,136.5001,130.51999)"/>
<use xlink:href="#font_1_15" transform="matrix(6.7745854,0,0,-6.7745854,140.15161,130.58774)"/>
<use xlink:href="#font_1_3" transform="matrix(6.7745854,0,0,-6.7745854,143.43729,130.51999)"/>
<use xlink:href="#font_1_5" transform="matrix(6.7745854,0,0,-6.7745854,149.18215,130.66226)"/>
<use xlink:href="#font_1_9" transform="matrix(6.7745854,0,0,-6.7745854,156.04477,130.58774)"/>
<use xlink:href="#font_1_1" transform="matrix(6.7745854,0,0,-6.7745854,159.66242,127.884677)"/>
<use xlink:href="#font_1_e" transform="matrix(6.7745854,0,0,-6.7745854,161.32219,130.51999)"/>
<use xlink:href="#font_1_e" transform="matrix(6.7745854,0,0,-6.7745854,163.3207,130.51999)"/>
<use xlink:href="#font_1_6" transform="matrix(6.7745854,0,0,-6.7745854,168.15097,130.58774)"/>
<use xlink:href="#font_1_14" transform="matrix(6.7745854,0,0,-6.7745854,171.6873,130.58774)"/>
<use xlink:href="#font_1_14" transform="matrix(6.7745854,0,0,-6.7745854,174.52585,130.58774)"/>
<use xlink:href="#font_1_16" transform="matrix(6.7745854,0,0,-6.7745854,177.40506,130.58774)"/>
<use xlink:href="#font_1_f" transform="matrix(6.7745854,0,0,-6.7745854,181.40207,130.51999)"/>
<use xlink:href="#font_1_9" transform="matrix(6.7745854,0,0,-6.7745854,187.32306,130.58774)"/>
<use xlink:href="#font_1_15" transform="matrix(6.7745854,0,0,-6.7745854,.30449713,140.74948)"/>
<use xlink:href="#font_1_c" transform="matrix(6.7745854,0,0,-6.7745854,3.2446676,140.68173)"/>
<use xlink:href="#font_1_6" transform="matrix(6.7745854,0,0,-6.7745854,7.2619969,140.74948)"/>
<use xlink:href="#font_1_15" transform="matrix(6.7745854,0,0,-6.7745854,10.696711,140.74948)"/>
<use xlink:href="#font_1_15" transform="matrix(6.7745854,0,0,-6.7745854,16.319619,140.74948)"/>
<use xlink:href="#font_1_c" transform="matrix(6.7745854,0,0,-6.7745854,19.259789,140.68173)"/>
<use xlink:href="#font_1_9" transform="matrix(6.7745854,0,0,-6.7745854,23.182272,140.74948)"/>
<use xlink:href="#font_1_f" transform="matrix(6.7745854,0,0,-6.7745854,29.272625,140.68173)"/>
<use xlink:href="#font_1_6" transform="matrix(6.7745854,0,0,-6.7745854,35.288457,140.74948)"/>
<use xlink:href="#font_1_b" transform="matrix(6.7745854,0,0,-6.7745854,38.79092,142.07053)"/>
<use xlink:href="#font_1_10" transform="matrix(6.7745854,0,0,-6.7745854,42.462747,140.68173)"/>
<use xlink:href="#font_1_d" transform="matrix(6.7745854,0,0,-6.7745854,46.466527,140.68173)"/>
<use xlink:href="#font_1_15" transform="matrix(6.7745854,0,0,-6.7745854,48.315984,140.74948)"/>
<use xlink:href="#font_1_16" transform="matrix(6.7745854,0,0,-6.7745854,51.256158,140.74948)"/>
<use xlink:href="#font_1_8" transform="matrix(6.7745854,0,0,-6.7745854,55.212518,140.74948)"/>
<use xlink:href="#font_1_9" transform="matrix(6.7745854,0,0,-6.7745854,59.175657,140.74948)"/>
<use xlink:href="#font_1_14" transform="matrix(6.7745854,0,0,-6.7745854,62.407129,140.74948)"/>
<use xlink:href="#font_1_11" transform="matrix(6.7745854,0,0,-6.7745854,68.03681,140.74948)"/>
<use xlink:href="#font_1_a" transform="matrix(6.7745854,0,0,-6.7745854,71.67477,140.68173)"/>
<use xlink:href="#font_1_15" transform="matrix(6.7745854,0,0,-6.7745854,76.58634,140.74948)"/>
<use xlink:href="#font_1_c" transform="matrix(6.7745854,0,0,-6.7745854,79.526508,140.68173)"/>
<use xlink:href="#font_1_9" transform="matrix(6.7745854,0,0,-6.7745854,83.449,140.74948)"/>
<use xlink:href="#font_1_17" transform="matrix(6.7745854,0,0,-6.7745854,89.417407,140.74948)"/>
<use xlink:href="#font_1_9" transform="matrix(6.7745854,0,0,-6.7745854,93.06891,140.74948)"/>
<use xlink:href="#font_1_7" transform="matrix(6.7745854,0,0,-6.7745854,96.30717,140.74948)"/>
<use xlink:href="#font_1_15" transform="matrix(6.7745854,0,0,-6.7745854,99.403148,140.74948)"/>
<use xlink:href="#font_1_11" transform="matrix(6.7745854,0,0,-6.7745854,102.2688,140.74948)"/>
<use xlink:href="#font_1_13" transform="matrix(6.7745854,0,0,-6.7745854,105.893199,140.68173)"/>
<use xlink:href="#font_1_14" transform="matrix(6.7745854,0,0,-6.7745854,108.697879,140.74948)"/>
<use xlink:href="#font_1_6" transform="matrix(6.7745854,0,0,-6.7745854,114.42239,140.74948)"/>
<use xlink:href="#font_1_13" transform="matrix(6.7745854,0,0,-6.7745854,117.958728,140.68173)"/>
<use xlink:href="#font_1_9" transform="matrix(6.7745854,0,0,-6.7745854,120.72953,140.74948)"/>
<use xlink:href="#font_1_7" transform="matrix(6.7745854,0,0,-6.7745854,126.78601,140.74948)"/>
<use xlink:href="#font_1_11" transform="matrix(6.7745854,0,0,-6.7745854,129.94972,140.74948)"/>
<use xlink:href="#font_1_10" transform="matrix(6.7745854,0,0,-6.7745854,133.62155,140.68173)"/>
<use xlink:href="#font_1_14" transform="matrix(6.7745854,0,0,-6.7745854,137.57791,140.74948)"/>
<use xlink:href="#font_1_15" transform="matrix(6.7745854,0,0,-6.7745854,140.31485,140.74948)"/>
<use xlink:href="#font_1_6" transform="matrix(6.7745854,0,0,-6.7745854,143.27535,140.74948)"/>
<use xlink:href="#font_1_10" transform="matrix(6.7745854,0,0,-6.7745854,146.85233,140.68173)"/>
<use xlink:href="#font_1_15" transform="matrix(6.7745854,0,0,-6.7745854,150.50383,140.74948)"/>
<use xlink:href="#font_1_6" transform="matrix(6.7745854,0,0,-6.7745854,156.28932,140.74948)"/>
<use xlink:href="#font_1_e" transform="matrix(6.7745854,0,0,-6.7745854,159.87308,140.68173)"/>
<use xlink:href="#font_1_11" transform="matrix(6.7745854,0,0,-6.7745854,161.79029,140.74948)"/>
<use xlink:href="#font_1_10" transform="matrix(6.7745854,0,0,-6.7745854,165.4621,140.68173)"/>
<use xlink:href="#font_1_b" transform="matrix(6.7745854,0,0,-6.7745854,169.38459,142.07053)"/>
<use xlink:href="#font_1_c" transform="matrix(6.7745854,0,0,-6.7745854,175.87465,140.68173)"/>
<use xlink:href="#font_1_11" transform="matrix(6.7745854,0,0,-6.7745854,179.79712,140.74948)"/>
<use xlink:href="#font_1_13" transform="matrix(6.7745854,0,0,-6.7745854,183.4283,140.68173)"/>
<use xlink:href="#font_1_d" transform="matrix(6.7745854,0,0,-6.7745854,186.2804,140.68173)"/>
<use xlink:href="#font_1_2" transform="matrix(6.7745854,0,0,-6.7745854,188.07567,139.44199)"/>
<use xlink:href="#font_1_18" transform="matrix(6.7745854,0,0,-6.7745854,.37224297,150.84433)"/>
<use xlink:href="#font_1_11" transform="matrix(6.7745854,0,0,-6.7745854,3.5698474,150.91208)"/>
<use xlink:href="#font_1_10" transform="matrix(6.7745854,0,0,-6.7745854,7.241673,150.84433)"/>
<use xlink:href="#font_1_15" transform="matrix(6.7745854,0,0,-6.7745854,10.899949,150.91208)"/>
<use xlink:href="#font_1_6" transform="matrix(6.7745854,0,0,-6.7745854,13.860443,150.91208)"/>
<use xlink:href="#font_1_e" transform="matrix(6.7745854,0,0,-6.7745854,17.437426,150.84433)"/>
<use xlink:href="#font_1_e" transform="matrix(6.7745854,0,0,-6.7745854,22.260931,150.84433)"/>
<use xlink:href="#font_1_d" transform="matrix(6.7745854,0,0,-6.7745854,24.259432,150.84433)"/>
<use xlink:href="#font_1_10" transform="matrix(6.7745854,0,0,-6.7745854,26.25116,150.84433)"/>
<use xlink:href="#font_1_9" transform="matrix(6.7745854,0,0,-6.7745854,30.173645,150.91208)"/>
<use xlink:href="#font_1_14" transform="matrix(6.7745854,0,0,-6.7745854,33.405118,150.91208)"/>
<use xlink:href="#font_1_3" transform="matrix(6.7745854,0,0,-6.7745854,36.62982,150.84433)"/>
</g>
</svg>
