<?xml version="1.0" encoding="UTF-8" standalone="no"?>
<!DOCTYPE svg PUBLIC "-//W3C//DTD SVG 1.1//EN" "http://www.w3.org/Graphics/SVG/1.1/DTD/svg11.dtd">
<svg xmlns="http://www.w3.org/2000/svg" xmlns:xlink="http://www.w3.org/1999/xlink" version="1.1" width="194.261pt" height="161.392pt" viewBox="0 0 194.261 161.392">
<clipPath id="cp0">
<path transform="matrix(1,0,0,-1,0,161.392)" d="M 0 0 L 194.26303 0 L 194.26303 161.39408 L 0 161.39408 Z "/>
</clipPath>
<g clip-path="url(#cp0)">
<path transform="matrix(1,0,0,-1,0,161.392)" stroke-width="1" stroke-linecap="butt" stroke-miterlimit="10" stroke-linejoin="miter" fill="none" stroke="#000080" d="M 33.78487 88.03313 L 33.78487 158.80382 "/>
<path transform="matrix(0,-1,-1,-0,33.78487,2.5881806)" d="M 2.59026 0 L -1.55415 2.0722 L 0 0 L -1.55415 -2.0722 " fill="#000080"/>
<path transform="matrix(1,0,0,-1,0,161.392)" stroke-width="1" stroke-linecap="butt" stroke-miterlimit="10" stroke-linejoin="miter" fill="none" stroke="#000080" d="M 50.6773 88.03313 L 50.6773 158.80382 "/>
<path transform="matrix(0,-1,-1,-0,50.6773,2.5881806)" d="M 2.59026 0 L -1.55415 2.0722 L 0 0 L -1.55415 -2.0722 " fill="#000080"/>
<path transform="matrix(1,0,0,-1,0,161.392)" stroke-width="1" stroke-linecap="butt" stroke-miterlimit="10" stroke-linejoin="miter" fill="none" stroke="#000080" d="M 67.56975 88.03313 L 67.56975 158.80382 "/>
<path transform="matrix(0,-1,-1,-0,67.56975,2.5881806)" d="M 2.59026 0 L -1.55415 2.0722 L 0 0 L -1.55415 -2.0722 " fill="#000080"/>
<path transform="matrix(1,0,0,-1,0,161.392)" stroke-width="1" stroke-linecap="butt" stroke-miterlimit="10" stroke-linejoin="miter" fill="none" stroke="#000080" d="M 84.46219 88.03313 L 84.46219 158.80382 "/>
<path transform="matrix(0,-1,-1,-0,84.46219,2.5881806)" d="M 2.59026 0 L -1.55415 2.0722 L 0 0 L -1.55415 -2.0722 " fill="#000080"/>
<path transform="matrix(1,0,0,-1,0,161.392)" stroke-width="1" stroke-linecap="butt" stroke-miterlimit="10" stroke-linejoin="miter" fill="none" stroke="#000080" d="M 101.35463 88.03313 L 101.35463 158.80382 "/>
<path transform="matrix(0,-1,-1,-0,101.35463,2.5881806)" d="M 2.59026 0 L -1.55415 2.0722 L 0 0 L -1.55415 -2.0722 " fill="#000080"/>
<path transform="matrix(1,0,0,-1,0,161.392)" stroke-width="1" stroke-linecap="butt" stroke-miterlimit="10" stroke-linejoin="miter" fill="none" stroke="#000080" d="M 118.24706 88.03313 L 118.24706 158.80382 "/>
<path transform="matrix(0,-1,-1,-0,118.24706,2.5881806)" d="M 2.59026 0 L -1.55415 2.0722 L 0 0 L -1.55415 -2.0722 " fill="#000080"/>
<path transform="matrix(1,0,0,-1,0,161.392)" stroke-width="1" stroke-linecap="butt" stroke-miterlimit="10" stroke-linejoin="miter" fill="none" stroke="#000080" d="M 135.1395 88.03313 L 135.1395 158.80382 "/>
<path transform="matrix(0,-1,-1,-0,135.1395,2.5881806)" d="M 2.59026 0 L -1.55415 2.0722 L 0 0 L -1.55415 -2.0722 " fill="#000080"/>
<path transform="matrix(1,0,0,-1,0,161.392)" stroke-width="1" stroke-linecap="butt" stroke-miterlimit="10" stroke-linejoin="miter" fill="none" stroke="#000080" d="M 152.03194 88.03313 L 152.03194 158.80382 "/>
<path transform="matrix(0,-1,-1,-0,152.03194,2.5881806)" d="M 2.59026 0 L -1.55415 2.0722 L 0 0 L -1.55415 -2.0722 " fill="#000080"/>
<path transform="matrix(1,0,0,-1,0,161.392)" stroke-width="1" stroke-linecap="butt" stroke-miterlimit="10" stroke-linejoin="miter" fill="none" stroke="#000080" d="M 168.92438 88.03313 L 168.92438 158.80382 "/>
<path transform="matrix(0,-1,-1,-0,168.92438,2.5881806)" d="M 2.59026 0 L -1.55415 2.0722 L 0 0 L -1.55415 -2.0722 " fill="#000080"/>
<path transform="matrix(1,0,0,-1,0,161.392)" stroke-width="1" stroke-linecap="butt" stroke-miterlimit="10" stroke-linejoin="miter" fill="none" stroke="#000080" d="M 33.78487 29.34438 L 33.78487 78.10677 "/>
<path transform="matrix(0,-1,-1,-0,33.78487,83.285228)" d="M 2.59026 0 L -1.55415 2.0722 L 0 0 L -1.55415 -2.0722 " fill="#000080"/>
<path transform="matrix(1,0,0,-1,0,161.392)" stroke-width="1" stroke-linecap="butt" stroke-miterlimit="10" stroke-linejoin="miter" fill="none" stroke="#000080" d="M 50.6773 29.34438 L 50.6773 78.10677 "/>
<path transform="matrix(0,-1,-1,-0,50.6773,83.285228)" d="M 2.59026 0 L -1.55415 2.0722 L 0 0 L -1.55415 -2.0722 " fill="#000080"/>
<path transform="matrix(1,0,0,-1,0,161.392)" stroke-width="1" stroke-linecap="butt" stroke-miterlimit="10" stroke-linejoin="miter" fill="none" stroke="#000080" d="M 67.56975 29.34438 L 67.56975 78.10677 "/>
<path transform="matrix(0,-1,-1,-0,67.56975,83.285228)" d="M 2.59026 0 L -1.55415 2.0722 L 0 0 L -1.55415 -2.0722 " fill="#000080"/>
<path transform="matrix(1,0,0,-1,0,161.392)" stroke-width="1" stroke-linecap="butt" stroke-miterlimit="10" stroke-linejoin="miter" fill="none" stroke="#000080" d="M 84.46219 29.34438 L 84.46219 78.10677 "/>
<path transform="matrix(0,-1,-1,-0,84.46219,83.285228)" d="M 2.59026 0 L -1.55415 2.0722 L 0 0 L -1.55415 -2.0722 " fill="#000080"/>
<path transform="matrix(1,0,0,-1,0,161.392)" stroke-width="1" stroke-linecap="butt" stroke-miterlimit="10" stroke-linejoin="miter" fill="none" stroke="#000080" d="M 101.35463 29.34438 L 101.35463 78.10677 "/>
<path transform="matrix(0,-1,-1,-0,101.35463,83.285228)" d="M 2.59026 0 L -1.55415 2.0722 L 0 0 L -1.55415 -2.0722 " fill="#000080"/>
<path transform="matrix(1,0,0,-1,0,161.392)" stroke-width="1" stroke-linecap="butt" stroke-miterlimit="10" stroke-linejoin="miter" fill="none" stroke="#000080" d="M 118.24706 29.34438 L 118.24706 78.10677 "/>
<path transform="matrix(0,-1,-1,-0,118.24706,83.285228)" d="M 2.59026 0 L -1.55415 2.0722 L 0 0 L -1.55415 -2.0722 " fill="#000080"/>
<path transform="matrix(1,0,0,-1,0,161.392)" stroke-width="1" stroke-linecap="butt" stroke-miterlimit="10" stroke-linejoin="miter" fill="none" stroke="#000080" d="M 135.1395 29.34438 L 135.1395 78.10677 "/>
<path transform="matrix(0,-1,-1,-0,135.1395,83.285228)" d="M 2.59026 0 L -1.55415 2.0722 L 0 0 L -1.55415 -2.0722 " fill="#000080"/>
<path transform="matrix(1,0,0,-1,0,161.392)" stroke-width="1" stroke-linecap="butt" stroke-miterlimit="10" stroke-linejoin="miter" fill="none" stroke="#000080" d="M 152.03194 29.34438 L 152.03194 78.10677 "/>
<path transform="matrix(0,-1,-1,-0,152.03194,83.285228)" d="M 2.59026 0 L -1.55415 2.0722 L 0 0 L -1.55415 -2.0722 " fill="#000080"/>
<path transform="matrix(1,0,0,-1,0,161.392)" stroke-width="1" stroke-linecap="butt" stroke-miterlimit="10" stroke-linejoin="miter" fill="none" stroke="#000080" d="M 168.92438 29.34438 L 168.92438 78.10677 "/>
<path transform="matrix(0,-1,-1,-0,168.92438,83.285228)" d="M 2.59026 0 L -1.55415 2.0722 L 0 0 L -1.55415 -2.0722 " fill="#000080"/>
<path transform="matrix(1,0,0,-1,0,161.392)" stroke-width="1" stroke-linecap="butt" stroke-miterlimit="10" stroke-linejoin="miter" fill="none" stroke="#000080" d="M 33.78487 0 L 33.78487 20.88522 "/>
<path transform="matrix(0,-1,-1,-0,33.78487,140.50678)" d="M 2.59026 0 L -1.55415 2.0722 L 0 0 L -1.55415 -2.0722 " fill="#000080"/>
<path transform="matrix(1,0,0,-1,0,161.392)" stroke-width="1" stroke-linecap="butt" stroke-miterlimit="10" stroke-linejoin="miter" fill="none" stroke="#000080" d="M 50.6773 0 L 50.6773 20.88522 "/>
<path transform="matrix(0,-1,-1,-0,50.6773,140.50678)" d="M 2.59026 0 L -1.55415 2.0722 L 0 0 L -1.55415 -2.0722 " fill="#000080"/>
<path transform="matrix(1,0,0,-1,0,161.392)" stroke-width="1" stroke-linecap="butt" stroke-miterlimit="10" stroke-linejoin="miter" fill="none" stroke="#000080" d="M 67.56975 0 L 67.56975 20.88522 "/>
<path transform="matrix(0,-1,-1,-0,67.56975,140.50678)" d="M 2.59026 0 L -1.55415 2.0722 L 0 0 L -1.55415 -2.0722 " fill="#000080"/>
<path transform="matrix(1,0,0,-1,0,161.392)" stroke-width="1" stroke-linecap="butt" stroke-miterlimit="10" stroke-linejoin="miter" fill="none" stroke="#000080" d="M 84.46219 0 L 84.46219 20.88522 "/>
<path transform="matrix(0,-1,-1,-0,84.46219,140.50678)" d="M 2.59026 0 L -1.55415 2.0722 L 0 0 L -1.55415 -2.0722 " fill="#000080"/>
<path transform="matrix(1,0,0,-1,0,161.392)" stroke-width="1" stroke-linecap="butt" stroke-miterlimit="10" stroke-linejoin="miter" fill="none" stroke="#000080" d="M 101.35463 0 L 101.35463 20.88522 "/>
<path transform="matrix(0,-1,-1,-0,101.35463,140.50678)" d="M 2.59026 0 L -1.55415 2.0722 L 0 0 L -1.55415 -2.0722 " fill="#000080"/>
<path transform="matrix(1,0,0,-1,0,161.392)" stroke-width="1" stroke-linecap="butt" stroke-miterlimit="10" stroke-linejoin="miter" fill="none" stroke="#000080" d="M 118.24706 0 L 118.24706 20.88522 "/>
<path transform="matrix(0,-1,-1,-0,118.24706,140.50678)" d="M 2.59026 0 L -1.55415 2.0722 L 0 0 L -1.55415 -2.0722 " fill="#000080"/>
<path transform="matrix(1,0,0,-1,0,161.392)" stroke-width="1" stroke-linecap="butt" stroke-miterlimit="10" stroke-linejoin="miter" fill="none" stroke="#000080" d="M 135.1395 0 L 135.1395 20.88522 "/>
<path transform="matrix(0,-1,-1,-0,135.1395,140.50678)" d="M 2.59026 0 L -1.55415 2.0722 L 0 0 L -1.55415 -2.0722 " fill="#000080"/>
<path transform="matrix(1,0,0,-1,0,161.392)" stroke-width="1" stroke-linecap="butt" stroke-miterlimit="10" stroke-linejoin="miter" fill="none" stroke="#000080" d="M 152.03194 0 L 152.03194 20.88522 "/>
<path transform="matrix(0,-1,-1,-0,152.03194,140.50678)" d="M 2.59026 0 L -1.55415 2.0722 L 0 0 L -1.55415 -2.0722 " fill="#000080"/>
<path transform="matrix(1,0,0,-1,0,161.392)" stroke-width="1" stroke-linecap="butt" stroke-miterlimit="10" stroke-linejoin="miter" fill="none" stroke="#000080" d="M 168.92438 0 L 168.92438 20.88522 "/>
<path transform="matrix(0,-1,-1,-0,168.92438,140.50678)" d="M 2.59026 0 L -1.55415 2.0722 L 0 0 L -1.55415 -2.0722 " fill="#000080"/>
<path transform="matrix(1,0,0,-1,0,161.392)" stroke-width="1.59404" stroke-linecap="butt" stroke-miterlimit="10" stroke-linejoin="miter" fill="none" stroke="#800000" d="M 50.6773 137.91858 L 160.47815 137.91858 "/>
<path transform="matrix(1,0,0,-1,0,161.392)" stroke-width="1.59404" stroke-linecap="butt" stroke-miterlimit="10" stroke-linejoin="miter" fill="none" stroke="#008000" d="M 160.47815 137.91858 L 160.47815 14.67218 "/>
<path transform="matrix(1,0,0,-1,0,161.392)" stroke-width="1.59404" stroke-linecap="butt" stroke-miterlimit="10" stroke-linejoin="miter" fill="none" stroke="#cc6600" d="M 160.47815 14.67218 L 50.6773 14.67218 "/>
<path transform="matrix(1,0,0,-1,0,161.392)" stroke-width="1.59404" stroke-linecap="butt" stroke-miterlimit="10" stroke-linejoin="miter" fill="none" stroke="#800000" d="M 50.6773 137.91858 L 97.5688 137.91858 "/>
<path transform="matrix(1,0,0,-1,97.5688,23.47342)" d="M 3.78581 0 L -2.27148 3.02866 L 0 0 L -2.27148 -3.02866 " fill="#800000"/>
<path transform="matrix(1,0,0,-1,0,161.392)" stroke-width="1.59404" stroke-linecap="butt" stroke-miterlimit="10" stroke-linejoin="miter" fill="none" stroke="#008000" d="M 160.47815 137.91858 L 160.47815 91.81895 "/>
<path transform="matrix(0,1,1,0,160.47815,69.57305)" d="M 3.78581 0 L -2.27148 3.02866 L 0 0 L -2.27148 -3.02866 " fill="#008000"/>
<path transform="matrix(1,0,0,-1,0,161.392)" stroke-width="1.59404" stroke-linecap="butt" stroke-miterlimit="10" stroke-linejoin="miter" fill="none" stroke="#cc6600" d="M 160.47815 14.67218 L 105.14044 14.67218 "/>
<path transform="matrix(-1,0,0,1,105.14044,146.71982)" d="M 3.78581 0 L -2.27148 3.02866 L 0 0 L -2.27148 -3.02866 " fill="#cc6600"/>
<symbol id="font_1_1">
<path d="M .72300007 .70000007 C .726 .7120001 .726 .71400007 .726 .716 C .726 .71700009 .725 .72700008 .71400007 .72700008 C .70800009 .72700008 .70500007 .72400006 .698 .716 L .637 .64900007 C .633 .64400008 .629 .64000007 .628 .64000007 C .62700006 .64000007 .62600007 .64100006 .62 .64800009 C .605 .66800007 .56 .72700008 .45600004 .72700008 C .22700003 .72700008 0 .505 0 .27700005 C 0 .11400001 .119 0 .28000004 0 C .38400004 0 .46600003 .054000006 .50500008 .089 C .596 .17 .61300006 .25800003 .61300006 .26200003 C .61300006 .26600004 .61100009 .27300004 .59900006 .27300004 C .58800008 .27300004 .586 .26700003 .58500006 .263 C .536 .102000009 .39300005 .031000004 .293 .031000004 C .19600001 .031000004 .09300001 .09 .09300001 .24100001 C .09300001 .286 .10800001 .44400005 .20900002 .56700006 C .26900003 .63900008 .367 .69600006 .463 .69600006 C .574 .69600006 .633 .61100009 .633 .50100007 C .633 .46700005 .63000008 .46000005 .63000008 .45200003 C .63000008 .44100005 .642 .44100005 .64500007 .44100005 C .65800008 .44100005 .65800008 .44300006 .66300007 .46200005 L .72300007 .70000007 Z "/>
</symbol>
<use xlink:href="#font_1_1" transform="matrix(8.9664,0,0,-8.9664,87.81128,19.405253)" fill="#800000"/>
<symbol id="font_2_1">
<path d="M .23800002 .63500007 C .23800002 .665 .23400001 .665 .20400001 .665 C .138 .601 .036 .601 0 .601 L 0 .56200006 C .025999994 .56200006 .09200001 .56200006 .152 .59000006 L .152 .085 C .152 .052 .152 .039 .048999996 .039 L .0059999974 .039 L .0059999974 0 C .061000006 .004 .13900002 .004 .19500001 .004 C .251 .004 .329 .004 .384 0 L .384 .039 L .34100003 .039 C .23800002 .039 .23800002 .052 .23800002 .085 L .23800002 .63500007 Z "/>
</symbol>
<use xlink:href="#font_2_1" transform="matrix(5.9776,0,0,-5.9776,94.65529,20.203995)" fill="#800000"/>
<use xlink:href="#font_1_1" transform="matrix(8.9664,0,0,-8.9664,138.8653,69.29025)" fill="#008000"/>
<symbol id="font_2_2">
<path d="M .46600006 .187 L .42900006 .187 C .42700003 .17300001 .41700004 .10700001 .40200005 .096 C .395 .09 .314 .09 .3 .09 L .113 .09 L .24100003 .194 C .275 .22100002 .36400003 .28500004 .395 .31500004 C .425 .34500004 .46600006 .39600004 .46600006 .467 C .46600006 .592 .35300002 .665 .21900001 .665 C .089999999 .665 0 .58000007 0 .48600004 C 0 .43500004 .042999999 .42900003 .053999999 .42900003 C .079 .42900003 .108 .44700004 .108 .483 C .108 .505 .095000009 .537 .051 .537 C .07400001 .588 .13500002 .62600007 .20400003 .62600007 C .30900003 .62600007 .365 .54800006 .365 .467 C .365 .39600004 .31800003 .323 .24800003 .259 L .011 .042000005 C .001000002 .032 0 .031000002 0 0 L .43500004 0 L .46600006 .187 Z "/>
</symbol>
<use xlink:href="#font_2_2" transform="matrix(5.9776,0,0,-5.9776,145.4164,70.089)" fill="#008000"/>
<use xlink:href="#font_1_1" transform="matrix(8.9664,0,0,-8.9664,87.81128,136.78127)" fill="#cc6600"/>
<symbol id="font_2_3">
<path d="M .231 .35300002 C .316 .35300002 .37300004 .296 .37300004 .194 C .37300004 .08400001 .307 .036000004 .23400003 .036000004 C .20700002 .036000004 .10400001 .042000005 .059000009 .10000001 C .09800001 .104 .114 .13000001 .114 .157 C .114 .191 .09000001 .214 .057000005 .214 C .030000002 .214 0 .19700001 0 .155 C 0 .056 .11000001 0 .23700002 0 C .38500003 0 .48400007 .095 .48400007 .194 C .48400007 .26700003 .42800004 .344 .30900003 .374 C .38800005 .4 .45200006 .46400003 .45200006 .54600009 C .45200006 .62600007 .35800005 .68600007 .23800004 .68600007 C .121000017 .68600007 .032000007 .632 .032000007 .5500001 C .032000007 .507 .065000008 .49500004 .085 .49500004 C .11100001 .49500004 .13800001 .513 .13800001 .54800006 C .13800001 .57900008 .116000007 .59700009 .08900001 .6010001 C .136 .65300008 .22700003 .65300008 .23600003 .65300008 C .28700004 .65300008 .35100005 .62900009 .35100005 .54600009 C .35100005 .49100004 .32000003 .395 .22000003 .38900004 C .20200002 .388 .17500001 .386 .16600001 .386 C .15600002 .38500003 .14500001 .384 .14500001 .36900003 C .14500001 .35300002 .15600002 .35300002 .17300001 .35300002 L .231 .35300002 Z "/>
</symbol>
<use xlink:href="#font_2_3" transform="matrix(5.9776,0,0,-5.9776,94.308589,137.70554)" fill="#cc6600"/>
</g>
</svg>
