<?xml version="1.0" encoding="UTF-8" standalone="no"?>
<!DOCTYPE svg PUBLIC "-//W3C//DTD SVG 1.1//EN" "http://www.w3.org/Graphics/SVG/1.1/DTD/svg11.dtd">
<svg xmlns="http://www.w3.org/2000/svg" xmlns:xlink="http://www.w3.org/1999/xlink" version="1.1" width="231.416pt" height="27.464pt" viewBox="0 0 231.416 27.464">
<symbol id="font_0_1">
<path d="M .205 .64000007 C .205 .66400006 .205 .666 .18200003 .666 C .120000008 .60200008 .032000007 .60200008 0 .60200008 L 0 .57100006 C .020000004 .57100006 .07900001 .57100006 .13100001 .597 L .13100001 .079 C .13100001 .043 .128 .031000002 .038000004 .031000002 L .0060000049 .031000002 L .0060000049 0 C .04100001 .003 .128 .003 .168 .003 C .20800002 .003 .29500003 .003 .33000005 0 L .33000005 .031000002 L .29800005 .031000002 C .20800002 .031000002 .205 .042000005 .205 .079 L .205 .64000007 Z "/>
</symbol>
<symbol id="font_0_5">
<path d="M .42000003 .63100007 C .42900003 .64300009 .42900003 .64500007 .42900003 .66600009 L .18600002 .66600009 C .064 .66600009 .062000008 .679 .058000007 .6980001 L .033 .6980001 L 0 .49200005 L .024999999 .49200005 C .028000005 .508 .037 .57100006 .050000006 .58300009 C .057000005 .58900007 .13500002 .58900007 .148 .58900007 L .35500003 .58900007 C .344 .573 .26500003 .46400006 .24300003 .43100003 C .153 .29600004 .12000001 .157 .12000001 .055 C .12000001 .045 .12000001 0 .16600001 0 C .21200001 0 .21200001 .045 .21200001 .055 L .21200001 .106000009 C .21200001 .16100002 .21500004 .216 .22300002 .27 C .22700003 .29300005 .24100003 .37900005 .28500004 .44100005 L .42000003 .63100007 Z "/>
</symbol>
<use xlink:href="#font_0_1" transform="matrix(9.9626,0,0,-9.9626,4.2076718,22.206)"/>
<use xlink:href="#font_0_5" transform="matrix(9.9626,0,0,-9.9626,8.860205,22.425177)"/>
<symbol id="font_1_1">
<path d="M .11200001 .21000001 C .102000009 .121 .053000004 .061000006 .0060000049 .019999996 C .0029999987 .017999992 0 .015000001 0 .0109999929 C 0 .004999995 .0050000029 0 .011 0 C .024999999 0 .13500002 .103 .13500002 .22600001 C .13500002 .238 .13500002 .29900003 .084 .29900003 C .046000005 .29900003 .023000002 .26700003 .023000002 .238 C .023000002 .21900001 .035000005 .193 .07 .193 C .08900001 .193 .10500001 .202 .11200001 .21000001 Z "/>
</symbol>
<use xlink:href="#font_1_1" transform="matrix(9.9626,0,0,-9.9626,13.990345,24.12878)"/>
<symbol id="font_0_4">
<path d="M .39900003 .223 C .39900003 .34200005 .317 .44200004 .209 .44200004 C .16100002 .44200004 .118000019 .42600004 .082 .39100004 L .082 .586 C .10200001 .58000007 .135 .573 .16700001 .573 C .29 .573 .36 .66400006 .36 .67700007 C .36 .683 .357 .688 .35 .688 C .349 .688 .347 .688 .342 .68500009 C .322 .67600008 .273 .656 .20600002 .656 C .16600001 .656 .120000008 .66300007 .073 .6840001 C .065 .68700006 .06300001 .68700006 .061000009 .68700006 C .051000004 .68700006 .051000004 .679 .051000004 .66300007 L .051000004 .36700005 C .051000004 .34900005 .051000004 .34100003 .065 .34100003 C .07200001 .34100003 .074 .34400005 .07800001 .35000003 C .08900002 .36600004 .12600002 .42000006 .207 .42000006 C .259 .42000006 .284 .37400005 .292 .35600005 C .308 .31900005 .31 .28000004 .31 .23 C .31 .19500001 .31 .135 .286 .093 C .262 .054000006 .22500001 .028 .17900002 .028 C .106000009 .028 .049000008 .08100001 .032 .14000002 C .035 .13900002 .038000008 .13800001 .049000008 .13800001 C .082 .13800001 .09900001 .163 .09900001 .187 C .09900001 .21100001 .082 .23600002 .049000008 .23600002 C .035 .23600002 0 .22900002 0 .18300002 C 0 .097 .069000009 0 .18100001 0 C .297 0 .39900003 .096 .39900003 .223 Z "/>
</symbol>
<use xlink:href="#font_0_1" transform="matrix(9.9626,0,0,-9.9626,46.726675,22.206)"/>
<use xlink:href="#font_0_4" transform="matrix(9.9626,0,0,-9.9626,51.31943,22.425177)"/>
<use xlink:href="#font_1_1" transform="matrix(9.9626,0,0,-9.9626,56.510347,24.12878)"/>
<symbol id="font_0_3">
<path d="M .24800003 .37400005 C .33 .40100003 .388 .47100006 .388 .55 C .388 .632 .3 .688 .204 .688 C .10300001 .688 .027000003 .628 .027000003 .55200007 C .027000003 .519 .049000004 .5 .078 .5 C .109000008 .5 .12900001 .522 .12900001 .55100008 C .12900001 .6010001 .082 .6010001 .067 .6010001 C .098 .65000006 .164 .66300007 .20000002 .66300007 C .24100003 .66300007 .29600004 .64100006 .29600004 .55100008 C .29600004 .53900006 .29400004 .48100005 .268 .43700005 C .238 .38900004 .204 .38600005 .17900002 .38500003 C .171 .38400004 .14700002 .38200004 .14000002 .38200004 C .132 .38100005 .125 .38000003 .125 .37000004 C .125 .35900004 .132 .35900004 .14900002 .35900004 L .19300002 .35900004 C .275 .35900004 .312 .29100005 .312 .193 C .312 .057000005 .24300003 .028 .199 .028 C .15600002 .028 .081 .045 .046000005 .104 C .081 .09900001 .11200001 .12100001 .11200001 .15900001 C .11200001 .19500001 .085 .215 .056 .215 C .031999999 .215 0 .201 0 .157 C 0 .06600001 .093 0 .20200002 0 C .32400004 0 .41500003 .091000009 .41500003 .193 C .41500003 .27500005 .35200004 .35300005 .24800003 .37400005 Z "/>
</symbol>
<use xlink:href="#font_0_1" transform="matrix(9.9626,0,0,-9.9626,89.24667,22.206)"/>
<use xlink:href="#font_0_3" transform="matrix(9.9626,0,0,-9.9626,93.75973,22.425177)"/>
<use xlink:href="#font_1_1" transform="matrix(9.9626,0,0,-9.9626,99.03034,24.12878)"/>
<use xlink:href="#font_0_1" transform="matrix(9.9626,0,0,-9.9626,131.76668,22.206)"/>
<use xlink:href="#font_0_1" transform="matrix(9.9626,0,0,-9.9626,136.74797,22.206)"/>
<use xlink:href="#font_1_1" transform="matrix(9.9626,0,0,-9.9626,141.54936,24.12878)"/>
<symbol id="font_0_6">
<path d="M .32500003 .34000004 L .32500003 .30800004 C .32500003 .074 .22100002 .028 .16300002 .028 C .146 .028 .092 .030000002 .065000008 .064 C .109000008 .064 .117000009 .093 .117000009 .11000001 C .117000009 .141 .093 .156 .071 .156 C .055 .156 .024999999 .147 .024999999 .108 C .024999999 .041 .079 0 .164 0 C .293 0 .41500003 .136 .41500003 .35100005 C .41500003 .62000009 .3 .688 .21100003 .688 C .15600002 .688 .107 .67 .064 .62500008 C .023000002 .58000007 0 .53800007 0 .46300004 C 0 .33800004 .08800001 .24000001 .20000002 .24000001 C .261 .24000001 .30200003 .28200004 .32500003 .34000004 M .201 .263 C .185 .263 .139 .263 .108 .32600004 C .089999999 .36300005 .089999999 .41300006 .089999999 .46200005 C .089999999 .51600006 .089999999 .563 .11100001 .6 C .13800001 .65000006 .176 .66300007 .21100003 .66300007 C .25700004 .66300007 .29000003 .62900009 .307 .58400008 C .31900005 .55200007 .323 .48900003 .323 .44300006 C .323 .36000005 .28900004 .263 .201 .263 Z "/>
</symbol>
<use xlink:href="#font_0_6" transform="matrix(9.9626,0,0,-9.9626,176.30843,22.425177)"/>
<use xlink:href="#font_1_1" transform="matrix(9.9626,0,0,-9.9626,181.57836,24.12878)"/>
<symbol id="font_2_1">
<path d="M .106 .053000004 C .106 .082 .08200001 .106000009 .05300001 .106000009 C .024000004 .106000009 0 .082 0 .053000004 C 0 .024 .024000004 0 .05300001 0 C .08200001 0 .106 .024 .106 .053000004 Z "/>
</symbol>
<use xlink:href="#font_2_1" transform="matrix(9.9626,0,0,-9.9626,217.32878,20.491002)"/>
<use xlink:href="#font_2_1" transform="matrix(9.9626,0,0,-9.9626,221.76215,20.491002)"/>
<use xlink:href="#font_2_1" transform="matrix(9.9626,0,0,-9.9626,226.18555,20.491002)"/>
<path transform="matrix(1,0,0,-1,9.686,19.965)" stroke-width="1" stroke-linecap="butt" stroke-miterlimit="10" stroke-linejoin="miter" fill="none" stroke="#000000" d="M 9.88493 3.59763 C 18.22183 6.63203 24.29839 6.63203 30.76054 4.28 "/>
<path transform="matrix(.94089,.34247,.34247,-.94089,40.44654,15.684999)" d="M 1.99252 0 L -1.19551 1.59401 L 0 0 L -1.19551 -1.59401 "/>
<symbol id="font_3_1">
<path d="M .57600006 0 C .59300008 0 .611 0 .611 .019999996 C .611 .040000008 .59300008 .040000008 .57600006 .040000008 L .035000005 .040000008 C .018 .040000008 0 .040000008 0 .019999996 C 0 0 .018 0 .035000005 0 L .57600006 0 Z "/>
</symbol>
<use xlink:href="#font_3_1" transform="matrix(9.9626,0,0,-9.9626,25.406897,7.449603)"/>
<symbol id="font_0_2">
<path d="M .07700001 .07700001 L .18300002 .18 C .33900003 .31800003 .39900003 .372 .39900003 .47200004 C .39900003 .586 .30900003 .666 .18700002 .666 C .074 .666 0 .574 0 .485 C 0 .42900003 .05 .42900003 .053000008 .42900003 C .07000001 .42900003 .105000007 .441 .105000007 .48200003 C .105000007 .508 .08700001 .53400006 .052000006 .53400006 C .044000005 .53400006 .042000008 .53400006 .039 .53300008 C .062000004 .59800007 .11600001 .63500007 .17400001 .63500007 C .26500003 .63500007 .308 .554 .308 .47200004 C .308 .39200003 .25800003 .31300003 .20300003 .25100003 L .011000004 .037 C 0 .026 0 .024 0 0 L .37100003 0 L .39900003 .17400001 L .374 .17400001 C .36900003 .14400001 .36200003 .1 .352 .085 C .345 .07700001 .279 .07700001 .257 .07700001 L .07700001 .07700001 Z "/>
</symbol>
<use xlink:href="#font_0_2" transform="matrix(9.9626,0,0,-9.9626,32.82713,9.741001)"/>
<path transform="matrix(1,0,0,-1,9.686,19.965)" stroke-width="1" stroke-linecap="butt" stroke-miterlimit="10" stroke-linejoin="miter" fill="none" stroke="#000000" d="M 52.40515 3.59763 C 60.74205 6.63203 66.8186 6.63203 73.28076 4.28 "/>
<path transform="matrix(.94089,.34247,.34247,-.94089,82.96676,15.684999)" d="M 1.99252 0 L -1.19551 1.59401 L 0 0 L -1.19551 -1.59401 "/>
<use xlink:href="#font_3_1" transform="matrix(9.9626,0,0,-9.9626,67.926898,7.449603)"/>
<use xlink:href="#font_0_2" transform="matrix(9.9626,0,0,-9.9626,75.34713,9.741001)"/>
<path transform="matrix(1,0,0,-1,9.686,19.965)" stroke-width="1" stroke-linecap="butt" stroke-miterlimit="10" stroke-linejoin="miter" fill="none" stroke="#000000" d="M 94.92537 3.59763 C 103.26227 6.63203 109.33882 6.63203 115.80098 4.28 "/>
<path transform="matrix(.94089,.34247,.34247,-.94089,125.48698,15.684999)" d="M 1.99252 0 L -1.19551 1.59401 L 0 0 L -1.19551 -1.59401 "/>
<use xlink:href="#font_3_1" transform="matrix(9.9626,0,0,-9.9626,110.44689,7.449603)"/>
<use xlink:href="#font_0_2" transform="matrix(9.9626,0,0,-9.9626,117.86613,9.741001)"/>
<path transform="matrix(1,0,0,-1,9.686,19.965)" stroke-width="1" stroke-linecap="butt" stroke-miterlimit="10" stroke-linejoin="miter" fill="none" stroke="#000000" d="M 137.44559 3.59763 C 146.84848 6.6428 153.52623 6.40251 160.83663 3.44064 "/>
<path transform="matrix(.92848,.37616,.37616,-.92848,170.52263,16.52434)" d="M 1.99252 0 L -1.19551 1.59401 L 0 0 L -1.19551 -1.59401 "/>
<use xlink:href="#font_3_1" transform="matrix(9.9626,0,0,-9.9626,154.30289,7.645602)"/>
<use xlink:href="#font_0_2" transform="matrix(9.9626,0,0,-9.9626,161.72212,9.937)"/>
<path transform="matrix(1,0,0,-1,9.686,19.965)" stroke-width="1" stroke-linecap="butt" stroke-miterlimit="10" stroke-linejoin="miter" fill="none" stroke="#000000" d="M 177.47513 2.69113 C 186.86833 6.40352 193.68784 6.5902 201.37755 4.02689 "/>
<path transform="matrix(.94963,.31654,.31654,-.94963,211.06356,15.93811)" d="M 1.99252 0 L -1.19551 1.59401 L 0 0 L -1.19551 -1.59401 "/>
<use xlink:href="#font_3_1" transform="matrix(9.9626,0,0,-9.9626,194.4469,7.689603)"/>
<use xlink:href="#font_0_2" transform="matrix(9.9626,0,0,-9.9626,201.86713,9.981001)"/>
</svg>
