<?xml version="1.0" encoding="UTF-8" standalone="no"?>
<!DOCTYPE svg PUBLIC "-//W3C//DTD SVG 1.1//EN" "http://www.w3.org/Graphics/SVG/1.1/DTD/svg11.dtd">
<svg xmlns="http://www.w3.org/2000/svg" xmlns:xlink="http://www.w3.org/1999/xlink" version="1.1" width="205.409pt" height="171.818pt" viewBox="0 0 205.409 171.818">
<path transform="matrix(1,0,0,-1,.199,171.61899)" stroke-width="1" stroke-linecap="butt" stroke-miterlimit="10" stroke-linejoin="miter" fill="none" stroke="#808080" d="M 62.40895 78.57133 L 62.40895 82.82347 M 100.53426 78.57133 L 100.53426 82.82347 M 138.70813 78.57133 L 138.70813 82.82347 M 176.7849 78.57133 L 176.7849 82.82347 "/>
<path transform="matrix(1,0,0,-1,.199,171.61899)" stroke-width="1" stroke-linecap="butt" stroke-miterlimit="10" stroke-linejoin="miter" fill="none" stroke="#808080" d="M 22.15775 26.89914 L 26.4095 26.89914 M 22.15775 134.4957 L 26.4095 134.4957 "/>
<path transform="matrix(1,0,0,-1,.199,171.61899)" stroke-width="1" stroke-linecap="butt" stroke-miterlimit="10" stroke-linejoin="miter" fill="none" stroke="#000000" d="M 0 80.69742 L 192.2766 80.69742 "/>
<path transform="matrix(1,0,0,-1,192.4756,90.92157)" d="M 1.99252 0 L -1.19551 1.59401 L 0 0 L -1.19551 -1.59401 "/>
<path transform="matrix(1,0,0,-1,.199,171.61899)" stroke-width="1" stroke-linecap="butt" stroke-miterlimit="10" stroke-linejoin="miter" fill="none" stroke="#000000" d="M 24.28363 0 L 24.28363 159.40232 "/>
<path transform="matrix(0,-1,-1,-0,24.48263,12.216675)" d="M 1.99252 0 L -1.19551 1.59401 L 0 0 L -1.19551 -1.59401 "/>
<symbol id="font_0_2">
<path d="M .246 .38000003 L .36 .38000003 C .345 .31700004 .319 .21300002 .319 .13000001 C .319 .123 .319 .086 .328 .05 C .338 .012000001 .347 0 .367 0 C .388 0 .41 .018000002 .41 .041 C .41 .048 .409 .051000004 .403 .064 C .372 .134 .372 .20800002 .372 .23100002 C .372 .256 .372 .3 .389 .38000003 L .50600007 .38000003 C .519 .38000003 .556 .38000003 .556 .41600005 C .556 .44200004 .53400006 .44200004 .51500007 .44200004 L .16900002 .44200004 C .14500001 .44200004 .11000001 .44200004 .063 .395 C .036 .36800004 0 .31300003 0 .305 C 0 .29400004 .011000002 .29400004 .014 .29400004 C .022000002 .29400004 .024000003 .29600004 .030000003 .30600003 C .079 .38000003 .14000002 .38000003 .16000001 .38000003 L .21700002 .38000003 C .17400001 .22900002 .105 .087000008 .098 .072000008 C .091000009 .058000003 .081 .037 .081 .029000003 C .081 .016 .09 0 .11200001 0 C .14800002 0 .15700002 .036000004 .17800002 .117000009 L .246 .38000003 Z "/>
</symbol>
<use xlink:href="#font_0_2" transform="matrix(8.9664,0,0,-8.9664,60.051095,100.278629)"/>
<path transform="matrix(1,0,0,-1,59.809003,103.73699)" stroke-width="1" stroke-linecap="butt" stroke-miterlimit="10" stroke-linejoin="miter" fill="none" stroke="#000000" d="M 0 0 L 5.596 0 "/>
<symbol id="font_1_4">
<path d="M 0 .19600001 L 0 .165 L .273 .165 L .273 .079 C .273 .042000005 .27 .031000002 .19500001 .031000002 L .17300001 .031000002 L .17300001 0 C .23600002 .003 .306 .003 .313 .003 C .318 .003 .39000003 .003 .453 0 L .453 .031000002 L .431 .031000002 C .356 .031000002 .35300002 .042000005 .35300002 .079 L .35300002 .165 L .455 .165 L .455 .19600001 L .35300002 .19600001 L .35300002 .65000006 C .35300002 .67 .35300002 .67700007 .334 .67700007 C .322 .67700007 .321 .67600008 .312 .66200008 L 0 .19600001 M .032000007 .19600001 L .279 .56600007 L .279 .19600001 L .032000007 .19600001 Z "/>
</symbol>
<use xlink:href="#font_1_4" transform="matrix(8.9664,0,0,-8.9664,60.56403,112.06)"/>
<use xlink:href="#font_0_2" transform="matrix(8.9664,0,0,-8.9664,98.176097,100.278629)"/>
<path transform="matrix(1,0,0,-1,97.934,103.73699)" stroke-width="1" stroke-linecap="butt" stroke-miterlimit="10" stroke-linejoin="miter" fill="none" stroke="#000000" d="M 0 0 L 5.596 0 "/>
<symbol id="font_1_2">
<path d="M .411 .177 L .38300003 .177 C .381 .164 .37300004 .105000007 .36 .089 C .35400004 .080000009 .28500004 .080000009 .26500003 .080000009 L .08700001 .080000009 L .18600002 .17400001 C .35000003 .316 .411 .36900003 .411 .47100003 C .411 .586 .316 .666 .19300002 .666 C .07800001 .666 0 .57500007 0 .48400004 C 0 .43400003 .043 .42900003 .052000006 .42900003 C .074 .42900003 .104 .44500003 .104 .48100005 C .104 .51100006 .083000008 .53300008 .052000006 .53300008 C .047000003 .53300008 .044000005 .53300008 .040000004 .532 C .063999999 .60300007 .128 .63500007 .18200001 .63500007 C .284 .63500007 .319 .54 .319 .47100003 C .319 .36900003 .24200002 .286 .194 .23400001 L .011 .036000004 C 0 .025 0 .023000002 0 0 L .38300003 0 L .411 .177 Z "/>
</symbol>
<use xlink:href="#font_1_2" transform="matrix(8.9664,0,0,-8.9664,98.885288,112.06)"/>
<symbol id="font_1_3">
<path d="M .262 .37400005 C .35500003 .40900005 .39900003 .48200003 .39900003 .55100008 C .39900003 .628 .314 .688 .21000003 .688 C .106000009 .688 .028 .62900009 .028 .55300006 C .028 .52000007 .05 .50100007 .07900001 .50100007 C .10800001 .50100007 .12900001 .522 .12900001 .55100008 C .12900001 .586 .105000007 .6010001 .07100001 .6010001 C .097 .64300009 .158 .66300007 .207 .66300007 C .29 .66300007 .306 .59700009 .306 .55 C .306 .52000007 .3 .47200004 .275 .43400005 C .244 .38900004 .209 .38700003 .18 .38500003 C .15500002 .38300006 .15300001 .38300006 .14500001 .38300006 C .136 .38200004 .128 .38100005 .128 .37000004 C .128 .35700003 .136 .35700003 .15300001 .35700003 L .20000002 .35700003 C .287 .35700003 .32500003 .28700004 .32500003 .192 C .32500003 .064 .257 .028 .20600002 .028 C .187 .028 .09 .033000005 .045000007 .107 C .081 .102000009 .10900001 .127 .10900001 .16100002 C .10900001 .194 .08400001 .215 .055000005 .215 C .030000005 .215 0 .2 0 .158 C 0 .069000009 .09300001 0 .209 0 C .334 0 .42700003 .09 .42700003 .192 C .42700003 .279 .358 .35300005 .262 .37400005 Z "/>
</symbol>
<use xlink:href="#font_1_3" transform="matrix(8.9664,0,0,-8.9664,134.18956,102.29425)"/>
<use xlink:href="#font_0_2" transform="matrix(8.9664,0,0,-8.9664,138.65309,102.195629)"/>
<path transform="matrix(1,0,0,-1,133.804,105.65499)" stroke-width="1" stroke-linecap="butt" stroke-miterlimit="10" stroke-linejoin="miter" fill="none" stroke="#000000" d="M 0 0 L 10.204 0 "/>
<use xlink:href="#font_1_4" transform="matrix(8.9664,0,0,-8.9664,136.86203,113.978)"/>
<use xlink:href="#font_0_2" transform="matrix(8.9664,0,0,-8.9664,174.4261,100.278629)"/>
<symbol id="font_2_1">
<path d="M .589 0 C .607 0 .626 0 .626 .022 C .626 .042999999 .606 .042999999 .589 .042999999 L .037 .042999999 C .020000004 .042999999 0 .042999999 0 .022 C 0 0 .019000002 0 .037 0 L .589 0 Z "/>
</symbol>
<use xlink:href="#font_2_1" transform="matrix(8.9664,0,0,-8.9664,8.08211,145.1407)"/>
<symbol id="font_1_1">
<path d="M .21100003 .63900008 C .21100003 .66400006 .21000001 .666 .18500003 .666 C .123 .60200008 .031000004 .60200008 0 .60200008 L 0 .57100006 C .019000002 .57100006 .080000009 .57100006 .134 .597 L .134 .080000009 C .134 .043 .13100001 .031000002 .03800001 .031000002 L .0060000049 .031000002 L .0060000049 0 C .042000005 .003 .13100001 .003 .17200002 .003 C .21300003 .003 .30300004 .003 .33900003 0 L .33900003 .031000002 L .307 .031000002 C .21400002 .031000002 .21100003 .043 .21100003 .080000009 L .21100003 .63900008 Z "/>
</symbol>
<use xlink:href="#font_1_1" transform="matrix(8.9664,0,0,-8.9664,15.311875,147.194)"/>
<use xlink:href="#font_1_1" transform="matrix(8.9664,0,0,-8.9664,15.311876,40.013994)"/>
<clipPath id="cp3">
<path transform="matrix(1,0,0,-1,.199,171.61899)" d="M 0 0 L 194.26912 0 L 194.26912 161.39484 L 0 161.39484 Z "/>
</clipPath>
<g clip-path="url(#cp3)">
<path transform="matrix(1,0,0,-1,.199,171.61899)" stroke-width="1.19553" stroke-linecap="butt" stroke-miterlimit="10" stroke-linejoin="miter" fill="none" stroke="#000000" d="M 24.28363 80.69742 C 24.28363 80.69742 28.87689 90.88835 30.64104 94.6204 C 32.40518 98.35246 35.2343 104.24927 36.99844 107.59547 C 38.76259 110.9417 41.5917 116.00543 43.35585 118.73763 C 45.12 121.46982 47.94911 125.35532 49.71326 127.28725 C 51.4774 129.21918 54.30652 131.66172 56.07066 132.66172 C 57.83481 133.66172 60.66393 134.49462 62.42807 134.49462 C 64.19221 134.49462 67.02133 133.66156 68.78548 132.66172 C 70.54962 131.66187 73.37875 129.22026 75.1429 127.28833 C 76.90704 125.3564 79.73616 121.46982 81.5003 118.73763 C 83.26445 116.00543 86.09355 110.94261 87.8577 107.59656 C 89.62184 104.25049 92.45096 98.35355 94.2151 94.62149 C 95.97925 90.88943 98.80836 84.56212 100.57251 80.69847 C 102.33665 76.83484 105.16577 70.50706 106.92992 66.77496 C 108.69406 63.04285 111.52316 57.1461 113.28731 53.79988 C 115.05145 50.45367 117.88057 45.38998 119.64471 42.65771 C 121.40886 39.92545 124.23798 36.03957 126.00212 34.10756 C 127.76627 32.17555 130.59539 29.73311 132.35953 28.7331 C 134.12368 27.7331 136.95279 26.90019 138.71694 26.90019 C 140.48108 26.90019 143.31018 27.73325 145.07433 28.7331 C 146.83847 29.73296 149.66759 32.17464 151.43173 34.10648 C 153.19588 36.03833 156.025 39.92459 157.78914 42.65663 C 159.55329 45.38867 162.3824 50.45113 164.14655 53.7972 C 165.91069 57.14325 168.7398 63.04068 170.50395 66.7728 C 172.2681 70.50491 176.86135 80.69579 176.86135 80.69579 "/>
</g>
<symbol id="font_0_1">
<path d="M .425 .50600007 C .425 .609 .391 .716 .299 .716 C .153 .716 0 .43100003 0 .20900002 C 0 .13700001 .022 0 .12600002 0 C .272 0 .425 .28200004 .425 .50600007 M .109000008 .374 C .12900001 .45300005 .15 .526 .19100002 .595 C .215 .635 .252 .691 .298 .691 C .352 .691 .356 .605 .356 .56700006 C .356 .507 .34 .43700005 .32500003 .374 L .109000008 .374 M .316 .34200005 C .3 .279 .28100003 .20400001 .241 .13300002 C .215 .086 .17500001 .025000003 .127 .025000003 C .084 .025000003 .07000001 .077 .07000001 .15000002 C .07000001 .21400002 .086 .279 .101 .34200005 L .316 .34200005 Z "/>
</symbol>
<use xlink:href="#font_0_1" transform="matrix(8.9664,0,0,-8.9664,198.13564,94.12163)"/>
<symbol id="font_0_3">
<path d="M .375 .41600005 C .342 .41000004 .325 .38200004 .325 .36100004 C .325 .34200005 .33900003 .32500003 .364 .32500003 C .391 .32500003 .419 .34800003 .419 .38500003 C .419 .42400003 .38300003 .45300005 .334 .45300005 C .259 .45300005 .21700001 .397 .20300001 .37800003 C .19100002 .43300004 .14600002 .45300005 .10800001 .45300005 C .072000008 .45300005 .049000004 .43100003 .032000007 .39600004 C .013000002 .36 0 .30300004 0 .29900003 C 0 .29000003 .007000001 .28700004 .014 .28700004 C .025 .28700004 .027 .29200004 .032000007 .31200005 C .051000008 .39100004 .072000008 .42800004 .106000009 .42800004 C .136 .42800004 .136 .39600004 .136 .381 C .136 .36 .128 .32900004 .12200001 .30300004 C .11500001 .277 .105000007 .23400001 .10100001 .22200002 L .061000006 .058000003 C .054000006 .034 .054000006 .032 .054000006 .029000003 C .054000006 .016 .06300001 0 .08500001 0 C .11700001 0 .12400001 .027000003 .13100001 .056 C .143 .09900001 .143 .101 .15300001 .14200002 C .19000001 .29200004 .19600001 .316 .19800002 .321 C .20400001 .33300004 .25 .42800004 .333 .42800004 C .356 .42800004 .37 .42000003 .375 .41600005 Z "/>
</symbol>
<use xlink:href="#font_0_3" transform="matrix(8.9664,0,0,-8.9664,22.540024,7.030622)"/>
</svg>
