<?xml version="1.0" encoding="UTF-8" standalone="no"?>
<!DOCTYPE svg PUBLIC "-//W3C//DTD SVG 1.1//EN" "http://www.w3.org/Graphics/SVG/1.1/DTD/svg11.dtd">
<svg xmlns="http://www.w3.org/2000/svg" xmlns:xlink="http://www.w3.org/1999/xlink" version="1.1" width="208.252pt" height="181.43pt" viewBox="0 0 208.252 181.43">
<clipPath id="cp0">
<path transform="matrix(1,0,0,-1,1.419,174.484)" d="M 0 0 L 194.27063 0 L 194.27063 161.39636 L 0 161.39636 Z "/>
</clipPath>
<g clip-path="url(#cp0)">
<path transform="matrix(1,0,0,-1,1.419,174.484)" d="M 80.60164 133.11345 C 80.60164 133.11345 79.99464 133.10718 79.76271 133.10265 C 79.53076 133.09812 79.1605 133.0885 78.92998 133.08072 C 78.69943 133.07295 78.33072 133.05834 78.10106 133.04662 C 77.87138 133.0349 77.50323 133.01195 77.27458 132.9962 C 77.04593 132.98046 76.68053 132.9524 76.45305 132.93302 C 76.22559 132.91362 75.86156 132.87987 75.6351 132.85646 C 75.40863 132.83307 75.04593 132.7916 74.82085 132.76428 C 74.59576 132.73697 74.23624 132.6901 74.01279 132.65949 C 73.78934 132.62886 73.43248 132.57804 73.21027 132.54355 C 72.98807 132.50907 72.63203 132.44931 72.41122 132.41089 C 72.19041 132.37245 71.83781 132.30821 71.61873 132.2665 C 71.39966 132.22478 71.04982 132.1557 70.83223 132.11023 C 70.61464 132.06476 70.26642 131.98772 70.05045 131.93869 C 69.83447 131.88967 69.48944 131.80873 69.2756 131.75685 C 69.06177 131.70496 68.7214 131.62046 68.50928 131.56467 C 68.29715 131.50887 67.95728 131.41432 67.74669 131.3547 C 67.53609 131.2951 67.1997 131.19727 66.99146 131.13497 C 66.7832 131.07266 66.4518 130.97135 66.24571 130.90563 C 66.03964 130.8399 65.71059 130.73069 65.50616 130.66127 C 65.30174 130.59186 64.97452 130.47742 64.77235 130.40526 C 64.57018 130.33309 64.24867 130.2163 64.04895 130.1411 C 63.84923 130.06592 63.5305 129.94184 63.33282 129.86333 C 63.13513 129.78484 62.81944 129.65653 62.62408 129.57526 C 62.42873 129.49399 62.11754 129.36202 61.92468 129.27758 C 61.73184 129.19313 61.42451 129.0541 61.23413 128.96662 C 61.04373 128.87914 60.7403 128.7369 60.55247 128.64713 C 60.36465 128.55736 60.06589 128.41233 59.8804 128.31958 C 59.69493 128.22682 59.39868 128.07448 59.21567 127.97867 C 59.03265 127.88286 58.74149 127.72708 58.56125 127.629 C 58.38101 127.53091 58.09422 127.37236 57.91664 127.27168 C 57.73907 127.171 57.45625 127.00673 57.28136 126.90332 C 57.10645 126.79993 56.82816 126.63213 56.656 126.52635 C 56.48386 126.42058 56.20992 126.24892 56.04062 126.14095 C 55.87134 126.03299 55.60226 125.85852 55.43585 125.74815 C 55.26942 125.63779 55.0049 125.45811 54.84114 125.34541 C 54.67738 125.23271 54.41643 125.05078 54.25558 124.93579 C 54.09473 124.8208 53.83957 124.63383 53.68175 124.51659 C 53.52394 124.39934 53.27298 124.20955 53.11815 124.09071 C 52.96332 123.97188 52.71762 123.78088 52.5658 123.66011 C 52.41396 123.53932 52.17265 123.34315 52.02374 123.22011 C 51.87485 123.09708 51.63837 122.89786 51.49252 122.77321 C 51.3467 122.64854 51.11533 122.44788 50.97263 122.32158 C 50.82993 122.1953 50.60362 121.99121 50.46399 121.86295 C 50.32436 121.73466 50.10274 121.5268 49.96625 121.39706 C 49.82977 121.26733 49.6136 121.05904 49.48024 120.92783 C 49.3469 120.79662 49.13524 120.58421 49.00514 120.45139 C 48.87503 120.31854 48.66951 120.10457 48.5425 119.97037 C 48.41548 119.83617 48.21365 119.61977 48.08961 119.48409 C 47.96556 119.34842 47.76917 119.12946 47.64842 118.99243 C 47.52766 118.8554 47.33673 118.6344 47.21927 118.49637 C 47.1018 118.35835 46.916 118.13666 46.80176 117.9976 C 46.68752 117.85857 46.5068 117.63423 46.39584 117.4941 C 46.28487 117.35394 46.1096 117.12852 46.00183 116.9875 C 45.89406 116.84647 45.7237 116.61955 45.61903 116.47757 C 45.51436 116.33559 45.3488 116.10718 45.24742 115.96414 C 45.14604 115.82109 44.98636 115.59033 44.88824 115.44652 C 44.79013 115.3027 44.63506 115.07175 44.54018 114.92755 C 44.4453 114.78337 44.29594 114.55214 44.20438 114.40726 C 44.11282 114.26236 43.96857 114.02878 43.88019 113.88327 C 43.7918 113.73776 43.65256 113.50452 43.56726 113.35847 C 43.48196 113.21242 43.34732 112.97714 43.26534 112.83063 C 43.18335 112.68411 43.05505 112.44914 42.97638 112.30244 C 42.8977 112.15575 42.77386 111.92018 42.69826 111.77322 C 42.62267 111.62627 42.50381 111.39037 42.43144 111.24326 C 42.35905 111.09615 42.24567 110.86015 42.17651 110.71295 C 42.10736 110.56575 41.999 110.32971 41.93292 110.18231 C 41.86684 110.0349 41.7631 109.79787 41.70016 109.65045 C 41.6372 109.50304 41.539 109.2671 41.4792 109.11978 C 41.41939 108.97246 41.32584 108.73578 41.26912 108.58862 C 41.2124 108.44147 41.124 108.20601 41.07039 108.05919 C 41.01678 107.91235 40.93326 107.67702 40.88269 107.53033 C 40.8321 107.38365 40.75334 107.14816 40.70576 107.00189 C 40.6582 106.85564 40.58435 106.62202 40.53983 106.47617 C 40.4953 106.3303 40.42632 106.09608 40.38475 105.95056 C 40.34319 105.80504 40.27887 105.57213 40.24023 105.42728 C 40.20161 105.28244 40.14198 105.0508 40.10632 104.90659 C 40.07066 104.76236 40.01591 104.53151 39.9831 104.3878 C 39.95027 104.24408 39.89973 104.01363 39.86972 103.87064 C 39.8397 103.72765 39.79391 103.49942 39.76677 103.3572 C 39.73962 103.21497 39.69833 102.98691 39.67397 102.84552 C 39.6496 102.70415 39.61276 102.4786 39.59111 102.33821 C 39.56946 102.1978 39.53685 101.97324 39.5179 101.83351 C 39.49895 101.69379 39.47072 101.46982 39.45445 101.33116 C 39.43819 101.1925 39.41423 100.97171 39.40057 100.83409 C 39.3869 100.69647 39.36697 100.4757 39.35591 100.3392 C 39.34483 100.20273 39.32924 99.98564 39.32072 99.85037 C 39.31221 99.7151 39.3005 99.49852 39.29446 99.36421 C 39.2884 99.2299 39.28067 99.01521 39.27708 98.88231 C 39.2735 98.7494 39.26971 98.53783 39.26852 98.40623 C 39.26733 98.27463 39.26735 98.06407 39.26851 97.93375 C 39.26967 97.80342 39.27345 97.59575 39.2769 97.46687 C 39.28035 97.33798 39.28775 97.13234 39.29347 97.0048 C 39.2992 96.87727 39.31021 96.67386 39.31815 96.54771 C 39.32608 96.42157 39.34067 96.22014 39.35074 96.0956 C 39.36082 95.97104 39.37868 95.77296 39.39085 95.65001 C 39.40303 95.52705 39.42427 95.33084 39.43852 95.20937 C 39.45276 95.08788 39.47731 94.89436 39.49356 94.77446 C 39.50981 94.65456 39.53746 94.4634 39.55565 94.34515 C 39.57382 94.22691 39.60455 94.03879 39.62465 93.92221 C 39.64474 93.80562 39.67863 93.61963 39.70053 93.50482 C 39.72244 93.39001 39.75887 93.20773 39.78253 93.0947 C 39.8062 92.98164 39.8457 92.80144 39.87114 92.6901 C 39.89656 92.57874 39.93883 92.40155 39.9659 92.29202 C 39.99298 92.1825 40.03763 92.00833 40.0663 91.90057 C 40.09497 91.79282 40.14232 91.6213 40.17259 91.51541 C 40.20285 91.40952 40.25275 91.24126 40.28447 91.13731 C 40.31621 91.03336 40.36815 90.86818 40.40126 90.76611 C 40.43437 90.66405 40.48866 90.5018 40.52321 90.40161 C 40.55774 90.30144 40.61436 90.14229 40.65019 90.04405 C 40.68602 89.94582 40.74446 89.7899 40.78154 89.69359 C 40.81862 89.59729 40.87918 89.44427 40.91751 89.34987 C 40.95586 89.25546 41.01851 89.10553 41.05797 89.01309 C 41.09743 88.92067 41.16156 88.77402 41.20201 88.68364 C 41.24246 88.59326 41.30809 88.45001 41.3496 88.36166 C 41.39111 88.2733 41.45882 88.13312 41.50124 88.04681 C 41.54367 87.96051 41.61218 87.82388 41.65546 87.73956 C 41.69872 87.65524 41.76894 87.52142 41.81316 87.43906 C 41.85738 87.35667 41.92924 87.22607 41.97423 87.14575 C 42.0192 87.06544 42.09177 86.93846 42.13739 86.86018 C 42.183 86.78192 42.25673 86.6578 42.30307 86.58153 C 42.34941 86.50523 42.42442 86.38455 42.47136 86.31032 C 42.51828 86.23608 42.59393 86.11864 42.64133 86.04648 C 42.68874 85.9743 42.76512 85.86032 42.81305 85.79015 C 42.86098 85.71999 42.93846 85.60886 42.9868 85.54071 C 43.03513 85.47255 43.11281 85.36496 43.16138 85.2989 C 43.20995 85.23285 43.28793 85.12866 43.33687 85.06459 C 43.3858 85.00052 43.46492 84.89911 43.5141 84.83702 C 43.56328 84.77493 43.64207 84.6771 43.69133 84.61705 C 43.74059 84.55699 43.81972 84.46223 43.86914 84.40414 C 43.91858 84.34605 43.9981 84.25447 44.04765 84.19829 C 44.09721 84.14212 44.17696 84.05339 44.22641 83.99922 C 44.27586 83.94505 44.35472 83.86006 44.40407 83.80788 C 44.45343 83.75569 44.5328 83.67336 44.58218 83.62299 C 44.63156 83.57263 44.71083 83.49333 44.76003 83.44489 C 44.80922 83.39644 44.8879 83.32025 44.93681 83.27373 C 44.98573 83.22719 45.064 83.15413 45.11267 83.10942 C 45.16135 83.06471 45.23952 82.99426 45.28773 82.95149 C 45.33595 82.9087 45.41238 82.842 45.46028 82.80101 C 45.50816 82.76003 45.58531 82.69531 45.63297 82.656 C 45.68063 82.6167 45.7568 82.55504 45.80377 82.5176 C 45.85072 82.48015 45.9251 82.42177 45.97151 82.38608 C 46.01791 82.35039 46.09233 82.29433 46.13834 82.26024 C 46.18433 82.22615 46.25787 82.17273 46.3031 82.1404 C 46.34833 82.10806 46.41978 82.05783 46.46432 82.02713 C 46.50887 81.99644 46.58023 81.94829 46.62422 81.91916 C 46.6682 81.89001 46.73828 81.84453 46.7813 81.81705 C 46.82433 81.78955 46.89217 81.74692 46.93434 81.72098 C 46.9765 81.69504 47.04378 81.65457 47.08531 81.63007 C 47.12685 81.60556 47.19324 81.56729 47.23376 81.54428 C 47.27429 81.52129 47.33795 81.4858 47.37741 81.46426 C 47.41689 81.44273 47.4796 81.4093 47.51828 81.3891 C 47.55695 81.3689 47.61873 81.33742 47.65623 81.31863 C 47.69374 81.29984 47.75229 81.27103 47.78859 81.2536 C 47.82487 81.23616 47.88237 81.2092 47.91783 81.19295 C 47.9533 81.1767 48.00992 81.15147 48.04422 81.13646 C 48.07852 81.12146 48.13187 81.09854 48.16501 81.08472 C 48.19815 81.07089 48.251 81.0495 48.28313 81.03677 C 48.31526 81.02405 48.36606 81.00449 48.39662 80.99294 C 48.42717 80.9814 48.47423 80.96399 48.50337 80.95354 C 48.53253 80.94308 48.57867 80.92705 48.60684 80.91751 C 48.63501 80.90797 48.67966 80.89339 48.70651 80.88481 C 48.73335 80.87624 48.77498 80.86331 48.80037 80.85568 C 48.82574 80.84805 48.86528 80.83653 48.88951 80.82971 C 48.91374 80.8229 48.95232 80.8125 48.97505 80.8065 C 48.99777 80.8005 49.03226 80.7917 49.05334 80.78651 C 49.07443 80.78133 49.10716 80.77359 49.12709 80.76907 C 49.14702 80.76456 49.17863 80.75775 49.19707 80.75389 C 49.21548 80.75003 49.2431 80.74446 49.25996 80.74124 C 49.27682 80.73802 49.30292 80.73328 49.31857 80.73058 C 49.33423 80.72786 49.35904 80.72385 49.37286 80.7217 C 49.3867 80.71953 49.40608 80.71661 49.41829 80.7149 C 49.4305 80.71321 49.44984 80.71072 49.46094 80.7094 C 49.47203 80.70805 49.48904 80.70619 49.49834 80.70522 C 49.50761 80.70424 49.52026 80.703 49.52798 80.70235 C 49.53569 80.70168 49.54741 80.70076 49.55392 80.70032 C 49.56046 80.69987 49.5703 80.6993 49.57498 80.69905 C 49.57967 80.6988 49.58475 80.69856 49.58777 80.69846 C 49.59079 80.69836 49.59514 80.69826 49.59686 80.69823 C 49.59857 80.6982 49.60017 80.69818 49.60017 80.69818 L 49.60101 80.69818 " fill="#00ff00"/>
<path transform="matrix(1,0,0,-1,1.419,174.484)" stroke-width="1.19553" stroke-linecap="butt" stroke-miterlimit="10" stroke-linejoin="miter" fill="none" stroke="#00ff00" d="M 80.60164 133.11345 C 80.60164 133.11345 79.99464 133.10718 79.76271 133.10265 C 79.53076 133.09812 79.1605 133.0885 78.92998 133.08072 C 78.69943 133.07295 78.33072 133.05834 78.10106 133.04662 C 77.87138 133.0349 77.50323 133.01195 77.27458 132.9962 C 77.04593 132.98046 76.68053 132.9524 76.45305 132.93302 C 76.22559 132.91362 75.86156 132.87987 75.6351 132.85646 C 75.40863 132.83307 75.04593 132.7916 74.82085 132.76428 C 74.59576 132.73697 74.23624 132.6901 74.01279 132.65949 C 73.78934 132.62886 73.43248 132.57804 73.21027 132.54355 C 72.98807 132.50907 72.63203 132.44931 72.41122 132.41089 C 72.19041 132.37245 71.83781 132.30821 71.61873 132.2665 C 71.39966 132.22478 71.04982 132.1557 70.83223 132.11023 C 70.61464 132.06476 70.26642 131.98772 70.05045 131.93869 C 69.83447 131.88967 69.48944 131.80873 69.2756 131.75685 C 69.06177 131.70496 68.7214 131.62046 68.50928 131.56467 C 68.29715 131.50887 67.95728 131.41432 67.74669 131.3547 C 67.53609 131.2951 67.1997 131.19727 66.99146 131.13497 C 66.7832 131.07266 66.4518 130.97135 66.24571 130.90563 C 66.03964 130.8399 65.71059 130.73069 65.50616 130.66127 C 65.30174 130.59186 64.97452 130.47742 64.77235 130.40526 C 64.57018 130.33309 64.24867 130.2163 64.04895 130.1411 C 63.84923 130.06592 63.5305 129.94184 63.33282 129.86333 C 63.13513 129.78484 62.81944 129.65653 62.62408 129.57526 C 62.42873 129.49399 62.11754 129.36202 61.92468 129.27758 C 61.73184 129.19313 61.42451 129.0541 61.23413 128.96662 C 61.04373 128.87914 60.7403 128.7369 60.55247 128.64713 C 60.36465 128.55736 60.06589 128.41233 59.8804 128.31958 C 59.69493 128.22682 59.39868 128.07448 59.21567 127.97867 C 59.03265 127.88286 58.74149 127.72708 58.56125 127.629 C 58.38101 127.53091 58.09422 127.37236 57.91664 127.27168 C 57.73907 127.171 57.45625 127.00673 57.28136 126.90332 C 57.10645 126.79993 56.82816 126.63213 56.656 126.52635 C 56.48386 126.42058 56.20992 126.24892 56.04062 126.14095 C 55.87134 126.03299 55.60226 125.85852 55.43585 125.74815 C 55.26942 125.63779 55.0049 125.45811 54.84114 125.34541 C 54.67738 125.23271 54.41643 125.05078 54.25558 124.93579 C 54.09473 124.8208 53.83957 124.63383 53.68175 124.51659 C 53.52394 124.39934 53.27298 124.20955 53.11815 124.09071 C 52.96332 123.97188 52.71762 123.78088 52.5658 123.66011 C 52.41396 123.53932 52.17265 123.34315 52.02374 123.22011 C 51.87485 123.09708 51.63837 122.89786 51.49252 122.77321 C 51.3467 122.64854 51.11533 122.44788 50.97263 122.32158 C 50.82993 122.1953 50.60362 121.99121 50.46399 121.86295 C 50.32436 121.73466 50.10274 121.5268 49.96625 121.39706 C 49.82977 121.26733 49.6136 121.05904 49.48024 120.92783 C 49.3469 120.79662 49.13524 120.58421 49.00514 120.45139 C 48.87503 120.31854 48.66951 120.10457 48.5425 119.97037 C 48.41548 119.83617 48.21365 119.61977 48.08961 119.48409 C 47.96556 119.34842 47.76917 119.12946 47.64842 118.99243 C 47.52766 118.8554 47.33673 118.6344 47.21927 118.49637 C 47.1018 118.35835 46.916 118.13666 46.80176 117.9976 C 46.68752 117.85857 46.5068 117.63423 46.39584 117.4941 C 46.28487 117.35394 46.1096 117.12852 46.00183 116.9875 C 45.89406 116.84647 45.7237 116.61955 45.61903 116.47757 C 45.51436 116.33559 45.3488 116.10718 45.24742 115.96414 C 45.14604 115.82109 44.98636 115.59033 44.88824 115.44652 C 44.79013 115.3027 44.63506 115.07175 44.54018 114.92755 C 44.4453 114.78337 44.29594 114.55214 44.20438 114.40726 C 44.11282 114.26236 43.96857 114.02878 43.88019 113.88327 C 43.7918 113.73776 43.65256 113.50452 43.56726 113.35847 C 43.48196 113.21242 43.34732 112.97714 43.26534 112.83063 C 43.18335 112.68411 43.05505 112.44914 42.97638 112.30244 C 42.8977 112.15575 42.77386 111.92018 42.69826 111.77322 C 42.62267 111.62627 42.50381 111.39037 42.43144 111.24326 C 42.35905 111.09615 42.24567 110.86015 42.17651 110.71295 C 42.10736 110.56575 41.999 110.32971 41.93292 110.18231 C 41.86684 110.0349 41.7631 109.79787 41.70016 109.65045 C 41.6372 109.50304 41.539 109.2671 41.4792 109.11978 C 41.41939 108.97246 41.32584 108.73578 41.26912 108.58862 C 41.2124 108.44147 41.124 108.20601 41.07039 108.05919 C 41.01678 107.91235 40.93326 107.67702 40.88269 107.53033 C 40.8321 107.38365 40.75334 107.14816 40.70576 107.00189 C 40.6582 106.85564 40.58435 106.62202 40.53983 106.47617 C 40.4953 106.3303 40.42632 106.09608 40.38475 105.95056 C 40.34319 105.80504 40.27887 105.57213 40.24023 105.42728 C 40.20161 105.28244 40.14198 105.0508 40.10632 104.90659 C 40.07066 104.76236 40.01591 104.53151 39.9831 104.3878 C 39.95027 104.24408 39.89973 104.01363 39.86972 103.87064 C 39.8397 103.72765 39.79391 103.49942 39.76677 103.3572 C 39.73962 103.21497 39.69833 102.98691 39.67397 102.84552 C 39.6496 102.70415 39.61276 102.4786 39.59111 102.33821 C 39.56946 102.1978 39.53685 101.97324 39.5179 101.83351 C 39.49895 101.69379 39.47072 101.46982 39.45445 101.33116 C 39.43819 101.1925 39.41423 100.97171 39.40057 100.83409 C 39.3869 100.69647 39.36697 100.4757 39.35591 100.3392 C 39.34483 100.20273 39.32924 99.98564 39.32072 99.85037 C 39.31221 99.7151 39.3005 99.49852 39.29446 99.36421 C 39.2884 99.2299 39.28067 99.01521 39.27708 98.88231 C 39.2735 98.7494 39.26971 98.53783 39.26852 98.40623 C 39.26733 98.27463 39.26735 98.06407 39.26851 97.93375 C 39.26967 97.80342 39.27345 97.59575 39.2769 97.46687 C 39.28035 97.33798 39.28775 97.13234 39.29347 97.0048 C 39.2992 96.87727 39.31021 96.67386 39.31815 96.54771 C 39.32608 96.42157 39.34067 96.22014 39.35074 96.0956 C 39.36082 95.97104 39.37868 95.77296 39.39085 95.65001 C 39.40303 95.52705 39.42427 95.33084 39.43852 95.20937 C 39.45276 95.08788 39.47731 94.89436 39.49356 94.77446 C 39.50981 94.65456 39.53746 94.4634 39.55565 94.34515 C 39.57382 94.22691 39.60455 94.03879 39.62465 93.92221 C 39.64474 93.80562 39.67863 93.61963 39.70053 93.50482 C 39.72244 93.39001 39.75887 93.20773 39.78253 93.0947 C 39.8062 92.98164 39.8457 92.80144 39.87114 92.6901 C 39.89656 92.57874 39.93883 92.40155 39.9659 92.29202 C 39.99298 92.1825 40.03763 92.00833 40.0663 91.90057 C 40.09497 91.79282 40.14232 91.6213 40.17259 91.51541 C 40.20285 91.40952 40.25275 91.24126 40.28447 91.13731 C 40.31621 91.03336 40.36815 90.86818 40.40126 90.76611 C 40.43437 90.66405 40.48866 90.5018 40.52321 90.40161 C 40.55774 90.30144 40.61436 90.14229 40.65019 90.04405 C 40.68602 89.94582 40.74446 89.7899 40.78154 89.69359 C 40.81862 89.59729 40.87918 89.44427 40.91751 89.34987 C 40.95586 89.25546 41.01851 89.10553 41.05797 89.01309 C 41.09743 88.92067 41.16156 88.77402 41.20201 88.68364 C 41.24246 88.59326 41.30809 88.45001 41.3496 88.36166 C 41.39111 88.2733 41.45882 88.13312 41.50124 88.04681 C 41.54367 87.96051 41.61218 87.82388 41.65546 87.73956 C 41.69872 87.65524 41.76894 87.52142 41.81316 87.43906 C 41.85738 87.35667 41.92924 87.22607 41.97423 87.14575 C 42.0192 87.06544 42.09177 86.93846 42.13739 86.86018 C 42.183 86.78192 42.25673 86.6578 42.30307 86.58153 C 42.34941 86.50523 42.42442 86.38455 42.47136 86.31032 C 42.51828 86.23608 42.59393 86.11864 42.64133 86.04648 C 42.68874 85.9743 42.76512 85.86032 42.81305 85.79015 C 42.86098 85.71999 42.93846 85.60886 42.9868 85.54071 C 43.03513 85.47255 43.11281 85.36496 43.16138 85.2989 C 43.20995 85.23285 43.28793 85.12866 43.33687 85.06459 C 43.3858 85.00052 43.46492 84.89911 43.5141 84.83702 C 43.56328 84.77493 43.64207 84.6771 43.69133 84.61705 C 43.74059 84.55699 43.81972 84.46223 43.86914 84.40414 C 43.91858 84.34605 43.9981 84.25447 44.04765 84.19829 C 44.09721 84.14212 44.17696 84.05339 44.22641 83.99922 C 44.27586 83.94505 44.35472 83.86006 44.40407 83.80788 C 44.45343 83.75569 44.5328 83.67336 44.58218 83.62299 C 44.63156 83.57263 44.71083 83.49333 44.76003 83.44489 C 44.80922 83.39644 44.8879 83.32025 44.93681 83.27373 C 44.98573 83.22719 45.064 83.15413 45.11267 83.10942 C 45.16135 83.06471 45.23952 82.99426 45.28773 82.95149 C 45.33595 82.9087 45.41238 82.842 45.46028 82.80101 C 45.50816 82.76003 45.58531 82.69531 45.63297 82.656 C 45.68063 82.6167 45.7568 82.55504 45.80377 82.5176 C 45.85072 82.48015 45.9251 82.42177 45.97151 82.38608 C 46.01791 82.35039 46.09233 82.29433 46.13834 82.26024 C 46.18433 82.22615 46.25787 82.17273 46.3031 82.1404 C 46.34833 82.10806 46.41978 82.05783 46.46432 82.02713 C 46.50887 81.99644 46.58023 81.94829 46.62422 81.91916 C 46.6682 81.89001 46.73828 81.84453 46.7813 81.81705 C 46.82433 81.78955 46.89217 81.74692 46.93434 81.72098 C 46.9765 81.69504 47.04378 81.65457 47.08531 81.63007 C 47.12685 81.60556 47.19324 81.56729 47.23376 81.54428 C 47.27429 81.52129 47.33795 81.4858 47.37741 81.46426 C 47.41689 81.44273 47.4796 81.4093 47.51828 81.3891 C 47.55695 81.3689 47.61873 81.33742 47.65623 81.31863 C 47.69374 81.29984 47.75229 81.27103 47.78859 81.2536 C 47.82487 81.23616 47.88237 81.2092 47.91783 81.19295 C 47.9533 81.1767 48.00992 81.15147 48.04422 81.13646 C 48.07852 81.12146 48.13187 81.09854 48.16501 81.08472 C 48.19815 81.07089 48.251 81.0495 48.28313 81.03677 C 48.31526 81.02405 48.36606 81.00449 48.39662 80.99294 C 48.42717 80.9814 48.47423 80.96399 48.50337 80.95354 C 48.53253 80.94308 48.57867 80.92705 48.60684 80.91751 C 48.63501 80.90797 48.67966 80.89339 48.70651 80.88481 C 48.73335 80.87624 48.77498 80.86331 48.80037 80.85568 C 48.82574 80.84805 48.86528 80.83653 48.88951 80.82971 C 48.91374 80.8229 48.95232 80.8125 48.97505 80.8065 C 48.99777 80.8005 49.03226 80.7917 49.05334 80.78651 C 49.07443 80.78133 49.10716 80.77359 49.12709 80.76907 C 49.14702 80.76456 49.17863 80.75775 49.19707 80.75389 C 49.21548 80.75003 49.2431 80.74446 49.25996 80.74124 C 49.27682 80.73802 49.30292 80.73328 49.31857 80.73058 C 49.33423 80.72786 49.35904 80.72385 49.37286 80.7217 C 49.3867 80.71953 49.40608 80.71661 49.41829 80.7149 C 49.4305 80.71321 49.44984 80.71072 49.46094 80.7094 C 49.47203 80.70805 49.48904 80.70619 49.49834 80.70522 C 49.50761 80.70424 49.52026 80.703 49.52798 80.70235 C 49.53569 80.70168 49.54741 80.70076 49.55392 80.70032 C 49.56046 80.69987 49.5703 80.6993 49.57498 80.69905 C 49.57967 80.6988 49.58475 80.69856 49.58777 80.69846 C 49.59079 80.69836 49.59514 80.69826 49.59686 80.69823 C 49.59857 80.6982 49.60017 80.69818 49.60017 80.69818 L 49.60101 80.69818 "/>
<path transform="matrix(1,0,0,-1,1.419,174.484)" d="M 80.60164 133.11345 C 80.60164 133.11345 80.37367 132.98226 80.28621 132.93161 C 80.19876 132.88097 80.05788 132.79882 79.97122 132.74849 C 79.88455 132.69815 79.74771 132.61922 79.66148 132.56882 C 79.57527 132.5184 79.43567 132.43605 79.34972 132.38509 C 79.26376 132.3341 79.1273 132.25254 79.04196 132.20139 C 78.95662 132.15023 78.81982 132.06824 78.73459 132.01631 C 78.64937 131.96439 78.51279 131.87989 78.42769 131.82701 C 78.34258 131.77413 78.20619 131.68852 78.12122 131.6352 C 78.03624 131.58188 77.89969 131.49623 77.81517 131.44257 C 77.73064 131.3889 77.59601 131.30246 77.51195 131.2484 C 77.42787 131.19434 77.29285 131.10698 77.20923 131.05292 C 77.12563 130.99886 76.9926 130.9135 76.9093 130.85875 C 76.82599 130.80399 76.69188 130.71393 76.6087 130.65818 C 76.52553 130.6024 76.39265 130.51299 76.30977 130.45676 C 76.2269 130.40053 76.09375 130.30922 76.01134 130.25284 C 75.92894 130.19646 75.7977 130.10692 75.71574 130.0503 C 75.63379 129.99367 75.50214 129.9017 75.42065 129.8447 C 75.33917 129.78769 75.20973 129.69702 75.1284 129.63933 C 75.04707 129.58164 74.91562 129.48726 74.83444 129.4288 C 74.75327 129.37035 74.62413 129.27701 74.54327 129.21794 C 74.46242 129.15889 74.33199 129.06226 74.25159 129.00304 C 74.1712 128.94384 74.04361 128.8504 73.96385 128.7911 C 73.88408 128.73183 73.7563 128.63564 73.6767 128.57567 C 73.5971 128.51569 73.46957 128.4196 73.39014 128.3588 C 73.31071 128.29799 73.1833 128.19878 73.1042 128.13738 C 73.02512 128.07598 72.89867 127.9777 72.82005 127.91624 C 72.74144 127.85478 72.61545 127.75578 72.53761 127.69432 C 72.45978 127.63286 72.33665 127.53537 72.259 127.47324 C 72.18135 127.4111 72.05534 127.3091 71.97787 127.24641 C 71.9004 127.18375 71.77744 127.08452 71.7006 127.02148 C 71.62378 126.95847 71.50082 126.8562 71.42404 126.79216 C 71.34726 126.7281 71.22359 126.62428 71.14714 126.55986 C 71.07068 126.49545 70.94897 126.39241 70.87303 126.32785 C 70.79707 126.26329 70.67497 126.1592 70.59966 126.0945 C 70.52432 126.02982 70.40492 125.92656 70.33008 125.86157 C 70.25523 125.79657 70.13515 125.69212 70.06023 125.6261 C 69.9853 125.56007 69.86455 125.45226 69.79013 125.38568 C 69.71571 125.3191 69.59789 125.21329 69.52382 125.1463 C 69.44975 125.0793 69.3299 124.96983 69.25633 124.90276 C 69.18277 124.8357 69.06638 124.72974 68.99359 124.66283 C 68.9208 124.59592 68.80421 124.48814 68.73163 124.4205 C 68.65906 124.35287 68.54309 124.2442 68.47049 124.17534 C 68.39789 124.10649 68.2805 123.99358 68.20825 123.92424 C 68.13602 123.8549 68.02124 123.74467 67.94978 123.67558 C 67.87831 123.60649 67.76407 123.49565 67.69312 123.42621 C 67.62215 123.35677 67.50883 123.24495 67.43823 123.17508 C 67.36763 123.10522 67.2542 122.99254 67.18423 122.92264 C 67.11427 122.85274 67.00363 122.74197 66.93391 122.67123 C 66.8642 122.6005 66.75131 122.48448 66.68172 122.41283 C 66.61212 122.34119 66.50136 122.22673 66.43227 122.15482 C 66.36319 122.08292 66.25223 121.96637 66.18376 121.89456 C 66.11531 121.82275 66.00696 121.70926 65.93889 121.63716 C 65.87083 121.56506 65.76073 121.44734 65.69316 121.37479 C 65.62561 121.30225 65.51889 121.18713 65.45198 121.11424 C 65.38506 121.04135 65.27771 120.92319 65.21082 120.84941 C 65.1439 120.77563 65.03613 120.65645 64.96977 120.5825 C 64.9034 120.50858 64.7982 120.39064 64.73235 120.31639 C 64.66649 120.24213 64.56049 120.1218 64.49503 120.04726 C 64.42957 119.9727 64.32518 119.85356 64.26045 119.77902 C 64.19574 119.70448 64.09314 119.5854 64.0286 119.51004 C 63.96405 119.4347 63.85938 119.31177 63.79523 119.23582 C 63.7311 119.1599 63.62988 119.039 63.56625 118.96272 C 63.50264 118.88644 63.39998 118.76256 63.33665 118.68594 C 63.27332 118.60933 63.17226 118.48679 63.10979 118.41046 C 63.04732 118.33415 62.9486 118.21281 62.88643 118.13583 C 62.82426 118.05884 62.72357 117.93327 62.66171 117.85558 C 62.59985 117.77788 62.50183 117.65384 62.4405 117.5758 C 62.37918 117.49777 62.28064 117.37164 62.21962 117.2931 C 62.1586 117.21457 62.06102 117.08842 62.00064 117.00978 C 61.94026 116.93115 61.84421 116.80498 61.78436 116.72626 C 61.7245 116.64754 61.62863 116.52153 61.5692 116.44243 C 61.50978 116.36334 61.41496 116.23596 61.35597 116.15611 C 61.29697 116.07628 61.20258 115.94733 61.1439 115.86694 C 61.08522 115.78658 60.99115 115.6573 60.933 115.57675 C 60.87486 115.49622 60.7821 115.36673 60.72481 115.28639 C 60.66751 115.20607 60.57677 115.07819 60.51999 114.99776 C 60.46323 114.91733 60.37218 114.78769 60.31563 114.70659 C 60.2591 114.6255 60.16878 114.49522 60.11249 114.4133 C 60.0562 114.33138 59.9655 114.19821 59.90985 114.11604 C 59.85419 114.03387 59.76633 113.90324 59.7113 113.82103 C 59.6563 113.73883 59.56796 113.60606 59.51329 113.52347 C 59.45862 113.44087 59.37137 113.3085 59.31725 113.22571 C 59.26312 113.14291 59.17682 113.00993 59.12315 112.92667 C 59.06947 112.84341 58.98346 112.70915 58.93033 112.6256 C 58.8772 112.54205 58.79274 112.40836 58.74016 112.32448 C 58.68758 112.24059 58.60332 112.10501 58.55128 112.02098 C 58.49924 111.93697 58.41653 111.80295 58.36504 111.71881 C 58.31355 111.63469 58.23112 111.49902 58.18008 111.41458 C 58.12903 111.33012 58.04759 111.19487 57.9971 111.11014 C 57.94662 111.02542 57.86623 110.88937 57.81612 110.80392 C 57.76599 110.71848 57.68558 110.58025 57.63583 110.49425 C 57.58609 110.40825 57.50655 110.26982 57.45753 110.18405 C 57.40852 110.09828 57.33086 109.96173 57.28249 109.87602 C 57.23412 109.79031 57.15672 109.65228 57.10881 109.56627 C 57.0609 109.48026 56.9847 109.34293 56.93709 109.25604 C 56.88948 109.16917 56.81273 109.02736 56.7656 108.94003 C 56.71844 108.85269 56.64363 108.71347 56.59729 108.6265 C 56.55095 108.5395 56.47736 108.40025 56.43156 108.31305 C 56.38577 108.22586 56.31274 108.08585 56.26727 107.998 C 56.2218 107.91014 56.14864 107.76765 56.1038 107.6798 C 56.05898 107.59195 55.98836 107.45274 55.94409 107.36473 C 55.89983 107.2767 55.82854 107.13393 55.78467 107.04535 C 55.7408 106.95677 55.67116 106.815 55.62785 106.72618 C 55.58453 106.63736 55.51523 106.49405 55.47249 106.4051 C 55.42973 106.31615 55.36182 106.17398 55.3197 106.08505 C 55.27759 105.99612 55.21062 105.85344 55.16891 105.76405 C 55.12721 105.67467 55.06026 105.53024 55.01912 105.44073 C 54.97798 105.35123 54.91295 105.20866 54.87238 105.11887 C 54.8318 105.02907 54.76672 104.88365 54.72664 104.79343 C 54.68655 104.7032 54.6229 104.55876 54.58344 104.46857 C 54.54399 104.37837 54.48135 104.23409 54.44228 104.1433 C 54.4032 104.05249 54.34015 103.9048 54.3017 103.81404 C 54.26326 103.72328 54.20285 103.57977 54.1651 103.48914 C 54.12735 103.3985 54.06694 103.25217 54.02956 103.16077 C 53.99217 103.06938 53.93256 102.92227 53.89561 102.8304 C 53.85867 102.73854 53.7996 102.59056 53.76324 102.49866 C 53.72688 102.40677 53.66904 102.25957 53.63342 102.16798 C 53.59781 102.07642 53.54158 101.93037 53.50653 101.83864 C 53.4715 101.7469 53.41545 101.59917 53.3808 101.50677 C 53.34613 101.4144 53.29085 101.2655 53.2567 101.17271 C 53.22256 101.07993 53.16814 100.93051 53.13467 100.8379 C 53.10121 100.7453 53.04836 100.59766 53.01553 100.50514 C 52.98271 100.41261 52.9304 100.264 52.89804 100.17105 C 52.86568 100.07811 52.8141 99.92865 52.78221 99.83524 C 52.7503 99.74182 52.6993 99.59093 52.66806 99.4977 C 52.63684 99.40446 52.58783 99.25684 52.55714 99.16322 C 52.52644 99.06961 52.47697 98.91698 52.44676 98.8229 C 52.41653 98.72884 52.36871 98.57887 52.33922 98.48523 C 52.30972 98.39159 52.26309 98.24187 52.23412 98.14792 C 52.20514 98.05397 52.15884 97.9024 52.13034 97.80806 C 52.10184 97.71371 52.05658 97.5624 52.02867 97.46793 C 52.00076 97.37347 51.95633 97.2215 51.92908 97.12717 C 51.90184 97.03284 51.85892 96.88249 51.83224 96.78801 C 51.80559 96.69353 51.76303 96.54123 51.73682 96.4462 C 51.71059 96.35115 51.66875 96.19786 51.64314 96.10292 C 51.61755 96.00798 51.57724 95.85692 51.55222 95.76193 C 51.52719 95.66696 51.48723 95.51364 51.46274 95.41826 C 51.43825 95.32289 51.39958 95.1702 51.37564 95.0745 C 51.3517 94.97878 51.31339 94.82399 51.29007 94.7284 C 51.26675 94.63281 51.23021 94.48117 51.20746 94.38551 C 51.18472 94.28987 51.1483 94.13486 51.12608 94.03894 C 51.10388 93.94304 51.06895 93.79007 51.04736 93.69427 C 51.02579 93.59846 50.99149 93.44434 50.97047 93.34842 C 50.94946 93.25252 50.91638 93.09917 50.89592 93.00291 C 50.87546 92.90666 50.8429 92.75108 50.82298 92.65457 C 50.80307 92.55807 50.77171 92.40392 50.7524 92.30734 C 50.73306 92.21078 50.70235 92.05489 50.68365 91.9586 C 50.66498 91.8623 50.63582 91.70963 50.61774 91.61328 C 50.59964 91.51695 50.57079 91.36104 50.5532 91.26428 C 50.53564 91.16751 50.50803 91.01291 50.49103 90.91586 C 50.47401 90.81882 50.44693 90.66168 50.43053 90.56477 C 50.41412 90.46786 50.38855 90.3141 50.37276 90.2173 C 50.35695 90.12051 50.33195 89.96448 50.31667 89.8671 C 50.30139 89.76971 50.2772 89.61267 50.26254 89.51541 C 50.24786 89.41815 50.22493 89.26324 50.21086 89.16608 C 50.19681 89.0689 50.17462 88.91231 50.16113 88.81505 C 50.14766 88.71777 50.12656 88.56216 50.11368 88.465 C 50.1008 88.36784 50.08066 88.21228 50.06833 88.11476 C 50.056 88.01724 50.03658 87.85995 50.0248 87.76207 C 50.01302 87.66418 49.99454 87.50699 49.98337 87.40924 C 49.9722 87.3115 49.95476 87.15504 49.94421 87.05756 C 49.93365 86.96007 49.91727 86.80424 49.9073 86.70651 C 49.89732 86.60878 49.88168 86.4512 49.87225 86.3531 C 49.86284 86.255 49.84816 86.0976 49.83932 85.99947 C 49.83049 85.90134 49.81674 85.7434 49.80853 85.64575 C 49.80032 85.54811 49.78777 85.39336 49.78015 85.29568 C 49.77254 85.198 49.76068 85.04001 49.7536 84.94179 C 49.74654 84.84357 49.73566 84.68597 49.72917 84.58769 C 49.7227 84.48941 49.71274 84.33157 49.70688 84.23344 C 49.701 84.13531 49.69205 83.97823 49.68678 83.88043 C 49.6815 83.78264 49.67354 83.62653 49.66884 83.52855 C 49.66414 83.43057 49.65703 83.27254 49.65291 83.1742 C 49.64879 83.07585 49.64261 82.91779 49.6391 82.81976 C 49.63559 82.72174 49.63043 82.56567 49.6275 82.46764 C 49.62457 82.3696 49.62029 82.21129 49.61794 82.11307 C 49.6156 82.01485 49.61229 81.8579 49.61053 81.75966 C 49.6088 81.66142 49.6064 81.50343 49.60524 81.40503 C 49.60406 81.30664 49.60262 81.14847 49.60204 81.0504 C 49.60147 80.95233 49.60101 80.69818 49.60101 80.69818 " fill="#ffffff"/>
<path transform="matrix(1,0,0,-1,1.419,174.484)" stroke-width="1.19553" stroke-linecap="butt" stroke-miterlimit="10" stroke-linejoin="miter" fill="none" stroke="#000000" d="M 80.60164 133.11345 C 80.60164 133.11345 80.37367 132.98226 80.28621 132.93161 C 80.19876 132.88097 80.05788 132.79882 79.97122 132.74849 C 79.88455 132.69815 79.74771 132.61922 79.66148 132.56882 C 79.57527 132.5184 79.43567 132.43605 79.34972 132.38509 C 79.26376 132.3341 79.1273 132.25254 79.04196 132.20139 C 78.95662 132.15023 78.81982 132.06824 78.73459 132.01631 C 78.64937 131.96439 78.51279 131.87989 78.42769 131.82701 C 78.34258 131.77413 78.20619 131.68852 78.12122 131.6352 C 78.03624 131.58188 77.89969 131.49623 77.81517 131.44257 C 77.73064 131.3889 77.59601 131.30246 77.51195 131.2484 C 77.42787 131.19434 77.29285 131.10698 77.20923 131.05292 C 77.12563 130.99886 76.9926 130.9135 76.9093 130.85875 C 76.82599 130.80399 76.69188 130.71393 76.6087 130.65818 C 76.52553 130.6024 76.39265 130.51299 76.30977 130.45676 C 76.2269 130.40053 76.09375 130.30922 76.01134 130.25284 C 75.92894 130.19646 75.7977 130.10692 75.71574 130.0503 C 75.63379 129.99367 75.50214 129.9017 75.42065 129.8447 C 75.33917 129.78769 75.20973 129.69702 75.1284 129.63933 C 75.04707 129.58164 74.91562 129.48726 74.83444 129.4288 C 74.75327 129.37035 74.62413 129.27701 74.54327 129.21794 C 74.46242 129.15889 74.33199 129.06226 74.25159 129.00304 C 74.1712 128.94384 74.04361 128.8504 73.96385 128.7911 C 73.88408 128.73183 73.7563 128.63564 73.6767 128.57567 C 73.5971 128.51569 73.46957 128.4196 73.39014 128.3588 C 73.31071 128.29799 73.1833 128.19878 73.1042 128.13738 C 73.02512 128.07598 72.89867 127.9777 72.82005 127.91624 C 72.74144 127.85478 72.61545 127.75578 72.53761 127.69432 C 72.45978 127.63286 72.33665 127.53537 72.259 127.47324 C 72.18135 127.4111 72.05534 127.3091 71.97787 127.24641 C 71.9004 127.18375 71.77744 127.08452 71.7006 127.02148 C 71.62378 126.95847 71.50082 126.8562 71.42404 126.79216 C 71.34726 126.7281 71.22359 126.62428 71.14714 126.55986 C 71.07068 126.49545 70.94897 126.39241 70.87303 126.32785 C 70.79707 126.26329 70.67497 126.1592 70.59966 126.0945 C 70.52432 126.02982 70.40492 125.92656 70.33008 125.86157 C 70.25523 125.79657 70.13515 125.69212 70.06023 125.6261 C 69.9853 125.56007 69.86455 125.45226 69.79013 125.38568 C 69.71571 125.3191 69.59789 125.21329 69.52382 125.1463 C 69.44975 125.0793 69.3299 124.96983 69.25633 124.90276 C 69.18277 124.8357 69.06638 124.72974 68.99359 124.66283 C 68.9208 124.59592 68.80421 124.48814 68.73163 124.4205 C 68.65906 124.35287 68.54309 124.2442 68.47049 124.17534 C 68.39789 124.10649 68.2805 123.99358 68.20825 123.92424 C 68.13602 123.8549 68.02124 123.74467 67.94978 123.67558 C 67.87831 123.60649 67.76407 123.49565 67.69312 123.42621 C 67.62215 123.35677 67.50883 123.24495 67.43823 123.17508 C 67.36763 123.10522 67.2542 122.99254 67.18423 122.92264 C 67.11427 122.85274 67.00363 122.74197 66.93391 122.67123 C 66.8642 122.6005 66.75131 122.48448 66.68172 122.41283 C 66.61212 122.34119 66.50136 122.22673 66.43227 122.15482 C 66.36319 122.08292 66.25223 121.96637 66.18376 121.89456 C 66.11531 121.82275 66.00696 121.70926 65.93889 121.63716 C 65.87083 121.56506 65.76073 121.44734 65.69316 121.37479 C 65.62561 121.30225 65.51889 121.18713 65.45198 121.11424 C 65.38506 121.04135 65.27771 120.92319 65.21082 120.84941 C 65.1439 120.77563 65.03613 120.65645 64.96977 120.5825 C 64.9034 120.50858 64.7982 120.39064 64.73235 120.31639 C 64.66649 120.24213 64.56049 120.1218 64.49503 120.04726 C 64.42957 119.9727 64.32518 119.85356 64.26045 119.77902 C 64.19574 119.70448 64.09314 119.5854 64.0286 119.51004 C 63.96405 119.4347 63.85938 119.31177 63.79523 119.23582 C 63.7311 119.1599 63.62988 119.039 63.56625 118.96272 C 63.50264 118.88644 63.39998 118.76256 63.33665 118.68594 C 63.27332 118.60933 63.17226 118.48679 63.10979 118.41046 C 63.04732 118.33415 62.9486 118.21281 62.88643 118.13583 C 62.82426 118.05884 62.72357 117.93327 62.66171 117.85558 C 62.59985 117.77788 62.50183 117.65384 62.4405 117.5758 C 62.37918 117.49777 62.28064 117.37164 62.21962 117.2931 C 62.1586 117.21457 62.06102 117.08842 62.00064 117.00978 C 61.94026 116.93115 61.84421 116.80498 61.78436 116.72626 C 61.7245 116.64754 61.62863 116.52153 61.5692 116.44243 C 61.50978 116.36334 61.41496 116.23596 61.35597 116.15611 C 61.29697 116.07628 61.20258 115.94733 61.1439 115.86694 C 61.08522 115.78658 60.99115 115.6573 60.933 115.57675 C 60.87486 115.49622 60.7821 115.36673 60.72481 115.28639 C 60.66751 115.20607 60.57677 115.07819 60.51999 114.99776 C 60.46323 114.91733 60.37218 114.78769 60.31563 114.70659 C 60.2591 114.6255 60.16878 114.49522 60.11249 114.4133 C 60.0562 114.33138 59.9655 114.19821 59.90985 114.11604 C 59.85419 114.03387 59.76633 113.90324 59.7113 113.82103 C 59.6563 113.73883 59.56796 113.60606 59.51329 113.52347 C 59.45862 113.44087 59.37137 113.3085 59.31725 113.22571 C 59.26312 113.14291 59.17682 113.00993 59.12315 112.92667 C 59.06947 112.84341 58.98346 112.70915 58.93033 112.6256 C 58.8772 112.54205 58.79274 112.40836 58.74016 112.32448 C 58.68758 112.24059 58.60332 112.10501 58.55128 112.02098 C 58.49924 111.93697 58.41653 111.80295 58.36504 111.71881 C 58.31355 111.63469 58.23112 111.49902 58.18008 111.41458 C 58.12903 111.33012 58.04759 111.19487 57.9971 111.11014 C 57.94662 111.02542 57.86623 110.88937 57.81612 110.80392 C 57.76599 110.71848 57.68558 110.58025 57.63583 110.49425 C 57.58609 110.40825 57.50655 110.26982 57.45753 110.18405 C 57.40852 110.09828 57.33086 109.96173 57.28249 109.87602 C 57.23412 109.79031 57.15672 109.65228 57.10881 109.56627 C 57.0609 109.48026 56.9847 109.34293 56.93709 109.25604 C 56.88948 109.16917 56.81273 109.02736 56.7656 108.94003 C 56.71844 108.85269 56.64363 108.71347 56.59729 108.6265 C 56.55095 108.5395 56.47736 108.40025 56.43156 108.31305 C 56.38577 108.22586 56.31274 108.08585 56.26727 107.998 C 56.2218 107.91014 56.14864 107.76765 56.1038 107.6798 C 56.05898 107.59195 55.98836 107.45274 55.94409 107.36473 C 55.89983 107.2767 55.82854 107.13393 55.78467 107.04535 C 55.7408 106.95677 55.67116 106.815 55.62785 106.72618 C 55.58453 106.63736 55.51523 106.49405 55.47249 106.4051 C 55.42973 106.31615 55.36182 106.17398 55.3197 106.08505 C 55.27759 105.99612 55.21062 105.85344 55.16891 105.76405 C 55.12721 105.67467 55.06026 105.53024 55.01912 105.44073 C 54.97798 105.35123 54.91295 105.20866 54.87238 105.11887 C 54.8318 105.02907 54.76672 104.88365 54.72664 104.79343 C 54.68655 104.7032 54.6229 104.55876 54.58344 104.46857 C 54.54399 104.37837 54.48135 104.23409 54.44228 104.1433 C 54.4032 104.05249 54.34015 103.9048 54.3017 103.81404 C 54.26326 103.72328 54.20285 103.57977 54.1651 103.48914 C 54.12735 103.3985 54.06694 103.25217 54.02956 103.16077 C 53.99217 103.06938 53.93256 102.92227 53.89561 102.8304 C 53.85867 102.73854 53.7996 102.59056 53.76324 102.49866 C 53.72688 102.40677 53.66904 102.25957 53.63342 102.16798 C 53.59781 102.07642 53.54158 101.93037 53.50653 101.83864 C 53.4715 101.7469 53.41545 101.59917 53.3808 101.50677 C 53.34613 101.4144 53.29085 101.2655 53.2567 101.17271 C 53.22256 101.07993 53.16814 100.93051 53.13467 100.8379 C 53.10121 100.7453 53.04836 100.59766 53.01553 100.50514 C 52.98271 100.41261 52.9304 100.264 52.89804 100.17105 C 52.86568 100.07811 52.8141 99.92865 52.78221 99.83524 C 52.7503 99.74182 52.6993 99.59093 52.66806 99.4977 C 52.63684 99.40446 52.58783 99.25684 52.55714 99.16322 C 52.52644 99.06961 52.47697 98.91698 52.44676 98.8229 C 52.41653 98.72884 52.36871 98.57887 52.33922 98.48523 C 52.30972 98.39159 52.26309 98.24187 52.23412 98.14792 C 52.20514 98.05397 52.15884 97.9024 52.13034 97.80806 C 52.10184 97.71371 52.05658 97.5624 52.02867 97.46793 C 52.00076 97.37347 51.95633 97.2215 51.92908 97.12717 C 51.90184 97.03284 51.85892 96.88249 51.83224 96.78801 C 51.80559 96.69353 51.76303 96.54123 51.73682 96.4462 C 51.71059 96.35115 51.66875 96.19786 51.64314 96.10292 C 51.61755 96.00798 51.57724 95.85692 51.55222 95.76193 C 51.52719 95.66696 51.48723 95.51364 51.46274 95.41826 C 51.43825 95.32289 51.39958 95.1702 51.37564 95.0745 C 51.3517 94.97878 51.31339 94.82399 51.29007 94.7284 C 51.26675 94.63281 51.23021 94.48117 51.20746 94.38551 C 51.18472 94.28987 51.1483 94.13486 51.12608 94.03894 C 51.10388 93.94304 51.06895 93.79007 51.04736 93.69427 C 51.02579 93.59846 50.99149 93.44434 50.97047 93.34842 C 50.94946 93.25252 50.91638 93.09917 50.89592 93.00291 C 50.87546 92.90666 50.8429 92.75108 50.82298 92.65457 C 50.80307 92.55807 50.77171 92.40392 50.7524 92.30734 C 50.73306 92.21078 50.70235 92.05489 50.68365 91.9586 C 50.66498 91.8623 50.63582 91.70963 50.61774 91.61328 C 50.59964 91.51695 50.57079 91.36104 50.5532 91.26428 C 50.53564 91.16751 50.50803 91.01291 50.49103 90.91586 C 50.47401 90.81882 50.44693 90.66168 50.43053 90.56477 C 50.41412 90.46786 50.38855 90.3141 50.37276 90.2173 C 50.35695 90.12051 50.33195 89.96448 50.31667 89.8671 C 50.30139 89.76971 50.2772 89.61267 50.26254 89.51541 C 50.24786 89.41815 50.22493 89.26324 50.21086 89.16608 C 50.19681 89.0689 50.17462 88.91231 50.16113 88.81505 C 50.14766 88.71777 50.12656 88.56216 50.11368 88.465 C 50.1008 88.36784 50.08066 88.21228 50.06833 88.11476 C 50.056 88.01724 50.03658 87.85995 50.0248 87.76207 C 50.01302 87.66418 49.99454 87.50699 49.98337 87.40924 C 49.9722 87.3115 49.95476 87.15504 49.94421 87.05756 C 49.93365 86.96007 49.91727 86.80424 49.9073 86.70651 C 49.89732 86.60878 49.88168 86.4512 49.87225 86.3531 C 49.86284 86.255 49.84816 86.0976 49.83932 85.99947 C 49.83049 85.90134 49.81674 85.7434 49.80853 85.64575 C 49.80032 85.54811 49.78777 85.39336 49.78015 85.29568 C 49.77254 85.198 49.76068 85.04001 49.7536 84.94179 C 49.74654 84.84357 49.73566 84.68597 49.72917 84.58769 C 49.7227 84.48941 49.71274 84.33157 49.70688 84.23344 C 49.701 84.13531 49.69205 83.97823 49.68678 83.88043 C 49.6815 83.78264 49.67354 83.62653 49.66884 83.52855 C 49.66414 83.43057 49.65703 83.27254 49.65291 83.1742 C 49.64879 83.07585 49.64261 82.91779 49.6391 82.81976 C 49.63559 82.72174 49.63043 82.56567 49.6275 82.46764 C 49.62457 82.3696 49.62029 82.21129 49.61794 82.11307 C 49.6156 82.01485 49.61229 81.8579 49.61053 81.75966 C 49.6088 81.66142 49.6064 81.50343 49.60524 81.40503 C 49.60406 81.30664 49.60262 81.14847 49.60204 81.0504 C 49.60147 80.95233 49.60101 80.69818 49.60101 80.69818 "/>
<path transform="matrix(1,0,0,-1,1.419,174.484)" stroke-width="1" stroke-linecap="butt" stroke-miterlimit="10" stroke-linejoin="miter" fill="none" stroke="#800000" d="M 132.26937 80.69818 C 132.26937 80.69818 132.25916 81.71782 132.2483 82.10947 C 132.23748 82.50111 132.21239 83.12965 132.19124 83.5209 C 132.17009 83.91216 132.12743 84.53885 132.09581 84.92943 C 132.06418 85.32002 132.00557 85.94652 131.96332 86.33603 C 131.92107 86.72552 131.84363 87.34885 131.7913 87.73677 C 131.73899 88.1247 131.64847 88.74538 131.5861 89.13199 C 131.52373 89.5186 131.4151 90.13875 131.34168 90.5233 C 131.26825 90.90785 131.14044 91.52145 131.05687 91.90355 C 130.97332 92.28566 130.8328 92.89755 130.7393 93.27727 C 130.64582 93.65698 130.48708 94.2632 130.38304 94.64032 C 130.27902 95.01744 130.10349 95.62129 129.98947 95.99533 C 129.87545 96.36937 129.68503 96.96577 129.5613 97.33627 C 129.43758 97.70676 129.23085 98.29897 129.09763 98.66563 C 128.9644 99.0323 128.74422 99.6163 128.60108 99.97908 C 128.45793 100.34187 128.21872 100.92137 128.06594 101.28032 C 127.91313 101.63927 127.66214 102.21176 127.49977 102.56616 C 127.33742 102.92056 127.06682 103.48497 126.89566 103.83463 C 126.7245 104.1843 126.4461 104.74168 126.26608 105.08635 C 126.08607 105.431 125.78758 105.97926 125.59813 106.3187 C 125.40868 106.65813 125.09903 107.19888 124.90062 107.53276 C 124.7022 107.86665 124.375 108.39708 124.16806 108.72508 C 123.96114 109.0531 123.62411 109.57472 123.4091 109.89687 C 123.19409 110.21902 122.8418 110.73087 122.61836 111.04698 C 122.39493 111.36308 122.02975 111.86554 121.79868 112.17525 C 121.56758 112.48497 121.19188 112.9763 120.95279 113.2792 C 120.71368 113.5821 120.32237 114.06209 120.07542 114.3584 C 119.82846 114.6547 119.42657 115.12558 119.17287 115.41478 C 118.91916 115.70398 118.5081 116.16078 118.24686 116.44284 C 117.98561 116.7249 117.5584 117.17297 117.2899 117.44772 C 117.02141 117.72247 116.58647 118.156 116.31168 118.42302 C 116.0369 118.69005 115.59029 119.1131 115.30936 119.37234 C 115.02843 119.63158 114.57391 120.04027 114.28683 120.2915 C 113.99977 120.54272 113.53362 120.93982 113.24028 121.18312 C 112.94693 121.42644 112.47125 121.81009 112.17256 122.0451 C 111.87387 122.28014 111.39177 122.65062 111.08746 122.8771 C 110.78314 123.1036 110.28867 123.45934 109.9792 123.67761 C 109.66974 123.8959 109.1713 124.24084 108.85701 124.45038 C 108.54272 124.65991 108.0331 124.98709 107.71402 125.18777 C 107.39494 125.38844 106.88022 125.70456 106.55727 125.89684 C 106.23431 126.08911 105.71329 126.39037 105.38634 126.57364 C 105.05939 126.75691 104.5317 127.04376 104.20079 127.21776 C 103.8699 127.39177 103.33577 127.66287 103.00139 127.82776 C 102.667 127.99265 102.12816 128.25023 101.79077 128.40613 C 101.45337 128.56203 100.90971 128.8047 100.56961 128.95146 C 100.2295 129.09822 99.68257 129.32656 99.33954 129.46396 C 98.9965 129.60138 98.44249 129.81362 98.09726 129.94182 C 97.75204 130.07004 97.19862 130.26941 96.85141 130.38805 C 96.5042 130.50669 95.94379 130.68756 95.59474 130.79692 C 95.24571 130.90628 94.68602 131.07637 94.33575 131.17633 C 93.98547 131.27628 93.42204 131.42708 93.0702 131.5174 C 92.71835 131.60771 92.15239 131.74588 91.7998 131.82726 C 91.4472 131.90865 90.88167 132.03185 90.52892 132.10391 C 90.17615 132.17597 89.61043 132.28408 89.25726 132.34662 C 88.90411 132.40918 88.33694 132.50162 87.98358 132.55481 C 87.63023 132.608 87.06346 132.68605 86.71045 132.73009 C 86.35745 132.77414 85.79166 132.83756 85.43929 132.87229 C 85.08693 132.907 84.52208 132.95473 84.17075 132.98038 C 83.81941 133.00603 83.25737 133.04074 82.90714 133.05718 C 82.55688 133.07361 81.99554 133.09154 81.64645 133.09888 C 81.29738 133.10622 80.73842 133.11153 80.39111 133.11016 C 80.04381 133.1088 79.48874 133.09934 79.14323 133.08893 C 78.79774 133.07854 78.24442 133.05423 77.90102 133.03511 C 77.55762 133.01598 77.00891 132.97864 76.66821 132.95102 C 76.3275 132.9234 75.78343 132.87213 75.44534 132.83592 C 75.10725 132.79973 74.56654 132.73474 74.23141 132.6901 C 73.89629 132.64545 73.36176 132.567 73.02997 132.51413 C 72.69817 132.46126 72.16866 132.37007 71.84 132.30902 C 71.51135 132.24799 70.98611 132.1432 70.66127 132.07413 C 70.33641 132.00505 69.81934 131.88799 69.4986 131.81111 C 69.17787 131.73426 68.66638 131.60457 68.3496 131.52013 C 68.03279 131.43567 67.52785 131.29445 67.21532 131.20243 C 66.90277 131.11042 66.40485 130.95636 66.09697 130.85686 C 65.78908 130.75736 65.29936 130.59174 64.99623 130.48526 C 64.6931 130.37879 64.21063 130.20298 63.91219 130.08942 C 63.61374 129.97586 63.13841 129.78717 62.8452 129.66675 C 62.55199 129.54631 62.08661 129.3484 61.79878 129.22139 C 61.51097 129.09438 61.0531 128.8846 60.77075 128.7513 C 60.4884 128.61798 60.0405 128.39997 59.76381 128.26052 C 59.4871 128.12107 59.04753 127.89185 58.77647 127.74617 C 58.50543 127.6005 58.07521 127.36195 57.81018 127.2105 C 57.54515 127.05904 57.12508 126.81137 56.86627 126.65448 C 56.60748 126.4976 56.19759 126.24196 55.94493 126.0797 C 55.69228 125.91743 55.29169 125.65237 55.04529 125.48497 C 54.7989 125.31757 54.40881 125.04524 54.1691 124.8731 C 53.92938 124.70093 53.55055 124.42094 53.31744 124.2441 C 53.08435 124.06723 52.71564 123.77979 52.48898 123.59837 C 52.26234 123.41695 51.90375 123.12216 51.6839 122.93652 C 51.46407 122.75087 51.1174 122.44978 50.90453 122.26031 C 50.69167 122.07086 50.35544 121.764 50.14957 121.5709 C 49.94371 121.37782 49.61954 121.06519 49.42075 120.86852 C 49.22194 120.67186 48.90866 120.3534 48.71678 120.15338 C 48.5249 119.95335 48.22255 119.62993 48.03773 119.42693 C 47.85294 119.22394 47.56233 118.89604 47.38474 118.69025 C 47.20715 118.48444 46.9281 118.15192 46.7577 117.94359 C 46.58731 117.73526 46.31969 117.39915 46.15654 117.18877 C 45.9934 116.97836 45.73773 116.63959 45.58182 116.42712 C 45.4259 116.21466 45.1815 115.872 45.03273 115.65747 C 44.88397 115.44293 44.65097 115.09688 44.50952 114.88086 C 44.36806 114.66484 44.14737 114.31778 44.01314 114.10054 C 43.8789 113.8833 43.66908 113.5336 43.54198 113.31511 C 43.41486 113.09663 43.21677 112.74506 43.09695 112.52583 C 42.97713 112.3066 42.79092 111.95488 42.67828 111.73502 C 42.56564 111.51515 42.39053 111.1614 42.28496 110.94116 C 42.1794 110.72092 42.0159 110.36801 41.91739 110.1476 C 41.8189 109.92719 41.66638 109.5729 41.57487 109.35255 C 41.48338 109.1322 41.3424 108.77934 41.25786 108.55939 C 41.17331 108.33943 41.04318 107.9868 40.96544 107.76715 C 40.8877 107.5475 40.7684 107.19513 40.69745 106.97624 C 40.62651 106.75734 40.51822 106.40727 40.45403 106.18942 C 40.38983 105.97159 40.29224 105.6227 40.23468 105.40614 C 40.17711 105.18959 40.09015 104.8438 40.03906 104.6286 C 39.98799 104.41339 39.91116 104.06892 39.86644 103.85506 C 39.82172 103.6412 39.75514 103.29938 39.71667 103.08717 C 39.67822 102.87497 39.62152 102.5358 39.58922 102.32556 C 39.55692 102.11531 39.51003 101.77989 39.48375 101.57182 C 39.45749 101.36375 39.42017 101.03163 39.39978 100.82593 C 39.3794 100.62022 39.35146 100.29239 39.33682 100.08919 C 39.3222 99.886 39.30336 99.5622 39.29433 99.36145 C 39.2853 99.1607 39.2753 98.84026 39.27171 98.64235 C 39.26814 98.44443 39.2668 98.1299 39.2685 97.935 C 39.2702 97.7401 39.27722 97.42935 39.28406 97.2375 C 39.29091 97.04565 39.30603 96.74065 39.31783 96.55222 C 39.32962 96.36378 39.35254 96.06456 39.36914 95.87936 C 39.38573 95.69415 39.41632 95.39915 39.43756 95.2173 C 39.4588 95.03543 39.49661 94.74664 39.5223 94.56854 C 39.54797 94.39043 39.59271 94.1079 39.62263 93.93361 C 39.65257 93.75932 39.70404 93.48285 39.73804 93.31235 C 39.77205 93.14185 39.82985 92.87129 39.86774 92.70468 C 39.90564 92.53807 39.96956 92.2742 40.0112 92.1115 C 40.05284 91.94879 40.12285 91.69041 40.16795 91.53192 C 40.21306 91.37343 40.28795 91.12335 40.33635 90.9691 C 40.38475 90.81485 40.46532 90.57014 40.51686 90.42012 C 40.56842 90.27008 40.65349 90.0334 40.70793 89.88777 C 40.76236 89.74214 40.85213 89.51175 40.90926 89.37045 C 40.96638 89.22914 41.06009 89.00623 41.11975 88.86934 C 41.1794 88.73247 41.2773 88.51627 41.33922 88.38391 C 41.40114 88.25157 41.50204 88.04333 41.56609 87.91545 C 41.63014 87.78757 41.73485 87.58571 41.80086 87.46225 C 41.86687 87.33879 41.97423 87.14449 42.0419 87.0256 C 42.10957 86.90672 42.2196 86.71967 42.28874 86.60538 C 42.3579 86.49109 42.46985 86.31163 42.54031 86.20186 C 42.61078 86.09209 42.72502 85.91945 42.7966 85.81416 C 42.8682 85.70886 42.98389 85.54366 43.0563 85.443 C 43.12871 85.34235 43.24532 85.1849 43.31847 85.08871 C 43.39162 84.99254 43.50986 84.84149 43.58354 84.74971 C 43.65723 84.65794 43.77568 84.5145 43.84958 84.42725 C 43.92348 84.34001 44.04219 84.20374 44.11621 84.1209 C 44.19023 84.03807 44.30922 83.90863 44.3831 83.83017 C 44.45697 83.75172 44.57512 83.62964 44.64879 83.55544 C 44.72247 83.48123 44.84094 83.36531 44.91417 83.29532 C 44.98741 83.22534 45.104 83.11678 45.17657 83.05095 C 45.24915 82.98512 45.3655 82.88261 45.43724 82.82088 C 45.509 82.75914 45.62303 82.66362 45.69379 82.6059 C 45.76453 82.54817 45.87755 82.4587 45.94722 82.40485 C 46.0169 82.35098 46.12778 82.26773 46.19609 82.2177 C 46.26439 82.16768 46.37274 82.09056 46.43951 82.04425 C 46.50629 81.99794 46.61215 81.92667 46.67734 81.88393 C 46.74252 81.8412 46.84592 81.77553 46.90942 81.73625 C 46.97292 81.69699 47.07349 81.63675 47.13501 81.60086 C 47.19653 81.56499 47.29347 81.51022 47.35289 81.4776 C 47.41232 81.44498 47.50623 81.39514 47.56339 81.36565 C 47.62054 81.33615 47.71022 81.29144 47.76495 81.26495 C 47.8197 81.23845 47.90555 81.19836 47.95796 81.17467 C 48.01038 81.15097 48.09294 81.11505 48.14278 81.09406 C 48.19261 81.07304 48.27 81.04164 48.31715 81.0232 C 48.36432 81.00473 48.43825 80.97705 48.4827 80.96098 C 48.52713 80.94492 48.59615 80.92107 48.63751 80.90727 C 48.67886 80.8935 48.74248 80.87325 48.78091 80.86151 C 48.81937 80.84976 48.87915 80.83252 48.91466 80.82268 C 48.95015 80.81284 49.0046 80.79863 49.03687 80.79057 C 49.06914 80.78252 49.1182 80.77103 49.14728 80.76454 C 49.17636 80.75807 49.22066 80.74892 49.24655 80.74384 C 49.27246 80.73877 49.31172 80.73174 49.33408 80.72794 C 49.35643 80.72414 49.38869 80.71912 49.40764 80.71638 C 49.42659 80.71365 49.45506 80.71005 49.4708 80.70819 C 49.48651 80.70634 49.50864 80.7041 49.52097 80.70296 C 49.5333 80.70183 49.5509 80.70053 49.55971 80.69994 C 49.56851 80.69934 49.57927 80.6988 49.58447 80.69858 C 49.58966 80.69836 49.59552 80.69827 49.59729 80.69821 C 49.59904 80.69815 49.59904 80.6982 49.59729 80.69814 C 49.59552 80.69807 49.58966 80.69798 49.58447 80.69775 C 49.57927 80.69753 49.56851 80.69699 49.55971 80.6964 C 49.5509 80.6958 49.53336 80.6945 49.52097 80.69337 C 49.50858 80.69223 49.486 80.68996 49.4704 80.68811 C 49.45479 80.68626 49.42747 80.68275 49.40846 80.68002 C 49.38943 80.67729 49.35571 80.67212 49.33325 80.6683 C 49.3108 80.66449 49.27242 80.65756 49.24655 80.6525 C 49.2207 80.64743 49.17596 80.6382 49.14688 80.63173 C 49.1178 80.62524 49.06902 80.6138 49.03687 80.60576 C 49.00471 80.59772 48.95045 80.58354 48.91507 80.57373 C 48.87967 80.56392 48.82024 80.54675 48.78172 80.53502 C 48.74323 80.52327 48.67899 80.5029 48.63751 80.48909 C 48.59602 80.47527 48.52702 80.45142 48.4827 80.43536 C 48.43835 80.41931 48.36517 80.39182 48.31792 80.37332 C 48.27065 80.35484 48.19188 80.32306 48.142 80.30206 C 48.09212 80.28105 48.01064 80.2455 47.95833 80.22183 C 47.90602 80.19817 47.81975 80.15794 47.76495 80.13142 C 47.71017 80.10492 47.6205 80.06017 47.56339 80.03069 C 47.50627 80.0012 47.4128 79.95154 47.35326 79.91887 C 47.29373 79.8862 47.19577 79.83105 47.1343 79.7952 C 47.07281 79.75932 46.97354 79.69962 46.91016 79.66039 C 46.84676 79.62114 46.74263 79.55511 46.67734 79.51234 C 46.61205 79.46957 46.50629 79.39845 46.43951 79.35216 C 46.37274 79.30588 46.26434 79.2287 46.19609 79.17871 C 46.12782 79.12871 46.01723 79.04556 45.94754 78.9917 C 45.87785 78.93785 45.76462 78.8482 45.69379 78.79044 C 45.62294 78.73267 45.50864 78.63702 45.43692 78.5753 C 45.36522 78.5136 45.2494 78.41136 45.17688 78.34557 C 45.10435 78.27977 44.98737 78.17102 44.91417 78.10107 C 44.84099 78.03111 44.7231 77.91557 44.64938 77.84132 C 44.57567 77.76707 44.45679 77.64445 44.38281 77.56595 C 44.30884 77.48743 44.19019 77.35818 44.11621 77.27538 C 44.04224 77.19257 43.92348 77.05629 43.84958 76.96909 C 43.77568 76.88187 43.65715 76.73846 43.58354 76.64677 C 43.50993 76.55507 43.39206 76.40422 43.31898 76.30809 C 43.24591 76.21194 43.12927 76.05453 43.0568 75.95383 C 42.98433 75.8531 42.86823 75.68747 42.7966 75.58218 C 42.72499 75.47688 42.61101 75.30464 42.54054 75.1949 C 42.47008 75.08516 42.35788 74.90541 42.28874 74.79114 C 42.21962 74.67686 42.11 74.49016 42.04233 74.37125 C 41.97464 74.25233 41.86687 74.05754 41.80086 73.93408 C 41.73485 73.81062 41.63054 73.60928 41.56648 73.48143 C 41.50244 73.35358 41.40117 73.14499 41.33922 73.01263 C 41.27727 72.88026 41.17958 72.66426 41.11993 72.5274 C 41.06027 72.39053 40.96642 72.16745 40.90926 72.02612 C 40.8521 71.88481 40.76236 71.65448 40.70793 71.50882 C 40.65349 71.36316 40.56837 71.1262 40.51686 70.97623 C 40.46536 70.82623 40.38506 70.58218 40.33662 70.42784 C 40.28818 70.2735 40.21281 70.02225 40.16771 69.8638 C 40.1226 69.70535 40.05304 69.44838 40.01143 69.28575 C 39.96982 69.12311 39.90564 68.85825 39.86774 68.69165 C 39.82985 68.52505 39.77223 68.25545 39.73822 68.08495 C 39.70421 67.91443 39.65259 67.63713 39.62263 67.46272 C 39.5927 67.28831 39.54796 67.00586 39.5223 66.8278 C 39.49663 66.64973 39.45885 66.3611 39.4376 66.17937 C 39.41637 65.99765 39.38582 65.70317 39.36923 65.518 C 39.35263 65.33286 39.3297 65.03339 39.31789 64.8448 C 39.30608 64.65622 39.29091 64.35065 39.28406 64.15883 C 39.27722 63.96701 39.2702 63.65714 39.2685 63.46223 C 39.2668 63.26733 39.26814 62.95189 39.27171 62.75398 C 39.2753 62.55609 39.28528 62.23639 39.2943 62.03581 C 39.30331 61.83524 39.32214 61.51161 39.33676 61.30829 C 39.3514 61.10498 39.3794 60.77625 39.39978 60.5704 C 39.42017 60.36456 39.45749 60.0328 39.48375 59.82474 C 39.51003 59.61667 39.55693 59.28091 39.58922 59.07077 C 39.6215 58.86064 39.67805 58.52228 39.7165 58.31013 C 39.75497 58.09799 39.8217 57.75569 39.86644 57.54178 C 39.91118 57.32785 39.98799 56.98354 40.03906 56.76825 C 40.09015 56.55298 40.17711 56.20682 40.23468 55.99019 C 40.29224 55.77356 40.38983 55.42474 40.45403 55.20691 C 40.51822 54.98906 40.62653 54.63895 40.69745 54.42009 C 40.76839 54.20125 40.88753 53.84912 40.96527 53.62956 C 41.04301 53.41 41.1733 53.0576 41.25786 52.83754 C 41.34242 52.61748 41.48341 52.26385 41.57487 52.04347 C 41.66635 51.82309 41.8187 51.4695 41.91719 51.24913 C 42.0157 51.02876 42.1794 50.67542 42.28496 50.45517 C 42.39053 50.23492 42.5654 49.88148 42.67804 49.66171 C 42.7907 49.44194 42.97716 49.09033 43.09695 48.87115 C 43.21674 48.652 43.41441 48.30048 43.54144 48.08202 C 43.66847 47.86354 43.87831 47.51378 44.01257 47.29659 C 44.14684 47.07939 44.36781 46.73242 44.50923 46.51657 C 44.65063 46.30072 44.88304 45.9554 45.03181 45.74077 C 45.18057 45.52614 45.42545 45.18234 45.5815 44.96962 C 45.73755 44.7569 45.99345 44.41803 46.15654 44.20758 C 46.31963 43.99712 46.5866 43.66112 46.75699 43.45279 C 46.92738 43.24446 47.20705 42.9119 47.38474 42.70609 C 47.56244 42.50029 47.85298 42.17235 48.03773 41.9694 C 48.2225 41.76645 48.52452 41.44337 48.7164 41.24336 C 48.90828 41.04333 49.2219 40.72455 49.42075 40.52782 C 49.61958 40.33109 49.94383 40.01842 50.14957 39.82542 C 50.35532 39.63243 50.69078 39.32628 50.90366 39.13681 C 51.11652 38.94736 51.46408 38.64546 51.6839 38.45981 C 51.90373 38.27417 52.26149 37.98007 52.48807 37.79877 C 52.71463 37.61748 53.0838 37.33 53.31697 37.15309 C 53.55013 36.9762 53.9288 36.69608 54.1686 36.52367 C 54.40839 36.35127 54.79884 36.07794 55.04529 35.91048 C 55.29175 35.74301 55.69228 35.47876 55.94493 35.31664 C 56.19759 35.15451 56.60748 34.89873 56.86627 34.74185 C 57.12508 34.58496 57.54515 34.3373 57.81018 34.18584 C 58.07521 34.03438 58.50558 33.79575 58.77647 33.65016 C 59.04738 33.5046 59.48596 33.27612 59.76265 33.1366 C 60.03934 32.99707 60.4885 32.77788 60.77075 32.64455 C 61.05301 32.51123 61.50922 32.30261 61.79695 32.17564 C 62.08467 32.04868 62.55127 31.84985 62.84457 31.72945 C 63.13788 31.60902 63.61255 31.42113 63.9109 31.3077 C 64.20926 31.19426 64.69173 31.01852 64.99493 30.91183 C 65.29816 30.80515 65.78835 30.63832 66.09633 30.53876 C 66.4043 30.43921 66.90211 30.28627 67.21466 30.19426 C 67.52719 30.10223 68.03209 29.95999 68.34888 29.87555 C 68.66566 29.79109 69.17719 29.6623 69.49792 29.58557 C 69.81865 29.50883 70.33571 29.39162 70.66057 29.32256 C 70.98541 29.2535 71.51073 29.14871 71.83925 29.08772 C 72.16779 29.02673 72.69667 28.93588 73.02847 28.88293 C 73.36028 28.82999 73.89554 28.75072 74.23065 28.70607 C 74.56575 28.66142 75.10571 28.59724 75.4438 28.56113 C 75.7819 28.525 76.32663 28.47348 76.66745 28.44565 C 77.00826 28.41782 77.55693 28.3795 77.9002 28.36044 C 78.24348 28.34137 78.79611 28.31848 79.1416 28.30815 C 79.48708 28.29784 80.04295 28.28741 80.39026 28.28595 C 80.73756 28.28448 81.29594 28.29002 81.64479 28.29755 C 81.99362 28.30507 82.55421 28.32373 82.90456 28.34021 C 83.2549 28.35669 83.81844 28.39072 84.16988 28.41632 C 84.52132 28.44193 85.0853 28.48997 85.43755 28.52472 C 85.7898 28.55948 86.3558 28.62299 86.7087 28.6669 C 87.06157 28.7108 87.62744 28.7883 87.98093 28.84119 C 88.3344 28.89407 88.90292 28.98558 89.25633 29.04813 C 89.60973 29.11069 90.17513 29.21997 90.52802 29.29207 C 90.88092 29.36415 91.44734 29.48643 91.7998 29.56775 C 92.15225 29.64906 92.71672 29.78766 93.06831 29.87823 C 93.4199 29.96881 93.98358 30.12067 94.33385 30.22061 C 94.68411 30.32057 95.24394 30.48926 95.59283 30.59868 C 95.94171 30.70808 96.50099 30.89066 96.84846 31.0092 C 97.19594 31.12775 97.75192 31.3252 98.09726 31.45316 C 98.44261 31.58113 98.9948 31.79399 99.33755 31.93156 C 99.6803 32.06914 100.22717 32.29819 100.56754 32.44478 C 100.90791 32.59137 101.4535 32.83228 101.79077 32.98811 C 102.12802 33.14395 102.66406 33.4029 102.9983 33.568 C 103.33255 33.73311 103.86874 34.00406 104.19978 34.17812 C 104.53082 34.35216 105.05717 34.63927 105.38426 34.8225 C 105.71135 35.00572 106.23404 35.30678 106.55727 35.49878 C 106.88051 35.69078 107.39508 36.00578 107.71402 36.2064 C 108.03296 36.40703 108.54182 36.73518 108.85596 36.94473 C 109.17009 37.1543 109.66893 37.49846 109.9781 37.7168 C 110.28726 37.93515 110.77977 38.29166 111.08424 38.51843 C 111.3887 38.7452 111.87373 39.11623 112.17256 39.35123 C 112.47139 39.58621 112.94504 39.96912 113.23807 40.21216 C 113.5311 40.45522 113.99739 40.8517 114.28462 41.10301 C 114.57184 41.35431 115.02698 41.76418 115.30821 42.02345 C 115.58945 42.28275 116.03674 42.70482 116.31168 42.9718 C 116.58662 43.2388 117.02171 43.67317 117.2899 43.94786 C 117.55807 44.22255 117.98334 44.66963 118.24458 44.95158 C 118.50583 45.23354 118.919 45.69075 119.17287 45.98003 C 119.42671 46.26932 119.8276 46.74045 120.07425 47.03659 C 120.32088 47.33272 120.71153 47.81137 120.95045 48.1144 C 121.18939 48.41742 121.5651 48.91086 121.79634 49.22064 C 122.02759 49.53043 122.39346 50.0312 122.61722 50.34717 C 122.84097 50.66312 123.19394 51.17566 123.4091 51.4979 C 123.62427 51.82013 123.96146 52.34152 124.16806 52.66968 C 124.37468 52.99783 124.7 53.52925 124.89824 53.86304 C 125.0965 54.19682 125.4072 54.73634 125.59697 55.07541 C 125.78676 55.41447 126.0859 55.9621 126.26608 56.30682 C 126.44627 56.65157 126.72484 57.2101 126.89566 57.56012 C 127.06648 57.91016 127.335 58.47542 127.49736 58.82959 C 127.65971 59.18378 127.9128 59.75438 128.06594 60.11285 C 128.21906 60.47133 128.45793 61.05019 128.60108 61.41328 C 128.74422 61.77638 128.9644 62.36299 129.09763 62.72989 C 129.23085 63.09679 129.43775 63.68729 129.5613 64.05768 C 129.68486 64.42807 129.8742 65.02545 129.98822 65.39949 C 130.10224 65.77354 130.279 66.37663 130.38304 66.75363 C 130.48709 67.13062 130.64463 67.737 130.73812 68.11671 C 130.8316 68.49643 130.97315 69.10805 131.05687 69.49036 C 131.14061 69.87268 131.2686 70.48767 131.34168 70.87222 C 131.41475 71.25677 131.52126 71.87561 131.58364 72.26201 C 131.64601 72.64839 131.73863 73.26901 131.7913 73.65715 C 131.84398 74.04529 131.92107 74.67 131.96332 75.05951 C 132.00557 75.449 132.06418 76.07413 132.09581 76.46448 C 132.12743 76.85484 132.17009 77.48175 132.19124 77.873 C 132.21239 78.26427 132.23783 78.8928 132.2483 79.28445 C 132.2588 79.6761 132.26689 80.69574 132.26689 80.69574 "/>
<path transform="matrix(1,0,0,-1,1.419,174.484)" stroke-width="1" stroke-linecap="butt" stroke-miterlimit="10" stroke-linejoin="miter" fill="none" stroke="#000080" d="M 173.60355 80.69818 C 173.60355 80.69818 173.58306 82.22765 173.56139 82.81493 C 173.53974 83.4022 173.4896 84.34464 173.44731 84.93094 C 173.40505 85.51723 173.31981 86.456 173.2566 87.04062 C 173.19339 87.62524 173.07616 88.56247 172.99175 89.14452 C 172.90732 89.72655 172.75261 90.65717 172.64809 91.23566 C 172.54357 91.81413 172.36286 92.73883 172.23831 93.31389 C 172.11379 93.88895 171.89693 94.81021 171.75046 95.3804 C 171.60399 95.95058 171.34914 96.85889 171.18256 97.4234 C 171.01598 97.98793 170.73598 98.89047 170.54978 99.44919 C 170.36356 100.0079 170.04747 100.898 169.84049 101.45027 C 169.63349 102.00255 169.28443 102.88477 169.05785 103.42967 C 168.83129 103.9746 168.45305 104.84113 168.20745 105.37772 C 167.96183 105.91432 167.55165 106.76949 167.28754 107.29716 C 167.0234 107.82484 166.58716 108.6626 166.30382 109.18091 C 166.02046 109.69922 165.54724 110.52399 165.24524 111.03282 C 164.94324 111.54167 164.44748 112.35025 164.1271 112.84831 C 163.80672 113.34637 163.27327 114.13567 162.93614 114.62254 C 162.599 115.10942 162.05109 115.88242 161.69718 116.35744 C 161.34326 116.83247 160.75696 117.58376 160.38526 118.04631 C 160.01355 118.50885 159.4066 119.24187 159.01815 119.69128 C 158.62969 120.1407 157.98969 120.84975 157.58547 121.28542 C 157.18125 121.7211 156.52375 122.40958 156.1048 122.83139 C 155.68584 123.25319 155.00014 123.9182 154.56586 124.32559 C 154.13159 124.73297 153.42269 125.37518 152.97475 125.76755 C 152.52681 126.1599 151.79947 126.77708 151.33733 127.15356 C 150.87519 127.53004 150.11985 128.1203 149.64394 128.48102 C 149.16802 128.84174 148.39467 129.40906 147.90727 129.75334 C 147.41989 130.09764 146.6314 130.6351 146.13115 130.9625 C 145.63092 131.28989 144.81421 131.80289 144.30187 132.11302 C 143.78954 132.42316 142.961 132.90538 142.43857 133.19777 C 141.91614 133.49015 141.06856 133.94596 140.53646 134.22034 C 140.00437 134.49474 139.14511 134.91953 138.60356 135.17543 C 138.062 135.43135 137.18433 135.82755 136.63324 136.06487 C 136.08216 136.30217 135.19029 136.66754 134.6316 136.88594 C 134.0729 137.10433 133.17316 137.4401 132.60654 137.63893 C 132.0399 137.83777 131.12122 138.13936 130.54776 138.31908 C 129.97429 138.4988 129.05283 138.77443 128.47335 138.93427 C 127.89386 139.0941 126.95644 139.3314 126.37117 139.4711 C 125.78589 139.61081 124.8442 139.82085 124.25502 139.94121 C 123.66585 140.06159 122.71788 140.23859 122.12485 140.33866 C 121.5318 140.4387 120.57736 140.5831 119.9807 140.6624 C 119.38403 140.74169 118.42368 140.85137 117.82448 140.91017 C 117.22528 140.96898 116.2627 141.0476 115.66202 141.08621 C 115.06136 141.1248 114.09657 141.17021 113.49521 141.18846 C 112.89384 141.2067 111.93002 141.22037 111.3278 141.21779 C 110.72559 141.2152 109.75638 141.19272 109.1548 141.16976 C 108.55324 141.1468 107.59242 141.09601 106.99208 141.05223 C 106.39174 141.00846 105.42651 140.91838 104.82793 140.85417 C 104.22934 140.78995 103.27336 140.67394 102.67778 140.58939 C 102.08221 140.50485 101.12831 140.35028 100.5354 140.24488 C 99.94249 140.13947 98.99301 139.95459 98.40442 139.82959 C 97.81583 139.70458 96.87625 139.48856 96.29315 139.34383 C 95.71005 139.19908 94.77948 138.95116 94.20174 138.78632 C 93.62401 138.62148 92.70102 138.34041 92.12921 138.15575 C 91.5574 137.97107 90.64523 137.65924 90.08049 137.4553 C 89.51573 137.25138 88.61581 136.90904 88.05885 136.6859 C 87.50188 136.46274 86.61447 136.0887 86.06613 135.8469 C 85.51779 135.60509 84.64616 135.20366 84.1068 134.94312 C 83.56743 134.68259 82.70876 134.24825 82.17867 133.96915 C 81.64857 133.69005 80.80582 133.22832 80.28621 132.93161 C 79.76662 132.6349 78.94249 132.14516 78.43369 131.8306 C 77.9249 131.51604 77.11649 130.99625 76.61913 130.66442 C 76.12175 130.3326 75.3338 129.78725 74.84897 129.439 C 74.36414 129.09076 73.59691 128.51915 73.12474 128.1544 C 72.65259 127.78966 71.90465 127.19081 71.44589 126.81015 C 70.98712 126.42949 70.26285 125.80678 69.81818 125.41086 C 69.3735 125.01494 68.67151 124.36778 68.24094 123.95657 C 67.81038 123.54536 67.13028 122.87259 66.71487 122.44702 C 66.29947 122.02145 65.64651 121.32855 65.2469 120.88934 C 64.84729 120.45015 64.21854 119.73427 63.8347 119.28156 C 63.45087 118.82884 62.84789 118.09215 62.48044 117.62646 C 62.11299 117.16078 61.53671 116.40309 61.18631 115.9252 C 60.8359 115.44731 60.28798 114.6715 59.95496 114.18208 C 59.62192 113.69267 59.10153 112.89868 58.786 112.39777 C 58.47046 111.89685 57.97801 111.08308 57.68073 110.5718 C 57.38344 110.0605 56.92198 109.23369 56.64331 108.7127 C 56.36464 108.19174 55.93205 107.34708 55.67223 106.81699 C 55.41238 106.2869 55.01125 105.4307 54.7706 104.89209 C 54.52994 104.35349 54.15903 103.48192 53.93771 102.935 C 53.71638 102.38809 53.37692 101.50433 53.1754 100.95035 C 52.97389 100.39635 52.66666 99.50238 52.48521 98.94217 C 52.30379 98.38197 52.02895 97.47896 51.86765 96.9127 C 51.70636 96.34647 51.4636 95.43266 51.32265 94.86105 C 51.18169 94.28944 50.97198 93.36856 50.8517 92.79294 C 50.73143 92.21732 50.55522 91.29163 50.45566 90.71234 C 50.35611 90.13306 50.21295 89.20068 50.13414 88.61778 C 50.05533 88.03488 49.94551 87.0963 49.88765 86.51114 C 49.8298 85.92598 49.75394 84.98683 49.71712 84.4003 C 49.6803 83.81377 49.63806 82.87091 49.62227 82.28369 C 49.60649 81.69647 49.5981 80.75519 49.60338 80.168 C 49.60866 79.58083 49.63399 78.63875 49.66031 78.05164 C 49.68665 77.46452 49.74583 76.52245 49.79321 75.93645 C 49.84058 75.35043 49.93343 74.41188 50.00175 73.82805 C 50.0701 73.24422 50.19652 72.30965 50.28574 71.7285 C 50.37495 71.14737 50.5349 70.21713 50.64487 69.63951 C 50.75484 69.06187 50.94772 68.13882 51.07834 67.56528 C 51.20895 66.99171 51.43507 66.0747 51.58626 65.50565 C 51.73744 64.9366 51.99663 64.02713 52.16803 63.46388 C 52.33943 62.90063 52.63014 62.0033 52.82167 61.44614 C 53.0132 60.88896 53.33694 59.99887 53.54846 59.44821 C 53.75998 58.89755 54.11526 58.02 54.34622 57.47734 C 54.5772 56.93468 54.96289 56.07135 55.21315 55.53705 C 55.46341 55.00275 55.88062 54.15192 56.1499 53.62637 C 56.41919 53.10081 56.866 52.26535 57.15402 51.74922 C 57.44203 51.23308 57.91951 50.41228 58.22581 49.90639 C 58.53212 49.4005 59.0375 48.59819 59.36172 48.10304 C 59.68596 47.60791 60.22066 46.8218 60.56271 46.33766 C 60.90477 45.85352 61.46796 45.08585 61.82715 44.61372 C 62.18634 44.1416 62.77594 43.39401 63.15158 42.93478 C 63.52722 42.47557 64.143 41.74974 64.5346 41.30396 C 64.92621 40.85815 65.56659 40.15408 65.97403 39.72176 C 66.38145 39.28943 67.04828 38.60622 67.47118 38.18802 C 67.89407 37.7698 68.58429 37.11104 69.02203 36.7075 C 69.45978 36.30399 70.17413 35.6682 70.62619 35.27963 C 71.07826 34.89107 71.81453 34.27988 72.28021 33.90692 C 72.7459 33.53398 73.50398 32.94826 73.98253 32.59161 C 74.46109 32.23499 75.23857 31.67633 75.7294 31.33647 C 76.22025 30.99661 77.01706 30.46527 77.5202 30.14217 C 78.02335 29.81906 78.84143 29.31346 79.35577 29.00775 C 79.87012 28.70204 80.70253 28.22646 81.22726 27.9388 C 81.75198 27.65114 82.60295 27.2041 83.13774 26.93454 C 83.67253 26.66498 84.53787 26.24716 85.0817 25.99593 C 85.62552 25.74467 86.50433 25.35634 87.05724 25.12366 C 87.61015 24.89098 88.50537 24.53265 89.0667 24.31892 C 89.62802 24.10518 90.5346 23.77748 91.10284 23.5831 C 91.6711 23.3887 92.58765 23.09271 93.16228 22.91783 C 93.73691 22.74294 94.664 22.47746 95.24448 22.32265 C 95.82495 22.16785 96.76021 21.937 97.34601 21.80211 C 97.93182 21.66722 98.87555 21.46574 99.46658 21.35046 C 100.05762 21.23517 101.0117 21.06569 101.60588 20.9711 C 102.20006 20.87653 103.1521 20.74278 103.74915 20.66866 C 104.34619 20.59451 105.30923 20.4909 105.909 20.43666 C 106.50876 20.38243 107.47084 20.31134 108.07185 20.27768 C 108.67288 20.24402 109.63908 20.20665 110.24078 20.19405 C 110.8425 20.18144 111.8068 20.17894 112.40865 20.18684 C 113.01051 20.19473 113.97768 20.2226 114.57861 20.25096 C 115.17955 20.27933 116.14009 20.3425 116.73984 20.39133 C 117.33957 20.44016 118.30292 20.53378 118.90115 20.6029 C 119.4994 20.67203 120.45639 20.8 121.05157 20.88957 C 121.64674 20.97914 122.59955 21.1386 123.19086 21.2485 C 123.78215 21.35843 124.72612 21.5516 125.31326 21.68178 C 125.9004 21.81195 126.8402 22.03653 127.42264 22.18674 C 128.0051 22.33693 128.93505 22.5945 129.51116 22.7643 C 130.08727 22.93411 131.00482 23.22139 131.57492 23.41063 C 132.14504 23.59987 133.05683 23.91936 133.62009 24.12822 C 134.18335 24.33708 135.07985 24.68802 135.63465 24.91602 C 136.18944 25.14401 137.07238 25.52495 137.61876 25.77153 C 138.16515 26.0181 139.03582 26.42815 139.57268 26.69325 C 140.10956 26.95836 140.96079 27.39906 141.48825 27.6823 C 142.01573 27.96552 142.8574 28.43336 143.37439 28.73462 C 143.89139 29.03587 144.70864 29.53459 145.21436 29.85356 C 145.72008 30.17253 146.5254 30.69746 147.01941 31.03352 C 147.51342 31.36958 148.29328 31.92337 148.7748 32.27571 C 149.25632 32.62805 150.02074 33.20471 150.48995 33.573 C 150.95915 33.94128 151.70139 34.5455 152.15663 34.93015 C 152.61186 35.31477 153.33023 35.94496 153.77108 36.34532 C 154.21192 36.74568 154.90726 37.40074 155.33391 37.81567 C 155.76058 38.2306 156.43407 38.90717 156.84618 39.33601 C 157.25829 39.76486 157.90798 40.46399 158.30419 40.90654 C 158.7004 41.34909 159.32189 42.06975 159.70183 42.52556 C 160.08177 42.98138 160.6796 43.72327 161.04259 44.19183 C 161.40558 44.66042 161.97272 45.42198 162.31813 45.90276 C 162.66353 46.38354 163.20325 47.16435 163.53205 47.65703 C 163.86083 48.14969 164.377 48.94986 164.68787 49.45364 C 164.99875 49.95741 165.48 50.77434 165.77272 51.28795 C 166.06543 51.80157 166.523 52.63289 166.79759 53.1555 C 167.07219 53.67812 167.49733 54.52249 167.75189 55.05463 C 168.00646 55.58676 168.39669 56.44962 168.6323 56.99081 C 168.86792 57.532 169.23332 58.4066 169.45012 58.95517 C 169.66692 59.50372 169.99843 60.3891 170.19487 60.94449 C 170.39131 61.49988 170.68936 62.39626 170.86592 62.95807 C 171.0425 63.5199 171.31064 64.4262 171.46755 64.99374 C 171.62445 65.5613 171.86179 66.47606 171.99678 67.0486 C 172.13179 67.62112 172.32627 68.54344 172.44063 69.1202 C 172.555 69.69695 172.72641 70.62492 172.82108 71.20546 C 172.91573 71.78601 173.04872 72.7209 173.1229 73.30444 C 173.19705 73.88799 173.30275 74.82578 173.35567 75.41127 C 173.40859 75.99678 173.4731 76.9376 173.50438 77.52437 C 173.53568 78.11113 173.57056 79.05318 173.5812 79.64032 C 173.59188 80.22745 173.59188 81.16888 173.5812 81.75601 C 173.57056 82.34315 173.53568 83.2852 173.50438 83.87196 C 173.4731 84.45874 173.40859 85.39955 173.35567 85.98506 C 173.30275 86.57056 173.19739 87.50853 173.1229 88.09189 C 173.04839 88.67525 172.9126 89.60933 172.81864 90.18958 C 172.72467 90.76982 172.56032 91.69708 172.44562 92.27397 C 172.3309 92.85085 172.1275 93.7748 171.99182 94.34746 C 171.85613 94.9201 171.62409 95.83383 171.46755 96.4014 C 171.311 96.96896 171.0401 97.87625 170.86353 98.43808 C 170.68695 98.9999 170.39063 99.89519 170.19487 100.45064 C 169.99912 101.00609 169.6687 101.89276 169.45258 102.44138 C 169.23644 102.99 168.8731 103.86415 168.63713 104.40482 C 168.40117 104.94547 168.00713 105.80609 167.75189 106.33817 C 167.49668 106.87024 167.07152 107.71616 166.79759 108.23965 C 166.52367 108.76317 166.07094 109.59766 165.77758 110.11134 C 165.48419 110.62503 164.99434 111.43912 164.68312 111.94205 C 164.37189 112.44496 163.86254 113.24373 163.5344 113.73616 C 163.20626 114.2286 162.66385 115.01004 162.31813 115.49126 C 161.97241 115.97247 161.40526 116.73555 161.04259 117.2045 C 160.67992 117.67345 160.08478 118.41548 159.70418 118.87119 C 159.32358 119.32687 158.6954 120.04633 158.2995 120.48892 C 157.9036 120.93153 157.26222 121.63193 156.85077 122.0612 C 156.43932 122.49048 155.76122 123.16838 155.33391 123.5829 C 154.90662 123.9974 154.21192 124.64905 153.77108 125.0488 C 153.33023 125.44853 152.61156 126.0791 152.15663 126.46399 C 151.70169 126.84888 150.96141 127.45418 150.4922 127.82278 C 150.023 128.19139 149.25695 128.76845 148.7748 129.12062 C 148.29265 129.47281 147.51088 130.02504 147.0172 130.36119 C 146.52352 130.69733 145.72197 131.22432 145.21656 131.54337 C 144.71114 131.86241 143.8911 132.35932 143.37439 132.66065 C 142.8577 132.96199 142.02028 133.43196 141.49251 133.71526 C 140.96475 133.99855 140.10802 134.43737 139.57056 134.70244 C 139.0331 134.96752 138.16486 135.37918 137.61876 135.62584 C 137.07266 135.87252 136.18944 136.25275 135.63465 136.48032 C 135.07985 136.70789 134.18282 137.05707 133.62009 137.26612 C 133.05738 137.47518 132.1485 137.79738 131.57895 137.9871 C 131.00942 138.17682 130.09183 138.4639 129.51517 138.63352 C 128.93849 138.80312 128.00536 139.05977 127.42264 139.2096 C 126.83992 139.35944 125.90236 139.58351 125.3152 139.71343 C 124.72806 139.84334 123.78189 140.03568 123.19086 140.14595 C 122.59981 140.25623 121.6505 140.41847 121.05533 140.5083 C 120.46014 140.59813 119.49942 140.72429 118.90115 140.79344 C 118.3029 140.86258 117.3432 140.95804 116.74347 141.00662 C 116.14374 141.0552 115.17982 141.1155 114.57861 141.14363 C 113.9774 141.17177 113.01222 141.20157 112.41037 141.20948 C 111.8085 141.21738 110.84274 141.21344 110.24078 141.2006 C 109.63884 141.18778 108.67288 141.1504 108.07185 141.11698 C 107.47084 141.08354 106.5083 141.01343 105.909 140.95967 C 105.3097 140.90592 104.34995 140.80393 103.75246 140.72953 C 103.15498 140.65512 102.19688 140.51819 101.60268 140.42339 C 101.00845 140.32859 100.06032 140.16123 99.46971 140.0462 C 98.87912 139.93117 97.93184 139.7291 97.34601 139.59423 C 96.7602 139.45935 95.82794 139.22891 95.24747 139.07411 C 94.66699 138.91931 93.73732 138.65345 93.16228 138.4785 C 92.58723 138.30358 91.6709 138.00749 91.10284 137.81324 C 90.53479 137.61899 89.62903 137.29209 89.0681 137.07843 C 88.50716 136.86479 87.61269 136.50588 87.05995 136.27335 C 86.50723 136.0408 85.62851 135.65377 85.08432 135.40244 C 84.54015 135.1511 83.67255 134.73143 83.13774 134.46179 C 82.60294 134.19216 81.75449 133.74666 81.22975 133.45902 C 80.70503 133.17136 79.87013 132.69428 79.35577 132.38858 C 78.84142 132.08289 78.02538 131.57863 77.52254 131.25568 C 77.0197 130.93274 76.22284 130.40096 75.73167 130.0609 C 75.24051 129.72084 74.46141 129.16156 73.98253 128.80472 C 73.50366 128.44786 72.7459 127.86185 72.28021 127.48889 C 71.81453 127.11594 71.07799 126.50496 70.62619 126.1167 C 70.17441 125.72844 69.46172 125.0942 69.02399 124.69054 C 68.58624 124.28688 67.89433 123.62596 67.47118 123.2074 C 67.04802 122.78882 66.38145 122.10588 65.97403 121.67369 C 65.56659 121.2415 64.92621 120.53806 64.5346 120.09238 C 64.143 119.64671 63.52722 118.92076 63.15158 118.46155 C 62.77594 118.00232 62.18623 117.25458 61.82715 116.78261 C 61.46806 116.31064 60.90552 115.54407 60.56346 115.05984 C 60.2214 114.57562 59.68607 113.78787 59.36172 113.2926 C 59.0374 112.79733 58.53204 111.9959 58.22581 111.49026 C 57.91959 110.98463 57.44266 110.16447 57.15465 109.64828 C 56.86662 109.13211 56.4192 108.29552 56.1499 107.76996 C 55.8806 107.24442 55.46393 106.39482 55.21367 105.86046 C 54.96341 105.3261 54.57715 104.46103 54.34622 103.91853 C 54.11531 103.37602 53.76076 102.50078 53.54935 101.95052 C 53.33792 101.40024 53.01405 100.50995 52.82246 99.95259 C 52.63087 99.39522 52.33978 98.49643 52.1684 97.9333 C 51.99701 97.3702 51.7384 96.463 51.5872 95.89398 C 51.436 95.32497 51.20934 94.40628 51.0786 93.83228 C 50.94786 93.25826 50.7548 92.33427 50.64487 91.75682 C 50.53493 91.17938 50.37534 90.25156 50.28612 89.67041 C 50.1969 89.08926 50.07014 88.15248 50.00175 87.56828 C 49.93338 86.98409 49.84058 86.04573 49.79321 85.45988 C 49.74583 84.87405 49.68669 83.93303 49.66035 83.34592 C 49.63403 82.7588 49.60866 81.81569 49.60338 81.22833 C 49.5981 80.64098 49.60652 79.69951 49.62227 79.11264 C 49.63803 78.52577 49.68015 77.585 49.71696 76.99847 C 49.75378 76.41193 49.82983 75.47037 49.88765 74.8852 C 49.94548 74.30003 50.05504 73.3637 50.13382 72.78098 C 50.2126 72.19824 50.35591 71.26476 50.45546 70.6853 C 50.55502 70.10585 50.73116 69.18042 50.85146 68.60458 C 50.97177 68.02875 51.18167 67.10675 51.32265 66.53499 C 51.46362 65.96323 51.70636 65.04982 51.86765 64.48363 C 52.02895 63.91742 52.30379 63.01437 52.48521 62.45416 C 52.66666 61.89395 52.97389 60.99998 53.1754 60.446 C 53.37692 59.892 53.71652 59.0079 53.93771 58.46133 C 54.15889 57.91475 54.52895 57.04524 54.76959 56.50659 C 55.01024 55.96794 55.41249 55.10907 55.67223 54.57909 C 55.93195 54.04912 56.36298 53.20766 56.64154 52.68686 C 56.92012 52.16605 57.38274 51.33682 57.68008 50.82541 C 57.97743 50.314 58.46924 49.5016 58.78465 49.0009 C 59.10008 48.50018 59.6204 47.70625 59.9535 47.21657 C 60.28662 46.72688 60.83505 45.94958 61.18555 45.47153 C 61.53606 44.99347 62.11221 44.23668 62.47964 43.771 C 62.84709 43.30533 63.45001 42.56783 63.83383 42.11511 C 64.21765 41.6624 64.84645 40.94716 65.24605 40.50809 C 65.64565 40.069 66.29855 39.37604 66.71394 38.95047 C 67.12935 38.5249 67.80957 37.85197 68.23999 37.4409 C 68.6704 37.02982 69.37152 36.38367 69.81618 35.98767 C 70.26083 35.59167 70.98608 34.96745 71.44484 34.58679 C 71.90358 34.20613 72.65044 33.60875 73.12259 33.2441 C 73.59474 32.87943 74.36285 32.30699 74.84782 31.95844 C 75.33281 31.6099 76.12076 31.06355 76.61795 30.73187 C 77.11514 30.40019 77.9225 29.88234 78.4313 29.56784 C 78.9401 29.25334 79.76541 28.76193 80.285 28.46513 C 80.80458 28.16833 81.64642 27.70737 82.17615 27.42865 C 82.70586 27.14993 83.56334 26.71689 84.10287 26.4563 C 84.64241 26.19571 85.51628 25.79243 86.06477 25.55048 C 86.61328 25.30852 87.49933 24.93546 88.0561 24.71243 C 88.61287 24.48943 89.5131 24.14705 90.07762 23.94305 C 90.64215 23.73906 91.55286 23.42725 92.12485 23.24213 C 92.69684 23.05702 93.6221 22.77385 94.20024 22.60883 C 94.77837 22.44382 95.7083 22.19753 96.29163 22.05275 C 96.87494 21.90796 97.81606 21.69022 98.40442 21.56523 C 98.99278 21.44025 99.93973 21.25674 100.5322 21.1518 C 101.12466 21.04684 102.07901 20.8933 102.67456 20.80875 C 103.27011 20.7242 104.22629 20.60643 104.82463 20.54233 C 105.42296 20.47824 106.3862 20.39081 106.987 20.34676 C 107.5878 20.30272 108.55302 20.24821 109.1548 20.22488 C 109.75659 20.20155 110.7226 20.18077 111.32433 20.17854 C 111.92604 20.1763 112.88982 20.19081 113.49167 20.20868 C 114.09352 20.22656 115.06163 20.26889 115.66202 20.30748 C 116.26242 20.34607 117.22003 20.42766 117.81897 20.4868 C 118.41792 20.54596 119.38188 20.65457 119.97879 20.73386 C 120.5757 20.81313 121.52776 20.95836 122.12108 21.05829 C 122.71439 21.15823 123.66533 21.33429 124.25502 21.45418 C 124.84471 21.57407 125.78616 21.7827 126.37117 21.92236 C 126.95616 22.06204 127.89212 22.30096 128.47133 22.46089 C 129.05054 22.6208 129.9729 22.89513 130.54579 23.07503 C 131.1187 23.25493 132.03356 23.55836 132.60045 23.7575 C 133.16735 23.95665 134.07266 24.29211 134.6316 24.5104 C 135.19055 24.72868 136.07854 25.09372 136.62905 25.3308 C 137.17957 25.56787 138.05754 25.96313 138.59938 26.21909 C 139.14122 26.47504 140.00164 26.90123 140.53432 27.17558 C 141.067 27.44994 141.91584 27.90419 142.43857 28.19649 C 142.9613 28.48877 143.79015 28.97212 144.30187 29.28226 C 144.8136 29.59239 145.62656 30.10452 146.12679 30.43175 C 146.62703 30.75899 147.4196 31.29648 147.90727 31.64082 C 148.39496 31.98518 149.1664 32.55315 149.64168 32.9137 C 150.11698 33.27423 150.87104 33.86272 151.33286 34.23941 C 151.79468 34.6161 152.52191 35.23627 152.97017 35.62871 C 153.41844 36.02113 154.12871 36.66078 154.56362 37.06786 C 154.99854 37.47493 155.68552 38.1408 156.1048 38.5627 C 156.52407 38.9846 157.1819 39.67271 157.58547 40.10866 C 157.98903 40.54462 158.62537 41.25543 159.0135 41.70474 C 159.40164 42.15404 160.01055 42.88506 160.38289 43.34702 C 160.75524 43.80898 161.34293 44.55914 161.69718 45.03427 C 162.05142 45.5094 162.59966 46.28401 162.93614 46.77147 C 163.27262 47.25891 163.80197 48.0498 164.12236 48.54753 C 164.44275 49.04526 164.94257 49.85074 165.24524 50.35884 C 165.54792 50.86694 166.02046 51.69078 166.30382 52.20958 C 166.58716 52.72838 167.0234 53.57 167.28754 54.09799 C 167.55165 54.62599 167.96216 55.47859 168.20745 56.01506 C 168.45272 56.55151 168.82889 57.4196 169.05547 57.96451 C 169.28203 58.50943 169.63349 59.3904 169.84049 59.9425 C 170.04747 60.49461 170.36115 61.38504 170.54735 61.94374 C 170.73357 62.50244 171.01564 63.40451 171.18256 63.96935 C 171.34947 64.53416 171.60466 65.44452 171.75046 66.01474 C 171.89624 66.58495 172.10886 67.50435 172.2334 68.07907 C 172.35793 68.6538 172.54288 69.57828 172.64809 70.15706 C 172.7533 70.73584 172.90732 71.66858 172.99175 72.25061 C 173.07616 72.83266 173.19339 73.76779 173.2566 74.35208 C 173.31981 74.93637 173.40505 75.87547 173.44731 76.46176 C 173.4896 77.04807 173.5404 77.9905 173.56139 78.57777 C 173.58237 79.16505 173.5986 80.69453 173.5986 80.69453 "/>
</g>
<path transform="matrix(1,0,0,-1,1.419,174.484)" stroke-width="1" stroke-linecap="butt" stroke-miterlimit="10" stroke-linejoin="miter" fill="none" stroke="#808080" d="M 8.26683 78.57219 L 8.26683 82.82414 M 90.93518 78.57219 L 90.93518 82.82414 M 132.26937 78.57219 L 132.26937 82.82414 M 173.60355 78.57219 L 173.60355 82.82414 "/>
<path transform="matrix(1,0,0,-1,1.419,174.484)" stroke-width="1" stroke-linecap="butt" stroke-miterlimit="10" stroke-linejoin="miter" fill="none" stroke="#808080" d="M 47.47508 0 L 51.72691 0 M 47.47508 40.34909 L 51.72691 40.34909 M 47.47508 121.04727 L 51.72691 121.04727 M 47.47508 161.39636 L 51.72691 161.39636 "/>
<path transform="matrix(1,0,0,-1,1.419,174.484)" stroke-width="1" stroke-linecap="butt" stroke-miterlimit="10" stroke-linejoin="miter" fill="none" stroke="#000000" d="M 0 80.69818 L 192.2781 80.69818 "/>
<path transform="matrix(1,0,0,-1,193.69712,93.78581)" d="M 1.99252 0 L -1.19551 1.59401 L 0 0 L -1.19551 -1.59401 "/>
<path transform="matrix(1,0,0,-1,1.419,174.484)" stroke-width="1" stroke-linecap="butt" stroke-miterlimit="10" stroke-linejoin="miter" fill="none" stroke="#000000" d="M 49.60101 0 L 49.60101 159.40384 "/>
<path transform="matrix(0,-1,-1,-0,51.020009,15.080154)" d="M 1.99252 0 L -1.19551 1.59401 L 0 0 L -1.19551 -1.59401 "/>
<symbol id="font_1_1">
<path d="M .57600006 0 C .59300008 0 .611 0 .611 .019999996 C .611 .040000008 .59300008 .040000008 .57600006 .040000008 L .035000005 .040000008 C .018 .040000008 0 .040000008 0 .019999996 C 0 0 .018 0 .035000005 0 L .57600006 0 Z "/>
</symbol>
<use xlink:href="#font_1_1" transform="matrix(9.9626,0,0,-9.9626,4.147896,103.56159)"/>
<symbol id="font_2_1">
<path d="M .205 .64000007 C .205 .66400006 .205 .666 .18200003 .666 C .120000008 .60200008 .032000007 .60200008 0 .60200008 L 0 .57100006 C .020000004 .57100006 .07900001 .57100006 .13100001 .597 L .13100001 .079 C .13100001 .043 .128 .031000002 .038000004 .031000002 L .0060000049 .031000002 L .0060000049 0 C .04100001 .003 .128 .003 .168 .003 C .20800002 .003 .29500003 .003 .33000005 0 L .33000005 .031000002 L .29800005 .031000002 C .20800002 .031000002 .205 .042000005 .205 .079 L .205 .64000007 Z "/>
</symbol>
<use xlink:href="#font_2_1" transform="matrix(9.9626,0,0,-9.9626,11.955671,105.85299)"/>
<use xlink:href="#font_2_1" transform="matrix(9.9626,0,0,-9.9626,90.74867,105.85299)"/>
<symbol id="font_2_2">
<path d="M .07700001 .07700001 L .18300002 .18 C .33900003 .31800003 .39900003 .372 .39900003 .47200004 C .39900003 .586 .30900003 .666 .18700002 .666 C .074 .666 0 .574 0 .485 C 0 .42900003 .05 .42900003 .053000008 .42900003 C .07000001 .42900003 .105000007 .441 .105000007 .48200003 C .105000007 .508 .08700001 .53400006 .052000006 .53400006 C .044000005 .53400006 .042000008 .53400006 .039 .53300008 C .062000004 .59800007 .11600001 .63500007 .17400001 .63500007 C .26500003 .63500007 .308 .554 .308 .47200004 C .308 .39200003 .25800003 .31300003 .20300003 .25100003 L .011000004 .037 C 0 .026 0 .024 0 0 L .37100003 0 L .39900003 .17400001 L .374 .17400001 C .36900003 .14400001 .36200003 .1 .352 .085 C .345 .07700001 .279 .07700001 .257 .07700001 L .07700001 .07700001 Z "/>
</symbol>
<use xlink:href="#font_2_2" transform="matrix(9.9626,0,0,-9.9626,131.69412,105.85299)"/>
<symbol id="font_2_3">
<path d="M .24800003 .37400005 C .33 .40100003 .388 .47100006 .388 .55 C .388 .632 .3 .688 .204 .688 C .10300001 .688 .027000003 .628 .027000003 .55200007 C .027000003 .519 .049000004 .5 .078 .5 C .109000008 .5 .12900001 .522 .12900001 .55100008 C .12900001 .6010001 .082 .6010001 .067 .6010001 C .098 .65000006 .164 .66300007 .20000002 .66300007 C .24100003 .66300007 .29600004 .64100006 .29600004 .55100008 C .29600004 .53900006 .29400004 .48100005 .268 .43700005 C .238 .38900004 .204 .38600005 .17900002 .38500003 C .171 .38400004 .14700002 .38200004 .14000002 .38200004 C .132 .38100005 .125 .38000003 .125 .37000004 C .125 .35900004 .132 .35900004 .14900002 .35900004 L .19300002 .35900004 C .275 .35900004 .312 .29100005 .312 .193 C .312 .057000005 .24300003 .028 .199 .028 C .15600002 .028 .081 .045 .046000005 .104 C .081 .09900001 .11200001 .12100001 .11200001 .15900001 C .11200001 .19500001 .085 .215 .056 .215 C .031999999 .215 0 .201 0 .157 C 0 .06600001 .093 0 .20200002 0 C .32400004 0 .41500003 .091000009 .41500003 .193 C .41500003 .27500005 .35200004 .35300005 .24800003 .37400005 Z "/>
</symbol>
<use xlink:href="#font_2_3" transform="matrix(9.9626,0,0,-9.9626,172.94843,106.07217)"/>
<use xlink:href="#font_1_1" transform="matrix(9.9626,0,0,-9.9626,33.470899,174.9876)"/>
<use xlink:href="#font_2_2" transform="matrix(9.9626,0,0,-9.9626,40.890134,177.27899)"/>
<use xlink:href="#font_1_1" transform="matrix(9.9626,0,0,-9.9626,33.470899,134.6396)"/>
<use xlink:href="#font_2_1" transform="matrix(9.9626,0,0,-9.9626,41.278676,136.931)"/>
<use xlink:href="#font_2_1" transform="matrix(9.9626,0,0,-9.9626,41.27867,56.648996)"/>
<use xlink:href="#font_2_2" transform="matrix(9.9626,0,0,-9.9626,40.89013,16.299988)"/>
<symbol id="font_3_1">
<path d="M .305 .31300003 C .311 .33900003 .334 .43100003 .404 .43100003 C .409 .43100003 .433 .43100003 .454 .418 C .426 .41300003 .40600003 .388 .40600003 .36400003 C .40600003 .34800003 .417 .32900004 .444 .32900004 C .46600003 .32900004 .498 .34700004 .498 .38700003 C .498 .43900005 .439 .45300005 .405 .45300005 C .347 .45300005 .312 .40000005 .3 .37700004 C .275 .44300003 .221 .45300005 .19200002 .45300005 C .08800001 .45300005 .031000002 .32400004 .031000002 .29900003 C .031000002 .28900004 .041 .28900004 .043000007 .28900004 C .051000008 .28900004 .054000006 .291 .056 .3 C .09 .40600003 .156 .43100003 .19000001 .43100003 C .209 .43100003 .244 .42200003 .244 .36400003 C .244 .33300004 .22700002 .26600004 .19000001 .126 C .17400001 .064 .13900002 .022000002 .095000009 .022000002 C .08900001 .022000002 .06600001 .022000002 .045 .035 C .07000001 .040000004 .09200001 .061 .09200001 .089 C .09200001 .116000007 .07000001 .124000009 .055000009 .124000009 C .025 .124000009 0 .098000008 0 .06600001 C 0 .020000002 .050000006 0 .094000007 0 C .16000001 0 .19600001 .07000001 .19900002 .076000008 C .21100001 .039 .24700003 0 .307 0 C .41 0 .467 .12900001 .467 .15400002 C .467 .16400002 .458 .16400002 .455 .16400002 C .446 .16400002 .444 .16000001 .442 .15300001 C .409 .046 .341 .022000002 .30900003 .022000002 C .27 .022000002 .254 .054 .254 .08800001 C .254 .11000001 .26 .13200002 .271 .17600002 L .305 .31300003 Z "/>
</symbol>
<use xlink:href="#font_3_1" transform="matrix(9.9626,0,0,-9.9626,199.52692,96.02858)"/>
<symbol id="font_3_2">
<path d="M .45700003 .586 C .461 .6 .461 .602 .461 .609 C .461 .62700006 .447 .63600006 .432 .63600006 C .42200003 .63600006 .40600003 .63 .397 .615 C .395 .61 .387 .579 .38300003 .561 C .37600003 .535 .36900003 .508 .363 .48100005 L .318 .301 C .314 .286 .271 .21600002 .20500002 .21600002 C .15400002 .21600002 .143 .26000003 .143 .29700003 C .143 .34300003 .16000001 .40500004 .194 .49300004 C .21000001 .53400006 .21400002 .545 .21400002 .56500008 C .21400002 .61 .18200001 .6470001 .13200002 .6470001 C .037 .6470001 0 .50200006 0 .49300004 C 0 .48300005 .01 .48300005 .012 .48300005 C .022000002 .48300005 .023 .485 .028000003 .50100007 C .055000009 .595 .095000009 .625 .12900001 .625 C .13700001 .625 .15400002 .625 .15400002 .59300008 C .15400002 .568 .14400001 .54200008 .13700001 .523 C .097 .41700004 .079 .36 .079 .31300003 C .079 .224 .142 .194 .201 .194 C .24000003 .194 .274 .21100001 .30200003 .23900002 C .289 .187 .277 .13800001 .237 .08500001 C .21100001 .051 .17300001 .022 .127 .022 C .113000009 .022 .068 .025000006 .051000008 .06400001 C .067 .06400001 .080000009 .06400001 .094000007 .076000008 C .104 .08500001 .11400001 .098000008 .11400001 .117000009 C .11400001 .148 .087000008 .15200001 .07700001 .15200001 C .054000006 .15200001 .021 .136 .021 .087000008 C .021 .037 .065000008 0 .127 0 C .23 0 .333 .091000009 .361 .20400001 L .45700003 .586 Z "/>
</symbol>
<use xlink:href="#font_3_2" transform="matrix(9.9626,0,0,-9.9626,48.69691,9.652334)"/>
</svg>
