<?xml version="1.0" encoding="UTF-8" standalone="no"?>
<!DOCTYPE svg PUBLIC "-//W3C//DTD SVG 1.1//EN" "http://www.w3.org/Graphics/SVG/1.1/DTD/svg11.dtd">
<svg xmlns="http://www.w3.org/2000/svg" xmlns:xlink="http://www.w3.org/1999/xlink" version="1.1" width="205.417pt" height="178.002pt" viewBox="0 0 205.417 178.002">
<path transform="matrix(1,0,0,-1,.199,171.62599)" stroke-width="1" stroke-linecap="butt" stroke-miterlimit="10" stroke-linejoin="miter" fill="none" stroke="#808080" d="M 77.05948 78.56915 L 77.05948 82.8211 M 110.94838 78.56915 L 110.94838 82.8211 M 144.88045 78.56915 L 144.88045 82.8211 M 178.72618 78.56915 L 178.72618 82.8211 "/>
<path transform="matrix(1,0,0,-1,.199,171.62599)" stroke-width="1" stroke-linecap="butt" stroke-miterlimit="10" stroke-linejoin="miter" fill="none" stroke="#808080" d="M 41.04463 0 L 45.2965 0 M 41.04463 26.89838 L 45.2965 26.89838 M 41.04463 53.79675 L 45.2965 53.79675 M 41.04463 107.59352 L 45.2965 107.59352 M 41.04463 134.4919 L 45.2965 134.4919 M 41.04463 161.39028 L 45.2965 161.39028 "/>
<path transform="matrix(1,0,0,-1,.199,171.62599)" stroke-width="1" stroke-linecap="butt" stroke-miterlimit="10" stroke-linejoin="miter" fill="none" stroke="#000000" d="M 0 80.69513 L 192.27507 80.69513 "/>
<path transform="matrix(1,0,0,-1,192.47408,90.93086)" d="M 1.99252 0 L -1.19551 1.59401 L 0 0 L -1.19551 -1.59401 "/>
<path transform="matrix(1,0,0,-1,.199,171.62599)" stroke-width="1" stroke-linecap="butt" stroke-miterlimit="10" stroke-linejoin="miter" fill="none" stroke="#000000" d="M 43.17058 0 L 43.17058 159.39775 "/>
<path transform="matrix(0,-1,-1,-0,43.369585,12.228241)" d="M 1.99252 0 L -1.19551 1.59401 L 0 0 L -1.19551 -1.59401 "/>
<symbol id="font_0_2">
<path d="M .246 .38000003 L .36 .38000003 C .345 .31700004 .319 .21300002 .319 .13000001 C .319 .123 .319 .086 .328 .05 C .338 .012000001 .347 0 .367 0 C .388 0 .41 .018000002 .41 .041 C .41 .048 .409 .051000004 .403 .064 C .372 .134 .372 .20800002 .372 .23100002 C .372 .256 .372 .3 .389 .38000003 L .50600007 .38000003 C .519 .38000003 .556 .38000003 .556 .41600005 C .556 .44200004 .53400006 .44200004 .51500007 .44200004 L .16900002 .44200004 C .14500001 .44200004 .11000001 .44200004 .063 .395 C .036 .36800004 0 .31300003 0 .305 C 0 .29400004 .011000002 .29400004 .014 .29400004 C .022000002 .29400004 .024000003 .29600004 .030000003 .30600003 C .079 .38000003 .14000002 .38000003 .16000001 .38000003 L .21700002 .38000003 C .17400001 .22900002 .105 .087000008 .098 .072000008 C .091000009 .058000003 .081 .037 .081 .029000003 C .081 .016 .09 0 .11200001 0 C .14800002 0 .15700002 .036000004 .17800002 .117000009 L .246 .38000003 Z "/>
</symbol>
<use xlink:href="#font_0_2" transform="matrix(8.9664,0,0,-8.9664,74.702098,100.28761)"/>
<path transform="matrix(1,0,0,-1,74.46,103.74699)" stroke-width="1" stroke-linecap="butt" stroke-miterlimit="10" stroke-linejoin="miter" fill="none" stroke="#000000" d="M 0 0 L 5.596 0 "/>
<symbol id="font_1_4">
<path d="M 0 .19600001 L 0 .165 L .273 .165 L .273 .079 C .273 .042000005 .27 .031000002 .19500001 .031000002 L .17300001 .031000002 L .17300001 0 C .23600002 .003 .306 .003 .313 .003 C .318 .003 .39000003 .003 .453 0 L .453 .031000002 L .431 .031000002 C .356 .031000002 .35300002 .042000005 .35300002 .079 L .35300002 .165 L .455 .165 L .455 .19600001 L .35300002 .19600001 L .35300002 .65000006 C .35300002 .67 .35300002 .67700007 .334 .67700007 C .322 .67700007 .321 .67600008 .312 .66200008 L 0 .19600001 M .032000007 .19600001 L .279 .56600007 L .279 .19600001 L .032000007 .19600001 Z "/>
</symbol>
<use xlink:href="#font_1_4" transform="matrix(8.9664,0,0,-8.9664,75.21403,112.068988)"/>
<use xlink:href="#font_0_2" transform="matrix(8.9664,0,0,-8.9664,108.590099,100.28761)"/>
<path transform="matrix(1,0,0,-1,108.348,103.74699)" stroke-width="1" stroke-linecap="butt" stroke-miterlimit="10" stroke-linejoin="miter" fill="none" stroke="#000000" d="M 0 0 L 5.596 0 "/>
<symbol id="font_1_2">
<path d="M .411 .177 L .38300003 .177 C .381 .164 .37300004 .105000007 .36 .089 C .35400004 .080000009 .28500004 .080000009 .26500003 .080000009 L .08700001 .080000009 L .18600002 .17400001 C .35000003 .316 .411 .36900003 .411 .47100003 C .411 .586 .316 .666 .19300002 .666 C .07800001 .666 0 .57500007 0 .48400004 C 0 .43400003 .043 .42900003 .052000006 .42900003 C .074 .42900003 .104 .44500003 .104 .48100005 C .104 .51100006 .083000008 .53300008 .052000006 .53300008 C .047000003 .53300008 .044000005 .53300008 .040000004 .532 C .063999999 .60300007 .128 .63500007 .18200001 .63500007 C .284 .63500007 .319 .54 .319 .47100003 C .319 .36900003 .24200002 .286 .194 .23400001 L .011 .036000004 C 0 .025 0 .023000002 0 0 L .38300003 0 L .411 .177 Z "/>
</symbol>
<use xlink:href="#font_1_2" transform="matrix(8.9664,0,0,-8.9664,109.299289,112.068988)"/>
<symbol id="font_1_3">
<path d="M .262 .37400005 C .35500003 .40900005 .39900003 .48200003 .39900003 .55100008 C .39900003 .628 .314 .688 .21000003 .688 C .106000009 .688 .028 .62900009 .028 .55300006 C .028 .52000007 .05 .50100007 .07900001 .50100007 C .10800001 .50100007 .12900001 .522 .12900001 .55100008 C .12900001 .586 .105000007 .6010001 .07100001 .6010001 C .097 .64300009 .158 .66300007 .207 .66300007 C .29 .66300007 .306 .59700009 .306 .55 C .306 .52000007 .3 .47200004 .275 .43400005 C .244 .38900004 .209 .38700003 .18 .38500003 C .15500002 .38300006 .15300001 .38300006 .14500001 .38300006 C .136 .38200004 .128 .38100005 .128 .37000004 C .128 .35700003 .136 .35700003 .15300001 .35700003 L .20000002 .35700003 C .287 .35700003 .32500003 .28700004 .32500003 .192 C .32500003 .064 .257 .028 .20600002 .028 C .187 .028 .09 .033000005 .045000007 .107 C .081 .102000009 .10900001 .127 .10900001 .16100002 C .10900001 .194 .08400001 .215 .055000005 .215 C .030000005 .215 0 .2 0 .158 C 0 .069000009 .09300001 0 .209 0 C .334 0 .42700003 .09 .42700003 .192 C .42700003 .279 .358 .35300005 .262 .37400005 Z "/>
</symbol>
<use xlink:href="#font_1_3" transform="matrix(8.9664,0,0,-8.9664,140.36156,102.304248)"/>
<use xlink:href="#font_0_2" transform="matrix(8.9664,0,0,-8.9664,144.8261,102.20562)"/>
<path transform="matrix(1,0,0,-1,139.976,105.66399)" stroke-width="1" stroke-linecap="butt" stroke-miterlimit="10" stroke-linejoin="miter" fill="none" stroke="#000000" d="M 0 0 L 10.204 0 "/>
<use xlink:href="#font_1_4" transform="matrix(8.9664,0,0,-8.9664,143.03403,113.986988)"/>
<use xlink:href="#font_0_2" transform="matrix(8.9664,0,0,-8.9664,176.3671,100.28763)"/>
<symbol id="font_2_1">
<path d="M .589 0 C .607 0 .626 0 .626 .022 C .626 .042999999 .606 .042999999 .589 .042999999 L .037 .042999999 C .020000004 .042999999 0 .042999999 0 .022 C 0 0 .019000002 0 .037 0 L .589 0 Z "/>
</symbol>
<use xlink:href="#font_2_1" transform="matrix(8.9664,0,0,-8.9664,26.96811,172.04669)"/>
<use xlink:href="#font_1_3" transform="matrix(8.9664,0,0,-8.9664,33.750555,174.29726)"/>
<use xlink:href="#font_2_1" transform="matrix(8.9664,0,0,-8.9664,26.96811,145.1487)"/>
<use xlink:href="#font_1_2" transform="matrix(8.9664,0,0,-8.9664,33.822286,147.202)"/>
<use xlink:href="#font_2_1" transform="matrix(8.9664,0,0,-8.9664,26.96811,118.250698)"/>
<symbol id="font_1_1">
<path d="M .21100003 .63900008 C .21100003 .66400006 .21000001 .666 .18500003 .666 C .123 .60200008 .031000004 .60200008 0 .60200008 L 0 .57100006 C .019000002 .57100006 .080000009 .57100006 .134 .597 L .134 .080000009 C .134 .043 .13100001 .031000002 .03800001 .031000002 L .0060000049 .031000002 L .0060000049 0 C .042000005 .003 .13100001 .003 .17200002 .003 C .21300003 .003 .30300004 .003 .33900003 0 L .33900003 .031000002 L .307 .031000002 C .21400002 .031000002 .21100003 .043 .21100003 .080000009 L .21100003 .63900008 Z "/>
</symbol>
<use xlink:href="#font_1_1" transform="matrix(8.9664,0,0,-8.9664,34.19887,120.304)"/>
<use xlink:href="#font_1_1" transform="matrix(8.9664,0,0,-8.9664,34.198877,66.92298)"/>
<use xlink:href="#font_1_2" transform="matrix(8.9664,0,0,-8.9664,33.82229,40.024995)"/>
<use xlink:href="#font_1_3" transform="matrix(8.9664,0,0,-8.9664,33.750558,13.32426)"/>
<clipPath id="cp3">
<path transform="matrix(1,0,0,-1,.199,171.62599)" d="M 0 0 L 194.2676 0 L 194.2676 161.39028 L 0 161.39028 Z "/>
</clipPath>
<g clip-path="url(#cp3)">
<path transform="matrix(1,0,0,-1,.199,171.62599)" stroke-width="1.19553" stroke-linecap="butt" stroke-miterlimit="10" stroke-linejoin="miter" fill="none" stroke="#000000" d="M 43.17058 80.69513 C 43.17058 80.69513 51.33629 111.34499 54.47253 121.04108 C 57.60876 130.73717 62.63828 144.97978 65.77452 150.57793 C 68.91075 156.17607 73.94023 161.38845 77.07648 161.38866 C 80.2127 161.38886 85.24222 156.17746 88.37846 150.57955 C 91.5147 144.98163 96.54417 130.7388 99.68042 121.04271 C 102.81665 111.3466 107.84615 91.8927 110.98239 80.69675 C 114.11862 69.5008 119.14812 50.04631 122.28436 40.34998 C 125.42061 30.65366 130.45009 16.41057 133.58634 10.81232 C 136.72258 5.21408 141.75206 .00182 144.8883 .0016 C 148.02455 .00139 153.05402 5.21303 156.19026 10.81071 C 159.3265 16.4084 164.35599 30.64995 167.49224 40.34593 C 170.62848 50.04193 175.65796 69.49675 178.7942 80.6927 C 181.93045 91.88866 186.95993 111.34254 190.09618 121.03867 C 193.23242 130.73477 198.2619 144.97704 201.39815 150.57552 C 204.5344 156.174 209.56386 161.3881 212.7001 161.38866 C 215.83635 161.38919 220.86583 156.17713 224.00208 150.57955 C 227.13832 144.98197 232.1678 130.74089 235.30405 121.04512 C 238.44029 111.34937 243.46977 91.89511 246.60602 80.69916 C 249.74227 69.5032 254.77175 50.04872 257.908 40.3524 C 261.04426 30.65607 266.0737 16.41333 269.20997 10.81474 C 272.3462 5.21616 277.37568 .00249 280.51194 .0016 C 283.64817 .00072 288.67765 5.21094 291.8139 10.80829 C 294.95014 16.40565 299.9796 30.64754 303.11589 40.34352 C 306.2521 50.0395 314.41783 80.69028 314.41783 80.69028 "/>
</g>
<symbol id="font_0_1">
<path d="M .425 .50600007 C .425 .609 .391 .716 .299 .716 C .153 .716 0 .43100003 0 .20900002 C 0 .13700001 .022 0 .12600002 0 C .272 0 .425 .28200004 .425 .50600007 M .109000008 .374 C .12900001 .45300005 .15 .526 .19100002 .595 C .215 .635 .252 .691 .298 .691 C .352 .691 .356 .605 .356 .56700006 C .356 .507 .34 .43700005 .32500003 .374 L .109000008 .374 M .316 .34200005 C .3 .279 .28100003 .20400001 .241 .13300002 C .215 .086 .17500001 .025000003 .127 .025000003 C .084 .025000003 .07000001 .077 .07000001 .15000002 C .07000001 .21400002 .086 .279 .101 .34200005 L .316 .34200005 Z "/>
</symbol>
<use xlink:href="#font_0_1" transform="matrix(8.9664,0,0,-8.9664,198.14264,94.12762)"/>
<symbol id="font_0_3">
<path d="M .375 .41600005 C .342 .41000004 .325 .38200004 .325 .36100004 C .325 .34200005 .33900003 .32500003 .364 .32500003 C .391 .32500003 .419 .34800003 .419 .38500003 C .419 .42400003 .38300003 .45300005 .334 .45300005 C .259 .45300005 .21700001 .397 .20300001 .37800003 C .19100002 .43300004 .14600002 .45300005 .10800001 .45300005 C .072000008 .45300005 .049000004 .43100003 .032000007 .39600004 C .013000002 .36 0 .30300004 0 .29900003 C 0 .29000003 .007000001 .28700004 .014 .28700004 C .025 .28700004 .027 .29200004 .032000007 .31200005 C .051000008 .39100004 .072000008 .42800004 .106000009 .42800004 C .136 .42800004 .136 .39600004 .136 .381 C .136 .36 .128 .32900004 .12200001 .30300004 C .11500001 .277 .105000007 .23400001 .10100001 .22200002 L .061000006 .058000003 C .054000006 .034 .054000006 .032 .054000006 .029000003 C .054000006 .016 .06300001 0 .08500001 0 C .11700001 0 .12400001 .027000003 .13100001 .056 C .143 .09900001 .143 .101 .15300001 .14200002 C .19000001 .29200004 .19600001 .316 .19800002 .321 C .20400001 .33300004 .25 .42800004 .333 .42800004 C .356 .42800004 .37 .42000003 .375 .41600005 Z "/>
</symbol>
<use xlink:href="#font_0_3" transform="matrix(8.9664,0,0,-8.9664,41.429029,7.030622)"/>
</svg>
