<?xml version="1.0" encoding="UTF-8" standalone="no"?>
<!DOCTYPE svg PUBLIC "-//W3C//DTD SVG 1.1//EN" "http://www.w3.org/Graphics/SVG/1.1/DTD/svg11.dtd">
<svg xmlns="http://www.w3.org/2000/svg" xmlns:xlink="http://www.w3.org/1999/xlink" version="1.1" width="207.033pt" height="174.681pt" viewBox="0 0 207.033 174.681">
<path transform="matrix(1,0,0,-1,.199,174.482)" stroke-width="1" stroke-linecap="butt" stroke-miterlimit="10" stroke-linejoin="miter" fill="none" stroke="#808080" d="M 19.42737 78.56996 L 19.42737 82.82181 M 58.2821 78.56996 L 58.2821 82.82181 M 135.99158 78.56996 L 135.99158 82.82181 M 174.84632 78.56996 L 174.84632 82.82181 "/>
<path transform="matrix(1,0,0,-1,.199,174.482)" stroke-width="1" stroke-linecap="butt" stroke-miterlimit="10" stroke-linejoin="miter" fill="none" stroke="#808080" d="M 95.0108 16.13918 L 99.26285 16.13918 M 95.0108 48.41753 L 99.26285 48.41753 M 95.0108 112.97426 L 99.26285 112.97426 M 95.0108 145.25261 L 99.26285 145.25261 "/>
<path transform="matrix(1,0,0,-1,.199,174.482)" stroke-width="1" stroke-linecap="butt" stroke-miterlimit="10" stroke-linejoin="miter" fill="none" stroke="#000000" d="M 0 80.69589 L 192.28116 80.69589 "/>
<path transform="matrix(1,0,0,-1,192.48017,93.7861)" d="M 1.99252 0 L -1.19551 1.59401 L 0 0 L -1.19551 -1.59401 "/>
<path transform="matrix(1,0,0,-1,.199,174.482)" stroke-width="1" stroke-linecap="butt" stroke-miterlimit="10" stroke-linejoin="miter" fill="none" stroke="#000000" d="M 97.13684 0 L 97.13684 159.39928 "/>
<path transform="matrix(0,-1,-1,-0,97.33584,15.082718)" d="M 1.99252 0 L -1.19551 1.59401 L 0 0 L -1.19551 -1.59401 "/>
<symbol id="font_0_1">
<path d="M .57600006 0 C .59300008 0 .611 0 .611 .019999996 C .611 .040000008 .59300008 .040000008 .57600006 .040000008 L .035000005 .040000008 C .018 .040000008 0 .040000008 0 .019999996 C 0 0 .018 0 .035000005 0 L .57600006 0 Z "/>
</symbol>
<use xlink:href="#font_0_1" transform="matrix(9.9626,0,0,-9.9626,14.087896,103.5616)"/>
<symbol id="font_1_2">
<path d="M .07700001 .07700001 L .18300002 .18 C .33900003 .31800003 .39900003 .372 .39900003 .47200004 C .39900003 .586 .30900003 .666 .18700002 .666 C .074 .666 0 .574 0 .485 C 0 .42900003 .05 .42900003 .053000008 .42900003 C .07000001 .42900003 .105000007 .441 .105000007 .48200003 C .105000007 .508 .08700001 .53400006 .052000006 .53400006 C .044000005 .53400006 .042000008 .53400006 .039 .53300008 C .062000004 .59800007 .11600001 .63500007 .17400001 .63500007 C .26500003 .63500007 .308 .554 .308 .47200004 C .308 .39200003 .25800003 .31300003 .20300003 .25100003 L .011000004 .037 C 0 .026 0 .024 0 0 L .37100003 0 L .39900003 .17400001 L .374 .17400001 C .36900003 .14400001 .36200003 .1 .352 .085 C .345 .07700001 .279 .07700001 .257 .07700001 L .07700001 .07700001 Z "/>
</symbol>
<use xlink:href="#font_1_2" transform="matrix(9.9626,0,0,-9.9626,21.508133,105.853)"/>
<use xlink:href="#font_0_1" transform="matrix(9.9626,0,0,-9.9626,52.942899,103.5616)"/>
<symbol id="font_1_1">
<path d="M .205 .64000007 C .205 .66400006 .205 .666 .18200003 .666 C .120000008 .60200008 .032000007 .60200008 0 .60200008 L 0 .57100006 C .020000004 .57100006 .07900001 .57100006 .13100001 .597 L .13100001 .079 C .13100001 .043 .128 .031000002 .038000004 .031000002 L .0060000049 .031000002 L .0060000049 0 C .04100001 .003 .128 .003 .168 .003 C .20800002 .003 .29500003 .003 .33000005 0 L .33000005 .031000002 L .29800005 .031000002 C .20800002 .031000002 .205 .042000005 .205 .079 L .205 .64000007 Z "/>
</symbol>
<use xlink:href="#font_1_1" transform="matrix(9.9626,0,0,-9.9626,60.750677,105.853)"/>
<use xlink:href="#font_1_1" transform="matrix(9.9626,0,0,-9.9626,134.58467,105.853)"/>
<use xlink:href="#font_1_2" transform="matrix(9.9626,0,0,-9.9626,173.05113,105.853)"/>
<use xlink:href="#font_0_1" transform="matrix(9.9626,0,0,-9.9626,79.7859,158.8466)"/>
<use xlink:href="#font_1_2" transform="matrix(9.9626,0,0,-9.9626,87.20613,161.138)"/>
<use xlink:href="#font_0_1" transform="matrix(9.9626,0,0,-9.9626,79.7859,126.56859)"/>
<use xlink:href="#font_1_1" transform="matrix(9.9626,0,0,-9.9626,87.59467,128.85999)"/>
<use xlink:href="#font_1_1" transform="matrix(9.9626,0,0,-9.9626,87.59467,64.719)"/>
<use xlink:href="#font_1_2" transform="matrix(9.9626,0,0,-9.9626,87.20613,32.440996)"/>
<clipPath id="cp2">
<path transform="matrix(1,0,0,-1,.199,174.482)" d="M 0 0 L 194.27368 0 L 194.27368 161.3918 L 0 161.3918 Z "/>
</clipPath>
<g clip-path="url(#cp2)">
<path transform="matrix(1,0,0,-1,.199,174.482)" d="M 97.13684 80.69589 C 97.13684 80.69589 97.87271 80.69753 98.15555 80.69957 C 98.43839 80.70163 98.89223 80.70659 99.17535 80.71068 C 99.4585 80.71478 99.91331 80.72307 100.19626 80.72923 C 100.47922 80.73538 100.93234 80.74695 101.21472 80.75516 C 101.4971 80.76337 101.94908 80.7782 102.23154 80.78847 C 102.51399 80.79875 102.96811 80.81694 103.2505 80.82925 C 103.5329 80.84157 103.98453 80.86292 104.26685 80.87729 C 104.54916 80.89165 105.00351 80.91649 105.28535 80.93289 C 105.5672 80.9493 106.01689 80.9771 106.29825 80.99554 C 106.5796 81.01398 107.03229 81.04536 107.31319 81.06587 C 107.59409 81.08636 108.04228 81.12086 108.32288 81.14342 C 108.60347 81.16595 109.05495 81.2038 109.33565 81.22838 C 109.61635 81.25296 110.06612 81.29408 110.34605 81.32066 C 110.626 81.34726 111.07436 81.3915 111.35335 81.42009 C 111.63232 81.44868 112.07816 81.49612 112.35686 81.52678 C 112.63556 81.55742 113.08368 81.60843 113.36201 81.64108 C 113.64035 81.67374 114.08528 81.72752 114.36295 81.76216 C 114.64061 81.79678 115.08662 81.85406 115.36333 81.89069 C 115.64001 81.92732 116.08089 81.98749 116.3572 82.02614 C 116.63351 82.0648 117.07909 82.12872 117.35484 82.16936 C 117.63058 82.20999 118.07002 82.27658 118.3447 82.31912 C 118.61938 82.36165 119.06071 82.43144 119.33467 82.476 C 119.60863 82.52055 120.04619 82.59378 120.31918 82.64034 C 120.59218 82.68689 121.0303 82.76306 121.30234 82.81151 C 121.57437 82.85995 122.00894 82.93916 122.2799 82.98958 C 122.55086 83.04001 122.98529 83.12268 123.25531 83.17497 C 123.52533 83.22726 123.95624 83.31224 124.22601 83.36653 C 124.49579 83.42082 124.93108 83.51004 125.19975 83.56628 C 125.46841 83.62253 125.89546 83.71404 126.16238 83.77202 C 126.42929 83.83 126.85742 83.92429 127.12358 83.98424 C 127.38976 84.04417 127.81544 84.14215 128.08078 84.20404 C 128.34612 84.26593 128.77208 84.3666 129.03597 84.43031 C 129.29985 84.49402 129.72023 84.59778 129.98279 84.66333 C 130.24535 84.7289 130.66699 84.83551 130.92833 84.90288 C 131.18967 84.97023 131.60593 85.07956 131.86638 85.14883 C 132.12683 85.21811 132.54631 85.33118 132.8056 85.4022 C 133.06488 85.47325 133.47786 85.5882 133.73519 85.66092 C 133.99251 85.73364 134.40409 85.8518 134.66028 85.92638 C 134.91646 86.00095 135.32654 86.12187 135.58167 86.1984 C 135.83678 86.27493 136.24579 86.39978 136.49901 86.47801 C 136.75223 86.55624 137.15534 86.6825 137.40673 86.76228 C 137.65811 86.84209 138.0606 86.97168 138.31095 87.05322 C 138.56128 87.13477 138.962 87.26668 139.21108 87.35008 C 139.46015 87.4335 139.85881 87.5693 140.10608 87.65443 C 140.35334 87.73956 140.74765 87.87706 140.99321 87.9637 C 141.23876 88.05034 141.63169 88.19052 141.87592 88.27893 C 142.12017 88.36734 142.51093 88.51096 142.75357 88.60101 C 142.99623 88.69107 143.38459 88.83653 143.62482 88.92802 C 143.86505 89.01952 144.2466 89.16733 144.48506 89.26042 C 144.72354 89.3535 145.10619 89.5042 145.3436 89.59898 C 145.58101 89.69376 145.9605 89.8472 146.19625 89.94365 C 146.432 90.04012 146.80904 90.19618 147.0428 90.2942 C 147.27657 90.39223 147.64926 90.55078 147.88106 90.65019 C 148.11284 90.74962 148.48348 90.90988 148.71341 91.01086 C 148.94335 91.11185 149.31023 91.27544 149.53824 91.37811 C 149.76625 91.48079 150.13076 91.64685 150.35684 91.75089 C 150.58295 91.8549 150.94342 92.02242 151.1679 92.12791 C 151.39237 92.23341 151.75252 92.40445 151.9748 92.51128 C 152.19709 92.61812 152.54979 92.78972 152.77005 92.898 C 152.99031 93.00626 153.34436 93.1819 153.56233 93.29164 C 153.78032 93.40138 154.12569 93.57799 154.34113 93.68904 C 154.55655 93.8001 154.90122 93.97974 155.11499 94.09206 C 155.32877 94.20439 155.6696 94.38481 155.88188 94.49864 C 156.09416 94.61247 156.4353 94.7974 156.64499 94.91255 C 156.85469 95.02771 157.18599 95.2123 157.39325 95.3286 C 157.60051 95.44492 157.93346 95.63315 158.13887 95.75089 C 158.3443 95.86862 158.67084 96.05832 158.87387 96.1772 C 159.07692 96.29607 159.40166 96.4878 159.60233 96.60777 C 159.803 96.72775 160.12172 96.92068 160.32022 97.04198 C 160.51874 97.16325 160.83686 97.35962 161.03305 97.482 C 161.22925 97.60437 161.54009 97.80043 161.73429 97.92404 C 161.92847 98.04764 162.2408 98.24802 162.43271 98.37297 C 162.62462 98.49791 162.92836 98.69879 163.11743 98.82466 C 163.3065 98.95053 163.60854 99.1533 163.79544 99.28024 C 163.98235 99.40718 164.28 99.61163 164.46462 99.73958 C 164.64923 99.86752 164.94449 100.07365 165.126 100.20235 C 165.30754 100.33102 165.59377 100.53722 165.77304 100.66716 C 165.95232 100.7971 166.24108 101.008 166.41814 101.13896 C 166.59519 101.26993 166.87439 101.47916 167.04923 101.61115 C 167.22406 101.74312 167.50598 101.95734 167.67833 102.09026 C 167.85068 102.22319 168.122 102.43564 168.29146 102.56921 C 168.4609 102.70279 168.73268 102.91855 168.8997 103.05307 C 169.06673 103.18759 169.33083 103.40335 169.49533 103.5388 C 169.65984 103.67424 169.92406 103.89325 170.08538 104.02931 C 170.24668 104.16539 170.499 104.38264 170.658 104.51956 C 170.81702 104.6565 171.07437 104.87843 171.23148 105.01622 C 171.38857 105.154 171.63628 105.3741 171.79035 105.5127 C 171.94441 105.65129 172.19104 105.8759 172.34201 106.01512 C 172.49298 106.15434 172.7303 106.37628 172.87853 106.51616 C 173.02677 106.65605 173.26418 106.88269 173.41048 107.0234 C 173.55678 107.16414 173.78945 107.38924 173.93306 107.53047 C 174.07668 107.6717 174.30535 107.89969 174.44562 108.04149 C 174.58588 108.18329 174.8067 108.41023 174.94405 108.5525 C 175.08138 108.69478 175.30075 108.9241 175.43549 109.06697 C 175.57022 109.20984 175.78264 109.43869 175.91513 109.58226 C 176.0476 109.72581 176.26093 109.95784 176.39041 110.1017 C 176.51992 110.24557 176.7219 110.47487 176.84847 110.61923 C 176.97504 110.76358 177.17853 110.99739 177.30266 111.14221 C 177.42679 111.28705 177.62186 111.51807 177.74315 111.66309 C 177.86444 111.80809 178.05895 112.04169 178.17697 112.18736 C 178.295 112.33305 178.47869 112.56712 178.59383 112.71313 C 178.70897 112.85913 178.89395 113.0934 179.00693 113.23965 C 179.11989 113.38591 179.2981 113.62083 179.4081 113.76735 C 179.5181 113.91385 179.69309 114.14897 179.79979 114.29553 C 179.90651 114.4421 180.07347 114.67654 180.1773 114.82376 C 180.28115 114.97098 180.44681 115.20895 180.54822 115.35661 C 180.64963 115.50427 180.80968 115.74052 180.90827 115.888 C 181.00685 116.03548 181.16356 116.27248 181.25885 116.41959 C 181.35414 116.5667 181.50279 116.80104 181.59503 116.94835 C 181.68726 117.09567 181.83423 117.3337 181.92368 117.48149 C 182.01313 117.62929 182.15294 117.86583 182.23975 118.01358 C 182.32656 118.16132 182.4659 118.39867 182.5494 118.54639 C 182.63289 118.6941 182.76084 118.93037 182.84157 119.0783 C 182.92232 119.22621 183.053 119.46451 183.13138 119.61253 C 183.20978 119.76056 183.33144 119.99736 183.40666 120.14522 C 183.48189 120.29306 183.60146 120.53076 183.67353 120.67822 C 183.74558 120.82568 183.85717 121.0609 183.92606 121.20805 C 183.99495 121.35521 184.10414 121.59167 184.17017 121.73888 C 184.23619 121.88608 184.33837 122.12173 184.40193 122.26906 C 184.46552 122.41638 184.56827 122.65381 184.62842 122.80067 C 184.68857 122.94754 184.77878 123.18118 184.83551 123.32764 C 184.89225 123.47409 184.9826 123.70976 185.03736 123.85626 C 185.09209 124.00276 185.17844 124.23747 185.23006 124.38354 C 185.2817 124.52963 185.36135 124.76389 185.40944 124.90916 C 185.45752 125.05443 185.53127 125.28554 185.57666 125.43066 C 185.62204 125.57579 185.6934 125.80986 185.7367 125.95528 C 185.78 126.10068 185.84854 126.33394 185.88875 126.4787 C 185.92896 126.62347 185.99028 126.85492 186.02655 126.99872 C 186.06284 127.14252 186.11676 127.37173 186.15026 127.5151 C 186.18375 127.65846 186.2367 127.88873 186.26799 128.0321 C 186.2993 128.17548 186.34775 128.40575 186.37587 128.54843 C 186.40399 128.69113 186.44606 128.91884 186.4707 129.0605 C 186.49535 129.20217 186.53134 129.42852 186.55352 129.56957 C 186.5757 129.71063 186.61124 129.93659 186.63056 130.07721 C 186.64989 130.21784 186.67604 130.44286 186.6928 130.58309 C 186.70955 130.72332 186.73787 130.94857 186.75136 131.08794 C 186.76485 131.2273 186.78023 131.44916 186.78998 131.58765 C 186.79975 131.72614 186.81406 131.94803 186.82172 132.08614 C 186.82938 132.22425 186.84012 132.4458 186.8453 132.5831 C 186.8505 132.72042 186.85718 132.9398 186.85907 133.0758 C 186.86098 133.21179 186.85993 133.42812 186.85907 133.56334 C 186.8582 133.69857 186.85622 133.91559 186.85276 134.05045 C 186.84929 134.1853 186.84053 134.40122 186.83406 134.53536 C 186.82758 134.6695 186.8158 134.88457 186.80599 135.01726 C 186.79616 135.14997 186.77605 135.36032 186.76322 135.49182 C 186.75038 135.62332 186.7282 135.83419 186.71341 135.96504 C 186.69864 136.0959 186.67426 136.30493 186.65662 136.43502 C 186.63898 136.5651 186.60704 136.77384 186.58626 136.90259 C 186.56548 137.03136 186.53037 137.23537 186.50676 137.36304 C 186.48316 137.49069 186.44222 137.69588 186.416 137.8228 C 186.38979 137.94972 186.34645 138.15212 186.31778 138.27783 C 186.28911 138.40354 186.24138 138.6048 186.20932 138.72885 C 186.17725 138.85292 186.12149 139.049 186.0867 139.17208 C 186.0519 139.29514 185.99509 139.49352 185.9585 139.6159 C 185.9219 139.7383 185.8628 139.9335 185.82292 140.05429 C 185.78307 140.17507 185.71459 140.3674 185.67111 140.48651 C 185.62766 140.60562 185.55474 140.79445 185.50959 140.91281 C 185.46443 141.03118 185.39302 141.22223 185.34564 141.33969 C 185.29828 141.45716 185.21852 141.64369 185.16815 141.75952 C 185.11777 141.87535 185.03565 142.06044 184.98255 142.1745 C 184.92945 142.28856 184.84105 142.46886 184.78534 142.58162 C 184.72965 142.69437 184.63922 142.8754 184.58106 142.98715 C 184.5229 143.09893 184.427 143.27692 184.36614 143.3872 C 184.30527 143.4975 184.20597 143.67378 184.14228 143.78209 C 184.07857 143.89038 183.97303 144.0607 183.90705 144.16779 C 183.84108 144.27487 183.73473 144.44785 183.66674 144.55391 C 183.59876 144.65998 183.48813 144.82845 183.417 144.93233 C 183.3459 145.0362 183.22774 145.2002 183.15418 145.30261 C 183.08061 145.40503 182.96236 145.56969 182.88675 145.67055 C 182.81116 145.77141 182.68738 145.93006 182.60924 146.02959 C 182.5311 146.12914 182.40389 146.28984 182.3235 146.388 C 182.24314 146.48616 182.11302 146.64104 182.02989 146.73708 C 181.94678 146.8331 181.8098 146.98583 181.72437 147.08022 C 181.63893 147.1746 181.50133 147.32456 181.4141 147.4174 C 181.32686 147.51026 181.18541 147.65834 181.09558 147.74951 C 181.00576 147.84069 180.85907 147.98525 180.76663 148.07453 C 180.67418 148.1638 180.52376 148.30547 180.42928 148.39302 C 180.3348 148.48059 180.1823 148.61985 180.0856 148.70566 C 179.98892 148.79148 179.83124 148.92734 179.73244 149.01157 C 179.63364 149.09578 179.47466 149.23036 179.37345 149.31272 C 179.27223 149.39507 179.10648 149.52497 179.00287 149.60514 C 178.89925 149.68532 178.73194 149.81215 178.62654 149.89064 C 178.52115 149.96912 178.35062 150.09423 178.24317 150.17089 C 178.1357 150.24755 177.96167 150.36856 177.85192 150.44319 C 177.74217 150.51782 177.56395 150.63588 177.45217 150.70876 C 177.3404 150.78163 177.15956 150.89748 177.04627 150.96846 C 176.93297 151.03943 176.75113 151.15155 176.63553 151.22034 C 176.51995 151.28913 176.33118 151.39774 176.21303 151.46425 C 176.09488 151.53076 175.90361 151.63495 175.78389 151.69969 C 175.66417 151.76445 175.47165 151.86766 175.35019 151.93097 C 175.22873 151.99427 175.03205 152.09494 174.90843 152.15602 C 174.78484 152.2171 174.5846 152.3126 174.45922 152.37125 C 174.33385 152.42989 174.132 152.52204 174.00485 152.5787 C 173.8777 152.63538 173.6716 152.72476 173.54277 152.77977 C 173.41393 152.83477 173.2067 152.92226 173.07617 152.97518 C 172.94565 153.02809 172.73493 153.11087 172.602 153.16118 C 172.4691 153.21147 172.25286 153.28948 172.11815 153.33779 C 171.98345 153.3861 171.76679 153.46286 171.63112 153.50942 C 171.49546 153.55599 171.2778 153.62953 171.14029 153.67345 C 171.00279 153.71736 170.77938 153.78414 170.64006 153.82596 C 170.50075 153.86777 170.27718 153.9351 170.13617 153.97487 C 169.99518 154.01464 169.7661 154.07489 169.62383 154.1126 C 169.48154 154.15032 169.25424 154.21115 169.11066 154.2468 C 168.96707 154.28243 168.73458 154.33669 168.58887 154.36949 C 168.44316 154.4023 168.2078 154.4526 168.06047 154.48328 C 167.91313 154.51393 167.67528 154.56151 167.52692 154.5905 C 167.37857 154.6195 167.14046 154.66574 166.9911 154.69239 C 166.84177 154.71901 166.60138 154.75868 166.45049 154.78247 C 166.29959 154.80628 166.05626 154.8424 165.90349 154.8639 C 165.7507 154.88542 165.5031 154.91796 165.3493 154.93759 C 165.19553 154.95725 164.95005 154.98813 164.79506 155.00553 C 164.64008 155.02292 164.3887 155.0483 164.23221 155.06305 C 164.07572 155.07779 163.82488 155.0996 163.66715 155.11191 C 163.50943 155.12422 163.25424 155.14144 163.09545 155.15187 C 162.93666 155.16231 162.68224 155.17899 162.52269 155.18724 C 162.36315 155.1955 162.1063 155.20613 161.94553 155.21137 C 161.78476 155.21662 161.52617 155.22199 161.36403 155.22509 C 161.20188 155.22818 160.93975 155.23256 160.77684 155.23375 C 160.61394 155.23494 160.35411 155.23552 160.18991 155.23374 C 160.02571 155.23194 159.75879 155.22499 159.59333 155.22072 C 159.42787 155.21645 159.16326 155.20955 158.9973 155.20293 C 158.83136 155.19632 158.56395 155.1813 158.39725 155.17296 C 158.23055 155.16461 157.96349 155.15338 157.79572 155.14267 C 157.62796 155.13198 157.35683 155.10973 157.18802 155.09583 C 157.01923 155.08191 156.74834 155.05887 156.57906 155.04233 C 156.40979 155.02579 156.13773 154.99483 155.968 154.97653 C 155.7983 154.95822 155.52658 154.93079 155.35587 154.91034 C 155.18515 154.8899 154.9093 154.85242 154.73755 154.82907 C 154.56581 154.80573 154.29035 154.76772 154.11794 154.74195 C 153.94553 154.71619 153.66764 154.67125 153.49497 154.64331 C 153.32228 154.61536 153.04656 154.57105 152.87337 154.54056 C 152.70018 154.51006 152.42096 154.45679 152.24677 154.4235 C 152.07259 154.39022 151.79242 154.33592 151.61792 154.30054 C 151.44344 154.26517 151.16394 154.2063 150.98914 154.16847 C 150.81435 154.13065 150.53328 154.06806 150.3581 154.02788 C 150.1829 153.9877 149.90229 153.9215 149.72644 153.87886 C 149.5506 153.83621 149.267 153.7657 149.09067 153.72048 C 148.91436 153.67523 148.63185 153.60039 148.45555 153.5528 C 148.27925 153.50519 147.9969 153.42746 147.82004 153.37738 C 147.64316 153.32729 147.35793 153.24452 147.18065 153.19171 C 147.00339 153.1389 146.71959 153.05187 146.54233 152.99669 C 146.36505 152.9415 146.07997 152.8509 145.90293 152.7939 C 145.72589 152.7369 145.44377 152.64543 145.26627 152.5858 C 145.08878 152.52619 144.80168 152.42656 144.62354 152.36409 C 144.4454 152.3016 144.16049 152.20018 143.98233 152.1354 C 143.80416 152.07064 143.51715 151.964 143.33937 151.89714 C 143.16159 151.83028 142.87874 151.72324 142.7009 151.65352 C 142.52307 151.5838 142.23572 151.46712 142.0576 151.39467 C 141.87949 151.32222 141.59474 151.20583 141.41712 151.13132 C 141.23947 151.0568 140.95459 150.93379 140.77724 150.8575 C 140.5999 150.78119 140.31645 150.6603 140.13886 150.58136 C 139.96125 150.50244 139.67462 150.37046 139.49709 150.28855 C 139.31955 150.20664 139.03653 150.07501 138.85932 149.99102 C 138.68212 149.907 138.39669 149.7694 138.21987 149.68306 C 138.04305 149.59673 137.76165 149.4576 137.58493 149.36869 C 137.40824 149.27979 137.12285 149.13382 136.94625 149.0423 C 136.76963 148.95079 136.488 148.80289 136.31194 148.70903 C 136.13587 148.61518 135.85297 148.4615 135.67725 148.36585 C 135.50151 148.27019 135.22039 148.11759 135.04526 148.01955 C 134.87014 147.92151 134.58995 147.75994 134.41504 147.65917 C 134.24013 147.5584 133.95897 147.39612 133.78452 147.29322 C 133.61006 147.19029 133.3312 147.02262 133.15763 146.91736 C 132.98403 146.81209 132.70636 146.64226 132.5333 146.53447 C 132.36022 146.4267 132.08295 146.25048 131.9102 146.14054 C 131.73746 146.0306 131.46019 145.85399 131.28821 145.74208 C 131.11624 145.63016 130.8419 145.4479 130.67064 145.33382 C 130.49938 145.21971 130.22461 145.03626 130.0538 144.91974 C 129.883 144.8032 129.60955 144.61325 129.4395 144.49394 C 129.26947 144.37464 128.99764 144.18123 128.82831 144.05982 C 128.65897 143.93839 128.38739 143.74196 128.219 143.61882 C 128.0506 143.49567 127.78212 143.29773 127.61458 143.17218 C 127.44704 143.04663 127.17824 142.84207 127.01141 142.71389 C 126.84459 142.58571 126.57813 142.37854 126.41217 142.24828 C 126.2462 142.11801 125.9801 141.9069 125.81519 141.775 C 125.65025 141.64308 125.38734 141.43175 125.22342 141.2975 C 125.0595 141.16326 124.79666 140.944 124.63373 140.80733 C 124.4708 140.67067 124.21098 140.45127 124.04904 140.3125 C 123.88712 140.17374 123.62762 139.94799 123.46661 139.8072 C 123.3056 139.66645 123.04846 139.44078 122.88858 139.29785 C 122.72868 139.15493 122.4728 138.92229 122.31413 138.77704 C 122.15547 138.6318 121.90253 138.3983 121.74496 138.25096 C 121.58739 138.10363 121.33492 137.86389 121.17848 137.71504 C 121.02206 137.56621 120.77264 137.32895 120.61752 137.17815 C 120.4624 137.02735 120.21442 136.78139 120.06046 136.62808 C 119.90651 136.47476 119.6607 136.2284 119.50792 136.07312 C 119.35512 135.91785 119.11063 135.66587 118.95915 135.50893 C 118.80768 135.35198 118.56648 135.10112 118.41617 134.94196 C 118.26585 134.78279 118.02467 134.52332 117.87576 134.36174 C 117.72687 134.20015 117.49031 133.94045 117.34294 133.77733 C 117.19557 133.61421 116.95953 133.35074 116.81361 133.1861 C 116.66771 133.02144 116.43575 132.75745 116.29126 132.59059 C 116.14679 132.42375 115.91548 132.1526 115.77228 131.9836 C 115.62909 131.8146 115.40083 131.54312 115.25911 131.37247 C 115.11739 131.20182 114.89081 130.92584 114.75081 130.75359 C 114.6108 130.58135 114.38834 130.30489 114.24998 130.13095 C 114.11163 129.957 113.8907 129.67594 113.7536 129.49987 C 113.61649 129.3238 113.39706 129.03972 113.26172 128.86194 C 113.12639 128.68415 112.9117 128.39772 112.7781 128.21849 C 112.64452 128.03926 112.43092 127.75125 112.29884 127.5701 C 112.16678 127.38895 111.9566 127.09586 111.82613 126.91289 C 111.69565 126.72992 111.48708 126.43584 111.35835 126.2513 C 111.22961 126.06676 111.02505 125.76888 110.8983 125.58286 C 110.77155 125.39682 110.56999 125.09848 110.44472 124.91045 C 110.31946 124.72243 110.11903 124.41737 109.99544 124.22763 C 109.87186 124.03787 109.67546 123.73373 109.55388 123.54285 C 109.43231 123.35197 109.23898 123.0443 109.11922 122.85182 C 108.99945 122.65933 108.8086 122.34949 108.6907 122.15543 C 108.57281 121.96138 108.3855 121.64877 108.26949 121.45311 C 108.15347 121.25745 107.96864 120.94217 107.85457 120.74513 C 107.7405 120.54808 107.55934 120.23114 107.44725 120.03285 C 107.33517 119.83456 107.15707 119.51611 107.04668 119.31593 C 106.93626 119.11575 106.75989 118.79167 106.65138 118.59006 C 106.5429 118.38846 106.37102 118.06561 106.26462 117.86284 C 106.15822 117.66008 105.98888 117.33261 105.88448 117.12859 C 105.78009 116.92456 105.61444 116.59766 105.5122 116.39236 C 105.40997 116.18706 105.24785 115.85562 105.14761 115.64885 C 105.04736 115.44206 104.88791 115.10999 104.78963 114.90202 C 104.69135 114.69406 104.5353 114.35887 104.4392 114.14989 C 104.34311 113.9409 104.19107 113.60617 104.097 113.39581 C 104.00293 113.18544 103.85323 112.84543 103.7612 112.63371 C 103.66919 112.422 103.5235 112.0827 103.43373 111.86987 C 103.34396 111.65704 103.20181 111.3138 103.11418 111.09978 C 103.02654 110.88574 102.88759 110.54243 102.80202 110.32722 C 102.71645 110.11201 102.58073 109.76495 102.49736 109.54861 C 102.41397 109.33228 102.28204 108.98515 102.20094 108.76799 C 102.11984 108.55083 101.99162 108.20161 101.91278 107.98346 C 101.83394 107.7653 101.70946 107.41501 101.63272 107.19565 C 101.556 106.97629 101.43423 106.62253 101.35973 106.4024 C 101.28523 106.18228 101.16788 105.83025 101.09573 105.60915 C 101.02359 105.38803 100.90959 105.03098 100.83968 104.80872 C 100.76976 104.58644 100.65944 104.23009 100.59174 104.0071 C 100.52405 103.7841 100.41702 103.425 100.35172 103.20148 C 100.2864 102.97795 100.18396 102.62048 100.121 102.39603 C 100.05803 102.17159 99.95847 101.809 99.89783 101.58377 C 99.83719 101.35855 99.74216 100.99872 99.68385 100.77263 C 99.62553 100.54654 99.53346 100.18135 99.47743 99.95432 C 99.42142 99.72726 99.33371 99.36383 99.28008 99.13626 C 99.22643 98.90869 99.14201 98.5422 99.09076 98.31404 C 99.0395 98.08588 98.95941 97.72066 98.9105 97.49173 C 98.8616 97.2628 98.78474 96.8936 98.7382 96.66408 C 98.69168 96.43457 98.61913 96.0673 98.57506 95.83745 C 98.531 95.60757 98.46227 95.23775 98.42061 95.00734 C 98.37895 94.77695 98.31406 94.40804 98.27475 94.1768 C 98.23543 93.94559 98.17413 93.57248 98.13724 93.34082 C 98.10033 93.10916 98.04309 92.73904 98.00864 92.50713 C 97.97418 92.27522 97.92091 91.90208 97.88889 91.66939 C 97.85687 91.43669 97.80737 91.06291 97.7778 90.82999 C 97.74821 90.59706 97.70274 90.22354 97.67564 89.99057 C 97.64853 89.7576 97.60703 89.38443 97.58234 89.1508 C 97.55765 88.91719 97.51987 88.54056 97.49762 88.30669 C 97.47539 88.07281 97.44171 87.6991 97.42197 87.46523 C 97.40222 87.23137 97.37256 86.85559 97.35526 86.62105 C 97.33795 86.3865 97.31209 86.0095 97.29724 85.77478 C 97.28241 85.54007 97.26067 85.16391 97.2483 84.92926 C 97.23595 84.69463 97.21806 84.31856 97.20816 84.08356 C 97.19826 83.84857 97.18436 83.47049 97.17694 83.23557 C 97.16953 83.00066 97.15959 82.62503 97.15465 82.39035 C 97.1497 82.15569 97.14377 81.77922 97.1413 81.54411 C 97.13884 81.30902 97.13684 80.69589 97.13684 80.69589 Z " fill="#cccce6"/>
<path transform="matrix(1,0,0,-1,.199,174.482)" stroke-width="1.19553" stroke-linecap="butt" stroke-miterlimit="10" stroke-linejoin="miter" fill="none" stroke="#000000" d="M 97.13684 80.69589 C 97.13684 80.69589 97.87271 80.69753 98.15555 80.69957 C 98.43839 80.70163 98.89223 80.70659 99.17535 80.71068 C 99.4585 80.71478 99.91331 80.72307 100.19626 80.72923 C 100.47922 80.73538 100.93234 80.74695 101.21472 80.75516 C 101.4971 80.76337 101.94908 80.7782 102.23154 80.78847 C 102.51399 80.79875 102.96811 80.81694 103.2505 80.82925 C 103.5329 80.84157 103.98453 80.86292 104.26685 80.87729 C 104.54916 80.89165 105.00351 80.91649 105.28535 80.93289 C 105.5672 80.9493 106.01689 80.9771 106.29825 80.99554 C 106.5796 81.01398 107.03229 81.04536 107.31319 81.06587 C 107.59409 81.08636 108.04228 81.12086 108.32288 81.14342 C 108.60347 81.16595 109.05495 81.2038 109.33565 81.22838 C 109.61635 81.25296 110.06612 81.29408 110.34605 81.32066 C 110.626 81.34726 111.07436 81.3915 111.35335 81.42009 C 111.63232 81.44868 112.07816 81.49612 112.35686 81.52678 C 112.63556 81.55742 113.08368 81.60843 113.36201 81.64108 C 113.64035 81.67374 114.08528 81.72752 114.36295 81.76216 C 114.64061 81.79678 115.08662 81.85406 115.36333 81.89069 C 115.64001 81.92732 116.08089 81.98749 116.3572 82.02614 C 116.63351 82.0648 117.07909 82.12872 117.35484 82.16936 C 117.63058 82.20999 118.07002 82.27658 118.3447 82.31912 C 118.61938 82.36165 119.06071 82.43144 119.33467 82.476 C 119.60863 82.52055 120.04619 82.59378 120.31918 82.64034 C 120.59218 82.68689 121.0303 82.76306 121.30234 82.81151 C 121.57437 82.85995 122.00894 82.93916 122.2799 82.98958 C 122.55086 83.04001 122.98529 83.12268 123.25531 83.17497 C 123.52533 83.22726 123.95624 83.31224 124.22601 83.36653 C 124.49579 83.42082 124.93108 83.51004 125.19975 83.56628 C 125.46841 83.62253 125.89546 83.71404 126.16238 83.77202 C 126.42929 83.83 126.85742 83.92429 127.12358 83.98424 C 127.38976 84.04417 127.81544 84.14215 128.08078 84.20404 C 128.34612 84.26593 128.77208 84.3666 129.03597 84.43031 C 129.29985 84.49402 129.72023 84.59778 129.98279 84.66333 C 130.24535 84.7289 130.66699 84.83551 130.92833 84.90288 C 131.18967 84.97023 131.60593 85.07956 131.86638 85.14883 C 132.12683 85.21811 132.54631 85.33118 132.8056 85.4022 C 133.06488 85.47325 133.47786 85.5882 133.73519 85.66092 C 133.99251 85.73364 134.40409 85.8518 134.66028 85.92638 C 134.91646 86.00095 135.32654 86.12187 135.58167 86.1984 C 135.83678 86.27493 136.24579 86.39978 136.49901 86.47801 C 136.75223 86.55624 137.15534 86.6825 137.40673 86.76228 C 137.65811 86.84209 138.0606 86.97168 138.31095 87.05322 C 138.56128 87.13477 138.962 87.26668 139.21108 87.35008 C 139.46015 87.4335 139.85881 87.5693 140.10608 87.65443 C 140.35334 87.73956 140.74765 87.87706 140.99321 87.9637 C 141.23876 88.05034 141.63169 88.19052 141.87592 88.27893 C 142.12017 88.36734 142.51093 88.51096 142.75357 88.60101 C 142.99623 88.69107 143.38459 88.83653 143.62482 88.92802 C 143.86505 89.01952 144.2466 89.16733 144.48506 89.26042 C 144.72354 89.3535 145.10619 89.5042 145.3436 89.59898 C 145.58101 89.69376 145.9605 89.8472 146.19625 89.94365 C 146.432 90.04012 146.80904 90.19618 147.0428 90.2942 C 147.27657 90.39223 147.64926 90.55078 147.88106 90.65019 C 148.11284 90.74962 148.48348 90.90988 148.71341 91.01086 C 148.94335 91.11185 149.31023 91.27544 149.53824 91.37811 C 149.76625 91.48079 150.13076 91.64685 150.35684 91.75089 C 150.58295 91.8549 150.94342 92.02242 151.1679 92.12791 C 151.39237 92.23341 151.75252 92.40445 151.9748 92.51128 C 152.19709 92.61812 152.54979 92.78972 152.77005 92.898 C 152.99031 93.00626 153.34436 93.1819 153.56233 93.29164 C 153.78032 93.40138 154.12569 93.57799 154.34113 93.68904 C 154.55655 93.8001 154.90122 93.97974 155.11499 94.09206 C 155.32877 94.20439 155.6696 94.38481 155.88188 94.49864 C 156.09416 94.61247 156.4353 94.7974 156.64499 94.91255 C 156.85469 95.02771 157.18599 95.2123 157.39325 95.3286 C 157.60051 95.44492 157.93346 95.63315 158.13887 95.75089 C 158.3443 95.86862 158.67084 96.05832 158.87387 96.1772 C 159.07692 96.29607 159.40166 96.4878 159.60233 96.60777 C 159.803 96.72775 160.12172 96.92068 160.32022 97.04198 C 160.51874 97.16325 160.83686 97.35962 161.03305 97.482 C 161.22925 97.60437 161.54009 97.80043 161.73429 97.92404 C 161.92847 98.04764 162.2408 98.24802 162.43271 98.37297 C 162.62462 98.49791 162.92836 98.69879 163.11743 98.82466 C 163.3065 98.95053 163.60854 99.1533 163.79544 99.28024 C 163.98235 99.40718 164.28 99.61163 164.46462 99.73958 C 164.64923 99.86752 164.94449 100.07365 165.126 100.20235 C 165.30754 100.33102 165.59377 100.53722 165.77304 100.66716 C 165.95232 100.7971 166.24108 101.008 166.41814 101.13896 C 166.59519 101.26993 166.87439 101.47916 167.04923 101.61115 C 167.22406 101.74312 167.50598 101.95734 167.67833 102.09026 C 167.85068 102.22319 168.122 102.43564 168.29146 102.56921 C 168.4609 102.70279 168.73268 102.91855 168.8997 103.05307 C 169.06673 103.18759 169.33083 103.40335 169.49533 103.5388 C 169.65984 103.67424 169.92406 103.89325 170.08538 104.02931 C 170.24668 104.16539 170.499 104.38264 170.658 104.51956 C 170.81702 104.6565 171.07437 104.87843 171.23148 105.01622 C 171.38857 105.154 171.63628 105.3741 171.79035 105.5127 C 171.94441 105.65129 172.19104 105.8759 172.34201 106.01512 C 172.49298 106.15434 172.7303 106.37628 172.87853 106.51616 C 173.02677 106.65605 173.26418 106.88269 173.41048 107.0234 C 173.55678 107.16414 173.78945 107.38924 173.93306 107.53047 C 174.07668 107.6717 174.30535 107.89969 174.44562 108.04149 C 174.58588 108.18329 174.8067 108.41023 174.94405 108.5525 C 175.08138 108.69478 175.30075 108.9241 175.43549 109.06697 C 175.57022 109.20984 175.78264 109.43869 175.91513 109.58226 C 176.0476 109.72581 176.26093 109.95784 176.39041 110.1017 C 176.51992 110.24557 176.7219 110.47487 176.84847 110.61923 C 176.97504 110.76358 177.17853 110.99739 177.30266 111.14221 C 177.42679 111.28705 177.62186 111.51807 177.74315 111.66309 C 177.86444 111.80809 178.05895 112.04169 178.17697 112.18736 C 178.295 112.33305 178.47869 112.56712 178.59383 112.71313 C 178.70897 112.85913 178.89395 113.0934 179.00693 113.23965 C 179.11989 113.38591 179.2981 113.62083 179.4081 113.76735 C 179.5181 113.91385 179.69309 114.14897 179.79979 114.29553 C 179.90651 114.4421 180.07347 114.67654 180.1773 114.82376 C 180.28115 114.97098 180.44681 115.20895 180.54822 115.35661 C 180.64963 115.50427 180.80968 115.74052 180.90827 115.888 C 181.00685 116.03548 181.16356 116.27248 181.25885 116.41959 C 181.35414 116.5667 181.50279 116.80104 181.59503 116.94835 C 181.68726 117.09567 181.83423 117.3337 181.92368 117.48149 C 182.01313 117.62929 182.15294 117.86583 182.23975 118.01358 C 182.32656 118.16132 182.4659 118.39867 182.5494 118.54639 C 182.63289 118.6941 182.76084 118.93037 182.84157 119.0783 C 182.92232 119.22621 183.053 119.46451 183.13138 119.61253 C 183.20978 119.76056 183.33144 119.99736 183.40666 120.14522 C 183.48189 120.29306 183.60146 120.53076 183.67353 120.67822 C 183.74558 120.82568 183.85717 121.0609 183.92606 121.20805 C 183.99495 121.35521 184.10414 121.59167 184.17017 121.73888 C 184.23619 121.88608 184.33837 122.12173 184.40193 122.26906 C 184.46552 122.41638 184.56827 122.65381 184.62842 122.80067 C 184.68857 122.94754 184.77878 123.18118 184.83551 123.32764 C 184.89225 123.47409 184.9826 123.70976 185.03736 123.85626 C 185.09209 124.00276 185.17844 124.23747 185.23006 124.38354 C 185.2817 124.52963 185.36135 124.76389 185.40944 124.90916 C 185.45752 125.05443 185.53127 125.28554 185.57666 125.43066 C 185.62204 125.57579 185.6934 125.80986 185.7367 125.95528 C 185.78 126.10068 185.84854 126.33394 185.88875 126.4787 C 185.92896 126.62347 185.99028 126.85492 186.02655 126.99872 C 186.06284 127.14252 186.11676 127.37173 186.15026 127.5151 C 186.18375 127.65846 186.2367 127.88873 186.26799 128.0321 C 186.2993 128.17548 186.34775 128.40575 186.37587 128.54843 C 186.40399 128.69113 186.44606 128.91884 186.4707 129.0605 C 186.49535 129.20217 186.53134 129.42852 186.55352 129.56957 C 186.5757 129.71063 186.61124 129.93659 186.63056 130.07721 C 186.64989 130.21784 186.67604 130.44286 186.6928 130.58309 C 186.70955 130.72332 186.73787 130.94857 186.75136 131.08794 C 186.76485 131.2273 186.78023 131.44916 186.78998 131.58765 C 186.79975 131.72614 186.81406 131.94803 186.82172 132.08614 C 186.82938 132.22425 186.84012 132.4458 186.8453 132.5831 C 186.8505 132.72042 186.85718 132.9398 186.85907 133.0758 C 186.86098 133.21179 186.85993 133.42812 186.85907 133.56334 C 186.8582 133.69857 186.85622 133.91559 186.85276 134.05045 C 186.84929 134.1853 186.84053 134.40122 186.83406 134.53536 C 186.82758 134.6695 186.8158 134.88457 186.80599 135.01726 C 186.79616 135.14997 186.77605 135.36032 186.76322 135.49182 C 186.75038 135.62332 186.7282 135.83419 186.71341 135.96504 C 186.69864 136.0959 186.67426 136.30493 186.65662 136.43502 C 186.63898 136.5651 186.60704 136.77384 186.58626 136.90259 C 186.56548 137.03136 186.53037 137.23537 186.50676 137.36304 C 186.48316 137.49069 186.44222 137.69588 186.416 137.8228 C 186.38979 137.94972 186.34645 138.15212 186.31778 138.27783 C 186.28911 138.40354 186.24138 138.6048 186.20932 138.72885 C 186.17725 138.85292 186.12149 139.049 186.0867 139.17208 C 186.0519 139.29514 185.99509 139.49352 185.9585 139.6159 C 185.9219 139.7383 185.8628 139.9335 185.82292 140.05429 C 185.78307 140.17507 185.71459 140.3674 185.67111 140.48651 C 185.62766 140.60562 185.55474 140.79445 185.50959 140.91281 C 185.46443 141.03118 185.39302 141.22223 185.34564 141.33969 C 185.29828 141.45716 185.21852 141.64369 185.16815 141.75952 C 185.11777 141.87535 185.03565 142.06044 184.98255 142.1745 C 184.92945 142.28856 184.84105 142.46886 184.78534 142.58162 C 184.72965 142.69437 184.63922 142.8754 184.58106 142.98715 C 184.5229 143.09893 184.427 143.27692 184.36614 143.3872 C 184.30527 143.4975 184.20597 143.67378 184.14228 143.78209 C 184.07857 143.89038 183.97303 144.0607 183.90705 144.16779 C 183.84108 144.27487 183.73473 144.44785 183.66674 144.55391 C 183.59876 144.65998 183.48813 144.82845 183.417 144.93233 C 183.3459 145.0362 183.22774 145.2002 183.15418 145.30261 C 183.08061 145.40503 182.96236 145.56969 182.88675 145.67055 C 182.81116 145.77141 182.68738 145.93006 182.60924 146.02959 C 182.5311 146.12914 182.40389 146.28984 182.3235 146.388 C 182.24314 146.48616 182.11302 146.64104 182.02989 146.73708 C 181.94678 146.8331 181.8098 146.98583 181.72437 147.08022 C 181.63893 147.1746 181.50133 147.32456 181.4141 147.4174 C 181.32686 147.51026 181.18541 147.65834 181.09558 147.74951 C 181.00576 147.84069 180.85907 147.98525 180.76663 148.07453 C 180.67418 148.1638 180.52376 148.30547 180.42928 148.39302 C 180.3348 148.48059 180.1823 148.61985 180.0856 148.70566 C 179.98892 148.79148 179.83124 148.92734 179.73244 149.01157 C 179.63364 149.09578 179.47466 149.23036 179.37345 149.31272 C 179.27223 149.39507 179.10648 149.52497 179.00287 149.60514 C 178.89925 149.68532 178.73194 149.81215 178.62654 149.89064 C 178.52115 149.96912 178.35062 150.09423 178.24317 150.17089 C 178.1357 150.24755 177.96167 150.36856 177.85192 150.44319 C 177.74217 150.51782 177.56395 150.63588 177.45217 150.70876 C 177.3404 150.78163 177.15956 150.89748 177.04627 150.96846 C 176.93297 151.03943 176.75113 151.15155 176.63553 151.22034 C 176.51995 151.28913 176.33118 151.39774 176.21303 151.46425 C 176.09488 151.53076 175.90361 151.63495 175.78389 151.69969 C 175.66417 151.76445 175.47165 151.86766 175.35019 151.93097 C 175.22873 151.99427 175.03205 152.09494 174.90843 152.15602 C 174.78484 152.2171 174.5846 152.3126 174.45922 152.37125 C 174.33385 152.42989 174.132 152.52204 174.00485 152.5787 C 173.8777 152.63538 173.6716 152.72476 173.54277 152.77977 C 173.41393 152.83477 173.2067 152.92226 173.07617 152.97518 C 172.94565 153.02809 172.73493 153.11087 172.602 153.16118 C 172.4691 153.21147 172.25286 153.28948 172.11815 153.33779 C 171.98345 153.3861 171.76679 153.46286 171.63112 153.50942 C 171.49546 153.55599 171.2778 153.62953 171.14029 153.67345 C 171.00279 153.71736 170.77938 153.78414 170.64006 153.82596 C 170.50075 153.86777 170.27718 153.9351 170.13617 153.97487 C 169.99518 154.01464 169.7661 154.07489 169.62383 154.1126 C 169.48154 154.15032 169.25424 154.21115 169.11066 154.2468 C 168.96707 154.28243 168.73458 154.33669 168.58887 154.36949 C 168.44316 154.4023 168.2078 154.4526 168.06047 154.48328 C 167.91313 154.51393 167.67528 154.56151 167.52692 154.5905 C 167.37857 154.6195 167.14046 154.66574 166.9911 154.69239 C 166.84177 154.71901 166.60138 154.75868 166.45049 154.78247 C 166.29959 154.80628 166.05626 154.8424 165.90349 154.8639 C 165.7507 154.88542 165.5031 154.91796 165.3493 154.93759 C 165.19553 154.95725 164.95005 154.98813 164.79506 155.00553 C 164.64008 155.02292 164.3887 155.0483 164.23221 155.06305 C 164.07572 155.07779 163.82488 155.0996 163.66715 155.11191 C 163.50943 155.12422 163.25424 155.14144 163.09545 155.15187 C 162.93666 155.16231 162.68224 155.17899 162.52269 155.18724 C 162.36315 155.1955 162.1063 155.20613 161.94553 155.21137 C 161.78476 155.21662 161.52617 155.22199 161.36403 155.22509 C 161.20188 155.22818 160.93975 155.23256 160.77684 155.23375 C 160.61394 155.23494 160.35411 155.23552 160.18991 155.23374 C 160.02571 155.23194 159.75879 155.22499 159.59333 155.22072 C 159.42787 155.21645 159.16326 155.20955 158.9973 155.20293 C 158.83136 155.19632 158.56395 155.1813 158.39725 155.17296 C 158.23055 155.16461 157.96349 155.15338 157.79572 155.14267 C 157.62796 155.13198 157.35683 155.10973 157.18802 155.09583 C 157.01923 155.08191 156.74834 155.05887 156.57906 155.04233 C 156.40979 155.02579 156.13773 154.99483 155.968 154.97653 C 155.7983 154.95822 155.52658 154.93079 155.35587 154.91034 C 155.18515 154.8899 154.9093 154.85242 154.73755 154.82907 C 154.56581 154.80573 154.29035 154.76772 154.11794 154.74195 C 153.94553 154.71619 153.66764 154.67125 153.49497 154.64331 C 153.32228 154.61536 153.04656 154.57105 152.87337 154.54056 C 152.70018 154.51006 152.42096 154.45679 152.24677 154.4235 C 152.07259 154.39022 151.79242 154.33592 151.61792 154.30054 C 151.44344 154.26517 151.16394 154.2063 150.98914 154.16847 C 150.81435 154.13065 150.53328 154.06806 150.3581 154.02788 C 150.1829 153.9877 149.90229 153.9215 149.72644 153.87886 C 149.5506 153.83621 149.267 153.7657 149.09067 153.72048 C 148.91436 153.67523 148.63185 153.60039 148.45555 153.5528 C 148.27925 153.50519 147.9969 153.42746 147.82004 153.37738 C 147.64316 153.32729 147.35793 153.24452 147.18065 153.19171 C 147.00339 153.1389 146.71959 153.05187 146.54233 152.99669 C 146.36505 152.9415 146.07997 152.8509 145.90293 152.7939 C 145.72589 152.7369 145.44377 152.64543 145.26627 152.5858 C 145.08878 152.52619 144.80168 152.42656 144.62354 152.36409 C 144.4454 152.3016 144.16049 152.20018 143.98233 152.1354 C 143.80416 152.07064 143.51715 151.964 143.33937 151.89714 C 143.16159 151.83028 142.87874 151.72324 142.7009 151.65352 C 142.52307 151.5838 142.23572 151.46712 142.0576 151.39467 C 141.87949 151.32222 141.59474 151.20583 141.41712 151.13132 C 141.23947 151.0568 140.95459 150.93379 140.77724 150.8575 C 140.5999 150.78119 140.31645 150.6603 140.13886 150.58136 C 139.96125 150.50244 139.67462 150.37046 139.49709 150.28855 C 139.31955 150.20664 139.03653 150.07501 138.85932 149.99102 C 138.68212 149.907 138.39669 149.7694 138.21987 149.68306 C 138.04305 149.59673 137.76165 149.4576 137.58493 149.36869 C 137.40824 149.27979 137.12285 149.13382 136.94625 149.0423 C 136.76963 148.95079 136.488 148.80289 136.31194 148.70903 C 136.13587 148.61518 135.85297 148.4615 135.67725 148.36585 C 135.50151 148.27019 135.22039 148.11759 135.04526 148.01955 C 134.87014 147.92151 134.58995 147.75994 134.41504 147.65917 C 134.24013 147.5584 133.95897 147.39612 133.78452 147.29322 C 133.61006 147.19029 133.3312 147.02262 133.15763 146.91736 C 132.98403 146.81209 132.70636 146.64226 132.5333 146.53447 C 132.36022 146.4267 132.08295 146.25048 131.9102 146.14054 C 131.73746 146.0306 131.46019 145.85399 131.28821 145.74208 C 131.11624 145.63016 130.8419 145.4479 130.67064 145.33382 C 130.49938 145.21971 130.22461 145.03626 130.0538 144.91974 C 129.883 144.8032 129.60955 144.61325 129.4395 144.49394 C 129.26947 144.37464 128.99764 144.18123 128.82831 144.05982 C 128.65897 143.93839 128.38739 143.74196 128.219 143.61882 C 128.0506 143.49567 127.78212 143.29773 127.61458 143.17218 C 127.44704 143.04663 127.17824 142.84207 127.01141 142.71389 C 126.84459 142.58571 126.57813 142.37854 126.41217 142.24828 C 126.2462 142.11801 125.9801 141.9069 125.81519 141.775 C 125.65025 141.64308 125.38734 141.43175 125.22342 141.2975 C 125.0595 141.16326 124.79666 140.944 124.63373 140.80733 C 124.4708 140.67067 124.21098 140.45127 124.04904 140.3125 C 123.88712 140.17374 123.62762 139.94799 123.46661 139.8072 C 123.3056 139.66645 123.04846 139.44078 122.88858 139.29785 C 122.72868 139.15493 122.4728 138.92229 122.31413 138.77704 C 122.15547 138.6318 121.90253 138.3983 121.74496 138.25096 C 121.58739 138.10363 121.33492 137.86389 121.17848 137.71504 C 121.02206 137.56621 120.77264 137.32895 120.61752 137.17815 C 120.4624 137.02735 120.21442 136.78139 120.06046 136.62808 C 119.90651 136.47476 119.6607 136.2284 119.50792 136.07312 C 119.35512 135.91785 119.11063 135.66587 118.95915 135.50893 C 118.80768 135.35198 118.56648 135.10112 118.41617 134.94196 C 118.26585 134.78279 118.02467 134.52332 117.87576 134.36174 C 117.72687 134.20015 117.49031 133.94045 117.34294 133.77733 C 117.19557 133.61421 116.95953 133.35074 116.81361 133.1861 C 116.66771 133.02144 116.43575 132.75745 116.29126 132.59059 C 116.14679 132.42375 115.91548 132.1526 115.77228 131.9836 C 115.62909 131.8146 115.40083 131.54312 115.25911 131.37247 C 115.11739 131.20182 114.89081 130.92584 114.75081 130.75359 C 114.6108 130.58135 114.38834 130.30489 114.24998 130.13095 C 114.11163 129.957 113.8907 129.67594 113.7536 129.49987 C 113.61649 129.3238 113.39706 129.03972 113.26172 128.86194 C 113.12639 128.68415 112.9117 128.39772 112.7781 128.21849 C 112.64452 128.03926 112.43092 127.75125 112.29884 127.5701 C 112.16678 127.38895 111.9566 127.09586 111.82613 126.91289 C 111.69565 126.72992 111.48708 126.43584 111.35835 126.2513 C 111.22961 126.06676 111.02505 125.76888 110.8983 125.58286 C 110.77155 125.39682 110.56999 125.09848 110.44472 124.91045 C 110.31946 124.72243 110.11903 124.41737 109.99544 124.22763 C 109.87186 124.03787 109.67546 123.73373 109.55388 123.54285 C 109.43231 123.35197 109.23898 123.0443 109.11922 122.85182 C 108.99945 122.65933 108.8086 122.34949 108.6907 122.15543 C 108.57281 121.96138 108.3855 121.64877 108.26949 121.45311 C 108.15347 121.25745 107.96864 120.94217 107.85457 120.74513 C 107.7405 120.54808 107.55934 120.23114 107.44725 120.03285 C 107.33517 119.83456 107.15707 119.51611 107.04668 119.31593 C 106.93626 119.11575 106.75989 118.79167 106.65138 118.59006 C 106.5429 118.38846 106.37102 118.06561 106.26462 117.86284 C 106.15822 117.66008 105.98888 117.33261 105.88448 117.12859 C 105.78009 116.92456 105.61444 116.59766 105.5122 116.39236 C 105.40997 116.18706 105.24785 115.85562 105.14761 115.64885 C 105.04736 115.44206 104.88791 115.10999 104.78963 114.90202 C 104.69135 114.69406 104.5353 114.35887 104.4392 114.14989 C 104.34311 113.9409 104.19107 113.60617 104.097 113.39581 C 104.00293 113.18544 103.85323 112.84543 103.7612 112.63371 C 103.66919 112.422 103.5235 112.0827 103.43373 111.86987 C 103.34396 111.65704 103.20181 111.3138 103.11418 111.09978 C 103.02654 110.88574 102.88759 110.54243 102.80202 110.32722 C 102.71645 110.11201 102.58073 109.76495 102.49736 109.54861 C 102.41397 109.33228 102.28204 108.98515 102.20094 108.76799 C 102.11984 108.55083 101.99162 108.20161 101.91278 107.98346 C 101.83394 107.7653 101.70946 107.41501 101.63272 107.19565 C 101.556 106.97629 101.43423 106.62253 101.35973 106.4024 C 101.28523 106.18228 101.16788 105.83025 101.09573 105.60915 C 101.02359 105.38803 100.90959 105.03098 100.83968 104.80872 C 100.76976 104.58644 100.65944 104.23009 100.59174 104.0071 C 100.52405 103.7841 100.41702 103.425 100.35172 103.20148 C 100.2864 102.97795 100.18396 102.62048 100.121 102.39603 C 100.05803 102.17159 99.95847 101.809 99.89783 101.58377 C 99.83719 101.35855 99.74216 100.99872 99.68385 100.77263 C 99.62553 100.54654 99.53346 100.18135 99.47743 99.95432 C 99.42142 99.72726 99.33371 99.36383 99.28008 99.13626 C 99.22643 98.90869 99.14201 98.5422 99.09076 98.31404 C 99.0395 98.08588 98.95941 97.72066 98.9105 97.49173 C 98.8616 97.2628 98.78474 96.8936 98.7382 96.66408 C 98.69168 96.43457 98.61913 96.0673 98.57506 95.83745 C 98.531 95.60757 98.46227 95.23775 98.42061 95.00734 C 98.37895 94.77695 98.31406 94.40804 98.27475 94.1768 C 98.23543 93.94559 98.17413 93.57248 98.13724 93.34082 C 98.10033 93.10916 98.04309 92.73904 98.00864 92.50713 C 97.97418 92.27522 97.92091 91.90208 97.88889 91.66939 C 97.85687 91.43669 97.80737 91.06291 97.7778 90.82999 C 97.74821 90.59706 97.70274 90.22354 97.67564 89.99057 C 97.64853 89.7576 97.60703 89.38443 97.58234 89.1508 C 97.55765 88.91719 97.51987 88.54056 97.49762 88.30669 C 97.47539 88.07281 97.44171 87.6991 97.42197 87.46523 C 97.40222 87.23137 97.37256 86.85559 97.35526 86.62105 C 97.33795 86.3865 97.31209 86.0095 97.29724 85.77478 C 97.28241 85.54007 97.26067 85.16391 97.2483 84.92926 C 97.23595 84.69463 97.21806 84.31856 97.20816 84.08356 C 97.19826 83.84857 97.18436 83.47049 97.17694 83.23557 C 97.16953 83.00066 97.15959 82.62503 97.15465 82.39035 C 97.1497 82.15569 97.14377 81.77922 97.1413 81.54411 C 97.13884 81.30902 97.13684 80.69589 97.13684 80.69589 Z "/>
<path transform="matrix(1,0,0,-1,.199,174.482)" stroke-width="1" stroke-linecap="butt" stroke-miterlimit="10" stroke-linejoin="miter" fill="none" stroke="#0000ff" d="M 97.13684 80.69589 C 97.13684 80.69589 100.08414 80.72227 101.21472 80.75516 C 102.3453 80.78804 104.1586 80.86723 105.28535 80.93289 C 106.41211 80.99855 108.21503 81.13013 109.33565 81.22838 C 110.45625 81.32663 112.24971 81.51056 113.36201 81.64108 C 114.4743 81.7716 116.25055 82.0068 117.35233 82.16919 C 118.45409 82.33159 120.21434 82.61766 121.30283 82.81151 C 122.39131 83.00536 124.12453 83.34167 125.19743 83.56627 C 126.27034 83.79086 127.98004 84.17563 129.03565 84.43031 C 130.09127 84.68498 131.7704 85.11794 132.8056 85.40192 C 133.84079 85.68588 135.48375 86.16447 136.49668 86.47699 C 137.5096 86.78952 139.11707 87.31436 140.10608 87.65443 C 141.0951 87.9945 142.66237 88.56166 143.62482 88.92802 C 144.58727 89.29439 146.10837 89.90346 147.0428 90.29506 C 147.97724 90.68666 149.45525 91.33469 150.35965 91.75044 C 151.26404 92.1662 152.68909 92.85292 153.56118 93.29164 C 154.43325 93.73038 155.80669 94.45238 156.64499 94.91255 C 157.4833 95.37274 158.79991 96.12814 159.60324 96.60834 C 160.40657 97.08853 161.6686 97.87492 162.43495 98.37358 C 163.20133 98.87224 164.39904 99.68666 165.12674 100.20235 C 165.85445 100.71802 166.99204 101.55928 167.67983 102.09026 C 168.3676 102.62123 169.43694 103.48476 170.0838 104.02931 C 170.73067 104.57388 171.73682 105.45845 172.34201 106.01512 C 172.9472 106.5718 173.88391 107.47449 174.44562 108.04149 C 175.00731 108.60849 175.8724 109.52626 176.39041 110.1017 C 176.90843 110.67714 177.7059 111.60696 178.17911 112.18895 C 178.65232 112.77095 179.3737 113.70943 179.801 114.2964 C 180.22829 114.88338 180.87699 115.82979 181.25885 116.41959 C 181.64073 117.00938 182.21834 117.95631 182.55338 118.5473 C 182.88842 119.13829 183.38594 120.089 183.67357 120.67915 C 183.96118 121.26929 184.38555 122.21355 184.62639 122.80067 C 184.86724 123.3878 185.21517 124.32841 185.40944 124.91087 C 185.6037 125.49335 185.87917 126.4229 186.02655 126.99872 C 186.17394 127.57454 186.37143 128.49343 186.47168 129.06104 C 186.57195 129.62865 186.69532 130.53269 186.74919 131.08972 C 186.80309 131.64676 186.85262 132.53113 186.86017 133.0758 C 186.86772 133.62047 186.8415 134.48432 186.80376 135.01543 C 186.766 135.54654 186.6709 136.3888 186.5881 136.90377 C 186.50531 137.41873 186.33417 138.22969 186.20705 138.72696 C 186.07993 139.22422 185.84172 140.00943 185.67182 140.48775 C 185.50193 140.96608 185.19477 141.71743 184.98255 142.1745 C 184.77033 142.63158 184.39566 143.34784 184.14228 143.78209 C 183.88889 144.21633 183.44947 144.89424 183.1562 145.30425 C 182.86296 145.71424 182.36042 146.3527 182.02872 146.73708 C 181.697 147.12145 181.13387 147.71718 180.76546 148.07453 C 180.39705 148.43189 179.77785 148.98395 179.37345 149.31272 C 178.96904 149.6415 178.28925 150.14539 177.85076 150.44417 C 177.41225 150.74295 176.68354 151.19861 176.21303 151.46619 C 175.74253 151.73375 174.96079 152.13726 174.4596 152.3727 C 173.95842 152.60813 173.1306 152.96126 172.60086 153.1631 C 172.0711 153.36495 171.19849 153.66005 170.64153 153.82743 C 170.08458 153.9948 169.16841 154.23699 168.58661 154.36949 C 168.00479 154.50199 167.05237 154.68625 166.44821 154.78247 C 165.84406 154.87871 164.85694 155.00354 164.23221 155.06305 C 163.60749 155.12255 162.58916 155.18938 161.94553 155.21137 C 161.3019 155.23337 160.25342 155.23764 159.59333 155.22162 C 158.93325 155.2056 157.86203 155.15027 157.18802 155.09583 C 156.514 155.04137 155.421 154.9221 154.73543 154.82907 C 154.04985 154.73604 152.9419 154.55719 152.24677 154.42523 C 151.55165 154.29328 150.42839 154.04927 149.7254 153.87802 C 149.02242 153.70677 147.8881 153.4012 147.18009 153.1909 C 146.47208 152.98062 145.33313 152.61157 144.6224 152.36235 C 143.91168 152.11313 142.7688 151.68242 142.0576 151.39467 C 141.3464 151.10694 140.20574 150.61483 139.49655 150.28844 C 138.78737 149.96205 137.65154 149.407 136.94625 149.0423 C 136.24094 148.67761 135.11223 148.0624 134.41326 147.6599 C 133.71428 147.25739 132.5987 146.58075 131.90848 146.14125 C 131.21826 145.70174 130.11829 144.9677 129.4386 144.49217 C 128.75893 144.01663 127.67645 143.22515 127.0098 142.71389 C 126.34315 142.20262 125.28535 141.35379 124.63373 140.80733 C 123.98212 140.26087 122.94812 139.35523 122.31335 138.77524 C 121.67857 138.19525 120.67447 137.23976 120.05867 136.62715 C 119.44287 136.01454 118.46985 135.0044 117.87505 134.35987 C 117.28023 133.71533 116.34354 132.65618 115.77162 131.98177 C 115.1997 131.30735 114.3006 130.20244 113.75298 129.49904 C 113.20535 128.79563 112.34607 127.64351 111.82468 126.91199 C 111.3033 126.18047 110.48857 124.9843 109.99518 124.22672 C 109.5018 123.46912 108.73274 122.23396 108.26872 121.45175 C 107.80472 120.66953 107.08414 119.39435 106.65091 118.58896 C 106.2177 117.78355 105.54742 116.4735 105.14632 115.64696 C 104.74521 114.82043 104.1277 113.47823 103.76003 112.63184 C 103.39235 111.78543 102.82939 110.41115 102.4963 109.54669 C 102.16322 108.68225 101.65689 107.28201 101.35927 106.40144 C 101.06166 105.52086 100.61247 104.0947 100.3513 103.20009 C 100.09013 102.30547 99.70067 100.86052 99.47684 99.95354 C 99.25302 99.04655 98.924 97.58072 98.7381 96.6631 C 98.55222 95.74547 98.28445 94.26591 98.13701 93.33984 C 97.98955 92.41379 97.78378 90.92125 97.67531 89.98863 C 97.56682 89.05603 97.42424 87.55511 97.35509 86.61815 C 97.28593 85.68117 97.20653 84.17496 97.17688 83.23557 C 97.14722 82.29617 97.13141 80.7874 97.1413 79.84766 C 97.1512 78.90791 97.19884 77.40092 97.2483 76.46251 C 97.29778 75.5241 97.40897 74.01927 97.49785 73.0841 C 97.58673 72.14894 97.761 70.65195 97.88902 69.7224 C 98.01706 68.79283 98.25385 67.30635 98.42061 66.38443 C 98.58737 65.46251 98.88599 63.99045 99.09097 63.07773 C 99.29596 62.16501 99.65552 60.70726 99.89809 59.80606 C 100.14067 58.90488 100.55984 57.47025 100.83939 56.58258 C 101.11891 55.6949 101.59726 54.2811 101.91278 53.40831 C 102.2283 52.53552 102.76291 51.14757 103.11343 50.29199 C 103.46396 49.43643 104.0546 48.07848 104.4392 47.24188 C 104.82379 46.4053 105.46805 45.07883 105.88538 44.26245 C 106.3027 43.44608 106.99825 42.152 107.44704 41.35794 C 107.89584 40.5639 108.6412 39.30927 109.12001 38.53949 C 109.5988 37.7697 110.39047 36.55443 110.89801 35.80988 C 111.40556 35.06534 112.24355 33.89082 112.7781 33.17328 C 113.31267 32.45573 114.19089 31.32742 114.75081 30.63818 C 115.31073 29.94894 116.22972 28.86531 116.81361 28.20569 C 117.3975 27.54605 118.35342 26.51263 118.95915 25.884 C 119.56488 25.25537 120.55383 24.27127 121.17928 23.67487 C 121.80472 23.07846 122.82376 22.14873 123.46696 21.5855 C 124.11017 21.02226 125.15585 20.14462 125.81519 19.61545 C 126.4745 19.08629 127.54555 18.26529 128.219 17.7716 C 128.89244 17.27792 129.98358 16.51479 130.66893 16.05727 C 131.35428 15.59975 132.46355 14.89496 133.15857 14.47412 C 133.8536 14.05328 134.9759 13.4076 135.67826 13.02415 C 136.3806 12.64072 137.5132 12.05615 138.22068 11.71046 C 138.92813 11.36479 140.0669 10.84013 140.77724 10.5327 C 141.4876 10.22527 142.62902 9.76308 143.34033 9.49463 C 144.05165 9.22618 145.19422 8.82759 145.90393 8.59787 C 146.61365 8.36815 147.75 8.02945 148.45555 7.83899 C 149.1611 7.64851 150.28995 7.37608 150.98914 7.22502 C 151.68834 7.07396 152.80446 6.86282 153.49497 6.75021 C 154.18547 6.63762 155.28568 6.4872 155.96587 6.41347 C 156.64604 6.33974 157.72963 6.2539 158.39725 6.21881 C 159.06488 6.18373 160.12561 6.15771 160.77767 6.16055 C 161.42972 6.16338 162.46254 6.19878 163.09685 6.23924 C 163.73116 6.27972 164.73476 6.37422 165.3493 6.4523 C 165.96387 6.53038 166.93315 6.68755 167.52622 6.802 C 168.1193 6.91646 169.05396 7.12724 169.62383 7.27727 C 170.19368 7.42729 171.09 7.6981 171.6334 7.8833 C 172.17684 8.06848 173.02478 8.39314 173.54045 8.612 C 174.05614 8.83087 174.86377 9.2095 175.35019 9.4608 C 175.83661 9.71211 176.59168 10.14023 177.04627 10.42332 C 177.50084 10.7064 178.205 11.1872 178.62654 11.50114 C 179.04808 11.8151 179.6977 12.34297 180.08446 12.68613 C 180.4712 13.02927 181.06412 13.60335 181.4141 13.97437 C 181.76407 14.34538 182.2946 14.9628 182.60692 15.36028 C 182.91922 15.75774 183.39119 16.41681 183.66501 16.83914 C 183.93883 17.26149 184.34734 17.95853 184.58052 18.40431 C 184.81369 18.8501 185.15462 19.58429 185.34564 20.0521 C 185.53667 20.51988 185.80886 21.28778 185.95735 21.77586 C 186.10587 22.26396 186.31111 23.0631 186.416 23.5699 C 186.52089 24.0767 186.65312 24.90556 186.71341 25.42859 C 186.7737 25.95161 186.83522 26.80157 186.85056 27.33951 C 186.86588 27.87743 186.85442 28.7541 186.8239 29.30563 C 186.7934 29.85716 186.70755 30.75203 186.63056 31.31456 C 186.55358 31.87709 186.39286 32.78813 186.26898 33.36003 C 186.14511 33.93193 185.90862 34.85718 185.73773 35.43651 C 185.56685 36.01584 185.25484 36.95062 185.03736 37.53552 C 184.81986 38.1204 184.43474 39.06325 184.17017 39.65205 C 183.9056 40.24086 183.44208 41.18843 183.1304 41.77924 C 182.81871 42.37006 182.28182 43.31964 181.92368 43.91028 C 181.56555 44.50093 180.95392 45.44785 180.54923 46.03629 C 180.14453 46.62473 179.45737 47.5668 179.00693 48.15138 C 178.55648 48.73595 177.7979 49.67062 177.30266 50.24956 C 176.80742 50.82849 175.97762 51.75238 175.4376 52.32404 C 174.89759 52.89569 173.99399 53.80751 173.41048 54.36974 C 172.82697 54.93195 171.85787 55.8253 171.23203 56.37616 C 170.60617 56.92702 169.56761 57.80193 168.8997 58.33997 C 168.2318 58.87802 167.12633 59.73059 166.41814 60.25404 C 165.70993 60.77748 164.5426 61.6055 163.79544 62.1127 C 163.04828 62.61992 161.81797 63.42033 161.03305 63.90977 C 160.24813 64.39922 158.95886 65.17003 158.13823 65.64035 C 157.3176 66.11069 155.97374 66.85 155.11843 67.2997 C 154.26313 67.74939 152.86235 68.454 151.97367 68.88145 C 151.08499 69.3089 149.63303 69.97675 148.71341 70.38048 C 147.7938 70.78423 146.29433 71.41228 145.34569 71.79135 C 144.39704 72.17043 142.85205 72.75922 141.87616 73.11264 C 140.90027 73.46608 139.3133 74.01233 138.3121 74.33871 C 137.31092 74.6651 135.68476 75.16676 134.66028 75.46509 C 133.6358 75.76341 131.97402 76.21942 130.92833 76.48889 C 129.88263 76.75836 128.1878 77.16756 127.12358 77.4073 C 126.05937 77.64703 124.33922 78.00754 123.25815 78.2168 C 122.17708 78.42607 120.42729 78.73741 119.33192 78.91557 C 118.23654 79.09375 116.47017 79.35442 115.36333 79.50093 C 114.25648 79.64745 112.47127 79.85718 111.35449 79.97162 C 110.23773 80.08607 108.43843 80.24388 107.31435 80.32587 C 106.19026 80.40785 104.38193 80.51329 103.25284 80.56256 C 102.12373 80.61183 100.30794 80.66464 99.17651 80.68108 C 98.04509 80.69751 96.22939 80.69751 95.0983 80.68109 C 93.96721 80.66467 92.15309 80.6119 91.02432 80.56264 C 89.89554 80.51338 88.08688 80.40797 86.9628 80.326 C 85.83873 80.24403 84.0397 80.08624 82.92264 79.9718 C 81.80556 79.85736 80.01909 79.64764 78.9117 79.50116 C 77.8043 79.35468 76.03647 79.09412 74.94128 78.91595 C 73.84612 78.7378 72.09937 78.42632 71.01834 78.21703 C 69.93733 78.00774 68.21414 77.64725 67.15007 77.40753 C 66.08598 77.16783 64.39465 76.75877 63.34914 76.48933 C 62.3036 76.2199 60.63911 75.76387 59.61453 75.46556 C 58.58995 75.16725 56.96556 74.66557 55.96457 74.33925 C 54.96358 74.01292 53.37614 73.46692 52.4 73.1136 C 51.42384 72.7603 49.87775 72.17188 48.92906 71.7928 C 47.9804 71.41371 46.48213 70.78537 45.56255 70.38138 C 44.64294 69.97739 43.1895 69.30846 42.30113 68.881 C 41.41278 68.45352 40.0152 67.74985 39.1598 67.30048 C 38.3044 66.8511 36.95702 66.11249 36.13591 65.64223 C 35.3148 65.17197 34.02673 64.40088 33.24174 63.91118 C 32.45676 63.42148 31.22533 62.62003 30.47821 62.1127 C 29.7311 61.6054 28.56464 60.77803 27.85695 60.25467 C 27.14926 59.73132 26.04553 58.87863 25.37764 58.34065 C 24.70976 57.80267 23.66951 56.92833 23.04329 56.37724 C 22.41707 55.82616 21.44737 54.93068 20.86423 54.36873 C 20.28107 53.80678 19.38051 52.89833 18.84033 52.32701 C 18.30017 51.75569 17.46695 50.83028 16.971 50.251 C 16.47505 49.67175 15.71613 48.73683 15.26582 48.15211 C 14.8155 47.56741 14.12958 46.625 13.72543 46.03671 C 13.32129 45.44841 12.71112 44.50256 12.35301 43.91199 C 11.9949 43.32141 11.45628 42.37103 11.1443 41.78017 C 10.83234 41.1893 10.36923 40.24217 10.1045 39.65338 C 9.83978 39.06459 9.45374 38.12157 9.23624 37.53648 C 9.01875 36.95142 8.70769 36.01602 8.53696 35.43651 C 8.36623 34.857 8.12941 33.93141 8.00566 33.35966 C 7.88191 32.78792 7.72217 31.87788 7.64505 31.31566 C 7.56793 30.75343 7.48071 29.85905 7.44975 29.30745 C 7.4188 28.75584 7.40683 27.87825 7.42186 27.34007 C 7.43687 26.80188 7.49754 25.95169 7.558 25.42859 C 7.61847 24.90549 7.75249 24.07635 7.85765 23.5699 C 7.96281 23.06345 8.16753 22.26616 8.31604 21.77835 C 8.46454 21.29053 8.73703 20.52194 8.92801 20.05399 C 9.11899 19.58603 9.45966 18.85178 9.6926 18.40556 C 9.92554 17.95934 10.33322 17.2603 10.60692 16.83788 C 10.88062 16.41544 11.35274 15.75797 11.66528 15.36093 C 11.97781 14.96391 12.50954 14.34729 12.85956 13.9763 C 13.20958 13.6053 13.80128 13.03024 14.18805 12.68709 C 14.5748 12.34393 15.22542 11.81688 15.64711 11.50307 C 16.06882 11.18925 16.7727 10.70851 17.22739 10.42525 C 17.68208 10.142 18.43839 9.71333 18.92427 9.46153 C 19.41016 9.20975 20.21364 8.82968 20.72932 8.61052 C 21.245 8.39134 22.0975 8.06665 22.64104 7.88184 C 23.18459 7.69702 24.0772 7.42838 24.64684 7.27846 C 25.21649 7.12854 26.15355 6.91563 26.74673 6.80127 C 27.33992 6.6869 28.30754 6.53226 28.9221 6.45418 C 29.53668 6.3761 30.5417 6.27945 31.17613 6.2385 C 31.81056 6.19754 32.8428 6.16188 33.49461 6.15894 C 34.14644 6.15599 35.20657 6.1818 35.87401 6.21722 C 36.54143 6.25266 37.62495 6.3407 38.305 6.41441 C 38.98505 6.48811 40.08443 6.6361 40.77531 6.74857 C 41.4662 6.86102 42.5852 7.07373 43.28452 7.22502 C 43.98381 7.37631 45.1101 7.64877 45.8155 7.83902 C 46.5209 8.02925 47.65884 8.36649 48.36858 8.59619 C 49.07832 8.8259 50.2196 9.2257 50.93082 9.49458 C 51.64203 9.76347 52.78397 10.22708 53.4945 10.53429 C 54.20505 10.84148 55.34421 11.36316 56.05194 11.70871 C 56.75966 12.05426 57.8929 12.64122 58.5954 13.0249 C 59.2979 13.40858 60.42035 14.05342 61.11508 14.47412 C 61.80981 14.89482 62.91722 15.59941 63.60257 16.05711 C 64.28793 16.51482 65.38109 17.27945 66.05466 17.77296 C 66.72823 18.26648 67.79805 19.08545 68.45721 19.61406 C 69.11636 20.14265 70.16214 21.01949 70.80547 21.58278 C 71.4488 22.14607 72.46849 23.07747 73.09401 23.67398 C 73.71953 24.27051 74.70819 25.2537 75.31377 25.88219 C 75.91936 26.51068 76.87486 27.54434 77.45868 28.20384 C 78.0425 28.86336 78.96153 29.94638 79.52155 30.63554 C 80.08156 31.32472 80.96039 32.4534 81.49493 33.17094 C 82.0295 33.88847 82.8666 35.06218 83.37422 35.80705 C 83.88185 36.55193 84.67471 37.76932 85.15364 38.53949 C 85.63258 39.30965 86.37744 40.5642 86.82614 41.35794 C 87.27484 42.1517 87.9704 43.44435 88.38757 44.26035 C 88.80476 45.07632 89.4485 46.40256 89.83301 47.23903 C 90.21751 48.0755 90.80827 49.43336 91.15892 50.28914 C 91.50955 51.14493 92.0447 52.53409 92.3602 53.40697 C 92.67572 54.27983 93.15338 55.69247 93.43295 56.58018 C 93.71251 57.46791 94.13246 58.904 94.37518 59.80513 C 94.61789 60.70624 94.9774 62.16241 95.18236 63.07484 C 95.38731 63.98726 95.68567 65.45918 95.85245 66.38124 C 96.01923 67.3033 96.25641 68.79071 96.3845 69.72044 C 96.51259 70.65018 96.68683 72.14714 96.77571 73.08218 C 96.8646 74.01723 96.97575 75.52133 97.02522 76.45963 C 97.07469 77.3979 97.1224 78.90501 97.13234 79.84476 C 97.14226 80.78448 97.12645 82.29314 97.09682 83.23267 C 97.0672 84.1722 96.9879 85.67924 96.91878 86.61621 C 96.84966 87.55319 96.70697 89.05324 96.59853 89.98573 C 96.4901 90.91823 96.28459 92.4109 96.13718 93.33694 C 95.98976 94.26299 95.72192 95.74243 95.53604 96.66005 C 95.35014 97.57768 95.02124 99.04343 94.79738 99.95062 C 94.57353 100.85783 94.18384 102.30383 93.92262 103.1986 C 93.6614 104.09335 93.21228 105.51915 92.9147 106.39952 C 92.61711 107.27989 92.11093 108.67952 91.77788 109.54384 C 91.44482 110.40816 90.88187 111.78258 90.5142 112.62897 C 90.14656 113.47537 89.52898 114.81743 89.12799 115.6441 C 88.727 116.47076 88.05731 117.7817 87.62415 118.58702 C 87.19098 119.39235 86.4699 120.666 86.00597 121.44841 C 85.54202 122.23083 84.77364 123.46863 84.28036 124.22621 C 83.7871 124.9838 82.97205 126.17764 82.45074 126.9087 C 81.92946 127.63977 81.07072 128.79181 80.52318 129.4953 C 79.97565 130.19878 79.07646 131.30402 78.50433 131.97898 C 77.9322 132.65395 76.9945 133.71556 76.39963 134.36009 C 75.80476 135.00463 74.83261 136.01178 74.21683 136.6244 C 73.60104 137.23703 72.59615 138.19568 71.96144 138.77555 C 71.32675 139.35541 70.29382 140.25763 69.64233 140.80368 C 68.99086 141.34973 67.93277 142.19956 67.26595 142.7112 C 66.59914 143.22284 65.51587 144.01573 64.83633 144.49127 C 64.15681 144.9668 63.05836 145.69922 62.3683 146.13858 C 61.67824 146.57796 60.56169 147.25548 59.86275 147.65799 C 59.16382 148.06052 58.03603 148.67508 57.33076 149.03969 C 56.62549 149.4043 55.48906 149.95902 54.77962 150.28586 C 54.07019 150.6127 52.92877 151.10742 52.21758 151.3954 C 51.50638 151.68338 50.36458 152.11229 49.65378 152.36153 C 48.94298 152.61077 47.8024 152.98157 47.09456 153.19174 C 46.38673 153.40192 45.25461 153.70548 44.5521 153.87638 C 43.84958 154.04727 42.7267 154.29149 42.03128 154.42356 C 41.33585 154.55564 40.2258 154.73503 39.5399 154.8283 C 38.854 154.92156 37.76164 155.04137 37.08778 155.09583 C 36.41393 155.15027 35.34293 155.20476 34.68318 155.22081 C 34.02345 155.23686 32.97653 155.23332 32.33286 155.21161 C 31.68916 155.18991 30.66908 155.12381 30.04395 155.06429 C 29.41881 155.00478 28.4315 154.87909 27.8273 154.78264 C 27.2231 154.6862 26.27078 154.50159 25.68925 154.36913 C 25.10771 154.23665 24.19263 153.99538 23.6359 153.82785 C 23.07915 153.66033 22.20636 153.36347 21.67664 153.16164 C 21.1469 152.95983 20.31914 152.60842 19.81792 152.37319 C 19.3167 152.13794 18.53517 151.73355 18.06412 151.46619 C 17.59308 151.1988 16.86156 150.7446 16.4229 150.44609 C 15.98425 150.1476 15.30664 149.64357 14.90256 149.31467 C 14.49847 148.98575 13.87926 148.43273 13.51054 148.07549 C 13.14182 147.71826 12.57637 147.12429 12.24495 146.73996 C 11.91351 146.35564 11.415 145.71567 11.1218 145.3055 C 10.82858 144.89534 10.38533 144.21796 10.13165 143.78368 C 9.87798 143.34941 9.50565 142.63263 9.2934 142.17546 C 9.08115 141.71829 8.77217 140.9667 8.60184 140.48871 C 8.4315 140.01071 8.19269 139.2275 8.06572 138.73036 C 7.93875 138.23323 7.76945 137.42052 7.68668 136.90563 C 7.6039 136.39073 7.50684 135.5503 7.46913 135.01932 C 7.43143 134.48834 7.40735 133.62386 7.41489 133.07872 C 7.42241 132.53357 7.46974 131.64734 7.52347 131.09029 C 7.5772 130.53324 7.70161 129.63109 7.80217 129.06385 C 7.90271 128.4966 8.1011 127.57774 8.24818 127.00186 C 8.39526 126.42598 8.66855 125.4957 8.86224 124.91324 C 9.05594 124.33076 9.40327 123.3911 9.64424 122.8038 C 9.8852 122.21652 10.31117 121.27051 10.59906 120.68045 C 10.88693 120.09041 11.38437 119.14186 11.71912 118.55109 C 12.05386 117.96031 12.6301 117.01236 13.01169 116.42247 C 13.39326 115.8326 14.04187 114.88641 14.46942 114.29962 C 14.89696 113.71283 15.6197 112.77531 16.09315 112.19315 C 16.5666 111.61098 17.3639 110.67918 17.88177 110.1036 C 18.39964 109.52803 19.26419 108.61165 19.82565 108.04472 C 20.3871 107.4778 21.32332 106.57436 21.92839 106.01756 C 22.53346 105.46075 23.53966 104.5763 24.18658 104.03166 C 24.8335 103.48703 25.90312 102.62314 26.59099 102.09221 C 27.27887 101.56128 28.41669 100.72058 29.14433 100.20508 C 29.87196 99.68958 31.06941 98.87546 31.83537 98.37677 C 32.60132 97.87808 33.86166 97.09122 34.66487 96.61082 C 35.46806 96.13045 36.786 95.37448 37.62431 94.91441 C 38.46263 94.45435 39.83482 93.73338 40.70688 93.29483 C 41.57892 92.8563 43.00507 92.16966 43.90947 91.75366 C 44.81386 91.33766 46.29091 90.68832 47.22519 90.29659 C 48.15948 89.90485 49.68065 89.29659 50.64314 88.93022 C 51.60565 88.56387 53.17342 87.99619 54.16226 87.65608 C 55.1511 87.316 56.75719 86.79152 57.7701 86.479 C 58.783 86.16647 60.42747 85.6876 61.46268 85.40358 C 62.49786 85.11957 64.17567 84.6867 65.23108 84.43192 C 66.28647 84.17714 67.99648 83.79185 69.06929 83.56721 C 70.14209 83.34258 71.87502 83.00662 72.96318 82.81284 C 74.05133 82.61903 75.8102 82.33287 76.91205 82.17038 C 78.0139 82.00789 79.79202 81.77225 80.90465 81.64162 C 82.01726 81.511 83.81024 81.32726 84.93103 81.22899 C 86.0518 81.1307 87.85541 80.999 88.98248 80.93327 C 90.10956 80.86755 91.92386 80.78824 93.05428 80.75533 C 94.18471 80.7224 97.12982 80.69589 97.12982 80.69589 "/>
</g>
<symbol id="font_3_1">
<path d="M .305 .31300003 C .311 .33900003 .334 .43100003 .404 .43100003 C .409 .43100003 .433 .43100003 .454 .418 C .426 .41300003 .40600003 .388 .40600003 .36400003 C .40600003 .34800003 .417 .32900004 .444 .32900004 C .46600003 .32900004 .498 .34700004 .498 .38700003 C .498 .43900005 .439 .45300005 .405 .45300005 C .347 .45300005 .312 .40000005 .3 .37700004 C .275 .44300003 .221 .45300005 .19200002 .45300005 C .08800001 .45300005 .031000002 .32400004 .031000002 .29900003 C .031000002 .28900004 .041 .28900004 .043000007 .28900004 C .051000008 .28900004 .054000006 .291 .056 .3 C .09 .40600003 .156 .43100003 .19000001 .43100003 C .209 .43100003 .244 .42200003 .244 .36400003 C .244 .33300004 .22700002 .26600004 .19000001 .126 C .17400001 .064 .13900002 .022000002 .095000009 .022000002 C .08900001 .022000002 .06600001 .022000002 .045 .035 C .07000001 .040000004 .09200001 .061 .09200001 .089 C .09200001 .116000007 .07000001 .124000009 .055000009 .124000009 C .025 .124000009 0 .098000008 0 .06600001 C 0 .020000002 .050000006 0 .094000007 0 C .16000001 0 .19600001 .07000001 .19900002 .076000008 C .21100001 .039 .24700003 0 .307 0 C .41 0 .467 .12900001 .467 .15400002 C .467 .16400002 .458 .16400002 .455 .16400002 C .446 .16400002 .444 .16000001 .442 .15300001 C .409 .046 .341 .022000002 .30900003 .022000002 C .27 .022000002 .254 .054 .254 .08800001 C .254 .11000001 .26 .13200002 .271 .17600002 L .305 .31300003 Z "/>
</symbol>
<use xlink:href="#font_3_1" transform="matrix(9.9626,0,0,-9.9626,198.30792,96.02959)"/>
<symbol id="font_3_2">
<path d="M .45700003 .586 C .461 .6 .461 .602 .461 .609 C .461 .62700006 .447 .63600006 .432 .63600006 C .42200003 .63600006 .40600003 .63 .397 .615 C .395 .61 .387 .579 .38300003 .561 C .37600003 .535 .36900003 .508 .363 .48100005 L .318 .301 C .314 .286 .271 .21600002 .20500002 .21600002 C .15400002 .21600002 .143 .26000003 .143 .29700003 C .143 .34300003 .16000001 .40500004 .194 .49300004 C .21000001 .53400006 .21400002 .545 .21400002 .56500008 C .21400002 .61 .18200001 .6470001 .13200002 .6470001 C .037 .6470001 0 .50200006 0 .49300004 C 0 .48300005 .01 .48300005 .012 .48300005 C .022000002 .48300005 .023 .485 .028000003 .50100007 C .055000009 .595 .095000009 .625 .12900001 .625 C .13700001 .625 .15400002 .625 .15400002 .59300008 C .15400002 .568 .14400001 .54200008 .13700001 .523 C .097 .41700004 .079 .36 .079 .31300003 C .079 .224 .142 .194 .201 .194 C .24000003 .194 .274 .21100001 .30200003 .23900002 C .289 .187 .277 .13800001 .237 .08500001 C .21100001 .051 .17300001 .022 .127 .022 C .113000009 .022 .068 .025000006 .051000008 .06400001 C .067 .06400001 .080000009 .06400001 .094000007 .076000008 C .104 .08500001 .11400001 .098000008 .11400001 .117000009 C .11400001 .148 .087000008 .15200001 .07700001 .15200001 C .054000006 .15200001 .021 .136 .021 .087000008 C .021 .037 .065000008 0 .127 0 C .23 0 .333 .091000009 .361 .20400001 L .45700003 .586 Z "/>
</symbol>
<use xlink:href="#font_3_2" transform="matrix(9.9626,0,0,-9.9626,95.01891,9.652334)"/>
</svg>
