<?xml version="1.0" encoding="UTF-8" standalone="no"?>
<!DOCTYPE svg PUBLIC "-//W3C//DTD SVG 1.1//EN" "http://www.w3.org/Graphics/SVG/1.1/DTD/svg11.dtd">
<svg xmlns="http://www.w3.org/2000/svg" xmlns:xlink="http://www.w3.org/1999/xlink" version="1.1" width="206.059pt" height="173.559pt" viewBox="0 0 206.059 173.559">
<clipPath id="cp0">
<path transform="matrix(1,0,0,-1,.199,173.36)" d="M 0 0 L 194.26866 0 L 194.26866 161.39241 L 0 161.39241 Z "/>
</clipPath>
<g clip-path="url(#cp0)">
<path transform="matrix(1,0,0,-1,.199,173.36)" d="M 70.02707 110.1816 C 70.02707 110.1816 69.36362 110.17548 69.1101 110.17105 C 68.8566 110.16663 68.4519 110.15724 68.19992 110.14967 C 67.94792 110.14209 67.54494 110.12782 67.29388 110.1164 C 67.04285 110.10495 66.64046 110.08258 66.39055 110.06721 C 66.14063 110.05183 65.74124 110.02446 65.49261 110.00555 C 65.24397 109.98663 64.8461 109.95374 64.59859 109.9309 C 64.35106 109.90807 63.9546 109.86763 63.70859 109.84096 C 63.46255 109.8143 63.0696 109.76859 62.82536 109.73871 C 62.58113 109.70885 62.19109 109.65926 61.94823 109.62561 C 61.70535 109.59196 61.3162 109.53368 61.07484 109.4962 C 60.83348 109.45871 60.44809 109.39601 60.20865 109.35532 C 59.9692 109.31462 59.5868 109.24724 59.34898 109.20287 C 59.11116 109.15851 58.73056 109.08334 58.4945 109.0355 C 58.25844 108.98769 57.8813 108.90874 57.64758 108.85812 C 57.41386 108.8075 57.04182 108.72505 56.80997 108.67064 C 56.57811 108.61621 56.20662 108.52396 55.97644 108.46579 C 55.74628 108.40762 55.3786 108.31221 55.15097 108.25142 C 54.92336 108.19064 54.56111 108.09178 54.33586 108.02766 C 54.11061 107.96356 53.75098 107.85701 53.52754 107.78929 C 53.30411 107.72156 52.94646 107.60994 52.72546 107.53954 C 52.50449 107.46913 52.15309 107.35516 51.93478 107.28181 C 51.71649 107.20847 51.36812 107.08743 51.15204 107.01083 C 50.93596 106.93425 50.59091 106.80907 50.37737 106.72978 C 50.16383 106.65051 49.82373 106.52174 49.61295 106.43936 C 49.40215 106.35698 49.06624 106.22134 48.85814 106.13602 C 48.65004 106.05067 48.31837 105.91188 48.11308 105.82431 C 47.90779 105.73672 47.5812 105.59523 47.3785 105.50476 C 47.17578 105.41429 46.85199 105.26567 46.65195 105.1722 C 46.4519 105.0787 46.13367 104.92674 45.93666 104.83104 C 45.73965 104.73535 45.42618 104.58067 45.23209 104.48247 C 45.03798 104.38425 44.72888 104.22398 44.53772 104.12311 C 44.34656 104.02222 44.04234 103.8585 43.85419 103.75533 C 43.66603 103.65213 43.36662 103.48465 43.1816 103.37932 C 42.99655 103.27397 42.70245 103.10379 42.52055 102.99612 C 42.33864 102.88844 42.04951 102.71318 41.87053 102.60323 C 41.69154 102.49327 41.40633 102.31578 41.23051 102.2036 C 41.0547 102.0914 40.77579 101.909 40.6033 101.79462 C 40.43083 101.68024 40.15651 101.49507 39.98727 101.37915 C 39.81805 101.26321 39.54948 101.07687 39.38353 100.95903 C 39.21758 100.8412 38.95383 100.64983 38.79108 100.5298 C 38.62833 100.40976 38.36984 100.21542 38.21045 100.0938 C 38.05106 99.97218 37.79816 99.77643 37.64218 99.65321 C 37.48622 99.53 37.23888 99.3309 37.08627 99.20576 C 36.93365 99.08061 36.69139 98.87782 36.54222 98.75125 C 36.39304 98.62468 36.15675 98.42148 36.011 98.29347 C 35.86525 98.16548 35.6339 97.95825 35.4917 97.82866 C 35.3495 97.69907 35.12488 97.49031 34.98604 97.35939 C 34.8472 97.22847 34.6266 97.01735 34.49101 96.88498 C 34.35542 96.75262 34.14078 96.53902 34.00879 96.40533 C 33.87682 96.27164 33.66814 96.05603 33.53973 95.92139 C 33.41135 95.78674 33.20825 95.57047 33.08339 95.4348 C 32.95853 95.29915 32.76102 95.08029 32.63972 94.94357 C 32.51842 94.80684 32.32686 94.58693 32.20906 94.44934 C 32.09126 94.31174 31.90504 94.0904 31.79065 93.95187 C 31.67625 93.81334 31.4953 93.59053 31.38448 93.45097 C 31.27365 93.31142 31.09914 93.0863 30.99188 92.946 C 30.88463 92.8057 30.71516 92.58037 30.61145 92.43971 C 30.50775 92.29904 30.34451 92.07346 30.24442 91.9321 C 30.14433 91.79076 29.98668 91.56287 29.89008 91.4209 C 29.79347 91.27895 29.64128 91.0514 29.54805 90.90894 C 29.45482 90.76646 29.30765 90.53691 29.21805 90.39397 C 29.12845 90.25102 28.9882 90.0218 28.9022 89.87868 C 28.81621 89.73555 28.68085 89.50574 28.5982 89.36238 C 28.51558 89.21901 28.3857 88.98885 28.30658 88.84534 C 28.22746 88.70183 28.10353 88.47157 28.02792 88.32797 C 27.95233 88.18437 27.83391 87.9541 27.76167 87.8103 C 27.68945 87.66649 27.5761 87.43524 27.5073 87.29143 C 27.43848 87.14761 27.33115 86.91742 27.26578 86.77371 C 27.20041 86.62999 27.09814 86.39908 27.03615 86.25552 C 26.97415 86.11198 26.87752 85.88226 26.81892 85.73901 C 26.76035 85.59576 26.66907 85.36618 26.61377 85.22307 C 26.55849 85.07996 26.47238 84.85023 26.4204 84.70755 C 26.36841 84.56487 26.28769 84.33694 26.23901 84.19464 C 26.19034 84.05234 26.11494 83.82384 26.06952 83.68187 C 26.0241 83.5399 25.95378 83.31265 25.91156 83.17136 C 25.86935 83.03004 25.8042 82.80406 25.7652 82.66336 C 25.72621 82.52267 25.66637 82.29749 25.6305 82.15726 C 25.59462 82.01704 25.53938 81.79222 25.50659 81.65273 C 25.4738 81.51323 25.42374 81.29056 25.39406 81.15181 C 25.36438 81.01306 25.31926 80.79057 25.29262 80.65265 C 25.26599 80.51471 25.22572 80.2947 25.20207 80.15771 C 25.17842 80.02072 25.14276 79.80164 25.12204 79.66534 C 25.10132 79.52904 25.07047 79.31053 25.05269 79.17526 C 25.0349 79.03998 25.00874 78.82457 24.9938 78.6903 C 24.97888 78.55605 24.95709 78.34067 24.94499 78.20752 C 24.93289 78.07436 24.91585 77.86258 24.90654 77.7306 C 24.89722 77.59865 24.88443 77.38733 24.87782 77.25632 C 24.8712 77.12529 24.86275 76.91585 24.85883 76.7862 C 24.8549 76.65652 24.85077 76.45012 24.84949 76.32172 C 24.84819 76.19333 24.84819 75.98793 24.84946 75.86078 C 24.85071 75.73363 24.85484 75.53104 24.85863 75.4053 C 24.86241 75.27957 24.87048 75.07893 24.87674 74.95451 C 24.88298 74.83011 24.89502 74.63164 24.9037 74.50858 C 24.91238 74.38553 24.92831 74.18901 24.93935 74.06749 C 24.95036 73.94598 24.96988 73.75275 24.98318 73.63278 C 24.99649 73.51282 25.0197 73.32141 25.03526 73.20291 C 25.05083 73.08441 25.07768 72.89561 25.09543 72.77863 C 25.11319 72.66165 25.14343 72.47514 25.1633 72.3598 C 25.18317 72.24445 25.21675 72.06091 25.23871 71.94717 C 25.26068 71.83344 25.29773 71.652 25.32167 71.54 C 25.34561 71.42798 25.38542 71.25012 25.41129 71.13986 C 25.43715 71.02959 25.48032 70.85379 25.50812 70.74513 C 25.53592 70.63649 25.5821 70.46364 25.61171 70.35678 C 25.64131 70.24992 25.69012 70.08002 25.72145 69.9749 C 25.75278 69.86978 25.80455 69.70245 25.83763 69.59914 C 25.8707 69.49582 25.92525 69.33168 25.95993 69.23027 C 25.9946 69.12886 26.05136 68.9677 26.08755 68.86813 C 26.12375 68.76855 26.1831 68.61026 26.22086 68.51253 C 26.25859 68.4148 26.32048 68.25954 26.35965 68.1637 C 26.3988 68.06787 26.46266 67.91576 26.5032 67.8218 C 26.54373 67.72783 26.60992 67.57857 26.65184 67.48645 C 26.69376 67.39435 26.7622 67.24811 26.80536 67.15793 C 26.8485 67.06775 26.91858 66.92468 26.9628 66.8365 C 27.00702 66.74834 27.07874 66.60858 27.1241 66.52238 C 27.16948 66.43619 27.24348 66.29942 27.28987 66.21523 C 27.33626 66.13101 27.41112 65.99774 27.45842 65.91548 C 27.5057 65.83322 27.58246 65.70267 27.63078 65.6223 C 27.67912 65.54193 27.75766 65.41452 27.80682 65.33617 C 27.85599 65.25781 27.9353 65.13393 27.98517 65.05756 C 28.03502 64.98119 28.11563 64.86012 28.16626 64.7857 C 28.2169 64.71127 28.29892 64.59355 28.3502 64.52113 C 28.4015 64.4487 28.48418 64.33412 28.536 64.26373 C 28.5878 64.19333 28.6713 64.0821 28.72368 64.01366 C 28.77606 63.9452 28.86076 63.83679 28.91357 63.7703 C 28.96638 63.70381 29.05132 63.59883 29.1044 63.5344 C 29.15749 63.46996 29.24275 63.36833 29.29623 63.30582 C 29.3497 63.2433 29.4362 63.14436 29.48994 63.0838 C 29.54369 63.02322 29.62982 62.9278 29.68365 62.8692 C 29.73747 62.81061 29.82397 62.71817 29.878 62.6615 C 29.93204 62.60483 30.01894 62.51547 30.0731 62.46066 C 30.12729 62.40587 30.21446 62.3193 30.2685 62.26646 C 30.32254 62.21362 30.40872 62.1307 30.46268 62.07977 C 30.51663 62.02885 30.60338 61.94853 30.65736 61.8994 C 30.71135 61.85027 30.79799 61.77292 30.85176 61.72565 C 30.90552 61.67839 30.9915 61.60406 31.04497 61.55867 C 31.09843 61.51328 31.18399 61.442 31.2372 61.39838 C 31.2904 61.35477 31.37584 61.28606 31.42854 61.24431 C 31.48125 61.20256 31.56477 61.13748 31.61713 61.09749 C 31.66948 61.0575 31.75381 60.99438 31.8059 60.95604 C 31.85797 60.91768 31.94124 60.85753 31.99257 60.821 C 32.04391 60.78447 32.12518 60.72754 32.1759 60.6927 C 32.22664 60.65788 32.30797 60.60316 32.35826 60.56992 C 32.40854 60.53667 32.48892 60.48456 32.53835 60.45302 C 32.58778 60.42148 32.66588 60.37245 32.71457 60.3425 C 32.76326 60.31255 32.84128 60.2656 32.88934 60.23717 C 32.9374 60.20874 33.01399 60.16437 33.061 60.13754 C 33.10803 60.11073 33.1822 60.06912 33.22829 60.04382 C 33.27438 60.01852 33.3479 59.97906 33.39331 59.95515 C 33.43872 59.93124 33.5113 59.8939 33.55559 59.87146 C 33.59987 59.84903 33.66943 59.81438 33.71259 59.79338 C 33.75572 59.7724 33.82428 59.73976 33.86655 59.72005 C 33.90883 59.70035 33.97635 59.66963 34.01733 59.65129 C 34.05832 59.63297 34.12234 59.60486 34.162 59.58786 C 34.20166 59.57086 34.2645 59.54454 34.30325 59.5287 C 34.34203 59.51286 34.40395 59.48822 34.4414 59.47359 C 34.47888 59.45894 34.53722 59.43658 34.57344 59.4231 C 34.60966 59.4096 34.66743 59.38873 34.70255 59.37633 C 34.73767 59.3639 34.79318 59.34483 34.82658 59.33357 C 34.85999 59.32231 34.91139 59.30533 34.94327 59.29512 C 34.97516 59.28493 35.02556 59.26927 35.05637 59.25998 C 35.08716 59.25069 35.13597 59.23645 35.16531 59.22809 C 35.19466 59.21973 35.24016 59.2071 35.2679 59.19966 C 35.29564 59.19221 35.33885 59.18095 35.36533 59.17432 C 35.39182 59.16768 35.43398 59.15752 35.45882 59.15169 C 35.48366 59.14584 35.52135 59.13724 35.54439 59.13217 C 35.56744 59.12712 35.60321 59.11957 35.625 59.11516 C 35.64677 59.11076 35.68134 59.1041 35.70148 59.10034 C 35.72162 59.09659 35.7518 59.09116 35.77023 59.08801 C 35.78865 59.08487 35.81717 59.08023 35.83429 59.0776 C 35.85141 59.07497 35.87852 59.07106 35.89365 59.06895 C 35.90875 59.06683 35.92995 59.06398 35.9433 59.06232 C 35.95663 59.06067 35.97777 59.05824 35.9899 59.05695 C 36.00203 59.05563 36.02063 59.05382 36.03078 59.05287 C 36.04094 59.05193 36.05475 59.0507 36.06317 59.05005 C 36.0716 59.04941 36.08443 59.04852 36.09154 59.04808 C 36.09866 59.04764 36.10942 59.0471 36.11455 59.04686 C 36.11966 59.04662 36.12523 59.04639 36.12854 59.04628 C 36.13185 59.04617 36.1366 59.04607 36.13847 59.04604 C 36.14034 59.046 36.14209 59.04599 36.14209 59.04599 L 36.143 59.04599 " fill="#00ff00"/>
<path transform="matrix(1,0,0,-1,.199,173.36)" stroke-width="1.19553" stroke-linecap="butt" stroke-miterlimit="10" stroke-linejoin="miter" fill="none" stroke="#00ff00" d="M 70.02707 110.1816 C 70.02707 110.1816 69.36362 110.17548 69.1101 110.17105 C 68.8566 110.16663 68.4519 110.15724 68.19992 110.14967 C 67.94792 110.14209 67.54494 110.12782 67.29388 110.1164 C 67.04285 110.10495 66.64046 110.08258 66.39055 110.06721 C 66.14063 110.05183 65.74124 110.02446 65.49261 110.00555 C 65.24397 109.98663 64.8461 109.95374 64.59859 109.9309 C 64.35106 109.90807 63.9546 109.86763 63.70859 109.84096 C 63.46255 109.8143 63.0696 109.76859 62.82536 109.73871 C 62.58113 109.70885 62.19109 109.65926 61.94823 109.62561 C 61.70535 109.59196 61.3162 109.53368 61.07484 109.4962 C 60.83348 109.45871 60.44809 109.39601 60.20865 109.35532 C 59.9692 109.31462 59.5868 109.24724 59.34898 109.20287 C 59.11116 109.15851 58.73056 109.08334 58.4945 109.0355 C 58.25844 108.98769 57.8813 108.90874 57.64758 108.85812 C 57.41386 108.8075 57.04182 108.72505 56.80997 108.67064 C 56.57811 108.61621 56.20662 108.52396 55.97644 108.46579 C 55.74628 108.40762 55.3786 108.31221 55.15097 108.25142 C 54.92336 108.19064 54.56111 108.09178 54.33586 108.02766 C 54.11061 107.96356 53.75098 107.85701 53.52754 107.78929 C 53.30411 107.72156 52.94646 107.60994 52.72546 107.53954 C 52.50449 107.46913 52.15309 107.35516 51.93478 107.28181 C 51.71649 107.20847 51.36812 107.08743 51.15204 107.01083 C 50.93596 106.93425 50.59091 106.80907 50.37737 106.72978 C 50.16383 106.65051 49.82373 106.52174 49.61295 106.43936 C 49.40215 106.35698 49.06624 106.22134 48.85814 106.13602 C 48.65004 106.05067 48.31837 105.91188 48.11308 105.82431 C 47.90779 105.73672 47.5812 105.59523 47.3785 105.50476 C 47.17578 105.41429 46.85199 105.26567 46.65195 105.1722 C 46.4519 105.0787 46.13367 104.92674 45.93666 104.83104 C 45.73965 104.73535 45.42618 104.58067 45.23209 104.48247 C 45.03798 104.38425 44.72888 104.22398 44.53772 104.12311 C 44.34656 104.02222 44.04234 103.8585 43.85419 103.75533 C 43.66603 103.65213 43.36662 103.48465 43.1816 103.37932 C 42.99655 103.27397 42.70245 103.10379 42.52055 102.99612 C 42.33864 102.88844 42.04951 102.71318 41.87053 102.60323 C 41.69154 102.49327 41.40633 102.31578 41.23051 102.2036 C 41.0547 102.0914 40.77579 101.909 40.6033 101.79462 C 40.43083 101.68024 40.15651 101.49507 39.98727 101.37915 C 39.81805 101.26321 39.54948 101.07687 39.38353 100.95903 C 39.21758 100.8412 38.95383 100.64983 38.79108 100.5298 C 38.62833 100.40976 38.36984 100.21542 38.21045 100.0938 C 38.05106 99.97218 37.79816 99.77643 37.64218 99.65321 C 37.48622 99.53 37.23888 99.3309 37.08627 99.20576 C 36.93365 99.08061 36.69139 98.87782 36.54222 98.75125 C 36.39304 98.62468 36.15675 98.42148 36.011 98.29347 C 35.86525 98.16548 35.6339 97.95825 35.4917 97.82866 C 35.3495 97.69907 35.12488 97.49031 34.98604 97.35939 C 34.8472 97.22847 34.6266 97.01735 34.49101 96.88498 C 34.35542 96.75262 34.14078 96.53902 34.00879 96.40533 C 33.87682 96.27164 33.66814 96.05603 33.53973 95.92139 C 33.41135 95.78674 33.20825 95.57047 33.08339 95.4348 C 32.95853 95.29915 32.76102 95.08029 32.63972 94.94357 C 32.51842 94.80684 32.32686 94.58693 32.20906 94.44934 C 32.09126 94.31174 31.90504 94.0904 31.79065 93.95187 C 31.67625 93.81334 31.4953 93.59053 31.38448 93.45097 C 31.27365 93.31142 31.09914 93.0863 30.99188 92.946 C 30.88463 92.8057 30.71516 92.58037 30.61145 92.43971 C 30.50775 92.29904 30.34451 92.07346 30.24442 91.9321 C 30.14433 91.79076 29.98668 91.56287 29.89008 91.4209 C 29.79347 91.27895 29.64128 91.0514 29.54805 90.90894 C 29.45482 90.76646 29.30765 90.53691 29.21805 90.39397 C 29.12845 90.25102 28.9882 90.0218 28.9022 89.87868 C 28.81621 89.73555 28.68085 89.50574 28.5982 89.36238 C 28.51558 89.21901 28.3857 88.98885 28.30658 88.84534 C 28.22746 88.70183 28.10353 88.47157 28.02792 88.32797 C 27.95233 88.18437 27.83391 87.9541 27.76167 87.8103 C 27.68945 87.66649 27.5761 87.43524 27.5073 87.29143 C 27.43848 87.14761 27.33115 86.91742 27.26578 86.77371 C 27.20041 86.62999 27.09814 86.39908 27.03615 86.25552 C 26.97415 86.11198 26.87752 85.88226 26.81892 85.73901 C 26.76035 85.59576 26.66907 85.36618 26.61377 85.22307 C 26.55849 85.07996 26.47238 84.85023 26.4204 84.70755 C 26.36841 84.56487 26.28769 84.33694 26.23901 84.19464 C 26.19034 84.05234 26.11494 83.82384 26.06952 83.68187 C 26.0241 83.5399 25.95378 83.31265 25.91156 83.17136 C 25.86935 83.03004 25.8042 82.80406 25.7652 82.66336 C 25.72621 82.52267 25.66637 82.29749 25.6305 82.15726 C 25.59462 82.01704 25.53938 81.79222 25.50659 81.65273 C 25.4738 81.51323 25.42374 81.29056 25.39406 81.15181 C 25.36438 81.01306 25.31926 80.79057 25.29262 80.65265 C 25.26599 80.51471 25.22572 80.2947 25.20207 80.15771 C 25.17842 80.02072 25.14276 79.80164 25.12204 79.66534 C 25.10132 79.52904 25.07047 79.31053 25.05269 79.17526 C 25.0349 79.03998 25.00874 78.82457 24.9938 78.6903 C 24.97888 78.55605 24.95709 78.34067 24.94499 78.20752 C 24.93289 78.07436 24.91585 77.86258 24.90654 77.7306 C 24.89722 77.59865 24.88443 77.38733 24.87782 77.25632 C 24.8712 77.12529 24.86275 76.91585 24.85883 76.7862 C 24.8549 76.65652 24.85077 76.45012 24.84949 76.32172 C 24.84819 76.19333 24.84819 75.98793 24.84946 75.86078 C 24.85071 75.73363 24.85484 75.53104 24.85863 75.4053 C 24.86241 75.27957 24.87048 75.07893 24.87674 74.95451 C 24.88298 74.83011 24.89502 74.63164 24.9037 74.50858 C 24.91238 74.38553 24.92831 74.18901 24.93935 74.06749 C 24.95036 73.94598 24.96988 73.75275 24.98318 73.63278 C 24.99649 73.51282 25.0197 73.32141 25.03526 73.20291 C 25.05083 73.08441 25.07768 72.89561 25.09543 72.77863 C 25.11319 72.66165 25.14343 72.47514 25.1633 72.3598 C 25.18317 72.24445 25.21675 72.06091 25.23871 71.94717 C 25.26068 71.83344 25.29773 71.652 25.32167 71.54 C 25.34561 71.42798 25.38542 71.25012 25.41129 71.13986 C 25.43715 71.02959 25.48032 70.85379 25.50812 70.74513 C 25.53592 70.63649 25.5821 70.46364 25.61171 70.35678 C 25.64131 70.24992 25.69012 70.08002 25.72145 69.9749 C 25.75278 69.86978 25.80455 69.70245 25.83763 69.59914 C 25.8707 69.49582 25.92525 69.33168 25.95993 69.23027 C 25.9946 69.12886 26.05136 68.9677 26.08755 68.86813 C 26.12375 68.76855 26.1831 68.61026 26.22086 68.51253 C 26.25859 68.4148 26.32048 68.25954 26.35965 68.1637 C 26.3988 68.06787 26.46266 67.91576 26.5032 67.8218 C 26.54373 67.72783 26.60992 67.57857 26.65184 67.48645 C 26.69376 67.39435 26.7622 67.24811 26.80536 67.15793 C 26.8485 67.06775 26.91858 66.92468 26.9628 66.8365 C 27.00702 66.74834 27.07874 66.60858 27.1241 66.52238 C 27.16948 66.43619 27.24348 66.29942 27.28987 66.21523 C 27.33626 66.13101 27.41112 65.99774 27.45842 65.91548 C 27.5057 65.83322 27.58246 65.70267 27.63078 65.6223 C 27.67912 65.54193 27.75766 65.41452 27.80682 65.33617 C 27.85599 65.25781 27.9353 65.13393 27.98517 65.05756 C 28.03502 64.98119 28.11563 64.86012 28.16626 64.7857 C 28.2169 64.71127 28.29892 64.59355 28.3502 64.52113 C 28.4015 64.4487 28.48418 64.33412 28.536 64.26373 C 28.5878 64.19333 28.6713 64.0821 28.72368 64.01366 C 28.77606 63.9452 28.86076 63.83679 28.91357 63.7703 C 28.96638 63.70381 29.05132 63.59883 29.1044 63.5344 C 29.15749 63.46996 29.24275 63.36833 29.29623 63.30582 C 29.3497 63.2433 29.4362 63.14436 29.48994 63.0838 C 29.54369 63.02322 29.62982 62.9278 29.68365 62.8692 C 29.73747 62.81061 29.82397 62.71817 29.878 62.6615 C 29.93204 62.60483 30.01894 62.51547 30.0731 62.46066 C 30.12729 62.40587 30.21446 62.3193 30.2685 62.26646 C 30.32254 62.21362 30.40872 62.1307 30.46268 62.07977 C 30.51663 62.02885 30.60338 61.94853 30.65736 61.8994 C 30.71135 61.85027 30.79799 61.77292 30.85176 61.72565 C 30.90552 61.67839 30.9915 61.60406 31.04497 61.55867 C 31.09843 61.51328 31.18399 61.442 31.2372 61.39838 C 31.2904 61.35477 31.37584 61.28606 31.42854 61.24431 C 31.48125 61.20256 31.56477 61.13748 31.61713 61.09749 C 31.66948 61.0575 31.75381 60.99438 31.8059 60.95604 C 31.85797 60.91768 31.94124 60.85753 31.99257 60.821 C 32.04391 60.78447 32.12518 60.72754 32.1759 60.6927 C 32.22664 60.65788 32.30797 60.60316 32.35826 60.56992 C 32.40854 60.53667 32.48892 60.48456 32.53835 60.45302 C 32.58778 60.42148 32.66588 60.37245 32.71457 60.3425 C 32.76326 60.31255 32.84128 60.2656 32.88934 60.23717 C 32.9374 60.20874 33.01399 60.16437 33.061 60.13754 C 33.10803 60.11073 33.1822 60.06912 33.22829 60.04382 C 33.27438 60.01852 33.3479 59.97906 33.39331 59.95515 C 33.43872 59.93124 33.5113 59.8939 33.55559 59.87146 C 33.59987 59.84903 33.66943 59.81438 33.71259 59.79338 C 33.75572 59.7724 33.82428 59.73976 33.86655 59.72005 C 33.90883 59.70035 33.97635 59.66963 34.01733 59.65129 C 34.05832 59.63297 34.12234 59.60486 34.162 59.58786 C 34.20166 59.57086 34.2645 59.54454 34.30325 59.5287 C 34.34203 59.51286 34.40395 59.48822 34.4414 59.47359 C 34.47888 59.45894 34.53722 59.43658 34.57344 59.4231 C 34.60966 59.4096 34.66743 59.38873 34.70255 59.37633 C 34.73767 59.3639 34.79318 59.34483 34.82658 59.33357 C 34.85999 59.32231 34.91139 59.30533 34.94327 59.29512 C 34.97516 59.28493 35.02556 59.26927 35.05637 59.25998 C 35.08716 59.25069 35.13597 59.23645 35.16531 59.22809 C 35.19466 59.21973 35.24016 59.2071 35.2679 59.19966 C 35.29564 59.19221 35.33885 59.18095 35.36533 59.17432 C 35.39182 59.16768 35.43398 59.15752 35.45882 59.15169 C 35.48366 59.14584 35.52135 59.13724 35.54439 59.13217 C 35.56744 59.12712 35.60321 59.11957 35.625 59.11516 C 35.64677 59.11076 35.68134 59.1041 35.70148 59.10034 C 35.72162 59.09659 35.7518 59.09116 35.77023 59.08801 C 35.78865 59.08487 35.81717 59.08023 35.83429 59.0776 C 35.85141 59.07497 35.87852 59.07106 35.89365 59.06895 C 35.90875 59.06683 35.92995 59.06398 35.9433 59.06232 C 35.95663 59.06067 35.97777 59.05824 35.9899 59.05695 C 36.00203 59.05563 36.02063 59.05382 36.03078 59.05287 C 36.04094 59.05193 36.05475 59.0507 36.06317 59.05005 C 36.0716 59.04941 36.08443 59.04852 36.09154 59.04808 C 36.09866 59.04764 36.10942 59.0471 36.11455 59.04686 C 36.11966 59.04662 36.12523 59.04639 36.12854 59.04628 C 36.13185 59.04617 36.1366 59.04607 36.13847 59.04604 C 36.14034 59.046 36.14209 59.04599 36.14209 59.04599 L 36.143 59.04599 "/>
<path transform="matrix(1,0,0,-1,.199,173.36)" d="M 70.02707 110.1816 C 70.02707 110.1816 69.77791 110.05359 69.6823 110.0042 C 69.5867 109.9548 69.43274 109.87465 69.338 109.82555 C 69.24326 109.77644 69.0937 109.69945 68.99947 109.65027 C 68.90523 109.60109 68.75264 109.52075 68.65869 109.47102 C 68.56474 109.4213 68.4156 109.3417 68.32233 109.29181 C 68.22903 109.2419 68.07951 109.16191 67.98637 109.11125 C 67.89323 109.06058 67.74393 108.97812 67.65091 108.92654 C 67.55789 108.87497 67.40881 108.79147 67.31593 108.73944 C 67.22305 108.68741 67.0738 108.60385 66.98141 108.5515 C 66.88902 108.49915 66.74188 108.41481 66.65 108.36208 C 66.55812 108.30934 66.4105 108.2241 66.31912 108.17137 C 66.22775 108.11864 66.08235 108.03534 65.99129 107.98192 C 65.90024 107.92851 65.75366 107.84067 65.66275 107.78625 C 65.57184 107.73186 65.42659 107.64462 65.336 107.58975 C 65.2454 107.5349 65.09988 107.44585 65.00981 107.39082 C 64.91974 107.33582 64.77629 107.24846 64.68672 107.19322 C 64.59715 107.13797 64.45326 107.04826 64.3642 106.99265 C 64.27513 106.93701 64.13364 106.84859 64.04474 106.7923 C 63.95584 106.73601 63.81218 106.64395 63.72345 106.58691 C 63.63472 106.52988 63.49358 106.43883 63.4052 106.3812 C 63.3168 106.32358 63.17426 106.22931 63.0864 106.17154 C 62.99852 106.11377 62.85907 106.02263 62.77188 105.96478 C 62.6847 105.90695 62.54501 105.81311 62.45802 105.7546 C 62.37102 105.69608 62.23163 105.60234 62.1448 105.54303 C 62.058 105.4837 61.91875 105.3869 61.83229 105.32701 C 61.74583 105.2671 61.60762 105.17126 61.5217 105.11128 C 61.43578 105.05132 61.29805 104.95473 61.21298 104.89478 C 61.12791 104.83481 60.99336 104.73972 60.90848 104.67908 C 60.82361 104.61845 60.68588 104.51895 60.60121 104.45781 C 60.51653 104.39667 60.38213 104.29984 60.29814 104.23836 C 60.21414 104.17688 60.07976 104.07712 59.99583 104.01463 C 59.9119 103.95215 59.77673 103.85086 59.69319 103.78802 C 59.60963 103.72517 59.4766 103.62466 59.39357 103.56168 C 59.31056 103.49869 59.17711 103.39713 59.09477 103.33401 C 59.01245 103.27089 58.88194 103.17015 58.80014 103.10675 C 58.71834 103.04337 58.58705 102.94145 58.50517 102.87704 C 58.4233 102.81262 58.29128 102.70744 58.20995 102.6425 C 58.12862 102.57756 57.99985 102.47432 57.91888 102.40895 C 57.83794 102.34358 57.7069 102.23679 57.6265 102.17137 C 57.5461 102.10594 57.4189 102.00255 57.33932 101.93729 C 57.25977 101.87202 57.13232 101.76688 57.05301 101.7009 C 56.97368 101.63492 56.84694 101.52888 56.76756 101.46172 C 56.6882 101.39456 56.5599 101.28438 56.48096 101.21672 C 56.402 101.14908 56.27654 101.04155 56.19843 100.97415 C 56.12032 100.90674 55.99548 100.7986 55.91791 100.73085 C 55.84033 100.66312 55.71648 100.55403 55.63931 100.48587 C 55.56215 100.41772 55.43817 100.30779 55.3617 100.2396 C 55.2852 100.17139 55.16428 100.06332 55.08807 99.99432 C 55.01186 99.92532 54.8885 99.81212 54.81242 99.74222 C 54.73636 99.67233 54.61528 99.56065 54.53976 99.49051 C 54.46426 99.42036 54.34296 99.30667 54.26816 99.2366 C 54.19334 99.16653 54.07492 99.05586 54.00052 98.9855 C 53.92612 98.91515 53.80577 98.80031 53.73193 98.72952 C 53.6581 98.65875 53.54146 98.54645 53.46829 98.47534 C 53.39514 98.40422 53.27782 98.28894 53.2047 98.21698 C 53.13158 98.14502 53.0138 98.02875 52.94124 97.9566 C 52.86867 97.88445 52.75371 97.76941 52.68173 97.69695 C 52.60976 97.6245 52.4939 97.50713 52.42235 97.4344 C 52.35078 97.36166 52.2367 97.24544 52.16595 97.17273 C 52.09523 97.10002 51.98308 96.98383 51.91254 96.91031 C 51.84198 96.83679 51.72757 96.71686 51.65746 96.64279 C 51.58734 96.56871 51.47672 96.45078 51.40718 96.37634 C 51.33765 96.30191 51.22545 96.18108 51.15623 96.10632 C 51.08702 96.03157 50.97653 95.91205 50.90825 95.83759 C 50.83998 95.76312 50.73207 95.64474 50.66412 95.56964 C 50.59619 95.49455 50.48613 95.37204 50.4185 95.29623 C 50.35089 95.22044 50.24377 95.09943 50.17674 95.02328 C 50.1097 94.94716 50.002 94.8241 49.9353 94.7475 C 49.86859 94.67088 49.76196 94.54784 49.69595 94.4711 C 49.62996 94.39438 49.52496 94.27126 49.45955 94.19447 C 49.39413 94.11769 49.28935 93.99477 49.2244 93.9176 C 49.15944 93.84044 49.0558 93.71616 48.99132 93.63826 C 48.92683 93.56036 48.82365 93.43456 48.75952 93.35614 C 48.69537 93.27774 48.59256 93.15163 48.529 93.07304 C 48.46547 92.99446 48.36409 92.86815 48.30145 92.78978 C 48.23882 92.71141 48.13963 92.58665 48.07759 92.50818 C 48.01555 92.4297 47.91602 92.30324 47.85422 92.22414 C 47.79243 92.14502 47.69373 92.01793 47.63219 91.938 C 47.57065 91.85806 47.47153 91.72816 47.41069 91.64801 C 47.34985 91.56784 47.2538 91.4404 47.19368 91.36018 C 47.13356 91.27998 47.03702 91.15048 46.97725 91.0699 C 46.9175 90.98933 46.82213 90.86018 46.76297 90.7794 C 46.7038 90.69861 46.60948 90.5689 46.55083 90.48767 C 46.49216 90.40645 46.39813 90.27545 46.34006 90.19394 C 46.28198 90.11243 46.18968 89.982 46.1322 89.90016 C 46.07472 89.81833 45.98265 89.68605 45.92577 89.60408 C 45.86888 89.52211 45.77849 89.39136 45.7222 89.3093 C 45.6659 89.22722 45.57582 89.09486 45.52003 89.01248 C 45.46425 88.9301 45.37523 88.79814 45.32004 88.71548 C 45.26486 88.63283 45.17699 88.50012 45.12222 88.41675 C 45.06744 88.33339 44.97954 88.19853 44.92517 88.11462 C 44.87079 88.03073 44.78386 87.89568 44.7303 87.812 C 44.67673 87.72833 44.59184 87.5951 44.53896 87.51149 C 44.48607 87.42787 44.40147 87.29323 44.3491 87.20932 C 44.29674 87.1254 44.21347 86.99141 44.16144 86.90665 C 44.1094 86.82188 44.0255 86.68356 43.97398 86.59836 C 43.92245 86.51314 43.84067 86.37733 43.79002 86.29247 C 43.73936 86.20761 43.65894 86.07176 43.60889 85.98668 C 43.55884 85.90161 43.479 85.76503 43.4293 85.67932 C 43.37961 85.59361 43.29965 85.4546 43.25064 85.3689 C 43.20163 85.28319 43.12445 85.14738 43.07607 85.06151 C 43.02768 84.97563 42.94978 84.83635 42.90182 84.74992 C 42.85388 84.6635 42.77776 84.52519 42.73041 84.43854 C 42.68307 84.3519 42.60733 84.21208 42.56061 84.1253 C 42.51387 84.03853 42.43964 83.89984 42.3936 83.81308 C 42.34756 83.7263 42.27437 83.58711 42.22879 83.4999 C 42.18321 83.41269 42.11002 83.2718 42.06505 83.1845 C 42.02008 83.09717 41.949 82.95807 41.90466 82.87047 C 41.8603 82.78285 41.78918 82.64102 41.74538 82.553 C 41.70155 82.46498 41.63197 82.32405 41.58887 82.23605 C 41.54575 82.14804 41.47728 82.0073 41.43457 81.91872 C 41.39185 81.83012 41.32294 81.68605 41.2809 81.5975 C 41.23888 81.50897 41.17287 81.36894 41.1316 81.28053 C 41.09035 81.19212 41.0243 81.04936 40.98344 80.96019 C 40.94258 80.87103 40.87743 80.7275 40.83705 80.63788 C 40.79668 80.54826 40.73215 80.40392 40.69238 80.31425 C 40.65263 80.2246 40.58942 80.08096 40.55048 79.99164 C 40.51155 79.9023 40.4501 79.75983 40.41179 79.67033 C 40.37349 79.58084 40.31226 79.4367 40.27437 79.34657 C 40.23648 79.25644 40.17604 79.11119 40.13872 79.02066 C 40.1014 78.93015 40.0419 78.7844 40.00534 78.69403 C 39.96878 78.60368 39.91101 78.45966 39.87514 78.3694 C 39.83925 78.27914 39.78207 78.13416 39.7467 78.04347 C 39.71133 77.95279 39.65497 77.80698 39.62009 77.71584 C 39.58522 77.6247 39.52945 77.4775 39.49533 77.38655 C 39.4612 77.2956 39.40764 77.15157 39.37408 77.06024 C 39.34055 76.9689 39.28648 76.81998 39.25345 76.72823 C 39.22041 76.63646 39.16815 76.49016 39.13591 76.3988 C 39.10367 76.30743 39.05267 76.16138 39.02101 76.06972 C 38.98935 75.97807 38.93875 75.8302 38.90761 75.73816 C 38.87645 75.64613 38.82698 75.49849 38.79648 75.40634 C 38.76596 75.31418 38.71739 75.16591 38.6876 75.07388 C 38.65784 74.98186 38.61092 74.83517 38.58176 74.74301 C 38.55261 74.65085 38.50613 74.50227 38.47746 74.40955 C 38.44879 74.3168 38.40306 74.16725 38.37508 74.07465 C 38.34709 73.98203 38.30304 73.83467 38.27568 73.74199 C 38.24834 73.64932 38.20467 73.49977 38.17789 73.40671 C 38.15112 73.31366 38.10887 73.1647 38.0827 73.07132 C 38.05652 72.97795 38.01465 72.82693 37.98917 72.73369 C 37.96367 72.64044 37.92374 72.49251 37.89888 72.39919 C 37.87402 72.30586 37.8342 72.15463 37.80992 72.06107 C 37.78564 71.9675 37.74748 71.81827 37.72388 71.72481 C 37.70029 71.63135 37.6628 71.48097 37.63985 71.3874 C 37.6169 71.29384 37.58073 71.14424 37.55836 71.05032 C 37.536 70.9564 37.5004 70.80464 37.47865 70.7105 C 37.4569 70.61635 37.42259 70.46596 37.40147 70.37175 C 37.38037 70.27754 37.34679 70.12544 37.32637 70.03151 C 37.30595 69.93758 37.27408 69.7886 37.25429 69.69463 C 37.23451 69.60065 37.20297 69.44855 37.18378 69.35414 C 37.16457 69.25974 37.1344 69.1089 37.1158 69.01422 C 37.09721 68.91954 37.0676 68.76625 37.04968 68.6717 C 37.03175 68.57716 37.00378 68.42717 36.98653 68.33273 C 36.96927 68.2383 36.94194 68.08606 36.92523 67.99107 C 36.90852 67.89607 36.8821 67.74286 36.86606 67.64798 C 36.85 67.55309 36.82497 67.40196 36.80959 67.30716 C 36.79422 67.21236 36.76996 67.05959 36.75523 66.96469 C 36.7405 66.8698 36.71742 66.71799 36.70335 66.62321 C 36.6893 66.52843 36.66725 66.37666 36.6538 66.28151 C 36.64032 66.18637 36.61906 66.03293 36.60619 65.93744 C 36.5933 65.84193 36.57314 65.68858 36.56093 65.59322 C 36.54872 65.49785 36.52965 65.34525 36.51813 65.25012 C 36.5066 65.155 36.48868 65.00299 36.47778 64.90765 C 36.46687 64.8123 36.44978 64.65855 36.43947 64.56285 C 36.42917 64.46716 36.41313 64.3136 36.40349 64.21786 C 36.39383 64.12212 36.3788 63.96803 36.36983 63.87277 C 36.36086 63.77753 36.34714 63.62654 36.3388 63.53125 C 36.33047 63.43596 36.3175 63.28183 36.30978 63.186 C 36.30206 63.0902 36.29018 62.93645 36.28308 62.84056 C 36.276 62.74469 36.26515 62.59067 36.25871 62.49495 C 36.25229 62.39922 36.2425 62.24597 36.23674 62.15056 C 36.23097 62.05515 36.22226 61.90288 36.21713 61.80728 C 36.21202 61.7117 36.20424 61.55751 36.19974 61.46158 C 36.19524 61.36563 36.18849 61.21143 36.18463 61.1158 C 36.18079 61.02016 36.17517 60.8679 36.17197 60.77226 C 36.16875 60.6766 36.16408 60.52217 36.16151 60.42635 C 36.15895 60.33054 36.15533 60.1774 36.15341 60.08157 C 36.1515 59.98573 36.1489 59.8316 36.14763 59.73561 C 36.14635 59.6396 36.14478 59.4853 36.14413 59.38962 C 36.14351 59.29395 36.143 59.04599 36.143 59.04599 " fill="#ffffff"/>
<path transform="matrix(1,0,0,-1,.199,173.36)" stroke-width="1.19553" stroke-linecap="butt" stroke-miterlimit="10" stroke-linejoin="miter" fill="none" stroke="#000000" d="M 70.02707 110.1816 C 70.02707 110.1816 69.77791 110.05359 69.6823 110.0042 C 69.5867 109.9548 69.43274 109.87465 69.338 109.82555 C 69.24326 109.77644 69.0937 109.69945 68.99947 109.65027 C 68.90523 109.60109 68.75264 109.52075 68.65869 109.47102 C 68.56474 109.4213 68.4156 109.3417 68.32233 109.29181 C 68.22903 109.2419 68.07951 109.16191 67.98637 109.11125 C 67.89323 109.06058 67.74393 108.97812 67.65091 108.92654 C 67.55789 108.87497 67.40881 108.79147 67.31593 108.73944 C 67.22305 108.68741 67.0738 108.60385 66.98141 108.5515 C 66.88902 108.49915 66.74188 108.41481 66.65 108.36208 C 66.55812 108.30934 66.4105 108.2241 66.31912 108.17137 C 66.22775 108.11864 66.08235 108.03534 65.99129 107.98192 C 65.90024 107.92851 65.75366 107.84067 65.66275 107.78625 C 65.57184 107.73186 65.42659 107.64462 65.336 107.58975 C 65.2454 107.5349 65.09988 107.44585 65.00981 107.39082 C 64.91974 107.33582 64.77629 107.24846 64.68672 107.19322 C 64.59715 107.13797 64.45326 107.04826 64.3642 106.99265 C 64.27513 106.93701 64.13364 106.84859 64.04474 106.7923 C 63.95584 106.73601 63.81218 106.64395 63.72345 106.58691 C 63.63472 106.52988 63.49358 106.43883 63.4052 106.3812 C 63.3168 106.32358 63.17426 106.22931 63.0864 106.17154 C 62.99852 106.11377 62.85907 106.02263 62.77188 105.96478 C 62.6847 105.90695 62.54501 105.81311 62.45802 105.7546 C 62.37102 105.69608 62.23163 105.60234 62.1448 105.54303 C 62.058 105.4837 61.91875 105.3869 61.83229 105.32701 C 61.74583 105.2671 61.60762 105.17126 61.5217 105.11128 C 61.43578 105.05132 61.29805 104.95473 61.21298 104.89478 C 61.12791 104.83481 60.99336 104.73972 60.90848 104.67908 C 60.82361 104.61845 60.68588 104.51895 60.60121 104.45781 C 60.51653 104.39667 60.38213 104.29984 60.29814 104.23836 C 60.21414 104.17688 60.07976 104.07712 59.99583 104.01463 C 59.9119 103.95215 59.77673 103.85086 59.69319 103.78802 C 59.60963 103.72517 59.4766 103.62466 59.39357 103.56168 C 59.31056 103.49869 59.17711 103.39713 59.09477 103.33401 C 59.01245 103.27089 58.88194 103.17015 58.80014 103.10675 C 58.71834 103.04337 58.58705 102.94145 58.50517 102.87704 C 58.4233 102.81262 58.29128 102.70744 58.20995 102.6425 C 58.12862 102.57756 57.99985 102.47432 57.91888 102.40895 C 57.83794 102.34358 57.7069 102.23679 57.6265 102.17137 C 57.5461 102.10594 57.4189 102.00255 57.33932 101.93729 C 57.25977 101.87202 57.13232 101.76688 57.05301 101.7009 C 56.97368 101.63492 56.84694 101.52888 56.76756 101.46172 C 56.6882 101.39456 56.5599 101.28438 56.48096 101.21672 C 56.402 101.14908 56.27654 101.04155 56.19843 100.97415 C 56.12032 100.90674 55.99548 100.7986 55.91791 100.73085 C 55.84033 100.66312 55.71648 100.55403 55.63931 100.48587 C 55.56215 100.41772 55.43817 100.30779 55.3617 100.2396 C 55.2852 100.17139 55.16428 100.06332 55.08807 99.99432 C 55.01186 99.92532 54.8885 99.81212 54.81242 99.74222 C 54.73636 99.67233 54.61528 99.56065 54.53976 99.49051 C 54.46426 99.42036 54.34296 99.30667 54.26816 99.2366 C 54.19334 99.16653 54.07492 99.05586 54.00052 98.9855 C 53.92612 98.91515 53.80577 98.80031 53.73193 98.72952 C 53.6581 98.65875 53.54146 98.54645 53.46829 98.47534 C 53.39514 98.40422 53.27782 98.28894 53.2047 98.21698 C 53.13158 98.14502 53.0138 98.02875 52.94124 97.9566 C 52.86867 97.88445 52.75371 97.76941 52.68173 97.69695 C 52.60976 97.6245 52.4939 97.50713 52.42235 97.4344 C 52.35078 97.36166 52.2367 97.24544 52.16595 97.17273 C 52.09523 97.10002 51.98308 96.98383 51.91254 96.91031 C 51.84198 96.83679 51.72757 96.71686 51.65746 96.64279 C 51.58734 96.56871 51.47672 96.45078 51.40718 96.37634 C 51.33765 96.30191 51.22545 96.18108 51.15623 96.10632 C 51.08702 96.03157 50.97653 95.91205 50.90825 95.83759 C 50.83998 95.76312 50.73207 95.64474 50.66412 95.56964 C 50.59619 95.49455 50.48613 95.37204 50.4185 95.29623 C 50.35089 95.22044 50.24377 95.09943 50.17674 95.02328 C 50.1097 94.94716 50.002 94.8241 49.9353 94.7475 C 49.86859 94.67088 49.76196 94.54784 49.69595 94.4711 C 49.62996 94.39438 49.52496 94.27126 49.45955 94.19447 C 49.39413 94.11769 49.28935 93.99477 49.2244 93.9176 C 49.15944 93.84044 49.0558 93.71616 48.99132 93.63826 C 48.92683 93.56036 48.82365 93.43456 48.75952 93.35614 C 48.69537 93.27774 48.59256 93.15163 48.529 93.07304 C 48.46547 92.99446 48.36409 92.86815 48.30145 92.78978 C 48.23882 92.71141 48.13963 92.58665 48.07759 92.50818 C 48.01555 92.4297 47.91602 92.30324 47.85422 92.22414 C 47.79243 92.14502 47.69373 92.01793 47.63219 91.938 C 47.57065 91.85806 47.47153 91.72816 47.41069 91.64801 C 47.34985 91.56784 47.2538 91.4404 47.19368 91.36018 C 47.13356 91.27998 47.03702 91.15048 46.97725 91.0699 C 46.9175 90.98933 46.82213 90.86018 46.76297 90.7794 C 46.7038 90.69861 46.60948 90.5689 46.55083 90.48767 C 46.49216 90.40645 46.39813 90.27545 46.34006 90.19394 C 46.28198 90.11243 46.18968 89.982 46.1322 89.90016 C 46.07472 89.81833 45.98265 89.68605 45.92577 89.60408 C 45.86888 89.52211 45.77849 89.39136 45.7222 89.3093 C 45.6659 89.22722 45.57582 89.09486 45.52003 89.01248 C 45.46425 88.9301 45.37523 88.79814 45.32004 88.71548 C 45.26486 88.63283 45.17699 88.50012 45.12222 88.41675 C 45.06744 88.33339 44.97954 88.19853 44.92517 88.11462 C 44.87079 88.03073 44.78386 87.89568 44.7303 87.812 C 44.67673 87.72833 44.59184 87.5951 44.53896 87.51149 C 44.48607 87.42787 44.40147 87.29323 44.3491 87.20932 C 44.29674 87.1254 44.21347 86.99141 44.16144 86.90665 C 44.1094 86.82188 44.0255 86.68356 43.97398 86.59836 C 43.92245 86.51314 43.84067 86.37733 43.79002 86.29247 C 43.73936 86.20761 43.65894 86.07176 43.60889 85.98668 C 43.55884 85.90161 43.479 85.76503 43.4293 85.67932 C 43.37961 85.59361 43.29965 85.4546 43.25064 85.3689 C 43.20163 85.28319 43.12445 85.14738 43.07607 85.06151 C 43.02768 84.97563 42.94978 84.83635 42.90182 84.74992 C 42.85388 84.6635 42.77776 84.52519 42.73041 84.43854 C 42.68307 84.3519 42.60733 84.21208 42.56061 84.1253 C 42.51387 84.03853 42.43964 83.89984 42.3936 83.81308 C 42.34756 83.7263 42.27437 83.58711 42.22879 83.4999 C 42.18321 83.41269 42.11002 83.2718 42.06505 83.1845 C 42.02008 83.09717 41.949 82.95807 41.90466 82.87047 C 41.8603 82.78285 41.78918 82.64102 41.74538 82.553 C 41.70155 82.46498 41.63197 82.32405 41.58887 82.23605 C 41.54575 82.14804 41.47728 82.0073 41.43457 81.91872 C 41.39185 81.83012 41.32294 81.68605 41.2809 81.5975 C 41.23888 81.50897 41.17287 81.36894 41.1316 81.28053 C 41.09035 81.19212 41.0243 81.04936 40.98344 80.96019 C 40.94258 80.87103 40.87743 80.7275 40.83705 80.63788 C 40.79668 80.54826 40.73215 80.40392 40.69238 80.31425 C 40.65263 80.2246 40.58942 80.08096 40.55048 79.99164 C 40.51155 79.9023 40.4501 79.75983 40.41179 79.67033 C 40.37349 79.58084 40.31226 79.4367 40.27437 79.34657 C 40.23648 79.25644 40.17604 79.11119 40.13872 79.02066 C 40.1014 78.93015 40.0419 78.7844 40.00534 78.69403 C 39.96878 78.60368 39.91101 78.45966 39.87514 78.3694 C 39.83925 78.27914 39.78207 78.13416 39.7467 78.04347 C 39.71133 77.95279 39.65497 77.80698 39.62009 77.71584 C 39.58522 77.6247 39.52945 77.4775 39.49533 77.38655 C 39.4612 77.2956 39.40764 77.15157 39.37408 77.06024 C 39.34055 76.9689 39.28648 76.81998 39.25345 76.72823 C 39.22041 76.63646 39.16815 76.49016 39.13591 76.3988 C 39.10367 76.30743 39.05267 76.16138 39.02101 76.06972 C 38.98935 75.97807 38.93875 75.8302 38.90761 75.73816 C 38.87645 75.64613 38.82698 75.49849 38.79648 75.40634 C 38.76596 75.31418 38.71739 75.16591 38.6876 75.07388 C 38.65784 74.98186 38.61092 74.83517 38.58176 74.74301 C 38.55261 74.65085 38.50613 74.50227 38.47746 74.40955 C 38.44879 74.3168 38.40306 74.16725 38.37508 74.07465 C 38.34709 73.98203 38.30304 73.83467 38.27568 73.74199 C 38.24834 73.64932 38.20467 73.49977 38.17789 73.40671 C 38.15112 73.31366 38.10887 73.1647 38.0827 73.07132 C 38.05652 72.97795 38.01465 72.82693 37.98917 72.73369 C 37.96367 72.64044 37.92374 72.49251 37.89888 72.39919 C 37.87402 72.30586 37.8342 72.15463 37.80992 72.06107 C 37.78564 71.9675 37.74748 71.81827 37.72388 71.72481 C 37.70029 71.63135 37.6628 71.48097 37.63985 71.3874 C 37.6169 71.29384 37.58073 71.14424 37.55836 71.05032 C 37.536 70.9564 37.5004 70.80464 37.47865 70.7105 C 37.4569 70.61635 37.42259 70.46596 37.40147 70.37175 C 37.38037 70.27754 37.34679 70.12544 37.32637 70.03151 C 37.30595 69.93758 37.27408 69.7886 37.25429 69.69463 C 37.23451 69.60065 37.20297 69.44855 37.18378 69.35414 C 37.16457 69.25974 37.1344 69.1089 37.1158 69.01422 C 37.09721 68.91954 37.0676 68.76625 37.04968 68.6717 C 37.03175 68.57716 37.00378 68.42717 36.98653 68.33273 C 36.96927 68.2383 36.94194 68.08606 36.92523 67.99107 C 36.90852 67.89607 36.8821 67.74286 36.86606 67.64798 C 36.85 67.55309 36.82497 67.40196 36.80959 67.30716 C 36.79422 67.21236 36.76996 67.05959 36.75523 66.96469 C 36.7405 66.8698 36.71742 66.71799 36.70335 66.62321 C 36.6893 66.52843 36.66725 66.37666 36.6538 66.28151 C 36.64032 66.18637 36.61906 66.03293 36.60619 65.93744 C 36.5933 65.84193 36.57314 65.68858 36.56093 65.59322 C 36.54872 65.49785 36.52965 65.34525 36.51813 65.25012 C 36.5066 65.155 36.48868 65.00299 36.47778 64.90765 C 36.46687 64.8123 36.44978 64.65855 36.43947 64.56285 C 36.42917 64.46716 36.41313 64.3136 36.40349 64.21786 C 36.39383 64.12212 36.3788 63.96803 36.36983 63.87277 C 36.36086 63.77753 36.34714 63.62654 36.3388 63.53125 C 36.33047 63.43596 36.3175 63.28183 36.30978 63.186 C 36.30206 63.0902 36.29018 62.93645 36.28308 62.84056 C 36.276 62.74469 36.26515 62.59067 36.25871 62.49495 C 36.25229 62.39922 36.2425 62.24597 36.23674 62.15056 C 36.23097 62.05515 36.22226 61.90288 36.21713 61.80728 C 36.21202 61.7117 36.20424 61.55751 36.19974 61.46158 C 36.19524 61.36563 36.18849 61.21143 36.18463 61.1158 C 36.18079 61.02016 36.17517 60.8679 36.17197 60.77226 C 36.16875 60.6766 36.16408 60.52217 36.16151 60.42635 C 36.15895 60.33054 36.15533 60.1774 36.15341 60.08157 C 36.1515 59.98573 36.1489 59.8316 36.14763 59.73561 C 36.14635 59.6396 36.14478 59.4853 36.14413 59.38962 C 36.14351 59.29395 36.143 59.04599 36.143 59.04599 "/>
<path transform="matrix(1,0,0,-1,.199,173.36)" stroke-width="1" stroke-linecap="butt" stroke-miterlimit="10" stroke-linejoin="miter" fill="none" stroke="#800000" d="M 126.50052 59.04599 C 126.50052 59.04599 126.48935 60.04076 126.47751 60.42282 C 126.46567 60.8049 126.43825 61.41809 126.41513 61.7998 C 126.39201 62.18152 126.34537 62.79291 126.3108 63.17395 C 126.27626 63.55501 126.21217 64.16621 126.166 64.5462 C 126.11983 64.9262 126.03519 65.53429 125.978 65.91275 C 125.9208 66.2912 125.82188 66.89673 125.75371 67.2739 C 125.68553 67.65108 125.5668 68.2561 125.48654 68.63126 C 125.4063 69.00641 125.2666 69.60503 125.17526 69.9778 C 125.08391 70.35057 124.93034 70.94754 124.82816 71.31798 C 124.72597 71.68842 124.55246 72.27983 124.43875 72.64775 C 124.32504 73.01567 124.13318 73.60477 124.00856 73.96968 C 123.88396 74.33461 123.67581 74.91644 123.54057 75.27788 C 123.40533 75.63933 123.17938 76.21707 123.03377 76.5748 C 122.88815 76.93254 122.64749 77.50226 122.49103 77.85619 C 122.33456 78.2101 122.07312 78.77545 121.90611 79.12564 C 121.7391 79.47581 121.46477 80.03433 121.28731 80.38008 C 121.10983 80.72585 120.81409 81.27646 120.627 81.61758 C 120.4399 81.95872 120.13562 82.50252 119.93886 82.83875 C 119.7421 83.17499 119.41585 83.70987 119.20879 84.04102 C 119.00172 84.37216 118.66325 84.89975 118.4464 85.22546 C 118.22952 85.55118 117.87189 86.06865 117.6457 86.38866 C 117.41951 86.70866 117.05115 87.21754 116.81615 87.53183 C 116.58113 87.84612 116.19608 88.34546 115.95186 88.65385 C 115.70763 88.96227 115.3085 89.45244 115.05592 89.7546 C 114.80334 90.05675 114.39268 90.53607 114.13135 90.83159 C 113.87001 91.12709 113.4423 91.59538 113.17238 91.88445 C 112.90245 92.17351 112.46318 92.63287 112.18588 92.91502 C 111.90858 93.19716 111.4593 93.6428 111.17375 93.91798 C 110.8882 94.19315 110.42125 94.63031 110.12778 94.89835 C 109.8343 95.16637 109.35892 95.58931 109.05858 95.84982 C 108.75822 96.11034 108.2701 96.52306 107.96303 96.77597 C 107.65596 97.02888 107.15918 97.42758 106.8454 97.67268 C 106.53162 97.91779 106.02211 98.30518 105.70149 98.54254 C 105.38086 98.7799 104.86095 99.15419 104.53447 99.38348 C 104.208 99.61278 103.68106 99.97421 103.34843 100.19518 C 103.01582 100.41612 102.47534 100.76317 102.1371 100.97612 C 101.79886 101.18907 101.25404 101.52562 100.91052 101.73003 C 100.567 101.93443 100.01 102.25362 99.66122 102.4494 C 99.31247 102.64519 98.74986 102.95358 98.39688 103.14116 C 98.04388 103.32874 97.4744 103.62265 97.11703 103.80144 C 96.75969 103.98024 96.1829 104.2601 95.82124 104.42984 C 95.45956 104.5996 94.87575 104.86409 94.51027 105.02495 C 94.14478 105.18579 93.55583 105.43712 93.18704 105.5892 C 92.81825 105.7413 92.22403 105.97803 91.8523 106.12122 C 91.48056 106.2644 90.88274 106.48717 90.50781 106.62122 C 90.13289 106.75526 89.52733 106.96231 89.15001 107.0874 C 88.77267 107.21248 88.16777 107.40697 87.78827 107.52272 C 87.40877 107.63847 86.79622 107.81493 86.41472 107.92163 C 86.0332 108.02834 85.42146 108.19424 85.03862 108.29178 C 84.65576 108.3893 84.03993 108.5364 83.65535 108.62451 C 83.27077 108.71262 82.65219 108.84743 82.2668 108.92682 C 81.88142 109.00621 81.26329 109.1264 80.87772 109.1967 C 80.49213 109.267 79.87378 109.37247 79.48778 109.43349 C 79.10178 109.4945 78.48184 109.5847 78.09563 109.6366 C 77.70941 109.68849 77.0899 109.76465 76.70407 109.8076 C 76.31822 109.85057 75.69983 109.91245 75.31468 109.9463 C 74.92953 109.98018 74.31216 110.02676 73.92816 110.05179 C 73.54416 110.0768 72.92981 110.11066 72.547 110.1267 C 72.16418 110.14273 71.55061 110.16022 71.16905 110.16737 C 70.7875 110.17453 70.17654 110.17972 69.79694 110.17839 C 69.41733 110.17705 68.81064 110.16785 68.43301 110.1577 C 68.0554 110.14754 67.45058 110.12383 67.07524 110.10515 C 66.6999 110.08649 66.10019 110.0501 65.72778 110.02315 C 65.35538 109.99619 64.76073 109.94617 64.39117 109.91086 C 64.02164 109.87555 63.43063 109.81212 63.06433 109.76857 C 62.69804 109.72502 62.1138 109.64848 61.75114 109.59691 C 61.38849 109.54533 60.8097 109.45634 60.45047 109.3968 C 60.09125 109.33727 59.51718 109.23505 59.16211 109.16765 C 58.80704 109.10027 58.24188 108.98604 57.89131 108.91106 C 57.54074 108.83607 56.98167 108.70955 56.63542 108.62717 C 56.28917 108.5448 55.73726 108.407 55.39565 108.31723 C 55.05405 108.22746 54.50981 108.07716 54.1733 107.9801 C 53.83676 107.88304 53.3015 107.72145 52.97017 107.61758 C 52.63885 107.5137 52.1115 107.34218 51.7853 107.23138 C 51.45909 107.12059 50.93958 106.93652 50.61906 106.81903 C 50.29857 106.70154 49.7899 106.50845 49.47531 106.38455 C 49.16072 106.26064 48.66028 106.05598 48.35168 105.92593 C 48.04308 105.79588 47.55348 105.58319 47.25105 105.44714 C 46.94862 105.31111 46.46817 105.08748 46.17189 104.94536 C 45.87563 104.80324 45.4054 104.57053 45.11572 104.42276 C 44.82605 104.275 44.3669 104.03337 44.08403 103.88033 C 43.80116 103.72726 43.35315 103.47787 43.07698 103.31956 C 42.80083 103.16127 42.36296 102.90266 42.09366 102.73935 C 41.82436 102.57603 41.39801 102.31036 41.13599 102.14243 C 40.87396 101.97447 40.4599 101.70132 40.20512 101.52878 C 39.95033 101.35623 39.54733 101.0758 39.2996 100.89882 C 39.05186 100.72185 38.65991 100.43423 38.41963 100.25311 C 38.17935 100.072 37.80046 99.77827 37.56778 99.59343 C 37.3351 99.40858 36.9676 99.10924 36.74258 98.92087 C 36.51756 98.73248 36.16327 98.42747 35.94598 98.23561 C 35.7287 98.04375 35.38626 97.73308 35.17653 97.53793 C 34.96681 97.3428 34.63634 97.02727 34.43433 96.82922 C 34.23233 96.63116 33.9147 96.3113 33.7206 96.11052 C 33.52647 95.90974 33.22148 95.58534 33.03523 95.3821 C 32.84897 95.17886 32.55647 94.85094 32.37816 94.64569 C 32.19983 94.44043 31.9204 94.10992 31.74998 93.90266 C 31.57956 93.69539 31.31245 93.36108 31.14984 93.1518 C 30.98721 92.94249 30.73256 92.60487 30.57794 92.39413 C 30.42331 92.1834 30.18213 91.8448 30.03539 91.63287 C 29.88866 91.42093 29.65935 91.07977 29.52042 90.86662 C 29.38148 90.65347 29.16498 90.31047 29.034 90.0966 C 28.90302 89.88272 28.69952 89.53958 28.57639 89.3251 C 28.45325 89.11061 28.26186 88.7655 28.14647 88.55063 C 28.03108 88.33577 27.8524 87.99146 27.74472 87.77643 C 27.63705 87.5614 27.47035 87.21577 27.37033 87.00081 C 27.27032 86.78584 27.11624 86.44159 27.02383 86.22699 C 26.93143 86.0124 26.7892 85.6684 26.70421 85.45412 C 26.61923 85.23982 26.48886 84.89604 26.41132 84.6825 C 26.33377 84.46893 26.2154 84.12743 26.14522 83.9149 C 26.07504 83.70238 25.9684 83.362 25.90547 83.15074 C 25.84254 82.93948 25.74753 82.60213 25.69168 82.39218 C 25.63585 82.18222 25.5519 81.84615 25.503 81.63753 C 25.4541 81.4289 25.38133 81.09541 25.33931 80.8884 C 25.29727 80.68138 25.2353 80.35048 25.2 80.14537 C 25.16467 79.94026 25.11343 79.61302 25.08472 79.41005 C 25.056 79.20708 25.0152 78.88303 24.99292 78.68234 C 24.97066 78.48166 24.94011 78.16182 24.92413 77.9636 C 24.90816 77.76538 24.88754 77.44945 24.87769 77.25362 C 24.86781 77.05779 24.85687 76.74516 24.85297 76.55208 C 24.84906 76.359 24.84756 76.05214 24.84944 75.862 C 24.8513 75.67186 24.85898 75.36871 24.86646 75.18155 C 24.87395 74.99437 24.89047 74.69681 24.90335 74.51297 C 24.91624 74.32913 24.94128 74.03723 24.95944 73.85654 C 24.97758 73.67584 25.011 73.38806 25.03421 73.21063 C 25.05743 73.03322 25.09879 72.75148 25.12685 72.57771 C 25.1549 72.40396 25.20381 72.12833 25.23653 71.9583 C 25.26924 71.78827 25.32549 71.51855 25.36266 71.3522 C 25.39983 71.18587 25.463 70.9219 25.50443 70.75937 C 25.54585 70.59682 25.6157 70.33943 25.66122 70.18068 C 25.70674 70.02194 25.78326 69.76988 25.83257 69.61525 C 25.88187 69.46062 25.96371 69.21666 26.01662 69.06616 C 26.06952 68.91568 26.1576 68.67696 26.21393 68.5306 C 26.27028 68.38422 26.36325 68.15332 26.42274 68.01125 C 26.48225 67.86917 26.58038 67.64441 26.64282 67.50655 C 26.70528 67.3687 26.80768 67.1512 26.87288 67.01767 C 26.93808 66.88414 27.04509 66.6732 27.11276 66.5441 C 27.18045 66.415 27.29074 66.2118 27.36075 66.08707 C 27.43074 65.96233 27.54518 65.76538 27.61734 65.64493 C 27.68948 65.52449 27.80681 65.33492 27.8808 65.21895 C 27.95479 65.10297 28.07504 64.92047 28.15062 64.80898 C 28.22621 64.69748 28.34856 64.5224 28.42557 64.4153 C 28.50258 64.30821 28.62744 64.13979 28.70569 64.03708 C 28.78394 63.93437 28.9104 63.77318 28.98955 63.67499 C 29.06868 63.5768 29.19617 63.42319 29.27611 63.32935 C 29.35606 63.2355 29.4853 63.08813 29.56584 62.99861 C 29.6464 62.90909 29.77586 62.76915 29.85663 62.68402 C 29.9374 62.5989 30.06715 62.46597 30.14806 62.38516 C 30.22896 62.30434 30.35901 62.17807 30.43976 62.10153 C 30.52052 62.025 30.64964 61.90588 30.73016 61.8335 C 30.8107 61.7611 30.9402 61.64801 31.02023 61.57974 C 31.10028 61.51147 31.2277 61.40556 31.30704 61.34134 C 31.38637 61.27713 31.51353 61.17711 31.59196 61.11687 C 31.6704 61.05664 31.79503 60.96346 31.87236 60.90715 C 31.94969 60.85083 32.0732 60.76353 32.14937 60.711 C 32.22552 60.65846 32.34671 60.57721 32.42137 60.52841 C 32.49603 60.47961 32.61449 60.40437 32.68745 60.3592 C 32.76042 60.31404 32.87614 60.24449 32.94739 60.2028 C 33.01865 60.16112 33.13167 60.09703 33.20107 60.05872 C 33.27046 60.02042 33.38037 59.96165 33.44763 59.92665 C 33.51488 59.89163 33.62083 59.83821 33.68579 59.80638 C 33.75076 59.77455 33.85336 59.72595 33.91585 59.69717 C 33.97833 59.6684 34.07634 59.62479 34.13617 59.59894 C 34.196 59.57309 34.28984 59.53398 34.34712 59.51086 C 34.40442 59.48773 34.49466 59.45271 34.54913 59.43222 C 34.6036 59.41173 34.6882 59.38107 34.73973 59.36308 C 34.79128 59.34508 34.87209 59.31808 34.92065 59.3024 C 34.96922 59.2867 35.04466 59.26344 35.08989 59.24998 C 35.1351 59.23654 35.20462 59.21678 35.24664 59.20532 C 35.28867 59.19388 35.354 59.17705 35.3928 59.16747 C 35.43163 59.15787 35.4911 59.144 35.52638 59.13614 C 35.56165 59.12828 35.61528 59.11707 35.64706 59.11075 C 35.67885 59.10442 35.72725 59.09549 35.75558 59.09056 C 35.7839 59.08562 35.82681 59.07874 35.85123 59.07503 C 35.87564 59.07132 35.91092 59.06642 35.93164 59.06377 C 35.95236 59.06111 35.98349 59.05759 36.00067 59.05577 C 36.01784 59.05396 36.04202 59.05177 36.05551 59.05066 C 36.069 59.04956 36.08824 59.0483 36.09787 59.04771 C 36.10748 59.04713 36.11923 59.04663 36.12492 59.0464 C 36.13062 59.04617 36.137 59.04607 36.13893 59.046 C 36.14085 59.04594 36.14085 59.04602 36.13893 59.04596 C 36.137 59.0459 36.13062 59.04579 36.12492 59.04558 C 36.11923 59.04535 36.10748 59.04485 36.09787 59.04427 C 36.08824 59.04369 36.06906 59.04242 36.05551 59.04132 C 36.04196 59.0402 36.01727 59.03796 36.00023 59.03618 C 35.98317 59.03438 35.95332 59.03096 35.93254 59.02829 C 35.91176 59.0256 35.8749 59.02058 35.85034 59.01686 C 35.82579 59.01312 35.78384 59.00638 35.75558 59.00143 C 35.72731 58.9965 35.6784 58.9875 35.64662 58.98117 C 35.61484 58.97485 35.56152 58.9637 35.52638 58.95586 C 35.49123 58.948 35.43195 58.93417 35.39325 58.92459 C 35.35457 58.91502 35.2896 58.89827 35.24751 58.88681 C 35.20543 58.87537 35.13522 58.8555 35.08989 58.84201 C 35.04454 58.82854 34.96912 58.80525 34.92065 58.7896 C 34.8722 58.77394 34.79222 58.74712 34.74057 58.72908 C 34.68892 58.71104 34.60283 58.68005 34.5483 58.65956 C 34.49377 58.63907 34.40471 58.60439 34.34753 58.58128 C 34.29036 58.5582 34.19606 58.51897 34.13617 58.49309 C 34.07628 58.46721 33.97827 58.42357 33.91585 58.3948 C 33.85342 58.36604 33.75125 58.31758 33.68619 58.28572 C 33.62112 58.25385 33.51405 58.20004 33.44685 58.16505 C 33.37965 58.13008 33.27115 58.07182 33.20186 58.03354 C 33.13257 57.99527 33.01875 57.93083 32.94739 57.88911 C 32.87604 57.8474 32.76042 57.778 32.68745 57.73285 C 32.61449 57.6877 32.49597 57.61241 32.42137 57.56361 C 32.34677 57.51483 32.22589 57.43373 32.14973 57.38118 C 32.07356 57.32863 31.94978 57.24118 31.87236 57.18483 C 31.79494 57.12848 31.67 57.03519 31.59161 56.97498 C 31.51324 56.91475 31.38664 56.81502 31.30737 56.75084 C 31.2281 56.68665 31.10023 56.58054 31.02023 56.5123 C 30.94025 56.44406 30.81139 56.33131 30.73082 56.2589 C 30.65025 56.18648 30.5203 56.06685 30.43945 55.99025 C 30.3586 55.91365 30.22891 55.78754 30.14806 55.70676 C 30.0672 55.62598 29.9374 55.49304 29.85663 55.40794 C 29.77586 55.32286 29.64632 55.18297 29.56584 55.09349 C 29.48538 55.00403 29.35655 54.85689 29.27667 54.76309 C 29.19681 54.6693 29.06932 54.51572 28.9901 54.41747 C 28.91089 54.31921 28.78398 54.15762 28.70569 54.0549 C 28.6274 53.95218 28.50284 53.78415 28.42583 53.67708 C 28.34882 53.57002 28.22618 53.39467 28.15062 53.28319 C 28.07507 53.1717 27.95526 52.98955 27.88127 52.87354 C 27.80728 52.75754 27.68948 52.56749 27.61734 52.44705 C 27.54518 52.3266 27.43117 52.13016 27.36116 52.00545 C 27.29117 51.88072 27.18048 51.67722 27.11276 51.5481 C 27.04506 51.41896 26.93828 51.20824 26.87308 51.0747 C 26.80788 50.94116 26.7053 50.72354 26.64282 50.58566 C 26.58035 50.4478 26.48225 50.2231 26.42274 50.081 C 26.36325 49.93889 26.27025 49.7077 26.21393 49.56139 C 26.15762 49.41507 26.06985 49.17697 26.0169 49.0264 C 25.96396 48.87582 25.88159 48.6307 25.83229 48.47612 C 25.78299 48.32153 25.70697 48.07085 25.66148 47.9122 C 25.616 47.75356 25.54585 47.49515 25.50443 47.33261 C 25.463 47.17007 25.40002 46.90703 25.36285 46.74069 C 25.32568 46.57436 25.26927 46.30383 25.23653 46.13368 C 25.20378 45.96352 25.15489 45.68797 25.12685 45.51427 C 25.0988 45.34055 25.0575 45.05894 25.03427 44.88165 C 25.01106 44.70438 24.97768 44.41708 24.95953 44.23643 C 24.94138 44.0558 24.91632 43.76364 24.90341 43.57967 C 24.89052 43.39569 24.87395 43.09756 24.86646 42.91043 C 24.85898 42.7233 24.85132 42.421 24.84946 42.23087 C 24.84758 42.04071 24.84906 41.73299 24.85297 41.5399 C 24.85687 41.34682 24.86778 41.03494 24.87764 40.83925 C 24.88748 40.64357 24.90807 40.32787 24.92406 40.1295 C 24.94005 39.93115 24.97064 39.61043 24.99292 39.40964 C 25.01521 39.20883 25.056 38.88513 25.08472 38.68216 C 25.11343 38.47917 25.1647 38.15163 25.2 37.94661 C 25.23528 37.7416 25.29709 37.4115 25.33913 37.20454 C 25.38115 36.99757 25.45409 36.66365 25.503 36.45494 C 25.55191 36.24623 25.63585 35.91032 25.69168 35.7003 C 25.74753 35.4903 25.84254 35.15257 25.90547 34.94124 C 25.9684 34.7299 26.07504 34.3896 26.14522 34.17708 C 26.2154 33.96455 26.33379 33.62299 26.41132 33.40948 C 26.48885 33.19598 26.61905 32.85246 26.70403 32.63824 C 26.78902 32.42403 26.9314 32.08025 27.02383 31.86555 C 27.11627 31.65088 27.27036 31.30588 27.37033 31.09088 C 27.47032 30.87589 27.63683 30.53091 27.7445 30.31593 C 27.85217 30.10094 28.03108 29.75621 28.14647 29.54134 C 28.26186 29.32648 28.45299 28.98167 28.57613 28.76726 C 28.69926 28.55286 28.90306 28.20984 29.034 27.99602 C 29.16493 27.7822 29.38098 27.43925 29.51984 27.22612 C 29.65869 27.013 29.88803 26.67177 30.03479 26.45988 C 30.18155 26.248 30.42307 25.9095 30.57762 25.69891 C 30.73218 25.48831 30.98622 25.15144 31.14882 24.94205 C 31.31142 24.73265 31.57906 24.39723 31.74963 24.18971 C 31.9202 23.9822 32.19989 23.6516 32.37816 23.44629 C 32.55641 23.241 32.84822 22.91318 33.03447 22.70995 C 33.22072 22.5067 33.52637 22.18225 33.7206 21.98146 C 33.91481 21.78067 34.23239 21.46075 34.43433 21.26276 C 34.63628 21.06476 34.96638 20.74957 35.1761 20.55443 C 35.38583 20.3593 35.72864 20.04828 35.94598 19.85635 C 36.16333 19.66443 36.5177 19.35939 36.74258 19.17111 C 36.96747 18.98283 37.33414 18.68417 37.56682 18.49933 C 37.7995 18.31448 38.17937 18.01997 38.41963 17.83887 C 38.6599 17.65775 39.05092 17.37082 39.29858 17.19394 C 39.54623 17.01707 39.94974 16.73663 40.20459 16.56404 C 40.45944 16.39145 40.87334 16.11818 41.13544 15.94998 C 41.39754 15.78178 41.82428 15.51512 42.09366 15.35175 C 42.36304 15.18837 42.80083 14.93059 43.07698 14.77242 C 43.35315 14.61423 43.80116 14.3647 44.08403 14.21165 C 44.3669 14.0586 44.82605 13.81699 45.11572 13.66922 C 45.4054 13.52145 45.87581 13.28864 46.17189 13.14662 C 46.46799 13.00461 46.94737 12.78171 47.24979 12.6456 C 47.55222 12.5095 48.04317 12.29564 48.35168 12.16557 C 48.66019 12.0355 49.15883 11.83199 49.47333 11.70811 C 49.78783 11.58424 50.2978 11.39027 50.61838 11.2728 C 50.93896 11.1553 51.4578 10.972 51.78389 10.86133 C 52.10999 10.75067 52.63734 10.57922 52.96877 10.47514 C 53.30019 10.37108 53.83595 10.20831 54.17258 10.11119 C 54.5092 10.01407 55.05333 9.86484 55.39494 9.77507 C 55.73654 9.6853 56.28839 9.54652 56.63464 9.46416 C 56.9809 9.38177 57.54 9.2561 57.89056 9.18126 C 58.24115 9.10641 58.80629 8.99205 59.16135 8.92467 C 59.5164 8.85727 60.09058 8.75505 60.44968 8.69556 C 60.80878 8.63605 61.38684 8.54742 61.7495 8.49577 C 62.11215 8.4441 62.69719 8.36678 63.06349 8.32323 C 63.42978 8.27968 64.01994 8.21706 64.3895 8.18182 C 64.75903 8.14658 65.35442 8.09633 65.72693 8.06917 C 66.09944 8.04202 66.69914 8.00464 67.07436 7.98604 C 67.44957 7.96742 68.0536 7.94511 68.43123 7.93503 C 68.80884 7.92496 69.41643 7.9148 69.79604 7.91336 C 70.17564 7.91194 70.78595 7.91734 71.16725 7.9247 C 71.54854 7.93204 72.16125 7.95023 72.5442 7.9663 C 72.92714 7.98238 73.54308 8.01558 73.9272 8.04054 C 74.31133 8.0655 74.92778 8.1124 75.31279 8.1463 C 75.69778 8.18022 76.31644 8.24219 76.70213 8.285 C 77.08784 8.32784 77.70634 8.40346 78.09271 8.45506 C 78.47906 8.50665 79.10048 8.59592 79.48674 8.65694 C 79.87302 8.71796 80.491 8.8246 80.87672 8.89493 C 81.26244 8.96526 81.88158 9.08455 82.2668 9.16388 C 82.65204 9.24323 83.26901 9.37842 83.6533 9.46678 C 84.0376 9.55515 84.65369 9.7033 85.03653 9.8008 C 85.41937 9.8983 86.03127 10.0629 86.41261 10.16963 C 86.79396 10.27637 87.40524 10.45448 87.78505 10.57014 C 88.16486 10.68579 88.77254 10.8784 89.15001 11.00325 C 89.52747 11.12808 90.13101 11.33575 90.50565 11.46997 C 90.88026 11.60419 91.478 11.82767 91.85004 11.97067 C 92.22208 12.11368 92.8184 12.3487 93.18704 12.50073 C 93.55568 12.65277 94.14156 12.9054 94.5069 13.06645 C 94.87222 13.22752 95.45831 13.49187 95.82013 13.66168 C 96.18195 13.83148 96.75726 14.11157 97.11476 14.29034 C 97.47226 14.4691 98.04356 14.7628 98.39688 14.95012 C 98.75018 15.13744 99.31264 15.44475 99.66122 15.64046 C 100.00983 15.83617 100.56604 16.15633 100.9094 16.36076 C 101.25275 16.56519 101.79799 16.90096 102.1359 17.11397 C 102.4738 17.32698 103.01213 17.6748 103.34491 17.89604 C 103.6777 18.11726 104.20784 18.47923 104.53447 18.7085 C 104.8611 18.93774 105.3788 19.3113 105.6991 19.54842 C 106.01938 19.78554 106.52902 20.17235 106.84296 20.41753 C 107.1569 20.6627 107.65439 21.06255 107.96178 21.31549 C 108.26918 21.56844 108.75806 21.9802 109.05858 22.24068 C 109.35909 22.50117 109.83466 22.92493 110.12778 23.1929 C 110.4209 23.46089 110.88571 23.89706 111.17126 24.17212 C 111.45682 24.44719 111.90842 24.89325 112.18588 25.17548 C 112.46335 25.4577 112.90154 25.91733 113.17111 26.20622 C 113.44069 26.49513 113.86766 26.96208 114.12881 27.25772 C 114.38997 27.55334 114.80061 28.03474 115.05339 28.33696 C 115.30615 28.63918 115.70605 29.12773 115.95062 29.43597 C 116.19519 29.74423 116.58096 30.24425 116.81615 30.55862 C 117.05132 30.873 117.41988 31.38167 117.6457 31.7018 C 117.87152 32.02194 118.22711 32.54039 118.4438 32.86601 C 118.66049 33.19164 119.00008 33.71802 119.2075 34.0488 C 119.41493 34.37958 119.74191 34.91382 119.93886 35.25014 C 120.1358 35.58647 120.44026 36.13136 120.627 36.47285 C 120.81372 36.81433 121.1072 37.3658 121.28465 37.71133 C 121.46213 38.05685 121.73874 38.61353 121.90611 38.96324 C 122.07349 39.31296 122.33456 39.87769 122.49103 40.23192 C 122.64749 40.58615 122.88815 41.15843 123.03377 41.51639 C 123.17938 41.87433 123.40552 42.45041 123.54057 42.81175 C 123.67563 43.17311 123.88258 43.75589 124.0072 44.12082 C 124.1318 44.48573 124.32504 45.07408 124.43875 45.44188 C 124.55246 45.80968 124.72466 46.40126 124.82684 46.77171 C 124.92903 47.14215 125.08372 47.73885 125.17526 48.11182 C 125.26678 48.4848 125.40668 49.08476 125.48654 49.45993 C 125.56642 49.8351 125.68282 50.43883 125.751 50.8158 C 125.81918 51.19276 125.92043 51.79822 125.978 52.17688 C 126.03557 52.55554 126.11983 53.165 126.166 53.54498 C 126.21217 53.92497 126.27626 54.53484 126.3108 54.91566 C 126.34537 55.2965 126.39201 55.9081 126.41513 56.2898 C 126.43825 56.67151 126.46603 57.2847 126.47751 57.66678 C 126.48897 58.04887 126.49782 59.04362 126.49782 59.04362 "/>
<path transform="matrix(1,0,0,-1,.199,173.36)" stroke-width="1" stroke-linecap="butt" stroke-miterlimit="10" stroke-linejoin="miter" fill="none" stroke="#000080" d="M 171.67928 59.04599 C 171.67928 59.04599 171.65689 60.53812 171.6332 61.11107 C 171.60951 61.684 171.55474 62.60344 171.50852 63.17543 C 171.4623 63.74742 171.36914 64.66325 171.30007 65.2336 C 171.23099 65.80394 171.10285 66.71828 171.01058 67.28612 C 170.9183 67.85396 170.7492 68.76186 170.63495 69.32622 C 170.52069 69.89056 170.32318 70.7927 170.18708 71.35371 C 170.05095 71.91475 169.81394 72.8135 169.65383 73.36975 C 169.49372 73.92601 169.21518 74.81213 169.0331 75.36288 C 168.85103 75.91364 168.545 76.79416 168.34148 77.33922 C 168.13796 77.8843 167.79247 78.75266 167.56623 79.29144 C 167.33997 79.83023 166.95842 80.6909 166.71077 81.22252 C 166.46312 81.75414 166.04973 82.59952 165.78127 83.12302 C 165.51279 83.6465 165.06449 84.48079 164.7758 84.99559 C 164.48712 85.51039 164.0103 86.3277 163.70059 86.83334 C 163.39089 87.33899 162.87364 88.14363 162.54355 88.64005 C 162.21346 89.13647 161.67159 89.92531 161.32141 90.41121 C 160.97124 90.89711 160.38819 91.66714 160.01969 92.14214 C 159.65119 92.61711 159.0523 93.37125 158.66545 93.83467 C 158.27861 94.29811 157.6378 95.03104 157.23154 95.4823 C 156.82526 95.93355 156.16187 96.64867 155.73728 97.08711 C 155.31269 97.52554 154.61313 98.21729 154.17131 98.64233 C 153.72949 99.06738 153.01085 99.73904 152.55292 100.15056 C 152.095 100.56209 151.34552 101.21086 150.87085 101.60828 C 150.3962 102.0057 149.62136 102.63225 149.13175 103.01503 C 148.64214 103.39781 147.84716 103.99992 147.34204 104.36722 C 146.83692 104.73451 146.0113 105.31038 145.49114 105.66228 C 144.97097 106.01416 144.12566 106.56764 143.59294 106.90353 C 143.06021 107.23941 142.19838 107.76376 141.65161 108.08318 C 141.10485 108.40257 140.21218 108.90305 139.65219 109.20561 C 139.09221 109.50818 138.18662 109.9786 137.61559 110.26385 C 137.04456 110.54909 136.11814 110.99377 135.53655 111.26146 C 134.95496 111.52916 134.0158 111.94357 133.42386 112.19324 C 132.83193 112.4429 131.87264 112.82942 131.2703 113.06096 C 130.66794 113.29248 129.69313 113.64893 129.08248 113.86197 C 128.4718 114.07503 127.48837 114.40262 126.86905 114.59659 C 126.24971 114.79057 125.24557 115.08481 124.61877 115.26013 C 123.99196 115.43546 122.9848 115.70438 122.35141 115.8603 C 121.71802 116.01624 120.69342 116.24774 120.05371 116.38403 C 119.414 116.52031 118.3847 116.72523 117.74074 116.84265 C 117.09679 116.96008 116.06064 117.1328 115.41243 117.23041 C 114.7642 117.32802 113.721 117.46889 113.06885 117.54623 C 112.41669 117.62358 111.36702 117.73062 110.7121 117.78798 C 110.05716 117.84534 109.00505 117.92206 108.34851 117.95972 C 107.69196 117.99738 106.63744 118.04167 105.98015 118.05946 C 105.32286 118.07727 104.26938 118.0906 103.61115 118.08807 C 102.95291 118.08556 101.89355 118.06363 101.23604 118.04123 C 100.57852 118.01881 99.5283 117.96928 98.87213 117.92657 C 98.21594 117.88385 97.16095 117.79599 96.50668 117.73334 C 95.85242 117.6707 94.80754 117.55748 94.15657 117.475 C 93.50562 117.39255 92.46297 117.24176 91.81491 117.13892 C 91.16685 117.03607 90.12907 116.85573 89.48572 116.73376 C 88.84238 116.6118 87.81541 116.40106 87.17809 116.25986 C 86.54074 116.11865 85.52362 115.87679 84.89214 115.71597 C 84.26067 115.55518 83.25183 115.28094 82.62683 115.10078 C 82.00183 114.92062 81.00484 114.61641 80.38757 114.41745 C 79.7703 114.2185 78.78668 113.88454 78.1779 113.66682 C 77.56912 113.44911 76.59915 113.0842 75.99982 112.84831 C 75.40048 112.61241 74.44777 112.22076 73.85825 111.96661 C 73.2687 111.71245 72.33017 111.28867 71.75078 111.01639 C 71.17139 110.74413 70.25023 110.29366 69.6823 110.0042 C 69.11438 109.71474 68.21358 109.23694 67.65746 108.93005 C 67.10135 108.62317 66.21774 108.11609 65.67412 107.79236 C 65.1305 107.46863 64.26924 106.9366 63.73932 106.59686 C 63.2094 106.25711 62.3708 105.69945 61.85474 105.34363 C 61.33865 104.9878 60.52116 104.40355 60.01973 104.0322 C 59.5183 103.66084 58.72665 103.05331 58.24062 102.66705 C 57.75458 102.2808 56.9873 101.64946 56.51668 101.24829 C 56.04605 100.8471 55.30272 100.19077 54.84866 99.77557 C 54.39462 99.3604 53.68094 98.68442 53.24416 98.25594 C 52.80737 97.82747 52.12012 97.12906 51.70058 96.68741 C 51.28105 96.24574 50.62202 95.52704 50.22038 95.07272 C 49.81874 94.61841 49.18887 93.87921 48.80586 93.413 C 48.42287 92.94676 47.82399 92.18988 47.45998 91.71242 C 47.09596 91.23495 46.52719 90.46036 46.18231 89.97166 C 45.83742 89.48299 45.29916 88.68907 44.97423 88.19028 C 44.64928 87.69147 44.14491 86.88483 43.84032 86.37659 C 43.53574 85.86833 43.06291 85.0443 42.7789 84.52715 C 42.4949 84.00998 42.05646 83.1747 41.79343 82.64925 C 41.53038 82.12378 41.12498 81.2735 40.88307 80.73993 C 40.64116 80.20638 40.27013 79.34418 40.04987 78.80373 C 39.8296 78.26326 39.4938 77.39111 39.29549 76.84459 C 39.09715 76.29807 38.79677 75.41708 38.62047 74.86465 C 38.44417 74.31224 38.17882 73.42073 38.02477 72.86308 C 37.87071 72.30545 37.64151 71.40704 37.51004 70.84549 C 37.37857 70.28392 37.18597 69.38081 37.07716 68.81567 C 36.96835 68.25052 36.81186 67.34093 36.72572 66.77225 C 36.63959 66.20357 36.51955 65.28792 36.45631 64.71704 C 36.39307 64.14615 36.31015 63.22995 36.26991 62.65773 C 36.22966 62.08551 36.1835 61.16568 36.16626 60.59282 C 36.14902 60.01994 36.13982 59.10162 36.14558 58.52876 C 36.15135 57.9559 36.17905 57.03685 36.20782 56.46407 C 36.2366 55.89128 36.3013 54.97221 36.35307 54.40051 C 36.40486 53.82881 36.50635 52.91318 36.58102 52.3436 C 36.65572 51.774 36.7939 50.86227 36.89142 50.29532 C 36.98894 49.72835 37.16376 48.82086 37.28394 48.25732 C 37.40413 47.69379 37.61497 46.79327 37.75774 46.23372 C 37.9005 45.67416 38.14766 44.77954 38.3129 44.22438 C 38.47815 43.66922 38.76143 42.78197 38.94878 42.23247 C 39.13614 41.68298 39.45387 40.80754 39.66322 40.26398 C 39.87256 39.72041 40.22643 38.85204 40.45761 38.31483 C 40.6888 37.77762 41.07713 36.92148 41.32957 36.39207 C 41.58203 35.86266 42.0036 35.02043 42.27713 34.49916 C 42.55066 33.9779 43.0067 33.14784 43.30103 32.63513 C 43.59534 32.1224 44.08371 31.30734 44.39853 30.8038 C 44.71335 30.30028 45.23523 29.4995 45.57002 29.00597 C 45.90482 28.51242 46.4572 27.72972 46.81158 27.24666 C 47.16597 26.76361 47.75041 25.99667 48.12428 25.52435 C 48.49817 25.05205 49.11371 24.30312 49.50632 23.84251 C 49.89893 23.38191 50.54335 22.65257 50.95393 22.20456 C 51.36453 21.75656 52.03758 21.04846 52.4656 20.61356 C 52.89363 20.17865 53.59358 19.49176 54.03891 19.06999 C 54.48424 18.64822 55.21307 17.9817 55.67531 17.57368 C 56.13754 17.16568 56.89195 16.523 57.37042 16.12932 C 57.84889 15.73566 58.62967 15.1154 59.12378 14.73631 C 59.61789 14.35724 60.42265 13.76096 60.93166 13.39711 C 61.44064 13.03326 62.26924 12.46184 62.79231 12.11392 C 63.31538 11.76599 64.16516 11.22096 64.70164 10.88942 C 65.23814 10.55786 66.10909 10.03949 66.65903 9.72427 C 67.20897 9.40906 68.10313 8.9158 68.66533 8.61755 C 69.22751 8.3193 70.13734 7.85533 70.71089 7.57469 C 71.28442 7.29407 72.21452 6.85794 72.79906 6.59496 C 73.38359 6.33199 74.32942 5.92438 74.92383 5.67926 C 75.51822 5.43414 76.47879 5.05528 77.08311 4.8283 C 77.68744 4.6013 78.66594 4.25171 79.27946 4.04318 C 79.89299 3.83466 80.88391 3.51498 81.50502 3.32533 C 82.12613 3.1357 83.1279 2.84691 83.756 2.6763 C 84.38408 2.50569 85.3974 2.24667 86.03186 2.09566 C 86.66634 1.94464 87.68858 1.7194 88.32887 1.58783 C 88.96916 1.45624 90.00064 1.25969 90.64667 1.14722 C 91.2927 1.03473 92.3355 .8694 92.98495 .77711 C 93.63441 .68484 94.675 .55438 95.32759 .48204 C 95.98016 .40971 97.03278 .30864 97.68831 .25572 C 98.34386 .2028 99.39542 .13347 100.05234 .10063 C 100.70927 .0678 101.76534 .03133 102.42302 .01903 C 103.0807 .00673 104.13467 .00429 104.79251 .012 C 105.45033 .01968 106.50749 .04688 107.16432 .07454 C 107.82115 .1022 108.87102 .16386 109.52654 .2115 C 110.18207 .25912 111.23503 .35046 111.88892 .4179 C 112.54279 .48534 113.58879 .6102 114.23933 .69759 C 114.88988 .78496 115.93129 .94054 116.57758 1.04776 C 117.22388 1.15498 118.25565 1.34344 118.89742 1.47043 C 119.53918 1.59741 120.56638 1.81654 121.20299 1.96306 C 121.83961 2.10957 122.85606 2.36086 123.48575 2.52652 C 124.11545 2.69217 125.11836 2.97246 125.74149 3.15706 C 126.36461 3.34167 127.3612 3.65338 127.97687 3.85715 C 128.59255 4.06091 129.57242 4.40327 130.17882 4.62572 C 130.78524 4.84814 131.75025 5.21977 132.34746 5.46033 C 132.94467 5.70088 133.89632 6.10092 134.48313 6.35956 C 135.06993 6.6182 136.00034 7.04814 136.57688 7.32446 C 137.15341 7.60077 138.0734 8.05719 138.63846 8.35109 C 139.20354 8.64499 140.09677 9.13155 140.64955 9.44272 C 141.20232 9.75389 142.08255 10.26599 142.6225 10.59386 C 143.16243 10.92172 144.01485 11.46199 144.54116 11.80573 C 145.06746 12.14946 145.90299 12.71204 146.41585 13.07133 C 146.9287 13.43063 147.73993 14.0201 148.23752 14.39536 C 148.73513 14.77061 149.52031 15.38539 150.00215 15.77599 C 150.484 16.16656 151.24402 16.80562 151.71036 17.21042 C 152.1767 17.61523 152.91283 18.27528 153.36328 18.69365 C 153.81374 19.11203 154.52384 19.7941 154.9569 20.22583 C 155.38996 20.65756 156.06923 21.36066 156.48453 21.80534 C 156.89981 22.25003 157.55324 22.9738 157.95001 23.43094 C 158.34677 23.88808 158.96666 24.63104 159.34418 25.10008 C 159.72171 25.56912 160.31163 26.33087 160.671 26.81151 C 161.03038 27.29214 161.59455 28.07278 161.93434 28.56427 C 162.27414 29.05574 162.80016 29.85272 163.12009 30.35379 C 163.44004 30.85487 163.94014 31.6659 164.24028 32.17575 C 164.54044 32.68561 165.00513 33.50937 165.28336 34.02852 C 165.56159 34.54765 165.98812 35.38943 166.24565 35.91742 C 166.50319 36.4454 166.90259 37.29866 167.13954 37.83383 C 167.3765 38.36899 167.73885 39.23276 167.95355 39.77458 C 168.16825 40.31642 168.49402 41.1909 168.68703 41.73901 C 168.88004 42.28712 169.17311 43.17128 169.3446 43.72498 C 169.5161 44.27866 169.7755 45.17111 169.92307 45.72966 C 170.07064 46.28821 170.28319 47.18802 170.4082 47.75069 C 170.5332 48.31335 170.72057 49.21867 170.82404 49.78506 C 170.92749 50.35144 171.07286 51.26349 171.15392 51.83278 C 171.23497 52.40207 171.3505 53.31697 171.40834 53.88817 C 171.46617 54.45937 171.5367 55.37723 171.5709 55.94968 C 171.6051 56.52213 171.64322 57.44116 171.65486 58.01396 C 171.6665 58.58676 171.6665 59.50522 171.65486 60.07802 C 171.64322 60.6508 171.6051 61.56985 171.5709 62.1423 C 171.5367 62.71475 171.46617 63.63261 171.40834 64.20381 C 171.3505 64.77501 171.23535 65.69008 171.15392 66.2592 C 171.07248 66.82831 170.92407 67.73958 170.82137 68.30566 C 170.71866 68.87173 170.53902 69.77635 170.41364 70.33917 C 170.28826 70.90198 170.06597 71.80336 169.91765 72.36205 C 169.76932 72.92073 169.5157 73.81213 169.3446 74.36583 C 169.17351 74.91954 168.87741 75.80469 168.68442 76.3528 C 168.49141 76.90091 168.16751 77.77434 167.95355 78.31622 C 167.73958 78.85811 167.37844 79.72313 167.1422 80.25836 C 166.90598 80.7936 166.50884 81.6464 166.25093 82.17386 C 165.99303 82.70132 165.56232 83.54091 165.28336 84.06 C 165.00438 84.57909 164.53969 85.40434 164.24028 85.91508 C 163.94087 86.42583 163.44605 87.23991 163.12538 87.74107 C 162.80474 88.24222 162.26932 89.03642 161.92914 89.52707 C 161.58896 90.01772 161.03221 90.79697 160.67357 91.27739 C 160.31491 91.7578 159.72206 92.52017 159.34418 92.98964 C 158.96631 93.4591 158.34642 94.20354 157.95001 94.66104 C 157.5536 95.11855 156.90309 95.84247 156.4871 96.28705 C 156.07112 96.73163 155.38449 97.4335 154.95177 97.8653 C 154.51905 98.29709 153.81804 98.9804 153.3683 99.39919 C 152.91857 99.818 152.17739 100.47934 151.71036 100.88373 C 151.24332 101.28812 150.484 101.92386 150.00215 102.31384 C 149.52031 102.70381 148.73477 103.31898 148.23752 103.69447 C 147.74028 104.06998 146.93115 104.6605 146.4183 105.02011 C 145.90546 105.37971 145.06815 105.94266 144.54116 106.28625 C 144.01416 106.62985 143.1597 107.1686 142.62009 107.49652 C 142.08048 107.82446 141.20439 108.3386 140.65195 108.64984 C 140.0995 108.96109 139.20322 109.44588 138.63846 109.73985 C 138.07372 110.03383 137.15839 110.49236 136.58153 110.76872 C 136.00467 111.04509 135.06829 111.47318 134.48082 111.7318 C 133.89334 111.99042 132.94435 112.392 132.34746 112.63264 C 131.75057 112.87329 130.78524 113.24425 130.17882 113.46626 C 129.57242 113.6883 128.59194 114.02893 127.97687 114.2329 C 127.36182 114.43684 126.3684 114.75119 125.74588 114.93626 C 125.12335 115.12135 124.12045 115.40141 123.49014 115.5669 C 122.85985 115.73236 121.83992 115.98276 121.20299 116.12892 C 120.56606 116.27509 119.5413 116.49371 118.89955 116.62045 C 118.25778 116.7472 117.2236 116.93483 116.57758 117.0424 C 115.93155 117.15 114.89397 117.30827 114.24342 117.39592 C 113.59288 117.48355 112.5428 117.60663 111.88892 117.67409 C 111.23502 117.74153 110.18605 117.83467 109.53052 117.88208 C 108.875 117.92947 107.82144 117.98827 107.16432 118.01572 C 106.5072 118.04317 105.45224 118.07225 104.7944 118.07996 C 104.13657 118.08766 103.08096 118.08382 102.42302 118.0713 C 101.76508 118.0588 100.70927 118.02234 100.05234 117.98973 C 99.39542 117.95712 98.34335 117.88869 97.68831 117.83626 C 97.03328 117.78383 95.98425 117.68433 95.33119 117.61174 C 94.67813 117.53915 93.63095 117.40555 92.98146 117.31306 C 92.33197 117.22058 91.29564 117.05731 90.6501 116.94508 C 90.00456 116.83287 88.96918 116.63573 88.32887 116.50415 C 87.68857 116.37257 86.6696 116.14775 86.03513 115.99673 C 85.40067 115.84572 84.38454 115.58633 83.756 115.41568 C 83.12746 115.24503 82.12592 114.95615 81.50502 114.76665 C 80.88412 114.57713 79.89412 114.25821 79.28102 114.04977 C 78.66791 113.84134 77.69023 113.49121 77.08609 113.26436 C 76.48195 113.03749 75.52151 112.65991 74.92671 112.4147 C 74.33191 112.1695 73.3836 111.76007 72.79906 111.49702 C 72.21451 111.23396 71.28714 110.79935 70.71361 110.51872 C 70.14006 110.2381 69.22752 109.77266 68.66533 109.47443 C 68.10312 109.1762 67.21118 108.68427 66.66158 108.3692 C 66.11198 108.05412 65.24097 107.53532 64.70413 107.20357 C 64.16728 106.87181 63.31573 106.3262 62.79231 105.97806 C 62.26889 105.62991 61.44064 105.0582 60.93166 104.69435 C 60.42265 104.3305 59.61758 103.73444 59.12378 103.35565 C 58.62997 102.97688 57.85101 102.35812 57.37254 101.96432 C 56.89407 101.57054 56.13785 100.92575 55.67531 100.5174 C 55.21277 100.10904 54.48424 99.44278 54.03891 99.02113 C 53.59358 98.59949 52.89363 97.91321 52.4656 97.47842 C 52.03758 97.04362 51.36453 96.33542 50.95393 95.88742 C 50.54335 95.4394 49.8988 94.70992 49.50632 94.24947 C 49.11383 93.789 48.49898 93.04117 48.12509 92.56876 C 47.75122 92.09636 47.16609 91.32784 46.81158 90.84467 C 46.45708 90.36148 45.90472 89.5796 45.57002 89.08632 C 45.23532 88.59303 44.71404 87.79291 44.39922 87.28932 C 44.0844 86.78575 43.59535 85.96957 43.30103 85.45685 C 43.00668 84.94414 42.55124 84.1153 42.27771 83.59396 C 42.00418 83.07265 41.58199 82.2287 41.32957 81.69945 C 41.07718 81.17021 40.68965 80.3163 40.45859 79.77948 C 40.22751 79.24265 39.87352 78.3741 39.6641 77.83034 C 39.45468 77.28658 39.1365 76.40973 38.94917 75.86035 C 38.76186 75.31099 38.47919 74.42593 38.31393 73.87082 C 38.14867 73.3157 37.90092 72.41943 37.75803 71.85944 C 37.61513 71.29944 37.40411 70.398 37.28394 69.83466 C 37.16377 69.27132 36.98933 68.36615 36.89182 67.7992 C 36.7943 67.23224 36.65578 66.31831 36.58102 65.74838 C 36.50629 65.17845 36.40485 64.263 36.35307 63.69147 C 36.30132 63.11993 36.23666 62.20189 36.20789 61.6291 C 36.17911 61.05632 36.15135 60.13622 36.14558 59.56322 C 36.13982 58.9902 36.14903 58.07172 36.16626 57.49916 C 36.18349 56.9266 36.22949 56.00882 36.26974 55.4366 C 36.30998 54.8644 36.3931 53.94583 36.45631 53.37494 C 36.51952 52.80406 36.63927 51.89058 36.72537 51.32208 C 36.81148 50.75359 36.96811 49.84288 37.07693 49.27757 C 37.18576 48.71225 37.37827 47.80943 37.50977 47.24767 C 37.64127 46.6859 37.87067 45.7864 38.02477 45.22859 C 38.17886 44.67079 38.44417 43.7797 38.62047 43.22733 C 38.79677 42.67494 39.09715 41.79391 39.29549 41.24739 C 39.4938 40.70085 39.8296 39.82872 40.04987 39.28825 C 40.27013 38.7478 40.64131 37.88528 40.88307 37.35205 C 41.12483 36.8188 41.52928 35.97054 41.79233 35.44504 C 42.05537 34.91953 42.49503 34.08162 42.7789 33.56458 C 43.06279 33.04755 43.5339 32.22665 43.8384 31.71855 C 44.14288 31.21046 44.64853 30.40147 44.97353 29.90254 C 45.29852 29.40361 45.83607 28.61107 46.18083 28.12259 C 46.5256 27.63411 47.09433 26.85954 47.45842 26.3818 C 47.82253 25.90407 48.42195 25.14577 48.80505 24.67938 C 49.18814 24.213 49.8179 23.47469 50.21951 23.02037 C 50.62114 22.56604 51.28012 21.84657 51.69966 21.4049 C 52.11919 20.96324 52.80646 20.26546 53.24323 19.8371 C 53.68 19.40874 54.39362 18.7327 54.84766 18.31752 C 55.30168 17.90236 56.04517 17.24585 56.51563 16.8448 C 56.98608 16.44376 57.7524 15.81339 58.23842 15.42705 C 58.72444 15.04073 59.51715 14.43175 60.01857 14.06038 C 60.51999 13.68901 61.33632 13.10623 61.85237 12.75046 C 62.36844 12.39468 63.20801 11.83626 63.73808 11.4962 C 64.26816 11.15614 65.12941 10.62317 65.67284 10.29958 C 66.21628 9.97598 67.09874 9.4708 67.65486 9.16397 C 68.21098 8.85715 69.11307 8.37773 69.68098 8.08818 C 70.2489 7.79863 71.16902 7.3489 71.74802 7.077 C 72.327 6.8051 73.26424 6.3826 73.85396 6.12839 C 74.44366 5.87416 75.39882 5.48073 75.99835 5.24469 C 76.59787 5.00865 77.56635 4.64467 78.1749 4.4271 C 78.78345 4.20953 79.76743 3.87549 80.38445 3.67648 C 81.00148 3.47748 81.99686 3.17328 82.62206 2.99269 C 83.24725 2.81209 84.2586 2.53583 84.8905 2.37485 C 85.5224 2.21385 86.53882 1.97359 87.17639 1.83234 C 87.81396 1.69107 88.84264 1.47868 89.48572 1.35674 C 90.12881 1.23479 91.16382 1.05579 91.8114 .9534 C 92.45897 .85101 93.50209 .70122 94.15303 .61873 C 94.80399 .53624 95.84909 .42133 96.50308 .35881 C 97.15707 .29628 98.20992 .21097 98.8666 .168 C 99.52327 .12505 100.57828 .07188 101.23604 .04912 C 101.8938 .02637 102.94965 .00609 103.60735 .0039 C 104.26505 .00171 105.31845 .01585 105.97627 .0333 C 106.6341 .05075 107.69226 .09206 108.34851 .1297 C 109.00475 .16734 110.05142 .24692 110.70605 .30463 C 111.3607 .36234 112.41435 .46829 113.06677 .54564 C 113.7192 .62299 114.7598 .76466 115.40831 .86217 C 116.05681 .95967 117.0962 1.13144 117.74074 1.2484 C 118.38528 1.36534 119.4143 1.5689 120.05371 1.70515 C 120.69312 1.84142 121.71614 2.0745 122.34923 2.23051 C 122.98232 2.38654 123.99045 2.65416 124.61662 2.82967 C 125.24281 3.00517 126.24278 3.30121 126.8624 3.49548 C 127.48203 3.68977 128.47153 4.01706 129.08248 4.23001 C 129.6934 4.44295 130.66399 4.79907 131.26572 5.03036 C 131.86745 5.26164 132.82706 5.64726 133.4193 5.89697 C 134.01152 6.14668 134.952 6.56245 135.53423 6.83012 C 136.11644 7.09778 137.04424 7.54094 137.61559 7.8261 C 138.18694 8.11125 139.09287 8.58278 139.65219 8.88535 C 140.21152 9.18791 141.10009 9.68753 141.64687 10.00679 C 142.19364 10.32605 143.05989 10.85039 143.59294 11.18634 C 144.12598 11.5223 144.9692 12.07639 145.4887 12.42813 C 146.00818 12.77988 146.83238 13.35399 147.33715 13.72148 C 147.8419 14.08897 148.63683 14.69402 149.12677 15.07686 C 149.61672 15.4597 150.39304 16.08372 150.86841 16.48087 C 151.34378 16.878 152.09467 17.52763 152.55292 17.93922 C 153.01119 18.35081 153.7302 19.02214 154.17131 19.44745 C 154.61243 19.87274 155.30797 20.56622 155.7322 21.00455 C 156.15642 21.44289 156.82198 22.15605 157.22895 22.60674 C 157.63593 23.0574 158.27826 23.78928 158.66545 24.2528 C 159.05266 24.71632 159.6519 25.47203 160.01969 25.94759 C 160.38747 26.42313 160.96605 27.1947 161.31623 27.68028 C 161.6664 28.16586 162.21273 28.95168 162.54355 29.44736 C 162.87438 29.94305 163.39089 30.74678 163.70059 31.25291 C 164.0103 31.75905 164.48712 32.58012 164.7758 33.09523 C 165.06449 33.61034 165.51316 34.44211 165.78127 34.96548 C 166.04936 35.48886 166.46051 36.33574 166.70818 36.86736 C 166.95583 37.39897 167.33998 38.25844 167.56623 38.79706 C 167.79245 39.33568 168.1353 40.20436 168.33882 40.74942 C 168.54235 41.2945 168.85066 42.17453 169.0331 42.72557 C 169.21555 43.27663 169.49446 44.16475 169.65383 44.72104 C 169.81319 45.27733 170.04557 46.17429 170.18169 46.73499 C 170.31781 47.29567 170.51995 48.19757 170.63495 48.76224 C 170.74996 49.3269 170.9183 50.23685 171.01058 50.80469 C 171.10285 51.37253 171.23099 52.28482 171.30007 52.85484 C 171.36914 53.42485 171.4623 54.34103 171.50852 54.91302 C 171.55474 55.48502 171.61026 56.40442 171.6332 56.97737 C 171.65615 57.55032 171.67388 59.04243 171.67388 59.04243 "/>
<path transform="matrix(1,0,0,-1,.199,173.36)" stroke-width="1.19553" stroke-linecap="butt" stroke-miterlimit="10" stroke-linejoin="miter" fill="none" stroke="#000000" d="M 36.143 59.04599 L 171.67928 263.73884 "/>
<symbol id="font_1_1">
<path d="M .425 .50600007 C .425 .609 .391 .716 .299 .716 C .153 .716 0 .43100003 0 .20900002 C 0 .13700001 .022 0 .12600002 0 C .272 0 .425 .28200004 .425 .50600007 M .109000008 .374 C .12900001 .45300005 .15 .526 .19100002 .595 C .215 .635 .252 .691 .298 .691 C .352 .691 .356 .605 .356 .56700006 C .356 .507 .34 .43700005 .32500003 .374 L .109000008 .374 M .316 .34200005 C .3 .279 .28100003 .20400001 .241 .13300002 C .215 .086 .17500001 .025000003 .127 .025000003 C .084 .025000003 .07000001 .077 .07000001 .15000002 C .07000001 .21400002 .086 .279 .101 .34200005 L .316 .34200005 Z "/>
</symbol>
<use xlink:href="#font_1_1" transform="matrix(4.4832,-7.7651717,-7.7651717,-4.4832,72.36723,51.113946)"/>
<symbol id="font_2_4">
<path d="M .651 .20400003 C .6650001 .20400003 .6840001 .20400003 .6840001 .22500003 C .6840001 .24700001 .66200008 .24700001 .6470001 .24700001 L .037 .24700001 C .022 .24700001 0 .24700001 0 .22500003 C 0 .20400003 .020000004 .20400003 .033 .20400003 L .651 .20400003 M .6470001 0 C .66200008 0 .6840001 0 .6840001 .022 C .6840001 .042999999 .6650001 .042999999 .651 .042999999 L .033 .042999999 C .020000004 .042999999 0 .042999999 0 .022 C 0 0 .022 0 .037 0 L .6470001 0 Z "/>
</symbol>
<use xlink:href="#font_2_4" transform="matrix(4.4832,-7.7651717,-7.7651717,-4.4832,74.932369,44.196226)"/>
<symbol id="font_1_2">
<path d="M .246 .38000003 L .36 .38000003 C .345 .31700004 .319 .21300002 .319 .13000001 C .319 .123 .319 .086 .328 .05 C .338 .012000001 .347 0 .367 0 C .388 0 .41 .018000002 .41 .041 C .41 .048 .409 .051000004 .403 .064 C .372 .134 .372 .20800002 .372 .23100002 C .372 .256 .372 .3 .389 .38000003 L .50600007 .38000003 C .519 .38000003 .556 .38000003 .556 .41600005 C .556 .44200004 .53400006 .44200004 .51500007 .44200004 L .16900002 .44200004 C .14500001 .44200004 .11000001 .44200004 .063 .395 C .036 .36800004 0 .31300003 0 .305 C 0 .29400004 .011000002 .29400004 .014 .29400004 C .022000002 .29400004 .024000003 .29600004 .030000003 .30600003 C .079 .38000003 .14000002 .38000003 .16000001 .38000003 L .21700002 .38000003 C .17400001 .22900002 .105 .087000008 .098 .072000008 C .091000009 .058000003 .081 .037 .081 .029000003 C .081 .016 .09 0 .11200001 0 C .14800002 0 .15700002 .036000004 .17800002 .117000009 L .246 .38000003 Z "/>
</symbol>
<symbol id="font_1_3">
<path d="M .393 .96000006 C .39900003 .97400006 .39900003 .976 .39900003 .97800007 C .39900003 .99100008 .389 1 .37800003 1 C .36400003 1 .36 .99200007 .359 .99 L .0059999974 .03999999 C 0 .025999994 0 .023999989 0 .021999985 C 0 .008999988 .009999998 0 .020999998 0 C .031000004 0 .038999998 .003999993 .046000005 .023999989 L .393 .96000006 Z "/>
</symbol>
<use xlink:href="#font_1_2" transform="matrix(4.4832,-7.7651717,-7.7651717,-4.4832,80.73297,36.624006)"/>
<use xlink:href="#font_1_3" transform="matrix(4.4832,-7.7651717,-7.7651717,-4.4832,85.52086,32.617059)"/>
<symbol id="font_2_3">
<path d="M .262 .37400005 C .35500003 .40900005 .39900003 .48200003 .39900003 .55100008 C .39900003 .628 .314 .688 .21000003 .688 C .106000009 .688 .028 .62900009 .028 .55300006 C .028 .52000007 .05 .50100007 .07900001 .50100007 C .10800001 .50100007 .12900001 .522 .12900001 .55100008 C .12900001 .586 .105000007 .6010001 .07100001 .6010001 C .097 .64300009 .158 .66300007 .207 .66300007 C .29 .66300007 .306 .59700009 .306 .55 C .306 .52000007 .3 .47200004 .275 .43400005 C .244 .38900004 .209 .38700003 .18 .38500003 C .15500002 .38300006 .15300001 .38300006 .14500001 .38300006 C .136 .38200004 .128 .38100005 .128 .37000004 C .128 .35700003 .136 .35700003 .15300001 .35700003 L .20000002 .35700003 C .287 .35700003 .32500003 .28700004 .32500003 .192 C .32500003 .064 .257 .028 .20600002 .028 C .187 .028 .09 .033000005 .045000007 .107 C .081 .102000009 .10900001 .127 .10900001 .16100002 C .10900001 .194 .08400001 .215 .055000005 .215 C .030000005 .215 0 .2 0 .158 C 0 .069000009 .09300001 0 .209 0 C .334 0 .42700003 .09 .42700003 .192 C .42700003 .279 .358 .35300005 .262 .37400005 Z "/>
</symbol>
<use xlink:href="#font_2_3" transform="matrix(4.4832,-7.7651717,-7.7651717,-4.4832,85.99211,27.712101)"/>
<path transform="matrix(1,0,0,-1,.199,173.36)" stroke-width="1.19553" stroke-linecap="butt" stroke-miterlimit="10" stroke-linejoin="miter" fill="none" stroke="#ff8000" d="M 36.143 59.04599 L 71.38243 155.48781 "/>
<use xlink:href="#font_1_1" transform="matrix(2.3206838,-8.660914,-8.660914,-2.3206838,58.70242,43.031438)" fill="#ff8000"/>
<use xlink:href="#font_2_4" transform="matrix(2.3206838,-8.660914,-8.660914,-2.3206838,59.389474,35.686494)" fill="#ff8000"/>
<use xlink:href="#font_1_1" transform="matrix(2.3206838,-8.660914,-8.660914,-2.3206838,63.06535,26.74876)" fill="#ff8000"/>
<symbol id="font_3_1">
<path d="M .23800002 .63500007 C .23800002 .665 .23400001 .665 .20400001 .665 C .138 .601 .036 .601 0 .601 L 0 .56200006 C .025999994 .56200006 .09200001 .56200006 .152 .59000006 L .152 .085 C .152 .052 .152 .039 .048999996 .039 L .0059999974 .039 L .0059999974 0 C .061000006 .004 .13900002 .004 .19500001 .004 C .251 .004 .329 .004 .384 0 L .384 .039 L .34100003 .039 C .23800002 .039 .23800002 .052 .23800002 .085 L .23800002 .63500007 Z "/>
</symbol>
<use xlink:href="#font_3_1" transform="matrix(1.5471225,-5.773943,-5.773943,-1.5471225,65.14146,22.471665)" fill="#ff8000"/>
<path transform="matrix(1,0,0,-1,.199,173.36)" stroke-width="1.19553" stroke-linecap="butt" stroke-miterlimit="10" stroke-linejoin="miter" fill="none" stroke="#bf0040" d="M 36.143 59.04599 L 16.26434 153.5196 "/>
<use xlink:href="#font_1_1" transform="matrix(2.3206838,8.660914,8.660914,-2.3206838,6.6098787,24.724619)" fill="#bf0040"/>
<use xlink:href="#font_2_4" transform="matrix(2.3206838,8.660914,8.660914,-2.3206838,9.687339,31.429057)" fill="#bf0040"/>
<use xlink:href="#font_1_1" transform="matrix(2.3206838,8.660914,8.660914,-2.3206838,10.972549,41.006338)" fill="#bf0040"/>
<symbol id="font_3_2">
<path d="M .46600006 .187 L .42900006 .187 C .42700003 .17300001 .41700004 .10700001 .40200005 .096 C .395 .09 .314 .09 .3 .09 L .113 .09 L .24100003 .194 C .275 .22100002 .36400003 .28500004 .395 .31500004 C .425 .34500004 .46600006 .39600004 .46600006 .467 C .46600006 .592 .35300002 .665 .21900001 .665 C .089999999 .665 0 .58000007 0 .48600004 C 0 .43500004 .042999999 .42900003 .053999999 .42900003 C .079 .42900003 .108 .44700004 .108 .483 C .108 .505 .095000009 .537 .051 .537 C .07400001 .588 .13500002 .62600007 .20400003 .62600007 C .30900003 .62600007 .365 .54800006 .365 .467 C .365 .39600004 .31800003 .323 .24800003 .259 L .011 .042000005 C .001000002 .032 0 .031000002 0 0 L .43500004 0 L .46600006 .187 Z "/>
</symbol>
<use xlink:href="#font_3_2" transform="matrix(1.5471225,5.773943,5.773943,-1.5471225,11.237583,45.4665)" fill="#bf0040"/>
</g>
<path transform="matrix(1,0,0,-1,.199,173.36)" stroke-width="1" stroke-linecap="butt" stroke-miterlimit="10" stroke-linejoin="miter" fill="none" stroke="#808080" d="M 81.32176 56.92 L 81.32176 61.17198 M 126.50052 56.92 L 126.50052 61.17198 M 171.67928 56.92 L 171.67928 61.17198 "/>
<path transform="matrix(1,0,0,-1,.199,173.36)" stroke-width="1" stroke-linecap="butt" stroke-miterlimit="10" stroke-linejoin="miter" fill="none" stroke="#808080" d="M 34.01712 19.68199 L 38.26886 19.68199 M 34.01712 98.41 L 38.26886 98.41 M 34.01712 137.774 L 38.26886 137.774 "/>
<path transform="matrix(1,0,0,-1,.199,173.36)" stroke-width="1" stroke-linecap="butt" stroke-miterlimit="10" stroke-linejoin="miter" fill="none" stroke="#000000" d="M 0 59.04599 L 192.27614 59.04599 "/>
<path transform="matrix(1,0,0,-1,192.47515,114.31401)" d="M 1.99252 0 L -1.19551 1.59401 L 0 0 L -1.19551 -1.59401 "/>
<path transform="matrix(1,0,0,-1,.199,173.36)" stroke-width="1" stroke-linecap="butt" stroke-miterlimit="10" stroke-linejoin="miter" fill="none" stroke="#000000" d="M 36.143 0 L 36.143 159.39989 "/>
<path transform="matrix(0,-1,-1,-0,36.342004,13.960114)" d="M 1.99252 0 L -1.19551 1.59401 L 0 0 L -1.19551 -1.59401 "/>
<symbol id="font_2_1">
<path d="M .21100003 .63900008 C .21100003 .66400006 .21000001 .666 .18500003 .666 C .123 .60200008 .031000004 .60200008 0 .60200008 L 0 .57100006 C .019000002 .57100006 .080000009 .57100006 .134 .597 L .134 .080000009 C .134 .043 .13100001 .031000002 .03800001 .031000002 L .0060000049 .031000002 L .0060000049 0 C .042000005 .003 .13100001 .003 .17200002 .003 C .21300003 .003 .30300004 .003 .33900003 0 L .33900003 .031000002 L .307 .031000002 C .21400002 .031000002 .21100003 .043 .21100003 .080000009 L .21100003 .63900008 Z "/>
</symbol>
<use xlink:href="#font_2_1" transform="matrix(8.9664,0,0,-8.9664,80.04987,125.48899)"/>
<symbol id="font_2_2">
<path d="M .411 .177 L .38300003 .177 C .381 .164 .37300004 .105000007 .36 .089 C .35400004 .080000009 .28500004 .080000009 .26500003 .080000009 L .08700001 .080000009 L .18600002 .17400001 C .35000003 .316 .411 .36900003 .411 .47100003 C .411 .586 .316 .666 .19300002 .666 C .07800001 .666 0 .57500007 0 .48400004 C 0 .43400003 .043 .42900003 .052000006 .42900003 C .074 .42900003 .104 .44500003 .104 .48100005 C .104 .51100006 .083000008 .53300008 .052000006 .53300008 C .047000003 .53300008 .044000005 .53300008 .040000004 .532 C .063999999 .60300007 .128 .63500007 .18200001 .63500007 C .284 .63500007 .319 .54 .319 .47100003 C .319 .36900003 .24200002 .286 .194 .23400001 L .011 .036000004 C 0 .025 0 .023000002 0 0 L .38300003 0 L .411 .177 Z "/>
</symbol>
<use xlink:href="#font_2_2" transform="matrix(8.9664,0,0,-8.9664,124.85128,125.48899)"/>
<use xlink:href="#font_2_3" transform="matrix(8.9664,0,0,-8.9664,169.95757,125.68625)"/>
<symbol id="font_4_1">
<path d="M .589 0 C .607 0 .626 0 .626 .022 C .626 .042999999 .606 .042999999 .589 .042999999 L .037 .042999999 C .020000004 .042999999 0 .042999999 0 .022 C 0 0 .019000002 0 .037 0 L .589 0 Z "/>
</symbol>
<use xlink:href="#font_4_1" transform="matrix(8.9664,0,0,-8.9664,19.94111,154.09871)"/>
<use xlink:href="#font_2_1" transform="matrix(8.9664,0,0,-8.9664,27.171877,156.15201)"/>
<use xlink:href="#font_2_1" transform="matrix(8.9664,0,0,-8.9664,27.171875,77.840007)"/>
<use xlink:href="#font_2_2" transform="matrix(8.9664,0,0,-8.9664,26.795287,38.477006)"/>
<symbol id="font_1_4">
<path d="M .462 .41500003 C .425 .40800003 .41400004 .37600003 .41400004 .36100004 C .41400004 .34200005 .42800004 .32500003 .453 .32500003 C .48100005 .32500003 .508 .34900005 .508 .38400004 C .508 .43000005 .45800004 .45300005 .411 .45300005 C .351 .45300005 .316 .40000005 .30400003 .37900005 C .28500004 .42800004 .24100003 .45300005 .193 .45300005 C .086 .45300005 .028 .32500003 .028 .29900003 C .028 .29000003 .035000005 .28700004 .042000005 .28700004 C .051 .28700004 .054000006 .29200004 .056 .298 C .087000008 .397 .15300001 .42800004 .19100002 .42800004 C .22 .42800004 .24600002 .40900005 .24600002 .36200003 C .24600002 .32600004 .20300001 .16600001 .19000001 .11800001 C .18200001 .087000008 .15200001 .025000003 .097 .025000003 C .07700001 .025000003 .056 .032 .046000005 .038000004 C .07300001 .043 .093 .06600001 .093 .092 C .093 .117000009 .074 .128 .055 .128 C .026 .128 0 .10300001 0 .069000009 C 0 .020000002 .054000006 0 .096 0 C .15400002 0 .18800001 .048 .20300001 .075 C .22800002 .009000001 .287 0 .314 0 C .42200003 0 .479 .13000001 .479 .15400002 C .479 .15900001 .47600005 .16600001 .46600003 .16600001 C .455 .16600001 .45400004 .16200002 .44900004 .14700002 C .42700003 .075 .36900003 .025000003 .317 .025000003 C .28800003 .025000003 .261 .043 .261 .091000009 C .261 .113000009 .275 .16800002 .284 .20600002 C .28800003 .22400002 .31500004 .33200003 .317 .33900003 C .32900004 .37500004 .35900004 .42800004 .41000004 .42800004 C .42800004 .42800004 .44700004 .42500005 .462 .41500003 Z "/>
</symbol>
<use xlink:href="#font_1_4" transform="matrix(8.9664,0,0,-8.9664,198.033,116.33464)"/>
<symbol id="font_1_5">
<path d="M .47300003 .59000006 C .474 .595 .47599999 .6010001 .47599999 .607 C .47599999 .62 .467 .63600006 .44500003 .63600006 C .432 .63600006 .414 .628 .40600003 .609 C .405 .605 .395 .564 .389 .54200008 L .33900003 .342 C .331 .31300003 .331 .31100003 .329 .30200003 C .328 .298 .286 .21900001 .21400002 .21900001 C .15200001 .21900001 .15200001 .282 .15200001 .301 C .15200001 .34600003 .165 .39500005 .20800002 .507 C .216 .53000006 .22200002 .544 .22200002 .563 C .22200002 .612 .18500002 .6470001 .136 .6470001 C .040000008 .6470001 0 .505 0 .49300004 C 0 .48400004 .007000001 .48100005 .014 .48100005 C .025 .48100005 .026000003 .48700003 .030000003 .5 C .051000008 .574 .091000009 .62200006 .133 .62200006 C .157 .62200006 .157 .60300007 .157 .589 C .157 .572 .15300001 .554 .14400001 .53000006 C .097 .40600003 .08400001 .36400003 .08400001 .316 C .08400001 .20500002 .17400001 .194 .21100001 .194 C .26 .194 .295 .22000002 .313 .238 C .3 .187 .289 .14200002 .25 .09200001 C .22000002 .052 .18 .025000006 .136 .025000006 C .10800001 .025000006 .075 .03500001 .061000006 .06300001 C .11400001 .06300001 .12100001 .10700001 .12100001 .117000009 C .12100001 .13900002 .105000007 .15300001 .083000008 .15300001 C .059000009 .15300001 .027 .134 .027 .08800001 C .027 .036 .07300001 0 .136 0 C .23800002 0 .347 .087000008 .37600003 .20400001 L .47300003 .59000006 Z "/>
</symbol>
<use xlink:href="#font_1_5" transform="matrix(8.9664,0,0,-8.9664,34.17803,8.770119)"/>
</svg>
