<?xml version="1.0" encoding="UTF-8" standalone="no"?>
<!DOCTYPE svg PUBLIC "-//W3C//DTD SVG 1.1//EN" "http://www.w3.org/Graphics/SVG/1.1/DTD/svg11.dtd">
<svg xmlns="http://www.w3.org/2000/svg" xmlns:xlink="http://www.w3.org/1999/xlink" version="1.1" width="206.064pt" height="173.591pt" viewBox="0 0 206.064 173.591">
<clipPath id="cp0">
<path transform="matrix(1,0,0,-1,.199,173.392)" d="M 0 0 L 194.26973 0 L 194.26973 161.39612 L 0 161.39612 Z "/>
</clipPath>
<g clip-path="url(#cp0)">
<path transform="matrix(1,0,0,-1,.199,173.392)" d="M -2.8569 192.00572 L 5.4757 183.88956 L 13.80833 175.7734 L 22.14096 167.6572 L 30.47359 159.54105 L 38.80621 151.4249 L 47.13884 143.30873 L 55.47147 135.19258 L 63.8041 127.07639 L 72.13672 118.96024 L 80.46936 110.84407 L 88.80199 102.7279 L 97.13461 94.61176 L 105.46724 86.49556 L 113.79988 78.3794 L 122.1325 70.26324 L 130.46512 62.1471 L 138.79775 54.0309 L 147.13039 45.91473 L 155.46302 37.79858 L 163.79564 29.68243 L 172.12825 21.56627 L 180.46088 13.45006 L 188.79352 5.33391 L 197.12615 -2.78223 L 197.12615 358.96723 L 188.79352 358.96723 L 180.46088 358.96723 L 172.12825 358.96723 L 163.79564 358.96723 L 155.46302 358.96723 L 147.13039 358.96723 L 138.79775 358.96723 L 130.46512 358.96723 L 122.1325 358.96723 L 113.79988 358.96723 L 105.46724 358.96723 L 97.13461 358.96723 L 88.80199 358.96723 L 80.46936 358.96723 L 72.13672 358.96723 L 63.8041 358.96723 L 55.47147 358.96723 L 47.13884 358.96723 L 38.80621 358.96723 L 30.47359 358.96723 L 22.14096 358.96723 L 13.80833 358.96723 L 5.4757 358.96723 L -2.8569 358.96723 Z " fill="#9999cc"/>
</g>
<clipPath id="cp1">
<path transform="matrix(1,0,0,-1,.199,173.392)" d="M 0 0 L 194.26973 0 L 194.26973 161.39612 L 0 161.39612 Z "/>
</clipPath>
<g clip-path="url(#cp1)">
<path transform="matrix(1,0,0,-1,.199,173.392)" d="M -2.8569 192.00572 L 5.4757 183.88956 L 13.80833 175.7734 L 22.14096 167.6572 L 30.47359 159.54105 L 38.80621 151.4249 L 47.13884 143.30873 L 55.47147 135.19258 L 63.8041 127.07639 L 72.13672 118.96024 L 80.46936 110.84407 L 88.80199 102.7279 L 97.13461 94.61176 L 105.46724 86.49556 L 113.79988 78.3794 L 122.1325 70.26324 L 130.46512 62.1471 L 138.79775 54.0309 L 147.13039 45.91473 L 155.46302 37.79858 L 163.79564 29.68243 L 172.12825 21.56627 L 180.46088 13.45006 L 188.79352 5.33391 L 197.12615 -2.78223 L 197.12615 -197.5711 L 188.79352 -197.5711 L 180.46088 -197.5711 L 172.12825 -197.5711 L 163.79564 -197.5711 L 155.46302 -197.5711 L 147.13039 -197.5711 L 138.79775 -197.5711 L 130.46512 -197.5711 L 122.1325 -197.5711 L 113.79988 -197.5711 L 105.46724 -197.5711 L 97.13461 -197.5711 L 88.80199 -197.5711 L 80.46936 -197.5711 L 72.13672 -197.5711 L 63.8041 -197.5711 L 55.47147 -197.5711 L 47.13884 -197.5711 L 38.80621 -197.5711 L 30.47359 -197.5711 L 22.14096 -197.5711 L 13.80833 -197.5711 L 5.4757 -197.5711 L -2.8569 -197.5711 Z " fill="#cc9999"/>
</g>
<clipPath id="cp2">
<path transform="matrix(1,0,0,-1,.199,173.392)" d="M 0 0 L 194.26973 0 L 194.26973 161.39612 L 0 161.39612 Z "/>
</clipPath>
<g clip-path="url(#cp2)">
<path transform="matrix(1,0,0,-1,.199,173.392)" stroke-width="1.19553" stroke-linecap="butt" stroke-dasharray="2.98883,2.98883" stroke-miterlimit="10" stroke-linejoin="miter" fill="none" stroke="#000080" d="M -2.8569 193.39707 L 6.66609 184.12143 L 16.18912 174.84581 L 25.71211 165.57018 L 35.23514 156.29456 L 44.75816 147.01889 L 54.28116 137.74327 L 63.80418 128.46764 L 73.32721 119.19202 L 82.85022 109.9164 L 92.37323 100.64076 L 101.89626 91.36514 L 111.41927 82.08952 L 120.94228 72.8139 L 130.4653 63.53827 L 139.98831 54.2626 L 149.51132 44.98698 L 159.03435 35.71135 L 168.55736 26.43573 L 178.08039 17.16011 L 187.6034 7.88448 L 197.1264 -1.39114 L 206.64943 -10.66676 L 216.17244 -19.94238 L 225.69545 -29.21802 "/>
<path transform="matrix(1,0,0,-1,.199,173.392)" stroke-width="1.19553" stroke-linecap="butt" stroke-miterlimit="10" stroke-linejoin="miter" fill="none" stroke="#800000" d="M -2.8569 192.00572 C -2.8569 192.00572 4.0235 185.30403 6.66609 182.73009 C 9.30869 180.15613 13.54652 176.0284 16.18912 173.45446 C 18.8317 170.88053 23.06952 166.75278 25.71211 164.17884 C 28.3547 161.6049 32.59254 157.47716 35.23514 154.90322 C 37.87773 152.32926 42.11557 148.20149 44.75816 145.62755 C 47.40074 143.05359 51.63858 138.92586 54.28116 136.35192 C 56.92375 133.77799 61.16159 129.65024 63.80418 127.0763 C 66.44678 124.50235 70.68462 120.3746 73.32721 117.80067 C 75.9698 115.22673 80.20763 111.09898 82.85022 108.52504 C 85.4928 105.95111 89.73064 101.82336 92.37323 99.24942 C 95.01582 96.67549 99.25366 92.54773 101.89626 89.9738 C 104.53885 87.39986 108.77667 83.27211 111.41927 80.69818 C 114.06184 78.12424 118.2997 73.99649 120.94228 71.42255 C 123.58487 68.84862 127.82271 64.72089 130.4653 62.14693 C 133.1079 59.57297 137.34572 55.4452 139.98831 52.87126 C 142.6309 50.2973 146.86875 46.16957 149.51132 43.59563 C 152.15392 41.0217 156.39176 36.89395 159.03435 34.32 C 161.67694 31.74608 165.91477 27.61832 168.55736 25.04439 C 171.19995 22.47044 175.43779 18.3427 178.08039 15.76877 C 180.72296 13.19482 184.9608 9.0671 187.6034 6.49313 C 190.24599 3.91919 194.48381 -.20853 197.1264 -2.78249 C 199.769 -5.35645 204.00684 -9.48418 206.64943 -12.0581 C 209.292 -14.63205 213.52986 -18.7598 216.17244 -21.33374 C 218.81504 -23.90767 225.69545 -30.60936 225.69545 -30.60936 "/>
<symbol id="font_3_2">
<path d="M .26700003 .32500003 L .365 .32500003 C .43600003 .32500003 .45000003 .31300003 .45000003 .28100003 C .45000003 .27800004 .44900004 .26000003 .44300003 .23600002 C .439 .224 .439 .223 .439 .22100002 C .439 .21700001 .44200004 .208 .453 .208 C .46400003 .208 .465 .21300002 .469 .22900002 L .524 .44500003 C .525 .44900004 .527 .455 .527 .46 C .527 .46600003 .523 .47300003 .513 .47300003 C .502 .47300003 .5 .46600003 .49600003 .44900004 C .47600005 .37100003 .448 .356 .367 .356 L .275 .356 C .28800003 .411 .33900003 .61600008 .34300003 .629 C .35000003 .64900007 .36100004 .64900007 .39100004 .64900007 L .529 .64900007 C .65500006 .64900007 .677 .61600008 .677 .53900006 C .677 .505 .672 .47800002 .672 .47000004 C .672 .462 .677 .455 .686 .455 C .698 .455 .699 .462 .70100006 .48000003 L .722 .666 C .722 .68 .712 .68 .693 .68 L .19200002 .68 C .172 .68 .16200002 .68 .16200002 .66200008 C .16200002 .64900007 .172 .64900007 .19300002 .64900007 C .19700001 .64900007 .215 .64900007 .231 .647 C .25300003 .64400008 .254 .64000007 .254 .63100007 C .254 .628 .254 .62600007 .24900002 .60800006 L .11600001 .076000008 C .10700001 .040000004 .105000007 .031000002 .029999998 .031000002 C .011 .031000002 0 .031000002 0 .013 C 0 .007 .0029999987 0 .015000001 0 C .025999997 0 .073 .001 .083000008 .002 C .091000009 .003 .126 .003 .148 .003 C .16700001 .003 .19500001 .002 .21900001 .002 C .243 .002 .27100004 0 .29500003 0 C .303 0 .316 0 .316 .018000002 C .316 .031000002 .30600003 .031000002 .28500004 .031000002 C .28300003 .031000002 .25700004 .031000002 .23300001 .033 C .202 .036000004 .20000002 .040000004 .20000002 .052 C .20000002 .054 .20000002 .060000004 .20400001 .075 L .26700003 .32500003 Z "/>
</symbol>
<use xlink:href="#font_3_2" transform="matrix(8.9664,0,0,-8.9664,110.76052,51.131006)" fill="#000080"/>
<symbol id="font_4_1">
<path d="M .24000001 .011000007 C .24000001 .016000003 .23700002 .019000009 .231 .026000008 C .102000009 .14400001 .063 .324 .063 .499 C .063 .65400007 .093 .84200009 .234 .9760001 C .238 .98 .24000001 .98300006 .24000001 .98800006 C .24000001 .99500009 .23500002 .9990001 .22800002 .9990001 C .21599999 .9990001 .12600002 .92700007 .072000008 .818 C .023999997 .722 0 .619 0 .5 C 0 .42800004 .009000003 .314 .064 .19600001 C .123 .073 .21599999 0 .22800002 0 C .23500002 0 .24000001 .004000008 .24000001 .011000007 Z "/>
</symbol>
<use xlink:href="#font_4_1" transform="matrix(8.9664,0,0,-8.9664,118.43561,53.36364)" fill="#000080"/>
<symbol id="font_3_3">
<path d="M .462 .41500003 C .425 .40800003 .41400004 .37600003 .41400004 .36100004 C .41400004 .34200005 .42800004 .32500003 .453 .32500003 C .48100005 .32500003 .508 .34900005 .508 .38400004 C .508 .43000005 .45800004 .45300005 .411 .45300005 C .351 .45300005 .316 .40000005 .30400003 .37900005 C .28500004 .42800004 .24100003 .45300005 .193 .45300005 C .086 .45300005 .028 .32500003 .028 .29900003 C .028 .29000003 .035000005 .28700004 .042000005 .28700004 C .051 .28700004 .054000006 .29200004 .056 .298 C .087000008 .397 .15300001 .42800004 .19100002 .42800004 C .22 .42800004 .24600002 .40900005 .24600002 .36200003 C .24600002 .32600004 .20300001 .16600001 .19000001 .11800001 C .18200001 .087000008 .15200001 .025000003 .097 .025000003 C .07700001 .025000003 .056 .032 .046000005 .038000004 C .07300001 .043 .093 .06600001 .093 .092 C .093 .117000009 .074 .128 .055 .128 C .026 .128 0 .10300001 0 .069000009 C 0 .020000002 .054000006 0 .096 0 C .15400002 0 .18800001 .048 .20300001 .075 C .22800002 .009000001 .287 0 .314 0 C .42200003 0 .479 .13000001 .479 .15400002 C .479 .15900001 .47600005 .16600001 .46600003 .16600001 C .455 .16600001 .45400004 .16200002 .44900004 .14700002 C .42700003 .075 .36900003 .025000003 .317 .025000003 C .28800003 .025000003 .261 .043 .261 .091000009 C .261 .113000009 .275 .16800002 .284 .20600002 C .28800003 .22400002 .31500004 .33200003 .317 .33900003 C .32900004 .37500004 .35900004 .42800004 .41000004 .42800004 C .42800004 .42800004 .44700004 .42500005 .462 .41500003 Z "/>
</symbol>
<symbol id="font_3_1">
<path d="M .094000007 .209 C .094000007 .176 .094000007 .094 .019999996 .023000002 C .013999999 .01699999 .013999999 .016000003 .013999999 .0119999949 C .013999999 .004999995 .020999998 0 .026999996 0 C .037999996 0 .11900001 .078 .11900001 .19500001 C .11900001 .257 .096999999 .301 .053999999 .301 C .019999996 .301 0 .275 0 .24700001 C 0 .21900001 .019999996 .193 .053999999 .193 C .069 .193 .084 .198 .094000007 .209 Z "/>
</symbol>
<symbol id="font_3_4">
<path d="M .47300003 .59000006 C .474 .595 .47599999 .6010001 .47599999 .607 C .47599999 .62 .467 .63600006 .44500003 .63600006 C .432 .63600006 .414 .628 .40600003 .609 C .405 .605 .395 .564 .389 .54200008 L .33900003 .342 C .331 .31300003 .331 .31100003 .329 .30200003 C .328 .298 .286 .21900001 .21400002 .21900001 C .15200001 .21900001 .15200001 .282 .15200001 .301 C .15200001 .34600003 .165 .39500005 .20800002 .507 C .216 .53000006 .22200002 .544 .22200002 .563 C .22200002 .612 .18500002 .6470001 .136 .6470001 C .040000008 .6470001 0 .505 0 .49300004 C 0 .48400004 .007000001 .48100005 .014 .48100005 C .025 .48100005 .026000003 .48700003 .030000003 .5 C .051000008 .574 .091000009 .62200006 .133 .62200006 C .157 .62200006 .157 .60300007 .157 .589 C .157 .572 .15300001 .554 .14400001 .53000006 C .097 .40600003 .08400001 .36400003 .08400001 .316 C .08400001 .20500002 .17400001 .194 .21100001 .194 C .26 .194 .295 .22000002 .313 .238 C .3 .187 .289 .14200002 .25 .09200001 C .22000002 .052 .18 .025000006 .136 .025000006 C .10800001 .025000006 .075 .03500001 .061000006 .06300001 C .11400001 .06300001 .12100001 .10700001 .12100001 .117000009 C .12100001 .13900002 .105000007 .15300001 .083000008 .15300001 C .059000009 .15300001 .027 .134 .027 .08800001 C .027 .036 .07300001 0 .136 0 C .23800002 0 .347 .087000008 .37600003 .20400001 L .47300003 .59000006 Z "/>
</symbol>
<use xlink:href="#font_3_3" transform="matrix(8.9664,0,0,-8.9664,121.38299,51.229635)" fill="#000080"/>
<use xlink:href="#font_3_1" transform="matrix(8.9664,0,0,-8.9664,127.13045,52.86152)" fill="#000080"/>
<use xlink:href="#font_3_4" transform="matrix(8.9664,0,0,-8.9664,130.69907,52.969118)" fill="#000080"/>
<symbol id="font_4_2">
<path d="M .24000001 .5 C .24000001 .582 .22800002 .69200006 .17600002 .80300006 C .11700001 .92600008 .024 .9990001 .011999998 .9990001 C .0020000004 .9990001 0 .99100008 0 .98800006 C 0 .98300006 .0020000004 .98 .009 .97300007 C .067 .92100009 .17700002 .785 .17700002 .5 C .17700002 .35700003 .15100001 .158 .006000001 .023000002 C .0040000008 .019999996 0 .016000003 0 .011000007 C 0 .008000001 .0020000004 0 .011999998 0 C .024 0 .11400001 .07200001 .16800002 .18100001 C .21600002 .277 .24000001 .38000003 .24000001 .5 Z "/>
</symbol>
<symbol id="font_4_7">
<path d="M .651 .20400003 C .6650001 .20400003 .6840001 .20400003 .6840001 .22500003 C .6840001 .24700001 .66200008 .24700001 .6470001 .24700001 L .037 .24700001 C .022 .24700001 0 .24700001 0 .22500003 C 0 .20400003 .020000004 .20400003 .033 .20400003 L .651 .20400003 M .6470001 0 C .66200008 0 .6840001 0 .6840001 .022 C .6840001 .042999999 .6650001 .042999999 .651 .042999999 L .033 .042999999 C .020000004 .042999999 0 .042999999 0 .022 C 0 0 .022 0 .037 0 L .6470001 0 Z "/>
</symbol>
<symbol id="font_4_6">
<path d="M 0 .19600001 L 0 .165 L .273 .165 L .273 .079 C .273 .042000005 .27 .031000002 .19500001 .031000002 L .17300001 .031000002 L .17300001 0 C .23600002 .003 .306 .003 .313 .003 C .318 .003 .39000003 .003 .453 0 L .453 .031000002 L .431 .031000002 C .356 .031000002 .35300002 .042000005 .35300002 .079 L .35300002 .165 L .455 .165 L .455 .19600001 L .35300002 .19600001 L .35300002 .65000006 C .35300002 .67 .35300002 .67700007 .334 .67700007 C .322 .67700007 .321 .67600008 .312 .66200008 L 0 .19600001 M .032000007 .19600001 L .279 .56600007 L .279 .19600001 L .032000007 .19600001 Z "/>
</symbol>
<use xlink:href="#font_4_2" transform="matrix(8.9664,0,0,-8.9664,135.81305,53.36364)" fill="#000080"/>
<use xlink:href="#font_4_7" transform="matrix(8.9664,0,0,-8.9664,141.94606,49.99227)" fill="#000080"/>
<use xlink:href="#font_4_6" transform="matrix(8.9664,0,0,-8.9664,151.42356,51.131006)" fill="#000080"/>
<use xlink:href="#font_3_3" transform="matrix(8.9664,0,0,-8.9664,156.041,51.229635)" fill="#000080"/>
<symbol id="font_5_1">
<path d="M .46600006 .187 L .42900006 .187 C .42700003 .17300001 .41700004 .10700001 .40200005 .096 C .395 .09 .314 .09 .3 .09 L .113 .09 L .24100003 .194 C .275 .22100002 .36400003 .28500004 .395 .31500004 C .425 .34500004 .46600006 .39600004 .46600006 .467 C .46600006 .592 .35300002 .665 .21900001 .665 C .089999999 .665 0 .58000007 0 .48600004 C 0 .43500004 .042999999 .42900003 .053999999 .42900003 C .079 .42900003 .108 .44700004 .108 .483 C .108 .505 .095000009 .537 .051 .537 C .07400001 .588 .13500002 .62600007 .20400003 .62600007 C .30900003 .62600007 .365 .54800006 .365 .467 C .365 .39600004 .31800003 .323 .24800003 .259 L .011 .042000005 C .001000002 .032 0 .031000002 0 0 L .43500004 0 L .46600006 .187 Z "/>
</symbol>
<use xlink:href="#font_5_1" transform="matrix(5.9776,0,0,-5.9776,161.4254,46.824007)" fill="#000080"/>
<use xlink:href="#font_3_4" transform="matrix(8.9664,0,0,-8.9664,165.40604,52.969118)" fill="#000080"/>
<symbol id="font_6_4">
<path d="M .21500002 .4 L .331 .4 C .333 .41000004 .334 .42100004 .336 .43100003 L .21700002 .43100003 L .23600002 .54700008 C .24700003 .61600008 .298 .68 .352 .68 C .366 .68 .375 .67700007 .379 .675 C .368 .67 .34600003 .656 .34600003 .62700006 C .34600003 .609 .357 .58900007 .386 .58900007 C .412 .58900007 .43600003 .609 .43600003 .64100006 C .43600003 .68 .4 .70500007 .352 .70500007 C .269 .70500007 .18300002 .64000007 .16800002 .549 L .149 .43100003 L .07000001 .43100003 C .068 .42100004 .067 .41000004 .065 .4 L .143 .4 L .089 .072000008 C .082 .031000002 .067 .031000002 .004999999 .031000002 C .0040000008 .023000002 .0009999983 .009000001 0 0 C .05 .002 .066 .003 .11700001 .003 C .164 .003 .18600002 .002 .24500002 0 L .25 .031000002 L .22900002 .031000002 C .16300002 .031000002 .15900001 .041 .15900001 .060000004 C .15900001 .064 .15900001 .066 .16200002 .083000008 L .21500002 .4 Z "/>
</symbol>
<symbol id="font_6_7">
<path d="M .462 .263 C .462 .37500004 .38200004 .45900003 .27000005 .45900003 C .125 .45900003 0 .321 0 .18700002 C 0 .086 .076000008 0 .19400002 0 C .33200003 0 .462 .12100001 .462 .263 M .19900002 .028 C .16600001 .028 .083000008 .041 .083000008 .15600002 C .083000008 .17900002 .09200001 .29500003 .12900001 .35500003 C .164 .41000004 .219 .43400003 .26600004 .43400003 C .30300004 .43400003 .38200004 .41600005 .38200004 .30800004 C .38200004 .29500003 .376 .17700002 .33500005 .108 C .30300004 .055000005 .24800001 .028 .19900002 .028 Z "/>
</symbol>
<symbol id="font_6_8">
<path d="M .17400001 .157 C .19000001 .254 .19600001 .287 .222 .33200003 C .24900002 .379 .286 .41700004 .34100003 .41700004 L .34100003 .416 C .33900003 .41500003 .31800003 .40100003 .31800003 .37300004 C .31800003 .344 .34100003 .335 .35700003 .335 C .38300003 .335 .407 .35700003 .407 .386 C .407 .41400004 .38400004 .44200004 .33900003 .44200004 C .264 .44200004 .21700001 .37300004 .2 .342 L .216 .44200004 L .072000008 .43100003 L .067 .4 C .126 .4 .13700001 .39400003 .13700001 .367 C .13700001 .36200003 .13700001 .36 .134 .34300003 L .089 .072000008 C .082 .031000002 .067 .031000002 .004999999 .031000002 C .0040000008 .023000002 .0010000002 .009000001 0 0 C .050000006 .002 .066 .003 .117 .003 C .164 .003 .186 .002 .245 0 L .25 .031000002 L .229 .031000002 C .163 .031000002 .15900001 .041 .15900001 .060000004 C .15900001 .066 .163 .089 .165 .10300001 L .17400001 .157 Z "/>
</symbol>
<symbol id="font_6_2">
<path d="M .44500003 .15600002 C .439 .11800001 .43500004 .091000009 .43300004 .08400001 C .42800004 .065000008 .41300003 .040000004 .39000003 .040000004 C .36200003 .040000004 .36100004 .074 .36100004 .079 C .36100004 .087000008 .36800004 .127 .372 .14700002 C .379 .18400002 .40100003 .30300004 .40100003 .33300004 C .40100003 .40300004 .337 .45900003 .24200002 .45900003 C .13700001 .45900003 .07100001 .39900003 .07100001 .34500004 C .07100001 .321 .08700001 .305 .113000009 .305 C .14000002 .305 .165 .32700003 .165 .358 C .165 .39100004 .135 .397 .12900001 .39800004 C .17000002 .43200005 .229 .43400003 .23900002 .43400003 C .30600003 .43400003 .328 .37900005 .328 .33900003 C .328 .33300004 .328 .33100004 .319 .275 C .268 .27300004 .19000001 .26900003 .11700001 .23700002 C .017 .19200002 0 .124000009 0 .095000009 C 0 .027000003 .081000018 0 .14900002 0 C .23300001 0 .28000004 .057000005 .296 .082 C .296 .016 .33800004 .005000001 .36 .005000001 C .39300005 .005000001 .451 .027000003 .46300004 .096 C .465 .107 .47 .136 .47300003 .15600002 L .44500003 .15600002 M .31500004 .25100003 C .30800004 .21100001 .30400003 .16700001 .29400004 .13100001 C .27600003 .068 .21400002 .025000003 .157 .025000003 C .113000009 .025000003 .08000001 .053000004 .08000001 .094000007 C .08000001 .097 .08000001 .23900002 .31500004 .25100003 Z "/>
</symbol>
<symbol id="font_6_6">
<path d="M .264 .694 L .11400001 .683 L .10900001 .652 C .16800002 .652 .179 .646 .179 .619 C .179 .614 .179 .61200007 .17600002 .595 L .089 .072000008 C .082 .031000002 .067 .031000002 .004999999 .031000002 C .0040000008 .023000002 .0009999983 .009000001 0 0 C .046 .002 .066 .003 .113000009 .003 C .16100002 .003 .18600002 .002 .22500001 0 L .23 .031000002 C .18 .031000002 .158 .031000002 .158 .057000005 C .158 .060000004 .15900001 .062000004 .16100002 .07700001 L .264 .694 Z "/>
</symbol>
<use xlink:href="#font_6_4" transform="matrix(8.9664,0,0,-8.9664,105.10879,61.544008)" fill="#000080"/>
<use xlink:href="#font_6_7" transform="matrix(8.9664,0,0,-8.9664,108.1484,61.642637)" fill="#000080"/>
<use xlink:href="#font_6_8" transform="matrix(8.9664,0,0,-8.9664,112.479167,61.544008)" fill="#000080"/>
<use xlink:href="#font_6_2" transform="matrix(8.9664,0,0,-8.9664,119.410198,61.642637)" fill="#000080"/>
<use xlink:href="#font_6_6" transform="matrix(8.9664,0,0,-8.9664,123.82166,61.544008)" fill="#000080"/>
<use xlink:href="#font_6_6" transform="matrix(8.9664,0,0,-8.9664,126.386058,61.544008)" fill="#000080"/>
<use xlink:href="#font_4_1" transform="matrix(8.9664,0,0,-8.9664,132.5906,63.77664)" fill="#000080"/>
<use xlink:href="#font_3_3" transform="matrix(8.9664,0,0,-8.9664,135.53798,61.642637)" fill="#000080"/>
<use xlink:href="#font_3_1" transform="matrix(8.9664,0,0,-8.9664,141.28545,63.27452)" fill="#000080"/>
<use xlink:href="#font_3_4" transform="matrix(8.9664,0,0,-8.9664,144.85408,63.38212)" fill="#000080"/>
<use xlink:href="#font_4_2" transform="matrix(8.9664,0,0,-8.9664,149.96805,63.77664)" fill="#000080"/>
<symbol id="font_6_5">
<path d="M .48600004 .30600003 C .488 .316 .48900006 .324 .48900006 .33900003 C .48900006 .41300003 .441 .44200004 .36800004 .44200004 C .277 .44200004 .22300002 .37600003 .20800002 .354 L .20700002 .354 L .26400004 .694 L .11400001 .683 L .10900001 .652 C .16800002 .652 .17900002 .646 .17900002 .619 C .17900002 .614 .17900002 .61200007 .17600002 .595 L .089 .072000008 C .082 .031000002 .067 .031000002 .0050000029 .031000002 C .0040000008 .023000002 .001000002 .009000001 0 0 C .046 .002 .069000009 .003 .11400001 .003 C .16200002 .003 .17500001 .002 .22800002 0 L .23300001 .031000002 C .18300002 .031000002 .16100002 .031000002 .16100002 .057000005 C .16100002 .060000004 .16800002 .098000008 .17100002 .11800001 C .17400001 .13800001 .18500002 .20400001 .19300002 .25 C .21600002 .386 .31700004 .41700004 .36 .41700004 C .397 .41700004 .41700004 .39900003 .41700004 .35200004 C .41700004 .337 .40900005 .28800003 .40300004 .256 C .39800004 .22600001 .37600003 .087000008 .37300004 .07 C .36600004 .031000002 .351 .031000002 .289 .031000002 C .28800003 .023000002 .28500004 .009000001 .284 0 C .33 .002 .35300002 .003 .39800004 .003 C .44600005 .003 .45900003 .002 .512 0 L .517 .031000002 C .46700005 .031000002 .44500003 .031000002 .44500003 .057000005 C .44500003 .060000004 .44500003 .061000006 .448 .07700001 L .48600004 .30600003 Z "/>
</symbol>
<symbol id="font_6_3">
<path d="M .37800003 .24000003 C .402 .24000003 .41000004 .24000003 .41000004 .30300004 C .41000004 .41700004 .33400003 .45900003 .254 .45900003 C .117 .45900003 0 .32700003 0 .19400002 C 0 .081 .08499999 0 .194 0 C .32000003 0 .38500003 .113000009 .38500003 .13000001 C .38500003 .13700001 .38000003 .143 .37100003 .143 C .36200003 .143 .36 .13800001 .356 .13100001 C .317 .053000004 .245 .028 .20000002 .028 C .14500001 .028 .083000008 .065000008 .083000008 .16500002 C .083000008 .18500002 .087 .22000002 .091000009 .24000003 L .37800003 .24000003 M .096 .26400004 C .128 .404 .213 .43400003 .25300003 .43400003 C .32700003 .43400003 .344 .367 .344 .31700004 C .344 .291 .33900003 .26500003 .33900003 .26400004 L .096 .26400004 Z "/>
</symbol>
<symbol id="font_6_1">
<path d="M .110000018 .061000006 C .110000018 .082 .09400001 .108 .062000008 .108 C .028000005 .108 0 .07700001 0 .047000003 C 0 .026 .016000003 0 .048000009 0 C .082 0 .110000018 .031000002 .110000018 .061000006 Z "/>
</symbol>
<use xlink:href="#font_6_5" transform="matrix(8.9664,0,0,-8.9664,156.41783,61.544008)" fill="#000080"/>
<use xlink:href="#font_6_3" transform="matrix(8.9664,0,0,-8.9664,161.77974,61.642637)" fill="#000080"/>
<use xlink:href="#font_6_8" transform="matrix(8.9664,0,0,-8.9664,165.59044,61.544008)" fill="#000080"/>
<use xlink:href="#font_6_3" transform="matrix(8.9664,0,0,-8.9664,169.48186,61.642637)" fill="#000080"/>
<use xlink:href="#font_6_1" transform="matrix(8.9664,0,0,-8.9664,173.88437,61.544008)" fill="#000080"/>
<use xlink:href="#font_3_2" transform="matrix(8.9664,0,0,-8.9664,15.275522,128.328)" fill="#800000"/>
<use xlink:href="#font_4_1" transform="matrix(8.9664,0,0,-8.9664,22.95061,130.56064)" fill="#800000"/>
<use xlink:href="#font_3_3" transform="matrix(8.9664,0,0,-8.9664,25.897994,128.42664)" fill="#800000"/>
<use xlink:href="#font_3_1" transform="matrix(8.9664,0,0,-8.9664,31.645455,130.05852)" fill="#800000"/>
<use xlink:href="#font_3_4" transform="matrix(8.9664,0,0,-8.9664,35.21408,130.16613)" fill="#800000"/>
<symbol id="font_4_4">
<path d="M .411 .177 L .38300003 .177 C .381 .164 .37300004 .105000007 .36 .089 C .35400004 .080000009 .28500004 .080000009 .26500003 .080000009 L .08700001 .080000009 L .18600002 .17400001 C .35000003 .316 .411 .36900003 .411 .47100003 C .411 .586 .316 .666 .19300002 .666 C .07800001 .666 0 .57500007 0 .48400004 C 0 .43400003 .043 .42900003 .052000006 .42900003 C .074 .42900003 .104 .44500003 .104 .48100005 C .104 .51100006 .083000008 .53300008 .052000006 .53300008 C .047000003 .53300008 .044000005 .53300008 .040000004 .532 C .063999999 .60300007 .128 .63500007 .18200001 .63500007 C .284 .63500007 .319 .54 .319 .47100003 C .319 .36900003 .24200002 .286 .194 .23400001 L .011 .036000004 C 0 .025 0 .023000002 0 0 L .38300003 0 L .411 .177 Z "/>
</symbol>
<use xlink:href="#font_4_2" transform="matrix(8.9664,0,0,-8.9664,40.32805,130.56064)" fill="#800000"/>
<use xlink:href="#font_4_7" transform="matrix(8.9664,0,0,-8.9664,46.461069,127.18927)" fill="#800000"/>
<use xlink:href="#font_4_4" transform="matrix(8.9664,0,0,-8.9664,56.135816,128.328)" fill="#800000"/>
<use xlink:href="#font_3_3" transform="matrix(8.9664,0,0,-8.9664,60.555994,128.42664)" fill="#800000"/>
<use xlink:href="#font_6_4" transform="matrix(8.9664,0,0,-8.9664,5.1177909,139.459)" fill="#800000"/>
<use xlink:href="#font_6_7" transform="matrix(8.9664,0,0,-8.9664,8.1574,139.55764)" fill="#800000"/>
<use xlink:href="#font_6_8" transform="matrix(8.9664,0,0,-8.9664,12.488172,139.459)" fill="#800000"/>
<use xlink:href="#font_6_2" transform="matrix(8.9664,0,0,-8.9664,19.419199,139.55764)" fill="#800000"/>
<use xlink:href="#font_6_6" transform="matrix(8.9664,0,0,-8.9664,23.830668,139.459)" fill="#800000"/>
<use xlink:href="#font_6_6" transform="matrix(8.9664,0,0,-8.9664,26.395058,139.459)" fill="#800000"/>
<use xlink:href="#font_4_1" transform="matrix(8.9664,0,0,-8.9664,32.599607,141.69164)" fill="#800000"/>
<use xlink:href="#font_3_3" transform="matrix(8.9664,0,0,-8.9664,35.546995,139.55764)" fill="#800000"/>
<use xlink:href="#font_3_1" transform="matrix(8.9664,0,0,-8.9664,41.294454,141.18952)" fill="#800000"/>
<use xlink:href="#font_3_4" transform="matrix(8.9664,0,0,-8.9664,44.86308,141.29712)" fill="#800000"/>
<use xlink:href="#font_4_2" transform="matrix(8.9664,0,0,-8.9664,49.97805,141.69164)" fill="#800000"/>
<use xlink:href="#font_6_5" transform="matrix(8.9664,0,0,-8.9664,56.426824,139.459)" fill="#800000"/>
<use xlink:href="#font_6_3" transform="matrix(8.9664,0,0,-8.9664,61.78873,139.55764)" fill="#800000"/>
<use xlink:href="#font_6_8" transform="matrix(8.9664,0,0,-8.9664,65.59945,139.459)" fill="#800000"/>
<use xlink:href="#font_6_3" transform="matrix(8.9664,0,0,-8.9664,69.49087,139.55764)" fill="#800000"/>
<use xlink:href="#font_6_1" transform="matrix(8.9664,0,0,-8.9664,73.893367,139.459)" fill="#800000"/>
</g>
<symbol id="font_7_1">
<path d="M .589 0 C .607 0 .626 0 .626 .022 C .626 .042999999 .606 .042999999 .589 .042999999 L .037 .042999999 C .020000004 .042999999 0 .042999999 0 .022 C 0 0 .019000002 0 .037 0 L .589 0 Z "/>
</symbol>
<use xlink:href="#font_7_1" transform="matrix(8.9664,0,0,-8.9664,20.79411,103.709697)"/>
<use xlink:href="#font_4_4" transform="matrix(8.9664,0,0,-8.9664,27.648287,105.763)"/>
<use xlink:href="#font_7_1" transform="matrix(8.9664,0,0,-8.9664,49.363115,103.709697)"/>
<symbol id="font_4_3">
<path d="M .21100003 .63900008 C .21100003 .66400006 .21000001 .666 .18500003 .666 C .123 .60200008 .031000004 .60200008 0 .60200008 L 0 .57100006 C .019000002 .57100006 .080000009 .57100006 .134 .597 L .134 .080000009 C .134 .043 .13100001 .031000002 .03800001 .031000002 L .0060000049 .031000002 L .0060000049 0 C .042000005 .003 .13100001 .003 .17200002 .003 C .21300003 .003 .30300004 .003 .33900003 0 L .33900003 .031000002 L .307 .031000002 C .21400002 .031000002 .21100003 .043 .21100003 .080000009 L .21100003 .63900008 Z "/>
</symbol>
<use xlink:href="#font_4_3" transform="matrix(8.9664,0,0,-8.9664,56.593877,105.763)"/>
<use xlink:href="#font_4_3" transform="matrix(8.9664,0,0,-8.9664,110.14687,105.763)"/>
<use xlink:href="#font_4_4" transform="matrix(8.9664,0,0,-8.9664,138.3393,105.763)"/>
<symbol id="font_4_5">
<path d="M .262 .37400005 C .35500003 .40900005 .39900003 .48200003 .39900003 .55100008 C .39900003 .628 .314 .688 .21000003 .688 C .106000009 .688 .028 .62900009 .028 .55300006 C .028 .52000007 .05 .50100007 .07900001 .50100007 C .10800001 .50100007 .12900001 .522 .12900001 .55100008 C .12900001 .586 .105000007 .6010001 .07100001 .6010001 C .097 .64300009 .158 .66300007 .207 .66300007 C .29 .66300007 .306 .59700009 .306 .55 C .306 .52000007 .3 .47200004 .275 .43400005 C .244 .38900004 .209 .38700003 .18 .38500003 C .15500002 .38300006 .15300001 .38300006 .14500001 .38300006 C .136 .38200004 .128 .38100005 .128 .37000004 C .128 .35700003 .136 .35700003 .15300001 .35700003 L .20000002 .35700003 C .287 .35700003 .32500003 .28700004 .32500003 .192 C .32500003 .064 .257 .028 .20600002 .028 C .187 .028 .09 .033000005 .045000007 .107 C .081 .102000009 .10900001 .127 .10900001 .16100002 C .10900001 .194 .08400001 .215 .055000005 .215 C .030000005 .215 0 .2 0 .158 C 0 .069000009 .09300001 0 .209 0 C .334 0 .42700003 .09 .42700003 .192 C .42700003 .279 .358 .35300005 .262 .37400005 Z "/>
</symbol>
<use xlink:href="#font_4_5" transform="matrix(8.9664,0,0,-8.9664,166.83657,105.96026)"/>
<use xlink:href="#font_7_1" transform="matrix(8.9664,0,0,-8.9664,66.64811,148.4867)"/>
<use xlink:href="#font_4_4" transform="matrix(8.9664,0,0,-8.9664,73.50128,150.54)"/>
<use xlink:href="#font_7_1" transform="matrix(8.9664,0,0,-8.9664,66.64811,120.6597)"/>
<use xlink:href="#font_4_3" transform="matrix(8.9664,0,0,-8.9664,73.87788,122.713008)"/>
<use xlink:href="#font_4_3" transform="matrix(8.9664,0,0,-8.9664,73.87788,67.060009)"/>
<use xlink:href="#font_4_4" transform="matrix(8.9664,0,0,-8.9664,73.50128,39.233)"/>
<path transform="matrix(1,0,0,-1,.199,173.392)" d="M 56.27379 108.52496 C 56.27379 109.62544 55.38171 110.51752 54.28123 110.51752 C 53.18077 110.51752 52.28868 109.62544 52.28868 108.52496 C 52.28868 107.4245 53.18077 106.53241 54.28123 106.53241 C 55.38171 106.53241 56.27379 107.4245 56.27379 108.52496 Z M 54.28123 108.52496 " fill="#800000"/>
<path transform="matrix(1,0,0,-1,.199,173.392)" stroke-width="1" stroke-linecap="butt" stroke-miterlimit="10" stroke-linejoin="miter" fill="none" stroke="#800000" d="M 56.27379 108.52496 C 56.27379 109.62544 55.38171 110.51752 54.28123 110.51752 C 53.18077 110.51752 52.28868 109.62544 52.28868 108.52496 C 52.28868 107.4245 53.18077 106.53241 54.28123 106.53241 C 55.38171 106.53241 56.27379 107.4245 56.27379 108.52496 Z M 54.28123 108.52496 "/>
<use xlink:href="#font_3_3" transform="matrix(8.9664,0,0,-8.9664,198.03801,94.679637)"/>
<use xlink:href="#font_3_4" transform="matrix(8.9664,0,0,-8.9664,80.89502,8.770103)"/>
<path transform="matrix(1,0,0,-1,.199,173.392)" stroke-width="1" stroke-linecap="butt" stroke-miterlimit="10" stroke-linejoin="miter" fill="none" stroke="#808080" d="M 25.71216 78.57182 L 25.71216 82.82426 M 54.28123 78.57182 L 54.28123 82.82426 M 111.4194 78.57182 L 111.4194 82.82426 M 139.98848 78.57182 L 139.98848 82.82426 M 168.55756 78.57182 L 168.55756 82.82426 "/>
<path transform="matrix(1,0,0,-1,.199,173.392)" stroke-width="1" stroke-linecap="butt" stroke-miterlimit="10" stroke-linejoin="miter" fill="none" stroke="#808080" d="M 80.72437 25.04422 L 84.97626 25.04422 M 80.72437 52.87114 L 84.97626 52.87114 M 80.72437 108.52496 L 84.97626 108.52496 M 80.72437 136.35189 L 84.97626 136.35189 "/>
<path transform="matrix(1,0,0,-1,.199,173.392)" stroke-width="1" stroke-linecap="butt" stroke-miterlimit="10" stroke-linejoin="miter" fill="none" stroke="#000000" d="M 0 80.69806 L 192.2772 80.69806 "/>
<path transform="matrix(1,0,0,-1,192.47621,92.69394)" d="M 1.99252 0 L -1.19551 1.59401 L 0 0 L -1.19551 -1.59401 "/>
<path transform="matrix(1,0,0,-1,.199,173.392)" stroke-width="1" stroke-linecap="butt" stroke-miterlimit="10" stroke-linejoin="miter" fill="none" stroke="#000000" d="M 82.85031 0 L 82.85031 159.4036 "/>
<path transform="matrix(0,-1,-1,-0,83.04931,13.988403)" d="M 1.99252 0 L -1.19551 1.59401 L 0 0 L -1.19551 -1.59401 "/>
</svg>
