<?xml version="1.0" encoding="UTF-8" standalone="no"?>
<!DOCTYPE svg PUBLIC "-//W3C//DTD SVG 1.1//EN" "http://www.w3.org/Graphics/SVG/1.1/DTD/svg11.dtd">
<svg xmlns="http://www.w3.org/2000/svg" xmlns:xlink="http://www.w3.org/1999/xlink" version="1.1" width="202.501pt" height="143.591pt" viewBox="0 0 202.501 143.591">
<path transform="matrix(1,0,0,-1,8.959,137.215)" stroke-width="1" stroke-linecap="butt" stroke-miterlimit="10" stroke-linejoin="miter" fill="none" stroke="#8c8c8c" d="M 0 0 L 0 125.24301 M 22.74216 0 L 22.74216 125.24301 M 45.48431 0 L 45.48431 125.24301 M 90.96863 0 L 90.96863 125.24301 M 113.71078 0 L 113.71078 125.24301 M 136.45296 0 L 136.45296 125.24301 M 159.19512 0 L 159.19512 125.24301 M 181.93727 0 L 181.93727 125.24301 "/>
<path transform="matrix(1,0,0,-1,8.959,137.215)" stroke-width="1" stroke-linecap="butt" stroke-miterlimit="10" stroke-linejoin="miter" fill="none" stroke="#8c8c8c" d="M 0 0 L 181.93727 0 M 0 20.87383 L 181.93727 20.87383 M 0 41.74767 L 181.93727 41.74767 M 0 83.49535 L 181.93727 83.49535 M 0 104.36917 L 181.93727 104.36917 M 0 125.24301 L 181.93727 125.24301 "/>
<path transform="matrix(1,0,0,-1,8.959,137.215)" stroke-width="1" stroke-linecap="butt" stroke-miterlimit="10" stroke-linejoin="miter" fill="none" stroke="#808080" d="M 0 60.49551 L 0 64.74747 M 22.74216 60.49551 L 22.74216 64.74747 M 45.48431 60.49551 L 45.48431 64.74747 M 90.96863 60.49551 L 90.96863 64.74747 M 113.71078 60.49551 L 113.71078 64.74747 M 136.45296 60.49551 L 136.45296 64.74747 M 159.19512 60.49551 L 159.19512 64.74747 M 181.93727 60.49551 L 181.93727 64.74747 "/>
<path transform="matrix(1,0,0,-1,8.959,137.215)" stroke-width="1" stroke-linecap="butt" stroke-miterlimit="10" stroke-linejoin="miter" fill="none" stroke="#808080" d="M 66.10054 0 L 70.35239 0 M 66.10054 20.87383 L 70.35239 20.87383 M 66.10054 41.74767 L 70.35239 41.74767 M 66.10054 83.49535 L 70.35239 83.49535 M 66.10054 104.36917 L 70.35239 104.36917 M 66.10054 125.24301 L 70.35239 125.24301 "/>
<path transform="matrix(1,0,0,-1,8.959,137.215)" stroke-width="1" stroke-linecap="butt" stroke-miterlimit="10" stroke-linejoin="miter" fill="none" stroke="#404040" d="M 0 62.6215 L 179.94475 62.6215 "/>
<path transform="matrix(1,0,0,-1,188.90375,74.5935)" d="M 1.99252 0 L -1.19551 1.59401 L 0 0 L -1.19551 -1.59401 " fill="#404040"/>
<path transform="matrix(1,0,0,-1,8.959,137.215)" stroke-width="1" stroke-linecap="butt" stroke-miterlimit="10" stroke-linejoin="miter" fill="none" stroke="#404040" d="M 68.22647 0 L 68.22647 123.25049 "/>
<path transform="matrix(0,-1,-1,-0,77.18547,13.964508)" d="M 1.99252 0 L -1.19551 1.59401 L 0 0 L -1.19551 -1.59401 " fill="#404040"/>
<symbol id="font_0_1">
<path d="M .589 0 C .607 0 .626 0 .626 .022 C .626 .042999999 .606 .042999999 .589 .042999999 L .037 .042999999 C .020000004 .042999999 0 .042999999 0 .022 C 0 0 .019000002 0 .037 0 L .589 0 Z "/>
</symbol>
<use xlink:href="#font_0_1" transform="matrix(8.9664,0,0,-8.9664,3.8421102,83.7167)" fill="#404040"/>
<symbol id="font_1_5">
<path d="M .262 .37400005 C .35500003 .40900005 .39900003 .48200003 .39900003 .55100008 C .39900003 .628 .314 .688 .21000003 .688 C .106000009 .688 .028 .62900009 .028 .55300006 C .028 .52000007 .05 .50100007 .07900001 .50100007 C .10800001 .50100007 .12900001 .522 .12900001 .55100008 C .12900001 .586 .105000007 .6010001 .07100001 .6010001 C .097 .64300009 .158 .66300007 .207 .66300007 C .29 .66300007 .306 .59700009 .306 .55 C .306 .52000007 .3 .47200004 .275 .43400005 C .244 .38900004 .209 .38700003 .18 .38500003 C .15500002 .38300006 .15300001 .38300006 .14500001 .38300006 C .136 .38200004 .128 .38100005 .128 .37000004 C .128 .35700003 .136 .35700003 .15300001 .35700003 L .20000002 .35700003 C .287 .35700003 .32500003 .28700004 .32500003 .192 C .32500003 .064 .257 .028 .20600002 .028 C .187 .028 .09 .033000005 .045000007 .107 C .081 .102000009 .10900001 .127 .10900001 .16100002 C .10900001 .194 .08400001 .215 .055000005 .215 C .030000005 .215 0 .2 0 .158 C 0 .069000009 .09300001 0 .209 0 C .334 0 .42700003 .09 .42700003 .192 C .42700003 .279 .358 .35300005 .262 .37400005 Z "/>
</symbol>
<use xlink:href="#font_1_5" transform="matrix(8.9664,0,0,-8.9664,10.624556,85.96726)" fill="#404040"/>
<use xlink:href="#font_0_1" transform="matrix(8.9664,0,0,-8.9664,26.58411,83.7167)" fill="#404040"/>
<symbol id="font_1_4">
<path d="M .411 .177 L .38300003 .177 C .381 .164 .37300004 .105000007 .36 .089 C .35400004 .080000009 .28500004 .080000009 .26500003 .080000009 L .08700001 .080000009 L .18600002 .17400001 C .35000003 .316 .411 .36900003 .411 .47100003 C .411 .586 .316 .666 .19300002 .666 C .07800001 .666 0 .57500007 0 .48400004 C 0 .43400003 .043 .42900003 .052000006 .42900003 C .074 .42900003 .104 .44500003 .104 .48100005 C .104 .51100006 .083000008 .53300008 .052000006 .53300008 C .047000003 .53300008 .044000005 .53300008 .040000004 .532 C .063999999 .60300007 .128 .63500007 .18200001 .63500007 C .284 .63500007 .319 .54 .319 .47100003 C .319 .36900003 .24200002 .286 .194 .23400001 L .011 .036000004 C 0 .025 0 .023000002 0 0 L .38300003 0 L .411 .177 Z "/>
</symbol>
<use xlink:href="#font_1_4" transform="matrix(8.9664,0,0,-8.9664,33.438287,85.770008)" fill="#404040"/>
<use xlink:href="#font_0_1" transform="matrix(8.9664,0,0,-8.9664,49.32611,83.7167)" fill="#404040"/>
<symbol id="font_1_3">
<path d="M .21100003 .63900008 C .21100003 .66400006 .21000001 .666 .18500003 .666 C .123 .60200008 .031000004 .60200008 0 .60200008 L 0 .57100006 C .019000002 .57100006 .080000009 .57100006 .134 .597 L .134 .080000009 C .134 .043 .13100001 .031000002 .03800001 .031000002 L .0060000049 .031000002 L .0060000049 0 C .042000005 .003 .13100001 .003 .17200002 .003 C .21300003 .003 .30300004 .003 .33900003 0 L .33900003 .031000002 L .307 .031000002 C .21400002 .031000002 .21100003 .043 .21100003 .080000009 L .21100003 .63900008 Z "/>
</symbol>
<use xlink:href="#font_1_3" transform="matrix(8.9664,0,0,-8.9664,56.556875,85.770008)" fill="#404040"/>
<use xlink:href="#font_1_3" transform="matrix(8.9664,0,0,-8.9664,98.45688,85.770008)" fill="#404040"/>
<use xlink:href="#font_1_4" transform="matrix(8.9664,0,0,-8.9664,120.82228,85.770008)" fill="#404040"/>
<use xlink:href="#font_1_5" transform="matrix(8.9664,0,0,-8.9664,143.49156,85.96726)" fill="#404040"/>
<symbol id="font_1_6">
<path d="M 0 .19600001 L 0 .165 L .273 .165 L .273 .079 C .273 .042000005 .27 .031000002 .19500001 .031000002 L .17300001 .031000002 L .17300001 0 C .23600002 .003 .306 .003 .313 .003 C .318 .003 .39000003 .003 .453 0 L .453 .031000002 L .431 .031000002 C .356 .031000002 .35300002 .042000005 .35300002 .079 L .35300002 .165 L .455 .165 L .455 .19600001 L .35300002 .19600001 L .35300002 .65000006 C .35300002 .67 .35300002 .67700007 .334 .67700007 C .322 .67700007 .321 .67600008 .312 .66200008 L 0 .19600001 M .032000007 .19600001 L .279 .56600007 L .279 .19600001 L .032000007 .19600001 Z "/>
</symbol>
<use xlink:href="#font_1_6" transform="matrix(8.9664,0,0,-8.9664,166.10803,85.770008)" fill="#404040"/>
<symbol id="font_1_7">
<path d="M .053 .36700005 C .053 .34900005 .053 .33800004 .067 .33800004 C .075 .33800004 .07800001 .34200005 .08400001 .35100005 C .11400001 .39300005 .16200002 .41700004 .21400002 .41700004 C .321 .41700004 .321 .263 .321 .22700002 C .321 .19600001 .321 .134 .293 .089 C .266 .047000003 .224 .028 .18500002 .028 C .126 .028 .059000005 .065000008 .035 .13900002 C .036000004 .13900002 .042 .13700001 .049 .13700001 C .069000009 .13700001 .098000008 .15 .098000008 .186 C .098000008 .21700001 .076000008 .23500002 .049 .23500002 C .028 .23500002 0 .223 0 .18300002 C 0 .092 .076000008 0 .187 0 C .30800004 0 .411 .098000008 .411 .222 C .411 .34300003 .32500003 .44200004 .21600002 .44200004 C .16800002 .44200004 .119 .42600004 .08400001 .39000006 L .08400001 .587 C .11400001 .57800009 .14500001 .573 .17600002 .573 C .29900003 .573 .37100003 .66200008 .37100003 .6750001 C .37100003 .6840001 .365 .688 .36 .688 C .358 .688 .356 .688 .34700004 .683 C .3 .66400006 .254 .656 .21200001 .656 C .16900002 .656 .12400001 .66400006 .07800001 .683 C .068 .688 .066 .688 .065 .688 C .053 .688 .053 .67800006 .053 .6610001 L .053 .36700005 Z "/>
</symbol>
<use xlink:href="#font_1_7" transform="matrix(8.9664,0,0,-8.9664,189.04729,85.96726)" fill="#404040"/>
<use xlink:href="#font_0_1" transform="matrix(8.9664,0,0,-8.9664,60.78411,137.6357)" fill="#404040"/>
<use xlink:href="#font_1_5" transform="matrix(8.9664,0,0,-8.9664,67.56555,139.88626)" fill="#404040"/>
<use xlink:href="#font_0_1" transform="matrix(8.9664,0,0,-8.9664,60.78411,116.76268)" fill="#404040"/>
<use xlink:href="#font_1_4" transform="matrix(8.9664,0,0,-8.9664,67.63728,118.81599)" fill="#404040"/>
<use xlink:href="#font_0_1" transform="matrix(8.9664,0,0,-8.9664,60.78411,95.888698)" fill="#404040"/>
<use xlink:href="#font_1_3" transform="matrix(8.9664,0,0,-8.9664,68.01388,97.942)" fill="#404040"/>
<use xlink:href="#font_1_3" transform="matrix(8.9664,0,0,-8.9664,68.01388,56.61)" fill="#404040"/>
<use xlink:href="#font_1_4" transform="matrix(8.9664,0,0,-8.9664,67.63728,35.737009)" fill="#404040"/>
<use xlink:href="#font_1_5" transform="matrix(8.9664,0,0,-8.9664,67.56555,15.060267)" fill="#404040"/>
<path transform="matrix(1,0,0,-1,8.959,137.215)" stroke-width="1.19553" stroke-linecap="butt" stroke-miterlimit="10" stroke-linejoin="miter" fill="none" stroke="#000080" d="M 68.22647 62.6215 L 25.10008 102.205 "/>
<path transform="matrix(-.73961,-.67883,-.67883,.73961,34.059083,35.01001)" d="M 3.18808 0 L -1.91284 2.55046 L 0 0 L -1.91284 -2.55046 " fill="#000080"/>
<path transform="matrix(1,0,0,-1,8.959,137.215)" stroke-width="1.19553" stroke-linecap="butt" stroke-miterlimit="10" stroke-linejoin="miter" fill="none" stroke="#800000" d="M 68.22647 62.6215 L 156.28783 103.03491 "/>
<path transform="matrix(.91193,-.41852,-.41852,-.91193,165.24681,34.1801)" d="M 3.18808 0 L -1.91284 2.55046 L 0 0 L -1.91284 -2.55046 " fill="#800000"/>
<path transform="matrix(1,0,0,-1,8.959,137.215)" stroke-width="1.59404" stroke-linecap="butt" stroke-miterlimit="10" stroke-linejoin="miter" fill="none" stroke="#800080" d="M 68.22647 62.6215 L 88.16861 44.31761 "/>
<path transform="matrix(.73961,.67883,.67883,-.73961,97.12761,92.89737)" d="M 3.78581 0 L -2.27148 3.02866 L 0 0 L -2.27148 -3.02866 " fill="#800080"/>
<path transform="matrix(1,0,0,-1,8.959,137.215)" stroke-width="1" stroke-linecap="butt" stroke-dasharray="2.98883,2.98883" stroke-miterlimit="10" stroke-linejoin="miter" fill="none" stroke="#000000" d="M 90.96863 41.74767 L 159.19512 104.36917 "/>
<symbol id="font_2_1">
<path d="M 1.1610001 0 C 1.1840001 0 1.1990001 0 1.1990001 .031000004 C 1.1990001 .045 1.1990001 .054000006 1.182 .06199999 C 1.0430001 .124 .9710001 .20400001 .9130001 .29900003 C .906 .31199999 .90000006 .31199999 .87600007 .31199999 C .85700008 .31199999 .8370001 .31199999 .8370001 .28899998 C .8370001 .277 .87000009 .219 .9080001 .172 C .9430001 .129 .96800008 .107999999 1.0020001 .07900001 L .052999997 .07900001 C .038999998 .07900001 0 .07900001 0 .040000008 C 0 0 .037999996 0 .052999997 0 L 1.1610001 0 Z "/>
</symbol>
<use xlink:href="#font_2_1" transform="matrix(5.9776,0,0,-5.9776,50.858896,59.225736)" fill="#000080"/>
<symbol id="font_3_1">
<path d="M .45100004 .30400003 C .45100004 .39200003 .37900005 .45900003 .22500003 .45900003 C .16800002 .45900003 .040000008 .45700006 .040000008 .36500005 C .040000008 .32000003 .07400001 .29900003 .10500001 .29900003 C .139 .29900003 .17000002 .323 .17000002 .36400003 C .17000002 .39300005 .153 .41000004 .15 .41300003 C .16 .41500003 .18400002 .41900004 .22100002 .41900004 C .293 .41900004 .33400003 .38300003 .33400003 .30400003 L .33400003 .272 C .16800002 .272 0 .229 0 .118 C 0 .019000002 .125 0 .197 0 C .27300004 0 .32500003 .033 .35200004 .08 C .35200004 .054 .35200004 .006 .45900003 .006 L .508 .006 C .527 .006 .541 .006 .541 .031 C .541 .055000005 .52500006 .055000005 .51500007 .055000005 C .45100004 .056 .45100004 .066 .45100004 .09 L .45100004 .30400003 M .33400003 .14500001 C .33400003 .040000004 .21800003 .040000004 .21400002 .040000004 C .16300002 .040000004 .121000017 .073 .121000017 .118 C .121000017 .15100001 .139 .229 .33400003 .238 L .33400003 .14500001 Z "/>
</symbol>
<use xlink:href="#font_3_1" transform="matrix(8.9664,0,0,-8.9664,52.159894,66.3188)" fill="#000080"/>
<use xlink:href="#font_2_1" transform="matrix(5.9776,0,0,-5.9776,119.0849,41.168729)" fill="#800000"/>
<symbol id="font_3_2">
<path d="M .17900002 .7 L 0 .69200006 L 0 .643 C .060000004 .643 .068 .643 .068 .60400006 L .068 .006 L .11900001 .006 L .16600001 .063 C .19800002 .031 .24700001 0 .31800003 0 C .47400005 0 .57600006 .094000007 .57600006 .22800002 C .57600006 .36300005 .47900004 .45600004 .331 .45600004 C .25100003 .45600004 .19800002 .42200003 .17900002 .40800003 L .17900002 .7 M .185 .35200004 C .21000001 .38400004 .25800003 .41600005 .319 .41600005 C .44300003 .41600005 .44300003 .29600004 .44300003 .23 C .44300003 .18800001 .44300003 .136 .42200003 .1 C .389 .044000005 .328 .040000004 .308 .040000004 C .24599999 .040000004 .206 .078 .185 .11 L .185 .35200004 Z "/>
</symbol>
<use xlink:href="#font_3_2" transform="matrix(8.9664,0,0,-8.9664,120.08862,50.503797)" fill="#800000"/>
<symbol id="font_3_5">
<path d="M .253 .048999996 L .185 .048999996 L .185 .23300001 C .24400002 .18800001 .299 .18800001 .31800003 .18800001 C .47500003 .18800001 .57600006 .283 .57600006 .416 C .57600006 .548 .485 .64400008 .33400003 .64400008 C .253 .64400008 .19800002 .61 .17900002 .596 L .17900002 .64400008 L 0 .63600006 L 0 .587 C .020000004 .587 .036000007 .587 .049000004 .584 C .068 .58100005 .068 .57000008 .068 .549 L .068 .048999996 L 0 .048999996 L 0 0 C .074 .0029999912 .086 .0029999912 .12600002 .0029999912 C .167 .0029999912 .17700002 .0029999912 .253 0 L .253 .048999996 M .185 .53900006 C .20300001 .561 .25 .601 .31800003 .601 C .388 .601 .44300003 .53900006 .44300003 .417 C .44300003 .278 .372 .22800002 .306 .22800002 C .255 .22800002 .21200001 .257 .185 .298 L .185 .53900006 Z "/>
</symbol>
<symbol id="font_3_6">
<path d="M .17900002 .21800001 C .17900002 .291 .206 .407 .303 .41000004 C .292 .39900003 .287 .38200004 .287 .36600004 C .287 .32200004 .322 .30200003 .35000003 .30200003 C .382 .30200003 .414 .324 .414 .36600004 C .414 .41700004 .36200003 .45000003 .303 .45000003 C .23300001 .45000003 .19 .39900003 .16800002 .34100003 L .167 .34100003 L .167 .45000003 L 0 .44200004 L 0 .393 C .060000004 .393 .068 .393 .068 .354 L .068 .049000004 L 0 .049000004 L 0 0 C .074 .003 .080000009 .003 .12800002 .003 C .153 .003 .211 .003 .264 0 L .264 .049000004 L .17900002 .049000004 L .17900002 .21800001 Z "/>
</symbol>
<symbol id="font_3_4">
<path d="M .52500006 .224 C .52500006 .35500003 .43300004 .45900003 .263 .45900003 C .087000008 .45900003 0 .35000003 0 .224 C 0 .1 .09 0 .26200003 0 C .44100005 0 .52500006 .105000007 .52500006 .224 M .263 .043 C .13300002 .043 .13300002 .148 .13300002 .23500002 C .13300002 .31900005 .13300002 .41900004 .26200003 .41900004 C .39200003 .41900004 .39200003 .31900005 .39200003 .23500002 C .39200003 .149 .39200003 .043 .263 .043 Z "/>
</symbol>
<symbol id="font_3_3">
<path d="M .333 .81600007 C .333 .86200007 .296 .89500007 .25500003 .89500007 C .21000001 .89500007 .17600002 .85800006 .17600002 .81700006 C .17600002 .771 .213 .73800006 .254 .73800006 C .29900003 .73800006 .333 .77500006 .333 .81600007 M .147 .642 L .147 .593 C .214 .593 .222 .593 .222 .55300006 L .222 .16 C .222 .105 .20300001 .03999999 .14500001 .03999999 C .13800001 .03999999 .11 .041999997 .11 .045 C .11 .04599999 .111 .04699999 .112 .047999994 C .124 .060000004 .13000001 .076 .13000001 .094 C .13000001 .133 .101 .15900001 .065000008 .15900001 C .029000001 .15900001 0 .133 0 .094 C 0 .030000002 .069000009 0 .147 0 C .23300001 0 .333 .051 .333 .161 L .333 .65000006 L .147 .642 Z "/>
</symbol>
<use xlink:href="#font_3_5" transform="matrix(8.9664,0,0,-8.9664,42.733625,101.55648)" fill="#800080"/>
<use xlink:href="#font_3_6" transform="matrix(8.9664,0,0,-8.9664,48.62455,99.817)" fill="#800080"/>
<use xlink:href="#font_3_4" transform="matrix(8.9664,0,0,-8.9664,52.92842,99.8708)" fill="#800080"/>
<use xlink:href="#font_3_3" transform="matrix(8.9664,0,0,-8.9664,58.01237,101.61028)" fill="#800080"/>
<symbol id="font_4_1">
<path d="M 1.2490001 0 C 1.273 0 1.289 0 1.289 .033999996 C 1.289 .044999988 1.289 .060000004 1.273 .065999988 C 1.229 .08500001 1.176 .10699999 1.1060001 .164 C 1.041 .21700001 1.008 .266 .985 .301 C .97300007 .31800003 .969 .31800003 .94200006 .31800003 C .9250001 .31800003 .89900007 .31800003 .89900007 .29299999 C .89900007 .275 .972 .15900001 1.069 .085999999 L .05600001 .085999999 C .042999999 .085999999 0 .085999999 0 .042999984 C 0 0 .042999999 0 .05600001 0 L 1.2490001 0 Z "/>
</symbol>
<use xlink:href="#font_4_1" transform="matrix(4.9813,0,0,-4.9813,62.335889,98.67488)" fill="#800080"/>
<symbol id="font_5_1">
<path d="M .512 .29900003 C .512 .388 .43800003 .462 .25300003 .462 C .18800003 .462 .045 .462 .045 .358 C .045 .30900003 .084 .28500004 .117000009 .28500004 C .153 .28500004 .18900001 .312 .18900001 .35700003 C .18900001 .372 .185 .386 .17700002 .39900003 C .176 .40100003 .17500001 .402 .17500001 .40300004 C .17500001 .409 .24400002 .411 .25200004 .411 C .337 .411 .38200004 .37500004 .38200004 .298 L .38200004 .277 C .37500004 .27600003 .33900003 .277 .28300003 .273 C .23200003 .26900003 0 .25000004 0 .12500002 C 0 0 .19 0 .22200004 0 C .32200004 0 .37900005 .034 .40300004 .068 C .40900005 .012 .47000007 .007 .513 .007 L .579 .007 C .599 .007 .615 .007 .615 .037 C .615 .067 .601 .067 .575 .067 C .539 .067 .525 .07 .512 .078 L .512 .29900003 M .38200004 .142 C .38200004 .120000008 .38200004 .093 .33900003 .072000008 C .29900003 .051000004 .25200004 .051000004 .24300003 .051000004 C .17900002 .051000004 .12900001 .081 .12900001 .126 C .12900001 .184 .21200001 .207 .23500002 .21300002 C .256 .21900001 .29000003 .22800002 .38200004 .23200001 L .38200004 .142 Z "/>
</symbol>
<use xlink:href="#font_5_1" transform="matrix(5.9776,0,0,-5.9776,63.82691,103.600849)" fill="#800080"/>
<symbol id="font_1_1">
<path d="M .24000001 .011000007 C .24000001 .016000003 .23700002 .019000009 .231 .026000008 C .102000009 .14400001 .063 .324 .063 .499 C .063 .65400007 .093 .84200009 .234 .9760001 C .238 .98 .24000001 .98300006 .24000001 .98800006 C .24000001 .99500009 .23500002 .9990001 .22800002 .9990001 C .21599999 .9990001 .12600002 .92700007 .072000008 .818 C .023999997 .722 0 .619 0 .5 C 0 .42800004 .009000003 .314 .064 .19600001 C .123 .073 .21599999 0 .22800002 0 C .23500002 0 .24000001 .004000008 .24000001 .011000007 Z "/>
</symbol>
<use xlink:href="#font_1_1" transform="matrix(8.9664,0,0,-8.9664,70.73161,102.04964)" fill="#800080"/>
<use xlink:href="#font_2_1" transform="matrix(5.9776,0,0,-5.9776,73.9719,90.53573)" fill="#800080"/>
<use xlink:href="#font_3_2" transform="matrix(8.9664,0,0,-8.9664,74.975627,99.8708)" fill="#800080"/>
<symbol id="font_1_2">
<path d="M .24000001 .5 C .24000001 .582 .22800002 .69200006 .17600002 .80300006 C .11700001 .92600008 .024 .9990001 .011999998 .9990001 C .0020000004 .9990001 0 .99100008 0 .98800006 C 0 .98300006 .0020000004 .98 .009 .97300007 C .067 .92100009 .17700002 .785 .17700002 .5 C .17700002 .35700003 .15100001 .158 .006000001 .023000002 C .0040000008 .019999996 0 .016000003 0 .011000007 C 0 .008000001 .0020000004 0 .011999998 0 C .024 0 .11400001 .07200001 .16800002 .18100001 C .21600002 .277 .24000001 .38000003 .24000001 .5 Z "/>
</symbol>
<use xlink:href="#font_1_2" transform="matrix(8.9664,0,0,-8.9664,82.221057,102.04964)" fill="#800080"/>
<symbol id="font_6_1">
<path d="M .462 .41500003 C .425 .40800003 .41400004 .37600003 .41400004 .36100004 C .41400004 .34200005 .42800004 .32500003 .453 .32500003 C .48100005 .32500003 .508 .34900005 .508 .38400004 C .508 .43000005 .45800004 .45300005 .411 .45300005 C .351 .45300005 .316 .40000005 .30400003 .37900005 C .28500004 .42800004 .24100003 .45300005 .193 .45300005 C .086 .45300005 .028 .32500003 .028 .29900003 C .028 .29000003 .035000005 .28700004 .042000005 .28700004 C .051 .28700004 .054000006 .29200004 .056 .298 C .087000008 .397 .15300001 .42800004 .19100002 .42800004 C .22 .42800004 .24600002 .40900005 .24600002 .36200003 C .24600002 .32600004 .20300001 .16600001 .19000001 .11800001 C .18200001 .087000008 .15200001 .025000003 .097 .025000003 C .07700001 .025000003 .056 .032 .046000005 .038000004 C .07300001 .043 .093 .06600001 .093 .092 C .093 .117000009 .074 .128 .055 .128 C .026 .128 0 .10300001 0 .069000009 C 0 .020000002 .054000006 0 .096 0 C .15400002 0 .18800001 .048 .20300001 .075 C .22800002 .009000001 .287 0 .314 0 C .42200003 0 .479 .13000001 .479 .15400002 C .479 .15900001 .47600005 .16600001 .46600003 .16600001 C .455 .16600001 .45400004 .16200002 .44900004 .14700002 C .42700003 .075 .36900003 .025000003 .317 .025000003 C .28800003 .025000003 .261 .043 .261 .091000009 C .261 .113000009 .275 .16800002 .284 .20600002 C .28800003 .22400002 .31500004 .33200003 .317 .33900003 C .32900004 .37500004 .35900004 .42800004 .41000004 .42800004 C .42800004 .42800004 .44700004 .42500005 .462 .41500003 Z "/>
</symbol>
<use xlink:href="#font_6_1" transform="matrix(8.9664,0,0,-8.9664,194.47499,76.609638)" fill="#404040"/>
<symbol id="font_6_2">
<path d="M .47300003 .59000006 C .474 .595 .47599999 .6010001 .47599999 .607 C .47599999 .62 .467 .63600006 .44500003 .63600006 C .432 .63600006 .414 .628 .40600003 .609 C .405 .605 .395 .564 .389 .54200008 L .33900003 .342 C .331 .31300003 .331 .31100003 .329 .30200003 C .328 .298 .286 .21900001 .21400002 .21900001 C .15200001 .21900001 .15200001 .282 .15200001 .301 C .15200001 .34600003 .165 .39500005 .20800002 .507 C .216 .53000006 .22200002 .544 .22200002 .563 C .22200002 .612 .18500002 .6470001 .136 .6470001 C .040000008 .6470001 0 .505 0 .49300004 C 0 .48400004 .007000001 .48100005 .014 .48100005 C .025 .48100005 .026000003 .48700003 .030000003 .5 C .051000008 .574 .091000009 .62200006 .133 .62200006 C .157 .62200006 .157 .60300007 .157 .589 C .157 .572 .15300001 .554 .14400001 .53000006 C .097 .40600003 .08400001 .36400003 .08400001 .316 C .08400001 .20500002 .17400001 .194 .21100001 .194 C .26 .194 .295 .22000002 .313 .238 C .3 .187 .289 .14200002 .25 .09200001 C .22000002 .052 .18 .025000006 .136 .025000006 C .10800001 .025000006 .075 .03500001 .061000006 .06300001 C .11400001 .06300001 .12100001 .10700001 .12100001 .117000009 C .12100001 .13900002 .105000007 .15300001 .083000008 .15300001 C .059000009 .15300001 .027 .134 .027 .08800001 C .027 .036 .07300001 0 .136 0 C .23800002 0 .347 .087000008 .37600003 .20400001 L .47300003 .59000006 Z "/>
</symbol>
<use xlink:href="#font_6_2" transform="matrix(8.9664,0,0,-8.9664,75.02702,8.770103)" fill="#404040"/>
</svg>
