<?xml version="1.0" encoding="UTF-8" standalone="no"?>
<!DOCTYPE svg PUBLIC "-//W3C//DTD SVG 1.1//EN" "http://www.w3.org/Graphics/SVG/1.1/DTD/svg11.dtd">
<svg xmlns="http://www.w3.org/2000/svg" xmlns:xlink="http://www.w3.org/1999/xlink" version="1.1" width="216.518pt" height="181.43pt" viewBox="0 0 216.518 181.43">
<path transform="matrix(1,0,0,-1,9.686,174.484)" stroke-width="1" stroke-linecap="butt" stroke-miterlimit="10" stroke-linejoin="miter" fill="none" stroke="#808080" d="M 0 78.57219 L 0 82.82414 M 48.56728 78.57219 L 48.56728 82.82414 M 145.70183 78.57219 L 145.70183 82.82414 M 194.26912 78.57219 L 194.26912 82.82414 "/>
<path transform="matrix(1,0,0,-1,9.686,174.484)" stroke-width="1" stroke-linecap="butt" stroke-miterlimit="10" stroke-linejoin="miter" fill="none" stroke="#808080" d="M 95.00867 0 L 99.26042 0 M 95.00867 40.34909 L 99.26042 40.34909 M 95.00867 121.04727 L 99.26042 121.04727 M 95.00867 161.39636 L 99.26042 161.39636 "/>
<path transform="matrix(1,0,0,-1,9.686,174.484)" stroke-width="1" stroke-linecap="butt" stroke-miterlimit="10" stroke-linejoin="miter" fill="none" stroke="#800000" d="M 0 80.69818 L 192.2766 80.69818 "/>
<path transform="matrix(1,0,0,-1,201.9626,93.78581)" d="M 1.99252 0 L -1.19551 1.59401 L 0 0 L -1.19551 -1.59401 " fill="#800000"/>
<path transform="matrix(1,0,0,-1,9.686,174.484)" stroke-width="1" stroke-linecap="butt" stroke-miterlimit="10" stroke-linejoin="miter" fill="none" stroke="#800000" d="M 97.13455 0 L 97.13455 159.40384 "/>
<path transform="matrix(0,-1,-1,-0,106.82055,15.080154)" d="M 1.99252 0 L -1.19551 1.59401 L 0 0 L -1.19551 -1.59401 " fill="#800000"/>
<symbol id="font_0_1">
<path d="M .57600006 0 C .59300008 0 .611 0 .611 .019999996 C .611 .040000008 .59300008 .040000008 .57600006 .040000008 L .035000005 .040000008 C .018 .040000008 0 .040000008 0 .019999996 C 0 0 .018 0 .035000005 0 L .57600006 0 Z "/>
</symbol>
<use xlink:href="#font_0_1" transform="matrix(9.9626,0,0,-9.9626,4.147896,103.56159)" fill="#800000"/>
<symbol id="font_1_2">
<path d="M .07700001 .07700001 L .18300002 .18 C .33900003 .31800003 .39900003 .372 .39900003 .47200004 C .39900003 .586 .30900003 .666 .18700002 .666 C .074 .666 0 .574 0 .485 C 0 .42900003 .05 .42900003 .053000008 .42900003 C .07000001 .42900003 .105000007 .441 .105000007 .48200003 C .105000007 .508 .08700001 .53400006 .052000006 .53400006 C .044000005 .53400006 .042000008 .53400006 .039 .53300008 C .062000004 .59800007 .11600001 .63500007 .17400001 .63500007 C .26500003 .63500007 .308 .554 .308 .47200004 C .308 .39200003 .25800003 .31300003 .20300003 .25100003 L .011000004 .037 C 0 .026 0 .024 0 0 L .37100003 0 L .39900003 .17400001 L .374 .17400001 C .36900003 .14400001 .36200003 .1 .352 .085 C .345 .07700001 .279 .07700001 .257 .07700001 L .07700001 .07700001 Z "/>
</symbol>
<use xlink:href="#font_1_2" transform="matrix(9.9626,0,0,-9.9626,11.56713,105.85299)" fill="#800000"/>
<use xlink:href="#font_0_1" transform="matrix(9.9626,0,0,-9.9626,52.713899,103.56159)" fill="#800000"/>
<symbol id="font_1_1">
<path d="M .205 .64000007 C .205 .66400006 .205 .666 .18200003 .666 C .120000008 .60200008 .032000007 .60200008 0 .60200008 L 0 .57100006 C .020000004 .57100006 .07900001 .57100006 .13100001 .597 L .13100001 .079 C .13100001 .043 .128 .031000002 .038000004 .031000002 L .0060000049 .031000002 L .0060000049 0 C .04100001 .003 .128 .003 .168 .003 C .20800002 .003 .29500003 .003 .33000005 0 L .33000005 .031000002 L .29800005 .031000002 C .20800002 .031000002 .205 .042000005 .205 .079 L .205 .64000007 Z "/>
</symbol>
<use xlink:href="#font_1_1" transform="matrix(9.9626,0,0,-9.9626,60.522676,105.85299)" fill="#800000"/>
<use xlink:href="#font_1_1" transform="matrix(9.9626,0,0,-9.9626,153.78168,105.85299)" fill="#800000"/>
<use xlink:href="#font_1_2" transform="matrix(9.9626,0,0,-9.9626,201.96013,105.85299)" fill="#800000"/>
<use xlink:href="#font_0_1" transform="matrix(9.9626,0,0,-9.9626,89.2699,174.9876)" fill="#800000"/>
<use xlink:href="#font_1_2" transform="matrix(9.9626,0,0,-9.9626,96.69013,177.27899)" fill="#800000"/>
<use xlink:href="#font_0_1" transform="matrix(9.9626,0,0,-9.9626,89.2699,134.6396)" fill="#800000"/>
<use xlink:href="#font_1_1" transform="matrix(9.9626,0,0,-9.9626,97.078678,136.931)" fill="#800000"/>
<use xlink:href="#font_1_1" transform="matrix(9.9626,0,0,-9.9626,97.07867,56.648996)" fill="#800000"/>
<use xlink:href="#font_1_2" transform="matrix(9.9626,0,0,-9.9626,96.690128,16.299988)" fill="#800000"/>
<clipPath id="cp2">
<path transform="matrix(1,0,0,-1,9.686,174.484)" d="M 0 0 L 194.26912 0 L 194.26912 161.39636 L 0 161.39636 Z "/>
</clipPath>
<g clip-path="url(#cp2)">
<path transform="matrix(1,0,0,-1,9.686,174.484)" stroke-width="1.59404" stroke-linecap="butt" stroke-miterlimit="10" stroke-linejoin="miter" fill="none" stroke="#000000" d="M 48.56728 40.34909 C 48.56728 40.34909 48.6423 42.77844 48.7359 43.71149 C 48.82948 44.64455 49.05461 46.14084 49.2418 47.0739 C 49.42899 48.00694 49.80421 49.50327 50.08498 50.43631 C 50.36574 51.36937 50.89102 52.86566 51.26537 53.79872 C 51.63971 54.73177 52.31516 56.22807 52.7831 57.16112 C 53.25105 58.09418 54.07654 59.59048 54.63808 60.52354 C 55.19962 61.45659 56.17523 62.9529 56.83035 63.88594 C 57.48549 64.819 58.61118 66.3153 59.3599 67.24837 C 60.1086 68.18141 61.38435 69.67772 62.22665 70.61076 C 63.06897 71.54382 64.4948 73.04013 65.4307 73.97319 C 66.3666 74.90623 67.94255 76.40254 68.97203 77.33559 C 70.00153 78.26865 71.72765 79.76495 72.85066 80.69801 C 73.97366 81.63106 75.84944 83.12737 77.06606 84.06041 C 78.28267 84.99347 80.30899 86.48976 81.61923 87.42282 C 82.92947 88.35587 85.10562 89.85219 86.50948 90.78523 C 87.91333 91.71829 90.23975 93.21458 91.73726 94.14764 C 93.23477 95.08069 95.71153 96.57701 97.30258 97.51006 C 98.89363 98.44312 101.51991 99.9394 103.20448 100.87247 C 104.88907 101.80551 107.66568 103.30182 109.44392 104.23486 C 111.22218 105.16792 114.14905 106.66423 116.0209 107.59729 C 117.89275 108.53033 120.96957 110.02664 122.93494 110.95969 C 124.90031 111.89275 128.12708 113.38904 130.18604 114.3221 C 132.24501 115.25514 135.6221 116.75146 137.77468 117.68451 C 139.92725 118.61757 145.70037 121.04692 145.70037 121.04692 "/>
</g>
<symbol id="font_3_1">
<path d="M .305 .31300003 C .311 .33900003 .334 .43100003 .404 .43100003 C .409 .43100003 .433 .43100003 .454 .418 C .426 .41300003 .40600003 .388 .40600003 .36400003 C .40600003 .34800003 .417 .32900004 .444 .32900004 C .46600003 .32900004 .498 .34700004 .498 .38700003 C .498 .43900005 .439 .45300005 .405 .45300005 C .347 .45300005 .312 .40000005 .3 .37700004 C .275 .44300003 .221 .45300005 .19200002 .45300005 C .08800001 .45300005 .031000002 .32400004 .031000002 .29900003 C .031000002 .28900004 .041 .28900004 .043000007 .28900004 C .051000008 .28900004 .054000006 .291 .056 .3 C .09 .40600003 .156 .43100003 .19000001 .43100003 C .209 .43100003 .244 .42200003 .244 .36400003 C .244 .33300004 .22700002 .26600004 .19000001 .126 C .17400001 .064 .13900002 .022000002 .095000009 .022000002 C .08900001 .022000002 .06600001 .022000002 .045 .035 C .07000001 .040000004 .09200001 .061 .09200001 .089 C .09200001 .116000007 .07000001 .124000009 .055000009 .124000009 C .025 .124000009 0 .098000008 0 .06600001 C 0 .020000002 .050000006 0 .094000007 0 C .16000001 0 .19600001 .07000001 .19900002 .076000008 C .21100001 .039 .24700003 0 .307 0 C .41 0 .467 .12900001 .467 .15400002 C .467 .16400002 .458 .16400002 .455 .16400002 C .446 .16400002 .444 .16000001 .442 .15300001 C .409 .046 .341 .022000002 .30900003 .022000002 C .27 .022000002 .254 .054 .254 .08800001 C .254 .11000001 .26 .13200002 .271 .17600002 L .305 .31300003 Z "/>
</symbol>
<use xlink:href="#font_3_1" transform="matrix(9.9626,0,0,-9.9626,207.79192,96.02858)" fill="#800000"/>
<symbol id="font_3_2">
<path d="M .45700003 .586 C .461 .6 .461 .602 .461 .609 C .461 .62700006 .447 .63600006 .432 .63600006 C .42200003 .63600006 .40600003 .63 .397 .615 C .395 .61 .387 .579 .38300003 .561 C .37600003 .535 .36900003 .508 .363 .48100005 L .318 .301 C .314 .286 .271 .21600002 .20500002 .21600002 C .15400002 .21600002 .143 .26000003 .143 .29700003 C .143 .34300003 .16000001 .40500004 .194 .49300004 C .21000001 .53400006 .21400002 .545 .21400002 .56500008 C .21400002 .61 .18200001 .6470001 .13200002 .6470001 C .037 .6470001 0 .50200006 0 .49300004 C 0 .48300005 .01 .48300005 .012 .48300005 C .022000002 .48300005 .023 .485 .028000003 .50100007 C .055000009 .595 .095000009 .625 .12900001 .625 C .13700001 .625 .15400002 .625 .15400002 .59300008 C .15400002 .568 .14400001 .54200008 .13700001 .523 C .097 .41700004 .079 .36 .079 .31300003 C .079 .224 .142 .194 .201 .194 C .24000003 .194 .274 .21100001 .30200003 .23900002 C .289 .187 .277 .13800001 .237 .08500001 C .21100001 .051 .17300001 .022 .127 .022 C .113000009 .022 .068 .025000006 .051000008 .06400001 C .067 .06400001 .080000009 .06400001 .094000007 .076000008 C .104 .08500001 .11400001 .098000008 .11400001 .117000009 C .11400001 .148 .087000008 .15200001 .07700001 .15200001 C .054000006 .15200001 .021 .136 .021 .087000008 C .021 .037 .065000008 0 .127 0 C .23 0 .333 .091000009 .361 .20400001 L .45700003 .586 Z "/>
</symbol>
<use xlink:href="#font_3_2" transform="matrix(9.9626,0,0,-9.9626,104.50591,9.652334)" fill="#800000"/>
</svg>
