<?xml version="1.0" encoding="UTF-8" standalone="no"?>
<!DOCTYPE svg PUBLIC "-//W3C//DTD SVG 1.1//EN" "http://www.w3.org/Graphics/SVG/1.1/DTD/svg11.dtd">
<svg xmlns="http://www.w3.org/2000/svg" xmlns:xlink="http://www.w3.org/1999/xlink" version="1.1" width="220.935pt" height="98.834pt" viewBox="0 0 220.935 98.834">
<path transform="matrix(1,0,0,-1,16.198,97.386)" stroke-width="1" stroke-linecap="butt" stroke-miterlimit="10" stroke-linejoin="miter" fill="none" stroke="#bfbfbf" d="M 23.82594 0 L 23.82594 84.30722 M 42.15361 0 L 42.15361 84.30722 M 60.48126 0 L 60.48126 84.30722 M 78.80891 0 L 78.80891 84.30722 M 97.13658 0 L 97.13658 84.30722 M 115.46423 0 L 115.46423 84.30722 M 133.79189 0 L 133.79189 84.30722 M 152.11956 0 L 152.11956 84.30722 M 170.4472 0 L 170.4472 84.30722 M 188.77486 0 L 188.77486 84.30722 "/>
<path transform="matrix(1,0,0,-1,16.198,97.386)" stroke-width="1" stroke-linecap="butt" stroke-miterlimit="10" stroke-linejoin="miter" fill="none" stroke="#bfbfbf" d="M 0 5.49829 L 194.27317 5.49829 M 0 23.82594 L 194.27317 23.82594 M 0 60.48126 L 194.27317 60.48126 M 0 78.80891 L 194.27317 78.80891 "/>
<path transform="matrix(1,0,0,-1,16.198,97.386)" stroke-width="1" stroke-linecap="butt" stroke-miterlimit="10" stroke-linejoin="miter" fill="none" stroke="#808080" d="M 23.82594 40.02754 L 23.82594 44.27965 M 42.15361 40.02754 L 42.15361 44.27965 M 60.48126 40.02754 L 60.48126 44.27965 M 78.80891 40.02754 L 78.80891 44.27965 M 97.13658 40.02754 L 97.13658 44.27965 M 115.46423 40.02754 L 115.46423 44.27965 M 133.79189 40.02754 L 133.79189 44.27965 M 152.11956 40.02754 L 152.11956 44.27965 M 170.4472 40.02754 L 170.4472 44.27965 M 188.77486 40.02754 L 188.77486 44.27965 "/>
<path transform="matrix(1,0,0,-1,16.198,97.386)" stroke-width="1" stroke-linecap="butt" stroke-miterlimit="10" stroke-linejoin="miter" fill="none" stroke="#808080" d="M 3.37224 5.49829 L 7.62433 5.49829 M 3.37224 23.82594 L 7.62433 23.82594 M 3.37224 60.48126 L 7.62433 60.48126 M 3.37224 78.80891 L 7.62433 78.80891 "/>
<path transform="matrix(1,0,0,-1,16.198,97.386)" stroke-width="1" stroke-linecap="butt" stroke-miterlimit="10" stroke-linejoin="miter" fill="none" stroke="#000000" d="M 0 42.15361 L 192.28064 42.15361 "/>
<path transform="matrix(1,0,0,-1,208.47864,55.23239)" d="M 1.99252 0 L -1.19551 1.59401 L 0 0 L -1.19551 -1.59401 "/>
<path transform="matrix(1,0,0,-1,16.198,97.386)" stroke-width="1" stroke-linecap="butt" stroke-miterlimit="10" stroke-linejoin="miter" fill="none" stroke="#000000" d="M 5.49829 0 L 5.49829 82.3147 "/>
<path transform="matrix(0,-1,-1,-0,21.69629,15.071304)" d="M 1.99252 0 L -1.19551 1.59401 L 0 0 L -1.19551 -1.59401 "/>
<symbol id="font_0_4">
<path d="M .205 .64000007 C .205 .66400006 .205 .666 .18200003 .666 C .120000008 .60200008 .032000007 .60200008 0 .60200008 L 0 .57100006 C .020000004 .57100006 .07900001 .57100006 .13100001 .597 L .13100001 .079 C .13100001 .043 .128 .031000002 .038000004 .031000002 L .0060000049 .031000002 L .0060000049 0 C .04100001 .003 .128 .003 .168 .003 C .20800002 .003 .29500003 .003 .33000005 0 L .33000005 .031000002 L .29800005 .031000002 C .20800002 .031000002 .205 .042000005 .205 .079 L .205 .64000007 Z "/>
</symbol>
<use xlink:href="#font_0_4" transform="matrix(9.9626,0,0,-9.9626,38.41967,67.298999)"/>
<symbol id="font_0_5">
<path d="M .07700001 .07700001 L .18300002 .18 C .33900003 .31800003 .39900003 .372 .39900003 .47200004 C .39900003 .586 .30900003 .666 .18700002 .666 C .074 .666 0 .574 0 .485 C 0 .42900003 .05 .42900003 .053000008 .42900003 C .07000001 .42900003 .105000007 .441 .105000007 .48200003 C .105000007 .508 .08700001 .53400006 .052000006 .53400006 C .044000005 .53400006 .042000008 .53400006 .039 .53300008 C .062000004 .59800007 .11600001 .63500007 .17400001 .63500007 C .26500003 .63500007 .308 .554 .308 .47200004 C .308 .39200003 .25800003 .31300003 .20300003 .25100003 L .011000004 .037 C 0 .026 0 .024 0 0 L .37100003 0 L .39900003 .17400001 L .374 .17400001 C .36900003 .14400001 .36200003 .1 .352 .085 C .345 .07700001 .279 .07700001 .257 .07700001 L .07700001 .07700001 Z "/>
</symbol>
<use xlink:href="#font_0_5" transform="matrix(9.9626,0,0,-9.9626,56.35913,67.298999)"/>
<symbol id="font_0_6">
<path d="M .24800003 .37400005 C .33 .40100003 .388 .47100006 .388 .55 C .388 .632 .3 .688 .204 .688 C .10300001 .688 .027000003 .628 .027000003 .55200007 C .027000003 .519 .049000004 .5 .078 .5 C .109000008 .5 .12900001 .522 .12900001 .55100008 C .12900001 .6010001 .082 .6010001 .067 .6010001 C .098 .65000006 .164 .66300007 .20000002 .66300007 C .24100003 .66300007 .29600004 .64100006 .29600004 .55100008 C .29600004 .53900006 .29400004 .48100005 .268 .43700005 C .238 .38900004 .204 .38600005 .17900002 .38500003 C .171 .38400004 .14700002 .38200004 .14000002 .38200004 C .132 .38100005 .125 .38000003 .125 .37000004 C .125 .35900004 .132 .35900004 .14900002 .35900004 L .19300002 .35900004 C .275 .35900004 .312 .29100005 .312 .193 C .312 .057000005 .24300003 .028 .199 .028 C .15600002 .028 .081 .045 .046000005 .104 C .081 .09900001 .11200001 .12100001 .11200001 .15900001 C .11200001 .19500001 .085 .215 .056 .215 C .031999999 .215 0 .201 0 .157 C 0 .06600001 .093 0 .20200002 0 C .32400004 0 .41500003 .091000009 .41500003 .193 C .41500003 .27500005 .35200004 .35300005 .24800003 .37400005 Z "/>
</symbol>
<use xlink:href="#font_0_6" transform="matrix(9.9626,0,0,-9.9626,74.60643,67.51817)"/>
<symbol id="font_0_7">
<path d="M .266 .165 L .266 .078 C .266 .042000005 .26400004 .031000002 .19000001 .031000002 L .16900002 .031000002 L .16900002 0 C .21000001 .003 .26200003 .003 .30400003 .003 C .34600003 .003 .39900003 .003 .44000004 0 L .44000004 .031000002 L .41900004 .031000002 C .34500004 .031000002 .34300003 .042000005 .34300003 .078 L .34300003 .165 L .44300003 .165 L .44300003 .19600001 L .34300003 .19600001 L .34300003 .651 C .34300003 .671 .34300003 .67700007 .32700003 .67700007 C .31800003 .67700007 .31500004 .67700007 .307 .665 L 0 .19600001 L 0 .165 L .266 .165 M .272 .19600001 L .028 .19600001 L .272 .569 L .272 .19600001 Z "/>
</symbol>
<use xlink:href="#font_0_7" transform="matrix(9.9626,0,0,-9.9626,92.79395,67.298999)"/>
<symbol id="font_0_8">
<path d="M .39900003 .223 C .39900003 .34200005 .317 .44200004 .209 .44200004 C .16100002 .44200004 .118000019 .42600004 .082 .39100004 L .082 .586 C .10200001 .58000007 .135 .573 .16700001 .573 C .29 .573 .36 .66400006 .36 .67700007 C .36 .683 .357 .688 .35 .688 C .349 .688 .347 .688 .342 .68500009 C .322 .67600008 .273 .656 .20600002 .656 C .16600001 .656 .120000008 .66300007 .073 .6840001 C .065 .68700006 .06300001 .68700006 .061000009 .68700006 C .051000004 .68700006 .051000004 .679 .051000004 .66300007 L .051000004 .36700005 C .051000004 .34900005 .051000004 .34100003 .065 .34100003 C .07200001 .34100003 .074 .34400005 .07800001 .35000003 C .08900002 .36600004 .12600002 .42000006 .207 .42000006 C .259 .42000006 .284 .37400005 .292 .35600005 C .308 .31900005 .31 .28000004 .31 .23 C .31 .19500001 .31 .135 .286 .093 C .262 .054000006 .22500001 .028 .17900002 .028 C .106000009 .028 .049000008 .08100001 .032 .14000002 C .035 .13900002 .038000008 .13800001 .049000008 .13800001 C .082 .13800001 .09900001 .163 .09900001 .187 C .09900001 .21100001 .082 .23600002 .049000008 .23600002 C .035 .23600002 0 .22900002 0 .18300002 C 0 .097 .069000009 0 .18100001 0 C .297 0 .39900003 .096 .39900003 .223 Z "/>
</symbol>
<use xlink:href="#font_0_8" transform="matrix(9.9626,0,0,-9.9626,111.341129,67.51817)"/>
<symbol id="font_0_9">
<path d="M .089999999 .35000003 L .089999999 .37400005 C .089999999 .62700006 .21400002 .66300007 .26500003 .66300007 C .28900004 .66300007 .33100004 .65700009 .35300002 .623 C .33800004 .623 .298 .623 .298 .57800009 C .298 .54700008 .32200004 .53200009 .344 .53200009 C .36 .53200009 .39000003 .54100009 .39000003 .58000007 C .39000003 .64000007 .34600003 .688 .263 .688 C .13499999 .688 0 .559 0 .33800004 C 0 .071 .116000007 0 .20900002 0 C .32000003 0 .41500003 .094000007 .41500003 .22600001 C .41500003 .35300005 .32600004 .44900004 .215 .44900004 C .14700002 .44900004 .11000001 .39800004 .089999999 .35000003 M .20900002 .028 C .146 .028 .116000007 .088 .11000001 .103 C .092 .15 .092 .23 .092 .24800001 C .092 .32600004 .124000009 .42600004 .21400002 .42600004 C .23000002 .42600004 .27600003 .42600004 .307 .36400003 C .32500003 .32700003 .32500003 .27600003 .32500003 .22700002 C .32500003 .179 .32500003 .12900001 .30800004 .093 C .27800004 .033000005 .23200003 .028 .20900002 .028 Z "/>
</symbol>
<use xlink:href="#font_0_9" transform="matrix(9.9626,0,0,-9.9626,129.58843,67.51817)"/>
<symbol id="font_0_a">
<path d="M .42000003 .63100007 C .42900003 .64300009 .42900003 .64500007 .42900003 .66600009 L .18600002 .66600009 C .064 .66600009 .062000008 .679 .058000007 .6980001 L .033 .6980001 L 0 .49200005 L .024999999 .49200005 C .028000005 .508 .037 .57100006 .050000006 .58300009 C .057000005 .58900007 .13500002 .58900007 .148 .58900007 L .35500003 .58900007 C .344 .573 .26500003 .46400006 .24300003 .43100003 C .153 .29600004 .12000001 .157 .12000001 .055 C .12000001 .045 .12000001 0 .16600001 0 C .21200001 0 .21200001 .045 .21200001 .055 L .21200001 .106000009 C .21200001 .16100002 .21500004 .216 .22300002 .27 C .22700003 .29300005 .24100003 .37900005 .28500004 .44100005 L .42000003 .63100007 Z "/>
</symbol>
<use xlink:href="#font_0_a" transform="matrix(9.9626,0,0,-9.9626,148.05591,67.51817)"/>
<symbol id="font_0_b">
<path d="M .121 .47900004 C .075 .509 .071 .54300007 .071 .56000009 C .071 .62100008 .136 .66300007 .20700002 .66300007 C .28000004 .66300007 .344 .61100009 .344 .53900006 C .344 .48200003 .305 .43400005 .245 .39900003 L .121 .47900004 M .26700003 .38400004 C .33900003 .42100004 .388 .47300006 .388 .53900006 C .388 .63100007 .29900003 .688 .208 .688 C .108 .688 .027000003 .614 .027000003 .521 C .027000003 .503 .029 .45800004 .071 .41100005 C .082 .39900003 .11900001 .37400005 .144 .35700003 C .086 .32800005 0 .272 0 .17300001 C 0 .067 .102000009 0 .20700002 0 C .32000003 0 .41500003 .083000008 .41500003 .19000001 C .41500003 .22600001 .404 .27100004 .36600004 .31300003 C .34700004 .33400003 .33100004 .34400005 .26700003 .38400004 M .167 .34200005 L .29000003 .26400004 C .31800003 .245 .365 .215 .365 .154 C .365 .080000009 .29000003 .028 .208 .028 C .122 .028 .050000006 .09 .050000006 .17300001 C .050000006 .231 .082 .29500003 .167 .34200005 Z "/>
</symbol>
<use xlink:href="#font_0_b" transform="matrix(9.9626,0,0,-9.9626,166.24343,67.51817)"/>
<symbol id="font_0_c">
<path d="M .32500003 .34000004 L .32500003 .30800004 C .32500003 .074 .22100002 .028 .16300002 .028 C .146 .028 .092 .030000002 .065000008 .064 C .109000008 .064 .117000009 .093 .117000009 .11000001 C .117000009 .141 .093 .156 .071 .156 C .055 .156 .024999999 .147 .024999999 .108 C .024999999 .041 .079 0 .164 0 C .293 0 .41500003 .136 .41500003 .35100005 C .41500003 .62000009 .3 .688 .21100003 .688 C .15600002 .688 .107 .67 .064 .62500008 C .023000002 .58000007 0 .53800007 0 .46300004 C 0 .33800004 .08800001 .24000001 .20000002 .24000001 C .261 .24000001 .30200003 .28200004 .32500003 .34000004 M .201 .263 C .185 .263 .139 .263 .108 .32600004 C .089999999 .36300005 .089999999 .41300006 .089999999 .46200005 C .089999999 .51600006 .089999999 .563 .11100001 .6 C .13800001 .65000006 .176 .66300007 .21100003 .66300007 C .25700004 .66300007 .29000003 .62900009 .307 .58400008 C .31900005 .55200007 .323 .48900003 .323 .44300006 C .323 .36000005 .28900004 .263 .201 .263 Z "/>
</symbol>
<use xlink:href="#font_0_c" transform="matrix(9.9626,0,0,-9.9626,184.57143,67.51817)"/>
<symbol id="font_0_3">
<path d="M .421 .34200005 C .421 .42200003 .416 .50200006 .381 .57600006 C .335 .67200008 .25300003 .688 .211 .688 C .15100001 .688 .07800001 .66200008 .037000006 .56900009 C .0050000029 .5 0 .42200003 0 .34200005 C 0 .26700003 .0040000008 .177 .045000007 .101 C .088 .020000002 .161 0 .21000001 0 C .264 0 .34 .021000002 .384 .116000007 C .416 .185 .421 .263 .421 .34200005 M .21000001 .022000002 C .171 .022000002 .112 .047000003 .094 .143 C .083000008 .20300001 .083000008 .29500003 .083000008 .35400004 C .083000008 .41800005 .083000008 .48400004 .091000009 .53800007 C .11 .65700009 .185 .66600009 .21000001 .66600009 C .243 .66600009 .30900003 .64800009 .328 .549 C .338 .49300004 .338 .41700004 .338 .35400004 C .338 .279 .338 .21100001 .32700003 .147 C .312 .052 .255 .022000002 .21000001 .022000002 Z "/>
</symbol>
<use xlink:href="#font_0_4" transform="matrix(9.9626,0,0,-9.9626,200.87567,67.298999)"/>
<use xlink:href="#font_0_3" transform="matrix(9.9626,0,0,-9.9626,205.35883,67.51817)"/>
<symbol id="font_1_1">
<path d="M .57600006 0 C .59300008 0 .611 0 .611 .019999996 C .611 .040000008 .59300008 .040000008 .57600006 .040000008 L .035000005 .040000008 C .018 .040000008 0 .040000008 0 .019999996 C 0 0 .018 0 .035000005 0 L .57600006 0 Z "/>
</symbol>
<use xlink:href="#font_1_1" transform="matrix(9.9626,0,0,-9.9626,4.147896,92.3916)"/>
<use xlink:href="#font_0_5" transform="matrix(9.9626,0,0,-9.9626,11.56713,94.683)"/>
<use xlink:href="#font_1_1" transform="matrix(9.9626,0,0,-9.9626,4.147896,74.064609)"/>
<use xlink:href="#font_0_4" transform="matrix(9.9626,0,0,-9.9626,11.955671,76.356)"/>
<use xlink:href="#font_0_4" transform="matrix(9.9626,0,0,-9.9626,11.955671,40.116)"/>
<use xlink:href="#font_0_5" transform="matrix(9.9626,0,0,-9.9626,11.56713,21.789002)"/>
<clipPath id="cp2">
<path transform="matrix(1,0,0,-1,16.198,97.386)" d="M 0 0 L 194.27317 0 L 194.27317 84.30722 L 0 84.30722 Z "/>
</clipPath>
<g clip-path="url(#cp2)">
<path transform="matrix(1,0,0,-1,16.198,97.386)" stroke-width="1.59404" stroke-linecap="butt" stroke-miterlimit="10" stroke-linejoin="miter" fill="none" stroke="#000080" d="M 5.49829 5.49829 L 8.55287 8.55287 L 11.60747 11.60747 L 14.6621 14.6621 L 17.71666 17.71666 L 20.77126 20.77126 L 23.82585 23.82585 L 26.88048 26.88048 L 29.93506 29.93506 L 32.98965 32.98965 L 36.04425 36.04425 L 39.09885 39.09885 L 42.15346 42.15346 L 45.20805 45.20805 L 48.26263 48.26263 L 51.31723 51.31723 L 54.37181 54.37181 L 57.42644 57.42644 L 60.48103 60.48103 L 63.53563 63.53563 L 66.59021 66.59021 L 69.6448 69.6448 L 72.69943 72.69943 L 75.754 75.754 L 78.8086 78.8086 "/>
<path transform="matrix(1,0,0,-1,16.198,97.386)" stroke-width="1.59404" stroke-linecap="butt" stroke-miterlimit="10" stroke-linejoin="miter" fill="none" stroke="#000080" d="M 78.80891 78.80891 L 83.39082 78.80891 L 87.97275 78.80891 L 92.55466 78.80891 L 97.13658 78.80891 L 101.71848 78.80891 L 106.3004 78.80891 L 110.88231 78.80891 L 115.46423 78.80891 L 120.04614 78.80891 L 124.62807 78.80891 L 129.20996 78.80891 L 133.79189 78.80891 L 138.3738 78.80891 L 142.95572 78.80891 L 147.53763 78.80891 L 152.11956 78.80891 L 156.70145 78.80891 L 161.28337 78.80891 L 165.86528 78.80891 L 170.4472 78.80891 L 175.02912 78.80891 L 179.61104 78.80891 L 184.19293 78.80891 L 188.77486 78.80891 "/>
<symbol id="font_3_3">
<path d="M .45700003 .586 C .461 .6 .461 .602 .461 .609 C .461 .62700006 .447 .63600006 .432 .63600006 C .42200003 .63600006 .40600003 .63 .397 .615 C .395 .61 .387 .579 .38300003 .561 C .37600003 .535 .36900003 .508 .363 .48100005 L .318 .301 C .314 .286 .271 .21600002 .20500002 .21600002 C .15400002 .21600002 .143 .26000003 .143 .29700003 C .143 .34300003 .16000001 .40500004 .194 .49300004 C .21000001 .53400006 .21400002 .545 .21400002 .56500008 C .21400002 .61 .18200001 .6470001 .13200002 .6470001 C .037 .6470001 0 .50200006 0 .49300004 C 0 .48300005 .01 .48300005 .012 .48300005 C .022000002 .48300005 .023 .485 .028000003 .50100007 C .055000009 .595 .095000009 .625 .12900001 .625 C .13700001 .625 .15400002 .625 .15400002 .59300008 C .15400002 .568 .14400001 .54200008 .13700001 .523 C .097 .41700004 .079 .36 .079 .31300003 C .079 .224 .142 .194 .201 .194 C .24000003 .194 .274 .21100001 .30200003 .23900002 C .289 .187 .277 .13800001 .237 .08500001 C .21100001 .051 .17300001 .022 .127 .022 C .113000009 .022 .068 .025000006 .051000008 .06400001 C .067 .06400001 .080000009 .06400001 .094000007 .076000008 C .104 .08500001 .11400001 .098000008 .11400001 .117000009 C .11400001 .148 .087000008 .15200001 .07700001 .15200001 C .054000006 .15200001 .021 .136 .021 .087000008 C .021 .037 .065000008 0 .127 0 C .23 0 .333 .091000009 .361 .20400001 L .45700003 .586 Z "/>
</symbol>
<use xlink:href="#font_3_3" transform="matrix(9.9626,0,0,-9.9626,31.985915,32.275335)"/>
<symbol id="font_0_d">
<path d="M .63100007 .19400002 C .646 .19400002 .665 .19400002 .665 .214 C .665 .23400001 .646 .23400001 .632 .23400001 L .033 .23400001 C .019000002 .23400001 0 .23400001 0 .214 C 0 .19400002 .019000002 .19400002 .034 .19400002 L .63100007 .19400002 M .632 0 C .646 0 .665 0 .665 .02000001 C .665 .040000008 .646 .040000008 .63100007 .040000008 L .034 .040000008 C .019000002 .040000008 0 .040000008 0 .02000001 C 0 0 .019000002 0 .033 0 L .632 0 Z "/>
</symbol>
<use xlink:href="#font_0_d" transform="matrix(9.9626,0,0,-9.9626,40.26391,28.907977)"/>
<symbol id="font_3_1">
<path d="M .45600004 .582 C .45700003 .58800008 .45900006 .59300008 .45900006 .6 C .45900006 .61700007 .44700004 .62700006 .43 .62700006 C .42000003 .62700006 .393 .62 .389 .584 C .371 .62100008 .33600004 .6470001 .296 .6470001 C .18200001 .6470001 .058000007 .507 .058000007 .36300005 C .058000007 .26400004 .119 .20500002 .19100002 .20500002 C .25 .20500002 .297 .252 .30700005 .263 L .30800004 .26200003 C .287 .17300001 .27500005 .132 .27500005 .13000001 C .27100004 .12100001 .237 .022 .13100001 .022 C .112 .022 .079 .023000002 .051 .032000007 C .081 .04100001 .09200001 .067 .09200001 .08400001 C .09200001 .10000001 .081 .11900001 .054000006 .11900001 C .032 .11900001 0 .10100001 0 .061000006 C 0 .02000001 .037 0 .133 0 C .25800003 0 .33000005 .07800001 .34500004 .13800001 L .45600004 .582 M .32600004 .333 C .32 .307 .297 .282 .27500005 .263 C .254 .24500002 .223 .22700002 .194 .22700002 C .14400001 .22700002 .12900001 .279 .12900001 .319 C .12900001 .367 .158 .485 .185 .536 C .21200001 .58500006 .255 .625 .297 .625 C .36300005 .625 .37700004 .544 .37700004 .53900006 C .37700004 .53400006 .375 .528 .374 .52400007 L .32600004 .333 Z "/>
</symbol>
<use xlink:href="#font_3_1" transform="matrix(9.9626,0,0,-9.9626,50.37144,32.275335)"/>
<symbol id="font_0_1">
<path d="M .23200003 .00999999 C .23200003 .012999982 .23200003 .014999986 .215 .03199999 C .09 .15799999 .058 .347 .058 .5 C .058 .674 .096 .84800007 .21900001 .97300007 C .23200003 .985 .23200003 .98700007 .23200003 .99 C .23200003 .99700006 .22800002 1 .222 1 C .21200001 1 .12200001 .93200007 .06299999 .805 C .012000002 .69500008 0 .584 0 .5 C 0 .422 .011 .301 .066 .188 C .126 .065 .21200001 0 .222 0 C .22800002 0 .23200003 .0029999912 .23200003 .00999999 Z "/>
</symbol>
<use xlink:href="#font_0_1" transform="matrix(9.9626,0,0,-9.9626,56.3183,32.72365)"/>
<symbol id="font_3_2">
<path d="M .18300002 .411 L .277 .411 C .29700003 .411 .307 .411 .307 .43100003 C .307 .44200004 .29700003 .44200004 .279 .44200004 L .19100002 .44200004 C .227 .584 .23200003 .60400006 .23200003 .61 C .23200003 .62700006 .22000002 .637 .20300001 .637 C .2 .637 .172 .636 .163 .601 L .124 .44200004 L .030000002 .44200004 C .009999998 .44200004 0 .44200004 0 .42300005 C 0 .411 .007999999 .411 .028 .411 L .11600001 .411 C .044 .127 .04 .11000001 .04 .092 C .04 .038000004 .078 0 .132 0 C .234 0 .291 .14600002 .291 .15400002 C .291 .16400002 .28300003 .16400002 .279 .16400002 C .27 .16400002 .26900003 .16100002 .264 .15000002 C .22100002 .046 .16800002 .022000002 .134 .022000002 C .113000009 .022000002 .103 .035 .103 .068 C .103 .092 .105000007 .09900001 .109 .116000007 L .18300002 .411 Z "/>
</symbol>
<use xlink:href="#font_3_2" transform="matrix(9.9626,0,0,-9.9626,59.435144,30.34259)"/>
<symbol id="font_0_2">
<path d="M .232 .5 C .232 .578 .22100002 .699 .16600001 .81200006 C .106 .93500009 .020000004 1 .009999998 1 C .0040000008 1 0 .99600008 0 .99 C 0 .98700007 0 .985 .019000002 .967 C .117000009 .86800006 .174 .709 .174 .5 C .174 .329 .137 .153 .012999997 .026999996 C 0 .014999986 0 .012999982 0 .00999999 C 0 .003999993 .0040000008 0 .009999998 0 C .020000004 0 .11000001 .06799999 .169 .195 C .22 .305 .232 .416 .232 .5 Z "/>
</symbol>
<use xlink:href="#font_0_2" transform="matrix(9.9626,0,0,-9.9626,63.37187,32.72365)"/>
</g>
<use xlink:href="#font_3_2" transform="matrix(9.9626,0,0,-9.9626,214.24614,58.39959)"/>
<use xlink:href="#font_3_3" transform="matrix(9.9626,0,0,-9.9626,19.364916,9.652334)"/>
</svg>
