<?xml version="1.0" encoding="UTF-8" standalone="no"?>
<!DOCTYPE svg PUBLIC "-//W3C//DTD SVG 1.1//EN" "http://www.w3.org/Graphics/SVG/1.1/DTD/svg11.dtd">
<svg xmlns="http://www.w3.org/2000/svg" xmlns:xlink="http://www.w3.org/1999/xlink" version="1.1" width="207.197pt" height="186.348pt" viewBox="0 0 207.197 186.348">
<clipPath id="cp0">
<path transform="matrix(1,0,0,-1,-106.649,174.63501)" d="M 106.84969 0 L 301.12184 0 L 301.12184 161.3969 L 106.84969 161.3969 Z "/>
</clipPath>
<g clip-path="url(#cp0)">
<path transform="matrix(1,0,0,-1,-106.649,174.63501)" stroke-width="1" stroke-linecap="butt" stroke-miterlimit="10" stroke-linejoin="miter" fill="none" stroke="#8080bf" d="M 0 14.8867 C 0 14.8867 2.12663 14.43472 2.9434 14.29283 C 3.76018 14.15094 5.07005 13.96954 5.88683 13.864 C 6.7036 13.75845 8.01346 13.61575 8.83023 13.5321 C 9.647 13.44847 10.95688 13.33089 11.77365 13.26117 C 12.59042 13.19145 13.90028 13.08958 14.71706 13.0296 C 15.53383 12.96964 16.8437 12.88156 17.66048 12.82886 C 18.47725 12.77614 19.78711 12.69693 20.60388 12.64972 C 21.42065 12.60252 22.73055 12.53137 23.5473 12.48862 C 24.36407 12.44585 25.67395 12.38089 26.49072 12.34148 C 27.3075 12.30206 28.61737 12.24121 29.43414 12.20445 C 30.25092 12.1677 31.56078 12.1109 32.37755 12.07646 C 33.19432 12.042 34.5042 11.98885 35.32097 11.95618 C 36.13774 11.92351 37.4476 11.8721 38.26437 11.84099 C 39.08115 11.80989 40.39102 11.76176 41.2078 11.732 C 42.02457 11.70222 43.33443 11.65518 44.1512 11.62643 C 44.96797 11.59769 46.27786 11.55237 47.09462 11.52472 C 47.91139 11.49707 49.22127 11.45392 50.03804 11.42711 C 50.85481 11.40028 52.16469 11.3576 52.98146 11.33136 C 53.79823 11.30513 55.1081 11.26344 55.92487 11.23788 C 56.74164 11.21233 58.05151 11.17207 58.86829 11.1471 C 59.68506 11.12213 60.99492 11.08226 61.81169 11.05783 C 62.62846 11.0334 63.93832 10.99498 64.75511 10.97096 C 65.5719 10.94693 66.88174 10.90833 67.69853 10.88464 C 68.51532 10.86096 69.82518 10.82346 70.64195 10.80017 C 71.45872 10.7769 72.7686 10.7398 73.58537 10.71684 C 74.40215 10.69386 75.71202 10.65718 76.5288 10.63461 C 77.34557 10.61203 78.65543 10.5763 79.4722 10.55405 C 80.28897 10.53178 81.59885 10.49596 82.41562 10.47414 C 83.23239 10.45233 84.54225 10.41823 85.35902 10.39673 C 86.1758 10.37523 87.48567 10.34044 88.30244 10.31918 C 89.11922 10.29793 90.42908 10.26428 91.24585 10.24353 C 92.06262 10.22278 93.37248 10.1898 94.18927 10.16956 C 95.00606 10.1493 96.31592 10.11725 97.1327 10.0975 C 97.9495 10.07774 99.25935 10.04645 100.07613 10.02715 C 100.8929 10.00783 102.20276 9.97696 103.01953 9.95827 C 103.8363 9.93956 105.14618 9.91043 105.96295 9.89236 C 106.77972 9.87428 108.08958 9.84547 108.90636 9.82794 C 109.72313 9.8104 111.033 9.7826 111.84978 9.76584 C 112.66655 9.74908 113.97641 9.72296 114.79318 9.70712 C 115.60995 9.69128 116.91983 9.66652 117.7366 9.65158 C 118.55338 9.63663 119.86325 9.6133 120.68002 9.59937 C 121.49678 9.58545 122.80667 9.56413 123.62344 9.5512 C 124.44022 9.53825 125.75006 9.51775 126.56685 9.50609 C 127.38364 9.49443 128.6935 9.47734 129.51029 9.46715 C 130.32707 9.45694 131.63692 9.4413 132.45369 9.43256 C 133.27046 9.42381 134.58034 9.41107 135.39711 9.4041 C 136.21389 9.39714 137.52375 9.38759 138.34052 9.38234 C 139.15729 9.37708 140.46717 9.36974 141.28394 9.36613 C 142.10071 9.36253 143.41059 9.35768 144.22736 9.35632 C 145.04412 9.35497 146.35399 9.35483 147.17078 9.35632 C 147.98757 9.35782 149.29741 9.36287 150.1142 9.36707 C 150.93099 9.37126 152.24085 9.37991 153.05762 9.38661 C 153.87439 9.3933 155.18425 9.4057 156.00102 9.41539 C 156.8178 9.42506 158.12767 9.44322 158.94445 9.45647 C 159.76122 9.46973 161.07108 9.49405 161.88785 9.51096 C 162.70462 9.52786 164.0145 9.55724 164.83127 9.57837 C 165.64804 9.59949 166.9579 9.6378 167.77468 9.66327 C 168.59146 9.68874 169.90134 9.73167 170.71813 9.76192 C 171.53491 9.79214 172.84476 9.84563 173.66153 9.88129 C 174.4783 9.91696 175.78818 9.97778 176.60495 10.01898 C 177.42173 10.06018 178.73159 10.13069 179.54836 10.1783 C 180.36513 10.22589 181.675 10.30782 182.49178 10.3621 C 183.30855 10.41638 184.61841 10.50818 185.43518 10.56966 C 186.25196 10.63113 187.56183 10.73578 188.3786 10.80527 C 189.19538 10.87476 190.50525 10.99214 191.322 11.07054 C 192.13878 11.14894 193.44867 11.28247 194.26544 11.3704 C 195.08222 11.45833 196.39206 11.60619 197.20885 11.70438 C 198.02564 11.80257 199.3355 11.96852 200.15229 12.07816 C 200.96907 12.1878 202.27892 12.3728 203.09569 12.49463 C 203.91246 12.61647 205.22234 12.82108 206.03911 12.9563 C 206.85588 13.09152 208.16574 13.31917 208.98252 13.46925 C 209.79929 13.61932 211.10916 13.87218 211.92594 14.03798 C 212.7427 14.2038 214.05257 14.48123 214.86934 14.66434 C 215.68611 14.84744 216.996 15.15532 217.81278 15.35773 C 218.62955 15.56015 219.9394 15.8999 220.75618 16.12323 C 221.57295 16.34654 222.88283 16.72127 223.6996 16.96733 C 224.51638 17.2134 225.82624 17.62529 226.643 17.89665 C 227.45978 18.16803 228.76964 18.6241 229.58643 18.92319 C 230.40322 19.22227 231.71306 19.72258 232.52985 20.05225 C 233.34664 20.38193 234.6565 20.93547 235.47327 21.29927 C 236.29004 21.66307 237.5999 22.27304 238.41667 22.67429 C 239.23345 23.07555 240.54334 23.74886 241.3601 24.19127 C 242.17688 24.63367 243.48674 25.37404 244.30352 25.86288 C 245.12029 26.35175 246.43016 27.17268 247.24694 27.71466 C 248.0637 28.25664 249.37357 29.16847 250.19034 29.76912 C 251.00711 30.36977 252.31699 31.37755 253.13376 32.0438 C 253.95053 32.71002 255.26039 33.82921 256.07716 34.57098 C 256.89396 35.31274 258.2038 36.56134 259.02058 37.38998 C 259.83738 38.21863 261.14723 39.61472 261.964 40.5433 C 262.78077 41.4719 264.09065 43.0377 264.9074 44.08266 C 265.72419 45.12761 267.03407 46.89058 267.85084 48.07466 C 268.6676 49.25874 269.97749 51.26645 270.79426 52.6167 C 271.61103 53.96695 272.92088 56.25278 273.73768 57.80644 C 274.55445 59.36012 275.8643 62.00467 276.6811 63.81451 C 277.49787 65.62434 278.8077 68.70918 279.62449 70.85056 C 280.44126 72.99194 281.75114 76.65883 282.5679 79.24814 C 283.38468 81.83745 284.69453 86.27307 285.5113 89.51256 C 286.3281 92.75203 287.63795 98.31793 288.45475 102.59608 C 289.2715 106.87422 291.39817 120.3465 291.39817 120.3465 "/>
<path transform="matrix(1,0,0,-1,-106.649,174.63501)" stroke-width="1" stroke-linecap="butt" stroke-miterlimit="10" stroke-linejoin="miter" fill="none" stroke="#8080bf" d="M 262.2674 40.88834 C 262.2674 40.88834 262.5297 41.18982 262.63044 41.30682 C 262.73118 41.42383 262.8927 41.61272 262.9934 41.73174 C 263.09416 41.85075 263.2557 42.04382 263.35646 42.16464 C 263.45719 42.28545 263.61875 42.48 263.71946 42.6025 C 263.8202 42.72499 263.98176 42.9236 264.0825 43.0476 C 264.1832 43.1716 264.34477 43.3704 264.4455 43.49625 C 264.54624 43.62209 264.7078 43.82635 264.80854 43.9546 C 264.90925 44.08287 265.0708 44.29106 265.1715 44.42075 C 265.27226 44.55045 265.4338 44.75748 265.53456 44.88934 C 265.63529 45.0212 265.79685 45.23692 265.89756 45.37117 C 265.9983 45.5054 266.15986 45.72092 266.26057 45.85684 C 266.3613 45.99275 266.52287 46.21288 266.62358 46.35081 C 266.72434 46.48874 266.8859 46.71086 266.9866 46.85094 C 267.08735 46.99101 267.2489 47.21844 267.3496 47.36044 C 267.45036 47.50246 267.6119 47.72989 267.71266 47.87439 C 267.8134 48.0189 267.9749 48.25491 268.07566 48.40205 C 268.1764 48.5492 268.33796 48.78548 268.43867 48.93489 C 268.5394 49.08429 268.70094 49.32707 268.80168 49.47893 C 268.9024 49.63077 269.06398 49.87563 269.1647 50.02942 C 269.26545 50.1832 269.427 50.43106 269.5277 50.58737 C 269.62843 50.74368 269.79 50.99675 269.89073 51.15602 C 269.99147 51.31529 270.153 51.57323 270.25376 51.73529 C 270.35447 51.89735 270.51603 52.15977 270.61674 52.32413 C 270.71748 52.48846 270.87904 52.75267 270.97978 52.91986 C 271.0805 53.08705 271.24205 53.35909 271.34278 53.52916 C 271.4435 53.69922 271.60508 53.9732 271.7058 54.1456 C 271.80653 54.31798 271.96809 54.59602 272.06883 54.77167 C 272.16954 54.94731 272.3311 55.23271 272.43186 55.41154 C 272.53257 55.59036 272.6941 55.87837 272.79487 56.0605 C 272.89558 56.24261 273.05714 56.53873 273.15788 56.72423 C 273.25859 56.90973 273.42015 57.2082 273.52088 57.3975 C 273.6216 57.58682 273.78318 57.89583 273.8839 58.08871 C 273.98463 58.2816 274.14619 58.59225 274.2469 58.78778 C 274.34764 58.9833 274.5092 59.29895 274.60993 59.49796 C 274.71067 59.69695 274.87223 60.01909 274.97294 60.22205 C 275.07368 60.42502 275.23524 60.75418 275.33595 60.96077 C 275.43669 61.16737 275.59825 61.50061 275.69898 61.7111 C 275.7997 61.92159 275.96128 62.26321 276.062 62.47789 C 276.16273 62.69255 276.32426 63.03963 276.425 63.2583 C 276.52574 63.47696 276.6873 63.83131 276.78804 64.05391 C 276.88877 64.27649 277.05033 64.63545 277.15104 64.86258 C 277.25175 65.0897 277.4133 65.45912 277.51405 65.69102 C 277.61476 65.92293 277.77635 66.29736 277.87709 66.53407 C 277.97779 66.77077 278.13935 67.15503 278.24009 67.39705 C 278.3408 67.63907 278.50239 68.0318 278.6031 68.2784 C 278.70384 68.52501 278.86537 68.92268 278.9661 69.17453 C 279.06684 69.42638 279.2284 69.83633 279.32914 70.0936 C 279.42988 70.35086 279.5914 70.76572 279.69215 71.02872 C 279.79286 71.2917 279.9544 71.72073 280.05516 71.98914 C 280.15589 72.25752 280.31745 72.68846 280.41819 72.96315 C 280.5189 73.23784 280.68049 73.68782 280.7812 73.9689 C 280.8819 74.24997 281.04347 74.7019 281.1442 74.98901 C 281.24494 75.27611 281.4065 75.74326 281.50724 76.03825 C 281.60795 76.33325 281.7695 76.81442 281.8702 77.11516 C 281.97096 77.4159 282.1325 77.8973 282.23326 78.20581 C 282.33399 78.51433 282.49555 79.0216 282.59626 79.33887 C 282.697 79.65614 282.85856 80.16829 282.95927 80.49248 C 283.06 80.81667 283.22157 81.34299 283.3223 81.67538 C 283.42304 82.0078 283.5846 82.54689 283.68534 82.88823 C 283.78605 83.22958 283.9476 83.78432 284.0483 84.13557 C 284.14906 84.48683 284.3106 85.05998 284.41136 85.41992 C 284.5121 85.77986 284.67366 86.36002 284.77436 86.72981 C 284.8751 87.09962 285.03666 87.70453 285.13737 88.08528 C 285.23808 88.46605 285.39967 89.08263 285.50038 89.47414 C 285.6011 89.86565 285.76268 90.5021 285.8634 90.90703 C 285.9641 91.31195 286.1257 91.97525 286.2264 92.39255 C 286.32716 92.80986 286.4887 93.48459 286.58943 93.91472 C 286.69017 94.34483 286.8517 95.04828 286.95246 95.49268 C 287.0532 95.93707 287.21473 96.65926 287.31547 97.11768 C 287.41618 97.57611 287.57774 98.32182 287.67848 98.79683 C 287.7792 99.27184 287.94075 100.04904 288.0415 100.54118 C 288.1422 101.03331 288.30378 101.83505 288.4045 102.34378 C 288.50523 102.85252 288.6668 103.6793 288.76753 104.20782 C 288.86824 104.73633 289.02983 105.60358 289.13056 106.153 C 289.23127 106.70244 289.39283 107.59473 289.49357 108.1678 C 289.59428 108.74088 289.75584 109.68501 289.85658 110.28334 C 289.9573 110.88165 290.11885 111.8579 290.21958 112.48016 C 290.3203 113.10242 290.48188 114.11621 290.5826 114.76825 C 290.68333 115.4203 290.84489 116.49507 290.9456 117.17967 C 291.04634 117.86426 291.2079 118.98335 291.30867 119.70235 C 291.40937 120.42134 291.5709 121.60516 291.67167 122.36174 C 291.77238 123.1183 291.93394 124.35513 292.03468 125.15523 C 292.13539 125.95534 292.29695 127.28052 292.39768 128.1283 C 292.4984 128.97609 292.65998 130.36486 292.76069 131.2655 C 292.8614 132.16616 293.02299 133.65398 293.1237 134.61968 C 293.22444 135.58536 293.386 137.18804 293.48674 138.22559 C 293.58744 139.26316 293.74903 140.9826 293.84974 142.09774 C 293.95048 143.21286 294.112 145.05149 294.21275 146.26267 C 294.31349 147.47385 294.47505 149.49825 294.57579 150.82718 C 294.6765 152.15613 294.83805 154.37413 294.93879 155.84078 C 295.0395 157.30742 295.20109 159.75864 295.3018 161.39774 C 295.40254 163.03685 295.56407 165.79206 295.6648 167.6544 C 295.76554 169.51676 295.9271 172.6703 296.02784 174.8203 C 296.12858 176.97028 296.29014 180.599 296.39085 183.1501 C 296.49156 185.7012 296.65315 190.04454 296.75386 193.20693 C 296.85459 196.3693 297.01615 201.77286 297.11689 205.94237 C 297.2176 210.11188 297.37919 217.01535 297.4799 223.25783 C 297.5806 229.5003 297.74217 236.20114 297.8429 250.93384 C 297.94364 265.66654 298.20594 329.4409 298.20594 329.4409 "/>
<path transform="matrix(1,0,0,-1,-106.649,174.63501)" stroke-width="1.19553" stroke-linecap="butt" stroke-miterlimit="10" stroke-linejoin="miter" fill="none" stroke="#cc6600" d="M 145.70412 9.35632 C 145.70412 9.35632 146.55472 9.3558 146.88141 9.35632 C 147.20809 9.35684 147.732 9.35922 148.05869 9.36015 C 148.38538 9.36108 148.90929 9.36215 149.23598 9.3631 C 149.56267 9.36406 150.0866 9.36545 150.41329 9.36711 C 150.73996 9.36879 151.26386 9.37294 151.59055 9.37518 C 151.91724 9.37744 152.44116 9.38083 152.76786 9.38339 C 153.09455 9.38597 153.61844 9.39073 153.94513 9.3938 C 154.27182 9.39687 154.79573 9.40218 155.12242 9.40558 C 155.44911 9.40898 155.97303 9.41447 156.29972 9.41843 C 156.6264 9.42238 157.15032 9.4295 157.477 9.43417 C 157.8037 9.43884 158.32759 9.44695 158.65428 9.45212 C 158.98097 9.45728 159.5049 9.46576 159.83159 9.47147 C 160.15828 9.47716 160.68218 9.48695 161.00887 9.49324 C 161.33556 9.49954 161.85947 9.50992 162.18616 9.51685 C 162.51285 9.52376 163.03675 9.53566 163.36344 9.54317 C 163.69013 9.55067 164.21405 9.56268 164.54074 9.571 C 164.86743 9.57932 165.39133 9.59422 165.71802 9.60318 C 166.04471 9.61212 166.56862 9.62602 166.89531 9.6356 C 167.222 9.64517 167.74593 9.66197 168.07262 9.67224 C 168.3993 9.6825 168.92319 9.69864 169.24988 9.70958 C 169.57657 9.7205 170.1005 9.73903 170.42719 9.75107 C 170.75388 9.7631 171.27779 9.78357 171.60448 9.79639 C 171.93117 9.8092 172.45507 9.82997 172.78176 9.84348 C 173.10845 9.85696 173.63236 9.87926 173.95905 9.89369 C 174.28574 9.90814 174.80965 9.93239 175.13634 9.94759 C 175.46303 9.96278 175.98693 9.98726 176.31362 10.00328 C 176.6403 10.0193 177.16422 10.04585 177.4909 10.06311 C 177.8176 10.08037 178.3415 10.10925 178.6682 10.12766 C 178.99489 10.14607 179.5188 10.1764 179.84549 10.19583 C 180.17218 10.21527 180.69608 10.24757 181.02277 10.2677 C 181.34946 10.28783 181.87339 10.31964 182.20008 10.34096 C 182.52677 10.36227 183.05068 10.39885 183.37737 10.42136 C 183.70406 10.44388 184.22795 10.4795 184.55464 10.50327 C 184.88134 10.52702 185.40526 10.56764 185.73195 10.59271 C 186.05864 10.61778 186.58252 10.65802 186.90921 10.684 C 187.2359 10.70998 187.75983 10.75256 188.08652 10.78006 C 188.41321 10.80757 188.93712 10.85352 189.26381 10.88226 C 189.5905 10.91101 190.1144 10.95712 190.44109 10.98735 C 190.76778 11.01756 191.29169 11.06815 191.61838 11.10013 C 191.94507 11.13211 192.46898 11.18466 192.79567 11.21794 C 193.12236 11.25122 193.64626 11.30537 193.97295 11.34001 C 194.29964 11.37466 194.82355 11.43163 195.15024 11.46774 C 195.47693 11.50386 196.00084 11.56256 196.32753 11.60042 C 196.65422 11.63829 197.17813 11.70108 197.50482 11.74069 C 197.83152 11.7803 198.35541 11.84479 198.6821 11.88605 C 199.00879 11.92732 199.53272 11.99475 199.8594 12.03822 C 200.1861 12.08171 200.71 12.15424 201.0367 12.19948 C 201.36339 12.24472 201.88729 12.31718 202.21398 12.36436 C 202.54067 12.41156 203.06459 12.49025 203.39128 12.5396 C 203.71797 12.58894 204.24185 12.66895 204.56855 12.72008 C 204.89524 12.77122 205.41916 12.85493 205.74585 12.90826 C 206.07254 12.9616 206.59644 13.04865 206.92313 13.10448 C 207.24982 13.16031 207.77373 13.25261 208.10042 13.31078 C 208.42711 13.36893 208.95102 13.46347 209.27771 13.52371 C 209.6044 13.58397 210.12831 13.68205 210.455 13.74504 C 210.7817 13.80804 211.30559 13.91196 211.63228 13.9778 C 211.95897 14.04364 212.4829 14.15158 212.80959 14.21957 C 213.13628 14.28757 213.66017 14.39706 213.98686 14.46799 C 214.31356 14.53891 214.83747 14.65648 215.16416 14.73073 C 215.49085 14.80498 216.01474 14.92589 216.34143 15.00317 C 216.66812 15.08046 217.19205 15.20786 217.51874 15.28777 C 217.84543 15.36769 218.36933 15.49615 218.69602 15.5792 C 219.0227 15.66223 219.54662 15.79958 219.8733 15.88632 C 220.2 15.97307 220.72393 16.11446 221.05062 16.20447 C 221.3773 16.29448 221.90119 16.4417 222.22788 16.53511 C 222.55457 16.62852 223.07849 16.78033 223.40518 16.87784 C 223.73188 16.97534 224.25579 17.13638 224.58248 17.23793 C 224.90917 17.33948 225.43306 17.50444 225.75975 17.60974 C 226.08644 17.71503 226.61035 17.88748 226.93704 17.99686 C 227.26374 18.10623 227.78765 18.28462 228.11434 18.39813 C 228.44103 18.51163 228.96492 18.69652 229.29161 18.81494 C 229.6183 18.93336 230.14223 19.12854 230.46892 19.25165 C 230.79561 19.37474 231.3195 19.57465 231.6462 19.70229 C 231.97289 19.82993 232.4968 20.03876 232.82349 20.17163 C 233.15018 20.30452 233.67407 20.52187 234.00077 20.66003 C 234.32746 20.79819 234.85138 21.02345 235.17807 21.16739 C 235.50476 21.31134 236.02867 21.54784 236.35536 21.69751 C 236.68206 21.84717 237.20595 22.09099 237.53264 22.24617 C 237.85933 22.40135 238.38326 22.6543 238.70995 22.816 C 239.03664 22.97768 239.56052 23.24283 239.8872 23.41159 C 240.2139 23.58034 240.73783 23.85724 241.06452 24.03232 C 241.3912 24.2074 241.91512 24.49191 242.2418 24.67352 C 242.5685 24.85512 243.09239 25.15149 243.41909 25.34125 C 243.74578 25.53102 244.26967 25.84401 244.59636 26.0413 C 244.92305 26.23859 245.44696 26.55824 245.77365 26.76321 C 246.10034 26.96819 246.62422 27.3041 246.95092 27.51863 C 247.2776 27.73315 247.80152 28.08583 248.1282 28.30942 C 248.4549 28.533 248.97879 28.89789 249.30548 29.13019 C 249.63217 29.36249 250.15607 29.74171 250.48276 29.9837 C 250.80945 30.2257 251.33336 30.62186 251.66005 30.87425 C 251.98674 31.12665 252.51064 31.53949 252.83733 31.80287 C 253.16402 32.06624 253.68791 32.49782 254.0146 32.77248 C 254.3413 33.04713 254.86519 33.49554 255.19188 33.78241 C 255.51857 34.06927 256.04249 34.54085 256.36918 34.84 C 256.69587 35.13914 257.21974 35.62608 257.54643 35.93846 C 257.8731 36.25082 258.39704 36.76405 258.72373 37.09134 C 259.0504 37.41864 259.5743 37.9557 259.901 38.29749 C 260.2277 38.63927 260.7516 39.1972 261.07829 39.55478 C 261.40498 39.91235 262.25556 40.87474 262.25556 40.87474 "/>
<path transform="matrix(1,0,0,-1,-106.649,174.63501)" stroke-width="1.19553" stroke-linecap="butt" stroke-miterlimit="10" stroke-linejoin="miter" fill="none" stroke="#cc6600" d="M 262.2674 40.88834 C 262.2674 40.88834 262.48008 41.1323 262.56175 41.22684 C 262.6434 41.32137 262.7744 41.47386 262.85606 41.56975 C 262.93775 41.66562 263.06874 41.82047 263.1504 41.91795 C 263.23207 42.01544 263.36308 42.1743 263.44474 42.27246 C 263.5264 42.37064 263.6574 42.52643 263.73908 42.62555 C 263.8207 42.72467 263.95176 42.88638 264.0334 42.98685 C 264.11509 43.0873 264.24607 43.24817 264.32774 43.3496 C 264.4094 43.45102 264.54039 43.61488 264.62205 43.71793 C 264.7037 43.82098 264.83473 43.98805 264.91639 44.09235 C 264.99806 44.19662 265.12904 44.36438 265.21073 44.46964 C 265.29237 44.5749 265.4234 44.7444 265.50505 44.85106 C 265.58674 44.95772 265.7177 45.12999 265.79939 45.23836 C 265.88105 45.34674 266.01206 45.523 266.0937 45.63222 C 266.17539 45.74142 266.30638 45.91473 266.38807 46.02553 C 266.4697 46.13632 266.6007 46.31802 266.68238 46.4308 C 266.76405 46.54358 266.89503 46.7248 266.9767 46.83849 C 267.05836 46.95218 267.1894 47.13553 267.27104 47.25032 C 267.3527 47.36511 267.4837 47.54909 267.56538 47.66583 C 267.64704 47.78256 267.778 47.97351 267.85969 48.09175 C 267.94136 48.20999 268.07237 48.39899 268.15403 48.5181 C 268.2357 48.6372 268.36668 48.82901 268.44837 48.95029 C 268.53 49.07156 268.66105 49.26926 268.74269 49.39224 C 268.82438 49.51523 268.95536 49.71338 269.03703 49.83678 C 269.11869 49.96017 269.2497 50.15633 269.33134 50.28166 C 269.41304 50.407 269.544 50.61247 269.6257 50.74017 C 269.70735 50.86786 269.83836 51.07259 269.92 51.20207 C 270.00169 51.33154 270.1327 51.54228 270.21434 51.67337 C 270.296 51.80446 270.42704 52.01431 270.50868 52.14691 C 270.59037 52.27953 270.72135 52.49496 270.803 52.62915 C 270.88468 52.76334 271.0157 52.97824 271.09736 53.1141 C 271.17903 53.24997 271.31 53.46997 271.39167 53.60838 C 271.47334 53.7468 271.6043 53.97157 271.686 54.11179 C 271.76765 54.252 271.89869 54.47728 271.98033 54.61891 C 272.062 54.76053 272.193 54.98842 272.27467 55.13255 C 272.35633 55.27669 272.48735 55.51135 272.56898 55.65771 C 272.65065 55.80408 272.78166 56.03954 272.86335 56.18752 C 272.94499 56.33548 273.076 56.57394 273.15766 56.72423 C 273.23933 56.87451 273.37034 57.11763 273.45198 57.27075 C 273.53367 57.42389 273.66468 57.67299 273.7463 57.82794 C 273.828 57.9829 273.95899 58.23048 274.04066 58.38763 C 274.1223 58.54477 274.25334 58.80121 274.335 58.96057 C 274.41667 59.11993 274.54765 59.37492 274.62934 59.53622 C 274.71098 59.69754 274.84196 59.9589 274.92366 60.12323 C 275.0053 60.28755 275.1363 60.55412 275.21797 60.72066 C 275.29966 60.8872 275.43064 61.15456 275.5123 61.32355 C 275.59397 61.49252 275.72496 61.76715 275.80665 61.9386 C 275.88829 62.11005 276.0193 62.38525 276.10099 62.55931 C 276.18263 62.73337 276.31364 63.01595 276.3953 63.19316 C 276.47697 63.37036 276.60798 63.65662 276.68965 63.83653 C 276.7713 64.01645 276.9023 64.30774 276.98396 64.48991 C 277.06565 64.6721 277.19664 64.96407 277.2783 65.1496 C 277.35997 65.33511 277.49098 65.63853 277.57264 65.82707 C 277.6543 66.0156 277.7853 66.31659 277.86698 66.50842 C 277.9486 66.70026 278.07963 67.01393 278.1613 67.20975 C 278.24296 67.40556 278.37397 67.7218 278.4556 67.9198 C 278.5373 68.11781 278.66828 68.43541 278.74995 68.63693 C 278.8316 68.83844 278.9626 69.16692 279.04429 69.37221 C 279.12593 69.57751 279.25694 69.9085 279.33863 70.11665 C 279.42027 70.32481 279.55128 70.66 279.63294 70.87256 C 279.7146 71.08511 279.8456 71.4318 279.92729 71.64864 C 280.00895 71.86548 280.13996 72.21532 280.2216 72.43546 C 280.30329 72.6556 280.43428 73.01166 280.51594 73.23526 C 280.5976 73.45888 280.7286 73.81914 280.81028 74.04715 C 280.89195 74.27518 281.02293 74.64581 281.1046 74.87868 C 281.18626 75.11154 281.31727 75.48837 281.39894 75.7255 C 281.4806 75.96262 281.6116 76.34604 281.69325 76.58768 C 281.77494 76.82932 281.9059 77.22073 281.98759 77.46709 C 282.06925 77.71344 282.20027 78.112 282.28193 78.3632 C 282.3636 78.61443 282.49458 79.02277 282.57627 79.27771 C 282.6579 79.53267 282.7889 79.94002 282.87059 80.20082 C 282.95225 80.46162 283.08326 80.8898 283.16493 81.15746 C 283.24659 81.42513 283.3776 81.8577 283.45924 82.12997 C 283.54093 82.40225 283.6719 82.84177 283.75358 83.1199 C 283.83525 83.39806 283.96626 83.85037 284.0479 84.13472 C 284.12959 84.41907 284.26057 84.87881 284.34226 85.16934 C 284.4239 85.45985 284.5549 85.93141 284.63658 86.22865 C 284.71824 86.5259 284.84925 87.00783 284.9309 87.31168 C 285.01258 87.61551 285.14356 88.10803 285.22523 88.41856 C 285.3069 88.7291 285.4379 89.23131 285.51957 89.5498 C 285.60124 89.8683 285.7322 90.38766 285.8139 90.71408 C 285.89555 91.04048 286.02656 91.56763 286.10823 91.90239 C 286.18989 92.23715 286.3209 92.78337 286.40257 93.12683 C 286.48423 93.47029 286.61524 94.02672 286.69688 94.3778 C 286.77857 94.7289 286.90956 95.2961 286.9912 95.65732 C 287.07289 96.01852 287.2039 96.60861 287.28556 96.9812 C 287.36723 97.35378 287.4982 97.96117 287.5799 98.34265 C 287.66154 98.72415 287.79258 99.33957 287.8742 99.73079 C 287.9559 100.12201 288.08689 100.7586 288.16856 101.16235 C 288.2502 101.5661 288.3812 102.22508 288.4629 102.6408 C 288.54454 103.05649 288.67555 103.73032 288.7572 104.15848 C 288.83888 104.58664 288.96986 105.28366 289.05155 105.72673 C 289.1332 106.16978 289.2642 106.89613 289.34587 107.3518 C 289.42753 107.80746 289.55854 108.54076 289.6402 109.01088 C 289.72187 109.48102 289.85289 110.25099 289.9345 110.74033 C 290.0162 111.22966 290.1472 112.03023 290.22886 112.5377 C 290.31053 113.04517 290.44154 113.8725 290.5232 114.3979 C 290.60487 114.92331 290.73588 115.7814 290.8175 116.32454 C 290.8992 116.86768 291.0302 117.7461 291.11186 118.31252 C 291.19355 118.87895 291.4062 120.40703 291.4062 120.40703 "/>
<symbol id="font_1_3">
<path d="M .45700003 .586 C .461 .6 .461 .602 .461 .609 C .461 .62700006 .447 .63600006 .432 .63600006 C .42200003 .63600006 .40600003 .63 .397 .615 C .395 .61 .387 .579 .38300003 .561 C .37600003 .535 .36900003 .508 .363 .48100005 L .318 .301 C .314 .286 .271 .21600002 .20500002 .21600002 C .15400002 .21600002 .143 .26000003 .143 .29700003 C .143 .34300003 .16000001 .40500004 .194 .49300004 C .21000001 .53400006 .21400002 .545 .21400002 .56500008 C .21400002 .61 .18200001 .6470001 .13200002 .6470001 C .037 .6470001 0 .50200006 0 .49300004 C 0 .48300005 .01 .48300005 .012 .48300005 C .022000002 .48300005 .023 .485 .028000003 .50100007 C .055000009 .595 .095000009 .625 .12900001 .625 C .13700001 .625 .15400002 .625 .15400002 .59300008 C .15400002 .568 .14400001 .54200008 .13700001 .523 C .097 .41700004 .079 .36 .079 .31300003 C .079 .224 .142 .194 .201 .194 C .24000003 .194 .274 .21100001 .30200003 .23900002 C .289 .187 .277 .13800001 .237 .08500001 C .21100001 .051 .17300001 .022 .127 .022 C .113000009 .022 .068 .025000006 .051000008 .06400001 C .067 .06400001 .080000009 .06400001 .094000007 .076000008 C .104 .08500001 .11400001 .098000008 .11400001 .117000009 C .11400001 .148 .087000008 .15200001 .07700001 .15200001 C .054000006 .15200001 .021 .136 .021 .087000008 C .021 .037 .065000008 0 .127 0 C .23 0 .333 .091000009 .361 .20400001 L .45700003 .586 Z "/>
</symbol>
<use xlink:href="#font_1_3" transform="matrix(9.9626,0,0,-9.9626,70.264919,140.57334)" fill="#cc6600"/>
<symbol id="font_2_9">
<path d="M .63100007 .19400002 C .646 .19400002 .665 .19400002 .665 .214 C .665 .23400001 .646 .23400001 .632 .23400001 L .033 .23400001 C .019000002 .23400001 0 .23400001 0 .214 C 0 .19400002 .019000002 .19400002 .034 .19400002 L .63100007 .19400002 M .632 0 C .646 0 .665 0 .665 .02000001 C .665 .040000008 .646 .040000008 .63100007 .040000008 L .034 .040000008 C .019000002 .040000008 0 .040000008 0 .02000001 C 0 0 .019000002 0 .033 0 L .632 0 Z "/>
</symbol>
<symbol id="font_2_c">
<path d="M .144 .694 L 0 .683 L 0 .652 C .07000001 .652 .07800001 .64500007 .07800001 .596 L .07800001 .076000008 C .07800001 .031000002 .067 .031000002 0 .031000002 L 0 0 C .033 .001 .086 .003 .11100001 .003 C .136 .003 .185 .001 .22200004 0 L .22200004 .031000002 C .155 .031000002 .144 .031000002 .144 .076000008 L .144 .694 Z "/>
</symbol>
<symbol id="font_2_d">
<path d="M .07800001 .344 L .07800001 .076000008 C .07800001 .031000002 .067 .031000002 0 .031000002 L 0 0 C .035 .001 .08600001 .003 .113000009 .003 C .139 .003 .191 .001 .225 0 L .225 .031000002 C .158 .031000002 .147 .031000002 .147 .076000008 L .147 .26000003 C .147 .36400003 .218 .42000003 .282 .42000003 C .345 .42000003 .356 .36600004 .356 .30900003 L .356 .076000008 C .356 .031000002 .345 .031000002 .278 .031000002 L .278 0 C .31300003 .001 .36400003 .003 .391 .003 C .41700004 .003 .46900005 .001 .503 0 L .503 .031000002 C .451 .031000002 .42600004 .031000002 .425 .061000006 L .425 .252 C .425 .33800004 .425 .36900003 .39400003 .40500004 C .38000003 .42200003 .347 .44200004 .289 .44200004 C .216 .44200004 .169 .39900003 .141 .337 L .141 .44200004 L 0 .43100003 L 0 .4 C .07000001 .4 .07800001 .393 .07800001 .344 Z "/>
</symbol>
<symbol id="font_2_1">
<path d="M .23200003 .00999999 C .23200003 .012999982 .23200003 .014999986 .215 .03199999 C .09 .15799999 .058 .347 .058 .5 C .058 .674 .096 .84800007 .21900001 .97300007 C .23200003 .985 .23200003 .98700007 .23200003 .99 C .23200003 .99700006 .22800002 1 .222 1 C .21200001 1 .12200001 .93200007 .06299999 .805 C .012000002 .69500008 0 .584 0 .5 C 0 .422 .011 .301 .066 .188 C .126 .065 .21200001 0 .222 0 C .22800002 0 .23200003 .0029999912 .23200003 .00999999 Z "/>
</symbol>
<symbol id="font_2_e">
<path d="M .17500001 .20500002 C .197 .20100002 .279 .18500002 .279 .113000009 C .279 .062000004 .24400002 .022000002 .16600001 .022000002 C .082 .022000002 .046000005 .079 .027000003 .16400002 C .024000004 .17700002 .023000002 .18100001 .013000004 .18100001 C 0 .18100001 0 .17400001 0 .15600002 L 0 .024 C 0 .0070000009 0 0 .011000004 0 C .016000003 0 .017 .0010000002 .036000007 .020000002 C .038000004 .022000002 .038000004 .024 .056 .043 C .1 .0010000002 .14500001 0 .16600001 0 C .28100003 0 .32700003 .067 .32700003 .13900002 C .32700003 .19200002 .29700003 .22200002 .28500004 .23400001 C .25200004 .26600004 .213 .27400003 .171 .28200004 C .115 .293 .048 .30600003 .048 .36400003 C .048 .39900003 .07400001 .44000004 .16 .44000004 C .27 .44000004 .27500005 .35000003 .277 .31900005 C .27800004 .31000004 .28700004 .31000004 .28900004 .31000004 C .30200003 .31000004 .30200003 .31500004 .30200003 .33400003 L .30200003 .43500004 C .30200003 .45200003 .30200003 .45900003 .291 .45900003 C .286 .45900003 .284 .45900003 .27100004 .44700004 C .26800005 .44300003 .25800003 .43400003 .254 .43100003 C .21600002 .45900003 .17500001 .45900003 .16 .45900003 C .038000004 .45900003 0 .39200003 0 .33600004 C 0 .30100004 .016000003 .27300004 .043000007 .25100003 C .075 .22500003 .10300001 .21900001 .17500001 .20500002 Z "/>
</symbol>
<symbol id="font_2_b">
<path d="M .08400001 .263 C .09 .41200004 .17400001 .43700005 .20800002 .43700005 C .31100003 .43700005 .321 .30200003 .321 .263 L .08400001 .263 M .083000008 .24200002 L .36200003 .24200002 C .38400004 .24200002 .38700003 .24200002 .38700003 .263 C .38700003 .36200003 .33300004 .45900003 .20800002 .45900003 C .09200001 .45900003 0 .35600005 0 .23100002 C 0 .097 .105000007 0 .22000002 0 C .342 0 .38700003 .111 .38700003 .13000001 C .38700003 .14000002 .379 .14200002 .374 .14200002 C .365 .14200002 .36300005 .136 .36100004 .128 C .326 .025000003 .236 .025000003 .22600001 .025000003 C .17600002 .025000003 .136 .055000005 .113000009 .092 C .083000008 .14000002 .083000008 .20600002 .083000008 .24200002 Z "/>
</symbol>
<symbol id="font_2_a">
<path d="M .083000008 .22900002 C .083000008 .39200003 .16500002 .43400003 .218 .43400003 C .227 .43400003 .29 .43300004 .32500003 .397 C .284 .39400003 .278 .36400003 .278 .351 C .278 .32500003 .296 .305 .324 .305 C .35 .305 .37 .32200004 .37 .35200004 C .37 .42000003 .294 .45900003 .21700001 .45900003 C .092 .45900003 0 .351 0 .22700002 C 0 .09900001 .099 0 .215 0 C .349 0 .381 .120000008 .381 .13000001 C .381 .14000002 .37100003 .14000002 .368 .14000002 C .359 .14000002 .35700003 .136 .35500003 .13000001 C .326 .037 .261 .025000003 .224 .025000003 C .171 .025000003 .083000008 .068 .083000008 .22900002 Z "/>
</symbol>
<use xlink:href="#font_2_9" transform="matrix(9.9626,0,0,-9.9626,78.54291,137.20598)" fill="#cc6600"/>
<use xlink:href="#font_2_c" transform="matrix(9.9626,0,0,-9.9626,88.83427,138.531)" fill="#cc6600"/>
<use xlink:href="#font_2_d" transform="matrix(9.9626,0,0,-9.9626,91.5939,138.531)" fill="#cc6600"/>
<use xlink:href="#font_2_1" transform="matrix(9.9626,0,0,-9.9626,97.800609,141.02165)" fill="#cc6600"/>
<use xlink:href="#font_2_e" transform="matrix(9.9626,0,0,-9.9626,101.018527,138.6406)" fill="#cc6600"/>
<use xlink:href="#font_2_b" transform="matrix(9.9626,0,0,-9.9626,104.893978,138.6406)" fill="#cc6600"/>
<use xlink:href="#font_2_a" transform="matrix(9.9626,0,0,-9.9626,109.377147,138.6406)" fill="#cc6600"/>
<symbol id="font_1_2">
<path d="M .305 .31300003 C .311 .33900003 .334 .43100003 .404 .43100003 C .409 .43100003 .433 .43100003 .454 .418 C .426 .41300003 .40600003 .388 .40600003 .36400003 C .40600003 .34800003 .417 .32900004 .444 .32900004 C .46600003 .32900004 .498 .34700004 .498 .38700003 C .498 .43900005 .439 .45300005 .405 .45300005 C .347 .45300005 .312 .40000005 .3 .37700004 C .275 .44300003 .221 .45300005 .19200002 .45300005 C .08800001 .45300005 .031000002 .32400004 .031000002 .29900003 C .031000002 .28900004 .041 .28900004 .043000007 .28900004 C .051000008 .28900004 .054000006 .291 .056 .3 C .09 .40600003 .156 .43100003 .19000001 .43100003 C .209 .43100003 .244 .42200003 .244 .36400003 C .244 .33300004 .22700002 .26600004 .19000001 .126 C .17400001 .064 .13900002 .022000002 .095000009 .022000002 C .08900001 .022000002 .06600001 .022000002 .045 .035 C .07000001 .040000004 .09200001 .061 .09200001 .089 C .09200001 .116000007 .07000001 .124000009 .055000009 .124000009 C .025 .124000009 0 .098000008 0 .06600001 C 0 .020000002 .050000006 0 .094000007 0 C .16000001 0 .19600001 .07000001 .19900002 .076000008 C .21100001 .039 .24700003 0 .307 0 C .41 0 .467 .12900001 .467 .15400002 C .467 .16400002 .458 .16400002 .455 .16400002 C .446 .16400002 .444 .16000001 .442 .15300001 C .409 .046 .341 .022000002 .30900003 .022000002 C .27 .022000002 .254 .054 .254 .08800001 C .254 .11000001 .26 .13200002 .271 .17600002 L .305 .31300003 Z "/>
</symbol>
<use xlink:href="#font_1_2" transform="matrix(9.9626,0,0,-9.9626,115.41292,138.6406)" fill="#cc6600"/>
<symbol id="font_2_2">
<path d="M .232 .5 C .232 .578 .22100002 .699 .16600001 .81200006 C .106 .93500009 .020000004 1 .009999998 1 C .0040000008 1 0 .99600008 0 .99 C 0 .98700007 0 .985 .019000002 .967 C .117000009 .86800006 .174 .709 .174 .5 C .174 .329 .137 .153 .012999997 .026999996 C 0 .014999986 0 .012999982 0 .00999999 C 0 .003999993 .0040000008 0 .009999998 0 C .020000004 0 .11000001 .06799999 .169 .195 C .22 .305 .232 .416 .232 .5 Z "/>
</symbol>
<use xlink:href="#font_2_2" transform="matrix(9.9626,0,0,-9.9626,121.38587,141.02165)" fill="#cc6600"/>
</g>
<path transform="matrix(1,0,0,-1,-106.649,174.63501)" stroke-width="1" stroke-linecap="butt" stroke-miterlimit="10" stroke-linejoin="miter" fill="none" stroke="#808080" d="M 194.27216 7.23022 L 194.27216 11.48242 M 242.8402 7.23022 L 242.8402 11.48242 M 291.40824 7.23022 L 291.40824 11.48242 "/>
<path transform="matrix(1,0,0,-1,-106.649,174.63501)" stroke-width="1" stroke-linecap="butt" stroke-miterlimit="10" stroke-linejoin="miter" fill="none" stroke="#808080" d="M 143.57828 38.5949 L 147.82993 38.5949 M 143.57828 67.83347 L 147.82993 67.83347 M 143.57828 97.07204 L 147.82993 97.07204 M 143.57828 126.31062 L 147.82993 126.31062 M 143.57828 155.5492 L 147.82993 155.5492 "/>
<path transform="matrix(1,0,0,-1,-106.649,174.63501)" stroke-width="1" stroke-linecap="butt" stroke-miterlimit="10" stroke-linejoin="miter" fill="none" stroke="#000000" d="M 106.84969 9.35632 L 299.12934 9.35632 "/>
<path transform="matrix(1,0,0,-1,192.48033,165.27869)" d="M 1.99252 0 L -1.19551 1.59401 L 0 0 L -1.19551 -1.59401 "/>
<path transform="matrix(1,0,0,-1,-106.649,174.63501)" stroke-width="1" stroke-linecap="butt" stroke-miterlimit="10" stroke-linejoin="miter" fill="none" stroke="#000000" d="M 145.70412 0 L 145.70412 159.40438 "/>
<path transform="matrix(0,-1,-1,-0,39.055116,15.230637)" d="M 1.99252 0 L -1.19551 1.59401 L 0 0 L -1.19551 -1.59401 "/>
<symbol id="font_2_3">
<path d="M .421 .34200005 C .421 .42200003 .416 .50200006 .381 .57600006 C .335 .67200008 .25300003 .688 .211 .688 C .15100001 .688 .07800001 .66200008 .037000006 .56900009 C .0050000029 .5 0 .42200003 0 .34200005 C 0 .26700003 .0040000008 .177 .045000007 .101 C .088 .020000002 .161 0 .21000001 0 C .264 0 .34 .021000002 .384 .116000007 C .416 .185 .421 .263 .421 .34200005 M .21000001 .022000002 C .171 .022000002 .112 .047000003 .094 .143 C .083000008 .20300001 .083000008 .29500003 .083000008 .35400004 C .083000008 .41800005 .083000008 .48400004 .091000009 .53800007 C .11 .65700009 .185 .66600009 .21000001 .66600009 C .243 .66600009 .30900003 .64800009 .328 .549 C .338 .49300004 .338 .41700004 .338 .35400004 C .338 .279 .338 .21100001 .32700003 .147 C .312 .052 .255 .022000002 .21000001 .022000002 Z "/>
</symbol>
<use xlink:href="#font_2_3" transform="matrix(9.9626,0,0,-9.9626,81.64454,179.58618)"/>
<symbol id="font_1_1">
<path d="M .106 .053000004 C .106 .082 .08200001 .106000009 .05300001 .106000009 C .024000004 .106000009 0 .082 0 .053000004 C 0 .024 .024000004 0 .05300001 0 C .08200001 0 .106 .024 .106 .053000004 Z "/>
</symbol>
<use xlink:href="#font_1_1" transform="matrix(9.9626,0,0,-9.9626,87.09378,179.367)"/>
<symbol id="font_2_8">
<path d="M .39900003 .223 C .39900003 .34200005 .317 .44200004 .209 .44200004 C .16100002 .44200004 .118000019 .42600004 .082 .39100004 L .082 .586 C .10200001 .58000007 .135 .573 .16700001 .573 C .29 .573 .36 .66400006 .36 .67700007 C .36 .683 .357 .688 .35 .688 C .349 .688 .347 .688 .342 .68500009 C .322 .67600008 .273 .656 .20600002 .656 C .16600001 .656 .120000008 .66300007 .073 .6840001 C .065 .68700006 .06300001 .68700006 .061000009 .68700006 C .051000004 .68700006 .051000004 .679 .051000004 .66300007 L .051000004 .36700005 C .051000004 .34900005 .051000004 .34100003 .065 .34100003 C .07200001 .34100003 .074 .34400005 .07800001 .35000003 C .08900002 .36600004 .12600002 .42000006 .207 .42000006 C .259 .42000006 .284 .37400005 .292 .35600005 C .308 .31900005 .31 .28000004 .31 .23 C .31 .19500001 .31 .135 .286 .093 C .262 .054000006 .22500001 .028 .17900002 .028 C .106000009 .028 .049000008 .08100001 .032 .14000002 C .035 .13900002 .038000008 .13800001 .049000008 .13800001 C .082 .13800001 .09900001 .163 .09900001 .187 C .09900001 .21100001 .082 .23600002 .049000008 .23600002 C .035 .23600002 0 .22900002 0 .18300002 C 0 .097 .069000009 0 .18100001 0 C .297 0 .39900003 .096 .39900003 .223 Z "/>
</symbol>
<use xlink:href="#font_2_8" transform="matrix(9.9626,0,0,-9.9626,89.50213,179.58618)"/>
<symbol id="font_2_4">
<path d="M .205 .64000007 C .205 .66400006 .205 .666 .18200003 .666 C .120000008 .60200008 .032000007 .60200008 0 .60200008 L 0 .57100006 C .020000004 .57100006 .07900001 .57100006 .13100001 .597 L .13100001 .079 C .13100001 .043 .128 .031000002 .038000004 .031000002 L .0060000049 .031000002 L .0060000049 0 C .04100001 .003 .128 .003 .168 .003 C .20800002 .003 .29500003 .003 .33000005 0 L .33000005 .031000002 L .29800005 .031000002 C .20800002 .031000002 .205 .042000005 .205 .079 L .205 .64000007 Z "/>
</symbol>
<use xlink:href="#font_2_4" transform="matrix(9.9626,0,0,-9.9626,134.58367,179.367)"/>
<use xlink:href="#font_2_4" transform="matrix(9.9626,0,0,-9.9626,179.27667,179.367)"/>
<use xlink:href="#font_1_1" transform="matrix(9.9626,0,0,-9.9626,184.22878,179.367)"/>
<use xlink:href="#font_2_8" transform="matrix(9.9626,0,0,-9.9626,186.63712,179.58618)"/>
<use xlink:href="#font_2_4" transform="matrix(9.9626,0,0,-9.9626,29.239668,138.432)"/>
<symbol id="font_2_5">
<path d="M .07700001 .07700001 L .18300002 .18 C .33900003 .31800003 .39900003 .372 .39900003 .47200004 C .39900003 .586 .30900003 .666 .18700002 .666 C .074 .666 0 .574 0 .485 C 0 .42900003 .05 .42900003 .053000008 .42900003 C .07000001 .42900003 .105000007 .441 .105000007 .48200003 C .105000007 .508 .08700001 .53400006 .052000006 .53400006 C .044000005 .53400006 .042000008 .53400006 .039 .53300008 C .062000004 .59800007 .11600001 .63500007 .17400001 .63500007 C .26500003 .63500007 .308 .554 .308 .47200004 C .308 .39200003 .25800003 .31300003 .20300003 .25100003 L .011000004 .037 C 0 .026 0 .024 0 0 L .37100003 0 L .39900003 .17400001 L .374 .17400001 C .36900003 .14400001 .36200003 .1 .352 .085 C .345 .07700001 .279 .07700001 .257 .07700001 L .07700001 .07700001 Z "/>
</symbol>
<use xlink:href="#font_2_5" transform="matrix(9.9626,0,0,-9.9626,28.851128,109.19301)"/>
<symbol id="font_2_6">
<path d="M .24800003 .37400005 C .33 .40100003 .388 .47100006 .388 .55 C .388 .632 .3 .688 .204 .688 C .10300001 .688 .027000003 .628 .027000003 .55200007 C .027000003 .519 .049000004 .5 .078 .5 C .109000008 .5 .12900001 .522 .12900001 .55100008 C .12900001 .6010001 .082 .6010001 .067 .6010001 C .098 .65000006 .164 .66300007 .20000002 .66300007 C .24100003 .66300007 .29600004 .64100006 .29600004 .55100008 C .29600004 .53900006 .29400004 .48100005 .268 .43700005 C .238 .38900004 .204 .38600005 .17900002 .38500003 C .171 .38400004 .14700002 .38200004 .14000002 .38200004 C .132 .38100005 .125 .38000003 .125 .37000004 C .125 .35900004 .132 .35900004 .14900002 .35900004 L .19300002 .35900004 C .275 .35900004 .312 .29100005 .312 .193 C .312 .057000005 .24300003 .028 .199 .028 C .15600002 .028 .081 .045 .046000005 .104 C .081 .09900001 .11200001 .12100001 .11200001 .15900001 C .11200001 .19500001 .085 .215 .056 .215 C .031999999 .215 0 .201 0 .157 C 0 .06600001 .093 0 .20200002 0 C .32400004 0 .41500003 .091000009 .41500003 .193 C .41500003 .27500005 .35200004 .35300005 .24800003 .37400005 Z "/>
</symbol>
<use xlink:href="#font_2_6" transform="matrix(9.9626,0,0,-9.9626,28.771426,80.17419)"/>
<symbol id="font_2_7">
<path d="M .266 .165 L .266 .078 C .266 .042000005 .26400004 .031000002 .19000001 .031000002 L .16900002 .031000002 L .16900002 0 C .21000001 .003 .26200003 .003 .30400003 .003 C .34600003 .003 .39900003 .003 .44000004 0 L .44000004 .031000002 L .41900004 .031000002 C .34500004 .031000002 .34300003 .042000005 .34300003 .078 L .34300003 .165 L .44300003 .165 L .44300003 .19600001 L .34300003 .19600001 L .34300003 .651 C .34300003 .671 .34300003 .67700007 .32700003 .67700007 C .31800003 .67700007 .31500004 .67700007 .307 .665 L 0 .19600001 L 0 .165 L .266 .165 M .272 .19600001 L .028 .19600001 L .272 .569 L .272 .19600001 Z "/>
</symbol>
<use xlink:href="#font_2_7" transform="matrix(9.9626,0,0,-9.9626,28.63195,50.71701)"/>
<use xlink:href="#font_2_8" transform="matrix(9.9626,0,0,-9.9626,28.851128,21.698182)"/>
<path transform="matrix(1,0,0,-1,-106.649,174.63501)" d="M 147.69667 9.35632 C 147.69667 10.4568 146.80458 11.34888 145.70412 11.34888 C 144.60364 11.34888 143.71157 10.4568 143.71157 9.35632 C 143.71157 8.25586 144.60364 7.36377 145.70412 7.36377 C 146.80458 7.36377 147.69667 8.25586 147.69667 9.35632 Z M 145.70412 9.35632 " fill="#cc6600"/>
<path transform="matrix(1,0,0,-1,-106.649,174.63501)" stroke-width="1" stroke-linecap="butt" stroke-miterlimit="10" stroke-linejoin="miter" fill="none" stroke="#cc6600" d="M 147.69667 9.35632 C 147.69667 10.4568 146.80458 11.34888 145.70412 11.34888 C 144.60364 11.34888 143.71157 10.4568 143.71157 9.35632 C 143.71157 8.25586 144.60364 7.36377 145.70412 7.36377 C 146.80458 7.36377 147.69667 8.25586 147.69667 9.35632 Z M 145.70412 9.35632 "/>
<path transform="matrix(1,0,0,-1,-106.649,174.63501)" d="M 293.4008 118.70856 C 293.4008 119.80904 292.5087 120.70111 291.40824 120.70111 C 290.30778 120.70111 289.41569 119.80904 289.41569 118.70856 C 289.41569 117.6081 290.30778 116.716 291.40824 116.716 C 292.5087 116.716 293.4008 117.6081 293.4008 118.70856 Z M 291.40824 118.70856 " fill="#cc6600"/>
<path transform="matrix(1,0,0,-1,-106.649,174.63501)" stroke-width="1" stroke-linecap="butt" stroke-miterlimit="10" stroke-linejoin="miter" fill="none" stroke="#cc6600" d="M 293.4008 118.70856 C 293.4008 119.80904 292.5087 120.70111 291.40824 120.70111 C 290.30778 120.70111 289.41569 119.80904 289.41569 118.70856 C 289.41569 117.6081 290.30778 116.716 291.40824 116.716 C 292.5087 116.716 293.4008 117.6081 293.4008 118.70856 Z M 291.40824 118.70856 "/>
<use xlink:href="#font_1_2" transform="matrix(9.9626,0,0,-9.9626,198.3969,167.5316)"/>
<use xlink:href="#font_1_3" transform="matrix(9.9626,0,0,-9.9626,36.720907,9.726339)"/>
</svg>
