<?xml version="1.0" encoding="UTF-8" standalone="no"?>
<!DOCTYPE svg PUBLIC "-//W3C//DTD SVG 1.1//EN" "http://www.w3.org/Graphics/SVG/1.1/DTD/svg11.dtd">
<svg xmlns="http://www.w3.org/2000/svg" xmlns:xlink="http://www.w3.org/1999/xlink" version="1.1" width="214.082pt" height="79.084pt" viewBox="0 0 214.082 79.084">
<symbol id="font_0_1">
<path d="M .057000005 .05099988 C .065000008 .05099988 .073 .052999975 .08 .055999996 C .132 .08099985 .09900001 .16699982 .04 .14499998 C 0 .1309998 .003999997 .08099985 .023000002 .051999809 C .047 .015999794 .096 0 .13700001 .0059998037 C .18800001 .0149998669 .222 .058999778 .24600002 .10099983 C .29900003 .194 .324 .30299986 .35000003 .4059999 C .41500003 .6639999 .47300006 .9239999 .523 1.185 C .57100006 1.433 .605 1.686 .66 1.927 C .675 1.99 .69000008 2.053 .71400007 2.113 C .72300007 2.137 .734 2.161 .75000008 2.181 C .758 2.191 .768 2.201 .78000006 2.204 C .794 2.208 .81200006 2.203 .82500007 2.197 C .83400008 2.193 .84300008 2.188 .85 2.181 C .84200009 2.181 .83400008 2.179 .827 2.1759999 C .77500006 2.151 .808 2.065 .86700007 2.087 C .90700009 2.101 .90300008 2.151 .88400009 2.18 C .86 2.216 .81100007 2.232 .77000007 2.226 C .71900007 2.217 .685 2.173 .661 2.131 C .60800006 2.038 .583 1.929 .55700007 1.826 C .49200005 1.568 .43400003 1.308 .384 1.0469999 C .33600004 .7989999 .30200003 .5459999 .24700001 .30499996 C .23200003 .24199987 .21700001 .1789999 .193 .11899996 C .184 .09499979 .17300001 .07099986 .157 .05099988 C .149 .04099989 .139 .030999899 .127 .027999878 C .113000009 .02399993 .095 .028999806 .082 .034999849 C .073 .038999797 .064 .04399991 .057000005 .05099988 Z "/>
</symbol>
<use xlink:href="#font_0_1" transform="matrix(9.9626,0,0,-9.9626,3.8522845,49.61871)"/>
<symbol id="font_1_4">
<path d="M .205 .64000007 C .205 .66400006 .205 .666 .18200003 .666 C .120000008 .60200008 .032000007 .60200008 0 .60200008 L 0 .57100006 C .020000004 .57100006 .07900001 .57100006 .13100001 .597 L .13100001 .079 C .13100001 .043 .128 .031000002 .038000004 .031000002 L .0060000049 .031000002 L .0060000049 0 C .04100001 .003 .128 .003 .168 .003 C .20800002 .003 .29500003 .003 .33000005 0 L .33000005 .031000002 L .29800005 .031000002 C .20800002 .031000002 .205 .042000005 .205 .079 L .205 .64000007 Z "/>
</symbol>
<use xlink:href="#font_1_4" transform="matrix(9.9626,0,0,-9.9626,34.378679,34.252)"/>
<path transform="matrix(1,0,0,-1,16.213006,38.501)" stroke-width="1" stroke-linecap="butt" stroke-miterlimit="10" stroke-linejoin="miter" fill="none" stroke="#000000" d="M 0 0 L 39.539 0 "/>
<symbol id="font_1_1">
<path d="M .23200003 .00999999 C .23200003 .012999982 .23200003 .014999986 .215 .03199999 C .09 .15799999 .058 .347 .058 .5 C .058 .674 .096 .84800007 .21900001 .97300007 C .23200003 .985 .23200003 .98700007 .23200003 .99 C .23200003 .99700006 .22800002 1 .222 1 C .21200001 1 .12200001 .93200007 .06299999 .805 C .012000002 .69500008 0 .584 0 .5 C 0 .422 .011 .301 .066 .188 C .126 .065 .21200001 0 .222 0 C .22800002 0 .23200003 .0029999912 .23200003 .00999999 Z "/>
</symbol>
<symbol id="font_1_3">
<path d="M .35300002 .31300003 L .632 .31300003 C .646 .31300003 .665 .31300003 .665 .333 C .665 .35300002 .646 .35300002 .632 .35300002 L .35300002 .35300002 L .35300002 .633 C .35300002 .647 .35300002 .666 .33300004 .666 C .31300003 .666 .31300003 .647 .31300003 .633 L .31300003 .35300002 L .033 .35300002 C .019000002 .35300002 0 .35300002 0 .333 C 0 .31300003 .019000002 .31300003 .033 .31300003 L .31300003 .31300003 L .31300003 .033000005 C .31300003 .019000002 .31300003 0 .33300004 0 C .35300002 0 .35300002 .019000002 .35300002 .033000005 L .35300002 .31300003 Z "/>
</symbol>
<use xlink:href="#font_1_1" transform="matrix(9.9626,0,0,-9.9626,17.199303,50.31665)"/>
<use xlink:href="#font_1_4" transform="matrix(9.9626,0,0,-9.9626,20.975127,47.826)"/>
<use xlink:href="#font_1_3" transform="matrix(9.9626,0,0,-9.9626,27.839358,48.652898)"/>
<symbol id="font_2_3">
<path d="M .305 .31300003 C .311 .33900003 .334 .43100003 .404 .43100003 C .409 .43100003 .433 .43100003 .454 .418 C .426 .41300003 .40600003 .388 .40600003 .36400003 C .40600003 .34800003 .417 .32900004 .444 .32900004 C .46600003 .32900004 .498 .34700004 .498 .38700003 C .498 .43900005 .439 .45300005 .405 .45300005 C .347 .45300005 .312 .40000005 .3 .37700004 C .275 .44300003 .221 .45300005 .19200002 .45300005 C .08800001 .45300005 .031000002 .32400004 .031000002 .29900003 C .031000002 .28900004 .041 .28900004 .043000007 .28900004 C .051000008 .28900004 .054000006 .291 .056 .3 C .09 .40600003 .156 .43100003 .19000001 .43100003 C .209 .43100003 .244 .42200003 .244 .36400003 C .244 .33300004 .22700002 .26600004 .19000001 .126 C .17400001 .064 .13900002 .022000002 .095000009 .022000002 C .08900001 .022000002 .06600001 .022000002 .045 .035 C .07000001 .040000004 .09200001 .061 .09200001 .089 C .09200001 .116000007 .07000001 .124000009 .055000009 .124000009 C .025 .124000009 0 .098000008 0 .06600001 C 0 .020000002 .050000006 0 .094000007 0 C .16000001 0 .19600001 .07000001 .19900002 .076000008 C .21100001 .039 .24700003 0 .307 0 C .41 0 .467 .12900001 .467 .15400002 C .467 .16400002 .458 .16400002 .455 .16400002 C .446 .16400002 .444 .16000001 .442 .15300001 C .409 .046 .341 .022000002 .30900003 .022000002 C .27 .022000002 .254 .054 .254 .08800001 C .254 .11000001 .26 .13200002 .271 .17600002 L .305 .31300003 Z "/>
</symbol>
<use xlink:href="#font_2_3" transform="matrix(9.9626,0,0,-9.9626,37.533918,47.93559)"/>
<symbol id="font_3_1">
<path d="M .442 .18200001 L .40800003 .18200001 C .40500004 .16000001 .39500005 .101 .38200004 .091000009 C .374 .085 .29700003 .085 .28300003 .085 L .099 .085 C .20400003 .178 .23900002 .20600002 .29900003 .25300003 C .37300004 .312 .442 .374 .442 .469 C .442 .59000006 .33600004 .66400006 .20800004 .66400006 C .084 .66400006 0 .577 0 .485 C 0 .43400003 .043000007 .42900003 .053000004 .42900003 C .077 .42900003 .10600001 .446 .10600001 .48200003 C .10600001 .5 .099 .535 .047000007 .535 C .078 .606 .146 .628 .19300002 .628 C .293 .628 .34500004 .55 .34500004 .469 C .34500004 .38200004 .28300003 .31300003 .25100003 .277 L .010000005 .039 C 0 .030000002 0 .028 0 0 L .41200004 0 L .442 .18200001 Z "/>
</symbol>
<use xlink:href="#font_3_1" transform="matrix(6.9738,0,0,-6.9738,43.378355,44.948)"/>
<symbol id="font_1_2">
<path d="M .232 .5 C .232 .578 .22100002 .699 .16600001 .81200006 C .106 .93500009 .020000004 1 .009999998 1 C .0040000008 1 0 .99600008 0 .99 C 0 .98700007 0 .985 .019000002 .967 C .117000009 .86800006 .174 .709 .174 .5 C .174 .329 .137 .153 .012999997 .026999996 C 0 .014999986 0 .012999982 0 .00999999 C 0 .003999993 .0040000008 0 .009999998 0 C .020000004 0 .11000001 .06799999 .169 .195 C .22 .305 .232 .416 .232 .5 Z "/>
</symbol>
<use xlink:href="#font_1_2" transform="matrix(9.9626,0,0,-9.9626,47.97587,50.316656)"/>
<use xlink:href="#font_3_1" transform="matrix(6.9738,0,0,-6.9738,51.72235,44.948)"/>
<symbol id="font_2_2">
<path d="M .47600005 .694 C .47600005 .695 .47600005 .705 .46300004 .705 C .44800005 .705 .35300002 .69600006 .33600004 .694 C .32800005 .693 .32200004 .688 .32200004 .675 C .32200004 .663 .33100004 .663 .34600003 .663 C .39400003 .663 .39600004 .656 .39600004 .646 L .39300005 .626 L .33300004 .38900004 C .31500004 .42600004 .286 .45300005 .24100001 .45300005 C .124 .45300005 0 .30600003 0 .16000001 C 0 .06600001 .055000005 0 .133 0 C .153 0 .20300001 .0040000008 .263 .075 C .27100004 .033000005 .30600003 0 .35400004 0 C .38900004 0 .41200004 .023000002 .42800004 .055000005 C .44500003 .091000009 .45800004 .15200001 .45800004 .15400002 C .45800004 .16400002 .44900004 .16400002 .44600005 .16400002 C .43600003 .16400002 .43500004 .16000001 .43200005 .14600002 C .41500003 .081 .397 .022000002 .35600005 .022000002 C .32900004 .022000002 .32600004 .048 .32600004 .068 C .32600004 .092 .32800005 .09900001 .33200003 .116000007 L .47600005 .694 M .26800005 .13000001 C .263 .112 .263 .11000001 .24800001 .093 C .20400001 .038000004 .163 .022000002 .135 .022000002 C .08499999 .022000002 .07100001 .077 .07100001 .116000007 C .07100001 .16600001 .103 .28900004 .126 .335 C .157 .39400003 .202 .43100003 .242 .43100003 C .307 .43100003 .32100005 .34900005 .32100005 .34300003 C .32100005 .337 .31900005 .33100004 .31800003 .32600004 L .26800005 .13000001 Z "/>
</symbol>
<use xlink:href="#font_2_2" transform="matrix(9.9626,0,0,-9.9626,59.006505,41.10159)"/>
<use xlink:href="#font_2_3" transform="matrix(9.9626,0,0,-9.9626,64.08743,41.10159)"/>
<symbol id="font_1_5">
<path d="M .63100007 .19400002 C .646 .19400002 .665 .19400002 .665 .214 C .665 .23400001 .646 .23400001 .632 .23400001 L .033 .23400001 C .019000002 .23400001 0 .23400001 0 .214 C 0 .19400002 .019000002 .19400002 .034 .19400002 L .63100007 .19400002 M .632 0 C .646 0 .665 0 .665 .02000001 C .665 .040000008 .646 .040000008 .63100007 .040000008 L .034 .040000008 C .019000002 .040000008 0 .040000008 0 .02000001 C 0 0 .019000002 0 .033 0 L .632 0 Z "/>
</symbol>
<use xlink:href="#font_1_5" transform="matrix(9.9626,0,0,-9.9626,72.81291,39.666975)"/>
<use xlink:href="#font_0_1" transform="matrix(9.9626,0,0,-9.9626,83.22929,49.61871)"/>
<use xlink:href="#font_1_4" transform="matrix(9.9626,0,0,-9.9626,115.07268,34.252)"/>
<path transform="matrix(1,0,0,-1,95.589008,38.501)" stroke-width="1" stroke-linecap="butt" stroke-miterlimit="10" stroke-linejoin="miter" fill="none" stroke="#000000" d="M 0 0 L 42.175 0 "/>
<symbol id="font_1_8">
<path d="M .17500001 .20500002 C .197 .20100002 .279 .18500002 .279 .113000009 C .279 .062000004 .24400002 .022000002 .16600001 .022000002 C .082 .022000002 .046000005 .079 .027000003 .16400002 C .024000004 .17700002 .023000002 .18100001 .013000004 .18100001 C 0 .18100001 0 .17400001 0 .15600002 L 0 .024 C 0 .0070000009 0 0 .011000004 0 C .016000003 0 .017 .0010000002 .036000007 .020000002 C .038000004 .022000002 .038000004 .024 .056 .043 C .1 .0010000002 .14500001 0 .16600001 0 C .28100003 0 .32700003 .067 .32700003 .13900002 C .32700003 .19200002 .29700003 .22200002 .28500004 .23400001 C .25200004 .26600004 .213 .27400003 .171 .28200004 C .115 .293 .048 .30600003 .048 .36400003 C .048 .39900003 .07400001 .44000004 .16 .44000004 C .27 .44000004 .27500005 .35000003 .277 .31900005 C .27800004 .31000004 .28700004 .31000004 .28900004 .31000004 C .30200003 .31000004 .30200003 .31500004 .30200003 .33400003 L .30200003 .43500004 C .30200003 .45200003 .30200003 .45900003 .291 .45900003 C .286 .45900003 .284 .45900003 .27100004 .44700004 C .26800005 .44300003 .25800003 .43400003 .254 .43100003 C .21600002 .45900003 .17500001 .45900003 .16 .45900003 C .038000004 .45900003 0 .39200003 0 .33600004 C 0 .30100004 .016000003 .27300004 .043000007 .25100003 C .075 .22500003 .10300001 .21900001 .17500001 .20500002 Z "/>
</symbol>
<symbol id="font_1_7">
<path d="M .08400001 .263 C .09 .41200004 .17400001 .43700005 .20800002 .43700005 C .31100003 .43700005 .321 .30200003 .321 .263 L .08400001 .263 M .083000008 .24200002 L .36200003 .24200002 C .38400004 .24200002 .38700003 .24200002 .38700003 .263 C .38700003 .36200003 .33300004 .45900003 .20800002 .45900003 C .09200001 .45900003 0 .35600005 0 .23100002 C 0 .097 .105000007 0 .22000002 0 C .342 0 .38700003 .111 .38700003 .13000001 C .38700003 .14000002 .379 .14200002 .374 .14200002 C .365 .14200002 .36300005 .136 .36100004 .128 C .326 .025000003 .236 .025000003 .22600001 .025000003 C .17600002 .025000003 .136 .055000005 .113000009 .092 C .083000008 .14000002 .083000008 .20600002 .083000008 .24200002 Z "/>
</symbol>
<symbol id="font_1_6">
<path d="M .083000008 .22900002 C .083000008 .39200003 .16500002 .43400003 .218 .43400003 C .227 .43400003 .29 .43300004 .32500003 .397 C .284 .39400003 .278 .36400003 .278 .351 C .278 .32500003 .296 .305 .324 .305 C .35 .305 .37 .32200004 .37 .35200004 C .37 .42000003 .294 .45900003 .21700001 .45900003 C .092 .45900003 0 .351 0 .22700002 C 0 .09900001 .099 0 .215 0 C .349 0 .381 .120000008 .381 .13000001 C .381 .14000002 .37100003 .14000002 .368 .14000002 C .359 .14000002 .35700003 .136 .35500003 .13000001 C .326 .037 .261 .025000003 .224 .025000003 C .171 .025000003 .083000008 .068 .083000008 .22900002 Z "/>
</symbol>
<use xlink:href="#font_1_1" transform="matrix(9.9626,0,0,-9.9626,96.5753,50.31665)"/>
<use xlink:href="#font_1_8" transform="matrix(9.9626,0,0,-9.9626,99.79322,47.93559)"/>
<use xlink:href="#font_1_7" transform="matrix(9.9626,0,0,-9.9626,103.66867,47.93559)"/>
<use xlink:href="#font_1_6" transform="matrix(9.9626,0,0,-9.9626,108.15184,47.93559)"/>
<use xlink:href="#font_3_1" transform="matrix(6.9738,0,0,-6.9738,112.68835,44.948)"/>
<use xlink:href="#font_1_1" transform="matrix(9.9626,0,0,-9.9626,117.7043,50.316656)"/>
<symbol id="font_2_1">
<path d="M .41300003 .511 C .41300003 .577 .395 .716 .293 .716 C .15400002 .716 0 .43400003 0 .20500002 C 0 .111 .029 0 .12 0 C .261 0 .41300003 .28700004 .41300003 .511 M .106 .374 C .123 .43800003 .143 .518 .183 .589 C .21000001 .638 .24700001 .694 .29200004 .694 C .34100003 .694 .34700004 .63 .34700004 .573 C .34700004 .524 .33900003 .47300003 .31500004 .374 L .106 .374 M .30600003 .34200005 C .29500003 .29600004 .27400003 .21100001 .23600003 .13900002 C .201 .071 .16300002 .022000002 .12 .022000002 C .087000008 .022000002 .066 .051000004 .066 .14400001 C .066 .18600002 .072000008 .24400002 .098 .34200005 L .30600003 .34200005 Z "/>
</symbol>
<use xlink:href="#font_2_1" transform="matrix(9.9626,0,0,-9.9626,121.01143,47.935594)"/>
<use xlink:href="#font_1_2" transform="matrix(9.9626,0,0,-9.9626,126.11388,50.316656)"/>
<use xlink:href="#font_1_2" transform="matrix(9.9626,0,0,-9.9626,129.98932,50.316656)"/>
<use xlink:href="#font_3_1" transform="matrix(6.9738,0,0,-6.9738,133.73435,44.948)"/>
<symbol id="font_4_5">
<path d="M .484 .09200001 C .484 .115 .484 .120000008 .47 .120000008 C .409 .12100001 .31 .12900001 .22000002 .17300001 C .112 .22700002 .071 .29000003 .046000005 .32900004 C .043 .33400003 .037 .33400003 .024 .33400003 C .0009999983 .33400003 0 .333 0 .30800004 L 0 .29200004 C .136 .047000003 .361 0 .463 0 C .484 0 .484 .001 .484 .028 L .484 .09200001 Z "/>
</symbol>
<use xlink:href="#font_4_5" transform="matrix(9.9626,0,0,-9.9626,94.1549,54.501005)"/>
<path transform="matrix(1,0,0,-1,98.87701,54.501)" d="M 0 0 L 13.317 0 L 13.317 1.195 L 0 1.195 Z "/>
<symbol id="font_4_4">
<path d="M .48400004 .04200001 C .34800003 .28700004 .123 .33400003 .021000002 .33400003 C 0 .33400003 0 .333 0 .30600003 L 0 .24200002 C 0 .21900001 0 .21400002 .014 .21400002 C .075 .21300002 .17400001 .20500002 .264 .16100002 C .372 .10700001 .41300003 .044000016 .43800003 .00500001 C .441 0 .447 0 .46 0 C .483 0 .48400004 .001000002 .48400004 .026000008 L .48400004 .04200001 Z "/>
</symbol>
<symbol id="font_4_3">
<path d="M .484 .30600003 C .484 .333 .484 .33400003 .463 .33400003 C .361 .33400003 .136 .286 0 .04200001 L 0 .026000008 C 0 .001000002 .0009999983 0 .024 0 C .043 0 .044 .001000002 .049000004 .008000001 C .13100001 .13900002 .269 .21000003 .472 .21400002 C .484 .21400002 .484 .22100002 .484 .24200002 L .484 .30600003 Z "/>
</symbol>
<use xlink:href="#font_4_4" transform="matrix(9.9626,0,0,-9.9626,112.09438,56.632997)"/>
<use xlink:href="#font_4_3" transform="matrix(9.9626,0,0,-9.9626,116.43807,56.632997)"/>
<path transform="matrix(1,0,0,-1,121.16001,54.501)" d="M 0 0 L 13.317 0 L 13.317 1.195 L 0 1.195 Z "/>
<symbol id="font_4_6">
<path d="M .48400004 .30800004 C .48400004 .333 .483 .33400003 .46 .33400003 C .441 .33400003 .44 .333 .435 .326 C .35300002 .19500001 .21500002 .124000009 .012000001 .120000008 C 0 .120000008 0 .113000009 0 .09200001 L 0 .028 C 0 .001 0 0 .021000002 0 C .123 0 .34800003 .048 .48400004 .29200004 L .48400004 .30800004 Z "/>
</symbol>
<symbol id="font_4_1">
<path d="M .521 .00999999 C .521 .013000011 .521 .0149998669 .51500007 .022000075 C .41900004 .13800001 .33900006 .26600004 .28000004 .40499998 C .149 .71099999 .09699999 1.069 .09699999 1.4990001 C .09699999 1.9250001 .14600002 2.299 .29400004 2.627 C .352 2.7540003 .42800004 2.8720003 .517 2.98 C .51900008 2.983 .521 2.9850002 .521 2.989 C .521 2.999 .51400008 2.999 .499 2.999 C .48400004 2.999 .48200006 2.999 .48000003 2.9970003 C .47900004 2.996 .41700007 2.936 .33900006 2.8260003 C .165 2.5800002 .07700001 2.286 .03199999 1.988 C .008000001 1.827 0 1.6630001 0 1.5 C 0 1.126 .047000007 .74399998 .207 .40199996 C .278 .25 .37300004 .112999919 .472 .009000063 C .481 .0009999275 .48200006 0 .499 0 C .51400008 0 .521 0 .521 .00999999 Z "/>
</symbol>
<use xlink:href="#font_4_6" transform="matrix(9.9626,0,0,-9.9626,134.37738,54.501)"/>
<use xlink:href="#font_4_1" transform="matrix(9.9626,0,0,-9.9626,142.97119,53.435335)"/>
<use xlink:href="#font_4_3" transform="matrix(9.9626,0,0,-9.9626,148.2689,31.526997)"/>
<path transform="matrix(1,0,0,-1,152.991,29.395)" d="M 0 0 L 11.912 0 L 11.912 1.195 L 0 1.195 Z "/>
<use xlink:href="#font_4_6" transform="matrix(9.9626,0,0,-9.9626,164.80338,29.395)"/>
<use xlink:href="#font_4_5" transform="matrix(9.9626,0,0,-9.9626,169.14707,29.395)"/>
<path transform="matrix(1,0,0,-1,173.869,29.395)" d="M 0 0 L 11.912 0 L 11.912 1.195 L 0 1.195 Z "/>
<use xlink:href="#font_4_4" transform="matrix(9.9626,0,0,-9.9626,185.68138,31.526997)"/>
<use xlink:href="#font_1_8" transform="matrix(9.9626,0,0,-9.9626,148.83678,41.10159)"/>
<use xlink:href="#font_1_7" transform="matrix(9.9626,0,0,-9.9626,152.71222,41.10159)"/>
<use xlink:href="#font_1_6" transform="matrix(9.9626,0,0,-9.9626,157.1954,41.10159)"/>
<use xlink:href="#font_3_1" transform="matrix(6.9738,0,0,-6.9738,161.73236,36.878004)"/>
<use xlink:href="#font_1_1" transform="matrix(9.9626,0,0,-9.9626,166.7483,43.48265)"/>
<use xlink:href="#font_2_1" transform="matrix(9.9626,0,0,-9.9626,170.05544,41.10159)"/>
<use xlink:href="#font_1_2" transform="matrix(9.9626,0,0,-9.9626,175.15789,43.48265)"/>
<use xlink:href="#font_2_2" transform="matrix(9.9626,0,0,-9.9626,180.52352,41.10159)"/>
<use xlink:href="#font_2_1" transform="matrix(9.9626,0,0,-9.9626,185.73397,41.10159)"/>
<symbol id="font_4_2">
<path d="M .521 1.4990001 C .521 1.873 .474 2.255 .314 2.5970002 C .243 2.749 .148 2.8860002 .049000004 2.99 C .04 2.9980002 .039000006 2.999 .022 2.999 C .008000001 2.999 0 2.999 0 2.989 C 0 2.9850002 .0040000008 2.98 .006000001 2.977 C .102000009 2.861 .18200001 2.733 .241 2.594 C .372 2.288 .42400003 1.9300001 .42400003 1.5 C .42400003 1.074 .375 .70000007 .227 .37199999 C .169 .24499989 .093 .1270001 .0040000008 .019000054 C .0029999987 .01699996 0 .013000011 0 .00999999 C 0 0 .008000001 0 .022 0 C .037 0 .039000006 0 .041 .001999855 C .042000005 .003000021 .10400001 .062999967 .18200001 .1730001 C .356 .4189999 .444 .71300008 .489 1.011 C .5130001 1.172 .521 1.3360001 .521 1.4990001 Z "/>
</symbol>
<use xlink:href="#font_4_2" transform="matrix(9.9626,0,0,-9.9626,190.60274,53.435335)"/>
<symbol id="font_5_2">
<path d="M .38300003 .611 C .39000006 .64000007 .397 .643 .40600003 .64400008 C .41300006 .646 .44200004 .646 .46000005 .646 C .55600008 .646 .591 .638 .591 .57000008 C .591 .544 .58400008 .49800004 .58300009 .49 C .5820001 .485 .57900008 .469 .57900008 .46500004 C .57900008 .45200003 .59300008 .45200003 .5960001 .45200003 C .60800006 .45200003 .61200007 .45400004 .61500009 .47300003 L .64300009 .651 C .64300009 .65300008 .64500007 .66200008 .64500007 .66300007 C .64500007 .67700007 .63500007 .67700007 .61800006 .67700007 L .09400003 .67700007 C .073 .67700007 .07000001 .67700007 .06400001 .65900006 L .004000008 .47900004 C .004000008 .47800002 0 .46600003 0 .46500004 C 0 .45200003 .012000009 .45200003 .016000003 .45200003 C .02000001 .45200003 .025000006 .45200003 .028000012 .455 C .031000004 .45700003 .031000004 .45900003 .040000008 .483 C .09000002 .62600007 .115000028 .646 .24900003 .646 C .268 .646 .291 .646 .30700005 .643 C .30700005 .632 .30700005 .63000008 .30300004 .615 L .16900002 .07700001 C .16000001 .042000005 .15300001 .031000002 .06300001 .031000002 L .04900001 .031000002 C .033000009 .031000002 .02000001 .031000002 .02000001 .013 C .02000001 0 .03400001 0 .037000017 0 C .087 0 .14 .003 .19100003 .003 C .24200003 .003 .296 0 .34600003 0 C .35400004 0 .36700005 0 .36700005 .018000002 C .36700005 .031000002 .35700006 .031000002 .34100003 .031000002 L .32600004 .031000002 C .31100006 .031000002 .291 .032 .27600003 .033 C .25300003 .036000004 .24500002 .037 .24500002 .053000004 C .24500002 .057000005 .24500002 .059000005 .24900003 .07300001 L .38300003 .611 Z "/>
</symbol>
<symbol id="font_5_8">
<path d="M .229 .67300006 C .23200003 .68700006 .23300001 .688 .23300001 .691 C .23300001 .704 .224 .70600005 .20700002 .704 L .103 .695 C .088 .694 .07800001 .693 .07800001 .676 C .07800001 .663 .088 .663 .105000007 .663 C .15200001 .663 .15200001 .65500006 .15200001 .646 C .15200001 .645 .15200001 .639 .148 .624 L .0040000008 .048 C 0 .034 0 .032 0 .028 C 0 .013000001 .011 0 .030000002 0 C .061000006 0 .067 .025000003 .074 .055000005 C .085999999 .098000008 .085999999 .1 .096 .14100002 C .10700001 .18400002 .120000008 .23600002 .128 .27100004 C .139 .31200005 .15900001 .35000003 .18900001 .38000003 C .204 .395 .23700002 .42800004 .291 .42800004 C .32900004 .42800004 .33800004 .395 .33800004 .36300005 C .33800004 .305 .29500003 .18700002 .278 .14200002 C .266 .109000008 .264 .10300001 .264 .082 C .264 .028 .30200003 0 .34300003 0 C .438 0 .475 .14700002 .475 .15400002 C .475 .16600001 .46200005 .16600001 .45800004 .16600001 C .44400005 .16600001 .44300006 .16300002 .437 .14200002 C .42700003 .106000009 .39900003 .025000003 .34500004 .025000003 C .337 .025000003 .324 .026 .324 .053000004 C .324 .077 .33600004 .109000008 .344 .13100001 C .36200003 .17900002 .40300004 .29000003 .40300004 .34700004 C .40300004 .41400004 .363 .45300005 .293 .45300005 C .238 .45300005 .194 .42800004 .15900001 .39100004 L .229 .67300006 Z "/>
</symbol>
<symbol id="font_5_5">
<path d="M .116000007 .24000003 C .19100002 .24000003 .24300003 .24800003 .279 .26200003 C .34900005 .29000003 .35800005 .34600003 .35800005 .367 C .35800005 .41200004 .32000003 .45300005 .25200004 .45300005 C .15 .45300005 0 .35900004 0 .17800002 C 0 .06600001 .063 0 .148 0 C .24000001 0 .32800005 .05 .36600004 .112 C .36200003 .12500002 .35300002 .13100001 .34700004 .13100001 C .34200005 .13100001 .34000004 .12900001 .33300004 .120000008 C .27600003 .047000003 .19500003 .025000003 .14900002 .025000003 C .08100001 .025000003 .071 .101 .071 .136 C .071 .14400001 .071 .17600002 .087000008 .24000003 L .116000007 .24000003 M .093 .26500003 C .13900003 .42500005 .238 .42800004 .25200004 .42800004 C .29600004 .42800004 .31700004 .39800004 .31700004 .36800004 C .31700004 .26500003 .15800002 .26500003 .093 .26500003 Z "/>
</symbol>
<symbol id="font_5_9">
<path d="M .24800003 .634 C .24800003 .65000006 .236 .667 .215 .667 C .19100002 .667 .16700001 .646 .16700001 .621 C .16700001 .593 .19000003 .587 .201 .587 C .22600001 .587 .24800003 .61 .24800003 .634 M .26000003 .15400002 C .26000003 .16600001 .24700001 .16600001 .243 .16600001 C .229 .16600001 .22800002 .16300002 .222 .14200002 C .21200001 .106000009 .18400002 .025000003 .13000001 .025000003 C .12200001 .025000003 .10900001 .026 .10900001 .053000004 C .10900001 .07000001 .11500001 .093 .12600002 .124000009 C .14000002 .16100002 .14000002 .16300002 .157 .20500002 L .19100002 .29900003 C .20000002 .32200004 .21100003 .35200004 .21100003 .37100003 C .21100003 .42000003 .17700002 .45300005 .13200002 .45300005 C .037000009 .45300005 0 .30800004 0 .29900003 C 0 .28700004 .012000002 .28700004 .017000005 .28700004 C .031000004 .28700004 .032000007 .29200004 .036000007 .30400003 C .043000007 .33 .07000001 .42800004 .12900001 .42800004 C .13900002 .42800004 .15 .42600004 .15 .40000005 C .15 .37600003 .143 .35600005 .12600002 .30900003 L .091000009 .21600002 C .08500001 .19800002 .069000009 .15600002 .066 .14700002 C .058000015 .126 .04900001 .102000009 .04900001 .082 C .04900001 .028 .08700001 0 .128 0 C .22300002 0 .26000003 .14700002 .26000003 .15400002 Z "/>
</symbol>
<symbol id="font_5_b">
<path d="M .051 .049000004 C .047000007 .035 .047000007 .033000005 .047000007 .028 C .047000007 .010000001 .061000006 0 .076000008 0 C .10800001 0 .113000009 .020000002 .12600002 .075 C .13100001 .094000007 .14500001 .14700002 .14800002 .16100002 C .15600002 .19400002 .17400003 .26400004 .18 .291 C .18400002 .30400003 .21200001 .35600005 .236 .38000003 C .25100003 .395 .284 .42800004 .33800004 .42800004 C .37600003 .42800004 .38500003 .395 .38500003 .36300005 C .38500003 .305 .342 .18700002 .32500003 .14200002 C .31300003 .109000008 .31100003 .10300001 .31100003 .082 C .31100003 .028 .349 0 .39000003 0 C .48500005 0 .5220001 .14700002 .5220001 .15400002 C .5220001 .16600001 .50900009 .16600001 .505 .16600001 C .49100004 .16600001 .49000005 .16300002 .484 .14200002 C .474 .106000009 .446 .025000003 .39200003 .025000003 C .38400004 .025000003 .37100003 .026 .37100003 .053000004 C .37100003 .077 .38300003 .109000008 .39100004 .13100001 C .409 .17900002 .45000003 .29000003 .45000003 .34700004 C .45000003 .41400004 .41000004 .45300005 .34000004 .45300005 C .268 .45300005 .22000003 .40900005 .194 .37700004 C .185 .42700003 .14800002 .45300005 .106000009 .45300005 C .073000017 .45300005 .048000009 .43300004 .030000009 .395 C .014000006 .36 0 .30400003 0 .3 C 0 .28700004 .011000007 .28700004 .017000005 .28700004 C .032000007 .28700004 .032000007 .291 .037000009 .31100003 C .05700001 .39100004 .076000008 .42800004 .104 .42800004 C .120000008 .42800004 .13000001 .41900004 .13000001 .388 C .13000001 .367 .12400001 .34100003 .12300001 .337 L .051 .049000004 Z "/>
</symbol>
<symbol id="font_5_f">
<path d="M .17400001 .411 L .26 .411 C .277 .411 .288 .411 .288 .42900003 C .288 .44200004 .278 .44200004 .26200003 .44200004 L .182 .44200004 L .219 .589 C .223 .603 .223 .605 .223 .609 C .223 .626 .21000003 .637 .19400002 .637 C .16700001 .637 .156 .615 .15200001 .598 L .113000009 .44200004 L .027999998 .44200004 C .011 .44200004 0 .44200004 0 .42400003 C 0 .411 .009999998 .411 .026 .411 L .105000007 .411 L .033999996 .12500002 C .033999996 .124000009 .029 .106000009 .029 .091000009 C .029 .046 .060000004 0 .119 0 C .22000002 0 .27500005 .14500001 .27500005 .15500002 C .27500005 .16600001 .26200003 .16600001 .259 .16600001 C .246 .16600001 .24500002 .16300002 .23900001 .14900002 C .21100001 .079 .16900002 .025000003 .12100001 .025000003 C .11 .025000003 .09300001 .027000003 .09300001 .06600001 C .09300001 .075 .096 .097 .100999999 .117000009 L .17400001 .411 Z "/>
</symbol>
<symbol id="font_5_7">
<path d="M .43800003 .579 C .44200004 .59300008 .44200004 .595 .44200004 .59900006 C .44200004 .61600008 .42900003 .62700006 .41300003 .62700006 C .39300005 .62700006 .37700004 .612 .37200005 .59300008 C .36 .61600008 .33400003 .6470001 .286 .6470001 C .178 .6470001 .056 .50900009 .056 .36 C .056 .25300003 .121 .20500002 .18100003 .20500002 C .22100002 .20500002 .25800003 .22700002 .28800003 .25500003 L .26700003 .171 C .25500003 .12200001 .25000004 .102000009 .21800003 .068 C .19 .036 .15900001 .025000006 .124000009 .025000006 C .093 .025000006 .067 .030000002 .054000006 .03400001 C .057000005 .03500001 .08200001 .04900001 .08200001 .07800001 C .08200001 .09900001 .067 .11000001 .048 .11000001 C .030000002 .11000001 0 .09600001 0 .058000015 C 0 .016000003 .042000005 0 .123 0 C .23700002 0 .31100003 .07100001 .328 .13900002 L .43800003 .579 M .30900003 .338 C .3 .30400003 .238 .23000002 .18400002 .23000002 C .12900001 .23000002 .12600002 .30300004 .12600002 .31800003 C .12600002 .365 .155 .47600005 .17200002 .515 C .20200002 .58300009 .24900002 .62200006 .286 .62200006 C .34900005 .62200006 .35700003 .53700008 .35700003 .533 C .35700003 .53000006 .35600005 .52700009 .35400004 .51900008 L .30900003 .338 Z "/>
</symbol>
<symbol id="font_5_d">
<path d="M .18200001 .298 C .18400002 .305 .22800002 .42800004 .31500004 .42800004 C .321 .42800004 .349 .42800004 .37000004 .41300003 C .34000004 .40300004 .335 .37900005 .335 .367 C .335 .34700004 .35000003 .335 .36900003 .335 C .395 .335 .418 .35700003 .418 .388 C .418 .43000005 .37100003 .45300005 .31700004 .45300005 C .25700004 .45300005 .21700001 .41700004 .19300002 .38300003 C .18200001 .42800004 .14700002 .45300005 .106000009 .45300005 C .073000017 .45300005 .048000009 .43300004 .030000009 .395 C .014000006 .36 0 .30400003 0 .3 C 0 .28700004 .011000007 .28700004 .017000005 .28700004 C .032000007 .28700004 .032000007 .291 .037000009 .31100003 C .05700001 .39100004 .076000008 .42800004 .104 .42800004 C .120000008 .42800004 .13000001 .41900004 .13000001 .388 C .13000001 .367 .12400001 .34100003 .12300001 .337 L .051 .049000004 C .047000007 .035 .047000007 .033000005 .047000007 .028 C .047000007 .010000001 .061000006 0 .076000008 0 C .09 0 .10900001 .0060000007 .11700001 .037 L .18200001 .298 Z "/>
</symbol>
<symbol id="font_5_3">
<path d="M .38500003 .38500003 C .389 .39900003 .389 .40100003 .389 .40500004 C .389 .42200003 .37600003 .43300004 .36 .43300004 C .347 .43300004 .32500003 .42500005 .319 .397 C .30900003 .41700004 .283 .45300005 .23300001 .45300005 C .121 .45300005 0 .30800004 0 .15700002 C 0 .055000005 .059000009 0 .125 0 C .185 0 .229 .048 .248 .069000009 C .259 .025000003 .294 0 .335 0 C .381 0 .402 .040000004 .41000004 .057000005 C .42800004 .094000007 .44099999 .15100001 .44099999 .15400002 C .44099999 .16600001 .42800004 .16600001 .42400003 .16600001 C .40900005 .16600001 .408 .16200002 .40399999 .143 C .387 .077 .36900003 .025000003 .336 .025000003 C .317 .025000003 .31 .041 .31 .06600001 C .31 .075 .313 .097 .31800003 .117000009 L .38500003 .38500003 M .254 .136 C .245 .102000009 .18200001 .025000003 .12799999 .025000003 C .07300001 .025000003 .07 .09900001 .07 .11400001 C .07 .16500002 .1 .275 .115 .31300003 C .141 .37600003 .18900001 .42800004 .23300001 .42800004 C .294 .42800004 .303 .344 .303 .337 C .303 .33200003 .303 .33100004 .3 .321 L .254 .136 Z "/>
</symbol>
<symbol id="font_5_4">
<path d="M .45700003 .67300006 C .46000005 .686 .46100004 .688 .46100004 .691 C .46100004 .704 .45200003 .70600005 .435 .704 L .331 .695 C .316 .694 .306 .693 .306 .676 C .306 .663 .316 .663 .333 .663 C .38 .663 .38 .65500006 .38 .646 C .38 .64 .38 .638 .37600003 .624 L .319 .397 C .30900003 .41700004 .283 .45300005 .23300001 .45300005 C .121 .45300005 0 .30800004 0 .15700002 C 0 .055000005 .059000009 0 .125 0 C .185 0 .229 .048 .248 .069000009 C .259 .025000003 .294 0 .335 0 C .381 0 .402 .040000004 .41000004 .057000005 C .42800004 .094000007 .44099999 .15100001 .44099999 .15400002 C .44099999 .16600001 .42800004 .16600001 .42400003 .16600001 C .40900005 .16600001 .408 .16200002 .40399999 .143 C .387 .077 .36900003 .025000003 .336 .025000003 C .317 .025000003 .31 .041 .31 .06600001 C .31 .075 .313 .097 .31800003 .117000009 L .45700003 .67300006 M .254 .136 C .245 .102000009 .18200001 .025000003 .12799999 .025000003 C .07300001 .025000003 .07 .09900001 .07 .11400001 C .07 .16500002 .1 .275 .115 .31300003 C .141 .37600003 .18900001 .42800004 .23300001 .42800004 C .294 .42800004 .303 .344 .303 .337 C .303 .33200003 .303 .33100004 .3 .321 L .254 .136 Z "/>
</symbol>
<use xlink:href="#font_5_2" transform="matrix(8.9664,0,0,-8.9664,80.11906,65.442)"/>
<use xlink:href="#font_5_8" transform="matrix(8.9664,0,0,-8.9664,85.80376,65.540637)"/>
<use xlink:href="#font_5_5" transform="matrix(8.9664,0,0,-8.9664,90.86977,65.540637)"/>
<use xlink:href="#font_5_9" transform="matrix(8.9664,0,0,-8.9664,98.07876,65.540637)"/>
<use xlink:href="#font_5_b" transform="matrix(8.9664,0,0,-8.9664,100.903179,65.540637)"/>
<use xlink:href="#font_5_f" transform="matrix(8.9664,0,0,-8.9664,106.16645,65.540637)"/>
<use xlink:href="#font_5_5" transform="matrix(8.9664,0,0,-8.9664,109.44815,65.540637)"/>
<use xlink:href="#font_5_7" transform="matrix(8.9664,0,0,-8.9664,112.676059,67.28011)"/>
<use xlink:href="#font_5_d" transform="matrix(8.9664,0,0,-8.9664,117.132358,65.540637)"/>
<use xlink:href="#font_5_3" transform="matrix(8.9664,0,0,-8.9664,120.799617,65.540637)"/>
<use xlink:href="#font_5_b" transform="matrix(8.9664,0,0,-8.9664,125.24695,65.540637)"/>
<use xlink:href="#font_5_4" transform="matrix(8.9664,0,0,-8.9664,130.68058,65.540637)"/>
<use xlink:href="#font_5_9" transform="matrix(8.9664,0,0,-8.9664,138.42757,65.540637)"/>
<use xlink:href="#font_5_b" transform="matrix(8.9664,0,0,-8.9664,141.25197,65.540637)"/>
<symbol id="font_5_a">
<path d="M .314 .049000004 C .31000004 .035 .31000004 .033000005 .31000004 .028 C .31000004 .010000001 .32400004 0 .33900003 0 C .37100003 0 .37600003 .020000002 .38900004 .075 C .39400003 .094000007 .40800003 .14700002 .411 .16100002 C .419 .19400002 .437 .26400004 .44300006 .291 C .447 .30400003 .47500006 .35600005 .49900005 .38000003 C .51400008 .395 .54700008 .42800004 .6010001 .42800004 C .63900008 .42800004 .648 .395 .648 .36300005 C .648 .305 .605 .18700002 .58800008 .14200002 C .576 .109000008 .574 .10300001 .574 .082 C .574 .028 .612 0 .653 0 C .748 0 .7850001 .14700002 .7850001 .15400002 C .7850001 .16600001 .7720001 .16600001 .768 .16600001 C .75400009 .16600001 .753 .16300002 .7470001 .14200002 C .737 .106000009 .709 .025000003 .6550001 .025000003 C .6470001 .025000003 .63400009 .026 .63400009 .053000004 C .63400009 .077 .646 .109000008 .65400007 .13100001 C .67200008 .17900002 .71300008 .29000003 .71300008 .34700004 C .71300008 .41400004 .673 .45300005 .60300007 .45300005 C .53400006 .45300005 .48500005 .41500003 .45000003 .367 C .442 .42500005 .39900003 .45300005 .34100003 .45300005 C .286 .45300005 .236 .42900003 .194 .37600003 C .185 .42800004 .14700002 .45300005 .106000009 .45300005 C .073000017 .45300005 .048000009 .43300004 .030000009 .395 C .014000006 .36 0 .30400003 0 .3 C 0 .28700004 .011000007 .28700004 .017000005 .28700004 C .032000007 .28700004 .032000007 .291 .037000009 .31100003 C .05700001 .39100004 .076000008 .42800004 .104 .42800004 C .120000008 .42800004 .13000001 .41900004 .13000001 .388 C .13000001 .367 .12400001 .34100003 .12300001 .337 L .051 .049000004 C .047000007 .035 .047000007 .033000005 .047000007 .028 C .047000007 .010000001 .061000006 0 .076000008 0 C .10800001 0 .113000009 .020000002 .12600002 .075 C .13100001 .094000007 .14500001 .14700002 .14800002 .16100002 C .15600002 .19400002 .17400003 .26400004 .18 .291 C .18200001 .298 .20700002 .35300002 .24600002 .39000003 C .27400003 .41600005 .30800004 .42800004 .33800004 .42800004 C .36800004 .42800004 .386 .40800003 .386 .36200003 C .386 .344 .38000003 .314 .37700004 .30100004 L .314 .049000004 Z "/>
</symbol>
<symbol id="font_5_e">
<path d="M .316 .381 C .279 .374 .279 .34300003 .279 .34100003 C .279 .33200003 .28500004 .31300003 .30900003 .31300003 C .331 .31300003 .35200004 .33 .35200004 .367 C .35200004 .41200004 .312 .45300005 .24000001 .45300005 C .12300001 .45300005 .078999999 .36 .078999999 .305 C .078999999 .22700002 .14600002 .21300002 .176 .20600002 C .22300002 .19600001 .268 .18600002 .268 .134 C .268 .105000007 .24400002 .025000003 .135 .025000003 C .109 .025000003 .053000004 .032 .037 .079 C .08400001 .08400001 .08400001 .12500002 .08400001 .126 C .08400001 .15300001 .061000006 .15900001 .049999998 .15900001 C .044 .15900001 0 .15600002 0 .097 C 0 .041 .053000004 0 .135 0 C .28800003 0 .32700003 .12200001 .32700003 .16700001 C .32700003 .19500003 .317 .22100002 .29700003 .24200002 C .271 .268 .248 .27300004 .20300001 .28200004 C .17300001 .28900004 .13700001 .29600004 .13700001 .33900003 C .13700001 .35700003 .15300001 .42800004 .24000001 .42800004 C .27 .42800004 .30600003 .41600005 .316 .381 Z "/>
</symbol>
<symbol id="font_5_c">
<path d="M .41000004 .286 C .41000004 .381 .35000003 .45300005 .25800003 .45300005 C .13100001 .45300005 0 .31200005 0 .16600001 C 0 .07300001 .058000007 0 .15200001 0 C .282 0 .41000004 .14500001 .41000004 .286 M .15200001 .025000003 C .117000009 .025000003 .07300001 .049000004 .07300001 .13000001 C .07300001 .16900002 .093 .27400003 .132 .33900003 C .16500002 .39600004 .21600002 .42800004 .25800003 .42800004 C .30200003 .42800004 .337 .39200003 .337 .32400004 C .337 .28900004 .31800003 .17500001 .273 .106000009 C .24100003 .057000005 .194 .025000003 .15200001 .025000003 Z "/>
</symbol>
<symbol id="font_5_6">
<path d="M .30800004 .605 L .39200003 .605 C .409 .605 .42000003 .605 .42000003 .623 C .42000003 .63600006 .409 .63600006 .39300005 .63600006 L .314 .63600006 C .33300004 .742 .34100003 .77900007 .344 .794 C .35400004 .839 .36400003 .885 .39900003 .885 C .40100003 .885 .42400003 .885 .44000004 .8690001 C .404 .8590001 .40100003 .82800009 .40100003 .822 C .40100003 .80200007 .41700004 .7900001 .43500004 .7900001 C .45700003 .7900001 .48400004 .80700007 .48400004 .8440001 C .48400004 .88900008 .43800003 .9100001 .39900003 .9100001 C .34800003 .9100001 .314 .86800006 .307 .85800006 C .28100003 .8230001 .26700003 .7520001 .26700003 .75100007 L .24500002 .63600006 L .17700002 .63600006 C .16000001 .63600006 .149 .63600006 .149 .61800006 C .149 .605 .16000001 .605 .17600002 .605 L .23900002 .605 L .16900002 .24100001 C .157 .17700002 .157 .17500001 .13900002 .106000009 C .13200002 .07900001 .118 .025000006 .083000008 .025000006 C .080000009 .025000006 .058 .025000006 .044 .04100001 C .080000009 .051 .083000008 .08200001 .083000008 .08800001 C .083000008 .10800001 .067 .12000001 .049000004 .12000001 C .027 .12000001 0 .10300001 0 .066 C 0 .022 .042000005 0 .082 0 C .17600002 0 .22000002 .15 .24500002 .27800004 L .30800004 .605 Z "/>
</symbol>
<use xlink:href="#font_5_f" transform="matrix(8.9664,0,0,-8.9664,90.94194,74.04463)"/>
<use xlink:href="#font_5_5" transform="matrix(8.9664,0,0,-8.9664,94.22364,74.04463)"/>
<use xlink:href="#font_5_d" transform="matrix(8.9664,0,0,-8.9664,98.14196,74.04463)"/>
<use xlink:href="#font_5_a" transform="matrix(8.9664,0,0,-8.9664,102.024417,74.04463)"/>
<use xlink:href="#font_5_e" transform="matrix(8.9664,0,0,-8.9664,109.51136,74.04463)"/>
<use xlink:href="#font_5_c" transform="matrix(8.9664,0,0,-8.9664,116.88174,74.04463)"/>
<use xlink:href="#font_5_6" transform="matrix(8.9664,0,0,-8.9664,120.36967,75.78411)"/>
<symbol id="font_6_1">
<path d="M .425 .50600007 C .425 .609 .391 .716 .299 .716 C .153 .716 0 .43100003 0 .20900002 C 0 .13700001 .022 0 .12600002 0 C .272 0 .425 .28200004 .425 .50600007 M .109000008 .374 C .12900001 .45300005 .15 .526 .19100002 .595 C .215 .635 .252 .691 .298 .691 C .352 .691 .356 .605 .356 .56700006 C .356 .507 .34 .43700005 .32500003 .374 L .109000008 .374 M .316 .34200005 C .3 .279 .28100003 .20400001 .241 .13300002 C .215 .086 .17500001 .025000003 .127 .025000003 C .084 .025000003 .07000001 .077 .07000001 .15000002 C .07000001 .21400002 .086 .279 .101 .34200005 L .316 .34200005 Z "/>
</symbol>
<use xlink:href="#font_6_1" transform="matrix(8.9664,0,0,-8.9664,127.07162,74.04463)"/>
<symbol id="font_5_1">
<path d="M .11100001 .064 C .11100001 .087000008 .094000007 .108 .06600001 .108 C .030000009 .108 0 .074 0 .044000005 C 0 .021000002 .016999998 0 .04500001 0 C .08100001 0 .11100001 .034 .11100001 .064 Z "/>
</symbol>
<use xlink:href="#font_5_1" transform="matrix(8.9664,0,0,-8.9664,132.30515,73.946)"/>
<use xlink:href="#font_5_2" transform="matrix(8.9664,0,0,-8.9664,134.17705,9.621002)"/>
<use xlink:href="#font_5_8" transform="matrix(8.9664,0,0,-8.9664,139.86174,9.719632)"/>
<use xlink:href="#font_5_9" transform="matrix(8.9664,0,0,-8.9664,144.61394,9.719632)"/>
<use xlink:href="#font_5_e" transform="matrix(8.9664,0,0,-8.9664,147.39353,9.719632)"/>
<use xlink:href="#font_5_9" transform="matrix(8.9664,0,0,-8.9664,154.4949,9.719632)"/>
<use xlink:href="#font_5_e" transform="matrix(8.9664,0,0,-8.9664,157.27449,9.719632)"/>
<symbol id="font_6_2">
<path d="M .48200006 .671 C .486 .685 .486 .68700006 .486 .691 C .486 .7 .48000003 .705 .47100003 .705 C .45700003 .705 .36900003 .697 .34900005 .695 C .33900003 .694 .328 .693 .328 .676 C .328 .663 .33900003 .663 .35500003 .663 C .40200005 .663 .40200005 .656 .40200005 .647 C .40200005 .64 .39300005 .605 .388 .584 L .36900003 .507 C .35900004 .46900005 .34900005 .43000005 .34000004 .39100004 C .321 .42700003 .29000003 .45300005 .245 .45300005 C .12900001 .45300005 0 .31500004 0 .16200002 C 0 .052 .07 0 .137 0 C .20200002 0 .25500003 .054 .27100004 .07300001 C .282 .018000002 .33200003 0 .36400003 0 C .39300005 0 .418 .013000001 .44000004 .055000005 C .458 .08800001 .472 .15000002 .472 .15400002 C .472 .15900001 .46900005 .16600001 .45900006 .16600001 C .44700004 .16600001 .44600005 .16100002 .44200004 .14200002 C .42000003 .055000005 .39800004 .025000003 .367 .025000003 C .342 .025000003 .33600004 .049000004 .33600004 .071 C .33600004 .08400001 .34100003 .112 .342 .115 L .48200006 .671 M .275 .13200002 C .27100004 .116000007 .27 .11400001 .254 .094000007 C .21800003 .051000004 .17700002 .025000003 .14000002 .025000003 C .091 .025000003 .074 .076000008 .074 .119 C .074 .16800002 .10300001 .28300003 .127 .33100004 C .15900001 .39100004 .20500002 .42800004 .245 .42800004 C .312 .42800004 .32700003 .34700004 .32700003 .34200005 C .32700003 .337 .32500003 .33100004 .32400004 .32700003 L .275 .13200002 Z "/>
</symbol>
<symbol id="font_6_3">
<path d="M .462 .41500003 C .425 .40800003 .41400004 .37600003 .41400004 .36100004 C .41400004 .34200005 .42800004 .32500003 .453 .32500003 C .48100005 .32500003 .508 .34900005 .508 .38400004 C .508 .43000005 .45800004 .45300005 .411 .45300005 C .351 .45300005 .316 .40000005 .30400003 .37900005 C .28500004 .42800004 .24100003 .45300005 .193 .45300005 C .086 .45300005 .028 .32500003 .028 .29900003 C .028 .29000003 .035000005 .28700004 .042000005 .28700004 C .051 .28700004 .054000006 .29200004 .056 .298 C .087000008 .397 .15300001 .42800004 .19100002 .42800004 C .22 .42800004 .24600002 .40900005 .24600002 .36200003 C .24600002 .32600004 .20300001 .16600001 .19000001 .11800001 C .18200001 .087000008 .15200001 .025000003 .097 .025000003 C .07700001 .025000003 .056 .032 .046000005 .038000004 C .07300001 .043 .093 .06600001 .093 .092 C .093 .117000009 .074 .128 .055 .128 C .026 .128 0 .10300001 0 .069000009 C 0 .020000002 .054000006 0 .096 0 C .15400002 0 .18800001 .048 .20300001 .075 C .22800002 .009000001 .287 0 .314 0 C .42200003 0 .479 .13000001 .479 .15400002 C .479 .15900001 .47600005 .16600001 .46600003 .16600001 C .455 .16600001 .45400004 .16200002 .44900004 .14700002 C .42700003 .075 .36900003 .025000003 .317 .025000003 C .28800003 .025000003 .261 .043 .261 .091000009 C .261 .113000009 .275 .16800002 .284 .20600002 C .28800003 .22400002 .31500004 .33200003 .317 .33900003 C .32900004 .37500004 .35900004 .42800004 .41000004 .42800004 C .42800004 .42800004 .44700004 .42500005 .462 .41500003 Z "/>
</symbol>
<use xlink:href="#font_6_2" transform="matrix(8.9664,0,0,-8.9664,164.01758,9.719632)"/>
<use xlink:href="#font_6_3" transform="matrix(8.9664,0,0,-8.9664,168.68909,9.719632)"/>
<use xlink:href="#font_5_9" transform="matrix(8.9664,0,0,-8.9664,177.65827,9.719632)"/>
<use xlink:href="#font_5_b" transform="matrix(8.9664,0,0,-8.9664,180.48268,9.719632)"/>
<use xlink:href="#font_5_f" transform="matrix(8.9664,0,0,-8.9664,189.03664,9.719632)"/>
<use xlink:href="#font_5_5" transform="matrix(8.9664,0,0,-8.9664,192.31833,9.719632)"/>
<use xlink:href="#font_5_d" transform="matrix(8.9664,0,0,-8.9664,196.23665,9.719632)"/>
<use xlink:href="#font_5_a" transform="matrix(8.9664,0,0,-8.9664,200.1191,9.719632)"/>
<use xlink:href="#font_5_e" transform="matrix(8.9664,0,0,-8.9664,207.60604,9.719632)"/>
<use xlink:href="#font_5_c" transform="matrix(8.9664,0,0,-8.9664,148.27027,17.35163)"/>
<use xlink:href="#font_5_6" transform="matrix(8.9664,0,0,-8.9664,151.7582,19.09111)"/>
<use xlink:href="#font_6_1" transform="matrix(8.9664,0,0,-8.9664,158.46263,17.35163)"/>
<use xlink:href="#font_5_3" transform="matrix(8.9664,0,0,-8.9664,166.9443,17.35163)"/>
<use xlink:href="#font_5_b" transform="matrix(8.9664,0,0,-8.9664,171.39165,17.35163)"/>
<use xlink:href="#font_5_4" transform="matrix(8.9664,0,0,-8.9664,176.82529,17.35163)"/>
<use xlink:href="#font_6_2" transform="matrix(8.9664,0,0,-8.9664,184.2126,17.35163)"/>
<use xlink:href="#font_6_1" transform="matrix(8.9664,0,0,-8.9664,188.98274,17.35163)"/>
<use xlink:href="#font_5_1" transform="matrix(8.9664,0,0,-8.9664,194.21115,17.252999)"/>
</svg>
